<svg width="24" height="24" viewBox="0 0 24 24" fill="none" xmlns="http://www.w3.org/2000/svg" data-fui-icon="true">
  <path
    d="M11.999 14C14.0657 14 15.9957 14.5827 17.5986 15.5859C17.5339 15.7958 17.499 16.0189 17.499 16.25V17.5H16.249C15.0065 17.5001 13.999 18.5074 13.999 19.75C13.999 20.9926 15.0065 21.9999 16.249 22H17.499V23.25C17.499 23.5133 17.5468 23.7652 17.6299 24H5.24902C4.35715 23.9999 3.51678 23.6307 2.95996 23.0156C2.39072 22.3865 2.1219 21.4955 2.42969 20.5576C3.68619 16.7303 7.52273 14.0002 11.999 14ZM19.749 15.5C20.1632 15.5 20.499 15.8358 20.499 16.25V19H23.249C23.6632 19 23.999 19.3358 23.999 19.75C23.999 20.1642 23.6632 20.5 23.249 20.5H20.499V23.25C20.499 23.6642 20.1632 24 19.749 24C19.3349 23.9999 18.999 23.6642 18.999 23.25V20.5H16.249C15.8349 20.4999 15.499 20.1642 15.499 19.75C15.499 19.3358 15.8349 19.0001 16.249 19H18.999V16.25C18.999 15.8358 19.3349 15.5001 19.749 15.5ZM11.999 0C15.4508 0 18.249 2.79822 18.249 6.25C18.249 9.70178 15.4508 12.5 11.999 12.5C8.54742 12.4998 5.74902 9.70165 5.74902 6.25C5.74902 2.79835 8.54742 0.000208907 11.999 0Z"
    fill="currentColor"
  />
</svg>
