<svg width="32" height="32" viewBox="0 0 32 32" fill="none" xmlns="http://www.w3.org/2000/svg" data-fui-icon="true">
  <path
    d="M25.5 20C25.9142 20 26.25 20.3358 26.25 20.75V24.75H30.25C30.6642 24.75 31 25.0858 31 25.5C31 25.9142 30.6642 26.25 30.25 26.25H26.25V30.25C26.25 30.6642 25.9142 31 25.5 31C25.0858 31 24.75 30.6642 24.75 30.25V26.25H20.75C20.3358 26.25 20 25.9142 20 25.5C20 25.0858 20.3358 24.75 20.75 24.75H24.75V20.75C24.75 20.3358 25.0858 20 25.5 20ZM15.999 18.7324C17.6848 18.7324 19.2958 19.0403 20.7666 19.5996C21.1536 19.7469 21.3483 20.1803 21.2012 20.5674C21.054 20.9544 20.6205 21.149 20.2334 21.002C18.932 20.5071 17.5017 20.2324 15.999 20.2324C9.86158 20.2326 5.00015 24.7778 5 30.249C4.99976 30.663 4.66406 30.999 4.25 30.999C3.83602 30.9989 3.50024 30.663 3.5 30.249C3.50015 23.8287 9.1592 18.7326 15.999 18.7324ZM16 1C20.2799 1.00026 23.7499 4.47006 23.75 8.75C23.75 13.03 20.28 16.4997 16 16.5C11.7198 16.5 8.25 13.0302 8.25 8.75C8.25013 4.46991 11.7199 1 16 1ZM16 2.5C12.5483 2.5 9.75013 5.29833 9.75 8.75C9.75 12.2018 12.5482 15 16 15C19.4516 14.9997 22.25 12.2016 22.25 8.75C22.2499 5.29849 19.4515 2.50026 16 2.5Z"
    fill="currentColor"
  />
</svg>
