<svg width="16" height="16" viewBox="0 0 16 16" fill="none" xmlns="http://www.w3.org/2000/svg" data-fui-icon="true">
  <path
    d="M11.3965 0C11.3026 0.231712 11.25 0.484628 11.25 0.75C10.1454 0.75 9.25 1.64543 9.25 2.75C9.25 3.85457 10.1454 4.75 11.25 4.75C11.25 5.85457 12.1454 6.75 13.25 6.75C14.3546 6.75 15.25 5.85457 15.25 4.75C15.5155 4.75 15.7682 4.69648 16 4.60254V11.75C16 14.0972 14.0972 16 11.75 16H4.25C1.90279 16 0 14.0972 0 11.75V4.25C1.28853e-07 1.90279 1.90279 0 4.25 0H11.3965ZM11.25 6.75C10.571 6.75007 9.91959 7.01996 9.43945 7.5L2.83398 14.1035C3.24803 14.3532 3.73127 14.5 4.25 14.5H11.75C13.2688 14.5 14.5 13.2688 14.5 11.75V8.93945L13.0605 7.5C12.5804 7.01996 11.929 6.75006 11.25 6.75ZM5.5 3.25C4.25748 3.25014 3.25 4.25745 3.25 5.5C3.25 6.74255 4.25748 7.74986 5.5 7.75C6.74253 7.74987 7.75 6.74256 7.75 5.5C7.75 4.25744 6.74253 3.25013 5.5 3.25ZM13.25 0C13.6642 0 14 0.335786 14 0.75V2H15.25C15.6642 2 16 2.33579 16 2.75C16 3.16421 15.6642 3.5 15.25 3.5H14V4.75C14 5.16421 13.6642 5.5 13.25 5.5C12.8358 5.5 12.5 5.16421 12.5 4.75V3.5H11.25C10.8358 3.5 10.5 3.16421 10.5 2.75C10.5 2.33579 10.8358 2 11.25 2H12.5V0.75C12.5 0.335786 12.8358 0 13.25 0Z"
    fill="currentColor"
  />
</svg>
