<svg width="24" height="24" viewBox="0 0 24 24" fill="none" xmlns="http://www.w3.org/2000/svg" data-fui-icon="true">
  <path
    d="M15.25 0C15.6642 0 16 0.335786 16 0.75C16 1.16421 15.6642 1.5 15.25 1.5H6.5C3.73858 1.5 1.5 3.73858 1.5 6.5V17.5C1.5 19.3339 2.48782 20.9365 3.95996 21.8066C3.97641 21.6402 4.04534 21.4781 4.17285 21.3506L14.2354 11.2881C14.8922 10.6312 15.7839 10.2617 16.7129 10.2617C17.6416 10.2619 18.5328 10.6314 19.1895 11.2881L22.5 14.5986V8.75C22.5 8.33579 22.8358 8 23.25 8C23.6642 8 24 8.33579 24 8.75V17.5C24 21.0899 21.0898 24 17.5 24H6.5C2.91015 24 0 21.0899 0 17.5V6.5C2.57711e-07 2.91015 2.91015 2.57702e-07 6.5 0H15.25ZM16.7129 11.7617C16.1818 11.7617 15.6724 11.9731 15.2969 12.3486L5.29199 22.3516C5.67895 22.4476 6.08334 22.5 6.5 22.5H17.5C20.2614 22.5 22.5 20.2614 22.5 17.5V16.7061C22.4707 16.6843 22.4417 16.6613 22.415 16.6348L18.1289 12.3486C17.7535 11.9732 17.2438 11.7619 16.7129 11.7617ZM8 4.75C9.79493 4.75 11.25 6.20507 11.25 8C11.25 9.79493 9.79493 11.25 8 11.25C6.20507 11.25 4.75 9.79493 4.75 8C4.75 6.20507 6.20507 4.75 8 4.75ZM8 6.25C7.0335 6.25 6.25 7.0335 6.25 8C6.25 8.9665 7.0335 9.75 8 9.75C8.9665 9.75 9.75 8.9665 9.75 8C9.75 7.0335 8.9665 6.25 8 6.25Z"
    fill="currentColor"
  />
  <path
    d="M20.25 6.75V3.75M20.25 3.75V0.75M20.25 3.75H17.25M20.25 3.75H23.25"
    stroke="currentColor"
    stroke-width="1.5"
    stroke-linecap="round"
    stroke-linejoin="round"
  />
</svg>
