<svg width="24" height="24" viewBox="0 0 24 24" fill="none" xmlns="http://www.w3.org/2000/svg" data-fui-icon="true">
  <path
    d="M15.25 0C15.6642 0 16 0.335786 16 0.75C16 1.16421 15.6642 1.5 15.25 1.5H7.75C4.29822 1.5 1.5 4.29822 1.5 7.75V16.25C1.5 18.365 2.55144 20.2334 4.15918 21.3643L14.2354 11.2881C14.8922 10.6312 15.7839 10.2617 16.7129 10.2617C17.6416 10.2619 18.5328 10.6314 19.1895 11.2881L22.5 14.5986V8.75C22.5 8.33579 22.8358 8 23.25 8C23.6642 8 24 8.33579 24 8.75V16.25C24 20.5302 20.5302 24 16.25 24H7.75C3.46979 24 1.36904e-07 20.5302 0 16.25V7.75C0 3.46979 3.46979 1.36904e-07 7.75 0H15.25ZM16.7129 11.7617C16.1818 11.7617 15.6724 11.9731 15.2969 12.3486L5.54492 22.0986C6.23076 22.3573 6.97364 22.5 7.75 22.5H16.25C19.5527 22.5 22.2549 19.9382 22.4824 16.6934C22.4593 16.6751 22.4364 16.6561 22.415 16.6348L18.1289 12.3486C17.7535 11.9732 17.2438 11.7619 16.7129 11.7617ZM8 4.75C9.79493 4.75 11.25 6.20507 11.25 8C11.25 9.79493 9.79493 11.25 8 11.25C6.20507 11.25 4.75 9.79493 4.75 8C4.75 6.20507 6.20507 4.75 8 4.75ZM8 6.25C7.0335 6.25 6.25 7.0335 6.25 8C6.25 8.9665 7.0335 9.75 8 9.75C8.9665 9.75 9.75 8.9665 9.75 8C9.75 7.0335 8.9665 6.25 8 6.25Z"
    fill="currentColor"
  />
  <path
    d="M20.25 6.75V3.75M20.25 3.75V0.75M20.25 3.75H17.25M20.25 3.75H23.25"
    stroke="currentColor"
    stroke-width="1.5"
    stroke-linecap="round"
    stroke-linejoin="round"
  />
</svg>
