<svg width="20" height="20" viewBox="0 0 20 20" fill="none" xmlns="http://www.w3.org/2000/svg" data-fui-icon="true">
  <path
    d="M10 11.75C10.9579 11.75 11.879 11.905 12.7354 12.1875C13.1285 12.3174 13.3416 12.7415 13.2119 13.1348C13.0821 13.5281 12.658 13.7421 12.2646 13.6123C11.5572 13.379 10.7951 13.25 10 13.25C6.18525 13.25 3.25 15.88 3.25 19.25C3.25 19.6642 2.91421 20 2.5 20C2.08579 20 1.75 19.6642 1.75 19.25C1.75 14.888 5.53048 11.75 10 11.75ZM16.25 12.5C16.6642 12.5 17 12.8358 17 13.25V15.5H19.25C19.6642 15.5 20 15.8358 20 16.25C20 16.6642 19.6642 17 19.25 17H17V19.25C17 19.6642 16.6642 20 16.25 20C15.8358 20 15.5 19.6642 15.5 19.25V17H13.25C12.8358 17 12.5 16.6642 12.5 16.25C12.5 15.8358 12.8358 15.5 13.25 15.5H15.5V13.25C15.5 12.8358 15.8358 12.5 16.25 12.5ZM10 0C12.8995 0 15.25 2.35051 15.25 5.25C15.2498 8.14935 12.8994 10.5 10 10.5C7.10061 10.5 4.75016 8.14935 4.75 5.25C4.75 2.35051 7.1005 0 10 0ZM10 1.5C7.92893 1.5 6.25 3.17893 6.25 5.25C6.25016 7.32093 7.92903 9 10 9C12.071 9 13.7498 7.32093 13.75 5.25C13.75 3.17893 12.0711 1.5 10 1.5Z"
    fill="currentColor"
  />
</svg>
