<svg width="32" height="32" viewBox="0 0 32 32" fill="none" xmlns="http://www.w3.org/2000/svg" data-fui-icon="true">
  <path
    fill-rule="evenodd"
    clip-rule="evenodd"
    d="M25.4995 20C25.9135 20.0002 26.2495 20.3359 26.2495 20.75V24.75H30.2495C30.6635 24.7502 30.9995 25.0859 30.9995 25.5C30.9995 25.9141 30.6635 26.2498 30.2495 26.25H26.2495V30.25C26.2495 30.6641 25.9135 30.9998 25.4995 31C25.0853 31 24.7495 30.6642 24.7495 30.25V26.25H20.7495C20.3353 26.25 19.9995 25.9142 19.9995 25.5C19.9995 25.0858 20.3353 24.75 20.7495 24.75H24.7495V20.75C24.7495 20.3358 25.0853 20 25.4995 20ZM15.9995 18.25C18.6058 18.2502 21.0249 19.0552 23.0268 20.3975C23.0106 20.5128 22.9995 20.6302 22.9995 20.75V23H20.7495C19.3688 23 18.2495 24.1193 18.2495 25.5C18.2495 26.8807 19.3688 28 20.7495 28H22.9995V30.25C22.9995 30.511 23.0396 30.7625 23.1138 30.999H7.24951C6.2196 30.9989 5.25584 30.5735 4.61474 29.8701C3.96242 29.1541 3.64797 28.1462 3.96826 27.0762C5.45052 22.1257 10.2769 18.2501 15.9995 18.25ZM15.9985 1C20.2784 1.00026 23.7484 4.47007 23.7485 8.75C23.7485 13.03 20.2785 16.4997 15.9985 16.5C11.7185 16.4997 8.24853 13.03 8.24853 8.75C8.24866 4.47006 11.7186 1.00026 15.9985 1Z"
    fill="currentColor"
  />
</svg>
