<svg width="32" height="32" viewBox="0 0 32 32" fill="none" xmlns="http://www.w3.org/2000/svg" data-fui-icon="true">
  <path
    d="M21.75 1C22.456 1 23.143 1.08162 23.8037 1.23145C23.7684 1.39873 23.75 1.57221 23.75 1.75V3.25H22.25C20.8693 3.25 19.75 4.36929 19.75 5.75C19.75 7.13071 20.8693 8.25 22.25 8.25H23.75V9.75C23.75 11.1307 24.8693 12.25 26.25 12.25C27.6307 12.25 28.75 11.1307 28.75 9.75V8.25H30.25C30.4275 8.25 30.6005 8.2305 30.7676 8.19531C30.9176 8.85636 31 9.54356 31 10.25V21.75C31 26.8586 26.8586 31 21.75 31H10.25C7.30065 31 4.6762 29.6177 2.98242 27.4678C2.96548 27.4463 2.94839 27.4249 2.93164 27.4033C2.78151 27.2093 2.63851 27.0096 2.50391 26.8037C2.48611 26.7765 2.46869 26.7491 2.45117 26.7217C2.37738 26.6062 2.30603 26.4891 2.2373 26.3701C2.21701 26.335 2.19661 26.3 2.17676 26.2646C2.0648 26.0649 1.95951 25.8609 1.8623 25.6523C1.83336 25.5903 1.80592 25.5276 1.77832 25.4648C1.76152 25.4266 1.74286 25.3891 1.72656 25.3506L1.61328 25.0674C1.60392 25.0431 1.5951 25.0185 1.58594 24.9941C1.57016 24.952 1.55522 24.9096 1.54004 24.8672C1.5001 24.7558 1.46152 24.6436 1.42578 24.5303C1.41376 24.4921 1.40314 24.4534 1.3916 24.415C1.36357 24.3219 1.33667 24.2282 1.31152 24.1338C1.30225 24.0989 1.29208 24.0643 1.2832 24.0293C1.25279 23.9095 1.2249 23.7886 1.19922 23.667C1.1908 23.6271 1.18271 23.587 1.1748 23.5469C1.15026 23.4224 1.12788 23.2971 1.1084 23.1709C1.10559 23.1527 1.10328 23.1344 1.10059 23.1162C1.08217 22.992 1.06713 22.867 1.05371 22.7412C1.05121 22.7178 1.04822 22.6944 1.0459 22.6709C1.03254 22.536 1.02213 22.4002 1.01465 22.2637C1.01255 22.2253 1.0114 22.1869 1.00977 22.1484C1.00416 22.0163 1 21.8835 1 21.75V10.25C1 5.14137 5.14137 1 10.25 1H21.75ZM21.9678 13.9971C20.8444 13.9972 19.767 14.444 18.9727 15.2383L5.9873 28.2217C7.21038 29.0289 8.67491 29.5 10.25 29.5H21.75C26.0302 29.5 29.5 26.0302 29.5 21.75V19.7744L24.9639 15.2383C24.1694 14.4439 23.0913 13.9971 21.9678 13.9971ZM11 7C8.79086 7 7 8.79086 7 11C7 13.2091 8.79086 15 11 15C13.2091 15 15 13.2091 15 11C15 8.79086 13.2091 7 11 7ZM26.25 1C26.6642 1 27 1.33579 27 1.75V5H30.25C30.6642 5 31 5.33579 31 5.75C31 6.16421 30.6642 6.5 30.25 6.5H27V9.75C27 10.1642 26.6642 10.5 26.25 10.5C25.8358 10.5 25.5 10.1642 25.5 9.75V6.5H22.25C21.8358 6.5 21.5 6.16421 21.5 5.75C21.5 5.33579 21.8358 5 22.25 5H25.5V1.75C25.5 1.33579 25.8358 1 26.25 1Z"
    fill="currentColor"
  />
</svg>
