<svg width="16" height="16" viewBox="0 0 16 16" fill="none" xmlns="http://www.w3.org/2000/svg" data-fui-icon="true">
  <path
    d="M8.00098 8.75C9.05527 8.75005 10.0627 8.96061 10.9688 9.34473C10.8303 9.61674 10.751 9.92386 10.751 10.25V10.75H10.251C9.14643 10.75 8.25098 11.6454 8.25098 12.75C8.25098 13.8546 9.14643 14.75 10.251 14.75H10.751V15.25C10.751 15.5154 10.8036 15.7683 10.8975 16H3.25098C2.6351 16 2.05178 15.7469 1.65527 15.3164C1.24847 14.8745 1.04127 14.2408 1.22754 13.5674C2.02543 10.6838 4.79863 8.75004 8.00098 8.75ZM12.751 9.5C13.165 9.50023 13.501 9.83593 13.501 10.25V12H15.251C15.665 12.0002 16.001 12.3359 16.001 12.75C16.001 13.1641 15.665 13.4998 15.251 13.5H13.501V15.25C13.501 15.6641 13.165 15.9998 12.751 16C12.3368 16 12.001 15.6642 12.001 15.25V13.5H10.251C9.83676 13.5 9.50098 13.1642 9.50098 12.75C9.50098 12.3358 9.83676 12 10.251 12H12.001V10.25C12.001 9.83579 12.3368 9.5 12.751 9.5ZM8.00098 0C10.1268 0.000374463 11.8514 1.72372 11.8516 3.84961C11.8516 5.97567 10.127 7.69982 8.00098 7.7002C5.87489 7.69995 4.15137 5.97576 4.15137 3.84961C4.15158 1.72364 5.87502 0.000240613 8.00098 0Z"
    fill="currentColor"
  />
</svg>
