<svg width="32" height="32" viewBox="0 0 32 32" fill="none" xmlns="http://www.w3.org/2000/svg" data-fui-icon="true">
  <path
    d="M20.25 1C20.6642 1 21 1.33579 21 1.75C21 2.16421 20.6642 2.5 20.25 2.5H10.25C5.96979 2.5 2.5 5.96979 2.5 10.25V21.75C2.5 24.4554 3.88735 26.8354 5.98828 28.2217L18.9727 15.2383C19.7671 14.4439 20.8444 13.9972 21.9678 13.9971C23.0913 13.9971 24.1694 14.4439 24.9639 15.2383L29.5 19.7744V11.75C29.5 11.3358 29.8358 11 30.25 11C30.6642 11 31 11.3358 31 11.75V21.75C31 26.8586 26.8586 31 21.75 31H10.25C5.14137 31 1 26.8586 1 21.75V10.25C1 5.14137 5.14137 1 10.25 1H20.25ZM21.9678 15.4971C21.2422 15.4972 20.5463 15.7858 20.0332 16.2988L7.38184 28.9492C8.26921 29.3031 9.23641 29.5 10.25 29.5H21.75C25.9835 29.5 29.4216 26.1054 29.4961 21.8896C29.4873 21.8817 29.4782 21.8737 29.4697 21.8652L23.9033 16.2988C23.3901 15.7857 22.6935 15.4971 21.9678 15.4971ZM11 7C13.2091 7 15 8.79086 15 11C15 13.2091 13.2091 15 11 15C8.79086 15 7 13.2091 7 11C7 8.79086 8.79086 7 11 7ZM11 8.5C9.61929 8.5 8.5 9.61929 8.5 11C8.5 12.3807 9.61929 13.5 11 13.5C12.3807 13.5 13.5 12.3807 13.5 11C13.5 9.61929 12.3807 8.5 11 8.5Z"
    fill="currentColor"
  />
  <path
    d="M26.25 9.75V5.75M26.25 5.75V1.75M26.25 5.75H22.25M26.25 5.75H30.25"
    stroke="currentColor"
    stroke-width="1.5"
    stroke-linecap="round"
    stroke-linejoin="round"
  />
</svg>
