<svg width="20" height="20" viewBox="0 0 20 20" fill="none" xmlns="http://www.w3.org/2000/svg" data-fui-icon="true">
  <path
    d="M12.25 0C12.6642 0 13 0.335786 13 0.75C13 1.16421 12.6642 1.5 12.25 1.5H6.25C3.62665 1.5 1.5 3.62665 1.5 6.25V13.75C1.5 15.3331 2.27508 16.7345 3.46582 17.5977C3.46695 17.5965 3.46859 17.5959 3.46973 17.5947L11.7441 9.32031C12.3092 8.7552 13.0758 8.4375 13.875 8.4375C14.6742 8.4375 15.4408 8.7552 16.0059 9.32031L18.5 11.8145V7.75C18.5 7.33579 18.8358 7 19.25 7C19.6642 7 20 7.33579 20 7.75V13.75C20 17.2018 17.2018 20 13.75 20H6.25C2.79822 20 1.61064e-08 17.2018 0 13.75V6.25C1.61069e-08 2.79822 2.79822 1.61064e-08 6.25 0H12.25ZM13.875 9.9375C13.4736 9.9375 13.0885 10.0971 12.8047 10.3809L4.88477 18.2998C5.31725 18.4294 5.77534 18.5 6.25 18.5H13.75C16.3135 18.5 18.4011 16.4692 18.4951 13.9287C18.4867 13.921 18.4779 13.9135 18.4697 13.9053L14.9453 10.3809C14.6615 10.0971 14.2764 9.9375 13.875 9.9375ZM6.75 4C8.26878 4 9.5 5.23122 9.5 6.75C9.5 8.26878 8.26878 9.5 6.75 9.5C5.23122 9.5 4 8.26878 4 6.75C4 5.23122 5.23122 4 6.75 4ZM6.75 5.5C6.05964 5.5 5.5 6.05964 5.5 6.75C5.5 7.44036 6.05964 8 6.75 8C7.44036 8 8 7.44036 8 6.75C8 6.05964 7.44036 5.5 6.75 5.5Z"
    fill="currentColor"
  />
  <path
    d="M16.75 5.75V3.25M16.75 3.25V0.75M16.75 3.25H14.25M16.75 3.25H19.25"
    stroke="currentColor"
    stroke-width="1.5"
    stroke-linecap="round"
    stroke-linejoin="round"
  />
</svg>
