<svg width="12" height="12" viewBox="0 0 12 12" fill="none" xmlns="http://www.w3.org/2000/svg" data-fui-icon="true">
  <path
    d="M7.89941 0C7.85994 0.0975041 7.82662 0.198304 7.80273 0.302734C6.91377 0.506079 6.25 1.29938 6.25 2.25C6.25 3.20062 6.91377 3.99392 7.80273 4.19727C7.85562 4.42845 7.94915 4.64391 8.07422 4.83691C7.88973 4.78024 7.69646 4.75002 7.5 4.75C6.98109 4.75005 6.48318 4.95636 6.11621 5.32324L1.90332 9.53418C2.30983 10.1177 2.98496 10.5 3.75 10.5H8.25C9.49264 10.5 10.5 9.49264 10.5 8.25V6.93945L9.24512 5.68457C9.40641 5.72663 9.57542 5.75 9.75 5.75C10.7006 5.75 11.4939 5.08623 11.6973 4.19727C11.8017 4.17338 11.9025 4.14006 12 4.10059V8.25C12 10.3211 10.3211 12 8.25 12H3.75C1.67893 12 0 10.3211 0 8.25V3.75C0 1.67893 1.67893 0 3.75 0H7.89941ZM4 2.75C3.30973 2.7501 2.75 3.30971 2.75 4C2.75 4.69029 3.30973 5.2499 4 5.25C4.69024 5.24987 5.25 4.69027 5.25 4C5.25 3.30973 4.69024 2.75013 4 2.75ZM9.75 0C10.1642 0 10.5 0.335786 10.5 0.75V1.5H11.25C11.6642 1.5 12 1.83579 12 2.25C12 2.66421 11.6642 3 11.25 3H10.5V3.75C10.5 4.16421 10.1642 4.5 9.75 4.5C9.33579 4.5 9 4.16421 9 3.75V3H8.25C7.83579 3 7.5 2.66421 7.5 2.25C7.5 1.83579 7.83579 1.5 8.25 1.5H9V0.75C9 0.335786 9.33579 0 9.75 0Z"
    fill="currentColor"
  />
</svg>
