<svg width="16" height="16" viewBox="0 0 16 16" fill="none" xmlns="http://www.w3.org/2000/svg" data-fui-icon="true">
  <path
    d="M13.6689 12.7695C14.0832 12.7695 14.4189 13.1053 14.4189 13.5195C14.4187 13.9336 14.083 14.2695 13.6689 14.2695H2.33105C1.91696 14.2695 1.58125 13.9336 1.58105 13.5195C1.58105 13.1053 1.91684 12.7695 2.33105 12.7695H13.6689ZM8 9.07227C8.41421 9.07227 8.75 9.40805 8.75 9.82227C8.75 10.2365 8.41421 10.5723 8 10.5723H2.33105C1.91684 10.5723 1.58105 10.2365 1.58105 9.82227C1.58105 9.40805 1.91684 9.07227 2.33105 9.07227H8ZM13.6689 5.37598C14.0832 5.37598 14.4189 5.71176 14.4189 6.12598C14.4187 6.54002 14.083 6.87598 13.6689 6.87598H2.33105C1.91696 6.87598 1.58125 6.54002 1.58105 6.12598C1.58105 5.71176 1.91684 5.37598 2.33105 5.37598H13.6689ZM8 1.67871C8.41421 1.67871 8.75 2.0145 8.75 2.42871C8.75 2.84292 8.41421 3.17871 8 3.17871H2.33105C1.91684 3.17871 1.58105 2.84292 1.58105 2.42871C1.58105 2.0145 1.91684 1.67871 2.33105 1.67871H8Z"
    fill="currentColor"
  />
</svg>
