<svg width="16" height="16" viewBox="0 0 16 16" fill="none" xmlns="http://www.w3.org/2000/svg" data-fui-icon="true">
  <path
    d="M13.3379 12.7695C13.7521 12.7695 14.0879 13.1053 14.0879 13.5195C14.0877 13.9336 13.752 14.2695 13.3379 14.2695H2C1.58591 14.2695 1.2502 13.9336 1.25 13.5195C1.25 13.1053 1.58579 12.7695 2 12.7695H13.3379ZM10.6689 9.07227C11.0832 9.07227 11.4189 9.40805 11.4189 9.82227C11.4189 10.2365 11.0832 10.5723 10.6689 10.5723H5C4.58579 10.5723 4.25 10.2365 4.25 9.82227C4.25 9.40805 4.58579 9.07227 5 9.07227H10.6689ZM13.3379 5.37598C13.7521 5.37598 14.0879 5.71176 14.0879 6.12598C14.0877 6.54002 13.752 6.87598 13.3379 6.87598H2C1.58591 6.87598 1.2502 6.54002 1.25 6.12598C1.25 5.71176 1.58579 5.37598 2 5.37598H13.3379ZM10.6689 1.67871C11.0832 1.67871 11.4189 2.0145 11.4189 2.42871C11.4189 2.84292 11.0832 3.17871 10.6689 3.17871H5C4.58579 3.17871 4.25 2.84292 4.25 2.42871C4.25 2.0145 4.58579 1.67871 5 1.67871H10.6689Z"
    fill="currentColor"
  />
</svg>
