<svg width="12" height="12" viewBox="0 0 12 12" fill="none" xmlns="http://www.w3.org/2000/svg" data-fui-icon="true">
  <path
    d="M10 9.25C10.4142 9.25 10.75 9.58579 10.75 10C10.75 10.4142 10.4142 10.75 10 10.75H2C1.58579 10.75 1.25 10.4142 1.25 10C1.25 9.58579 1.58579 9.25 2 9.25H10ZM8 6.60449C8.41421 6.60449 8.75 6.94028 8.75 7.35449C8.74987 7.76859 8.41413 8.10449 8 8.10449H4C3.58587 8.10449 3.25013 7.76859 3.25 7.35449C3.25 6.94028 3.58579 6.60449 4 6.60449H8ZM10 3.95898C10.4142 3.95898 10.75 4.29477 10.75 4.70898C10.7497 5.12297 10.4141 5.45898 10 5.45898H2C1.58595 5.45898 1.25026 5.12297 1.25 4.70898C1.25 4.29477 1.58579 3.95898 2 3.95898H10ZM7.5 1.3125C7.91417 1.3125 8.24993 1.64834 8.25 2.0625C8.25 2.47671 7.91421 2.8125 7.5 2.8125H4C3.58579 2.8125 3.25 2.47671 3.25 2.0625C3.25007 1.64834 3.58583 1.3125 4 1.3125H7.5Z"
    fill="currentColor"
  />
</svg>
