<svg width="20" height="20" viewBox="0 0 20 20" fill="none" xmlns="http://www.w3.org/2000/svg" data-fui-icon="true">
  <path
    d="M17.082 16.0566C17.4961 16.0568 17.832 16.3925 17.832 16.8066C17.8319 17.2206 17.496 17.5565 17.082 17.5566H2.33105C1.91692 17.5566 1.58119 17.2207 1.58105 16.8066C1.58105 16.3924 1.91684 16.0566 2.33105 16.0566H17.082ZM9.70605 11.2637C10.1202 11.2637 10.456 11.5995 10.4561 12.0137C10.4561 12.4279 10.1203 12.7637 9.70605 12.7637H2.33105C1.91684 12.7637 1.58105 12.4279 1.58105 12.0137C1.58112 11.5995 1.91688 11.2637 2.33105 11.2637H9.70605ZM17.082 6.47168C17.4961 6.47184 17.832 6.80757 17.832 7.22168C17.8319 7.63568 17.496 7.97151 17.082 7.97168H2.33105C1.91692 7.97168 1.58119 7.63578 1.58105 7.22168C1.58105 6.80747 1.91684 6.47168 2.33105 6.47168H17.082ZM9.70605 1.67871C10.1203 1.67871 10.4561 2.0145 10.4561 2.42871C10.4561 2.84292 10.1203 3.17871 9.70605 3.17871H2.33105C1.91684 3.17871 1.58105 2.84292 1.58105 2.42871C1.58105 2.0145 1.91684 1.67871 2.33105 1.67871H9.70605Z"
    fill="currentColor"
  />
</svg>
