<svg width="20" height="20" viewBox="0 0 20 20" fill="none" xmlns="http://www.w3.org/2000/svg" data-fui-icon="true">
  <path
    d="M17.5 16.0566C17.9142 16.0566 18.25 16.3924 18.25 16.8066C18.2499 17.2207 17.9141 17.5566 17.5 17.5566H2.5C2.08587 17.5566 1.75013 17.2207 1.75 16.8066C1.75 16.3924 2.08579 16.0566 2.5 16.0566H17.5ZM17.5 11.2637C17.9142 11.2637 18.2499 11.5995 18.25 12.0137C18.25 12.4279 17.9142 12.7637 17.5 12.7637H10C9.58579 12.7637 9.25 12.4279 9.25 12.0137C9.25007 11.5995 9.58583 11.2637 10 11.2637H17.5ZM17.5 6.47168C17.9142 6.47168 18.25 6.80747 18.25 7.22168C18.2499 7.63578 17.9141 7.97168 17.5 7.97168H2.5C2.08587 7.97168 1.75013 7.63578 1.75 7.22168C1.75 6.80747 2.08579 6.47168 2.5 6.47168H17.5ZM17.5 1.67871C17.9142 1.67871 18.25 2.0145 18.25 2.42871C18.25 2.84292 17.9142 3.17871 17.5 3.17871H10C9.58579 3.17871 9.25 2.84292 9.25 2.42871C9.25 2.0145 9.58579 1.67871 10 1.67871H17.5Z"
    fill="currentColor"
  />
</svg>
