<svg width="16" height="16" viewBox="0 0 16 16" fill="none" xmlns="http://www.w3.org/2000/svg" data-fui-icon="true">
  <path
    d="M13.5 12.7695C13.9142 12.7695 14.25 13.1053 14.25 13.5195C14.2498 13.9336 13.9141 14.2695 13.5 14.2695H3C2.58591 14.2695 2.2502 13.9336 2.25 13.5195C2.25 13.1053 2.58579 12.7695 3 12.7695H13.5ZM13.5 9.07227C13.9142 9.07227 14.25 9.40805 14.25 9.82227C14.25 10.2365 13.9142 10.5723 13.5 10.5723H8C7.58579 10.5723 7.25 10.2365 7.25 9.82227C7.25 9.40805 7.58579 9.07227 8 9.07227H13.5ZM13.5 5.37598C13.9142 5.37598 14.25 5.71176 14.25 6.12598C14.2498 6.54002 13.9141 6.87598 13.5 6.87598H3C2.58591 6.87598 2.2502 6.54002 2.25 6.12598C2.25 5.71176 2.58579 5.37598 3 5.37598H13.5ZM13.5 1.67871C13.9142 1.67871 14.25 2.0145 14.25 2.42871C14.25 2.84292 13.9142 3.17871 13.5 3.17871H8C7.58579 3.17871 7.25 2.84292 7.25 2.42871C7.25 2.0145 7.58579 1.67871 8 1.67871H13.5Z"
    fill="currentColor"
  />
</svg>
