<svg width="24" height="24" viewBox="0 0 24 24" fill="none" xmlns="http://www.w3.org/2000/svg" data-fui-icon="true">
  <path
    d="M20 18.25C20.4142 18.25 20.75 18.5858 20.75 19C20.75 19.4142 20.4142 19.75 20 19.75H4C3.58579 19.75 3.25 19.4142 3.25 19C3.25 18.5858 3.58579 18.25 4 18.25H20ZM20 13.25C20.4142 13.25 20.75 13.5858 20.75 14C20.75 14.4142 20.4142 14.75 20 14.75H12C11.5858 14.75 11.25 14.4142 11.25 14C11.25 13.5858 11.5858 13.25 12 13.25H20ZM20 8.25C20.4142 8.25 20.75 8.58579 20.75 9C20.75 9.41421 20.4142 9.75 20 9.75H4C3.58579 9.75 3.25 9.41421 3.25 9C3.25 8.58579 3.58579 8.25 4 8.25H20ZM20 3.25C20.4142 3.25 20.75 3.58579 20.75 4C20.75 4.41421 20.4142 4.75 20 4.75H12C11.5858 4.75 11.25 4.41421 11.25 4C11.25 3.58579 11.5858 3.25 12 3.25H20Z"
    fill="currentColor"
  />
</svg>
