<svg width="20" height="20" viewBox="0 0 20 20" fill="none" xmlns="http://www.w3.org/2000/svg" data-fui-icon="true">
  <path
    d="M16.751 16.0566C17.165 16.0568 17.501 16.3925 17.501 16.8066C17.5008 17.2206 17.165 17.5565 16.751 17.5566H2C1.58587 17.5566 1.25013 17.2207 1.25 16.8066C1.25 16.3924 1.58579 16.0566 2 16.0566H16.751ZM13.375 11.2637C13.7892 11.2637 14.1249 11.5995 14.125 12.0137C14.125 12.4279 13.7892 12.7637 13.375 12.7637H6C5.58579 12.7637 5.25 12.4279 5.25 12.0137C5.25007 11.5995 5.58583 11.2637 6 11.2637H13.375ZM16.751 6.47168C17.165 6.47184 17.501 6.80757 17.501 7.22168C17.5008 7.63568 17.165 7.97151 16.751 7.97168H2C1.58587 7.97168 1.25013 7.63578 1.25 7.22168C1.25 6.80747 1.58579 6.47168 2 6.47168H16.751ZM13.375 1.67871C13.7892 1.67871 14.125 2.0145 14.125 2.42871C14.125 2.84292 13.7892 3.17871 13.375 3.17871H6C5.58579 3.17871 5.25 2.84292 5.25 2.42871C5.25 2.0145 5.58579 1.67871 6 1.67871H13.375Z"
    fill="currentColor"
  />
</svg>
