<svg width="20" height="20" viewBox="0 0 20 20" fill="none" xmlns="http://www.w3.org/2000/svg" data-fui-icon="true">
  <path
    d="M17.083 16.0566C17.4971 16.0568 17.833 16.3925 17.833 16.8066C17.8329 17.2206 17.497 17.5565 17.083 17.5566H2.33203C1.9179 17.5566 1.58216 17.2207 1.58203 16.8066C1.58203 16.3924 1.91782 16.0566 2.33203 16.0566H17.083ZM9.70703 11.2637C10.1212 11.2637 10.457 11.5995 10.457 12.0137C10.457 12.4279 10.1212 12.7637 9.70703 12.7637H2.33203C1.91782 12.7637 1.58203 12.4279 1.58203 12.0137C1.5821 11.5995 1.91786 11.2637 2.33203 11.2637H9.70703ZM17.083 6.47168C17.4971 6.47184 17.833 6.80757 17.833 7.22168C17.8329 7.63568 17.497 7.97151 17.083 7.97168H2.33203C1.9179 7.97168 1.58216 7.63578 1.58203 7.22168C1.58203 6.80747 1.91782 6.47168 2.33203 6.47168H17.083ZM9.70703 1.67871C10.1212 1.67871 10.457 2.0145 10.457 2.42871C10.457 2.84292 10.1212 3.17871 9.70703 3.17871H2.33203C1.91782 3.17871 1.58203 2.84292 1.58203 2.42871C1.58203 2.0145 1.91782 1.67871 2.33203 1.67871H9.70703Z"
    fill="currentColor"
  />
</svg>
