<svg width="16" height="16" viewBox="0 0 16 16" fill="none" xmlns="http://www.w3.org/2000/svg" data-fui-icon="true">
  <path
    d="M13.6699 12.7695C14.0841 12.7695 14.4199 13.1053 14.4199 13.5195C14.4197 13.9336 14.084 14.2695 13.6699 14.2695H2.33203C1.91794 14.2695 1.58223 13.9336 1.58203 13.5195C1.58203 13.1053 1.91782 12.7695 2.33203 12.7695H13.6699ZM8.00098 9.07227C8.41519 9.07227 8.75098 9.40805 8.75098 9.82227C8.75098 10.2365 8.41519 10.5723 8.00098 10.5723H2.33203C1.91782 10.5723 1.58203 10.2365 1.58203 9.82227C1.58203 9.40805 1.91782 9.07227 2.33203 9.07227H8.00098ZM13.6699 5.37598C14.0841 5.37598 14.4199 5.71176 14.4199 6.12598C14.4197 6.54002 14.084 6.87598 13.6699 6.87598H2.33203C1.91794 6.87598 1.58223 6.54002 1.58203 6.12598C1.58203 5.71176 1.91782 5.37598 2.33203 5.37598H13.6699ZM8.00098 1.67871C8.41519 1.67871 8.75098 2.0145 8.75098 2.42871C8.75098 2.84292 8.41519 3.17871 8.00098 3.17871H2.33203C1.91782 3.17871 1.58203 2.84292 1.58203 2.42871C1.58203 2.0145 1.91782 1.67871 2.33203 1.67871H8.00098Z"
    fill="currentColor"
  />
</svg>
