<svg width="12" height="12" viewBox="0 0 12 12" fill="none" xmlns="http://www.w3.org/2000/svg" data-fui-icon="true">
  <path
    d="M10 9.25C10.4142 9.25 10.75 9.58579 10.75 10C10.75 10.4142 10.4142 10.75 10 10.75H2C1.58579 10.75 1.25 10.4142 1.25 10C1.25 9.58579 1.58579 9.25 2 9.25H10ZM10 6.60449C10.4142 6.60449 10.75 6.94028 10.75 7.35449C10.7499 7.76859 10.4141 8.10449 10 8.10449H6C5.58587 8.10449 5.25013 7.76859 5.25 7.35449C5.25 6.94028 5.58579 6.60449 6 6.60449H10ZM10 3.95898C10.4142 3.95898 10.75 4.29477 10.75 4.70898C10.7497 5.12297 10.4141 5.45898 10 5.45898H2C1.58595 5.45898 1.25026 5.12297 1.25 4.70898C1.25 4.29477 1.58579 3.95898 2 3.95898H10ZM10 1.3125C10.4142 1.3125 10.7499 1.64834 10.75 2.0625C10.75 2.47671 10.4142 2.8125 10 2.8125H6.5C6.08579 2.8125 5.75 2.47671 5.75 2.0625C5.75007 1.64834 6.08583 1.3125 6.5 1.3125H10Z"
    fill="currentColor"
  />
</svg>
