<svg width="16" height="16" viewBox="0 0 16 16" fill="none" xmlns="http://www.w3.org/2000/svg" data-fui-icon="true">
  <path
    fill-rule="evenodd"
    clip-rule="evenodd"
    d="M11.8496 2.25C13.7274 2.25 15.25 3.77262 15.25 5.65039V10.3496C15.25 12.2274 13.7274 13.75 11.8496 13.75H4.15039C2.27262 13.75 0.75 12.2274 0.75 10.3496V5.65039C0.75 3.77262 2.27262 2.25 4.15039 2.25H11.8496ZM4.15039 4.25C3.37719 4.25 2.75 4.87719 2.75 5.65039V6.75H4.69531C5.1301 6.75006 5.55683 6.86813 5.92969 7.0918L7.79395 8.20996C7.92063 8.28595 8.07939 8.28598 8.20605 8.20996L10.0693 7.0918C10.4422 6.86814 10.8689 6.75003 11.3037 6.75H13.25V5.65039C13.25 4.87719 12.6228 4.25 11.8496 4.25H4.15039Z"
    fill="currentColor"
  />
</svg>
