<svg width="32" height="32" viewBox="0 0 32 32" fill="none" xmlns="http://www.w3.org/2000/svg" data-fui-icon="true">
  <path
    d="M26 3.75C28.8995 3.75 31.25 6.1005 31.25 9V22C31.25 24.8995 28.8995 27.25 26 27.25H6C3.10051 27.25 0.75 24.8995 0.75 22V9C0.75 6.1005 3.10051 3.75 6 3.75H26ZM2.75 22C2.75 23.7949 4.20507 25.25 6 25.25H26C27.7949 25.25 29.25 23.7949 29.25 22V17.25H23.7969C23.4489 17.25 23.1068 17.341 22.8047 17.5137L17.9844 20.2676C16.7547 20.9702 15.2453 20.9702 14.0156 20.2676L9.19531 17.5137C8.89315 17.341 8.55113 17.25 8.20312 17.25H2.75V22ZM6 5.75C4.20507 5.75 2.75 7.20507 2.75 9V15.25H8.20312C8.89918 15.25 9.58314 15.432 10.1875 15.7773L15.0078 18.5312C15.6226 18.8825 16.3774 18.8825 16.9922 18.5312L21.8125 15.7773C22.4169 15.432 23.1008 15.25 23.7969 15.25H29.25V9C29.25 7.20508 27.7949 5.75 26 5.75H6Z"
    fill="currentColor"
  />
</svg>
