<svg width="24" height="24" viewBox="0 0 24 24" fill="none" xmlns="http://www.w3.org/2000/svg" data-fui-icon="true">
  <path
    fill-rule="evenodd"
    clip-rule="evenodd"
    d="M18.75 2.75C21.2353 2.75 23.25 4.76472 23.25 7.25V15.75C23.25 18.2353 21.2353 20.25 18.75 20.25H5.25C2.76472 20.25 0.75 18.2353 0.75 15.75V7.25C0.75 4.76472 2.76472 2.75 5.25 2.75H18.75ZM5.25 4.75C3.86929 4.75 2.75 5.86929 2.75 7.25V11.25H6.49023C7.08105 11.25 7.6605 11.4137 8.16406 11.7227L11.373 13.6914C11.7581 13.9276 12.2429 13.9277 12.6279 13.6914L15.8369 11.7227C16.3405 11.4137 16.9199 11.25 17.5107 11.25H21.25V7.25C21.25 5.86929 20.1307 4.75 18.75 4.75H5.25Z"
    fill="currentColor"
  />
</svg>
