<svg width="20" height="20" viewBox="0 0 20 20" fill="none" xmlns="http://www.w3.org/2000/svg" data-fui-icon="true">
  <path
    d="M15.25 3C17.3211 3 19 4.67893 19 6.75V13.25C19 15.3211 17.3211 17 15.25 17H4.75C2.67893 17 1 15.3211 1 13.25V6.75C1 4.67893 2.67893 3 4.75 3H15.25ZM4.75 4.5C3.50736 4.5 2.5 5.50736 2.5 6.75V9H5.40039C5.95187 9.00008 6.48846 9.17895 6.92969 9.50977L9.37012 11.3398C9.74345 11.6198 10.2565 11.6198 10.6299 11.3398L13.0703 9.50977C13.5115 9.17895 14.0481 9.00008 14.5996 9H17.5V6.75C17.5 5.50736 16.4926 4.5 15.25 4.5H4.75Z"
    fill="currentColor"
  />
</svg>
