<svg width="16" height="16" viewBox="0 0 16 16" fill="none" xmlns="http://www.w3.org/2000/svg" data-fui-icon="true">
  <path
    d="M11.8496 2.5C13.5893 2.5 15 3.91069 15 5.65039V10.3496C15 12.0893 13.5893 13.5 11.8496 13.5H4.15039C2.41069 13.5 1 12.0893 1 10.3496V5.65039C1 3.91069 2.41069 2.5 4.15039 2.5H11.8496ZM2.5 10.3496C2.5 11.2609 3.23912 12 4.15039 12H11.8496C12.7609 12 13.5 11.2609 13.5 10.3496V8.5H11.3037C11.186 8.50003 11.0707 8.53224 10.9697 8.59277L9.10645 9.71094C8.42562 10.1195 7.57446 10.1194 6.89355 9.71094L5.0293 8.59277C4.92839 8.53224 4.81298 8.50006 4.69531 8.5H2.5V10.3496ZM4.15039 4C3.23912 4 2.5 4.73912 2.5 5.65039V7H4.69531C5.0848 7.00006 5.46678 7.10628 5.80078 7.30664L7.66504 8.4248C7.87079 8.54823 8.1282 8.54815 8.33398 8.4248L10.1973 7.30664C10.5314 7.10611 10.914 7.00003 11.3037 7H13.5V5.65039C13.5 4.73912 12.7609 4 11.8496 4H4.15039Z"
    fill="currentColor"
  />
</svg>
