<svg width="12" height="12" viewBox="0 0 12 12" fill="none" xmlns="http://www.w3.org/2000/svg" data-fui-icon="true">
  <path
    d="M9.25 1.5C10.7688 1.5 12 2.73122 12 4.25V7.75C12 9.26878 10.7688 10.5 9.25 10.5H2.75C1.23122 10.5 0 9.26878 0 7.75V4.25C0 2.73122 1.23122 1.5 2.75 1.5H9.25ZM1.5 7.75C1.5 8.44036 2.05964 9 2.75 9H9.25C9.94036 9 10.5 8.44036 10.5 7.75V6.75H8.76953C8.68687 6.75001 8.60507 6.76617 8.52832 6.79688L6.79883 7.48828C6.28624 7.69331 5.71376 7.69331 5.20117 7.48828L3.47168 6.79688C3.39493 6.76617 3.31313 6.75001 3.23047 6.75H1.5V7.75ZM2.75 3C2.05964 3 1.5 3.55964 1.5 4.25V5.25H3.23047C3.50396 5.25001 3.77536 5.30175 4.0293 5.40332L5.75879 6.0957C5.91365 6.1576 6.08635 6.15759 6.24121 6.0957L7.9707 5.40332C8.22463 5.30175 8.49604 5.25001 8.76953 5.25H10.5V4.25C10.5 3.55964 9.94036 3 9.25 3H2.75Z"
    fill="currentColor"
  />
</svg>
