<svg width="24" height="24" viewBox="0 0 24 24" fill="none" xmlns="http://www.w3.org/2000/svg" data-fui-icon="true">
  <path
    fill-rule="evenodd"
    clip-rule="evenodd"
    d="M12.7499 1.75C12.7499 1.33579 12.4141 1 11.9999 1C11.5857 1 11.2499 1.33579 11.2499 1.75V4.05588C8.8443 4.41774 6.99993 6.49348 6.99993 9C6.99993 10.406 7.58023 11.6764 8.51438 12.5848L6.56852 16.6778C6.41794 16.5588 6.27597 16.4383 6.14236 16.3179C5.53501 15.7705 5.09968 15.2232 4.8179 14.8157C4.67729 14.6123 4.57582 14.445 4.51105 14.3318C4.4787 14.2752 4.45558 14.2322 4.4414 14.2052C4.43432 14.1917 4.42947 14.1821 4.42682 14.1769L4.42453 14.1723C4.24399 13.8006 3.79657 13.6448 3.42413 13.8245C3.05104 14.0044 2.89445 14.4527 3.07439 14.8258L3.74993 14.5C3.07439 14.8258 3.07456 14.8262 3.07474 14.8265L3.07515 14.8274L3.07612 14.8294L3.07872 14.8347L3.08654 14.8504C3.09293 14.8631 3.10167 14.8802 3.11282 14.9015C3.13511 14.944 3.16703 15.0031 3.20895 15.0764C3.29274 15.223 3.4168 15.4268 3.58407 15.6687C3.91805 16.1518 4.42789 16.792 5.13814 17.4321C5.37341 17.6442 5.63061 17.8561 5.91044 18.0621L4.07258 21.9279C3.89473 22.302 4.05382 22.7495 4.42791 22.9273C4.802 23.1051 5.24943 22.9461 5.42728 22.572L7.19107 18.8619C8.45979 19.5245 10.0509 20 11.9999 20C13.949 20 15.5401 19.5245 16.8088 18.8619L18.5726 22.572C18.7504 22.9461 19.1979 23.1051 19.5719 22.9273C19.946 22.7495 20.1051 22.302 19.9273 21.9279L18.0894 18.0621C18.3692 17.8561 18.6264 17.6442 18.8617 17.4321C19.572 16.792 20.0818 16.1518 20.4158 15.6687C20.5831 15.4268 20.7071 15.223 20.7909 15.0764C20.8328 15.0031 20.8647 14.944 20.887 14.9015C20.8982 14.8802 20.9069 14.8631 20.9133 14.8504L20.9211 14.8347L20.9237 14.8294L20.9247 14.8274L20.9251 14.8265C20.9253 14.8262 20.9255 14.8258 20.2499 14.5L20.9255 14.8258C21.1054 14.4527 20.9488 14.0044 20.5757 13.8245C20.2028 13.6446 19.7548 13.8009 19.5747 14.1736L19.573 14.1769C19.5704 14.1821 19.5655 14.1917 19.5585 14.2052C19.5443 14.2322 19.5212 14.2752 19.4888 14.3318C19.424 14.445 19.3226 14.6123 19.182 14.8157C18.9002 15.2232 18.4648 15.7705 17.8575 16.3179C17.7239 16.4383 17.5819 16.5588 17.4313 16.6778L15.4855 12.5848C16.4196 11.6764 16.9999 10.406 16.9999 9C16.9999 6.49348 15.1556 4.41774 12.7499 4.05588V1.75ZM16.1643 17.5063L14.2449 13.4689C13.5698 13.8087 12.8072 14 11.9999 14C11.1926 14 10.43 13.8087 9.75497 13.4689L7.83556 17.5063C8.92098 18.0823 10.2944 18.5 11.9999 18.5C13.7055 18.5 15.0789 18.0823 16.1643 17.5063ZM9.89301 11.7949C9.8957 11.7969 9.89837 11.799 9.90102 11.8011C10.4858 12.24 11.2125 12.5 11.9999 12.5C12.7874 12.5 13.5141 12.24 14.0988 11.8011C14.1059 11.7955 14.113 11.7901 14.1203 11.7848C14.9588 11.1454 15.4999 10.1359 15.4999 9C15.4999 7.067 13.9329 5.5 11.9999 5.5C10.0669 5.5 8.49993 7.067 8.49993 9C8.49993 10.1359 9.04103 11.1454 9.87953 11.7848C9.88407 11.7881 9.88856 11.7915 9.89301 11.7949Z"
    fill="currentColor"
  />
</svg>
