<svg width="24" height="24" viewBox="0 0 24 24" fill="none" xmlns="http://www.w3.org/2000/svg" data-fui-icon="true">
  <path
    fill-rule="evenodd"
    clip-rule="evenodd"
    d="M12.0004 1C12.4144 1.00025 12.7504 1.33594 12.7504 1.75V4.05566C15.1558 4.4177 17.0004 6.49363 17.0004 9C17.0004 10.4057 16.4186 11.6746 15.4848 12.583L17.4311 16.6768C17.5814 16.5579 17.7244 16.4386 17.8578 16.3184C18.465 15.7711 18.9003 15.2229 19.182 14.8154C19.3226 14.6122 19.4249 14.4452 19.4897 14.332C19.522 14.2755 19.5448 14.2321 19.559 14.2051C19.566 14.1917 19.571 14.182 19.5736 14.1768C19.5749 14.1743 19.5754 14.1723 19.5756 14.1719C19.7563 13.8005 20.2043 13.6447 20.5766 13.8242C20.9492 14.0043 21.1059 14.4533 20.9262 14.8262L20.2504 14.5C20.8664 14.7971 20.9206 14.8236 20.9252 14.8262V14.8271L20.9135 14.8506C20.9071 14.8632 20.8981 14.8803 20.8871 14.9014C20.8649 14.9438 20.8332 15.0031 20.7914 15.0762C20.7076 15.2226 20.5836 15.4271 20.4164 15.6689C20.0825 16.1519 19.5718 16.7916 18.8617 17.4316C18.6267 17.6434 18.3677 17.8528 18.0883 18.0586L19.9281 21.9277C20.1058 22.3017 19.9464 22.7498 19.5727 22.9277C19.1987 23.1055 18.7506 22.9462 18.5727 22.5723L16.807 18.8594C15.5386 19.522 13.9491 19.9999 12.0004 20C10.0511 20 8.46049 19.5222 7.19181 18.8594L5.42813 22.5723C5.25032 22.9462 4.80212 23.1053 4.42813 22.9277C4.05407 22.7499 3.89482 22.3018 4.07267 21.9277L5.91056 18.0596C5.63132 17.8539 5.37394 17.6433 5.13907 17.4316C4.42896 16.7917 3.91837 16.152 3.58438 15.6689C3.41719 15.4271 3.29317 15.2227 3.20938 15.0762C3.1676 15.0031 3.13594 14.9438 3.11368 14.9014C3.10267 14.8804 3.09368 14.8632 3.08731 14.8506L3.0756 14.8271V14.8262C3.08228 14.8225 3.14679 14.7911 3.7504 14.5L3.07462 14.8262C2.89472 14.4531 3.05129 14.0042 3.42423 13.8242C3.79652 13.6449 4.24464 13.8005 4.4252 14.1719L4.42716 14.1768C4.42982 14.182 4.43483 14.1918 4.44181 14.2051C4.45599 14.2321 4.47886 14.2756 4.51114 14.332C4.57592 14.4453 4.67825 14.6122 4.81876 14.8154C5.10054 15.223 5.53574 15.7711 6.14298 16.3184C6.27613 16.4383 6.41778 16.5581 6.56778 16.6768L8.51505 12.583C7.58123 11.6746 7.0004 10.4057 7.0004 9C7.0004 6.49332 8.84453 4.41732 11.2504 4.05566V1.75C11.2504 1.33579 11.5862 1 12.0004 1ZM14.2445 13.4668C13.5695 13.8067 12.8077 13.9999 12.0004 14C11.1929 14 10.4305 13.8068 9.75528 13.4668L7.83536 17.5049C8.92094 18.081 10.2945 18.5 12.0004 18.5C13.7057 18.4999 15.0781 18.0808 16.1635 17.5049L14.2445 13.4668ZM12.0004 5.5C10.0674 5.5 8.5004 7.067 8.5004 9C8.5004 10.933 10.0674 12.5 12.0004 12.5C13.9332 12.4998 15.5004 10.9328 15.5004 9C15.5004 7.06716 13.9332 5.50025 12.0004 5.5Z"
    fill="currentColor"
  />
</svg>
