<svg
  width="32"
  height="32"
  viewBox="0 0 32 32"
  fill="none"
  xmlns="http://www.w3.org/2000/svg"
  data-fui-icon="true"
>
  <path
    fill-rule="evenodd"
    clip-rule="evenodd"
    d="M16.75 1.75C16.75 1.33579 16.4142 1 16 1C15.5857 1 15.25 1.33579 15.25 1.75V5.04642C12.2902 5.41549 9.99995 7.94029 9.99995 11C9.99995 12.8056 10.7975 14.4248 12.0595 15.5248L8.83732 23.2754C8.42327 22.9698 8.05273 22.6518 7.72259 22.3344C6.89854 21.5421 6.32298 20.7498 5.95496 20.1584C5.77123 19.8632 5.64014 19.6195 5.55641 19.453C5.51458 19.3699 5.48465 19.3061 5.46596 19.2651C5.45662 19.2445 5.45009 19.2297 5.4463 19.221L5.44305 19.2134L4.74995 19.5C5.44305 19.2134 5.44291 19.2131 5.44278 19.2128L5.44265 19.2125L5.44257 19.2123L5.44241 19.2119C5.28361 18.8302 4.84566 18.6488 4.46339 18.8069C4.0806 18.9652 3.89859 19.4038 4.05686 19.7866L4.74995 19.5C4.05686 19.7866 4.05702 19.787 4.05719 19.7874L4.05759 19.7883L4.05858 19.7907L4.06136 19.7973L4.07014 19.8178C4.07742 19.8346 4.0876 19.8576 4.10076 19.8865C4.12709 19.9444 4.16538 20.0257 4.21637 20.127C4.31831 20.3297 4.47135 20.6134 4.68144 20.951C5.10106 21.6252 5.7519 22.5204 6.68296 23.4156C7.13672 23.8519 7.65628 24.2873 8.24649 24.6965L6.05741 29.9622C5.89841 30.3446 6.07957 30.7836 6.46204 30.9426C6.84452 31.1016 7.28348 30.9205 7.44249 30.538L9.54362 25.4839C11.2286 26.3713 13.357 27 16 27C18.6429 27 20.7713 26.3713 22.4563 25.4839L24.5574 30.538C24.7164 30.9205 25.1554 31.1016 25.5379 30.9426C25.9203 30.7836 26.1015 30.3446 25.9425 29.9622L23.7534 24.6965C24.3436 24.2873 24.8632 23.8519 25.3169 23.4156C26.248 22.5204 26.8988 21.6252 27.3185 20.951C27.5286 20.6134 27.6816 20.3297 27.7835 20.127C27.8345 20.0257 27.8728 19.9444 27.8991 19.8865C27.9081 19.867 27.9156 19.8501 27.9218 19.836C27.9248 19.8293 27.9274 19.8232 27.9298 19.8178L27.9385 19.7973L27.9413 19.7907L27.9423 19.7883L27.9427 19.7874C27.9429 19.787 27.943 19.7866 27.25 19.5L27.943 19.7866C28.1013 19.4038 27.9193 18.9652 27.5365 18.8069C27.1539 18.6487 26.7156 18.8304 26.5571 19.2128L27.25 19.5L26.5569 19.2134L26.5536 19.221C26.5498 19.2297 26.5433 19.2445 26.5339 19.2651C26.5153 19.3061 26.4853 19.3699 26.4435 19.453C26.3598 19.6195 26.2287 19.8632 26.0449 20.1584C25.6769 20.7498 25.1014 21.5421 24.2773 22.3344C23.9472 22.6518 23.5766 22.9698 23.1626 23.2754L19.9404 15.5248C21.2024 14.4248 22 12.8056 22 11C22 7.94029 19.7097 5.41549 16.75 5.04642V1.75ZM21.8778 24.0925L18.6694 16.3749C17.8654 16.775 16.959 17 16 17C15.041 17 14.1345 16.775 13.3305 16.3749L10.1221 24.0925C11.6288 24.9098 13.5596 25.5 16 25.5C18.4403 25.5 20.3711 24.9098 21.8778 24.0925ZM13.3981 14.672L13.4097 14.6802C14.1422 15.1967 15.0356 15.5 16 15.5C16.9643 15.5 17.8578 15.1966 18.5903 14.6802L18.6017 14.6721C19.7504 13.8567 20.5 12.5159 20.5 11C20.5 8.51472 18.4852 6.5 16 6.5C13.5147 6.5 11.5 8.51472 11.5 11C11.5 12.5158 12.2495 13.8566 13.3981 14.672Z"
    fill="currentColor"
  />
</svg>
