<svg width="20" height="20" viewBox="0 0 20 20" fill="none" xmlns="http://www.w3.org/2000/svg" data-fui-icon="true">
  <path
    d="M9.99974 0C10.4139 3.09217e-05 10.7497 0.335797 10.7497 0.749981V3.07023C12.6003 3.42131 13.9996 5.0471 13.9996 6.99982C13.9996 8.17069 13.4958 9.22332 12.694 9.95482L14.4918 13.7662C14.6316 13.6582 14.7635 13.5496 14.8863 13.4401C15.3957 12.9858 15.7624 12.5317 15.9996 12.194C16.1179 12.0256 16.2033 11.8866 16.2574 11.7936C16.2843 11.7475 16.3035 11.7127 16.315 11.6911C16.3208 11.6804 16.3247 11.6725 16.3267 11.6686V11.6677C16.5098 11.2966 16.9593 11.1442 17.3306 11.3269C17.7021 11.5098 17.8552 11.9592 17.6724 12.3307L16.9996 11.9997C17.6416 12.316 17.6712 12.3307 17.6724 12.3317L17.6704 12.3346C17.6698 12.336 17.6694 12.3378 17.6685 12.3395C17.6666 12.3432 17.6635 12.3476 17.6607 12.3532C17.6549 12.3644 17.6471 12.3797 17.6372 12.3981C17.6175 12.4351 17.5899 12.4866 17.5533 12.5495C17.48 12.6752 17.3719 12.8491 17.2271 13.0553C16.9377 13.4675 16.497 14.0137 15.8853 14.5592C15.6618 14.7585 15.414 14.9565 15.1441 15.149L16.9283 18.9292C17.105 19.3038 16.9444 19.7514 16.5699 19.9282C16.1953 20.1048 15.7476 19.9443 15.5709 19.5698L13.8453 15.9127C12.8033 16.4062 11.5289 16.7496 9.99974 16.7496C8.47021 16.7496 7.19535 16.4064 6.15316 15.9127L4.4286 19.5698C4.25183 19.9443 3.80416 20.1049 3.4296 19.9282C3.0551 19.7514 2.89455 19.3038 3.07121 18.9292L4.85437 15.149C4.5848 14.9567 4.33748 14.7584 4.11415 14.5592C3.50252 14.0137 3.06181 13.4675 2.77239 13.0553C2.62761 12.8491 2.51946 12.6752 2.44623 12.5495C2.40961 12.4866 2.38199 12.435 2.36224 12.3981C2.35238 12.3797 2.34457 12.3644 2.33881 12.3532C2.33593 12.3476 2.33286 12.3432 2.33099 12.3395C2.33011 12.3378 2.3297 12.336 2.32904 12.3346L2.32806 12.3327C2.32799 12.3323 2.33602 12.3267 2.99992 11.9997L2.32709 12.3307C2.14434 11.9593 2.29749 11.5099 2.66888 11.3269C3.04008 11.1442 3.48852 11.2969 3.67178 11.6677L3.67276 11.6686C3.67474 11.6725 3.67872 11.6803 3.68447 11.6911C3.696 11.7127 3.71522 11.7475 3.74209 11.7936C3.79621 11.8866 3.88162 12.0256 3.9999 12.194C4.23703 12.5317 4.60379 12.9858 5.11315 13.4401C5.23577 13.5494 5.36717 13.6584 5.50669 13.7662L7.3045 9.95482C6.50299 9.22334 5.99984 8.17044 5.99984 6.99982C5.99984 5.0471 7.39919 3.4213 9.24976 3.07023V0.749981C9.24976 0.335809 9.58558 4.99884e-05 9.99974 0ZM11.4069 10.7429C10.969 10.9076 10.4952 10.9997 9.99974 10.9997C9.50395 10.9997 9.02971 10.9078 8.59157 10.7429L6.79279 14.5563C7.65481 14.9647 8.7148 15.2496 9.99974 15.2496C11.2843 15.2496 12.3438 14.9645 13.2057 14.5563L11.4069 10.7429ZM9.99974 4.49988C8.61911 4.49993 7.49981 5.61917 7.49981 6.99982C7.49981 8.38046 8.61911 9.4997 9.99974 9.49975C11.3804 9.49972 12.4997 8.38048 12.4997 6.99982C12.4997 5.61916 11.3804 4.49991 9.99974 4.49988Z"
    fill="currentColor"
  />
</svg>
