<svg width="32" height="32" viewBox="0 0 32 32" fill="none" xmlns="http://www.w3.org/2000/svg" data-fui-icon="true">
  <path
    fill-rule="evenodd"
    clip-rule="evenodd"
    d="M16.0001 1C16.4144 1 16.7501 1.33579 16.7501 1.75V5.04785C19.7099 5.41692 22.0001 7.94028 22.0001 11C22.0001 12.8053 21.2013 14.4225 19.9396 15.5225L23.1613 23.2734C23.5754 22.9678 23.9473 22.6515 24.2775 22.334C25.1014 21.5418 25.6771 20.7495 26.0451 20.1582C26.2287 19.8632 26.3598 19.6196 26.4435 19.4531C26.4853 19.37 26.5156 19.3057 26.5343 19.2646C26.5435 19.2444 26.5501 19.2294 26.5539 19.2207C26.5549 19.2182 26.5561 19.2163 26.5568 19.2148V19.2139C26.715 18.8313 27.1536 18.6488 27.5363 18.8066C27.9189 18.9648 28.1014 19.4035 27.9435 19.7861L27.2501 19.5C27.878 19.7596 27.9371 19.7844 27.9425 19.7871V19.7881L27.9416 19.791C27.9408 19.7927 27.9396 19.7946 27.9386 19.7969C27.9364 19.802 27.9334 19.8091 27.9298 19.8174C27.9226 19.8342 27.9127 19.8578 27.8996 19.8867C27.8732 19.9445 27.8343 20.0256 27.7833 20.127C27.6814 20.3296 27.5285 20.6137 27.3185 20.9512C26.8989 21.6254 26.2484 22.521 25.3175 23.416C24.8638 23.8523 24.3433 24.2861 23.7531 24.6953L25.9425 29.9619C26.1015 30.3443 25.9205 30.7833 25.5382 30.9424C25.1558 31.1012 24.7168 30.9204 24.5578 30.5381L22.4542 25.4805C20.7692 26.3676 18.6428 27 16.0001 27C13.3566 27 11.2293 26.3681 9.54409 25.4805L7.44253 30.5381C7.28345 30.9204 6.84447 31.1014 6.46206 30.9424C6.07988 30.7832 5.89886 30.3442 6.05776 29.9619L8.24624 24.6953C7.65637 24.2863 7.13628 23.8521 6.68276 23.416C5.75187 22.521 5.10139 21.6254 4.68178 20.9512C4.47175 20.6137 4.31887 20.3296 4.21694 20.127C4.16598 20.0256 4.12705 19.9445 4.10073 19.8867C4.08758 19.8578 4.07774 19.8342 4.07046 19.8174C4.06688 19.8091 4.06385 19.802 4.06167 19.7969C4.06068 19.7946 4.05943 19.7927 4.05874 19.791L4.05776 19.7881V19.7871C4.06211 19.7849 4.11559 19.7624 4.75014 19.5L4.05678 19.7861C3.89893 19.4035 4.08152 18.9649 4.46401 18.8066C4.84666 18.6487 5.28528 18.8313 5.4435 19.2139L5.44253 19.2148C5.44316 19.2163 5.44524 19.218 5.44643 19.2207C5.4502 19.2294 5.45674 19.2444 5.46596 19.2646C5.48465 19.3057 5.51497 19.37 5.55678 19.4531C5.6405 19.6195 5.77162 19.8632 5.95522 20.1582C6.3232 20.7495 6.8989 21.5418 7.7228 22.334C8.05267 22.6511 8.42441 22.9671 8.83804 23.2725L12.0597 15.5225C10.7984 14.4225 10.0001 12.805 10.0001 11C10.0001 7.94041 12.2906 5.41709 15.2501 5.04785V1.75C15.2501 1.33585 15.586 1.00011 16.0001 1ZM18.6681 16.373C17.8643 16.7729 16.9589 17 16.0001 17C15.041 17 14.1353 16.7733 13.3312 16.373L10.1222 24.0898C11.6291 24.9076 13.5592 25.5 16.0001 25.5C18.4402 25.5 20.3694 24.9071 21.8761 24.0898L18.6681 16.373ZM16.0001 6.5C13.515 6.50011 11.5001 8.51478 11.5001 11C11.5001 13.4852 13.515 15.4999 16.0001 15.5C18.4854 15.5 20.5001 13.4853 20.5001 11C20.5001 8.51472 18.4854 6.5 16.0001 6.5Z"
    fill="currentColor"
  />
</svg>
