<svg width="20" height="20" viewBox="0 0 20 20" fill="none" xmlns="http://www.w3.org/2000/svg" data-fui-icon="true">
  <path
    fill-rule="evenodd"
    clip-rule="evenodd"
    d="M9.99974 0C10.4139 3.09218e-05 10.7497 0.335797 10.7497 0.749982V3.07024C12.6003 3.42131 13.9996 5.04711 13.9996 6.99983C13.9996 8.1707 13.4958 9.22334 12.694 9.95484L14.4918 13.7663C14.6316 13.6583 14.7635 13.5496 14.8863 13.4401C15.3957 12.9858 15.7624 12.5317 15.9996 12.194C16.1179 12.0256 16.2033 11.8866 16.2574 11.7937C16.2843 11.7475 16.3035 11.7127 16.315 11.6911C16.3208 11.6804 16.3247 11.6725 16.3267 11.6687V11.6677C16.5098 11.2966 16.9593 11.1442 17.3306 11.3269C17.7021 11.5099 17.8552 11.9593 17.6724 12.3308L16.9996 11.9997C17.6416 12.316 17.6712 12.3307 17.6724 12.3317L17.6704 12.3347C17.6698 12.336 17.6694 12.3378 17.6685 12.3395C17.6666 12.3433 17.6636 12.3476 17.6607 12.3532C17.6549 12.3645 17.6471 12.3797 17.6372 12.3981C17.6175 12.4351 17.5899 12.4866 17.5533 12.5495C17.48 12.6752 17.3719 12.8491 17.2271 13.0553C16.9377 13.4675 16.497 14.0137 15.8853 14.5592C15.6618 14.7585 15.414 14.9565 15.1441 15.149L16.9283 18.9292C17.105 19.3038 16.9444 19.7515 16.5699 19.9282C16.1953 20.1048 15.7476 19.9443 15.5709 19.5698L13.8453 15.9127C12.8033 16.4062 11.5289 16.7496 9.99974 16.7496C8.47021 16.7496 7.19534 16.4064 6.15315 15.9127L4.42858 19.5698C4.25182 19.9443 3.80415 20.1049 3.42958 19.9282C3.05509 19.7515 2.89454 19.3038 3.07119 18.9292L4.85435 15.149C4.58478 14.9567 4.33747 14.7584 4.11414 14.5592C3.5025 14.0137 3.06179 13.4675 2.77237 13.0553C2.62759 12.8491 2.51944 12.6752 2.44621 12.5495C2.4096 12.4866 2.38197 12.4351 2.36223 12.3981C2.35236 12.3797 2.34456 12.3645 2.33879 12.3532C2.33592 12.3476 2.33284 12.3433 2.33098 12.3395C2.3301 12.3378 2.32969 12.336 2.32902 12.3347L2.32805 12.3327C2.32797 12.3323 2.336 12.3268 2.99991 11.9997L2.32707 12.3308C2.14432 11.9593 2.29747 11.5099 2.66886 11.3269C3.04007 11.1442 3.4885 11.2969 3.67177 11.6677L3.67274 11.6687C3.67473 11.6725 3.67871 11.6804 3.68446 11.6911C3.69598 11.7127 3.71521 11.7475 3.74208 11.7937C3.7962 11.8866 3.88161 12.0256 3.99988 12.194C4.23702 12.5317 4.60377 12.9858 5.11314 13.4401C5.23576 13.5495 5.36716 13.6584 5.50668 13.7663L7.30449 9.95484C6.50298 9.22336 5.99983 8.17045 5.99983 6.99983C5.99983 5.0471 7.39918 3.42131 9.24975 3.07024V0.749982C9.24975 0.335809 9.58557 4.99885e-05 9.99974 0ZM11.4069 10.7429C10.969 10.9076 10.4952 10.9997 9.99974 10.9997C9.50394 10.9997 9.02971 10.9078 8.59157 10.7429L6.79278 14.5563C7.6548 14.9647 8.7148 15.2496 9.99974 15.2496C11.2843 15.2496 12.3438 14.9645 13.2057 14.5563L11.4069 10.7429ZM9.99974 4.49989C8.6191 4.49994 7.4998 5.61918 7.4998 6.99983C7.4998 8.38048 8.6191 9.49972 9.99974 9.49977C11.3804 9.49974 12.4997 8.38049 12.4997 6.99983C12.4997 5.61917 11.3804 4.49992 9.99974 4.49989Z"
    fill="currentColor"
  />
</svg>
