<svg width="12" height="12" viewBox="0 0 12 12" fill="none" xmlns="http://www.w3.org/2000/svg" data-fui-icon="true">
  <path
    d="M11 5.75C11.5523 5.75 12 6.19772 12 6.75V8C11.9999 10.2091 10.2091 12 8 12H4C1.79089 12 5.49033e-05 10.2091 0 8V6.75C3.54635e-08 6.19772 0.447715 5.75 1 5.75C1.55228 5.75 2 6.19772 2 6.75V8C2.00006 9.10452 2.89546 10 4 10H8C9.10454 10 9.99995 9.10452 10 8V6.75C10 6.19772 10.4477 5.75 11 5.75ZM5.21094 0.280273C5.7019 -0.120214 6.42613 -0.0914481 6.88379 0.366211L9.31055 2.79297C9.70104 3.18349 9.70106 3.81652 9.31055 4.20703C8.92003 4.59744 8.28698 4.59748 7.89648 4.20703L7 3.31055V7C6.99995 7.55224 6.55225 8 6 8C5.44777 7.99998 5.00005 7.55223 5 7V3.31055L4.10352 4.20703C3.713 4.59748 3.07996 4.59749 2.68945 4.20703C2.29895 3.81653 2.299 3.1835 2.68945 2.79297L5.11621 0.366211L5.21094 0.280273Z"
    fill="currentColor"
  />
</svg>
