<svg width="32" height="32" viewBox="0 0 32 32" fill="none" xmlns="http://www.w3.org/2000/svg" data-fui-icon="true">
  <path
    d="M30.25 15.9998C30.6641 15.9998 30.9999 16.3357 31 16.7498V21.7498C31 26.8584 26.8586 30.9998 21.75 30.9998H10.25C5.14137 30.9998 1 26.8584 1 21.7498V16.7498C1.00013 16.3357 1.33587 15.9998 1.75 15.9998C2.16413 15.9998 2.49987 16.3357 2.5 16.7498V21.7498C2.5 26.03 5.96979 29.4998 10.25 29.4998H21.75C26.0302 29.4998 29.5 26.03 29.5 21.7498V16.7498C29.5001 16.3357 29.8359 15.9998 30.25 15.9998ZM15.1064 1.34354C15.6629 0.890026 16.4834 0.922646 17.002 1.44119L25.0312 9.46951C25.3239 9.76242 25.324 10.2382 25.0312 10.531C24.7384 10.8238 24.2626 10.8237 23.9697 10.531L16.75 3.31033V19.3338C16.7496 19.7476 16.4139 20.0836 16 20.0838C15.5861 20.0836 15.2504 19.7476 15.25 19.3338V3.31131L8.03027 10.531C7.73753 10.8235 7.26258 10.8234 6.96973 10.531C6.67683 10.2381 6.67683 9.76241 6.96973 9.46951L14.999 1.44119L15.1064 1.34354Z"
    fill="currentColor"
  />
</svg>
