<svg width="20" height="20" viewBox="0 0 20 20" fill="none" xmlns="http://www.w3.org/2000/svg" data-fui-icon="true">
  <path
    fill-rule="evenodd"
    clip-rule="evenodd"
    d="M18.25 11.9997C18.6642 11.9997 18.9999 12.3356 19 12.7497V14.7497C19 17.0969 17.0972 18.9997 14.75 18.9997H5.25C2.90279 18.9997 1 17.0969 1 14.7497V12.7497C1.00007 12.3356 1.33583 11.9997 1.75 11.9997C2.16417 11.9997 2.49993 12.3356 2.5 12.7497V14.7497C2.5 16.2685 3.73122 17.4997 5.25 17.4997H14.75C16.2688 17.4997 17.5 16.2685 17.5 14.7497V12.7497C17.5001 12.3356 17.8358 11.9997 18.25 11.9997ZM12.4697 1.21947C12.7626 0.926682 13.2374 0.926682 13.5303 1.21947L16.5303 4.21947C16.8231 4.51233 16.8231 4.98711 16.5303 5.28001L13.5303 8.28001C13.2374 8.57291 12.7626 8.57291 12.4697 8.28001C12.1769 7.98711 12.1769 7.51233 12.4697 7.21947L14.1895 5.49974H11.75C10.2313 5.49974 9.00009 6.73103 9 8.24974V13.2497C9 13.664 8.66421 13.9997 8.25 13.9997C7.83579 13.9997 7.5 13.664 7.5 13.2497V8.24974C7.50009 5.9026 9.40284 3.99974 11.75 3.99974H14.1895L12.4697 2.28001C12.1769 1.98711 12.1769 1.51233 12.4697 1.21947Z"
    fill="currentColor"
  />
</svg>
