<svg width="24" height="24" viewBox="0 0 24 24" fill="none" xmlns="http://www.w3.org/2000/svg" data-fui-icon="true">
  <path
    d="M12.0001 3C12.2041 3.00003 12.3998 3.08344 12.5411 3.23047L18.7911 9.73047C19.0778 10.0291 19.068 10.504 18.7697 10.791C18.4711 11.0777 17.9961 11.0679 17.7091 10.7695L12.7501 5.6123V20.25C12.7501 20.6642 12.4143 20.9999 12.0001 21C11.5859 21 11.2501 20.6642 11.2501 20.25V5.6123L6.29114 10.7695C6.00417 11.068 5.52919 11.0777 5.23059 10.791C4.93213 10.504 4.92236 10.0291 5.20911 9.73047L11.4591 3.23047C11.6005 3.08344 11.7961 3 12.0001 3Z"
    fill="currentColor"
  />
</svg>
