<svg width="32" height="32" viewBox="0 0 32 32" fill="none" xmlns="http://www.w3.org/2000/svg" data-fui-icon="true">
  <path
    fill-rule="evenodd"
    clip-rule="evenodd"
    d="M29.5 15.2502C30.3284 15.2502 31 15.9218 31 16.7502V21.5002C30.9999 26.7468 26.7466 31.0002 21.5 31.0002H10.5C5.25335 31.0002 1.00009 26.7468 1 21.5002V16.7502C1.00002 15.9218 1.67159 15.2502 2.5 15.2502C3.32841 15.2502 3.99998 15.9218 4 16.7502V21.5002C4.00009 25.09 6.9102 28.0002 10.5 28.0002H21.5C25.0898 28.0002 27.9999 25.09 28 21.5002V16.7502C28 15.9218 28.6716 15.2502 29.5 15.2502ZM14.4678 1.63495C15.261 0.841681 16.5162 0.792372 17.3672 1.48651L17.5322 1.63495L25.0605 9.16327C25.6462 9.74902 25.6462 10.6986 25.0605 11.2844C24.4748 11.87 23.5252 11.87 22.9395 11.2844L17.5 5.84491V19.5002C17.4999 20.3285 16.8284 21.0002 16 21.0002C15.1716 21.0002 14.5001 20.3285 14.5 19.5002V5.84491L9.06055 11.2844C8.47478 11.87 7.52522 11.87 6.93945 11.2844C6.35379 10.6986 6.35378 9.74903 6.93945 9.16327L14.4678 1.63495Z"
    fill="currentColor"
  />
</svg>
