<svg width="24" height="24" viewBox="0 0 24 24" fill="none" xmlns="http://www.w3.org/2000/svg" data-fui-icon="true">
  <path
    d="M22.25 15.0003C22.6642 15.0003 23 15.3361 23 15.7503V17.7503C22.9998 20.6497 20.6494 23.0003 17.75 23.0003H6C3.23868 23.0003 1.00017 20.7616 1 18.0003V15.7503C1 15.3361 1.33579 15.0003 1.75 15.0003C2.16421 15.0003 2.5 15.3361 2.5 15.7503V18.0003C2.50017 19.9332 4.06711 21.5003 6 21.5003H17.75C19.821 21.5003 21.4998 19.8212 21.5 17.7503V15.7503C21.5 15.3361 21.8358 15.0003 22.25 15.0003ZM14.4697 1.22003C14.7626 0.927143 15.2374 0.927141 15.5303 1.22003L19.0303 4.72003C19.323 5.01293 19.3231 5.48773 19.0303 5.78058L15.5303 9.28058C15.2374 9.57327 14.7626 9.57327 14.4697 9.28058C14.1769 8.98773 14.177 8.51293 14.4697 8.22003L16.6895 6.00031H13.75C11.9551 6.00031 10.5 7.45541 10.5 9.25031V16.2503C10.4998 16.6644 10.1641 17.0003 9.75 17.0003C9.33589 17.0003 9.00016 16.6644 9 16.2503V9.25031C9.00003 6.62698 11.1267 4.50031 13.75 4.50031H16.6895L14.4697 2.28058C14.1769 1.98773 14.177 1.51293 14.4697 1.22003Z"
    fill="currentColor"
  />
</svg>
