<svg width="20" height="20" viewBox="0 0 20 20" fill="none" xmlns="http://www.w3.org/2000/svg" data-fui-icon="true">
  <path
    d="M10 2C10.4142 2.00004 10.75 2.33581 10.75 2.75V15.3779L14.707 11.2324C14.9929 10.933 15.4679 10.9214 15.7676 11.207C16.067 11.4929 16.0786 11.9679 15.793 12.2676L10.543 17.7676C10.4015 17.9158 10.2049 18 10 18C9.79506 18 9.59855 17.9158 9.45703 17.7676L4.20703 12.2676C3.92139 11.9679 3.93292 11.4929 4.23242 11.207C4.53207 10.9214 5.0071 10.9329 5.29297 11.2324L9.25 15.3779V2.75C9.25 2.33579 9.58579 2 10 2Z"
    fill="currentColor"
  />
</svg>
