<svg width="32" height="32" viewBox="0 0 32 32" fill="none" xmlns="http://www.w3.org/2000/svg" data-fui-icon="true">
  <path
    d="M12.25 2C12.6642 2 13 2.33579 13 2.75C13 3.16421 12.6642 3.5 12.25 3.5H9.25C5.52208 3.5 2.5 6.52208 2.5 10.25V22.75C2.5 26.4779 5.52208 29.5 9.25 29.5H21.75C25.4779 29.5 28.5 26.4779 28.5 22.75V19.75C28.5 19.3358 28.8358 19 29.25 19C29.6642 19 30 19.3358 30 19.75V22.75C30 27.3063 26.3064 31 21.75 31H9.25C4.69365 31 1 27.3064 1 22.75V10.25C1 5.69365 4.69365 2 9.25 2H12.25ZM30.25 1C30.6642 1 31 1.33579 31 1.75V12.25C31 12.6642 30.6642 13 30.25 13C29.8358 13 29.5 12.6642 29.5 12.25V3.56055L16.5303 16.5303C16.2374 16.8232 15.7626 16.8232 15.4697 16.5303C15.1768 16.2374 15.1768 15.7626 15.4697 15.4697L28.4395 2.5H19.75C19.3358 2.5 19 2.16421 19 1.75C19 1.33579 19.3358 1 19.75 1H30.25Z"
    fill="currentColor"
  />
</svg>
