<svg width="20" height="20" viewBox="0 0 20 20" fill="none" xmlns="http://www.w3.org/2000/svg" data-fui-icon="true">
  <path
    fill-rule="evenodd"
    clip-rule="evenodd"
    d="M18.25 11.9996C18.6641 11.9996 18.9998 12.3356 19 12.7496V14.7496C19 17.0968 17.0972 18.9996 14.75 18.9996H5.25C2.90279 18.9996 1 17.0968 1 14.7496V12.7496C1.00022 12.3356 1.33592 11.9996 1.75 11.9996C2.16408 11.9996 2.49978 12.3356 2.5 12.7496V14.7496C2.5 16.2684 3.73122 17.4996 5.25 17.4996H14.75C16.2688 17.4996 17.5 16.2684 17.5 14.7496V12.7496C17.5002 12.3356 17.8359 11.9996 18.25 11.9996ZM12.4697 1.21933C12.7626 0.926728 13.2374 0.926728 13.5303 1.21933L16.5303 4.21933C16.8231 4.51215 16.8229 4.98696 16.5303 5.27987L13.5303 8.27987C13.2374 8.57277 12.7626 8.57277 12.4697 8.27987C12.1771 7.98696 12.1769 7.51215 12.4697 7.21933L14.1895 5.4996H11.75C10.2314 5.4996 9.00024 6.73102 9 8.2496V13.2496C9 13.6638 8.66421 13.9996 8.25 13.9996C7.83579 13.9996 7.5 13.6638 7.5 13.2496V8.2496C7.50024 5.90259 9.40294 3.9996 11.75 3.9996H14.1895L12.4697 2.27987C12.1771 1.98696 12.1769 1.51215 12.4697 1.21933Z"
    fill="currentColor"
  />
</svg>
