<svg width="24" height="24" viewBox="0 0 24 24" fill="none" xmlns="http://www.w3.org/2000/svg" data-fui-icon="true">
  <path
    d="M15.1971 5.59351C15.611 5.60188 15.9395 5.94426 15.9315 6.35815C15.9231 6.77204 15.5808 7.10159 15.1669 7.09351L8.01355 6.95288L18.3641 17.3035C18.6569 17.5964 18.6569 18.0712 18.3641 18.364C18.0713 18.6569 17.5965 18.6567 17.3036 18.364L6.953 8.01343L7.09265 15.1667C7.10077 15.5807 6.77218 15.924 6.35828 15.9324C5.94435 15.9404 5.60201 15.6109 5.59363 15.197L5.41687 6.1814C5.41292 5.97768 5.49168 5.78066 5.63562 5.63647C5.77986 5.49223 5.97757 5.41276 6.18152 5.41675L15.1971 5.59351Z"
    fill="currentColor"
  />
</svg>
