<svg width="20" height="20" viewBox="0 0 20 20" fill="none" xmlns="http://www.w3.org/2000/svg" data-fui-icon="true">
  <path
    d="M19.25 9.99985C19.6642 9.99985 19.9999 10.3357 20 10.7498V13.7498C20 17.2016 17.2018 19.9998 13.75 19.9998H6.25C2.79822 19.9998 2.96928e-07 17.2016 0 13.7498V10.7498C7.6269e-05 10.3357 0.335833 9.99985 0.75 9.99985C1.16417 9.99985 1.49992 10.3357 1.5 10.7498V13.7498C1.5 16.3732 3.62665 18.4998 6.25 18.4998H13.75C16.3734 18.4998 18.5 16.3732 18.5 13.7498V10.7498C18.5001 10.3357 18.8358 9.99985 19.25 9.99985ZM9.1748 0.341644C9.60193 -0.0854052 10.2781 -0.112105 10.7363 0.261566L10.8252 0.341644L15.5312 5.0477C15.8236 5.34058 15.8239 5.81549 15.5312 6.10825C15.2384 6.40114 14.7626 6.40114 14.4697 6.10825L10.75 2.38754V11.2498C10.75 11.664 10.4142 11.9998 10 11.9998C9.58584 11.9998 9.25 11.664 9.25 11.2498V2.38852L5.53027 6.10825C5.23743 6.40088 4.76257 6.40088 4.46973 6.10825C4.17691 5.81542 4.17703 5.34061 4.46973 5.0477L9.1748 0.341644Z"
    fill="currentColor"
  />
</svg>
