<svg width="20" height="20" viewBox="0 0 20 20" fill="none" xmlns="http://www.w3.org/2000/svg" data-fui-icon="true">
  <path
    fill-rule="evenodd"
    clip-rule="evenodd"
    d="M18.25 10C18.6642 10 19 10.3358 19 10.75V13.75C19 16.6495 16.6495 19 13.75 19H6.25C3.35051 19 1.00001 16.6495 1 13.75V10.75C1 10.3358 1.33579 10 1.75 10C2.16421 10 2.5 10.3358 2.5 10.75V13.75C2.50001 15.8211 4.17894 17.5 6.25 17.5H13.75C15.8211 17.5 17.5 15.8211 17.5 13.75V10.75C17.5 10.3358 17.8358 10 18.25 10ZM9.1748 1.34181C9.60193 0.914683 10.2781 0.888021 10.7363 1.26173L10.8252 1.34181L15.5312 6.04786C15.8236 6.34077 15.8239 6.81567 15.5312 7.10841C15.2384 7.40126 14.7626 7.40126 14.4697 7.10841L10.75 3.38771V12.25C10.75 12.6642 10.4142 13 10 13C9.58586 12.9999 9.25003 12.6642 9.25 12.25V3.38868L5.53027 7.10841C5.23744 7.401 4.76256 7.401 4.46973 7.10841C4.1769 6.81559 4.17705 6.34078 4.46973 6.04786L9.1748 1.34181Z"
    fill="currentColor"
  />
</svg>
