<svg width="32" height="32" viewBox="0 0 32 32" fill="none" xmlns="http://www.w3.org/2000/svg" data-fui-icon="true">
  <path
    fill-rule="evenodd"
    clip-rule="evenodd"
    d="M29.75 20.4996C30.4402 20.4996 30.9998 21.0594 31 21.7496V24.2496C31 27.9775 27.9779 30.9996 24.25 30.9996H7.75C4.02208 30.9996 1 27.9775 1 24.2496V21.7496C1.00022 21.0594 1.55978 20.4996 2.25 20.4996C2.94022 20.4996 3.49978 21.0594 3.5 21.7496V24.2496C3.5 26.5968 5.40279 28.4996 7.75 28.4996H24.25C26.5972 28.4996 28.5 26.5968 28.5 24.2496V21.7496C28.5002 21.0594 29.0598 20.4996 29.75 20.4996ZM19.3662 1.3658C19.8543 0.877905 20.6457 0.877905 21.1338 1.3658L26.1338 6.3658C26.6219 6.85389 26.6217 7.6452 26.1338 8.13338L21.1338 13.1334C20.6456 13.6215 19.8544 13.6215 19.3662 13.1334C18.8783 12.6452 18.8781 11.8539 19.3662 11.3658L22.2324 8.49959H17.75C15.6791 8.49959 14.0002 10.1787 14 12.2496V22.7496C14 23.4399 13.4404 23.9996 12.75 23.9996C12.0596 23.9996 11.5 23.4399 11.5 22.7496V12.2496C11.5002 8.79799 14.2984 5.99959 17.75 5.99959H22.2324L19.3662 3.13338C18.8783 2.6452 18.8781 1.85389 19.3662 1.3658Z"
    fill="currentColor"
  />
</svg>
