<svg width="12" height="12" viewBox="0 0 12 12" fill="none" xmlns="http://www.w3.org/2000/svg" data-fui-icon="true">
  <path
    fill-rule="evenodd"
    clip-rule="evenodd"
    d="M10.9998 6.00011C11.5521 6.00011 11.9998 6.44782 11.9998 7.00009V7.50008C11.9997 9.98521 9.98502 12 7.49987 12H4.49992C2.01476 12 0.000131625 9.98521 0 7.50008V7.00009C2.33559e-07 6.44782 0.447707 6.00011 0.999982 6.00011C1.55226 6.00011 1.99996 6.44782 1.99996 7.00009V7.50008C2.0001 8.88066 3.11931 10 4.49992 10H7.49987C8.88047 10 9.99969 8.88066 9.99982 7.50008V7.00009C9.99982 6.44782 10.4475 6.00011 10.9998 6.00011ZM5.21084 0.280483C5.7018 -0.120008 6.426 -0.0912231 6.88367 0.366419L9.51936 3.00211C9.9097 3.39264 9.90981 4.02569 9.51936 4.41615C9.1289 4.80647 8.49581 4.80643 8.10532 4.41615L6.99988 3.3107V7.20907C6.99974 7.76119 6.55203 8.20899 5.99989 8.20905C5.44772 8.20903 5.00004 7.76122 4.99991 7.20907V3.3107L3.89446 4.41615C3.50402 4.8065 2.87093 4.80638 2.48042 4.41615C2.08994 4.02564 2.08996 3.39263 2.48042 3.00211L5.11612 0.366419L5.21084 0.280483Z"
    fill="currentColor"
  />
</svg>
