<svg width="32" height="32" viewBox="0 0 32 32" fill="none" xmlns="http://www.w3.org/2000/svg" data-fui-icon="true">
  <path
    fill-rule="evenodd"
    clip-rule="evenodd"
    d="M30.25 20.9999C30.6642 20.9999 31 21.3357 31 21.7499V24.7499C31 28.2017 28.2018 30.9999 24.75 30.9999H7.25C3.79824 30.9999 1.00002 28.2017 1 24.7499V21.7499C1 21.3357 1.33579 20.9999 1.75 20.9999C2.16421 20.9999 2.5 21.3357 2.5 21.7499V24.7499C2.50002 27.3733 4.62666 29.4999 7.25 29.4999H24.75C27.3733 29.4999 29.5 27.3733 29.5 24.7499V21.7499C29.5 21.3357 29.8358 20.9999 30.25 20.9999ZM20.2197 1.21967C20.5126 0.926777 20.9874 0.926777 21.2803 1.21967L26.0303 5.96967C26.3232 6.26256 26.3232 6.73733 26.0303 7.03022L21.2803 11.7802C20.9874 12.0731 20.5126 12.0731 20.2197 11.7802C19.9268 11.4873 19.9268 11.0126 20.2197 10.7197L23.6895 7.24994H17.75C15.4028 7.24994 13.5 9.15273 13.5 11.4999V22.2499C13.5 22.6641 13.1642 22.9999 12.75 22.9999C12.3358 22.9999 12 22.6641 12 22.2499V11.4999C12 8.32431 14.5744 5.74994 17.75 5.74994H23.6895L20.2197 2.28022C19.9268 1.98733 19.9268 1.51256 20.2197 1.21967Z"
    fill="currentColor"
  />
</svg>
