<svg width="12" height="12" viewBox="0 0 12 12" fill="none" xmlns="http://www.w3.org/2000/svg" data-fui-icon="true">
  <path
    fill-rule="evenodd"
    clip-rule="evenodd"
    d="M11.25 1.5C11.6642 1.5 12 1.83579 12 2.25V6.3125C12 7.24448 11.2445 8 10.3125 8H2.52928L3.7246 9.22656C4.01364 9.52315 4.00746 9.99799 3.71092 10.2871C3.41434 10.5761 2.9395 10.57 2.65038 10.2734L0.212878 7.77344C-0.0709593 7.48219 -0.0709593 7.01781 0.212878 6.72656L2.65038 4.22656C2.9395 3.93003 3.41434 3.92385 3.71092 4.21289C4.00746 4.50201 4.01364 4.97685 3.7246 5.27344L2.52928 6.5H10.3125C10.416 6.5 10.5 6.41605 10.5 6.3125V2.25C10.5 1.83579 10.8358 1.5 11.25 1.5Z"
    fill="currentColor"
  />
</svg>
