<svg width="16" height="16" viewBox="0 0 16 16" fill="none" xmlns="http://www.w3.org/2000/svg" data-fui-icon="true">
  <path
    d="M7.99988 1C8.20544 1 8.40223 1.08438 8.54382 1.2334L13.2938 6.2334C13.579 6.53371 13.5668 7.00868 13.2665 7.29395C12.9662 7.57912 12.4912 7.56687 12.2059 7.2666L8.74988 3.62891V14.25C8.74988 14.6642 8.41409 15 7.99988 15C7.5857 15 7.24988 14.6642 7.24988 14.25V3.62891L3.79382 7.2666C3.50855 7.56684 3.03357 7.57915 2.73328 7.29395C2.43305 7.00869 2.42077 6.5337 2.70593 6.2334L7.45593 1.2334C7.59751 1.08437 7.79432 1.00002 7.99988 1Z"
    fill="currentColor"
  />
</svg>
