<svg width="24" height="24" viewBox="0 0 24 24" fill="none" xmlns="http://www.w3.org/2000/svg" data-fui-icon="true">
  <path
    d="M2.25 3.5C1.55973 3.5001 1 4.0597 1 4.75V13.375C1 15.1008 2.39919 16.4999 4.125 16.5H18.6055L16.3916 18.5908C15.8899 19.0648 15.8671 19.8565 16.3408 20.3584C16.8148 20.8602 17.6065 20.883 18.1084 20.4092L22.6084 16.1592C22.8584 15.923 23 15.5939 23 15.25C23 14.9061 22.8584 14.577 22.6084 14.3408L18.1084 10.0908C17.6065 9.61704 16.8148 9.63978 16.3408 10.1416C15.8671 10.6435 15.8899 11.4352 16.3916 11.9092L18.6055 14H4.125C3.7799 13.9999 3.5 13.7201 3.5 13.375V4.75C3.5 4.05964 2.94036 3.5 2.25 3.5Z"
    fill="currentColor"
  />
</svg>
