<svg width="12" height="12" viewBox="0 0 12 12" fill="none" xmlns="http://www.w3.org/2000/svg" data-fui-icon="true">
  <path
    fill-rule="evenodd"
    clip-rule="evenodd"
    d="M11.25 6.74994C11.6642 6.74994 12 7.08573 12 7.49994V8.74994C12 10.5449 10.5449 11.9999 8.75 11.9999H3.25C1.45507 11.9999 0 10.5449 0 8.74994V7.49994C0 7.08573 0.335786 6.74994 0.75 6.74994C1.16421 6.74994 1.5 7.08573 1.5 7.49994V8.74994C1.5 9.71644 2.2835 10.4999 3.25 10.4999H8.75C9.7165 10.4999 10.5 9.71644 10.5 8.74994V7.49994C10.5 7.08573 10.8358 6.74994 11.25 6.74994ZM7.21973 0.21967C7.51262 -0.0732233 7.98738 -0.0732233 8.28027 0.21967L10.2803 2.21967C10.5732 2.51256 10.5732 2.98732 10.2803 3.28022L8.28027 5.28022C7.98738 5.57311 7.51262 5.57311 7.21973 5.28022C6.92683 4.98732 6.92683 4.51256 7.21973 4.21967L7.93945 3.49994H6.75C6.05964 3.49994 5.5 4.05959 5.5 4.74994V7.24994C5.5 7.66416 5.16421 7.99994 4.75 7.99994C4.33579 7.99994 4 7.66416 4 7.24994V4.74994C4 3.23116 5.23122 1.99994 6.75 1.99994H7.93945L7.21973 1.28022C6.92683 0.987324 6.92683 0.512563 7.21973 0.21967Z"
    fill="currentColor"
  />
</svg>
