<svg width="32" height="32" viewBox="0 0 32 32" fill="none" xmlns="http://www.w3.org/2000/svg" data-fui-icon="true">
  <path
    d="M14.4209 2.35056C15.2519 1.38555 16.7469 1.38587 17.5781 2.35056L25.9521 12.0761C26.7429 12.9944 26.0909 14.417 24.8789 14.417H21.083V27C21.083 28.1504 20.1504 29.0837 19 29.084H13C11.8496 29.0838 10.916 28.1505 10.916 27V14.417H7.12012C5.90854 14.4167 5.25645 12.9944 6.04688 12.0761L14.4209 2.35056ZM16.4414 3.33005C16.2377 3.09373 15.8924 3.06406 15.6533 3.24118L15.5576 3.33005L7.30176 12.917H11.666C12.0802 12.917 12.416 13.2528 12.416 13.667V27C12.416 27.322 12.678 27.5838 13 27.584H19C19.322 27.5837 19.583 27.322 19.583 27V13.667C19.583 13.2529 19.919 12.9171 20.333 12.917H24.6973L16.4414 3.33005Z"
    fill="currentColor"
  />
</svg>
