<svg width="24" height="24" viewBox="0 0 24 24" fill="none" xmlns="http://www.w3.org/2000/svg" data-fui-icon="true">
  <path
    fill-rule="evenodd"
    clip-rule="evenodd"
    d="M21.5 14.2498C22.3284 14.2498 23 14.9214 23 15.7498V16.9998C23 20.3134 20.3137 22.9998 17 22.9998H6.75C3.57438 22.9998 1.00003 20.4254 1 17.2498V15.7498C1.00005 14.9214 1.6716 14.2498 2.5 14.2498C3.3284 14.2498 3.99995 14.9214 4 15.7498V17.2498C4.00003 18.7685 5.23124 19.9998 6.75 19.9998H17C18.6568 19.9998 20 18.6566 20 16.9998V15.7498C20 14.9214 20.6716 14.2498 21.5 14.2498ZM13.9395 1.43922C14.5252 0.853513 15.4748 0.853513 16.0605 1.43922L20.0605 5.43922C20.6463 6.02498 20.6463 6.97452 20.0605 7.56031L16.0605 11.5603C15.4748 12.1461 14.5252 12.1461 13.9395 11.5603C13.3537 10.9745 13.3537 10.025 13.9395 9.43922L15.3789 7.99976H13.5C12.1193 7.99976 11.0001 9.11911 11 10.4998V15.4998C11 16.3282 10.3284 16.9998 9.5 16.9998C8.67157 16.9998 8 16.3282 8 15.4998V10.4998C8.00007 7.46225 10.4625 4.99976 13.5 4.99976H15.3789L13.9395 3.56031C13.3537 2.97452 13.3537 2.02498 13.9395 1.43922Z"
    fill="currentColor"
  />
</svg>
