<svg width="16" height="16" viewBox="0 0 16 16" fill="none" xmlns="http://www.w3.org/2000/svg" data-fui-icon="true">
  <path
    fill-rule="evenodd"
    clip-rule="evenodd"
    d="M14 8.75023C14.5523 8.75023 15 9.19794 15 9.75023V11.0002C14.9998 13.2092 13.209 15.0002 11 15.0002H5C2.79097 15.0002 1.00018 13.2092 1 11.0002V9.75023C1 9.19794 1.44772 8.75023 2 8.75023C2.55228 8.75023 3 9.19794 3 9.75023V11.0002C3.00018 12.1046 3.89554 13.0002 5 13.0002H11C12.1045 13.0002 12.9998 12.1046 13 11.0002V9.75023C13 9.19794 13.4477 8.75023 14 8.75023ZM10.293 1.2932C10.6835 0.902674 11.3165 0.902674 11.707 1.2932L13.707 3.2932C14.0974 3.68374 14.0975 4.31679 13.707 4.70726L11.707 6.70726C11.3165 7.09757 10.6835 7.09757 10.293 6.70726C9.9025 6.31679 9.90261 5.68374 10.293 5.2932L10.5859 5.00023H10C8.89543 5.00023 8 5.89566 8 7.00023V10.2502C7.99982 10.8024 7.55218 11.2502 7 11.2502C6.44782 11.2502 6.00018 10.8024 6 10.2502V7.00023C6 4.79109 7.79086 3.00023 10 3.00023H10.5859L10.293 2.70726C9.9025 2.31679 9.90261 1.68374 10.293 1.2932Z"
    fill="currentColor"
  />
</svg>
