<svg width="12" height="12" viewBox="0 0 12 12" fill="none" xmlns="http://www.w3.org/2000/svg" data-fui-icon="true">
  <path
    fill-rule="evenodd"
    clip-rule="evenodd"
    d="M10.9999 1.24995C11.552 1.25014 11.9998 1.69777 11.9998 2.24991V6.31224C11.9998 7.38213 11.1322 8.24947 10.0624 8.24966H3.37224L4.15346 9.05139C4.53866 9.4467 4.53086 10.0799 4.13588 10.4654C3.74059 10.8508 3.10745 10.8429 2.72188 10.4478L0.284477 7.94792C-0.0941745 7.55956 -0.0941745 6.93985 0.284477 6.55149L2.72188 4.05159C3.10745 3.65654 3.74059 3.6486 4.13588 4.03402C4.53086 4.41952 4.53866 5.05271 4.15346 5.44802L3.37224 6.24975H9.9999V2.24991C9.9999 1.69765 10.4476 1.24995 10.9999 1.24995Z"
    fill="currentColor"
  />
</svg>
