<svg width="16" height="16" viewBox="0 0 16 16" fill="none" xmlns="http://www.w3.org/2000/svg" data-fui-icon="true">
  <path
    fill-rule="evenodd"
    clip-rule="evenodd"
    d="M14 2.25C14.5523 2.25 15 2.69772 15 3.25V8.5C15 9.74264 13.9927 10.75 12.75 10.75H4.51372L6.1729 12.2607C6.58115 12.6325 6.61096 13.2645 6.2393 13.6729C5.8675 14.0811 5.23552 14.1109 4.82719 13.7393L1.32719 10.5518C1.12164 10.3645 1.00276 10.1003 1.00005 9.82227C0.99738 9.54419 1.11058 9.2771 1.31255 9.08594L4.81255 5.77344C5.21366 5.39388 5.847 5.41143 6.22661 5.8125C6.60617 6.21362 6.58864 6.84695 6.18755 7.22656L4.57817 8.75H12.75C12.8881 8.75 13 8.63807 13 8.5V3.25C13 2.69783 13.4479 2.25019 14 2.25Z"
    fill="currentColor"
  />
</svg>
