<svg width="16" height="16" viewBox="0 0 16 16" fill="none" xmlns="http://www.w3.org/2000/svg" data-fui-icon="true">
  <path
    fill-rule="evenodd"
    clip-rule="evenodd"
    d="M13.5001 1.75C14.3285 1.75 15.0001 2.42157 15.0001 3.25V8.5C15.0001 10.0188 13.7689 11.25 12.2501 11.25H6.30671L7.00983 11.8906C7.62222 12.4483 7.66696 13.3973 7.10944 14.0098C6.55171 14.622 5.60275 14.6668 4.9903 14.1094L1.4903 10.9219C1.18206 10.6411 1.00414 10.2441 1.00007 9.82715C0.99607 9.4101 1.16595 9.00939 1.46882 8.72266L4.96882 5.41016C5.57045 4.84087 6.52048 4.86726 7.08991 5.46875C7.65925 6.07044 7.63296 7.02043 7.03132 7.58984L6.33405 8.25H12.0001V3.25C12.0001 2.42162 12.6717 1.75008 13.5001 1.75Z"
    fill="currentColor"
  />
</svg>
