<svg width="20" height="20" viewBox="0 0 20 20" fill="none" xmlns="http://www.w3.org/2000/svg" data-fui-icon="true">
  <path
    d="M18.25 13.0004C18.6642 13.0004 19 13.3362 19 13.7504V14.7504C18.9998 17.0974 17.0971 19.0004 14.75 19.0004H5.25C2.90292 19.0004 1.00021 17.0974 1 14.7504V13.7504C1 13.3362 1.33579 13.0004 1.75 13.0004C2.16421 13.0004 2.5 13.3362 2.5 13.7504V14.7504C2.50021 16.269 3.73135 17.5004 5.25 17.5004H14.75C16.2687 17.5004 17.4998 16.269 17.5 14.7504V13.7504C17.5 13.3362 17.8358 13.0004 18.25 13.0004ZM12.7197 1.47009C13.0126 1.1772 13.4874 1.1772 13.7803 1.47009L16.5303 4.22009C16.823 4.513 16.8231 4.98781 16.5303 5.28064L13.7803 8.03064C13.4874 8.32327 13.0126 8.32327 12.7197 8.03064C12.4269 7.73781 12.427 7.263 12.7197 6.97009L14.1895 5.50037H11.75C10.2312 5.50037 9 6.73158 9 8.25037V13.2504C8.99978 13.6644 8.66408 14.0004 8.25 14.0004C7.83592 14.0004 7.50022 13.6644 7.5 13.2504V8.25037C7.5 5.90316 9.40279 4.00037 11.75 4.00037H14.1895L12.7197 2.53064C12.4269 2.23781 12.427 1.763 12.7197 1.47009Z"
    fill="currentColor"
  />
</svg>
