<svg width="24" height="24" viewBox="0 0 24 24" fill="none" xmlns="http://www.w3.org/2000/svg" data-fui-icon="true">
  <path
    fill-rule="evenodd"
    clip-rule="evenodd"
    d="M21.5 11.7504C22.3284 11.7504 23 12.4219 23 13.2504V15.5004C22.9999 19.6424 19.6421 23.0004 15.5 23.0004H8.5C4.35794 23.0004 1.00012 19.6424 1 15.5004V13.2504C1 12.4219 1.67157 11.7504 2.5 11.7504C3.32843 11.7504 4 12.4219 4 13.2504V15.5004C4.00012 17.9855 6.01479 20.0004 8.5 20.0004H15.5C17.9852 20.0004 19.9999 17.9855 20 15.5004V13.2504C20 12.4219 20.6716 11.7504 21.5 11.7504ZM10.7373 1.44861C11.5228 0.807776 12.6818 0.854069 13.4141 1.5863L18.2676 6.43982C18.8532 7.02562 18.8533 7.97517 18.2676 8.56091C17.6818 9.1465 16.7322 9.14653 16.1465 8.56091L13.5 5.91443V14.5004C13.4999 15.3287 12.8283 16.0004 12 16.0004C11.1717 16.0003 10.5001 15.3287 10.5 14.5004V5.91443L7.85352 8.56091C7.26776 9.14656 6.31819 9.14655 5.73242 8.56091C5.14667 7.97516 5.14673 7.02561 5.73242 6.43982L10.5859 1.5863L10.7373 1.44861Z"
    fill="currentColor"
  />
</svg>
