<svg width="32" height="32" viewBox="0 0 32 32" fill="none" xmlns="http://www.w3.org/2000/svg" data-fui-icon="true">
  <path
    d="M19.0007 2.91699C20.1508 2.91748 21.0836 3.84987 21.0837 5V17.584H24.8796C26.0914 17.5843 26.7435 19.0067 25.9529 19.9248L17.5789 29.6494C16.7478 30.6144 15.2528 30.6143 14.4216 29.6494L6.04761 19.9248C5.25688 19.0066 5.90894 17.584 7.12085 17.584H10.9167V5C10.9169 3.84955 11.8502 2.91699 13.0007 2.91699H19.0007ZM13.0007 4.41699C12.6787 4.41699 12.4169 4.67798 12.4167 5V18.334C12.4164 18.7477 12.0805 19.0837 11.6667 19.084H7.30249L15.5583 28.6709L15.6541 28.7598C15.8931 28.9364 16.2386 28.9071 16.4421 28.6709L24.698 19.084H20.3337C19.9197 19.084 19.5841 18.7479 19.5837 18.334V5C19.5836 4.67828 19.3224 4.41748 19.0007 4.41699H13.0007Z"
    fill="currentColor"
  />
</svg>
