<svg width="16" height="16" viewBox="0 0 16 16" fill="none" xmlns="http://www.w3.org/2000/svg" data-fui-icon="true">
  <path
    fill-rule="evenodd"
    clip-rule="evenodd"
    d="M14.25 9.00007C14.6642 9.00007 15 9.33585 15 9.75007V11.2501C14.9999 13.3211 13.321 15.0001 11.25 15.0001H4.75C2.67899 15.0001 1.0001 13.3211 1 11.2501V9.75007C1 9.33585 1.33579 9.00007 1.75 9.00007C2.16421 9.00007 2.5 9.33585 2.5 9.75007V11.2501C2.5001 12.4926 3.50742 13.5001 4.75 13.5001H11.25C12.4926 13.5001 13.4999 12.4926 13.5 11.2501V9.75007C13.5 9.33585 13.8358 9.00007 14.25 9.00007ZM10.2197 1.21979C10.5126 0.926899 10.9874 0.926899 11.2803 1.21979L13.5303 3.46979C13.8231 3.76269 13.8231 4.23748 13.5303 4.53034L11.2803 6.78034C10.9874 7.07311 10.5126 7.07311 10.2197 6.78034C9.92686 6.48747 9.92692 6.01269 10.2197 5.71979L11.1895 4.75007H9.75C8.50736 4.75007 7.5 5.75742 7.5 7.00007V10.2501C7.4999 10.6642 7.16415 11.0001 6.75 11.0001C6.33585 11.0001 6.0001 10.6642 6 10.2501V7.00007C6 4.929 7.67893 3.25007 9.75 3.25007H11.1895L10.2197 2.28034C9.92686 1.98748 9.92692 1.51269 10.2197 1.21979Z"
    fill="currentColor"
  />
</svg>
