<svg width="20" height="20" viewBox="0 0 20 20" fill="none" xmlns="http://www.w3.org/2000/svg" data-fui-icon="true">
  <path
    fill-rule="evenodd"
    clip-rule="evenodd"
    d="M17.75 11.2504C18.4404 11.2504 19 11.81 19 12.5004V14.2504C18.9998 16.8735 16.8732 19.0004 14.25 19.0004H5.75C3.1268 19.0004 1.00025 16.8735 1 14.2504V12.5004C1 11.81 1.55964 11.2504 2.25 11.2504C2.94036 11.2504 3.5 11.81 3.5 12.5004V14.2504C3.50025 15.4928 4.50751 16.5004 5.75 16.5004H14.25C15.4925 16.5004 16.4998 15.4928 16.5 14.2504V12.5004C16.5 11.81 17.0596 11.2504 17.75 11.2504ZM12.1162 1.3666C12.6044 0.878449 13.3956 0.878449 13.8838 1.3666L16.8838 4.3666C17.3717 4.85478 17.3719 5.6461 16.8838 6.13418L13.8838 9.13418C13.3957 9.62203 12.6043 9.62203 12.1162 9.13418C11.6281 8.6461 11.6283 7.85478 12.1162 7.3666L12.9824 6.50039H11.25C10.0074 6.50039 9 7.50775 9 8.75039V13.2504C8.99972 13.9405 8.44018 14.5004 7.75 14.5004C7.05982 14.5004 6.50028 13.9405 6.5 13.2504V8.75039C6.5 6.12704 8.62665 4.00039 11.25 4.00039H12.9824L12.1162 3.13418C11.6281 2.6461 11.6283 1.85478 12.1162 1.3666Z"
    fill="currentColor"
  />
</svg>
