<svg width="16" height="16" viewBox="0 0 16 16" fill="none" xmlns="http://www.w3.org/2000/svg" data-fui-icon="true">
  <path
    fill-rule="evenodd"
    clip-rule="evenodd"
    d="M14.9996 8.00021C15.5519 8.00021 15.9996 8.44791 15.9996 9.00018V10.5001C15.9994 13.5375 13.5371 16 10.4997 16H5.49986C2.46249 16 0.000197833 13.5375 0 10.5001V9.00018C2.33557e-07 8.44791 0.447704 8.00021 0.999975 8.00021C1.55225 8.00021 1.99995 8.44791 1.99995 9.00018V10.5001C2.00015 12.4329 3.56704 14.0001 5.49986 14.0001H10.4997C12.4326 14.0001 13.9995 12.4329 13.9997 10.5001V9.00018C13.9997 8.44791 14.4474 8.00021 14.9996 8.00021ZM7.05647 0.391022C7.57712 -0.129637 8.42147 -0.12958 8.94216 0.391022L12.7067 4.15558C13.0969 4.54612 13.0971 5.17919 12.7067 5.56961C12.3163 5.95973 11.6831 5.95973 11.2927 5.56961L8.99978 3.27669V9.50017C8.99958 10.0522 8.55188 10.5001 7.9998 10.5001C7.44765 10.5001 7.00002 10.0523 6.99983 9.50017V3.27669L4.70691 5.56961C4.31651 5.95952 3.68329 5.95952 3.29289 5.56961C2.90243 5.17915 2.90256 4.54513 3.29289 4.1546L7.05647 0.391022Z"
    fill="currentColor"
  />
</svg>
