<svg width="20" height="20" viewBox="0 0 20 20" fill="none" xmlns="http://www.w3.org/2000/svg" data-fui-icon="true">
  <path
    fill-rule="evenodd"
    clip-rule="evenodd"
    d="M17.75 9.5001C18.4404 9.5001 19 10.0597 19 10.7501V13.2501C18.9999 16.4257 16.4256 19.0001 13.25 19.0001H6.75C3.57441 19.0001 1.00007 16.4257 1 13.2501V10.7501C1 10.0597 1.55964 9.50009 2.25 9.5001C2.94036 9.5001 3.5 10.0597 3.5 10.7501V13.2501C3.50007 15.045 4.95512 16.5001 6.75 16.5001H13.25C15.0449 16.5001 16.4999 15.045 16.5 13.2501V10.7501C16.5 10.0597 17.0596 9.5001 17.75 9.5001ZM8.94824 1.37412C9.60277 0.840404 10.5676 0.878472 11.1777 1.48838L15.3066 5.61631C15.7945 6.10441 15.7945 6.89578 15.3066 7.38388C14.8185 7.87184 14.0262 7.87196 13.5381 7.38388L11.25 5.0958V11.7501C11.2499 12.4403 10.6902 12.9999 10 13.0001C9.30982 12.9999 8.75007 12.4403 8.75 11.7501V5.09482L6.46094 7.38388C5.97277 7.87183 5.18145 7.87197 4.69336 7.38388C4.20536 6.89579 4.20545 6.10445 4.69336 5.61631L8.82129 1.48838L8.94824 1.37412Z"
    fill="currentColor"
  />
</svg>
