<svg width="16" height="16" viewBox="0 0 16 16" fill="none" xmlns="http://www.w3.org/2000/svg" data-fui-icon="true">
  <path
    d="M5 1.5C5.82843 1.5 6.5 2.17157 6.5 3C6.5 3.82843 5.82843 4.5 5 4.5C4.44772 4.5 4 4.94772 4 5.5V10.5C4 11.3284 4.67157 12 5.5 12H10.5C11.0523 12 11.5 11.5523 11.5 11C11.5 10.1716 12.1716 9.5 13 9.5C13.8284 9.5 14.5 10.1716 14.5 11C14.5 13.2091 12.7091 15 10.5 15H5.5C3.01472 15 1 12.9853 1 10.5V5.5C1 3.29086 2.79086 1.5 5 1.5ZM13.5 1C14.3284 1 15 1.67157 15 2.5V6.5C15 7.32843 14.3284 8 13.5 8C12.6716 8 12 7.32843 12 6.5V6.12109L9.06055 9.06055C8.47476 9.64633 7.52524 9.64633 6.93945 9.06055C6.35367 8.47476 6.35367 7.52524 6.93945 6.93945L9.87891 4H9.5C8.67157 4 8 3.32843 8 2.5C8 1.67157 8.67157 1 9.5 1H13.5Z"
    fill="currentColor"
  />
</svg>
