<svg width="20" height="20" viewBox="0 0 20 20" fill="none" xmlns="http://www.w3.org/2000/svg" data-fui-icon="true">
  <path
    fill-rule="evenodd"
    clip-rule="evenodd"
    d="M17.75 11.2503C18.4404 11.2503 19 11.81 19 12.5003V14.2503C18.9998 16.8735 16.8732 19.0003 14.25 19.0003H5.75C3.12677 19.0003 1.0002 16.8735 1 14.2503V12.5003C1 11.81 1.55964 11.2503 2.25 11.2503C2.94036 11.2503 3.5 11.81 3.5 12.5003V14.2503C3.5002 15.4928 4.50748 16.5003 5.75 16.5003H14.25C15.4925 16.5003 16.4998 15.4928 16.5 14.2503V12.5003C16.5 11.81 17.0596 11.2503 17.75 11.2503ZM12.1162 1.36654C12.6044 0.878388 13.3956 0.878388 13.8838 1.36654L16.8838 4.36654C17.3718 4.85471 17.3719 5.64603 16.8838 6.13412L13.8838 9.13412C13.3957 9.62203 12.6043 9.62203 12.1162 9.13412C11.6281 8.64603 11.6282 7.85471 12.1162 7.36654L12.9824 6.50033H11.25C10.0074 6.50033 9 7.50769 9 8.75033V13.2503C8.99977 13.9405 8.44021 14.5003 7.75 14.5003C7.05979 14.5003 6.50023 13.9405 6.5 13.2503V8.75033C6.5 6.12698 8.62665 4.00033 11.25 4.00033H12.9824L12.1162 3.13412C11.6281 2.64603 11.6282 1.85471 12.1162 1.36654Z"
    fill="currentColor"
  />
</svg>
