<svg width="12" height="12" viewBox="0 0 12 12" fill="none" xmlns="http://www.w3.org/2000/svg" data-fui-icon="true">
  <path
    d="M7.12488 0.625C7.81519 0.625067 8.37488 1.1847 8.37488 1.875V6.125H9.32996C10.1853 6.12516 10.6455 7.12925 10.0878 7.77734L6.94714 11.4248C6.44848 12.0035 5.55127 12.0037 5.05261 11.4248L1.91296 7.77734C1.35492 7.1293 1.81462 6.12538 2.6698 6.125H3.62488V1.875C3.62488 1.18471 4.18462 0.625115 4.87488 0.625H7.12488ZM5.12488 6.875C5.12488 7.28917 4.78903 7.62493 4.37488 7.625H3.76062L5.99988 10.2246L8.23914 7.625H7.62488C7.21075 7.6249 6.87488 7.28915 6.87488 6.875V2.125H5.12488V6.875Z"
    fill="currentColor"
  />
</svg>
