<svg width="32" height="32" viewBox="0 0 32 32" fill="none" xmlns="http://www.w3.org/2000/svg" data-fui-icon="true">
  <path
    d="M14.4209 2.35059C15.2519 1.38558 16.7469 1.3859 17.5781 2.35059L25.9521 12.0762C26.7429 12.9944 26.0909 14.417 24.8789 14.417H21.083V27C21.083 28.1505 20.1504 29.0837 19 29.084H13C11.8496 29.0838 10.916 28.1505 10.916 27V14.417H7.12012C5.90854 14.4167 5.25645 12.9944 6.04688 12.0762L14.4209 2.35059ZM16.4414 3.33008C16.2377 3.09376 15.8924 3.06409 15.6533 3.24121L15.5576 3.33008L7.30176 12.917H11.666C12.0802 12.917 12.416 13.2528 12.416 13.667V27C12.416 27.3221 12.678 27.5838 13 27.584H19C19.322 27.5837 19.583 27.322 19.583 27V13.667C19.583 13.2529 19.919 12.9172 20.333 12.917H24.6973L16.4414 3.33008Z"
    fill="currentColor"
  />
</svg>
