<svg width="16" height="16" viewBox="0 0 16 16" fill="none" xmlns="http://www.w3.org/2000/svg" data-fui-icon="true">
  <path
    fill-rule="evenodd"
    clip-rule="evenodd"
    d="M1.74985 2.5C1.33563 2.5 0.999846 2.83579 0.999846 3.25V8.5C0.999846 9.60457 1.89528 10.5 2.99985 10.5H12.3817L10.245 12.4453C9.93877 12.7242 9.9164 13.1986 10.1952 13.5049C10.474 13.811 10.9485 13.8334 11.2547 13.5547L14.7547 10.3672C14.9089 10.2268 14.9978 10.0279 14.9998 9.81934C15.0017 9.61092 14.9169 9.41086 14.7655 9.26758L11.2655 5.95508C10.9646 5.67042 10.4896 5.68358 10.2049 5.98438C9.92025 6.28522 9.9334 6.76022 10.2342 7.04492L12.2997 9H2.99985C2.7237 9 2.49985 8.77614 2.49985 8.5V3.25C2.49985 2.83581 2.16403 2.50003 1.74985 2.5Z"
    fill="currentColor"
  />
</svg>
