<svg width="24" height="24" viewBox="0 0 24 24" fill="none" xmlns="http://www.w3.org/2000/svg" data-fui-icon="true">
  <path
    d="M2.00012 3.75C1.44787 3.75004 1.00012 4.19774 1.00012 4.75V13.375C1.00012 14.9628 2.28734 16.25 3.87512 16.25H19.4855L16.8136 18.7734C16.4123 19.1527 16.3945 19.7851 16.7736 20.1865C17.1528 20.5879 17.7852 20.6057 18.1866 20.2266L22.6866 15.9766C22.8866 15.7877 23.0001 15.525 23.0001 15.25C23.0001 14.9749 22.8866 14.7123 22.6866 14.5234L18.1866 10.2734C17.7852 9.89432 17.1528 9.91214 16.7736 10.3135C16.3945 10.7149 16.4123 11.3473 16.8136 11.7266L19.4855 14.25H3.87512C3.39191 14.25 3.00012 13.8582 3.00012 13.375V4.75C3.00012 4.19771 2.55241 3.75 2.00012 3.75Z"
    fill="currentColor"
  />
</svg>
