<svg width="32" height="32" viewBox="0 0 32 32" fill="none" xmlns="http://www.w3.org/2000/svg" data-fui-icon="true">
  <path
    fill-rule="evenodd"
    clip-rule="evenodd"
    d="M30 20.7502C30.5523 20.7502 31 21.1979 31 21.7502V24.5002C30.9999 28.0899 28.0898 31.0002 24.5 31.0002H7.5C3.91024 31.0002 1.00015 28.0899 1 24.5002V21.7502C1 21.1979 1.44772 20.7502 2 20.7502C2.55228 20.7502 3 21.1979 3 21.7502V24.5002C3.00015 26.9853 5.01481 29.0002 7.5 29.0002H24.5C26.9852 29.0002 28.9999 26.9853 29 24.5002V21.7502C29 21.1979 29.4477 20.7502 30 20.7502ZM19.793 1.29314C20.1835 0.902613 20.8165 0.902613 21.207 1.29314L26.207 6.29314C26.5974 6.68367 26.5975 7.31672 26.207 7.7072L21.207 12.7072C20.8165 13.0975 20.1835 13.0975 19.793 12.7072C19.4025 12.3167 19.4026 11.6837 19.793 11.2931L23.0859 8.00017H18C15.7909 8.00017 14 9.79103 14 12.0002V22.7502C13.9998 23.3023 13.5522 23.7502 13 23.7502C12.4478 23.7502 12.0002 23.3023 12 22.7502V12.0002C12 8.68646 14.6863 6.00017 18 6.00017H23.0859L19.793 2.7072C19.4025 2.31672 19.4026 1.68367 19.793 1.29314Z"
    fill="currentColor"
  />
</svg>
