<svg width="20" height="20" viewBox="0 0 20 20" fill="none" xmlns="http://www.w3.org/2000/svg" data-fui-icon="true">
  <path
    d="M7.5 2C8.05228 2 8.5 2.44772 8.5 3C8.5 3.55228 8.05228 4 7.5 4H6C4.34315 4 3 5.34315 3 7V14C3 15.6569 4.34315 17 6 17H13C14.6569 17 16 15.6569 16 14V12.5C16 11.9477 16.4477 11.5 17 11.5C17.5523 11.5 18 11.9477 18 12.5V14C18 16.7614 15.7614 19 13 19H6C3.23858 19 1 16.7614 1 14V7C1 4.23858 3.23858 2 6 2H7.5ZM18 1C18.5523 1 19 1.44772 19 2V7.75C19 8.30228 18.5523 8.75 18 8.75C17.4477 8.75 17 8.30228 17 7.75V4.41406L10.707 10.707C10.3165 11.0976 9.68349 11.0976 9.29297 10.707C8.90244 10.3165 8.90244 9.68349 9.29297 9.29297L15.5859 3H12.25C11.6977 3 11.25 2.55228 11.25 2C11.25 1.44772 11.6977 1 12.25 1H18Z"
    fill="currentColor"
  />
</svg>
