<svg width="20" height="20" viewBox="0 0 20 20" fill="none" xmlns="http://www.w3.org/2000/svg" data-fui-icon="true">
  <path
    d="M7.5 2C7.91421 2 8.25 2.33579 8.25 2.75C8.25 3.16421 7.91421 3.5 7.5 3.5H5.75C3.95507 3.5 2.5 4.95507 2.5 6.75V14.25C2.5 16.0449 3.95507 17.5 5.75 17.5H13.25C15.0449 17.5 16.5 16.0449 16.5 14.25V12.5C16.5 12.0858 16.8358 11.75 17.25 11.75C17.6642 11.75 18 12.0858 18 12.5V14.25C18 16.8734 15.8734 19 13.25 19H5.75C3.12665 19 1 16.8734 1 14.25V6.75C1 4.12665 3.12665 2 5.75 2H7.5ZM18.25 1C18.6642 1 19 1.33579 19 1.75V7.5C19 7.91421 18.6642 8.25 18.25 8.25C17.8358 8.25 17.5 7.91421 17.5 7.5V3.56055L10.5303 10.5303C10.2374 10.8232 9.76262 10.8232 9.46973 10.5303C9.17683 10.2374 9.17683 9.76262 9.46973 9.46973L16.4395 2.5H12.5C12.0858 2.5 11.75 2.16421 11.75 1.75C11.75 1.33579 12.0858 1 12.5 1H18.25Z"
    fill="currentColor"
  />
</svg>
