<svg width="12" height="12" viewBox="0 0 12 12" fill="none" xmlns="http://www.w3.org/2000/svg" data-fui-icon="true">
  <path
    fill-rule="evenodd"
    clip-rule="evenodd"
    d="M11.0001 1.25C11.5522 1.25019 12.0001 1.69783 12.0001 2.25V6.3125C12.0001 7.38243 11.1325 8.24981 10.0626 8.25H3.37213L4.15338 9.05176C4.5386 9.44708 4.5308 10.0803 4.13581 10.4658C3.7405 10.8512 3.10733 10.8433 2.72174 10.4482L0.284244 7.94824C-0.0944225 7.55987 -0.0944225 6.94013 0.284244 6.55176L2.72174 4.05176C3.10733 3.65669 3.7405 3.64875 4.13581 4.03418C4.5308 4.4197 4.5386 5.05292 4.15338 5.44824L3.37213 6.25H10.0001V2.25C10.0001 1.69772 10.4478 1.25 11.0001 1.25Z"
    fill="currentColor"
  />
</svg>
