<svg width="12" height="12" viewBox="0 0 12 12" fill="none" xmlns="http://www.w3.org/2000/svg" data-fui-icon="true">
  <path
    fill-rule="evenodd"
    clip-rule="evenodd"
    d="M10.5 0.75C11.3284 0.750022 12 1.42159 12 2.25V6.3125C12 7.65868 10.9086 8.74998 9.56247 8.75H5.05271C5.58722 9.34528 5.56246 10.2605 4.98435 10.8242C4.39118 11.4023 3.4415 11.3899 2.86326 10.7969L0.425756 8.29688C-0.141919 7.71438 -0.141919 6.78562 0.425756 6.20312L2.86326 3.70312C3.4415 3.11007 4.39118 3.09771 4.98435 3.67578C5.56246 4.23946 5.58722 5.15472 5.05271 5.75H8.99997V2.25C8.99997 1.42157 9.67155 0.75 10.5 0.75Z"
    fill="currentColor"
  />
</svg>
