<svg width="32" height="32" viewBox="0 0 32 32" fill="none" xmlns="http://www.w3.org/2000/svg" data-fui-icon="true">
  <path
    d="M19.9004 7.47168C20.3144 7.47794 20.6448 7.81935 20.6387 8.2334C20.6322 8.6473 20.2919 8.97778 19.8779 8.97168L9.88379 8.82227L24.4854 23.4248C24.7782 23.7177 24.7782 24.1925 24.4854 24.4854C24.1925 24.7782 23.7177 24.7782 23.4248 24.4854L8.82227 9.88379L8.97168 19.8779C8.97778 20.2919 8.64731 20.6323 8.2334 20.6387C7.81936 20.6448 7.47796 20.3144 7.47168 19.9004L7.29492 8.05664C7.29194 7.85393 7.37129 7.65801 7.51465 7.51465C7.65801 7.37129 7.85392 7.29194 8.05664 7.29492L19.9004 7.47168Z"
    fill="currentColor"
  />
</svg>
