<svg width="12" height="12" viewBox="0 0 12 12" fill="none" xmlns="http://www.w3.org/2000/svg" data-fui-icon="true">
  <path
    d="M9.18225 1.75684C9.47515 1.4644 9.95004 1.46417 10.2428 1.75684C10.5357 2.04973 10.5357 2.52547 10.2428 2.81836L4.151 8.90918L8.45374 8.78613C8.86747 8.77453 9.21222 9.09994 9.22424 9.51367C9.23607 9.92772 8.90977 10.2733 8.49573 10.2852L2.3092 10.4619C2.10294 10.4678 1.90336 10.3881 1.75745 10.2422C1.61159 10.0963 1.5328 9.89665 1.5387 9.69043L1.71545 3.50391C1.72728 3.08986 2.07192 2.76356 2.48596 2.77539C2.89991 2.78733 3.22533 3.1329 3.2135 3.54688L3.09045 7.84863L9.18225 1.75684Z"
    fill="currentColor"
  />
</svg>
