<svg width="16" height="16" viewBox="0 0 16 16" fill="none" xmlns="http://www.w3.org/2000/svg" data-fui-icon="true">
  <path
    fill-rule="evenodd"
    clip-rule="evenodd"
    d="M2.24994 2C1.55959 2 0.999945 2.55964 0.999945 3.25V8.5C0.999945 9.88071 2.11923 11 3.49994 11H10.5898L9.40815 12.0762C8.89797 12.541 8.86136 13.3315 9.32612 13.8418C9.79099 14.3519 10.5814 14.3886 11.0917 13.9238L14.5917 10.7363C14.8486 10.5023 14.9966 10.1717 14.9999 9.82422C15.0032 9.47674 14.8617 9.14318 14.6093 8.9043L11.1093 5.5918C10.6079 5.11737 9.81626 5.13932 9.34174 5.64062C8.86729 6.14203 8.8892 6.93369 9.39057 7.4082L10.5439 8.5H3.49994V3.25C3.49994 2.55967 2.94026 2.00004 2.24994 2Z"
    fill="currentColor"
  />
</svg>
