<svg width="20" height="20" viewBox="0 0 20 20" fill="none" xmlns="http://www.w3.org/2000/svg" data-fui-icon="true">
  <path
    d="M17.1875 9.25C17.6017 9.25 17.9375 9.58579 17.9375 10V13.4375C17.9375 15.9227 15.9228 17.9375 13.4375 17.9375H6.5625C4.07724 17.9375 2.06254 15.9227 2.0625 13.4375V10C2.0625 9.58579 2.39829 9.25 2.8125 9.25C3.22671 9.25 3.5625 9.58579 3.5625 10V13.4375C3.56254 15.0943 4.90567 16.4375 6.5625 16.4375H13.4375C15.0943 16.4375 16.4375 15.0943 16.4375 13.4375V10C16.4375 9.58579 16.7733 9.25 17.1875 9.25ZM9.1748 2.57715C9.60195 2.15 10.2781 2.12329 10.7363 2.49707L10.8252 2.57715L14.2803 6.03223C14.573 6.32509 14.573 6.79992 14.2803 7.09277C13.9874 7.38545 13.5126 7.38545 13.2197 7.09277L10.75 4.62305V12.084C10.7496 12.4979 10.414 12.834 10 12.834C9.58602 12.834 9.25038 12.4979 9.25 12.084V4.62305L6.78027 7.09277C6.48742 7.38545 6.01258 7.38545 5.71973 7.09277C5.42702 6.79992 5.42704 6.32509 5.71973 6.03223L9.1748 2.57715Z"
    fill="currentColor"
  />
</svg>
