<svg width="20" height="20" viewBox="0 0 20 20" fill="none" xmlns="http://www.w3.org/2000/svg" data-fui-icon="true">
  <g clip-path="url(#clip0_882_952)">
    <path
      d="M19.25 9.99988C19.6642 9.99988 19.9999 10.3357 20 10.7499V13.7499C20 17.2017 17.2018 19.9999 13.75 19.9999H6.25C2.79822 19.9999 2.96928e-07 17.2017 0 13.7499V10.7499C7.6269e-05 10.3357 0.335833 9.99988 0.75 9.99988C1.16417 9.99988 1.49992 10.3357 1.5 10.7499V13.7499C1.5 16.3732 3.62665 18.4999 6.25 18.4999H13.75C16.3734 18.4999 18.5 16.3732 18.5 13.7499V10.7499C18.5001 10.3357 18.8358 9.99988 19.25 9.99988ZM9.1748 0.341675C9.60193 -0.0853747 10.2781 -0.112075 10.7363 0.261597L10.8252 0.341675L15.5312 5.04773C15.8236 5.34061 15.8239 5.81552 15.5312 6.10828C15.2384 6.40117 14.7626 6.40117 14.4697 6.10828L10.75 2.38757V11.2499C10.75 11.6641 10.4142 11.9999 10 11.9999C9.58584 11.9998 9.25 11.664 9.25 11.2499V2.38855L5.53027 6.10828C5.23743 6.40091 4.76257 6.40091 4.46973 6.10828C4.17691 5.81545 4.17703 5.34064 4.46973 5.04773L9.1748 0.341675Z"
      fill="currentColor"
    />
  </g>
  <defs>
    <clipPath id="clip0_882_952"><path fill="currentColor" d="M0 0H20V20H0z" /></clipPath>
  </defs>
</svg>
