<svg width="20" height="20" viewBox="0 0 20 20" fill="none" xmlns="http://www.w3.org/2000/svg" data-fui-icon="true">
  <path
    d="M4.34302 4.34277C4.63582 4.05018 5.11071 4.05028 5.40356 4.34277L14.3333 13.2725L14.1995 7.54297C14.19 7.12913 14.5181 6.78529 14.9319 6.77539C15.3456 6.76584 15.6893 7.09323 15.6995 7.50684L15.8762 15.1084C15.881 15.3133 15.8014 15.5123 15.6565 15.6572C15.5116 15.8019 15.3134 15.8817 15.1086 15.877L7.50708 15.7002C7.09324 15.6903 6.76601 15.3456 6.77563 14.9316C6.78567 14.5179 7.12937 14.1906 7.54321 14.2002L13.2727 14.333L4.34302 5.4043C4.05012 5.1114 4.05012 4.63567 4.34302 4.34277Z"
    fill="currentColor"
  />
</svg>
