<svg width="20" height="20" viewBox="0 0 20 20" fill="none" xmlns="http://www.w3.org/2000/svg" data-fui-icon="true">
  <path
    d="M8.80005 1.28523C9.43169 0.552061 10.5678 0.552206 11.1995 1.28523L16.4329 7.36336C17.0841 8.11957 16.5472 9.29207 15.5491 9.29207H13.4583V16.8751C13.4582 17.7495 12.7487 18.4581 11.8743 18.4581H8.12427C7.25007 18.4578 6.5413 17.7493 6.54126 16.8751V9.29207H4.44946C3.45185 9.29158 2.91461 8.11944 3.56567 7.36336L8.80005 1.28523ZM10.0627 2.26472C10.0294 2.22621 9.96988 2.22629 9.93677 2.26472L5.177 7.79207H7.29126C7.70542 7.79207 8.04117 8.12793 8.04126 8.54207V16.8751C8.0413 16.9209 8.07849 16.9578 8.12427 16.9581H11.8743C11.9203 16.9581 11.9582 16.9211 11.9583 16.8751V8.54207C11.9583 8.12798 12.2942 7.79215 12.7083 7.79207H14.8225L10.0627 2.26472Z"
    fill="currentColor"
  />
</svg>
