<svg width="20" height="20" viewBox="0 0 20 20" fill="none" xmlns="http://www.w3.org/2000/svg" data-fui-icon="true">
  <path
    fill-rule="evenodd"
    clip-rule="evenodd"
    d="M17.75 9.49961C18.4402 9.49961 18.9998 10.0594 19 10.7496V13.2496C19 16.4252 16.4256 18.9996 13.25 18.9996H6.75C3.57436 18.9996 1 16.4252 1 13.2496V10.7496C1.00021 10.0594 1.55977 9.49961 2.25 9.49961C2.94023 9.49961 3.49979 10.0594 3.5 10.7496V13.2496C3.5 15.0445 4.95507 16.4996 6.75 16.4996H13.25C15.0449 16.4996 16.5 15.0445 16.5 13.2496V10.7496C16.5002 10.0594 17.0598 9.49961 17.75 9.49961ZM8.94824 1.37363C9.60268 0.840002 10.5676 0.878235 11.1777 1.48789L15.3066 5.61582C15.7945 6.1039 15.7945 6.89529 15.3066 7.3834C14.8185 7.87156 14.0262 7.87154 13.5381 7.3834L11.25 5.09531V11.7496C11.25 12.4399 10.6902 12.9994 10 12.9996C9.30978 12.9994 8.75 12.4399 8.75 11.7496V5.09433L6.46094 7.3834C5.97278 7.87155 5.18152 7.87155 4.69336 7.3834C4.20555 6.89522 4.20532 6.10386 4.69336 5.61582L8.82129 1.48789L8.94824 1.37363Z"
    fill="currentColor"
  />
</svg>
