<svg width="16" height="16" viewBox="0 0 16 16" fill="none" xmlns="http://www.w3.org/2000/svg" data-fui-icon="true">
  <path
    fill-rule="evenodd"
    clip-rule="evenodd"
    d="M14.2499 2.5C14.6641 2.5 14.9999 2.83579 14.9999 3.25V8.5C14.9999 9.60457 14.1045 10.5 12.9999 10.5H3.61807L5.75479 12.4453C6.06099 12.7242 6.08335 13.1986 5.8046 13.5049C5.52574 13.8111 5.05127 13.8334 4.74503 13.5547L1.24503 10.3672C1.09083 10.2267 1.00191 10.0279 0.999909 9.81934C0.99801 9.61091 1.08289 9.41087 1.23428 9.26758L4.73428 5.95508C5.03512 5.67041 5.51012 5.68357 5.79483 5.98438C6.0795 6.28522 6.06636 6.76022 5.76553 7.04492L3.7001 9H12.9999C13.2761 9 13.4999 8.77614 13.4999 8.5V3.25C13.4999 2.8358 13.8357 2.50002 14.2499 2.5Z"
    fill="currentColor"
  />
</svg>
