<svg width="16" height="16" viewBox="0 0 16 16" fill="none" xmlns="http://www.w3.org/2000/svg" data-fui-icon="true">
  <path
    d="M11.8894 3.05078C12.1823 2.75789 12.6571 2.75789 12.95 3.05078C13.2425 3.3437 13.2427 3.81855 12.95 4.11133L5.43921 11.6211L10.4558 11.4932C10.8697 11.4827 11.2137 11.8097 11.2244 12.2236C11.2348 12.6376 10.9078 12.9815 10.4939 12.9922L3.60034 13.1689C3.39499 13.1742 3.19588 13.0953 3.05054 12.9502C2.90523 12.8049 2.82562 12.6058 2.83081 12.4004L3.00757 5.50586C3.01824 5.09183 3.36306 4.76477 3.7771 4.77539C4.19094 4.78628 4.51818 5.13101 4.50757 5.54492L4.37866 10.5605L11.8894 3.05078Z"
    fill="currentColor"
  />
</svg>
