<svg width="16" height="16" viewBox="0 0 16 16" fill="none" xmlns="http://www.w3.org/2000/svg" data-fui-icon="true">
  <path
    d="M6 2C6.55228 2 7 2.44772 7 3C7 3.55228 6.55228 4 6 4H5C3.89543 4 3 4.89543 3 6V11C3 12.1046 3.89543 13 5 13H10C11.1046 13 12 12.1046 12 11V10C12 9.44772 12.4477 9 13 9C13.5523 9 14 9.44772 14 10V11C14 13.2091 12.2091 15 10 15H5C2.79086 15 1 13.2091 1 11V6C1 3.79086 2.79086 2 5 2H6ZM14 1C14.5523 1 15 1.44772 15 2V6.25C15 6.80228 14.5523 7.25 14 7.25C13.4477 7.25 13 6.80228 13 6.25V4.41406L8.70703 8.70703C8.31651 9.09756 7.68349 9.09756 7.29297 8.70703C6.90244 8.31651 6.90244 7.68349 7.29297 7.29297L11.5859 3H9.75C9.19772 3 8.75 2.55228 8.75 2C8.75 1.44772 9.19772 1 9.75 1H14Z"
    fill="currentColor"
  />
</svg>
