<svg width="16" height="16" viewBox="0 0 16 16" fill="none" xmlns="http://www.w3.org/2000/svg" data-fui-icon="true">
  <path
    fill-rule="evenodd"
    clip-rule="evenodd"
    d="M14.25 7.99982C14.6641 7.99982 14.9998 8.33578 15 8.74982V10.7869C15 13.1341 13.0972 15.0369 10.75 15.0369H5.25C2.90279 15.0369 1 13.1341 1 10.7869V8.74982C1.00021 8.33578 1.33592 7.99982 1.75 7.99982C2.16408 7.99982 2.49979 8.33578 2.5 8.74982V10.7869C2.5 12.3057 3.73122 13.5369 5.25 13.5369H10.75C12.2688 13.5369 13.5 12.3057 13.5 10.7869V8.74982C13.5002 8.33578 13.8359 7.99982 14.25 7.99982ZM7.2334 1.3172C7.65644 0.894158 8.34255 0.894214 8.76562 1.3172L12.0303 4.58087C12.3232 4.87376 12.3232 5.3495 12.0303 5.64239C11.7375 5.93502 11.2626 5.93477 10.9697 5.64239L8.75 3.42267V9.24982C8.75 9.66394 8.41409 9.99967 8 9.99982C7.58584 9.99975 7.25 9.66399 7.25 9.24982V3.42169L5.03027 5.64239C4.73744 5.93487 4.26253 5.93491 3.96973 5.64239C3.6769 5.34952 3.67692 4.87376 3.96973 4.58087L7.2334 1.3172Z"
    fill="currentColor"
  />
</svg>
