<svg width="16" height="16" viewBox="0 0 16 16" fill="none" xmlns="http://www.w3.org/2000/svg" data-fui-icon="true">
  <path
    fill-rule="evenodd"
    clip-rule="evenodd"
    d="M13.7501 2C14.4404 2 15.0001 2.55964 15.0001 3.25V8.5C15.0001 9.88071 13.8808 11 12.5001 11H5.41021L6.59185 12.0762C7.10203 12.541 7.13864 13.3315 6.67388 13.8418C6.20901 14.3519 5.41856 14.3886 4.90826 13.9238L1.40826 10.7363C1.15144 10.5023 1.00339 10.1717 1.00006 9.82422C0.996798 9.47674 1.13831 9.14318 1.39068 8.9043L4.89068 5.5918C5.39206 5.11737 6.18374 5.13932 6.65826 5.64062C7.13271 6.14203 7.1108 6.93369 6.60943 7.4082L5.45611 8.5H12.5001V3.25C12.5001 2.55967 13.0597 2.00004 13.7501 2Z"
    fill="currentColor"
  />
</svg>
