<svg width="24" height="24" viewBox="0 0 24 24" fill="none" xmlns="http://www.w3.org/2000/svg" data-fui-icon="true">
  <path
    d="M2.49951 3.25C1.67109 3.25 0.999512 3.92157 0.999512 4.75V13.375C0.999512 15.239 2.51055 16.75 4.37451 16.75H17.7261L15.9692 18.4092C15.367 18.978 15.3399 19.928 15.9087 20.5303C16.4775 21.1323 17.4276 21.1596 18.0298 20.5908L22.5298 16.3408C22.8296 16.0575 22.9995 15.6626 22.9995 15.25C22.9995 14.8374 22.8296 14.4425 22.5298 14.1592L18.0298 9.90918C17.4276 9.34045 16.4775 9.3677 15.9087 9.96973C15.3399 10.572 15.367 11.522 15.9692 12.0908L17.7261 13.75H4.37451C4.1674 13.75 3.99951 13.5821 3.99951 13.375V4.75C3.99951 3.92173 3.32772 3.25025 2.49951 3.25Z"
    fill="currentColor"
  />
</svg>
