<svg width="24" height="24" viewBox="0 0 24 24" fill="none" xmlns="http://www.w3.org/2000/svg" data-fui-icon="true">
  <path
    fill-rule="evenodd"
    clip-rule="evenodd"
    d="M21.5 11.7503C22.3284 11.7503 23 12.4219 23 13.2503V15.5003C22.9999 19.6423 19.6421 23.0003 15.5 23.0003H8.5C4.35794 23.0003 1.00012 19.6423 1 15.5003V13.2503C1 12.4219 1.67157 11.7503 2.5 11.7503C3.32843 11.7503 4 12.4219 4 13.2503V15.5003C4.00012 17.9855 6.01479 20.0003 8.5 20.0003H15.5C17.9852 20.0003 19.9999 17.9855 20 15.5003V13.2503C20 12.4219 20.6716 11.7503 21.5 11.7503ZM10.7373 1.44855C11.5228 0.807715 12.6818 0.854008 13.4141 1.58624L18.2676 6.43976C18.8532 7.02556 18.8533 7.97511 18.2676 8.56085C17.6818 9.14644 16.7322 9.14647 16.1465 8.56085L13.5 5.91437V14.5003C13.4999 15.3286 12.8283 16.0003 12 16.0003C11.1717 16.0002 10.5001 15.3286 10.5 14.5003V5.91437L7.85352 8.56085C7.26776 9.1465 6.31819 9.14649 5.73242 8.56085C5.14667 7.97509 5.14673 7.02555 5.73242 6.43976L10.5859 1.58624L10.7373 1.44855Z"
    fill="currentColor"
  />
</svg>
