<svg width="12" height="12" viewBox="0 0 12 12" fill="none" xmlns="http://www.w3.org/2000/svg" data-fui-icon="true">
  <path
    d="M10.9999 5.75006C11.5522 5.75006 11.9999 6.19777 11.9999 6.75005V8.00004C11.9998 10.2091 10.209 12 7.99992 12H3.99996C1.79088 12 5.49028e-05 10.2091 0 8.00004V6.75005C3.54631e-08 6.19777 0.447711 5.75006 0.99999 5.75006C1.55227 5.75006 1.99998 6.19777 1.99998 6.75005V8.00004C2.00003 9.10455 2.89543 10 3.99996 10H7.99992C9.10444 10 9.99984 9.10455 9.9999 8.00004V6.75005C9.9999 6.19777 10.4476 5.75006 10.9999 5.75006ZM5.21088 0.280393C5.70185 -0.120091 6.42606 -0.0913251 6.88372 0.366329L9.31045 2.79306C9.70094 3.18358 9.70096 3.8166 9.31045 4.20711C8.91994 4.59752 8.28689 4.59756 7.8964 4.20711L6.99993 3.31064V7.00005C6.99987 7.55228 6.55218 8.00004 5.99994 8.00004C5.44771 8.00002 5 7.55227 4.99995 7.00005V3.31064L4.10347 4.20711C3.71296 4.59755 3.07993 4.59757 2.68943 4.20711C2.29893 3.81661 2.29897 3.18359 2.68943 2.79306L5.11616 0.366329L5.21088 0.280393Z"
    fill="currentColor"
  />
</svg>
