<svg width="16" height="16" viewBox="0 0 16 16" fill="none" xmlns="http://www.w3.org/2000/svg" data-fui-icon="true">
  <g clip-path="url(#clip0_882_1440)">
    <path
      d="M0.75 2C0.335787 2 0 2.33579 0 2.75V9C0 10.1046 0.895431 11 2 11H13.3818L11.2451 12.9453C10.9389 13.2242 10.9166 13.6986 11.1953 14.0049C11.4742 14.3111 11.9486 14.3334 12.2549 14.0547L15.7549 10.8672C15.9091 10.7267 15.998 10.5279 16 10.3193C16.0019 10.1109 15.917 9.91087 15.7656 9.76758L12.2656 6.45508C11.9648 6.17041 11.4898 6.18355 11.2051 6.48438C10.9204 6.78522 10.9336 7.26022 11.2344 7.54492L13.2998 9.5H2C1.72386 9.5 1.5 9.27614 1.5 9V2.75C1.5 2.33579 1.16421 2 0.75 2Z"
      fill="currentColor"
    />
  </g>
  <defs>
    <clipPath id="clip0_882_1440">
      <path fill="currentColor" transform="matrix(-1 0 0 1 16 0)" d="M0 0H16V16H0z" />
    </clipPath>
  </defs>
</svg>
