<svg width="12" height="12" viewBox="0 0 12 12" fill="none" xmlns="http://www.w3.org/2000/svg" data-fui-icon="true">
  <path
    d="M8.49585 1.71558C8.90989 1.72741 9.2362 2.07204 9.22437 2.48608C9.21242 2.89987 8.86763 3.22521 8.45386 3.21362L4.15112 3.09058L10.2429 9.18237C10.5354 9.47529 10.5357 9.95015 10.2429 10.2429C9.95015 10.5357 9.4753 10.5354 9.18237 10.2429L3.09058 4.15112L3.21362 8.45386C3.22522 8.86763 2.89987 9.2124 2.48608 9.22437C2.07204 9.2362 1.72741 8.90989 1.71558 8.49585L1.53882 2.30933C1.53293 2.10306 1.61166 1.90348 1.75757 1.75757C1.90348 1.61167 2.10307 1.53293 2.30933 1.53882L8.49585 1.71558Z"
    fill="currentColor"
  />
</svg>
