<svg width="24" height="24" viewBox="0 0 24 24" fill="none" xmlns="http://www.w3.org/2000/svg" data-fui-icon="true">
  <path
    fill-rule="evenodd"
    clip-rule="evenodd"
    d="M21.5 14.2497C22.3284 14.2497 23 14.9213 23 15.7497V16.9997C23 20.3134 20.3137 22.9997 17 22.9997H6.75C3.57438 22.9997 1.00003 20.4253 1 17.2497V15.7497C1.00005 14.9213 1.6716 14.2497 2.5 14.2497C3.3284 14.2497 3.99995 14.9213 4 15.7497V17.2497C4.00003 18.7685 5.23124 19.9997 6.75 19.9997H17C18.6568 19.9997 20 18.6565 20 16.9997V15.7497C20 14.9213 20.6716 14.2497 21.5 14.2497ZM13.9395 1.43916C14.5252 0.853452 15.4748 0.853452 16.0605 1.43916L20.0605 5.43916C20.6463 6.02492 20.6463 6.97446 20.0605 7.56025L16.0605 11.5603C15.4748 12.146 14.5252 12.146 13.9395 11.5603C13.3537 10.9745 13.3537 10.0249 13.9395 9.43916L15.3789 7.9997H13.5C12.1193 7.9997 11.0001 9.11905 11 10.4997V15.4997C11 16.3281 10.3284 16.9997 9.5 16.9997C8.67157 16.9997 8 16.3281 8 15.4997V10.4997C8.00007 7.46219 10.4625 4.9997 13.5 4.9997H15.3789L13.9395 3.56025C13.3537 2.97446 13.3537 2.02492 13.9395 1.43916Z"
    fill="currentColor"
  />
</svg>
