<svg width="20" height="20" viewBox="0 0 20 20" fill="none" xmlns="http://www.w3.org/2000/svg" data-fui-icon="true">
  <path
    d="M14.5964 4.34375C14.8893 4.05086 15.3641 4.05086 15.657 4.34375C15.9496 4.63667 15.9498 5.11151 15.657 5.4043L6.72729 14.333L12.4568 14.2002C12.8706 14.1906 13.2143 14.5179 13.2244 14.9316C13.234 15.3455 12.9067 15.6902 12.4929 15.7002L4.89136 15.877C4.68661 15.8817 4.48841 15.8019 4.34351 15.6572C4.19858 15.5123 4.11901 15.3133 4.12378 15.1084L4.30054 7.50781C4.31044 7.09396 4.65419 6.76577 5.06812 6.77539C5.48188 6.78529 5.81001 7.12916 5.80054 7.54297L5.66675 13.2725L14.5964 4.34375Z"
    fill="currentColor"
  />
</svg>
