<svg width="16" height="16" viewBox="0 0 16 16" fill="none" xmlns="http://www.w3.org/2000/svg" data-fui-icon="true">
  <path
    fill-rule="evenodd"
    clip-rule="evenodd"
    d="M14.25 7.99988C14.6641 7.99988 14.9998 8.33584 15 8.74988V10.787C15 13.1342 13.0972 15.037 10.75 15.037H5.25C2.90279 15.037 1 13.1342 1 10.787V8.74988C1.00021 8.33584 1.33592 7.99988 1.75 7.99988C2.16408 7.99988 2.49979 8.33584 2.5 8.74988V10.787C2.5 12.3058 3.73122 13.537 5.25 13.537H10.75C12.2688 13.537 13.5 12.3058 13.5 10.787V8.74988C13.5002 8.33584 13.8359 7.99988 14.25 7.99988ZM7.2334 1.31726C7.65644 0.894219 8.34255 0.894275 8.76562 1.31726L12.0303 4.58093C12.3232 4.87383 12.3232 5.34956 12.0303 5.64246C11.7375 5.93508 11.2626 5.93483 10.9697 5.64246L8.75 3.42273V9.24988C8.75 9.664 8.41409 9.99973 8 9.99988C7.58584 9.99982 7.25 9.66405 7.25 9.24988V3.42175L5.03027 5.64246C4.73744 5.93493 4.26253 5.93498 3.96973 5.64246C3.6769 5.34958 3.67692 4.87382 3.96973 4.58093L7.2334 1.31726Z"
    fill="currentColor"
  />
</svg>
