<svg width="12" height="12" viewBox="0 0 12 12" fill="none" xmlns="http://www.w3.org/2000/svg" data-fui-icon="true">
  <path
    fill-rule="evenodd"
    clip-rule="evenodd"
    d="M11.25 6.00012C11.6642 6.00012 12 6.33591 12 6.75012V8.25012C11.9999 10.3211 10.321 12.0001 8.25 12.0001H3.75C1.679 12.0001 0.000111 10.3211 0 8.25012V6.75012C-1.81059e-08 6.33591 0.335786 6.00012 0.75 6.00012C1.16421 6.00012 1.5 6.33591 1.5 6.75012V8.25012C1.50011 9.49267 2.50743 10.5001 3.75 10.5001H8.25C9.49257 10.5001 10.4999 9.49267 10.5 8.25012V6.75012C10.5 6.33591 10.8358 6.00012 11.25 6.00012ZM5.29297 0.334106C5.68346 -0.0563875 6.3165 -0.056324 6.70703 0.334106L9.34277 2.96985C9.63553 3.26275 9.63562 3.73754 9.34277 4.0304C9.04991 4.32302 8.57506 4.32307 8.28223 4.0304L6.75 2.49817V7.25012C6.74989 7.66422 6.41411 8.00008 6 8.00012C5.58594 8.00002 5.25011 7.66418 5.25 7.25012V2.49817L3.71777 4.0304C3.42492 4.32316 2.9501 4.32312 2.65723 4.0304C2.36437 3.73752 2.3644 3.26274 2.65723 2.96985L5.29297 0.334106Z"
    fill="currentColor"
  />
</svg>
