<svg width="24" height="24" viewBox="0 0 24 24" fill="none" xmlns="http://www.w3.org/2000/svg" data-fui-icon="true">
  <path
    d="M22.25 16.0001C22.6642 16.0001 23 16.3359 23 16.7501V17.7501C22.9999 20.6495 20.6494 23.0001 17.75 23.0001H6.25C3.35055 23.0001 1.00008 20.6495 1 17.7501V16.7501C1 16.3359 1.33579 16.0001 1.75 16.0001C2.16421 16.0001 2.5 16.3359 2.5 16.7501V17.7501C2.50008 19.8211 4.17898 21.5001 6.25 21.5001H17.75C19.821 21.5001 21.4999 19.8211 21.5 17.7501V16.7501C21.5 16.3359 21.8358 16.0001 22.25 16.0001ZM14.7197 1.96985C15.0126 1.67696 15.4874 1.67696 15.7803 1.96985L19.0303 5.21985C19.3231 5.51275 19.3231 5.98753 19.0303 6.2804L15.7803 9.5304C15.4874 9.82319 15.0126 9.82319 14.7197 9.5304C14.4269 9.23753 14.4269 8.76275 14.7197 8.46985L16.6895 6.50012H13.75C11.9551 6.50012 10.5 7.9552 10.5 9.75012V16.2501C10.4999 16.6643 10.1642 17.0001 9.75 17.0001C9.33584 17.0001 9.00008 16.6643 9 16.2501V9.75012C9 7.12677 11.1266 5.00012 13.75 5.00012H16.6895L14.7197 3.0304C14.4269 2.73753 14.4269 2.26275 14.7197 1.96985Z"
    fill="currentColor"
  />
</svg>
