<svg width="20" height="20" viewBox="0 0 20 20" fill="none" xmlns="http://www.w3.org/2000/svg" data-fui-icon="true">
  <path
    fill-rule="evenodd"
    clip-rule="evenodd"
    d="M18 9.74993C18.5523 9.74993 19 10.1976 19 10.7499V13.4999C18.9999 16.5374 16.5375 18.9999 13.5 18.9999H6.5C3.46247 18.9999 1.00006 16.5374 1 13.4999V10.7499C1 10.1976 1.44772 9.74993 2 9.74993C2.55228 9.74993 3 10.1976 3 10.7499V13.4999C3.00006 15.4329 4.56704 16.9999 6.5 16.9999H13.5C15.433 16.9999 16.9999 15.4329 17 13.4999V10.7499C17 10.1976 17.4477 9.74993 18 9.74993ZM9.10547 1.31732C9.66178 0.863651 10.4823 0.896643 11.001 1.41497L15.3799 5.7929C15.7701 6.18336 15.7701 6.81651 15.3799 7.20696C14.9893 7.59724 14.3553 7.5974 13.9648 7.20696L11 4.24212V11.9999C10.9999 12.5521 10.5521 12.9998 10 12.9999C9.44793 12.9997 9.00006 12.552 9 11.9999V4.24114L6.03418 7.20696C5.64364 7.59724 5.01056 7.5974 4.62012 7.20696C4.22982 6.81651 4.22989 6.1834 4.62012 5.7929L8.99805 1.41497L9.10547 1.31732Z"
    fill="currentColor"
  />
</svg>
