<svg width="24" height="24" viewBox="0 0 24 24" fill="none" xmlns="http://www.w3.org/2000/svg" data-fui-icon="true">
  <path
    d="M9.25 2C9.80228 2 10.25 2.44772 10.25 3C10.25 3.55228 9.80228 4 9.25 4H7.5C5.01472 4 3 6.01472 3 8.5V16.5C3 18.9853 5.01472 21 7.5 21H15.5C17.9853 21 20 18.9853 20 16.5V14.75C20 14.1977 20.4477 13.75 21 13.75C21.5523 13.75 22 14.1977 22 14.75V16.5C22 20.0899 19.0898 23 15.5 23H7.5C3.91015 23 1 20.0898 1 16.5V8.5C1 4.91015 3.91015 2 7.5 2H9.25ZM22 1C22.5523 1 23 1.44772 23 2V9.5C23 10.0523 22.5523 10.5 22 10.5C21.4477 10.5 21 10.0523 21 9.5V4.41406L12.707 12.707C12.3165 13.0976 11.6835 13.0976 11.293 12.707C10.9024 12.3165 10.9024 11.6835 11.293 11.293L19.5859 3H14.5C13.9477 3 13.5 2.55228 13.5 2C13.5 1.44772 13.9477 1 14.5 1H22Z"
    fill="currentColor"
  />
</svg>
