<svg width="32" height="32" viewBox="0 0 32 32" fill="none" xmlns="http://www.w3.org/2000/svg" data-fui-icon="true">
  <path
    fill-rule="evenodd"
    clip-rule="evenodd"
    d="M29.75 20.4997C30.4403 20.4997 30.9999 21.0594 31 21.7497V24.2497C31 27.9777 27.9779 30.9997 24.25 30.9997H7.75C4.02208 30.9997 1 27.9777 1 24.2497V21.7497C1.00007 21.0594 1.55969 20.4997 2.25 20.4997C2.94031 20.4997 3.49993 21.0594 3.5 21.7497V24.2497C3.5 26.5969 5.40279 28.4997 7.75 28.4997H24.25C26.5972 28.4997 28.5 26.5969 28.5 24.2497V21.7497C28.5001 21.0594 29.0597 20.4997 29.75 20.4997ZM19.3662 1.36594C19.8544 0.877856 20.6456 0.877856 21.1338 1.36594L26.1338 6.36594C26.6219 6.85408 26.6219 7.64536 26.1338 8.13352L21.1338 13.1335C20.6456 13.6217 19.8544 13.6217 19.3662 13.1335C18.8781 12.6454 18.8781 11.8541 19.3662 11.3659L22.2324 8.49973H17.75C15.679 8.49973 14.0001 10.1787 14 12.2497V22.7497C14 23.4401 13.4404 23.9997 12.75 23.9997C12.0596 23.9997 11.5 23.4401 11.5 22.7497V12.2497C11.5001 8.798 14.2983 5.99973 17.75 5.99973H22.2324L19.3662 3.13352C18.8781 2.64536 18.8781 1.85408 19.3662 1.36594Z"
    fill="currentColor"
  />
</svg>
