<svg width="12" height="12" viewBox="0 0 12 12" fill="none" xmlns="http://www.w3.org/2000/svg" data-fui-icon="true">
  <path
    fill-rule="evenodd"
    clip-rule="evenodd"
    d="M1.2514 0.999919C0.561097 0.999919 0.00149905 1.55952 0.00149905 2.24982V6.31199C0.00149905 7.52001 0.980796 8.49931 2.18882 8.49931H7.78602L7.41886 8.87623C6.93711 9.37034 6.94654 10.1617 7.44035 10.6437C7.93446 11.1254 8.72586 11.116 9.20778 10.6222L11.6451 8.12239C12.1183 7.63697 12.1183 6.86185 11.6451 6.37643L9.20778 3.87664C8.72586 3.38285 7.93446 3.37346 7.44035 3.85516C6.94654 4.33709 6.93711 5.12848 7.41886 5.62259L7.78602 5.99951H2.5013V2.24982C2.5013 1.55954 1.94167 0.999954 1.2514 0.999919Z"
    fill="currentColor"
  />
</svg>
