<svg width="20" height="20" viewBox="0 0 20 20" fill="none" xmlns="http://www.w3.org/2000/svg" data-fui-icon="true">
  <path
    fill-rule="evenodd"
    clip-rule="evenodd"
    d="M18.9998 9.99992C19.552 9.99992 19.9996 10.4477 19.9998 10.9999V13.4999C19.9998 17.0897 17.0896 19.9998 13.4998 19.9998H6.49992C2.91011 19.9998 2.08614e-07 17.0897 0 13.4999V10.9999C0.00013244 10.4477 0.447791 9.99992 0.999988 9.99992C1.55218 9.99992 1.99984 10.4477 1.99998 10.9999V13.4999C1.99998 15.9851 4.01467 17.9998 6.49992 17.9998H13.4998C15.9851 17.9998 17.9998 15.9851 17.9998 13.4999V10.9999C17.9999 10.4477 18.4476 9.99992 18.9998 9.99992ZM8.99794 0.415072C9.51658 -0.103472 10.338 -0.136312 10.8944 0.317417L11.0018 0.415072L15.7078 5.12107C16.0978 5.51157 16.098 6.14473 15.7078 6.53511C15.3173 6.92563 14.6833 6.92563 14.2928 6.53511L10.9999 3.24121V11.4999C10.9999 12.0522 10.5522 12.4999 9.99988 12.4999C9.44766 12.4998 8.99989 12.0521 8.99989 11.4999V3.24219L5.70696 6.53511C5.31649 6.92537 4.68339 6.92538 4.29292 6.53511C3.90254 6.14466 3.90262 5.51158 4.29292 5.12107L8.99794 0.415072Z"
    fill="currentColor"
  />
</svg>
