<svg width="12" height="12" viewBox="0 0 12 12" fill="none" xmlns="http://www.w3.org/2000/svg" data-fui-icon="true">
  <path
    d="M6.00037 0C6.20659 9.02596e-05 6.40368 0.0854142 6.54529 0.235352L10.7953 4.73535C11.0795 5.03644 11.0659 5.51055 10.765 5.79492C10.4639 6.07928 9.98987 6.06563 9.70544 5.76465L6.75037 2.63574V11.25C6.75037 11.6641 6.41443 11.9998 6.00037 12C5.58615 12 5.25037 11.6642 5.25037 11.25V2.63574L2.29529 5.76465C2.01093 6.06573 1.53687 6.07916 1.23572 5.79492C0.934579 5.51051 0.921035 5.03649 1.20544 4.73535L5.45544 0.235352C5.59712 0.0854364 5.79409 9.01641e-09 6.00037 0Z"
    fill="currentColor"
  />
</svg>
