<svg width="20" height="20" viewBox="0 0 20 20" fill="none" xmlns="http://www.w3.org/2000/svg" data-fui-icon="true">
  <path
    fill-rule="evenodd"
    clip-rule="evenodd"
    d="M17.5 11.2504C18.3284 11.2504 19 11.9219 19 12.7504V14.0004C18.9998 16.7616 16.7613 19.0004 14 19.0004H6C3.23872 19.0004 1.00024 16.7616 1 14.0004V12.7504C1 11.9219 1.67157 11.2504 2.5 11.2504C3.32843 11.2504 4 11.9219 4 12.7504V14.0004C4.00024 15.1047 4.89558 16.0004 6 16.0004H14C15.1044 16.0004 15.9998 15.1047 16 14.0004V12.7504C16 11.9219 16.6716 11.2504 17.5 11.2504ZM12.4395 1.43983C13.0252 0.854042 13.9748 0.854042 14.5605 1.43983L17.5605 4.43983C18.1461 5.02563 18.1463 5.97521 17.5605 6.56092L14.5605 9.56092C13.9748 10.1464 13.0252 10.1464 12.4395 9.56092C11.8537 8.97521 11.8539 8.02563 12.4395 7.43983L12.8789 7.00037H12C10.8954 7.00037 10 7.89581 10 9.00037V12.5004C9.99974 13.3286 9.32826 14.0004 8.5 14.0004C7.67174 14.0004 7.00026 13.3286 7 12.5004V9.00037C7 6.23895 9.23858 4.00038 12 4.00038H12.8789L12.4395 3.56092C11.8537 2.97521 11.8539 2.02563 12.4395 1.43983Z"
    fill="currentColor"
  />
</svg>
