<svg width="20" height="20" viewBox="0 0 20 20" fill="none" xmlns="http://www.w3.org/2000/svg" data-fui-icon="true">
  <path
    d="M8.80017 1.28528C9.43182 0.552107 10.568 0.552252 11.1996 1.28528L16.433 7.3634C17.0842 8.11961 16.5473 9.29211 15.5492 9.29211H13.4584V16.8751C13.4583 17.7495 12.7488 18.4581 11.8744 18.4581H8.12439C7.25019 18.4579 6.54142 17.7494 6.54138 16.8751V9.29211H4.44958C3.45197 9.29163 2.91473 8.11949 3.5658 7.3634L8.80017 1.28528ZM10.0629 2.26477C10.0295 2.22625 9.97001 2.22634 9.93689 2.26477L5.17712 7.79211H7.29138C7.70554 7.79211 8.04129 8.12798 8.04138 8.54211V16.8751C8.04142 16.921 8.07861 16.9579 8.12439 16.9581H11.8744C11.9204 16.9581 11.9583 16.9211 11.9584 16.8751V8.54211C11.9585 8.12803 12.2943 7.79219 12.7084 7.79211H14.8226L10.0629 2.26477Z"
    fill="currentColor"
  />
</svg>
