<svg width="32" height="32" viewBox="0 0 32 32" fill="none" xmlns="http://www.w3.org/2000/svg" data-fui-icon="true">
  <path
    fill-rule="evenodd"
    clip-rule="evenodd"
    d="M29.75 15.5001C30.4403 15.5001 31 16.0598 31 16.7501V21.7501C30.9999 26.8586 26.8586 31.0001 21.75 31.0001H10.25C5.14145 31.0001 1.00013 26.8586 1 21.7501V16.7501C1.00002 16.0598 1.55966 15.5001 2.25 15.5001C2.94034 15.5001 3.49998 16.0598 3.5 16.7501V21.7501C3.50013 25.4779 6.52216 28.5001 10.25 28.5001H21.75C25.4778 28.5001 28.4999 25.4779 28.5 21.7501V16.7501C28.5 16.0598 29.0597 15.5001 29.75 15.5001ZM14.6445 1.56162C15.393 0.813117 16.607 0.813119 17.3555 1.56162L25.3848 9.58994C25.8726 10.0781 25.8728 10.8704 25.3848 11.3585C24.8967 11.8466 24.1044 11.8464 23.6162 11.3585L17.25 4.99131V19.7237C17.2499 20.4139 16.6902 20.9736 16 20.9737C15.3098 20.9736 14.7501 20.4139 14.75 19.7237V4.99229L8.38379 11.3585C7.89577 11.8462 7.10432 11.8461 6.61621 11.3585C6.12805 10.8703 6.12806 10.0781 6.61621 9.58994L14.6445 1.56162Z"
    fill="currentColor"
  />
</svg>
