<svg width="32" height="32" viewBox="0 0 32 32" fill="none" xmlns="http://www.w3.org/2000/svg" data-fui-icon="true">
  <path
    d="M2.25037 4.5C1.5602 4.50022 1.00037 5.05979 1.00037 5.75V17.5C1.00037 19.5709 2.67949 21.2498 4.75037 21.25H26.6469L22.3842 25.3486C21.8869 25.827 21.871 26.6186 22.349 27.1162C22.8273 27.6137 23.6189 27.6294 24.1166 27.1514L30.6166 20.9014C30.8617 20.6657 31.0004 20.34 31.0004 20C31.0004 19.66 30.8617 19.3343 30.6166 19.0986L24.1166 12.8486C23.6189 12.3706 22.8273 12.3863 22.349 12.8838C21.871 13.3814 21.8869 14.173 22.3842 14.6514L26.6469 18.75H4.75037C4.0602 18.7498 3.50037 18.1902 3.50037 17.5V5.75C3.50036 5.05965 2.94072 4.5 2.25037 4.5Z"
    fill="currentColor"
  />
</svg>
