<svg width="24" height="24" viewBox="0 0 24 24" fill="none" xmlns="http://www.w3.org/2000/svg" data-fui-icon="true">
  <path
    d="M21.75 3.5C22.4403 3.5001 23 4.0597 23 4.75V13.375C23 15.1008 21.6008 16.4999 19.875 16.5H5.39453L7.6084 18.5908C8.11013 19.0648 8.13294 19.8565 7.65918 20.3584C7.18524 20.8602 6.39351 20.883 5.8916 20.4092L1.3916 16.1592C1.14157 15.923 1 15.5939 1 15.25C1 14.9061 1.14157 14.577 1.3916 14.3408L5.8916 10.0908C6.39351 9.61704 7.18524 9.63978 7.65918 10.1416C8.13294 10.6435 8.11013 11.4352 7.6084 11.9092L5.39453 14H19.875C20.2201 13.9999 20.5 13.7201 20.5 13.375V4.75C20.5 4.05964 21.0596 3.5 21.75 3.5Z"
    fill="currentColor"
  />
</svg>
