<svg width="32" height="32" viewBox="0 0 32 32" fill="none" xmlns="http://www.w3.org/2000/svg" data-fui-icon="true">
  <path
    d="M23.9436 7.29492C24.1463 7.29194 24.3422 7.37129 24.4856 7.51465C24.629 7.65801 24.7083 7.85393 24.7053 8.05664L24.5286 19.9004C24.5223 20.3144 24.1809 20.6448 23.7668 20.6387C23.3529 20.6323 23.0225 20.2919 23.0286 19.8779L23.178 9.88379L8.57544 24.4854C8.28255 24.7782 7.80778 24.7782 7.51489 24.4854C7.22201 24.1925 7.22202 23.7177 7.51489 23.4248L22.1165 8.82227L12.1223 8.97168C11.7084 8.97778 11.368 8.64731 11.3616 8.2334C11.3555 7.81934 11.6858 7.47793 12.0999 7.47168L23.9436 7.29492Z"
    fill="currentColor"
  />
</svg>
