<svg width="12" height="12" viewBox="0 0 12 12" fill="none" xmlns="http://www.w3.org/2000/svg" data-fui-icon="true">
  <path
    fill-rule="evenodd"
    clip-rule="evenodd"
    d="M11 6.49992C11.5523 6.49992 12 6.94764 12 7.49992V8.49992C12 10.4329 10.433 11.9999 8.5 11.9999H3.5C1.567 11.9999 0 10.4329 0 8.49992V7.49992C0 6.94764 0.447715 6.49992 1 6.49992C1.55228 6.49992 2 6.94764 2 7.49992V8.49992C2 9.32835 2.67157 9.99992 3.5 9.99992H8.5C9.32843 9.99992 10 9.32835 10 8.49992V7.49992C10 6.94764 10.4477 6.49992 11 6.49992ZM7.04297 0.292893C7.43349 -0.0976311 8.06651 -0.0976311 8.45703 0.292893L10.457 2.29289C10.8476 2.68342 10.8476 3.31643 10.457 3.70696L8.45703 5.70696C8.06651 6.09748 7.43349 6.09748 7.04297 5.70696C6.65244 5.31643 6.65244 4.68342 7.04297 4.29289L7.33594 3.99992H6.5C5.94772 3.99992 5.5 4.44764 5.5 4.99992V7.49992C5.5 8.05221 5.05228 8.49992 4.5 8.49992C3.94772 8.49992 3.5 8.05221 3.5 7.49992V4.99992C3.5 3.34307 4.84315 1.99992 6.5 1.99992H7.33594L7.04297 1.70696C6.65244 1.31643 6.65244 0.683417 7.04297 0.292893Z"
    fill="currentColor"
  />
</svg>
