<svg width="20" height="20" viewBox="0 0 20 20" fill="none" xmlns="http://www.w3.org/2000/svg" data-fui-icon="true">
  <path
    d="M12.4929 4.30054C12.9067 4.31049 13.2339 4.65428 13.2244 5.06812C13.2145 5.48197 12.8707 5.81016 12.4568 5.80054L6.72729 5.66675L15.657 14.5964C15.9497 14.8893 15.9498 15.3641 15.657 15.657C15.3641 15.9498 14.8893 15.9497 14.5964 15.657L5.66675 6.72729L5.80054 12.4568C5.81016 12.8707 5.48197 13.2145 5.06812 13.2244C4.65423 13.234 4.31046 12.9067 4.30054 12.4929L4.12378 4.89136C4.11905 4.68649 4.1986 4.48841 4.34351 4.34351C4.48842 4.19861 4.68649 4.11903 4.89136 4.12378L12.4929 4.30054Z"
    fill="currentColor"
  />
</svg>
