<svg width="12" height="12" viewBox="0 0 12 12" fill="none" xmlns="http://www.w3.org/2000/svg" data-fui-icon="true">
  <g clip-path="url(#clip0_882_1444)">
    <path
      d="M0.75 1.5C0.335787 1.5 0 1.83579 0 2.25V6.3125C0 7.24448 0.75552 8 1.6875 8H9.4707L8.27539 9.22656C7.98635 9.52315 7.99253 9.99799 8.28906 10.2871C8.58565 10.5761 9.06049 10.57 9.34961 10.2734L11.7871 7.77344C12.0709 7.48219 12.0709 7.01781 11.7871 6.72656L9.34961 4.22656C9.06049 3.93003 8.58565 3.92385 8.28906 4.21289C7.99253 4.50201 7.98635 4.97685 8.27539 5.27344L9.4707 6.5H1.6875C1.58395 6.5 1.5 6.41605 1.5 6.3125V2.25C1.5 1.83579 1.16421 1.5 0.75 1.5Z"
      fill="currentColor"
    />
  </g>
  <defs>
    <clipPath id="clip0_882_1444">
      <path fill="currentColor" transform="matrix(-1 0 0 1 12 0)" d="M0 0H12V12H0z" />
    </clipPath>
  </defs>
</svg>
