<svg width="16" height="16" viewBox="0 0 16 16" fill="none" xmlns="http://www.w3.org/2000/svg" data-fui-icon="true">
  <path
    d="M11.9199 1.07339C12.5966 0.985123 13.5376 1.04165 14.248 1.75211C14.9585 2.46264 15.0151 3.40356 14.9268 4.08023C14.8349 4.78349 14.5554 5.52237 14.1953 6.22964C13.8996 6.81041 13.5197 7.42197 13.0732 8.04703C13.5194 8.67184 13.8987 9.28292 14.1943 9.86343C14.5545 10.5708 14.8339 11.3095 14.9258 12.0128C15.0142 12.6895 14.9584 13.6303 14.248 14.341C13.5374 15.0516 12.5957 15.1081 11.9189 15.0197C11.2157 14.9277 10.4768 14.6484 9.76953 14.2882C9.18888 13.9925 8.57807 13.6125 7.95312 13.1662C7.32817 13.6125 6.71737 13.9925 6.13672 14.2882C5.42946 14.6484 4.69057 14.9277 3.9873 15.0197C3.31059 15.1081 2.36891 15.0525 1.6582 14.3419C0.947553 13.6313 0.892097 12.6896 0.980469 12.0128C1.07242 11.3096 1.35178 10.5707 1.71191 9.86343C2.00755 9.28291 2.38682 8.67182 2.83301 8.04703C2.38653 7.4219 2.00669 6.81047 1.71094 6.22964C1.35082 5.52237 1.0714 4.78349 0.979492 4.08023C0.891179 3.40351 0.947664 2.46167 1.6582 1.75113C2.36871 1.04098 3.30974 0.985093 3.98633 1.07339C4.68962 1.16528 5.42844 1.44471 6.13574 1.80484C6.71641 2.10051 7.32818 2.47962 7.95312 2.92593C8.57802 2.47967 9.18989 2.10048 9.77051 1.80484C10.4777 1.44477 11.2167 1.16527 11.9199 1.07339ZM3.79785 9.28824C2.57636 11.1055 2.09969 12.6623 2.71875 13.2814C3.3379 13.9002 4.89388 13.4226 6.71094 12.2013C6.20102 11.7734 5.68951 11.3088 5.19043 10.8097C4.69115 10.3104 4.22589 9.79836 3.79785 9.28824ZM12.1074 9.28824C11.6794 9.79826 11.215 10.3105 10.7158 10.8097C10.2166 11.309 9.70445 11.7733 9.19434 12.2013C11.0117 13.423 12.5684 13.8995 13.1875 13.2804C13.806 12.661 13.3287 11.1052 12.1074 9.28824ZM7.95312 4.80972C7.38962 5.26555 6.81585 5.78002 6.25098 6.34488C5.68603 6.90984 5.17169 7.48345 4.71582 8.04703C5.17158 8.61043 5.68623 9.18343 6.25098 9.7482C6.81574 10.313 7.38973 10.8266 7.95312 11.2824C8.5164 10.8267 9.09064 10.3138 9.65527 9.74918C10.22 9.18447 10.7337 8.61038 11.1895 8.04703C10.7336 7.48346 10.2202 6.90884 9.65527 6.3439C9.09049 5.77914 8.51655 5.26549 7.95312 4.80972ZM8 7.00015C8.55227 7.00018 9 7.44788 9 8.00015C8.99992 8.55235 8.55222 9.00013 8 9.00015C7.44777 9.00015 7.00008 8.55237 7 8.00015C7 7.44787 7.44772 7.00015 8 7.00015ZM6.71191 3.89175C4.89446 2.67007 3.33796 2.19372 2.71875 2.81265C2.09999 3.43184 2.57647 4.98774 3.79785 6.80484C4.22585 6.29476 4.6912 5.78357 5.19043 5.28433C5.68978 4.78499 6.20173 4.31984 6.71191 3.89175ZM13.1875 2.81265C12.5684 2.19354 11.0118 2.67003 9.19434 3.89175C9.70443 4.31977 10.2166 4.78411 10.7158 5.28336C11.215 5.78257 11.6794 6.29477 12.1074 6.80484C13.3289 4.98757 13.8063 3.43185 13.1875 2.81265Z"
    fill="currentColor"
  />
</svg>
