<svg width="20" height="20" viewBox="0 0 20 20" fill="none" xmlns="http://www.w3.org/2000/svg" data-fui-icon="true">
  <g clip-path="url(#clip0_882_268)">
    <path
      fill-rule="evenodd"
      clip-rule="evenodd"
      d="M9.99999 20C11.0252 20 11.8165 19.4339 12.3539 18.8202C12.8939 18.2035 13.3118 17.3977 13.6327 16.5314C13.6507 16.4828 13.6685 16.4338 13.686 16.3844C13.7376 16.3939 13.7889 16.403 13.84 16.4117C14.7507 16.567 15.6576 16.608 16.4616 16.4487C17.2618 16.2901 18.1477 15.8878 18.6603 15C19.1729 14.1122 19.0783 13.1439 18.8155 12.3716C18.5514 11.5956 18.0625 10.8307 17.4727 10.1197C17.4396 10.0798 17.4061 10.04 17.3721 10C17.4061 9.96011 17.4397 9.92021 17.4727 9.88035C18.0626 9.16931 18.5515 8.40443 18.8155 7.62846C19.0783 6.8562 19.1729 5.88784 18.6603 5.00003C18.1477 4.11221 17.2618 3.70993 16.4616 3.55139C15.6576 3.39208 14.7507 3.43304 13.84 3.58832C13.789 3.59703 13.7376 3.60615 13.686 3.61566C13.6685 3.56622 13.6507 3.5172 13.6327 3.46862C13.3118 2.6023 12.8939 1.79646 12.3539 1.1798C11.8165 0.566079 11.0252 0 9.99999 0C8.97483 0 8.1835 0.566079 7.64609 1.1798C7.10611 1.79646 6.68815 2.6023 6.36729 3.46862C6.3493 3.51719 6.33152 3.56621 6.31396 3.61565C6.26239 3.60614 6.21107 3.59703 6.16003 3.58832C5.24935 3.43304 4.34249 3.39208 3.53845 3.55139C2.73825 3.70993 1.85235 4.11221 1.33977 5.00003C0.827188 5.88784 0.921759 6.8562 1.18455 7.62846C1.4486 8.40443 1.93751 9.16931 2.52733 9.88035C2.5604 9.92021 2.59396 9.96011 2.628 10C2.59397 10.04 2.56042 10.0798 2.52736 10.1197C1.93753 10.8307 1.44863 11.5956 1.18458 12.3716C0.921783 13.1439 0.827213 14.1122 1.33979 15C1.85237 15.8878 2.73828 16.2901 3.53848 16.4487C4.34251 16.608 5.24937 16.567 6.16006 16.4117C6.2111 16.403 6.26241 16.3939 6.31398 16.3844C6.33154 16.4338 6.34931 16.4828 6.36729 16.5314C6.68815 17.3977 7.10611 18.2035 7.64609 18.8202C8.1835 19.4339 8.97483 20 9.99999 20ZM17.3613 5.75003C17.7944 6.50017 17.3686 7.65181 16.3296 8.90896C15.7873 8.39638 15.1755 7.88831 14.5077 7.39749C14.4165 6.57378 14.2824 5.78991 14.1097 5.06401C15.7179 4.79276 16.9282 4.99988 17.3613 5.75003ZM10 4.79501C10.759 4.46209 11.5049 4.18627 12.2199 3.97294C11.6507 2.44453 10.8662 1.5 9.99999 1.5C9.1338 1.5 8.34931 2.44452 7.78011 3.97291C8.49515 4.18625 9.24107 4.46208 10 4.79501ZM7.34987 5.40988C7.62349 5.49149 7.90378 5.58369 8.18943 5.68624C8.01816 5.77976 7.84694 5.8759 7.67597 5.97461C7.50498 6.07334 7.33608 6.17356 7.16943 6.27514C7.22344 5.97649 7.28374 5.68765 7.34987 5.40988ZM5.8903 5.064C5.71754 5.78992 5.58346 6.57382 5.4923 7.39756C4.82453 7.88836 4.21273 8.3964 3.67047 8.90896C2.63145 7.65181 2.20571 6.50017 2.63881 5.75003C3.0719 4.99989 4.2821 4.79276 5.8903 5.064ZM5.35883 9.41121C5.12723 9.60729 4.90727 9.80391 4.69981 10C4.90727 10.1962 5.12723 10.3928 5.35883 10.5889C5.35419 10.3938 5.35184 10.1974 5.35184 10C5.35184 9.8026 5.35419 9.60627 5.35883 9.41121ZM2.63883 14.25C2.20574 13.4999 2.63147 12.3483 3.67048 11.0911C4.21273 11.6037 4.82454 12.1117 5.49231 12.6025C5.58347 13.4262 5.71755 14.2101 5.89031 14.9361C4.28211 15.2073 3.07192 15.0002 2.63883 14.25ZM9.99999 18.5C9.13381 18.5 8.34933 17.5555 7.78013 16.0271C8.49517 15.8138 9.24108 15.538 10 15.2051C10.759 15.538 11.5048 15.8138 12.2199 16.0271C11.6507 17.5555 10.8662 18.5 9.99999 18.5ZM7.34989 14.5902C7.6235 14.5086 7.90378 14.4164 8.18942 14.3138C8.01815 14.2203 7.84692 14.1242 7.67595 14.0254C7.50496 13.9267 7.33608 13.8265 7.16944 13.7249C7.22345 14.0236 7.28376 14.3124 7.34989 14.5902ZM12.6501 14.5901C12.3765 14.5085 12.0963 14.4164 11.8106 14.3138C11.9819 14.2203 12.1531 14.1242 12.3241 14.0254C12.4951 13.9267 12.6639 13.8265 12.8305 13.725C12.7765 14.0236 12.7162 14.3124 12.6501 14.5901ZM11.5741 12.7264C12.1021 12.4216 12.6053 12.1036 13.0792 11.7778C13.1244 11.2045 13.1481 10.6097 13.1481 10C13.1481 9.39029 13.1244 8.79557 13.0792 8.22224C12.6053 7.89644 12.1021 7.5785 11.5741 7.27365C11.0461 6.96879 10.5191 6.69203 10 6.44449C9.48092 6.69203 8.954 6.96879 8.42597 7.27365C7.89792 7.57852 7.39475 7.89648 6.9208 8.2223C6.87562 8.79561 6.85184 9.39031 6.85184 10C6.85184 10.6097 6.87562 11.2044 6.9208 11.7778C7.39474 12.1036 7.89791 12.4215 8.42595 12.7264C8.95398 13.0313 9.48092 13.308 10 13.5556C10.5192 13.308 11.0461 13.0313 11.5741 12.7264ZM14.6481 10C14.6481 10.1974 14.6458 10.3938 14.6412 10.5889C14.8728 10.3928 15.0928 10.1962 15.3003 10C15.0928 9.80388 14.8728 9.60724 14.6412 9.41114C14.6458 9.60622 14.6481 9.80258 14.6481 10ZM16.3296 11.0911C15.7873 11.6037 15.1755 12.1118 14.5077 12.6026C14.4165 13.4263 14.2824 14.2102 14.1097 14.936C15.7179 15.2073 16.9281 15.0002 17.3612 14.25C17.7943 13.4999 17.3686 12.3483 16.3296 11.0911ZM12.8305 6.27508C12.7765 5.97646 12.7162 5.68765 12.6501 5.40991C12.3765 5.49151 12.0963 5.5837 11.8106 5.68624C11.9819 5.77976 12.1531 5.8759 12.3241 5.97461C12.4951 6.07332 12.6639 6.17352 12.8305 6.27508ZM10 11.2592C10.6955 11.2592 11.2593 10.6954 11.2593 9.99996C11.2593 9.30449 10.6955 8.7407 10 8.7407C9.30455 8.7407 8.74076 9.30449 8.74076 9.99996C8.74076 10.6954 9.30455 11.2592 10 11.2592Z"
      fill="currentColor"
    />
  </g>
  <defs>
    <clipPath id="clip0_882_268"><path fill="currentColor" d="M0 0H20V20H0z" /></clipPath>
  </defs>
</svg>
