<svg width="12" height="12" viewBox="0 0 12 12" fill="none" xmlns="http://www.w3.org/2000/svg" data-fui-icon="true">
  <path
    fill-rule="evenodd"
    clip-rule="evenodd"
    d="M9.09145 0.12907C9.68491 0.089837 10.437 0.192941 11.0456 0.72282L11.1647 0.834148C11.792 1.4614 11.9126 2.27536 11.8708 2.90837C11.8285 3.54518 11.6175 4.19597 11.3405 4.79899C11.1608 5.18992 10.9352 5.59201 10.6754 6.00016C10.9353 6.40842 11.1608 6.81033 11.3405 7.20134C11.6175 7.80434 11.8275 8.45417 11.8698 9.09098C11.9117 9.72392 11.7927 10.5378 11.1657 11.1652C10.5382 11.7926 9.72357 11.9123 9.09048 11.8703C8.45369 11.828 7.80381 11.618 7.20083 11.341C6.80983 11.1613 6.40791 10.9358 5.99966 10.6759C5.5914 10.9358 5.18949 11.1613 4.79849 11.341C4.1955 11.618 3.54563 11.828 2.90884 11.8703C2.27575 11.9123 1.46109 11.7926 0.833642 11.1652C0.206595 10.5378 0.0875798 9.72392 0.12954 9.09098C0.171814 8.45417 0.381799 7.80434 0.658837 7.20134C0.83843 6.81047 1.06311 6.40827 1.3229 6.00016C1.06321 5.59216 0.838418 5.18978 0.658837 4.79899C0.381821 4.19597 0.170781 3.54518 0.128564 2.90837C0.086705 2.27536 0.207365 1.4614 0.834619 0.834148L0.953759 0.72282C1.56227 0.192941 2.31441 0.089836 2.90786 0.12907C3.54468 0.171288 4.19545 0.382321 4.79849 0.659343C5.18928 0.838925 5.59165 1.06371 5.99966 1.32341C6.40766 1.06371 6.81004 0.838925 7.20083 0.659343C7.80386 0.382322 8.45463 0.171288 9.09145 0.12907ZM2.28091 7.32048C1.59462 8.56288 1.40693 9.61662 1.89419 10.1047L1.97817 10.1779C2.49658 10.5712 3.50425 10.3686 4.68032 9.71891C4.25359 9.37109 3.82878 8.99138 3.4186 8.58122C3.00869 8.17129 2.62851 7.74692 2.28091 7.32048ZM9.71743 7.32048C9.36993 7.74676 8.99048 8.17144 8.58071 8.58122C8.17035 8.99157 7.74495 9.37096 7.31802 9.71891C8.49441 10.369 9.50263 10.5713 10.0211 10.1779L10.1051 10.1047C10.5924 9.61657 10.4039 8.56306 9.71743 7.32048ZM5.99966 3.15153C5.49523 3.53437 4.98084 3.97898 4.48013 4.47966C3.97904 4.98075 3.53315 5.49532 3.15005 6.00016C3.53293 6.50477 3.97832 7.01882 4.47915 7.51969C4.97994 8.02048 5.49511 8.46488 5.99966 8.84782C6.5042 8.46489 7.01938 8.02048 7.52017 7.51969C8.02084 7.01898 8.46549 6.50462 8.84829 6.00016C8.46526 5.49547 8.02012 4.98059 7.51919 4.47966C7.01847 3.97898 6.50409 3.53437 5.99966 3.15153ZM5.99966 5.00016C6.55194 5.00017 6.99966 5.44788 6.99966 6.00016C6.99962 6.55242 6.55192 7.00016 5.99966 7.00016C5.4474 7.00016 4.99969 6.55242 4.99966 6.00016C4.99966 5.44788 5.44737 5.00016 5.99966 5.00016ZM4.67837 2.28141C3.43639 1.59557 2.38311 1.40752 1.89517 1.89469C1.40736 2.3825 1.59574 3.4362 2.28188 4.67887C2.62934 4.25271 3.00897 3.82876 3.4186 3.41911C3.82835 3.00938 4.25213 2.62889 4.67837 2.28141ZM10.1041 1.89469C9.61611 1.40742 8.56227 1.59523 7.31997 2.28141C7.74641 2.62902 8.17078 3.00919 8.58071 3.41911C8.9902 3.82861 9.3691 4.25287 9.71645 4.67887C10.4028 3.43602 10.592 2.38255 10.1041 1.89469Z"
    fill="currentColor"
  />
</svg>
