<svg width="20" height="20" viewBox="0 0 20 20" fill="none" xmlns="http://www.w3.org/2000/svg" data-fui-icon="true">
  <path
    d="M10.1895 0.00683594C11.1229 0.0713603 11.8498 0.604435 12.3535 1.17969C12.8935 1.79634 13.312 2.60243 13.6328 3.46875C13.6508 3.51728 13.667 3.56681 13.6846 3.61621C13.7365 3.60663 13.7884 3.59666 13.8398 3.58789C14.7504 3.43266 15.658 3.39247 16.4619 3.55176C17.2119 3.70045 18.0371 4.06295 18.5596 4.83887L18.6602 5C19.1726 5.88774 19.0782 6.85672 18.8154 7.62891C18.5514 8.40461 18.0622 9.16907 17.4727 9.87988C17.4395 9.91982 17.4042 9.95903 17.3701 9.99902C17.4045 10.0393 17.4393 10.0789 17.4727 10.1191C18.0625 10.8302 18.5514 11.5961 18.8154 12.3721C19.0781 13.1442 19.1725 14.1124 18.6602 15C18.1476 15.8877 17.2611 16.2907 16.4609 16.4492C15.657 16.6084 14.7503 16.5664 13.8398 16.4111C13.7883 16.4023 13.7367 16.3915 13.6846 16.3818C13.6668 16.4318 13.651 16.4821 13.6328 16.5312C13.312 17.3976 12.8935 18.2037 12.3535 18.8203C11.8162 19.4339 11.0249 19.9999 10 20C8.97486 20 8.18291 19.434 7.64551 18.8203C7.10557 18.2037 6.68803 17.3975 6.36719 16.5312C6.34896 16.482 6.33224 16.4319 6.31445 16.3818C6.26264 16.3914 6.21143 16.4024 6.16016 16.4111C5.24951 16.5664 4.34209 16.6085 3.53809 16.4492C2.73803 16.2907 1.85242 15.8875 1.33984 15C0.827506 14.1124 0.921894 13.1442 1.18457 12.3721C1.44862 11.5961 1.93752 10.8302 2.52734 10.1191C2.56061 10.079 2.59466 10.0392 2.62891 9.99902C2.59489 9.95912 2.5604 9.91973 2.52734 9.87988C1.93764 9.16896 1.44764 8.40474 1.18359 7.62891C0.92081 6.85667 0.827324 5.88779 1.33984 5L1.44043 4.83887C1.96301 4.06294 2.7881 3.70039 3.53809 3.55176C4.34212 3.39245 5.24947 3.4326 6.16016 3.58789C6.21137 3.59663 6.2627 3.60666 6.31445 3.61621C6.33204 3.5667 6.34917 3.51739 6.36719 3.46875C6.68803 2.60248 7.10557 1.79633 7.64551 1.17969C8.18291 0.565976 8.97486 1.28114e-05 10 0L10.1895 0.00683594ZM9.99902 15.2031C9.24002 15.536 8.49438 15.8121 7.7793 16.0254C8.3129 17.4591 9.03572 18.3796 9.83789 18.4893L10 18.5C10.8663 18.4998 11.6497 17.5544 12.2188 16.0254C11.5037 15.812 10.758 15.5361 9.99902 15.2031ZM3.6709 11.0898C2.63127 12.3472 2.20569 13.4996 2.63867 14.25L2.72852 14.3848C3.22444 15.0245 4.38266 15.1891 5.89062 14.9346C5.71791 14.2088 5.58333 13.4251 5.49219 12.6016C4.82447 12.1107 4.2131 11.6024 3.6709 11.0898ZM16.3281 11.0898C15.7857 11.6026 15.1738 12.1106 14.5059 12.6016C14.4149 13.4252 14.28 14.2087 14.1074 14.9346C15.616 15.1894 16.7744 15.0246 17.2705 14.3848L17.3613 14.25C17.7943 13.4996 17.3679 12.3473 16.3281 11.0898ZM7.16895 13.7236C7.22298 14.0226 7.28246 14.3118 7.34863 14.5898C7.62244 14.5082 7.90262 14.4151 8.18848 14.3125C8.01758 14.2192 7.84638 14.1239 7.67578 14.0254C7.50454 13.9265 7.33583 13.8254 7.16895 13.7236ZM12.8291 13.7236C12.6627 13.8251 12.495 13.9268 12.3242 14.0254C12.1532 14.1241 11.9809 14.219 11.8096 14.3125C12.095 14.415 12.375 14.5073 12.6484 14.5889C12.7145 14.3111 12.7751 14.0223 12.8291 13.7236ZM10 6.44434C9.48083 6.69191 8.95387 6.96952 8.42578 7.27441C7.89804 7.57912 7.39461 7.89607 6.9209 8.22168C6.87567 8.79519 6.85156 9.39008 6.85156 10C6.85156 10.6099 6.87666 11.2048 6.92188 11.7783C7.39547 12.1039 7.89817 12.4219 8.42578 12.7266C8.95318 13.0311 9.4805 13.3054 9.99902 13.5527C10.518 13.3053 11.0464 13.0313 11.5742 12.7266C12.102 12.4218 12.6044 12.103 13.0781 11.7773C13.1233 11.2041 13.1475 10.6096 13.1475 10C13.1475 9.39042 13.1233 8.79587 13.0781 8.22266C12.6043 7.89696 12.1011 7.57918 11.5732 7.27441C11.0453 6.96961 10.519 6.69184 10 6.44434ZM10 8.74023C10.6954 8.74036 11.2588 9.30461 11.2588 10C11.2588 10.6954 10.6954 11.2587 10 11.2588C9.30454 11.2588 8.74026 10.6955 8.74023 10C8.74023 9.30453 9.30453 8.74023 10 8.74023ZM5.3584 9.41016C5.12696 9.60606 4.9085 9.80404 4.70117 10C4.90835 10.1958 5.12715 10.3931 5.3584 10.5889C5.35375 10.3938 5.35156 10.1974 5.35156 10C5.35156 9.80225 5.35374 9.60556 5.3584 9.41016ZM14.6396 9.41113C14.6443 9.60623 14.6475 9.80257 14.6475 10C14.6475 10.1974 14.6443 10.3938 14.6396 10.5889C14.8711 10.3929 15.0905 10.196 15.2979 10C15.0905 9.80402 14.8711 9.60706 14.6396 9.41113ZM5.89062 5.06445C4.2823 4.79298 3.07195 4.99996 2.63867 5.75C2.20569 6.50025 2.63169 7.65188 3.6709 8.90918C4.2132 8.39675 4.82439 7.88812 5.49219 7.39746C5.58336 6.57388 5.71787 5.79024 5.89062 5.06445ZM17.3613 5.75C16.9279 4.99973 15.7165 4.7926 14.1074 5.06445C14.2801 5.79032 14.4148 6.57379 14.5059 7.39746C15.1739 7.88826 15.7856 8.39659 16.3281 8.90918C17.3674 7.65188 17.7942 6.50031 17.3613 5.75ZM7.35059 5.41113C7.28445 5.68898 7.22296 5.97763 7.16895 6.27637C7.33583 6.17465 7.50454 6.07347 7.67578 5.97461C7.84676 5.87589 8.01818 5.78006 8.18945 5.68652C7.90413 5.58407 7.62391 5.4927 7.35059 5.41113ZM12.6484 5.41113C12.3751 5.49271 12.0949 5.58406 11.8096 5.68652C11.9809 5.78005 12.1523 5.8759 12.3232 5.97461C12.494 6.07317 12.6627 6.17399 12.8291 6.27539C12.7752 5.97704 12.7145 5.68864 12.6484 5.41113ZM10 1.5C9.13366 1.50003 8.34859 2.44475 7.7793 3.97363C8.49431 4.18705 9.2401 4.46287 9.99902 4.7959C10.7579 4.46284 11.5038 4.18712 12.2188 3.97363C11.6497 2.44517 10.8662 1.50021 10 1.5Z"
    fill="currentColor"
  />
</svg>
