<svg width="12" height="12" viewBox="0 0 12 12" fill="none" xmlns="http://www.w3.org/2000/svg" data-fui-icon="true">
  <g clip-path="url(#clip0_882_279)">
    <path
      d="M9.0918 0.128967C9.68525 0.0897346 10.4374 0.192838 11.0459 0.722717L11.165 0.834045C11.7923 1.4613 11.913 2.27526 11.8711 2.90826C11.8289 3.54508 11.6178 4.19586 11.3408 4.79889C11.1612 5.18981 10.9356 5.59191 10.6758 6.00006C10.9357 6.40832 11.1612 6.81023 11.3408 7.20123C11.6179 7.80424 11.8278 8.45407 11.8701 9.09088C11.9121 9.72382 11.7931 10.5377 11.166 11.1651C10.5386 11.7925 9.72391 11.9121 9.09082 11.8702C8.45403 11.8279 7.80416 11.6179 7.20117 11.3409C6.81017 11.1612 6.40825 10.9357 6 10.6758C5.59174 10.9357 5.18983 11.1612 4.79883 11.3409C4.19584 11.6179 3.54597 11.8279 2.90918 11.8702C2.27609 11.9121 1.46143 11.7925 0.833984 11.1651C0.206937 10.5377 0.0879222 9.72382 0.129883 9.09088C0.172157 8.45406 0.382142 7.80424 0.65918 7.20123C0.838773 6.81037 1.06346 6.40817 1.32324 6.00006C1.06355 5.59206 0.838761 5.18967 0.65918 4.79889C0.382164 4.19586 0.171124 3.54508 0.128906 2.90826C0.0870475 2.27526 0.207707 1.4613 0.834961 0.834045L0.954102 0.722717C1.56261 0.192839 2.31475 0.0897336 2.9082 0.128967C3.54502 0.171186 4.1958 0.382219 4.79883 0.659241C5.18962 0.838823 5.592 1.06361 6 1.3233C6.408 1.06361 6.81038 0.838822 7.20117 0.659241C7.8042 0.38222 8.45498 0.171185 9.0918 0.128967ZM2.28125 7.32037C1.59497 8.56278 1.40727 9.61652 1.89453 10.1046L1.97852 10.1778C2.49692 10.5711 3.50459 10.3685 4.68066 9.71881C4.25393 9.37099 3.82912 8.99128 3.41895 8.58112C3.00903 8.17119 2.62886 7.74682 2.28125 7.32037ZM9.71777 7.32037C9.37027 7.74666 8.99082 8.17134 8.58105 8.58112C8.17069 8.99147 7.74529 9.37086 7.31836 9.71881C8.49475 10.3689 9.50297 10.5712 10.0215 10.1778L10.1055 10.1046C10.5928 9.61646 10.4042 8.56296 9.71777 7.32037ZM6 3.15143C5.49557 3.53426 4.98118 3.97888 4.48047 4.47955C3.97938 4.98064 3.5335 5.49522 3.15039 6.00006C3.53327 6.50467 3.97866 7.01872 4.47949 7.51959C4.98028 8.02038 5.49546 8.46478 6 8.84772C6.50454 8.46478 7.01972 8.02038 7.52051 7.51959C8.02118 7.01888 8.46583 6.50452 8.84863 6.00006C8.46561 5.49537 8.02047 4.98049 7.51953 4.47955C7.01882 3.97888 6.50443 3.53426 6 3.15143ZM6 5.00006C6.55228 5.00006 7 5.44778 7 6.00006C6.99996 6.55231 6.55226 7.00006 6 7.00006C5.44774 7.00006 5.00004 6.55231 5 6.00006C5 5.44778 5.44772 5.00006 6 5.00006ZM4.67871 2.28131C3.43673 1.59546 2.38346 1.40742 1.89551 1.89459C1.4077 2.3824 1.59608 3.4361 2.28223 4.67877C2.62969 4.25261 3.00931 3.82866 3.41895 3.41901C3.82869 3.00927 4.25247 2.62879 4.67871 2.28131ZM10.1045 1.89459C9.61645 1.40732 8.56262 1.59513 7.32031 2.28131C7.74675 2.62892 8.17112 3.00909 8.58105 3.41901C8.99054 3.8285 9.36944 4.25277 9.7168 4.67877C10.4031 3.43592 10.5924 2.38245 10.1045 1.89459Z"
      fill="currentColor"
    />
  </g>
  <defs>
    <clipPath id="clip0_882_279"><path fill="currentColor" d="M0 0H12V12H0z" /></clipPath>
  </defs>
</svg>
