<svg
  width="20"
  height="20"
  viewBox="0 0 20 20"
  fill="none"
  xmlns="http://www.w3.org/2000/svg"
  data-fui-icon="true"
>
  <g clip-path="url(#clip0_882_268)">
    <path
      fill-rule="evenodd"
      clip-rule="evenodd"
      d="M9.99993 20C11.0251 20 11.8164 19.4339 12.3538 18.8202C12.8938 18.2035 13.3118 17.3977 13.6326 16.5314C13.6506 16.4828 13.6684 16.4338 13.6859 16.3844C13.7375 16.3939 13.7889 16.403 13.84 16.4117C14.7506 16.567 15.6575 16.608 16.4615 16.4487C17.2617 16.2901 18.1476 15.8878 18.6602 15C19.1728 14.1122 19.0782 13.1439 18.8154 12.3716C18.5514 11.5956 18.0625 10.8307 17.4727 10.1197C17.4396 10.0798 17.406 10.04 17.372 10C17.406 9.96011 17.4396 9.92021 17.4727 9.88035C18.0625 9.16931 18.5514 8.40443 18.8155 7.62846C19.0782 6.8562 19.1728 5.88784 18.6602 5.00003C18.1477 4.11221 17.2618 3.70993 16.4616 3.55139C15.6575 3.39208 14.7507 3.43304 13.84 3.58832C13.7889 3.59703 13.7376 3.60615 13.686 3.61566C13.6684 3.56622 13.6506 3.5172 13.6326 3.46862C13.3118 2.6023 12.8938 1.79646 12.3538 1.1798C11.8164 0.566079 11.0251 0 9.99993 0C8.97477 0 8.18343 0.566079 7.64603 1.1798C7.10605 1.79646 6.68809 2.6023 6.36723 3.46862C6.34924 3.51719 6.33146 3.56621 6.3139 3.61565C6.26233 3.60614 6.21101 3.59703 6.15997 3.58832C5.24929 3.43304 4.34242 3.39208 3.53839 3.55139C2.73819 3.70993 1.85229 4.11221 1.33971 5.00003C0.827127 5.88784 0.921698 6.8562 1.18449 7.62846C1.44854 8.40443 1.93745 9.16931 2.52727 9.88035C2.56034 9.92021 2.5939 9.96011 2.62794 10C2.59391 10.04 2.56036 10.0798 2.52729 10.1197C1.93747 10.8307 1.44857 11.5956 1.18452 12.3716C0.921722 13.1439 0.827152 14.1122 1.33973 15C1.85231 15.8878 2.73822 16.2901 3.53842 16.4487C4.34245 16.608 5.24931 16.567 6.16 16.4117C6.21104 16.403 6.26235 16.3939 6.31392 16.3844C6.33148 16.4338 6.34925 16.4828 6.36723 16.5314C6.68809 17.3977 7.10605 18.2035 7.64603 18.8202C8.18343 19.4339 8.97477 20 9.99993 20ZM17.3612 5.75003C17.7943 6.50017 17.3686 7.65181 16.3295 8.90896C15.7873 8.39638 15.1754 7.88831 14.5076 7.39749C14.4165 6.57378 14.2824 5.78991 14.1096 5.06401C15.7179 4.79276 16.9281 4.99988 17.3612 5.75003ZM9.99997 4.79501C10.7589 4.46209 11.5048 4.18627 12.2198 3.97294C11.6506 2.44453 10.8661 1.5 9.99993 1.5C9.13374 1.5 8.34925 2.44452 7.78005 3.97291C8.49509 4.18625 9.24101 4.46208 9.99997 4.79501ZM7.34981 5.40988C7.62343 5.49149 7.90372 5.58369 8.18937 5.68624C8.0181 5.77976 7.84688 5.8759 7.67591 5.97461C7.50492 6.07334 7.33601 6.17356 7.16936 6.27514C7.22338 5.97649 7.28368 5.68765 7.34981 5.40988ZM5.89024 5.064C5.71748 5.78992 5.5834 6.57382 5.49224 7.39756C4.82447 7.88836 4.21267 8.3964 3.67041 8.90896C2.63139 7.65181 2.20565 6.50017 2.63875 5.75003C3.07184 4.99989 4.28204 4.79276 5.89024 5.064ZM5.35877 9.41121C5.12717 9.60729 4.90721 9.80391 4.69975 10C4.90721 10.1962 5.12717 10.3928 5.35877 10.5889C5.35413 10.3938 5.35178 10.1974 5.35178 10C5.35178 9.8026 5.35413 9.60627 5.35877 9.41121ZM2.63877 14.25C2.20568 13.4999 2.6314 12.3483 3.67041 11.0911C4.21267 11.6037 4.82448 12.1117 5.49225 12.6025C5.58341 13.4262 5.71749 14.2101 5.89025 14.9361C4.28205 15.2073 3.07186 15.0002 2.63877 14.25ZM9.99993 18.5C9.13375 18.5 8.34927 17.5555 7.78007 16.0271C8.4951 15.8138 9.24102 15.538 9.99997 15.2051C10.7589 15.538 11.5048 15.8138 12.2198 16.0271C11.6506 17.5555 10.8661 18.5 9.99993 18.5ZM7.34983 14.5902C7.62344 14.5086 7.90372 14.4164 8.18936 14.3138C8.01809 14.2203 7.84686 14.1242 7.67589 14.0254C7.5049 13.9267 7.33602 13.8265 7.16938 13.7249C7.22339 14.0236 7.28369 14.3124 7.34983 14.5902ZM12.65 14.5901C12.3765 14.5085 12.0962 14.4164 11.8106 14.3138C11.9819 14.2203 12.1531 14.1242 12.3241 14.0254C12.495 13.9267 12.6639 13.8265 12.8305 13.725C12.7765 14.0236 12.7162 14.3124 12.65 14.5901ZM11.5741 12.7264C12.1021 12.4216 12.6052 12.1036 13.0791 11.7778C13.1243 11.2045 13.1481 10.6097 13.1481 10C13.1481 9.39029 13.1243 8.79557 13.0791 8.22224C12.6052 7.89644 12.1021 7.5785 11.574 7.27365C11.046 6.96879 10.5191 6.69203 9.99997 6.44449C9.48086 6.69203 8.95393 6.96879 8.42591 7.27365C7.89786 7.57852 7.39469 7.89648 6.92074 8.2223C6.87556 8.79561 6.85178 9.39031 6.85178 10C6.85178 10.6097 6.87556 11.2044 6.92074 11.7778C7.39468 12.1036 7.89785 12.4215 8.42589 12.7264C8.95392 13.0313 9.48085 13.308 9.99997 13.5556C10.5191 13.308 11.046 13.0313 11.5741 12.7264ZM14.6481 10C14.6481 10.1974 14.6457 10.3938 14.6411 10.5889C14.8727 10.3928 15.0927 10.1962 15.3002 10C15.0927 9.80388 14.8727 9.60724 14.6411 9.41114C14.6457 9.60622 14.6481 9.80258 14.6481 10ZM16.3295 11.0911C15.7873 11.6037 15.1754 12.1118 14.5076 12.6026C14.4164 13.4263 14.2824 14.2102 14.1096 14.936C15.7179 15.2073 16.9281 15.0002 17.3612 14.25C17.7943 13.4999 17.3685 12.3483 16.3295 11.0911ZM12.8305 6.27508C12.7765 5.97646 12.7162 5.68765 12.6501 5.40991C12.3765 5.49151 12.0962 5.5837 11.8106 5.68624C11.9818 5.77976 12.1531 5.8759 12.324 5.97461C12.495 6.07332 12.6639 6.17352 12.8305 6.27508ZM9.99996 11.2592C10.6954 11.2592 11.2592 10.6954 11.2592 9.99996C11.2592 9.30449 10.6954 8.7407 9.99996 8.7407C9.30449 8.7407 8.7407 9.30449 8.7407 9.99996C8.7407 10.6954 9.30449 11.2592 9.99996 11.2592Z"
      fill="currentColor"
    />
  </g>
  <defs>
    <clipPath id="clip0_882_268">
      <path fill="currentColor" d="M0 0H20V20H0z" />
    </clipPath>
  </defs>
</svg>
