<svg
  width="24"
  height="24"
  viewBox="0 0 24 24"
  fill="none"
  xmlns="http://www.w3.org/2000/svg"
  data-fui-icon="true"
>
  <path
    d="M11.9999 22.75C12.8066 22.75 13.4824 22.3061 14.0058 21.7082C14.5306 21.1089 14.969 20.285 15.3222 19.3316C16.0306 17.4189 16.4536 14.8267 16.4536 12C16.4536 9.17334 16.0306 6.5811 15.3222 4.66845C14.969 3.71501 14.5306 2.89106 14.0058 2.29176C13.4824 1.69394 12.8066 1.25 11.9999 1.25C11.1933 1.25 10.5175 1.69394 9.99404 2.29176C9.46927 2.89106 9.03084 3.71501 8.67771 4.66845C7.96932 6.5811 7.54623 9.17334 7.54623 12C7.54623 14.8267 7.96932 17.4189 8.67771 19.3316C9.03084 20.285 9.46927 21.1089 9.99404 21.7082C10.5175 22.3061 11.1933 22.75 11.9999 22.75Z"
    stroke="currentColor"
    stroke-width="1.5"
    stroke-linecap="round"
  />
  <path
    d="M21.3098 17.375C21.7131 16.6765 21.6665 15.8692 21.4105 15.117C21.1539 14.3629 20.6596 13.5712 20.0104 12.7887C18.7082 11.2188 16.6748 9.55632 14.2268 8.143C11.7789 6.72967 9.3224 5.79995 7.31179 5.45711C6.30953 5.28621 5.37675 5.25392 4.59536 5.40874C3.81588 5.56318 3.09353 5.92646 2.69022 6.62502C2.28691 7.32357 2.33347 8.13079 2.58946 8.88306C2.84608 9.63717 3.34043 10.4288 3.98957 11.2114C5.29178 12.7812 7.32518 14.4437 9.77314 15.857C12.2211 17.2704 14.6776 18.2001 16.6882 18.5429C17.6904 18.7138 18.6232 18.7461 19.4046 18.5913C20.1841 18.4369 20.9065 18.0736 21.3098 17.375Z"
    stroke="currentColor"
    stroke-width="1.5"
    stroke-linecap="round"
  />
  <path
    d="M2.6902 17.375C2.28689 16.6765 2.33346 15.8692 2.58945 15.117C2.84607 14.3629 3.34042 13.5712 3.98955 12.7887C5.29177 11.2188 7.32517 9.55632 9.77313 8.143C12.2211 6.72967 14.6776 5.79995 16.6882 5.45711C17.6904 5.28621 18.6232 5.25392 19.4046 5.40874C20.1841 5.56318 20.9064 5.92646 21.3098 6.62502C21.7131 7.32357 21.6665 8.13079 21.4105 8.88306C21.1539 9.63717 20.6595 10.4288 20.0104 11.2114C18.7082 12.7812 16.6748 14.4437 14.2268 15.857C11.7789 17.2704 9.32239 18.2001 7.31178 18.5429C6.30952 18.7138 5.37674 18.7461 4.59535 18.5913C3.81587 18.4369 3.09352 18.0736 2.6902 17.375Z"
    stroke="currentColor"
    stroke-width="1.5"
    stroke-linecap="round"
  />
  <ellipse cx="12" cy="12" rx="1.481" ry="1.481" fill="currentColor" />
</svg>
