<svg width="20" height="20" viewBox="0 0 20 20" fill="none" xmlns="http://www.w3.org/2000/svg" data-fui-icon="true">
  <path
    d="M10 0C15.5228 0 20 4.47715 20 10C20 15.5228 15.5228 20 10 20C4.47715 20 0 15.5228 0 10C1.61069e-08 4.47715 4.47715 1.61064e-08 10 0ZM4.54395 16.5156C6.02046 17.7533 7.92261 18.5 10 18.5C14.6944 18.5 18.5 14.6944 18.5 10C18.5 7.92261 17.7533 6.02046 16.5156 4.54395L4.54395 16.5156ZM10 1.5C5.30558 1.5 1.5 5.30558 1.5 10C1.5 12.0769 2.24621 13.9787 3.4834 15.4551L15.4551 3.4834C13.9787 2.24621 12.0769 1.5 10 1.5Z"
    fill="currentColor"
  />
</svg>
