<svg width="20" height="20" viewBox="0 0 20 20" fill="none" xmlns="http://www.w3.org/2000/svg" data-fui-icon="true">
  <path
    d="M10 1C14.9706 1 19 5.02944 19 10C19 14.9706 14.9706 19 10 19C5.02944 19 1 14.9706 1 10C1 5.02944 5.02944 1 10 1ZM5.25391 15.8057C6.54688 16.8639 8.19882 17.5 10 17.5C14.1421 17.5 17.5 14.1421 17.5 10C17.5 8.19882 16.8639 6.54688 15.8057 5.25391L5.25391 15.8057ZM10 2.5C5.85786 2.5 2.5 5.85786 2.5 10C2.5 11.8007 3.13563 13.4523 4.19336 14.7451L14.7451 4.19336C13.4523 3.13563 11.8007 2.5 10 2.5Z"
    fill="currentColor"
  />
</svg>
