<svg width="32" height="32" viewBox="0 0 32 32" fill="none" xmlns="http://www.w3.org/2000/svg" data-fui-icon="true">
  <path
    d="M16 1C24.2843 1 31 7.71573 31 16C31 24.2843 24.2843 31 16 31C7.71573 31 1 24.2843 1 16C1 7.71573 7.71573 1 16 1ZM6.99902 26.0605C9.38761 28.199 12.5417 29.5 16 29.5C23.4558 29.5 29.5 23.4558 29.5 16C29.5 12.5417 28.199 9.38761 26.0605 6.99902L6.99902 26.0605ZM16 2.5C8.54416 2.5 2.5 8.54416 2.5 16C2.5 19.4578 3.80054 22.6115 5.93848 25L25 5.93848C22.6115 3.80054 19.4578 2.5 16 2.5Z"
    fill="currentColor"
  />
</svg>
