<svg width="16" height="16" viewBox="0 0 16 16" fill="none" xmlns="http://www.w3.org/2000/svg" data-fui-icon="true">
  <path
    d="M8 0C12.4183 0 16 3.58172 16 8C16 12.4183 12.4183 16 8 16C3.58172 16 0 12.4183 0 8C0 3.58172 3.58172 0 8 0ZM3.96582 13.0938C5.07446 13.973 6.47514 14.5 8 14.5C11.5899 14.5 14.5 11.5899 14.5 8C14.5 6.47514 13.973 5.07446 13.0938 3.96582L3.96582 13.0938ZM8 1.5C4.41015 1.5 1.5 4.41015 1.5 8C1.5 9.52437 2.02657 10.9247 2.90527 12.0332L12.0332 2.9043C10.9248 2.02582 9.52415 1.5 8 1.5Z"
    fill="currentColor"
  />
</svg>
