<svg width="24" height="24" viewBox="0 0 24 24" fill="none" xmlns="http://www.w3.org/2000/svg" data-fui-icon="true">
  <path
    d="M12 1C18.0751 1 23 5.92487 23 12C23 18.0751 18.0751 23 12 23C5.92487 23 1 18.0751 1 12C1 5.92487 5.92487 1 12 1ZM5.83496 19.2246C7.49448 20.6421 9.64642 21.5 12 21.5C17.2467 21.5 21.5 17.2467 21.5 12C21.5 9.64642 20.6421 7.49448 19.2246 5.83496L5.83496 19.2246ZM12 2.5C6.75329 2.5 2.5 6.75329 2.5 12C2.5 14.3531 3.35746 16.5047 4.77441 18.1641L18.1641 4.77441C16.5047 3.35746 14.3531 2.5 12 2.5Z"
    fill="currentColor"
  />
</svg>
