<svg width="32" height="32" viewBox="0 0 32 32" fill="none" xmlns="http://www.w3.org/2000/svg" data-fui-icon="true">
  <path
    d="M16 0.5C24.5604 0.5 31.5 7.43959 31.5 16C31.5 24.5604 24.5604 31.5 16 31.5C7.43959 31.5 0.5 24.5604 0.5 16C0.5 7.43959 7.43959 0.5 16 0.5ZM7.18652 26.2266C9.55146 28.2666 12.6317 29.5 16 29.5C23.4558 29.5 29.5 23.4558 29.5 16C29.5 12.6317 28.2666 9.55146 26.2266 7.18652L7.18652 26.2266ZM16 2.5C8.54416 2.5 2.5 8.54416 2.5 16C2.5 19.3678 3.73301 22.4477 5.77246 24.8125L24.8125 5.77246C22.4477 3.73301 19.3678 2.5 16 2.5Z"
    fill="currentColor"
  />
</svg>
