<svg width="12" height="12" viewBox="0 0 12 12" fill="none" xmlns="http://www.w3.org/2000/svg" data-fui-icon="true">
  <path
    d="M6 0C7.65685 0 9.15738 0.671049 10.2432 1.75684C10.2528 1.76651 10.2615 1.77705 10.2705 1.78711C11.3394 2.87053 12 4.3578 12 6C12 9.31371 9.31371 12 6 12C2.68629 12 0 9.31371 0 6C0 2.68629 2.68629 0 6 0ZM3.39258 9.66699C4.12829 10.1911 5.0279 10.5 6 10.5C8.48528 10.5 10.5 8.48528 10.5 6C10.5 5.0279 10.1911 4.12829 9.66699 3.39258L3.39258 9.66699ZM6 1.5C3.51472 1.5 1.5 3.51472 1.5 6C1.5 6.97161 1.80844 7.87094 2.33203 8.60645L8.60547 2.33203C7.87008 1.80872 6.97133 1.5 6 1.5Z"
    fill="currentColor"
  />
</svg>
