<svg width="32" height="32" viewBox="0 0 32 32" fill="none" xmlns="http://www.w3.org/2000/svg" data-fui-icon="true">
  <path
    d="M27.4502 26.0002C29.4107 26.0003 30.9999 27.5896 31 29.55C30.9999 30.3508 30.3506 31.0002 29.5498 31.0002H2.4502C1.64945 31.0002 1.00011 30.3508 1 29.55C1.00011 27.5896 2.58935 26.0003 4.5498 26.0002H27.4502ZM7 13.5002C7.55228 13.5002 8 13.948 8 14.5002V23.5002C7.9999 24.0524 7.55222 24.5002 7 24.5002H4C3.44778 24.5002 3.0001 24.0524 3 23.5002V14.5002C3 13.948 3.44772 13.5002 4 13.5002H7ZM17.5 13.5002C18.0523 13.5002 18.5 13.948 18.5 14.5002V23.5002C18.4999 24.0524 18.0522 24.5002 17.5 24.5002H14.5C13.9478 24.5002 13.5001 24.0524 13.5 23.5002V14.5002C13.5 13.948 13.9477 13.5002 14.5 13.5002H17.5ZM28 13.5002C28.5523 13.5002 29 13.948 29 14.5002V23.5002C28.9999 24.0524 28.5522 24.5002 28 24.5002H25C24.4478 24.5002 24.0001 24.0524 24 23.5002V14.5002C24 13.948 24.4477 13.5002 25 13.5002H28ZM14.4834 1.37524C15.4323 0.874658 16.5677 0.874667 17.5166 1.37524L29.9336 7.927C30.5893 8.27312 30.9998 8.9541 31 9.69556V10.7493C31 11.4396 30.4404 11.9993 29.75 11.9993H2.25C1.55964 11.9993 1 11.4396 1 10.7493V9.69556C1.00024 8.9541 1.41067 8.27312 2.06641 7.927L14.4834 1.37524Z"
    fill="currentColor"
  />
</svg>
