<svg width="24" height="24" viewBox="0 0 24 24" fill="none" xmlns="http://www.w3.org/2000/svg" data-fui-icon="true">
  <path
    d="M19.7502 2.50087C22.0968 2.5014 24 4.40391 24 6.7507V17.2503C23.9995 19.5966 22.0965 21.4996 19.7502 21.5001H4.2508C1.90401 21.5001 0.00150433 19.5969 0.000976523 17.2503V6.7507C0.000976523 4.40359 1.90369 2.50087 4.2508 2.50087H19.7502ZM17.2493 16.4993C16.8351 16.4993 16.4993 16.8351 16.4993 17.2493C16.4993 17.6635 16.8351 17.9993 17.2493 17.9993H19.7492C20.1634 17.9993 20.4992 17.6635 20.4992 17.2493C20.4992 16.8351 20.1634 16.4993 19.7492 16.4993H17.2493ZM11.9995 8.24966C9.92853 8.24966 8.24966 9.92853 8.24966 11.9995C8.24966 14.0705 9.92853 15.7494 11.9995 15.7494C14.0705 15.7494 15.7494 14.0705 15.7494 11.9995C15.7494 9.92853 14.0705 8.24966 11.9995 8.24966ZM4.24983 5.99976C3.83563 5.99976 3.49986 6.33553 3.49986 6.74973C3.49986 7.16392 3.83563 7.49969 4.24983 7.49969H6.74973C7.16392 7.49969 7.49969 7.16392 7.49969 6.74973C7.49969 6.33553 7.16392 5.99976 6.74973 5.99976H4.24983Z"
    fill="currentColor"
  />
</svg>
