<svg width="32" height="32" viewBox="0 0 32 32" fill="none" xmlns="http://www.w3.org/2000/svg" data-fui-icon="true">
  <path
    fill-rule="evenodd"
    clip-rule="evenodd"
    d="M13.4648 1.61341C15.057 0.799925 16.943 0.799923 18.5352 1.61341L29.4238 7.17787C30.3912 7.67239 30.9999 8.66759 31 9.75404V11.5372C30.9998 12.3456 30.3445 13.0018 29.5361 13.0021H28.001V24.9259C29.4788 25.6316 30.5 27.1401 30.5 28.8868C30.4997 30.0538 29.5537 30.9999 28.3867 31.0001H3.61328C2.44632 30.9999 1.50032 30.0538 1.5 28.8868C1.5 27.1401 2.5212 25.6316 3.99902 24.9259V13.0021H2.46387C1.65551 13.0018 1.00023 12.3456 1 11.5372V9.75404C1.00006 8.6676 1.60883 7.67239 2.57617 7.17787L13.4648 1.61341ZM5.88672 26.0001C4.29262 26.0001 3 27.2928 3 28.8868C3.00032 29.2254 3.27474 29.4999 3.61328 29.5001H28.3867C28.7253 29.4999 28.9997 29.2254 29 28.8868C29 27.2928 27.7074 26.0001 26.1133 26.0001H5.88672ZM5.5 13.0021V24.5177C5.62745 24.5066 5.75638 24.5001 5.88672 24.5001H11.5V13.0021H5.5ZM20.501 13.0021V24.5001H26.1133C26.244 24.5001 26.3732 24.5065 26.501 24.5177V13.0021H20.501ZM13 13.0021V24.5001H19.001V13.0021H13ZM17.8525 2.94935C16.689 2.35489 15.311 2.35489 14.1475 2.94935L3.25879 8.5138C2.79319 8.75196 2.50006 9.23104 2.5 9.75404V11.5021H29.5V9.75404C29.4999 9.23103 29.2068 8.75195 28.7412 8.5138L17.8525 2.94935Z"
    fill="currentColor"
  />
</svg>
