<svg width="24" height="24" viewBox="0 0 24 24" fill="none" xmlns="http://www.w3.org/2000/svg" data-fui-icon="true">
  <path
    fill-rule="evenodd"
    clip-rule="evenodd"
    d="M10.083 1.45006C11.2897 0.846644 12.7103 0.846642 13.917 1.45006L21.7168 5.35143C22.5031 5.74474 23 6.54939 23 7.42858V8.72643C23 9.42981 22.4299 10.0006 21.7266 10.0008H21.002V17.8172C22.1007 18.4931 22.8339 19.7062 22.834 21.0907C22.834 22.1449 21.9789 22.9996 20.9248 22.9999H3.07617C2.02181 22.9999 1.16699 22.145 1.16699 21.0907C1.16706 19.7055 1.90035 18.4919 3 17.8163V10.0008H2.27344C1.5701 10.0006 1 9.42982 1 8.72643V7.42858C1.00001 6.54939 1.4969 5.74474 2.2832 5.35143L10.083 1.45006ZM5.00781 18.7499C3.71507 18.7499 2.66709 19.798 2.66699 21.0907C2.66699 21.3166 2.85024 21.4999 3.07617 21.4999H20.9248C21.1505 21.4996 21.334 21.3164 21.334 21.0907C21.3339 19.7982 20.2856 18.7503 18.9932 18.7499H5.00781ZM15.501 10.0008V17.2499H18.9932C19.1657 17.2499 19.3355 17.262 19.502 17.284V10.0008H15.501ZM4.5 10.0008V17.2831C4.66605 17.2611 4.83577 17.2499 5.00781 17.2499H8.50098V10.0008H4.5ZM10.001 10.0008V17.2499H14.001V10.0008H10.001ZM13.2461 2.79186C12.4617 2.39958 11.5383 2.39959 10.7539 2.79186L2.9541 6.69322C2.67585 6.83241 2.50001 7.11746 2.5 7.42858V8.50084H21.5V7.42858C21.5 7.11746 21.3241 6.83241 21.0459 6.69322L13.2461 2.79186Z"
    fill="currentColor"
  />
</svg>
