<svg width="32" height="32" viewBox="0 0 32 32" fill="none" xmlns="http://www.w3.org/2000/svg" data-fui-icon="true">
  <path
    d="M25.75 8C28.6493 8.00013 30.9999 10.3507 31 13.25V24.75C30.9999 27.6493 28.6493 29.9999 25.75 30H6.25C3.3507 29.9999 1.00013 27.6493 1 24.75V13.25C1.00013 10.3507 3.3507 8.00013 6.25 8H25.75ZM22.75 24.5C22.3358 24.5 22 24.8358 22 25.25C22 25.6642 22.3358 26 22.75 26H26.25C26.6642 26 27 25.6642 27 25.25C27 24.8358 26.6642 24.5 26.25 24.5H22.75ZM16 14.25C13.3766 14.25 11.25 16.3766 11.25 19C11.25 21.6234 13.3766 23.75 16 23.75C18.6234 23.75 20.75 21.6234 20.75 19C20.75 16.3766 18.6234 14.25 16 14.25ZM5.75 12C5.33579 12 5 12.3358 5 12.75C5 13.1642 5.33579 13.5 5.75 13.5H9.25C9.66421 13.5 10 13.1642 10 12.75C10 12.3358 9.66421 12 9.25 12H5.75ZM26.25 5C26.6642 5 27 5.33579 27 5.75C27 6.16421 26.6642 6.5 26.25 6.5H5.75C5.33579 6.5 5 6.16421 5 5.75C5 5.33579 5.33579 5 5.75 5H26.25ZM23.25 2C23.6642 2 24 2.33579 24 2.75C24 3.16421 23.6642 3.5 23.25 3.5H8.75C8.33579 3.5 8 3.16421 8 2.75C8 2.33579 8.33579 2 8.75 2H23.25Z"
    fill="currentColor"
  />
</svg>
