<svg width="24" height="24" viewBox="0 0 24 24" fill="none" xmlns="http://www.w3.org/2000/svg" data-fui-icon="true">
  <path
    fill-rule="evenodd"
    clip-rule="evenodd"
    d="M21.7958 20.5C23.0131 20.5003 23.9999 21.4877 23.9999 22.7051C23.9996 23.4203 23.4193 24 22.704 24H1.29589C0.580616 24 0.000306083 23.4203 0 22.7051C0 21.4877 0.986761 20.5003 2.20409 20.5H21.7958ZM5.24998 10.5001C5.66419 10.5001 5.99998 10.8359 5.99998 11.2501V18.25C5.99998 18.6642 5.66419 19 5.24998 19H2.74999C2.33578 19 1.99999 18.6642 1.99999 18.25V11.2501C1.99999 10.8359 2.33578 10.5001 2.74999 10.5001H5.24998ZM13.2499 10.5001C13.6642 10.5001 13.9999 10.8359 13.9999 11.2501V18.25C13.9999 18.6642 13.6642 19 13.2499 19H10.75C10.3357 19 9.99996 18.6642 9.99996 18.25V11.2501C9.99996 10.8359 10.3357 10.5001 10.75 10.5001H13.2499ZM21.2499 10.5001C21.6641 10.5001 21.9999 10.8359 21.9999 11.2501V18.25C21.9999 18.6642 21.6641 19 21.2499 19H18.7499C18.3357 19 17.9999 18.6642 17.9999 18.25V11.2501C17.9999 10.8359 18.3357 10.5001 18.7499 10.5001H21.2499ZM10.6826 0.309675C11.5139 -0.0967187 12.486 -0.0967102 13.3173 0.309675L23.0185 5.05184C23.619 5.34542 23.9998 5.9557 23.9999 6.6241V7.91707C23.9997 8.51511 23.5149 8.9999 22.9169 9.00007H1.083C0.48496 8.9999 0.000184036 8.51511 0 7.91707V6.6241C7.49663e-05 5.9557 0.380951 5.34542 0.981442 5.05184L10.6826 0.309675Z"
    fill="currentColor"
  />
</svg>
