<svg width="32" height="32" viewBox="0 0 32 32" fill="none" xmlns="http://www.w3.org/2000/svg" data-fui-icon="true">
  <path
    fill-rule="evenodd"
    clip-rule="evenodd"
    d="M27.4502 25.9997C29.4106 25.9998 30.9998 27.5891 31 29.5495C31 30.3503 30.3506 30.9997 29.5498 30.9997H2.4502C1.64938 30.9997 1 30.3503 1 29.5495C1.00023 27.5891 2.58943 25.9998 4.5498 25.9997H27.4502ZM7 13.4997C7.5522 13.4997 7.99987 13.9475 8 14.4997V23.4997C8 24.052 7.55228 24.4997 7 24.4997H4C3.44772 24.4997 3 24.052 3 23.4997V14.4997C3.00013 13.9475 3.4478 13.4997 4 13.4997H7ZM17.5 13.4997C18.0522 13.4997 18.4999 13.9475 18.5 14.4997V23.4997C18.5 24.052 18.0523 24.4997 17.5 24.4997H14.5C13.9477 24.4997 13.5 24.052 13.5 23.4997V14.4997C13.5001 13.9475 13.9478 13.4997 14.5 13.4997H17.5ZM28 13.4997C28.5522 13.4997 28.9999 13.9475 29 14.4997V23.4997C29 24.052 28.5523 24.4997 28 24.4997H25C24.4477 24.4997 24 24.052 24 23.4997V14.4997C24.0001 13.9475 24.4478 13.4997 25 13.4997H28ZM14.4834 1.37566C15.4324 0.874937 16.5675 0.874945 17.5166 1.37566L29.9336 7.92742C30.5895 8.27362 30.9999 8.95434 31 9.69598V10.7497C31 11.44 30.4403 11.9997 29.75 11.9997H2.25C1.55966 11.9997 1.00003 11.44 1 10.7497V9.69598C1.00006 8.95434 1.41054 8.27362 2.06641 7.92742L14.4834 1.37566Z"
    fill="currentColor"
  />
</svg>
