<svg width="12" height="13" viewBox="0 0 12 13" fill="none" xmlns="http://www.w3.org/2000/svg" data-fui-icon="true">
  <path
    fill-rule="evenodd"
    clip-rule="evenodd"
    d="M4.70996 0.291418C5.52593 -0.0971385 6.47407 -0.0971405 7.29004 0.291418L11.002 2.05997C11.6113 2.35019 12 2.9651 12 3.64005V3.92521C11.9997 4.49518 11.5591 4.96074 11 5.00333V8.54532C11.6074 9.01508 12 9.74941 12 10.5766C11.9997 11.367 11.3589 12.0081 10.5684 12.0082H1.43164C0.641142 12.0081 0.000310289 11.367 0 10.5766C0 9.74941 0.392632 9.01508 1 8.54532V5.00333C0.440867 4.96074 0.000290134 4.49518 0 3.92521V3.64005C0 2.9651 0.388677 2.35019 0.998047 2.05997L4.70996 0.291418ZM2.56836 9.50821C2.00136 9.50821 1.53912 9.9501 1.50391 10.5082H10.4961C10.4609 9.9501 9.99864 9.50821 9.43164 9.50821H2.56836ZM2.5 5.00822V8.01114C2.52274 8.01055 2.54548 8.00821 2.56836 8.00821H3.5V5.00822H2.5ZM8.5 5.00822V8.00821H9.43164C9.45452 8.00821 9.47726 8.01055 9.5 8.01114V5.00822H8.5ZM5 5.00822V8.00821H7V5.00822H5ZM6.64453 1.64591C6.23673 1.45185 5.76327 1.45184 5.35547 1.64591L1.64258 3.41349C1.59845 3.43452 1.56285 3.46827 1.53809 3.50822H10.4619C10.4371 3.46827 10.4015 3.43452 10.3574 3.41349L6.64453 1.64591Z"
    fill="currentColor"
  />
</svg>
