<svg width="16" height="16" viewBox="0 0 16 16" fill="none" xmlns="http://www.w3.org/2000/svg" data-fui-icon="true">
  <path
    d="M12.75 1.50049C14.5449 1.50049 16 2.95556 16 4.75049V11.2505C15.9998 13.0452 14.5448 14.5005 12.75 14.5005H3.25C1.45521 14.5005 0.000212827 13.0452 0 11.2505V4.75049C4.832e-08 2.95556 1.45507 1.50049 3.25 1.50049H12.75ZM11.5 10.2505C11.0858 10.2505 10.75 10.5863 10.75 11.0005C10.7503 11.4145 11.0859 11.7505 11.5 11.7505H12.5C12.9141 11.7505 13.2497 11.4145 13.25 11.0005C13.25 10.5863 12.9142 10.2505 12.5 10.2505H11.5ZM8 5.50049C6.61929 5.50049 5.5 6.61978 5.5 8.00049C5.50026 9.38098 6.61945 10.5005 8 10.5005C9.38055 10.5005 10.4997 9.38098 10.5 8.00049C10.5 6.61978 9.38071 5.50049 8 5.50049ZM3.5 4.25049C3.08579 4.25049 2.75 4.58627 2.75 5.00049C2.75026 5.41448 3.08595 5.75049 3.5 5.75049H4.5C4.91405 5.75049 5.24974 5.41448 5.25 5.00049C5.25 4.58627 4.91421 4.25049 4.5 4.25049H3.5Z"
    fill="currentColor"
  />
</svg>
