<svg width="16" height="17" viewBox="0 0 16 17" fill="none" xmlns="http://www.w3.org/2000/svg" data-fui-icon="true">
  <path
    fill-rule="evenodd"
    clip-rule="evenodd"
    d="M14.5225 13.5015C15.3383 13.5015 16 14.1631 16 14.979C15.9996 15.5434 15.542 16.0013 14.9775 16.0015H1.02246C0.493246 16.0013 0.057516 15.5989 0.00488281 15.0835L0 14.979L0.0078125 14.8276C0.0834989 14.0828 0.712682 13.5015 1.47754 13.5015H14.5225ZM3.25 7.00147C3.66421 7.00147 4 7.33726 4 7.75147V11.7515C3.99974 12.1655 3.66405 12.5015 3.25 12.5015H1.75C1.33595 12.5015 1.00026 12.1655 1 11.7515V7.75147C1 7.33726 1.33579 7.00147 1.75 7.00147H3.25ZM8.75 7.00147C9.16421 7.00147 9.5 7.33726 9.5 7.75147V11.7515C9.49974 12.1655 9.16405 12.5015 8.75 12.5015H7.25C6.83595 12.5015 6.50026 12.1655 6.5 11.7515V7.75147C6.5 7.33726 6.83579 7.00147 7.25 7.00147H8.75ZM14.25 7.00147C14.6642 7.00147 15 7.33726 15 7.75147V11.7515C14.9997 12.1655 14.6641 12.5015 14.25 12.5015H12.75C12.3359 12.5015 12.0003 12.1655 12 11.7515V7.75147C12 7.33726 12.3358 7.00147 12.75 7.00147H14.25ZM6.69531 0.298345C7.51931 -0.0994475 8.48069 -0.0994492 9.30469 0.298345L15.0107 3.05323C15.6155 3.34525 16 3.95785 16 4.6294V4.91846C15.9996 5.51631 15.5149 6.00129 14.917 6.00147H1.08301C0.485103 6.00129 0.000412007 5.51631 0 4.91846V4.6294C0 3.95785 0.384532 3.34524 0.989258 3.05323L6.69531 0.298345Z"
    fill="currentColor"
  />
</svg>
