<svg width="20" height="20" viewBox="0 0 20 20" fill="none" xmlns="http://www.w3.org/2000/svg" data-fui-icon="true">
  <path
    fill-rule="evenodd"
    clip-rule="evenodd"
    d="M8.39648 1.37093C9.40803 0.875055 10.592 0.875053 11.6035 1.37093L17.8604 4.43831C18.5578 4.78027 18.9999 5.48967 19 6.26644V7.32113C19 7.97205 18.4722 8.49984 17.8213 8.49984H17.501V14.533C18.4032 15.1211 19 16.1386 19 17.2957C18.9997 18.2368 18.2369 18.9996 17.2959 18.9998H2.7041C1.76308 18.9996 1.00026 18.2368 1 17.2957C1.00004 16.1384 1.5974 15.121 2.5 14.533V8.49984H2.17871C1.52779 8.49984 1 7.97205 1 7.32113V6.26644C1.00006 5.48967 1.4422 4.78027 2.13965 4.43831L8.39648 1.37093ZM4.2959 15.4998C3.30436 15.4998 2.50006 16.3042 2.5 17.2957C2.50026 17.4083 2.5915 17.4996 2.7041 17.4998H17.2959C17.4085 17.4996 17.4997 17.4083 17.5 17.2957C17.4999 16.3044 16.6964 15.5001 15.7051 15.4998H4.2959ZM4 8.49984V14.0135C4.09749 14.0048 4.19616 13.9998 4.2959 13.9998H7V8.49984H4ZM13 8.49984V13.9998H15.7051C15.8048 13.9999 15.9035 14.0048 16.001 14.0135V8.49984H13ZM8.5 8.49984V13.9998H11.5V8.49984H8.5ZM10.9434 2.71761C10.3483 2.4259 9.6517 2.4259 9.05664 2.71761L2.7998 5.78499C2.61633 5.875 2.50006 6.06208 2.5 6.26644V6.99984H17.5V6.26644C17.4999 6.06208 17.3837 5.875 17.2002 5.78499L10.9434 2.71761Z"
    fill="currentColor"
  />
</svg>
