<svg width="20" height="20" viewBox="0 0 20 20" fill="none" xmlns="http://www.w3.org/2000/svg" data-fui-icon="true">
  <path
    fill-rule="evenodd"
    clip-rule="evenodd"
    d="M18.159 17C19.1756 17.0001 19.9998 17.8242 19.9998 18.8408C19.9997 19.4809 19.4807 20 18.8406 20H1.15917C0.519088 20 9.99931e-05 19.4809 0 18.8408C4.79935e-05 17.8242 0.824177 17.0001 1.8408 17H18.159ZM4.24996 8.50009C4.66417 8.50009 4.99995 8.83588 4.99995 9.25009V14.75C4.99992 15.1642 4.66415 15.5 4.24996 15.5H1.74998C1.3358 15.5 1.00003 15.1642 0.999991 14.75V9.25009C0.999991 8.83588 1.33577 8.50009 1.74998 8.50009H4.24996ZM11.2499 8.50009C11.6641 8.50009 11.9999 8.83588 11.9999 9.25009V14.75C11.9999 15.1642 11.6641 15.5 11.2499 15.5H8.74992C8.33573 15.5 7.99995 15.1642 7.99993 14.75V9.25009C7.99993 8.83588 8.33571 8.50009 8.74992 8.50009H11.2499ZM18.2498 8.50009C18.664 8.50009 18.9998 8.83588 18.9998 9.25009V14.75C18.9998 15.1642 18.664 15.5 18.2498 15.5H15.7499C15.3357 15.5 14.9999 15.1642 14.9999 14.75V9.25009C14.9999 8.83588 15.3356 8.50009 15.7499 8.50009H18.2498ZM8.68742 0.304855C9.51593 -0.0982002 10.4839 -0.0982008 11.3124 0.304855L19.0155 4.05189C19.6176 4.34488 19.9998 4.95642 19.9998 5.6261V5.91711C19.9996 6.51508 19.5148 6.99993 18.9168 7.00011H1.083C0.485005 6.99993 0.000260838 6.51508 0 5.91711V5.6261C0 4.95642 0.382182 4.34488 0.984366 4.05189L8.68742 0.304855Z"
    fill="currentColor"
  />
</svg>
