<svg width="16" height="16" viewBox="0 0 16 16" fill="none" xmlns="http://www.w3.org/2000/svg" data-fui-icon="true">
  <path
    fill-rule="evenodd"
    clip-rule="evenodd"
    d="M6.71582 1.28896C7.52892 0.903734 8.4721 0.903629 9.28516 1.28896L14 3.52333C14.6106 3.81306 15 4.42949 15 5.10536V5.91688C14.9998 6.48675 14.5589 6.95218 14 6.99501V10.9999C14 11.0409 13.9946 11.0808 13.9883 11.12C14.6053 11.6243 15 12.3909 15 13.2499V13.4989C14.9999 14.3271 14.3282 14.9987 13.5 14.9989H2.50098C1.6726 14.9989 1.00105 14.3273 1.00098 13.4989V13.2499C1.00098 12.3912 1.39414 11.6243 2.01074 11.12C2.0044 11.0808 2.00002 11.0408 2 10.9999V6.99501C1.44109 6.95214 1.00121 6.48672 1.00098 5.91688V5.10536C1.00098 4.42934 1.39016 3.81298 2.00098 3.52333L6.71582 1.28896ZM3.75098 11.9999C3.06062 11.9999 2.50098 12.5595 2.50098 13.2499V13.4989H13.5V13.2499C13.5 12.5597 12.9401 12.0001 12.25 11.9999H3.75098ZM3.5 6.99989V10.5116C3.58253 10.5042 3.6665 10.4999 3.75098 10.4999H5.5V6.99989H3.5ZM10.5 6.99989V10.4999H12.25C12.3343 10.4999 12.4176 10.5042 12.5 10.5116V6.99989H10.5ZM7 6.99989V10.4999H9V6.99989H7ZM8.64258 2.64442C8.23619 2.45189 7.76482 2.45199 7.3584 2.64442L2.64355 4.8788C2.55638 4.92021 2.50098 5.00884 2.50098 5.10536V5.49989H13.5V5.10536C13.5 5.009 13.4444 4.92029 13.3574 4.8788L8.64258 2.64442Z"
    fill="currentColor"
  />
</svg>
