<svg width="32" height="32" viewBox="0 0 32 32" fill="none" xmlns="http://www.w3.org/2000/svg" data-fui-icon="true">
  <path
    d="M28.4316 27.0002C29.85 27.0002 31 28.1502 31 29.5686C30.9998 30.3591 30.3589 31.0001 29.5684 31.0002H2.43164C1.64109 31.0001 1.00023 30.3591 1 29.5686C1 28.1502 2.14999 27.0002 3.56836 27.0002H28.4316ZM9.75 12.5002C10.1642 12.5002 10.5 12.836 10.5 13.2502V24.7502C10.4999 25.1643 10.1641 25.5002 9.75 25.5002H4.75C4.33587 25.5002 4.00013 25.1643 4 24.7502V13.2502C4 12.836 4.33579 12.5002 4.75 12.5002H9.75ZM27.25 12.5002C27.6642 12.5002 28 12.836 28 13.2502V24.7502C27.9999 25.1643 27.6641 25.5002 27.25 25.5002H22.25C21.8359 25.5002 21.5001 25.1643 21.5 24.7502V13.2502C21.5 12.836 21.8358 12.5002 22.25 12.5002H27.25ZM14.4863 1.44946C15.4338 0.950776 16.5662 0.950775 17.5137 1.44946L30.0654 8.05493C30.6402 8.35755 30.9999 8.95418 31 9.60376V9.91724C30.9997 10.5152 30.515 11.0001 29.917 11.0002H2.08301C1.48503 11.0001 1.0003 10.5152 1 9.91724V9.60376C1.00008 8.95418 1.35979 8.35755 1.93457 8.05493L14.4863 1.44946Z"
    fill="currentColor"
  />
</svg>
