<svg width="24" height="24" viewBox="0 0 24 24" fill="none" xmlns="http://www.w3.org/2000/svg" data-fui-icon="true">
  <path
    fill-rule="evenodd"
    clip-rule="evenodd"
    d="M10.6826 0.309676C11.514 -0.096719 12.486 -0.0967107 13.3174 0.309676L23.0186 5.05186C23.619 5.34544 23.9999 5.95572 24 6.62413V8.4171C23.9998 9.01512 23.515 9.49993 22.917 9.50011H22V19.6066C23.1539 19.9333 24 20.9916 24 22.2501V22.5001C24 23.3285 23.3284 24.0001 22.5 24.0001H1.5C0.671573 24.0001 0 23.3285 0 22.5001V22.2501C0 20.9916 0.84614 19.9333 2 19.6066V9.50011H1.08301C0.484978 9.49993 0.000208904 9.01512 0 8.4171V6.62413C7.49668e-05 5.95572 0.380949 5.34544 0.981445 5.05186L10.6826 0.309676ZM2.75 21.0001C2.05964 21.0001 1.5 21.5597 1.5 22.2501V22.5001H22.5V22.2501C22.5 21.5597 21.9404 21.0001 21.25 21.0001H2.75ZM3.5 9.50011V19.5001H7.5V9.50011H3.5ZM9 9.50011V19.5001H15V9.50011H9ZM16.5 9.50011V19.5001H20.5V9.50011H16.5ZM12.6592 1.65733C12.2435 1.4541 11.7565 1.4541 11.3408 1.65733L1.64062 6.39952C1.55489 6.44143 1.50007 6.52871 1.5 6.62413V8.00011H22.5V6.62413C22.4999 6.52871 22.4451 6.44143 22.3594 6.39952L12.6592 1.65733Z"
    fill="currentColor"
  />
</svg>
