<svg width="32" height="32" viewBox="0 0 32 32" fill="none" xmlns="http://www.w3.org/2000/svg" data-fui-icon="true">
  <path
    fill-rule="evenodd"
    clip-rule="evenodd"
    d="M27.4502 26.0001C29.4107 26.0002 30.9999 27.5895 31 29.5499C30.9999 30.3507 30.3506 31.0001 29.5498 31.0001H2.4502C1.64945 31.0001 1.00011 30.3507 1 29.5499C1.00011 27.5895 2.58935 26.0002 4.5498 26.0001H27.4502ZM7 13.5001C7.55228 13.5001 8 13.9478 8 14.5001V23.5001C7.9999 24.0523 7.55222 24.5001 7 24.5001H4C3.44778 24.5001 3.0001 24.0523 3 23.5001V14.5001C3 13.9478 3.44772 13.5001 4 13.5001H7ZM17.5 13.5001C18.0523 13.5001 18.5 13.9478 18.5 14.5001V23.5001C18.4999 24.0523 18.0522 24.5001 17.5 24.5001H14.5C13.9478 24.5001 13.5001 24.0523 13.5 23.5001V14.5001C13.5 13.9478 13.9477 13.5001 14.5 13.5001H17.5ZM28 13.5001C28.5523 13.5001 29 13.9478 29 14.5001V23.5001C28.9999 24.0523 28.5522 24.5001 28 24.5001H25C24.4478 24.5001 24.0001 24.0523 24 23.5001V14.5001C24 13.9478 24.4477 13.5001 25 13.5001H28ZM14.4834 1.37513C15.4323 0.874545 16.5677 0.874554 17.5166 1.37513L29.9336 7.92689C30.5893 8.27301 30.9998 8.95399 31 9.69544V10.7492C31 11.4395 30.4404 11.9992 29.75 11.9992H2.25C1.55964 11.9992 1 11.4395 1 10.7492V9.69544C1.00024 8.95399 1.41067 8.27301 2.06641 7.92689L14.4834 1.37513Z"
    fill="currentColor"
  />
</svg>
