<svg width="16" height="16" viewBox="0 0 16 16" fill="none" xmlns="http://www.w3.org/2000/svg" data-fui-icon="true">
  <path
    fill-rule="evenodd"
    clip-rule="evenodd"
    d="M6.66992 1.28139C7.51624 0.901749 8.48478 0.901624 9.33105 1.28139L13.8184 3.29506C14.537 3.61763 15 4.33255 15 5.12026V6.16713C14.9998 6.69375 14.6934 7.14701 14.25 7.36342V12.6915C14.6976 12.9452 15 13.4256 15 13.9767C14.9999 14.5412 14.542 14.9989 13.9775 14.9992H2.02344C1.45881 14.9992 1.00108 14.5413 1.00098 13.9767C1.001 13.4259 1.30298 12.9463 1.75 12.6925V7.36342C1.30659 7.14701 1.0002 6.69375 1 6.16713V5.12026C1 4.33254 1.463 3.61762 2.18164 3.29506L6.66992 1.28139ZM3.75 7.50014V12.5001H5.25V7.50014H3.75ZM7.25 7.50014V12.5001H8.75V7.50014H7.25ZM10.75 7.50014V12.5001H12.25V7.50014H10.75ZM8.51172 3.10659C8.18618 2.9605 7.81382 2.9605 7.48828 3.10659L3 5.12026V5.50014H13V5.12026L8.51172 3.10659Z"
    fill="currentColor"
  />
</svg>
