<svg width="12" height="13" viewBox="0 0 12 13" fill="none" xmlns="http://www.w3.org/2000/svg" data-fui-icon="true">
  <path
    d="M10.8867 10.0083C11.5015 10.0085 11.9998 10.5068 12 11.1216C11.9999 11.611 11.6027 12.0083 11.1133 12.0083H0.886719C0.397279 12.0083 0.000137707 11.611 0 11.1216C0.000191842 10.5068 0.498518 10.0085 1.11328 10.0083H10.8867ZM2.75 5.0083C3.16421 5.0083 3.5 5.34409 3.5 5.7583V8.2583C3.49986 8.67239 3.16413 9.0083 2.75 9.0083H1.75C1.33587 9.0083 1.00014 8.67239 1 8.2583V5.7583C1 5.34409 1.33579 5.0083 1.75 5.0083H2.75ZM6.5 5.0083C6.91421 5.0083 7.25 5.34409 7.25 5.7583V8.2583C7.2499 8.67243 6.91415 9.0083 6.5 9.0083H5.5C5.08585 9.0083 4.7501 8.67243 4.75 8.2583V5.7583C4.75 5.34409 5.08579 5.0083 5.5 5.0083H6.5ZM10.25 5.0083C10.6642 5.0083 11 5.34409 11 5.7583V8.2583C10.9998 8.67237 10.6641 9.0083 10.25 9.0083H9.25C8.83589 9.0083 8.50016 8.67237 8.5 8.2583V5.7583C8.5 5.34409 8.83579 5.0083 9.25 5.0083H10.25ZM4.70996 0.291504C5.52593 -0.0970531 6.47407 -0.097055 7.29004 0.291504L11.4248 2.26123C11.776 2.42864 12 2.78325 12 3.17236C11.9996 3.63381 11.6255 4.00806 11.1641 4.0083H0.835938C0.403129 4.00808 0.0467779 3.67887 0.00390625 3.25732L0 3.17236L0.0107422 3.02783C0.0584074 2.6971 0.267917 2.40769 0.575195 2.26123L4.70996 0.291504Z"
    fill="currentColor"
  />
</svg>
