<svg width="16" height="17" viewBox="0 0 16 17" fill="none" xmlns="http://www.w3.org/2000/svg" data-fui-icon="true">
  <path
    fill-rule="evenodd"
    clip-rule="evenodd"
    d="M6.69531 0.298322C7.51929 -0.0994398 8.48071 -0.0994416 9.30469 0.298322L15.0107 3.0532C15.6155 3.34517 16 3.95781 16 4.62938V5.91844C15.9998 6.48851 15.5592 6.95395 15 6.99656V12.5014C15 12.5136 14.9986 12.5256 14.998 12.5376C15.6065 13.0072 15.9999 13.7418 16 14.5698C15.9999 15.3604 15.359 16.0014 14.5684 16.0014H1.43164C0.64101 16.0014 9.59782e-05 15.3604 0 14.5698C7.18958e-05 13.7421 0.392873 13.0072 1.00098 12.5376C1.00041 12.5256 1 12.5136 1 12.5014V6.99656C0.440802 6.95395 0.00016771 6.48851 0 5.91844V4.62938C4.6488e-05 3.95781 0.38447 3.34517 0.989258 3.0532L6.69531 0.298322ZM2.56836 13.5014C2.00144 13.5014 1.53923 13.9434 1.50391 14.5014H14.4961C14.4608 13.9434 13.9986 13.5014 13.4316 13.5014H2.56836ZM2.5 12.0044C2.52273 12.0038 2.54549 12.0014 2.56836 12.0014H5V7.00145H2.5V12.0044ZM11 12.0014H13.4316C13.4545 12.0014 13.4773 12.0038 13.5 12.0044V7.00145H11V12.0014ZM6.5 12.0014H9.5V7.00145H6.5V12.0014ZM8.65234 1.64891C8.24037 1.45004 7.75963 1.45004 7.34766 1.64891L1.6416 4.40379C1.55523 4.44549 1.50005 4.53348 1.5 4.62938V5.50145H14.5V4.62938C14.5 4.53348 14.4448 4.44549 14.3584 4.40379L8.65234 1.64891Z"
    fill="currentColor"
  />
</svg>
