<svg width="16" height="16" viewBox="0 0 16 16" fill="none" xmlns="http://www.w3.org/2000/svg" data-fui-icon="true">
  <path
    d="M12.75 5C14.5449 5 16 6.45507 16 8.25V12.75C15.9997 14.5447 14.5448 16 12.75 16H3.25C1.45524 16 0.000263858 14.5447 0 12.75V8.25C0 6.45507 1.45507 5 3.25 5H12.75ZM11.5 11.75C11.0858 11.75 10.75 12.0858 10.75 12.5C10.7503 12.914 11.0859 13.25 11.5 13.25H12.5C12.9141 13.25 13.2497 12.914 13.25 12.5C13.25 12.0858 12.9142 11.75 12.5 11.75H11.5ZM8 8.25C6.75736 8.25 5.75 9.25736 5.75 10.5C5.75 11.7426 6.75736 12.75 8 12.75C9.24264 12.75 10.25 11.7426 10.25 10.5C10.25 9.25736 9.24264 8.25 8 8.25ZM3.5 7.75C3.08579 7.75 2.75 8.08579 2.75 8.5C2.75026 8.91399 3.08595 9.25 3.5 9.25H4.5C4.91405 9.25 5.24974 8.91399 5.25 8.5C5.25 8.08579 4.91421 7.75 4.5 7.75H3.5ZM13.5 2.5C13.9142 2.5 14.25 2.83579 14.25 3.25C14.25 3.66421 13.9142 4 13.5 4H2.5C2.08579 4 1.75 3.66421 1.75 3.25C1.75 2.83579 2.08579 2.5 2.5 2.5H13.5ZM12 0C12.4142 0 12.75 0.335786 12.75 0.75C12.75 1.16421 12.4142 1.5 12 1.5H4C3.58579 1.5 3.25 1.16421 3.25 0.75C3.25 0.335786 3.58579 0 4 0H12Z"
    fill="currentColor"
  />
</svg>
