<svg width="16" height="16" viewBox="0 0 16 16" fill="none" xmlns="http://www.w3.org/2000/svg" data-fui-icon="true">
  <path
    fill-rule="evenodd"
    clip-rule="evenodd"
    d="M6.66992 1.28112C7.51624 0.901474 8.48478 0.90135 9.33105 1.28112L13.8184 3.29479C14.5371 3.61732 15 4.33222 15 5.11998V6.16686C14.9999 6.69372 14.6936 7.14771 14.25 7.36412V12.6913C14.6976 12.945 14.9999 13.4254 15 13.9764C15 14.541 14.542 14.9986 13.9775 14.9989H2.02344C1.45875 14.9989 1.00098 14.5411 1.00098 13.9764C1.00107 13.4257 1.30302 12.9461 1.75 12.6922V7.36412C1.30635 7.14771 1.00005 6.69373 1 6.16686V5.11998C1 4.33221 1.46292 3.61732 2.18164 3.29479L6.66992 1.28112ZM3.75 7.49987V12.4999H5.25V7.49987H3.75ZM7.25 7.49987V12.4999H8.75V7.49987H7.25ZM10.75 7.49987V12.4999H12.25V7.49987H10.75ZM8.51172 3.10631C8.18618 2.96022 7.81382 2.96023 7.48828 3.10631L3 5.11998V5.49987H13V5.11998L8.51172 3.10631Z"
    fill="currentColor"
  />
</svg>
