<svg width="32" height="32" viewBox="0 0 32 32" fill="none" xmlns="http://www.w3.org/2000/svg" data-fui-icon="true">
  <path
    fill-rule="evenodd"
    clip-rule="evenodd"
    d="M13.3135 1.43006C14.9973 0.554233 17.0027 0.554245 18.6865 1.43006L29.3076 6.95447C30.3474 7.4954 30.9997 8.57054 31 9.74256V11.2855C30.9998 12.232 30.2326 12.9991 29.2861 12.9994H29V24.7885C29 24.7996 28.9984 24.8106 28.998 24.8217C30.2074 25.6585 31 27.0553 31 28.6371C30.9996 29.9421 29.9417 31.0002 28.6367 31.0004H3.36328C2.05827 31.0002 1.00037 29.9421 1 28.6371C1 27.0553 1.79261 25.6585 3.00195 24.8217C3.00157 24.8103 3 24.7989 3 24.7875V12.9994H2.71387C1.76741 12.9991 1.00019 12.232 1 11.2855V9.74256C1.00029 8.57054 1.65262 7.4954 2.69238 6.95447L13.3135 1.43006ZM5.63672 26.0004C4.1807 26.0004 3 27.1811 3 28.6371C3.00037 28.8375 3.16284 29.0002 3.36328 29.0004H28.6367C28.8372 29.0002 28.9996 28.8375 29 28.6371C29 27.1811 27.8193 26.0004 26.3633 26.0004H5.63672ZM5 12.9994V24.0443C5.20819 24.0157 5.42067 24.0004 5.63672 24.0004H11V12.9994H5ZM21 12.9994V24.0004H26.3633C26.5793 24.0004 26.7918 24.0157 27 24.0443V12.9994H21ZM13 12.9994V24.0004H19V12.9994H13ZM17.7637 3.20447C16.6583 2.62958 15.3417 2.62957 14.2363 3.20447L3.61523 8.72888C3.23738 8.92556 3.00029 9.31661 3 9.74256V10.9994H29V9.74256C28.9997 9.31661 28.7626 8.92556 28.3848 8.72888L17.7637 3.20447Z"
    fill="currentColor"
  />
</svg>
