<svg width="24" height="24" viewBox="0 0 24 24" fill="none" xmlns="http://www.w3.org/2000/svg" data-fui-icon="true">
  <path
    d="M10.6826 0.30957C11.514 -0.0968246 12.486 -0.0968161 13.3174 0.30957L23.0186 5.05176C23.619 5.34534 23.9999 5.95562 24 6.62402V8.41699C23.9998 9.01501 23.515 9.49982 22.917 9.5H22V19.6064C23.1538 19.9332 24 20.9915 24 22.25V22.5C24 23.3284 23.3284 24 22.5 24H1.5C0.671599 24 4.22615e-05 23.3284 0 22.5V22.25C0 20.9915 0.846151 19.9332 2 19.6064V9.5H1.08301C0.484983 9.49982 0.000216908 9.01501 0 8.41699V6.62402C7.49693e-05 5.95562 0.380953 5.34533 0.981445 5.05176L10.6826 0.30957ZM2.75 21C2.05964 21 1.5 21.5596 1.5 22.25V22.5H22.5V22.25C22.5 21.5596 21.9404 21 21.25 21H2.75ZM3.5 9.5V19.5H6V9.5H3.5ZM7.5 9.5V19.5H16.5V9.5H7.5ZM18 9.5V19.5H20.5V9.5H18ZM12.6592 1.65723C12.2435 1.45399 11.7565 1.454 11.3408 1.65723L1.64062 6.39941C1.55489 6.44133 1.50007 6.52861 1.5 6.62402V8H22.5V6.62402C22.4999 6.5286 22.4451 6.44133 22.3594 6.39941L12.6592 1.65723Z"
    fill="currentColor"
  />
</svg>
