<svg width="32" height="32" viewBox="0 0 32 32" fill="none" xmlns="http://www.w3.org/2000/svg" data-fui-icon="true">
  <path
    d="M24.7275 5.35889C28.154 5.35893 30.9314 8.13655 30.9316 11.563V20.2905C30.9316 21.9852 30.2516 23.5202 29.1504 24.6401C28.3912 25.9648 26.968 26.8871 25.2832 26.8872H16.8184C16.5529 26.8871 16.3175 26.76 16.168 26.564H7.27246C3.80869 26.5636 1.00041 23.7553 1 20.2915V18.9272C1 18.923 1.00091 18.9188 1.00098 18.9146C1.00162 18.8724 1.00555 18.8303 1.0127 18.7886C1.01354 18.7837 1.01372 18.7788 1.01465 18.7739C1.02286 18.7307 1.03451 18.6878 1.0498 18.646C1.05066 18.6437 1.05186 18.6415 1.05273 18.6392L1.06836 18.6001V11.563C1.0686 8.13674 3.84624 5.35925 7.27246 5.35889H24.7275ZM7.27246 6.85889C4.67467 6.85925 2.5686 8.96516 2.56836 11.563V16.8325L5.63281 13.3423C5.73791 13.2226 5.84871 13.1091 5.96484 13.0024C6.08094 12.8958 6.20221 12.7957 6.32812 12.7026C6.7056 12.4237 7.12452 12.2069 7.56836 12.0601C7.72932 12.0068 7.89379 11.9638 8.06055 11.9292C8.35343 11.8685 8.6539 11.8364 8.95801 11.8364L9.18652 11.8423C9.4896 11.858 9.78829 11.9041 10.0781 11.98C10.2234 12.018 10.3665 12.0633 10.5068 12.1157C11.0669 12.3251 11.5834 12.6475 12.0215 13.0679C12.0763 13.1205 12.1293 13.1753 12.1816 13.231L16.6328 17.9673L18.3291 15.8638C18.9944 15.0387 19.9494 14.5108 20.9873 14.3765C21.1595 14.354 21.3339 14.3413 21.5098 14.3413H21.5117C22.6591 14.3413 23.7538 14.8239 24.5283 15.6704L29.3809 20.9771C29.4136 20.7529 29.4316 20.5238 29.4316 20.2905V11.563C29.4314 8.96497 27.3256 6.85893 24.7275 6.85889H7.27246Z"
    fill="currentColor"
  />
</svg>
