<svg width="32" height="32" viewBox="0 0 32 32" fill="none" xmlns="http://www.w3.org/2000/svg" data-fui-icon="true">
  <path
    d="M24.7275 5.35901C28.154 5.35906 30.9314 8.13667 30.9316 11.5631V20.2906C30.9316 21.9853 30.2516 23.5204 29.1504 24.6403C28.3912 25.965 26.968 26.8872 25.2832 26.8873H16.8184C16.5529 26.8873 16.3175 26.7602 16.168 26.5641H7.27246C3.80869 26.5637 1.00041 23.7554 1 20.2916V18.9274C1 18.9231 1.00091 18.9189 1.00098 18.9147C1.00162 18.8725 1.00555 18.8305 1.0127 18.7887C1.01354 18.7838 1.01372 18.7789 1.01465 18.774C1.02286 18.7308 1.03451 18.688 1.0498 18.6461C1.05066 18.6438 1.05186 18.6416 1.05273 18.6393L1.06836 18.6002V11.5631C1.0686 8.13686 3.84624 5.35937 7.27246 5.35901H24.7275ZM7.27246 6.85901C4.67467 6.85937 2.5686 8.96529 2.56836 11.5631V16.8326L5.63281 13.3424C5.73791 13.2227 5.84871 13.1092 5.96484 13.0026C6.08094 12.8959 6.20221 12.7958 6.32812 12.7028C6.7056 12.4238 7.12452 12.2071 7.56836 12.0602C7.72932 12.0069 7.89379 11.9639 8.06055 11.9293C8.35343 11.8686 8.6539 11.8366 8.95801 11.8365L9.18652 11.8424C9.4896 11.8581 9.78829 11.9042 10.0781 11.9801C10.2234 12.0181 10.3665 12.0634 10.5068 12.1158C11.0669 12.3252 11.5834 12.6476 12.0215 13.068C12.0763 13.1206 12.1293 13.1754 12.1816 13.2311L16.6328 17.9674L18.3291 15.8639C18.9944 15.0389 19.9494 14.5109 20.9873 14.3766C21.1595 14.3542 21.3339 14.3414 21.5098 14.3414H21.5117C22.6591 14.3414 23.7538 14.824 24.5283 15.6705L29.3809 20.9772C29.4136 20.753 29.4316 20.5239 29.4316 20.2906V11.5631C29.4314 8.9651 27.3256 6.85906 24.7275 6.85901H7.27246Z"
    fill="currentColor"
  />
</svg>
