<svg width="12" height="12" viewBox="0 0 12 12" fill="none" xmlns="http://www.w3.org/2000/svg" data-fui-icon="true">
  <path
    fill-rule="evenodd"
    clip-rule="evenodd"
    d="M8.90942 3.02246C9.4992 3.02265 9.97681 3.501 9.97681 4.09082V7C9.97666 7.5897 9.49911 8.06817 8.90942 8.06836H7.94301L4.72681 4.64669C4.4481 4.35013 4.05956 4.18187 3.65259 4.18184C3.22816 4.18184 2.82419 4.36483 2.54419 4.6838L2.02271 5.27771V4.09082C2.02271 3.50088 2.50112 3.02246 3.09106 3.02246H8.90942ZM8.90942 9.56836C10.3275 9.56817 11.4767 8.41813 11.4768 7V4.09082C11.4768 2.67257 10.3276 1.52265 8.90942 1.52246H3.09106C1.6727 1.52246 0.522705 2.67245 0.522705 4.09082V7C0.522849 8.41825 1.67279 9.56836 3.09106 9.56836H8.90942ZM8 6C8.55229 6 9 5.55228 9 5C9 4.44772 8.55229 4 8 4C7.44772 4 7 4.44772 7 5C7 5.55228 7.44772 6 8 6Z"
    fill="currentColor"
  />
</svg>
