<svg width="12" height="12" viewBox="0 0 12 12" fill="none" xmlns="http://www.w3.org/2000/svg" data-fui-icon="true">
  <path
    d="M8.90942 2C10.3276 2.00019 11.4768 3.15011 11.4768 4.56836V7.47754C11.4767 8.89567 10.3275 10.0457 8.90942 10.0459H3.09106C1.67279 10.0459 0.522849 8.89578 0.522705 7.47754V4.56836C0.522705 3.14999 1.6727 2 3.09106 2H8.90942ZM3.09106 3.5C2.50112 3.5 2.02271 3.97842 2.02271 4.56836V5.75488L2.54419 5.16113C2.68414 5.00175 2.85522 4.87664 3.04419 4.79102C3.1389 4.74811 3.23794 4.71453 3.34009 4.69238C3.44189 4.6703 3.54664 4.65918 3.65259 4.65918C4.05951 4.65921 4.44811 4.82753 4.72681 5.12402L7.9436 8.5459H8.90942C9.49911 8.54571 9.97666 8.06724 9.97681 7.47754V4.56836C9.97681 3.97854 9.4992 3.50019 8.90942 3.5H3.09106ZM8.00024 4.47754C8.55242 4.47767 9.00024 4.92534 9.00024 5.47754C9.00024 6.02974 8.55242 6.47741 8.00024 6.47754C7.44796 6.47754 7.00024 6.02982 7.00024 5.47754C7.00024 4.92525 7.44796 4.47754 8.00024 4.47754Z"
    fill="currentColor"
  />
</svg>
