<svg width="24" height="24" viewBox="0 0 24 24" fill="none" xmlns="http://www.w3.org/2000/svg" data-fui-icon="true">
  <path
    fill-rule="evenodd"
    clip-rule="evenodd"
    d="M21.6498 8.59961C21.6498 6.80469 20.1947 5.34961 18.3998 5.34961H5.59997C3.80504 5.34961 2.34997 6.80468 2.34997 8.59961V12.2354L4.39684 9.90357C5.01282 9.2019 5.90164 8.80011 6.83532 8.80006C7.73078 8.80006 8.58637 9.16998 9.19958 9.82252L12.4822 13.3161L13.7133 11.7625C14.2764 11.0517 15.1335 10.6375 16.0404 10.6375C16.8842 10.6376 17.6882 10.9965 18.2513 11.6248L21.6265 15.3905C21.6419 15.2625 21.6498 15.1322 21.6498 15V8.59961ZM23.1498 15C23.1496 17.6232 21.023 19.75 18.3998 19.75H5.59997C2.97675 19.75 0.850182 17.6232 0.84997 15V8.59961C0.84997 5.97626 2.97662 3.84961 5.59997 3.84961H18.3998C21.0231 3.84961 23.1498 5.97626 23.1498 8.59961V15Z"
    fill="currentColor"
  />
</svg>
