<svg width="20" height="20" viewBox="0 0 20 20" fill="none" xmlns="http://www.w3.org/2000/svg" data-fui-icon="true">
  <path
    d="M11.9502 0C13.0822 0.000105645 13.9999 0.917776 14 2.0498V5H17.9482C19.0804 5 19.9989 5.91771 19.999 7.0498V17.9502C19.9989 19.0823 19.0804 20 17.9482 20H2.0498C0.917827 19.9999 0.000188604 19.0822 0 17.9502V11.5498C0.000105901 10.4174 0.918989 9.5 2.05078 9.5H6V2.0498C6.00011 0.917775 6.91778 0.000105516 8.0498 0H11.9502ZM2.05078 11C1.74676 11 1.50011 11.2465 1.5 11.5498V17.9502C1.50019 18.2537 1.74625 18.4999 2.0498 18.5H6V11H2.05078ZM8.0498 1.5C7.7462 1.50011 7.50011 1.7462 7.5 2.0498V18.5H12.5V2.0498C12.4999 1.7462 12.2538 1.50011 11.9502 1.5H8.0498ZM14 18.5H17.9482C18.2519 18.5 18.4989 18.2539 18.499 17.9502V7.0498C18.4989 6.74614 18.2519 6.5 17.9482 6.5H14V18.5Z"
    fill="currentColor"
  />
</svg>
