<svg width="32" height="32" viewBox="0 0 32 32" fill="none" xmlns="http://www.w3.org/2000/svg" data-fui-icon="true">
  <path
    d="M5.75 22C6.16421 22 6.5 22.3358 6.5 22.75V27.25C6.5 27.6642 6.16421 28 5.75 28C5.33579 28 5 27.6642 5 27.25V22.75C5 22.3358 5.33579 22 5.75 22ZM10.75 15C11.1642 15 11.5 15.3358 11.5 15.75V27.25C11.5 27.6642 11.1642 28 10.75 28C10.3358 28 10 27.6642 10 27.25V15.75C10 15.3358 10.3358 15 10.75 15ZM15.75 9C16.1642 9 16.5 9.33579 16.5 9.75V27.25C16.5 27.6642 16.1642 28 15.75 28C15.3358 28 15 27.6642 15 27.25V9.75C15 9.33579 15.3358 9 15.75 9ZM20.75 15C21.1642 15 21.5 15.3358 21.5 15.75V27.25C21.5 27.6642 21.1642 28 20.75 28C20.3358 28 20 27.6642 20 27.25V15.75C20 15.3358 20.3358 15 20.75 15ZM25.75 4C26.1642 4 26.5 4.33579 26.5 4.75V27.25C26.5 27.6642 26.1642 28 25.75 28C25.3358 28 25 27.6642 25 27.25V4.75C25 4.33579 25.3358 4 25.75 4Z"
    fill="currentColor"
  />
</svg>
