<svg width="24" height="24" viewBox="0 0 24 24" fill="none" xmlns="http://www.w3.org/2000/svg" data-fui-icon="true">
  <path
    d="M6 15C6.66274 15 7.2002 15.5375 7.2002 16.2002V21.7998C7.2002 22.4625 6.66274 23 6 23H2.2002C1.53745 23 1 22.4625 1 21.7998V16.2002C1 15.5375 1.53745 15 2.2002 15H6ZM13.9004 1C14.563 1.00021 15.0996 1.53758 15.0996 2.2002V21.7998C15.0996 22.4624 14.563 22.9998 13.9004 23H10.0996C9.43705 22.9998 8.90039 22.4624 8.90039 21.7998V2.2002C8.90039 1.53758 9.43705 1.00021 10.0996 1H13.9004ZM21.7998 9C22.4625 9 23 9.53745 23 10.2002V21.7998C23 22.4625 22.4625 23 21.7998 23H18C17.3373 23 16.7998 22.4625 16.7998 21.7998V10.2002C16.7998 9.53745 17.3373 9 18 9H21.7998Z"
    fill="currentColor"
  />
</svg>
