<svg width="24" height="24" viewBox="0 0 24 24" fill="none" xmlns="http://www.w3.org/2000/svg" data-fui-icon="true">
  <path
    d="M5.5 12C6.60457 12 7.5 12.8954 7.5 14V21L7.48926 21.2041C7.3938 22.1457 6.64565 22.8938 5.7041 22.9893L5.5 23H3L2.7959 22.9893C1.85435 22.8938 1.1062 22.1457 1.01074 21.2041L1 21V14C1 12.8954 1.89543 12 3 12H5.5ZM13.25 1C14.3546 1 15.25 1.89543 15.25 3V21L15.2393 21.2041C15.1438 22.1457 14.3957 22.8938 13.4541 22.9893L13.25 23H10.75L10.5459 22.9893C9.60435 22.8938 8.8562 22.1457 8.76074 21.2041L8.75 21V3C8.75 1.89543 9.64543 1 10.75 1H13.25ZM21 7C22.1046 7 23 7.89543 23 9V21C23 22.0357 22.2128 22.887 21.2041 22.9893L21 23H18.5L18.2959 22.9893C17.2872 22.887 16.5 22.0357 16.5 21V9C16.5 7.89543 17.3954 7 18.5 7H21ZM18.5 8.5C18.2239 8.5 18 8.72386 18 9V21C18 21.2761 18.2239 21.5 18.5 21.5H21C21.2761 21.5 21.5 21.2761 21.5 21V9C21.5 8.72386 21.2761 8.5 21 8.5H18.5ZM3 13.5C2.72386 13.5 2.5 13.7239 2.5 14V21C2.5 21.2761 2.72386 21.5 3 21.5H5.5C5.77614 21.5 6 21.2761 6 21V14C6 13.7239 5.77614 13.5 5.5 13.5H3ZM10.75 2.5C10.4739 2.5 10.25 2.72386 10.25 3V21C10.25 21.2761 10.4739 21.5 10.75 21.5H13.25C13.5261 21.5 13.75 21.2761 13.75 21V3C13.75 2.72386 13.5261 2.5 13.25 2.5H10.75Z"
    fill="currentColor"
  />
</svg>
