<svg width="16" height="16" viewBox="0 0 16 16" fill="none" xmlns="http://www.w3.org/2000/svg" data-fui-icon="true">
  <path
    d="M4 8C4.55228 8 5 8.44772 5 9V14C5 14.5523 4.55228 15 4 15H2C1.44772 15 1 14.5523 1 14V9C1 8.44772 1.44772 8 2 8H4ZM9 1C9.55229 1 10 1.44772 10 2V14C10 14.5523 9.55229 15 9 15H7C6.44772 15 6 14.5523 6 14V2C6 1.44772 6.44772 1 7 1H9ZM14 5C14.5523 5 15 5.44772 15 6V14C15 14.5523 14.5523 15 14 15H12C11.4477 15 11 14.5523 11 14V6C11 5.44772 11.4477 5 12 5H14Z"
    fill="currentColor"
  />
</svg>
