<svg width="16" height="16" viewBox="0 0 16 16" fill="none" xmlns="http://www.w3.org/2000/svg" data-fui-icon="true">
  <path
    d="M9.41699 0C10.3835 0 11.167 0.783501 11.167 1.75V4H14.249C15.2155 4 15.999 4.7835 15.999 5.75V14.25C15.999 15.2165 15.2155 16 14.249 16H1.75C0.78351 16 1.26273e-05 15.2165 0 14.25V9.25C6.44265e-07 8.2835 0.783501 7.5 1.75 7.5H4.83398V1.75C4.83398 0.783502 5.61749 0 6.58398 0H9.41699ZM1.75 9C1.61193 9 1.5 9.11193 1.5 9.25V14.25C1.50001 14.3881 1.61194 14.5 1.75 14.5H4.83301V9H1.75ZM11.167 14.5H14.249C14.3871 14.5 14.499 14.3881 14.499 14.25V5.75C14.499 5.61193 14.3871 5.5 14.249 5.5H11.167V14.5ZM6.58398 1.5C6.44591 1.5 6.33398 1.61193 6.33398 1.75V14.5H9.66602V4H9.66699V1.75C9.66699 1.61193 9.55506 1.5 9.41699 1.5H6.58398Z"
    fill="currentColor"
  />
</svg>
