<svg width="24" height="24" viewBox="0 0 24 24" fill="none" xmlns="http://www.w3.org/2000/svg" data-fui-icon="true">
  <path
    d="M3.75 8.75C4.30228 8.75 4.75 9.19772 4.75 9.75V20.25C4.75 20.8023 4.30228 21.25 3.75 21.25C3.19772 21.25 2.75 20.8023 2.75 20.25V9.75C2.75 9.19772 3.19772 8.75 3.75 8.75ZM7.75 10.75C8.30228 10.75 8.75 11.1977 8.75 11.75V20.25C8.75 20.8023 8.30228 21.25 7.75 21.25C7.19772 21.25 6.75 20.8023 6.75 20.25V11.75C6.75 11.1977 7.19772 10.75 7.75 10.75ZM11.75 1.75C12.3023 1.75 12.75 2.19772 12.75 2.75V20.25C12.75 20.8023 12.3023 21.25 11.75 21.25C11.1977 21.25 10.75 20.8023 10.75 20.25V2.75C10.75 2.19772 11.1977 1.75 11.75 1.75ZM15.75 15.75C16.3023 15.75 16.75 16.1977 16.75 16.75V20.25C16.75 20.8023 16.3023 21.25 15.75 21.25C15.1977 21.25 14.75 20.8023 14.75 20.25V16.75C14.75 16.1977 15.1977 15.75 15.75 15.75ZM19.75 5.75C20.3023 5.75 20.75 6.19772 20.75 6.75V20.25C20.75 20.8023 20.3023 21.25 19.75 21.25C19.1977 21.25 18.75 20.8023 18.75 20.25V6.75C18.75 6.19772 19.1977 5.75 19.75 5.75Z"
    fill="currentColor"
  />
</svg>
