<svg width="32" height="32" viewBox="0 0 32 32" fill="none" xmlns="http://www.w3.org/2000/svg" data-fui-icon="true">
  <path
    d="M19.0059 1C20.5246 1.00008 21.7559 2.23127 21.7559 3.75V8.70312H28.248C29.7665 8.70312 30.999 9.93402 30.999 11.4531V28.25C30.9988 29.7686 29.7676 31 28.249 31H10.2422V30.999H3.75C2.23122 30.999 1 29.7678 1 28.249V18.3848C1.00013 16.8661 2.2313 15.6348 3.75 15.6348H10.2422V3.75C10.2422 2.23122 11.4734 1 12.9922 1H19.0059ZM12.9922 2.5C12.3018 2.5 11.7422 3.05964 11.7422 3.75V15.6348H11.7432V29.5H20.2559V3.75C20.2559 3.0597 19.6961 2.50008 19.0059 2.5H12.9922ZM21.7578 29.5H28.249C28.9392 29.5 29.4988 28.9401 29.499 28.25V11.4531C29.499 10.7631 28.9387 10.2031 28.248 10.2031H21.7578V29.5ZM3.75 17.1348C3.05973 17.1348 2.50013 17.6945 2.5 18.3848V28.249C2.5 28.9394 3.05964 29.499 3.75 29.499H10.2422V17.1348H3.75Z"
    fill="currentColor"
  />
</svg>
