<svg width="32" height="32" viewBox="0 0 32 32" fill="none" xmlns="http://www.w3.org/2000/svg" data-fui-icon="true">
  <path
    fill-rule="evenodd"
    clip-rule="evenodd"
    d="M23.2502 2C23.6643 2.00015 24.0002 2.33591 24.0002 2.75C24.0002 3.16412 23.6643 3.49985 23.2502 3.5H21.0002V12.4619C21.0002 12.8688 21.1301 13.2654 21.3703 13.5938L29.4006 24.5654C31.0524 26.8225 29.4406 29.9997 26.6438 30H5.35665C2.55994 29.9997 0.947363 26.8224 2.59883 24.5654L10.6301 13.5938C10.8704 13.2653 11.0002 12.8689 11.0002 12.4619V3.5H8.7502C8.3362 3.49975 8.0002 3.16406 8.0002 2.75C8.00025 2.33598 8.33623 2.00025 8.7502 2H23.2502ZM11.6115 20.3271C10.2791 20.0883 8.76575 20.2293 6.87422 21.2627L3.80977 25.4512C2.88326 26.7172 3.78785 28.4997 5.35665 28.5H26.6438C28.2127 28.4997 29.1164 26.7173 28.1897 25.4512L25.4455 21.7021C23.5123 23.0284 21.8132 23.5015 20.2238 23.4316C18.5054 23.356 17.0163 22.6462 15.6623 21.9609C14.2669 21.2547 13.0183 20.5795 11.6115 20.3271Z"
    fill="currentColor"
  />
</svg>
