<svg width="20" height="20" viewBox="0 0 20 20" fill="none" xmlns="http://www.w3.org/2000/svg" data-fui-icon="true">
  <path
    fill-rule="evenodd"
    clip-rule="evenodd"
    d="M14.7491 1C15.1633 1 15.4991 1.33579 15.4991 1.75C15.4991 2.16421 15.1633 2.5 14.7491 2.5H13.4991V7.78906C13.4991 7.98351 13.5611 8.17309 13.6758 8.33008L18.667 15.1572C19.8341 16.7539 18.6937 19 16.7159 19H3.28228C1.30475 18.9998 0.164265 16.7538 1.33111 15.1572L6.32232 8.33008C6.43712 8.17306 6.49908 7.98357 6.49908 7.78906V2.5H5.24908C4.83501 2.49982 4.49908 2.1641 4.49908 1.75C4.49908 1.3359 4.83501 1.00018 5.24908 1H14.7491ZM7.20611 12.9814C6.42606 12.8417 5.52554 12.9216 4.36529 13.5713L4.35552 13.5605L2.54205 16.042C2.09952 16.6475 2.53232 17.4998 3.28228 17.5H16.7159C17.4661 17.5 17.8989 16.6476 17.4561 16.042L15.8946 13.9072C14.7131 14.6795 13.6446 14.9706 12.626 14.9258C11.4849 14.8754 10.5048 14.404 9.66021 13.9766C8.77432 13.5282 8.03551 13.1301 7.20611 12.9814Z"
    fill="currentColor"
  />
</svg>
