<svg width="32" height="32" viewBox="0 0 32 32" fill="none" xmlns="http://www.w3.org/2000/svg" data-fui-icon="true">
  <path
    d="M23.25 2C23.6641 2.00015 24 2.33591 24 2.75C24 3.16412 23.6641 3.49985 23.25 3.5H21V12.4619C21 12.8688 21.1299 13.2654 21.3701 13.5938L29.4004 24.5654C31.0522 26.8225 29.4404 29.9997 26.6436 30H5.35645C2.55974 29.9997 0.947162 26.8224 2.59863 24.5654L10.6299 13.5938C10.8702 13.2653 11 12.8689 11 12.4619V3.5H8.75C8.336 3.49975 8 3.16406 8 2.75C8.00004 2.33598 8.33602 2.00025 8.75 2H23.25ZM11.6113 20.3271C10.2789 20.0883 8.76555 20.2293 6.87402 21.2627L3.80957 25.4512C2.88306 26.7172 3.78765 28.4997 5.35645 28.5H26.6436C28.2125 28.4997 29.1162 26.7173 28.1895 25.4512L25.4453 21.7021C23.5121 23.0284 21.813 23.5015 20.2236 23.4316C18.5052 23.356 17.0161 22.6462 15.6621 21.9609C14.2667 21.2547 13.0181 20.5795 11.6113 20.3271Z"
    fill="currentColor"
  />
</svg>
