<svg width="12" height="12" viewBox="0 0 12 12" fill="none" xmlns="http://www.w3.org/2000/svg" data-fui-icon="true">
  <g clip-path="url(#clip0_6191_339)">
    <path
      d="M9.24988 0C9.66409 0 9.99988 0.335786 9.99988 0.75C9.99988 1.16421 9.66409 1.5 9.24988 1.5H8.49988V4.69238C8.49991 4.74243 8.51472 4.79161 8.54285 4.83301L11.5575 9.26562C12.3475 10.4275 11.5152 12 10.1102 12H1.88953C0.484666 11.9999 -0.347658 10.4274 0.442261 9.26562L3.45691 4.83301C3.48507 4.7916 3.49984 4.74246 3.49988 4.69238V1.5H2.74988C2.33574 1.49991 1.99988 1.16416 1.99988 0.75C1.99988 0.335844 2.33574 9.40857e-05 2.74988 0H9.24988ZM4.46179 8.13965C4.0847 8.08041 3.58012 8.10849 2.82605 8.42676L1.6825 10.1094C1.56976 10.2753 1.68895 10.4999 1.88953 10.5H10.1102C10.3109 10.5 10.4301 10.2754 10.3173 10.1094L9.34167 8.6748C8.61374 9.01777 7.98014 9.15717 7.38953 9.13184C6.66947 9.10088 6.10613 8.82953 5.66394 8.6084C5.19864 8.37571 4.87086 8.204 4.46179 8.13965ZM4.99988 4.69238C4.99984 5.04313 4.89429 5.38569 4.69714 5.67578L4.05652 6.61719C4.27784 6.61227 4.48965 6.6251 4.69421 6.65723C5.37854 6.76479 5.9265 7.0619 6.33582 7.2666C6.76832 7.48288 7.08059 7.61773 7.45398 7.63379C7.70918 7.64472 8.03806 7.59844 8.48523 7.41504L7.30261 5.67578C7.1055 5.38571 6.99991 5.0431 6.99988 4.69238V1.5H4.99988V4.69238Z"
      fill="currentColor"
    />
  </g>
  <defs>
    <clipPath id="clip0_6191_339"><path fill="currentColor" d="M0 0H12V12H0z" /></clipPath>
  </defs>
</svg>
