<svg width="12" height="12" viewBox="0 0 12 12" fill="none" xmlns="http://www.w3.org/2000/svg" data-fui-icon="true">
  <path
    d="M9.25 0C9.66421 0 10 0.335786 10 0.75C10 1.16421 9.66421 1.5 9.25 1.5H8.5V4.69238C8.50003 4.74243 8.51484 4.79161 8.54297 4.83301L11.5576 9.26562C12.3477 10.4275 11.5154 12 10.1104 12H1.88965C0.484788 11.9999 -0.347536 10.4274 0.442383 9.26562L3.45703 4.83301C3.48519 4.7916 3.49997 4.74246 3.5 4.69238V1.5H2.75C2.33587 1.49991 2 1.16416 2 0.75C2 0.335844 2.33587 9.40857e-05 2.75 0H9.25ZM4.46191 8.13965C4.08483 8.08041 3.58024 8.10849 2.82617 8.42676L1.68262 10.1094C1.56988 10.2753 1.68907 10.4999 1.88965 10.5H10.1104C10.3111 10.5 10.4302 10.2754 10.3174 10.1094L9.3418 8.6748C8.61386 9.01777 7.98026 9.15717 7.38965 9.13184C6.66959 9.10088 6.10625 8.82953 5.66406 8.6084C5.19877 8.37571 4.87098 8.204 4.46191 8.13965ZM5 4.69238C4.99997 5.04313 4.89441 5.38569 4.69727 5.67578L4.05664 6.61719C4.27796 6.61227 4.48977 6.6251 4.69434 6.65723C5.37866 6.76479 5.92662 7.0619 6.33594 7.2666C6.76844 7.48288 7.08072 7.61773 7.4541 7.63379C7.7093 7.64472 8.03818 7.59844 8.48535 7.41504L7.30273 5.67578C7.10562 5.38571 7.00003 5.0431 7 4.69238V1.5H5V4.69238Z"
    fill="currentColor"
  />
</svg>
