<svg width="20" height="20" viewBox="0 0 20 20" fill="none" xmlns="http://www.w3.org/2000/svg" data-fui-icon="true">
  <path
    fill-rule="evenodd"
    clip-rule="evenodd"
    d="M10 0.916626C7.2035 0.916626 5.52212 2.18909 4.57118 3.77939C3.65347 5.31414 3.44419 7.08974 3.40532 8.14221C3.38731 8.62972 3.24249 9.06648 2.9809 9.38529L2.6527 9.78527C1.51664 11.1698 1.55308 13.1741 2.7387 14.5164C3.43148 15.3007 4.42761 15.75 5.47409 15.75L14.5255 15.75C15.572 15.75 16.5681 15.3007 17.2609 14.5164C18.4465 13.1741 18.483 11.1698 17.3469 9.78528L17.0188 9.38534C16.7572 9.06652 16.6123 8.62973 16.5944 8.14219C16.5555 7.08971 16.3464 5.31411 15.4287 3.77938C14.4779 2.18907 12.7965 0.916626 10 0.916626ZM4.9043 8.19758C4.93969 7.23949 5.13251 5.76346 5.85858 4.54921C6.55143 3.39052 7.75554 2.41663 10 2.41663C12.2445 2.41663 13.4485 3.39049 14.1413 4.54914C14.8673 5.76336 15.06 7.23937 15.0954 8.19748C15.1225 8.93342 15.3442 9.70918 15.8592 10.3368L16.1873 10.7368C16.8565 11.5523 16.835 12.7328 16.1367 13.5234C15.7286 13.9854 15.1419 14.25 14.5255 14.25L5.47409 14.25C4.85772 14.25 4.27099 13.9854 3.86295 13.5234C3.16462 12.7328 3.14316 11.5522 3.81229 10.7368L4.14049 10.3368C4.65547 9.70917 4.87712 8.93347 4.9043 8.19758ZM6.75 15.75C6.75 16.7869 7.14628 17.6196 7.78298 18.1856C8.40587 18.7392 9.2152 19 10 19C10.7848 19 11.5941 18.7392 12.217 18.1856C12.8537 17.6196 13.25 16.7869 13.25 15.75H11.75C11.75 16.3798 11.5213 16.7971 11.2205 17.0644C10.9059 17.3441 10.4652 17.5 10 17.5C9.5348 17.5 9.09413 17.3441 8.77952 17.0644C8.47872 16.7971 8.25 16.3798 8.25 15.75L6.75 15.75Z"
    fill="currentColor"
  />
</svg>
