<svg width="12" height="12" viewBox="0 0 12 12" fill="none" xmlns="http://www.w3.org/2000/svg" data-fui-icon="true">
  <path
    fill-rule="evenodd"
    clip-rule="evenodd"
    d="M5.99955 0C7.89383 0.000102412 9.10513 0.883882 9.81107 1.98145C10.4769 3.01704 10.6666 4.19124 10.7242 4.84961C10.7412 5.04434 10.8002 5.17819 10.8638 5.25586L11.0826 5.52246C11.9352 6.56176 11.908 8.06659 11.0181 9.07422C10.4982 9.66251 9.75046 9.99979 8.96537 10H8.45267C8.35207 10.5532 8.08652 11.0239 7.69486 11.3721C7.20821 11.8045 6.58741 11.9999 5.99955 12C5.41169 11.9999 4.79086 11.8045 4.30424 11.3721C3.91262 11.0239 3.64703 10.5531 3.54642 10H3.03373C2.24865 9.99976 1.50086 9.66252 0.980993 9.07422C0.0912011 8.06661 0.0639525 6.56174 0.91654 5.52246L1.13529 5.25586C1.19894 5.1782 1.25791 5.04439 1.27494 4.84961C1.33248 4.19126 1.52221 3.01703 2.18802 1.98145C2.89394 0.88388 4.10531 0.000142364 5.99955 0Z"
    fill="currentColor"
  />
</svg>
