<svg width="12" height="12" viewBox="0 0 12 12" fill="none" xmlns="http://www.w3.org/2000/svg" data-fui-icon="true">
  <path
    fill-rule="evenodd"
    clip-rule="evenodd"
    d="M5.99974 0C7.89428 2.08794e-05 9.10531 0.883736 9.81126 1.98145C10.4772 3.01709 10.6668 4.19122 10.7243 4.84961C10.7414 5.04454 10.8003 5.17822 10.864 5.25586L11.0827 5.52246C11.9355 6.56181 11.9083 8.06655 11.0183 9.07422C10.4983 9.66272 9.75085 9.99987 8.96556 10H8.45286C8.35225 10.5532 8.0868 11.0238 7.69505 11.3721C7.20829 11.8047 6.58778 12 5.99974 12C5.41169 12 4.7912 11.8047 4.30443 11.3721C3.91266 11.0238 3.64724 10.5533 3.54661 10H3.03392C2.24862 9.99989 1.50115 9.66271 0.981183 9.07422C0.0911334 8.06654 0.0638931 6.56183 0.91673 5.52246L1.13548 5.25586C1.19918 5.17822 1.2581 5.04452 1.27513 4.84961C1.33267 4.19122 1.52228 3.0171 2.18821 1.98145C2.89418 0.883737 4.10517 1.77956e-06 5.99974 0ZM5.99974 2C4.84064 2 4.23954 2.49019 3.87083 3.06348C3.46223 3.69893 3.31366 4.4934 3.26732 5.02344C3.22395 5.51972 3.05779 6.06566 2.68138 6.52441L2.46263 6.79102C2.23235 7.07166 2.23988 7.47791 2.48021 7.75C2.62054 7.90874 2.82204 7.99989 3.03392 8L8.96556 8C9.17742 7.99987 9.37895 7.90875 9.51927 7.75C9.75956 7.47792 9.76709 7.07165 9.53685 6.79102L9.3181 6.52441C8.94167 6.06565 8.77553 5.51973 8.73216 5.02344C8.68581 4.49341 8.53723 3.69893 8.12864 3.06348C7.75994 2.49019 7.15881 2.00002 5.99974 2Z"
    fill="currentColor"
  />
</svg>
