<svg width="12" height="12" viewBox="0 0 12 12" fill="none" xmlns="http://www.w3.org/2000/svg" data-fui-icon="true">
  <path
    fill-rule="evenodd"
    clip-rule="evenodd"
    d="M6.00071 0C7.89511 0.000102418 9.10632 0.883787 9.81224 1.98145C10.4781 3.01706 10.6678 4.19125 10.7253 4.84961C10.7424 5.04453 10.8013 5.17822 10.865 5.25586L11.0837 5.52246C11.9364 6.56176 11.9091 8.06659 11.0193 9.07422C10.4994 9.66265 9.75173 9.99979 8.96653 10H8.45384C8.35324 10.5532 8.0877 11.0238 7.69603 11.3721C7.20934 11.8047 6.58868 11.9999 6.00071 12C5.41272 12 4.79215 11.8046 4.3054 11.3721C3.91365 11.0238 3.64822 10.5532 3.54759 10H3.03489C2.24965 9.99989 1.50212 9.66263 0.98216 9.07422C0.09211 8.06654 0.0648697 6.56183 0.917706 5.52246L1.13646 5.25586C1.20011 5.1782 1.25908 5.04441 1.2761 4.84961C1.33365 4.19121 1.52327 3.01708 2.18919 1.98145C2.89516 0.883793 4.10622 1.7795e-06 6.00071 0ZM6.00071 2C4.8417 2 4.24053 2.49024 3.87181 3.06348C3.46321 3.69892 3.31464 4.4934 3.26829 5.02344C3.22493 5.51967 3.05869 6.06569 2.68235 6.52441L2.4636 6.79102C2.23333 7.07166 2.24086 7.47791 2.48118 7.75C2.62151 7.90866 2.82308 7.99989 3.03489 8L8.96653 8C9.1783 7.99979 9.37999 7.90868 9.52025 7.75C9.76038 7.47797 9.76792 7.0716 9.53782 6.79102L9.31907 6.52441C8.94265 6.06566 8.77651 5.51972 8.73314 5.02344C8.68679 4.49344 8.53815 3.69891 8.12962 3.06348C7.76095 2.49024 7.15962 2.00009 6.00071 2Z"
    fill="currentColor"
  />
</svg>
