<svg width="20" height="20" viewBox="0 0 20 20" fill="none" xmlns="http://www.w3.org/2000/svg" data-fui-icon="true">
  <path
    fill-rule="evenodd"
    clip-rule="evenodd"
    d="M18.7197 0.219727C19.0126 -0.0731663 19.4873 -0.0731663 19.7802 0.219727C20.0731 0.51262 20.0731 0.98738 19.7802 1.28027L1.28022 19.7803C0.987323 20.0732 0.512563 20.0732 0.21967 19.7803C-0.0732232 19.4874 -0.0732232 19.0126 0.21967 18.7197L18.7197 0.219727ZM16.4239 6.75674C16.5964 6.58423 16.8896 6.67924 16.9192 6.9214C16.958 7.23875 16.9822 7.53177 16.996 7.79004C17.0295 8.4143 17.2266 8.98194 17.5849 9.39551L17.9619 9.83008C19.4098 11.5011 19.3665 13.9948 17.8622 15.6152C17.0426 16.4977 15.8918 16.9998 14.6874 17H13.5227C13.3644 17 13.2348 17.1234 13.2127 17.2801C13.1015 18.0726 12.7406 18.7196 12.2167 19.1855C11.5941 19.7388 10.7843 19.9999 9.99994 20C9.21542 19.9999 8.40588 19.7389 7.78315 19.1855C7.23292 18.6964 6.86197 18.0079 6.77142 17.1607C6.76179 17.0706 6.68716 17 6.59648 17C6.44337 17 6.36669 16.8149 6.47496 16.7066L7.59372 15.5879C7.64998 15.5316 7.72628 15.5 7.80585 15.5H14.6874C15.4747 15.4998 16.2278 15.1715 16.7636 14.5947C17.7467 13.5353 17.7746 11.9049 16.8281 10.8125L16.4521 10.3779C15.827 9.65665 15.5449 8.74527 15.498 7.87012C15.4973 7.85728 15.4965 7.84437 15.4956 7.83137C15.4896 7.74489 15.5205 7.66013 15.5818 7.59883L16.4239 6.75674ZM8.59698 17C8.41883 17 8.27721 17.1558 8.32557 17.3272C8.41637 17.6492 8.58206 17.8891 8.77924 18.0645C9.09373 18.3439 9.53501 18.4999 9.99994 18.5C10.4647 18.4999 10.9062 18.3437 11.2206 18.0645C11.4176 17.8892 11.5828 17.6491 11.6734 17.3273C11.7217 17.1558 11.5801 17 11.4019 17H8.59698ZM9.99994 0C12.1025 0.00018253 13.6072 0.711484 14.6634 1.74503C14.7787 1.85792 14.7748 2.04251 14.6607 2.15664L14.0273 2.78998C13.9061 2.91119 13.7089 2.90558 13.5852 2.78688C12.7922 2.02579 11.658 1.50017 9.99994 1.5C7.66147 1.50013 6.36387 2.54457 5.5976 3.82227C4.80023 5.15241 4.56033 6.77802 4.5019 7.87012C4.45504 8.74517 4.17266 9.65667 3.54779 10.3779L3.17182 10.8125C2.43904 11.6584 2.29147 12.8259 2.71824 13.8017C2.7712 13.9228 2.75146 14.0659 2.658 14.1593L1.98139 14.8359C1.84816 14.9692 1.6259 14.9481 1.53372 14.7838C0.658379 13.2235 0.819835 11.2361 2.03803 9.83008L2.41498 9.39551C2.77302 8.98196 2.97041 8.41411 3.00385 7.79004C3.06719 6.6061 3.32727 4.69098 4.31049 3.05078C5.32559 1.3581 7.09256 0.000138193 9.99994 0Z"
    fill="currentColor"
  />
</svg>
