<svg width="12" height="12" viewBox="0 0 12 12" fill="none" xmlns="http://www.w3.org/2000/svg" data-fui-icon="true">
  <path
    fill-rule="evenodd"
    clip-rule="evenodd"
    d="M8.03119 10.5C7.76426 11.3685 6.95599 12 5.99994 12C5.04388 12 4.23561 11.3685 3.96869 10.5L8.03119 10.5ZM5.99994 0C7.83222 0 8.93774 0.907646 9.54486 2.00879C10.1208 3.05365 10.2384 4.24267 10.2578 4.91406C10.2648 5.15831 10.3329 5.35988 10.4394 5.50195L10.7382 5.90137C11.4565 6.85898 11.362 8.19946 10.5156 9.0459C10.0645 9.4969 9.45225 9.74998 8.81439 9.75L3.17963 9.75C2.54568 9.74998 1.93744 9.49809 1.4892 9.0498C0.639711 8.20022 0.552651 6.85194 1.28607 5.90039L1.56537 5.53809C1.66866 5.40399 1.73495 5.21195 1.74115 4.97852C1.75906 4.30498 1.87422 3.10184 2.4472 2.04297C2.73918 1.50342 3.15945 0.985172 3.75873 0.603516C4.3618 0.219522 5.10539 3.38939e-05 5.99994 0Z"
    fill="currentColor"
  />
</svg>
