<svg width="16" height="16" viewBox="0 0 16 16" fill="none" xmlns="http://www.w3.org/2000/svg" data-fui-icon="true">
  <path
    fill-rule="evenodd"
    clip-rule="evenodd"
    d="M10.594 14.5C10.075 15.3956 9.10888 16 7.99933 16C6.88979 15.9999 5.92361 15.3956 5.40466 14.5L10.594 14.5ZM7.99933 0.000366203C10.3999 0.000409425 11.8401 1.27535 12.6545 2.75323C13.4444 4.18684 13.6625 5.82525 13.7248 6.73263C13.7482 7.07283 13.8562 7.37128 14.0343 7.59394L14.3576 7.99725C15.2949 9.16874 15.2509 10.8456 14.2541 11.9669C13.6698 12.6237 12.8324 13.0001 11.9533 13.0001L4.04532 13.0001C3.1662 12.9999 2.32876 12.6239 1.74459 11.9669C0.748007 10.8458 0.704304 9.16873 1.64108 7.99725L1.96431 7.59394C2.14235 7.3713 2.24945 7.07273 2.2729 6.73263C2.33515 5.82534 2.55443 4.18677 3.34416 2.75323C4.15853 1.27546 5.59901 0.000523264 7.99933 0.000366203Z"
    fill="currentColor"
  />
</svg>
