<svg width="20" height="20" viewBox="0 0 20 20" fill="none" xmlns="http://www.w3.org/2000/svg" data-fui-icon="true">
  <path
    d="M12.6775 17.5C12.8853 17.5 12.998 17.736 12.8499 17.8817C12.8097 17.9212 12.7687 17.9596 12.7266 17.9971C11.9586 18.6797 10.963 18.9999 10 19C9.03701 19 8.04144 18.6796 7.27344 17.9971C7.23117 17.9595 7.18987 17.9209 7.14953 17.8813C7.00121 17.7357 7.11364 17.5 7.32146 17.5H12.6775ZM10 1C12.7338 1.0001 14.4647 2.27296 15.498 3.8291C16.4937 5.32881 16.8231 7.05213 16.9365 8.0459C16.9865 8.48365 17.1069 8.85815 17.2998 9.14746L17.7227 9.78125C18.6182 11.1248 18.6182 12.8752 17.7227 14.2188C16.9809 15.3314 15.7318 15.9999 14.3945 16H5.60547C4.26815 16 3.0192 15.3314 2.27734 14.2188C1.38165 12.8752 1.38165 11.1248 2.27734 9.78125L2.7002 9.14746C2.89302 8.85816 3.01352 8.48359 3.06348 8.0459C3.17695 7.05209 3.50618 5.32883 4.50195 3.8291C5.53535 2.27296 7.26614 1.00001 10 1Z"
    fill="currentColor"
  />
</svg>
