<svg width="16" height="16" viewBox="0 0 16 16" fill="none" xmlns="http://www.w3.org/2000/svg" data-fui-icon="true">
  <path
    d="M6.49985 13.0001C6.50003 13.9007 7.1458 14.5 7.99982 14.5C8.85389 14.5 9.49961 13.9007 9.49978 13.0001H6.49985ZM7.99982 1.50033C6.25597 1.50033 5.26659 2.3735 4.6581 3.47783C4.02544 4.62637 3.82737 6.00523 3.77042 6.83517C3.73009 7.42193 3.53791 8.02749 3.13567 8.53044L2.81244 8.93473C2.33223 9.53552 2.35511 10.395 2.86615 10.9698C3.16577 11.3067 3.59494 11.5001 4.04581 11.5001L11.9538 11.5001C12.4047 11.5001 12.8339 11.3068 13.1335 10.9698C13.6445 10.395 13.6674 9.53549 13.1872 8.93473L12.864 8.53142C12.4615 8.02843 12.2696 7.42206 12.2292 6.83517C12.1723 6.00526 11.9741 4.62632 11.3415 3.47783C10.7331 2.37355 9.74354 1.50039 7.99982 1.50033ZM10.9997 13.0001C10.9996 14.7656 9.64534 15.9999 7.99982 16C6.35424 15.9999 5.00007 14.7655 4.99989 13.0001H4.04581C3.16662 13 2.32934 12.6238 1.74508 11.9669C0.748412 10.8457 0.70459 9.16874 1.64156 7.99725L1.9648 7.59394C2.14284 7.37129 2.24994 7.07274 2.27339 6.73263C2.33564 5.8253 2.55482 4.18682 3.34465 2.75323C4.15906 1.27537 5.59923 0.000366203 7.99982 0.000366203C10.4004 0.000423664 11.8406 1.27536 12.655 2.75323C13.4448 4.18679 13.663 5.82529 13.7253 6.73263C13.7487 7.07281 13.8567 7.37129 14.0348 7.59394L14.3581 7.99725C15.2952 9.16873 15.2513 10.8457 14.2546 11.9669C13.6703 12.6238 12.833 13 11.9538 13.0001H10.9997Z"
    fill="currentColor"
  />
</svg>
