<svg width="20" height="20" viewBox="0 0 20 20" fill="none" xmlns="http://www.w3.org/2000/svg" data-fui-icon="true">
  <path
    d="M9.99982 0C12.9073 0.000156308 14.6731 1.35799 15.6882 3.05073C16.6718 4.69105 16.9324 6.60585 16.9958 7.7899C17.0292 8.41431 17.2263 8.98169 17.5846 9.39534L17.9616 9.8299C19.4097 11.5009 19.3664 13.9944 17.862 15.6149C17.0423 16.4977 15.8919 16.9996 14.6872 16.9997H13.241C13.1825 17.9208 12.8011 18.6654 12.2166 19.1852C11.5938 19.7387 10.7845 19.9996 9.99982 19.9996C9.21508 19.9996 8.40593 19.7388 7.78306 19.1852C7.19832 18.6654 6.81615 17.921 6.75769 16.9997H5.3124C4.10769 16.9997 2.9574 16.4978 2.13766 15.6149C0.632986 13.9944 0.58982 11.501 2.03805 9.8299L2.41499 9.39534C2.77318 8.9817 2.97047 8.41419 3.00385 7.7899C3.0672 6.60587 3.32704 4.69101 4.31047 3.05073C5.32559 1.35793 7.09214 0 9.99982 0ZM8.26352 16.9997C8.31551 17.4924 8.52009 17.8338 8.77914 18.0641C9.09373 18.3438 9.53463 18.4997 9.99982 18.4997C10.4649 18.4996 10.906 18.3437 11.2205 18.0641C11.4794 17.8338 11.6832 17.4922 11.7351 16.9997H8.26352ZM9.99982 1.49997C7.66103 1.49997 6.36385 2.54439 5.59755 3.8222C4.79998 5.15241 4.56031 6.77777 4.50187 7.86997C4.45508 8.74519 4.17282 9.65636 3.54779 10.3777L3.17182 10.8123C2.225 11.9048 2.25272 13.535 3.23627 14.5945C3.7722 15.1716 4.52478 15.4997 5.3124 15.4997L14.6872 15.4997C15.4748 15.4996 16.2275 15.1716 16.7634 14.5945C17.7467 13.535 17.7746 11.9047 16.8278 10.8123L16.4518 10.3777C15.8267 9.65637 15.5446 8.74523 15.4978 7.86997C15.4393 6.7778 15.1997 5.1524 14.4021 3.8222C13.6358 2.54432 12.3385 1.50012 9.99982 1.49997Z"
    fill="currentColor"
  />
</svg>
