<svg width="12" height="12" viewBox="0 0 12 12" fill="none" xmlns="http://www.w3.org/2000/svg" data-fui-icon="true">
  <path
    fill-rule="evenodd"
    clip-rule="evenodd"
    d="M10.2356 5.46551C10.2981 5.41492 10.3902 5.43757 10.4384 5.50195L10.7372 5.90137C11.4555 6.85898 11.361 8.19946 10.5145 9.0459C10.0635 9.49669 9.45107 9.74998 8.81338 9.75H8.54892C8.38324 9.75 8.25096 9.88484 8.23195 10.0494C8.16609 10.6193 7.91202 11.0944 7.52822 11.4355C7.09291 11.8222 6.53347 12 5.99892 12C5.46444 11.9998 4.90477 11.8223 4.46963 11.4355C4.26859 11.2567 4.10505 11.0402 3.98443 10.7931C3.92785 10.6772 3.9669 10.54 4.06717 10.4589L6.71424 8.31679C6.76764 8.27358 6.83426 8.25 6.90296 8.25H8.81338C9.05326 8.24998 9.2833 8.15388 9.45302 7.98438C9.77149 7.66591 9.80799 7.16216 9.53799 6.80176L9.23818 6.40234C9.20386 6.35652 9.2158 6.29064 9.2603 6.25463L10.2356 5.46551ZM10.7782 1.16699C11.1002 0.906524 11.5723 0.956431 11.8329 1.27832C12.0934 1.60026 12.0435 2.07243 11.7216 2.33301L1.22158 10.833C0.899638 11.0935 0.427469 11.0436 0.166892 10.7217C-0.093576 10.3997 -0.0436685 9.92757 0.278221 9.66699L10.7782 1.16699ZM5.54892 9.75C5.38324 9.75 5.23998 9.88836 5.29206 10.0457C5.33275 10.1686 5.39754 10.2537 5.46572 10.3145C5.59265 10.4273 5.78409 10.4998 5.99892 10.5C6.21384 10.5 6.40502 10.4272 6.53213 10.3145C6.60046 10.2537 6.66525 10.1687 6.70591 10.0457C6.75791 9.88836 6.61461 9.75 6.44892 9.75H5.54892ZM5.99892 0C7.00934 0 7.79835 0.277074 8.40493 0.709641C8.55653 0.817749 8.55208 1.03788 8.40738 1.15505L7.66011 1.76018C7.55789 1.84297 7.41461 1.84757 7.29826 1.7862C6.96087 1.60824 6.53738 1.5 5.99892 1.5C5.35917 1.50014 4.90054 1.65357 4.56338 1.86816C4.22247 2.08542 3.96263 2.39263 3.76553 2.75684C3.3603 3.50589 3.25585 4.42727 3.24013 5.01855C3.23811 5.09463 3.23241 5.17143 3.22347 5.24864C3.2149 5.32261 3.17586 5.38923 3.118 5.43609L1.28749 6.91853C1.0897 7.07871 0.812766 6.93414 0.88386 6.68975C0.965025 6.41075 1.09839 6.14266 1.28506 5.90039L1.56435 5.53809C1.66764 5.404 1.73393 5.21195 1.74013 4.97852C1.75804 4.30504 1.87334 3.10177 2.44619 2.04297C2.73808 1.50357 3.15871 0.985142 3.75771 0.603516C4.36063 0.219623 5.10469 0.000148388 5.99892 0Z"
    fill="currentColor"
  />
</svg>
