<svg width="20" height="20" viewBox="0 0 20 20" fill="none" xmlns="http://www.w3.org/2000/svg" data-fui-icon="true">
  <path
    fill-rule="evenodd"
    clip-rule="evenodd"
    d="M12.5951 18.4997C12.0761 19.3954 11.1101 19.9996 10.0004 19.9996C8.89069 19.9996 7.92464 19.3954 7.4057 18.4997L12.5951 18.4997ZM10.0004 0C12.9079 0.000127329 14.6736 1.35799 15.6888 3.05073C16.6723 4.69105 16.9329 6.60585 16.9963 7.7899C17.0298 8.41429 17.2269 8.9817 17.5852 9.39534L17.9621 9.8299C19.4103 11.501 19.367 13.9944 17.8625 15.6149C17.0428 16.4977 15.8924 16.9996 14.6878 16.9997L5.31296 16.9997C4.10825 16.9997 2.95797 16.4978 2.13822 15.6149C0.63359 13.9944 0.590396 11.501 2.03861 9.8299L2.41556 9.39534C2.77377 8.98169 2.97103 8.41421 3.00441 7.7899C3.06776 6.60587 3.3276 4.69101 4.31103 3.05073C5.32614 1.35791 7.09268 0 10.0004 0Z"
    fill="currentColor"
  />
</svg>
