<svg width="12" height="12" viewBox="0 0 12 12" fill="none" xmlns="http://www.w3.org/2000/svg" data-fui-icon="true">
  <path
    fill-rule="evenodd"
    clip-rule="evenodd"
    d="M7.44343 11C7.64104 11 7.75451 11.2159 7.61453 11.3554C7.58694 11.3829 7.55856 11.4096 7.52939 11.4355C7.09413 11.8223 6.53466 11.9999 6.00009 12C5.46555 11.9999 4.90603 11.8223 4.4708 11.4355C4.44154 11.4095 4.41307 11.3827 4.38539 11.3551C4.24547 11.2157 4.35885 11 4.55639 11H7.44343ZM6.00009 0C7.87796 0.000101395 9.0157 0.991834 9.65439 2.13672C10.2679 3.23662 10.4341 4.48523 10.4815 5.16797C10.4962 5.37843 10.5657 5.54974 10.6661 5.66699L10.8429 5.87305C11.6452 6.80922 11.6452 8.19078 10.8429 9.12695C10.368 9.68066 9.67484 9.99986 8.94541 10H3.05478C2.32538 9.9998 1.63212 9.68067 1.15732 9.12695C0.355112 8.19081 0.355112 6.80919 1.15732 5.87305L1.33408 5.66699C1.43452 5.54974 1.504 5.37848 1.51865 5.16797C1.56604 4.48525 1.73236 3.23661 2.3458 2.13672C2.98446 0.991839 4.1223 0.000169677 6.00009 0Z"
    fill="currentColor"
  />
</svg>
