<svg width="12" height="12" viewBox="0 0 12 12" fill="none" xmlns="http://www.w3.org/2000/svg" data-fui-icon="true">
  <path
    fill-rule="evenodd"
    clip-rule="evenodd"
    d="M7.53836 11C7.7426 11 7.85414 11.2282 7.70219 11.3647C7.69944 11.3671 7.69668 11.3696 7.69391 11.3721C7.20716 11.8046 6.58659 12 5.9986 12C5.41064 11.9999 4.78997 11.8047 4.30329 11.3721C4.30052 11.3696 4.29776 11.3671 4.29501 11.3647C4.14308 11.2282 4.2546 11 4.45884 11H7.53836ZM5.9986 0C7.89308 0 9.10415 0.883804 9.81012 1.98145C10.476 3.01708 10.6657 4.19121 10.7232 4.84961C10.7402 5.04439 10.7992 5.17819 10.8629 5.25586L11.0816 5.52246C11.9344 6.56183 11.9072 8.06654 11.0172 9.07422C10.4972 9.66262 9.74965 9.99989 8.96442 10H3.03278C2.2476 9.99978 1.49993 9.66264 0.980045 9.07422C0.0902145 8.0666 0.0629671 6.56175 0.915592 5.52246L1.13434 5.25586C1.19804 5.17822 1.25695 5.04453 1.27399 4.84961C1.33153 4.19126 1.52123 3.01706 2.18708 1.98145C2.89299 0.883798 4.10424 0.000121508 5.9986 0Z"
    fill="currentColor"
  />
</svg>
