<svg width="32" height="32" viewBox="0 0 32 32" fill="none" xmlns="http://www.w3.org/2000/svg" data-fui-icon="true">
  <path
    fill-rule="evenodd"
    clip-rule="evenodd"
    d="M16.0056 1C20.3537 1.0003 22.9781 3.31529 24.5153 6.02832C26.0303 8.70225 26.5148 11.7886 26.6726 13.5234C26.7446 14.3151 26.9921 15.0534 27.4343 15.6475L28.0124 16.4238C29.4836 18.4003 29.5137 21.1008 28.0866 23.1094C27.0209 24.609 25.2945 25.4998 23.4548 25.5H21.489C21.4159 26.9416 20.9387 28.2634 20.0642 29.2588C19.101 30.3548 17.7039 30.9999 16.0046 31C14.3055 30.9999 12.9064 30.3552 11.9411 29.2598C11.0643 28.2646 10.585 26.9425 10.5114 25.5H8.51338C6.69463 25.4999 4.98561 24.6287 3.91671 23.1572C2.4432 21.1284 2.47361 18.3734 3.9919 16.3779L4.55635 15.6367C5.00478 15.0473 5.25703 14.3094 5.32979 13.5176C5.48939 11.781 5.97682 8.69653 7.49385 6.02441C9.03328 3.31302 11.6592 1 16.0056 1ZM12.0134 25.5C12.0848 26.627 12.4627 27.5825 13.0661 28.2676C13.7291 29.02 14.7088 29.4999 16.0046 29.5C17.3001 29.4999 18.2766 29.0202 18.9372 28.2686C19.5388 27.5837 19.916 26.6279 19.987 25.5L12.0134 25.5ZM16.0056 2.5C12.32 2.5 10.1371 4.40724 8.79854 6.76465C7.43775 9.16151 6.97646 11.9956 6.82393 13.6553C6.73062 14.6703 6.3999 15.6903 5.74971 16.5449L5.18624 17.2861C4.06873 18.7548 4.04616 20.7822 5.13057 22.2754C5.91726 23.3583 7.17486 23.9999 8.51338 24L23.4548 24C24.8089 23.9998 26.0796 23.344 26.864 22.2402C27.9143 20.762 27.892 18.775 26.8093 17.3203L26.2312 16.543C25.593 15.6856 25.2703 14.6694 25.1784 13.6592C25.0276 12.0011 24.5695 9.16593 23.2107 6.76758C21.8742 4.40884 19.6924 2.50029 16.0056 2.5Z"
    fill="currentColor"
  />
</svg>
