<svg width="20" height="20" viewBox="0 0 20 20" fill="none" xmlns="http://www.w3.org/2000/svg" data-fui-icon="true">
  <path
    fill-rule="evenodd"
    clip-rule="evenodd"
    d="M9.99991 1C12.7181 1.00008 14.3843 2.37601 15.3573 3.99609C16.305 5.57397 16.6036 7.38259 16.7011 8.3877C16.7397 8.78579 16.8691 9.13747 17.0819 9.40527L17.3778 9.77832C18.3783 11.0373 18.4011 12.814 17.4325 14.0977C16.766 14.9809 15.7226 15.4999 14.6161 15.5H13.4989C13.481 17.6025 11.8825 18.9999 9.99991 19C8.11732 19 6.51881 17.6025 6.50089 15.5H5.3837C4.2773 15.5 3.23483 14.9807 2.56827 14.0977C1.59962 12.814 1.62154 11.0373 2.62198 9.77832L2.91886 9.40527C3.1315 9.13751 3.26113 8.78558 3.29972 8.3877C3.39721 7.38256 3.69576 5.57397 4.64347 3.99609C5.61659 2.37617 7.28191 1.00005 9.99991 1ZM8.00187 15.5C8.01869 16.7318 8.90372 17.5 9.99991 17.5C11.0961 17.4999 11.9811 16.7317 11.998 15.5H8.00187ZM9.99991 2.5C7.90005 2.50004 6.68135 3.51537 5.92862 4.76855C5.1506 6.06394 4.88129 7.61078 4.79191 8.53223C4.73121 9.15809 4.51992 9.8013 4.09269 10.3389L3.79679 10.7109C3.22164 11.4346 3.20877 12.4565 3.76554 13.1943C4.14865 13.7017 4.74792 14 5.3837 14L14.6161 14C15.2518 13.9999 15.8512 13.7016 16.2343 13.1943C16.791 12.4565 16.7781 11.4345 16.203 10.7109L15.9071 10.3389C15.4799 9.80131 15.2686 9.15808 15.2079 8.53223C15.1185 7.6108 14.8492 6.06393 14.0712 4.76855C13.3185 3.51538 12.0997 2.50007 9.99991 2.5Z"
    fill="currentColor"
  />
</svg>
