<svg width="32" height="32" viewBox="0 0 32 32" fill="none" xmlns="http://www.w3.org/2000/svg" data-fui-icon="true">
  <path
    d="M20.693 27.5C20.8691 27.5 20.9895 27.6774 20.9153 27.8371C20.0229 29.7565 18.1907 30.9999 16.0049 31C13.8206 30.9997 11.9827 29.7574 11.0872 27.8373C11.0127 27.6776 11.1331 27.5 11.3094 27.5H20.693ZM16.0049 1C20.4332 1.00009 23.1289 3.31544 24.707 6.03125C26.2537 8.69322 26.7514 11.7606 26.916 13.4961C26.9905 14.2818 27.2237 15.0033 27.6328 15.5879L28.3125 16.5596C29.7583 18.6253 29.7583 21.3747 28.3125 23.4404C27.1897 25.0442 25.3542 26 23.3965 26H8.60352C6.64592 25.9998 4.81013 25.0442 3.6875 23.4404C2.24208 21.3748 2.24207 18.6251 3.6875 16.5596L4.36816 15.5869C4.77702 15.0028 5.00995 14.2821 5.08496 13.4971C5.25065 11.762 5.75041 8.69359 7.29883 6.03125C8.87858 3.31533 11.5763 1.00026 16.0049 1Z"
    fill="currentColor"
  />
</svg>
