<svg width="32" height="32" viewBox="0 0 32 32" fill="none" xmlns="http://www.w3.org/2000/svg" data-fui-icon="true">
  <path
    fill-rule="evenodd"
    clip-rule="evenodd"
    d="M16.0055 1C20.3538 1.00014 22.9779 3.31525 24.5153 6.02832C26.0303 8.70226 26.5147 11.7885 26.6725 13.5234C26.7445 14.3151 26.9921 15.0534 27.4342 15.6475L28.0123 16.4238C29.4837 18.4004 29.5139 21.1007 28.0865 23.1094C27.0207 24.6091 25.2946 25.4999 23.4547 25.5H21.4889C21.4158 26.9416 20.9395 28.2634 20.0651 29.2588C19.1019 30.3549 17.7049 30.9999 16.0055 31C14.3063 31 12.9074 30.3552 11.942 29.2598C11.0652 28.2646 10.5859 26.9426 10.5123 25.5H8.5133C6.69455 25.4998 4.98547 24.6288 3.91662 23.1572C2.44324 21.1285 2.47363 18.3734 3.99181 16.3779L4.55627 15.6367C5.0048 15.0473 5.25693 14.3095 5.3297 13.5176C5.4893 11.781 5.97675 8.69654 7.49377 6.02441C9.03315 3.31298 11.6591 1.00009 16.0055 1ZM12.0143 25.5C12.0857 26.627 12.4636 27.5825 13.067 28.2676C13.73 29.02 14.7096 29.5 16.0055 29.5C17.3011 29.4999 18.2775 29.0203 18.9381 28.2686C19.5397 27.5837 19.9168 26.628 19.9879 25.5L12.0143 25.5ZM16.0055 2.5C12.32 2.50008 10.137 4.4072 8.79845 6.76465C7.43768 9.16152 6.97636 11.9956 6.82385 13.6553C6.73052 14.6704 6.39993 15.6903 5.74963 16.5449L5.18615 17.2861C4.06875 18.7547 4.0462 20.7822 5.13049 22.2754C5.91712 23.3584 7.17478 23.9998 8.5133 24L23.4547 24C24.8089 23.9999 26.0794 23.3441 26.8639 22.2402C27.9144 20.7619 27.8921 18.7751 26.8092 17.3203L26.2311 16.543C25.593 15.6856 25.2702 14.6694 25.1783 13.6592C25.0275 12.001 24.5694 9.16595 23.2106 6.76758C21.874 4.4088 19.6925 2.50013 16.0055 2.5Z"
    fill="currentColor"
  />
</svg>
