<svg
  width="12"
  height="12"
  viewBox="0 0 12 12"
  fill="none"
  xmlns="http://www.w3.org/2000/svg"
  data-fui-icon="true"
>
  <g
    clip-path="url(#clip0_882_392)"
    stroke="currentColor"
    stroke-width="1.5"
    stroke-linecap="round"
    stroke-linejoin="round"
  >
    <circle cx="6" cy="6" r="5.25" />
    <path
      d="M3.75 3.75H7.125C7.74632 3.75 8.25 4.25368 8.25 4.875V4.875C8.25 5.49633 7.74632 6.00001 7.125 6.00001H4.77634M3.75 8.25002H7.125C7.74632 8.25002 8.25 7.74633 8.25 7.12501V7.12501C8.25 6.50369 7.74632 6.00001 7.125 6.00001H4.77634M4.75741 3.75001L4.75742 6M4.75741 8.25001L4.75742 6.00002M5.25 2.75L5.25 3.75M5.25 8.25002L5.25 9.25002M7.25 2.75L7.25 3.75M7.25 8.25002L7.25 9.25002"
    />
  </g>
  <defs>
    <clipPath id="clip0_882_392">
      <path fill="currentColor" d="M0 0H12V12H0z" />
    </clipPath>
  </defs>
</svg>
