<svg width="32" height="32" viewBox="0 0 32 32" fill="none" xmlns="http://www.w3.org/2000/svg" data-fui-icon="true">
  <path
    d="M22.75 1C27.3063 1 31 4.69365 31 9.25V20.125C31 20.5392 30.6642 20.875 30.25 20.875C29.8358 20.875 29.5 20.5392 29.5 20.125V9.25C29.5 5.52208 26.4779 2.5 22.75 2.5H9.25C5.52208 2.5 2.5 5.52208 2.5 9.25V22.75C2.5 26.4779 5.52208 29.5 9.25 29.5H20.125C20.5392 29.5 20.875 29.8358 20.875 30.25C20.875 30.6642 20.5392 31 20.125 31H9.25C4.69365 31 1 27.3063 1 22.75V9.25C1 4.69365 4.69365 1 9.25 1H22.75ZM25.75 20.5C26.1642 20.5 26.5 20.8358 26.5 21.25V25H30.25C30.6642 25 31 25.3358 31 25.75C31 26.1642 30.6642 26.5 30.25 26.5H26.5V30.25C26.5 30.6642 26.1642 31 25.75 31C25.3358 31 25 30.6642 25 30.25V26.5H21.25C20.8358 26.5 20.5 26.1642 20.5 25.75C20.5 25.3358 20.8358 25 21.25 25H25V21.25C25 20.8358 25.3358 20.5 25.75 20.5Z"
    fill="currentColor"
  />
</svg>
