<svg width="24" height="24" viewBox="0 0 24 24" fill="none" xmlns="http://www.w3.org/2000/svg" data-fui-icon="true">
  <path
    d="M16.25 0C20.5302 0 24 3.46979 24 7.75V14.625C24 15.0392 23.6642 15.375 23.25 15.375C22.8358 15.375 22.5 15.0392 22.5 14.625V7.75C22.5 4.29822 19.7018 1.5 16.25 1.5H7.75C4.29822 1.5 1.5 4.29822 1.5 7.75V16.25C1.5 19.7018 4.29822 22.5 7.75 22.5H14.625C15.0392 22.5 15.375 22.8358 15.375 23.25C15.375 23.6642 15.0392 24 14.625 24H7.75C3.46979 24 0 20.5302 0 16.25V7.75C0 3.46979 3.46979 2.57702e-07 7.75 0H16.25ZM19.75 15.5C20.1642 15.5 20.5 15.8358 20.5 16.25V19H23.25C23.6642 19 24 19.3358 24 19.75C24 20.1642 23.6642 20.5 23.25 20.5H20.5V23.25C20.5 23.6642 20.1642 24 19.75 24C19.3358 24 19 23.6642 19 23.25V20.5H16.25C15.8358 20.5 15.5 20.1642 15.5 19.75C15.5 19.3358 15.8358 19 16.25 19H19V16.25C19 15.8358 19.3358 15.5 19.75 15.5Z"
    fill="currentColor"
  />
</svg>
