<svg width="16" height="16" viewBox="0 0 16 16" fill="none" xmlns="http://www.w3.org/2000/svg" data-fui-icon="true">
  <path
    fill-rule="evenodd"
    clip-rule="evenodd"
    d="M7.51108 0.429165C8.09704 -0.366205 9.40044 0.0346962 9.40073 1.06002V5.50045H12.6019C13.5014 5.50068 14.0528 6.48726 13.5814 7.25338L8.51206 15.4907C7.95718 16.3917 6.56841 15.9989 6.56772 14.9409V10.5005H3.36655C2.46704 10.5004 1.91592 9.51368 2.38706 8.74752L7.4564 0.510219L7.51108 0.429165ZM3.99253 9.00045H6.91733C7.55246 9.00045 8.06772 9.51572 8.06772 10.1508V13.3491L11.975 7.00045H9.05112C8.41616 7.00044 7.90097 6.48498 7.90073 5.85006V2.64987L3.99253 9.00045Z"
    fill="currentColor"
  />
</svg>
