<svg width="12" height="12" viewBox="0 0 12 12" fill="none" xmlns="http://www.w3.org/2000/svg" data-fui-icon="true">
  <path
    d="M0.488281 1.74731C1.79246 0.970808 3.15346 0.830039 4.32955 1.17748C4.43215 1.20779 4.5 1.30361 4.5 1.41059V10.4654C4.5 10.6641 4.2761 10.7873 4.09527 10.7049C3.34332 10.3619 2.39853 10.3006 1.46875 10.7942C1.15885 10.9586 0.785046 10.9486 0.484375 10.7678C0.183872 10.5869 0 10.2612 0 9.9104V2.60669C0.000201637 2.25446 0.185616 1.92754 0.488281 1.74731ZM7.5 1.41059C7.5 1.30361 7.56785 1.20779 7.67045 1.17748C8.84654 0.83004 10.2075 0.970811 11.5117 1.74731C11.8144 1.92754 11.9998 2.25445 12 2.60669V9.9104C12 10.2612 11.8161 10.5869 11.5156 10.7678C11.215 10.9486 10.8412 10.9586 10.5312 10.7942C9.60147 10.3006 8.65668 10.3619 7.90473 10.7049C7.7239 10.7873 7.5 10.6641 7.5 10.4654V1.41059Z"
    fill="currentColor"
  />
</svg>
