<svg width="32" height="32" viewBox="0 0 32 32" fill="none" xmlns="http://www.w3.org/2000/svg" data-fui-icon="true">
  <path
    d="M23.3799 3C26.4643 3.00001 29.738 4.18611 30.9355 6.87988C30.9781 6.97569 31 7.07973 31 7.18457V28.249C31 28.5569 30.8117 28.8332 30.5254 28.9463C30.2389 29.0593 29.9124 28.9858 29.7021 28.7607C28.1952 27.1478 25.544 26.2755 22.8711 26.2754C20.1829 26.2754 17.7558 27.1542 16.6016 28.6982C16.4601 28.8875 16.2372 28.9988 16.001 28.999C15.7645 28.999 15.541 28.8877 15.3994 28.6982C14.2453 27.1541 11.8181 26.2755 9.12988 26.2754C6.45705 26.2755 3.80577 27.1479 2.29883 28.7607C2.08863 28.9858 1.76205 29.0592 1.47559 28.9463C1.18925 28.8332 1.00098 28.5569 1.00098 28.249V7.18457C1.00102 7.07973 1.02284 6.97569 1.06543 6.87988C2.26304 4.18623 5.53676 3 8.62109 3C11.3447 3.00015 14.2772 3.91853 16 5.90918C17.7228 3.91824 20.656 3.00009 23.3799 3ZM8.62109 4.5C5.8379 4.5 3.39666 5.5513 2.50098 7.35352V26.6338C4.3543 25.373 6.80277 24.7755 9.12988 24.7754C11.3414 24.7754 13.6067 25.3167 15.251 26.4932V7.40039C14.0318 5.53705 11.3741 4.50016 8.62109 4.5ZM23.3799 4.5C20.6274 4.5001 17.9706 5.53683 16.751 7.39941V26.4932C18.3953 25.317 20.6598 24.7754 22.8711 24.7754C25.1983 24.7755 27.6467 25.373 29.5 26.6338V7.35254C28.6041 5.55069 26.1627 4.50001 23.3799 4.5Z"
    fill="currentColor"
  />
</svg>
