<svg width="16" height="16" viewBox="0 0 16 16" fill="none" xmlns="http://www.w3.org/2000/svg" data-fui-icon="true">
  <path
    d="M1.48242 2.89606C3.35684 1.75224 5.31756 1.76783 6.85063 2.5921C6.94462 2.64264 7.00098 2.74195 7.00098 2.84867V13.6011C7.00098 13.8768 6.6402 14.0242 6.41715 13.8621C5.4006 13.1233 3.92465 12.8221 2.48047 13.608C2.17084 13.7762 1.79519 13.7693 1.49219 13.5894C1.189 13.4092 1.00294 13.0818 1.00293 12.7291V3.74957C1.00295 3.40106 1.18496 3.07765 1.48242 2.89606ZM9.00098 2.8468C9.00098 2.74004 9.05739 2.64069 9.15145 2.59018C10.6846 1.76685 12.6457 1.75247 14.5195 2.89606C14.817 3.07765 14.998 3.40106 14.998 3.74957V12.7291C14.998 13.0818 14.8129 13.4092 14.5098 13.5894C14.2066 13.7695 13.8303 13.7765 13.5205 13.608C12.0764 12.8222 10.6011 13.1233 9.58479 13.8621C9.36174 14.0242 9.00098 13.8768 9.00098 13.6011V2.8468Z"
    fill="currentColor"
  />
</svg>
