<svg width="12" height="12" viewBox="0 0 12 12" fill="none" xmlns="http://www.w3.org/2000/svg" data-fui-icon="true">
  <path
    d="M8.58887 1C9.22056 0.999983 9.87549 1.11231 10.4521 1.36426C11.0257 1.61493 11.59 2.03651 11.9023 2.69043C11.9666 2.82488 11.9999 2.9721 12 3.12109V10C12 10.4041 11.7569 10.7688 11.3838 10.9238C11.0106 11.0788 10.5802 10.9932 10.2939 10.708C9.95451 10.3702 9.24379 10.1104 8.41113 10.1104C7.55463 10.1104 6.97708 10.3797 6.7793 10.626C6.58949 10.8623 6.30309 11 6 11C5.69691 11 5.41051 10.8623 5.2207 10.626C5.02292 10.3797 4.44537 10.1104 3.58887 10.1104C2.75621 10.1104 2.04549 10.3702 1.70605 10.708C1.41976 10.9932 0.989417 11.0788 0.616211 10.9238C0.24305 10.7688 0 10.4041 0 10V3.12109C6.90462e-05 2.9721 0.0334376 2.82488 0.0976562 2.69043C0.410033 2.03652 0.974348 1.61492 1.54785 1.36426C2.1245 1.11231 2.77944 0.999986 3.41113 1C4.24626 1.00008 5.22971 1.20677 6 1.73047C6.77029 1.20677 7.75374 1.00009 8.58887 1ZM3.41113 3C3.00116 2.99999 2.62764 3.07439 2.34863 3.19629C2.17988 3.27004 2.07128 3.35188 2 3.42383V8.33301C2.52706 8.17941 3.07652 8.11039 3.58887 8.11035C4.04053 8.11035 4.5289 8.16555 5 8.29297V3.48535C4.70467 3.2243 4.14137 3.00011 3.41113 3ZM8.58887 3C7.85863 3.00011 7.29533 3.22429 7 3.48535V8.29297C7.4711 8.16555 7.95947 8.11035 8.41113 8.11035C8.92348 8.11039 9.47294 8.17941 10 8.33301V3.42383C9.92872 3.35187 9.82012 3.27004 9.65137 3.19629C9.37237 3.07439 8.99884 2.99999 8.58887 3Z"
    fill="currentColor"
  />
</svg>
