<svg width="16" height="16" viewBox="0 0 16 16" fill="none" xmlns="http://www.w3.org/2000/svg" data-fui-icon="true">
  <path
    d="M1.48242 2.896C3.14711 1.88018 4.87956 1.77949 6.32039 2.34706C6.43104 2.39065 6.50098 2.49912 6.50098 2.61804V13.3166C6.50098 13.5656 6.2092 13.713 5.99029 13.5944C5.01025 13.0634 3.73367 12.926 2.48047 13.6079C2.1709 13.7761 1.79515 13.7692 1.49219 13.5894C1.18919 13.4092 1.00306 13.0815 1.00293 12.729V3.74951C1.00306 3.40115 1.18509 3.07754 1.48242 2.896ZM9.50098 2.61619C9.50098 2.49722 9.57098 2.38871 9.68169 2.34516C11.1226 1.77845 12.8553 1.88043 14.5195 2.896C14.8168 3.07755 14.9979 3.40119 14.998 3.74951V12.729C14.9979 13.0816 14.8128 13.4092 14.5098 13.5894C14.2066 13.7694 13.8302 13.7763 13.5205 13.6079C12.2675 12.9262 10.9914 13.0635 10.0117 13.5944C9.79277 13.713 9.50098 13.5656 9.50098 13.3166V2.61619Z"
    fill="currentColor"
  />
</svg>
