<svg width="12" height="12" viewBox="0 0 12 12" fill="none" xmlns="http://www.w3.org/2000/svg" data-fui-icon="true">
  <path
    fill-rule="evenodd"
    clip-rule="evenodd"
    d="M0.488281 1.74784C2.09887 0.788872 3.7943 0.803007 5.12293 1.5051C5.20222 1.547 5.25 1.63032 5.25 1.72001V11.5582C5.25 11.5837 5.21755 11.5963 5.20215 11.576C4.4923 10.6379 2.96082 10.0026 1.46875 10.7947C1.1589 10.9591 0.784996 10.949 0.484375 10.7683C0.183913 10.5875 8.36611e-05 10.2616 0 9.91092V2.60721C0.000165299 2.25498 0.185648 1.92809 0.488281 1.74784ZM6.75 1.72001C6.75 1.63032 6.79778 1.547 6.87707 1.5051C8.2057 0.803009 9.90113 0.788875 11.5117 1.74784C11.8144 1.92809 11.9998 2.25498 12 2.60721V9.91092C11.9999 10.2616 11.8161 10.5875 11.5156 10.7683C11.215 10.949 10.8411 10.9591 10.5312 10.7947C9.03918 10.0026 7.5077 10.6379 6.79785 11.576C6.78245 11.5963 6.75 11.5837 6.75 11.5582V1.72001Z"
    fill="currentColor"
  />
</svg>
