<svg width="32" height="32" viewBox="0 0 32 32" fill="none" xmlns="http://www.w3.org/2000/svg" data-fui-icon="true">
  <path
    d="M1.46191 4.98718C4.47286 3.06193 7.59169 2.59826 10.3545 3.32507C11.7982 3.70499 13.1208 4.40384 14.2617 5.35797C14.4152 5.48635 14.5 5.67787 14.5 5.87798V27.9223C14.5 28.5557 13.6835 28.902 13.1581 28.5483C10.4766 26.7433 6.50428 26.373 2.49609 28.6581C2.18669 28.8345 1.80704 28.833 1.49902 28.6542C1.19105 28.4752 1.00105 28.1461 1.00098 27.7899V5.82898C1.0012 5.48826 1.17494 5.17087 1.46191 4.98718ZM21.6455 3.32507C24.4084 2.59827 27.5271 3.06183 30.5381 4.98718C30.8251 5.17087 30.9988 5.48826 30.999 5.82898V27.7899C30.9989 28.1459 30.8096 28.4751 30.502 28.6542C30.1939 28.8331 29.8134 28.8345 29.5039 28.6581C25.4957 26.3729 21.5234 26.7433 18.8419 28.5483C18.3165 28.902 17.5 28.5557 17.5 27.9223V5.87798C17.5 5.67787 17.5848 5.48635 17.7383 5.35797C18.8792 4.40383 20.2018 3.70497 21.6455 3.32507Z"
    fill="currentColor"
  />
</svg>
