<svg width="20" height="20" viewBox="0 0 20 20" fill="none" xmlns="http://www.w3.org/2000/svg" data-fui-icon="true">
  <path
    d="M14.4785 1.07703C16.268 1.0845 18.0677 1.67377 19.3799 2.703C19.8054 3.03692 20 3.53863 20 4.01453V17.7675C19.9998 18.1991 19.725 18.5112 19.4248 18.6434C19.1293 18.7735 18.7344 18.7659 18.4199 18.5126C17.4026 17.6929 15.8467 17.2677 14.2871 17.3173C12.7186 17.3672 11.3247 17.8892 10.5605 18.7489C10.4182 18.9088 10.2141 19.0009 10 19.0009C9.78592 19.0009 9.58177 18.9088 9.43945 18.7489C8.6753 17.8892 7.28137 17.3672 5.71289 17.3173C4.1533 17.2677 2.59742 17.6929 1.58008 18.5126C1.26558 18.7659 0.870723 18.7735 0.575195 18.6434C0.275027 18.5112 0.000177077 18.1991 0 17.7675V4.0116C1.47424e-05 3.53308 0.196432 3.03548 0.620117 2.703C1.93229 1.67379 3.73201 1.08451 5.52148 1.07703C7.09077 1.07051 8.70755 1.51323 10 2.56238C11.2924 1.51323 12.9092 1.07051 14.4785 1.07703ZM5.52832 2.57703C4.03928 2.58321 2.57084 3.07974 1.5459 3.88367C1.53035 3.89611 1.50001 3.93275 1.5 4.0116V16.7694C2.75928 16.0746 4.30045 15.7708 5.76074 15.8173C6.97939 15.856 8.22167 16.1432 9.25 16.7177V3.89539C8.24936 2.98748 6.91127 2.57136 5.52832 2.57703ZM14.4717 2.57703C13.0887 2.57136 11.7506 2.98747 10.75 3.89539V16.7177C11.7783 16.1432 13.0206 15.856 14.2393 15.8173C15.6996 15.7708 17.2407 16.0746 18.5 16.7694V4.01453C18.5 3.93319 18.4679 3.8948 18.4541 3.88367C17.4292 3.07973 15.9607 2.58321 14.4717 2.57703Z"
    fill="currentColor"
  />
</svg>
