<svg width="20" height="20" viewBox="0 0 20 20" fill="none" xmlns="http://www.w3.org/2000/svg" data-fui-icon="true">
  <path
    fill-rule="evenodd"
    clip-rule="evenodd"
    d="M13.1211 2.1974C14.8218 1.75684 16.7224 2.04487 18.5322 3.18471C18.8225 3.36777 18.9989 3.68724 18.999 4.03041V16.3869C18.999 16.7418 18.8101 17.0707 18.5039 17.2501C18.1976 17.4293 17.8193 17.4325 17.5098 17.2589C14.8498 15.7652 12.1094 16.9562 10.8154 18.7648C10.7946 18.7939 10.751 18.7779 10.751 18.742V3.59532C10.751 3.47514 10.8046 3.36074 10.8999 3.28754C11.5572 2.78269 12.3067 2.40847 13.1211 2.1974ZM1.4707 3.18471C3.28056 2.04502 5.18113 1.75671 6.88184 2.1974C7.69604 2.40848 8.44512 2.78275 9.10213 3.28754C9.19741 3.36074 9.25098 3.47513 9.25098 3.59528V18.7426C9.25098 18.7771 9.20854 18.7928 9.18848 18.7648C7.89489 16.9558 5.15344 15.7654 2.49316 17.2589C2.18369 17.4326 1.80537 17.4293 1.49902 17.2501C1.19255 17.0707 1.00293 16.742 1.00293 16.3869V4.03041C1.0031 3.68717 1.18034 3.36775 1.4707 3.18471Z"
    fill="currentColor"
  />
</svg>
