<svg width="24" height="24" viewBox="0 0 24 24" fill="none" xmlns="http://www.w3.org/2000/svg" data-fui-icon="true">
  <path
    fill-rule="evenodd"
    clip-rule="evenodd"
    d="M12 0.399902C18.4063 0.400166 23.5996 5.59415 23.5996 12.0005C23.5993 18.4066 18.4061 23.5998 12 23.6001C5.59366 23.6001 0.400655 18.4068 0.400391 12.0005C0.400391 5.59399 5.5935 0.399902 12 0.399902ZM12 4.90088C8.07878 4.90088 4.90039 8.07927 4.90039 12.0005C4.90065 15.9215 8.07894 19.1001 12 19.1001C15.9208 19.0998 19.0993 15.9213 19.0996 12.0005C19.0996 8.07943 15.921 4.90114 12 4.90088ZM12 6.6001C14.9821 6.60036 17.4004 9.01831 17.4004 12.0005C17.4001 14.9824 14.982 17.4006 12 17.4009C9.01783 17.4009 6.59987 14.9826 6.59961 12.0005C6.59961 9.01815 9.01766 6.6001 12 6.6001ZM12 10.2427C11.0291 10.2427 10.2422 11.0296 10.2422 12.0005C10.2423 12.9713 11.0292 13.7583 12 13.7583C12.9708 13.7582 13.7577 12.9712 13.7578 12.0005C13.7578 11.0296 12.9709 10.2428 12 10.2427Z"
    fill="currentColor"
  />
</svg>
