<svg width="20" height="20" viewBox="0 0 20 20" fill="none" xmlns="http://www.w3.org/2000/svg" data-fui-icon="true">
  <path
    d="M10 0.5C15.2467 0.5 19.5 4.75329 19.5 10C19.5 15.2467 15.2467 19.5 10 19.5C4.75329 19.5 0.5 15.2467 0.5 10C0.5 4.75329 4.75329 0.5 10 0.5ZM10 2.5C5.85786 2.5 2.5 5.85786 2.5 10C2.5 14.1421 5.85786 17.5 10 17.5C14.1421 17.5 17.5 14.1421 17.5 10C17.5 5.85786 14.1421 2.5 10 2.5ZM10 4.40039C13.0924 4.40065 15.6004 6.90755 15.6006 10C15.6004 13.0925 13.0924 15.6003 10 15.6006C6.90752 15.6004 4.4006 13.0925 4.40039 10C4.4006 6.90752 6.90752 4.4006 10 4.40039ZM10 6.40039C8.01208 6.4006 6.4006 8.01208 6.40039 10C6.4006 11.9879 8.01208 13.6004 10 13.6006C11.9879 13.6003 13.6004 11.9879 13.6006 10C13.6004 8.01212 11.9879 6.40065 10 6.40039ZM10 8.25C10.9665 8.25 11.75 9.0335 11.75 10C11.75 10.9665 10.9665 11.75 10 11.75C9.0335 11.75 8.25 10.9665 8.25 10C8.25 9.0335 9.0335 8.25 10 8.25Z"
    fill="currentColor"
  />
</svg>
