<svg width="32" height="32" viewBox="0 0 32 32" fill="none" xmlns="http://www.w3.org/2000/svg" data-fui-icon="true">
  <path
    d="M16 0.5C24.5604 0.5 31.5 7.43959 31.5 16C31.5 24.5604 24.5604 31.5 16 31.5C7.43959 31.5 0.5 24.5604 0.5 16C0.5 7.43959 7.43959 0.5 16 0.5ZM16 6.75C10.8914 6.75 6.75 10.8914 6.75 16C6.75 21.1086 10.8914 25.25 16 25.25C21.1086 25.25 25.25 21.1086 25.25 16C25.25 10.8914 21.1086 6.75 16 6.75ZM16 8.75C20.0041 8.75 23.25 11.9959 23.25 16C23.25 20.0041 20.0041 23.25 16 23.25C11.9959 23.25 8.75 20.0041 8.75 16C8.75 11.9959 11.9959 8.75 16 8.75ZM16.002 13.7783C14.7741 13.7786 13.7786 14.7741 13.7783 16.002C13.7783 17.23 14.7739 18.2253 16.002 18.2256C17.2302 18.2256 18.2256 17.2302 18.2256 16.002C18.2253 14.7739 17.23 13.7783 16.002 13.7783Z"
    fill="currentColor"
  />
</svg>
