<svg width="12" height="12" viewBox="0 0 12 12" fill="none" xmlns="http://www.w3.org/2000/svg" data-fui-icon="true">
  <path
    d="M6 0C9.31354 0.000105659 11.9999 2.68647 12 6C11.9999 9.31355 9.31355 11.9999 6 12C2.68636 12 0.000105659 9.31362 0 6C0.00013194 2.6864 2.68637 0 6 0ZM6 3C4.34323 3 3.00013 4.34326 3 6C3.00011 7.65676 4.34321 9 6 9C7.6567 8.99989 8.99989 7.6567 9 6C8.99987 4.34332 7.65668 3.00011 6 3ZM6 4.59961C6.77303 4.59971 7.39928 5.22698 7.39941 6C7.39931 6.77304 6.77304 7.39931 6 7.39941C5.22687 7.39941 4.59971 6.77311 4.59961 6C4.59974 5.22691 5.22688 4.59961 6 4.59961Z"
    fill="currentColor"
  />
</svg>
