<svg width="24" height="24" viewBox="0 0 24 24" fill="none" xmlns="http://www.w3.org/2000/svg" data-fui-icon="true">
  <path
    fill-rule="evenodd"
    clip-rule="evenodd"
    d="M19 14.25C19.6904 14.25 20.25 14.8096 20.25 15.5V17.75H22.5C23.1904 17.75 23.75 18.3096 23.75 19C23.75 19.6903 23.1903 20.25 22.5 20.25H20.25V22.5C20.25 23.1904 19.6904 23.75 19 23.75C18.3096 23.75 17.75 23.1904 17.75 22.5V20.25H15.5C14.8097 20.25 14.25 19.6903 14.25 19C14.25 18.3096 14.8096 17.75 15.5 17.75H17.75V15.5C17.75 14.8096 18.3096 14.25 19 14.25ZM12 0.548828C18.3234 0.549092 23.4502 5.67748 23.4502 12.001C23.4501 13.2299 23.254 14.4128 22.8955 15.5225C22.7657 15.5079 22.6337 15.5 22.5 15.5C22.5 14.3213 21.9165 13.2797 21.0234 12.6455C21.0385 12.4325 21.0498 12.2178 21.0498 12.001C21.0498 7.00296 16.998 2.95144 12 2.95117C7.00182 2.95117 2.9502 7.0028 2.9502 12.001C2.95072 16.9987 7.00215 21.0508 12 21.0508C12.2171 21.0508 12.4322 21.0395 12.6455 21.0244C13.2798 21.9171 14.3215 22.5 15.5 22.5C15.5 22.6334 15.5079 22.765 15.5225 22.8945C14.4124 23.2533 13.2294 23.4511 12 23.4512C5.67667 23.4512 0.550332 18.3242 0.549805 12.001C0.549805 5.67732 5.67634 0.548828 12 0.548828ZM11.999 5.2002C15.7544 5.2002 18.7995 8.24469 18.7998 12C18.7998 12.002 18.7988 12.0039 18.7988 12.0059C17.7029 12.068 16.7424 12.6344 16.1445 13.4766C16.309 13.0149 16.3994 12.518 16.3994 12C16.3991 9.57017 14.4289 7.60059 11.999 7.60059C9.56931 7.6008 7.59987 9.5703 7.59961 12C7.59987 14.4297 9.56931 16.4002 11.999 16.4004C12.5176 16.4004 13.0145 16.3083 13.4766 16.1436C12.6339 16.7416 12.0677 17.7033 12.0059 18.7998C12.0036 18.7998 12.0013 18.8008 11.999 18.8008C8.24383 18.8006 5.19948 15.7552 5.19922 12C5.19948 8.24482 8.24383 5.20041 11.999 5.2002ZM15.667 14.4287C15.5586 14.7663 15.5 15.1263 15.5 15.5C15.1267 15.5 14.7671 15.5587 14.4297 15.667C14.9203 15.3411 15.3413 14.9195 15.667 14.4287ZM12.207 9.93066C13.2531 10.037 14.0701 10.921 14.0703 11.9951C14.07 13.1407 13.1407 14.07 11.9951 14.0703C10.9208 14.0703 10.037 13.2533 9.93066 12.207L9.91992 11.9951L9.93066 11.7832C10.037 10.7369 10.9208 9.91992 11.9951 9.91992L12.207 9.93066Z"
    fill="currentColor"
  />
</svg>
