<svg width="32" height="32" viewBox="0 0 32 32" fill="none" xmlns="http://www.w3.org/2000/svg" data-fui-icon="true">
  <path
    d="M16 0.5C24.5604 0.5 31.5 7.43959 31.5 16C31.5 18.2498 31.0193 20.3871 30.1572 22.3164C29.945 22.2728 29.7252 22.25 29.5 22.25H28.75V21.5C28.75 21.2285 28.716 20.965 28.6533 20.7129C29.2001 19.2455 29.5 17.6579 29.5 16C29.5 8.54416 23.4558 2.5 16 2.5C8.54416 2.5 2.5 8.54416 2.5 16C2.5 23.4558 8.54416 29.5 16 29.5C17.6579 29.5 19.2455 29.2001 20.7129 28.6533C20.965 28.716 21.2285 28.75 21.5 28.75H22.25V29.5C22.25 29.7252 22.2728 29.945 22.3164 30.1572C20.3871 31.0193 18.2498 31.5 16 31.5C7.43959 31.5 0.5 24.5604 0.5 16C0.5 7.43959 7.43959 0.5 16 0.5ZM16 7.06836C20.9325 7.06851 24.9307 11.0674 24.9307 16C24.9306 16.8223 24.8164 17.6178 24.6084 18.374C23.247 18.7616 22.25 20.0143 22.25 21.5V22.25H21.5C20.014 22.25 18.7613 23.2475 18.374 24.6094C17.6178 24.8175 16.8223 24.9316 16 24.9316C11.0676 24.9314 7.06845 20.9325 7.06836 16C7.06836 11.0674 11.0675 7.06856 16 7.06836ZM16 9.06836C12.1721 9.06856 9.06836 12.1719 9.06836 16C9.06845 19.828 12.1722 22.9314 16 22.9316C19.8279 22.9315 22.9306 19.828 22.9307 16C22.9307 12.1719 19.8279 9.06851 16 9.06836ZM16.002 13.7783C17.23 13.7783 18.2253 14.7739 18.2256 16.002C18.2256 17.2302 17.2302 18.2256 16.002 18.2256C14.7739 18.2253 13.7783 17.23 13.7783 16.002C13.7786 14.7741 14.7741 13.7786 16.002 13.7783Z"
    fill="currentColor"
  />
  <path
    d="M25.5 21V25.5M25.5 30V25.5M25.5 25.5H21M25.5 25.5H30"
    stroke="currentColor"
    stroke-width="1.5"
    stroke-linecap="round"
    stroke-linejoin="round"
  />
</svg>
