<svg width="16" height="16" viewBox="0 0 16 16" fill="none" xmlns="http://www.w3.org/2000/svg" data-fui-icon="true">
  <path
    d="M7.99805 0.465332C12.1582 0.465464 15.5302 3.83827 15.5303 7.99854C15.5302 12.1588 12.1582 15.5316 7.99805 15.5317C3.83783 15.5316 0.464907 12.1588 0.464844 7.99854C0.464907 3.83826 3.83783 0.465444 7.99805 0.465332ZM7.99805 1.71533C4.52821 1.71544 1.71491 4.52859 1.71484 7.99854C1.71491 11.4685 4.52821 14.2816 7.99805 14.2817C11.4679 14.2816 14.2802 11.4685 14.2803 7.99854C14.2802 4.52861 11.4679 1.71546 7.99805 1.71533ZM7.99805 3.53564C10.4627 3.53572 12.4609 5.53388 12.4609 7.99854C12.4609 10.4632 10.4627 12.4614 7.99805 12.4614C5.53343 12.4613 3.53519 10.4632 3.53516 7.99854C3.5352 5.5339 5.53344 3.53574 7.99805 3.53564ZM7.99805 4.78564C6.22381 4.78574 4.7852 6.22423 4.78516 7.99854C4.78519 9.77285 6.22381 11.2113 7.99805 11.2114C9.77231 11.2114 11.2109 9.77287 11.2109 7.99854C11.2109 6.22422 9.7723 4.78572 7.99805 4.78564ZM7.99902 6.78271C8.67103 6.78283 9.21658 7.32753 9.2168 7.99951C9.21673 8.67162 8.67112 9.21717 7.99902 9.21729C7.32701 9.21707 6.78229 8.67156 6.78223 7.99951C6.78244 7.32759 7.3271 6.78293 7.99902 6.78271Z"
    fill="currentColor"
  />
</svg>
