<svg width="24" height="24" viewBox="0 0 24 24" fill="none" xmlns="http://www.w3.org/2000/svg" data-fui-icon="true">
  <path
    fill-rule="evenodd"
    clip-rule="evenodd"
    d="M12.001 0.549316C18.3244 0.54958 23.4512 5.67699 23.4512 12.0005C23.4509 18.3238 18.3242 23.4504 12.001 23.4507C5.67748 23.4507 0.551045 18.3239 0.550781 12.0005C0.550781 5.67683 5.67732 0.549316 12.001 0.549316ZM12.001 4.80029C8.02453 4.80029 4.80078 8.02404 4.80078 12.0005C4.80104 15.9767 8.02469 19.2007 12.001 19.2007C15.977 19.2004 19.2009 15.9766 19.2012 12.0005C19.2012 8.0242 15.9772 4.80056 12.001 4.80029ZM12.001 7.20068C14.6517 7.20095 16.8008 9.34968 16.8008 12.0005C16.8005 14.6511 14.6516 16.8 12.001 16.8003C9.35017 16.8003 7.20144 14.6512 7.20117 12.0005C7.20117 9.34952 9.35001 7.20068 12.001 7.20068ZM11.9961 9.91943C10.9218 9.91943 10.038 10.7365 9.93164 11.7827L9.9209 11.9946L9.93164 12.2065C10.0378 13.253 10.9216 14.0698 11.9961 14.0698C13.1419 14.0696 14.0713 13.1405 14.0713 11.9946C14.0711 10.9205 13.2541 10.0365 12.208 9.93018L11.9961 9.91943Z"
    fill="currentColor"
  />
</svg>
