<svg width="16" height="16" viewBox="0 0 16 16" fill="none" xmlns="http://www.w3.org/2000/svg" data-fui-icon="true">
  <path
    fill-rule="evenodd"
    clip-rule="evenodd"
    d="M7.99512 0.494629C12.1369 0.494893 15.4949 3.85283 15.4951 7.99463C15.4951 12.1366 12.137 15.4944 7.99512 15.4946C3.85298 15.4946 0.494141 12.1368 0.494141 7.99463C0.494341 3.85266 3.85311 0.494629 7.99512 0.494629ZM8 3.12549C5.30761 3.12549 3.125 5.3081 3.125 8.00049C3.12526 10.6927 5.30777 12.8755 8 12.8755C10.692 12.8752 12.8747 10.6925 12.875 8.00049C12.875 5.30826 10.6922 3.12575 8 3.12549ZM8 4.87549C9.72567 4.87575 11.125 6.27476 11.125 8.00049C11.1247 9.72599 9.7255 11.1252 8 11.1255C6.27427 11.1255 4.87526 9.72615 4.875 8.00049C4.875 6.2746 6.27411 4.87549 8 4.87549ZM8 6.62549C7.24061 6.62549 6.625 7.2411 6.625 8.00049C6.62526 8.75965 7.24077 9.37549 8 9.37549C8.759 9.37523 9.37474 8.75949 9.375 8.00049C9.375 7.24126 8.75917 6.62575 8 6.62549Z"
    fill="currentColor"
  />
</svg>
