<svg width="20" height="20" viewBox="0 0 20 20" fill="none" xmlns="http://www.w3.org/2000/svg" data-fui-icon="true">
  <path
    d="M9.99902 0.5C15.2448 0.50029 19.4971 4.75312 19.4971 9.99902C19.497 11.0923 19.3097 12.1416 18.9697 13.1191C18.7436 13.0428 18.5019 13 18.25 13H18V12.75C18 12.4119 17.9227 12.0924 17.7891 11.8047C17.9231 11.2242 17.997 10.6202 17.9971 9.99902C17.9971 5.58152 14.4163 2.00029 9.99902 2C5.58146 2 2 5.58134 2 9.99902C2.0003 14.4164 5.58165 17.998 9.99902 17.998C11.0109 17.998 11.978 17.8078 12.8691 17.4648C12.9931 17.486 13.12 17.5 13.25 17.5H13.5V17.75C13.5 18.1038 13.584 18.4375 13.7295 18.7354C12.5841 19.2252 11.3236 19.498 9.99902 19.498C4.75319 19.498 0.500305 15.2448 0.5 9.99902C0.5 4.75294 4.75301 0.5 9.99902 0.5ZM9.99902 4.3877C13.0972 4.38796 15.6091 6.89984 15.6094 9.99805C15.6094 10.1699 15.6001 10.3399 15.585 10.5078C14.4194 10.5924 13.5 11.5629 13.5 12.75V13H13.25C13.0738 13 12.9028 13.0222 12.7383 13.0605C13.5792 12.3079 14.1094 11.2153 14.1094 9.99805C14.1091 7.72824 12.2688 5.88796 9.99902 5.8877C7.7291 5.88773 5.88891 7.72809 5.88867 9.99805C5.88867 12.2682 7.72895 14.1084 9.99902 14.1084C10.5338 14.1083 11.044 14.0042 11.5127 13.8184C11.1919 14.2073 11 14.7065 11 15.25C11 15.3392 11.0065 15.4271 11.0166 15.5137C10.6865 15.5742 10.3467 15.6084 9.99902 15.6084C6.90049 15.6084 4.38867 13.0966 4.38867 9.99805C4.38891 6.89969 6.90064 4.38773 9.99902 4.3877ZM10 8.5C10.8284 8.5 11.5 9.17157 11.5 10C11.5 10.8284 10.8284 11.5 10 11.5C9.17157 11.5 8.5 10.8284 8.5 10C8.5 9.17157 9.17157 8.5 10 8.5Z"
    fill="currentColor"
  />
  <path
    d="M15.75 12.75V15.25M15.75 17.75V15.25M15.75 15.25H13.25M15.75 15.25H18.25"
    stroke="currentColor"
    stroke-width="1.5"
    stroke-linecap="round"
    stroke-linejoin="round"
  />
</svg>
