<svg width="24" height="24" viewBox="0 0 24 24" fill="none" xmlns="http://www.w3.org/2000/svg" data-fui-icon="true">
  <path
    fill-rule="evenodd"
    clip-rule="evenodd"
    d="M12 0.401367C18.4063 0.401631 23.5996 5.59464 23.5996 12.001C23.5995 13.6953 23.2321 15.3029 22.5791 16.7539C22.5528 16.753 22.5265 16.75 22.5 16.75H21.25V15.5293C21.6686 14.433 21.9003 13.2442 21.9004 12.001C21.9004 6.53352 17.4674 2.10085 12 2.10059C6.53238 2.10059 2.09961 6.53336 2.09961 12.001C2.10014 17.4681 6.53271 21.9014 12 21.9014C13.2443 21.9013 14.4342 21.6692 15.5312 21.25H16.75V22.5C16.75 22.5268 16.753 22.5535 16.7539 22.5801C15.3027 23.2332 13.6946 23.6005 12 23.6006C5.59382 23.6006 0.399942 18.407 0.399414 12.001C0.399414 5.59447 5.5935 0.401367 12 0.401367ZM11.998 5.26465C15.7174 5.26476 18.7324 8.27965 18.7324 11.999C18.7324 12.4393 18.6881 12.8694 18.6074 13.2861C17.5521 13.472 16.75 14.3914 16.75 15.5V16.75H15.5C14.3914 16.75 13.472 17.5521 13.2861 18.6074C12.8691 18.6882 12.4387 18.7334 11.998 18.7334C8.279 18.7332 5.26406 15.718 5.26367 11.999C5.26367 8.27968 8.27876 5.2648 11.998 5.26465ZM11.998 6.96387C9.21768 6.96402 6.96289 9.21853 6.96289 11.999C6.96327 14.7792 9.21792 17.0331 11.998 17.0332C14.7782 17.0331 17.0318 14.7792 17.0322 11.999C17.0322 9.21851 14.7784 6.96398 11.998 6.96387ZM12 10.2432C12.9709 10.2433 13.7578 11.0301 13.7578 12.001C13.7574 12.9715 12.9706 13.7587 12 13.7588C11.0293 13.7588 10.2426 12.9716 10.2422 12.001C10.2422 11.03 11.0291 10.2432 12 10.2432Z"
    fill="currentColor"
  />
  <path
    d="M19 15.5V19M19 22.5V19M19 19H15.5M19 19H22.5"
    stroke="currentColor"
    stroke-width="1.5"
    stroke-linecap="round"
    stroke-linejoin="round"
  />
</svg>
