<svg width="20" height="20" viewBox="0 0 20 20" fill="none" xmlns="http://www.w3.org/2000/svg" data-fui-icon="true">
  <path
    d="M9.99902 0.5C15.2448 0.50029 19.4971 4.75312 19.4971 9.99902C19.4968 15.2447 15.2446 19.4978 9.99902 19.498C4.75319 19.498 0.500305 15.2448 0.5 9.99902C0.5 4.75294 4.75301 0.5 9.99902 0.5ZM10 4.25C6.82436 4.25 4.25 6.82436 4.25 10C4.25 13.1756 6.82436 15.75 10 15.75C13.1756 15.75 15.75 13.1756 15.75 10C15.75 6.82436 13.1756 4.25 10 4.25ZM10 5.75C12.3472 5.75 14.25 7.65279 14.25 10C14.25 12.3472 12.3472 14.25 10 14.25C7.65279 14.25 5.75 12.3472 5.75 10C5.75 7.65279 7.65279 5.75 10 5.75ZM10 8.5C9.17157 8.5 8.5 9.17157 8.5 10C8.5 10.8284 9.17157 11.5 10 11.5C10.8284 11.5 11.5 10.8284 11.5 10C11.5 9.17157 10.8284 8.5 10 8.5Z"
    fill="currentColor"
  />
</svg>
