<svg width="16" height="16" viewBox="0 0 16 16" fill="none" xmlns="http://www.w3.org/2000/svg" data-fui-icon="true">
  <path
    d="M3.99976 5C4.55204 5 4.99976 4.55228 4.99976 4 4.99976 3.44772 4.55204 3 3.99976 3 3.44747 3 2.99976 3.44772 2.99976 4 2.99976 4.55228 3.44747 5 3.99976 5zM6.99976 5C7.55204 5 7.99976 4.55228 7.99976 4 7.99976 3.44772 7.55204 3 6.99976 3 6.44747 3 5.99976 3.44772 5.99976 4 5.99976 4.55228 6.44747 5 6.99976 5z"
    fill="currentColor"
  />
  <path
    fill-rule="evenodd"
    clip-rule="evenodd"
    d="M0.299805 3C0.299805 1.61929 1.41909 0.5 2.7998 0.5H13.1998C14.5805 0.5 15.6998 1.61929 15.6998 3V13C15.6998 14.3807 14.5805 15.5 13.1998 15.5H2.7998C1.41909 15.5 0.299805 14.3807 0.299805 13V3ZM2.7998 2C2.24752 2 1.7998 2.44772 1.7998 3V6H14.1998V3C14.1998 2.44772 13.7521 2 13.1998 2H2.7998ZM13.1998 14C13.7521 14 14.1998 13.5523 14.1998 13V7.5H1.7998V13C1.7998 13.5523 2.24752 14 2.7998 14H13.1998Z"
    fill="currentColor"
  />
</svg>
