<svg width="16" height="16" viewBox="0 0 16 16" fill="none" xmlns="http://www.w3.org/2000/svg" data-fui-icon="true">
  <path
    d="M13.9902 8.01074C13.9612 9.92544 12.4265 11.4994 10.4854 11.5H9.83398L10.0811 12.9023C10.3652 14.5185 9.12135 15.9998 7.48047 16C5.83941 16 4.59576 14.5186 4.87988 12.9023L5.12598 11.5H4.47656C2.56254 11.5 0.956067 9.95028 1.00098 8H13.9902C13.9902 8.00358 13.9903 8.00716 13.9902 8.01074ZM8.23145 0C8.8088 0.000304837 9.26446 0.300751 9.58105 0.608398C9.81286 0.833789 10.0101 1.10106 10.1738 1.36328C10.2674 1.15501 10.3651 0.949241 10.4658 0.773438C10.5442 0.63662 10.6411 0.485614 10.7539 0.359375C10.8105 0.29605 10.8904 0.217409 10.9932 0.150391C11.0937 0.0849389 11.2632 5.20992e-05 11.4834 0H13.2275C14.4976 0.000532366 15.2922 1.27846 14.8955 2.40527C14.3642 3.91398 14.1418 5.13573 14.0488 6.5H1.08008C1.19855 5.0766 1.45182 3.76992 1.99121 2.20605C2.46621 0.829274 3.7888 5.80958e-05 5.18066 0H8.23145Z"
    fill="currentColor"
  />
</svg>
