<svg width="16" height="16" viewBox="0 0 16 16" fill="none" xmlns="http://www.w3.org/2000/svg" data-fui-icon="true">
  <path
    fill-rule="evenodd"
    clip-rule="evenodd"
    d="M13.9902 8.01074C13.9611 9.9256 12.4266 11.4996 10.4853 11.5H9.8349L10.082 12.9023C10.3661 14.5185 9.12226 15.9998 7.48139 16C5.84033 16 4.59668 14.5186 4.8808 12.9023L5.1269 11.5H4.4765C2.56268 11.4998 0.956019 9.95013 1.00092 8H13.9902C13.9901 8.00358 13.9902 8.00716 13.9902 8.01074ZM8.23139 0C8.80883 0.000140029 9.26432 0.300744 9.581 0.608398C9.81285 0.833781 10.01 1.10104 10.1738 1.36328C10.2673 1.15503 10.3651 0.949249 10.4658 0.773438C10.5441 0.636645 10.6411 0.485632 10.7538 0.359375C10.8104 0.296073 10.8903 0.217448 10.9931 0.150391C11.0935 0.0849531 11.2631 0.000165849 11.4833 0H13.2275C14.4979 0.000213589 15.2923 1.27829 14.8955 2.40527C14.3641 3.91393 14.1418 5.13576 14.0488 6.5H1.08002C1.19849 5.07663 1.45179 3.76987 1.99115 2.20605C2.46606 0.829333 3.78885 0.000234328 5.18061 0H8.23139Z"
    fill="currentColor"
  />
</svg>
