<svg width="16" height="16" viewBox="0 0 16 16" fill="none" xmlns="http://www.w3.org/2000/svg" data-fui-icon="true">
  <path
    d="M8.23242 0C8.80999 0.000149918 9.26535 0.300671 9.58203 0.608398C9.81393 0.833835 10.011 1.10098 10.1748 1.36328C10.2684 1.15495 10.366 0.949288 10.4668 0.773438C10.5452 0.636569 10.6421 0.485673 10.7549 0.359375C10.8115 0.296011 10.8912 0.217488 10.9941 0.150391C11.0946 0.084911 11.2639 5.21459e-05 11.4844 0H13.2285C14.4989 0.000232619 15.2933 1.2783 14.8965 2.40527C14.1783 4.44453 14.0224 5.95929 13.9912 8.01074C13.9621 9.92559 12.4277 11.4996 10.4863 11.5H9.83496L10.082 12.9023C10.3661 14.5185 9.12234 15.9998 7.48145 16C5.84057 15.9998 4.59679 14.5185 4.88086 12.9023L5.12695 11.5H4.47754C2.55618 11.5 0.944137 9.93836 1.00195 7.97754C1.06263 5.91984 1.27284 4.29168 1.99219 2.20605C2.46714 0.829192 3.78973 5.81371e-05 5.18164 0H8.23242ZM6.3584 13.1621C6.23575 13.86 6.77287 14.4998 7.48145 14.5C8.19004 14.4998 8.72718 13.8601 8.60449 13.1621L8.31152 11.5H6.65039L6.3584 13.1621ZM2.50293 8C2.50271 8.00716 2.50216 8.01431 2.50195 8.02148C2.47024 9.0969 3.36133 10 4.47754 10H10.4863C11.578 9.99961 12.4671 9.11625 12.4902 8H2.50293ZM5.18164 1.5C4.36401 1.50006 3.6559 1.9825 3.41016 2.69434C2.93375 4.07552 2.70275 5.22842 2.58887 6.5H12.5459C12.6419 4.99209 12.883 3.60913 13.4824 1.90723C13.5179 1.80656 13.5002 1.70171 13.4453 1.62012C13.392 1.54124 13.3159 1.50011 13.2285 1.5H11.7812C11.7775 1.50643 11.7725 1.51261 11.7686 1.51953C11.6566 1.71502 11.5277 1.99722 11.4004 2.30566C11.2755 2.60838 11.1613 2.91396 11.0781 3.14551C11.0367 3.26066 11.0024 3.3562 10.9795 3.42285C10.968 3.45613 10.96 3.48262 10.9541 3.5C10.9512 3.50861 10.9487 3.5153 10.9473 3.51953C10.9467 3.52129 10.9457 3.52253 10.9453 3.52344V3.52539C10.8423 3.83438 10.5513 4.0415 10.2256 4.03809C9.89988 4.03445 9.61387 3.82085 9.51758 3.50977L9.5166 3.50781V3.50684C9.51565 3.50381 9.51311 3.49852 9.51074 3.49121C9.50591 3.4763 9.49873 3.4524 9.48828 3.42188C9.46734 3.36071 9.43551 3.2712 9.39355 3.16309C9.30869 2.94441 9.18543 2.65932 9.03223 2.37988C8.87579 2.09456 8.70629 1.84914 8.53711 1.68457C8.36505 1.51732 8.26475 1.50015 8.23242 1.5H5.18164Z"
    fill="currentColor"
  />
</svg>
