<svg width="32" height="32" viewBox="0 0 32 32" fill="none" xmlns="http://www.w3.org/2000/svg" data-fui-icon="true">
  <path
    d="M20.8008 29.6504C21.2148 29.6506 21.5508 29.9863 21.5508 30.4004C21.5506 30.8143 21.2147 31.1502 20.8008 31.1504H11.2012C10.7871 31.1503 10.4513 30.8144 10.4512 30.4004C10.4512 29.9862 10.787 29.6504 11.2012 29.6504H20.8008ZM16.001 0.450195C19.6782 0.450279 22.7093 1.71445 24.8223 3.81836C26.9327 5.91993 28.0849 8.8167 28.085 12C28.0849 16.0719 25.5465 18.9683 23.7275 20.5264C22.7375 21.3744 22.085 22.5153 22.085 23.6875V24.334C22.0846 25.8523 20.8532 27.0836 19.335 27.084H12.668C11.1494 27.084 9.9183 25.8525 9.91797 24.334V23.6875C9.91797 22.5154 9.26518 21.3743 8.27539 20.5264C6.45638 18.9683 3.91802 16.072 3.91797 12C3.91801 8.81658 5.07009 5.91995 7.18066 3.81836C9.29363 1.71462 12.3239 0.450262 16.001 0.450195ZM16.001 1.9502C12.6787 1.95026 10.0428 3.0861 8.23926 4.88184C6.43325 6.68016 5.41801 9.18355 5.41797 12C5.41802 15.4184 7.5559 17.9348 9.25098 19.3867C10.4674 20.4287 11.418 21.9545 11.418 23.6875V24.334C11.4183 25.0241 11.9778 25.584 12.668 25.584H19.335C20.0248 25.5836 20.5846 25.0238 20.585 24.334V23.6875C20.585 21.9544 21.5354 20.4287 22.752 19.3867C24.447 17.9347 26.5849 15.4182 26.585 12C26.5849 9.18371 25.5695 6.68014 23.7637 4.88184C21.9601 3.08597 19.3234 1.95028 16.001 1.9502ZM19.251 13C19.665 13.0002 20.0009 13.336 20.001 13.75C20.0009 14.164 19.665 14.4998 19.251 14.5H16.751V20.25C16.7509 20.664 16.415 20.9998 16.001 21C15.5869 20.9998 15.251 20.6641 15.251 20.25V14.5H12.751C12.337 14.4998 12.001 14.164 12.001 13.75C12.001 13.336 12.337 13.0002 12.751 13H19.251Z"
    fill="currentColor"
  />
</svg>
