<svg width="24" height="24" viewBox="0 0 24 24" fill="none" xmlns="http://www.w3.org/2000/svg" data-fui-icon="true">
  <path
    d="M15.5996 22.0508C16.0138 22.0508 16.3496 22.3866 16.3496 22.8008C16.3492 23.2146 16.0136 23.5508 15.5996 23.5508H8.40039C7.98643 23.5508 7.6508 23.2146 7.65039 22.8008C7.65039 22.3866 7.98618 22.0508 8.40039 22.0508H15.5996ZM12 0.150391C14.8024 0.150396 17.1246 1.1149 18.748 2.73145C20.3688 4.34547 21.2499 6.56679 21.25 9C21.2498 12.1353 19.2967 14.3552 17.917 15.5371C17.2029 16.1489 16.75 16.9566 16.75 17.7656V18.25C16.7498 19.4925 15.7425 20.5 14.5 20.5H9.5C8.25748 20.5 7.2502 19.4925 7.25 18.25V17.7656C7.25 16.9566 6.79712 16.1489 6.08301 15.5371C4.70332 14.3552 2.75015 12.1353 2.75 9C2.75009 6.56678 3.63116 4.34547 5.25195 2.73145C6.87541 1.11489 9.19756 0.150391 12 0.150391ZM9.75 10C9.33579 10 9 10.3358 9 10.75C9 11.1642 9.33579 11.5 9.75 11.5H11.25V15.25C11.25 15.6642 11.5858 16 12 16C12.4142 16 12.75 15.6642 12.75 15.25V11.5H14.25C14.6642 11.5 15 11.1642 15 10.75C15 10.3358 14.6642 10 14.25 10H9.75Z"
    fill="currentColor"
  />
</svg>
