<svg width="24" height="24" viewBox="0 0 24 24" fill="none" xmlns="http://www.w3.org/2000/svg" data-fui-icon="true">
  <path
    d="M12 15.25V10.75M12 10.75H9.74998M12 10.75H14.25M8.39998 22.8H15.6M3.5 9C3.5 11.809 5.25345 13.8387 6.57126 14.9675C7.39871 15.6762 8 16.6757 8 17.7652V18.25C8 19.0784 8.67157 19.75 9.5 19.75H14.5C15.3284 19.75 16 19.0784 16 18.25V17.7652C16 16.6757 16.6013 15.6762 17.4287 14.9675C18.7466 13.8387 20.5 11.809 20.5 9C20.5 4.5 17.25 0.900024 12 0.900024C6.74998 0.900024 3.5 4.5 3.5 9Z"
    stroke="currentColor"
    stroke-width="1.5"
    stroke-linecap="round"
  />
</svg>
