<svg width="12" height="12" viewBox="0 0 12 12" fill="none" xmlns="http://www.w3.org/2000/svg" data-fui-icon="true">
  <path
    d="M7.875 10.5C8.28921 10.5 8.625 10.8358 8.625 11.25C8.625 11.6642 8.28921 12 7.875 12H4.125C3.71079 12 3.375 11.6642 3.375 11.25C3.375 10.8358 3.71079 10.5 4.125 10.5H7.875ZM6 0C7.45407 0 8.66225 0.418263 9.50879 1.24512C10.3563 2.07314 10.75 3.2218 10.75 4.5C10.75 6.14401 9.95829 7.15321 9.3252 7.68555C9.08607 7.88658 9 8.08645 9 8.21094C8.99999 8.92286 8.42286 9.49999 7.71094 9.5H4.28906C3.57714 9.49999 3.00001 8.92286 3 8.21094C3 8.08645 2.91393 7.88658 2.6748 7.68555C2.04171 7.15321 1.25 6.14401 1.25 4.5C1.25 3.2218 1.64371 2.07314 2.49121 1.24512C3.33775 0.418263 4.54593 0 6 0ZM4.875 4.25C4.46079 4.25 4.125 4.58579 4.125 5C4.125 5.41421 4.46079 5.75 4.875 5.75H5.25V6.5C5.25 6.91421 5.58579 7.25 6 7.25C6.41421 7.25 6.75 6.91421 6.75 6.5V5.75H7.125C7.53921 5.75 7.875 5.41421 7.875 5C7.875 4.58579 7.53921 4.25 7.125 4.25H4.875Z"
    fill="currentColor"
  />
</svg>
