<svg width="20" height="20" viewBox="0 0 20 20" fill="none" xmlns="http://www.w3.org/2000/svg" data-fui-icon="true">
  <path
    d="M10 12.25V8.75M10 8.75H8.125M10 8.75H11.875M7 19.25H13M3 7.5C3 9.72638 4.23369 11.2478 5.23618 12.1166C5.95178 12.7367 6.5 13.5982 6.5 14.5451V14.75C6.5 15.4404 7.05964 16 7.75 16H12.25C12.9404 16 13.5 15.4404 13.5 14.75V14.5451C13.5 13.5982 14.0482 12.7367 14.7638 12.1166C15.7663 11.2478 17 9.72638 17 7.5C17 3.75 14.375 0.75 10 0.75C5.625 0.75 3 3.75 3 7.5Z"
    stroke="currentColor"
    stroke-width="1.5"
    stroke-linecap="round"
  />
</svg>
