<svg width="12" height="12" viewBox="0 0 12 12" fill="none" xmlns="http://www.w3.org/2000/svg" data-fui-icon="true">
  <path
    d="M7.875 10.5C8.28921 10.5 8.625 10.8358 8.625 11.25C8.625 11.6642 8.28921 12 7.875 12H4.125C3.71079 12 3.375 11.6642 3.375 11.25C3.375 10.8358 3.71079 10.5 4.125 10.5H7.875ZM6 0C7.45407 0 8.66225 0.418263 9.50879 1.24512C10.3563 2.07314 10.75 3.2218 10.75 4.5C10.75 6.14401 9.95829 7.15321 9.3252 7.68555C9.08607 7.88658 9 8.08645 9 8.21094C8.99999 8.92286 8.42286 9.49999 7.71094 9.5H4.28906C3.57714 9.49999 3.00001 8.92286 3 8.21094C3 8.08645 2.91393 7.88658 2.6748 7.68555C2.04171 7.15321 1.25 6.14401 1.25 4.5C1.25 3.2218 1.64371 2.07314 2.49121 1.24512C3.33775 0.418263 4.54593 0 6 0ZM6 1.5C4.82937 1.5 4.03727 1.83194 3.54004 2.31738C3.04405 2.80184 2.75 3.5284 2.75 4.5C2.75 5.59772 3.25744 6.21672 3.63965 6.53809C4.01979 6.85766 4.41411 7.36197 4.4873 8H7.5127C7.58589 7.36197 7.98021 6.85766 8.36035 6.53809C8.74256 6.21672 9.25 5.59772 9.25 4.5C9.25 3.5284 8.95595 2.80184 8.45996 2.31738C7.96273 1.83194 7.17063 1.5 6 1.5ZM7.125 4.25C7.53921 4.25 7.875 4.58579 7.875 5C7.875 5.41421 7.53921 5.75 7.125 5.75H6.75V6.5C6.75 6.91421 6.41421 7.25 6 7.25C5.58579 7.25 5.25 6.91421 5.25 6.5V5.75H4.875C4.46079 5.75 4.125 5.41421 4.125 5C4.125 4.58579 4.46079 4.25 4.875 4.25H7.125Z"
    fill="currentColor"
  />
</svg>
