<svg width="16" height="16" viewBox="0 0 16 16" fill="none" xmlns="http://www.w3.org/2000/svg" data-fui-icon="true">
  <path
    d="M10.5 14.5C10.9142 14.5 11.25 14.8358 11.25 15.25C11.25 15.6642 10.9142 16 10.5 16H5.5C5.08579 16 4.75 15.6642 4.75 15.25C4.75 14.8358 5.08579 14.5 5.5 14.5H10.5ZM8 0C9.91509 0 11.4924 0.619338 12.5928 1.71973C13.691 2.818 14.25 4.33147 14.25 6C14.25 7.85739 13.4118 9.07901 12.6279 9.80176C12.0808 10.3063 11.75 10.8518 11.75 11.3545V11.5C11.75 12.4665 10.9665 13.25 10 13.25H6C5.0335 13.25 4.25 12.4665 4.25 11.5V11.3545C4.25 10.8518 3.91917 10.3063 3.37207 9.80176C2.58819 9.07901 1.75 7.85739 1.75 6C1.75 4.33147 2.30896 2.818 3.40723 1.71973C4.50761 0.619338 6.08491 0 8 0ZM6.5 6C6.08579 6 5.75 6.33579 5.75 6.75C5.75 7.16421 6.08579 7.5 6.5 7.5H7.25V9.5C7.25 9.91421 7.58579 10.25 8 10.25C8.41421 10.25 8.75 9.91421 8.75 9.5V7.5H9.5C9.91421 7.5 10.25 7.16421 10.25 6.75C10.25 6.33579 9.91421 6 9.5 6H6.5Z"
    fill="currentColor"
  />
</svg>
