<svg width="24" height="24" viewBox="0 0 24 24" fill="none" xmlns="http://www.w3.org/2000/svg" data-fui-icon="true">
  <path
    d="M16.25 0.75C16.8023 0.75 17.25 1.19772 17.25 1.75V3.75H18.6797C20.6513 3.75 22.25 5.34866 22.25 7.32031V18.6797C22.25 20.6513 20.6513 22.25 18.6797 22.25H5.32031C3.34866 22.25 1.75 20.6513 1.75 18.6797V7.32031C1.75 5.34866 3.34866 3.75 5.32031 3.75H6.75V1.75C6.75 1.19772 7.19772 0.75 7.75 0.75C8.30228 0.75 8.75 1.19772 8.75 1.75V3.75H15.25V1.75C15.25 1.19772 15.6977 0.75 16.25 0.75ZM3.75 18.6797C3.75 19.5468 4.45323 20.25 5.32031 20.25H18.6797C19.5468 20.25 20.25 19.5468 20.25 18.6797V10.75H3.75V18.6797ZM5.32031 5.75C4.45323 5.75 3.75 6.45323 3.75 7.32031V8.75H20.25V7.32031C20.25 6.45323 19.5468 5.75 18.6797 5.75H5.32031Z"
    fill="currentColor"
  />
</svg>
