<svg width="16" height="16" viewBox="0 0 16 16" fill="none" xmlns="http://www.w3.org/2000/svg" data-fui-icon="true">
  <path
    d="M14.1666 3.83337L13.2011 9.07491C13.0846 9.70751 12.533 10.1667 11.8898 10.1667H5.09303C4.45746 10.1667 3.91024 9.71811 3.78559 9.09484L2.49407 2.63726C2.40059 2.16983 1.99017 1.83337 1.51349 1.83337H1.16663M6.96789 6.19877L8.49996 4.66671M8.49996 4.66671L10.032 3.13464M8.49996 4.66671L6.96789 3.13464M8.49996 4.66671L10.032 6.19877M6.16663 12.6667C6.16663 13.127 5.79353 13.5 5.33329 13.5C4.87305 13.5 4.49996 13.127 4.49996 12.6667C4.49996 12.2064 4.87305 11.8334 5.33329 11.8334C5.79353 11.8334 6.16663 12.2064 6.16663 12.6667ZM12.1666 12.6667C12.1666 13.127 11.7936 13.5 11.3333 13.5C10.873 13.5 10.5 13.127 10.5 12.6667C10.5 12.2064 10.873 11.8334 11.3333 11.8334C11.7936 11.8334 12.1666 12.2064 12.1666 12.6667Z"
    stroke="currentColor"
    stroke-width="1.5"
    stroke-linecap="round"
    stroke-linejoin="round"
  />
</svg>
