<svg width="16" height="16" viewBox="0 0 16 16" fill="none" xmlns="http://www.w3.org/2000/svg" data-fui-icon="true">
  <path
    d="M5.33496 11.083C6.20885 11.0834 6.91759 11.7921 6.91797 12.666C6.91797 13.5403 6.20908 14.2496 5.33496 14.25C4.46052 14.25 3.75098 13.5405 3.75098 12.666C3.75135 11.7918 4.46075 11.083 5.33496 11.083ZM11.335 11.083C12.2089 11.0834 12.9176 11.7921 12.918 12.666C12.918 13.5403 12.2091 14.2496 11.335 14.25C10.4605 14.25 9.75098 13.5405 9.75098 12.666C9.75135 11.7919 10.4607 11.083 11.335 11.083ZM5.33496 12.583C5.28915 12.583 5.25135 12.6203 5.25098 12.666C5.25098 12.7121 5.28892 12.75 5.33496 12.75C5.38068 12.7496 5.41797 12.7118 5.41797 12.666C5.4176 12.6205 5.38046 12.5834 5.33496 12.583ZM11.335 12.583C11.2891 12.583 11.2514 12.6203 11.251 12.666C11.251 12.7121 11.2889 12.75 11.335 12.75C11.3807 12.7496 11.418 12.7118 11.418 12.666C11.4176 12.6205 11.3805 12.5834 11.335 12.583ZM1.51465 1.08301C2.34859 1.08318 3.06678 1.67251 3.23047 2.49023L4.52246 8.94727C4.577 9.21996 4.81666 9.41602 5.09473 9.41602H11.8916C12.1726 9.41564 12.4139 9.215 12.4648 8.93848L13.4307 3.69727C13.5059 3.29016 13.8965 3.02074 14.3037 3.0957C14.7107 3.17084 14.98 3.56166 14.9053 3.96875L13.9404 9.20996C13.7584 10.1981 12.8963 10.9156 11.8916 10.916H5.09473C4.10164 10.916 3.24652 10.2151 3.05176 9.24121L1.75977 2.78418C1.73631 2.66758 1.63357 2.58318 1.51465 2.58301H1.16797C0.753755 2.58301 0.417969 2.24722 0.417969 1.83301C0.418167 1.41896 0.753877 1.08301 1.16797 1.08301H1.51465ZM6.43848 2.60352C6.7314 2.31099 7.20723 2.31074 7.5 2.60352L8.50098 3.60449L9.50293 2.60352C9.79576 2.31126 10.2707 2.31112 10.5635 2.60352C10.8562 2.89629 10.856 3.37212 10.5635 3.66504L9.56152 4.66602L10.5635 5.66797C10.8562 5.96074 10.856 6.43559 10.5635 6.72852C10.2706 7.02141 9.79582 7.02141 9.50293 6.72852L8.50098 5.72656L7.5 6.72852C7.20711 7.02141 6.73137 7.02141 6.43848 6.72852C6.14596 6.43565 6.14585 5.96077 6.43848 5.66797L7.43945 4.66602L6.43848 3.66504C6.14558 3.37215 6.14558 2.89641 6.43848 2.60352Z"
    fill="currentColor"
  />
</svg>
