<svg width="32" height="32" viewBox="0 0 32 32" fill="none" xmlns="http://www.w3.org/2000/svg" data-fui-icon="true">
  <path
    d="M10.665 22.917C11.9997 22.917 13.082 23.9992 13.082 25.334C13.0817 26.6684 11.9995 27.75 10.665 27.75C9.33091 27.7496 8.2494 26.6682 8.24902 25.334C8.24902 23.9995 9.33068 22.9174 10.665 22.917ZM22.665 22.917C23.9998 22.917 25.082 23.9992 25.082 25.334C25.0817 26.6684 23.9996 27.75 22.665 27.75C21.3308 27.7496 20.2494 26.6682 20.249 25.334C20.249 23.9995 21.3306 22.9174 22.665 22.917ZM10.665 24.417C10.1591 24.4174 9.74902 24.8279 9.74902 25.334C9.7494 25.8397 10.1593 26.2496 10.665 26.25C11.1711 26.25 11.5817 25.84 11.582 25.334C11.582 24.8277 11.1713 24.417 10.665 24.417ZM22.665 24.417C22.159 24.4174 21.749 24.8279 21.749 25.334C21.7494 25.8398 22.1593 26.2496 22.665 26.25C23.1711 26.25 23.5817 25.84 23.582 25.334C23.582 24.8277 23.1714 24.417 22.665 24.417ZM3.02539 2.91699C4.33628 2.91699 5.46557 3.84251 5.72266 5.12793L8.30566 18.043C8.48498 18.9385 9.27136 19.5837 10.1846 19.584H23.7783C24.7026 19.584 25.4952 18.9236 25.6631 18.0146L27.5947 7.53125C27.6697 7.12401 28.0605 6.85487 28.4678 6.92969C28.8751 7.00472 29.1443 7.3954 29.0693 7.80273L27.1387 18.2861C26.8398 19.9068 25.4263 21.084 23.7783 21.084H10.1846C8.55628 21.0837 7.15443 19.9337 6.83496 18.3369L4.25195 5.42188C4.13509 4.83759 3.62125 4.41699 3.02539 4.41699H2.33203C1.91811 4.41679 1.58223 4.08092 1.58203 3.66699C1.58203 3.2529 1.91799 2.91719 2.33203 2.91699H3.02539ZM19.5322 5.73926C19.8251 5.44642 20.2999 5.44653 20.5928 5.73926C20.8857 6.03215 20.8857 6.50691 20.5928 6.7998L18.0586 9.33301L20.5928 11.8672C20.8857 12.1601 20.8857 12.6348 20.5928 12.9277C20.2999 13.2203 19.825 13.2205 19.5322 12.9277L16.998 10.3936L14.4648 12.9277C14.1719 13.2203 13.6971 13.2205 13.4043 12.9277C13.1117 12.635 13.1118 12.1601 13.4043 11.8672L15.9375 9.33301L13.4043 6.7998C13.1115 6.50703 13.1118 6.03218 13.4043 5.73926C13.6972 5.44636 14.172 5.44636 14.4648 5.73926L16.998 8.27246L19.5322 5.73926Z"
    fill="currentColor"
  />
</svg>
