<svg
  width="20"
  height="20"
  viewBox="0 0 20 20"
  fill="none"
  xmlns="http://www.w3.org/2000/svg"
  data-fui-icon="true"
>
  <path
    d="M6.75 10.75L9 13.25L13.25 8.75"
    stroke="currentColor"
    stroke-width="1.5"
    stroke-linecap="round"
    stroke-linejoin="round"
  />
  <path
    d="M9.0537 2.26636C7.65317 4.21738 5.17777 5.27798 3.78203 5.74707C3.18512 5.94768 2.74997 6.49584 2.74997 7.12556V8.04386C2.74997 12.7937 5.17858 17.7088 9.69343 19.1842C9.8239 19.2268 9.92789 19.25 9.9999 19.25C10.0719 19.25 10.1759 19.2268 10.3064 19.1842C14.8212 17.7088 17.25 12.7937 17.25 8.04386V7.12558C17.25 6.49585 16.8148 5.94768 16.2179 5.74707C14.8221 5.27798 12.3466 4.21738 10.9461 2.26636C10.7247 1.95791 10.3796 1.75 9.9999 1.75C9.62019 1.75 9.27513 1.95791 9.0537 2.26636Z"
    stroke="currentColor"
    stroke-width="1.5"
    stroke-linecap="round"
    stroke-linejoin="round"
  />
</svg>
