<svg width="16" height="16" viewBox="0 0 16 16" fill="none" xmlns="http://www.w3.org/2000/svg" data-fui-icon="true">
  <path
    d="M8 0C12.4183 0 16 3.58172 16 8C16 12.4183 12.4183 16 8 16C3.58172 16 0 12.4183 0 8C0 3.58172 3.58172 0 8 0ZM11.5664 5.34375C11.2676 5.0569 10.7927 5.06644 10.5059 5.36523L6.99414 9.02246L5.50391 7.40723C5.22299 7.10296 4.74869 7.08346 4.44434 7.36426C4.14015 7.64523 4.12145 8.1205 4.40234 8.4248L6.43359 10.625L6.48828 10.6787C6.62261 10.7971 6.79583 10.8643 6.97656 10.8662C7.18321 10.8682 7.38221 10.7847 7.52539 10.6357L11.5879 6.4043C11.8746 6.10564 11.8648 5.63065 11.5664 5.34375Z"
    fill="currentColor"
  />
</svg>
