<svg width="32" height="32" viewBox="0 0 32 32" fill="none" xmlns="http://www.w3.org/2000/svg" data-fui-icon="true">
  <path
    d="M16 0.5C24.6342 0.5 31.5 7.36576 31.5 16C31.5 24.6342 24.6342 31.5 16 31.5C7.3658 31.5 0.500004 24.6342 0.5 16C0.5 7.36576 7.3658 0.500016 16 0.5ZM16 2.5C8.47036 2.50002 2.5 8.47034 2.5 16C2.5 23.5297 8.47036 29.5 16 29.5C23.5296 29.5 29.5 23.5297 29.5 16C29.5 8.47032 23.5296 2.5 16 2.5ZM21.543 11.293C21.9335 10.9024 22.5665 10.9024 22.957 11.293C23.3476 11.6835 23.3476 12.3165 22.957 12.707L14.3271 21.3369C14.1396 21.5244 13.8853 21.6299 13.6201 21.6299C13.3549 21.6299 13.1006 21.5244 12.9131 21.3369L9.04297 17.4668C8.6525 17.0763 8.65246 16.4432 9.04297 16.0527C9.43348 15.6623 10.0665 15.6623 10.457 16.0527L13.6201 19.2158L21.543 11.293Z"
    fill="currentColor"
  />
</svg>
