<svg width="16" height="16" viewBox="0 0 16 16" fill="none" xmlns="http://www.w3.org/2000/svg" data-fui-icon="true">
  <path
    d="M8 0.5C12.1421 0.5 15.5 3.85786 15.5 8C15.5 12.1421 12.1421 15.5 8 15.5C3.85786 15.5 0.5 12.1421 0.5 8C0.5 3.85786 3.85786 0.5 8 0.5ZM8 2.5C4.96243 2.5 2.5 4.96243 2.5 8C2.5 11.0376 4.96243 13.5 8 13.5C11.0376 13.5 13.5 11.0376 13.5 8C13.5 4.96243 11.0376 2.5 8 2.5ZM9.79297 5.79297C10.1835 5.40244 10.8165 5.40244 11.207 5.79297C11.5976 6.18349 11.5976 6.81651 11.207 7.20703L7.70703 10.707C7.31651 11.0976 6.68349 11.0976 6.29297 10.707L4.54297 8.95703C4.15244 8.56651 4.15244 7.93349 4.54297 7.54297C4.93349 7.15244 5.56651 7.15244 5.95703 7.54297L7 8.58594L9.79297 5.79297Z"
    fill="currentColor"
  />
</svg>
