<svg width="16" height="16" viewBox="0 0 16 16" fill="none" xmlns="http://www.w3.org/2000/svg" data-fui-icon="true">
  <path
    d="M8 1C11.866 1 15 4.13401 15 8C15 11.866 11.866 15 8 15C4.13401 15 1 11.866 1 8C1 4.13401 4.13401 1 8 1ZM11.2803 5.71973C10.9874 5.42683 10.5126 5.42683 10.2197 5.71973L7 8.93945L5.78027 7.71973C5.48738 7.42683 5.01262 7.42683 4.71973 7.71973C4.42683 8.01262 4.42683 8.48738 4.71973 8.78027L6.46973 10.5303C6.76262 10.8232 7.23738 10.8232 7.53027 10.5303L11.2803 6.78027C11.5732 6.48738 11.5732 6.01262 11.2803 5.71973Z"
    fill="currentColor"
  />
</svg>
