<svg width="16" height="17" viewBox="0 0 16 17" fill="none" xmlns="http://www.w3.org/2000/svg" data-fui-icon="true">
  <path
    d="M12.5 0C13.8805 0.00019725 15 1.11941 15 2.5V14.7646C15 15.679 14.0503 16.2837 13.2217 15.8975L10.9229 14.8232L8.58887 15.8594C8.21402 16.0257 7.78582 16.025 7.41113 15.8584L5.08789 14.8232L2.77734 15.8994C1.94878 16.2848 1 15.6795 1 14.7656V2.5C1 1.11929 2.11929 0 3.5 0H12.5ZM4.75 10.5C4.33579 10.5 4 10.8358 4 11.25C4 11.6642 4.33579 12 4.75 12H11.25C11.6642 12 12 11.6642 12 11.25C12 10.8358 11.6642 10.5 11.25 10.5H4.75ZM10.7803 4.21973C10.4874 3.92683 10.0126 3.92683 9.71973 4.21973L7.125 6.81445L6.28027 5.96973C5.98738 5.67683 5.51262 5.67683 5.21973 5.96973C4.92683 6.26262 4.92683 6.73738 5.21973 7.03027L6.59473 8.40527C6.88762 8.69817 7.36238 8.69817 7.65527 8.40527L10.7803 5.28027C11.0732 4.98738 11.0732 4.51262 10.7803 4.21973Z"
    fill="currentColor"
  />
</svg>
