<svg width="12" height="12" viewBox="0 0 12 12" fill="none" xmlns="http://www.w3.org/2000/svg" data-fui-icon="true">
  <path
    d="M6 0C9.31371 8.85881e-08 12 2.68629 12 6C12 9.31371 9.31371 12 6 12C2.68629 12 0 9.31371 0 6C6.44277e-08 2.68629 2.68629 0 6 0ZM6 1.5C3.51472 1.5 1.5 3.51472 1.5 6C1.5 8.48528 3.51472 10.5 6 10.5C8.48528 10.5 10.5 8.48528 10.5 6C10.5 3.51472 8.48528 1.5 6 1.5ZM7.71973 3.96973C8.01262 3.67683 8.48738 3.67683 8.78027 3.96973C9.07317 4.26262 9.07317 4.73738 8.78027 5.03027L5.65527 8.15527C5.36238 8.44817 4.88762 8.44817 4.59473 8.15527L3.21973 6.78027C2.92683 6.48738 2.92683 6.01262 3.21973 5.71973C3.51262 5.42683 3.98738 5.42683 4.28027 5.71973L5.125 6.56445L7.71973 3.96973Z"
    fill="currentColor"
  />
</svg>
