<svg width="24" height="25" viewBox="0 0 24 25" fill="none" xmlns="http://www.w3.org/2000/svg" data-fui-icon="true">
  <path
    d="M19.25 0C21.3209 0.000197257 23 1.67905 23 3.75V22.6465C23 23.6402 21.9624 24.2935 21.0664 23.8643L16.832 21.832L12.6328 23.8672C12.2333 24.0608 11.7666 24.06 11.3672 23.8662L7.17676 21.832L2.93262 23.8652C2.03662 24.2939 1 23.6408 1 22.6475V3.75C1 1.67893 2.67893 0 4.75 0H19.25ZM7.5 16C6.67157 16 6 16.6716 6 17.5C6 18.3284 6.67157 19 7.5 19H16.5C17.3284 19 18 18.3284 18 17.5C18 16.6716 17.3284 16 16.5 16H7.5ZM17.4316 5.43945C16.8459 4.85367 15.8963 4.85367 15.3105 5.43945L10.3965 10.3525L8.83594 8.71484C8.26437 8.11523 7.3145 8.09252 6.71484 8.66406C6.11523 9.23563 6.09252 10.1855 6.66406 10.7852L9.28516 13.5352C9.56393 13.8276 9.94951 13.9952 10.3535 14C10.7574 14.0047 11.146 13.8462 11.4316 13.5605L17.4316 7.56055C18.0174 6.97476 18.0174 6.02524 17.4316 5.43945Z"
    fill="currentColor"
  />
</svg>
