<svg width="20" height="20" viewBox="0 0 20 20" fill="none" xmlns="http://www.w3.org/2000/svg" data-fui-icon="true">
  <path
    d="M10 1C14.9706 1 19 5.02944 19 10C19 14.9706 14.9706 19 10 19C5.02944 19 1 14.9706 1 10C1 5.02944 5.02944 1 10 1ZM10 2.5C5.85786 2.5 2.5 5.85786 2.5 10C2.5 14.1421 5.85786 17.5 10 17.5C14.1421 17.5 17.5 14.1421 17.5 10C17.5 5.85786 14.1421 2.5 10 2.5ZM13.2197 7.21973C13.5126 6.92683 13.9874 6.92683 14.2803 7.21973C14.5732 7.51262 14.5732 7.98738 14.2803 8.28027L9.03027 13.5303C8.88962 13.6709 8.69891 13.75 8.5 13.75C8.30109 13.75 8.11038 13.6709 7.96973 13.5303L5.71973 11.2803C5.42683 10.9874 5.42683 10.5126 5.71973 10.2197C6.01262 9.92683 6.48738 9.92683 6.78027 10.2197L8.5 11.9395L13.2197 7.21973Z"
    fill="currentColor"
  />
</svg>
