<svg width="24" height="24" viewBox="0 0 24 24" fill="none" xmlns="http://www.w3.org/2000/svg" data-fui-icon="true">
  <path
    d="M12 0.5C18.1534 0.5 23.5 5.84663 23.5 12C23.5 18.1534 18.1534 23.5 12 23.5C5.84664 23.5 0.500003 18.1534 0.5 12C0.5 5.84663 5.84664 0.500014 12 0.5ZM17.2803 8.46973C16.9874 8.17683 16.5126 8.17683 16.2197 8.46973L10.1201 14.5693L7.78027 12.2295C7.4874 11.9367 7.01261 11.9367 6.71973 12.2295C6.42689 12.5224 6.4269 12.9972 6.71973 13.29L9.58984 16.1602C9.73049 16.3008 9.92123 16.3799 10.1201 16.3799C10.319 16.3799 10.5098 16.3008 10.6504 16.1602L17.2803 9.53027C17.5732 9.2374 17.5731 8.76262 17.2803 8.46973Z"
    fill="currentColor"
  />
</svg>
