<svg width="24" height="24" viewBox="0 0 24 24" fill="none" xmlns="http://www.w3.org/2000/svg" data-fui-icon="true">
  <path
    fill-rule="evenodd"
    clip-rule="evenodd"
    d="M18 0.00012207C20.2091 0.00012207 22 1.79098 22 4.00012V22.007C21.9996 23.2104 20.7205 23.983 19.6553 23.423L16.2432 21.6271L12.7979 23.4581C12.2987 23.7233 11.7001 23.7227 11.2012 23.4572L7.76367 21.6281L4.34375 23.424C3.2784 23.9833 2.00009 23.2102 2 22.007V4.00012C2 1.79098 3.79086 0.00012207 6 0.00012207H18ZM6 2.00012C4.89543 2.00012 4 2.89555 4 4.00012V21.3458L7.06934 19.7345L7.2373 19.6583C7.58072 19.5289 7.96007 19.5309 8.30273 19.6622L8.4707 19.7384L12 21.6173L15.5381 19.7374C15.9761 19.5047 16.5014 19.5036 16.9404 19.7345L20 21.3439V4.00012C20 2.89555 19.1046 2.00012 18 2.00012H6ZM15.4141 7.04309C15.8046 6.65257 16.4376 6.65257 16.8281 7.04309C17.2186 7.43362 17.2186 8.06665 16.8281 8.45715L11.0781 14.2072C10.6876 14.5977 10.0546 14.5976 9.66406 14.2072L7.16406 11.7072C6.77354 11.3166 6.77354 10.6836 7.16406 10.2931C7.55459 9.90257 8.1876 9.90257 8.57812 10.2931L10.3711 12.0861L15.4141 7.04309Z"
    fill="currentColor"
  />
</svg>
