<svg width="16" height="16" viewBox="0 0 16 16" fill="none" xmlns="http://www.w3.org/2000/svg" data-fui-icon="true">
  <path
    fill-rule="evenodd"
    clip-rule="evenodd"
    d="M11.75 0.00012207C13.2688 0.00012207 14.5 1.23134 14.5 2.75012V14.1896C14.4999 15.3055 13.3246 16.0309 12.3271 15.5304L10.5674 14.6466L8.73242 15.5226C8.26887 15.7436 7.72987 15.7433 7.2666 15.5216L5.43945 14.6466L3.6709 15.5323C2.67362 16.0311 1.50009 15.3056 1.5 14.1906V2.75012C1.5 1.23134 2.73122 0.00012207 4.25 0.00012207H11.75ZM4.25 2.00012C3.83579 2.00012 3.5 2.33591 3.5 2.75012V13.381L4.76367 12.7491L4.92285 12.6808C5.24525 12.5636 5.59844 12.5605 5.92285 12.672L6.08301 12.7374L8 13.6544L9.92676 12.7365C10.2924 12.562 10.7108 12.5445 11.0869 12.6818L11.2461 12.7501L12.5 13.379V2.75012C12.5 2.33591 12.1642 2.00012 11.75 2.00012H4.25ZM9.54297 5.04309C9.93349 4.65257 10.5665 4.65257 10.957 5.04309C11.3475 5.43362 11.3475 6.06665 10.957 6.45715L7.83203 9.58215C7.44153 9.97265 6.8085 9.9726 6.41797 9.58215L5.04297 8.20715C4.65244 7.81663 4.65244 7.18362 5.04297 6.79309C5.43349 6.40257 6.06651 6.40257 6.45703 6.79309L7.125 7.46106L9.54297 5.04309Z"
    fill="currentColor"
  />
</svg>
