<svg width="32" height="32" viewBox="0 0 32 32" fill="none" xmlns="http://www.w3.org/2000/svg" data-fui-icon="true">
  <path
    d="M16 0.5C24.6355 0.5 31.5 7.36448 31.5 16C31.5 24.6355 24.6355 31.5 16 31.5C7.36453 31.5 0.500004 24.6355 0.5 16C0.5 7.36449 7.36453 0.500017 16 0.5ZM16 2C8.19295 2.00002 2 8.19292 2 16C2 23.8071 8.19295 30 16 30C23.8071 30 30 23.8071 30 16C30 8.19291 23.8071 2 16 2ZM21.7197 11.4697C22.0126 11.1768 22.4874 11.1768 22.7803 11.4697C23.0731 11.7626 23.0732 12.2374 22.7803 12.5303L14.1504 21.1602C14.0098 21.3008 13.819 21.3799 13.6201 21.3799C13.4212 21.3799 13.2305 21.3008 13.0898 21.1602L9.21973 17.29C8.92691 16.9972 8.92689 16.5224 9.21973 16.2295C9.51261 15.9367 9.9874 15.9367 10.2803 16.2295L13.6201 19.5693L21.7197 11.4697Z"
    fill="currentColor"
  />
</svg>
