<svg width="16" height="16" viewBox="0 0 16 16" fill="none" xmlns="http://www.w3.org/2000/svg" data-fui-icon="true">
  <path
    d="M8 1C11.866 1 15 4.13401 15 8C15 11.866 11.866 15 8 15C4.13401 15 1 11.866 1 8C1 4.13401 4.13401 1 8 1ZM11.5605 5.43945C10.9748 4.85367 10.0252 4.85367 9.43945 5.43945L7 7.87891L6.31055 7.18945C5.72476 6.60367 4.77524 6.60367 4.18945 7.18945C3.60367 7.77524 3.60367 8.72476 4.18945 9.31055L5.93945 11.0605C6.52524 11.6463 7.47476 11.6463 8.06055 11.0605L11.5605 7.56055C12.1463 6.97476 12.1463 6.02524 11.5605 5.43945Z"
    fill="currentColor"
  />
</svg>
