<svg width="20" height="20" viewBox="0 0 20 20" fill="none" xmlns="http://www.w3.org/2000/svg" data-fui-icon="true">
  <path
    d="M10 0.5C15.1487 0.5 19.5 4.85125 19.5 10C19.5 15.1487 15.1487 19.5 10 19.5C4.85125 19.5 0.5 15.1487 0.5 10C0.5 4.85125 4.85125 0.5 10 0.5ZM10 2C5.67968 2 2 5.67968 2 10C2 14.3203 5.67968 18 10 18C14.3203 18 18 14.3203 18 10C18 5.67968 14.3203 2 10 2ZM13.2197 7.21973C13.5126 6.92683 13.9874 6.92683 14.2803 7.21973C14.5732 7.51262 14.5732 7.98738 14.2803 8.28027L9.03027 13.5303C8.88962 13.6709 8.69891 13.75 8.5 13.75C8.30109 13.75 8.11038 13.6709 7.96973 13.5303L5.71973 11.2803C5.42683 10.9874 5.42683 10.5126 5.71973 10.2197C6.01262 9.92683 6.48738 9.92683 6.78027 10.2197L8.5 11.9395L13.2197 7.21973Z"
    fill="currentColor"
  />
</svg>
