<svg width="24" height="24" viewBox="0 0 24 24" fill="none" xmlns="http://www.w3.org/2000/svg" data-fui-icon="true">
  <path
    fill-rule="evenodd"
    clip-rule="evenodd"
    d="M18.251 0C20.322 9.67979e-05 22.001 1.67899 22.001 3.75V22.6016C22.001 23.6197 20.9167 24.2714 20.0176 23.7939L16.3604 21.8496L12.6865 23.8232C12.2579 24.0533 11.7419 24.0527 11.3135 23.8223L7.64746 21.8496L3.98242 23.7949C3.08335 24.2717 2.00007 23.6203 2 22.6025V3.75C2 1.67893 3.67893 0 5.75 0H18.251ZM16.6514 7.21973C16.3585 6.92683 15.8837 6.92683 15.5908 7.21973L10.3711 12.4395L8.40137 10.4697C8.10847 10.1768 7.63371 10.1768 7.34082 10.4697C7.04793 10.7626 7.04793 11.2374 7.34082 11.5303L9.84082 14.0303C10.1337 14.3231 10.6085 14.3231 10.9014 14.0303L16.6514 8.28027C16.9442 7.9874 16.9442 7.51262 16.6514 7.21973Z"
    fill="currentColor"
  />
</svg>
