<svg width="24" height="24" viewBox="0 0 24 24" fill="none" xmlns="http://www.w3.org/2000/svg" data-fui-icon="true">
  <path
    fill-rule="evenodd"
    clip-rule="evenodd"
    d="M12.0005 1.00049C18.0754 1.00075 23.0005 5.92552 23.0005 12.0005C23.0002 18.0752 18.0752 23.0002 12.0005 23.0005C5.92552 23.0005 0.999776 18.0754 0.999512 12.0005C0.999512 5.92536 5.92536 1.00049 12.0005 1.00049ZM17.2808 8.47021C16.9879 8.17732 16.5131 8.17732 16.2202 8.47021L10.1206 14.5698L7.78076 12.23C7.48789 11.9372 7.01309 11.9372 6.72021 12.23C6.42739 12.5229 6.4274 12.9976 6.72021 13.2905L9.59033 16.1606C9.73094 16.301 9.9219 16.3804 10.1206 16.3804C10.3193 16.3802 10.5103 16.3011 10.6509 16.1606L17.2808 9.53076C17.5735 9.23801 17.5732 8.76314 17.2808 8.47021Z"
    fill="currentColor"
  />
</svg>
