<svg width="24" height="25" viewBox="0 0 24 25" fill="none" xmlns="http://www.w3.org/2000/svg" data-fui-icon="true">
  <path
    d="M19.25 0C21.3209 0.000197257 23 1.67905 23 3.75V22.6465C23 23.6402 21.9624 24.2935 21.0664 23.8643L16.832 21.832L12.6328 23.8672C12.2333 24.0608 11.7666 24.06 11.3672 23.8662L7.17676 21.832L2.93262 23.8652C2.03662 24.2939 1 23.6408 1 22.6475V3.75C1 1.67893 2.67893 0 4.75 0H19.25ZM6.75 17C6.33579 17 6 17.3358 6 17.75C6 18.1642 6.33579 18.5 6.75 18.5H17.25C17.6642 18.5 18 18.1642 18 17.75C18 17.3358 17.6642 17 17.25 17H6.75ZM16.6504 6.21973C16.3575 5.92683 15.8827 5.92683 15.5898 6.21973L10.3701 11.4395L8.40039 9.46973C8.1075 9.17683 7.63274 9.17683 7.33984 9.46973C7.04695 9.76262 7.04695 10.2374 7.33984 10.5303L9.83984 13.0303C10.1327 13.3232 10.6075 13.3232 10.9004 13.0303L16.6504 7.28027C16.9433 6.98738 16.9433 6.51262 16.6504 6.21973Z"
    fill="currentColor"
  />
</svg>
