<svg width="20" height="20" viewBox="0 0 20 20" fill="none" xmlns="http://www.w3.org/2000/svg" data-fui-icon="true">
  <path
    d="M10 0C15.5228 0 20 4.47715 20 10C20 15.5228 15.5228 20 10 20C4.47715 20 0 15.5228 0 10C0 4.47715 4.47715 0 10 0ZM14.6504 6.96973C14.3575 6.67683 13.8827 6.67683 13.5898 6.96973L8.37012 12.1895L6.40039 10.2197C6.1075 9.92683 5.63274 9.92683 5.33984 10.2197C5.04695 10.5126 5.04695 10.9874 5.33984 11.2803L7.83984 13.7803C8.13274 14.0732 8.6075 14.0732 8.90039 13.7803L14.6504 8.03027C14.9433 7.73738 14.9433 7.26262 14.6504 6.96973Z"
    fill="currentColor"
  />
</svg>
