<svg width="12" height="13" viewBox="0 0 12 13" fill="none" xmlns="http://www.w3.org/2000/svg" data-fui-icon="true">
  <path
    d="M9 0C10.1046 0 11 0.895431 11 2V10.7061C11 11.6264 10.0699 12.2558 9.21582 11.9131L7.86621 11.3711L6.64453 11.8711C6.23107 12.0403 5.76767 12.04 5.35449 11.8701L4.14062 11.3711L2.78223 11.9141C1.92842 12.2552 1.00002 11.6265 1 10.707V2C1 0.895432 1.89543 0 3 0H9ZM3 9.67285L3.51074 9.46875C3.86975 9.32525 4.26574 9.30926 4.63281 9.41992L4.78906 9.47559L6.00098 9.97363L7.22266 9.47461L7.37793 9.41895C7.745 9.30892 8.14039 9.32585 8.49902 9.46973L9 9.66992V2H3V9.67285ZM6.94336 4.04297C7.33388 3.65244 7.9669 3.65244 8.35742 4.04297C8.74795 4.43349 8.74795 5.06651 8.35742 5.45703L5.98242 7.83203C5.5919 8.22256 4.95888 8.22256 4.56836 7.83203L3.69336 6.95703C3.30283 6.56651 3.30283 5.93349 3.69336 5.54297C4.08388 5.15244 4.7169 5.15244 5.10742 5.54297L5.27539 5.71094L6.94336 4.04297Z"
    fill="currentColor"
  />
</svg>
