<svg width="32" height="32" viewBox="0 0 32 32" fill="none" xmlns="http://www.w3.org/2000/svg" data-fui-icon="true">
  <path
    fill-rule="evenodd"
    clip-rule="evenodd"
    d="M24.25 1C26.8734 1 29 3.12665 29 5.75V29.5908C28.9999 30.6147 27.9044 31.2655 27.0049 30.7764L21.6455 27.8623L16.7422 30.7812C16.285 31.0533 15.7148 31.0536 15.2578 30.7812L10.3613 27.8623L4.99414 30.7783C4.09474 31.2665 3.00024 30.6151 3 29.5918V5.75C3 3.12665 5.12665 1 7.75 1H24.25ZM21.2803 10.2197C20.9874 9.92684 20.5126 9.92685 20.2197 10.2197L14.1201 16.3193L11.7803 13.9795C11.4874 13.6867 11.0126 13.6867 10.7197 13.9795C10.4268 14.2724 10.4269 14.7471 10.7197 15.04L13.5898 17.9102C13.7305 18.0508 13.9212 18.1299 14.1201 18.1299C14.319 18.1298 14.5098 18.0508 14.6504 17.9102L21.2803 11.2803C21.5731 10.9874 21.5731 10.5126 21.2803 10.2197Z"
    fill="currentColor"
  />
</svg>
