<svg width="24" height="25" viewBox="0 0 24 25" fill="none" xmlns="http://www.w3.org/2000/svg" data-fui-icon="true">
  <path
    d="M19.25 0C21.3209 0.000197257 23 1.67905 23 3.75V22.6465C23 23.6402 21.9624 24.2935 21.0664 23.8643L16.832 21.832L12.6328 23.8672C12.2333 24.0608 11.7666 24.06 11.3672 23.8662L7.17676 21.832L2.93262 23.8652C2.03662 24.2939 1 23.6408 1 22.6475V3.75C1 1.67893 2.67893 0 4.75 0H19.25ZM4.75 1.5C3.50736 1.5 2.5 2.50736 2.5 3.75V22.4082L6.63867 20.4277L6.76953 20.374C7.03645 20.2817 7.32735 20.2821 7.59375 20.376L7.72461 20.4307L12 22.5059L16.2861 20.4297L16.417 20.376C16.6832 20.2825 16.9737 20.2817 17.2402 20.374L17.3721 20.4277L21.5 22.4082V3.75C21.5 2.50748 20.4925 1.5002 19.25 1.5H4.75ZM17.25 17C17.6642 17 18 17.3358 18 17.75C18 18.1642 17.6642 18.5 17.25 18.5H6.75C6.33579 18.5 6 18.1642 6 17.75C6 17.3358 6.33579 17 6.75 17H17.25ZM15.5908 6.21973C15.8837 5.92683 16.3585 5.92683 16.6514 6.21973C16.9443 6.51262 16.9443 6.98738 16.6514 7.28027L10.9014 13.0303C10.6085 13.3232 10.1337 13.3232 9.84082 13.0303L7.34082 10.5303C7.04793 10.2374 7.04793 9.76262 7.34082 9.46973C7.63371 9.17683 8.10847 9.17683 8.40137 9.46973L10.3711 11.4395L15.5908 6.21973Z"
    fill="currentColor"
  />
</svg>
