<svg width="20" height="20" viewBox="0 0 20 20" fill="none" xmlns="http://www.w3.org/2000/svg" data-fui-icon="true">
  <path
    d="M10 0.5C15.1515 0.5 19.5 4.84845 19.5 10C19.5 15.1515 15.1515 19.5 10 19.5C4.84845 19.5 0.5 15.1515 0.5 10C0.5 4.84845 4.84845 0.5 10 0.5ZM14.8105 6.68945C14.2248 6.10367 13.2752 6.10367 12.6895 6.68945L8.5 10.8789L7.31055 9.68945C6.72476 9.10367 5.77524 9.10367 5.18945 9.68945C4.60367 10.2752 4.60367 11.2248 5.18945 11.8105L7.43945 14.0605C7.72076 14.3419 8.10218 14.5 8.5 14.5C8.89783 14.5 9.27924 14.3419 9.56055 14.0605L14.8105 8.81055C15.3963 8.22476 15.3963 7.27524 14.8105 6.68945Z"
    fill="currentColor"
  />
</svg>
