<svg width="24" height="24" viewBox="0 0 24 24" fill="none" xmlns="http://www.w3.org/2000/svg" data-fui-icon="true">
  <path
    fill-rule="evenodd"
    clip-rule="evenodd"
    d="M18.251 0C20.322 9.63211e-05 22.001 1.67899 22.001 3.75V22.6016C22.001 23.6197 20.9167 24.2714 20.0176 23.7939L16.3604 21.8496L12.6865 23.8232C12.2579 24.0533 11.7419 24.0527 11.3135 23.8223L7.64746 21.8496L3.98242 23.7949C3.08335 24.2717 2.00007 23.6203 2 22.6025V3.75C2 1.67893 3.67893 0 5.75 0H18.251ZM5.75 1.5C4.50736 1.5 3.5 2.50736 3.5 3.75V22.3525L7.0625 20.4629L7.2041 20.3984C7.49254 20.2886 7.81177 20.29 8.09961 20.4014L8.24121 20.4658L12.001 22.4883L15.7695 20.4658L15.9102 20.4004C16.198 20.2892 16.5174 20.2886 16.8057 20.3984L16.9473 20.4629L20.501 22.3506V3.75C20.501 2.50742 19.4935 1.5001 18.251 1.5H5.75ZM15.5908 7.21973C15.8837 6.92683 16.3585 6.92683 16.6514 7.21973C16.9442 7.51262 16.9442 7.9874 16.6514 8.28027L10.9014 14.0303C10.6085 14.3231 10.1337 14.3231 9.84082 14.0303L7.34082 11.5303C7.04793 11.2374 7.04793 10.7626 7.34082 10.4697C7.63371 10.1768 8.10847 10.1768 8.40137 10.4697L10.3711 12.4395L15.5908 7.21973Z"
    fill="currentColor"
  />
</svg>
