<svg width="12" height="12" viewBox="0 0 12 12" fill="none" xmlns="http://www.w3.org/2000/svg" data-fui-icon="true">
  <path
    d="M6 0C9.31371 0 12 2.68629 12 6C12 9.31371 9.31371 12 6 12C2.68629 12 0 9.31371 0 6C0 2.68629 2.68629 0 6 0ZM9.26172 3.55469C8.9629 3.26796 8.48799 3.27741 8.20117 3.57617L5.0957 6.81152L3.80762 5.41602C3.52668 5.11166 3.05241 5.09214 2.74805 5.37305C2.44406 5.65402 2.42528 6.12837 2.70605 6.43262L4.53418 8.41406L4.58984 8.46777C4.72419 8.5861 4.89742 8.65345 5.07812 8.65527C5.28455 8.65728 5.48285 8.57353 5.62598 8.4248L9.2832 4.61523C9.57002 4.31646 9.56041 3.84155 9.26172 3.55469Z"
    fill="currentColor"
  />
</svg>
