<svg width="20" height="20" viewBox="0 0 20 20" fill="none" xmlns="http://www.w3.org/2000/svg" data-fui-icon="true">
  <path
    fill-rule="evenodd"
    clip-rule="evenodd"
    d="M15.001 0C16.6578 0 18.001 1.34315 18.001 3V18.6328C18.001 19.6143 16.9548 20.2423 16.0889 19.7803L13.4102 18.3506L10.6865 19.8125C10.2578 20.0426 9.74194 20.043 9.31348 19.8125L6.59766 18.3506L3.91113 19.7812C3.04522 20.2424 2 19.6148 2 18.6338V3C2 1.34315 3.34315 0 5 0H15.001ZM13.7803 6.21973C13.4874 5.92683 13.0126 5.92683 12.7197 6.21973L8.75 10.1895L7.28027 8.71973C6.98738 8.42683 6.51262 8.42683 6.21973 8.71973C5.92683 9.01262 5.92683 9.48738 6.21973 9.78027L8.21973 11.7803C8.51262 12.0731 8.9874 12.0731 9.28027 11.7803L13.7803 7.28027C14.0731 6.9874 14.0731 6.51262 13.7803 6.21973Z"
    fill="currentColor"
  />
</svg>
