<svg width="12" height="12" viewBox="0 0 12 12" fill="none" xmlns="http://www.w3.org/2000/svg" data-fui-icon="true">
  <path
    d="M6 0C9.31371 0 12 2.68629 12 6C12 9.31371 9.31371 12 6 12C2.68629 12 0 9.31371 0 6C0 2.68629 2.68629 0 6 0ZM8.78027 3.96973C8.48738 3.67683 8.01262 3.67683 7.71973 3.96973L5.125 6.56445L4.28027 5.71973C3.98738 5.42683 3.51262 5.42683 3.21973 5.71973C2.92683 6.01262 2.92683 6.48738 3.21973 6.78027L4.59473 8.15527C4.88762 8.44817 5.36238 8.44817 5.65527 8.15527L8.78027 5.03027C9.07317 4.73738 9.07317 4.26262 8.78027 3.96973Z"
    fill="currentColor"
  />
</svg>
