<svg width="20" height="21" viewBox="0 0 20 21" fill="none" xmlns="http://www.w3.org/2000/svg" data-fui-icon="true">
  <path
    d="M16 0C17.6567 0.000197253 19 1.34327 19 3V18.6846C18.9999 19.6366 18.0095 20.2654 17.1475 19.8613L13.8799 18.3281L10.6191 19.8672C10.2273 20.052 9.77264 20.0522 9.38086 19.8672L6.12891 18.3281L2.85156 19.8623C1.98963 20.2657 1.00016 19.6372 1 18.6855V3C1 1.34315 2.34315 0 4 0H16ZM4 1.5C3.17157 1.5 2.5 2.17157 2.5 3V18.3701L5.59863 16.9209L5.72754 16.8691C5.98934 16.7804 6.27372 16.7803 6.53516 16.8701L6.66309 16.9229L10 18.5L13.3477 16.9219L13.4756 16.8701C13.7371 16.7806 14.0215 16.7801 14.2832 16.8691L14.4111 16.9209L17.5 18.3691V3C17.5 2.17169 16.8283 1.5002 16 1.5H4ZM14.25 13.5C14.6642 13.5 15 13.8358 15 14.25C15 14.6642 14.6642 15 14.25 15H5.75C5.33579 15 5 14.6642 5 14.25C5 13.8358 5.33579 13.5 5.75 13.5H14.25ZM12.7197 5.21973C13.0126 4.92683 13.4874 4.92683 13.7803 5.21973C14.0732 5.51262 14.0732 5.98738 13.7803 6.28027L9.28027 10.7803C8.98738 11.0732 8.51262 11.0732 8.21973 10.7803L6.21973 8.78027C5.92683 8.48738 5.92683 8.01262 6.21973 7.71973C6.51262 7.42683 6.98738 7.42683 7.28027 7.71973L8.75 9.18945L12.7197 5.21973Z"
    fill="currentColor"
  />
</svg>
