<svg width="24" height="24" viewBox="0 0 24 24" fill="none" xmlns="http://www.w3.org/2000/svg" data-fui-icon="true">
  <path
    d="M19 0C21.2091 0 23 1.79086 23 4V22.2979C22.9998 23.4751 21.7709 24.2487 20.709 23.7402L16.7148 21.8271L12.7402 23.75C12.2724 23.9761 11.7264 23.9756 11.2588 23.749L7.29492 21.8271L3.29004 23.7422C2.2281 24.2497 1 23.4748 1 22.2979V4C1 1.79086 2.79086 1.28851e-07 5 0H19ZM5 2C3.89543 2 3 2.89543 3 4V21.6631L6.64941 19.9199L6.80664 19.8555C7.12629 19.7451 7.47392 19.7463 7.79297 19.8584L7.9502 19.9229L12 21.8857L16.0605 19.9229L16.2168 19.8574C16.5361 19.7454 16.8844 19.7447 17.2041 19.8555L17.3613 19.9199L21 21.6621V4C21 2.89543 20.1046 2 19 2H5ZM17 16C17.5523 16 18 16.4477 18 17C18 17.5523 17.5523 18 17 18H7C6.44772 18 6 17.5523 6 17C6 16.4477 6.44772 16 7 16H17ZM15.4141 6.04297C15.8046 5.65244 16.4376 5.65244 16.8281 6.04297C17.2186 6.43349 17.2186 7.06651 16.8281 7.45703L11.0781 13.207C10.6876 13.5976 10.0546 13.5976 9.66406 13.207L7.16406 10.707C6.77354 10.3165 6.77354 9.68349 7.16406 9.29297C7.55459 8.90244 8.1876 8.90244 8.57812 9.29297L10.3711 11.0859L15.4141 6.04297Z"
    fill="currentColor"
  />
</svg>
