<svg
  width="24"
  height="24"
  viewBox="0 0 24 24"
  fill="none"
  xmlns="http://www.w3.org/2000/svg"
  data-fui-icon="true"
>
  <path
    fill-rule="evenodd"
    clip-rule="evenodd"
    d="M5.625 4.5C5.00368 4.5 4.5 5.00368 4.5 5.625V21.375C4.5 21.9963 5.00368 22.5 5.625 22.5H18.375C18.9963 22.5 19.5 21.9963 19.5 21.375V5.625C19.5 5.00368 18.9963 4.5 18.375 4.5H16.5938C16.1795 4.5 15.8438 4.16421 15.8438 3.75C15.8438 3.33579 16.1795 3 16.5938 3H18.375C19.8247 3 21 4.17525 21 5.625V21.375C21 22.8247 19.8247 24 18.375 24H5.625C4.17525 24 3 22.8247 3 21.375V5.625C3 4.17525 4.17525 3 5.625 3H7.40625C7.82046 3 8.15625 3.33579 8.15625 3.75C8.15625 4.16421 7.82046 4.5 7.40625 4.5H5.625Z"
    fill="currentColor"
  />
  <path
    fill-rule="evenodd"
    clip-rule="evenodd"
    d="M12 9.5C12 9.08579 12.3358 8.75 12.75 8.75H16.25C16.6642 8.75 17 9.08579 17 9.5 17 9.91421 16.6642 10.25 16.25 10.25H12.75C12.3358 10.25 12 9.91421 12 9.5zM12 14C12 13.5858 12.3358 13.25 12.75 13.25H16.25C16.6642 13.25 17 13.5858 17 14 17 14.4142 16.6642 14.75 16.25 14.75H12.75C12.3358 14.75 12 14.4142 12 14zM12 18.5C12 18.0858 12.3358 17.75 12.75 17.75H16.25C16.6642 17.75 17 18.0858 17 18.5 17 18.9142 16.6642 19.25 16.25 19.25H12.75C12.3358 19.25 12 18.9142 12 18.5zM10.7439 8.18557C11.0556 8.45833 11.0872 8.93215 10.8144 9.24388L9.06443 11.2439C8.91821 11.411 8.70546 11.5047 8.48347 11.4998 8.26147 11.4949 8.05306 11.3919 7.91435 11.2185L6.91435 9.96852C6.65559 9.64507 6.70803 9.17311 7.03148 8.91435 7.35493 8.65559 7.82689 8.70803 8.08565 9.03148L8.52576 9.58161 9.68557 8.25612C9.95833 7.94439 10.4322 7.91281 10.7439 8.18557zM10.7439 12.6856C11.0556 12.9583 11.0872 13.4322 10.8144 13.7439L9.06443 15.7439C8.91821 15.911 8.70546 16.0047 8.48347 15.9998 8.26147 15.9949 8.05306 15.8919 7.91435 15.7185L6.91435 14.4685C6.65559 14.1451 6.70803 13.6731 7.03148 13.4143 7.35493 13.1556 7.82689 13.208 8.08565 13.5315L8.52576 14.0816 9.68557 12.7561C9.95833 12.4444 10.4322 12.4128 10.7439 12.6856zM10.7439 17.1856C11.0556 17.4583 11.0872 17.9321 10.8144 18.2439L9.06443 20.2439C8.91821 20.411 8.70546 20.5047 8.48347 20.4998 8.26147 20.4949 8.05306 20.3919 7.91435 20.2185L6.91435 18.9685C6.65559 18.6451 6.70803 18.1731 7.03148 17.9143 7.35493 17.6556 7.82689 17.708 8.08565 18.0315L8.52576 18.5816 9.68557 17.2561C9.95833 16.9444 10.4322 16.9128 10.7439 17.1856zM9.80343 1.4955C10.0166.898506 10.5821.5 11.216.5H12.784C13.4179.5 13.9834.898505 14.1966 1.49549L14.3768 2H15.4989C16.326 2 17 2.67019 17 3.5V5C17 5.82843 16.3284 6.5 15.5 6.5H8.5C7.67157 6.5 7 5.82843 7 5V3.5C7 2.67019 7.67401 2 8.50106 2H9.62325L9.80343 1.4955zM12.784 2L11.216 2 10.8581 3.00225C10.7515 3.30075 10.4687 3.5 10.1518 3.5H8.50106C8.50087 3.5 8.50119 3.5 8.50106 3.5 8.50091 3.50012 8.50024 3.50029 8.50001 3.50052 8.50001 3.50052 8.50002 3.50051 8.50001 3.50052L8.5 5H15.5V3.50053C15.4998 3.50036 15.4991 3.49977 15.4991 3.49977 15.4997 3.50006 15.5008 3.50055 15.5 3.50053 15.4998 3.50036 15.4991 3.49977 15.4991 3.49977L13.8482 3.5C13.5313 3.5 13.2485 3.30075 13.1419 3.00225L12.784 2z"
    fill="currentColor"
  />
</svg>
