<svg width="20" height="20" viewBox="0 0 20 20" fill="none" xmlns="http://www.w3.org/2000/svg" data-fui-icon="true">
  <path
    d="M10 1.5C14.6944 1.5 18.5 5.30558 18.5 10C18.5 14.6944 14.6944 18.5 10 18.5C5.30558 18.5 1.5 14.6944 1.5 10C1.5 5.30558 5.30558 1.5 10 1.5ZM10 3C6.13401 3 3 6.13401 3 10C3 13.866 6.13401 17 10 17C13.866 17 17 13.866 17 10C17 6.13401 13.866 3 10 3ZM12.5947 7.46973C12.8876 7.17683 13.3624 7.17683 13.6553 7.46973C13.9482 7.76262 13.9482 8.23738 13.6553 8.53027L9.28027 12.9053C8.98738 13.1982 8.51262 13.1982 8.21973 12.9053L6.34473 11.0303C6.05183 10.7374 6.05183 10.2626 6.34473 9.96973C6.63762 9.67683 7.11238 9.67683 7.40527 9.96973L8.75 11.3145L12.5947 7.46973Z"
    fill="currentColor"
  />
</svg>
