<svg width="16" height="16" viewBox="0 0 16 16" fill="none" xmlns="http://www.w3.org/2000/svg" data-fui-icon="true">
  <path
    d="M8 1C11.866 1 15 4.13401 15 8C15 11.866 11.866 15 8 15C4.13401 15 1 11.866 1 8C1 4.13401 4.13401 1 8 1ZM8 2.5C4.96243 2.5 2.5 4.96243 2.5 8C2.5 11.0376 4.96243 13.5 8 13.5C11.0376 13.5 13.5 11.0376 13.5 8C13.5 4.96243 11.0376 2.5 8 2.5ZM10.2197 5.71973C10.5126 5.42683 10.9874 5.42683 11.2803 5.71973C11.5732 6.01262 11.5732 6.48738 11.2803 6.78027L7.53027 10.5303C7.23738 10.8232 6.76262 10.8232 6.46973 10.5303L4.71973 8.78027C4.42683 8.48738 4.42683 8.01262 4.71973 7.71973C5.01262 7.42683 5.48738 7.42683 5.78027 7.71973L7 8.93945L10.2197 5.71973Z"
    fill="currentColor"
  />
</svg>
