<svg width="20" height="20" viewBox="0 0 20 20" fill="none" xmlns="http://www.w3.org/2000/svg" data-fui-icon="true">
  <path
    d="M9.99997 0C11.7388 0 13.0944 -0.000579819 14.1757 0.0996091C15.2676 0.200796 16.1554 0.409852 16.9394 0.874997C17.8394 1.40902 18.5909 2.16059 19.1249 3.06054C19.5901 3.84451 19.7991 4.73238 19.9003 5.8242C20.0005 6.90548 19.9999 8.26121 19.9999 9.99997C19.9999 11.7387 20.0005 13.0945 19.9003 14.1757C19.7991 15.2676 19.5901 16.1554 19.1249 16.9394C18.5909 17.8394 17.8394 18.5909 16.9394 19.1249C16.1554 19.5901 15.2676 19.7991 14.1757 19.9003C13.0944 20.0005 11.7388 19.9999 9.99997 19.9999C8.26115 19.9999 6.90551 20.0005 5.8242 19.9003C4.73232 19.7991 3.84453 19.5901 3.06054 19.1249C2.16057 18.5909 1.40903 17.8394 0.874997 16.9394C0.409867 16.1554 0.200795 15.2676 0.0996091 14.1757C-0.000569605 13.0945 0 11.7387 0 9.99997C-2.71907e-08 8.26121 -0.000578525 6.90548 0.0996091 5.8242C0.200803 4.73238 0.409847 3.84451 0.874997 3.06054C1.40904 2.16059 2.16058 1.40902 3.06054 0.874997C3.84452 0.409852 4.73234 0.200796 5.8242 0.0996091C6.90551 -0.000579836 8.26116 0 9.99997 0ZM9.99997 1.5C8.23294 1.5 6.95891 1.50049 5.96287 1.59277C4.97755 1.68406 4.33972 1.86034 3.82616 2.16503C3.14212 2.57091 2.57093 3.14213 2.16503 3.82616C1.86033 4.33971 1.68407 4.97759 1.59277 5.96287C1.50049 6.95889 1.5 8.23299 1.5 9.99997C1.5 11.7669 1.5005 13.041 1.59277 14.0371C1.68406 15.0224 1.86035 15.6602 2.16503 16.1738C2.57092 16.8578 3.14211 17.429 3.82616 17.8349C4.33973 18.1396 4.97753 18.3159 5.96287 18.4072C6.95891 18.4995 8.23293 18.4999 9.99997 18.4999C11.767 18.4999 13.041 18.4995 14.0371 18.4072C15.0224 18.3159 15.6602 18.1396 16.1738 17.8349C16.8578 17.429 17.429 16.8578 17.8349 16.1738C18.1396 15.6602 18.3159 15.0224 18.4072 14.0371C18.4994 13.041 18.4999 11.7669 18.4999 9.99997C18.4999 8.23299 18.4995 6.95889 18.4072 5.96287C18.3159 4.97759 18.1396 4.33971 17.8349 3.82616C17.429 3.14213 16.8578 2.57091 16.1738 2.16503C15.6602 1.86034 15.0224 1.68406 14.0371 1.59277C13.041 1.50049 11.767 1.5 9.99997 1.5ZM6.74998 5.49998C7.16419 5.49998 7.49998 5.83577 7.49998 6.24998V13.75C7.49998 14.1642 7.16419 14.5 6.74998 14.5C6.33577 14.5 5.99998 14.1642 5.99998 13.75V6.24998C5.99998 5.83577 6.33577 5.49998 6.74998 5.49998ZM13.2197 5.71971C13.5126 5.42686 13.9873 5.42686 14.2802 5.71971C14.5731 6.01259 14.5731 6.48736 14.2802 6.78025L11.0605 9.99997L14.2802 13.2197C14.5731 13.5126 14.5731 13.9873 14.2802 14.2802C13.9873 14.5731 13.5126 14.5731 13.2197 14.2802L9.4697 10.5302C9.32908 10.3896 9.24999 10.1988 9.24997 9.99997C9.24999 9.8011 9.32909 9.61033 9.4697 9.4697L13.2197 5.71971Z"
    fill="currentColor"
  />
</svg>
