<svg width="32" height="32" viewBox="0 0 32 32" fill="none" xmlns="http://www.w3.org/2000/svg" data-fui-icon="true">
  <path
    d="M22.75 1C27.3063 1 31 4.69365 31 9.25V22.75C31 27.3063 27.3063 31 22.75 31H9.25C4.69365 31 1 27.3063 1 22.75V9.25C1 4.69365 4.69365 1 9.25 1H22.75ZM9.25 2.5C5.52208 2.5 2.5 5.52208 2.5 9.25V22.75C2.5 26.4779 5.52208 29.5 9.25 29.5H22.75C26.4779 29.5 29.5 26.4779 29.5 22.75V9.25C29.5 5.52208 26.4779 2.5 22.75 2.5H9.25ZM21.7197 9.21973C22.0126 8.92684 22.4874 8.92684 22.7803 9.21973C23.0732 9.51262 23.0732 9.98738 22.7803 10.2803L17.0605 16L23.0303 21.9697C23.3231 22.2626 23.3232 22.7374 23.0303 23.0303C22.7374 23.3231 22.2626 23.3231 21.9697 23.0303L15.4697 16.5303C15.3291 16.3896 15.25 16.1989 15.25 16C15.25 15.8011 15.3291 15.6104 15.4697 15.4697L21.7197 9.21973ZM10.75 9C11.1642 9 11.5 9.33579 11.5 9.75V22.25C11.5 22.6642 11.1642 23 10.75 23C10.3358 23 10 22.6642 10 22.25V9.75C10 9.33579 10.3358 9 10.75 9Z"
    fill="currentColor"
  />
</svg>
