<svg width="12" height="12" viewBox="0 0 12 12" fill="none" xmlns="http://www.w3.org/2000/svg" data-fui-icon="true">
  <path
    d="M8.25 0C10.3211 0 12 1.67893 12 3.75V8.25C12 10.3211 10.3211 12 8.25 12H3.75C1.67893 12 0 10.3211 0 8.25V3.75C1.28853e-07 1.67893 1.67893 1.28851e-07 3.75 0H8.25ZM3.75 1.5C2.50736 1.5 1.5 2.50736 1.5 3.75V8.25C1.5 9.49264 2.50736 10.5 3.75 10.5H8.25C9.49264 10.5 10.5 9.49264 10.5 8.25V3.75C10.5 2.50736 9.49264 1.5 8.25 1.5H3.75ZM3.75 3C4.16421 3 4.5 3.33579 4.5 3.75V8.25C4.49995 8.66417 4.16418 9 3.75 9C3.33582 9 3.00005 8.66417 3 8.25V3.75C3 3.33579 3.33579 3 3.75 3ZM7.68945 3.25195C7.96461 2.94241 8.43846 2.91438 8.74805 3.18945C9.05759 3.46461 9.08562 3.93846 8.81055 4.24805L7.25293 6L8.81055 7.75195C9.08556 8.06154 9.05757 8.53541 8.74805 8.81055C8.43846 9.08557 7.96459 9.05757 7.68945 8.74805L5.68945 6.49805C5.43699 6.21393 5.43702 5.78609 5.68945 5.50195L7.68945 3.25195Z"
    fill="currentColor"
  />
</svg>
