<svg width="20" height="20" viewBox="0 0 20 20" fill="none" xmlns="http://www.w3.org/2000/svg" data-fui-icon="true">
  <path
    d="M10 0C11.7388 0 13.0945 -0.000579821 14.1758 0.0996094C15.2676 0.200797 16.1555 0.409853 16.9395 0.875C17.8394 1.40903 18.591 2.16059 19.125 3.06055C19.5902 3.84452 19.7992 4.73239 19.9004 5.82422C20.0006 6.9055 20 8.26124 20 10C20 11.7388 20.0006 13.0945 19.9004 14.1758C19.7992 15.2676 19.5901 16.1555 19.125 16.9395C18.591 17.8394 17.8394 18.591 16.9395 19.125C16.1555 19.5902 15.2677 19.7992 14.1758 19.9004C13.0945 20.0006 11.7388 20 10 20C8.26118 20 6.90553 20.0006 5.82422 19.9004C4.73234 19.7992 3.84455 19.5902 3.06055 19.125C2.16058 18.591 1.40903 17.8394 0.875 16.9395C0.409868 16.1555 0.200795 15.2676 0.0996094 14.1758C-0.000569607 13.0945 0 11.7388 0 10C-2.71908e-08 8.26124 -0.000578527 6.9055 0.0996094 5.82422C0.200803 4.73239 0.409848 3.84452 0.875 3.06055C1.40904 2.16059 2.16058 1.40903 3.06055 0.875C3.84453 0.409853 4.73236 0.200797 5.82422 0.0996094C6.90553 -0.000579838 8.26118 0 10 0ZM10 1.5C8.23296 1.5 6.95893 1.50049 5.96289 1.59277C4.97757 1.68407 4.33973 1.86034 3.82617 2.16504C3.14213 2.57092 2.57093 3.14214 2.16504 3.82617C1.86034 4.33972 1.68408 4.9776 1.59277 5.96289C1.50049 6.95891 1.5 8.23302 1.5 10C1.5 11.767 1.5005 13.0411 1.59277 14.0371C1.68407 15.0224 1.86036 15.6603 2.16504 16.1738C2.57093 16.8579 3.14212 17.4291 3.82617 17.835C4.33974 18.1397 4.97754 18.3159 5.96289 18.4072C6.95893 18.4995 8.23296 18.5 10 18.5C11.767 18.5 13.0411 18.4995 14.0371 18.4072C15.0225 18.3159 15.6603 18.1397 16.1738 17.835C16.8579 17.4291 17.4291 16.8579 17.835 16.1738C18.1396 15.6603 18.3159 15.0224 18.4072 14.0371C18.4995 13.0411 18.5 11.767 18.5 10C18.5 8.23302 18.4995 6.95891 18.4072 5.96289C18.3159 4.9776 18.1397 4.33972 17.835 3.82617C17.4291 3.14214 16.8579 2.57092 16.1738 2.16504C15.6603 1.86034 15.0224 1.68407 14.0371 1.59277C13.0411 1.50049 11.767 1.5 10 1.5ZM6.75 5.5C7.16421 5.5 7.5 5.83579 7.5 6.25V13.75C7.5 14.1642 7.16421 14.5 6.75 14.5C6.33579 14.5 6 14.1642 6 13.75V6.25C6 5.83579 6.33579 5.5 6.75 5.5ZM13.2197 5.71973C13.5126 5.42688 13.9874 5.42688 14.2803 5.71973C14.5732 6.01261 14.5731 6.48738 14.2803 6.78027L11.0605 10L14.2803 13.2197C14.5731 13.5126 14.5731 13.9874 14.2803 14.2803C13.9874 14.5731 13.5126 14.5731 13.2197 14.2803L9.46973 10.5303C9.32911 10.3896 9.25002 10.1989 9.25 10C9.25002 9.80113 9.32911 9.61036 9.46973 9.46973L13.2197 5.71973Z"
    fill="currentColor"
  />
</svg>
