<svg width="12" height="12" viewBox="0 0 12 12" fill="none" xmlns="http://www.w3.org/2000/svg" data-fui-icon="true">
  <path
    d="M6.00049 0C6.80519 -1.09295e-07 7.44679 -0.000266635 7.96615 0.0351534C8.492 0.0710585 8.94827 0.146047 9.37619 0.323216C10.4173 0.754573 11.2455 1.58265 11.6768 2.62381C11.854 3.05181 11.929 3.50786 11.9648 4.03385C12.0003 4.55328 12 5.19464 12 5.99951C12 6.80436 12.0003 7.44574 11.9648 7.96517C11.929 8.49111 11.8539 8.94725 11.6768 9.37521C11.2455 10.4163 10.4173 11.2444 9.37619 11.6758C8.94828 11.853 8.49199 11.928 7.96615 11.9639C7.44679 11.9993 6.80519 11.999 6.00049 11.999C5.1958 11.999 4.5542 11.9993 4.03483 11.9639C3.50893 11.928 3.05273 11.8529 2.62479 11.6758C1.58352 11.2445 0.755514 10.4165 0.324192 9.37521C0.14697 8.94717 0.0720222 8.49123 0.0361299 7.96517C0.000708747 7.44573 0.000976483 6.8044 0.000976483 5.99951C0.000976455 5.19464 0.000704507 4.55328 0.0361299 4.03385C0.0720264 3.50786 0.146988 3.05182 0.324192 2.62381C0.755539 1.58266 1.58359 0.754492 2.62479 0.323216C3.0527 0.14613 3.50896 0.0710329 4.03483 0.0351534C4.5542 -0.000239903 5.19581 0 6.00049 0ZM6.00049 1.49988C5.17519 1.49988 4.59292 1.5 4.13638 1.53113C3.68697 1.5618 3.41284 1.61993 3.19798 1.70885C2.52445 1.98789 1.98894 2.52351 1.70982 3.19701C1.62081 3.41191 1.5628 3.68577 1.5321 4.13541C1.50095 4.59199 1.50085 5.17398 1.50085 5.99951C1.50085 6.82505 1.50095 7.40702 1.5321 7.86362C1.5628 8.31335 1.6208 8.58709 1.70982 8.80202C1.98891 9.47561 2.52438 10.0111 3.19798 10.2902C3.41285 10.3791 3.68691 10.4372 4.13638 10.4679C4.59292 10.499 5.17518 10.4991 6.00049 10.4991C6.82582 10.4991 7.40807 10.499 7.86459 10.4679C8.31403 10.4372 8.58815 10.3792 8.80299 10.2902C9.47641 10.011 10.0121 9.47549 10.2912 8.80202C10.3801 8.58713 10.4382 8.31315 10.4689 7.86362C10.5 7.40703 10.5001 6.82501 10.5001 5.99951C10.5001 5.17398 10.5 4.59199 10.4689 4.13541C10.4382 3.68578 10.3802 3.41191 10.2912 3.19701C10.0121 2.5235 9.47645 1.98797 8.80299 1.70885C8.58815 1.61985 8.31404 1.56183 7.86459 1.53113C7.40807 1.49998 6.82582 1.49988 6.00049 1.49988ZM3.74969 2.99976C4.16381 2.99976 4.49953 3.3356 4.49963 3.74969V8.24933C4.49958 8.66346 4.16384 8.99927 3.74969 8.99927C3.33566 8.99914 2.99981 8.66338 2.99976 8.24933V3.74969C2.99985 3.33568 3.33569 2.99989 3.74969 2.99976ZM7.68883 3.25169C7.96389 2.94225 8.43777 2.91436 8.74734 3.18919C9.05685 3.46433 9.08488 3.93814 8.80983 4.2477L7.25234 5.99951L8.80983 7.75132C9.08483 8.06088 9.05683 8.53471 8.74734 8.80983C8.43777 9.08479 7.96393 9.05682 7.68883 8.74734L5.68899 6.49752C5.43675 6.21343 5.43666 5.78554 5.68899 5.50151L7.68883 3.25169Z"
    fill="currentColor"
  />
</svg>
