<svg width="20" height="20" viewBox="0 0 20 20" fill="none" xmlns="http://www.w3.org/2000/svg" data-fui-icon="true">
  <path
    d="M14.6504 0C17.6048 0.000210779 19.9997 2.39525 20 5.34961V14.6504C19.9998 17.6048 17.6048 19.9998 14.6504 20H5.34961C2.3952 19.9998 0.00021078 17.6048 0 14.6504V5.34961C0.000277065 2.39525 2.39524 0.000211094 5.34961 0H14.6504ZM6.75 5.5C6.33579 5.5 6 5.83579 6 6.25V13.75C6 14.1642 6.33579 14.5 6.75 14.5C7.16421 14.5 7.5 14.1642 7.5 13.75V6.25C7.5 5.83579 7.16421 5.5 6.75 5.5ZM14.2803 5.71973C13.9874 5.42688 13.5126 5.42688 13.2197 5.71973L9.46973 9.46973C9.32911 9.61036 9.25002 9.80113 9.25 10C9.25002 10.1989 9.32911 10.3896 9.46973 10.5303L13.2197 14.2803C13.5126 14.5731 13.9874 14.5731 14.2803 14.2803C14.5731 13.9874 14.5731 13.5126 14.2803 13.2197L11.0605 10L14.2803 6.78027C14.5731 6.48738 14.5732 6.01261 14.2803 5.71973Z"
    fill="currentColor"
  />
</svg>
