<svg width="16" height="16" viewBox="0 0 16 16" fill="none" xmlns="http://www.w3.org/2000/svg" data-fui-icon="true">
  <path
    d="M11.7498 0.000244137C14.0969 0.00037608 15.9998 1.90309 15.9998 4.25018V11.7501C15.9996 14.097 14.0968 15.9999 11.7498 16H4.24994C1.90284 16 0.000131944 14.0971 0 11.7501V4.25018C1.28851e-07 1.90301 1.90276 0.000244137 4.24994 0.000244137H11.7498ZM4.24994 1.50022C2.73118 1.50022 1.49998 2.73142 1.49998 4.25018V11.7501C1.50011 13.2687 2.73126 14.5 4.24994 14.5H11.7498C13.2684 14.4999 14.4996 13.2686 14.4998 11.7501V4.25018C14.4998 2.7315 13.2685 1.50035 11.7498 1.50022H4.24994ZM5.24992 4.00018C5.66401 4.00032 5.99991 4.33605 5.99991 4.75017V11.2501C5.99972 11.664 5.6639 11.9999 5.24992 12.0001C4.83583 12.0001 4.50012 11.6641 4.49993 11.2501V4.75017C4.49993 4.33596 4.83571 4.00018 5.24992 4.00018ZM10.6991 4.24139C10.98 3.93722 11.4543 3.91851 11.7586 4.1994C12.0625 4.4804 12.0814 4.95475 11.8006 5.25895L9.26939 8.00012L11.8006 10.7413C12.0813 11.0456 12.0627 11.52 11.7586 11.8008C11.4544 12.0816 10.9801 12.0627 10.6991 11.7589L7.6991 8.5089C7.43391 8.22161 7.43391 7.77863 7.6991 7.49134L10.6991 4.24139Z"
    fill="currentColor"
  />
</svg>
