<svg width="16" height="16" viewBox="0 0 16 16" fill="none" xmlns="http://www.w3.org/2000/svg" data-fui-icon="true">
  <path
    d="M11.7498 0.000244137C14.0969 0.00037608 15.9998 1.90309 15.9998 4.25018V11.7501C15.9996 14.097 14.0968 15.9999 11.7498 16H4.24994C1.90284 16 0.000131944 14.0971 0 11.7501V4.25018C1.28851e-07 1.90301 1.90276 0.000244137 4.24994 0.000244137H11.7498ZM5.24992 4.00018C4.83571 4.00018 4.49993 4.33596 4.49993 4.75017V11.2501C4.50012 11.6641 4.83583 12.0001 5.24992 12.0001C5.6639 11.9999 5.99972 11.664 5.99991 11.2501V4.75017C5.99991 4.33605 5.66401 4.00032 5.24992 4.00018ZM11.7586 4.1994C11.4543 3.91851 10.98 3.93722 10.6991 4.24139L7.6991 7.49134C7.43391 7.77863 7.43391 8.22161 7.6991 8.5089L10.6991 11.7589C10.9801 12.0627 11.4544 12.0816 11.7586 11.8008C12.0627 11.52 12.0813 11.0456 11.8006 10.7413L9.26939 8.00012L11.8006 5.25895C12.0814 4.95475 12.0625 4.4804 11.7586 4.1994Z"
    fill="currentColor"
  />
</svg>
