<svg width="20" height="20" viewBox="0 0 20 20" fill="none" xmlns="http://www.w3.org/2000/svg" data-fui-icon="true">
  <path
    d="M14.6504 0C17.6048 0.000210779 19.9997 2.39525 20 5.34961V14.6504C19.9998 17.6048 17.6048 19.9998 14.6504 20H5.34961C2.3952 19.9998 0.00021078 17.6048 0 14.6504V5.34961C0.000277065 2.39525 2.39524 0.000211094 5.34961 0H14.6504ZM5.34961 1.5C3.22366 1.50021 1.50028 3.22368 1.5 5.34961V14.6504C1.50021 16.7764 3.22362 18.4998 5.34961 18.5H14.6504C16.7764 18.4998 18.4998 16.7764 18.5 14.6504V5.34961C18.4997 3.22368 16.7763 1.50021 14.6504 1.5H5.34961ZM6.75 5.5C7.16421 5.5 7.5 5.83579 7.5 6.25V13.75C7.5 14.1642 7.16421 14.5 6.75 14.5C6.33579 14.5 6 14.1642 6 13.75V6.25C6 5.83579 6.33579 5.5 6.75 5.5ZM13.2197 5.71973C13.5126 5.42688 13.9874 5.42688 14.2803 5.71973C14.5732 6.01261 14.5731 6.48738 14.2803 6.78027L11.0605 10L14.2803 13.2197C14.5731 13.5126 14.5731 13.9874 14.2803 14.2803C13.9874 14.5731 13.5126 14.5731 13.2197 14.2803L9.46973 10.5303C9.32911 10.3896 9.25002 10.1989 9.25 10C9.25002 9.80113 9.32911 9.61036 9.46973 9.46973L13.2197 5.71973Z"
    fill="currentColor"
  />
</svg>
