<svg
  width="32"
  height="32"
  viewBox="0 0 32 32"
  fill="none"
  xmlns="http://www.w3.org/2000/svg"
  data-fui-icon="true"
>
  <path
    d="M22.125 4.75H24.25C25.6307 4.75 26.75 5.86929 26.75 7.25V27.75C26.75 29.1307 25.6307 30.25 24.25 30.25H7.75C6.36929 30.25 5.25 29.1307 5.25 27.75V7.25C5.25 5.86929 6.36929 4.75 7.75 4.75H9.875M9.78125 12.25H22.25M9.78125 18.25H22.25M9.78125 24.25H22.25"
    stroke="currentColor"
    stroke-width="1.5"
    stroke-linecap="round"
    stroke-linejoin="round"
  />
  <path
    d="M18.4643 3.25L17.758 3.50225C17.8646 3.80075 18.1473 4 18.4643 4V3.25ZM13.5357 3.25V4C13.8527 4 14.1354 3.80075 14.242 3.50225L13.5357 3.25ZM14.013 1.91366L13.3067 1.66141V1.66141L14.013 1.91366ZM17.987 1.91366L17.2807 2.16592V2.16592L17.987 1.91366ZM18.4643 4H20.7487V2.5H18.4643V4ZM20.7487 4C20.888 4 21 4.1132 21 4.25H22.5C22.5 3.28223 21.7139 2.5 20.7487 2.5V4ZM21 4.25V5.75H22.5V4.25H21ZM21 5.75C21 5.88807 20.8881 6 20.75 6V7.5C21.7165 7.5 22.5 6.7165 22.5 5.75H21ZM20.75 6H11.25V7.5H20.75V6ZM11.25 6C11.1119 6 11 5.88807 11 5.75H9.5C9.5 6.7165 10.2835 7.5 11.25 7.5V6ZM11 5.75V4.25H9.5V5.75H11ZM11 4.25C11 4.1132 11.112 4 11.2513 4V2.5C10.2861 2.5 9.5 3.28223 9.5 4.25H11ZM11.2513 4H13.5357V2.5H11.2513V4ZM14.242 3.50225L14.7193 2.16592L13.3067 1.66141L12.8294 2.99775L14.242 3.50225ZM14.7193 2.16592C14.7548 2.06642 14.8491 2 14.9547 2V0.5C14.2151 0.5 13.5554 0.964924 13.3067 1.66141L14.7193 2.16592ZM14.9547 2H17.0453V0.5H14.9547V2ZM17.0453 2C17.1509 2 17.2452 2.06642 17.2807 2.16592L18.6933 1.66141C18.4446 0.964925 17.7849 0.5 17.0453 0.5V2ZM17.2807 2.16592L17.758 3.50225L19.1706 2.99775L18.6933 1.66141L17.2807 2.16592Z"
    fill="currentColor"
  />
</svg>
