<svg width="24" height="24" viewBox="0 0 24 24" fill="none" xmlns="http://www.w3.org/2000/svg" data-fui-icon="true">
  <path
    d="M13.8936 0.0146484C14.4554 0.0814548 14.9695 0.377086 15.3096 0.837891C15.4746 1.06154 15.6135 1.24223 15.7568 1.37109C15.8982 1.49808 15.963 1.5 15.9707 1.5H16.749C17.6399 1.5 18.3756 2.16638 18.4844 3.0293C20.4651 3.2684 22 4.95482 22 7V20C22 22.2091 20.2091 24 18 24H6C3.79086 24 2 22.2091 2 20V7C2 4.95515 3.53441 3.26883 5.51465 3.0293C5.62337 2.16632 6.36009 1.5 7.25098 1.5H8.0293C8.03696 1.5 8.1018 1.49808 8.24316 1.37109C8.38652 1.24223 8.52539 1.06154 8.69043 0.837891C9.07906 0.311363 9.69501 0.000218153 10.3496 0H13.6504L13.8936 0.0146484ZM7.75 17C7.33579 17 7 17.3358 7 17.75C7 18.1642 7.33579 18.5 7.75 18.5H13.25C13.6642 18.5 14 18.1642 14 17.75C14 17.3358 13.6642 17 13.25 17H7.75ZM7.75 13C7.33579 13 7 13.3358 7 13.75C7 14.1642 7.33579 14.5 7.75 14.5H16.25C16.6642 14.5 17 14.1642 17 13.75C17 13.3358 16.6642 13 16.25 13H7.75ZM7.75 9C7.33579 9 7 9.33579 7 9.75C7 10.1642 7.33579 10.5 7.75 10.5H16.25C16.6642 10.5 17 10.1642 17 9.75C17 9.33579 16.6642 9 16.25 9H7.75ZM10.3496 1.5C10.1713 1.50014 10.0035 1.58493 9.89746 1.72852C9.74282 1.93809 9.51915 2.24114 9.24512 2.4873C8.96898 2.73534 8.56018 3 8.0293 3H7.25098C7.11195 3 7 3.11288 7 3.25V4.25C7 4.38807 7.11193 4.5 7.25 4.5H16.75C16.8881 4.5 17 4.38807 17 4.25V3.25C17 3.11288 16.888 3 16.749 3H15.9707C15.4398 3 15.031 2.73534 14.7549 2.4873C14.4809 2.24114 14.2572 1.93809 14.1025 1.72852C14.0098 1.60292 13.8698 1.52222 13.7168 1.50391L13.6504 1.5H10.3496Z"
    fill="currentColor"
  />
</svg>
