<svg
  width="32"
  height="32"
  viewBox="0 0 32 32"
  fill="none"
  xmlns="http://www.w3.org/2000/svg"
  data-fui-icon="true"
>
  <path
    fill-rule="evenodd"
    clip-rule="evenodd"
    d="M14.7193 2.16592C14.7548 2.06642 14.8491 2 14.9547 2H17.0453C17.1509 2 17.2452 2.06642 17.2807 2.16592L17.758 3.50225C17.8646 3.80075 18.1473 4 18.4643 4H20.7487C20.888 4 21 4.1132 21 4.25V5.75C21 5.88807 20.8881 6 20.75 6H11.25C11.1119 6 11 5.88807 11 5.75V4.25C11 4.1132 11.112 4 11.2513 4H13.5357C13.8527 4 14.1354 3.80075 14.242 3.50225L14.7193 2.16592ZM14.9547 0.5C14.2151 0.5 13.5554 0.964924 13.3067 1.66141L13.0072 2.5H11.2513C10.3708 2.5 9.63929 3.15101 9.51774 4H7.75C5.95507 4 4.5 5.45507 4.5 7.25V27.75C4.5 29.5449 5.95507 31 7.75 31H24.25C26.0449 31 27.5 29.5449 27.5 27.75V7.25C27.5 5.45507 26.0449 4 24.25 4H22.4823C22.3607 3.15101 21.6292 2.5 20.7487 2.5H18.9928L18.6933 1.66141C18.4446 0.964925 17.7849 0.5 17.0453 0.5H14.9547ZM22.5 5.5V5.75C22.5 6.7165 21.7165 7.5 20.75 7.5H11.25C10.2835 7.5 9.5 6.7165 9.5 5.75V5.5H7.75C6.7835 5.5 6 6.2835 6 7.25V27.75C6 28.7165 6.7835 29.5 7.75 29.5H24.25C25.2165 29.5 26 28.7165 26 27.75V7.25C26 6.2835 25.2165 5.5 24.25 5.5H22.5ZM9.03125 12.25C9.03125 11.8358 9.36704 11.5 9.78125 11.5H22.25C22.6642 11.5 23 11.8358 23 12.25C23 12.6642 22.6642 13 22.25 13H9.78125C9.36704 13 9.03125 12.6642 9.03125 12.25ZM9.78125 17.5C9.36704 17.5 9.03125 17.8358 9.03125 18.25C9.03125 18.6642 9.36704 19 9.78125 19H22.25C22.6642 19 23 18.6642 23 18.25C23 17.8358 22.6642 17.5 22.25 17.5H9.78125ZM9.03125 24.25C9.03125 23.8358 9.36704 23.5 9.78125 23.5H22.25C22.6642 23.5 23 23.8358 23 24.25C23 24.6642 22.6642 25 22.25 25H9.78125C9.36704 25 9.03125 24.6642 9.03125 24.25Z"
    fill="currentColor"
  />
</svg>
