<svg width="16" height="16" viewBox="0 0 16 16" fill="none" xmlns="http://www.w3.org/2000/svg" data-fui-icon="true">
  <path
    d="M8.44141 0.25C8.81352 0.250029 9.16371 0.415248 9.39941 0.696289L9.49316 0.824219L9.92773 1.5H10.499C11.103 1.5 11.6085 1.92887 11.7246 2.5H12C13.1046 2.5 14 3.39543 14 4.5V14C14 15.1046 13.1046 16 12 16H4C2.89543 16 2 15.1046 2 14V4.5C2 3.39543 2.89543 2.5 4 2.5H4.27539C4.39149 1.92887 4.89701 1.5 5.50098 1.5H6.07227L6.50684 0.824219C6.73682 0.466468 7.1333 0.250033 7.55859 0.25H8.44141ZM4 4C3.72386 4 3.5 4.22386 3.5 4.5V14C3.5 14.2761 3.72386 14.5 4 14.5H12C12.2761 14.5 12.5 14.2761 12.5 14V4.5C12.5 4.22386 12.2761 4 12 4H11.75V4.25C11.75 4.94036 11.1904 5.5 10.5 5.5H5.5C4.80964 5.5 4.25 4.94036 4.25 4.25V4H4ZM10.25 11C10.6642 11 11 11.3358 11 11.75C11 12.1642 10.6642 12.5 10.25 12.5H5.75C5.33579 12.5 5 12.1642 5 11.75C5 11.3358 5.33579 11 5.75 11H10.25ZM10.25 7.5C10.6642 7.5 11 7.83579 11 8.25C11 8.66421 10.6642 9 10.25 9H5.75C5.33579 9 5 8.66421 5 8.25C5 7.83579 5.33579 7.5 5.75 7.5H10.25ZM7.12598 2.63477C6.99069 2.86095 6.74645 3 6.48242 3H5.75V4H10.25V3H9.51758C9.25355 3 9.00931 2.86095 8.87402 2.63477L8.30566 1.75H7.69434L7.12598 2.63477Z"
    fill="currentColor"
  />
</svg>
