<svg
  width="20"
  height="20"
  viewBox="0 0 20 20"
  fill="none"
  xmlns="http://www.w3.org/2000/svg"
  data-fui-icon="true"
>
  <path
    d="M13.8281 3.75H15.1562C16.0192 3.75 16.7188 4.44956 16.7188 5.3125V17.3438C16.7188 18.2067 16.0192 18.9062 15.1563 18.9062H4.84375C3.98081 18.9062 3.28125 18.2067 3.28125 17.3437V5.3125C3.28125 4.44956 3.98081 3.75 4.84375 3.75H6.17188M6.71875 9.75H13.2813M6.71875 14.25H13.2813"
    stroke="currentColor"
    stroke-width="1.5"
    stroke-linecap="round"
    stroke-linejoin="round"
  />
  <path
    d="M8.42329 2.60229L7.71698 2.35004L7.71698 2.35004L8.42329 2.60229ZM8.75811 1.66479L8.0518 1.41254L8.0518 1.41254L8.75811 1.66479ZM8.38962 2.75V3.5C8.77398 3.5 9.09613 3.20943 9.13564 2.82711L8.38962 2.75ZM11.6104 2.75L10.8644 2.8271C10.9039 3.20943 11.226 3.5 11.6104 3.5V2.75ZM11.5767 2.60229L12.283 2.35004V2.35004L11.5767 2.60229ZM11.2419 1.66479L10.5356 1.91704V1.91704L11.2419 1.66479ZM9.1296 2.85454L9.46442 1.91704L8.0518 1.41254L7.71698 2.35004L9.1296 2.85454ZM9.13564 2.82711C9.13454 2.83779 9.13226 2.84709 9.1296 2.85454L7.71698 2.35004C7.67919 2.45587 7.65483 2.56418 7.64359 2.67289L9.13564 2.82711ZM6.87562 3.5H8.38962V2H6.87562V3.5ZM7 3.375C7 3.445 6.94369 3.5 6.87562 3.5V2C6.11719 2 5.5 2.61464 5.5 3.375H7ZM7 4.875V3.375H5.5V4.875H7ZM6.875 4.75C6.94404 4.75 7 4.80596 7 4.875H5.5C5.5 5.63439 6.11561 6.25 6.875 6.25V4.75ZM13.125 4.75H6.875V6.25H13.125V4.75ZM13 4.875C13 4.80596 13.056 4.75 13.125 4.75V6.25C13.8844 6.25 14.5 5.63439 14.5 4.875H13ZM13 3.375V4.875H14.5V3.375H13ZM13.1244 3.5C13.0563 3.5 13 3.445 13 3.375H14.5C14.5 2.61464 13.8828 2 13.1244 2V3.5ZM11.6104 3.5H13.1244V2H11.6104V3.5ZM10.8704 2.85454C10.8677 2.84709 10.8655 2.83779 10.8644 2.8271L12.3564 2.6729C12.3452 2.56418 12.3208 2.45587 12.283 2.35004L10.8704 2.85454ZM10.5356 1.91704L10.8704 2.85454L12.283 2.35004L11.9482 1.41254L10.5356 1.91704ZM10.6533 2C10.6005 2 10.5533 1.96679 10.5356 1.91704L11.9482 1.41254C11.7528 0.865298 11.2344 0.5 10.6533 0.5V2ZM9.3467 2H10.6533V0.5H9.3467V2ZM9.46442 1.91704C9.44665 1.96679 9.39953 2 9.3467 2V0.5C8.76561 0.5 8.24725 0.865297 8.0518 1.41254L9.46442 1.91704Z"
    fill="currentColor"
  />
</svg>
