<svg width="32" height="32" viewBox="0 0 32 32" fill="none" xmlns="http://www.w3.org/2000/svg" data-fui-icon="true">
  <path
    d="M18.8174 1.00488C19.5919 1.05101 20.3129 1.41601 20.8096 2.01172L20.9131 2.14258L21.1201 2.41309C21.1497 2.44904 21.1782 2.47617 21.2002 2.5H22.5C23.5906 2.5 24.53 3.13631 24.9746 4.05664C27.254 4.40542 29 6.37305 29 8.75V26.25C29 28.8734 26.8734 31 24.25 31H7.75C5.12665 31 3 28.8734 3 26.25V8.75C3 6.37339 4.7455 4.40583 7.02441 4.05664C7.46898 3.1361 8.40923 2.5 9.5 2.5H10.7998C10.8218 2.47617 10.8503 2.44904 10.8799 2.41309C10.9432 2.33629 11.0073 2.25053 11.0869 2.14258C11.6167 1.42477 12.4561 1.00045 13.3486 1H18.6514L18.8174 1.00488ZM9.5 22C8.67157 22 8 22.6716 8 23.5C8 24.3284 8.67157 25 9.5 25H17.5C18.3284 25 19 24.3284 19 23.5C19 22.6716 18.3284 22 17.5 22H9.5ZM9.5 16C8.67157 16 8 16.6716 8 17.5C8 18.3284 8.67157 19 9.5 19H22.5C23.3284 19 24 18.3284 24 17.5C24 16.6716 23.3284 16 22.5 16H9.5ZM9.5 10C8.67157 10 8 10.6716 8 11.5C8 12.3284 8.67157 13 9.5 13H22.5C23.3284 13 24 12.3284 24 11.5C24 10.6716 23.3284 10 22.5 10H9.5ZM13.4424 4C13.2869 4.20945 13.0458 4.52573 12.7461 4.79492C12.4026 5.10351 11.8218 5.5 11.0293 5.5H9.75V6H22.25V5.5H20.9707C20.1782 5.5 19.5974 5.10351 19.2539 4.79492C18.9542 4.52573 18.7131 4.20945 18.5576 4H13.4424Z"
    fill="currentColor"
  />
</svg>
22.7761 6 23 5.77614 23 5.5V4.5C23 4.22386 22.7761 4 22.5 4H20.9707C20.4398 4 20.031 3.73534 19.7549 3.4873C19.4809 3.24114 19.2572 2.93809 19.1025 2.72852C19.0098 2.60292 18.8698 2.52222 18.7168 2.50391L18.6504 2.5H13.3496Z"
    fill="currentColor"
  />
</svg>
