<svg width="16" height="16" viewBox="0 0 16 16" fill="none" xmlns="http://www.w3.org/2000/svg" data-fui-icon="true">
  <path
    d="M8.58496 0C9.24676 0 9.88389 0.262902 10.3535 0.732422L10.6211 1H10.9404C11.6505 1 12.304 1.3761 12.6621 1.98145L12.7295 2.10547L12.7871 2.23047C12.7917 2.24137 12.7954 2.25275 12.7998 2.26367C13.513 2.64057 14 3.38705 14 4.25V12.75C14 14.5449 12.5449 16 10.75 16H5.25C3.45507 16 2 14.5449 2 12.75V4.25C2 3.38768 2.48591 2.6409 3.19824 2.26367C3.21944 2.21063 3.24333 2.15789 3.26953 2.10547L3.33691 1.98145C3.69498 1.37591 4.34883 1.00016 5.05859 1H5.37891L5.64648 0.732422C6.1147 0.264383 6.75062 0.000109173 7.41406 0H8.58496ZM5.75 9.75C5.19772 9.75 4.75 10.1977 4.75 10.75C4.75 11.3023 5.19772 11.75 5.75 11.75H8.25C8.80228 11.75 9.25 11.3023 9.25 10.75C9.25 10.1977 8.80228 9.75 8.25 9.75H5.75ZM5.75 5.5C5.19772 5.5 4.75 5.94772 4.75 6.5C4.75 7.05228 5.19772 7.5 5.75 7.5H10.25C10.8023 7.5 11.25 7.05228 11.25 6.5C11.25 5.94772 10.8023 5.5 10.25 5.5H5.75Z"
    fill="currentColor"
  />
</svg>
