<svg width="16" height="16" viewBox="0 0 16 16" fill="none" xmlns="http://www.w3.org/2000/svg" data-fui-icon="true">
  <path
    d="M8.58594 0C9.05006 7.00355e-05 9.49518 0.184629 9.82324 0.512695L10.2373 0.926758C10.2843 0.973761 10.3479 0.999991 10.4141 1H10.75C11.47 1.00005 12.0878 1.4352 12.3564 2.05664C13.8615 2.34072 15 3.66234 15 5.25V12.75C15 14.5449 13.5449 16 11.75 16H4.25C2.45507 16 1 14.5449 1 12.75V5.25C1 3.66267 2.13796 2.3411 3.64258 2.05664C3.91111 1.43501 4.5299 1.00005 5.25 1H5.58594L5.63477 0.995117C5.68276 0.985524 5.72743 0.962023 5.7627 0.926758L6.17676 0.512695C6.50482 0.184629 6.94994 7.00354e-05 7.41406 0H8.58594ZM12.4521 3.64746C12.272 4.4222 11.5796 5 10.75 5H5.25C4.42034 5 3.72699 4.42231 3.54688 3.64746C2.93057 3.91826 2.5 4.53367 2.5 5.25V12.75C2.5 13.7165 3.2835 14.5 4.25 14.5H11.75C12.7165 14.5 13.5 13.7165 13.5 12.75V5.25C13.5 4.53335 13.0689 3.91807 12.4521 3.64746ZM8.25 10.5C8.66421 10.5 9 10.8358 9 11.25C9 11.6642 8.66421 12 8.25 12H5.75C5.33579 12 5 11.6642 5 11.25C5 10.8358 5.33579 10.5 5.75 10.5H8.25ZM10.25 7C10.6642 7 11 7.33579 11 7.75C11 8.16421 10.6642 8.5 10.25 8.5H5.75C5.33579 8.5 5 8.16421 5 7.75C5 7.33579 5.33579 7 5.75 7H10.25ZM7.41406 1.5C7.3479 1.50004 7.28421 1.52633 7.2373 1.57324L6.82324 1.9873C6.49519 2.31535 6.05022 2.49998 5.58594 2.5H5.25C5.11189 2.50004 5 2.61203 5 2.75V3.25C5 3.38807 5.11193 3.5 5.25 3.5H10.75C10.8881 3.5 11 3.38807 11 3.25V2.75C11 2.62939 10.9146 2.52836 10.8008 2.50488L10.75 2.5H10.4141C9.94978 2.49998 9.50481 2.31535 9.17676 1.9873L8.7627 1.57324C8.72749 1.53804 8.68281 1.5145 8.63477 1.50488L8.58594 1.5H7.41406Z"
    fill="currentColor"
  />
</svg>
