<svg
  width="24"
  height="24"
  viewBox="0 0 24 24"
  fill="none"
  xmlns="http://www.w3.org/2000/svg"
  data-fui-icon="true"
>
  <path
    fill-rule="evenodd"
    clip-rule="evenodd"
    d="M11.216 0.5C10.5821 0.5 10.0166 0.898506 9.80343 1.4955L9.62325 2H8.50106C7.84884 2 7.29179 2.41681 7.08543 3H5.625C4.17525 3 3 4.17525 3 5.625V21.375C3 22.8247 4.17525 24 5.625 24H18.375C19.8247 24 21 22.8247 21 21.375V5.625C21 4.17525 19.8247 3 18.375 3H16.9146C16.7082 2.41681 16.1512 2 15.4989 2H14.3768L14.1966 1.49549C13.9834 0.898505 13.4179 0.5 12.784 0.5H11.216ZM17 4.5V5C17 5.82843 16.3284 6.5 15.5 6.5H8.5C7.67157 6.5 7 5.82843 7 5V4.5H5.625C5.00368 4.5 4.5 5.00368 4.5 5.625V21.375C4.5 21.9963 5.00368 22.5 5.625 22.5H18.375C18.9963 22.5 19.5 21.9963 19.5 21.375V5.625C19.5 5.00368 18.9963 4.5 18.375 4.5H17ZM11.216 2L12.784 2L13.1419 3.00225C13.2485 3.30075 13.5313 3.5 13.8482 3.5H15.4989L15.4994 3.50001L15.5 3.50052L15.5 3.50053V5H8.5V3.50053L8.50001 3.50052L8.50059 3.50001L8.50106 3.5H10.1518C10.4687 3.5 10.7515 3.30075 10.8581 3.00225L11.216 2ZM15.4994 3.50001C15.4997 3.50002 15.4999 3.50003 15.4999 3.50003C15.4999 3.50003 15.4996 3.49998 15.4991 3.49981L15.4991 3.49977L15.4994 3.50001ZM7 9.5C7 9.08579 7.33579 8.75 7.75 8.75H16.25C16.6642 8.75 17 9.08579 17 9.5C17 9.91421 16.6642 10.25 16.25 10.25H7.75C7.33579 10.25 7 9.91421 7 9.5ZM7.75 13.25C7.33579 13.25 7 13.5858 7 14C7 14.4142 7.33579 14.75 7.75 14.75H16.25C16.6642 14.75 17 14.4142 17 14C17 13.5858 16.6642 13.25 16.25 13.25H7.75ZM7 18.5C7 18.0858 7.33579 17.75 7.75 17.75H16.25C16.6642 17.75 17 18.0858 17 18.5C17 18.9142 16.6642 19.25 16.25 19.25H7.75C7.33579 19.25 7 18.9142 7 18.5Z"
    fill="currentColor"
  />
</svg>
