<svg width="12" height="12" viewBox="0 0 12 12" fill="none" xmlns="http://www.w3.org/2000/svg" data-fui-icon="true">
  <path
    d="M7.49902 0C8.32594 0 9 0.670066 9 1.5V1.57422C9.97017 1.82395 10.6875 2.70181 10.6875 3.75V9.75C10.6875 10.9926 9.68014 12 8.4375 12H3.5625C2.31986 12 1.3125 10.9926 1.3125 9.75V3.75C1.3125 2.70181 2.02983 1.82395 3 1.57422V1.5C3 0.670067 3.67406 0 4.50098 0H7.49902ZM4.75 7.5C4.05964 7.5 3.5 8.05964 3.5 8.75C3.5 9.44036 4.05964 10 4.75 10H6.25C6.94036 10 7.5 9.44036 7.5 8.75C7.5 8.05964 6.94036 7.5 6.25 7.5H4.75ZM4.75 4C4.05964 4 3.5 4.55964 3.5 5.25C3.5 5.94036 4.05964 6.5 4.75 6.5H7.25C7.94036 6.5 8.5 5.94036 8.5 5.25C8.5 4.55964 7.94036 4 7.25 4H4.75Z"
    fill="currentColor"
  />
</svg>

  />
</svg>
