<svg width="24" height="24" viewBox="0 0 24 24" fill="none" xmlns="http://www.w3.org/2000/svg" data-fui-icon="true">
  <path
    d="M13.8936 0.0146484C14.4554 0.0814548 14.9695 0.377086 15.3096 0.837891C15.4746 1.06154 15.6135 1.24223 15.7568 1.37109C15.8982 1.49808 15.963 1.5 15.9707 1.5H16.749C17.6392 1.50037 18.3755 2.16631 18.4844 3.0293C20.4651 3.2684 22 4.95482 22 7V20C22 22.2091 20.2091 24 18 24H6C3.79086 24 2 22.2091 2 20V7C2 4.95515 3.53441 3.26883 5.51465 3.0293C5.62346 2.16625 6.36076 1.50037 7.25098 1.5H8.0293C8.03696 1.5 8.1018 1.49808 8.24316 1.37109C8.38652 1.24223 8.52539 1.06154 8.69043 0.837891C9.07906 0.311363 9.69501 0.000218153 10.3496 0H13.6504L13.8936 0.0146484ZM18.4727 4.5459C18.3319 5.37128 17.6155 6 16.75 6H7.25C6.38444 6 5.66706 5.37136 5.52637 4.5459C4.37224 4.76732 3.5 5.78129 3.5 7V20C3.5 21.3807 4.61929 22.5 6 22.5H18C19.3807 22.5 20.5 21.3807 20.5 20V7C20.5 5.78096 19.6273 4.76695 18.4727 4.5459ZM13.25 17C13.6642 17 14 17.3358 14 17.75C14 18.1642 13.6642 18.5 13.25 18.5H7.75C7.33579 18.5 7 18.1642 7 17.75C7 17.3358 7.33579 17 7.75 17H13.25ZM16.25 13C16.6642 13 17 13.3358 17 13.75C17 14.1642 16.6642 14.5 16.25 14.5H7.75C7.33579 14.5 7 14.1642 7 13.75C7 13.3358 7.33579 13 7.75 13H16.25ZM16.25 9C16.6642 9 17 9.33579 17 9.75C17 10.1642 16.6642 10.5 16.25 10.5H7.75C7.33579 10.5 7 10.1642 7 9.75C7 9.33579 7.33579 9 7.75 9H16.25ZM10.3496 1.5C10.1713 1.50014 10.0035 1.58493 9.89746 1.72852C9.74282 1.93809 9.51915 2.24114 9.24512 2.4873C8.96898 2.73534 8.56018 3 8.0293 3H7.25098C7.11174 3.00023 7 3.11343 7 3.25V4.25C7 4.38807 7.11193 4.5 7.25 4.5H16.75C16.8881 4.5 17 4.38807 17 4.25V3.25C17 3.13049 16.9145 3.02855 16.7998 3.00488L16.749 3H15.9707C15.4398 3 15.031 2.73534 14.7549 2.4873C14.4809 2.24114 14.2572 1.93809 14.1025 1.72852C14.0098 1.60292 13.8698 1.52222 13.7168 1.50391L13.6504 1.5H10.3496Z"
    fill="currentColor"
  />
</svg>
