<svg width="12" height="12" viewBox="0 0 12 12" fill="none" xmlns="http://www.w3.org/2000/svg" data-fui-icon="true">
  <path
    fill-rule="evenodd"
    clip-rule="evenodd"
    d="M8.75 1.52344C9.8446 1.67566 10.6875 2.61349 10.6875 3.75V9.75C10.6875 10.9926 9.68014 12 8.4375 12H3.5625C2.31986 12 1.3125 10.9926 1.3125 9.75V3.75C1.3125 2.61349 2.1554 1.67566 3.25 1.52344V2.75C3.25 3.44036 3.80964 4 4.5 4H7.5C8.19036 4 8.75 3.44036 8.75 2.75V1.52344ZM4.75 7.5C4.33579 7.5 4 7.83579 4 8.25C4 8.66421 4.33579 9 4.75 9H6.25C6.66421 9 7 8.66421 7 8.25C7 7.83579 6.66421 7.5 6.25 7.5H4.75ZM4.75 5C4.33579 5 4 5.33579 4 5.75C4 6.16421 4.33579 6.5 4.75 6.5H7.25C7.66421 6.5 8 6.16421 8 5.75C8 5.33579 7.66421 5 7.25 5H4.75Z"
    fill="currentColor"
  />
  <path
    d="M4 2.75V1.25C4 0.973858 4.22444 0.75 4.50058 0.75H7.49942C7.77556 0.75 8 0.973858 8 1.25V2.75C8 3.02614 7.77614 3.25 7.5 3.25H4.5C4.22386 3.25 4 3.02614 4 2.75Z"
    stroke="currentColor"
    stroke-width="1.5"
    stroke-linecap="round"
    stroke-linejoin="round"
  />
</svg>
