<svg width="32" height="32" viewBox="0 0 32 32" fill="none" xmlns="http://www.w3.org/2000/svg" data-fui-icon="true">
  <path
    d="M18.8936 1.01465C19.4554 1.08145 19.9695 1.37709 20.3096 1.83789C20.4746 2.06154 20.6135 2.24223 20.7568 2.37109C20.8982 2.49808 20.963 2.5 20.9707 2.5H22.5C23.4334 2.5 24.215 3.14012 24.4355 4.00488C26.9729 4.10237 29 6.1888 29 8.75V26.25C29 28.8734 26.8734 31 24.25 31H7.75C5.12665 31 3 28.8734 3 26.25V8.75C3 6.1888 5.02712 4.10237 7.56445 4.00488C7.785 3.14012 8.56656 2.5 9.5 2.5H11.0293C11.037 2.5 11.1018 2.49808 11.2432 2.37109C11.3865 2.24223 11.5254 2.06154 11.6904 1.83789C12.0791 1.31136 12.695 1.00022 13.3496 1H18.6504L18.8936 1.01465ZM9.75 22.5C9.33579 22.5 9 22.8358 9 23.25C9 23.6642 9.33579 24 9.75 24H17.25C17.6642 24 18 23.6642 18 23.25C18 22.8358 17.6642 22.5 17.25 22.5H9.75ZM9.75 17C9.33579 17 9 17.3358 9 17.75C9 18.1642 9.33579 18.5 9.75 18.5H22.25C22.6642 18.5 23 18.1642 23 17.75C23 17.3358 22.6642 17 22.25 17H9.75ZM9.75 11.5C9.33579 11.5 9 11.8358 9 12.25C9 12.6642 9.33579 13 9.75 13H22.25C22.6642 13 23 12.6642 23 12.25C23 11.8358 22.6642 11.5 22.25 11.5H9.75ZM13.3496 2.5C13.1713 2.50014 13.0035 2.58493 12.8975 2.72852C12.7428 2.93809 12.5191 3.24114 12.2451 3.4873C11.969 3.73534 11.5602 4 11.0293 4H9.5C9.22386 4 9 4.22386 9 4.5V5.5C9 5.77614 9.22386 6 9.5 6H22.5C22.7761 6 23 5.77614 23 5.5V4.5C23 4.22386 22.7761 4 22.5 4H20.9707C20.4398 4 20.031 3.73534 19.7549 3.4873C19.4809 3.24114 19.2572 2.93809 19.1025 2.72852C19.0098 2.60292 18.8698 2.52222 18.7168 2.50391L18.6504 2.5H13.3496Z"
    fill="currentColor"
  />
</svg>
