<svg
  width="24"
  height="24"
  viewBox="0 0 24 24"
  fill="none"
  xmlns="http://www.w3.org/2000/svg"
  data-fui-icon="true"
>
  <path
    fill-rule="evenodd"
    clip-rule="evenodd"
    d="M7.75 2.75C7.75 2.05964 8.30964 1.5 9 1.5H12H15C15.6904 1.5 16.25 2.05964 16.25 2.75C16.25 3.44036 15.6904 4 15 4H9C8.30964 4 7.75 3.44036 7.75 2.75ZM15 0C16.2588 0 17.32 0.845748 17.6465 2H18.25C20.3211 2 22 3.67893 22 5.75V20.25C22 22.3211 20.3211 24 18.25 24H5.75C3.67893 24 2 22.3211 2 20.25V5.75C2 3.67893 3.67893 2 5.75 2H6.35352C6.67998 0.845748 7.74122 0 9 0H12H15ZM15 5.5C16.2588 5.5 17.32 4.65425 17.6465 3.5H18.25C19.4926 3.5 20.5 4.50736 20.5 5.75V20.25C20.5 21.4926 19.4926 22.5 18.25 22.5H5.75C4.50736 22.5 3.5 21.4926 3.5 20.25V5.75C3.5 4.50736 4.50736 3.5 5.75 3.5H6.35352C6.67998 4.65425 7.74122 5.5 9 5.5H15ZM7.75 13C7.33579 13 7 13.3358 7 13.75C7 14.1642 7.33579 14.5 7.75 14.5H16.25C16.6642 14.5 17 14.1642 17 13.75C17 13.3358 16.6642 13 16.25 13H7.75ZM7 18.75C7 18.3358 7.33579 18 7.75 18H16.25C16.6642 18 17 18.3358 17 18.75C17 19.1642 16.6642 19.5 16.25 19.5H7.75C7.33579 19.5 7 19.1642 7 18.75ZM7.75 8C7.33579 8 7 8.33579 7 8.75C7 9.16421 7.33579 9.5 7.75 9.5H16.25C16.6642 9.5 17 9.16421 17 8.75C17 8.33579 16.6642 8 16.25 8H7.75Z"
    fill="currentColor"
  />
</svg>
