<svg width="20" height="20" viewBox="0 0 20 20" fill="none" xmlns="http://www.w3.org/2000/svg" data-fui-icon="true">
  <path
    d="M11.4375 0.0146484C12.0139 0.0833087 12.5408 0.385932 12.8906 0.855469L12.8896 0.856445L12.9971 1H13.752L14.0068 1.0127C15.0781 1.12175 15.945 1.90783 16.1826 2.93457C17.265 3.52954 18 4.67754 18 6V16.25C18 18.3211 16.3211 20 14.25 20H5.75C3.67893 20 2 18.3211 2 16.25V6C2 4.67786 2.73446 3.52973 3.81641 2.93457C4.07255 1.82749 5.06184 1.00067 6.24805 1H7.00293L7.10938 0.856445V0.855469C7.50901 0.319127 8.14019 0.00011432 8.81348 0H11.1875L11.4375 0.0146484ZM6.5 14.5C5.94772 14.5 5.5 14.9477 5.5 15.5C5.5 16.0523 5.94772 16.5 6.5 16.5H10.5C11.0523 16.5 11.5 16.0523 11.5 15.5C11.5 14.9477 11.0523 14.5 10.5 14.5H6.5ZM6.5 10.5C5.94772 10.5 5.5 10.9477 5.5 11.5C5.5 12.0523 5.94772 12.5 6.5 12.5H13.5C14.0523 12.5 14.5 12.0523 14.5 11.5C14.5 10.9477 14.0523 10.5 13.5 10.5H6.5ZM6.5 6.5C5.94772 6.5 5.5 6.94772 5.5 7.5C5.5 8.05229 5.94772 8.5 6.5 8.5H13.5C14.0523 8.5 14.5 8.05229 14.5 7.5C14.5 6.94772 14.0523 6.5 13.5 6.5H6.5ZM8.95703 3.39648C8.67392 3.77612 8.22847 4 7.75488 4H12.2451C11.7715 4 11.3261 3.77612 11.043 3.39648L10.7471 3H9.25293L8.95703 3.39648Z"
    fill="currentColor"
  />
</svg>
2.0083 2.5 12.2451 2.5V1.75ZM13.751 1.75L13.7513 1H13.751V1.75ZM6.24902 1.75V1L6.24869 1L6.24902 1.75ZM7.75488 1.75V2.5C7.99172 2.5 8.21465 2.38813 8.3562 2.19824L7.75488 1.75ZM8.3125 1.00195L8.91382 1.45019L8.91391 1.45006L8.3125 1.00195ZM8.81348 0.75V-5.96046e-08L8.81317 5.96046e-08L8.81348 0.75ZM11.1865 0.75L11.1862 1.5C11.1458 1.49998 11.1091 1.48098 11.0861 1.45006L11.6875 1.00195L12.2889 0.553842C12.0301 0.206459 11.6219 0.000175476 11.1868 5.96046e-08L11.1865 0.75ZM11.6875 1.00195L11.0862 1.45019L11.6438 2.19824L12.2451 1.75L12.8464 1.30176L12.2888 0.553713L11.6875 1.00195ZM12.2451 1.75V2.5H13.751V1.75V1H12.2451V1.75ZM13.751 1.75L13.7506 2.5C13.8881 2.50006 14 2.61146 14 2.75H14.75H15.5C15.5 1.78427 14.718 1.00043 13.7513 1L13.751 1.75ZM14.75 2.75H14V3.75H14.75H15.5V2.75H14.75ZM14.75 3.75H14C14 3.88807 13.8881 4 13.75 4V4.75V5.5C14.7165 5.5 15.5 4.7165 15.5 3.75H14.75ZM13.75 4.75V4H6.25V4.75V5.5H13.75V4.75ZM6.25 4.75V4C6.11193 4 6 3.88807 6 3.75H5.25H4.5C4.5 4.7165 5.2835 5.5 6.25 5.5V4.75ZM5.25 3.75H6V2.75H5.25H4.5V3.75H5.25ZM5.25 2.75H6C6 2.61146 6.11186 2.50006 6.24936 2.5L6.24902 1.75L6.24869 1C5.28204 1.00043 4.5 1.78427 4.5 2.75H5.25ZM6.24902 1.75V2.5H7.75488V1.75V1H6.24902V1.75ZM7.75488 1.75L8.3562 2.19824L8.91382 1.45019L8.3125 1.00195L7.71118 0.553713L7.15357 1.30176L7.75488 1.75ZM8.3125 1.00195L8.91391 1.45006C8.89088 1.48098 8.85416 1.49998 8.81378 1.5L8.81348 0.75L8.81317 5.96046e-08C8.37815 0.000175476 7.96992 0.206458 7.71109 0.553843L8.3125 1.00195ZM8.81348 0.75V1.5H11.1865V0.75V0H8.81348V0.75Z"
    fill="currentColor"
  />
</svg>
