<svg width="20" height="21" viewBox="0 0 20 21" fill="none" xmlns="http://www.w3.org/2000/svg" data-fui-icon="true">
  <path
    d="M11.2744 0C11.7106 0 12.1268 0.175056 12.4307 0.482422L12.5537 0.62207L12.8506 1H14.001C14.888 1.00035 15.6376 1.57829 15.8994 2.37695C17.2567 2.76714 18.25 4.01719 18.25 5.5V16.25C18.25 18.4591 16.4591 20.25 14.25 20.25H5.75C3.54086 20.25 1.75 18.4591 1.75 16.25V5.5C1.75 4.01752 2.74276 2.76743 4.09961 2.37695C4.36132 1.57814 5.11191 1.00035 5.99902 1H7.14941L7.44629 0.62207L7.56934 0.482422C7.8732 0.175055 8.28943 0 8.72559 0H11.2744ZM15.8965 4.62988C15.6324 5.42547 14.8842 6 14 6H6C5.11565 6 4.36656 5.42563 4.10254 4.62988C3.88432 4.85492 3.75 5.16178 3.75 5.5V16.25C3.75 17.3546 4.64543 18.25 5.75 18.25H14.25C15.3546 18.25 16.25 17.3546 16.25 16.25V5.5C16.25 5.16153 16.115 4.85496 15.8965 4.62988ZM10.2812 14.75C10.8335 14.75 11.2812 15.1977 11.2812 15.75C11.2812 16.3023 10.8335 16.75 10.2812 16.75H6.71875C6.16647 16.75 5.71875 16.3023 5.71875 15.75C5.71875 15.1977 6.16647 14.75 6.71875 14.75H10.2812ZM13.2812 11C13.8335 11 14.2812 11.4477 14.2812 12C14.2812 12.5523 13.8335 13 13.2812 13H6.71875C6.16647 13 5.71875 12.5523 5.71875 12C5.71875 11.4477 6.16647 11 6.71875 11H13.2812ZM13.2812 7.25C13.8335 7.25 14.2812 7.69772 14.2812 8.25C14.2812 8.80229 13.8335 9.25 13.2812 9.25H6.71875C6.16647 9.25 5.71875 8.80229 5.71875 8.25C5.71875 7.69772 6.16647 7.25 6.71875 7.25H13.2812ZM8.42383 2.61719C8.23426 2.85887 7.94388 3 7.63672 3H6V4H14V3H12.3633C12.0561 3 11.7657 2.85887 11.5762 2.61719L11.0918 2H8.9082L8.42383 2.61719Z"
    fill="currentColor"
  />
</svg>
C14 2.62875 13.9144 2.52811 13.8008 2.50488L13.751 2.5H12.2451C12.0083 2.5 11.7851 2.38813 11.6436 2.19824L11.123 1.5H8.87695L8.35645 2.19824Z"
    fill="currentColor"
  />
</svg>
