<svg width="16" height="16" viewBox="0 0 16 16" fill="none" xmlns="http://www.w3.org/2000/svg" data-fui-icon="true">
  <path
    d="M8.58594 0C9.24901 0.000100136 9.88488 0.26379 10.3535 0.732422L10.6211 1H10.9424L11.083 1.00488C11.7363 1.05127 12.3284 1.41552 12.6631 1.98145L12.7305 2.10547V2.10645C12.7564 2.15839 12.7788 2.21113 12.7998 2.26367C13.513 2.64057 14 3.38705 14 4.25V12.75C14 14.5449 12.5449 16 10.75 16H5.25C3.45507 16 2 14.5449 2 12.75V4.25C2 3.38737 2.48647 2.64077 3.19922 2.26367C3.22028 2.21101 3.24354 2.1585 3.26953 2.10645V2.10547C3.60885 1.42684 4.30248 1.00064 5.05762 1H5.37891L5.64648 0.732422L5.83008 0.566406C6.27475 0.202107 6.83396 8.76062e-05 7.41406 0H8.58594ZM5.75 9.75C5.19772 9.75 4.75 10.1977 4.75 10.75C4.75 11.3023 5.19772 11.75 5.75 11.75H8.25C8.80228 11.75 9.25 11.3023 9.25 10.75C9.25 10.1977 8.80228 9.75 8.25 9.75H5.75ZM5.75 5.5C5.19772 5.5 4.75 5.94772 4.75 6.5C4.75 7.05228 5.19772 7.5 5.75 7.5H10.25C10.8023 7.5 11.25 7.05228 11.25 6.5C11.25 5.94772 10.8023 5.5 10.25 5.5H5.75Z"
    fill="currentColor"
  />
</svg>
50004 5 2.61203 5 2.75V3.25C5 3.38807 5.11193 3.5 5.25 3.5H10.75C10.8881 3.5 11 3.38807 11 3.25V2.75C11 2.62939 10.9146 2.52836 10.8008 2.50488L10.75 2.5H10.4141C9.94978 2.49998 9.50481 2.31535 9.17676 1.9873L8.7627 1.57324C8.72749 1.53804 8.68281 1.5145 8.63477 1.50488L8.58594 1.5H7.41406Z"
    fill="currentColor"
  />
</svg>
