<svg width="16" height="17" viewBox="0 0 16 17" fill="none" xmlns="http://www.w3.org/2000/svg" data-fui-icon="true">
  <path
    d="M8.6709 0C9.1784 0 9.66799 0.193216 10.0391 0.541016H10.04L10.5293 1H11C11.7641 1.00001 12.4279 1.42872 12.7646 2.05859C13.6083 2.29969 14.2498 3.07363 14.25 4.02441V12.75C14.25 14.683 12.683 16.25 10.75 16.25H5.25C3.317 16.25 1.75 14.683 1.75 12.75V4.02441C1.75015 3.07397 2.39119 2.29999 3.23438 2.05859C3.57105 1.42849 4.23571 1.00001 5 1H5.4707L5.95996 0.541016H5.96094C6.33201 0.193216 6.8216 0 7.3291 0H8.6709ZM12.25 5.05957C11.9075 5.33447 11.4734 5.5 11 5.5H5C4.52663 5.5 4.09253 5.33447 3.75 5.05957V12.75C3.75 13.5784 4.42157 14.25 5.25 14.25H10.75C11.5784 14.25 12.25 13.5784 12.25 12.75V5.05957ZM8.25 10.5C8.80228 10.5 9.25 10.9477 9.25 11.5C9.25 12.0523 8.80228 12.5 8.25 12.5H5.75C5.19772 12.5 4.75 12.0523 4.75 11.5C4.75 10.9477 5.19772 10.5 5.75 10.5H8.25ZM10.25 7C10.8023 7 11.25 7.44772 11.25 8C11.25 8.55229 10.8023 9 10.25 9H5.75C5.19772 9 4.75 8.55229 4.75 8C4.75 7.44772 5.19772 7 5.75 7H10.25ZM6.83984 2.45898H6.83887C6.46853 2.8061 5.98008 2.99996 5.47168 3H5V3.5H11V3H10.5283C10.0199 2.99996 9.53147 2.8061 9.16113 2.45898H9.16016L8.6709 2H7.3291L6.83984 2.45898Z"
    fill="currentColor"
  />
</svg>
6.82324 1.9873C6.49519 2.31535 6.05022 2.49998 5.58594 2.5H5.25C5.11189 2.50004 5 2.61203 5 2.75V3.25C5 3.38807 5.11193 3.5 5.25 3.5H10.75C10.8881 3.5 11 3.38807 11 3.25V2.75C11 2.62939 10.9146 2.52836 10.8008 2.50488L10.75 2.5H10.4141C9.94978 2.49998 9.50481 2.31535 9.17676 1.9873L8.7627 1.57324C8.72749 1.53804 8.68281 1.5145 8.63477 1.50488L8.58594 1.5H7.41406Z"
    fill="currentColor"
  />
</svg>
