<svg width="20" height="20" viewBox="0 0 20 20" fill="none" xmlns="http://www.w3.org/2000/svg" data-fui-icon="true">
  <path
    d="M11.3486 0.00976562C11.6686 0.0478389 11.9648 0.197152 12.1855 0.430664L12.2891 0.553711L12.6221 1H13.751C14.6622 1.00041 15.4085 1.69709 15.4912 2.58594C16.9289 2.92141 18 4.21015 18 5.75V16.25C18 18.3211 16.3211 20 14.25 20H5.75C3.67893 20 2 18.3211 2 16.25V5.75C2 4.21048 3.07062 2.92174 4.50781 2.58594C4.59047 1.69705 5.33776 1.00041 6.24902 1H7.37793L7.71094 0.553711L7.81445 0.430664C8.07196 0.158203 8.43264 0.000153567 8.81348 0H11.1865L11.3486 0.00976562ZM15.4521 4.14746C15.272 4.9222 14.5796 5.5 13.75 5.5H6.25C5.42034 5.5 4.72699 4.92231 4.54688 4.14746C3.93057 4.41826 3.5 5.03367 3.5 5.75V16.25C3.5 17.4926 4.50736 18.5 5.75 18.5H14.25C15.4926 18.5 16.5 17.4926 16.5 16.25V5.75C16.5 5.03335 16.0689 4.41807 15.4521 4.14746ZM10.2812 14.5C10.6955 14.5 11.0312 14.8358 11.0312 15.25C11.0312 15.6642 10.6955 16 10.2812 16H6.71875C6.30454 16 5.96875 15.6642 5.96875 15.25C5.96875 14.8358 6.30454 14.5 6.71875 14.5H10.2812ZM13.2812 11C13.6955 11 14.0312 11.3358 14.0312 11.75C14.0312 12.1642 13.6955 12.5 13.2812 12.5H6.71875C6.30454 12.5 5.96875 12.1642 5.96875 11.75C5.96875 11.3358 6.30454 11 6.71875 11H13.2812ZM13.2812 7.5C13.6955 7.5 14.0312 7.83579 14.0312 8.25C14.0312 8.66421 13.6955 9 13.2812 9H6.71875C6.30454 9 5.96875 8.66421 5.96875 8.25C5.96875 7.83579 6.30454 7.5 6.71875 7.5H13.2812ZM8.35645 2.19824C8.2149 2.38813 7.99172 2.5 7.75488 2.5H6.24902C6.11167 2.50024 6 2.61157 6 2.75V3.75C6 3.88807 6.11193 4 6.25 4H13.75C13.8881 4 14 3.88807 14 3.75V2.75C14 2.62875 13.9144 2.52811 13.8008 2.50488L13.751 2.5H12.2451C12.0083 2.5 11.7851 2.38813 11.6436 2.19824L11.123 1.5H8.87695L8.35645 2.19824Z"
    fill="currentColor"
  />
</svg>
