<svg width="20" height="20" viewBox="0 0 20 20" fill="none" xmlns="http://www.w3.org/2000/svg" data-fui-icon="true">
  <path
    d="M10 0.5C15.2467 0.5 19.5 4.75329 19.5 10C19.5 15.2467 15.2467 19.5 10 19.5C4.75329 19.5 0.5 15.2467 0.5 10C0.5 4.75329 4.75329 0.5 10 0.5ZM10 4.375C9.37868 4.375 8.875 4.87868 8.875 5.5V10.5C8.875 10.7988 8.99388 11.0834 9.20215 11.293L9.29688 11.3789L11.7969 13.3789C12.282 13.767 12.9908 13.6883 13.3789 13.2031C13.767 12.718 13.6883 12.0092 13.2031 11.6211L11.125 9.95898V5.5C11.125 4.87868 10.6213 4.375 10 4.375Z"
    fill="currentColor"
  />
</svg>
