<svg width="24" height="24" viewBox="0 0 24 24" fill="none" xmlns="http://www.w3.org/2000/svg" data-fui-icon="true">
  <path
    d="M12 1C18.0751 1 23 5.92487 23 12C23 18.0751 18.0751 23 12 23C5.92487 23 1 18.0751 1 12C1 5.92487 5.92487 1 12 1ZM11.75 5.25C11.3358 5.25 11.0001 5.58583 11 6V12.5C11 12.7301 11.1061 12.9477 11.2871 13.0898L14.7861 15.8398C15.1118 16.0958 15.5839 16.0386 15.8398 15.7129C16.0954 15.3872 16.0385 14.916 15.7129 14.6602L12.5 12.1357V6C12.4999 5.58583 12.1642 5.25 11.75 5.25Z"
    fill="currentColor"
  />
</svg>
