<svg width="24" height="24" viewBox="0 0 24 24" fill="none" xmlns="http://www.w3.org/2000/svg" data-fui-icon="true">
  <path
    d="M12 0.5C18.3513 0.5 23.5 5.64873 23.5 12C23.5 18.3513 18.3513 23.5 12 23.5C5.64873 23.5 0.5 18.3513 0.5 12C0.5 5.64873 5.64873 0.5 12 0.5ZM11.75 4.75C11.0598 4.75 10.5002 5.30981 10.5 6V12.5C10.5001 12.832 10.6328 13.1481 10.8643 13.3809L10.9688 13.4756L14.2188 16.0762C14.7578 16.5074 15.5453 16.4199 15.9766 15.8809C16.4076 15.3418 16.3203 14.5542 15.7812 14.123L13 11.8984V6C12.9998 5.30981 12.4402 4.75 11.75 4.75Z"
    fill="currentColor"
  />
</svg>
