<svg width="24" height="24" viewBox="0 0 24 24" fill="none" xmlns="http://www.w3.org/2000/svg" data-fui-icon="true">
  <path
    d="M12 0.5C18.3513 0.5 23.5 5.64873 23.5 12C23.5 18.3513 18.3513 23.5 12 23.5C5.64873 23.5 0.5 18.3513 0.5 12C0.5 5.64873 5.64873 0.5 12 0.5ZM12 2C6.47715 2 2 6.47715 2 12C2 17.5228 6.47715 22 12 22C17.5228 22 22 17.5228 22 12C22 6.47715 17.5228 2 12 2ZM11.75 4.75C12.1642 4.75 12.5 5.08579 12.5 5.5V12.1387L15.9688 14.9141C16.2922 15.1728 16.3447 15.6453 16.0859 15.9688C15.8272 16.2922 15.3547 16.3447 15.0312 16.0859L11.2812 13.0859L11.2188 13.0293C11.0795 12.8896 11 12.6995 11 12.5V5.5C11 5.08579 11.3358 4.75 11.75 4.75Z"
    fill="currentColor"
  />
</svg>
