<svg width="16" height="16" viewBox="0 0 16 16" fill="none" xmlns="http://www.w3.org/2000/svg" data-fui-icon="true">
  <path
    d="M8 0C12.4183 0 16 3.58172 16 8C16 12.4183 12.4183 16 8 16C3.58172 16 0 12.4183 0 8C0 3.58172 3.58172 0 8 0ZM8 1.5C4.41015 1.5 1.5 4.41015 1.5 8C1.5 11.5899 4.41015 14.5 8 14.5C11.5899 14.5 14.5 11.5899 14.5 8C14.5 4.41015 11.5899 1.5 8 1.5ZM7.75 3.25C8.16418 3.25 8.49995 3.58583 8.5 4V8.11035L10.6797 9.63574C11.0189 9.87323 11.1016 10.3404 10.8643 10.6797C10.6267 11.019 10.1587 11.1018 9.81934 10.8643L7.32031 9.11426L7.24902 9.05762C7.09175 8.91635 7 8.71422 7 8.5V4C7.00005 3.58583 7.33582 3.25 7.75 3.25Z"
    fill="currentColor"
  />
</svg>
