<svg width="32" height="32" viewBox="0 0 32 32" fill="none" xmlns="http://www.w3.org/2000/svg" data-fui-icon="true">
  <path
    d="M16 0.5C24.5604 0.5 31.5 7.43959 31.5 16C31.5 24.5604 24.5604 31.5 16 31.5C7.43959 31.5 0.5 24.5604 0.5 16C0.5 7.43959 7.43959 0.5 16 0.5ZM15.75 6C15.1977 6 14.7501 6.44776 14.75 7V16.5C14.75 16.7597 14.8513 17.0072 15.0293 17.1924L15.1094 17.2686L19.6094 21.0186C20.0336 21.3721 20.665 21.3149 21.0186 20.8906C21.3721 20.4664 21.3139 19.835 20.8896 19.4814L16.75 16.0312V7C16.7499 6.44776 16.3023 6 15.75 6Z"
    fill="currentColor"
  />
</svg>
