<svg width="24" height="24" viewBox="0 0 24 24" fill="none" xmlns="http://www.w3.org/2000/svg" data-fui-icon="true">
  <path
    d="M12 0C18.6274 0 24 5.37258 24 12C24 18.6274 18.6274 24 12 24C5.37258 24 0 18.6274 0 12C0 5.37258 5.37258 0 12 0ZM12 1.5C6.20101 1.5 1.5 6.20101 1.5 12C1.5 17.799 6.20101 22.5 12 22.5C17.799 22.5 22.5 17.799 22.5 12C22.5 6.20101 17.799 1.5 12 1.5ZM11.75 4.75C12.1642 4.75 12.5 5.08579 12.5 5.5V12.1387L15.9688 14.9141C16.2922 15.1728 16.3447 15.6453 16.0859 15.9688C15.8272 16.2922 15.3547 16.3447 15.0312 16.0859L11.2812 13.0859L11.2188 13.0293C11.0795 12.8896 11 12.6995 11 12.5V5.5C11 5.08579 11.3358 4.75 11.75 4.75Z"
    fill="currentColor"
  />
</svg>
