<svg width="24" height="24" viewBox="0 0 24 24" fill="none" xmlns="http://www.w3.org/2000/svg" data-fui-icon="true">
  <path
    d="M12 0.5C18.3513 0.5 23.5 5.64873 23.5 12C23.5 18.3513 18.3513 23.5 12 23.5C5.64873 23.5 0.5 18.3513 0.5 12C0.5 5.64873 5.64873 0.5 12 0.5ZM12 2.5C6.75329 2.5 2.5 6.75329 2.5 12C2.5 17.2467 6.75329 21.5 12 21.5C17.2467 21.5 21.5 17.2467 21.5 12C21.5 6.75329 17.2467 2.5 12 2.5ZM11.75 5C12.3022 5 12.7498 5.44789 12.75 6V12.0186L15.625 14.3184C16.0562 14.6633 16.126 15.2934 15.7812 15.7246C15.4362 16.1559 14.8063 16.2259 14.375 15.8809L11.125 13.2803L11.041 13.2051C10.8558 13.0189 10.7501 12.7656 10.75 12.5V6C10.7502 5.44789 11.1978 5 11.75 5Z"
    fill="currentColor"
  />
</svg>
