<svg width="12" height="12" viewBox="0 0 12 12" fill="none" xmlns="http://www.w3.org/2000/svg" data-fui-icon="true">
  <path
    d="M10.6667 2.34003C10.85 2.34003 11 2.49003 11 2.67336V9.34003C11 9.52336 10.85 9.67336 10.6667 9.67336H1.33333C1.15 9.67336 1 9.52336 1 9.34003V2.67336C1 2.49003 1.15 2.34003 1.33333 2.34003H10.6667ZM1.33333 1.34003C0.597917 1.34003 0 1.93794 0 2.67336V9.34003C0 10.0754 0.597917 10.6734 1.33333 10.6734H10.6667C11.4021 10.6734 12 10.0754 12 9.34003V2.67336C12 1.93794 11.4021 1.34003 10.6667 1.34003H1.33333ZM4.16667 5.00669C4.4625 5.00669 4.72917 5.13378 4.9125 5.34003C5.09583 5.54628 5.4125 5.56294 5.61875 5.37961C5.825 5.19628 5.84167 4.87961 5.65833 4.67336C5.29375 4.26503 4.76042 4.00669 4.16875 4.00669C3.06458 4.00669 2.16875 4.90253 2.16875 6.00669C2.16875 7.11086 3.06458 8.00669 4.16875 8.00669C4.76042 8.00669 5.29375 7.74836 5.65833 7.34003C5.84167 7.13378 5.825 6.81919 5.61875 6.63378C5.4125 6.44836 5.09792 6.46711 4.9125 6.67336C4.72917 6.87961 4.4625 7.00669 4.16667 7.00669C3.61458 7.00669 3.16667 6.55878 3.16667 6.00669C3.16667 5.45461 3.61458 5.00669 4.16667 5.00669ZM7.16667 6.00669C7.16667 5.45461 7.61458 5.00669 8.16667 5.00669C8.4625 5.00669 8.72917 5.13378 8.9125 5.34003C9.09583 5.54628 9.4125 5.56294 9.61875 5.37961C9.825 5.19628 9.84167 4.87961 9.65833 4.67336C9.29375 4.26503 8.76042 4.00669 8.16875 4.00669C7.06458 4.00669 6.16875 4.90253 6.16875 6.00669C6.16875 7.11086 7.06458 8.00669 8.16875 8.00669C8.76042 8.00669 9.29375 7.74836 9.65833 7.34003C9.84167 7.13378 9.825 6.81919 9.61875 6.63378C9.4125 6.44836 9.09792 6.46711 8.9125 6.67336C8.72917 6.87961 8.4625 7.00669 8.16667 7.00669C7.61458 7.00669 7.16667 6.55878 7.16667 6.00669Z"
    fill="currentColor"
  />
</svg>
