<svg width="12" height="12" viewBox="0 0 12 12" fill="none" xmlns="http://www.w3.org/2000/svg" data-fui-icon="true">
  <path
    d="M10.6667 2.34009C10.85 2.34009 11 2.49009 11 2.67342V9.34009C11 9.52342 10.85 9.67342 10.6667 9.67342H1.33333C1.15 9.67342 1 9.52342 1 9.34009V2.67342C1 2.49009 1.15 2.34009 1.33333 2.34009H10.6667ZM1.33333 1.34009C0.597917 1.34009 0 1.938 0 2.67342V9.34009C0 10.0755 0.597917 10.6734 1.33333 10.6734H10.6667C11.4021 10.6734 12 10.0755 12 9.34009V2.67342C12 1.938 11.4021 1.34009 10.6667 1.34009H1.33333ZM4.16667 5.00675C4.4625 5.00675 4.72917 5.13384 4.9125 5.34009C5.09583 5.54634 5.4125 5.563 5.61875 5.37967C5.825 5.19634 5.84167 4.87967 5.65833 4.67342C5.29375 4.26509 4.76042 4.00675 4.16875 4.00675C3.06458 4.00675 2.16875 4.90259 2.16875 6.00675C2.16875 7.11092 3.06458 8.00676 4.16875 8.00676C4.76042 8.00676 5.29375 7.74842 5.65833 7.34009C5.84167 7.13384 5.825 6.81925 5.61875 6.63384C5.4125 6.44842 5.09792 6.46717 4.9125 6.67342C4.72917 6.87967 4.4625 7.00676 4.16667 7.00676C3.61458 7.00676 3.16667 6.55884 3.16667 6.00675C3.16667 5.45467 3.61458 5.00675 4.16667 5.00675ZM7.16667 6.00675C7.16667 5.45467 7.61458 5.00675 8.16667 5.00675C8.4625 5.00675 8.72917 5.13384 8.9125 5.34009C9.09583 5.54634 9.4125 5.563 9.61875 5.37967C9.825 5.19634 9.84167 4.87967 9.65833 4.67342C9.29375 4.26509 8.76042 4.00675 8.16875 4.00675C7.06458 4.00675 6.16875 4.90259 6.16875 6.00675C6.16875 7.11092 7.06458 8.00676 8.16875 8.00676C8.76042 8.00676 9.29375 7.74842 9.65833 7.34009C9.84167 7.13384 9.825 6.81925 9.61875 6.63384C9.4125 6.44842 9.09792 6.46717 8.9125 6.67342C8.72917 6.87967 8.4625 7.00676 8.16667 7.00676C7.61458 7.00676 7.16667 6.55884 7.16667 6.00675Z"
    fill="currentColor"
  />
</svg>
