<svg
  width="16"
  height="16"
  viewBox="0 0 16 16"
  fill="none"
  xmlns="http://www.w3.org/2000/svg"
  data-fui-icon="true"
>
  <path
    d="M14.2222 3.11336C14.4667 3.11336 14.6667 3.31336 14.6667 3.55781V12.4467C14.6667 12.6911 14.4667 12.8911 14.2222 12.8911H1.77778C1.53333 12.8911 1.33333 12.6911 1.33333 12.4467V3.55781C1.33333 3.31336 1.53333 3.11336 1.77778 3.11336H14.2222ZM1.77778 1.78003C0.797222 1.78003 0 2.57725 0 3.55781V12.4467C0 13.4273 0.797222 14.2245 1.77778 14.2245H14.2222C15.2028 14.2245 16 13.4273 16 12.4467V3.55781C16 2.57725 15.2028 1.78003 14.2222 1.78003H1.77778ZM5.55556 6.66892C5.95 6.66892 6.30556 6.83836 6.55 7.11336C6.79444 7.38836 7.21667 7.41058 7.49167 7.16614C7.76667 6.9217 7.78889 6.49947 7.54444 6.22447C7.05833 5.68003 6.34722 5.33558 5.55833 5.33558C4.08611 5.33558 2.89167 6.53003 2.89167 8.00225C2.89167 9.47447 4.08611 10.6689 5.55833 10.6689C6.34722 10.6689 7.05833 10.3245 7.54444 9.78003C7.78889 9.50503 7.76667 9.08559 7.49167 8.83836C7.21667 8.59114 6.79722 8.61614 6.55 8.89114C6.30556 9.16614 5.95 9.33559 5.55556 9.33559C4.81944 9.33559 4.22222 8.73836 4.22222 8.00225C4.22222 7.26614 4.81944 6.66892 5.55556 6.66892ZM9.55556 8.00225C9.55556 7.26614 10.1528 6.66892 10.8889 6.66892C11.2833 6.66892 11.6389 6.83836 11.8833 7.11336C12.1278 7.38836 12.55 7.41058 12.825 7.16614C13.1 6.9217 13.1222 6.49947 12.8778 6.22447C12.3917 5.68003 11.6806 5.33558 10.8917 5.33558C9.41945 5.33558 8.225 6.53003 8.225 8.00225C8.225 9.47447 9.41945 10.6689 10.8917 10.6689C11.6806 10.6689 12.3917 10.3245 12.8778 9.78003C13.1222 9.50503 13.1 9.08559 12.825 8.83836C12.55 8.59114 12.1306 8.61614 11.8833 8.89114C11.6389 9.16614 11.2833 9.33559 10.8889 9.33559C10.1528 9.33559 9.55556 8.73836 9.55556 8.00225Z"
    fill="currentColor"
  />
</svg>
