<svg
  width="32"
  height="32"
  viewBox="0 0 32 32"
  fill="none"
  xmlns="http://www.w3.org/2000/svg"
  data-fui-icon="true"
>
  <path
    d="M28.4444 6.21672C28.9333 6.21672 29.3333 6.61672 29.3333 7.1056V24.8834C29.3333 25.3723 28.9333 25.7723 28.4444 25.7723H3.55556C3.06667 25.7723 2.66667 25.3723 2.66667 24.8834V7.1056C2.66667 6.61672 3.06667 6.21672 3.55556 6.21672H28.4444ZM3.55556 3.55005C1.59444 3.55005 0 5.14449 0 7.1056V24.8834C0 26.8445 1.59444 28.4389 3.55556 28.4389H28.4444C30.4056 28.4389 32 26.8445 32 24.8834V7.1056C32 5.14449 30.4056 3.55005 28.4444 3.55005H3.55556ZM11.1111 13.3278C11.9 13.3278 12.6111 13.6667 13.1 14.2167C13.5889 14.7667 14.4333 14.8112 14.9833 14.3223C15.5333 13.8334 15.5778 12.9889 15.0889 12.4389C14.1167 11.35 12.6944 10.6612 11.1167 10.6612C8.17222 10.6612 5.78333 13.05 5.78333 15.9945C5.78333 18.9389 8.17222 21.3278 11.1167 21.3278C12.6944 21.3278 14.1167 20.6389 15.0889 19.55C15.5778 19 15.5333 18.1612 14.9833 17.6667C14.4333 17.1723 13.5944 17.2223 13.1 17.7723C12.6111 18.3223 11.9 18.6612 11.1111 18.6612C9.63889 18.6612 8.44444 17.4667 8.44444 15.9945C8.44444 14.5223 9.63889 13.3278 11.1111 13.3278ZM19.1111 15.9945C19.1111 14.5223 20.3056 13.3278 21.7778 13.3278C22.5667 13.3278 23.2778 13.6667 23.7667 14.2167C24.2556 14.7667 25.1 14.8112 25.65 14.3223C26.2 13.8334 26.2444 12.9889 25.7556 12.4389C24.7833 11.35 23.3611 10.6612 21.7833 10.6612C18.8389 10.6612 16.45 13.05 16.45 15.9945C16.45 18.9389 18.8389 21.3278 21.7833 21.3278C23.3611 21.3278 24.7833 20.6389 25.7556 19.55C26.2444 19 26.2 18.1612 25.65 17.6667C25.1 17.1723 24.2611 17.2223 23.7667 17.7723C23.2778 18.3223 22.5667 18.6612 21.7778 18.6612C20.3056 18.6612 19.1111 17.4667 19.1111 15.9945Z"
    fill="currentColor"
  />
</svg>
