<svg width="24" height="24" viewBox="0 0 24 24" fill="none" xmlns="http://www.w3.org/2000/svg" data-fui-icon="true">
  <path
    d="M21.3333 4.66992C21.7 4.66992 22 4.96992 22 5.33659V18.6699C22 19.0366 21.7 19.3366 21.3333 19.3366H2.66667C2.3 19.3366 2 19.0366 2 18.6699V5.33659C2 4.96992 2.3 4.66992 2.66667 4.66992H21.3333ZM2.66667 2.66992C1.19583 2.66992 0 3.86576 0 5.33659V18.6699C0 20.1408 1.19583 21.3366 2.66667 21.3366H21.3333C22.8042 21.3366 24 20.1408 24 18.6699V5.33659C24 3.86576 22.8042 2.66992 21.3333 2.66992H2.66667ZM8.33333 10.0033C8.925 10.0033 9.45833 10.2574 9.825 10.6699C10.1917 11.0824 10.825 11.1158 11.2375 10.7491C11.65 10.3824 11.6833 9.74909 11.3167 9.33659C10.5875 8.51992 9.52083 8.00326 8.3375 8.00326C6.12917 8.00326 4.3375 9.79492 4.3375 12.0033C4.3375 14.2116 6.12917 16.0033 8.3375 16.0033C9.52083 16.0033 10.5875 15.4866 11.3167 14.6699C11.6833 14.2574 11.65 13.6283 11.2375 13.2574C10.825 12.8866 10.1958 12.9241 9.825 13.3366C9.45833 13.7491 8.925 14.0033 8.33333 14.0033C7.22917 14.0033 6.33333 13.1074 6.33333 12.0033C6.33333 10.8991 7.22917 10.0033 8.33333 10.0033ZM14.3333 12.0033C14.3333 10.8991 15.2292 10.0033 16.3333 10.0033C16.925 10.0033 17.4583 10.2574 17.825 10.6699C18.1917 11.0824 18.825 11.1158 19.2375 10.7491C19.65 10.3824 19.6833 9.74909 19.3167 9.33659C18.5875 8.51992 17.5208 8.00326 16.3375 8.00326C14.1292 8.00326 12.3375 9.79492 12.3375 12.0033C12.3375 14.2116 14.1292 16.0033 16.3375 16.0033C17.5208 16.0033 18.5875 15.4866 19.3167 14.6699C19.6833 14.2574 19.65 13.6283 19.2375 13.2574C18.825 12.8866 18.1958 12.9241 17.825 13.3366C17.4583 13.7491 16.925 14.0033 16.3333 14.0033C15.2292 14.0033 14.3333 13.1074 14.3333 12.0033Z"
    fill="currentColor"
  />
</svg>
