<svg width="32" height="32" viewBox="0 0 32 32" fill="none" xmlns="http://www.w3.org/2000/svg" data-fui-icon="true">
  <path
    d="M9.4873 14.6348C9.88735 14.742 10.3386 14.5182 10.4951 14.1348L14.1406 5.19434C14.297 4.81093 14.1 4.41304 13.7002 4.30566C13.3002 4.19857 12.8489 4.42236 12.6924 4.80566L9.0459 13.7461C8.88948 14.1296 9.08723 14.5275 9.4873 14.6348ZM21.2275 25.4756C21.9618 25.4756 22.5578 25.4769 23.04 25.4375C23.4696 25.4024 23.8593 25.332 24.2236 25.1758L24.3789 25.1035C25.0217 24.776 25.5446 24.253 25.8721 23.6104C26.0801 23.2019 26.165 22.7624 26.2051 22.2715C26.2444 21.7893 26.2441 21.1931 26.2441 20.459L26.2441 9.55957C26.2441 8.87171 26.2447 8.31307 26.21 7.86035C26.1746 7.3997 26.0995 6.98657 25.916 6.59863C25.5781 5.88411 25.0026 5.30868 24.2881 4.9707C23.9002 4.78726 23.487 4.71208 23.0264 4.67676C22.5737 4.64207 22.015 4.64258 21.3271 4.64258H20.1221C19.7079 4.64258 19.3721 4.97842 19.3721 5.39258C19.3721 5.80679 19.7079 6.14258 20.1221 6.14258H21.3271C22.0382 6.14258 22.53 6.14356 22.9121 6.17285C23.2856 6.20151 23.4933 6.25382 23.6465 6.32617C24.0473 6.51578 24.371 6.83941 24.5605 7.24023C24.6329 7.39345 24.6852 7.60105 24.7139 7.97461C24.7432 8.35674 24.7441 8.84845 24.7441 9.55957L24.7441 20.459C24.7441 21.2179 24.7432 21.7424 24.71 22.1494C24.6774 22.5476 24.6176 22.7679 24.5352 22.9297C24.3514 23.2902 24.0577 23.583 23.6973 23.7666C23.5355 23.849 23.316 23.9098 22.918 23.9424C22.511 23.9756 21.9865 23.9756 21.2275 23.9756L10.4277 23.9756C9.6689 23.9756 9.1443 23.9756 8.7373 23.9424C8.33908 23.9098 8.11885 23.849 7.95703 23.7666C7.59671 23.583 7.30376 23.29 7.12012 22.9297C7.03765 22.7679 6.97688 22.5477 6.94434 22.1494C6.91111 21.7424 6.91113 21.2179 6.91113 20.459L6.91113 16.0811C6.91107 15.6671 6.57507 15.3313 6.16113 15.3311C5.74696 15.3311 5.4112 15.6669 5.41113 16.0811V20.459C5.41113 21.1931 5.40985 21.7893 5.44922 22.2715C5.48434 22.7013 5.5545 23.0915 5.71094 23.4561L5.7832 23.6104C6.06977 24.1729 6.50581 24.6434 7.04102 24.9717L7.27637 25.1035C7.68488 25.3116 8.12425 25.3974 8.61523 25.4375C9.09745 25.4769 9.69365 25.4756 10.4277 25.4756L21.2275 25.4756ZM6.99707 12.915C7.30466 13.1925 7.77922 13.1679 8.05664 12.8604C8.3336 12.5529 8.30908 12.0791 8.00195 11.8018L5.91992 9.92383C5.69362 9.71954 5.69347 9.45425 5.91992 9.25L8.00195 7.37207C8.30909 7.09472 8.33361 6.62096 8.05664 6.31348C7.7792 6.00613 7.30458 5.98149 6.99707 6.25879L4.91504 8.13574C4.02807 8.93571 4.02823 10.238 4.91504 11.0381L6.99707 12.915ZM15.1318 12.8604C15.4092 13.1679 15.8828 13.1923 16.1904 12.915L18.2725 11.0381C19.1592 10.238 19.1594 8.93569 18.2725 8.13574L16.1904 6.25879C15.8829 5.98151 15.4093 6.0062 15.1318 6.31348C14.8545 6.62107 14.879 7.09467 15.1865 7.37207L17.2676 9.25C17.494 9.45423 17.4938 9.71955 17.2676 9.92383L15.1865 11.8018C14.8789 12.0792 14.8544 12.5528 15.1318 12.8604Z"
    fill="currentColor"
  />
</svg>
