<svg width="12" height="12" viewBox="0 0 12 12" fill="none" xmlns="http://www.w3.org/2000/svg" data-fui-icon="true">
  <path
    fill-rule="evenodd"
    clip-rule="evenodd"
    d="M6.01599 1.57188C6.18338 0.959525 6.81557 0.598184 7.4281 0.765238C8.04037 0.932544 8.40152 1.56492 8.23474 2.17735L5.98474 10.4273C5.8176 11.0399 5.18527 11.4009 4.57263 11.234C3.95989 11.0669 3.59888 10.4346 3.76599 9.82188L6.01599 1.57188ZM2.03748 3.08653C2.47275 2.62443 3.20106 2.60172 3.66345 3.03672C4.12584 3.4719 4.14722 4.20018 3.71228 4.6627L2.45349 5.99961L3.71228 7.33653C4.14746 7.79891 4.12561 8.52717 3.66345 8.9625C3.20094 9.39764 2.47272 9.37515 2.03748 8.9127L0.682985 7.47325C-0.0961395 6.64539 -0.0961631 5.35383 0.682985 4.52598L2.03748 3.08653ZM8.33728 3.03672C8.79977 2.6022 9.52721 2.62442 9.96228 3.08653L11.3178 4.52598C12.0967 5.3537 12.0965 6.64539 11.3178 7.47325L9.96228 8.9127C9.5271 9.37496 8.79976 9.39739 8.33728 8.9625C7.87485 8.52726 7.85235 7.79903 8.28748 7.33653L9.54627 5.99961L8.28748 4.6627C7.85239 4.20019 7.87485 3.47195 8.33728 3.03672Z"
    fill="currentColor"
  />
</svg>
