<svg width="20" height="20" viewBox="0 0 20 20" fill="none" xmlns="http://www.w3.org/2000/svg" data-fui-icon="true">
  <path
    d="M13.75 0C17.2018 0 20 2.79822 20 6.25V13.75C20 17.2018 17.2018 20 13.75 20H6.25C2.79822 20 0 17.2018 0 13.75V6.25C0 2.79822 2.79822 0 6.25 0H13.75ZM8.53027 6.21973C8.23738 5.92683 7.76262 5.92683 7.46973 6.21973L4.57324 9.11621C4.08514 9.60436 4.08514 10.3956 4.57324 10.8838L7.46973 13.7803C7.76262 14.0732 8.23738 14.0732 8.53027 13.7803C8.82317 13.4874 8.82317 13.0126 8.53027 12.7197L5.81055 10L8.53027 7.28027C8.82317 6.98738 8.82317 6.51262 8.53027 6.21973ZM12.5303 6.21973C12.2374 5.92683 11.7626 5.92683 11.4697 6.21973C11.1768 6.51262 11.1768 6.98738 11.4697 7.28027L14.1895 10L11.4697 12.7197C11.1768 13.0126 11.1768 13.4874 11.4697 13.7803C11.7626 14.0732 12.2374 14.0732 12.5303 13.7803L15.4268 10.8838C15.9149 10.3956 15.9149 9.60436 15.4268 9.11621L12.5303 6.21973Z"
    fill="currentColor"
  />
</svg>
