<svg width="12" height="12" viewBox="0 0 12 12" fill="none" xmlns="http://www.w3.org/2000/svg" data-fui-icon="true">
  <path
    d="M6.16016 1.61206C6.3055 1.07944 6.85503 0.764843 7.3877 0.909912C7.92032 1.05517 8.23475 1.60482 8.08984 2.13745L5.83984 10.3875C5.69453 10.9203 5.14415 11.2349 4.61133 11.0896C4.07889 10.9441 3.76512 10.3946 3.91016 9.86206L6.16016 1.61206ZM2.14648 3.18921C2.52497 2.78717 3.1584 2.76789 3.56055 3.14624C3.96266 3.52474 3.98099 4.15814 3.60254 4.5603L2.24805 5.99976L3.60254 7.43921C3.98102 7.84135 3.96263 8.47475 3.56055 8.85327C3.15839 9.23177 2.525 9.21244 2.14648 8.8103L0.791992 7.37085C0.0673231 6.60074 0.0672358 5.39872 0.791992 4.62866L2.14648 3.18921ZM8.43945 3.14624C8.84148 2.76808 9.47404 2.78756 9.85254 3.18921L11.208 4.62866C11.9328 5.39874 11.9328 6.60075 11.208 7.37085L9.85254 8.8103C9.47404 9.2121 8.84153 9.23152 8.43945 8.85327C8.03741 8.47474 8.01801 7.84134 8.39648 7.43921L9.75195 5.99976L8.39648 4.5603C8.01811 4.15812 8.03732 3.52471 8.43945 3.14624Z"
    fill="currentColor"
  />
</svg>
