<svg width="24" height="24" viewBox="0 0 24 24" fill="none" xmlns="http://www.w3.org/2000/svg" data-fui-icon="true">
  <path
    fill-rule="evenodd"
    clip-rule="evenodd"
    d="M12.8035 3.35514C13.0216 2.55611 13.8462 2.08452 14.6453 2.3024C15.4443 2.52044 15.9148 3.34514 15.6971 4.1442L11.1971 20.6442C10.9791 21.4434 10.1545 21.9149 9.3553 21.6969C8.55636 21.4788 8.08565 20.6542 8.30354 19.8551L12.8035 3.35514ZM4.65803 6.72135C5.22566 6.11855 6.17496 6.08975 6.77815 6.6569C7.38136 7.22461 7.41021 8.17472 6.8426 8.77799L4.13264 11.6569C3.95152 11.8494 3.95163 12.1499 4.13264 12.3424L6.8426 15.2213C7.41033 15.8246 7.38126 16.7747 6.77815 17.3424C6.17491 17.9098 5.2257 17.881 4.65803 17.278L1.94807 14.3981C0.680124 13.0505 0.680014 10.9488 1.94807 9.60123L4.65803 6.72135ZM17.2225 6.6569C17.8256 6.08969 18.7749 6.1186 19.3426 6.72135L22.0526 9.60123C23.3207 10.9488 23.3206 13.0505 22.0526 14.3981L19.3426 17.278C18.7749 17.881 17.8257 17.9099 17.2225 17.3424C16.6194 16.7747 16.5903 15.8246 17.158 15.2213L19.868 12.3424C20.049 12.1499 20.0491 11.8494 19.868 11.6569L17.158 8.77799C16.5904 8.17472 16.6193 7.22461 17.2225 6.6569Z"
    fill="currentColor"
  />
</svg>
