<svg width="24" height="24" viewBox="0 0 24 24" fill="none" xmlns="http://www.w3.org/2000/svg" data-fui-icon="true">
  <path
    d="M12.8032 3.35522C13.0213 2.5562 13.8459 2.0846 14.645 2.30249C15.444 2.52052 15.9145 3.34522 15.6968 4.14429L11.1968 20.6443C10.9788 21.4435 10.1542 21.915 9.35498 21.697C8.55604 21.4789 8.08533 20.6543 8.30322 19.8552L12.8032 3.35522ZM4.65771 6.72144C5.22534 6.11863 6.17464 6.08984 6.77783 6.65698C7.38104 7.2247 7.40989 8.1748 6.84229 8.77808L4.13232 11.657C3.9512 11.8494 3.95131 12.15 4.13232 12.3425L6.84229 15.2214C7.41001 15.8246 7.38094 16.7747 6.77783 17.3425C6.17459 17.9099 5.22538 17.8811 4.65771 17.2781L1.94775 14.3982C0.679805 13.0506 0.679695 10.9489 1.94775 9.60132L4.65771 6.72144ZM17.2222 6.65698C17.8253 6.08978 18.7746 6.11869 19.3423 6.72144L22.0522 9.60132C23.3204 10.9489 23.3203 13.0506 22.0522 14.3982L19.3423 17.2781C18.7746 17.881 17.8254 17.9099 17.2222 17.3425C16.6191 16.7747 16.59 15.8246 17.1577 15.2214L19.8677 12.3425C20.0487 12.15 20.0488 11.8495 19.8677 11.657L17.1577 8.77808C16.5901 8.1748 16.619 7.2247 17.2222 6.65698Z"
    fill="currentColor"
  />
</svg>
