<svg width="20" height="20" viewBox="0 0 20 20" fill="none" xmlns="http://www.w3.org/2000/svg" data-fui-icon="true">
  <path
    fill-rule="evenodd"
    clip-rule="evenodd"
    d="M11.152 2.92759C11.261 2.52809 11.6733 2.29226 12.0729 2.40123C12.4721 2.51033 12.7079 2.92274 12.5992 3.32212L8.84923 17.0721C8.74029 17.4716 8.32779 17.7071 7.92833 17.5985C7.52872 17.4895 7.29298 17.0772 7.40197 16.6776L11.152 2.92759ZM4.24572 5.94419C4.52962 5.64273 5.00469 5.62814 5.30626 5.91197C5.60768 6.1958 5.62212 6.67092 5.33849 6.97251L3.0797 9.37193C2.74778 9.72483 2.74778 10.2749 3.0797 10.6278L5.33849 13.0272C5.62223 13.3287 5.60758 13.8038 5.30626 14.0877C5.00464 14.3716 4.5296 14.3571 4.24572 14.0555L1.9879 11.6561C1.1121 10.7256 1.1121 9.27415 1.9879 8.34361L4.24572 5.94419ZM14.6949 5.91197C14.9966 5.62851 15.4707 5.6428 15.7545 5.94419L18.0133 8.34361C18.8888 9.27404 18.8887 10.7256 18.0133 11.6561L15.7545 14.0555C15.4707 14.357 14.9965 14.3714 14.6949 14.0877C14.3933 13.8039 14.3788 13.3288 14.6627 13.0272L16.9205 10.6278C17.2525 10.2748 17.2526 9.72481 16.9205 9.37193L14.6627 6.97251C14.3788 6.67088 14.3933 6.19585 14.6949 5.91197Z"
    fill="currentColor"
  />
</svg>
