<svg width="24" height="24" viewBox="0 0 24 24" fill="none" xmlns="http://www.w3.org/2000/svg" data-fui-icon="true">
  <path
    d="M12.9951 3.40796C13.184 2.71545 13.8993 2.30723 14.5918 2.49585C15.2842 2.68482 15.6926 3.39905 15.5039 4.09155L11.0039 20.5916C10.815 21.2842 10.0999 21.6926 9.40723 21.5037C8.71514 21.3145 8.30648 20.6003 8.49512 19.908L12.9951 3.40796ZM4.80273 6.85913C5.29471 6.3364 6.11778 6.31169 6.64062 6.80347C7.16317 7.2955 7.1881 8.11762 6.69629 8.64038L3.98633 11.5203C3.73303 11.7897 3.73313 12.2098 3.98633 12.4792L6.69629 15.3591C7.1881 15.8819 7.16317 16.704 6.64062 17.196C6.11779 17.688 5.29476 17.6632 4.80273 17.1404L2.09277 14.2615C0.897298 12.9909 0.897197 11.0086 2.09277 9.73804L4.80273 6.85913ZM17.3584 6.80347C17.8811 6.31149 18.7042 6.33658 19.1963 6.85913L21.9062 9.73804C23.1021 11.0087 23.1021 12.9908 21.9062 14.2615L19.1963 17.1404C18.7042 17.6631 17.8812 17.6881 17.3584 17.196C16.8363 16.704 16.8113 15.8818 17.3027 15.3591L20.0127 12.4792C20.2663 12.2097 20.2663 11.7898 20.0127 11.5203L17.3027 8.64038C16.8114 8.11768 16.8362 7.29541 17.3584 6.80347Z"
    fill="currentColor"
  />
</svg>
