<svg width="20" height="20" viewBox="0 0 20 20" fill="none" xmlns="http://www.w3.org/2000/svg" data-fui-icon="true">
  <path
    d="M11.1519 2.92749C11.2609 2.52799 11.6732 2.29215 12.0728 2.40112C12.472 2.51023 12.7078 2.92264 12.5991 3.32202L8.84912 17.072C8.74018 17.4715 8.32768 17.707 7.92822 17.5984C7.5286 17.4894 7.29287 17.0771 7.40186 16.6775L11.1519 2.92749ZM4.24561 5.94409C4.52951 5.64263 5.00458 5.62803 5.30615 5.91187C5.60756 6.1957 5.62201 6.67082 5.33838 6.97241L3.07959 9.37183C2.74767 9.72472 2.74767 10.2748 3.07959 10.6277L5.33838 13.0271C5.62212 13.3286 5.60747 13.8037 5.30615 14.0876C5.00452 14.3715 4.52949 14.357 4.24561 14.0554L1.98779 11.656C1.11199 10.7255 1.11199 9.27404 1.98779 8.34351L4.24561 5.94409ZM14.6948 5.91187C14.9964 5.6284 15.4706 5.6427 15.7544 5.94409L18.0132 8.34351C18.8887 9.27394 18.8886 10.7255 18.0132 11.656L15.7544 14.0554C15.4706 14.3569 14.9964 14.3713 14.6948 14.0876C14.3932 13.8038 14.3787 13.3287 14.6626 13.0271L16.9204 10.6277C17.2524 10.2747 17.2525 9.72471 16.9204 9.37183L14.6626 6.97241C14.3787 6.67078 14.3932 6.19575 14.6948 5.91187Z"
    fill="currentColor"
  />
</svg>
