<svg width="32" height="32" viewBox="0 0 32 32" fill="none" xmlns="http://www.w3.org/2000/svg" data-fui-icon="true">
  <path
    fill-rule="evenodd"
    clip-rule="evenodd"
    d="M17.649 4.6315C17.8526 3.88579 18.623 3.44582 19.3688 3.64908C20.1143 3.85261 20.5542 4.62217 20.3512 5.36783L14.3512 27.3678C14.1477 28.1138 13.3774 28.5537 12.6314 28.3503C11.8859 28.1466 11.4458 27.3772 11.649 26.6315L17.649 4.6315ZM6.64707 9.37369C7.17692 8.81082 8.06354 8.7835 8.62657 9.31314C9.18958 9.84303 9.21596 10.7296 8.68614 11.2926L5.07286 15.1315C4.61394 15.6191 4.6141 16.3801 5.07286 16.8678L8.68614 20.7067C9.21603 21.2697 9.18954 22.1563 8.62657 22.6862C8.06352 23.2161 7.17699 23.1887 6.64707 22.6256L3.03379 18.7868C1.56043 17.2209 1.56027 14.7783 3.03379 13.2126L6.64707 9.37369ZM23.3736 9.31314C23.9366 8.78344 24.8232 8.81094 25.3531 9.37369L28.9664 13.2126L29.1002 13.362C30.3952 14.8796 30.3952 17.1197 29.1002 18.6374L28.9664 18.7868L25.3531 22.6256C24.8232 23.1887 23.9367 23.2161 23.3736 22.6862C22.8108 22.1562 22.7842 21.2697 23.3141 20.7067L26.9273 16.8678C27.3862 16.3801 27.3863 15.6192 26.9273 15.1315L23.3141 11.2926C22.7844 10.7296 22.8107 9.84298 23.3736 9.31314Z"
    fill="currentColor"
  />
</svg>
