<svg width="12" height="12" viewBox="0 0 12 12" fill="none" xmlns="http://www.w3.org/2000/svg" data-fui-icon="true">
  <path
    d="M8 0C10.2091 0 12 1.79086 12 4V8C12 10.2091 10.2091 12 8 12H4C1.79086 12 0 10.2091 0 8V4C0 1.79086 1.79086 0 4 0H8ZM5.45703 3.79297C5.06651 3.40244 4.43349 3.40244 4.04297 3.79297L2.54297 5.29297C2.15244 5.68349 2.15244 6.31651 2.54297 6.70703L4.04297 8.20703C4.43349 8.59756 5.06651 8.59756 5.45703 8.20703C5.84756 7.81651 5.84756 7.18349 5.45703 6.79297L4.66406 6L5.45703 5.20703C5.84756 4.81651 5.84756 4.18349 5.45703 3.79297ZM7.95703 3.79297C7.56651 3.40244 6.93349 3.40244 6.54297 3.79297C6.15244 4.18349 6.15244 4.81651 6.54297 5.20703L7.33594 6L6.54297 6.79297C6.15244 7.18349 6.15244 7.81651 6.54297 8.20703C6.93349 8.59756 7.56651 8.59756 7.95703 8.20703L9.45703 6.70703C9.84756 6.31651 9.84756 5.68349 9.45703 5.29297L7.95703 3.79297Z"
    fill="currentColor"
  />
</svg>
