<svg width="24" height="24" viewBox="0 0 24 24" fill="none" xmlns="http://www.w3.org/2000/svg" data-fui-icon="true">
  <path
    fill-rule="evenodd"
    clip-rule="evenodd"
    d="M12.9953 3.40806C13.1842 2.71555 13.8994 2.30732 14.592 2.49595C15.2844 2.68492 15.6928 3.39914 15.5041 4.09165L11.0041 20.5916C10.8152 21.2843 10.1001 21.6927 9.40739 21.5038C8.7153 21.3145 8.30664 20.6004 8.49528 19.9081L12.9953 3.40806ZM4.80289 6.85923C5.29487 6.3365 6.11794 6.31178 6.64079 6.80356C7.16333 7.29559 7.18826 8.11771 6.69645 8.64048L3.98649 11.5204C3.73319 11.7898 3.73329 12.2099 3.98649 12.4793L6.69645 15.3592C7.18826 15.882 7.16333 16.7041 6.64079 17.1961C6.11795 17.6881 5.29492 17.6633 4.80289 17.1405L2.09293 14.2616C0.897458 12.991 0.897357 11.0087 2.09293 9.73813L4.80289 6.85923ZM17.3586 6.80356C17.8813 6.31158 18.7043 6.33668 19.1964 6.85923L21.9064 9.73813C23.1023 11.0088 23.1023 12.9909 21.9064 14.2616L19.1964 17.1405C18.7044 17.6632 17.8813 17.6882 17.3586 17.1961C16.8365 16.7041 16.8114 15.8819 17.3029 15.3592L20.0129 12.4793C20.2665 12.2098 20.2665 11.7899 20.0129 11.5204L17.3029 8.64048C16.8115 8.11777 16.8364 7.2955 17.3586 6.80356Z"
    fill="currentColor"
  />
</svg>
