<svg width="16" height="16" viewBox="0 0 16 16" fill="none" xmlns="http://www.w3.org/2000/svg" data-fui-icon="true">
  <path
    d="M10.75 1C13.0972 1 15 2.90279 15 5.25V10.75C15 13.0972 13.0972 15 10.75 15H5.25C2.90279 15 1 13.0972 1 10.75V5.25C1 2.90279 2.90279 1 5.25 1H10.75ZM7.03027 5.71973C6.73738 5.42683 6.26262 5.42683 5.96973 5.71973L4.36133 7.32812C3.99033 7.69912 3.99033 8.30088 4.36133 8.67188L5.96973 10.2803C6.26262 10.5732 6.73738 10.5732 7.03027 10.2803C7.32317 9.98738 7.32317 9.51262 7.03027 9.21973L5.81055 8L7.03027 6.78027C7.32317 6.48738 7.32317 6.01262 7.03027 5.71973ZM10.0303 5.71973C9.73738 5.42683 9.26262 5.42683 8.96973 5.71973C8.67683 6.01262 8.67683 6.48738 8.96973 6.78027L10.1895 8L8.96973 9.21973C8.67683 9.51262 8.67683 9.98738 8.96973 10.2803C9.26262 10.5732 9.73738 10.5732 10.0303 10.2803L11.6387 8.67188C12.0097 8.30088 12.0097 7.69912 11.6387 7.32812L10.0303 5.71973Z"
    fill="currentColor"
  />
</svg>
