<svg width="20" height="20" viewBox="0 0 20 20" fill="none" xmlns="http://www.w3.org/2000/svg" data-fui-icon="true">
  <path
    fill-rule="evenodd"
    clip-rule="evenodd"
    d="M10.9109 2.86267C11.0562 2.32987 11.6056 2.01527 12.1384 2.16052C12.671 2.3058 12.9855 2.8554 12.8406 3.38806L9.09055 17.1381C8.94505 17.6706 8.39469 17.9855 7.86203 17.8402C7.32958 17.6949 7.01609 17.1452 7.16086 16.6127L10.9109 2.86267ZM4.06418 5.7738C4.4427 5.37162 5.07509 5.35232 5.47727 5.73083C5.87914 6.10935 5.89859 6.74183 5.52024 7.14392L3.26243 9.54333C3.0211 9.80004 3.02092 10.2008 3.26243 10.4574L5.52024 12.8568C5.89845 13.259 5.87925 13.8915 5.47727 14.2699C5.07515 14.6481 4.44263 14.6288 4.06418 14.2269L1.80539 11.8275C0.839516 10.8009 0.839701 9.19992 1.80539 8.17321L4.06418 5.7738ZM14.5232 5.73083C14.9253 5.35232 15.5587 5.37162 15.9372 5.7738L18.195 8.17321C19.161 9.19996 19.1611 10.8008 18.195 11.8275L15.9372 14.2269C15.5587 14.6288 14.9253 14.6481 14.5232 14.2699C14.1214 13.8915 14.1023 13.2589 14.4802 12.8568L16.739 10.4574C16.9805 10.2008 16.9803 9.80003 16.739 9.54333L14.4802 7.14392C14.1021 6.74191 14.1216 6.10933 14.5232 5.73083Z"
    fill="currentColor"
  />
</svg>
