<svg width="24" height="24" viewBox="0 0 24 24" fill="none" xmlns="http://www.w3.org/2000/svg" data-fui-icon="true">
  <path
    d="M16.5 1C20.0899 1 23 3.91015 23 7.5V16.5C23 20.0899 20.0899 23 16.5 23H7.5C3.91015 23 1 20.0899 1 16.5V7.5C1 3.91015 3.91015 1 7.5 1H16.5ZM7.5 2.5C4.73858 2.5 2.5 4.73858 2.5 7.5V16.5C2.5 19.2614 4.73858 21.5 7.5 21.5H16.5C19.2614 21.5 21.5 19.2614 21.5 16.5V7.5C21.5 4.73858 19.2614 2.5 16.5 2.5H7.5ZM9.21973 7.46973C9.51262 7.17683 9.98738 7.17683 10.2803 7.46973C10.5732 7.76262 10.5732 8.23738 10.2803 8.53027L6.81055 12L10.2803 15.4697C10.5732 15.7626 10.5732 16.2374 10.2803 16.5303C9.98738 16.8232 9.51262 16.8232 9.21973 16.5303L5.75 13.0605C5.16429 12.4748 5.16429 11.5252 5.75 10.9395L9.21973 7.46973ZM13.7197 7.46973C14.0126 7.17683 14.4874 7.17683 14.7803 7.46973L18.25 10.9395C18.8357 11.5252 18.8357 12.4748 18.25 13.0605L14.7803 16.5303C14.4874 16.8232 14.0126 16.8232 13.7197 16.5303C13.4268 16.2374 13.4268 15.7626 13.7197 15.4697L17.1895 12L13.7197 8.53027C13.4268 8.23738 13.4268 7.76262 13.7197 7.46973Z"
    fill="currentColor"
  />
</svg>
