<svg width="32" height="32" viewBox="0 0 32 32" fill="none" xmlns="http://www.w3.org/2000/svg" data-fui-icon="true">
  <path
    d="M22.5 1C27.1944 1 31 4.80558 31 9.5V22.5C31 27.1944 27.1944 31 22.5 31H9.5C4.80558 31 1 27.1944 1 22.5V9.5C1 4.80558 4.80558 1 9.5 1H22.5ZM9.5 3C5.91015 3 3 5.91015 3 9.5V22.5C3 26.0899 5.91015 29 9.5 29H22.5C26.0899 29 29 26.0899 29 22.5V9.5C29 5.91015 26.0899 3 22.5 3H9.5ZM12.293 9.29297C12.6835 8.90244 13.3165 8.90244 13.707 9.29297C14.0976 9.68349 14.0976 10.3165 13.707 10.707L8.41406 16L13.707 21.293C14.0976 21.6835 14.0976 22.3165 13.707 22.707C13.3165 23.0976 12.6835 23.0976 12.293 22.707L6.82324 17.2373C6.1399 16.5539 6.1399 15.4461 6.82324 14.7627L12.293 9.29297ZM18.293 9.29297C18.6835 8.90244 19.3165 8.90244 19.707 9.29297L25.1768 14.7627C25.8601 15.4461 25.8601 16.5539 25.1768 17.2373L19.707 22.707C19.3165 23.0976 18.6835 23.0976 18.293 22.707C17.9024 22.3165 17.9024 21.6835 18.293 21.293L23.5859 16L18.293 10.707C17.9024 10.3165 17.9024 9.68349 18.293 9.29297Z"
    fill="currentColor"
  />
</svg>
