<svg width="20" height="20" viewBox="0 0 20 20" fill="none" xmlns="http://www.w3.org/2000/svg" data-fui-icon="true">
  <path
    fill-rule="evenodd"
    clip-rule="evenodd"
    d="M10.4287 2.73049C10.6467 1.93126 11.4713 1.45978 12.2705 1.67775C13.0695 1.89578 13.541 2.72046 13.3232 3.51955L9.57324 17.2695C9.35532 18.0686 8.53051 18.5399 7.73144 18.3223C6.93223 18.1043 6.46079 17.2797 6.67871 16.4805L10.4287 2.73049ZM3.70019 5.43068C4.26797 4.82745 5.21706 4.79847 5.82031 5.36623C6.42344 5.93397 6.45238 6.88311 5.88476 7.48635L3.62597 9.88576C3.56577 9.94989 3.56577 10.0501 3.62597 10.1143L5.88476 12.5137C6.45238 13.1169 6.42343 14.0661 5.82031 14.6338C5.21705 15.2016 4.26797 15.1726 3.70019 14.5694L1.4414 12.1699C0.294272 10.9507 0.294272 9.04931 1.4414 7.8301L3.70019 5.43068ZM14.1807 5.36623C14.7839 4.79849 15.734 4.82743 16.3018 5.43068L18.5596 7.8301C19.7069 9.04935 19.7069 10.9507 18.5596 12.1699L16.3018 14.5694C15.734 15.1726 14.7839 15.2016 14.1807 14.6338C13.5777 14.0661 13.5488 13.1169 14.1162 12.5137L16.375 10.1143C16.4354 10.0501 16.4354 9.94992 16.375 9.88576L14.1162 7.48635C13.5488 6.88315 13.5777 5.93395 14.1807 5.36623Z"
    fill="currentColor"
  />
</svg>
