<svg width="20" height="20" viewBox="0 0 20 20" fill="none" xmlns="http://www.w3.org/2000/svg" data-fui-icon="true">
  <path
    fill-rule="evenodd"
    clip-rule="evenodd"
    d="M10.7165 2.80921C10.8909 2.17016 11.551 1.79246 12.1901 1.96643C12.8293 2.14077 13.2059 2.80083 13.0319 3.44007L9.28189 17.1901C9.10751 17.8295 8.44765 18.2072 7.80826 18.0328C7.16938 17.8582 6.79236 17.1983 6.96646 16.5592L10.7165 2.80921ZM3.91764 5.63538C4.37175 5.15323 5.13043 5.1309 5.61295 5.5846C6.09556 6.03882 6.11892 6.79828 5.66471 7.28089L3.40689 9.6803C3.23803 9.85983 3.23828 10.1393 3.40689 10.319L5.66471 12.7184C6.11892 13.201 6.09556 13.9605 5.61295 14.4147C5.13044 14.8687 4.37187 14.8462 3.91764 14.3639L1.65885 11.9645C0.620354 10.8607 0.620103 9.13847 1.65885 8.03479L3.91764 5.63538ZM14.3854 5.5846C14.8679 5.13051 15.6274 5.15316 16.0817 5.63538L18.3395 8.03479C19.3784 9.1386 19.3784 10.8607 18.3395 11.9645L16.0817 14.3639C15.6275 14.8465 14.868 14.8689 14.3854 14.4147C13.9033 13.9604 13.8796 13.2008 14.3337 12.7184L16.5924 10.319C16.761 10.1394 16.761 9.85986 16.5924 9.6803L14.3337 7.28089C13.8799 6.79831 13.9031 6.03871 14.3854 5.5846Z"
    fill="currentColor"
  />
</svg>
