<svg width="12" height="12" viewBox="0 0 12 12" fill="none" xmlns="http://www.w3.org/2000/svg" data-fui-icon="true">
  <path
    d="M6.01611 1.57178C6.1835 0.959424 6.81569 0.598083 7.42822 0.765137C8.04049 0.932443 8.40164 1.56482 8.23486 2.17725L5.98486 10.4272C5.81772 11.0398 5.18539 11.4008 4.57275 11.2339C3.96001 11.0668 3.599 10.4345 3.76611 9.82178L6.01611 1.57178ZM2.0376 3.08643C2.47287 2.62433 3.20118 2.60162 3.66357 3.03662C4.12596 3.4718 4.14734 4.20008 3.7124 4.6626L2.45361 5.99951L3.7124 7.33643C4.14758 7.79881 4.12573 8.52707 3.66357 8.9624C3.20106 9.39754 2.47284 9.37505 2.0376 8.9126L0.683105 7.47314C-0.0960191 6.64529 -0.0960427 5.35372 0.683105 4.52588L2.0376 3.08643ZM8.3374 3.03662C8.79989 2.60209 9.52733 2.62432 9.9624 3.08643L11.3179 4.52588C12.0969 5.3536 12.0966 6.64529 11.3179 7.47314L9.9624 8.9126C9.52722 9.37486 8.79988 9.39729 8.3374 8.9624C7.87497 8.52716 7.85247 7.79893 8.2876 7.33643L9.54639 5.99951L8.2876 4.6626C7.85251 4.20009 7.87497 3.47185 8.3374 3.03662Z"
    fill="currentColor"
  />
</svg>
