<svg width="32" height="32" viewBox="0 0 32 32" fill="none" xmlns="http://www.w3.org/2000/svg" data-fui-icon="true">
  <path
    d="M17.5537 4.60596C17.7717 3.80672 18.5963 3.33525 19.3955 3.55322C20.1942 3.77154 20.6651 4.59608 20.4473 5.39502L14.4473 27.395C14.2292 28.1939 13.4045 28.6654 12.6055 28.4478C11.8065 28.2297 11.336 27.405 11.5537 26.606L17.5537 4.60596ZM6.5752 9.30615C7.14297 8.70289 8.09205 8.67393 8.69531 9.2417C9.29791 9.80947 9.32714 10.7587 8.75977 11.3618L5.14648 15.2007C4.7237 15.6499 4.72369 16.3511 5.14648 16.8003L8.75977 20.6392C9.32685 21.2424 9.29817 22.1917 8.69531 22.7593C8.0922 23.3269 7.14301 23.2977 6.5752 22.6948L2.96191 18.856C1.45192 17.2516 1.45193 14.7494 2.96191 13.145L6.5752 9.30615ZM23.3057 9.2417C23.9089 8.67394 24.858 8.70289 25.4258 9.30615L29.0391 13.145C30.5486 14.7494 30.5489 17.2517 29.0391 18.856L25.4258 22.6948C24.8581 23.2979 23.9089 23.3266 23.3057 22.7593C22.7026 22.1915 22.6736 21.2424 23.2412 20.6392L26.8545 16.8003C27.2772 16.3512 27.2769 15.6499 26.8545 15.2007L23.2412 11.3618C22.6736 10.7586 22.7026 9.80944 23.3057 9.2417Z"
    fill="currentColor"
  />
</svg>
