<svg width="20" height="20" viewBox="0 0 20 20" fill="none" xmlns="http://www.w3.org/2000/svg" data-fui-icon="true">
  <path
    fill-rule="evenodd"
    clip-rule="evenodd"
    d="M10.9103 2.8617C11.0557 2.32922 11.6053 2.01465 12.1379 2.15955C12.6704 2.3048 12.9848 2.8545 12.84 3.38709L9.09 17.1371C8.94469 17.6699 8.39431 17.9846 7.86149 17.8392C7.32918 17.6937 7.01528 17.1442 7.16032 16.6117L10.9103 2.8617ZM4.06364 5.77283C4.44202 5.3708 5.07453 5.35175 5.47672 5.72987C5.87878 6.10837 5.8981 6.74081 5.51969 7.14295L3.26188 9.54237C3.02042 9.79893 3.02067 10.1997 3.26188 10.4564L5.51969 12.8558C5.8981 13.258 5.87878 13.8904 5.47672 14.2689C5.07455 14.6474 4.44214 14.6281 4.06364 14.226L1.80485 11.8265C0.839264 10.7998 0.839014 9.19881 1.80485 8.17225L4.06364 5.77283ZM14.5226 5.72987C14.9247 5.35148 15.5581 5.37105 15.9367 5.77283L18.1945 8.17225C19.1607 9.19899 19.1607 10.7998 18.1945 11.8265L15.9367 14.226C15.5582 14.6281 14.9248 14.6474 14.5226 14.2689C14.1212 13.8904 14.1016 13.2578 14.4797 12.8558L16.7384 10.4564C16.98 10.1997 16.98 9.79905 16.7384 9.54237L14.4797 7.14295C14.1018 6.74084 14.1209 6.10821 14.5226 5.72987Z"
    fill="currentColor"
  />
</svg>
