<svg width="12" height="12" viewBox="0 0 12 12" fill="none" xmlns="http://www.w3.org/2000/svg" data-fui-icon="true">
  <path
    d="M8 0C10.2091 0 12 1.79086 12 4V8C12 10.2091 10.2091 12 8 12H4C1.79086 12 0 10.2091 0 8V4C0 1.79086 1.79086 0 4 0H8ZM4 2C2.89543 2 2 2.89543 2 4V8C2 9.10457 2.89543 10 4 10H8C9.10457 10 10 9.10457 10 8V4C10 2.89543 9.10457 2 8 2H4ZM4.14258 3.79297C4.53304 3.40251 5.1661 3.40264 5.55664 3.79297C5.94716 4.18349 5.94716 4.81651 5.55664 5.20703L4.76367 6L5.55664 6.79297C5.94716 7.18349 5.94716 7.81651 5.55664 8.20703C5.1661 8.59736 4.53304 8.59749 4.14258 8.20703L2.64258 6.70703C2.25231 6.31656 2.25231 5.68344 2.64258 5.29297L4.14258 3.79297ZM6.44336 3.79297C6.8339 3.40264 7.46696 3.40251 7.85742 3.79297L9.35742 5.29297C9.74769 5.68344 9.74769 6.31656 9.35742 6.70703L7.85742 8.20703C7.46696 8.59749 6.8339 8.59736 6.44336 8.20703C6.05284 7.81651 6.05284 7.18349 6.44336 6.79297L7.23633 6L6.44336 5.20703C6.05284 4.81651 6.05284 4.18349 6.44336 3.79297Z"
    fill="currentColor"
  />
</svg>
