<svg width="12" height="12" viewBox="0 0 12 12" fill="none" xmlns="http://www.w3.org/2000/svg" data-fui-icon="true">
  <path
    d="M7.75 0C10.0972 0 12 1.90279 12 4.25V7.75C12 10.0972 10.0972 12 7.75 12H4.25C1.90279 12 0 10.0972 0 7.75V4.25C0 1.90279 1.90279 0 4.25 0H7.75ZM5.28027 3.96973C4.98738 3.67683 4.51262 3.67683 4.21973 3.96973L2.71973 5.46973C2.42683 5.76262 2.42683 6.23738 2.71973 6.53027L4.21973 8.03027C4.51262 8.32317 4.98738 8.32317 5.28027 8.03027C5.57317 7.73738 5.57317 7.26262 5.28027 6.96973L4.31055 6L5.28027 5.03027C5.57317 4.73738 5.57317 4.26262 5.28027 3.96973ZM7.78027 3.96973C7.48738 3.67683 7.01262 3.67683 6.71973 3.96973C6.42683 4.26262 6.42683 4.73738 6.71973 5.03027L7.68945 6L6.71973 6.96973C6.42683 7.26262 6.42683 7.73738 6.71973 8.03027C7.01262 8.32317 7.48738 8.32317 7.78027 8.03027L9.28027 6.53027C9.57317 6.23738 9.57317 5.76262 9.28027 5.46973L7.78027 3.96973Z"
    fill="currentColor"
  />
</svg>
