<svg width="32" height="32" viewBox="0 0 32 32" fill="none" xmlns="http://www.w3.org/2000/svg" data-fui-icon="true">
  <path
    d="M18.0356 4.73706C18.1811 4.20448 18.7305 3.88978 19.2632 4.03491C19.7958 4.18021 20.1093 4.72984 19.9644 5.26245L13.9644 27.2625C13.819 27.7953 13.2696 28.1099 12.7368 27.9646C12.2042 27.8192 11.8905 27.2697 12.0356 26.7371L18.0356 4.73706ZM6.93799 9.64819C7.31643 9.2462 7.94989 9.22699 8.35205 9.60522C8.75393 9.98368 8.7732 10.6162 8.39502 11.0183L4.78174 14.8572C4.17782 15.4988 4.17798 16.5006 4.78174 17.1423L8.39502 20.9812C8.77327 21.3833 8.75389 22.0158 8.35205 22.3943C7.94987 22.7728 7.3165 22.7535 6.93799 22.3513L3.32568 18.5125C1.99713 17.1006 1.99697 14.8988 3.32568 13.4871L6.93799 9.64819ZM23.6479 9.60522C24.05 9.22687 24.6825 9.2463 25.061 9.64819L28.6743 13.4871C30.0031 14.8989 30.003 17.1006 28.6743 18.5125L25.061 22.3513C24.6825 22.7535 24.0501 22.7728 23.6479 22.3943C23.2462 22.0158 23.2267 21.3832 23.605 20.9812L27.2183 17.1423C27.8222 16.5006 27.8222 15.4989 27.2183 14.8572L23.605 11.0183C23.2269 10.6162 23.246 9.98363 23.6479 9.60522Z"
    fill="currentColor"
  />
</svg>
