<svg width="20" height="20" viewBox="0 0 20 20" fill="none" xmlns="http://www.w3.org/2000/svg" data-fui-icon="true">
  <path
    fill-rule="evenodd"
    clip-rule="evenodd"
    d="M10.4281 2.73095C10.6461 1.93171 11.4706 1.46024 12.2699 1.67821C13.0689 1.89624 13.5404 2.72091 13.3226 3.52001L9.57261 17.27C9.3545 18.0688 8.52974 18.5403 7.73082 18.3227C6.93176 18.1048 6.46047 17.28 6.67808 16.4809L10.4281 2.73095ZM3.69957 5.43114C4.26734 4.82788 5.21642 4.79892 5.81968 5.36669C6.42266 5.93446 6.45173 6.88362 5.88414 7.4868L3.62535 9.88622C3.56542 9.95036 3.56524 10.0507 3.62535 10.1147L5.88414 12.5141C6.45159 13.1174 6.42277 14.0666 5.81968 14.6343C5.21647 15.2017 4.26727 15.1728 3.69957 14.5698L1.44078 12.1704C0.293737 10.9513 0.293922 9.04978 1.44078 7.83055L3.69957 5.43114ZM14.18 5.36669C14.7833 4.79892 15.7334 4.82788 16.3011 5.43114L18.5589 7.83055C19.7061 9.04982 19.7062 10.9512 18.5589 12.1704L16.3011 14.5698C15.7334 15.1727 14.7832 15.2018 14.18 14.6343C13.5772 14.0666 13.5484 13.1174 14.1156 12.5141L16.3744 10.1147C16.4347 10.0506 16.4346 9.9504 16.3744 9.88622L14.1156 7.4868C13.5482 6.8837 13.5774 5.93444 14.18 5.36669Z"
    fill="currentColor"
  />
</svg>
