<svg width="12" height="12" viewBox="0 0 12 12" fill="none" xmlns="http://www.w3.org/2000/svg" data-fui-icon="true">
  <path
    d="M8.25 0C10.3211 0 12 1.67893 12 3.75V8.25C12 10.3211 10.3211 12 8.25 12H3.75C1.67893 12 0 10.3211 0 8.25V3.75C0 1.67893 1.67893 1.28851e-07 3.75 0H8.25ZM3.75 1.5C2.50736 1.5 1.5 2.50736 1.5 3.75V8.25C1.5 9.49264 2.50736 10.5 3.75 10.5H8.25C9.49264 10.5 10.5 9.49264 10.5 8.25V3.75C10.5 2.50736 9.49264 1.5 8.25 1.5H3.75ZM4.21973 3.96973C4.51262 3.67683 4.98738 3.67683 5.28027 3.96973C5.57317 4.26262 5.57317 4.73738 5.28027 5.03027L4.31055 6L5.28027 6.96973C5.57317 7.26262 5.57317 7.73738 5.28027 8.03027C4.98738 8.32317 4.51262 8.32317 4.21973 8.03027L2.71973 6.53027C2.42683 6.23738 2.42683 5.76262 2.71973 5.46973L4.21973 3.96973ZM6.71973 3.96973C7.01262 3.67683 7.48738 3.67683 7.78027 3.96973L9.28027 5.46973C9.57317 5.76262 9.57317 6.23738 9.28027 6.53027L7.78027 8.03027C7.48738 8.32317 7.01262 8.32317 6.71973 8.03027C6.42683 7.73738 6.42683 7.26262 6.71973 6.96973L7.68945 6L6.71973 5.03027C6.42683 4.73738 6.42683 4.26262 6.71973 3.96973Z"
    fill="currentColor"
  />
</svg>
