<svg width="24" height="24" viewBox="0 0 24 24" fill="none" xmlns="http://www.w3.org/2000/svg" data-fui-icon="true">
  <path
    d="M16.2498 0C20.5296 0.000263848 23.9995 3.47079 23.9995 7.75066V16.2503C23.9992 20.53 20.5295 23.9997 16.2498 24H7.75017C3.4703 24 0.000752145 20.5301 0.000488261 16.2503V7.75066C0.000488261 3.47063 3.47014 0 7.75017 0H16.2498ZM7.75017 1.50092C4.29853 1.50092 1.50043 4.29902 1.50043 7.75066V16.2503C1.50069 19.7017 4.2987 22.5001 7.75017 22.5001H16.2498C19.7011 22.4998 22.4993 19.7016 22.4996 16.2503V7.75066C22.4996 4.29918 19.7012 1.50118 16.2498 1.50092H7.75017ZM9.01965 7.22041C9.31253 6.92753 9.78727 6.92753 10.0802 7.22041C10.3726 7.51332 10.3729 7.98816 10.0802 8.28091L6.36058 12.0005L10.0802 15.7201C10.3726 16.013 10.3729 16.4878 10.0802 16.7806C9.7874 17.0732 9.31253 17.073 9.01965 16.7806L5.30008 13.061C4.71442 12.4753 4.71449 11.5257 5.30008 10.94L9.01965 7.22041ZM13.9189 7.22041C14.2117 6.92753 14.6865 6.92753 14.9794 7.22041L18.6989 10.94C19.2845 11.5257 19.2846 12.4753 18.6989 13.061L14.9794 16.7806C14.6865 17.073 14.2116 17.0732 13.9189 16.7806C13.6261 16.4878 13.6264 16.013 13.9189 15.7201L17.6384 12.0005L13.9189 8.28091C13.6261 7.98816 13.6264 7.51332 13.9189 7.22041Z"
    fill="currentColor"
  />
</svg>
