<svg width="32" height="32" viewBox="0 0 32 32" fill="none" xmlns="http://www.w3.org/2000/svg" data-fui-icon="true">
  <path
    d="M22.75 1C27.3063 1 31 4.69365 31 9.25V22.75C31 27.3063 27.3063 31 22.75 31H9.25C4.69365 31 1 27.3063 1 22.75V9.25C1 4.69365 4.69365 1 9.25 1H22.75ZM13.5303 9.46973C13.2374 9.17683 12.7626 9.17683 12.4697 9.46973L7 14.9395C6.41429 15.5252 6.41429 16.4748 7 17.0605L12.4697 22.5303C12.7626 22.8232 13.2374 22.8232 13.5303 22.5303C13.8232 22.2374 13.8232 21.7626 13.5303 21.4697L8.06055 16L13.5303 10.5303C13.8232 10.2374 13.8232 9.76262 13.5303 9.46973ZM19.5303 9.46973C19.2374 9.17683 18.7626 9.17683 18.4697 9.46973C18.1768 9.76262 18.1768 10.2374 18.4697 10.5303L23.9395 16L18.4697 21.4697C18.1768 21.7626 18.1768 22.2374 18.4697 22.5303C18.7626 22.8232 19.2374 22.8232 19.5303 22.5303L25 17.0605C25.5857 16.4748 25.5857 15.5252 25 14.9395L19.5303 9.46973Z"
    fill="currentColor"
  />
</svg>
