<svg width="24" height="24" viewBox="0 0 24 24" fill="none" xmlns="http://www.w3.org/2000/svg" data-fui-icon="true">
  <path
    d="M16.25 1C19.9779 1 23 4.02208 23 7.75V16.25C23 19.9779 19.9779 23 16.25 23H7.75C4.02208 23 1 19.9779 1 16.25V7.75C1 4.02208 4.02208 1 7.75 1H16.25ZM7.75 3C5.12665 3 3 5.12665 3 7.75V16.25C3 18.8734 5.12665 21 7.75 21H16.25C18.8734 21 21 18.8734 21 16.25V7.75C21 5.12665 18.8734 3 16.25 3H7.75ZM9.04297 7.29297C9.43349 6.90244 10.0665 6.90244 10.457 7.29297C10.8476 7.68349 10.8476 8.31651 10.457 8.70703L7.16406 12L10.457 15.293C10.8476 15.6835 10.8476 16.3165 10.457 16.707C10.0665 17.0976 9.43349 17.0976 9.04297 16.707L5.57324 13.2373C4.8899 12.5539 4.8899 11.4461 5.57324 10.7627L9.04297 7.29297ZM13.543 7.29297C13.9335 6.90244 14.5665 6.90244 14.957 7.29297L18.4268 10.7627C19.1101 11.4461 19.1101 12.5539 18.4268 13.2373L14.957 16.707C14.5665 17.0976 13.9335 17.0976 13.543 16.707C13.1524 16.3165 13.1524 15.6835 13.543 15.293L16.8359 12L13.543 8.70703C13.1524 8.31651 13.1524 7.68349 13.543 7.29297Z"
    fill="currentColor"
  />
</svg>
