<svg width="20" height="20" viewBox="0 0 20 20" fill="none" xmlns="http://www.w3.org/2000/svg" data-fui-icon="true">
  <path
    d="M13.4004 1C16.4929 1.00021 18.9998 3.50712 19 6.59961V13.4004C18.9998 16.4929 16.4929 18.9998 13.4004 19H6.59961C3.50713 18.9998 1.00021 16.4929 1 13.4004V6.59961C1.00021 3.50712 3.50712 1.00021 6.59961 1H13.4004ZM8.95703 6.29297C8.56651 5.90244 7.93349 5.90244 7.54297 6.29297L4.89648 8.93945C4.31075 9.52523 4.31075 10.4748 4.89648 11.0605L7.54297 13.707C7.93349 14.0976 8.56651 14.0976 8.95703 13.707C9.34756 13.3165 9.34756 12.6835 8.95703 12.293L6.66406 10L8.95703 7.70703C9.34756 7.31651 9.34756 6.68349 8.95703 6.29297ZM12.457 6.29297C12.0665 5.90244 11.4335 5.90244 11.043 6.29297C10.6524 6.68349 10.6524 7.31651 11.043 7.70703L13.3359 10L11.043 12.293C10.6524 12.6835 10.6524 13.3165 11.043 13.707C11.4335 14.0976 12.0665 14.0976 12.457 13.707L15.1035 11.0605C15.6893 10.4748 15.6893 9.52523 15.1035 8.93945L12.457 6.29297Z"
    fill="currentColor"
  />
</svg>
