<svg width="32" height="32" viewBox="0 0 32 32" fill="none" xmlns="http://www.w3.org/2000/svg" data-fui-icon="true">
  <path
    d="M17.6489 4.63159C17.8525 3.88588 18.6229 3.44591 19.3687 3.64917C20.1142 3.8527 20.5541 4.62226 20.3511 5.36792L14.3511 27.3679C14.1476 28.1139 13.3773 28.5538 12.6313 28.3503C11.8858 28.1467 11.4457 27.3773 11.6489 26.6316L17.6489 4.63159ZM6.64697 9.37378C7.17682 8.81091 8.06344 8.78359 8.62646 9.31323C9.18948 9.84312 9.21586 10.7297 8.68604 11.2927L5.07275 15.1316C4.61383 15.6192 4.614 16.3802 5.07275 16.8679L8.68604 20.7068C9.21593 21.2698 9.18943 22.1564 8.62646 22.6863C8.06342 23.2162 7.17689 23.1888 6.64697 22.6257L3.03369 18.7869C1.56033 17.221 1.56017 14.7784 3.03369 13.2126L6.64697 9.37378ZM23.3735 9.31323C23.9365 8.78353 24.8231 8.81103 25.353 9.37378L28.9663 13.2126L29.1001 13.3621C30.3951 14.8797 30.3951 17.1198 29.1001 18.6375L28.9663 18.7869L25.353 22.6257C24.8231 23.1888 23.9366 23.2161 23.3735 22.6863C22.8107 22.1563 22.7841 21.2697 23.314 20.7068L26.9272 16.8679C27.3861 16.3802 27.3862 15.6193 26.9272 15.1316L23.314 11.2927C22.7843 10.7297 22.8106 9.84307 23.3735 9.31323Z"
    fill="currentColor"
  />
</svg>
