<svg width="32" height="32" viewBox="0 0 32 32" fill="none" xmlns="http://www.w3.org/2000/svg" data-fui-icon="true">
  <path
    d="M21.75 1.00024C26.8585 1.00038 31 5.14169 31 10.2502V21.7502C30.9999 26.8587 26.8584 31.0001 21.75 31.0002H10.25C5.14145 31.0002 1.00013 26.8588 1 21.7502V10.2502C1 5.14161 5.14137 1.00024 10.25 1.00024H21.75ZM10.25 2.50024C5.96979 2.50024 2.5 5.97004 2.5 10.2502V21.7502C2.50013 26.0303 5.96987 29.5002 10.25 29.5002H21.75C26.03 29.5001 29.4999 26.0303 29.5 21.7502V10.2502C29.5 5.97012 26.0301 2.50038 21.75 2.50024H10.25ZM12.4697 9.46997C12.7626 9.17708 13.2374 9.17708 13.5303 9.46997C13.823 9.76287 13.8231 10.2377 13.5303 10.5305L8.06055 16.0002L13.5303 21.47C13.823 21.7629 13.8231 22.2377 13.5303 22.5305C13.2374 22.8232 12.7626 22.8232 12.4697 22.5305L7 17.0608C6.41433 16.4751 6.41441 15.5255 7 14.9397L12.4697 9.46997ZM18.4697 9.46997C18.7626 9.17708 19.2374 9.17708 19.5303 9.46997L25 14.9397C25.5856 15.5255 25.5857 16.4751 25 17.0608L19.5303 22.5305C19.2374 22.8232 18.7626 22.8232 18.4697 22.5305C18.1769 22.2377 18.177 21.7629 18.4697 21.47L23.9395 16.0002L18.4697 10.5305C18.1769 10.2377 18.177 9.76287 18.4697 9.46997Z"
    fill="currentColor"
  />
</svg>
