<svg width="24" height="24" viewBox="0 0 24 24" fill="none" xmlns="http://www.w3.org/2000/svg" data-fui-icon="true">
  <path
    d="M12 0.5C18.3513 0.5 23.5 5.64873 23.5 12C23.5 18.3513 18.3513 23.5 12 23.5C5.64873 23.5 0.5 18.3513 0.5 12C0.5 5.64873 5.64873 0.5 12 0.5ZM12 2C6.47715 2 2 6.47715 2 12C2 17.5228 6.47715 22 12 22C17.5228 22 22 17.5228 22 12C22 6.47715 17.5228 2 12 2ZM12.1611 4.25C15.5255 4.2501 18.4084 6.30969 19.5498 9.22656C19.7007 9.61224 19.5106 10.0472 19.125 10.1982C18.7393 10.3491 18.3043 10.159 18.1533 9.77344C17.2356 7.42782 14.9041 5.7501 12.1611 5.75C8.60434 5.75 5.75 8.5642 5.75 12C5.75 15.4358 8.60434 18.25 12.1611 18.25C14.9041 18.2499 17.2356 16.5722 18.1533 14.2266C18.3043 13.841 18.7393 13.6509 19.125 13.8018C19.5106 13.9528 19.7007 14.3878 19.5498 14.7734C18.4084 17.6903 15.5255 19.7499 12.1611 19.75C7.80823 19.75 4.25 16.2962 4.25 12C4.25 7.70382 7.80823 4.25 12.1611 4.25Z"
    fill="currentColor"
  />
</svg>
