<svg width="20" height="20" viewBox="0 0 20 20" fill="none" xmlns="http://www.w3.org/2000/svg" data-fui-icon="true">
  <path
    d="M12.7471 1C14.6939 1.00016 16.2806 2.11365 17.3477 3.75879C18.4105 5.39753 18.999 7.60998 18.999 10.002C18.999 12.3939 18.4105 14.6064 17.3477 16.2451C16.2806 17.8902 14.6939 19.0037 12.7471 19.0039H7.6377C7.61829 19.0039 7.59912 19.0024 7.58008 19.001C7.55346 19.0014 7.52672 19.0039 7.5 19.0039C5.59877 19.0039 3.95503 17.8968 2.81836 16.2656C1.67998 14.6318 1.00003 12.4147 1 10.002C1.00002 7.58921 1.68001 5.37208 2.81836 3.73828C3.95503 2.10707 5.59878 1.00005 7.5 1C7.52671 1 7.55347 1.00152 7.58008 1.00195C7.59909 1.00051 7.61832 1 7.6377 1H12.7471ZM7.5 2.5C6.22573 2.50005 4.99416 3.24055 4.0498 4.5957C3.10723 5.94838 2.50002 7.85762 2.5 10.002C2.50003 12.1462 3.1073 14.0556 4.0498 15.4082C4.99414 16.7632 6.2258 17.5039 7.5 17.5039C8.77424 17.5039 10.0058 16.7633 10.9502 15.4082C11.8927 14.0555 12.5 12.1462 12.5 10.002C12.5 7.85762 11.8928 5.94838 10.9502 4.5957C10.0058 3.24058 8.77427 2.5 7.5 2.5ZM13.3301 14C13.0333 14.8347 12.6462 15.5989 12.1816 16.2656C11.8617 16.7248 11.5002 17.1408 11.1055 17.5039H12.7471C14.0554 17.5037 15.2191 16.7696 16.0889 15.4287C16.3636 15.0051 16.6049 14.5256 16.8066 14H13.3301ZM13.7461 7.5C13.9108 8.29703 14 9.13671 14 10.002C14 10.8657 13.9112 11.7042 13.7471 12.5H17.2441C17.4085 11.7231 17.499 10.8835 17.499 10.002C17.499 9.11887 17.4081 8.27805 17.2432 7.5H13.7461ZM11.1055 2.5C11.5002 2.86307 11.8617 3.27915 12.1816 3.73828C12.6454 4.40388 13.0315 5.16701 13.3281 6H16.8057C16.6042 5.4759 16.3629 4.99774 16.0889 4.5752C15.2191 3.23425 14.0554 2.50016 12.7471 2.5H11.1055Z"
    fill="currentColor"
  />
</svg>
