<svg width="20" height="20" viewBox="0 0 20 20" fill="none" xmlns="http://www.w3.org/2000/svg" data-fui-icon="true">
  <path
    d="M10 0.5C15.2467 0.5 19.5 4.75329 19.5 10C19.5 15.2467 15.2467 19.5 10 19.5C4.75329 19.5 0.5 15.2467 0.5 10C0.5 4.75329 4.75329 0.5 10 0.5ZM10 2C5.58172 2 2 5.58172 2 10C2 14.4183 5.58172 18 10 18C14.4183 18 18 14.4183 18 10C18 5.58172 14.4183 2 10 2ZM10.1211 4C12.6669 4.00017 14.8586 5.52627 15.7793 7.70898C15.9399 8.09051 15.7604 8.5305 15.3789 8.69141C14.9974 8.85201 14.5574 8.67249 14.3965 8.29102C13.708 6.65936 12.0581 5.50017 10.1211 5.5C7.55301 5.5 5.5 7.53069 5.5 10C5.5 12.4693 7.55301 14.5 10.1211 14.5C12.0581 14.4998 13.708 13.3406 14.3965 11.709C14.5574 11.3275 14.9974 11.148 15.3789 11.3086C15.7604 11.4695 15.9399 11.9095 15.7793 12.291C14.8586 14.4737 12.6669 15.9998 10.1211 16C6.7569 16 4 13.3297 4 10C4 6.67032 6.7569 4 10.1211 4Z"
    fill="currentColor"
  />
</svg>
