<svg width="24" height="24" viewBox="0 0 24 24" fill="none" xmlns="http://www.w3.org/2000/svg" data-fui-icon="true">
  <path
    d="M8.49707 1C12.6375 1.00005 15.9941 5.9249 15.9941 12C15.9941 18.0751 12.6375 22.9999 8.49707 23C4.35659 23 1 18.0751 1 12C1 5.92487 4.35659 1 8.49707 1ZM22.2471 17C21.9356 17.9641 21.533 18.8495 21.0449 19.627C19.7883 21.6281 17.9254 22.9766 15.6396 22.9766H12.8369C13.6791 22.3386 14.4235 21.5348 15.0449 20.623C15.7647 19.567 16.3436 18.3407 16.7598 17H22.2471ZM22.6484 8.5C22.8771 9.60097 22.998 10.7748 22.998 11.9883C22.998 13.2104 22.8754 14.3923 22.6436 15.5H17.1475C17.378 14.3838 17.501 13.2085 17.501 12C17.501 10.7915 17.378 9.61616 17.1475 8.5H22.6484ZM15.6396 1C17.9254 1 19.7883 2.34848 21.0449 4.34961C21.537 5.13335 21.9424 6.02677 22.2549 7H16.7598C16.3436 5.65929 15.7647 4.43302 15.0449 3.37695C14.4158 2.45392 13.6608 1.6416 12.8057 1H15.6396Z"
    fill="currentColor"
  />
</svg>
