<svg width="20" height="20" viewBox="0 0 20 20" fill="none" xmlns="http://www.w3.org/2000/svg" data-fui-icon="true">
  <path
    d="M10 0.5C15.2467 0.5 19.5 4.75329 19.5 10C19.5 15.2467 15.2467 19.5 10 19.5C4.75329 19.5 0.5 15.2467 0.5 10C0.5 4.75329 4.75329 0.5 10 0.5ZM10.1211 4C6.7569 4 4 6.67032 4 10C4 13.3297 6.7569 16 10.1211 16C12.6669 15.9998 14.8586 14.4737 15.7793 12.291C15.9399 11.9095 15.7604 11.4695 15.3789 11.3086C14.9974 11.148 14.5574 11.3275 14.3965 11.709C13.708 13.3406 12.0581 14.4998 10.1211 14.5C7.55301 14.5 5.5 12.4693 5.5 10C5.5 7.53069 7.55301 5.5 10.1211 5.5C12.0581 5.50017 13.708 6.65936 14.3965 8.29102C14.5574 8.67249 14.9974 8.85201 15.3789 8.69141C15.7604 8.5305 15.9399 8.09051 15.7793 7.70898C14.8586 5.52627 12.6669 4.00017 10.1211 4Z"
    fill="currentColor"
  />
</svg>
