<svg width="32" height="32" viewBox="0 0 32 32" fill="none" xmlns="http://www.w3.org/2000/svg" data-fui-icon="true">
  <path
    d="M16 0.5C24.5604 0.5 31.5 7.43959 31.5 16C31.5 24.5604 24.5604 31.5 16 31.5C7.43959 31.5 0.5 24.5604 0.5 16C0.5 7.43959 7.43959 0.5 16 0.5ZM16.0703 5.25C10.1012 5.25018 5.25 10.0563 5.25 16C5.25 21.9437 10.1012 26.7498 16.0703 26.75C20.9229 26.75 25.033 23.5757 26.4043 19.1973C26.5692 18.6703 26.2759 18.1094 25.749 17.9443C25.2221 17.7793 24.6613 18.0727 24.4961 18.5996C23.3811 22.1598 20.0319 24.75 16.0703 24.75C11.1921 24.7498 7.25 20.8256 7.25 16C7.25 11.1744 11.1921 7.25018 16.0703 7.25C20.0319 7.25 23.3811 9.84025 24.4961 13.4004C24.6613 13.9273 25.2221 14.2207 25.749 14.0557C26.2759 13.8906 26.5692 13.3297 26.4043 12.8027C25.033 8.42432 20.9229 5.25 16.0703 5.25Z"
    fill="currentColor"
  />
</svg>
