<svg width="32" height="32" viewBox="0 0 32 32" fill="none" xmlns="http://www.w3.org/2000/svg" data-fui-icon="true">
  <path
    d="M16 0.5C24.5604 0.5 31.5 7.43959 31.5 16C31.5 24.5604 24.5604 31.5 16 31.5C7.43959 31.5 0.5 24.5604 0.5 16C0.5 7.43959 7.43959 0.5 16 0.5ZM16.0703 4.875C9.89666 4.87518 4.875 9.8466 4.875 16C4.875 22.1534 9.89666 27.1248 16.0703 27.125C21.0899 27.125 25.3423 23.8414 26.7617 19.3096C26.9886 18.585 26.5857 17.8141 25.8613 17.5869C25.1367 17.36 24.3648 17.7628 24.1377 18.4873C23.0707 21.894 19.8648 24.375 16.0703 24.375C11.3967 24.3748 7.625 20.6159 7.625 16C7.625 11.3841 11.3967 7.62518 16.0703 7.625C19.8648 7.625 23.0707 10.106 24.1377 13.5127C24.3648 14.2372 25.1367 14.64 25.8613 14.4131C26.5857 14.1859 26.9886 13.415 26.7617 12.6904C25.3423 8.15863 21.0899 4.875 16.0703 4.875Z"
    fill="currentColor"
  />
</svg>
