<svg width="24" height="24" viewBox="0 0 24 24" fill="none" xmlns="http://www.w3.org/2000/svg" data-fui-icon="true">
  <path
    d="M23.001 19.25C23.0008 20.5469 21.8924 21.4833 20.6611 22.0518C19.366 22.6495 17.6287 22.9999 15.751 23C13.8732 23 12.1361 22.6494 10.8408 22.0518C9.6092 21.4833 8.50112 20.5472 8.50098 19.25V17.0703C9.05369 17.5549 9.67429 17.9159 10.2119 18.1641C11.7455 18.8717 13.7066 19.25 15.751 19.25C17.7954 19.2499 19.7566 18.8718 21.29 18.1641C21.8279 17.9158 22.4484 17.5542 23.001 17.0693V19.25ZM1 13.1914C1.4664 13.5126 2.01567 13.8058 2.60742 14.0605C3.89153 14.6134 5.46248 15.0295 7.00098 15.1836V18.9463C5.60905 18.828 4.34223 18.5153 3.33984 18.0527C2.10815 17.4843 1 16.5473 1 15.25V13.1914ZM15.751 10.25C17.6286 10.2501 19.366 10.5996 20.6611 11.1973C21.8925 11.7658 23.001 12.703 23.001 14C23.0008 15.2969 21.8925 16.2343 20.6611 16.8027C19.366 17.4004 17.6286 17.7499 15.751 17.75C13.8734 17.75 12.1361 17.4002 10.8408 16.8027C9.6092 16.2343 8.50112 15.2972 8.50098 14C8.50098 12.7027 9.60912 11.7657 10.8408 11.1973C12.1361 10.5997 13.8733 10.25 15.751 10.25ZM1 7.81934C1.55277 8.30428 2.17299 8.66577 2.71094 8.91406C4.24463 9.62192 6.20524 10 8.25 10C8.87308 10 9.48818 9.96338 10.0859 9.89453C8.85014 10.4905 7.27576 11.6322 7.0332 13.5254C7.02491 13.5762 7.01737 13.6269 7.0127 13.6777C5.68201 13.5295 4.31594 13.163 3.2002 12.6826C2.46621 12.3666 1.8771 12.0173 1.48535 11.6787C1.06886 11.3188 1 11.0827 1 11V7.81934ZM15.5 8.75293C14.9598 8.76112 14.4264 8.79436 13.9062 8.85449C14.4154 8.60895 14.9875 8.26894 15.5 7.81934V8.75293ZM8.25 1C10.128 1 11.8648 1.34951 13.1602 1.94727C14.3919 2.51574 15.5 3.4527 15.5 4.75C15.5 6.0473 14.3919 6.98426 13.1602 7.55273C11.8648 8.15049 10.128 8.5 8.25 8.5C6.37201 8.5 4.63521 8.15049 3.33984 7.55273C2.10815 6.98426 1 6.0473 1 4.75C1 3.4527 2.10815 2.51574 3.33984 1.94727C4.63521 1.34951 6.37201 1 8.25 1Z"
    fill="currentColor"
  />
</svg>
