<svg width="16" height="16" viewBox="0 0 16 16" fill="none" xmlns="http://www.w3.org/2000/svg" data-fui-icon="true">
  <g clip-path="url(#clip0_882_550)">
    <path
      d="M8 0C12.4183 0 16 3.58172 16 8C16 12.4183 12.4183 16 8 16C3.58172 16 0 12.4183 0 8C0 3.58172 3.58172 0 8 0ZM8 1.5C4.41015 1.5 1.5 4.41015 1.5 8C1.5 11.5899 4.41015 14.5 8 14.5C11.5899 14.5 14.5 11.5899 14.5 8C14.5 4.41015 11.5899 1.5 8 1.5ZM8.01855 2.5C10.4877 2.50016 12.5755 4.12691 13.2715 6.36523C13.3943 6.76058 13.1726 7.18061 12.7773 7.30371C12.3819 7.42646 11.9619 7.2059 11.8389 6.81055C11.3323 5.18159 9.81229 4.00016 8.01855 4C5.80942 4 4.01855 5.79086 4.01855 8C4.01855 10.2091 5.80942 12 8.01855 12C9.81229 11.9998 11.3323 10.8184 11.8389 9.18945C11.9619 8.7941 12.3819 8.57354 12.7773 8.69629C13.1726 8.81939 13.3943 9.23942 13.2715 9.63477C12.5755 11.8731 10.4877 13.4998 8.01855 13.5C4.98099 13.5 2.51855 11.0376 2.51855 8C2.51855 4.96243 4.98099 2.5 8.01855 2.5Z"
      fill="currentColor"
    />
  </g>
  <defs>
    <clipPath id="clip0_882_550"><path fill="currentColor" d="M0 0H16V16H0z" /></clipPath>
  </defs>
</svg>
