<svg width="20" height="20" viewBox="0 0 20 20" fill="none" xmlns="http://www.w3.org/2000/svg" data-fui-icon="true">
  <path
    d="M10 1C14.9706 1 19 5.02944 19 10C19 14.9706 14.9706 19 10 19C5.02944 19 1 14.9706 1 10C1 5.02944 5.02944 1 10 1ZM10 2.5C5.85786 2.5 2.5 5.85786 2.5 10C2.5 14.1421 5.85786 17.5 10 17.5C14.1421 17.5 17.5 14.1421 17.5 10C17.5 5.85786 14.1421 2.5 10 2.5ZM10 4C12.6937 4 14.9711 5.77481 15.7305 8.2168C15.8532 8.61223 15.6317 9.03232 15.2363 9.15527C14.841 9.27798 14.4209 9.05739 14.2979 8.66211C13.728 6.82948 12.0183 5.5 10 5.5C7.51472 5.5 5.5 7.51472 5.5 10C5.5 12.4853 7.51472 14.5 10 14.5C12.0183 14.5 13.728 13.1705 14.2979 11.3379C14.4209 10.9426 14.841 10.722 15.2363 10.8447C15.6317 10.9677 15.8532 11.3878 15.7305 11.7832C14.9711 14.2252 12.6937 16 10 16C6.68629 16 4 13.3137 4 10C4 6.68629 6.68629 4 10 4Z"
    fill="currentColor"
  />
</svg>
