<svg width="12" height="12" viewBox="0 0 12 12" fill="none" xmlns="http://www.w3.org/2000/svg" data-fui-icon="true">
  <path
    d="M4 0C6.20914 0 8 2.68629 8 6C8 9.31371 6.20914 12 4 12C1.79086 12 0 9.31371 0 6C0 2.68629 1.79086 0 4 0ZM11.4707 9C11.3147 9.40351 11.1252 9.77946 10.9043 10.1201C10.1896 11.2222 9.10291 12 7.74805 12H7.3291C7.6065 11.7155 7.85667 11.4035 8.07617 11.0742C8.48507 10.4608 8.81345 9.7596 9.05176 9H11.4707ZM11.875 4.5C11.956 4.98279 11.998 5.48587 11.998 6C11.998 6.51413 11.956 7.01721 11.875 7.5H9.39062C9.46163 7.01205 9.5 6.51019 9.5 6C9.5 5.48981 9.46163 4.98795 9.39062 4.5H11.875ZM7.74805 0C9.10291 0 10.1896 0.777766 10.9043 1.87988C11.1252 2.22054 11.3147 2.59649 11.4707 3H9.05176C8.81345 2.2404 8.48507 1.53916 8.07617 0.925781C7.85667 0.596528 7.6065 0.284528 7.3291 0H7.74805Z"
    fill="currentColor"
  />
</svg>
