<svg width="24" height="24" viewBox="0 0 24 24" fill="none" xmlns="http://www.w3.org/2000/svg" data-fui-icon="true">
  <path
    d="M12 0.5C18.3513 0.5 23.5 5.64873 23.5 12C23.5 18.3513 18.3513 23.5 12 23.5C5.64873 23.5 0.5 18.3513 0.5 12C0.5 5.64873 5.64873 0.5 12 0.5ZM12.0654 4.5C7.89663 4.50007 4.5 7.84847 4.5 12C4.5 16.1515 7.89663 19.4999 12.0654 19.5C15.2873 19.5 18.0431 17.5023 19.1328 14.6816C19.3317 14.1666 19.0756 13.5877 18.5605 13.3887C18.0454 13.1897 17.4667 13.4459 17.2676 13.9609C16.4694 16.0271 14.4434 17.5 12.0654 17.5C8.98223 17.4999 6.5 15.0281 6.5 12C6.5 8.97191 8.98223 6.50006 12.0654 6.5C14.4434 6.5 16.4694 7.97291 17.2676 10.0391C17.4667 10.5541 18.0454 10.8103 18.5605 10.6113C19.0756 10.4123 19.3317 9.83344 19.1328 9.31836C18.0431 6.49768 15.2873 4.5 12.0654 4.5Z"
    fill="currentColor"
  />
</svg>
