<svg width="32" height="32" viewBox="0 0 32 32" fill="none" xmlns="http://www.w3.org/2000/svg" data-fui-icon="true">
  <path
    d="M20.7432 1.00098C23.8739 1.00106 26.461 2.78643 28.2324 5.51758C29.9994 8.24211 30.9961 11.9542 30.9961 16.0029C30.996 20.0518 29.9995 23.7647 28.2324 26.4893C26.461 29.2202 23.8738 31.0048 20.7432 31.0049H11.9189C11.915 31.0049 11.9111 31.004 11.9072 31.0039C11.8965 31.0039 11.8857 31.0049 11.875 31.0049C8.77229 31.0049 6.03573 29.2339 4.10449 26.5156C2.17205 23.7955 1 20.076 1 16.0029C1.00004 11.93 2.17209 8.21131 4.10449 5.49121C6.03574 2.77275 8.77216 1.00098 11.875 1.00098H20.7432ZM11.875 2.50098C9.38607 2.50098 7.0604 3.91976 5.32715 6.35938C3.59509 8.79745 2.50004 12.2048 2.5 16.0029C2.5 19.8012 3.59506 23.2084 5.32715 25.6465C7.06043 28.0863 9.38596 29.5049 11.875 29.5049C14.364 29.5049 16.6896 28.0863 18.4229 25.6465C20.1549 23.2084 21.25 19.8012 21.25 16.0029C21.25 12.2048 20.1549 8.79745 18.4229 6.35938C16.6896 3.91976 14.3639 2.50098 11.875 2.50098ZM21.8477 22.001C21.3164 23.6868 20.569 25.2157 19.6455 26.5156C18.7877 27.723 17.7709 28.7435 16.6338 29.5049H20.7432C23.2352 29.5048 25.3995 28.0996 26.9736 25.6729C27.6579 24.6178 28.222 23.3779 28.6426 22.001H21.8477ZM22.252 11.501C22.5748 12.9251 22.75 14.4376 22.75 16.0029C22.75 17.5667 22.5761 19.078 22.2539 20.501H29.0303C29.3322 19.0986 29.4961 17.586 29.4961 16.0029C29.4961 14.4185 29.3317 12.9044 29.0293 11.501H22.252ZM16.6318 2.50098C17.7696 3.26272 18.7873 4.28315 19.6455 5.49121C20.5681 6.78991 21.3145 8.31714 21.8457 10.001H28.6416C28.2211 8.62542 27.6573 7.38715 26.9736 6.33301C25.3995 3.90624 23.2352 2.50106 20.7432 2.50098H16.6318Z"
    fill="currentColor"
  />
</svg>
