<svg width="24" height="24" viewBox="0 0 24 24" fill="none" xmlns="http://www.w3.org/2000/svg" data-fui-icon="true">
  <path
    d="M15.2588 1C17.6737 1 19.6415 2.36715 20.9619 4.38086C22.276 6.38506 23 9.08556 23 12C23 14.9144 22.276 17.6149 20.9619 19.6191C19.6415 21.6328 17.6737 23 15.2588 23H9C6.65121 23 4.62729 21.6385 3.23145 19.6445C1.83339 17.6473 1 14.9414 1 12C1 9.05856 1.83339 6.35269 3.23145 4.35547C4.62729 2.36151 6.65121 1 9 1H15.2588ZM9 3C7.48292 3 6.00678 3.87682 4.86914 5.50195C3.7337 7.12402 3 9.41859 3 12C3 14.5814 3.7337 16.876 4.86914 18.498C6.00678 20.1232 7.48292 21 9 21C10.5171 21 11.9932 20.1232 13.1309 18.498C14.2663 16.876 15 14.5814 15 12C15 9.41859 14.2663 7.12402 13.1309 5.50195C11.9932 3.87682 10.5171 3 9 3ZM16.1338 17C15.7756 17.9711 15.3161 18.8624 14.7686 19.6445C14.4223 20.1391 14.037 20.5944 13.6182 21H15.2588C16.8326 21 18.2363 20.128 19.2891 18.5225C19.5878 18.0668 19.8526 17.5561 20.0811 17H16.1338ZM16.6992 9C16.8943 9.95712 17 10.9637 17 12C17 13.0363 16.8943 14.0429 16.6992 15H20.6924C20.8911 14.0677 21 13.0595 21 12C21 10.9405 20.8911 9.93235 20.6924 9H16.6992ZM13.6182 3C14.037 3.40564 14.4223 3.86088 14.7686 4.35547C15.3161 5.13761 15.7756 6.02892 16.1338 7H20.0811C19.8526 6.44389 19.5878 5.93317 19.2891 5.47754C18.2363 3.87196 16.8326 3 15.2588 3H13.6182Z"
    fill="currentColor"
  />
</svg>
