<svg width="16" height="16" viewBox="0 0 16 16" fill="none" xmlns="http://www.w3.org/2000/svg" data-fui-icon="true">
  <path
    d="M15 12.25C15 13.2393 14.2176 13.9332 13.4141 14.335C12.5656 14.7592 11.4458 15 10.25 15C9.05424 15 7.93438 14.7592 7.08594 14.335C6.28242 13.9332 5.5 13.2393 5.5 12.25V11.8486C5.81493 12.0945 6.13506 12.2868 6.41504 12.4268C7.51266 12.9756 8.87187 13.25 10.25 13.25C11.6281 13.25 12.9873 12.9756 14.085 12.4268C14.3649 12.2868 14.6851 12.0945 15 11.8486V12.25ZM1 9.93066C1.16245 10.0272 1.33157 10.1209 1.50684 10.209C2.29614 10.6055 3.25192 10.936 4.25 11.1123V12.25C4.25 12.4701 4.27217 12.6786 4.3125 12.876C3.67052 12.7648 3.08163 12.5828 2.58594 12.335C1.78242 11.9332 1 11.2393 1 10.25V9.93066ZM10.25 6.25C11.4458 6.25 12.5656 6.49082 13.4141 6.91504C14.2176 7.31685 15 8.01068 15 9C15 9.98932 14.2176 10.6832 13.4141 11.085C12.5656 11.5092 11.4458 11.75 10.25 11.75C9.05424 11.75 7.93438 11.5092 7.08594 11.085C6.28242 10.6832 5.5 9.98932 5.5 9C5.5 8.01068 6.28242 7.31685 7.08594 6.91504C7.93438 6.49082 9.05424 6.25 10.25 6.25ZM1 6.59863C1.31493 6.84454 1.63506 7.03676 1.91504 7.17676C2.66331 7.55089 3.53372 7.79302 4.44824 7.91211C4.32477 8.23808 4.25 8.59957 4.25 9V9.58301C3.50416 9.42646 2.78521 9.1728 2.18066 8.86914C1.6778 8.61653 1.2842 8.34692 1.0293 8.10352C1.01884 8.09353 1.00969 8.08283 1 8.07324V6.59863ZM5.75 1C6.94576 1 8.06562 1.24082 8.91406 1.66504C9.71758 2.06685 10.5 2.76068 10.5 3.75C10.5 4.2415 10.3066 4.6598 10.0137 5.00586C8.74896 5.03548 7.52156 5.29986 6.52734 5.79688C6.2028 5.95917 5.82734 6.18942 5.47559 6.49316C4.38365 6.45928 3.36912 6.22655 2.58594 5.83496C1.78242 5.43315 1 4.73932 1 3.75C1 2.76068 1.78242 2.06685 2.58594 1.66504C3.43438 1.24082 4.55424 1 5.75 1Z"
    fill="currentColor"
  />
</svg>
