<svg width="32" height="32" viewBox="0 0 32 32" fill="none" xmlns="http://www.w3.org/2000/svg" data-fui-icon="true">
  <path
    d="M16 1C24.2843 1 31 7.71573 31 16C31 24.2843 24.2843 31 16 31C7.71573 31 1 24.2843 1 16C1 7.71573 7.71573 1 16 1ZM16 2.5C8.54416 2.5 2.5 8.54416 2.5 16C2.5 23.4558 8.54416 29.5 16 29.5C23.4558 29.5 29.5 23.4558 29.5 16C29.5 8.54416 23.4558 2.5 16 2.5ZM15.9492 6C20.4379 6 24.2343 8.95697 25.5 13.0273C25.6229 13.4228 25.4014 13.8428 25.0059 13.9658C24.6105 14.0885 24.1903 13.868 24.0674 13.4727C22.9911 10.0117 19.7625 7.5 15.9492 7.5C11.2549 7.50013 7.44922 11.3057 7.44922 16C7.44922 20.6943 11.2549 24.4999 15.9492 24.5C19.7625 24.5 22.9911 21.9883 24.0674 18.5273C24.1903 18.132 24.6105 17.9115 25.0059 18.0342C25.4014 18.1572 25.6229 18.5772 25.5 18.9727C24.2343 23.043 20.4379 26 15.9492 26C10.4265 25.9999 5.94922 21.5228 5.94922 16C5.94922 10.4772 10.4265 6.00013 15.9492 6Z"
    fill="currentColor"
  />
</svg>
