<svg width="12" height="12" viewBox="0 0 12 12" fill="none" xmlns="http://www.w3.org/2000/svg" data-fui-icon="true">
  <path
    d="M6 0C9.31371 0 12 2.68629 12 6C12 9.31371 9.31371 12 6 12C2.68629 12 0 9.31371 0 6C0 2.68629 2.68629 0 6 0ZM5.97168 2.75C4.18055 2.75 2.75 4.21725 2.75 6C2.75 7.78275 4.18055 9.25 5.97168 9.25C7.10914 9.24984 8.1034 8.65464 8.67383 7.76855C8.97275 7.30416 8.83842 6.68564 8.37402 6.38672C7.90973 6.08801 7.29113 6.22142 6.99219 6.68555C6.77009 7.03059 6.39331 7.24984 5.97168 7.25C5.30931 7.25 4.75 6.70253 4.75 6C4.75 5.29747 5.30931 4.75 5.97168 4.75C6.39331 4.75016 6.77009 4.96942 6.99219 5.31445C7.29113 5.77858 7.90973 5.91199 8.37402 5.61328C8.83842 5.31436 8.97275 4.69584 8.67383 4.23145C8.1034 3.34536 7.10914 2.75016 5.97168 2.75Z"
    fill="currentColor"
  />
</svg>
