<svg width="20" height="20" viewBox="0 0 20 20" fill="none" xmlns="http://www.w3.org/2000/svg" data-fui-icon="true">
  <path
    d="M10 0.5C15.2467 0.5 19.5 4.75329 19.5 10C19.5 15.2467 15.2467 19.5 10 19.5C4.75329 19.5 0.5 15.2467 0.5 10C0.5 4.75329 4.75329 0.5 10 0.5ZM10.0293 4.25C6.84331 4.25012 4.25 6.81861 4.25 10C4.25 13.1814 6.84331 15.7499 10.0293 15.75C12.4396 15.75 14.5074 14.2812 15.374 12.1924C15.5853 11.6824 15.343 11.0973 14.833 10.8857C14.3229 10.6743 13.738 10.9167 13.5264 11.4268C12.9609 12.7893 11.6088 13.75 10.0293 13.75C7.93618 13.7499 6.25 12.0652 6.25 10C6.25 7.93484 7.93618 6.25012 10.0293 6.25C11.6088 6.25 12.9609 7.21071 13.5264 8.57324C13.738 9.08328 14.3229 9.32574 14.833 9.11426C15.343 8.90267 15.5853 8.31763 15.374 7.80762C14.5074 5.71879 12.4396 4.25 10.0293 4.25Z"
    fill="currentColor"
  />
</svg>
