<svg width="12" height="12" viewBox="0 0 12 12" fill="none" xmlns="http://www.w3.org/2000/svg" data-fui-icon="true">
  <path
    d="M7.62988 0C9.04751 9.61061e-05 10.1724 0.807197 10.8994 1.91602C11.6202 3.01541 12 4.46619 12 6C12 7.53381 11.6202 8.98459 10.8994 10.084C10.1724 11.1928 9.04751 11.9999 7.62988 12H4.5C3.11777 12 1.96853 11.1985 1.20605 10.1094C0.441373 9.01697 0 7.56072 0 6C0 4.43928 0.441373 2.98303 1.20605 1.89062C1.96853 0.801548 3.11777 0 4.5 0H7.62988ZM4.5 2C3.94939 2 3.349 2.31773 2.84473 3.03809C2.34266 3.75533 2 4.7993 2 6C2 7.2007 2.34266 8.24467 2.84473 8.96191C3.349 9.68227 3.94939 10 4.5 10C5.05061 10 5.651 9.68227 6.15527 8.96191C6.65734 8.24467 7 7.2007 7 6C7 4.7993 6.65734 3.75533 6.15527 3.03809C5.651 2.31773 5.05061 2 4.5 2ZM8.40625 9C8.25686 9.34877 8.08033 9.67616 7.88086 9.97852C8.36423 9.89985 8.82718 9.59001 9.21777 9H8.40625ZM8.9375 5C8.97799 5.32667 9 5.6608 9 6C9 6.3392 8.97799 6.67333 8.9375 7H9.92578C9.97212 6.68339 10 6.34912 10 6C10 5.65088 9.97212 5.31661 9.92578 5H8.9375ZM7.88086 2.02051C8.08051 2.32305 8.25675 2.65097 8.40625 3H9.21777C8.82714 2.40993 8.36428 2.09913 7.88086 2.02051Z"
    fill="currentColor"
  />
</svg>
