<svg width="24" height="24" viewBox="0 0 24 24" fill="none" xmlns="http://www.w3.org/2000/svg" data-fui-icon="true">
  <g clip-path="url(#clip0_882_544)">
    <path
      d="M12 0C18.6266 0.000510746 23.9989 5.37327 23.999 12C23.9988 18.6266 18.6266 23.9985 12 23.999C5.37299 23.999 0.000246872 18.627 0 12C0.000144812 5.37296 5.37292 0 12 0ZM12 1.5C6.20135 1.5 1.50014 6.20139 1.5 12C1.50025 17.7985 6.20141 22.499 12 22.499C17.7982 22.4985 22.4988 17.7982 22.499 12C22.4989 6.2017 17.7982 1.50051 12 1.5ZM11.8936 3.94727C15.5078 3.94744 18.5647 6.32839 19.584 9.60547C19.707 10.001 19.4853 10.4219 19.0898 10.5449C18.6945 10.6677 18.2745 10.4469 18.1514 10.0518C17.3217 7.38388 14.8326 5.44744 11.8936 5.44727C8.2749 5.44727 5.34099 8.38139 5.34082 12C5.34103 15.6186 8.27493 18.5518 11.8936 18.5518C14.8326 18.5516 17.3217 16.6161 18.1514 13.9482C18.2744 13.553 18.6945 13.3314 19.0898 13.4541C19.4853 13.5771 19.7068 13.9981 19.584 14.3936C18.5648 17.6709 15.508 20.0516 11.8936 20.0518C7.4465 20.0518 3.84103 16.447 3.84082 12C3.84099 7.55296 7.44647 3.94727 11.8936 3.94727Z"
      fill="currentColor"
    />
  </g>
  <defs>
    <clipPath id="clip0_882_544"><path fill="currentColor" d="M0 0H24V24H0z" /></clipPath>
  </defs>
</svg>
