<svg width="32" height="32" viewBox="0 0 32 32" fill="none" xmlns="http://www.w3.org/2000/svg" data-fui-icon="true">
  <path
    d="M21.2129 13.8594C23.7914 13.8594 26.1626 14.3407 27.917 15.1504C29.5137 15.8873 30.8434 17.0244 30.9863 18.5137C30.9919 18.5505 30.9961 18.5886 30.9961 18.627C30.9989 18.6775 31 18.7289 31 18.7803C31 18.8307 30.9988 18.881 30.9961 18.9307V26.0361C30.9961 26.0502 30.9949 26.0643 30.9941 26.0781H31C31 27.6987 29.6077 28.9277 27.917 29.708C26.1626 30.5177 23.7914 30.999 21.2129 30.999C18.6345 30.9989 16.263 30.5177 14.5088 29.708C12.8185 28.9277 11.4268 27.6984 11.4268 26.0781H11.4287C11.4279 26.0643 11.4268 26.0502 11.4268 26.0361V18.627C11.4268 18.5719 11.433 18.5175 11.4443 18.4658C11.6107 17.0002 12.9295 15.8795 14.5088 15.1504C16.263 14.3407 18.6345 13.8595 21.2129 13.8594ZM12.9268 26.0361C12.9267 26.0502 12.9256 26.0643 12.9248 26.0781H12.9268C12.9268 26.7609 13.5583 27.6176 15.1377 28.3467C16.6537 29.0463 18.8012 29.4989 21.2129 29.499C23.6249 29.499 25.7729 29.0464 27.2891 28.3467C28.8563 27.6233 29.4892 26.7748 29.499 26.0947C29.4975 26.0754 29.4961 26.0558 29.4961 26.0361V21.457C29.0328 21.8246 28.4927 22.1444 27.917 22.4102C26.1626 23.2197 23.7912 23.7012 21.2129 23.7012C18.6345 23.7011 16.263 23.2198 14.5088 22.4102C13.9316 22.1437 13.3907 21.8229 12.9268 21.4541V26.0361ZM10.7861 1C13.3646 1 15.7358 1.48137 17.4902 2.29102C19.1809 3.07131 20.5731 4.30043 20.5732 5.9209C20.5732 5.92996 20.5724 5.93921 20.5723 5.94824C20.5724 5.95305 20.5732 5.95806 20.5732 5.96289V12.6191C20.0653 12.6341 19.5643 12.6672 19.0732 12.7168V8.59473C18.609 8.96367 18.0677 9.28427 17.4902 9.55078C15.7359 10.3604 13.3646 10.8418 10.7861 10.8418C8.20772 10.8417 5.83633 10.3605 4.08203 9.55078C3.50479 9.28432 2.96399 8.96358 2.5 8.59473V13.2197L2.50781 13.3496C2.58298 14.009 3.22998 14.8047 4.71094 15.4883C6.22593 16.1875 8.37144 16.639 10.7812 16.6396C10.5121 17.0872 10.3172 17.5838 10.2285 18.1318C7.86698 18.0678 5.70908 17.6006 4.08203 16.8496C3.50481 16.5832 2.964 16.2624 2.5 15.8936V20.5186L2.50781 20.6484C2.58308 21.3078 3.23007 22.1036 4.71094 22.7871C6.09823 23.4274 8.01424 23.8597 10.1777 23.9287V25.4287C7.83606 25.3594 5.6974 24.894 4.08203 24.1484C2.44434 23.3925 1.08711 22.215 1.00391 20.6689L1 20.5186V5.9209C1.00013 4.30062 2.39167 3.07132 4.08203 2.29102C5.83633 1.48134 8.20772 1.00007 10.7861 1ZM21.2129 15.3594C18.8011 15.3595 16.6537 15.812 15.1377 16.5117C13.5583 17.2408 12.9269 18.0975 12.9268 18.7803C12.9271 19.4629 13.5586 20.3189 15.1377 21.0479C16.6537 21.7475 18.8011 22.2011 21.2129 22.2012C23.6248 22.2012 25.7729 21.7475 27.2891 21.0479C28.8113 20.3452 29.4516 19.5242 29.4961 18.8545V18.7061C29.452 18.0361 28.812 17.2147 27.2891 16.5117C25.7729 15.812 23.6248 15.3594 21.2129 15.3594ZM10.7861 2.5C8.37429 2.50007 6.22696 2.95264 4.71094 3.65234C3.13133 4.38142 2.50014 5.23813 2.5 5.9209C2.50014 6.60362 3.1316 7.45944 4.71094 8.18848C6.22696 8.88818 8.37428 9.34173 10.7861 9.3418C13.1981 9.3418 15.3462 8.88821 16.8623 8.18848C18.4416 7.45945 19.0731 6.60361 19.0732 5.9209C19.0731 5.23815 18.4418 4.3814 16.8623 3.65234C15.3462 2.95266 13.1981 2.5 10.7861 2.5Z"
    fill="currentColor"
  />
</svg>
