<svg width="24" height="24" viewBox="0 0 24 24" fill="none" xmlns="http://www.w3.org/2000/svg" data-fui-icon="true">
  <path
    d="M15.751 10.25C17.6286 10.2501 19.366 10.5996 20.6611 11.1973C21.8177 11.7313 22.8644 12.5905 22.9873 13.7676C22.9938 13.8073 22.998 13.8481 22.998 13.8896V13.9482C22.9984 13.9654 23.001 13.9828 23.001 14C23.001 14.017 22.9984 14.0339 22.998 14.0508V19.2197C22.998 19.2299 22.9965 19.2399 22.9961 19.25H23.001C23.0008 20.5469 21.8925 21.4843 20.6611 22.0527C19.366 22.6504 17.6286 22.9999 15.751 23C13.8734 23 12.1361 22.6502 10.8408 22.0527C9.6092 21.4843 8.50014 20.5472 8.5 19.25H8.50195C8.50154 19.2399 8.50001 19.2299 8.5 19.2197V13.8896C8.5 13.8337 8.50694 13.779 8.51855 13.7266C8.66134 12.5702 9.69741 11.725 10.8408 11.1973C12.1361 10.5997 13.8733 10.25 15.751 10.25ZM10.001 19.2197C10.001 19.2299 9.99943 19.24 9.99902 19.25H10.001C10.0011 19.6095 10.3484 20.1733 11.4688 20.6904C12.5258 21.1781 14.0398 21.5 15.751 21.5C17.4622 21.4999 18.9763 21.1782 20.0332 20.6904C21.1419 20.1785 21.493 19.6206 21.5 19.2607C21.4993 19.2472 21.4981 19.2335 21.498 19.2197V16.3379C21.2344 16.5127 20.9514 16.6687 20.6611 16.8027C19.366 17.4004 17.6286 17.7499 15.751 17.75C13.8734 17.75 12.1361 17.4002 10.8408 16.8027C10.5498 16.6684 10.2652 16.5123 10.001 16.3369V19.2197ZM8.25 1C10.128 1 11.8648 1.34951 13.1602 1.94727C14.3919 2.51574 15.5 3.4527 15.5 4.75C15.5 4.75489 15.4991 4.75977 15.499 4.76465C15.4991 4.76977 15.5 4.77513 15.5 4.78027V9.00195C14.9913 9.00979 14.4895 9.04216 14 9.09668V7.08594C13.7354 7.26166 13.4517 7.41819 13.1602 7.55273C11.8648 8.15049 10.128 8.5 8.25 8.5C6.37201 8.5 4.63521 8.15049 3.33984 7.55273C3.04833 7.41819 2.76462 7.26166 2.5 7.08594V10C2.5 10.3595 2.84712 10.9231 3.96777 11.4404C4.91638 11.8782 6.23252 12.1795 7.72949 12.2373C7.50271 12.6319 7.33984 13.0752 7.27832 13.5732H7.2793C7.27172 13.6208 7.26462 13.6682 7.25977 13.7158C5.76621 13.616 4.40402 13.2938 3.33984 12.8027C3.04833 12.6682 2.76462 12.5117 2.5 12.3359V15.25C2.5 15.6095 2.84712 16.1731 3.96777 16.6904C4.81387 17.0809 5.95258 17.3612 7.25098 17.459V18.9658C5.76085 18.8653 4.40194 18.5428 3.33984 18.0527C2.10815 17.4843 1 16.5473 1 15.25V4.75C1 3.4527 2.10815 2.51574 3.33984 1.94727C4.63521 1.34951 6.37201 1 8.25 1ZM15.751 11.75C14.0397 11.75 12.5258 12.0718 11.4688 12.5596C10.3481 13.0769 10.001 13.6405 10.001 14C10.0011 14.3595 10.3484 14.9233 11.4688 15.4404C12.5258 15.9281 14.0398 16.25 15.751 16.25C17.4622 16.2499 18.9763 15.9282 20.0332 15.4404C21.1112 14.9427 21.4724 14.4014 21.498 14.041V13.957C21.4715 13.5967 21.1096 13.0567 20.0332 12.5596C18.9763 12.0718 17.4622 11.7501 15.751 11.75ZM8.25 2.5C6.53835 2.5 5.0249 2.82166 3.96777 3.30957C2.84712 3.82685 2.5 4.39048 2.5 4.75C2.5 5.10952 2.84712 5.67315 3.96777 6.19043C5.0249 6.67834 6.53835 7 8.25 7C9.96165 7 11.4751 6.67834 12.5322 6.19043C13.6529 5.67315 14 5.10952 14 4.75C14 4.39048 13.6529 3.82685 12.5322 3.30957C11.4751 2.82166 9.96165 2.5 8.25 2.5Z"
    fill="currentColor"
  />
</svg>
