<svg width="32" height="32" viewBox="0 0 32 32" fill="none" xmlns="http://www.w3.org/2000/svg" data-fui-icon="true">
  <path
    d="M20.7441 1.00098C23.8749 1.00106 26.462 2.78643 28.2334 5.51758C30.0004 8.24211 30.997 11.9542 30.9971 16.0029C30.997 20.0518 30.0005 23.7647 28.2334 26.4893C26.462 29.2202 23.8748 31.0048 20.7441 31.0049H11.9199C11.916 31.0049 11.9121 31.004 11.9082 31.0039C11.8975 31.0039 11.8867 31.0049 11.876 31.0049C8.77327 31.0049 6.0367 29.2339 4.10547 26.5156C2.17303 23.7955 1.00098 20.076 1.00098 16.0029C1.00102 11.93 2.17306 8.21131 4.10547 5.49121C6.03672 2.77275 8.77314 1.00098 11.876 1.00098H20.7441ZM11.876 2.50098C9.38704 2.50098 7.06138 3.91976 5.32812 6.35938C3.59607 8.79745 2.50102 12.2048 2.50098 16.0029C2.50098 19.8012 3.59604 23.2084 5.32812 25.6465C7.0614 28.0863 9.38694 29.5049 11.876 29.5049C14.365 29.5049 16.6905 28.0863 18.4238 25.6465C20.1559 23.2084 21.251 19.8012 21.251 16.0029C21.2509 12.2048 20.1559 8.79745 18.4238 6.35938C16.6906 3.91976 14.3649 2.50098 11.876 2.50098ZM21.8486 22.001C21.3174 23.6868 20.57 25.2157 19.6465 26.5156C18.7887 27.723 17.7719 28.7435 16.6348 29.5049H20.7441C23.2362 29.5048 25.4005 28.0996 26.9746 25.6729C27.6589 24.6178 28.223 23.3779 28.6436 22.001H21.8486ZM22.2529 11.501C22.5758 12.9251 22.751 14.4376 22.751 16.0029C22.751 17.5667 22.5771 19.078 22.2549 20.501H29.0312C29.3331 19.0986 29.4971 17.586 29.4971 16.0029C29.4971 14.4185 29.3327 12.9044 29.0303 11.501H22.2529ZM16.6328 2.50098C17.7706 3.26272 18.7883 4.28315 19.6465 5.49121C20.5691 6.78991 21.3155 8.31714 21.8467 10.001H28.6426C28.2221 8.62542 27.6583 7.38715 26.9746 6.33301C25.4005 3.90624 23.2362 2.50106 20.7441 2.50098H16.6328Z"
    fill="currentColor"
  />
</svg>
