<svg width="16" height="17" viewBox="0 0 16 17" fill="none" xmlns="http://www.w3.org/2000/svg" data-fui-icon="true">
  <path
    d="M12.2051 5.27405C14.4076 5.99191 16 8.06143 16 10.5035C16 13.5409 13.5373 16.0033 10.5 16.0035C10.4459 16.0035 10.3916 16.0012 10.3379 15.9996H2C0.895431 15.9996 0 15.1042 0 13.9996V12.9996C2.94472e-05 12.5265 0.164813 12.0921 0.439453 11.7496C0.164825 11.4072 0 10.9728 0 10.4996V9.49963C2.94472e-05 9.02653 0.164813 8.59206 0.439453 8.24963C0.164825 7.90719 0 7.47275 0 6.99963V5.99963C2.94472e-05 5.52653 0.164813 5.09206 0.439453 4.74963C0.164825 4.40719 0 3.97275 0 3.49963V2.49963C6.85456e-05 1.39512 0.895473 0.499634 2 0.499634H10.5C11.6045 0.499634 12.4999 1.39512 12.5 2.49963V3.49963C12.5 3.97297 12.3344 4.40711 12.0596 4.74963C12.1989 4.9232 12.3089 5.12081 12.3848 5.33459C12.3255 5.31297 12.2653 5.29366 12.2051 5.27405ZM10.5 6.50354C8.29086 6.50354 6.5 8.2944 6.5 10.5035C6.5 12.7127 8.29086 14.5035 10.5 14.5035C12.7089 14.5033 14.5 12.7125 14.5 10.5035C14.5 8.29456 12.7089 6.5038 10.5 6.50354ZM2 12.4996C1.7239 12.4996 1.50007 12.7235 1.5 12.9996V13.9996C1.5 14.2758 1.72386 14.4996 2 14.4996H6.72266C6.13659 13.9455 5.67309 13.2643 5.375 12.4996H2ZM2 8.99963C1.7239 8.99963 1.50007 9.22355 1.5 9.49963V10.4996C1.5 10.7758 1.72386 10.9996 2 10.9996H5.02344C5.00882 10.8362 5 10.6708 5 10.5035C5 9.98189 5.07427 9.4778 5.20996 8.99963H2ZM5.8916 7.49963C6.45879 6.63135 7.26527 5.93441 8.2168 5.49963H2C1.7239 5.49963 1.50007 5.72355 1.5 5.99963V6.99963C1.5 7.27578 1.72386 7.49963 2 7.49963H5.8916ZM2 1.99963C1.7239 1.99963 1.50007 2.22355 1.5 2.49963V3.49963C1.5 3.77578 1.72386 3.99963 2 3.99963H10.5C10.7761 3.99963 11 3.77578 11 3.49963V2.49963C10.9999 2.22355 10.7761 1.99963 10.5 1.99963H2Z"
    fill="currentColor"
  />
</svg>
