<svg width="24" height="24" viewBox="0 0 24 24" fill="none" xmlns="http://www.w3.org/2000/svg" data-fui-icon="true">
  <path
    d="M12 1C18.0751 1 23 5.92487 23 12C23 18.0751 18.0751 23 12 23C5.92487 23 1 18.0751 1 12C1 5.92487 5.92487 1 12 1ZM12 2.5C6.75329 2.5 2.5 6.75329 2.5 12C2.5 17.2467 6.75329 21.5 12 21.5C17.2467 21.5 21.5 17.2467 21.5 12C21.5 6.75329 17.2467 2.5 12 2.5ZM11.9033 4.59668C15.2268 4.59668 18.0376 6.78644 18.9746 9.7998C19.0972 10.1952 18.8758 10.6154 18.4805 10.7383C18.0852 10.861 17.6651 10.6403 17.542 10.2451C16.7945 7.84111 14.5514 6.09668 11.9033 6.09668C8.64305 6.09678 6.0001 8.73973 6 12C6.0001 15.2603 8.64305 17.9032 11.9033 17.9033C14.5513 17.9033 16.7943 16.1597 17.542 13.7559C17.6649 13.3604 18.085 13.139 18.4805 13.2617C18.876 13.3847 19.0976 13.8057 18.9746 14.2012C18.0375 17.2144 15.2267 19.4033 11.9033 19.4033C7.81462 19.4032 4.5001 16.0887 4.5 12C4.5001 7.9113 7.81463 4.59678 11.9033 4.59668Z"
    fill="currentColor"
  />
</svg>
