<svg width="16" height="16" viewBox="0 0 16 16" fill="none" xmlns="http://www.w3.org/2000/svg" data-fui-icon="true">
  <path
    d="M5.5 1C7.98528 1 10 4.13401 10 8C10 11.866 7.98528 15 5.5 15C3.01472 15 1 11.866 1 8C1 4.13401 3.01472 1 5.5 1ZM14.2949 11.75C14.134 12.1336 13.9475 12.4936 13.7354 12.8242C12.9125 14.1063 11.67 15 10.127 15H9.62891C9.90053 14.6948 10.147 14.3692 10.3643 14.0312C10.8027 13.3493 11.1582 12.5792 11.4258 11.75H14.2949ZM14.8594 6.25C14.9522 6.81266 15.001 7.39945 15.001 8C15.001 8.60055 14.9522 9.18734 14.8594 9.75H11.8799C11.9586 9.17961 12 8.59404 12 8C12 7.40596 11.9586 6.82039 11.8799 6.25H14.8594ZM10.127 1C11.67 1 12.9125 1.89375 13.7354 3.17578C13.9475 3.50636 14.134 3.86645 14.2949 4.25H11.4258C11.1582 3.42077 10.8027 2.6507 10.3643 1.96875C10.147 1.6308 9.90053 1.30521 9.62891 1H10.127Z"
    fill="currentColor"
  />
</svg>
