<svg width="32" height="32" viewBox="0 0 32 32" fill="none" xmlns="http://www.w3.org/2000/svg" data-fui-icon="true">
  <path
    d="M11.5 1C17.299 1 22 7.71573 22 16C22 24.2843 17.299 31 11.5 31C5.70101 31 1 24.2843 1 16C1 7.71573 5.70101 1 11.5 1ZM29.9453 23C29.5288 24.2743 28.996 25.4434 28.3574 26.4717C26.6644 29.1978 24.1798 31 21.1533 31H17.4287C18.6256 30.1304 19.6832 29.0198 20.5693 27.7539C21.5421 26.3643 22.3331 24.7569 22.9111 23H29.9453ZM30.4834 11C30.8219 12.5691 31.001 14.2531 31.001 16C31.001 17.7469 30.8219 19.4309 30.4834 21H23.4619C23.8166 19.4113 24.0059 17.7309 24.0059 16C24.0059 14.2691 23.8166 12.5887 23.4619 11H30.4834ZM21.1533 1C24.1798 1 26.6644 2.80218 28.3574 5.52832C28.996 6.55663 29.5288 7.72568 29.9453 9H22.9111C22.3331 7.24306 21.5421 5.63575 20.5693 4.24609C19.6832 2.98018 18.6256 1.86959 17.4287 1H21.1533Z"
    fill="currentColor"
  />
</svg>
