<svg width="32" height="32" viewBox="0 0 32 32" fill="none" xmlns="http://www.w3.org/2000/svg" data-fui-icon="true">
  <path
    d="M20.667 1.00098C23.854 1.0011 26.4688 2.82147 28.2432 5.55762C30.0119 8.28509 31 11.9839 31 16.001C31 20.0181 30.0119 23.7169 28.2432 26.4443C26.4688 29.1805 23.854 31.0009 20.667 31.001H12C8.83181 31.001 6.05791 29.2012 4.11523 26.4814C2.17126 23.7598 1 20.0513 1 16.001C1 11.9507 2.17126 8.24215 4.11523 5.52051C6.05791 2.80077 8.83181 1.00098 12 1.00098H20.667ZM12 3.00098C9.64535 3.00098 7.4188 4.33535 5.74219 6.68262C4.06701 9.02795 3 12.3195 3 16.001C3 19.6825 4.06701 22.974 5.74219 25.3193C7.4188 27.6666 9.64535 29.001 12 29.001C14.3547 29.001 16.5812 27.6666 18.2578 25.3193C19.933 22.974 21 19.6825 21 16.001C21 12.3195 19.933 9.02795 18.2578 6.68262C16.5812 4.33535 14.3547 3.00098 12 3.00098ZM22.0869 22.001C21.5549 23.6709 20.8086 25.1881 19.8848 26.4814C19.1915 27.452 18.3919 28.3047 17.5068 29.001H20.667C23.0025 29.0009 25.054 27.6871 26.5654 25.3564C27.1925 24.3896 27.7145 23.2577 28.1143 22.001H22.0869ZM22.6035 12.001C22.8604 13.2777 23 14.6191 23 16.001C23 17.3829 22.8604 18.7243 22.6035 20.001H28.625C28.8693 18.7462 29 17.4031 29 16.001C29 14.5989 28.8693 13.2557 28.625 12.001H22.6035ZM17.5068 3.00098C18.3919 3.69724 19.1915 4.54997 19.8848 5.52051C20.8086 6.81389 21.5549 8.33109 22.0869 10.001H28.1143C27.7145 8.74429 27.1925 7.61239 26.5654 6.64551C25.054 4.31487 23.0025 3.0011 20.667 3.00098H17.5068Z"
    fill="currentColor"
  />
</svg>
