<svg width="20" height="20" viewBox="0 0 20 20" fill="none" xmlns="http://www.w3.org/2000/svg" data-fui-icon="true">
  <path
    d="M10 0C15.5224 0.000150495 19.9988 4.47756 19.999 10C19.9989 15.5225 15.5225 19.9989 10 19.999C4.47757 19.9988 0.000150492 15.5224 0 10C0.000191436 4.47759 4.47759 0.000197915 10 0ZM10 3.36426C6.33529 3.3645 3.3645 6.33529 3.36426 10C3.3645 13.6647 6.33529 16.6365 10 16.6367C12.9789 16.6365 15.498 14.6734 16.3379 11.9727C16.4606 11.5774 16.2398 11.1574 15.8447 11.0342C15.4494 10.9113 15.0294 11.1321 14.9062 11.5273C14.2558 13.6187 12.3035 15.1365 10 15.1367C7.16371 15.1365 4.8645 12.8363 4.86426 10C4.8645 7.16371 7.16371 4.8645 10 4.86426C12.3036 4.86447 14.2559 6.38216 14.9062 8.47363C15.0296 8.86848 15.4496 9.0896 15.8447 8.9668C16.2399 8.84373 16.4605 8.42261 16.3379 8.02734C15.4979 5.32679 12.9788 3.36447 10 3.36426Z"
    fill="currentColor"
  />
</svg>
