<svg width="24" height="24" viewBox="0 0 24 24" fill="none" xmlns="http://www.w3.org/2000/svg" data-fui-icon="true">
  <path
    d="M8.49707 1C12.6375 1.00005 15.9941 5.9249 15.9941 12C15.9941 18.0751 12.6375 22.9999 8.49707 23C4.35659 23 1 18.0751 1 12C1 5.92487 4.35659 1 8.49707 1ZM22.2471 17C21.9356 17.9641 21.533 18.8495 21.0449 19.627C19.7883 21.6281 17.9254 22.9766 15.6396 22.9766H13.6299C14.319 22.3771 14.9332 21.6743 15.458 20.9043C16.234 19.7656 16.8506 18.443 17.2832 17H22.2471ZM22.7441 9C22.9105 9.95389 22.998 10.9568 22.998 11.9883C22.998 13.0283 22.9083 14.0391 22.7393 15H17.749C17.9133 14.0316 18.001 13.0266 18.001 12C18.001 10.9734 17.9133 9.96842 17.749 9H22.7441ZM15.6396 1C17.9254 1 19.7883 2.34848 21.0449 4.34961C21.537 5.13335 21.9424 6.02677 22.2549 7H17.2832C16.8506 5.557 16.234 4.23436 15.458 3.0957C14.9263 2.31556 14.3028 1.60457 13.6025 1H15.6396Z"
    fill="currentColor"
  />
</svg>
