<svg width="16" height="16" viewBox="0 0 16 16" fill="none" xmlns="http://www.w3.org/2000/svg" data-fui-icon="true">
  <path
    d="M12.25 1.5C14.3211 1.5 16 3.17893 16 5.25V10.75C16 12.8211 14.3211 14.5 12.25 14.5H3.75C1.67893 14.5 7.70306e-09 12.8211 0 10.75V5.25C0 3.17893 1.67893 1.5 3.75 1.5H12.25ZM3.75 3C2.50736 3 1.5 4.00736 1.5 5.25V10.75C1.5 11.9926 2.50736 13 3.75 13H12.25C13.4926 13 14.5 11.9926 14.5 10.75V5.25C14.5 4.00736 13.4926 3 12.25 3H3.75ZM6 4.5C6.55228 4.5 7 4.94772 7 5.5V10.5C7 11.0523 6.55228 11.5 6 11.5H4.25C3.55964 11.5 3 10.9404 3 10.25V5.75C3 5.05964 3.55964 4.5 4.25 4.5H6Z"
    fill="currentColor"
  />
</svg>
