<svg width="16" height="16" viewBox="0 0 16 16" fill="none" xmlns="http://www.w3.org/2000/svg" data-fui-icon="true">
  <path
    d="M6 6V4C6 2.89543 5.10457 2 4 2C2.89543 2 2 2.89543 2 4C2 5.10457 2.89543 6 4 6H6ZM6 6V10M6 6H10M6 10H10M6 10H4C2.89543 10 2 10.8954 2 12C2 13.1046 2.89543 14 4 14C5.10457 14 6 13.1046 6 12V10ZM10 10V6M10 10V12C10 13.1046 10.8954 14 12 14C13.1046 14 14 13.1046 14 12C14 10.8954 13.1046 10 12 10H10ZM10 6V4C10 2.89543 10.8954 2 12 2C13.1046 2 14 2.89543 14 4C14 5.10457 13.1046 6 12 6H10Z"
    stroke="currentColor"
    stroke-width="2"
    stroke-linecap="round"
  />
</svg>
