<svg width="12" height="12" viewBox="0 0 12 12" fill="none" xmlns="http://www.w3.org/2000/svg" data-fui-icon="true">
  <path
    d="M4 4V2.375C4 1.47754 3.27246 0.75 2.375 0.75C1.47754 0.75 0.75 1.47754 0.75 2.375C0.75 3.27246 1.47754 4 2.375 4H4ZM4 4V8M4 4H8M4 8H8M4 8H2.375C1.47754 8 0.75 8.72754 0.75 9.625C0.75 10.5225 1.47754 11.25 2.375 11.25C3.27246 11.25 4 10.5225 4 9.625V8ZM8 8V4M8 8V9.625C8 10.5225 8.72754 11.25 9.625 11.25C10.5225 11.25 11.25 10.5225 11.25 9.625C11.25 8.72754 10.5225 8 9.625 8H8ZM8 4V2.375C8 1.47754 8.72754 0.75 9.625 0.75C10.5225 0.75 11.25 1.47754 11.25 2.375C11.25 3.27246 10.5225 4 9.625 4H8Z"
    stroke="currentColor"
    stroke-width="1.5"
    stroke-linecap="round"
  />
</svg>
