<svg width="12" height="12" viewBox="0 0 12 12" fill="none" xmlns="http://www.w3.org/2000/svg" data-fui-icon="true">
  <path
    d="M4.25 4.25V2.625C4.25 1.72754 3.52246 1 2.625 1C1.72754 1 1 1.72754 1 2.625C1 3.52246 1.72754 4.25 2.625 4.25H4.25ZM4.25 4.25V7.75M4.25 4.25H7.75M4.25 7.75H7.75M4.25 7.75H2.625C1.72754 7.75 1 8.47754 1 9.375C1 10.2725 1.72754 11 2.625 11C3.52246 11 4.25 10.2725 4.25 9.375V7.75ZM7.75 7.75V4.25M7.75 7.75V9.375C7.75 10.2725 8.47754 11 9.375 11C10.2725 11 11 10.2725 11 9.375C11 8.47754 10.2725 7.75 9.375 7.75H7.75ZM7.75 4.25V2.625C7.75 1.72754 8.47754 1 9.375 1C10.2725 1 11 1.72754 11 2.625C11 3.52246 10.2725 4.25 9.375 4.25H7.75Z"
    stroke="currentColor"
    stroke-width="2"
    stroke-linecap="round"
  />
</svg>
