<svg width="32" height="32" viewBox="0 0 32 32" fill="none" xmlns="http://www.w3.org/2000/svg" data-fui-icon="true">
  <path
    d="M16 0.5C24.5604 0.5 31.5 7.43959 31.5 16C31.5 24.5604 24.5604 31.5 16 31.5C7.43959 31.5 0.5 24.5604 0.5 16C0.5 7.43959 7.43959 0.5 16 0.5ZM24.0166 11.2764C24.9285 9.19212 22.8088 7.07187 20.7246 7.9834L13.4746 11.1553C12.4374 11.6091 11.609 12.4374 11.1553 13.4746L7.9834 20.7246C7.07199 22.8088 9.19219 24.9284 11.2764 24.0166L18.5254 20.8447C19.5626 20.391 20.3909 19.5625 20.8447 18.5254L24.0166 11.2764Z"
    fill="currentColor"
  />
</svg>
