<svg width="12" height="12" viewBox="0 0 12 12" fill="none" xmlns="http://www.w3.org/2000/svg" data-fui-icon="true">
  <g clip-path="url(#clip0_6096_3)">
    <path
      d="M6 0.25C9.17564 0.25 11.75 2.82436 11.75 6C11.75 9.17564 9.17564 11.75 6 11.75C2.82436 11.75 0.25 9.17564 0.25 6C0.25 2.82436 2.82436 0.25 6 0.25ZM7.81348 4.99219C8.05528 4.50859 7.58871 3.99669 7.10449 4.14746L7.00781 4.18652L5.87305 4.75488C5.38923 4.99679 4.99679 5.38923 4.75488 5.87305L4.18652 7.00781C3.92866 7.52355 4.47645 8.07134 4.99219 7.81348L6.42578 7.09668C6.716 6.95155 6.95155 6.716 7.09668 6.42578L7.81348 4.99219Z"
      fill="currentColor"
    />
  </g>
  <defs>
    <clipPath id="clip0_6096_3"><path fill="currentColor" d="M0 0H12V12H0z" /></clipPath>
  </defs>
</svg>
