<svg width="16" height="16" viewBox="0 0 16 16" fill="none" xmlns="http://www.w3.org/2000/svg" data-fui-icon="true">
  <path
    d="M8 0.5C12.1421 0.5 15.5 3.85786 15.5 8C15.5 12.1421 12.1421 15.5 8 15.5C3.85786 15.5 0.5 12.1421 0.5 8C0.5 3.85786 3.85786 0.5 8 0.5ZM11.2412 6.28125C11.6671 5.34421 10.7469 4.38142 9.80957 4.72168L9.71875 4.75879L7.24707 5.88184C6.64199 6.15694 6.15696 6.64201 5.88184 7.24707L4.75879 9.71875C4.31915 10.6861 5.31393 11.6808 6.28125 11.2412L8.75293 10.1182C9.358 9.84304 9.84306 9.35802 10.1182 8.75293L11.2412 6.28125Z"
    fill="currentColor"
  />
</svg>
