<svg width="20" height="20" viewBox="0 0 20 20" fill="none" xmlns="http://www.w3.org/2000/svg" data-fui-icon="true">
  <path
    d="M10 0.5C15.2467 0.5 19.5 4.75329 19.5 10C19.5 15.2467 15.2467 19.5 10 19.5C4.75329 19.5 0.5 15.2467 0.5 10C0.5 4.75329 4.75329 0.5 10 0.5ZM10 2C5.58172 2 2 5.58172 2 10C2 14.4183 5.58172 18 10 18C14.4183 18 18 14.4183 18 10C18 5.58172 14.4183 2 10 2ZM12.2383 5.7627C13.4874 5.28895 14.7105 6.51159 14.2373 7.76074L12.8955 11.2988C12.6164 12.0346 12.0346 12.6164 11.2988 12.8955L7.76074 14.2373C6.5115 14.7107 5.28884 13.4875 5.7627 12.2383L7.10449 8.7002C7.38364 7.96452 7.96449 7.38358 8.7002 7.10449L12.2383 5.7627ZM12.7705 7.16504L9.23242 8.50684C8.89802 8.63368 8.63374 8.89805 8.50684 9.23242L7.16504 12.7705C7.16116 12.7808 7.16037 12.7872 7.16016 12.79C7.15999 12.7928 7.15968 12.7956 7.16016 12.7979C7.16148 12.8032 7.16584 12.8132 7.17578 12.8232C7.18603 12.8335 7.19678 12.8376 7.20215 12.8389C7.20432 12.8394 7.20639 12.84 7.20898 12.8398C7.2116 12.8397 7.21851 12.8391 7.22949 12.835L10.7676 11.4922C11.1016 11.3653 11.3653 11.1016 11.4922 10.7676L12.835 7.22949C12.8391 7.21861 12.8397 7.21157 12.8398 7.20898C12.8399 7.2065 12.8393 7.20425 12.8389 7.20215C12.8375 7.19672 12.8334 7.18592 12.8232 7.17578C12.8132 7.16584 12.8032 7.16148 12.7979 7.16016C12.7955 7.15962 12.7928 7.15998 12.79 7.16016C12.7874 7.16034 12.7811 7.16107 12.7705 7.16504Z"
    fill="currentColor"
  />
</svg>
