<svg width="32" height="32" viewBox="0 0 32 32" fill="none" xmlns="http://www.w3.org/2000/svg" data-fui-icon="true">
  <path
    d="M16 1C24.2843 1 31 7.71573 31 16C31 24.2843 24.2843 31 16 31C7.71573 31 1 24.2843 1 16C1 7.71573 7.71573 1 16 1ZM16 2.5C8.54416 2.5 2.5 8.54416 2.5 16C2.5 23.4558 8.54416 29.5 16 29.5C23.4558 29.5 29.5 23.4558 29.5 16C29.5 8.54416 23.4558 2.5 16 2.5ZM20.3223 9.41992C21.7328 8.88488 23.114 10.2662 22.5791 11.6768L20.1797 18.0039C19.7991 19.007 19.007 19.7991 18.0039 20.1797L11.6768 22.5791C10.2662 23.114 8.88488 21.7328 9.41992 20.3223L11.8193 13.9961C12.1999 12.9928 12.9928 12.1999 13.9961 11.8193L20.3223 9.41992ZM20.8545 10.8223L14.5283 13.2217C13.9264 13.45 13.45 13.9264 13.2217 14.5283L10.8223 20.8545C10.7459 21.0559 10.9431 21.2528 11.1445 21.1768L17.4717 18.7773C18.0736 18.549 18.549 18.0736 18.7773 17.4717L21.1768 11.1445C21.2528 10.9431 21.0559 10.7459 20.8545 10.8223Z"
    fill="currentColor"
  />
</svg>
