<svg width="24" height="24" viewBox="0 0 24 24" fill="none" xmlns="http://www.w3.org/2000/svg" data-fui-icon="true">
  <path
    d="M12 0C18.6274 0 24 5.37258 24 12C24 18.6274 18.6274 24 12 24C5.37258 24 0 18.6274 0 12C0 5.37258 5.37258 0 12 0ZM12 1.5C6.20101 1.5 1.5 6.20101 1.5 12C1.5 17.799 6.20101 22.5 12 22.5C17.799 22.5 22.5 17.799 22.5 12C22.5 6.20101 17.799 1.5 12 1.5ZM14.8643 7.00781C16.1941 6.50366 17.4963 7.80592 16.9922 9.13574L15.2705 13.6748C14.9914 14.4104 14.4104 14.9914 13.6748 15.2705L9.13574 16.9922C7.80592 17.4963 6.50366 16.1941 7.00781 14.8643L8.72949 10.3252C9.00861 9.58956 9.58956 9.00861 10.3252 8.72949L14.8643 7.00781ZM15.3955 8.41016L10.8574 10.1318C10.523 10.2587 10.2587 10.523 10.1318 10.8574L8.41016 15.3965C8.36487 15.5172 8.48377 15.6356 8.60449 15.5898L13.1426 13.8682C13.477 13.7413 13.7413 13.477 13.8682 13.1426L15.5898 8.60449C15.6357 8.48358 15.5164 8.36429 15.3955 8.41016Z"
    fill="currentColor"
  />
</svg>
