<svg width="20" height="20" viewBox="0 0 20 20" fill="none" xmlns="http://www.w3.org/2000/svg" data-fui-icon="true">
  <path
    d="M10 0.5C15.2467 0.5 19.5 4.75329 19.5 10C19.5 15.2467 15.2467 19.5 10 19.5C4.75329 19.5 0.5 15.2467 0.5 10C0.5 4.75329 4.75329 0.5 10 0.5ZM10 2.5C5.85786 2.5 2.5 5.85786 2.5 10C2.5 14.1421 5.85786 17.5 10 17.5C14.1421 17.5 17.5 14.1421 17.5 10C17.5 5.85786 14.1421 2.5 10 2.5ZM12.2852 5.48242C13.687 5.06677 15.0035 6.44414 14.4707 7.84961L13.1289 11.3877C12.8244 12.1904 12.1904 12.8244 11.3877 13.1289L7.84961 14.4707C6.39875 15.0209 4.978 13.6003 5.52832 12.1494L6.87012 8.61133C7.17463 7.80873 7.8087 7.17458 8.61133 6.87012L12.1494 5.52832L12.2852 5.48242ZM9.32129 8.74023C9.05378 8.8417 8.84176 9.05381 8.74023 9.32129L7.55566 12.4424L10.6787 11.2588C10.9461 11.1573 11.1573 10.9461 11.2588 10.6787L12.4424 7.55566L9.32129 8.74023Z"
    fill="currentColor"
  />
</svg>
