<svg width="32" height="32" viewBox="0 0 32 32" fill="none" xmlns="http://www.w3.org/2000/svg" data-fui-icon="true">
  <path
    d="M16 0.5C24.5604 0.5 31.5 7.43959 31.5 16C31.5 24.5604 24.5604 31.5 16 31.5C7.43959 31.5 0.5 24.5604 0.5 16C0.5 7.43959 7.43959 0.5 16 0.5ZM16 2C8.26801 2 2 8.26801 2 16C2 23.732 8.26801 30 16 30C23.732 30 30 23.732 30 16C30 8.26801 23.732 2 16 2ZM20.3223 9.41992C21.7328 8.88496 23.1139 10.2662 22.5791 11.6768L20.1797 18.0039C19.7991 19.0069 19.0069 19.7991 18.0039 20.1797L11.6768 22.5791C10.2661 23.1142 8.88486 21.7329 9.41992 20.3223L11.8193 13.9961C12.2 12.9928 12.9928 12.1999 13.9961 11.8193L20.3223 9.41992ZM20.8545 10.8223L14.5283 13.2217C13.9263 13.45 13.4501 13.9264 13.2217 14.5283L10.8223 20.8545C10.7458 21.056 10.9431 21.253 11.1445 21.1768L17.4717 18.7773C18.0736 18.549 18.549 18.0736 18.7773 17.4717L21.1768 11.1445C21.2528 10.9432 21.0559 10.746 20.8545 10.8223Z"
    fill="currentColor"
  />
</svg>
