<svg width="20" height="20" viewBox="0 0 20 20" fill="none" xmlns="http://www.w3.org/2000/svg" data-fui-icon="true">
  <g clip-path="url(#clip0_6096_12)">
    <path
      d="M10 0.916992C15.0163 0.91719 19.0838 4.98368 19.084 10C19.0838 15.0163 15.0163 19.0838 10 19.084C4.98368 19.0838 0.91719 15.0163 0.916992 10C0.917168 4.98367 4.98367 0.917168 10 0.916992ZM13.5361 7.49512C13.7803 6.85051 13.1495 6.21967 12.5049 6.46387L8.9668 7.80566C8.43164 8.00865 8.00865 8.43164 7.80566 8.9668L6.46387 12.5049C6.21967 13.1495 6.85051 13.7803 7.49512 13.5361L11.0332 12.1943C11.5684 11.9913 11.9913 11.5684 12.1943 11.0332L13.5361 7.49512Z"
      fill="currentColor"
    />
  </g>
  <defs>
    <clipPath id="clip0_6096_12"><path fill="currentColor" d="M0 0H20V20H0z" /></clipPath>
  </defs>
</svg>
