<svg width="24" height="24" viewBox="0 0 24 24" fill="none" xmlns="http://www.w3.org/2000/svg" data-fui-icon="true">
  <path
    d="M12 0.5C18.3513 0.5 23.5 5.64873 23.5 12C23.5 18.3513 18.3513 23.5 12 23.5C5.64873 23.5 0.5 18.3513 0.5 12C0.5 5.64873 5.64873 0.5 12 0.5ZM18.373 8.80566C19.2903 6.78694 17.2131 4.71033 15.1943 5.62793L9.8125 8.07422C9.04219 8.4244 8.42437 9.04217 8.07422 9.8125L5.62793 15.1943C4.7107 17.2129 6.78708 19.2901 8.80566 18.373L14.1885 15.9258C14.9585 15.5757 15.5756 14.9584 15.9258 14.1885L18.373 8.80566Z"
    fill="currentColor"
  />
</svg>
