<svg width="24" height="24" viewBox="0 0 24 24" fill="none" xmlns="http://www.w3.org/2000/svg" data-fui-icon="true">
  <path
    d="M12 1C18.0751 1 23 5.92487 23 12C23 18.0751 18.0751 23 12 23C5.92487 23 1 18.0751 1 12C1 5.92487 5.92487 1 12 1ZM17.917 8.59863C18.6435 7.00039 16.9996 5.35653 15.4014 6.08301L10.0186 8.5293C9.35851 8.82942 8.82942 9.35851 8.5293 10.0186L6.08301 15.4014C5.35653 16.9996 7.00039 18.6435 8.59863 17.917L13.9814 15.4707C14.6415 15.1706 15.1706 14.6415 15.4707 13.9814L17.917 8.59863Z"
    fill="currentColor"
  />
</svg>
