<svg width="24" height="24" viewBox="0 0 24 24" fill="none" xmlns="http://www.w3.org/2000/svg" data-fui-icon="true">
  <path
    d="M12 1C18.0751 1 23 5.92487 23 12C23 18.0751 18.0751 23 12 23C5.92487 23 1 18.0751 1 12C1 5.92487 5.92487 1 12 1ZM18.373 8.80566C19.2903 6.78699 17.213 4.71052 15.1943 5.62793L9.8125 8.07422C9.04212 8.42439 8.42439 9.04212 8.07422 9.8125L5.62793 15.1943C4.71052 17.213 6.78699 19.2903 8.80566 18.373L14.1885 15.9258C14.9585 15.5756 15.5756 14.9585 15.9258 14.1885L18.373 8.80566Z"
    fill="currentColor"
  />
</svg>
