<svg width="24" height="24" viewBox="0 0 24 24" fill="none" xmlns="http://www.w3.org/2000/svg" data-fui-icon="true">
  <path
    d="M12 0.5C18.3513 0.5 23.5 5.64873 23.5 12C23.5 18.3513 18.3513 23.5 12 23.5C5.64873 23.5 0.5 18.3513 0.5 12C0.5 5.64873 5.64873 0.5 12 0.5ZM17.4619 8.60156C17.9511 7.31184 16.6882 6.04888 15.3984 6.53809L10.2373 8.49609C9.43457 8.80058 8.80058 9.43457 8.49609 10.2373L6.53809 15.3984C6.04888 16.6882 7.31185 17.9511 8.60156 17.4619L13.7627 15.5039C14.5654 15.1994 15.1994 14.5654 15.5039 13.7627L17.4619 8.60156Z"
    fill="currentColor"
  />
</svg>
