<svg width="24" height="24" viewBox="0 0 24 24" fill="none" xmlns="http://www.w3.org/2000/svg" data-fui-icon="true">
  <path
    d="M12 0.5C18.3513 0.5 23.5 5.64873 23.5 12C23.5 18.3513 18.3513 23.5 12 23.5C5.64873 23.5 0.5 18.3513 0.5 12C0.5 5.64873 5.64873 0.5 12 0.5ZM17.918 8.59863C18.6442 7.00045 16.9995 5.35656 15.4014 6.08301L10.0195 8.5293C9.35928 8.82941 8.82946 9.35833 8.5293 10.0186L6.08301 15.4014C5.35667 16.9995 7.0005 18.6432 8.59863 17.917L13.9814 15.4707C14.6416 15.1706 15.1705 14.6415 15.4707 13.9814L17.918 8.59863Z"
    fill="currentColor"
  />
</svg>
