<svg width="16" height="16" viewBox="0 0 16 16" fill="none" xmlns="http://www.w3.org/2000/svg" data-fui-icon="true">
  <path
    d="M8 0.5C12.1421 0.5 15.5 3.85786 15.5 8C15.5 12.1421 12.1421 15.5 8 15.5C3.85786 15.5 0.5 12.1421 0.5 8C0.5 3.85786 3.85786 0.5 8 0.5ZM8 2.5C4.96243 2.5 2.5 4.96243 2.5 8C2.5 11.0376 4.96243 13.5 8 13.5C11.0376 13.5 13.5 11.0376 13.5 8C13.5 4.96243 11.0376 2.5 8 2.5ZM9.45312 4.31641C10.8549 3.90122 12.1707 5.27819 11.6377 6.68359L10.7549 9.01367C10.4504 9.81627 9.8163 10.4504 9.01367 10.7549L6.68359 11.6377C5.23278 12.1879 3.81219 10.7672 4.3623 9.31641L5.24609 6.9873C5.55057 6.1846 6.18461 5.55059 6.9873 5.24609L9.31641 4.3623L9.45312 4.31641ZM7.69629 7.11621C7.4289 7.21772 7.2177 7.42889 7.11621 7.69629L6.38965 9.61035L8.30371 8.88477C8.57122 8.7833 8.78324 8.57119 8.88477 8.30371L9.61035 6.38965L7.69629 7.11621Z"
    fill="currentColor"
  />
</svg>
