<svg width="24" height="24" viewBox="0 0 24 24" fill="none" xmlns="http://www.w3.org/2000/svg" data-fui-icon="true">
  <path
    d="M12 1.25C17.9371 1.25 22.75 6.06294 22.75 12C22.75 17.9371 17.9371 22.75 12 22.75C6.06294 22.75 1.25 17.9371 1.25 12C1.25 6.06294 6.06294 1.25 12 1.25ZM16.291 8.87012C16.5662 8.14465 15.8553 7.43381 15.1299 7.70898L10.5918 9.43066C10.0566 9.63365 9.63365 10.0566 9.43066 10.5918L7.70898 15.1299C7.43381 15.8553 8.14465 16.5662 8.87012 16.291L13.4082 14.5693C13.9434 14.3663 14.3663 13.9434 14.5693 13.4082L16.291 8.87012Z"
    fill="currentColor"
  />
</svg>
