<svg width="32" height="32" viewBox="0 0 32 32" fill="none" xmlns="http://www.w3.org/2000/svg" data-fui-icon="true">
  <path
    d="M16 0.5C24.5604 0.5 31.5 7.43959 31.5 16C31.5 24.5604 24.5604 31.5 16 31.5C7.43959 31.5 0.5 24.5604 0.5 16C0.5 7.43959 7.43959 0.5 16 0.5ZM16 2.5C8.54416 2.5 2.5 8.54416 2.5 16C2.5 23.4558 8.54416 29.5 16 29.5C23.4558 29.5 29.5 23.4558 29.5 16C29.5 8.54416 23.4558 2.5 16 2.5ZM20.2344 9.18652C21.8463 8.57541 23.4247 10.1537 22.8135 11.7656L20.4131 18.0918C20.0071 19.1621 19.1621 20.0071 18.0918 20.4131L11.7656 22.8135C10.1536 23.4249 8.5753 21.8464 9.18652 20.2344L11.5859 13.9072C11.9919 12.8371 12.837 11.9919 13.9072 11.5859L20.2344 9.18652ZM14.6162 13.4561C14.0814 13.659 13.6591 14.0815 13.4561 14.6162L11.0557 20.9434L17.3828 18.5439C17.9179 18.3409 18.341 17.9179 18.5439 17.3828L20.9434 11.0557L14.6162 13.4561Z"
    fill="currentColor"
  />
</svg>
