<svg width="12" height="12" viewBox="0 0 12 12" fill="none" xmlns="http://www.w3.org/2000/svg" data-fui-icon="true">
  <g clip-path="url(#clip0_5548_23)">
    <path
      d="M6 0.25C9.17564 0.25 11.75 2.82436 11.75 6C11.75 9.17564 9.17564 11.75 6 11.75C2.82436 11.75 0.25 9.17564 0.25 6C0.25 2.82436 2.82436 0.25 6 0.25ZM6 1.75C3.65279 1.75 1.75 3.65279 1.75 6C1.75 8.34721 3.65279 10.25 6 10.25C8.34721 10.25 10.25 8.34721 10.25 6C10.25 3.65279 8.34721 1.75 6 1.75ZM7.0332 3.9082C7.71903 3.69472 8.37923 4.41855 8.03711 5.10352L7.32031 6.53711C7.15098 6.87578 6.87578 7.15098 6.53711 7.32031L5.10352 8.03711C4.37312 8.40193 3.59807 7.62688 3.96289 6.89648L4.53125 5.76074C4.79733 5.22869 5.22869 4.79733 5.76074 4.53125L6.89648 3.96289L7.0332 3.9082Z"
      fill="currentColor"
    />
  </g>
  <defs>
    <clipPath id="clip0_5548_23"><path fill="currentColor" d="M0 0H12V12H0z" /></clipPath>
  </defs>
</svg>
