<svg width="20" height="20" viewBox="0 0 20 20" fill="none" xmlns="http://www.w3.org/2000/svg" data-fui-icon="true">
  <path
    d="M10 0.5C15.2467 0.5 19.5 4.75329 19.5 10C19.5 15.2467 15.2467 19.5 10 19.5C4.75329 19.5 0.5 15.2467 0.5 10C0.5 4.75329 4.75329 0.5 10 0.5ZM15.4678 7.67773C16.1709 5.82393 14.3557 4.00827 12.502 4.71094L12.4863 4.7168L8.41992 6.40918C7.49536 6.76468 6.76466 7.49535 6.40918 8.41992L4.7168 12.4863L4.71387 12.4941L4.71094 12.501C4.00793 14.3549 5.82387 16.1709 7.67773 15.4678L7.69727 15.46L7.7168 15.4512L11.6055 13.5801C12.5094 13.2244 13.2243 12.5094 13.5801 11.6055L15.4512 7.7168L15.46 7.69727L15.4678 7.67773Z"
    fill="currentColor"
  />
</svg>
