<svg width="32" height="32" viewBox="0 0 32 32" fill="none" xmlns="http://www.w3.org/2000/svg" data-fui-icon="true">
  <path
    d="M16.0439 26.5C17.2864 26.5002 18.2939 27.5075 18.2939 28.75C18.2939 29.9925 17.2864 30.9998 16.0439 31C14.8013 31 13.794 29.9926 13.7939 28.75C13.7939 27.5074 14.8013 26.5 16.0439 26.5ZM3.87598 20.4268C4.95213 19.8054 6.32888 20.1738 6.9502 21.25C7.57136 22.3261 7.20207 23.702 6.12598 24.3232C5.04986 24.9444 3.67403 24.5761 3.05273 23.5C2.4315 22.424 2.80016 21.0482 3.87598 20.4268ZM25.1367 21.251C25.758 20.175 27.1339 19.8058 28.21 20.4268C29.286 21.048 29.6551 22.4239 29.0342 23.5C28.4129 24.5762 27.0361 24.9455 25.96 24.3242C24.8842 23.7029 24.5158 22.327 25.1367 21.251ZM16.043 8.5C20.1849 8.5002 23.543 11.858 23.543 16C23.543 20.142 20.1849 23.4998 16.043 23.5C11.9009 23.5 8.54297 20.1421 8.54297 16C8.54298 11.8579 11.9009 8.5 16.043 8.5ZM25.96 7.67676C27.0361 7.05544 28.4129 7.42385 29.0342 8.5C29.6554 9.57614 29.2861 10.9519 28.21 11.5732C27.1338 12.1945 25.758 11.8261 25.1367 10.75C24.5155 9.67398 24.8841 8.29817 25.96 7.67676ZM3.05176 8.5C3.673 7.42397 5.0489 7.05477 6.125 7.67578C7.20115 8.2971 7.57054 9.67385 6.94922 10.75C6.32785 11.826 4.95109 12.1945 3.875 11.5732C2.79914 10.9519 2.43076 9.57603 3.05176 8.5ZM16.0439 1C17.2864 1.00018 18.2939 2.00753 18.2939 3.25C18.2939 4.49252 17.2864 5.49982 16.0439 5.5C14.8013 5.5 13.7939 4.49263 13.7939 3.25C13.794 2.00742 14.8013 1 16.0439 1Z"
    fill="currentColor"
  />
</svg>
