<svg width="32" height="32" viewBox="0 0 32 32" fill="none" xmlns="http://www.w3.org/2000/svg" data-fui-icon="true">
  <path
    fill-rule="evenodd"
    clip-rule="evenodd"
    d="M13.626 1.62399C15.0765 0.801657 16.8518 0.80034 18.3037 1.62008L29.7334 8.07223C31.5973 9.12488 31.5968 11.8102 29.7324 12.8623L24.169 16L24.5762 16.2304L29.7334 19.1416C31.5974 20.1941 31.5967 22.8795 29.7324 23.9316L18.3028 30.3808C16.8513 31.1999 15.077 31.1985 13.627 30.3769L2.24904 23.9287C0.391125 22.8751 0.390941 20.1981 2.24904 19.1445L7.38674 16.2304L7.79201 16L2.24904 12.8593C0.390912 11.8059 0.390976 9.12885 2.24904 8.07516L13.626 1.62399ZM18.3028 19.3115C16.8514 20.1304 15.0769 20.1291 13.627 19.3076L9.3135 16.8623L9.15334 16.9541L8.12697 17.5361L2.98928 20.4492C2.14464 20.9281 2.14466 22.1451 2.98928 22.624L14.3662 29.0722C15.3582 29.6343 16.5724 29.6353 17.5654 29.0752L28.9951 22.625C29.8425 22.1467 29.8425 20.9266 28.9951 20.4482L23.8379 17.5361L22.8076 16.955L22.6426 16.8613L18.3028 19.3115ZM17.5664 2.92575C16.5729 2.36485 15.3577 2.36593 14.3653 2.92868L2.98928 9.37985C2.14462 9.85882 2.14449 11.0759 2.98928 11.5547L14.3662 18.0019C15.3583 18.5642 16.5723 18.5652 17.5654 18.0048L28.9951 11.5556C29.8426 11.0774 29.8425 9.8573 28.9951 9.37887L17.5664 2.92575Z"
    fill="currentColor"
  />
</svg>
