<svg width="13" height="12" viewBox="0 0 13 12" fill="none" xmlns="http://www.w3.org/2000/svg" data-fui-icon="true">
  <path
    d="M11.5154 7.1572C12.1647 7.54524 12.1648 8.48599 11.5154 8.87396L6.51354 11.8583C6.19813 12.0463 5.80459 12.0462 5.48915 11.8583L0.487295 8.87396C-0.162571 8.48608 -0.162423 7.54522 0.487295 7.1572L0.962871 6.87303L4.72061 9.11615C5.5094 9.58643 6.49333 9.58654 7.28208 9.11615L11.0388 6.87303L11.5154 7.1572ZM5.61024 0.079222C5.85941 -0.0265763 6.14221 -0.0262891 6.39147 0.079222L6.51354 0.141721L11.5154 3.12506C12.1652 3.51299 12.1652 4.45482 11.5154 4.8428L6.51354 7.82711C6.19814 8.01514 5.80458 8.01506 5.48915 7.82711L0.487295 4.8428C-0.162278 4.45471 -0.162577 3.51289 0.487295 3.12506L5.48915 0.141721L5.61024 0.079222Z"
    fill="currentColor"
  />
</svg>
