<svg width="13" height="12" viewBox="0 0 13 12" fill="none" xmlns="http://www.w3.org/2000/svg" data-fui-icon="true">
  <path
    fill-rule="evenodd"
    clip-rule="evenodd"
    d="M5.61023 0.0792506C5.85941 -0.0265541 6.14219 -0.0262796 6.39146 0.0792506L6.51353 0.141749L11.5154 3.12509C12.1652 3.51301 12.1651 4.45484 11.5154 4.84283L9.57597 5.99905L11.5154 7.15626C12.1649 7.54424 12.1649 8.48502 11.5154 8.87302L6.51353 11.8573C6.19805 12.0455 5.80463 12.0454 5.48914 11.8573L0.487284 8.87302C-0.162064 8.48492 -0.162321 7.54414 0.487284 7.15626L2.42572 5.99905L0.487284 4.84283C-0.162323 4.45477 -0.162534 3.51296 0.487284 3.12509L5.48914 0.141749L5.61023 0.0792506ZM3.64054 7.02149L1.97554 8.01366L6.00084 10.416L10.0262 8.01464L8.36115 7.02149L8.11213 6.87306L6.51353 7.82714C6.19814 8.01513 5.80455 8.01508 5.48914 7.82714L3.88956 6.87208L3.64054 7.02149ZM1.97456 3.98347L6.00084 6.38479L10.0271 3.98347L6.00084 1.58215L1.97456 3.98347Z"
    fill="currentColor"
  />
</svg>
