<svg width="20" height="20" viewBox="0 0 20 20" fill="none" xmlns="http://www.w3.org/2000/svg" data-fui-icon="true">
  <path
    fill-rule="evenodd"
    clip-rule="evenodd"
    d="M8.6241 0.406825C9.47421 -0.0837938 10.5217 -0.0832561 11.3721 0.406825L19.1055 4.86386C20.2938 5.54877 20.2939 7.26412 19.1055 7.94882L15.5167 10.0152L19.1055 12.0846C20.2937 12.7694 20.2936 14.4837 19.1055 15.1685L11.3721 19.6246C10.522 20.1143 9.47493 20.1138 8.62507 19.6236L0.901442 15.1685C-0.285667 14.4837 -0.286323 12.7698 0.900465 12.0846L4.48543 10.0152L0.901442 7.94784C-0.285458 7.26293 -0.286155 5.55009 0.900465 4.86483L8.6241 0.406825ZM11.3721 12.4039C10.5221 12.8936 9.47494 12.894 8.62507 12.4039L5.9864 10.8814L5.88093 10.943L5.23836 11.3131L1.65047 13.3844C1.46427 13.4923 1.46415 13.761 1.65047 13.8687L9.3741 18.3248C9.76037 18.5476 10.2367 18.5473 10.6231 18.3248L18.3565 13.8687C18.5432 13.761 18.5432 13.4921 18.3565 13.3844L14.7647 11.3131L14.1221 10.943L14.0147 10.8805L11.3721 12.4039ZM10.6231 1.70565C10.2366 1.483 9.76045 1.48366 9.3741 1.70663L1.65047 6.16366C1.46394 6.27144 1.46397 6.54121 1.65047 6.64901L9.3741 11.1041C9.76042 11.327 10.2367 11.3267 10.6231 11.1041L18.3565 6.64901C18.5434 6.54131 18.5434 6.27141 18.3565 6.16366L10.6231 1.70565Z"
    fill="currentColor"
  />
</svg>
