<svg width="20" height="20" viewBox="0 0 20 20" fill="none" xmlns="http://www.w3.org/2000/svg" data-fui-icon="true">
  <path
    d="M8.62402 0.406586C9.47414 -0.084033 10.5217 -0.0834953 11.3721 0.406586L19.1055 4.86362C20.2937 5.54853 20.2938 7.26388 19.1055 7.94858L15.5166 10.015L19.1055 12.0843C20.2936 12.7692 20.2936 14.4835 19.1055 15.1683L11.3721 19.6244C10.5219 20.1141 9.47486 20.1136 8.625 19.6234L0.901367 15.1683C-0.285741 14.4834 -0.286397 12.7696 0.900391 12.0843L4.48535 10.015L0.901367 7.9476C-0.285533 7.26269 -0.28623 5.54985 0.900391 4.86459L8.62402 0.406586ZM11.3721 12.4037C10.522 12.8934 9.47486 12.8937 8.625 12.4037L5.98633 10.8812L5.88086 10.9427L5.23828 11.3128L1.65039 13.3841C1.4642 13.492 1.46407 13.7607 1.65039 13.8685L9.37402 18.3246C9.76029 18.5474 10.2366 18.5471 10.623 18.3246L18.3564 13.8685C18.5431 13.7608 18.5431 13.4919 18.3564 13.3841L14.7646 11.3128L14.1221 10.9427L14.0146 10.8802L11.3721 12.4037ZM10.623 1.70541C10.2365 1.48276 9.76038 1.48342 9.37402 1.70639L1.65039 6.16342C1.46386 6.2712 1.4639 6.54098 1.65039 6.64877L9.37402 11.1039C9.76035 11.3267 10.2366 11.3265 10.623 11.1039L18.3564 6.64877C18.5434 6.54107 18.5433 6.27117 18.3564 6.16342L10.623 1.70541Z"
    fill="currentColor"
  />
</svg>
