<svg width="16" height="16" viewBox="0 0 16 16" fill="none" xmlns="http://www.w3.org/2000/svg" data-fui-icon="true">
  <path
    d="M15.4684 9.89443C16.175 10.3228 16.1746 11.3484 15.4674 11.7762L8.90312 15.7478C8.34618 16.0846 7.64747 16.0838 7.09066 15.7468L0.530261 11.7762C-0.176373 11.3483 -0.176907 10.3228 0.529285 9.89443L2.20698 8.87785L6.31529 11.3651C7.34937 11.991 8.64613 11.9915 9.68044 11.3661L13.7907 8.87785L15.4684 9.89443ZM7.09163 0.253046C7.64853 -0.0841524 8.34705 -0.0838328 8.90409 0.253046L15.4694 4.22756C16.1764 4.65579 16.1757 5.68246 15.4684 6.11033L8.90409 10.0809C8.3471 10.4179 7.64854 10.418 7.09163 10.0809L0.531238 6.10936C-0.17539 5.6813 -0.176342 4.65576 0.530261 4.22756L7.09163 0.253046Z"
    fill="currentColor"
  />
</svg>
