<svg width="16" height="16" viewBox="0 0 16 16" fill="none" xmlns="http://www.w3.org/2000/svg" data-fui-icon="true">
  <path
    fill-rule="evenodd"
    clip-rule="evenodd"
    d="M7.09201 0.252765C7.64893 -0.0843581 8.3475 -0.084152 8.90451 0.252765L15.4699 4.22737C16.1769 4.65558 16.1761 5.68224 15.469 6.11019L12.343 8.00081L15.469 9.89437C16.1757 10.3227 16.1752 11.3484 15.468 11.7762L8.90354 15.7479C8.34653 16.0848 7.64795 16.084 7.09104 15.7469L0.530491 11.7762C-0.176377 11.3483 -0.176957 10.3227 0.529514 9.89437L3.65451 7.99984L0.531468 6.10921C-0.175312 5.68117 -0.176246 4.65557 0.530491 4.22737L7.09201 0.252765ZM8.90451 10.0809C8.34749 10.4179 7.64896 10.418 7.09201 10.0809L5.10276 8.87679L4.59983 9.18245L1.87131 10.8338L7.86838 14.4637C7.94794 14.5119 8.0476 14.5118 8.12717 14.4637L14.1262 10.8338L11.3977 9.18245L10.8938 8.87679L8.90451 10.0809ZM8.12815 1.53597C8.04874 1.48802 7.94879 1.48809 7.86936 1.53597L1.87229 5.1678L7.86936 8.79769C7.9489 8.84577 8.04861 8.8458 8.12815 8.79769L14.1262 5.1678L8.12815 1.53597Z"
    fill="currentColor"
  />
</svg>
