<svg width="24" height="24" viewBox="0 0 24 24" fill="none" xmlns="http://www.w3.org/2000/svg" data-fui-icon="true">
  <path
    d="M22.8545 14.4501C24.383 15.3105 24.3822 17.5118 22.8535 18.372L13.5908 23.582C12.5993 24.1395 11.3877 24.139 10.3975 23.579L1.18848 18.3691C-0.33405 17.5077 -0.333716 15.3148 1.18848 14.4531L3.98047 12.872L9.65723 16.0829C11.1047 16.9018 12.8757 16.9041 14.3252 16.0888L20.0469 12.8701L22.8545 14.4501ZM10.3965 0.442322C11.387 -0.11804 12.599 -0.119557 13.5908 0.438416L22.8545 5.65033C24.3826 6.51094 24.3821 8.71216 22.8535 9.5722L13.5908 14.7822C12.5993 15.3399 11.3877 15.339 10.3975 14.7792L1.18848 9.56927C-0.334295 8.70783 -0.334216 6.51485 1.18848 5.65326L10.3965 0.442322Z"
    fill="currentColor"
  />
</svg>
