<svg width="20" height="20" viewBox="0 0 20 20" fill="none" xmlns="http://www.w3.org/2000/svg" data-fui-icon="true">
  <path
    d="M19.1045 12.0845C20.2924 12.7694 20.2925 14.4837 19.1045 15.1685L11.3711 19.6245C10.5211 20.1141 9.47381 20.1136 8.62402 19.6235L0.900391 15.1685C-0.286565 14.4836 -0.287216 12.7697 0.899414 12.0845L2.9834 10.8813L7.87402 13.7026C9.18746 14.4602 10.8053 14.4604 12.1191 13.7036L17.0176 10.8813L19.1045 12.0845ZM8.62402 0.406738C9.47415 -0.0837347 10.5217 -0.0834085 11.3721 0.406738L19.1055 4.86377C20.2932 5.54877 20.2934 7.26398 19.1055 7.94873L11.3721 12.4038C10.5221 12.8935 9.47482 12.8937 8.625 12.4038L0.901367 7.94775C-0.285779 7.26292 -0.286371 5.55002 0.900391 4.86475L8.62402 0.406738Z"
    fill="currentColor"
  />
</svg>
