<svg width="32" height="32" viewBox="0 0 32 32" fill="none" xmlns="http://www.w3.org/2000/svg" data-fui-icon="true">
  <path
    fill-rule="evenodd"
    clip-rule="evenodd"
    d="M16.0439 26.5C17.2864 26.5002 18.2939 27.5075 18.2939 28.75C18.2938 29.9925 17.2863 30.9998 16.0439 31C14.8013 31 13.7939 29.9926 13.7939 28.75C13.7939 27.5074 14.8012 26.5 16.0439 26.5ZM3.87591 20.4268C4.95206 19.8054 6.32881 20.1738 6.95013 21.25C7.57129 22.3261 7.202 23.702 6.12591 24.3232C5.04979 24.9444 3.67396 24.5761 3.05267 23.5C2.43143 22.424 2.80009 21.0482 3.87591 20.4268ZM25.1367 21.251C25.7579 20.175 27.1338 19.8058 28.2099 20.4268C29.2859 21.048 29.6551 22.4239 29.0341 23.5C28.4128 24.5762 27.036 24.9455 25.9599 24.3242C24.8841 23.7029 24.5157 22.327 25.1367 21.251ZM16.4286 8.50977C20.3913 8.71072 23.5429 11.9874 23.5429 16L23.5331 16.3857C23.3323 20.3484 20.0555 23.4998 16.0429 23.5L15.6572 23.4902C11.8221 23.296 8.74699 20.2208 8.55267 16.3857L8.5429 16C8.54293 11.8579 11.9008 8.5 16.0429 8.5L16.4286 8.50977ZM16.0429 10C12.7292 10 10.0429 12.6863 10.0429 16C10.0429 19.3137 12.7292 22 16.0429 22C19.3564 21.9998 22.0429 19.3135 22.0429 16C22.0429 12.6865 19.3564 10.0002 16.0429 10ZM25.9599 7.67676C27.036 7.05544 28.4128 7.42385 29.0341 8.5C29.6554 9.57614 29.286 10.9519 28.2099 11.5732C27.1338 12.1945 25.7579 11.8261 25.1367 10.75C24.5155 9.67398 24.8841 8.29817 25.9599 7.67676ZM3.05169 8.5C3.67293 7.42397 5.04884 7.05477 6.12493 7.67578C7.20108 8.2971 7.57047 9.67385 6.94915 10.75C6.32778 11.826 4.95102 12.1945 3.87493 11.5732C2.79907 10.9519 2.43069 9.57603 3.05169 8.5ZM16.0439 1C17.2863 1.00018 18.2938 2.00753 18.2939 3.25C18.2939 4.49252 17.2864 5.49982 16.0439 5.5C14.8012 5.5 13.7939 4.49263 13.7939 3.25C13.7939 2.00742 14.8013 1 16.0439 1Z"
    fill="currentColor"
  />
</svg>
