<svg width="32" height="32" viewBox="0 0 32 32" fill="none" xmlns="http://www.w3.org/2000/svg" data-fui-icon="true">
  <path
    d="M29.7334 19.1415C31.5973 20.1941 31.5966 22.8794 29.7324 23.9316L18.3027 30.3808C16.8513 31.1998 15.0769 31.1985 13.627 30.3769L2.24902 23.9286C0.391142 22.8751 0.390969 20.1981 2.24902 19.1445L6.27148 16.8622L12.8867 20.6113C14.7947 21.6926 17.1301 21.6949 19.04 20.6171L25.6943 16.8613L29.7334 19.1415ZM13.626 1.62396C15.0765 0.801634 16.8517 0.800322 18.3037 1.62006L29.7334 8.0722C31.5973 9.12483 31.5968 11.8102 29.7324 12.8622L18.3027 19.3115C16.8513 20.1304 15.0769 20.1291 13.627 19.3076L2.24902 12.8593C0.390923 11.8059 0.391013 9.12884 2.24902 8.07513L13.626 1.62396Z"
    fill="currentColor"
  />
</svg>
