<svg width="13" height="12" viewBox="0 0 13 12" fill="none" xmlns="http://www.w3.org/2000/svg" data-fui-icon="true">
  <path
    d="M11.5153 7.1572C12.1646 7.54524 12.1647 8.48597 11.5153 8.87395L6.51351 11.8582C6.1981 12.0463 5.80456 12.0462 5.48912 11.8582L0.487292 8.87395C-0.16257 8.48606 -0.162422 7.54521 0.487292 7.1572L0.962866 6.87302L4.72058 9.11613C5.50937 9.58641 6.4933 9.58652 7.28204 9.11613L11.0388 6.87302L11.5153 7.1572ZM5.61021 0.0792521C5.85938 -0.0265457 6.14218 -0.0262584 6.39144 0.0792521L6.51351 0.141751L11.5153 3.12507C12.1652 3.513 12.1651 4.45482 11.5153 4.8428L6.51351 7.8271C6.19811 8.01513 5.80455 8.01505 5.48912 7.8271L0.487292 4.8428C-0.162277 4.45471 -0.162577 3.51291 0.487292 3.12507L5.48912 0.141751L5.61021 0.0792521Z"
    fill="currentColor"
  />
</svg>
