<svg width="20" height="20" viewBox="0 0 20 20" fill="none" xmlns="http://www.w3.org/2000/svg" data-fui-icon="true">
  <path
    d="M19.1045 12.0846C20.2924 12.7695 20.2925 14.4838 19.1045 15.1685L11.3711 19.6246C10.5211 20.1142 9.47381 20.1137 8.62402 19.6236L0.900391 15.1685C-0.286565 14.4837 -0.287216 12.7698 0.899414 12.0846L2.9834 10.8814L7.87402 13.7027C9.18746 14.4603 10.8053 14.4605 12.1191 13.7037L17.0176 10.8814L19.1045 12.0846ZM8.62402 0.40683C9.47415 -0.0836432 10.5217 -0.083317 11.3721 0.40683L19.1055 4.86386C20.2932 5.54886 20.2934 7.26407 19.1055 7.94882L11.3721 12.4039C10.5221 12.8936 9.47482 12.8938 8.625 12.4039L0.901367 7.94785C-0.285779 7.26301 -0.286371 5.55011 0.900391 4.86484L8.62402 0.40683Z"
    fill="currentColor"
  />
</svg>
