<svg width="20" height="20" viewBox="0 0 20 20" fill="none" xmlns="http://www.w3.org/2000/svg" data-fui-icon="true">
  <path
    fill-rule="evenodd"
    clip-rule="evenodd"
    d="M19.1054 12.0845C20.2934 12.7695 20.2934 14.4837 19.1054 15.1685L11.372 19.6246C10.522 20.1141 9.47471 20.1137 8.62494 19.6236L0.901305 15.1685C-0.285637 14.4836 -0.286261 12.7698 0.900328 12.0845L2.98431 10.8814L7.87494 13.7027C9.18837 14.4603 10.8062 14.4605 12.1201 13.7037L17.0185 10.8814L19.1054 12.0845ZM8.62494 0.406795C9.47507 -0.0836781 10.5226 -0.0833519 11.373 0.406795L19.1064 4.86383C20.2941 5.54882 20.2943 7.26404 19.1064 7.94879L11.373 12.4039C10.523 12.8936 9.47573 12.8937 8.62591 12.4039L0.902281 7.94781C-0.284865 7.26298 -0.285457 5.55008 0.901305 4.8648L8.62494 0.406795Z"
    fill="currentColor"
  />
</svg>
