<svg width="13" height="12" viewBox="0 0 13 12" fill="none" xmlns="http://www.w3.org/2000/svg" data-fui-icon="true">
  <path
    fill-rule="evenodd"
    clip-rule="evenodd"
    d="M5.61027 0.0792512C5.85945 -0.0265543 6.14224 -0.0262798 6.39151 0.0792512L6.51358 0.14175L11.5155 3.12511C12.1653 3.51304 12.1652 4.45488 11.5155 4.84286L9.57604 5.9991L11.5155 7.15631C12.165 7.5443 12.165 8.48509 11.5155 8.87308L6.51358 11.8574C6.1981 12.0456 5.80468 12.0455 5.48918 11.8574L0.487288 8.87308C-0.162065 8.48498 -0.162322 7.5442 0.487288 7.15631L2.42574 5.9991L0.487288 4.84286C-0.162324 4.45481 -0.162535 3.51299 0.487288 3.12511L5.48918 0.14175L5.61027 0.0792512ZM3.64057 7.02155L1.97555 8.01372L6.00089 10.416L10.0262 8.0147L8.36121 7.02155L8.11219 6.87311L6.51358 7.8272C6.19819 8.01519 5.80459 8.01514 5.48918 7.8272L3.88959 6.87213L3.64057 7.02155ZM1.97457 3.9835L6.00089 6.38484L10.0272 3.9835L6.00089 1.58216L1.97457 3.9835Z"
    fill="currentColor"
  />
</svg>
