<svg width="24" height="24" viewBox="0 0 24 24" fill="none" xmlns="http://www.w3.org/2000/svg" data-fui-icon="true">
  <path
    d="M22.8545 14.4501C24.383 15.3105 24.3822 17.5118 22.8535 18.3719L13.5908 23.5819C12.5993 24.1395 11.3877 24.1389 10.3975 23.579L1.18848 18.369C-0.33405 17.5076 -0.333716 15.3148 1.18848 14.453L3.98047 12.8719L9.65723 16.0829C11.1047 16.9017 12.8757 16.904 14.3252 16.0887L20.0469 12.87L22.8545 14.4501ZM10.3965 0.442261C11.387 -0.118101 12.599 -0.119618 13.5908 0.438354L22.8545 5.65027C24.3826 6.51088 24.3821 8.7121 22.8535 9.57214L13.5908 14.7821C12.5993 15.3398 11.3877 15.339 10.3975 14.7792L1.18848 9.56921C-0.334295 8.70777 -0.334216 6.51479 1.18848 5.6532L10.3965 0.442261Z"
    fill="currentColor"
  />
</svg>
