<svg width="24" height="24" viewBox="0 0 24 24" fill="none" xmlns="http://www.w3.org/2000/svg" data-fui-icon="true">
  <path
    d="M10 7.49951C10 9.72886 8.37869 11.5785 6.25098 11.936V23.2495C6.25098 23.6636 5.9141 23.9994 5.5 23.9995C5.08601 23.9992 4.75 23.6636 4.75 23.2495V11.936C2.62182 11.5789 1 9.72919 1 7.49951C1 5.26984 2.62182 3.42013 4.75 3.06299V0.750488C4.75034 0.336729 5.08622 0.000751961 5.5 0.000488281C5.91389 0.000620376 6.25063 0.336648 6.25098 0.750488V3.06299C8.37869 3.42052 10 5.27017 10 7.49951ZM8.5 7.49951C8.5 5.84266 7.15685 4.49951 5.5 4.49951C3.84315 4.49951 2.5 5.84266 2.5 7.49951C2.5 9.15637 3.84315 10.4995 5.5 10.4995C7.15685 10.4995 8.5 9.15637 8.5 7.49951ZM23 16.5005C23 18.7302 21.3782 20.5799 19.25 20.937V23.2495C19.2497 23.6634 18.9139 23.9994 18.5 23.9995C18.0862 23.9992 17.7503 23.6633 17.75 23.2495V20.937C15.6218 20.5799 14 18.7302 14 16.5005C14 14.2708 15.6218 12.4211 17.75 12.064V0.750488C17.75 0.336438 18.086 0.000752181 18.5 0.000488281C18.9141 0.000620194 19.25 0.336356 19.25 0.750488V12.064C21.3782 12.4211 23 14.2708 23 16.5005ZM21.5 16.5005C21.5 14.8436 20.1569 13.5005 18.5 13.5005C16.8431 13.5005 15.5 14.8436 15.5 16.5005C15.5 18.1573 16.8431 19.5005 18.5 19.5005C20.1569 19.5005 21.5 18.1573 21.5 16.5005Z"
    fill="currentColor"
  />
</svg>
