<svg width="32" height="32" viewBox="0 0 32 32" fill="none" xmlns="http://www.w3.org/2000/svg" data-fui-icon="true">
  <path
    d="M11.0361 19.5C13.767 19.5 16.0099 21.5851 16.2617 24.25H30.2549C30.669 24.25 31.0048 24.5859 31.0049 25C31.0047 25.4141 30.669 25.75 30.2549 25.75H16.1904C15.7234 28.1711 13.5936 30 11.0361 30C8.47871 30 6.3489 28.1711 5.88184 25.75H1.75C1.33614 25.7497 1.00017 25.4139 1 25C1.00013 24.5861 1.33612 24.2503 1.75 24.25H5.81055C6.06237 21.5851 8.30531 19.5 11.0361 19.5ZM20.9688 2C23.6996 2 25.9425 4.08507 26.1943 6.75H30.2549C30.6688 6.75029 31.0048 7.08608 31.0049 7.5C31.0047 7.91388 30.6687 8.24971 30.2549 8.25H26.123C25.656 10.6711 23.5262 12.5 20.9688 12.5C18.4113 12.5 16.2815 10.6711 15.8145 8.25H1.75C1.33589 8.25 1.00017 7.91407 1 7.5C1.00013 7.0859 1.33587 6.75 1.75 6.75H15.7432C15.995 4.08507 18.2379 2 20.9688 2Z"
    fill="currentColor"
  />
</svg>
