<svg width="24" height="24" viewBox="0 0 24 24" fill="none" xmlns="http://www.w3.org/2000/svg" data-fui-icon="true">
  <path
    d="M7.49902 14C9.7287 14 11.5784 15.6218 11.9355 17.75H23.249C23.6632 17.75 23.9989 18.0859 23.999 18.5C23.9988 18.914 23.6631 19.25 23.249 19.25H11.9355C11.5784 21.3782 9.7287 23 7.49902 23C5.26935 23 3.41964 21.3782 3.0625 19.25H0.75C0.336241 19.2497 0.00026368 18.9138 0 18.5C0.000132095 18.0861 0.33616 17.7503 0.75 17.75H3.0625C3.41964 15.6218 5.26935 14 7.49902 14ZM7.49902 15.5C5.84217 15.5 4.49902 16.8431 4.49902 18.5C4.49902 20.1569 5.84217 21.5 7.49902 21.5C9.15588 21.5 10.499 20.1569 10.499 18.5C10.499 16.8431 9.15588 15.5 7.49902 15.5ZM16.5 1C18.7293 1 20.579 2.62131 20.9365 4.74902H23.249C23.6629 4.74937 23.9989 5.08611 23.999 5.5C23.9988 5.91378 23.6628 6.24966 23.249 6.25H20.9365C20.5794 8.37818 18.7297 10 16.5 10C14.2703 10 12.4206 8.37818 12.0635 6.25H0.75C0.335949 6.25 0.000263899 5.91399 0 5.5C0.000131912 5.0859 0.335868 4.74902 0.75 4.74902H12.0635C12.421 2.62131 14.2707 1 16.5 1ZM16.5 2.5C14.8431 2.5 13.5 3.84315 13.5 5.5C13.5 7.15685 14.8431 8.5 16.5 8.5C18.1569 8.5 19.5 7.15685 19.5 5.5C19.5 3.84315 18.1569 2.5 16.5 2.5Z"
    fill="currentColor"
  />
</svg>
