<svg width="16" height="16" viewBox="0 0 16 16" fill="none" xmlns="http://www.w3.org/2000/svg" data-fui-icon="true">
  <path
    fill-rule="evenodd"
    clip-rule="evenodd"
    d="M5.75 8.75C7.19595 8.75 8.42094 9.69447 8.84277 11H15C15.5523 11 16 11.4477 16 12C16 12.5523 15.5523 13 15 13H8.84277C8.42094 14.3055 7.19595 15.25 5.75 15.25C4.30411 15.2499 3.07903 14.3055 2.65723 13H1C0.447844 12.9999 2.57023e-05 12.5522 0 12C6.58997e-05 11.4479 0.44787 11.0001 1 11H2.65723C3.07903 9.6945 4.30411 8.75008 5.75 8.75ZM5.75 10.75C5.05973 10.7501 4.5 11.3097 4.5 12C4.5 12.6903 5.05973 13.2499 5.75 13.25C6.44036 13.25 7 12.6904 7 12C7 11.3096 6.44036 10.75 5.75 10.75ZM10.25 0.75C11.696 0.75 12.921 1.69444 13.3428 3H15C15.5521 3.00013 15.9999 3.44789 16 4C15.9999 4.55209 15.5521 4.99987 15 5H13.3428C12.921 6.30556 11.696 7.25 10.25 7.25C8.80403 7.25 7.57905 6.30556 7.15723 5H1C0.447797 5 0.000131952 4.55217 0 4C0.000110924 3.44781 0.447784 3 1 3H7.15723C7.57905 1.69444 8.80403 0.75 10.25 0.75ZM10.25 2.75C9.55964 2.75 9 3.30964 9 4C9 4.69036 9.55964 5.25 10.25 5.25C10.9404 5.25 11.5 4.69036 11.5 4C11.5 3.30964 10.9404 2.75 10.25 2.75Z"
    fill="currentColor"
  />
</svg>
