<svg width="24" height="24" viewBox="0 0 24 24" fill="none" xmlns="http://www.w3.org/2000/svg" data-fui-icon="true">
  <path
    d="M10 7.49951C10 9.72919 8.37818 11.5789 6.25 11.936V23.2495C6.25 23.6636 5.9141 23.9994 5.5 23.9995C5.08601 23.9992 4.75 23.6636 4.75 23.2495V11.936C2.62182 11.5789 1 9.72919 1 7.49951C1 5.26984 2.62182 3.42013 4.75 3.06299V0.750488C4.75034 0.336729 5.08622 0.000751961 5.5 0.000488281C5.91389 0.000620376 6.24966 0.336648 6.25 0.750488V3.06299C8.37818 3.42013 10 5.26984 10 7.49951ZM23 16.5005C23 18.7298 21.3787 20.5795 19.251 20.937V23.2495C19.2506 23.6634 18.9139 23.9994 18.5 23.9995C18.0862 23.9992 17.7503 23.6633 17.75 23.2495V20.937C15.6218 20.5799 14 18.7302 14 16.5005C14 14.2708 15.6218 12.4211 17.75 12.064V0.750488C17.75 0.336438 18.086 0.000752181 18.5 0.000488281C18.9141 0.000620194 19.251 0.336356 19.251 0.750488V12.064C21.3787 12.4215 23 14.2711 23 16.5005Z"
    fill="currentColor"
  />
</svg>
