<svg width="20" height="20" viewBox="0 0 20 20" fill="none" xmlns="http://www.w3.org/2000/svg" data-fui-icon="true">
  <path
    d="M6.75 11.5C8.56421 11.5 10.0773 12.7883 10.4248 14.5H19.249C19.6632 14.5 19.9989 14.8359 19.999 15.25C19.9989 15.6641 19.6632 16 19.249 16H10.4248C10.0773 17.7117 8.56421 19 6.75 19C4.93579 19 3.42266 17.7117 3.0752 16H0.75C0.336058 15.9998 0.000131845 15.664 0 15.25C0.000132031 14.836 0.336058 14.5002 0.75 14.5H3.0752C3.42266 12.7883 4.93579 11.5 6.75 11.5ZM13.25 1C15.0642 1 16.5773 2.28834 16.9248 4H19.249C19.663 4.00022 19.9989 4.33604 19.999 4.75C19.9989 5.16396 19.663 5.49978 19.249 5.5H16.9248C16.5773 7.21166 15.0642 8.5 13.25 8.5C11.4358 8.5 9.92266 7.21166 9.5752 5.5H0.75C0.335868 5.5 0.000131969 5.1641 0 4.75C0.000131912 4.3359 0.335868 4 0.75 4H9.5752C9.92266 2.28834 11.4358 1 13.25 1Z"
    fill="currentColor"
  />
</svg>
