<svg width="32" height="32" viewBox="0 0 32 32" fill="none" xmlns="http://www.w3.org/2000/svg" data-fui-icon="true">
  <path
    d="M11.0361 18.5C13.7321 18.5 15.974 20.44 16.4443 23H30C30.5522 23 30.9999 23.4478 31 24C30.9998 24.5521 30.5522 25 30 25H16.4443C15.974 27.56 13.7321 29.5 11.0361 29.5C8.34013 29.5 6.09826 27.56 5.62793 25H2C1.44784 25 1.0002 24.5521 1 24C1.00013 23.4478 1.4478 23 2 23H5.62793C6.09826 20.44 8.34013 18.5 11.0361 18.5ZM11.0361 20.5C9.10314 20.5 7.53613 22.067 7.53613 24C7.53613 25.933 9.10314 27.5 11.0361 27.5C12.9691 27.5 14.5361 25.933 14.5361 24C14.5361 22.067 12.9691 20.5 11.0361 20.5ZM20.9688 2.5C23.6647 2.50007 25.9066 4.44003 26.377 7H30C30.5521 7.00008 30.9998 7.44797 31 8C30.9998 8.55205 30.5521 8.99992 30 9H26.377C25.9066 11.56 23.6647 13.4999 20.9688 13.5C18.2728 13.5 16.0309 11.56 15.5605 9H2C1.44787 8.99998 1.00022 8.55209 1 8C1.00024 7.44793 1.44788 7.00002 2 7H15.5605C16.0309 4.43999 18.2728 2.5 20.9688 2.5ZM20.9688 4.5C19.0358 4.5 17.4688 6.067 17.4688 8C17.4688 9.933 19.0358 11.5 20.9688 11.5C22.9017 11.4999 24.4688 9.93295 24.4688 8C24.4688 6.06705 22.9017 4.50008 20.9688 4.5Z"
    fill="currentColor"
  />
</svg>
