<svg width="16" height="17" viewBox="0 0 16 17" fill="none" xmlns="http://www.w3.org/2000/svg" data-fui-icon="true">
  <path
    d="M6.75195 5.37891C6.75195 6.89084 5.67847 8.15195 4.25195 8.44141L4.25195 15.2529C4.25195 15.6671 3.91607 16.0028 3.50195 16.0029C3.08785 16.0028 2.75195 15.6671 2.75195 15.2529L2.75195 8.37891C1.45218 8.00034 0.501953 6.8009 0.501953 5.37891C0.501953 3.95692 1.45218 2.75747 2.75195 2.37891V0.75C2.75233 0.336184 3.08808 0.000131972 3.50195 0C3.91584 0.000111085 4.25158 0.336171 4.25195 0.75V2.31641C5.67847 2.60586 6.75195 3.86697 6.75195 5.37891ZM5.25195 5.37891C5.25195 4.48144 4.52442 3.75391 3.62695 3.75391C2.7296 3.75404 2.00195 4.48152 2.00195 5.37891C2.00195 6.27629 2.7296 7.00377 3.62695 7.00391C4.52442 7.00391 5.25195 6.27637 5.25195 5.37891ZM15.502 10.624C15.502 12.136 14.4285 13.3971 13.002 13.6865V15.2529C13.0016 15.6668 12.6658 16.0028 12.252 16.0029C11.8381 16.0028 11.5023 15.6667 11.502 15.2529V13.624C10.2022 13.2455 9.25195 12.046 9.25195 10.624C9.25195 9.20203 10.2022 8.00259 11.502 7.62402V0.75C11.502 0.335868 11.8379 0.000131954 12.252 0C12.6661 0.000110919 13.002 0.335855 13.002 0.75V7.56152C14.4285 7.85098 15.502 9.11209 15.502 10.624ZM14.002 10.624C14.002 9.72656 13.2744 8.99902 12.377 8.99902C11.4796 8.99916 10.752 9.72664 10.752 10.624C10.752 11.5214 11.4796 12.2489 12.377 12.249C13.2744 12.249 14.002 11.5215 14.002 10.624Z"
    fill="currentColor"
  />
</svg>
