<svg width="16" height="17" viewBox="0 0 16 17" fill="none" xmlns="http://www.w3.org/2000/svg" data-fui-icon="true">
  <path
    d="M6.75195 5.37891C6.75195 6.89076 5.67835 8.15186 4.25195 8.44141L4.25195 15.2529C4.25195 15.6671 3.91607 16.0028 3.50195 16.0029C3.08785 16.0028 2.75195 15.6671 2.75195 15.2529L2.75195 8.37891C1.45211 8.00035 0.501953 6.8009 0.501953 5.37891C0.501953 3.95691 1.45211 2.75747 2.75195 2.37891V0.75C2.75233 0.336184 3.08808 0.000131972 3.50195 0C3.91584 0.000111085 4.25158 0.336171 4.25195 0.75V2.31641C5.67835 2.60595 6.75195 3.86706 6.75195 5.37891ZM15.502 10.624C15.502 12.1359 14.4284 13.397 13.002 13.6865V15.2529C13.0016 15.6668 12.6658 16.0028 12.252 16.0029C11.8381 16.0028 11.5023 15.6667 11.502 15.2529V13.624C10.2021 13.2455 9.25195 12.046 9.25195 10.624C9.25195 9.20203 10.2021 8.00258 11.502 7.62402V0.75C11.502 0.335868 11.8379 0.000131954 12.252 0C12.6661 0.000110919 13.002 0.335855 13.002 0.75V7.56152C14.4284 7.85107 15.502 9.11217 15.502 10.624Z"
    fill="currentColor"
  />
</svg>
