<svg width="20" height="20" viewBox="0 0 20 20" fill="none" xmlns="http://www.w3.org/2000/svg" data-fui-icon="true">
  <path
    d="M8.5 6.75049C8.5 8.56469 7.21166 10.0778 5.5 10.4253L5.5 19.2495C5.5 19.6636 5.1641 19.9994 4.75 19.9995C4.3359 19.9994 4 19.6636 4 19.2495L4 10.4253C2.28834 10.0778 1 8.56469 1 6.75049C1 4.93628 2.28834 3.42315 4 3.07568V0.750488C4.00022 0.336546 4.33604 0.000620126 4.75 0.000488281C5.16396 0.000620312 5.49978 0.336546 5.5 0.750488V3.07568C7.21166 3.42315 8.5 4.93628 8.5 6.75049ZM19 13.2505C19 15.0647 17.7117 16.5778 16 16.9253V19.2495C15.9998 19.6635 15.664 19.9994 15.25 19.9995C14.836 19.9994 14.5002 19.6635 14.5 19.2495V16.9253C12.7883 16.5778 11.5 15.0647 11.5 13.2505C11.5 11.4363 12.7883 9.92315 14.5 9.57568V0.750488C14.5 0.336356 14.8359 0.00062025 15.25 0.000488281C15.6641 0.000620194 16 0.336356 16 0.750488V9.57568C17.7117 9.92315 19 11.4363 19 13.2505Z"
    fill="currentColor"
  />
</svg>
