<svg width="16" height="16" viewBox="0 0 16 16" fill="none" xmlns="http://www.w3.org/2000/svg" data-fui-icon="true">
  <path
    d="M2.87463 1.00061C3.99419 1.00061 4.94193 1.73613 5.26038 2.75061H5.78284C6.8158 2.75061 7.75582 3.34682 8.1969 4.28088L9.59924 7.25061H12.8805L11.8297 6.14124C11.5453 5.84066 11.5588 5.3655 11.859 5.08069C12.1597 4.79614 12.6348 4.8094 12.9196 5.10999L15.1696 7.48499C15.4431 7.77417 15.4432 8.22708 15.1696 8.51624L12.9196 10.8912C12.6348 11.1914 12.1596 11.2049 11.859 10.9205C11.5586 10.6359 11.5456 10.1607 11.8297 9.85999L12.8805 8.75061H9.59924L8.1969 11.7203C7.75571 12.6541 6.8156 13.2506 5.78284 13.2506H5.2594C4.94059 14.2645 3.99376 15.0006 2.87463 15.0006C1.49425 15.0004 0.374898 13.881 0.374634 12.5006C0.374634 11.12 1.49409 10.0008 2.87463 10.0006C3.99419 10.0006 4.94193 10.7361 5.26038 11.7506H5.78284C6.23521 11.7506 6.648 11.4896 6.84143 11.0807L8.29553 8.00061L6.84143 4.92053C6.64811 4.51135 6.23541 4.25061 5.78284 4.25061H5.2594C4.94059 5.26449 3.99376 6.00061 2.87463 6.00061C1.49425 6.00041 0.374898 4.88098 0.374634 3.50061C0.374634 2.12002 1.49409 1.00081 2.87463 1.00061ZM2.87463 11.5006C2.32252 11.5008 1.87463 11.9484 1.87463 12.5006C1.8749 13.0525 2.32268 13.5004 2.87463 13.5006C3.42676 13.5006 3.87437 13.0527 3.87463 12.5006C3.87463 11.9483 3.42692 11.5006 2.87463 11.5006ZM2.87463 2.50061C2.32252 2.50081 1.87463 2.94845 1.87463 3.50061C1.8749 4.05255 2.32268 4.50041 2.87463 4.50061C3.42676 4.50061 3.87437 4.05267 3.87463 3.50061C3.87463 2.94833 3.42692 2.50061 2.87463 2.50061Z"
    fill="currentColor"
  />
</svg>
