<svg width="12" height="12" viewBox="0 0 12 12" fill="none" xmlns="http://www.w3.org/2000/svg" data-fui-icon="true">
  <path
    d="M2.24995 0.499624C3.22912 0.499624 4.05982 1.12639 4.36905 1.99959C5.19791 2.00584 5.95264 2.48025 6.31823 3.22515L7.31137 5.24953H9.43926L8.46955 4.27982C8.17704 3.9869 8.17679 3.51206 8.46955 3.21929C8.76233 2.92666 9.2372 2.92682 9.53008 3.21929L11.78 5.46925C12.0729 5.76209 12.0728 6.23688 11.78 6.52977L9.53008 8.77973C9.23719 9.07262 8.76244 9.07262 8.46955 8.77973C8.17704 8.48681 8.17679 8.01197 8.46955 7.7192L9.43926 6.7495H7.31137L6.31823 8.77387C5.95271 9.519 5.19805 9.99222 4.36905 9.99845C4.06024 10.8724 3.22968 11.4994 2.24995 11.4994C1.00745 11.4993 0 10.492 0 9.24945C0.000197854 8.00708 1.00757 6.99962 2.24995 6.99949C3.22835 6.99949 4.05826 7.62538 4.36808 8.49751C4.62503 8.49172 4.85788 8.34517 4.97158 8.11373L6.00769 5.99951L4.97158 3.8853C4.85796 3.65437 4.62549 3.50668 4.36905 3.50054C4.05975 4.37363 3.22903 4.99953 2.24995 4.99953C1.00745 4.9994 0 3.99211 0 2.74958C0.000197854 1.50721 1.00757 0.499756 2.24995 0.499624ZM2.24995 8.49946C1.83598 8.49959 1.50017 8.83549 1.49997 9.24945C1.49997 9.66357 1.83586 9.9993 2.24995 9.99943C2.66416 9.99943 2.99994 9.66365 2.99994 9.24945C2.99974 8.83541 2.66404 8.49946 2.24995 8.49946ZM2.24995 1.99959C1.83598 1.99972 1.50017 2.33562 1.49997 2.74958C1.49997 3.1637 1.83586 3.49943 2.24995 3.49956C2.66416 3.49956 2.99994 3.16378 2.99994 2.74958C2.99974 2.33554 2.66404 1.99959 2.24995 1.99959Z"
    fill="currentColor"
  />
</svg>
