<svg width="16" height="16" viewBox="0 0 16 16" fill="none" xmlns="http://www.w3.org/2000/svg" data-fui-icon="true">
  <path
    fill-rule="evenodd"
    clip-rule="evenodd"
    d="M2.87451 1.00061C3.99407 1.00061 4.94181 1.73613 5.26025 2.75061H5.78271C6.81568 2.75061 7.75569 3.34682 8.19678 4.28088L9.59912 7.25061H12.8804L11.8296 6.14124C11.5452 5.84066 11.5587 5.3655 11.8589 5.08069C12.1596 4.79614 12.6347 4.8094 12.9194 5.10999L15.1694 7.48499C15.443 7.77417 15.443 8.22708 15.1694 8.51624L12.9194 10.8912C12.6346 11.1914 12.1595 11.2049 11.8589 10.9205C11.5584 10.6359 11.5455 10.1607 11.8296 9.85999L12.8804 8.75061H9.59912L8.19678 11.7203C7.75559 12.6541 6.81548 13.2506 5.78271 13.2506H5.25928C4.94047 14.2645 3.99364 15.0006 2.87451 15.0006C1.49413 15.0004 0.374776 13.881 0.374512 12.5006C0.374512 11.12 1.49397 10.0008 2.87451 10.0006C3.99407 10.0006 4.94181 10.7361 5.26025 11.7506H5.78271C6.23509 11.7506 6.64787 11.4896 6.84131 11.0807L8.29541 8.00061L6.84131 4.92053C6.64798 4.51135 6.23529 4.25061 5.78271 4.25061H5.25928C4.94047 5.26449 3.99364 6.00061 2.87451 6.00061C1.49413 6.00041 0.374776 4.88098 0.374512 3.50061C0.374512 2.12002 1.49397 1.00081 2.87451 1.00061ZM2.87451 11.5006C2.3224 11.5008 1.87451 11.9484 1.87451 12.5006C1.87478 13.0525 2.32256 13.5004 2.87451 13.5006C3.42663 13.5006 3.87425 13.0527 3.87451 12.5006C3.87451 11.9483 3.4268 11.5006 2.87451 11.5006ZM2.87451 2.50061C2.3224 2.50081 1.87451 2.94845 1.87451 3.50061C1.87478 4.05255 2.32256 4.50041 2.87451 4.50061C3.42663 4.50061 3.87425 4.05267 3.87451 3.50061C3.87451 2.94833 3.4268 2.50061 2.87451 2.50061Z"
    fill="currentColor"
  />
</svg>
