<svg width="12" height="12" viewBox="0 0 12 12" fill="none" xmlns="http://www.w3.org/2000/svg" data-fui-icon="true">
  <path
    d="M9.5 4C10.8807 4 12 5.11929 12 6.5V9.5C12 10.8807 10.8807 12 9.5 12H6.5C5.11929 12 4 10.8807 4 9.5V6.5C4 5.11929 5.11929 4 6.5 4H9.5ZM6.5 6C6.22386 6 6 6.22386 6 6.5V9.5C6 9.77614 6.22386 10 6.5 10H9.5C9.77614 10 10 9.77614 10 9.5V6.5C10 6.22386 9.77614 6 9.5 6H6.5ZM7 0C7.55228 0 8 0.447715 8 1C8 1.55228 7.55228 2 7 2H2.5C2.22386 2 2 2.22386 2 2.5V7C2 7.55228 1.55228 8 1 8C0.447715 8 0 7.55228 0 7V2.5C0 1.11929 1.11929 0 2.5 0H7Z"
    fill="currentColor"
  />
</svg>
