<svg width="16" height="16" viewBox="0 0 16 16" fill="none" xmlns="http://www.w3.org/2000/svg" data-fui-icon="true">
  <path
    d="M12.4502 5C13.8584 5.00011 14.9999 6.14163 15 7.5498V12.4502C14.9999 13.8584 13.8584 14.9999 12.4502 15H7.5498C6.14163 14.9999 5.00011 13.8584 5 12.4502V7.5498C5.00011 6.14163 6.14163 5.00011 7.5498 5H12.4502ZM7.5498 6.5C6.97006 6.50011 6.50011 6.97006 6.5 7.5498V12.4502C6.50011 13.0299 6.97006 13.4999 7.5498 13.5H12.4502C13.0299 13.4999 13.4999 13.0299 13.5 12.4502V7.5498C13.4999 6.97006 13.0299 6.50011 12.4502 6.5H7.5498ZM8.5 1C9.76227 1 10.8058 1.93588 10.9756 3.15137C11.0021 3.34252 10.8434 3.49979 10.6504 3.5H9.84961C9.65654 3.49978 9.50573 3.33863 9.43945 3.15723C9.29949 2.77387 8.93179 2.5 8.5 2.5H3.5498C2.97006 2.50011 2.50011 2.97006 2.5 3.5498V8.5C2.5 8.93179 2.77387 9.29949 3.15723 9.43945C3.33863 9.50573 3.49978 9.65654 3.5 9.84961V10.6504C3.49979 10.8434 3.34252 11.0021 3.15137 10.9756C1.93588 10.8058 1 9.76227 1 8.5V3.5498C1.00011 2.14163 2.14163 1.00011 3.5498 1H8.5Z"
    fill="currentColor"
  />
</svg>
