<svg width="24" height="24" viewBox="0 0 24 24" fill="none" xmlns="http://www.w3.org/2000/svg" data-fui-icon="true">
  <path
    d="M19.6475 7C21.4975 7.00001 22.9978 8.49965 22.998 10.3496V19.6494C22.9978 21.4993 21.4975 22.999 19.6475 22.999H10.3496C8.49979 22.9988 7.00026 21.4992 7 19.6494V10.3496C7.00022 8.49977 8.49977 7.00021 10.3496 7H19.6475ZM10.3496 8.5C9.3282 8.50021 8.50022 9.3282 8.5 10.3496V19.6494C8.50026 20.6708 9.32822 21.4988 10.3496 21.499H19.6475C20.669 21.499 21.4978 20.6709 21.498 19.6494V10.3496C21.4978 9.32807 20.669 8.50001 19.6475 8.5H10.3496ZM13.6504 1C15.5002 1.00021 16.9997 2.49983 17 4.34961V5.15039C16.9998 5.34338 16.8434 5.49979 16.6504 5.5H15.8496C15.6566 5.49979 15.5002 5.34338 15.5 5.15039V4.34961C15.4997 3.32826 14.6718 2.50021 13.6504 2.5H4.34961C3.32824 2.50021 2.50029 3.32826 2.5 4.34961V13.6494C2.5 14.671 3.32806 15.4998 4.34961 15.5H5.15039C5.34338 15.5002 5.49979 15.6566 5.5 15.8496V16.6504C5.49979 16.8434 5.34338 16.9998 5.15039 17H4.34961C2.49964 16.9998 1 15.4994 1 13.6494V4.34961C1.00029 2.49984 2.49982 1.00021 4.34961 1H13.6504Z"
    fill="currentColor"
  />
</svg>
