<svg width="20" height="20" viewBox="0 0 20 20" fill="none" xmlns="http://www.w3.org/2000/svg" data-fui-icon="true">
  <path
    d="M16.1465 6C17.7202 6.00019 18.9959 7.27589 18.9961 8.84961V16.1465C18.9961 17.7203 17.7203 18.9959 16.1465 18.9961H8.84961C7.2758 18.9959 6.00004 17.7203 6 16.1465V8.84961C6.00021 7.27591 7.27591 6.00021 8.84961 6H16.1465ZM8.84961 7.5C8.10433 7.50021 7.50021 8.10433 7.5 8.84961V16.1465C7.50004 16.8919 8.10423 17.4959 8.84961 17.4961H16.1465C16.8919 17.4959 17.4961 16.8919 17.4961 16.1465V8.84961C17.4959 8.10432 16.8918 7.50019 16.1465 7.5H8.84961ZM11.1504 1C12.7241 1.00021 13.9998 2.27591 14 3.84961V4.15039C13.9998 4.34338 13.8434 4.49979 13.6504 4.5H12.8496C12.6566 4.49979 12.5002 4.34338 12.5 4.15039V3.84961C12.4998 3.10434 11.8957 2.50021 11.1504 2.5H3.84961C3.10433 2.50021 2.50021 3.10433 2.5 3.84961V11.1504C2.50021 11.8957 3.10434 12.4998 3.84961 12.5H4.15039C4.34338 12.5002 4.49979 12.6566 4.5 12.8496V13.6504C4.49979 13.8434 4.34338 13.9998 4.15039 14H3.84961C2.27591 13.9998 1.00021 12.7241 1 11.1504V3.84961C1.00021 2.27591 2.27591 1.00021 3.84961 1H11.1504Z"
    fill="currentColor"
  />
</svg>
