<svg width="24" height="24" viewBox="0 0 24 24" fill="none" xmlns="http://www.w3.org/2000/svg" data-fui-icon="true">
  <path
    d="M19.4004 7C21.3883 7.00021 22.9998 8.61169 23 10.5996V19.4004C22.9998 21.3883 21.3883 22.9998 19.4004 23H10.5996C8.61169 22.9998 7.00021 21.3883 7 19.4004V10.5996C7.00021 8.61169 8.61169 7.00021 10.5996 7H19.4004ZM10.5996 9C9.71626 9.00021 9.00021 9.71626 9 10.5996V19.4004C9.00021 20.2837 9.71626 20.9998 10.5996 21H19.4004C20.2837 20.9998 20.9998 20.2837 21 19.4004V10.5996C20.9998 9.71626 20.2837 9.00021 19.4004 9H10.5996ZM13.4004 1C15.3883 1.00021 16.9998 2.61169 17 4.59961C17 4.82074 16.8207 5 16.5996 5H15.4004C15.1793 5 15 4.82074 15 4.59961C14.9998 3.71626 14.2837 3.00021 13.4004 3H4.59961C3.71626 3.00021 3.00021 3.71626 3 4.59961V13.4004C3.00021 14.2837 3.71626 14.9998 4.59961 15C4.82074 15 5 15.1793 5 15.4004V16.5996C5 16.8207 4.82074 17 4.59961 17C2.61169 16.9998 1.00021 15.3883 1 13.4004V4.59961C1.00021 2.61169 2.61169 1.00021 4.59961 1H13.4004Z"
    fill="currentColor"
  />
</svg>
