<svg width="12" height="12" viewBox="0 0 12 12" fill="none" xmlns="http://www.w3.org/2000/svg" data-fui-icon="true">
  <path
    d="M2.25 4C2.66421 4 3 4.33579 3 4.75C3 5.16421 2.66421 5.5 2.25 5.5H1.77441C1.62287 5.5 1.5 5.62287 1.5 5.77441V10.2256C1.5 10.3771 1.62287 10.5 1.77441 10.5H6.22559C6.37713 10.5 6.5 10.3771 6.5 10.2256V9.75C6.5 9.33582 6.83583 9.00005 7.25 9C7.66421 9 8 9.33579 8 9.75V10.2256C8 11.2056 7.20555 12 6.22559 12H1.77441C0.794445 12 0 11.2056 0 10.2256V5.77441C0 4.79445 0.794445 4 1.77441 4H2.25ZM10.2256 0C11.2056 0 12 0.794445 12 1.77441V6.22559C12 7.20556 11.2056 8 10.2256 8H5.77441C4.79445 8 4 7.20555 4 6.22559V1.77441C4 0.794445 4.79445 0 5.77441 0H10.2256ZM5.77441 1.5C5.62287 1.5 5.5 1.62287 5.5 1.77441V6.22559C5.5 6.37713 5.62287 6.5 5.77441 6.5H10.2256C10.3771 6.5 10.5 6.37713 10.5 6.22559V1.77441C10.5 1.62287 10.3771 1.5 10.2256 1.5H5.77441Z"
    fill="currentColor"
  />
</svg>
