<svg width="16" height="16" viewBox="0 0 16 16" fill="none" xmlns="http://www.w3.org/2000/svg" data-fui-icon="true">
  <path
    d="M12.4502 5C13.8584 5.00011 14.9999 6.14163 15 7.5498V12.4502C14.9999 13.8584 13.8584 14.9999 12.4502 15H7.5498C6.14163 14.9999 5.00011 13.8584 5 12.4502V7.5498C5.00011 6.14163 6.14163 5.00011 7.5498 5H12.4502ZM8.4502 1C9.84172 1.0001 10.9714 2.11483 10.998 3.5H7.4502C5.26867 3.5 3.5 5.26867 3.5 7.4502V10.9971C2.11484 10.9704 1.0001 9.84171 1 8.4502V3.5498C1.00011 2.14163 2.14163 1.00011 3.5498 1H8.4502Z"
    fill="currentColor"
  />
</svg>
