<svg width="20" height="20" viewBox="0 0 20 20" fill="none" xmlns="http://www.w3.org/2000/svg" data-fui-icon="true">
  <path
    d="M15.9004 6C17.6122 6.00021 18.9998 7.38784 19 9.09961V15.9004C18.9998 17.6122 17.6122 18.9998 15.9004 19H9.09961C7.38784 18.9998 6.00021 17.6122 6 15.9004V9.09961C6.00021 7.38784 7.38784 6.00021 9.09961 6H15.9004ZM10.9004 1C12.4382 1.00019 13.7136 2.12011 13.957 3.58887C13.9939 3.81171 13.8099 4 13.584 4H9.09961C6.28327 4.00021 4.00021 6.28327 4 9.09961V13.584C4 13.8099 3.81171 13.9939 3.58887 13.957C2.12011 13.7136 1.00019 12.4382 1 10.9004V4.09961C1.00021 2.38784 2.38784 1.00021 4.09961 1H10.9004Z"
    fill="currentColor"
  />
</svg>
