<svg width="32" height="32" viewBox="0 0 32 32" fill="none" xmlns="http://www.w3.org/2000/svg" data-fui-icon="true">
  <path
    d="M26.3564 9C28.9208 9 31 11.0792 31 13.6436V26.3564C31 28.9208 28.9208 31 26.3564 31H13.6436C11.0792 31 9 28.9208 9 26.3564V13.6436C9 11.0792 11.0792 9 13.6436 9H26.3564ZM13.6436 11C12.1838 11 11 12.1838 11 13.6436V26.3564C11 27.8162 12.1838 29 13.6436 29H26.3564C27.8162 29 29 27.8162 29 26.3564V13.6436C29 12.1838 27.8162 11 26.3564 11H13.6436ZM18.3564 1C20.9208 1 23 3.07924 23 5.64355V6.65039C22.9998 6.84338 22.8434 6.99979 22.6504 7H21.3496C21.1566 6.99979 21.0002 6.84338 21 6.65039V5.64355C21 4.1838 19.8162 3 18.3564 3H5.64355C4.1838 3 3 4.1838 3 5.64355V18.3564C3 19.8162 4.1838 21 5.64355 21H6.65039C6.84338 21.0002 6.99979 21.1566 7 21.3496V22.6504C6.99979 22.8434 6.84338 22.9998 6.65039 23H5.64355C3.07924 23 1 20.9208 1 18.3564V5.64355C1 3.07924 3.07924 1 5.64355 1H18.3564Z"
    fill="currentColor"
  />
</svg>
