<svg width="32" height="32" viewBox="0 0 32 32" fill="none" xmlns="http://www.w3.org/2000/svg" data-fui-icon="true">
  <path
    d="M10.2832 0C11.1375 1.56467e-06 11.7749 0.60073 12.0293 1.2666C12.6405 2.86605 14.1885 4 16 4C17.8115 4 19.3595 2.86605 19.9707 1.2666C20.2251 0.60073 20.8625 1.78818e-06 21.7168 0H25.25C27.3211 0 29 1.67893 29 3.75V28.25C29 30.3211 27.3211 32 25.25 32H21.7168C20.8625 32 20.2251 31.3993 19.9707 30.7334C19.3595 29.134 17.8115 28 16 28C14.1885 28 12.6405 29.134 12.0293 30.7334C11.7749 31.3993 11.1375 32 10.2832 32H6.75C4.67893 32 3 30.3211 3 28.25V3.75C3 1.67893 4.67893 0 6.75 0H10.2832Z"
    fill="currentColor"
  />
</svg>
