<svg width="12" height="12" viewBox="0 0 12 12" fill="none" xmlns="http://www.w3.org/2000/svg" data-fui-icon="true">
  <path
    d="M4.09863 0C4.65123 0.000151515 5.06324 0.314491 5.29102 0.667969L5.37695 0.821289L5.42871 0.912109C5.56178 1.11235 5.7754 1.2285 6 1.22852C6.25663 1.22852 6.49888 1.07682 6.62305 0.821289L6.70898 0.667969C6.93676 0.314487 7.34877 0.000150158 7.90137 0H9C10.1046 2.38419e-07 11 0.89543 11 2V10C11 11.1046 10.1046 12 9 12H7.90137C7.26984 11.9998 6.82236 11.5889 6.62305 11.1787C6.49888 10.9232 6.25663 10.7715 6 10.7715C5.74335 10.7715 5.50111 10.9232 5.37695 11.1787C5.17765 11.5889 4.73017 11.9998 4.09863 12H3C1.89543 12 1 11.1046 1 10V2C1 0.895431 1.89543 1.19209e-07 3 0H4.09863ZM3 10H3.75195C4.2307 9.26888 5.05081 8.77151 6 8.77148C6.94922 8.77148 7.76931 9.26888 8.24805 10H9V2H8.24805C7.76931 2.73112 6.94922 3.22852 6 3.22852C5.05081 3.2285 4.2307 2.73112 3.75195 2H3V10Z"
    fill="currentColor"
  />
</svg>
