<svg width="32" height="32" viewBox="0 0 32 32" fill="none" xmlns="http://www.w3.org/2000/svg" data-fui-icon="true">
  <path
    d="M9.95117 0C10.8707 0 11.5719 0.610581 11.8789 1.30859C12.5763 2.89512 14.1601 4 16 4C17.8399 4 19.4237 2.89512 20.1211 1.30859C20.4281 0.610582 21.1293 0 22.0488 0H25C27.2091 0 29 1.79086 29 4V28C29 30.2091 27.2091 32 25 32H22.0488C21.1293 32 20.4281 31.3894 20.1211 30.6914C19.4237 29.1049 17.8399 28 16 28C14.1601 28 12.5763 29.1049 11.8789 30.6914C11.5719 31.3894 10.8707 32 9.95117 32H7C4.79086 32 3 30.2091 3 28V4C3 1.79086 4.79086 0 7 0H9.95117ZM21.207 10.793C20.8165 10.4024 20.1835 10.4024 19.793 10.793L16 14.5859L12.207 10.793C11.8165 10.4024 11.1835 10.4024 10.793 10.793C10.4024 11.1835 10.4024 11.8165 10.793 12.207L14.5859 16L10.793 19.793C10.4024 20.1835 10.4024 20.8165 10.793 21.207C11.1835 21.5976 11.8165 21.5976 12.207 21.207L16 17.4141L19.793 21.207C20.1835 21.5976 20.8165 21.5976 21.207 21.207C21.5976 20.8165 21.5976 20.1835 21.207 19.793L17.4141 16L21.207 12.207C21.5976 11.8165 21.5976 11.1835 21.207 10.793Z"
    fill="currentColor"
  />
</svg>
