<svg
  width="12"
  height="12"
  viewBox="0 0 12 12"
  fill="none"
  xmlns="http://www.w3.org/2000/svg"
  data-fui-icon="true"
>
  <path
    d="M9.5 0.75V1.5V0.75ZM7.6247 1.00746L8.30044 1.33283L7.6247 1.00746ZM7.6247 10.9925L6.94895 11.3179L7.6247 10.9925ZM4.3753 1.00746L5.05105 0.682087L4.3753 1.00746ZM3.9975 0H2.5V1.5H3.9975V0ZM2.5 0C1.67157 0 1 0.671573 1 1.5H2.5V1.5V0ZM1 1.5V10.5H2.5V1.5H1ZM1 10.5C1 11.3284 1.67157 12 2.5 12V10.5H2.5H1ZM2.5 12H3.9975V10.5H2.5V12ZM5.05105 11.3179C5.22762 10.9512 5.59102 10.7105 6 10.7105V9.21054C4.98209 9.21054 4.1116 9.81144 3.69956 10.6672L5.05105 11.3179ZM6 10.7105C6.40898 10.7105 6.77238 10.9512 6.94895 11.3179L8.30044 10.6672C7.8884 9.81144 7.01791 9.21054 6 9.21054V10.7105ZM8.0025 12H9.5V10.5H8.0025V12ZM9.5 12C10.3284 12 11 11.3284 11 10.5H9.5H9.5V12ZM11 10.5V1.5H9.5V10.5H11ZM11 1.5C11 0.671572 10.3284 0 9.5 0V1.5H9.5H11ZM9.5 0H8.0025V1.5H9.5V0ZM6.94895 0.682087C6.77239 1.04878 6.40898 1.28947 6 1.28947V2.78947C7.01791 2.78947 7.88841 2.18857 8.30044 1.33283L6.94895 0.682087ZM6 1.28947C5.59102 1.28947 5.22761 1.04878 5.05105 0.682087L3.69956 1.33283C4.11159 2.18857 4.98209 2.78947 6 2.78947V1.28947ZM8.0025 0C7.48947 0 7.11681 0.333477 6.94895 0.682087L8.30044 1.33283C8.27535 1.38494 8.18645 1.5 8.0025 1.5V0ZM6.94895 11.3179C7.11681 11.6665 7.48947 12 8.0025 12V10.5C8.18644 10.5 8.27535 10.6151 8.30044 10.6672L6.94895 11.3179ZM3.9975 12C4.51053 12 4.88319 11.6665 5.05105 11.3179L3.69956 10.6672C3.72465 10.6151 3.81356 10.5 3.9975 10.5V12ZM3.9975 1.5C3.81355 1.5 3.72465 1.38494 3.69956 1.33283L5.05105 0.682087C4.88319 0.333477 4.51053 0 3.9975 0V1.5Z"
    fill="currentColor"
  />
  <path
    d="M4.125 7.875L7.875 4.125"
    stroke="currentColor"
    stroke-width="1.5"
    stroke-linecap="round"
    stroke-linejoin="round"
  />
  <circle cx="4.25" cy="4.5" r=".75" fill="currentColor" />
  <circle cx="7.75" cy="7.5" r=".75" fill="currentColor" />
</svg>
