<svg width="24" height="24" viewBox="0 0 24 24" fill="none" xmlns="http://www.w3.org/2000/svg" data-fui-icon="true">
  <path
    d="M7.4082 0C8.31377 0 8.94689 0.668803 9.2002 1.32715C9.63339 2.45312 10.7243 3.25 12 3.25C13.2757 3.25 14.3666 2.45312 14.7998 1.32715C15.0531 0.668803 15.6862 0 16.5918 0H18.75C20.5449 0 22 1.45507 22 3.25V20.75C22 22.5449 20.5449 24 18.75 24H16.5918C15.6862 24 15.0531 23.3312 14.7998 22.6729C14.3666 21.5469 13.2757 20.75 12 20.75C10.7243 20.75 9.63339 21.5469 9.2002 22.6729C8.94689 23.3312 8.31377 24 7.4082 24H5.25C3.45507 24 2 22.5449 2 20.75V3.25C2 1.45507 3.45507 0 5.25 0H7.4082ZM5.25 1.5C4.2835 1.5 3.5 2.2835 3.5 3.25V20.75C3.5 21.7165 4.2835 22.5 5.25 22.5H7.4082C7.46172 22.5 7.52661 22.4813 7.60059 22.4209C7.67816 22.3576 7.75232 22.2572 7.7998 22.1338C8.44836 20.4483 10.083 19.25 12 19.25C13.917 19.25 15.5516 20.4483 16.2002 22.1338C16.2477 22.2572 16.3218 22.3576 16.3994 22.4209C16.4734 22.4813 16.5383 22.5 16.5918 22.5H18.75C19.7165 22.5 20.5 21.7165 20.5 20.75V3.25C20.5 2.2835 19.7165 1.5 18.75 1.5H16.5918C16.5383 1.5 16.4734 1.51874 16.3994 1.5791C16.3218 1.6424 16.2477 1.74279 16.2002 1.86621C15.5516 3.55172 13.917 4.75 12 4.75C10.083 4.75 8.44836 3.55172 7.7998 1.86621C7.75232 1.74279 7.67816 1.6424 7.60059 1.5791C7.5266 1.51874 7.46172 1.5 7.4082 1.5H5.25ZM15.7197 7.21973C16.0126 6.92683 16.4874 6.92683 16.7803 7.21973C17.0732 7.51262 17.0732 7.98738 16.7803 8.28027L8.28027 16.7803C7.98738 17.0732 7.51262 17.0732 7.21973 16.7803C6.92683 16.4874 6.92683 16.0126 7.21973 15.7197L15.7197 7.21973ZM15 13C16.1046 13 17 13.8954 17 15C17 16.1046 16.1046 17 15 17C13.8954 17 13 16.1046 13 15C13 13.8954 13.8954 13 15 13ZM15 14.5C14.7239 14.5 14.5 14.7239 14.5 15C14.5 15.2761 14.7239 15.5 15 15.5C15.2761 15.5 15.5 15.2761 15.5 15C15.5 14.7239 15.2761 14.5 15 14.5ZM9 7C10.1046 7 11 7.89543 11 9C11 10.1046 10.1046 11 9 11C7.89543 11 7 10.1046 7 9C7 7.89543 7.89543 7 9 7ZM9 8.5C8.72386 8.5 8.5 8.72386 8.5 9C8.5 9.27614 8.72386 9.5 9 9.5C9.27614 9.5 9.5 9.27614 9.5 9C9.5 8.72386 9.27614 8.5 9 8.5Z"
    fill="currentColor"
  />
</svg>
