<svg width="32" height="32" viewBox="0 0 32 32" fill="none" xmlns="http://www.w3.org/2000/svg" data-fui-icon="true">
  <path
    d="M10.2832 0C11.2637 1.56048e-06 11.9801 0.687996 12.2627 1.42773C12.8382 2.93345 14.2956 4 16 4C17.7044 4 19.1618 2.93345 19.7373 1.42773C20.0199 0.687996 20.7363 1.78339e-06 21.7168 0H25C27.2091 0 29 1.79086 29 4V28C29 30.2091 27.2091 32 25 32H21.7168C20.7363 32 20.0199 31.312 19.7373 30.5723C19.1618 29.0665 17.7044 28 16 28C14.2956 28 12.8382 29.0665 12.2627 30.5723C11.9801 31.312 11.2637 32 10.2832 32H7C4.79086 32 3 30.2091 3 28V4C3 1.79086 4.79086 0 7 0H10.2832ZM7 2C5.89543 2 5 2.89543 5 4V28C5 29.1046 5.89543 30 7 30H10.2832C10.2748 30 10.2818 30.0047 10.3066 29.9854C10.3351 29.9631 10.3712 29.9194 10.3945 29.8584C11.2561 27.604 13.4391 26 16 26C18.5609 26 20.7439 27.604 21.6055 29.8584C21.6288 29.9194 21.6649 29.9631 21.6934 29.9854C21.7182 30.0047 21.7252 30 21.7168 30H25C26.1046 30 27 29.1046 27 28V4C27 2.89543 26.1046 2 25 2H21.7168C21.7252 2 21.7182 1.99534 21.6934 2.01465C21.6649 2.03686 21.6288 2.08058 21.6055 2.1416C20.7439 4.39597 18.5609 6 16 6C13.4391 6 11.2561 4.39597 10.3945 2.1416C10.3712 2.08058 10.3351 2.03686 10.3066 2.01465C10.2818 1.99534 10.2748 2 10.2832 2H7ZM19.75 17C21.2688 17 22.5 18.2312 22.5 19.75C22.5 21.2688 21.2688 22.5 19.75 22.5C18.2312 22.5 17 21.2688 17 19.75C17 18.2312 18.2312 17 19.75 17ZM20.543 10.043C20.9335 9.65244 21.5665 9.65244 21.957 10.043C22.3476 10.4335 22.3476 11.0665 21.957 11.457L11.457 21.957C11.0665 22.3476 10.4335 22.3476 10.043 21.957C9.65244 21.5665 9.65244 20.9335 10.043 20.543L20.543 10.043ZM19.75 19C19.3358 19 19 19.3358 19 19.75C19 20.1642 19.3358 20.5 19.75 20.5C20.1642 20.5 20.5 20.1642 20.5 19.75C20.5 19.3358 20.1642 19 19.75 19ZM12.25 9.5C13.7688 9.5 15 10.7312 15 12.25C15 13.7688 13.7688 15 12.25 15C10.7312 15 9.5 13.7688 9.5 12.25C9.5 10.7312 10.7312 9.5 12.25 9.5ZM12.25 11.5C11.8358 11.5 11.5 11.8358 11.5 12.25C11.5 12.6642 11.8358 13 12.25 13C12.6642 13 13 12.6642 13 12.25C13 11.8358 12.6642 11.5 12.25 11.5Z"
    fill="currentColor"
  />
</svg>
