<svg width="32" height="32" viewBox="0 0 32 32" fill="none" xmlns="http://www.w3.org/2000/svg" data-fui-icon="true">
  <path
    d="M10.2832 0C11.2637 1.56048e-06 11.9801 0.687996 12.2627 1.42773C12.8382 2.93345 14.2956 4 16 4C17.7044 4 19.1618 2.93345 19.7373 1.42773C20.0199 0.687996 20.7363 1.78339e-06 21.7168 0H25C27.2091 0 29 1.79086 29 4V28C29 30.2091 27.2091 32 25 32H21.7168C20.7363 32 20.0199 31.312 19.7373 30.5723C19.1618 29.0665 17.7044 28 16 28C14.2956 28 12.8382 29.0665 12.2627 30.5723C11.9801 31.312 11.2637 32 10.2832 32H7C4.79086 32 3 30.2091 3 28V4C3 1.79086 4.79086 0 7 0H10.2832ZM7 2C5.89543 2 5 2.89543 5 4V28C5 29.1046 5.89543 30 7 30H10.2832C10.2748 30 10.2818 30.0047 10.3066 29.9854C10.3351 29.9631 10.3712 29.9194 10.3945 29.8584C11.2561 27.604 13.4391 26 16 26C18.5609 26 20.7439 27.604 21.6055 29.8584C21.6288 29.9194 21.6649 29.9631 21.6934 29.9854C21.7182 30.0047 21.7252 30 21.7168 30H25C26.1046 30 27 29.1046 27 28V4C27 2.89543 26.1046 2 25 2H21.7168C21.7252 2 21.7182 1.99534 21.6934 2.01465C21.6649 2.03686 21.6288 2.08058 21.6055 2.1416C20.7439 4.39597 18.5609 6 16 6C13.4391 6 11.2561 4.39597 10.3945 2.1416C10.3712 2.08058 10.3351 2.03686 10.3066 2.01465C10.2818 1.99534 10.2748 2 10.2832 2H7ZM19.793 10.793C20.1835 10.4024 20.8165 10.4024 21.207 10.793C21.5976 11.1835 21.5976 11.8165 21.207 12.207L17.4141 16L21.207 19.793C21.5976 20.1835 21.5976 20.8165 21.207 21.207C20.8165 21.5976 20.1835 21.5976 19.793 21.207L16 17.4141L12.207 21.207C11.8165 21.5976 11.1835 21.5976 10.793 21.207C10.4024 20.8165 10.4024 20.1835 10.793 19.793L14.5859 16L10.793 12.207C10.4024 11.8165 10.4024 11.1835 10.793 10.793C11.1835 10.4024 11.8165 10.4024 12.207 10.793L16 14.5859L19.793 10.793Z"
    fill="currentColor"
  />
</svg>
