<svg width="16" height="16" viewBox="0 0 16 16" fill="none" xmlns="http://www.w3.org/2000/svg" data-fui-icon="true">
  <path
    d="M5.29395 0C5.79278 2.27374e-06 6.17953 0.285286 6.39551 0.628906L6.47754 0.779297L6.53418 0.890625C6.83418 1.43333 7.38643 1.78027 8 1.78027C8.65455 1.78027 9.2393 1.38539 9.52246 0.779297L9.60449 0.628906C9.82047 0.285286 10.2072 2.91036e-06 10.7061 0H12.75C13.7165 0 14.5 0.783502 14.5 1.75V14.25C14.5 15.2165 13.7165 16 12.75 16H10.7061C10.136 16 9.71226 15.6271 9.52246 15.2207C9.2393 14.6146 8.65455 14.2197 8 14.2197C7.34545 14.2197 6.7607 14.6146 6.47754 15.2207C6.28774 15.6271 5.86403 16 5.29395 16H3.25C2.2835 16 1.5 15.2165 1.5 14.25V1.75C1.5 0.783501 2.2835 0 3.25 0H5.29395ZM3.25 1.5C3.11193 1.5 3 1.61193 3 1.75V14.25C3 14.3881 3.11193 14.5 3.25 14.5H5.16211C5.68822 13.4544 6.75163 12.7197 8 12.7197C9.24837 12.7197 10.3118 13.4544 10.8379 14.5H12.75C12.8881 14.5 13 14.3881 13 14.25V1.75C13 1.61193 12.8881 1.5 12.75 1.5H10.8379C10.3118 2.5456 9.24837 3.28027 8 3.28027C6.75163 3.28027 5.68822 2.5456 5.16211 1.5H3.25ZM10.0947 4.84473C10.3876 4.55183 10.8624 4.55183 11.1553 4.84473C11.4482 5.13762 11.4482 5.61238 11.1553 5.90527L5.90527 11.1553C5.61238 11.4482 5.13762 11.4482 4.84473 11.1553C4.55183 10.8624 4.55183 10.3876 4.84473 10.0947L10.0947 4.84473ZM10 9C10.5523 9 11 9.44771 11 10C11 10.5523 10.5523 11 10 11C9.44772 11 9 10.5523 9 10C9 9.44771 9.44772 9 10 9ZM6 5C6.55228 5 7 5.44772 7 6C7 6.55228 6.55228 7 6 7C5.44772 7 5 6.55228 5 6C5 5.44772 5.44772 5 6 5Z"
    fill="currentColor"
  />
</svg>
