<svg width="24" height="24" viewBox="0 0 24 24" fill="none" xmlns="http://www.w3.org/2000/svg" data-fui-icon="true">
  <path
    d="M7.08203 0C8.0368 0.000162187 8.7302 0.653963 9.03613 1.33301C9.54613 2.46509 10.6821 3.25 12 3.25C13.3179 3.25 14.4539 2.46509 14.9639 1.33301C15.2698 0.653962 15.9632 0.000162404 16.918 0H18.5C20.433 1.19209e-07 22 1.567 22 3.5V20.5C22 22.433 20.433 24 18.5 24H16.918C15.9632 23.9998 15.2698 23.346 14.9639 22.667C14.4539 21.5349 13.3179 20.75 12 20.75C10.6821 20.75 9.54613 21.5349 9.03613 22.667C8.7302 23.346 8.0368 23.9998 7.08203 24H5.5C3.567 24 2 22.433 2 20.5V3.5C2 1.567 3.567 1.19209e-07 5.5 0H7.08203ZM17.5605 6.43945C16.9748 5.85367 16.0252 5.85367 15.4395 6.43945L6.43945 15.4395C5.85367 16.0252 5.85367 16.9748 6.43945 17.5605C7.02524 18.1463 7.97476 18.1463 8.56055 17.5605L17.5605 8.56055C18.1463 7.97476 18.1463 7.02524 17.5605 6.43945ZM16 14C14.8954 14 14 14.8954 14 16C14 17.1046 14.8954 18 16 18C17.1046 18 18 17.1046 18 16C18 14.8954 17.1046 14 16 14ZM8 6C6.89543 6 6 6.89543 6 8C6 9.10457 6.89543 10 8 10C9.10457 10 10 9.10457 10 8C10 6.89543 9.10457 6 8 6Z"
    fill="currentColor"
  />
</svg>
