<svg width="16" height="16" viewBox="0 0 16 16" fill="none" xmlns="http://www.w3.org/2000/svg" data-fui-icon="true">
  <path
    d="M5.29395 0C5.79276 6.9392e-05 6.17957 0.285316 6.39551 0.628906L6.47656 0.779297L6.5332 0.890625C6.83311 1.43325 7.3861 1.78027 8 1.78027C8.65488 1.78027 9.2404 1.38523 9.52344 0.779297L9.60449 0.628906C9.82043 0.285316 10.2072 6.94828e-05 10.7061 0H12.25C13.4926 2.38419e-07 14.5 1.00736 14.5 2.25V13.75C14.5 14.9926 13.4926 16 12.25 16H10.7061C10.1361 15.9999 9.71324 15.627 9.52344 15.2207C9.2404 14.6148 8.65488 14.2197 8 14.2197C7.34512 14.2197 6.7596 14.6148 6.47656 15.2207C6.28676 15.627 5.86393 15.9999 5.29395 16H3.75C2.50736 16 1.5 14.9926 1.5 13.75V2.25C1.5 1.00736 2.50736 0 3.75 0H5.29395Z"
    fill="currentColor"
  />
</svg>
