<svg width="12" height="12" viewBox="0 0 12 12" fill="none" xmlns="http://www.w3.org/2000/svg" data-fui-icon="true">
  <path
    d="M3.99805 0C4.44671 0.000157684 4.78777 0.2555 4.97852 0.552734L5.05078 0.681641L5.12598 0.813477C5.31932 1.10492 5.64206 1.28906 6 1.28906C6.40915 1.28906 6.77275 1.0481 6.94922 0.681641L7.02148 0.552734C7.21223 0.2555 7.55329 0.000157594 8.00195 0H9.25C10.2165 1.78814e-07 11 0.783502 11 1.75V10.25C11 11.2165 10.2165 12 9.25 12H8.00195C7.48938 11.9998 7.11714 11.6667 6.94922 11.3184C6.77275 10.9519 6.40914 10.7109 6 10.7109C5.59086 10.7109 5.22725 10.9519 5.05078 11.3184C4.88286 11.6667 4.51062 11.9998 3.99805 12H2.75C1.7835 12 1 11.2165 1 10.25V1.75C1 0.783502 1.7835 0 2.75 0H3.99805ZM2.75 1.5C2.61193 1.5 2.5 1.61193 2.5 1.75V10.25C2.5 10.3881 2.61193 10.5 2.75 10.5H3.78809C4.22842 9.73425 5.04997 9.21094 6 9.21094C6.95003 9.21094 7.77158 9.73425 8.21191 10.5H9.25C9.38807 10.5 9.5 10.3881 9.5 10.25V1.75C9.5 1.61193 9.38807 1.5 9.25 1.5H8.21191C7.77158 2.26575 6.95003 2.78906 6 2.78906C5.04997 2.78906 4.22842 2.26575 3.78809 1.5H2.75ZM6.96973 3.96973C7.26262 3.67687 7.73739 3.67685 8.03027 3.96973C8.32312 4.26261 8.32313 4.73739 8.03027 5.03027L7.06055 6L8.03027 6.96973C8.32304 7.26263 8.32313 7.73742 8.03027 8.03027C7.73742 8.32306 7.26261 8.32302 6.96973 8.03027L6 7.06055L5.03027 8.03027C4.73739 8.32303 4.26258 8.32306 3.96973 8.03027C3.67689 7.73742 3.67696 7.26262 3.96973 6.96973L4.93945 6L3.96973 5.03027C3.67698 4.73739 3.67693 4.26258 3.96973 3.96973C4.26258 3.67687 4.73737 3.67696 5.03027 3.96973L6 4.93945L6.96973 3.96973Z"
    fill="currentColor"
  />
</svg>
