<svg width="20" height="20" viewBox="0 0 20 20" fill="none" xmlns="http://www.w3.org/2000/svg" data-fui-icon="true">
  <path
    d="M6.55469 0C7.09727 0.000158492 7.50964 0.33507 7.71094 0.737305L7.78418 0.913086L7.84863 1.08203C8.20253 1.91458 9.03189 2.5 10 2.5L10.1914 2.49219C11.1394 2.41575 11.9266 1.77683 12.2158 0.913086L12.2891 0.737305C12.4904 0.335071 12.9027 0.000158786 13.4453 0H15.5C16.8807 0 18 1.11929 18 2.5V17.5C18 18.8807 16.8807 20 15.5 20H13.4453C12.8253 19.9998 12.375 19.5624 12.2158 19.0869C11.9266 18.2232 11.1394 17.5842 10.1914 17.5078L10 17.5C8.96759 17.5 8.09263 18.1656 7.78418 19.0869C7.62504 19.5624 7.17474 19.9998 6.55469 20H4.5C3.11929 20 2 18.8807 2 17.5V2.5C2 1.11929 3.11929 0 4.5 0H6.55469ZM14.0303 5.96973C13.7374 5.67683 13.2626 5.67683 12.9697 5.96973L5.96973 12.9697C5.67683 13.2626 5.67683 13.7374 5.96973 14.0303C6.26262 14.3232 6.73738 14.3232 7.03027 14.0303L14.0303 7.03027C14.3232 6.73738 14.3232 6.26262 14.0303 5.96973ZM12.75 11.25C11.9216 11.25 11.25 11.9216 11.25 12.75C11.25 13.5784 11.9216 14.25 12.75 14.25C13.5784 14.25 14.25 13.5784 14.25 12.75C14.25 11.9216 13.5784 11.25 12.75 11.25ZM7.25 5.75C6.42157 5.75 5.75 6.42157 5.75 7.25C5.75 8.07843 6.42157 8.75 7.25 8.75C8.07843 8.75 8.75 8.07843 8.75 7.25C8.75 6.42157 8.07843 5.75 7.25 5.75Z"
    fill="currentColor"
  />
</svg>
