<svg width="32" height="32" viewBox="0 0 32 32" fill="none" xmlns="http://www.w3.org/2000/svg" data-fui-icon="true">
  <path
    d="M10.2832 0C11.1375 1.56467e-06 11.7749 0.60073 12.0293 1.2666C12.6405 2.86605 14.1885 4 16 4C17.8115 4 19.3595 2.86605 19.9707 1.2666C20.2251 0.60073 20.8625 1.78818e-06 21.7168 0H25.25C27.3211 0 29 1.67893 29 3.75V28.25C29 30.3211 27.3211 32 25.25 32H21.7168C20.8625 32 20.2251 31.3993 19.9707 30.7334C19.3595 29.134 17.8115 28 16 28C14.1885 28 12.6405 29.134 12.0293 30.7334C11.7749 31.3993 11.1375 32 10.2832 32H6.75C4.67893 32 3 30.3211 3 28.25V3.75C3 1.67893 4.67893 0 6.75 0H10.2832ZM6.75 1.5C5.50736 1.5 4.5 2.50736 4.5 3.75V28.25C4.5 29.4926 5.50736 30.5 6.75 30.5H10.2832C10.3801 30.5 10.5429 30.4209 10.6279 30.1982C11.4536 28.0372 13.546 26.5 16 26.5C18.454 26.5 20.5464 28.0372 21.3721 30.1982C21.4571 30.4209 21.6199 30.5 21.7168 30.5H25.25C26.4926 30.5 27.5 29.4926 27.5 28.25V3.75C27.5 2.50736 26.4926 1.5 25.25 1.5H21.7168C21.6199 1.5 21.4571 1.57912 21.3721 1.80176C20.5464 3.96282 18.454 5.5 16 5.5C13.546 5.5 11.4536 3.96282 10.6279 1.80176C10.5429 1.57912 10.3801 1.5 10.2832 1.5H6.75ZM20 17.5C21.3807 17.5 22.5 18.6193 22.5 20C22.5 21.3807 21.3807 22.5 20 22.5C18.6193 22.5 17.5 21.3807 17.5 20C17.5 18.6193 18.6193 17.5 20 17.5ZM20.7197 10.2197C21.0126 9.92683 21.4874 9.92683 21.7803 10.2197C22.0732 10.5126 22.0732 10.9874 21.7803 11.2803L11.2803 21.7803C10.9874 22.0732 10.5126 22.0732 10.2197 21.7803C9.92683 21.4874 9.92683 21.0126 10.2197 20.7197L20.7197 10.2197ZM20 19C19.4477 19 19 19.4477 19 20C19 20.5523 19.4477 21 20 21C20.5523 21 21 20.5523 21 20C21 19.4477 20.5523 19 20 19ZM12 9.5C13.3807 9.5 14.5 10.6193 14.5 12C14.5 13.3807 13.3807 14.5 12 14.5C10.6193 14.5 9.5 13.3807 9.5 12C9.5 10.6193 10.6193 9.5 12 9.5ZM12 11C11.4477 11 11 11.4477 11 12C11 12.5523 11.4477 13 12 13C12.5523 13 13 12.5523 13 12C13 11.4477 12.5523 11 12 11Z"
    fill="currentColor"
  />
</svg>
