<svg width="20" height="20" viewBox="0 0 20 20" fill="none" xmlns="http://www.w3.org/2000/svg" data-fui-icon="true">
  <path
    d="M6.55469 0C7.09727 0.000158492 7.50964 0.33507 7.71094 0.737305L7.78418 0.913086L7.84863 1.08203C8.20253 1.91458 9.03189 2.5 10 2.5L10.1914 2.49219C11.1394 2.41575 11.9266 1.77683 12.2158 0.913086L12.2891 0.737305C12.4904 0.335071 12.9027 0.000158786 13.4453 0H15.5C16.8807 0 18 1.11929 18 2.5V17.5C18 18.8807 16.8807 20 15.5 20H13.4453C12.8253 19.9998 12.375 19.5624 12.2158 19.0869C11.9266 18.2232 11.1394 17.5842 10.1914 17.5078L10 17.5C8.96759 17.5 8.09263 18.1656 7.78418 19.0869C7.62504 19.5624 7.17474 19.9998 6.55469 20H4.5C3.11929 20 2 18.8807 2 17.5V2.5C2 1.11929 3.11929 0 4.5 0H6.55469ZM4.5 1.5C3.94772 1.5 3.5 1.94772 3.5 2.5V17.5C3.5 18.0523 3.94772 18.5 4.5 18.5H6.4043C6.9443 17.0406 8.34887 16 10 16C11.6511 16 13.0557 17.0406 13.5957 18.5H15.5C16.0523 18.5 16.5 18.0523 16.5 17.5V2.5C16.5 1.94772 16.0523 1.5 15.5 1.5H13.5957C13.0557 2.95937 11.6511 4 10 4C8.34887 4 6.9443 2.95937 6.4043 1.5H4.5Z"
    fill="currentColor"
  />
</svg>
