<svg width="32" height="32" viewBox="0 0 32 32" fill="none" xmlns="http://www.w3.org/2000/svg" data-fui-icon="true">
  <path
    fill-rule="evenodd"
    clip-rule="evenodd"
    d="M22.3027 4.33356C24.9221 4.33356 27.1016 6.21114 27.5713 8.69391C30.0546 9.16306 31.9324 11.3437 31.9326 13.9634V22.3033C31.9324 25.2654 29.5315 27.6666 26.5693 27.6666H9.69629C7.07662 27.6662 4.89678 25.7876 4.42773 23.3043C1.94494 22.8347 0.066603 20.656 0.0664062 18.0367V9.69684C0.0665977 6.73495 2.46783 4.33389 5.42969 4.33356H22.3027ZM6.33301 22.3033C6.3332 24.1606 7.83903 25.6662 9.69629 25.6666H26.5693C28.4269 25.6666 29.9324 24.1608 29.9326 22.3033V15.9332H6.33301V22.3033ZM17.2129 20.3336C17.7648 20.334 18.2129 20.7815 18.2129 21.3336C18.2127 21.8854 17.7647 22.3331 17.2129 22.3336H10.667C10.1148 22.3336 9.66716 21.8857 9.66699 21.3336C9.66699 20.7813 10.1147 20.3336 10.667 20.3336H17.2129ZM5.42969 6.33356C3.5724 6.33389 2.0666 7.83952 2.06641 9.69684V18.0367C2.06658 19.5098 3.01442 20.7605 4.33301 21.2154V13.9634C4.3332 11.0016 6.73447 8.60053 9.69629 8.60016H25.4824C25.0277 7.28112 23.7763 6.33356 22.3027 6.33356H5.42969ZM9.69629 10.6002C7.84905 10.6005 6.35029 12.0897 6.33398 13.9332H29.9316C29.9153 12.0895 28.4169 10.6002 26.5693 10.6002H9.69629Z"
    fill="currentColor"
  />
</svg>
