<svg width="32" height="32" viewBox="0 0 32 32" fill="none" xmlns="http://www.w3.org/2000/svg" data-fui-icon="true">
  <path
    d="M24.75 3C28.7541 3 32 6.24594 32 10.25V21.75C32 25.7541 28.7541 29 24.75 29H7.25C3.24594 29 0 25.7541 0 21.75V10.25C0 6.24594 3.24594 3 7.25 3H24.75ZM1.5 12.5V21.75C1.5 24.9256 4.07436 27.5 7.25 27.5H24.75C27.9256 27.5 30.5 24.9256 30.5 21.75V12.5H1.5ZM7.25 4.5C4.07436 4.5 1.5 7.07436 1.5 10.25V11H30.5V10.25C30.5 7.07436 27.9256 4.5 24.75 4.5H7.25Z"
    fill="currentColor"
  />
  <path d="M5.75 22.75H13.25" stroke="currentColor" stroke-width="1.5" stroke-linecap="round" stroke-linejoin="round" />
</svg>
