<svg width="32" height="32" viewBox="0 0 32 32" fill="none" xmlns="http://www.w3.org/2000/svg" data-fui-icon="true">
  <path
    d="M26.75 4.5C29.6493 4.50024 32 6.85065 32 9.75V22.25C32 25.1493 29.6493 27.4998 26.75 27.5H5.25C2.35063 27.4999 0 25.1494 0 22.25V9.75C0 6.8506 2.35063 4.50015 5.25 4.5H26.75ZM2 12.5V22.25C2 24.0448 3.4552 25.4999 5.25 25.5H26.75C28.5447 25.4998 30 24.0448 30 22.25V12.5H2ZM5.25 6.5C3.4552 6.50015 2 7.95517 2 9.75V10.5H30V9.75C30 7.95522 28.5447 6.50024 26.75 6.5H5.25Z"
    fill="currentColor"
  />
</svg>
