<svg width="16" height="16" viewBox="0 0 16 16" fill="none" xmlns="http://www.w3.org/2000/svg" data-fui-icon="true">
  <path
    d="M9.7002 2C10.777 2.00007 11.7103 2.60871 12.1787 3.5H6.2998C3.92513 3.50011 2.00011 5.42514 2 7.7998V10.3428C1.38925 9.82918 1.00006 9.06063 1 8.2002V4.7998C1.00011 3.25356 2.25356 2.00011 3.7998 2H9.7002Z"
    fill="currentColor"
  />
  <path
    d="M15 11.2002C14.9999 12.7464 13.7464 13.9999 12.2002 14H6.2998C4.75356 13.9999 3.50011 12.7464 3.5 11.2002V9H15V11.2002ZM6.25 10.5C5.69772 10.5 5.25 10.9477 5.25 11.5C5.25 12.0523 5.69772 12.5 6.25 12.5H8.25C8.80229 12.5 9.25 12.0523 9.25 11.5C9.25 10.9477 8.80229 10.5 8.25 10.5H6.25ZM12.2002 5C13.4684 5.00009 14.5385 5.84364 14.8828 7H3.61719C3.9615 5.84364 5.03161 5.00009 6.2998 5H12.2002Z"
    fill="currentColor"
  />
</svg>
