<svg width="20" height="20" viewBox="0 0 20 20" fill="none" xmlns="http://www.w3.org/2000/svg" data-fui-icon="true">
  <path
    d="M15.75 11.75C16.3023 11.75 16.75 12.1977 16.75 12.75V14.25H18.25C18.8023 14.25 19.25 14.6977 19.25 15.25C19.25 15.8023 18.8023 16.25 18.25 16.25H16.75V17.75C16.75 18.3023 16.3023 18.75 15.75 18.75C15.1977 18.75 14.75 18.3023 14.75 17.75V16.25H13.25C12.6977 16.25 12.25 15.8023 12.25 15.25C12.25 14.6977 12.6977 14.25 13.25 14.25H14.75V12.75C14.75 12.1977 15.1977 11.75 15.75 11.75ZM15 3C17.2091 3 19 4.79086 19 7V10C19 10.5523 18.5523 11 18 11C17.4477 11 17 10.5523 17 10V9H3V13C3 14.1046 3.89543 15 5 15H9.75C10.3023 15 10.75 15.4477 10.75 16C10.75 16.5523 10.3023 17 9.75 17H5C2.79086 17 1 15.2091 1 13V7C1 4.79086 2.79086 3 5 3H15ZM5 5C3.89543 5 3 5.89543 3 7H17C17 5.89543 16.1046 5 15 5H5Z"
    fill="currentColor"
  />
</svg>
