<svg width="12" height="12" viewBox="0 0 12 12" fill="none" xmlns="http://www.w3.org/2000/svg" data-fui-icon="true">
  <path
    d="M9.5 6.25C10.0523 6.25 10.5 6.69772 10.5 7.25V7.75H11C11.5523 7.75 12 8.19772 12 8.75C12 9.30226 11.5523 9.75 11 9.75H10.5V10.25C10.5 10.8023 10.0523 11.25 9.5 11.25C8.94771 11.25 8.5 10.8023 8.5 10.25V9.75H8C7.44773 9.75 7.00003 9.30226 7 8.75C7 8.19772 7.44772 7.75 8 7.75H8.5V7.25C8.5 6.69772 8.94771 6.25 9.5 6.25ZM9 1.25C10.6569 1.25 12 2.59315 12 4.25V4.75C12 5.30228 11.5523 5.75 11 5.75C10.4477 5.75 10 5.30228 10 4.75V4.25C10 3.69772 9.55229 3.25 9 3.25H3C2.44772 3.25 2 3.69772 2 4.25H7.5C8.05228 4.25 8.5 4.69772 8.5 5.25C8.5 5.80228 8.05228 6.25 7.5 6.25H2V7.75C2 8.30228 2.44772 8.75 3 8.75H5.25C5.80228 8.75 6.25 9.19772 6.25 9.75C6.25 10.3023 5.80228 10.75 5.25 10.75H3C1.34315 10.75 0 9.40685 0 7.75V4.25C0 2.59315 1.34315 1.25 3 1.25H9Z"
    fill="currentColor"
  />
</svg>
