<svg width="32" height="32" viewBox="0 0 32 32" fill="none" xmlns="http://www.w3.org/2000/svg" data-fui-icon="true">
  <path
    d="M26.75 4.5C29.6493 4.50024 32 6.85065 32 9.75V22.25C32 25.1493 29.6493 27.4998 26.75 27.5H5.25C2.35063 27.4999 0 25.1494 0 22.25V9.75C0 6.8506 2.35063 4.50015 5.25 4.5H26.75ZM29.9277 13H2.07129C2.04749 13 2.02352 12.9972 2 12.9961V22.25C2 24.0448 3.4552 25.4999 5.25 25.5H26.75C28.5447 25.4998 30 24.0448 30 22.25V12.9961C29.976 12.9972 29.952 13 29.9277 13ZM14.3926 20.5C14.9448 20.5001 15.3926 20.9478 15.3926 21.5C15.3926 22.0522 14.9448 22.4999 14.3926 22.5H6.35742C5.80514 22.5 5.35742 22.0523 5.35742 21.5C5.35742 20.9477 5.80514 20.5 6.35742 20.5H14.3926ZM5.25 6.5C3.4552 6.50015 2 7.95517 2 9.75V10.0029C2.02351 10.0018 2.04751 10 2.07129 10H29.9277C29.952 10 29.976 10.0018 30 10.0029V9.75C30 7.95522 28.5447 6.50024 26.75 6.5H5.25Z"
    fill="currentColor"
  />
</svg>
