<svg width="24" height="24" viewBox="0 0 24 24" fill="none" xmlns="http://www.w3.org/2000/svg" data-fui-icon="true">
  <path
    fill-rule="evenodd"
    clip-rule="evenodd"
    d="M16.6367 3.31781C18.8133 3.318 20.5844 5.04713 20.6553 7.20648C22.5202 7.55639 23.9314 9.19215 23.9316 11.1586V17.1586C23.9316 19.3803 22.1308 21.182 19.9092 21.1821H7.36328C5.18682 21.1819 3.41477 19.4527 3.34375 17.2934C1.47919 16.9429 0.0683594 15.3066 0.0683594 13.3403V7.34027C0.0686736 5.11894 1.86944 3.31795 4.09082 3.31781H16.6367ZM4.84082 17.1586C4.84082 18.5518 5.97018 19.6819 7.36328 19.6821H19.9092C21.3024 19.682 22.4316 18.5518 22.4316 17.1586V12.4545H4.84082V17.1586ZM12.8184 15.8637C13.2325 15.8638 13.5684 16.1996 13.5684 16.6137C13.5683 17.0278 13.2324 17.3636 12.8184 17.3637H7.90918C7.49501 17.3637 7.15925 17.0279 7.15918 16.6137C7.15918 16.1995 7.49497 15.8637 7.90918 15.8637H12.8184ZM4.09082 4.81781C2.69787 4.81795 1.56867 5.94736 1.56836 7.34027V13.3403C1.56836 14.4723 2.31387 15.4309 3.34082 15.7504V11.1586C3.34104 8.93724 5.14189 7.13636 7.36328 7.13617H19.1484C19.0442 5.83884 17.9608 4.81799 16.6367 4.81781H4.09082ZM7.36328 8.63617C6.03907 8.63635 4.95473 9.65708 4.85059 10.9545H22.4219C22.3177 9.65703 21.2335 8.63626 19.9092 8.63617H7.36328Z"
    fill="currentColor"
  />
</svg>
