<svg width="32" height="32" viewBox="0 0 32 32" fill="none" xmlns="http://www.w3.org/2000/svg" data-fui-icon="true">
  <path
    fill-rule="evenodd"
    clip-rule="evenodd"
    d="M31 22.1597C30.9997 24.8329 28.8325 27.0004 26.1592 27.0005H9.84082C7.16749 27.0004 5.00031 24.8329 5 22.1597V15.5005H31V22.1597ZM9.75 21.5005C9.33579 21.5005 9 21.8363 9 22.2505C9.00026 22.6645 9.33595 23.0005 9.75 23.0005H15.8867C16.3006 23.0003 16.6365 22.6644 16.6367 22.2505C16.6367 21.8364 16.3008 21.5007 15.8867 21.5005H9.75ZM22.25 5.00049C24.2633 5.00049 25.9824 6.25365 26.6738 8.02197C26.504 8.00833 26.3325 8.00049 26.1592 8.00049H9.84082C6.3389 8.00054 3.50005 10.8394 3.5 14.3413V21.9341C2.01185 21.1319 1.00018 19.5595 1 17.7505V10.7505C1 7.57485 3.57436 5.00049 6.75 5.00049H22.25ZM26.1592 9.50049C28.7181 9.50053 30.8123 11.4861 30.9873 14.0005H5.0127C5.18766 11.4861 7.28193 9.50053 9.84082 9.50049H26.1592Z"
    fill="currentColor"
  />
</svg>
