<svg width="12" height="12" viewBox="0 0 12 12" fill="none" xmlns="http://www.w3.org/2000/svg" data-fui-icon="true">
  <path
    fill-rule="evenodd"
    clip-rule="evenodd"
    d="M7.25 0.999512C8.49264 0.999512 9.5 2.00785 9.5 3.25049L9.73047 3.26123C10.8649 3.37663 11.75 4.33564 11.75 5.50049V8.50049C11.7497 9.7429 10.7425 10.7505 9.5 10.7505H4.5C3.335 10.7505 2.37691 9.86458 2.26172 8.72998L2.25 8.50049L2.01953 8.48877C0.885294 8.37339 0.000247326 7.41511 0 6.25049V3.25049C0 2.00785 1.00736 0.999512 2.25 0.999512H7.25ZM3.75 8.50049C3.75026 8.91448 4.08595 9.25049 4.5 9.25049H9.5C9.91405 9.25049 10.2497 8.91448 10.25 8.50049V7.25049H3.75V8.50049ZM2.25 2.50049C1.83579 2.50049 1.5 2.83627 1.5 3.25049V6.25049C1.50025 6.63845 1.79502 6.958 2.17285 6.99658L2.25 7.00049V5.50049C2.25 4.25785 3.25736 3.25049 4.5 3.25049H8C8 2.83627 7.66421 2.50049 7.25 2.50049H2.25ZM4.5 4.75049C4.08579 4.75049 3.75 5.08627 3.75 5.50049V5.75049H10.25V5.50049C10.25 5.08627 9.91421 4.75049 9.5 4.75049H4.5Z"
    fill="currentColor"
  />
</svg>
