<svg width="20" height="20" viewBox="0 0 20 20" fill="none" xmlns="http://www.w3.org/2000/svg" data-fui-icon="true">
  <path
    d="M12.75 3C14.4638 3 15.8668 4.32654 15.9902 6.00879C17.673 6.13174 19 7.53588 19 9.25V13.75C19 15.5449 17.5449 17 15.75 17H7.25C5.53588 17 4.13174 15.673 4.00879 13.9902C2.32654 13.8668 1 12.4638 1 10.75V6.25C1 4.45507 2.45507 3 4.25 3H12.75ZM5.5 13.75C5.5 14.7165 6.2835 15.5 7.25 15.5H15.75C16.7165 15.5 17.5 14.7165 17.5 13.75V10.5H5.5V13.75ZM10.75 12.5C11.1642 12.5 11.5 12.8358 11.5 13.25C11.5 13.6642 11.1642 14 10.75 14H7.75C7.33579 14 7 13.6642 7 13.25C7 12.8358 7.33579 12.5 7.75 12.5H10.75ZM4.25 4.5C3.2835 4.5 2.5 5.2835 2.5 6.25V10.75C2.5 11.6315 3.15212 12.358 4 12.4795V9.25C4 7.45507 5.45507 6 7.25 6H14.4805C14.3591 5.15205 13.6315 4.5 12.75 4.5H4.25ZM7.25 7.5C6.36847 7.5 5.64095 8.15205 5.51953 9H17.4805C17.3591 8.15205 16.6315 7.5 15.75 7.5H7.25Z"
    fill="currentColor"
  />
</svg>
