<svg width="20" height="20" viewBox="0 0 20 20" fill="none" xmlns="http://www.w3.org/2000/svg" data-fui-icon="true">
  <path
    d="M15 2C17.7614 2 20 4.23858 20 7V13C20 15.7614 17.7614 18 15 18H5C2.23858 18 0 15.7614 0 13V7C0 4.23858 2.23858 2 5 2H15ZM2 13C2 14.6569 3.34315 16 5 16H15C16.6569 16 18 14.6569 18 13V9H2V13ZM8.25 12.25C8.80228 12.25 9.25 12.6977 9.25 13.25C9.25 13.8023 8.80228 14.25 8.25 14.25H4.75C4.19772 14.25 3.75 13.8023 3.75 13.25C3.75 12.6977 4.19772 12.25 4.75 12.25H8.25ZM5 4C3.34315 4 2 5.34315 2 7H18C18 5.34315 16.6569 4 15 4H5Z"
    fill="currentColor"
  />
</svg>
