<svg width="24" height="24" viewBox="0 0 24 24" fill="none" xmlns="http://www.w3.org/2000/svg" data-fui-icon="true">
  <path
    d="M18.25 2C21.4256 2 24 4.57436 24 7.75V16.25C24 19.4256 21.4256 22 18.25 22H5.75C2.57436 22 0 19.4256 0 16.25V7.75C2.57711e-07 4.57436 2.57436 2 5.75 2H18.25ZM1.5 16.25C1.5 18.5972 3.40279 20.5 5.75 20.5H18.25C20.5972 20.5 22.5 18.5972 22.5 16.25V9.5H1.5V16.25ZM10.25 16C10.6642 16 11 16.3358 11 16.75C11 17.1642 10.6642 17.5 10.25 17.5H4.75C4.33579 17.5 4 17.1642 4 16.75C4 16.3358 4.33579 16 4.75 16H10.25ZM5.75 3.5C3.40279 3.5 1.5 5.40279 1.5 7.75V8H22.5V7.75C22.5 5.40279 20.5972 3.5 18.25 3.5H5.75Z"
    fill="currentColor"
  />
</svg>
