<svg width="16" height="16" viewBox="0 0 16 16" fill="none" xmlns="http://www.w3.org/2000/svg" data-fui-icon="true">
  <path
    d="M9.9502 2.5C11.3427 2.5001 12.4719 3.61641 12.4971 5.00293C13.8836 5.02805 14.9999 6.15828 15 7.55078V10.9502C14.9997 12.3582 13.8583 13.5009 12.4502 13.501H6.0498C4.65773 13.5009 3.52773 12.384 3.50195 10.998C2.11582 10.9724 1 9.84246 1 8.4502V5.0498C1.00011 3.64163 2.14163 2.50011 3.5498 2.5H9.9502ZM5 10.9502C5.00026 11.5298 5.47016 12.0009 6.0498 12.001H12.4502C13.0298 12.0009 13.4997 11.5298 13.5 10.9502V9.00098H5V10.9502ZM8.75 9.75C9.16421 9.75 9.5 10.0858 9.5 10.5C9.5 10.9142 9.16421 11.25 8.75 11.25H6.75C6.33579 11.25 6 10.9142 6 10.5C6 10.0858 6.33579 9.75 6.75 9.75H8.75ZM3.5498 4C2.97006 4.00011 2.50011 4.47006 2.5 5.0498V8.4502C2.5 9.01331 2.94336 9.47187 3.5 9.49805V7.55078C3.50011 6.14261 4.64163 5.00108 6.0498 5.00098H10.9971C10.9714 4.44394 10.5135 4.0001 9.9502 4H3.5498ZM6.0498 6.50098C5.48662 6.50108 5.02882 6.94417 5.00293 7.50098H13.4971C13.4712 6.94417 13.0134 6.50108 12.4502 6.50098H6.0498Z"
    fill="currentColor"
  />
</svg>
