<svg width="20" height="20" viewBox="0 0 20 20" fill="none" xmlns="http://www.w3.org/2000/svg" data-fui-icon="true">
  <path
    d="M16.75 13.5C17.1642 13.5 17.5 13.8358 17.5 14.25V16H19.25C19.6642 16 20 16.3358 20 16.75C20 17.1642 19.6642 17.5 19.25 17.5H17.5V19.25C17.5 19.6642 17.1642 20 16.75 20C16.3358 20 16 19.6642 16 19.25V17.5H14.25C13.8358 17.5 13.5 17.1642 13.5 16.75C13.5 16.3358 13.8358 16 14.25 16H16V14.25C16 13.8358 16.3358 13.5 16.75 13.5ZM16.25 2.5C18.3211 2.5 20 4.17893 20 6.25V11.75C20 12.1642 19.6642 12.5 19.25 12.5C18.8358 12.5 18.5 12.1642 18.5 11.75V8.5H1.5V13.75C1.5 14.9926 2.50736 16 3.75 16H10.75C11.1642 16 11.5 16.3358 11.5 16.75C11.5 17.1642 11.1642 17.5 10.75 17.5H3.75C1.67893 17.5 1.20798e-08 15.8211 0 13.75V6.25C0 4.17893 1.67893 2.5 3.75 2.5H16.25ZM3.75 4C2.50736 4 1.5 5.00736 1.5 6.25V7H18.5V6.25C18.5 5.00736 17.4926 4 16.25 4H3.75Z"
    fill="currentColor"
  />
</svg>
