<svg width="24" height="24" viewBox="0 0 24 24" fill="none" xmlns="http://www.w3.org/2000/svg" data-fui-icon="true">
  <path
    d="M23.999 16.25C23.999 18.5972 22.0962 20.5 19.749 20.5H4.25C1.90279 20.5 0 18.5972 0 16.25V9.75H23.999V16.25ZM5.14258 15.25C4.72836 15.25 4.39258 15.5858 4.39258 16C4.39258 16.4142 4.72836 16.75 5.14258 16.75H11.1787C11.5929 16.75 11.9287 16.4142 11.9287 16C11.9287 15.5858 11.5929 15.25 11.1787 15.25H5.14258ZM19.749 3.5C22.0962 3.5 23.999 5.40279 23.999 7.75H0C1.28853e-07 5.40279 1.90279 3.5 4.25 3.5H19.749Z"
    fill="currentColor"
  />
</svg>
