<svg width="12" height="12" viewBox="0 0 12 12" fill="none" xmlns="http://www.w3.org/2000/svg" data-fui-icon="true">
  <path
    d="M9 1C10.6569 1 12 2.34315 12 4V8C12 9.65685 10.6569 11 9 11H3C1.34315 11 0 9.65685 0 8V4C0 2.34315 1.34315 1 3 1H9ZM1.5 8C1.5 8.82843 2.17157 9.5 3 9.5H9C9.82843 9.5 10.5 8.82843 10.5 8V5.5H1.5V8ZM5.25 6.75C5.66421 6.75 6 7.08579 6 7.5C6 7.91421 5.66421 8.25 5.25 8.25H3.75C3.33579 8.25 3 7.91421 3 7.5C3 7.08579 3.33579 6.75 3.75 6.75H5.25ZM3 2.5C2.17157 2.5 1.5 3.17157 1.5 4H10.5C10.5 3.17157 9.82843 2.5 9 2.5H3Z"
    fill="currentColor"
  />
</svg>
