<svg width="20" height="20" viewBox="0 0 20 20" fill="none" xmlns="http://www.w3.org/2000/svg" data-fui-icon="true">
  <path
    d="M17.1201 3C18.7106 3.00006 19.9999 4.2894 20 5.87988V14.1201C19.9999 15.7106 18.7106 16.9999 17.1201 17H2.87988C1.2894 16.9999 6.33913e-05 15.7106 0 14.1201V5.87988C6.35203e-05 4.2894 1.2894 3.00006 2.87988 3H17.1201ZM1.5 14C1.5 14.8284 2.17157 15.5 3 15.5H17C17.8284 15.5 18.5 14.8284 18.5 14V9H1.5V14ZM8.25 12C8.66421 12 9 12.3358 9 12.75C9 13.1642 8.66421 13.5 8.25 13.5H4.75C4.33579 13.5 4 13.1642 4 12.75C4 12.3358 4.33579 12 4.75 12H8.25ZM3 4.5C2.17157 4.5 1.5 5.17157 1.5 6V7.5H18.5V6C18.5 5.17157 17.8284 4.5 17 4.5H3Z"
    fill="currentColor"
  />
</svg>
