<svg width="24" height="24" viewBox="0 0 24 24" fill="none" xmlns="http://www.w3.org/2000/svg" data-fui-icon="true">
  <path
    d="M20.4297 3C22.4013 3 24 4.59866 24 6.57031V17.4297C24 19.4013 22.4013 21 20.4297 21H3.57031C1.59866 21 0 19.4013 0 17.4297V6.57031C0 4.59866 1.59866 3 3.57031 3H20.4297ZM1.5 17.4297C1.5 18.5729 2.42708 19.5 3.57031 19.5H20.4297C21.5729 19.5 22.5 18.5729 22.5 17.4297V10H1.5V17.4297ZM9.25 15C9.66421 15 10 15.3358 10 15.75C10 16.1642 9.66421 16.5 9.25 16.5H4.75C4.33579 16.5 4 16.1642 4 15.75C4 15.3358 4.33579 15 4.75 15H9.25ZM3.57031 4.5C2.42708 4.5 1.5 5.42708 1.5 6.57031V8.5H22.5V6.57031C22.5 5.42708 21.5729 4.5 20.4297 4.5H3.57031Z"
    fill="currentColor"
  />
</svg>
