<svg width="16" height="16" viewBox="0 0 16 16" fill="none" xmlns="http://www.w3.org/2000/svg" data-fui-icon="true">
  <path
    d="M12.75 1.5C14.5449 1.5 16 2.95507 16 4.75V11.25C16 13.0449 14.5449 14.5 12.75 14.5H3.25C1.45507 14.5 4.83192e-08 13.0449 0 11.25V4.75C4.832e-08 2.95507 1.45507 1.5 3.25 1.5H12.75ZM1.5 7V11.25C1.5 12.2165 2.2835 13 3.25 13H12.75C13.7165 13 14.5 12.2165 14.5 11.25V7H1.5ZM3.25 3C2.2835 3 1.5 3.7835 1.5 4.75V5.5H14.5V4.75C14.5 3.7835 13.7165 3 12.75 3H3.25Z"
    fill="currentColor"
  />
</svg>
