<svg width="20" height="20" viewBox="0 0 20 20" fill="none" xmlns="http://www.w3.org/2000/svg" data-fui-icon="true">
  <path
    fill-rule="evenodd"
    clip-rule="evenodd"
    d="M13.0547 2.30524C14.939 2.30546 16.4783 3.7834 16.5771 5.64313C18.4374 5.74143 19.9158 7.28189 19.916 9.16656V14.1666C19.9159 16.1145 18.3366 17.6945 16.3887 17.6949H6.94336C5.05885 17.6947 3.51847 16.2161 3.41992 14.356C1.56003 14.2572 0.0820312 12.7171 0.0820312 10.8326V5.83258C0.0824723 3.88487 1.66166 2.30565 3.60938 2.30524H13.0547ZM4.91602 14.1666C4.91616 15.2862 5.82374 16.1947 6.94336 16.1949H16.3887C17.5081 16.1945 18.4159 15.2861 18.416 14.1666V10.4722H4.91602V14.1666ZM10.832 12.8609C11.2462 12.8609 11.5819 13.1968 11.582 13.6109C11.582 14.0251 11.2462 14.3609 10.832 14.3609H7.49902C7.08481 14.3609 6.74902 14.0251 6.74902 13.6109C6.74917 13.1968 7.0849 12.8609 7.49902 12.8609H10.832ZM3.60938 3.80524C2.49009 3.80565 1.58247 4.7133 1.58203 5.83258V10.8326C1.58203 11.887 2.38721 12.7533 3.41602 12.8511V9.16656C3.41625 7.21857 4.99537 5.63946 6.94336 5.63922H15.0732C14.9755 4.61054 14.1089 3.80546 13.0547 3.80524H3.60938ZM6.94336 7.13922C5.88925 7.13944 5.02268 7.9437 4.9248 8.97223H18.4062C18.3084 7.94382 17.4426 7.13961 16.3887 7.13922H6.94336Z"
    fill="currentColor"
  />
</svg>
