<svg width="16" height="16" viewBox="0 0 16 16" fill="none" xmlns="http://www.w3.org/2000/svg" data-fui-icon="true">
  <path
    d="M16 10.5996C16 12.3393 14.5893 13.75 12.8496 13.75H3.15039C1.41069 13.75 0 12.3393 0 10.5996V7H16V10.5996ZM4.22852 9.5C3.81443 9.50015 3.47852 9.83588 3.47852 10.25C3.47852 10.6641 3.81443 10.9998 4.22852 11H7.12793C7.54214 11 7.87793 10.6642 7.87793 10.25C7.87793 9.83579 7.54214 9.5 7.12793 9.5H4.22852ZM12.8496 2.25C14.5893 2.25 16 3.66069 16 5.40039V5.5H0V5.40039C0 3.66069 1.41069 2.25 3.15039 2.25H12.8496Z"
    fill="currentColor"
  />
</svg>
