<svg width="20" height="20" viewBox="0 0 20 20" fill="none" xmlns="http://www.w3.org/2000/svg" data-fui-icon="true">
  <path
    d="M19.999 13.25C19.999 15.321 18.3201 17 16.249 17H3.75C1.67907 16.9998 0 15.321 0 13.25V8.5H19.999V13.25ZM4.1123 12C3.6983 12.0002 3.3623 12.3359 3.3623 12.75C3.3623 13.1641 3.6983 13.4998 4.1123 13.5H8.03613C8.45035 13.5 8.78613 13.1642 8.78613 12.75C8.78613 12.3358 8.45035 12 8.03613 12H4.1123ZM16.249 3C18.3201 3.00004 19.999 4.67896 19.999 6.75V7H0V6.75C0 4.67903 1.67907 3.00017 3.75 3H16.249Z"
    fill="currentColor"
  />
</svg>
