<svg width="12" height="12" viewBox="0 0 12 12" fill="none" xmlns="http://www.w3.org/2000/svg" data-fui-icon="true">
  <path
    d="M9.75 6.5C10.1642 6.5 10.5 6.83579 10.5 7.25V7.75C10.5 7.88807 10.6119 8 10.75 8H11.25C11.6642 8 12 8.33579 12 8.75C12 9.16419 11.6642 9.5 11.25 9.5H10.75C10.6119 9.5 10.5 9.61193 10.5 9.75V10.25C10.5 10.6642 10.1642 11 9.75 11C9.33579 11 9 10.6642 9 10.25V9.75C9 9.61193 8.88807 9.5 8.75 9.5H8.25C7.8358 9.5 7.50003 9.16419 7.5 8.75C7.5 8.33579 7.83579 8 8.25 8H8.75C8.88807 8 9 7.88807 9 7.75V7.25C9 6.83579 9.33579 6.5 9.75 6.5ZM7.63286 5.5C7.86855 5.5 7.99627 5.82471 7.86704 6.02181C7.77551 6.16141 7.69911 6.3118 7.64028 6.47082C7.61126 6.54922 7.54918 6.61129 7.47076 6.64025C6.61238 6.95723 6 7.78147 6 8.75C6.00001 9.20315 6.13429 9.62444 6.36504 9.97704C6.49419 10.1744 6.36617 10.5 6.1303 10.5H2.75C1.23122 10.5 0 9.26878 0 7.75V5.75C0 5.61193 0.111929 5.5 0.25 5.5H7.63286ZM9.25 1.5C10.5907 1.5 11.706 2.45947 11.9493 3.72915C11.9769 3.87346 11.8607 4 11.7137 4H0.28625C0.139316 4 0.023084 3.87346 0.0507367 3.72915C0.294035 2.45947 1.40934 1.5 2.75 1.5H9.25Z"
    fill="currentColor"
  />
</svg>
