<svg width="16" height="16" viewBox="0 0 16 16" fill="none" xmlns="http://www.w3.org/2000/svg" data-fui-icon="true">
  <path
    fill-rule="evenodd"
    clip-rule="evenodd"
    d="M10.2285 1.82166C11.7787 1.82181 13.0361 3.07902 13.0361 4.62927V4.67908H13.085C14.6353 4.67908 15.8926 5.93635 15.8926 7.48669V11.3715C15.8925 12.9218 14.6353 14.1781 13.085 14.1781H5.77148C4.22137 14.1779 2.96392 12.9216 2.96387 11.3715V11.3226H2.91504C1.3648 11.3226 0.107582 10.0652 0.107422 8.51501V4.62927C0.107422 3.07893 1.3647 1.82166 2.91504 1.82166H10.2285ZM4.46387 11.3715C4.46392 12.0932 5.04979 12.6779 5.77148 12.6781H13.085C13.8068 12.6781 14.3925 12.0933 14.3926 11.3715V9.0365H4.46387V11.3715ZM8.85742 10.1068C9.27136 10.107 9.60728 10.4429 9.60742 10.8568C9.60742 11.2709 9.27144 11.6066 8.85742 11.6068H6.57129C6.15714 11.6067 5.82129 11.271 5.82129 10.8568C5.82143 10.4428 6.15723 10.1069 6.57129 10.1068H8.85742ZM2.91504 3.32166C2.19312 3.32166 1.60742 3.90736 1.60742 4.62927V8.51501C1.60758 9.23679 2.19322 9.82263 2.91504 9.82263H2.96387V7.48669C2.96387 5.93649 4.22133 4.6793 5.77148 4.67908H11.5361V4.62927C11.5361 3.90745 10.9503 3.32181 10.2285 3.32166H2.91504ZM5.77148 6.17908C5.04976 6.1793 4.46387 6.76492 4.46387 7.48669V7.5365H14.3926V7.48669C14.3926 6.76478 13.8069 6.17908 13.085 6.17908H5.77148Z"
    fill="currentColor"
  />
</svg>
