<svg width="16" height="16" viewBox="0 0 16 16" fill="none" xmlns="http://www.w3.org/2000/svg" data-fui-icon="true">
  <path
    d="M12.5957 2.25C14.4733 2.2502 15.9951 3.77275 15.9951 5.65039V10.3496C15.9951 12.2273 14.4733 13.7498 12.5957 13.75H3.40039C1.52274 13.7499 0 12.2273 0 10.3496V5.65039C0 3.77271 1.52274 2.25013 3.40039 2.25H12.5957ZM2 7.75V10.3496C2 11.1227 2.62731 11.7499 3.40039 11.75H12.5957C13.3687 11.7498 13.9951 11.1227 13.9951 10.3496V7.75H2ZM3.40039 4.25C2.62731 4.25013 2 4.87727 2 5.65039V5.75H13.9951V5.65039C13.9951 4.87732 13.3687 4.2502 12.5957 4.25H3.40039Z"
    fill="currentColor"
  />
</svg>
