<svg width="20" height="20" viewBox="0 0 20 20" fill="none" xmlns="http://www.w3.org/2000/svg" data-fui-icon="true">
  <path
    d="M16.249 2.5C18.3201 2.5 19.999 4.17893 19.999 6.25V13.75C19.999 15.8211 18.3201 17.5 16.249 17.5H3.75C1.67893 17.5 0 15.8211 0 13.75V6.25C0 4.17893 1.67893 2.5 3.75 2.5H16.249ZM1.5 8.5V13.75C1.5 14.9926 2.50736 16 3.75 16H16.249C17.4917 16 18.499 14.9926 18.499 13.75V8.5H1.5ZM3.75 4C2.50736 4 1.5 5.00736 1.5 6.25V7H18.499V6.25C18.499 5.00736 17.4917 4 16.249 4H3.75Z"
    fill="currentColor"
  />
</svg>
