<svg width="16" height="16" viewBox="0 0 16 16" fill="none" xmlns="http://www.w3.org/2000/svg" data-fui-icon="true">
  <path
    d="M12 8.5C12.5523 8.5 13 8.94772 13 9.5V10.75H14.25C14.8023 10.75 15.25 11.1977 15.25 11.75C15.25 12.3023 14.8023 12.75 14.25 12.75H13V14C13 14.5523 12.5523 15 12 15C11.4477 15 11 14.5523 11 14V12.75H9.75C9.19773 12.75 8.75003 12.3023 8.75 11.75C8.75 11.1977 9.19771 10.75 9.75 10.75H11V9.5C11 8.94772 11.4477 8.5 12 8.5ZM11.5996 2.25C13.4774 2.25 15 3.77262 15 5.65039V6.75C15 7.30228 14.5523 7.75 14 7.75H3V10.3496C3 11.1228 3.62719 11.75 4.40039 11.75H7C7.55228 11.75 8 12.1977 8 12.75C8 13.3023 7.55228 13.75 7 13.75H4.40039C2.52262 13.75 1 12.2274 1 10.3496V5.65039C1 3.77262 2.52262 2.25 4.40039 2.25H11.5996ZM4.40039 4.25C3.62719 4.25 3 4.87719 3 5.65039V5.75H13V5.65039C13 4.87719 12.3728 4.25 11.5996 4.25H4.40039Z"
    fill="currentColor"
  />
</svg>
