<svg width="24" height="24" viewBox="0 0 24 24" fill="none" xmlns="http://www.w3.org/2000/svg" data-fui-icon="true">
  <path
    d="M18.75 14C19.1642 14 19.5 14.3358 19.5 14.75V17.5H22.25C22.6642 17.5 23 17.8358 23 18.25C23 18.6642 22.6642 19 22.25 19H19.5V21.75C19.5 22.1642 19.1642 22.5 18.75 22.5C18.3358 22.5 18 22.1642 18 21.75V19H15.25C14.8358 19 14.5 18.6642 14.5 18.25C14.5 17.8358 14.8358 17.5 15.25 17.5H18V14.75C18 14.3358 18.3358 14 18.75 14ZM18.75 3C21.0972 3 23 4.90279 23 7.25V13.5C23 13.9142 22.6642 14.25 22.25 14.25C21.8358 14.25 21.5 13.9142 21.5 13.5V9H2.5V15.75C2.5 17.2688 3.73122 18.5 5.25 18.5H11.75C12.1642 18.5 12.5 18.8358 12.5 19.25C12.5 19.6642 12.1642 20 11.75 20H5.25C2.90279 20 1 18.0972 1 15.75V7.25C1 4.90279 2.90279 3 5.25 3H18.75ZM5.25 4.5C3.73122 4.5 2.5 5.73122 2.5 7.25V7.5H21.5V7.25C21.5 5.73122 20.2688 4.5 18.75 4.5H5.25Z"
    fill="currentColor"
  />
</svg>
