<svg width="16" height="16" viewBox="0 0 16 16" fill="none" xmlns="http://www.w3.org/2000/svg" data-fui-icon="true">
  <path
    d="M9.94238 1.28546C11.6305 1.28546 12.9996 2.65405 13 4.3421V4.72101C14.5951 4.82415 15.8573 6.15072 15.8574 7.77179V11.6566C15.8574 13.345 14.4882 14.7142 12.7998 14.7142H6.05762C4.3692 14.7142 3 13.345 3 11.6566V11.2776C1.40505 11.1743 0.142578 9.84887 0.142578 8.22784V4.34308C0.142748 2.6549 1.51201 1.28561 3.2002 1.28546H9.94238ZM5 11.6566C5 12.2404 5.47377 12.7142 6.05762 12.7142H12.7998C13.3836 12.7142 13.8574 12.2404 13.8574 11.6566V9.57159H5V11.6566ZM9.42871 10.1429C9.98079 10.1431 10.4287 10.5908 10.4287 11.1429C10.4287 11.695 9.9808 12.1427 9.42871 12.1429H7.14258C6.59042 12.1427 6.14258 11.6951 6.14258 11.1429C6.1426 10.5907 6.59043 10.143 7.14258 10.1429H9.42871ZM3.2002 3.28546C2.61658 3.28561 2.14275 3.75947 2.14258 4.34308V8.22784C2.14258 8.74309 2.512 9.17212 3 9.26593V7.77179C3.00009 6.08346 4.36926 4.71417 6.05762 4.71417H11V4.3421C10.9996 3.75863 10.5259 3.28546 9.94238 3.28546H3.2002ZM6.05762 6.71417C5.54231 6.71417 5.11328 7.08352 5.01953 7.57159H13.8379C13.7441 7.08352 13.3151 6.71417 12.7998 6.71417H6.05762Z"
    fill="currentColor"
  />
</svg>
