<svg width="16" height="16" viewBox="0 0 16 16" fill="none" xmlns="http://www.w3.org/2000/svg" data-fui-icon="true">
  <path
    d="M12 8.75C12.4142 8.75 12.75 9.08579 12.75 9.5V10.75C12.75 10.8881 12.8619 11 13 11H14.25C14.6642 11 15 11.3358 15 11.75C15 12.1642 14.6642 12.5 14.25 12.5H13C12.8619 12.5 12.75 12.6119 12.75 12.75V14C12.75 14.4142 12.4142 14.75 12 14.75C11.5858 14.75 11.25 14.4142 11.25 14V12.75C11.25 12.6119 11.1381 12.5 11 12.5H9.75C9.3358 12.5 9.00003 12.1642 9 11.75C9 11.3358 9.33579 11 9.75 11H11C11.1381 11 11.25 10.8881 11.25 10.75V9.5C11.25 9.08579 11.5858 8.75 12 8.75ZM9.94067 7.5C10.2029 7.5 10.3489 7.9514 10.1924 8.16182C9.96125 8.47267 9.80853 8.84517 9.76371 9.25047C9.74853 9.3877 9.63764 9.49854 9.5004 9.51369C8.37522 9.63787 7.5 10.5917 7.5 11.75C7.50001 12.2032 7.63418 12.6248 7.86483 12.9778C7.99374 13.175 7.86574 13.5 7.63007 13.5H4.15039C2.41069 13.5 1 12.0893 1 10.3496V7.75C1 7.61193 1.11193 7.5 1.25 7.5H9.94067ZM11.8496 2.5C13.5893 2.5 15 3.91069 15 5.65039V5.75C15 5.88807 14.8881 6 14.75 6H1.25C1.11193 6 1 5.88807 1 5.75V5.65039C1 3.91069 2.41069 2.5 4.15039 2.5H11.8496Z"
    fill="currentColor"
  />
</svg>
