<svg width="32" height="32" viewBox="0 0 32 32" fill="none" xmlns="http://www.w3.org/2000/svg" data-fui-icon="true">
  <path
    fill-rule="evenodd"
    clip-rule="evenodd"
    d="M22.5703 4.31696C25.3126 4.31696 27.5503 6.4753 27.6777 9.1861C30.1019 9.58703 31.951 11.6923 31.9512 14.23V22.5699C31.951 25.3939 29.661 27.6832 26.8369 27.6832H9.43066C6.68804 27.6828 4.44981 25.5235 4.32324 22.8121C1.89969 22.4108 0.0510128 20.3074 0.0507812 17.7701V9.43024C0.0509727 6.6064 2.34025 4.31725 5.16406 4.31696H22.5703ZM5.81738 22.5699C5.81753 24.5653 7.43528 26.1828 9.43066 26.1832H26.8369C28.8326 26.1832 30.451 24.5655 30.4512 22.5699V15.4166H5.81738V22.5699ZM16.9473 20.8502C17.3611 20.8506 17.6973 21.1862 17.6973 21.6002C17.6971 22.014 17.361 22.3497 16.9473 22.3502H10.4014C9.98724 22.3502 9.6515 22.0143 9.65137 21.6002C9.65137 21.1859 9.98715 20.8502 10.4014 20.8502H16.9473ZM5.16406 5.81696C3.16868 5.81725 1.55097 7.43483 1.55078 9.43024V17.7701C1.551 19.4737 2.73067 20.9005 4.31738 21.2818V14.23C4.31757 11.4062 6.60688 9.11709 9.43066 9.11676H26.1699C26.0109 7.26783 24.4604 5.81696 22.5703 5.81696H5.16406ZM9.43066 10.6168C7.54088 10.6171 5.99101 12.0679 5.83203 13.9166H30.4365C30.2774 12.0677 28.727 10.6168 26.8369 10.6168H9.43066Z"
    fill="currentColor"
  />
</svg>
