<svg width="24" height="24" viewBox="0 0 24 24" fill="none" xmlns="http://www.w3.org/2000/svg" data-fui-icon="true">
  <path
    d="M24 16.75C24 19.3734 21.8734 21.5 19.25 21.5H4.75C2.12665 21.5 1.20798e-08 19.3734 0 16.75V9.5H24V16.75ZM4.75 15.5C4.33579 15.5 4 15.8358 4 16.25C4 16.6642 4.33579 17 4.75 17H10.25C10.6642 17 11 16.6642 11 16.25C11 15.8358 10.6642 15.5 10.25 15.5H4.75ZM19.25 2.5C21.8734 2.5 24 4.62665 24 7.25V8H0V7.25C0 4.62665 2.12665 2.5 4.75 2.5H19.25Z"
    fill="currentColor"
  />
</svg>
