<svg width="20" height="20" viewBox="0 0 20 20" fill="none" xmlns="http://www.w3.org/2000/svg" data-fui-icon="true">
  <path
    d="M15.75 11.5C16.4404 11.5 17 12.0596 17 12.75V13.75C17 13.8881 17.1119 14 17.25 14H18.25C18.9404 14 19.5 14.5596 19.5 15.25C19.5 15.9403 18.9403 16.5 18.25 16.5H17.25C17.1119 16.5 17 16.6119 17 16.75V17.75C17 18.4404 16.4404 19 15.75 19C15.0596 19 14.5 18.4404 14.5 17.75V16.75C14.5 16.6119 14.3881 16.5 14.25 16.5H13.25C12.5597 16.5 12 15.9403 12 15.25C12 14.5596 12.5596 14 13.25 14H14.25C14.3881 14 14.5 13.8881 14.5 13.75V12.75C14.5 12.0596 15.0596 11.5 15.75 11.5ZM13.1543 9.5C13.4298 9.5 13.5646 10.006 13.363 10.1939C12.921 10.6058 12.586 11.1306 12.4043 11.7232C12.3777 11.8098 12.3098 11.8777 12.2233 11.9042C10.7914 12.343 9.75 13.6744 9.75 15.25C9.75001 15.7337 9.84951 16.1937 10.0277 16.6123C10.1031 16.7895 9.98047 17 9.78783 17H5C2.79086 17 1 15.2091 1 13V9.75C1 9.61193 1.11193 9.5 1.25 9.5H13.1543ZM15 3C16.9423 3 18.5601 4.38449 18.9228 6.22035C18.9519 6.36785 18.835 6.5 18.6847 6.5H1.31535C1.165 6.5 1.04808 6.36785 1.07722 6.22035C1.43989 4.38449 3.05771 3 5 3H15Z"
    fill="currentColor"
  />
</svg>
