<svg width="16" height="16" viewBox="0 0 16 16" fill="none" xmlns="http://www.w3.org/2000/svg" data-fui-icon="true">
  <path
    d="M2.85645 9.03552L16 9.0365V11.3715C15.9999 12.9809 14.6944 14.2855 13.085 14.2855H5.77148C4.1622 14.2853 2.8565 12.9808 2.85645 11.3715V9.03552ZM5.42871 10.9642C5.0145 10.9642 4.67871 11.3 4.67871 11.7142C4.67872 12.1284 5.0145 12.4642 5.42871 12.4642H7.71484C8.1288 12.4639 8.46483 12.1283 8.46484 11.7142C8.46484 11.3002 8.1288 10.9645 7.71484 10.9642H5.42871ZM10.2285 1.71423C11.3096 1.71433 12.2516 2.30454 12.7549 3.17908H5.77148C3.3929 3.1793 1.46387 5.10807 1.46387 7.48669V11.0385C0.590051 10.5352 0.000137739 9.59453 0 8.51404V5.42908C0 3.37773 1.6635 1.71423 3.71484 1.71423H10.2285ZM13.085 4.57166C14.6945 4.57166 16 5.87718 16 7.48669V7.5365H2.85645V7.48669C2.85645 5.87732 4.16216 4.57188 5.77148 4.57166H13.085Z"
    fill="currentColor"
  />
</svg>
