<svg width="32" height="32" viewBox="0 0 32 32" fill="none" xmlns="http://www.w3.org/2000/svg" data-fui-icon="true">
  <path
    d="M32 22.3038C31.9996 25.3025 29.5682 27.7344 26.5693 27.7344H9.69629C6.6978 27.734 4.26698 25.3023 4.2666 22.3038V15.9337H32V22.3038ZM9.59961 21.334C9.01072 21.3343 8.5332 21.8115 8.5332 22.4005C8.53343 22.9892 9.01085 23.4666 9.59961 23.4669H16.1455C16.7343 23.4666 17.2117 22.9892 17.2119 22.4005C17.2119 21.8115 16.7344 21.3343 16.1455 21.334H9.59961ZM22.3027 4.26666C24.1523 4.26666 25.785 5.19219 26.7656 6.60455C26.7004 6.60285 26.635 6.59967 26.5693 6.59967H9.69629C5.63002 6.60004 2.33339 9.89668 2.33301 13.963V22.3028C2.33301 22.3685 2.33618 22.4338 2.33789 22.4991C0.925549 21.5184 3.14697e-05 19.8858 0 18.0362V9.69635C0.000349754 6.69778 2.43111 4.267 5.42969 4.26666H22.3027ZM26.5693 8.53424C29.5582 8.53424 31.9825 10.9487 31.999 13.9337H4.26758C4.28407 10.9489 6.70778 8.53464 9.69629 8.53424H26.5693Z"
    fill="currentColor"
  />
</svg>
