<svg width="20" height="20" viewBox="0 0 20 20" fill="none" xmlns="http://www.w3.org/2000/svg" data-fui-icon="true">
  <path
    d="M15.75 12C16.1642 12 16.5 12.3358 16.5 12.75V14.25C16.5 14.3881 16.6119 14.5 16.75 14.5H18.25C18.6642 14.5 19 14.8358 19 15.25C19 15.6642 18.6642 16 18.25 16H16.75C16.6119 16 16.5 16.1119 16.5 16.25V17.75C16.5 18.1642 16.1642 18.5 15.75 18.5C15.3358 18.5 15 18.1642 15 17.75V16.25C15 16.1119 14.8881 16 14.75 16H13.25C12.8358 16 12.5 15.6642 12.5 15.25C12.5 14.8358 12.8358 14.5 13.25 14.5H14.75C14.8881 14.5 15 14.3881 15 14.25V12.75C15 12.3358 15.3358 12 15.75 12ZM19 12.7772C19 12.9498 18.8285 13.0706 18.6589 13.0385C18.5264 13.0135 18.3898 13 18.25 13C18.1119 13 18 12.8881 18 12.75C18 11.5074 16.9926 10.5 15.75 10.5C14.5074 10.5 13.5 11.5074 13.5 12.75C13.5 12.8881 13.3881 13 13.25 13C12.0074 13 11 14.0074 11 15.25C11 15.7032 11.1342 16.1248 11.3648 16.4778C11.4937 16.675 11.3657 17 11.1301 17H4.75C2.67893 17 1 15.3211 1 13.25V8.75C1 8.61193 1.11193 8.5 1.25 8.5H18.75C18.8881 8.5 19 8.61193 19 8.75V12.7772ZM15.25 3C17.3211 3 19 4.67893 19 6.75C19 6.88807 18.8881 7 18.75 7H1.25C1.11193 7 1 6.88807 1 6.75C1 4.67893 2.67893 3 4.75 3H15.25Z"
    fill="currentColor"
  />
</svg>
