<svg width="32" height="32" viewBox="0 0 32 32" fill="none" xmlns="http://www.w3.org/2000/svg" data-fui-icon="true">
  <path
    d="M32 22.5699C31.9998 25.4216 29.6876 27.733 26.8359 27.733H9.42969C6.57826 27.7326 4.26675 25.4214 4.2666 22.5699V15.4166H32V22.5699ZM9.33301 21.9166C8.91895 21.9167 8.58301 22.2525 8.58301 22.6666C8.58301 23.0807 8.91894 23.4164 9.33301 23.4166H15.8789C16.2929 23.4163 16.6289 23.0806 16.6289 22.6666C16.6289 22.2525 16.2929 21.9168 15.8789 21.9166H9.33301ZM22.666 4.26715C24.8135 4.26715 26.648 5.60363 27.3857 7.48981C27.2044 7.47522 27.021 7.46637 26.8359 7.46637H9.42969C5.69464 7.4667 2.66621 10.495 2.66602 14.23V22.3287C1.07899 21.473 0.000142508 19.7961 0 17.8668V10.4C0.000175488 7.01294 2.74581 4.26743 6.13281 4.26715H22.666ZM26.8359 9.06696C29.5823 9.06696 31.827 11.211 31.9893 13.9166H4.27734C4.43958 11.2112 6.68358 9.06728 9.42969 9.06696H26.8359Z"
    fill="currentColor"
  />
</svg>
