<svg width="16" height="16" viewBox="0 0 16 16" fill="none" xmlns="http://www.w3.org/2000/svg" data-fui-icon="true">
  <path
    d="M12.8496 2.25C14.5893 2.25 16 3.66069 16 5.40039V10.5996C16 12.3393 14.5893 13.75 12.8496 13.75H3.15039C1.41069 13.75 0 12.3393 0 10.5996V5.40039C0 3.66069 1.41069 2.25 3.15039 2.25H12.8496ZM1.5 7V10.5996C1.5 11.5109 2.23912 12.25 3.15039 12.25H12.8496C13.7609 12.25 14.5 11.5109 14.5 10.5996V7H1.5ZM3.15039 3.75C2.23912 3.75 1.5 4.48912 1.5 5.40039V5.5H14.5V5.40039C14.5 4.48912 13.7609 3.75 12.8496 3.75H3.15039Z"
    fill="currentColor"
  />
</svg>
