<svg width="32" height="32" viewBox="0 0 32 32" fill="none" xmlns="http://www.w3.org/2000/svg" data-fui-icon="true">
  <path
    d="M31 21.75C31 24.9256 28.4256 27.5 25.25 27.5H6.75C3.67361 27.5 1.16183 25.084 1.00781 22.0459L1 21.75V12.5H31V21.75ZM6.75 20.5C6.33579 20.5 6 20.8358 6 21.25C6 21.6642 6.33579 22 6.75 22H14.25C14.6642 22 15 21.6642 15 21.25C15 20.8358 14.6642 20.5 14.25 20.5H6.75ZM25.25 4.5C28.4256 4.5 31 7.07436 31 10.25V11H1V10.25C1 7.07436 3.57436 4.5 6.75 4.5H25.25Z"
    fill="currentColor"
  />
</svg>
