<svg width="24" height="24" viewBox="0 0 24 24" fill="none" xmlns="http://www.w3.org/2000/svg" data-fui-icon="true">
  <path
    d="M3.44444 18.3333V21C3.44444 21.5523 3.89216 22 4.44444 22H19.5556C20.1078 22 20.5556 21.5523 20.5556 21V18.3333M3.44444 18.3333H20.5556M3.44444 18.3333L1.5472 6.00123C1.39311 4.99967 2.65506 4.43052 3.30379 5.20899L6.13226 8.60316C6.59393 9.15716 7.4724 9.0552 7.79491 8.41018L11.1056 1.78886C11.4741 1.05181 12.5259 1.05181 12.8944 1.78885L16.2051 8.41018C16.5276 9.0552 17.4061 9.15716 17.8677 8.60316L20.6962 5.20899C21.3449 4.43052 22.6069 4.99967 22.4528 6.00124L20.5556 18.3333"
    stroke="currentColor"
    stroke-width="2"
  />
</svg>
