<svg width="12" height="12" viewBox="0 0 12 12" fill="none" xmlns="http://www.w3.org/2000/svg" data-fui-icon="true">
  <path
    d="M5.00098 0.577759C5.61978 0.220493 6.38217 0.220493 7.00098 0.577759L10.1973 2.42249C10.816 2.77976 11.1973 3.4404 11.1973 4.15491V7.84534C11.1972 8.55984 10.816 9.22051 10.1973 9.57776L7.00098 11.4225C6.38217 11.7798 5.61978 11.7798 5.00098 11.4225L1.80469 9.57776C1.18591 9.22051 0.804717 8.55984 0.804688 7.84534V4.15491C0.804688 3.4404 1.18592 2.77976 1.80469 2.42249L5.00098 0.577759ZM9.05664 4.25354C8.78259 3.77425 8.1718 3.60762 7.69238 3.88147L6.00098 4.84729L4.30957 3.88147C3.83015 3.60762 3.21936 3.77425 2.94531 4.25354C2.67133 4.73301 2.83797 5.34375 3.31738 5.6178L5.00098 6.57971V8.49963C5.00098 9.05192 5.44869 9.49963 6.00098 9.49963C6.55326 9.49963 7.00098 9.05192 7.00098 8.49963V6.57971L8.68457 5.6178C9.16398 5.34375 9.33062 4.73301 9.05664 4.25354Z"
    fill="currentColor"
  />
</svg>
