<svg width="12" height="12" viewBox="0 0 12 12" fill="none" xmlns="http://www.w3.org/2000/svg" data-fui-icon="true">
  <path
    fill-rule="evenodd"
    clip-rule="evenodd"
    d="M5.00098 0.577825C5.61978 0.220559 6.38217 0.220559 7.00098 0.577825L10.1973 2.42255C10.816 2.77982 11.1973 3.44046 11.1973 4.15497V7.8454C11.1972 8.5599 10.816 9.22057 10.1973 9.57782L7.00098 11.4226C6.38217 11.7798 5.61978 11.7798 5.00098 11.4226L1.80469 9.57782C1.18591 9.22057 0.804717 8.5599 0.804688 7.8454V4.15497C0.804688 3.44046 1.18592 2.77982 1.80469 2.42255L5.00098 0.577825ZM9.05664 4.25361C8.78259 3.77432 8.1718 3.60768 7.69238 3.88154L6.00098 4.84736L4.30957 3.88154C3.83015 3.60768 3.21936 3.77432 2.94531 4.25361C2.67133 4.73308 2.83797 5.34382 3.31738 5.61786L5.00098 6.57978V8.4997C5.00098 9.05198 5.44869 9.4997 6.00098 9.4997C6.55326 9.4997 7.00098 9.05198 7.00098 8.4997V6.57978L8.68457 5.61786C9.16398 5.34382 9.33062 4.73308 9.05664 4.25361Z"
    fill="currentColor"
  />
</svg>
