<svg width="24" height="24" viewBox="0 0 24 24" fill="none" xmlns="http://www.w3.org/2000/svg" data-fui-icon="true">
  <path
    fill-rule="evenodd"
    clip-rule="evenodd"
    d="M9.5 1.44331C11.047 0.550148 12.953 0.550148 14.5 1.44331L19.8926 4.55659C21.4394 5.44978 22.3926 7.10044 22.3926 8.88667V15.1132L22.3809 15.4462C22.2705 17.1027 21.3428 18.6059 19.8926 19.4433L14.5 22.5566L14.2061 22.7138C12.8156 23.3976 11.1844 23.3976 9.79395 22.7138L9.5 22.5566L4.10742 19.4433C2.6572 18.6059 1.72948 17.1027 1.61914 15.4462L1.60742 15.1132V8.88667C1.60743 7.21206 2.44493 5.65621 3.82422 4.73237L4.10742 4.55659L9.5 1.44331ZM13.5 3.17573C12.5718 2.63983 11.4282 2.63983 10.5 3.17573L5.10742 6.28901C4.17946 6.82496 3.60743 7.81503 3.60742 8.88667V15.1132C3.60745 16.1848 4.17946 17.1749 5.10742 17.7109L10.5 20.8242C11.4282 21.36 12.5718 21.36 13.5 20.8242L18.8926 17.7109C19.8205 17.1749 20.3925 16.1848 20.3926 15.1132V8.88667C20.3926 7.81503 19.8205 6.82496 18.8926 6.28901L13.5 3.17573ZM16.7539 8.13178C17.2334 7.85777 17.8442 8.02434 18.1182 8.50385C18.3921 8.98337 18.2256 9.59411 17.7461 9.86811L13 12.58V17.9999C13 18.5522 12.5523 18.9999 12 18.9999C11.4477 18.9999 11 18.5522 11 17.9999V12.58L6.25391 9.86811C5.7744 9.59411 5.60786 8.98337 5.88184 8.50385C6.15585 8.02434 6.76658 7.85777 7.24609 8.13178L12 10.8476L16.7539 8.13178Z"
    fill="currentColor"
  />
</svg>
