<svg width="16" height="16" viewBox="0 0 16 16" fill="none" xmlns="http://www.w3.org/2000/svg" data-fui-icon="true">
  <path
    d="M8 0.25C8.51524 0.25 9.02151 0.387546 9.46582 0.648438L14.0303 3.3291C14.7857 3.77268 15.2499 4.58297 15.25 5.45898V10.541C15.2499 11.417 14.7857 12.2273 14.0303 12.6709L9.46582 15.3516C9.02151 15.6125 8.51524 15.75 8 15.75C7.48476 15.75 6.97849 15.6125 6.53418 15.3516L1.96973 12.6709C1.2143 12.2273 0.750101 11.417 0.75 10.541V5.45898C0.750099 4.58297 1.2143 3.77268 1.96973 3.3291L6.53418 0.648438C6.97849 0.387546 7.48476 0.25 8 0.25ZM8 2.25C7.84081 2.25 7.68415 2.29244 7.54688 2.37305L2.98242 5.05371C2.83864 5.13814 2.7501 5.29226 2.75 5.45898V10.541C2.7501 10.7077 2.83864 10.8619 2.98242 10.9463L7.54688 13.627C7.68415 13.7076 7.84081 13.75 8 13.75C8.15919 13.75 8.31585 13.7076 8.45312 13.627L13.0176 10.9463C13.1614 10.8619 13.2499 10.7077 13.25 10.541V5.45898C13.2499 5.29226 13.1614 5.13814 13.0176 5.05371L8.45312 2.37305C8.31585 2.29244 8.15919 2.25 8 2.25ZM10.5 5.2373C10.9781 4.96129 11.59 5.12555 11.8662 5.60352C12.1423 6.08179 11.9783 6.6936 11.5 6.96973L8.99512 8.41504V11.5C8.99509 12.0523 8.54739 12.5 7.99512 12.5C7.44289 12.5 6.99514 12.0522 6.99512 11.5V8.41309L4.49902 6.97363C4.02087 6.69762 3.85702 6.0857 4.13281 5.60742C4.40888 5.12921 5.02072 4.96525 5.49902 5.24121L7.99609 6.68164L10.5 5.2373Z"
    fill="currentColor"
  />
</svg>
