<svg width="16" height="16" viewBox="0 0 16 16" fill="none" xmlns="http://www.w3.org/2000/svg" data-fui-icon="true">
  <path
    fill-rule="evenodd"
    clip-rule="evenodd"
    d="M6.5 0.865637C7.42812 0.329862 8.57188 0.329862 9.5 0.865637L13.4277 3.13419C14.3559 3.67006 14.9277 4.66012 14.9277 5.73185V10.268C14.9277 11.3398 14.3559 12.3297 13.4277 12.8656L9.5 15.1342C8.57185 15.67 7.42815 15.67 6.5 15.1342L2.57227 12.8656C1.64408 12.3297 1.07228 11.3398 1.07227 10.268V5.73185C1.07233 4.66012 1.64412 3.67006 2.57227 3.13419L6.5 0.865637ZM12.3682 5.50431C12.0942 5.02479 11.4834 4.85823 11.0039 5.13224L8 6.84806L4.99609 5.13224C4.51658 4.85823 3.90585 5.02479 3.63184 5.50431C3.35808 5.98378 3.52449 6.59462 4.00391 6.86857L7 8.58048V12.0004C7.00023 12.5525 7.44786 13.0004 8 13.0004C8.55214 13.0004 8.99977 12.5525 9 12.0004V8.58048L11.9961 6.86857C12.4755 6.59462 12.6419 5.98378 12.3682 5.50431Z"
    fill="currentColor"
  />
</svg>
