<svg width="16" height="16" viewBox="0 0 16 16" fill="none" xmlns="http://www.w3.org/2000/svg" data-fui-icon="true">
  <path
    d="M8.00013 7.99996V13.6666M8.00013 7.99996L3 5.18745M8.00013 7.99996L12.8418 5.27644M13.5 5.68599V10.3139C13.5 10.7956 13.2402 11.2398 12.8203 11.476L8.65367 13.8198C8.2478 14.0481 7.7522 14.0481 7.34633 13.8198L3.17965 11.476C2.75981 11.2398 2.5 10.7956 2.5 10.3139V5.68599C2.5 5.2043 2.75981 4.76005 3.17965 4.52389L7.34633 2.18015C7.7522 1.95183 8.2478 1.95183 8.65367 2.18015L12.8203 4.52389C13.2402 4.76005 13.5 5.2043 13.5 5.68599Z"
    stroke="currentColor"
    stroke-width="1.5"
    stroke-linecap="round"
    stroke-linejoin="round"
  />
</svg>
