<svg width="20" height="21" viewBox="0 0 20 21" fill="none" xmlns="http://www.w3.org/2000/svg" data-fui-icon="true">
  <path
    d="M10 0C10.6332 0 11.2538 0.179238 11.7891 0.517578L17.8711 4.3623C18.7294 4.90485 19.25 5.84981 19.25 6.86523V13.6348C19.25 14.6502 18.7294 15.5951 17.8711 16.1377L11.7891 19.9824C11.2538 20.3208 10.6332 20.5 10 20.5C9.36677 20.5 8.7462 20.3208 8.21094 19.9824L2.12891 16.1377C1.27058 15.5951 0.75 14.6502 0.75 13.6348V6.86523C0.75 5.84981 1.27058 4.90485 2.12891 4.3623L8.21094 0.517578C8.7462 0.179238 9.36677 0 10 0ZM10 2C9.7451 2 9.49575 2.0728 9.28027 2.20898L3.19727 6.05371C2.91893 6.22977 2.75 6.53587 2.75 6.86523V13.6348C2.75 13.9641 2.91893 14.2702 3.19727 14.4463L9.28027 18.291C9.49575 18.4272 9.7451 18.5 10 18.5C10.2549 18.5 10.5043 18.4272 10.7197 18.291L16.8027 14.4463C17.0811 14.2702 17.25 13.9641 17.25 13.6348V6.86523C17.25 6.53587 17.0811 6.22977 16.8027 6.05371L10.7197 2.20898C10.5043 2.0728 10.2549 2 10 2ZM14.3223 6.55664C14.8079 6.2938 15.4148 6.47533 15.6777 6.96094C15.9404 7.44662 15.7601 8.05358 15.2744 8.31641L10.9941 10.6318V15.7168C10.9941 16.2689 10.5462 16.7165 9.99414 16.7168C9.44186 16.7168 8.99414 16.2691 8.99414 15.7168V10.6289L4.71973 8.31641C4.23408 8.05358 4.0537 7.44662 4.31641 6.96094C4.57932 6.47533 5.18621 6.2938 5.67188 6.55664L9.99609 8.89746L14.3223 6.55664Z"
    fill="currentColor"
  />
</svg>
