<svg width="12" height="12" viewBox="0 0 12 12" fill="none" xmlns="http://www.w3.org/2000/svg" data-fui-icon="true">
  <path
    d="M6 0C6.39453 0 6.78106 0.109822 7.11719 0.316406L10.6172 2.46777C11.1656 2.80489 11.5 3.40217 11.5 4.0459V7.9541C11.5 8.59783 11.1656 9.19511 10.6172 9.53223L7.11719 11.6836C6.78106 11.8902 6.39453 12 6 12C5.60547 12 5.21894 11.8902 4.88281 11.6836L1.38281 9.53223C0.834408 9.19511 0.5 8.59783 0.5 7.9541V4.0459C0.500002 3.40217 0.83441 2.80489 1.38281 2.46777L4.88281 0.316406C5.21894 0.109822 5.60547 0 6 0ZM3.83984 3.93652C3.47571 3.73949 3.02051 3.87433 2.82324 4.23828C2.62623 4.60249 2.76186 5.05771 3.12598 5.25488L5.24609 6.40234V8.93164C5.24609 9.34585 5.58188 9.68164 5.99609 9.68164C6.41012 9.68142 6.74609 9.34572 6.74609 8.93164V6.4043L8.87012 5.25488C9.23401 5.05773 9.36957 4.60239 9.17285 4.23828C8.97561 3.87438 8.52036 3.7396 8.15625 3.93652L5.99805 5.10352L3.83984 3.93652Z"
    fill="currentColor"
  />
</svg>
