<svg
  width="32"
  height="32"
  viewBox="0 0 32 32"
  fill="none"
  xmlns="http://www.w3.org/2000/svg"
  data-fui-icon="true"
>
  <path
    fill-rule="evenodd"
    clip-rule="evenodd"
    d="M14.5499 3.42363C14.9862 3.14693 15.4921 3 16.0087 3C16.5253 3 17.0312 3.14693 17.4674 3.42363L26.4552 9.12469C27.1058 9.53737 27.5 10.2542 27.5 11.0247V20.9753C27.5 21.7458 27.1058 22.4626 26.4552 22.8753L17.4674 28.5764C17.0312 28.8531 16.5253 29 16.0087 29C15.4921 29 14.9862 28.8531 14.5499 28.5764L5.5622 22.8753C4.9116 22.4626 4.5174 21.7458 4.5174 20.9753V11.0247C4.5174 10.2542 4.9116 9.53737 5.5622 9.12469L14.5499 3.42363ZM16.0087 1.5C15.2076 1.5 14.423 1.72785 13.7465 2.15697L4.75873 7.85802C3.67441 8.54583 3.0174 9.74062 3.0174 11.0247V20.9753C3.0174 22.2594 3.67441 23.4542 4.75874 24.142L13.7465 29.843C14.423 30.2721 15.2076 30.5 16.0087 30.5C16.8098 30.5 17.5944 30.2721 18.2709 29.843L27.2587 24.142C28.343 23.4542 29 22.2594 29 20.9753V11.0247C29 9.74062 28.343 8.54583 27.2587 7.85802L18.2709 2.15697C17.5944 1.72785 16.8098 1.5 16.0087 1.5ZM23.4863 12.4849L16.7493 16.131V24.1123C16.7493 24.5265 16.4135 24.8623 15.9993 24.8623C15.5851 24.8623 15.2493 24.5265 15.2493 24.1123V16.1255L8.52236 12.4849C8.15807 12.2877 8.02258 11.8326 8.21974 11.4683C8.41689 11.104 8.87202 10.9685 9.23631 11.1657L16.0043 14.8285L22.7724 11.1657C23.1366 10.9685 23.5918 11.104 23.7889 11.4683C23.9861 11.8326 23.8506 12.2877 23.4863 12.4849Z"
    fill="currentColor"
  />
</svg>
