<svg width="32" height="32" viewBox="0 0 32 32" fill="none" xmlns="http://www.w3.org/2000/svg" data-fui-icon="true">
  <path
    fill-rule="evenodd"
    clip-rule="evenodd"
    d="M13.001 1.73244C14.8574 0.66064 17.1446 0.66064 19.001 1.73244L26.8574 6.26857C28.7136 7.34033 29.8573 9.32052 29.8574 11.4639V20.5361C29.8574 22.6797 28.7138 24.6607 26.8574 25.7324L19.001 30.2686C17.1447 31.3402 14.8573 31.3402 13.001 30.2686L5.14453 25.7324C3.28815 24.6607 2.14457 22.6797 2.14453 20.5361V11.4639C2.14466 9.32052 3.28837 7.34033 5.14453 6.26857L13.001 1.73244ZM25.6191 10.5039C25.3451 10.0245 24.7344 9.85791 24.2549 10.1319L16.001 14.8477L7.74707 10.1319C7.2676 9.85791 6.65684 10.0245 6.38281 10.5039C6.10881 10.9834 6.27541 11.5942 6.75488 11.8682L15.001 16.5801V26C15.001 26.5523 15.4487 27 16.001 27C16.5533 27 17.001 26.5523 17.001 26V16.5801L25.2471 11.8682C25.7265 11.5942 25.8931 10.9834 25.6191 10.5039Z"
    fill="currentColor"
  />
</svg>
