<svg width="16" height="16" viewBox="0 0 16 16" fill="none" xmlns="http://www.w3.org/2000/svg" data-fui-icon="true">
  <path
    d="M6.5 0.865601C7.42812 0.329826 8.57188 0.329826 9.5 0.865601L13.4277 3.13416C14.3559 3.67002 14.9277 4.66009 14.9277 5.73181V10.2679C14.9277 11.3397 14.3559 12.3297 13.4277 12.8656L9.5 15.1342C8.57185 15.67 7.42815 15.67 6.5 15.1342L2.57227 12.8656C1.64408 12.3297 1.07228 11.3397 1.07227 10.2679V5.73181C1.07233 4.66009 1.64412 3.67002 2.57227 3.13416L6.5 0.865601ZM12.3682 5.50427C12.0942 5.02476 11.4834 4.85819 11.0039 5.1322L8 6.84802L4.99609 5.1322C4.51658 4.85819 3.90585 5.02476 3.63184 5.50427C3.35808 5.98374 3.52449 6.59458 4.00391 6.86853L7 8.58044V12.0004C7.00023 12.5525 7.44786 13.0004 8 13.0004C8.55214 13.0004 8.99977 12.5525 9 12.0004V8.58044L11.9961 6.86853C12.4755 6.59458 12.6419 5.98374 12.3682 5.50427Z"
    fill="currentColor"
  />
</svg>
