<svg width="12" height="12" viewBox="0 0 12 12" fill="none" xmlns="http://www.w3.org/2000/svg" data-fui-icon="true">
  <path
    fill-rule="evenodd"
    clip-rule="evenodd"
    d="M5.00098 0.577825C5.61978 0.220559 6.38217 0.220559 7.00098 0.577825L10.1973 2.42255C10.816 2.77982 11.1973 3.44046 11.1973 4.15497V7.8454C11.1972 8.5599 10.816 9.22057 10.1973 9.57782L7.00098 11.4226C6.38217 11.7798 5.61978 11.7798 5.00098 11.4226L1.80469 9.57782C1.18591 9.22057 0.804717 8.5599 0.804688 7.8454V4.15497C0.804688 3.44046 1.18592 2.77982 1.80469 2.42255L5.00098 0.577825ZM8.83984 4.37763C8.63432 4.01826 8.17593 3.89307 7.81641 4.09833L6.00098 5.13544L4.18555 4.09833C3.82603 3.89307 3.36764 4.01826 3.16211 4.37763C2.95671 4.73721 3.08191 5.19554 3.44141 5.40107L5.25098 6.43427V8.4997C5.25098 8.91391 5.58676 9.2497 6.00098 9.2497C6.41519 9.2497 6.75098 8.91391 6.75098 8.4997V6.43427L8.56055 5.40107C8.92004 5.19554 9.04524 4.73721 8.83984 4.37763Z"
    fill="currentColor"
  />
</svg>
