<svg width="20" height="20" viewBox="0 0 20 20" fill="none" xmlns="http://www.w3.org/2000/svg" data-fui-icon="true">
  <path
    d="M8 1.15466C9.23751 0.440266 10.7625 0.440266 12 1.15466L16.6602 3.84607C17.8976 4.56063 18.6602 5.88097 18.6602 7.30994V12.6908C18.66 14.1197 17.8976 15.4402 16.6602 16.1547L12 18.8461L11.7646 18.9711C10.6524 19.5181 9.34764 19.5181 8.23535 18.9711L8 18.8461L3.33984 16.1547C2.17971 15.4848 1.43699 14.2825 1.34863 12.9574L1.33984 12.6908V7.30994C1.33984 5.97028 2.0099 4.72578 3.11328 3.98669L3.33984 3.84607L8 1.15466ZM11.25 2.45447C10.4765 2.00789 9.5235 2.00789 8.75 2.45447L4.08984 5.1449C3.31643 5.5915 2.83984 6.41683 2.83984 7.30994V12.6908C2.83996 13.5838 3.31644 14.4093 4.08984 14.8558L8.75 17.5463C9.52343 17.9927 10.4766 17.9927 11.25 17.5463L15.9102 14.8558C16.6836 14.4093 17.16 13.5838 17.1602 12.6908V7.30994C17.1602 6.41683 16.6836 5.5915 15.9102 5.1449L11.25 2.45447ZM14.0029 6.849C14.3626 6.64358 14.8209 6.76869 15.0264 7.1283C15.2316 7.48788 15.1066 7.94629 14.7471 8.15173L10.75 10.4349V15.0004C10.7498 15.4144 10.4141 15.7504 10 15.7504C9.5859 15.7504 9.25018 15.4144 9.25 15.0004V10.4349L5.25293 8.15173C4.89341 7.94629 4.76841 7.48788 4.97363 7.1283C5.17912 6.76869 5.63745 6.64358 5.99707 6.849L10 9.13611L14.0029 6.849Z"
    fill="currentColor"
  />
</svg>
