<svg width="16" height="16" viewBox="0 0 16 16" fill="none" xmlns="http://www.w3.org/2000/svg" data-fui-icon="true">
  <path
    fill-rule="evenodd"
    clip-rule="evenodd"
    d="M6.5 0.865637C7.42812 0.329862 8.57188 0.329862 9.5 0.865637L13.4277 3.13419C14.3559 3.67006 14.9277 4.66012 14.9277 5.73185V10.268C14.9277 11.3398 14.3559 12.3297 13.4277 12.8656L9.5 15.1342C8.57185 15.67 7.42815 15.67 6.5 15.1342L2.57227 12.8656C1.64408 12.3297 1.07228 11.3398 1.07227 10.268V5.73185C1.07233 4.66012 1.64412 3.67006 2.57227 3.13419L6.5 0.865637ZM12.1514 5.62833C11.9459 5.26873 11.4876 5.14361 11.1279 5.34904L8 7.13615L4.87207 5.34904C4.51245 5.14361 4.05412 5.26873 3.84863 5.62833C3.64346 5.98791 3.76843 6.44634 4.12793 6.65177L7.25 8.43497V12.0004C7.25023 12.4144 7.58593 12.7504 8 12.7504C8.41407 12.7504 8.74977 12.4144 8.75 12.0004V8.43497L11.8721 6.65177C12.2316 6.44634 12.3565 5.98791 12.1514 5.62833Z"
    fill="currentColor"
  />
</svg>
