<svg width="20" height="21" viewBox="0 0 20 21" fill="none" xmlns="http://www.w3.org/2000/svg" data-fui-icon="true">
  <path
    d="M10 0C10.6332 0 11.2538 0.179238 11.7891 0.517578L17.8711 4.3623C18.7294 4.90485 19.25 5.84981 19.25 6.86523V13.6348C19.25 14.6502 18.7294 15.5951 17.8711 16.1377L11.7891 19.9824C11.2538 20.3208 10.6332 20.5 10 20.5C9.36677 20.5 8.74621 20.3208 8.21094 19.9824L2.12891 16.1377C1.27058 15.5951 0.75 14.6502 0.75 13.6348V6.86523C0.75 5.84981 1.27058 4.90485 2.12891 4.3623L8.21094 0.517578C8.7462 0.179238 9.36677 0 10 0ZM15.7871 6.90137C15.4913 6.35515 14.8081 6.15159 14.2617 6.44727L9.99414 8.75488L5.73047 6.44727C5.18411 6.15187 4.50073 6.35508 4.20508 6.90137C3.91001 7.4475 4.11338 8.13003 4.65918 8.42578L8.86816 10.7031V15.7178C8.86858 16.3385 9.37239 16.8424 9.99316 16.8428C10.6142 16.8428 11.1177 16.3387 11.1182 15.7178V10.7061L15.333 8.42578C15.8792 8.13011 16.0824 7.44768 15.7871 6.90137Z"
    fill="currentColor"
  />
</svg>
