<svg width="16" height="16" viewBox="0 0 16 16" fill="none" xmlns="http://www.w3.org/2000/svg" data-fui-icon="true">
  <path
    fill-rule="evenodd"
    clip-rule="evenodd"
    d="M6.5 0.866645C7.4282 0.330747 8.5718 0.330747 9.5 0.866645L13.4277 3.13422C14.3558 3.67015 14.9277 4.66113 14.9277 5.73286V10.268C14.9276 11.3396 14.3558 12.3308 13.4277 12.8666L9.5 15.1342C8.57189 15.67 7.42811 15.67 6.5 15.1342L2.57227 12.8666C1.70216 12.3643 1.14444 11.462 1.07812 10.4682L1.07227 10.268V5.73286C1.07227 4.72795 1.57456 3.79397 2.40234 3.23969L2.57227 3.13422L6.5 0.866645ZM8.5 2.59809C8.19069 2.4196 7.80931 2.4196 7.5 2.59809L3.57227 4.86665C3.26297 5.0453 3.07227 5.37566 3.07227 5.73286V10.268C3.07241 10.6251 3.26299 10.9557 3.57227 11.1342L7.5 13.4028C7.80922 13.5811 8.19079 13.5811 8.5 13.4028L12.4277 11.1342C12.737 10.9557 12.9276 10.6251 12.9277 10.268V5.73286C12.9277 5.37566 12.737 5.0453 12.4277 4.86665L8.5 2.59809ZM10.3477 5.50727C10.8272 5.23326 11.4379 5.39982 11.7119 5.87934C11.9857 6.35881 11.8193 6.96965 11.3398 7.2436L9 8.58051V11.2504C8.99977 11.8025 8.55215 12.2504 8 12.2504C7.44786 12.2504 7.00023 11.8025 7 11.2504V8.58051L4.66016 7.2436C4.18074 6.96965 4.01433 6.35881 4.28809 5.87934C4.5621 5.39982 5.17283 5.23326 5.65234 5.50727L8 6.84809L10.3477 5.50727Z"
    fill="currentColor"
  />
</svg>
