<svg width="32" height="32" viewBox="0 0 32 32" fill="none" xmlns="http://www.w3.org/2000/svg" data-fui-icon="true">
  <path
    d="M16.0088 1.5C16.8099 1.5 17.595 1.72811 18.2715 2.15723L27.2588 7.8584C28.343 8.54617 28.9999 9.7405 29 11.0244V20.9756C28.9999 22.2595 28.343 23.4538 27.2588 24.1416L18.2715 29.8428C17.595 30.2719 16.8099 30.5 16.0088 30.5C15.2078 30.5 14.4235 30.2718 13.7471 29.8428L4.75879 24.1416C3.6747 23.4538 3.01767 22.2595 3.01758 20.9756V11.0244C3.01767 9.74055 3.67469 8.54618 4.75879 7.8584L13.7471 2.15723C14.4235 1.7282 15.2078 1.50002 16.0088 1.5ZM9.23828 11.166C8.87424 10.9691 8.41901 11.104 8.22168 11.4678C8.02455 11.832 8.16021 12.2872 8.52441 12.4844L15.251 16.125V24.1123C15.2512 24.5264 15.5869 24.8623 16.001 24.8623C16.4149 24.8621 16.7508 24.5263 16.751 24.1123V16.1299L23.4873 12.4844C23.8513 12.2872 23.987 11.8319 23.79 11.4678C23.5928 11.1041 23.1375 10.9692 22.7734 11.166L16.0049 14.8271L9.23828 11.166Z"
    fill="currentColor"
  />
</svg>
