<svg width="12" height="12" viewBox="0 0 12 12" fill="none" xmlns="http://www.w3.org/2000/svg" data-fui-icon="true">
  <path
    d="M5.00098 0.576782C5.61966 0.219691 6.38229 0.219691 7.00098 0.576782L10.1973 2.42249C10.8157 2.77966 11.197 3.43975 11.1973 4.15393V7.84534L11.1924 7.97815C11.1483 8.64064 10.7772 9.2418 10.1973 9.57678L7.00098 11.4225L6.88379 11.485C6.32739 11.7588 5.67456 11.7588 5.11816 11.485L5.00098 11.4225L1.80469 9.57678C1.22474 9.2418 0.853695 8.64064 0.80957 7.97815L0.804688 7.84534V4.15393C0.804929 3.4844 1.13995 2.86221 1.69141 2.4928L1.80469 2.42249L5.00098 0.576782ZM2.80469 7.84534L5.00781 9.11682C5.00335 9.07848 5.00098 9.03917 5.00098 8.99963V6.57971L2.87988 5.3678C2.85382 5.3529 2.82888 5.33676 2.80469 5.31995V7.84534ZM9.12207 5.3678L7.00098 6.57971V8.99963C7.00098 9.03921 6.99764 9.07845 6.99316 9.11682L9.19727 7.84534V5.31995C9.17307 5.33676 9.14813 5.3529 9.12207 5.3678ZM3.78516 3.58752C3.81448 3.60072 3.84358 3.61519 3.87207 3.63147L6.00098 4.84729L8.12988 3.63147C8.15811 3.61534 8.18678 3.60062 8.21582 3.58752L6.00098 2.3092L3.78516 3.58752Z"
    fill="currentColor"
  />
</svg>
