<svg width="20" height="20" viewBox="0 0 20 20" fill="none" xmlns="http://www.w3.org/2000/svg" data-fui-icon="true">
  <path
    d="M10 0C10.5859 0 11.16 0.166418 11.6553 0.479492L17.7373 4.32422C18.5232 4.82095 19 5.68556 19 6.61523V13.3848C19 14.3144 18.5232 15.179 17.7373 15.6758L11.6553 19.5205C11.16 19.8336 10.5859 20 10 20C9.41405 20 8.84002 19.8336 8.34473 19.5205L2.2627 15.6758C1.47685 15.179 1 14.3144 1 13.3848V6.61523C1 5.68556 1.47685 4.82095 2.2627 4.32422L8.34473 0.479492C8.84002 0.166418 9.41405 0 10 0ZM5.55273 6.52637C5.18885 6.32949 4.7336 6.46473 4.53613 6.82812C4.339 7.19237 4.47468 7.64754 4.83887 7.84473L9.24414 10.2295V15.4668C9.24427 15.8809 9.58001 16.2168 9.99414 16.2168C10.4081 16.2166 10.744 15.8808 10.7441 15.4668V10.2324L15.1553 7.84473C15.5191 7.64738 15.655 7.19219 15.458 6.82812C15.2607 6.46469 14.8053 6.32985 14.4414 6.52637L9.99707 8.93066L5.55273 6.52637Z"
    fill="currentColor"
  />
</svg>
