<svg width="24" height="24" viewBox="0 0 24 24" fill="none" xmlns="http://www.w3.org/2000/svg" data-fui-icon="true">
  <path
    d="M12 0.75C12.6839 0.75 13.3547 0.940325 13.9365 1.2998L20.6855 5.46973C21.658 6.07051 22.25 7.13235 22.25 8.27539V15.7246C22.25 16.8677 21.658 17.9295 20.6855 18.5303L13.9365 22.7002C13.3547 23.0597 12.6839 23.25 12 23.25C11.3161 23.25 10.6453 23.0597 10.0635 22.7002L3.31445 18.5303C2.34203 17.9295 1.75 16.8677 1.75 15.7246V8.27539C1.75 7.13235 2.34203 6.07051 3.31445 5.46973L10.0635 1.2998C10.6453 0.940326 11.3161 0.75 12 0.75ZM18.9746 7.73047C18.664 7.19263 17.9755 7.00813 17.4375 7.31836L11.9941 10.46L6.5625 7.32324C6.02446 7.0127 5.33605 7.19737 5.02539 7.73535C4.71509 8.27336 4.89957 8.96189 5.4375 9.27246L10.8672 12.4062V19C10.8674 19.6212 11.371 20.125 11.9922 20.125C12.6132 20.1248 13.117 19.621 13.1172 19V12.4111L18.5625 9.26758C19.1002 8.95689 19.2849 8.26837 18.9746 7.73047Z"
    fill="currentColor"
  />
</svg>
