<svg width="32" height="32" viewBox="0 0 32 32" fill="none" xmlns="http://www.w3.org/2000/svg" data-fui-icon="true">
  <path
    d="M16.0088 1.5C16.8099 1.5 17.595 1.72811 18.2715 2.15723L27.2588 7.8584C28.343 8.54617 28.9999 9.7405 29 11.0244V20.9756C28.9999 22.2595 28.343 23.4538 27.2588 24.1416L18.2715 29.8428C17.595 30.2719 16.8099 30.5 16.0088 30.5C15.2078 30.5 14.4235 30.2718 13.7471 29.8428L4.75879 24.1416C3.6747 23.4538 3.01767 22.2594 3.01758 20.9756V11.0244C3.01767 9.74055 3.67469 8.54618 4.75879 7.8584L13.7471 2.15723C14.4235 1.7282 15.2078 1.50002 16.0088 1.5ZM16.0088 3C15.4922 3.00002 14.986 3.14714 14.5498 3.42383L5.5625 9.125C4.91201 9.53764 4.51767 10.2541 4.51758 11.0244V20.9756C4.51767 21.7459 4.91201 22.4624 5.5625 22.875L14.5498 28.5762C14.986 28.8529 15.4922 29 16.0088 29C16.5254 29 17.0315 28.8529 17.4678 28.5762L26.4551 22.875C27.1056 22.4624 27.4999 21.7459 27.5 20.9756V11.0244C27.4999 10.2541 27.1056 9.53763 26.4551 9.125L17.4678 3.42383C17.0315 3.14712 16.5254 3 16.0088 3ZM8.21973 11.4678C8.41694 11.1039 8.87225 10.9692 9.23633 11.166L16.0039 14.8271L22.7725 11.166C23.1366 10.9691 23.5918 11.1039 23.7891 11.4678C23.9862 11.832 23.8505 12.2872 23.4863 12.4844L16.749 16.1309V24.1123C16.749 24.5265 16.4132 24.8623 15.999 24.8623C15.585 24.8621 15.2491 24.5263 15.249 24.1123V16.125L8.52246 12.4844C8.15849 12.2871 8.02273 11.8319 8.21973 11.4678Z"
    fill="currentColor"
  />
</svg>
