<svg width="32" height="32" viewBox="0 0 32 32" fill="none" xmlns="http://www.w3.org/2000/svg" data-fui-icon="true">
  <path
    d="M16.0003 16V27.3334M16.0003 16L6 10.375M16.0003 16L25.6836 10.553M27 11.3721V20.6279C27 21.5914 26.4804 22.4798 25.6407 22.9522L17.3073 27.6396C16.4956 28.0963 15.5044 28.0963 14.6927 27.6396L6.35931 22.9522C5.51963 22.4798 5 21.5914 5 20.6279V11.3721C5 10.4087 5.51963 9.52023 6.35931 9.04791L14.6927 4.36041C15.5044 3.90379 16.4956 3.90379 17.3073 4.36041L25.6407 9.04791C26.4804 9.52023 27 10.4087 27 11.3721Z"
    stroke="currentColor"
    stroke-width="1.5"
    stroke-linecap="round"
    stroke-linejoin="round"
  />
</svg>
