<svg width="32" height="32" viewBox="0 0 32 32" fill="none" xmlns="http://www.w3.org/2000/svg" data-fui-icon="true">
  <path
    fill-rule="evenodd"
    clip-rule="evenodd"
    d="M13.001 1.7324C14.8574 0.660651 17.1446 0.660651 19.001 1.7324L26.8574 6.26756C28.7137 7.33929 29.8573 9.3204 29.8574 11.4638V20.5361L29.8438 20.9355C29.7114 22.9234 28.5978 24.7276 26.8574 25.7324L19.001 30.2676C17.1446 31.3394 14.8574 31.3394 13.001 30.2676L5.14453 25.7324C3.40414 24.7276 2.29059 22.9234 2.1582 20.9355L2.14453 20.5361V11.4638C2.14466 9.3204 3.28823 7.33929 5.14453 6.26756L13.001 1.7324ZM18.251 3.03123C16.8587 2.22743 15.1433 2.22743 13.751 3.03123L5.89453 7.56736C4.50245 8.37118 3.64466 9.85637 3.64453 11.4638V20.5361C3.64461 22.1436 4.50245 23.6288 5.89453 24.4326L13.751 28.9687C15.1433 29.7726 16.8587 29.7726 18.251 28.9687L26.1074 24.4326C27.4995 23.6288 28.3573 22.1436 28.3574 20.5361V11.4638C28.3573 9.85637 27.4995 8.37118 26.1074 7.56736L18.251 3.03123ZM23.5039 10.8486C23.8635 10.6433 24.3218 10.7684 24.5273 11.1279C24.7328 11.4875 24.6076 11.9458 24.248 12.1513L16.751 16.4346V25C16.751 25.4142 16.4152 25.75 16.001 25.75C15.5868 25.75 15.251 25.4142 15.251 25V16.4346L7.75391 12.1513C7.39435 11.9458 7.2692 11.4875 7.47461 11.1279C7.68011 10.7684 8.13847 10.6433 8.49805 10.8486L16.001 15.1357L23.5039 10.8486Z"
    fill="currentColor"
  />
</svg>
