<svg width="12" height="13" viewBox="0 0 12 13" fill="none" xmlns="http://www.w3.org/2000/svg" data-fui-icon="true">
  <path
    d="M6 0C6.44076 0 6.87255 0.122728 7.24805 0.353516L10.748 2.50488C11.3704 2.88748 11.75 3.56531 11.75 4.2959V8.2041C11.75 8.93469 11.3704 9.61252 10.748 9.99512L7.24805 12.1465C6.87255 12.3773 6.44075 12.5 6 12.5C5.55924 12.5 5.12745 12.3773 4.75195 12.1465L1.25195 9.99512C0.629552 9.61252 0.25 8.93469 0.25 8.2041V4.2959C0.250002 3.56531 0.629555 2.88748 1.25195 2.50488L4.75195 0.353516C5.12745 0.122727 5.55924 0 6 0ZM9.39258 4.37012C9.12975 3.88453 8.52276 3.70319 8.03711 3.96582L5.99707 5.06934L3.95898 3.96582C3.47335 3.70304 2.86644 3.88459 2.60352 4.37012C2.34105 4.85575 2.52129 5.46281 3.00684 5.72559L4.99609 6.80078V9.18262C4.99637 9.73466 5.44398 10.1826 5.99609 10.1826C6.54802 10.1824 6.99581 9.73453 6.99609 9.18262V6.80273L8.98926 5.72559C9.47457 5.46277 9.65487 4.85564 9.39258 4.37012Z"
    fill="currentColor"
  />
</svg>
