<svg width="24" height="24" viewBox="0 0 24 24" fill="none" xmlns="http://www.w3.org/2000/svg" data-fui-icon="true">
  <path
    d="M12 0.75C12.6839 0.75 13.3547 0.940326 13.9365 1.2998L20.6855 5.46973C21.658 6.07051 22.25 7.13235 22.25 8.27539V15.7246C22.25 16.8677 21.658 17.9295 20.6855 18.5303L13.9365 22.7002C13.3547 23.0597 12.6839 23.25 12 23.25C11.3161 23.25 10.6453 23.0597 10.0635 22.7002L3.31445 18.5303C2.34203 17.9295 1.75 16.8677 1.75 15.7246V8.27539C1.75 7.13235 2.34203 6.07051 3.31445 5.46973L10.0635 1.2998C10.6453 0.940326 11.3161 0.75 12 0.75ZM12 2.75C11.6875 2.75 11.3811 2.83681 11.1152 3.00098L4.36523 7.1709C3.98265 7.40731 3.75 7.82565 3.75 8.27539V15.7246C3.75 16.1743 3.98265 16.5927 4.36523 16.8291L11.1152 20.999C11.3811 21.1632 11.6875 21.25 12 21.25C12.3125 21.25 12.6189 21.1632 12.8848 20.999L19.6348 16.8291C20.0174 16.5927 20.25 16.1743 20.25 15.7246V8.27539C20.25 7.82565 20.0174 7.40731 19.6348 7.1709L12.8848 3.00098C12.6189 2.83681 12.3125 2.75 12 2.75ZM16.499 8.00488C16.9772 7.72921 17.5892 7.89309 17.8652 8.37109C18.1411 8.84918 17.9768 9.46105 17.499 9.7373L12.9932 12.3389V18C12.993 18.552 12.5452 18.9998 11.9932 19C11.441 19 10.9934 18.5521 10.9932 18V12.334L6.49902 9.74023C6.02076 9.46411 5.85674 8.85231 6.13281 8.37402C6.40893 7.89576 7.02074 7.73174 7.49902 8.00781L11.9951 10.6035L16.499 8.00488Z"
    fill="currentColor"
  />
</svg>
