<svg width="32" height="32" viewBox="0 0 32 32" fill="none" xmlns="http://www.w3.org/2000/svg" data-fui-icon="true">
  <path
    d="M26.3828 1.00293C26.4218 1.00193 26.4608 1 26.5 1C28.985 1.0001 30.9999 3.015 31 5.5V12C30.9999 14.485 28.985 16.4998 26.5 16.5H23.5V27.8711C23.4999 30.1865 21.0537 31.6842 18.9912 30.6318L16.4893 29.3555C16.2484 29.2327 15.9598 29.2493 15.7344 29.3984L14.2373 30.3896C13.0325 31.1873 11.4675 31.1873 10.2627 30.3896L8.76562 29.3984C8.54017 29.2493 8.25155 29.2326 8.01074 29.3555L5.50879 30.6318C3.44627 31.6842 1.00011 30.1865 1 27.8711V6.75C1.00015 3.57451 3.57448 1.00003 6.75 1H26.3242C26.3439 1.00001 26.3635 1.00143 26.3828 1.00293ZM6.75 2.5C4.40291 2.50003 2.50015 4.40294 2.5 6.75V27.8711C2.50011 29.0661 3.76264 29.839 4.82715 29.2959L7.3291 28.0195C8.05173 27.6509 8.91726 27.6998 9.59375 28.1475L11.0908 29.1387C11.7936 29.604 12.7064 29.604 13.4092 29.1387L14.9062 28.1475C15.5827 27.6997 16.4483 27.6509 17.1709 28.0195L19.6729 29.2959C20.7374 29.839 21.9999 29.0661 22 27.8711V5.5C22.0001 4.34739 22.4337 3.29614 23.1465 2.5H6.75ZM15.25 22C15.6642 22 16 22.3358 16 22.75C16 23.1642 15.6642 23.5 15.25 23.5H6.75C6.33579 23.5 6 23.1642 6 22.75C6 22.3358 6.33579 22 6.75 22H15.25ZM11.25 17C11.6642 17 12 17.3358 12 17.75C12 18.1642 11.6642 18.5 11.25 18.5H6.75C6.33579 18.5 6 18.1642 6 17.75C6 17.3358 6.33579 17 6.75 17H11.25ZM26.5 2.5C24.8433 2.5 23.5001 3.84336 23.5 5.5V15H26.5C28.1566 14.9998 29.4999 13.6566 29.5 12V5.5C29.4999 3.84343 28.1566 2.5001 26.5 2.5ZM17.25 12C17.6642 12 18 12.3358 18 12.75C18 13.1642 17.6642 13.5 17.25 13.5H6.75C6.33579 13.5 6 13.1642 6 12.75C6 12.3358 6.33579 12 6.75 12H17.25ZM13.25 7C13.6642 7 14 7.33579 14 7.75C14 8.16421 13.6642 8.5 13.25 8.5H6.75C6.33579 8.5 6 8.16421 6 7.75C6 7.33579 6.33579 7 6.75 7H13.25Z"
    fill="currentColor"
  />
</svg>
