<svg width="24" height="24" viewBox="0 0 24 24" fill="none" xmlns="http://www.w3.org/2000/svg" data-fui-icon="true">
  <path
    d="M20.1826 0.000976562C20.205 0.000581523 20.2275 0 20.25 0C22.321 3.67225e-05 24 1.67899 24 3.75V9C24 10.933 22.4329 12.4999 20.5 12.5H18V21.418C18 23.341 15.9652 24.5833 14.2549 23.7041L12.4385 22.7705C12.1972 22.6465 11.9078 22.6618 11.6816 22.8115L10.6562 23.4902C9.65214 24.1551 8.34786 24.1551 7.34375 23.4902L6.31836 22.8115C6.09218 22.6618 5.80276 22.6465 5.56152 22.7705L3.74512 23.7041C2.0348 24.5833 0 23.341 0 21.418V4.5C0 2.01472 2.01472 0 4.5 0H20.1494C20.1605 4.1546e-07 20.1716 0.000496288 20.1826 0.000976562ZM4.75 16.5C4.33579 16.5 4 16.8358 4 17.25C4 17.6642 4.33579 18 4.75 18H8.25C8.66421 18 9 17.6642 9 17.25C9 16.8358 8.66421 16.5 8.25 16.5H4.75ZM4.75 11C4.33579 11 4 11.3358 4 11.75C4 12.1642 4.33579 12.5 4.75 12.5H13.25C13.6642 12.5 14 12.1642 14 11.75C14 11.3358 13.6642 11 13.25 11H4.75ZM20.25 1.5C19.0074 1.5 18 2.5074 18 3.75V11H20.5C21.6045 10.9999 22.5 10.1045 22.5 9V3.75C22.5 2.50742 21.4926 1.50004 20.25 1.5ZM4.75 5.5C4.33579 5.5 4 5.83579 4 6.25C4 6.66421 4.33579 7 4.75 7H10.25C10.6642 7 11 6.66421 11 6.25C11 5.83579 10.6642 5.5 10.25 5.5H4.75Z"
    fill="currentColor"
  />
</svg>
