<svg width="32" height="32" viewBox="0 0 32 32" fill="none" xmlns="http://www.w3.org/2000/svg" data-fui-icon="true">
  <path
    d="M26.3818 1.00293C26.4211 1.00192 26.4605 1 26.5 1C28.985 1.0001 30.9999 3.015 31 5.5V12C30.9999 14.485 28.985 16.4998 26.5 16.5H23.5V27.8711C23.4999 30.1865 21.0537 31.6842 18.9912 30.6318L16.4893 29.3555C16.2484 29.2326 15.9598 29.2493 15.7344 29.3984L14.2373 30.3896C13.0325 31.1873 11.4675 31.1873 10.2627 30.3896L8.76562 29.3984C8.54017 29.2493 8.25156 29.2326 8.01074 29.3555L5.50879 30.6318C3.44627 31.6842 1.00011 30.1865 1 27.8711V6.75C1.00013 3.57447 3.57445 1 6.75 1H26.3242C26.3436 1.00001 26.3628 1.00147 26.3818 1.00293ZM6.75 22C6.33579 22 6 22.3358 6 22.75C6 23.1642 6.33579 23.5 6.75 23.5H15.25C15.6642 23.5 16 23.1642 16 22.75C16 22.3358 15.6642 22 15.25 22H6.75ZM6.75 17C6.33579 17 6 17.3358 6 17.75C6 18.1642 6.33579 18.5 6.75 18.5H11.25C11.6642 18.5 12 18.1642 12 17.75C12 17.3358 11.6642 17 11.25 17H6.75ZM26.5 2.5C24.8433 2.5 23.5001 3.84336 23.5 5.5V15H26.5C28.1566 14.9998 29.4999 13.6566 29.5 12V5.5C29.4999 3.84343 28.1566 2.5001 26.5 2.5ZM6.75 12C6.33579 12 6 12.3358 6 12.75C6 13.1642 6.33579 13.5 6.75 13.5H17.25C17.6642 13.5 18 13.1642 18 12.75C18 12.3358 17.6642 12 17.25 12H6.75ZM6.75 7C6.33579 7 6 7.33579 6 7.75C6 8.16421 6.33579 8.5 6.75 8.5H13.25C13.6642 8.5 14 8.16421 14 7.75C14 7.33579 13.6642 7 13.25 7H6.75Z"
    fill="currentColor"
  />
</svg>
