<svg width="16" height="16" viewBox="0 0 16 16" fill="none" xmlns="http://www.w3.org/2000/svg" data-fui-icon="true">
  <path
    d="M13.3281 0.00390625C14.8107 0.0453062 16 1.25737 16 2.75V5.75C16 7.26878 14.7688 8.5 13.25 8.5H12V13.7158C11.9997 15.5682 9.88594 16.6269 8.40234 15.5176L8.35059 15.4785C8.09851 15.2903 7.7557 15.2793 7.49219 15.4512L7.23047 15.6221C6.48293 16.1103 5.51707 16.1103 4.76953 15.6221L4.50781 15.4512C4.2443 15.2793 3.90149 15.2903 3.64941 15.4785L3.59766 15.5176C2.11406 16.6269 0.000266921 15.5682 0 13.7158V3C5.15413e-07 1.34315 1.34315 0 3 0H13.25C13.2764 0 13.3024 0.00124921 13.3281 0.00390625ZM3.75 10.5C3.33579 10.5 3 10.8358 3 11.25C3 11.6642 3.33579 12 3.75 12H5.25C5.66421 12 6 11.6642 6 11.25C6 10.8358 5.66421 10.5 5.25 10.5H3.75ZM3.75 7C3.33579 7 3 7.33579 3 7.75C3 8.16421 3.33579 8.5 3.75 8.5H8.25C8.66421 8.5 9 8.16421 9 7.75C9 7.33579 8.66421 7 8.25 7H3.75ZM13.25 1.5C12.5596 1.5 12 2.05964 12 2.75V7H13.25C13.9404 7 14.5 6.44036 14.5 5.75V2.75C14.5 2.05964 13.9404 1.5 13.25 1.5ZM3.75 3.5C3.33579 3.5 3 3.83579 3 4.25C3 4.66421 3.33579 5 3.75 5H6.25C6.66421 5 7 4.66421 7 4.25C7 3.83579 6.66421 3.5 6.25 3.5H3.75Z"
    fill="currentColor"
  />
</svg>
