<svg width="16" height="16" viewBox="0 0 16 16" fill="none" xmlns="http://www.w3.org/2000/svg" data-fui-icon="true">
  <path
    d="M11 1.00018C13.2091 1.00018 15 2.79104 15 5.00018V11.0002C14.9999 13.2092 13.2091 15.0002 11 15.0002H5C2.79094 15.0002 1.00013 13.2092 1 11.0002V5.00018C1 2.79104 2.79086 1.00018 5 1.00018H11ZM6 7.00018C5.44772 7.00018 5 7.4479 5 8.00018V10.0002C5.00013 10.5524 5.4478 11.0002 6 11.0002C6.5522 11.0002 6.99987 10.5524 7 10.0002V8.00018C7 7.4479 6.55228 7.00018 6 7.00018ZM10 5.00018C9.44772 5.00018 9 5.4479 9 6.00018V10.0002C9.00013 10.5524 9.4478 11.0002 10 11.0002C10.5522 11.0002 10.9999 10.5524 11 10.0002V6.00018C11 5.4479 10.5523 5.00018 10 5.00018Z"
    fill="currentColor"
  />
</svg>
