<svg width="24" height="24" viewBox="0 0 24 24" fill="none" xmlns="http://www.w3.org/2000/svg" data-fui-icon="true">
  <path
    d="M16.5 1C20.0899 1 23 3.91015 23 7.5V16.5C23 20.0899 20.0899 23 16.5 23H7.5C3.91015 23 1 20.0899 1 16.5V7.5C1 3.91015 3.91015 1 7.5 1H16.5ZM7.5 2.5C4.73858 2.5 2.5 4.73858 2.5 7.5V16.5C2.5 19.2614 4.73858 21.5 7.5 21.5H16.5C19.2614 21.5 21.5 19.2614 21.5 16.5V7.5C21.5 4.73858 19.2614 2.5 16.5 2.5H7.5ZM16.7305 9.16699C17.0292 8.8803 17.5041 8.88992 17.791 9.18848C18.0779 9.48719 18.0681 9.96211 17.7695 10.249L13.791 14.0693C13.3234 14.518 12.5847 14.5183 12.1172 14.0693L10.0898 12.1221L7.26953 14.832C6.97077 15.1189 6.49589 15.1093 6.20898 14.8105C5.92241 14.5118 5.93182 14.0368 6.23047 13.75L9.25391 10.8467C9.72142 10.398 10.4602 10.398 10.9277 10.8467L12.9541 12.793L16.7305 9.16699Z"
    fill="currentColor"
  />
</svg>
