<svg width="20" height="20" viewBox="0 0 20 20" fill="none" xmlns="http://www.w3.org/2000/svg" data-fui-icon="true">
  <path
    d="M9.99997 0C11.7388 0 13.0944 -0.000579831 14.1757 0.0996091C15.2676 0.200796 16.1554 0.409852 16.9394 0.874997C17.8394 1.40902 18.5909 2.16059 19.1249 3.06054C19.5901 3.84451 19.7991 4.73238 19.9003 5.8242C20.0005 6.90548 19.9999 8.26121 19.9999 9.99997C19.9999 11.7387 20.0005 13.0945 19.9003 14.1757C19.7991 15.2676 19.5901 16.1554 19.1249 16.9394C18.5909 17.8394 17.8394 18.5909 16.9394 19.1249C16.1554 19.5901 15.2676 19.7991 14.1757 19.9003C13.0944 20.0005 11.7388 19.9999 9.99997 19.9999C8.26115 19.9999 6.90551 20.0005 5.8242 19.9003C4.73232 19.7991 3.84453 19.5901 3.06054 19.1249C2.16057 18.5909 1.40903 17.8394 0.874997 16.9394C0.409867 16.1554 0.200795 15.2676 0.0996091 14.1757C-0.000569617 13.0945 0 11.7387 0 9.99997C-2.71643e-08 8.26121 -0.000578527 6.90548 0.0996091 5.8242C0.200803 4.73238 0.409847 3.84451 0.874997 3.06054C1.40904 2.16059 2.16058 1.40902 3.06054 0.874997C3.84452 0.409852 4.73234 0.200796 5.8242 0.0996091C6.90551 -0.000579829 8.26116 0 9.99997 0ZM15.5302 7.3867C15.2373 7.0938 14.7626 7.0938 14.4697 7.3867L10.8925 10.9638C10.86 10.9962 10.8069 10.9962 10.7744 10.9638L9.03611 9.22556C8.41778 8.60748 7.41511 8.60737 6.79685 9.22556L4.46971 11.5537C4.17714 11.8466 4.17693 12.3214 4.46971 12.6142C4.76253 12.9067 5.23744 12.9067 5.53026 12.6142L7.8574 10.2861C7.88987 10.2537 7.94302 10.2538 7.97556 10.2861L9.71384 12.0244C10.3321 12.6425 11.3348 12.6425 11.9531 12.0244L15.5302 8.44724C15.8231 8.1544 15.823 7.6796 15.5302 7.3867Z"
    fill="currentColor"
  />
</svg>
