<svg width="24" height="24" viewBox="0 0 24 24" fill="none" xmlns="http://www.w3.org/2000/svg" data-fui-icon="true">
  <path
    d="M16.25 0.999878C19.9779 0.999878 23 4.02198 23 7.74988V16.2499C23 19.9778 19.9779 22.9999 16.25 22.9999H7.75C4.0221 22.9999 1 19.9778 1 16.2499V7.74988C1.00002 4.02199 4.02211 0.999902 7.75 0.999878H16.25ZM7.75 2.99988C5.12668 2.9999 3.00002 5.12656 3 7.74988V16.2499C3 18.8732 5.12667 20.9999 7.75 20.9999H16.25C18.8734 20.9999 21 18.8732 21 16.2499V7.74988C21 5.12655 18.8733 2.99988 16.25 2.99988H7.75ZM7.5 12.4999C8.05228 12.4999 8.5 12.9476 8.5 13.4999V16.9999C8.5 17.5522 8.05228 17.9999 7.5 17.9999C6.94772 17.9999 6.5 17.5522 6.5 16.9999V13.4999C6.5 12.9476 6.94772 12.4999 7.5 12.4999ZM12 5.99988C12.5522 5.99988 12.9999 6.44765 13 6.99988V16.9999C13 17.5522 12.5523 17.9999 12 17.9999C11.4478 17.9998 11 17.5521 11 16.9999V6.99988C11.0001 6.44768 11.4478 5.99993 12 5.99988ZM16.5 8.99988C17.0522 8.99988 17.4999 9.44765 17.5 9.99988V16.9999C17.4999 17.5521 17.0522 17.9999 16.5 17.9999C15.9478 17.9999 15.5001 17.5521 15.5 16.9999V9.99988C15.5001 9.44765 15.9478 8.99988 16.5 8.99988Z"
    fill="currentColor"
  />
</svg>
