<svg width="32" height="32" viewBox="0 0 32 32" fill="none" xmlns="http://www.w3.org/2000/svg" data-fui-icon="true">
  <path
    d="M18 1C20.8001 1 23.0008 0.997817 24.7168 1.22852C26.4616 1.46309 27.8547 1.95436 28.9502 3.0498C30.0456 4.14525 30.5369 5.53843 30.7715 7.2832C31.0022 8.9992 31 11.1999 31 14V18C31 20.8001 31.0022 23.0008 30.7715 24.7168C30.5369 26.4616 30.0456 27.8547 28.9502 28.9502C27.8547 30.0456 26.4616 30.5369 24.7168 30.7715C23.0008 31.0022 20.8001 31 18 31H14C11.1999 31 8.9992 31.0022 7.2832 30.7715C5.53843 30.5369 4.14525 30.0456 3.0498 28.9502C1.95436 27.8547 1.46309 26.4616 1.22852 24.7168C0.997817 23.0008 1 20.8001 1 18V14C1 11.1999 0.997817 8.9992 1.22852 7.2832C1.46309 5.53843 1.95436 4.14525 3.0498 3.0498C4.14525 1.95436 5.53843 1.46309 7.2832 1.22852C8.9992 0.997817 11.1999 1 14 1H18ZM9 17C8.44772 17 8 17.4477 8 18V23C8 23.5523 8.44772 24 9 24C9.55228 24 10 23.5523 10 23V18C10 17.4477 9.55228 17 9 17ZM16 8C15.4477 8 15 8.44772 15 9V23C15 23.5523 15.4477 24 16 24C16.5523 24 17 23.5523 17 23V9C17 8.44772 16.5523 8 16 8ZM23 12C22.4477 12 22 12.4477 22 13V23C22 23.5523 22.4477 24 23 24C23.5523 24 24 23.5523 24 23V13C24 12.4477 23.5523 12 23 12Z"
    fill="currentColor"
  />
</svg>
