<svg width="32" height="32" viewBox="0 0 32 32" fill="none" xmlns="http://www.w3.org/2000/svg" data-fui-icon="true">
  <path
    d="M21.75 1C26.8586 1 31 5.14137 31 10.25V21.75C31 26.8586 26.8586 31 21.75 31H10.25C5.14137 31 1 26.8586 1 21.75V10.25C1 5.14137 5.14137 1 10.25 1H21.75ZM10.25 2.5C5.96979 2.5 2.5 5.96979 2.5 10.25V21.75C2.5 26.0302 5.96979 29.5 10.25 29.5H21.75C26.0302 29.5 29.5 26.0302 29.5 21.75V10.25C29.5 5.96979 26.0302 2.5 21.75 2.5H10.25ZM9.75 18C10.1642 18 10.5 18.3358 10.5 18.75V23.25C10.5 23.6642 10.1642 24 9.75 24C9.33579 24 9 23.6642 9 23.25V18.75C9 18.3358 9.33579 18 9.75 18ZM16 8C16.4142 8 16.75 8.33579 16.75 8.75V23.25C16.75 23.6642 16.4142 24 16 24C15.5858 24 15.25 23.6642 15.25 23.25V8.75C15.25 8.33579 15.5858 8 16 8ZM22.25 14C22.6642 14 23 14.3358 23 14.75V23.25C23 23.6642 22.6642 24 22.25 24C21.8358 24 21.5 23.6642 21.5 23.25V14.75C21.5 14.3358 21.8358 14 22.25 14Z"
    fill="currentColor"
  />
</svg>
