<svg width="12" height="12" viewBox="0 0 12 12" fill="none" xmlns="http://www.w3.org/2000/svg" data-fui-icon="true">
  <path
    d="M8.25 0C10.3211 0 12 1.67893 12 3.75V8.25C12 10.3211 10.3211 12 8.25 12H3.75C1.67893 12 0 10.3211 0 8.25V3.75C0 1.67893 1.67893 1.28851e-07 3.75 0H8.25ZM9.20703 4.29297C8.81651 3.90244 8.18349 3.90244 7.79297 4.29297L6.5 5.58594L5.88379 4.96973C5.42613 4.51209 4.7019 4.48333 4.21094 4.88379L4.11621 4.96973L2.79297 6.29297C2.40244 6.68349 2.40244 7.31651 2.79297 7.70703C3.18349 8.09756 3.81651 8.09756 4.20703 7.70703L5 6.91406L5.61621 7.53027C6.10436 8.0184 6.89564 8.0184 7.38379 7.53027L9.20703 5.70703C9.59756 5.31651 9.59756 4.68349 9.20703 4.29297Z"
    fill="currentColor"
  />
</svg>
