<svg width="32" height="32" viewBox="0 0 32 32" fill="none" xmlns="http://www.w3.org/2000/svg" data-fui-icon="true">
  <path
    d="M23 1C27.4183 1 31 4.58172 31 9V23C31 27.4183 27.4183 31 23 31H9C4.58172 31 1 27.4183 1 23V9C1 4.58172 4.58172 1 9 1H23ZM9 3C5.68629 3 3 5.68629 3 9V23C3 26.3137 5.68629 29 9 29H23C26.3137 29 29 26.3137 29 23V9C29 5.68629 26.3137 3 23 3H9ZM22.5479 12.0381C22.9411 11.6503 23.5741 11.6547 23.9619 12.0479C24.3497 12.4411 24.3453 13.0741 23.9521 13.4619L18.459 18.8789C17.8263 19.5029 16.8095 19.5029 16.1768 18.8789L13.3633 16.1035L9.45215 19.9619C9.05893 20.3497 8.42589 20.3453 8.03809 19.9521C7.65029 19.5589 7.65465 18.9259 8.04785 18.5381L12.2227 14.4209L12.3457 14.3115C12.9388 13.8336 13.7888 13.8335 14.3818 14.3115L14.5049 14.4209L17.3174 17.1953L22.5479 12.0381Z"
    fill="currentColor"
  />
</svg>
