<svg width="32" height="32" viewBox="0 0 32 32" fill="none" xmlns="http://www.w3.org/2000/svg" data-fui-icon="true">
  <path
    d="M22 1C26.9706 1 31 5.02944 31 10V22C31 26.9706 26.9706 31 22 31H10C5.02944 31 1 26.9706 1 22V10C1 5.02944 5.02944 1 10 1H22ZM23.9619 12.0479C23.5741 11.6547 22.9411 11.6503 22.5479 12.0381L17.3174 17.1953L14.5049 14.4209L14.3818 14.3115C13.7888 13.8335 12.9388 13.8336 12.3457 14.3115L12.2227 14.4209L8.04785 18.5381C7.65465 18.9259 7.65029 19.5589 8.03809 19.9521C8.42589 20.3453 9.05893 20.3497 9.45215 19.9619L13.3633 16.1035L16.1768 18.8789C16.8095 19.5029 17.8263 19.5029 18.459 18.8789L23.9521 13.4619C24.3453 13.0741 24.3497 12.4411 23.9619 12.0479Z"
    fill="currentColor"
  />
</svg>
