<svg width="12" height="12" viewBox="0 0 12 12" fill="none" xmlns="http://www.w3.org/2000/svg" data-fui-icon="true">
  <path
    d="M8.24985 0C10.3206 0.000263812 11.9997 1.67912 11.9998 3.74993V8.24985C11.9998 10.3207 10.3207 11.9995 8.24985 11.9998H3.74993C1.6789 11.9998 2.57698e-07 10.3209 0 8.24985V3.74993C6.60096e-05 1.67896 1.67894 0 3.74993 0H8.24985ZM3.74993 1.49997C2.50736 1.49997 1.50004 2.50737 1.49997 3.74993V8.24985C1.49997 9.49247 2.50731 10.4998 3.74993 10.4998H8.24985C9.49225 10.4995 10.4998 9.49231 10.4998 8.24985V3.74993C10.4997 2.50753 9.49221 1.50024 8.24985 1.49997H3.74993ZM4.24895 4.99991C4.66308 4.99991 4.99882 5.33579 4.99893 5.7499V8.24985C4.99893 8.66406 4.66315 8.99984 4.24895 8.99984C3.83474 8.99984 3.49896 8.66406 3.49896 8.24985V5.7499C3.49908 5.33579 3.83481 4.99991 4.24895 4.99991ZM7.74889 2.99995C8.16302 2.99995 8.49876 3.33583 8.49887 3.74993V8.24985C8.49887 8.66406 8.16309 8.99984 7.74889 8.99984C7.33468 8.99984 6.9989 8.66406 6.9989 8.24985V3.74993C6.99901 3.33583 7.33475 2.99995 7.74889 2.99995Z"
    fill="currentColor"
  />
</svg>
