<svg width="24" height="24" viewBox="0 0 24 24" fill="none" xmlns="http://www.w3.org/2000/svg" data-fui-icon="true">
  <path
    d="M17.5 0C21.0898 0 24 2.91015 24 6.49999V17.5C24 21.0898 21.0898 24 17.5 24H6.49999C2.91015 24 0 21.0898 0 17.5V6.49999C2.57711e-07 2.91015 2.91015 2.57702e-07 6.49999 0H17.5ZM6.49999 1.5C3.73857 1.5 1.5 3.73857 1.5 6.49999V17.5C1.5 20.2614 3.73857 22.5 6.49999 22.5H17.5C20.2614 22.5 22.5 20.2614 22.5 17.5V6.49999C22.5 3.73857 20.2614 1.5 17.5 1.5H6.49999ZM7.74999 13C8.16419 13 8.49997 13.3358 8.49999 13.75V17.25C8.49999 17.6642 8.1642 18 7.74999 18C7.33578 18 6.99999 17.6642 6.99999 17.25V13.75C7.00001 13.3358 7.33579 13 7.74999 13ZM12 5.99999C12.4142 5.99999 12.75 6.33579 12.75 6.74999V17.25C12.75 17.6642 12.4142 18 12 18C11.5858 18 11.25 17.6642 11.25 17.25V6.74999C11.25 6.33579 11.5858 5.99999 12 5.99999ZM16.25 9.74999C16.6642 9.74999 17 10.0858 17 10.5V17.25C17 17.6642 16.6642 18 16.25 18C15.8358 18 15.5 17.6642 15.5 17.25V10.5C15.5 10.0858 15.8358 9.74999 16.25 9.74999Z"
    fill="currentColor"
  />
</svg>
