<svg width="32" height="32" viewBox="0 0 32 32" fill="none" xmlns="http://www.w3.org/2000/svg" data-fui-icon="true">
  <path
    d="M19.1729 29.8955L19.3379 30.626C18.2644 30.8699 17.1474 31 16 31C14.8523 31 13.7349 30.8701 12.6611 30.626L12.8271 29.8955L12.9932 29.1641C13.9587 29.3836 14.9649 29.5 16 29.5C17.0351 29.5 18.0413 29.3836 19.0068 29.1641L19.1729 29.8955ZM4.56641 23.1826C5.64641 24.8978 7.1022 26.3536 8.81738 27.4336L8.01855 28.7012C6.11349 27.5015 4.49735 25.8857 3.29785 23.9805L4.56641 23.1826ZM28.0674 23.582H28.0684L28.3799 23.7783L28.7012 23.9805C27.5016 25.8857 25.8857 27.5016 23.9805 28.7012L23.1826 27.4336C24.8978 26.3536 26.3536 24.8978 27.4336 23.1826L28.0674 23.582ZM2.83594 12.9932C2.61643 13.9587 2.5 14.9649 2.5 16C2.5 17.0351 2.61643 18.0413 2.83594 19.0068L2.10449 19.1729L1.37305 19.3379C1.12911 18.2644 1 17.1473 1 16C1 14.9643 1.10482 13.9531 1.30469 12.9766L1.37305 12.6611L2.83594 12.9932ZM30.626 12.6611C30.8701 13.7349 31 14.8523 31 16C31 17.1474 30.8699 18.2644 30.626 19.3379L29.8955 19.1729L29.1641 19.0068C29.3836 18.0413 29.5 17.0351 29.5 16C29.5 14.9649 29.3836 13.9587 29.1641 12.9932L30.626 12.6611ZM8.81738 4.56641C7.1022 5.64641 5.64641 7.1022 4.56641 8.81738L3.29785 8.01855C4.4974 6.11353 6.11353 4.4974 8.01855 3.29785L8.81738 4.56641ZM23.9805 3.29785C25.8857 4.49735 27.5015 6.11349 28.7012 8.01855L27.4336 8.81738C26.3536 7.1022 24.8978 5.64641 23.1826 4.56641L23.9805 3.29785ZM16 1C17.1473 1 18.2644 1.12911 19.3379 1.37305L19.0068 2.83594C18.0413 2.61643 17.0351 2.5 16 2.5C14.9649 2.5 13.9587 2.61643 12.9932 2.83594L12.6611 1.37305C13.7349 1.12897 14.8524 1 16 1Z"
    fill="currentColor"
  />
</svg>
