<svg width="12" height="12" viewBox="0 0 12 12" fill="none" xmlns="http://www.w3.org/2000/svg" data-fui-icon="true">
  <path
    d="M7.99978 0C10.2087 0 11.9995 1.79098 11.9997 3.99989V7.99978C11.9997 10.2089 10.2089 11.9997 7.99978 11.9997H3.99989C1.79087 11.9996 0 10.2088 0 7.99978V3.99989C0.000196406 1.79102 1.79099 6.48e-05 3.99989 0H7.99978ZM3.99989 1.99994C2.89553 2.00001 2.00014 2.89556 1.99994 3.99989V7.99978C1.99994 9.10427 2.8954 9.99966 3.99989 9.99972H7.99978C9.10431 9.99972 9.99972 9.10431 9.99972 7.99978V3.99989C9.99952 2.89552 9.10419 1.99994 7.99978 1.99994H3.99989ZM4.49987 4.99986C5.05206 4.99986 5.49971 5.44767 5.49985 5.99983V7.49979C5.49985 8.05206 5.05214 8.49976 4.49987 8.49976C3.9476 8.49976 3.4999 8.05206 3.4999 7.49979V5.99983C3.50003 5.44767 3.94769 4.99986 4.49987 4.99986ZM7.49979 3.4999C8.05198 3.4999 8.49963 3.94772 8.49976 4.49987V7.49979C8.49976 8.05206 8.05206 8.49976 7.49979 8.49976C6.94752 8.49976 6.49982 8.05206 6.49982 7.49979V4.49987C6.49995 3.94772 6.9476 3.4999 7.49979 3.4999Z"
    fill="currentColor"
  />
</svg>
