<svg width="24" height="24" viewBox="0 0 24 24" fill="none" xmlns="http://www.w3.org/2000/svg" data-fui-icon="true">
  <path
    d="M16.5 1C20.0899 1 23 3.91015 23 7.5V16.5C23 20.0899 20.0899 23 16.5 23H7.5C3.91015 23 1 20.0899 1 16.5V7.5C1 3.91015 3.91015 1 7.5 1H16.5ZM17.791 9.18848C17.5041 8.88992 17.0292 8.8803 16.7305 9.16699L12.9541 12.793L10.9277 10.8467C10.4602 10.398 9.72142 10.398 9.25391 10.8467L6.23047 13.75C5.93182 14.0368 5.92241 14.5118 6.20898 14.8105C6.49589 15.1093 6.97077 15.1189 7.26953 14.832L10.0898 12.1221L12.1172 14.0693C12.5847 14.5183 13.3234 14.518 13.791 14.0693L17.7695 10.249C18.0681 9.96211 18.0779 9.48719 17.791 9.18848Z"
    fill="currentColor"
  />
</svg>
