<svg width="32" height="32" viewBox="0 0 32 32" fill="none" xmlns="http://www.w3.org/2000/svg" data-fui-icon="true">
  <path
    d="M23 1C27.4183 1 31 4.58172 31 9V23C31 27.4183 27.4183 31 23 31H9C4.58172 31 1 27.4183 1 23V9C1 4.58172 4.58172 1 9 1H23ZM9 3C5.68629 3 3 5.68629 3 9V23C3 26.3137 5.68629 29 9 29H23C26.3137 29 29 26.3137 29 23V9C29 5.68629 26.3137 3 23 3H9ZM10 17C10.5523 17 11 17.4477 11 18V23C11 23.5523 10.5523 24 10 24C9.44771 24 9 23.5523 9 23V18C9 17.4477 9.44771 17 10 17ZM16 8C16.5523 8 17 8.44772 17 9V23C17 23.5523 16.5523 24 16 24C15.4477 24 15 23.5523 15 23V9C15 8.44772 15.4477 8 16 8ZM22 12C22.5523 12 23 12.4477 23 13V23C23 23.5523 22.5523 24 22 24C21.4477 24 21 23.5523 21 23V13C21 12.4477 21.4477 12 22 12Z"
    fill="currentColor"
  />
</svg>
