<svg width="24" height="24" viewBox="0 0 24 24" fill="none" xmlns="http://www.w3.org/2000/svg" data-fui-icon="true">
  <path
    fill-rule="evenodd"
    clip-rule="evenodd"
    d="M14.001 22.0547L14.0557 22.333L14.1455 22.7881C13.4514 22.9253 12.7344 23 12 23C11.2653 23 10.5479 22.9255 9.85352 22.7881L10.1445 21.3193C10.7434 21.4378 11.3637 21.5 12 21.5C12.6363 21.5 13.2566 21.4378 13.8555 21.3193L14.001 22.0547ZM4.09961 17.2773C4.79355 18.3138 5.68618 19.2064 6.72266 19.9004L6.30469 20.5234L6.11133 20.8145L5.88867 21.1465C4.68876 20.3432 3.65573 19.3104 2.85254 18.1104L4.09961 17.2773ZM21.1465 18.1104C20.3432 19.3104 19.3104 20.3432 18.1104 21.1465L17.6943 20.5244V20.5234L17.2773 19.9004C18.3138 19.2064 19.2064 18.3138 19.9004 17.2773L21.1465 18.1104ZM1.94531 9.99902H1.94434L2.68066 10.1445C2.5622 10.7434 2.5 11.3637 2.5 12C2.5 12.6363 2.5622 13.2566 2.68066 13.8555L1.21094 14.1455C1.0737 13.4515 1 12.7343 1 12C1 11.2654 1.07358 10.5478 1.21094 9.85352L1.94531 9.99902ZM22.7881 9.85352C22.9255 10.5479 23 11.2653 23 12C23 12.7344 22.9253 13.4514 22.7881 14.1455L21.3193 13.8555C21.4378 13.2566 21.5 12.6363 21.5 12C21.5 11.3637 21.4378 10.7434 21.3193 10.1445L22.0547 9.99902L22.7881 9.85352ZM6.18359 3.29395L6.72266 4.09961C5.68618 4.79355 4.79355 5.68618 4.09961 6.72266L3.47559 6.30469L2.85254 5.88867C3.65576 4.68879 4.68879 3.65576 5.88867 2.85254L6.18359 3.29395ZM18.1104 2.85254C19.3104 3.65573 20.3432 4.68876 21.1465 5.88867L20.5244 6.30566L20.5234 6.30469L19.9004 6.72266C19.2064 5.68618 18.3138 4.79355 17.2773 4.09961L17.8164 3.29395L18.1104 2.85254ZM12 1C12.7343 1 13.4515 1.0737 14.1455 1.21094L14.04 1.75L13.8555 2.68066C13.2566 2.5622 12.6363 2.5 12 2.5C11.3637 2.5 10.7434 2.5622 10.1445 2.68066L9.95996 1.75L9.85352 1.21094C10.5478 1.07358 11.2654 1 12 1Z"
    fill="currentColor"
  />
</svg>
