<svg width="20" height="20" viewBox="0 0 20 20" fill="none" xmlns="http://www.w3.org/2000/svg" data-fui-icon="true">
  <path
    d="M9.99998 0C11.7388 0 13.0945 -0.000579851 14.1758 0.0996092C15.2676 0.200797 16.1554 0.409852 16.9394 0.874999C17.8394 1.40902 18.5909 2.16059 19.125 3.06054C19.5901 3.84451 19.7992 4.73238 19.9004 5.82421C20.0005 6.90549 20 8.26123 20 9.99998C20 11.7387 20.0005 13.0945 19.9004 14.1758C19.7992 15.2676 19.5901 16.1554 19.125 16.9394C18.5909 17.8394 17.8394 18.5909 16.9394 19.125C16.1554 19.5901 15.2676 19.7992 14.1758 19.9004C13.0945 20.0006 11.7388 20 9.99998 20C8.26117 20 6.90552 20.0006 5.82421 19.9004C4.73233 19.7992 3.84454 19.5901 3.06054 19.125C2.16057 18.5909 1.40903 17.8394 0.874999 16.9394C0.409868 16.1554 0.200795 15.2676 0.0996092 14.1758C-0.000569637 13.0945 0 11.7387 0 9.99998C-2.7158e-08 8.26123 -0.000578559 6.90549 0.0996092 5.82421C0.200803 4.73238 0.409847 3.84451 0.874999 3.06054C1.40904 2.16059 2.16058 1.40902 3.06054 0.874999C3.84453 0.409852 4.73235 0.200797 5.82421 0.0996092C6.90552 -0.000579871 8.26117 0 9.99998 0ZM9.99998 1.5C8.23295 1.5 6.95892 1.50049 5.96288 1.59277C4.97756 1.68407 4.33973 1.86034 3.82617 2.16504C3.14213 2.57091 2.57093 3.14213 2.16504 3.82617C1.86033 4.33972 1.68407 4.9776 1.59277 5.96288C1.50049 6.9589 1.5 8.23301 1.5 9.99998C1.5 11.767 1.5005 13.0411 1.59277 14.0371C1.68407 15.0224 1.86035 15.6602 2.16504 16.1738C2.57092 16.8579 3.14212 17.429 3.82617 17.8349C4.33973 18.1396 4.97753 18.3159 5.96288 18.4072C6.95892 18.4995 8.23294 18.5 9.99998 18.5C11.767 18.5 13.0411 18.4995 14.0371 18.4072C15.0224 18.3159 15.6602 18.1396 16.1738 17.8349C16.8579 17.429 17.429 16.8579 17.8349 16.1738C18.1396 15.6602 18.3159 15.0224 18.4072 14.0371C18.4995 13.0411 18.5 11.767 18.5 9.99998C18.5 8.23301 18.4995 6.9589 18.4072 5.96288C18.3159 4.9776 18.1396 4.33972 17.8349 3.82617C17.429 3.14214 16.8578 2.57091 16.1738 2.16504C15.6602 1.86034 15.0224 1.68407 14.0371 1.59277C13.0411 1.50049 11.767 1.5 9.99998 1.5ZM6.24999 11C6.66419 11 6.99997 11.3358 6.99999 11.75V14.25C6.99999 14.6642 6.6642 15 6.24999 15C5.83578 15 5.49999 14.6642 5.49999 14.25V11.75C5.50001 11.3358 5.83579 11 6.24999 11ZM9.99998 4.99999C10.4142 4.99999 10.75 5.33579 10.75 5.74999V14.25C10.75 14.6642 10.4142 15 9.99998 15C9.58577 15 9.24999 14.6642 9.24999 14.25V5.74999C9.25 5.33579 9.58578 4.99999 9.99998 4.99999ZM13.75 7.74999C14.1642 7.74999 14.5 8.08579 14.5 8.49999V14.25C14.5 14.6642 14.1642 15 13.75 15C13.3358 15 13 14.6642 13 14.25V8.49999C13 8.08579 13.3358 7.74999 13.75 7.74999Z"
    fill="currentColor"
  />
</svg>
