<svg width="24" height="24" viewBox="0 0 24 24" fill="none" xmlns="http://www.w3.org/2000/svg" data-fui-icon="true">
  <path
    d="M12 0C13.9711 0 15.495 -0.000143781 16.7139 0.100586C17.9415 0.202061 18.9265 0.409696 19.8066 0.864258C21.2343 1.60181 22.3982 2.76568 23.1357 4.19336C23.5903 5.07346 23.7979 6.05855 23.8994 7.28613C24.0001 8.50497 24 10.0289 24 12C24 13.9711 24.0001 15.495 23.8994 16.7139C23.7979 17.9415 23.5903 18.9265 23.1357 19.8066C22.3982 21.2343 21.2343 22.3982 19.8066 23.1357C18.9265 23.5903 17.9415 23.7979 16.7139 23.8994C15.495 24.0001 13.9711 24 12 24C10.0289 24 8.50497 24.0001 7.28613 23.8994C6.05855 23.7979 5.07346 23.5903 4.19336 23.1357C2.76568 22.3982 1.60181 21.2343 0.864258 19.8066C0.409696 18.9265 0.202061 17.9415 0.100586 16.7139C-0.000143781 15.495 0 13.9711 0 12C0 10.0289 -0.000143781 8.50497 0.100586 7.28613C0.202061 6.05855 0.409696 5.07346 0.864258 4.19336C1.60181 2.76568 2.76568 1.60181 4.19336 0.864258C5.07346 0.409696 6.05855 0.202061 7.28613 0.100586C8.50497 -0.000143781 10.0289 0 12 0ZM18.5303 8.96973C18.2374 8.67683 17.7626 8.67683 17.4697 8.96973L13.5303 12.9092C13.2374 13.2019 12.7626 13.2019 12.4697 12.9092L11.0908 11.5303C10.2122 10.6517 8.78783 10.6517 7.90918 11.5303L5.46973 13.9697C5.17683 14.2626 5.17683 14.7374 5.46973 15.0303C5.76262 15.3232 6.23738 15.3232 6.53027 15.0303L8.96973 12.5908C9.26259 12.2981 9.73741 12.2981 10.0303 12.5908L11.4092 13.9697C12.2878 14.8483 13.7122 14.8483 14.5908 13.9697L18.5303 10.0303C18.8232 9.73738 18.8232 9.26262 18.5303 8.96973Z"
    fill="currentColor"
  />
</svg>
