<svg width="20" height="20" viewBox="0 0 20 20" fill="none" xmlns="http://www.w3.org/2000/svg" data-fui-icon="true">
  <path
    d="M14.6504 0C17.6047 0.000210779 19.9997 2.39525 20 5.3496V14.6504C19.9998 17.6048 17.6048 19.9998 14.6504 20H5.3496C2.39519 19.9998 0.00021078 17.6048 0 14.6504V5.3496C0.000277064 2.39525 2.39523 0.000211094 5.3496 0H14.6504ZM5.3496 1.5C3.22366 1.50021 1.50027 3.22367 1.5 5.3496V14.6504C1.50021 16.7764 3.22362 18.4998 5.3496 18.5H14.6504C16.7764 18.4998 18.4998 16.7764 18.5 14.6504V5.3496C18.4997 3.22367 16.7763 1.50021 14.6504 1.5H5.3496ZM6.24999 11C6.66419 11 6.99997 11.3358 6.99999 11.75V14.25C6.99999 14.6642 6.6642 15 6.24999 15C5.83578 15 5.49999 14.6642 5.49999 14.25V11.75C5.50001 11.3358 5.83579 11 6.24999 11ZM9.99998 4.99999C10.4142 4.99999 10.75 5.33579 10.75 5.74999V14.25C10.75 14.6642 10.4142 15 9.99998 15C9.58577 15 9.24999 14.6642 9.24999 14.25V5.74999C9.25 5.33579 9.58578 4.99999 9.99998 4.99999ZM13.75 7.74999C14.1642 7.74999 14.5 8.08579 14.5 8.49999V14.25C14.5 14.6642 14.1642 15 13.75 15C13.3358 15 13 14.6642 13 14.25V8.49999C13 8.08579 13.3358 7.74999 13.75 7.74999Z"
    fill="currentColor"
  />
</svg>
