<svg width="32" height="32" viewBox="0 0 32 32" fill="none" xmlns="http://www.w3.org/2000/svg" data-fui-icon="true">
  <path
    d="M23.25 1C27.5302 1 31 4.46979 31 8.75V23.25C31 27.5302 27.5302 31 23.25 31H8.75C4.46979 31 1 27.5302 1 23.25V8.75C1 4.46979 4.46979 1 8.75 1H23.25ZM8.75 2.5C5.29822 2.5 2.5 5.29822 2.5 8.75V23.25C2.5 26.7018 5.29822 29.5 8.75 29.5H23.25C26.7018 29.5 29.5 26.7018 29.5 23.25V8.75C29.5 5.29822 26.7018 2.5 23.25 2.5H8.75ZM22.7236 12.2158C23.0186 11.9252 23.4934 11.9288 23.7842 12.2236C24.0748 12.5186 24.0712 12.9934 23.7764 13.2842L18.2832 18.7012C17.7478 19.2289 16.8878 19.2291 16.3525 18.7012L13.3633 15.7529L9.27637 19.7842C8.98143 20.0748 8.5066 20.0712 8.21582 19.7764C7.92519 19.4814 7.92879 19.0066 8.22363 18.7158L12.3984 14.5986L12.502 14.5059C13.0395 14.0727 13.8272 14.1037 14.3291 14.5986L17.3174 17.5459L22.7236 12.2158Z"
    fill="currentColor"
  />
</svg>
