<svg width="20" height="20" viewBox="0 0 20 20" fill="none" xmlns="http://www.w3.org/2000/svg" data-fui-icon="true">
  <path
    d="M13.4004 0.999969C16.4929 1.00018 18.9998 3.50709 19 6.59958V13.4004C18.9998 16.4928 16.4929 18.9998 13.4004 19H6.59961C3.50713 18.9998 1.00021 16.4928 1 13.4004V6.59958C1.00021 3.5071 3.50713 1.00018 6.59961 0.999969H13.4004ZM6.59961 2.99997C4.6117 3.00018 3.00021 4.61166 3 6.59958V13.4004C3.00021 15.3883 4.61169 16.9998 6.59961 17H13.4004C15.3883 16.9998 16.9998 15.3883 17 13.4004V6.59958C16.9998 4.61166 15.3883 3.00018 13.4004 2.99997H6.59961ZM6 10.5C6.55228 10.5 7 10.9477 7 11.5V14C7 14.5523 6.55228 15 6 15C5.44772 15 5 14.5523 5 14V11.5C5 10.9477 5.44772 10.5 6 10.5ZM10 4.99997C10.5523 4.99997 11 5.4477 11 5.99997V14C11 14.5523 10.5523 15 10 15C9.44772 15 9 14.5523 9 14V5.99997C9.00002 5.4477 9.44773 4.99997 10 4.99997ZM14 7.49997C14.5523 7.49997 15 7.9477 15 8.49997V14C15 14.5522 14.5523 15 14 15C13.4477 15 13 14.5522 13 14V8.49997C13 7.9477 13.4477 7.49997 14 7.49997Z"
    fill="currentColor"
  />
</svg>
