<svg width="12" height="12" viewBox="0 0 12 12" fill="none" xmlns="http://www.w3.org/2000/svg" data-fui-icon="true">
  <path
    d="M5.99989 0C6.80465 -1.09209e-07 7.44629 -0.000266618 7.96568 0.0351556C8.49156 0.0710631 8.94786 0.146056 9.37581 0.323236C10.417 0.754621 11.2453 1.58275 11.6765 2.62398C11.8538 3.05201 11.9287 3.50809 11.9646 4.03411C12.0001 4.55357 11.9998 5.19497 11.9998 5.99989C11.9998 6.8048 12 7.44621 11.9646 7.96568C11.9287 8.49165 11.8537 8.94781 11.6765 9.37581C11.2453 10.417 10.4169 11.2452 9.37581 11.6765C8.94787 11.8537 8.49156 11.9287 7.96568 11.9646C7.44629 12.0001 6.80465 11.9998 5.99989 11.9998C5.19516 11.9998 4.55352 12 4.03411 11.9646C3.50817 11.9287 3.05194 11.8537 2.62398 11.6765C1.58265 11.2452 0.754586 10.4171 0.323236 9.37581C0.146003 8.94773 0.0710503 8.49177 0.0351556 7.96568C-0.00026772 7.4462 0 6.80483 0 5.99989C-2.75946e-08 5.19497 -0.000271957 4.55357 0.0351556 4.03411C0.0710544 3.50809 0.14602 3.05201 0.323236 2.62398C0.75461 1.58276 1.58272 0.75454 2.62398 0.323236C3.05192 0.14614 3.50821 0.0710374 4.03411 0.0351556C4.55351 -0.000239881 5.19517 0 5.99989 0ZM5.99989 1.49997C5.17455 1.49997 4.59223 1.5001 4.13567 1.53122C3.68623 1.5619 3.41208 1.62003 3.19721 1.70895C2.52363 1.98802 1.98809 2.52367 1.70895 3.19721C1.61993 3.41212 1.56193 3.686 1.53122 4.13567C1.50007 4.59229 1.49997 5.17431 1.49997 5.99989C1.49997 6.82548 1.50007 7.40749 1.53122 7.86412C1.56192 8.31388 1.61992 8.58764 1.70895 8.80258C1.98806 9.47622 2.52356 10.0117 3.19721 10.2908C3.41209 10.3798 3.68617 10.4379 4.13567 10.4686C4.59224 10.4997 5.17454 10.4998 5.99989 10.4998C6.82528 10.4998 7.40757 10.4997 7.86412 10.4686C8.31358 10.4379 8.58772 10.3798 8.80258 10.2908C9.47603 10.0117 10.0118 9.47609 10.2908 8.80258C10.3798 8.58768 10.4379 8.31368 10.4686 7.86412C10.4997 7.4075 10.4998 6.82544 10.4998 5.99989C10.4998 5.17431 10.4997 4.59229 10.4686 4.13567C10.4379 3.68601 10.3798 3.41212 10.2908 3.19721C10.0118 2.52366 9.47607 1.9881 8.80258 1.70895C8.58772 1.61995 8.31359 1.56193 7.86412 1.53122C7.40757 1.50007 6.82528 1.49997 5.99989 1.49997ZM4.24895 4.99991C4.66308 4.99991 4.99882 5.33579 4.99893 5.7499V8.24985C4.99893 8.66406 4.66315 8.99984 4.24895 8.99984C3.83474 8.99984 3.49896 8.66406 3.49896 8.24985V5.7499C3.49908 5.33579 3.83481 4.99991 4.24895 4.99991ZM7.74889 2.99995C8.16302 2.99995 8.49876 3.33583 8.49887 3.74993V8.24985C8.49887 8.66406 8.16309 8.99984 7.74889 8.99984C7.33468 8.99984 6.9989 8.66406 6.9989 8.24985V3.74993C6.99901 3.33583 7.33475 2.99995 7.74889 2.99995Z"
    fill="currentColor"
  />
</svg>
