<svg width="32" height="32" viewBox="0 0 32 32" fill="none" xmlns="http://www.w3.org/2000/svg" data-fui-icon="true">
  <path
    d="M24 1C27.866 1 31 4.13401 31 8V24C31 27.866 27.866 31 24 31H8C4.13401 31 1 27.866 1 24V8C1 4.13401 4.13401 1 8 1H24ZM8 3C5.23858 3 3 5.23858 3 8V24C3 26.7614 5.23858 29 8 29H24C26.7614 29 29 26.7614 29 24V8C29 5.23858 26.7614 3 24 3H8ZM10 17C10.5523 17 11 17.4477 11 18V23C11 23.5523 10.5523 24 10 24C9.44771 24 9 23.5523 9 23V18C9 17.4477 9.44771 17 10 17ZM16 8C16.5523 8 17 8.44772 17 9V23C17 23.5523 16.5523 24 16 24C15.4477 24 15 23.5523 15 23V9C15 8.44772 15.4477 8 16 8ZM22 12C22.5523 12 23 12.4477 23 13V23C23 23.5523 22.5523 24 22 24C21.4477 24 21 23.5523 21 23V13C21 12.4477 21.4477 12 22 12Z"
    fill="currentColor"
  />
</svg>
