<svg width="32" height="32" viewBox="0 0 32 32" fill="none" xmlns="http://www.w3.org/2000/svg" data-fui-icon="true">
  <path
    d="M24 1C27.866 1 31 4.13401 31 8V24C31 27.866 27.866 31 24 31H8C4.13401 31 1 27.866 1 24V8C1 4.13401 4.13401 1 8 1H24ZM10 17C9.44771 17 9 17.4477 9 18V23C9 23.5523 9.44771 24 10 24C10.5523 24 11 23.5523 11 23V18C11 17.4477 10.5523 17 10 17ZM16 8C15.4477 8 15 8.44772 15 9V23C15 23.5523 15.4477 24 16 24C16.5523 24 17 23.5523 17 23V9C17 8.44772 16.5523 8 16 8ZM22 12C21.4477 12 21 12.4477 21 13V23C21 23.5523 21.4477 24 22 24C22.5523 24 23 23.5523 23 23V13C23 12.4477 22.5523 12 22 12Z"
    fill="currentColor"
  />
</svg>
