<svg width="20" height="20" viewBox="0 0 20 20" fill="none" xmlns="http://www.w3.org/2000/svg" data-fui-icon="true">
  <path
    fill-rule="evenodd"
    clip-rule="evenodd"
    d="M11.7559 18.8271C11.1879 18.9395 10.601 19 10 19C9.3987 19 8.81145 18.9396 8.24316 18.8271L8.53418 17.3574C9.00691 17.4509 9.49719 17.5 10 17.5C10.5028 17.5 10.9931 17.4509 11.4658 17.3574L11.7559 18.8271ZM3.7627 14.166C4.31065 14.9845 5.01554 15.6894 5.83398 16.2373L5.41602 16.8604L5.36035 16.9453L4.99902 17.4824C4.018 16.8254 3.17344 15.9811 2.5166 15L3.7627 14.166ZM16.8604 14.583L17.3564 14.915L17.4824 15C16.8255 15.9812 15.9812 16.8255 15 17.4824L14.583 16.8613V16.8604L14.166 16.2373C14.9845 15.6894 15.6894 14.9845 16.2373 14.166L16.8604 14.583ZM1.90723 8.38867H1.90625L2.64258 8.53418C2.54906 9.00691 2.5 9.49719 2.5 10C2.5 10.5028 2.54906 10.9931 2.64258 11.4658L1.17188 11.7559C1.05955 11.1879 1 10.6009 1 10C1 9.39877 1.05943 8.81139 1.17188 8.24316L1.90723 8.38867ZM18.8271 8.24316C18.9396 8.81145 19 9.3987 19 10C19 10.601 18.9395 11.1879 18.8271 11.7559L17.3574 11.4658C17.4509 10.9931 17.5 10.5028 17.5 10C17.5 9.49719 17.4509 9.00691 17.3574 8.53418L18.0928 8.38867L18.8271 8.24316ZM5.41699 3.13867H5.41602L5.83398 3.7627C5.01554 4.31065 4.31065 5.01554 3.7627 5.83398L3.13867 5.41602L2.5166 4.99902C3.17348 4.01803 4.01803 3.17348 4.99902 2.5166L5.41699 3.13867ZM15 2.5166C15.9811 3.17344 16.8254 4.018 17.4824 4.99902L16.8613 5.41699L16.8604 5.41602L16.2373 5.83398C15.6894 5.01554 14.9845 4.31065 14.166 3.7627L14.583 3.13867L15 2.5166ZM10 1C10.6009 1 11.1879 1.05955 11.7559 1.17188L11.6514 1.70703L11.4658 2.64258C10.9931 2.54906 10.5028 2.5 10 2.5C9.49719 2.5 9.00691 2.54906 8.53418 2.64258L8.34863 1.70703L8.24316 1.17188C8.81139 1.05943 9.39877 1 10 1Z"
    fill="currentColor"
  />
</svg>
