<svg width="16" height="16" viewBox="0 0 16 16" fill="none" xmlns="http://www.w3.org/2000/svg" data-fui-icon="true">
  <path
    d="M9.36523 14.8652C8.92357 14.9526 8.46729 15 8 15C7.53237 15 7.07575 14.9527 6.63379 14.8652L6.9248 13.3955C7.27129 13.4641 7.63076 13.5 8 13.5C8.36924 13.5 8.72871 13.4641 9.0752 13.3955L9.36523 14.8652ZM3.42578 11.0547C3.82775 11.6551 4.34491 12.1723 4.94531 12.5742L4.52734 13.1963L4.52832 13.1973L4.11035 13.8203C3.34702 13.3092 2.68971 12.6521 2.17871 11.8887L3.42578 11.0547ZM13.8203 11.8887C13.3092 12.6521 12.6521 13.3092 11.8887 13.8203L11.4717 13.1973V13.1963L11.0547 12.5742C11.6551 12.1723 12.1723 11.6551 12.5742 11.0547L13.8203 11.8887ZM1.86914 6.7793H1.86816L2.60449 6.9248C2.53595 7.27129 2.5 7.63076 2.5 8C2.5 8.36924 2.53595 8.72871 2.60449 9.0752L1.13379 9.36523C1.04648 8.92363 1 8.46723 1 8C1 7.53244 1.04636 7.07569 1.13379 6.63379L1.86914 6.7793ZM14.8652 6.63379C14.9527 7.07575 15 7.53237 15 8C15 8.46729 14.9526 8.92357 14.8652 9.36523L13.3955 9.0752C13.4641 8.72871 13.5 8.36924 13.5 8C13.5 7.63076 13.4641 7.27129 13.3955 6.9248L14.1309 6.7793L14.8652 6.63379ZM4.52246 2.79492L4.94531 3.42578C4.34491 3.82775 3.82775 4.34491 3.42578 4.94531L2.17871 4.11035C2.68974 3.34705 3.34705 2.68974 4.11035 2.17871L4.52246 2.79492ZM11.8887 2.17871C12.6521 2.68971 13.3092 3.34702 13.8203 4.11035L12.5742 4.94531C12.1723 4.34491 11.6551 3.82775 11.0547 3.42578L11.8887 2.17871ZM8 1C8.46723 1 8.92363 1.04648 9.36523 1.13379L9.24316 1.75781L9.0752 2.60449C8.72871 2.53595 8.36924 2.5 8 2.5C7.63076 2.5 7.27129 2.53595 6.9248 2.60449L6.75684 1.75781L6.63379 1.13379C7.07569 1.04636 7.53244 1 8 1Z"
    fill="currentColor"
  />
</svg>
