<svg width="16" height="16" viewBox="0 0 16 16" fill="none" xmlns="http://www.w3.org/2000/svg" data-fui-icon="true">
  <path
    d="M8 1.00024C9.38583 1.00024 10.5258 0.99854 11.4248 1.11938C12.3526 1.24413 13.172 1.51601 13.8281 2.17212C14.4842 2.82822 14.7561 3.64764 14.8809 4.57544C15.0017 5.47444 15 6.6145 15 8.00024C15 9.386 15.0017 10.5261 14.8809 11.425C14.7561 12.3528 14.4842 13.1723 13.8281 13.8284C13.172 14.4844 12.3526 14.7564 11.4248 14.8811C10.5258 15.0019 9.3858 15.0002 8 15.0002C6.61418 15.0002 5.47422 15.0019 4.5752 14.8811C3.64741 14.7564 2.82797 14.4844 2.17188 13.8284C1.51581 13.1723 1.2439 12.3528 1.11914 11.425C0.998298 10.5261 1 9.386 1 8.00024C1 6.6145 0.998319 5.47444 1.11914 4.57544C1.24388 3.64767 1.51585 2.82821 2.17188 2.17212C2.82797 1.51603 3.6474 1.24413 4.5752 1.11938C5.47422 0.998538 6.61419 1.00024 8 1.00024ZM8 3.00024C6.55781 3.00024 5.57656 3.00209 4.8418 3.10083C4.1358 3.19576 3.8085 3.36362 3.58594 3.58618C3.36343 3.80875 3.1955 4.13612 3.10059 4.84204C3.00187 5.5768 3 6.55815 3 8.00024C3 9.44236 3.00185 10.4237 3.10059 11.1584C3.19552 11.8644 3.36339 12.1918 3.58594 12.4143C3.8085 12.6368 4.13583 12.8047 4.8418 12.8997C5.57656 12.9984 6.55781 13.0002 8 13.0002C9.44217 13.0002 10.4234 12.9984 11.1582 12.8997C11.8641 12.8047 12.1915 12.6368 12.4141 12.4143C12.6366 12.1918 12.8045 11.8644 12.8994 11.1584C12.9982 10.4237 13 9.44236 13 8.00024C13 6.55814 12.9981 5.5768 12.8994 4.84204C12.8045 4.13606 12.6366 3.80875 12.4141 3.58618C12.1915 3.36361 11.8643 3.19576 11.1582 3.10083C10.4234 3.00209 9.4422 3.00024 8 3.00024ZM6 7.00024C6.55228 7.00024 7 7.44796 7 8.00024V10.0002C6.99987 10.5524 6.5522 11.0002 6 11.0002C5.4478 11.0002 5.00013 10.5524 5 10.0002V8.00024C5 7.44796 5.44772 7.00024 6 7.00024ZM10 5.00024C10.5523 5.00024 11 5.44796 11 6.00024V10.0002C10.9999 10.5524 10.5522 11.0002 10 11.0002C9.4478 11.0002 9.00013 10.5524 9 10.0002V6.00024C9 5.44796 9.44771 5.00024 10 5.00024Z"
    fill="currentColor"
  />
</svg>
