<svg width="20" height="20" viewBox="0 0 20 20" fill="none" xmlns="http://www.w3.org/2000/svg" data-fui-icon="true">
  <path
    d="M14 0.999969C16.7614 0.999969 19 3.23855 19 5.99997V14C19 16.7614 16.7614 19 14 19H6C3.23858 19 1 16.7614 1 14V5.99997C1 3.23855 3.23858 0.99997 6 0.999969H14ZM6 2.99997C4.34315 2.99997 3 4.34312 3 5.99997V14C3 15.6568 4.34315 17 6 17H14C15.6569 17 17 15.6568 17 14V5.99997C17 4.34312 15.6569 2.99997 14 2.99997H6ZM6 10.5C6.55228 10.5 7 10.9477 7 11.5V14C7 14.5523 6.55228 15 6 15C5.44772 15 5 14.5523 5 14V11.5C5 10.9477 5.44772 10.5 6 10.5ZM10 4.99997C10.5523 4.99997 11 5.4477 11 5.99997V14C11 14.5523 10.5523 15 10 15C9.44772 15 9 14.5523 9 14V5.99997C9.00002 5.4477 9.44773 4.99997 10 4.99997ZM14 7.49997C14.5523 7.49997 15 7.9477 15 8.49997V14C15 14.5522 14.5523 15 14 15C13.4477 15 13 14.5522 13 14V8.49997C13 7.9477 13.4477 7.49997 14 7.49997Z"
    fill="currentColor"
  />
</svg>
