<svg width="12" height="12" viewBox="0 0 12 12" fill="none" xmlns="http://www.w3.org/2000/svg" data-fui-icon="true">
  <path
    d="M1.75741 1.75736C2.20933 1.30544 2.82254 1.05163 3.46165 1.05163H8.53845C9.17757 1.05163 9.79077 1.30544 10.2427 1.75736C10.6946 2.20928 10.9484 2.82249 10.9484 3.4616V8.5384C10.9484 9.17751 10.6946 9.79072 10.2427 10.2426C9.79077 10.6946 9.17757 10.9484 8.53845 10.9484H3.46165C2.82254 10.9484 2.20933 10.6946 1.75741 10.2426C1.30549 9.79072 1.05169 9.17751 1.05169 8.5384V3.4616C1.05169 2.82249 1.30549 2.20928 1.75741 1.75736ZM2.81807 2.81802C2.64746 2.98863 2.55153 3.22031 2.55153 3.4616V8.5384C2.55153 8.77969 2.64746 9.01137 2.81807 9.18198C2.98869 9.3526 3.22036 9.44853 3.46165 9.44853H8.53845C8.77974 9.44853 9.01142 9.3526 9.18203 9.18198C9.35265 9.01137 9.44858 8.77969 9.44858 8.5384V3.4616C9.44858 3.22031 9.35265 2.98863 9.18203 2.81802C9.01142 2.6474 8.77974 2.55147 8.53845 2.55147H3.46165C3.22036 2.55147 2.98869 2.6474 2.81807 2.81802ZM6.70716 6.70711C7.09768 6.3166 7.73085 6.31659 8.12137 6.70711C8.51185 7.09763 8.51187 7.73081 8.12137 8.12132C7.73086 8.51183 7.09769 8.5118 6.70716 8.12132C6.31663 7.7308 6.31663 7.09763 6.70716 6.70711ZM3.87873 6.70711C4.26926 6.31658 4.90242 6.31658 5.29294 6.70711C5.68342 7.09763 5.68345 7.73081 5.29294 8.12132C4.90243 8.51182 4.26926 8.5118 3.87873 8.12132C3.48821 7.7308 3.48822 7.09763 3.87873 6.70711ZM6.70716 3.87868C7.09768 3.48816 7.73085 3.48817 8.12137 3.87868C8.5119 4.2692 8.5119 4.90237 8.12137 5.29289C7.73085 5.6834 7.09768 5.68341 6.70716 5.29289C6.31666 4.90237 6.31666 4.2692 6.70716 3.87868ZM3.87873 3.87868C4.26925 3.48818 4.90242 3.48817 5.29294 3.87868C5.68346 4.2692 5.68345 4.90237 5.29294 5.29289C4.90242 5.68342 4.26926 5.68342 3.87873 5.29289C3.48822 4.90237 3.48821 4.2692 3.87873 3.87868Z"
    fill="currentColor"
  />
</svg>
