<svg
  width="32"
  height="32"
  viewBox="0 0 32 32"
  fill="none"
  xmlns="http://www.w3.org/2000/svg"
  data-fui-icon="true"
>
  <path
    d="M5.92373 5.92373C5.35779 6.48967 5.03985 7.25725 5.03985 8.05761L5.03985 23.9424C5.03985 24.7427 5.35779 25.5103 5.92373 26.0763V26.0763C6.48967 26.6422 7.25725 26.9602 8.05761 26.9602L23.9424 26.9602C24.7427 26.9602 25.5103 26.6422 26.0763 26.0763V26.0763C26.6422 25.5103 26.9602 24.7427 26.9602 23.9424L26.9602 8.05761C26.9602 7.25725 26.6422 6.48967 26.0763 5.92373V5.92373C25.5103 5.35779 24.7428 5.03985 23.9424 5.03985L8.05761 5.03985C7.25725 5.03985 6.48967 5.35779 5.92373 5.92373V5.92373Z"
    stroke="currentColor"
    stroke-width="1.5"
    stroke-linecap="round"
    stroke-linejoin="round"
  />
  <path
    d="M17.2374 14.7626C17.9209 15.446 17.9209 16.554 17.2374 17.2374 16.554 17.9209 15.446 17.9209 14.7626 17.2374 14.0792 16.554 14.0792 15.446 14.7626 14.7626 15.446 14.0791 16.554 14.0791 17.2374 14.7626zM12.2877 9.81283C12.9711 10.4962 12.9711 11.6043 12.2877 12.2877 11.6043 12.9711 10.4962 12.9711 9.81282 12.2877 9.1294 11.6043 9.1294 10.4962 9.81282 9.81283 10.4962 9.12941 11.6043 9.12941 12.2877 9.81283zM9.81281 19.7123C10.4962 19.0289 11.6043 19.0289 12.2877 19.7123 12.9711 20.3957 12.9711 21.5038 12.2877 22.1872 11.6043 22.8706 10.4962 22.8706 9.81281 22.1872 9.12939 21.5038 9.12939 20.3957 9.81281 19.7123zM22.1872 19.7123C22.8706 20.3957 22.8706 21.5038 22.1872 22.1872 21.5038 22.8706 20.3957 22.8706 19.7123 22.1872 19.0289 21.5038 19.0289 20.3957 19.7123 19.7123 20.3957 19.0289 21.5038 19.0289 22.1872 19.7123zM19.7123 9.81281C20.3957 9.12939 21.5038 9.12939 22.1872 9.81281 22.8706 10.4962 22.8706 11.6043 22.1872 12.2877 21.5038 12.9711 20.3957 12.9711 19.7123 12.2877 19.0289 11.6043 19.0289 10.4962 19.7123 9.81281z"
    fill="currentColor"
  />
</svg>
