<svg width="16" height="16" viewBox="0 0 16 16" fill="none" xmlns="http://www.w3.org/2000/svg" data-fui-icon="true">
  <path
    d="M11.4199 1.41602C12.2589 1.41615 13.0639 1.74949 13.6572 2.34277C14.2505 2.93606 14.5839 3.74106 14.584 4.58008V11.4199C14.5839 12.2589 14.2505 13.0639 13.6572 13.6572C13.0639 14.2505 12.2589 14.5838 11.4199 14.584H4.58008C3.74106 14.5839 2.93606 14.2505 2.34277 13.6572C1.74949 13.0639 1.41615 12.2589 1.41602 11.4199V4.58008C1.41615 3.74106 1.74949 2.93606 2.34277 2.34277C2.93606 1.74949 3.74106 1.41615 4.58008 1.41602H11.4199ZM4.58008 2.91602C4.13888 2.91615 3.7153 3.09134 3.40332 3.40332C3.09134 3.7153 2.91615 4.13888 2.91602 4.58008V11.4199C2.91615 11.8611 3.09134 12.2847 3.40332 12.5967C3.7153 12.9087 4.13888 13.0839 4.58008 13.084H11.4199C11.8609 13.0838 12.2838 12.9084 12.5957 12.5967C12.9077 12.2847 13.0839 11.8611 13.084 11.4199V4.58008C13.0839 4.13888 12.9077 3.7153 12.5957 3.40332C12.2838 3.09164 11.8609 2.91615 11.4199 2.91602H4.58008ZM4.46484 10.1211C4.85539 9.73086 5.48848 9.73068 5.87891 10.1211C6.26933 10.5115 6.26914 11.1446 5.87891 11.5352C5.48838 11.9257 4.85537 11.9257 4.46484 11.5352C4.07433 11.1446 4.07432 10.5116 4.46484 10.1211ZM10.1211 10.1211C10.5115 9.73067 11.1446 9.73088 11.5352 10.1211C11.9257 10.5116 11.9257 11.1446 11.5352 11.5352C11.1446 11.9257 10.5116 11.9257 10.1211 11.5352C9.73089 11.1446 9.73069 10.5115 10.1211 10.1211ZM7.29297 7.29297C7.68349 6.90245 8.31651 6.90246 8.70703 7.29297C9.09756 7.68349 9.09756 8.31651 8.70703 8.70703C8.31651 9.09754 7.68349 9.09755 7.29297 8.70703C6.90246 8.31651 6.90246 7.68349 7.29297 7.29297ZM4.46484 4.46484C4.85537 4.07432 5.48838 4.07432 5.87891 4.46484C6.26914 4.85539 6.26933 5.48848 5.87891 5.87891C5.48848 6.26932 4.85539 6.26914 4.46484 5.87891C4.07432 5.48839 4.07433 4.85537 4.46484 4.46484ZM10.1211 4.46484C10.5116 4.07432 11.1446 4.07433 11.5352 4.46484C11.9257 4.85537 11.9257 5.48838 11.5352 5.87891C11.1446 6.26912 10.5115 6.26933 10.1211 5.87891C9.73069 5.48849 9.73089 4.85539 10.1211 4.46484Z"
    fill="currentColor"
  />
</svg>
