<svg
  width="24"
  height="24"
  viewBox="0 0 24 24"
  fill="none"
  xmlns="http://www.w3.org/2000/svg"
  data-fui-icon="true"
>
  <path
    d="M4.04504 4.04505C3.4791 4.61099 3.16116 5.37857 3.16116 6.17893V17.8211C3.16116 18.6214 3.4791 19.389 4.04504 19.955V19.955C4.61098 20.5209 5.37856 20.8388 6.17892 20.8388L17.8211 20.8388C18.6214 20.8388 19.389 20.5209 19.9549 19.955V19.955C20.5209 19.389 20.8388 18.6214 20.8388 17.8211V6.17893C20.8388 5.37857 20.5209 4.61099 19.9549 4.04505V4.04505C19.389 3.47911 18.6214 3.16117 17.8211 3.16117L6.17892 3.16117C5.37856 3.16117 4.61098 3.47911 4.04504 4.04505V4.04505Z"
    stroke="currentColor"
    stroke-width="1.5"
    stroke-linecap="round"
    stroke-linejoin="round"
  />
  <path
    d="M12.8838 11.1161C13.372 11.6043 13.372 12.3957 12.8838 12.8839 12.3957 13.372 11.6042 13.372 11.1161 12.8839 10.6279 12.3957 10.6279 11.6043 11.1161 11.1161 11.6042 10.628 12.3957 10.628 12.8838 11.1161zM8.64127 6.8735C9.12943 7.36166 9.12943 8.15311 8.64127 8.64127 8.15312 9.12942 7.36166 9.12942 6.87351 8.64127 6.38535 8.15311 6.38535 7.36166 6.87351 6.8735 7.36166 6.38535 8.15312 6.38535 8.64127 6.8735zM6.87344 15.3588C7.3616 14.8706 8.15305 14.8706 8.64121 15.3588 9.12936 15.8469 9.12936 16.6384 8.64121 17.1266 8.15305 17.6147 7.3616 17.6147 6.87344 17.1266 6.38529 16.6384 6.38529 15.8469 6.87344 15.3588zM17.1265 15.3587C17.6147 15.8469 17.6147 16.6383 17.1265 17.1265 16.6383 17.6147 15.8469 17.6147 15.3587 17.1265 14.8706 16.6383 14.8706 15.8469 15.3587 15.3587 15.8469 14.8706 16.6383 14.8706 17.1265 15.3587zM15.3588 6.8735C15.8469 6.38534 16.6384 6.38534 17.1266 6.8735 17.6147 7.36165 17.6147 8.15311 17.1266 8.64126 16.6384 9.12942 15.8469 9.12942 15.3588 8.64126 14.8706 8.15311 14.8706 7.36165 15.3588 6.8735z"
    fill="currentColor"
  />
</svg>
