<svg width="24" height="24" viewBox="0 0 24 24" fill="none" xmlns="http://www.w3.org/2000/svg" data-fui-icon="true">
  <path
    d="M3.5147 3.51472C4.22126 2.80816 5.17955 2.41128 6.17878 2.41125H17.8212C18.8204 2.41128 19.7787 2.80816 20.4853 3.51472C21.1918 4.22128 21.5887 5.17957 21.5887 6.1788V17.8212C21.5887 18.8204 21.1918 19.7787 20.4853 20.4853C19.7787 21.1918 18.8204 21.5887 17.8212 21.5888H6.17878C5.17955 21.5887 4.22126 21.1918 3.5147 20.4853C2.80814 19.7787 2.41126 18.8204 2.41123 17.8212V6.1788C2.41126 5.17957 2.80814 4.22128 3.5147 3.51472ZM4.57536 4.57538C4.1501 5.00064 3.9111 5.5774 3.91107 6.1788V17.8212C3.9111 18.4226 4.1501 18.9994 4.57536 19.4246C5.00062 19.8499 5.57738 20.0889 6.17878 20.0889H17.8212C18.4226 20.0889 18.9993 19.8499 19.4246 19.4246C19.8499 18.9994 20.0889 18.4226 20.0889 17.8212V6.1788C20.0889 5.5774 19.8499 5.00064 19.4246 4.57538C18.9993 4.15012 18.4226 3.91112 17.8212 3.91109H6.17878C5.57738 3.91112 5.00062 4.15012 4.57536 4.57538ZM15.3587 15.3588C15.8469 14.8706 16.6384 14.8706 17.1265 15.3588C17.6147 15.8469 17.6146 16.6384 17.1265 17.1265C16.6383 17.6147 15.8469 17.6147 15.3587 17.1265C14.8706 16.6384 14.8706 15.8469 15.3587 15.3588ZM6.87346 15.3588C7.36161 14.8706 8.15307 14.8706 8.64122 15.3588C9.12935 15.8469 9.12937 16.6384 8.64122 17.1265C8.15308 17.6147 7.36161 17.6146 6.87346 17.1265C6.3853 16.6384 6.3853 15.8469 6.87346 15.3588ZM11.1161 11.1161C11.6043 10.628 12.3957 10.628 12.8839 11.1161C13.372 11.6043 13.372 12.3957 12.8839 12.8839C12.3957 13.372 11.6043 13.372 11.1161 12.8839C10.6279 12.3957 10.6279 11.6043 11.1161 11.1161ZM15.3587 6.87348C15.8469 6.38533 16.6383 6.38535 17.1265 6.87348C17.6147 7.36163 17.6147 8.15309 17.1265 8.64124C16.6383 9.12939 15.8469 9.12939 15.3587 8.64124C14.8706 8.15309 14.8706 7.36162 15.3587 6.87348ZM6.87346 6.87348C7.36161 6.38532 8.15307 6.38532 8.64122 6.87348C9.12938 7.36163 9.12938 8.15309 8.64122 8.64124C8.15307 9.12936 7.3616 9.12939 6.87346 8.64124C6.38532 8.1531 6.38534 7.36163 6.87346 6.87348Z"
    fill="currentColor"
  />
</svg>
