<svg width="32" height="32" viewBox="0 0 32 32" fill="none" xmlns="http://www.w3.org/2000/svg" data-fui-icon="true">
  <path
    d="M5.92368 5.92373C5.35774 6.48967 5.0398 7.25725 5.0398 8.05761L5.0398 23.9424C5.0398 24.7427 5.35774 25.5103 5.92368 26.0763C6.48962 26.6422 7.25721 26.9602 8.05757 26.9602L23.9423 26.9602C24.7427 26.9602 25.5103 26.6422 26.0762 26.0763C26.6422 25.5103 26.9601 24.7427 26.9601 23.9424L26.9601 8.05761C26.9601 7.25725 26.6422 6.48967 26.0762 5.92373C25.5103 5.35779 24.7427 5.03985 23.9423 5.03985L8.05757 5.03985C7.25721 5.03985 6.48962 5.35779 5.92368 5.92373Z"
    stroke="currentColor"
    stroke-width="1.5"
    stroke-linecap="round"
    stroke-linejoin="round"
  />
  <path
    d="M17.2373 14.7626C17.9208 15.446 17.9208 16.554 17.2373 17.2374 16.5539 17.9209 15.4459 17.9209 14.7625 17.2374 14.079 16.554 14.079 15.446 14.7625 14.7626 15.4459 14.0791 16.5539 14.0791 17.2373 14.7626zM12.2876 9.81286C12.971 10.4963 12.971 11.6043 12.2876 12.2877 11.6042 12.9711 10.4962 12.9711 9.81275 12.2877 9.12934 11.6043 9.12934 10.4963 9.81275 9.81286 10.4962 9.12944 11.6042 9.12944 12.2876 9.81286zM9.81273 19.7123C10.4962 19.0288 11.6042 19.0288 12.2876 19.7122 12.971 20.3957 12.971 21.5037 12.2876 22.1871 11.6042 22.8705 10.4962 22.8705 9.81273 22.1871 9.12932 21.5037 9.12932 20.3957 9.81273 19.7123zM22.1872 19.7123C22.8706 20.3957 22.8706 21.5037 22.1872 22.1871 21.5037 22.8706 20.3957 22.8706 19.7123 22.1871 19.0289 21.5037 19.0289 20.3957 19.7123 19.7123 20.3957 19.0289 21.5037 19.0289 22.1872 19.7123zM19.7123 9.81284C20.3957 9.12942 21.5037 9.12942 22.1871 9.81284 22.8706 10.4963 22.8706 11.6043 22.1871 12.2877 21.5037 12.9711 20.3957 12.9711 19.7123 12.2877 19.0289 11.6043 19.0289 10.4963 19.7123 9.81284z"
    fill="currentColor"
  />
</svg>
