<svg
  width="20"
  height="20"
  viewBox="0 0 20 20"
  fill="none"
  xmlns="http://www.w3.org/2000/svg"
  data-fui-icon="true"
>
  <g clip-path="url(#clip0_457_22)">
    <path
      d="M5.71429 4.28571C6.47321 4.28571 7.14286 4.95536 7.14286 5.71429C7.14286 6.51786 6.47321 7.14286 5.71429 7.14286C4.91071 7.14286 4.28571 6.51786 4.28571 5.71429C4.28571 4.95536 4.91071 4.28571 5.71429 4.28571ZM5.71429 12.8571C6.47321 12.8571 7.14286 13.5268 7.14286 14.2857C7.14286 15.0893 6.47321 15.7143 5.71429 15.7143C4.91071 15.7143 4.28571 15.0893 4.28571 14.2857C4.28571 13.5268 4.91071 12.8571 5.71429 12.8571ZM14.2857 12.8571C15.0446 12.8571 15.7143 13.5268 15.7143 14.2857C15.7143 15.0893 15.0446 15.7143 14.2857 15.7143C13.4821 15.7143 12.8571 15.0893 12.8571 14.2857C12.8571 13.5268 13.4821 12.8571 14.2857 12.8571ZM14.2857 4.28571C15.0446 4.28571 15.7143 4.95536 15.7143 5.71429C15.7143 6.51786 15.0446 7.14286 14.2857 7.14286C13.4821 7.14286 12.8571 6.51786 12.8571 5.71429C12.8571 4.95536 13.4821 4.28571 14.2857 4.28571ZM17.1429 0C18.7054 0 20 1.29464 20 2.85714V17.1429C20 18.75 18.7054 20 17.1429 20H2.85714C1.25 20 0 18.75 0 17.1429V2.85714C0 1.29464 1.25 0 2.85714 0H17.1429ZM17.8571 17.1429V2.85714C17.8571 2.5 17.5 2.14286 17.1429 2.14286H2.85714C2.45536 2.14286 2.14286 2.5 2.14286 2.85714V17.1429C2.14286 17.5446 2.45536 17.8571 2.85714 17.8571H17.1429C17.5 17.8571 17.8571 17.5446 17.8571 17.1429ZM10 8.57143C10.7589 8.57143 11.4286 9.24107 11.4286 10C11.4286 10.8036 10.7589 11.4286 10 11.4286C9.19643 11.4286 8.57143 10.8036 8.57143 10C8.57143 9.24107 9.19643 8.57143 10 8.57143Z"
      fill="currentColor"
    />
  </g>
  <defs>
    <clipPath id="clip0_457_22">
      <path fill="currentColor" d="M0 0H20V20H0z" />
    </clipPath>
  </defs>
</svg>
