<svg
  width="12"
  height="12"
  viewBox="0 0 12 12"
  fill="none"
  xmlns="http://www.w3.org/2000/svg"
  data-fui-icon="true"
>
  <g clip-path="url(#clip0_457_26)">
    <path
      d="M3.42857 2.57143C3.88393 2.57143 4.28571 2.97321 4.28571 3.42857C4.28571 3.91071 3.88393 4.28571 3.42857 4.28571C2.94643 4.28571 2.57143 3.91071 2.57143 3.42857C2.57143 2.97321 2.94643 2.57143 3.42857 2.57143ZM3.42857 7.71429C3.88393 7.71429 4.28571 8.11607 4.28571 8.57143C4.28571 9.05357 3.88393 9.42857 3.42857 9.42857C2.94643 9.42857 2.57143 9.05357 2.57143 8.57143C2.57143 8.11607 2.94643 7.71429 3.42857 7.71429ZM8.57143 7.71429C9.02679 7.71429 9.42857 8.11607 9.42857 8.57143C9.42857 9.05357 9.02679 9.42857 8.57143 9.42857C8.08929 9.42857 7.71429 9.05357 7.71429 8.57143C7.71429 8.11607 8.08929 7.71429 8.57143 7.71429ZM8.57143 2.57143C9.02679 2.57143 9.42857 2.97321 9.42857 3.42857C9.42857 3.91071 9.02679 4.28571 8.57143 4.28571C8.08929 4.28571 7.71429 3.91071 7.71429 3.42857C7.71429 2.97321 8.08929 2.57143 8.57143 2.57143ZM10.2857 0C11.2232 0 12 0.776786 12 1.71429V10.2857C12 11.25 11.2232 12 10.2857 12H1.71429C0.75 12 0 11.25 0 10.2857V1.71429C0 0.776786 0.75 0 1.71429 0H10.2857ZM10.7143 10.2857V1.71429C10.7143 1.5 10.5 1.28571 10.2857 1.28571H1.71429C1.47321 1.28571 1.28571 1.5 1.28571 1.71429V10.2857C1.28571 10.5268 1.47321 10.7143 1.71429 10.7143H10.2857C10.5 10.7143 10.7143 10.5268 10.7143 10.2857ZM6 5.14286C6.45536 5.14286 6.85714 5.54464 6.85714 6C6.85714 6.48214 6.45536 6.85714 6 6.85714C5.51786 6.85714 5.14286 6.48214 5.14286 6C5.14286 5.54464 5.51786 5.14286 6 5.14286Z"
      fill="currentColor"
    />
  </g>
  <defs>
    <clipPath id="clip0_457_26">
      <path fill="currentColor" d="M0 0H12V12H0z" />
    </clipPath>
  </defs>
</svg>
