<svg width="32" height="32" viewBox="0 0 32 32" fill="none" xmlns="http://www.w3.org/2000/svg" data-fui-icon="true">
  <path
    d="M5.39371 5.3934C6.10027 4.68684 7.05857 4.28996 8.05779 4.28993H23.9428C24.9421 4.28996 25.9004 4.68684 26.6069 5.3934C27.3135 6.09996 27.7104 7.05825 27.7104 8.05748V23.9425C27.7104 24.9417 27.3135 25.9 26.6069 26.6066C25.9004 27.3132 24.9421 27.71 23.9428 27.7101H8.05779C7.05857 27.71 6.10027 27.3132 5.39371 26.6066C4.68715 25.9 4.29027 24.9417 4.29024 23.9425V8.05748C4.29027 7.05825 4.68715 6.09996 5.39371 5.3934ZM6.45437 6.45406C6.02911 6.87932 5.79011 7.45608 5.79008 8.05748V23.9425C5.79011 24.5439 6.02911 25.1207 6.45437 25.5459C6.87963 25.9712 7.45639 26.2102 8.05779 26.2102H23.9428C24.5442 26.2102 25.121 25.9712 25.5463 25.5459C25.9715 25.1207 26.2105 24.5439 26.2105 23.9425V8.05748C26.2105 7.45608 25.9715 6.87932 25.5463 6.45406C25.121 6.0288 24.5442 5.7898 23.9428 5.78976H8.05779C7.45639 5.7898 6.87963 6.0288 6.45437 6.45406ZM19.7126 19.7123C20.396 19.0289 21.5041 19.0289 22.1875 19.7123C22.8709 20.3957 22.8709 21.5038 22.1875 22.1872C21.5041 22.8706 20.396 22.8706 19.7126 22.1872C19.0292 21.5038 19.0292 20.3957 19.7126 19.7123ZM9.81313 19.7123C10.4965 19.0289 11.6046 19.0289 12.288 19.7123C12.9714 20.3957 12.9714 21.5038 12.288 22.1872C11.6046 22.8706 10.4965 22.8705 9.81313 22.1872C9.12971 21.5038 9.12972 20.3957 9.81313 19.7123ZM14.7629 14.7626C15.4463 14.0792 16.5543 14.0792 17.2377 14.7626C17.9211 15.446 17.9211 16.554 17.2377 17.2374C16.5543 17.9208 15.4463 17.9208 14.7629 17.2374C14.0795 16.554 14.0795 15.446 14.7629 14.7626ZM19.7126 9.81282C20.396 9.12941 21.5041 9.12941 22.1875 9.81282C22.8709 10.4962 22.8709 11.6043 22.1875 12.2877C21.5041 12.9711 20.396 12.9711 19.7126 12.2877C19.0292 11.6043 19.0292 10.4962 19.7126 9.81282ZM9.81313 9.81282C10.4965 9.12943 11.6046 9.12942 12.288 9.81282C12.9714 10.4962 12.9714 11.6043 12.288 12.2877C11.6046 12.9711 10.4965 12.9711 9.81313 12.2877C9.12972 11.6043 9.12971 10.4962 9.81313 9.81282Z"
    fill="currentColor"
  />
</svg>
