<svg width="16" height="16" viewBox="0 0 16 16" fill="none" xmlns="http://www.w3.org/2000/svg" data-fui-icon="true">
  <path
    d="M10.0645 2.41309C11.1095 2.59081 12.1272 2.90514 13.0908 3.34863C14.7507 5.78853 15.575 8.54072 15.2705 11.7158C14.149 12.5493 12.893 13.1821 11.5576 13.5869C11.2569 13.1813 10.9909 12.7507 10.7627 12.2998C11.1973 12.1365 11.6171 11.9353 12.0166 11.6982C11.9128 11.6275 11.8104 11.5482 11.71 11.4658C10.5494 12.0144 9.28244 12.2998 8 12.2998C6.71741 12.2998 5.45065 12.0145 4.29004 11.4658C4.19093 11.5423 4.08828 11.6218 3.9834 11.6982C4.38211 11.9348 4.80063 12.136 5.23438 12.2988C5.00593 12.75 4.73989 13.1807 4.43945 13.5869C3.10521 13.1805 1.84983 12.5477 0.728516 11.7148C0.468962 8.97684 0.988374 6.19874 2.90332 3.35059C3.86783 2.90707 4.8861 2.5923 5.93164 2.41309C6.07448 2.66995 6.20411 2.93457 6.31934 3.20508C7.43223 3.03653 8.56386 3.03651 9.67676 3.20508C9.79197 2.9345 9.92153 2.66994 10.0645 2.41309ZM5.56055 7.08105C4.81913 7.08134 4.24235 7.74719 4.24219 8.55859C4.24219 9.37039 4.84018 10.0303 5.56348 10.0303C6.30055 10.0302 6.87008 9.37034 6.88281 8.55859C6.89531 7.74702 6.3022 7.08105 5.56055 7.08105ZM10.4365 7.08105C9.6937 7.08105 9.11638 7.74702 9.11621 8.55859C9.11621 9.37039 9.71206 10.0303 10.4365 10.0303C11.1734 10.03 11.7422 9.37022 11.7549 8.55859C11.7674 7.74719 11.1791 7.08133 10.4365 7.08105Z"
    fill="currentColor"
  />
</svg>
