<svg width="20" height="20" viewBox="0 0 20 20" fill="none" xmlns="http://www.w3.org/2000/svg" data-fui-icon="true">
  <path
    fill-rule="evenodd"
    clip-rule="evenodd"
    d="M8.3993 3.54004C8.47505 3.67625 8.54589 3.81547 8.61512 3.95508C9.53407 3.85661 10.4608 3.85667 11.3798 3.95508C11.4491 3.81525 11.5216 3.67649 11.5975 3.54004L11.8554 3.07617L12.3778 3.16504C13.432 3.34434 14.462 3.64486 15.4472 4.05957L15.8671 4.24414L16.0565 4.33105L16.1737 4.50293C18.075 7.29759 19.0287 10.4736 18.6786 14.125L18.6464 14.4561L18.3798 14.6553C17.087 15.6161 15.6383 16.3458 14.0985 16.8125L13.5927 16.9658L13.2782 16.541C12.9523 16.1013 12.6626 15.6356 12.4091 15.1504C11.6225 15.3413 10.814 15.4394 9.99989 15.4395C9.18437 15.4395 8.37461 15.341 7.5868 15.1494C7.33316 15.6346 7.04496 16.1011 6.71962 16.541L6.40419 16.9668L5.89735 16.8125C4.35936 16.344 2.91322 15.6131 1.62098 14.6533L1.35243 14.4551L1.32118 14.1221C1.02303 10.9754 1.62529 7.77019 3.81727 4.50977L3.93544 4.33398L4.12684 4.24609C5.23834 3.73502 6.41206 3.37159 7.61708 3.16504L8.14052 3.0752L8.3993 3.54004ZM12.5194 5.0625L12.2919 5.59668L11.7177 5.50977C10.5779 5.33711 9.41794 5.33713 8.27821 5.50977L7.70399 5.59668L7.47645 5.0625C7.43147 4.95692 7.38212 4.85263 7.3329 4.74902C6.51459 4.92645 5.71578 5.18611 4.94813 5.52344C3.13502 8.29692 2.59672 10.9833 2.78798 13.6436C3.7233 14.3003 4.74161 14.8274 5.81727 15.207C5.85192 15.1539 5.88727 15.1007 5.92079 15.0469C5.68756 14.9335 5.45851 14.8112 5.23524 14.6787L4.25673 14.0986L5.17567 13.4277C5.28098 13.351 5.38682 13.271 5.49501 13.1875L5.85829 12.9062L6.27333 13.1025C7.43934 13.6538 8.71165 13.9395 9.99989 13.9395C11.288 13.9394 12.5605 13.6537 13.7265 13.1025L14.1552 12.9004L14.5224 13.2012C14.6202 13.2814 14.7148 13.3529 14.8046 13.4141L15.7782 14.0781L14.7645 14.6787C14.5402 14.8118 14.3094 14.934 14.0751 15.0479C14.1086 15.1017 14.1439 15.1549 14.1786 15.208C15.2554 14.8297 16.2741 14.3018 17.2099 13.6445C17.4311 10.5848 16.632 7.91852 15.0477 5.52148C14.28 5.18372 13.4808 4.92461 12.662 4.74805C12.6128 4.85171 12.5644 4.95681 12.5194 5.0625ZM7.34071 8.99805C8.14976 8.99808 8.79673 9.72403 8.78309 10.6094C8.76921 11.4948 8.14756 12.2146 7.34364 12.2148C6.55459 12.2148 5.90223 11.495 5.90223 10.6094C5.9024 9.72401 6.53163 8.99805 7.34071 8.99805ZM12.6591 8.99805C13.4693 8.99817 14.1113 9.72408 14.0975 10.6094C14.0837 11.4949 13.4631 12.2147 12.6591 12.2148C11.8687 12.2148 11.2196 11.495 11.2196 10.6094C11.2198 9.72401 11.8487 8.99805 12.6591 8.99805Z"
    fill="currentColor"
  />
</svg>
