<svg
  width="16"
  height="16"
  viewBox="0 0 16 16"
  fill="none"
  xmlns="http://www.w3.org/2000/svg"
  data-fui-icon="true"
>
  <path
    d="M12.4429 3.94055C11.6019 3.55351 10.7141 3.27892 9.8021 3.12381C9.6773 3.34807 9.56443 3.57881 9.46383 3.81506C8.49243 3.6679 7.50456 3.6679 6.53316 3.81506C6.43254 3.57884 6.31963 3.3481 6.19489 3.12381C5.28235 3.28023 4.39396 3.55547 3.55214 3.94258C1.88092 6.42824 1.42787 8.85215 1.65439 11.2417C2.6331 11.9686 3.72856 12.5214 4.89315 12.8762C5.15538 12.5216 5.38742 12.1455 5.58681 11.7518C5.2081 11.6096 4.84258 11.4341 4.49447 11.2275C4.58609 11.1607 4.67569 11.0919 4.76227 11.0251C5.77517 11.504 6.88068 11.7522 8.00004 11.7522C9.11934 11.7522 10.2249 11.504 11.2377 11.0251C11.3254 11.097 11.415 11.1658 11.5056 11.2275C11.1568 11.4345 10.7906 11.6103 10.4112 11.7528C10.6104 12.1463 10.8424 12.5221 11.1049 12.8762C12.2705 12.5229 13.3667 11.9703 14.3456 11.2427C14.6114 8.47164 13.8916 6.06997 12.4429 3.94055Z"
    stroke="currentColor"
    stroke-width="1.2"
  />
  <path
    d="M4.72192 8.48779C4.72192 9.19627 5.24343 9.77216 5.87466 9.77216 6.51799 9.77216 7.01531 9.19627 7.02642 8.48779 7.03748 7.77937 6.52 7.19843 5.87265 7.19843 5.2253 7.19843 4.72192 7.77937 4.72192 8.48779zM8.97552 8.48779C8.97552 9.19627 9.49496 9.77216 10.1272 9.77216 10.7705 9.77216 11.2669 9.19627 11.2779 8.48779 11.2891 7.77937 10.7756 7.19843 10.1272 7.19843 9.47885 7.19843 8.97552 7.77937 8.97552 8.48779z"
    fill="currentColor"
  />
</svg>
