<svg
  width="24"
  height="24"
  viewBox="0 0 24 24"
  fill="none"
  xmlns="http://www.w3.org/2000/svg"
  data-fui-icon="true"
>
  <path
    d="M19.9688 5.23438C22.5469 9.0625 23.8359 13.3594 23.3672 18.3203C23.3672 18.3203 23.3672 18.3594 23.3281 18.3594C21.6094 19.6484 19.6562 20.625 17.5859 21.25C17.5469 21.2891 17.5469 21.25 17.5078 21.25C17.0781 20.625 16.6875 20 16.3359 19.3359C16.3359 19.2969 16.3359 19.2578 16.375 19.2188C17 18.9844 17.5859 18.7109 18.1719 18.3594C18.2109 18.3594 18.2109 18.2812 18.1719 18.2422C18.0547 18.1641 17.9375 18.0859 17.8203 17.9688C17.7812 17.9688 17.7812 17.9688 17.7422 17.9688C14.0312 19.6875 9.96875 19.6875 6.21875 17.9688C6.17969 17.9688 6.14062 17.9688 6.14062 17.9688C6.02344 18.0859 5.90625 18.1641 5.78906 18.2422C5.71094 18.2812 5.75 18.3594 5.78906 18.3594C6.33594 18.7109 6.96094 18.9844 7.58594 19.2188C7.625 19.2578 7.625 19.2969 7.625 19.3359C7.27344 20 6.88281 20.625 6.45312 21.25C6.41406 21.25 6.375 21.2891 6.375 21.25C4.30469 20.625 2.35156 19.6484 0.632812 18.3594C0.59375 18.3594 0.59375 18.3203 0.59375 18.3203C0.203125 14.0234 1.02344 9.6875 3.99219 5.23438C3.99219 5.23438 3.99219 5.23438 4.03125 5.23438C5.51562 4.53125 7.07812 4.0625 8.67969 3.78906C8.71875 3.75 8.75781 3.78906 8.75781 3.78906C8.99219 4.17969 9.1875 4.60938 9.34375 5C11.1016 4.72656 12.8594 4.72656 14.6172 5C14.7734 4.60938 14.9688 4.17969 15.2031 3.78906C15.2031 3.78906 15.2422 3.75 15.2812 3.78906C16.8828 4.0625 18.4453 4.53125 19.9297 5.23438C19.9688 5.23438 19.9688 5.23438 19.9688 5.23438ZM8.17188 15.7031C9.30469 15.7031 10.2422 14.6484 10.2422 13.3984C10.2422 12.1094 9.34375 11.0938 8.17188 11.0938C7.03906 11.0938 6.10156 12.1094 6.10156 13.3984C6.10156 14.6484 7.03906 15.7031 8.17188 15.7031ZM15.7891 15.7031C16.9609 15.7031 17.8594 14.6484 17.8594 13.3984C17.8984 12.1094 16.9609 11.0938 15.7891 11.0938C14.6562 11.0938 13.7578 12.1094 13.7578 13.3984C13.7578 14.6484 14.6562 15.7031 15.7891 15.7031Z"
    fill="currentColor"
  />
</svg>
