<svg
  width="16"
  height="16"
  viewBox="0 0 16 16"
  fill="none"
  xmlns="http://www.w3.org/2000/svg"
  data-fui-icon="true"
>
  <g clip-path="url(#clip0_215_24)">
    <path
      d="M13.5781 2.66406C15.3828 5.34375 16.2852 8.35156 15.957 11.8242C15.957 11.8242 15.957 11.8516 15.9297 11.8516C14.7266 12.7539 13.3594 13.4375 11.9102 13.875C11.8828 13.9023 11.8828 13.875 11.8555 13.875C11.5547 13.4375 11.2812 13 11.0352 12.5352C11.0352 12.5078 11.0352 12.4805 11.0625 12.4531C11.5 12.2891 11.9102 12.0977 12.3203 11.8516C12.3477 11.8516 12.3477 11.7969 12.3203 11.7695C12.2383 11.7148 12.1562 11.6602 12.0742 11.5781C12.0469 11.5781 12.0469 11.5781 12.0195 11.5781C9.42188 12.7812 6.57812 12.7812 3.95312 11.5781C3.92578 11.5781 3.89844 11.5781 3.89844 11.5781C3.81641 11.6602 3.73438 11.7148 3.65234 11.7695C3.59766 11.7969 3.625 11.8516 3.65234 11.8516C4.03516 12.0977 4.47266 12.2891 4.91016 12.4531C4.9375 12.4805 4.9375 12.5078 4.9375 12.5352C4.69141 13 4.41797 13.4375 4.11719 13.875C4.08984 13.875 4.0625 13.9023 4.0625 13.875C2.61328 13.4375 1.24609 12.7539 0.0429688 11.8516C0.015625 11.8516 0.015625 11.8242 0.015625 11.8242C-0.257812 8.81641 0.316406 5.78125 2.39453 2.66406C2.39453 2.66406 2.39453 2.66406 2.42188 2.66406C3.46094 2.17188 4.55469 1.84375 5.67578 1.65234C5.70312 1.625 5.73047 1.65234 5.73047 1.65234C5.89453 1.92578 6.03125 2.22656 6.14062 2.5C7.37109 2.30859 8.60156 2.30859 9.83203 2.5C9.94141 2.22656 10.0781 1.92578 10.2422 1.65234C10.2422 1.65234 10.2695 1.625 10.2969 1.65234C11.418 1.84375 12.5117 2.17188 13.5508 2.66406C13.5781 2.66406 13.5781 2.66406 13.5781 2.66406ZM5.32031 9.99219C6.11328 9.99219 6.76953 9.25391 6.76953 8.37891C6.76953 7.47656 6.14062 6.76562 5.32031 6.76562C4.52734 6.76562 3.87109 7.47656 3.87109 8.37891C3.87109 9.25391 4.52734 9.99219 5.32031 9.99219ZM10.6523 9.99219C11.4727 9.99219 12.1016 9.25391 12.1016 8.37891C12.1289 7.47656 11.4727 6.76562 10.6523 6.76562C9.85938 6.76562 9.23047 7.47656 9.23047 8.37891C9.23047 9.25391 9.85938 9.99219 10.6523 9.99219Z"
      fill="currentColor"
    />
  </g>
  <defs>
    <clipPath id="clip0_215_24">
      <path fill="currentColor" d="M0 0H16V16H0z" />
    </clipPath>
  </defs>
</svg>
