<svg width="32" height="32" viewBox="0 0 32 32" fill="none" xmlns="http://www.w3.org/2000/svg" data-fui-icon="true">
  <path
    fill-rule="evenodd"
    clip-rule="evenodd"
    d="M12.5194 4.46094C12.7246 4.82997 12.9155 5.207 13.0936 5.58984C15.0212 5.34637 16.9716 5.34648 18.8993 5.58984C19.0774 5.20683 19.269 4.83015 19.4745 4.46094L19.7333 3.99707L20.2557 4.08594C22.1411 4.4066 23.983 4.94381 25.745 5.68555L26.496 6.01562L26.6844 6.10254L26.8016 6.27539C30.2121 11.2883 31.916 16.9648 31.2889 23.5029L31.2577 23.834L30.9901 24.0332C28.6775 25.752 26.0869 27.0579 23.3329 27.8926L22.828 28.0449L22.5135 27.6211C21.8869 26.7757 21.3328 25.878 20.8573 24.9385L20.743 24.7139C19.2013 25.1325 17.6072 25.3486 16.0008 25.3486C14.3922 25.3486 12.7955 25.1326 11.2518 24.7129L11.1395 24.9365C10.6636 25.8764 10.1092 26.7738 9.48326 27.6201L9.16881 28.0459L8.66197 27.8916C5.91088 27.0536 3.3233 25.7473 1.01158 24.0303L0.743027 23.832L0.711777 23.499C0.177607 17.863 1.25225 12.1331 5.18541 6.2832L5.3026 6.1084L5.494 6.02051C7.48248 5.1061 9.58148 4.45546 11.7372 4.08594L12.2606 3.99609L12.5194 4.46094ZM20.5331 5.66309C20.3582 6.00371 20.1949 6.35051 20.0448 6.70312L19.8172 7.23828L19.243 7.15039C17.0914 6.82448 14.9024 6.82446 12.7508 7.15039L12.1766 7.23828L11.9491 6.70312C11.799 6.35075 11.6346 6.00461 11.4598 5.66406C9.68772 6.0098 7.96027 6.55719 6.31139 7.29785C2.75939 12.6612 1.74958 17.8727 2.17564 23.0225C4.1349 24.4352 6.29675 25.5388 8.58678 26.2939C8.88223 25.8675 9.15794 25.4279 9.41393 24.9766C8.78582 24.7027 8.1738 24.3912 7.58385 24.041L6.60533 23.4609L7.52525 22.79C7.72602 22.6437 7.92451 22.4919 8.12291 22.3389L8.48619 22.0576L8.90123 22.2539C11.1223 23.3039 13.5467 23.8486 16.0008 23.8486C18.4548 23.8486 20.8785 23.3038 23.0995 22.2539L23.5292 22.0518L23.8954 22.3525C24.0844 22.5075 24.2719 22.651 24.4559 22.7764L25.4296 23.4395L24.4169 24.041C23.8249 24.3923 23.2112 24.7048 22.5809 24.9795C22.8367 25.4304 23.1135 25.8692 23.409 26.2949C25.7007 25.5427 27.8635 24.4398 29.8231 23.0264C30.3198 17.0799 28.7719 11.9117 25.6796 7.29492C24.0316 6.55399 22.3049 6.00651 20.5331 5.66309ZM11.1229 14.1631C12.6064 14.1631 13.7928 15.4947 13.7674 17.1182C13.7418 18.7416 12.602 20.0615 11.1278 20.0615C9.68138 20.0614 8.48633 18.7416 8.48619 17.1182C8.48619 15.4949 9.63963 14.1634 11.1229 14.1631ZM20.8739 14.1631C22.3595 14.1634 23.5361 15.4949 23.5106 17.1182C23.4851 18.7415 22.3479 20.0613 20.8739 20.0615C19.425 20.0615 18.2344 18.7416 18.2342 17.1182C18.2342 15.4947 19.388 14.1631 20.8739 14.1631Z"
    fill="currentColor"
  />
</svg>
