<svg
  width="20"
  height="20"
  viewBox="0 0 20 20"
  fill="none"
  xmlns="http://www.w3.org/2000/svg"
  data-fui-icon="true"
>
  <path
    d="M15.5536 4.92569C14.5024 4.44187 13.3926 4.09864 12.2526 3.90475C12.0966 4.18508 11.9555 4.4735 11.8298 4.76881C10.6155 4.58487 9.38069 4.58487 8.16644 4.76881C8.04067 4.47354 7.89952 4.18512 7.7436 3.90475C6.60292 4.10027 5.49243 4.44433 4.44016 4.92822C2.35113 8.03529 1.78482 11.0652 2.06797 14.0521C3.29136 14.9607 4.66069 15.6518 6.11642 16.0952C6.44421 15.652 6.73426 15.1819 6.98349 14.6897C6.51011 14.5119 6.0532 14.2927 5.61807 14.0344C5.73259 13.9509 5.84459 13.8649 5.95282 13.7814C7.21895 14.3799 8.60083 14.6903 10 14.6903C11.3992 14.6903 12.7811 14.3799 14.0472 13.7814C14.1567 13.8712 14.2687 13.9573 14.3819 14.0344C13.946 14.2931 13.4883 14.5128 13.014 14.691C13.2629 15.1829 13.553 15.6527 13.8811 16.0952C15.3381 15.6536 16.7084 14.9628 17.932 14.0534C18.2643 10.5895 17.3645 7.58745 15.5536 4.92569Z"
    stroke="currentColor"
    stroke-width="1.5"
  />
  <path
    d="M5.9024 10.6097C5.9024 11.4953 6.55428 12.2152 7.34333 12.2152 8.14748 12.2152 8.76914 11.4953 8.78303 10.6097 8.79685 9.7242 8.15 8.99802 7.34081 8.99802 6.53163 8.99802 5.9024 9.7242 5.9024 10.6097zM11.2194 10.6097C11.2194 11.4953 11.8687 12.2152 12.659 12.2152 13.4632 12.2152 14.0836 11.4953 14.0974 10.6097 14.1113 9.7242 13.4695 8.99802 12.659 8.99802 11.8486 8.99802 11.2194 9.7242 11.2194 10.6097z"
    fill="currentColor"
  />
</svg>
