<svg
  width="20"
  height="20"
  viewBox="0 0 20 20"
  fill="none"
  xmlns="http://www.w3.org/2000/svg"
  data-fui-icon="true"
>
  <g clip-path="url(#clip0_215_23)">
    <path
      d="M17.1719 3.71094C19.4922 7.15625 20.6523 11.0234 20.2305 15.4883C20.2305 15.4883 20.2305 15.5234 20.1953 15.5234C18.6484 16.6836 16.8906 17.5625 15.0273 18.125C14.9922 18.1602 14.9922 18.125 14.957 18.125C14.5703 17.5625 14.2188 17 13.9023 16.4023C13.9023 16.3672 13.9023 16.332 13.9375 16.2969C14.5 16.0859 15.0273 15.8398 15.5547 15.5234C15.5898 15.5234 15.5898 15.4531 15.5547 15.418C15.4492 15.3477 15.3438 15.2773 15.2383 15.1719C15.2031 15.1719 15.2031 15.1719 15.168 15.1719C11.8281 16.7188 8.17188 16.7188 4.79688 15.1719C4.76172 15.1719 4.72656 15.1719 4.72656 15.1719C4.62109 15.2773 4.51562 15.3477 4.41016 15.418C4.33984 15.4531 4.375 15.5234 4.41016 15.5234C4.90234 15.8398 5.46484 16.0859 6.02734 16.2969C6.0625 16.332 6.0625 16.3672 6.0625 16.4023C5.74609 17 5.39453 17.5625 5.00781 18.125C4.97266 18.125 4.9375 18.1602 4.9375 18.125C3.07422 17.5625 1.31641 16.6836 -0.230469 15.5234C-0.265625 15.5234 -0.265625 15.4883 -0.265625 15.4883C-0.617188 11.6211 0.121094 7.71875 2.79297 3.71094C2.79297 3.71094 2.79297 3.71094 2.82812 3.71094C4.16406 3.07812 5.57031 2.65625 7.01172 2.41016C7.04688 2.375 7.08203 2.41016 7.08203 2.41016C7.29297 2.76172 7.46875 3.14844 7.60938 3.5C9.19141 3.25391 10.7734 3.25391 12.3555 3.5C12.4961 3.14844 12.6719 2.76172 12.8828 2.41016C12.8828 2.41016 12.918 2.375 12.9531 2.41016C14.3945 2.65625 15.8008 3.07812 17.1367 3.71094C17.1719 3.71094 17.1719 3.71094 17.1719 3.71094ZM6.55469 13.1328C7.57422 13.1328 8.41797 12.1836 8.41797 11.0586C8.41797 9.89844 7.60938 8.98438 6.55469 8.98438C5.53516 8.98438 4.69141 9.89844 4.69141 11.0586C4.69141 12.1836 5.53516 13.1328 6.55469 13.1328ZM13.4102 13.1328C14.4648 13.1328 15.2734 12.1836 15.2734 11.0586C15.3086 9.89844 14.4648 8.98438 13.4102 8.98438C12.3906 8.98438 11.582 9.89844 11.582 11.0586C11.582 12.1836 12.3906 13.1328 13.4102 13.1328Z"
      fill="currentColor"
    />
  </g>
  <defs>
    <clipPath id="clip0_215_23">
      <path fill="currentColor" d="M0 0H20V20H0z" />
    </clipPath>
  </defs>
</svg>
