<svg width="12" height="12" viewBox="0 0 12 12" fill="none" xmlns="http://www.w3.org/2000/svg" data-fui-icon="true">
  <path
    d="M7.54895 1.80957C8.33258 1.94288 9.09589 2.17915 9.81848 2.51172C11.0633 4.34158 11.6816 6.4059 11.4532 8.78711C10.612 9.4123 9.66972 9.88685 8.66809 10.1904C8.44255 9.88619 8.24353 9.56279 8.07239 9.22461C8.39828 9.10214 8.71325 8.95121 9.01282 8.77344C8.93497 8.72039 8.85765 8.66136 8.78235 8.59961C7.91195 9.01109 6.96197 9.22459 6.00012 9.22461C5.03828 9.22461 4.08828 9.01102 3.2179 8.59961C3.14354 8.65697 3.06611 8.71607 2.98743 8.77344C3.28658 8.95098 3.60045 9.10241 3.9259 9.22461C3.75463 9.5628 3.55542 9.8859 3.3302 10.1904C2.32953 9.88562 1.38798 9.4107 0.546997 8.78613C0.352332 6.73263 0.741646 4.64881 2.17786 2.5127C2.90107 2.18016 3.66441 1.94397 4.44836 1.80957C4.55553 2.00226 4.65293 2.20039 4.73938 2.40332C5.57416 2.27687 6.42315 2.27686 7.25793 2.40332C7.34436 2.20037 7.44174 2.00223 7.54895 1.80957ZM4.17102 5.31152C3.61478 5.31152 3.18188 5.81026 3.18176 6.41895C3.18176 7.0278 3.6305 7.52344 4.17297 7.52344C4.72568 7.52325 5.15268 7.02768 5.16223 6.41895C5.17161 5.81029 4.72722 5.31157 4.17102 5.31152ZM7.82727 5.31152C7.27015 5.31152 6.83716 5.81026 6.83704 6.41895C6.83704 7.0278 7.28392 7.52344 7.82727 7.52344C8.38009 7.5234 8.80703 7.02777 8.81653 6.41895C8.82595 5.81029 8.38436 5.31156 7.82727 5.31152Z"
    fill="currentColor"
  />
</svg>
