<svg width="12" height="12" viewBox="0 0 12 12" fill="none" xmlns="http://www.w3.org/2000/svg" data-fui-icon="true">
  <path
    d="M5.08203 2.09961C5.12247 2.17232 5.15989 2.24697 5.19727 2.32129C5.72945 2.26663 6.26566 2.26668 6.79785 2.32129C6.83529 2.24684 6.87352 2.17246 6.91406 2.09961L7.08594 1.79102L7.43457 1.84961C8.16166 1.97329 8.86966 2.19247 9.54004 2.50098L9.66699 2.55957L9.74512 2.67383C10.8919 4.35948 11.4671 6.27613 11.2559 8.47949L11.2354 8.70117L11.0566 8.83301C10.2764 9.41294 9.40203 9.85404 8.47266 10.1357L8.13574 10.2373L7.92578 9.95508C7.73598 9.69904 7.56725 9.42812 7.41797 9.14648C6.95426 9.25594 6.47827 9.31443 5.99902 9.31445C5.51906 9.31444 5.04247 9.25626 4.57812 9.14648C4.42898 9.42769 4.26048 9.69825 4.07129 9.9541L3.86133 10.2383L3.52344 10.1357C2.59512 9.85297 1.72137 9.41229 0.941406 8.83301L0.763672 8.7002L0.742188 8.47852C0.562183 6.57959 0.925735 4.64447 2.24805 2.67773L2.32715 2.56152L2.4541 2.50293C3.1249 2.19448 3.8333 1.97429 4.56055 1.84961L4.91016 1.79004L5.08203 2.09961ZM7.55664 3.05664L7.40527 3.41406L7.02246 3.35547C6.34363 3.25264 5.65246 3.25266 4.97363 3.35547L4.59082 3.41406L4.43945 3.05762C4.41789 3.007 4.39332 2.95708 4.37012 2.90723C3.90113 3.01158 3.44283 3.16085 3.00195 3.35352C1.93207 4.99544 1.61078 6.58468 1.71973 8.15918C2.26122 8.53685 2.84954 8.84096 3.46973 9.06348C3.47301 9.05835 3.47622 9.05298 3.47949 9.04785C3.35597 8.98629 3.23406 8.92109 3.11523 8.85059L2.46289 8.46387L3.0752 8.0166C3.13777 7.97098 3.20071 7.92313 3.26562 7.87305L3.50781 7.68555L3.78418 7.81641C4.47701 8.1439 5.2336 8.31442 5.99902 8.31445C6.76445 8.31442 7.52102 8.14395 8.21387 7.81641L8.5 7.68164L8.74414 7.88184C8.80209 7.92935 8.85787 7.97218 8.91016 8.00781L9.55859 8.44922L8.88379 8.85059C8.7643 8.92149 8.64083 8.98597 8.5166 9.04785C8.51989 9.05301 8.52306 9.05833 8.52637 9.06348C9.14703 8.8417 9.7357 8.53799 10.2773 8.16016C10.4032 6.35083 9.92987 4.77313 8.99414 3.35254C8.55305 3.15955 8.09443 3.01014 7.625 2.90625C7.60179 2.95611 7.57821 3.006 7.55664 3.05664ZM4.40332 5.39844C4.88883 5.39844 5.27685 5.83489 5.26855 6.36621C5.26003 6.89731 4.88755 7.329 4.40527 7.3291C3.93197 7.3291 3.54122 6.89738 3.54102 6.36621C3.54102 5.83499 3.91794 5.3986 4.40332 5.39844ZM7.59473 5.39844C8.08091 5.39856 8.46634 5.83497 8.45801 6.36621C8.44954 6.89731 8.07699 7.32898 7.59473 7.3291C7.12065 7.3291 6.73067 6.89738 6.73047 6.36621C6.73047 5.83489 7.10844 5.39844 7.59473 5.39844Z"
    fill="currentColor"
  />
</svg>
