<svg
  width="20"
  height="20"
  viewBox="0 0 20 20"
  fill="none"
  xmlns="http://www.w3.org/2000/svg"
  data-fui-icon="true"
>
  <path
    d="M16.3634 4.18569C15.1589 3.63132 13.8873 3.23803 12.5811 3.01587C12.4023 3.33708 12.2407 3.66756 12.0966 4.00594C10.7053 3.79517 9.29033 3.79517 7.89901 4.00594C7.75489 3.6676 7.59317 3.33712 7.4145 3.01587C6.10748 3.2399 4.83504 3.63413 3.62932 4.18859C1.23563 7.74878 0.586742 11.2205 0.911184 14.643C2.31298 15.6842 3.882 16.476 5.55003 16.9841C5.92562 16.4763 6.25797 15.9376 6.54355 15.3736C6.00113 15.1699 5.47759 14.9187 4.979 14.6228C5.11023 14.5271 5.23856 14.4285 5.36257 14.3329C6.81334 15.0187 8.39675 15.3743 10 15.3743C11.6032 15.3743 13.1866 15.0187 14.6373 14.3329C14.7628 14.4358 14.8912 14.5344 15.0209 14.6228C14.5214 14.9192 13.9969 15.1709 13.4535 15.3751C13.7388 15.9388 14.0711 16.477 14.447 16.9841C16.1165 16.4781 17.6867 15.6866 19.0888 14.6445C19.4694 10.6755 18.4384 7.23563 16.3634 4.18569ZM6.95451 12.5383C6.05039 12.5383 5.30345 11.7134 5.30345 10.6987C5.30345 9.68402 6.02443 8.85194 6.95163 8.85194C7.87882 8.85194 8.62 9.68402 8.60417 10.6987C8.58825 11.7134 7.87593 12.5383 6.95451 12.5383ZM13.0454 12.5383C12.1398 12.5383 11.3958 11.7134 11.3958 10.6987C11.3958 9.68402 12.1168 8.85194 13.0454 8.85194C13.9741 8.85194 14.7095 9.68402 14.6936 10.6987C14.6778 11.7134 13.9668 12.5383 13.0454 12.5383Z"
    fill="currentColor"
  />
</svg>
