<svg width="12" height="12" viewBox="0 0 12 12" fill="none" xmlns="http://www.w3.org/2000/svg" data-fui-icon="true">
  <path
    d="M5.08301 2.09961C5.12345 2.17232 5.16087 2.24697 5.19824 2.32129C5.73043 2.26663 6.26664 2.26668 6.79883 2.32129C6.83627 2.24684 6.8745 2.17246 6.91504 2.09961L7.08691 1.79102L7.43555 1.84961C8.16264 1.97329 8.87064 2.19247 9.54102 2.50098L9.66797 2.55957L9.74609 2.67383C10.8929 4.35948 11.4681 6.27613 11.2568 8.47949L11.2363 8.70117L11.0576 8.83301C10.2773 9.41294 9.403 9.85404 8.47363 10.1357L8.13672 10.2373L7.92676 9.95508C7.73695 9.69904 7.56823 9.42812 7.41895 9.14648C6.95524 9.25594 6.47924 9.31443 6 9.31445C5.52004 9.31444 5.04345 9.25626 4.5791 9.14648C4.42995 9.42769 4.26146 9.69825 4.07227 9.9541L3.8623 10.2383L3.52441 10.1357C2.5961 9.85297 1.72235 9.41229 0.942383 8.83301L0.764648 8.7002L0.743164 8.47852C0.56316 6.57959 0.926711 4.64447 2.24902 2.67773L2.32812 2.56152L2.45508 2.50293C3.12588 2.19448 3.83428 1.97429 4.56152 1.84961L4.91113 1.79004L5.08301 2.09961ZM7.55762 3.05664L7.40625 3.41406L7.02344 3.35547C6.3446 3.25264 5.65344 3.25266 4.97461 3.35547L4.5918 3.41406L4.44043 3.05762C4.41887 3.007 4.3943 2.95708 4.37109 2.90723C3.90211 3.01158 3.44381 3.16085 3.00293 3.35352C1.93305 4.99544 1.61176 6.58468 1.7207 8.15918C2.26219 8.53685 2.85052 8.84096 3.4707 9.06348C3.47399 9.05835 3.4772 9.05298 3.48047 9.04785C3.35695 8.98629 3.23504 8.92109 3.11621 8.85059L2.46387 8.46387L3.07617 8.0166C3.13875 7.97098 3.20168 7.92313 3.2666 7.87305L3.50879 7.68555L3.78516 7.81641C4.47798 8.1439 5.23458 8.31442 6 8.31445C6.76543 8.31442 7.522 8.14395 8.21484 7.81641L8.50098 7.68164L8.74512 7.88184C8.80307 7.92935 8.85884 7.97218 8.91113 8.00781L9.55957 8.44922L8.88477 8.85059C8.76528 8.92149 8.6418 8.98597 8.51758 9.04785C8.52086 9.05301 8.52404 9.05833 8.52734 9.06348C9.14801 8.8417 9.73668 8.53799 10.2783 8.16016C10.4042 6.35083 9.93085 4.77313 8.99512 3.35254C8.55402 3.15955 8.0954 3.01014 7.62598 2.90625C7.60277 2.95611 7.57919 3.006 7.55762 3.05664ZM4.4043 5.39844C4.88981 5.39844 5.27782 5.83489 5.26953 6.36621C5.26101 6.89731 4.88853 7.329 4.40625 7.3291C3.93294 7.3291 3.54219 6.89738 3.54199 6.36621C3.54199 5.83499 3.91891 5.3986 4.4043 5.39844ZM7.5957 5.39844C8.08189 5.39856 8.46732 5.83497 8.45898 6.36621C8.45051 6.89731 8.07797 7.32898 7.5957 7.3291C7.12163 7.3291 6.73165 6.89738 6.73145 6.36621C6.73145 5.83489 7.10942 5.39844 7.5957 5.39844Z"
    fill="currentColor"
  />
</svg>
