<svg width="24" height="24" viewBox="0 0 24 24" fill="none" xmlns="http://www.w3.org/2000/svg" data-fui-icon="true">
  <path
    d="M15.0967 3.61914C16.6641 3.88572 18.1904 4.35725 19.6357 5.02246C22.1257 8.68235 23.363 12.8105 22.9062 17.5732C21.2237 18.8237 19.3393 19.7737 17.3359 20.3809C16.8849 19.7724 16.4858 19.1266 16.1436 18.4502C16.7956 18.2052 17.425 17.9026 18.0244 17.5469C17.8689 17.4409 17.7149 17.3226 17.5645 17.1992C15.8237 18.0222 13.9237 18.4492 12 18.4492C10.0761 18.4492 8.1755 18.0222 6.43457 17.1992C6.28586 17.3139 6.13197 17.4321 5.97461 17.5469C6.57282 17.9019 7.20077 18.2039 7.85156 18.4482C7.50892 19.1249 7.11077 19.7716 6.66016 20.3809C4.65853 19.7712 2.77493 18.8207 1.09277 17.5713C0.703524 13.4645 1.48227 9.29841 4.35449 5.02637C5.80136 4.36102 7.32903 3.88798 8.89746 3.61914C9.11174 4.00444 9.30565 4.40086 9.47852 4.80664C11.1481 4.55374 12.8461 4.55373 14.5156 4.80664C14.6884 4.40081 14.8823 4.00439 15.0967 3.61914ZM8.3418 10.6221C7.22917 10.6221 6.36426 11.6213 6.36426 12.8389C6.36449 14.0562 7.26008 15.0457 8.34473 15.0459C9.45029 15.0459 10.3049 14.0563 10.3242 12.8389C10.3432 11.6213 9.45434 10.6222 8.3418 10.6221ZM15.6543 10.6221C14.5399 10.6221 13.6748 11.6213 13.6748 12.8389C13.675 14.0564 14.5677 15.0459 15.6543 15.0459C16.7598 15.0458 17.6126 14.0563 17.6318 12.8389C17.6509 11.6213 16.7686 10.6222 15.6543 10.6221Z"
    fill="currentColor"
  />
</svg>
