<svg
  width="32"
  height="32"
  viewBox="0 0 32 32"
  fill="none"
  xmlns="http://www.w3.org/2000/svg"
  data-fui-icon="true"
>
  <path
    d="M26.1815 6.69705C24.2543 5.81007 22.2197 5.1808 20.1297 4.82535C19.8437 5.33928 19.5851 5.86805 19.3545 6.40945C17.1284 6.07223 14.8645 6.07223 12.6384 6.40945C12.4078 5.86812 12.1491 5.33935 11.8632 4.82535C9.77196 5.1838 7.73606 5.81456 5.8069 6.70169C1.97701 12.398 0.938784 17.9528 1.45789 23.4288C3.70077 25.0947 6.2112 26.3616 8.88004 27.1745C9.48098 26.362 10.0127 25.5001 10.4697 24.5977C9.6018 24.2719 8.76414 23.8699 7.9664 23.3964C8.17636 23.2433 8.38169 23.0856 8.5801 22.9325C10.9013 24.0299 13.4348 24.5988 16 24.5988C18.5651 24.5988 21.0985 24.0299 23.4197 22.9325C23.6205 23.0972 23.8259 23.2549 24.0335 23.3964C23.2343 23.8707 22.3951 24.2735 21.5256 24.6001C21.982 25.502 22.5137 26.3632 23.1152 27.1745C25.7864 26.3649 28.2987 25.0985 30.542 23.4312C31.1511 17.0808 29.5015 11.577 26.1815 6.69705ZM11.1272 20.0612C9.68062 20.0612 8.48552 18.7415 8.48552 17.1179C8.48552 15.4944 9.63909 14.1631 11.1226 14.1631C12.6061 14.1631 13.792 15.4944 13.7667 17.1179C13.7412 18.7415 12.6015 20.0612 11.1272 20.0612ZM20.8727 20.0612C19.4237 20.0612 18.2333 18.7415 18.2333 17.1179C18.2333 15.4944 19.3868 14.1631 20.8727 14.1631C22.3585 14.1631 23.5352 15.4944 23.5097 17.1179C23.4844 18.7415 22.3469 20.0612 20.8727 20.0612Z"
    fill="currentColor"
  />
</svg>
