<svg width="20" height="20" viewBox="0 0 20 20" fill="none" xmlns="http://www.w3.org/2000/svg" data-fui-icon="true">
  <path
    d="M8.39941 3.54004C8.47516 3.67625 8.546 3.81547 8.61523 3.95508C9.53418 3.85661 10.4609 3.85667 11.3799 3.95508C11.4492 3.81525 11.5217 3.67649 11.5977 3.54004L11.8555 3.07617L12.3779 3.16504C13.4321 3.34434 14.4621 3.64486 15.4473 4.05957L15.8672 4.24414L16.0566 4.33105L16.1738 4.50293C18.0751 7.29759 19.0288 10.4736 18.6787 14.125L18.6465 14.4561L18.3789 14.6553C17.0862 15.6159 15.6382 16.3458 14.0986 16.8125L13.5928 16.9658L13.2783 16.541C12.9524 16.1013 12.6627 15.6356 12.4092 15.1504C11.6226 15.3413 10.8141 15.4394 10 15.4395C9.18448 15.4395 8.37472 15.341 7.58691 15.1494C7.33327 15.6346 7.04507 16.1011 6.71973 16.541L6.4043 16.9668L5.89746 16.8125C4.35947 16.344 2.91333 15.6131 1.62109 14.6533L1.35254 14.4551L1.32129 14.1221C1.02314 10.9754 1.6254 7.77019 3.81738 4.50977L3.93555 4.33398L4.12695 4.24609C5.23845 3.73502 6.41217 3.37159 7.61719 3.16504L8.14062 3.0752L8.39941 3.54004ZM12.5195 5.0625L12.292 5.59668L11.7178 5.50977C10.578 5.33711 9.41805 5.33713 8.27832 5.50977L7.7041 5.59668L7.47656 5.0625C7.43158 4.95692 7.38223 4.85263 7.33301 4.74902C6.5147 4.92645 5.71589 5.18611 4.94824 5.52344C3.13513 8.29692 2.59683 10.9833 2.78809 13.6436C3.72341 14.3003 4.74172 14.8274 5.81738 15.207C5.85203 15.1539 5.88738 15.1007 5.9209 15.0469C5.68767 14.9335 5.45862 14.8112 5.23535 14.6787L4.25684 14.0986L5.17578 13.4277C5.28109 13.351 5.38693 13.271 5.49512 13.1875L5.8584 12.9062L6.27344 13.1025C7.43945 13.6538 8.71176 13.9395 10 13.9395C11.2881 13.9394 12.5606 13.6537 13.7266 13.1025L14.1553 12.9004L14.5225 13.2012C14.6203 13.2814 14.7149 13.3529 14.8047 13.4141L15.7783 14.0781L14.7646 14.6787C14.5403 14.8118 14.3095 14.934 14.0752 15.0479C14.1088 15.1017 14.144 15.1549 14.1787 15.208C15.2555 14.8297 16.2742 14.3018 17.21 13.6445C17.4312 10.5848 16.6321 7.91852 15.0479 5.52148C14.2801 5.18372 13.4809 4.92461 12.6621 4.74805C12.6129 4.85171 12.5645 4.95681 12.5195 5.0625ZM7.34082 8.99805C8.14987 8.99808 8.79684 9.72403 8.7832 10.6094C8.76931 11.4948 8.14767 12.2146 7.34375 12.2148C6.5547 12.2148 5.90234 11.495 5.90234 10.6094C5.90251 9.72401 6.53174 8.99805 7.34082 8.99805ZM12.6592 8.99805C13.4695 8.99817 14.1114 9.72408 14.0977 10.6094C14.0838 11.4949 13.4632 12.2147 12.6592 12.2148C11.8689 12.2148 11.2197 11.495 11.2197 10.6094C11.2199 9.72401 11.8488 8.99805 12.6592 8.99805Z"
    fill="currentColor"
  />
</svg>
