<svg width="24" height="24" viewBox="0 0 24 24" fill="none" xmlns="http://www.w3.org/2000/svg" data-fui-icon="true">
  <path
    fill-rule="evenodd"
    clip-rule="evenodd"
    d="M15.0973 3.61914C16.6647 3.88572 18.191 4.35725 19.6364 5.02246C22.1263 8.68235 23.3636 12.8105 22.9069 17.5732C21.2244 18.8237 19.34 19.7737 17.3365 20.3809C16.8855 19.7724 16.4865 19.1266 16.1442 18.4502C16.7962 18.2052 17.4256 17.9026 18.025 17.5469C17.8695 17.4409 17.7155 17.3226 17.5651 17.1992C15.8243 18.0222 13.9243 18.4492 12.0006 18.4492C10.0767 18.4492 8.17611 18.0222 6.43518 17.1992C6.28647 17.3139 6.13258 17.4321 5.97522 17.5469C6.57343 17.9019 7.20138 18.2039 7.85217 18.4482C7.50953 19.1249 7.11138 19.7716 6.66077 20.3809C4.65914 19.7712 2.77555 18.8207 1.09339 17.5713C0.704136 13.4645 1.48288 9.29841 4.3551 5.02637C5.80197 4.36102 7.32964 3.88798 8.89807 3.61914C9.11235 4.00444 9.30627 4.40086 9.47913 4.80664C11.1487 4.55374 12.8467 4.55373 14.5162 4.80664C14.6891 4.40081 14.8829 4.00439 15.0973 3.61914ZM8.34241 10.6221C7.22978 10.6221 6.36487 11.6213 6.36487 12.8389C6.3651 14.0562 7.26069 15.0457 8.34534 15.0459C9.4509 15.0459 10.3055 14.0563 10.3248 12.8389C10.3438 11.6213 9.45495 10.6222 8.34241 10.6221ZM15.6549 10.6221C14.5405 10.6221 13.6754 11.6213 13.6754 12.8389C13.6756 14.0564 14.5683 15.0459 15.6549 15.0459C16.7604 15.0458 17.6132 14.0563 17.6324 12.8389C17.6515 11.6213 16.7692 10.6222 15.6549 10.6221Z"
    fill="currentColor"
  />
</svg>
