<svg width="12" height="12" viewBox="0 0 12 12" fill="none" xmlns="http://www.w3.org/2000/svg" data-fui-icon="true">
  <path
    fill-rule="evenodd"
    clip-rule="evenodd"
    d="M7.54867 1.80957C8.3323 1.94288 9.0956 2.17915 9.8182 2.51172C11.063 4.34158 11.6813 6.4059 11.453 8.78711C10.6118 9.4123 9.66944 9.88685 8.66781 10.1904C8.44227 9.88619 8.24324 9.56279 8.0721 9.22461C8.398 9.10214 8.71296 8.95121 9.01253 8.77344C8.93468 8.72039 8.85736 8.66136 8.78206 8.59961C7.91166 9.01109 6.96168 9.22459 5.99984 9.22461C5.03799 9.22461 4.088 9.01102 3.21761 8.59961C3.14325 8.65697 3.06583 8.71607 2.98714 8.77344C3.28629 8.95098 3.60017 9.10241 3.92562 9.22461C3.75434 9.5628 3.55514 9.8859 3.32992 10.1904C2.32925 9.88562 1.3877 9.4107 0.546712 8.78613C0.352047 6.73263 0.741361 4.64881 2.17757 2.5127C2.90079 2.18016 3.66412 1.94397 4.44808 1.80957C4.55525 2.00226 4.65265 2.20039 4.7391 2.40332C5.57387 2.27687 6.42287 2.27686 7.25765 2.40332C7.34408 2.20037 7.44145 2.00223 7.54867 1.80957ZM4.17074 5.31152C3.6145 5.31152 3.1816 5.81026 3.18148 6.41895C3.18148 7.0278 3.63022 7.52344 4.17269 7.52344C4.7254 7.52325 5.1524 7.02768 5.16195 6.41895C5.17132 5.81029 4.72694 5.31157 4.17074 5.31152ZM7.82699 5.31152C7.26986 5.31152 6.83687 5.81026 6.83675 6.41895C6.83675 7.0278 7.28364 7.52344 7.82699 7.52344C8.37981 7.5234 8.80674 7.02777 8.81624 6.41895C8.82566 5.81028 8.38408 5.31156 7.82699 5.31152Z"
    fill="currentColor"
  />
</svg>
