<svg
  width="16"
  height="16"
  viewBox="0 0 16 16"
  fill="none"
  xmlns="http://www.w3.org/2000/svg"
  data-fui-icon="true"
>
  <path
    d="M13.0907 3.34854C12.1271 2.90505 11.1099 2.59042 10.0649 2.41269C9.92186 2.66966 9.79252 2.93404 9.67726 3.20474C8.56419 3.03613 7.43226 3.03613 6.3192 3.20474C6.2039 2.93408 6.07452 2.66969 5.93159 2.41269C4.88597 2.59192 3.86802 2.9073 2.90344 3.35086C0.988498 6.19902 0.469384 8.97641 0.728938 11.7144C1.85038 12.5473 3.10559 13.1808 4.44001 13.5873C4.74048 13.181 5.00636 12.7501 5.23483 12.2989C4.80089 12.1359 4.38206 11.9349 3.98319 11.6982C4.08817 11.6217 4.19084 11.5428 4.29004 11.4663C5.45066 12.0149 6.71739 12.2994 7.99999 12.2994C9.28253 12.2994 10.5493 12.0149 11.7099 11.4663C11.8103 11.5486 11.9129 11.6275 12.0167 11.6982C11.6171 11.9353 11.1975 12.1367 10.7628 12.3001C10.991 12.751 11.2569 13.1816 11.5576 13.5873C12.8932 13.1825 14.1493 12.5493 15.271 11.7156C15.5755 8.54041 14.7507 5.7885 13.0907 3.34854ZM5.5636 10.0306C4.8403 10.0306 4.24275 9.37074 4.24275 8.55894C4.24275 7.74721 4.81954 7.08154 5.56129 7.08154C6.30304 7.08154 6.89599 7.74721 6.88332 8.55894C6.87059 9.37074 6.30074 10.0306 5.5636 10.0306ZM10.4363 10.0306C9.71186 10.0306 9.11666 9.37074 9.11666 8.55894C9.11666 7.74721 9.69339 7.08154 10.4363 7.08154C11.1793 7.08154 11.7676 7.74721 11.7549 8.55894C11.7422 9.37074 11.1735 10.0306 10.4363 10.0306Z"
    fill="currentColor"
  />
</svg>
