<svg width="32" height="32" viewBox="0 0 32 32" fill="none" xmlns="http://www.w3.org/2000/svg" data-fui-icon="true">
  <path
    d="M12.5195 4.46094C12.7248 4.82997 12.9156 5.207 13.0938 5.58984C15.0214 5.34637 16.9718 5.34648 18.8994 5.58984C19.0775 5.20683 19.2692 4.83015 19.4746 4.46094L19.7334 3.99707L20.2559 4.08594C22.1413 4.4066 23.9832 4.94381 25.7451 5.68555L26.4961 6.01562L26.6846 6.10254L26.8018 6.27539C30.2122 11.2883 31.9161 16.9648 31.2891 23.5029L31.2578 23.834L30.9902 24.0332C28.6777 25.752 26.087 27.0579 23.333 27.8926L22.8281 28.0449L22.5137 27.6211C21.887 26.7757 21.3329 25.878 20.8574 24.9385L20.7432 24.7139C19.2014 25.1325 17.6074 25.3486 16.001 25.3486C14.3924 25.3486 12.7956 25.1326 11.252 24.7129L11.1396 24.9365C10.6637 25.8764 10.1093 26.7738 9.4834 27.6201L9.16895 28.0459L8.66211 27.8916C5.91102 27.0536 3.32344 25.7473 1.01172 24.0303L0.743164 23.832L0.711914 23.499C0.177744 17.863 1.25239 12.1331 5.18555 6.2832L5.30273 6.1084L5.49414 6.02051C7.48262 5.1061 9.58161 4.45546 11.7373 4.08594L12.2607 3.99609L12.5195 4.46094ZM20.5332 5.66309C20.3584 6.00371 20.1951 6.35051 20.0449 6.70312L19.8174 7.23828L19.2432 7.15039C17.0916 6.82448 14.9026 6.82446 12.751 7.15039L12.1768 7.23828L11.9492 6.70312C11.7991 6.35075 11.6347 6.00461 11.46 5.66406C9.68786 6.0098 7.96041 6.55719 6.31152 7.29785C2.75953 12.6612 1.74972 17.8727 2.17578 23.0225C4.13503 24.4352 6.29689 25.5388 8.58691 26.2939C8.88237 25.8675 9.15808 25.4279 9.41406 24.9766C8.78596 24.7027 8.17394 24.3912 7.58398 24.041L6.60547 23.4609L7.52539 22.79C7.72615 22.6437 7.92465 22.4919 8.12305 22.3389L8.48633 22.0576L8.90137 22.2539C11.1224 23.3039 13.5468 23.8486 16.001 23.8486C18.4549 23.8486 20.8787 23.3038 23.0996 22.2539L23.5293 22.0518L23.8955 22.3525C24.0845 22.5075 24.2721 22.651 24.4561 22.7764L25.4297 23.4395L24.417 24.041C23.8251 24.3923 23.2113 24.7048 22.5811 24.9795C22.8369 25.4304 23.1136 25.8692 23.4092 26.2949C25.7008 25.5427 27.8637 24.4398 29.8232 23.0264C30.32 17.0799 28.772 11.9117 25.6797 7.29492C24.0317 6.55399 22.3051 6.00651 20.5332 5.66309ZM11.123 14.1631C12.6066 14.1631 13.7929 15.4947 13.7676 17.1182C13.742 18.7416 12.6021 20.0615 11.1279 20.0615C9.68151 20.0614 8.48647 18.7416 8.48633 17.1182C8.48633 15.4949 9.63976 14.1634 11.123 14.1631ZM20.874 14.1631C22.3597 14.1634 23.5362 15.4949 23.5107 17.1182C23.4853 18.7415 22.348 20.0613 20.874 20.0615C19.4252 20.0615 18.2345 18.7416 18.2344 17.1182C18.2344 15.4947 19.3882 14.1631 20.874 14.1631Z"
    fill="currentColor"
  />
</svg>
