<svg
  width="20"
  height="20"
  viewBox="0 0 20 20"
  fill="none"
  xmlns="http://www.w3.org/2000/svg"
  data-fui-icon="true"
>
  <path
    d="M16.3634 4.18569C15.1589 3.63132 13.8873 3.23803 12.5811 3.01587C12.4023 3.33708 12.2406 3.66756 12.0966 4.00594C10.7052 3.79517 9.29032 3.79517 7.89899 4.00594C7.75487 3.6676 7.59315 3.33712 7.41448 3.01587C6.10746 3.2399 4.83502 3.63413 3.6293 4.18859C1.23561 7.74878 0.586723 11.2205 0.911165 14.643C2.31296 15.6842 3.88198 16.476 5.55001 16.9841C5.9256 16.4763 6.25795 15.9376 6.54353 15.3736C6.00111 15.1699 5.47757 14.9187 4.97898 14.6228C5.11021 14.5271 5.23854 14.4285 5.36255 14.3329C6.81332 15.0187 8.39673 15.3743 9.99998 15.3743C11.6031 15.3743 13.1866 15.0187 14.6373 14.3329C14.7628 14.4358 14.8911 14.5344 15.0209 14.6228C14.5214 14.9192 13.9969 15.1709 13.4535 15.3751C13.7387 15.9388 14.0711 16.477 14.447 16.9841C16.1165 16.4781 17.6866 15.6866 19.0887 14.6445C19.4694 10.6755 18.4384 7.23563 16.3634 4.18569ZM6.95449 12.5383C6.05037 12.5383 5.30343 11.7134 5.30343 10.6987C5.30343 9.68402 6.02442 8.85194 6.95161 8.85194C7.8788 8.85194 8.61998 9.68402 8.60415 10.6987C8.58823 11.7134 7.87592 12.5383 6.95449 12.5383ZM13.0454 12.5383C12.1398 12.5383 11.3958 11.7134 11.3958 10.6987C11.3958 9.68402 12.1167 8.85194 13.0454 8.85194C13.9741 8.85194 14.7095 9.68402 14.6936 10.6987C14.6777 11.7134 13.9668 12.5383 13.0454 12.5383Z"
    fill="currentColor"
  />
</svg>
