<svg width="24" height="24" viewBox="0 0 24 24" fill="none" xmlns="http://www.w3.org/2000/svg" data-fui-icon="true">
  <path
    d="M11.2422 0C12.2315 2.10953e-05 13.2142 0.167638 14.1475 0.496094L14.5547 0.639648C17.733 1.75855 20.2027 4.30353 21.2266 7.51367L21.5879 8.64648C21.862 9.50597 22.0019 10.4035 22.002 11.3057V18.25C22.002 21.4255 19.4275 23.9998 16.252 24H13.75C13.3358 24 13 23.6642 13 23.25C13.0002 22.836 13.3359 22.5 13.75 22.5H16.252C18.599 22.4998 20.502 20.5971 20.502 18.25V12.75C20.5018 10.9554 19.0465 9.50026 17.252 9.5H16.75C14.403 9.49993 12.5002 7.597 12.5 5.25V4.75C12.4998 2.95535 11.0446 1.5002 9.25 1.5H7.75C5.4029 1.5 3.50018 3.40294 3.5 5.75V12.25C3.4998 12.664 3.16401 12.9999 2.75 13C2.33591 13 2.0002 12.664 2 12.25V5.75C2.00018 2.57452 4.57447 0 7.75 0H11.2422ZM7.15723 12.6699C7.57118 12.6702 7.90716 13.0059 7.90723 13.4199V21.4229L11.0332 18.2969C11.3261 18.0041 11.8009 18.004 12.0938 18.2969C12.3865 18.5897 12.3865 19.0645 12.0938 19.3574L7.6875 23.7637C7.39463 24.0565 6.91985 24.0565 6.62695 23.7637L2.21973 19.3574C1.92689 19.0646 1.92702 18.5898 2.21973 18.2969C2.51263 18.0041 2.98742 18.004 3.28027 18.2969L6.40723 21.4229V13.4199C6.40729 13.0058 6.74305 12.6699 7.15723 12.6699ZM12.8799 1.68945C13.5778 2.51623 13.9999 3.58337 14 4.75V5.25C14.0002 6.76857 15.2314 7.99993 16.75 8H17.252C18.3265 8.00011 19.3174 8.35822 20.1133 8.95996L19.7979 7.96875C18.9168 5.20671 16.7913 3.01745 14.0566 2.05469L13.6494 1.91113C13.397 1.82231 13.1397 1.7497 12.8799 1.68945Z"
    fill="currentColor"
  />
</svg>
