<svg width="12" height="13" viewBox="0 0 12 13" fill="none" xmlns="http://www.w3.org/2000/svg" data-fui-icon="true">
  <path
    d="M5.83203 0C5.99648 4.33521e-06 6.1605 0.01726 6.32129 0.0517578C8.63986 0.549403 10.4512 2.36101 10.9482 4.67969C10.9826 4.84023 11 5.00477 11 5.16895V8.75391C10.9996 10.5485 9.54464 12.0038 7.75 12.0039C7.33604 12.0039 7.00037 11.6678 7 11.2539C7 10.8397 7.33582 10.5039 7.75 10.5039C8.71621 10.5038 9.49963 9.72005 9.5 8.75391V6.72656L9.49414 6.60059C9.43116 5.98303 8.9085 5.50098 8.27441 5.50098H8.02734C6.63167 5.50073 5.50027 4.36931 5.5 2.97363V2.17188C5.5 1.84737 5.26988 1.57641 4.96387 1.51367L4.82812 1.5H4.25C3.28353 1.50004 2.5 2.28352 2.5 3.25V5.00098C2.49984 5.41505 2.16411 5.75098 1.75 5.75098C1.33592 5.75094 1.00016 5.41503 1 5.00098V3.25C1 1.4551 2.4551 3.50505e-05 4.25 0H5.83203ZM3.59277 6.25098C4.00699 6.25098 4.34277 6.58676 4.34277 7.00098V9.42383L4.90625 8.86133C5.19915 8.5685 5.67392 8.56846 5.9668 8.86133C6.2596 9.15421 6.25961 9.629 5.9668 9.92188L4.12402 11.7646C3.83114 12.0575 3.3554 12.0575 3.0625 11.7646L1.21973 9.92188C0.926839 9.62899 0.926848 9.15423 1.21973 8.86133C1.51261 8.56844 1.98738 8.56845 2.28027 8.86133L2.84277 9.42285V7.00098C2.84277 6.58692 3.17878 6.25124 3.59277 6.25098ZM6.97266 1.84277C6.98899 1.95014 7 2.05996 7 2.17188V2.97363C7.00027 3.54088 7.46009 4.00073 8.02734 4.00098H8.27441C8.60666 4.00098 8.92429 4.06296 9.21875 4.17188C8.78178 3.14437 7.98116 2.31393 6.97266 1.84277Z"
    fill="currentColor"
  />
</svg>
