<svg width="24" height="24" viewBox="0 0 24 24" fill="none" xmlns="http://www.w3.org/2000/svg" data-fui-icon="true">
  <path
    fill-rule="evenodd"
    clip-rule="evenodd"
    d="M5.75717 11.5C6.17138 11.5 6.50717 11.8358 6.50717 12.25V12.708C8.463 12.971 9.30552 14.2469 9.48178 15.0703C9.56818 15.4751 9.31037 15.8742 8.9056 15.9609C8.50079 16.0474 8.10177 15.7885 8.01498 15.3838C7.97022 15.1758 7.65565 14.4542 6.50717 14.2285V17.1504C7.07133 17.2646 7.67303 17.4209 8.17318 17.6943C8.53575 17.8927 8.87861 18.169 9.12631 18.5625C9.37599 18.9595 9.49838 19.4272 9.49838 19.9551C9.49792 21.2489 8.40803 22.5571 6.50717 22.832V23.25C6.50717 23.6642 6.17138 24 5.75717 24C5.34314 23.9998 5.00717 23.6641 5.00717 23.25V22.834C4.15947 22.7147 3.51484 22.397 3.03842 21.9893C2.44382 21.4801 2.16226 20.8781 2.03744 20.498C1.9086 20.1049 2.12301 19.6812 2.51596 19.5518C2.90946 19.4226 3.33397 19.6368 3.46322 20.0303C3.53024 20.2343 3.68664 20.5692 4.014 20.8496C4.22855 21.0332 4.54322 21.2128 5.00717 21.3105V18.3936C4.44312 18.2793 3.8412 18.1249 3.34115 17.8516C2.97865 17.6532 2.63571 17.3768 2.38803 16.9834C2.13824 16.5864 2.01601 16.1188 2.01596 15.5908C2.01606 14.2967 3.10721 12.9873 5.00717 12.7119V12.25C5.00717 11.8359 5.34314 11.5002 5.75717 11.5ZM7.75033 0C10.3735 0.000197904 12.5003 2.12677 12.5003 4.75V5.25C12.5004 7.59703 14.4033 9.4998 16.7503 9.5H17.2503C19.8735 9.5002 22.0003 11.6268 22.0003 14.25V18.3232C21.9611 21.4651 19.4034 23.9999 16.2523 24H7.94076C9.77583 23.3133 10.998 21.7759 10.9984 19.9551C10.9984 19.189 10.8181 18.435 10.3958 17.7637C10.2502 17.5323 10.0856 17.3288 9.91244 17.1494C10.6465 16.7049 11.0824 15.8664 10.9857 14.9844L10.9486 14.7568L10.8695 14.4531C10.5228 13.3262 9.55655 12.0809 7.87435 11.4971C7.56428 10.6254 6.73524 10 5.75717 10C4.76995 10.0002 3.93312 10.6369 3.63021 11.5215C3.01042 11.746 2.46066 12.0694 2.00033 12.4658V5.75C2.00051 2.57452 4.57481 0 7.75033 0ZM6.50717 21.3115C7.64353 21.0757 7.99786 20.3215 7.99838 19.9551C7.99838 19.6655 7.93389 19.4841 7.85678 19.3613C7.77739 19.2352 7.65141 19.1191 7.45346 19.0107C7.19987 18.8721 6.88309 18.7752 6.50717 18.6885V21.3115ZM5.00717 14.2334C3.87069 14.4697 3.51607 15.2253 3.51596 15.5908C3.51601 15.8805 3.58038 16.0619 3.65756 16.1846C3.73695 16.3106 3.86304 16.4269 4.06088 16.5352C4.31441 16.6738 4.63133 16.7697 5.00717 16.8564V14.2334ZM11.8343 0.0214844C12.6225 0.0748721 13.401 0.233267 14.1478 0.496094L14.555 0.639648C17.7333 1.75853 20.203 4.30354 21.2269 7.51367L21.5882 8.64648C21.7388 9.11852 21.8467 9.60234 21.9154 10.0918C20.7707 8.80869 19.105 8.00011 17.2503 8H16.7503C15.2318 7.9998 14.0004 6.7686 14.0003 5.25V4.75C14.0003 2.85998 13.1602 1.16755 11.8343 0.0214844Z"
    fill="currentColor"
  />
</svg>
