<svg width="12" height="13" viewBox="0 0 12 13" fill="none" xmlns="http://www.w3.org/2000/svg" data-fui-icon="true">
  <path
    d="M3.49609 0.0869141C4.6482 0.383712 5.5 1.42717 5.5 2.67188V2.91699C5.50018 4.34347 6.65653 5.49982 8.08301 5.5C9.69384 5.5 11 6.80616 11 8.41699V8.75293C10.9996 10.5475 9.54464 12.0029 7.75 12.0029H4.25C2.45533 12.0029 1.00037 10.5475 1 8.75293V3.24902C1 1.71365 2.06473 0.426932 3.49609 0.0869141ZM6.04004 0.00878906C6.13449 0.0172097 6.22845 0.0308627 6.32129 0.0507812C8.63986 0.548427 10.4512 2.36004 10.9482 4.67871C10.9778 4.81662 10.9919 4.95758 10.9961 5.09863C10.2184 4.41542 9.19942 4 8.08301 4C7.48496 3.99982 7.00018 3.51504 7 2.91699V2.67188C7 1.65957 6.63981 0.731288 6.04004 0.00878906Z"
    fill="currentColor"
  />
</svg>
