<svg width="24" height="24" viewBox="0 0 24 24" fill="none" xmlns="http://www.w3.org/2000/svg" data-fui-icon="true">
  <path
    d="M7.75 0C10.3732 0.00019787 12.5 2.12677 12.5 4.75V5.25C12.5001 7.59703 14.403 9.4998 16.75 9.5H17.25C19.8732 9.5002 22 11.6268 22 14.25V18.3232C21.9608 21.4651 19.4031 23.9999 16.252 24H9.57227L13.1543 20.418C14.033 19.5393 14.033 18.114 13.1543 17.2354C12.2756 16.3572 10.8512 16.357 9.97266 17.2354L9.40723 17.8008V13.4199C9.40723 12.1774 8.3997 11.1701 7.15723 11.1699C5.91459 11.1699 4.90723 12.1773 4.90723 13.4199V17.8018L4.34082 17.2354C3.7076 16.6024 2.79159 16.4276 2 16.707V5.75C2.00018 2.57452 4.57448 0 7.75 0ZM7.15723 12.6699C7.57127 12.6701 7.90723 13.0058 7.90723 13.4199V21.4229L11.0332 18.2969C11.3261 18.004 11.8009 18.004 12.0938 18.2969C12.3866 18.5898 12.3866 19.0646 12.0938 19.3574L7.6875 23.7637C7.39463 24.0565 6.91985 24.0565 6.62695 23.7637L2.21973 19.3574C1.92689 19.0646 1.92702 18.5898 2.21973 18.2969C2.51262 18.004 2.98738 18.004 3.28027 18.2969L6.40723 21.4229V13.4199C6.40723 13.0057 6.74301 12.6699 7.15723 12.6699ZM11.834 0.0214844C12.6222 0.0748721 13.4007 0.233267 14.1475 0.496094L14.5547 0.639648C17.733 1.75853 20.2027 4.30354 21.2266 7.51367L21.5879 8.64648C21.7384 9.11852 21.8464 9.60234 21.915 10.0918C20.7704 8.80869 19.1047 8.00011 17.25 8H16.75C15.2314 7.9998 14.0001 6.7686 14 5.25V4.75C14 2.85998 13.1599 1.16755 11.834 0.0214844Z"
    fill="currentColor"
  />
</svg>
