<svg width="12" height="13" viewBox="0 0 12 13" fill="none" xmlns="http://www.w3.org/2000/svg" data-fui-icon="true">
  <path
    d="M5.83203 0C5.99648 4.33521e-06 6.1605 0.01726 6.32129 0.0517578C8.63986 0.549403 10.4512 2.36101 10.9482 4.67969C10.9826 4.84023 11 5.00477 11 5.16895V8.75391C10.9996 10.5485 9.54464 12.0038 7.75 12.0039H7.125C6.71104 12.0039 6.37537 11.6678 6.375 11.2539C6.375 10.8397 6.71082 10.5039 7.125 10.5039H7.75C8.71621 10.5038 9.49963 9.72005 9.5 8.75391V6.72656L9.49414 6.60059C9.43116 5.98303 8.9085 5.50098 8.27441 5.50098H8.02734C6.63167 5.50073 5.50027 4.36931 5.5 2.97363V2.17188C5.5 1.84737 5.26988 1.57641 4.96387 1.51367L4.82812 1.5H4.25C3.28353 1.50004 2.5 2.28352 2.5 3.25V3.50098C2.49984 3.91505 2.16411 4.25098 1.75 4.25098C1.33592 4.25094 1.00016 3.91503 1 3.50098V3.25C1 1.4551 2.4551 3.50505e-05 4.25 0H5.83203ZM3.25391 4.50098C3.66803 4.50108 4.00391 4.83682 4.00391 5.25098V5.37793C4.11683 5.41203 4.23007 5.45119 4.33887 5.49707C4.6865 5.64367 5.17412 5.92246 5.4209 6.41602C5.60584 6.78643 5.45531 7.2367 5.08496 7.42188C4.71455 7.60682 4.26428 7.45629 4.0791 7.08594C4.07509 7.08022 4.05631 7.0565 4.00781 7.01953C3.94724 6.97339 3.86176 6.92455 3.75586 6.87988C3.52914 6.78427 3.31761 6.75104 3.25391 6.75098C2.92688 6.75098 2.73655 6.8577 2.63379 6.95312C2.57884 7.00422 2.54314 7.05728 2.52246 7.10156C2.50261 7.14406 2.50024 7.16975 2.5 7.17285C2.5 7.21141 2.50422 7.23353 2.50684 7.24316C2.50916 7.25167 2.51194 7.25467 2.5127 7.25586C2.51345 7.25704 2.5278 7.28111 2.59375 7.31934C2.75946 7.41517 3.01092 7.47981 3.4248 7.5791C3.77189 7.66237 4.27516 7.7786 4.67969 8.03223C4.89747 8.16879 5.11121 8.35886 5.26758 8.625C5.42563 8.89408 5.49998 9.19865 5.5 9.52539C5.5 10.384 4.85762 10.9532 4.00391 11.1611V11.251C4.00391 11.6651 3.66803 12.0009 3.25391 12.001C2.83969 12.001 2.50391 11.6652 2.50391 11.251V11.1406C2.4211 11.1185 2.33828 11.0934 2.25684 11.0654C1.92014 10.9497 1.51229 10.7537 1.20801 10.4355C0.922001 10.1363 0.932462 9.66224 1.23145 9.37598C1.53078 9.08967 2.00568 9.10008 2.29199 9.39941C2.36277 9.47333 2.51756 9.56956 2.74414 9.64746C2.96588 9.72369 3.16504 9.75098 3.25391 9.75098C3.64477 9.75095 3.84944 9.65634 3.93555 9.59277C4.01443 9.53451 4.00005 9.50438 4 9.52539C3.99999 9.43111 3.98068 9.39514 3.97461 9.38477C3.96692 9.37169 3.94613 9.34345 3.88281 9.30371C3.72487 9.20467 3.47804 9.13375 3.0752 9.03711C2.73922 8.95651 2.24047 8.84751 1.84375 8.61816C1.62893 8.49392 1.40843 8.31706 1.24512 8.05957C1.07844 7.79664 1 7.49528 1 7.17285C1.00014 6.40771 1.56879 5.63214 2.50391 5.35645V5.25098C2.50391 4.83676 2.83969 4.50098 3.25391 4.50098ZM6.97266 1.84277C6.98899 1.95014 7 2.05996 7 2.17188V2.97363C7.00027 3.54088 7.46009 4.00073 8.02734 4.00098H8.27441C8.60666 4.00098 8.92429 4.06296 9.21875 4.17188C8.78178 3.14437 7.98116 2.31393 6.97266 1.84277Z"
    fill="currentColor"
  />
</svg>
