<svg width="20" height="20" viewBox="0 0 20 20" fill="none" xmlns="http://www.w3.org/2000/svg" data-fui-icon="true">
  <path
    d="M4.75488 9C5.16903 9 5.50478 9.33587 5.50488 9.75V10.4238C6.23254 10.5156 7.21585 10.8401 7.78516 11.9785C7.96999 12.3488 7.81941 12.8001 7.44922 12.9854C7.07898 13.1702 6.62868 13.0194 6.44336 12.6494C6.07839 11.9198 5.38173 11.8887 4.75586 11.8887C3.49268 11.8889 3.13675 12.6644 3.13672 12.9053C3.1368 13.1011 3.18073 13.2136 3.22559 13.2852C3.27327 13.361 3.35387 13.4417 3.49707 13.5234C3.81763 13.7062 4.28122 13.8118 4.90625 13.9443C5.46245 14.0622 6.18162 14.2076 6.74707 14.5303C7.04647 14.7012 7.33516 14.9382 7.5459 15.2744C7.75932 15.6151 7.86426 16.0117 7.86426 16.4512C7.86368 17.6162 6.87576 18.4033 5.50488 18.6123V19.25C5.50462 19.664 5.16893 20 4.75488 20C4.34106 19.9997 4.00515 19.6638 4.00488 19.25V18.5869C3.78631 18.5444 3.55804 18.4884 3.33496 18.415C2.83949 18.2521 2.27012 17.9857 1.85645 17.5723C1.5637 17.2795 1.56399 16.8046 1.85645 16.5117C2.14934 16.2189 2.62411 16.2188 2.91699 16.5117C3.09418 16.6886 3.4121 16.8614 3.80371 16.9902C4.18885 17.1168 4.55351 17.1708 4.75586 17.1709C6.1899 17.1708 6.36314 16.5558 6.36426 16.4512C6.36426 16.2555 6.32019 16.142 6.27539 16.0703C6.2278 15.9945 6.14682 15.9147 6.00391 15.833C5.68337 15.6501 5.21991 15.5446 4.59473 15.4121C4.03864 15.2942 3.31947 15.1487 2.75391 14.8262C2.45447 14.6553 2.16493 14.4182 1.9541 14.082C1.74058 13.7414 1.63681 13.3448 1.63672 12.9053C1.63674 11.8448 2.52746 10.7436 4.00488 10.46V9.75C4.00498 9.33604 4.34096 9.00027 4.75488 9ZM9.86426 0C10.2355 3.97444e-05 10.6049 0.0555523 10.96 0.164062L11.0859 0.202148C14.5551 1.26259 17.256 4.00157 18.2676 7.48535L18.3545 7.78613C18.4531 8.12584 18.5039 8.4783 18.5039 8.83203V15.25C18.5038 17.873 16.3769 19.9997 13.7539 20H10.751C10.3368 20 10.0011 19.6641 10.001 19.25C10.001 18.8358 10.3368 18.5 10.751 18.5H13.7539C15.5485 18.4997 17.0038 17.0446 17.0039 15.25V11.2764H17.0029V10.6982C17.0029 9.31756 15.8836 8.19824 14.5029 8.19824H13.9316C11.8608 8.19802 10.1818 6.51906 10.1816 4.44824V4C10.1816 2.70567 9.19802 1.64084 7.9375 1.5127L7.68164 1.5H6.25098C4.45605 1.5 3.00098 2.95507 3.00098 4.75V6.25C3.00084 6.66402 2.665 6.99987 2.25098 7C1.83684 7 1.50111 6.6641 1.50098 6.25V4.75C1.50098 2.12665 3.62762 0 6.25098 0H9.86426ZM10.9873 1.74805C11.4251 2.38951 11.6816 3.16479 11.6816 4V4.44824C11.6818 5.69063 12.6893 6.69802 13.9316 6.69824H14.5029C15.2859 6.69824 16.016 6.92363 16.6328 7.3125C15.6834 4.70924 13.6127 2.66265 10.9873 1.74805Z"
    fill="currentColor"
  />
</svg>
