<svg width="12" height="12" viewBox="0 0 12 12" fill="none" xmlns="http://www.w3.org/2000/svg" data-fui-icon="true">
  <path
    d="M9.65625 6.75C10.0705 6.75 10.4062 7.08579 10.4062 7.5V8.25H11.1562C11.5705 8.25 11.9062 8.58579 11.9062 9C11.9062 9.41421 11.5705 9.75 11.1562 9.75H10.4062V10.5C10.4062 10.9142 10.0705 11.25 9.65625 11.25C9.24204 11.25 8.90625 10.9142 8.90625 10.5V9.75H8.15625C7.74204 9.75 7.40625 9.41421 7.40625 9C7.40625 8.58579 7.74204 8.25 8.15625 8.25H8.90625V7.5C8.90625 7.08579 9.24204 6.75 9.65625 6.75ZM8.3125 0.9375C9.83087 0.9375 11.0623 2.16766 11.0625 3.68652V5.4043C11.0623 5.81831 10.7266 6.1543 10.3125 6.1543C9.89843 6.1543 9.56273 5.81831 9.5625 5.4043V3.68652C9.56228 2.99663 9.00299 2.4375 8.3125 2.4375H3.71875C3.02839 2.4375 2.46875 2.99714 2.46875 3.6875V8.25C2.46875 8.94038 3.02841 9.5 3.71875 9.5H6.19434C6.60855 9.5 6.94434 9.83579 6.94434 10.25C6.94434 10.6642 6.60855 11 6.19434 11H3.71875C2.19995 11 0.96875 9.76876 0.96875 8.25V3.6875C0.96875 2.16872 2.19997 0.9375 3.71875 0.9375H8.3125ZM7.26953 6.21875C7.68363 6.21884 8.01947 6.55465 8.01953 6.96875C8.01953 7.38291 7.68367 7.71866 7.26953 7.71875H4.09375C3.67954 7.71875 3.34375 7.38296 3.34375 6.96875C3.34382 6.55459 3.67958 6.21875 4.09375 6.21875H7.26953ZM8.15625 3.875C8.57046 3.875 8.90625 4.21079 8.90625 4.625C8.90625 5.03921 8.57046 5.375 8.15625 5.375H4.09375C3.67954 5.375 3.34375 5.03921 3.34375 4.625C3.34375 4.21079 3.67954 3.875 4.09375 3.875H8.15625Z"
    fill="currentColor"
  />
</svg>
