<svg width="32" height="32" viewBox="0 0 32 32" fill="none" xmlns="http://www.w3.org/2000/svg" data-fui-icon="true">
  <path
    d="M15.5322 0.998047C16.7803 0.998047 18.0166 1.24741 19.167 1.73145C23.2668 3.45657 26.4813 6.78595 28.0625 10.9434L28.3242 11.6318C28.7699 12.804 28.9989 14.0477 28.999 15.3018V16.8447C28.9991 16.8571 29 16.8695 29 16.8818L28.999 19.2324V24.252C28.9988 27.9796 25.9767 31.0018 22.249 31.002H17.75C17.336 31.0019 17.0003 30.6659 17 30.252C17.0002 29.8379 17.336 29.502 17.75 29.502H22.249C25.1483 29.5018 27.4988 27.1512 27.499 24.252V16.8447C27.4788 14.5152 25.5842 12.6323 23.25 12.6318H22.5869C19.6874 12.6318 17.3369 10.2813 17.3369 7.38184V6.74805C17.3367 4.47432 15.5502 2.61767 13.3047 2.50391L13.0869 2.49805H9.75C6.85069 2.49814 4.50017 4.84876 4.5 7.74805V19.25C4.4998 19.664 4.16409 20 3.75 20C3.33599 19.9999 3.0002 19.664 3 19.25V7.74805C3.00017 4.02033 6.02227 0.998142 9.75 0.998047H15.5322ZM15.7197 21.0693C16.0126 20.7767 16.4874 20.7767 16.7803 21.0693C17.0731 21.3622 17.073 21.837 16.7803 22.1299L8.15039 30.7598C8.00977 30.9004 7.81899 30.9795 7.62012 30.9795C7.42121 30.9795 7.23049 30.9004 7.08984 30.7598L3.21973 26.8896C2.92709 26.5967 2.92691 26.1219 3.21973 25.8291C3.51256 25.5365 3.98745 25.5366 4.28027 25.8291L7.62012 29.1689L15.7197 21.0693ZM17.1328 2.66406C18.1845 3.70598 18.8368 5.15076 18.8369 6.74805V7.38184C18.8369 9.4529 20.5158 11.1318 22.5869 11.1318H23.25C24.7162 11.1321 26.0537 11.6823 27.0693 12.5859C27.0236 12.4447 26.9747 12.304 26.9219 12.165L26.6602 11.4766C25.2247 7.70248 22.3068 4.6803 18.585 3.11426C18.1156 2.91678 17.629 2.76714 17.1328 2.66406Z"
    fill="currentColor"
  />
</svg>
