<svg width="12" height="13" viewBox="0 0 12 13" fill="none" xmlns="http://www.w3.org/2000/svg" data-fui-icon="true">
  <path
    d="M3.49609 0.0869141C4.6482 0.383712 5.5 1.42717 5.5 2.67188V2.91699C5.50018 4.34347 6.65653 5.49982 8.08301 5.5C9.69384 5.5 11 6.80616 11 8.41699V8.75293C10.9996 10.5475 9.54464 12.0029 7.75 12.0029H5.24219C6.09002 11.5416 6.75 10.7414 6.75 9.52441C6.74998 9.00443 6.63066 8.47522 6.3457 7.99023C6.34139 7.9829 6.33638 7.97601 6.33203 7.96875C6.74522 7.43159 6.87213 6.7049 6.62109 6.04297L6.53906 5.85547L6.4502 5.69238C6.07716 5.05747 5.51373 4.68409 5.09668 4.47266C4.79333 3.75434 4.08265 3.25008 3.25391 3.25C2.42668 3.25 1.71744 3.75259 1.41309 4.46875C1.26739 4.55009 1.13007 4.64214 1 4.74121V3.24902C1 1.71365 2.06473 0.426932 3.49609 0.0869141ZM3.25391 4.5C3.66803 4.5001 4.00391 4.83585 4.00391 5.25V5.37695C4.11683 5.41105 4.23007 5.45021 4.33887 5.49609C4.6865 5.6427 5.17412 5.92148 5.4209 6.41504C5.60584 6.78545 5.45531 7.23572 5.08496 7.4209C4.71455 7.60584 4.26428 7.45531 4.0791 7.08496C4.07509 7.07924 4.05631 7.05552 4.00781 7.01855C3.94724 6.97241 3.86176 6.92357 3.75586 6.87891C3.52914 6.7833 3.31761 6.75006 3.25391 6.75C2.92688 6.75 2.73655 6.85673 2.63379 6.95215C2.57884 7.00324 2.54314 7.05631 2.52246 7.10059C2.50261 7.14308 2.50024 7.16878 2.5 7.17188C2.5 7.21043 2.50422 7.23255 2.50684 7.24219C2.50916 7.2507 2.51194 7.2537 2.5127 7.25488C2.51345 7.25607 2.5278 7.28013 2.59375 7.31836C2.75946 7.4142 3.01092 7.47884 3.4248 7.57812C3.77189 7.66139 4.27516 7.77762 4.67969 8.03125C4.89747 8.16782 5.11121 8.35788 5.26758 8.62402C5.42563 8.8931 5.49998 9.19767 5.5 9.52441C5.5 10.383 4.85762 10.9523 4.00391 11.1602V11.25C4.00391 11.6642 3.66803 11.9999 3.25391 12C2.83969 12 2.50391 11.6642 2.50391 11.25V11.1396C2.4211 11.1175 2.33828 11.0924 2.25684 11.0645C1.92014 10.9487 1.51229 10.7527 1.20801 10.4346C0.922001 10.1353 0.932462 9.66127 1.23145 9.375C1.53078 9.08869 2.00568 9.0991 2.29199 9.39844C2.36277 9.47235 2.51756 9.56859 2.74414 9.64648C2.96588 9.72271 3.16504 9.75 3.25391 9.75C3.64477 9.74997 3.84944 9.65536 3.93555 9.5918C4.01443 9.53353 4.00005 9.5034 4 9.52441C3.99999 9.43013 3.98068 9.39417 3.97461 9.38379C3.96692 9.37071 3.94613 9.34247 3.88281 9.30273C3.72487 9.20369 3.47804 9.13277 3.0752 9.03613C2.73922 8.95553 2.24047 8.84654 1.84375 8.61719C1.62893 8.49294 1.40843 8.31608 1.24512 8.05859C1.07844 7.79566 1 7.4943 1 7.17188C1.00014 6.40673 1.56879 5.63116 2.50391 5.35547V5.25C2.50391 4.83579 2.83969 4.5 3.25391 4.5ZM6.04004 0.00878906C6.13449 0.0172097 6.22845 0.0308627 6.32129 0.0507812C8.63986 0.548427 10.4512 2.36004 10.9482 4.67871C10.9778 4.81662 10.9919 4.95758 10.9961 5.09863C10.2184 4.41542 9.19942 4 8.08301 4C7.48496 3.99982 7.00018 3.51504 7 2.91699V2.67188C7 1.65957 6.63981 0.731288 6.04004 0.00878906Z"
    fill="currentColor"
  />
</svg>
