<svg width="20" height="20" viewBox="0 0 20 20" fill="none" xmlns="http://www.w3.org/2000/svg" data-fui-icon="true">
  <path
    d="M6.21582 0.000976562C8.40911 0.019469 10.1816 1.80235 10.1816 4V4.44824C10.1817 6.51909 11.8608 8.19802 13.9316 8.19824H14.5C16.709 8.19837 18.5 9.98919 18.5 12.1982V14.2754H18.5029V15.25C18.5028 17.8731 16.376 19.9998 13.7529 20H9.94629C10.2917 19.1816 10.1327 18.2011 9.46582 17.5342L8.24414 16.3125L9.46582 15.0908C10.3445 14.2121 10.3445 12.7879 9.46582 11.9092C8.58714 11.0305 7.16286 11.0305 6.28418 11.9092L5.0625 13.1309L3.84082 11.9092C3.20752 11.2759 2.2916 11.1013 1.5 11.3809V4.75C1.5 2.1382 3.6084 0.0195908 6.21582 0.000976562ZM7.34473 12.9697C7.63762 12.6768 8.11238 12.6768 8.40527 12.9697C8.69817 13.2626 8.69817 13.7374 8.40527 14.0303L6.12305 16.3125L8.40527 18.5947C8.69817 18.8876 8.69817 19.3624 8.40527 19.6553C8.11238 19.9482 7.63762 19.9482 7.34473 19.6553L5.0625 17.373L2.78027 19.6553C2.48738 19.9482 2.01262 19.9482 1.71973 19.6553C1.42683 19.3624 1.42683 18.8876 1.71973 18.5947L4.00195 16.3125L1.71973 14.0303C1.42683 13.7374 1.42683 13.2626 1.71973 12.9697C2.01262 12.6768 2.48738 12.6768 2.78027 12.9697L5.0625 15.252L7.34473 12.9697ZM9.95801 0.00292969C10.2973 0.0115822 10.6342 0.0648306 10.959 0.164062L11.085 0.202148C14.5543 1.26253 17.255 4.00147 18.2666 7.48535L18.3535 7.78613C18.4118 7.98682 18.4503 8.19224 18.4746 8.39941C17.4733 7.35197 16.0635 6.69831 14.5 6.69824H13.9316C12.6892 6.69802 11.6817 5.69066 11.6816 4.44824V4C11.6816 2.42513 11.0188 1.00558 9.95801 0.00292969Z"
    fill="currentColor"
  />
</svg>
