<svg width="32" height="32" viewBox="0 0 32 32" fill="none" xmlns="http://www.w3.org/2000/svg" data-fui-icon="true">
  <path
    fill-rule="evenodd"
    clip-rule="evenodd"
    d="M11.5872 1C14.7625 1.00045 17.3372 3.57464 17.3372 6.75V7.38281C17.3373 10.2822 19.6878 12.6328 22.5872 12.6328H23.2503C26.4009 12.6331 28.9596 15.1673 28.9993 18.3086V24.252C28.999 27.9796 25.977 31.0018 22.2493 31.002H10.2659C12.5067 30.1703 13.959 28.3028 13.9593 26.1533C13.9592 25.2308 13.7433 24.3366 13.2464 23.5449C12.9612 23.0907 12.6163 22.7266 12.2542 22.4316C13.4445 22.0338 14.1724 20.7975 13.9046 19.541C13.5927 18.0804 12.3474 16.2737 9.94267 15.5469C9.58015 14.6133 8.67623 13.9502 7.61454 13.9502C6.54247 13.9504 5.62978 14.626 5.2747 15.5742C4.39418 15.8546 3.62422 16.2911 3.00028 16.8408V7.74805C3.00046 4.04609 5.98095 1.04146 9.67314 1H11.5872ZM7.61454 15.7002C8.02876 15.7002 8.36454 16.036 8.36454 16.4502V17.0088C10.9222 17.278 11.9797 18.9093 12.1927 19.9062C12.2787 20.3111 12.0204 20.7105 11.6155 20.7969C11.2109 20.8829 10.8125 20.6242 10.7259 20.2197C10.6472 19.8511 10.1326 18.7634 8.36454 18.5195V22.7197C9.133 22.8694 9.95171 23.0661 10.6184 23.4316C11.0611 23.6744 11.4698 24.0071 11.764 24.4756C12.06 24.9474 12.2092 25.5079 12.2093 26.1533C12.2089 27.7278 10.8406 29.3907 8.36454 29.6719V30.2344C8.36439 30.6485 8.02866 30.9844 7.61454 30.9844C7.20061 30.9841 6.86469 30.6483 6.86454 30.2344V29.6729C5.71983 29.5466 4.87177 29.1361 4.25907 28.6104C3.53291 27.9872 3.18947 27.2503 3.03739 26.7861C2.90853 26.3926 3.12346 25.9689 3.51689 25.8398C3.91052 25.711 4.33427 25.9257 4.46318 26.3193C4.55777 26.6079 4.77738 27.0776 5.23661 27.4717C5.58119 27.7673 6.0939 28.0479 6.86454 28.1611V23.9639C6.09617 23.8145 5.27727 23.6194 4.61064 23.2539C4.16806 23.0112 3.75927 22.6783 3.46513 22.21C3.16892 21.7381 3.01992 21.1768 3.01982 20.5312C3.02007 18.9567 4.39003 17.2936 6.86454 17.0117V16.4502C6.86454 16.0361 7.20052 15.7004 7.61454 15.7002ZM8.36454 28.1611C10.1047 27.9071 10.7088 26.7818 10.7093 26.1533C10.7092 25.7455 10.6175 25.4712 10.4934 25.2734C10.3673 25.0724 10.1755 24.8995 9.89775 24.7471C9.49068 24.5239 8.97249 24.3782 8.36454 24.25V28.1611ZM6.86454 18.5225C5.12499 18.7771 4.5201 19.9035 4.51982 20.5312C4.51992 20.9391 4.61155 21.2144 4.73564 21.4121C4.86192 21.6131 5.05447 21.7861 5.33232 21.9385C5.73915 22.1615 6.25723 22.3048 6.86454 22.4326V18.5225ZM16.014 1.01074C17.0976 1.06649 18.165 1.30975 19.1673 1.73145C23.2671 3.45657 26.4816 6.78595 28.0628 10.9434L28.3245 11.6318C28.5951 12.3434 28.7847 13.0814 28.8929 13.832C27.5636 12.1864 25.5302 11.133 23.2503 11.1328H22.5872C20.5162 11.1328 18.8373 9.45377 18.8372 7.38281V6.75C18.8372 4.41353 17.7302 2.33662 16.014 1.01074Z"
    fill="currentColor"
  />
</svg>
