<svg width="20" height="20" viewBox="0 0 20 20" fill="none" xmlns="http://www.w3.org/2000/svg" data-fui-icon="true">
  <path
    d="M6.21582 0.000976562C8.40911 0.019469 10.1816 1.80235 10.1816 4V4.44824C10.1817 6.51909 11.8608 8.19802 13.9316 8.19824H14.5C16.709 8.19837 18.5 9.98919 18.5 12.1982V14.2754H18.5029V15.25C18.5028 17.8731 16.376 19.9998 13.7529 20H6.25C3.62693 19.9998 1.50013 17.8731 1.5 15.25V4.75C1.5 2.1382 3.6084 0.0195908 6.21582 0.000976562ZM5.75 14.5C5.33579 14.5 5 14.8358 5 15.25C5 15.6642 5.33579 16 5.75 16H14.25C14.6642 16 15 15.6642 15 15.25C15 14.8358 14.6642 14.5 14.25 14.5H5.75ZM5.75 11C5.33579 11 5 11.3358 5 11.75C5 12.1642 5.33579 12.5 5.75 12.5H10.25C10.6642 12.5 11 12.1642 11 11.75C11 11.3358 10.6642 11 10.25 11H5.75ZM9.95801 0.00292969C10.2973 0.0115822 10.6342 0.0648306 10.959 0.164062L11.085 0.202148C14.5543 1.26253 17.255 4.00147 18.2666 7.48535L18.3535 7.78613C18.4118 7.98682 18.4503 8.19224 18.4746 8.39941C17.4733 7.35197 16.0635 6.69831 14.5 6.69824H13.9316C12.6892 6.69802 11.6817 5.69066 11.6816 4.44824V4C11.6816 2.42513 11.0188 1.00558 9.95801 0.00292969Z"
    fill="currentColor"
  />
</svg>
