<svg width="20" height="20" viewBox="0 0 20 20" fill="none" xmlns="http://www.w3.org/2000/svg" data-fui-icon="true">
  <path
    d="M9.86328 0C10.2345 1.61643e-05 10.6039 0.0555963 10.959 0.164062L11.085 0.202148C14.5543 1.26253 17.255 4.00147 18.2666 7.48535L18.3535 7.78613C18.4522 8.12589 18.5029 8.47824 18.5029 8.83203V15.25C18.5028 17.8731 16.376 19.9998 13.7529 20H11.75C11.3361 19.9998 11.0001 19.664 11 19.25C11 18.836 11.336 18.5002 11.75 18.5H13.7529C15.5476 18.4998 17.0028 17.0447 17.0029 15.25V10.6982C17.0029 9.31766 15.8835 8.19841 14.5029 8.19824H13.9316C11.8608 8.19802 10.1818 6.51906 10.1816 4.44824V4C10.1816 2.70544 9.19736 1.64053 7.93652 1.5127L7.68164 1.5H6.25C4.45528 1.50024 3 2.95522 3 4.75V9.25C2.99987 9.6641 2.66413 10 2.25 10C1.83607 9.99976 1.50013 9.66396 1.5 9.25V4.75C1.5 2.12679 3.62685 0.000237082 6.25 0H9.86328ZM7.34473 12.9697C7.63762 12.6768 8.11238 12.6768 8.40527 12.9697C8.69817 13.2626 8.69817 13.7374 8.40527 14.0303L6.12305 16.3125L8.40527 18.5947C8.69817 18.8876 8.69817 19.3624 8.40527 19.6553C8.11238 19.9482 7.63762 19.9482 7.34473 19.6553L5.0625 17.373L2.78027 19.6553C2.48738 19.9482 2.01262 19.9482 1.71973 19.6553C1.42683 19.3624 1.42683 18.8876 1.71973 18.5947L4.00195 16.3125L1.71973 14.0303C1.42683 13.7374 1.42683 13.2626 1.71973 12.9697C2.01262 12.6768 2.48738 12.6768 2.78027 12.9697L5.0625 15.252L7.34473 12.9697ZM10.9873 1.74805C11.425 2.38948 11.6816 3.16485 11.6816 4V4.44824C11.6818 5.69063 12.6893 6.69802 13.9316 6.69824H14.5029C15.2859 6.6983 16.016 6.9236 16.6328 7.3125C15.6835 4.70928 13.6126 2.66271 10.9873 1.74805Z"
    fill="currentColor"
  />
</svg>
