<svg width="12" height="13" viewBox="0 0 12 13" fill="none" xmlns="http://www.w3.org/2000/svg" data-fui-icon="true">
  <path
    d="M3.49609 0.0869141C4.6482 0.383712 5.5 1.42717 5.5 2.67188V2.91699C5.50018 4.34347 6.65653 5.49982 8.08301 5.5C9.69384 5.5 11 6.80616 11 8.41699V8.75293C10.9996 10.5475 9.54464 12.0029 7.75 12.0029H5.7207C5.81729 11.7684 5.87109 11.5116 5.87109 11.2422V11.1211H5.99219C7.09676 11.1211 7.99219 10.2257 7.99219 9.12109C7.99205 8.01664 7.09667 7.12109 5.99219 7.12109H5.87109V7C5.87109 5.89543 4.97566 5 3.87109 5C2.76663 5.00012 1.87109 5.89551 1.87109 7V7.12109H1.75C1.48463 7.12109 1.23171 7.17371 1 7.26758V3.24902C1 1.71365 2.06473 0.426932 3.49609 0.0869141ZM3.87109 6.25C4.28531 6.25 4.62109 6.58579 4.62109 7V8.37109H5.99219C6.40632 8.37109 6.74205 8.707 6.74219 9.12109C6.74219 9.53531 6.4064 9.87109 5.99219 9.87109H4.62109V11.2422C4.62109 11.6564 4.28531 11.9922 3.87109 11.9922C3.45698 11.9921 3.12109 11.6563 3.12109 11.2422V9.87109H1.75C1.33579 9.87109 1 9.53531 1 9.12109C1.00014 8.707 1.33587 8.37109 1.75 8.37109H3.12109V7C3.12109 6.58586 3.45698 6.25012 3.87109 6.25ZM6.04004 0.00878906C6.13449 0.0172097 6.22845 0.0308627 6.32129 0.0507812C8.63986 0.548427 10.4512 2.36004 10.9482 4.67871C10.9778 4.81662 10.9919 4.95758 10.9961 5.09863C10.2184 4.41542 9.19942 4 8.08301 4C7.48496 3.99982 7.00018 3.51504 7 2.91699V2.67188C7 1.65957 6.63981 0.731288 6.04004 0.00878906Z"
    fill="currentColor"
  />
</svg>
