<svg width="20" height="20" viewBox="0 0 20 20" fill="none" xmlns="http://www.w3.org/2000/svg" data-fui-icon="true">
  <path
    d="M11.2471 0.000976562L11.25 0C11.2523 0 11.2546 0.000956189 11.2568 0.000976562C12.1139 0.00506739 12.933 0.355607 13.5264 0.974609L17.1201 4.72363C17.6847 5.31272 17.9999 6.09713 18 6.91309V16.835C18 18.5828 16.5828 20 14.835 20H5.16504C3.4172 20 2 18.5828 2 16.835V3.16504C2 1.4172 3.4172 0 5.16504 0H11.2422C11.2438 2.44453e-07 11.2454 0.000973809 11.2471 0.000976562ZM5.16504 1.5C4.24563 1.5 3.5 2.24563 3.5 3.16504V16.835C3.5 17.7544 4.24563 18.5 5.16504 18.5H14.835C15.7544 18.5 16.5 17.7544 16.5 16.835V8H13.665C11.9172 8 10.5 6.5828 10.5 4.83496V1.5H5.16504ZM12 4.83496C12 5.75437 12.7456 6.5 13.665 6.5H16.4463C16.3757 6.22502 16.2367 5.97002 16.0371 5.76172L12.4434 2.0127C12.3139 1.87764 12.1633 1.76821 12 1.68457V4.83496Z"
    fill="currentColor"
  />
</svg>
