<svg width="24" height="24" viewBox="0 0 24 24" fill="none" xmlns="http://www.w3.org/2000/svg" data-fui-icon="true">
  <path
    d="M8.96973 15.9697C9.26262 15.6768 9.73738 15.6768 10.0303 15.9697C10.3232 16.2626 10.3232 16.7374 10.0303 17.0303L7.18555 19.875L10.0303 22.7197C10.3232 23.0126 10.3232 23.4874 10.0303 23.7803C9.73738 24.0732 9.26262 24.0732 8.96973 23.7803L6.125 20.9355L3.28027 23.7803C2.98738 24.0732 2.51262 24.0732 2.21973 23.7803C1.92683 23.4874 1.92683 23.0126 2.21973 22.7197L5.06445 19.875L2.21973 17.0303C1.92683 16.7374 1.92683 16.2626 2.21973 15.9697C2.51262 15.6768 2.98738 15.6768 3.28027 15.9697L6.125 18.8145L8.96973 15.9697ZM11.2422 0C12.2316 7.94291e-07 13.2142 0.167641 14.1475 0.496094L14.5547 0.639648C17.733 1.75853 20.2027 4.30354 21.2266 7.51367L21.5879 8.64648C21.862 9.50597 22.0019 10.4035 22.002 11.3057V18.25C22.002 21.4256 19.4275 23.9999 16.252 24H13.75C13.3358 24 13 23.6642 13 23.25C13.0002 22.836 13.3359 22.5 13.75 22.5H16.252C18.5991 22.4999 20.502 20.5972 20.502 18.25V12.75C20.5018 10.9554 19.0465 9.50026 17.252 9.5H16.75C14.4031 9.49983 12.5002 7.59694 12.5 5.25V4.75C12.4998 2.95535 11.0446 1.5002 9.25 1.5H7.75C5.4029 1.5 3.50018 3.40294 3.5 5.75V12.25C3.4998 12.664 3.16409 13 2.75 13C2.33591 13 2.0002 12.664 2 12.25V5.75C2.00018 2.57452 4.57447 0 7.75 0H11.2422ZM12.8809 1.68945C13.5786 2.51617 13.9999 3.58355 14 4.75V5.25C14.0002 6.76851 15.2315 7.99983 16.75 8H17.252C18.3265 8.00011 19.3174 8.35827 20.1133 8.95996L19.7979 7.96875C18.9168 5.20672 16.7913 3.01743 14.0566 2.05469L13.6494 1.91113C13.3973 1.82241 13.1404 1.74966 12.8809 1.68945Z"
    fill="currentColor"
  />
</svg>
