<svg width="32" height="32" viewBox="0 0 32 32" fill="none" xmlns="http://www.w3.org/2000/svg" data-fui-icon="true">
  <path
    d="M15.5322 0.998047C16.7803 0.998047 18.0166 1.24741 19.167 1.73145C23.2668 3.45657 26.4813 6.78595 28.0625 10.9434L28.3242 11.6318C28.7699 12.804 28.9989 14.0477 28.999 15.3018V16.8447C28.9991 16.8571 29 16.8695 29 16.8818L28.999 19.2324V24.252C28.9988 27.9796 25.9767 31.0018 22.249 31.002H17.75C17.336 31.0019 17.0003 30.6659 17 30.252C17.0002 29.8379 17.336 29.502 17.75 29.502H22.249C25.1483 29.5018 27.4988 27.1512 27.499 24.252V16.8447C27.4788 14.5152 25.5842 12.6323 23.25 12.6318H22.5869C19.6874 12.6318 17.3369 10.2813 17.3369 7.38184V6.74805C17.3367 4.47432 15.5502 2.61767 13.3047 2.50391L13.0869 2.49805H9.75C6.85069 2.49814 4.50017 4.84876 4.5 7.74805V16.25C4.4998 16.664 4.16409 17 3.75 17C3.33599 16.9999 3.0002 16.664 3 16.25V7.74805C3.00017 4.02033 6.02227 0.998142 9.75 0.998047H15.5322ZM12.2197 20.7197C12.5126 20.4268 12.9874 20.4268 13.2803 20.7197C13.5732 21.0126 13.5732 21.4874 13.2803 21.7803L9.31055 25.75L13.2803 29.7197C13.5732 30.0126 13.5732 30.4874 13.2803 30.7803C12.9874 31.0732 12.5126 31.0732 12.2197 30.7803L8.25 26.8105L4.28027 30.7803C3.98738 31.0732 3.51262 31.0732 3.21973 30.7803C2.92683 30.4874 2.92683 30.0126 3.21973 29.7197L7.18945 25.75L3.21973 21.7803C2.92683 21.4874 2.92683 21.0126 3.21973 20.7197C3.51262 20.4268 3.98738 20.4268 4.28027 20.7197L8.25 24.6895L12.2197 20.7197ZM17.1328 2.66406C18.1845 3.70598 18.8368 5.15076 18.8369 6.74805V7.38184C18.8369 9.4529 20.5158 11.1318 22.5869 11.1318H23.25C24.7162 11.1321 26.0537 11.6823 27.0693 12.5859C27.0236 12.4447 26.9747 12.304 26.9219 12.165L26.6602 11.4766C25.2247 7.70248 22.3068 4.6803 18.585 3.11426C18.1156 2.91678 17.629 2.76714 17.1328 2.66406Z"
    fill="currentColor"
  />
</svg>
