<svg width="16" height="16" viewBox="0 0 16 16" fill="none" xmlns="http://www.w3.org/2000/svg" data-fui-icon="true">
  <path
    fill-rule="evenodd"
    clip-rule="evenodd"
    d="M2.5625 3.78125C2.5625 3.09089 3.12214 2.53125 3.8125 2.53125H12.1875C12.8769 2.53125 13.4375 3.09193 13.4375 3.78328V3.79454V3.80577V3.81695V3.82809V3.83919V3.85025V3.86126V3.87223V3.88316V3.89405V3.9049V3.91571V3.92647V3.9372V3.94789V3.95853V3.96914V3.97971V3.99023V4.00072V4.01117V4.02158V4.03196V4.04229V4.05259V4.06285V4.07307V4.08326V4.09341V4.10352V4.11359V4.12363V4.13363V4.1436V4.15353V4.16343V4.17329V4.18311V4.19291V4.20266V4.21239V4.22207V4.23173V4.24135V4.25094V4.2605V4.27002V4.27951V4.28897V4.29839V4.30779V4.31715V4.32648V4.33578V4.34505V4.35428V4.36349V4.37267V4.38182V4.39093V4.40002V4.40908V4.41811V4.42711V4.43608V4.44502V4.45394V4.46283V4.47168V4.48052V4.48932V4.4981V4.50685V4.51557V4.52427V4.53294V4.54159V4.55021V4.5588V4.56737V4.57592V4.58443V4.59293V4.6014V4.60985V4.61827V4.62667V4.63504V4.6434V4.65173V4.66003V4.66832V4.67658V4.68482V4.69304V4.70124V4.70941V4.71757V4.7257V4.73381V4.74191V4.74998V4.75803V4.76606V4.77408V4.78207V4.79005V4.798V4.80594V4.81386V4.82176V4.82964V4.83751V4.84536V4.85319V4.861V4.8688V4.87658V4.88435V4.8921V4.89983V4.90755V4.91525V4.92294V4.93061V4.93827V4.94591V4.95354V4.96115V4.96875V4.97634V4.98392V4.99148V4.99903V5.00656V5.01409V5.0216V5.0291V5.03658V5.04406V5.05153V5.05898V5.06642V5.07386V5.08128V5.08869V5.0961V5.10349V5.11087V5.11825V5.12561V5.13297V5.14032V5.14766V5.15499V5.16232V5.16963V5.17694V5.18425V5.19154V5.19883V5.20611V5.21339V5.22066V5.22793V5.23519V5.24244V5.24969V5.25693V5.26417V5.27141V5.27864V5.28587V5.29309V5.30031V5.30753V5.31475V5.32196V5.32917V5.33638V5.34358V5.35078V5.35799V5.36519V5.37239V5.37959V5.38678V5.39398V5.40118V5.40838V5.41557V5.42277V5.42997V5.43717V5.44437V5.45157V5.45878V5.46598V5.47319V5.4804V5.48762V5.49483V5.50205V5.50927V5.5165V5.52373V5.53096V5.5382V5.54544V5.55269V5.55994V5.56719V5.57446V5.58172V5.589V5.59628V5.60356V5.61085V5.61815V5.62546V5.63277V5.64009V5.64742V5.65475V5.6621V5.66945V5.67681V5.68418V5.69156V5.69895V5.70634V5.71375V5.72117V5.72859V5.73603V5.74348V5.75094V5.75841V5.76589V5.77338V5.78088V5.7884V5.79593V5.80347V5.81102V5.81859V5.82617V5.83376V5.84137V5.84899V5.85662V5.86427V5.87193V5.87961V5.88731V5.89501V5.90274V5.91048V5.91823V5.926V5.93379V5.9416V5.94942V5.95725V5.96511V5.97298V5.98087V5.98878V5.99671V6.00465V6.01262V6.0206V6.0286V6.03662V6.04466V6.05273V6.06081V6.06891V6.07703V6.08517V6.09333V6.10152V6.10972V6.11795V6.1262V6.13447V6.14276V6.15108V6.15942V6.16778V6.17617V6.18457V6.19301V6.20146V6.20994V6.21845V6.22698V6.23553V6.24411V6.25271V6.26134V6.27V6.27868V6.28739V6.29612V6.30489V6.31367V6.32249V6.33133V6.3402V6.3491V6.35803V6.36698V6.37596V6.38498V6.39402V6.40309V6.41219V6.42132V6.43047V6.43966V6.44888V6.45813V6.46741V6.47673V6.48607V6.49544V6.50485V6.51429V6.52376V6.53326V6.5428V6.55237V6.56197V6.5716V6.58127V6.59098V6.60071V6.61048V6.62029V6.63013V6.64V6.64991V6.65986V6.66984V6.67986V6.68991V6.7V6.71013V6.72029V6.73049V6.74073V6.751V6.76131V6.77166V6.78205V6.79248V6.80294V6.81345V6.82399V6.83457V6.8452V6.85586V6.86656V6.8773V6.88809V6.89891V6.90977V6.92068V6.93163V6.94262V6.95365V6.96472V6.97583V6.98699V6.99819V7.00943V7.02072V7.03205V7.04342V7.05484V7.0663V7.07781V7.08936V7.10095V7.1126V7.12428V7.13601V7.14779V7.15961V7.17148V7.1834V7.19536V7.20737V7.21942V7.23153V7.24368V7.25588V7.26813V7.28042V7.29277V7.30516V7.3176V7.33009V7.34263V7.35522V7.36786V7.38055V7.39329V7.40608V7.41892V7.43182V7.44476V7.45775V7.4708V7.4839V7.49705V7.51026V7.52351V7.53682V7.55018V7.5636V7.57707V7.59059V7.60417V7.6178V7.63148V7.64523V7.65902V7.67287V7.68678V7.70074V7.71476V7.72883V7.74296V7.75714V7.77139V7.78569V7.80005V7.81446V7.82893V7.84346V7.85805V7.8727V7.8874V7.90217V7.91699V7.93188V7.94682V7.96182V7.97688V7.992V8.00719V8.02243V8.03773V8.0531V8.06853V8.08401V8.09957V8.11518V8.13085V8.14659V8.16239V8.17825V8.19418V8.21017V8.22622V8.24234V8.25852V8.27476V8.29107V8.30745V8.32389V8.34039V8.35697V8.3736V8.3903V8.40707V8.42391V8.44081V8.45778V8.47481V8.49192V8.50909V8.52633V8.54363V8.56101V8.57845V8.59596V8.61354V8.63119V8.64891V8.6667V8.68456V8.70249V8.72049V8.73856V8.7567V8.77491V8.79319V8.81155V8.82997V8.84847V8.86704V8.88568V8.9044V8.92319V8.94205V8.96098V8.97999V8.99907V9.01823C13.4375 9.43244 13.7733 9.76823 14.1875 9.76823C14.6017 9.76823 14.9375 9.43244 14.9375 9.01823V8.99907V8.97999V8.96098V8.94205V8.92319V8.9044V8.88568V8.86704V8.84847V8.82997V8.81155V8.79319V8.77491V8.7567V8.73856V8.72049V8.70249V8.68456V8.6667V8.64891V8.63119V8.61354V8.59596V8.57845V8.56101V8.54363V8.52633V8.50909V8.49192V8.47481V8.45778V8.44081V8.42391V8.40707V8.3903V8.3736V8.35697V8.34039V8.32389V8.30745V8.29107V8.27476V8.25852V8.24234V8.22622V8.21017V8.19418V8.17825V8.16239V8.14659V8.13085V8.11518V8.09957V8.08401V8.06853V8.0531V8.03773V8.02243V8.00719V7.992V7.97688V7.96182V7.94682V7.93188V7.91699V7.90217V7.8874V7.8727V7.85805V7.84346V7.82893V7.81446V7.80005V7.78569V7.77139V7.75714V7.74296V7.72883V7.71476V7.70074V7.68678V7.67287V7.65902V7.64523V7.63148V7.6178V7.60417V7.59059V7.57707V7.5636V7.55018V7.53682V7.52351V7.51026V7.49705V7.4839V7.4708V7.45775V7.44476V7.43182V7.41892V7.40608V7.39329V7.38055V7.36786V7.35522V7.34263V7.33009V7.3176V7.30516V7.29277V7.28042V7.26813V7.25588V7.24368V7.23153V7.21942V7.20737V7.19536V7.1834V7.17148V7.15961V7.14779V7.13601V7.12428V7.1126V7.10095V7.08936V7.07781V7.0663V7.05484V7.04342V7.03205V7.02072V7.00943V6.99819V6.98699V6.97583V6.96472V6.95365V6.94262V6.93163V6.92068V6.90977V6.89891V6.88809V6.8773V6.86656V6.85586V6.8452V6.83457V6.82399V6.81345V6.80294V6.79248V6.78205V6.77166V6.76131V6.751V6.74073V6.73049V6.72029V6.71013V6.7V6.68991V6.67986V6.66984V6.65986V6.64991V6.64V6.63013V6.62029V6.61048V6.60071V6.59098V6.58127V6.5716V6.56197V6.55237V6.5428V6.53326V6.52376V6.51429V6.50485V6.49544V6.48607V6.47673V6.46741V6.45813V6.44888V6.43966V6.43047V6.42132V6.41219V6.40309V6.39402V6.38498V6.37596V6.36698V6.35803V6.3491V6.3402V6.33133V6.32249V6.31367V6.30489V6.29612V6.28739V6.27868V6.27V6.26134V6.25271V6.24411V6.23553V6.22698V6.21845V6.20994V6.20146V6.19301V6.18457V6.17617V6.16778V6.15942V6.15108V6.14276V6.13447V6.1262V6.11795V6.10972V6.10152V6.09333V6.08517V6.07703V6.06891V6.06081V6.05273V6.04466V6.03662V6.0286V6.0206V6.01262V6.00465V5.99671V5.98878V5.98087V5.97298V5.96511V5.95725V5.94942V5.9416V5.93379V5.926V5.91823V5.91048V5.90274V5.89501V5.88731V5.87961V5.87193V5.86427V5.85662V5.84899V5.84137V5.83376V5.82617V5.81859V5.81102V5.80347V5.79593V5.7884V5.78088V5.77338V5.76589V5.75841V5.75094V5.74348V5.73603V5.72859V5.72117V5.71375V5.70634V5.69895V5.69156V5.68418V5.67681V5.66945V5.6621V5.65475V5.64742V5.64009V5.63277V5.62546V5.61815V5.61085V5.60356V5.59628V5.589V5.58172V5.57446V5.56719V5.55994V5.55269V5.54544V5.5382V5.53096V5.52373V5.5165V5.50927V5.50205V5.49483V5.48762V5.4804V5.47319V5.46598V5.45878V5.45157V5.44437V5.43717V5.42997V5.42277V5.41557V5.40838V5.40118V5.39398V5.38678V5.37959V5.37239V5.36519V5.35799V5.35078V5.34358V5.33638V5.32917V5.32196V5.31475V5.30753V5.30031V5.29309V5.28587V5.27864V5.27141V5.26417V5.25693V5.24969V5.24244V5.23519V5.22793V5.22066V5.21339V5.20611V5.19883V5.19154V5.18425V5.17694V5.16963V5.16232V5.15499V5.14766V5.14032V5.13297V5.12561V5.11825V5.11087V5.10349V5.0961V5.08869V5.08128V5.07386V5.06642V5.05898V5.05153V5.04406V5.03658V5.0291V5.0216V5.01409V5.00656V4.99903V4.99148V4.98392V4.97634V4.96875V4.96115V4.95354V4.94591V4.93827V4.93061V4.92294V4.91525V4.90755V4.89983V4.8921V4.88435V4.87658V4.8688V4.861V4.85319V4.84536V4.83751V4.82964V4.82176V4.81386V4.80594V4.798V4.79005V4.78207V4.77408V4.76606V4.75803V4.74998V4.74191V4.73381V4.7257V4.71757V4.70941V4.70124V4.69304V4.68482V4.67658V4.66832V4.66003V4.65173V4.6434V4.63504V4.62667V4.61827V4.60985V4.6014V4.59293V4.58443V4.57592V4.56737V4.5588V4.55021V4.54159V4.53294V4.52427V4.51557V4.50685V4.4981V4.48932V4.48052V4.47168V4.46283V4.45394V4.44502V4.43608V4.42711V4.41811V4.40908V4.40002V4.39093V4.38182V4.37267V4.36349V4.35428V4.34505V4.33578V4.32648V4.31715V4.30779V4.29839V4.28897V4.27951V4.27002V4.2605V4.25094V4.24135V4.23173V4.22207V4.21239V4.20266V4.19291V4.18311V4.17329V4.16343V4.15353V4.1436V4.13363V4.12363V4.11359V4.10352V4.09341V4.08326V4.07307V4.06285V4.05259V4.04229V4.03196V4.02158V4.01117V4.00072V3.99023V3.97971V3.96914V3.95853V3.94789V3.9372V3.92647V3.91571V3.9049V3.89405V3.88316V3.87223V3.86126V3.85025V3.83919V3.82809V3.81695V3.80577V3.79454V3.78328C14.9375 2.26548 13.7073 1.03125 12.1875 1.03125H3.8125C2.29372 1.03125 1.0625 2.26247 1.0625 3.78125V12.1875C1.0625 13.7063 2.29372 14.9375 3.8125 14.9375H3.82274H3.83298H3.84322H3.85346H3.8637H3.87395H3.8842H3.89445H3.9047H3.91495H3.9252H3.93546H3.94572H3.95598H3.96624H3.9765H3.98676H3.99703H4.0073H4.01757H4.02784H4.03811H4.04838H4.05866H4.06893H4.07921H4.08949H4.09977H4.11005H4.12034H4.13062H4.14091H4.1512H4.16149H4.17178H4.18207H4.19236H4.20266H4.21295H4.22325H4.23355H4.24385H4.25415H4.26445H4.27476H4.28506H4.29537H4.30568H4.31599H4.3263H4.33661H4.34692H4.35723H4.36755H4.37787H4.38818H4.3985H4.40882H4.41914H4.42946H4.43979H4.45011H4.46044H4.47076H4.48109H4.49142H4.50175H4.51208H4.52241H4.53274H4.54307H4.55341H4.56374H4.57408H4.58442H4.59475H4.60509H4.61543H4.62577H4.63612H4.64646H4.6568H4.66715H4.67749H4.68784H4.69818H4.70853H4.71888H4.72923H4.73958H4.74993H4.76028H4.77063H4.78098H4.79134H4.80169H4.81204H4.8224H4.83276H4.84311H4.85347H4.86383H4.87419H4.88455H4.89491H4.90527H4.91563H4.92599H4.93635H4.94671H4.95708H4.96744H4.9778H4.98817H4.99853H5.0089H5.01926H5.02963H5.04H5.05036H5.06073H5.0711H5.08147H5.09184H5.10221H5.11258H5.12295H5.13332H5.14369H5.15406H5.16443H5.1748H5.18517H5.19554H5.20592H5.21629H5.22666H5.23703H5.24741H5.25778H5.26815H5.27853H5.2889H5.29928H5.30965H5.32002H5.3304H5.34077H5.35115H5.36152H5.3719H5.38227H5.39264H5.40302H5.41339H5.42377H5.43414H5.44452H5.45489H5.46527H5.47564H5.48602H5.49639H5.50677H5.51714H5.52751H5.53789H5.54826H5.55864H5.56901H5.57938H5.58976H5.60013H5.6105H5.62088H5.63125H5.64162H5.65199H5.66236H5.67274H5.68311H5.69348H5.70385H5.71422H5.72459H5.73496H5.74533H5.7557H5.76607H5.77644H5.7868H5.79717H5.80754H5.8179H5.82827H5.83864H5.849H5.85937H5.86973H5.8801H5.89046H5.90082H5.91118H5.92155H5.93191H5.94227H5.95263H5.96299H5.97335H5.9837H5.99406H6.00442H6.01478H6.02513H6.03549H6.04584H6.05619H6.06655H6.0769H6.08725H6.0976H6.10795H6.1183H6.12865H6.139H6.14935H6.15969H6.17004H6.18038H6.19073H6.20107H6.21141H6.22175H6.23209H6.24243H6.25277H6.26311H6.27344H6.28378H6.29412H6.30445H6.31478H6.32511H6.33544H6.34577H6.3561H6.36643H6.37676H6.38708H6.39741H6.40773H6.41806H6.42838H6.4387H6.44902H6.45933H6.46965H6.47997H6.49028H6.50059H6.51091H6.52122H6.53153H6.54184H6.55214H6.56245H6.57275H6.58306H6.59336H6.60366H6.61396H6.62426H6.63456H6.64485H6.65515H6.66544H6.67573H6.68602H6.69631H6.7066H6.71688H6.72717H6.73745H6.74773H6.75801H6.76829H6.77857H6.78885H6.79912H6.80939H6.81966H6.82994H6.8402H6.85047H6.86073H6.871H6.88126H6.89152H6.90178H6.91204H6.92229H6.93254H6.9428H6.95305H6.9633H6.97354H6.98379H6.99403H7.00427H7.01451H7.02475H7.03499H7.04522H7.05546H7.06569H7.07592H7.08614H7.09637H7.10659H7.11681H7.12703H7.13725H7.14747H7.15768H7.1679H7.17811H7.18831H7.19852H7.20873H7.21893H7.22913H7.23933H7.24953H7.25972H7.26991H7.2801H7.29029H7.30048H7.31066H7.32084H7.33102H7.3412H7.35138H7.36155H7.37172H7.38189H7.39206H7.40223H7.41239H7.42255H7.43271H7.44286H7.45302H7.46317H7.47332H7.48347H7.49361H7.50376H7.5139H7.52403H7.53417H7.5443H7.55443H7.56456H7.57469H7.58481H7.59493H7.60505H7.61517H7.62528H7.6354H7.64551H7.65561H7.66572H7.67582H7.68592H7.69601H7.70611H7.7162H7.72629H7.73638H7.74646H7.75654H7.76662H7.7767H7.78677H7.79684H7.80691H7.81698H7.82704H7.8371H7.84716H7.85721H7.86727H7.87732H7.88736H7.89741H7.90745H7.91749H7.92752H7.93756H7.94759H7.95762H7.96764H7.97766H7.98768H7.9977H8.00771H8.01772H8.02773H8.03773H8.04774H8.05773H8.06773H8.07772H8.08771H8.0977H8.10768H8.11767H8.12764H8.13762H8.14759H8.15756H8.16753H8.17749H8.18745H8.1974H8.20736H8.21731H8.22726H8.2372H8.24714H8.25708H8.26701H8.27695H8.28687H8.2968H8.30672H8.31664H8.32656H8.33647H8.34638H8.35628H8.36619H8.37609H8.38598H8.39587H8.40576H8.41565H8.42553H8.43541H8.44529H8.45516H8.46503H8.4749H8.48476H8.49462H8.50447H8.51432H8.52417H8.53402H8.54386H8.5537H8.56353H8.57336H8.58319H8.59302H8.60284H8.61265H8.62247H8.63228H8.64208H8.65189H8.66168H8.67148H8.68127H8.69106H8.70084H8.71062H8.7204H8.73017H8.73994H8.74971H8.75947H8.76923H8.77899H8.78874H8.79848H8.80823H8.81797H8.8277H8.83743H8.84716H8.85689H8.86661H8.87632H8.88603H8.89574H8.90545H8.91515H8.92485H8.93454H8.94423H8.95391H8.96359H8.97327H8.98294H8.99261H9.00228H9.01194H9.0216H9.03125C9.44546 14.9375 9.78125 14.6017 9.78125 14.1875C9.78125 13.7733 9.44546 13.4375 9.03125 13.4375H9.0216H9.01194H9.00228H8.99261H8.98294H8.97327H8.96359H8.95391H8.94423H8.93454H8.92485H8.91515H8.90545H8.89574H8.88603H8.87632H8.86661H8.85689H8.84716H8.83743H8.8277H8.81797H8.80823H8.79848H8.78874H8.77899H8.76923H8.75947H8.74971H8.73994H8.73017H8.7204H8.71062H8.70084H8.69106H8.68127H8.67148H8.66168H8.65189H8.64208H8.63228H8.62247H8.61265H8.60284H8.59302H8.58319H8.57336H8.56353H8.5537H8.54386H8.53402H8.52417H8.51432H8.50447H8.49462H8.48476H8.4749H8.46503H8.45516H8.44529H8.43541H8.42553H8.41565H8.40576H8.39587H8.38598H8.37609H8.36619H8.35628H8.34638H8.33647H8.32656H8.31664H8.30672H8.2968H8.28687H8.27695H8.26701H8.25708H8.24714H8.2372H8.22726H8.21731H8.20736H8.1974H8.18745H8.17749H8.16753H8.15756H8.14759H8.13762H8.12764H8.11767H8.10768H8.0977H8.08771H8.07772H8.06773H8.05773H8.04774H8.03773H8.02773H8.01772H8.00771H7.9977H7.98768H7.97766H7.96764H7.95762H7.94759H7.93756H7.92752H7.91749H7.90745H7.89741H7.88736H7.87732H7.86727H7.85721H7.84716H7.8371H7.82704H7.81698H7.80691H7.79684H7.78677H7.7767H7.76662H7.75654H7.74646H7.73638H7.72629H7.7162H7.70611H7.69601H7.68592H7.67582H7.66572H7.65561H7.64551H7.6354H7.62528H7.61517H7.60505H7.59493H7.58481H7.57469H7.56456H7.55443H7.5443H7.53417H7.52403H7.5139H7.50376H7.49361H7.48347H7.47332H7.46317H7.45302H7.44286H7.43271H7.42255H7.41239H7.40223H7.39206H7.38189H7.37172H7.36155H7.35138H7.3412H7.33102H7.32084H7.31066H7.30048H7.29029H7.2801H7.26991H7.25972H7.24953H7.23933H7.22913H7.21893H7.20873H7.19852H7.18831H7.17811H7.1679H7.15768H7.14747H7.13725H7.12703H7.11681H7.10659H7.09637H7.08614H7.07592H7.06569H7.05546H7.04522H7.03499H7.02475H7.01451H7.00427H6.99403H6.98379H6.97354H6.9633H6.95305H6.9428H6.93254H6.92229H6.91204H6.90178H6.89152H6.88126H6.871H6.86073H6.85047H6.8402H6.82994H6.81966H6.80939H6.79912H6.78885H6.77857H6.76829H6.75801H6.74773H6.73745H6.72717H6.71688H6.7066H6.69631H6.68602H6.67573H6.66544H6.65515H6.64485H6.63456H6.62426H6.61396H6.60366H6.59336H6.58306H6.57275H6.56245H6.55214H6.54184H6.53153H6.52122H6.51091H6.50059H6.49028H6.47997H6.46965H6.45933H6.44902H6.4387H6.42838H6.41806H6.40773H6.39741H6.38708H6.37676H6.36643H6.3561H6.34577H6.33544H6.32511H6.31478H6.30445H6.29412H6.28378H6.27344H6.26311H6.25277H6.24243H6.23209H6.22175H6.21141H6.20107H6.19073H6.18038H6.17004H6.15969H6.14935H6.139H6.12865H6.1183H6.10795H6.0976H6.08725H6.0769H6.06655H6.05619H6.04584H6.03549H6.02513H6.01478H6.00442H5.99406H5.9837H5.97335H5.96299H5.95263H5.94227H5.93191H5.92155H5.91118H5.90082H5.89046H5.8801H5.86973H5.85937H5.849H5.83864H5.82827H5.8179H5.80754H5.79717H5.7868H5.77644H5.76607H5.7557H5.74533H5.73496H5.72459H5.71422H5.70385H5.69348H5.68311H5.67274H5.66236H5.65199H5.64162H5.63125H5.62088H5.6105H5.60013H5.58976H5.57938H5.56901H5.55864H5.54826H5.53789H5.52751H5.51714H5.50677H5.49639H5.48602H5.47564H5.46527H5.45489H5.44452H5.43414H5.42377H5.41339H5.40302H5.39264H5.38227H5.3719H5.36152H5.35115H5.34077H5.3304H5.32002H5.30965H5.29928H5.2889H5.27853H5.26815H5.25778H5.24741H5.23703H5.22666H5.21629H5.20592H5.19554H5.18517H5.1748H5.16443H5.15406H5.14369H5.13332H5.12295H5.11258H5.10221H5.09184H5.08147H5.0711H5.06073H5.05036H5.04H5.02963H5.01926H5.0089H4.99853H4.98817H4.9778H4.96744H4.95708H4.94671H4.93635H4.92599H4.91563H4.90527H4.89491H4.88455H4.87419H4.86383H4.85347H4.84311H4.83276H4.8224H4.81204H4.80169H4.79134H4.78098H4.77063H4.76028H4.74993H4.73958H4.72923H4.71888H4.70853H4.69818H4.68784H4.67749H4.66715H4.6568H4.64646H4.63612H4.62577H4.61543H4.60509H4.59475H4.58442H4.57408H4.56374H4.55341H4.54307H4.53274H4.52241H4.51208H4.50175H4.49142H4.48109H4.47076H4.46044H4.45011H4.43979H4.42946H4.41914H4.40882H4.3985H4.38818H4.37787H4.36755H4.35723H4.34692H4.33661H4.3263H4.31599H4.30568H4.29537H4.28506H4.27476H4.26445H4.25415H4.24385H4.23355H4.22325H4.21295H4.20266H4.19236H4.18207H4.17178H4.16149H4.1512H4.14091H4.13062H4.12034H4.11005H4.09977H4.08949H4.07921H4.06893H4.05866H4.04838H4.03811H4.02784H4.01757H4.0073H3.99703H3.98676H3.9765H3.96624H3.95598H3.94572H3.93546H3.9252H3.91495H3.9047H3.89445H3.8842H3.87395H3.8637H3.85346H3.84322H3.83298H3.82274H3.8125C3.12214 13.4375 2.5625 12.8779 2.5625 12.1875V3.78125ZM4.77606 8.58337C4.36185 8.58337 4.02606 8.91916 4.02606 9.33337C4.02606 9.74759 4.36185 10.0834 4.77606 10.0834H8.04428C8.45849 10.0834 8.79428 9.74759 8.79428 9.33337C8.79428 8.91916 8.45849 8.58337 8.04428 8.58337H4.77606ZM4.02606 6.66663C4.02606 6.25241 4.36185 5.91663 4.77606 5.91663H11.3125C11.7267 5.91663 12.0625 6.25241 12.0625 6.66663C12.0625 7.08084 11.7267 7.41663 11.3125 7.41663H4.77606C4.36185 7.41663 4.02606 7.08084 4.02606 6.66663ZM13.4167 10.6667C13.4167 10.2525 13.0809 9.91675 12.6667 9.91675C12.2525 9.91675 11.9167 10.2525 11.9167 10.6667V11.9167H10.6667C10.2525 11.9167 9.91668 12.2525 9.91668 12.6667C9.91668 13.081 10.2525 13.4167 10.6667 13.4167H11.9167V14.6667C11.9167 15.081 12.2525 15.4167 12.6667 15.4167C13.0809 15.4167 13.4167 15.081 13.4167 14.6667V13.4167H14.6667C15.0809 13.4167 15.4167 13.081 15.4167 12.6667C15.4167 12.2525 15.0809 11.9167 14.6667 11.9167H13.4167V10.6667Z"
    fill="currentColor"
  />
</svg>
