<svg width="20" height="20" viewBox="0 0 20 20" fill="none" xmlns="http://www.w3.org/2000/svg" data-fui-icon="true">
  <path
    d="M9.96973 12.9697C10.2626 12.6768 10.7374 12.6768 11.0303 12.9697C11.3232 13.2626 11.3232 13.7374 11.0303 14.0303L5.28027 19.7803C4.98738 20.0732 4.51262 20.0732 4.21973 19.7803L1.71973 17.2803C1.42683 16.9874 1.42683 16.5126 1.71973 16.2197C2.01262 15.9268 2.48738 15.9268 2.78027 16.2197L4.75 18.1895L9.96973 12.9697ZM6.21582 0.000976562C8.40911 0.019469 10.1816 1.80235 10.1816 4V4.44824C10.1817 6.51909 11.8608 8.19802 13.9316 8.19824H14.5C16.709 8.19837 18.5 9.98919 18.5 12.1982V14.2754H18.5029V15.25C18.5028 17.8731 16.376 19.9998 13.7529 20H7.18164L12.0908 15.0908C12.9695 14.2121 12.9695 12.7879 12.0908 11.9092C11.2121 11.0305 9.78786 11.0305 8.90918 11.9092L4.75 16.0684L3.84082 15.1592C3.20752 14.5259 2.2916 14.3513 1.5 14.6309V4.75C1.5 2.1382 3.6084 0.0195908 6.21582 0.000976562ZM9.95801 0.00292969C10.2973 0.0115822 10.6342 0.0648306 10.959 0.164062L11.085 0.202148C14.5543 1.26253 17.255 4.00147 18.2666 7.48535L18.3535 7.78613C18.4118 7.98682 18.4503 8.19224 18.4746 8.39941C17.4733 7.35197 16.0635 6.69831 14.5 6.69824H13.9316C12.6892 6.69802 11.6817 5.69066 11.6816 4.44824V4C11.6816 2.42513 11.0188 1.00558 9.95801 0.00292969Z"
    fill="currentColor"
  />
</svg>
