<svg width="16" height="16" viewBox="0 0 16 16" fill="none" xmlns="http://www.w3.org/2000/svg" data-fui-icon="true">
  <path
    d="M8.0321 0.000244137C8.22602 0.000244137 8.42007 0.0198557 8.61022 0.0578604C11.8056 0.696962 14.3031 3.19439 14.9422 6.3898C14.9802 6.57999 14.9998 6.77395 14.9998 6.96791V8.46594C14.9999 8.47719 15.0007 8.48883 15.0007 8.50011V9.00011H14.9998V12.2501C14.9996 14.3209 13.3207 16 11.2498 16H9.74985C9.33597 15.9997 9.00005 15.6639 8.99986 15.25C8.99986 14.836 9.33586 14.5003 9.74985 14.5H11.2498C12.4923 14.5 13.4996 13.4925 13.4998 12.2501V8.48156C13.49 7.52362 12.711 6.7504 11.7508 6.75014H10.7508C9.23218 6.75014 8.00105 5.51877 8.00085 4.00018V3.25019C8.00085 2.34421 7.31189 1.59876 6.42959 1.50901L6.25088 1.50022H4.74993C3.50752 1.50047 2.49996 2.50772 2.49996 3.75019V7.25013C2.49977 7.66418 2.16406 8.00012 1.74997 8.00012C1.33609 7.99987 1.00017 7.66403 0.999985 7.25013V3.75019C0.999985 1.67931 2.6791 0.000495015 4.74993 0.000244137H8.0321ZM4.57903 8.79991C4.99301 8.80018 5.32902 9.13586 5.32902 9.5499V11.628H7.40809C7.82178 11.6285 8.1579 11.9642 8.15808 12.378C8.15801 12.7918 7.82185 13.1275 7.40809 13.128H5.32902V15.207C5.32876 15.6209 4.99285 15.9568 4.57903 15.957C4.16513 15.9569 3.82931 15.6209 3.82904 15.207V13.128H1.75095C1.33678 13.128 1.00103 12.7921 1.00096 12.378C1.00114 11.9639 1.33685 11.628 1.75095 11.628H3.82904V9.5499C3.82904 9.1358 4.16496 8.80008 4.57903 8.79991ZM9.1317 1.74729C9.36658 2.19678 9.50083 2.70791 9.50083 3.25019V4.00018C9.50103 4.69036 10.0606 5.25016 10.7508 5.25016H11.7508C12.2481 5.25024 12.7191 5.36197 13.1404 5.56168C12.4335 3.76817 10.9682 2.36742 9.1317 1.74729Z"
    fill="currentColor"
  />
</svg>
