<svg width="24" height="24" viewBox="0 0 24 24" fill="none" xmlns="http://www.w3.org/2000/svg" data-fui-icon="true">
  <path
    d="M5.75781 11.5C6.17177 11.5003 6.50781 11.836 6.50781 12.25V12.708C8.46326 12.9712 9.30622 14.247 9.48242 15.0703C9.5687 15.4749 9.31062 15.8739 8.90625 15.9609C8.50137 16.0476 8.1025 15.7886 8.01562 15.3838C7.97093 15.1759 7.65593 14.4544 6.50781 14.2285V17.1504C7.0719 17.2647 7.67381 17.4209 8.17383 17.6943C8.53626 17.8927 8.87936 18.1691 9.12695 18.5625C9.37651 18.9594 9.49902 19.4273 9.49902 19.9551C9.49857 21.2487 8.40829 22.5569 6.50781 22.832V23.25C6.50781 23.664 6.17177 23.9997 5.75781 24C5.3436 24 5.00781 23.6642 5.00781 23.25V22.834C4.15998 22.7148 3.51558 22.397 3.03906 21.9893C2.44443 21.4801 2.16295 20.8782 2.03809 20.498C1.90914 20.1047 2.12341 19.6811 2.5166 19.5518C2.90998 19.423 3.33472 19.6369 3.46387 20.0303C3.53094 20.2343 3.68726 20.5693 4.01465 20.8496C4.2293 21.0332 4.54375 21.2129 5.00781 21.3105V18.3936C4.44375 18.2793 3.84195 18.1249 3.3418 17.8516C2.97929 17.6533 2.6364 17.3768 2.38867 16.9834C2.13882 16.5864 2.01666 16.1188 2.0166 15.5908C2.0167 14.2966 3.10741 12.9871 5.00781 12.7119V12.25C5.00781 11.8358 5.3436 11.5 5.75781 11.5ZM7.75 0C10.3732 0.00019787 12.5 2.12677 12.5 4.75V5.25C12.5001 7.59703 14.403 9.4998 16.75 9.5H17.25C19.8732 9.5002 22 11.6268 22 14.25V18.3232C21.9608 21.4651 19.4031 23.9999 16.252 24H7.94043C9.7755 23.3133 10.9977 21.7759 10.998 19.9551C10.998 19.189 10.8178 18.435 10.3955 17.7637C10.2499 17.5323 10.0852 17.3288 9.91211 17.1494C10.6461 16.7049 11.0821 15.8664 10.9854 14.9844L10.9482 14.7568L10.8691 14.4531C10.5225 13.3262 9.55622 12.0809 7.87402 11.4971C7.56395 10.6254 6.73491 10 5.75684 10C4.76962 10.0002 3.93278 10.6369 3.62988 11.5215C3.01009 11.746 2.46033 12.0694 2 12.4658V5.75C2.00018 2.57452 4.57448 0 7.75 0ZM6.50781 21.3115C7.64369 21.0756 7.9985 20.3214 7.99902 19.9551C7.99902 19.6657 7.93446 19.4841 7.85742 19.3613C7.77811 19.2353 7.65186 19.119 7.4541 19.0107C7.20061 18.8721 6.88359 18.7752 6.50781 18.6885V21.3115ZM5.00781 14.2334C3.87078 14.4696 3.51672 15.2252 3.5166 15.5908C3.51666 15.8806 3.58098 16.0619 3.6582 16.1846C3.73764 16.3105 3.86368 16.4269 4.06152 16.5352C4.31513 16.6737 4.63191 16.7697 5.00781 16.8564V14.2334ZM11.834 0.0214844C12.6222 0.0748721 13.4007 0.233267 14.1475 0.496094L14.5547 0.639648C17.733 1.75853 20.2027 4.30354 21.2266 7.51367L21.5879 8.64648C21.7384 9.11852 21.8464 9.60234 21.915 10.0918C20.7704 8.80869 19.1047 8.00011 17.25 8H16.75C15.2314 7.9998 14.0001 6.7686 14 5.25V4.75C14 2.85998 13.1599 1.16755 11.834 0.0214844Z"
    fill="currentColor"
  />
</svg>
