<svg width="24" height="24" viewBox="0 0 24 24" fill="none" xmlns="http://www.w3.org/2000/svg" data-fui-icon="true">
  <path
    d="M7.75 0C10.3732 0.00019787 12.5 2.12677 12.5 4.75V5.25C12.5001 7.59703 14.403 9.4998 16.75 9.5H17.25C19.8732 9.5002 22 11.6268 22 14.25V18.3232C21.9608 21.4651 19.4031 23.9999 16.252 24H8.03223L13.8408 18.1914C14.7194 17.3128 14.7193 15.8885 13.8408 15.0098C12.9621 14.1311 11.5379 14.1311 10.6592 15.0098L5.62012 20.0488L4.34082 18.7695C3.70758 18.1363 2.79156 17.9608 2 18.2402V5.75C2.00018 2.57452 4.57448 0 7.75 0ZM11.7197 16.0703C12.0126 15.7774 12.4874 15.7774 12.7803 16.0703C13.0729 16.3632 13.0731 16.838 12.7803 17.1309L6.15039 23.7607C6.00979 23.9012 5.81887 23.9804 5.62012 23.9805C5.42132 23.9805 5.23047 23.9012 5.08984 23.7607L2.21973 20.8906C1.92697 20.5978 1.92709 20.123 2.21973 19.8301C2.51261 19.5373 2.9874 19.5373 3.28027 19.8301L5.62012 22.1699L11.7197 16.0703ZM11.834 0.0214844C12.6222 0.0748721 13.4007 0.233267 14.1475 0.496094L14.5547 0.639648C17.733 1.75853 20.2027 4.30354 21.2266 7.51367L21.5879 8.64648C21.7384 9.11852 21.8464 9.60234 21.915 10.0918C20.7704 8.80869 19.1047 8.00011 17.25 8H16.75C15.2314 7.9998 14.0001 6.7686 14 5.25V4.75C14 2.85998 13.1599 1.16755 11.834 0.0214844Z"
    fill="currentColor"
  />
</svg>
