<svg
  width="20"
  height="20"
  viewBox="0 0 20 20"
  fill="none"
  xmlns="http://www.w3.org/2000/svg"
  data-fui-icon="true"
>
  <path
    d="M11.1132 2.77983L11.6435 2.2495L11.6435 2.24949L11.1132 2.77983ZM15.5535 7.22018L15.0232 7.75051L15.0232 7.75052L15.5535 7.22018ZM6.86718 13.3125C6.45296 13.3125 6.11718 13.6483 6.11718 14.0625C6.11718 14.4767 6.45296 14.8125 6.86718 14.8125V13.3125ZM13.1328 14.8125C13.547 14.8125 13.8828 14.4767 13.8828 14.0625C13.8828 13.6483 13.547 13.3125 13.1328 13.3125V14.8125ZM6.86718 9.88803C6.45296 9.88803 6.11718 10.2238 6.11718 10.638C6.11718 11.0522 6.45296 11.388 6.86718 11.388V9.88803ZM10.5781 11.388C10.9923 11.388 11.3281 11.0522 11.3281 10.638C11.3281 10.2238 10.9923 9.88803 10.5781 9.88803V11.388ZM9.87501 2.70834V6.04167H11.375V2.70834H9.87501ZM9.87501 6.04167C9.87501 7.37635 10.957 8.45834 12.2917 8.45834V6.95834C11.7854 6.95834 11.375 6.54794 11.375 6.04167H9.87501ZM12.2917 8.45834H15.625V6.95834H12.2917V8.45834ZM5.62501 3.04167H9.93468V1.54167H5.62501V3.04167ZM9.93468 3.04167C10.1778 3.04167 10.4109 3.13824 10.5829 3.31017L11.6435 2.24949C11.1903 1.79629 10.5756 1.54167 9.93468 1.54167V3.04167ZM10.5828 3.31016L15.0232 7.75051L16.0838 6.68985L11.6435 2.2495L10.5828 3.31016ZM15.0232 7.75052C15.1951 7.92243 15.2917 8.15557 15.2917 8.39867H16.7917C16.7917 7.75775 16.5371 7.14306 16.0838 6.68984L15.0232 7.75052ZM15.2917 8.39867V16.0417H16.7917V8.39867H15.2917ZM15.2917 16.0417C15.2917 16.548 14.8813 16.9583 14.375 16.9583V18.4583C15.7097 18.4583 16.7917 17.3764 16.7917 16.0417H15.2917ZM14.375 16.9583H5.62501V18.4583H14.375V16.9583ZM5.62501 16.9583C5.11874 16.9583 4.70834 16.548 4.70834 16.0417H3.20834C3.20834 17.3764 4.29033 18.4583 5.62501 18.4583V16.9583ZM4.70834 16.0417V3.95834H3.20834V16.0417H4.70834ZM4.70834 3.95834C4.70834 3.45208 5.11875 3.04167 5.62501 3.04167V1.54167C4.29032 1.54167 3.20834 2.62365 3.20834 3.95834H4.70834ZM6.86718 14.8125H13.1328V13.3125H6.86718V14.8125ZM6.86718 11.388H10.5781V9.88803H6.86718V11.388Z"
    fill="currentColor"
  />
</svg>
