<svg width="16" height="16" viewBox="0 0 16 16" fill="none" xmlns="http://www.w3.org/2000/svg" data-fui-icon="true">
  <g clip-path="url(#clip0_882_838)">
    <path
      d="M8.03223 0.000244141C8.22614 0.000244141 8.4202 0.019856 8.61035 0.0578613C11.8058 0.696973 14.3033 3.19444 14.9424 6.38989C14.9804 6.58009 15 6.77406 15 6.96802V8.46606C15.0001 8.47732 15.001 8.48896 15.001 8.50024V9.00024H15V12.2502C14.9998 14.3212 13.321 16.0002 11.25 16.0002H4.75C2.67926 16 1.00019 14.321 1 12.2502V3.75024C1 1.67933 2.67915 0.000495022 4.75 0.000244141H8.03223ZM4.75 1.50024C3.50757 1.5005 2.5 2.50776 2.5 3.75024V12.2502C2.50019 13.4926 3.50769 14.5 4.75 14.5002H11.25C12.4925 14.5002 13.4998 13.4927 13.5 12.2502V8.48169C13.4902 7.52373 12.7112 6.75051 11.751 6.75024H10.751C9.23232 6.75024 8.00117 5.51886 8.00098 4.00024V3.25024C8.00098 2.34425 7.312 1.59878 6.42969 1.50903L6.25098 1.50024H4.75ZM9.13184 1.74731C9.36672 2.19681 9.50098 2.70795 9.50098 3.25024V4.00024C9.50117 4.69043 10.0607 5.25024 10.751 5.25024H11.751C12.2482 5.25032 12.7193 5.36205 13.1406 5.56177C12.4337 3.76823 10.9684 2.36745 9.13184 1.74731Z"
      fill="currentColor"
    />
  </g>
  <defs>
    <clipPath id="clip0_882_838"><path fill="currentColor" d="M0 0H16V16H0z" /></clipPath>
  </defs>
</svg>
