<svg width="16" height="16" viewBox="0 0 16 16" fill="none" xmlns="http://www.w3.org/2000/svg" data-fui-icon="true">
  <path
    d="M8.0321 0.000244137C8.22602 0.000244137 8.42007 0.0198557 8.61022 0.0578604C11.8056 0.696962 14.3031 3.19439 14.9422 6.3898C14.9802 6.57999 14.9998 6.77395 14.9998 6.96791V8.46594C14.9999 8.47719 15.0007 8.48883 15.0007 8.50011V9.00011H14.9998V12.2501C14.9996 14.3209 13.3207 16 11.2498 16H4.74993C2.67922 15.9997 1.00017 14.3208 0.999985 12.2501V3.75019C0.999985 1.67931 2.6791 0.000495015 4.74993 0.000244137H8.0321ZM4.74993 1.50022C3.50752 1.50047 2.49996 2.50772 2.49996 3.75019V12.2501C2.50015 13.4924 3.50763 14.4998 4.74993 14.5H11.2498C12.4923 14.5 13.4996 13.4925 13.4998 12.2501V8.48156C13.49 7.52362 12.711 6.7504 11.7508 6.75014H10.7508C9.23218 6.75014 8.00105 5.51877 8.00085 4.00018V3.25019C8.00085 2.34421 7.31189 1.59876 6.42959 1.50901L6.25088 1.50022H4.74993ZM10.7508 11.0001C11.1648 11.0003 11.5008 11.336 11.5008 11.7501C11.5006 12.1639 11.1647 12.4998 10.7508 12.5001H5.2509C4.83681 12.5001 4.50111 12.1641 4.50091 11.7501C4.50091 11.3359 4.83669 11.0001 5.2509 11.0001H10.7508ZM7.75086 8.00012C8.16484 8.00039 8.50085 8.33607 8.50085 8.75011C8.50065 9.16399 8.16472 9.49984 7.75086 9.5001H5.2509C4.83681 9.5001 4.50111 9.16415 4.50091 8.75011C4.50091 8.3359 4.83669 8.00012 5.2509 8.00012H7.75086ZM9.1317 1.74729C9.36658 2.19678 9.50083 2.70791 9.50083 3.25019V4.00018C9.50103 4.69036 10.0606 5.25016 10.7508 5.25016H11.7508C12.2481 5.25024 12.7191 5.36197 13.1404 5.56168C12.4335 3.76817 10.9682 2.36742 9.1317 1.74729Z"
    fill="currentColor"
  />
</svg>
