<svg
  width="12"
  height="12"
  viewBox="0 0 12 12"
  fill="none"
  xmlns="http://www.w3.org/2000/svg"
  data-fui-icon="true"
>
  <path
    d="M6.6679 1.66789L7.19823 1.13757L7.19822 1.13755L6.6679 1.66789ZM9.3321 4.33211L8.80177 4.86243L8.80178 4.86245L9.3321 4.33211ZM4.6875 7.6875C4.27329 7.6875 3.9375 8.02329 3.9375 8.4375C3.9375 8.85171 4.27329 9.1875 4.6875 9.1875V7.6875ZM7.3125 9.1875C7.72671 9.1875 8.0625 8.85171 8.0625 8.4375C8.0625 8.02329 7.72671 7.6875 7.3125 7.6875V9.1875ZM4.6875 5.63281C4.27329 5.63281 3.9375 5.9686 3.9375 6.38281C3.9375 6.79703 4.27329 7.13281 4.6875 7.13281V5.63281ZM6.07292 7.13281C6.48713 7.13281 6.82292 6.79703 6.82292 6.38281C6.82292 5.9686 6.48713 5.63281 6.07292 5.63281V7.13281ZM5.625 1.625V3.625H7.125V1.625H5.625ZM5.625 3.625C5.625 4.59149 6.40848 5.375 7.375 5.375V3.875C7.23692 3.875 7.125 3.76308 7.125 3.625H5.625ZM7.375 5.375H9.375V3.875H7.375V5.375ZM3.375 2.125H5.9608V0.625H3.375V2.125ZM5.9608 2.125C6.02708 2.125 6.09067 2.15133 6.13758 2.19824L7.19822 1.13755C6.87003 0.80938 6.42492 0.625 5.9608 0.625V2.125ZM6.13757 2.19822L8.80177 4.86243L9.86243 3.80178L7.19823 1.13757L6.13757 2.19822ZM8.80178 4.86245C8.84867 4.90933 8.875 4.97291 8.875 5.0392H10.375C10.375 4.57508 10.1906 4.12996 9.86242 3.80176L8.80178 4.86245ZM8.875 5.0392V9.625H10.375V5.0392H8.875ZM8.875 9.625C8.875 9.76309 8.76309 9.875 8.625 9.875V11.375C9.59151 11.375 10.375 10.5915 10.375 9.625H8.875ZM8.625 9.875H3.375V11.375H8.625V9.875ZM3.375 9.875C3.23692 9.875 3.125 9.76308 3.125 9.625H1.625C1.625 10.5915 2.40851 11.375 3.375 11.375V9.875ZM3.125 9.625V2.375H1.625V9.625H3.125ZM3.125 2.375C3.125 2.23693 3.23693 2.125 3.375 2.125V0.625C2.4085 0.625 1.625 1.4085 1.625 2.375H3.125ZM4.6875 9.1875H7.3125V7.6875H4.6875V9.1875ZM4.6875 7.13281H6.07292V5.63281H4.6875V7.13281Z"
    fill="currentColor"
  />
</svg>
