<svg width="32" height="32" viewBox="0 0 32 32" fill="none" xmlns="http://www.w3.org/2000/svg" data-fui-icon="true">
  <path
    d="M11.5869 1C14.7622 1.00045 17.3369 3.57464 17.3369 6.75V7.38281C17.337 10.2822 19.6875 12.6328 22.5869 12.6328H23.25C26.4006 12.6331 28.9593 15.1673 28.999 18.3086V24.252C28.9988 27.9796 25.9767 31.0018 22.249 31.002H15.1328C15.4036 30.1416 15.1995 29.1644 14.5176 28.4824L11.7852 25.75L14.5176 23.0176C15.4939 22.0413 15.4939 20.4587 14.5176 19.4824C13.5413 18.5061 11.9587 18.5061 10.9824 19.4824L8.25 22.2148L5.51758 19.4824C4.83616 18.801 3.85982 18.5964 3 18.8662V7.74805C3.00017 4.04609 5.98067 1.04146 9.67285 1H11.5869ZM12.2197 20.7197C12.5126 20.4268 12.9874 20.4268 13.2803 20.7197C13.5732 21.0126 13.5732 21.4874 13.2803 21.7803L9.31055 25.75L13.2803 29.7197C13.5732 30.0126 13.5732 30.4874 13.2803 30.7803C12.9874 31.0732 12.5126 31.0732 12.2197 30.7803L8.25 26.8105L4.28027 30.7803C3.98738 31.0732 3.51262 31.0732 3.21973 30.7803C2.92683 30.4874 2.92683 30.0126 3.21973 29.7197L7.18945 25.75L3.21973 21.7803C2.92683 21.4874 2.92683 21.0126 3.21973 20.7197C3.51262 20.4268 3.98738 20.4268 4.28027 20.7197L8.25 24.6895L12.2197 20.7197ZM16.0137 1.01074C17.0973 1.06649 18.1647 1.30975 19.167 1.73145C23.2668 3.45657 26.4813 6.78595 28.0625 10.9434L28.3242 11.6318C28.5948 12.3434 28.7845 13.0814 28.8926 13.832C27.5634 12.1864 25.53 11.133 23.25 11.1328H22.5869C20.5159 11.1328 18.837 9.45377 18.8369 7.38281V6.75C18.8369 4.41353 17.73 2.33662 16.0137 1.01074Z"
    fill="currentColor"
  />
</svg>
