<svg width="32" height="32" viewBox="0 0 32 32" fill="none" xmlns="http://www.w3.org/2000/svg" data-fui-icon="true">
  <path
    d="M11.5869 1C14.7622 1.00045 17.3369 3.57464 17.3369 6.75V7.38281C17.337 10.2822 19.6875 12.6328 22.5869 12.6328H23.25C26.4006 12.6331 28.9593 15.1673 28.999 18.3086V24.252C28.9988 27.9796 25.9767 31.0018 22.249 31.002H10.3838L18.0176 23.3682C18.9938 22.3919 18.9936 20.8093 18.0176 19.833C17.0413 18.8567 15.4587 18.8567 14.4824 19.833L7.62012 26.6953L5.51758 24.5928C4.83621 23.9115 3.85978 23.7059 3 23.9756V7.74805C3.00017 4.04609 5.98067 1.04146 9.67285 1H11.5869ZM15.7197 21.0703C16.0126 20.7774 16.4874 20.7774 16.7803 21.0703C17.0729 21.3632 17.0731 21.838 16.7803 22.1309L8.15039 30.7607C8.00979 30.9012 7.81887 30.9804 7.62012 30.9805C7.42132 30.9805 7.23047 30.9012 7.08984 30.7607L3.21973 26.8906C2.92697 26.5978 2.92709 26.123 3.21973 25.8301C3.51261 25.5373 3.9874 25.5373 4.28027 25.8301L7.62012 29.1699L15.7197 21.0703ZM16.0137 1.01074C17.0973 1.06649 18.1647 1.30975 19.167 1.73145C23.2668 3.45657 26.4813 6.78595 28.0625 10.9434L28.3242 11.6318C28.5948 12.3434 28.7845 13.0814 28.8926 13.832C27.5634 12.1864 25.53 11.133 23.25 11.1328H22.5869C20.5159 11.1328 18.837 9.45377 18.8369 7.38281V6.75C18.8369 4.41353 17.73 2.33662 16.0137 1.01074Z"
    fill="currentColor"
  />
</svg>
