<svg width="32" height="32" viewBox="0 0 32 32" fill="none" xmlns="http://www.w3.org/2000/svg" data-fui-icon="true">
  <path
    fill-rule="evenodd"
    clip-rule="evenodd"
    d="M16.0229 1C16.5752 1 17.0229 1.44772 17.0229 2V3.28516C22.4584 3.65632 24.5761 7.03324 24.9799 8.93848C25.0944 9.4786 24.7485 10.0094 24.2085 10.124C23.6684 10.2383 23.1376 9.8935 23.0229 9.35352C22.7998 8.30091 21.426 5.64254 17.0229 5.29004V15.1709C18.7416 15.4953 20.555 15.8922 21.9917 16.6855C22.8497 17.1595 23.6171 17.7949 24.1645 18.6729C24.7143 19.5551 25.0014 20.6167 25.0014 21.875C25.0014 24.9069 22.2649 28.3247 17.0229 28.7119V30C17.0229 30.5523 16.5752 31 16.0229 31C15.4706 31 15.0229 30.5523 15.0229 30V28.7129C12.4909 28.5318 10.6829 27.6697 9.41744 26.5762C8.00959 25.3595 7.34386 23.9213 7.05025 23.0186C6.87949 22.4934 7.1668 21.9287 7.69186 21.7578C8.2169 21.5873 8.78176 21.8745 8.9526 22.3994C9.1706 23.0698 9.67263 24.1522 10.726 25.0625C11.6226 25.8372 12.9733 26.5339 15.0229 26.707V16.8281C13.3038 16.5037 11.4903 16.108 10.0532 15.3145C9.1949 14.8405 8.42785 14.2053 7.88033 13.3271C7.33032 12.4448 7.04244 11.3835 7.04244 10.125C7.04244 7.09292 9.78284 3.67528 15.0229 3.28711V2C15.0229 1.44772 15.4706 1 16.0229 1ZM17.0229 26.707C21.3234 26.3404 23.0014 23.6225 23.0014 21.875C23.0014 20.9306 22.7898 20.248 22.4672 19.7305C22.1421 19.2089 21.6624 18.7877 21.0249 18.4355C19.9621 17.8487 18.5822 17.513 17.0229 17.208V26.707ZM15.0229 5.29297C10.723 5.6606 9.04244 8.37862 9.04244 10.125C9.04244 11.0695 9.25494 11.752 9.5776 12.2695C9.9028 12.791 10.3824 13.2123 11.02 13.5645C12.083 14.1513 13.4632 14.486 15.0229 14.791V5.29297Z"
    fill="currentColor"
  />
</svg>
