<svg width="16" height="16" viewBox="0 0 16 16" fill="none" xmlns="http://www.w3.org/2000/svg" data-fui-icon="true">
  <path
    fill-rule="evenodd"
    clip-rule="evenodd"
    d="M8 1C11.866 1 15 4.13401 15 8C15 11.866 11.866 15 8 15C4.13401 15 1 11.866 1 8C1 4.13401 4.13401 1 8 1ZM8 3C5.23858 3 3 5.23858 3 8C3 10.7614 5.23858 13 8 13L8.00293 12.999C7.45161 12.9979 7.00495 12.5516 7.00488 12V11.5996C6.8991 11.5723 6.79273 11.5431 6.68848 11.5088C6.24381 11.3626 5.70071 11.1147 5.29297 10.707C4.90269 10.3166 4.90272 9.68345 5.29297 9.29297C5.68345 8.90273 6.31657 8.90269 6.70703 9.29297C6.79931 9.38515 7.00719 9.50865 7.31348 9.60938C7.6112 9.70722 7.88046 9.74411 8.00488 9.74414C8.53434 9.74413 8.81375 9.62052 8.93066 9.53809C8.96846 9.51136 8.98749 9.48992 8.99707 9.47754C8.99566 9.43492 8.99287 9.40819 8.98926 9.39453C8.98538 9.3802 8.98152 9.37376 8.98047 9.37207C8.97757 9.36761 8.95666 9.33832 8.87891 9.29395C8.66733 9.17342 8.33838 9.09316 7.79297 8.97754C7.33905 8.88132 6.6673 8.74962 6.12891 8.44238C5.83755 8.27604 5.54229 8.03735 5.32422 7.68945C5.10258 7.33568 5.00006 6.93112 5 6.5C5.0002 5.47577 5.77922 4.49693 7.00391 4.14453V4C7.00397 3.4486 7.45086 3.00135 8.00195 3H8ZM8.00879 3C8.55882 3.0026 9.00384 3.44938 9.00391 4V4.09473C9.64613 4.2365 10.4194 4.60274 10.8945 5.55273C11.1413 6.0466 10.941 6.64753 10.4473 6.89453C9.95341 7.14133 9.35251 6.94098 9.10547 6.44727C8.9925 6.22151 8.84913 6.13088 8.68652 6.07715C8.4846 6.01049 8.26325 6.00488 8.00488 6.00488C7.09918 6.00494 7.00067 6.53306 7 6.5C7.00003 6.55609 7.00652 6.5896 7.01074 6.60547C7.01447 6.61928 7.01831 6.62506 7.01953 6.62695C7.02061 6.6287 7.03901 6.65821 7.12109 6.70508C7.33263 6.8257 7.66143 6.90583 8.20703 7.02148C8.66092 7.1177 9.3327 7.25042 9.87109 7.55762C10.1624 7.72392 10.4577 7.96279 10.6758 8.31055C10.8974 8.66428 10.9999 9.06895 11 9.5C10.9998 10.6422 10.1248 11.3643 9.00488 11.6289V12C9.00482 12.5501 8.5601 12.9956 8.01074 12.999C10.7672 12.9932 13 10.7578 13 8C13 5.24151 10.7662 3.00474 8.00879 3Z"
    fill="currentColor"
  />
</svg>
