<svg width="12" height="12" viewBox="0 0 12 12" fill="none" xmlns="http://www.w3.org/2000/svg" data-fui-icon="true">
  <path
    d="M9.25 1C10.7688 1 12 2.23122 12 3.75V8.25C12 9.76878 10.7688 11 9.25 11H2.75C1.23122 11 0 9.76878 0 8.25V3.75C0 2.23122 1.23122 1 2.75 1H9.25ZM5.99609 2.25C5.58197 2.25215 5.24795 2.58976 5.25 3.00391V3.10645C4.31718 3.38313 3.75014 4.15778 3.75 4.92188C3.75 5.2443 3.82844 5.54566 3.99512 5.80859C4.15843 6.06608 4.37892 6.24295 4.59375 6.36719C4.99047 6.59654 5.48922 6.70553 5.8252 6.78613C6.22804 6.88277 6.47487 6.95369 6.63281 7.05273C6.69613 7.09247 6.71692 7.12071 6.72461 7.13379C6.73068 7.14417 6.74999 7.18013 6.75 7.27441C6.75005 7.2534 6.76443 7.28353 6.68555 7.3418C6.59944 7.40536 6.39477 7.49997 6.00391 7.5C5.91504 7.5 5.71588 7.47271 5.49414 7.39648C5.26756 7.31859 5.11277 7.22235 5.04199 7.14844C4.75568 6.8491 4.28078 6.83869 3.98145 7.125C3.68246 7.41127 3.672 7.88532 3.95801 8.18457C4.26229 8.50269 4.67014 8.6987 5.00684 8.81445C5.08701 8.84201 5.16849 8.8668 5.25 8.88867V8.99609C5.24795 9.41024 5.58197 9.74785 5.99609 9.75C6.41024 9.75205 6.74785 9.41803 6.75 9.00391V8.91113C7.60567 8.70404 8.25 8.13429 8.25 7.27441C8.24998 6.94767 8.17563 6.6431 8.01758 6.37402C7.86121 6.10788 7.64747 5.91782 7.42969 5.78125C7.02516 5.52762 6.52189 5.41139 6.1748 5.32812C5.76092 5.22884 5.50946 5.1642 5.34375 5.06836C5.2778 5.03013 5.26345 5.00607 5.2627 5.00488C5.26194 5.0037 5.25916 5.0007 5.25684 4.99219C5.25422 4.98255 5.25 4.96043 5.25 4.92188C5.25024 4.91878 5.25261 4.89308 5.27246 4.85059C5.29314 4.80631 5.32884 4.75324 5.38379 4.70215C5.48655 4.60673 5.67688 4.5 6.00391 4.5C6.06761 4.50006 6.27914 4.5333 6.50586 4.62891C6.61176 4.67357 6.69724 4.72241 6.75781 4.76855C6.80631 4.80552 6.82509 4.82924 6.8291 4.83496C7.01428 5.20531 7.46455 5.35584 7.83496 5.1709C8.20531 4.98572 8.35584 4.53545 8.1709 4.16504C7.92412 3.67148 7.4365 3.3927 7.08887 3.24609C6.97883 3.19969 6.86421 3.16032 6.75 3.12598V2.99609C6.74785 2.58197 6.41024 2.24795 5.99609 2.25ZM2.5 5.25C2.08579 5.25 1.75 5.58579 1.75 6C1.75 6.41421 2.08579 6.75 2.5 6.75C2.91421 6.75 3.25 6.41421 3.25 6C3.25 5.58579 2.91421 5.25 2.5 5.25ZM9.5 5.25C9.08579 5.25 8.75 5.58579 8.75 6C8.75 6.41421 9.08579 6.75 9.5 6.75C9.91421 6.75 10.25 6.41421 10.25 6C10.25 5.58579 9.91421 5.25 9.5 5.25Z"
    fill="currentColor"
  />
</svg>
