<svg width="20" height="20" viewBox="0 0 20 20" fill="none" xmlns="http://www.w3.org/2000/svg" data-fui-icon="true">
  <path
    fill-rule="evenodd"
    clip-rule="evenodd"
    d="M10.012 0C10.4262 3.37677e-05 10.762 0.335807 10.762 0.75V1.62305C14.303 1.89749 15.7075 4.10194 15.9798 5.37695C16.066 5.78189 15.8075 6.18108 15.4026 6.26758C14.9977 6.35387 14.5986 6.09526 14.512 5.69043C14.3765 5.05604 13.5298 3.38686 10.762 3.12891V9.37598C11.8673 9.58479 13.0371 9.84532 13.971 10.3574C14.544 10.6717 15.0607 11.0959 15.4309 11.6855C15.8032 12.2786 15.9964 12.99 15.9964 13.8262C15.996 15.8504 14.1791 18.0846 10.762 18.3711V19.2471C10.7619 19.6611 10.4261 19.997 10.012 19.9971C9.59785 19.9971 9.26212 19.6612 9.26199 19.2471V18.373C7.62948 18.2404 6.45209 17.6784 5.62038 16.9648C4.6797 16.1576 4.23396 15.2027 4.03738 14.6025C3.90857 14.209 4.12341 13.7852 4.51687 13.6562C4.91049 13.5274 5.33425 13.7421 5.46316 14.1357C5.60223 14.5603 5.92317 15.248 6.59695 15.8262C7.1542 16.3043 7.99224 16.74 9.26199 16.8652V10.6201C8.15653 10.4113 6.98588 10.1517 6.05202 9.63965C5.47927 9.32549 4.96215 8.90182 4.59206 8.3125C4.21982 7.71956 4.02768 7.008 4.02761 6.17188C4.02761 4.14741 5.8464 1.91329 9.26199 1.62598V0.75C9.26199 0.335786 9.59777 0 10.012 0ZM10.762 16.8652C13.4716 16.5968 14.496 14.8856 14.4964 13.8262C14.4964 13.2275 14.3605 12.8022 14.1604 12.4834C13.9581 12.1612 13.6576 11.8968 13.2493 11.6729C12.5893 11.311 11.7369 11.0952 10.762 10.9023V16.8652ZM9.26199 3.13086C6.55277 3.40006 5.52761 5.11331 5.52761 6.17188C5.52768 6.77048 5.66244 7.19585 5.86257 7.51465C6.06481 7.83668 6.3656 8.10039 6.7737 8.32422C7.43375 8.68616 8.28689 8.89999 9.26199 9.09277V3.13086Z"
    fill="currentColor"
  />
</svg>
