<svg width="32" height="32" viewBox="0 0 32 32" fill="none" xmlns="http://www.w3.org/2000/svg" data-fui-icon="true">
  <path
    d="M16 0.5C24.5604 0.5 31.5 7.43959 31.5 16C31.5 24.5604 24.5604 31.5 16 31.5C7.43959 31.5 0.5 24.5604 0.5 16C0.5 7.43959 7.43959 0.5 16 0.5ZM16 2.5C8.54416 2.5 2.5 8.54416 2.5 16C2.5 23.4558 8.54416 29.5 16 29.5C23.4558 29.5 29.5 23.4558 29.5 16C29.5 8.54416 23.4558 2.5 16 2.5ZM16.0127 4.99805C16.5647 4.99823 17.0125 5.44606 17.0127 5.99805V6.88184C20.7463 7.24293 22.2699 9.60616 22.5732 11.0273C22.6883 11.5672 22.3444 12.0984 21.8047 12.2139C21.2647 12.3289 20.7335 11.9843 20.6182 11.4443C20.4947 10.866 19.6999 9.22369 17.0127 8.89258V15.168C18.1474 15.3867 19.3547 15.6702 20.332 16.2061C20.9651 16.5533 21.5457 17.0269 21.9629 17.6914C22.3828 18.3605 22.5957 19.1575 22.5957 20.0811C22.5954 22.3291 20.623 24.7324 17.0127 25.1094V25.998C17.0127 26.5502 16.5648 26.9979 16.0127 26.998C15.4604 26.998 15.0127 26.5503 15.0127 25.998V25.1113C13.3267 24.9403 12.0875 24.3431 11.1982 23.5801C10.1594 22.6886 9.66757 21.6353 9.4502 20.9717C9.2784 20.447 9.56445 19.8821 10.0889 19.71C10.6135 19.5383 11.1786 19.8241 11.3506 20.3486C11.4912 20.778 11.817 21.4762 12.5 22.0625C13.0293 22.5166 13.8204 22.9425 15.0127 23.0986V16.8281C13.8781 16.6095 12.6705 16.3268 11.6934 15.791C11.0603 15.4438 10.4797 14.9701 10.0625 14.3057C9.64246 13.6366 9.42971 12.8397 9.42969 11.916C9.42979 9.66795 11.4047 7.2649 15.0127 6.88672V5.99805C15.0129 5.44595 15.4605 4.99805 16.0127 4.99805ZM17.0127 23.0996C19.6537 22.7549 20.5953 21.0599 20.5957 20.0811C20.5957 19.4741 20.4591 19.0584 20.2686 18.7549C20.0752 18.447 19.7835 18.1867 19.3701 17.96C18.7447 17.617 17.9448 17.4002 17.0127 17.208V23.0996ZM15.0127 8.89746C12.3729 9.24337 11.4298 10.9384 11.4297 11.916C11.4297 12.5229 11.5654 12.9387 11.7559 13.2422C11.9492 13.5501 12.2419 13.8104 12.6553 14.0371C13.2806 14.3799 14.0808 14.5959 15.0127 14.7881V8.89746Z"
    fill="currentColor"
  />
</svg>
