<svg width="12" height="12" viewBox="0 0 12 12" fill="none" xmlns="http://www.w3.org/2000/svg" data-fui-icon="true">
  <path
    d="M6 0C9.31371 0 12 2.68629 12 6C12 9.31371 9.31371 12 6 12C2.68629 12 0 9.31371 0 6C0 2.68629 2.68629 0 6 0ZM6.00293 3C5.54974 3 5.16672 3.30152 5.04395 3.71484C4.40801 4.02279 4.00008 4.62554 4 5.28125C4 5.57983 4.07348 5.87618 4.24121 6.14062C4.28436 6.20864 4.33185 6.26993 4.38086 6.32617C4.35619 6.34568 4.33178 6.36649 4.30859 6.38867C3.90972 6.77044 3.89568 7.4037 4.27734 7.80273C4.51461 8.0507 4.80679 8.20349 5.04883 8.2998C5.17625 8.70552 5.55516 9 6.00293 9C6.44507 8.99981 6.81933 8.71241 6.95117 8.31445C7.53337 8.07529 8 7.5989 8 6.84961C7.99999 6.55455 7.93242 6.26179 7.77637 5.99609C7.7298 5.91684 7.67663 5.84621 7.62207 5.78125C7.95839 5.51401 8.09061 5.05535 7.93555 4.64648L7.89453 4.55273L7.79297 4.37988C7.55166 4.02487 7.19767 3.82867 6.96289 3.72461C6.84324 3.30654 6.45939 3.0002 6.00293 3Z"
    fill="currentColor"
  />
</svg>
