<svg width="20" height="20" viewBox="0 0 20 20" fill="none" xmlns="http://www.w3.org/2000/svg" data-fui-icon="true">
  <path
    d="M16.25 2C18.3211 2 20 3.67893 20 5.75V14.25C20 16.3211 18.3211 18 16.25 18H3.75C1.67893 18 0 16.3211 0 14.25V5.75C0 3.67893 1.67893 2 3.75 2H16.25ZM3.75 3.5C2.50736 3.5 1.5 4.50736 1.5 5.75V14.25C1.5 15.4926 2.50736 16.5 3.75 16.5H16.25C17.4926 16.5 18.5 15.4926 18.5 14.25V5.75C18.5 4.50736 17.4926 3.5 16.25 3.5H3.75ZM9.96582 4.5C10.3799 4.50017 10.7158 4.83589 10.7158 5.25V5.56055C12.3233 5.83079 13.0192 6.95321 13.166 7.67188C13.2487 8.07765 12.9868 8.4738 12.5811 8.55664C12.1754 8.6392 11.7791 8.37737 11.6963 7.97168C11.6661 7.82431 11.4614 7.31353 10.7158 7.09863V9.40918C11.1593 9.50769 11.6331 9.64183 12.0332 9.87109C12.3487 10.052 12.6473 10.3043 12.8623 10.6621C13.0781 11.0216 13.1806 11.4395 13.1807 11.9053C13.1807 13.0328 12.2889 14.1922 10.7158 14.4746V14.7529C10.7158 15.167 10.3799 15.5028 9.96582 15.5029C9.55166 15.5029 9.21583 15.1671 9.21582 14.7529V14.4766C8.53999 14.3578 8.01679 14.081 7.625 13.7295C7.11448 13.2713 6.87571 12.7333 6.77051 12.3975C6.64695 12.0025 6.86695 11.5811 7.26172 11.457C7.6569 11.3332 8.07822 11.5541 8.20215 11.9492C8.25503 12.1179 8.37741 12.3893 8.62695 12.6133C8.76066 12.7332 8.949 12.8529 9.21582 12.9355V10.6318C8.77199 10.5333 8.29691 10.4004 7.89648 10.1709C7.58116 9.99004 7.28322 9.73756 7.06836 9.37988C6.8525 9.02028 6.74902 8.60173 6.74902 8.13574C6.74916 7.00798 7.64332 5.84902 9.21582 5.56641V5.25C9.21582 4.83582 9.55165 4.50005 9.96582 4.5ZM10.7158 12.9355C11.4536 12.7099 11.6807 12.1698 11.6807 11.9053C11.6806 11.6649 11.6299 11.523 11.5762 11.4336C11.5214 11.3427 11.4336 11.2558 11.2871 11.1719C11.1306 11.0823 10.9411 11.0127 10.7158 10.9512V12.9355ZM4 8.25C4.41421 8.25 4.75 8.58579 4.75 9V11C4.75 11.4142 4.41421 11.75 4 11.75C3.58579 11.75 3.25 11.4142 3.25 11V9C3.25 8.58579 3.58579 8.25 4 8.25ZM16 8.25C16.4142 8.25 16.75 8.58579 16.75 9V11C16.75 11.4142 16.4142 11.75 16 11.75C15.5858 11.75 15.25 11.4142 15.25 11V9C15.25 8.58579 15.5858 8.25 16 8.25ZM9.21582 7.10449C8.4776 7.33019 8.24917 7.87159 8.24902 8.13574C8.24902 8.37615 8.30084 8.51795 8.35449 8.60742C8.40914 8.69835 8.49629 8.78517 8.64258 8.86914C8.79938 8.95903 8.99 9.02797 9.21582 9.08984V7.10449Z"
    fill="currentColor"
  />
</svg>
