<svg width="12" height="12" viewBox="0 0 12 12" fill="none" xmlns="http://www.w3.org/2000/svg" data-fui-icon="true">
  <path
    d="M6 0C9.31371 0 12 2.68629 12 6C12 9.31371 9.31371 12 6 12C2.68629 12 0 9.31371 0 6C0 2.68629 2.68629 0 6 0ZM5.99609 2.25C5.58223 2.25235 5.24809 2.59 5.25 3.00391V3.10645C4.31744 3.38317 3.75027 4.15794 3.75 4.92188C3.75004 5.24406 3.82864 5.54582 3.99512 5.80859C4.15831 6.06573 4.37915 6.24301 4.59375 6.36719C4.99025 6.59629 5.48934 6.70557 5.8252 6.78613C6.22748 6.88265 6.47491 6.95385 6.63281 7.05273C6.69527 7.09199 6.71678 7.12059 6.72461 7.13379C6.7309 7.14462 6.74995 7.18138 6.75 7.27441C6.74556 7.28522 6.73001 7.30894 6.68555 7.3418C6.5994 7.40534 6.39436 7.49991 6.00391 7.5C5.91491 7.49993 5.71541 7.4725 5.49414 7.39648C5.26811 7.31873 5.11287 7.22227 5.04199 7.14844C4.75567 6.84943 4.28068 6.83885 3.98145 7.125C3.68263 7.41117 3.67233 7.88532 3.95801 8.18457C4.26213 8.50238 4.67033 8.69872 5.00684 8.81445C5.08674 8.84191 5.16876 8.86687 5.25 8.88867V8.99609C5.24809 9.41 5.58223 9.74765 5.99609 9.75C6.40998 9.75185 6.7477 9.41778 6.75 9.00391V8.91113C7.60544 8.70401 8.24987 8.13405 8.25 7.27441C8.24995 6.94791 8.17545 6.64294 8.01758 6.37402C7.86132 6.10822 7.64724 5.91774 7.42969 5.78125C7.02538 5.52788 6.52177 5.41136 6.1748 5.32812C5.76149 5.22897 5.50941 5.16404 5.34375 5.06836C5.28147 5.0322 5.26484 5.00821 5.2627 5.00488C5.26172 5.00351 5.25895 4.99972 5.25684 4.99219C5.25422 4.98241 5.25002 4.95983 5.25 4.92188C5.25033 4.91791 5.25307 4.89214 5.27246 4.85059C5.29314 4.80634 5.32891 4.75319 5.38379 4.70215C5.48653 4.60678 5.67717 4.50008 6.00391 4.5C6.06802 4.50019 6.27973 4.53361 6.50586 4.62891C6.61137 4.67344 6.69733 4.72255 6.75781 4.76855C6.80512 4.80466 6.82462 4.8287 6.8291 4.83496C7.01436 5.20499 7.46471 5.35563 7.83496 5.1709C8.20506 4.98572 8.35553 4.53532 8.1709 4.16504C7.92416 3.67189 7.4364 3.39271 7.08887 3.24609C6.97908 3.19982 6.86394 3.16025 6.75 3.12598V2.99609C6.74771 2.58221 6.40999 2.24814 5.99609 2.25Z"
    fill="currentColor"
  />
</svg>
