<svg width="32" height="32" viewBox="0 0 32 32" fill="none" xmlns="http://www.w3.org/2000/svg" data-fui-icon="true">
  <path
    d="M25.75 4C28.6493 4.00013 30.9999 6.3507 31 9.25V22.75C30.9999 25.6493 28.6493 27.9999 25.75 28H6.25C3.3507 27.9999 1.00013 25.6493 1 22.75V9.25C1.00013 6.3507 3.3507 4.00013 6.25 4H25.75ZM6.25 5.5C4.17913 5.50013 2.50013 7.17913 2.5 9.25V22.75C2.50013 24.8209 4.17913 26.4999 6.25 26.5H25.75C27.8209 26.4999 29.4999 24.8209 29.5 22.75V9.25C29.4999 7.17913 27.8209 5.50013 25.75 5.5H6.25ZM16.0098 8.00098C16.424 8.00098 16.7597 8.33679 16.7598 8.75098V9.56934C19.2678 9.85166 20.2851 11.5342 20.4863 12.5254C20.5686 12.9312 20.3061 13.3276 19.9004 13.4102C19.4946 13.4925 19.0982 13.2299 19.0156 12.8242C18.9342 12.4233 18.431 11.3365 16.7598 11.082V15.4121C17.5066 15.5652 18.3058 15.7681 18.957 16.1436C19.3921 16.3945 19.7891 16.7362 20.0732 17.2119C20.3583 17.6893 20.501 18.2542 20.501 18.9053C20.5009 20.4732 19.1939 22.1906 16.7598 22.4854V23.249C16.7597 23.6632 16.4239 23.999 16.0098 23.999C15.5957 23.9989 15.2598 23.6631 15.2598 23.249V22.4873C14.1417 22.3549 13.3139 21.9304 12.7178 21.3926C12.0109 20.7547 11.68 20.0041 11.5342 19.5361C11.4111 19.1407 11.6319 18.7208 12.0273 18.5977C12.4227 18.4749 12.8427 18.6955 12.9658 19.0908C13.0599 19.3928 13.276 19.8763 13.7227 20.2793C14.0514 20.5758 14.5354 20.8566 15.2598 20.9736V16.6445C14.5132 16.4915 13.7145 16.2903 13.0635 15.915C12.6284 15.6641 12.2314 15.3224 11.9473 14.8467C11.6623 14.3694 11.5196 13.8052 11.5195 13.1543C11.5195 11.5864 12.8274 9.86885 15.2598 9.57324V8.75098C15.2598 8.33688 15.5957 8.00111 16.0098 8.00098ZM16.7598 20.9736C18.4016 20.7083 19.0009 19.5832 19.001 18.9053C19.001 18.4785 18.91 18.1892 18.7861 17.9814C18.6612 17.7723 18.4729 17.5967 18.207 17.4434C17.8226 17.2218 17.3347 17.0762 16.7598 16.9473V20.9736ZM6.75 12.75C7.16402 12.7501 7.49987 13.086 7.5 13.5V18.5C7.49987 18.914 7.16402 19.2499 6.75 19.25C6.33598 19.2499 6.00013 18.914 6 18.5V13.5C6.00013 13.086 6.33598 12.7501 6.75 12.75ZM25.25 12.75C25.664 12.7501 25.9999 13.086 26 13.5V18.5C25.9999 18.914 25.664 19.2499 25.25 19.25C24.836 19.2499 24.5001 18.914 24.5 18.5V13.5C24.5001 13.086 24.836 12.7501 25.25 12.75ZM15.2598 11.0859C13.6189 11.3521 13.0195 12.4773 13.0195 13.1543C13.0196 13.5812 13.1104 13.8704 13.2344 14.0781C13.3593 14.2873 13.5475 14.4629 13.8135 14.6162C14.1977 14.8376 14.6852 14.9817 15.2598 15.1104V11.0859Z"
    fill="currentColor"
  />
</svg>
