<svg width="24" height="24" viewBox="0 0 24 24" fill="none" xmlns="http://www.w3.org/2000/svg" data-fui-icon="true">
  <path
    d="M12 0.5C18.3513 0.5 23.5 5.64873 23.5 12C23.5 18.3513 18.3513 23.5 12 23.5C5.64873 23.5 0.5 18.3513 0.5 12C0.5 5.64873 5.64873 0.5 12 0.5ZM12.0098 4C11.5957 4.00001 11.26 4.33596 11.2598 4.75V5.66113C8.78518 5.94282 7.41551 7.60613 7.41504 9.18066C7.4151 9.82622 7.56417 10.3875 7.86035 10.8594C8.1545 11.3277 8.56328 11.6606 9.00586 11.9033C9.67255 12.2688 10.4914 12.4639 11.2598 12.6133V16.8105C10.489 16.6974 9.97647 16.4167 9.63184 16.1211C9.17257 15.727 8.95297 15.2573 8.8584 14.9688C8.72945 14.5754 8.30554 14.3607 7.91211 14.4893C7.51855 14.6181 7.30389 15.042 7.43262 15.4355C7.58468 15.8997 7.9281 16.6365 8.6543 17.2598C9.26705 17.7855 10.1149 18.1961 11.2598 18.3223V19.25C11.26 19.664 11.5957 20 12.0098 20C12.4237 19.9999 12.7596 19.6639 12.7598 19.25V18.3213C15.2356 18.0399 16.6042 16.3772 16.6045 14.8027C16.6044 14.1574 16.4552 13.5967 16.1592 13.125C15.8651 12.6567 15.4562 12.3238 15.0137 12.0811C14.347 11.7155 13.5281 11.5188 12.7598 11.3691V7.16895C14.527 7.41287 15.0422 8.50029 15.1211 8.86914C15.2077 9.27384 15.6059 9.53247 16.0107 9.44629C16.4154 9.35966 16.674 8.96044 16.5879 8.55566C16.3748 7.5587 15.3169 5.92749 12.7598 5.6582V4.75C12.7596 4.33604 12.4237 4.00014 12.0098 4ZM12.7598 12.8994C13.3676 13.0276 13.886 13.1733 14.293 13.3965C14.5705 13.5488 14.7625 13.722 14.8887 13.9229C15.0126 14.1205 15.1044 14.3951 15.1045 14.8027C15.1042 15.4312 14.4997 16.5563 12.7598 16.8105V12.8994ZM11.2598 11.082C10.6524 10.9542 10.1344 10.8109 9.72754 10.5879C9.44968 10.4355 9.25715 10.2625 9.13086 10.0615C9.0068 9.86379 8.9151 9.58858 8.91504 9.18066C8.91556 8.55284 9.52023 7.42637 11.2598 7.17188V11.082Z"
    fill="currentColor"
  />
</svg>
