<svg width="24" height="24" viewBox="0 0 24 24" fill="none" xmlns="http://www.w3.org/2000/svg" data-fui-icon="true">
  <path
    fill-rule="evenodd"
    clip-rule="evenodd"
    d="M12.0169 0C12.4311 0 12.7669 0.335786 12.7669 0.75V2.27539C16.854 2.55962 18.435 5.15246 18.7347 6.59668C18.8188 7.00223 18.5582 7.39924 18.1526 7.4834C17.7472 7.56729 17.3501 7.30679 17.2659 6.90137C17.0955 6.08008 16.0592 4.04816 12.7669 3.77832V11.3799C14.0568 11.6285 15.4189 11.9324 16.4983 12.541C17.143 12.9046 17.7174 13.3909 18.1263 14.0605C18.5364 14.7325 18.7503 15.5405 18.7503 16.499C18.7502 18.7986 16.7115 21.4233 12.7669 21.7197V23.248C12.7668 23.6621 12.431 23.998 12.0169 23.998C11.6029 23.9979 11.267 23.6621 11.2669 23.248V21.7197C9.36407 21.5809 8.0058 20.9203 7.05693 20.083C6.00232 19.1522 5.50437 18.0528 5.28544 17.3652C5.15994 16.9707 5.37835 16.5486 5.77275 16.4229C6.16739 16.2973 6.58944 16.5155 6.71513 16.9102C6.87984 17.4274 7.25778 18.2595 8.04912 18.958C8.72168 19.5516 9.7336 20.0833 11.2669 20.2158V12.6172C9.9766 12.3686 8.61322 12.0659 7.53349 11.457C6.88885 11.0934 6.31434 10.6071 5.90556 9.9375C5.49543 9.26555 5.28155 8.45755 5.28154 7.49902C5.28154 5.19929 7.32397 2.57465 11.2669 2.27734V0.75C11.2669 0.33587 11.6028 0.000135819 12.0169 0ZM12.7669 20.2158C15.9795 19.935 17.2502 17.86 17.2503 16.499C17.2503 15.7702 17.0903 15.2421 16.846 14.8418C16.6003 14.4394 16.2392 14.1168 15.762 13.8477C14.9667 13.3992 13.9347 13.1425 12.7669 12.9092V20.2158ZM11.2669 3.78223C8.05497 4.06392 6.78154 6.13891 6.78154 7.49902C6.78155 8.22777 6.94154 8.75601 7.18583 9.15625C7.4315 9.55863 7.79268 9.88125 8.26982 10.1504C9.0654 10.5991 10.0985 10.8554 11.2669 11.0889V3.78223Z"
    fill="currentColor"
  />
</svg>
