<svg width="12" height="13" viewBox="0 0 12 13" fill="none" xmlns="http://www.w3.org/2000/svg" data-fui-icon="true">
  <path
    fill-rule="evenodd"
    clip-rule="evenodd"
    d="M6.00711 0C6.55752 0 7.00311 0.444442 7.00613 0.994141C8.91768 1.33385 9.78509 2.62685 9.97586 3.51855C10.091 4.05839 9.74714 4.58959 9.2073 4.70508C8.66744 4.82045 8.13647 4.47629 8.02078 3.93652C7.99919 3.83561 7.80422 3.30549 7.00711 3.04883V5.44727C7.52501 5.56051 8.07405 5.71802 8.54324 5.97461C8.93315 6.18793 9.31144 6.49076 9.58719 6.92871C9.86576 7.37151 9.99832 7.88734 9.99832 8.45508C9.99788 9.84753 8.87838 11.1883 7.00711 11.5439V11.5459C7.00674 12.0979 6.55916 12.5459 6.00711 12.5459C5.45511 12.5458 5.00748 12.0978 5.00711 11.5459C4.21869 11.3992 3.59905 11.0834 3.12625 10.6787C2.48694 10.1314 2.18454 9.48566 2.05008 9.07617C1.87789 8.55148 2.16409 7.98672 2.68875 7.81445C3.21333 7.64241 3.77815 7.92766 3.95047 8.45215C4.00788 8.62689 4.14395 8.91782 4.42703 9.16016C4.56112 9.27485 4.74715 9.39434 5.00711 9.48535V7.09668C4.48933 6.98319 3.94014 6.8269 3.47097 6.57031C3.08095 6.35695 2.70185 6.05434 2.42605 5.61621C2.1476 5.17354 2.01595 4.65835 2.0159 4.09082C2.01599 2.69793 3.13666 1.35704 5.00711 1.00098V1C5.00711 0.447757 5.45488 6.71446e-05 6.00711 0ZM7.00711 9.48926C7.7962 9.21986 7.99778 8.65613 7.99832 8.45508C7.99832 8.20505 7.94323 8.07121 7.8948 7.99414C7.84345 7.91261 7.75378 7.82279 7.58328 7.72949C7.42282 7.64176 7.2317 7.57109 7.00711 7.50781V9.48926ZM5.00711 3.05566C4.21727 3.32558 4.01602 3.89099 4.0159 4.09082C4.01595 4.34091 4.07096 4.47477 4.11941 4.55176C4.17084 4.63317 4.26068 4.72327 4.43094 4.81641C4.59128 4.90403 4.7827 4.9729 5.00711 5.03613V3.05566Z"
    fill="currentColor"
  />
</svg>
