<svg width="24" height="24" viewBox="0 0 24 24" fill="none" xmlns="http://www.w3.org/2000/svg" data-fui-icon="true">
  <path
    d="M12 0.5C18.3513 0.5 23.5 5.64873 23.5 12C23.5 18.3513 18.3513 23.5 12 23.5C5.64873 23.5 0.5 18.3513 0.5 12C0.5 5.64873 5.64873 0.5 12 0.5ZM12.0088 4.00098C11.4565 4.00103 11.0088 4.44872 11.0088 5.00098V5.44434C8.5702 5.81123 7.16431 7.5029 7.16406 9.18164C7.1642 9.8666 7.32265 10.4757 7.64746 10.9932C7.96956 11.506 8.41478 11.8653 8.88477 12.123C9.52357 12.4733 10.2903 12.6723 11.0088 12.8193V16.5088C10.4426 16.3821 10.0571 16.1592 9.79297 15.9326C9.37833 15.5767 9.17974 15.1509 9.09473 14.8916C8.92274 14.3669 8.35777 14.0811 7.83301 14.2529C7.30876 14.4252 7.02257 14.9901 7.19434 15.5146C7.35609 16.0081 7.72081 16.7891 8.49121 17.4502C9.10323 17.9753 9.92796 18.3849 11.0088 18.543V19.001C11.0093 19.5528 11.4568 20.0009 12.0088 20.001C12.5606 20.0007 13.0083 19.5527 13.0088 19.001V18.54C15.4491 18.1739 16.853 16.4823 16.8535 14.8037C16.8535 14.1187 16.6949 13.5107 16.3701 12.9932C16.0479 12.48 15.603 12.1212 15.1328 11.8633C14.4937 11.5128 13.7276 11.3121 13.0088 11.165V7.46777C14.4349 7.76509 14.8217 8.66855 14.876 8.92188C14.9916 9.46136 15.5228 9.80627 16.0625 9.69141C16.6022 9.5761 16.9467 9.04462 16.832 8.50488C16.6039 7.43593 15.5177 5.78871 13.0088 5.43848V5.00098C13.0088 4.44883 12.5609 4.00121 12.0088 4.00098ZM13.0088 13.2129C13.4707 13.3216 13.8584 13.4449 14.1709 13.6162C14.4213 13.7536 14.5775 13.9001 14.6758 14.0566C14.7711 14.2087 14.8535 14.4356 14.8535 14.8037C14.8529 15.2537 14.4199 16.2 13.0088 16.5107V13.2129ZM11.0088 10.7705C10.5473 10.6616 10.159 10.5404 9.84668 10.3691C9.59653 10.2319 9.44008 10.086 9.3418 9.92969C9.24638 9.77769 9.1642 9.54985 9.16406 9.18164C9.16435 8.73279 9.5983 7.78603 11.0088 7.47461V10.7705Z"
    fill="currentColor"
  />
</svg>
