<svg width="24" height="24" viewBox="0 0 24 24" fill="none" xmlns="http://www.w3.org/2000/svg" data-fui-icon="true">
  <path
    d="M12 1C18.0751 1 23 5.92487 23 12C23 18.0751 18.0751 23 12 23C5.92487 23 1 18.0751 1 12C1 5.92487 5.92487 1 12 1ZM12.0098 4.00098C11.4575 4.00098 11.0098 4.44869 11.0098 5.00098V5.44434C8.57112 5.8112 7.16529 7.50288 7.16504 9.18164C7.16518 9.8666 7.32362 10.4757 7.64844 10.9932C7.97053 11.506 8.41577 11.8653 8.88574 12.123C9.52453 12.4733 10.2913 12.6723 11.0098 12.8193V16.5088C10.4437 16.3821 10.0581 16.1592 9.79395 15.9326C9.37932 15.5768 9.18073 15.1509 9.0957 14.8916C8.92371 14.3669 8.35874 14.0811 7.83398 14.2529C7.30968 14.4251 7.02354 14.9901 7.19531 15.5146C7.35707 16.0081 7.7218 16.7891 8.49219 17.4502C9.10421 17.9752 9.92896 18.3849 11.0098 18.543V19.001C11.0102 19.5529 11.4578 20.001 12.0098 20.001C12.5616 20.0007 13.0093 19.5527 13.0098 19.001V18.54C15.45 18.1739 16.854 16.4823 16.8545 14.8037C16.8544 14.1187 16.6958 13.5106 16.3711 12.9932C16.0489 12.48 15.604 12.1212 15.1338 11.8633C14.4947 11.5129 13.7285 11.3121 13.0098 11.165V7.46777C14.4358 7.7651 14.8227 8.66856 14.877 8.92188C14.9926 9.46138 15.5238 9.80633 16.0635 9.69141C16.6032 9.5761 16.9477 9.04461 16.833 8.50488C16.6049 7.43593 15.5186 5.78873 13.0098 5.43848V5.00098C13.0098 4.44883 12.5619 4.00121 12.0098 4.00098ZM13.0098 13.2129C13.4716 13.3216 13.8594 13.445 14.1719 13.6162C14.4223 13.7536 14.5785 13.9002 14.6768 14.0566C14.7721 14.2087 14.8544 14.4356 14.8545 14.8037C14.8539 15.2537 14.4209 16.2 13.0098 16.5107V13.2129ZM11.0098 10.7705C10.5483 10.6616 10.1599 10.5403 9.84766 10.3691C9.59753 10.2319 9.44106 10.086 9.34277 9.92969C9.24735 9.77769 9.16517 9.54985 9.16504 9.18164C9.16532 8.73278 9.5992 7.78601 11.0098 7.47461V10.7705Z"
    fill="currentColor"
  />
</svg>
