<svg width="20" height="21" viewBox="0 0 20 21" fill="none" xmlns="http://www.w3.org/2000/svg" data-fui-icon="true">
  <path
    fill-rule="evenodd"
    clip-rule="evenodd"
    d="M10.0109 0C10.563 2.57045e-07 11.0106 0.447934 11.0109 1V1.39746C14.4982 1.75682 15.9354 3.97604 16.2238 5.32715C16.3388 5.86709 15.9942 6.39837 15.4542 6.51367C14.9145 6.62876 14.3833 6.28469 14.2677 5.74512C14.1585 5.23315 13.4467 3.73684 11.0109 3.41016V9.1709C12.0617 9.37479 13.1809 9.64155 14.091 10.1406C14.6914 10.4699 15.2446 10.9205 15.6427 11.5547C16.0436 12.1934 16.2462 12.9524 16.2462 13.8281C16.2459 15.9628 14.3858 18.2244 11.0109 18.5996V19C11.0109 19.5523 10.5632 20 10.0109 20C9.4586 20 9.01088 19.5523 9.01088 19V18.6006C7.44696 18.4316 6.29124 17.8719 5.45717 17.1562C4.47219 16.311 4.00617 15.3121 3.79994 14.6826C3.6281 14.1579 3.91395 13.5929 4.43861 13.4209C4.96332 13.2491 5.52832 13.535 5.70033 14.0596C5.82984 14.4549 6.13067 15.0987 6.7599 15.6387C7.23585 16.0469 7.94452 16.4328 9.01088 16.585V10.8291C7.96044 10.6253 6.84143 10.3601 5.93178 9.86133C5.33144 9.53209 4.77816 9.08126 4.38002 8.44727C3.97909 7.80863 3.77755 7.04953 3.77748 6.17383C3.77748 4.03906 5.63843 1.7788 9.01088 1.40234V1C9.01114 0.447934 9.45875 2.4098e-08 10.0109 0ZM11.0109 16.5859C13.4077 16.2458 14.2459 14.6994 14.2462 13.8281C14.2462 13.2693 14.1206 12.8913 13.9494 12.6182C13.7751 12.3406 13.5097 12.1033 13.129 11.8945C12.5667 11.5862 11.8502 11.3869 11.0109 11.2109V16.5859ZM9.01088 3.41504C6.61518 3.75629 5.77748 5.30377 5.77748 6.17383C5.77755 6.73285 5.9029 7.11068 6.07436 7.38379C6.24864 7.66115 6.51314 7.89872 6.89369 8.10742C7.45572 8.41555 8.17208 8.61318 9.01088 8.78906V3.41504Z"
    fill="currentColor"
  />
</svg>
