<svg width="24" height="24" viewBox="0 0 24 24" fill="none" xmlns="http://www.w3.org/2000/svg" data-fui-icon="true">
  <path
    d="M19.7502 2.4999C22.0968 2.50043 24 4.40391 24 6.7507V17.2503C23.9995 19.5966 22.0965 21.4996 19.7502 21.5001H4.2508C1.90401 21.5001 0.000527885 19.5969 0 17.2503V6.7507C0 4.40359 1.90369 2.4999 4.2508 2.4999H19.7502ZM12.0063 5.96948C11.5923 5.96963 11.2564 6.30534 11.2564 6.71945V7.14131C9.50087 7.42731 8.51639 8.70373 8.51626 9.92635C8.51627 10.4314 8.62736 10.8807 8.85804 11.2652C9.08795 11.648 9.40842 11.9191 9.7496 12.1147C10.2044 12.3754 10.7483 12.5254 11.2564 12.6352V15.3714C10.891 15.2772 10.6392 15.1209 10.4634 14.9633C10.1716 14.7013 10.0291 14.3857 9.96737 14.1889C9.84343 13.7938 9.42213 13.5729 9.02698 13.6967C8.63214 13.8207 8.41224 14.2421 8.53579 14.6371C8.6498 15.001 8.90863 15.5843 9.46153 16.0804C9.8977 16.4717 10.4867 16.7791 11.2564 16.9017V17.2796C11.2564 17.6937 11.5923 18.0294 12.0063 18.0295C12.4205 18.0295 12.7563 17.6938 12.7563 17.2796V16.9007C14.5133 16.6152 15.4963 15.3382 15.4964 14.1156C15.4964 13.6103 15.3846 13.1604 15.1537 12.7758C14.9237 12.3932 14.6042 12.1218 14.2631 11.9263C13.8081 11.6655 13.2645 11.5146 12.7563 11.4048V8.66371C13.7034 8.89111 13.9702 9.52767 14.0111 9.72714C14.094 10.1329 14.4911 10.3948 14.8969 10.3121C15.3024 10.2291 15.5636 9.83301 15.4808 9.42735C15.3219 8.64973 14.5562 7.41066 12.7563 7.1374V6.71945C12.7563 6.30526 12.4205 5.96948 12.0063 5.96948ZM12.7563 12.9477C13.0582 13.0246 13.3115 13.1102 13.517 13.228C13.6893 13.3267 13.7979 13.4324 13.8676 13.5483C13.9363 13.6627 13.9965 13.8358 13.9965 14.1156C13.9964 14.4654 13.693 15.1353 12.7563 15.3734V12.9477ZM5.50075 9.75058C5.08656 9.75058 4.75078 10.0864 4.75078 10.5005V13.5004C4.75131 13.9142 5.08688 14.2504 5.50075 14.2504C5.91418 14.2499 6.2502 13.9139 6.25072 13.5004V10.5005C6.25072 10.0867 5.9145 9.75111 5.50075 9.75058ZM18.5002 9.75058C18.086 9.75058 17.7503 10.0864 17.7503 10.5005V13.5004C17.7508 13.9142 18.0864 14.2504 18.5002 14.2504C18.9136 14.2499 19.2497 13.9139 19.2502 13.5004V10.5005C19.2502 10.0867 18.914 9.75111 18.5002 9.75058ZM11.2564 11.0933C10.9542 11.0167 10.7002 10.9318 10.4947 10.814C10.3226 10.7153 10.2138 10.6096 10.1441 10.4937C10.0755 10.3793 10.0162 10.2061 10.0162 9.92635C10.0163 9.57732 10.3204 8.90713 11.2564 8.66859V11.0933Z"
    fill="currentColor"
  />
</svg>
