<svg width="12" height="13" viewBox="0 0 12 13" fill="none" xmlns="http://www.w3.org/2000/svg" data-fui-icon="true">
  <path
    fill-rule="evenodd"
    clip-rule="evenodd"
    d="M6.00712 0.0224609C6.45979 0.0224609 6.84093 0.323718 6.96415 0.736328C8.90487 1.06447 9.78371 2.37038 9.97587 3.26855C10.0909 3.80829 9.747 4.33949 9.20731 4.45508C8.66745 4.57048 8.13651 4.22627 8.02079 3.68652C7.9992 3.58562 7.80402 3.05552 7.00712 2.79883V5.19727C7.52494 5.3105 8.07414 5.46806 8.54325 5.72461C8.93308 5.93793 9.3115 6.24084 9.58719 6.67871C9.86572 7.12148 9.99833 7.63739 9.99833 8.20508C9.99789 9.60757 8.86178 10.9569 6.9661 11.3008C6.84538 11.7174 6.46263 12.0225 6.00712 12.0225C5.55255 12.0224 5.1686 11.7191 5.04715 11.3037C4.23953 11.1605 3.60709 10.8402 3.12626 10.4287C2.48699 9.88141 2.18456 9.23566 2.05008 8.82617C1.87789 8.30145 2.16404 7.73669 2.68876 7.56445C3.21328 7.39253 3.77817 7.67772 3.95048 8.20215C4.0079 8.3769 4.14401 8.66786 4.42704 8.91016C4.56116 9.02484 4.74714 9.14437 5.00712 9.23535V6.84668C4.48934 6.7332 3.94018 6.57688 3.47098 6.32031C3.08099 6.10697 2.70185 5.80427 2.42606 5.36621C2.14761 4.92354 2.01596 4.40835 2.0159 3.84082C2.016 2.43793 3.15246 1.0875 5.04715 0.743164C5.16803 0.32692 5.55191 0.0225629 6.00712 0.0224609ZM7.00712 9.23926C7.79601 8.96982 7.99779 8.40611 7.99833 8.20508C7.99833 7.95519 7.94322 7.82123 7.89481 7.74414C7.84348 7.66265 7.75365 7.57275 7.58329 7.47949C7.42289 7.3918 7.2316 7.32107 7.00712 7.25781V9.23926ZM5.00712 2.80566C4.21707 3.07555 4.01602 3.64097 4.0159 3.84082C4.01596 4.09091 4.07097 4.22477 4.11942 4.30176C4.17086 4.38314 4.26078 4.47332 4.43094 4.56641C4.59131 4.65401 4.7827 4.72291 5.00712 4.78613V2.80566Z"
    fill="currentColor"
  />
</svg>
