<svg width="32" height="32" viewBox="0 0 32 32" fill="none" xmlns="http://www.w3.org/2000/svg" data-fui-icon="true">
  <path
    d="M16 1C24.2843 1 31 7.71573 31 16C31 24.2843 24.2843 31 16 31C7.71573 31 1 24.2843 1 16C1 7.71573 7.71573 1 16 1ZM16.0127 4.33203C15.4604 4.33203 15.0127 4.77975 15.0127 5.33203V6.88672C11.4044 7.2647 9.42979 9.66783 9.42969 11.916C9.42971 12.8397 9.64244 13.6366 10.0625 14.3057C10.4798 14.9702 11.0602 15.4438 11.6934 15.791C12.6707 16.3269 13.8779 16.6094 15.0127 16.8281V23.0986C13.8201 22.9426 13.0293 22.5167 12.5 22.0625C11.8169 21.4763 11.4912 20.7781 11.3506 20.3486C11.1786 19.824 10.6136 19.5383 10.0889 19.71C9.56423 19.882 9.27836 20.4469 9.4502 20.9717C9.6676 21.6353 10.1594 22.6886 11.1982 23.5801C12.0876 24.3431 13.3264 24.9403 15.0127 25.1113V26.665C15.0128 27.2172 15.4605 27.665 16.0127 27.665C16.5649 27.665 17.0126 27.2172 17.0127 26.665V25.1094C20.6228 24.7323 22.5954 22.329 22.5957 20.0811C22.5957 19.1575 22.3828 18.3605 21.9629 17.6914C21.5457 17.0269 20.9651 16.5533 20.332 16.2061C19.3547 15.6701 18.1475 15.3867 17.0127 15.168V8.89258C19.6997 9.22376 20.4947 10.866 20.6182 11.4443C20.7335 11.9844 21.2646 12.3291 21.8047 12.2139C22.3445 12.0984 22.6883 11.5672 22.5732 11.0273C22.2699 9.60619 20.7461 7.24301 17.0127 6.88184V5.33203C17.0127 4.77977 16.565 4.33206 16.0127 4.33203ZM17.0127 17.208C17.9448 17.4002 18.7447 17.617 19.3701 17.96C19.7835 18.1867 20.0752 18.447 20.2686 18.7549C20.4591 19.0584 20.5957 19.4741 20.5957 20.0811C20.5953 21.0599 19.6535 22.7548 17.0127 23.0996V17.208ZM15.0127 14.7881C14.0806 14.5959 13.2807 14.38 12.6553 14.0371C12.2418 13.8104 11.9492 13.5501 11.7559 13.2422C11.5653 12.9386 11.4297 12.523 11.4297 11.916C11.4298 10.9383 12.3724 9.24319 15.0127 8.89746V14.7881Z"
    fill="currentColor"
  />
</svg>
