<svg width="20" height="21" viewBox="0 0 20 21" fill="none" xmlns="http://www.w3.org/2000/svg" data-fui-icon="true">
  <path
    fill-rule="evenodd"
    clip-rule="evenodd"
    d="M10.0107 0C10.5628 2.05996e-05 11.0104 0.447946 11.0107 1V2.05176C14.2979 2.39536 15.6885 4.41416 15.9746 5.69922C16.0944 6.23821 15.7537 6.77254 15.2148 6.89258C14.6757 7.01233 14.1413 6.67285 14.0214 6.13379C13.9296 5.72186 13.2909 4.37577 11.0107 4.06543V9.16406C11.9985 9.34971 13.0481 9.59378 13.9052 10.0449C14.4796 10.3473 15.0169 10.7645 15.4062 11.3594C15.7998 11.9611 15.9979 12.6778 15.998 13.5C15.998 15.5265 14.1884 17.5852 11.0107 17.9443V19C11.0107 19.5523 10.563 20 10.0107 20C9.4584 20 9.01068 19.5523 9.01068 19V17.9463C7.54254 17.786 6.45077 17.2765 5.65619 16.6221C4.70582 15.8392 4.25329 14.9102 4.0517 14.3193C3.87386 13.7969 4.15253 13.2292 4.67475 13.0508C5.19718 12.8728 5.76582 13.1516 5.94428 13.6738C6.0624 14.0201 6.33961 14.5937 6.92768 15.0781C7.36645 15.4395 8.02237 15.7873 9.01068 15.9307V10.8359C8.02271 10.6503 6.97332 10.4062 6.11615 9.95508C5.54175 9.65268 5.00438 9.23563 4.61518 8.64062C4.22161 8.03879 4.02338 7.32231 4.02338 6.5C4.02366 4.47365 5.83512 2.41563 9.01068 2.05566V1C9.01094 0.447934 9.45856 2.41342e-08 10.0107 0ZM11.0107 15.9316C13.2634 15.6085 13.998 14.2098 13.998 13.5C13.9979 13.0103 13.884 12.6871 13.7324 12.4551C13.5762 12.2164 13.3339 12.0041 12.9736 11.8145C12.4519 11.5399 11.7884 11.3612 11.0107 11.2031V15.9316ZM9.01068 4.06934C6.75942 4.3933 6.0237 5.79099 6.02338 6.5C6.02338 6.98963 6.13742 7.31286 6.28901 7.54492C6.44514 7.78365 6.68742 7.99583 7.04779 8.18555C7.56957 8.46018 8.2328 8.63878 9.01068 8.79688V4.06934Z"
    fill="currentColor"
  />
</svg>
