<svg width="20" height="20" viewBox="0 0 20 20" fill="none" xmlns="http://www.w3.org/2000/svg" data-fui-icon="true">
  <path
    d="M10 1C14.9706 1 19 5.02944 19 10C19 14.9706 14.9706 19 10 19C5.02944 19 1 14.9706 1 10C1 5.02944 5.02944 1 10 1ZM10 4C9.4478 4.0001 9 4.44778 9 5V5.08789C7.18593 5.41615 6.01562 6.62086 6.01562 8C6.01562 8.55099 6.15629 9.0514 6.44824 9.47656C6.73372 9.89219 7.11906 10.1698 7.50293 10.3623C7.95967 10.5912 8.49286 10.732 9 10.835V12.8623C8.72481 12.7762 8.53025 12.6629 8.39355 12.5557C8.11657 12.3383 7.99124 12.0854 7.94141 11.9463C7.75503 11.4267 7.18284 11.1567 6.66309 11.3428C6.14329 11.5291 5.87243 12.1012 6.05859 12.6211C6.20056 13.0174 6.51333 13.6232 7.15918 14.1299C7.6278 14.4975 8.23408 14.7812 9 14.915V15C9 15.5522 9.4478 15.9999 10 16C10.5523 16 11 15.5523 11 15V14.9141C12.8241 14.5903 14 13.383 14 12C14 11.449 13.8594 10.9486 13.5674 10.5234C13.2819 10.1078 12.8966 9.83015 12.5127 9.6377C12.0512 9.4064 11.5119 9.26431 11 9.16113V7.12305C11.3017 7.2078 11.5131 7.32339 11.6572 7.43164C11.7958 7.53574 11.8872 7.64336 11.9453 7.73145C11.9743 7.77539 11.9946 7.81377 12.0078 7.84375C12.0143 7.85858 12.0194 7.87099 12.0225 7.87988C12.0239 7.88427 12.0247 7.88822 12.0254 7.89062C12.0258 7.89205 12.0262 7.89304 12.0264 7.89355C12.1519 8.43132 12.6898 8.76608 13.2275 8.64062C13.7652 8.51501 14.0991 7.9772 13.9736 7.43945C13.7666 6.55254 12.8704 5.387 11 5.07812V5C11 4.44772 10.5523 4 10 4ZM11 11.21C11.2411 11.2707 11.4461 11.3391 11.6172 11.4248C11.7941 11.5135 11.8772 11.5955 11.9189 11.6562C11.9542 11.7077 12 11.8015 12 12C12 12.0878 11.8422 12.6234 11 12.8721V11.21ZM9 8.78516C8.76578 8.7254 8.56572 8.65905 8.39844 8.5752C8.22151 8.48647 8.13841 8.40452 8.09668 8.34375C8.06143 8.29227 8.01562 8.19841 8.01562 8C8.01562 7.91332 8.17166 7.38284 9 7.13184V8.78516Z"
    fill="currentColor"
  />
</svg>
