<svg width="24" height="24" viewBox="0 0 24 24" fill="none" xmlns="http://www.w3.org/2000/svg" data-fui-icon="true">
  <path
    d="M12 0.5C18.3513 0.5 23.5 5.64873 23.5 12C23.5 18.3513 18.3513 23.5 12 23.5C5.64873 23.5 0.5 18.3513 0.5 12C0.5 5.64873 5.64873 0.5 12 0.5ZM12 2C6.47715 2 2 6.47715 2 12C2 17.5228 6.47715 22 12 22C17.5228 22 22 17.5228 22 12C22 6.47715 17.5228 2 12 2ZM12.0098 4C12.4237 4.00017 12.7596 4.33606 12.7598 4.75V5.6582C15.3171 5.92741 16.3748 7.55867 16.5879 8.55566C16.6741 8.96049 16.4155 9.35969 16.0107 9.44629C15.606 9.53237 15.2077 9.27383 15.1211 8.86914C15.0422 8.50028 14.5272 7.4128 12.7598 7.16895V11.3691C13.5282 11.5188 14.347 11.7155 15.0137 12.0811C15.4563 12.3238 15.865 12.6566 16.1592 13.125C16.4553 13.5968 16.6044 14.1574 16.6045 14.8027C16.6042 16.3772 15.2358 18.04 12.7598 18.3213V19.25C12.7596 19.6639 12.4237 19.9998 12.0098 20C11.5958 19.9998 11.26 19.6639 11.2598 19.25V18.3223C10.115 18.1961 9.26701 17.7855 8.6543 17.2598C7.92803 16.6365 7.58466 15.8997 7.43262 15.4355C7.3039 15.042 7.51867 14.6182 7.91211 14.4893C8.30555 14.3607 8.72945 14.5754 8.8584 14.9688C8.95296 15.2573 9.1725 15.7269 9.63184 16.1211C9.97642 16.4167 10.489 16.6974 11.2598 16.8105V12.6133C10.4914 12.4639 9.6725 12.2688 9.00586 11.9033C8.56323 11.6606 8.15451 11.3278 7.86035 10.8594C7.56416 10.3875 7.4151 9.82623 7.41504 9.18066C7.41551 7.6062 8.78538 5.94293 11.2598 5.66113V4.75C11.26 4.33607 11.5958 4.00018 12.0098 4ZM12.7598 16.8105C14.4999 16.5564 15.1042 15.4312 15.1045 14.8027C15.1044 14.395 15.0127 14.1205 14.8887 13.9229C14.7625 13.7219 14.5706 13.5488 14.293 13.3965C13.8859 13.1733 13.3677 13.0276 12.7598 12.8994V16.8105ZM11.2598 7.17188C9.52047 7.42645 8.91556 8.55288 8.91504 9.18066C8.9151 9.5886 9.00679 9.86379 9.13086 10.0615C9.25715 10.2626 9.44961 10.4355 9.72754 10.5879C10.1344 10.8109 10.6525 10.9542 11.2598 11.082V7.17188Z"
    fill="currentColor"
  />
</svg>
