<svg width="12" height="12" viewBox="0 0 12 12" fill="none" xmlns="http://www.w3.org/2000/svg" data-fui-icon="true">
  <path
    d="M6 0C9.31371 0 12 2.68629 12 6C12 9.31371 9.31371 12 6 12C2.68629 12 0 9.31371 0 6C0 2.68629 2.68629 0 6 0ZM6 1.5C3.51472 1.5 1.5 3.51472 1.5 6C1.5 8.48528 3.51472 10.5 6 10.5C8.48528 10.5 10.5 8.48528 10.5 6C10.5 3.51472 8.48528 1.5 6 1.5ZM6.00391 3C6.34634 2.99996 7.58248 2.96435 8.17676 4.20605C8.35518 4.5796 8.19666 5.02831 7.82324 5.20703C7.4498 5.38522 7.00196 5.22675 6.82324 4.85352C6.73276 4.66463 6.62038 4.59436 6.50586 4.55469C6.35939 4.50418 6.1974 4.50001 6.00391 4.5C5.67718 4.50008 5.48653 4.60678 5.38379 4.70215C5.3289 4.7532 5.29314 4.80634 5.27246 4.85059C5.25302 4.89224 5.25032 4.91799 5.25 4.92188C5.25003 5.01476 5.26926 5.04743 5.27246 5.05273C5.27693 5.06011 5.29336 5.08469 5.35254 5.12012C5.5087 5.21315 5.75282 5.2755 6.16211 5.36621C6.50194 5.44152 7.00905 5.54613 7.41504 5.78809C7.63518 5.91949 7.85487 6.10578 8.01465 6.37207C8.17603 6.64141 8.24995 6.94808 8.25 7.27441C8.24984 8.371 7.2023 8.99981 6.00391 9C5.71427 8.99994 5.34823 8.93176 5.00684 8.81445C4.67032 8.69872 4.26214 8.50239 3.95801 8.18457C3.67232 7.88533 3.68264 7.41118 3.98145 7.125C4.28068 6.83886 4.75567 6.84943 5.04199 7.14844C5.11287 7.22227 5.26809 7.31872 5.49414 7.39648C5.71541 7.4725 5.91491 7.49993 6.00391 7.5C6.39435 7.49991 6.5994 7.40534 6.68555 7.3418C6.73 7.30894 6.74556 7.28522 6.75 7.27441C6.74995 7.18164 6.73075 7.14889 6.72754 7.14355C6.72285 7.13588 6.70606 7.11123 6.64746 7.07617C6.49132 6.98315 6.24711 6.92175 5.83789 6.83105C5.49802 6.75574 4.99098 6.65023 4.58496 6.4082C4.36476 6.27677 4.14515 6.09061 3.98535 5.82422C3.82399 5.55487 3.75004 5.24821 3.75 4.92188C3.75032 3.96953 4.63168 3.00017 6.00391 3Z"
    fill="currentColor"
  />
</svg>
