<svg width="20" height="20" viewBox="0 0 20 20" fill="none" xmlns="http://www.w3.org/2000/svg" data-fui-icon="true">
  <path
    d="M10 0.5C15.2467 0.5 19.5 4.75329 19.5 10C19.5 15.2467 15.2467 19.5 10 19.5C4.75329 19.5 0.5 15.2467 0.5 10C0.5 4.75329 4.75329 0.5 10 0.5ZM10.0078 3.5C9.59373 3.50015 9.25781 3.83588 9.25781 4.25V4.96191C7.35778 5.23728 6.2667 6.54669 6.2666 7.84082C6.26666 8.36882 6.38882 8.83637 6.63867 9.2334C6.88641 9.62689 7.22922 9.90322 7.5918 10.1016C8.09185 10.3749 8.69378 10.5293 9.25781 10.6436V13.5605C8.79388 13.4628 8.47922 13.2832 8.26465 13.0996C7.93719 12.8192 7.78091 12.4843 7.71387 12.2803C7.5847 11.8869 7.16004 11.6728 6.7666 11.8018C6.37355 11.9312 6.15916 12.3548 6.28809 12.748C6.41293 13.1282 6.69436 13.7301 7.28906 14.2393C7.76549 14.647 8.41012 14.9647 9.25781 15.084V15.75C9.25781 16.1641 9.59373 16.4998 10.0078 16.5C10.4218 16.4998 10.7578 16.1641 10.7578 15.75V15.082C12.6586 14.8071 13.7486 13.4988 13.749 12.2051C13.749 11.6772 13.6266 11.2095 13.377 10.8125C13.1293 10.4189 12.7864 10.1427 12.4238 9.94434C11.9237 9.6708 11.322 9.51467 10.7578 9.40039V6.47852C11.9063 6.7043 12.2209 7.42591 12.2656 7.63379C12.3524 8.03854 12.7514 8.29744 13.1562 8.21094C13.5608 8.12402 13.8188 7.725 13.7324 7.32031C13.5562 6.49694 12.7136 5.22107 10.7578 4.95801V4.25C10.7578 3.83592 10.4218 3.50021 10.0078 3.5ZM10.7578 10.9385C11.1338 11.0252 11.4505 11.122 11.7041 11.2607C11.9021 11.3691 12.0281 11.4852 12.1074 11.6113C12.1845 11.7341 12.249 11.9155 12.249 12.2051C12.2485 12.5715 11.894 13.3257 10.7578 13.5615V10.9385ZM9.25781 9.10547C8.88209 9.01874 8.56501 8.92372 8.31152 8.78516C8.11358 8.67687 7.98763 8.5606 7.9082 8.43457C7.83098 8.31187 7.76666 8.13062 7.7666 7.84082C7.76672 7.4753 8.12124 6.71971 9.25781 6.4834V9.10547Z"
    fill="currentColor"
  />
</svg>
