<svg width="24" height="26" viewBox="0 0 24 26" fill="none" xmlns="http://www.w3.org/2000/svg" data-fui-icon="true">
  <path
    d="M12.0176 0C12.777 0 13.3926 0.615608 13.3926 1.375V2.01855C17.5264 2.51753 19.249 5.23956 19.5986 6.91211C19.7539 7.6553 19.2773 8.3836 18.5342 8.53906C17.791 8.69426 17.0627 8.21774 16.9072 7.47461C16.7903 6.91564 16.0291 5.23963 13.3926 4.79785V11.4873C14.6088 11.7333 15.9077 12.0632 16.9756 12.6611C17.7129 13.0739 18.3961 13.641 18.8877 14.4404C19.3822 15.2447 19.6279 16.1941 19.6279 17.2793C19.6277 19.9169 17.4054 22.6997 13.3926 23.2207V23.873C13.3924 24.6323 12.7769 25.248 12.0176 25.248C11.2584 25.2478 10.6427 24.6322 10.6426 23.873V23.2236C8.82 22.993 7.45606 22.3095 6.46191 21.4385C5.25803 20.3836 4.69078 19.1399 4.44043 18.3594C4.20883 17.6365 4.60734 16.8629 5.33008 16.6309C6.05311 16.399 6.82756 16.7966 7.05957 17.5195C7.209 17.9854 7.55491 18.7397 8.27441 19.3701C8.78197 19.8148 9.52864 20.2436 10.6426 20.4424V13.7598C9.42651 13.514 8.1273 13.1856 7.05957 12.5879C6.32224 12.175 5.63811 11.6072 5.14648 10.8076C4.65221 10.0036 4.40732 9.05452 4.40723 7.96973C4.40723 5.33197 6.63236 2.5498 10.6426 2.02734V1.375C10.6426 0.615735 11.2584 0.000205636 12.0176 0ZM13.3926 20.4424C15.9913 19.9818 16.8776 18.2395 16.8779 17.2793C16.8779 16.6191 16.7333 16.1857 16.5459 15.8809C16.3556 15.5714 16.0643 15.3022 15.6328 15.0605C15.036 14.7264 14.2839 14.4995 13.3926 14.2998V20.4424ZM10.6426 4.80469C8.04473 5.26666 7.15723 7.01102 7.15723 7.96973C7.15732 8.6295 7.30194 9.06241 7.48926 9.36719C7.67958 9.67669 7.9707 9.94678 8.40234 10.1885C8.999 10.5225 9.75151 10.7479 10.6426 10.9473V4.80469Z"
    fill="currentColor"
  />
</svg>
