<svg width="20" height="20" viewBox="0 0 20 20" fill="none" xmlns="http://www.w3.org/2000/svg" data-fui-icon="true">
  <path
    d="M10 0.5C15.2467 0.5 19.5 4.75329 19.5 10C19.5 15.2467 15.2467 19.5 10 19.5C4.75329 19.5 0.5 15.2467 0.5 10C0.5 4.75329 4.75329 0.5 10 0.5ZM10.0078 3.5C9.5937 3.50011 9.25781 3.83586 9.25781 4.25V4.96191C7.35754 5.23716 6.2667 6.5466 6.2666 7.84082C6.26666 8.36878 6.38886 8.83639 6.63867 9.2334C6.88637 9.62678 7.22931 9.90324 7.5918 10.1016C8.09193 10.3749 8.69373 10.5293 9.25781 10.6436V13.5605C8.79375 13.4629 8.47927 13.2832 8.26465 13.0996C7.9373 12.8193 7.78091 12.4843 7.71387 12.2803C7.58467 11.8869 7.16003 11.6728 6.7666 11.8018C6.37355 11.9311 6.1592 12.3548 6.28809 12.748C6.41293 13.1282 6.69448 13.7301 7.28906 14.2393C7.76556 14.647 8.41 14.9647 9.25781 15.084V15.75C9.25781 16.1641 9.5937 16.4999 10.0078 16.5C10.4219 16.4998 10.7578 16.1641 10.7578 15.75V15.082C12.6584 14.807 13.7486 13.4988 13.749 12.2051C13.749 11.6772 13.6266 11.2095 13.377 10.8125C13.1293 10.419 12.7863 10.1427 12.4238 9.94434C11.9238 9.67089 11.3219 9.51465 10.7578 9.40039V6.47852C11.906 6.70433 12.2209 7.42587 12.2656 7.63379C12.3525 8.03851 12.7514 8.29743 13.1562 8.21094C13.5608 8.12402 13.8187 7.72499 13.7324 7.32031C13.5562 6.49696 12.7134 5.22113 10.7578 4.95801V4.25C10.7578 3.83589 10.4219 3.50017 10.0078 3.5ZM10.7578 10.9385C11.1336 11.0252 11.4506 11.1221 11.7041 11.2607C11.9019 11.369 12.0281 11.4853 12.1074 11.6113C12.1845 11.7341 12.249 11.9156 12.249 12.2051C12.2485 12.5715 11.8939 13.3257 10.7578 13.5615V10.9385ZM9.25781 9.10645C8.88191 9.0197 8.56511 8.92375 8.31152 8.78516C8.11372 8.67692 7.98761 8.56052 7.9082 8.43457C7.83101 8.31187 7.76666 8.13055 7.7666 7.84082C7.76672 7.47526 8.12093 6.71962 9.25781 6.4834V9.10645Z"
    fill="currentColor"
  />
</svg>
