<svg width="20" height="20" viewBox="0 0 20 20" fill="none" xmlns="http://www.w3.org/2000/svg" data-fui-icon="true">
  <path
    d="M10 0.5C15.2467 0.5 19.5 4.75329 19.5 10C19.5 15.2467 15.2467 19.5 10 19.5C4.75329 19.5 0.5 15.2467 0.5 10C0.5 4.75329 4.75329 0.5 10 0.5ZM10 2C5.58172 2 2 5.58172 2 10C2 14.4183 5.58172 18 10 18C14.4183 18 18 14.4183 18 10C18 5.58172 14.4183 2 10 2ZM10.0088 3.5C10.4227 3.50037 10.7588 3.83602 10.7588 4.25V4.95801C12.7141 5.22125 13.5572 6.49702 13.7334 7.32031C13.8196 7.72484 13.5615 8.12387 13.1572 8.21094C12.7524 8.29755 12.3535 8.03854 12.2666 7.63379C12.2219 7.42594 11.9068 6.70442 10.7588 6.47852V9.40039C11.3228 9.51466 11.9248 9.67089 12.4248 9.94434C12.7872 10.1427 13.1304 10.4191 13.3779 10.8125C13.6275 11.2094 13.75 11.6773 13.75 12.2051C13.7495 13.4987 12.6592 14.8069 10.7588 15.082V15.75C10.7588 16.164 10.4227 16.4996 10.0088 16.5C9.59458 16.5 9.25879 16.1642 9.25879 15.75V15.084C8.411 14.9648 7.76655 14.647 7.29004 14.2393C6.69543 13.7302 6.41393 13.1282 6.28906 12.748C6.16012 12.3547 6.37438 11.9311 6.76758 11.8018C7.16093 11.673 7.58571 11.887 7.71484 12.2803C7.78192 12.4843 7.93825 12.8193 8.26562 13.0996C8.48027 13.2832 8.79478 13.4629 9.25879 13.5605V10.6436C8.69476 10.5293 8.09291 10.3749 7.59277 10.1016C7.23028 9.90326 6.88737 9.62675 6.63965 9.2334C6.3898 8.83637 6.26763 8.36882 6.26758 7.84082C6.26768 6.54655 7.35839 5.2371 9.25879 4.96191V4.25C9.25879 3.83579 9.59458 3.5 10.0088 3.5ZM10.7588 13.5615C11.8946 13.3256 12.2495 12.5714 12.25 12.2051C12.25 11.9157 12.1854 11.7341 12.1084 11.6113C12.0291 11.4853 11.9028 11.369 11.7051 11.2607C11.4516 11.1221 11.1345 11.0252 10.7588 10.9385V13.5615ZM9.25879 6.4834C8.12175 6.71957 7.76769 7.47523 7.76758 7.84082C7.76763 8.13062 7.83196 8.31187 7.90918 8.43457C7.98862 8.56049 8.11469 8.67694 8.3125 8.78516C8.56609 8.92369 8.88294 9.01972 9.25879 9.10645V6.4834Z"
    fill="currentColor"
  />
</svg>
