<svg width="12" height="12" viewBox="0 0 12 12" fill="none" xmlns="http://www.w3.org/2000/svg" data-fui-icon="true">
  <path
    d="M6 0C9.31371 0 12 2.68629 12 6C12 9.31371 9.31371 12 6 12C2.68629 12 0 9.31371 0 6C0 2.68629 2.68629 0 6 0ZM6 2C3.79086 2 2 3.79086 2 6C2 8.20914 3.79086 10 6 10C8.20914 10 10 8.20914 10 6C10 3.79086 8.20914 2 6 2ZM6.00293 3C6.45939 3.0002 6.84324 3.30654 6.96289 3.72461C7.19767 3.82867 7.55166 4.02487 7.79297 4.37988L7.89453 4.55273L7.93555 4.64648C8.09061 5.05535 7.95839 5.51401 7.62207 5.78125C7.67663 5.84621 7.7298 5.91684 7.77637 5.99609C7.93242 6.26179 7.99999 6.55455 8 6.84961C8 7.5989 7.53337 8.07529 6.95117 8.31445C6.81933 8.71241 6.44507 8.99981 6.00293 9C5.55516 9 5.17625 8.70552 5.04883 8.2998C4.80679 8.20349 4.51461 8.0507 4.27734 7.80273C3.89568 7.4037 3.90972 6.77044 4.30859 6.38867C4.33178 6.36649 4.35619 6.34568 4.38086 6.32617C4.33185 6.26993 4.28436 6.20864 4.24121 6.14062C4.07348 5.87618 4 5.57983 4 5.28125C4.00008 4.62554 4.40801 4.02279 5.04395 3.71484C5.16672 3.30152 5.54974 3 6.00293 3Z"
    fill="currentColor"
  />
</svg>
