<svg width="21" height="20" viewBox="0 0 21 20" fill="none" xmlns="http://www.w3.org/2000/svg" data-fui-icon="true">
  <path
    fill-rule="evenodd"
    clip-rule="evenodd"
    d="M15.5122 12.25C15.6351 12.25 15.7467 12.3246 15.7857 12.4412C15.9252 12.858 15.998 13.3189 15.998 13.8262C15.9977 15.7953 14.2777 17.9631 11.0386 18.3435C10.8837 18.3616 10.7637 18.491 10.7637 18.647V19.2471C10.7635 19.6609 10.4274 19.9966 10.0137 19.9971C9.59954 19.9971 9.2638 19.6612 9.26367 19.2471V18.6497C9.26367 18.4934 9.14346 18.3639 8.9882 18.3462C7.49783 18.1757 6.40626 17.6375 5.62207 16.9648C4.6815 16.1577 4.23568 15.2027 4.03906 14.6025C3.91023 14.2089 4.12494 13.7851 4.51855 13.6562C4.91205 13.5277 5.33599 13.7423 5.46484 14.1357C5.60396 14.5603 5.92498 15.2481 6.59863 15.8262C7.10636 16.2617 7.84721 16.6622 8.93502 16.8246C9.11039 16.8508 9.26367 16.7115 9.26367 16.5342V12.55C9.26367 12.3843 9.39799 12.25 9.56367 12.25H10.4637C10.6294 12.25 10.7637 12.3843 10.7637 12.55V16.534C10.7637 16.7114 10.9179 16.8506 11.0933 16.8243C13.5563 16.4553 14.4977 14.8414 14.498 13.8262C14.498 13.2277 14.3621 12.8022 14.1621 12.4834C14.1014 12.3867 14.1658 12.25 14.28 12.25H15.5122ZM10.0137 0C10.4275 0.000454794 10.7637 0.336067 10.7637 0.75V1.34542C10.7637 1.50211 10.8851 1.63188 11.0408 1.64892C14.3778 2.01399 15.7164 4.13584 15.9814 5.37695C16.0675 5.78166 15.8088 6.18086 15.4043 6.26758C14.9994 6.354 14.6003 6.09524 14.5137 5.69043C14.3837 5.08189 13.5986 3.5211 11.0917 3.16723C10.9168 3.14253 10.7637 3.28151 10.7637 3.4582V8.95C10.7637 9.11569 10.898 9.25 11.0637 9.25H19.252C19.6657 9.25053 20.002 9.58611 20.002 10C20.002 10.4139 19.6657 10.7495 19.252 10.75H0.751953C0.33774 10.75 0 10.4142 0 10C0 9.58579 0.33774 9.25 0.751953 9.25H4.57568C4.86196 9.25 5.00569 8.86089 4.82604 8.63799C4.74346 8.53553 4.66579 8.42718 4.59375 8.3125C4.22151 7.71956 4.02936 7.008 4.0293 6.17188C4.0293 4.20237 5.75041 2.03445 8.98876 1.65366C9.14364 1.63545 9.26367 1.50608 9.26367 1.35014V0.75C9.26367 0.335786 9.59946 0 10.0137 0ZM9.26367 3.46213C9.26367 3.28473 9.10946 3.1455 8.93402 3.17182C6.47068 3.54147 5.5293 5.15734 5.5293 6.17188C5.52936 6.77048 5.66412 7.19585 5.86426 7.51465C6.0665 7.83653 6.36743 8.10047 6.77539 8.32422C7.35338 8.64103 8.07963 8.84455 8.90594 9.01968C9.09088 9.05888 9.26367 8.9167 9.26367 8.72766V3.46213Z"
    fill="currentColor"
  />
</svg>
