<svg width="12" height="13" viewBox="0 0 12 13" fill="none" xmlns="http://www.w3.org/2000/svg" data-fui-icon="true">
  <path
    d="M2.7654 7.80112C3.15878 7.67226 3.58344 7.88626 3.71259 8.2796C3.77963 8.48364 3.9359 8.81849 4.26332 9.09887C4.41777 9.23101 4.6241 9.36111 4.90063 9.46008C5.08003 9.52429 5.25641 9.38057 5.25641 9.19001V8.5493C5.25641 8.38363 5.39071 8.24933 5.55638 8.24933H6.45631C6.62198 8.24933 6.75629 8.38363 6.75629 8.5493V9.19211C6.75629 9.3823 6.93228 9.52584 7.11158 9.46242C7.73811 9.24083 8.05502 8.84379 8.18013 8.5194C8.23668 8.37276 8.36607 8.24933 8.52324 8.24933H9.43834C9.60634 8.24933 9.74339 8.38785 9.71832 8.55396C9.54884 9.67709 8.57135 10.7394 6.96749 11.0457C6.84691 11.0688 6.75629 11.1722 6.75629 11.295C6.75591 11.7087 6.42007 12.0447 6.00635 12.0449C5.59255 12.0447 5.25678 11.7087 5.25641 11.295C5.25641 11.1735 5.16666 11.0712 5.0472 11.0489C4.30177 10.9098 3.7242 10.6119 3.28782 10.2384C2.69317 9.7293 2.41176 9.12744 2.28692 8.74734C2.15802 8.35412 2.37241 7.93054 2.7654 7.80112ZM6.00635 0C6.4203 0.000263741 6.75629 0.335922 6.75629 0.749939C6.75629 0.869041 6.84485 0.969165 6.96212 0.990019C8.77135 1.31178 9.56076 2.52622 9.73065 3.32004C9.81698 3.72467 9.55898 4.12365 9.15453 4.21059C8.74974 4.29705 8.35079 4.03819 8.26398 3.63349C8.22425 3.44875 7.97129 2.85825 7.10931 2.57067C6.93013 2.51088 6.75629 2.65411 6.75629 2.84301V4.9496C6.75629 5.11527 6.89059 5.24957 7.05626 5.24957H11.2501C11.6638 5.2501 12 5.58566 12 5.99951C12 6.41337 11.6638 6.74892 11.2501 6.74945H0.750915C0.336736 6.74945 0 6.41369 0 5.99951C0 5.58533 0.336736 5.24957 0.750915 5.24957H2.62887C2.63766 5.24957 2.64219 5.24039 2.63748 5.23297C2.38765 4.83597 2.2655 4.36847 2.26544 3.84051C2.26554 2.59477 3.27667 1.33487 5.04716 0.996919C5.16665 0.974111 5.25641 0.871586 5.25641 0.749939C5.25641 0.335872 5.59232 0.000182952 6.00635 0ZM5.25641 2.85196C5.25641 2.66173 5.08024 2.51822 4.90092 2.58173C4.04446 2.88506 3.76542 3.51626 3.76532 3.84051C3.76537 4.13029 3.8297 4.31151 3.90691 4.43421C3.98633 4.56022 4.11227 4.67649 4.3102 4.78477C4.47681 4.87584 4.67093 4.94811 4.89111 5.01158C5.07648 5.06501 5.25641 4.92086 5.25641 4.72794V2.85196Z"
    fill="currentColor"
  />
</svg>
