<svg width="32" height="32" viewBox="0 0 32 32" fill="none" xmlns="http://www.w3.org/2000/svg" data-fui-icon="true">
  <path
    d="M16 0.5C24.5604 0.5 31.5 7.43959 31.5 16C31.5 24.5604 24.5604 31.5 16 31.5C7.43959 31.5 0.5 24.5604 0.5 16C0.5 7.43959 7.43959 0.5 16 0.5ZM16.0117 5.24805C15.5979 5.24836 15.262 5.58425 15.2617 5.99805V7.62598C11.8465 7.91349 10.0273 10.1475 10.0273 12.1719C10.0274 13.0079 10.2196 13.7196 10.5918 14.3125C10.9618 14.9018 11.4791 15.3255 12.0518 15.6396C12.9855 16.1517 14.1564 16.4113 15.2617 16.6201V22.8652C13.9922 22.7399 13.1538 22.3043 12.5967 21.8262C11.923 21.248 11.6019 20.5603 11.4629 20.1357C11.334 19.7422 10.9102 19.5274 10.5166 19.6562C10.1235 19.7854 9.90841 20.2092 10.0371 20.6025C10.2337 21.2027 10.6795 22.1576 11.6201 22.9648C12.4517 23.6784 13.6294 24.2403 15.2617 24.373V25.998C15.2617 26.4121 15.5978 26.7477 16.0117 26.748C16.4259 26.748 16.7617 26.4123 16.7617 25.998V24.3711C20.1791 24.0847 21.9957 21.8505 21.9961 19.8262C21.9961 18.9899 21.803 18.2786 21.4307 17.6855C21.0605 17.096 20.5437 16.6716 19.9707 16.3574C19.0368 15.8454 17.867 15.5848 16.7617 15.376V9.12891C19.5297 9.38675 20.3762 11.056 20.5117 11.6904C20.5982 12.0951 20.9976 12.3535 21.4023 12.2676C21.8073 12.1811 22.0658 11.7819 21.9795 11.377C21.7072 10.1019 20.303 7.89637 16.7617 7.62207V5.99805C16.7615 5.58405 16.4258 5.24805 16.0117 5.24805ZM16.7617 16.9023C17.7366 17.0951 18.589 17.3111 19.249 17.6729C19.6573 17.8967 19.9579 18.1612 20.1602 18.4834C20.3603 18.8023 20.4961 19.2274 20.4961 19.8262C20.4957 20.8857 19.4716 22.597 16.7617 22.8652V16.9023ZM15.2617 15.0928C14.2868 14.9 13.4334 14.6861 12.7734 14.3242C12.3655 14.1004 12.0645 13.8366 11.8623 13.5146C11.6622 13.1959 11.5274 12.7704 11.5273 12.1719C11.5273 11.1134 12.5529 9.40024 15.2617 9.13086V15.0928Z"
    fill="currentColor"
  />
</svg>
