<svg width="24" height="24" viewBox="0 0 24 24" fill="none" xmlns="http://www.w3.org/2000/svg" data-fui-icon="true">
  <path
    d="M12 0.5C18.3513 0.5 23.5 5.64873 23.5 12C23.5 18.3513 18.3513 23.5 12 23.5C5.64873 23.5 0.5 18.3513 0.5 12C0.5 5.64873 5.64873 0.5 12 0.5ZM12 2C6.47715 2 2 6.47715 2 12C2 17.5228 6.47715 22 12 22C17.5228 22 22 17.5228 22 12C22 6.47715 17.5228 2 12 2ZM12.0098 4C12.4237 4.00018 12.7596 4.33607 12.7598 4.75V5.6582C15.3167 5.92752 16.3737 7.5587 16.5869 8.55566C16.6732 8.96064 16.4147 9.35986 16.0098 9.44629C15.6052 9.53202 15.2066 9.27368 15.1201 8.86914C15.0412 8.50018 14.5267 7.41288 12.7598 7.16895V11.3691C13.5279 11.5188 14.3462 11.7157 15.0127 12.0811C15.4553 12.3238 15.864 12.6567 16.1582 13.125C16.4543 13.5968 16.6034 14.1573 16.6035 14.8027C16.6033 16.3772 15.2356 18.0399 12.7598 18.3213V19.25C12.7596 19.6639 12.4237 19.9998 12.0098 20C11.5958 19.9998 11.26 19.6639 11.2598 19.25V18.3223C10.1147 18.1961 9.2661 17.7856 8.65332 17.2598C7.92728 16.6365 7.58365 15.8996 7.43164 15.4355C7.30312 15.0423 7.51807 14.6184 7.91113 14.4893C8.30462 14.3604 8.72835 14.5754 8.85742 14.9688C8.95194 15.2572 9.17174 15.7269 9.63086 16.1211C9.97549 16.4168 10.4888 16.6974 11.2598 16.8105V12.6133C10.4912 12.4639 9.67163 12.2689 9.00488 11.9033C8.56242 11.6606 8.15342 11.3277 7.85938 10.8594C7.56331 10.3876 7.41413 9.82609 7.41406 9.18066C7.41453 7.60613 8.78515 5.94281 11.2598 5.66113V4.75C11.26 4.33607 11.5958 4.00019 12.0098 4ZM12.7598 16.8105C14.4997 16.5563 15.1032 15.4311 15.1035 14.8027C15.1034 14.3949 15.0118 14.1205 14.8877 13.9229C14.7615 13.722 14.5696 13.5488 14.292 13.3965C13.8851 13.1735 13.3672 13.0275 12.7598 12.8994V16.8105ZM11.2598 7.17188C9.52019 7.42635 8.91458 8.55283 8.91406 9.18066C8.91413 9.58839 9.00591 9.86381 9.12988 10.0615C9.25609 10.2625 9.44886 10.4355 9.72656 10.5879C10.1335 10.811 10.6522 10.9541 11.2598 11.082V7.17188Z"
    fill="currentColor"
  />
</svg>
