<svg width="16" height="16" viewBox="0 0 16 16" fill="none" xmlns="http://www.w3.org/2000/svg" data-fui-icon="true">
  <path
    d="M8 0.5C12.1421 0.5 15.5 3.85786 15.5 8C15.5 12.1421 12.1421 15.5 8 15.5C3.85786 15.5 0.5 12.1421 0.5 8C0.5 3.85786 3.85786 0.5 8 0.5ZM8.00391 3C7.45188 3.00026 7.00397 3.44793 7.00391 4V4.14453C5.77917 4.49691 5.0002 5.47574 5 6.5C5.00004 6.93117 5.10256 7.33565 5.32422 7.68945C5.54229 8.03738 5.83753 8.27603 6.12891 8.44238C6.66731 8.74963 7.33905 8.88132 7.79297 8.97754C8.33838 9.09316 8.66733 9.17342 8.87891 9.29395C8.95666 9.33832 8.97757 9.36761 8.98047 9.37207C8.98146 9.37366 8.98533 9.38002 8.98926 9.39453C8.99289 9.40816 8.99566 9.43482 8.99707 9.47754C8.98752 9.48991 8.96857 9.51129 8.93066 9.53809C8.81381 9.62052 8.53449 9.74413 8.00488 9.74414C7.88049 9.74413 7.61125 9.70724 7.31348 9.60938C7.00715 9.50864 6.7993 9.38516 6.70703 9.29297C6.31657 8.90269 5.68345 8.90273 5.29297 9.29297C4.90262 9.68344 4.90266 10.3165 5.29297 10.707C5.70072 11.1147 6.2438 11.3626 6.68848 11.5088C6.79274 11.5431 6.89909 11.5722 7.00488 11.5996V12C7.00488 12.5523 7.4526 13 8.00488 13C8.55695 12.9997 9.00488 12.5521 9.00488 12V11.6289C10.1249 11.3643 10.9999 10.6422 11 9.5C10.9999 9.06892 10.8974 8.66429 10.6758 8.31055C10.4577 7.96279 10.1624 7.72392 9.87109 7.55762C9.3327 7.25042 8.66092 7.1177 8.20703 7.02148C7.6614 6.90582 7.33264 6.82571 7.12109 6.70508C7.03774 6.65749 7.02009 6.62785 7.01953 6.62695C7.01831 6.62506 7.01448 6.61935 7.01074 6.60547C7.00652 6.58958 7.00002 6.55616 7 6.5C7.00044 6.53445 7.09804 6.00491 8.00488 6.00488C8.26326 6.00488 8.48459 6.01048 8.68652 6.07715C8.84913 6.13088 8.9925 6.22151 9.10547 6.44727C9.3525 6.94107 9.95337 7.14141 10.4473 6.89453C10.941 6.64751 11.1413 6.04661 10.8945 5.55273C10.4194 4.60274 9.64613 4.2365 9.00391 4.09473V4C9.00384 3.44777 8.55615 3 8.00391 3Z"
    fill="currentColor"
  />
</svg>
