<svg width="20" height="20" viewBox="0 0 20 20" fill="none" xmlns="http://www.w3.org/2000/svg" data-fui-icon="true">
  <path
    d="M10 0.5C15.2467 0.5 19.5 4.75329 19.5 10C19.5 15.2467 15.2467 19.5 10 19.5C4.75329 19.5 0.5 15.2467 0.5 10C0.5 4.75329 4.75329 0.5 10 0.5ZM10 4C9.44789 4.00021 9 4.44784 9 5V5.08789C7.18604 5.4162 6.01562 6.6209 6.01562 8C6.01562 8.55095 6.15634 9.05142 6.44824 9.47656C6.73368 9.89213 7.11911 10.1699 7.50293 10.3623C7.95961 10.5912 8.49291 10.732 9 10.835V12.8623C8.72491 12.7762 8.53022 12.6629 8.39355 12.5557C8.11666 12.3383 7.99123 12.0854 7.94141 11.9463C7.75501 11.4267 7.18281 11.1567 6.66309 11.3428C6.14342 11.5291 5.87249 12.1013 6.05859 12.6211C6.20055 13.0174 6.51342 13.6232 7.15918 14.1299C7.62776 14.4974 8.23418 14.7812 9 14.915V15C9 15.5522 9.44789 15.9998 10 16C10.5523 16 11 15.5523 11 15V14.9141C12.8242 14.5903 14 13.383 14 12C14 11.449 13.8594 10.9486 13.5674 10.5234C13.2819 10.1078 12.8966 9.83013 12.5127 9.6377C12.0512 9.40642 11.5119 9.26431 11 9.16113V7.12305C11.3018 7.20777 11.5131 7.32339 11.6572 7.43164C11.7957 7.53571 11.8872 7.64338 11.9453 7.73145C11.9742 7.77535 11.9946 7.81378 12.0078 7.84375C12.0143 7.85854 12.0194 7.87099 12.0225 7.87988C12.0239 7.88424 12.0247 7.88822 12.0254 7.89062C12.0258 7.892 12.0262 7.89302 12.0264 7.89355C12.1519 8.43126 12.6898 8.76595 13.2275 8.64062C13.7652 8.51501 14.0991 7.9772 13.9736 7.43945C13.7665 6.55252 12.8705 5.38694 11 5.07812V5C11 4.44772 10.5523 4 10 4ZM11 11.21C11.2411 11.2707 11.4461 11.3391 11.6172 11.4248C11.794 11.5135 11.8772 11.5955 11.9189 11.6562C11.9542 11.7077 12 11.8015 12 12C12 12.0878 11.8424 12.6234 11 12.8721V11.21ZM9 8.78516C8.76586 8.72541 8.56567 8.65903 8.39844 8.5752C8.22162 8.4865 8.1384 8.4045 8.09668 8.34375C8.06144 8.29225 8.01562 8.19829 8.01562 8C8.01562 7.91333 8.17182 7.38286 9 7.13184V8.78516Z"
    fill="currentColor"
  />
</svg>
