<svg width="24" height="24" viewBox="0 0 24 24" fill="none" xmlns="http://www.w3.org/2000/svg" data-fui-icon="true">
  <path
    fill-rule="evenodd"
    clip-rule="evenodd"
    d="M12.0172 0C12.5695 2.57151e-07 13.0172 0.447697 13.0172 0.999959V1.7343C17.2249 2.10569 18.9028 4.80025 19.2298 6.36498C19.3425 6.9054 18.9959 7.43458 18.4554 7.54754C17.9152 7.66009 17.385 7.31429 17.2719 6.77414C17.1179 6.03741 16.1605 4.08811 13.0172 3.74301V11.1734C14.3112 11.425 15.6864 11.7451 16.7915 12.3638C17.4869 12.7532 18.1163 13.2796 18.5668 14.0121C19.0194 14.7483 19.2513 15.6274 19.2513 16.6546C19.251 19.1361 17.0849 21.8724 13.0172 22.2598V22.9991C13.0172 23.5513 12.5695 23.999 12.0172 23.999C11.465 23.999 11.0173 23.5513 11.0173 22.9991V22.2608C9.09667 22.0831 7.69996 21.4006 6.70788 20.5314C5.57015 19.5344 5.03338 18.3579 4.79682 17.6204C4.62828 17.0947 4.91784 16.5315 5.44328 16.3626C5.96916 16.194 6.53239 16.4842 6.70104 17.0101C6.86425 17.5188 7.23999 18.3394 8.02521 19.0275C8.65437 19.5788 9.59565 20.0872 11.0173 20.2521V12.8256C9.7229 12.5739 8.34646 12.2551 7.24106 11.6362C6.54554 11.2468 5.91622 10.7195 5.46574 9.9869C5.01323 9.25092 4.7813 8.37234 4.7812 7.3454C4.7812 4.86359 6.95119 2.12667 11.0173 1.73821V0.999959C11.0173 0.447697 11.465 2.41552e-08 12.0172 0ZM13.0172 20.2521C16.0972 19.893 17.2511 17.8891 17.2514 16.6546C17.2514 15.9364 17.093 15.4329 16.8637 15.0599C16.6323 14.6836 16.2873 14.3738 15.814 14.1088C15.0722 13.6936 14.1193 13.4383 13.0172 13.2114V20.2521ZM11.0173 3.74594C7.93752 4.10603 6.78112 6.112 6.78112 7.3454C6.78121 8.06308 6.93967 8.56626 7.1688 8.93909C7.40016 9.31538 7.74531 9.62618 8.21856 9.8912C8.96047 10.3065 9.91469 10.5607 11.0173 10.7876V3.74594Z"
    fill="currentColor"
  />
</svg>
