<svg width="12" height="12" viewBox="0 0 12 12" fill="none" xmlns="http://www.w3.org/2000/svg" data-fui-icon="true">
  <path
    fill-rule="evenodd"
    clip-rule="evenodd"
    d="M6.36849 4.28165C5.88056 3.79348 5.88041 3.00215 6.36849 2.51407C6.8566 2.02641 7.64803 2.02629 8.13607 2.51407L10.5589 4.93692C11.1446 5.5226 11.1444 6.47318 10.5589 7.05899L8.13607 9.48184C7.64791 9.97 6.85664 9.97 6.36849 9.48184C5.88047 8.99368 5.88038 8.20238 6.36849 7.71427L8.08431 5.99845L6.36849 4.28165ZM1.36849 4.28165C0.880563 3.79348 0.880409 3.00215 1.36849 2.51407C1.8566 2.02641 2.64803 2.02629 3.13607 2.51407L5.55892 4.93692C6.1446 5.5226 6.14438 6.47318 5.55892 7.05899L3.13607 9.48184C2.64791 9.97 1.85664 9.97 1.36849 9.48184C0.880472 8.99368 0.88038 8.20238 1.36849 7.71427L3.08431 5.99845L1.36849 4.28165Z"
    fill="currentColor"
  />
</svg>
