<svg width="16" height="16" viewBox="0 0 16 16" fill="none" xmlns="http://www.w3.org/2000/svg" data-fui-icon="true">
  <path
    d="M10.3228 8.05566C10.9085 8.64138 11.8581 8.64136 12.4438 8.05566C13.0293 7.46986 13.0295 6.52025 12.4438 5.93457L9.29639 2.78711C8.58052 2.07145 7.41954 2.07154 6.70361 2.78711L3.55615 5.93457C2.97043 6.5203 2.97054 7.46986 3.55615 8.05566C4.14193 8.64144 5.09146 8.64144 5.67725 8.05566L7.99951 5.7334L10.3228 8.05566ZM10.3228 13.3057C10.9085 13.8914 11.8581 13.8914 12.4438 13.3057C13.0293 12.7199 13.0295 11.7702 12.4438 11.1846L9.29639 8.03711C8.58052 7.32144 7.41954 7.32153 6.70361 8.03711L3.55615 11.1846C2.97043 11.7703 2.97054 12.7199 3.55615 13.3057C4.14193 13.8914 5.09146 13.8914 5.67725 13.3057L7.99951 10.9834L10.3228 13.3057Z"
    fill="currentColor"
  />
</svg>
