<svg width="12" height="12" viewBox="0 0 12 12" fill="none" xmlns="http://www.w3.org/2000/svg" data-fui-icon="true">
  <path
    fill-rule="evenodd"
    clip-rule="evenodd"
    d="M6.22204 3.92804C5.92938 3.63512 5.92922 3.1603 6.22204 2.86749C6.51489 2.57505 6.9898 2.57495 7.28259 2.86749L9.70544 5.29132C10.0959 5.68175 10.0957 6.31484 9.70544 6.70538L7.28259 9.12823C6.9897 9.42112 6.51494 9.42112 6.22204 9.12823C5.92929 8.83533 5.9292 8.36053 6.22204 8.06768L8.29138 5.99835L6.22204 3.92804ZM2.22204 3.92804C1.92938 3.63512 1.92922 3.1603 2.22204 2.86749C2.51489 2.57505 2.9898 2.57495 3.28259 2.86749L5.70544 5.29132C6.09585 5.68175 6.09567 6.31484 5.70544 6.70538L3.28259 9.12823C2.9897 9.42112 2.51494 9.42112 2.22204 9.12823C1.92929 8.83533 1.9292 8.36053 2.22204 8.06768L4.29138 5.99835L2.22204 3.92804Z"
    fill="currentColor"
  />
</svg>
