<svg width="16" height="16" viewBox="0 0 16 16" fill="none" xmlns="http://www.w3.org/2000/svg" data-fui-icon="true">
  <path
    fill-rule="evenodd"
    clip-rule="evenodd"
    d="M10.6762 8.04301C11.0667 7.65256 11.6997 7.65258 12.0902 8.04301C12.4806 8.43353 12.4807 9.06658 12.0902 9.45707L8.94278 12.6045C8.42211 13.1251 7.57773 13.1251 7.05704 12.6045L3.90958 9.45707C3.51907 9.06656 3.51909 8.43354 3.90958 8.04301C4.30009 7.65249 4.93311 7.65249 5.32364 8.04301L7.99942 10.7188L10.6762 8.04301ZM10.6762 3.29301C11.0667 2.90256 11.6997 2.90258 12.0902 3.29301C12.4807 3.68353 12.4807 4.31658 12.0902 4.70707L8.94278 7.85453C8.4221 8.37516 7.57773 8.37513 7.05704 7.85453L3.90958 4.70707C3.51906 4.31656 3.51908 3.68354 3.90958 3.29301C4.30009 2.90249 4.93311 2.9025 5.32364 3.29301L7.99942 5.96879L10.6762 3.29301Z"
    fill="currentColor"
  />
</svg>
