<svg width="32" height="32" viewBox="0 0 32 32" fill="none" xmlns="http://www.w3.org/2000/svg" data-fui-icon="true">
  <path
    fill-rule="evenodd"
    clip-rule="evenodd"
    d="M7.46802 17.2183C7.76088 16.9254 8.23566 16.9255 8.52856 17.2183C8.82147 17.5112 8.82145 17.9859 8.52856 18.2788L3.55981 23.2486H30.2493C30.6635 23.2486 30.9993 23.5844 30.9993 23.9986C30.9991 24.4127 30.6634 24.7486 30.2493 24.7486H3.55981L8.52856 29.7173C8.82146 30.0102 8.82146 30.485 8.52856 30.7779C8.23567 31.0707 7.76089 31.0707 7.46802 30.7779L1.21899 24.5288C0.926187 24.236 0.926194 23.7612 1.21899 23.4683L7.46802 17.2183ZM23.47 1.21829C23.7629 0.925476 24.2377 0.925415 24.5305 1.21829L30.7795 7.46829C31.0723 7.76118 31.0724 8.23597 30.7795 8.52884L24.5305 14.7779C24.2376 15.0707 23.7629 15.0707 23.47 14.7779C23.1771 14.485 23.1771 14.0102 23.47 13.7173L28.4387 8.74857H1.74927C1.33515 8.74857 0.999428 8.41264 0.999268 7.99857C0.999268 7.58435 1.33505 7.24857 1.74927 7.24857H28.4387L23.47 2.27884C23.1771 1.98594 23.1771 1.51118 23.47 1.21829Z"
    fill="currentColor"
  />
</svg>
