<svg
  width="20"
  height="20"
  viewBox="0 0 20 20"
  fill="none"
  xmlns="http://www.w3.org/2000/svg"
  data-fui-icon="DoubleArrowRightLeftBoldFilled20"
>
  <path
    fill-rule="evenodd"
    clip-rule="evenodd"
    d="M4.94 10.44c.585-.586 1.535-.586 2.12 0 .586.585.586 1.535 0 2.12l-.939.94H17.5c.828 0 1.5.672 1.5 1.5s-.672 1.5-1.5 1.5H6.121l.94.94c.585.585.585 1.535 0 2.12-.586.586-1.536.586-2.122 0l-3.5-3.5C1.16 15.78 1 15.399 1 15s.158-.78.44-1.06l3.5-3.5zm8-10c.585-.586 1.535-.586 2.12 0l3.501 3.5c.282.28.439.663.439 1.06 0 .399-.157.78-.439 1.061l-3.5 3.5c-.586.586-1.536.586-2.121 0-.586-.585-.586-1.535 0-2.12l.939-.94H2.5C1.672 6.5 1 5.829 1 5s.672-1.5 1.5-1.5h11.38l-.94-.94c-.586-.586-.586-1.536 0-2.122z"
    fill="currentColor"
  />
</svg>
