<svg width="20" height="20" viewBox="0 0 20 20" fill="none" xmlns="http://www.w3.org/2000/svg" data-fui-icon="true">
  <path
    fill-rule="evenodd"
    clip-rule="evenodd"
    d="M13.2825 10.1303C13.7705 10.6184 14.5618 10.6182 15.0501 10.1303C15.5381 9.64226 15.538 8.85094 15.0501 8.36272L11.179 4.4887C10.528 3.83745 9.4715 3.83741 8.82057 4.4887L4.94948 8.36272C4.46159 8.85091 4.46149 9.64227 4.94948 10.1303C5.43767 10.6182 6.22901 10.6183 6.71706 10.1303L9.99928 6.84612L13.2825 10.1303ZM13.2825 15.6332C13.7705 16.1213 14.5618 16.1212 15.0501 15.6332C15.5381 15.1452 15.538 14.3539 15.0501 13.8657L11.179 9.99163C10.528 9.34036 9.47151 9.34034 8.82057 9.99163L4.94948 13.8657C4.46154 14.3538 4.46146 15.1452 4.94948 15.6332C5.43769 16.1212 6.22901 16.1213 6.71706 15.6332L9.99928 12.349L13.2825 15.6332Z"
    fill="currentColor"
  />
</svg>
