<svg width="20" height="20" viewBox="0 0 20 20" fill="none" xmlns="http://www.w3.org/2000/svg" data-fui-icon="true">
  <path
    fill-rule="evenodd"
    clip-rule="evenodd"
    d="M14.7067 10.2934C14.3162 9.90288 13.6832 9.90287 13.2926 10.2934C12.9024 10.6839 12.9022 11.317 13.2926 11.7074L15.5856 14.0003H1.99995C1.44779 14.0004 0.999977 14.4481 0.999976 15.0003C1.00009 15.5524 1.44787 16.0001 1.99995 16.0003H15.5856L13.2926 18.2932C12.9024 18.6837 12.9022 19.3168 13.2926 19.7072C13.6831 20.0976 14.3161 20.0975 14.7067 19.7072L18.7066 15.7073C18.8941 15.5198 18.9995 15.2654 18.9995 15.0003C18.9995 14.7351 18.8941 14.4808 18.7066 14.2933L14.7067 10.2934ZM6.70687 0.293605C6.31635 -0.0968836 5.68335 -0.0969001 5.29284 0.293605L1.29294 4.29351C1.10555 4.48102 0.999976 4.73542 0.999976 5.00052C1.00003 5.26564 1.10547 5.52006 1.29294 5.70754L5.29284 9.70744C5.68328 10.0979 6.31633 10.0977 6.70687 9.70744C7.09738 9.31692 7.09738 8.68393 6.70687 8.29341L4.41395 6.0005H17.9996C18.5518 6.0005 18.9994 5.55269 18.9995 5.00052C18.9995 4.44825 18.5518 4.00055 17.9996 4.00055H4.41395L6.70687 1.70763C7.09738 1.31712 7.09738 0.684121 6.70687 0.293605Z"
    fill="currentColor"
  />
</svg>
