<svg width="21" height="21" viewBox="0 0 21 21" fill="none" xmlns="http://www.w3.org/2000/svg" data-fui-icon="true">
  <path
    d="M10.7287 16.3047C10.4213 15.9972 10.4213 15.4978 10.7287 15.1903C11.0362 14.8835 11.5348 14.8833 11.8421 15.1903L14.9618 18.311L14.9618 0.787228C14.9619 0.352442 15.3144 -0.00012815 15.7492 -0.00012815C16.1837 0.00020424 16.5365 0.352648 16.5365 0.787228V18.311L19.6562 15.1903C19.9637 14.8835 20.4623 14.8833 20.7696 15.1903C21.0768 15.4977 21.0767 15.9973 20.7696 16.3047L16.3059 20.7684C16.1584 20.9158 15.9577 20.9989 15.7492 20.9991C15.5406 20.9991 15.3401 20.9158 15.1925 20.7684L10.7287 16.3047ZM0.230671 5.80867C-0.076818 5.5012 -0.0768039 5.00176 0.230671 4.69428L4.6944 0.230543C4.84202 0.0831275 5.04245 -0.000126148 5.25109 -0.00012815C5.45961 3.40399e-05 5.66028 0.0831255 5.80777 0.230543L10.2715 4.69428C10.5786 5.00175 10.5787 5.50131 10.2715 5.80867C9.96422 6.11568 9.46559 6.11543 9.15814 5.80867L6.03845 2.68795L6.03845 20.2117C6.03831 20.6463 5.68557 20.9988 5.25109 20.9991C4.81633 20.9991 4.46387 20.6465 4.46373 20.2117L4.46373 2.68795L1.34404 5.80867C1.03675 6.11568 0.53812 6.11543 0.230671 5.80867Z"
    fill="currentColor"
  />
</svg>
