<svg width="24" height="24" viewBox="0 0 24 24" fill="none" xmlns="http://www.w3.org/2000/svg" data-fui-icon="true">
  <path
    fill-rule="evenodd"
    clip-rule="evenodd"
    d="M14.2089 2.70884C14.5993 2.3183 14.5994 1.68525 14.2089 1.29478C13.8184 0.9046 13.1853 0.904518 12.7948 1.29478L3.21672 10.8729C2.5923 11.4974 2.59236 12.5101 3.21672 13.1346L12.7909 22.7088C13.1814 23.0993 13.8145 23.0993 14.205 22.7088C14.5955 22.3183 14.5955 21.6853 14.205 21.2948L4.91398 12.0038L14.2089 2.70884ZM20.9589 2.70884C21.3493 2.3183 21.3494 1.68525 20.9589 1.29478C20.5684 0.9046 19.9353 0.904518 19.5448 1.29478L9.96672 10.8729C9.3423 11.4974 9.34236 12.5101 9.96672 13.1346L19.5409 22.7088C19.9314 23.0993 20.5645 23.0993 20.955 22.7088C21.3455 22.3183 21.3455 21.6853 20.955 21.2948L11.664 12.0038L20.9589 2.70884Z"
    fill="currentColor"
  />
</svg>
