<svg width="24" height="24" viewBox="0 0 24 24" fill="none" xmlns="http://www.w3.org/2000/svg" data-fui-icon="true">
  <path
    fill-rule="evenodd"
    clip-rule="evenodd"
    d="M17.707 12.2928C17.3165 11.9025 16.6834 11.9023 16.293 12.2928C15.9025 12.6832 15.9027 13.3163 16.293 13.7068L19.5859 16.9998H2C1.44791 16.9999 1.00013 17.4477 1 17.9998C1.00018 18.5518 1.44794 18.9996 2 18.9998H19.5859L16.293 22.2927C15.9025 22.6832 15.9027 23.3163 16.293 23.7068C16.6835 24.0973 17.3165 24.0973 17.707 23.7068L22.707 18.7068C22.8946 18.5193 23 18.265 23 17.9998C22.9999 17.7346 22.8945 17.4802 22.707 17.2927L17.707 12.2928ZM7.70703 0.29275C7.31648 -0.0974879 6.6834 -0.097679 6.29297 0.29275L1.29297 5.29373C0.902941 5.68429 0.902617 6.31743 1.29297 6.70779L6.29297 11.7078C6.68335 12.0981 7.31648 12.0979 7.70703 11.7078C8.09754 11.3173 8.0975 10.6843 7.70703 10.2937L4.41406 7.00076L22 6.99978C22.5522 6.99977 22.9998 6.55191 23 5.99978C22.9999 5.44761 22.5522 4.99978 22 4.99978L4.41406 5.00076L7.70703 1.70681C8.09754 1.31631 8.09751 0.683278 7.70703 0.29275Z"
    fill="currentColor"
  />
</svg>
