<svg width="16" height="16" viewBox="0 0 16 16" fill="none" xmlns="http://www.w3.org/2000/svg" data-fui-icon="true">
  <path
    fill-rule="evenodd"
    clip-rule="evenodd"
    d="M10.4995 8.11654C10.9876 7.62845 11.7789 7.62847 12.267 8.11654C12.7548 8.60471 12.755 9.39607 12.267 9.88412L9.11957 13.0316C8.50133 13.6496 7.49861 13.6495 6.88031 13.0316L3.73285 9.88412C3.24476 9.39602 3.24487 8.60471 3.73285 8.11654C4.221 7.62839 5.01227 7.62839 5.50043 8.11654L7.99945 10.6156L10.4995 8.11654ZM10.4995 2.86654C10.9876 2.37845 11.7789 2.37847 12.267 2.86654C12.7548 3.35471 12.755 4.14607 12.267 4.63412L9.11957 7.78158C8.50133 8.39962 7.49861 8.39953 6.88031 7.78158L3.73285 4.63412C3.24476 4.14602 3.24487 3.35471 3.73285 2.86654C4.221 2.37839 5.01227 2.37839 5.50043 2.86654L7.99945 5.36556L10.4995 2.86654Z"
    fill="currentColor"
  />
</svg>
