<svg width="17" height="17" viewBox="0 0 17 17" fill="none" xmlns="http://www.w3.org/2000/svg" data-fui-icon="true">
  <path
    fill-rule="evenodd"
    clip-rule="evenodd"
    d="M8.72491 13.3104C8.41415 12.9993 8.41393 12.4949 8.72491 12.1839C9.03591 11.873 9.54029 11.8732 9.85139 12.1839L11.9477 14.2803L11.9477 0.796755C11.9479 0.357067 12.3046 0.000287681 12.7443 0.000129659C13.1841 0.000226904 13.5408 0.35703 13.541 0.796755L13.541 14.2803L15.6373 12.1839C15.9483 11.8732 16.4527 11.8733 16.7638 12.1839C17.0746 12.495 17.0746 12.9994 16.7638 13.3104L13.3076 16.7666C12.9965 17.0777 12.4922 17.0775 12.1811 16.7666L8.72491 13.3104ZM0.233795 4.81619C-0.0770672 4.50513 -0.0770672 4.00077 0.233795 3.68971L3.68999 0.233516C4.00105 -0.0772323 4.50545 -0.0773072 4.81647 0.233516L8.27266 3.68971C8.58364 4.00071 8.58345 4.50507 8.27266 4.81619C7.96157 5.12724 7.45728 5.12724 7.14618 4.81619L5.04985 2.71986L5.04985 16.2034C5.04985 16.6432 4.69304 16.9998 4.25323 17C3.81335 16.9999 3.4566 16.6433 3.4566 16.2034L3.4566 2.71986L1.36027 4.81619C1.04917 5.1271 0.544839 5.1272 0.233795 4.81619Z"
    fill="currentColor"
  />
</svg>
