<svg width="24" height="24" viewBox="0 0 24 24" fill="none" xmlns="http://www.w3.org/2000/svg" data-fui-icon="true">
  <path
    fill-rule="evenodd"
    clip-rule="evenodd"
    d="M21.2929 9.79305C21.6834 9.4027 22.3165 9.40259 22.7069 9.79305C23.0971 10.1835 23.0972 10.8167 22.7069 11.2071L13.1288 20.7852C12.5044 21.4096 11.4916 21.4096 10.8671 20.7852L1.29287 11.211C0.902363 10.8205 0.902391 10.1875 1.29287 9.79696C1.6834 9.40643 2.31641 9.40643 2.70693 9.79696L11.9979 19.088L21.2929 9.79305ZM21.2929 3.04305C21.6834 2.6527 22.3165 2.65259 22.7069 3.04305C23.0971 3.43354 23.0972 4.06667 22.7069 4.45711L13.1288 14.0352C12.5044 14.6597 11.4916 14.6596 10.8671 14.0352L1.29287 4.46102C0.902363 4.07051 0.90239 3.43748 1.29287 3.04696C1.6834 2.65643 2.31641 2.65643 2.70693 3.04696L11.9979 12.338L21.2929 3.04305Z"
    fill="currentColor"
  />
</svg>
