<svg width="24" height="24" viewBox="0 0 24 24" fill="none" xmlns="http://www.w3.org/2000/svg" data-fui-icon="true">
  <path
    fill-rule="evenodd"
    clip-rule="evenodd"
    d="M20.866 9.86608C21.3542 9.378 22.1455 9.37795 22.6336 9.86608C23.1216 10.3542 23.1216 11.1456 22.6336 11.6337L13.3055 20.9618C12.5833 21.6838 11.4123 21.6839 10.6903 20.9618L1.36605 11.6337C0.878062 11.1455 0.878018 10.3542 1.36605 9.86608C1.85421 9.3781 2.64554 9.37807 3.13362 9.86608L11.9979 18.7333L20.866 9.86608ZM20.866 2.86608C21.3542 2.378 22.1455 2.37795 22.6336 2.86608C23.1215 3.35423 23.1216 4.14559 22.6336 4.63366L13.3055 13.9618C12.5834 14.6839 11.4124 14.6839 10.6903 13.9618L1.36605 4.63366C0.878034 4.14545 0.877936 3.35415 1.36605 2.86608C1.85421 2.3781 2.64554 2.37807 3.13362 2.86608L11.9979 11.7333L20.866 2.86608Z"
    fill="currentColor"
  />
</svg>
