<svg width="24" height="24" viewBox="0 0 24 24" fill="none" xmlns="http://www.w3.org/2000/svg" data-fui-icon="true">
  <path
    fill-rule="evenodd"
    clip-rule="evenodd"
    d="M9.7123 2.27629C9.4194 1.9835 9.41959 1.5087 9.7123 1.21575C10.0051 0.922876 10.4799 0.922136 10.7728 1.21477L20.6049 11.0439C21.1316 11.5708 21.1317 12.4253 20.6049 12.9521L10.7728 22.7812C10.48 23.0738 10.0052 23.0737 9.7123 22.7812C9.4195 22.4883 9.41948 22.0135 9.7123 21.7206L19.4369 11.999L9.7123 2.27629ZM3.21523 2.27629C2.92232 1.98349 2.92249 1.5087 3.21523 1.21575C3.508 0.922876 3.98282 0.922136 4.27577 1.21477L14.1078 11.0439C14.6347 11.5707 14.6347 12.4252 14.1078 12.9521L4.27577 22.7812C3.98291 23.0739 3.50809 23.0739 3.21523 22.7812C2.92241 22.4883 2.92238 22.0135 3.21523 21.7206L12.9398 11.999L3.21523 2.27629Z"
    fill="currentColor"
  />
</svg>
