<svg width="32" height="32" viewBox="0 0 32 32" fill="none" xmlns="http://www.w3.org/2000/svg" data-fui-icon="true">
  <path
    fill-rule="evenodd"
    clip-rule="evenodd"
    d="M17.3643 7.11804C16.8762 7.6062 16.8762 8.39748 17.3643 8.88562C17.8525 9.37308 18.644 9.37349 19.1319 8.88562L22.7491 5.26746V29.7499C22.7493 30.4399 23.309 30.9997 23.9991 30.9999C24.6891 30.9997 25.2489 30.4399 25.2491 29.7499V5.26746L28.8672 8.88562C29.3554 9.37317 30.1468 9.3734 30.6348 8.88562C31.1228 8.39764 31.1224 7.60624 30.6348 7.11804L24.8829 1.36609C24.3947 0.878109 23.6034 0.877993 23.1153 1.36609L17.3643 7.11804ZM1.36626 23.118C0.878789 23.6063 0.878336 24.3977 1.36626 24.8856L7.11529 30.6337C7.34961 30.8679 7.66777 30.9998 7.99908 30.9999C8.3303 30.9998 8.64856 30.8678 8.88287 30.6337L14.6309 24.8856C15.119 24.3975 15.1188 23.6062 14.6309 23.118C14.1428 22.6299 13.3515 22.6299 12.8633 23.118L9.24908 26.7323L9.24908 2.24988C9.24908 1.5596 8.68932 1.00001 7.99908 0.999878C7.30888 1.00006 6.74908 1.55964 6.74908 2.24988L6.74908 26.7323L3.13384 23.118C2.64569 22.6299 1.85442 22.6299 1.36626 23.118Z"
    fill="currentColor"
  />
</svg>
