<svg width="32" height="32" viewBox="0 0 32 32" fill="none" xmlns="http://www.w3.org/2000/svg" data-fui-icon="true">
  <path
    d="M12.7372 3.31012C12.1516 2.72433 12.1515 1.77476 12.7372 1.18903C13.3229 0.603456 14.2725 0.603456 14.8583 1.18903L28.0262 14.357C28.9363 15.2671 28.9364 16.7429 28.0262 17.6529L14.8583 30.817C14.2725 31.4026 13.3229 31.4027 12.7372 30.817C12.1515 30.2311 12.1515 29.2816 12.7372 28.6959L25.4315 16.0054L12.7372 3.31012ZM3.73718 3.31012C3.15157 2.72433 3.15147 1.77476 3.73718 1.18903C4.32293 0.603456 5.27253 0.603456 5.85828 1.18903L19.0262 14.357C19.9363 15.2671 19.9364 16.7429 19.0262 17.6529L5.85828 30.817C5.27246 31.4026 4.32289 31.4026 3.73718 30.817C3.15154 30.2311 3.15148 29.2816 3.73718 28.6959L16.4315 16.0054L3.73718 3.31012Z"
    fill="currentColor"
  />
</svg>
