<svg width="12" height="12" viewBox="0 0 12 12" fill="none" xmlns="http://www.w3.org/2000/svg" data-fui-icon="true">
  <path
    d="M2.46992 6.21936C2.76282 5.92667 3.23762 5.92653 3.53045 6.21936C3.82322 6.51218 3.82312 6.98699 3.53045 7.27988L2.56074 8.24959H11.25C11.6641 8.24972 11.9999 8.58552 12 8.99957C12 9.4137 11.6641 9.74943 11.25 9.74956H2.56074L3.53045 10.7193C3.82322 11.0121 3.82312 11.4869 3.53045 11.7798C3.23757 12.0727 2.76281 12.0726 2.46992 11.7798L0.219966 9.52984C-0.072921 9.23695 -0.072921 8.7622 0.219966 8.46931L2.46992 6.21936ZM8.4698 0.220454C8.76269 -0.0723696 9.23746 -0.0724117 9.53032 0.220454L11.7803 2.47041C12.073 2.76329 12.073 3.2381 11.7803 3.53093L9.53032 5.78089C9.2375 6.07372 8.7627 6.07359 8.4698 5.78089C8.17691 5.488 8.17691 5.01325 8.4698 4.72036L9.43951 3.75066H0.750229C0.336063 3.75066 0.0003078 3.41482 0.000244136 3.00067C0.000244136 2.58647 0.336024 2.25069 0.750229 2.25069H9.43951L8.4698 1.28098C8.17691 0.988093 8.17691 0.513342 8.4698 0.220454Z"
    fill="currentColor"
  />
</svg>
