<svg width="16" height="16" viewBox="0 0 16 16" fill="none" xmlns="http://www.w3.org/2000/svg" data-fui-icon="true">
  <path
    fill-rule="evenodd"
    clip-rule="evenodd"
    d="M7.4418 2.70816C7.0513 2.31766 7.05136 1.68463 7.4418 1.29409C7.83234 0.903703 8.46538 0.903615 8.85586 1.29409L14.599 7.03726C15.1308 7.56938 15.1309 8.43196 14.599 8.96402L8.85586 14.7072C8.46542 15.0976 7.83234 15.0974 7.4418 14.7072C7.05128 14.3167 7.05128 13.6836 7.4418 13.2931L12.7338 8.00112L7.4418 2.70816ZM1.29336 2.70816C0.902878 2.31767 0.902959 1.68463 1.29336 1.29409C1.68389 0.903568 2.3169 0.90357 2.70743 1.29409L8.45059 7.03726C8.98258 7.56942 8.98268 8.43193 8.45059 8.96402L2.70743 14.7072C2.31693 15.0976 1.68388 15.0976 1.29336 14.7072C0.902853 14.3167 0.902874 13.6836 1.29336 13.2931L6.58536 8.00112L1.29336 2.70816Z"
    fill="currentColor"
  />
</svg>
