<svg width="24" height="24" viewBox="0 0 24 24" fill="none" xmlns="http://www.w3.org/2000/svg" data-fui-icon="true">
  <path
    fill-rule="evenodd"
    clip-rule="evenodd"
    d="M18.0606 12.4388C17.4749 11.8535 16.5252 11.8535 15.9395 12.4388C15.354 13.0246 15.3539 13.9752 15.9395 14.5609L17.879 16.5003H2.50022C1.67191 16.5005 1.00023 17.172 1.00023 18.0003C1.00038 18.8285 1.672 19.5002 2.50022 19.5003H17.879L15.9395 21.4397C15.354 22.0255 15.3539 22.9751 15.9395 23.5608C16.5253 24.1465 17.4748 24.1464 18.0606 23.5608L22.5606 19.0608C22.8418 18.7796 22.9999 18.398 23 18.0003C23 17.6025 22.8419 17.2211 22.5606 16.9398L18.0606 12.4388ZM8.06071 0.439945C7.47492 -0.14583 6.52541 -0.145839 5.93964 0.439945L1.43968 4.9399C1.15858 5.22116 1.00025 5.60278 1.00023 6.00044C1.00032 6.39814 1.15845 6.77975 1.43968 7.06097L5.93964 11.5609C6.52534 12.1465 7.47496 12.1464 8.06071 11.5609C8.64632 10.9752 8.64629 10.0256 8.06071 9.43985L6.12128 7.50042H21.5C22.3283 7.50042 22.9998 6.82871 23 6.00044C23 5.17207 22.3284 4.50045 21.5 4.50045H6.12128L8.06071 2.56102C8.64643 1.97529 8.64633 1.02573 8.06071 0.439945Z"
    fill="currentColor"
  />
</svg>
