<svg width="20" height="20" viewBox="0 0 20 20" fill="none" xmlns="http://www.w3.org/2000/svg" data-fui-icon="true">
  <path
    fill-rule="evenodd"
    clip-rule="evenodd"
    d="M9.79469 6.53852C9.40434 6.1481 9.40439 5.51501 9.79469 5.12446C10.1851 4.73413 10.8182 4.73425 11.2088 5.12446L15.0828 8.99555C15.6364 9.54884 15.6364 10.4471 15.0828 11.0004L11.2088 14.8715C10.8182 15.2619 10.1851 15.2619 9.79469 14.8715C9.40446 14.4809 9.4043 13.8479 9.79469 13.4575L13.2556 9.99848L9.79469 6.53852ZM4.79469 6.53852C4.40435 6.1481 4.4044 5.515 4.79469 5.12446C5.18508 4.73414 5.8182 4.73426 6.20876 5.12446L10.0828 8.99555C10.6364 9.54883 10.6364 10.4471 10.0828 11.0004L6.20876 14.8715C5.81818 15.2619 5.18511 15.2619 4.79469 14.8715C4.40447 14.4809 4.4043 13.8478 4.79469 13.4575L8.25563 9.99848L4.79469 6.53852Z"
    fill="currentColor"
  />
</svg>
