<svg width="20" height="20" viewBox="0 0 20 20" fill="none" xmlns="http://www.w3.org/2000/svg" data-fui-icon="true">
  <path
    fill-rule="evenodd"
    clip-rule="evenodd"
    d="M10.2932 14.7075C9.90275 14.3169 9.90275 13.6839 10.2932 13.2934C10.6838 12.9031 11.3168 12.903 11.7073 13.2934L14.0002 15.5864L14.0002 2.00059C14.0004 1.44842 14.448 1.0006 15.0002 1.0006C15.5523 1.00072 16.0001 1.44849 16.0002 2.00059V15.5864L18.2931 13.2934C18.6837 12.9031 19.3167 12.903 19.7072 13.2934C20.0976 13.6839 20.0975 14.3169 19.7072 14.7075L15.7072 18.7074C15.5198 18.8949 15.2653 19.0003 15.0002 19.0004C14.735 19.0004 14.4807 18.8949 14.2932 18.7074L10.2932 14.7075ZM0.293365 6.70756C-0.0971289 6.31704 -0.0971454 5.68403 0.293365 5.29351L4.29332 1.29356C4.48083 1.10617 4.73523 1.0006 5.00034 1.0006C5.26546 1.00066 5.51988 1.1061 5.70736 1.29356L9.70731 5.29351C10.0978 5.68396 10.0976 6.31702 9.70731 6.70756C9.31679 7.09808 8.68379 7.09808 8.29327 6.70756L6.00033 4.41462L6.00033 18.0004C6.00033 18.5526 5.55252 19.0003 5.00034 19.0004C4.44806 19.0004 4.00035 18.5527 4.00035 18.0004L4.00035 4.41462L1.70741 6.70756C1.31689 7.09808 0.683885 7.09808 0.293365 6.70756Z"
    fill="currentColor"
  />
</svg>
