<svg width="16" height="16" viewBox="0 0 16 16" fill="none" xmlns="http://www.w3.org/2000/svg" data-fui-icon="true">
  <path
    fill-rule="evenodd"
    clip-rule="evenodd"
    d="M8.43825 3.93726C7.85258 4.52292 7.85276 5.47245 8.43825 6.05822C9.00465 6.62461 9.90979 6.64188 10.4987 6.11291V13.4972C10.4987 14.3256 11.1702 14.9971 11.9986 14.9971C12.827 14.9971 13.4985 14.3256 13.4985 13.4972V6.11291C14.0873 6.64367 14.9938 6.6272 15.5609 6.06018C16.1464 5.47444 16.1465 4.5249 15.5609 3.93921L13.0591 1.43741C12.4734 0.851992 11.5238 0.851971 10.9381 1.43741L8.43825 3.93726ZM0.440693 9.93689C-0.144982 10.5226 -0.144907 11.4721 0.440693 12.0579L2.94445 14.5616C3.53019 15.1474 4.47966 15.1473 5.06541 14.5616L7.56916 12.0579C8.15458 11.4721 8.15479 10.5225 7.56916 9.93689C7.0017 9.36961 6.09357 9.35318 5.50484 9.88514L5.50484 2.49789C5.50458 1.66982 4.83304 0.998113 4.00493 0.997986C3.17671 0.99799 2.50528 1.66974 2.50502 2.49789L2.50502 9.88514C1.91635 9.35307 1.00823 9.36971 0.440693 9.93689Z"
    fill="currentColor"
  />
</svg>
