<svg width="20" height="20" viewBox="0 0 20 20" fill="none" xmlns="http://www.w3.org/2000/svg" data-fui-icon="true">
  <path
    fill-rule="evenodd"
    clip-rule="evenodd"
    d="M10.4398 4.93945C9.85438 5.52523 9.85422 6.47486 10.4398 7.06055C11.0255 7.64621 11.9751 7.64598 12.5609 7.06055L13.5003 6.12109L13.5003 17.5C13.5005 18.3281 14.1722 18.9997 15.0003 19C15.8287 19 16.5002 18.3283 16.5003 17.5V6.12109L17.4398 7.06055C18.0255 7.64621 18.9751 7.64598 19.5609 7.06055C20.1467 6.47477 20.1467 5.52524 19.5609 4.93945L16.0609 1.43945C15.7796 1.15825 15.3981 1.00001 15.0003 1C14.6027 1.00015 14.221 1.15829 13.9398 1.43945L10.4398 4.93945ZM0.439787 12.9395C-0.145943 13.5252 -0.145947 14.4748 0.439787 15.0605L3.93979 18.5615C4.22107 18.8427 4.6036 19 5.00131 19C5.39887 18.9998 5.78072 18.8426 6.06186 18.5615L9.56186 15.0605C10.1475 14.4748 10.1474 13.5253 9.56186 12.9395C8.97608 12.3537 8.02655 12.3537 7.44076 12.9395L6.50131 13.8789L6.50131 2.5C6.50131 1.67178 5.82945 1.00034 5.00131 1C4.17288 0.999997 3.50131 1.67157 3.50131 2.5L3.50131 13.8799L2.56088 12.9395C1.97509 12.3537 1.02556 12.3537 0.439787 12.9395Z"
    fill="currentColor"
  />
</svg>
