<svg width="16" height="16" viewBox="0 0 16 16" fill="none" xmlns="http://www.w3.org/2000/svg" data-fui-icon="true">
  <path
    d="M12.6947 8.91504C13.2831 9.49795 14.2327 9.49352 14.8158 8.90527C15.3984 8.31691 15.3941 7.36722 14.806 6.78418L9.26306 1.29004C8.53265 0.566004 7.35353 0.570742 6.62927 1.30078L1.18494 6.79395C0.601972 7.38234 0.606404 8.33192 1.1947 8.91504C1.78309 9.49801 2.73268 9.49357 3.3158 8.90527L7.95935 4.22168L12.6947 8.91504ZM12.6908 15.4102C13.2766 15.9959 14.2261 15.9958 14.8119 15.4102C15.3974 14.8244 15.3975 13.8748 14.8119 13.2891L9.31677 7.79395C8.58944 7.06673 7.41036 7.06687 6.68298 7.79395L1.18982 13.2891C0.604195 13.8749 0.604115 14.8245 1.18982 15.4102C1.77565 15.9957 2.72523 15.9958 3.31091 15.4102L7.99939 10.7197L12.6908 15.4102Z"
    fill="currentColor"
  />
</svg>
