<svg width="32" height="32" viewBox="0 0 32 32" fill="none" xmlns="http://www.w3.org/2000/svg" data-fui-icon="true">
  <path
    fill-rule="evenodd"
    clip-rule="evenodd"
    d="M15.1019 10.3109C14.6149 9.82168 14.6167 9.03039 15.1058 8.54331C15.5951 8.05642 16.3864 8.05804 16.8734 8.54722L22.9593 14.6595C23.7037 15.4073 23.7036 16.6168 22.9593 17.3646L16.8734 23.4769C16.3863 23.9661 15.5951 23.9678 15.1058 23.4808C14.6166 22.9937 14.6148 22.2025 15.1019 21.7132L20.7777 16.0121L15.1019 10.3109ZM8.84605 10.3109C8.35911 9.82168 8.36085 9.03036 8.84995 8.54331C9.33916 8.05635 10.1305 8.0581 10.6175 8.54722L16.7035 14.6595C17.4479 15.4073 17.4479 16.6168 16.7035 17.3646L10.6175 23.4769C10.1305 23.9661 9.33919 23.9679 8.84995 23.4808C8.36082 22.9937 8.35901 22.2024 8.84605 21.7132L14.5218 16.0121L8.84605 10.3109Z"
    fill="currentColor"
  />
</svg>
