<svg width="20" height="20" viewBox="0 0 20 20" fill="none" xmlns="http://www.w3.org/2000/svg" data-fui-icon="true">
  <path
    fill-rule="evenodd"
    clip-rule="evenodd"
    d="M14.8838 10.3664C14.3956 9.8784 13.6043 9.8783 13.1162 10.3664C12.6282 10.8545 12.6282 11.6459 13.1162 12.134L14.7324 13.7502H2.25C1.55977 13.7503 1.00002 14.3099 1 15.0002C1 15.6905 1.55976 16.2501 2.25 16.2502H14.7324L13.1162 17.8664C12.6282 18.3545 12.6282 19.1459 13.1162 19.634C13.6043 20.1221 14.3956 20.122 14.8838 19.634L18.6338 15.884C19.1219 15.3958 19.1219 14.6046 18.6338 14.1164L14.8838 10.3664ZM6.88379 0.366411C6.39562 -0.121601 5.60432 -0.121697 5.11621 0.366411L1.36621 4.11641C1.13186 4.35081 1.00001 4.66874 1 5.0002C1 5.33165 1.13188 5.64958 1.36621 5.88399L5.11621 9.63399C5.60433 10.1221 6.39563 10.122 6.88379 9.63399C7.37194 9.14584 7.37193 8.35457 6.88379 7.86641L5.26758 6.2502H17.75C18.4404 6.2502 19 5.69056 19 5.0002C19 4.30986 18.4403 3.7502 17.75 3.7502H5.26758L6.88379 2.13399C7.37194 1.64583 7.37194 0.854566 6.88379 0.366411Z"
    fill="currentColor"
  />
</svg>
