<svg width="20" height="20" viewBox="0 0 20 20" fill="none" xmlns="http://www.w3.org/2000/svg" data-fui-icon="true">
  <path
    fill-rule="evenodd"
    clip-rule="evenodd"
    d="M16.8701 8.86622C17.3583 8.37822 18.1496 8.37812 18.6377 8.86622C19.1253 9.35436 19.1256 10.1458 18.6377 10.6338L11.2227 18.0488C10.5473 18.7238 9.45253 18.723 8.77735 18.0479L1.36622 10.6338C0.878275 10.1456 0.878247 9.35429 1.36622 8.86622C1.85442 8.37824 2.64574 8.37816 3.1338 8.86622L10 15.7354L16.8701 8.86622ZM16.8701 1.86622C17.3583 1.37822 18.1496 1.37812 18.6377 1.86622C19.1253 2.35436 19.1256 3.14579 18.6377 3.6338L11.2227 11.0488C10.5473 11.7238 9.45254 11.723 8.77735 11.0479L1.36622 3.6338C0.878271 3.14562 0.878232 2.35429 1.36622 1.86622C1.85442 1.37824 2.64574 1.37816 3.1338 1.86622L10 8.73536L16.8701 1.86622Z"
    fill="currentColor"
  />
</svg>
