<svg width="16" height="16" viewBox="0 0 16 16" fill="none" xmlns="http://www.w3.org/2000/svg" data-fui-icon="true">
  <path
    fill-rule="evenodd"
    clip-rule="evenodd"
    d="M11.8843 8.36407C11.3961 7.87617 10.6048 7.876 10.1167 8.36407C9.62884 8.85215 9.62888 9.64353 10.1167 10.1316L10.7329 10.7479H2.25049C1.56036 10.7481 1.00053 11.3077 1.00049 11.9979C1.00049 12.6881 1.56034 13.2476 2.25049 13.2479H10.7329L10.1167 13.8641C9.62886 14.3521 9.62894 15.1435 10.1167 15.6316C10.6048 16.1197 11.3961 16.1196 11.8843 15.6316L14.6343 12.8816C15.1224 12.3935 15.1224 11.6022 14.6343 11.1141L11.8843 8.36407ZM5.88818 0.366018C5.40003 -0.121969 4.60871 -0.122043 4.12061 0.366018L1.3667 3.11992C1.13248 3.35431 1.0005 3.67235 1.00049 4.00371C1.00053 4.3351 1.13242 4.65314 1.3667 4.8875L4.12061 7.64141C4.60866 8.12943 5.40001 8.12924 5.88818 7.64141C6.37632 7.15326 6.3763 6.36199 5.88818 5.87383L5.26807 5.25371H13.7505C14.4408 5.25371 15.0004 4.69399 15.0005 4.00371C15.0005 3.31337 14.4408 2.75371 13.7505 2.75371H5.26807L5.88818 2.1336C6.3763 1.64544 6.37632 0.854159 5.88818 0.366018Z"
    fill="currentColor"
  />
</svg>
