<svg width="21" height="21" viewBox="0 0 21 21" fill="none" xmlns="http://www.w3.org/2000/svg" data-fui-icon="true">
  <path
    fill-rule="evenodd"
    clip-rule="evenodd"
    d="M10.7288 4.69446C10.4213 5.00195 10.4213 5.50139 10.7288 5.80887C11.0363 6.1157 11.5349 6.11591 11.8422 5.80887L14.9619 2.68811L14.9619 20.2121C14.962 20.6469 15.3145 20.9995 15.7493 20.9995C16.1838 20.9992 16.5366 20.6467 16.5367 20.2121V2.68811L19.6564 5.80887C19.9638 6.11569 20.4625 6.11591 20.7698 5.80887C21.077 5.50148 21.0769 5.00191 20.7698 4.69446L16.306 0.230673C16.1585 0.0832556 15.9578 0.000163317 15.7493 0C15.5407 2.00029e-06 15.3402 0.0832968 15.1926 0.230673L10.7288 4.69446ZM0.230614 15.1906C-0.0768778 15.4981 -0.0768647 15.9975 0.230614 16.305L4.6944 20.7688C4.84202 20.9162 5.04246 20.9995 5.25109 20.9995C5.45962 20.9993 5.66029 20.9162 5.80779 20.7688L10.2716 16.305C10.5786 15.9976 10.5788 15.498 10.2716 15.1906C9.96428 14.8836 9.46564 14.8839 9.15819 15.1906L6.03846 18.3114L6.03846 0.787365C6.03832 0.352838 5.68558 0.000331866 5.25109 0C4.81633 0 4.46387 0.352633 4.46373 0.787365L4.46373 18.3114L1.344 15.1906C1.03671 14.8836 0.538067 14.8839 0.230614 15.1906Z"
    fill="currentColor"
  />
</svg>
