<svg width="24" height="24" viewBox="0 0 24 24" fill="none" xmlns="http://www.w3.org/2000/svg" data-fui-icon="true">
  <path
    d="M9.68774 3.31204C9.10203 2.72626 9.10199 1.77671 9.68774 1.19095C10.2735 0.605381 11.2231 0.605297 11.8088 1.19095L21.137 10.5191C21.9566 11.3389 21.9567 12.6681 21.137 13.4878L11.8088 22.812C11.223 23.3976 10.2734 23.3977 9.68774 22.812C9.10217 22.2262 9.10212 21.2766 9.68774 20.6909L18.3782 12.0034L9.68774 3.31204ZM2.68774 3.31204C2.10203 2.72626 2.10199 1.77671 2.68774 1.19095C3.27353 0.605474 4.22314 0.605328 4.80884 1.19095L14.137 10.5191C14.9567 11.3388 14.9567 12.6681 14.137 13.4878L4.80884 22.812C4.22299 23.3977 3.27343 23.3978 2.68774 22.812C2.10217 22.2262 2.10212 21.2766 2.68774 20.6909L11.3782 12.0034L2.68774 3.31204Z"
    fill="currentColor"
  />
</svg>
