<svg width="20" height="20" viewBox="0 0 20 20" fill="none" xmlns="http://www.w3.org/2000/svg" data-fui-icon="true">
  <path
    fill-rule="evenodd"
    clip-rule="evenodd"
    d="M4.93945 10.4394C5.52523 9.85401 6.47486 9.85385 7.06055 10.4394C7.64621 11.0251 7.64598 11.9747 7.06055 12.5605L6.12109 13.5H17.5C18.3281 13.5001 18.9997 14.1719 19 15C19 15.8283 18.3283 16.4998 17.5 16.5H6.12109L7.06055 17.4394C7.64621 18.0251 7.64598 18.9747 7.06055 19.5605C6.47477 20.1463 5.52524 20.1463 4.93945 19.5605L1.43945 16.0605C1.15825 15.7792 1.00001 15.3977 1 15C1.00015 14.6023 1.15829 14.2206 1.43945 13.9394L4.93945 10.4394ZM12.9395 0.439421C13.5252 -0.146309 14.4748 -0.146313 15.0605 0.439421L18.5615 3.93942C18.8427 4.22071 19 4.60323 19 5.00094C18.9998 5.39851 18.8426 5.78035 18.5615 6.06149L15.0605 9.56149C14.4748 10.1472 13.5253 10.147 12.9395 9.56149C12.3537 8.97571 12.3537 8.02618 12.9395 7.4404L13.8789 6.50094H2.5C1.67178 6.50094 1.00034 5.82909 1 5.00094C0.999997 4.17252 1.67157 3.50095 2.5 3.50094H13.8799L12.9395 2.56051C12.3537 1.97473 12.3537 1.0252 12.9395 0.439421Z"
    fill="currentColor"
  />
</svg>
