<svg width="32" height="32" viewBox="0 0 32 32" fill="none" xmlns="http://www.w3.org/2000/svg" data-fui-icon="true">
  <path
    fill-rule="evenodd"
    clip-rule="evenodd"
    d="M15.0263 10.1394C14.637 9.74812 14.6381 9.11498 15.0292 8.72539C15.4205 8.3357 16.0545 8.33703 16.4442 8.72832L22.5321 14.8416C23.1791 15.4919 23.1794 16.543 22.5321 17.1932L16.4442 23.3064C16.0546 23.6976 15.4205 23.6987 15.0292 23.3094C14.6379 22.9196 14.6366 22.2856 15.0263 21.8943L20.8798 16.0174L15.0263 10.1394ZM9.27627 10.1394C8.88699 9.74812 8.88809 9.11498 9.2792 8.72539C9.67051 8.33573 10.3045 8.33704 10.6942 8.72832L16.7821 14.8416C17.4291 15.4919 17.4293 16.543 16.7821 17.1932L10.6942 23.3064C10.3046 23.6976 9.67054 23.6987 9.2792 23.3094C8.88791 22.9196 8.88658 22.2856 9.27627 21.8943L15.1298 16.0174L9.27627 10.1394Z"
    fill="currentColor"
  />
</svg>
