<svg width="32" height="32" viewBox="0 0 32 32" fill="none" xmlns="http://www.w3.org/2000/svg" data-fui-icon="true">
  <path
    d="M7.11853 17.363C7.60671 16.8752 8.39807 16.875 8.88611 17.363C9.37376 17.8511 9.37378 18.6426 8.88611 19.1306L5.26794 22.7478H29.7504C30.4404 22.748 31.0001 23.3078 31.0004 23.9978C31.0004 24.688 30.4405 25.2476 29.7504 25.2478H5.26794L8.88611 28.866C9.37385 29.354 9.37369 30.1454 8.88611 30.6335C8.39803 31.1216 7.60671 31.1215 7.11853 30.6335L1.36658 24.8816C0.878597 24.3934 0.878481 23.6021 1.36658 23.114L7.11853 17.363ZM23.1185 1.36597C23.6067 0.878299 24.3981 0.877974 24.8861 1.36597L30.6342 7.11499C30.8683 7.34937 31.0004 7.66744 31.0004 7.99878C31.0003 8.33008 30.8684 8.64826 30.6342 8.88257L24.8861 14.6306C24.3981 15.1186 23.6067 15.1183 23.1185 14.6306C22.6304 14.1425 22.6304 13.3512 23.1185 12.863L26.7328 9.24878H2.25037C1.56011 9.24878 1.00052 8.689 1.00037 7.99878C1.00036 7.30842 1.56001 6.74878 2.25037 6.74878H26.7328L23.1185 3.13354C22.6304 2.64539 22.6304 1.85412 23.1185 1.36597Z"
    fill="currentColor"
  />
</svg>
