<svg width="20" height="20" viewBox="0 0 20 20" fill="none" xmlns="http://www.w3.org/2000/svg" data-fui-icon="true">
  <path
    fill-rule="evenodd"
    clip-rule="evenodd"
    d="M11.5343 2.68477C11.9248 2.2943 11.9247 1.66125 11.5343 1.27071C11.1438 0.880293 10.5107 0.880222 10.1203 1.27071L2.45912 8.93184C1.88165 9.50952 1.8816 10.446 2.45912 11.0236L10.1203 18.6848C10.5107 19.0752 11.1438 19.0751 11.5343 18.6848C11.9248 18.2943 11.9248 17.6612 11.5343 17.2707L4.24135 9.97774L11.5343 2.68477ZM17.6808 2.68477C18.0713 2.2943 18.0712 1.66125 17.6808 1.27071C17.2903 0.880295 16.6572 0.880222 16.2667 1.27071L8.60561 8.93184C8.02821 9.50952 8.02811 10.446 8.60561 11.0236L16.2667 18.6848C16.6572 19.0751 17.2903 19.075 17.6808 18.6848C18.0712 18.2943 18.0712 17.6612 17.6808 17.2707L10.3878 9.97774L17.6808 2.68477Z"
    fill="currentColor"
  />
</svg>
