<svg width="12" height="12" viewBox="0 0 12 12" fill="none" xmlns="http://www.w3.org/2000/svg" data-fui-icon="true">
  <path
    d="M6.21954 9.5303C5.92685 9.23739 5.92672 8.76259 6.21954 8.46976C6.51237 8.17698 6.98719 8.17709 7.28008 8.46976L8.24979 9.43948V0.750114C8.24993 0.336069 8.58573 0.000205038 8.99979 0.000122069C9.41391 0.000122069 9.74965 0.336017 9.74978 0.750114V9.43948L10.7195 8.46976C11.0123 8.17698 11.4871 8.17709 11.78 8.46976C12.0729 8.76264 12.0729 9.2374 11.78 9.5303L9.53005 11.7803C9.23716 12.0732 8.76241 12.0732 8.46952 11.7803L6.21954 9.5303ZM0.220579 3.53036C-0.0722482 3.23746 -0.0722904 2.76269 0.220579 2.46982L2.47056 0.219846C2.76344 -0.0728419 3.23826 -0.0729201 3.53109 0.219846L5.78107 2.46982C6.0739 2.76265 6.07378 3.23745 5.78107 3.53036C5.48818 3.82325 5.01342 3.82325 4.72053 3.53036L3.75082 2.56064L3.75082 11.25C3.75082 11.6642 3.41498 11.9999 3.00082 12C2.58661 12 2.25083 11.6642 2.25083 11.25L2.25083 2.56064L1.28111 3.53036C0.988225 3.82325 0.513469 3.82325 0.220579 3.53036Z"
    fill="currentColor"
  />
</svg>
