<svg width="12" height="12" viewBox="0 0 12 12" fill="none" xmlns="http://www.w3.org/2000/svg" data-fui-icon="true">
  <path
    fill-rule="evenodd"
    clip-rule="evenodd"
    d="M5.63421 9.8844C6.12242 9.39636 6.12225 8.60416 5.63421 8.11594C5.25982 7.74153 4.70708 7.65526 4.24951 7.85521L4.25049 1.25008C4.25049 0.559889 3.69071 0.000339491 3.00055 0.000141137C2.31035 0.000233638 1.75066 0.559841 1.75062 1.25008L1.74964 7.85521C1.29227 7.65566 0.740142 7.74182 0.365921 8.11594C-0.121941 8.60403 -0.121979 9.39536 0.365921 9.88343L2.11583 11.6333C2.60376 12.1213 3.39513 12.1219 3.88332 11.6343L5.63421 9.8844ZM11.6339 3.88373C12.1219 3.39552 12.1221 2.60331 11.6339 2.11527L9.88301 0.365357C9.39483 -0.122246 8.60347 -0.12161 8.11553 0.366333L6.36562 2.11624C5.87775 2.60433 5.87772 3.39566 6.36562 3.88373C6.73983 4.25784 7.29197 4.34399 7.74933 4.14446L7.75031 10.7496C7.75035 11.4398 8.31004 11.9994 9.00025 11.9995C9.69041 11.9993 10.2502 11.4398 10.2502 10.7496L10.2492 4.14446C10.7068 4.34441 11.2595 4.25811 11.6339 3.88373Z"
    fill="currentColor"
  />
</svg>
