<svg width="12" height="12" viewBox="0 0 12 12" fill="none" xmlns="http://www.w3.org/2000/svg" data-fui-icon="true">
  <path
    fill-rule="evenodd"
    clip-rule="evenodd"
    d="M6.28232 2.63181C6.77026 2.14367 6.77032 1.35233 6.28232 0.86423C5.79423 0.376136 5.00291 0.376258 4.51474 0.86423L0.441501 4.93747C-0.144263 5.52326 -0.144268 6.47278 0.441501 7.05857L4.51474 11.1318C5.00291 11.6199 5.7942 11.6199 6.28232 11.1318C6.77026 10.6437 6.77033 9.85233 6.28232 9.36423L2.91611 5.99802L6.28232 2.63181ZM11.6319 2.63181C12.1201 2.14366 12.1201 1.35239 11.6319 0.86423C11.1438 0.376169 10.3525 0.376106 9.86435 0.86423L5.79111 4.93747C5.20538 5.52323 5.20544 6.47278 5.79111 7.05857L9.86435 11.1318C10.3525 11.62 11.1438 11.62 11.6319 11.1318C12.1201 10.6437 12.1201 9.85239 11.6319 9.36423L8.26572 5.99802L11.6319 2.63181Z"
    fill="currentColor"
  />
</svg>
