<svg width="32" height="32" viewBox="0 0 32 32" fill="none" xmlns="http://www.w3.org/2000/svg" data-fui-icon="true">
  <path
    fill-rule="evenodd"
    clip-rule="evenodd"
    d="M19.692 2.28013C19.9849 1.9873 19.9848 1.51252 19.692 1.21958C19.3991 0.927109 18.9242 0.926924 18.6314 1.21958L4.96543 14.8807C4.34816 15.4978 4.34847 16.4988 4.96543 17.1161L18.6314 30.7782C18.9244 31.071 19.3991 31.071 19.692 30.7782C19.9848 30.4853 19.9848 30.0105 19.692 29.7176L6.02598 16.0555C5.99504 16.0241 5.99473 15.9735 6.02598 15.9422L19.692 2.28013ZM27.2809 2.28013C27.5738 1.9873 27.5736 1.51252 27.2809 1.21958C26.988 0.926966 26.5132 0.926876 26.2203 1.21958L12.5543 14.8807C11.937 15.4978 11.9372 16.4988 12.5543 17.1161L26.2203 30.7782C26.5132 31.071 26.988 31.071 27.2809 30.7782C27.5736 30.4853 27.5737 30.0105 27.2809 29.7176L13.6148 16.0555C13.5838 16.0241 13.5836 15.9735 13.6148 15.9422L27.2809 2.28013Z"
    fill="currentColor"
  />
</svg>
