<svg width="20" height="20" viewBox="0 0 20 20" fill="none" xmlns="http://www.w3.org/2000/svg" data-fui-icon="true">
  <path
    fill-rule="evenodd"
    clip-rule="evenodd"
    d="M14.7069 10.2934C14.3164 9.90288 13.6834 9.90287 13.2929 10.2934C12.9026 10.6839 12.9025 11.317 13.2929 11.7074L15.5858 14.0003H2.0002C1.44804 14.0004 1.00022 14.4481 1.00022 15.0003C1.00034 15.5524 1.44811 16.0001 2.0002 16.0003H15.5858L13.2929 18.2932C12.9026 18.6837 12.9025 19.3168 13.2929 19.7072C13.6833 20.0976 14.3164 20.0975 14.7069 19.7072L18.7068 15.7073C18.8943 15.5198 18.9997 15.2654 18.9998 15.0003C18.9998 14.7351 18.8944 14.4808 18.7068 14.2933L14.7069 10.2934ZM6.70711 0.293605C6.3166 -0.0968836 5.68359 -0.0969001 5.29308 0.293605L1.29318 4.29351C1.10579 4.48102 1.00022 4.73542 1.00022 5.00052C1.00028 5.26564 1.10572 5.52006 1.29318 5.70754L5.29308 9.70744C5.68352 10.0979 6.31658 10.0977 6.70711 9.70744C7.09763 9.31692 7.09763 8.68393 6.70711 8.29341L4.4142 6.0005H17.9998C18.552 6.0005 18.9997 5.55269 18.9998 5.00052C18.9998 4.44825 18.5521 4.00055 17.9998 4.00055H4.4142L6.70711 1.70763C7.09763 1.31712 7.09763 0.684121 6.70711 0.293605Z"
    fill="currentColor"
  />
</svg>
