<svg width="21" height="21" viewBox="0 0 21 21" fill="none" xmlns="http://www.w3.org/2000/svg" data-fui-icon="true">
  <path
    fill-rule="evenodd"
    clip-rule="evenodd"
    d="M10.7288 16.305C10.4213 15.9975 10.4213 15.4981 10.7288 15.1906C11.0363 14.8838 11.5349 14.8836 11.8422 15.1906L14.9619 18.3114L14.9619 0.787365C14.962 0.352574 15.3145 0 15.7493 0C16.1838 0.000332394 16.5366 0.35278 16.5367 0.787365V18.3114L19.6564 15.1906C19.9638 14.8838 20.4625 14.8836 20.7698 15.1906C21.077 15.498 21.0769 15.9976 20.7698 16.305L16.306 20.7688C16.1585 20.9162 15.9578 20.9993 15.7493 20.9995C15.5407 20.9995 15.3402 20.9162 15.1926 20.7688L10.7288 16.305ZM0.230614 5.80887C-0.0768778 5.50139 -0.0768647 5.00195 0.230614 4.69446L4.6944 0.230673C4.84202 0.0832567 5.04246 2.00237e-06 5.25109 0C5.45962 0.000164195 5.66029 0.0832547 5.80779 0.230673L10.2716 4.69446C10.5786 5.00193 10.5788 5.5015 10.2716 5.80887C9.96428 6.11589 9.46564 6.11563 9.15819 5.80887L6.03846 2.68811L6.03846 20.2121C6.03832 20.6466 5.68558 20.9992 5.25109 20.9995C4.81633 20.9995 4.46387 20.6469 4.46373 20.2121L4.46373 2.68811L1.344 5.80887C1.03671 6.11588 0.538067 6.11563 0.230614 5.80887Z"
    fill="currentColor"
  />
</svg>
