<svg width="12" height="12" viewBox="0 0 12 12" fill="none" xmlns="http://www.w3.org/2000/svg" data-fui-icon="true">
  <path
    fill-rule="evenodd"
    clip-rule="evenodd"
    d="M5.45535 4.10478C5.84564 3.71424 5.84579 3.08117 5.45535 2.69072C5.06487 2.30067 4.43169 2.30056 4.04128 2.69072L1.61843 5.11455C1.1304 5.6026 1.13059 6.39395 1.61843 6.88213L4.04128 9.30498C4.43181 9.6955 5.06482 9.6955 5.45535 9.30498C5.84573 8.91444 5.84582 8.28139 5.45535 7.89091L3.56277 5.99834L5.45535 4.10478ZM10.4553 4.10478C10.8456 3.71424 10.8458 3.08117 10.4553 2.69072C10.0649 2.30067 9.43169 2.30056 9.04128 2.69072L6.61843 5.11455C6.1304 5.6026 6.13059 6.39395 6.61843 6.88213L9.04128 9.30498C9.43181 9.6955 10.0648 9.6955 10.4553 9.30498C10.8457 8.91444 10.8458 8.28139 10.4553 7.89091L8.56277 5.99834L10.4553 4.10478Z"
    fill="currentColor"
  />
</svg>
