<svg width="20" height="20" viewBox="0 0 20 20" fill="none" xmlns="http://www.w3.org/2000/svg" data-fui-icon="true">
  <path
    fill-rule="evenodd"
    clip-rule="evenodd"
    d="M8.66387 3.33572C8.07824 2.74993 8.07814 1.80037 8.66387 1.21463C9.24964 0.62936 10.1993 0.629147 10.785 1.21463L18.2 8.62967C18.9726 9.40267 18.9718 10.6557 18.199 11.4285L10.785 18.8396C10.1992 19.4252 9.24955 19.4252 8.66387 18.8396C8.0783 18.2538 8.07819 17.3042 8.66387 16.7185L15.3563 10.0301L8.66387 3.33572ZM1.66387 3.33572C1.07824 2.74993 1.07814 1.80037 1.66387 1.21463C2.24964 0.629364 3.19932 0.629148 3.78496 1.21463L11.2 8.62967C11.9726 9.40267 11.9718 10.6557 11.199 11.4285L3.78496 18.8396C3.19915 19.4252 2.24955 19.4252 1.66387 18.8396C1.0783 18.2538 1.07819 17.3042 1.66387 16.7185L8.35625 10.0301L1.66387 3.33572Z"
    fill="currentColor"
  />
</svg>
