<svg width="16" height="16" viewBox="0 0 16 16" fill="none" xmlns="http://www.w3.org/2000/svg" data-fui-icon="true">
  <path
    fill-rule="evenodd"
    clip-rule="evenodd"
    d="M8.55673 2.70816C8.94723 2.31766 8.94717 1.68463 8.55673 1.29409C8.1662 0.903703 7.53315 0.903615 7.14267 1.29409L1.39951 7.03726C0.867715 7.56938 0.867597 8.43196 1.39951 8.96402L7.14267 14.7072C7.53311 15.0976 8.16619 15.0974 8.55673 14.7072C8.94726 14.3167 8.94726 13.6836 8.55673 13.2931L3.26474 8.00112L8.55673 2.70816ZM14.7052 2.70816C15.0957 2.31767 15.0956 1.68463 14.7052 1.29409C14.3146 0.903568 13.6816 0.90357 13.2911 1.29409L7.54795 7.03726C7.01596 7.56942 7.01585 8.43193 7.54795 8.96402L13.2911 14.7072C13.6816 15.0976 14.3147 15.0976 14.7052 14.7072C15.0957 14.3167 15.0957 13.6836 14.7052 13.2931L9.41318 8.00112L14.7052 2.70816Z"
    fill="currentColor"
  />
</svg>
