<svg width="12" height="12" viewBox="0 0 12 12" fill="none" xmlns="http://www.w3.org/2000/svg" data-fui-icon="true">
  <path
    fill-rule="evenodd"
    clip-rule="evenodd"
    d="M9.71967 6.42669C10.0125 6.71936 10.4874 6.71939 10.7802 6.42669C11.073 6.13386 11.0729 5.65905 10.7802 5.36615L6.70697 1.2929C6.31645 0.902401 5.68343 0.902396 5.29291 1.2929L1.21967 5.36615C0.926903 5.65905 0.926819 6.13384 1.21967 6.42669C1.51254 6.71936 1.98737 6.7194 2.28022 6.42669L5.99994 2.70697L9.71967 6.42669ZM9.71967 10.7763C10.0126 11.0692 10.4873 11.0692 10.7802 10.7763C11.0731 10.4834 11.0731 10.0086 10.7802 9.71575L6.70697 5.64251C6.31647 5.25203 5.68344 5.25206 5.29291 5.64251L1.21967 9.71575C0.926777 10.0086 0.926777 10.4834 1.21967 10.7763C1.51256 11.0692 1.98732 11.0692 2.28022 10.7763L5.99994 7.05658L9.71967 10.7763Z"
    fill="currentColor"
  />
</svg>
