<svg width="32" height="32" viewBox="0 0 32 32" fill="none" xmlns="http://www.w3.org/2000/svg" data-fui-icon="true">
  <path
    fill-rule="evenodd"
    clip-rule="evenodd"
    d="M17.2195 7.4668C16.9266 7.75966 16.9267 8.23444 17.2195 8.52734C17.5124 8.82025 17.9872 8.82023 18.2801 8.52734L23.2498 3.55859L23.2498 30.248C23.2498 30.6623 23.5856 30.998 23.9998 30.998C24.4139 30.9979 24.7498 30.6622 24.7498 30.248L24.7498 3.55859L29.7185 8.52734C30.0114 8.82024 30.4862 8.82024 30.7791 8.52734C31.0719 8.23445 31.072 7.75967 30.7791 7.4668L24.5301 1.21777C24.2372 0.924966 23.7624 0.924974 23.4695 1.21777L17.2195 7.4668ZM1.21951 23.4688C0.926696 23.7617 0.926636 24.2364 1.21951 24.5293L7.46951 30.7783C7.7624 31.0711 8.23719 31.0711 8.53006 30.7783L14.7791 24.5293C15.0719 24.2364 15.0719 23.7616 14.7791 23.4688C14.4862 23.1759 14.0114 23.1759 13.7185 23.4688L8.74979 28.4375L8.74979 1.74805C8.74979 1.33393 8.41386 0.998208 7.99979 0.998047C7.58557 0.998047 7.24979 1.33383 7.24979 1.74805L7.24979 28.4375L2.28006 23.4688C1.98716 23.1759 1.5124 23.1758 1.21951 23.4688Z"
    fill="currentColor"
  />
</svg>
