<svg width="20" height="20" viewBox="0 0 20 20" fill="none" xmlns="http://www.w3.org/2000/svg" data-fui-icon="true">
  <path
    fill-rule="evenodd"
    clip-rule="evenodd"
    d="M10.2932 14.7076C9.90269 14.317 9.90268 13.684 10.2932 13.2935C10.6837 12.9032 11.3168 12.9031 11.7072 13.2935L14.0002 15.5865L14.0002 2.0006C14.0003 1.44843 14.448 1.00061 15.0002 1.0006C15.5523 1.00072 16 1.4485 16.0002 2.0006L16.0002 15.5865L18.2931 13.2935C18.6837 12.9032 19.3167 12.9031 19.7072 13.2935C20.0976 13.6839 20.0975 14.317 19.7072 14.7076L15.7072 18.7075C15.5197 18.895 15.2653 19.0004 15.0002 19.0005C14.735 19.0005 14.4807 18.8951 14.2932 18.7075L10.2932 14.7076ZM0.293244 6.7076C-0.0972515 6.31708 -0.0972681 5.68406 0.293244 5.29355L4.29322 1.29357C4.48073 1.10618 4.73514 1.0006 5.00025 1.0006C5.26537 1.00066 5.51979 1.1061 5.70727 1.29357L9.70725 5.29355C10.0977 5.68399 10.0976 6.31706 9.70725 6.7076C9.31673 7.09812 8.68372 7.09812 8.2932 6.7076L6.00024 4.41465L6.00024 18.0005C6.00024 18.5527 5.55243 19.0004 5.00025 19.0005C4.44797 19.0005 4.00025 18.5528 4.00025 18.0005L4.00025 4.41465L1.7073 6.7076C1.31678 7.09812 0.683767 7.09812 0.293244 6.7076Z"
    fill="currentColor"
  />
</svg>
