<svg width="12" height="12" viewBox="0 0 12 12" fill="none" xmlns="http://www.w3.org/2000/svg" data-fui-icon="true">
  <path
    fill-rule="evenodd"
    clip-rule="evenodd"
    d="M9.71967 6.42666C10.0125 6.71933 10.4874 6.71936 10.7802 6.42666C11.073 6.13383 11.0729 5.65902 10.7802 5.36612L6.70697 1.29287C6.31645 0.90237 5.68343 0.902366 5.29291 1.29287L1.21967 5.36612C0.926903 5.65902 0.926819 6.13381 1.21967 6.42666C1.51254 6.71933 1.98737 6.71937 2.28022 6.42666L5.99994 2.70693L9.71967 6.42666ZM9.71967 10.7763C10.0126 11.0692 10.4873 11.0692 10.7802 10.7763C11.0731 10.4834 11.0731 10.0086 10.7802 9.71572L6.70697 5.64248C6.31647 5.252 5.68344 5.25203 5.29291 5.64248L1.21967 9.71572C0.926777 10.0086 0.926777 10.4834 1.21967 10.7763C1.51256 11.0692 1.98732 11.0692 2.28022 10.7763L5.99994 7.05654L9.71967 10.7763Z"
    fill="currentColor"
  />
</svg>
