<svg width="24" height="24" viewBox="0 0 24 24" fill="none" xmlns="http://www.w3.org/2000/svg" data-fui-icon="true">
  <path
    fill-rule="evenodd"
    clip-rule="evenodd"
    d="M12.4387 18.061C11.8534 17.4753 11.8533 16.5256 12.4387 15.9399C13.0245 15.3544 13.9751 15.3543 14.5608 15.9399L16.5003 17.8794V2.50049C16.5004 1.67217 17.1719 1.00049 18.0003 1.00049C18.8285 1.00064 19.5001 1.67227 19.5003 2.50049V17.8794L21.4397 15.9399C22.0255 15.3544 22.9751 15.3543 23.5608 15.9399C24.1465 16.5257 24.1464 17.4752 23.5608 18.061L19.0608 22.561C18.7796 22.8423 18.398 23.0004 18.0003 23.0005C17.6024 23.0005 17.221 22.8423 16.9397 22.561L12.4387 18.061ZM0.439706 8.06104C-0.146075 7.47524 -0.146085 6.52572 0.439706 5.93994L4.93971 1.43994C5.22097 1.15883 5.60259 1.00051 6.00025 1.00049C6.39796 1.00057 6.77957 1.15871 7.0608 1.43994L11.5608 5.93994C12.1463 6.52565 12.1463 7.47528 11.5608 8.06104C10.9751 8.64665 10.0255 8.64662 9.43971 8.06104L7.50025 6.12158L7.50025 21.5005C7.50025 22.3288 6.82854 23.0003 6.00025 23.0005C5.17188 23.0004 4.50025 22.3289 4.50025 21.5005L4.50025 6.12158L2.5608 8.06104C1.97506 8.64676 1.0255 8.64666 0.439706 8.06104Z"
    fill="currentColor"
  />
</svg>
