<svg width="20" height="20" viewBox="0 0 20 20" fill="none" xmlns="http://www.w3.org/2000/svg" data-fui-icon="true">
  <path
    fill-rule="evenodd"
    clip-rule="evenodd"
    d="M16.8704 11.1886C17.3585 11.6767 18.1498 11.6767 18.638 11.1886C19.1256 10.7005 19.1258 9.90909 18.638 9.42107L11.2229 2.00603C10.5476 1.33109 9.45278 1.33186 8.7776 2.00701L1.36647 9.42107C0.87852 9.90924 0.878491 10.7006 1.36647 11.1886C1.85467 11.6766 2.64598 11.6767 3.13404 11.1886L10.0003 4.31951L16.8704 11.1886ZM16.8704 18.1886C17.3585 18.6767 18.1498 18.6767 18.638 18.1886C19.1256 17.7005 19.1258 16.9091 18.638 16.4211L11.2229 9.00603C10.5476 8.33107 9.45278 8.33186 8.7776 9.00701L1.36647 16.4211C0.878515 16.9092 0.878477 17.7006 1.36647 18.1886C1.85467 18.6766 2.64598 18.6767 3.13404 18.1886L10.0003 11.3195L16.8704 18.1886Z"
    fill="currentColor"
  />
</svg>
