<svg width="16" height="16" viewBox="0 0 16 16" fill="none" xmlns="http://www.w3.org/2000/svg" data-fui-icon="true">
  <path
    fill-rule="evenodd"
    clip-rule="evenodd"
    d="M10.6762 8.04289C11.0667 7.65243 11.6997 7.65245 12.0902 8.04289C12.4806 8.43341 12.4807 9.06646 12.0902 9.45695L8.94278 12.6044C8.42211 13.125 7.57773 13.125 7.05704 12.6044L3.90958 9.45695C3.51907 9.06644 3.51909 8.43342 3.90958 8.04289C4.30009 7.65237 4.93311 7.65237 5.32364 8.04289L7.99942 10.7187L10.6762 8.04289ZM10.6762 3.29289C11.0667 2.90243 11.6997 2.90246 12.0902 3.29289C12.4807 3.68341 12.4807 4.31645 12.0902 4.70695L8.94278 7.85441C8.4221 8.37504 7.57773 8.37501 7.05704 7.85441L3.90958 4.70695C3.51906 4.31644 3.51908 3.68342 3.90958 3.29289C4.30009 2.90237 4.93311 2.90237 5.32364 3.29289L7.99942 5.96867L10.6762 3.29289Z"
    fill="currentColor"
  />
</svg>
