<svg width="20" height="20" viewBox="0 0 20 20" fill="none" xmlns="http://www.w3.org/2000/svg" data-fui-icon="true">
  <path
    d="M8.66406 3.33569C8.07843 2.7499 8.07833 1.80034 8.66406 1.2146C9.24984 0.629332 10.1995 0.629118 10.7852 1.2146L18.2002 8.62964C18.9728 9.40265 18.972 10.6557 18.1992 11.4285L10.7852 18.8396C10.1993 19.4251 9.24974 19.4252 8.66406 18.8396C8.07849 18.2538 8.07838 17.3042 8.66406 16.7185L15.3564 10.03L8.66406 3.33569ZM1.66406 3.33569C1.07843 2.7499 1.07833 1.80034 1.66406 1.2146C2.24984 0.629335 3.19951 0.62912 3.78516 1.2146L11.2002 8.62964C11.9728 9.40264 11.972 10.6557 11.1992 11.4285L3.78516 18.8396C3.19934 19.4251 2.24974 19.4252 1.66406 18.8396C1.07849 18.2538 1.07838 17.3042 1.66406 16.7185L8.35645 10.03L1.66406 3.33569Z"
    fill="currentColor"
  />
</svg>
