<svg width="24" height="24" viewBox="0 0 24 24" fill="none" xmlns="http://www.w3.org/2000/svg" data-fui-icon="true">
  <path
    fill-rule="evenodd"
    clip-rule="evenodd"
    d="M9.68784 3.31197C9.10212 2.72618 9.10208 1.77664 9.68784 1.19088C10.2736 0.605309 11.2232 0.605225 11.8089 1.19088L21.1371 10.519C21.9567 11.3388 21.9568 12.6681 21.1371 13.4878L11.8089 22.812C11.2231 23.3976 10.2735 23.3976 9.68784 22.812C9.10226 22.2262 9.10222 21.2766 9.68784 20.6909L18.3783 12.0034L9.68784 3.31197ZM2.68784 3.31197C2.10212 2.72618 2.10208 1.77664 2.68784 1.19088C3.27362 0.605402 4.22323 0.605255 4.80893 1.19088L14.1371 10.519C14.9568 11.3388 14.9568 12.668 14.1371 13.4878L4.80893 22.812C4.22309 23.3976 3.27352 23.3977 2.68784 22.812C2.10226 22.2262 2.10222 21.2766 2.68784 20.6909L11.3783 12.0034L2.68784 3.31197Z"
    fill="currentColor"
  />
</svg>
