<svg width="12" height="12" viewBox="0 0 12 12" fill="none" xmlns="http://www.w3.org/2000/svg" data-fui-icon="true">
  <path
    fill-rule="evenodd"
    clip-rule="evenodd"
    d="M5.63414 9.8845C6.12236 9.39645 6.12219 8.60424 5.63414 8.11602C5.25975 7.7416 4.707 7.65534 4.24943 7.85529L4.25041 1.25009C4.25041 0.559895 3.69063 0.000339494 3.00046 0.000141138C2.31025 0.000233641 1.75056 0.559847 1.75051 1.25009L1.74953 7.85529C1.29216 7.65574 0.740028 7.7419 0.365802 8.11602C-0.122064 8.60412 -0.122103 9.39545 0.365802 9.88353L2.11573 11.6335C2.60366 12.1214 3.39504 12.122 3.88324 11.6344L5.63414 9.8845ZM11.6339 3.88377C12.1219 3.39555 12.1221 2.60334 11.6339 2.11529L9.88299 0.365361C9.3948 -0.122247 8.60344 -0.121611 8.11549 0.366337L6.36556 2.11627C5.87768 2.60436 5.87766 3.39569 6.36556 3.88377C6.73977 4.25789 7.29193 4.34404 7.74929 4.1445L7.75027 10.7497C7.75031 11.4399 8.31 11.9996 9.00022 11.9997C9.69039 11.9995 10.2502 11.4399 10.2502 10.7497L10.2492 4.1445C10.7067 4.34445 11.2595 4.25815 11.6339 3.88377Z"
    fill="currentColor"
  />
</svg>
