<svg width="12" height="12" viewBox="0 0 12 12" fill="none" xmlns="http://www.w3.org/2000/svg" data-fui-icon="true">
  <path
    fill-rule="evenodd"
    clip-rule="evenodd"
    d="M5.45522 4.10481C5.84552 3.71427 5.84567 3.0812 5.45522 2.69075C5.06474 2.3007 4.43157 2.30059 4.04116 2.69075L1.61831 5.11458C1.13027 5.60263 1.13047 6.39398 1.61831 6.88216L4.04116 9.30501C4.43168 9.69553 5.0647 9.69553 5.45522 9.30501C5.84561 8.91447 5.8457 8.28142 5.45522 7.89094L3.56264 5.99837L5.45522 4.10481ZM10.4552 4.10481C10.8455 3.71427 10.8457 3.0812 10.4552 2.69075C10.0647 2.3007 9.43157 2.30059 9.04116 2.69075L6.61831 5.11458C6.13027 5.60263 6.13047 6.39398 6.61831 6.88216L9.04116 9.30501C9.43168 9.69553 10.0647 9.69553 10.4552 9.30501C10.8456 8.91447 10.8457 8.28142 10.4552 7.89094L8.56264 5.99837L10.4552 4.10481Z"
    fill="currentColor"
  />
</svg>
