<svg width="20" height="20" viewBox="0 0 20 20" fill="none" xmlns="http://www.w3.org/2000/svg" data-fui-icon="true">
  <path
    fill-rule="evenodd"
    clip-rule="evenodd"
    d="M15.0608 10.4394C14.475 9.85401 13.5254 9.85385 12.9397 10.4394C12.354 11.0251 12.3543 11.9747 12.9397 12.5605L13.8792 13.5H2.50024C1.67211 13.5001 1.00054 14.1719 1.00024 15C1.00024 15.8283 1.67193 16.4998 2.50024 16.5H13.8792L12.9397 17.4394C12.354 18.0251 12.3543 18.9747 12.9397 19.5605C13.5255 20.1463 14.475 20.1463 15.0608 19.5605L18.5608 16.0605C18.842 15.7792 19.0002 15.3977 19.0002 15C19.0001 14.6023 18.842 14.2206 18.5608 13.9394L15.0608 10.4394ZM7.06079 0.439421C6.47501 -0.146309 5.52547 -0.146313 4.9397 0.439421L1.43872 3.93942C1.15756 4.22071 1.00024 4.60323 1.00024 5.00094C1.00042 5.39851 1.1576 5.78035 1.43872 6.06149L4.9397 9.56149C5.5254 10.1472 6.47499 10.147 7.06079 9.56149C7.64656 8.97571 7.64655 8.02618 7.06079 7.4404L6.12134 6.50094H17.5002C18.3285 6.50094 18.9999 5.82909 19.0002 5.00094C19.0002 4.17252 18.3287 3.50095 17.5002 3.50094H6.12036L7.06079 2.56051C7.64654 1.97473 7.64656 1.0252 7.06079 0.439421Z"
    fill="currentColor"
  />
</svg>
