<svg width="16" height="16" viewBox="0 0 16 16" fill="none" xmlns="http://www.w3.org/2000/svg" data-fui-icon="true">
  <path
    fill-rule="evenodd"
    clip-rule="evenodd"
    d="M10.6762 7.95211C11.0667 8.34256 11.6997 8.34254 12.0902 7.95211C12.4806 7.56159 12.4807 6.92853 12.0902 6.53804L8.94278 3.39058C8.42211 2.86997 7.57773 2.87001 7.05704 3.39058L3.90958 6.53804C3.51907 6.92855 3.51909 7.56158 3.90958 7.95211C4.30009 8.34263 4.93311 8.34262 5.32364 7.95211L7.99942 5.27633L10.6762 7.95211ZM10.6762 12.7021C11.0667 13.0926 11.6997 13.0925 12.0902 12.7021C12.4807 12.3116 12.4807 11.6785 12.0902 11.288L8.94278 8.14058C8.4221 7.61996 7.57773 7.61999 7.05704 8.14058L3.90958 11.288C3.51906 11.6786 3.51908 12.3116 3.90958 12.7021C4.30009 13.0926 4.93311 13.0926 5.32364 12.7021L7.99942 10.0263L10.6762 12.7021Z"
    fill="currentColor"
  />
</svg>
