<svg width="12" height="12" viewBox="0 0 12 12" fill="none" xmlns="http://www.w3.org/2000/svg" data-fui-icon="true">
  <path
    fill-rule="evenodd"
    clip-rule="evenodd"
    d="M6.22204 3.92807C5.92938 3.63515 5.92922 3.16034 6.22204 2.86752C6.51489 2.57508 6.9898 2.57498 7.28259 2.86752L9.70544 5.29135C10.0959 5.68178 10.0957 6.31487 9.70544 6.70541L7.28259 9.12826C6.9897 9.42115 6.51494 9.42115 6.22204 9.12826C5.92929 8.83536 5.9292 8.36056 6.22204 8.06771L8.29138 5.99838L6.22204 3.92807ZM2.22204 3.92807C1.92938 3.63515 1.92922 3.16034 2.22204 2.86752C2.51489 2.57508 2.9898 2.57498 3.28259 2.86752L5.70544 5.29135C6.09585 5.68178 6.09567 6.31487 5.70544 6.70541L3.28259 9.12826C2.9897 9.42115 2.51494 9.42115 2.22204 9.12826C1.92929 8.83536 1.9292 8.36056 2.22204 8.06771L4.29138 5.99838L2.22204 3.92807Z"
    fill="currentColor"
  />
</svg>
