<svg width="16" height="16" viewBox="0 0 16 16" fill="none" xmlns="http://www.w3.org/2000/svg" data-fui-icon="true">
  <path
    fill-rule="evenodd"
    clip-rule="evenodd"
    d="M7.38556 3.60592C6.80265 3.01755 6.80708 2.06794 7.39533 1.48482C7.9837 0.902171 8.93338 0.906486 9.51642 1.49459L15.0106 7.03756C15.7346 7.76796 15.7299 8.94709 14.9998 9.67135L9.50666 15.1157C8.91827 15.6986 7.96868 15.6942 7.38556 15.1059C6.80259 14.5175 6.80703 13.5679 7.39533 12.9848L12.0789 8.34127L7.38556 3.60592ZM0.890446 3.60982C0.304733 3.02406 0.304762 2.07451 0.890446 1.48873C1.47624 0.90325 2.42585 0.903086 3.01154 1.48873L8.50666 6.98385C9.23388 7.71118 9.23373 8.89026 8.50666 9.61764L3.01154 15.1108C2.42571 15.6964 1.47615 15.6965 0.890446 15.1108C0.304865 14.525 0.304756 13.5754 0.890446 12.9897L5.58088 8.30123L0.890446 3.60982Z"
    fill="currentColor"
  />
</svg>
