<svg width="16" height="16" viewBox="0 0 16 16" fill="none" xmlns="http://www.w3.org/2000/svg" data-fui-icon="true">
  <path
    d="M8.61572 3.6059C9.19864 3.01753 9.1942 2.06792 8.60596 1.4848C8.01759 0.902149 7.0679 0.906464 6.48486 1.49457L0.990723 7.03754C0.266687 7.76794 0.271425 8.94707 1.00146 9.67133L6.49463 15.1157C7.08302 15.6986 8.03261 15.6942 8.61572 15.1059C9.19869 14.5175 9.19426 13.5679 8.60596 12.9848L3.92236 8.34125L8.61572 3.6059ZM15.1108 3.6098C15.6966 3.02404 15.6965 2.07449 15.1108 1.48871C14.525 0.903228 13.5754 0.903064 12.9897 1.48871L7.49463 6.98383C6.76741 7.71116 6.76755 8.89024 7.49463 9.61761L12.9897 15.1108C13.5756 15.6964 14.5251 15.6965 15.1108 15.1108C15.6964 14.5249 15.6965 13.5754 15.1108 12.9897L10.4204 8.30121L15.1108 3.6098Z"
    fill="currentColor"
  />
</svg>
