<svg width="16" height="16" viewBox="0 0 16 16" fill="none" xmlns="http://www.w3.org/2000/svg" data-fui-icon="true">
  <path
    fill-rule="evenodd"
    clip-rule="evenodd"
    d="M13.7179 8.88159C14.0107 9.17452 14.4855 9.1744 14.7784 8.88159C15.0713 8.58874 15.0712 8.11397 14.7784 7.82104L8.78624 1.82592C8.3517 1.3914 7.64652 1.39133 7.21202 1.82592L1.21983 7.82104C0.927048 8.11393 0.927046 8.58874 1.21983 8.88159C1.51275 9.17439 1.98753 9.17444 2.28038 8.88159L7.99913 3.16088L13.7179 8.88159ZM13.7179 14.28C14.0107 14.573 14.4855 14.5728 14.7784 14.28C15.0714 13.9872 15.0713 13.5124 14.7784 13.2195L8.78624 7.22436C8.35169 6.78988 7.6465 6.78975 7.21202 7.22436L1.21983 13.2195C0.927068 13.5124 0.927106 13.9872 1.21983 14.28C1.51275 14.5728 1.98753 14.5729 2.28038 14.28L7.99913 8.55932L13.7179 14.28Z"
    fill="currentColor"
  />
</svg>
