<svg width="12" height="12" viewBox="0 0 12 12" fill="none" xmlns="http://www.w3.org/2000/svg" data-fui-icon="true">
  <path
    fill-rule="evenodd"
    clip-rule="evenodd"
    d="M5.89446 2.45515C5.50415 2.06465 5.50411 1.43156 5.89446 1.04109C6.28492 0.650627 6.91798 0.650749 7.30852 1.04109L11.3818 5.11433C11.8699 5.60249 11.8699 6.39376 11.3818 6.88191L7.30852 10.9552C6.91799 11.3456 6.28494 11.3456 5.89446 10.9552C5.50415 10.5647 5.5041 9.93156 5.89446 9.54109L9.43742 5.99812L5.89446 2.45515ZM0.544846 2.45515C0.154325 2.06463 0.15433 1.43162 0.544846 1.04109C0.935377 0.650641 1.56841 0.650591 1.95891 1.04109L6.03215 5.11433C6.52026 5.60246 6.52021 6.39376 6.03215 6.88191L1.95891 10.9552C1.56838 11.3457 0.935371 11.3457 0.544846 10.9552C0.154322 10.5646 0.154322 9.93162 0.544846 9.54109L4.08782 5.99812L0.544846 2.45515Z"
    fill="currentColor"
  />
</svg>
