<svg width="20" height="20" viewBox="0 0 20 20" fill="none" xmlns="http://www.w3.org/2000/svg" data-fui-icon="true">
  <path
    fill-rule="evenodd"
    clip-rule="evenodd"
    d="M8.66655 2.28147C8.37378 1.98866 8.37389 1.51382 8.66655 1.22093C8.95934 0.928358 9.43424 0.927467 9.72709 1.21995L17.6392 9.13206C18.1191 9.61207 18.119 10.3903 17.6392 10.8703L9.72709 18.7815C9.43419 19.0743 8.95943 19.0744 8.66655 18.7815C8.37376 18.4886 8.37369 18.0138 8.66655 17.7209L16.3863 10.0012L8.66655 2.28147ZM2.22123 2.28147C1.92865 1.98864 1.92864 1.51376 2.22123 1.22093C2.51396 0.928307 2.98887 0.927612 3.28178 1.21995L11.1939 9.13206C11.6738 9.61211 11.6738 10.3903 11.1939 10.8703L3.28178 18.7815C2.98888 19.0743 2.51411 19.0744 2.22123 18.7815C1.92863 18.4886 1.92844 18.0137 2.22123 17.7209L9.94096 10.0012L2.22123 2.28147Z"
    fill="currentColor"
  />
</svg>
