<svg width="20" height="20" viewBox="0 0 20 20" fill="none" xmlns="http://www.w3.org/2000/svg" data-fui-icon="true">
  <path
    fill-rule="evenodd"
    clip-rule="evenodd"
    d="M11.3342 2.28147C11.627 1.98866 11.6268 1.51382 11.3342 1.22093C11.0414 0.928358 10.5665 0.927467 10.2736 1.21995L2.36153 9.13206C1.88164 9.61207 1.88169 10.3903 2.36153 10.8703L10.2736 18.7815C10.5665 19.0743 11.0413 19.0744 11.3342 18.7815C11.627 18.4886 11.627 18.0138 11.3342 17.7209L3.61446 10.0012L11.3342 2.28147ZM17.7795 2.28147C18.0721 1.98864 18.0721 1.51376 17.7795 1.22093C17.4868 0.928307 17.0119 0.927612 16.719 1.21995L8.80684 9.13206C8.32692 9.61211 8.32689 10.3903 8.80684 10.8703L16.719 18.7815C17.0119 19.0743 17.4866 19.0744 17.7795 18.7815C18.0721 18.4886 18.0723 18.0137 17.7795 17.7209L10.0598 10.0012L17.7795 2.28147Z"
    fill="currentColor"
  />
</svg>
