<svg width="12" height="12" viewBox="0 0 12 12" fill="none" xmlns="http://www.w3.org/2000/svg" data-fui-icon="true">
  <path
    fill-rule="evenodd"
    clip-rule="evenodd"
    d="M6.42865 2.27825C6.72131 1.98539 6.72134 1.51055 6.42865 1.21771C6.13581 0.924875 5.66101 0.924997 5.3681 1.21771L1.29486 5.29095C0.904354 5.68147 0.904349 6.31449 1.29486 6.70501L5.3681 10.7783C5.661 11.071 6.13579 11.0711 6.42865 10.7783C6.72131 10.4854 6.72135 10.0106 6.42865 9.71771L2.70892 5.99798L6.42865 2.27825ZM10.7783 2.27825C11.0711 1.98536 11.0711 1.5106 10.7783 1.21771C10.4854 0.92487 10.0106 0.924833 9.71771 1.21771L5.64447 5.29095C5.25398 5.68145 5.25402 6.31449 5.64447 6.70501L9.71771 10.7783C10.0106 11.0711 10.4854 11.0711 10.7783 10.7783C11.0711 10.4854 11.0711 10.0106 10.7783 9.71771L7.05853 5.99798L10.7783 2.27825Z"
    fill="currentColor"
  />
</svg>
