<svg width="16" height="16" viewBox="0 0 16 16" fill="none" xmlns="http://www.w3.org/2000/svg" data-fui-icon="true">
  <path
    fill-rule="evenodd"
    clip-rule="evenodd"
    d="M4.1167 8.364C4.60488 7.87623 5.39625 7.87598 5.88428 8.364C6.37223 8.85203 6.37201 9.64342 5.88428 10.1316L5.26807 10.7478H13.7505C14.4405 10.748 15.0003 11.3077 15.0005 11.9978C15.0005 12.688 14.4406 13.2475 13.7505 13.2478H5.26807L5.88428 13.864C6.37221 14.352 6.37195 15.1434 5.88428 15.6316C5.39613 16.1197 4.60485 16.1197 4.1167 15.6316L1.3667 12.8816C0.878565 12.3934 0.878556 11.6021 1.3667 11.114L4.1167 8.364ZM10.1128 0.365953C10.601 -0.121904 11.3923 -0.122065 11.8804 0.365953L14.6343 3.11986C14.8686 3.35424 15.0005 3.67226 15.0005 4.00365C15.0005 4.33503 14.8685 4.65305 14.6343 4.88744L11.8804 7.64134C11.3923 8.12941 10.601 8.1293 10.1128 7.64134C9.62465 7.1532 9.62467 6.36192 10.1128 5.87377L10.7329 5.25365H2.25049C1.56013 5.25365 1.00049 4.69401 1.00049 4.00365C1.00055 3.31335 1.56017 2.75365 2.25049 2.75365H10.7329L10.1128 2.13353C9.62468 1.64537 9.62465 0.854095 10.1128 0.365953Z"
    fill="currentColor"
  />
</svg>
