<svg width="32" height="32" viewBox="0 0 32 32" fill="none" xmlns="http://www.w3.org/2000/svg" data-fui-icon="true">
  <path
    fill-rule="evenodd"
    clip-rule="evenodd"
    d="M14.908 10.4711C14.3236 9.88402 14.3258 8.93352 14.9129 8.34903C15.5 7.76474 16.4506 7.76689 17.035 8.35391L23.12 14.4672C23.9613 15.3125 23.9613 16.6785 23.12 17.5238L17.035 23.6371C16.4506 24.2241 15.5 24.2263 14.9129 23.642C14.3259 23.0575 14.3236 22.107 14.908 21.5199L20.408 15.9955L14.908 10.4711ZM8.68538 10.4711C8.101 9.88401 8.10322 8.93348 8.69027 8.34903C9.27733 7.76466 10.2279 7.76695 10.8123 8.35391L16.8973 14.4672C17.7388 15.3125 17.7388 16.6785 16.8973 17.5238L10.8123 23.6371C10.2279 24.2242 9.27736 24.2264 8.69027 23.642C8.10331 23.0575 8.10102 22.107 8.68538 21.5199L14.1854 15.9955L8.68538 10.4711Z"
    fill="currentColor"
  />
</svg>
