<svg width="12" height="12" viewBox="0 0 12 12" fill="none" xmlns="http://www.w3.org/2000/svg" data-fui-icon="true">
  <path
    fill-rule="evenodd"
    clip-rule="evenodd"
    d="M6.42877 2.27838C6.72143 1.98551 6.72147 1.51067 6.42877 1.21783C6.13594 0.924997 5.66113 0.925119 5.36822 1.21783L1.29498 5.29107C0.904476 5.68159 0.904471 6.31462 1.29498 6.70513L5.36822 10.7784C5.66112 11.0711 6.13592 11.0712 6.42877 10.7784C6.72144 10.4855 6.72147 10.0107 6.42877 9.71783L2.70904 5.9981L6.42877 2.27838ZM10.7784 2.27838C11.0713 1.98549 11.0713 1.51072 10.7784 1.21783C10.4855 0.924993 10.0107 0.924955 9.71783 1.21783L5.64459 5.29107C5.25411 5.68158 5.25414 6.31461 5.64459 6.70513L9.71783 10.7784C10.0107 11.0713 10.4855 11.0713 10.7784 10.7784C11.0713 10.4855 11.0713 10.0107 10.7784 9.71783L7.05865 5.9981L10.7784 2.27838Z"
    fill="currentColor"
  />
</svg>
