<svg width="32" height="32" viewBox="0 0 32 32" fill="none" xmlns="http://www.w3.org/2000/svg" data-fui-icon="true">
  <path
    fill-rule="evenodd"
    clip-rule="evenodd"
    d="M12.9136 3.13354C12.4257 2.64537 12.4256 1.85406 12.9136 1.36596C13.4018 0.878019 14.1931 0.878019 14.6812 1.36596L27.8492 14.5339C28.6617 15.3464 28.6617 16.6639 27.8492 17.4763L14.6812 30.6404C14.193 31.1284 13.4017 31.1284 12.9136 30.6404C12.4256 30.1522 12.4256 29.3609 12.9136 28.8728L25.7847 16.0056L12.9136 3.13354ZM3.91365 3.13354C3.42566 2.64537 3.42557 1.85406 3.91365 1.36596C4.40176 0.878019 5.19311 0.878019 5.68123 1.36596L18.8492 14.5339C19.6616 15.3464 19.6617 16.6639 18.8492 17.4763L5.68123 30.6404C5.19305 31.1284 4.40174 31.1284 3.91365 30.6404C3.42562 30.1522 3.42557 29.3609 3.91365 28.8728L16.7847 16.0056L3.91365 3.13354Z"
    fill="currentColor"
  />
</svg>
