<svg width="12" height="12" viewBox="0 0 12 12" fill="none" xmlns="http://www.w3.org/2000/svg" data-fui-icon="true">
  <path
    fill-rule="evenodd"
    clip-rule="evenodd"
    d="M6.42865 2.27829C6.72131 1.98542 6.72134 1.51058 6.42865 1.21774C6.13581 0.924906 5.66101 0.925028 5.3681 1.21774L1.29486 5.29098C0.904354 5.6815 0.904349 6.31452 1.29486 6.70504L5.3681 10.7783C5.661 11.0711 6.13579 11.0711 6.42865 10.7783C6.72131 10.4854 6.72135 10.0106 6.42865 9.71774L2.70892 5.99801L6.42865 2.27829ZM10.7783 2.27829C11.0711 1.98539 11.0711 1.51063 10.7783 1.21774C10.4854 0.924901 10.0106 0.924864 9.71771 1.21774L5.64447 5.29098C5.25398 5.68148 5.25402 6.31452 5.64447 6.70504L9.71771 10.7783C10.0106 11.0712 10.4854 11.0712 10.7783 10.7783C11.0711 10.4854 11.0711 10.0106 10.7783 9.71774L7.05853 5.99801L10.7783 2.27829Z"
    fill="currentColor"
  />
</svg>
