<svg width="32" height="32" viewBox="0 0 32 32" fill="none" xmlns="http://www.w3.org/2000/svg" data-fui-icon="true">
  <path
    fill-rule="evenodd"
    clip-rule="evenodd"
    d="M25.0591 17.4367C24.4733 16.851 23.5238 16.8509 22.938 17.4367C22.3527 18.0225 22.3525 18.9721 22.938 19.5578L25.8794 22.4982H2.49858C1.67045 22.4984 0.998766 23.1701 0.998579 23.9982C0.998657 24.8264 1.67039 25.498 2.49858 25.4982H25.8794L22.938 28.4396C22.3526 29.0254 22.3525 29.975 22.938 30.5607C23.5237 31.1464 24.4733 31.1462 25.0591 30.5607L30.5611 25.0587C31.1465 24.4729 31.1467 23.5233 30.5611 22.9377L25.0591 17.4367ZM9.05913 1.43765C8.47337 0.852213 7.52373 0.852111 6.93803 1.43765L1.43803 6.93765C0.852596 7.52336 0.852629 8.47302 1.43803 9.05875L6.93999 14.5607C7.5257 15.1462 8.47532 15.1462 9.06108 14.5607C9.64665 13.975 9.64665 13.0254 9.06108 12.4396L6.11967 9.4982H29.4986C30.327 9.4982 30.9985 8.82658 30.9986 7.9982C30.9984 7.16989 30.3269 6.4982 29.4986 6.4982H6.11967L9.05913 3.55875C9.64477 2.97295 9.64487 2.02339 9.05913 1.43765Z"
    fill="currentColor"
  />
</svg>
