<svg width="16" height="16" viewBox="0 0 16 16" fill="none" xmlns="http://www.w3.org/2000/svg" data-fui-icon="true">
  <path
    fill-rule="evenodd"
    clip-rule="evenodd"
    d="M11.7196 10.2199C12.0125 9.92702 12.4872 9.92702 12.7801 10.2199C13.073 10.5128 13.073 10.9876 12.7801 11.2805L8.28012 15.7805C7.98721 16.0731 7.51237 16.0732 7.21957 15.7805L2.71957 11.2805C2.42677 10.9877 2.42695 10.5128 2.71957 10.2199C3.01246 9.92702 3.48722 9.92702 3.78012 10.2199L7.74984 14.1896L11.7196 10.2199ZM7.21957 0.219914C7.51246 -0.0729791 7.98722 -0.0729791 8.28012 0.219914L12.7801 4.71991C13.0729 5.01281 13.073 5.48759 12.7801 5.78046C12.4872 6.07313 12.0124 6.07322 11.7196 5.78046L7.74984 1.81073L3.78012 5.78046C3.48723 6.07313 3.0124 6.07322 2.71957 5.78046C2.42674 5.48763 2.42688 5.01282 2.71957 4.71991L7.21957 0.219914Z"
    fill="currentColor"
  />
</svg>
