<svg width="32" height="32" viewBox="0 0 32 32" fill="none" xmlns="http://www.w3.org/2000/svg" data-fui-icon="true">
  <path
    d="M17.2196 24.5294C16.9267 24.2366 16.9268 23.7618 17.2196 23.4689C17.5125 23.176 17.9872 23.176 18.2802 23.4689L23.2499 28.4376L23.2499 1.74817C23.2499 1.33396 23.5857 0.998169 23.9999 0.998169C24.414 0.99832 24.7499 1.33405 24.7499 1.74817L24.7499 28.4376L29.7186 23.4689C30.0115 23.176 30.4863 23.176 30.7792 23.4689C31.072 23.7618 31.072 24.2365 30.7792 24.5294L24.5302 30.7784C24.2373 31.0712 23.7625 31.0712 23.4696 30.7784L17.2196 24.5294ZM1.2196 8.52747C0.926787 8.23456 0.926726 7.75978 1.2196 7.46692L7.4696 1.2179C7.76249 0.925102 8.23728 0.925081 8.53015 1.2179L14.7792 7.46692C15.072 7.75979 15.072 8.23457 14.7792 8.52747C14.4863 8.82036 14.0115 8.82036 13.7186 8.52747L8.74988 3.55872L8.74988 30.2482C8.74988 30.6623 8.41395 30.998 7.99988 30.9982C7.58566 30.9982 7.24988 30.6624 7.24988 30.2482L7.24988 3.55872L2.28015 8.52747C1.98725 8.82035 1.51249 8.82037 1.2196 8.52747Z"
    fill="currentColor"
  />
</svg>
