<svg width="24" height="24" viewBox="0 0 24 24" fill="none" xmlns="http://www.w3.org/2000/svg" data-fui-icon="true">
  <path
    fill-rule="evenodd"
    clip-rule="evenodd"
    d="M14.2833 2.27629C14.5762 1.9835 14.576 1.5087 14.2833 1.21575C13.9905 0.922876 13.5157 0.922136 13.2228 1.21477L3.39073 11.0439C2.86405 11.5708 2.86388 12.4253 3.39073 12.9521L13.2228 22.7812C13.5156 23.0738 13.9904 23.0737 14.2833 22.7812C14.5761 22.4883 14.5761 22.0135 14.2833 21.7206L4.5587 11.999L14.2833 2.27629ZM20.7804 2.27629C21.0733 1.98349 21.0731 1.5087 20.7804 1.21575C20.4876 0.922876 20.0128 0.922136 19.7198 1.21477L9.8878 11.0439C9.3609 11.5707 9.36088 12.4252 9.8878 12.9521L19.7198 22.7812C20.0127 23.0739 20.4875 23.0739 20.7804 22.7812C21.0732 22.4883 21.0732 22.0135 20.7804 21.7206L11.0558 11.999L20.7804 2.27629Z"
    fill="currentColor"
  />
</svg>
