<svg width="24" height="24" viewBox="0 0 24 24" fill="none" xmlns="http://www.w3.org/2000/svg" data-fui-icon="true">
  <path
    fill-rule="evenodd"
    clip-rule="evenodd"
    d="M14.1354 3.13542C14.6235 2.64726 14.6235 1.85597 14.1354 1.36784C13.6472 0.879904 12.8559 0.879822 12.3678 1.36784L3.03968 10.696C2.31764 11.4181 2.31754 12.5891 3.03968 13.3112L12.3678 22.6354C12.856 23.1234 13.6473 23.1234 14.1354 22.6354C14.6234 22.1472 14.6234 21.3559 14.1354 20.8678L5.2682 12.0036L14.1354 3.13542ZM21.1354 3.13542C21.6235 2.64726 21.6235 1.85597 21.1354 1.36784C20.6472 0.879999 19.8559 0.879852 19.3678 1.36784L10.0397 10.696C9.31759 11.4181 9.31761 12.5891 10.0397 13.3112L19.3678 22.6354C19.856 23.1234 20.6473 23.1235 21.1354 22.6354C21.6234 22.1472 21.6234 21.3559 21.1354 20.8678L12.2682 12.0036L21.1354 3.13542Z"
    fill="currentColor"
  />
</svg>
