<svg width="16" height="16" viewBox="0 0 16 16" fill="none" xmlns="http://www.w3.org/2000/svg" data-fui-icon="true">
  <path
    fill-rule="evenodd"
    clip-rule="evenodd"
    d="M8.43815 3.4303C8.92406 2.94 8.92059 2.1487 8.43034 1.66272C7.94004 1.17706 7.14866 1.18042 6.66276 1.67053L1.16764 7.2135C0.54092 7.84596 0.546183 8.86681 1.17838 9.49377L6.67057 14.9381C7.16087 15.4241 7.95217 15.4206 8.43815 14.9303C8.92406 14.44 8.92059 13.6487 8.43034 13.1627L3.56901 8.34338L8.43815 3.4303ZM14.9342 3.43323C15.4223 2.9451 15.4223 2.1538 14.9342 1.66565C14.4461 1.1778 13.6547 1.17763 13.1667 1.66565L7.67155 7.16076C7.04196 7.79047 7.0421 8.81129 7.67155 9.44104L13.1667 14.9342C13.6549 15.4222 14.4462 15.4223 14.9342 14.9342C15.4222 14.446 15.4223 13.6547 14.9342 13.1666L10.0671 8.30139L14.9342 3.43323Z"
    fill="currentColor"
  />
</svg>
