<svg width="12" height="12" viewBox="0 0 12 12" fill="none" xmlns="http://www.w3.org/2000/svg" data-fui-icon="true">
  <path
    fill-rule="evenodd"
    clip-rule="evenodd"
    d="M9.36612 6.28026C9.85425 6.7682 10.6456 6.76826 11.1337 6.28026C11.6218 5.79217 11.6217 5.00085 11.1337 4.51268L7.06045 0.439441C6.47467 -0.146323 5.52514 -0.146328 4.93936 0.439441L0.866117 4.51268C0.37805 5.00085 0.377991 5.79214 0.866117 6.28026C1.35426 6.7682 2.14559 6.76827 2.63369 6.28026L5.99991 2.91405L9.36612 6.28026ZM9.36612 11.6299C9.85427 12.118 10.6455 12.118 11.1337 11.6299C11.6218 11.1417 11.6218 10.3504 11.1337 9.86229L7.06045 5.78905C6.4747 5.20332 5.52515 5.20338 4.93936 5.78905L0.866117 9.86229C0.377961 10.3504 0.377961 11.1417 0.866117 11.6299C1.35427 12.118 2.14554 12.118 2.63369 11.6299L5.99991 8.26366L9.36612 11.6299Z"
    fill="currentColor"
  />
</svg>
