<svg width="24" height="24" viewBox="0 0 24 24" fill="none" xmlns="http://www.w3.org/2000/svg" data-fui-icon="true">
  <path
    d="M5.46761 12.2208C5.76044 11.928 6.23524 11.9281 6.52812 12.2208C6.821 12.5137 6.82096 12.9884 6.52812 13.2813L2.56047 17.25H23.2483C23.6625 17.25 23.9983 17.5857 23.9983 17.9999C23.9982 18.414 23.6624 18.7499 23.2483 18.7499H2.56047L6.52812 22.7176C6.82099 23.0104 6.82099 23.4852 6.52812 23.7781C6.23523 24.071 5.76049 24.071 5.46761 23.7781L0.21972 18.5302C-0.073136 18.2373 -0.073101 17.7626 0.21972 17.4697L5.46761 12.2208ZM17.4702 0.221185C17.7631 -0.0714479 18.2379 -0.071568 18.5307 0.221185L23.7786 5.47005C24.0713 5.76292 24.0713 6.23771 23.7786 6.53056L18.5307 11.7784C18.2378 12.0713 17.7631 12.0713 17.4702 11.7784C17.1773 11.4856 17.1773 11.0108 17.4702 10.7179L21.4378 6.75028H0.749977C0.335861 6.75028 0.00013706 6.41439 0 6.00031C1.54642e-06 5.58611 0.335777 5.25033 0.749977 5.25033H21.4378L17.4702 1.2817C17.1773 0.988805 17.1773 0.514049 17.4702 0.221185Z"
    fill="currentColor"
  />
</svg>
