<svg width="24" height="24" viewBox="0 0 24 24" fill="none" xmlns="http://www.w3.org/2000/svg" data-fui-icon="true">
  <path
    fill-rule="evenodd"
    clip-rule="evenodd"
    d="M20.6897 14.3139C21.2755 14.8996 22.2251 14.8996 22.8108 14.3139C23.3964 13.7281 23.3965 12.7785 22.8108 12.1928L13.4827 2.86465C12.6629 2.04498 11.3336 2.04488 10.514 2.86465L1.18974 12.1928C0.604156 12.7786 0.604097 13.7282 1.18974 14.3139C1.77555 14.8994 2.72514 14.8995 3.31083 14.3139L11.9983 5.62344L20.6897 14.3139ZM20.6897 21.3139C21.2755 21.8996 22.2251 21.8996 22.8108 21.3139C23.3963 20.7281 23.3965 19.7785 22.8108 19.1928L13.4827 9.86465C12.6629 9.04492 11.3337 9.04495 10.514 9.86465L1.18974 19.1928C0.604128 19.7786 0.604014 20.7282 1.18974 21.3139C1.77555 21.8994 2.72514 21.8995 3.31083 21.3139L11.9983 12.6234L20.6897 21.3139Z"
    fill="currentColor"
  />
</svg>
