<svg width="32" height="32" viewBox="0 0 32 32" fill="none" xmlns="http://www.w3.org/2000/svg" data-fui-icon="true">
  <path
    fill-rule="evenodd"
    clip-rule="evenodd"
    d="M16.9758 10.1391C17.3649 9.74777 17.3638 9.11456 16.9729 8.725C16.5816 8.3353 15.9476 8.33676 15.5578 8.72793L9.46994 14.8412C8.8226 15.4915 8.82254 16.5425 9.46994 17.1928L15.5578 23.3061C15.9476 23.6972 16.5816 23.6986 16.9729 23.309C17.364 22.9193 17.3653 22.2852 16.9758 21.8939L11.1223 16.017L16.9758 10.1391ZM22.7258 10.1391C23.1149 9.74776 23.1138 9.11456 22.7229 8.725C22.3316 8.33531 21.6976 8.33677 21.3078 8.72793L15.2199 14.8412C14.5726 15.4915 14.5725 16.5425 15.2199 17.1928L21.3078 23.3061C21.6976 23.6972 22.3316 23.6986 22.7229 23.309C23.114 22.9193 23.1154 22.2852 22.7258 21.8939L16.8723 16.017L22.7258 10.1391Z"
    fill="currentColor"
  />
</svg>
