<svg width="20" height="20" viewBox="0 0 20 20" fill="none" xmlns="http://www.w3.org/2000/svg" data-fui-icon="true">
  <path
    fill-rule="evenodd"
    clip-rule="evenodd"
    d="M13.4595 10.2033C13.85 10.5936 14.483 10.5936 14.8736 10.2033C15.2639 9.8129 15.2638 9.17979 14.8736 8.78923L11.0025 4.91521C10.4492 4.36157 9.55094 4.36163 8.99761 4.91521L5.12652 8.78923C4.7362 9.1798 4.7361 9.81288 5.12652 10.2033C5.5171 10.5935 6.1502 10.5937 6.54058 10.2033L9.99957 6.74236L13.4595 10.2033ZM13.4595 15.2033C13.85 15.5936 14.483 15.5936 14.8736 15.2033C15.2639 14.8129 15.2638 14.1798 14.8736 13.7892L11.0025 9.91521C10.4492 9.36157 9.55094 9.36163 8.99761 9.91521L5.12652 13.7892C4.7362 14.1798 4.7361 14.8129 5.12652 15.2033C5.5171 15.5935 6.1502 15.5937 6.54058 15.2033L9.99957 11.7424L13.4595 15.2033Z"
    fill="currentColor"
  />
</svg>
