<svg width="12" height="12" viewBox="0 0 12 12" fill="none" xmlns="http://www.w3.org/2000/svg" data-fui-icon="true">
  <path
    fill-rule="evenodd"
    clip-rule="evenodd"
    d="M9.36612 5.71585C9.85425 5.22791 10.6456 5.22785 11.1337 5.71585C11.6218 6.20394 11.6217 6.99526 11.1337 7.48343L7.06045 11.5567C6.47467 12.1424 5.52514 12.1424 4.93936 11.5567L0.866117 7.48343C0.37805 6.99526 0.377991 6.20397 0.866117 5.71585C1.35426 5.22791 2.14559 5.22784 2.63369 5.71585L5.99991 9.08206L9.36612 5.71585ZM9.36612 0.366239C9.85427 -0.121914 10.6455 -0.121909 11.1337 0.366239C11.6218 0.854402 11.6218 1.64569 11.1337 2.13382L7.06045 6.20706C6.4747 6.79279 5.52515 6.79273 4.93936 6.20706L0.866117 2.13382C0.377961 1.64566 0.377961 0.854394 0.866117 0.366239C1.35427 -0.121917 2.14554 -0.121917 2.63369 0.366239L5.99991 3.73245L9.36612 0.366239Z"
    fill="currentColor"
  />
</svg>
