<svg width="12" height="12" viewBox="0 0 12 12" fill="none" xmlns="http://www.w3.org/2000/svg" data-fui-icon="true">
  <path
    d="M8.46997 7.71985C8.76287 7.42708 9.23767 7.427 9.53052 7.71985C9.82313 8.01272 9.82321 8.48757 9.53052 8.7804L6.53052 11.7804C6.23771 12.0732 5.76288 12.073 5.46997 11.7804L2.46997 8.7804C2.17708 8.4875 2.17708 8.01274 2.46997 7.71985C2.76287 7.42708 3.23767 7.427 3.53052 7.71985L6.00024 10.1896L8.46997 7.71985ZM5.46997 0.219849C5.76287 -0.0729624 6.23765 -0.0730172 6.53052 0.219849L9.53052 3.21985C9.82314 3.51273 9.82325 3.98758 9.53052 4.2804C9.2377 4.57321 8.76288 4.57305 8.46997 4.2804L6.00024 1.81067L3.53052 4.2804C3.2377 4.57321 2.76288 4.57305 2.46997 4.2804C2.17708 3.9875 2.17708 3.51274 2.46997 3.21985L5.46997 0.219849Z"
    fill="currentColor"
  />
</svg>
