<svg width="21" height="21" viewBox="0 0 21 21" fill="none" xmlns="http://www.w3.org/2000/svg" data-fui-icon="true">
  <path
    fill-rule="evenodd"
    clip-rule="evenodd"
    d="M10.7288 4.69443C10.4213 5.00192 10.4213 5.50136 10.7288 5.80884C11.0362 6.11566 11.5348 6.11587 11.8421 5.80884L14.9618 2.6881L14.9618 20.212C14.9619 20.6468 15.3144 20.9994 15.7492 20.9994C16.1837 20.999 16.5365 20.6466 16.5366 20.212V2.6881L19.6563 5.80884C19.9637 6.11566 20.4623 6.11587 20.7697 5.80884C21.0768 5.50144 21.0768 5.00188 20.7697 4.69443L16.3059 0.230672C16.1584 0.0832551 15.9577 0.000163316 15.7492 0C15.5406 2.00027e-06 15.3401 0.0832963 15.1925 0.230672L10.7288 4.69443ZM0.230612 15.1905C-0.0768773 15.498 -0.0768643 15.9974 0.230612 16.3049L4.69437 20.7687C4.84199 20.9161 5.04243 20.9994 5.25106 20.9994C5.45959 20.9992 5.66025 20.9161 5.80775 20.7687L10.2715 16.3049C10.5786 15.9975 10.5787 15.4979 10.2715 15.1905C9.96422 14.8835 9.46558 14.8838 9.15813 15.1905L6.03842 18.3113L6.03842 0.787361C6.03828 0.352836 5.68554 0.000331864 5.25106 0C4.8163 0 4.46384 0.352631 4.4637 0.787361L4.4637 18.3113L1.34399 15.1905C1.0367 14.8835 0.538064 14.8838 0.230612 15.1905Z"
    fill="currentColor"
  />
</svg>
