<svg width="12" height="12" viewBox="0 0 12 12" fill="none" xmlns="http://www.w3.org/2000/svg" data-fui-icon="true">
  <path
    fill-rule="evenodd"
    clip-rule="evenodd"
    d="M7.89348 6.54282C8.28402 6.15253 8.91709 6.15238 9.30754 6.54282C9.69759 6.9333 9.6977 7.56648 9.30754 7.95689L6.88371 10.3797C6.39566 10.8678 5.60431 10.8676 5.11614 10.3797L2.69328 7.95689C2.30276 7.56636 2.30276 6.93335 2.69328 6.54282C3.08382 6.15244 3.71687 6.15235 4.10735 6.54282L5.99992 8.4354L7.89348 6.54282ZM7.89348 1.54282C8.28402 1.15253 8.91709 1.15238 9.30754 1.54282C9.69759 1.9333 9.6977 2.56648 9.30754 2.95689L6.88371 5.37974C6.39566 5.86777 5.60431 5.86758 5.11614 5.37974L2.69328 2.95689C2.30276 2.56636 2.30276 1.93335 2.69328 1.54282C3.08382 1.15244 3.71687 1.15235 4.10735 1.54282L5.99992 3.4354L7.89348 1.54282Z"
    fill="currentColor"
  />
</svg>
