<svg width="32" height="32" viewBox="0 0 32 32" fill="none" xmlns="http://www.w3.org/2000/svg" data-fui-icon="true">
  <path
    fill-rule="evenodd"
    clip-rule="evenodd"
    d="M24.7054 17.2897C24.3149 16.8996 23.6818 16.8993 23.2914 17.2897C22.9014 17.6802 22.9013 18.3134 23.2914 18.7038L27.5863 22.9977H2.00037C1.44846 22.9979 1.00069 23.4458 1.00037 23.9977C1.00037 24.5499 1.44826 24.9975 2.00037 24.9977H27.5863L23.2914 29.2926C22.9013 29.683 22.9014 30.3162 23.2914 30.7067C23.6818 31.0972 24.3149 31.097 24.7054 30.7067L30.7074 24.7048C31.0977 24.3142 31.0979 23.6812 30.7074 23.2907L24.7054 17.2897ZM8.70544 1.29265C8.31488 0.902616 7.68174 0.902286 7.29138 1.29265L1.29333 7.29167C1.10604 7.47917 1.00037 7.73366 1.00037 7.9987C1.00047 8.2637 1.10599 8.5183 1.29333 8.70573L7.29138 14.7038C7.68177 15.0942 8.31489 15.0939 8.70544 14.7038C9.09597 14.3133 9.09597 13.6802 8.70544 13.2897L4.41443 8.9987H30.0004C30.5526 8.9987 31.0002 8.55086 31.0004 7.9987C31.0004 7.44642 30.5527 6.9987 30.0004 6.9987H4.41443L8.70544 2.70671C9.09597 2.31619 9.09597 1.68317 8.70544 1.29265Z"
    fill="currentColor"
  />
</svg>
