<svg width="20" height="20" viewBox="0 0 20 20" fill="none" xmlns="http://www.w3.org/2000/svg" data-fui-icon="true">
  <path
    fill-rule="evenodd"
    clip-rule="evenodd"
    d="M10.2767 6.36377C10.5696 6.07096 10.5695 5.59616 10.2767 5.30322C9.98393 5.01044 9.50911 5.01049 9.21619 5.30322L5.34217 9.17432C4.88637 9.62998 4.88631 10.3701 5.34217 10.8257L9.21619 14.6968C9.50908 14.9895 9.98392 14.9894 10.2767 14.6968C10.5695 14.4038 10.5696 13.929 10.2767 13.6362L6.63905 10.0005L10.2767 6.36377ZM14.7797 6.36377C15.0725 6.07096 15.0724 5.59616 14.7797 5.30322C14.4869 5.01044 14.012 5.01049 13.7191 5.30322L9.8451 9.17432C9.38924 9.62998 9.38922 10.37 9.8451 10.8257L13.7191 14.6968C14.012 14.9895 14.4869 14.9895 14.7797 14.6968C15.0724 14.4038 15.0725 13.929 14.7797 13.6362L11.142 10.0005L14.7797 6.36377Z"
    fill="currentColor"
  />
</svg>
