<svg width="12" height="12" viewBox="0 0 12 12" fill="none" xmlns="http://www.w3.org/2000/svg" data-fui-icon="true">
  <path
    fill-rule="evenodd"
    clip-rule="evenodd"
    d="M2.11617 6.36586C2.60427 5.87779 3.39556 5.87789 3.88371 6.36586C4.25798 6.74016 4.34414 7.29217 4.14445 7.74963H10.7498C11.4401 7.74963 11.9997 8.30931 11.9998 8.9996C11.9997 9.6899 11.4401 10.2496 10.7498 10.2496H4.14445C4.34416 10.7071 4.25801 11.259 3.88371 11.6333C3.39556 12.1214 2.60429 12.1215 2.11617 11.6333L0.366203 9.88337C0.131924 9.64899 2.53453e-05 9.33099 0 8.9996C3.89052e-05 8.66818 0.131881 8.3502 0.366203 8.11583L2.11617 6.36586ZM8.11605 0.366964C8.60419 -0.121182 9.39544 -0.121182 9.88359 0.366964L11.6336 2.11693C12.1217 2.60508 12.1217 3.39634 11.6336 3.88447L9.88359 5.63443C9.39544 6.12233 8.60411 6.12246 8.11605 5.63443C7.74193 5.26032 7.655 4.70802 7.85433 4.25067L1.24997 4.2497C0.55982 4.24954 0.000107159 3.68987 0 2.99972C0.000198773 2.30961 0.559859 1.74986 1.24997 1.74975L7.85433 1.75072C7.65487 1.29342 7.74205 0.741161 8.11605 0.366964Z"
    fill="currentColor"
  />
</svg>
