<svg width="12" height="12" viewBox="0 0 12 12" fill="none" xmlns="http://www.w3.org/2000/svg" data-fui-icon="true">
  <path
    d="M6.21942 9.5303C5.92673 9.23739 5.9266 8.76259 6.21942 8.46976C6.51225 8.17698 6.98706 8.17709 7.27996 8.46976L8.24967 9.43948V0.750114C8.2498 0.336069 8.58561 0.000205038 8.99966 0.000122069C9.41379 0.000122069 9.74953 0.336017 9.74966 0.750114V9.43948L10.7194 8.46976C11.0122 8.17698 11.487 8.17709 11.7799 8.46976C12.0728 8.76264 12.0728 9.2374 11.7799 9.5303L9.52993 11.7803C9.23704 12.0732 8.76229 12.0732 8.4694 11.7803L6.21942 9.5303ZM0.220457 3.53036C-0.0723703 3.23746 -0.0724124 2.76269 0.220457 2.46982L2.47043 0.219846C2.76332 -0.0728419 3.23813 -0.0729201 3.53097 0.219846L5.78095 2.46982C6.07378 2.76265 6.07366 3.23745 5.78095 3.53036C5.48806 3.82325 5.0133 3.82325 4.72041 3.53036L3.75069 2.56064L3.75069 11.25C3.75069 11.6642 3.41486 11.9999 3.0007 12C2.58649 12 2.25071 11.6642 2.25071 11.25L2.25071 2.56064L1.28099 3.53036C0.988103 3.82325 0.513347 3.82325 0.220457 3.53036Z"
    fill="currentColor"
  />
</svg>
