<svg width="12" height="12" viewBox="0 0 12 12" fill="none" xmlns="http://www.w3.org/2000/svg" data-fui-icon="true">
  <path
    fill-rule="evenodd"
    clip-rule="evenodd"
    d="M9.36612 6.28025C9.85425 6.76819 10.6456 6.76824 11.1337 6.28025C11.6218 5.79215 11.6217 5.00084 11.1337 4.51267L7.06045 0.439425C6.47467 -0.146338 5.52514 -0.146343 4.93936 0.439425L0.866117 4.51267C0.37805 5.00083 0.377991 5.79212 0.866117 6.28025C1.35426 6.76819 2.14559 6.76825 2.63369 6.28025L5.99991 2.91403L9.36612 6.28025ZM9.36612 11.6299C9.85427 12.118 10.6455 12.118 11.1337 11.6299C11.6218 11.1417 11.6218 10.3504 11.1337 9.86228L7.06045 5.78903C6.4747 5.2033 5.52515 5.20336 4.93936 5.78903L0.866117 9.86228C0.377961 10.3504 0.377961 11.1417 0.866117 11.6299C1.35427 12.118 2.14554 12.118 2.63369 11.6299L5.99991 8.26364L9.36612 11.6299Z"
    fill="currentColor"
  />
</svg>
