<svg width="12" height="12" viewBox="0 0 12 12" fill="none" xmlns="http://www.w3.org/2000/svg" data-fui-icon="true">
  <path
    fill-rule="evenodd"
    clip-rule="evenodd"
    d="M7.7167 5.6298C8.20488 6.11773 8.9962 6.11788 9.48428 5.6298C9.97194 5.14169 9.97207 4.35026 9.48428 3.86222L7.06143 1.43937C6.47575 0.853696 5.52517 0.853911 4.93936 1.43937L2.51651 3.86222C2.02835 4.35038 2.02835 5.14165 2.51651 5.6298C3.00467 6.11782 3.79598 6.11791 4.28409 5.6298L5.99991 3.91398L7.7167 5.6298ZM7.7167 10.6298C8.20488 11.1177 8.9962 11.1179 9.48428 10.6298C9.97194 10.1417 9.97207 9.35026 9.48428 8.86222L7.06143 6.43937C6.47575 5.8537 5.52517 5.85391 4.93936 6.43937L2.51651 8.86222C2.02835 9.35038 2.02835 10.1416 2.51651 10.6298C3.00467 11.1178 3.79598 11.1179 4.28409 10.6298L5.99991 8.91398L7.7167 10.6298Z"
    fill="currentColor"
  />
</svg>
