<svg width="24" height="24" viewBox="0 0 24 24" fill="none" xmlns="http://www.w3.org/2000/svg" data-fui-icon="true">
  <path
    fill-rule="evenodd"
    clip-rule="evenodd"
    d="M12.4387 18.0609C11.8534 17.4751 11.8533 16.5255 12.4387 15.9398C13.0245 15.3542 13.975 15.3541 14.5608 15.9398L16.5002 17.8792V2.50046C16.5003 1.67216 17.1719 1.00048 18.0002 1.00048C18.8284 1.00063 19.5 1.67225 19.5002 2.50046V17.8792L21.4396 15.9398C22.0254 15.3542 22.975 15.3541 23.5607 15.9398C24.1464 16.5255 24.1463 17.4751 23.5607 18.0609L19.0607 22.5608C18.7795 22.842 18.3979 23.0002 18.0002 23.0003C17.6024 23.0003 17.221 22.8421 16.9397 22.5608L12.4387 18.0609ZM0.439823 8.06095C-0.145952 7.47517 -0.145961 6.52566 0.439823 5.93988L4.93978 1.43993C5.22103 1.15882 5.60265 1.0005 6.00031 1.00048C6.39802 1.00056 6.77962 1.1587 7.06085 1.43993L11.5608 5.93988C12.1463 6.52559 12.1463 7.4752 11.5608 8.06095C10.9751 8.64656 10.0255 8.64653 9.43973 8.06095L7.5003 6.12152L7.5003 21.5003C7.5003 22.3286 6.82859 23.0001 6.00031 23.0003C5.17195 23.0002 4.50033 22.3287 4.50033 21.5003L4.50033 6.12152L2.5609 8.06095C1.97517 8.64667 1.02561 8.64657 0.439823 8.06095Z"
    fill="currentColor"
  />
</svg>
