<svg width="16" height="16" viewBox="0 0 16 16" fill="none" xmlns="http://www.w3.org/2000/svg" data-fui-icon="true">
  <path
    fill-rule="evenodd"
    clip-rule="evenodd"
    d="M7.1176 2.28114C6.82467 1.98831 6.8248 1.51354 7.1176 1.22059C7.41045 0.927709 7.88522 0.927775 8.17815 1.22059L14.1733 7.21278C14.6078 7.64732 14.6079 8.3525 14.1733 8.787L8.17815 14.7792C7.88526 15.072 7.41046 15.072 7.1176 14.7792C6.8248 14.4863 6.82475 14.0115 7.1176 13.7186L12.8383 7.99989L7.1176 2.28114ZM1.71917 2.28114C1.42623 1.98831 1.42636 1.51354 1.71917 1.22059C2.01201 0.92767 2.48677 0.927763 2.77971 1.22059L8.77483 7.21278C9.20931 7.64734 9.20944 8.35253 8.77483 8.787L2.77971 14.7792C2.48684 15.072 2.01202 15.0719 1.71917 14.7792C1.42636 14.4863 1.42632 14.0115 1.71917 13.7186L7.43987 7.99989L1.71917 2.28114Z"
    fill="currentColor"
  />
</svg>
