<svg width="20" height="20" viewBox="0 0 20 20" fill="none" xmlns="http://www.w3.org/2000/svg" data-fui-icon="true">
  <path
    fill-rule="evenodd"
    clip-rule="evenodd"
    d="M9.69263 6.89358C9.10696 6.30795 9.10713 5.35835 9.69263 4.77249C10.2783 4.18681 11.2279 4.18695 11.8137 4.77249L15.6877 8.64358C16.4367 9.39218 16.4367 10.6069 15.6877 11.3555L11.8137 15.2266C11.2279 15.8121 10.2783 15.8122 9.69263 15.2266C9.10711 14.6408 9.10701 13.6912 9.69263 13.1055L12.8 10L9.69263 6.89358ZM4.1897 6.89358C3.60401 6.30793 3.60416 5.35835 4.1897 4.77249C4.77535 4.18681 5.72493 4.18695 6.31079 4.77249L10.1848 8.64358C10.9338 9.39217 10.9338 10.6069 10.1848 11.3555L6.31079 15.2266C5.72495 15.8121 4.77535 15.8122 4.1897 15.2266C3.60416 14.6407 3.60404 13.6911 4.1897 13.1055L7.29712 10L4.1897 6.89358Z"
    fill="currentColor"
  />
</svg>
