<svg width="20" height="20" viewBox="0 0 20 20" fill="none" xmlns="http://www.w3.org/2000/svg" data-fui-icon="true">
  <path
    fill-rule="evenodd"
    clip-rule="evenodd"
    d="M16.6936 11.3652C17.2794 11.9508 18.2289 11.9509 18.8147 11.3652C19.3999 10.7794 19.4002 9.82973 18.8147 9.24409L11.3996 1.82905C10.6266 1.05646 9.3736 1.05721 8.6008 1.83003L1.18967 9.24409C0.604127 9.8299 0.604081 10.7795 1.18967 11.3652C1.77551 11.9508 2.72509 11.9509 3.31076 11.3652L9.99924 4.6728L16.6936 11.3652ZM16.6936 18.3652C17.2794 18.9508 18.2289 18.9509 18.8147 18.3652C19.3999 17.7794 19.4001 16.8297 18.8147 16.2441L11.3996 8.82905C10.6266 8.05645 9.37361 8.05721 8.6008 8.83003L1.18967 16.2441C0.604123 16.8299 0.604067 17.7795 1.18967 18.3652C1.77551 18.9508 2.72509 18.9509 3.31076 18.3652L9.99924 11.6728L16.6936 18.3652Z"
    fill="currentColor"
  />
</svg>
