<svg width="12" height="12" viewBox="0 0 12 12" fill="none" xmlns="http://www.w3.org/2000/svg" data-fui-icon="true">
  <path
    d="M8.46997 7.71983C8.76287 7.42706 9.23767 7.42698 9.53052 7.71983C9.82313 8.01271 9.82321 8.48756 9.53052 8.78038L6.53052 11.7804C6.23771 12.0732 5.76288 12.073 5.46997 11.7804L2.46997 8.78038C2.17708 8.48749 2.17708 8.01273 2.46997 7.71983C2.76287 7.42706 3.23767 7.42698 3.53052 7.71983L6.00024 10.1896L8.46997 7.71983ZM5.46997 0.219833C5.76287 -0.0729776 6.23765 -0.0730324 6.53052 0.219833L9.53052 3.21983C9.82314 3.51272 9.82325 3.98756 9.53052 4.28038C9.2377 4.57319 8.76288 4.57303 8.46997 4.28038L6.00024 1.81065L3.53052 4.28038C3.2377 4.57319 2.76288 4.57303 2.46997 4.28038C2.17708 3.98749 2.17708 3.51273 2.46997 3.21983L5.46997 0.219833Z"
    fill="currentColor"
  />
</svg>
