<svg width="17" height="17" viewBox="0 0 17 17" fill="none" xmlns="http://www.w3.org/2000/svg" data-fui-icon="true">
  <path
    fill-rule="evenodd"
    clip-rule="evenodd"
    d="M8.72485 3.68961C8.41408 4.00074 8.41386 4.5051 8.72485 4.8161C9.03584 5.12699 9.54023 5.12682 9.85134 4.8161L11.9477 2.71975L11.9477 16.2034C11.9479 16.6431 12.3046 16.9998 12.7443 17C13.1841 16.9999 13.5407 16.6431 13.5409 16.2034L13.5409 2.71975L15.6373 4.8161C15.9483 5.12686 16.4527 5.12678 16.7638 4.8161C17.0746 4.50505 17.0746 4.00067 16.7638 3.68961L13.3076 0.233388C12.9965 -0.077656 12.4922 -0.0775362 12.1811 0.233388L8.72485 3.68961ZM0.233667 12.1839C-0.0771975 12.495 -0.0771975 12.9993 0.233667 13.3104L3.68989 16.7666C4.00096 17.0774 4.50535 17.0774 4.81637 16.7666L8.2726 13.3104C8.58357 12.9994 8.58339 12.495 8.2726 12.1839C7.9615 11.8729 7.4572 11.8729 7.14611 12.1839L5.04976 14.2802L5.04976 0.796632C5.04976 0.356774 4.69295 0.000177104 4.25313 0C3.81325 9.74301e-05 3.4565 0.356724 3.4565 0.796632L3.4565 14.2802L1.36015 12.1839C1.04905 11.873 0.544714 11.8729 0.233667 12.1839Z"
    fill="currentColor"
  />
</svg>
