<svg width="24" height="24" viewBox="0 0 24 24" fill="none" xmlns="http://www.w3.org/2000/svg" data-fui-icon="true">
  <path
    fill-rule="evenodd"
    clip-rule="evenodd"
    d="M16.4697 11.4696C16.7626 11.1769 17.2374 11.1768 17.5302 11.4696C17.8229 11.7624 17.8229 12.2373 17.5302 12.5301L12.8837 17.1766C12.3956 17.6646 11.6043 17.6645 11.1161 17.1766L6.46967 12.5301C6.17678 12.2372 6.17678 11.7625 6.46967 11.4696C6.76257 11.1769 7.23737 11.1768 7.53021 11.4696L11.9999 15.9393L16.4697 11.4696ZM16.4697 6.71959C16.7626 6.42686 17.2374 6.42675 17.5302 6.71959C17.8229 7.01245 17.8229 7.48729 17.5302 7.78014L12.8837 12.4266C12.3956 12.9146 11.6043 12.9145 11.1161 12.4266L6.46967 7.78014C6.17678 7.48725 6.17678 7.01249 6.46967 6.71959C6.76257 6.42685 7.23737 6.42676 7.53021 6.71959L11.9999 11.1893L16.4697 6.71959Z"
    fill="currentColor"
  />
</svg>
