<svg width="24" height="24" viewBox="0 0 24 24" fill="none" xmlns="http://www.w3.org/2000/svg" data-fui-icon="true">
  <path
    fill-rule="evenodd"
    clip-rule="evenodd"
    d="M12.3652 6.11646C11.8777 6.60451 11.8776 7.396 12.3652 7.88403C12.8533 8.37208 13.6456 8.37184 14.1338 7.88403L16.75 5.2688L16.749 21.7502C16.7491 22.4402 17.3091 22.9998 17.999 23.0002C18.6893 23.0003 19.2489 22.4405 19.249 21.7502L19.25 5.26782L21.8662 7.88403C22.3542 8.37207 23.1456 8.37185 23.6338 7.88403C24.1219 7.39587 24.1219 6.60458 23.6338 6.11646L18.8838 1.36646C18.3956 0.878439 17.6043 0.878435 17.1162 1.36646L12.3652 6.11646ZM0.366196 16.1165C-0.121632 16.6046 -0.121847 17.396 0.366196 17.884L5.11717 22.634C5.60537 23.1217 6.39676 23.122 6.88475 22.634L11.6348 17.884C12.1227 17.396 12.1224 16.6046 11.6348 16.1165C11.1466 15.6283 10.3553 15.6284 9.86717 16.1165L7.25096 18.7327L7.24998 2.25024C7.24997 1.56002 6.69016 1.00045 5.99998 1.00024C5.30977 1.00042 4.74998 1.56 4.74998 2.25024L4.75096 18.7327L2.13377 16.1165C1.64565 15.6283 0.854356 15.6284 0.366196 16.1165Z"
    fill="currentColor"
  />
</svg>
