<svg width="16" height="16" viewBox="0 0 16 16" fill="none" xmlns="http://www.w3.org/2000/svg" data-fui-icon="true">
  <path
    fill-rule="evenodd"
    clip-rule="evenodd"
    d="M7.97211 5.14445C7.67929 4.85158 7.67931 4.37679 7.97211 4.08391C8.265 3.79119 8.73981 3.79112 9.03265 4.08391L12.1801 7.23137C12.6029 7.6544 12.6029 8.34059 12.1801 8.76359L9.03265 11.9111C8.73984 12.2039 8.26502 12.2037 7.97211 11.9111C7.67922 11.6182 7.67922 11.1434 7.97211 10.8505L10.8246 7.99797L7.97211 5.14445ZM3.72211 5.14445C3.42929 4.85158 3.42931 4.37679 3.72211 4.08391C4.015 3.79119 4.48981 3.79112 4.78265 4.08391L7.93012 7.23137C8.3529 7.6544 8.35295 8.34059 7.93012 8.76359L4.78265 11.9111C4.48983 12.2039 4.01502 12.2037 3.72211 11.9111C3.42922 11.6182 3.42922 11.1434 3.72211 10.8505L6.57465 7.99797L3.72211 5.14445Z"
    fill="currentColor"
  />
</svg>
