<svg width="16" height="16" viewBox="0 0 16 16" fill="none" xmlns="http://www.w3.org/2000/svg" data-fui-icon="true">
  <path
    d="M8.61572 3.60587C9.19864 3.0175 9.1942 2.06789 8.60596 1.48477C8.01759 0.902119 7.0679 0.906433 6.48486 1.49454L0.990723 7.03751C0.266687 7.76791 0.271425 8.94704 1.00146 9.6713L6.49463 15.1156C7.08302 15.6986 8.03261 15.6942 8.61572 15.1059C9.19869 14.5175 9.19426 13.5679 8.60596 12.9848L3.92236 8.34122L8.61572 3.60587ZM15.1108 3.60977C15.6966 3.02401 15.6965 2.07446 15.1108 1.48868C14.525 0.903197 13.5754 0.903033 12.9897 1.48868L7.49463 6.9838C6.76741 7.71113 6.76755 8.89021 7.49463 9.61758L12.9897 15.1107C13.5756 15.6964 14.5251 15.6965 15.1108 15.1107C15.6964 14.5249 15.6965 13.5753 15.1108 12.9897L10.4204 8.30118L15.1108 3.60977Z"
    fill="currentColor"
  />
</svg>
