<svg width="24" height="24" viewBox="0 0 24 24" fill="none" xmlns="http://www.w3.org/2000/svg" data-fui-icon="true">
  <path
    fill-rule="evenodd"
    clip-rule="evenodd"
    d="M12.4389 5.93994C11.8535 6.52566 11.8535 7.47534 12.4389 8.06104C13.0246 8.64662 13.9752 8.6467 14.5609 8.06104L16.5004 6.12158V21.5005C16.5005 22.3288 17.172 23.0005 18.0004 23.0005C18.8286 23.0003 19.5002 22.3287 19.5004 21.5005V6.12158L21.4398 8.06104C22.0256 8.64662 22.9752 8.6467 23.5609 8.06104C24.1466 7.47531 24.1465 6.52574 23.5609 5.93994L19.0609 1.43994C18.7797 1.1587 18.3981 1.00056 18.0004 1.00049C17.6025 1.00049 17.2211 1.15864 16.9398 1.43994L12.4389 5.93994ZM0.439828 15.9399C-0.145953 16.5257 -0.145963 17.4753 0.439828 18.061L4.93983 22.561C5.22109 22.8421 5.60271 23.0005 6.00037 23.0005C6.39809 23.0004 6.77969 22.8423 7.06092 22.561L11.5609 18.061C12.1465 17.4753 12.1464 16.5257 11.5609 15.9399C10.9752 15.3543 10.0256 15.3544 9.43983 15.9399L7.50037 17.8794L7.50037 2.50049C7.50037 1.67217 6.82866 1.00066 6.00037 1.00049C5.172 1.00055 4.50038 1.6721 4.50037 2.50049L4.50037 17.8794L2.56092 15.9399C1.97519 15.3542 1.02562 15.3543 0.439828 15.9399Z"
    fill="currentColor"
  />
</svg>
