<svg width="32" height="32" viewBox="0 0 32 32" fill="none" xmlns="http://www.w3.org/2000/svg" data-fui-icon="true">
  <path
    fill-rule="evenodd"
    clip-rule="evenodd"
    d="M28.6961 19.2214C29.2819 19.807 30.2314 19.8071 30.8172 19.2214C31.4027 18.6356 31.4027 17.686 30.8172 17.1003L17.6492 3.93233C16.7391 3.02224 15.2633 3.02221 14.3533 3.93233L1.18925 17.1003C0.603618 17.6861 0.60355 18.6357 1.18925 19.2214C1.77506 19.807 2.72463 19.8071 3.31034 19.2214L16.0008 6.52706L28.6961 19.2214ZM28.6961 28.2214C29.2819 28.807 30.2314 28.8071 30.8172 28.2214C31.4027 27.6356 31.4027 26.686 30.8172 26.1003L17.6492 12.9323C16.7391 12.0222 15.2633 12.0222 14.3533 12.9323L1.18925 26.1003C0.603627 26.6861 0.603565 27.6357 1.18925 28.2214C1.77506 28.807 2.72463 28.8071 3.31034 28.2214L16.0008 15.5271L28.6961 28.2214Z"
    fill="currentColor"
  />
</svg>
