<svg width="12" height="12" viewBox="0 0 12 12" fill="none" xmlns="http://www.w3.org/2000/svg" data-fui-icon="true">
  <path
    fill-rule="evenodd"
    clip-rule="evenodd"
    d="M6.36849 4.28168C5.88056 3.79351 5.88041 3.00218 6.36849 2.5141C6.8566 2.02644 7.64803 2.02632 8.13607 2.5141L10.5589 4.93695C11.1446 5.52263 11.1444 6.47321 10.5589 7.05902L8.13607 9.48188C7.64791 9.97003 6.85664 9.97003 6.36849 9.48188C5.88047 8.99371 5.88038 8.20241 6.36849 7.7143L8.08431 5.99848L6.36849 4.28168ZM1.36849 4.28168C0.880563 3.79351 0.880409 3.00218 1.36849 2.5141C1.8566 2.02644 2.64803 2.02632 3.13607 2.5141L5.55892 4.93695C6.1446 5.52263 6.14438 6.47321 5.55892 7.05902L3.13607 9.48188C2.64791 9.97003 1.85664 9.97003 1.36849 9.48188C0.880472 8.99371 0.88038 8.20241 1.36849 7.7143L3.08431 5.99848L1.36849 4.28168Z"
    fill="currentColor"
  />
</svg>
