<svg width="16" height="16" viewBox="0 0 16 16" fill="none" xmlns="http://www.w3.org/2000/svg" data-fui-icon="true">
  <path
    d="M3.93896 8.43762C4.52466 7.85192 5.47425 7.85209 6.06006 8.43762C6.62648 9.00406 6.64375 9.90925 6.11475 10.4982H13.4995C14.3279 10.4982 14.9995 11.1698 14.9995 11.9982C14.9995 12.8266 14.3279 13.4982 13.4995 13.4982H6.11475C6.64554 14.087 6.62907 14.9936 6.06201 15.5607C5.47624 16.1462 4.52664 16.1463 3.94092 15.5607L1.43896 13.0587C0.853509 12.473 0.853488 11.5233 1.43896 10.9376L3.93896 8.43762ZM9.93896 0.439575C10.5247 -0.146135 11.4743 -0.14606 12.0601 0.439575L14.564 2.94348C15.1497 3.52926 15.1497 4.47879 14.564 5.06458L12.0601 7.56848C11.4743 8.15394 10.5246 8.15414 9.93896 7.56848C9.37165 7.00098 9.35521 6.0928 9.88721 5.50403H2.49951C1.67138 5.50377 0.999639 4.83219 0.999512 4.00403C0.999516 3.17576 1.67131 2.50428 2.49951 2.50403H9.88721C9.35511 1.91532 9.37175 1.00715 9.93896 0.439575Z"
    fill="currentColor"
  />
</svg>
