<svg width="32" height="32" viewBox="0 0 32 32" fill="none" xmlns="http://www.w3.org/2000/svg" data-fui-icon="true">
  <path
    fill-rule="evenodd"
    clip-rule="evenodd"
    d="M19.8888 2.7077C20.2793 2.3172 20.2792 1.6832 19.8888 1.29266C19.4983 0.902445 18.8652 0.902445 18.4747 1.29266L5.06065 14.7067C4.34592 15.4215 4.34587 16.5808 5.06065 17.2956L18.4747 30.7097C18.8652 31.1001 19.4983 31.1001 19.8888 30.7097C20.2793 30.3192 20.2792 29.6861 19.8888 29.2956L6.59483 16.0016L19.8888 2.7077ZM27.1847 2.7077C27.5752 2.3172 27.5751 1.6832 27.1847 1.29266C26.7942 0.902445 26.1611 0.902445 25.7706 1.29266L12.3566 14.7067C11.6419 15.4215 11.6418 16.5808 12.3566 17.2956L25.7706 30.7097C26.1611 31.1001 26.7942 31.1 27.1847 30.7097C27.5752 30.3192 27.5751 29.6861 27.1847 29.2956L13.8907 16.0016L27.1847 2.7077Z"
    fill="currentColor"
  />
</svg>
