<svg width="16" height="16" viewBox="0 0 16 16" fill="none" xmlns="http://www.w3.org/2000/svg" data-fui-icon="true">
  <path
    fill-rule="evenodd"
    clip-rule="evenodd"
    d="M8.36577 4.11499C7.87788 4.60316 7.87771 5.3945 8.36577 5.88257C8.85386 6.37043 9.64524 6.37039 10.1334 5.88257L10.7496 5.26636V13.7488C10.7498 14.4389 11.3094 14.9987 11.9996 14.9988C12.6898 14.9988 13.2493 14.4389 13.2496 13.7488V5.26636L13.8658 5.88257C14.3538 6.37041 15.1452 6.37033 15.6334 5.88257C16.1214 5.39446 16.1213 4.60315 15.6334 4.11499L12.8834 1.36499C12.3952 0.876856 11.6039 0.876847 11.1158 1.36499L8.36577 4.11499ZM0.367727 10.1111C-0.12026 10.5992 -0.120334 11.3906 0.367727 11.8787L3.12163 14.6326C3.35602 14.8668 3.67406 14.9988 4.00542 14.9988C4.33681 14.9987 4.65485 14.8669 4.88921 14.6326L7.64312 11.8787C8.13114 11.3906 8.13095 10.5993 7.64312 10.1111C7.15497 9.62294 6.36369 9.62296 5.87554 10.1111L5.25542 10.7312L5.25542 2.24878C5.25542 1.55848 4.6957 0.998871 4.00542 0.998779C3.31508 0.998795 2.75542 1.55843 2.75542 2.24878L2.75542 10.7312L2.1353 10.1111C1.64715 9.62297 0.855868 9.62294 0.367727 10.1111Z"
    fill="currentColor"
  />
</svg>
