<svg width="32" height="32" viewBox="0 0 32 32" fill="none" xmlns="http://www.w3.org/2000/svg" data-fui-icon="true">
  <path
    fill-rule="evenodd"
    clip-rule="evenodd"
    d="M12.3109 2.28013C12.018 1.9873 12.0182 1.51252 12.3109 1.21958C12.6038 0.927109 13.0787 0.926924 13.3715 1.21958L27.0375 14.8807C27.6548 15.4978 27.6545 16.4988 27.0375 17.1161L13.3715 30.7782C13.0786 31.071 12.6038 31.071 12.3109 30.7782C12.0181 30.4853 12.0181 30.0105 12.3109 29.7176L25.9769 16.0555C26.0079 16.0241 26.0082 15.9735 25.9769 15.9422L12.3109 2.28013ZM4.72207 2.28013C4.42917 1.9873 4.42929 1.51252 4.72207 1.21958C5.01493 0.926966 5.48977 0.926876 5.78261 1.21958L19.4486 14.8807C20.0659 15.4978 20.0657 16.4988 19.4486 17.1161L5.78261 30.7782C5.4897 31.071 5.01492 31.071 4.72207 30.7782C4.42928 30.4853 4.42922 30.0105 4.72207 29.7176L18.3881 16.0555C18.4192 16.0241 18.4194 15.9735 18.3881 15.9422L4.72207 2.28013Z"
    fill="currentColor"
  />
</svg>
