<svg width="24" height="24" viewBox="0 0 24 24" fill="none" xmlns="http://www.w3.org/2000/svg" data-fui-icon="true">
  <path
    fill-rule="evenodd"
    clip-rule="evenodd"
    d="M12.22 5.46814C11.9272 5.76098 11.9273 6.23579 12.22 6.52869C12.5129 6.82157 12.9877 6.82153 13.2806 6.52869L17.2493 2.56091V23.2494C17.2493 23.6636 17.5851 23.9994 17.9993 23.9994C18.4134 23.9993 18.7493 23.6635 18.7493 23.2494V2.56091L22.7171 6.52869C23.01 6.82157 23.4847 6.82156 23.7776 6.52869C24.0705 6.23579 24.0705 5.76103 23.7776 5.46814L18.5296 0.220093C18.2367 -0.0727719 17.7619 -0.0727374 17.469 0.220093L12.22 5.46814ZM0.220015 17.4711C-0.0726272 17.764 -0.0727471 18.2388 0.220015 18.5316L5.46904 23.7797C5.76192 24.0724 6.23673 24.0724 6.52958 23.7797L11.7776 18.5316C12.0705 18.2387 12.0705 17.764 11.7776 17.4711C11.4847 17.1782 11.01 17.1782 10.7171 17.4711L6.74931 21.4388L6.74931 0.750366C6.74931 0.336237 6.41341 0.000503275 5.99931 0.000366211C5.5851 0.000367757 5.24931 0.336154 5.24931 0.750366L5.24931 21.4388L1.28056 17.4711C0.987659 17.1782 0.512887 17.1782 0.220015 17.4711Z"
    fill="currentColor"
  />
</svg>
