<svg width="16" height="16" viewBox="0 0 16 16" fill="none" xmlns="http://www.w3.org/2000/svg" data-fui-icon="true">
  <path
    fill-rule="evenodd"
    clip-rule="evenodd"
    d="M8.0274 5.14445C8.32023 4.85158 8.32021 4.37679 8.0274 4.08391C7.73451 3.79119 7.2597 3.79112 6.96686 4.08391L3.8194 7.23137C3.39662 7.6544 3.39657 8.34059 3.8194 8.76359L6.96686 11.9111C7.25968 12.2039 7.73449 12.2037 8.0274 11.9111C8.32029 11.6182 8.32029 11.1434 8.0274 10.8505L5.17487 7.99797L8.0274 5.14445ZM12.2774 5.14445C12.5702 4.85158 12.5702 4.37679 12.2774 4.08391C11.9845 3.79119 11.5097 3.79112 11.2169 4.08391L8.0694 7.23137C7.64661 7.6544 7.64657 8.34059 8.0694 8.76359L11.2169 11.9111C11.5097 12.2039 11.9845 12.2037 12.2774 11.9111C12.5703 11.6182 12.5703 11.1434 12.2774 10.8505L9.42487 7.99797L12.2774 5.14445Z"
    fill="currentColor"
  />
</svg>
