<svg width="20" height="20" viewBox="0 0 20 20" fill="none" xmlns="http://www.w3.org/2000/svg" data-fui-icon="true">
  <path
    fill-rule="evenodd"
    clip-rule="evenodd"
    d="M13.4598 10.2034C13.8502 10.5937 14.4833 10.5937 14.8738 10.2034C15.2642 9.81296 15.264 9.17985 14.8738 8.78929L11.0027 4.91527C10.4495 4.36163 9.55118 4.36169 8.99786 4.91527L5.12676 8.78929C4.73644 9.17987 4.73634 9.81294 5.12676 10.2034C5.51735 10.5936 6.15044 10.5937 6.54083 10.2034L9.99981 6.74242L13.4598 10.2034ZM13.4598 15.2034C13.8502 15.5937 14.4833 15.5937 14.8738 15.2034C15.2641 14.813 15.264 14.1798 14.8738 13.7893L11.0027 9.91527C10.4495 9.36163 9.55118 9.3617 8.99786 9.91527L5.12676 13.7893C4.73644 14.1799 4.73634 14.8129 5.12676 15.2034C5.51735 15.5936 6.15044 15.5937 6.54083 15.2034L9.99981 11.7424L13.4598 15.2034Z"
    fill="currentColor"
  />
</svg>
