<svg width="12" height="12" viewBox="0 0 12 12" fill="none" xmlns="http://www.w3.org/2000/svg" data-fui-icon="true">
  <path
    fill-rule="evenodd"
    clip-rule="evenodd"
    d="M6.28232 2.63193C6.77026 2.14379 6.77032 1.35245 6.28232 0.864352C5.79423 0.376258 5.00291 0.37638 4.51474 0.864352L0.441501 4.93759C-0.144263 5.52338 -0.144268 6.47291 0.441501 7.05869L4.51474 11.1319C5.00291 11.62 5.7942 11.6201 6.28232 11.1319C6.77026 10.6438 6.77033 9.85245 6.28232 9.36435L2.91611 5.99814L6.28232 2.63193ZM11.6319 2.63193C12.1201 2.14378 12.1201 1.35251 11.6319 0.864352C11.1438 0.376291 10.3525 0.376228 9.86435 0.864352L5.79111 4.93759C5.20538 5.52335 5.20544 6.4729 5.79111 7.05869L9.86435 11.1319C10.3525 11.6201 11.1438 11.6201 11.6319 11.1319C12.1201 10.6438 12.1201 9.85251 11.6319 9.36435L8.26572 5.99814L11.6319 2.63193Z"
    fill="currentColor"
  />
</svg>
