<svg width="16" height="16" viewBox="0 0 16 16" fill="none" xmlns="http://www.w3.org/2000/svg" data-fui-icon="true">
  <path
    fill-rule="evenodd"
    clip-rule="evenodd"
    d="M10.8529 8.02508C11.1457 8.31791 11.6205 8.31789 11.9134 8.02508C12.2061 7.73219 12.2062 7.25738 11.9134 6.96454L8.76595 3.81708C8.34292 3.3943 7.65672 3.39425 7.23372 3.81708L4.08626 6.96454C3.79344 7.25736 3.79359 7.73217 4.08626 8.02508C4.37915 8.31797 4.85391 8.31797 5.14681 8.02508L7.99935 5.17255L10.8529 8.02508ZM10.8529 12.2751C11.1457 12.5679 11.6205 12.5679 11.9134 12.2751C12.2061 11.9822 12.2062 11.5074 11.9134 11.2145L8.76595 8.06708C8.34291 7.64429 7.65673 7.64425 7.23372 8.06708L4.08626 11.2145C3.79344 11.5074 3.79358 11.9822 4.08626 12.2751C4.37915 12.568 4.85391 12.568 5.14681 12.2751L7.99935 9.42255L10.8529 12.2751Z"
    fill="currentColor"
  />
</svg>
