<svg width="20" height="20" viewBox="0 0 20 20" fill="none" xmlns="http://www.w3.org/2000/svg" data-fui-icon="true">
  <path
    fill-rule="evenodd"
    clip-rule="evenodd"
    d="M5.29284 10.2934C5.68335 9.90288 6.31636 9.90287 6.70687 10.2934C7.09714 10.6839 7.09728 11.317 6.70687 11.7074L4.41395 14.0003H17.9996C18.5517 14.0004 18.9995 14.4481 18.9995 15.0003C18.9994 15.5524 18.5516 16.0001 17.9996 16.0003H4.41395L6.70687 18.2932C7.09715 18.6837 7.09729 19.3168 6.70687 19.7072C6.31643 20.0976 5.68337 20.0975 5.29284 19.7072L1.29294 15.7073C1.10546 15.5198 1.00003 15.2654 0.999976 15.0003C0.999977 14.7351 1.1054 14.4808 1.29294 14.2933L5.29284 10.2934ZM13.2926 0.293605C13.6832 -0.0968836 14.3162 -0.0969001 14.7067 0.293605L18.7066 4.29351C18.894 4.48102 18.9995 4.73542 18.9995 5.00052C18.9995 5.26564 18.894 5.52006 18.7066 5.70754L14.7067 9.70744C14.3162 10.0979 13.6832 10.0977 13.2926 9.70744C12.9021 9.31692 12.9021 8.68393 13.2926 8.29341L15.5856 6.0005H1.99995C1.44775 6.0005 1.00009 5.55269 0.999976 5.00052C0.999976 4.44825 1.44768 4.00055 1.99995 4.00055H15.5856L13.2926 1.70763C12.9021 1.31712 12.9021 0.684121 13.2926 0.293605Z"
    fill="currentColor"
  />
</svg>
