<svg width="32" height="32" viewBox="0 0 32 32" fill="none" xmlns="http://www.w3.org/2000/svg" data-fui-icon="true">
  <path
    fill-rule="evenodd"
    clip-rule="evenodd"
    d="M7.11865 17.3634C7.60682 16.8754 8.39814 16.8753 8.88623 17.3634C9.37377 17.8515 9.37402 18.643 8.88623 19.131L5.26807 22.7482H29.7505C30.4406 22.7484 31.0003 23.3081 31.0005 23.9982C31.0004 24.6883 30.4406 25.2479 29.7505 25.2482H5.26807L8.88623 28.8663C9.37386 29.3544 9.37392 30.1459 8.88623 30.6339C8.39821 31.1219 7.60684 31.1216 7.11865 30.6339L1.3667 24.8819C0.878719 24.3938 0.878603 23.6025 1.3667 23.1144L7.11865 17.3634ZM23.1187 1.36632C23.6068 0.878487 24.3982 0.878274 24.8862 1.36632L30.6343 7.11535C30.8683 7.34971 31.0005 7.66788 31.0005 7.99914C31.0003 8.33039 30.8685 8.64868 30.6343 8.88293L24.8862 14.631C24.3983 15.1189 23.6069 15.1185 23.1187 14.631C22.6305 14.1428 22.6305 13.3515 23.1187 12.8634L26.7329 9.24914H2.25049C1.56034 9.24914 1.00083 8.68921 1.00049 7.99914C1.00049 7.30878 1.56013 6.74914 2.25049 6.74914H26.7329L23.1187 3.1339C22.6305 2.64575 22.6305 1.85448 23.1187 1.36632Z"
    fill="currentColor"
  />
</svg>
