<svg width="32" height="32" viewBox="0 0 32 32" fill="none" xmlns="http://www.w3.org/2000/svg" data-fui-icon="true">
  <path
    fill-rule="evenodd"
    clip-rule="evenodd"
    d="M25.0596 17.437C24.4738 16.8512 23.5243 16.8512 22.9385 17.437C22.3529 18.0228 22.3528 18.9724 22.9385 19.5581L25.8799 22.4985H2.49901C1.6707 22.4985 0.999201 23.1703 0.999014 23.9985C0.999273 24.8267 1.67075 25.4985 2.49901 25.4985H25.8799L22.9385 28.4399C22.3528 29.0257 22.3527 29.9753 22.9385 30.561C23.5243 31.1464 24.4739 31.1466 25.0596 30.561L30.5615 25.0591C31.1468 24.4734 31.1468 23.5237 30.5615 22.938L25.0596 17.437ZM9.05956 1.43797C8.47381 0.852381 7.52422 0.852381 6.93847 1.43797L1.43847 6.93797C0.852804 7.52372 0.852852 8.4733 1.43847 9.05907L6.94042 14.561C7.52622 15.1463 8.47589 15.1466 9.06151 14.561C9.64697 13.9754 9.64673 13.0257 9.06151 12.4399L6.12011 9.49852H29.499C30.3272 9.49837 30.9988 8.82665 30.999 7.99852C30.9989 7.1703 30.3272 6.49867 29.499 6.49852H6.12011L9.05956 3.55907C9.64508 2.97339 9.64494 2.02374 9.05956 1.43797Z"
    fill="currentColor"
  />
</svg>
