<svg width="32" height="32" viewBox="0 0 32 32" fill="none" xmlns="http://www.w3.org/2000/svg" data-fui-icon="true">
  <path
    d="M21.5244 14.9035C22.1115 14.319 23.062 14.3213 23.6465 14.9084C24.2308 15.4955 24.2286 16.446 23.6416 17.0305L17.5283 23.1154C16.683 23.9568 15.317 23.9568 14.4717 23.1154L8.3584 17.0305C7.77137 16.446 7.7692 15.4955 8.35352 14.9084C8.93797 14.3213 9.88849 14.3191 10.4756 14.9035L16 20.4035L21.5244 14.9035ZM21.5244 8.68085C22.1115 8.09646 23.062 8.09869 23.6465 8.68573C24.2309 9.27279 24.2286 10.2233 23.6416 10.8078L17.5283 16.8928C16.683 17.7342 15.317 17.7342 14.4717 16.8928L8.3584 10.8078C7.77134 10.2233 7.76912 9.27282 8.35352 8.68573C8.93798 8.09877 9.88853 8.09648 10.4756 8.68085L16 14.1808L21.5244 8.68085Z"
    fill="currentColor"
  />
</svg>
