<svg width="12" height="12" viewBox="0 0 12 12" fill="none" xmlns="http://www.w3.org/2000/svg" data-fui-icon="true">
  <path
    fill-rule="evenodd"
    clip-rule="evenodd"
    d="M9.36612 6.28037C9.85425 6.76831 10.6456 6.76837 11.1337 6.28037C11.6218 5.79227 11.6217 5.00096 11.1337 4.51279L7.06045 0.439548C6.47467 -0.146216 5.52514 -0.146221 4.93936 0.439548L0.866117 4.51279C0.37805 5.00095 0.377991 5.79224 0.866117 6.28037C1.35426 6.76831 2.14559 6.76837 2.63369 6.28037L5.99991 2.91416L9.36612 6.28037ZM9.36612 11.63C9.85427 12.1181 10.6455 12.1181 11.1337 11.63C11.6218 11.1418 11.6218 10.3505 11.1337 9.8624L7.06045 5.78916C6.4747 5.20342 5.52515 5.20348 4.93936 5.78916L0.866117 9.8624C0.377961 10.3506 0.377961 11.1418 0.866117 11.63C1.35427 12.1181 2.14554 12.1181 2.63369 11.63L5.99991 8.26377L9.36612 11.63Z"
    fill="currentColor"
  />
</svg>
