<svg width="12" height="12" viewBox="0 0 12 12" fill="none" xmlns="http://www.w3.org/2000/svg" data-fui-icon="true">
  <path
    fill-rule="evenodd"
    clip-rule="evenodd"
    d="M7.89348 6.54295C8.28402 6.15265 8.91709 6.1525 9.30754 6.54295C9.69759 6.93343 9.6977 7.5666 9.30754 7.95701L6.88371 10.3799C6.39566 10.8679 5.60431 10.8677 5.11614 10.3799L2.69328 7.95701C2.30276 7.56648 2.30276 6.93347 2.69328 6.54295C3.08382 6.15256 3.71687 6.15247 4.10735 6.54295L5.99992 8.43552L7.89348 6.54295ZM7.89348 1.54295C8.28402 1.15265 8.91709 1.1525 9.30754 1.54295C9.69759 1.93343 9.6977 2.5666 9.30754 2.95701L6.88371 5.37986C6.39566 5.86789 5.60431 5.8677 5.11614 5.37986L2.69328 2.95701C2.30276 2.56648 2.30276 1.93347 2.69328 1.54295C3.08382 1.15256 3.71687 1.15247 4.10735 1.54295L5.99992 3.43552L7.89348 1.54295Z"
    fill="currentColor"
  />
</svg>
