<svg width="16" height="16" viewBox="0 0 16 16" fill="none" xmlns="http://www.w3.org/2000/svg" data-fui-icon="true">
  <path
    fill-rule="evenodd"
    clip-rule="evenodd"
    d="M8.05774 5.67476C8.64346 5.08899 8.64343 4.13944 8.05774 3.55367C7.47194 2.96823 6.52232 2.96804 5.93665 3.55367L2.78918 6.70113C2.07352 7.417 2.07361 8.57798 2.78918 9.2939L5.93665 12.4414C6.52237 13.0271 7.47194 13.027 8.05774 12.4414C8.64352 11.8556 8.64351 10.9061 8.05774 10.3203L5.73547 7.998L8.05774 5.67476ZM13.3077 5.67476C13.8935 5.08899 13.8934 4.13944 13.3077 3.55367C12.7219 2.96822 11.7723 2.96804 11.1866 3.55367L8.03918 6.70113C7.32352 7.417 7.32361 8.57798 8.03918 9.2939L11.1866 12.4414C11.7724 13.0271 12.7219 13.027 13.3077 12.4414C13.8935 11.8556 13.8935 10.9061 13.3077 10.3203L10.9855 7.998L13.3077 5.67476Z"
    fill="currentColor"
  />
</svg>
