<svg width="32" height="32" viewBox="0 0 32 32" fill="none" xmlns="http://www.w3.org/2000/svg" data-fui-icon="true">
  <path
    fill-rule="evenodd"
    clip-rule="evenodd"
    d="M6.9399 17.4367C7.52569 16.851 8.47525 16.8509 9.06099 17.4367C9.64632 18.0225 9.64651 18.9721 9.06099 19.5578L6.11959 22.4982H29.5004C30.3286 22.4984 31.0003 23.1701 31.0004 23.9982C31.0004 24.8264 30.3286 25.498 29.5004 25.4982H6.11959L9.06099 28.4396C9.64646 29.0254 9.64656 29.975 9.06099 30.5607C8.4753 31.1464 7.52571 31.1462 6.9399 30.5607L1.43795 25.0587C0.852506 24.4729 0.852275 23.5233 1.43795 22.9377L6.9399 17.4367ZM22.9399 1.43765C23.5257 0.852213 24.4753 0.852111 25.061 1.43765L30.561 6.93765C31.1464 7.52336 31.1464 8.47302 30.561 9.05875L25.059 14.5607C24.4733 15.1462 23.5237 15.1462 22.9379 14.5607C22.3524 13.975 22.3524 13.0254 22.9379 12.4396L25.8794 9.4982H2.50045C1.67205 9.4982 1.0005 8.82658 1.00045 7.9982C1.00058 7.16989 1.6721 6.4982 2.50045 6.4982H25.8794L22.9399 3.55875C22.3543 2.97295 22.3542 2.02339 22.9399 1.43765Z"
    fill="currentColor"
  />
</svg>
