<svg width="12" height="12" viewBox="0 0 12 12" fill="none" xmlns="http://www.w3.org/2000/svg" data-fui-icon="true">
  <path
    fill-rule="evenodd"
    clip-rule="evenodd"
    d="M9.36624 6.28026C9.85438 6.7682 10.6457 6.76826 11.1338 6.28026C11.6219 5.79217 11.6218 5.00085 11.1338 4.51268L7.06057 0.439441C6.47479 -0.146323 5.52526 -0.146328 4.93948 0.439441L0.866239 4.51268C0.378172 5.00085 0.378113 5.79214 0.866239 6.28026C1.35438 6.7682 2.14572 6.76827 2.63382 6.28026L6.00003 2.91405L9.36624 6.28026ZM9.36624 11.6299C9.85439 12.118 10.6457 12.118 11.1338 11.6299C11.6219 11.1417 11.6219 10.3504 11.1338 9.86229L7.06057 5.78905C6.47482 5.20332 5.52527 5.20338 4.93948 5.78905L0.866239 9.86229C0.378083 10.3504 0.378083 11.1417 0.866239 11.6299C1.35439 12.118 2.14566 12.118 2.63382 11.6299L6.00003 8.26366L9.36624 11.6299Z"
    fill="currentColor"
  />
</svg>
