<svg width="20" height="20" viewBox="0 0 20 20" fill="none" xmlns="http://www.w3.org/2000/svg" data-fui-icon="true">
  <path
    fill-rule="evenodd"
    clip-rule="evenodd"
    d="M10.4397 4.93939C9.85426 5.52516 9.8541 6.47478 10.4397 7.06046C11.0253 7.64612 11.9749 7.64589 12.5607 7.06046L13.5002 6.12102L13.5002 17.4998C13.5003 18.3279 14.1721 18.9995 15.0002 18.9998C15.8285 18.9998 16.5 18.3281 16.5001 17.4998V6.12102L17.4396 7.06046C18.0252 7.64612 18.9748 7.64589 19.5606 7.06046C20.1464 6.47469 20.1464 5.52518 19.5606 4.93939L16.0607 1.43944C15.7794 1.15824 15.3979 0.999994 15.0002 0.999988C14.6025 1.00013 14.2208 1.15827 13.9396 1.43944L10.4397 4.93939ZM0.439782 12.9393C-0.145941 13.5251 -0.145945 14.4746 0.439782 15.0604L3.93974 18.5613C4.22102 18.8425 4.60354 18.9998 5.00125 18.9998C5.39881 18.9996 5.78065 18.8424 6.06178 18.5613L9.56174 15.0604C10.1474 14.4747 10.1472 13.5251 9.56174 12.9393C8.97597 12.3535 8.02645 12.3535 7.44067 12.9393L6.50123 13.8787L6.50123 2.49997C6.50123 1.67176 5.82938 1.00032 5.00125 0.999988C4.17283 0.999985 3.50127 1.67155 3.50127 2.49997L3.50127 13.8797L2.56085 12.9393C1.97507 12.3536 1.02555 12.3535 0.439782 12.9393Z"
    fill="currentColor"
  />
</svg>
