<svg width="32" height="32" viewBox="0 0 32 32" fill="none" xmlns="http://www.w3.org/2000/svg" data-fui-icon="true">
  <path
    fill-rule="evenodd"
    clip-rule="evenodd"
    d="M21.8783 16.9916C22.2697 17.3807 22.9028 17.3798 23.2924 16.9887C23.6818 16.5975 23.6805 15.9634 23.2895 15.5737L17.1762 9.48579C16.526 8.83852 15.4749 8.8386 14.8246 9.48579L8.71133 15.5737C8.32004 15.9634 8.3187 16.5974 8.7084 16.9887C9.09814 17.3798 9.73219 17.3813 10.1234 16.9916L16.0004 11.1381L21.8783 16.9916ZM21.8783 22.7416C22.2697 23.1307 22.9028 23.1298 23.2924 22.7387C23.6818 22.3475 23.6805 21.7134 23.2895 21.3237L17.1762 15.2358C16.526 14.5885 15.4749 14.5886 14.8246 15.2358L8.71133 21.3237C8.32004 21.7134 8.3187 22.3474 8.7084 22.7387C9.09814 23.1298 9.73219 23.1313 10.1234 22.7416L16.0004 16.8881L21.8783 22.7416Z"
    fill="currentColor"
  />
</svg>
