<svg width="24" height="24" viewBox="0 0 24 24" fill="none" xmlns="http://www.w3.org/2000/svg" data-fui-icon="true">
  <path
    fill-rule="evenodd"
    clip-rule="evenodd"
    d="M6.11633 12.3657C6.60438 11.8778 7.39574 11.8779 7.88387 12.3657C8.37178 12.8538 8.37193 13.6461 7.88387 14.1342L5.26869 16.7503L21.7498 16.7494C22.4399 16.7495 22.9995 17.3093 22.9998 17.9993C22.9997 18.6895 22.44 19.2492 21.7498 19.2493L5.26772 19.2503L7.88387 21.8665C8.37177 22.3546 8.37194 23.1459 7.88387 23.634C7.3958 24.122 6.60447 24.1219 6.11633 23.634L1.36643 18.8841C0.878321 18.396 0.878383 17.6047 1.36643 17.1165L6.11633 12.3657ZM16.1161 0.365912C16.6043 -0.121841 17.3957 -0.1221 17.8837 0.365912L22.6336 5.11679C23.1214 5.60494 23.1215 6.3963 22.6336 6.88433L17.8837 11.6342C17.3956 12.1223 16.6043 12.122 16.1161 11.6342C15.628 11.1461 15.628 10.3548 16.1161 9.86669L18.7323 7.25054L2.2502 7.24956C1.55989 7.24955 1.00027 6.68988 1.00022 5.99959C1.0004 5.30939 1.55997 4.74961 2.2502 4.74961L18.7323 4.75059L16.1161 2.13345C15.628 1.64531 15.628 0.854056 16.1161 0.365912Z"
    fill="currentColor"
  />
</svg>
