<svg width="20" height="20" viewBox="0 0 20 20" fill="none" xmlns="http://www.w3.org/2000/svg" data-fui-icon="true">
  <path
    fill-rule="evenodd"
    clip-rule="evenodd"
    d="M15.0605 10.4394C14.4748 9.85401 13.5251 9.85385 12.9395 10.4394C12.3538 11.0251 12.354 11.9747 12.9395 12.5605L13.8789 13.5H2.5C1.67187 13.5001 1.0003 14.1719 1 15C1 15.8283 1.67168 16.4998 2.5 16.5H13.8789L12.9395 17.4394C12.3538 18.0251 12.354 18.9747 12.9395 19.5605C13.5252 20.1463 14.4748 20.1463 15.0605 19.5605L18.5605 16.0605C18.8418 15.7792 19 15.3977 19 15C18.9999 14.6023 18.8417 14.2206 18.5605 13.9394L15.0605 10.4394ZM7.06055 0.439421C6.47477 -0.146309 5.52523 -0.146313 4.93945 0.439421L1.43848 3.93942C1.15732 4.22071 0.999998 4.60323 1 5.00094C1.00018 5.39851 1.15736 5.78035 1.43848 6.06149L4.93945 9.56149C5.52516 10.1472 6.47475 10.147 7.06055 9.56149C7.64631 8.97571 7.6463 8.02618 7.06055 7.4404L6.12109 6.50094H17.5C18.3282 6.50094 18.9997 5.82909 19 5.00094C19 4.17252 18.3284 3.50095 17.5 3.50094H6.12012L7.06055 2.56051C7.6463 1.97473 7.64632 1.0252 7.06055 0.439421Z"
    fill="currentColor"
  />
</svg>
