<svg width="24" height="24" viewBox="0 0 24 24" fill="none" xmlns="http://www.w3.org/2000/svg" data-fui-icon="true">
  <path
    fill-rule="evenodd"
    clip-rule="evenodd"
    d="M14.209 2.70881C14.5994 2.31827 14.5995 1.68521 14.209 1.29475C13.8185 0.90457 13.1854 0.904488 12.795 1.29475L3.21684 10.8729C2.59243 11.4973 2.59248 12.5101 3.21684 13.1346L12.7911 22.7088C13.1816 23.0993 13.8146 23.0993 14.2051 22.7088C14.5956 22.3183 14.5956 21.6853 14.2051 21.2947L4.9141 12.0037L14.209 2.70881ZM20.959 2.70881C21.3494 2.31827 21.3495 1.68521 20.959 1.29475C20.5685 0.90457 19.9354 0.904488 19.545 1.29475L9.96684 10.8729C9.34242 11.4973 9.34248 12.5101 9.96684 13.1346L19.5411 22.7088C19.9316 23.0993 20.5646 23.0993 20.9551 22.7088C21.3456 22.3183 21.3456 21.6853 20.9551 21.2947L11.6641 12.0037L20.959 2.70881Z"
    fill="currentColor"
  />
</svg>
