<svg width="32" height="32" viewBox="0 0 32 32" fill="none" xmlns="http://www.w3.org/2000/svg" data-fui-icon="true">
  <path
    d="M14.908 10.471C14.3235 9.88393 14.3258 8.93342 14.9128 8.34894C15.4999 7.76465 16.4505 7.7668 17.0349 8.35382L23.1199 14.4671C23.9612 15.3124 23.9612 16.6784 23.1199 17.5237L17.0349 23.637C16.4505 24.2241 15.4999 24.2262 14.9128 23.6419C14.3258 23.0575 14.3236 22.1069 14.908 21.5198L20.408 15.9954L14.908 10.471ZM8.6853 10.471C8.10092 9.88392 8.10314 8.93339 8.69019 8.34894C9.27725 7.76456 10.2278 7.76686 10.8123 8.35382L16.8972 14.4671C17.7387 15.3124 17.7387 16.6784 16.8972 17.5237L10.8123 23.637C10.2278 24.2241 9.27728 24.2263 8.69019 23.6419C8.10322 23.0574 8.10094 22.1069 8.6853 21.5198L14.1853 15.9954L8.6853 10.471Z"
    fill="currentColor"
  />
</svg>
