<svg width="12" height="12" viewBox="0 0 12 12" fill="none" xmlns="http://www.w3.org/2000/svg" data-fui-icon="true">
  <path
    fill-rule="evenodd"
    clip-rule="evenodd"
    d="M6.36586 9.8845C5.87764 9.39645 5.87781 8.60424 6.36586 8.11602C6.74025 7.7416 7.293 7.65534 7.75057 7.85529L7.74959 1.25009C7.74959 0.559895 8.30937 0.000339494 8.99954 0.000141138C9.68975 0.000233641 10.2494 0.559847 10.2495 1.25009L10.2505 7.85529C10.7078 7.65574 11.26 7.7419 11.6342 8.11602C12.1221 8.60412 12.1221 9.39545 11.6342 9.88353L9.88427 11.6335C9.39634 12.1214 8.60496 12.122 8.11676 11.6344L6.36586 9.8845ZM0.366102 3.88377C-0.121949 3.39555 -0.122119 2.60334 0.366102 2.11529L2.11701 0.365361C2.6052 -0.122247 3.39656 -0.121611 3.88451 0.366337L5.63444 2.11627C6.12232 2.60436 6.12234 3.39569 5.63444 3.88377C5.26023 4.25789 4.70807 4.34404 4.25071 4.1445L4.24973 10.7497C4.24969 11.4399 3.69 11.9996 2.99978 11.9997C2.30961 11.9995 1.74983 11.4399 1.74983 10.7497L1.75081 4.1445C1.29326 4.34445 0.740495 4.25815 0.366102 3.88377Z"
    fill="currentColor"
  />
</svg>
