<svg width="16" height="16" viewBox="0 0 16 16" fill="none" xmlns="http://www.w3.org/2000/svg" data-fui-icon="true">
  <path
    fill-rule="evenodd"
    clip-rule="evenodd"
    d="M11.7065 8.29128C11.3161 7.90081 10.683 7.9009 10.2925 8.29128C9.90196 8.68181 9.90196 9.31482 10.2925 9.70535L11.5854 10.9983H1.99951C1.44723 10.9983 0.999512 11.446 0.999512 11.9983C0.999639 12.5505 1.4473 12.9983 1.99951 12.9983H11.5854L10.2925 14.2913C9.90196 14.6818 9.90196 15.3148 10.2925 15.7053C10.683 16.0955 11.3161 16.0958 11.7065 15.7053L14.7065 12.7053C14.8939 12.5179 14.9994 12.2634 14.9995 11.9983C14.9995 11.7333 14.8939 11.4788 14.7065 11.2913L11.7065 8.29128ZM5.71045 0.293237C5.31994 -0.097272 4.68691 -0.0972429 4.29639 0.293237L1.29248 3.29714C0.90199 3.68767 0.901971 4.32069 1.29248 4.71121L4.29639 7.71511C4.68694 8.10516 5.32008 8.10546 5.71045 7.71511C6.10078 7.32474 6.10049 6.6916 5.71045 6.30105L4.41357 5.00417H13.9995C14.5514 5.00392 14.9993 4.5561 14.9995 4.00417C14.9995 3.45205 14.5516 3.00443 13.9995 3.00417H4.41357L5.71045 1.7073C6.10078 1.31693 6.1005 0.683784 5.71045 0.293237Z"
    fill="currentColor"
  />
</svg>
