<svg width="16" height="16" viewBox="0 0 16 16" fill="none" xmlns="http://www.w3.org/2000/svg" data-fui-icon="true">
  <path
    fill-rule="evenodd"
    clip-rule="evenodd"
    d="M7.44192 2.70825C7.05143 2.31775 7.05149 1.68472 7.44192 1.29418C7.83246 0.903794 8.46551 0.903707 8.85599 1.29418L14.5991 7.03735C15.1309 7.56947 15.1311 8.43206 14.5991 8.96411L8.85599 14.7073C8.46555 15.0977 7.83247 15.0975 7.44192 14.7073C7.0514 14.3167 7.0514 13.6837 7.44192 13.2932L12.7339 8.00122L7.44192 2.70825ZM1.29349 2.70825C0.903 2.31776 0.903082 1.68472 1.29349 1.29418C1.68401 0.90366 2.31702 0.903662 2.70755 1.29418L8.45071 7.03735C8.9827 7.56951 8.98281 8.43202 8.45071 8.96411L2.70755 14.7073C2.31706 15.0977 1.68401 15.0977 1.29349 14.7073C0.902975 14.3168 0.902996 13.6837 1.29349 13.2932L6.58548 8.00122L1.29349 2.70825Z"
    fill="currentColor"
  />
</svg>
