<svg width="16" height="16" viewBox="0 0 16 16" fill="none" xmlns="http://www.w3.org/2000/svg" data-fui-icon="true">
  <path
    fill-rule="evenodd"
    clip-rule="evenodd"
    d="M8.29141 11.7063C7.90093 11.3158 7.90102 10.6828 8.29141 10.2922C8.68193 9.90172 9.31495 9.90171 9.70547 10.2922L10.9984 11.5852V1.99927C10.9984 1.44698 11.4462 0.999268 11.9984 0.999268C12.5506 0.999394 12.9984 1.44706 12.9984 1.99927V11.5852L14.2914 10.2922C14.6819 9.90171 15.3149 9.90171 15.7055 10.2922C16.0957 10.6828 16.0959 11.3159 15.7055 11.7063L12.7055 14.7063C12.518 14.8937 12.2635 14.9992 11.9984 14.9993C11.7334 14.9993 11.4789 14.8936 11.2914 14.7063L8.29141 11.7063ZM0.293359 5.71021C-0.0971499 5.3197 -0.0971208 4.68667 0.293359 4.29614L3.29727 1.29224C3.68779 0.901746 4.32081 0.901727 4.71133 1.29224L7.71523 4.29614C8.10528 4.6867 8.10559 5.31984 7.71523 5.71021C7.32486 6.10053 6.69172 6.10025 6.30117 5.71021L5.0043 4.41333L5.0043 13.9993C5.00404 14.5512 4.55622 14.999 4.0043 14.9993C3.45217 14.9993 3.00455 14.5513 3.0043 13.9993L3.0043 4.41333L1.70742 5.71021C1.31705 6.10053 0.683906 6.10025 0.293359 5.71021Z"
    fill="currentColor"
  />
</svg>
