<svg width="16" height="16" viewBox="0 0 16 16" fill="none" xmlns="http://www.w3.org/2000/svg" data-fui-icon="true">
  <path
    fill-rule="evenodd"
    clip-rule="evenodd"
    d="M10.323 7.93982C10.9088 7.3541 11.8584 7.35413 12.4441 7.93982C13.0296 8.52562 13.0298 9.47524 12.4441 10.0609L9.29668 13.2084C8.58081 13.924 7.41982 13.9239 6.7039 13.2084L3.55644 10.0609C2.97072 9.47519 2.97083 8.52562 3.55644 7.93982C4.14222 7.35404 5.09174 7.35405 5.67753 7.93982L7.9998 10.2621L10.323 7.93982ZM10.323 2.68982C10.9088 2.1041 11.8584 2.10413 12.4441 2.68982C13.0296 3.27562 13.0298 4.22524 12.4441 4.81091L9.29668 7.95837C8.5808 8.67404 7.41983 8.67395 6.7039 7.95837L3.55644 4.81091C2.97071 4.22519 2.97083 3.27562 3.55644 2.68982C4.14222 2.10404 5.09174 2.10405 5.67753 2.68982L7.9998 5.01209L10.323 2.68982Z"
    fill="currentColor"
  />
</svg>
