<svg width="12" height="12" viewBox="0 0 12 12" fill="none" xmlns="http://www.w3.org/2000/svg" data-fui-icon="true">
  <path
    fill-rule="evenodd"
    clip-rule="evenodd"
    d="M5.77869 3.92807C6.07135 3.63515 6.07151 3.16034 5.77869 2.86752C5.48584 2.57508 5.01093 2.57498 4.71814 2.86752L2.29529 5.29135C1.90488 5.68178 1.90506 6.31487 2.29529 6.70541L4.71814 9.12826C5.01104 9.42115 5.4858 9.42115 5.77869 9.12826C6.07144 8.83536 6.07154 8.36056 5.77869 8.06771L3.70935 5.99838L5.77869 3.92807ZM9.77869 3.92807C10.0714 3.63515 10.0715 3.16034 9.77869 2.86752C9.48584 2.57508 9.01093 2.57498 8.71814 2.86752L6.29529 5.29135C5.90488 5.68178 5.90506 6.31487 6.29529 6.70541L8.71814 9.12826C9.01104 9.42115 9.4858 9.42115 9.77869 9.12826C10.0714 8.83536 10.0715 8.36056 9.77869 8.06771L7.70935 5.99838L9.77869 3.92807Z"
    fill="currentColor"
  />
</svg>
