<svg width="32" height="32" viewBox="0 0 32 32" fill="none" xmlns="http://www.w3.org/2000/svg" data-fui-icon="true">
  <path
    fill-rule="evenodd"
    clip-rule="evenodd"
    d="M17.0602 9.94956C17.3522 9.65615 17.3514 9.18128 17.0582 8.88902C16.7648 8.59677 16.29 8.59767 15.9977 8.89097L9.90977 15.0033C9.3592 15.5561 9.3592 16.4505 9.90977 17.0033L15.9977 23.1156C16.29 23.4089 16.7648 23.4098 17.0582 23.1175C17.3514 22.8252 17.3523 22.3504 17.0602 22.057L11.0309 16.0033L17.0602 9.94956ZM22.2848 9.94956C22.577 9.65614 22.5761 9.18134 22.2828 8.88902C21.9893 8.59688 21.5145 8.59755 21.2223 8.89097L15.1344 15.0033C14.5839 15.556 14.584 16.4505 15.1344 17.0033L21.2223 23.1156C21.5146 23.409 21.9894 23.4098 22.2828 23.1175C22.5762 22.8252 22.577 22.3504 22.2848 22.057L16.2555 16.0033L22.2848 9.94956Z"
    fill="currentColor"
  />
</svg>
