<svg width="24" height="24" viewBox="0 0 24 24" fill="none" xmlns="http://www.w3.org/2000/svg" data-fui-icon="true">
  <path
    d="M18.9701 15.2196C19.263 14.927 19.7379 14.9269 20.0307 15.2196C20.3233 15.5125 20.3232 15.9873 20.0307 16.2802L12.5307 23.7802C12.2379 24.073 11.7631 24.0729 11.4702 23.7802L3.97019 16.2802C3.6773 15.9873 3.6773 15.5125 3.97019 15.2196C4.26311 14.927 4.73794 14.9269 5.03074 15.2196L12.0004 22.1893L18.9701 15.2196ZM12.0004 0C12.1991 0.000144885 12.3902 0.0792016 12.5307 0.219725L20.0307 7.71969C20.3233 8.01248 20.3232 8.48736 20.0307 8.78023C19.7378 9.07307 19.263 9.07297 18.9701 8.78023L12.0004 1.81054L5.03074 8.78023C4.73792 9.07304 4.26311 9.07288 3.97019 8.78023C3.6773 8.48734 3.6773 8.01258 3.97019 7.71969L11.4702 0.219725C11.6108 0.0792852 11.8017 -4.04358e-07 12.0004 0Z"
    fill="currentColor"
  />
</svg>
