<svg width="24" height="24" viewBox="0 0 24 24" fill="none" xmlns="http://www.w3.org/2000/svg" data-fui-icon="true">
  <path
    fill-rule="evenodd"
    clip-rule="evenodd"
    d="M17.8838 12.3652C17.3957 11.8777 16.6042 11.8776 16.1162 12.3652C15.6282 12.8533 15.6284 13.6456 16.1162 14.1338L18.7314 16.75L2.25 16.749C1.56005 16.7491 1.00048 17.3091 1 17.999C0.999989 18.6893 1.55976 19.2489 2.25 19.249L18.7324 19.25L16.1162 21.8662C15.6282 22.3542 15.6284 23.1456 16.1162 23.6338C16.6044 24.1219 17.3957 24.1219 17.8838 23.6338L22.6338 18.8838C23.1218 18.3956 23.1218 17.6043 22.6338 17.1162L17.8838 12.3652ZM7.88379 0.366196C7.39561 -0.121632 6.60426 -0.121847 6.11621 0.366196L1.36621 5.11717C0.878542 5.60537 0.878218 6.39676 1.36621 6.88475L6.11621 11.6348C6.60421 12.1227 7.39562 12.1224 7.88379 11.6348C8.37192 11.1466 8.37186 10.3553 7.88379 9.86717L5.26758 7.25096L21.75 7.24998C22.4402 7.24997 22.9998 6.69016 23 5.99998C22.9998 5.30977 22.4402 4.74998 21.75 4.74998L5.26758 4.75096L7.88379 2.13377C8.37191 1.64565 8.37186 0.854356 7.88379 0.366196Z"
    fill="currentColor"
  />
</svg>
