<svg width="16" height="16" viewBox="0 0 16 16" fill="none" xmlns="http://www.w3.org/2000/svg" data-fui-icon="true">
  <path
    d="M7.3855 3.6059C6.80258 3.01753 6.80702 2.06792 7.39526 1.4848C7.98363 0.902149 8.93332 0.906464 9.51636 1.49457L15.0105 7.03754C15.7345 7.76794 15.7298 8.94707 14.9998 9.67133L9.50659 15.1157C8.9182 15.6986 7.96861 15.6942 7.3855 15.1059C6.80253 14.5175 6.80696 13.5679 7.39526 12.9848L12.0789 8.34125L7.3855 3.6059ZM0.890381 3.6098C0.304668 3.02404 0.304697 2.07449 0.890381 1.48871C1.47618 0.903228 2.42578 0.903064 3.01147 1.48871L8.50659 6.98383C9.23381 7.71116 9.23367 8.89024 8.50659 9.61761L3.01147 15.1108C2.42565 15.6964 1.47608 15.6965 0.890381 15.1108C0.304801 14.5249 0.304691 13.5754 0.890381 12.9897L5.58081 8.30121L0.890381 3.6098Z"
    fill="currentColor"
  />
</svg>
