<svg width="12" height="12" viewBox="0 0 12 12" fill="none" xmlns="http://www.w3.org/2000/svg" data-fui-icon="true">
  <path
    fill-rule="evenodd"
    clip-rule="evenodd"
    d="M5.45535 4.10475C5.84564 3.71421 5.84579 3.08114 5.45535 2.69069C5.06487 2.30064 4.43169 2.30053 4.04128 2.69069L1.61843 5.11452C1.1304 5.60257 1.13059 6.39392 1.61843 6.88209L4.04128 9.30495C4.43181 9.69547 5.06482 9.69547 5.45535 9.30495C5.84573 8.91441 5.84582 8.28136 5.45535 7.89088L3.56277 5.99831L5.45535 4.10475ZM10.4553 4.10475C10.8456 3.71421 10.8458 3.08114 10.4553 2.69069C10.0649 2.30064 9.43169 2.30053 9.04128 2.69069L6.61843 5.11452C6.1304 5.60257 6.13059 6.39392 6.61843 6.88209L9.04128 9.30495C9.43181 9.69547 10.0648 9.69547 10.4553 9.30495C10.8457 8.91441 10.8458 8.28136 10.4553 7.89088L8.56277 5.99831L10.4553 4.10475Z"
    fill="currentColor"
  />
</svg>
