<svg width="16" height="16" viewBox="0 0 16 16" fill="none" xmlns="http://www.w3.org/2000/svg" data-fui-icon="true">
  <path
    d="M7.3855 3.60587C6.80258 3.0175 6.80702 2.06789 7.39526 1.48477C7.98363 0.902119 8.93332 0.906433 9.51636 1.49454L15.0105 7.03751C15.7345 7.76791 15.7298 8.94704 14.9998 9.6713L9.50659 15.1156C8.9182 15.6986 7.96861 15.6942 7.3855 15.1059C6.80253 14.5175 6.80696 13.5679 7.39526 12.9848L12.0789 8.34122L7.3855 3.60587ZM0.890381 3.60977C0.304668 3.02401 0.304697 2.07446 0.890381 1.48868C1.47618 0.903197 2.42578 0.903033 3.01147 1.48868L8.50659 6.9838C9.23381 7.71113 9.23367 8.89021 8.50659 9.61758L3.01147 15.1107C2.42565 15.6964 1.47608 15.6965 0.890381 15.1107C0.304801 14.5249 0.304691 13.5753 0.890381 12.9897L5.58081 8.30118L0.890381 3.60977Z"
    fill="currentColor"
  />
</svg>
