<svg width="20" height="20" viewBox="0 0 20 20" fill="none" xmlns="http://www.w3.org/2000/svg" data-fui-icon="true">
  <path
    fill-rule="evenodd"
    clip-rule="evenodd"
    d="M16.8704 8.86628C17.3585 8.37828 18.1498 8.37818 18.638 8.86628C19.1256 9.35442 19.1258 10.1458 18.638 10.6339L11.2229 18.0489C10.5476 18.7238 9.45278 18.7231 8.7776 18.0479L1.36647 10.6339C0.87852 10.1457 0.878491 9.35435 1.36647 8.86628C1.85467 8.37831 2.64598 8.37822 3.13404 8.86628L10.0003 15.7354L16.8704 8.86628ZM16.8704 1.86628C17.3585 1.37828 18.1498 1.37818 18.638 1.86628C19.1256 2.35442 19.1258 3.14585 18.638 3.63386L11.2229 11.0489C10.5476 11.7239 9.45278 11.7231 8.7776 11.0479L1.36647 3.63386C0.878515 3.14569 0.878477 2.35435 1.36647 1.86628C1.85467 1.37831 2.64598 1.37822 3.13404 1.86628L10.0003 8.73542L16.8704 1.86628Z"
    fill="currentColor"
  />
</svg>
