<svg width="16" height="16" viewBox="0 0 16 16" fill="none" xmlns="http://www.w3.org/2000/svg" data-fui-icon="true">
  <path
    fill-rule="evenodd"
    clip-rule="evenodd"
    d="M13.2918 8.55806C13.6823 8.94856 14.3154 8.9485 14.7059 8.55806C15.0963 8.16753 15.0964 7.53448 14.7059 7.144L8.96274 1.40084C8.43062 0.869042 7.56804 0.868924 7.03598 1.40084L1.29282 7.144C0.902385 7.53444 0.902555 8.16752 1.29282 8.55806C1.68335 8.94858 2.31636 8.94858 2.70688 8.55806L7.99888 3.26607L13.2918 8.55806ZM13.2918 14.7065C13.6823 15.097 14.3154 15.0969 14.7059 14.7065C15.0964 14.316 15.0964 13.683 14.7059 13.2924L8.96274 7.54927C8.43058 7.01729 7.56807 7.01718 7.03598 7.54927L1.29282 13.2924C0.902369 13.6829 0.902417 14.316 1.29282 14.7065C1.68334 15.097 2.31636 15.097 2.70688 14.7065L7.99888 9.41451L13.2918 14.7065Z"
    fill="currentColor"
  />
</svg>
