<svg width="20" height="20" viewBox="0 0 20 20" fill="none" xmlns="http://www.w3.org/2000/svg" data-fui-icon="true">
  <path
    fill-rule="evenodd"
    clip-rule="evenodd"
    d="M11.1633 3.15917C11.6513 2.671 11.6514 1.8797 11.1633 1.39159C10.6751 0.903952 9.88369 0.90374 9.39568 1.39159L1.98064 8.80663C1.3057 9.48199 1.30647 10.5768 1.98162 11.2519L9.39568 18.6631C9.88385 19.151 10.6752 19.1511 11.1633 18.6631C11.6512 18.1749 11.6513 17.3836 11.1633 16.8955L4.29412 10.0293L11.1633 3.15917ZM18.1633 3.15917C18.6513 2.671 18.6514 1.8797 18.1633 1.39159C17.6751 0.903955 16.8837 0.903742 16.3957 1.39159L8.98064 8.80663C8.30568 9.48199 8.30647 10.5768 8.98162 11.2519L16.3957 18.6631C16.8839 19.151 17.6752 19.1511 18.1633 18.6631C18.6512 18.1749 18.6513 17.3836 18.1633 16.8955L11.2941 10.0293L18.1633 3.15917Z"
    fill="currentColor"
  />
</svg>
