<svg width="20" height="20" viewBox="0 0 20 20" fill="none" xmlns="http://www.w3.org/2000/svg" data-fui-icon="true">
  <path
    fill-rule="evenodd"
    clip-rule="evenodd"
    d="M10.3665 14.884C9.87852 14.3959 9.87843 13.6046 10.3665 13.1165C10.8546 12.6284 11.646 12.6285 12.1341 13.1165L13.7503 14.7327L13.7503 2.25024C13.7505 1.56001 14.3101 1.00027 15.0003 1.00024C15.6906 1.00024 16.2502 1.56 16.2503 2.25024V14.7327L17.8665 13.1165C18.3546 12.6284 19.146 12.6285 19.6341 13.1165C20.1222 13.6046 20.1222 14.3959 19.6341 14.884L15.8841 18.634C15.396 19.1222 14.6047 19.1222 14.1165 18.634L10.3665 14.884ZM0.366533 6.88403C-0.121479 6.39587 -0.121574 5.60456 0.366533 5.11646L4.11653 1.36646C4.35093 1.13211 4.66886 1.00026 5.00032 1.00024C5.33177 1.00024 5.6497 1.13213 5.88411 1.36646L9.63411 5.11646C10.1222 5.60457 10.1221 6.39587 9.63411 6.88403C9.14596 7.37218 8.35469 7.37218 7.86653 6.88403L6.25032 5.26782L6.25032 17.7502C6.25032 18.4406 5.69068 19.0002 5.00032 19.0002C4.30999 19.0002 3.75032 18.4406 3.75032 17.7502L3.75032 5.26782L2.13411 6.88403C1.64596 7.37219 0.854688 7.37219 0.366533 6.88403Z"
    fill="currentColor"
  />
</svg>
