<svg width="32" height="32" viewBox="0 0 32 32" fill="none" xmlns="http://www.w3.org/2000/svg" data-fui-icon="true">
  <path
    fill-rule="evenodd"
    clip-rule="evenodd"
    d="M17.2195 24.5293C16.9266 24.2364 16.9267 23.7617 17.2195 23.4688C17.5124 23.1758 17.9872 23.1759 18.2801 23.4688L23.2498 28.4375L23.2498 1.74805C23.2498 1.33383 23.5856 0.998047 23.9998 0.998047C24.4139 0.998198 24.7498 1.33393 24.7498 1.74805L24.7498 28.4375L29.7185 23.4688C30.0114 23.1759 30.4862 23.1759 30.7791 23.4688C31.0719 23.7616 31.072 24.2364 30.7791 24.5293L24.5301 30.7783C24.2372 31.0711 23.7624 31.0711 23.4695 30.7783L17.2195 24.5293ZM1.21951 8.52734C0.926696 8.23444 0.926636 7.75966 1.21951 7.4668L7.46951 1.21777C7.7624 0.92498 8.23719 0.924961 8.53006 1.21777L14.7791 7.4668C15.0719 7.75966 15.0719 8.23445 14.7791 8.52734C14.4862 8.82024 14.0114 8.82024 13.7185 8.52734L8.74979 3.55859L8.74979 30.248C8.74979 30.6622 8.41386 30.9979 7.99979 30.998C7.58557 30.998 7.24979 30.6623 7.24979 30.248L7.24979 3.55859L2.28006 8.52734C1.98716 8.82023 1.5124 8.82025 1.21951 8.52734Z"
    fill="currentColor"
  />
</svg>
