<svg width="17" height="17" viewBox="0 0 17 17" fill="none" xmlns="http://www.w3.org/2000/svg" data-fui-icon="true">
  <path
    fill-rule="evenodd"
    clip-rule="evenodd"
    d="M8.72504 13.3104C8.41428 12.9993 8.41406 12.4949 8.72504 12.1839C9.03604 11.873 9.54042 11.8732 9.85152 12.1839L11.9479 14.2803L11.9479 0.796755C11.9481 0.357067 12.3048 0.000287681 12.7445 0.000129659C13.1842 0.000226904 13.5409 0.35703 13.5411 0.796755L13.5411 14.2803L15.6374 12.1839C15.9484 11.8732 16.4529 11.8733 16.7639 12.1839C17.0748 12.495 17.0747 12.9994 16.7639 13.3104L13.3077 16.7666C12.9967 17.0777 12.4924 17.0775 12.1812 16.7666L8.72504 13.3104ZM0.233925 4.81619C-0.0769376 4.50513 -0.0769376 4.00077 0.233925 3.68971L3.69012 0.233516C4.00118 -0.0772323 4.50558 -0.0773072 4.8166 0.233516L8.27279 3.68971C8.58376 4.00071 8.58358 4.50507 8.27279 4.81619C7.9617 5.12724 7.45741 5.12724 7.14631 4.81619L5.04998 2.71986L5.04998 16.2034C5.04998 16.6432 4.69317 16.9998 4.25336 17C3.81348 16.9999 3.45673 16.6433 3.45673 16.2034L3.45673 2.71986L1.3604 4.81619C1.0493 5.1271 0.544969 5.1272 0.233925 4.81619Z"
    fill="currentColor"
  />
</svg>
