<svg width="32" height="32" viewBox="0 0 32 32" fill="none" xmlns="http://www.w3.org/2000/svg" data-fui-icon="true">
  <path
    fill-rule="evenodd"
    clip-rule="evenodd"
    d="M16.8977 10.3109C17.3848 9.82174 17.383 9.03045 16.8938 8.54337C16.4046 8.05648 15.6133 8.0581 15.1262 8.54728L9.04031 14.6596C8.29593 15.4073 8.29601 16.6169 9.04031 17.3647L15.1262 23.477C15.6133 23.9662 16.4046 23.9679 16.8938 23.4809C17.3831 22.9938 17.3848 22.2025 16.8977 21.7133L11.2219 16.0121L16.8977 10.3109ZM23.1536 10.3109C23.6405 9.82174 23.6388 9.03042 23.1497 8.54337C22.6605 8.05641 21.8692 8.05816 21.3821 8.54728L15.2962 14.6596C14.5517 15.4074 14.5517 16.6168 15.2962 17.3647L21.3821 23.477C21.8692 23.9662 22.6604 23.9679 23.1497 23.4809C23.6388 22.9938 23.6406 22.2025 23.1536 21.7133L17.4778 16.0121L23.1536 10.3109Z"
    fill="currentColor"
  />
</svg>
