<svg width="24" height="24" viewBox="0 0 24 24" fill="none" xmlns="http://www.w3.org/2000/svg" data-fui-icon="true">
  <path
    fill-rule="evenodd"
    clip-rule="evenodd"
    d="M16.2934 11.5431C16.6839 11.1527 17.317 11.1526 17.7074 11.5431C18.0977 11.9336 18.0978 12.5667 17.7074 12.9571L13.061 17.6036C12.4753 18.1892 11.5256 18.189 10.9399 17.6036L6.29338 12.9571C5.90286 12.5666 5.90286 11.9336 6.29338 11.5431C6.6839 11.1527 7.31695 11.1526 7.70744 11.5431L12.0004 15.836L16.2934 11.5431ZM16.2934 6.29308C16.6839 5.90267 17.317 5.90259 17.7074 6.29308C18.0976 6.68359 18.0978 7.3167 17.7074 7.70714L13.061 12.3536C12.4753 12.9392 11.5256 12.939 10.9399 12.3536L6.29338 7.70714C5.90286 7.31662 5.90286 6.6836 6.29338 6.29308C6.6839 5.90267 7.31695 5.9026 7.70744 6.29308L12.0004 10.586L16.2934 6.29308Z"
    fill="currentColor"
  />
</svg>
