<svg width="32" height="32" viewBox="0 0 32 32" fill="none" xmlns="http://www.w3.org/2000/svg" data-fui-icon="true">
  <path
    fill-rule="evenodd"
    clip-rule="evenodd"
    d="M21.7012 16.91C22.1904 17.397 22.9817 17.3952 23.4688 16.9061C23.9557 16.4168 23.954 15.6255 23.4649 15.1385L17.3526 9.05257C16.6048 8.3082 15.3953 8.30828 14.6475 9.05257L8.53518 15.1385C8.04597 15.6256 8.04427 16.4169 8.53128 16.9061C9.01835 17.3953 9.80962 17.3971 10.2989 16.91L16 11.2342L21.7012 16.91ZM21.7012 23.1659C22.1904 23.6528 22.9817 23.6511 23.4688 23.1619C23.9557 22.6727 23.954 21.8814 23.4649 21.3944L17.3526 15.3084C16.6048 14.564 15.3953 14.564 14.6475 15.3084L8.53518 21.3944C8.04595 21.8814 8.04421 22.6727 8.53128 23.1619C9.01835 23.6511 9.80965 23.6529 10.2989 23.1659L16 17.4901L21.7012 23.1659Z"
    fill="currentColor"
  />
</svg>
