<svg width="24" height="24" viewBox="0 0 24 24" fill="none" xmlns="http://www.w3.org/2000/svg" data-fui-icon="true">
  <path
    fill-rule="evenodd"
    clip-rule="evenodd"
    d="M12.2932 17.7069C11.9029 17.3164 11.9028 16.6833 12.2932 16.2928C12.6837 15.9024 13.3168 15.9026 13.7073 16.2928L17.0003 19.5858V1.99988C17.0004 1.44779 17.4482 1.00001 18.0003 0.999878C18.5523 1.00005 19.0001 1.44782 19.0003 1.99988V19.5858L22.2932 16.2928C22.6837 15.9024 23.3168 15.9026 23.7073 16.2928C24.0978 16.6834 24.0978 17.3164 23.7073 17.7069L18.7073 22.7069C18.5198 22.8944 18.2655 22.9999 18.0003 22.9999C17.7351 22.9998 17.4807 22.8944 17.2932 22.7069L12.2932 17.7069ZM0.293239 7.70691C-0.0969996 7.31636 -0.0971907 6.68328 0.293239 6.29285L5.29422 1.29285C5.68478 0.902819 6.31792 0.902494 6.70828 1.29285L11.7083 6.29285C12.0986 6.68323 12.0984 7.31636 11.7083 7.70691C11.3178 8.09742 10.6847 8.09738 10.2942 7.70691L7.00125 4.41394L7.00027 21.9999C7.00026 22.552 6.5524 22.9997 6.00027 22.9999C5.44809 22.9997 5.00027 22.5521 5.00027 21.9999L5.00125 4.41394L1.7073 7.70691C1.31679 8.09742 0.683767 8.09738 0.293239 7.70691Z"
    fill="currentColor"
  />
</svg>
