<svg width="16" height="16" viewBox="0 0 16 16" fill="none" xmlns="http://www.w3.org/2000/svg" data-fui-icon="true">
  <path
    fill-rule="evenodd"
    clip-rule="evenodd"
    d="M12.6946 8.91497C13.283 9.49789 14.2326 9.49346 14.8157 8.90521C15.3984 8.31684 15.3941 7.36716 14.8059 6.78411L9.26298 1.28997C8.53257 0.565939 7.35344 0.570677 6.62919 1.30072L1.18485 6.79388C0.601889 7.38227 0.606321 8.33186 1.19462 8.91497C1.78301 9.49795 2.7326 9.49351 3.31571 8.90521L7.95927 4.22161L12.6946 8.91497ZM12.6907 15.4101C13.2765 15.9958 14.226 15.9958 14.8118 15.4101C15.3973 14.8243 15.3975 13.8747 14.8118 13.289L9.31669 7.79388C8.58936 7.06666 7.41027 7.0668 6.6829 7.79388L1.18974 13.289C0.604112 13.8748 0.604032 14.8244 1.18974 15.4101C1.77557 15.9957 2.72515 15.9958 3.31083 15.4101L7.99931 10.7197L12.6907 15.4101Z"
    fill="currentColor"
  />
</svg>
