<svg width="12" height="12" viewBox="0 0 12 12" fill="none" xmlns="http://www.w3.org/2000/svg" data-fui-icon="true">
  <path
    fill-rule="evenodd"
    clip-rule="evenodd"
    d="M7.7167 6.36629C8.20488 5.87837 8.9962 5.87821 9.48428 6.36629C9.97194 6.8544 9.97207 7.64583 9.48428 8.13387L7.06143 10.5567C6.47575 11.1424 5.52517 11.1422 4.93936 10.5567L2.51651 8.13387C2.02835 7.64571 2.02835 6.85445 2.51651 6.36629C3.00467 5.87827 3.79598 5.87818 4.28409 6.36629L5.99991 8.08211L7.7167 6.36629ZM7.7167 1.36629C8.20488 0.878365 8.9962 0.878212 9.48428 1.36629C9.97194 1.8544 9.97207 2.64583 9.48428 3.13387L7.06143 5.55672C6.47575 6.1424 5.52517 6.14218 4.93936 5.55672L2.51651 3.13387C2.02835 2.64571 2.02835 1.85445 2.51651 1.36629C3.00467 0.878274 3.79598 0.878182 4.28409 1.36629L5.99991 3.08211L7.7167 1.36629Z"
    fill="currentColor"
  />
</svg>
