<svg width="12" height="12" viewBox="0 0 12 12" fill="none" xmlns="http://www.w3.org/2000/svg" data-fui-icon="true">
  <path
    fill-rule="evenodd"
    clip-rule="evenodd"
    d="M2.11621 6.36599C2.60432 5.87791 3.39563 5.87801 3.88379 6.36599C4.25807 6.7403 4.34423 7.29231 4.14453 7.74978H10.75C11.4403 7.74978 11.9999 8.30948 12 8.99978C11.9999 9.6901 11.4403 10.2498 10.75 10.2498H4.14453C4.34425 10.7073 4.25809 11.2593 3.88379 11.6336C3.39562 12.1217 2.60434 12.1217 2.11621 11.6336L0.366211 9.88357C0.131926 9.64919 2.53458e-05 9.33118 0 8.99978C3.8906e-05 8.66836 0.131884 8.35037 0.366211 8.11599L2.11621 6.36599ZM8.11621 0.366971C8.60437 -0.121184 9.39563 -0.121184 9.88379 0.366971L11.6338 2.11697C12.1219 2.60513 12.1219 3.39641 11.6338 3.88455L9.88379 5.63455C9.39563 6.12245 8.60429 6.12259 8.11621 5.63455C7.74209 5.26042 7.65515 4.70812 7.85449 4.25076L1.25 4.24978C0.559831 4.24963 0.000107161 3.68994 0 2.99978C0.000198777 2.30965 0.55987 1.74989 1.25 1.74978L7.85449 1.75076C7.65502 1.29344 7.74221 0.741176 8.11621 0.366971Z"
    fill="currentColor"
  />
</svg>
