<svg width="24" height="24" viewBox="0 0 24 24" fill="none" xmlns="http://www.w3.org/2000/svg" data-fui-icon="true">
  <path
    fill-rule="evenodd"
    clip-rule="evenodd"
    d="M15.9417 12.5813C16.5286 13.1655 17.4782 13.1639 18.0628 12.5773C18.6472 11.9905 18.6453 11.0409 18.0589 10.4563L13.4114 5.82735C12.6311 5.05033 11.3695 5.05032 10.5891 5.82735L5.94168 10.4563C5.355 11.0409 5.35326 11.9905 5.93777 12.5773C6.52238 13.1638 7.47205 13.1656 8.05887 12.5813L12.0003 8.65645L15.9417 12.5813ZM15.9417 18.3078C16.5286 18.8924 17.4781 18.8907 18.0628 18.3039C18.6471 17.717 18.6456 16.7674 18.0589 16.1828L13.4114 11.5539C12.6311 10.777 11.3695 10.7771 10.5891 11.5539L5.94168 16.1828C5.3549 16.7674 5.35325 17.717 5.93777 18.3039C6.52239 18.8907 7.47196 18.8924 8.05887 18.3078L12.0003 14.383L15.9417 18.3078Z"
    fill="currentColor"
  />
</svg>
