<svg width="16" height="16" viewBox="0 0 16 16" fill="none" xmlns="http://www.w3.org/2000/svg" data-fui-icon="true">
  <path
    fill-rule="evenodd"
    clip-rule="evenodd"
    d="M8.36553 4.11499C7.87763 4.60316 7.87746 5.3945 8.36553 5.88257C8.85361 6.37043 9.645 6.37039 10.1331 5.88257L10.7493 5.26636V13.7488C10.7496 14.4389 11.3091 14.9987 11.9993 14.9988C12.6895 14.9988 13.2491 14.4389 13.2493 13.7488V5.26636L13.8655 5.88257C14.3536 6.37041 15.145 6.37033 15.6331 5.88257C16.1212 5.39446 16.1211 4.60315 15.6331 4.11499L12.8831 1.36499C12.395 0.876856 11.6037 0.876847 11.1155 1.36499L8.36553 4.11499ZM0.367483 10.1111C-0.120504 10.5992 -0.120578 11.3906 0.367483 11.8787L3.12139 14.6326C3.35577 14.8668 3.67381 14.9988 4.00518 14.9988C4.33656 14.9987 4.6546 14.8669 4.88897 14.6326L7.64287 11.8787C8.13089 11.3906 8.1307 10.5993 7.64287 10.1111C7.15473 9.62294 6.36345 9.62296 5.8753 10.1111L5.25518 10.7312L5.25518 2.24878C5.25518 1.55848 4.69546 0.998871 4.00518 0.998779C3.31484 0.998795 2.75518 1.55843 2.75518 2.24878L2.75518 10.7312L2.13506 10.1111C1.6469 9.62297 0.855624 9.62294 0.367483 10.1111Z"
    fill="currentColor"
  />
</svg>
