<svg width="32" height="32" viewBox="0 0 32 32" fill="none" xmlns="http://www.w3.org/2000/svg" data-fui-icon="true">
  <path
    fill-rule="evenodd"
    clip-rule="evenodd"
    d="M21.8775 16.9912C22.2688 17.3805 22.902 17.3794 23.2916 16.9883C23.6813 16.597 23.6799 15.963 23.2886 15.5733L17.1754 9.48539C16.5251 8.83846 15.4739 8.83814 14.8238 9.48539L8.71052 15.5733C8.31936 15.9629 8.3183 16.597 8.70759 16.9883C9.09731 17.3796 9.73132 17.3809 10.1226 16.9912L15.9996 11.1377L21.8775 16.9912ZM21.8775 22.7412C22.2688 23.1305 22.902 23.1294 23.2916 22.7383C23.6813 22.347 23.6799 21.713 23.2886 21.3233L17.1754 15.2354C16.5251 14.5885 15.4739 14.5882 14.8238 15.2354L8.71052 21.3233C8.31936 21.7129 8.31829 22.347 8.70759 22.7383C9.09731 23.1296 9.73132 23.1309 10.1226 22.7412L15.9996 16.8877L21.8775 22.7412Z"
    fill="currentColor"
  />
</svg>
