<svg width="24" height="24" viewBox="0 0 24 24" fill="none" xmlns="http://www.w3.org/2000/svg" data-fui-icon="true">
  <path
    fill-rule="evenodd"
    clip-rule="evenodd"
    d="M16.118 11.586C16.6071 11.0993 17.3985 11.101 17.8856 11.5899C18.3724 12.079 18.3704 12.8703 17.8816 13.3575L13.2352 17.9854C12.5523 18.6655 11.4473 18.6655 10.7645 17.9854L6.11797 13.3575C5.629 12.8704 5.6271 12.079 6.11407 11.5899C6.60117 11.1012 7.39259 11.0992 7.88164 11.586L11.9998 15.6876L16.118 11.586ZM16.118 5.85944C16.6071 5.37244 17.3984 5.37427 17.8856 5.86335C18.3723 6.35251 18.3706 7.14388 17.8816 7.63093L13.2352 12.2589C12.5524 12.9389 11.4473 12.9387 10.7645 12.2589L6.11797 7.63093C5.6289 7.14382 5.62709 6.3525 6.11407 5.86335C6.60118 5.37427 7.39249 5.37244 7.88164 5.85944L11.9998 9.961L16.118 5.85944Z"
    fill="currentColor"
  />
</svg>
