<svg width="12" height="12" viewBox="0 0 12 12" fill="none" xmlns="http://www.w3.org/2000/svg" data-fui-icon="true">
  <path
    fill-rule="evenodd"
    clip-rule="evenodd"
    d="M5.57123 2.27838C5.27857 1.98551 5.27853 1.51067 5.57123 1.21783C5.86406 0.924997 6.33887 0.925119 6.63178 1.21783L10.705 5.29107C11.0955 5.68159 11.0955 6.31462 10.705 6.70513L6.63178 10.7784C6.33888 11.0711 5.86408 11.0712 5.57123 10.7784C5.27856 10.4855 5.27853 10.0107 5.57123 9.71783L9.29096 5.9981L5.57123 2.27838ZM1.22162 2.27838C0.928732 1.98549 0.928737 1.51072 1.22162 1.21783C1.51452 0.924993 1.9893 0.924955 2.28217 1.21783L6.35541 5.29107C6.74589 5.68158 6.74586 6.31461 6.35541 6.70513L2.28217 10.7784C1.98928 11.0713 1.51452 11.0713 1.22162 10.7784C0.92873 10.4855 0.92873 10.0107 1.22162 9.71783L4.94135 5.9981L1.22162 2.27838Z"
    fill="currentColor"
  />
</svg>
