<svg width="13" height="12" viewBox="0 0 13 12" fill="none" xmlns="http://www.w3.org/2000/svg" data-fui-icon="true">
  <path
    d="M2.13375 6.34899C2.62187 5.86086 3.41314 5.8609 3.90129 6.34899C4.28032 6.72819 4.36411 7.28952 4.15421 7.75033H10.7498C11.4401 7.75034 11.9997 8.31002 11.9998 9.00031C11.9996 9.69047 11.44 10.2503 10.7498 10.2503H4.14445C4.34397 10.7077 4.2579 11.2598 3.88371 11.634C3.39563 12.1219 2.60428 12.1219 2.11617 11.634L0.366203 9.88408C0.131911 9.64976 0.000103325 9.33166 0 9.00031C2.61926e-05 8.66891 0.13192 8.35091 0.366203 8.11653L2.13375 6.34899ZM8.36604 0.365715C8.85413 -0.12199 9.64555 -0.121969 10.1336 0.365715L11.8835 2.11666C12.3715 2.60477 12.3715 3.3961 11.8835 3.8842L10.1336 5.63416C9.64544 6.12231 8.85419 6.12231 8.36604 5.63416C7.99196 5.25996 7.90484 4.70775 8.10433 4.2504L1.24997 4.24943C0.559633 4.24938 -4.32721e-05 3.68979 0 2.99945C0.000366287 2.30941 0.559868 1.74948 1.24997 1.74948L8.1053 1.75045C7.90541 1.29285 7.99155 0.740075 8.36604 0.365715Z"
    fill="currentColor"
  />
</svg>
