<svg width="20" height="20" viewBox="0 0 20 20" fill="none" xmlns="http://www.w3.org/2000/svg" data-fui-icon="true">
  <path
    d="M10.3069 6.89355C10.8926 6.30792 10.8924 5.35832 10.3069 4.77246C9.72124 4.18678 8.77165 4.18692 8.18579 4.77246L4.31177 8.64355C3.56283 9.39215 3.56279 10.6069 4.31177 11.3555L8.18579 15.2266C8.77163 15.812 9.72124 15.8122 10.3069 15.2266C10.8924 14.6407 10.8925 13.6911 10.3069 13.1055L7.19946 10L10.3069 6.89355ZM15.8098 6.89355C16.3955 6.30791 16.3954 5.35832 15.8098 4.77246C15.2242 4.18678 14.2746 4.18692 13.6887 4.77246L9.8147 8.64355C9.06574 9.39215 9.06571 10.6069 9.8147 11.3555L13.6887 15.2266C14.2746 15.8121 15.2242 15.8122 15.8098 15.2266C16.3953 14.6407 16.3955 13.6911 15.8098 13.1055L12.7024 10L15.8098 6.89355Z"
    fill="currentColor"
  />
</svg>
