<svg width="24" height="24" viewBox="0 0 24 24" fill="none" xmlns="http://www.w3.org/2000/svg" data-fui-icon="true">
  <path
    fill-rule="evenodd"
    clip-rule="evenodd"
    d="M21.2931 9.79297C21.6837 9.40262 22.3167 9.40251 22.7072 9.79297C23.0975 10.1835 23.0975 10.8166 22.7072 11.207L13.1291 20.7852C12.5046 21.4097 11.4918 21.4097 10.8674 20.7852L1.29314 11.2109C0.902614 10.8204 0.902613 10.1874 1.29314 9.79688C1.68366 9.40636 2.31668 9.40636 2.7072 9.79688L11.9982 19.0879L21.2931 9.79297ZM21.2931 3.04297C21.6837 2.65262 22.3167 2.65251 22.7072 3.04297C23.0975 3.43345 23.0975 4.06655 22.7072 4.45704L13.1291 14.0352C12.5046 14.6597 11.4918 14.6597 10.8674 14.0352L1.29314 4.46094C0.902614 4.07042 0.902613 3.4374 1.29314 3.04688C1.68366 2.65636 2.31668 2.65636 2.7072 3.04688L11.9982 12.3379L21.2931 3.04297Z"
    fill="currentColor"
  />
</svg>
