<svg width="32" height="32" viewBox="0 0 32 32" fill="none" xmlns="http://www.w3.org/2000/svg" data-fui-icon="true">
  <path
    d="M17.2195 24.5294C16.9266 24.2366 16.9267 23.7618 17.2195 23.4689C17.5124 23.176 17.9871 23.176 18.28 23.4689L23.2498 28.4376L23.2498 1.74817C23.2498 1.33396 23.5855 0.998169 23.9998 0.998169C24.4138 0.99832 24.7498 1.33405 24.7498 1.74817L24.7498 28.4376L29.7185 23.4689C30.0114 23.176 30.4862 23.176 30.7791 23.4689C31.0719 23.7618 31.0719 24.2365 30.7791 24.5294L24.53 30.7784C24.2372 31.0712 23.7624 31.0712 23.4695 30.7784L17.2195 24.5294ZM1.21948 8.52747C0.926665 8.23456 0.926604 7.75978 1.21948 7.46692L7.46948 1.2179C7.76237 0.925102 8.23716 0.925081 8.53003 1.2179L14.7791 7.46692C15.0719 7.75979 15.0719 8.23457 14.7791 8.52747C14.4862 8.82036 14.0114 8.82036 13.7185 8.52747L8.74976 3.55872L8.74976 30.2482C8.74976 30.6623 8.41383 30.998 7.99976 30.9982C7.58554 30.9982 7.24976 30.6624 7.24976 30.2482L7.24976 3.55872L2.28003 8.52747C1.98713 8.82035 1.51237 8.82037 1.21948 8.52747Z"
    fill="currentColor"
  />
</svg>
