<svg width="20" height="20" viewBox="0 0 20 20" fill="none" xmlns="http://www.w3.org/2000/svg" data-fui-icon="true">
  <path
    fill-rule="evenodd"
    clip-rule="evenodd"
    d="M10.3069 6.89358C10.8926 6.30795 10.8924 5.35835 10.3069 4.77249C9.72124 4.18681 8.77165 4.18695 8.18579 4.77249L4.31177 8.64358C3.56283 9.39218 3.56279 10.6069 4.31177 11.3555L8.18579 15.2266C8.77163 15.8121 9.72124 15.8122 10.3069 15.2266C10.8924 14.6408 10.8925 13.6912 10.3069 13.1055L7.19946 10L10.3069 6.89358ZM15.8098 6.89358C16.3955 6.30793 16.3954 5.35835 15.8098 4.77249C15.2242 4.18681 14.2746 4.18695 13.6887 4.77249L9.8147 8.64358C9.06574 9.39217 9.06572 10.6069 9.8147 11.3555L13.6887 15.2266C14.2746 15.8121 15.2242 15.8122 15.8098 15.2266C16.3953 14.6407 16.3955 13.6911 15.8098 13.1055L12.7024 10L15.8098 6.89358Z"
    fill="currentColor"
  />
</svg>
