<svg width="16" height="16" viewBox="0 0 16 16" fill="none" xmlns="http://www.w3.org/2000/svg" data-fui-icon="true">
  <path
    fill-rule="evenodd"
    clip-rule="evenodd"
    d="M7.56307 3.43023C7.07716 2.93994 7.08063 2.14864 7.57088 1.66266C8.06118 1.177 8.85256 1.18036 9.33846 1.67047L14.8336 7.21344C15.4603 7.8459 15.455 8.86675 14.8228 9.49371L9.33065 14.938C8.84035 15.424 8.04906 15.4205 7.56307 14.9302C7.07716 14.4399 7.08063 13.6486 7.57088 13.1627L12.4322 8.34332L7.56307 3.43023ZM1.06698 3.43316C0.578897 2.94503 0.578925 2.15373 1.06698 1.66559C1.55514 1.17774 2.34649 1.17757 2.83456 1.66559L8.32967 7.1607C8.95926 7.79041 8.95912 8.81123 8.32967 9.44098L2.83456 14.9341C2.34637 15.4222 1.55506 15.4222 1.06698 14.9341C0.579002 14.4459 0.578906 13.6546 1.06698 13.1666L5.93417 8.30133L1.06698 3.43316Z"
    fill="currentColor"
  />
</svg>
