<svg width="20" height="20" viewBox="0 0 20 20" fill="none" xmlns="http://www.w3.org/2000/svg" data-fui-icon="true">
  <path
    fill-rule="evenodd"
    clip-rule="evenodd"
    d="M10.2934 5.29358C9.90287 5.6841 9.90287 6.31713 10.2934 6.70764C10.6839 7.09792 11.317 7.09806 11.7074 6.70764L14.0004 4.41467L14.0004 18.0006C14.0005 18.5528 14.4482 19.0006 15.0004 19.0006C15.5525 19.0005 16.0003 18.5527 16.0004 18.0006V4.41467L18.2934 6.70764C18.6839 7.09793 19.317 7.09808 19.7074 6.70764C20.0979 6.31719 20.0977 5.68412 19.7074 5.29358L15.7074 1.29358C15.5199 1.10609 15.2655 1.00067 15.0004 1.00061C14.7352 1.00061 14.4809 1.10604 14.2934 1.29358L10.2934 5.29358ZM0.293368 13.2936C-0.0971301 13.6841 -0.0971466 14.3171 0.293368 14.7076L4.29337 18.7076C4.48088 18.895 4.73529 19.0006 5.0004 19.0006C5.26552 19.0006 5.51995 18.8951 5.70743 18.7076L9.70743 14.7076C10.0979 14.3172 10.0977 13.6841 9.70743 13.2936C9.31691 12.9031 8.68389 12.9031 8.29337 13.2936L6.0004 15.5865L6.0004 2.00061C6.0004 1.4484 5.55258 1.00073 5.0004 1.00061C4.44811 1.00061 4.0004 1.44833 4.0004 2.00061L4.0004 15.5865L1.70743 13.2936C1.31691 12.9031 0.683893 12.9031 0.293368 13.2936Z"
    fill="currentColor"
  />
</svg>
