<svg width="32" height="32" viewBox="0 0 32 32" fill="none" xmlns="http://www.w3.org/2000/svg" data-fui-icon="true">
  <path
    fill-rule="evenodd"
    clip-rule="evenodd"
    d="M12.7371 3.31002C12.1515 2.72423 12.1514 1.77466 12.7371 1.18893C13.3228 0.603357 14.2725 0.603357 14.8582 1.18893L28.0262 14.3569C28.9363 15.267 28.9363 16.7428 28.0262 17.6528L14.8582 30.8169C14.2724 31.4025 13.3228 31.4026 12.7371 30.8169C12.1515 30.231 12.1514 29.2815 12.7371 28.6958L25.4314 16.0053L12.7371 3.31002ZM3.7371 3.31002C3.15149 2.72423 3.15139 1.77466 3.7371 1.18893C4.32285 0.603357 5.27245 0.603357 5.8582 1.18893L19.0262 14.3569C19.9362 15.267 19.9363 16.7428 19.0262 17.6528L5.8582 30.8169C5.27239 31.4025 4.32281 31.4025 3.7371 30.8169C3.15146 30.231 3.15141 29.2815 3.7371 28.6958L16.4314 16.0053L3.7371 3.31002Z"
    fill="currentColor"
  />
</svg>
