<svg width="12" height="12" viewBox="0 0 12 12" fill="none" xmlns="http://www.w3.org/2000/svg" data-fui-icon="true">
  <path
    d="M8.46997 7.71982C8.76287 7.42705 9.23767 7.42697 9.53052 7.71982C9.82313 8.01269 9.82321 8.48754 9.53052 8.78036L6.53052 11.7804C6.23771 12.0732 5.76288 12.073 5.46997 11.7804L2.46997 8.78036C2.17708 8.48747 2.17708 8.01271 2.46997 7.71982C2.76287 7.42705 3.23767 7.42697 3.53052 7.71982L6.00024 10.1895L8.46997 7.71982ZM5.46997 0.219818C5.76287 -0.0729929 6.23765 -0.0730477 6.53052 0.219818L9.53052 3.21982C9.82314 3.5127 9.82325 3.98754 9.53052 4.28036C9.2377 4.57318 8.76288 4.57302 8.46997 4.28036L6.00024 1.81064L3.53052 4.28036C3.2377 4.57318 2.76288 4.57302 2.46997 4.28036C2.17708 3.98747 2.17708 3.51271 2.46997 3.21982L5.46997 0.219818Z"
    fill="currentColor"
  />
</svg>
