<svg width="12" height="12" viewBox="0 0 12 12" fill="none" xmlns="http://www.w3.org/2000/svg" data-fui-icon="true">
  <path
    fill-rule="evenodd"
    clip-rule="evenodd"
    d="M2.11523 6.36579C2.60328 5.87758 3.39548 5.87775 3.88369 6.36579C4.25811 6.74018 4.34438 7.29292 4.14442 7.75049L10.7496 7.74951C11.4397 7.74951 11.9993 8.30929 11.9995 8.99945C11.9994 9.68965 11.4398 10.2493 10.7496 10.2494L4.14442 10.2504C4.34397 10.7077 4.25781 11.2599 3.88369 11.6341C3.3956 12.1219 2.60428 12.122 2.11621 11.6341L0.366295 9.88417C-0.121633 9.39624 -0.122238 8.60487 0.365318 8.11668L2.11523 6.36579ZM8.1159 0.366098C8.60412 -0.121948 9.39632 -0.122118 9.88437 0.366098L11.6343 2.11699C12.1219 2.60517 12.1212 3.39653 11.6333 3.88447L9.88339 5.63438C9.3953 6.12225 8.60398 6.12228 8.1159 5.63438C7.74179 5.26017 7.65564 4.70803 7.85517 4.25067L1.25004 4.24969C0.559802 4.24965 0.000194889 3.68996 0.000102644 2.99975C0.000301431 2.30959 0.55985 1.74982 1.25004 1.74982L7.85517 1.75079C7.65523 1.29325 7.74153 0.740488 8.1159 0.366098Z"
    fill="currentColor"
  />
</svg>
