<svg width="16" height="16" viewBox="0 0 16 16" fill="none" xmlns="http://www.w3.org/2000/svg" data-fui-icon="true">
  <path
    fill-rule="evenodd"
    clip-rule="evenodd"
    d="M11.8843 8.364C11.3961 7.87623 10.6047 7.87598 10.1167 8.364C9.62875 8.85203 9.62896 9.64342 10.1167 10.1316L10.7329 10.7478H2.25049C1.56045 10.748 1.00067 11.3077 1.00049 11.9978C1.00049 12.688 1.56034 13.2475 2.25049 13.2478H10.7329L10.1167 13.864C9.62877 14.352 9.62902 15.1434 10.1167 15.6316C10.6048 16.1197 11.3961 16.1197 11.8843 15.6316L14.6343 12.8816C15.1224 12.3934 15.1224 11.6021 14.6343 11.114L11.8843 8.364ZM5.88818 0.365953C5.40002 -0.121904 4.60867 -0.122065 4.12061 0.365953L1.3667 3.11986C1.13242 3.35424 1.00052 3.67226 1.00049 4.00365C1.00049 4.33503 1.13246 4.65305 1.3667 4.88744L4.12061 7.64134C4.6087 8.12941 5.40003 8.1293 5.88818 7.64134C6.37632 7.1532 6.3763 6.36192 5.88818 5.87377L5.26807 5.25365H13.7505C14.4408 5.25365 15.0005 4.69401 15.0005 4.00365C15.0004 3.31335 14.4408 2.75365 13.7505 2.75365H5.26807L5.88818 2.13353C6.3763 1.64537 6.37632 0.854095 5.88818 0.365953Z"
    fill="currentColor"
  />
</svg>
