<svg width="20" height="20" viewBox="0 0 20 20" fill="none" xmlns="http://www.w3.org/2000/svg" data-fui-icon="true">
  <path
    d="M16.6936 8.68962C17.2794 8.10399 18.229 8.10389 18.8147 8.68962C19.4 9.27539 19.4002 10.2251 18.8147 10.8107L11.3997 18.2258C10.6267 18.9983 9.37363 18.9976 8.60083 18.2248L1.1897 10.8107C0.604156 10.2249 0.604109 9.2753 1.1897 8.68962C1.77554 8.10405 2.72512 8.10394 3.31079 8.68962L9.99927 15.382L16.6936 8.68962ZM16.6936 1.68962C17.2794 1.10399 18.229 1.10389 18.8147 1.68962C19.4 2.27539 19.4002 3.22507 18.8147 3.81071L11.3997 11.2258C10.6267 11.9984 9.37364 11.9976 8.60083 11.2248L1.1897 3.81071C0.604151 3.2249 0.604095 2.2753 1.1897 1.68962C1.77554 1.10405 2.72512 1.10394 3.31079 1.68962L9.99927 8.382L16.6936 1.68962Z"
    fill="currentColor"
  />
</svg>
