<svg width="17" height="17" viewBox="0 0 17 17" fill="none" xmlns="http://www.w3.org/2000/svg" data-fui-icon="true">
  <path
    fill-rule="evenodd"
    clip-rule="evenodd"
    d="M13.3104 8.72531C12.9993 8.4142 12.495 8.41421 12.1839 8.72531C11.8733 9.03645 11.873 9.54085 12.1839 9.8518L14.2802 11.9481H0.796632C0.356843 11.9484 0 12.3049 0 12.7448C0.000340358 13.1843 0.357053 13.5412 0.796632 13.5414H14.2802L12.1839 15.6378C11.8734 15.9489 11.873 16.4533 12.1839 16.7642C12.4948 17.0749 12.9993 17.0747 13.3104 16.7642L16.7666 13.308C17.0776 12.997 17.0775 12.4927 16.7666 12.1815L13.3104 8.72531ZM4.8161 0.233091C4.50503 -0.0776589 4.00063 -0.0777352 3.68961 0.233091L0.233388 3.68931C-0.0774719 4.00033 -0.0773727 4.50472 0.233388 4.8158L3.68961 8.27202C4.00066 8.58308 4.50498 8.58298 4.8161 8.27202C5.12716 7.96092 5.12718 7.45662 4.8161 7.14553L2.71975 5.04919H16.2034C16.6433 5.04919 17 4.69251 17 4.25256C16.9999 3.81267 16.6433 3.45592 16.2034 3.45592H2.71975L4.8161 1.35958C5.12702 1.04846 5.12714 0.544135 4.8161 0.233091Z"
    fill="currentColor"
  />
</svg>
