<svg width="24" height="24" viewBox="0 0 24 24" fill="none" xmlns="http://www.w3.org/2000/svg" data-fui-icon="true">
  <path
    fill-rule="evenodd"
    clip-rule="evenodd"
    d="M12.2931 6.29285C11.9028 6.68339 11.9027 7.31646 12.2931 7.70691C12.6836 8.09735 13.3166 8.0972 13.7072 7.70691L17.0001 4.41394V21.9999C17.0003 22.552 17.4481 22.9997 18.0001 22.9999C18.5522 22.9997 19 22.5519 19.0001 21.9999V4.41394L22.2931 7.70691C22.6836 8.09735 23.3166 8.0972 23.7072 7.70691C24.0977 7.31639 24.0977 6.68337 23.7072 6.29285L18.7072 1.29285C18.5196 1.10531 18.2654 0.999878 18.0001 0.999878C17.735 0.999938 17.4806 1.10536 17.2931 1.29285L12.2931 6.29285ZM0.293117 16.2928C-0.0971217 16.6834 -0.0973128 17.3165 0.293117 17.7069L5.29409 22.7069C5.68465 23.0969 6.31779 23.0973 6.70816 22.7069L11.7082 17.7069C12.0985 17.3165 12.0982 16.6834 11.7082 16.2928C11.3177 15.9023 10.6846 15.9024 10.2941 16.2928L7.00112 19.5858L7.00015 1.99988C7.00014 1.44771 6.55228 1.00005 6.00015 0.999878C5.44797 1.00001 5.00015 1.44768 5.00015 1.99988L5.00112 19.5858L1.70718 16.2928C1.31667 15.9023 0.683644 15.9024 0.293117 16.2928Z"
    fill="currentColor"
  />
</svg>
