<svg width="24" height="24" viewBox="0 0 24 24" fill="none" xmlns="http://www.w3.org/2000/svg" data-fui-icon="true">
  <path
    fill-rule="evenodd"
    clip-rule="evenodd"
    d="M9.86412 3.13542C9.37604 2.64726 9.376 1.85597 9.86412 1.36784C10.3523 0.879904 11.1436 0.879822 11.6317 1.36784L20.9598 10.696C21.6819 11.4181 21.682 12.5891 20.9598 13.3112L11.6317 22.6354C11.1435 23.1234 10.3522 23.1234 9.86412 22.6354C9.37615 22.1472 9.37612 21.3559 9.86412 20.8678L18.7313 12.0036L9.86412 3.13542ZM2.86412 3.13542C2.37604 2.64726 2.376 1.85597 2.86412 1.36784C3.35228 0.879999 4.14364 0.879852 4.6317 1.36784L13.9598 10.696C14.6819 11.4181 14.6819 12.5891 13.9598 13.3112L4.6317 22.6354C4.1435 23.1234 3.35219 23.1235 2.86412 22.6354C2.37615 22.1472 2.37612 21.3559 2.86412 20.8678L11.7313 12.0036L2.86412 3.13542Z"
    fill="currentColor"
  />
</svg>
