<svg width="32" height="32" viewBox="0 0 32 32" fill="none" xmlns="http://www.w3.org/2000/svg" data-fui-icon="true">
  <path
    fill-rule="evenodd"
    clip-rule="evenodd"
    d="M17.2904 24.7048C16.9001 24.3143 16.9 23.6812 17.2904 23.2908C17.6809 22.9009 18.3141 22.9006 18.7045 23.2908L22.9984 27.5857V1.99976C22.9986 1.44776 23.4464 0.999935 23.9984 0.999756C24.5505 0.999786 24.9982 1.44767 24.9984 1.99976V27.5857L29.2933 23.2908C29.6838 22.9008 30.317 22.9007 30.7074 23.2908C31.0978 23.6812 31.0975 24.3143 30.7074 24.7048L24.7054 30.7068C24.3149 31.0971 23.6819 31.0973 23.2914 30.7068L17.2904 24.7048ZM1.29334 8.70483C0.903146 8.31428 0.902924 7.68119 1.29334 7.29077L7.29236 1.29272C7.47985 1.10553 7.73443 0.999756 7.99939 0.999756C8.26435 0.999941 8.51905 1.10536 8.70642 1.29272L14.7045 7.29077C15.0948 7.6811 15.0944 8.31427 14.7045 8.70483C14.3139 9.09536 13.6809 9.09536 13.2904 8.70483L8.99939 4.41382L8.99939 29.9998C8.99939 30.5518 8.5514 30.9994 7.99939 30.9998C7.44711 30.9998 6.99939 30.552 6.99939 29.9998L6.99939 4.41382L2.7074 8.70483C2.31688 9.09536 1.68386 9.09536 1.29334 8.70483Z"
    fill="currentColor"
  />
</svg>
