<svg width="16" height="16" viewBox="0 0 16 16" fill="none" xmlns="http://www.w3.org/2000/svg" data-fui-icon="true">
  <path
    d="M10.3229 7.93988C10.9086 7.35416 11.8582 7.35419 12.444 7.93988C13.0294 8.52568 13.0296 9.4753 12.444 10.061L9.29651 13.2084C8.58064 13.9241 7.41966 13.924 6.70374 13.2084L3.55627 10.061C2.97055 9.47525 2.97066 8.52568 3.55627 7.93988C4.14205 7.3541 5.09158 7.35411 5.67737 7.93988L7.99963 10.2621L10.3229 7.93988ZM10.3229 2.68988C10.9086 2.10416 11.8582 2.10419 12.444 2.68988C13.0294 3.27568 13.0296 4.2253 12.444 4.81097L9.29651 7.95844C8.58064 8.6741 7.41966 8.67401 6.70374 7.95844L3.55627 4.81097C2.97055 4.22525 2.97066 3.27568 3.55627 2.68988C4.14205 2.1041 5.09158 2.10411 5.67737 2.68988L7.99963 5.01215L10.3229 2.68988Z"
    fill="currentColor"
  />
</svg>
