<svg width="16" height="16" viewBox="0 0 16 16" fill="none" xmlns="http://www.w3.org/2000/svg" data-fui-icon="true">
  <path
    fill-rule="evenodd"
    clip-rule="evenodd"
    d="M8.88093 2.28114C9.17387 1.98831 9.17374 1.51354 8.88093 1.22059C8.58809 0.927709 8.11331 0.927775 7.82038 1.22059L1.82527 7.21278C1.39074 7.64732 1.39068 8.3525 1.82527 8.787L7.82038 14.7792C8.11328 15.072 8.58808 15.072 8.88093 14.7792C9.17374 14.4863 9.17378 14.0115 8.88093 13.7186L3.16023 7.99989L8.88093 2.28114ZM14.2794 2.28114C14.5723 1.98831 14.5722 1.51354 14.2794 1.22059C13.9865 0.92767 13.5118 0.927763 13.2188 1.22059L7.2237 7.21278C6.78923 7.64734 6.7891 8.35253 7.2237 8.787L13.2188 14.7792C13.5117 15.072 13.9865 15.0719 14.2794 14.7792C14.5722 14.4863 14.5722 14.0115 14.2794 13.7186L8.55867 7.99989L14.2794 2.28114Z"
    fill="currentColor"
  />
</svg>
