<svg width="16" height="16" viewBox="0 0 16 16" fill="none" xmlns="http://www.w3.org/2000/svg" data-fui-icon="true">
  <path
    fill-rule="evenodd"
    clip-rule="evenodd"
    d="M13.7179 8.88157C14.0107 9.17451 14.4855 9.17438 14.7784 8.88157C15.0713 8.58873 15.0712 8.11395 14.7784 7.82103L8.78624 1.82591C8.3517 1.39138 7.64652 1.39132 7.21202 1.82591L1.21983 7.82103C0.927048 8.11392 0.927046 8.58872 1.21983 8.88157C1.51275 9.17438 1.98753 9.17442 2.28038 8.88157L7.99913 3.16087L13.7179 8.88157ZM13.7179 14.28C14.0107 14.5729 14.4855 14.5728 14.7784 14.28C15.0714 13.9872 15.0713 13.5124 14.7784 13.2195L8.78624 7.22435C8.35169 6.78987 7.6465 6.78974 7.21202 7.22435L1.21983 13.2195C0.927068 13.5123 0.927106 13.9872 1.21983 14.28C1.51275 14.5728 1.98753 14.5729 2.28038 14.28L7.99913 8.55931L13.7179 14.28Z"
    fill="currentColor"
  />
</svg>
