<svg width="24" height="24" viewBox="0 0 24 24" fill="none" xmlns="http://www.w3.org/2000/svg" data-fui-icon="true">
  <path
    fill-rule="evenodd"
    clip-rule="evenodd"
    d="M16.4697 12.5729C16.7626 12.8656 17.2374 12.8657 17.5302 12.5729C17.8229 12.28 17.8229 11.8052 17.5302 11.5123L12.8837 6.86586C12.3956 6.3779 11.6043 6.37799 11.1161 6.86586L6.46967 11.5123C6.17678 11.8052 6.17678 12.28 6.46967 12.5729C6.76257 12.8656 7.23737 12.8657 7.53021 12.5729L11.9999 8.10316L16.4697 12.5729ZM16.4697 17.3229C16.7626 17.6156 17.2374 17.6157 17.5302 17.3229C17.8229 17.03 17.8229 16.5552 17.5302 16.2623L12.8837 11.6159C12.3956 11.1279 11.6043 11.128 11.1161 11.6159L6.46967 16.2623C6.17678 16.5552 6.17678 17.03 6.46967 17.3229C6.76257 17.6156 7.23737 17.6157 7.53021 17.3229L11.9999 12.8532L16.4697 17.3229Z"
    fill="currentColor"
  />
</svg>
