<svg width="17" height="17" viewBox="0 0 17 17" fill="none" xmlns="http://www.w3.org/2000/svg" data-fui-icon="true">
  <path
    fill-rule="evenodd"
    clip-rule="evenodd"
    d="M8.72609 13.3104C8.41498 12.9993 8.41499 12.495 8.72609 12.1839C9.03723 11.8733 9.54162 11.873 9.85258 12.1839L11.9489 14.2802L11.9489 0.796632C11.9491 0.356843 12.3057 0 12.7456 0C13.1851 0.000340358 13.542 0.357053 13.5422 0.796632L13.5422 14.2802L15.6385 12.1839C15.9497 11.8734 16.4541 11.873 16.765 12.1839C17.0757 12.4948 17.0755 12.9993 16.765 13.3104L13.3088 16.7666C12.9978 17.0776 12.4934 17.0775 12.1823 16.7666L8.72609 13.3104ZM0.233869 4.8161C-0.0768809 4.50503 -0.0769572 4.00063 0.233869 3.68961L3.69009 0.233388C4.00111 -0.077474 4.5055 -0.0773727 4.81658 0.233388L8.2728 3.68961C8.58386 4.00066 8.58375 4.50498 8.2728 4.8161C7.96169 5.12716 7.4574 5.12718 7.14631 4.8161L5.04997 2.71975L5.04997 16.2034C5.04997 16.6433 4.69329 17 4.25333 17C3.81345 16.9999 3.4567 16.6433 3.4567 16.2034L3.4567 2.71975L1.36036 4.8161C1.04924 5.12702 0.544913 5.12714 0.233869 4.8161Z"
    fill="currentColor"
  />
</svg>
