<svg width="16" height="16" viewBox="0 0 16 16" fill="none" xmlns="http://www.w3.org/2000/svg" data-fui-icon="true">
  <path
    fill-rule="evenodd"
    clip-rule="evenodd"
    d="M8.36553 11.8826C7.87763 11.3944 7.87746 10.6031 8.36553 10.115C8.85361 9.62713 9.645 9.62717 10.1331 10.115L10.7493 10.7312V2.24878C10.7496 1.55865 11.3091 0.99882 11.9993 0.998779C12.6895 0.998779 13.2491 1.55863 13.2493 2.24878V10.7312L13.8655 10.115C14.3536 9.62715 15.145 9.62723 15.6331 10.115C16.1212 10.6031 16.1211 11.3944 15.6331 11.8826L12.8831 14.6326C12.395 15.1207 11.6037 15.1207 11.1155 14.6326L8.36553 11.8826ZM0.367483 5.88647C-0.120504 5.39832 -0.120578 4.607 0.367483 4.1189L3.12139 1.36499C3.35577 1.13077 3.67381 0.998787 4.00518 0.998779C4.33656 0.998825 4.6546 1.13071 4.88897 1.36499L7.64287 4.1189C8.13089 4.60695 8.1307 5.39831 7.64287 5.88647C7.15473 6.37461 6.36345 6.37459 5.8753 5.88647L5.25518 5.26636L5.25518 13.7488C5.25518 14.4391 4.69546 14.9987 4.00518 14.9988C3.31484 14.9988 2.75518 14.4391 2.75518 13.7488L2.75518 5.26636L2.13506 5.88647C1.6469 6.37459 0.855624 6.37462 0.367483 5.88647Z"
    fill="currentColor"
  />
</svg>
