<svg width="32" height="32" viewBox="0 0 32 32" fill="none" xmlns="http://www.w3.org/2000/svg" data-fui-icon="true">
  <path
    fill-rule="evenodd"
    clip-rule="evenodd"
    d="M14.94 9.94956C14.6479 9.65615 14.6487 9.18128 14.9419 8.88902C15.2353 8.59677 15.7101 8.59767 16.0025 8.89097L22.0904 15.0033C22.6409 15.5561 22.6409 16.4505 22.0904 17.0033L16.0025 23.1156C15.7101 23.4089 15.2353 23.4098 14.9419 23.1175C14.6487 22.8252 14.6478 22.3504 14.94 22.057L20.9693 16.0033L14.94 9.94956ZM9.71536 9.94956C9.42311 9.65614 9.42401 9.18134 9.71731 8.88902C10.0108 8.59688 10.4856 8.59755 10.7779 8.89097L16.8657 15.0033C17.4163 15.556 17.4161 16.4505 16.8657 17.0033L10.7779 23.1156C10.4855 23.409 10.0108 23.4098 9.71731 23.1175C9.42391 22.8252 9.42308 22.3504 9.71536 22.057L15.7447 16.0033L9.71536 9.94956Z"
    fill="currentColor"
  />
</svg>
