<svg width="32" height="32" viewBox="0 0 32 32" fill="none" xmlns="http://www.w3.org/2000/svg" data-fui-icon="true">
  <path
    fill-rule="evenodd"
    clip-rule="evenodd"
    d="M17.2196 7.4668C16.9268 7.75966 16.9268 8.23444 17.2196 8.52734C17.5125 8.82025 17.9873 8.82023 18.2802 8.52734L23.2499 3.55859L23.2499 30.248C23.2499 30.6623 23.5857 30.998 23.9999 30.998C24.414 30.9979 24.7499 30.6622 24.7499 30.248L24.7499 3.55859L29.7187 8.52734C30.0116 8.82024 30.4863 8.82024 30.7792 8.52734C31.072 8.23445 31.0721 7.75967 30.7792 7.4668L24.5302 1.21777C24.2373 0.924966 23.7625 0.924974 23.4696 1.21777L17.2196 7.4668ZM1.21964 23.4688C0.926818 23.7617 0.926758 24.2364 1.21964 24.5293L7.46964 30.7783C7.76252 31.0711 8.23731 31.0711 8.53018 30.7783L14.7792 24.5293C15.0721 24.2364 15.072 23.7616 14.7792 23.4688C14.4863 23.1759 14.0116 23.1759 13.7187 23.4688L8.74991 28.4375L8.74991 1.74805C8.74991 1.33393 8.41399 0.998208 7.99991 0.998047C7.5857 0.998047 7.24991 1.33383 7.24991 1.74805L7.24991 28.4375L2.28018 23.4688C1.98728 23.1759 1.51252 23.1758 1.21964 23.4688Z"
    fill="currentColor"
  />
</svg>
