<svg width="20" height="20" viewBox="0 0 20 20" fill="none" xmlns="http://www.w3.org/2000/svg" data-fui-icon="true">
  <path
    fill-rule="evenodd"
    clip-rule="evenodd"
    d="M17.7197 8.66728C18.0125 8.37451 18.4873 8.37462 18.7802 8.66728C19.0728 8.96007 19.0737 9.43497 18.7812 9.72783L10.8691 17.6399C10.3891 18.1198 9.61083 18.1198 9.13079 17.6399L1.21966 9.72783C0.926787 9.43493 0.926775 8.96016 1.21966 8.66728C1.51256 8.37449 1.98735 8.37442 2.2802 8.66728L9.99993 16.387L17.7197 8.66728ZM17.7197 2.22197C18.0125 1.92938 18.4874 1.92937 18.7802 2.22197C19.0728 2.51469 19.0735 2.98961 18.7812 3.28251L10.8691 11.1946C10.389 11.6745 9.61082 11.6746 9.13079 11.1946L1.21966 3.28251C0.926787 2.98961 0.926775 2.51485 1.21966 2.22197C1.51258 1.92936 1.98741 1.92917 2.2802 2.22197L9.99993 9.94169L17.7197 2.22197Z"
    fill="currentColor"
  />
</svg>
