<svg width="20" height="20" viewBox="0 0 20 20" fill="none" xmlns="http://www.w3.org/2000/svg" data-fui-icon="true">
  <path
    fill-rule="evenodd"
    clip-rule="evenodd"
    d="M9.72289 6.36377C9.43005 6.07096 9.43014 5.59616 9.72289 5.30322C10.0157 5.01044 10.4905 5.01049 10.7834 5.30322L14.6575 9.17432C15.1133 9.62998 15.1133 10.3701 14.6575 10.8257L10.7834 14.6968C10.4906 14.9895 10.0157 14.9894 9.72289 14.6968C9.43015 14.4038 9.43008 13.929 9.72289 13.6362L13.3606 10.0005L9.72289 6.36377ZM5.21996 6.36377C4.92712 6.07096 4.92721 5.59616 5.21996 5.30322C5.51278 5.01044 5.98759 5.01049 6.28051 5.30322L10.1545 9.17432C10.6104 9.62998 10.6104 10.37 10.1545 10.8257L6.28051 14.6968C5.98761 14.9895 5.51278 14.9895 5.21996 14.6968C4.92722 14.4038 4.92715 13.929 5.21996 13.6362L8.85766 10.0005L5.21996 6.36377Z"
    fill="currentColor"
  />
</svg>
