<svg width="32" height="32" viewBox="0 0 32 32" fill="none" xmlns="http://www.w3.org/2000/svg" data-fui-icon="true">
  <path
    fill-rule="evenodd"
    clip-rule="evenodd"
    d="M29.2948 12.5929C29.6853 12.2024 30.3193 12.2025 30.7098 12.5929C31.1 12.9834 31.1 13.6165 30.7098 14.007L17.2957 27.421C16.5809 28.1358 15.4217 28.1358 14.7069 27.421L1.29282 14.007C0.902395 13.6165 0.902394 12.9834 1.29282 12.5929C1.68332 12.2024 2.31635 12.2025 2.70688 12.5929L16.0008 25.8869L29.2948 12.5929ZM29.2948 5.29701C29.6853 4.90651 30.3193 4.90655 30.7098 5.29701C31.1 5.68748 31.1 6.32061 30.7098 6.71108L17.2957 20.1251C16.5809 20.8398 15.4216 20.8399 14.7069 20.1251L1.29282 6.71108C0.902403 6.3206 0.902464 5.68753 1.29282 5.29701C1.68332 4.90651 2.31635 4.90655 2.70688 5.29701L16.0008 18.591L29.2948 5.29701Z"
    fill="currentColor"
  />
</svg>
