<svg width="12" height="12" viewBox="0 0 12 12" fill="none" xmlns="http://www.w3.org/2000/svg" data-fui-icon="true">
  <path
    fill-rule="evenodd"
    clip-rule="evenodd"
    d="M6.21957 9.5303C5.92688 9.23739 5.92675 8.76259 6.21957 8.46976C6.5124 8.17698 6.98722 8.17709 7.28011 8.46976L8.24983 9.43948V0.750114C8.24996 0.336069 8.58576 0.000205038 8.99982 0.000122069C9.41395 0.000122069 9.74968 0.336017 9.74981 0.750114V9.43948L10.7195 8.46976C11.0124 8.17698 11.4872 8.17709 11.7801 8.46976C12.0729 8.76264 12.0729 9.23741 11.7801 9.5303L9.53009 11.7803C9.2372 12.0732 8.76244 12.0732 8.46955 11.7803L6.21957 9.5303ZM0.220612 3.53036C-0.0722143 3.23746 -0.0722565 2.76269 0.220612 2.46982L2.47059 0.219846C2.76347 -0.0728419 3.23829 -0.0729201 3.53113 0.219846L5.7811 2.46982C6.07393 2.76265 6.07381 3.23745 5.7811 3.53036C5.48821 3.82325 5.01346 3.82325 4.72057 3.53036L3.75085 2.56064L3.75085 11.25C3.75085 11.6642 3.41501 11.9999 3.00086 12C2.58665 12 2.25087 11.6642 2.25087 11.25L2.25087 2.56064L1.28115 3.53036C0.988258 3.82325 0.513503 3.82325 0.220612 3.53036Z"
    fill="currentColor"
  />
</svg>
