<svg width="24" height="24" viewBox="0 0 24 24" fill="none" xmlns="http://www.w3.org/2000/svg" data-fui-icon="true">
  <path
    fill-rule="evenodd"
    clip-rule="evenodd"
    d="M5.46761 12.2206C5.76044 11.9278 6.23524 11.9279 6.52812 12.2206C6.821 12.5135 6.82096 12.9882 6.52812 13.2811L2.56047 17.2498H23.2483C23.6625 17.2498 23.9983 17.5855 23.9983 17.9997C23.9982 18.4138 23.6624 18.7497 23.2483 18.7497H2.56047L6.52812 22.7174C6.82099 23.0102 6.82098 23.485 6.52812 23.7779C6.23523 24.0708 5.76049 24.0708 5.46761 23.7779L0.21972 18.53C-0.0731359 18.2371 -0.0731014 17.7624 0.21972 17.4695L5.46761 12.2206ZM17.4702 0.220984C17.7631 -0.0716485 18.2379 -0.0717683 18.5307 0.220984L23.7786 5.46985C24.0713 5.76272 24.0713 6.23751 23.7786 6.53036L18.5307 11.7782C18.2378 12.0711 17.7631 12.0711 17.4702 11.7782C17.1773 11.4854 17.1773 11.0106 17.4702 10.7177L21.4378 6.75008H0.749977C0.335861 6.75008 0.00013706 6.41419 0 6.0001C1.54642e-06 5.58591 0.335777 5.25013 0.749977 5.25013H21.4378L17.4702 1.2815C17.1773 0.988606 17.1773 0.513848 17.4702 0.220984Z"
    fill="currentColor"
  />
</svg>
