<svg width="12" height="12" viewBox="0 0 12 12" fill="none" xmlns="http://www.w3.org/2000/svg" data-fui-icon="true">
  <path
    fill-rule="evenodd"
    clip-rule="evenodd"
    d="M9.71967 6.42657C10.0125 6.71924 10.4874 6.71927 10.7802 6.42657C11.073 6.13374 11.0729 5.65893 10.7802 5.36602L6.70697 1.29278C6.31645 0.902279 5.68343 0.902274 5.29291 1.29278L1.21967 5.36602C0.926903 5.65893 0.926819 6.13372 1.21967 6.42657C1.51254 6.71924 1.98737 6.71928 2.28022 6.42657L5.99994 2.70684L9.71967 6.42657ZM9.71967 10.7762C10.0126 11.0691 10.4873 11.0691 10.7802 10.7762C11.0731 10.4833 11.0731 10.0085 10.7802 9.71563L6.70697 5.64239C6.31647 5.25191 5.68344 5.25194 5.29291 5.64239L1.21967 9.71563C0.926777 10.0085 0.926777 10.4833 1.21967 10.7762C1.51256 11.0691 1.98732 11.0691 2.28022 10.7762L5.99994 7.05645L9.71967 10.7762Z"
    fill="currentColor"
  />
</svg>
