<svg width="16" height="16" viewBox="0 0 16 16" fill="none" xmlns="http://www.w3.org/2000/svg" data-fui-icon="true">
  <path
    fill-rule="evenodd"
    clip-rule="evenodd"
    d="M10.4995 7.87901C10.9876 8.36709 11.7789 8.36707 12.267 7.87901C12.7548 7.39084 12.755 6.59948 12.267 6.11143L9.11957 2.96397C8.50133 2.34593 7.49861 2.34602 6.88031 2.96397L3.73285 6.11143C3.24476 6.59952 3.24487 7.39084 3.73285 7.87901C4.221 8.36716 5.01227 8.36715 5.50043 7.87901L7.99945 5.37998L10.4995 7.87901ZM10.4995 13.129C10.9876 13.6171 11.7789 13.6171 12.267 13.129C12.7548 12.6408 12.755 11.8495 12.267 11.3614L9.11957 8.21397C8.50133 7.59593 7.49861 7.59602 6.88031 8.21397L3.73285 11.3614C3.24476 11.8495 3.24487 12.6408 3.73285 13.129C4.221 13.6172 5.01227 13.6172 5.50043 13.129L7.99945 10.63L10.4995 13.129Z"
    fill="currentColor"
  />
</svg>
