<svg width="20" height="20" viewBox="0 0 20 20" fill="none" xmlns="http://www.w3.org/2000/svg" data-fui-icon="true">
  <path
    fill-rule="evenodd"
    clip-rule="evenodd"
    d="M13.636 10.2769C13.9289 10.5698 14.4037 10.5697 14.6966 10.2769C14.9894 9.98411 14.9893 9.5093 14.6966 9.21638L10.8255 5.34235C10.3698 4.88656 9.62976 4.88649 9.17413 5.34235L5.30304 9.21638C5.01035 9.50926 5.01037 9.9841 5.30304 10.2769C5.59597 10.5697 6.07077 10.5697 6.36359 10.2769L9.99933 6.63923L13.636 10.2769ZM13.636 14.7799C13.9289 15.0727 14.4037 15.0726 14.6966 14.7799C14.9894 14.487 14.9893 14.0122 14.6966 13.7193L10.8255 9.84528C10.3698 9.38942 9.62978 9.3894 9.17413 9.84528L5.30304 13.7193C5.01032 14.0122 5.01031 14.487 5.30304 14.7799C5.59597 15.0726 6.07077 15.0727 6.36359 14.7799L9.99933 11.1422L13.636 14.7799Z"
    fill="currentColor"
  />
</svg>
