<svg width="32" height="32" viewBox="0 0 32 32" fill="none" xmlns="http://www.w3.org/2000/svg" data-fui-icon="true">
  <path
    fill-rule="evenodd"
    clip-rule="evenodd"
    d="M22.0537 14.9433C22.3471 14.6512 22.822 14.652 23.1143 14.9452C23.4065 15.2386 23.4056 15.7134 23.1123 16.0058L17 22.0937C16.4472 22.6442 15.5528 22.6442 15 22.0937L8.88772 16.0058C8.59438 15.7134 8.59351 15.2386 8.88576 14.9452C9.17807 14.652 9.65292 14.6511 9.94631 14.9433L16 20.9726L22.0537 14.9433ZM22.0537 9.71865C22.3472 9.42641 22.822 9.4273 23.1143 9.7206C23.4064 10.0141 23.4058 10.4889 23.1123 10.7812L17 16.869C16.4473 17.4196 15.5528 17.4194 15 16.869L8.88772 10.7812C8.59432 10.4888 8.59349 10.0141 8.88576 9.7206C9.17808 9.42721 9.65286 9.42637 9.94631 9.71865L16 15.7479L22.0537 9.71865Z"
    fill="currentColor"
  />
</svg>
