<svg width="32" height="32" viewBox="0 0 32 32" fill="none" xmlns="http://www.w3.org/2000/svg" data-fui-icon="true">
  <path
    fill-rule="evenodd"
    clip-rule="evenodd"
    d="M21.7011 15.1144C22.1903 14.6273 22.9816 14.6291 23.4687 15.1183C23.9555 15.6075 23.9539 16.3988 23.4647 16.8858L17.3524 22.9718C16.6047 23.7162 15.3952 23.7161 14.6474 22.9718L8.53506 16.8858C8.04585 16.3988 8.04415 15.6075 8.53115 15.1183C9.01822 14.629 9.8095 14.6273 10.2987 15.1144L15.9999 20.7901L21.7011 15.1144ZM21.7011 8.8585C22.1903 8.37156 22.9816 8.3733 23.4687 8.8624C23.9556 9.35162 23.9539 10.1429 23.4647 10.63L17.3524 16.7159C16.6047 17.4604 15.3952 17.4603 14.6474 16.7159L8.53506 10.63C8.04583 10.1429 8.04409 9.35164 8.53115 8.8624C9.01823 8.37327 9.80953 8.37146 10.2987 8.8585L15.9999 14.5343L21.7011 8.8585Z"
    fill="currentColor"
  />
</svg>
