<svg width="24" height="24" viewBox="0 0 24 24" fill="none" xmlns="http://www.w3.org/2000/svg" data-fui-icon="true">
  <path
    fill-rule="evenodd"
    clip-rule="evenodd"
    d="M20.6897 9.68954C21.2755 9.10383 22.2251 9.10379 22.8108 9.68954C23.3964 10.2753 23.3965 11.2249 22.8108 11.8106L13.4827 21.1388C12.6629 21.9584 11.3336 21.9585 10.514 21.1388L1.18974 11.8106C0.604156 11.2248 0.604097 10.2752 1.18974 9.68954C1.77555 9.10397 2.72514 9.10392 3.31083 9.68954L11.9983 18.38L20.6897 9.68954ZM20.6897 2.68954C21.2755 2.10383 22.2251 2.10379 22.8108 2.68954C23.3963 3.27533 23.3965 4.22494 22.8108 4.81064L13.4827 14.1388C12.6629 14.9585 11.3337 14.9585 10.514 14.1388L1.18974 4.81064C0.604128 4.22479 0.604014 3.27523 1.18974 2.68954C1.77555 2.10397 2.72514 2.10392 3.31083 2.68954L11.9983 11.38L20.6897 2.68954Z"
    fill="currentColor"
  />
</svg>
