<svg width="12" height="12" viewBox="0 0 12 12" fill="none" xmlns="http://www.w3.org/2000/svg" data-fui-icon="true">
  <path
    fill-rule="evenodd"
    clip-rule="evenodd"
    d="M2.31055 6.29307C2.70102 5.9026 3.33407 5.9027 3.72461 6.29307C4.11511 6.6836 4.11513 7.31661 3.72461 7.70713L3.43164 8.0001H11C11.5523 8.0001 12 8.44782 12 9.0001C11.9999 9.55226 11.5522 10.0001 11 10.0001H3.43164L3.72461 10.2931C4.11511 10.6836 4.11513 11.3166 3.72461 11.7071C3.33406 12.0973 2.70094 12.0975 2.31055 11.7071L0.310547 9.70713C-0.0796871 9.31673 -0.0795196 8.68357 0.310547 8.29307L2.31055 6.29307ZM8.29199 0.29307C8.68247 -0.0974095 9.31552 -0.0973192 9.70605 0.29307L11.707 2.29307C12.0975 2.68351 12.0973 3.31659 11.707 3.70713L9.70605 5.70811C9.31551 6.09832 8.68241 6.09853 8.29199 5.70811C7.90183 5.31767 7.90187 4.68451 8.29199 4.29405L8.58594 4.0001H1C0.447985 3.99989 0.00016071 3.55211 0 3.0001C3.37284e-05 2.44795 0.447893 2.00028 1 2.0001H8.58496L8.29199 1.70713C7.90175 1.31674 7.90195 0.683583 8.29199 0.29307Z"
    fill="currentColor"
  />
</svg>
