<svg width="24" height="24" viewBox="0 0 24 24" fill="none" xmlns="http://www.w3.org/2000/svg" data-fui-icon="true">
  <path
    fill-rule="evenodd"
    clip-rule="evenodd"
    d="M12.2199 18.5316C11.9271 18.2388 11.9272 17.764 12.2199 17.4711C12.5128 17.1782 12.9875 17.1782 13.2804 17.4711L17.2492 21.4388V0.750366C17.2492 0.336153 17.585 0.000366211 17.9992 0.000366211C18.4133 0.00050354 18.7492 0.336237 18.7492 0.750366V21.4388L22.717 17.4711C23.0099 17.1782 23.4846 17.1782 23.7775 17.4711C24.0704 17.764 24.0704 18.2387 23.7775 18.5316L18.5295 23.7797C18.2366 24.0725 17.7618 24.0725 17.4689 23.7797L12.2199 18.5316ZM0.219893 6.52869C-0.0727493 6.23579 -0.0728691 5.76096 0.219893 5.46814L5.46892 0.220093C5.7618 -0.0726566 6.2366 -0.0726891 6.52946 0.220093L11.7775 5.46814C12.0704 5.76101 12.0703 6.23578 11.7775 6.52869C11.4846 6.82156 11.0099 6.82157 10.717 6.52869L6.74919 2.56091L6.74919 23.2494C6.74919 23.6635 6.41329 23.9993 5.99919 23.9994C5.58498 23.9994 5.24919 23.6636 5.24919 23.2494L5.24919 2.56091L1.28044 6.52869C0.987537 6.82153 0.512765 6.82157 0.219893 6.52869Z"
    fill="currentColor"
  />
</svg>
