<svg width="32" height="32" viewBox="0 0 32 32" fill="none" xmlns="http://www.w3.org/2000/svg" data-fui-icon="true">
  <path
    fill-rule="evenodd"
    clip-rule="evenodd"
    d="M29.2948 20.3683C29.6853 20.7588 30.3193 20.7587 30.7098 20.3683C31.1 19.9778 31.1 19.3447 30.7098 18.9542L17.2957 5.54014C16.5809 4.82541 15.4217 4.82536 14.7069 5.54014L1.29282 18.9542C0.902395 19.3447 0.902394 19.9778 1.29282 20.3683C1.68332 20.7588 2.31635 20.7587 2.70688 20.3683L16.0008 7.07432L29.2948 20.3683ZM29.2948 27.6642C29.6853 28.0547 30.3193 28.0546 30.7098 27.6642C31.1 27.2737 31.1 26.6406 30.7098 26.2501L17.2957 12.836C16.5809 12.1214 15.4216 12.1213 14.7069 12.836L1.29282 26.2501C0.902403 26.6406 0.902464 27.2737 1.29282 27.6642C1.68332 28.0547 2.31635 28.0546 2.70688 27.6642L16.0008 14.3702L29.2948 27.6642Z"
    fill="currentColor"
  />
</svg>
