<svg width="32" height="32" viewBox="0 0 32 32" fill="none" xmlns="http://www.w3.org/2000/svg" data-fui-icon="true">
  <path
    fill-rule="evenodd"
    clip-rule="evenodd"
    d="M12.1133 2.7077C11.7228 2.3172 11.7228 1.6832 12.1133 1.29266C12.5038 0.902445 13.1369 0.902445 13.5274 1.29266L26.9414 14.7067C27.6562 15.4215 27.6562 16.5808 26.9414 17.2956L13.5274 30.7097C13.1369 31.1001 12.5038 31.1001 12.1133 30.7097C11.7228 30.3192 11.7229 29.6861 12.1133 29.2956L25.4072 16.0016L12.1133 2.7077ZM4.8174 2.7077C4.4269 2.3172 4.42694 1.6832 4.8174 1.29266C5.20787 0.902445 5.841 0.902445 6.23146 1.29266L19.6455 14.7067C20.3602 15.4215 20.3603 16.5808 19.6455 17.2956L6.23146 30.7097C5.84098 31.1001 5.20792 31.1 4.8174 30.7097C4.4269 30.3192 4.42694 29.6861 4.8174 29.2956L18.1113 16.0016L4.8174 2.7077Z"
    fill="currentColor"
  />
</svg>
