<svg width="24" height="24" viewBox="0 0 24 24" fill="none" xmlns="http://www.w3.org/2000/svg" data-fui-icon="true">
  <path
    fill-rule="evenodd"
    clip-rule="evenodd"
    d="M6.11621 12.3652C6.60426 11.8777 7.39575 11.8776 7.88379 12.3652C8.37184 12.8533 8.3716 13.6456 7.88379 14.1338L5.26855 16.75L21.75 16.749C22.4399 16.7491 22.9995 17.3091 23 17.999C23 18.6893 22.4402 19.2489 21.75 19.249L5.26758 19.25L7.88379 21.8662C8.37183 22.3542 8.3716 23.1456 7.88379 23.6338C7.39563 24.1219 6.60434 24.1219 6.11621 23.6338L1.36621 18.8838C0.878195 18.3956 0.878191 17.6043 1.36621 17.1162L6.11621 12.3652ZM16.1162 0.366196C16.6044 -0.121632 17.3957 -0.121847 17.8838 0.366196L22.6338 5.11717C23.1215 5.60537 23.1218 6.39676 22.6338 6.88475L17.8838 11.6348C17.3958 12.1227 16.6044 12.1224 16.1162 11.6348C15.6281 11.1466 15.6281 10.3553 16.1162 9.86717L18.7324 7.25096L2.25 7.24998C1.55978 7.24997 1.00021 6.69016 1 5.99998C1.00017 5.30977 1.55975 4.74998 2.25 4.74998L18.7324 4.75096L16.1162 2.13377C15.6281 1.64565 15.6281 0.854356 16.1162 0.366196Z"
    fill="currentColor"
  />
</svg>
