<svg width="24" height="24" viewBox="0 0 24 24" fill="none" xmlns="http://www.w3.org/2000/svg" data-fui-icon="true">
  <path
    fill-rule="evenodd"
    clip-rule="evenodd"
    d="M14.2831 2.27626C14.576 1.98347 14.5758 1.50867 14.2831 1.21572C13.9903 0.922846 13.5155 0.922106 13.2225 1.21474L3.39048 11.0438C2.8638 11.5707 2.86363 12.4253 3.39048 12.952L13.2225 22.7811C13.5153 23.0738 13.9902 23.0736 14.2831 22.7811C14.5759 22.4882 14.5759 22.0135 14.2831 21.7206L4.55845 11.9989L14.2831 2.27626ZM20.7801 2.27626C21.073 1.98346 21.0729 1.50867 20.7801 1.21572C20.4874 0.922846 20.0125 0.922106 19.7196 1.21474L9.88756 11.0438C9.36066 11.5707 9.36063 12.4252 9.88756 12.952L19.7196 22.7811C20.0125 23.0739 20.4873 23.0739 20.7801 22.7811C21.0729 22.4882 21.073 22.0135 20.7801 21.7206L11.0555 11.9989L20.7801 2.27626Z"
    fill="currentColor"
  />
</svg>
