<svg width="12" height="12" viewBox="0 0 12 12" fill="none" xmlns="http://www.w3.org/2000/svg" data-fui-icon="true">
  <path
    fill-rule="evenodd"
    clip-rule="evenodd"
    d="M9.68926 6.29294C9.29879 5.90248 8.66575 5.90258 8.27522 6.29294C7.88473 6.68346 7.88471 7.31647 8.27522 7.70698L8.56819 7.99994H0.99998C0.447706 7.99994 0 8.44764 0 8.99992C0.000145909 9.55207 0.447796 9.9999 0.99998 9.9999H8.56819L8.27522 10.2929C7.88473 10.6834 7.88471 11.3164 8.27522 11.7069C8.66577 12.097 9.29887 12.0973 9.68926 11.7069L11.6892 9.70693C12.0794 9.31654 12.0793 8.6834 11.6892 8.2929L9.68926 6.29294ZM3.70793 0.293064C3.31746 -0.0974076 2.68443 -0.0973172 2.2939 0.293064L0.292963 2.29302C-0.0974731 2.68346 -0.09731 3.31652 0.292963 3.70706L2.2939 5.70799C2.68444 6.0982 3.31752 6.0984 3.70793 5.70799C4.09809 5.31756 4.09805 4.68441 3.70793 4.29396L3.41399 4.00002H10.9998C11.5518 3.99981 11.9996 3.55204 11.9998 3.00004C11.9997 2.4479 11.5519 2.00024 10.9998 2.00006H3.41497L3.70793 1.7071C4.09817 1.31671 4.09797 0.683569 3.70793 0.293064Z"
    fill="currentColor"
  />
</svg>
