<svg width="12" height="12" viewBox="0 0 12 12" fill="none" xmlns="http://www.w3.org/2000/svg" data-fui-icon="true">
  <path
    fill-rule="evenodd"
    clip-rule="evenodd"
    d="M9.88416 6.36579C9.39611 5.87758 8.60391 5.87775 8.1157 6.36579C7.74128 6.74018 7.65501 7.29292 7.85497 7.75049L1.24983 7.74951C0.559645 7.74951 9.53626e-05 8.30929 -0.000102992 8.99945C-1.04899e-05 9.68965 0.559597 10.2493 1.24983 10.2494L7.85497 10.2504C7.65542 10.7077 7.74157 11.2599 8.1157 11.6341C8.60379 12.1219 9.39511 12.122 9.88318 11.6341L11.6331 9.88417C12.121 9.39624 12.1216 8.60487 11.6341 8.11668L9.88416 6.36579ZM3.88349 0.366098C3.39527 -0.121948 2.60307 -0.122118 2.11502 0.366098L0.365113 2.11699C-0.12249 2.60517 -0.121854 3.39653 0.366089 3.88447L2.116 5.63438C2.60409 6.12225 3.39541 6.12228 3.88349 5.63438C4.2576 5.26017 4.34375 4.70803 4.14422 4.25067L10.7494 4.24969C11.4396 4.24965 11.9992 3.68996 11.9993 2.99975C11.9991 2.30959 11.4395 1.74982 10.7494 1.74982L4.14422 1.75079C4.34416 1.29325 4.25786 0.740488 3.88349 0.366098Z"
    fill="currentColor"
  />
</svg>
