<svg width="20" height="20" viewBox="0 0 20 20" fill="none" xmlns="http://www.w3.org/2000/svg" data-fui-icon="true">
  <path
    fill-rule="evenodd"
    clip-rule="evenodd"
    d="M10.3665 5.11646C9.87852 5.60462 9.87843 6.39593 10.3665 6.88403C10.8546 7.37204 11.646 7.37201 12.1341 6.88403L13.7503 5.26782L13.7503 17.7502C13.7505 18.4405 14.3101 19.0002 15.0003 19.0002C15.6906 19.0002 16.2502 18.4405 16.2503 17.7502V5.26782L17.8665 6.88403C18.3546 7.37204 19.146 7.37201 19.6341 6.88403C20.1222 6.39591 20.1222 5.60462 19.6341 5.11646L15.8841 1.36646C15.396 0.8783 14.6047 0.878302 14.1165 1.36646L10.3665 5.11646ZM0.366533 13.1165C-0.121479 13.6046 -0.121574 14.3959 0.366533 14.884L4.11653 18.634C4.35093 18.8684 4.66886 19.0002 5.00032 19.0002C5.33177 19.0002 5.6497 18.8684 5.88411 18.634L9.63411 14.884C10.1222 14.3959 10.1221 13.6046 9.63411 13.1165C9.14596 12.6283 8.35469 12.6283 7.86653 13.1165L6.25032 14.7327L6.25032 2.25024C6.25032 1.55989 5.69068 1.00024 5.00032 1.00024C4.30999 1.00027 3.75032 1.5599 3.75032 2.25024L3.75032 14.7327L2.13411 13.1165C1.64596 12.6283 0.854688 12.6283 0.366533 13.1165Z"
    fill="currentColor"
  />
</svg>
