<svg width="24" height="24" viewBox="0 0 24 24" fill="none" xmlns="http://www.w3.org/2000/svg" data-fui-icon="true">
  <path
    fill-rule="evenodd"
    clip-rule="evenodd"
    d="M12.3657 17.8837C11.8778 17.3956 11.8779 16.6043 12.3657 16.1161C12.8538 15.6282 13.6461 15.6281 14.1342 16.1161L16.7503 18.7313L16.7494 2.2502C16.7495 1.56012 17.3093 1.00047 17.9993 1.00022C18.6895 1.00034 19.2492 1.56005 19.2493 2.2502L19.2503 18.7323L21.8665 16.1161C22.3546 15.6282 23.1459 15.6281 23.634 16.1161C24.122 16.6042 24.1219 17.3955 23.634 17.8837L18.8841 22.6336C18.396 23.1217 17.6047 23.1216 17.1165 22.6336L12.3657 17.8837ZM0.365912 7.88387C-0.121841 7.3957 -0.1221 6.60435 0.365912 6.11633L5.11679 1.36643C5.60494 0.878644 6.3963 0.878459 6.88433 1.36643L11.6342 6.11633C12.1223 6.60436 12.122 7.3957 11.6342 7.88387C11.1461 8.37202 10.3548 8.37202 9.86669 7.88387L7.25054 5.26772L7.24956 21.7498C7.24955 22.4401 6.68988 22.9997 5.99959 22.9998C5.30939 22.9996 4.74961 22.44 4.74961 21.7498L4.75059 5.26772L2.13345 7.88387C1.64531 8.37201 0.854056 8.37202 0.365912 7.88387Z"
    fill="currentColor"
  />
</svg>
