<svg width="20" height="20" viewBox="0 0 20 20" fill="none" xmlns="http://www.w3.org/2000/svg" data-fui-icon="true">
  <path
    fill-rule="evenodd"
    clip-rule="evenodd"
    d="M17.2928 11.5121C17.6832 11.9026 18.3163 11.9025 18.7068 11.5121C19.0972 11.1216 19.0973 10.4885 18.7068 10.098L11.0457 2.4369C10.468 1.85944 9.53154 1.85938 8.9539 2.4369L1.29277 10.098C0.902367 10.4885 0.902455 11.1216 1.29277 11.5121C1.68328 11.9025 2.31632 11.9025 2.70683 11.5121L9.9998 4.21913L17.2928 11.5121ZM17.2928 17.6586C17.6832 18.0491 18.3163 18.049 18.7068 17.6586C19.0972 17.2681 19.0973 16.635 18.7068 16.2445L11.0457 8.58339C10.468 8.00599 9.53151 8.00589 8.9539 8.58339L1.29277 16.2445C0.902392 16.635 0.902528 17.2681 1.29277 17.6586C1.68328 18.049 2.31632 18.049 2.70683 17.6586L9.9998 10.3656L17.2928 17.6586Z"
    fill="currentColor"
  />
</svg>
