<svg width="12" height="12" viewBox="0 0 12 12" fill="none" xmlns="http://www.w3.org/2000/svg" data-fui-icon="true">
  <path
    fill-rule="evenodd"
    clip-rule="evenodd"
    d="M6.22204 3.9281C5.92938 3.63518 5.92922 3.16037 6.22204 2.86755C6.51489 2.57511 6.9898 2.57501 7.28259 2.86755L9.70544 5.29138C10.0959 5.68181 10.0957 6.3149 9.70544 6.70544L7.28259 9.12829C6.9897 9.42118 6.51494 9.42118 6.22204 9.12829C5.92929 8.83539 5.9292 8.36059 6.22204 8.06774L8.29138 5.99841L6.22204 3.9281ZM2.22204 3.9281C1.92938 3.63518 1.92922 3.16037 2.22204 2.86755C2.51489 2.57511 2.9898 2.57501 3.28259 2.86755L5.70544 5.29138C6.09585 5.68181 6.09567 6.3149 5.70544 6.70544L3.28259 9.12829C2.9897 9.42118 2.51494 9.42118 2.22204 9.12829C1.92929 8.83539 1.9292 8.36059 2.22204 8.06774L4.29138 5.99841L2.22204 3.9281Z"
    fill="currentColor"
  />
</svg>
