<svg width="12" height="12" viewBox="0 0 12 12" fill="none" xmlns="http://www.w3.org/2000/svg" data-fui-icon="true">
  <path
    fill-rule="evenodd"
    clip-rule="evenodd"
    d="M9.36612 6.28028C9.85425 6.76822 10.6456 6.76827 11.1337 6.28028C11.6218 5.79218 11.6217 5.00087 11.1337 4.5127L7.06045 0.439456C6.47467 -0.146308 5.52514 -0.146313 4.93936 0.439456L0.866117 4.5127C0.37805 5.00086 0.377991 5.79215 0.866117 6.28028C1.35426 6.76822 2.14559 6.76828 2.63369 6.28028L5.99991 2.91407L9.36612 6.28028ZM9.36612 11.6299C9.85427 12.118 10.6455 12.118 11.1337 11.6299C11.6218 11.1417 11.6218 10.3504 11.1337 9.86231L7.06045 5.78907C6.4747 5.20333 5.52515 5.20339 4.93936 5.78907L0.866117 9.86231C0.377961 10.3505 0.377961 11.1417 0.866117 11.6299C1.35427 12.118 2.14554 12.118 2.63369 11.6299L5.99991 8.26367L9.36612 11.6299Z"
    fill="currentColor"
  />
</svg>
