<svg width="17" height="16" viewBox="0 0 17 16" fill="none" xmlns="http://www.w3.org/2000/svg" data-fui-icon="true">
  <path
    fill-rule="evenodd"
    clip-rule="evenodd"
    d="M8.43889 3.9375C7.85318 4.5232 7.85336 5.47278 8.43889 6.05859C9.00532 6.62501 9.91052 6.64228 10.4994 6.11328V13.498C10.4994 14.3265 11.171 14.998 11.9994 14.998C12.8279 14.998 13.4994 14.3265 13.4994 13.498V6.11328C14.0883 6.64408 14.9949 6.6276 15.5619 6.06055C16.1475 5.47477 16.1476 4.52517 15.5619 3.93945L13.06 1.4375C12.4743 0.852044 11.5246 0.852023 10.9389 1.4375L8.43889 3.9375ZM0.440842 9.9375C-0.144869 10.5232 -0.144794 11.4728 0.440842 12.0586L2.94475 14.5625C3.53052 15.1483 4.48005 15.1483 5.06584 14.5625L7.56975 12.0586C8.1552 11.4728 8.15541 10.5232 7.56975 9.9375C7.00225 9.37018 6.09406 9.35375 5.50529 9.88574L5.50529 2.49805C5.50503 1.66992 4.83345 0.998174 4.00529 0.998047C3.17703 0.998051 2.50555 1.66984 2.50529 2.49805L2.50529 9.88574C1.91659 9.35364 1.00841 9.37029 0.440842 9.9375Z"
    fill="currentColor"
  />
</svg>
