<svg width="17" height="17" viewBox="0 0 17 17" fill="none" xmlns="http://www.w3.org/2000/svg" data-fui-icon="true">
  <path
    fill-rule="evenodd"
    clip-rule="evenodd"
    d="M3.68961 8.72433C4.00074 8.41356 4.5051 8.41334 4.8161 8.72433C5.12699 9.03533 5.12682 9.53972 4.8161 9.85082L2.71975 11.9472H16.2034C16.6431 11.9474 16.9998 12.3041 17 12.7438C16.9999 13.1836 16.6431 13.5402 16.2034 13.5404H2.71975L4.8161 15.6368C5.12686 15.9478 5.12678 16.4522 4.8161 16.7633C4.50505 17.0741 4.00067 17.0741 3.68961 16.7633L0.233388 13.307C-0.077656 12.996 -0.0775362 12.4917 0.233388 12.1806L3.68961 8.72433ZM12.1839 0.233148C12.495 -0.0777161 12.9993 -0.0777161 13.3104 0.233148L16.7666 3.68937C17.0774 4.00044 17.0774 4.50483 16.7666 4.81586L13.3104 8.27208C12.9994 8.58305 12.495 8.58287 12.1839 8.27208C11.8729 7.96098 11.8729 7.45668 12.1839 7.14559L14.2802 5.04924H0.796632C0.356774 5.04924 0.000177104 4.69243 0 4.25261C9.74301e-05 3.81273 0.356724 3.45598 0.796632 3.45598H14.2802L12.1839 1.35964C11.873 1.04853 11.8729 0.544195 12.1839 0.233148Z"
    fill="currentColor"
  />
</svg>
