<svg width="16" height="16" viewBox="0 0 16 16" fill="none" xmlns="http://www.w3.org/2000/svg" data-fui-icon="true">
  <path
    d="M12.6948 8.91507C13.2832 9.49799 14.2328 9.49355 14.8159 8.9053C15.3986 8.31694 15.3943 7.36725 14.8062 6.78421L9.26318 1.29007C8.53278 0.566034 7.35365 0.570772 6.62939 1.30081L1.18506 6.79398C0.602094 7.38237 0.606526 8.33196 1.19482 8.91507C1.78321 9.49804 2.7328 9.4936 3.31592 8.9053L7.95947 4.22171L12.6948 8.91507ZM12.6909 15.4102C13.2767 15.9959 14.2262 15.9959 14.812 15.4102C15.3975 14.8244 15.3977 13.8748 14.812 13.2891L9.31689 7.79398C8.58956 7.06676 7.41048 7.0669 6.68311 7.79398L1.18994 13.2891C0.604317 13.8749 0.604237 14.8245 1.18994 15.4102C1.77577 15.9958 2.72535 15.9959 3.31104 15.4102L7.99951 10.7198L12.6909 15.4102Z"
    fill="currentColor"
  />
</svg>
