<svg width="24" height="24" viewBox="0 0 24 24" fill="none" xmlns="http://www.w3.org/2000/svg" data-fui-icon="true">
  <path
    d="M12.2201 18.5316C11.9273 18.2388 11.9274 17.764 12.2201 17.4711C12.513 17.1782 12.9877 17.1782 13.2806 17.4711L17.2494 21.4388V0.750366C17.2494 0.336153 17.5852 0.000366211 17.9994 0.000366211C18.4135 0.00050354 18.7494 0.336237 18.7494 0.750366V21.4388L22.7172 17.4711C23.0101 17.1782 23.4848 17.1782 23.7777 17.4711C24.0706 17.764 24.0706 18.2387 23.7777 18.5316L18.5297 23.7797C18.2368 24.0725 17.762 24.0725 17.4691 23.7797L12.2201 18.5316ZM0.220093 6.52869C-0.0725487 6.23579 -0.0726689 5.76096 0.220093 5.46814L5.46912 0.220093C5.762 -0.0726566 6.2368 -0.0726891 6.52966 0.220093L11.7777 5.46814C12.0706 5.76101 12.0705 6.23578 11.7777 6.52869C11.4848 6.82156 11.0101 6.82157 10.7172 6.52869L6.74939 2.56091L6.74939 23.2494C6.74939 23.6635 6.41349 23.9993 5.99939 23.9994C5.58518 23.9994 5.24939 23.6636 5.24939 23.2494L5.24939 2.56091L1.28064 6.52869C0.987736 6.82153 0.512966 6.82157 0.220093 6.52869Z"
    fill="currentColor"
  />
</svg>
