<svg width="20" height="20" viewBox="0 0 20 20" fill="none" xmlns="http://www.w3.org/2000/svg" data-fui-icon="true">
  <path
    fill-rule="evenodd"
    clip-rule="evenodd"
    d="M5.11621 10.3664C5.60438 9.8784 6.39568 9.8783 6.88379 10.3664C7.3718 10.8545 7.37177 11.6459 6.88379 12.134L5.26758 13.7502H17.75C18.4402 13.7503 19 14.3099 19 15.0002C19 15.6905 18.4402 16.2501 17.75 16.2502H5.26758L6.88379 17.8664C7.37179 18.3545 7.37177 19.1459 6.88379 19.634C6.39567 20.1221 5.60437 20.122 5.11621 19.634L1.36621 15.884C0.878056 15.3958 0.878057 14.6046 1.36621 14.1164L5.11621 10.3664ZM13.1162 0.366411C13.6044 -0.121601 14.3957 -0.121697 14.8838 0.366411L18.6338 4.11641C18.8681 4.35081 19 4.66874 19 5.0002C19 5.33165 18.8681 5.64958 18.6338 5.88399L14.8838 9.63399C14.3957 10.1221 13.6044 10.122 13.1162 9.63399C12.6281 9.14584 12.6281 8.35457 13.1162 7.86641L14.7324 6.2502H2.25C1.55964 6.2502 1 5.69056 1 5.0002C1.00002 4.30986 1.55966 3.7502 2.25 3.7502H14.7324L13.1162 2.13399C12.6281 1.64583 12.6281 0.854566 13.1162 0.366411Z"
    fill="currentColor"
  />
</svg>
