<svg width="17" height="16" viewBox="0 0 17 16" fill="none" xmlns="http://www.w3.org/2000/svg" data-fui-icon="true">
  <path
    fill-rule="evenodd"
    clip-rule="evenodd"
    d="M8.43901 12.0624C7.85331 11.4767 7.85348 10.5271 8.43901 9.94128C9.00544 9.37487 9.91064 9.35759 10.4996 9.8866V2.50183C10.4996 1.67342 11.1711 1.00185 11.9996 1.00183C12.828 1.00183 13.4996 1.6734 13.4996 2.50183V9.8866C14.0884 9.3558 14.995 9.37227 15.5621 9.93933C16.1476 10.5251 16.1477 11.4747 15.5621 12.0604L13.0601 14.5624C12.4744 15.1478 11.5247 15.1479 10.939 14.5624L8.43901 12.0624ZM0.440964 6.06238C-0.144747 5.47664 -0.144672 4.52707 0.440964 3.94128L2.94487 1.43738C3.53065 0.851603 4.48017 0.85162 5.06596 1.43738L7.56987 3.94128C8.15533 4.52709 8.15553 5.4767 7.56987 6.06238C7.00237 6.6297 6.09419 6.64613 5.50542 6.11414L5.50542 13.5018C5.50516 14.33 4.83357 15.0017 4.00542 15.0018C3.17715 15.0018 2.50567 14.33 2.50542 13.5018L2.50542 6.11414C1.91671 6.64623 1.00853 6.62959 0.440964 6.06238Z"
    fill="currentColor"
  />
</svg>
