<svg width="20" height="20" viewBox="0 0 20 20" fill="none" xmlns="http://www.w3.org/2000/svg" data-fui-icon="true">
  <path
    fill-rule="evenodd"
    clip-rule="evenodd"
    d="M17.7197 11.3349C18.0125 11.6277 18.4873 11.6276 18.7802 11.3349C19.0728 11.0421 19.0737 10.5672 18.7812 10.2744L10.8691 2.36226C10.3891 1.88238 9.61083 1.88243 9.13079 2.36226L1.21966 10.2744C0.926787 10.5673 0.926775 11.042 1.21966 11.3349C1.51256 11.6277 1.98735 11.6278 2.2802 11.3349L9.99993 3.61519L17.7197 11.3349ZM17.7197 17.7802C18.0125 18.0728 18.4874 18.0728 18.7802 17.7802C19.0728 17.4875 19.0735 17.0126 18.7812 16.7197L10.8691 8.80757C10.389 8.32765 9.61082 8.32763 9.13079 8.80757L1.21966 16.7197C0.926787 17.0126 0.926775 17.4874 1.21966 17.7802C1.51258 18.0728 1.98741 18.073 2.2802 17.7802L9.99993 10.0605L17.7197 17.7802Z"
    fill="currentColor"
  />
</svg>
