<svg width="20" height="20" viewBox="0 0 20 20" fill="none" xmlns="http://www.w3.org/2000/svg" data-fui-icon="true">
  <path
    fill-rule="evenodd"
    clip-rule="evenodd"
    d="M10.1306 6.71703C10.6186 6.229 10.6185 5.43767 10.1306 4.94945C9.64253 4.46138 8.85121 4.4615 8.363 4.94945L4.48897 8.82054C3.83772 9.47149 3.83769 10.528 4.48897 11.1789L8.363 15.05C8.85119 15.5379 9.64254 15.538 10.1306 15.05C10.6185 14.5618 10.6186 13.7705 10.1306 13.2825L6.84639 10.0002L10.1306 6.71703ZM15.6335 6.71703C16.1216 6.22899 16.1215 5.43766 15.6335 4.94945C15.1455 4.46138 14.3541 4.4615 13.8659 4.94945L9.9919 8.82054C9.34063 9.47149 9.34061 10.528 9.9919 11.1789L13.8659 15.05C14.3541 15.538 15.1455 15.5381 15.6335 15.05C16.1214 14.5618 16.1216 13.7705 15.6335 13.2825L12.3493 10.0002L15.6335 6.71703Z"
    fill="currentColor"
  />
</svg>
