<svg width="32" height="32" viewBox="0 0 32 32" fill="none" xmlns="http://www.w3.org/2000/svg" data-fui-icon="true">
  <path
    fill-rule="evenodd"
    clip-rule="evenodd"
    d="M17.4365 25.0592C16.8507 24.4734 16.8507 23.5239 17.4365 22.9381C18.0223 22.3526 18.9719 22.3524 19.5576 22.9381L22.498 25.8795V2.49865C22.498 1.67034 23.1698 0.998835 23.998 0.998648C24.8262 0.998907 25.498 1.67038 25.498 2.49865V25.8795L28.4394 22.9381C29.0252 22.3524 29.9748 22.3523 30.5605 22.9381C31.1459 23.5239 31.1461 24.4735 30.5605 25.0592L25.0586 30.5611C24.4729 31.1465 23.5232 31.1464 22.9375 30.5611L17.4365 25.0592ZM1.43749 9.05919C0.851893 8.47345 0.851893 7.52385 1.43749 6.9381L6.93749 1.4381C7.52323 0.852438 8.47281 0.852486 9.05858 1.4381L14.5605 6.94005C15.1458 7.52586 15.1461 8.47553 14.5605 9.06115C13.9749 9.6466 13.0252 9.64636 12.4394 9.06115L9.49803 6.11974L9.49803 29.4986C9.49788 30.3268 8.82617 30.9984 7.99803 30.9986C7.16982 30.9985 6.49819 30.3269 6.49803 29.4986L6.49803 6.11974L3.55858 9.05919C2.9729 9.64472 2.02325 9.64457 1.43749 9.05919Z"
    fill="currentColor"
  />
</svg>
