<svg width="24" height="24" viewBox="0 0 24 24" fill="none" xmlns="http://www.w3.org/2000/svg" data-fui-icon="true">
  <path
    d="M19.25 20.5C19.6642 20.5 20 20.8358 20 21.25C20 21.6642 19.6642 22 19.25 22H4.75C4.33579 22 4 21.6642 4 21.25C4 20.8358 4.33579 20.5 4.75 20.5H19.25ZM12 2C12.4142 2 12.75 2.33579 12.75 2.75V15.6895L15.7197 12.7197C16.0126 12.4268 16.4874 12.4268 16.7803 12.7197C17.0732 13.0126 17.0732 13.4874 16.7803 13.7803L13.2373 17.3232C12.5539 18.0065 11.4461 18.0065 10.7627 17.3232L7.21973 13.7803C6.92683 13.4874 6.92683 13.0126 7.21973 12.7197C7.51262 12.4268 7.98738 12.4268 8.28027 12.7197L11.25 15.6895V2.75C11.25 2.33579 11.5858 2 12 2Z"
    fill="currentColor"
  />
</svg>
