<svg width="24" height="24" viewBox="0 0 24 24" fill="none" xmlns="http://www.w3.org/2000/svg" data-fui-icon="true">
  <path
    fill-rule="evenodd"
    clip-rule="evenodd"
    d="M22.25 21.4998C22.6641 21.4998 22.9999 21.8357 23 22.2498C23 22.664 22.6642 22.9998 22.25 22.9998H1.75C1.33579 22.9998 1 22.664 1 22.2498C1.00014 21.8357 1.33587 21.4998 1.75 21.4998H22.25ZM12 0.999756C12.4141 0.999756 12.7499 1.33565 12.75 1.74976V17.1892L18.9697 10.9695C19.2626 10.6768 19.7374 10.6768 20.0303 10.9695C20.3231 11.2623 20.323 11.7371 20.0303 12.03L12.5303 19.53C12.2557 19.8046 11.8209 19.8221 11.5264 19.5818L11.4697 19.53L3.96973 12.03C3.67696 11.7371 3.67687 11.2623 3.96973 10.9695C4.26259 10.6768 4.73741 10.6768 5.03027 10.9695L11.25 17.1892V1.74976C11.2501 1.33565 11.5859 0.999756 12 0.999756Z"
    fill="currentColor"
  />
</svg>
