<svg width="12" height="12" viewBox="0 0 12 12" fill="none" xmlns="http://www.w3.org/2000/svg" data-fui-icon="true">
  <path
    d="M6.32715 0C6.78425 0 7.22384 0.178599 7.55078 0.498047L9.97363 2.86621C10.3102 3.19536 10.4999 3.6464 10.5 4.11719V10.1152C10.4998 11.0891 9.7651 11.9998 8.71582 12H3.28418C2.23492 11.9998 1.50019 11.0891 1.5 10.1152V1.88477C1.50019 0.910923 2.23491 0.000175319 3.28418 0H6.32715ZM6.12109 4.5C5.84501 4.50007 5.6211 4.7239 5.62109 5V6.94922L4.81836 6.14648C4.62314 5.95126 4.3066 5.95135 4.11133 6.14648C3.91607 6.34175 3.91607 6.65825 4.11133 6.85352L5.57617 8.31836C5.84462 8.58671 6.27938 8.58668 6.54785 8.31836L8.13574 6.73145C8.33072 6.53627 8.33063 6.21964 8.13574 6.02441C7.94048 5.82915 7.623 5.82915 7.42773 6.02441L6.62109 6.83105V5C6.62109 4.72386 6.39723 4.5 6.12109 4.5Z"
    fill="currentColor"
  />
</svg>
