<svg width="24" height="24" viewBox="0 0 24 24" fill="none" xmlns="http://www.w3.org/2000/svg" data-fui-icon="true">
  <path
    d="M21.75 20.2504C22.5784 20.2504 23.25 20.9219 23.25 21.7504C23.2498 22.5786 22.5783 23.2504 21.75 23.2504H2.25C1.4217 23.2504 0.75021 22.5786 0.75 21.7504C0.75 20.9219 1.42157 20.2504 2.25 20.2504H21.75ZM12 0.750366C12.8284 0.750366 13.5 1.42194 13.5 2.25037V13.8793L17.6895 9.68982C18.2752 9.10403 19.2248 9.10403 19.8105 9.68982C20.3961 10.2756 20.3963 11.2252 19.8105 11.8109L13.0605 18.5609C12.5116 19.1097 11.6428 19.1443 11.0537 18.6644L10.9395 18.5609L4.18945 11.8109C3.60373 11.2252 3.60385 10.2756 4.18945 9.68982C4.77524 9.10403 5.72476 9.10403 6.31055 9.68982L10.5 13.8793V2.25037C10.5 1.42194 11.1716 0.750366 12 0.750366Z"
    fill="currentColor"
  />
</svg>
