<svg width="20" height="20" viewBox="0 0 20 20" fill="none" xmlns="http://www.w3.org/2000/svg" data-fui-icon="true">
  <path
    d="M18 16.9996C18.5522 16.9996 18.9998 17.4475 19 17.9996C19 18.5519 18.5523 18.9996 18 18.9996H2C1.44772 18.9996 1 18.5519 1 17.9996C1.00016 17.4475 1.44781 16.9996 2 16.9996H18ZM10 0.999634C10.5521 0.999744 10.9998 1.44759 11 1.99963V12.0856L15.293 7.7926C15.6834 7.40259 16.3166 7.40247 16.707 7.7926C17.0973 8.18299 17.0971 8.81614 16.707 9.20667L10.707 15.2067C10.3408 15.5729 9.76095 15.5958 9.36816 15.275L9.29297 15.2067L3.29297 9.20667C2.9028 8.81611 2.90256 8.18301 3.29297 7.7926C3.68339 7.40242 4.31656 7.40251 4.70703 7.7926L9 12.0856V1.99963C9.0002 1.44756 9.4479 0.9997 10 0.999634Z"
    fill="currentColor"
  />
</svg>
