<svg width="16" height="16" viewBox="0 0 16 16" fill="none" xmlns="http://www.w3.org/2000/svg" data-fui-icon="true">
  <path
    d="M12.834 13.416C13.2477 13.4163 13.5836 13.7523 13.584 14.166C13.584 14.58 13.2479 14.9157 12.834 14.916H3.16699C2.75278 14.916 2.41699 14.5802 2.41699 14.166C2.41737 13.7521 2.75301 13.416 3.16699 13.416H12.834ZM8 1.08301C8.41398 1.08314 8.7498 1.41904 8.75 1.83301V9.85645L10.3037 8.30273C10.5966 8.01033 11.0715 8.01006 11.3643 8.30273C11.6568 8.59548 11.6566 9.0704 11.3643 9.36328L9.00195 11.7256C8.44883 12.2785 7.55221 12.2784 6.99902 11.7256L4.63672 9.36328C4.34389 9.07038 4.34385 8.59561 4.63672 8.30273C4.92962 8.01017 5.40447 8.01 5.69727 8.30273L7.25 9.85547V1.83301C7.2502 1.41907 7.58606 1.08318 8 1.08301Z"
    fill="currentColor"
  />
</svg>
