<svg
  width="16"
  height="16"
  viewBox="0 0 16 16"
  fill="none"
  xmlns="http://www.w3.org/2000/svg"
  data-fui-icon="true"
>
  <path
    fill-rule="evenodd"
    clip-rule="evenodd"
    d="M3.75 2.51351C3.75 2.02478 4.09577 1.75 4.37931 1.75H7.76724V4.40541C7.76724 5.58845 8.65652 6.66892 9.89655 6.66892H12.25V13.4865C12.25 13.9752 11.9043 14.25 11.6207 14.25H4.37931C4.09576 14.25 3.75 13.9752 3.75 13.4865V2.51351ZM11.3018 5.16892L9.26724 2.93643V4.40541C9.26724 4.89415 9.613 5.16892 9.89655 5.16892H11.3018ZM13.75 6.54582C13.75 5.96684 13.541 5.39914 13.1503 4.97044L13.1503 4.97042L9.47558 0.938118L9.47556 0.938102C9.08276 0.507105 8.53431 0.25 7.94593 0.25H4.37931C3.13931 0.25 2.25 1.33047 2.25 2.51351V13.4865C2.25 14.6696 3.13931 15.75 4.37931 15.75H11.6207C12.8607 15.75 13.75 14.6696 13.75 13.4865V6.54582ZM8.91164 7.5C8.91164 7.08579 8.57585 6.75 8.16164 6.75C7.74742 6.75 7.41164 7.08579 7.41164 7.5V10.6982L6.48312 9.76966C6.19023 9.47676 5.71535 9.47676 5.42246 9.76966C5.12957 10.0626 5.12957 10.5374 5.42246 10.8303L7.37563 12.7835C7.76615 13.174 8.39932 13.174 8.78984 12.7835L10.906 10.6674C11.1989 10.3745 11.1989 9.8996 10.906 9.60671C10.6131 9.31382 10.1382 9.31382 9.8453 9.60671L8.91164 10.5404V7.5Z"
    fill="currentColor"
    fill-opacity=".875"
  />
</svg>
