<svg width="12" height="12" viewBox="0 0 12 12" fill="none" xmlns="http://www.w3.org/2000/svg" data-fui-icon="true">
  <path
    d="M9.625 9.875C10.0392 9.875 10.375 10.2108 10.375 10.625C10.375 11.0392 10.0392 11.375 9.625 11.375H2.375C1.96079 11.375 1.625 11.0392 1.625 10.625C1.625 10.2108 1.96079 9.875 2.375 9.875H9.625ZM6 0.625C6.41421 0.625 6.75 0.960787 6.75 1.375V6.93945L7.59473 6.09473C7.88762 5.80183 8.36238 5.80183 8.65527 6.09473C8.94817 6.38762 8.94817 6.86238 8.65527 7.15527L6.88379 8.92676C6.39565 9.41486 5.60435 9.41486 5.11621 8.92676L3.34473 7.15527C3.05183 6.86238 3.05183 6.38762 3.34473 6.09473C3.63762 5.80183 4.11238 5.80183 4.40527 6.09473L5.25 6.93945V1.375C5.25 0.960786 5.58579 0.625 6 0.625Z"
    fill="currentColor"
  />
</svg>
