<svg width="20" height="20" viewBox="0 0 20 20" fill="none" xmlns="http://www.w3.org/2000/svg" data-fui-icon="true">
  <path
    d="M18.25 17.5001C18.6642 17.5001 19 17.8359 19 18.2501C19 18.6643 18.6642 19.0001 18.25 19.0001H1.75C1.33581 19.0001 1.00003 18.6643 1 18.2501C1 17.8359 1.33579 17.5001 1.75 17.5001H18.25ZM10 1.00012C10.4142 1.00012 10.75 1.33591 10.75 1.75012V13.1896L15.7197 8.21985C16.0126 7.92696 16.4874 7.92696 16.7803 8.21985C17.0731 8.51275 17.0731 8.98752 16.7803 9.2804L10.5303 15.5304C10.2557 15.8049 9.82093 15.8224 9.52637 15.5822L9.46973 15.5304L3.21973 9.2804C2.92685 8.98752 2.92689 8.51275 3.21973 8.21985C3.51262 7.92696 3.98738 7.92696 4.28027 8.21985L9.25 13.1896V1.75012C9.25 1.33591 9.58579 1.00012 10 1.00012Z"
    fill="currentColor"
  />
</svg>
