<svg width="12" height="12" viewBox="0 0 12 12" fill="none" xmlns="http://www.w3.org/2000/svg" data-fui-icon="true">
  <path
    d="M10.9998 9.9998C11.552 9.9998 11.9996 10.4476 11.9998 10.9998C11.9998 11.5521 11.5521 11.9998 10.9998 11.9998H0.99998C0.447844 11.9996 0 11.552 0 10.9998C0.000146274 10.4477 0.447934 9.99996 0.99998 9.9998H10.9998ZM5.99988 0C6.55205 0 6.99969 0.447852 6.99986 0.99998V5.60828L8.47639 4.15031C8.86931 3.76263 9.50247 3.76651 9.89042 4.1591C10.2784 4.5521 10.2746 5.18612 9.88163 5.57411L6.70201 8.71174C6.33686 9.07184 5.76392 9.09446 5.37294 8.77912L5.29774 8.71174L2.1191 5.57411C1.7263 5.1861 1.72143 4.55205 2.10933 4.1591C2.49719 3.76635 3.13035 3.7628 3.52337 4.15031L4.9999 5.60828V0.99998C5.00007 0.447934 5.44782 0.000134169 5.99988 0Z"
    fill="currentColor"
  />
</svg>
