<svg width="16" height="16" viewBox="0 0 16 16" fill="none" xmlns="http://www.w3.org/2000/svg" data-fui-icon="true">
  <path
    d="M14.25 13.5001C14.6642 13.5001 15 13.8359 15 14.2501C14.9999 14.6643 14.6642 15.0001 14.25 15.0001H1.75C1.33585 15.0001 1.0001 14.6643 1 14.2501C1 13.8359 1.33579 13.5001 1.75 13.5001H14.25ZM8 1.00012C8.41421 1.00012 8.75 1.33591 8.75 1.75012V9.43958L11.9697 6.21985C12.2626 5.92696 12.7374 5.92696 13.0303 6.21985C13.3231 6.51275 13.3231 6.98752 13.0303 7.2804L8.53027 11.7804C8.25568 12.0549 7.82093 12.0724 7.52637 11.8322L7.46973 11.7804L2.96973 7.2804C2.67685 6.98752 2.67689 6.51275 2.96973 6.21985C3.26262 5.92696 3.73738 5.92696 4.03027 6.21985L7.25 9.43958V1.75012C7.25 1.33591 7.58579 1.00012 8 1.00012Z"
    fill="currentColor"
  />
</svg>
