<svg width="32" height="32" viewBox="0 0 32 32" fill="none" xmlns="http://www.w3.org/2000/svg" data-fui-icon="true">
  <path
    d="M30.25 29.5C30.6642 29.5 31 29.8358 31 30.25C31 30.6642 30.6642 31 30.25 31H1.75C1.33579 31 1 30.6642 1 30.25C1 29.8358 1.33579 29.5 1.75 29.5H30.25ZM16 1C16.4142 1 16.75 1.33579 16.75 1.75V23.4395L25.9697 14.2197C26.2626 13.9268 26.7374 13.9268 27.0303 14.2197C27.3232 14.5126 27.3232 14.9874 27.0303 15.2803L16.5303 25.7803C16.2374 26.0732 15.7626 26.0732 15.4697 25.7803L4.96973 15.2803C4.67683 14.9874 4.67683 14.5126 4.96973 14.2197C5.26262 13.9268 5.73738 13.9268 6.03027 14.2197L15.25 23.4395V1.75C15.25 1.33579 15.5858 1 16 1Z"
    fill="currentColor"
  />
</svg>
