<svg width="20" height="20" viewBox="0 0 20 20" fill="none" xmlns="http://www.w3.org/2000/svg" data-fui-icon="true">
  <path
    d="M17.75 16.5C18.4403 16.5 19 17.0597 19 17.75C19 18.4404 18.4404 19 17.75 19H2.25C1.55964 19 1 18.4404 1 17.75C1.00003 17.0597 1.55966 16.5 2.25 16.5H17.75ZM10 1C10.6904 1 11.25 1.55964 11.25 2.25V10.9824L14.6162 7.61621C15.1044 7.12806 15.8956 7.12806 16.3838 7.61621C16.8719 8.10437 16.8719 8.89563 16.3838 9.38379L10.8838 14.8838C10.4261 15.3415 9.70191 15.3702 9.21094 14.9697L9.11621 14.8838L3.61621 9.38379C3.12806 8.89563 3.12806 8.10437 3.61621 7.61621C4.10437 7.12806 4.89563 7.12806 5.38379 7.61621L8.75 10.9824V2.25C8.75 1.55964 9.30964 1 10 1Z"
    fill="currentColor"
  />
</svg>
