<svg width="32" height="32" viewBox="0 0 32 32" fill="none" xmlns="http://www.w3.org/2000/svg" data-fui-icon="true">
  <path
    d="M29.75 28.5001C30.4404 28.5001 31 29.0597 31 29.7501C31 30.4404 30.4403 31.0001 29.75 31.0001H2.25C1.55967 31.0001 1.00003 30.4404 1 29.7501C1 29.0597 1.55964 28.5001 2.25 28.5001H29.75ZM16 1.00006C16.6904 1.00006 17.25 1.55971 17.25 2.25006V21.4825L24.8662 13.8663C25.3544 13.3781 26.1456 13.3781 26.6338 13.8663C27.1219 14.3544 27.1219 15.1457 26.6338 15.6339L16.8838 25.3839C16.3956 25.872 15.6044 25.872 15.1162 25.3839L5.36621 15.6339C4.87807 15.1457 4.87809 14.3544 5.36621 13.8663C5.85437 13.3781 6.64563 13.3781 7.13379 13.8663L14.75 21.4825V2.25006C14.75 1.55971 15.3096 1.00006 16 1.00006Z"
    fill="currentColor"
  />
</svg>
