<svg width="12" height="12" viewBox="0 0 12 12" fill="none" xmlns="http://www.w3.org/2000/svg" data-fui-icon="true">
  <path
    fill-rule="evenodd"
    clip-rule="evenodd"
    d="M3.28448 1.5C3.19138 1.5 3 1.60537 3 1.88514V10.1149C3 10.3946 3.19138 10.5 3.28448 10.5H8.71552C8.80863 10.5 9 10.3946 9 10.1149V5.18919H7.42241C6.37283 5.18919 5.63793 4.27812 5.63793 3.30405V1.5H3.28448ZM7.13793 2.68643L8.05177 3.68919H7.42241C7.32931 3.68919 7.13793 3.58382 7.13793 3.30405V2.68643ZM10.0013 3.60153C10.3274 3.95927 10.5 4.43073 10.5 4.90936V10.1149C10.5 11.089 9.76509 12 8.71552 12H3.28448C2.23493 12 1.5 11.089 1.5 10.1149V1.88514C1.5 0.91106 2.23492 0 3.28448 0H5.95945C6.45637 0 6.91713 0.217242 7.24525 0.577277L7.24527 0.577293L10.0013 3.60152L10.0013 3.60153ZM6.12122 5.5C6.39736 5.5 6.62122 5.72386 6.62122 6V7.8312L7.42818 7.02424C7.62344 6.82897 7.94002 6.82897 8.13528 7.02424C8.33054 7.2195 8.33054 7.53608 8.13528 7.73134L6.54819 9.31843C6.27971 9.58692 5.84441 9.58692 5.57592 9.31843L4.11105 7.85355C3.91578 7.65829 3.91578 7.34171 4.11105 7.14645C4.30631 6.95118 4.62289 6.95118 4.81815 7.14645L5.62122 7.94951V6C5.62122 5.72386 5.84507 5.5 6.12122 5.5Z"
    fill="currentColor"
  />
</svg>
