<svg width="20" height="20" viewBox="0 0 20 20" fill="none" xmlns="http://www.w3.org/2000/svg" data-fui-icon="true">
  <path
    d="M19.25 18.5C19.6642 18.5 20 18.8358 20 19.25C20 19.6642 19.6642 20 19.25 20H0.75C0.335786 20 0 19.6642 0 19.25C0 18.8358 0.335786 18.5 0.75 18.5H19.25ZM10 0C10.4142 0 10.75 0.335786 10.75 0.75V13.6895L15.7197 8.71973C16.0126 8.42683 16.4874 8.42683 16.7803 8.71973C17.0732 9.01262 17.0732 9.48738 16.7803 9.78027L10.5303 16.0303C10.2374 16.3232 9.76262 16.3232 9.46973 16.0303L3.21973 9.78027C2.92683 9.48738 2.92683 9.01262 3.21973 8.71973C3.51262 8.42683 3.98738 8.42683 4.28027 8.71973L9.25 13.6895V0.75C9.25 0.335786 9.58579 0 10 0Z"
    fill="currentColor"
  />
</svg>
