<svg width="24" height="24" viewBox="0 0 24 24" fill="none" xmlns="http://www.w3.org/2000/svg" data-fui-icon="true">
  <path
    d="M18.25 15.75C18.25 14.7835 19.0335 14 20 14C20.9665 14 21.75 14.7835 21.75 15.75C21.75 16.7165 20.9665 17.5 20 17.5C19.0335 17.5 18.25 16.7165 18.25 15.75ZM18.25 8.25C18.25 7.2835 19.0335 6.5 20 6.5C20.9665 6.5 21.75 7.2835 21.75 8.25C21.75 9.2165 20.9665 10 20 10C19.0335 10 18.25 9.2165 18.25 8.25ZM10.25 15.75C10.25 14.7835 11.0335 14 12 14C12.9665 14 13.75 14.7835 13.75 15.75C13.75 16.7165 12.9665 17.5 12 17.5C11.0335 17.5 10.25 16.7165 10.25 15.75ZM10.25 8.25C10.25 7.2835 11.0335 6.5 12 6.5C12.9665 6.5 13.75 7.2835 13.75 8.25C13.75 9.2165 12.9665 10 12 10C11.0335 10 10.25 9.2165 10.25 8.25ZM2.25 15.75C2.25 14.7835 3.0335 14 4 14C4.9665 14 5.75 14.7835 5.75 15.75C5.75 16.7165 4.9665 17.5 4 17.5C3.0335 17.5 2.25 16.7165 2.25 15.75ZM2.25 8.25C2.25 7.2835 3.0335 6.5 4 6.5C4.9665 6.5 5.75 7.2835 5.75 8.25C5.75 9.2165 4.9665 10 4 10C3.0335 10 2.25 9.2165 2.25 8.25Z"
    fill="currentColor"
  />
</svg>
