<svg width="32" height="32" viewBox="0 0 32 32" fill="none" xmlns="http://www.w3.org/2000/svg" data-fui-icon="true">
  <path
    d="M11 23C12.1046 23 13 23.8954 13 25C13 26.1046 12.1046 27 11 27C9.89543 27 9 26.1046 9 25C9 23.8954 9.89543 23 11 23ZM21 23C22.1046 23 23 23.8954 23 25C23 26.1046 22.1046 27 21 27C19.8954 27 19 26.1046 19 25C19 23.8954 19.8954 23 21 23ZM11 14C12.1046 14 13 14.8954 13 16C13 17.1046 12.1046 18 11 18C9.89543 18 9 17.1046 9 16C9 14.8954 9.89543 14 11 14ZM21 14C22.1046 14 23 14.8954 23 16C23 17.1046 22.1046 18 21 18C19.8954 18 19 17.1046 19 16C19 14.8954 19.8954 14 21 14ZM11 5C12.1046 5 13 5.89543 13 7C13 8.10457 12.1046 9 11 9C9.89543 9 9 8.10457 9 7C9 5.89543 9.89543 5 11 5ZM21 5C22.1046 5 23 5.89543 23 7C23 8.10457 22.1046 9 21 9C19.8954 9 19 8.10457 19 7C19 5.89543 19.8954 5 21 5Z"
    fill="currentColor"
  />
</svg>
