<svg width="24" height="24" viewBox="0 0 24 24" fill="none" xmlns="http://www.w3.org/2000/svg" data-fui-icon="true">
  <path
    d="M8.25 18.25C9.2165 18.25 10 19.0335 10 20C10 20.9665 9.2165 21.75 8.25 21.75C7.2835 21.75 6.5 20.9665 6.5 20C6.5 19.0335 7.2835 18.25 8.25 18.25ZM15.75 18.25C16.7165 18.25 17.5 19.0335 17.5 20C17.5 20.9665 16.7165 21.75 15.75 21.75C14.7835 21.75 14 20.9665 14 20C14 19.0335 14.7835 18.25 15.75 18.25ZM8.25 10.25C9.2165 10.25 10 11.0335 10 12C10 12.9665 9.2165 13.75 8.25 13.75C7.2835 13.75 6.5 12.9665 6.5 12C6.5 11.0335 7.2835 10.25 8.25 10.25ZM15.75 10.25C16.7165 10.25 17.5 11.0335 17.5 12C17.5 12.9665 16.7165 13.75 15.75 13.75C14.7835 13.75 14 12.9665 14 12C14 11.0335 14.7835 10.25 15.75 10.25ZM8.25 2.25C9.2165 2.25 10 3.0335 10 4C10 4.9665 9.2165 5.75 8.25 5.75C7.2835 5.75 6.5 4.9665 6.5 4C6.5 3.0335 7.2835 2.25 8.25 2.25ZM15.75 2.25C16.7165 2.25 17.5 3.0335 17.5 4C17.5 4.9665 16.7165 5.75 15.75 5.75C14.7835 5.75 14 4.9665 14 4C14 3.0335 14.7835 2.25 15.75 2.25Z"
    fill="currentColor"
  />
</svg>
