<svg width="20" height="20" viewBox="0 0 20 20" fill="none" xmlns="http://www.w3.org/2000/svg" data-fui-icon="true">
  <path
    d="M7 14.5C7.82843 14.5 8.5 15.1716 8.5 16C8.5 16.8284 7.82843 17.5 7 17.5C6.17157 17.5 5.5 16.8284 5.5 16C5.5 15.1716 6.17157 14.5 7 14.5ZM13 14.5C13.8284 14.5 14.5 15.1716 14.5 16C14.5 16.8284 13.8284 17.5 13 17.5C12.1716 17.5 11.5 16.8284 11.5 16C11.5 15.1716 12.1716 14.5 13 14.5ZM7 8.5C7.82843 8.5 8.5 9.17157 8.5 10C8.5 10.8284 7.82843 11.5 7 11.5C6.17157 11.5 5.5 10.8284 5.5 10C5.5 9.17157 6.17157 8.5 7 8.5ZM13 8.5C13.8284 8.5 14.5 9.17157 14.5 10C14.5 10.8284 13.8284 11.5 13 11.5C12.1716 11.5 11.5 10.8284 11.5 10C11.5 9.17157 12.1716 8.5 13 8.5ZM7 2.5C7.82843 2.5 8.5 3.17157 8.5 4C8.5 4.82843 7.82843 5.5 7 5.5C6.17157 5.5 5.5 4.82843 5.5 4C5.5 3.17157 6.17157 2.5 7 2.5ZM13 2.5C13.8284 2.5 14.5 3.17157 14.5 4C14.5 4.82843 13.8284 5.5 13 5.5C12.1716 5.5 11.5 4.82843 11.5 4C11.5 3.17157 12.1716 2.5 13 2.5Z"
    fill="currentColor"
  />
</svg>
