<svg width="20" height="20" viewBox="0 0 20 20" fill="none" xmlns="http://www.w3.org/2000/svg" data-fui-icon="true">
  <path
    d="M14.5 13C14.5 12.1716 15.1716 11.5 16 11.5C16.8284 11.5 17.5 12.1716 17.5 13C17.5 13.8284 16.8284 14.5 16 14.5C15.1716 14.5 14.5 13.8284 14.5 13ZM14.5 7C14.5 6.17157 15.1716 5.5 16 5.5C16.8284 5.5 17.5 6.17157 17.5 7C17.5 7.82843 16.8284 8.5 16 8.5C15.1716 8.5 14.5 7.82843 14.5 7ZM8.5 13C8.5 12.1716 9.17157 11.5 10 11.5C10.8284 11.5 11.5 12.1716 11.5 13C11.5 13.8284 10.8284 14.5 10 14.5C9.17157 14.5 8.5 13.8284 8.5 13ZM8.5 7C8.5 6.17157 9.17157 5.5 10 5.5C10.8284 5.5 11.5 6.17157 11.5 7C11.5 7.82843 10.8284 8.5 10 8.5C9.17157 8.5 8.5 7.82843 8.5 7ZM2.5 13C2.5 12.1716 3.17157 11.5 4 11.5C4.82843 11.5 5.5 12.1716 5.5 13C5.5 13.8284 4.82843 14.5 4 14.5C3.17157 14.5 2.5 13.8284 2.5 13ZM2.5 7C2.5 6.17157 3.17157 5.5 4 5.5C4.82843 5.5 5.5 6.17157 5.5 7C5.5 7.82843 4.82843 8.5 4 8.5C3.17157 8.5 2.5 7.82843 2.5 7Z"
    fill="currentColor"
  />
</svg>
