<svg width="32" height="32" viewBox="0 0 32 32" fill="none" xmlns="http://www.w3.org/2000/svg" data-fui-icon="true">
  <path
    d="M12 2.99963C12.5521 2.99975 12.9998 3.44759 13 3.99963C13 4.55185 12.5522 4.99952 12 4.99963H9C6.2387 4.99963 4.0002 7.23838 4 9.99963V22.9996C4 25.7611 6.23858 27.9996 9 27.9996H23C25.7613 27.9995 28 25.761 28 22.9996V19.9996C28.0002 19.4475 28.4478 18.9996 29 18.9996C29.5521 18.9998 29.9998 19.4476 30 19.9996V22.9996C30 26.8656 26.8659 29.9995 23 29.9996H9C5.13401 29.9996 2 26.8656 2 22.9996V9.99963C2.0002 6.13381 5.13413 2.99963 9 2.99963H12ZM24.208 2.74963C25.5381 2.74969 26.8319 3.27692 27.7773 4.22229C28.7227 5.16766 29.2499 6.4615 29.25 7.79163C29.2499 9.13833 28.7157 10.4477 27.7588 11.4049L18.2324 20.9313C17.3886 21.7751 16.2432 22.2496 15.0498 22.2496H11.75C10.6455 22.2496 9.75003 21.3542 9.75 20.2496V16.9489C9.75022 15.7557 10.2246 14.6109 11.0684 13.7672L20.5947 4.24084C21.552 3.28394 22.8613 2.74971 24.208 2.74963ZM12.4824 15.1813C12.0138 15.6499 11.7502 16.2861 11.75 16.9489V20.2496H15.0498C15.7128 20.2496 16.3496 19.986 16.8184 19.5172L23.3457 12.9899L19.0098 8.65393L12.4824 15.1813ZM24.208 4.74963C23.3849 4.74971 22.5862 5.0779 22.0088 5.65491L20.4238 7.23987L24.7598 11.5758L26.3447 9.99084C26.9218 9.41349 27.2499 8.61475 27.25 7.79163C27.2499 6.98508 26.9288 6.20184 26.3633 5.63635C25.7978 5.07088 25.0146 4.74969 24.208 4.74963Z"
    fill="currentColor"
  />
</svg>
