<svg width="20" height="20" viewBox="0 0 20 20" fill="none" xmlns="http://www.w3.org/2000/svg" data-fui-icon="true">
  <path
    fill-rule="evenodd"
    clip-rule="evenodd"
    d="M7 0.999991C7.55225 1.00003 8 1.44773 8 1.99999C7.99998 2.55224 7.55224 2.99995 7 2.99999H6C4.34329 3.00013 3.00004 4.34325 3 5.99999V14C3.00002 15.6568 4.34319 16.9999 6 17H14C15.6568 17 17 15.6568 17 14V13C17 12.4477 17.4477 12 18 12C18.5523 12 19 12.4477 19 13V14C19 16.7614 16.7614 19 14 19H6C3.23862 18.9999 1.00002 16.7614 1 14V5.99999C1.00006 3.2387 3.23874 1.00013 6 0.999991H7ZM13.3633 1.72265C14.7202 0.365857 16.9204 0.365919 18.2773 1.72265C19.6342 3.07963 19.6342 5.27973 18.2773 6.63671L11.543 13.3711C10.9805 13.9336 10.2174 14.2499 9.42188 14.25H7.25C6.4218 14.2498 5.75016 13.5782 5.75 12.75V10.5781C5.75006 9.78262 6.06641 9.01954 6.62891 8.45702L13.3633 1.72265ZM8.04297 9.87109C7.85555 10.0585 7.75006 10.3131 7.75 10.5781V12.25H9.42188C9.68694 12.2499 9.94147 12.1444 10.1289 11.957L14.3457 7.74023L12.2598 5.65429L8.04297 9.87109ZM16.8633 3.13671C16.2873 2.56103 15.3532 2.56097 14.7773 3.13671L13.6738 4.24023L15.7598 6.32616L16.8633 5.22265C17.4391 4.64671 17.4391 3.71265 16.8633 3.13671Z"
    fill="currentColor"
  />
</svg>
