<svg width="24" height="24" viewBox="0 0 24 24" fill="none" xmlns="http://www.w3.org/2000/svg" data-fui-icon="true">
  <path
    d="M9 1.00021C9.55208 1.00045 10 1.44808 10 2.00021C9.99988 2.55225 9.55201 2.99998 9 3.00021H7C4.79086 3.00021 3 4.79107 3 7.00021V17.0002C3.00012 19.2093 4.79093 21.0002 7 21.0002H17C19.2089 21 20.9999 19.2091 21 17.0002V15.0002C21 14.4479 21.4477 14.0002 22 14.0002C22.5521 14.0005 23 14.4481 23 15.0002V17.0002C22.9999 20.3137 20.3134 23 17 23.0002H7C3.68636 23.0002 1.00012 20.3138 1 17.0002V7.00021C1 3.68651 3.68629 1.00021 7 1.00021H9ZM15.9883 2.84787C17.4144 1.4222 19.7264 1.42194 21.1523 2.84787C22.5779 4.27383 22.5779 6.58596 21.1523 8.01193L13.8408 15.3225C13.2474 15.9159 12.4427 16.25 11.6035 16.2502H9.25C8.42167 16.2502 7.75016 15.5785 7.75 14.7502V12.3967C7.75002 11.5573 8.08321 10.752 8.67676 10.1584L15.9883 2.84787ZM10.0908 11.5725C9.87235 11.791 9.75002 12.0877 9.75 12.3967V14.2502H11.6035C11.9122 14.25 12.2084 14.1267 12.4268 13.9084L17.0947 9.23947L14.7588 6.90353L10.0908 11.5725ZM19.7383 4.26193C19.0934 3.61705 18.0474 3.61731 17.4023 4.26193L16.1729 5.48947L18.5088 7.82541L19.7383 6.59787C20.3828 5.95295 20.3828 4.90684 19.7383 4.26193Z"
    fill="currentColor"
  />
</svg>
