<svg width="24" height="24" viewBox="0 0 24 24" fill="none" xmlns="http://www.w3.org/2000/svg" data-fui-icon="true">
  <path
    d="M9 1.00024C9.55208 1.00048 10 1.44811 10 2.00024C9.99988 2.55228 9.55201 3.00001 9 3.00024H7C4.79086 3.00024 3 4.79111 3 7.00024V17.0002C3.00012 19.2093 4.79093 21.0002 7 21.0002H17C19.2089 21 20.9999 19.2091 21 17.0002V15.0002C21 14.448 21.4477 14.0002 22 14.0002C22.5521 14.0005 23 14.4481 23 15.0002V17.0002C22.9999 20.3137 20.3134 23 17 23.0002H7C3.68636 23.0002 1.00012 20.3139 1 17.0002V7.00024C1 3.68654 3.68629 1.00024 7 1.00024H9ZM15.9883 2.8479C17.4144 1.42223 19.7264 1.42197 21.1523 2.8479C22.5779 4.27386 22.5779 6.58599 21.1523 8.01196L13.8408 15.3225C13.2474 15.9159 12.4427 16.25 11.6035 16.2502H9.25C8.42167 16.2502 7.75016 15.5785 7.75 14.7502V12.3967C7.75002 11.5573 8.08321 10.752 8.67676 10.1584L15.9883 2.8479ZM10.0908 11.5725C9.87235 11.791 9.75002 12.0878 9.75 12.3967V14.2502H11.6035C11.9122 14.25 12.2084 14.1267 12.4268 13.9084L17.0947 9.2395L14.7588 6.90356L10.0908 11.5725ZM19.7383 4.26196C19.0934 3.61708 18.0474 3.61734 17.4023 4.26196L16.1729 5.4895L18.5088 7.82544L19.7383 6.5979C20.3828 5.95298 20.3828 4.90687 19.7383 4.26196Z"
    fill="currentColor"
  />
</svg>
