<svg width="32" height="32" viewBox="0 0 32 32" fill="none" xmlns="http://www.w3.org/2000/svg" data-fui-icon="true">
  <path
    d="M12 2.99951C12.5521 2.99963 12.9998 3.44747 13 3.99951C13 4.55172 12.5522 4.9994 12 4.99951H9C6.2387 4.99951 4.0002 7.23826 4 9.99951V22.9995C4 25.7609 6.23858 27.9995 9 27.9995H23C25.7613 27.9994 28 25.7609 28 22.9995V19.9995C28.0002 19.4474 28.4478 18.9995 29 18.9995C29.5521 18.9996 29.9998 19.4475 30 19.9995V22.9995C30 26.8654 26.8659 29.9994 23 29.9995H9C5.13401 29.9995 2 26.8655 2 22.9995V9.99951C2.0002 6.13369 5.13413 2.99951 9 2.99951H12ZM24.208 2.74951C25.5381 2.74957 26.8319 3.2768 27.7773 4.22217C28.7227 5.16754 29.2499 6.46138 29.25 7.7915C29.2499 9.13821 28.7157 10.4475 27.7588 11.4048L18.2324 20.9312C17.3886 21.775 16.2432 22.2495 15.0498 22.2495H11.75C10.6455 22.2495 9.75003 21.3541 9.75 20.2495V16.9487C9.75022 15.7556 10.2246 14.6108 11.0684 13.7671L20.5947 4.24072C21.552 3.28382 22.8613 2.74959 24.208 2.74951ZM12.4824 15.1812C12.0138 15.6498 11.7502 16.286 11.75 16.9487V20.2495H15.0498C15.7128 20.2495 16.3496 19.9859 16.8184 19.5171L23.3457 12.9897L19.0098 8.65381L12.4824 15.1812ZM24.208 4.74951C23.3849 4.74959 22.5862 5.07778 22.0088 5.65479L20.4238 7.23975L24.7598 11.5757L26.3447 9.99072C26.9218 9.41336 27.2499 8.61462 27.25 7.7915C27.2499 6.98496 26.9288 6.20172 26.3633 5.63623C25.7978 5.07076 25.0146 4.74957 24.208 4.74951Z"
    fill="currentColor"
  />
</svg>
