<svg width="12" height="12" viewBox="0 0 12 12" fill="none" xmlns="http://www.w3.org/2000/svg" data-fui-icon="true">
  <path
    d="M4.25 0C4.66421 0 5 0.335786 5 0.75C5 1.16421 4.66421 1.5 4.25 1.5H2.25C1.83579 1.5 1.5 1.83579 1.5 2.25V9.75C1.5 10.1642 1.83579 10.5 2.25 10.5H9.75C10.1642 10.5 10.5 10.1642 10.5 9.75V7.75C10.5 7.33579 10.8358 7 11.25 7C11.6642 7 12 7.33579 12 7.75V9.75C12 10.9926 10.9926 12 9.75 12H2.25C1.00736 12 0 10.9926 0 9.75V2.25C6.44266e-08 1.00736 1.00736 0 2.25 0H4.25ZM8.4375 1C9.07658 1.00001 9.68968 1.25417 10.1416 1.70605L10.2939 1.8584C10.7459 2.31031 11 2.92337 11 3.5625C11 4.20158 10.7458 4.8147 10.2939 5.2666L7.28027 8.28027C7.13962 8.42091 6.9489 8.5 6.75 8.5H4.25C3.83581 8.5 3.50003 8.16419 3.5 7.75V5.25C3.5 5.0511 3.57909 4.86038 3.71973 4.71973L6.7334 1.70605C7.18533 1.25412 7.79837 1 8.4375 1ZM8.4375 2.5C8.1962 2.5 7.96457 2.59597 7.79395 2.7666L5 5.56055V7H6.43945L9.2334 4.20605C9.40399 4.03546 9.49999 3.80376 9.5 3.5625C9.5 3.32122 9.40402 3.08955 9.2334 2.91895L9.08105 2.7666C8.91044 2.596 8.67878 2.50001 8.4375 2.5Z"
    fill="currentColor"
  />
</svg>
