<svg width="32" height="32" viewBox="0 0 32 32" fill="none" xmlns="http://www.w3.org/2000/svg" data-fui-icon="true">
  <path
    fill-rule="evenodd"
    clip-rule="evenodd"
    d="M24.8938 17.0898C25.2028 16.923 25.5864 16.9935 25.8166 17.2588C26.0468 17.5242 26.0618 17.9139 25.8528 18.1963L16.6028 30.6963C16.4613 30.8872 16.2378 31 16.0002 31C15.7626 30.9999 15.5391 30.8872 15.3977 30.6963L6.14768 18.1963C5.9388 17.9139 5.95375 17.5242 6.18381 17.2588C6.41398 16.9935 6.79761 16.9231 7.10666 17.0898L16.0002 21.8965L24.8938 17.0898ZM16.3567 23.4102C16.1343 23.5301 15.8661 23.5302 15.6438 23.4102L9.35666 20.0117L16.0002 28.9893L22.6428 20.0117L16.3567 23.4102ZM16.0002 1C16.2327 1 16.452 1.10798 16.594 1.29199L25.844 13.292C25.9817 13.4706 26.0322 13.7023 25.9807 13.9219C25.929 14.1413 25.781 14.3262 25.5783 14.4248L16.3283 18.9248C16.1213 19.0254 15.8791 19.0255 15.6721 18.9248L6.42209 14.4248L6.34885 14.3838C6.18407 14.2794 6.06493 14.1139 6.01975 13.9219C5.96821 13.7024 6.01884 13.4706 6.15647 13.292L15.4065 1.29199C15.5484 1.10797 15.7678 1.00007 16.0002 1ZM7.90647 13.4785L16.0002 17.416L24.093 13.4785L16.0002 2.97852L7.90647 13.4785Z"
    fill="currentColor"
  />
</svg>
