<svg width="24" height="24" viewBox="0 0 24 24" fill="none" xmlns="http://www.w3.org/2000/svg" data-fui-icon="true">
  <path
    fill-rule="evenodd"
    clip-rule="evenodd"
    d="M18.3976 12.5967C18.7077 12.4316 19.0908 12.5039 19.3195 12.7705C19.5481 13.0375 19.5608 13.4279 19.3498 13.709L12.5998 22.7002C12.4581 22.8889 12.2361 23 12.0001 23C11.7642 23 11.5422 22.8888 11.4005 22.7002L4.65054 13.709C4.4395 13.4279 4.45217 13.0375 4.68081 12.7705C4.90946 12.5039 5.29264 12.4316 5.60268 12.5967L12.0001 16.0049L18.3976 12.5967ZM12.3527 17.5176C12.1324 17.6348 11.8679 17.6348 11.6476 17.5176L7.87612 15.5078L12.0001 21.001L16.1232 15.5078L12.3527 17.5176ZM12.0001 1C12.2308 1.00002 12.4488 1.10643 12.591 1.28809L19.341 9.91895C19.4809 10.0979 19.5323 10.3316 19.4806 10.5527C19.4287 10.7738 19.2791 10.9594 19.0744 11.0576L12.3244 14.2939C12.1193 14.3923 11.8809 14.3923 11.6759 14.2939L4.92593 11.0576C4.72123 10.9594 4.57154 10.7738 4.51968 10.5527C4.46797 10.3316 4.51941 10.0979 4.65932 9.91895L11.4093 1.28809C11.5515 1.10641 11.7695 1.00001 12.0001 1ZM6.41518 10.1094L12.0001 12.7871L17.5841 10.1094L12.0001 2.96777L6.41518 10.1094Z"
    fill="currentColor"
  />
</svg>
