<svg width="24" height="24" viewBox="0 0 24 24" fill="none" xmlns="http://www.w3.org/2000/svg" data-fui-icon="true">
  <path
    d="M8.64844 3.147C10.1223 0.540214 13.8777 0.540216 15.3516 3.147L23.4668 17.5054C24.9173 20.0719 23.0633 23.2495 20.1152 23.2495H3.88477C0.936705 23.2495 -0.91732 20.0719 0.533203 17.5054L8.64844 3.147ZM12 16.9995C11.4479 16.9995 11.0002 17.4475 11 17.9995C11 18.5518 11.4477 18.9995 12 18.9995C12.5523 18.9995 13 18.5518 13 17.9995C12.9998 17.4475 12.5521 16.9995 12 16.9995ZM12 7.74954C11.4479 7.74954 11.0002 8.19747 11 8.74954V14.2495C11 14.8018 11.4477 15.2495 12 15.2495C12.5523 15.2495 13 14.8018 13 14.2495V8.74954C12.9998 8.19747 12.5521 7.74954 12 7.74954Z"
    fill="currentColor"
  />
</svg>
