<svg width="12" height="12" viewBox="0 0 12 12" fill="none" xmlns="http://www.w3.org/2000/svg" data-fui-icon="true">
  <path
    d="M6 0C9.31371 0 12 2.68629 12 6C12 9.31371 9.31371 12 6 12C2.68629 12 0 9.31371 0 6C0 2.68629 2.68629 0 6 0ZM6 7.5C5.44772 7.5 5 7.94772 5 8.5V8.50977C5 9.06205 5.44772 9.50977 6 9.50977C6.55228 9.50977 7 9.06205 7 8.50977V8.5C7 7.94772 6.55228 7.5 6 7.5ZM6 2.5C5.44772 2.5 5 2.94772 5 3.5V5.5C5 6.05228 5.44772 6.5 6 6.5C6.55228 6.5 7 6.05228 7 5.5V3.5C7 2.94772 6.55228 2.5 6 2.5Z"
    fill="currentColor"
  />
</svg>
