<svg width="12" height="12" viewBox="0 0 12 12" fill="none" xmlns="http://www.w3.org/2000/svg" data-fui-icon="true">
  <path
    d="M3.99023 1.69055C4.84776 0.0827303 7.15323 0.0827126 8.01074 1.69055L11.71 8.62805C12.5189 10.1452 11.4195 11.9775 9.7002 11.9777H2.30078C0.581242 11.9777 -0.518181 10.1453 0.291016 8.62805L3.99023 1.69055ZM6.28516 2.61145C6.16385 2.38401 5.83714 2.38402 5.71582 2.61145L2.0166 9.54895C1.9023 9.76355 2.05759 10.0226 2.30078 10.0226H9.7002C9.94313 10.0224 10.0984 9.76343 9.98438 9.54895L6.28516 2.61145ZM6 8.25012C6.41421 8.25012 6.75 8.58591 6.75 9.00012C6.74994 9.41428 6.41418 9.75012 6 9.75012C5.58582 9.75012 5.25006 9.41428 5.25 9.00012C5.25 8.58591 5.58579 8.25012 6 8.25012ZM6 4.25012C6.41421 4.25012 6.75 4.58591 6.75 5.00012V6.75012C6.74993 7.16428 6.41417 7.50012 6 7.50012C5.58592 7.50002 5.25007 7.16421 5.25 6.75012V5.00012C5.25 4.58597 5.58588 4.25023 6 4.25012Z"
    fill="currentColor"
  />
</svg>
