<svg width="16" height="16" viewBox="0 0 16 16" fill="none" xmlns="http://www.w3.org/2000/svg" data-fui-icon="true">
  <path
    d="M8 0.5C12.1421 0.5 15.5 3.85786 15.5 8C15.5 12.1421 12.1421 15.5 8 15.5C3.85786 15.5 0.5 12.1421 0.5 8C0.5 3.85786 3.85786 0.5 8 0.5ZM8 2.5C4.96243 2.5 2.5 4.96243 2.5 8C2.5 11.0376 4.96243 13.5 8 13.5C11.0376 13.5 13.5 11.0376 13.5 8C13.5 4.96243 11.0376 2.5 8 2.5ZM8.00195 10.125C8.62327 10.125 9.12695 10.6287 9.12695 11.25V11.2637C9.12677 11.8848 8.62316 12.3887 8.00195 12.3887C7.38075 12.3887 6.87714 11.8848 6.87695 11.2637V11.25C6.87695 10.6287 7.38063 10.125 8.00195 10.125ZM8.00195 3.5C8.55424 3.5 9.00195 3.94772 9.00195 4.5V8C9.00195 8.55228 8.55424 9 8.00195 9C7.44967 9 7.00195 8.55228 7.00195 8V4.5C7.00195 3.94772 7.44967 3.5 8.00195 3.5Z"
    fill="currentColor"
  />
</svg>
