<svg width="21" height="20" viewBox="0 0 21 20" fill="none" xmlns="http://www.w3.org/2000/svg" data-fui-icon="true">
  <path
    d="M7.77051 1.73816C8.74058 -0.0172125 11.2632 -0.0170288 12.2334 1.73816L19.6826 15.2167C20.6216 16.9162 19.3919 18.9999 17.4502 18.9999H2.55371C0.612301 18.9995 -0.617529 16.916 0.321289 15.2167L7.77051 1.73816ZM10.002 13.4999C9.44992 13.5001 9.00201 13.9478 9.00195 14.4999C9.00195 15.052 9.44989 15.4996 10.002 15.4999C10.5542 15.4999 11.002 15.0522 11.002 14.4999C11.0019 13.9476 10.5542 13.4999 10.002 13.4999ZM10.002 6.49988C9.58799 6.50014 9.25201 6.83587 9.25195 7.24988V11.2499C9.25195 11.6639 9.58796 11.9996 10.002 11.9999C10.4162 11.9999 10.752 11.6641 10.752 11.2499V7.24988C10.7519 6.83571 10.4161 6.49988 10.002 6.49988Z"
    fill="currentColor"
  />
</svg>
