<svg width="24" height="24" viewBox="0 0 24 24" fill="none" xmlns="http://www.w3.org/2000/svg" data-fui-icon="true">
  <path
    d="M8.64844 3.14709C10.1224 0.540322 13.8778 0.540164 15.3516 3.14709L23.4668 17.5055C24.9173 20.0719 23.0631 23.2494 20.1152 23.2496H3.88477C0.936705 23.2496 -0.91732 20.072 0.533203 17.5055L8.64844 3.14709ZM13.6104 4.13147C12.9022 2.87886 11.098 2.87902 10.3896 4.13147L2.27441 18.4889C1.57736 19.7221 2.46815 21.2496 3.88477 21.2496H20.1152C21.5317 21.2494 22.4226 19.7221 21.7256 18.4889L13.6104 4.13147ZM12 16.9996C12.552 16.9998 12.9998 17.4476 13 17.9996C13 18.5518 12.5522 18.9995 12 18.9996C11.4477 18.9996 11 18.5519 11 17.9996C11.0002 17.4475 11.4478 16.9996 12 16.9996ZM12 7.74963C12.552 7.74979 12.9998 8.19762 13 8.74963V14.2496C13 14.8018 12.5522 15.2495 12 15.2496C11.4477 15.2496 11 14.8019 11 14.2496V8.74963C11.0002 8.19753 11.4478 7.74963 12 7.74963Z"
    fill="currentColor"
  />
</svg>
