<svg width="24" height="24" viewBox="0 0 24 24" fill="none" xmlns="http://www.w3.org/2000/svg" data-fui-icon="true">
  <path
    d="M9.20508 2.67017C10.4339 0.49617 13.5661 0.496172 14.7949 2.67017L23.5781 18.2112C24.787 20.3508 23.2417 22.9999 20.7842 23.0002H3.21582C0.758167 23 -0.787124 20.3509 0.421875 18.2112L9.20508 2.67017ZM12 17.0002C11.4477 17.0002 11 17.448 11 18.0002C11.0001 18.5524 11.4478 19.0002 12 19.0002C12.5521 19.0002 12.9999 18.5524 13 18.0002C13 17.448 12.5522 17.0003 12 17.0002ZM12 8.00024C11.5858 8.00024 11.25 8.33603 11.25 8.75024V14.2502C11.2501 14.6643 11.5859 15.0002 12 15.0002C12.4141 15.0002 12.7499 14.6643 12.75 14.2502V8.75024C12.75 8.33607 12.4142 8.0003 12 8.00024Z"
    fill="currentColor"
  />
</svg>
