<svg width="16" height="16" viewBox="0 0 16 16" fill="none" xmlns="http://www.w3.org/2000/svg" data-fui-icon="true">
  <path
    d="M6.07227 2.06735C6.92416 0.574103 9.07686 0.574052 9.92871 2.06735L15.6973 12.1806C16.5409 13.6603 15.4728 15.4995 13.7695 15.5H2.23145C0.527755 15.5 -0.541109 13.6605 0.302734 12.1806L6.07227 2.06735ZM8.62598 2.81052C8.34971 2.32622 7.65131 2.32628 7.375 2.81052L1.60547 12.9238C1.33208 13.4037 1.679 14 2.23145 14H13.7695C14.3215 13.9995 14.6677 13.4035 14.3945 12.9238L8.62598 2.81052ZM8 11C8.55218 11.0001 8.99998 11.4478 9 12C9 12.5522 8.55219 12.9999 8 13C7.44772 13 7 12.5523 7 12C7.00002 11.4477 7.44773 11 8 11ZM8 4.99997C8.41411 5.00008 8.74998 5.33584 8.75 5.74997V8.99997C8.75 9.41411 8.41412 9.74986 8 9.74997C7.58579 9.74997 7.25 9.41418 7.25 8.99997V5.74997C7.25002 5.33577 7.5858 4.99997 8 4.99997Z"
    fill="currentColor"
  />
</svg>
