<svg width="32" height="32" viewBox="0 0 32 32" fill="none" xmlns="http://www.w3.org/2000/svg" data-fui-icon="true">
  <path
    fill-rule="evenodd"
    clip-rule="evenodd"
    d="M12.4692 3.85261C14.0408 1.13848 17.9603 1.13931 19.5317 3.85359L30.6889 23.126C32.2636 25.8459 30.3014 29.2499 27.1587 29.2501H4.84227C1.69956 29.2498 -0.26257 25.8459 1.31199 23.126L12.4692 3.85261ZM17.8003 4.85554C16.9991 3.47175 15.0018 3.47175 14.2007 4.85554L3.04246 24.128C2.23991 25.5145 3.24026 27.2498 4.84227 27.2501H27.1587C28.7607 27.2499 29.7611 25.5146 28.9585 24.128L17.8003 4.85554ZM16.0005 22.0001C16.6908 22.0001 17.2505 22.5597 17.2505 23.2501C17.2504 23.9404 16.6908 24.5001 16.0005 24.5001C15.3101 24.5001 14.7505 23.9404 14.7505 23.2501C14.7505 22.5597 15.3101 22.0001 16.0005 22.0001ZM16.0005 9.75007C16.5528 9.75007 17.0005 10.1978 17.0005 10.7501V19.2501C17.0004 19.8023 16.5527 20.2501 16.0005 20.2501C15.4482 20.25 15.0005 19.8023 15.0005 19.2501V10.7501C15.0005 10.1978 15.4482 9.7501 16.0005 9.75007Z"
    fill="currentColor"
  />
</svg>
