<svg
  width="16"
  height="16"
  viewBox="0 0 16 16"
  fill="none"
  xmlns="http://www.w3.org/2000/svg"
  data-fui-icon="true"
>
  <path
    fill-rule="evenodd"
    clip-rule="evenodd"
    d="M7.99999 4.99999C8.4142 4.99999 8.74999 5.33577 8.74999 5.74999V8.99998C8.74999 9.4142 8.4142 9.74998 7.99999 9.74998C7.58578 9.74998 7.24999 9.4142 7.24999 8.99998V5.74999C7.24999 5.33577 7.58578 4.99999 7.99999 4.99999Z"
    fill="currentColor"
  />
  <path
    d="M8.99999 12C8.99999 12.5523 8.55227 13 7.99999 13C7.44771 13 6.99999 12.5523 6.99999 12C6.99999 11.4477 7.44771 11 7.99999 11C8.55227 11 8.99999 11.4477 8.99999 12Z"
    fill="currentColor"
  />
  <path
    fill-rule="evenodd"
    clip-rule="evenodd"
    d="M7.99999 2.5C7.80549 2.5 7.62591 2.60426 7.52948 2.77318L1.56922 13.2133C1.52388 13.2927 1.50003 13.3826 1.50003 13.4741C1.50003 13.7645 1.73549 14 2.02594 14H13.9741C14.2645 14 14.5 13.7645 14.5 13.4741C14.5 13.3826 14.4762 13.2927 14.4308 13.2133L8.47051 2.77318C8.37407 2.60426 8.1945 2.5 7.99999 2.5ZM6.22682 2.02949C6.59024 1.39292 7.26699 1.00001 7.99999 1.00001C8.73299 1.00001 9.40975 1.39292 9.77316 2.02949L15.7335 12.4696C15.9081 12.7756 16 13.1218 16 13.4741C16 14.5929 15.093 15.5 13.9741 15.5H2.02594C0.907062 15.5 3.05175e-05 14.5929 3.05175e-05 13.4741C3.05175e-05 13.1218 0.0918949 12.7756 0.266557 12.4696L6.22682 2.02949Z"
    fill="currentColor"
  />
</svg>
