<svg width="20" height="20" viewBox="0 0 20 20" fill="none" xmlns="http://www.w3.org/2000/svg" data-fui-icon="true">
  <path
    d="M10 0.5C15.2467 0.5 19.5 4.75329 19.5 10C19.5 15.2467 15.2467 19.5 10 19.5C4.75329 19.5 0.5 15.2467 0.5 10C0.5 4.75329 4.75329 0.5 10 0.5ZM10 2C5.58172 2 2 5.58172 2 10C2 14.4183 5.58172 18 10 18C14.4183 18 18 14.4183 18 10C18 5.58172 14.4183 2 10 2ZM9.99902 13C10.5513 13 10.999 13.4477 10.999 14V14.0166C10.999 14.5689 10.5513 15.0166 9.99902 15.0166C9.44674 15.0166 8.99902 14.5689 8.99902 14.0166V14C8.99902 13.4477 9.44674 13 9.99902 13ZM9.99902 4.5C10.4132 4.5 10.749 4.83579 10.749 5.25V10.25C10.749 10.6642 10.4132 11 9.99902 11C9.58481 11 9.24902 10.6642 9.24902 10.25V5.25C9.24902 4.83579 9.58481 4.5 9.99902 4.5Z"
    fill="currentColor"
  />
</svg>
