<svg width="32" height="32" viewBox="0 0 32 32" fill="none" xmlns="http://www.w3.org/2000/svg" data-fui-icon="true">
  <path
    fill-rule="evenodd"
    clip-rule="evenodd"
    d="M12.6861 3.97861C14.1613 1.43066 17.8399 1.4306 19.315 3.97861L30.4732 23.2511C31.951 25.8041 30.1086 28.9996 27.1588 29.0001H4.84238C1.8922 28.9999 0.049798 25.8043 1.52793 23.2511L12.6861 3.97861ZM16.0006 22.0001C15.4483 22.0001 15.0006 22.4478 15.0006 23.0001C15.0006 23.5523 15.4483 24.0001 16.0006 24.0001C16.5527 23.9999 17.0005 23.5522 17.0006 23.0001C17.0006 22.4479 16.5527 22.0003 16.0006 22.0001ZM16.0006 10.0001C15.5864 10.0001 15.2506 10.3359 15.2506 10.7501V19.2501C15.2507 19.6642 15.5864 20.0001 16.0006 20.0001C16.4146 19.9999 16.7505 19.6641 16.7506 19.2501V10.7501C16.7506 10.336 16.4146 10.0003 16.0006 10.0001Z"
    fill="currentColor"
  />
</svg>
