<svg width="32" height="32" viewBox="0 0 32 32" fill="none" xmlns="http://www.w3.org/2000/svg" data-fui-icon="true">
  <path
    d="M16 1C24.2837 1.0004 30.999 7.71623 30.999 16C30.9986 24.2834 24.2834 30.9986 16 30.999C7.71623 30.999 1.00039 24.2837 1 16C1 7.71599 7.71599 1 16 1ZM16 2.5C8.54442 2.5 2.5 8.54442 2.5 16C2.50039 23.4553 8.54465 29.499 16 29.499C23.455 29.4986 29.4986 23.455 29.499 16C29.499 8.54466 23.4552 2.5004 16 2.5ZM15.999 21.208C16.6203 21.208 17.1239 21.7118 17.124 22.333V22.3584C17.1238 22.9795 16.6202 23.4834 15.999 23.4834C15.3779 23.4833 14.8742 22.9795 14.874 22.3584V22.333C14.8742 21.7119 15.3779 21.2081 15.999 21.208ZM15.999 7.64941C16.4132 7.64941 16.749 7.9852 16.749 8.39941V17.583C16.749 17.9972 16.4132 18.333 15.999 18.333C15.5849 18.3329 15.249 17.9971 15.249 17.583V8.39941C15.249 7.98528 15.5849 7.64955 15.999 7.64941Z"
    fill="currentColor"
  />
</svg>
