<svg width="24" height="24" viewBox="0 0 24 24" fill="none" xmlns="http://www.w3.org/2000/svg" data-fui-icon="true">
  <path
    d="M12 0.5C18.3513 0.5 23.5 5.64873 23.5 12C23.5 18.3513 18.3513 23.5 12 23.5C5.64873 23.5 0.5 18.3513 0.5 12C0.5 5.64873 5.64873 0.5 12 0.5ZM12 2C6.47715 2 2 6.47715 2 12C2 17.5228 6.47715 22 12 22C17.5228 22 22 17.5228 22 12C22 6.47715 17.5228 2 12 2ZM12 15.875C12.6213 15.875 13.125 16.3787 13.125 17V17.0195C13.125 17.6409 12.6213 18.1445 12 18.1445C11.4174 18.1445 10.9384 17.7022 10.8809 17.1348L10.875 17.0195V17C10.875 16.3787 11.3787 15.875 12 15.875ZM12 5.25C12.4142 5.25 12.75 5.58579 12.75 6V13.25C12.75 13.6642 12.4142 14 12 14C11.5858 14 11.25 13.6642 11.25 13.25V6C11.25 5.58579 11.5858 5.25 12 5.25Z"
    fill="currentColor"
  />
</svg>
