<svg width="21" height="20" viewBox="0 0 21 20" fill="none" xmlns="http://www.w3.org/2000/svg" data-fui-icon="true">
  <path
    fill-rule="evenodd"
    clip-rule="evenodd"
    d="M7.77072 1.73844C8.74083 -0.0170016 11.2635 -0.0169587 12.2336 1.73844L19.6828 15.217C20.6219 16.9165 19.3921 19.0002 17.4504 19.0002H2.55392C0.612402 19 -0.617318 16.9164 0.321499 15.217L7.77072 1.73844ZM10.9211 2.46403C10.5216 1.74126 9.48267 1.74121 9.08322 2.46403L1.634 15.9425C1.24787 16.6422 1.75472 17.5 2.55392 17.5002H17.4504C18.2498 17.5002 18.7567 16.6423 18.3703 15.9425L10.9211 2.46403ZM10.0022 13.5002C10.5544 13.5002 11.0022 13.9479 11.0022 14.5002C11.0021 15.0524 10.5544 15.5002 10.0022 15.5002C9.45002 15.5 9.00219 15.0523 9.00216 14.5002C9.00216 13.948 9.45 13.5003 10.0022 13.5002ZM10.0022 6.50016C10.4164 6.50016 10.7522 6.83595 10.7522 7.25016V11.2502C10.7521 11.6643 10.4164 12.0002 10.0022 12.0002C9.58809 12 9.25219 11.6643 9.25216 11.2502V7.25016C9.25216 6.83604 9.58807 6.50031 10.0022 6.50016Z"
    fill="currentColor"
  />
</svg>
