<svg width="12" height="12" viewBox="0 0 12 12" fill="none" xmlns="http://www.w3.org/2000/svg" data-fui-icon="true">
  <path
    d="M3.98983 1.6905C4.84735 0.0826609 7.15282 0.0826558 8.01034 1.6905L11.7096 8.628C12.5187 10.1452 11.4193 11.9776 9.69979 11.9776H2.30038C0.580886 11.9776 -0.51849 10.1452 0.290612 8.628L3.98983 1.6905ZM5.9996 8.25007C5.58546 8.25008 5.24971 8.58596 5.2496 9.00007C5.24976 9.41414 5.5855 9.75006 5.9996 9.75007C6.41371 9.75007 6.74943 9.41414 6.7496 9.00007C6.74949 8.58595 6.41374 8.25007 5.9996 8.25007ZM5.9996 4.25007C5.58552 4.25015 5.24971 4.586 5.2496 5.00007V6.75007C5.24976 7.1641 5.58555 7.49999 5.9996 7.50007C6.41371 7.50007 6.74943 7.16415 6.7496 6.75007V5.00007C6.74949 4.58595 6.41374 4.25007 5.9996 4.25007Z"
    fill="currentColor"
  />
</svg>
