<svg width="21" height="20" viewBox="0 0 21 20" fill="none" xmlns="http://www.w3.org/2000/svg" data-fui-icon="true">
  <path
    fill-rule="evenodd"
    clip-rule="evenodd"
    d="M7.7707 1.73833C8.74078 -0.0170368 11.2634 -0.0168531 12.2336 1.73833L19.6828 15.2169C20.6218 16.9164 19.3921 19.0001 17.4504 19.0001H2.55391C0.612497 18.9997 -0.617332 16.9162 0.321485 15.2169L7.7707 1.73833ZM10.0021 13.5001C9.45012 13.5003 9.0022 13.948 9.00215 14.5001C9.00215 15.0522 9.45009 15.4998 10.0021 15.5001C10.5544 15.5001 11.0021 15.0523 11.0021 14.5001C11.0021 13.9478 10.5544 13.5001 10.0021 13.5001ZM10.0021 6.50005C9.58819 6.50031 9.2522 6.83605 9.25215 7.25005V11.2501C9.25215 11.6641 9.58816 11.9998 10.0021 12.0001C10.4164 12.0001 10.7521 11.6643 10.7521 11.2501V7.25005C10.7521 6.83589 10.4163 6.50005 10.0021 6.50005Z"
    fill="currentColor"
  />
</svg>
