<svg width="17" height="17" viewBox="0 0 17 17" fill="none" xmlns="http://www.w3.org/2000/svg" data-fui-icon="true">
  <path
    d="M8.50052 0C13.1948 0.000294574 17 3.80615 17 8.50052C16.9997 13.1946 13.1946 16.9997 8.50052 17C3.80616 17 0.000301828 13.1948 0 8.50052C0 3.80597 3.80597 0 8.50052 0ZM8.50052 1.59346C4.68601 1.59346 1.59346 4.68601 1.59346 8.50052C1.59376 12.3148 4.6862 15.4065 8.50052 15.4065C12.3146 15.4062 15.4062 12.3146 15.4065 8.50052C15.4065 4.68619 12.3148 1.59375 8.50052 1.59346ZM8.50052 10.6231C9.08698 10.6233 9.56282 11.0988 9.56282 11.6854V11.6999L9.55764 11.8078C9.50343 12.3435 9.05045 12.7619 8.50052 12.7622C7.95038 12.7622 7.49764 12.3436 7.4434 11.8078L7.43821 11.6999V11.6854C7.43821 11.0987 7.91382 10.6231 8.50052 10.6231ZM8.50052 3.98365C8.94029 3.98393 9.29722 4.34055 9.29725 4.78037V8.49844C9.29725 8.93829 8.9403 9.29489 8.50052 9.29517C8.0605 9.29517 7.70379 8.93846 7.70379 8.49844V4.78037C7.70382 4.34038 8.06051 3.98365 8.50052 3.98365Z"
    fill="currentColor"
  />
</svg>
