<svg width="12" height="12" viewBox="0 0 12 12" fill="none" xmlns="http://www.w3.org/2000/svg" data-fui-icon="true">
  <path
    fill-rule="evenodd"
    clip-rule="evenodd"
    d="M3.98988 1.69049C4.8474 0.0826704 7.15287 0.0826527 8.01038 1.69049L11.7096 8.62799C12.5185 10.1451 11.4191 11.9774 9.69984 11.9776H2.30042C0.580883 11.9776 -0.51854 10.1452 0.290656 8.62799L3.98988 1.69049ZM6.2848 2.61139C6.16349 2.38395 5.83678 2.38396 5.71546 2.61139L2.01624 9.54889C1.90194 9.76349 2.05723 10.0225 2.30042 10.0225H9.69984C9.94277 10.0223 10.098 9.76337 9.98402 9.54889L6.2848 2.61139ZM5.99964 8.25006C6.41385 8.25006 6.74964 8.58585 6.74964 9.00006C6.74958 9.41422 6.41382 9.75006 5.99964 9.75006C5.58546 9.75006 5.2497 9.41422 5.24964 9.00006C5.24964 8.58585 5.58543 8.25006 5.99964 8.25006ZM5.99964 4.25006C6.41385 4.25006 6.74964 4.58585 6.74964 5.00006V6.75006C6.74957 7.16422 6.41381 7.50006 5.99964 7.50006C5.58556 7.49996 5.24971 7.16415 5.24964 6.75006V5.00006C5.24964 4.58591 5.58552 4.25017 5.99964 4.25006Z"
    fill="currentColor"
  />
</svg>
