<svg width="24" height="24" viewBox="0 0 24 24" fill="none" xmlns="http://www.w3.org/2000/svg" data-fui-icon="true">
  <path
    fill-rule="evenodd"
    clip-rule="evenodd"
    d="M8.64846 3.14703C10.1224 0.54026 13.8778 0.540102 15.3516 3.14703L23.4668 17.5054C24.9173 20.0718 23.0632 23.2494 20.1153 23.2496H3.88479C0.936726 23.2496 -0.917299 20.0719 0.533225 17.5054L8.64846 3.14703ZM13.6104 4.13141C12.9022 2.8788 11.098 2.87896 10.3897 4.13141L2.27444 18.4888C1.57738 19.7221 2.46817 21.2496 3.88479 21.2496H20.1153C21.5317 21.2494 22.4226 19.722 21.7256 18.4888L13.6104 4.13141ZM12 16.9996C12.552 16.9997 12.9998 17.4476 13 17.9996C13 18.5518 12.5522 18.9994 12 18.9996C11.4477 18.9996 11 18.5519 11 17.9996C11.0002 17.4475 11.4479 16.9996 12 16.9996ZM12 7.74957C12.552 7.74972 12.9998 8.19756 13 8.74957V14.2496C13 14.8018 12.5522 15.2494 12 15.2496C11.4477 15.2496 11 14.8019 11 14.2496V8.74957C11.0002 8.19747 11.4479 7.74957 12 7.74957Z"
    fill="currentColor"
  />
</svg>
