<svg width="32" height="32" viewBox="0 0 32 32" fill="none" xmlns="http://www.w3.org/2000/svg" data-fui-icon="true">
  <path
    d="M16 0.5C24.5604 0.5 31.5 7.43959 31.5 16C31.5 24.5604 24.5604 31.5 16 31.5C7.43959 31.5 0.5 24.5604 0.5 16C0.5 7.43959 7.43959 0.5 16 0.5ZM16 2.5C8.54416 2.5 2.5 8.54416 2.5 16C2.5 23.4558 8.54416 29.5 16 29.5C23.4558 29.5 29.5 23.4558 29.5 16C29.5 8.54416 23.4558 2.5 16 2.5ZM15.999 21.125C16.7584 21.125 17.374 21.7406 17.374 22.5V22.5254C17.3738 23.2846 16.7583 23.9004 15.999 23.9004C15.2398 23.9004 14.6242 23.2846 14.624 22.5254V22.5C14.624 21.7406 15.2396 21.125 15.999 21.125ZM15.999 7.39941C16.5513 7.39941 16.999 7.84713 16.999 8.39941V17.583C16.999 18.1353 16.5513 18.583 15.999 18.583C15.4467 18.583 14.999 18.1353 14.999 17.583V8.39941C14.999 7.84713 15.4467 7.39941 15.999 7.39941Z"
    fill="currentColor"
  />
</svg>
