<svg width="20" height="20" viewBox="0 0 20 20" fill="none" xmlns="http://www.w3.org/2000/svg" data-fui-icon="true">
  <path
    fill-rule="evenodd"
    clip-rule="evenodd"
    d="M7.1986 2.25094C8.41596 0.0480973 11.5826 0.0482805 12.8002 2.25094L19.5707 14.5019C20.7493 16.6347 19.2067 19.25 16.7699 19.25H3.22887C0.792418 19.2496 -0.750339 16.6345 0.428092 14.5019L7.1986 2.25094ZM11.0492 3.21774C10.5925 2.3924 9.40614 2.39221 8.94958 3.21774L2.17809 15.4697C1.73659 16.2693 2.31551 17.2496 3.22887 17.25H16.7699C17.6836 17.25 18.2624 16.2694 17.8207 15.4697L11.0492 3.21774ZM9.99938 13.5C10.5516 13.5 10.9993 13.9477 10.9994 14.5C10.9994 15.0522 10.5517 15.5 9.99938 15.5C9.44732 15.4997 8.99938 15.0521 8.99938 14.5C8.99944 13.9479 9.44735 13.5002 9.99938 13.5ZM9.99938 6.24996C10.5516 6.24996 10.9993 6.69773 10.9994 7.24996V11.25C10.9994 11.8022 10.5517 12.25 9.99938 12.25C9.44732 12.2497 8.99938 11.8021 8.99938 11.25V7.24996C8.99944 6.69789 9.44735 6.25022 9.99938 6.24996Z"
    fill="currentColor"
  />
</svg>
