<svg width="32" height="32" viewBox="0 0 32 32" fill="none" xmlns="http://www.w3.org/2000/svg" data-fui-icon="true">
  <path
    d="M12.6855 3.97809C14.1607 1.43037 17.8391 1.43063 19.3145 3.97809L30.4727 23.2505C31.9508 25.8038 30.1084 28.9994 27.1582 28.9996H4.8418C1.89189 28.999 0.0492915 25.8036 1.52734 23.2505L12.6855 3.97809ZM18.0166 4.72906C17.1189 3.17979 14.8808 3.17953 13.9834 4.72906L2.8252 24.0025C1.92654 25.5555 3.04755 27.499 4.8418 27.4996H27.1582C28.9527 27.4994 30.0735 25.5557 29.1748 24.0025L18.0166 4.72906ZM16 21.9996C16.5521 21.9996 16.9998 22.4475 17 22.9996C17 23.5519 16.5523 23.9996 16 23.9996C15.4479 23.9993 15 23.5517 15 22.9996C15.0002 22.4477 15.4481 21.9998 16 21.9996ZM16 9.99957C16.4141 9.99957 16.7498 10.3356 16.75 10.7496V19.2496C16.75 19.6638 16.4142 19.9996 16 19.9996C15.586 19.9993 15.25 19.6636 15.25 19.2496V10.7496C15.2502 10.3357 15.5861 9.99981 16 9.99957Z"
    fill="currentColor"
  />
</svg>
