<svg width="16" height="16" viewBox="0 0 16 16" fill="none" xmlns="http://www.w3.org/2000/svg" data-fui-icon="true">
  <path
    d="M8 0.5C12.1421 0.5 15.5 3.85786 15.5 8C15.5 12.1421 12.1421 15.5 8 15.5C3.85786 15.5 0.5 12.1421 0.5 8C0.5 3.85786 3.85786 0.5 8 0.5ZM8.00195 10C7.44967 10 7.00195 10.4477 7.00195 11V11.0137C7.00214 11.5658 7.44978 12.0137 8.00195 12.0137C8.55412 12.0137 9.00177 11.5658 9.00195 11.0137V11C9.00195 10.4477 8.55424 10 8.00195 10ZM8.00195 3.75C7.58774 3.75 7.25195 4.08579 7.25195 4.5V8C7.25195 8.41421 7.58774 8.75 8.00195 8.75C8.41617 8.75 8.75195 8.41421 8.75195 8V4.5C8.75195 4.08579 8.41617 3.75 8.00195 3.75Z"
    fill="currentColor"
  />
</svg>
