<svg width="24" height="24" viewBox="0 0 24 24" fill="none" xmlns="http://www.w3.org/2000/svg" data-fui-icon="true">
  <path
    fill-rule="evenodd"
    clip-rule="evenodd"
    d="M12 6C12.4142 6 12.75 6.33579 12.75 6.75V12.25C12.75 12.6642 12.4142 13 12 13C11.5858 13 11.25 12.6642 11.25 12.25V6.75C11.25 6.33579 11.5858 6 12 6Z"
    fill="currentColor"
  />
  <path
    d="M13 16C13 16.5523 12.5523 17 12 17C11.4477 17 11 16.5523 11 16C11 15.4477 11.4477 15 12 15C12.5523 15 13 15.4477 13 16Z"
    fill="currentColor"
  />
  <path
    fill-rule="evenodd"
    clip-rule="evenodd"
    d="M12 2.5C6.75329 2.5 2.5 6.75329 2.5 12C2.5 17.2467 6.75329 21.5 12 21.5C17.2467 21.5 21.5 17.2467 21.5 12C21.5 6.75329 17.2467 2.5 12 2.5ZM1 12C1 5.92487 5.92487 1 12 1C18.0751 1 23 5.92487 23 12C23 18.0751 18.0751 23 12 23C5.92487 23 1 18.0751 1 12Z"
    fill="currentColor"
  />
</svg>
