<svg width="20" height="20" viewBox="0 0 20 20" fill="none" xmlns="http://www.w3.org/2000/svg" data-fui-icon="true">
  <path
    d="M7.19922 2.25089C8.41658 0.0480413 11.5833 0.0482245 12.8008 2.25089L19.5713 14.5019C20.7499 16.6346 19.2073 19.2499 16.7705 19.2499H3.22949C0.793037 19.2496 -0.74972 16.6345 0.428711 14.5019L7.19922 2.25089ZM11.0498 3.21768C10.5931 2.39235 9.40676 2.39216 8.9502 3.21768L2.17871 15.4696C1.73721 16.2692 2.31613 17.2496 3.22949 17.2499H16.7705C17.6842 17.2499 18.263 16.2694 17.8213 15.4696L11.0498 3.21768ZM10 13.4999C10.5523 13.4999 10.9999 13.9477 11 14.4999C11 15.0522 10.5523 15.4999 10 15.4999C9.44794 15.4996 9 15.052 9 14.4999C9.00005 13.9478 9.44797 13.5002 10 13.4999ZM10 6.24991C10.5523 6.24991 10.9999 6.69767 11 7.24991V11.2499C11 11.8022 10.5523 12.2499 10 12.2499C9.44794 12.2496 9 11.802 9 11.2499V7.24991C9.00005 6.69783 9.44797 6.25017 10 6.24991Z"
    fill="currentColor"
  />
</svg>
