<svg width="32" height="32" viewBox="0 0 32 32" fill="none" xmlns="http://www.w3.org/2000/svg" data-fui-icon="true">
  <path
    fill-rule="evenodd"
    clip-rule="evenodd"
    d="M12.6851 3.97807C14.1602 1.43035 17.8386 1.43062 19.314 3.97807L30.4722 23.2505C31.9503 25.8038 30.1079 28.9993 27.1577 28.9996H4.84133C1.89143 28.999 0.0488303 25.8036 1.52688 23.2505L12.6851 3.97807ZM18.0161 4.72905C17.1185 3.17978 14.8804 3.17951 13.9829 4.72905L2.82473 24.0025C1.92607 25.5555 3.04709 27.499 4.84133 27.4996H27.1577C28.9523 27.4993 30.0731 25.5557 29.1743 24.0025L18.0161 4.72905ZM15.9995 21.9996C16.5517 21.9996 16.9993 22.4475 16.9995 22.9996C16.9995 23.5518 16.5518 23.9996 15.9995 23.9996C15.4475 23.9993 14.9995 23.5517 14.9995 22.9996C14.9998 22.4476 15.4476 21.9998 15.9995 21.9996ZM15.9995 9.99956C16.4136 9.99956 16.7493 10.3355 16.7495 10.7496V19.2496C16.7495 19.6638 16.4138 19.9996 15.9995 19.9996C15.5855 19.9993 15.2495 19.6636 15.2495 19.2496V10.7496C15.2498 10.3357 15.5857 9.9998 15.9995 9.99956Z"
    fill="currentColor"
  />
</svg>
