<svg width="16" height="16" viewBox="0 0 16 16" fill="none" xmlns="http://www.w3.org/2000/svg" data-fui-icon="true">
  <path
    fill-rule="evenodd"
    clip-rule="evenodd"
    d="M5.74193 2.13403C6.74021 0.388017 9.25941 0.387861 10.2576 2.13403L15.4997 11.3098C16.49 13.043 15.2389 15.1991 13.2429 15.1995H2.75658C0.760415 15.1993 -0.490593 13.043 0.499739 11.3098L5.74193 2.13403ZM8.00072 10.5002C7.44843 10.5002 7.00072 10.948 7.00072 11.5002C7.00088 12.0524 7.44853 12.5002 8.00072 12.5002C8.55278 12.5001 9.00055 12.0523 9.00072 11.5002C9.00071 10.9481 8.55288 10.5004 8.00072 10.5002ZM8.00072 5.00025C7.5865 5.00025 7.25072 5.33603 7.25072 5.75025V9.00025C7.2509 9.41431 7.58661 9.75025 8.00072 9.75025C8.4147 9.7501 8.75054 9.41422 8.75072 9.00025V5.75025C8.75071 5.33612 8.41481 5.00039 8.00072 5.00025Z"
    fill="currentColor"
  />
</svg>
