<svg width="16" height="16" viewBox="0 0 16 16" fill="none" xmlns="http://www.w3.org/2000/svg" data-fui-icon="true">
  <path
    d="M5.79297 8.79297C6.18349 8.40244 6.81651 8.40244 7.20703 8.79297C7.59756 9.18349 7.59756 9.81651 7.20703 10.207L4.41406 13H6.5C7.05228 13 7.5 13.4477 7.5 14C7.5 14.5523 7.05228 15 6.5 15H2C1.44772 15 1 14.5523 1 14V9.5C1 8.94772 1.44772 8.5 2 8.5C2.55228 8.5 3 8.94772 3 9.5V11.5859L5.79297 8.79297ZM14 1C14.5523 1 15 1.44772 15 2V6.5C15 7.05228 14.5523 7.5 14 7.5C13.4477 7.5 13 7.05228 13 6.5V4.41406L10.207 7.20703C9.81651 7.59756 9.18349 7.59756 8.79297 7.20703C8.40244 6.81651 8.40244 6.18349 8.79297 5.79297L11.5859 3H9.5C8.94772 3 8.5 2.55228 8.5 2C8.5 1.44772 8.94772 1 9.5 1H14Z"
    fill="currentColor"
  />
</svg>
