<svg width="16" height="16" viewBox="0 0 16 16" fill="none" xmlns="http://www.w3.org/2000/svg" data-fui-icon="true">
  <path
    d="M8.96973 8.96973C9.26263 8.67701 9.73744 8.6769 10.0303 8.96973L13.2451 12.1836V9.8584C13.2451 9.44419 13.5809 9.1084 13.9951 9.1084C14.4091 9.10869 14.7451 9.44437 14.7451 9.8584V13.9941C14.7451 14.4082 14.4091 14.7438 13.9951 14.7441L9.85742 14.7451C9.44367 14.7448 9.10874 14.4089 9.1084 13.9951C9.10845 13.581 9.44429 13.2442 9.8584 13.2441H12.1846L8.96973 10.0303C8.6769 9.73743 8.677 9.26263 8.96973 8.96973ZM6.14258 1.25488C6.55633 1.25517 6.89126 1.59114 6.8916 2.00488C6.89155 2.419 6.55571 2.75577 6.1416 2.75586H3.81543L7.03027 5.96973C7.3231 6.26257 7.323 6.73737 7.03027 7.03027C6.73737 7.32299 6.26256 7.3231 5.96973 7.03027L2.75488 3.81641V6.1416C2.75488 6.55582 2.4191 6.8916 2.00488 6.8916C1.59092 6.89131 1.25488 6.55563 1.25488 6.1416V2.00586C1.25488 1.59183 1.59092 1.25615 2.00488 1.25586L6.14258 1.25488Z"
    fill="currentColor"
  />
</svg>
