<svg width="32" height="32" viewBox="0 0 32 32" fill="none" xmlns="http://www.w3.org/2000/svg" data-fui-icon="true">
  <path
    d="M12.4697 18.4697C12.7626 18.1768 13.2374 18.1768 13.5303 18.4697C13.8231 18.7626 13.8232 19.2374 13.5303 19.5303L3.56055 29.5H11.75C12.1642 29.5 12.5 29.8358 12.5 30.25C12.5 30.6642 12.1642 31 11.75 31H1.75C1.33581 31 1.00003 30.6642 1 30.25V20.25C1 19.8358 1.33579 19.5 1.75 19.5C2.16421 19.5 2.5 19.8358 2.5 20.25V28.4395L12.4697 18.4697ZM30.25 1C30.6642 1 31 1.33579 31 1.75V11.75C31 12.1642 30.6642 12.5 30.25 12.5C29.8358 12.5 29.5 12.1642 29.5 11.75V3.56055L19.5303 13.5303C19.2374 13.8231 18.7626 13.8231 18.4697 13.5303C18.1768 13.2374 18.1769 12.7626 18.4697 12.4697L28.4395 2.5H20.25C19.8358 2.5 19.5 2.16419 19.5 1.75C19.5 1.33579 19.8358 1 20.25 1H30.25Z"
    fill="currentColor"
  />
</svg>
