<svg width="12" height="12" viewBox="0 0 12 12" fill="none" xmlns="http://www.w3.org/2000/svg" data-fui-icon="true">
  <path
    d="M6.71973 6.71973C7.01262 6.42687 7.48739 6.42685 7.78027 6.71973L10.2451 9.18457V7.54785C10.2454 7.13396 10.5812 6.79903 10.9951 6.79883C11.4092 6.79883 11.7449 7.13384 11.7451 7.54785V10.9951C11.7451 11.4093 11.4093 11.7451 10.9951 11.7451H7.54785C7.13386 11.7449 6.79883 11.4092 6.79883 10.9951C6.79903 10.5812 7.13399 10.2454 7.54785 10.2451H9.18457L6.71973 7.78027C6.42685 7.48739 6.42686 7.01262 6.71973 6.71973ZM4.45215 0.254883C4.86614 0.255145 5.20117 0.590832 5.20117 1.00488C5.20097 1.41876 4.86601 1.75462 4.45215 1.75488H2.81543L5.28027 4.21973C5.57315 4.51261 5.57314 4.98738 5.28027 5.28027C4.98738 5.57313 4.51261 5.57315 4.21973 5.28027L1.75488 2.81543V4.45215C1.75464 4.86604 1.41878 5.20097 1.00488 5.20117C0.590819 5.20117 0.255123 4.86616 0.254883 4.45215V1.00488C0.254883 0.590672 0.590672 0.254886 1.00488 0.254883H4.45215Z"
    fill="currentColor"
  />
</svg>
