<svg width="12" height="12" viewBox="0 0 12 12" fill="none" xmlns="http://www.w3.org/2000/svg" data-fui-icon="true">
  <path
    d="M3.61621 6.61621C4.10437 6.12806 4.89563 6.12806 5.38379 6.61621C5.87194 7.10437 5.87194 7.89563 5.38379 8.38379L4.26758 9.5H4.5C5.19036 9.5 5.75 10.0596 5.75 10.75C5.75 11.4404 5.19036 12 4.5 12H1.25C0.559644 12 0 11.4404 0 10.75V7.5C0 6.80964 0.559644 6.25 1.25 6.25C1.94036 6.25 2.5 6.80964 2.5 7.5V7.73242L3.61621 6.61621ZM10.75 0C11.4404 0 12 0.559644 12 1.25V4.5C12 5.19036 11.4404 5.75 10.75 5.75C10.0596 5.75 9.5 5.19036 9.5 4.5V4.26758L8.38379 5.38379C7.89563 5.87194 7.10437 5.87194 6.61621 5.38379C6.12806 4.89563 6.12806 4.10437 6.61621 3.61621L7.73242 2.5H7.5C6.80964 2.5 6.25 1.94036 6.25 1.25C6.25 0.559644 6.80964 0 7.5 0H10.75Z"
    fill="currentColor"
  />
</svg>
