<svg width="32" height="32" viewBox="0 0 32 32" fill="none" xmlns="http://www.w3.org/2000/svg" data-fui-icon="true">
  <path
    d="M12.1162 18.1163C12.6044 17.6281 13.3956 17.6281 13.8838 18.1163C14.3719 18.6044 14.3719 19.3957 13.8838 19.8839L5.26758 28.5001H13C13.6904 28.5001 14.25 29.0597 14.25 29.7501C14.25 30.4404 13.6903 31.0001 13 31.0001H2.25C1.55966 31.0001 1.00003 30.4404 1 29.7501V19.0001C1 18.3097 1.55964 17.7501 2.25 17.7501C2.94036 17.7501 3.5 18.3097 3.5 19.0001V26.7325L12.1162 18.1163ZM29.75 1.00006C30.4404 1.00006 31 1.55971 31 2.25006V13.0001C31 13.6904 30.4403 14.2501 29.75 14.2501C29.0597 14.2501 28.5 13.6904 28.5 13.0001V5.26764L19.8838 13.8839C19.3956 14.372 18.6044 14.372 18.1162 13.8839C17.6281 13.3957 17.6281 12.6044 18.1162 12.1163L26.7324 3.50006H19C18.3097 3.50006 17.75 2.94039 17.75 2.25006C17.75 1.55971 18.3096 1.00006 19 1.00006H29.75Z"
    fill="currentColor"
  />
</svg>
