<svg width="24" height="24" viewBox="0 0 24 24" fill="none" xmlns="http://www.w3.org/2000/svg" data-fui-icon="true">
  <path
    d="M9.04297 13.543C9.43349 13.1524 10.0665 13.1524 10.457 13.543C10.8476 13.9335 10.8476 14.5665 10.457 14.957L4.41406 21H9.75C10.3023 21 10.75 21.4477 10.75 22C10.75 22.5523 10.3023 23 9.75 23H2C1.44771 23 1 22.5523 1 22V14.25C1 13.6977 1.44771 13.25 2 13.25C2.55228 13.25 3 13.6977 3 14.25V19.5859L9.04297 13.543ZM22 1C22.5523 1 23 1.44772 23 2V9.75C23 10.3023 22.5523 10.75 22 10.75C21.4477 10.75 21 10.3023 21 9.75V4.41406L14.957 10.457C14.5665 10.8476 13.9335 10.8476 13.543 10.457C13.1524 10.0665 13.1524 9.43349 13.543 9.04297L19.5859 3H14.25C13.6977 3 13.25 2.55228 13.25 2C13.25 1.44772 13.6977 1 14.25 1H22Z"
    fill="currentColor"
  />
</svg>
