<svg width="12" height="12" viewBox="0 0 12 12" fill="none" xmlns="http://www.w3.org/2000/svg" data-fui-icon="true">
  <path
    d="M3.96973 6.96973C4.26262 6.67683 4.73738 6.67683 5.03027 6.96973C5.32317 7.26262 5.32317 7.73738 5.03027 8.03027L2.56055 10.5H4.25C4.66421 10.5 5 10.8358 5 11.25C5 11.6642 4.66421 12 4.25 12H0.75C0.335786 12 0 11.6642 0 11.25V7.75C0 7.33579 0.335786 7 0.75 7C1.16421 7 1.5 7.33579 1.5 7.75V9.43945L3.96973 6.96973ZM11.25 0C11.6642 0 12 0.335786 12 0.75V4.25C12 4.66421 11.6642 5 11.25 5C10.8358 5 10.5 4.66421 10.5 4.25V2.56055L8.03027 5.03027C7.73738 5.32317 7.26262 5.32317 6.96973 5.03027C6.67683 4.73738 6.67683 4.26262 6.96973 3.96973L9.43945 1.5H7.75C7.33579 1.5 7 1.16421 7 0.75C7 0.335786 7.33579 0 7.75 0H11.25Z"
    fill="currentColor"
  />
</svg>
