<svg width="32" height="32" viewBox="0 0 32 32" fill="none" xmlns="http://www.w3.org/2000/svg" data-fui-icon="true">
  <path
    d="M12.4697 18.4697C12.7626 18.1768 13.2374 18.1768 13.5303 18.4697C13.8231 18.7626 13.8232 19.2374 13.5303 19.5303L3.56055 29.5H13C13.4142 29.5 13.75 29.8358 13.75 30.25C13.75 30.6642 13.4142 31 13 31H1.75C1.33581 31 1.00003 30.6642 1 30.25V19C1 18.5858 1.33579 18.25 1.75 18.25C2.16421 18.25 2.5 18.5858 2.5 19V28.4395L12.4697 18.4697ZM30.25 1C30.6642 1 31 1.33579 31 1.75V13C31 13.4142 30.6642 13.75 30.25 13.75C29.8358 13.75 29.5 13.4142 29.5 13V3.56055L19.5303 13.5303C19.2374 13.8231 18.7626 13.8231 18.4697 13.5303C18.1768 13.2374 18.1769 12.7626 18.4697 12.4697L28.4395 2.5H19C18.5858 2.5 18.25 2.16419 18.25 1.75C18.25 1.33579 18.5858 1 19 1H30.25Z"
    fill="currentColor"
  />
</svg>
