<svg width="20" height="20" viewBox="0 0 20 20" fill="none" xmlns="http://www.w3.org/2000/svg" data-fui-icon="true">
  <path
    d="M11.4697 11.4697C11.7626 11.1771 12.2375 11.1769 12.5303 11.4697L17.2422 16.1816L17.2432 12.4775C17.2432 12.0633 17.579 11.7275 17.9932 11.7275C18.4072 11.7278 18.7432 12.0635 18.7432 12.4775L18.7422 17.9932C18.7419 18.4072 18.4062 18.7422 17.9922 18.7422H12.4775C12.0635 18.7421 11.7278 18.4071 11.7275 17.9932C11.7276 17.579 12.0634 17.2432 12.4775 17.2432H16.1816L11.4697 12.5303C11.1769 12.2375 11.1771 11.7626 11.4697 11.4697ZM7.52246 1.25781C7.93649 1.25785 8.27221 1.59286 8.27246 2.00684C8.27242 2.42099 7.93661 2.75679 7.52246 2.75684H3.81836L8.53027 7.46973C8.82308 7.76254 8.82294 8.23737 8.53027 8.53027C8.23736 8.82292 7.76254 8.82307 7.46973 8.53027L2.75781 3.81836L2.75684 7.52246C2.75684 7.93667 2.42105 8.27246 2.00684 8.27246C1.5928 8.27225 1.25684 7.93654 1.25684 7.52246L1.25781 2.00684C1.25806 1.59283 1.59375 1.25781 2.00781 1.25781H7.52246Z"
    fill="currentColor"
  />
</svg>
