<svg width="20" height="20" viewBox="0 0 20 20" fill="none" xmlns="http://www.w3.org/2000/svg" data-fui-icon="true">
  <path
    d="M6.93945 10.9395C7.52524 10.3537 8.47476 10.3537 9.06055 10.9395C9.64633 11.5252 9.64633 12.4748 9.06055 13.0605L6.12109 16H8C8.82843 16 9.5 16.6716 9.5 17.5C9.5 18.3284 8.82843 19 8 19H2.5C2.10218 19 1.72076 18.8419 1.43945 18.5605C1.15815 18.2792 1 17.8978 1 17.5V12C1 11.1716 1.67157 10.5 2.5 10.5C3.32843 10.5 4 11.1716 4 12V13.8789L6.93945 10.9395ZM17.5 1C18.3284 1 19 1.67157 19 2.5V8C19 8.82843 18.3284 9.5 17.5 9.5C16.6716 9.5 16 8.82843 16 8V6.12109L13.0605 9.06055C12.4748 9.64633 11.5252 9.64633 10.9395 9.06055C10.3537 8.47476 10.3537 7.52524 10.9395 6.93945L13.8789 4H12C11.1716 4 10.5 3.32843 10.5 2.5C10.5 1.67157 11.1716 1 12 1H17.5Z"
    fill="currentColor"
  />
</svg>
