<svg width="32" height="32" viewBox="0 0 32 32" fill="none" xmlns="http://www.w3.org/2000/svg" data-fui-icon="true">
  <path
    d="M12.1162 18.1162C12.6044 17.6281 13.3956 17.6281 13.8838 18.1162C14.3719 18.6044 14.3719 19.3956 13.8838 19.8838L5.26758 28.5H13C13.6904 28.5 14.25 29.0596 14.25 29.75C14.25 30.4403 13.6903 31 13 31H2.25C1.55966 31 1.00003 30.4403 1 29.75V19C1 18.3096 1.55964 17.75 2.25 17.75C2.94036 17.75 3.5 18.3096 3.5 19V26.7324L12.1162 18.1162ZM29.75 1C30.4404 1 31 1.55964 31 2.25V13C31 13.6903 30.4403 14.25 29.75 14.25C29.0597 14.25 28.5 13.6903 28.5 13V5.26758L19.8838 13.8838C19.3956 14.3719 18.6044 14.3719 18.1162 13.8838C17.6281 13.3956 17.6281 12.6044 18.1162 12.1162L26.7324 3.5H19C18.3097 3.5 17.75 2.94033 17.75 2.25C17.75 1.55964 18.3096 1 19 1H29.75Z"
    fill="currentColor"
  />
</svg>
