<svg width="32" height="32" viewBox="0 0 32 32" fill="none" xmlns="http://www.w3.org/2000/svg" data-fui-icon="true">
  <path
    fill-rule="evenodd"
    clip-rule="evenodd"
    d="M12.1895 17.6895C12.7752 17.1037 13.7248 17.1037 14.3105 17.6895C14.8963 18.2753 14.8963 19.2248 14.3105 19.8106L6.12109 28.0001H13.25C14.0784 28.0001 14.75 28.6716 14.75 29.5001C14.75 30.3285 14.0784 31.0001 13.25 31.0001H2.5C1.67159 31.0001 1.00003 30.3285 1 29.5001V18.7501C1 17.9216 1.67157 17.2501 2.5 17.2501C3.32843 17.2501 4 17.9216 4 18.7501V25.879L12.1895 17.6895ZM29.5 1.00006C30.3284 1.00006 31 1.67163 31 2.50006V13.2501C31 14.0785 30.3284 14.7501 29.5 14.7501C28.6716 14.7501 28 14.0785 28 13.2501V6.12115L19.8105 14.3106C19.2248 14.8964 18.2752 14.8964 17.6895 14.3106C17.1037 13.7248 17.1037 12.7753 17.6895 12.1895L25.8789 4.00006H18.75C17.9216 4.00006 17.25 3.32846 17.25 2.50006C17.25 1.67163 17.9216 1.00006 18.75 1.00006H29.5Z"
    fill="currentColor"
  />
</svg>
