<svg width="16" height="16" viewBox="0 0 16 16" fill="none" xmlns="http://www.w3.org/2000/svg" data-fui-icon="true">
  <path
    d="M5.46973 9.46973C5.76262 9.17683 6.23738 9.17683 6.53027 9.46973C6.82317 9.76262 6.82317 10.2374 6.53027 10.5303L2.56055 14.5H5.25C5.66421 14.5 6 14.8358 6 15.25C6 15.6642 5.66421 16 5.25 16H0.75C0.335786 16 0 15.6642 0 15.25V10.75C0 10.3358 0.335786 10 0.75 10C1.16421 10 1.5 10.3358 1.5 10.75V13.4395L5.46973 9.46973ZM15.25 0C15.6642 0 16 0.335786 16 0.75V5.25C16 5.66421 15.6642 6 15.25 6C14.8358 6 14.5 5.66421 14.5 5.25V2.56055L10.5303 6.53027C10.2374 6.82317 9.76262 6.82317 9.46973 6.53027C9.17683 6.23738 9.17683 5.76262 9.46973 5.46973L13.4395 1.5H10.75C10.3358 1.5 10 1.16421 10 0.75C10 0.335786 10.3358 0 10.75 0H15.25Z"
    fill="currentColor"
  />
</svg>
