<svg width="24" height="24" viewBox="0 0 24 24" fill="none" xmlns="http://www.w3.org/2000/svg" data-fui-icon="true">
  <path
    d="M8.96973 13.9697C9.26262 13.6768 9.73738 13.6768 10.0303 13.9697C10.3232 14.2626 10.3232 14.7374 10.0303 15.0303L3.56055 21.5H9.5C9.91421 21.5 10.25 21.8358 10.25 22.25C10.25 22.6642 9.91421 23 9.5 23H1.75C1.33579 23 1 22.6642 1 22.25V14.5C1 14.0858 1.33579 13.75 1.75 13.75C2.16421 13.75 2.5 14.0858 2.5 14.5V20.4395L8.96973 13.9697ZM22.25 1C22.6642 1 23 1.33579 23 1.75V9.5C23 9.91421 22.6642 10.25 22.25 10.25C21.8358 10.25 21.5 9.91421 21.5 9.5V3.56055L15.0303 10.0303C14.7374 10.3232 14.2626 10.3232 13.9697 10.0303C13.6768 9.73738 13.6768 9.26262 13.9697 8.96973L20.4395 2.5H14.5C14.0858 2.5 13.75 2.16421 13.75 1.75C13.75 1.33579 14.0858 1 14.5 1H22.25Z"
    fill="currentColor"
  />
</svg>
