<svg width="20" height="20" viewBox="0 0 20 20" fill="none" xmlns="http://www.w3.org/2000/svg" data-fui-icon="true">
  <path
    d="M7.29297 11.293C7.68349 10.9024 8.31651 10.9024 8.70703 11.293C9.09756 11.6835 9.09756 12.3165 8.70703 12.707L4.41406 17H8C8.55228 17 9 17.4477 9 18C9 18.5523 8.55228 19 8 19H2C1.44772 19 1 18.5523 1 18V12C1 11.4477 1.44772 11 2 11C2.55228 11 3 11.4477 3 12V15.5859L7.29297 11.293ZM18 1C18.5523 1 19 1.44772 19 2V8C19 8.55228 18.5523 9 18 9C17.4477 9 17 8.55228 17 8V4.41406L12.707 8.70703C12.3165 9.09756 11.6835 9.09756 11.293 8.70703C10.9024 8.31651 10.9024 7.68349 11.293 7.29297L15.5859 3H12C11.4477 3 11 2.55228 11 2C11 1.44772 11.4477 1 12 1H18Z"
    fill="currentColor"
  />
</svg>
