<svg width="32" height="32" viewBox="0 0 32 32" fill="none" xmlns="http://www.w3.org/2000/svg" data-fui-icon="true">
  <path
    d="M13.5 5C13.9142 5 14.25 5.33579 14.25 5.75C14.25 6.16421 13.9142 6.5 13.5 6.5H7.32031C5.76287 6.5 4.5 7.76287 4.5 9.32031V24.6797C4.5 26.2371 5.76287 27.5 7.32031 27.5H22.6797C24.2371 27.5 25.5 26.2371 25.5 24.6797V18.5C25.5 18.0858 25.8358 17.75 26.25 17.75C26.6642 17.75 27 18.0858 27 18.5V24.6797C27 27.0656 25.0656 29 22.6797 29H7.32031C4.93444 29 3 27.0656 3 24.6797V9.32031C3 6.93444 4.93444 5 7.32031 5H13.5ZM28.25 3C28.6642 3.00004 29 3.33581 29 3.75V12C29 12.4142 28.6642 12.75 28.25 12.75C27.8358 12.75 27.5 12.4142 27.5 12V5.56055L17.2803 15.7803C16.9874 16.0732 16.5126 16.0732 16.2197 15.7803C15.9268 15.4874 15.9268 15.0126 16.2197 14.7197L26.4395 4.5H20C19.5858 4.5 19.25 4.16421 19.25 3.75C19.25 3.33579 19.5858 3 20 3H28.25Z"
    fill="currentColor"
  />
</svg>
