<svg width="24" height="24" viewBox="0 0 24 24" fill="none" xmlns="http://www.w3.org/2000/svg" data-fui-icon="true">
  <path
    d="M12.0002 3.00049C15.8897 3.00054 18.812 5.05819 20.762 7.11768C22.7124 9.17769 23.76 11.3101 23.9172 11.6421C23.9586 11.7296 23.9992 11.8515 23.9993 11.9995C23.9992 12.1477 23.9586 12.2704 23.9172 12.3579C23.7591 12.6919 22.7113 14.8242 20.762 16.8833C18.812 18.9429 15.8893 21.0004 12.0002 21.0005C8.1109 21.0004 5.18746 18.943 3.23755 16.8833C1.28802 14.8239 0.241192 12.6915 0.083252 12.3579C0.0418446 12.2704 0.00129073 12.1477 0.0012207 11.9995C0.00129259 11.8516 0.0419061 11.7295 0.083252 11.6421L0.183838 11.437C0.516206 10.7784 1.53123 8.92007 3.23755 7.11768C5.18747 5.05822 8.11092 3.0006 12.0002 3.00049ZM12.0002 7.00049C9.23882 7.00049 7.00024 9.23906 7.00024 12.0005C7.00051 14.7617 9.23898 17.0005 12.0002 17.0005C14.7614 17.0004 17 14.7616 17.0002 12.0005C17.0002 9.23915 14.7616 7.00062 12.0002 7.00049ZM12.0002 8.50049C13.9331 8.50062 15.5002 10.0676 15.5002 12.0005C15.5 13.9332 13.933 15.5004 12.0002 15.5005C10.0674 15.5005 8.50051 13.9333 8.50024 12.0005C8.50024 10.0675 10.0672 8.50049 12.0002 8.50049Z"
    fill="currentColor"
  />
</svg>
