<svg width="12" height="12" viewBox="0 0 12 12" fill="none" xmlns="http://www.w3.org/2000/svg" data-fui-icon="true">
  <path
    d="M6.00021 1.5C7.91111 1.5001 9.3471 2.46365 10.3 3.4209C11.2515 4.37682 11.7818 5.38333 11.9016 5.62402C12.0193 5.86079 12.0193 6.13921 11.9016 6.37598C11.7818 6.61667 11.2515 7.62318 10.3 8.5791C9.3471 9.53635 7.91111 10.4999 6.00021 10.5C4.08925 10.5 2.65336 9.53635 1.7004 8.5791C0.748968 7.62329 0.218766 6.61689 0.0988388 6.37598C-0.0189457 6.13915 -0.0189454 5.86085 0.0988388 5.62402L0.265831 5.3125C0.509893 4.88307 0.986739 4.13784 1.7004 3.4209C2.65336 2.46365 4.08925 1.5 6.00021 1.5ZM6.00021 4C4.89564 4 4.00021 4.89543 4.00021 6C4.00021 7.10457 4.89564 8 6.00021 8C7.10464 7.99984 8.00021 7.10447 8.00021 6C8.00021 4.89553 7.10464 4.00016 6.00021 4Z"
    fill="currentColor"
  />
</svg>
