<svg
  width="12"
  height="12"
  viewBox="0 0 12 12"
  fill="none"
  xmlns="http://www.w3.org/2000/svg"
  data-fui-icon="true"
>
  <path
    d="M5.99999 1.75C6.22907 1.75 6.4504 1.76756 6.66402 1.80043M5.99999 1.75C2.74372 1.75 1.05492 5.29833 0.787763 5.91056C0.762281 5.96896 0.763006 6.03276 0.788508 6.09114C0.862608 6.26079 1.04396 6.65148 1.3356 7.12885M5.99999 1.75C5.7709 1.75 5.54957 1.76756 5.33595 1.80043M5.99999 1.75C9.25625 1.75 10.9451 5.29833 11.2122 5.91056C11.2377 5.96896 11.237 6.03276 11.2115 6.09114C11.1374 6.26079 10.956 6.65148 10.6644 7.12885M5.99999 10.25C5.7709 10.25 5.54957 10.2324 5.33595 10.1996M5.99999 10.25C9.25625 10.25 10.9451 6.70167 11.2122 6.08944C11.2377 6.03104 11.237 5.96724 11.2115 5.90886C11.1374 5.73921 10.956 5.34852 10.6644 4.87115M5.99999 10.25C6.22907 10.25 6.4504 10.2324 6.66402 10.1996M5.99999 10.25C2.74372 10.25 1.05492 6.70167 0.787762 6.08944C0.762281 6.03104 0.763006 5.96724 0.788508 5.90886C0.862608 5.73921 1.04397 5.34852 1.3356 4.87115"
    stroke="currentColor"
    stroke-width="1.5"
    stroke-linecap="round"
  />
  <circle cx="6" cy="6" r="2" fill="currentColor" />
</svg>
