<svg width="32" height="32" viewBox="0 0 32 32" fill="none" xmlns="http://www.w3.org/2000/svg" data-fui-icon="true">
  <path
    fill-rule="evenodd"
    clip-rule="evenodd"
    d="M1.21984 1.21976C1.51274 0.926868 1.98749 0.926868 2.28039 1.21976L2.57922 1.51859C2.58284 1.52236 2.58625 1.52659 2.58996 1.53031L30.59 29.5303C30.5934 29.5337 30.5972 29.5367 30.6007 29.5401L30.7804 29.7198C31.0732 30.0127 31.0732 30.4874 30.7804 30.7803C30.4875 31.073 30.0127 31.073 29.7198 30.7803L23.6329 24.6934C21.5482 26.0329 19.0037 27 16.0001 27C11.1385 27 7.47792 24.4688 5.02648 21.92C2.57721 19.3731 1.26714 16.7418 1.08508 16.3633C0.973768 16.1316 0.973793 15.8675 1.08508 15.6358C1.26641 15.2588 2.57639 12.6276 5.02648 10.0801C5.64821 9.43372 6.34801 8.78871 7.12512 8.18558L1.21984 2.28031C0.926997 1.98746 0.927092 1.51267 1.21984 1.21976ZM16.0001 5.00003C20.8619 5.00015 24.5223 7.53146 26.9737 10.0801C29.4241 12.6279 30.7341 15.2595 30.9152 15.6358C31.0264 15.8674 31.0262 16.1308 30.9152 16.3623V16.3633C30.7333 16.7413 29.4234 19.3727 26.9737 21.92C26.6755 22.23 26.3578 22.5381 26.0236 22.8428L21.5226 18.3418C21.8288 17.6223 22 16.8314 22.0001 16C21.9999 12.6866 19.3135 10.0002 16.0001 10C15.1684 10 14.3764 10.1695 13.6564 10.4756L9.71398 6.53324C11.5198 5.6113 13.6148 5.00007 16.0001 5.00003ZM11.2609 12.3213C10.4711 13.3373 10.0002 14.6136 10.0001 16C10.0005 19.3134 12.6866 22 16.0001 22C17.3865 22 18.6619 21.5281 19.6779 20.7383L18.6066 19.667C17.871 20.1909 16.9719 20.5 16.0001 20.5C13.5151 20.5 11.5005 18.485 11.5001 16C11.5002 15.0283 11.8093 14.1291 12.3331 13.3936L11.2609 12.3213ZM16.0001 11.5C18.4851 11.5002 20.4999 13.515 20.5001 16C20.5001 16.4026 20.4433 16.7919 20.3439 17.1631L14.8351 11.6543C15.2067 11.5546 15.597 11.5 16.0001 11.5Z"
    fill="currentColor"
  />
</svg>
