<svg width="32" height="32" viewBox="0 0 32 32" fill="none" xmlns="http://www.w3.org/2000/svg" data-fui-icon="true">
  <path
    d="M16 5C20.8679 5 24.5245 7.5176 26.96 10.0322C29.3949 12.5463 30.6966 15.1429 30.8818 15.5254C30.9403 15.6461 30.9912 15.8072 30.9912 15.999C30.9912 16.1911 30.9403 16.3528 30.8818 16.4736C30.6966 16.8561 29.3948 19.4525 26.96 21.9668C24.5245 24.4817 20.868 27 16 27C11.132 27 7.47551 24.4817 5.04004 21.9668C2.60522 19.4525 1.30337 16.8561 1.11816 16.4736C1.05966 16.3528 1.00879 16.1911 1.00879 15.999C1.00885 15.8072 1.05974 15.6461 1.11816 15.5254L1.24023 15.2822C1.64679 14.4947 2.90955 12.232 5.04004 10.0322C7.47553 7.5176 11.1321 5 16 5ZM16 7C11.8735 7 8.70175 9.12634 6.47656 11.4238C4.68883 13.2697 3.5688 15.1716 3.12402 15.999C3.5686 16.8263 4.68825 18.7295 6.47656 20.5762C8.70177 22.874 11.8736 25 16 25C20.1264 25 23.2982 22.874 25.5234 20.5762C27.3115 18.7298 28.4303 16.8265 28.875 15.999C28.4301 15.1714 27.3109 13.2694 25.5234 11.4238C23.2982 9.12634 20.1265 7 16 7ZM16 9.87793C19.3932 9.87802 22.1553 12.6129 22.1553 16C22.1553 19.3871 19.3932 22.122 16 22.1221C12.6067 22.1221 9.84473 19.3871 9.84473 16C9.84473 12.6129 12.6067 9.87793 16 9.87793ZM16 11.8779C13.699 11.8779 11.8447 13.7296 11.8447 16C11.8447 18.2704 13.699 20.1221 16 20.1221C18.3009 20.122 20.1553 18.2703 20.1553 16C20.1553 13.7297 18.3009 11.878 16 11.8779Z"
    fill="currentColor"
  />
</svg>
