<svg width="12" height="12" viewBox="0 0 12 12" fill="none" xmlns="http://www.w3.org/2000/svg" data-fui-icon="true">
  <path
    d="M6.1991 1.00391C6.23985 1.00548 6.28081 1.00823 6.32117 1.01074C6.33733 1.01174 6.35391 1.01252 6.37 1.01367C6.40489 1.0162 6.43988 1.02121 6.47449 1.02441C6.56977 1.03319 6.66411 1.04382 6.75671 1.05762C6.76368 1.05861 6.77125 1.0585 6.7782 1.05957C6.7969 1.06247 6.81572 1.06709 6.83386 1.07129C8.34105 1.31999 9.48906 2.21035 10.286 3.10059C10.6917 3.55378 11.0188 4.02207 11.2733 4.43359C11.2841 4.44864 11.2948 4.46442 11.3046 4.48047C11.3166 4.50026 11.328 4.52053 11.3397 4.54004C11.3849 4.61519 11.4276 4.68841 11.4677 4.75879C11.4937 4.80451 11.519 4.84916 11.5428 4.89258C11.5827 4.96511 11.6194 5.03451 11.6532 5.09961C11.6676 5.12735 11.6819 5.1544 11.6952 5.18066C11.7906 5.36854 11.8591 5.51642 11.8993 5.6084L11.9003 5.61035L11.9364 5.70801C11.9507 5.75337 11.9602 5.7996 11.9677 5.8457C11.9865 5.96257 11.9849 6.08286 11.9598 6.20117C11.9462 6.26537 11.9256 6.3281 11.8993 6.38867L11.9003 6.38965C11.8603 6.48135 11.7911 6.62949 11.6952 6.81836C11.6859 6.83672 11.6767 6.8559 11.6669 6.875C11.6296 6.94727 11.5878 7.0246 11.5428 7.10645C11.5195 7.1489 11.495 7.19265 11.4696 7.2373C11.4322 7.30311 11.3924 7.37138 11.3505 7.44141C11.3352 7.46694 11.3205 7.49351 11.3046 7.51953C11.2975 7.53105 11.2887 7.54174 11.2811 7.55273C11.0255 7.96751 10.6961 8.44129 10.286 8.89941C9.48906 9.78965 8.34105 10.68 6.83386 10.9287C6.81572 10.9329 6.7969 10.9375 6.7782 10.9404C6.77125 10.9415 6.76368 10.9414 6.75671 10.9424C6.66411 10.9562 6.56977 10.9668 6.47449 10.9756C6.43989 10.9788 6.40489 10.9838 6.37 10.9863C6.35391 10.9875 6.33733 10.9883 6.32117 10.9893C6.21586 10.9958 6.10882 11 6.00085 11C5.89238 11 5.78437 10.9958 5.67859 10.9893C5.66243 10.9883 5.64585 10.9875 5.62976 10.9863C5.59486 10.9838 5.55987 10.9788 5.52527 10.9756C5.42999 10.9668 5.33564 10.9562 5.24304 10.9424C5.2364 10.9414 5.22917 10.9414 5.22253 10.9404C5.2035 10.9375 5.18435 10.933 5.16589 10.9287C3.65909 10.6799 2.51157 9.78947 1.71472 8.89941C1.30461 8.44129 0.975284 7.96753 0.719604 7.55273C0.712052 7.54173 0.703226 7.53104 0.696167 7.51953C0.680273 7.49351 0.665556 7.46694 0.650269 7.44141C0.60832 7.37138 0.568542 7.30312 0.531128 7.2373C0.505743 7.19265 0.481211 7.1489 0.457886 7.10645C0.412921 7.0246 0.371144 6.94727 0.333862 6.875C0.324013 6.85591 0.314861 6.83673 0.305542 6.81836C0.20969 6.62951 0.140501 6.48138 0.100464 6.38965C0.0236885 6.2137 0.00403782 6.02545 0.0330811 5.8457C0.0458717 5.76625 0.0670744 5.68687 0.100464 5.61035L0.10144 5.6084C0.141639 5.51638 0.210175 5.36851 0.305542 5.18066C0.318878 5.1544 0.333122 5.12735 0.347534 5.09961C0.381356 5.03451 0.418029 4.96511 0.457886 4.89258C0.481746 4.84915 0.507068 4.80451 0.533081 4.75879C0.573135 4.6884 0.615781 4.61519 0.661011 4.54004C0.672747 4.52053 0.684079 4.50026 0.696167 4.48047C0.70598 4.46442 0.716626 4.44864 0.727417 4.43359C0.981961 4.02204 1.30902 3.55378 1.71472 3.10059C2.51157 2.21053 3.65909 1.3201 5.16589 1.07129C5.18435 1.06699 5.2035 1.0625 5.22253 1.05957C5.22917 1.0586 5.2364 1.05861 5.24304 1.05762C5.33564 1.04381 5.42999 1.0332 5.52527 1.02441C5.55987 1.02119 5.59486 1.01618 5.62976 1.01367C5.64585 1.01253 5.66243 1.01174 5.67859 1.01074C5.78437 1.00416 5.89238 1 6.00085 1L6.1991 1.00391ZM5.74304 2.50977C5.69776 2.51295 5.65268 2.51862 5.60828 2.52344C4.46108 2.64858 3.5401 3.30959 2.83191 4.10059C2.39686 4.58656 2.06518 5.09773 1.83484 5.50293C1.81066 5.54546 1.78741 5.58693 1.7655 5.62695C1.75157 5.65241 1.73849 5.67778 1.72546 5.70215C1.66522 5.81483 1.61572 5.91579 1.57507 6C1.60279 6.05743 1.63395 6.1231 1.67078 6.19434C1.69954 6.24997 1.73125 6.30947 1.7655 6.37207C1.78741 6.4121 1.81066 6.45356 1.83484 6.49609C2.0652 6.90141 2.3966 7.41314 2.83191 7.89941C3.54007 8.69039 4.46113 9.35041 5.60828 9.47559C5.6527 9.48041 5.69775 9.48607 5.74304 9.48926C5.82752 9.49525 5.91398 9.5 6.00085 9.5C6.08722 9.49997 6.17272 9.49519 6.25671 9.48926C6.302 9.48607 6.34706 9.48039 6.39148 9.47559C7.53899 9.35056 8.46052 8.69061 9.16882 7.89941C9.60395 7.41331 9.9346 6.90131 10.1649 6.49609C10.1891 6.45356 10.2123 6.4121 10.2343 6.37207C10.2686 6.30932 10.3011 6.25009 10.33 6.19434C10.3667 6.12325 10.397 6.05733 10.4247 6C10.3841 5.91588 10.3354 5.81466 10.2753 5.70215C10.2622 5.67766 10.2483 5.65255 10.2343 5.62695C10.2123 5.58693 10.1891 5.54546 10.1649 5.50293C9.93462 5.09783 9.60369 4.5864 9.16882 4.10059C8.4605 3.30937 7.53904 2.64844 6.39148 2.52344C6.34707 2.51864 6.30199 2.51296 6.25671 2.50977C6.17274 2.50383 6.0872 2.50002 6.00085 2.5C5.91401 2.5 5.82749 2.50378 5.74304 2.50977ZM5.99988 4C7.10445 4 7.99988 4.89543 7.99988 6C7.99988 7.10457 7.10445 8 5.99988 8C4.89535 7.99996 3.99988 7.10454 3.99988 6C3.99988 4.89546 4.89535 4.00004 5.99988 4Z"
    fill="currentColor"
  />
</svg>
