<svg width="24" height="24" viewBox="0 0 24 24" fill="none" xmlns="http://www.w3.org/2000/svg" data-fui-icon="true">
  <path
    d="M12.001 3C15.8902 3.0002 18.8128 5.05778 20.7627 7.11719C22.713 9.17716 23.7608 11.3096 23.918 11.6416C23.9594 11.7291 23.9999 11.8509 24 11.999C24 12.1473 23.9594 12.2699 23.918 12.3574C23.7605 12.6899 22.7128 14.8228 20.7627 16.8828C18.8128 18.9424 15.8901 20.9998 12.001 21C8.11157 21 5.18825 18.9425 3.23828 16.8828C1.28866 14.8234 0.24185 12.6908 0.0839844 12.3574C0.0425365 12.2699 0.00194967 12.1474 0.00195312 11.999C0.00202517 11.8508 0.0425657 11.7291 0.0839844 11.6416L0.18457 11.4365C0.517047 10.7777 1.53189 8.91955 3.23828 7.11719C5.18826 5.05775 8.11162 3 12.001 3ZM12.001 4.5C8.68063 4.5 6.12472 6.25099 4.32812 8.14844C2.84612 9.71371 1.93097 11.3326 1.58496 11.999C1.9307 12.6652 2.84555 14.2855 4.32812 15.8516C6.12473 17.7492 8.68076 19.5 12.001 19.5C15.3211 19.4998 17.8773 17.7493 19.6738 15.8516C21.1562 14.2856 22.0703 12.6652 22.416 11.999C22.07 11.3326 21.1556 9.71352 19.6738 8.14844C17.8773 6.25102 15.3212 4.5002 12.001 4.5ZM12 7C14.7612 7.00022 17 9.23871 17 12C17 14.7613 14.7612 16.9998 12 17C9.23877 16.9998 7 14.7613 7 12C7 9.23871 9.23877 7.00022 12 7ZM12 8.5C10.0672 8.50022 8.5 10.0671 8.5 12C8.5 13.9329 10.0672 15.4998 12 15.5C13.9328 15.4998 15.5 13.9329 15.5 12C15.5 10.0671 13.9328 8.50022 12 8.5Z"
    fill="currentColor"
  />
</svg>
