<svg width="24" height="24" viewBox="0 0 24 24" fill="none" xmlns="http://www.w3.org/2000/svg" data-fui-icon="true">
  <path
    d="M0.219999 0.218992C0.471221 -0.0317276 0.856136 -0.067035 1.14531 0.112528C1.16737 0.126225 1.18624 0.144299 1.20394 0.163294C1.20918 0.168909 1.21452 0.174459 1.21999 0.17993L23.7198 22.6797C23.7418 22.7018 23.7651 22.7219 23.7892 22.7405C23.8089 22.7557 23.8278 22.7721 23.8431 22.7918C24.0708 23.0859 24.0501 23.5103 23.7803 23.7803C23.4875 24.0729 23.0126 24.0728 22.7198 23.7803L18.2511 19.3106C18.1509 19.2104 17.9945 19.1943 17.8742 19.2693C16.2535 20.2805 14.2958 21 12.0002 21C8.11085 20.9999 5.18744 18.9426 3.23755 16.8829C1.28812 14.8236 0.241216 12.6911 0.0832816 12.3575C0.0419109 12.2701 0.00132116 12.1472 0.00125121 11.9991C0.00137977 11.8514 0.0419671 11.7291 0.0832816 11.6417L0.183867 11.4367C0.516369 10.7778 1.53147 8.9195 3.23755 7.11736C3.6045 6.72981 4.00729 6.34316 4.44357 5.96971C4.57833 5.85436 4.58871 5.64824 4.46328 5.52281L0.219999 1.27953C-0.0726331 0.986617 -0.0728047 0.511796 0.219999 0.218992ZM5.95193 7.01244C5.84379 6.90429 5.67135 6.89454 5.55396 6.99258C5.112 7.36172 4.70284 7.75207 4.32738 8.1486C2.93944 9.61462 2.04839 11.128 1.65678 11.8614C1.61079 11.9476 1.61078 12.0507 1.65675 12.1369C2.04809 12.8702 2.93876 14.3848 4.32738 15.8516C6.12391 17.7493 8.68004 19.4999 12.0002 19.5C13.7722 19.5 15.3254 18.9987 16.6626 18.2448C16.8318 18.1494 16.8591 17.9196 16.7217 17.7822L15.1465 16.207C15.0416 16.1021 14.8762 16.0905 14.7525 16.1723C13.963 16.6945 13.0175 17 12.0002 17.0001C9.23892 17.0001 7.00047 14.7613 7.0002 12.0001C7.00027 10.9827 7.30403 10.0356 7.82601 9.2459C7.90784 9.1221 7.89624 8.95674 7.79131 8.85181L5.95193 7.01244ZM12.0002 3.00021C15.8894 3.00028 18.8119 5.05795 20.7618 7.11736C22.7117 9.17686 23.7594 11.3089 23.917 11.6417C23.9584 11.7291 23.9989 11.8512 23.9991 11.9991C23.999 12.1472 23.9584 12.2701 23.917 12.3575C23.7589 12.6915 22.711 14.8239 20.7618 16.8829C20.7141 16.9332 20.6658 16.9834 20.6168 17.0336C20.5014 17.1517 20.312 17.1509 20.1953 17.0342L19.5588 16.3976C19.4413 16.2801 19.4421 16.09 19.5581 15.971C19.5968 15.9314 19.6351 15.8916 19.6729 15.8516C21.0612 14.3852 21.9512 12.8705 22.3426 12.1369C22.3885 12.0507 22.3885 11.9475 22.3426 11.8614C21.951 11.1278 21.0608 9.61451 19.6729 8.1486C17.8764 6.25118 15.3204 4.50026 12.0002 4.5002C10.7524 4.50024 9.61236 4.7468 8.58043 5.15628C8.46706 5.20126 8.33736 5.17623 8.25111 5.08998L7.56007 4.39894C7.41418 4.25305 7.45577 4.00696 7.64458 3.92378C8.92848 3.35811 10.3803 3.00026 12.0002 3.00021ZM9.31634 10.3759C9.18096 10.2405 8.95444 10.2649 8.86874 10.4361C8.63312 10.9068 8.50024 11.4381 8.50019 12.0001C8.50045 13.9329 10.0673 15.5001 12.0002 15.5001C12.5619 15.5 13.0921 15.3664 13.5622 15.1306C13.7334 15.0448 13.7578 14.8183 13.6224 14.6829L9.31634 10.3759ZM12.0002 7.00017C14.7613 7.00033 16.9999 9.23896 17.0001 12.0001C17.0001 12.3835 16.9564 12.7568 16.8744 13.1153C16.8246 13.3326 16.5579 13.3968 16.4003 13.2392L15.582 12.4209C15.519 12.3579 15.488 12.2701 15.4938 12.1812C15.4976 12.1212 15.5001 12.0608 15.5001 12.0001C15.4999 10.0674 13.9329 8.50031 12.0002 8.50016C11.939 8.50016 11.8783 8.50235 11.818 8.50598C11.7291 8.51134 11.6415 8.48034 11.5785 8.41737L10.7604 7.59929C10.6027 7.44159 10.667 7.17481 10.8845 7.12524C11.2432 7.04346 11.6167 7.00017 12.0002 7.00017Z"
    fill="currentColor"
  />
</svg>
