<svg width="16" height="16" viewBox="0 0 16 16" fill="none" xmlns="http://www.w3.org/2000/svg" data-fui-icon="true">
  <path
    fill-rule="evenodd"
    clip-rule="evenodd"
    d="M0.220397 0.220217C0.481822 -0.041208 0.887755 -0.0690416 1.1803 0.136238C1.19307 0.151185 1.2062 0.16604 1.22034 0.180181L15.7195 14.6793C15.7499 14.7097 15.7832 14.7362 15.8171 14.7603C16.0715 15.055 16.0596 15.5002 15.78 15.7798C15.4872 16.0722 15.0123 16.0723 14.7195 15.7798L11.8457 12.906C10.7818 13.5454 9.49995 13.9996 7.99922 13.9997C5.42402 13.9995 3.4894 12.6685 2.20367 11.3436C0.919692 10.0202 0.217441 8.63876 0.084663 8.36523C-0.0283122 8.13236 -0.0281298 7.86671 0.084663 7.63383L0.290705 7.2403C0.604081 6.6749 1.24009 5.64848 2.20367 4.65549C2.42376 4.42874 2.66335 4.20207 2.9214 3.98171L0.220397 1.2807C-0.0723553 0.987947 -0.0721094 0.513122 0.220397 0.220217ZM5.41735 6.47765C5.15358 6.92411 5.00042 7.44393 5.00038 8.00002C5.00082 9.6563 6.34384 10.9997 8.0002 10.9998C8.55615 10.9998 9.0752 10.8456 9.52159 10.5819L8.38689 9.44719C8.26337 9.48016 8.13409 9.49989 8.0002 9.49992C7.17221 9.49978 6.50073 8.82793 6.50029 8.00002C6.50031 7.86594 6.51901 7.73602 6.55204 7.61234L5.41735 6.47765ZM7.99922 2.00038C10.5745 2.0005 12.509 3.33073 13.7948 4.65549C15.0798 5.97969 15.7828 7.362 15.9148 7.63383C16.0275 7.86658 16.0276 8.13245 15.9148 8.36523C15.7944 8.61318 15.2023 9.77184 14.1346 10.9735L10.9951 7.83401C10.912 6.30914 9.69017 5.08696 8.16522 5.00411L5.57749 2.41637C6.30923 2.15717 7.11647 2.00042 7.99922 2.00038Z"
    fill="currentColor"
  />
</svg>
