<svg width="32" height="32" viewBox="0 0 32 32" fill="none" xmlns="http://www.w3.org/2000/svg" data-fui-icon="true">
  <path
    fill-rule="evenodd"
    clip-rule="evenodd"
    d="M1.22065 1.21978C1.51356 0.927153 1.98839 0.926977 2.28119 1.21978L2.57221 1.5108C2.57811 1.51712 2.58362 1.52416 2.58979 1.53033L30.5898 29.5303C30.5957 29.5362 30.6023 29.5413 30.6083 29.5469L30.7812 29.7198C31.0734 30.0126 31.0736 30.4876 30.7812 30.7803C30.4885 31.073 30.0136 31.0726 29.7206 30.7803L23.8047 24.8643C23.7049 24.7646 23.5492 24.7481 23.4294 24.8226C21.3836 26.0946 18.907 26.9999 16.0009 27.0001C11.1393 27.0001 7.47876 24.4688 5.02729 21.92C2.57799 19.3731 1.26805 16.742 1.08588 16.3633C0.974338 16.1314 0.974321 15.8677 1.08588 15.6358C1.2669 15.2595 2.57661 12.6281 5.02729 10.0801C5.57701 9.50861 6.1871 8.93733 6.85819 8.39576C6.99871 8.28236 7.01208 8.07176 6.8844 7.94408L1.22065 2.28033C0.927753 1.98744 0.927753 1.51267 1.22065 1.21978ZM8.38113 9.44081C8.27517 9.33485 8.10707 9.3231 7.98906 9.41547C7.30154 9.95359 6.67402 10.5311 6.10834 11.1192C4.2712 13.0293 3.11751 14.9956 2.65461 15.8615C2.60841 15.948 2.60841 16.0502 2.6546 16.1366C3.11739 17.0026 4.27101 18.9694 6.10834 20.8799C8.4034 23.2662 11.6992 25.5001 16.0009 25.5001C18.3811 25.4999 20.4532 24.8152 22.2182 23.7999C22.3865 23.7031 22.4137 23.4734 22.2764 23.3361L19.8649 20.9246C19.7579 20.8176 19.5885 20.8077 19.4652 20.8952C18.4864 21.5897 17.2914 22 15.9999 22.0001C12.6864 22 10.0001 19.3136 9.99994 16.0001C9.99994 14.7084 10.4093 13.5128 11.1038 12.5339C11.1913 12.4105 11.1814 12.2411 11.0744 12.1341L8.38113 9.44081ZM16.0009 5.00006C20.8625 5.00039 24.5232 7.53152 26.9746 10.0801C29.4255 12.6286 30.7355 15.2607 30.916 15.6358C31.0273 15.8676 31.0274 16.1316 30.916 16.3633C30.735 16.7396 29.4251 19.3717 26.9746 21.92C26.7395 22.1644 26.4919 22.4074 26.2339 22.6486C26.1168 22.758 25.9342 22.7536 25.8209 22.6403L25.1841 22.0036C25.0627 21.8822 25.068 21.684 25.1937 21.567C25.4366 21.3409 25.6705 21.1119 25.8935 20.8799C27.7306 18.9696 28.8826 17.0027 29.3453 16.1366C29.3915 16.0502 29.3915 15.948 29.3453 15.8615C28.8824 14.9953 27.7301 13.0288 25.8935 11.1192C23.5986 8.73326 20.3025 6.50039 16.0009 6.50006C14.1578 6.50006 12.499 6.91019 11.0248 7.56655C10.9097 7.61779 10.7747 7.59413 10.6856 7.50507L10.0046 6.82404C9.86054 6.67999 9.8989 6.43737 10.0828 6.34981C11.8035 5.53073 13.7764 5.00006 16.0009 5.00006ZM12.5837 13.6434C12.4525 13.5122 12.2342 13.5301 12.1388 13.6892C11.7335 14.3647 11.4999 15.1551 11.4999 16.0001C11.5001 18.4851 13.5149 20.5 15.9999 20.5001C16.8447 20.5 17.6346 20.2657 18.3098 19.8603C18.4689 19.7648 18.4868 19.5465 18.3556 19.4153L12.5837 13.6434ZM15.9999 10.0001C19.3135 10.0002 21.9999 12.6865 21.9999 16.0001C21.9999 16.6744 21.887 17.3221 21.6811 17.9268C21.6126 18.128 21.3584 18.1779 21.2081 18.0276L20.4662 17.2856C20.3904 17.2098 20.3615 17.0995 20.3855 16.995C20.459 16.675 20.4999 16.3424 20.4999 16.0001C20.4999 13.5149 18.4851 11.5002 15.9999 11.5001C15.6572 11.5001 15.3236 11.5397 15.003 11.6127C14.8985 11.6365 14.7882 11.6077 14.7125 11.5319L13.9696 10.7891C13.8192 10.6387 13.8692 10.3846 14.0706 10.3163C14.676 10.1111 15.3252 10.0001 15.9999 10.0001Z"
    fill="currentColor"
  />
</svg>
