<svg width="20" height="20" viewBox="0 0 20 20" fill="none" xmlns="http://www.w3.org/2000/svg" data-fui-icon="true">
  <path
    d="M10 2C13.277 2 15.7129 3.83558 17.3047 5.61523C18.9001 7.39915 19.7588 9.24568 19.8975 9.55566C19.945 9.66188 19.9931 9.8136 19.9932 9.99902C19.9932 10.1845 19.9449 10.3361 19.8975 10.4424C19.7592 10.7517 18.9005 12.599 17.3047 14.3838C15.713 16.1639 13.2772 18 10 18C6.72286 18 4.287 16.1639 2.69531 14.3838C1.09958 12.599 0.240834 10.7517 0.102539 10.4424C0.0550595 10.3361 0.00682587 10.1844 0.00683594 9.99902C0.00688921 9.8136 0.0550398 9.66187 0.102539 9.55566L0.341797 9.06055C0.716411 8.32702 1.49853 6.95339 2.69531 5.61523C4.28704 3.83557 6.72301 2.00002 10 2ZM10 4C7.52638 4.00002 5.58873 5.38031 4.18555 6.94922C3.11637 8.14482 2.42224 9.38247 2.10938 9.99902C2.42216 10.6156 3.11598 11.8545 4.18555 13.0508C5.58878 14.6202 7.52642 16 10 16C12.4736 16 14.4112 14.6202 15.8145 13.0508C16.8838 11.8547 17.5768 10.6158 17.8896 9.99902C17.5767 9.38232 16.8834 8.14453 15.8145 6.94922C14.4113 5.38032 12.4736 4 10 4ZM10 5.62891C12.357 5.62895 14.1591 7.64821 14.1592 10C14.159 12.3518 12.357 14.3701 10 14.3701C7.64295 14.3701 5.83997 12.3518 5.83984 10C5.83997 7.64821 7.64294 5.62894 10 5.62891ZM10 7.62891C8.86712 7.62894 7.83997 8.62926 7.83984 10C7.83997 11.3707 8.86712 12.3701 10 12.3701C11.1329 12.3701 12.1591 11.3707 12.1592 10C12.1591 8.62926 11.1329 7.62895 10 7.62891Z"
    fill="currentColor"
  />
</svg>
