<svg width="20" height="20" viewBox="0 0 20 20" fill="none" xmlns="http://www.w3.org/2000/svg" data-fui-icon="true">
  <path
    d="M10.0002 2.50049C13.2333 2.50065 15.663 4.19509 17.2805 5.88721C18.8979 7.57937 19.7729 9.33717 19.9172 9.63916C19.9589 9.72654 19.9992 9.84977 19.9993 9.99951C19.9992 10.1493 19.959 10.2725 19.9172 10.3599C19.7728 10.662 18.898 12.4202 17.2805 14.1128C15.663 15.8053 13.2334 17.5003 10.0002 17.5005C6.76721 17.5004 4.33849 15.8052 2.72095 14.1128C1.10392 12.4208 0.229145 10.663 0.0842285 10.3599C0.0424877 10.2725 0.00126147 10.1494 0.0012207 9.99951C0.00123837 9.84947 0.0424513 9.72657 0.0842285 9.63916L0.329346 9.16357C0.712044 8.46258 1.50753 7.15658 2.72095 5.88721C4.33851 4.19509 6.76712 2.50059 10.0002 2.50049ZM10.0002 4.00049C7.33065 4.00059 5.26725 5.39364 3.80493 6.92334C2.63153 8.15085 1.89071 9.42397 1.58521 9.99951C1.89074 10.5752 2.63165 11.8489 3.80493 13.0767C5.26726 14.6067 7.33085 16.0004 10.0002 16.0005C12.6697 16.0003 14.7332 14.6067 16.1956 13.0767C17.3689 11.8488 18.1098 10.5752 18.4153 9.99951C18.1097 9.42392 17.3686 8.15057 16.1956 6.92334C14.7333 5.39375 12.6696 4.00065 10.0002 4.00049ZM10.0002 6.00049C12.2093 6.00062 14.0002 7.79143 14.0002 10.0005C14 12.2093 12.2091 14.0004 10.0002 14.0005C7.79127 14.0005 6.00051 12.2094 6.00024 10.0005C6.00024 7.79135 7.79111 6.00049 10.0002 6.00049ZM10.0002 7.50049C8.61953 7.50049 7.50024 8.61978 7.50024 10.0005C7.50051 11.381 8.61969 12.5005 10.0002 12.5005C11.3807 12.5004 12.5 11.3809 12.5002 10.0005C12.5002 8.61986 11.3808 7.50062 10.0002 7.50049Z"
    fill="currentColor"
  />
</svg>
