<svg width="16" height="16" viewBox="0 0 16 16" fill="none" xmlns="http://www.w3.org/2000/svg" data-fui-icon="true">
  <path
    fill-rule="evenodd"
    clip-rule="evenodd"
    d="M0.220488 0.219157C0.472769 -0.0326958 0.859358 -0.0670695 1.14887 0.115171C1.17015 0.128565 1.18841 0.146066 1.20548 0.164518C1.21036 0.169786 1.21534 0.174989 1.22044 0.180096L15.7198 14.6795C15.7419 14.7016 15.765 14.7221 15.789 14.7408C15.8088 14.7564 15.8279 14.7729 15.8433 14.7929C16.0699 15.0868 16.0495 15.5094 15.7804 15.779C15.4875 16.0719 15.0127 16.0718 14.7199 15.779L12.0117 13.0709C11.9143 12.9735 11.7634 12.9554 11.6434 13.0231C10.6206 13.5997 9.40616 13.9987 7.99944 13.9988C5.42395 13.9988 3.48957 12.6678 2.2038 11.3427C0.919139 10.0186 0.21694 8.6367 0.0847514 8.36431C-0.0281972 8.1313 -0.0283038 7.86584 0.0847514 7.63289L0.290797 7.23936C0.604299 6.67378 1.24017 5.64742 2.2038 4.65451C2.35301 4.5008 2.51169 4.34749 2.67883 4.19603C2.80848 4.07855 2.81675 3.87591 2.69303 3.7522L0.220488 1.27966C-0.0722855 0.986768 -0.0723569 0.512001 0.220488 0.219157ZM4.17934 5.23851C4.06976 5.12893 3.89439 5.12045 3.77834 5.22315C3.60355 5.37783 3.4372 5.53736 3.27992 5.69939C2.49293 6.51035 1.95301 7.35144 1.66521 7.85452C1.61428 7.94354 1.61426 8.05269 1.66517 8.14173C1.9528 8.64478 2.49304 9.4868 3.2809 10.2988C4.40858 11.4608 5.97913 12.4988 7.99944 12.4989C8.87805 12.4988 9.67136 12.3015 10.3804 11.9838C10.5649 11.9011 10.6014 11.6606 10.4585 11.5177L10.0569 11.116C9.95716 11.0163 9.8021 11.0008 9.67848 11.0686C9.18025 11.3421 8.60882 11.4989 8.00042 11.4989C6.06751 11.4989 4.50057 9.932 4.50057 7.99909C4.50066 7.39059 4.6566 6.81851 4.92994 6.32009C4.99774 6.19644 4.98219 6.04136 4.88248 5.94165L4.17934 5.23851ZM7.99944 1.99935C10.5746 1.99953 12.5094 3.3298 13.7951 4.65451C15.0799 5.97837 15.7828 7.36042 15.9151 7.63289C16.028 7.86566 16.0278 8.13148 15.9151 8.36431C15.8035 8.59443 15.2807 9.61969 14.3432 10.7328C14.232 10.8648 14.032 10.8706 13.9099 10.7486L13.2707 10.1093C13.1591 9.99774 13.1534 9.81909 13.2539 9.69751C13.7552 9.09152 14.1159 8.52051 14.3328 8.14152C14.3838 8.05249 14.3836 7.94353 14.3327 7.85449C14.045 7.35139 13.5059 6.51031 12.719 5.69939C11.5914 4.5376 10.0198 3.49947 7.99944 3.49929C7.63533 3.4993 7.2857 3.53433 6.95075 3.59691C6.85058 3.61563 6.74698 3.58563 6.67492 3.51358L5.91385 2.7525C5.75788 2.59653 5.81835 2.33219 6.03057 2.27209C6.63876 2.09984 7.29513 1.99937 7.99944 1.99935ZM6.47308 7.53225C6.32273 7.3819 6.06962 7.4338 6.03208 7.64309C6.01136 7.75865 6.00054 7.87764 6.00051 7.99909C6.00051 9.10361 6.8959 9.999 8.00042 9.999C8.12159 9.99897 8.24023 9.98797 8.35545 9.96708C8.56471 9.92913 8.61655 9.67572 8.46617 9.52534L6.47308 7.53225ZM8.00042 4.49924C9.93294 4.4995 11.5 6.06658 11.5003 7.99909C11.5003 8.12736 11.3451 8.18376 11.2544 8.09305L7.90613 4.74478C7.81515 4.65381 7.87176 4.49924 8.00042 4.49924Z"
    fill="currentColor"
  />
</svg>
