<svg width="16" height="16" viewBox="0 0 16 16" fill="none" xmlns="http://www.w3.org/2000/svg" data-fui-icon="true">
  <path
    d="M7.99952 1.99992C10.5749 2 12.5094 3.33028 13.7952 4.65508C15.0804 5.97929 15.7832 7.36146 15.9152 7.63348C16.0282 7.86638 16.0281 8.13197 15.9152 8.36489C15.7833 8.63667 15.0803 10.0187 13.7952 11.3433C12.5094 12.6684 10.575 13.9993 7.99952 13.9994C5.42396 13.9994 3.48964 12.6684 2.20386 11.3433C0.919104 10.0191 0.216999 8.6373 0.0848049 8.36489C-0.0282401 8.13183 -0.0282827 7.86649 0.0848049 7.63348L0.290851 7.23994C0.604276 6.67445 1.24 5.64823 2.20386 4.65508C3.48966 3.33034 5.4242 1.99997 7.99952 1.99992ZM7.99952 3.49986C5.97904 3.49991 4.40766 4.53815 3.27999 5.69996C2.41211 6.59428 1.84492 7.52482 1.58474 7.9987C1.84471 8.47244 2.41226 9.4041 3.28096 10.2994C4.40865 11.4615 5.97915 12.4994 7.99952 12.4995C10.02 12.4994 11.5914 11.4616 12.7191 10.2994C13.5873 9.40452 14.1532 8.47256 14.4133 7.9987C14.153 7.5247 13.5868 6.59412 12.7191 5.69996C11.5914 4.53806 10.0201 3.49994 7.99952 3.49986ZM8.0005 4.99979C9.65709 4.99993 11.0002 6.34308 11.0004 7.99967C11.0002 9.65626 9.65709 10.9994 8.0005 10.9995C6.34383 10.9995 5.00075 9.65632 5.00062 7.99967C5.00075 6.34302 6.34383 4.99984 8.0005 4.99979ZM8.0005 6.49973C7.17222 6.49977 6.50069 7.17142 6.50056 7.99967C6.50069 8.82793 7.17222 9.49957 8.0005 9.49961C8.82869 9.49948 9.5003 8.82787 9.50043 7.99967C9.5003 7.17147 8.82869 6.49987 8.0005 6.49973Z"
    fill="currentColor"
  />
</svg>
