<svg width="20" height="20" viewBox="0 0 20 20" fill="none" xmlns="http://www.w3.org/2000/svg" data-fui-icon="true">
  <path
    d="M0.219788 0.219238C0.481281 -0.0420106 0.887269 -0.0691026 1.17975 0.13623C1.19251 0.151161 1.20566 0.166051 1.21979 0.180176L19.7198 18.6802C19.7512 18.7115 19.7853 18.7385 19.8204 18.7632C20.0723 19.0578 20.0589 19.5009 19.7803 19.7798C19.4874 20.0727 19.0127 20.0727 18.7198 19.7798L14.9639 16.0239C13.6016 16.8827 11.9472 17.5004 10.0001 17.5005C6.76724 17.5003 4.33826 15.8052 2.72076 14.1128C1.1044 12.4214 0.229392 10.6639 0.0840454 10.3599C0.0424061 10.2726 0.00116742 10.149 0.0010376 9.99951C0.00113712 9.84996 0.0423906 9.72646 0.0840454 9.63916L0.329163 9.16357C0.711901 8.46256 1.50776 7.15624 2.72076 5.88721C3.04967 5.54316 3.41372 5.19961 3.80963 4.86963L0.219788 1.27979C-0.0729103 0.986876 -0.07304 0.512067 0.219788 0.219238ZM10.0001 2.50049C13.233 2.50067 15.6628 4.19517 17.2803 5.88721C18.897 7.57869 19.7722 9.3362 19.9171 9.63916C19.9586 9.72643 19.999 9.85014 19.9991 9.99951C19.999 10.1489 19.9587 10.2726 19.9171 10.3599C19.772 10.6634 18.8968 12.4212 17.2803 14.1128C17.2793 14.1139 17.2775 14.1146 17.2764 14.1157L13.9239 10.7632C13.9717 10.5163 14 10.2614 14.0001 10.0005C13.9998 7.79166 12.2089 6.00065 10.0001 6.00049C9.7388 6.0005 9.4837 6.02793 9.23639 6.07568L6.40924 3.24854C7.46877 2.7902 8.6657 2.50057 10.0001 2.50049ZM6.69147 7.75146C6.25527 8.3921 6.00015 9.16703 6.00006 10.0005C6.00059 12.2091 7.79136 14.0004 10.0001 14.0005C10.8335 14.0004 11.6074 13.7444 12.2481 13.3081L11.1544 12.2144C10.8088 12.3949 10.4169 12.5004 10.0001 12.5005C8.61979 12.5004 7.50059 11.3807 7.50006 10.0005C7.50013 9.58346 7.60359 9.18991 7.78424 8.84424L6.69147 7.75146Z"
    fill="currentColor"
  />
</svg>
