<svg
  width="16"
  height="16"
  viewBox="0 0 16 16"
  fill="none"
  xmlns="http://www.w3.org/2000/svg"
  data-fui-icon="true"
>
  <path
    d="M8.00005 1.74988C8.79076 1.74988 9.52729 1.9425 10.2043 2.26011M8.00005 1.74988C3.82692 1.74988 1.16306 7.11517 0.794131 7.90361C0.764465 7.96701 0.765862 8.0358 0.795554 8.09918C0.934022 8.39479 1.38562 9.31342 2.11072 10.3537M8.00005 1.74988C7.20934 1.74988 6.4728 1.94255 5.7958 2.26016M8.00005 1.74988C12.1732 1.74988 14.837 7.11522 15.2059 7.90366C15.2356 7.96706 15.2342 8.03585 15.2045 8.09924C15.0661 8.39484 14.6145 9.31348 13.8894 10.3537M8.00005 14.2499C7.20934 14.2499 6.47281 14.0573 5.79582 13.7396M8.00005 14.2499C12.1732 14.2499 14.837 8.88458 15.206 8.09615C15.2356 8.03275 15.2342 7.96396 15.2045 7.90057C15.0661 7.60497 14.6145 6.68633 13.8894 5.64609M8.00005 14.2499C8.79076 14.2499 9.52727 14.0573 10.2043 13.7397M8.00005 14.2499C3.82692 14.2499 1.16304 8.88464 0.794113 8.0962C0.764447 8.0328 0.765844 7.96401 0.795536 7.90062C0.934003 7.60502 1.3856 6.68638 2.11071 5.64614M11.25 7.99998C11.25 9.79491 9.79494 11.25 8.00001 11.25C6.20509 11.25 4.75001 9.79491 4.75001 7.99998C4.75001 6.20506 6.20509 4.74998 8.00001 4.74998C9.79494 4.74998 11.25 6.20506 11.25 7.99998Z"
    stroke="currentColor"
    stroke-width="1.5"
    stroke-linecap="round"
  />
</svg>
