<svg width="17" height="16" viewBox="0 0 17 16" fill="none" xmlns="http://www.w3.org/2000/svg" data-fui-icon="true">
  <path
    fill-rule="evenodd"
    clip-rule="evenodd"
    d="M7.99978 2.00049C10.5754 2.00049 12.5098 3.33086 13.7957 4.65576C15.081 5.98016 15.7839 7.3625 15.9158 7.63428C16.0287 7.86724 16.0288 8.13279 15.9158 8.36572C15.7835 8.63835 15.0805 10.0201 13.7957 11.3442C12.5098 12.6693 10.5753 14.0005 7.99978 14.0005C5.42427 14.0004 3.48969 12.6693 2.20388 11.3442C0.919406 10.0204 0.217202 8.63864 0.0847436 8.36572C-0.0282984 8.13275 -0.0281974 7.86725 0.0847436 7.63428L0.290798 7.24072C0.604151 6.67532 1.23996 5.64904 2.20388 4.65576C3.48971 3.33091 5.42428 2.0006 7.99978 2.00049ZM7.99978 3.50049C5.97916 3.5006 4.40776 4.53875 3.28006 5.70068C2.41211 6.59514 1.84483 7.52576 1.58474 7.99951C1.84477 8.47333 2.41241 9.4051 3.28103 10.3003C4.40873 11.4623 5.97946 12.5004 7.99978 12.5005C10.0204 12.5005 11.5917 11.4625 12.7195 10.3003C13.5877 9.40553 14.1537 8.47354 14.4138 7.99951C14.1536 7.52553 13.5873 6.5949 12.7195 5.70068C11.5917 4.53869 10.0206 3.50049 7.99978 3.50049ZM8.00076 5.00049C9.65761 5.00049 11.0008 6.34363 11.0008 8.00049C11.0005 9.65712 9.65745 11.0005 8.00076 11.0005C6.34418 11.0004 5.00102 9.65704 5.00076 8.00049C5.00076 6.34372 6.34402 5.00062 8.00076 5.00049ZM8.00076 6.50049C7.17244 6.50062 6.50076 7.17214 6.50076 8.00049C6.50102 8.82861 7.17261 9.50036 8.00076 9.50049C8.82902 9.50049 9.50049 8.82869 9.50076 8.00049C9.50076 7.17206 8.82919 6.50049 8.00076 6.50049Z"
    fill="currentColor"
  />
</svg>
