<svg width="24" height="24" viewBox="0 0 24 24" fill="none" xmlns="http://www.w3.org/2000/svg" data-fui-icon="true">
  <path
    fill-rule="evenodd"
    clip-rule="evenodd"
    d="M0.219601 0.219454C0.481113 -0.0418143 0.887078 -0.0689369 1.17956 0.136446C1.19232 0.151376 1.20548 0.166266 1.2196 0.180391L23.7196 22.6804C23.751 22.7117 23.7851 22.7388 23.8202 22.7634C24.0721 23.058 24.0587 23.5012 23.7801 23.78C23.4873 24.0729 23.0125 24.0729 22.7196 23.78L18.079 19.1394C16.4192 20.2187 14.3931 21.0006 11.9999 21.0007C8.11074 21.0005 5.18705 18.9431 3.23718 16.8835C1.28833 14.8248 0.24131 12.6927 0.0828818 12.3581C0.0415649 12.2708 0.00100912 12.1475 0.000850587 11.9997C0.000993622 11.8522 0.0416529 11.7296 0.0828818 11.6423L0.183468 11.4372C0.515998 10.7784 1.53138 8.91984 3.23718 7.11789C3.67428 6.65626 4.1623 6.19583 4.69714 5.75754L0.219601 1.28C-0.0731544 0.987096 -0.073246 0.512301 0.219601 0.219454ZM11.9999 3.0007C15.8891 3.0008 18.8117 5.05848 20.7616 7.11789C22.7114 9.1773 23.7592 11.3094 23.9169 11.6423C23.9582 11.7297 23.9988 11.852 23.9989 11.9997C23.9987 12.1475 23.9582 12.2708 23.9169 12.3581C23.7579 12.6937 22.7098 14.8255 20.7616 16.8835C20.6469 17.0047 20.5278 17.1253 20.4061 17.2458L16.743 13.5827C16.9091 13.0857 16.9998 12.5536 16.9999 12.0007C16.9997 9.23958 14.761 7.0009 11.9999 7.0007C11.4466 7.00073 10.9143 7.09068 10.4169 7.25656L7.26159 4.10129C8.6375 3.43417 10.217 3.0008 11.9999 3.0007ZM7.97351 9.03391C7.36133 9.86353 6.99996 10.8906 6.99987 12.0007C7.0004 14.7616 9.23889 17.0006 11.9999 17.0007C13.1099 17.0006 14.1351 16.6373 14.9647 16.0251L13.8856 14.946C13.3411 15.2953 12.6947 15.5006 11.9999 15.5007C10.0673 15.5006 8.5004 13.9332 8.49987 12.0007C8.49995 11.3057 8.70326 10.6575 9.05261 10.113L7.97351 9.03391ZM11.9999 8.5007C13.9326 8.5009 15.4997 10.068 15.4999 12.0007C15.4998 12.109 15.492 12.2162 15.4823 12.322L11.6776 8.51731C11.7837 8.50761 11.8912 8.50071 11.9999 8.5007Z"
    fill="currentColor"
  />
</svg>
