<svg width="16" height="16" viewBox="0 0 16 16" fill="none" xmlns="http://www.w3.org/2000/svg" data-fui-icon="true">
  <path
    fill-rule="evenodd"
    clip-rule="evenodd"
    d="M7.99948 1.99991C10.5749 1.99999 12.5093 3.33026 13.7951 4.65506C15.0803 5.97927 15.7831 7.36143 15.9151 7.63344C16.0281 7.86634 16.028 8.13193 15.9151 8.36485C15.7833 8.63663 15.0802 10.0187 13.7951 11.3432C12.5094 12.6683 10.575 13.9993 7.99948 13.9994C5.42393 13.9993 3.48961 12.6683 2.20384 11.3432C0.919094 10.0191 0.216993 8.63726 0.0847993 8.36485C-0.0282451 8.13179 -0.0282877 7.86645 0.0847993 7.63344L0.290845 7.2399C0.604268 6.67442 1.23999 5.64821 2.20384 4.65506C3.48963 3.33033 5.42417 1.99996 7.99948 1.99991ZM7.99948 3.49984C5.97901 3.49989 4.40763 4.53812 3.27997 5.69993C2.41209 6.59425 1.8449 7.52479 1.58473 7.99866C1.84469 8.4724 2.41224 9.40406 3.28094 10.2993C4.40863 11.4614 5.97911 12.4994 7.99948 12.4994C10.02 12.4993 11.5913 11.4615 12.719 10.2993C13.5872 9.40448 14.1532 8.47252 14.4132 7.99866C14.153 7.52466 13.5867 6.59409 12.719 5.69993C11.5913 4.53804 10.02 3.49993 7.99948 3.49984ZM8.00045 4.99977C9.65704 4.99991 11.0002 6.34305 11.0003 7.99963C11.0002 9.65622 9.65704 10.9994 8.00045 10.9995C6.34379 10.9995 5.00072 9.65627 5.00059 7.99963C5.00072 6.34299 6.34379 4.99981 8.00045 4.99977ZM8.00045 6.4997C7.17218 6.49974 6.50065 7.17138 6.50052 7.99963C6.50065 8.82789 7.17218 9.49952 8.00045 9.49957C8.82865 9.49943 9.50025 8.82783 9.50038 7.99963C9.50025 7.17144 8.82865 6.49984 8.00045 6.4997Z"
    fill="currentColor"
  />
</svg>
