<svg width="24" height="24" viewBox="0 0 24 24" fill="none" xmlns="http://www.w3.org/2000/svg" data-fui-icon="true">
  <path
    d="M0.22003 0.218992C0.471252 -0.0317276 0.856167 -0.067035 1.14534 0.112528C1.1674 0.126225 1.18627 0.144299 1.20397 0.163294C1.20921 0.168909 1.21455 0.174459 1.22002 0.17993L23.7198 22.6797C23.7419 22.7018 23.7651 22.7219 23.7892 22.7405C23.8089 22.7557 23.8278 22.7721 23.8431 22.7918C24.0708 23.0859 24.0501 23.5103 23.7803 23.7803C23.4876 24.0729 23.0127 24.0728 22.7198 23.7803L18.2511 19.3106C18.1509 19.2104 17.9945 19.1943 17.8743 19.2693C16.2535 20.2805 14.2959 21 12.0002 21C8.11088 20.9999 5.18747 18.9426 3.23758 16.8829C1.28815 14.8236 0.241247 12.6911 0.0833121 12.3575C0.0419414 12.2701 0.00135168 12.1472 0.00128173 11.9991C0.00141028 11.8514 0.0419976 11.7291 0.0833121 11.6417L0.183897 11.4367C0.516399 10.7778 1.5315 8.9195 3.23758 7.11736C3.60453 6.72981 4.00733 6.34316 4.4436 5.96971C4.57836 5.85436 4.58874 5.64824 4.46331 5.52281L0.22003 1.27953C-0.0726025 0.986617 -0.0727741 0.511796 0.22003 0.218992ZM5.95196 7.01244C5.84382 6.90429 5.67138 6.89454 5.55399 6.99258C5.11203 7.36172 4.70287 7.75207 4.32741 8.1486C2.93947 9.61462 2.04842 11.128 1.65681 11.8614C1.61082 11.9476 1.61081 12.0507 1.65678 12.1369C2.04812 12.8702 2.93879 14.3848 4.32741 15.8516C6.12394 17.7493 8.68007 19.4999 12.0002 19.5C13.7722 19.5 15.3254 18.9987 16.6626 18.2448C16.8318 18.1494 16.8591 17.9196 16.7218 17.7822L15.1465 16.207C15.0416 16.1021 14.8763 16.0905 14.7525 16.1723C13.963 16.6945 13.0175 17 12.0002 17.0001C9.23895 17.0001 7.0005 14.7613 7.00023 12.0001C7.0003 10.9827 7.30406 10.0356 7.82604 9.2459C7.90787 9.1221 7.89627 8.95674 7.79134 8.85181L5.95196 7.01244ZM12.0002 3.00021C15.8894 3.00028 18.8119 5.05795 20.7618 7.11736C22.7117 9.17686 23.7595 11.3089 23.9171 11.6417C23.9584 11.7291 23.999 11.8512 23.9991 11.9991C23.999 12.1472 23.9584 12.2701 23.9171 12.3575C23.7589 12.6915 22.711 14.8239 20.7618 16.8829C20.7142 16.9332 20.6658 16.9834 20.6168 17.0336C20.5014 17.1517 20.312 17.1509 20.1953 17.0342L19.5588 16.3976C19.4413 16.2801 19.4421 16.09 19.5581 15.971C19.5968 15.9314 19.6351 15.8916 19.673 15.8516C21.0612 14.3852 21.9512 12.8705 22.3426 12.1369C22.3886 12.0507 22.3886 11.9475 22.3426 11.8614C21.951 11.1278 21.0608 9.61451 19.673 8.1486C17.8764 6.25118 15.3204 4.50026 12.0002 4.5002C10.7524 4.50024 9.61239 4.7468 8.58046 5.15628C8.46709 5.20126 8.33739 5.17623 8.25114 5.08998L7.5601 4.39894C7.41422 4.25305 7.4558 4.00696 7.64461 3.92378C8.92851 3.35811 10.3803 3.00026 12.0002 3.00021ZM9.31637 10.3759C9.18099 10.2405 8.95447 10.2649 8.86877 10.4361C8.63315 10.9068 8.50027 11.4381 8.50022 12.0001C8.50048 13.9329 10.0674 15.5001 12.0002 15.5001C12.5619 15.5 13.0921 15.3664 13.5623 15.1306C13.7334 15.0448 13.7579 14.8183 13.6225 14.6829L9.31637 10.3759ZM12.0002 7.00017C14.7613 7.00033 17 9.23896 17.0001 12.0001C17.0001 12.3835 16.9565 12.7568 16.8744 13.1153C16.8246 13.3326 16.558 13.3968 16.4003 13.2392L15.5821 12.4209C15.519 12.3579 15.488 12.2701 15.4938 12.1812C15.4977 12.1212 15.5001 12.0608 15.5001 12.0001C15.5 10.0674 13.9329 8.50031 12.0002 8.50016C11.9391 8.50016 11.8784 8.50235 11.8181 8.50598C11.7292 8.51134 11.6415 8.48034 11.5785 8.41737L10.7605 7.59929C10.6028 7.44159 10.667 7.17481 10.8845 7.12524C11.2433 7.04346 11.6167 7.00017 12.0002 7.00017Z"
    fill="currentColor"
  />
</svg>
