<svg width="20" height="20" viewBox="0 0 20 20" fill="none" xmlns="http://www.w3.org/2000/svg" data-fui-icon="true">
  <path
    d="M0.219999 0.218991C0.47122 -0.0317275 0.856134 -0.0670349 1.14531 0.112528C1.16737 0.126225 1.18624 0.144298 1.20394 0.163293C1.20917 0.168908 1.21452 0.174458 1.21999 0.179929L19.7198 18.6797C19.7418 18.7018 19.7651 18.7219 19.7892 18.7405C19.8089 18.7557 19.8278 18.7721 19.8431 18.7918C20.0708 19.0859 20.0501 19.5103 19.7803 19.7803C19.4875 20.0729 19.0127 20.0728 18.7198 19.7803L15.1324 16.1929C15.0333 16.0938 14.8791 16.0769 14.759 16.1489C13.4367 16.9417 11.851 17.4999 10.0002 17.5C6.76716 17.4999 4.33846 15.8048 2.72094 14.1124C1.10402 12.4204 0.229168 10.6627 0.084258 10.3595C0.0425564 10.2721 0.00129194 10.1489 0.00125121 9.99915C0.00132569 9.84925 0.0425101 9.72615 0.084258 9.6388L0.329372 9.16322C0.71212 8.46217 1.50769 7.15609 2.72094 5.88689C2.97959 5.61633 3.25911 5.3457 3.55926 5.08195C3.69177 4.96551 3.70128 4.7608 3.57654 4.63607L0.219999 1.27953C-0.0726329 0.986615 -0.0728045 0.511795 0.219999 0.218991ZM5.06554 6.12507C4.95684 6.01637 4.78327 6.0071 4.66639 6.10694C4.35921 6.36934 4.07187 6.64377 3.80492 6.92301C2.71892 8.05908 2.00336 9.23443 1.66059 9.85949C1.61271 9.9468 1.61271 10.0515 1.66057 10.1388C2.0033 10.764 2.71894 11.9398 3.80492 13.0763C5.26723 14.6063 7.33079 15.9999 10.0002 16C11.3265 16 12.5022 15.654 13.5297 15.1197C13.7046 15.0288 13.7352 14.7949 13.5958 14.6555L12.4228 13.4832C12.3209 13.3814 12.1616 13.3674 12.0378 13.441C11.441 13.7955 10.7446 14 10.0002 14.0001C7.7912 14.0001 6.00047 12.209 6.0002 10.0001C6.00026 9.25536 6.20293 8.55702 6.55728 7.95971C6.63081 7.83576 6.61686 7.67639 6.51495 7.57448L5.06554 6.12507ZM10.0002 2.50021C13.2331 2.50039 15.6628 4.19485 17.2803 5.88689C18.8973 7.57859 19.7723 9.33613 19.917 9.6388C19.9587 9.72612 19.999 9.84954 19.9991 9.99915C19.999 10.1488 19.9587 10.2721 19.917 10.3595C19.7726 10.6616 18.8977 12.4198 17.2803 14.1124C17.2785 14.1143 17.2749 14.1137 17.273 14.1118L16.4218 13.2607C16.3067 13.1456 16.3047 12.9599 16.4142 12.8394C17.3776 11.7791 18.0206 10.7206 18.3397 10.1388C18.3876 10.0515 18.3876 9.9468 18.3397 9.85949C17.9969 9.23438 17.2811 8.05884 16.1954 6.92301C14.7331 5.3935 12.6694 4.00037 10.0002 4.0002C9.19324 4.00023 8.44166 4.12792 7.74534 4.34789C7.6361 4.3824 7.51621 4.35508 7.4352 4.27408L6.72156 3.56043C6.57179 3.41067 6.6204 3.15738 6.81852 3.08249C7.77429 2.72119 8.83485 2.50025 10.0002 2.50021ZM8.07223 9.13265C7.92902 8.98948 7.6879 9.02735 7.62468 9.21973C7.54399 9.46532 7.50022 9.72773 7.50018 10.0001C7.50045 11.3806 8.61962 12.5001 10.0002 12.5001C10.2726 12.5001 10.5345 12.4555 10.7797 12.3743C10.972 12.3106 11.0097 12.0693 10.8665 11.9261L8.07223 9.13265ZM10.0002 6.00017C12.209 6.00032 13.9999 7.79125 14.0001 10.0001C14.0001 10.0683 13.9982 10.136 13.9945 10.2033C13.9813 10.4433 13.6948 10.5337 13.5248 10.3637L12.4203 9.25915C12.3874 9.22624 12.3629 9.18602 12.3469 9.14232C12.0946 8.45243 11.5479 7.90564 10.858 7.65339C10.8143 7.63741 10.774 7.6129 10.7411 7.57999L9.63602 6.4749C9.46596 6.30484 9.55659 6.01855 9.79675 6.00566C9.86411 6.00204 9.93192 6.00017 10.0002 6.00017Z"
    fill="currentColor"
  />
</svg>
