<svg width="32" height="32" viewBox="0 0 32 32" fill="none" xmlns="http://www.w3.org/2000/svg" data-fui-icon="true">
  <path
    fill-rule="evenodd"
    clip-rule="evenodd"
    d="M16.0007 5.00049C20.8625 5.00068 24.5229 7.53188 26.9743 10.0806C29.4254 12.6291 30.7353 15.2611 30.9157 15.6362C31.0271 15.8681 31.0272 16.132 30.9157 16.3638C30.7344 16.7408 29.4246 19.3726 26.9743 21.9204C24.523 24.4694 20.8625 27.0003 16.0007 27.0005C11.139 27.0005 7.47854 24.4693 5.02707 21.9204C2.57774 19.3735 1.26781 16.7424 1.08567 16.3638C0.974156 16.1319 0.974206 15.8681 1.08567 15.6362C1.2665 15.2603 2.57622 12.6287 5.02707 10.0806C7.47856 7.5318 11.1386 5.00049 16.0007 5.00049ZM16.0007 6.50049C11.6989 6.50049 8.40318 8.73363 6.10813 11.1196C4.16587 13.139 2.98752 15.2212 2.58176 15.9995C2.98745 16.7778 4.16569 18.8606 6.10813 20.8804C8.40319 23.2667 11.699 25.5005 16.0007 25.5005C20.3025 25.5003 23.5983 23.2667 25.8933 20.8804C27.8354 18.8609 29.0118 16.7781 29.4177 15.9995C29.0117 15.2208 27.8349 13.1384 25.8933 11.1196C23.5983 8.73361 20.3025 6.50068 16.0007 6.50049ZM15.9997 10.0005C19.3134 10.0005 21.9997 12.6868 21.9997 16.0005C21.9995 19.314 19.3133 22.0005 15.9997 22.0005C12.6863 22.0004 9.99999 19.3139 9.99973 16.0005C9.99973 12.6869 12.6861 10.0006 15.9997 10.0005ZM15.9997 11.5005C13.5146 11.5006 11.4997 13.5153 11.4997 16.0005C11.5 18.4855 13.5147 20.5004 15.9997 20.5005C18.4848 20.5005 20.4995 18.4855 20.4997 16.0005C20.4997 13.5152 18.485 11.5005 15.9997 11.5005Z"
    fill="currentColor"
  />
</svg>
