<svg width="24" height="24" viewBox="0 0 24 24" fill="none" xmlns="http://www.w3.org/2000/svg" data-fui-icon="true">
  <path
    d="M12.2822 3.00391C12.3935 3.00727 12.5044 3.01424 12.6143 3.02148C12.6572 3.02431 12.7004 3.02785 12.7432 3.03125C12.789 3.03491 12.8352 3.03865 12.8809 3.04297C12.9405 3.0486 13.0003 3.05479 13.0596 3.06152C13.093 3.06534 13.1268 3.06909 13.1602 3.07324C13.2257 3.08141 13.2914 3.09012 13.3564 3.09961C13.3828 3.10345 13.4093 3.10824 13.4355 3.1123C13.5054 3.12309 13.5753 3.13422 13.6445 3.14648C13.6477 3.14704 13.6512 3.14786 13.6543 3.14844C13.9931 3.20887 14.3245 3.28755 14.6484 3.38086C14.6701 3.3871 14.6923 3.39304 14.7139 3.39941C14.8708 3.44577 15.0263 3.49552 15.1797 3.54883C15.1877 3.55163 15.1961 3.55479 15.2041 3.55762C15.5222 3.66911 15.8335 3.79352 16.1357 3.93164C16.1419 3.93443 16.1482 3.93762 16.1543 3.94043L16.1572 3.94238C17.7911 4.69317 19.1899 5.80018 20.3154 6.91602C20.3616 6.96183 20.4068 7.00877 20.4521 7.05469C20.4582 7.06044 20.4648 7.06628 20.4707 7.07227C20.5024 7.10442 20.5332 7.13773 20.5645 7.16992C20.627 7.23429 20.689 7.29887 20.75 7.36328C20.8163 7.4333 20.882 7.50331 20.9463 7.57324C20.9884 7.61901 21.031 7.66429 21.0723 7.70996C21.1222 7.76517 21.1711 7.82097 21.2197 7.87598C21.2934 7.95922 21.3657 8.04243 21.4365 8.125C21.4662 8.15962 21.4962 8.19405 21.5254 8.22852C21.5872 8.30152 21.6484 8.37408 21.708 8.44629C21.8738 8.6472 22.0307 8.84502 22.1787 9.03711C22.2021 9.06741 22.2251 9.09791 22.248 9.12793C22.3351 9.24206 22.4165 9.35618 22.4971 9.46582C22.5833 9.58327 22.6684 9.69631 22.7471 9.80762C22.7704 9.84057 22.7928 9.87389 22.8154 9.90625C22.9327 10.074 23.0416 10.2333 23.1406 10.3828C23.1981 10.4697 23.2515 10.5541 23.3027 10.6338C23.5684 11.0472 23.7511 11.3589 23.8418 11.5205C24.0102 11.8207 24.0102 12.1793 23.8418 12.4795C23.7599 12.6255 23.6032 12.8944 23.3779 13.25C23.3059 13.3636 23.2267 13.4862 23.1406 13.6162C23.0781 13.7106 23.0103 13.8082 22.9404 13.9102C22.8783 14.0008 22.8149 14.0955 22.7471 14.1914C22.6816 14.284 22.6117 14.3777 22.541 14.4746C22.449 14.6007 22.3547 14.732 22.2539 14.8643C22.2292 14.8966 22.2039 14.9292 22.1787 14.9619C22.0307 15.154 21.8738 15.3518 21.708 15.5527C21.6673 15.602 21.6257 15.6515 21.584 15.7012C21.5403 15.7533 21.4961 15.806 21.4512 15.8584C21.3878 15.9324 21.3225 16.0064 21.2568 16.0811C21.1999 16.1457 21.1426 16.2114 21.084 16.2764C21.0389 16.3263 20.9923 16.3757 20.9463 16.4258C20.882 16.4957 20.8163 16.5657 20.75 16.6357C20.6926 16.6964 20.635 16.7578 20.5762 16.8184C20.5411 16.8545 20.5063 16.8916 20.4707 16.9277C20.4649 16.9336 20.458 16.9387 20.4521 16.9443C20.4066 16.9904 20.3618 17.038 20.3154 17.084C19.19 18.1997 17.7909 19.3059 16.1572 20.0566C16.1563 20.0573 16.1552 20.0591 16.1543 20.0596C16.1483 20.0623 16.1417 20.0646 16.1357 20.0674C15.8334 20.2056 15.5224 20.3308 15.2041 20.4424C15.1961 20.4452 15.1877 20.4484 15.1797 20.4512C15.0263 20.5045 14.8708 20.5542 14.7139 20.6006C14.6923 20.607 14.6701 20.6129 14.6484 20.6191C14.3245 20.7124 13.9931 20.7911 13.6543 20.8516C13.6512 20.8521 13.6477 20.853 13.6445 20.8535C13.5753 20.8658 13.5054 20.8769 13.4355 20.8877C13.4093 20.8918 13.3828 20.8965 13.3564 20.9004C13.2914 20.9099 13.2257 20.9186 13.1602 20.9268C13.1268 20.9309 13.093 20.9347 13.0596 20.9385C13.0003 20.9452 12.9405 20.9514 12.8809 20.957C12.8352 20.9613 12.789 20.9651 12.7432 20.9688C12.7004 20.9722 12.6572 20.9757 12.6143 20.9785C12.5044 20.9858 12.3935 20.9927 12.2822 20.9961L12 21L11.7178 20.9961C11.6052 20.9927 11.493 20.9859 11.3818 20.9785C11.3428 20.9759 11.3035 20.9728 11.2646 20.9697C11.2138 20.9657 11.1628 20.9609 11.1123 20.9561C11.0569 20.9508 11.0013 20.9457 10.9463 20.9395C10.9082 20.9351 10.8699 20.9305 10.832 20.9258C10.7688 20.9178 10.7053 20.9096 10.6426 20.9004C10.6163 20.8965 10.5897 20.8918 10.5635 20.8877C10.1501 20.8238 9.74717 20.7337 9.35547 20.6211C9.33112 20.6141 9.30649 20.6068 9.28223 20.5996C9.12601 20.5534 8.97101 20.5043 8.81836 20.4512C8.81031 20.4484 8.80198 20.4452 8.79395 20.4424C8.4848 20.334 8.18284 20.2117 7.88867 20.0781C7.8743 20.0716 7.85905 20.0661 7.84473 20.0596C7.84147 20.058 7.83821 20.0553 7.83496 20.0537C6.20436 19.3029 4.80835 18.1981 3.68457 17.084C3.63985 17.0396 3.59669 16.9937 3.55273 16.9492C3.54499 16.942 3.5358 16.9353 3.52832 16.9277C3.49174 16.8906 3.45596 16.8526 3.41992 16.8154C3.36389 16.7577 3.30863 16.6994 3.25391 16.6416C3.17651 16.5599 3.10015 16.4781 3.02539 16.3965C2.9887 16.3564 2.95206 16.3163 2.91602 16.2764C2.85112 16.2044 2.78743 16.1321 2.72461 16.0605C2.67918 16.0088 2.6332 15.9577 2.58887 15.9062C2.52174 15.8283 2.4562 15.75 2.3916 15.6729C2.35357 15.6274 2.31547 15.5822 2.27832 15.5371C2.23026 15.4787 2.1833 15.42 2.13672 15.3623C2.0874 15.3012 2.03787 15.241 1.99023 15.1807C1.94066 15.1179 1.89247 15.0549 1.84473 14.9932C1.81907 14.96 1.7927 14.9274 1.76758 14.8945L1.7002 14.8047C1.61568 14.693 1.53618 14.5818 1.45801 14.4746C1.38704 14.3774 1.31664 14.2833 1.25098 14.1904C1.18336 14.0948 1.11955 14.0006 1.05762 13.9102C0.987786 13.8082 0.91993 13.7106 0.857422 13.6162C0.800191 13.5298 0.747306 13.4456 0.696289 13.3662C0.430617 12.9528 0.247819 12.641 0.157227 12.4795C-0.0109105 12.1795 -0.0109093 11.8205 0.157227 11.5205L0.306641 11.2627C0.321575 11.2374 0.338041 11.2111 0.354492 11.1836C0.466405 10.9962 0.613477 10.7582 0.793945 10.4824C0.81509 10.4501 0.835363 10.4161 0.857422 10.3828C0.956496 10.2332 1.06621 10.0742 1.18359 9.90625C1.20596 9.87425 1.22795 9.84118 1.25098 9.80859C1.35319 9.66397 1.4641 9.5151 1.5791 9.36035C1.62787 9.29473 1.67554 9.22633 1.72656 9.15918C1.78017 9.08864 1.83551 9.01735 1.8916 8.94531C1.92448 8.90309 1.95749 8.86007 1.99121 8.81738C2.04544 8.74875 2.1018 8.68005 2.1582 8.61035C2.20243 8.55571 2.24742 8.50052 2.29297 8.44531C2.3332 8.39656 2.37476 8.34796 2.41602 8.29883C2.48031 8.22227 2.54553 8.14469 2.6123 8.06738C2.64929 8.02456 2.68687 7.98148 2.72461 7.93848C2.7937 7.85976 2.86394 7.78032 2.93555 7.70117C2.96827 7.665 3.00191 7.62901 3.03516 7.59277C3.10692 7.51457 3.17973 7.43574 3.25391 7.35742C3.30941 7.29881 3.366 7.24021 3.42285 7.18164C3.45795 7.14548 3.49272 7.10838 3.52832 7.07227C3.53596 7.06452 3.54483 7.05714 3.55273 7.0498C3.59653 7.00553 3.64002 6.9602 3.68457 6.91602C5.02283 5.58925 6.74675 4.27543 8.79395 3.55762C8.80198 3.5548 8.81031 3.55163 8.81836 3.54883C8.97101 3.49573 9.12601 3.4466 9.28223 3.40039C9.30649 3.39322 9.33112 3.38591 9.35547 3.37891C9.74717 3.26626 10.1501 3.17622 10.5635 3.1123C10.5897 3.10824 10.6163 3.10346 10.6426 3.09961C10.7053 3.09045 10.7688 3.08215 10.832 3.07422C10.8699 3.06946 10.9082 3.06486 10.9463 3.06055C11.0013 3.05433 11.0569 3.04921 11.1123 3.04395C11.1628 3.03913 11.2138 3.03429 11.2646 3.03027C11.3035 3.02722 11.3428 3.02407 11.3818 3.02148C11.5854 3.008 11.7919 3.00001 12 3L12.2822 3.00391ZM11.5869 4.51172C11.5571 4.51328 11.5268 4.51372 11.4971 4.51562C11.3654 4.52412 11.2343 4.53685 11.1045 4.55176C11.0808 4.55448 11.0568 4.55762 11.0332 4.56055C10.9008 4.57697 10.769 4.59635 10.6387 4.61914C10.6114 4.62392 10.5839 4.62972 10.5566 4.63477C10.3048 4.68149 10.0565 4.73979 9.8125 4.80859C9.76964 4.82067 9.7262 4.832 9.68359 4.84473C9.57515 4.87713 9.46717 4.91181 9.36035 4.94824C9.23331 4.99159 9.10717 5.03813 8.98242 5.08691C7.35267 5.72392 5.92315 6.80869 4.74023 7.98145C4.60108 8.11942 4.46616 8.25877 4.33496 8.39746C4.29688 8.43772 4.25908 8.47831 4.22168 8.51855C4.14814 8.59768 4.07578 8.67698 4.00488 8.75586C3.95919 8.80671 3.91373 8.85754 3.86914 8.9082C3.82485 8.95852 3.78049 9.00853 3.7373 9.05859C3.67302 9.13313 3.60967 9.20746 3.54785 9.28125C3.51277 9.32313 3.47862 9.36564 3.44434 9.40723C3.39277 9.46978 3.34173 9.53198 3.29199 9.59375C3.25395 9.64098 3.21567 9.68767 3.17871 9.73438C3.12418 9.80329 3.07072 9.87185 3.01855 9.93945C2.99332 9.97215 2.96804 10.0048 2.94336 10.0371C2.8344 10.18 2.73271 10.321 2.63477 10.4561C2.58388 10.5262 2.53321 10.5945 2.48535 10.6621C2.34771 10.8566 2.22152 11.0396 2.10938 11.209C1.9843 11.3979 1.87555 11.5696 1.7832 11.7188C1.7185 11.8233 1.66439 11.9187 1.61621 12C1.66024 12.0743 1.70973 12.1601 1.76758 12.2539C1.89708 12.4639 2.06236 12.7191 2.25879 13.0078C2.33037 13.113 2.40517 13.2236 2.48535 13.3369C2.52741 13.3963 2.57182 13.4562 2.61621 13.5176C2.71605 13.6556 2.82017 13.7998 2.93164 13.9463C2.96017 13.9838 2.98928 14.0216 3.01855 14.0596C3.07072 14.1272 3.12418 14.1957 3.17871 14.2646C3.20209 14.2942 3.22619 14.3238 3.25 14.3535C3.31222 14.4313 3.37626 14.5098 3.44141 14.5889C3.47654 14.6315 3.51188 14.6748 3.54785 14.7178C3.60967 14.7916 3.67302 14.8659 3.7373 14.9404C3.77662 14.986 3.81719 15.0314 3.85742 15.0771C3.90032 15.126 3.94337 15.1756 3.9873 15.2246C4.05748 15.3029 4.12936 15.3814 4.20215 15.46C4.2412 15.5021 4.28052 15.5447 4.32031 15.5869C4.45611 15.7308 4.59588 15.8754 4.74023 16.0186C5.92307 17.1912 7.35281 18.2751 8.98242 18.9121C9.10718 18.9609 9.2333 19.0074 9.36035 19.0508C9.46718 19.0872 9.57514 19.1219 9.68359 19.1543C9.72402 19.1664 9.76501 19.178 9.80566 19.1895C10.0518 19.2591 10.3025 19.3171 10.5566 19.3643C10.5839 19.3693 10.6114 19.3751 10.6387 19.3799C10.769 19.4027 10.9008 19.4221 11.0332 19.4385C11.0568 19.4414 11.0808 19.4445 11.1045 19.4473C11.2343 19.4622 11.3654 19.4749 11.4971 19.4834C11.5268 19.4853 11.5571 19.4857 11.5869 19.4873C11.7234 19.4945 11.8615 19.5 12 19.5L12.4111 19.4873C12.441 19.4857 12.4712 19.4853 12.501 19.4834C12.6334 19.4749 12.7651 19.4623 12.8955 19.4473C12.9179 19.4447 12.9406 19.4422 12.9629 19.4395C13.095 19.4231 13.2264 19.4035 13.3564 19.3809C13.3884 19.3753 13.4204 19.3682 13.4521 19.3623C13.6986 19.3163 13.9417 19.2596 14.1807 19.1924C14.2259 19.1797 14.2714 19.1668 14.3164 19.1533C14.4219 19.1218 14.5269 19.0881 14.6309 19.0527C14.7632 19.0077 14.8945 18.9591 15.0244 18.9082C16.6509 18.2708 18.0778 17.1894 19.2588 16.0186C19.3939 15.8846 19.5247 15.7489 19.6523 15.6143C19.7233 15.5393 19.7937 15.4645 19.8623 15.3896C19.9069 15.341 19.9515 15.2926 19.9951 15.2441C20.045 15.1886 20.094 15.1325 20.1426 15.0771C20.1963 15.016 20.2497 14.9553 20.3018 14.8945C20.3379 14.8524 20.3729 14.8095 20.4082 14.7676C20.4607 14.7054 20.5128 14.6436 20.5635 14.582C20.6033 14.5336 20.6429 14.4854 20.6816 14.4375C20.739 14.3666 20.7957 14.2963 20.8506 14.2266C20.8856 14.1821 20.9201 14.1376 20.9541 14.0938C20.9924 14.0443 21.0303 13.995 21.0674 13.9463C21.1675 13.8148 21.2608 13.6844 21.3516 13.5596C21.7132 13.0621 22.0013 12.6247 22.207 12.293C22.2748 12.1836 22.3318 12.0844 22.3818 12C22.3317 11.9154 22.275 11.8157 22.207 11.7061C21.9957 11.3654 21.6976 10.9133 21.3223 10.3994C21.2368 10.2825 21.1492 10.1607 21.0557 10.0381C21.0034 9.96949 20.9493 9.90015 20.8945 9.83008C20.8777 9.80849 20.8609 9.78636 20.8438 9.76465C20.7909 9.69758 20.7368 9.62969 20.6816 9.56152C20.6429 9.51361 20.6033 9.46537 20.5635 9.41699C20.5128 9.35543 20.4607 9.29365 20.4082 9.23145C20.3689 9.18487 20.3293 9.13768 20.2891 9.09082C20.2369 9.03015 20.1836 8.96926 20.1299 8.9082C20.08 8.85156 20.0298 8.79418 19.9785 8.7373C19.9286 8.68194 19.8774 8.62679 19.8262 8.57129C19.769 8.50931 19.7111 8.44679 19.6523 8.38477C19.5249 8.25025 19.3938 8.11525 19.2588 7.98145C18.0777 6.81055 16.651 5.72818 15.0244 5.09082C14.8945 5.0399 14.7632 4.99132 14.6309 4.94629C14.5269 4.91095 14.4219 4.87723 14.3164 4.8457C14.2714 4.83227 14.2259 4.81936 14.1807 4.80664C13.9418 4.73947 13.6986 4.68273 13.4521 4.63672C13.4204 4.63078 13.3884 4.62372 13.3564 4.61816C13.2264 4.59551 13.095 4.57589 12.9629 4.55957C12.9406 4.55682 12.9179 4.55432 12.8955 4.55176C12.7651 4.53678 12.6333 4.52413 12.501 4.51562C12.4712 4.51373 12.441 4.51329 12.4111 4.51172C12.2752 4.50456 12.1379 4.50001 12 4.5C11.8615 4.50001 11.7234 4.5045 11.5869 4.51172ZM12 7C14.7613 7.00016 17 9.23868 17 12C17 14.7613 14.7613 16.9998 12 17C9.23876 16.9998 7 14.7613 7 12C7 9.23871 9.23876 7.00022 12 7ZM12 8.5C10.0672 8.50022 8.5 10.0671 8.5 12C8.5 13.9329 10.0672 15.4998 12 15.5C13.9329 15.4998 15.5 13.9329 15.5 12C15.5 10.0671 13.9329 8.50016 12 8.5Z"
    fill="currentColor"
  />
</svg>
