<svg width="12" height="12" viewBox="0 0 12 12" fill="none" xmlns="http://www.w3.org/2000/svg" data-fui-icon="true">
  <path
    fill-rule="evenodd"
    clip-rule="evenodd"
    d="M0.219595 0.2202C0.476628 -0.0368332 0.873566 -0.0686267 1.16489 0.125475L11.7194 10.68C11.7512 10.7118 11.7853 10.74 11.821 10.7649C12.0716 11.0596 12.0583 11.5022 11.7799 11.7805C11.4871 12.0732 11.0123 12.0731 10.7194 11.7805L8.72237 9.78351C7.95952 10.206 7.05211 10.5002 5.99977 10.5003C4.08908 10.5002 2.65295 9.53656 1.70004 8.57943C0.749123 7.62411 0.218759 6.61786 0.0985039 6.37634C-0.0191915 6.13964 -0.0191011 5.86113 0.0985039 5.6244L0.265493 5.31288C0.509522 4.88351 0.986499 4.13819 1.70004 3.42131C1.80693 3.31394 1.91986 3.2062 2.0389 3.10003L0.219595 1.28073C-0.0732455 0.987887 -0.0731515 0.513099 0.219595 0.2202ZM4.158 5.21913C4.05612 5.45907 3.9998 5.72327 3.9998 6.00037C4.00002 7.10469 4.89542 8.00025 5.99977 8.00033C6.27669 8.00029 6.54022 7.94296 6.78003 7.84116L4.158 5.21913ZM5.99977 1.50045C7.91055 1.50057 9.34661 2.46412 10.2995 3.42131C11.2507 4.37706 11.7812 5.38361 11.901 5.6244C12.0186 5.86109 12.0187 6.13969 11.901 6.37634C11.8132 6.55283 11.5042 7.13713 10.9733 7.81284L4.79471 1.63424C5.17284 1.54927 5.57442 1.50046 5.99977 1.50045Z"
    fill="currentColor"
  />
</svg>
