<svg
  width="16"
  height="16"
  viewBox="0 0 16 16"
  fill="none"
  xmlns="http://www.w3.org/2000/svg"
  data-fui-icon="true"
>
  <path
    d="M8.00002 1.74988C8.79073 1.74988 9.52726 1.9425 10.2043 2.26011M8.00002 1.74988C3.82689 1.74988 1.16303 7.11517 0.794101 7.90361C0.764435 7.96701 0.765831 8.0358 0.795523 8.09918C0.933991 8.39479 1.38559 9.31342 2.11069 10.3537M8.00002 1.74988C7.20931 1.74988 6.47276 1.94255 5.79577 2.26016M8.00002 1.74988C12.1731 1.74988 14.837 7.11522 15.2059 7.90366C15.2356 7.96706 15.2342 8.03585 15.2045 8.09924C15.066 8.39484 14.6144 9.31348 13.8893 10.3537M8.00002 14.2499C7.20931 14.2499 6.47278 14.0573 5.79579 13.7396M8.00002 14.2499C12.1731 14.2499 14.837 8.88458 15.2059 8.09615C15.2356 8.03275 15.2342 7.96396 15.2045 7.90057C15.066 7.60497 14.6144 6.68633 13.8893 5.64609M8.00002 14.2499C8.79073 14.2499 9.52724 14.0573 10.2042 13.7397M8.00002 14.2499C3.82689 14.2499 1.16301 8.88464 0.794082 8.0962C0.764416 8.0328 0.765813 7.96401 0.795505 7.90062C0.933973 7.60502 1.38557 6.68638 2.11068 5.64614M11.25 7.99998C11.25 9.79491 9.79491 11.25 7.99998 11.25C6.20506 11.25 4.74998 9.79491 4.74998 7.99998C4.74998 6.20506 6.20506 4.74998 7.99998 4.74998C9.79491 4.74998 11.25 6.20506 11.25 7.99998Z"
    stroke="currentColor"
    stroke-width="1.5"
    stroke-linecap="round"
  />
</svg>
