<svg width="32" height="32" viewBox="0 0 32 32" fill="none" xmlns="http://www.w3.org/2000/svg" data-fui-icon="true">
  <path
    d="M1.21991 1.21973C1.5128 0.926834 1.98756 0.926834 2.28046 1.21973L2.57928 1.51855C2.5829 1.52233 2.58631 1.52656 2.59003 1.53027L30.59 29.5303C30.5935 29.5337 30.5973 29.5367 30.6008 29.54L30.7805 29.7197C31.0732 30.0126 31.0733 30.4874 30.7805 30.7803C30.4876 31.073 30.0128 31.073 29.7199 30.7803L23.633 24.6934C21.5484 26.0326 19.0044 26.9998 16.0012 27C11.1396 27 7.479 24.4687 5.02753 21.9199C2.57867 19.3735 1.26864 16.7426 1.08612 16.3633C0.974707 16.1315 0.974698 15.8676 1.08612 15.6357C1.26772 15.2583 2.57756 12.6273 5.02753 10.0801C5.64912 9.43386 6.34831 8.78854 7.12518 8.18555L1.21991 2.28027C0.927065 1.98743 0.92716 1.51263 1.21991 1.21973ZM16.0012 5C20.8627 5.00038 24.5235 7.5315 26.9748 10.0801C29.4253 12.6281 30.7354 15.26 30.9162 15.6357C31.0273 15.8673 31.0272 16.1308 30.9162 16.3623V16.3633C30.7348 16.7403 29.4248 19.3722 26.9748 21.9199C26.6765 22.2301 26.359 22.5388 26.0246 22.8438L21.5226 18.3418C21.8289 17.6222 22.0001 16.8313 22.0002 16C22 12.6866 19.3136 10.0002 16.0002 10C15.1685 10 14.3765 10.1695 13.6564 10.4756L9.71307 6.53223C11.5192 5.61009 13.6154 5 16.0012 5ZM11.2609 12.3213C10.4711 13.3373 10.0003 14.6135 10.0002 16C10.0005 19.3134 12.6867 22 16.0002 22C17.3866 21.9999 18.662 21.5281 19.6779 20.7383L18.6066 19.667C17.8711 20.1909 16.972 20.4999 16.0002 20.5C13.5151 20.5 11.5005 18.485 11.5002 16C11.5003 15.0281 11.8083 14.1282 12.3322 13.3926L11.2609 12.3213ZM16.0002 11.5C18.4852 11.5002 20.5 13.515 20.5002 16C20.5001 16.4026 20.4434 16.7918 20.3439 17.1631L14.8351 11.6543C15.2069 11.5548 15.5971 11.5 16.0002 11.5Z"
    fill="currentColor"
  />
</svg>
