<svg width="16" height="16" viewBox="0 0 16 16" fill="none" xmlns="http://www.w3.org/2000/svg" data-fui-icon="true">
  <path
    d="M6.18803 15.3331V10.3276H4.64011V8.02721H6.18803V7.0361C6.18803 4.47395 7.343 3.28757 9.848 3.28757C10.3222 3.28757 11.1409 3.38083 11.4772 3.47408V5.55786C11.3001 5.53989 10.9909 5.53068 10.6101 5.53068C9.38007 5.53068 8.90592 5.99737 8.90592 7.21382V8.02721H11.3572L10.9372 10.3272H8.9093V15.5C12.6228 15.0485 15.5 11.8751 15.5 8.02721C15.5 3.8701 12.1421 0.5 8 0.5C3.85791 0.5 0.5 3.8701 0.5 8.02721C0.5 11.5574 2.9211 14.5197 6.18803 15.3331Z"
    fill="currentColor"
  />
</svg>
