<svg width="24" height="24" viewBox="0 0 24 24" fill="none" xmlns="http://www.w3.org/2000/svg" data-fui-icon="true">
  <path
    d="M18.7998 1C21.1194 1 23 2.8806 23 5.2002V18.7998C23 21.1194 21.1194 23 18.7998 23H5.2002C2.8806 23 1 21.1194 1 18.7998V5.2002C1 2.8806 2.8806 1 5.2002 1H18.7998ZM16.5938 15.749C16.3172 15.2711 15.7056 15.1083 15.2275 15.3848C14.2849 15.93 13.0694 16.2499 12.001 16.25C10.9327 16.25 9.71705 15.93 8.77441 15.3848C8.29647 15.1083 7.68484 15.2712 7.4082 15.749C7.13173 16.227 7.29467 16.8386 7.77246 17.1152C9.02271 17.8385 10.5846 18.25 12.001 18.25C13.4173 18.2499 14.9783 17.8384 16.2285 17.1152C16.7066 16.8387 16.8703 16.2271 16.5938 15.749ZM12.25 7C11.6977 7 11.25 7.44772 11.25 8V10.5C11.25 11.3037 11.0717 11.6681 10.9512 11.8154C10.8546 11.9334 10.7252 12 10.5 12C9.94772 12 9.5 12.4477 9.5 13C9.5 13.5523 9.94772 14 10.5 14C11.2066 14 11.9526 13.7482 12.498 13.082C13.0195 12.4451 13.25 11.5596 13.25 10.5V8C13.25 7.44772 12.8023 7 12.25 7ZM7 7C6.44772 7 6 7.44772 6 8V10C6 10.5523 6.44772 11 7 11C7.55228 11 8 10.5523 8 10V8C8 7.44772 7.55228 7 7 7ZM17 7C16.4477 7 16 7.44772 16 8V10C16 10.5523 16.4477 11 17 11C17.5523 11 18 10.5523 18 10V8C18 7.44772 17.5523 7 17 7Z"
    fill="currentColor"
  />
</svg>
