<svg width="16" height="16" viewBox="0 0 16 16" fill="none" xmlns="http://www.w3.org/2000/svg" data-fui-icon="true">
  <path
    d="M8 0.5C12.1446 0.5 15.5 3.8714 15.5 8.02441C15.5 11.8693 12.625 15.0422 8.90918 15.4941L8.06836 15.5967V9.34473H10.0176L10.1221 8.77441H8.06543V7.29199C8.06549 6.67583 8.18057 6.04486 8.64062 5.59082C9.09815 5.13936 9.73052 5.0274 10.3486 5.02734C10.3589 5.02734 10.3696 5.02733 10.3799 5.02734V4.55957C10.1325 4.53067 9.86018 4.50879 9.66309 4.50879C8.6414 4.50881 8.05283 4.75129 7.70801 5.10449C7.35946 5.46173 7.11914 6.07623 7.11914 7.13281V8.77441H5.72656V9.34473H7.11914V15.5596L6.18848 15.3271C2.92029 14.5134 0.5 11.5524 0.5 8.02441C0.500041 3.8714 3.85538 0.5 8 0.5ZM11.8799 6.63184L11.0537 6.54785C10.9352 6.53583 10.6895 6.52734 10.3486 6.52734C9.86158 6.5274 9.72725 6.6259 9.69434 6.6582C9.66476 6.68739 9.56787 6.81076 9.56543 7.27441H11.9209L11.7598 8.15918L11.3809 10.2295L11.2686 10.8447H9.56836V13.8398C12.1198 13.1472 14 10.8078 14 8.02441C14 6.18218 13.1761 4.5353 11.8799 3.43066V6.63184ZM8 2C4.68892 2 2.00004 4.6947 2 8.02441C2 10.5029 3.49063 12.6307 5.61914 13.5557V10.8447H4.22656V7.27441H5.61914V7.13281C5.61914 5.88363 5.89921 4.81072 6.63379 4.05762C7.37233 3.30067 8.43069 3.00881 9.66309 3.00879C10.1343 3.00879 10.9429 3.09674 11.3301 3.2041L11.7441 3.31836C10.7174 2.49381 9.41599 2 8 2Z"
    fill="currentColor"
  />
</svg>
