<svg width="20" height="20" viewBox="0 0 20 20" fill="none" xmlns="http://www.w3.org/2000/svg" data-fui-icon="true">
  <path
    d="M2 12.5C2.55228 12.5 3 12.9477 3 13.5V15.5C3 16.3284 3.67157 17 4.5 17H6.5C7.05228 17 7.5 17.4477 7.5 18C7.5 18.5523 7.05228 19 6.5 19H4.5C2.567 19 1 17.433 1 15.5V13.5C1 12.9477 1.44772 12.5 2 12.5ZM18 12.5C18.5523 12.5 19 12.9477 19 13.5V15.5C19 17.433 17.433 19 15.5 19H13.5C12.9477 19 12.5 18.5523 12.5 18C12.5 17.4477 12.9477 17 13.5 17H15.5C16.3284 17 17 16.3284 17 15.5V13.5C17 12.9477 17.4477 12.5 18 12.5ZM12.499 12.6357C12.977 12.3593 13.5886 12.5222 13.8652 13C14.1416 13.4779 13.9787 14.0896 13.501 14.3662C12.4373 14.9815 11.1389 15.2529 10 15.2529C8.86109 15.2529 7.56274 14.9815 6.49902 14.3662C6.02129 14.0896 5.85844 13.4779 6.13477 13C6.4114 12.5222 7.02303 12.3593 7.50098 12.6357C8.20224 13.0413 9.13914 13.2529 10 13.2529C10.8609 13.2529 11.7978 13.0413 12.499 12.6357ZM10.25 5.75C10.8023 5.75 11.25 6.19772 11.25 6.75V9C11.25 9.90742 11.0224 10.6781 10.5244 11.2314C10.0176 11.7946 9.34988 12 8.75 12C8.19772 12 7.75 11.5523 7.75 11C7.75 10.4477 8.19772 10 8.75 10C8.9001 10 8.98242 9.9554 9.03809 9.89355C9.10262 9.82182 9.25 9.59243 9.25 9V6.75C9.25 6.19772 9.69772 5.75 10.25 5.75ZM5.75 5.75C6.30228 5.75 6.75 6.19772 6.75 6.75V8.25C6.75 8.80228 6.30228 9.25 5.75 9.25C5.19772 9.25 4.75 8.80228 4.75 8.25V6.75C4.75 6.19772 5.19772 5.75 5.75 5.75ZM14.25 5.75C14.8023 5.75 15.25 6.19772 15.25 6.75V8.25C15.25 8.80228 14.8023 9.25 14.25 9.25C13.6977 9.25 13.25 8.80228 13.25 8.25V6.75C13.25 6.19772 13.6977 5.75 14.25 5.75ZM6.5 1C7.05228 1 7.5 1.44772 7.5 2C7.5 2.55228 7.05228 3 6.5 3H4.5C3.67157 3 3 3.67157 3 4.5V6.5C3 7.05228 2.55228 7.5 2 7.5C1.44772 7.5 1 7.05228 1 6.5V4.5C1 2.567 2.567 1 4.5 1H6.5ZM15.5 1C17.433 1 19 2.567 19 4.5V6.5C19 7.05228 18.5523 7.5 18 7.5C17.4477 7.5 17 7.05228 17 6.5V4.5C17 3.67157 16.3284 3 15.5 3H13.5C12.9477 3 12.5 2.55228 12.5 2C12.5 1.44772 12.9477 1 13.5 1H15.5Z"
    fill="currentColor"
  />
</svg>
