<svg width="24" height="24" viewBox="0 0 24 24" fill="none" xmlns="http://www.w3.org/2000/svg" data-fui-icon="true">
  <path
    d="M9.58404 21.706V15.0561H7.52015V12H9.58404V10.6833C9.58404 7.27944 11.124 5.70333 14.464 5.70333C15.0963 5.70333 16.1879 5.82722 16.6363 5.95111V8.71944C16.4001 8.69556 15.9879 8.68333 15.4801 8.68333C13.8401 8.68333 13.2079 9.30333 13.2079 10.9194V12H16.4763L15.9163 15.0556H13.2124V21.9277C18.1637 21.3279 22 17.112 22 12C22 6.47722 17.5228 2 12 2C6.47722 2 2 6.47722 2 12C2 16.6899 5.22813 20.6253 9.58404 21.706Z"
    fill="currentColor"
  />
</svg>
