<svg width="16" height="16" viewBox="0 0 16 16" fill="none" xmlns="http://www.w3.org/2000/svg" data-fui-icon="true">
  <path
    d="M2 9.5C2.55228 9.5 3 9.94772 3 10.5V12.0996C3 12.5967 3.40333 13 3.90039 13H5.5C6.05228 13 6.5 13.4477 6.5 14C6.5 14.5523 6.05228 15 5.5 15H3.90039C2.29876 15 1 13.7012 1 12.0996V10.5C1 9.94772 1.44772 9.5 2 9.5ZM14 9.5C14.5523 9.5 15 9.94772 15 10.5V12.0996C15 13.7012 13.7012 15 12.0996 15H10.5C9.94772 15 9.5 14.5523 9.5 14C9.5 13.4477 9.94772 13 10.5 13H12.0996C12.5967 13 13 12.5967 13 12.0996V10.5C13 9.94772 13.4477 9.5 14 9.5ZM9.77148 9.78711C10.2495 9.5106 10.8611 9.67343 11.1377 10.1514C11.4142 10.6294 11.2505 11.241 10.7725 11.5176C9.9416 11.9982 8.92036 12.25 7.99902 12.25C7.07774 12.25 6.05637 11.9982 5.22559 11.5176C4.74779 11.2409 4.58485 10.6293 4.86133 10.1514C5.13797 9.67358 5.74959 9.51063 6.22754 9.78711C6.73371 10.0798 7.40542 10.2499 7.99902 10.25C8.59282 10.25 9.2652 10.08 9.77148 9.78711ZM8.25 5C8.80228 5 9.25 5.44772 9.25 6V6.75C9.25 7.3144 9.17105 7.92628 8.84863 8.4209C8.47128 8.99968 7.87761 9.25 7.25 9.25C6.69772 9.25 6.25 8.80228 6.25 8.25C6.25 7.71509 6.67003 7.2789 7.19824 7.25195C7.20223 7.23728 7.20875 7.22086 7.21289 7.20117C7.23417 7.09984 7.25 6.95296 7.25 6.75V6C7.25 5.44772 7.69772 5 8.25 5ZM5 5C5.55228 5 6 5.44772 6 6V7C6 7.55228 5.55228 8 5 8C4.44772 8 4 7.55228 4 7V6C4 5.44772 4.44772 5 5 5ZM11 5C11.5523 5 12 5.44772 12 6V7C12 7.55228 11.5523 8 11 8C10.4477 8 10 7.55228 10 7V6C10 5.44772 10.4477 5 11 5ZM5.5 1C6.05228 1 6.5 1.44772 6.5 2C6.5 2.55228 6.05228 3 5.5 3H3.90039C3.40333 3 3 3.40333 3 3.90039V5.5C3 6.05228 2.55228 6.5 2 6.5C1.44772 6.5 1 6.05228 1 5.5V3.90039C1 2.29876 2.29876 1 3.90039 1H5.5ZM12.0996 1C13.7012 1 15 2.29876 15 3.90039V5.5C15 6.05228 14.5523 6.5 14 6.5C13.4477 6.5 13 6.05228 13 5.5V3.90039C13 3.40333 12.5967 3 12.0996 3H10.5C9.94772 3 9.5 2.55228 9.5 2C9.5 1.44772 9.94772 1 10.5 1H12.0996Z"
    fill="currentColor"
  />
</svg>
