<svg width="20" height="20" viewBox="0 0 20 20" fill="none" xmlns="http://www.w3.org/2000/svg" data-fui-icon="true">
  <path
    d="M7.70484 19.2886V12.9483H5.74414V10.0345H7.70484V8.77906C7.70484 5.53366 9.1678 4.03093 12.3408 4.03093C12.9415 4.03093 13.9785 4.14905 14.4045 4.26717V6.90663C14.1801 6.88386 13.7885 6.8722 13.3061 6.8722C11.7481 6.8722 11.1475 7.46334 11.1475 9.00417V10.0345H14.2525L13.7205 12.9478H11.1518V19.5C15.8555 18.9281 19.5 14.9085 19.5 10.0345C19.5 4.76879 15.2467 0.5 10 0.5C4.75336 0.5 0.5 4.76879 0.5 10.0345C0.5 14.506 3.56672 18.2582 7.70484 19.2886Z"
    fill="currentColor"
  />
</svg>
