<svg width="20" height="20" viewBox="0 0 20 20" fill="none" xmlns="http://www.w3.org/2000/svg" data-fui-icon="true">
  <path
    d="M7.58404 19.7775V13.1035H5.52015V10.0363H7.58404V8.7148C7.58404 5.29859 9.124 3.71677 12.464 3.71677C13.0963 3.71677 14.1879 3.84111 14.6363 3.96545V6.74382C14.4001 6.71985 13.9879 6.70758 13.4801 6.70758C11.8401 6.70758 11.2079 7.32983 11.2079 8.95176V10.0363H14.4763L13.9163 13.103H11.2124V20C16.1637 19.398 20 15.1668 20 10.0363C20 4.49346 15.5228 0 10 0C4.47722 0 0 4.49346 0 10.0363C0 14.7432 3.22813 18.6929 7.58404 19.7775Z"
    fill="currentColor"
  />
</svg>
