<svg width="24" height="24" viewBox="0 0 24 24" fill="none" xmlns="http://www.w3.org/2000/svg" data-fui-icon="true">
  <path
    d="M2 15.5C2.55228 15.5 3 15.9477 3 16.5V18.7998C3 20.0148 3.98517 21 5.2002 21H7.5C8.05228 21 8.5 21.4477 8.5 22C8.5 22.5523 8.05228 23 7.5 23H5.2002C2.8806 23 1 21.1194 1 18.7998V16.5C1 15.9477 1.44772 15.5 2 15.5ZM22 15.5C22.5523 15.5 23 15.9477 23 16.5V18.7998C23 21.1194 21.1194 23 18.7998 23H16.5C15.9477 23 15.5 22.5523 15.5 22C15.5 21.4477 15.9477 21 16.5 21H18.7998C20.0148 21 21 20.0148 21 18.7998V16.5C21 15.9477 21.4477 15.5 22 15.5ZM15.2275 15.3848C15.7056 15.1083 16.3172 15.2711 16.5938 15.749C16.8703 16.2271 16.7066 16.8387 16.2285 17.1152C14.9783 17.8384 13.4173 18.2499 12.001 18.25C10.5846 18.25 9.02271 17.8385 7.77246 17.1152C7.29467 16.8386 7.13173 16.227 7.4082 15.749C7.68484 15.2712 8.29647 15.1083 8.77441 15.3848C9.71705 15.93 10.9327 16.25 12.001 16.25C13.0694 16.2499 14.2849 15.93 15.2275 15.3848ZM12.25 7C12.8023 7 13.25 7.44772 13.25 8V10.5C13.25 11.5596 13.0195 12.4451 12.498 13.082C11.9526 13.7482 11.2066 14 10.5 14C9.94772 14 9.5 13.5523 9.5 13C9.5 12.4477 9.94772 12 10.5 12C10.7252 12 10.8546 11.9334 10.9512 11.8154C11.0717 11.6681 11.25 11.3037 11.25 10.5V8C11.25 7.44772 11.6977 7 12.25 7ZM7 7C7.55228 7 8 7.44772 8 8V10C8 10.5523 7.55228 11 7 11C6.44772 11 6 10.5523 6 10V8C6 7.44772 6.44772 7 7 7ZM17 7C17.5523 7 18 7.44772 18 8V10C18 10.5523 17.5523 11 17 11C16.4477 11 16 10.5523 16 10V8C16 7.44772 16.4477 7 17 7ZM7.5 1C8.05228 1 8.5 1.44772 8.5 2C8.5 2.55228 8.05228 3 7.5 3H5.2002C3.98517 3 3 3.98517 3 5.2002V7.5C3 8.05228 2.55228 8.5 2 8.5C1.44772 8.5 1 8.05228 1 7.5V5.2002C1 2.8806 2.8806 1 5.2002 1H7.5ZM18.7998 1C21.1194 1 23 2.8806 23 5.2002V7.5C23 8.05228 22.5523 8.5 22 8.5C21.4477 8.5 21 8.05228 21 7.5V5.2002C21 3.98517 20.0148 3 18.7998 3H16.5C15.9477 3 15.5 2.55228 15.5 2C15.5 1.44772 15.9477 1 16.5 1H18.7998Z"
    fill="currentColor"
  />
</svg>
