<svg width="20" height="20" viewBox="0 0 20 20" fill="none" xmlns="http://www.w3.org/2000/svg" data-fui-icon="true">
  <path
    d="M7.98666 18.0884V12.5468H6.26675V10H7.98666V8.90277C7.98666 6.06622 9.26996 4.7528 12.0533 4.7528C12.5802 4.7528 13.4899 4.85604 13.8635 4.95928V7.26622C13.6667 7.24632 13.3232 7.23613 12.9 7.23613C11.5334 7.23613 11.0065 7.7528 11.0065 9.09952V10H13.7302L13.2635 12.5464H11.0103V18.2731C15.1364 17.7733 18.3333 14.26 18.3333 10C18.3333 5.3977 14.6023 1.66669 9.99996 1.66669C5.39764 1.66669 1.66663 5.3977 1.66663 10C1.66663 13.9083 4.35673 17.1878 7.98666 18.0884Z"
    fill="currentColor"
  />
</svg>
