<svg width="16" height="16" viewBox="0 0 16 16" fill="none" xmlns="http://www.w3.org/2000/svg" data-fui-icon="true">
  <path
    d="M6.3894 14.4706V10.0374H5.01347V7.99998H6.3894V7.12218C6.3894 4.85294 7.41604 3.8022 9.64271 3.8022C10.0642 3.8022 10.792 3.88479 11.0909 3.96739V5.81294C10.9334 5.79702 10.6586 5.78887 10.3201 5.78887C9.22677 5.78887 8.80531 6.2022 8.80531 7.27958V7.99998H10.9842L10.6109 10.037H8.80831V14.6184C12.1092 14.2186 14.6667 11.408 14.6667 7.99998C14.6667 4.31813 11.6819 1.33331 8.00004 1.33331C4.31819 1.33331 1.33337 4.31813 1.33337 7.99998C1.33337 11.1266 3.48546 13.7502 6.3894 14.4706Z"
    fill="currentColor"
  />
</svg>
