<svg width="20" height="20" viewBox="0 0 20 20" fill="none" xmlns="http://www.w3.org/2000/svg" data-fui-icon="true">
  <path
    d="M15.5 1C17.433 1 19 2.567 19 4.5V15.5C19 17.433 17.433 19 15.5 19H4.5C2.567 19 1 17.433 1 15.5V4.5C1 2.567 2.567 1 4.5 1H15.5ZM13.6494 13.124C13.4419 12.7657 12.9825 12.6432 12.624 12.8506C11.8774 13.2824 10.8957 13.502 10 13.502C9.10431 13.502 8.12256 13.2824 7.37598 12.8506C7.01751 12.6432 6.55806 12.7657 6.35059 13.124C6.14322 13.4825 6.26566 13.9419 6.62402 14.1494C7.64245 14.7385 8.89579 15.002 10 15.002C11.1042 15.002 12.3575 14.7385 13.376 14.1494C13.7343 13.9419 13.8568 13.4825 13.6494 13.124ZM10.25 6C9.83579 6 9.5 6.33579 9.5 6.75V9C9.5 9.63185 9.34232 9.92864 9.22363 10.0605C9.11157 10.1851 8.95632 10.25 8.75 10.25C8.33579 10.25 8 10.5858 8 11C8 11.4142 8.33579 11.75 8.75 11.75C9.29366 11.75 9.88843 11.5649 10.3389 11.0645C10.7827 10.5713 11 9.86806 11 9V6.75C11 6.33579 10.6642 6 10.25 6ZM5.75 6C5.33579 6 5 6.33579 5 6.75V8.25C5 8.66421 5.33579 9 5.75 9C6.16421 9 6.5 8.66421 6.5 8.25V6.75C6.5 6.33579 6.16421 6 5.75 6ZM14.25 6C13.8358 6 13.5 6.33579 13.5 6.75V8.25C13.5 8.66421 13.8358 9 14.25 9C14.6642 9 15 8.66421 15 8.25V6.75C15 6.33579 14.6642 6 14.25 6Z"
    fill="currentColor"
  />
</svg>
