<svg width="24" height="24" viewBox="0 0 24 24" fill="none" xmlns="http://www.w3.org/2000/svg" data-fui-icon="true">
  <path
    d="M12 0.5C18.3538 0.5 23.5 5.66888 23.5 12.0391C23.5 17.9362 19.09 22.8016 13.3936 23.4941L12.5537 23.5967V14.5859H15.585L15.9131 12.7891H12.5488V10.873C12.5488 9.93241 12.7267 9.07694 13.332 8.47949C13.9349 7.88451 14.7949 7.71094 15.7412 7.71094C15.9139 7.71094 16.0794 7.71411 16.2344 7.7168V6.13184C15.7377 6.05804 15.0836 5.99512 14.6484 5.99512C12.9586 5.99517 11.8816 6.39582 11.2158 7.07812C10.5463 7.76432 10.1534 8.87848 10.1533 10.6182V12.7891H7.93457V14.5859H10.1533V23.4707L9.22168 23.2383C4.21116 21.9907 0.500027 17.4498 0.5 12.0391C0.5 5.66888 5.64624 0.5 12 0.5ZM12 2C6.47978 2 2 6.49218 2 12.0391C2.00003 16.4057 4.77744 20.1183 8.65332 21.5V16.0859H6.43457V11.2891H8.65332V10.6182C8.65336 8.68574 9.08689 7.11331 10.1426 6.03125C11.2021 4.94536 12.7482 4.49517 14.6484 4.49512C15.3725 4.49512 16.6181 4.63295 17.1846 4.79004L17.7344 4.94238V9.3291L16.9082 9.24609C16.6952 9.22449 16.2852 9.21094 15.7412 9.21094C14.9247 9.21094 14.5635 9.37155 14.3857 9.54688C14.2106 9.71975 14.0488 10.0702 14.0488 10.873V11.2891H17.7109L17.5498 12.1738L16.9482 15.4707L16.8359 16.0859H14.0537V21.8643C18.5895 20.9126 22 16.8776 22 12.0391C22 6.49218 17.5202 2 12 2Z"
    fill="currentColor"
  />
</svg>
