<svg width="16" height="16" viewBox="0 0 16 16" fill="none" xmlns="http://www.w3.org/2000/svg" data-fui-icon="true">
  <path
    d="M6.06723 15.822V10.4828H4.41612V8.02903H6.06723V6.97184C6.06723 4.23888 7.2992 2.97341 9.9712 2.97341C10.477 2.97341 11.3503 3.07288 11.709 3.17236V5.39506C11.5201 5.37588 11.1903 5.36606 10.7841 5.36606C9.47208 5.36606 8.96632 5.86386 8.96632 7.16141V8.02903H11.581L11.133 10.4824H8.96992V16C12.931 15.5184 16 12.1335 16 8.02903C16 3.59477 12.4182 0 8 0C3.58178 0 0 3.59477 0 8.02903C0 11.7946 2.5825 14.9543 6.06723 15.822Z"
    fill="currentColor"
  />
</svg>
