<svg width="16" height="16" viewBox="0 0 16 16" fill="none" xmlns="http://www.w3.org/2000/svg" data-fui-icon="true">
  <path
    d="M12.0996 1C13.7012 1 15 2.29877 15 3.90039V12.0996C15 13.7012 13.7012 15 12.0996 15H3.90039C2.29876 15 1 13.7012 1 12.0996V3.90039C1 2.29876 2.29877 1 3.90039 1H12.0996ZM11.1377 10.1514C10.8611 9.67343 10.2495 9.5106 9.77148 9.78711C9.2652 10.08 8.59282 10.25 7.99902 10.25C7.40542 10.2499 6.73371 10.0798 6.22754 9.78711C5.74959 9.51063 5.13797 9.67358 4.86133 10.1514C4.58485 10.6293 4.74779 11.2409 5.22559 11.5176C6.05637 11.9982 7.07774 12.25 7.99902 12.25C8.92036 12.25 9.9416 11.9982 10.7725 11.5176C11.2505 11.241 11.4142 10.6294 11.1377 10.1514ZM8.25 5C7.69772 5 7.25 5.44772 7.25 6V6.75C7.25 6.95296 7.23417 7.09984 7.21289 7.20117C7.20875 7.22086 7.20223 7.23728 7.19824 7.25195C6.67003 7.2789 6.25 7.71509 6.25 8.25C6.25 8.80228 6.69772 9.25 7.25 9.25C7.87761 9.25 8.47128 8.99968 8.84863 8.4209C9.17105 7.92628 9.25 7.3144 9.25 6.75V6C9.25 5.44772 8.80228 5 8.25 5ZM5 5C4.44772 5 4 5.44772 4 6V7C4 7.55228 4.44772 8 5 8C5.55228 8 6 7.55228 6 7V6C6 5.44772 5.55228 5 5 5ZM11 5C10.4477 5 10 5.44772 10 6V7C10 7.55228 10.4477 8 11 8C11.5523 8 12 7.55228 12 7V6C12 5.44772 11.5523 5 11 5Z"
    fill="currentColor"
  />
</svg>
