<svg width="24" height="24" viewBox="0 0 24 24" fill="none" xmlns="http://www.w3.org/2000/svg" data-fui-icon="true">
  <path
    d="M9.22165 23.2441V15.569H6.84817V12.0417H9.22165V10.522C9.22165 6.59338 10.9926 4.77428 14.8336 4.77428C15.5607 4.77428 16.8161 4.91727 17.3317 5.06026V8.25539C17.0601 8.22783 16.5861 8.21371 16.0021 8.21371C14.1161 8.21371 13.3891 8.9293 13.3891 10.7945V12.0417H17.1477L16.5037 15.5684H13.3943V23.5C19.0883 22.8077 23.5 17.9419 23.5 12.0417C23.5 5.66748 18.3512 0.5 12 0.5C5.6488 0.5 0.5 5.66748 0.5 12.0417C0.5 17.4547 4.21235 21.9968 9.22165 23.2441Z"
    fill="currentColor"
  />
</svg>
