<svg width="20" height="20" viewBox="0 0 20 20" fill="none" xmlns="http://www.w3.org/2000/svg" data-fui-icon="true">
  <path
    d="M10 0.5C15.2492 0.5 19.5 4.77061 19.5 10.0322C19.4998 14.9031 15.8574 18.922 11.1514 19.4941L10.3105 19.5967V11.9648H12.8008L13.0166 10.7822H10.3066V9.08301C10.3066 8.30451 10.4536 7.56097 10.9863 7.03516C11.5165 6.51191 12.2627 6.36916 13.0449 6.36914C13.1345 6.36914 13.2221 6.3712 13.3066 6.37207V5.3457C12.9299 5.29478 12.4714 5.25197 12.1562 5.25195C10.8002 5.25195 9.96721 5.57391 9.46191 6.0918C8.95296 6.61348 8.63581 7.47713 8.63574 8.875V10.7822H6.83008V11.9658H8.63574V19.5146L7.70508 19.2832C3.56586 18.2525 0.50022 14.5014 0.5 10.0322C0.5 4.77061 4.7508 0.5 10 0.5ZM10 2C5.58434 2 2 5.59391 2 10.0322C2.0002 13.4552 4.13332 16.3759 7.13574 17.5322V13.4658H5.33008V9.28223H7.13574V8.875C7.13581 7.28422 7.49345 5.96147 8.38867 5.04395C9.28773 4.12269 10.59 3.75195 12.1562 3.75195C12.7538 3.75198 13.7799 3.8649 14.2568 3.99707L14.8066 4.14941V7.98047L13.9814 7.89746C13.8157 7.88064 13.4874 7.86914 13.0449 7.86914C12.3927 7.86916 12.1452 7.99887 12.04 8.10254C11.9375 8.20376 11.8066 8.44231 11.8066 9.08301V9.28223H14.8164L14.6543 10.166L14.165 12.8496L14.0518 13.4648H11.8105V17.8545C15.3547 17.0302 17.9998 13.8435 18 10.0322C18 5.59391 14.4157 2 10 2Z"
    fill="currentColor"
  />
</svg>
