<svg width="24" height="24" viewBox="0 0 24 24" fill="none" xmlns="http://www.w3.org/2000/svg" data-fui-icon="true">
  <path
    d="M9.10085 23.733V15.7242H6.62418V12.0435H9.10085V10.4578C9.10085 6.35831 10.9488 4.46012 14.9568 4.46012C15.7156 4.46012 17.0255 4.60933 17.5636 4.75853V8.09258C17.2801 8.06382 16.7855 8.04909 16.1761 8.04909C14.2081 8.04909 13.4495 8.79579 13.4495 10.7421V12.0435H17.3716L16.6996 15.7236H13.4549V24C19.3964 23.2776 24 18.2002 24 12.0435C24 5.39216 18.6274 0 12 0C5.37266 0 0 5.39216 0 12.0435C0 17.6918 3.87376 22.4314 9.10085 23.733Z"
    fill="currentColor"
  />
</svg>
