<svg width="12" height="12" viewBox="0 0 12 12" fill="none" xmlns="http://www.w3.org/2000/svg" data-fui-icon="true">
  <path
    d="M6 0.400391C9.09277 0.400391 11.5996 2.90724 11.5996 6C11.5996 8.86315 9.45167 11.2235 6.67871 11.5596L6.00586 11.6406V6.92773H7.45801L7.51855 6.59961H6.00391V5.45996C6.00391 5.00048 6.08939 4.5182 6.44336 4.16992C6.78932 3.82972 7.26313 3.74387 7.71777 3.74121V3.4834C7.54421 3.4643 7.36224 3.45218 7.23242 3.45215C6.48119 3.45215 6.05813 3.62918 5.81445 3.87793C5.56823 4.12937 5.3916 4.56844 5.3916 5.3418V6.59961H4.36035V6.92773H5.3916V11.6201L4.64746 11.4355C2.20826 10.8304 0.400391 8.62714 0.400391 6C0.400391 2.90724 2.90724 0.400391 6 0.400391ZM6 1.59961C3.56998 1.59961 1.59961 3.56998 1.59961 6C1.59961 7.78516 2.66382 9.32195 4.19238 10.0117V8.12793H3.16016V5.40039H4.19238V5.3418C4.19238 4.41335 4.40093 3.60712 4.95703 3.03906C5.51586 2.46838 6.3138 2.25195 7.23242 2.25195C7.55891 2.252 8.07422 2.30616 8.37207 2.37109C8.70915 2.44458 8.91797 2.74297 8.91797 3.05176V4.24902C8.91797 4.66727 8.5628 4.9715 8.1748 4.9502C8.0712 4.94451 7.92218 4.94141 7.74023 4.94141C7.38192 4.94141 7.2967 5.01406 7.28516 5.02539C7.27682 5.03358 7.21468 5.10239 7.20703 5.40039H8.95801L8.82812 6.1084L8.54785 7.63574L8.45801 8.12793H7.20605V10.2314C9.04956 9.70668 10.4004 8.01122 10.4004 6C10.4004 3.56998 8.43003 1.59961 6 1.59961Z"
    fill="currentColor"
  />
</svg>
