<svg width="32" height="32" viewBox="0 0 32 32" fill="none" xmlns="http://www.w3.org/2000/svg" data-fui-icon="true">
  <path
    d="M16 0.5C24.5629 0.5 31.5 7.46641 31.5 16.0537C31.4999 24.003 25.5557 30.5607 17.8789 31.4941L17.0381 31.5967V19.8271H21.1514L21.7031 16.8037H17.0312V14.4541C17.0312 13.1891 17.273 12.109 18.0234 11.3682C18.7715 10.6299 19.8587 10.3936 21.1328 10.3936C21.4794 10.3936 21.803 10.3973 22.0889 10.4053V7.70801C21.3701 7.58731 20.313 7.48246 19.6348 7.48242C17.2767 7.48242 15.7114 8.04136 14.7246 9.05273C13.7342 10.068 13.1865 11.6816 13.1865 14.1045V16.8037H10.1426V19.8271H13.1865V31.3818L12.2549 31.1494C5.50222 29.4678 0.50009 23.347 0.5 16.0537C0.5 7.46641 7.43713 0.5 16 0.5ZM16 2C8.27067 2 2 8.28971 2 16.0537C2.00009 22.3049 6.06658 27.5984 11.6865 29.4238V21.3271H8.64258V15.3037H11.6865V14.1045C11.6865 11.4887 12.2746 9.41599 13.6514 8.00488C15.0319 6.59001 17.0664 5.98242 19.6348 5.98242C20.6118 5.98247 22.2933 6.16917 23.0391 6.37598L23.5889 6.52832V12.0273L22.7627 11.9434C22.4552 11.9122 21.8799 11.8936 21.1328 11.8936C19.9883 11.8936 19.4 12.1169 19.0771 12.4355C18.7568 12.7518 18.5312 13.3269 18.5312 14.4541V15.3037H23.502L23.3408 16.1885L22.5146 20.7119L22.4023 21.3271H18.5381V29.876C25.0565 28.6761 29.9999 22.946 30 16.0537C30 8.28971 23.7294 2 16 2Z"
    fill="currentColor"
  />
</svg>
