<svg
  width="32"
  height="32"
  viewBox="0 0 32 32"
  fill="none"
  xmlns="http://www.w3.org/2000/svg"
  data-fui-icon="true"
>
  <path
    d="M17.7811 4.44772L18.3114 3.91739L18.3114 3.91737L17.7811 4.44772ZM24.8856 11.5523L24.3553 12.0826L24.3553 12.0826L24.8856 11.5523ZM10.375 21.75C9.96078 21.75 9.62499 22.0858 9.62499 22.5C9.62499 22.9142 9.96078 23.25 10.375 23.25V21.75ZM21.625 23.25C22.0392 23.25 22.375 22.9142 22.375 22.5C22.375 22.0858 22.0392 21.75 21.625 21.75V23.25ZM10.375 16.2708C9.96078 16.2708 9.62499 16.6066 9.62499 17.0208C9.62499 17.435 9.96078 17.7708 10.375 17.7708V16.2708ZM16.3125 17.7708C16.7267 17.7708 17.0625 17.435 17.0625 17.0208C17.0625 16.6066 16.7267 16.2708 16.3125 16.2708V17.7708ZM16.25 4.33333V9.66666H17.75V4.33333H16.25ZM16.25 9.66666C16.25 11.5536 17.7796 13.0833 19.6667 13.0833V11.5833C18.6081 11.5833 17.75 10.7252 17.75 9.66666H16.25ZM19.6667 13.0833H25V11.5833H19.6667V13.0833ZM8.99999 4.41666H15.8955V2.91666H8.99999V4.41666ZM15.8955 4.41666C16.4037 4.41666 16.8913 4.61859 17.2507 4.97806L18.3114 3.91737C17.6706 3.27664 16.8016 2.91666 15.8955 2.91666V4.41666ZM17.2507 4.97805L24.3553 12.0826L25.4159 11.0219L18.3114 3.91739L17.2507 4.97805ZM24.3553 12.0826C24.7147 12.4421 24.9167 12.9296 24.9167 13.4379H26.4167C26.4167 12.5317 26.0567 11.6627 25.4159 11.0219L24.3553 12.0826ZM24.9167 13.4379V25.6667H26.4167V13.4379H24.9167ZM24.9167 25.6667C24.9167 26.7252 24.0586 27.5833 23 27.5833V29.0833C24.887 29.0833 26.4167 27.5537 26.4167 25.6667H24.9167ZM23 27.5833H8.99999V29.0833H23V27.5833ZM8.99999 27.5833C7.94144 27.5833 7.08333 26.7252 7.08333 25.6667H5.58333C5.58333 27.5537 7.11303 29.0833 8.99999 29.0833V27.5833ZM7.08333 25.6667V6.33333H5.58333V25.6667H7.08333ZM7.08333 6.33333C7.08333 5.27478 7.94145 4.41666 8.99999 4.41666V2.91666C7.11302 2.91666 5.58333 4.44636 5.58333 6.33333H7.08333ZM10.375 23.25H21.625V21.75H10.375V23.25ZM10.375 17.7708H16.3125V16.2708H10.375V17.7708Z"
    fill="currentColor"
  />
</svg>
