<svg
  width="16"
  height="16"
  viewBox="0 0 16 16"
  fill="none"
  xmlns="http://www.w3.org/2000/svg"
  data-fui-icon="true"
>
  <path
    d="M8.89052 2.22386L9.42085 1.69353L9.42084 1.69352L8.89052 2.22386ZM12.4428 5.77614L11.9125 6.30647L11.9125 6.30649L12.4428 5.77614ZM5.68749 10.5C5.27328 10.5 4.93749 10.8358 4.93749 11.25C4.93749 11.6642 5.27328 12 5.68749 12V10.5ZM10.3125 12C10.7267 12 11.0625 11.6642 11.0625 11.25C11.0625 10.8358 10.7267 10.5 10.3125 10.5V12ZM5.68749 7.76042C5.27328 7.76042 4.93749 8.0962 4.93749 8.51042C4.93749 8.92463 5.27328 9.26042 5.68749 9.26042V7.76042ZM7.99999 9.26042C8.4142 9.26042 8.74999 8.92463 8.74999 8.51042C8.74999 8.0962 8.4142 7.76042 7.99999 7.76042V9.26042ZM7.74999 2.16667V4.83334H9.24999V2.16667H7.74999ZM7.74999 4.83334C7.74999 5.98392 8.6827 6.91667 9.83332 6.91667V5.41667C9.51114 5.41667 9.24999 5.15551 9.24999 4.83334H7.74999ZM9.83332 6.91667H12.5V5.41667H9.83332V6.91667ZM4.49999 2.58334H7.94772V1.08334H4.49999V2.58334ZM7.94772 2.58334C8.1024 2.58334 8.25078 2.64478 8.36021 2.75421L9.42084 1.69352C9.03013 1.30283 8.50025 1.08334 7.94772 1.08334V2.58334ZM8.36019 2.75419L11.9125 6.30647L12.9731 5.24581L9.42085 1.69353L8.36019 2.75419ZM11.9125 6.30649C12.0219 6.41588 12.0833 6.56424 12.0833 6.71894H13.5833C13.5833 6.16642 13.3638 5.63651 12.9731 5.2458L11.9125 6.30649ZM12.0833 6.71894V12.8333H13.5833V6.71894H12.0833ZM12.0833 12.8333C12.0833 13.1555 11.8222 13.4167 11.5 13.4167V14.9167C12.6506 14.9167 13.5833 13.9839 13.5833 12.8333H12.0833ZM11.5 13.4167H4.49999V14.9167H11.5V13.4167ZM4.49999 13.4167C4.17782 13.4167 3.91666 13.1555 3.91666 12.8333H2.41666C2.41666 13.984 3.3494 14.9167 4.49999 14.9167V13.4167ZM3.91666 12.8333V3.16667H2.41666V12.8333H3.91666ZM3.91666 3.16667C3.91666 2.8445 4.17782 2.58334 4.49999 2.58334V1.08334C3.3494 1.08334 2.41666 2.01608 2.41666 3.16667H3.91666ZM5.68749 12H10.3125V10.5H5.68749V12ZM5.68749 9.26042H7.99999V7.76042H5.68749V9.26042Z"
    fill="currentColor"
  />
</svg>
