<svg
  width="20"
  height="20"
  viewBox="0 0 20 20"
  fill="none"
  xmlns="http://www.w3.org/2000/svg"
  data-fui-icon="true"
>
  <path
    d="M11.1132 2.77982L11.6435 2.24949L11.6435 2.24948L11.1132 2.77982ZM15.5535 7.22017L15.0232 7.7505L15.0232 7.75052L15.5535 7.22017ZM6.86718 13.3125C6.45296 13.3125 6.11718 13.6483 6.11718 14.0625C6.11718 14.4767 6.45296 14.8125 6.86718 14.8125V13.3125ZM13.1328 14.8125C13.547 14.8125 13.8828 14.4767 13.8828 14.0625C13.8828 13.6483 13.547 13.3125 13.1328 13.3125V14.8125ZM6.86718 9.88802C6.45296 9.88802 6.11718 10.2238 6.11718 10.638C6.11718 11.0522 6.45296 11.388 6.86718 11.388V9.88802ZM10.5781 11.388C10.9923 11.388 11.3281 11.0522 11.3281 10.638C11.3281 10.2238 10.9923 9.88802 10.5781 9.88802V11.388ZM9.87501 2.70833V6.04166H11.375V2.70833H9.87501ZM9.87501 6.04166C9.87501 7.37635 10.957 8.45833 12.2917 8.45833V6.95833C11.7854 6.95833 11.375 6.54793 11.375 6.04166H9.87501ZM12.2917 8.45833H15.625V6.95833H12.2917V8.45833ZM5.62501 3.04166H9.93468V1.54166H5.62501V3.04166ZM9.93468 3.04166C10.1778 3.04166 10.4109 3.13823 10.5829 3.31017L11.6435 2.24948C11.1903 1.79628 10.5756 1.54166 9.93468 1.54166V3.04166ZM10.5828 3.31015L15.0232 7.7505L16.0838 6.68984L11.6435 2.24949L10.5828 3.31015ZM15.0232 7.75052C15.1951 7.92242 15.2917 8.15557 15.2917 8.39866H16.7917C16.7917 7.75774 16.5371 7.14305 16.0838 6.68983L15.0232 7.75052ZM15.2917 8.39866V16.0417H16.7917V8.39866H15.2917ZM15.2917 16.0417C15.2917 16.548 14.8813 16.9583 14.375 16.9583V18.4583C15.7097 18.4583 16.7917 17.3764 16.7917 16.0417H15.2917ZM14.375 16.9583H5.62501V18.4583H14.375V16.9583ZM5.62501 16.9583C5.11874 16.9583 4.70834 16.5479 4.70834 16.0417H3.20834C3.20834 17.3764 4.29033 18.4583 5.62501 18.4583V16.9583ZM4.70834 16.0417V3.95833H3.20834V16.0417H4.70834ZM4.70834 3.95833C4.70834 3.45207 5.11875 3.04166 5.62501 3.04166V1.54166C4.29032 1.54166 3.20834 2.62364 3.20834 3.95833H4.70834ZM6.86718 14.8125H13.1328V13.3125H6.86718V14.8125ZM6.86718 11.388H10.5781V9.88802H6.86718V11.388Z"
    fill="currentColor"
  />
</svg>
