<svg width="20" height="20" viewBox="0 0 20 20" fill="none" xmlns="http://www.w3.org/2000/svg" data-fui-icon="true">
  <path
    d="M12 14.75C12.5523 14.75 13 15.1977 13 15.75C13 16.3023 12.5523 16.75 12 16.75H8C7.44772 16.75 7 16.3023 7 15.75C7 15.1977 7.44772 14.75 8 14.75H12ZM14.75 9C15.3023 9 15.75 9.44772 15.75 10C15.75 10.5523 15.3023 11 14.75 11H5.25C4.69772 11 4.25 10.5523 4.25 10C4.25 9.44772 4.69772 9 5.25 9H14.75ZM17.5 3.25C18.0523 3.25 18.5 3.69772 18.5 4.25C18.5 4.80228 18.0523 5.25 17.5 5.25H2.5C1.94772 5.25 1.5 4.80228 1.5 4.25C1.5 3.69772 1.94772 3.25 2.5 3.25H17.5Z"
    fill="currentColor"
  />
</svg>
