<svg width="16" height="16" viewBox="0 0 16 16" fill="none" xmlns="http://www.w3.org/2000/svg" data-fui-icon="true">
  <path
    d="M9.25 12C9.66421 12 10 12.3358 10 12.75C10 13.1642 9.66421 13.5 9.25 13.5H6.75C6.33579 13.5 6 13.1642 6 12.75C6 12.3358 6.33579 12 6.75 12H9.25ZM11.5 7.25C11.9142 7.25 12.25 7.58579 12.25 8C12.25 8.41421 11.9142 8.75 11.5 8.75H4.5C4.08579 8.75 3.75 8.41421 3.75 8C3.75 7.58579 4.08579 7.25 4.5 7.25H11.5ZM14 2.5C14.4142 2.5 14.75 2.83579 14.75 3.25C14.75 3.66421 14.4142 4 14 4H2C1.58579 4 1.25 3.66421 1.25 3.25C1.25 2.83579 1.58579 2.5 2 2.5H14Z"
    fill="currentColor"
  />
</svg>
