<svg width="12" height="12" viewBox="0 0 12 12" fill="none" xmlns="http://www.w3.org/2000/svg" data-fui-icon="true">
  <path
    d="M7.21875 9C7.63296 9 7.96875 9.33579 7.96875 9.75C7.96875 10.1642 7.63296 10.5 7.21875 10.5H4.78125C4.36704 10.5 4.03125 10.1642 4.03125 9.75C4.03125 9.33579 4.36704 9 4.78125 9H7.21875ZM8.75 5.25C9.16421 5.25 9.5 5.58579 9.5 6C9.5 6.41421 9.16421 6.75 8.75 6.75H3.25C2.83579 6.75 2.5 6.41421 2.5 6C2.5 5.58579 2.83579 5.25 3.25 5.25H8.75ZM10.25 1.5C10.6642 1.5 11 1.83579 11 2.25C11 2.66421 10.6642 3 10.25 3H1.75C1.33579 3 1 2.66421 1 2.25C1 1.83579 1.33579 1.5 1.75 1.5H10.25Z"
    fill="currentColor"
  />
</svg>
