<svg width="12" height="12" viewBox="0 0 12 12" fill="none" xmlns="http://www.w3.org/2000/svg" data-fui-icon="true">
  <path
    d="M10.75 6.98701C10.75 9.28246 8.375 11.25 6 11.25C3.625 11.25 1.25 9.28246 1.25 6.98701C1.25 6.02837 1.60741 5.20811 1.82877 4.792C1.87558 4.70401 1.99912 4.7397 2.00443 4.83923C2.08031 6.26388 2.87763 6.91876 3.625 6.02437C4.26292 5.26097 3.81871 4.93621 4 3.50001C4.17707 2.09728 5.41999 0.595481 7.61494 0.776365C7.69937 0.783323 7.73333 0.887175 7.67406 0.94771C6.07246 2.5836 6.85433 4.34296 8.13625 5.95439C8.16798 5.99427 8.22393 6.00359 8.26435 5.97256C8.53851 5.76216 9.48282 4.90853 9.11063 3.36882C9.0864 3.26857 9.20717 3.19147 9.27891 3.26556C10.2758 4.29509 10.75 5.71192 10.75 6.98701Z"
    fill="currentColor"
    stroke="currentColor"
    stroke-width="1.5"
    stroke-linecap="round"
    stroke-linejoin="round"
  />
</svg>
