<svg width="16" height="16" viewBox="0 0 16 16" fill="none" xmlns="http://www.w3.org/2000/svg" data-fui-icon="true">
  <path
    d="M5.92969 1.08301C6.82674 1.08313 7.68582 1.52479 8.33398 1.8457C9.06933 2.20977 9.59476 2.45298 10.0723 2.45312C10.5971 2.45307 11.15 2.33143 11.6123 2.1875C12.4969 1.91279 13.5846 2.52095 13.585 3.59082V9.64062C13.585 10.1403 13.3155 10.6327 12.834 10.8721L12.7344 10.917C12.2005 11.131 11.152 11.4902 10.0723 11.4902C9.17542 11.4901 8.31705 11.0484 7.66895 10.7275C6.93347 10.3634 6.40727 10.1202 5.92969 10.1201C5.35519 10.1201 4.75032 10.2657 4.26855 10.4248C4.13883 10.4676 4.02043 10.5103 3.91797 10.5498V14.166C3.91797 14.5801 3.58201 14.9158 3.16797 14.916C2.75376 14.916 2.41797 14.5802 2.41797 14.166V2.93262C2.41809 2.39944 2.72453 1.87524 3.26855 1.65723L3.75781 1.47656C4.32824 1.28519 5.12015 1.08304 5.92969 1.08301ZM5.92969 2.58301C5.18703 2.58305 4.40629 2.82653 3.91797 3.01465V8.96387C4.46225 8.79249 5.1855 8.62015 5.92969 8.62012C6.82675 8.62024 7.68581 9.06191 8.33398 9.38281C9.06933 9.74687 9.59475 9.99009 10.0723 9.99023C10.8155 9.99015 11.5969 9.74579 12.085 9.55762V3.62598C12.08 3.62364 12.0746 3.62106 12.0693 3.62012C12.0629 3.61907 12.0589 3.6198 12.0576 3.62012C11.5195 3.78765 10.8063 3.95307 10.0723 3.95312C9.1754 3.95298 8.31705 3.51132 7.66895 3.19043C6.93347 2.8263 6.40726 2.58313 5.92969 2.58301Z"
    fill="currentColor"
  />
</svg>
