<svg width="32" height="32" viewBox="0 0 32 32" fill="none" xmlns="http://www.w3.org/2000/svg" data-fui-icon="true">
  <path
    d="M11.8555 2.91699C13.44 2.91699 14.9909 3.70173 16.3311 4.36523C17.7585 5.07198 18.9766 5.65808 20.1416 5.6582C21.2959 5.65819 22.4798 5.3924 23.4424 5.09277C24.7992 4.67037 26.415 5.61877 26.415 7.18359V19.2832C26.4148 20.07 25.965 20.8254 25.1855 21.1377C24.1455 21.5545 22.1568 22.2314 20.1416 22.2314C18.557 22.2313 17.0062 21.4467 15.666 20.7832C14.2385 20.0765 13.0206 19.4912 11.8555 19.4912C10.5935 19.4913 9.29816 19.8083 8.29785 20.1387C7.8026 20.3023 7.38927 20.4659 7.10156 20.5879C7.09527 20.5905 7.08818 20.5931 7.08203 20.5957V28.334C7.08169 28.7479 6.74603 29.084 6.33203 29.084C5.9182 29.0838 5.58237 28.7478 5.58203 28.334V5.86621C5.58203 5.0794 6.03219 4.32326 6.81152 4.01074C7.8512 3.59411 9.84017 2.91716 11.8555 2.91699Z"
    fill="currentColor"
  />
</svg>
