<svg width="16" height="16" viewBox="0 0 16 16" fill="none" xmlns="http://www.w3.org/2000/svg" data-fui-icon="true">
  <path
    d="M3.16663 10.0555V2.93273C3.16663 2.67907 3.31042 2.44767 3.54588 2.35331C4.05184 2.15055 4.99297 1.83331 5.92853 1.83331C7.30349 1.83331 8.69643 3.20369 10.0714 3.20369C10.701 3.20369 11.3331 3.06001 11.8334 2.90425C12.3053 2.75734 12.8333 3.09723 12.8333 3.59143V9.64131C12.8333 9.89498 12.6895 10.1264 12.454 10.2207C11.9481 10.4235 11.007 10.7407 10.0714 10.7407C8.69643 10.7407 7.30349 9.37038 5.92853 9.37038C4.55359 9.37038 3.16663 10.0555 3.16663 10.0555ZM3.16663 10.0555V14.1666"
    stroke="currentColor"
    stroke-width="1.5"
    stroke-linecap="round"
    stroke-linejoin="round"
  />
</svg>
