<svg
  width="16"
  height="16"
  viewBox="0 0 16 16"
  fill="none"
  xmlns="http://www.w3.org/2000/svg"
  data-fui-icon="true"
>
  <path
    d="M3.16663 10.0555V2.93276C3.16663 2.6791 3.31042 2.4477 3.54588 2.35334C4.05184 2.15058 4.99297 1.83334 5.92853 1.83334C7.30349 1.83334 8.69643 3.20372 10.0714 3.20372C10.701 3.20372 11.3331 3.06004 11.8334 2.90428C12.3053 2.75737 12.8333 3.09726 12.8333 3.59146V9.64134C12.8333 9.89501 12.6895 10.1264 12.454 10.2207C11.9481 10.4235 11.007 10.7407 10.0714 10.7407C8.69643 10.7407 7.30349 9.37041 5.92853 9.37041C4.55359 9.37041 3.16663 10.0555 3.16663 10.0555ZM3.16663 10.0555V14.1667"
    stroke="currentColor"
    stroke-width="1.5"
    stroke-linecap="round"
    stroke-linejoin="round"
  />
</svg>
