<svg width="32" height="32" viewBox="0 0 32 32" fill="none" xmlns="http://www.w3.org/2000/svg" data-fui-icon="true">
  <path
    d="M17.653 2.28644C18.4418 0.840754 20.3984 0.558814 21.5631 1.72297L30.2809 10.4398C31.4455 11.6045 31.1644 13.5621 29.7184 14.3509L25.7028 16.5394L21.9762 25.8548C21.4249 27.2325 20.1855 28.2164 18.7184 28.4388L1.86194 30.9915C1.62646 31.0272 1.38783 30.9489 1.21937 30.7806C1.05098 30.6122 0.972889 30.3735 1.00843 30.138L3.56214 13.2855C3.7845 11.8182 4.76729 10.5779 6.14515 10.0267L15.4625 6.30012L17.653 2.28644ZM6.70276 11.4193C5.81869 11.7729 5.18723 12.5686 5.04456 13.5101L2.83167 28.1068L11.2848 19.6556C11.1042 19.3099 11.0006 18.9174 11.0006 18.5003C11.0008 17.1197 12.12 16.0003 13.5006 16.0003C14.8811 16.0005 16.0005 17.1198 16.0006 18.5003C16.0006 19.8809 14.8812 21.0001 13.5006 21.0003C13.0836 21.0003 12.691 20.8967 12.3453 20.7161L3.89319 29.1663L18.4928 26.9554C19.434 26.8128 20.2298 26.1819 20.5836 25.2982L24.2262 16.1907L15.8102 7.7757L6.70276 11.4193ZM20.5026 2.78449C20.0459 2.32791 19.2787 2.43833 18.9694 3.00519L16.9186 6.76301L25.2399 15.0833L28.9996 13.0335C29.5666 12.7243 29.6768 11.957 29.2203 11.5003L20.5026 2.78449Z"
    fill="currentColor"
  />
</svg>
