<svg width="32" height="32" viewBox="0 0 32 32" fill="none" xmlns="http://www.w3.org/2000/svg" data-fui-icon="true">
  <path
    d="M25.3271 17.7793L22.1426 25.7461C21.5584 27.2062 20.2433 28.2487 18.6885 28.4844L2.47852 30.9385L12.5908 20.8262C12.8729 20.9365 13.1788 21 13.5 21C14.8807 21 16 19.8807 16 18.5C16 17.1193 14.8807 16 13.5 16C12.1194 16.0002 11 17.1194 11 18.5C11 18.8226 11.0636 19.13 11.1748 19.4131L1.05957 29.5293L3.51758 13.3154C3.75333 11.7605 4.7947 10.4464 6.25488 9.86231L14.2227 6.67481L25.3271 17.7793ZM17.3857 2.41602C18.2547 0.8241 20.4107 0.513501 21.6934 1.7959L30.209 10.3105C31.4917 11.5932 31.1811 13.7493 29.5889 14.6182L26.6143 16.2383L15.7637 5.3877L17.3857 2.41602Z"
    fill="currentColor"
  />
</svg>
