<svg width="13" height="13" viewBox="0 0 13 13" fill="none" xmlns="http://www.w3.org/2000/svg" data-fui-icon="true">
  <path
    d="M6.37475 0.926068C6.96707 -0.0695339 8.29002 -0.292151 9.17315 0.403615L9.34343 0.554851L12.4443 3.65573C13.3181 4.52965 13.1351 5.99253 12.0731 6.62441L10.6157 7.49058L9.4587 10.7342C9.22412 11.3911 8.64755 11.866 7.95797 11.9706L1.24434 12.988C0.904497 13.0392 0.559943 12.9263 0.316823 12.6834C0.0736323 12.4401 -0.0392675 12.0949 0.0122351 11.7548L1.02859 5.04118L1.05291 4.91321C1.19372 4.28092 1.65026 3.76036 2.26598 3.54045L5.50752 2.38344L6.37475 0.926068ZM3.1459 5.52556L2.64566 8.82104L3.80478 7.66086C3.89786 7.00396 4.46216 6.49855 5.14476 6.49855C5.89217 6.49879 6.49844 7.10482 6.49849 7.85228C6.49849 8.53318 5.99493 9.09391 5.34042 9.18908L4.17812 10.3524L7.47253 9.8522L8.47725 7.0411L5.95805 4.5219L3.1459 5.52556ZM7.6005 3.10049L9.89655 5.39759L10.6665 4.94071L8.05739 2.33162L7.6005 3.10049Z"
    fill="currentColor"
  />
</svg>
