<svg width="24" height="24" viewBox="0 0 24 24" fill="none" xmlns="http://www.w3.org/2000/svg" data-fui-icon="true">
  <path
    d="M12.7359 2.1666C13.4517 0.854901 15.2271 0.599255 16.2838 1.65586L22.3463 7.71836C23.4026 8.77503 23.1469 10.5503 21.8355 11.2662L19.2008 12.7027L16.6617 19.0543C16.2037 20.1994 15.1731 21.017 13.9537 21.2018L2.15096 22.9898C1.83702 23.0373 1.51909 22.933 1.29451 22.7086C1.06994 22.4839 0.965677 22.1653 1.01326 21.8512L2.80135 10.0475C2.98628 8.82832 3.80291 7.79743 4.94783 7.33945L11.2994 4.79844L12.7359 2.1666ZM5.691 9.19688C5.20462 9.39143 4.8575 9.82937 4.77889 10.3473L3.4449 19.1422L8.0699 14.5172C8.02575 14.352 8.00057 14.1787 8.00057 13.9996C8.00073 12.8952 8.8961 11.9996 10.0006 11.9996C11.1048 11.9999 12.0004 12.8953 12.0006 13.9996C12.0006 15.104 11.1049 15.9994 10.0006 15.9996C9.82221 15.9996 9.6495 15.9741 9.48494 15.9303L4.85994 20.5563L13.6539 19.2242C14.1719 19.1457 14.6107 18.7986 14.8053 18.3121L17.233 12.2379L11.7633 6.76719L5.691 9.19688ZM14.8697 3.06992C14.7571 2.95749 14.5682 2.98503 14.4918 3.12461L13.2408 5.41563L18.5846 10.7604L20.8775 9.51035C21.0169 9.43392 21.0445 9.24501 20.9322 9.13242L14.8697 3.06992Z"
    fill="currentColor"
  />
</svg>
