<svg width="24" height="24" viewBox="0 0 24 24" fill="none" xmlns="http://www.w3.org/2000/svg" data-fui-icon="true">
  <path
    d="M13.0016 2.03657C13.6375 0.871221 15.2152 0.644653 16.154 1.58344L22.4176 7.84712C23.3558 8.7859 23.1286 10.3637 21.9635 10.9995L19.1461 12.5356L16.4958 19.1645C16.0707 20.2268 15.1143 20.985 13.9831 21.1567L1.86294 22.9926C1.62751 23.0283 1.38885 22.9499 1.22036 22.7817C1.05195 22.6132 0.973832 22.3746 1.00942 22.1391L2.84536 10.018C3.01694 8.88652 3.77499 7.93042 4.83755 7.50532L11.4645 4.85395L13.0016 2.03657ZM5.39517 8.8979C4.82633 9.12544 4.42053 9.63785 4.32876 10.2436L2.83364 20.1069L7.89712 15.0424C7.77184 14.7696 7.69985 14.4668 7.69985 14.1469C7.69988 12.9595 8.66287 11.9966 9.85024 11.9965C11.0376 11.9965 12.0006 12.9595 12.0006 14.1469C12.0006 15.3343 11.0377 16.2973 9.85024 16.2973C9.5319 16.2973 9.23045 16.2262 8.95864 16.102L3.89321 21.1674L13.7575 19.6733C14.363 19.5814 14.8757 19.1755 15.1032 18.6069L17.6706 12.1879L11.8131 6.33051L5.39517 8.8979ZM15.0934 2.64399C14.8627 2.41331 14.4753 2.46901 14.319 2.75532L12.9215 5.31684L18.6833 11.0795L21.2458 9.68305C21.5318 9.52683 21.5872 9.13836 21.3571 8.90766L15.0934 2.64399Z"
    fill="currentColor"
  />
</svg>
