<svg width="20" height="20" viewBox="0 0 20 20" fill="none" xmlns="http://www.w3.org/2000/svg" data-fui-icon="true">
  <path
    d="M10.6794 1.90711C11.236 0.886722 12.6173 0.68772 13.4391 1.50965L18.4909 6.56239C19.3126 7.38424 19.1137 8.76457 18.0934 9.32118L15.8649 10.536L13.7497 15.828C13.3899 16.7277 12.5798 17.3693 11.6218 17.5145L1.86199 18.994C1.62643 19.0297 1.38789 18.9506 1.21941 18.7821C1.05103 18.6136 0.972796 18.3751 1.00847 18.1395L2.48699 8.37879C2.63213 7.42076 3.27386 6.61074 4.17351 6.25086L9.46355 4.13465L10.6794 1.90711ZM4.73015 7.64442C4.32473 7.8068 4.03583 8.17158 3.97039 8.6034L2.83269 16.1073L6.6032 12.3368C6.53775 12.1532 6.50067 11.956 6.50066 11.7499C6.50066 10.7834 7.28416 9.99989 8.25066 9.99989C9.21699 10.0001 10.0007 10.7835 10.0007 11.7499C10.0006 12.7162 9.21695 13.4997 8.25066 13.4999C8.04493 13.4999 7.84808 13.4616 7.66472 13.3964L3.89226 17.1688L11.3971 16.0321C11.8291 15.9666 12.1948 15.677 12.3571 15.2714L14.3893 10.1884L9.81219 5.61121L4.73015 7.64442ZM12.3786 2.5702C12.265 2.45656 12.074 2.48409 11.9968 2.62489L10.9206 4.59754L15.402 9.07996L17.3757 8.00477C17.5166 7.92763 17.5439 7.73664 17.4303 7.62293L12.3786 2.5702Z"
    fill="currentColor"
  />
</svg>
