<svg width="20" height="20" viewBox="0 0 20 20" fill="none" xmlns="http://www.w3.org/2000/svg" data-fui-icon="true">
  <path
    d="M15.4863 11.775L13.9111 15.7154C13.5184 16.6974 12.6346 17.3978 11.5889 17.5562L2.47266 18.9371L7.94043 13.4703C8.04097 13.4882 8.14429 13.4996 8.25 13.4996C9.21641 13.4995 10 12.716 10 11.7496C9.99985 10.7833 9.21632 9.99968 8.25 9.99957C7.28359 9.99957 6.50015 10.7832 6.5 11.7496C6.5 11.8538 6.50987 11.956 6.52734 12.0552L1.05957 17.522L2.44043 8.4068C2.59896 7.36135 3.29951 6.47733 4.28125 6.08453L8.21973 4.50836L15.4863 11.775ZM10.5391 1.82965C11.1937 0.911965 12.4949 0.724816 13.3818 1.42047L13.5654 1.58258L18.4141 6.43219C19.3533 7.37212 19.1256 8.95104 17.959 9.58746L16.7725 10.233L9.76172 3.22223L10.4092 2.03668L10.5391 1.82965Z"
    fill="currentColor"
  />
</svg>
