<svg width="24" height="24" viewBox="0 0 24 24" fill="none" xmlns="http://www.w3.org/2000/svg" data-fui-icon="true">
  <path
    fill-rule="evenodd"
    clip-rule="evenodd"
    d="M16.0788 2.99957C19.7022 2.99975 22.7266 5.76562 23.0504 9.37457L23.7038 16.6519C23.9131 18.9874 22.073 20.9994 19.7282 20.9996C18.8353 20.9996 17.9679 20.6999 17.2653 20.149L15.067 18.4254C14.7152 18.1496 14.2807 17.9997 13.8336 17.9996H10.1657C9.71867 17.9996 9.28416 18.1497 8.93227 18.4254L6.73403 20.149C6.03145 20.6999 5.16393 20.9995 4.27114 20.9996C1.92615 20.9996 0.0861576 18.9875 0.295556 16.6519L0.948876 9.37457C1.27271 5.76554 4.29698 2.99957 7.92056 2.99957H16.0788ZM7.92056 4.99957C5.33232 4.99957 3.17145 6.97546 2.94009 9.55328L2.28774 16.8306C2.18334 17.9958 3.10125 18.9996 4.27114 18.9996C4.71637 18.9995 5.14924 18.8504 5.49966 18.5757L7.6979 16.8521C8.40196 16.3002 9.27107 15.9996 10.1657 15.9996H13.8336C14.7283 15.9997 15.5974 16.3001 16.3014 16.8521L18.4997 18.5757C18.8502 18.8505 19.2828 18.9996 19.7282 18.9996C20.8979 18.9994 21.816 17.9957 21.7116 16.8306L21.0592 9.55328C20.8279 6.97554 18.6669 4.99975 16.0788 4.99957H7.92056ZM7.99966 7.74957C8.55167 7.74973 8.99943 8.19758 8.99966 8.74957V9.99957H10.2497C10.8017 9.99973 11.2494 10.4476 11.2497 10.9996C11.2497 11.5518 10.8018 11.9994 10.2497 11.9996H8.99966V13.2496C8.99966 13.8018 8.55181 14.2494 7.99966 14.2496C7.44737 14.2496 6.99966 13.8019 6.99966 13.2496V11.9996H5.74966C5.19737 11.9996 4.74966 11.5519 4.74966 10.9996C4.74988 10.4475 5.19751 9.99957 5.74966 9.99957H6.99966V8.74957C6.99988 8.19748 7.44751 7.74957 7.99966 7.74957ZM14.9997 11.6002C15.6624 11.6002 16.1999 12.1376 16.1999 12.8004C16.1997 13.4629 15.6622 14.0005 14.9997 14.0005C14.3371 14.0005 13.7996 13.4629 13.7995 12.8004C13.7995 12.1376 14.3369 11.6002 14.9997 11.6002ZM17.3991 8.00055C18.0616 8.0006 18.599 8.53725 18.5993 9.19977C18.5992 9.8624 18.0617 10.3999 17.3991 10.4C16.7365 10.3998 16.1999 9.86233 16.1999 9.19977C16.2001 8.53731 16.7366 8.00071 17.3991 8.00055Z"
    fill="currentColor"
  />
</svg>
