<svg width="16" height="16" viewBox="0 0 16 16" fill="none" xmlns="http://www.w3.org/2000/svg" data-fui-icon="true">
  <path
    fill-rule="evenodd"
    clip-rule="evenodd"
    d="M10.8296 2C13.2955 2.00019 15.3514 3.88777 15.562 6.34473L15.9624 11.0146C16.1 12.6202 14.8335 13.9999 13.2222 14H13.1655C12.5727 14 11.9951 13.8087 11.52 13.4541L10.0845 12.3818C9.8687 12.2209 9.60655 12.1339 9.33739 12.1338H6.66552C6.39613 12.1338 6.13338 12.2207 5.91747 12.3818L4.48193 13.4541C4.007 13.8085 3.43 13.9999 2.83739 14H2.77978C1.16836 14 -0.0980828 12.6202 0.0395426 11.0146L0.439933 6.34473C0.650558 3.88764 2.70723 2 5.17333 2H10.8296ZM5.50048 5C5.08657 5.00026 4.75061 5.33606 4.75048 5.75V6.5H4.00048C3.58657 6.50026 3.25061 6.83606 3.25048 7.25C3.25061 7.66394 3.58657 7.99974 4.00048 8H4.75048V8.75C4.75061 9.16394 5.08657 9.49974 5.50048 9.5C5.91461 9.5 6.25035 9.1641 6.25048 8.75V8H7.00048C7.41461 8 7.75035 7.6641 7.75048 7.25C7.75035 6.8359 7.41461 6.5 7.00048 6.5H6.25048V5.75C6.25035 5.3359 5.91461 5 5.50048 5ZM9.75048 7.25C9.19849 7.25026 8.75061 7.69799 8.75048 8.25C8.75061 8.80201 9.19849 9.24974 9.75048 9.25C10.3027 9.25 10.7503 8.80217 10.7505 8.25C10.7503 7.69783 10.3027 7.25 9.75048 7.25ZM11.7505 5.25C11.1985 5.25026 10.7506 5.69799 10.7505 6.25C10.7506 6.80201 11.1985 7.24974 11.7505 7.25C12.3027 7.25 12.7503 6.80217 12.7505 6.25C12.7503 5.69783 12.3027 5.25 11.7505 5.25Z"
    fill="currentColor"
  />
</svg>
