<svg width="32" height="32" viewBox="0 0 32 32" fill="none" xmlns="http://www.w3.org/2000/svg" data-fui-icon="true">
  <path
    fill-rule="evenodd"
    clip-rule="evenodd"
    d="M21.8963 4.75006C26.3283 4.7505 30.0608 8.06481 30.5847 12.4659L31.7117 21.9385C32.048 24.7642 29.8413 27.2495 26.9959 27.2501H26.7341C25.7798 27.2501 24.847 26.9624 24.0584 26.4249L20.5964 24.0645C20.0571 23.6969 19.4191 23.5002 18.7664 23.5001H13.2341C12.5812 23.5001 11.9426 23.6968 11.4031 24.0645L7.94215 26.4249C7.1536 26.9625 6.22077 27.2499 5.26637 27.2501H5.00465C2.15869 27.2501 -0.0486017 24.7645 0.287856 21.9385L1.41579 12.4659C1.93984 8.06465 5.67194 4.75006 10.1043 4.75006H21.8963ZM10.1043 6.25006C6.43187 6.25006 3.3394 8.99607 2.90504 12.6426L1.77711 22.1163C1.54718 24.0497 3.05755 25.7501 5.00465 25.7501H5.26637C5.9193 25.7499 6.55795 25.5534 7.09743 25.1856L10.5584 22.8253C11.347 22.2878 12.2798 22.0001 13.2341 22.0001H18.7664C19.7207 22.0002 20.6536 22.2876 21.4422 22.8253L24.9031 25.1856C25.4427 25.5534 26.0812 25.7501 26.7341 25.7501H26.9959C28.9425 25.7495 30.4523 24.0494 30.2224 22.1163L29.0955 12.6426C28.6612 8.99629 25.5683 6.2505 21.8963 6.25006H10.1043ZM10.4988 10.7501C10.913 10.7501 11.2488 11.0858 11.2488 11.5001V13.7501H13.4988C13.913 13.7501 14.2488 14.0858 14.2488 14.5001C14.2488 14.9143 13.913 15.2501 13.4988 15.2501H11.2488V17.5001C11.2488 17.9143 10.913 18.2501 10.4988 18.2501C10.0848 18.2498 9.74881 17.9141 9.74879 17.5001V15.2501H7.49879C7.0848 15.2498 6.74881 14.9141 6.74879 14.5001C6.74879 14.086 7.08479 13.7503 7.49879 13.7501H9.74879V11.5001C9.74879 11.086 10.0848 10.7503 10.4988 10.7501ZM19.7498 15.5001C20.4398 15.5003 20.9996 16.06 20.9998 16.7501C20.9996 17.4401 20.4398 17.9998 19.7498 18.0001C19.0595 18 18.499 17.4402 18.4988 16.7501C18.499 16.0599 19.0595 15.5001 19.7498 15.5001ZM22.8494 10.9991C23.5396 10.9991 24.0992 11.5599 24.0994 12.2501C24.0991 12.9402 23.5396 13.5001 22.8494 13.5001C22.1592 13.5 21.5996 12.9402 21.5994 12.2501C21.5996 11.5599 22.1592 10.9991 22.8494 10.9991Z"
    fill="currentColor"
  />
</svg>
