<svg width="32" height="32" viewBox="0 0 32 32" fill="none" xmlns="http://www.w3.org/2000/svg" data-fui-icon="true">
  <path
    d="M21.4502 5C26.0222 5 29.8682 8.42784 30.3916 12.9697L31.4824 22.4404C31.8236 25.4022 29.5077 28 26.5264 28C25.4454 27.9999 24.3934 27.6484 23.5293 26.999L20.3389 24.6016C19.8192 24.2111 19.1861 24 18.5361 24H13.4658C12.8158 24 12.1827 24.211 11.6631 24.6016L8.47266 26.999C7.60845 27.6484 6.55659 28 5.47559 28C2.4944 27.9997 0.178536 25.4021 0.519531 22.4404L1.61133 12.9697C2.13472 8.42791 5.97988 5.00009 10.5518 5H21.4502ZM10.499 10.5C9.94682 10.5001 9.49902 10.9478 9.49902 11.5V13.5H7.49902C6.94682 13.5001 6.49902 13.9478 6.49902 14.5C6.49902 15.0522 6.94682 15.4999 7.49902 15.5H9.49902V17.5C9.49902 18.0522 9.94682 18.4999 10.499 18.5C11.0513 18.5 11.499 18.0523 11.499 17.5V15.5H13.499C14.0513 15.5 14.499 15.0523 14.499 14.5C14.499 13.9477 14.0513 13.5 13.499 13.5H11.499V11.5C11.499 10.9477 11.0513 10.5 10.499 10.5ZM19.749 15.5C19.0589 15.5001 18.4992 16.0599 18.499 16.75C18.4992 17.4401 19.0589 17.9999 19.749 18C20.439 17.9997 20.9988 17.44 20.999 16.75C20.9988 16.06 20.439 15.5003 19.749 15.5ZM22.8486 11C22.1585 11.0001 21.5988 11.5599 21.5986 12.25C21.5989 12.9401 22.1585 13.4999 22.8486 13.5C23.5388 13.5 24.0984 12.9401 24.0986 12.25C24.0984 11.5598 23.5389 11 22.8486 11Z"
    fill="currentColor"
  />
</svg>
