<svg width="32" height="32" viewBox="0 0 32 32" fill="none" xmlns="http://www.w3.org/2000/svg" data-fui-icon="true">
  <path
    d="M22.3096 4.75977C26.5585 4.95855 30.0774 8.20216 30.585 12.4658L31.7119 21.9385C32.0482 24.7642 29.8416 27.2495 26.9961 27.25H26.7344C25.78 27.25 24.8472 26.9623 24.0586 26.4248L20.5967 24.0645C20.0573 23.6968 19.4194 23.5001 18.7666 23.5H13.2344C12.5814 23.5 11.9429 23.6967 11.4033 24.0645L7.94238 26.4248C7.15381 26.9625 6.22103 27.2499 5.2666 27.25H5.00488C2.15892 27.25 -0.0483721 24.7645 0.288086 21.9385L1.41602 12.4658C1.94005 8.06457 5.67215 4.75 10.1045 4.75H21.8965L22.3096 4.75977ZM10.5 10.75C10.0858 10.75 9.75 11.0858 9.75 11.5V13.75H7.5C7.08579 13.75 6.75 14.0858 6.75 14.5C6.75 14.9142 7.08579 15.25 7.5 15.25H9.75V17.5C9.75 17.9142 10.0858 18.25 10.5 18.25C10.9141 18.2498 11.25 17.9141 11.25 17.5V15.25H13.5C13.9141 15.2498 14.25 14.9141 14.25 14.5C14.25 14.0859 13.9141 13.7502 13.5 13.75H11.25V11.5C11.25 11.0859 10.9141 10.7502 10.5 10.75ZM19.75 15.5C19.0599 15.5002 18.5002 16.0599 18.5 16.75C18.5002 17.4401 19.0599 17.9998 19.75 18C20.4399 17.9996 20.9998 17.4399 21 16.75C20.9998 16.0601 20.4399 15.5004 19.75 15.5ZM22.8496 11C22.1595 11.0002 21.5998 11.5599 21.5996 12.25C21.5999 12.94 22.1596 13.4998 22.8496 13.5C23.5397 13.4999 24.0993 12.9401 24.0996 12.25C24.0994 11.5599 23.5397 11.0001 22.8496 11Z"
    fill="currentColor"
  />
</svg>
