<svg width="20" height="20" viewBox="0 0 20 20" fill="none" xmlns="http://www.w3.org/2000/svg" data-fui-icon="true">
  <path
    d="M13.1348 3C16.1754 3 18.736 5.2745 19.0938 8.29395L19.6611 13.0889C19.9074 15.1703 18.2815 17 16.1855 17H16.001C15.28 16.9999 14.5759 16.7773 13.9863 16.3623L12.4395 15.2734C12.1868 15.0957 11.8851 15 11.5762 15H8.42188C8.11321 15.0001 7.81205 15.0959 7.55957 15.2734L6.01074 16.3623C5.42116 16.777 4.7179 17 3.99707 17H3.8125C1.71668 16.9998 0.0907268 15.1702 0.336914 13.0889L0.904297 8.29395C1.26207 5.27458 3.82278 3.00014 6.86328 3H13.1348ZM6.86328 5C4.83633 5.00014 3.12914 6.51643 2.89062 8.5293L2.32324 13.3232C2.21763 14.2152 2.91432 14.9998 3.8125 15H3.99707C4.306 15 4.60768 14.9043 4.86035 14.7266L6.4082 13.6377C6.99768 13.2229 7.7011 13.0001 8.42188 13H11.5762C12.2972 13 13.0011 13.2228 13.5908 13.6377L15.1377 14.7266C15.3903 14.9044 15.6921 14.9999 16.001 15H16.1855C17.0839 15 17.7804 14.2153 17.6748 13.3232L17.1074 8.5293C16.8689 6.51635 15.1618 5 13.1348 5H6.86328ZM6.87402 6.1875C7.42626 6.1875 7.87395 6.63528 7.87402 7.1875V8.0625H8.74902C9.30126 8.0625 9.74895 8.51028 9.74902 9.0625C9.74902 9.61478 9.30131 10.0625 8.74902 10.0625H7.87402V10.9375C7.87402 11.4898 7.42631 11.9375 6.87402 11.9375C6.32177 11.9375 5.87402 11.4898 5.87402 10.9375V10.0625H4.99902C4.44677 10.0625 3.99902 9.61476 3.99902 9.0625C3.9991 8.5103 4.44682 8.06254 4.99902 8.0625H5.87402V7.1875C5.8741 6.6353 6.32182 6.18754 6.87402 6.1875ZM12.499 9.5C13.0511 9.50013 13.4989 9.94788 13.499 10.5C13.499 11.0521 13.0512 11.4999 12.499 11.5C11.9468 11.5 11.4991 11.0522 11.499 10.5C11.4991 9.94783 11.9468 9.50005 12.499 9.5ZM14.499 6.5C15.0512 6.5 15.4989 6.9478 15.499 7.5C15.499 8.05223 15.0513 8.5 14.499 8.5C13.9468 8.49995 13.4991 8.0522 13.499 7.5C13.4991 6.94783 13.9468 6.50005 14.499 6.5Z"
    fill="currentColor"
  />
</svg>
