<svg width="24" height="24" viewBox="0 0 24 24" fill="none" xmlns="http://www.w3.org/2000/svg" data-fui-icon="true">
  <path
    d="M16.0791 2.99963C19.7025 2.99981 22.727 5.76568 23.0508 9.37463L23.7041 16.652C23.9135 18.9875 22.0733 20.9994 19.7285 20.9996C18.8356 20.9996 17.9683 20.7 17.2656 20.149L15.0674 18.4254C14.7155 18.1497 14.281 17.9998 13.834 17.9996H10.166C9.71902 17.9997 9.2845 18.1498 8.93262 18.4254L6.73438 20.149C6.0318 20.6999 5.16428 20.9996 4.27148 20.9996C1.92649 20.9996 0.0865004 18.9876 0.295898 16.652L0.949219 9.37463C1.27306 5.7656 4.29732 2.99963 7.9209 2.99963H16.0791ZM8 7.74963C7.44784 7.74963 7.0002 8.19752 7 8.74963V9.99963H5.75C5.19784 9.99963 4.7502 10.4475 4.75 10.9996C4.75 11.5519 5.19772 11.9996 5.75 11.9996H7V13.2496C7 13.8019 7.44772 14.2496 8 14.2496C8.55213 14.2494 9 13.8018 9 13.2496V11.9996H10.25C10.8021 11.9994 11.25 11.5518 11.25 10.9996C11.2498 10.4476 10.802 9.99982 10.25 9.99963H9V8.74963C8.9998 8.19763 8.552 7.74982 8 7.74963ZM14.999 11.6002C14.3363 11.6002 13.7988 12.1377 13.7988 12.8004C13.799 13.463 14.3364 14.0006 14.999 14.0006C15.6615 14.0004 16.1991 13.4629 16.1992 12.8004C16.1992 12.1378 15.6616 11.6004 14.999 11.6002ZM17.3984 8.00061C16.736 8.00077 16.1994 8.53738 16.1992 9.19983C16.1993 9.86242 16.7359 10.3999 17.3984 10.4C18.061 10.3998 18.5986 9.8624 18.5986 9.19983C18.5984 8.53739 18.0609 8.0008 17.3984 8.00061Z"
    fill="currentColor"
  />
</svg>
