<svg width="24" height="24" viewBox="0 0 24 24" fill="none" xmlns="http://www.w3.org/2000/svg" data-fui-icon="true">
  <path
    d="M16.5352 3.24963C20.0188 3.24963 22.9305 5.90134 23.2559 9.36975L23.9385 16.65C24.1444 18.8494 22.414 20.7494 20.2051 20.7496H19.999C19.1877 20.7496 18.3981 20.4864 17.749 19.9996L15.3486 18.1998C14.9593 17.908 14.4856 17.7496 13.999 17.7496H9.99902C9.51237 17.7497 9.03877 17.9079 8.64941 18.1998L6.24902 19.9996C5.59991 20.4865 4.81041 20.7496 3.99902 20.7496H3.79297C1.58416 20.7492 -0.146356 18.8493 0.0595703 16.65L0.742188 9.36975C1.06754 5.90142 3.97933 3.24979 7.46289 3.24963H16.5352ZM7.46289 4.74963C4.75356 4.74979 2.48851 6.81195 2.23535 9.5094L1.55371 16.7897C1.43001 18.1092 2.46775 19.2492 3.79297 19.2496H3.99902C4.48579 19.2496 4.9592 19.0915 5.34863 18.7994L7.74902 16.9996C8.39805 16.5129 9.18775 16.2497 9.99902 16.2496H13.999C14.8102 16.2496 15.6 16.513 16.249 16.9996L18.6494 18.7994C19.0388 19.0914 19.5124 19.2496 19.999 19.2496H20.2051C21.5304 19.2494 22.568 18.1093 22.4443 16.7897L21.7627 9.5094C21.5095 6.81187 19.2446 4.74963 16.5352 4.74963H7.46289ZM14.999 11.6002C15.6618 11.6002 16.1992 12.1377 16.1992 12.8004C16.199 13.463 15.6616 14.0006 14.999 14.0006C14.3366 14.0004 13.799 13.4628 13.7988 12.8004C13.7988 12.1378 14.3365 11.6005 14.999 11.6002ZM7.99902 7.99963C8.4131 7.99963 8.7488 8.33561 8.74902 8.74963V10.2496H10.249C10.6631 10.2496 10.9988 10.5856 10.999 10.9996C10.999 11.4138 10.6632 11.7496 10.249 11.7496H8.74902V13.2496C8.74902 13.6638 8.41324 13.9996 7.99902 13.9996C7.5849 13.9995 7.24902 13.6638 7.24902 13.2496V11.7496H5.74902C5.3349 11.7495 4.99902 11.4138 4.99902 10.9996C4.99925 10.5857 5.33504 10.2497 5.74902 10.2496H7.24902V8.74963C7.24925 8.33568 7.58504 7.99975 7.99902 7.99963ZM17.3984 8.00061C18.061 8.00061 18.5984 8.53728 18.5986 9.19983C18.5985 9.86249 18.0611 10.4 17.3984 10.4C16.7361 10.3996 16.1993 9.86225 16.1992 9.19983C16.1994 8.53751 16.7362 8.00099 17.3984 8.00061Z"
    fill="currentColor"
  />
</svg>
