<svg width="16" height="16" viewBox="0 0 16 16" fill="none" xmlns="http://www.w3.org/2000/svg" data-fui-icon="true">
  <path
    d="M10.8281 2C13.294 2.00019 15.3499 3.88777 15.5605 6.34473L15.9609 11.0146C16.0986 12.6202 14.8321 13.9999 13.2207 14H13.1641C12.5712 14 11.9936 13.8087 11.5186 13.4541L10.083 12.3818C9.86725 12.2209 9.60509 12.1339 9.33594 12.1338H6.66406C6.39468 12.1338 6.13193 12.2207 5.91602 12.3818L4.48047 13.4541C4.00554 13.8085 3.42854 13.9999 2.83594 14H2.77832C1.1669 14 -0.0995395 12.6202 0.0380859 11.0146L0.438477 6.34473C0.649101 3.88764 2.70578 2 5.17188 2H10.8281ZM5.49902 5C5.08511 5.00026 4.74916 5.33606 4.74902 5.75V6.5H3.99902C3.58511 6.50026 3.24916 6.83606 3.24902 7.25C3.24916 7.66394 3.58511 7.99974 3.99902 8H4.74902V8.75C4.74916 9.16394 5.08511 9.49974 5.49902 9.5C5.91316 9.5 6.24889 9.1641 6.24902 8.75V8H6.99902C7.41316 8 7.74889 7.6641 7.74902 7.25C7.74889 6.8359 7.41316 6.5 6.99902 6.5H6.24902V5.75C6.24889 5.3359 5.91316 5 5.49902 5ZM9.74902 7.25C9.19704 7.25026 8.74916 7.69799 8.74902 8.25C8.74916 8.80201 9.19704 9.24974 9.74902 9.25C10.3012 9.25 10.7489 8.80217 10.749 8.25C10.7489 7.69783 10.3012 7.25 9.74902 7.25ZM11.749 5.25C11.197 5.25026 10.7492 5.69799 10.749 6.25C10.7492 6.80201 11.197 7.24974 11.749 7.25C12.3012 7.25 12.7489 6.80217 12.749 6.25C12.7489 5.69783 12.3012 5.25 11.749 5.25Z"
    fill="currentColor"
  />
</svg>
