<svg width="24" height="24" viewBox="0 0 24 24" fill="none" xmlns="http://www.w3.org/2000/svg" data-fui-icon="true">
  <path
    fill-rule="evenodd"
    clip-rule="evenodd"
    d="M16.0788 2.99963C19.7023 2.99963 22.7266 5.76558 23.0504 9.37463L23.7038 16.652C23.9132 18.9876 22.0732 20.9996 19.7282 20.9996C18.8353 20.9996 17.9679 20.7 17.2653 20.149L15.067 18.4254C14.7151 18.1497 14.2807 17.9997 13.8336 17.9996H10.1657C9.71858 17.9997 9.2842 18.1497 8.93227 18.4254L6.73403 20.149C6.03136 20.7 5.16405 20.9996 4.27114 20.9996C1.92615 20.9996 0.0861576 18.9876 0.295556 16.652L0.948876 9.37463C1.2727 5.76558 4.29697 2.99963 7.92056 2.99963H16.0788ZM7.92056 4.99963C5.33231 4.99963 3.17144 6.9755 2.94009 9.55334L2.28774 16.8307C2.18334 17.9959 3.10125 18.9996 4.27114 18.9996C4.71649 18.9996 5.14915 18.8505 5.49966 18.5758L7.6979 16.8522C8.402 16.3002 9.27098 15.9997 10.1657 15.9996H13.8336C14.7283 15.9997 15.5973 16.3002 16.3014 16.8522L18.4997 18.5758C18.8502 18.8505 19.2828 18.9996 19.7282 18.9996C20.8981 18.9996 21.816 17.9959 21.7116 16.8307L21.0592 9.55334C20.8279 6.9755 18.667 4.99963 16.0788 4.99963H7.92056ZM7.99966 7.74963C8.5518 7.74963 8.99943 8.19754 8.99966 8.74963V9.99963H10.2497C10.8018 9.99963 11.2494 10.4475 11.2497 10.9996C11.2497 11.5519 10.8019 11.9996 10.2497 11.9996H8.99966V13.2496C8.99966 13.8019 8.55194 14.2496 7.99966 14.2496C7.4474 14.2496 6.99966 13.8019 6.99966 13.2496V11.9996H5.74966C5.1974 11.9996 4.74966 11.5519 4.74966 10.9996C4.74988 10.4476 5.19753 9.99966 5.74966 9.99963H6.99966V8.74963C6.99988 8.19756 7.44753 7.74966 7.99966 7.74963ZM14.9997 11.6002C15.6624 11.6002 16.1999 12.1377 16.1999 12.8004C16.1997 13.463 15.6623 14.0006 14.9997 14.0006C14.3372 14.0004 13.7996 13.4629 13.7995 12.8004C13.7995 12.1378 14.3371 11.6004 14.9997 11.6002ZM17.3991 8.00061C18.0617 8.00061 18.599 8.53728 18.5993 9.19983C18.5992 9.86249 18.0618 10.4 17.3991 10.4C16.7366 10.3997 16.1999 9.86231 16.1999 9.19983C16.2001 8.53746 16.7367 8.00091 17.3991 8.00061Z"
    fill="currentColor"
  />
</svg>
