<svg width="12" height="12" viewBox="0 0 12 12" fill="none" xmlns="http://www.w3.org/2000/svg" data-fui-icon="true">
  <path
    d="M7.78418 1.25C9.71073 1.25 11.3239 2.70997 11.5156 4.62695L11.8809 8.27637C12.0131 9.6008 10.9727 10.75 9.6416 10.75H9.60938C9.02277 10.7499 8.45916 10.5207 8.03906 10.1113L7.41309 9.50098C7.27313 9.36462 7.08504 9.28819 6.88965 9.28809H5.10938C4.91392 9.28817 4.72592 9.36455 4.58594 9.50098L3.95996 10.1113C3.53991 10.5206 2.97615 10.7499 2.38965 10.75H2.35645C1.02563 10.7497 -0.0141194 9.60063 0.118164 8.27637L0.482422 4.62695C0.674113 2.71016 2.28758 1.25031 4.21387 1.25H7.78418ZM4.24902 4.25C3.55894 4.25027 2.99909 4.80987 2.99902 5.5C2.99909 6.19013 3.55894 6.74973 4.24902 6.75C4.93934 6.75 5.49896 6.1903 5.49902 5.5C5.49896 4.8097 4.93934 4.25 4.24902 4.25ZM7.74902 4.25C7.05894 4.25027 6.49909 4.80987 6.49902 5.5C6.49909 6.19013 7.05894 6.74973 7.74902 6.75C8.43934 6.75 8.99896 6.1903 8.99902 5.5C8.99896 4.8097 8.43934 4.25 7.74902 4.25Z"
    fill="currentColor"
  />
</svg>
