<svg width="12" height="12" viewBox="0 0 12 12" fill="none" xmlns="http://www.w3.org/2000/svg" data-fui-icon="true">
  <path
    fill-rule="evenodd"
    clip-rule="evenodd"
    d="M7.51287 1.00012C9.57636 1.00012 11.3013 2.56982 11.4953 4.62415L11.8469 8.3468C11.981 9.76961 10.8619 10.9999 9.43279 11.0001C8.776 11.0001 8.14642 10.7338 7.68963 10.2618L7.13689 9.69055C7.0427 9.59326 6.91293 9.53821 6.77752 9.53821H5.21892C5.08359 9.53828 4.95368 9.59331 4.85955 9.69055L4.30681 10.2618C3.84997 10.7337 3.22043 11.0001 2.56365 11.0001C1.13471 10.9997 0.015447 9.76952 0.149588 8.3468L0.501151 4.62415C0.695102 2.5699 2.42019 1.00025 4.48357 1.00012H7.51287ZM4.48357 3.00012C3.45189 3.00025 2.58927 3.78547 2.49236 4.81262L2.1408 8.53528C2.11751 8.78434 2.31356 8.99971 2.56365 9.00012C2.67871 9.00012 2.78924 8.95286 2.86931 8.87024L3.42303 8.29895C3.89389 7.81273 4.54207 7.53829 5.21892 7.53821H6.77752C7.45472 7.5382 8.10342 7.81332 8.57439 8.29993L9.12713 8.87024C9.20715 8.95292 9.31773 9.00005 9.43279 9.00012C9.68303 8.99987 9.87899 8.78445 9.85564 8.53528L9.50408 4.81262C9.40716 3.78539 8.54466 3.00012 7.51287 3.00012H4.48357ZM4.2492 4.25012C4.93955 4.25012 5.4992 4.80977 5.4992 5.50012C5.49915 6.19044 4.93953 6.75012 4.2492 6.75012C3.55892 6.75006 2.99924 6.1904 2.9992 5.50012C2.9992 4.8098 3.55889 4.25018 4.2492 4.25012ZM7.7492 4.25012C8.43955 4.25012 8.9992 4.80977 8.9992 5.50012C8.99915 6.19044 8.43953 6.75012 7.7492 6.75012C7.05892 6.75006 6.49924 6.1904 6.4992 5.50012C6.4992 4.8098 7.05889 4.25018 7.7492 4.25012Z"
    fill="currentColor"
  />
</svg>
