<svg width="20" height="20" viewBox="0 0 20 20" fill="none" xmlns="http://www.w3.org/2000/svg" data-fui-icon="true">
  <path
    d="M13.5435 2.75C16.464 2.7501 18.9205 4.93957 19.2554 7.84082L19.9233 13.6279C20.1457 15.5573 18.637 17.2498 16.6948 17.25H16.3325C15.6296 17.2498 14.9447 17.0214 14.3823 16.5996L12.7163 15.3496C12.4135 15.1227 12.0449 15 11.6665 15H8.3335C7.95504 15.0001 7.58549 15.1225 7.28271 15.3496L5.61572 16.5996C5.05331 17.0213 4.36943 17.2499 3.6665 17.25H3.3042C1.36226 17.2495 -0.146611 15.5572 0.0756836 13.6279L0.743652 7.84082C1.07844 4.93969 3.53525 2.75034 6.45557 2.75H13.5435ZM6.45557 4.25C4.29718 4.25034 2.48138 5.86849 2.23389 8.0127L1.56592 13.7998C1.44634 14.8384 2.25878 15.7495 3.3042 15.75H3.6665C4.04487 15.7499 4.41354 15.6273 4.71631 15.4004L6.3833 14.1504C6.94571 13.7286 7.63051 13.5001 8.3335 13.5H11.6665C12.3696 13.5 13.0542 13.7286 13.6167 14.1504L15.2827 15.4004C15.5854 15.6274 15.9542 15.7498 16.3325 15.75H16.6948C17.7405 15.7498 18.5527 14.8386 18.4331 13.7998L17.7651 8.0127C17.5176 5.86837 15.702 4.2501 13.5435 4.25H6.45557ZM6.87549 6.4375C7.28948 6.4377 7.62541 6.77347 7.62549 7.1875V8.3125H8.75049C9.16448 8.3127 9.50041 8.64847 9.50049 9.0625C9.50049 9.47659 9.16453 9.8123 8.75049 9.8125H7.62549V10.9375C7.62549 11.3516 7.28953 11.6873 6.87549 11.6875C6.46127 11.6875 6.12549 11.3517 6.12549 10.9375V9.8125H5.00049C4.58627 9.8125 4.25049 9.47671 4.25049 9.0625C4.25057 8.64835 4.58632 8.3125 5.00049 8.3125H6.12549V7.1875C6.12557 6.77335 6.46132 6.4375 6.87549 6.4375ZM12.5005 9.5C13.0524 9.50032 13.5004 9.948 13.5005 10.5C13.5004 11.052 13.0525 11.4997 12.5005 11.5C11.9482 11.5 11.5006 11.0522 11.5005 10.5C11.5006 9.9478 11.9483 9.5 12.5005 9.5ZM14.5005 6.5C15.0526 6.50019 15.5004 6.94791 15.5005 7.5C15.5004 8.05211 15.0526 8.49981 14.5005 8.5C13.9482 8.5 13.5006 8.05223 13.5005 7.5C13.5006 6.9478 13.9483 6.5 14.5005 6.5Z"
    fill="currentColor"
  />
</svg>
