<svg width="16" height="16" viewBox="0 0 16 16" fill="none" xmlns="http://www.w3.org/2000/svg" data-fui-icon="true">
  <path
    fill-rule="evenodd"
    clip-rule="evenodd"
    d="M10.4756 1.99976C13.0725 1.99976 15.2376 3.98842 15.458 6.57593L15.8194 10.823C15.9649 12.5321 14.6167 13.9998 12.9014 13.9998C12.2669 13.9997 11.6499 13.7931 11.1426 13.4119L9.82619 12.4236C9.6531 12.2935 9.44211 12.2225 9.22561 12.2224H6.77737C6.56074 12.2224 6.349 12.2935 6.1758 12.4236L4.8594 13.4128C4.35223 13.7938 3.73494 13.9997 3.10061 13.9998C1.38536 13.9997 0.0371326 12.5321 0.182639 10.823L0.543968 6.57593C0.764389 3.98842 2.92949 1.99978 5.52639 1.99976H10.4756ZM5.501 4.74976C4.94882 4.74978 4.50113 5.1976 4.501 5.74976V6.24976H4.001C3.44882 6.24978 3.00113 6.6976 3.001 7.24976C3.001 7.80203 3.44873 8.24973 4.001 8.24976H4.501V8.74976C4.501 9.30203 4.94873 9.74973 5.501 9.74976C6.05328 9.74976 6.501 9.30204 6.501 8.74976V8.24976H7.001C7.55328 8.24976 8.001 7.80204 8.001 7.24976C8.00087 6.69758 7.5532 6.24976 7.001 6.24976H6.501V5.74976C6.50087 5.19758 6.0532 4.74976 5.501 4.74976ZM9.751 7.24976C9.19882 7.24978 8.75113 7.6976 8.751 8.24976C8.751 8.80203 9.19873 9.24973 9.751 9.24976C10.3033 9.24976 10.751 8.80204 10.751 8.24976C10.7509 7.69758 10.3032 7.24976 9.751 7.24976ZM11.751 5.24976C11.1988 5.24978 10.7511 5.6976 10.751 6.24976C10.751 6.80203 11.1987 7.24973 11.751 7.24976C12.3033 7.24976 12.751 6.80204 12.751 6.24976C12.7509 5.69758 12.3032 5.24976 11.751 5.24976Z"
    fill="currentColor"
  />
</svg>
