<svg width="20" height="20" viewBox="0 0 20 20" fill="none" xmlns="http://www.w3.org/2000/svg" data-fui-icon="true">
  <path
    d="M13.1348 3C16.1754 3 18.736 5.2745 19.0938 8.29395L19.6611 13.0889C19.9074 15.1703 18.2815 17 16.1855 17H16.001C15.28 16.9999 14.5759 16.7773 13.9863 16.3623L12.4395 15.2734C12.1868 15.0957 11.8851 15 11.5762 15H8.42188C8.11321 15.0001 7.81205 15.0959 7.55957 15.2734L6.01074 16.3623C5.42117 16.777 4.7179 17 3.99707 17H3.8125C1.71668 16.9998 0.0907268 15.1702 0.336914 13.0889L0.904297 8.29395C1.26207 5.27458 3.82278 3.00014 6.86328 3H13.1348ZM6.87598 6.1875C6.32386 6.18766 5.87604 6.63537 5.87598 7.1875V8.0625H5.00098C4.44886 8.06266 4.00104 8.51037 4.00098 9.0625C4.00098 9.61469 4.44882 10.0623 5.00098 10.0625H5.87598V10.9375C5.87598 11.4897 6.32382 11.9373 6.87598 11.9375C7.42826 11.9375 7.87598 11.4898 7.87598 10.9375V10.0625H8.75098C9.30326 10.0625 9.75098 9.61478 9.75098 9.0625C9.75091 8.51027 9.30322 8.0625 8.75098 8.0625H7.87598V7.1875C7.87591 6.63527 7.42822 6.1875 6.87598 6.1875ZM12.501 9.5C11.9489 9.50016 11.501 9.94787 11.501 10.5C11.501 11.0521 11.9489 11.4998 12.501 11.5C13.0531 11.4999 13.5009 11.0521 13.501 10.5C13.5009 9.94785 13.0531 9.50013 12.501 9.5ZM14.501 6.5C13.9489 6.50016 13.501 6.94787 13.501 7.5C13.501 8.05213 13.9489 8.49984 14.501 8.5C15.0532 8.5 15.5009 8.05223 15.501 7.5C15.5009 6.94777 15.0532 6.5 14.501 6.5Z"
    fill="currentColor"
  />
</svg>
