<svg width="12" height="12" viewBox="0 0 12 12" fill="none" xmlns="http://www.w3.org/2000/svg" data-fui-icon="true">
  <path
    fill-rule="evenodd"
    clip-rule="evenodd"
    d="M7.78479 1.25012C9.71134 1.25012 11.3245 2.71008 11.5162 4.62708L11.8815 8.27649C12.0137 9.60088 10.9732 10.7501 9.64221 10.7501H9.60998C9.02339 10.75 8.45976 10.5209 8.03967 10.1115L7.41369 9.5011C7.27373 9.36471 7.08567 9.28831 6.89025 9.28821H5.10998C4.91453 9.2883 4.72652 9.36468 4.58654 9.5011L3.96057 10.1115C3.54052 10.5207 2.97672 10.75 2.39025 10.7501H2.35705C1.02629 10.7498 -0.0134331 9.60069 0.118771 8.27649L0.483028 4.62708C0.674719 2.71029 2.28819 1.25044 4.21447 1.25012H7.78479ZM4.21447 2.75012C3.05882 2.75044 2.0912 3.6265 1.97619 4.77649L1.61096 8.4259C1.56718 8.867 1.91379 9.24981 2.35705 9.25012H2.39025C2.58558 9.25001 2.77376 9.1735 2.91369 9.03723L3.53967 8.42688C3.95976 8.01746 4.52339 7.7883 5.10998 7.78821H6.89025C7.47686 7.78831 8.04048 8.01744 8.46057 8.42688L9.08654 9.03723C9.22653 9.17366 9.41452 9.25004 9.60998 9.25012H9.64221C10.0858 9.25012 10.4322 8.86722 10.3883 8.4259L10.024 4.77649C9.90901 3.62629 8.94072 2.75012 7.78479 2.75012H4.21447ZM4.25061 4.25012C4.94074 4.25038 5.50061 4.80993 5.50061 5.50012C5.50056 6.19028 4.94072 6.74986 4.25061 6.75012C3.56028 6.75012 3.00065 6.19044 3.00061 5.50012C3.00061 4.80977 3.56025 4.25012 4.25061 4.25012ZM7.75061 4.25012C8.44074 4.25038 9.00061 4.80993 9.00061 5.50012C9.00056 6.19028 8.44072 6.74986 7.75061 6.75012C7.06028 6.75012 6.50065 6.19044 6.50061 5.50012C6.50061 4.80977 7.06025 4.25012 7.75061 4.25012Z"
    fill="currentColor"
  />
</svg>
