<svg width="32" height="32" viewBox="0 0 32 32" fill="none" xmlns="http://www.w3.org/2000/svg" data-fui-icon="true">
  <path
    fill-rule="evenodd"
    clip-rule="evenodd"
    d="M21.4504 5.00006C26.0223 5.00011 29.8684 8.42792 30.3918 12.9698L31.4826 22.4405C31.8238 25.4022 29.5078 28 26.5265 28.0001C25.4456 28 24.3936 27.6485 23.5295 26.9991L20.339 24.6016C19.8194 24.2111 19.1863 24.0001 18.5363 24.0001H13.466C12.8159 24.0001 12.183 24.2111 11.6633 24.6016L8.47283 26.9991C7.60862 27.6485 6.55678 28 5.47576 28.0001C2.49448 27.9999 0.178688 25.4022 0.519703 22.4405L1.6115 12.9698C2.1349 8.42792 5.97998 5.00006 10.5519 5.00006H21.4504ZM10.5519 7.00006C6.99593 7.00006 4.00486 9.66665 3.59783 13.1993L2.50701 22.669C2.30256 24.4434 3.68962 25.9999 5.47576 26.0001C6.12343 26 6.75389 25.7896 7.27166 25.4005L10.4621 23.003C11.3282 22.3521 12.3825 22.0001 13.466 22.0001H18.5363C19.6197 22.0001 20.6741 22.3522 21.5402 23.003L24.7306 25.4005C25.2483 25.7895 25.879 26 26.5265 26.0001C28.3126 26 29.6997 24.4433 29.4953 22.669L28.4045 13.1993C27.9975 9.66661 25.0064 7.00011 21.4504 7.00006H10.5519ZM10.5002 10.5001C11.0524 10.5001 11.5002 10.9478 11.5002 11.5001V13.5001H13.5002C14.0524 13.5001 14.5002 13.9478 14.5002 14.5001C14.5002 15.0523 14.0524 15.5 13.5002 15.5001H11.5002V17.5001C11.5002 18.0523 11.0524 18.5 10.5002 18.5001C9.94789 18.5001 9.50018 18.0523 9.50017 17.5001V15.5001H7.50017C6.94789 15.5001 6.50018 15.0523 6.50017 14.5001C6.50017 13.9478 6.94789 13.5001 7.50017 13.5001H9.50017V11.5001C9.50017 10.9478 9.94789 10.5001 10.5002 10.5001ZM19.7502 15.5001C20.4402 15.5003 21 16.06 21.0002 16.7501C21 17.4401 20.4402 17.9998 19.7502 18.0001C19.0601 17.9998 18.5004 17.4401 18.5002 16.7501C18.5004 16.06 19.0601 15.5003 19.7502 15.5001ZM22.8498 11.0001C23.54 11.0001 24.0996 11.5599 24.0998 12.2501C24.0995 12.9402 23.54 13.5001 22.8498 13.5001C22.1598 13.4998 21.6 12.94 21.5998 12.2501C21.6 11.56 22.1598 11.0003 22.8498 11.0001Z"
    fill="currentColor"
  />
</svg>
