<svg width="16" height="16" viewBox="0 0 16 16" fill="none" xmlns="http://www.w3.org/2000/svg" data-fui-icon="true">
  <path
    fill-rule="evenodd"
    clip-rule="evenodd"
    d="M10.8296 1.99976C13.2954 1.99995 15.3513 3.88764 15.562 6.34448L15.9624 11.0144C16.1 12.6199 14.8336 13.9997 13.2222 13.9998H13.1655C12.5727 13.9998 11.9951 13.8085 11.52 13.4539L10.0845 12.3816C9.86871 12.2207 9.60654 12.1336 9.33739 12.1335H6.66552C6.39618 12.1335 6.13336 12.2206 5.91747 12.3816L4.48193 13.4539C4.007 13.8083 3.43 13.9996 2.83739 13.9998H2.77978C1.16836 13.9997 -0.0980828 12.6199 0.0395426 11.0144L0.439933 6.34448C0.650675 3.88752 2.70732 1.99976 5.17333 1.99976H10.8296ZM5.17333 3.49976C3.48609 3.49976 2.07928 4.79137 1.93505 6.47241L1.53466 11.1433C1.47228 11.873 2.04742 12.4997 2.77978 12.4998H2.83739C3.10658 12.4996 3.3687 12.4127 3.58446 12.2517L5.02001 11.1794C5.49505 10.825 6.0728 10.6336 6.66552 10.6335H9.33739C9.93011 10.6336 10.5069 10.8259 10.9819 11.1804L12.4175 12.2517C12.6334 12.4129 12.8961 12.4998 13.1655 12.4998H13.2222C13.9545 12.4997 14.5306 11.8729 14.4683 11.1433L14.0679 6.47241C13.9236 4.79149 12.5167 3.49995 10.8296 3.49976H5.17333ZM5.50048 4.99976C5.91461 4.99976 6.25035 5.33566 6.25048 5.74976V6.49976H7.00048C7.41461 6.49976 7.75035 6.83566 7.75048 7.24976C7.75048 7.66397 7.41469 7.99976 7.00048 7.99976H6.25048V8.74976C6.25048 9.16397 5.91469 9.49976 5.50048 9.49976C5.08648 9.4995 4.75048 9.16381 4.75048 8.74976V7.99976H4.00048C3.58648 7.9995 3.25048 7.66381 3.25048 7.24976C3.25061 6.83581 3.58657 6.50001 4.00048 6.49976H4.75048V5.74976C4.75061 5.33581 5.08657 5.00001 5.50048 4.99976ZM9.75048 7.24976C10.3027 7.24976 10.7503 7.69759 10.7505 8.24976C10.7505 8.80204 10.3028 9.24976 9.75048 9.24976C9.19841 9.2495 8.75048 8.80188 8.75048 8.24976C8.75061 7.69774 9.1985 7.25001 9.75048 7.24976ZM11.7505 5.24976C12.3027 5.24976 12.7503 5.69759 12.7505 6.24976C12.7505 6.80204 12.3028 7.24976 11.7505 7.24976C11.1984 7.2495 10.7505 6.80188 10.7505 6.24976C10.7506 5.69774 11.1985 5.25001 11.7505 5.24976Z"
    fill="currentColor"
  />
</svg>
