<svg width="12" height="12" viewBox="0 0 12 12" fill="none" xmlns="http://www.w3.org/2000/svg" data-fui-icon="true">
  <path
    d="M7.78455 1.25024C9.7111 1.25024 11.3243 2.71021 11.516 4.6272L11.8812 8.27661C12.0135 9.601 10.973 10.7502 9.64197 10.7502H9.60974C9.02315 10.7502 8.45952 10.521 8.03943 10.1116L7.41345 9.50122C7.27349 9.36483 7.08543 9.28843 6.89001 9.28833H5.10974C4.91429 9.28842 4.72628 9.3648 4.5863 9.50122L3.96033 10.1116C3.54028 10.5208 2.97648 10.7501 2.39001 10.7502H2.35681C1.02605 10.7499 -0.0136732 9.60081 0.11853 8.27661L0.482788 4.6272C0.674479 2.71041 2.28795 1.25056 4.21423 1.25024H7.78455ZM4.21423 2.75024C3.05858 2.75056 2.09096 3.62662 1.97595 4.77661L1.61072 8.42603C1.56694 8.86712 1.91355 9.24993 2.35681 9.25024H2.39001C2.58534 9.25013 2.77352 9.17363 2.91345 9.03735L3.53943 8.427C3.95952 8.01758 4.52315 7.78842 5.10974 7.78833H6.89001C7.47662 7.78843 8.04024 8.01756 8.46033 8.427L9.0863 9.03735C9.22629 9.17378 9.41428 9.25017 9.60974 9.25024H9.64197C10.0855 9.25024 10.4319 8.86734 10.3881 8.42603L10.0238 4.77661C9.90877 3.62642 8.94048 2.75024 7.78455 2.75024H4.21423ZM4.25037 4.25024C4.9405 4.2505 5.50037 4.81005 5.50037 5.50024C5.50032 6.1904 4.94047 6.74999 4.25037 6.75024C3.56004 6.75024 3.00041 6.19056 3.00037 5.50024C3.00037 4.80989 3.56001 4.25024 4.25037 4.25024ZM7.75037 4.25024C8.4405 4.2505 9.00037 4.81005 9.00037 5.50024C9.00032 6.1904 8.44048 6.74999 7.75037 6.75024C7.06004 6.75024 6.50041 6.19056 6.50037 5.50024C6.50037 4.80989 7.06001 4.25024 7.75037 4.25024Z"
    fill="currentColor"
  />
</svg>
