<svg width="20" height="20" viewBox="0 0 20 20" fill="none" xmlns="http://www.w3.org/2000/svg" data-fui-icon="true">
  <path
    fill-rule="evenodd"
    clip-rule="evenodd"
    d="M11.0723 0C12.3138 0 13.3202 1.00648 13.3203 2.24805C13.3203 2.54005 13.5099 2.86019 13.8691 3.06055C13.9383 3.09914 14.0073 3.13813 14.0752 3.17871C14.4287 3.39 14.8011 3.3952 15.0547 3.24902C16.1305 2.62844 17.5056 2.99688 18.1269 4.07227L19.1982 5.92676C19.8195 7.00229 19.451 8.37753 18.375 8.99805C18.1222 9.14384 17.94 9.46781 17.9463 9.87793C17.9469 9.91855 17.9473 9.95924 17.9473 10C17.9473 10.0401 17.9469 10.0802 17.9463 10.1201C17.94 10.5305 18.1223 10.854 18.375 11C19.4506 11.621 19.819 12.9967 19.1982 14.0723L18.1279 15.9268C17.507 17.0022 16.1311 17.3711 15.0556 16.75C14.8025 16.6038 14.4306 16.6081 14.0771 16.8193C14.0086 16.8603 13.9389 16.8996 13.8691 16.9385C13.51 17.1387 13.3204 17.4588 13.3203 17.751C13.3203 18.9929 12.3132 20 11.0713 20H8.92967C7.68749 20 6.67993 18.9931 6.67967 17.751C6.67967 17.4585 6.49007 17.1384 6.13085 16.9385C6.06125 16.8997 5.99212 16.8601 5.92381 16.8193C5.56973 16.6081 5.19748 16.6038 4.94432 16.75C3.86904 17.3709 2.49406 17.002 1.87303 15.9268L0.80272 14.0732C0.181302 12.9971 0.549068 11.6209 1.62499 10.999C1.87846 10.8525 2.06067 10.5279 2.05467 10.1172C2.05411 10.0782 2.0537 10.0391 2.0537 10C2.0537 9.96055 2.0541 9.92116 2.05467 9.88184C2.0607 9.47123 1.87848 9.1464 1.62499 9C0.549127 8.37856 0.180625 7.00282 0.801744 5.92676L1.87108 4.07324C2.49216 2.99728 3.8682 2.62831 4.94432 3.24902C5.1979 3.39534 5.57064 3.39104 5.92479 3.17969C5.9928 3.13908 6.06155 3.09915 6.13085 3.06055C6.48996 2.86049 6.67961 2.54124 6.67967 2.24902C6.67967 1.00704 7.68673 6.18175e-05 8.9287 0H11.0723ZM9.99901 6.25C7.92805 6.25013 6.24901 7.92901 6.24901 10C6.24901 12.071 7.92805 13.7499 9.99901 13.75C12.0701 13.75 13.749 12.0711 13.749 10C13.749 7.92893 12.0701 6.25 9.99901 6.25Z"
    fill="currentColor"
  />
</svg>
