<svg width="32" height="32" viewBox="0 0 32 32" fill="none" xmlns="http://www.w3.org/2000/svg" data-fui-icon="true">
  <path
    d="M17.6582 1C19.3468 1.00004 20.7158 2.36901 20.7158 4.05762C20.7159 4.68537 21.117 5.29882 21.7695 5.66211C21.8736 5.72005 21.977 5.77987 22.0791 5.84082C22.7225 6.22476 23.4568 6.26564 24.0029 5.95117C25.4685 5.10716 27.3406 5.60932 28.1875 7.07324L29.8379 9.9248C30.6848 11.3888 30.1823 13.2623 28.7168 14.1064C28.1729 14.4196 27.842 15.0734 27.8535 15.8203C27.8544 15.8801 27.8545 15.94 27.8545 16L27.8535 16.1777C27.842 16.9246 28.1722 17.5782 28.7158 17.8916C30.1813 18.7361 30.6837 20.61 29.8369 22.0742L28.1865 24.9268C27.3397 26.3909 25.4674 26.8934 24.002 26.0488C23.456 25.7341 22.7214 25.7743 22.0781 26.1582C21.9765 26.2189 21.8731 26.2782 21.7695 26.3359C21.117 26.6995 20.716 27.3136 20.7158 27.9414C20.7158 29.6304 19.3462 31 17.6572 31H14.3428C12.6538 31 11.2842 29.6304 11.2842 27.9414C11.284 27.3137 10.8828 26.7003 10.2305 26.3369C10.1262 26.2788 10.0222 26.2193 9.91992 26.1582C9.27652 25.774 8.54198 25.7331 7.99609 26.0479C6.5312 26.8923 4.65923 26.3904 3.8125 24.9268L2.16211 22.0752C1.31517 20.6109 1.81769 18.7365 3.2832 17.8916C3.82731 17.5776 4.15853 16.9232 4.14746 16.1768L4.14648 16C4.14649 15.941 4.14659 15.8821 4.14746 15.8232C4.15852 15.0764 3.82673 14.4214 3.28223 14.1074C1.8171 13.2624 1.31546 11.3891 2.16211 9.9248L3.81055 7.07324C4.65724 5.60926 6.52974 5.10778 7.99512 5.95215C8.54107 6.26661 9.27551 6.22564 9.91895 5.8418C10.0216 5.78052 10.1258 5.72035 10.2305 5.66211C10.8829 5.29902 11.2842 4.68535 11.2842 4.05762C11.2842 2.36897 12.6531 1 14.3418 1H17.6582ZM16 11C13.2387 11.0002 11 13.2387 11 16C11 18.7613 13.2387 20.9998 16 21C18.7614 21 21 18.7614 21 16C21 13.2386 18.7614 11 16 11Z"
    fill="currentColor"
  />
</svg>
