<svg width="20" height="20" viewBox="0 0 20 20" fill="none" xmlns="http://www.w3.org/2000/svg" data-fui-icon="true">
  <path
    fill-rule="evenodd"
    clip-rule="evenodd"
    d="M11.0429 0C12.4002 4.4803e-05 13.5009 1.10071 13.5009 2.45801C13.501 2.62356 13.613 2.85366 13.8964 3.01172C13.9662 3.05068 14.0359 3.09087 14.1044 3.13184C14.3835 3.29852 14.64 3.28035 14.7841 3.19727C15.9602 2.51939 17.4634 2.9222 18.1425 4.09766L19.1845 5.90137C19.8637 7.07741 19.4597 8.58146 18.2831 9.25977C18.1401 9.34226 17.997 9.55356 18.0019 9.87695C18.0025 9.91776 18.0028 9.95903 18.0028 10C18.0028 10.0401 18.0025 10.0801 18.0019 10.1201C17.997 10.4437 18.1403 10.656 18.2841 10.7393C19.4601 11.4186 19.8628 12.9226 19.1835 14.0986L18.1425 15.9014C17.4633 17.0773 15.9593 17.4805 14.7831 16.8018C14.639 16.7187 14.3826 16.7004 14.1034 16.8672C14.0351 16.908 13.966 16.9485 13.8964 16.9873C13.6129 17.1456 13.5009 17.3763 13.5009 17.542C13.5008 18.8995 12.4004 19.9999 11.0429 20H8.95792C7.60032 20 6.49915 18.8995 6.49894 17.542C6.49894 17.3762 6.38721 17.1448 6.10343 16.9863C6.03373 16.9474 5.96479 16.9071 5.8964 16.8662C5.61741 16.6993 5.36065 16.7177 5.21671 16.8008C4.0406 17.4801 2.53646 17.0776 1.85734 15.9014L0.816323 14.0986C0.13737 12.9225 0.540759 11.4185 1.71671 10.7393C1.86053 10.656 2.00377 10.4437 1.99894 10.1201C1.99834 10.0801 1.99796 10.0401 1.99796 10C1.99796 9.96 1.99835 9.91975 1.99894 9.87988C2.00366 9.55616 1.85966 9.34388 1.71574 9.26074C0.539727 8.58142 0.137284 7.07758 0.816323 5.90137L1.85734 4.09766C2.53661 2.92163 4.04024 2.51878 5.21671 3.19727C5.36102 3.28047 5.61806 3.29881 5.89738 3.13184C5.96549 3.09111 6.03402 3.05047 6.10343 3.01172C6.38684 2.85349 6.49884 2.62358 6.49894 2.45801C6.49894 1.10061 7.59955 0 8.95695 0H11.0429ZM9.99894 7C8.34209 7 6.99894 8.34315 6.99894 10C6.99894 11.6569 8.34209 13 9.99894 13C11.6558 13 12.9989 11.6568 12.9989 10C12.9989 8.34317 11.6558 7.00004 9.99894 7Z"
    fill="currentColor"
  />
</svg>
