<svg width="12" height="12" viewBox="0 0 12 12" fill="none" xmlns="http://www.w3.org/2000/svg" data-fui-icon="true">
  <path
    d="M6.63672 0C7.52024 0 8.23709 0.716134 8.2373 1.59961V1.7334C8.27648 1.75519 8.31501 1.77796 8.35352 1.80078L8.48535 1.72559L8.63086 1.65137C9.31914 1.34448 10.1328 1.56276 10.5752 2.17285L10.6641 2.30957L11.46 3.67773C11.9063 4.44522 11.6425 5.42989 10.8721 5.87109L10.7539 5.93848C10.7542 5.95894 10.7559 5.97948 10.7559 6L10.7539 6.06055L10.873 6.12891C11.6428 6.57023 11.9068 7.55411 11.4609 8.32129L10.665 9.69043C10.2229 10.4508 9.24956 10.7117 8.48633 10.2744L8.35352 10.1982C8.31517 10.221 8.27633 10.2429 8.2373 10.2646V10.4004C8.23709 11.2839 7.52024 12 6.63672 12H5.04004C4.15662 11.9999 3.44064 11.2838 3.44043 10.4004V10.2656C3.40052 10.2434 3.36051 10.2215 3.32129 10.1982L3.19141 10.2734C2.42822 10.7112 1.45513 10.4508 1.0127 9.69043L0.216797 8.32227C-0.229068 7.55539 0.0344103 6.57155 0.803711 6.12988L0.923828 6.06055C0.923576 6.04039 0.921875 6.02022 0.921875 6L0.923828 5.93848L0.804688 5.87109C0.034833 5.42974 -0.22911 4.44588 0.216797 3.67871L1.01367 2.30957L1.10254 2.17285C1.54515 1.5628 2.35861 1.3451 3.04688 1.65234L3.19238 1.72559L3.32227 1.7998C3.36126 1.77672 3.40076 1.75445 3.44043 1.73242V1.59961C3.44064 0.716214 4.15663 0.000130632 5.04004 0H6.63672ZM5.83984 4.25C4.87335 4.25 4.08984 5.0335 4.08984 6C4.08984 6.9665 4.87335 7.75 5.83984 7.75C6.80634 7.75 7.58984 6.9665 7.58984 6C7.58984 5.0335 6.80634 4.25 5.83984 4.25Z"
    fill="currentColor"
  />
</svg>
