<svg width="16" height="16" viewBox="0 0 16 16" fill="none" xmlns="http://www.w3.org/2000/svg" data-fui-icon="true">
  <path
    fill-rule="evenodd"
    clip-rule="evenodd"
    d="M8.80598 0C9.86985 0.000378618 10.7325 0.862841 10.7327 1.92676C10.7327 2.08467 10.8376 2.28855 11.0804 2.42676C11.1324 2.45637 11.1846 2.48653 11.2357 2.51758C11.4642 2.65632 11.6819 2.64475 11.8089 2.57031C12.7202 2.03662 13.8927 2.35117 14.4144 3.26953L15.2503 4.74121C15.7699 5.65658 15.4573 6.82037 14.5491 7.35254C14.4145 7.43153 14.2946 7.62045 14.2991 7.89258C14.2997 7.92816 14.3001 7.96424 14.3001 8L14.2991 8.10547C14.2945 8.37818 14.4143 8.56801 14.5491 8.64746C15.4573 9.18067 15.7695 10.3451 15.2493 11.2607L14.4144 12.7305C13.8925 13.6489 12.7201 13.9629 11.8089 13.4287C11.6819 13.3542 11.4635 13.3425 11.2347 13.4814C11.1838 13.5124 11.1322 13.5428 11.0804 13.5723C10.8374 13.7106 10.7327 13.9141 10.7327 14.0723C10.7327 15.1368 9.86949 15.9998 8.805 16H7.1966C6.13195 16 5.26888 15.1369 5.26887 14.0723C5.26887 13.9142 5.16374 13.7112 4.92121 13.5732C4.86901 13.5436 4.8172 13.5126 4.76594 13.4814C4.53728 13.3426 4.31949 13.3545 4.19269 13.4287C3.28197 13.9633 2.11003 13.6494 1.5882 12.7314L0.752265 11.2598C0.232186 10.3442 0.543545 9.18075 1.45148 8.64746C1.58729 8.56755 1.70761 8.37634 1.70344 8.10449L1.70246 8C1.70246 7.96487 1.70288 7.92955 1.70344 7.89453C1.70766 7.62294 1.5872 7.43232 1.45148 7.35254C0.543533 6.81984 0.231581 5.6566 0.751288 4.74121L1.5882 3.26855C2.10991 2.35057 3.28181 2.0362 4.19269 2.57031C4.31954 2.64446 4.53653 2.65625 4.76496 2.51758C4.81642 2.48633 4.86881 2.45557 4.92121 2.42578C5.1636 2.28789 5.26887 2.08461 5.26887 1.92676C5.26907 0.862728 6.1316 0.000200956 7.19562 0H8.80598ZM7.19562 1.5C6.96002 1.5002 6.76907 1.69116 6.76887 1.92676C6.76887 2.73971 6.26385 3.3875 5.66242 3.72949C5.62265 3.75211 5.58332 3.77608 5.54426 3.7998C4.95184 4.15961 4.13586 4.27567 3.43391 3.86426C3.24454 3.75322 3.00041 3.81896 2.89191 4.00977L2.05598 5.48145C1.94115 5.68359 2.00987 5.94082 2.21027 6.05859C2.90673 6.46736 3.21439 7.22582 3.20344 7.91895C3.20301 7.9459 3.20246 7.97292 3.20246 8C3.20246 8.02691 3.20302 8.05426 3.20344 8.08105C3.21418 8.77384 2.90724 9.53142 2.21125 9.94043C2.01033 10.0584 1.94095 10.3159 2.05598 10.5186L2.89191 11.9902C3.00025 12.1808 3.24378 12.2464 3.43293 12.1357C4.13499 11.7238 4.9517 11.8394 5.54426 12.1992C5.58319 12.2229 5.62278 12.246 5.66242 12.2686C6.26406 12.6107 6.76887 13.2591 6.76887 14.0723C6.76888 14.3085 6.96038 14.5 7.1966 14.5H8.805C9.04106 14.4998 9.23273 14.3084 9.23273 14.0723C9.23273 13.259 9.73699 12.6108 10.3382 12.2686C10.3776 12.2461 10.4176 12.2237 10.4564 12.2002C11.0492 11.8401 11.8655 11.7228 12.5677 12.1348C12.7572 12.2457 13.001 12.181 13.1097 11.9902L13.9456 10.5195C14.0603 10.317 13.991 10.0594 13.7904 9.94141C13.0925 9.53179 12.7874 8.77269 12.7991 8.08008C12.7996 8.05342 12.8001 8.02672 12.8001 8C12.8001 7.97294 12.7996 7.94593 12.7991 7.91895C12.7873 7.22618 13.0931 6.46662 13.7913 6.05762C13.9913 5.94007 14.0601 5.68322 13.9456 5.48145L13.1097 4.00977C13.001 3.81872 12.7564 3.75328 12.5667 3.86426C11.8647 4.27558 11.049 4.15983 10.4564 3.7998C10.4175 3.77619 10.3777 3.75298 10.3382 3.73047C9.73714 3.38835 9.23273 2.73985 9.23273 1.92676C9.23255 1.69127 9.04142 1.50038 8.80598 1.5H7.19562ZM8.00031 5C9.657 5.00019 11.0003 6.34326 11.0003 8C11.0003 9.65674 9.657 10.9998 8.00031 11C6.34346 11 5.00031 9.65685 5.00031 8C5.00031 6.34315 6.34346 5 8.00031 5ZM8.00031 6.5C7.17188 6.5 6.50031 7.17157 6.50031 8C6.50031 8.82843 7.17188 9.5 8.00031 9.5C8.82858 9.49981 9.50031 8.82831 9.50031 8C9.50031 7.17169 8.82858 6.50019 8.00031 6.5Z"
    fill="currentColor"
  />
</svg>
