<svg width="20" height="20" viewBox="0 0 20 20" fill="none" xmlns="http://www.w3.org/2000/svg" data-fui-icon="true">
  <path
    d="M11.0723 0C12.3138 5.32985e-05 13.3203 1.00651 13.3203 2.24805C13.3203 2.54006 13.5099 2.86019 13.8691 3.06055C13.9383 3.09914 14.0073 3.13813 14.0752 3.17871C14.4288 3.39002 14.8012 3.39525 15.0547 3.24902C16.1305 2.6285 17.5056 2.99691 18.127 4.07227L19.1982 5.92676C19.8194 7.00222 19.4508 8.3775 18.375 8.99805C18.1222 9.14384 17.94 9.46781 17.9463 9.87793C17.9469 9.91855 17.9473 9.95924 17.9473 10L17.9463 10.1201C17.94 10.5306 18.1222 10.854 18.375 11C19.4505 11.621 19.819 12.9967 19.1982 14.0723L18.127 15.9268C17.506 17.0021 16.131 17.3709 15.0557 16.75C14.8026 16.6038 14.4306 16.6081 14.0771 16.8193C14.0086 16.8603 13.939 16.8995 13.8691 16.9385C13.5099 17.1387 13.3204 17.4588 13.3203 17.751C13.3203 18.9929 12.3132 20 11.0713 20H8.92871C7.68674 19.9997 6.67994 18.993 6.67969 17.751C6.67969 17.4586 6.48997 17.1384 6.13086 16.9385C6.06132 16.8998 5.99208 16.8601 5.92383 16.8193C5.56975 16.6081 5.1975 16.6038 4.94434 16.75C3.86903 17.371 2.4941 17.002 1.87305 15.9268L0.801758 14.0732C0.180605 12.9971 0.549192 11.6208 1.625 10.999C1.87839 10.8524 2.06069 10.5279 2.05469 10.1172C2.05412 10.0782 2.05371 10.0391 2.05371 10C2.05371 9.96055 2.05411 9.92116 2.05469 9.88184C2.06071 9.47127 1.87846 9.14642 1.625 9C0.549071 8.37858 0.180621 7.00285 0.801758 5.92676L1.87109 4.07324C2.49221 2.99724 3.8682 2.62818 4.94434 3.24902C5.19795 3.39537 5.57061 3.39113 5.9248 3.17969C5.99282 3.13908 6.06156 3.09915 6.13086 3.06055C6.48988 2.86049 6.67963 2.54119 6.67969 2.24902C6.67969 1.00701 7.68671 2.29064e-05 8.92871 0H11.0723ZM9.99902 6.25C7.92807 6.25013 6.24902 7.92901 6.24902 10C6.24902 12.071 7.92807 13.7499 9.99902 13.75C12.0701 13.75 13.749 12.0711 13.749 10C13.749 7.92893 12.0701 6.25 9.99902 6.25Z"
    fill="currentColor"
  />
</svg>
