<svg width="20" height="20" viewBox="0 0 20 20" fill="none" xmlns="http://www.w3.org/2000/svg" data-fui-icon="true">
  <path
    fill-rule="evenodd"
    clip-rule="evenodd"
    d="M11.0723 0C12.3138 5.30837e-05 13.3203 1.00651 13.3203 2.24805C13.3203 2.54006 13.5099 2.86019 13.8691 3.06055C13.9383 3.09914 14.0073 3.13813 14.0752 3.17871C14.4288 3.39002 14.8012 3.39525 15.0547 3.24902C16.1305 2.6285 17.5056 2.99691 18.127 4.07227L19.1983 5.92676C19.8194 7.00222 19.4508 8.3775 18.375 8.99805C18.1222 9.14384 17.94 9.46781 17.9463 9.87793C17.9469 9.91855 17.9473 9.95924 17.9473 10C17.9473 10.0401 17.9469 10.0802 17.9463 10.1201C17.94 10.5306 18.1222 10.854 18.375 11C19.4505 11.621 19.819 12.9967 19.1983 14.0723L18.127 15.9268C17.506 17.0021 16.131 17.3709 15.0557 16.75C14.8026 16.6038 14.4306 16.6081 14.0772 16.8193C14.0086 16.8603 13.939 16.8995 13.8691 16.9385C13.5099 17.1387 13.3204 17.4588 13.3203 17.751C13.3203 18.9929 12.3133 20 11.0713 20H8.92872C7.68675 19.9997 6.67995 18.993 6.6797 17.751C6.6797 17.4586 6.48998 17.1384 6.13087 16.9385C6.06133 16.8998 5.99209 16.8601 5.92384 16.8193C5.56976 16.6081 5.19751 16.6038 4.94434 16.75C3.86904 17.371 2.49411 17.002 1.87306 15.9268L0.801767 14.0732C0.180615 12.9971 0.549201 11.6208 1.62501 10.999C1.8784 10.8524 2.0607 10.5279 2.0547 10.1172C2.05413 10.0782 2.05372 10.0391 2.05372 10C2.05372 9.96055 2.05412 9.92116 2.0547 9.88184C2.06072 9.47127 1.87847 9.14642 1.62501 9C0.54908 8.37858 0.18063 7.00285 0.801767 5.92676L1.8711 4.07324C2.49222 2.99724 3.86821 2.62818 4.94434 3.24902C5.19796 3.39537 5.57062 3.39113 5.92481 3.17969C5.99283 3.13908 6.06157 3.09915 6.13087 3.06055C6.48989 2.86049 6.67964 2.54119 6.6797 2.24902C6.6797 1.00701 7.68672 2.28742e-05 8.92872 0H11.0723ZM8.92872 1.5C8.51514 1.50002 8.1797 1.83544 8.1797 2.24902C8.17964 3.19885 7.58721 3.96654 6.86134 4.37109C6.80513 4.40241 6.74852 4.43485 6.69337 4.46777C5.97975 4.89366 5.0178 5.02398 4.19434 4.54883C3.83566 4.34197 3.37694 4.46462 3.16993 4.82324L2.10059 6.67676C1.89361 7.03547 2.01639 7.49401 2.37501 7.70117C3.19697 8.17589 3.56686 9.07212 3.5547 9.90332C3.55423 9.93546 3.55372 9.96774 3.55372 10L3.5547 10.0957C3.56684 10.9268 3.19681 11.8229 2.37501 12.2979C2.01647 12.5053 1.89364 12.9644 2.10059 13.3232L3.17188 15.1768C3.37862 15.5347 3.83641 15.6579 4.19434 15.4512C5.01759 14.9758 5.97901 15.1056 6.69239 15.5312C6.74772 15.5643 6.80396 15.5965 6.86036 15.6279C7.58692 16.0324 8.1797 16.8008 8.1797 17.751C8.17995 18.1645 8.51518 18.4997 8.92872 18.5H11.0713C11.4848 18.5 11.8203 18.1645 11.8203 17.751C11.8204 16.8011 12.413 16.0335 13.1387 15.6289C13.1954 15.5973 13.252 15.5645 13.3076 15.5312C14.0209 15.105 14.9826 14.9751 15.8057 15.4502C16.1636 15.6569 16.6214 15.5347 16.8281 15.1768L17.8984 13.3223C18.1052 12.9642 17.9829 12.5067 17.625 12.2998C16.8028 11.8251 16.4336 10.9284 16.4463 10.0977L16.4473 10C16.4473 9.96679 16.4468 9.93348 16.4463 9.90039C16.4336 9.06962 16.803 8.17357 17.625 7.69922C17.983 7.49276 18.1062 7.03461 17.8994 6.67676L16.8281 4.82227C16.621 4.46391 16.1623 4.34102 15.8037 4.54785C14.9805 5.02266 14.0192 4.89314 13.3057 4.4668C13.2506 4.43387 13.1948 4.40143 13.1387 4.37012C12.4132 3.96551 11.8203 3.198 11.8203 2.24805C11.8203 1.83494 11.4854 1.50005 11.0723 1.5H8.92872ZM9.99903 6.25C12.0701 6.25 13.749 7.92893 13.749 10C13.749 12.0711 12.0701 13.75 9.99903 13.75C7.92808 13.7499 6.24903 12.071 6.24903 10C6.24903 7.92902 7.92808 6.25014 9.99903 6.25ZM9.99903 7.75C8.75651 7.75014 7.74903 8.75745 7.74903 10C7.74903 11.2426 8.75651 12.2499 9.99903 12.25C11.2417 12.25 12.249 11.2426 12.249 10C12.249 8.75736 11.2417 7.75 9.99903 7.75Z"
    fill="currentColor"
  />
</svg>
