<svg width="32" height="32" viewBox="0 0 32 32" fill="none" xmlns="http://www.w3.org/2000/svg" data-fui-icon="true">
  <path
    fill-rule="evenodd"
    clip-rule="evenodd"
    d="M17.6576 1C19.3462 1.00011 20.7152 2.36905 20.7152 4.05762C20.7153 4.68537 21.1164 5.29882 21.7689 5.66211C21.873 5.72003 21.9764 5.77989 22.0785 5.84082C22.7219 6.2247 23.4563 6.26562 24.0023 5.95117C25.4679 5.10724 27.3401 5.60936 28.1869 7.07324L29.8373 9.9248C30.6841 11.3887 30.1816 13.2623 28.7162 14.1064C28.1723 14.4196 27.8414 15.0734 27.8529 15.8203C27.8539 15.8801 27.8539 15.94 27.8539 16L27.8529 16.1777C27.8414 16.9246 28.1716 17.5782 28.7152 17.8916C30.1806 18.7362 30.683 20.61 29.8363 22.0742L28.1859 24.9268C27.3392 26.3909 25.4668 26.8933 24.0014 26.0488C23.4555 25.7341 22.7208 25.7743 22.0775 26.1582C21.9759 26.2189 21.8725 26.2782 21.7689 26.3359C21.1164 26.6995 20.7154 27.3136 20.7152 27.9414C20.7152 29.6303 19.3455 30.9999 17.6566 31H14.3422C12.6532 31 11.2836 29.6304 11.2836 27.9414C11.2834 27.3137 10.8822 26.7003 10.2299 26.3369C10.1256 26.2789 10.0216 26.2193 9.91934 26.1582C9.27597 25.7741 8.54138 25.7332 7.99551 26.0479C6.53064 26.8923 4.65866 26.3904 3.81192 24.9268L2.16153 22.0752C1.31458 20.6109 1.81711 18.7365 3.28262 17.8916C3.82666 17.5776 4.15794 16.9232 4.14688 16.1768L4.1459 16C4.1459 15.941 4.14601 15.8821 4.14688 15.8232C4.15794 15.0764 3.82609 14.4214 3.28164 14.1074C1.81652 13.2624 1.31488 11.3891 2.16153 9.9248L3.80996 7.07324C4.65668 5.6093 6.52918 5.10779 7.99453 5.95215C8.54047 6.26655 9.27496 6.22562 9.91836 5.8418C10.021 5.78054 10.1253 5.72033 10.2299 5.66211C10.8823 5.29902 11.2836 4.68532 11.2836 4.05762C11.2836 2.36897 12.6526 1 14.3412 1H17.6576ZM14.3412 2.5C13.481 2.5 12.7836 3.19739 12.7836 4.05762C12.7836 5.34342 11.979 6.4052 10.9594 6.97266C10.8681 7.02344 10.7774 7.07547 10.6879 7.12891C9.6848 7.72764 8.36109 7.89461 7.24551 7.25195C6.49719 6.82076 5.54127 7.0767 5.10879 7.82422L3.45938 10.6758C3.0279 11.4224 3.28457 12.3779 4.03164 12.8086C5.14534 13.451 5.66416 14.6784 5.64688 15.8457C5.64612 15.897 5.6459 15.9485 5.6459 16C5.6459 16.0517 5.64611 16.1037 5.64688 16.1553C5.66409 17.3224 5.14526 18.5492 4.03164 19.1914C3.28449 19.6222 3.0285 20.5777 3.46035 21.3242L5.10977 24.1758C5.54216 24.9231 6.49851 25.1794 7.24649 24.748C8.36195 24.1049 9.6857 24.2711 10.6889 24.8701C10.7781 24.9234 10.8684 24.9757 10.9594 25.0264C11.9788 25.5941 12.7834 26.6556 12.7836 27.9414C12.7836 28.802 13.4816 29.5 14.3422 29.5H17.6566C18.5171 29.4999 19.2152 28.8019 19.2152 27.9414C19.2154 26.6555 20.0202 25.5942 21.0395 25.0264C21.1298 24.976 21.2194 24.924 21.308 24.8711C22.3113 24.2721 23.6349 24.1059 24.7504 24.749C25.4987 25.1803 26.4556 24.9244 26.8881 24.1768L28.5375 21.3232C28.969 20.577 28.713 19.6219 27.9662 19.1914C26.8518 18.549 26.335 17.3211 26.3529 16.1543C26.3537 16.1029 26.3539 16.0515 26.3539 16C26.3539 15.9478 26.3537 15.8957 26.3529 15.8438C26.3349 14.6766 26.8522 13.4486 27.9672 12.8066C28.7139 12.3765 28.9699 11.4218 28.5385 10.6758L26.8891 7.82422C26.4565 7.07652 25.5 6.82011 24.7514 7.25098C23.6358 7.89346 22.3121 7.72764 21.309 7.12891C21.2199 7.07575 21.1302 7.02319 21.0395 6.97266C20.02 6.40507 19.2153 5.34349 19.2152 4.05762C19.2152 3.19748 18.5177 2.50011 17.6576 2.5H14.3412ZM15.9994 11C18.7608 11 20.9994 13.2386 20.9994 16C20.9994 18.7614 18.7608 21 15.9994 21C13.2381 20.9999 10.9994 18.7613 10.9994 16C10.9994 13.2387 13.2381 11.0001 15.9994 11ZM15.9994 12.5C14.0665 12.5001 12.4994 14.0671 12.4994 16C12.4994 17.9329 14.0665 19.4999 15.9994 19.5C17.9324 19.5 19.4994 17.933 19.4994 16C19.4994 14.067 17.9324 12.5 15.9994 12.5Z"
    fill="currentColor"
  />
</svg>
