<svg width="32" height="32" viewBox="0 0 32 32" fill="none" xmlns="http://www.w3.org/2000/svg" data-fui-icon="true">
  <path
    fill-rule="evenodd"
    clip-rule="evenodd"
    d="M17.6578 0.75C19.4843 0.750147 20.9654 2.23102 20.9654 4.05762C20.9655 4.57567 21.2998 5.11409 21.8912 5.44336C21.9973 5.50247 22.1025 5.5638 22.2066 5.62598C22.7901 5.97418 23.4262 5.99416 23.8775 5.73438C25.4625 4.82166 27.488 5.36501 28.4039 6.94824L30.0533 9.7998C30.9694 11.3835 30.4259 13.4102 28.8404 14.3232C28.3918 14.5817 28.0927 15.1397 28.1031 15.8164C28.104 15.8774 28.1041 15.9387 28.1041 16L28.1031 16.1816C28.0927 16.8586 28.3919 17.4162 28.8404 17.6748C30.4255 18.5884 30.9691 20.6154 30.0533 22.1992L28.4029 25.0527C27.4869 26.6362 25.4614 27.1782 23.8765 26.2646C23.4255 26.0047 22.7889 26.0249 22.2056 26.373C22.1019 26.435 21.9969 26.4958 21.8912 26.5547C21.2997 26.8842 20.9656 27.4232 20.9654 27.9414C20.9654 29.7683 19.4837 31.2499 17.6568 31.25H14.3424C12.5153 31.25 11.0338 29.7685 11.0338 27.9414C11.0336 27.4233 10.6992 26.884 10.108 26.5547C10.0017 26.4955 9.8959 26.4344 9.79157 26.3721C9.20823 26.0239 8.57157 26.0038 8.12068 26.2637C6.53632 27.1773 4.51122 26.6357 3.59529 25.0527L1.94587 22.2002C1.02963 20.6162 1.5725 18.5898 3.15779 17.6758C3.60714 17.4166 3.90707 16.8572 3.89704 16.1807L3.89607 16C3.89607 15.9397 3.89615 15.8794 3.89704 15.8193C3.90706 15.1428 3.60715 14.5836 3.15779 14.3242C1.57262 13.4103 1.02909 11.3839 1.9449 9.7998L3.59333 6.94922C4.50914 5.36548 6.53441 4.82225 8.1197 5.73535C8.57114 5.99528 9.20847 5.97537 9.79255 5.62695C9.89673 5.56481 10.0018 5.50341 10.108 5.44434C10.6991 5.11535 11.0336 4.57673 11.0338 4.05859C11.0338 2.23151 12.5153 0.75 14.3424 0.75H17.6578ZM14.3424 2.75C13.6198 2.75 13.0338 3.33608 13.0338 4.05859C13.0336 5.4541 12.1616 6.59085 11.0806 7.19238C10.9921 7.24166 10.9039 7.29192 10.817 7.34375C9.75379 7.97799 8.33238 8.16509 7.12165 7.46777C6.4924 7.10545 5.68831 7.32162 5.32478 7.9502L3.67634 10.8008C3.31389 11.4277 3.52865 12.23 4.15583 12.5918C5.36459 13.2888 5.91527 14.6112 5.89704 15.8486C5.8963 15.8989 5.89607 15.9496 5.89607 16C5.89607 16.0505 5.8963 16.101 5.89704 16.1514C5.91536 17.3886 5.36538 18.7112 4.15681 19.4082C3.52939 19.7699 3.31467 20.5723 3.67732 21.1992L5.32673 24.0508C5.69006 24.6787 6.49319 24.8937 7.12165 24.5312C8.33205 23.8334 9.75386 24.0205 10.817 24.6553C10.9041 24.7073 10.9928 24.7582 11.0816 24.8076C12.1621 25.4094 13.0336 26.546 13.0338 27.9414C13.0338 28.6639 13.6198 29.25 14.3424 29.25H17.6568C18.3791 29.2499 18.9654 28.6638 18.9654 27.9414C18.9656 26.5459 19.8373 25.4095 20.9176 24.8076C21.0058 24.7585 21.0937 24.7079 21.1802 24.6562C22.2435 24.0214 23.6652 23.8345 24.8756 24.5322C25.5045 24.8946 26.3081 24.6792 26.6715 24.0508L28.3218 21.1982C28.6841 20.5718 28.4691 19.7698 27.8424 19.4082C26.6327 18.7111 26.0842 17.3881 26.1031 16.1514C26.1039 16.1011 26.1041 16.0504 26.1041 16C26.1041 15.9491 26.1039 15.8984 26.1031 15.8477C26.084 14.6106 26.6323 13.2867 27.8424 12.5898C28.4691 12.2288 28.6847 11.428 28.3228 10.8018L26.6724 7.94922C26.3089 7.32088 25.5047 7.10559 24.8756 7.46777C23.6652 8.16463 22.2442 7.97723 21.1812 7.34277C21.0944 7.29093 21.0061 7.24069 20.9176 7.19141C19.837 6.58975 18.9654 5.45315 18.9654 4.05762C18.9654 3.33559 18.3798 2.75015 17.6578 2.75H14.3424ZM16.0006 10.75C18.8999 10.7502 21.2506 13.1006 21.2506 16C21.2506 18.8994 18.8999 21.2498 16.0006 21.25C13.1011 21.25 10.7506 18.8995 10.7506 16C10.7506 13.1005 13.1011 10.75 16.0006 10.75ZM16.0006 12.75C14.2056 12.75 12.7506 14.2051 12.7506 16C12.7506 17.7949 14.2056 19.25 16.0006 19.25C17.7953 19.2498 19.2506 17.7948 19.2506 16C19.2506 14.2052 17.7953 12.7502 16.0006 12.75Z"
    fill="currentColor"
  />
</svg>
