<svg width="16" height="16" viewBox="0 0 16 16" fill="none" xmlns="http://www.w3.org/2000/svg" data-fui-icon="true">
  <path
    d="M8.80566 0C9.8697 0.000185688 10.7322 0.862722 10.7324 1.92676C10.7324 2.08463 10.8374 2.28855 11.0801 2.42676C11.1321 2.45638 11.1843 2.48652 11.2354 2.51758C11.4639 2.65642 11.6815 2.64468 11.8086 2.57031C12.7199 2.03642 13.8923 2.35117 14.4141 3.26953L15.25 4.74121C15.7697 5.65669 15.4572 6.82041 14.5488 7.35254C14.4143 7.4316 14.2943 7.62058 14.2988 7.89258C14.2994 7.92816 14.2998 7.96424 14.2998 8L14.2988 8.10547C14.2942 8.37804 14.4141 8.56794 14.5488 8.64746C15.4572 9.18063 15.7693 10.3449 15.249 11.2607L14.4141 12.7305C13.8922 13.6489 12.7198 13.9631 11.8086 13.4287C11.6815 13.3543 11.4631 13.3424 11.2344 13.4814C11.1835 13.5124 11.1319 13.5428 11.0801 13.5723C10.8373 13.7106 10.7324 13.9142 10.7324 14.0723C10.7324 15.1369 9.86934 16 8.80469 16H7.19629C6.13176 15.9998 5.26857 15.1368 5.26855 14.0723C5.26855 13.9141 5.16362 13.7112 4.9209 13.5732C4.86868 13.5436 4.81691 13.5126 4.76562 13.4814C4.53688 13.3426 4.3191 13.3544 4.19238 13.4287C3.28163 13.9631 2.10964 13.6495 1.58789 12.7314L0.751953 11.2598C0.232003 10.3443 0.543424 9.18078 1.45117 8.64746C1.58709 8.56764 1.7073 8.37652 1.70312 8.10449L1.70215 8C1.70215 7.96487 1.70257 7.92955 1.70312 7.89453C1.70736 7.62276 1.587 7.43223 1.45117 7.35254C0.543412 6.81981 0.231398 5.65652 0.750977 4.74121L1.58789 3.26855C2.10952 2.35052 3.28148 2.03633 4.19238 2.57031C4.31916 2.64458 4.53613 2.65622 4.76465 2.51758C4.81613 2.48631 4.86848 2.45559 4.9209 2.42578C5.16348 2.28788 5.26855 2.08467 5.26855 1.92676C5.26876 0.862817 6.13141 0.000344859 7.19531 0H8.80566ZM8 5C6.34326 5.00014 5 6.34323 5 8C5 9.65677 6.34326 10.9999 8 11C9.65685 11 11 9.65685 11 8C11 6.34315 9.65685 5 8 5Z"
    fill="currentColor"
  />
</svg>
