<svg width="24" height="24" viewBox="0 0 24 24" fill="none" xmlns="http://www.w3.org/2000/svg" data-fui-icon="true">
  <path
    fill-rule="evenodd"
    clip-rule="evenodd"
    d="M13.2754 0C14.8115 0 16.0566 1.2452 16.0567 2.78125C16.0567 3.08108 16.2534 3.42971 16.6543 3.65332C16.738 3.69997 16.8213 3.74781 16.9034 3.79688C17.2983 4.03286 17.6997 4.02943 17.961 3.87891C19.2932 3.11088 20.9952 3.56708 21.7647 4.89844L23.0381 7.10059C23.8075 8.43171 23.3506 10.1346 22.0186 10.9023C21.7593 11.052 21.5564 11.3958 21.5635 11.8535C21.5643 11.9023 21.5645 11.9511 21.5645 12C21.5645 12.0489 21.5643 12.0978 21.5635 12.1465C21.5564 12.6041 21.7595 12.9472 22.0186 13.0967C23.3498 13.8647 23.8061 15.5669 23.0371 16.8975L21.7627 19.1016C20.9935 20.4324 19.2915 20.8883 17.96 20.1201C17.6992 19.9697 17.298 19.9662 16.9034 20.2021C16.8214 20.2511 16.7388 20.2991 16.6553 20.3457C16.2543 20.5694 16.0568 20.9178 16.0567 21.2178C16.0567 22.7541 14.8117 23.9999 13.2754 24H10.7227C9.18584 23.9999 7.93949 22.7537 7.93949 21.2168C7.93934 20.9166 7.74352 20.5682 7.34281 20.3447C7.25935 20.2982 7.17568 20.2511 7.09379 20.2021C6.69843 19.9661 6.29709 19.9695 6.03617 20.1201C4.70468 20.8882 3.00275 20.4324 2.23343 19.1016L0.960974 16.9004C0.191049 15.5682 0.647873 13.8638 1.98051 13.0947C2.24072 12.9444 2.44418 12.6001 2.43754 12.1416C2.43684 12.0946 2.43558 12.0471 2.43558 12C2.43558 11.9524 2.43683 11.9048 2.43754 11.8574C2.44434 11.3989 2.2408 11.0545 1.98051 10.9043C0.64829 10.1357 0.191635 8.43239 0.960974 7.10059L2.23343 4.89844C3.00275 3.56713 4.70517 3.11071 6.03715 3.87891C6.2983 4.02956 6.69953 4.03309 7.09476 3.79688C7.17646 3.74804 7.25954 3.70075 7.34281 3.6543C7.74365 3.43061 7.93949 3.08227 7.93949 2.78223C7.9395 1.24582 9.18537 0.000280213 10.7217 0H13.2754ZM12 8.75C10.2051 8.75 8.75004 10.2051 8.75004 12C8.75004 13.7949 10.2051 15.25 12 15.25C13.795 15.25 15.25 13.7949 15.25 12C15.25 10.2051 13.795 8.75 12 8.75Z"
    fill="currentColor"
  />
</svg>
