<svg width="16" height="16" viewBox="0 0 16 16" fill="none" xmlns="http://www.w3.org/2000/svg" data-fui-icon="true">
  <path
    fill-rule="evenodd"
    clip-rule="evenodd"
    d="M8.80586 0C9.86992 0.0001533 10.7324 0.862702 10.7326 1.92676C10.7326 2.08463 10.8376 2.28855 11.0803 2.42676C11.1323 2.45639 11.1844 2.48651 11.2355 2.51758C11.4641 2.65645 11.6817 2.64468 11.8088 2.57031C12.7201 2.03638 13.8925 2.35115 14.4143 3.26953L15.2502 4.74121C15.7699 5.65669 15.4574 6.82041 14.549 7.35254C14.4145 7.43162 14.2945 7.62062 14.299 7.89258C14.2996 7.92816 14.3 7.96424 14.3 8L14.299 8.10547C14.2944 8.37839 14.415 8.56812 14.55 8.64746C15.4583 9.18068 15.7695 10.345 15.2492 11.2607L14.4143 12.7305C13.8923 13.6489 12.72 13.9631 11.8088 13.4287C11.6817 13.3543 11.4633 13.3424 11.2346 13.4814C11.1837 13.5124 11.1321 13.5428 11.0803 13.5723C10.8375 13.7106 10.7326 13.9142 10.7326 14.0723C10.7326 15.1369 9.86954 16 8.80488 16H7.19648C6.13198 15.9998 5.26876 15.1368 5.26875 14.0723C5.26875 13.9141 5.16384 13.7112 4.92109 13.5732C4.86886 13.5435 4.81711 13.5126 4.76582 13.4814C4.53705 13.3426 4.31929 13.3544 4.19258 13.4287C3.28182 13.9631 2.10982 13.6495 1.58808 12.7314L0.752145 11.2598C0.232204 10.3443 0.543651 9.18079 1.45136 8.64746C1.58728 8.56764 1.70749 8.37652 1.70332 8.10449L1.70234 8C1.70234 7.96487 1.70276 7.92955 1.70332 7.89453C1.70755 7.62276 1.58719 7.43223 1.45136 7.35254C0.543643 6.8198 0.231619 5.6565 0.751169 4.74121L1.58808 3.26855C2.1097 2.3505 3.28166 2.03633 4.19258 2.57031C4.31934 2.6446 4.53631 2.65621 4.76484 2.51758C4.8163 2.48632 4.86868 2.45558 4.92109 2.42578C5.16367 2.28788 5.26875 2.08467 5.26875 1.92676C5.26895 0.862837 6.13163 0.000377327 7.1955 0H8.80586ZM8.00019 5C6.34346 5.00014 5.00019 6.34323 5.00019 8C5.00019 9.65677 6.34346 10.9999 8.00019 11C9.65705 11 11.0002 9.65685 11.0002 8C11.0002 6.34315 9.65705 5 8.00019 5Z"
    fill="currentColor"
  />
</svg>
