<svg width="24" height="24" viewBox="0 0 24 24" fill="none" xmlns="http://www.w3.org/2000/svg" data-fui-icon="true">
  <path
    fill-rule="evenodd"
    clip-rule="evenodd"
    d="M13.2767 0C14.8126 0.000201788 16.0578 1.24532 16.0579 2.78125C16.0579 3.08109 16.2546 3.42878 16.6556 3.65234C16.7392 3.69896 16.8216 3.74786 16.9036 3.79688C17.2985 4.03281 17.6999 4.02922 17.9612 3.87891C19.2934 3.11104 20.9965 3.56715 21.7659 4.89844L23.0384 7.10059C23.8076 8.432 23.3509 10.1352 22.0188 10.9033C21.7594 11.0531 21.5568 11.3964 21.5638 11.8545C21.5645 11.9028 21.5647 11.9515 21.5647 12C21.5647 12.0488 21.5645 12.0978 21.5638 12.1465C21.5568 12.6042 21.7596 12.9472 22.0188 13.0967C23.35 13.8646 23.8062 15.5668 23.0374 16.8975L21.763 19.1016C20.9938 20.4324 19.2917 20.8881 17.9603 20.1201C17.6995 19.97 17.299 19.9665 16.9046 20.2021C16.8225 20.2512 16.7392 20.299 16.6556 20.3457C16.2545 20.5693 16.058 20.9178 16.0579 21.2178C16.0579 22.7541 14.812 23.9999 13.2757 24H10.7239C9.18702 24 7.94072 22.7537 7.94072 21.2168C7.94055 20.9166 7.74383 20.5682 7.34306 20.3447C7.25976 20.2983 7.17677 20.251 7.09502 20.2021C6.69972 19.966 6.29838 19.9696 6.0374 20.1201C4.70582 20.8885 3.00306 20.4326 2.23369 19.1016L0.962205 16.9004C0.192269 15.5682 0.648122 13.8638 1.98076 13.0947C2.24105 12.9444 2.44443 12.6002 2.43779 12.1416C2.4371 12.0946 2.43681 12.0471 2.43681 12C2.43681 11.9524 2.43709 11.9048 2.43779 11.8574C2.44459 11.399 2.24096 11.0545 1.98076 10.9043C0.648811 10.1356 0.192922 8.43227 0.962205 7.10059L2.23467 4.89844C3.00375 3.56723 4.70559 3.11082 6.0374 3.87891C6.29834 4.0292 6.69969 4.03275 7.09502 3.79688C7.17699 3.74795 7.26052 3.69983 7.34404 3.65332C7.74434 3.43019 7.94071 3.08218 7.94072 2.78223C7.94072 1.24566 9.18638 0 10.7229 0H13.2767ZM10.7229 2C10.2909 2 9.94072 2.35023 9.94072 2.78223C9.94071 3.95937 9.20661 4.90467 8.3167 5.40039C8.25075 5.43711 8.18511 5.47506 8.12041 5.51367C7.24567 6.03579 6.05895 6.19969 5.03838 5.61133C4.66295 5.39481 4.18298 5.52324 3.96611 5.89844L2.69365 8.10156C2.4772 8.47652 2.60572 8.9555 2.98076 9.17188C4.00021 9.76014 4.45294 10.8688 4.43779 11.8877C4.43724 11.9251 4.43681 11.9625 4.43681 12C4.43681 12.0372 4.43724 12.0743 4.43779 12.1113C4.45285 13.1302 4.00022 14.2386 2.98076 14.8271C2.60523 15.0439 2.47669 15.524 2.69365 15.8994L3.96513 18.1006C4.18199 18.4757 4.66209 18.6041 5.0374 18.3877C6.05821 17.7987 7.24534 17.9626 8.12041 18.4854C8.185 18.5239 8.25087 18.561 8.3167 18.5977C9.20628 19.0936 9.94056 20.0395 9.94072 21.2168C9.94072 21.6491 10.2916 22 10.7239 22H13.2757C13.7074 21.9999 14.0579 21.6496 14.0579 21.2178C14.058 20.0404 14.7926 19.0955 15.6819 18.5996C15.748 18.5627 15.8133 18.5241 15.8782 18.4854C16.7531 17.9625 17.9399 17.7991 18.9603 18.3877C19.3354 18.604 19.8148 18.4756 20.0315 18.1006L21.306 15.8975C21.5219 15.5237 21.3935 15.0449 21.0198 14.8291C20.0002 14.2412 19.548 13.1335 19.5638 12.1152C19.5644 12.0769 19.5647 12.0385 19.5647 12C19.5647 11.9619 19.5644 11.9238 19.5638 11.8857C19.5481 10.8672 20.0001 9.75913 21.0198 9.1709C21.3944 8.95482 21.5232 8.475 21.3069 8.10059L20.0345 5.89844C19.8173 5.52296 19.3361 5.39477 18.9603 5.61133C17.9396 6.19957 16.7533 6.03561 15.8782 5.5127C15.8134 5.47393 15.747 5.43627 15.681 5.39941C14.7919 4.90356 14.0579 3.95841 14.0579 2.78125C14.0578 2.34989 13.708 2.0002 13.2767 2H10.7229ZM12.0003 7.75C14.3474 7.75009 16.2503 9.65284 16.2503 12C16.2503 14.3472 14.3474 16.2499 12.0003 16.25C9.65308 16.25 7.75029 14.3472 7.75029 12C7.75029 9.65279 9.65308 7.75 12.0003 7.75ZM12.0003 9.75C10.7577 9.75 9.75029 10.7574 9.75029 12C9.75029 13.2426 10.7577 14.25 12.0003 14.25C13.2429 14.2499 14.2503 13.2426 14.2503 12C14.2503 10.7574 13.2429 9.75009 12.0003 9.75Z"
    fill="currentColor"
  />
</svg>
