<svg width="16" height="16" viewBox="0 0 16 16" fill="none" xmlns="http://www.w3.org/2000/svg" data-fui-icon="true">
  <path
    fill-rule="evenodd"
    clip-rule="evenodd"
    d="M8.77701 0C9.95698 0 10.9137 0.956752 10.9137 2.13672C10.9138 2.15668 10.9196 2.1885 10.9489 2.2334C10.9802 2.2813 11.0343 2.33563 11.11 2.37891C11.1625 2.40883 11.2147 2.44032 11.2663 2.47168C11.3345 2.51323 11.4021 2.5311 11.4528 2.53418C11.4999 2.537 11.5245 2.52666 11.5368 2.51953C12.5492 1.92637 13.8514 2.27584 14.4313 3.2959L15.2389 4.7168C15.8157 5.73181 15.4699 7.02213 14.4626 7.6123C14.4456 7.62226 14.421 7.64258 14.3981 7.68848C14.3738 7.73743 14.3557 7.80828 14.3571 7.8916C14.3577 7.92764 14.3581 7.9638 14.3581 8L14.3571 8.10547C14.3557 8.18952 14.3746 8.26132 14.3991 8.31055C14.422 8.35655 14.4464 8.37663 14.4635 8.38672C15.4704 8.97792 15.8156 10.2689 15.2389 11.2842L14.4323 12.7041C13.8522 13.7248 12.5494 14.0737 11.5368 13.4795C11.5246 13.4724 11.4998 13.4621 11.4528 13.4648C11.402 13.4679 11.3346 13.4868 11.2663 13.5283C11.2152 13.5594 11.163 13.5895 11.111 13.6191C11.035 13.6625 10.9803 13.7176 10.9489 13.7656C10.9195 13.8107 10.9137 13.8432 10.9137 13.8633C10.9135 15.0433 9.95698 15.9998 8.77701 16H7.2233C6.04343 15.9996 5.08682 15.0432 5.08658 13.8633C5.08658 13.8432 5.0809 13.8107 5.05142 13.7656C5.0201 13.7178 4.96605 13.6632 4.89029 13.6201C4.83756 13.5901 4.78485 13.5598 4.73306 13.5283C4.6647 13.4868 4.59724 13.4679 4.54654 13.4648C4.4997 13.4621 4.47547 13.4725 4.46353 13.4795C3.45147 14.0741 2.14764 13.7249 1.56802 12.7041L0.761383 11.2832C0.184939 10.2679 0.530044 8.97697 1.53677 8.38574C1.55389 8.37569 1.57825 8.35566 1.60123 8.30957C1.6257 8.26036 1.64461 8.18867 1.64322 8.10449L1.64224 8C1.64224 7.96454 1.64263 7.92884 1.64322 7.89355C1.64457 7.80976 1.62563 7.73849 1.60123 7.68945C1.57838 7.64376 1.55471 7.62325 1.53775 7.61328C0.53071 7.02256 0.184718 5.73196 0.761383 4.7168L1.569 3.29492C2.14861 2.2747 3.45136 1.92604 4.46353 2.51953C4.4756 2.52655 4.50059 2.53596 4.54752 2.5332C4.59825 2.53009 4.66577 2.51211 4.73404 2.4707C4.78584 2.43926 4.83852 2.40791 4.89127 2.37793C4.96668 2.33499 5.02021 2.28103 5.05142 2.2334C5.08075 2.18857 5.08654 2.15675 5.08658 2.13672C5.08658 0.95682 6.04343 0.000119009 7.2233 0H8.77701ZM7.2233 2C7.148 2.00012 7.08658 2.06139 7.08658 2.13672C7.0865 3.04203 6.52632 3.74951 5.87955 4.11719C5.84343 4.13771 5.80662 4.15913 5.77115 4.18066C5.13227 4.56823 4.23501 4.70344 3.45181 4.24414C3.40173 4.21489 3.33692 4.23275 3.30826 4.2832L2.50064 5.70508C2.46429 5.76918 2.48596 5.85131 2.54947 5.88867C3.32621 6.34438 3.65552 7.18086 3.64322 7.92676C3.64282 7.95104 3.64224 7.97566 3.64224 8C3.64224 8.02399 3.64282 8.04832 3.64322 8.07227C3.65542 8.81806 3.32627 9.65529 2.54947 10.1113C2.48585 10.1491 2.46426 10.2305 2.50064 10.2949L3.30728 11.7168C3.33574 11.7669 3.40013 11.784 3.44986 11.7549C4.23346 11.2945 5.13196 11.4302 5.77115 11.8184C5.80663 11.8399 5.84245 11.8613 5.87857 11.8818C6.5256 12.2496 7.08658 12.9575 7.08658 13.8633C7.08682 13.9386 7.148 13.9996 7.2233 14H8.77701C8.85241 13.9998 8.9135 13.9387 8.91373 13.8633C8.91373 12.9578 9.47412 12.25 10.1198 11.8818C10.1554 11.8615 10.1912 11.8406 10.2262 11.8193C10.8658 11.4303 11.7645 11.2949 12.5485 11.7549C12.5991 11.7846 12.665 11.7668 12.694 11.7158L13.4997 10.2959C13.5362 10.2314 13.5146 10.15 13.4508 10.1123C12.6743 9.6563 12.3449 8.81911 12.3571 8.07324C12.3575 8.04901 12.3581 8.02429 12.3581 8C12.3581 7.97502 12.3575 7.94971 12.3571 7.9248C12.3447 7.17856 12.6749 6.34199 13.4518 5.88672C13.5149 5.84967 13.5358 5.76867 13.4997 5.70508L12.692 4.28418C12.663 4.23346 12.598 4.21554 12.5475 4.24512C11.7639 4.70422 10.8665 4.56865 10.2272 4.17969C10.1919 4.15822 10.1557 4.13764 10.1198 4.11719C9.47425 3.74922 8.91381 3.04208 8.91373 2.13672C8.91373 2.06132 8.85241 2 8.77701 2H7.2233ZM7.99966 4.75C9.79458 4.75001 11.2497 6.20508 11.2497 8C11.2497 9.79492 9.79458 11.25 7.99966 11.25C6.20474 11.25 4.74966 9.79493 4.74966 8C4.74966 6.20507 6.20474 4.75 7.99966 4.75ZM7.99966 6.75C7.30931 6.75 6.74966 7.30964 6.74966 8C6.74966 8.69036 7.30931 9.25 7.99966 9.25C8.69001 9.24999 9.24966 8.69035 9.24966 8C9.24966 7.30965 8.69001 6.75001 7.99966 6.75Z"
    fill="currentColor"
  />
</svg>
