<svg width="12" height="12" viewBox="0 0 12 12" fill="none" xmlns="http://www.w3.org/2000/svg" data-fui-icon="true">
  <path
    d="M6.86719 0C7.61264 0 8.21756 0.604205 8.21777 1.34961V1.69922C8.20608 1.69322 8.19437 1.68656 8.18262 1.68066C8.18287 1.68079 8.18934 1.68348 8.19727 1.69531C8.20629 1.70885 8.21776 1.73534 8.21777 1.77051V1.69922C8.36096 1.77255 8.49963 1.85307 8.63379 1.93945L8.9541 1.75781L9.07617 1.69531C9.69816 1.41802 10.4411 1.649 10.791 2.25L11.6572 3.73828C12.0338 4.38601 11.8105 5.2168 11.1602 5.58887L10.8545 5.76367L10.8535 5.72168L10.8477 5.74316C10.8401 5.75838 10.8227 5.78225 10.792 5.7998L10.8545 5.76367C10.8585 5.84172 10.8623 5.92048 10.8623 6L10.8545 6.23535L10.792 6.2002L10.8281 6.22852C10.8373 6.2385 10.8438 6.24818 10.8477 6.25586C10.8543 6.26939 10.8536 6.27723 10.8535 6.27832C10.8544 6.26415 10.8538 6.24957 10.8545 6.23535L11.1611 6.41113C11.811 6.78342 12.0336 7.61424 11.6572 8.26172L10.792 9.75C10.4188 10.3919 9.59717 10.6116 8.95312 10.2422L8.63477 10.0596C8.64606 10.0523 8.65868 10.0464 8.66992 10.0391C8.66886 10.0397 8.6624 10.043 8.64844 10.0439C8.63196 10.045 8.60339 10.0417 8.57324 10.0244L8.63477 10.0596C8.50012 10.1461 8.36117 10.2266 8.21777 10.2998V10.2285L8.21094 10.2744C8.20695 10.2869 8.20179 10.2969 8.19727 10.3037C8.18919 10.3157 8.18228 10.319 8.18164 10.3193C8.19375 10.3133 8.20572 10.306 8.21777 10.2998V10.6504C8.21756 11.3958 7.61264 12 6.86719 12H5.12988C4.38457 11.9998 3.78048 11.3957 3.78027 10.6504V10.2998L3.81543 10.3193L3.80078 10.3037C3.79163 10.29 3.78031 10.2636 3.78027 10.2285V10.2998C3.63599 10.2261 3.49579 10.1457 3.36035 10.0586L3.42285 10.0234C3.39257 10.0408 3.36404 10.044 3.34766 10.043C3.33348 10.042 3.32778 10.0385 3.32715 10.0381C3.33799 10.0452 3.34945 10.0516 3.36035 10.0586L3.04492 10.2412C2.40095 10.6108 1.57941 10.3908 1.20605 9.74902L0.34082 8.26074C-0.0354342 7.61373 0.185912 6.78385 0.834961 6.41113L1.14258 6.23438L1.14453 6.27441L1.15039 6.25488C1.15764 6.24025 1.17461 6.21675 1.20508 6.19922L1.14258 6.23438L1.13672 6C1.13672 5.92087 1.13879 5.84206 1.14258 5.76367L1.20508 5.7998C1.17487 5.78246 1.15773 5.7597 1.15039 5.74512C1.1441 5.73241 1.1445 5.72508 1.14453 5.72461C1.14381 5.73745 1.1432 5.75081 1.14258 5.76367L0.835938 5.58887C0.186383 5.21639 -0.0355954 4.38557 0.34082 3.73828L1.20605 2.25098L1.28125 2.13477C1.68125 1.58369 2.44041 1.41222 3.04395 1.75781L3.36133 1.93945C3.49628 1.85259 3.63637 1.77279 3.78027 1.69922V1.77051C3.7803 1.73541 3.79169 1.70893 3.80078 1.69531C3.80835 1.68402 3.81443 1.68113 3.81543 1.68066C3.80362 1.68659 3.79203 1.69321 3.78027 1.69922V1.34961C3.78048 0.604307 4.38457 0.000165743 5.12988 0H6.86719ZM6.71777 1.5H5.28027V1.34961L5.26855 1.4082C5.24583 1.46215 5.1921 1.5 5.12988 1.5H5.28027V1.77051C5.28027 2.34489 4.92459 2.80236 4.4873 3.02148C4.37088 3.07982 4.25782 3.14476 4.14941 3.21582C3.74244 3.48251 3.17311 3.56031 2.67871 3.27734L2.42773 3.13281L2.50293 3.00488C2.4615 3.07594 2.37028 3.10026 2.29883 3.05957L2.42773 3.13281L1.71289 4.36133L1.58203 4.28711C1.65422 4.32849 1.67855 4.42124 1.63672 4.49316L1.71289 4.36133L1.95117 4.49902C2.4496 4.78496 2.66907 5.32128 2.6416 5.80957C2.63807 5.87246 2.63672 5.93597 2.63672 6C2.63672 6.06362 2.63807 6.1268 2.6416 6.18945C2.66918 6.67759 2.45003 7.21399 1.95215 7.5L1.71191 7.63672L1.63672 7.50684L1.65625 7.56348C1.66354 7.6216 1.63599 7.68083 1.58203 7.71191L1.71191 7.63672L2.42676 8.86523L2.67676 8.72266L2.76953 8.67383C3.24145 8.44906 3.76655 8.53332 4.14844 8.7832C4.25677 8.85412 4.36974 8.91922 4.48633 8.97754C4.92425 9.19653 5.28027 9.65418 5.28027 10.2285V10.5H5.12988C5.21273 10.5 5.28027 10.5675 5.28027 10.6504V10.5H6.71777V10.6504C6.71777 10.5677 6.78458 10.5003 6.86719 10.5H6.71777V10.2285C6.71777 9.65426 7.07299 9.19659 7.51074 8.97754L7.68262 8.88574C7.73892 8.8534 7.79445 8.81962 7.84863 8.78418L8.00781 8.69336C8.36875 8.51728 8.81755 8.48017 9.22656 8.6748L9.31934 8.72363L9.56934 8.86719L10.2842 7.6377L10.415 7.71289C10.3433 7.67147 10.3189 7.57954 10.3604 7.50781L10.2842 7.6377L10.0459 7.50098C9.54683 7.21484 9.32685 6.67755 9.35645 6.1875L9.3623 6C9.3623 5.93713 9.36022 5.8742 9.35645 5.81152C9.327 5.32126 9.54709 4.78305 10.0469 4.49707L10.2842 4.36133L10.3604 4.49219C10.3187 4.42039 10.3432 4.32856 10.415 4.28711L10.2842 4.36133L9.56934 3.13281L9.69922 3.05957C9.62784 3.10035 9.53666 3.07576 9.49512 3.00488L9.56934 3.13281L9.31836 3.27734C8.82405 3.56024 8.25383 3.48304 7.84668 3.21582C7.73841 3.14478 7.62579 3.07971 7.50977 3.02148C7.07312 2.80225 6.71777 2.34497 6.71777 1.77051V1.5H6.86719C6.78458 1.49973 6.71777 1.43228 6.71777 1.34961V1.5ZM2.29785 8.94043C2.36938 8.89937 2.46044 8.92386 2.50195 8.99512L2.42676 8.86523L2.29785 8.94043ZM9.49609 8.99512C9.53785 8.92472 9.62806 8.90066 9.69922 8.94141L9.56934 8.86719L9.49609 8.99512ZM6 4.25C6.9665 4.25 7.75 5.0335 7.75 6C7.75 6.9665 6.9665 7.75 6 7.75C5.03367 7.7498 4.25 6.96638 4.25 6C4.25 5.03362 5.03367 4.2502 6 4.25ZM3.32715 1.96094C3.32839 1.96014 3.33476 1.95698 3.34863 1.95605C3.36515 1.95498 3.39359 1.95829 3.42383 1.97559L3.36133 1.93945C3.35004 1.94671 3.33837 1.95359 3.32715 1.96094ZM8.57227 1.97559C8.60246 1.9583 8.63176 1.95499 8.64844 1.95605C8.66261 1.95703 8.66866 1.96107 8.66992 1.96191C8.6581 1.95416 8.64568 1.94711 8.63379 1.93945L8.57227 1.97559Z"
    fill="currentColor"
  />
</svg>
