<svg
  width="20"
  height="20"
  viewBox="0 0 20 20"
  fill="none"
  xmlns="http://www.w3.org/2000/svg"
  data-fui-icon="true"
>
  <ellipse
    cx="10"
    cy="10"
    rx="2.5"
    ry="2.5"
    stroke="currentColor"
    stroke-width="1.5"
    stroke-linecap="round"
    stroke-linejoin="round"
  />
  <path
    d="M7.86661 3.00086L7.12141 2.91621L7.86661 3.00086ZM7.71206 4.36151L7.98415 5.06042C8.24367 4.95938 8.42583 4.72287 8.45726 4.44616L7.71206 4.36151ZM6.22811 5.18512L5.92881 5.87282C6.1757 5.98027 6.46125 5.94713 6.67696 5.78598L6.22811 5.18512ZM5.00532 4.65294L4.70602 5.34064H4.70602L5.00532 4.65294ZM3.22154 5.24081L3.87106 5.61581L3.22154 5.24081ZM2.48907 6.50949L1.83955 6.13449L2.48907 6.50949ZM2.87185 8.34821L3.31776 7.74517H3.31776L2.87185 8.34821ZM3.80593 9.0389L4.54232 9.18117C4.59712 8.89752 4.48413 8.60762 4.25184 8.43586L3.80593 9.0389ZM3.73762 11.0116L4.18353 11.6147C4.40067 11.4541 4.51472 11.1892 4.48214 10.9212L3.73762 11.0116ZM2.87189 11.6518L3.3178 12.2548L3.3178 12.2548L2.87189 11.6518ZM2.48911 13.4905L1.83959 13.8655H1.83959L2.48911 13.4905ZM3.22158 14.7592L3.8711 14.3842H3.8711L3.22158 14.7592ZM5.00536 15.3471L5.30465 16.0347L5.00536 15.3471ZM5.83858 14.9844L6.33351 14.4209C6.11518 14.2292 5.80573 14.1808 5.53928 14.2967L5.83858 14.9844ZM7.76969 16.1459L8.5149 16.0612C8.48317 15.7819 8.29787 15.5438 8.03489 15.4443L7.76969 16.1459ZM7.86661 16.9991L8.61182 16.9145L7.86661 16.9991ZM12.1335 16.9991L11.3883 16.9145L12.1335 16.9991ZM12.2305 16.1459L11.9653 15.4443C11.7023 15.5437 11.517 15.7819 11.4853 16.0612L12.2305 16.1459ZM14.1613 14.9846L14.4606 14.2969C14.1941 14.181 13.8847 14.2294 13.6664 14.4211L14.1613 14.9846ZM14.9947 15.3474L15.294 14.6597H15.294L14.9947 15.3474ZM16.7785 14.7595L16.129 14.3845L16.7785 14.7595ZM17.511 13.4908L16.8614 13.1158L17.511 13.4908ZM17.1282 11.6521L16.6823 12.2551H16.6823L17.1282 11.6521ZM16.2624 11.0119L15.5179 10.9214C15.4853 11.1895 15.5994 11.4544 15.8165 11.615L16.2624 11.0119ZM16.1941 9.03863L15.7482 8.43558C15.5159 8.60735 15.4029 8.89727 15.4577 9.18093L16.1941 9.03863ZM17.1282 8.34792L16.6823 7.74487L17.1282 8.34792ZM17.511 6.50919L18.1605 6.13419L17.511 6.50919ZM16.7785 5.24051L16.129 5.61551L16.7785 5.24051ZM14.9948 4.65265L15.2941 5.34034V5.34034L14.9948 4.65265ZM13.7717 5.18493L13.3229 5.78581C13.5386 5.94694 13.8242 5.98007 14.071 5.87262L13.7717 5.18493ZM12.2881 4.36154L11.5429 4.44619C11.5743 4.72289 11.7565 4.9594 12.016 5.06044L12.2881 4.36154ZM12.1335 3.00086L11.3883 3.08551V3.08551L12.1335 3.00086ZM8.61182 3.08551C8.64971 2.75197 8.93192 2.5 9.2676 2.5V1C8.169 1 7.2454 1.82463 7.12141 2.91621L8.61182 3.08551ZM8.45726 4.44616L8.61182 3.08551L7.12141 2.91621L6.96685 4.27687L8.45726 4.44616ZM6.67696 5.78598C7.07522 5.48848 7.51434 5.24332 7.98415 5.06042L7.43996 3.66261C6.8423 3.89529 6.28448 4.20685 5.77926 4.58426L6.67696 5.78598ZM4.70602 5.34064L5.92881 5.87282L6.52741 4.49743L5.30461 3.96525L4.70602 5.34064ZM3.87106 5.61581C4.0389 5.32509 4.39822 5.20668 4.70602 5.34064L5.30461 3.96525C4.29727 3.52684 3.12133 3.91438 2.57202 4.86581L3.87106 5.61581ZM3.13859 6.88449L3.87106 5.61581L2.57202 4.86581L1.83955 6.13449L3.13859 6.88449ZM3.31776 7.74517C3.04785 7.54559 2.97074 7.1752 3.13859 6.88449L1.83955 6.13449C1.29025 7.08591 1.54259 8.29808 2.42594 8.95126L3.31776 7.74517ZM4.25184 8.43586L3.31776 7.74517L2.42594 8.95126L3.36002 9.64195L4.25184 8.43586ZM4.44123 10.2426C4.44123 9.879 4.47605 9.52419 4.54232 9.18117L3.06955 8.89664C2.98526 9.33293 2.94123 9.78301 2.94123 10.2426H4.44123ZM4.48214 10.9212C4.45515 10.6991 4.44123 10.4726 4.44123 10.2426H2.94123C2.94123 10.5333 2.95883 10.8201 2.9931 11.1021L4.48214 10.9212ZM3.3178 12.2548L4.18353 11.6147L3.29171 10.4086L2.42598 11.0487L3.3178 12.2548ZM3.13863 13.1155C2.97078 12.8248 3.04789 12.4544 3.3178 12.2548L2.42598 11.0487C1.54263 11.7019 1.29029 12.9141 1.83959 13.8655L3.13863 13.1155ZM3.8711 14.3842L3.13863 13.1155L1.83959 13.8655L2.57206 15.1342L3.8711 14.3842ZM4.70606 14.6594C4.39826 14.7933 4.03894 14.6749 3.8711 14.3842L2.57206 15.1342C3.12137 16.0856 4.29731 16.4732 5.30465 16.0347L4.70606 14.6594ZM5.53928 14.2967L4.70606 14.6594L5.30465 16.0347L6.13787 15.6721L5.53928 14.2967ZM8.03489 15.4443C7.40586 15.2066 6.83067 14.8576 6.33351 14.4209L5.34364 15.5479C5.97392 16.1015 6.70423 16.5449 7.5045 16.8474L8.03489 15.4443ZM8.61182 16.9145L8.5149 16.0612L7.02449 16.2305L7.12141 17.0838L8.61182 16.9145ZM9.26761 17.5C8.93192 17.5 8.64971 17.248 8.61182 16.9145L7.12141 17.0838C7.2454 18.1754 8.169 19 9.26761 19V17.5ZM10.7326 17.5H9.26761V19H10.7326V17.5ZM11.3883 16.9145C11.3504 17.248 11.0682 17.5 10.7326 17.5V19C11.8312 19 12.7548 18.1754 12.8788 17.0838L11.3883 16.9145ZM11.4853 16.0612L11.3883 16.9145L12.8788 17.0838L12.9757 16.2305L11.4853 16.0612ZM13.6664 14.4211C13.1693 14.8577 12.5942 15.2066 11.9653 15.4443L12.4957 16.8474C13.2958 16.5449 14.026 16.1016 14.6562 15.5482L13.6664 14.4211ZM15.294 14.6597L14.4606 14.2969L13.862 15.6723L14.6954 16.035L15.294 14.6597ZM16.129 14.3845C15.9611 14.6752 15.6018 14.7936 15.294 14.6597L14.6954 16.035C15.7028 16.4735 16.8787 16.0859 17.428 15.1345L16.129 14.3845ZM16.8614 13.1158L16.129 14.3845L17.428 15.1345L18.1605 13.8658L16.8614 13.1158ZM16.6823 12.2551C16.9522 12.4547 17.0293 12.8251 16.8614 13.1158L18.1605 13.8658C18.7098 12.9144 18.4574 11.7022 17.5741 11.049L16.6823 12.2551ZM15.8165 11.615L16.6823 12.2551L17.5741 11.049L16.7084 10.4089L15.8165 11.615ZM15.5589 10.2426C15.5589 10.4727 15.5449 10.6992 15.5179 10.9214L17.007 11.1024C17.0413 10.8203 17.0589 10.5334 17.0589 10.2426H15.5589ZM15.4577 9.18093C15.524 9.52402 15.5589 9.87891 15.5589 10.2426H17.0589C17.0589 9.7829 17.0148 9.33272 16.9305 8.89633L15.4577 9.18093ZM16.6823 7.74487L15.7482 8.43558L16.64 9.64167L17.5741 8.95096L16.6823 7.74487ZM16.8615 6.88419C17.0293 7.17491 16.9522 7.54529 16.6823 7.74487L17.5741 8.95096C18.4575 8.29779 18.7098 7.08561 18.1605 6.13419L16.8615 6.88419ZM16.129 5.61551L16.8615 6.88419L18.1605 6.13419L17.428 4.86551L16.129 5.61551ZM15.2941 5.34034C15.6018 5.20638 15.9612 5.3248 16.129 5.61551L17.428 4.86551C16.8787 3.91409 15.7028 3.52654 14.6955 3.96496L15.2941 5.34034ZM14.071 5.87262L15.2941 5.34034L14.6955 3.96496L13.4724 4.49724L14.071 5.87262ZM12.016 5.06044C12.4857 5.24331 12.9247 5.4884 13.3229 5.78581L14.2206 4.58405C13.7154 4.20675 13.1577 3.89527 12.5602 3.66264L12.016 5.06044ZM11.3883 3.08551L11.5429 4.44619L13.0333 4.27689L12.8788 2.91621L11.3883 3.08551ZM10.7326 2.5C11.0682 2.5 11.3504 2.75197 11.3883 3.08551L12.8788 2.91621C12.7548 1.82463 11.8312 1 10.7326 1V2.5ZM9.2676 2.5H10.7326V1H9.2676V2.5Z"
    fill="currentColor"
  />
</svg>
