<svg
  width="24"
  height="24"
  viewBox="0 0 24 24"
  fill="none"
  xmlns="http://www.w3.org/2000/svg"
  data-fui-icon="true"
>
  <ellipse
    cx="12"
    cy="12"
    rx="3.75"
    ry="3.75"
    stroke="currentColor"
    stroke-width="1.5"
    stroke-linecap="round"
    stroke-linejoin="round"
  />
  <path
    d="M9.34961 3.30249L10.0948 3.38713V3.38713L9.34961 3.30249ZM9.18197 4.7783L9.45479 5.47692C9.71394 5.37571 9.89578 5.13938 9.92718 4.86295L9.18197 4.7783ZM7.15682 5.9494L6.85753 6.6371C7.11281 6.7482 7.40863 6.70875 7.62588 6.53463L7.15682 5.9494ZM5.79303 5.35585L5.49373 6.04355L5.79303 5.35585ZM3.57913 6.08547L4.22865 6.46047L3.57913 6.08547ZM2.66746 7.66453L2.01794 7.28953H2.01794L2.66746 7.66453ZM3.14254 9.94663L2.69663 10.5497H2.69663L3.14254 9.94663ZM4.33776 10.8304L5.07931 10.9427C5.12091 10.6679 5.00714 10.3926 4.78367 10.2274L4.33776 10.8304ZM4.33776 13.1696L4.78367 13.7727C5.00714 13.6074 5.12091 13.3322 5.07932 13.0574L4.33776 13.1696ZM3.1426 14.0534L2.69669 13.4503H2.69668L3.1426 14.0534ZM2.66751 16.3355L3.31703 15.9605H3.31703L2.66751 16.3355ZM3.57918 17.9145L2.92966 18.2895H2.92966L3.57918 17.9145ZM5.79308 18.6441L5.49379 17.9565H5.49378L5.79308 18.6441ZM7.15684 18.0506L7.6259 17.4654C7.40865 17.2913 7.11283 17.2518 6.85755 17.3629L7.15684 18.0506ZM9.18197 19.2217L9.92718 19.1371C9.89578 18.8606 9.71394 18.6243 9.4548 18.5231L9.18197 19.2217ZM9.34961 20.6975L10.0948 20.6129L9.34961 20.6975ZM14.6506 20.6975L15.3958 20.7822L14.6506 20.6975ZM14.8182 19.2217L14.5454 18.5231C14.2862 18.6243 14.1044 18.8606 14.073 19.137L14.8182 19.2217ZM16.8433 18.0506L17.1426 17.3629C16.8873 17.2518 16.5915 17.2913 16.3743 17.4654L16.8433 18.0506ZM18.2071 18.6441L17.9078 19.3318L18.2071 18.6441ZM20.421 17.9145L19.7715 17.5395V17.5395L20.421 17.9145ZM21.3326 16.3355L21.9822 16.7105L21.3326 16.3355ZM20.8576 14.0534L20.4117 14.6564L20.8576 14.0534ZM19.6624 13.1696L18.9208 13.0574C18.8793 13.3322 18.993 13.6074 19.2165 13.7727L19.6624 13.1696ZM19.6624 10.8304L19.2165 10.2274C18.993 10.3926 18.8793 10.6679 18.9209 10.9427L19.6624 10.8304ZM20.8576 9.94663L20.4117 9.34359V9.34359L20.8576 9.94663ZM21.3327 7.66453L20.6832 8.03953V8.03953L21.3327 7.66453ZM20.421 6.08547L21.0706 5.71047V5.71047L20.421 6.08547ZM18.2071 5.35585L17.9078 4.66816L18.2071 5.35585ZM16.8433 5.9494L16.3743 6.53463C16.5915 6.70875 16.8874 6.7482 17.1426 6.6371L16.8433 5.9494ZM14.8182 4.77831L14.073 4.86296C14.1044 5.13939 14.2862 5.37572 14.5454 5.47693L14.8182 4.77831ZM14.6506 3.30249L15.3958 3.21784V3.21784L14.6506 3.30249ZM10.0948 3.38713C10.1522 2.88177 10.5798 2.5 11.0884 2.5V1C9.81689 1 8.74791 1.95443 8.6044 3.21784L10.0948 3.38713ZM9.92718 4.86295L10.0948 3.38713L8.6044 3.21784L8.43676 4.69365L9.92718 4.86295ZM7.62588 6.53463C8.1744 6.09499 8.7901 5.73649 9.45479 5.47692L8.90915 4.07968C8.10085 4.39533 7.35313 4.83089 6.68777 5.36418L7.62588 6.53463ZM5.49373 6.04355L6.85753 6.6371L7.45612 5.26171L6.09233 4.66816L5.49373 6.04355ZM4.22865 6.46047C4.48295 6.02 5.02737 5.84058 5.49373 6.04355L6.09233 4.66816C4.92642 4.16074 3.56538 4.60929 2.92961 5.71047L4.22865 6.46047ZM3.31698 8.03953L4.22865 6.46047L2.92961 5.71047L2.01794 7.28953L3.31698 8.03953ZM3.58845 9.34359C3.1795 9.04119 3.06267 8.48 3.31698 8.03953L2.01794 7.28953C1.38217 8.39071 1.67424 9.79369 2.69663 10.5497L3.58845 9.34359ZM4.78367 10.2274L3.58845 9.34359L2.69663 10.5497L3.89185 11.4335L4.78367 10.2274ZM5.00008 12C5.00008 11.6401 5.02717 11.2871 5.07931 10.9427L3.59621 10.7182C3.53286 11.1366 3.50008 11.5647 3.50008 12H5.00008ZM5.07932 13.0574C5.02718 12.7129 5.00008 12.3599 5.00008 12H3.50008C3.50008 12.4353 3.53286 12.8634 3.59621 13.2819L5.07932 13.0574ZM3.58851 14.6564L4.78367 13.7727L3.89185 12.5666L2.69669 13.4503L3.58851 14.6564ZM3.31703 15.9605C3.06272 15.52 3.17955 14.9588 3.58851 14.6564L2.69668 13.4503C1.67429 14.2063 1.38223 15.6093 2.01799 16.7105L3.31703 15.9605ZM4.2287 17.5395L3.31703 15.9605L2.01799 16.7105L2.92966 18.2895L4.2287 17.5395ZM5.49378 17.9565C5.02743 18.1594 4.48301 17.98 4.2287 17.5395L2.92966 18.2895C3.56543 19.3907 4.92648 19.8393 6.09238 19.3318L5.49378 17.9565ZM6.85755 17.3629L5.49379 17.9565L6.09238 19.3318L7.45614 18.7383L6.85755 17.3629ZM9.4548 18.5231C8.79011 18.2635 8.17441 17.905 7.6259 17.4654L6.68779 18.6358C7.35315 19.1691 8.10085 19.6047 8.90915 19.9203L9.4548 18.5231ZM10.0948 20.6129L9.92718 19.1371L8.43676 19.3064L8.6044 20.7822L10.0948 20.6129ZM11.0884 21.5C10.5798 21.5 10.1522 21.1182 10.0948 20.6129L8.6044 20.7822C8.74791 22.0456 9.81689 23 11.0884 23V21.5ZM12.9118 21.5H11.0884V23H12.9118V21.5ZM13.9054 20.6129C13.848 21.1182 13.4204 21.5 12.9118 21.5V23C14.1833 23 15.2523 22.0456 15.3958 20.7822L13.9054 20.6129ZM14.073 19.137L13.9054 20.6129L15.3958 20.7822L15.5634 19.3063L14.073 19.137ZM16.3743 17.4654C15.8258 17.905 15.2101 18.2635 14.5454 18.5231L15.091 19.9203C15.8993 19.6047 16.647 19.1691 17.3124 18.6358L16.3743 17.4654ZM18.5064 17.9565L17.1426 17.3629L16.544 18.7383L17.9078 19.3318L18.5064 17.9565ZM19.7715 17.5395C19.5172 17.98 18.9727 18.1594 18.5064 17.9565L17.9078 19.3318C19.0737 19.8393 20.4347 19.3907 21.0705 18.2895L19.7715 17.5395ZM20.6831 15.9605L19.7715 17.5395L21.0705 18.2895L21.9822 16.7105L20.6831 15.9605ZM20.4117 14.6564C20.8206 14.9588 20.9374 15.52 20.6831 15.9605L21.9822 16.7105C22.6179 15.6093 22.3259 14.2063 21.3035 13.4503L20.4117 14.6564ZM19.2165 13.7727L20.4117 14.6564L21.3035 13.4503L20.1083 12.5666L19.2165 13.7727ZM19.0001 12C19.0001 12.3599 18.973 12.7129 18.9208 13.0574L20.404 13.2819C20.4673 12.8634 20.5001 12.4353 20.5001 12H19.0001ZM18.9209 10.9427C18.973 11.2871 19.0001 11.6401 19.0001 12H20.5001C20.5001 11.5647 20.4673 11.1366 20.404 10.7182L18.9209 10.9427ZM20.4117 9.34359L19.2165 10.2274L20.1083 11.4335L21.3035 10.5497L20.4117 9.34359ZM20.6832 8.03953C20.9375 8.48 20.8207 9.04119 20.4117 9.34359L21.3035 10.5497C22.3259 9.79369 22.618 8.39071 21.9822 7.28953L20.6832 8.03953ZM19.7715 6.46047L20.6832 8.03953L21.9822 7.28953L21.0706 5.71047L19.7715 6.46047ZM18.5064 6.04355C18.9728 5.84058 19.5172 6.02 19.7715 6.46047L21.0706 5.71047C20.4348 4.60929 19.0737 4.16074 17.9078 4.66816L18.5064 6.04355ZM17.1426 6.6371L18.5064 6.04355L17.9078 4.66816L16.544 5.26171L17.1426 6.6371ZM14.5454 5.47693C15.2101 5.7365 15.8258 6.095 16.3743 6.53463L17.3124 5.36418C16.647 4.8309 15.8993 4.39535 15.091 4.07969L14.5454 5.47693ZM13.9054 3.38714L14.073 4.86296L15.5634 4.69366L15.3958 3.21784L13.9054 3.38714ZM12.9118 2.5C13.4204 2.5 13.848 2.88177 13.9054 3.38714L15.3958 3.21784C15.2523 1.95443 14.1833 1 12.9118 1V2.5ZM11.0884 2.5H12.9118V1H11.0884V2.5Z"
    fill="currentColor"
  />
</svg>
