<svg width="32" height="32" viewBox="0 0 32 32" fill="none" xmlns="http://www.w3.org/2000/svg" data-fui-icon="true">
  <path
    d="M16 1.25049C18.5556 1.25049 20.5218 1.24937 22.0879 1.38721C23.6634 1.52594 24.9065 1.80985 26.001 2.41943C27.5037 3.2566 28.744 4.4967 29.5811 5.99951C30.1905 7.09396 30.4746 8.33708 30.6133 9.9126C30.7511 11.4787 30.75 13.445 30.75 16.0005C30.75 18.5561 30.7511 20.5223 30.6133 22.0884C30.4746 23.664 30.1907 24.907 29.5811 26.0015C28.7439 27.5043 27.5039 28.7444 26.001 29.5815C24.9065 30.1911 23.6635 30.475 22.0879 30.6138C20.5218 30.7516 18.5556 30.7505 16 30.7505C13.4445 30.7505 11.4782 30.7516 9.91211 30.6138C8.3366 30.4751 7.09347 30.191 5.99902 29.5815C4.49621 28.7445 3.25611 27.5042 2.41895 26.0015C1.80936 24.907 1.52545 23.6639 1.38672 22.0884C1.24889 20.5223 1.24902 18.5561 1.24902 16.0005C1.24902 13.4449 1.24892 11.4787 1.38672 9.9126C1.52543 8.33688 1.80936 7.09406 2.41895 5.99951C3.25611 4.49651 4.49602 3.2566 5.99902 2.41943C7.09357 1.80984 8.3364 1.52591 9.91211 1.38721C11.4782 1.2494 13.4444 1.25049 16 1.25049ZM10.25 11.0005C8.17893 11.0005 6.5 12.6794 6.5 14.7505V17.2466C6.50041 19.3173 8.17918 20.9966 10.25 20.9966H10.8125C12.6069 20.9963 14.0621 19.541 14.0625 17.7466V16.8257C14.0625 16.1355 13.5026 15.5759 12.8125 15.5757H11.292C10.8778 15.5757 10.542 15.9115 10.542 16.3257C10.5424 16.7396 10.878 17.0757 11.292 17.0757H12.5625V17.7466C12.5621 18.7126 11.7785 19.4963 10.8125 19.4966H10.25C9.00761 19.4966 8.00041 18.4889 8 17.2466V14.7505C8 13.5078 9.00736 12.5005 10.25 12.5005H10.4893C11.2981 12.5006 11.8228 12.8344 12.1562 13.1665C12.3268 13.3365 12.4484 13.508 12.5254 13.6343C12.5634 13.6966 12.59 13.7477 12.6055 13.7788C12.6129 13.7938 12.6179 13.8052 12.6201 13.8101L12.6221 13.813C12.7826 14.191 13.2182 14.3704 13.5986 14.2134C13.9811 14.0554 14.1633 13.6165 14.0059 13.2339L14.0049 13.2329V13.231L14.0029 13.228C14.0019 13.2256 14.0004 13.2215 13.999 13.2183C13.996 13.2113 13.9918 13.2019 13.9873 13.1919C13.9779 13.1712 13.9644 13.1433 13.9482 13.1108C13.9157 13.0454 13.8684 12.956 13.8057 12.853C13.6804 12.6478 13.4876 12.3758 13.2148 12.104C12.66 11.5514 11.772 11.0006 10.4893 11.0005H10.25ZM16.5996 11.0005C16.1856 11.0007 15.8496 11.3364 15.8496 11.7505V20.2466C15.85 20.6603 16.1858 20.9964 16.5996 20.9966C17.0133 20.9963 17.3492 20.6603 17.3496 20.2466V11.7505C17.3496 11.3364 17.0136 11.0008 16.5996 11.0005ZM20.75 11.0005C20.0596 11.0005 19.5 11.5601 19.5 12.2505V20.2466C19.5004 20.6604 19.836 20.9966 20.25 20.9966C20.6637 20.9963 20.9996 20.6603 21 20.2466V16.7485H24.0283C24.4421 16.7483 24.7779 16.4122 24.7783 15.9985C24.7783 15.5845 24.4423 15.2488 24.0283 15.2485H21V12.5005H24.7139C25.1275 12.5001 25.4635 12.1641 25.4639 11.7505C25.4639 11.3365 25.1278 11.0009 24.7139 11.0005H20.75Z"
    fill="currentColor"
  />
</svg>
