<svg width="16" height="16" viewBox="0 0 16 16" fill="none" xmlns="http://www.w3.org/2000/svg" data-fui-icon="true">
  <path
    d="M8 0C9.27092 0 10.2701 -0.000308752 11.0723 0.0664062C11.8833 0.133882 12.5605 0.273608 13.1738 0.592773C14.1295 1.09026 14.9097 1.8705 15.4072 2.82617C15.7264 3.43948 15.8661 4.11667 15.9336 4.92773C16.0003 5.72993 16 6.72908 16 8C16 9.27092 16.0003 10.2701 15.9336 11.0723C15.8661 11.8833 15.7264 12.5605 15.4072 13.1738C14.9097 14.1295 14.1295 14.9097 13.1738 15.4072C12.5605 15.7264 11.8833 15.8661 11.0723 15.9336C10.2701 16.0003 9.27092 16 8 16C6.72908 16 5.72993 16.0003 4.92773 15.9336C4.11667 15.8661 3.43948 15.7264 2.82617 15.4072C1.8705 14.9097 1.09026 14.1295 0.592773 13.1738C0.273608 12.5605 0.133882 11.8833 0.0664062 11.0723C-0.000308752 10.2701 0 9.27092 0 8C0 6.72908 -0.000308788 5.72993 0.0664062 4.92773C0.133882 4.11667 0.273608 3.43948 0.592773 2.82617C1.09026 1.8705 1.8705 1.09026 2.82617 0.592773C3.43948 0.273608 4.11667 0.133882 4.92773 0.0664062C5.72993 -0.000308788 6.72908 0 8 0ZM8 1.5C6.70371 1.5 5.77739 1.50018 5.05176 1.56055C4.33515 1.62017 3.88184 1.73472 3.51855 1.92383C2.83593 2.27918 2.27918 2.83593 1.92383 3.51855C1.73472 3.88184 1.62017 4.33515 1.56055 5.05176C1.50018 5.77739 1.5 6.70371 1.5 8C1.5 9.29629 1.50018 10.2226 1.56055 10.9482C1.62017 11.6649 1.73472 12.1182 1.92383 12.4814C2.27918 13.1641 2.83593 13.7208 3.51855 14.0762C3.88184 14.2653 4.33515 14.3798 5.05176 14.4395C5.77739 14.4998 6.70371 14.5 8 14.5C9.29629 14.5 10.2226 14.4998 10.9482 14.4395C11.6649 14.3798 12.1182 14.2653 12.4814 14.0762C13.1641 13.7208 13.7208 13.1641 14.0762 12.4814C14.2653 12.1182 14.3798 11.6649 14.4395 10.9482C14.4998 10.2226 14.5 9.29629 14.5 8C14.5 6.70371 14.4998 5.77739 14.4395 5.05176C14.3798 4.33515 14.2653 3.88184 14.0762 3.51855C13.7208 2.83593 13.1641 2.27918 12.4814 1.92383C12.1182 1.73472 11.6649 1.62017 10.9482 1.56055C10.2226 1.50018 9.29629 1.5 8 1.5ZM4.73828 5.25C5.35645 5.25 5.81618 5.414 6.13867 5.61133C6.29657 5.70797 6.41556 5.80855 6.5 5.89355C6.54209 5.93596 6.57662 5.97482 6.60254 6.00684C6.61537 6.02269 6.62656 6.03733 6.63574 6.0498C6.64029 6.05598 6.64476 6.06215 6.64844 6.06738C6.65018 6.06992 6.65175 6.07291 6.65332 6.0752C6.65399 6.07634 6.65458 6.07808 6.65527 6.0791L6.65723 6.08008V6.08105C6.65452 6.08347 6.61755 6.10952 6.15137 6.42285L6.6582 6.08203C6.88888 6.42572 6.7976 6.89205 6.4541 7.12305C6.13197 7.33935 5.70181 7.27252 5.45898 6.98047L5.43652 6.95117C5.42808 6.94267 5.40192 6.91852 5.35645 6.89062C5.27076 6.83819 5.08148 6.75098 4.73828 6.75098C4.33057 6.75104 4.00006 7.08154 4 7.48926V8.33984C4.00026 8.8401 4.40593 9.24609 4.90625 9.24609C5.08283 9.24607 5.22929 9.12434 5.27148 8.96094C4.96976 8.86412 4.75043 8.58476 4.75 8.25098C4.75 7.83676 5.08579 7.50098 5.5 7.50098H5.59863C6.25374 7.50098 6.78496 8.03146 6.78516 8.68652V8.86719C6.7847 9.90465 5.94382 10.7461 4.90625 10.7461C3.5775 10.7461 2.50026 9.66853 2.5 8.33984V7.48926C2.50006 6.25312 3.50214 5.25006 4.73828 5.25ZM8.29492 5.25C8.70914 5.25 9.04492 5.58676 9.04492 6.00098V9.99609C9.04464 10.4101 8.70896 10.7461 8.29492 10.7461C7.88093 10.746 7.5452 10.41 7.54492 9.99609V6.00098C7.54492 5.5868 7.88076 5.25006 8.29492 5.25ZM12.751 5.25C13.1651 5.25011 13.501 5.58683 13.501 6.00098C13.5007 6.4149 13.1649 6.75087 12.751 6.75098H11.4502V7.24805H12.4365C12.8503 7.24836 13.1863 7.58425 13.1865 7.99805C13.1863 8.41184 12.8503 8.74773 12.4365 8.74805H11.4502V9.99609C11.4499 10.41 11.1141 10.746 10.7002 10.7461C10.2862 10.7461 9.95048 10.4101 9.9502 9.99609V6.50098C9.9502 5.81062 10.5098 5.25 11.2002 5.25H12.751Z"
    fill="currentColor"
  />
</svg>
