<svg width="20" height="20" viewBox="0 0 20 20" fill="none" xmlns="http://www.w3.org/2000/svg" data-fui-icon="true">
  <path
    d="M9.99994 0C11.7387 0 13.0944 -0.000567524 14.1757 0.0996088C15.2675 0.20079 16.1554 0.40991 16.9393 0.874995C17.8393 1.40899 18.5908 2.16064 19.1249 3.06053C19.59 3.84446 19.7991 4.73242 19.9003 5.82418C20.0005 6.90544 19.9999 8.26125 19.9999 9.99994C19.9999 11.7386 20.0004 13.0944 19.9003 14.1757C19.7991 15.2675 19.59 16.1554 19.1249 16.9393C18.5908 17.8393 17.8393 18.5908 16.9393 19.1249C16.1554 19.5901 15.2676 19.7991 14.1757 19.9003C13.0944 20.0005 11.7387 19.9999 9.99994 19.9999C8.26119 19.9999 6.90546 20.0005 5.82418 19.9003C4.73237 19.7991 3.84449 19.59 3.06053 19.1249C2.16063 18.5908 1.409 17.8393 0.874995 16.9393C0.409925 16.1554 0.200788 15.2675 0.0996088 14.1757C-0.000557311 13.0944 0 11.7386 0 9.99994C-5.41952e-08 8.26125 -0.00057618 6.90544 0.0996088 5.82418C0.200806 4.73241 0.409861 3.84447 0.874995 3.06053C1.40903 2.1606 2.16058 1.40901 3.06053 0.874995C3.8445 0.409849 4.73236 0.200801 5.82418 0.0996088C6.90546 -0.000578524 8.26119 -2.71775e-08 9.99994 0ZM5.93844 6.49996C4.31581 6.50025 3.00034 7.8158 2.99998 9.43842V10.5546C3.00017 12.1837 4.3211 13.5047 5.95016 13.5048H6.34664C7.58883 13.5045 8.59634 12.497 8.59663 11.2548V10.7138C8.59626 10.024 8.0365 9.46412 7.34663 9.46381H6.48043C6.0667 9.46411 5.73081 9.8001 5.73043 10.2138C5.7306 10.6277 6.06658 10.9635 6.48043 10.9638H7.09664V11.2548C7.09635 11.6686 6.76041 12.0045 6.34664 12.0048H5.95016C5.14952 12.0047 4.50016 11.3552 4.49997 10.5546V9.43842C4.50033 8.64423 5.14423 8.00024 5.93844 7.99995C6.41886 8.00002 6.71765 8.18797 6.90425 8.36616C7.0017 8.45929 7.0713 8.55262 7.11421 8.62006C7.13493 8.65266 7.14894 8.67835 7.15621 8.69233L7.19136 8.76264C7.37629 9.09421 7.78619 9.23905 8.14253 9.08588C8.52273 8.92216 8.69843 8.48083 8.5351 8.10054L7.91694 8.36616C8.51051 8.11063 8.53339 8.09937 8.53413 8.09858V8.09761L8.52827 8.08589C8.52562 8.08001 8.52222 8.07231 8.5185 8.0644C8.51078 8.04802 8.50077 8.02611 8.48823 8.0019C8.46298 7.95323 8.42672 7.88915 8.37983 7.81538C8.28608 7.66798 8.14257 7.47439 7.94038 7.28121C7.52675 6.88622 6.87116 6.50003 5.93844 6.49996ZM10.4335 6.49996C10.0195 6.50003 9.68367 6.8359 9.68353 7.24996V12.7548C9.68383 13.1687 10.0196 13.5047 10.4335 13.5048C10.8474 13.5047 11.1832 13.1687 11.1835 12.7548V7.24996C11.1834 6.83594 10.8475 6.50009 10.4335 6.49996ZM13.7362 6.49996C13.046 6.50003 12.4864 7.05975 12.4863 7.74995V12.7548C12.4865 13.1687 12.8223 13.5047 13.2362 13.5048C13.6502 13.5047 13.986 13.1687 13.9862 12.7548V10.7519H15.789C16.203 10.7518 16.5388 10.4159 16.539 10.0019C16.5386 9.588 16.2029 9.25196 15.789 9.2519H13.9862V7.99995H16.2519C16.6659 7.99989 17.0017 7.66399 17.0018 7.24996C17.0017 6.8359 16.6659 6.50003 16.2519 6.49996H13.7362Z"
    fill="currentColor"
  />
</svg>
