<svg width="20" height="20" viewBox="0 0 20 20" fill="none" xmlns="http://www.w3.org/2000/svg" data-fui-icon="true">
  <path
    d="M14.6504 0C17.6047 0.000210776 19.9997 2.39531 20 5.34961V14.6504C19.9998 17.6048 17.6048 19.9998 14.6504 20H5.34961C2.39525 19.9997 0.000210777 17.6048 0 14.6504V5.34961C0.000342979 2.39535 2.39533 0.000277012 5.34961 0H14.6504ZM5.34961 1.5C3.22376 1.50028 1.50034 3.22378 1.5 5.34961V14.6504C1.50021 16.7763 3.22368 18.4997 5.34961 18.5H14.6504C16.7764 18.4998 18.4998 16.7764 18.5 14.6504V5.34961C18.4997 3.22374 16.7763 1.50021 14.6504 1.5H5.34961ZM5.93848 6.5C6.87121 6.50007 7.5268 6.88626 7.94043 7.28125C8.14262 7.47444 8.28613 7.66803 8.37988 7.81543C8.42678 7.8892 8.46303 7.95328 8.48828 8.00195C8.50082 8.02616 8.51083 8.04806 8.51855 8.06445C8.52228 8.07236 8.52567 8.08006 8.52832 8.08594L8.53418 8.09766V8.09863C8.53344 8.09942 8.51056 8.11068 7.91699 8.36621L8.53516 8.10059C8.69848 8.48089 8.52278 8.92222 8.14258 9.08594C7.78623 9.23911 7.37634 9.09427 7.19141 8.7627L7.15625 8.69238C7.14898 8.67841 7.13497 8.65272 7.11426 8.62012C7.07134 8.55267 7.00174 8.45934 6.9043 8.36621C6.71769 8.18802 6.4189 8.00006 5.93848 8C5.14426 8.00029 4.50036 8.64428 4.5 9.43848V10.5547C4.50019 11.3553 5.14955 12.0048 5.9502 12.0049H6.34668C6.76045 12.0046 7.09639 11.6687 7.09668 11.2549V10.9639H6.48047C6.06661 10.9636 5.73063 10.6278 5.73047 10.2139C5.73084 9.80016 6.06674 9.46417 6.48047 9.46387H7.34668C8.03655 9.46417 8.59631 10.024 8.59668 10.7139V11.2549C8.59639 12.4971 7.58888 13.5046 6.34668 13.5049H5.9502C4.32113 13.5048 3.00019 12.1837 3 10.5547V9.43848C3.00036 7.81585 4.31584 6.50029 5.93848 6.5ZM10.4336 6.5C10.8476 6.50013 11.1835 6.83598 11.1836 7.25V12.7549C11.1833 13.1688 10.8475 13.5048 10.4336 13.5049C10.0196 13.5048 9.68388 13.1688 9.68359 12.7549V7.25C9.68373 6.83594 10.0195 6.50007 10.4336 6.5ZM16.252 6.5C16.666 6.50007 17.0018 6.83594 17.002 7.25C17.0018 7.66403 16.666 7.99993 16.252 8H13.9863V9.25195H15.7891C16.203 9.25202 16.5387 9.58806 16.5391 10.002C16.5389 10.416 16.2031 10.7519 15.7891 10.752H13.9863V12.7549C13.986 13.1688 13.6503 13.5048 13.2363 13.5049C12.8224 13.5048 12.4866 13.1688 12.4863 12.7549V7.75C12.4865 7.0598 13.0461 6.50007 13.7363 6.5H16.252Z"
    fill="currentColor"
  />
</svg>
