<svg width="12" height="12" viewBox="0 0 12 12" fill="none" xmlns="http://www.w3.org/2000/svg" data-fui-icon="true">
  <path
    d="M6 0C6.80493 0 7.44634 -0.000265453 7.96582 0.0351562C8.49187 0.0710486 8.94792 0.146036 9.37598 0.323242C10.4173 0.754586 11.2454 1.58267 11.6768 2.62402C11.854 3.0521 11.9289 3.50809 11.9648 4.03418C12.0003 4.55368 12 5.195 12 6C12 6.805 12.0003 7.44632 11.9648 7.96582C11.9289 8.49191 11.854 8.9479 11.6768 9.37598C11.2454 10.4173 10.4173 11.2454 9.37598 11.6768C8.94792 11.854 8.49187 11.929 7.96582 11.9648C7.44634 12.0003 6.80493 12 6 12C5.19506 12 4.55365 12.0003 4.03418 11.9648C3.50813 11.9289 3.05207 11.854 2.62402 11.6768C1.5827 11.2454 0.754577 10.4173 0.323242 9.37598C0.146018 8.94791 0.0710503 8.4919 0.0351562 7.96582C-0.000273213 7.44632 0 6.80499 0 6C0 5.19501 -0.000273188 4.55368 0.0351562 4.03418C0.0710503 3.5081 0.146018 3.05209 0.323242 2.62402C0.754577 1.58269 1.5827 0.754604 2.62402 0.323242C3.05207 0.146019 3.50813 0.0710548 4.03418 0.0351562C4.55365 -0.000271962 5.19506 -2.75952e-08 6 0ZM3.86133 4.25C3.10966 4.25033 2.50026 4.85965 2.5 5.61133V6.35059C2.50013 7.12143 3.12562 7.747 3.89648 7.74707C4.56814 7.74682 5.11303 7.20193 5.11328 6.53027V6.46582C5.11312 6.04657 4.79404 5.7018 4.38574 5.66016L4.30273 5.65625C4.02665 5.65632 3.80273 5.88015 3.80273 6.15625C3.80297 6.35836 3.92394 6.53077 4.09668 6.60938C4.0649 6.68939 3.98777 6.74688 3.89648 6.74707C3.67791 6.747 3.50013 6.56915 3.5 6.35059V5.61133C3.50026 5.41193 3.66195 5.25033 3.86133 5.25C4.03972 5.25 4.1329 5.29816 4.1709 5.32324C4.1918 5.33709 4.20321 5.34848 4.20605 5.35156C4.20553 5.35096 4.20414 5.34993 4.20312 5.34863C4.20173 5.34678 4.19955 5.34414 4.19727 5.34082C4.19606 5.33903 4.1948 5.33624 4.19336 5.33398L4.25488 5.41016C4.41512 5.57532 4.67357 5.61282 4.87695 5.48633C5.11128 5.34041 5.1829 5.03224 5.03711 4.79785L5.03613 4.79688V4.7959L5.03418 4.79297C5.03329 4.79157 5.03223 4.78961 5.03125 4.78809C5.02908 4.78476 5.02609 4.78122 5.02344 4.77734C5.01785 4.76916 5.01072 4.75941 5.00293 4.74902C4.98727 4.72815 4.96684 4.70247 4.94141 4.6748C4.89038 4.61937 4.81818 4.55304 4.72168 4.48926C4.52329 4.35825 4.2394 4.25 3.86133 4.25ZM6.17188 4.25C5.89579 4.25007 5.67188 4.4739 5.67188 4.75V7.24707C5.67212 7.52296 5.89594 7.747 6.17188 7.74707C6.4477 7.74687 6.67163 7.52288 6.67188 7.24707V4.75C6.67188 4.47398 6.44785 4.2502 6.17188 4.25ZM8.25 4.25C7.69777 4.25007 7.25 4.69776 7.25 5.25V7.24707C7.25025 7.52296 7.47407 7.747 7.75 7.74707C8.02599 7.74707 8.24975 7.523 8.25 7.24707V6.49805H8.75586C9.03192 6.49805 9.25573 6.27408 9.25586 5.99805C9.25565 5.72208 9.03187 5.49805 8.75586 5.49805H8.25V5.25H8.93848C9.21453 5.24999 9.43834 5.02602 9.43848 4.75C9.43848 4.47387 9.21461 4.25001 8.93848 4.25H8.25Z"
    fill="currentColor"
  />
</svg>
