<svg width="12" height="12" viewBox="0 0 12 12" fill="none" xmlns="http://www.w3.org/2000/svg" data-fui-icon="true">
  <path
    d="M5.99994 0C6.80487 0 7.44626 -0.000265484 7.96574 0.0351559C8.49179 0.0710479 8.94783 0.146035 9.37588 0.323239C10.4172 0.754578 11.2453 1.58266 11.6766 2.624C11.8539 3.05207 11.9288 3.50805 11.9647 4.03414C12.0002 4.55363 11.9999 5.19495 11.9999 5.99994C11.9999 6.80493 12.0002 7.44624 11.9647 7.96574C11.9288 8.49183 11.8539 8.9478 11.6766 9.37588C11.2453 10.4172 10.4172 11.2453 9.37588 11.6766C8.94783 11.8538 8.49179 11.9288 7.96574 11.9647C7.44626 12.0001 6.80487 11.9999 5.99994 11.9999C5.19501 11.9999 4.55361 12.0001 4.03414 11.9647C3.5081 11.9288 3.05204 11.8539 2.624 11.6766C1.58269 11.2453 0.754569 10.4172 0.323239 9.37588C0.146017 8.94781 0.0710496 8.49181 0.0351559 7.96574C-0.000273244 7.44624 0 6.80492 0 5.99994C0 5.19495 -0.000273222 4.55363 0.0351559 4.03414C0.0710496 3.50807 0.146017 3.05206 0.323239 2.624C0.754569 1.58267 1.58269 0.754596 2.624 0.323239C3.05204 0.146018 3.5081 0.0710541 4.03414 0.0351559C4.55361 -0.000271996 5.19501 -2.75986e-08 5.99994 0ZM5.99994 1.49998C5.17435 1.49998 4.59232 1.50008 4.1357 1.53123C3.68601 1.56194 3.41215 1.61994 3.19723 1.70897C2.52361 1.98808 1.98805 2.52359 1.70897 3.19723C1.61995 3.41217 1.56193 3.68597 1.53123 4.1357C1.50008 4.59234 1.49998 5.17429 1.49998 5.99994C1.49998 6.82558 1.50008 7.40754 1.53123 7.86418C1.56193 8.31391 1.61995 8.58771 1.70897 8.80264C1.98805 9.47629 2.52361 10.0118 3.19723 10.2909C3.41215 10.3799 3.68601 10.4379 4.1357 10.4686C4.59232 10.4998 5.17435 10.4999 5.99994 10.4999C6.82552 10.4999 7.40755 10.4998 7.86418 10.4686C8.31387 10.4379 8.58772 10.3799 8.80264 10.2909C9.47631 10.0118 10.0118 9.4763 10.2909 8.80264C10.3799 8.58771 10.4379 8.31394 10.4686 7.86418C10.4998 7.40753 10.4999 6.82559 10.4999 5.99994C10.4999 5.17429 10.4998 4.59234 10.4686 4.1357C10.4379 3.68594 10.3799 3.41217 10.2909 3.19723C10.0118 2.52358 9.47631 1.98806 8.80264 1.70897C8.58772 1.61996 8.31387 1.56193 7.86418 1.53123C7.40755 1.50009 6.82552 1.49998 5.99994 1.49998ZM3.86129 4.24996C4.23936 4.24996 4.52324 4.35821 4.72163 4.48921C4.81814 4.55299 4.89033 4.61932 4.94136 4.67476C4.96679 4.70242 4.98722 4.7281 5.00288 4.74898C5.01067 4.75937 5.0178 4.76911 5.02339 4.7773C5.02604 4.78117 5.02902 4.78471 5.0312 4.78804C5.03218 4.78957 5.03324 4.79152 5.03413 4.79292L5.03608 4.79585V4.79683L5.03706 4.7978C5.18285 5.03219 5.11123 5.34035 4.8769 5.48627C4.67353 5.61276 4.41507 5.57526 4.25484 5.4101L4.19332 5.33393C4.19476 5.33619 4.19601 5.33897 4.19722 5.34077C4.1995 5.34409 4.20169 5.34672 4.20308 5.34858C4.2041 5.34988 4.20549 5.3509 4.20601 5.35151C4.20316 5.34843 4.19176 5.33704 4.17086 5.32319C4.13286 5.29811 4.03968 5.24995 3.86129 5.24995C3.66191 5.25028 3.50023 5.41188 3.49996 5.61127V6.35052C3.5001 6.56908 3.67787 6.74694 3.89644 6.747C3.98773 6.74681 4.06486 6.68933 4.09664 6.60931C3.9239 6.5307 3.80293 6.35829 3.8027 6.15619C3.8027 5.88009 4.02661 5.65626 4.30269 5.65619L4.3857 5.6601C4.79399 5.70174 5.11306 6.04651 5.11323 6.46575V6.53021C5.11297 7.20185 4.56809 7.74674 3.89644 7.74699C3.12559 7.74693 2.50011 7.12136 2.49997 6.35052V5.61127C2.50024 4.8596 3.10963 4.25029 3.86129 4.24996ZM6.17181 4.24996C6.44778 4.25015 6.67181 4.47393 6.67181 4.74995V7.247C6.67156 7.5228 6.44763 7.74679 6.17181 7.74699C5.89588 7.74693 5.67206 7.52289 5.67182 7.247V4.74995C5.67182 4.47385 5.89573 4.25002 6.17181 4.24996ZM8.93839 4.24996C9.21451 4.24997 9.43838 4.47382 9.43838 4.74995C9.43825 5.02597 9.21443 5.24993 8.93839 5.24995H8.24992V5.49799H8.75577C9.03178 5.49799 9.25556 5.72202 9.25577 5.99799C9.25563 6.27401 9.03183 6.49798 8.75577 6.49798H8.24992V7.247C8.24967 7.52293 8.02591 7.74699 7.74992 7.74699C7.47399 7.74693 7.25017 7.52288 7.24993 7.247V5.24995C7.24993 4.69771 7.69769 4.25002 8.24992 4.24996H8.93839Z"
    fill="currentColor"
  />
</svg>
