<svg width="12" height="12" viewBox="0 0 12 12" fill="none" xmlns="http://www.w3.org/2000/svg" data-fui-icon="true">
  <path
    d="M8.25 0C10.3211 0 12 1.67893 12 3.75V8.25C12 10.3211 10.3211 12 8.25 12H3.75C1.67899 11.9999 2.57697e-07 10.321 0 8.25V3.75C3.22112e-08 1.67897 1.67899 6.60028e-05 3.75 0H8.25ZM3.75 1.5C2.50742 1.50007 1.5 2.5074 1.5 3.75V8.25C1.5 9.4926 2.50742 10.4999 3.75 10.5H8.25C9.49264 10.5 10.5 9.49264 10.5 8.25V3.75C10.5 2.50736 9.49264 1.5 8.25 1.5H3.75ZM3.86133 4.25C4.2394 4.25 4.52329 4.35825 4.72168 4.48926C4.81818 4.55304 4.89038 4.61937 4.94141 4.6748C4.96684 4.70247 4.98727 4.72815 5.00293 4.74902C5.01072 4.75941 5.01785 4.76916 5.02344 4.77734C5.02609 4.78122 5.02908 4.78476 5.03125 4.78809C5.03223 4.78962 5.03329 4.79157 5.03418 4.79297L5.03613 4.7959V4.79688L5.03711 4.79785C5.1829 5.03224 5.11128 5.34041 4.87695 5.48633C4.67357 5.61282 4.41512 5.57532 4.25488 5.41016L4.19336 5.33398C4.1948 5.33624 4.19606 5.33903 4.19727 5.34082C4.19955 5.34414 4.20173 5.34678 4.20312 5.34863C4.20414 5.34993 4.20553 5.35096 4.20605 5.35156C4.20321 5.34848 4.1918 5.33709 4.1709 5.32324C4.1329 5.29816 4.03972 5.25 3.86133 5.25C3.66195 5.25033 3.50026 5.41193 3.5 5.61133V6.35059C3.50013 6.56915 3.67791 6.747 3.89648 6.74707C3.98777 6.74688 4.0649 6.68939 4.09668 6.60938C3.92394 6.53077 3.80297 6.35836 3.80273 6.15625C3.80273 5.88015 4.02665 5.65632 4.30273 5.65625L4.38574 5.66016C4.79404 5.7018 5.11312 6.04657 5.11328 6.46582V6.53027C5.11302 7.20193 4.56814 7.74682 3.89648 7.74707C3.12562 7.747 2.50013 7.12143 2.5 6.35059V5.61133C2.50026 4.85965 3.10966 4.25033 3.86133 4.25ZM6.17188 4.25C6.44785 4.2502 6.67188 4.47398 6.67188 4.75V7.24707C6.67163 7.52288 6.4477 7.74687 6.17188 7.74707C5.89594 7.747 5.67212 7.52296 5.67188 7.24707V4.75C5.67188 4.4739 5.89579 4.25007 6.17188 4.25ZM8.93848 4.25C9.21461 4.25001 9.43848 4.47387 9.43848 4.75C9.43834 5.02602 9.21453 5.24999 8.93848 5.25H8.25V5.49805H8.75586C9.03187 5.49805 9.25565 5.72208 9.25586 5.99805C9.25573 6.27408 9.03192 6.49805 8.75586 6.49805H8.25V7.24707C8.24975 7.523 8.02599 7.74707 7.75 7.74707C7.47407 7.747 7.25025 7.52296 7.25 7.24707V5.25C7.25 4.69776 7.69777 4.25007 8.25 4.25H8.93848Z"
    fill="currentColor"
  />
</svg>
