<svg width="20" height="20" viewBox="0 0 20 20" fill="none" xmlns="http://www.w3.org/2000/svg" data-fui-icon="true">
  <path
    d="M9.99992 0C11.7387 0 13.0944 -0.000567523 14.1757 0.0996086C15.2675 0.200789 16.1554 0.40991 16.9393 0.874993C17.8392 1.40899 18.5908 2.16064 19.1249 3.06052C19.59 3.84446 19.799 4.73241 19.9002 5.82417C20.0004 6.90543 19.9998 8.26123 19.9998 9.99992C19.9998 11.7386 20.0004 13.0944 19.9002 14.1757C19.7991 15.2675 19.59 16.1554 19.1249 16.9393C18.5908 17.8393 17.8393 18.5908 16.9393 19.1249C16.1553 19.59 15.2675 19.799 14.1757 19.9002C13.0944 20.0004 11.7387 19.9998 9.99992 19.9998C8.26117 19.9998 6.90545 20.0004 5.82417 19.9002C4.73236 19.799 3.84448 19.59 3.06052 19.1249C2.16062 18.5908 1.40899 17.8392 0.874993 16.9393C0.409925 16.1554 0.200788 15.2674 0.0996086 14.1757C-0.00055731 13.0944 0 11.7386 0 9.99992C-5.41951e-08 8.26123 -0.000576179 6.90543 0.0996086 5.82417C0.200806 4.7324 0.40986 3.84446 0.874993 3.06052C1.40903 2.16059 2.16058 1.40901 3.06052 0.874993C3.84449 0.409849 4.73235 0.2008 5.82417 0.0996086C6.90545 -0.000578523 8.26117 -2.71775e-08 9.99992 0ZM9.99992 1.49999C8.23296 1.49999 6.95885 1.50048 5.96285 1.59276C4.97756 1.68406 4.33969 1.86033 3.82614 2.16502C3.14212 2.57089 2.57091 3.14213 2.16502 3.82614C1.86033 4.33967 1.68407 4.97763 1.59276 5.96285C1.50048 6.95883 1.49999 8.23302 1.49999 9.99992C1.49999 11.7668 1.5005 13.041 1.59276 14.037C1.68405 15.0222 1.86039 15.6602 2.16502 16.1737C2.57088 16.8577 3.14216 17.4289 3.82614 17.8348C4.33969 18.1395 4.97758 18.3158 5.96285 18.4071C6.95885 18.4994 8.23296 18.4999 9.99992 18.4999C11.7669 18.4999 13.041 18.4994 14.037 18.4071C15.0224 18.3158 15.6601 18.1395 16.1737 17.8348C16.8578 17.4289 17.4289 16.8578 17.8348 16.1737C18.1395 15.6602 18.3158 15.0223 18.4071 14.037C18.4993 13.041 18.4999 11.7668 18.4999 9.99992C18.4999 8.23302 18.4994 6.95883 18.4071 5.96285C18.3158 4.97764 18.1395 4.33967 17.8348 3.82614C17.4289 3.14218 16.8577 2.57087 16.1737 2.16502C15.6602 1.86038 15.0222 1.68405 14.037 1.59276C13.041 1.50049 11.7669 1.49999 9.99992 1.49999ZM5.93843 6.49995C6.87115 6.50002 7.52674 6.88621 7.94037 7.28119C8.14255 7.47438 8.28606 7.66797 8.37982 7.81537C8.42671 7.88914 8.46296 7.95322 8.48822 8.00189C8.50075 8.0261 8.51076 8.048 8.51849 8.06439C8.52221 8.0723 8.52561 8.08 8.52826 8.08588L8.53411 8.09759V8.09857C8.53337 8.09936 8.5105 8.11062 7.91693 8.36615L8.53509 8.10052C8.69842 8.48082 8.52272 8.92215 8.14252 9.08587C7.78618 9.23903 7.37628 9.0942 7.19135 8.76263L7.1562 8.69232C7.14893 8.67834 7.13492 8.65265 7.1142 8.62005C7.07129 8.55261 7.00168 8.45928 6.90424 8.36615C6.71764 8.18796 6.41885 8 5.93843 7.99994C5.14423 8.00023 4.50032 8.64422 4.49997 9.4384V10.5546C4.50015 11.3552 5.14951 12.0047 5.95015 12.0048H6.34663C6.7604 12.0045 7.09634 11.6686 7.09663 11.2548V10.9638H6.48042C6.06657 10.9635 5.73059 10.6277 5.73043 10.2138C5.7308 9.80008 6.06669 9.4641 6.48042 9.46379H7.34662C8.03648 9.4641 8.59624 10.0239 8.59661 10.7138V11.2548C8.59632 12.497 7.58882 13.5045 6.34663 13.5048H5.95015C4.32109 13.5047 3.00016 12.1836 2.99998 10.5546V9.4384C3.00033 7.81579 4.31581 6.50024 5.93843 6.49995ZM10.4335 6.49995C10.8475 6.50008 11.1834 6.83593 11.1835 7.24994V12.7548C11.1832 13.1687 10.8474 13.5046 10.4335 13.5048C10.0195 13.5047 9.68381 13.1687 9.68352 12.7548V7.24994C9.68365 6.83589 10.0194 6.50002 10.4335 6.49995ZM16.2518 6.49995C16.6659 6.50002 17.0017 6.83589 17.0018 7.24994C17.0017 7.66397 16.6659 7.99987 16.2518 7.99994H13.9862V9.25188H15.7889C16.2029 9.25195 16.5386 9.58799 16.5389 10.0019C16.5388 10.4159 16.203 10.7518 15.7889 10.7519H13.9862V12.7548C13.9859 13.1687 13.6502 13.5047 13.2362 13.5048C12.8223 13.5047 12.4865 13.1687 12.4862 12.7548V7.74994C12.4864 7.05974 13.046 6.50002 13.7362 6.49995H16.2518Z"
    fill="currentColor"
  />
</svg>
