<svg width="20" height="20" viewBox="0 0 20 20" fill="none" xmlns="http://www.w3.org/2000/svg" data-fui-icon="true">
  <path
    d="M14.6504 0C17.6047 0.000210776 19.9997 2.39531 20 5.34961V14.6504C19.9998 17.6048 17.6048 19.9998 14.6504 20H5.34961C2.39525 19.9997 0.000210777 17.6048 0 14.6504V5.34961C0.000342979 2.39535 2.39533 0.000277012 5.34961 0H14.6504ZM5.93848 6.5C4.31584 6.50029 3.00036 7.81585 3 9.43848V10.5547C3.00019 12.1837 4.32113 13.5048 5.9502 13.5049H6.34668C7.58888 13.5046 8.59639 12.4971 8.59668 11.2549V10.7139C8.59631 10.024 8.03655 9.46417 7.34668 9.46387H6.48047C6.06674 9.46417 5.73084 9.80016 5.73047 10.2139C5.73063 10.6278 6.06661 10.9636 6.48047 10.9639H7.09668V11.2549C7.09639 11.6687 6.76045 12.0046 6.34668 12.0049H5.9502C5.14955 12.0048 4.50019 11.3553 4.5 10.5547V9.43848C4.50036 8.64428 5.14426 8.00029 5.93848 8C6.4189 8.00006 6.71769 8.18802 6.9043 8.36621C7.00174 8.45934 7.07134 8.55267 7.11426 8.62012C7.13497 8.65272 7.14898 8.67841 7.15625 8.69238L7.19141 8.7627C7.37634 9.09427 7.78623 9.23911 8.14258 9.08594C8.52278 8.92222 8.69848 8.48089 8.53516 8.10059L7.91699 8.36621C8.51056 8.11068 8.53344 8.09942 8.53418 8.09863V8.09766L8.52832 8.08594C8.52567 8.08006 8.52228 8.07236 8.51855 8.06445C8.51083 8.04806 8.50082 8.02616 8.48828 8.00195C8.46303 7.95328 8.42678 7.8892 8.37988 7.81543C8.28613 7.66803 8.14262 7.47444 7.94043 7.28125C7.5268 6.88626 6.87121 6.50007 5.93848 6.5ZM10.4336 6.5C10.0195 6.50007 9.68373 6.83594 9.68359 7.25V12.7549C9.68388 13.1688 10.0196 13.5048 10.4336 13.5049C10.8475 13.5048 11.1833 13.1688 11.1836 12.7549V7.25C11.1835 6.83598 10.8476 6.50013 10.4336 6.5ZM13.7363 6.5C13.0461 6.50007 12.4865 7.0598 12.4863 7.75V12.7549C12.4866 13.1688 12.8224 13.5048 13.2363 13.5049C13.6503 13.5048 13.986 13.1688 13.9863 12.7549V10.752H15.7891C16.2031 10.7519 16.5389 10.416 16.5391 10.002C16.5387 9.58806 16.203 9.25202 15.7891 9.25195H13.9863V8H16.252C16.666 7.99993 17.0018 7.66403 17.002 7.25C17.0018 6.83594 16.666 6.50007 16.252 6.5H13.7363Z"
    fill="currentColor"
  />
</svg>
