<svg width="16" height="16" viewBox="0 0 16 16" fill="none" xmlns="http://www.w3.org/2000/svg" data-fui-icon="true">
  <path
    d="M11.75 0C14.0972 0 16 1.90279 16 4.25V11.75C16 14.0972 14.0972 16 11.75 16H4.25C1.90279 16 0 14.0972 0 11.75V4.25C1.28853e-07 1.90279 1.90279 0 4.25 0H11.75ZM4.25 1.5C2.73122 1.5 1.5 2.73122 1.5 4.25V11.75C1.5 13.2688 2.73122 14.5 4.25 14.5H11.75C13.2688 14.5 14.5 13.2688 14.5 11.75V4.25C14.5 2.73122 13.2688 1.5 11.75 1.5H4.25ZM4.73828 5.25C5.35645 5.25 5.81618 5.414 6.13867 5.61133C6.29657 5.70797 6.41556 5.80855 6.5 5.89355C6.54209 5.93596 6.57662 5.97482 6.60254 6.00684C6.61537 6.02269 6.62656 6.03733 6.63574 6.0498C6.64029 6.05598 6.64475 6.06215 6.64844 6.06738C6.65018 6.06992 6.65175 6.07291 6.65332 6.0752C6.65399 6.07634 6.65458 6.07808 6.65527 6.0791L6.65723 6.08008V6.08105C6.65452 6.08347 6.61755 6.10952 6.15137 6.42285L6.6582 6.08203C6.88888 6.42572 6.7976 6.89205 6.4541 7.12305C6.13197 7.33935 5.70181 7.27252 5.45898 6.98047L5.43652 6.95117C5.42808 6.94267 5.40192 6.91852 5.35645 6.89062C5.27076 6.83819 5.08148 6.75098 4.73828 6.75098C4.33057 6.75104 4.00006 7.08154 4 7.48926V8.33984C4.00026 8.8401 4.40593 9.24609 4.90625 9.24609C5.08283 9.24607 5.22929 9.12434 5.27148 8.96094C4.96976 8.86412 4.75043 8.58476 4.75 8.25098C4.75 7.83676 5.08579 7.50098 5.5 7.50098H5.59863C6.25374 7.50098 6.78496 8.03146 6.78516 8.68652V8.86719C6.7847 9.90465 5.94382 10.7461 4.90625 10.7461C3.5775 10.7461 2.50026 9.66853 2.5 8.33984V7.48926C2.50006 6.25312 3.50214 5.25006 4.73828 5.25ZM8.29492 5.25C8.70914 5.25 9.04492 5.58676 9.04492 6.00098V9.99609C9.04464 10.4101 8.70896 10.7461 8.29492 10.7461C7.88093 10.746 7.5452 10.41 7.54492 9.99609V6.00098C7.54492 5.5868 7.88076 5.25006 8.29492 5.25ZM12.751 5.25C13.1651 5.25011 13.501 5.58683 13.501 6.00098C13.5007 6.4149 13.1649 6.75087 12.751 6.75098H11.4502V7.24805H12.4365C12.8503 7.24836 13.1863 7.58425 13.1865 7.99805C13.1863 8.41184 12.8503 8.74773 12.4365 8.74805H11.4502V9.99609C11.4499 10.41 11.1141 10.746 10.7002 10.7461C10.2862 10.7461 9.95048 10.4101 9.9502 9.99609V6.50098C9.9502 5.81062 10.5098 5.25 11.2002 5.25H12.751Z"
    fill="currentColor"
  />
</svg>
