<svg width="20" height="20" viewBox="0 0 20 20" fill="none" xmlns="http://www.w3.org/2000/svg" data-fui-icon="true">
  <path
    d="M10 0C11.7387 0 13.0945 -0.000567558 14.1758 0.0996094C15.2676 0.200791 16.1555 0.409913 16.9395 0.875C17.8394 1.409 18.591 2.16066 19.125 3.06055C19.5901 3.84449 19.7992 4.73245 19.9004 5.82422C20.0006 6.90548 20 8.2613 20 10C20 11.7387 20.0006 13.0945 19.9004 14.1758C19.7992 15.2676 19.5901 16.1555 19.125 16.9395C18.591 17.8394 17.8394 18.591 16.9395 19.125C16.1555 19.5902 15.2677 19.7992 14.1758 19.9004C13.0945 20.0006 11.7388 20 10 20C8.26124 20 6.9055 20.0006 5.82422 19.9004C4.7324 19.7992 3.84451 19.5901 3.06055 19.125C2.16064 18.591 1.40901 17.8394 0.875 16.9395C0.409928 16.1555 0.200789 15.2676 0.0996094 14.1758C-0.000557345 13.0945 0 11.7387 0 10C-5.41643e-08 8.2613 -0.000576217 6.90548 0.0996094 5.82422C0.200807 4.73244 0.409863 3.84449 0.875 3.06055C1.40904 2.16061 2.16059 1.40902 3.06055 0.875C3.84452 0.409852 4.73239 0.200802 5.82422 0.0996094C6.9055 -0.000578561 8.26124 -2.71449e-08 10 0ZM10 1.5C8.23302 1.5 6.95891 1.50049 5.96289 1.59277C4.9776 1.68407 4.33972 1.86034 3.82617 2.16504C3.14214 2.57091 2.57093 3.14216 2.16504 3.82617C1.86035 4.3397 1.68408 4.97767 1.59277 5.96289C1.50049 6.95888 1.5 8.23308 1.5 10C1.5 11.7669 1.50051 13.0411 1.59277 14.0371C1.68406 15.0223 1.86041 15.6603 2.16504 16.1738C2.5709 16.8578 3.14219 17.4291 3.82617 17.835C4.33972 18.1397 4.97762 18.3159 5.96289 18.4072C6.95891 18.4995 8.23302 18.5 10 18.5C11.767 18.5 13.0411 18.4995 14.0371 18.4072C15.0225 18.3159 15.6603 18.1397 16.1738 17.835C16.8579 17.4291 17.4291 16.8579 17.835 16.1738C18.1396 15.6603 18.3159 15.0224 18.4072 14.0371C18.4995 13.0411 18.5 11.7669 18.5 10C18.5 8.23308 18.4995 6.95888 18.4072 5.96289C18.3159 4.97768 18.1397 4.3397 17.835 3.82617C17.4291 3.1422 16.8578 2.57089 16.1738 2.16504C15.6603 1.8604 15.0223 1.68406 14.0371 1.59277C13.0411 1.5005 11.767 1.5 10 1.5ZM5.93848 6.5C6.8712 6.50007 7.5268 6.88626 7.94043 7.28125C8.14262 7.47444 8.28613 7.66803 8.37988 7.81543C8.42678 7.8892 8.46303 7.95328 8.48828 8.00195C8.50082 8.02616 8.51083 8.04806 8.51855 8.06445C8.52228 8.07236 8.52567 8.08006 8.52832 8.08594L8.53418 8.09766V8.09863C8.53344 8.09942 8.51056 8.11068 7.91699 8.36621L8.53516 8.10059C8.69848 8.48089 8.52278 8.92222 8.14258 9.08594C7.78623 9.23911 7.37634 9.09427 7.19141 8.7627L7.15625 8.69238C7.14898 8.67841 7.13497 8.65272 7.11426 8.62012C7.07134 8.55267 7.00174 8.45934 6.9043 8.36621C6.71769 8.18802 6.4189 8.00006 5.93848 8C5.14426 8.00029 4.50036 8.64428 4.5 9.43848V10.5547C4.50019 11.3553 5.14955 12.0048 5.9502 12.0049H6.34668C6.76045 12.0046 7.09639 11.6687 7.09668 11.2549V10.9639H6.48047C6.06661 10.9636 5.73063 10.6278 5.73047 10.2139C5.73084 9.80016 6.06674 9.46417 6.48047 9.46387H7.34668C8.03655 9.46417 8.59631 10.024 8.59668 10.7139V11.2549C8.59639 12.4971 7.58888 13.5046 6.34668 13.5049H5.9502C4.32113 13.5048 3.00019 12.1837 3 10.5547V9.43848C3.00036 7.81585 4.31584 6.50029 5.93848 6.5ZM10.4336 6.5C10.8476 6.50013 11.1835 6.83598 11.1836 7.25V12.7549C11.1833 13.1688 10.8475 13.5048 10.4336 13.5049C10.0196 13.5048 9.68388 13.1688 9.68359 12.7549V7.25C9.68373 6.83594 10.0195 6.50007 10.4336 6.5ZM16.252 6.5C16.666 6.50007 17.0018 6.83594 17.002 7.25C17.0018 7.66403 16.666 7.99993 16.252 8H13.9863V9.25195H15.7891C16.203 9.25202 16.5387 9.58806 16.5391 10.002C16.5389 10.416 16.2031 10.7519 15.7891 10.752H13.9863V12.7549C13.986 13.1688 13.6503 13.5048 13.2363 13.5049C12.8224 13.5048 12.4866 13.1688 12.4863 12.7549V7.75C12.4865 7.0598 13.0461 6.50007 13.7363 6.5H16.252Z"
    fill="currentColor"
  />
</svg>
