<svg
  width="12"
  height="12"
  viewBox="0 0 12 12"
  fill="none"
  xmlns="http://www.w3.org/2000/svg"
  data-fui-icon="true"
>
  <path
    d="M6 3.26758V11.25M6 3.25L6.25704 1.96479C6.39831 1.25844 7.01851 0.75 7.73885 0.75H8C8.69036 0.75 9.25 1.30964 9.25 2C9.25 2.69036 8.69036 3.25 8 3.25H6ZM6 3.25L5.74296 1.96479C5.60169 1.25844 4.98149 0.75 4.26115 0.75H4C3.30964 0.75 2.75 1.30964 2.75 2C2.75 2.69036 3.30964 3.25 4 3.25H6ZM1.75 5.75879H10.25V10.1C10.25 10.7351 9.73513 11.25 9.1 11.25H2.9C2.26487 11.25 1.75 10.7351 1.75 10.1V5.75879ZM0.75 5.11879V3.90758C0.75 3.55412 1.03654 3.26758 1.39 3.26758H10.61C10.9635 3.26758 11.25 3.55412 11.25 3.90758V5.11879C11.25 5.47225 10.9635 5.75879 10.61 5.75879H1.39C1.03654 5.75879 0.75 5.47225 0.75 5.11879Z"
    stroke="currentColor"
    stroke-width="1.5"
    stroke-linecap="round"
    stroke-linejoin="round"
  />
</svg>
