<svg width="16" height="16" viewBox="0 0 16 16" fill="none" xmlns="http://www.w3.org/2000/svg" data-fui-icon="true">
  <path
    d="M5.93457 1C6.79227 1 7.56448 1.44883 8 2.14746C8.43552 1.44883 9.20773 1 10.0654 1H10.25C11.4926 1 12.5 2.00736 12.5 3.25C12.5 3.51996 12.4495 3.77774 12.3623 4.01758H13.4902C14.324 4.0177 14.9999 4.69358 15 5.52734V6.99902C14.9999 7.65359 14.5825 8.20861 14 8.41797V12.8799C14 14.0507 13.0507 15 11.8799 15H4.12012C2.94927 15 2 14.0507 2 12.8799V8.41797C1.41749 8.20861 1.0001 7.65359 1 6.99902V5.52734C1.00013 4.69358 1.676 4.0177 2.50977 4.01758H3.6377C3.55052 3.77774 3.5 3.51996 3.5 3.25C3.5 2.00736 4.50736 1 5.75 1H5.93457ZM3.5 12.8799C3.5 13.2223 3.7777 13.5 4.12012 13.5H7.25V8.50879H3.5V12.8799ZM8.75 13.5H11.8799C12.2223 13.5 12.5 13.2223 12.5 12.8799V8.50879H8.75V13.5ZM2.5 5.52344V7.00293L2.50586 7.00879H7.25V5.51758H2.50586L2.5 5.52344ZM8.75 7.00879H13.4941L13.5 7.00293V5.52344L13.4941 5.51758H8.75V7.00879ZM5.75 2.5C5.33579 2.5 5 2.83579 5 3.25C5 3.66421 5.33579 4 5.75 4H7.04004L6.8418 3.20801C6.73778 2.79193 6.36345 2.5 5.93457 2.5H5.75ZM10.0654 2.5C9.63655 2.5 9.26222 2.79193 9.1582 3.20801L8.95996 4H10.25C10.6642 4 11 3.66421 11 3.25C11 2.83579 10.6642 2.5 10.25 2.5H10.0654Z"
    fill="currentColor"
  />
</svg>
