<svg width="12" height="12" viewBox="0 0 12 12" fill="none" xmlns="http://www.w3.org/2000/svg" data-fui-icon="true">
  <path
    d="M4.26074 0C4.95247 0 5.58151 0.314493 6 0.818359C6.41849 0.314493 7.04753 0 7.73926 0H8C9.10457 0 10 0.895431 10 2C10 2.17923 9.97391 2.35229 9.92969 2.51758H10.6104C11.3777 2.51777 11.9998 3.13983 12 3.90723V5.11914C11.9998 5.75115 11.5776 6.2835 11 6.45215V10.0996C11 11.1489 10.149 12 9.09961 12H2.90039C1.85105 12 1 11.149 1 10.0996V6.45215C0.422437 6.2835 0.000156367 5.75115 0 5.11914V3.90723C0.000189991 3.13983 0.622251 2.51777 1.38965 2.51758H2.07031C2.02609 2.35229 2 2.17923 2 2C2 0.895431 2.89543 0 4 0H4.26074ZM2.5 10.0996C2.5 10.3205 2.67948 10.5 2.90039 10.5H5.25V6.50879H2.5V10.0996ZM6.75 10.5H9.09961C9.32052 10.5 9.5 10.3205 9.5 10.0996V6.50879H6.75V10.5ZM1.5 5.00879H5.25V4.01758H1.5V5.00879ZM6.75 5.00879H10.5V4.01758H6.75V5.00879ZM4 1.5C3.72386 1.5 3.5 1.72386 3.5 2C3.5 2.27614 3.72386 2.5 4 2.5H5.08496L5.00781 2.1123C4.93666 1.75652 4.62357 1.5 4.26074 1.5H4ZM7.73926 1.5C7.37643 1.5 7.06334 1.75652 6.99219 2.1123L6.91504 2.5H8C8.27614 2.5 8.5 2.27614 8.5 2C8.5 1.72386 8.27614 1.5 8 1.5H7.73926Z"
    fill="currentColor"
  />
</svg>
