<svg width="24" height="24" viewBox="0 0 24 24" fill="none" xmlns="http://www.w3.org/2000/svg" data-fui-icon="true">
  <path
    d="M8.63477 1C10.134 1 11.4517 1.91624 12 3.26367C12.5483 1.91624 13.866 1 15.3652 1H15.75C17.5449 1 19 2.45507 19 4.25C19 4.90204 18.8071 5.50869 18.4766 6.01758H21C22.1046 6.01758 23 6.91301 23 8.01758V10.0088C23 11.1134 22.1046 12.0088 21 12.0088V20C21 21.6569 19.6569 23 18 23H6C4.34315 23 3 21.6569 3 20V12.0088C1.89543 12.0088 1 11.1134 1 10.0088V8.01758C1 6.91301 1.89543 6.01758 3 6.01758H5.52344C5.19286 5.50869 5 4.90204 5 4.25C5 2.45507 6.45507 1 8.25 1H8.63477ZM4.5 20C4.5 20.8284 5.17157 21.5 6 21.5H11.25V12.0088H4.5V20ZM12.75 21.5H18C18.8284 21.5 19.5 20.8284 19.5 20V12.0088H12.75V21.5ZM3 7.51758C2.72386 7.51758 2.5 7.74144 2.5 8.01758V10.0088C2.5 10.2849 2.72386 10.5088 3 10.5088H11.25V7.51758H3ZM12.75 10.5088H21C21.2761 10.5088 21.5 10.2849 21.5 10.0088V8.01758C21.5 7.74144 21.2761 7.51758 21 7.51758H12.75V10.5088ZM8.25 2.5C7.2835 2.5 6.5 3.2835 6.5 4.25C6.5 5.2165 7.2835 6 8.25 6H11.085L10.7285 4.21582C10.5288 3.2181 9.65232 2.5 8.63477 2.5H8.25ZM15.3652 2.5C14.3477 2.5 13.4712 3.2181 13.2715 4.21582L12.915 6H15.75C16.7165 6 17.5 5.2165 17.5 4.25C17.5 3.2835 16.7165 2.5 15.75 2.5H15.3652Z"
    fill="currentColor"
  />
</svg>
