<svg width="20" height="20" viewBox="0 0 20 20" fill="none" xmlns="http://www.w3.org/2000/svg" data-fui-icon="true">
  <path
    d="M10 0C10.1538 0 10.3068 0.0038689 10.459 0.0107422C10.5207 0.01353 10.5821 0.0185595 10.6436 0.0224609C10.7445 0.0288762 10.8452 0.035531 10.9453 0.0449219C10.9979 0.04985 11.0502 0.055785 11.1025 0.0615234C11.2102 0.0733324 11.3172 0.08734 11.4238 0.102539C11.4747 0.109788 11.5256 0.116013 11.5762 0.124023C11.6971 0.143166 11.8171 0.165042 11.9365 0.188477C11.9671 0.194481 11.9978 0.199772 12.0283 0.206055C12.1751 0.236286 12.3205 0.270057 12.4648 0.306641C12.5185 0.320239 12.5717 0.335148 12.625 0.349609C12.715 0.374024 12.8046 0.398937 12.8936 0.425781C12.9571 0.444962 13.02 0.465924 13.083 0.486328C13.1635 0.512406 13.2436 0.539332 13.3232 0.567383C13.3866 0.589718 13.4499 0.612172 13.5127 0.635742C13.6181 0.675296 13.7225 0.716791 13.8262 0.759766C13.8518 0.770395 13.8778 0.78018 13.9033 0.791016C14.182 0.90927 14.4537 1.04049 14.7188 1.18262C14.7663 1.20811 14.8133 1.23451 14.8604 1.26074C14.94 1.30515 15.0193 1.34998 15.0977 1.39648C15.1448 1.42446 15.1917 1.45272 15.2383 1.48145C15.3389 1.54342 15.438 1.60746 15.5361 1.67285C15.5612 1.68952 15.5865 1.70576 15.6113 1.72266C15.7246 1.7996 15.8364 1.87855 15.9463 1.95996C15.9711 1.97837 15.9958 1.99699 16.0205 2.01562C16.1199 2.0907 16.218 2.16744 16.3145 2.24609C16.3657 2.28785 16.4155 2.33128 16.4658 2.37402C16.5295 2.4281 16.5929 2.48246 16.6553 2.53809C16.6993 2.57738 16.7428 2.61717 16.7861 2.65723C16.8517 2.71789 16.9165 2.77941 16.9805 2.8418C17.0266 2.8868 17.0729 2.93165 17.1182 2.97754C17.3184 3.18049 17.51 3.39193 17.6924 3.61133C17.7214 3.6462 17.7498 3.68153 17.7783 3.7168C17.841 3.7943 17.9025 3.87276 17.9629 3.95215C18.0006 4.00179 18.0374 4.05218 18.0742 4.10254C18.1299 4.17863 18.1847 4.25531 18.2383 4.33301C18.2654 4.37233 18.2928 4.41144 18.3193 4.45117C18.3793 4.54084 18.4371 4.63195 18.4941 4.72363C18.5181 4.76212 18.543 4.80004 18.5664 4.83887C18.6424 4.96469 18.7156 5.09232 18.7861 5.22168C18.7921 5.23267 18.7978 5.24386 18.8037 5.25488C18.8694 5.37643 18.9325 5.49951 18.9932 5.62402C19.0085 5.65543 19.0231 5.68716 19.0381 5.71875C19.0813 5.80974 19.1226 5.90166 19.1631 5.99414C19.1897 6.05503 19.2157 6.11622 19.2412 6.17773C19.2782 6.267 19.3142 6.35672 19.3486 6.44727C19.3667 6.49481 19.386 6.54195 19.4033 6.58984C19.4087 6.60456 19.4147 6.61904 19.4199 6.63379L19.5508 7.02637C19.6116 7.22189 19.664 7.42063 19.7129 7.62109C19.7334 7.70503 19.7531 7.78928 19.7715 7.87402C19.7839 7.93149 19.7962 7.98905 19.8076 8.04688C19.8325 8.1724 19.8558 8.29862 19.876 8.42578C19.8828 8.46894 19.8883 8.51233 19.8945 8.55566C19.9121 8.67641 19.9273 8.79782 19.9404 8.91992C19.943 8.94339 19.9469 8.96672 19.9492 8.99023C19.964 9.13742 19.975 9.28557 19.9834 9.43457C19.9851 9.46481 19.9869 9.49508 19.9883 9.52539C19.9957 9.68268 20 9.84089 20 10C20 15.5228 15.5228 20 10 20C4.47715 20 0 15.5228 0 10C0 4.47715 4.47715 0 10 0ZM10 1.5C7.19541 1.5 4.70829 2.85848 3.16016 4.95312C3.15268 5.01126 3.14461 5.06977 3.13867 5.12891C3.05434 5.96866 3.1245 6.98952 3.69727 7.87598C3.78764 8.01588 3.87876 8.19461 3.99316 8.42578C4.09993 8.64153 4.22823 8.90402 4.37305 9.14453C4.63744 9.58353 5.13194 10.2499 6 10.25C6.1706 10.25 6.36334 10.299 6.55273 10.3877C6.74269 10.4768 6.89547 10.5901 6.98438 10.6777C7.03419 10.7268 7.08378 10.7797 7.12695 10.833C7.1682 10.8839 7.1977 10.929 7.21777 10.9648L7.0625 11.3486C6.92389 11.6904 6.91307 12.0706 7.03125 12.4199L7.35059 13.3662C7.5331 13.9054 7.89137 14.3681 8.36719 14.6807L8.57422 14.8174C8.59135 14.8287 8.60594 14.844 8.61523 14.8623L8.72852 15.0859C8.84265 15.3108 9.02788 15.4867 9.25 15.5928V15.8408C9.25 15.8655 9.24609 15.8906 9.23828 15.9141L8.7959 17.2412C8.78084 17.2864 8.76934 17.333 8.76172 17.3799L8.75 17.5225L8.75977 17.6562C8.85411 18.3045 9.62521 18.6454 10.1738 18.2314L10.543 17.9531C10.5917 17.9163 10.6376 17.8753 10.6797 17.8311L11.2549 17.2266L11.8281 16.6768C11.9625 16.5478 12.123 16.449 12.2988 16.3877C12.7594 16.2271 13.1705 15.9485 13.4902 15.5801L13.5488 15.5117L14.0303 15.0303L14.0469 15.0146L14.0615 14.9971L14.3242 14.7002C15.2814 13.6199 15.1503 11.9611 14.0352 11.0449L13.8916 10.9268C13.8344 10.8798 13.7913 10.8171 13.7676 10.7471C13.5601 10.1338 13.0534 9.6686 12.4248 9.51367L12.1016 9.43457C11.9912 9.40738 11.8861 9.36118 11.791 9.29883L11.707 9.24414C11.1928 8.90633 10.5454 8.72112 9.86816 8.8623C9.72415 8.89235 9.57919 8.92493 9.45117 8.9541C9.19978 9.01137 8.98458 9.0358 8.79199 9.01953C8.43669 8.98945 8.05163 8.92241 7.83203 8.81445C7.43767 8.62015 6.86622 8.21176 6.58691 8.00391C6.55372 7.9792 6.52078 7.94644 6.48926 7.90527L6.29102 7.64648C6.26726 7.61523 6.26463 7.57215 6.28418 7.53809C6.29829 7.51375 6.32297 7.49666 6.35059 7.49121L7.41797 7.28027C7.45276 7.27345 7.48927 7.27472 7.52344 7.28418C8.11096 7.44674 8.74072 7.28817 9.18066 6.86621L9.46777 6.59082C9.49576 6.56395 9.52173 6.53428 9.54688 6.50488L10.1113 6.66797C10.9732 7.47625 12.3975 6.86861 12.3975 5.6748V5.27832C12.3975 5.26769 12.4041 5.25841 12.4141 5.25488L12.8008 5.12793L12.8506 5.11133L12.8975 5.08789L13.0254 5.02441C13.0694 5.00277 13.1046 4.99001 13.1426 4.97656C13.1631 4.96932 13.2644 4.93559 13.3467 4.89746C13.4579 4.84591 13.5694 4.77443 13.6758 4.66797C13.7721 4.57154 13.847 4.46408 13.9092 4.36133C14.2342 3.82416 14.3052 3.19291 14.2109 2.61719C12.9693 1.90748 11.5326 1.5 10 1.5ZM16.2871 4.28027C15.9324 4.43629 15.621 4.71254 15.4209 5.10156C15.3067 5.32362 15.2403 5.55062 15.2637 5.81641C15.2725 5.91699 15.2935 6.0088 15.3037 6.05469C15.3161 6.11017 15.3252 6.14867 15.333 6.19727L15.502 7.25098L15.5029 7.25684L15.709 8.47266C15.7914 8.96007 15.966 9.42775 16.2236 9.84961L16.5068 10.3125C16.8321 10.8448 17.3457 11.236 17.9453 11.4082L18.1074 11.4551C18.1914 11.4792 18.2781 11.4905 18.3652 11.4971C18.4517 11.0109 18.5 10.511 18.5 10C18.5 7.79714 17.6617 5.79032 16.2871 4.28027Z"
    fill="currentColor"
  />
</svg>
