<svg
  width="16"
  height="16"
  viewBox="0 0 16 16"
  fill="none"
  xmlns="http://www.w3.org/2000/svg"
  data-fui-icon="true"
>
  <g clip-path="url(#clip0_1679_665)">
    <path
      d="M2.80005 1.25C1.83355 1.25 1.05005 2.0335 1.05005 3V13C1.05005 13.9665 1.83355 14.75 2.80005 14.75H13.2001C14.1666 14.75 14.9501 13.9665 14.9501 13V3C14.9501 2.0335 14.1666 1.25 13.2001 1.25H2.80005Z"
      stroke="currentColor"
      stroke-width="1.5"
    />
    <path
      fill-rule="evenodd"
      clip-rule="evenodd"
      d="M4.83699 7.25C5.01368 6.50199 5.44884 5.85385 6.043 5.40505C6.033 5.44208 6.02349 5.47872 6.01446 5.51488C5.88931 6.01547 5.80698 6.61252 5.7709 7.25H4.83699ZM3.25003 8.00632C3.25344 10.6268 5.37878 12.75 8.00002 12.75C10.6234 12.75 12.75 10.6234 12.75 8C12.75 5.37665 10.6234 3.25 8.00002 3.25C5.37878 3.25 3.25344 5.37323 3.25003 7.99368C3.25001 7.99579 3.25 7.99789 3.25 8C3.25 8.00211 3.25001 8.00421 3.25003 8.00632ZM4.83699 8.75H5.7709C5.80698 9.38748 5.88931 9.98453 6.01446 10.4851C6.02349 10.5213 6.033 10.5579 6.043 10.5949C5.44884 10.1462 5.01368 9.49801 4.83699 8.75ZM7.27363 8.75C7.29478 9.07869 7.3295 9.38558 7.37527 9.66054C7.50968 10.468 7.73931 11 8 11C8.26069 11 8.49032 10.468 8.62473 9.66054C8.6705 9.38558 8.70522 9.07869 8.72637 8.75L7.27363 8.75ZM10.2291 8.75C10.193 9.38748 10.1107 9.98453 9.98554 10.4851C9.9765 10.5213 9.967 10.5579 9.95699 10.595C10.5512 10.1462 10.9864 9.49803 11.1631 8.75H10.2291ZM11.1631 7.25H10.2291C10.193 6.61252 10.1107 6.01547 9.98554 5.51488C9.9765 5.47871 9.967 5.44205 9.95699 5.40501C10.5512 5.85381 10.9864 6.50197 11.1631 7.25ZM8.72637 7.25L7.27363 7.25C7.29478 6.92131 7.3295 6.61442 7.37527 6.33946C7.50968 5.53204 7.73931 5 8 5C8.26069 5 8.49032 5.53204 8.62473 6.33946C8.6705 6.61442 8.70522 6.92131 8.72637 7.25Z"
      fill="currentColor"
    />
  </g>
  <defs>
    <clipPath id="clip0_1679_665">
      <path fill="currentColor" d="M0 0H16V16H0z" />
    </clipPath>
  </defs>
</svg>
