<svg width="16" height="16" viewBox="0 0 16 16" fill="none" xmlns="http://www.w3.org/2000/svg" data-fui-icon="true">
  <path
    d="M10.5 1C12.9853 1 15 3.01472 15 5.5V10.5C15 12.9853 12.9853 15 10.5 15H5.5C3.01472 15 1 12.9853 1 10.5V5.5C1 3.01472 3.01472 1 5.5 1H10.5ZM5.5 3C4.11929 3 3 4.11929 3 5.5V10.5C3 11.8807 4.11929 13 5.5 13H10.5C11.8807 13 13 11.8807 13 10.5V5.5C13 4.11929 11.8807 3 10.5 3H5.5ZM8 3.5C10.4853 3.5 12.5 5.51472 12.5 8C12.5 10.4853 10.4853 12.5 8 12.5C5.51472 12.5 3.5 10.4853 3.5 8C3.5 5.51472 5.51472 3.5 8 3.5ZM7.52734 8.75C7.57547 9.41162 7.68442 9.98569 7.82715 10.4141C7.88516 10.5881 7.94604 10.7234 8 10.8252C8.05396 10.7234 8.11484 10.5881 8.17285 10.4141C8.31558 9.98569 8.42453 9.41162 8.47266 8.75H7.52734ZM5.09766 8.75C5.27815 9.45049 5.70362 10.0509 6.2793 10.4551C6.15106 9.95001 6.06353 9.36983 6.02441 8.75H5.09766ZM9.97559 8.75C9.93646 9.36993 9.848 9.94996 9.71973 10.4551C10.2957 10.0508 10.7218 9.45076 10.9023 8.75H9.97559ZM6.2793 5.54395C5.70339 5.94817 5.27819 6.54932 5.09766 7.25H6.02441C6.06356 6.62979 6.15093 6.04922 6.2793 5.54395ZM8 5.17383C7.94593 5.27569 7.88531 5.41146 7.82715 5.58594C7.68442 6.01431 7.57547 6.58838 7.52734 7.25H8.47266C8.42453 6.58838 8.31557 6.01431 8.17285 5.58594C8.11469 5.41146 8.05407 5.27569 8 5.17383ZM9.71973 5.54395C9.84812 6.04928 9.93643 6.6297 9.97559 7.25H10.9023C10.7217 6.54906 10.296 5.94818 9.71973 5.54395Z"
    fill="currentColor"
  />
</svg>
