<svg width="32" height="32" viewBox="0 0 32 32" fill="none" xmlns="http://www.w3.org/2000/svg" data-fui-icon="true">
  <path
    d="M22.5 1C27.1944 1 31 4.80558 31 9.5V22.5C31 27.1944 27.1944 31 22.5 31H9.5C4.80558 31 1 27.1944 1 22.5V9.5C1 4.80558 4.80558 1 9.5 1H22.5ZM16 4.25C9.51065 4.25 4.25 9.51065 4.25 16C4.25 22.4893 9.51065 27.75 16 27.75C22.4893 27.75 27.75 22.4893 27.75 16C27.75 9.51065 22.4893 4.25 16 4.25ZM19.6934 17C19.5898 19.454 19.1109 21.6203 18.418 23.2002C18.0246 24.097 17.5824 24.7604 17.1416 25.1855C16.7056 25.606 16.321 25.75 16 25.75C15.6791 25.75 15.2952 25.6058 14.8594 25.1855C14.4186 24.7604 13.9755 24.0971 13.582 23.2002C12.8891 21.6203 12.4102 19.454 12.3066 17H19.6934ZM10.3057 17C10.41 19.6842 10.9301 22.1334 11.75 24.0029C11.9034 24.3526 12.0713 24.686 12.25 25.001C9.02019 23.6538 6.66966 20.6207 6.30078 17H10.3057ZM25.6992 17C25.3303 20.621 22.9793 23.654 19.749 25.001C19.9278 24.6858 20.0966 24.3528 20.25 24.0029C21.0699 22.1334 21.59 19.6842 21.6943 17H25.6992ZM12.25 6.99805C12.0711 7.31328 11.9035 7.64712 11.75 7.99707C10.9301 9.86658 10.41 12.3158 10.3057 15H6.30078C6.66967 11.3792 9.02001 8.34514 12.25 6.99805ZM16 6.25C16.321 6.25 16.7056 6.39398 17.1416 6.81445C17.5824 7.23956 18.0246 7.90301 18.418 8.7998C19.1109 10.3797 19.5898 12.546 19.6934 15H12.3066C12.4102 12.546 12.8891 10.3797 13.582 8.7998C13.9755 7.90289 14.4186 7.23956 14.8594 6.81445C15.2952 6.39422 15.6791 6.25003 16 6.25ZM19.749 6.99805C22.9794 8.34496 25.3303 11.3789 25.6992 15H21.6943C21.59 12.3158 21.0699 9.86658 20.25 7.99707C20.0964 7.64696 19.928 7.31341 19.749 6.99805Z"
    fill="currentColor"
  />
</svg>
