<svg width="24" height="24" viewBox="0 0 24 24" fill="none" xmlns="http://www.w3.org/2000/svg" data-fui-icon="true">
  <g clip-path="url(#clip0_882_1354)">
    <path
      d="M12.001 0C18.6277 0.000510784 24 5.37315 24 12C23.9995 18.6266 18.6266 23.9978 12 23.998V23.999L11.999 23.998C5.37285 23.9973 0.00148721 18.6262 0.000976562 12C0.000976562 5.37332 5.37253 0.000791693 11.999 0H12.001ZM8.4873 16.5C8.71194 17.6956 9.02159 18.7675 9.39453 19.667C9.79413 20.6306 10.2519 21.3616 10.7207 21.8398C11.1866 22.3149 11.618 22.4978 11.999 22.498C12.3804 22.498 12.8138 22.3157 13.2803 21.8398C13.7491 21.3616 14.2059 20.6306 14.6055 19.667C14.9784 18.7675 15.2869 17.6956 15.5117 16.5H8.4873ZM2.5127 16.5C3.77392 19.1536 6.1153 21.1924 8.96875 22.0518C8.60894 21.5262 8.28892 20.9144 8.00977 20.2412C7.56386 19.1658 7.2076 17.8973 6.96289 16.5H2.5127ZM17.0371 16.5C16.7924 17.8973 16.4371 19.1658 15.9912 20.2412C15.712 20.9147 15.3903 21.526 15.0303 22.0518C17.8842 21.1927 20.226 19.1539 21.4873 16.5H17.0371ZM17.251 9C17.3576 9.96031 17.415 10.9663 17.415 12C17.415 13.0339 17.3577 14.0396 17.251 15H22.0615C22.3447 14.0492 22.4999 13.0428 22.5 12C22.5 10.9575 22.3454 9.95062 22.0625 9H17.251ZM8.25977 9C8.14776 9.9491 8.08594 10.9556 8.08594 12C8.08597 13.0446 8.14767 14.0508 8.25977 15H15.7402C15.8525 14.0508 15.915 13.0446 15.915 12C15.915 10.9556 15.8524 9.94909 15.7402 9H8.25977ZM1.9375 9C1.65454 9.95061 1.50098 10.9575 1.50098 12C1.50107 13.0428 1.65529 14.0492 1.93848 15H6.74902C6.64229 14.0396 6.58597 13.0339 6.58594 12C6.58594 10.9663 6.64237 9.96031 6.74902 9H1.9375ZM8.96875 1.94531C6.11459 2.80485 3.7728 4.84545 2.51172 7.5H6.96289C7.20759 6.102 7.56372 4.83362 8.00977 3.75781C8.2891 3.08412 8.60865 2.47117 8.96875 1.94531ZM11.999 1.5C11.6179 1.50028 11.1867 1.68382 10.7207 2.15918C10.2518 2.63753 9.79418 3.36816 9.39453 4.33203C9.02145 5.23187 8.71194 6.30372 8.4873 7.5H15.5117C15.2869 6.30391 14.9785 5.23178 14.6055 4.33203C14.206 3.36862 13.749 2.6375 13.2803 2.15918C12.814 1.68358 12.3813 1.50016 12 1.5H11.999ZM15.0303 1.94531C15.3905 2.47128 15.7118 3.08396 15.9912 3.75781C16.4372 4.83354 16.7924 6.10215 17.0371 7.5H21.4873C20.2261 4.84524 17.8848 2.80457 15.0303 1.94531Z"
      fill="currentColor"
    />
  </g>
  <defs>
    <clipPath id="clip0_882_1354"><path fill="currentColor" d="M0 0H24V24H0z" /></clipPath>
  </defs>
</svg>
