<svg
  width="32"
  height="32"
  viewBox="0 0 32 32"
  fill="none"
  xmlns="http://www.w3.org/2000/svg"
  data-fui-icon="true"
>
  <path
    d="M16 2.5C23.7109 2.5 30 8.78906 30 16.5C30 24.2656 23.7109 30.5 16 30.5C8.23438 30.5 2 24.2656 2 16.5C2 8.78906 8.23438 2.5 16 2.5ZM16 27.875C16.3828 27.875 17.4219 27.4922 18.5703 25.25C19.0625 24.2656 19.4453 23.1172 19.7734 21.75H12.1719C12.5 23.1172 12.8828 24.2656 13.375 25.25C14.5234 27.4922 15.5625 27.875 16 27.875ZM11.7344 19.125H20.2109C20.3203 18.3047 20.375 17.4297 20.375 16.5C20.375 15.625 20.3203 14.75 20.2109 13.875H11.7344C11.625 14.75 11.625 15.625 11.625 16.5C11.625 17.4297 11.625 18.3047 11.7344 19.125ZM19.7734 11.25C19.4453 9.9375 19.0625 8.78906 18.5703 7.80469C17.4219 5.5625 16.3828 5.125 16 5.125C15.5625 5.125 14.5234 5.5625 13.375 7.80469C12.8828 8.78906 12.5 9.9375 12.1719 11.25H19.7734ZM22.8359 13.875C22.9453 14.75 23 15.625 23 16.5C23 17.4297 22.9453 18.3047 22.8359 19.125H27.0469C27.2656 18.3047 27.375 17.4297 27.375 16.5C27.375 15.625 27.2656 14.75 27.0469 13.875H22.8359ZM20.7031 6.16406C21.4688 7.58594 22.0703 9.33594 22.4531 11.25H26.0625C24.9141 9.00781 23 7.20312 20.7031 6.16406ZM11.2422 6.16406C8.94531 7.20312 7.03125 9.00781 5.88281 11.25H9.49219C9.875 9.33594 10.4766 7.58594 11.2422 6.16406ZM4.625 16.5C4.625 17.4297 4.67969 18.3047 4.89844 19.125H9.10938C9 18.3047 9 17.4297 9 16.5C9 15.625 9 14.75 9.10938 13.875H4.89844C4.67969 14.75 4.625 15.625 4.625 16.5ZM26.0625 21.75H22.4531C22.0703 23.7188 21.4688 25.4688 20.7031 26.8906C23 25.8516 24.9141 24.0469 26.0625 21.75ZM9.49219 21.75H5.88281C7.03125 24.0469 8.94531 25.8516 11.2422 26.8906C10.4766 25.4688 9.875 23.7188 9.49219 21.75Z"
    fill="currentColor"
  />
</svg>
