<svg width="12" height="12" viewBox="0 0 12 12" fill="none" xmlns="http://www.w3.org/2000/svg" data-fui-icon="true">
  <path
    d="M6 0C9.31371 0 12 2.68629 12 6C12 9.31371 9.31371 12 6 12C2.68629 12 0 9.31371 0 6C0 2.68629 2.68629 0 6 0ZM5.28613 7C5.35038 7.88167 5.49671 8.64349 5.69141 9.20996C5.79788 9.51967 5.90771 9.73511 6 9.87305C6.09229 9.73511 6.20212 9.51967 6.30859 9.20996C6.50329 8.64349 6.64962 7.88167 6.71387 7H5.28613ZM2.12598 7C2.35654 7.89581 2.89015 8.66951 3.61035 9.20703C3.44476 8.54749 3.33251 7.79758 3.28223 7H2.12598ZM8.71777 7C8.66749 7.79768 8.55429 8.54743 8.38867 9.20703C9.10919 8.6695 9.64339 7.89607 9.87402 7H8.71777ZM8.38867 2.79199C8.55442 3.45181 8.66746 4.20195 8.71777 5H9.87402C9.64334 4.10373 9.10943 3.32954 8.38867 2.79199ZM6 2.12598C5.90762 2.26388 5.79805 2.47983 5.69141 2.79004C5.49671 3.35651 5.35038 4.11833 5.28613 5H6.71387C6.64962 4.11833 6.50329 3.35651 6.30859 2.79004C6.20195 2.47983 6.09238 2.26388 6 2.12598ZM3.61035 2.79199C2.88991 3.32952 2.35659 4.104 2.12598 5H3.28223C3.33253 4.20205 3.44463 3.45176 3.61035 2.79199Z"
    fill="currentColor"
  />
</svg>
