<svg width="12" height="12" viewBox="0 0 12 12" fill="none" xmlns="http://www.w3.org/2000/svg" data-fui-icon="true">
  <path
    d="M6 0C8.28034 0 10.2628 1.27261 11.2773 3.14258C11.4746 3.50653 11.3394 3.96166 10.9756 4.15918C10.6115 4.35671 10.1555 4.2215 9.95801 3.85742C9.56682 3.13655 8.98456 2.53607 8.28027 2.12109C8.48073 2.64706 8.6333 3.24427 8.73633 3.87988C8.74879 3.95674 8.74583 4.03224 8.73535 4.10547C8.74448 4.15223 8.75 4.20057 8.75 4.25C8.7499 4.66413 8.41415 5 8 5H4.63965C4.61407 5.32063 4.59961 5.65499 4.59961 6C4.59961 7.38248 4.8173 8.59477 5.1543 9.43262C5.32334 9.85283 5.50778 10.1416 5.67578 10.3135C5.83799 10.4792 5.94638 10.4999 6 10.5C6.36221 10.5002 6.6653 10.7571 6.73535 11.0986C6.74535 11.1475 6.75 11.1982 6.75 11.25C6.75 11.3018 6.74535 11.3525 6.73535 11.4014C6.6653 11.7429 6.36221 11.9998 6 12C2.68629 12 0 9.31371 0 6C0 2.68629 2.68629 0 6 0ZM9.25 5.5C10.777 5.5 11.9998 6.75007 12 8.27344C12 9.36397 11.3331 10.2893 10.8027 10.8672C10.5233 11.1717 10.2456 11.4177 10.0391 11.5879C9.93532 11.6734 9.84806 11.741 9.78516 11.7881C9.75366 11.8116 9.72839 11.8305 9.70996 11.8438C9.70076 11.8504 9.69309 11.8554 9.6875 11.8594C9.68475 11.8613 9.68249 11.863 9.68066 11.8643C9.67974 11.8649 9.67841 11.8657 9.67773 11.8662H9.67676V11.8672C9.45229 12.0223 9.16421 12.0411 8.92383 11.9248L8.82324 11.8672L8.82227 11.8662C8.82159 11.8657 8.82026 11.8649 8.81934 11.8643C8.81751 11.863 8.81525 11.8613 8.8125 11.8594C8.80691 11.8554 8.79924 11.8504 8.79004 11.8438C8.77161 11.8305 8.74634 11.8116 8.71484 11.7881C8.65194 11.741 8.56468 11.6734 8.46094 11.5879C8.25444 11.4177 7.97671 11.1717 7.69727 10.8672C7.16692 10.2893 6.5 9.36397 6.5 8.27344C6.5002 6.75007 7.723 5.5 9.25 5.5ZM9.25 7C8.56811 7 8.0002 7.56172 8 8.27344C8 8.77681 8.33308 9.34079 8.80273 9.85254C8.95647 10.02 9.11321 10.1652 9.25 10.2861C9.38679 10.1652 9.54353 10.02 9.69727 9.85254C10.1669 9.34079 10.5 8.77681 10.5 8.27344C10.4998 7.56172 9.93189 7 9.25 7ZM2.25879 8.5C2.63571 9.06294 3.13629 9.53539 3.72168 9.87988C3.56361 9.46513 3.43428 9.00079 3.33496 8.5H2.25879ZM1.61328 5C1.54025 5.32173 1.5 5.65617 1.5 6C1.5 6.34383 1.54025 6.67827 1.61328 7H3.13672C3.11359 6.67367 3.09961 6.3395 3.09961 6C3.09961 5.6605 3.11359 5.32633 3.13672 5H1.61328ZM3.72168 2.11914C3.13611 2.46365 2.63581 2.93692 2.25879 3.5H3.33496C3.43435 2.99887 3.56346 2.5341 3.72168 2.11914ZM6 1.5C5.94638 1.5001 5.83799 1.52077 5.67578 1.68652C5.50778 1.85838 5.32334 2.14717 5.1543 2.56738C5.04442 2.84056 4.95023 3.1543 4.86914 3.5H7.13281C6.98989 2.89047 6.80023 2.39612 6.58984 2.04395C6.29867 1.55677 6.07518 1.50019 6 1.5Z"
    fill="currentColor"
  />
</svg>
