<svg width="24" height="24" viewBox="0 0 24 24" fill="none" xmlns="http://www.w3.org/2000/svg" data-fui-icon="true">
  <path
    d="M16.25 1C19.9779 1 23 4.02208 23 7.75V16.25C23 19.9779 19.9779 23 16.25 23H7.75C4.02208 23 1 19.9779 1 16.25V7.75C1 4.02208 4.02208 1 7.75 1H16.25ZM7.75 3C5.12665 3 3 5.12665 3 7.75V16.25C3 18.8734 5.12665 21 7.75 21H16.25C18.8734 21 21 18.8734 21 16.25V7.75C21 5.12665 18.8734 3 16.25 3H7.75ZM12 4C16.4183 4 20 7.58172 20 12C20 16.4183 16.4183 20 12 20C7.58172 20 4 16.4183 4 12C4 7.58172 7.58172 4 12 4ZM10.0361 13C10.1287 14.4142 10.4092 15.6488 10.7979 16.5557C11.0375 17.1149 11.2977 17.5039 11.5352 17.7383C11.7681 17.9681 11.924 18 12 18C12.076 18 12.2318 17.9681 12.4648 17.7383C12.7023 17.5039 12.9625 17.1149 13.2021 16.5557C13.5908 15.6488 13.8713 14.4142 13.9639 13H10.0361ZM6.08496 13C6.37726 14.7417 7.41797 16.2292 8.86719 17.1182C8.41289 15.9713 8.11861 14.5466 8.0293 13H6.08496ZM15.9707 13C15.8814 14.5467 15.5862 15.9712 15.1318 17.1182C16.5814 16.2293 17.6227 14.742 17.915 13H15.9707ZM8.86719 6.88086C7.41774 7.76979 6.37729 9.25815 6.08496 11H8.0293C8.11863 9.45303 8.4127 8.02787 8.86719 6.88086ZM12 6C11.924 6.00001 11.7681 6.03188 11.5352 6.26172C11.2977 6.49608 11.0375 6.88507 10.7979 7.44434C10.4092 8.3512 10.1287 9.58577 10.0361 11H13.9639C13.8713 9.58576 13.5908 8.3512 13.2021 7.44434C12.9625 6.88507 12.7023 6.49608 12.4648 6.26172C12.2318 6.03187 12.076 6 12 6ZM15.1318 6.88086C15.5864 8.02793 15.8814 9.45288 15.9707 11H17.915C17.6227 9.25786 16.5817 7.76974 15.1318 6.88086Z"
    fill="currentColor"
  />
</svg>
