<svg
  width="12"
  height="12"
  viewBox="0 0 12 12"
  fill="none"
  xmlns="http://www.w3.org/2000/svg"
  data-fui-icon="true"
>
  <path
    fill-rule="evenodd"
    clip-rule="evenodd"
    d="M6 1.5C3.51472 1.5 1.5 3.51472 1.5 6C1.5 8.48528 3.51472 10.5 6 10.5C8.48528 10.5 10.5 8.48528 10.5 6C10.5 3.51472 8.48528 1.5 6 1.5ZM0 6C0 2.68629 2.68629 0 6 0C9.31371 0 12 2.68629 12 6C12 9.31371 9.31371 12 6 12C2.68629 12 0 9.31371 0 6Z"
    fill="currentColor"
  />
  <path
    fill-rule="evenodd"
    clip-rule="evenodd"
    d="M5.47408 2.52486C5.18912 3.37973 5 4.60843 5 6C5 7.39157 5.18912 8.62027 5.47408 9.47514C5.61786 9.9065 5.77254 10.2015 5.90788 10.3732C5.94648 10.4222 5.97731 10.4539 6 10.4741C6.02269 10.4539 6.05352 10.4222 6.09212 10.3732C6.22746 10.2015 6.38214 9.9065 6.52592 9.47514C6.81088 8.62027 7 7.39157 7 6C7 4.60843 6.81088 3.37973 6.52592 2.52486C6.38214 2.0935 6.22746 1.79853 6.09212 1.6268C6.05352 1.57782 6.02269 1.54609 6 1.52587C5.97731 1.54609 5.94648 1.57782 5.90788 1.6268C5.77254 1.79853 5.61786 2.0935 5.47408 2.52486ZM4.72976 0.698341C5.00649 0.347196 5.43008 0 6 0C6.56992 0 6.99351 0.347196 7.27024 0.698341C7.55363 1.05794 7.77605 1.53181 7.94895 2.05052C8.29737 3.09577 8.5 4.49207 8.5 6C8.5 7.50793 8.29737 8.90423 7.94895 9.94948C7.77605 10.4682 7.55363 10.9421 7.27024 11.3017C6.99351 11.6528 6.56992 12 6 12C5.43008 12 5.00649 11.6528 4.72976 11.3017C4.44637 10.9421 4.22395 10.4682 4.05105 9.94948C3.70263 8.90423 3.5 7.50793 3.5 6C3.5 4.49207 3.70263 3.09577 4.05105 2.05052C4.22395 1.53181 4.44637 1.05794 4.72976 0.698341Z"
    fill="currentColor"
  />
  <path
    fill-rule="evenodd"
    clip-rule="evenodd"
    d="M.321289 4.24982C.321289 4.66403.657076 4.99982 1.07129 4.99982L10.9265 4.99982C11.3408 4.99982 11.6765 4.66403 11.6765 4.24982 11.6765 3.8356 11.3408 3.49982 10.9265 3.49982L1.07129 3.49982C.657076 3.49982.321289 3.8356.321289 4.24982zM.321289 7.75021C.321289 8.16443.657076 8.50021 1.07129 8.50021L10.9265 8.50021C11.3408 8.50021 11.6765 8.16443 11.6765 7.75021 11.6765 7.336 11.3408 7.00021 10.9265 7.00021L1.07129 7.00021C.657076 7.00021.321289 7.336.321289 7.75021z"
    fill="currentColor"
  />
</svg>
