<svg width="16" height="16" viewBox="0 0 16 16" fill="none" xmlns="http://www.w3.org/2000/svg" data-fui-icon="true">
  <path
    d="M12.126 6.75C14.2687 6.75 16.0009 8.49282 16.001 10.6367C16.001 12.1676 15.0504 13.5021 14.2393 14.3789C13.8191 14.8331 13.4009 15.202 13.0889 15.457C12.9323 15.585 12.8007 15.6863 12.707 15.7559C12.6603 15.7905 12.6223 15.817 12.5957 15.8359C12.5825 15.8453 12.5722 15.853 12.5645 15.8584C12.5606 15.8611 12.5571 15.8636 12.5547 15.8652C12.5536 15.866 12.5525 15.8667 12.5518 15.8672L12.5508 15.8682L12.126 15.25L12.5498 15.8682C12.2942 16.0434 11.9577 16.0434 11.7021 15.8682L12.126 15.25L11.7012 15.8682L11.7002 15.8672C11.6994 15.8667 11.6984 15.866 11.6973 15.8652C11.6949 15.8636 11.6914 15.8611 11.6875 15.8584C11.6798 15.853 11.6695 15.8453 11.6562 15.8359C11.6296 15.817 11.5917 15.7905 11.5449 15.7559C11.4512 15.6863 11.3197 15.585 11.1631 15.457C10.8511 15.202 10.4329 14.8331 10.0127 14.3789C9.20158 13.5021 8.25098 12.1676 8.25098 10.6367C8.25108 8.49282 9.98325 6.75 12.126 6.75ZM4.29785 11C4.44348 11 4.56805 11.1051 4.5957 11.248C4.75007 12.0462 4.96004 12.7766 5.21777 13.4092C5.50656 14.1177 5.86949 14.7412 6.31055 15.1992C6.75323 15.6587 7.3233 15.997 7.99707 15.998C4.80025 15.9965 2.0425 14.1199 0.762695 11.4082C0.671873 11.2157 0.816486 11 1.0293 11H4.29785ZM6.76465 11C6.86093 12.3926 7.49479 13.5838 8.14844 14.4746C8.09272 14.4915 8.04336 14.499 8 14.499C7.85978 14.4989 7.65351 14.432 7.39062 14.1592C7.12539 13.8838 6.85195 13.4452 6.60645 12.8428C6.42996 12.4096 6.27786 11.9088 6.15332 11.3564C6.11213 11.1725 6.25385 11.0003 6.44238 11H6.76465ZM12.1211 9.09961C11.2928 9.09961 10.6213 9.77136 10.6211 10.5996C10.6211 11.428 11.2927 12.0996 12.1211 12.0996C12.9495 12.0996 13.6211 11.428 13.6211 10.5996C13.6209 9.77136 12.9494 9.09961 12.1211 9.09961ZM4.03223 6.5C4.20738 6.50025 4.3451 6.65033 4.33398 6.8252C4.30959 7.20929 4.29688 7.60181 4.29688 8C4.2969 8.39835 4.31029 8.79069 4.33496 9.1748C4.34619 9.34966 4.20836 9.49974 4.0332 9.5H0.391602C0.247646 9.49984 0.123265 9.39707 0.100586 9.25488C0.0353977 8.84602 5.01e-05 8.42709 0 8C0 7.57296 0.0346651 7.15396 0.0996094 6.74512C0.122206 6.60291 0.246668 6.50017 0.390625 6.5H4.03223ZM8.68359 6.5C7.77932 7.25696 7.12935 8.3059 6.87305 9.5H6.13965C5.98436 9.5 5.85424 9.38142 5.84277 9.22656C5.81343 8.83003 5.7969 8.42024 5.79688 8C5.79688 7.57996 5.81271 7.16997 5.8418 6.77344C5.85316 6.61856 5.98338 6.5 6.13867 6.5H8.68359ZM7.99414 0C7.32147 0.00200497 6.75264 0.340834 6.31055 0.799805C5.86932 1.258 5.5066 1.88188 5.21777 2.59082C4.96001 3.22364 4.75006 3.95374 4.5957 4.75195C4.56806 4.89494 4.44348 5 4.29785 5H1.0293C0.8165 5 0.671907 4.78425 0.762695 4.5918C2.04191 1.88037 4.79825 0.00267306 7.99414 0ZM8 1.5C8.14024 1.50008 8.34638 1.56692 8.60938 1.83984C8.87459 2.11533 9.14907 2.55374 9.39453 3.15625C9.57113 3.58981 9.72313 4.09072 9.84766 4.64355C9.88886 4.82756 9.74716 4.99977 9.55859 5H6.44141C6.25284 4.99977 6.11107 4.82754 6.15234 4.64355C6.2771 4.09067 6.42981 3.58987 6.60645 3.15625C6.85196 2.55363 7.12536 2.11531 7.39062 1.83984C7.65369 1.56674 7.85971 1.50012 8 1.5ZM8.00098 0C11.1993 0.000375227 13.9576 1.87874 15.2373 4.5918C15.3281 4.78425 15.1835 5 14.9707 5H11.7031C11.5575 5 11.4329 4.89494 11.4053 4.75195C11.2509 3.95376 11.0409 3.22362 10.7832 2.59082C10.4944 1.88206 10.1315 1.25797 9.69043 0.799805C9.24708 0.339525 8.67519 8.18279e-05 8 0H8.00098Z"
    fill="currentColor"
  />
</svg>
