<svg
  width="16"
  height="16"
  viewBox="0 0 16 16"
  fill="none"
  xmlns="http://www.w3.org/2000/svg"
  data-fui-icon="true"
>
  <g clip-path="url(#clip0_1679_665)">
    <path
      d="M2.79999 1.25C1.83349 1.25 1.04999 2.0335 1.04999 3V13C1.04999 13.9665 1.83349 14.75 2.79999 14.75H13.2C14.1665 14.75 14.95 13.9665 14.95 13V3C14.95 2.0335 14.1665 1.25 13.2 1.25H2.79999Z"
      stroke="currentColor"
      stroke-width="1.5"
    />
    <path
      fill-rule="evenodd"
      clip-rule="evenodd"
      d="M4.83696 7.25C5.01365 6.50199 5.44881 5.85385 6.04297 5.40505C6.03297 5.44208 6.02346 5.47872 6.01443 5.51488C5.88928 6.01547 5.80695 6.61252 5.77087 7.25H4.83696ZM3.25 8.00632C3.25341 10.6268 5.37875 12.75 7.99999 12.75C10.6233 12.75 12.75 10.6234 12.75 8C12.75 5.37665 10.6233 3.25 7.99999 3.25C5.37875 3.25 3.25341 5.37323 3.25 7.99368C3.24998 7.99579 3.24997 7.99789 3.24997 8C3.24997 8.00211 3.24998 8.00421 3.25 8.00632ZM4.83696 8.75H5.77087C5.80695 9.38748 5.88928 9.98453 6.01443 10.4851C6.02346 10.5213 6.03297 10.5579 6.04297 10.5949C5.44881 10.1462 5.01365 9.49801 4.83696 8.75ZM7.2736 8.75C7.29475 9.07869 7.32947 9.38558 7.37524 9.66054C7.50964 10.468 7.73927 11 7.99997 11C8.26066 11 8.49029 10.468 8.6247 9.66054C8.67047 9.38558 8.70519 9.07869 8.72634 8.75L7.2736 8.75ZM10.2291 8.75C10.193 9.38748 10.1107 9.98453 9.98551 10.4851C9.97647 10.5213 9.96697 10.5579 9.95696 10.595C10.5511 10.1462 10.9863 9.49803 11.163 8.75H10.2291ZM11.163 7.25H10.2291C10.193 6.61252 10.1107 6.01547 9.98551 5.51488C9.97647 5.47871 9.96697 5.44205 9.95696 5.40501C10.5511 5.85381 10.9863 6.50197 11.163 7.25ZM8.72634 7.25L7.2736 7.25C7.29475 6.92131 7.32947 6.61442 7.37524 6.33946C7.50964 5.53204 7.73927 5 7.99997 5C8.26066 5 8.49029 5.53204 8.6247 6.33946C8.67047 6.61442 8.70519 6.92131 8.72634 7.25Z"
      fill="currentColor"
    />
  </g>
  <defs>
    <clipPath id="clip0_1679_665">
      <path fill="currentColor" d="M0 0H16V16H0z" />
    </clipPath>
  </defs>
</svg>
