<svg width="24" height="24" viewBox="0 0 24 24" fill="none" xmlns="http://www.w3.org/2000/svg" data-fui-icon="true">
  <path
    d="M16.5 1C20.0899 1 23 3.91015 23 7.5V16.5C23 20.0899 20.0899 23 16.5 23H7.5C3.91015 23 1 20.0899 1 16.5V7.5C1 3.91015 3.91015 1 7.5 1H16.5ZM7.5 2.5C4.73858 2.5 2.5 4.73858 2.5 7.5V16.5C2.5 19.2614 4.73858 21.5 7.5 21.5H16.5C19.2614 21.5 21.5 19.2614 21.5 16.5V7.5C21.5 4.73858 19.2614 2.5 16.5 2.5H7.5ZM12 4C16.4183 4 20 7.58172 20 12C20 16.4183 16.4183 20 12 20C7.58172 20 4 16.4183 4 12C4 7.58172 7.58172 4 12 4ZM9.7666 12.75C9.83852 14.3701 10.1399 15.7973 10.5713 16.8398C10.8204 17.4419 11.0982 17.8803 11.3682 18.1562C11.6356 18.4295 11.849 18.5 12 18.5C12.151 18.5 12.3644 18.4295 12.6318 18.1562C12.9018 17.8803 13.1796 17.4419 13.4287 16.8398C13.8601 15.7973 14.1615 14.3701 14.2334 12.75H9.7666ZM5.54395 12.75C5.81478 15.1069 7.34542 17.08 9.44629 17.9785C9.35385 17.7976 9.26651 17.6087 9.18555 17.4131C8.66833 16.163 8.33739 14.5343 8.26465 12.75H5.54395ZM15.7354 12.75C15.6626 14.5343 15.3317 16.163 14.8145 17.4131C14.7334 17.6089 14.6452 17.7974 14.5527 17.9785C16.654 17.0801 18.1852 15.1073 18.4561 12.75H15.7354ZM9.44629 6.02051C7.34524 6.91898 5.8148 8.89292 5.54395 11.25H8.26465C8.33739 9.46574 8.66833 7.83695 9.18555 6.58691C9.26663 6.39097 9.3537 6.2017 9.44629 6.02051ZM12 5.5C11.849 5.50001 11.6356 5.57045 11.3682 5.84375C11.0982 6.11966 10.8204 6.55808 10.5713 7.16016C10.1399 8.20272 9.83852 9.62986 9.7666 11.25H14.2334C14.1615 9.62986 13.8601 8.20273 13.4287 7.16016C13.1796 6.55808 12.9018 6.11966 12.6318 5.84375C12.3644 5.57045 12.151 5.5 12 5.5ZM14.5527 6.02051C14.6454 6.20182 14.7333 6.39083 14.8145 6.58691C15.3317 7.83695 15.6626 9.46574 15.7354 11.25H18.4561C18.1852 8.89261 16.6542 6.91882 14.5527 6.02051Z"
    fill="currentColor"
  />
</svg>
