<svg width="24" height="24" viewBox="0 0 24 24" fill="none" xmlns="http://www.w3.org/2000/svg" data-fui-icon="true">
  <path
    d="M12 0C12.1317 0 12.2629 0.00262524 12.3936 0.00683594C12.4245 0.007834 12.4554 0.00853341 12.4863 0.00976562C12.584 0.0136577 12.6813 0.0191785 12.7783 0.0253906C12.8181 0.0279381 12.8578 0.0302691 12.8975 0.0332031C13.1414 0.0512422 13.3833 0.0769628 13.623 0.109375C13.6749 0.116391 13.7267 0.123183 13.7783 0.130859C13.8587 0.142801 13.9387 0.156394 14.0186 0.169922C14.0805 0.18043 14.1425 0.190694 14.2041 0.202148C14.2861 0.21738 14.3678 0.234084 14.4492 0.250977C14.6228 0.287015 14.7951 0.326659 14.9658 0.370117C15.0152 0.382679 15.0641 0.396983 15.1133 0.410156C15.2239 0.439822 15.334 0.470204 15.4434 0.50293C15.5153 0.524434 15.5869 0.546527 15.6582 0.569336C15.7951 0.613144 15.9308 0.659465 16.0654 0.708008C16.1141 0.725538 16.1625 0.743579 16.2109 0.761719C16.3353 0.808373 16.4587 0.856601 16.5811 0.907227C16.6412 0.932103 16.7011 0.957576 16.7607 0.983398C16.8685 1.03008 16.975 1.07919 17.0811 1.12891C17.1357 1.15449 17.1909 1.1787 17.2451 1.20508C17.3807 1.27117 17.5148 1.34013 17.6475 1.41113C17.7204 1.45011 17.7922 1.49082 17.8643 1.53125C17.9304 1.56842 17.9962 1.60615 18.0615 1.64453C18.139 1.68999 18.2166 1.73509 18.293 1.78223C18.4163 1.85842 18.5379 1.9371 18.6582 2.01758C18.7316 2.06663 18.8037 2.11736 18.876 2.16797C18.9276 2.20418 18.9792 2.24034 19.0303 2.27734C19.1193 2.34181 19.2078 2.4068 19.2949 2.47363C19.3019 2.47899 19.3085 2.48487 19.3154 2.49023C19.5109 2.64085 19.701 2.79783 19.8867 2.95996C19.9036 2.97469 19.9207 2.98908 19.9375 3.00391C20.0303 3.08584 20.1217 3.16918 20.2119 3.25391C20.2232 3.26447 20.2339 3.27553 20.2451 3.28613C22.5559 5.47339 24 8.56703 24 12C24 12.8721 23.9033 13.7217 23.7266 14.541C23.7123 14.607 23.697 14.6727 23.6816 14.7383C23.6522 14.8643 23.6222 14.9898 23.5889 15.1143C23.5746 15.1676 23.5589 15.2204 23.5439 15.2734C23.5077 15.4015 23.471 15.529 23.4307 15.6553C23.4083 15.7254 23.384 15.7947 23.3604 15.8643C23.3232 15.9736 23.2854 16.0825 23.2451 16.1904C23.2182 16.2627 23.1884 16.3337 23.1602 16.4053C23.1189 16.5098 23.0793 16.6147 23.0352 16.7178C23.0145 16.766 22.992 16.8134 22.9707 16.8613C22.92 16.9755 22.8705 17.0899 22.8164 17.2021L22.792 17.251C22.784 17.2675 22.7747 17.2834 22.7666 17.2998C22.4663 17.9087 22.1148 18.4871 21.7197 19.0322C21.6963 19.0646 21.6752 19.0987 21.6514 19.1309C21.5735 19.2361 21.4913 19.3379 21.4102 19.4404C21.3709 19.4901 21.333 19.5408 21.293 19.5898C21.2175 19.6821 21.1387 19.7714 21.0605 19.8613C21.0165 19.9121 20.9736 19.9637 20.9287 20.0137C20.852 20.099 20.7734 20.1825 20.6943 20.2656C20.6474 20.315 20.6015 20.3655 20.5537 20.4141C20.478 20.491 20.4 20.5657 20.3223 20.6406C20.2583 20.7023 20.1943 20.764 20.1289 20.8242C20.0594 20.8883 19.988 20.9503 19.917 21.0127C19.8461 21.075 19.7755 21.1376 19.7031 21.1982C19.6318 21.258 19.559 21.3159 19.4863 21.374C19.4139 21.4319 19.3414 21.4896 19.2676 21.5459C19.1925 21.6032 19.1165 21.6593 19.04 21.7148C18.959 21.7737 18.8775 21.8318 18.7949 21.8887C18.7292 21.9339 18.6624 21.9775 18.5957 22.0215C18.5065 22.0803 18.417 22.1388 18.3262 22.1953C18.2499 22.2427 18.1731 22.2892 18.0957 22.335C18.014 22.3833 17.9315 22.4302 17.8486 22.4766C17.7658 22.5229 17.6827 22.5688 17.5986 22.6133C17.5124 22.6588 17.4253 22.7026 17.3379 22.7461C17.2597 22.785 17.1817 22.8241 17.1025 22.8613C17.0086 22.9055 16.9136 22.9474 16.8184 22.9893C16.7354 23.0257 16.6523 23.0621 16.5684 23.0967C16.4769 23.1344 16.3845 23.1696 16.292 23.2051C16.2092 23.2368 16.1266 23.2689 16.043 23.2988C15.944 23.3342 15.8443 23.3675 15.7441 23.4004C15.661 23.4277 15.5781 23.4559 15.4941 23.4814C15.3853 23.5145 15.2752 23.5442 15.165 23.5742C15.0916 23.5943 15.0183 23.6151 14.9443 23.6338C14.826 23.6636 14.7066 23.6895 14.5869 23.7158C14.5073 23.7333 14.4279 23.7526 14.3477 23.7686C14.3207 23.7739 14.2936 23.779 14.2666 23.7842C14.1081 23.8145 13.9487 23.8422 13.7881 23.8662C13.752 23.8716 13.7159 23.8768 13.6797 23.8818C13.5127 23.9052 13.3448 23.9259 13.1758 23.9424C13.1712 23.9428 13.1667 23.9429 13.1621 23.9434C12.7797 23.9801 12.3921 24 12 24C5.37258 24 0 18.6274 0 12C0 5.37258 5.37258 0 12 0ZM12 1.5C8.88132 1.5 6.08132 2.86066 4.1582 5.01953C4.01672 5.7778 3.9246 6.6754 4.01758 7.56152C4.12397 8.57541 4.48092 9.64199 5.35059 10.4316L5.53125 10.5859C5.5376 10.5914 5.54466 10.5977 5.55273 10.6045C5.58189 10.6289 5.62265 10.6616 5.67285 10.7002C5.7726 10.777 5.91476 10.8795 6.08594 10.9824C6.40641 11.1751 6.92434 11.4297 7.5 11.4297C7.87976 11.4297 8.05683 11.6097 8.46484 12.0254C8.60303 12.1662 8.72379 12.312 8.79199 12.4375C8.81097 12.4725 8.81757 12.4987 8.82324 12.5146L8.59766 13.0918C8.44963 13.469 8.43746 13.8863 8.56348 14.2715L8.95801 15.4766C9.16212 16.1003 9.56741 16.6391 10.1104 17.0078L10.3027 17.1387C10.3869 17.196 10.4551 17.2739 10.5 17.3652C10.5608 17.4891 10.5757 17.6307 10.543 17.7646L10.3809 18.4258C10.3051 18.7345 10.2666 19.0513 10.2666 19.3691V21.1582C10.2666 21.761 10.7556 22.2499 11.3584 22.25C11.6477 22.25 11.9252 22.1351 12.1299 21.9307L12.4121 21.6484C12.4454 21.6152 12.4828 21.5863 12.5234 21.5625L12.7168 21.4492C13.1538 21.1931 13.5355 20.8519 13.8389 20.4463L14.1934 19.9717L14.709 19.3926C14.7897 19.3018 14.9059 19.2501 15.0273 19.25C15.5237 19.25 16.0009 19.0581 16.3594 18.7148L16.8018 18.291C17.0475 18.0555 17.2573 17.7851 17.4238 17.4883L17.6475 17.0908C18.4398 15.6782 18.1204 13.9018 16.8857 12.8535L16.626 12.6338C16.5302 12.5524 16.4591 12.4456 16.4199 12.3262C16.1877 11.6166 15.6083 11.0749 14.8848 10.8906L14.5234 10.7988C14.3708 10.7599 14.226 10.694 14.0957 10.6055L13.998 10.5391C13.3958 10.1302 12.6339 9.91986 11.8467 10.1201C11.5169 10.204 11.1628 10.3021 10.8936 10.3789C10.7586 10.4174 10.6437 10.4508 10.5625 10.4746C10.5345 10.4828 10.5097 10.4894 10.4902 10.4951C10.4817 10.496 10.4714 10.4981 10.46 10.499C10.4062 10.5032 10.3237 10.5072 10.2227 10.502C10.0162 10.4912 9.75551 10.445 9.50488 10.3174C9.11553 10.1191 8.81714 9.98821 8.61035 9.90527C8.50722 9.86392 8.42679 9.83446 8.36914 9.81445C8.34045 9.8045 8.31719 9.79658 8.2998 9.79102C8.29111 9.78824 8.28319 9.78597 8.27734 9.78418L8.27637 9.7832L8.26562 9.78027H8.26465L7.16406 9.42578C7.04427 9.38722 6.9409 9.30882 6.87109 9.2041C6.69711 8.94281 6.77287 8.58924 7.03906 8.42285L7.92285 7.87207C7.93308 7.86568 7.94662 7.86641 7.95508 7.875C8.63725 8.56995 9.78693 8.45726 10.3203 7.64258L10.4023 7.51562C10.4164 7.49429 10.4362 7.47741 10.459 7.46582L10.5557 7.41602C10.6734 7.35605 10.8106 7.3405 10.9404 7.37207C11.0166 7.39062 11.0888 7.4244 11.1504 7.47168L11.3418 7.61914C12.6014 8.58587 14.4341 7.80814 14.6143 6.23047L14.6504 5.91699C14.6612 5.82207 14.7414 5.75004 14.8369 5.75C15.0309 5.75 15.2236 5.71678 15.4062 5.65137L15.4844 5.62305C16.2134 5.36156 16.738 4.73514 16.8916 3.99219C16.9039 3.93257 16.9169 3.86989 16.9307 3.80469C17.0076 3.43983 17.0004 3.07309 16.9248 2.72559C15.4559 1.94397 13.78 1.5 12 1.5ZM19.6855 4.84961C19.1605 5.02712 18.7108 5.44122 18.5078 6.10254C18.4335 6.34453 18.4051 6.56725 18.4531 6.81543C18.4716 6.91098 18.4998 6.99933 18.5146 7.04688C18.5321 7.10274 18.5465 7.1487 18.5605 7.20605L18.6855 7.71875C18.7523 7.99107 18.7871 8.27038 18.7871 8.55078V9.44824C18.7872 10.408 19.0941 11.3423 19.6631 12.1152L19.7588 12.2461C19.9979 12.5708 20.2905 12.8525 20.624 13.0791L20.7246 13.1475C21.2102 13.4772 21.7777 13.662 22.3623 13.6875C22.4511 13.138 22.5 12.5746 22.5 12C22.5 9.23667 21.4306 6.72444 19.6855 4.84961Z"
    fill="currentColor"
  />
</svg>
