<svg width="16" height="16" viewBox="0 0 16 16" fill="none" xmlns="http://www.w3.org/2000/svg" data-fui-icon="true">
  <path
    d="M8 0.5C12.1421 0.5 15.5 3.85786 15.5 8C15.5 12.1421 12.1421 15.5 8 15.5C3.85786 15.5 0.5 12.1421 0.5 8C0.5 3.85786 3.85786 0.5 8 0.5ZM6.80566 11C6.90682 11.4611 7.02758 11.8774 7.16602 12.2373C7.36632 12.758 7.57991 13.1111 7.7666 13.3164C7.95308 13.5215 8.0335 13.5 8 13.5C7.9665 13.5 8.04692 13.5215 8.2334 13.3164C8.42009 13.1111 8.63368 12.758 8.83398 12.2373C8.97242 11.8774 9.09318 11.4611 9.19434 11H6.80566ZM3.3916 11C3.85761 11.7144 4.48439 12.3136 5.22168 12.7461C5.03494 12.2208 4.88386 11.6327 4.7666 11H3.3916ZM11.2334 11C11.1161 11.6328 10.9641 12.2208 10.7773 12.7461C11.5149 12.3135 12.1422 11.7146 12.6084 11H11.2334ZM11.4688 7C11.4871 7.32795 11.5 7.66173 11.5 8C11.5 8.33827 11.4871 8.67205 11.4688 9H13.4082C13.4678 8.67566 13.5 8.34157 13.5 8C13.5 7.65843 13.4678 7.32434 13.4082 7H11.4688ZM6.53418 7C6.51367 7.32368 6.5 7.65758 6.5 8C6.5 8.34242 6.51367 8.67632 6.53418 9H9.46582C9.48633 8.67632 9.5 8.34242 9.5 8C9.5 7.65758 9.48633 7.32368 9.46582 7H6.53418ZM2.5918 7C2.53221 7.32434 2.5 7.65843 2.5 8C2.5 8.34157 2.53221 8.67566 2.5918 9H4.53125C4.51289 8.67205 4.5 8.33827 4.5 8C4.5 7.66173 4.51289 7.32795 4.53125 7H2.5918ZM10.7773 3.25293C10.9643 3.77848 11.116 4.36686 11.2334 5H12.6084C12.1421 4.28524 11.5151 3.68552 10.7773 3.25293ZM8 2.5C8.0335 2.5 7.95308 2.47852 7.7666 2.68359C7.57991 2.88894 7.36632 3.24197 7.16602 3.7627C7.02758 4.12264 6.90682 4.53895 6.80566 5H9.19434C9.09318 4.53895 8.97242 4.12264 8.83398 3.7627C8.63368 3.24197 8.42009 2.88894 8.2334 2.68359C8.04692 2.47852 7.9665 2.5 8 2.5ZM5.22168 3.25293C4.4842 3.68548 3.8577 4.28547 3.3916 5H4.7666C4.88393 4.36698 5.0348 3.7784 5.22168 3.25293Z"
    fill="currentColor"
  />
</svg>
