<svg width="12" height="12" viewBox="0 0 12 12" fill="none" xmlns="http://www.w3.org/2000/svg" data-fui-icon="true">
  <path
    d="M8.25 0C10.3211 0 12 1.67893 12 3.75V8.25C12 10.3211 10.3211 12 8.25 12H3.75C1.67893 12 0 10.3211 0 8.25V3.75C0 1.67893 1.67893 1.28851e-07 3.75 0H8.25ZM3.75 1.5C2.50736 1.5 1.5 2.50736 1.5 3.75V8.25C1.5 9.49264 2.50736 10.5 3.75 10.5H8.25C9.49264 10.5 10.5 9.49264 10.5 8.25V3.75C10.5 2.50736 9.49264 1.5 8.25 1.5H3.75ZM6 2C8.20914 2 10 3.79086 10 6C10 8.20914 8.20914 10 6 10C3.79086 10 2 8.20914 2 6C2 3.79086 3.79086 2 6 2ZM3.61523 6.75C3.85946 7.52734 4.47266 8.14054 5.25 8.38477V6.75H3.61523ZM6.75 8.38477C7.52734 8.14054 8.14054 7.52734 8.38477 6.75H6.75V8.38477ZM5.25 3.61426C4.47253 3.85843 3.85949 4.47257 3.61523 5.25H5.25V3.61426ZM6.75 5.25H8.38477C8.14051 4.47257 7.52747 3.85843 6.75 3.61426V5.25Z"
    fill="currentColor"
  />
</svg>
