<svg width="12" height="12" viewBox="0 0 12 12" fill="none" xmlns="http://www.w3.org/2000/svg" data-fui-icon="true">
  <path
    d="M8 0C10.2091 0 12 1.79086 12 4V8C12 10.2091 10.2091 12 8 12H4C1.79086 12 0 10.2091 0 8V4C0 1.79086 1.79086 0 4 0H8ZM4 2C2.89543 2 2 2.89543 2 4V8C2 9.10457 2.89543 10 4 10H8C9.10457 10 10 9.10457 10 8V4C10 2.89543 9.10457 2 8 2H4ZM6 2.25C8.07107 2.25 9.75 3.92893 9.75 6C9.75 8.07107 8.07107 9.75 6 9.75C3.92893 9.75 2.25 8.07107 2.25 6C2.25 3.92893 3.92893 2.25 6 2.25ZM3.88086 6.75C4.10684 7.38849 4.61155 7.8921 5.25 8.11816V6.75H3.88086ZM6.75 8.11816C7.38845 7.8921 7.89316 7.38849 8.11914 6.75H6.75V8.11816ZM6.75 5.25H8.11914C7.89313 4.61141 7.38859 4.10687 6.75 3.88086V5.25ZM5.25 3.88086C4.61141 4.10687 4.10687 4.61141 3.88086 5.25H5.25V3.88086Z"
    fill="currentColor"
  />
</svg>
