<svg
  width="32"
  height="32"
  viewBox="0 0 32 32"
  fill="none"
  xmlns="http://www.w3.org/2000/svg"
  data-fui-icon="true"
>
  <path
    fill-rule="evenodd"
    clip-rule="evenodd"
    d="M16 2.5C8.54416 2.5 2.5 8.54416 2.5 16C2.5 23.4558 8.54416 29.5 16 29.5C23.4558 29.5 29.5 23.4558 29.5 16C29.5 8.54416 23.4558 2.5 16 2.5ZM1 16C1 7.71573 7.71573 1 16 1C24.2843 1 31 7.71573 31 16C31 24.2843 24.2843 31 16 31C7.71573 31 1 24.2843 1 16Z"
    fill="currentColor"
  />
  <path
    fill-rule="evenodd"
    clip-rule="evenodd"
    d="M12.2674 6.22497C11.187 8.68821 10.5 12.1436 10.5 16C10.5 19.8564 11.187 23.3118 12.2674 25.775C12.808 27.0077 13.4324 27.9583 14.0878 28.5903C14.7395 29.2188 15.3845 29.5 16 29.5C16.6155 29.5 17.2604 29.2188 17.9121 28.5903C18.5675 27.9583 19.1919 27.0077 19.7325 25.775C20.8129 23.3118 21.5 19.8564 21.5 16C21.5 12.1436 20.8129 8.68821 19.7325 6.22497C19.1919 4.99227 18.5675 4.04168 17.9121 3.4097C17.2604 2.78124 16.6155 2.5 16 2.5C15.3845 2.5 14.7395 2.78124 14.0878 3.4097C13.4324 4.04168 12.808 4.99227 12.2674 6.22497ZM13.0465 2.32997C13.8903 1.51626 14.8896 1 16 1C17.1104 1 18.1096 1.51626 18.9534 2.32997C19.7935 3.14016 20.5158 4.27644 21.1062 5.62248C22.2879 8.31673 23 11.9863 23 16C23 20.0137 22.2879 23.6833 21.1062 26.3775C20.5158 27.7236 19.7935 28.8598 18.9534 29.67C18.1096 30.4837 17.1104 31 16 31C14.8896 31 13.8903 30.4837 13.0465 29.67C12.2064 28.8598 11.4841 27.7236 10.8937 26.3775C9.712 23.6833 8.99995 20.0137 8.99995 16C8.99995 11.9863 9.712 8.31673 10.8937 5.62248C11.4841 4.27644 12.2064 3.14016 13.0465 2.32997Z"
    fill="currentColor"
  />
  <path
    fill-rule="evenodd"
    clip-rule="evenodd"
    d="M1.875 11.25C1.875 11.6642 2.21079 12 2.625 12L29.375 12C29.7892 12 30.125 11.6642 30.125 11.25 30.125 10.8358 29.7892 10.5 29.375 10.5L2.625 10.5C2.21079 10.5 1.875 10.8358 1.875 11.25zM1.875 20.75C1.875 21.1642 2.21079 21.5 2.625 21.5L29.375 21.5C29.7892 21.5 30.125 21.1642 30.125 20.75 30.125 20.3358 29.7892 20 29.375 20L2.625 20C2.21079 20 1.875 20.3358 1.875 20.75z"
    fill="currentColor"
  />
</svg>
