<svg width="16" height="16" viewBox="0 0 16 16" fill="none" xmlns="http://www.w3.org/2000/svg" data-fui-icon="true">
  <path
    d="M12.125 6.75C14.2677 6.75 15.9999 8.49282 16 10.6367C16 12.1676 15.0494 13.5021 14.2383 14.3789C13.8181 14.8331 13.3999 15.202 13.0879 15.457C12.9313 15.585 12.7998 15.6863 12.7061 15.7559C12.6593 15.7905 12.6213 15.817 12.5947 15.8359C12.5815 15.8453 12.5712 15.853 12.5635 15.8584C12.5596 15.8611 12.5561 15.8636 12.5537 15.8652C12.5526 15.866 12.5515 15.8667 12.5508 15.8672L12.5498 15.8682L12.125 15.25L12.5488 15.8682C12.2932 16.0434 11.9568 16.0434 11.7012 15.8682L12.125 15.25L11.7002 15.8682L11.6992 15.8672C11.6985 15.8667 11.6974 15.866 11.6963 15.8652C11.6939 15.8636 11.6904 15.8611 11.6865 15.8584C11.6788 15.853 11.6685 15.8453 11.6553 15.8359C11.6287 15.817 11.5907 15.7905 11.5439 15.7559C11.4502 15.6863 11.3187 15.585 11.1621 15.457C10.8501 15.202 10.4319 14.8331 10.0117 14.3789C9.2006 13.5021 8.25 12.1676 8.25 10.6367C8.2501 8.49282 9.98227 6.75 12.125 6.75ZM8 0C11.5018 0.000410752 14.4766 2.25088 15.5605 5.38184C15.6954 5.77283 15.4884 6.20031 15.0977 6.33594C14.7064 6.47139 14.2793 6.26313 14.1436 5.87207C13.5383 4.12388 12.2076 2.71416 10.5127 2.00293C10.9145 2.79431 11.2254 3.77704 11.4268 4.86328C11.502 5.27026 11.2331 5.66262 10.8262 5.73828C10.419 5.81375 10.0278 5.54376 9.95215 5.13672C9.73021 3.93961 9.38099 2.97411 8.98145 2.33008C8.56416 1.65764 8.204 1.50013 7.99902 1.5H7.99805C7.85777 1.50035 7.65225 1.56721 7.38965 1.83984C7.12437 2.11531 6.851 2.55359 6.60547 3.15625C6.39156 3.68136 6.21277 4.30442 6.07617 5H8.50098C8.91474 5.00053 9.25 5.33611 9.25 5.75C9.25 6.16421 8.91324 6.5 8.49902 6.5H5.86328C5.82016 6.98054 5.7959 7.4826 5.7959 8C5.79592 8.51761 5.82108 9.01935 5.86426 9.5H6C6.41399 9.50026 6.75 9.83595 6.75 10.25C6.75 10.6388 6.45404 10.9584 6.0752 10.9961C6.21187 11.6927 6.39126 12.317 6.60547 12.8428C6.85098 13.4453 7.12441 13.8838 7.38965 14.1592C7.6521 14.4315 7.85783 14.4977 7.99805 14.498L8 14.499C8.41376 14.4995 8.74998 14.8351 8.75 15.249C8.74995 15.3527 8.7276 15.4512 8.68945 15.541C8.64111 15.6551 8.56268 15.7512 8.46777 15.8281C8.33896 15.9323 8.17751 15.9979 7.99902 15.998V15.999C7.99715 15.999 7.99504 15.9981 7.99316 15.998C3.57835 15.9946 0.000468365 12.4155 0 8C0 3.58198 3.58198 0 8 0ZM12.125 8.25C10.8161 8.25 9.7501 9.31586 9.75 10.6367C9.75 11.5762 10.362 12.5482 11.1133 13.3604C11.4743 13.7505 11.8374 14.072 12.1113 14.2959C12.1157 14.2994 12.1207 14.3022 12.125 14.3057C12.1293 14.3022 12.1343 14.2994 12.1387 14.2959C12.4126 14.072 12.7757 13.7505 13.1367 13.3604C13.888 12.5482 14.5 11.5762 14.5 10.6367C14.4999 9.31586 13.4339 8.25 12.125 8.25ZM2.23438 11C2.93286 12.3389 4.08262 13.4045 5.4834 13.9932C5.38873 13.8066 5.29929 13.6116 5.2168 13.4092C4.93258 12.7116 4.70634 11.8951 4.54883 11H2.23438ZM12.1201 9.75C12.6723 9.75007 13.1201 10.1978 13.1201 10.75C13.1201 11.3022 12.6723 11.7499 12.1201 11.75C11.5678 11.75 11.1201 11.3023 11.1201 10.75C11.1201 10.1977 11.5678 9.75 12.1201 9.75ZM1.67578 6.5C1.562 6.98157 1.5 7.48369 1.5 8C1.50007 8.51644 1.56187 9.01835 1.67578 9.5H4.35742C4.31742 9.01307 4.29592 8.51147 4.2959 8C4.2959 7.48868 4.31648 6.98678 4.35645 6.5H1.67578ZM5.4834 2.00488C4.08206 2.59383 2.93182 3.66029 2.2334 5H4.54883C4.70633 4.10471 4.93256 3.28863 5.2168 2.59082C5.29946 2.38793 5.38854 2.19194 5.4834 2.00488Z"
    fill="currentColor"
  />
</svg>
