<svg width="24" height="24" viewBox="0 0 24 24" fill="none" xmlns="http://www.w3.org/2000/svg" data-fui-icon="true">
  <path
    d="M12 0.5C18.3513 0.5 23.5 5.64873 23.5 12C23.5 18.3513 18.3513 23.5 12 23.5C5.64873 23.5 0.5 18.3513 0.5 12C0.5 5.64873 5.64873 0.5 12 0.5ZM9.07227 17C9.25808 17.7511 9.48168 18.4338 9.7373 19.0303C10.1127 19.9062 10.5342 20.5514 10.9512 20.9629C11.3638 21.3701 11.7169 21.5 12 21.5C12.2831 21.5 12.6362 21.3701 13.0488 20.9629C13.4658 20.5514 13.8873 19.9062 14.2627 19.0303C14.5183 18.4338 14.7419 17.7511 14.9277 17H9.07227ZM3.92285 17C4.96623 18.6819 6.51914 20.0137 8.36719 20.7793C8.19953 20.4755 8.04242 20.1543 7.89844 19.8184C7.54167 18.9858 7.24612 18.0355 7.01855 17H3.92285ZM16.9814 17C16.7539 18.0355 16.4583 18.9858 16.1016 19.8184C15.9575 20.1545 15.7996 20.4753 15.6318 20.7793C17.4802 20.0138 19.0336 18.6822 20.0771 17H16.9814ZM2.98535 8.99902C2.67144 9.94245 2.5 10.9511 2.5 12C2.5 13.0485 2.67162 14.0568 2.98535 15H6.68066C6.56379 14.041 6.5 13.0347 6.5 12C6.5 10.9653 6.56379 9.95896 6.68066 9H3C2.9951 9 2.99023 8.99909 2.98535 8.99902ZM21 9H17.3193C17.4362 9.95896 17.5 10.9653 17.5 12C17.5 13.0347 17.4362 14.041 17.3193 15H21.0137C21.3275 14.0567 21.5 13.0487 21.5 12C21.5 10.951 21.3276 9.94253 21.0137 8.99902C21.0091 8.99908 21.0046 9 21 9ZM8.69531 9C8.56938 9.94083 8.5 10.9483 8.5 12C8.5 13.0517 8.56938 14.0592 8.69531 15H15.3047C15.4306 14.0592 15.5 13.0517 15.5 12C15.5 10.9483 15.4306 9.94083 15.3047 9H8.69531ZM8.36719 3.21973C6.51899 3.98526 4.9663 5.31796 3.92285 7H7.01855C7.24612 5.96451 7.54167 5.01417 7.89844 4.18164C8.04254 3.8454 8.19937 3.52378 8.36719 3.21973ZM12 2.5C11.7169 2.5 11.3638 2.62993 10.9512 3.03711C10.5342 3.44858 10.1127 4.09377 9.7373 4.96973C9.48168 5.56624 9.25808 6.24888 9.07227 7H14.9277C14.7419 6.24888 14.5183 5.56624 14.2627 4.96973C13.8873 4.09377 13.4658 3.44858 13.0488 3.03711C12.6362 2.62993 12.2831 2.5 12 2.5ZM15.6318 3.21973C15.7997 3.5239 15.9574 3.84524 16.1016 4.18164C16.4583 5.01417 16.7539 5.96451 16.9814 7H20.0771C19.0335 5.31771 17.4804 3.98521 15.6318 3.21973Z"
    fill="currentColor"
  />
</svg>
