<svg
  width="20"
  height="20"
  viewBox="0 0 20 20"
  fill="none"
  xmlns="http://www.w3.org/2000/svg"
  data-fui-icon="true"
>
  <path
    d="M10 1.25C14.957 1.25 19 5.29297 19 10.25C19 15.2422 14.957 19.25 10 19.25C5.00781 19.25 1 15.2422 1 10.25C1 5.29297 5.00781 1.25 10 1.25ZM10 17.5625C10.2461 17.5625 10.9141 17.3164 11.6523 15.875C11.9688 15.2422 12.2148 14.5039 12.4258 13.625H7.53906C7.75 14.5039 7.99609 15.2422 8.3125 15.875C9.05078 17.3164 9.71875 17.5625 10 17.5625ZM7.25781 11.9375H12.707C12.7773 11.4102 12.8125 10.8477 12.8125 10.25C12.8125 9.6875 12.7773 9.125 12.707 8.5625H7.25781C7.1875 9.125 7.1875 9.6875 7.1875 10.25C7.1875 10.8477 7.1875 11.4102 7.25781 11.9375ZM12.4258 6.875C12.2148 6.03125 11.9688 5.29297 11.6523 4.66016C10.9141 3.21875 10.2461 2.9375 10 2.9375C9.71875 2.9375 9.05078 3.21875 8.3125 4.66016C7.99609 5.29297 7.75 6.03125 7.53906 6.875H12.4258ZM14.3945 8.5625C14.4648 9.125 14.5 9.6875 14.5 10.25C14.5 10.8477 14.4648 11.4102 14.3945 11.9375H17.1016C17.2422 11.4102 17.3125 10.8477 17.3125 10.25C17.3125 9.6875 17.2422 9.125 17.1016 8.5625H14.3945ZM13.0234 3.60547C13.5156 4.51953 13.9023 5.64453 14.1484 6.875H16.4688C15.7305 5.43359 14.5 4.27344 13.0234 3.60547ZM6.94141 3.60547C5.46484 4.27344 4.23438 5.43359 3.49609 6.875H5.81641C6.0625 5.64453 6.44922 4.51953 6.94141 3.60547ZM2.6875 10.25C2.6875 10.8477 2.72266 11.4102 2.86328 11.9375H5.57031C5.5 11.4102 5.5 10.8477 5.5 10.25C5.5 9.6875 5.5 9.125 5.57031 8.5625H2.86328C2.72266 9.125 2.6875 9.6875 2.6875 10.25ZM16.4688 13.625H14.1484C13.9023 14.8906 13.5156 16.0156 13.0234 16.9297C14.5 16.2617 15.7305 15.1016 16.4688 13.625ZM5.81641 13.625H3.49609C4.23438 15.1016 5.46484 16.2617 6.94141 16.9297C6.44922 16.0156 6.0625 14.8906 5.81641 13.625Z"
    fill="currentColor"
  />
</svg>
