<svg width="24" height="24" viewBox="0 0 24 24" fill="none" xmlns="http://www.w3.org/2000/svg" data-fui-icon="true">
  <path
    d="M18.2499 9.49995C21.4611 9.49995 23.9998 12.228 23.9999 15.5116C23.9999 17.8666 22.5945 19.9787 21.3124 21.4315C20.6587 22.1723 20.0071 22.7754 19.5194 23.1932C19.2751 23.4026 19.0706 23.5668 18.9257 23.6796C18.8532 23.7359 18.7952 23.7793 18.7548 23.8094C18.7346 23.8245 18.7182 23.8364 18.7069 23.8446C18.7015 23.8486 18.6975 23.852 18.6942 23.8544C18.6927 23.8555 18.6913 23.8566 18.6903 23.8573L18.6884 23.8583L18.2499 23.2499L18.6874 23.8593C18.426 24.0469 18.0738 24.0469 17.8124 23.8593L18.2499 23.2499L17.8114 23.8583L17.8095 23.8573C17.8085 23.8566 17.8071 23.8555 17.8056 23.8544C17.8024 23.852 17.7983 23.8486 17.7929 23.8446C17.7816 23.8364 17.7652 23.8245 17.745 23.8094C17.7046 23.7793 17.6466 23.7359 17.5741 23.6796C17.4292 23.5668 17.2247 23.4026 16.9804 23.1932C16.4928 22.7754 15.8411 22.1723 15.1874 21.4315C13.9053 19.9787 12.4999 17.8666 12.4999 15.5116C12.5 12.228 15.0387 9.49995 18.2499 9.49995ZM12.0009 0C17.3257 0.000410365 21.8391 3.46883 23.4081 8.26754C23.5362 8.66076 23.3215 9.0839 22.9286 9.21284C22.5351 9.34151 22.1113 9.12668 21.9823 8.73335C20.9193 5.48236 18.3117 2.93078 15.0282 1.94335C15.0945 2.03987 15.1601 2.13863 15.2226 2.23925C16.0283 3.5361 16.6443 5.32308 17.0146 7.36715C17.0878 7.77428 16.8171 8.16429 16.4101 8.23824C16.0028 8.31184 15.613 8.04092 15.539 7.63375C15.1897 5.70525 14.6231 4.1161 13.9491 3.03123C13.2578 1.91874 12.565 1.50023 11.9999 1.49999H11.999C11.6178 1.50027 11.1867 1.68381 10.7206 2.15917C10.2517 2.63752 9.79413 3.36815 9.39448 4.33201C9.02141 5.23185 8.7119 6.30369 8.48726 7.49996H12.9999C13.414 7.50009 13.7499 7.83583 13.7499 8.24996C13.7499 8.66409 13.414 8.99982 12.9999 8.99995H8.25972C8.14772 9.94905 8.0859 10.9556 8.0859 11.9999C8.08593 13.0445 8.14763 14.0507 8.25972 14.9999H10.2499C10.664 15.0001 10.9999 15.3358 10.9999 15.7499C10.9999 16.1641 10.664 16.4998 10.2499 16.4999H8.48726C8.71189 17.6955 9.02154 18.7674 9.39448 19.6669C9.79408 20.6305 10.2518 21.3615 10.7206 21.8397C11.1865 22.3148 11.6179 22.4977 11.999 22.4979L12.0009 22.4989C12.4759 22.4989 12.9437 22.4671 13.4013 22.4061C13.8117 22.3517 14.1893 22.6403 14.2441 23.0507C14.2984 23.4609 14.0097 23.8385 13.5995 23.8934C13.0762 23.9632 12.5416 23.9979 11.9999 23.9979V23.9989L11.999 23.9979C5.37282 23.9971 0.000510607 18.6261 0 11.9999C0 5.3733 5.3725 0.000791689 11.999 0H12.0009ZM18.2499 10.9999C15.9384 10.9999 14 12.9833 13.9999 15.5116C13.9999 17.3008 15.0946 19.0583 16.3124 20.4384C16.9086 21.114 17.5071 21.6681 17.9569 22.0536C18.064 22.1453 18.1624 22.2273 18.2499 22.2987C18.3374 22.2273 18.4358 22.1453 18.5429 22.0536C18.9927 21.6681 19.5912 21.114 20.1874 20.4384C21.4053 19.0583 22.4999 17.3008 22.4999 15.5116C22.4998 12.9833 20.5614 10.9999 18.2499 10.9999ZM2.51268 16.4999C3.7739 19.1535 6.11527 21.1923 8.9687 22.0516C8.6089 21.5261 8.28888 20.9143 8.00972 20.2411C7.56382 19.1657 7.20756 17.8972 6.96286 16.4999H2.51268ZM18.2499 12.9999C19.4925 12.9999 20.4999 14.0073 20.4999 15.2499C20.4999 16.4926 19.4925 17.4999 18.2499 17.4999C17.0073 17.4999 15.9999 16.4926 15.9999 15.2499C15.9999 14.0073 17.0073 12.9999 18.2499 12.9999ZM18.2499 14.4999C17.8357 14.4999 17.4999 14.8357 17.4999 15.2499C17.4999 15.6641 17.8357 15.9999 18.2499 15.9999C18.6641 15.9999 18.9999 15.6641 18.9999 15.2499C18.9999 14.8357 18.6641 14.4999 18.2499 14.4999ZM1.93749 8.99995C1.65453 9.95056 1.50097 10.9574 1.50097 11.9999C1.50106 13.0427 1.65529 14.0492 1.93847 14.9999H6.74899C6.64226 14.0395 6.58594 13.0338 6.5859 11.9999C6.5859 10.9663 6.64234 9.96026 6.74899 8.99995H1.93749ZM8.9687 1.9453C6.11456 2.80483 3.77278 4.84543 2.51171 7.49996H6.96286C7.20755 6.10197 7.56369 4.8336 8.00972 3.75779C8.28906 3.08411 8.60861 2.47115 8.9687 1.9453Z"
    fill="currentColor"
  />
</svg>
