<svg width="16" height="16" viewBox="0 0 16 16" fill="none" xmlns="http://www.w3.org/2000/svg" data-fui-icon="true">
  <path
    d="M14.6338 11.5C13.3762 13.8786 10.8778 15.5 8 15.5C5.12215 15.5 2.62379 13.8786 1.36621 11.5H4.86914C4.98762 12.0258 5.1296 12.5151 5.29883 12.9551C5.55089 13.6104 5.87566 14.2096 6.28711 14.6621C6.69882 15.1148 7.27621 15.5 8 15.5C8.72379 15.5 9.30118 15.1148 9.71289 14.6621C10.1243 14.2096 10.4491 13.6104 10.7012 12.9551C10.8704 12.5151 11.0124 12.0258 11.1309 11.5H14.6338ZM9.07129 11.5C8.99856 11.7656 8.92039 12.0126 8.83398 12.2373C8.63368 12.758 8.42009 13.1111 8.2334 13.3164C8.04692 13.5215 7.9665 13.5 8 13.5C8.0335 13.5 7.95308 13.5215 7.7666 13.3164C7.57991 13.1111 7.36632 12.758 7.16602 12.2373C7.07961 12.0126 7.00144 11.7656 6.92871 11.5H9.07129ZM4.56543 6.5C4.52391 6.98622 4.5 7.48809 4.5 8C4.5 8.51191 4.52391 9.01378 4.56543 9.5H0.650391C0.551999 9.01531 0.5 8.51372 0.5 8C0.5 7.48628 0.551999 6.98469 0.650391 6.5H4.56543ZM9.42578 6.5C9.47207 6.97583 9.5 7.4781 9.5 8C9.5 8.5219 9.47207 9.02417 9.42578 9.5H6.57422C6.52793 9.02417 6.5 8.5219 6.5 8C6.5 7.4781 6.52793 6.97583 6.57422 6.5H9.42578ZM15.3496 6.5C15.448 6.98469 15.5 7.48628 15.5 8C15.5 8.51372 15.448 9.01531 15.3496 9.5H11.4346C11.4761 9.01378 11.5 8.51191 11.5 8C11.5 7.48809 11.4761 6.98622 11.4346 6.5H15.3496ZM8 0.5C7.27621 0.5 6.69882 0.885176 6.28711 1.33789C5.87566 1.79037 5.55089 2.38957 5.29883 3.04492C5.1296 3.48493 4.98762 3.9742 4.86914 4.5H1.36621C2.62379 2.12136 5.12215 0.5 8 0.5ZM8 2.5C7.9665 2.5 8.04692 2.47852 8.2334 2.68359C8.42009 2.88894 8.63368 3.24197 8.83398 3.7627C8.92039 3.98735 8.99856 4.23438 9.07129 4.5H6.92871C7.00144 4.23438 7.07961 3.98735 7.16602 3.7627C7.36632 3.24197 7.57991 2.88894 7.7666 2.68359C7.95308 2.47852 8.0335 2.5 8 2.5ZM8 0.5C10.8778 0.5 13.3762 2.12136 14.6338 4.5H11.1309C11.0124 3.9742 10.8704 3.48493 10.7012 3.04492C10.4491 2.38957 10.1243 1.79037 9.71289 1.33789C9.30118 0.885176 8.72379 0.5 8 0.5Z"
    fill="currentColor"
  />
</svg>
