<svg width="24" height="24" viewBox="0 0 24 24" fill="none" xmlns="http://www.w3.org/2000/svg" data-fui-icon="true">
  <path
    d="M12 0C18.6274 0 24 5.37258 24 12C24 18.6274 18.6274 24 12 24C5.37258 24 0 18.6274 0 12C0 5.37258 5.37258 0 12 0ZM9.90332 12.2939C9.66212 12.0987 9.34534 12.0235 9.04199 12.0889L8.21973 12.2656C7.96365 12.3209 7.71688 12.4127 7.48633 12.5371L7.35547 12.6074C6.77978 12.9181 6.33678 13.4277 6.10938 14.041C5.90341 14.5968 5.88667 15.2052 6.06152 15.7715L6.33496 16.6582C6.44146 17.003 6.65822 17.3039 6.95117 17.5146C7.23314 17.7175 7.57158 17.8271 7.91895 17.8271H8.06445C9.08351 17.8271 10.0299 18.3547 10.5654 19.2217C10.7565 19.531 10.8888 19.873 10.9551 20.2305L11.1045 21.0381C11.205 21.5803 11.4905 22.0713 11.9121 22.4268C11.9387 22.4492 11.9626 22.4739 11.9854 22.499C11.9902 22.499 11.9951 22.5 12 22.5C12.4322 22.5 12.8578 22.4697 13.2764 22.4189C13.2936 22.3512 13.3171 22.2839 13.3545 22.2207L14.3945 20.4609C14.487 20.3045 14.5361 20.1261 14.5361 19.9443C14.5361 19.135 14.9251 18.3751 15.582 17.9023L15.6748 17.835C15.8227 17.7285 15.9267 17.572 15.9678 17.3945L16.0059 17.2305C16.0701 16.9532 15.9172 16.6715 15.6494 16.5752C15.4525 16.5043 15.2673 16.4039 15.1006 16.2773L14.415 15.7568C13.7068 15.2191 13.2267 14.4339 13.0703 13.5586L12.9072 12.6504C12.9003 12.6118 12.8763 12.5782 12.8418 12.5596C12.7986 12.5364 12.7459 12.5398 12.7061 12.5684L12.5732 12.6641C11.8816 13.1617 10.9425 13.1347 10.2803 12.5986L9.90332 12.2939ZM12 1.5C6.20101 1.5 1.5 6.20101 1.5 12C1.5 17.0995 5.13558 21.3486 9.95605 22.2998C9.80486 21.9885 9.69385 21.6567 9.62988 21.3115L9.48047 20.5039C9.448 20.3289 9.38263 20.1612 9.28906 20.0098C9.02676 19.5853 8.56342 19.3271 8.06445 19.3271H7.91895C7.25724 19.3271 6.61235 19.1188 6.0752 18.7324C5.51723 18.331 5.10527 17.7583 4.90234 17.1016L4.62793 16.2148C4.35561 15.3331 4.38249 14.3858 4.70312 13.5205C5.05716 12.5653 5.74703 11.7709 6.64355 11.2871L6.77344 11.2168C7.12841 11.0252 7.50904 10.8849 7.90332 10.7998L8.72559 10.6221C9.47271 10.4609 10.2526 10.6471 10.8467 11.1279L11.2236 11.4336C11.3603 11.5442 11.5546 11.549 11.6973 11.4463L11.8301 11.3506C12.3362 10.9866 13.006 10.9442 13.5547 11.2402C13.9915 11.4761 14.2975 11.8981 14.3848 12.3867L14.5469 13.2949C14.637 13.7993 14.9133 14.2516 15.3213 14.5615L16.0078 15.083C16.0532 15.1174 16.1036 15.1448 16.1572 15.1641C17.1402 15.5177 17.7033 16.5506 17.4678 17.5684L17.4297 17.7334C17.3065 18.2652 16.9939 18.7339 16.5508 19.0527L16.458 19.1201C16.1929 19.311 16.0361 19.6177 16.0361 19.9443C16.0361 20.3946 15.9147 20.837 15.6855 21.2246L15.2324 21.9902C15.5231 21.8962 15.8089 21.7919 16.0879 21.6738C16.1033 21.6478 16.1357 21.5901 16.1768 21.4854C16.2337 21.3403 16.287 21.1636 16.333 20.9824C16.3783 20.8038 16.4136 20.6344 16.4375 20.5088C16.4494 20.4465 16.458 20.3956 16.4639 20.3613C16.4668 20.3442 16.4694 20.3306 16.4707 20.3223C16.4713 20.3184 16.4714 20.3151 16.4717 20.3135V20.3125L16.4873 20.2373C16.583 19.8694 16.9444 19.6263 17.3281 19.6855C17.7116 19.745 17.9815 20.0855 17.9619 20.4648L17.9541 20.542V20.5439C17.9539 20.545 17.9534 20.5462 17.9531 20.5479C17.9526 20.5514 17.9521 20.5565 17.9512 20.5625C17.9492 20.5746 17.946 20.5919 17.9424 20.6133C17.9399 20.6276 17.9367 20.6439 17.9336 20.6621C20.1265 19.1571 21.7193 16.842 22.2793 14.1475C22.2622 14.0846 22.25 14.0194 22.25 13.9512C22.2499 13.8869 22.221 13.792 22.0869 13.6592C21.9514 13.5249 21.7678 13.4144 21.6172 13.3398C21.5965 13.3296 21.5488 13.3135 21.4561 13.3135C20.7834 13.3135 20.1463 13.0099 19.7227 12.4873L19.042 11.6484L19.0186 11.6191L18.998 11.5879L18.6885 11.1172C18.65 11.0585 18.5673 11.0512 18.5195 11.1025C18.4844 11.1404 18.4807 11.2078 18.5225 11.2529C18.8848 11.6441 19.0345 12.1936 18.9131 12.7178L18.6689 13.7715C18.5689 14.2033 18.2875 14.5707 17.8975 14.7812C17.2777 15.1157 16.5099 14.9893 16.0312 14.4727L15.5137 13.9141C15.1886 13.5632 14.97 13.1265 14.8828 12.6562L14.5537 10.8867L14.4453 10.5361C13.8024 10.9038 12.9698 10.7033 12.5713 10.0586L12.2871 9.59863C12.24 9.52229 12.1674 9.46397 12.083 9.43359L11.9473 9.38477C11.6961 9.29448 11.4169 9.33346 11.2002 9.48926L10.9844 9.64453C10.6229 9.90459 10.2049 10.0755 9.76465 10.1426L9.30371 10.2119C9.10971 10.2415 8.91257 10.2444 8.71777 10.2207L8.24902 10.1641C7.43448 10.0648 6.82149 9.37326 6.82129 8.55273C6.82129 7.86798 7.25118 7.25622 7.89551 7.02441L8.27246 6.88867C8.37674 6.8511 8.47054 6.78929 8.5459 6.70801L8.67773 6.56641C8.86213 6.36732 8.96387 6.10535 8.96387 5.83398C8.96389 5.63844 8.98616 5.44343 9.03027 5.25293L9.21973 4.43652C9.38489 3.72393 9.8037 3.0952 10.3975 2.66797L10.707 2.44531C11.0191 2.22088 11.3939 2.10059 11.7783 2.10059C11.9935 2.10053 12.1528 1.90002 12.1045 1.69043L12.0605 1.50098C12.0404 1.50086 12.0202 1.5 12 1.5ZM13.6045 1.62207C13.6893 2.66809 12.8658 3.60054 11.7783 3.60059C11.7083 3.60059 11.6399 3.62221 11.583 3.66309L11.2734 3.88574C10.9748 4.10065 10.7637 4.41692 10.6807 4.77539L10.4922 5.59082C10.4738 5.6704 10.4639 5.7523 10.4639 5.83398C10.4639 6.48346 10.2188 7.10952 9.77734 7.58594L9.64648 7.72754C9.40779 7.98514 9.11072 8.18187 8.78027 8.30078L8.40332 8.43652C8.35429 8.45416 8.32129 8.50062 8.32129 8.55273C8.32149 8.61489 8.368 8.6671 8.42969 8.6748L8.89941 8.73242C8.9587 8.73963 9.01908 8.73849 9.07812 8.72949L9.53809 8.65918C9.74376 8.62784 9.93952 8.54827 10.1084 8.42676L10.3242 8.27148C10.942 7.82717 11.739 7.71517 12.4551 7.97266L12.5908 8.02246C12.9943 8.16762 13.337 8.44483 13.5625 8.80957L13.79 9.17773C14.5046 8.74569 15.4366 9.04136 15.7754 9.79492L15.8379 9.95898L16.002 10.4922L16.0156 10.5342L16.0234 10.5771L16.3584 12.3838C16.3939 12.5747 16.4823 12.7521 16.6143 12.8945L17.1318 13.4531C17.1455 13.4678 17.1679 13.4715 17.1855 13.4619C17.1967 13.4559 17.2042 13.445 17.207 13.4326L17.4512 12.3789C17.4592 12.3439 17.4496 12.3024 17.4219 12.2725C16.8539 11.6594 16.8442 10.7033 17.4189 10.083C18.129 9.31675 19.3701 9.42055 19.9434 10.2939L20.2295 10.7314L20.8877 11.543C21.0265 11.7142 21.2356 11.8135 21.4561 11.8135C21.7048 11.8135 21.9975 11.8537 22.2832 11.9951C22.346 12.0262 22.4184 12.0649 22.4971 12.1104C22.4974 12.0736 22.5 12.0368 22.5 12C22.5 6.74657 18.6419 2.3945 13.6045 1.62207ZM8 3.02539C8.41421 3.02539 8.75 3.36118 8.75 3.77539C8.74999 4.49366 8.59392 5.20373 8.29199 5.85547L8.25195 5.94043C8.07784 6.31627 7.6317 6.47978 7.25586 6.30566C6.88041 6.13148 6.71685 5.68618 6.89062 5.31055L6.93066 5.22461C7.14105 4.77047 7.24999 4.27589 7.25 3.77539C7.25 3.36118 7.58579 3.02539 8 3.02539Z"
    fill="currentColor"
  />
</svg>
