<svg width="32" height="32" viewBox="0 0 32 32" fill="none" xmlns="http://www.w3.org/2000/svg" data-fui-icon="true">
  <path
    d="M9.22048 21.5C9.36583 21.5 9.49011 21.6043 9.51695 21.7472C9.84209 23.478 10.3099 25.0471 10.8936 26.3779C11.4839 27.7239 12.2068 28.8598 13.0469 29.6699C13.8906 30.4836 14.8896 31 16 31C17.1104 31 18.1094 30.4836 18.9531 29.6699C19.7932 28.8598 20.5161 27.7238 21.1064 26.3779C21.6901 25.0471 22.1579 23.478 22.483 21.7472C22.5099 21.6043 22.6342 21.5 22.7795 21.5H29.5192C29.7308 21.5 29.8756 21.7133 29.7922 21.9078C27.4988 27.2547 22.1866 31 16 31C9.81336 31 4.50119 27.2547 2.20783 21.9078C2.12442 21.7133 2.2692 21.5 2.48081 21.5H9.22048ZM20.6418 21.5C20.8299 21.5 20.9716 21.6711 20.934 21.8554C20.6331 23.3301 20.2236 24.6554 19.7324 25.7754C19.1919 27.0078 18.5673 27.9579 17.9121 28.5898C17.2604 29.2183 16.6155 29.5 16 29.5C15.3846 29.5 14.7396 29.2183 14.0879 28.5898C13.4327 27.9579 12.8081 27.0078 12.2676 25.7754C11.7764 24.6554 11.3669 23.3301 11.066 21.8554C11.0284 21.6711 11.1701 21.5 11.3582 21.5H20.6418ZM8.90537 12C9.08579 12 9.22529 12.1581 9.20492 12.3373C9.07159 13.5112 9 14.7386 9 16C9 17.2614 9.07159 18.4888 9.20492 19.6627C9.22529 19.8419 9.08579 20 8.90537 20H1.76943C1.63448 20 1.51584 19.91 1.48192 19.7794C1.16828 18.5719 1 17.3056 1 16C1 14.6944 1.16828 13.4281 1.48192 12.2206C1.51584 12.09 1.63448 12 1.76942 12H8.90537ZM20.98 12C21.1306 12 21.258 12.1116 21.2763 12.261C21.4212 13.4468 21.5 14.7006 21.5 16C21.5 17.2994 21.4212 18.5532 21.2763 19.739C21.258 19.8884 21.1306 20 20.98 20H11.02C10.8694 20 10.742 19.8884 10.7237 19.739C10.5788 18.5532 10.5 17.2994 10.5 16C10.5 14.7006 10.5788 13.4468 10.7237 12.261C10.742 12.1116 10.8694 12 11.02 12H20.98ZM30.2306 12C30.3655 12 30.4842 12.09 30.5181 12.2206C30.8317 13.4281 31 14.6944 31 16C31 17.3056 30.8317 18.5719 30.5181 19.7794C30.4842 19.91 30.3655 20 30.2306 20H23.0946C22.9142 20 22.7747 19.8419 22.7951 19.6627C22.9284 18.4888 23 17.2614 23 16C23 14.7386 22.9284 13.5112 22.7951 12.3373C22.7747 12.1581 22.9142 12 23.0946 12H30.2306ZM16 1C14.8896 1.00002 13.8906 1.51641 13.0469 2.33008C12.2068 3.14022 11.4839 4.27615 10.8936 5.62207C10.3099 6.95289 9.84209 8.522 9.51695 10.2528C9.49011 10.3957 9.36583 10.5 9.22048 10.5H2.48081C2.2692 10.5 2.12442 10.2867 2.20783 10.0922C4.50119 4.74525 9.81336 1 16 1ZM16 2.5C16.6155 2.5 17.2604 2.78169 17.9121 3.41016C18.5673 4.04208 19.1919 4.9922 19.7324 6.22461C20.2236 7.3446 20.6331 8.66987 20.934 10.1446C20.9716 10.3289 20.8299 10.5 20.6418 10.5H11.3582C11.1701 10.5 11.0284 10.3289 11.066 10.1446C11.3669 8.66987 11.7764 7.3446 12.2676 6.22461C12.8081 4.99222 13.4327 4.04208 14.0879 3.41016C14.7396 2.78171 15.3846 2.50001 16 2.5ZM16 1C22.1866 1 27.4988 4.74525 29.7922 10.0922C29.8756 10.2867 29.7308 10.5 29.5192 10.5H22.7795C22.6342 10.5 22.5099 10.3957 22.483 10.2528C22.1579 8.522 21.6901 6.95289 21.1064 5.62207C20.5161 4.27616 19.7932 3.14021 18.9531 2.33008C18.1094 1.51643 17.1104 1 16 1Z"
    fill="currentColor"
  />
</svg>
