<svg width="32" height="32" viewBox="0 0 32 32" fill="none" xmlns="http://www.w3.org/2000/svg" data-fui-icon="true">
  <path
    fill-rule="evenodd"
    clip-rule="evenodd"
    d="M3.6675 10.5C5.30426 6.83548 8.5264 4.03429 12.462 2.96836C11.8672 3.69792 11.3423 4.59964 10.8937 5.62248C10.2823 7.01639 9.79668 8.67137 9.47029 10.5H3.6675ZM3.10244 12C2.71088 13.264 2.5 14.6074 2.5 16C2.5 17.3926 2.71088 18.736 3.10244 20H9.24359C9.08447 18.7247 8.99995 17.3828 8.99995 16C8.99995 14.6172 9.08447 13.2753 9.24359 12H3.10244ZM10.7558 12C10.5899 13.2622 10.5 14.6049 10.5 16C10.5 17.3951 10.5899 18.7378 10.7558 20H21.2441C21.41 18.7378 21.5 17.3951 21.5 16C21.5 14.6049 21.41 13.2622 21.2441 12L10.7558 12ZM22.7563 12C22.9154 13.2753 23 14.6172 23 16C23 17.3828 22.9154 18.7247 22.7563 20H28.8976C29.2891 18.736 29.5 17.3926 29.5 16C29.5 14.6074 29.2891 13.264 28.8976 12H22.7563ZM28.3325 10.5H22.5296C22.2032 8.67137 21.7176 7.0164 21.1062 5.62249C20.6576 4.59964 20.1328 3.69791 19.538 2.96835C23.4736 4.03428 26.6957 6.83546 28.3325 10.5ZM28.3325 21.5H22.5296C22.2032 23.3286 21.7176 24.9836 21.1062 26.3775C20.6576 27.4004 20.1328 28.3021 19.538 29.0316C23.4736 27.9657 26.6957 25.1645 28.3325 21.5ZM21.0045 21.5H10.9954C11.3015 23.1175 11.737 24.5658 12.2674 25.775C12.8081 27.0077 13.4325 27.9583 14.0878 28.5903C14.7395 29.2188 15.3845 29.5 16 29.5C16.6155 29.5 17.2605 29.2188 17.9122 28.5903C18.5675 27.9583 19.1919 27.0077 19.7325 25.775C20.2629 24.5658 20.6985 23.1175 21.0045 21.5ZM9.47029 21.5H3.6675C5.30426 25.1645 8.5264 27.9657 12.462 29.0316C11.8672 28.3021 11.3423 27.4004 10.8937 26.3775C10.2823 24.9836 9.79668 23.3286 9.47029 21.5ZM21.0045 10.5L10.9954 10.5C11.3015 8.88252 11.737 7.4342 12.2674 6.22498C12.8081 4.99227 13.4325 4.04169 14.0878 3.4097C14.7395 2.78124 15.3845 2.5 16 2.5C16.6155 2.5 17.2605 2.78123 17.9122 3.4097C18.5675 4.04168 19.1919 4.99227 19.7325 6.22497C20.2629 7.43419 20.6985 8.88251 21.0045 10.5ZM1 16C1 7.71573 7.71573 1 16 1C24.2843 1 31 7.71573 31 16C31 24.2843 24.2843 31 16 31C7.71573 31 1 24.2843 1 16Z"
    fill="currentColor"
  />
</svg>
