<svg width="12" height="12" viewBox="0 0 12 12" fill="none" xmlns="http://www.w3.org/2000/svg" data-fui-icon="true">
  <g clip-path="url(#clip0_1679_667)">
    <path
      d="M9.75 0C10.9926 0 12 1.00736 12 2.25V9.75C12 10.9926 10.9926 12 9.75 12H2.25C1.00736 12 0 10.9926 0 9.75V2.25C0 1.00736 1.00736 0 2.25 0H9.75ZM2.25 1.5C1.83579 1.5 1.5 1.83579 1.5 2.25V9.75C1.5 10.1382 1.79488 10.4575 2.17285 10.4961L2.25 10.5H9.75C10.1642 10.5 10.5 10.1642 10.5 9.75V2.25C10.5 1.83579 10.1642 1.5 9.75 1.5H2.25ZM6 2.25C8.07107 2.25 9.75 3.92893 9.75 6C9.75 8.07107 8.07107 9.75 6 9.75C3.92893 9.75 2.25 8.07107 2.25 6C2.25 3.92893 3.92893 2.25 6 2.25ZM3.87793 6.75C4.10389 7.38931 4.61069 7.89611 5.25 8.12207V6.75H3.87793ZM6.75 6.75V8.12207C7.38931 7.89611 7.89611 7.38931 8.12207 6.75H6.75ZM5.25 3.87793C4.61069 4.10389 4.10389 4.61069 3.87793 5.25H5.25V3.87793ZM6.75 5.25H8.12207C7.89611 4.61069 7.38931 4.10389 6.75 3.87793V5.25Z"
      fill="currentColor"
    />
  </g>
  <defs>
    <clipPath id="clip0_1679_667"><path fill="currentColor" d="M0 0H12V12H0z" /></clipPath>
  </defs>
</svg>
