<svg width="20" height="20" viewBox="0 0 20 20" fill="none" xmlns="http://www.w3.org/2000/svg" data-fui-icon="true">
  <path
    d="M10 0.5C15.2467 0.5 19.5 4.75329 19.5 10C19.5 15.2467 15.2467 19.5 10 19.5C4.75329 19.5 0.5 15.2467 0.5 10C0.5 4.75329 4.75329 0.5 10 0.5ZM7.93848 14C8.08167 14.6046 8.25373 15.1528 8.4502 15.6299C8.73738 16.3272 9.05406 16.8262 9.35449 17.1348C9.65174 17.44 9.86951 17.5 10 17.5C10.1305 17.5 10.3483 17.44 10.6455 17.1348C10.9459 16.8262 11.2626 16.3272 11.5498 15.6299C11.7463 15.1528 11.9183 14.6046 12.0615 14H7.93848ZM3.65723 14C4.40978 15.1908 5.48647 16.1562 6.76562 16.7686C6.70863 16.6453 6.65331 16.5196 6.60059 16.3916C6.3099 15.6856 6.07069 14.8788 5.88965 14H3.65723ZM14.1104 14C13.9293 14.8788 13.6901 15.6856 13.3994 16.3916C13.3466 16.5198 13.2905 16.6451 13.2334 16.7686C14.5129 16.1562 15.5901 15.1911 16.3428 14H14.1104ZM14.4062 8C14.4673 8.64657 14.5 9.31603 14.5 10C14.5 10.684 14.4673 11.3534 14.4062 12H17.2285C17.4043 11.3631 17.5 10.6928 17.5 10C17.5 9.30722 17.4043 8.63686 17.2285 8H14.4062ZM7.60352 8C7.53684 8.63526 7.5 9.30522 7.5 10C7.5 10.6948 7.53684 11.3647 7.60352 12H12.3965C12.4632 11.3647 12.5 10.6948 12.5 10C12.5 9.30522 12.4632 8.63526 12.3965 8H7.60352ZM2.77148 8C2.59567 8.63686 2.5 9.30722 2.5 10C2.5 10.6928 2.59567 11.3631 2.77148 12H5.59375C5.53274 11.3534 5.5 10.684 5.5 10C5.5 9.31603 5.53274 8.64657 5.59375 8H2.77148ZM13.2334 3.23047C13.2906 3.35414 13.3465 3.47996 13.3994 3.6084C13.6901 4.31435 13.9293 5.12124 14.1104 6H16.3428C15.59 4.80882 14.5131 3.84279 13.2334 3.23047ZM10 2.5C9.86951 2.5 9.65174 2.56001 9.35449 2.86523C9.05406 3.17384 8.73738 3.67277 8.4502 4.37012C8.25373 4.84725 8.08167 5.39536 7.93848 6H12.0615C11.9183 5.39536 11.7463 4.84725 11.5498 4.37012C11.2626 3.67277 10.9459 3.17384 10.6455 2.86523C10.3483 2.56001 10.1305 2.5 10 2.5ZM6.76562 3.23047C5.4863 3.84281 4.40985 4.80906 3.65723 6H5.88965C6.07069 5.12124 6.3099 4.31435 6.60059 3.6084C6.65343 3.48009 6.70849 3.35402 6.76562 3.23047Z"
    fill="currentColor"
  />
</svg>
