<svg width="20" height="20" viewBox="0 0 20 20" fill="none" xmlns="http://www.w3.org/2000/svg" data-fui-icon="true">
  <path
    d="M13.4004 1C16.4929 1.00021 18.9998 3.50712 19 6.59961V13.4004C18.9998 16.4929 16.4929 18.9998 13.4004 19H6.59961C3.50713 18.9998 1.00021 16.4929 1 13.4004V6.59961C1.00021 3.50712 3.50712 1.00021 6.59961 1H13.4004ZM6.59961 3C4.61169 3.00021 3.00021 4.61169 3 6.59961V13.4004C3.00021 15.3883 4.61169 16.9998 6.59961 17H13.4004C15.3883 16.9998 16.9998 15.3883 17 13.4004V6.59961C16.9998 4.61169 15.3883 3.00021 13.4004 3H6.59961ZM10 4.125C13.2447 4.125 15.875 6.75533 15.875 10C15.875 13.2447 13.2447 15.875 10 15.875C6.75533 15.875 4.125 13.2447 4.125 10C4.125 6.75533 6.75533 4.125 10 4.125ZM9.1543 10.875C9.2167 11.8178 9.3761 12.6381 9.58887 13.2461C9.72841 13.6448 9.87438 13.9052 9.99316 14.0488C9.99522 14.0513 9.99801 14.0533 10 14.0557C10.002 14.0533 10.0048 14.0513 10.0068 14.0488C10.1256 13.9052 10.2716 13.6448 10.4111 13.2461C10.6239 12.6381 10.7833 11.8178 10.8457 10.875H9.1543ZM5.96875 10.875C6.20902 11.9872 6.8974 12.9321 7.83594 13.5117C7.60856 12.7567 7.45905 11.8517 7.40234 10.875H5.96875ZM12.5977 10.875C12.5409 11.8518 12.3905 12.7566 12.1631 13.5117C13.102 12.9322 13.7909 11.9875 14.0312 10.875H12.5977ZM12.1631 6.4873C12.3907 7.24256 12.5409 8.1478 12.5977 9.125H14.0312C13.7909 8.01234 13.1022 7.06684 12.1631 6.4873ZM9.99316 5.95117C9.87438 6.09477 9.72841 6.35522 9.58887 6.75391C9.3761 7.36189 9.2167 8.18219 9.1543 9.125H10.8457C10.7833 8.18219 10.6239 7.36189 10.4111 6.75391C10.2716 6.35521 10.1256 6.09477 10.0068 5.95117C10.0046 5.94849 10.0021 5.9459 10 5.94336C9.99786 5.9459 9.99538 5.94849 9.99316 5.95117ZM7.83594 6.4873C6.89717 7.06688 6.20906 8.01262 5.96875 9.125H7.40234C7.45907 8.14792 7.60841 7.24251 7.83594 6.4873Z"
    fill="currentColor"
  />
</svg>
