<svg width="16" height="16" viewBox="0 0 16 16" fill="none" xmlns="http://www.w3.org/2000/svg" data-fui-icon="true">
  <g clip-path="url(#clip0_882_1366)">
    <path
      fill-rule="evenodd"
      clip-rule="evenodd"
      d="M8 2C7.8878 2 7.7087 2.05267 7.46975 2.30075C7.22877 2.55093 6.97719 2.95242 6.75003 3.51C6.57463 3.94051 6.42258 4.44239 6.30211 4.99988L9.69789 4.99988C9.57742 4.44239 9.42537 3.94051 9.24997 3.51C9.02281 2.95242 8.77123 2.55093 8.53025 2.30075C8.2913 2.05267 8.1122 2 8 2ZM5.36089 2.94406C5.11579 3.54566 4.91644 4.24039 4.77153 4.99988H2.80276C3.43206 3.91208 4.39306 3.04018 5.54747 2.52251C5.4819 2.65886 5.41972 2.79964 5.36089 2.94406ZM4.56512 6.49988H2.18906C2.06564 6.97934 2 7.48201 2 8C2 8.51799 2.06564 9.02066 2.18906 9.50012H4.56512C4.52229 9.01428 4.5 8.51234 4.5 8C4.5 7.48766 4.52229 6.98572 4.56512 6.49988ZM4.77153 11.0001H2.80276C3.43206 12.0879 4.39306 12.9598 5.54747 13.4775C5.4819 13.3411 5.41972 13.2004 5.36089 13.0559C5.11579 12.4543 4.91644 11.7596 4.77153 11.0001ZM6.30211 11.0001L9.69789 11.0001C9.57742 11.5576 9.42537 12.0595 9.24997 12.49C9.02281 13.0476 8.77123 13.4491 8.53025 13.6992C8.2913 13.9473 8.1122 14 8 14C7.8878 14 7.7087 13.9473 7.46975 13.6992C7.22877 13.4491 6.97719 13.0476 6.75003 12.49C6.57463 12.0595 6.42258 11.5576 6.30211 11.0001ZM9.92849 9.50012L6.07151 9.50012C6.02499 9.02167 6 8.51943 6 8C6 7.48057 6.02499 6.97833 6.07151 6.49988L9.92849 6.49988C9.97501 6.97833 10 7.48057 10 8C10 8.51943 9.97501 9.02168 9.92849 9.50012ZM11.2285 11.0001C11.0836 11.7596 10.8842 12.4543 10.6391 13.0559C10.5803 13.2004 10.5181 13.3411 10.4525 13.4775C11.6069 12.9598 12.5679 12.0879 13.1972 11.0001H11.2285ZM13.8109 9.50012H11.4349C11.4777 9.01428 11.5 8.51234 11.5 8C11.5 7.48766 11.4777 6.98572 11.4349 6.49988H13.8109C13.9344 6.97934 14 7.48201 14 8C14 8.51799 13.9344 9.02066 13.8109 9.50012ZM10.4525 2.52251C11.6069 3.04018 12.5679 3.91208 13.1972 4.99988H11.2285C11.0836 4.24039 10.8842 3.54566 10.6391 2.94406C10.5803 2.79964 10.5181 2.65885 10.4525 2.52251ZM8 15.5C12.1421 15.5 15.5 12.1421 15.5 8C15.5 3.85786 12.1421 0.5 8 0.5C3.85786 0.5 0.5 3.85786 0.5 8C0.5 12.1421 3.85786 15.5 8 15.5Z"
      fill="currentColor"
    />
  </g>
  <defs>
    <clipPath id="clip0_882_1366"><path fill="currentColor" d="M0 0H16V16H0z" /></clipPath>
  </defs>
</svg>
