<svg width="24" height="24" viewBox="0 0 24 24" fill="none" xmlns="http://www.w3.org/2000/svg" data-fui-icon="true">
  <path
    d="M7.15039 16.5C7.38525 17.762 7.71541 18.9097 8.12598 19.8906C8.55587 20.9176 9.08692 21.798 9.71484 22.4326C10.3456 23.07 11.1187 23.5 12 23.5C7.2457 23.5 3.16548 20.6149 1.41406 16.5H7.15039ZM22.5859 16.5C20.8345 20.6149 16.7543 23.5 12 23.5C12.8813 23.5 13.6544 23.07 14.2852 22.4326C14.9131 21.798 15.4441 20.9176 15.874 19.8906C16.2846 18.9097 16.6147 17.762 16.8496 16.5H22.5859ZM15.3232 16.5C15.1107 17.557 14.8271 18.5067 14.4902 19.3115C14.1059 20.2297 13.6674 20.9246 13.2188 21.3779C12.7728 21.8285 12.3613 22 12 22C11.6387 22 11.2272 21.8285 10.7812 21.3779C10.3326 20.9246 9.89414 20.2297 9.50977 19.3115C9.17289 18.5067 8.88926 17.557 8.67676 16.5H15.3232ZM23.1025 9C23.3604 9.95658 23.5 10.9619 23.5 12C23.5 13.0381 23.3604 14.0434 23.1025 15H17.0762C17.1888 14.0418 17.25 13.0357 17.25 12C17.25 10.9643 17.1888 9.95817 17.0762 9H23.1025ZM15.5654 9C15.6842 9.94555 15.75 10.9524 15.75 12C15.75 13.0476 15.6842 14.0545 15.5654 15H8.43457C8.31582 14.0545 8.25 13.0476 8.25 12C8.25 10.9524 8.31582 9.94555 8.43457 9H15.5654ZM6.92383 9C6.81121 9.95817 6.75 10.9643 6.75 12C6.75 13.0357 6.81121 14.0418 6.92383 15H0.897461C0.639617 14.0434 0.5 13.0381 0.5 12C0.5 10.9619 0.639617 9.95658 0.897461 9H6.92383ZM12 0.5C11.1187 0.5 10.3456 0.930032 9.71484 1.56738C9.08692 2.20197 8.55587 3.0824 8.12598 4.10938C7.71541 5.09026 7.38525 6.23802 7.15039 7.5H1.41406C3.16548 3.38514 7.2457 0.5 12 0.5ZM12 2C12.3613 2 12.7728 2.17149 13.2188 2.62207C13.6674 3.07542 14.1059 3.77026 14.4902 4.68848C14.8271 5.4933 15.1107 6.44298 15.3232 7.5H8.67676C8.88926 6.44298 9.17289 5.4933 9.50977 4.68848C9.89414 3.77026 10.3326 3.07542 10.7812 2.62207C11.2272 2.17149 11.6387 2 12 2ZM12 0.5C16.7543 0.5 20.8345 3.38514 22.5859 7.5H16.8496C16.6147 6.23802 16.2846 5.09026 15.874 4.10938C15.4441 3.0824 14.9131 2.20197 14.2852 1.56738C13.6544 0.930032 12.8813 0.5 12 0.5Z"
    fill="currentColor"
  />
</svg>
