<svg width="20" height="20" viewBox="0 0 20 20" fill="none" xmlns="http://www.w3.org/2000/svg" data-fui-icon="true">
  <path
    d="M5.70117 14C5.84593 14.0002 5.96925 14.104 5.99707 14.2461C6.1821 15.1944 6.42843 16.0621 6.72559 16.8164C7.07556 17.7046 7.51152 18.475 8.0332 19.0352C8.55587 19.5961 9.22028 19.9999 10 20C6.06294 19.9999 2.65927 17.7235 1.02832 14.416C0.932663 14.222 1.07765 14 1.29395 14H5.70117ZM15.25 8.5C17.8817 8.5 20 10.6566 20 13.2979C19.9999 15.1852 18.833 16.8539 17.8027 17.9766C17.2733 18.5535 16.7456 19.022 16.3516 19.3467C16.154 19.5095 15.9887 19.6376 15.8711 19.7256C15.8124 19.7695 15.7655 19.8034 15.7324 19.8271C15.7159 19.839 15.7027 19.8489 15.6934 19.8555L15.6787 19.8652L15.6768 19.8672C15.4523 20.0223 15.1642 20.0411 14.9238 19.9248L14.8232 19.8672L14.8213 19.8652L14.8066 19.8555C14.7973 19.8489 14.7841 19.839 14.7676 19.8271C14.7345 19.8034 14.6876 19.7695 14.6289 19.7256C14.5113 19.6376 14.346 19.5095 14.1484 19.3467C13.7544 19.022 13.2268 18.5535 12.6973 17.9766C11.667 16.8539 10.5001 15.1852 10.5 13.2979C10.5 10.6566 12.6183 8.5 15.25 8.5ZM9.04004 14C9.22439 15.6191 10.017 17.0145 10.8174 18.0645C10.4907 18.3964 10.2149 18.4999 10 18.5C9.77409 18.4999 9.47953 18.3868 9.13086 18.0127C8.78087 17.6369 8.43043 17.0517 8.12109 16.2666C7.90081 15.7074 7.70877 15.0649 7.55273 14.3574C7.51211 14.1729 7.65475 14 7.84375 14H9.04004ZM15.25 11.25C14.1454 11.25 13.25 12.1454 13.25 13.25C13.25 14.3546 14.1454 15.25 15.25 15.25C16.3546 15.25 17.25 14.3546 17.25 13.25C17.25 12.1454 16.3546 11.25 15.25 11.25ZM5.40332 7.5C5.58158 7.5 5.72036 7.65452 5.7041 7.83203C5.64004 8.53153 5.60645 9.25784 5.60645 10.001C5.60647 10.7436 5.6401 11.469 5.7041 12.168C5.72036 12.3455 5.58157 12.5 5.40332 12.5H0.547852C0.411094 12.4999 0.290847 12.4076 0.259766 12.2744C0.0898626 11.5441 5.8675e-05 10.7829 0 10.001C0 9.21836 0.0896857 8.45648 0.259766 7.72559C0.290844 7.59241 0.411088 7.50005 0.547852 7.5H5.40332ZM12.4863 7.5C12.5538 7.5 12.6157 7.52345 12.666 7.56152C10.7265 8.4499 9.32806 10.3063 9.05176 12.5H7.51367C7.36137 12.5 7.23336 12.3858 7.21777 12.2344C7.14582 11.5239 7.10647 10.7753 7.10645 10.001C7.10645 9.22612 7.14575 8.47668 7.21777 7.76562C7.23335 7.61416 7.36136 7.50003 7.51367 7.5H12.4863ZM10 0C9.21997 9.48969e-05 8.55597 0.405517 8.0332 0.966797C7.51146 1.52704 7.07557 2.29712 6.72559 3.18555C6.42863 3.9395 6.18295 4.80621 5.99805 5.75391C5.97024 5.896 5.84691 5.99978 5.70215 6H1.29395C1.07764 6 0.932649 5.77798 1.02832 5.58398C2.65945 2.27654 6.06325 9.40575e-05 10 0ZM10 1.50098C10.226 1.50106 10.5212 1.61462 10.8701 1.98926C11.22 2.36515 11.5697 2.95044 11.8789 3.73535C12.099 4.29416 12.2902 4.93581 12.4463 5.64258C12.4871 5.8272 12.3453 6 12.1562 6H7.84375C7.6547 6 7.51296 5.82719 7.55371 5.64258C7.70975 4.93577 7.901 4.29419 8.12109 3.73535C8.43042 2.95013 8.78085 2.36514 9.13086 1.98926C9.47978 1.61463 9.77397 1.50107 10 1.50098ZM10 0C13.9367 0.000107282 17.3398 2.27658 18.9707 5.58398C19.0664 5.77798 18.9214 6 18.7051 6H14.2979C14.1531 5.99981 14.0298 5.89602 14.002 5.75391C13.8169 4.80624 13.5714 3.93949 13.2744 3.18555C12.9245 2.29737 12.4893 1.527 11.9678 0.966797C11.445 0.40551 10.78 8.43558e-05 10 0Z"
    fill="currentColor"
  />
</svg>
