<svg width="12" height="12" viewBox="0 0 12 12" fill="none" xmlns="http://www.w3.org/2000/svg" data-fui-icon="true">
  <path
    d="M6 0C9.31371 0 12 2.68629 12 6C12 9.31371 9.31371 12 6 12C2.68629 12 0 9.31371 0 6C0 2.68629 2.68629 0 6 0ZM8.63281 2.35059C8.53892 2.63696 8.4221 2.88291 8.32227 3.0625C8.11342 3.43799 7.78571 3.6774 7.46973 3.81836L7.4248 3.83887L7.39062 3.84863C7.19268 4.52896 6.37466 4.84478 5.77051 4.4668C5.74753 4.48675 5.72486 4.50739 5.7002 4.52539L5.60742 4.59277L5.62109 4.60059L5.75195 4.66992C5.78482 4.68941 5.81669 4.7097 5.84277 4.72656C5.88475 4.7537 5.91399 4.77275 5.94238 4.79102C5.98488 4.78463 6.0263 4.77645 6.06445 4.77246L6.14844 4.76758C6.34267 4.76528 6.51103 4.82508 6.6377 4.90039L6.93457 5.07715C6.95056 5.08666 6.96818 5.09356 6.98633 5.09766L7.19043 5.14355C7.59449 5.23367 7.92662 5.51261 8.09082 5.88965L8.14941 5.93262C8.87335 6.47079 9.05785 7.47772 8.57129 8.2373L8.47168 8.3916C8.46741 8.39827 8.46373 8.40567 8.46094 8.41309C8.30953 8.81828 8.00149 9.14606 7.60645 9.32227L7.46191 9.38672C7.42678 9.40239 7.39395 9.42362 7.36523 9.44922L7.30957 9.49902C7.14061 9.64972 6.94064 9.76162 6.72363 9.82617C6.71357 9.82916 6.70435 9.83557 6.69922 9.84473L6.58203 10.0547C6.50137 10.1985 6.39139 10.3239 6.25879 10.4219L6.17676 10.4814C6.16912 10.4871 6.16009 10.4907 6.15234 10.4961C8.27548 10.4254 10.0251 8.88523 10.417 6.85938H10.3027C10.1593 6.85938 10.0157 6.84076 9.87695 6.80469C9.47896 6.70111 9.13249 6.45606 8.90234 6.11523L8.78223 5.9375C8.60962 5.68173 8.49124 5.39316 8.43457 5.08984L8.33301 4.54688L8.33203 4.54004C8.23887 4.01524 8.2173 3.15556 8.85547 2.56738C8.86394 2.55958 8.87379 2.55292 8.88281 2.54492C8.80184 2.47729 8.71846 2.41248 8.63281 2.35059ZM1.87109 4.20703C1.63222 4.75636 1.5 5.36277 1.5 6C1.5 8.07094 2.89928 9.81387 4.80371 10.3379C4.57335 10.0803 4.48235 9.7207 4.57812 9.37891L4.6582 9.09277V8.77832C4.65823 8.61259 4.68088 8.44768 4.72559 8.28809L4.73535 8.24902C4.45457 8.05812 4.23861 7.78537 4.11914 7.46582L3.96289 7.04883C3.87534 6.81438 3.86986 6.55839 3.94531 6.32227C3.93658 6.31805 3.92765 6.3127 3.91797 6.30859C3.85187 6.28059 3.79602 6.27051 3.75977 6.27051C3.13971 6.27048 2.79226 5.80746 2.64941 5.59766C2.56707 5.47667 2.4885 5.33967 2.4375 5.25391C2.37648 5.15132 2.34093 5.09672 2.31445 5.06445C2.09328 4.79483 1.95595 4.49871 1.87109 4.20703ZM5.52832 6.25781C5.52477 6.3735 5.50271 6.49796 5.44531 6.62598L5.42383 6.67285L5.52344 6.94043C5.53494 6.97122 5.55674 6.9978 5.58496 7.01465L5.68164 7.07129C5.82046 7.15385 5.94103 7.26306 6.03711 7.3916L6.125 7.52637L6.17871 7.63477C6.2845 7.87684 6.30758 8.14688 6.24707 8.40527C6.26336 8.39983 6.27939 8.39358 6.2959 8.38867C6.30159 8.38698 6.3071 8.38383 6.31152 8.37988L6.36719 8.33008C6.51127 8.2016 6.67429 8.09624 6.85059 8.01758L6.99609 7.95215C7.02366 7.93976 7.04501 7.91696 7.05566 7.88867C7.09564 7.7817 7.14739 7.67917 7.20898 7.58301L7.30762 7.42773C7.36905 7.33174 7.34627 7.2048 7.25488 7.13672L7.1543 7.06152C6.98616 6.93653 6.85406 6.7717 6.76367 6.58398L6.66016 6.56152C6.48683 6.52285 6.3206 6.45698 6.16797 6.36621L6.04395 6.29199C6.03155 6.29423 6.01823 6.29634 6.00488 6.29883C5.80601 6.33576 5.6326 6.29372 5.52832 6.25781ZM9.85938 3.68652C9.83781 3.71209 9.81147 3.75624 9.7959 3.84277C9.77598 3.95358 9.77793 4.10097 9.80762 4.27148L9.90918 4.81445C9.92817 4.91608 9.96756 5.01294 10.0254 5.09863L10.1455 5.27539C10.1713 5.31366 10.2102 5.3419 10.2549 5.35352C10.2704 5.35753 10.2867 5.35938 10.3027 5.35938H10.4541C10.3679 4.75452 10.1611 4.18886 9.85938 3.68652ZM6 1.5C5.02916 1.5 4.13069 1.80823 3.39551 2.33105C3.39433 2.40521 3.38579 2.48052 3.36133 2.55469V2.55664C3.35973 2.56183 3.35651 2.57193 3.35254 2.58594C3.34453 2.61424 3.33321 2.6593 3.32031 2.7168C3.29416 2.83339 3.26572 2.9951 3.25488 3.1748C3.2399 3.42372 3.26163 3.65253 3.32715 3.8418C3.47261 3.64713 3.68988 3.50135 3.95996 3.45312L4.30273 3.39258L4.39648 3.37988C4.49729 3.37145 4.59832 3.37831 4.69629 3.39941L4.75391 3.3584C4.89357 3.15998 5.09662 3.01307 5.33105 2.94336L5.46094 2.90527L5.61426 2.87109C5.78917 2.8449 5.96525 2.86264 6.12988 2.91699C6.26838 2.71397 6.47292 2.55716 6.7207 2.4834L6.88477 2.43359C6.96536 2.3928 6.99915 2.35385 7.01074 2.33301C7.08999 2.19046 7.17894 2.00253 7.23633 1.79785C7.24739 1.75838 7.26164 1.72063 7.27832 1.68457C6.87308 1.56471 6.44411 1.5 6 1.5Z"
    fill="currentColor"
  />
</svg>
