<svg width="24" height="24" viewBox="0 0 24 24" fill="none" xmlns="http://www.w3.org/2000/svg" data-fui-icon="true">
  <path
    d="M7.01855 17C7.24612 18.0355 7.54167 18.9858 7.89844 19.8184C8.33737 20.8425 8.88608 21.7355 9.5459 22.3867C10.21 23.0421 11.0405 23.5 12 23.5C7.44077 23.5 3.50176 20.8466 1.6416 17H7.01855ZM22.3584 17C20.4982 20.8466 16.5592 23.5 12 23.5C12.9595 23.5 13.79 23.0421 14.4541 22.3867C15.1139 21.7355 15.6626 20.8425 16.1016 19.8184C16.4583 18.9858 16.7539 18.0355 16.9814 17H22.3584ZM14.9277 17C14.7419 17.7511 14.5183 18.4338 14.2627 19.0303C13.8873 19.9062 13.4658 20.5514 13.0488 20.9629C12.6362 21.3701 12.2831 21.5 12 21.5C11.7169 21.5 11.3638 21.3701 10.9512 20.9629C10.5342 20.5514 10.1127 19.9062 9.7373 19.0303C9.48168 18.4338 9.25808 17.7511 9.07227 17H14.9277ZM23.1025 9C23.3604 9.95658 23.5 10.9619 23.5 12C23.5 13.0381 23.3604 14.0434 23.1025 15H17.3193C17.4362 14.041 17.5 13.0347 17.5 12C17.5 10.9653 17.4362 9.95896 17.3193 9H23.1025ZM15.3047 9C15.4306 9.94083 15.5 10.9483 15.5 12C15.5 13.0517 15.4306 14.0592 15.3047 15H8.69531C8.56938 14.0592 8.5 13.0517 8.5 12C8.5 10.9483 8.56938 9.94083 8.69531 9H15.3047ZM6.68066 9C6.56379 9.95896 6.5 10.9653 6.5 12C6.5 13.0347 6.56379 14.041 6.68066 15H0.897461C0.639617 14.0434 0.5 13.0381 0.5 12C0.5 10.9619 0.639617 9.95658 0.897461 9H6.68066ZM12 0.5C11.0405 0.5 10.21 0.957863 9.5459 1.61328C8.88608 2.26447 8.33737 3.15747 7.89844 4.18164C7.54167 5.01417 7.24612 5.96451 7.01855 7H1.6416C3.50176 3.15342 7.44077 0.5 12 0.5ZM12 2.5C12.2831 2.5 12.6362 2.62993 13.0488 3.03711C13.4658 3.44858 13.8873 4.09377 14.2627 4.96973C14.5183 5.56624 14.7419 6.24888 14.9277 7H9.07227C9.25808 6.24888 9.48168 5.56624 9.7373 4.96973C10.1127 4.09377 10.5342 3.44858 10.9512 3.03711C11.3638 2.62993 11.7169 2.5 12 2.5ZM12.5918 0.514648C16.8983 0.732943 20.5792 3.32087 22.3584 7H16.9814C16.7539 5.96451 16.4583 5.01417 16.1016 4.18164C15.6626 3.15747 15.1139 2.26447 14.4541 1.61328C13.8316 0.998897 13.0628 0.557668 12.1787 0.504883L12.5918 0.514648Z"
    fill="currentColor"
  />
</svg>
