<svg width="12" height="12" viewBox="0 0 12 12" fill="none" xmlns="http://www.w3.org/2000/svg" data-fui-icon="true">
  <path
    d="M8 0C10.2091 0 12 1.79086 12 4V8C12 10.2091 10.2091 12 8 12H4C1.79086 12 0 10.2091 0 8V4C0 1.79086 1.79086 0 4 0H8ZM6 2.25C3.92893 2.25 2.25 3.92893 2.25 6C2.25 8.07107 3.92893 9.75 6 9.75C8.07107 9.75 9.75 8.07107 9.75 6C9.75 3.92893 8.07107 2.25 6 2.25ZM5.25 8.11816C4.61155 7.8921 4.10684 7.38849 3.88086 6.75H5.25V8.11816ZM8.11914 6.75C7.89316 7.38849 7.38845 7.8921 6.75 8.11816V6.75H8.11914ZM5.25 5.25H3.88086C4.10687 4.61141 4.61141 4.10687 5.25 3.88086V5.25ZM6.75 3.88086C7.38859 4.10687 7.89313 4.61141 8.11914 5.25H6.75V3.88086Z"
    fill="currentColor"
  />
</svg>
