<svg width="32" height="32" viewBox="0 0 32 32" fill="none" xmlns="http://www.w3.org/2000/svg" data-fui-icon="true">
  <path
    d="M16 1C24.2843 1 31 7.71573 31 16C31 24.2843 24.2843 31 16 31C7.71573 31 1 24.2843 1 16C1 7.71573 7.71573 1 16 1ZM12.7148 16.3984C12.3253 16.101 11.826 15.9863 11.3457 16.084L10.2354 16.3096C9.86541 16.3849 9.50735 16.5104 9.1709 16.6816L8.91309 16.8125C8.15531 17.1983 7.56485 17.8492 7.25391 18.6406C6.95835 19.3932 6.93402 20.2257 7.18555 20.9941L7.5166 22.0029C7.68486 22.5168 8.01845 22.9609 8.46582 23.2646C8.87072 23.5395 9.3495 23.6865 9.83887 23.6865H10.1816C11.3909 23.6865 12.5192 24.2959 13.1816 25.3076C13.4348 25.6943 13.611 26.1265 13.7002 26.5801L13.8828 27.5137C14.0302 28.2638 14.4399 28.9372 15.0381 29.4131C15.0602 29.4307 15.081 29.4493 15.1006 29.4688C15.3979 29.4883 15.6977 29.5 16 29.5C16.4232 29.5 16.8417 29.4795 17.2549 29.4414C17.264 29.3245 17.2977 29.2077 17.3643 29.1016L18.7529 26.8857C18.8911 26.6652 18.9639 26.4096 18.9639 26.1494C18.964 25.1932 19.4383 24.2988 20.2295 23.7617L20.4219 23.6309C20.6451 23.4792 20.8048 23.2504 20.8691 22.9883L20.9287 22.7441C21.0297 22.3324 20.799 21.9117 20.3975 21.7754C20.0544 21.6589 19.7432 21.4636 19.4893 21.2051L18.7451 20.4473C18.1802 19.8721 17.7961 19.1436 17.6406 18.3525L17.4521 17.3906C17.3878 17.0633 17.1528 16.7957 16.8369 16.6885C16.5624 16.5953 16.2548 16.6369 16.0117 16.8018C15.1417 17.3923 13.9831 17.3664 13.1426 16.7246L12.7148 16.3984ZM15.5576 2.50781C8.30655 2.74127 2.5 8.69219 2.5 16C2.5 22.386 6.93425 27.7357 12.8916 29.1396C12.6666 28.724 12.5037 28.2736 12.4111 27.8027L12.2275 26.8691C12.1757 26.6054 12.074 26.3537 11.9268 26.1289C11.5415 25.5405 10.8849 25.1865 10.1816 25.1865H9.83887C9.0492 25.1865 8.27742 24.9493 7.62402 24.5059C6.90182 24.0156 6.36242 23.2993 6.09082 22.4697L5.76074 21.4609C5.40064 20.3609 5.43517 19.1691 5.8584 18.0918C6.30346 16.9591 7.14794 16.0287 8.23242 15.4766L8.49023 15.3447C8.94727 15.1121 9.43398 14.9422 9.93652 14.8398L11.0459 14.6143C11.9507 14.43 12.8911 14.6457 13.625 15.2061L14.0527 15.5332C14.3756 15.7796 14.828 15.792 15.1689 15.5605C15.7979 15.1337 16.5959 15.0221 17.3193 15.2676C18.1438 15.5475 18.756 16.2472 18.9238 17.1016L19.1123 18.0635C19.2112 18.5667 19.4561 19.0296 19.8154 19.3955L20.5596 20.1533C20.6491 20.2445 20.7589 20.3134 20.8799 20.3545C22.0182 20.7408 22.6721 21.9341 22.3857 23.1016L22.3252 23.3457C22.1724 23.968 21.7948 24.5121 21.2646 24.8721L21.0723 25.0029C20.6924 25.2608 20.464 25.6903 20.4639 26.1494C20.4639 26.6912 20.3119 27.2225 20.0244 27.6816L19.1113 29.1387C19.7144 28.9964 20.3013 28.8129 20.8701 28.5928C20.8983 28.5492 20.9316 28.5079 20.9697 28.4697C20.9704 28.4691 20.9767 28.4627 20.9873 28.4482C20.9986 28.4329 21.0125 28.4106 21.0293 28.3818C21.0635 28.3232 21.1011 28.2463 21.1406 28.1514C21.2202 27.96 21.2933 27.7302 21.3555 27.499C21.4169 27.2707 21.4648 27.0545 21.4971 26.8945C21.5131 26.8151 21.5253 26.75 21.5332 26.7061C21.5372 26.6841 21.5401 26.6671 21.542 26.6562C21.5429 26.6509 21.5436 26.6469 21.5439 26.6445V26.6426C21.6109 26.234 21.9966 25.9567 22.4053 26.0234C22.7885 26.0862 23.0564 26.4291 23.0332 26.8086L23.0244 26.8848V26.8877C23.0242 26.8889 23.0238 26.8907 23.0234 26.8926C23.0227 26.8968 23.0218 26.9028 23.0205 26.9102C23.018 26.925 23.0136 26.9463 23.0088 26.9727C22.9992 27.0255 22.9851 27.1007 22.9668 27.1914C22.9427 27.3105 22.9086 27.4583 22.8691 27.6221C26.1237 25.6943 28.4985 22.44 29.248 18.6025C29.2428 18.4713 29.1731 18.3142 28.9736 18.1279C28.7672 17.9353 28.4962 17.7825 28.2822 17.6826C28.2057 17.6469 28.0968 17.623 27.9453 17.623C27.1265 17.6229 26.3481 17.2655 25.8145 16.6445L24.9316 15.6162L24.9062 15.5869L24.8848 15.5557L24.4404 14.917C24.3088 14.728 24.0375 14.705 23.876 14.8691L23.8359 14.9102C23.7178 15.0305 23.7178 15.2234 23.8359 15.3438C24.2752 15.791 24.4511 16.4342 24.3018 17.043L23.9893 18.3184C23.8626 18.834 23.5171 19.2687 23.0439 19.5098C22.3336 19.8714 21.4707 19.7308 20.9121 19.1621L20.248 18.4863C19.8209 18.0513 19.5306 17.5006 19.4131 16.9023L18.9863 14.7324L18.7949 14.1484C18.7672 14.0642 18.6662 14.0293 18.5928 14.0791C17.8375 14.5917 16.8086 14.3867 16.3086 13.623L15.9473 13.0713C15.8516 12.9253 15.7102 12.815 15.5449 12.7588L15.3428 12.6904C14.9276 12.5496 14.4702 12.6112 14.1074 12.8574L13.6445 13.1719C13.3456 13.3747 13.0207 13.5362 12.6787 13.6523L11.9346 13.9053C11.4211 14.0795 10.8641 14.0795 10.3506 13.9053L10.0137 13.791C9.21542 13.52 8.67871 12.7698 8.67871 11.9268C8.67893 11.084 9.21559 10.3344 10.0137 10.0635L10.4746 9.90723C10.6444 9.84958 10.7982 9.75291 10.9238 9.625L11.1211 9.42383C11.3866 9.1535 11.5361 8.79001 11.5361 8.41113C11.5361 8.17458 11.5647 7.93872 11.6211 7.70898L11.8545 6.75684C12.0755 5.85723 12.6222 5.07105 13.3887 4.55078L13.7832 4.2832C14.1468 4.03649 14.5763 3.9043 15.0156 3.9043C15.4658 3.9041 15.7966 3.4822 15.6895 3.04492L15.5576 2.50781ZM17.1465 2.68652C17.486 4.0691 16.4392 5.4041 15.0156 5.4043C14.8766 5.4043 14.74 5.44635 14.625 5.52441L14.2305 5.79199C13.771 6.10396 13.443 6.57586 13.3105 7.11523L13.0771 8.06641C13.0495 8.17912 13.0361 8.29508 13.0361 8.41113C13.0361 9.18315 12.7323 9.92477 12.1914 10.4756L11.9941 10.6758C11.7041 10.9711 11.349 11.195 10.957 11.3281L10.4961 11.4844C10.3065 11.5487 10.1789 11.7265 10.1787 11.9268C10.1787 12.1272 10.3063 12.3057 10.4961 12.3701L10.833 12.4844C11.034 12.5526 11.2522 12.5526 11.4531 12.4844L12.1963 12.2324C12.4109 12.1596 12.6152 12.058 12.8027 11.9307L13.2656 11.6162C14.0174 11.1061 14.9649 10.9776 15.8252 11.2695L16.0264 11.3379C16.509 11.5017 16.9229 11.8227 17.2021 12.249L17.5635 12.8008C17.6044 12.8632 17.6892 12.8808 17.751 12.8389C18.6498 12.2288 19.8826 12.6493 20.2207 13.6816L20.4268 14.3115L20.4414 14.3555L20.4502 14.4004L20.8848 16.6133C20.9458 16.9238 21.0966 17.2098 21.3184 17.4355L21.9824 18.1113C22.0823 18.2128 22.2364 18.2384 22.3633 18.1738C22.4479 18.1307 22.5096 18.0522 22.5322 17.96L22.8447 16.6855C22.8702 16.5815 22.8407 16.471 22.7656 16.3945C22.0745 15.6907 22.0744 14.5632 22.7656 13.8594L22.8057 13.8184C23.6258 12.9834 25.0034 13.0998 25.6719 14.0605L26.0928 14.668L26.9521 15.667C27.2009 15.9563 27.5638 16.1229 27.9453 16.123C28.244 16.123 28.5846 16.1686 28.916 16.3232C29.0716 16.3959 29.2724 16.5009 29.4844 16.6377C29.4942 16.4264 29.5 16.2138 29.5 16C29.5 8.91834 24.0473 3.11007 17.1113 2.54492L17.1465 2.68652ZM10 5.06836C10.4142 5.06836 10.7499 5.4042 10.75 5.81836C10.75 6.69655 10.5485 7.5656 10.1611 8.35449L10.1016 8.47559C9.91898 8.84739 9.46946 9.00094 9.09766 8.81836C8.72613 8.63566 8.57236 8.18613 8.75488 7.81445L8.81445 7.69336C9.10051 7.11079 9.24995 6.46804 9.25 5.81836C9.25007 5.4042 9.58583 5.06836 10 5.06836Z"
    fill="currentColor"
  />
</svg>
