<svg width="16" height="16" viewBox="0 0 16 16" fill="none" xmlns="http://www.w3.org/2000/svg" data-fui-icon="true">
  <path
    d="M4.75 8.75C6.13071 8.75 7.25 9.86929 7.25 11.25V13.5C7.25 14.8807 6.13071 16 4.75 16H2.5C1.11929 16 0 14.8807 0 13.5V11.25C0 9.86929 1.11929 8.75 2.5 8.75H4.75ZM12.375 8.75C12.7892 8.75 13.125 9.08579 13.125 9.5V11.625H15.25C15.6642 11.625 16 11.9608 16 12.375C16 12.7892 15.6642 13.125 15.25 13.125H13.125V15.25C13.125 15.6642 12.7892 16 12.375 16C11.9608 16 11.625 15.6642 11.625 15.25V13.125H9.5C9.08579 13.125 8.75 12.7892 8.75 12.375C8.75 11.9608 9.08579 11.625 9.5 11.625H11.625V9.5C11.625 9.08579 11.9608 8.75 12.375 8.75ZM2.5 10.25C1.94772 10.25 1.5 10.6977 1.5 11.25V13.5C1.5 14.0523 1.94772 14.5 2.5 14.5H4.75C5.30228 14.5 5.75 14.0523 5.75 13.5V11.25C5.75 10.6977 5.30228 10.25 4.75 10.25H2.5ZM4.75 0C6.13071 0 7.25 1.11929 7.25 2.5V4.75C7.25 6.13071 6.13071 7.25 4.75 7.25H2.5C1.11929 7.25 0 6.13071 0 4.75V2.5C0 1.11929 1.11929 0 2.5 0H4.75ZM13.5 0C14.8807 0 16 1.11929 16 2.5V4.75C16 6.13071 14.8807 7.25 13.5 7.25H11.25C9.86929 7.25 8.75 6.13071 8.75 4.75V2.5C8.75 1.11929 9.86929 0 11.25 0H13.5ZM2.5 1.5C1.94772 1.5 1.5 1.94772 1.5 2.5V4.75C1.5 5.30228 1.94772 5.75 2.5 5.75H4.75C5.30228 5.75 5.75 5.30228 5.75 4.75V2.5C5.75 1.94772 5.30228 1.5 4.75 1.5H2.5ZM11.25 1.5C10.6977 1.5 10.25 1.94772 10.25 2.5V4.75C10.25 5.30228 10.6977 5.75 11.25 5.75H13.5C14.0523 5.75 14.5 5.30228 14.5 4.75V2.5C14.5 1.94772 14.0523 1.5 13.5 1.5H11.25Z"
    fill="currentColor"
  />
</svg>
