<svg width="24" height="24" viewBox="0 0 24 24" fill="none" xmlns="http://www.w3.org/2000/svg" data-fui-icon="true">
  <path
    d="M5.2998 17.5C5.96254 17.5 6.49999 18.0375 6.5 18.7002V20.2998C6.5 20.9625 5.96255 21.5 5.2998 21.5H3.7002C3.03745 21.5 2.5 20.9625 2.5 20.2998V18.7002C2.50001 18.0375 3.03746 17.5 3.7002 17.5H5.2998ZM12.7998 17.5C13.4624 17.5002 14 18.0376 14 18.7002V20.2998C14 20.9624 13.4624 21.4998 12.7998 21.5H11.2002C10.5375 21.5 10 20.9625 10 20.2998V18.7002C10 18.0375 10.5375 17.5 11.2002 17.5H12.7998ZM20.2998 17.5C20.9625 17.5 21.5 18.0375 21.5 18.7002V20.2998C21.5 20.9625 20.9625 21.5 20.2998 21.5H18.7002C18.0376 21.4998 17.5 20.9624 17.5 20.2998V18.7002C17.5 18.0376 18.0376 17.5002 18.7002 17.5H20.2998ZM5.2998 10C5.96255 10 6.5 10.5375 6.5 11.2002V12.7998C6.49999 13.4625 5.96254 14 5.2998 14H3.7002C3.03746 14 2.50001 13.4625 2.5 12.7998V11.2002C2.5 10.5375 3.03745 10 3.7002 10H5.2998ZM12.7998 10C13.4624 10.0002 14 10.5376 14 11.2002V12.7998C14 13.4624 13.4624 13.9998 12.7998 14H11.2002C10.5375 14 10 13.4625 10 12.7998V11.2002C10 10.5375 10.5375 10 11.2002 10H12.7998ZM20.2998 10C20.9625 10 21.5 10.5375 21.5 11.2002V12.7998C21.5 13.4625 20.9625 14 20.2998 14H18.7002C18.0376 13.9998 17.5 13.4624 17.5 12.7998V11.2002C17.5 10.5376 18.0376 10.0002 18.7002 10H20.2998ZM5.2998 2.5C5.96255 2.5 6.5 3.03745 6.5 3.7002V5.2998C6.5 5.96255 5.96255 6.5 5.2998 6.5H3.7002C3.03745 6.5 2.5 5.96255 2.5 5.2998V3.7002C2.5 3.03745 3.03745 2.5 3.7002 2.5H5.2998ZM12.7998 2.5C13.4624 2.50016 14 3.03755 14 3.7002V5.2998C14 5.96245 13.4624 6.49984 12.7998 6.5H11.2002C10.5375 6.5 10 5.96255 10 5.2998V3.7002C10 3.03745 10.5375 2.5 11.2002 2.5H12.7998ZM20.2998 2.5C20.9625 2.5 21.5 3.03745 21.5 3.7002V5.2998C21.5 5.96255 20.9625 6.5 20.2998 6.5H18.7002C18.0376 6.49984 17.5 5.96245 17.5 5.2998V3.7002C17.5 3.03755 18.0376 2.50016 18.7002 2.5H20.2998Z"
    fill="currentColor"
  />
</svg>
