<svg width="12" height="12" viewBox="0 0 12 12" fill="none" xmlns="http://www.w3.org/2000/svg" data-fui-icon="true">
  <path
    d="M3.13965 7C4.1669 7 5 7.8331 5 8.86035V10.1396C5 11.1669 4.1669 12 3.13965 12H1.86035C0.833102 12 0 11.1669 0 10.1396V8.86035C0 7.8331 0.833102 7 1.86035 7H3.13965ZM10.1396 7C11.1669 7 12 7.8331 12 8.86035V10.1396C12 11.1669 11.1669 12 10.1396 12H8.86035C7.8331 12 7 11.1669 7 10.1396V8.86035C7 7.8331 7.8331 7 8.86035 7H10.1396ZM3.13965 0C4.1669 0 5 0.833102 5 1.86035V3.13965C5 4.1669 4.1669 5 3.13965 5H1.86035C0.833102 5 0 4.1669 0 3.13965V1.86035C0 0.833102 0.833102 0 1.86035 0H3.13965ZM10.1396 0C11.1669 0 12 0.833102 12 1.86035V3.13965C12 4.1669 11.1669 5 10.1396 5H8.86035C7.8331 5 7 4.1669 7 3.13965V1.86035C7 0.833102 7.8331 0 8.86035 0H10.1396Z"
    fill="currentColor"
  />
</svg>
