<svg width="24" height="24" viewBox="0 0 24 24" fill="none" xmlns="http://www.w3.org/2000/svg" data-fui-icon="true">
  <path
    d="M7.75 13.002C9.54493 13.002 11 14.457 11 16.252V19.752C10.9999 21.5468 9.54485 23.002 7.75 23.002H4.25C2.45515 23.002 1.00012 21.5468 1 19.752V16.252C1 14.457 2.45507 13.002 4.25 13.002H7.75ZM19.752 13.002C21.5468 13.0021 23.002 14.4571 23.002 16.252V19.752C23.0018 21.5467 21.5467 23.0018 19.752 23.002H16.252C14.4571 23.002 13.0021 21.5468 13.002 19.752V16.252C13.002 14.457 14.457 13.002 16.252 13.002H19.752ZM4.25 15.002C3.55964 15.002 3 15.5616 3 16.252V19.752C3.00012 20.4422 3.55972 21.002 4.25 21.002H7.75C8.44028 21.002 8.99988 20.4422 9 19.752V16.252C9 15.5616 8.44036 15.002 7.75 15.002H4.25ZM16.252 15.002C15.5616 15.002 15.002 15.5616 15.002 16.252V19.752C15.0021 20.4422 15.5617 21.002 16.252 21.002H19.752C20.4421 21.0018 21.0018 20.4421 21.002 19.752V16.252C21.002 15.5617 20.4422 15.0021 19.752 15.002H16.252ZM7.75 1C9.54484 1 10.9999 2.45519 11 4.25V7.75C11 9.54493 9.54493 11 7.75 11H4.25C2.45507 11 1 9.54493 1 7.75V4.25C1.00013 2.45519 2.45516 1 4.25 1H7.75ZM19.752 1C21.5467 1.00012 23.0018 2.45526 23.002 4.25V7.75C23.002 9.54485 21.5468 10.9999 19.752 11H16.252C14.457 11 13.002 9.54493 13.002 7.75V4.25C13.0021 2.45519 14.4571 1 16.252 1H19.752ZM4.25 3C3.55973 3 3.00013 3.55976 3 4.25V7.75C3 8.44036 3.55964 9 4.25 9H7.75C8.44036 9 9 8.44036 9 7.75V4.25C8.99987 3.55976 8.44027 3 7.75 3H4.25ZM16.252 3C15.5617 3 15.0021 3.55976 15.002 4.25V7.75C15.002 8.44036 15.5616 9 16.252 9H19.752C20.4422 8.99988 21.002 8.44028 21.002 7.75V4.25C21.0018 3.55983 20.4421 3.00012 19.752 3H16.252Z"
    fill="currentColor"
  />
</svg>
