<svg width="24" height="24" viewBox="0 0 24 24" fill="none" xmlns="http://www.w3.org/2000/svg" data-fui-icon="true">
  <path
    d="M7.90527 12.8457C9.7002 12.8457 11.1553 14.3008 11.1553 16.0957V19.752C11.155 21.5467 9.70005 23.002 7.90527 23.002H4.25C2.45525 23.0019 1.00023 21.5467 1 19.752V16.0957C1 14.3008 2.45511 12.8457 4.25 12.8457H7.90527ZM19.752 12.8457C21.5467 12.8459 23.002 14.3009 23.002 16.0957V19.752C23.0017 21.5465 21.5465 23.0017 19.752 23.002H16.0967C14.3019 23.002 12.8469 21.5467 12.8467 19.752V16.0957C12.8467 14.3008 14.3018 12.8457 16.0967 12.8457H19.752ZM7.90527 1C9.70008 1 11.1551 2.45524 11.1553 4.25V7.90625C11.1552 9.70109 9.70014 11.1562 7.90527 11.1562H4.25C2.45517 11.1562 1.0001 9.70107 1 7.90625V4.25C1.0002 2.45527 2.45523 1.00004 4.25 1H7.90527ZM19.752 1C21.5466 1.00023 23.0018 2.45538 23.002 4.25V7.90625C23.0019 9.70095 21.5466 11.156 19.752 11.1562H16.0967C14.3018 11.1562 12.8468 9.70109 12.8467 7.90625V4.25C12.8469 2.45524 14.3019 1 16.0967 1H19.752Z"
    fill="currentColor"
  />
</svg>
