<svg width="20" height="20" viewBox="0 0 20 20" fill="none" xmlns="http://www.w3.org/2000/svg" data-fui-icon="true">
  <path
    fill-rule="evenodd"
    clip-rule="evenodd"
    d="M6.41309 10.5889C8.06975 10.5891 9.41307 11.9322 9.41309 13.5889V16.002C9.41288 17.6585 8.06964 19.0017 6.41309 19.002H4C2.34348 19.0017 1.00021 17.6585 1 16.002V13.5889C1.00002 11.9322 2.34336 10.5891 4 10.5889H6.41309ZM14.7949 10.5889C15.2089 10.5891 15.5449 10.9248 15.5449 11.3389V14.0449H18.252C18.6657 14.0454 19.0018 14.3811 19.002 14.7949C19.002 15.2089 18.6658 15.5445 18.252 15.5449H15.5449V18.252C15.5447 18.6658 15.2088 19.0017 14.7949 19.002C14.381 19.0018 14.0451 18.6659 14.0449 18.252V15.5449H11.3389C10.9247 15.5449 10.5889 15.2091 10.5889 14.7949C10.589 14.3809 10.9248 14.0449 11.3389 14.0449H14.0449V11.3389C14.0449 10.9248 14.3809 10.589 14.7949 10.5889ZM4 12.0889C3.17179 12.0891 2.50002 12.7606 2.5 13.5889V16.002C2.50021 16.8301 3.17191 17.5017 4 17.502H6.41309C7.24121 17.5017 7.91288 16.8301 7.91309 16.002V13.5889C7.91307 12.7606 7.24133 12.0891 6.41309 12.0889H4ZM6.41309 1C8.06966 1.00021 9.41291 2.34342 9.41309 4V6.41309C9.41288 8.06964 8.06964 9.41288 6.41309 9.41309H4C2.34348 9.41284 1.00021 8.06961 1 6.41309V4C1.00018 2.34344 2.34346 1.00024 4 1H6.41309ZM16.002 1C17.6583 1.00045 19.0018 2.34357 19.002 4V6.41309C19.0017 8.06949 17.6583 9.41263 16.002 9.41309H13.5889C11.9321 9.41309 10.5891 8.06976 10.5889 6.41309V4C10.589 2.3433 11.9321 1 13.5889 1H16.002ZM4 2.5C3.17189 2.50024 2.50018 3.17187 2.5 4V6.41309C2.50021 7.24119 3.17191 7.91284 4 7.91309H6.41309C7.24121 7.91288 7.91288 7.24121 7.91309 6.41309V4C7.91291 3.17185 7.24123 2.50021 6.41309 2.5H4ZM13.5889 2.5C12.7605 2.5 12.089 3.17172 12.0889 4V6.41309C12.0891 7.24134 12.7606 7.91309 13.5889 7.91309H16.002C16.8299 7.91263 17.5017 7.24106 17.502 6.41309V4C17.5018 3.172 16.8299 2.50045 16.002 2.5H13.5889Z"
    fill="currentColor"
  />
</svg>
