<svg width="16" height="16" viewBox="0 0 16 16" fill="none" xmlns="http://www.w3.org/2000/svg" data-fui-icon="true">
  <path
    fill-rule="evenodd"
    clip-rule="evenodd"
    d="M4.95801 8.54395C6.33848 8.54407 7.4578 9.66349 7.45801 11.0439V12.502C7.45792 13.8825 6.33856 15.0018 4.95801 15.002H3.5C2.11934 15.002 1.00009 13.8826 1 12.502V11.0439C1.00021 9.66341 2.11942 8.54395 3.5 8.54395H4.95801ZM11.7725 8.54395C12.1865 8.54395 12.5222 8.87991 12.5225 9.29395V11.0225H14.252C14.6658 11.0226 15.0015 11.3587 15.002 11.7725C15.002 12.1866 14.6661 12.5224 14.252 12.5225H12.5225V14.252C12.5224 14.6661 12.1866 15.002 11.7725 15.002C11.3586 15.0017 11.0226 14.6659 11.0225 14.252V12.5225H9.29395C8.8798 12.5224 8.54395 12.1866 8.54395 11.7725C8.54438 11.3587 8.88007 11.0225 9.29395 11.0225H11.0225V9.29395C11.0227 8.8801 11.3586 8.54424 11.7725 8.54395ZM4.95801 1C6.33861 1.00013 7.45801 2.11937 7.45801 3.5V4.95801C7.45781 6.33848 6.33849 7.45788 4.95801 7.45801H3.5C2.11941 7.45801 1.00019 6.33856 1 4.95801V3.5C1 2.11929 2.11929 1 3.5 1H4.95801ZM12.502 1C13.8826 1.00009 15.002 2.11934 15.002 3.5V4.95801C15.0018 6.3385 13.8825 7.45792 12.502 7.45801H11.0439C9.66342 7.45793 8.54414 6.33851 8.54395 4.95801V3.5C8.54395 2.11934 9.6633 1.00008 11.0439 1H12.502Z"
    fill="currentColor"
  />
</svg>
