<svg width="24" height="24" viewBox="0 0 24 24" fill="none" xmlns="http://www.w3.org/2000/svg" data-fui-icon="true">
  <path
    d="M7.5 13C9.433 13 11 14.567 11 16.5V20.5C11 22.433 9.433 24 7.5 24H3.5C1.567 24 0 22.433 0 20.5V16.5C1.28853e-07 14.567 1.567 13 3.5 13H7.5ZM20.5 13C22.433 13 24 14.567 24 16.5V20.5C24 22.433 22.433 24 20.5 24H16.5C14.567 24 13 22.433 13 20.5V16.5C13 14.567 14.567 13 16.5 13H20.5ZM3.5 15C2.67157 15 2 15.6716 2 16.5V20.5C2 21.3284 2.67157 22 3.5 22H7.5C8.32843 22 9 21.3284 9 20.5V16.5C9 15.6716 8.32843 15 7.5 15H3.5ZM16.5 15C15.6716 15 15 15.6716 15 16.5V20.5C15 21.3284 15.6716 22 16.5 22H20.5C21.3284 22 22 21.3284 22 20.5V16.5C22 15.6716 21.3284 15 20.5 15H16.5ZM7.5 0C9.433 0 11 1.567 11 3.5V7.5C11 9.433 9.433 11 7.5 11H3.5C1.567 11 0 9.433 0 7.5V3.5C1.28853e-07 1.567 1.567 1.28851e-07 3.5 0H7.5ZM20.5 0C22.433 0 24 1.567 24 3.5V7.5C24 9.433 22.433 11 20.5 11H16.5C14.567 11 13 9.433 13 7.5V3.5C13 1.567 14.567 1.28851e-07 16.5 0H20.5ZM3.5 2C2.67157 2 2 2.67157 2 3.5V7.5C2 8.32843 2.67157 9 3.5 9H7.5C8.32843 9 9 8.32843 9 7.5V3.5C9 2.67157 8.32843 2 7.5 2H3.5ZM16.5 2C15.6716 2 15 2.67157 15 3.5V7.5C15 8.32843 15.6716 9 16.5 9H20.5C21.3284 9 22 8.32843 22 7.5V3.5C22 2.67157 21.3284 2 20.5 2H16.5Z"
    fill="currentColor"
  />
</svg>
