<svg width="20" height="20" viewBox="0 0 20 20" fill="none" xmlns="http://www.w3.org/2000/svg" data-fui-icon="true">
  <path
    fill-rule="evenodd"
    clip-rule="evenodd"
    d="M6.41211 10.5889C8.06893 10.5889 9.41205 11.9321 9.41211 13.5889V16.002C9.41191 17.6586 8.06884 19.002 6.41211 19.002H4C2.34348 19.0017 1.0002 17.6585 1 16.002V13.5889C1.00006 11.9322 2.34339 10.5891 4 10.5889H6.41211ZM16.001 10.5889C17.6576 10.5891 19.0009 11.9322 19.001 13.5889V16.002C19.0008 17.6585 17.6575 19.0017 16.001 19.002H13.5889C11.9321 19.002 10.5891 17.6586 10.5889 16.002V13.5889C10.5889 11.9321 11.932 10.5889 13.5889 10.5889H16.001ZM4 12.0889C3.17181 12.0891 2.50006 12.7606 2.5 13.5889V16.002C2.5002 16.8301 3.1719 17.5017 4 17.502H6.41211C7.24041 17.502 7.91191 16.8302 7.91211 16.002V13.5889C7.91205 12.7605 7.2405 12.0889 6.41211 12.0889H4ZM13.5889 12.0889C12.7605 12.0889 12.0889 12.7605 12.0889 13.5889V16.002C12.0891 16.8302 12.7606 17.502 13.5889 17.502H16.001C16.8291 17.5017 17.5008 16.8301 17.501 16.002V13.5889C17.5009 12.7606 16.8292 12.0891 16.001 12.0889H13.5889ZM6.41211 1C8.06884 1 9.41191 2.34331 9.41211 4V6.41309C9.41191 8.06977 8.06884 9.41309 6.41211 9.41309H4C2.34348 9.41284 1.0002 8.06962 1 6.41309V4C1.0002 2.34346 2.34347 1.00024 4 1H6.41211ZM16.001 1C17.6575 1.00024 19.0008 2.34346 19.001 4V6.41309C19.0008 8.06962 17.6575 9.41284 16.001 9.41309H13.5889C11.9321 9.41308 10.5891 8.06977 10.5889 6.41309V4C10.5891 2.34331 11.9321 1 13.5889 1H16.001ZM4 2.5C3.1719 2.50024 2.5002 3.17189 2.5 4V6.41309C2.5002 7.24119 3.1719 7.91284 4 7.91309H6.41211C7.24041 7.91309 7.91191 7.24134 7.91211 6.41309V4C7.91191 3.17174 7.24042 2.5 6.41211 2.5H4ZM13.5889 2.5C12.7606 2.5 12.0891 3.17174 12.0889 4V6.41309C12.0891 7.24134 12.7606 7.91309 13.5889 7.91309H16.001C16.8291 7.91284 17.5008 7.24119 17.501 6.41309V4C17.5008 3.17189 16.8291 2.50024 16.001 2.5H13.5889Z"
    fill="currentColor"
  />
</svg>
