<svg width="20" height="20" viewBox="0 0 20 20" fill="none" xmlns="http://www.w3.org/2000/svg" data-fui-icon="true">
  <path
    d="M6.25 10.75C7.90685 10.75 9.25 12.0931 9.25 13.75V17C9.25 18.6569 7.90685 20 6.25 20H3C1.34315 20 3.23427e-08 18.6569 0 17V13.75C6.05298e-08 12.0931 1.34315 10.75 3 10.75H6.25ZM17 10.75C18.6569 10.75 20 12.0931 20 13.75V17C20 18.6569 18.6569 20 17 20H13.75C12.0931 20 10.75 18.6569 10.75 17V13.75C10.75 12.0931 12.0931 10.75 13.75 10.75H17ZM6.25 0C7.90685 1.5717e-07 9.25 1.34315 9.25 3V6.25C9.25 7.90685 7.90685 9.25 6.25 9.25H3C1.34315 9.25 3.23427e-08 7.90685 0 6.25V3C6.05298e-08 1.34315 1.34315 0 3 0H6.25ZM17 0C18.6569 1.5717e-07 20 1.34315 20 3V6.25C20 7.90685 18.6569 9.25 17 9.25H13.75C12.0931 9.25 10.75 7.90685 10.75 6.25V3C10.75 1.34315 12.0931 0 13.75 0H17Z"
    fill="currentColor"
  />
</svg>
