<svg width="32" height="32" viewBox="0 0 32 32" fill="none" xmlns="http://www.w3.org/2000/svg" data-fui-icon="true">
  <path
    d="M7.2002 23.5C7.91801 23.5001 8.49989 24.082 8.5 24.7998V27.2002C8.49988 27.918 7.918 28.4999 7.2002 28.5H4.7998C4.082 28.4999 3.50012 27.918 3.5 27.2002V24.7998C3.50011 24.082 4.08199 23.5001 4.7998 23.5H7.2002ZM17.2002 23.5C17.918 23.5001 18.4999 24.082 18.5 24.7998V27.2002C18.4999 27.918 17.918 28.4999 17.2002 28.5H14.7998C14.0821 28.4997 13.5001 27.9179 13.5 27.2002V24.7998C13.5001 24.0821 14.0821 23.5003 14.7998 23.5H17.2002ZM27.2002 23.5C27.9179 23.5003 28.4999 24.0821 28.5 24.7998V27.2002C28.4999 27.9179 27.9179 28.4997 27.2002 28.5H24.7998C24.082 28.4999 23.5001 27.918 23.5 27.2002V24.7998C23.5001 24.082 24.082 23.5001 24.7998 23.5H27.2002ZM7.2002 13.5C7.918 13.5001 8.49988 14.082 8.5 14.7998V17.2002C8.49989 17.918 7.91801 18.4999 7.2002 18.5H4.7998C4.08199 18.4999 3.50011 17.918 3.5 17.2002V14.7998C3.50012 14.082 4.082 13.5001 4.7998 13.5H7.2002ZM17.2002 13.5C17.918 13.5001 18.4999 14.082 18.5 14.7998V17.2002C18.4999 17.918 17.918 18.4999 17.2002 18.5H14.7998C14.0821 18.4997 13.5001 17.9179 13.5 17.2002V14.7998C13.5001 14.0821 14.0821 13.5003 14.7998 13.5H17.2002ZM27.2002 13.5C27.9179 13.5003 28.4999 14.0821 28.5 14.7998V17.2002C28.4999 17.9179 27.9179 18.4997 27.2002 18.5H24.7998C24.082 18.4999 23.5001 17.918 23.5 17.2002V14.7998C23.5001 14.082 24.082 13.5001 24.7998 13.5H27.2002ZM7.2002 3.5C7.91801 3.50011 8.49989 4.08199 8.5 4.7998V7.2002C8.49989 7.91801 7.91801 8.49989 7.2002 8.5H4.7998C4.08199 8.49989 3.50011 7.91801 3.5 7.2002V4.7998C3.50011 4.08199 4.08199 3.50011 4.7998 3.5H7.2002ZM17.2002 3.5C17.918 3.50011 18.4999 4.08199 18.5 4.7998V7.2002C18.4999 7.91801 17.918 8.49989 17.2002 8.5H14.7998C14.0821 8.49973 13.5001 7.91791 13.5 7.2002V4.7998C13.5001 4.08209 14.0821 3.50027 14.7998 3.5H17.2002ZM27.2002 3.5C27.9179 3.50027 28.4999 4.08209 28.5 4.7998V7.2002C28.4999 7.91791 27.9179 8.49973 27.2002 8.5H24.7998C24.082 8.49989 23.5001 7.91801 23.5 7.2002V4.7998C23.5001 4.08199 24.082 3.50011 24.7998 3.5H27.2002Z"
    fill="currentColor"
  />
</svg>
