<svg width="32" height="32" viewBox="0 0 32 32" fill="none" xmlns="http://www.w3.org/2000/svg" data-fui-icon="true">
  <path
    d="M11.25 17C13.3211 17 15 18.6789 15 20.75V27.25C15 29.3211 13.3211 31 11.25 31H4.75C2.67893 31 1 29.3211 1 27.25V20.75C1 18.6789 2.67893 17 4.75 17H11.25ZM27.25 17C29.3211 17 31 18.6789 31 20.75V27.25C31 29.3211 29.3211 31 27.25 31H20.75C18.6789 31 17 29.3211 17 27.25V20.75C17 18.6789 18.6789 17 20.75 17H27.25ZM4.75 19C3.7835 19 3 19.7835 3 20.75V27.25C3 28.2165 3.7835 29 4.75 29H11.25C12.2165 29 13 28.2165 13 27.25V20.75C13 19.7835 12.2165 19 11.25 19H4.75ZM20.75 19C19.7835 19 19 19.7835 19 20.75V27.25C19 28.2165 19.7835 29 20.75 29H27.25C28.2165 29 29 28.2165 29 27.25V20.75C29 19.7835 28.2165 19 27.25 19H20.75ZM11.25 1C13.3211 1 15 2.67893 15 4.75V11.25C15 13.3211 13.3211 15 11.25 15H4.75C2.67893 15 1 13.3211 1 11.25V4.75C1 2.67893 2.67893 1 4.75 1H11.25ZM27.25 1C29.3211 1 31 2.67893 31 4.75V11.25C31 13.3211 29.3211 15 27.25 15H20.75C18.6789 15 17 13.3211 17 11.25V4.75C17 2.67893 18.6789 1 20.75 1H27.25ZM4.75 3C3.7835 3 3 3.7835 3 4.75V11.25C3 12.2165 3.7835 13 4.75 13H11.25C12.2165 13 13 12.2165 13 11.25V4.75C13 3.7835 12.2165 3 11.25 3H4.75ZM20.75 3C19.7835 3 19 3.7835 19 4.75V11.25C19 12.2165 19.7835 13 20.75 13H27.25C28.2165 13 29 12.2165 29 11.25V4.75C29 3.7835 28.2165 3 27.25 3H20.75Z"
    fill="currentColor"
  />
</svg>
