<svg width="12" height="12" viewBox="0 0 12 12" fill="none" xmlns="http://www.w3.org/2000/svg" data-fui-icon="true">
  <path
    d="M3.25 7C4.2165 7 5 7.7835 5 8.75V10.25C5 11.2165 4.2165 12 3.25 12H1.75C0.783502 12 0 11.2165 0 10.25V8.75C0 7.7835 0.783502 7 1.75 7H3.25ZM10.25 7C11.2165 7 12 7.7835 12 8.75V10.25C12 11.2165 11.2165 12 10.25 12H8.75C7.7835 12 7 11.2165 7 10.25V8.75C7 7.7835 7.7835 7 8.75 7H10.25ZM3.25 0C4.2165 0 5 0.783502 5 1.75V3.25C5 4.2165 4.2165 5 3.25 5H1.75C0.783502 5 0 4.2165 0 3.25V1.75C0 0.783502 0.783502 0 1.75 0H3.25ZM10.25 0C11.2165 0 12 0.783502 12 1.75V3.25C12 4.2165 11.2165 5 10.25 5H8.75C7.7835 5 7 4.2165 7 3.25V1.75C7 0.783502 7.7835 0 8.75 0H10.25Z"
    fill="currentColor"
  />
</svg>
