<svg width="16" height="16" viewBox="0 0 16 16" fill="none" xmlns="http://www.w3.org/2000/svg" data-fui-icon="true">
  <path
    d="M4.75 8.75C6.13071 8.75 7.25 9.86929 7.25 11.25V13.5C7.25 14.8807 6.13071 16 4.75 16H2.5C1.11929 16 0 14.8807 0 13.5V11.25C0 9.86929 1.11929 8.75 2.5 8.75H4.75ZM13.5 8.75C14.8807 8.75 16 9.86929 16 11.25V13.5C16 14.8807 14.8807 16 13.5 16H11.25C9.86929 16 8.75 14.8807 8.75 13.5V11.25C8.75 9.86929 9.86929 8.75 11.25 8.75H13.5ZM4.75 0C6.13071 0 7.25 1.11929 7.25 2.5V4.75C7.25 6.13071 6.13071 7.25 4.75 7.25H2.5C1.11929 7.25 0 6.13071 0 4.75V2.5C0 1.11929 1.11929 0 2.5 0H4.75ZM13.5 0C14.8807 0 16 1.11929 16 2.5V4.75C16 6.13071 14.8807 7.25 13.5 7.25H11.25C9.86929 7.25 8.75 6.13071 8.75 4.75V2.5C8.75 1.11929 9.86929 0 11.25 0H13.5Z"
    fill="currentColor"
  />
</svg>
