<svg width="16" height="16" viewBox="0 0 16 16" fill="none" xmlns="http://www.w3.org/2000/svg" data-fui-icon="true">
  <path
    d="M4.25 9C5.76878 9 7 10.2312 7 11.75V13.25C7 14.7688 5.76878 16 4.25 16H2.75C1.23122 16 0 14.7688 0 13.25V11.75C1.28853e-07 10.2312 1.23122 9 2.75 9H4.25ZM13.25 9C14.7688 9 16 10.2312 16 11.75V13.25C16 14.7688 14.7688 16 13.25 16H11.75C10.2312 16 9 14.7688 9 13.25V11.75C9 10.2312 10.2312 9 11.75 9H13.25ZM4.25 0C5.76878 0 7 1.23122 7 2.75V4.25C7 5.76878 5.76878 7 4.25 7H2.75C1.23122 7 0 5.76878 0 4.25V2.75C1.28853e-07 1.23122 1.23122 0 2.75 0H4.25ZM13.25 0C14.7688 0 16 1.23122 16 2.75V4.25C16 5.76878 14.7688 7 13.25 7H11.75C10.2312 7 9 5.76878 9 4.25V2.75C9 1.23122 10.2312 0 11.75 0H13.25Z"
    fill="currentColor"
  />
</svg>
