<svg width="20" height="20" viewBox="0 0 20 20" fill="none" xmlns="http://www.w3.org/2000/svg" data-fui-icon="true">
  <path
    d="M6.25 10.75C7.90685 10.75 9.25 12.0931 9.25 13.75V17C9.25 18.6569 7.90685 20 6.25 20H3C1.34315 20 3.23427e-08 18.6569 0 17V13.75C6.05298e-08 12.0931 1.34315 10.75 3 10.75H6.25ZM15.375 10.75C15.7892 10.75 16.125 11.0858 16.125 11.5V14.625H19.25C19.6642 14.625 20 14.9608 20 15.375C20 15.7892 19.6642 16.125 19.25 16.125H16.125V19.25C16.125 19.6642 15.7892 20 15.375 20C14.9608 20 14.625 19.6642 14.625 19.25V16.125H11.5C11.0858 16.125 10.75 15.7892 10.75 15.375C10.75 14.9608 11.0858 14.625 11.5 14.625H14.625V11.5C14.625 11.0858 14.9608 10.75 15.375 10.75ZM3 12.25C2.17157 12.25 1.5 12.9216 1.5 13.75V17C1.5 17.8284 2.17157 18.5 3 18.5H6.25C7.07843 18.5 7.75 17.8284 7.75 17V13.75C7.75 12.9216 7.07843 12.25 6.25 12.25H3ZM6.25 0C7.90685 1.5717e-07 9.25 1.34315 9.25 3V6.25C9.25 7.90685 7.90685 9.25 6.25 9.25H3C1.34315 9.25 3.23427e-08 7.90685 0 6.25V3C6.05298e-08 1.34315 1.34315 0 3 0H6.25ZM17 0C18.6569 1.5717e-07 20 1.34315 20 3V6.25C20 7.90685 18.6569 9.25 17 9.25H13.75C12.0931 9.25 10.75 7.90685 10.75 6.25V3C10.75 1.34315 12.0931 0 13.75 0H17ZM3 1.5C2.17157 1.5 1.5 2.17157 1.5 3V6.25C1.5 7.07843 2.17157 7.75 3 7.75H6.25C7.07843 7.75 7.75 7.07843 7.75 6.25V3C7.75 2.17157 7.07843 1.5 6.25 1.5H3ZM13.75 1.5C12.9216 1.5 12.25 2.17157 12.25 3V6.25C12.25 7.07843 12.9216 7.75 13.75 7.75H17C17.8284 7.75 18.5 7.07843 18.5 6.25V3C18.5 2.17157 17.8284 1.5 17 1.5H13.75Z"
    fill="currentColor"
  />
</svg>
