<svg width="16" height="16" viewBox="0 0 16 16" fill="none" xmlns="http://www.w3.org/2000/svg" data-fui-icon="true">
  <path
    d="M4.75 9.00098C5.99264 9.00098 7 10.0083 7 11.251V12.751C6.99992 13.9935 5.99259 15.001 4.75 15.001H3.25C2.00741 15.001 1.00008 13.9935 1 12.751V11.251C1 10.0083 2.00736 9.00098 3.25 9.00098H4.75ZM12.751 9.00098C13.9934 9.00122 15.001 10.0085 15.001 11.251V12.751C15.0009 13.9934 13.9934 15.0007 12.751 15.001H11.251C10.0084 15.001 9.00106 13.9935 9.00098 12.751V11.251C9.00098 10.0083 10.0083 9.00098 11.251 9.00098H12.751ZM4.75 1C5.99264 1 7 2.00736 7 3.25V4.75C7 5.99264 5.99264 7 4.75 7H3.25C2.00736 7 1 5.99264 1 4.75V3.25C1 2.00736 2.00736 1 3.25 1H4.75ZM12.751 1C13.9934 1.00024 15.001 2.00751 15.001 3.25V4.75C15.001 5.99249 13.9934 6.99976 12.751 7H11.251C10.0083 7 9.00098 5.99264 9.00098 4.75V3.25C9.00098 2.00736 10.0083 1 11.251 1H12.751Z"
    fill="currentColor"
  />
</svg>
