<svg
  width="16"
  height="16"
  viewBox="0 0 16 16"
  fill="none"
  xmlns="http://www.w3.org/2000/svg"
  data-fui-icon="true"
>
  <path
    d="M13.8374 2.9653C13.5688 2.3091 12.6675 1.70329 11.9362 1.47943M1.46426 12.4699C1.57074 13.1213 2.34199 14.173 3.1882 14.4242"
    stroke="currentColor"
    stroke-width="1.5"
    stroke-linecap="round"
  />
  <path
    d="M3.75735 7.29285C3.23665 6.77215 2.39243 6.77215 1.87173 7.29285C1.35103 7.81355 1.35103 8.65777 1.87173 9.17846L5.05371 12.3604C7.07142 14.3782 10.3428 14.3782 12.3605 12.3604C14.3782 10.3427 14.3782 7.07138 12.3605 5.05368L10.2392 2.93236C9.97881 2.67201 9.55671 2.672 9.29635 2.93236C8.80444 3.42427 8.62236 4.10863 8.75004 4.74307M3.75735 7.29285L2.81454 6.35004C2.29384 5.82934 2.29384 4.98512 2.81454 4.46442C3.33525 3.94371 4.17946 3.94372 4.70016 4.46442L5.17156 4.93582M3.75735 7.29285L5.17156 8.70706M8.75004 4.74307L7.05718 3.05021C6.53648 2.52951 5.69228 2.52949 5.17156 3.05021C4.65085 3.57092 4.65086 4.41512 5.17156 4.93582M8.75004 4.74307C8.82512 5.11598 9.00719 5.47162 9.29635 5.76078C9.58881 6.05324 9.70638 6.47769 9.60607 6.87895L9.53889 7.1477C9.38842 7.7495 9.56477 8.38622 10.0035 8.82491M5.17156 4.93582L6.58578 6.35004"
    stroke="currentColor"
    stroke-width="1.5"
    stroke-linecap="round"
    stroke-linejoin="round"
  />
</svg>
