<svg
  width="24"
  height="24"
  viewBox="0 0 24 24"
  fill="none"
  xmlns="http://www.w3.org/2000/svg"
  data-fui-icon="true"
>
  <path
    d="M5.90203 11.8232C5.31624 11.2374 4.36649 11.2374 3.7807 11.8232C3.19492 12.409 3.19492 13.3588 3.7807 13.9446L8.3769 18.5407C11.3058 21.4697 16.0546 21.4697 18.9835 18.5407C21.9124 15.6118 21.9124 10.8631 18.9835 7.93415L15.2712 4.22184C15.0759 4.02658 14.7593 4.0266 14.5641 4.22184C13.8262 4.9597 13.5531 5.98624 13.7446 6.9379M5.90203 11.8232L4.48781 10.409C3.90202 9.82323 3.90202 8.87349 4.48781 8.2877C5.07358 7.70193 6.02334 7.70191 6.60913 8.2877M5.90203 11.8232L8.73045 14.6517M13.7446 6.9379L10.8518 4.04506C10.266 3.45927 9.31622 3.45929 8.73045 4.04506C8.14468 4.63083 8.14466 5.58059 8.73045 6.16638M13.7446 6.9379C13.8572 7.49727 14.1303 8.03074 14.5641 8.46448L15.4886 9.38895C15.5708 9.47118 15.5947 9.59521 15.5489 9.70213C14.9541 11.09 15.2642 12.7001 16.3318 13.7678M6.60913 8.2877L5.90203 7.58059C5.31624 6.9948 5.31626 6.04504 5.90203 5.45927C6.48779 4.87351 7.43756 4.87348 8.02335 5.45927L8.73045 6.16638M6.60913 8.2877L10.1447 11.8232M8.73045 6.16638L12.266 9.70191"
    stroke="currentColor"
    stroke-width="1.5"
    stroke-linecap="round"
    stroke-linejoin="round"
  />
  <path
    d="M20.5343 5.43117C20.175 4.30405 19.0526 3.34981 17.6825 3.20236M3.10735 17.9597C3.26707 18.9368 4.42395 20.5143 5.69327 20.8912"
    stroke="currentColor"
    stroke-width="1.5"
    stroke-linecap="round"
  />
</svg>
