<svg width="12" height="12" viewBox="0 0 12 12" fill="none" xmlns="http://www.w3.org/2000/svg" data-fui-icon="true">
  <path
    fill-rule="evenodd"
    clip-rule="evenodd"
    d="M3.34842 1.75715C4.03185 1.0738 5.14062 1.07378 5.824 1.75715L6.12869 2.06281C6.21656 1.92328 6.32063 1.79081 6.44217 1.66926C6.93029 1.18114 7.72159 1.18125 8.20975 1.66926L9.80154 3.26008C11.6075 5.06621 11.6075 7.99497 9.80154 9.80109C7.99543 11.6072 5.06671 11.6071 3.26053 9.80109L0.873809 7.41437C0.190484 6.73099 0.190519 5.62317 0.873809 4.93977C0.970567 4.84301 1.07689 4.76108 1.18826 4.69172C0.943993 4.06455 1.07453 3.32519 1.58084 2.81867C1.96248 2.43703 2.4768 2.2692 2.97537 2.31379C3.06068 2.11195 3.18393 1.92164 3.34842 1.75715ZM4.76248 2.81867C4.66484 2.72105 4.5066 2.72104 4.40897 2.81867C4.31174 2.91634 4.31148 3.07469 4.40897 3.17219L5.47049 4.23273C5.76297 4.52561 5.76311 5.00049 5.47049 5.29328C5.1776 5.58617 4.70186 5.58617 4.40897 5.29328L2.9949 3.87922C2.89727 3.78158 2.73902 3.78158 2.64139 3.87922C2.54402 3.97687 2.54384 4.13519 2.64139 4.23273L4.40897 6.00031C4.70186 6.29321 4.70186 6.76797 4.40897 7.06086C4.11606 7.35357 3.64125 7.35369 3.34842 7.06086L2.28787 6.00031C2.19024 5.90274 2.03197 5.9027 1.93436 6.00031C1.83685 6.09793 1.83682 6.25623 1.93436 6.35383L4.32107 8.74055C5.54137 9.96065 7.51966 9.96055 8.74002 8.74055C9.96041 7.52016 9.96041 5.54101 8.74002 4.32062L7.35721 2.93781C7.28689 3.0851 7.26664 3.25042 7.29861 3.40949C7.32667 3.54872 7.3937 3.68125 7.50272 3.79035C7.90827 4.19591 8.0714 4.7847 7.9324 5.34113L7.88162 5.5423C7.83272 5.73787 7.89052 5.94547 8.03299 6.0882C8.32588 6.3811 8.32588 6.85683 8.03299 7.14973C7.74011 7.44221 7.26522 7.44237 6.97244 7.14973C6.45719 6.63448 6.24986 5.88592 6.42654 5.17902L6.47732 4.97785C6.48863 4.93251 6.47521 4.88394 6.44217 4.8509C6.18086 4.58952 5.99829 4.27809 5.89236 3.94758L4.76248 2.81867Z"
    fill="currentColor"
  />
</svg>
