<svg width="16" height="16" viewBox="0 0 16 16" fill="none" xmlns="http://www.w3.org/2000/svg" data-fui-icon="true">
  <path
    d="M1.34375 11.7296C1.75224 11.663 2.13707 11.9404 2.2041 12.3488C2.22829 12.4961 2.3632 12.8017 2.62598 13.1183C2.88538 13.4307 3.1733 13.6373 3.40137 13.7052C3.79837 13.8231 4.02495 14.2408 3.90723 14.6378C3.78926 15.0344 3.37231 15.261 2.97559 15.1437C2.35757 14.9602 1.83587 14.515 1.47168 14.0763C1.11092 13.6417 0.806047 13.095 0.723633 12.5909C0.656894 12.1822 0.935012 11.7964 1.34375 11.7296ZM4.6416 2.51965C5.45523 1.70629 6.77439 1.70615 7.58789 2.51965L8.22949 3.16125C8.3605 2.88692 8.53929 2.6288 8.7666 2.40149L8.87305 2.30481C9.42948 1.85095 10.2509 1.88382 10.7695 2.40247L12.8906 4.52356C15.2009 6.8341 15.2009 10.5802 12.8906 12.8907C10.5801 15.2009 6.83394 15.201 4.52344 12.8907L1.3418 9.70911C0.528366 8.89568 0.527714 7.57645 1.34082 6.76282C1.50992 6.59372 1.70255 6.46123 1.90625 6.36243C1.50173 5.57842 1.62699 4.59091 2.28418 3.93372C2.78617 3.43181 3.48055 3.24106 4.12988 3.35852C4.22766 3.05181 4.39827 2.76298 4.6416 2.51965ZM6.52734 3.5802C6.29962 3.35247 5.92998 3.35264 5.70215 3.5802C5.47433 3.80802 5.47434 4.17758 5.70215 4.4054L7.11621 5.81946C7.4091 6.11235 7.4091 6.58809 7.11621 6.88098C6.82342 7.17345 6.34849 7.17339 6.05566 6.88098L4.16992 4.99426C3.94213 4.76672 3.57247 4.76665 3.34473 4.99426C3.117 5.22199 3.11715 5.59163 3.34473 5.81946L5.70215 8.17688C5.99473 8.46972 5.99473 8.94459 5.70215 9.23743C5.40932 9.53008 4.93446 9.53003 4.6416 9.23743L3.22754 7.82336C2.99973 7.59556 2.62917 7.59556 2.40137 7.82336C2.17405 8.05121 2.1747 8.42092 2.40234 8.64856L5.58398 11.8302C7.30882 13.5548 10.1053 13.554 11.8301 11.8292C13.5545 10.1045 13.5545 7.30882 11.8301 5.58411L9.77148 3.52551C9.50782 3.82646 9.4113 4.22194 9.48633 4.59485C9.53316 4.82744 9.64568 5.04913 9.82715 5.23059C10.3057 5.7093 10.4971 6.40398 10.333 7.06067L10.2666 7.32922C10.18 7.67541 10.2818 8.04263 10.5342 8.29504C10.8267 8.58797 10.8269 9.06283 10.5342 9.35559C10.2414 9.64833 9.76655 9.64808 9.47363 9.35559C8.84875 8.7307 8.59728 7.82325 8.81152 6.96594L8.87793 6.69739C8.9143 6.55185 8.87256 6.39729 8.7666 6.29114C8.43168 5.95622 8.20127 5.5546 8.0752 5.12903L6.52734 3.5802ZM11.2197 1.25989C11.3411 0.86399 11.7603 0.641603 12.1562 0.762817C12.6098 0.90173 13.0946 1.15005 13.5088 1.45911C13.9123 1.76035 14.3252 2.17607 14.5322 2.68176C14.6885 3.06479 14.5049 3.50233 14.1221 3.6593C13.7388 3.81617 13.3006 3.63231 13.1436 3.24915C13.0819 3.09881 12.9088 2.88264 12.6123 2.66125C12.3262 2.44774 11.9942 2.28137 11.7168 2.19641C11.3209 2.07507 11.0986 1.65584 11.2197 1.25989Z"
    fill="currentColor"
  />
</svg>
