<svg width="20" height="20" viewBox="0 0 20 20" fill="none" xmlns="http://www.w3.org/2000/svg" data-fui-icon="true">
  <path
    fill-rule="evenodd"
    clip-rule="evenodd"
    d="M7.15046 2.84028C7.93141 2.05933 9.19849 2.05945 9.97957 2.84028L11.2716 4.13324C11.4295 3.71612 11.6758 3.3238 12.0118 2.98774C12.4672 2.53228 13.2065 2.53241 13.6622 2.98774L16.7559 6.08149C19.4894 8.81515 19.4895 13.2473 16.7559 15.9809C14.0223 18.7144 9.59016 18.7143 6.85652 15.9809L3.02644 12.1508C2.24539 11.3698 2.24539 10.1028 3.02644 9.32172C3.15357 9.19465 3.29479 9.09004 3.44343 9.00434C2.84163 8.22014 2.89741 7.09333 3.61531 6.37543C3.80971 6.18106 4.03493 6.03554 4.27449 5.93793C4.1019 5.27406 4.27398 4.53908 4.79402 4.01899C5.31389 3.49912 6.04831 3.32725 6.71199 3.49945C6.80957 3.25965 6.95595 3.03486 7.15046 2.84028ZM2.34968 13.4985C2.75815 13.432 3.14404 13.7082 3.21101 14.1166C3.24843 14.3454 3.43745 14.7577 3.77839 15.1684C4.11577 15.5747 4.5042 15.8631 4.83796 15.9623C5.23492 16.0802 5.46146 16.497 5.34382 16.894C5.22599 17.2909 4.80909 17.5173 4.41218 17.3998C3.68855 17.185 3.06625 16.659 2.6241 16.1264C2.18537 15.5979 1.82532 14.9443 1.72957 14.3588C1.66303 13.9502 1.94105 13.5653 2.34968 13.4985ZM8.91902 3.90082C8.72382 3.70587 8.40718 3.70586 8.21199 3.90082C8.01681 4.096 8.01696 4.41258 8.21199 4.60785L11.1583 7.55414C11.4511 7.84693 11.4509 8.32177 11.1583 8.61469C10.8654 8.90758 10.3906 8.90758 10.0977 8.61469L6.5616 5.07953C6.36633 4.88441 6.04977 4.88433 5.85457 5.07953C5.65944 5.27475 5.65947 5.59132 5.85457 5.78656L9.3907 9.32172C9.68359 9.61461 9.68358 10.0903 9.3907 10.3832C9.09781 10.6761 8.62207 10.6761 8.32918 10.3832L5.38289 7.43598C5.18762 7.24128 4.87094 7.24101 4.67586 7.43598C4.48077 7.63107 4.48112 7.9477 4.67586 8.14301L8.21199 11.6791C8.50451 11.972 8.50458 12.4469 8.21199 12.7397C7.91909 13.0326 7.44336 13.0326 7.15046 12.7397L4.79402 10.3832C4.59876 10.188 4.28225 10.188 4.08699 10.3832C3.89192 10.5785 3.89179 10.8951 4.08699 11.0903L7.91707 14.9204C10.0649 17.068 13.5476 17.0681 15.6954 14.9204C17.8432 12.7726 17.843 9.28991 15.6954 7.14203L12.8624 4.30903C12.5956 4.70339 12.5047 5.18058 12.5958 5.63324C12.6614 5.95904 12.8196 6.27013 13.0733 6.52387L13.8438 7.29438C14.0932 7.54418 14.1876 7.90493 14.1007 8.23969L14.0528 8.38031C13.678 9.25498 13.8741 10.27 14.5469 10.9428C14.8393 11.2356 14.8394 11.7106 14.5469 12.0034C14.2541 12.2962 13.7783 12.296 13.4854 12.0034C12.4635 10.9812 12.1128 9.47928 12.5509 8.1225L12.0118 7.58442C11.6033 7.17593 11.3263 6.68317 11.1807 6.16254L8.91902 3.90082ZM14.5118 1.16156C15.9375 1.31518 17.1295 2.3048 17.5225 3.53754C17.6481 3.93193 17.4304 4.35395 17.0362 4.47992C16.6416 4.60572 16.2197 4.38722 16.0938 3.99262C15.888 3.34717 15.209 2.74629 14.3516 2.65375C13.9399 2.60944 13.6414 2.23933 13.6856 1.82758C13.73 1.41587 14.1001 1.11737 14.5118 1.16156Z"
    fill="currentColor"
  />
</svg>
