<svg width="12" height="12" viewBox="0 0 12 12" fill="none" xmlns="http://www.w3.org/2000/svg" data-fui-icon="true">
  <path
    d="M3.34766 1.75696C4.03109 1.07361 5.13985 1.07359 5.82324 1.75696L6.12793 2.06262C6.21579 1.92309 6.31987 1.79062 6.44141 1.66907C6.92953 1.18095 7.72083 1.18106 8.20898 1.66907L9.80078 3.25989C11.6067 5.06602 11.6067 7.99478 9.80078 9.8009C7.99466 11.607 5.06595 11.6069 3.25977 9.8009L0.873047 7.41418C0.189721 6.7308 0.189756 5.62298 0.873047 4.93958C0.969805 4.84282 1.07613 4.76089 1.1875 4.69153C0.943231 4.06436 1.07377 3.325 1.58008 2.81848C1.96172 2.43684 2.47604 2.26901 2.97461 2.3136C3.05992 2.11176 3.18317 1.92145 3.34766 1.75696ZM4.76172 2.81848C4.66408 2.72086 4.50583 2.72085 4.4082 2.81848C4.31098 2.91614 4.31072 3.0745 4.4082 3.172L5.46973 4.23254C5.76221 4.52541 5.76235 5.0003 5.46973 5.29309C5.17683 5.58598 4.7011 5.58598 4.4082 5.29309L2.99414 3.87903C2.8965 3.78139 2.73826 3.78139 2.64062 3.87903C2.54325 3.97668 2.54308 4.135 2.64062 4.23254L4.4082 6.00012C4.7011 6.29302 4.7011 6.76778 4.4082 7.06067C4.1153 7.35338 3.64049 7.3535 3.34766 7.06067L2.28711 6.00012C2.18947 5.90255 2.03121 5.90251 1.93359 6.00012C1.83609 6.09774 1.83605 6.25604 1.93359 6.35364L4.32031 8.74036C5.54061 9.96046 7.5189 9.96036 8.73926 8.74036C9.95964 7.51997 9.95964 5.54082 8.73926 4.32043L7.35645 2.93762C7.28613 3.08491 7.26587 3.25023 7.29785 3.4093C7.32591 3.54853 7.39294 3.68106 7.50195 3.79016C7.90751 4.19572 8.07064 4.78451 7.93164 5.34094L7.88086 5.54211C7.83196 5.73768 7.88976 5.94528 8.03223 6.08801C8.32512 6.38091 8.32512 6.85664 8.03223 7.14954C7.73934 7.44202 7.26446 7.44218 6.97168 7.14954C6.45643 6.63429 6.2491 5.88573 6.42578 5.17883L6.47656 4.97766C6.48787 4.93232 6.47445 4.88375 6.44141 4.85071C6.18009 4.58932 5.99753 4.2779 5.8916 3.94739L4.76172 2.81848Z"
    fill="currentColor"
  />
</svg>
