<svg width="32" height="32" viewBox="0 0 32 32" fill="none" xmlns="http://www.w3.org/2000/svg" data-fui-icon="true">
  <path
    d="M10.5205 4.86292C11.5943 3.78924 13.3353 3.7893 14.4092 4.86292L17.0127 7.46643C17.1969 6.5994 17.625 5.77315 18.2988 5.09924L18.4062 5.00061C18.9626 4.54726 19.7842 4.58071 20.3027 5.09924L25.252 10.0485C29.4498 14.2466 29.45 21.0536 25.252 25.2516C21.0539 29.4496 14.2469 29.4494 10.0488 25.2516L3.9209 19.1227C2.84712 18.0487 2.84701 16.3079 3.9209 15.234C4.23946 14.9155 4.61741 14.6936 5.01855 14.5641L4.86328 14.4088C3.78971 13.3349 3.78966 11.594 4.86328 10.5201C5.23731 10.1461 5.6933 9.90512 6.17285 9.79163C5.73497 8.78568 5.92633 7.57139 6.74902 6.74866C7.57166 5.92602 8.78512 5.73578 9.79102 6.17346C9.90438 5.69346 10.1461 5.23727 10.5205 4.86292ZM3.75684 22.4088C4.16552 22.342 4.55123 22.6193 4.61816 23.028C4.69561 23.501 5.05029 24.2311 5.625 24.9235C6.19643 25.6119 6.88785 26.1451 7.53906 26.3385C7.93591 26.4563 8.16234 26.8733 8.04492 27.2701C7.92705 27.6671 7.50931 27.8937 7.1123 27.776C6.07156 27.4669 5.14666 26.6967 4.4707 25.8824C3.79814 25.0722 3.27444 24.0998 3.13867 23.2701C3.07187 22.8614 3.3482 22.4758 3.75684 22.4088ZM13.3486 5.92346C12.8605 5.43565 12.0691 5.43556 11.5811 5.92346C11.093 6.4115 11.0932 7.20287 11.5811 7.69104L16.2949 12.4059C16.5878 12.6988 16.5878 13.1735 16.2949 13.4664C16.002 13.7591 15.5272 13.7592 15.2344 13.4664L9.57812 7.8092C9.08997 7.32105 8.29771 7.32107 7.80957 7.8092C7.3216 8.29723 7.32179 9.08862 7.80957 9.57678L13.4668 15.234C13.7596 15.5269 13.7596 16.0017 13.4668 16.2946C13.1739 16.5874 12.6991 16.5874 12.4062 16.2946L7.69141 11.5807C7.20323 11.0928 6.41187 11.0926 5.92383 11.5807C5.436 12.0688 5.43604 12.8602 5.92383 13.3483L11.5811 19.0055C11.8736 19.2984 11.8738 19.7733 11.5811 20.066C11.2883 20.3587 10.8134 20.3586 10.5205 20.066L6.74902 16.2946C6.26088 15.8066 5.46955 15.8065 4.98145 16.2946C4.49334 16.7827 4.49346 17.574 4.98145 18.0621L11.1104 24.191C14.7227 27.8029 20.5792 27.8032 24.1914 24.191C27.8036 20.5788 27.8035 14.7213 24.1914 11.109L19.3018 6.21936C18.5469 7.01315 18.2691 8.09456 18.4717 9.10217C18.5936 9.70763 18.8888 10.2849 19.3594 10.7555L20.5918 11.9889C20.9181 12.3154 21.0129 12.8077 20.8311 13.2321C20.1591 14.8005 20.5102 16.6202 21.7168 17.8268C22.0093 18.1196 22.0093 18.5945 21.7168 18.8873C21.424 19.1801 20.9492 19.18 20.6562 18.8873C19.0758 17.3069 18.5747 14.9525 19.3574 12.8756L18.2988 11.817C17.6733 11.1915 17.2593 10.4322 17.0557 9.63147L13.3486 5.92346ZM23.209 3.47913C25.3198 3.70644 27.0729 5.17303 27.6455 6.96936C27.7711 7.36383 27.5535 7.78583 27.1592 7.91174C26.7646 8.03752 26.3427 7.81897 26.2168 7.42444C25.8313 6.21549 24.5912 5.13754 23.0488 4.97131C22.6371 4.927 22.3386 4.55688 22.3828 4.14514C22.4271 3.73338 22.7972 3.43493 23.209 3.47913Z"
    fill="currentColor"
  />
</svg>
