<svg width="12" height="12" viewBox="0 0 12 12" fill="none" xmlns="http://www.w3.org/2000/svg" data-fui-icon="true">
  <path
    d="M3.34814 1.75696C4.03158 1.07361 5.14034 1.07359 5.82373 1.75696L6.12842 2.06262C6.21628 1.92309 6.32036 1.79062 6.44189 1.66907C6.93002 1.18095 7.72131 1.18106 8.20947 1.66907L9.80127 3.25989C11.6072 5.06602 11.6072 7.99478 9.80127 9.8009C7.99515 11.607 5.06644 11.6069 3.26025 9.8009L0.873535 7.41418C0.190209 6.7308 0.190245 5.62298 0.873535 4.93958C0.970293 4.84282 1.07662 4.76089 1.18799 4.69153C0.943719 4.06436 1.07426 3.325 1.58057 2.81848C1.96221 2.43684 2.47653 2.26901 2.9751 2.3136C3.06041 2.11176 3.18366 1.92145 3.34814 1.75696ZM4.76221 2.81848C4.66457 2.72086 4.50632 2.72085 4.40869 2.81848C4.31147 2.91614 4.31121 3.0745 4.40869 3.172L5.47021 4.23254C5.7627 4.52541 5.76284 5.0003 5.47021 5.29309C5.17732 5.58598 4.70158 5.58598 4.40869 5.29309L2.99463 3.87903C2.89699 3.78139 2.73875 3.78139 2.64111 3.87903C2.54374 3.97668 2.54357 4.135 2.64111 4.23254L4.40869 6.00012C4.70158 6.29302 4.70158 6.76778 4.40869 7.06067C4.11578 7.35338 3.64098 7.3535 3.34814 7.06067L2.2876 6.00012C2.18996 5.90255 2.03169 5.90251 1.93408 6.00012C1.83658 6.09774 1.83654 6.25604 1.93408 6.35364L4.3208 8.74036C5.54109 9.96046 7.51939 9.96036 8.73975 8.74036C9.96013 7.51997 9.96013 5.54082 8.73975 4.32043L7.35693 2.93762C7.28662 3.08491 7.26636 3.25023 7.29834 3.4093C7.3264 3.54853 7.39342 3.68106 7.50244 3.79016C7.908 4.19572 8.07113 4.78451 7.93213 5.34094L7.88135 5.54211C7.83245 5.73768 7.89024 5.94528 8.03271 6.08801C8.32561 6.38091 8.32561 6.85664 8.03271 7.14954C7.73983 7.44202 7.26495 7.44218 6.97217 7.14954C6.45692 6.63429 6.24959 5.88573 6.42627 5.17883L6.47705 4.97766C6.48836 4.93232 6.47493 4.88375 6.44189 4.85071C6.18058 4.58932 5.99802 4.2779 5.89209 3.94739L4.76221 2.81848Z"
    fill="currentColor"
  />
</svg>
