<svg
  width="12"
  height="12"
  viewBox="0 0 12 12"
  fill="none"
  xmlns="http://www.w3.org/2000/svg"
  data-fui-icon="true"
>
  <path
    d="M2.81793 5.46973C2.4274 5.0792 1.79424 5.0792 1.40372 5.46973C1.01319 5.86025 1.01319 6.49342 1.40372 6.88394L3.7902 9.27043C5.30348 10.7837 7.757 10.7837 9.27028 9.27043C10.7836 7.75715 10.7836 5.30363 9.27028 3.79035L7.67929 2.19936C7.48403 2.0041 7.16745 2.00409 6.97218 2.19936C6.60325 2.56829 6.46669 3.08156 6.56245 3.55739M2.81793 5.46973L2.11082 4.76262C1.7203 4.3721 1.7203 3.73893 2.11082 3.34841C2.50136 2.95787 3.13451 2.95788 3.52504 3.34841L3.87859 3.70196M2.81793 5.46973L3.87859 6.53039M6.56245 3.55739L5.2928 2.28775C4.90228 1.89722 4.26912 1.89721 3.87859 2.28775C3.48805 2.67828 3.48806 3.31144 3.87859 3.70196M6.56245 3.55739C6.61876 3.83707 6.75531 4.10381 6.97218 4.32068C7.19153 4.54002 7.2797 4.85836 7.20447 5.15931L7.15408 5.36087C7.04123 5.81221 7.17349 6.28976 7.50251 6.61878M3.87859 3.70196L4.93925 4.76262"
    stroke="currentColor"
    stroke-width="1.5"
    stroke-linecap="round"
    stroke-linejoin="round"
  />
</svg>
