<svg
  width="20"
  height="20"
  viewBox="0 0 20 20"
  fill="none"
  xmlns="http://www.w3.org/2000/svg"
  data-fui-icon="true"
>
  <path
    d="M5.32429 9.85263C4.83614 9.36448 4.04468 9.36448 3.55653 9.85263C3.06837 10.3408 3.06837 11.1322 3.55653 11.6204L7.38669 15.4506C9.82744 17.8913 13.7847 17.8913 16.2255 15.4506C18.6663 13.0098 18.6663 9.05248 16.2255 6.61173L13.1319 3.51814C12.9692 3.35542 12.7054 3.35544 12.5427 3.51814C11.9278 4.13302 11.7002 4.98848 11.8598 5.78153M5.32429 9.85263L4.14578 8.67412C3.65763 8.18597 3.65763 7.39451 4.14578 6.90636C4.63392 6.41822 5.42539 6.4182 5.91355 6.90636M5.32429 9.85263L7.68132 12.2097M11.8598 5.78153L9.44908 3.37082C8.96093 2.88266 8.16946 2.88268 7.68132 3.37082C7.19318 3.85896 7.19316 4.65043 7.68132 5.13859M11.8598 5.78153C11.9536 6.24766 12.1812 6.69222 12.5427 7.05367L13.3131 7.82406C13.3816 7.89259 13.4015 7.99595 13.3633 8.08504C12.8677 9.24158 13.1261 10.5834 14.0158 11.4731M5.91355 6.90636L5.32429 6.3171C4.83614 5.82894 4.83615 5.03747 5.32429 4.54933C5.81243 4.06119 6.6039 4.06118 7.09206 4.54933L7.68132 5.13859M5.91355 6.90636L8.85983 9.85263M7.68132 5.13859L10.6276 8.08487"
    stroke="currentColor"
    stroke-width="1.5"
    stroke-linecap="round"
    stroke-linejoin="round"
  />
  <path
    d="M16.8077 3.76518C16.5082 2.82591 15.573 2.03071 14.4312 1.90784M2.46992 14.2382C2.60302 15.0524 3.56709 16.367 4.62485 16.6811"
    stroke="currentColor"
    stroke-width="1.5"
    stroke-linecap="round"
  />
</svg>
