<svg width="20" height="20" viewBox="0 0 20 20" fill="none" xmlns="http://www.w3.org/2000/svg" data-fui-icon="true">
  <path
    d="M7.15039 2.84039C7.93134 2.05944 9.19842 2.05957 9.97949 2.84039L11.2715 4.13336C11.4294 3.71624 11.6758 3.32392 12.0117 2.98785C12.4672 2.5324 13.2064 2.53253 13.6621 2.98785L16.7559 6.0816C19.4893 8.81527 19.4894 13.2474 16.7559 15.981C14.0223 18.7145 9.59008 18.7144 6.85645 15.981L3.02637 12.1509C2.24532 11.3699 2.24532 10.1029 3.02637 9.32184C3.15349 9.19477 3.29472 9.09016 3.44336 9.00446C2.84156 8.22026 2.89734 7.09345 3.61523 6.37555C3.80963 6.18118 4.03486 6.03566 4.27441 5.93805C4.10183 5.27417 4.27391 4.5392 4.79395 4.0191C5.31382 3.49923 6.04824 3.32737 6.71191 3.49957C6.8095 3.25977 6.95588 3.03498 7.15039 2.84039ZM2.34961 13.4986C2.75808 13.4321 3.14397 13.7084 3.21094 14.1168C3.24835 14.3455 3.43738 14.7578 3.77832 15.1685C4.1157 15.5748 4.50413 15.8633 4.83789 15.9625C5.23484 16.0803 5.46138 16.4971 5.34375 16.8941C5.22592 17.291 4.80902 17.5175 4.41211 17.4C3.68848 17.1851 3.06617 16.6591 2.62402 16.1265C2.1853 15.598 1.82524 14.9444 1.72949 14.3589C1.66295 13.9503 1.94097 13.5654 2.34961 13.4986ZM8.91895 3.90094C8.72374 3.70599 8.40711 3.70598 8.21191 3.90094C8.01674 4.09612 8.01689 4.4127 8.21191 4.60797L11.1582 7.55426C11.451 7.84705 11.4508 8.32189 11.1582 8.61481C10.8653 8.9077 10.3905 8.9077 10.0977 8.61481L6.56152 5.07965C6.36626 4.88453 6.0497 4.88444 5.85449 5.07965C5.65937 5.27486 5.6594 5.59144 5.85449 5.78668L9.39062 9.32184C9.68351 9.61473 9.68351 10.0905 9.39062 10.3834C9.09773 10.6763 8.62199 10.6763 8.3291 10.3834L5.38281 7.4361C5.18755 7.2414 4.87087 7.24113 4.67578 7.4361C4.48069 7.63118 4.48104 7.94782 4.67578 8.14313L8.21191 11.6793C8.50444 11.9721 8.50451 12.447 8.21191 12.7398C7.91902 13.0327 7.44328 13.0327 7.15039 12.7398L4.79395 10.3834C4.59868 10.1881 4.28218 10.1881 4.08691 10.3834C3.89184 10.5786 3.89171 10.8952 4.08691 11.0904L7.91699 14.9205C10.0648 17.0681 13.5475 17.0682 15.6953 14.9205C17.8431 12.7727 17.8429 9.29003 15.6953 7.14215L12.8623 4.30914C12.5955 4.70351 12.5046 5.1807 12.5957 5.63336C12.6613 5.95916 12.8195 6.27025 13.0732 6.52399L13.8438 7.29449C14.0932 7.5443 14.1875 7.90505 14.1006 8.23981L14.0527 8.38043C13.6779 9.2551 13.874 10.2701 14.5469 10.9429C14.8392 11.2358 14.8393 11.7107 14.5469 12.0035C14.2541 12.2963 13.7783 12.2961 13.4854 12.0035C12.4634 10.9813 12.1127 9.4794 12.5508 8.12262L12.0117 7.58453C11.6033 7.17605 11.3262 6.68329 11.1807 6.16266L8.91895 3.90094ZM14.5117 1.16168C15.9375 1.3153 17.1295 2.30491 17.5225 3.53766C17.648 3.93205 17.4304 4.35407 17.0361 4.48004C16.6415 4.60584 16.2196 4.38733 16.0938 3.99274C15.8879 3.34729 15.2089 2.7464 14.3516 2.65387C13.9398 2.60956 13.6414 2.23945 13.6855 1.8277C13.7299 1.41599 14.1 1.11749 14.5117 1.16168Z"
    fill="currentColor"
  />
</svg>
