<svg width="24" height="24" viewBox="0 0 24 24" fill="none" xmlns="http://www.w3.org/2000/svg" data-fui-icon="true">
  <path
    d="M2.98633 17.2192C3.39504 17.1525 3.78085 17.4306 3.84766 17.8394C3.8986 18.1496 4.14297 18.6671 4.56152 19.1714C4.97689 19.6717 5.4667 20.0417 5.90625 20.1724C6.30318 20.2902 6.52969 20.7071 6.41211 21.104C6.29426 21.5009 5.87742 21.7275 5.48047 21.6099C4.65112 21.3636 3.92734 20.7568 3.40723 20.1304C2.89048 19.5078 2.47621 18.7475 2.36719 18.0806C2.30043 17.6719 2.57775 17.2862 2.98633 17.2192ZM8.2002 3.51514C9.07885 2.63648 10.5031 2.63645 11.3818 3.51514L13.1035 5.23584C13.2775 4.6712 13.5871 4.13901 14.0342 3.69189C14.5223 3.2038 15.3136 3.20371 15.8018 3.69189L19.5137 7.40381C22.7355 10.6256 22.7355 15.849 19.5137 19.0708C16.2918 22.2926 11.0685 22.2926 7.84668 19.0708L3.25098 14.4751C2.37229 13.5964 2.37229 12.1712 3.25098 11.2925C3.43861 11.1049 3.65214 10.9595 3.87891 10.8521C3.08209 9.96877 3.1072 8.60813 3.95801 7.75732C4.21049 7.50489 4.50847 7.32659 4.8252 7.21924C4.57078 6.43948 4.75243 5.54889 5.37207 4.9292C5.99173 4.30954 6.88236 4.12895 7.66211 4.3833C7.7694 4.06625 7.94756 3.76787 8.2002 3.51514ZM10.3213 4.57568C10.0284 4.2828 9.55362 4.2828 9.26074 4.57568C8.96815 4.86859 8.96795 5.34344 9.26074 5.63623L12.7969 9.17139C13.0896 9.46419 13.0894 9.93905 12.7969 10.2319C12.504 10.5248 12.0292 10.5247 11.7363 10.2319L7.49316 5.98975C7.20028 5.69686 6.7255 5.69687 6.43262 5.98975C6.1398 6.28263 6.13975 6.75743 6.43262 7.05029L10.6748 11.2925C10.9677 11.5854 10.9677 12.0601 10.6748 12.353C10.3819 12.6459 9.90715 12.6459 9.61426 12.353L6.0791 8.81787C5.78627 8.52504 5.31145 8.52515 5.01855 8.81787C4.72566 9.11077 4.72566 9.58552 5.01855 9.87842L9.26074 14.1216C9.5536 14.4145 9.55362 14.8892 9.26074 15.1821C8.96784 15.4748 8.49302 15.4749 8.2002 15.1821L5.37207 12.353C5.07929 12.0604 4.6044 12.0606 4.31152 12.353C4.01863 12.6459 4.01863 13.1217 4.31152 13.4146L8.90723 18.0103C11.5432 20.6462 15.8171 20.6462 18.4531 18.0103C21.0891 15.3742 21.0891 11.1004 18.4531 8.46436L14.9277 4.93896C14.5017 5.47081 14.3521 6.15107 14.4805 6.78955H14.4795C14.5639 7.2086 14.7687 7.60803 15.0947 7.93408L16.0195 8.85889C16.3183 9.15795 16.4049 9.60889 16.2383 9.99756C15.7644 11.1035 16.0115 12.387 16.8623 13.2378C17.155 13.5307 17.1551 14.0055 16.8623 14.2983C16.5695 14.591 16.0946 14.591 15.8018 14.2983C14.5932 13.0898 14.1915 11.3032 14.7441 9.70557L14.0342 8.99463C13.5533 8.51372 13.2305 7.93294 13.0654 7.31885L10.3213 4.57568ZM17.7627 2.45654C19.417 2.63457 20.7961 3.78289 21.249 5.20361C21.3746 5.59804 21.157 6.02005 20.7627 6.146C20.3683 6.27164 19.9464 6.05378 19.8203 5.65967C19.5546 4.82621 18.6885 4.06568 17.6025 3.94873C17.1909 3.90443 16.8925 3.53419 16.9365 3.12256C16.9808 2.7108 17.3509 2.41235 17.7627 2.45654Z"
    fill="currentColor"
  />
</svg>
