<svg width="24" height="24" viewBox="0 0 24 24" fill="none" xmlns="http://www.w3.org/2000/svg" data-fui-icon="true">
  <path
    d="M2.98633 17.2193C3.39504 17.1526 3.78085 17.4307 3.84766 17.8394C3.8986 18.1496 4.14297 18.6672 4.56152 19.1714C4.97689 19.6718 5.4667 20.0418 5.90625 20.1724C6.30318 20.2903 6.52969 20.7071 6.41211 21.1041C6.29426 21.501 5.87742 21.7275 5.48047 21.6099C4.65112 21.3637 3.92734 20.7569 3.40723 20.1304C2.89048 19.5079 2.47621 18.7476 2.36719 18.0806C2.30043 17.672 2.57775 17.2863 2.98633 17.2193ZM8.2002 3.5152C9.07885 2.63654 10.5031 2.63651 11.3818 3.5152L13.1035 5.2359C13.2775 4.67127 13.5871 4.13908 14.0342 3.69196C14.5223 3.20386 15.3136 3.20377 15.8018 3.69196L19.5137 7.40387C22.7355 10.6257 22.7355 15.8491 19.5137 19.0709C16.2918 22.2926 11.0685 22.2926 7.84668 19.0709L3.25098 14.4752C2.37229 13.5965 2.37229 12.1712 3.25098 11.2925C3.43861 11.105 3.65214 10.9596 3.87891 10.8521C3.08209 9.96883 3.1072 8.60819 3.95801 7.75739C4.21049 7.50495 4.50847 7.32665 4.8252 7.2193C4.57078 6.43954 4.75243 5.54895 5.37207 4.92926C5.99173 4.3096 6.88236 4.12901 7.66211 4.38336C7.7694 4.06631 7.94756 3.76793 8.2002 3.5152ZM10.3213 4.57574C10.0284 4.28286 9.55362 4.28286 9.26074 4.57574C8.96815 4.86865 8.96795 5.3435 9.26074 5.63629L12.7969 9.17145C13.0896 9.46425 13.0894 9.93912 12.7969 10.232C12.504 10.5248 12.0292 10.5248 11.7363 10.232L7.49316 5.98981C7.20028 5.69692 6.7255 5.69693 6.43262 5.98981C6.1398 6.28269 6.13975 6.75749 6.43262 7.05035L10.6748 11.2925C10.9677 11.5854 10.9677 12.0602 10.6748 12.3531C10.3819 12.646 9.90715 12.646 9.61426 12.3531L6.0791 8.81793C5.78627 8.5251 5.31145 8.52521 5.01855 8.81793C4.72566 9.11083 4.72566 9.58558 5.01855 9.87848L9.26074 14.1216C9.5536 14.4145 9.55362 14.8893 9.26074 15.1822C8.96784 15.4749 8.49302 15.475 8.2002 15.1822L5.37207 12.3531C5.07929 12.0605 4.6044 12.0606 4.31152 12.3531C4.01863 12.646 4.01863 13.1217 4.31152 13.4146L8.90723 18.0103C11.5432 20.6463 15.8171 20.6463 18.4531 18.0103C21.0891 15.3743 21.0891 11.1004 18.4531 8.46442L14.9277 4.93903C14.5017 5.47088 14.3521 6.15113 14.4805 6.78961H14.4795C14.5639 7.20866 14.7687 7.60809 15.0947 7.93414L16.0195 8.85895C16.3183 9.15801 16.4049 9.60895 16.2383 9.99762C15.7644 11.1036 16.0115 12.3871 16.8623 13.2379C17.155 13.5308 17.1551 14.0056 16.8623 14.2984C16.5695 14.5911 16.0946 14.5911 15.8018 14.2984C14.5932 13.0899 14.1915 11.3033 14.7441 9.70563L14.0342 8.99469C13.5533 8.51378 13.2305 7.933 13.0654 7.31891L10.3213 4.57574ZM17.7627 2.4566C19.417 2.63463 20.7961 3.78296 21.249 5.20367C21.3746 5.5981 21.157 6.02011 20.7627 6.14606C20.3683 6.2717 19.9464 6.05384 19.8203 5.65973C19.5546 4.82627 18.6885 4.06574 17.6025 3.94879C17.1909 3.90449 16.8925 3.53425 16.9365 3.12262C16.9808 2.71086 17.3509 2.41241 17.7627 2.4566Z"
    fill="currentColor"
  />
</svg>
