<svg width="16" height="16" viewBox="0 0 16 16" fill="none" xmlns="http://www.w3.org/2000/svg" data-fui-icon="true">
  <path
    d="M8 0.5C8.37678 0.5 8.7477 0.528175 9.11035 0.582031C9.51989 0.642974 9.80291 1.02402 9.74219 1.43359C9.68134 1.84331 9.29937 2.12628 8.88965 2.06543C8.59976 2.02239 8.30273 2 8 2C4.68629 2 2 4.68629 2 8C2 11.3137 4.68629 14 8 14C11.3137 14 14 11.3137 14 8C14 7.69728 13.9776 7.40024 13.9346 7.11035C13.8737 6.70063 14.1567 6.31866 14.5664 6.25781C14.976 6.19709 15.357 6.48011 15.418 6.88965C15.4718 7.2523 15.5 7.62322 15.5 8C15.5 12.1421 12.1421 15.5 8 15.5C3.85786 15.5 0.5 12.1421 0.5 8C0.5 3.85786 3.85786 0.5 8 0.5ZM9.86133 9.60645C10.0764 9.25731 10.5331 9.14509 10.8857 9.35645C11.2408 9.5695 11.3564 10.0306 11.1436 10.3857L11.1426 10.3867V10.3877L11.1416 10.3887C11.1411 10.3896 11.1403 10.3906 11.1396 10.3916C11.1382 10.394 11.1366 10.3974 11.1348 10.4004C11.1311 10.4062 11.1263 10.4129 11.1211 10.4209C11.1105 10.4373 11.0964 10.4586 11.0791 10.4834C11.0442 10.5332 10.9951 10.5996 10.9316 10.6758C10.8051 10.8275 10.6173 11.0243 10.3633 11.2197C9.84929 11.615 9.06746 12 8 12C6.93254 12 6.15071 11.615 5.63672 11.2197C5.38265 11.0243 5.19485 10.8275 5.06836 10.6758C5.0049 10.5996 4.95576 10.5332 4.9209 10.4834C4.90358 10.4586 4.88952 10.4373 4.87891 10.4209C4.87372 10.4129 4.86885 10.4062 4.86523 10.4004C4.86339 10.3974 4.86179 10.394 4.86035 10.3916C4.85972 10.3906 4.85895 10.3896 4.8584 10.3887L4.85742 10.3877V10.3867L4.85645 10.3857C4.64357 10.0306 4.75917 9.5695 5.11426 9.35645C5.46686 9.14509 5.92365 9.25731 6.13867 9.60645C6.13983 9.60824 6.14392 9.61478 6.15039 9.62402C6.16342 9.64261 6.18685 9.67421 6.2207 9.71484C6.28948 9.79737 6.39885 9.91337 6.55078 10.0303C6.8493 10.2599 7.31765 10.5 8 10.5C8.68235 10.5 9.1507 10.2599 9.44922 10.0303C9.60115 9.91337 9.71052 9.79737 9.7793 9.71484C9.81315 9.67421 9.83658 9.64261 9.84961 9.62402L9.86133 9.60645ZM5.5 6C6.05228 6 6.5 6.44772 6.5 7C6.5 7.55228 6.05228 8 5.5 8C4.94772 8 4.5 7.55228 4.5 7C4.5 6.44772 4.94772 6 5.5 6ZM10.5 6C11.0523 6 11.5 6.44772 11.5 7C11.5 7.55228 11.0523 8 10.5 8C9.94771 8 9.5 7.55228 9.5 7C9.5 6.44772 9.94771 6 10.5 6ZM13 0.25C13.4142 0.25 13.75 0.585786 13.75 1V2.25H15C15.4142 2.25 15.75 2.58579 15.75 3C15.75 3.41421 15.4142 3.75 15 3.75H13.75V5C13.75 5.41421 13.4142 5.75 13 5.75C12.5858 5.75 12.25 5.41421 12.25 5V3.75H11C10.5858 3.75 10.25 3.41421 10.25 3C10.25 2.58579 10.5858 2.25 11 2.25H12.25V1C12.25 0.585786 12.5858 0.25 13 0.25Z"
    fill="currentColor"
  />
</svg>
