<svg width="12" height="12" viewBox="0 0 12 12" fill="none" xmlns="http://www.w3.org/2000/svg" data-fui-icon="true">
  <g clip-path="url(#clip0_6453_414)">
    <path
      d="M6 0C6.62481 0 7.22755 0.0952543 7.79395 0.272461C7.80224 0.275131 7.80662 0.284458 7.80469 0.292969C7.80317 0.298786 7.79878 0.303124 7.79297 0.304688C6.90914 0.511758 6.25 1.30303 6.25 2.25C6.25 2.85598 6.52032 3.39781 6.94629 3.76367C7.05651 3.8587 7.05958 4.04347 6.96875 4.15723C6.83205 4.32838 6.75 4.54521 6.75 4.78125C6.75 5.33353 7.19772 5.78125 7.75 5.78125C8.01368 5.78125 8.25321 5.67865 8.43164 5.51172C8.51346 5.43532 8.6391 5.4145 8.73535 5.47168C9.03249 5.64816 9.37897 5.75 9.75 5.75C10.6971 5.75 11.4883 5.09099 11.6953 4.20703C11.6968 4.20109 11.7011 4.19609 11.707 4.19434C11.7152 4.1919 11.724 4.19693 11.7266 4.20508C11.904 4.77185 12 5.37471 12 6C12 9.31371 9.31371 12 6 12C2.68629 12 0 9.31371 0 6C0 2.68629 2.68629 0 6 0ZM4.63281 6.84766C4.42936 6.52681 4.01223 6.40575 3.66504 6.5791C3.29469 6.76428 3.14416 7.21455 3.3291 7.58496L3.72266 7.38867C3.34232 7.57896 3.32936 7.5854 3.3291 7.58594L3.33008 7.58691L3.33691 7.60059C3.34018 7.60681 3.34415 7.6149 3.34863 7.62305C3.35757 7.63929 3.36975 7.6595 3.38379 7.68262C3.41192 7.72892 3.45104 7.78856 3.50195 7.85645C3.6039 7.99233 3.75572 8.16551 3.96875 8.33594C4.40465 8.68466 5.06781 9 6 9C6.93219 9 7.59535 8.68466 8.03125 8.33594C8.24428 8.16551 8.3961 7.99233 8.49805 7.85645C8.54896 7.78856 8.58808 7.72892 8.61621 7.68262C8.63025 7.6595 8.64243 7.63929 8.65137 7.62305C8.65585 7.6149 8.65982 7.60681 8.66309 7.60059L8.66992 7.58691L8.6709 7.58594C8.67064 7.5854 8.65768 7.57896 8.27734 7.38867L8.6709 7.58496C8.85584 7.21455 8.70531 6.76428 8.33496 6.5791C7.98777 6.40575 7.57064 6.52681 7.36719 6.84766L7.33203 6.90918C7.3325 6.90826 7.3326 6.90703 7.33301 6.90625C7.32733 6.91543 7.31618 6.9329 7.29883 6.95605C7.26015 7.00762 7.19306 7.08462 7.09375 7.16406C6.90465 7.31534 6.56781 7.5 6 7.5C5.43219 7.5 5.09535 7.31534 4.90625 7.16406C4.80694 7.08462 4.73985 7.00762 4.70117 6.95605C4.68507 6.93456 4.67301 6.91878 4.66699 6.90918L4.63281 6.84766ZM4.25 3.78125C3.69772 3.78125 3.25 4.22897 3.25 4.78125C3.25 5.33353 3.69772 5.78125 4.25 5.78125C4.80228 5.78125 5.25 5.33353 5.25 4.78125C5.25 4.22897 4.80228 3.78125 4.25 3.78125ZM9.75 0C10.1642 0 10.5 0.335786 10.5 0.75V1.5H11.25C11.6642 1.5 12 1.83579 12 2.25C12 2.66421 11.6642 3 11.25 3H10.5V3.75C10.5 4.16421 10.1642 4.5 9.75 4.5C9.33579 4.5 9 4.16421 9 3.75V3H8.25C7.83579 3 7.5 2.66421 7.5 2.25C7.5 1.83579 7.83579 1.5 8.25 1.5H9V0.75C9 0.335786 9.33579 0 9.75 0Z"
      fill="currentColor"
    />
  </g>
  <defs>
    <clipPath id="clip0_6453_414"><path fill="currentColor" d="M0 0H12V12H0z" /></clipPath>
  </defs>
</svg>
