<svg width="32" height="32" viewBox="0 0 32 32" fill="none" xmlns="http://www.w3.org/2000/svg" data-fui-icon="true">
  <path
    d="M16 0.5C24.6355 0.5 31.5 7.36448 31.5 16C31.5 24.6355 24.6355 31.5 16 31.5C7.36453 31.5 0.500004 24.6355 0.5 16C0.5 7.36449 7.36453 0.500017 16 0.5ZM16 2C8.19295 2.00002 2 8.19292 2 16C2 23.8071 8.19295 30 16 30C23.8071 30 30 23.8071 30 16C30 8.19291 23.8071 2 16 2ZM21.1025 20.6221C21.3113 20.2644 21.7702 20.1439 22.1279 20.3525C22.4856 20.5613 22.6061 21.0202 22.3975 21.3779L21.75 21C22.3978 21.3779 22.3977 21.3786 22.3975 21.3789L22.3965 21.3809C22.3958 21.382 22.3944 21.3833 22.3936 21.3848C22.3917 21.3879 22.3894 21.392 22.3867 21.3965C22.3812 21.4056 22.3734 21.418 22.3643 21.4326C22.346 21.4617 22.3209 21.5014 22.2881 21.5498C22.222 21.6472 22.1254 21.7814 21.998 21.9395C21.7439 22.2549 21.3626 22.6709 20.8438 23.0859C19.8009 23.9202 18.2026 24.75 16 24.75C13.7974 24.75 12.1991 23.9202 11.1562 23.0859C10.6374 22.6709 10.2561 22.2549 10.002 21.9395C9.87465 21.7814 9.77798 21.6472 9.71191 21.5498C9.67908 21.5014 9.65399 21.4617 9.63574 21.4326C9.62659 21.418 9.61882 21.4056 9.61328 21.3965C9.61058 21.392 9.60828 21.3879 9.60645 21.3848C9.60558 21.3833 9.60418 21.382 9.60352 21.3809L9.60254 21.3789L10.25 21L9.60254 21.3779C9.39386 21.0202 9.51442 20.5613 9.87207 20.3525C10.2297 20.1439 10.6876 20.2648 10.8965 20.6221C10.898 20.6246 10.9022 20.6283 10.9062 20.6348C10.9155 20.6496 10.9315 20.6747 10.9541 20.708C10.9994 20.7747 11.0709 20.8751 11.1699 20.998C11.3689 21.2451 11.6751 21.5792 12.0938 21.9141C12.9259 22.5798 14.2026 23.25 16 23.25C17.7974 23.25 19.0741 22.5798 19.9062 21.9141C20.3249 21.5792 20.6311 21.2451 20.8301 20.998C20.9291 20.8751 21.0006 20.7747 21.0459 20.708C21.0685 20.6747 21.0845 20.6496 21.0938 20.6348L21.1025 20.6221ZM9.875 13.2754C10.7034 13.2754 11.375 13.947 11.375 14.7754C11.3748 15.6036 10.7033 16.2754 9.875 16.2754C9.04669 16.2754 8.3752 15.6036 8.375 14.7754C8.375 13.947 9.04657 13.2754 9.875 13.2754ZM22.125 13.2754C22.9534 13.2754 23.625 13.947 23.625 14.7754C23.6248 15.6036 22.9533 16.2754 22.125 16.2754C21.2967 16.2754 20.6252 15.6036 20.625 14.7754C20.625 13.947 21.2966 13.2754 22.125 13.2754Z"
    fill="currentColor"
  />
</svg>
