<svg width="32" height="32" viewBox="0 0 32 32" fill="none" xmlns="http://www.w3.org/2000/svg" data-fui-icon="true">
  <path
    d="M16 0.5C18.7308 0.5 21.2845 1.18658 23.5 2.39844V3H22.25C20.7312 3 19.5 4.23122 19.5 5.75C19.5 7.26878 20.7312 8.5 22.25 8.5H23.5V9.75C23.5 11.2688 24.7312 12.5 26.25 12.5C27.7688 12.5 29 11.2688 29 9.75V8.5H29.6016C30.8134 10.7155 31.5 13.2692 31.5 16C31.5 24.6355 24.6355 31.5 16 31.5C7.36453 31.5 0.500004 24.6355 0.5 16C0.5 7.36449 7.36453 0.500017 16 0.5ZM22.1279 20.3525C21.7702 20.1439 21.3113 20.2644 21.1025 20.6221L21.0938 20.6348C21.0845 20.6496 21.0685 20.6747 21.0459 20.708C21.0006 20.7747 20.9291 20.8751 20.8301 20.998C20.6311 21.2451 20.3249 21.5792 19.9062 21.9141C19.0741 22.5798 17.7974 23.25 16 23.25C14.2026 23.25 12.9259 22.5798 12.0938 21.9141C11.6751 21.5792 11.3689 21.2451 11.1699 20.998C11.0709 20.8751 10.9994 20.7747 10.9541 20.708C10.9315 20.6747 10.9155 20.6496 10.9062 20.6348C10.9022 20.6283 10.898 20.6246 10.8965 20.6221C10.6876 20.2648 10.2297 20.1439 9.87207 20.3525C9.51442 20.5613 9.39386 21.0202 9.60254 21.3779L10.25 21L9.60254 21.3789L9.60352 21.3809C9.60418 21.382 9.60558 21.3833 9.60645 21.3848C9.60828 21.3879 9.61058 21.392 9.61328 21.3965C9.61882 21.4056 9.62659 21.418 9.63574 21.4326C9.65399 21.4617 9.67908 21.5014 9.71191 21.5498C9.77798 21.6472 9.87465 21.7814 10.002 21.9395C10.2561 22.2549 10.6374 22.6709 11.1562 23.0859C12.1991 23.9202 13.7974 24.75 16 24.75C18.2026 24.75 19.8009 23.9202 20.8438 23.0859C21.3626 22.6709 21.7439 22.2549 21.998 21.9395C22.1254 21.7814 22.222 21.6472 22.2881 21.5498C22.3209 21.5014 22.346 21.4617 22.3643 21.4326C22.3734 21.418 22.3812 21.4056 22.3867 21.3965C22.3894 21.392 22.3917 21.3879 22.3936 21.3848C22.3944 21.3833 22.3958 21.382 22.3965 21.3809L22.3975 21.3789C22.3977 21.3786 22.3978 21.3779 21.75 21L22.3975 21.3779C22.6061 21.0202 22.4856 20.5613 22.1279 20.3525ZM9.875 13.2754C9.04657 13.2754 8.375 13.947 8.375 14.7754C8.3752 15.6036 9.04669 16.2754 9.875 16.2754C10.7033 16.2754 11.3748 15.6036 11.375 14.7754C11.375 13.947 10.7034 13.2754 9.875 13.2754ZM22.125 13.2754C21.2966 13.2754 20.625 13.947 20.625 14.7754C20.6252 15.6036 21.2967 16.2754 22.125 16.2754C22.9533 16.2754 23.6248 15.6036 23.625 14.7754C23.625 13.947 22.9534 13.2754 22.125 13.2754ZM26.25 1C26.6642 1 27 1.33579 27 1.75V5H30.25C30.6642 5 31 5.33579 31 5.75C31 6.16421 30.6642 6.5 30.25 6.5H27V9.75C27 10.1642 26.6642 10.5 26.25 10.5C25.8358 10.5 25.5 10.1642 25.5 9.75V6.5H22.25C21.8358 6.5 21.5 6.16421 21.5 5.75C21.5 5.33579 21.8358 5 22.25 5H25.5V1.75C25.5 1.33579 25.8358 1 26.25 1Z"
    fill="currentColor"
  />
</svg>
