<svg width="20" height="20" viewBox="0 0 20 20" fill="none" xmlns="http://www.w3.org/2000/svg" data-fui-icon="true">
  <path
    d="M10 1C14.9706 1 19 5.02944 19 10C19 14.9706 14.9706 19 10 19C5.02944 19 1 14.9706 1 10C1 5.02944 5.02944 1 10 1ZM10 2.5C5.85786 2.5 2.5 5.85786 2.5 10C2.5 14.1421 5.85786 17.5 10 17.5C14.1421 17.5 17.5 14.1421 17.5 10C17.5 5.85786 14.1421 2.5 10 2.5ZM7.00879 12.9229C7.35598 12.7495 7.77311 12.8706 7.97656 13.1914L8.01172 13.2529L8.0127 13.2539L8.01367 13.2559V13.2588C8.01639 13.2637 8.02207 13.2715 8.02832 13.2822C8.04422 13.3094 8.07103 13.3534 8.10938 13.4082C8.18705 13.5191 8.30822 13.6699 8.47363 13.8203C8.7997 14.1166 9.29115 14.4062 10 14.4062C10.7089 14.4062 11.2003 14.1166 11.5264 13.8203C11.6918 13.6699 11.8129 13.5191 11.8906 13.4082C11.929 13.3534 11.9558 13.3094 11.9717 13.2822C11.9778 13.2718 11.9826 13.2638 11.9854 13.2588V13.2578L11.9873 13.2539L11.9883 13.2529L12.0234 13.1914C12.2269 12.8706 12.644 12.7495 12.9912 12.9229C13.3616 13.108 13.5121 13.5583 13.3271 13.9287L12.8848 13.708C13.3167 13.9241 13.3271 13.9293 13.3271 13.9297L13.3252 13.9316C13.3247 13.9327 13.3248 13.9343 13.3242 13.9355C13.323 13.938 13.321 13.9411 13.3193 13.9443C13.316 13.9507 13.3116 13.9586 13.3066 13.9678C13.2966 13.9864 13.2836 14.011 13.2666 14.04C13.2325 14.0983 13.1831 14.1762 13.1191 14.2676C12.9918 14.4495 12.8001 14.6896 12.5361 14.9297C12.0028 15.4145 11.1659 15.9062 10 15.9062C8.8341 15.9062 7.99717 15.4145 7.46387 14.9297C7.19987 14.6896 7.00821 14.4495 6.88086 14.2676C6.81691 14.1762 6.76755 14.0983 6.7334 14.04C6.71638 14.011 6.70343 13.9864 6.69336 13.9678C6.68842 13.9586 6.68398 13.9507 6.68066 13.9443C6.67899 13.9411 6.67703 13.938 6.67578 13.9355C6.67515 13.9343 6.67533 13.9327 6.6748 13.9316L6.67285 13.9297C6.67295 13.9293 6.6833 13.9241 7.11523 13.708L6.67285 13.9287C6.48791 13.5583 6.63844 13.108 7.00879 12.9229ZM6 10C6.55228 10 7 10.4477 7 11C7 11.5523 6.55228 12 6 12C5.44772 12 5 11.5523 5 11C5 10.4477 5.44772 10 6 10ZM14 10C14.5523 10 15 10.4477 15 11C15 11.5523 14.5523 12 14 12C13.4477 12 13 11.5523 13 11C13 10.4477 13.4477 10 14 10Z"
    fill="currentColor"
  />
</svg>
