<svg width="16" height="16" viewBox="0 0 16 16" fill="none" xmlns="http://www.w3.org/2000/svg" data-fui-icon="true">
  <path
    d="M8 0.5C12.1421 0.5 15.5 3.85786 15.5 8C15.5 12.1421 12.1421 15.5 8 15.5C3.85786 15.5 0.5 12.1421 0.5 8C0.5 3.85786 3.85786 0.5 8 0.5ZM10.8857 9.35645C10.5331 9.14509 10.0764 9.25731 9.86133 9.60645L9.84961 9.62402C9.83658 9.64261 9.81315 9.67421 9.7793 9.71484C9.71052 9.79737 9.60115 9.91337 9.44922 10.0303C9.1507 10.2599 8.68235 10.5 8 10.5C7.31765 10.5 6.8493 10.2599 6.55078 10.0303C6.39885 9.91337 6.28948 9.79737 6.2207 9.71484C6.18685 9.67421 6.16342 9.64261 6.15039 9.62402C6.14392 9.61478 6.13983 9.60824 6.13867 9.60645C5.92365 9.25731 5.46686 9.14509 5.11426 9.35645C4.75917 9.5695 4.64357 10.0306 4.85645 10.3857L4.85742 10.3867V10.3877L4.8584 10.3887C4.85895 10.3896 4.85972 10.3906 4.86035 10.3916C4.86179 10.394 4.86339 10.3974 4.86523 10.4004C4.86885 10.4062 4.87372 10.4129 4.87891 10.4209C4.88952 10.4373 4.90358 10.4586 4.9209 10.4834C4.95576 10.5332 5.0049 10.5996 5.06836 10.6758C5.19485 10.8275 5.38265 11.0243 5.63672 11.2197C6.15071 11.615 6.93254 12 8 12C9.06746 12 9.84929 11.615 10.3633 11.2197C10.6173 11.0243 10.8051 10.8275 10.9316 10.6758C10.9951 10.5996 11.0442 10.5332 11.0791 10.4834C11.0964 10.4586 11.1105 10.4373 11.1211 10.4209C11.1263 10.4129 11.1311 10.4062 11.1348 10.4004C11.1366 10.3974 11.1382 10.394 11.1396 10.3916C11.1403 10.3906 11.1411 10.3896 11.1416 10.3887L11.1426 10.3877V10.3867L11.1436 10.3857C11.3564 10.0306 11.2408 9.5695 10.8857 9.35645ZM5.5 6C4.94772 6 4.5 6.44772 4.5 7C4.5 7.55228 4.94772 8 5.5 8C6.05228 8 6.5 7.55228 6.5 7C6.5 6.44772 6.05228 6 5.5 6ZM10.5 6C9.94771 6 9.5 6.44772 9.5 7C9.5 7.55228 9.94771 8 10.5 8C11.0523 8 11.5 7.55228 11.5 7C11.5 6.44772 11.0523 6 10.5 6Z"
    fill="currentColor"
  />
</svg>
