<svg width="20" height="20" viewBox="0 0 20 20" fill="none" xmlns="http://www.w3.org/2000/svg" data-fui-icon="true">
  <path
    d="M10 0.5C10.5553 0.5 11.1014 0.550621 11.6338 0.647461C12.0412 0.721596 12.3122 1.11212 12.2383 1.51953C12.1642 1.92692 11.7736 2.19695 11.3662 2.12305C10.9209 2.04201 10.464 2 10 2C5.67968 2 2 5.67968 2 10C2 14.3203 5.67968 18 10 18C14.3203 18 18 14.3203 18 10C18 9.53604 17.958 9.07912 17.877 8.63379C17.8031 8.22641 18.0731 7.83585 18.4805 7.76172C18.8879 7.68775 19.2784 7.95879 19.3525 8.36621C19.4494 8.89857 19.5 9.44472 19.5 10C19.5 15.1487 15.1487 19.5 10 19.5C4.85125 19.5 0.5 15.1487 0.5 10C0.5 4.85125 4.85125 0.5 10 0.5ZM12.7666 12.665C12.9518 12.2947 13.4021 12.1442 13.7725 12.3291C14.1428 12.5143 14.2933 12.9646 14.1084 13.335L13.6211 13.0918C14.1083 13.3355 14.1076 13.3366 14.1074 13.3369L14.0996 13.3525C14.0958 13.3599 14.0908 13.3692 14.085 13.3799C14.0732 13.4015 14.0573 13.4299 14.0371 13.4639C13.9964 13.5323 13.938 13.6249 13.8604 13.7324C13.7055 13.9468 13.4709 14.2271 13.1445 14.5068C12.4837 15.0733 11.456 15.625 10 15.625C8.54403 15.625 7.51632 15.0733 6.85547 14.5068C6.52912 14.2271 6.29447 13.9468 6.13965 13.7324C6.06199 13.6249 6.00362 13.5323 5.96289 13.4639C5.94266 13.4299 5.92683 13.4015 5.91504 13.3799C5.9092 13.3692 5.90423 13.3599 5.90039 13.3525L5.89258 13.3369L5.8916 13.3359C5.89178 13.3354 5.9048 13.3289 6.37891 13.0918L5.8916 13.335C5.70666 12.9646 5.85719 12.5143 6.22754 12.3291C6.59795 12.1442 7.04725 12.2947 7.23242 12.665V12.6621C7.23553 12.6678 7.24183 12.6803 7.25195 12.6973C7.27226 12.7314 7.30724 12.7854 7.35645 12.8535C7.45551 12.9907 7.6116 13.1792 7.83203 13.3682C8.26494 13.7392 8.9561 14.125 10 14.125C11.0439 14.125 11.7351 13.7392 12.168 13.3682C12.3884 13.1792 12.5445 12.9907 12.6436 12.8535C12.6928 12.7854 12.7277 12.7314 12.748 12.6973L12.7666 12.6641V12.665ZM6.5 8C7.19036 8 7.75 8.55964 7.75 9.25C7.75 9.94036 7.19036 10.5 6.5 10.5C5.80964 10.5 5.25 9.94036 5.25 9.25C5.25 8.55964 5.80964 8 6.5 8ZM13.5 8C14.1904 8 14.75 8.55964 14.75 9.25C14.75 9.94036 14.1904 10.5 13.5 10.5C12.8096 10.5 12.25 9.94036 12.25 9.25C12.25 8.55964 12.8096 8 13.5 8ZM16.5 0.25C16.9142 0.25 17.25 0.585787 17.25 1V2.75H19C19.4142 2.75 19.75 3.08579 19.75 3.5C19.75 3.91421 19.4142 4.25 19 4.25H17.25V6C17.25 6.41421 16.9142 6.75 16.5 6.75C16.0858 6.75 15.75 6.41421 15.75 6V4.25H14C13.5858 4.25 13.25 3.91421 13.25 3.5C13.25 3.08579 13.5858 2.75 14 2.75H15.75V1C15.75 0.585787 16.0858 0.25 16.5 0.25Z"
    fill="currentColor"
  />
</svg>
