<svg width="20" height="20" viewBox="0 0 20 20" fill="none" xmlns="http://www.w3.org/2000/svg" data-fui-icon="true">
  <path
    d="M10 0.5C11.2984 0.5 12.5456 0.777973 13.6855 1.27441C12.5919 1.42753 11.75 2.3642 11.75 3.5C11.75 4.74264 12.7574 5.75 14 5.75H14.25V6C14.25 7.24264 15.2574 8.25 16.5 8.25C17.6361 8.25 18.5719 7.40748 18.7246 6.31348C19.2214 7.45378 19.5 8.70114 19.5 10C19.5 15.1487 15.1487 19.5 10 19.5C4.85125 19.5 0.5 15.1487 0.5 10C0.5 4.85125 4.85125 0.5 10 0.5ZM13.7725 12.3291C13.4021 12.1442 12.9518 12.2947 12.7666 12.665V12.6641L12.748 12.6973C12.7277 12.7314 12.6928 12.7854 12.6436 12.8535C12.5445 12.9907 12.3884 13.1792 12.168 13.3682C11.7351 13.7392 11.0439 14.125 10 14.125C8.9561 14.125 8.26494 13.7392 7.83203 13.3682C7.6116 13.1792 7.45551 12.9907 7.35645 12.8535C7.30724 12.7854 7.27226 12.7314 7.25195 12.6973C7.24183 12.6803 7.23553 12.6678 7.23242 12.6621V12.665C7.04725 12.2947 6.59795 12.1442 6.22754 12.3291C5.85719 12.5143 5.70666 12.9646 5.8916 13.335L6.37891 13.0918C5.9048 13.3289 5.89178 13.3354 5.8916 13.3359L5.89258 13.3369L5.90039 13.3525C5.90423 13.3599 5.9092 13.3692 5.91504 13.3799C5.92683 13.4015 5.94266 13.4299 5.96289 13.4639C6.00362 13.5323 6.06199 13.6249 6.13965 13.7324C6.29447 13.9468 6.52912 14.2271 6.85547 14.5068C7.51632 15.0733 8.54403 15.625 10 15.625C11.456 15.625 12.4837 15.0733 13.1445 14.5068C13.4709 14.2271 13.7055 13.9468 13.8604 13.7324C13.938 13.6249 13.9964 13.5323 14.0371 13.4639C14.0573 13.4299 14.0732 13.4015 14.085 13.3799C14.0908 13.3692 14.0958 13.3599 14.0996 13.3525L14.1074 13.3369C14.1076 13.3366 14.1083 13.3355 13.6211 13.0918L14.1084 13.335C14.2933 12.9646 14.1428 12.5143 13.7725 12.3291ZM6.5 8C5.80964 8 5.25 8.55964 5.25 9.25C5.25 9.94036 5.80964 10.5 6.5 10.5C7.19036 10.5 7.75 9.94036 7.75 9.25C7.75 8.55964 7.19036 8 6.5 8ZM13.5 8C12.8096 8 12.25 8.55964 12.25 9.25C12.25 9.94036 12.8096 10.5 13.5 10.5C14.1904 10.5 14.75 9.94036 14.75 9.25C14.75 8.55964 14.1904 8 13.5 8ZM16.5 0.25C16.9142 0.25 17.25 0.585787 17.25 1V2.75H19C19.4142 2.75 19.75 3.08579 19.75 3.5C19.75 3.91421 19.4142 4.25 19 4.25H17.25V6C17.25 6.41421 16.9142 6.75 16.5 6.75C16.0858 6.75 15.75 6.41421 15.75 6V4.25H14C13.5858 4.25 13.25 3.91421 13.25 3.5C13.25 3.08579 13.5858 2.75 14 2.75H15.75V1C15.75 0.585787 16.0858 0.25 16.5 0.25Z"
    fill="currentColor"
  />
</svg>
