<svg width="32" height="32" viewBox="0 0 32 32" fill="none" xmlns="http://www.w3.org/2000/svg" data-fui-icon="true">
  <path
    d="M16 0.5C24.6342 0.5 31.5 7.36576 31.5 16C31.5 24.6342 24.6342 31.5 16 31.5C7.3658 31.5 0.500004 24.6342 0.5 16C0.5 7.36576 7.3658 0.500016 16 0.5ZM16 2.5C8.47036 2.50002 2.5 8.47034 2.5 16C2.5 23.5297 8.47036 29.5 16 29.5C23.5296 29.5 29.5 23.5297 29.5 16C29.5 8.47032 23.5296 2.5 16 2.5ZM20.8857 20.4971C21.164 20.0201 21.7769 19.8576 22.2539 20.1357C22.7309 20.414 22.8924 21.0269 22.6143 21.5039L21.8066 21.0332C22.6137 21.504 22.6135 21.5044 22.6133 21.5049L22.6123 21.5059L22.6113 21.5078C22.6105 21.5093 22.6095 21.5109 22.6084 21.5127C22.6062 21.5164 22.6037 21.5212 22.6006 21.5264C22.5944 21.5367 22.586 21.5497 22.5762 21.5654C22.5564 21.597 22.5289 21.6392 22.4941 21.6904C22.4246 21.7929 22.3243 21.932 22.1924 22.0957C21.9291 22.4226 21.5356 22.8528 21 23.2812C19.9221 24.1436 18.2702 25 16 25C13.7298 25 12.0779 24.1436 11 23.2812C10.4644 22.8528 10.0709 22.4226 9.80762 22.0957C9.67572 21.932 9.57538 21.7929 9.50586 21.6904C9.4711 21.6392 9.44363 21.597 9.42383 21.5654C9.41396 21.5497 9.40564 21.5367 9.39941 21.5264C9.3963 21.5212 9.39381 21.5164 9.3916 21.5127C9.39053 21.5109 9.38953 21.5093 9.38867 21.5078L9.3877 21.5059L9.38672 21.5049C9.38647 21.5044 9.3863 21.504 10.1934 21.0332L9.38574 21.5039C9.10761 21.0269 9.2691 20.414 9.74609 20.1357C10.2231 19.8576 10.835 20.0201 11.1133 20.4971C11.1142 20.4985 11.1159 20.4999 11.1172 20.502C11.1249 20.5143 11.1394 20.5367 11.1602 20.5674C11.202 20.629 11.2697 20.7244 11.3643 20.8418C11.5541 21.0774 11.8481 21.3972 12.25 21.7188C13.0471 22.3564 14.2702 23 16 23C17.7298 23 18.9529 22.3564 19.75 21.7188C20.1519 21.3972 20.4459 21.0774 20.6357 20.8418C20.7303 20.7244 20.798 20.629 20.8398 20.5674C20.8606 20.5367 20.8751 20.5143 20.8828 20.502C20.884 20.5001 20.8849 20.4985 20.8857 20.4971ZM11.1123 20.4932L11.1133 20.4941V20.4951C11.1133 20.4952 11.1134 20.4954 11.1123 20.4961C11.1109 20.4938 11.1107 20.4918 11.1104 20.4912H11.1113L11.1123 20.4932ZM20.8896 20.4912C20.8893 20.4918 20.8883 20.4936 20.8867 20.4961V20.4941L20.8877 20.4932L20.8887 20.4912H20.8896ZM9.875 13.1504C10.7725 13.1504 11.5 13.8779 11.5 14.7754C11.4998 15.6727 10.7723 16.4004 9.875 16.4004C8.97766 16.4004 8.2502 15.6727 8.25 14.7754C8.25 13.8779 8.97754 13.1504 9.875 13.1504ZM22.125 13.1504C23.0225 13.1504 23.75 13.8779 23.75 14.7754C23.7498 15.6727 23.0223 16.4004 22.125 16.4004C21.2277 16.4004 20.5002 15.6727 20.5 14.7754C20.5 13.8779 21.2275 13.1504 22.125 13.1504Z"
    fill="currentColor"
  />
</svg>
