<svg width="16" height="16" viewBox="0 0 16 16" fill="none" xmlns="http://www.w3.org/2000/svg" data-fui-icon="true">
  <path
    d="M8 0.5C8.66265 0.5 9.30502 0.586709 9.91699 0.748047C9.07863 1.15109 8.5 2.00737 8.5 3C8.5 4.2248 9.38122 5.24152 10.5439 5.45605C10.5629 5.55854 10.5901 5.65816 10.6211 5.75586C10.5812 5.75203 10.5409 5.75 10.5 5.75C9.80964 5.75 9.25 6.30964 9.25 7C9.25 7.69036 9.80964 8.25 10.5 8.25C11.1367 8.25 11.6604 7.77376 11.7383 7.1582C12.1084 7.37547 12.5395 7.5 13 7.5C13.9928 7.5 14.848 6.92061 15.251 6.08203C15.4125 6.69435 15.5 7.33693 15.5 8C15.5 12.1421 12.1421 15.5 8 15.5C3.85786 15.5 0.5 12.1421 0.5 8C0.5 3.85786 3.85786 0.5 8 0.5ZM6.35645 9.73535C6.07214 9.26222 5.45874 9.10855 4.98535 9.39258C4.51188 9.67676 4.35846 10.2911 4.64258 10.7646L5.42676 10.2939C4.64544 10.7628 4.64233 10.7652 4.64258 10.7656L4.64355 10.7666L4.64453 10.7686C4.64529 10.7698 4.6466 10.7711 4.64746 10.7725C4.64923 10.7754 4.65114 10.7787 4.65332 10.7822C4.65768 10.7892 4.66294 10.7974 4.66895 10.8066C4.68121 10.8256 4.69751 10.8494 4.7168 10.877C4.75531 10.932 4.80766 11.004 4.87598 11.0859C5.01208 11.2493 5.21324 11.4594 5.48438 11.668C6.03428 12.0909 6.86839 12.5 8 12.5C9.13161 12.5 9.96572 12.0909 10.5156 11.668C10.7868 11.4594 10.9879 11.2493 11.124 11.0859C11.1923 11.004 11.2447 10.932 11.2832 10.877C11.3025 10.8494 11.3188 10.8256 11.3311 10.8066C11.3371 10.7974 11.3423 10.7892 11.3467 10.7822C11.3489 10.7787 11.3508 10.7754 11.3525 10.7725C11.3534 10.7711 11.3547 10.7698 11.3555 10.7686L11.3564 10.7666L11.3574 10.7656C11.3577 10.7652 11.3545 10.7628 10.5732 10.2939L11.3574 10.7646C11.6415 10.2911 11.4881 9.67676 11.0146 9.39258C10.5411 9.10846 9.92676 9.26188 9.64258 9.73535V9.73438L9.64453 9.73242L9.64551 9.73047C9.63618 9.7438 9.61619 9.76955 9.58691 9.80469C9.52776 9.87567 9.43174 9.97824 9.29688 10.082C9.03427 10.284 8.61813 10.5 8 10.5C7.38187 10.5 6.96573 10.284 6.70312 10.082C6.56826 9.97824 6.47224 9.87567 6.41309 9.80469L6.35645 9.73438V9.73535ZM5.5 5.75C4.80964 5.75 4.25 6.30964 4.25 7C4.25 7.69036 4.80964 8.25 5.5 8.25C6.19036 8.25 6.75 7.69036 6.75 7C6.75 6.30964 6.19036 5.75 5.5 5.75ZM13 0C13.5523 0 14 0.447715 14 1V2H15C15.5523 2 16 2.44772 16 3C16 3.55228 15.5523 4 15 4H14V5C14 5.55228 13.5523 6 13 6C12.4477 6 12 5.55228 12 5V4H11C10.4477 4 10 3.55228 10 3C10 2.44772 10.4477 2 11 2H12V1C12 0.447715 12.4477 0 13 0Z"
    fill="currentColor"
  />
</svg>
