<svg width="24" height="24" viewBox="0 0 24 24" fill="none" xmlns="http://www.w3.org/2000/svg" data-fui-icon="true">
  <path
    d="M12 0.5C18.1534 0.5 23.5 5.84663 23.5 12C23.5 18.1534 18.1534 23.5 12 23.5C5.84664 23.5 0.500003 18.1534 0.5 12C0.5 5.84663 5.84664 0.500014 12 0.5ZM12 2C6.67506 2.00001 2 6.67507 2 12C2 17.3249 6.67506 22 12 22C17.3249 22 22 17.3249 22 12C22 6.67505 17.3249 2 12 2ZM7.54004 15.3291C7.88723 15.1558 8.30436 15.2768 8.50781 15.5977L8.54297 15.6592L8.54395 15.6602L8.54492 15.6621V15.665L8.54688 15.667C8.55149 15.6755 8.56026 15.6911 8.57324 15.7129C8.59964 15.7572 8.64408 15.8263 8.70605 15.9121C8.83051 16.0844 9.02567 16.3198 9.30078 16.5557C9.84306 17.0204 10.7061 17.5 12 17.5C13.2939 17.5 14.1569 17.0204 14.6992 16.5557C14.9743 16.3198 15.1695 16.0844 15.2939 15.9121C15.3559 15.8263 15.4004 15.7572 15.4268 15.7129C15.4397 15.6911 15.4485 15.6755 15.4531 15.667L15.4541 15.665V15.6641L15.4561 15.6602L15.457 15.6592L15.4922 15.5977C15.6956 15.2768 16.1128 15.1558 16.46 15.3291C16.8303 15.5143 16.9808 15.9646 16.7959 16.335L16.2305 16.0527C16.7958 16.3354 16.7951 16.3366 16.7949 16.3369L16.792 16.3428C16.7905 16.3457 16.7892 16.3495 16.7871 16.3535C16.7829 16.3616 16.7771 16.3716 16.7705 16.3838C16.7572 16.4083 16.7383 16.4411 16.7148 16.4805C16.668 16.5591 16.601 16.6661 16.5107 16.791C16.3305 17.0405 16.0568 17.3677 15.6758 17.6943C14.9056 18.3545 13.706 19 12 19C10.294 19 9.09445 18.3545 8.32422 17.6943C7.94319 17.3677 7.66947 17.0405 7.48926 16.791C7.39903 16.6661 7.33198 16.5591 7.28516 16.4805C7.26171 16.4411 7.24283 16.4083 7.22949 16.3838C7.22287 16.3716 7.21711 16.3616 7.21289 16.3535C7.2108 16.3495 7.20952 16.3457 7.20801 16.3428L7.20508 16.3369L7.2041 16.3359C7.2043 16.3354 7.21879 16.3282 7.76953 16.0527L7.2041 16.335C7.01916 15.9646 7.16969 15.5143 7.54004 15.3291ZM7.7002 10.1748C8.4318 10.1749 9.02526 10.7684 9.02539 11.5C9.02528 12.2316 8.43182 12.8251 7.7002 12.8252C6.96848 12.8252 6.37511 12.2317 6.375 11.5C6.37513 10.7683 6.9685 10.1748 7.7002 10.1748ZM16.2998 10.1748C17.0315 10.1748 17.6249 10.7683 17.625 11.5C17.6249 12.2317 17.0315 12.8252 16.2998 12.8252C15.5682 12.8251 14.9747 12.2316 14.9746 11.5C14.9747 10.7684 15.5682 10.1749 16.2998 10.1748Z"
    fill="currentColor"
  />
</svg>
