<svg width="12" height="12" viewBox="0 0 12 12" fill="none" xmlns="http://www.w3.org/2000/svg" data-fui-icon="true">
  <path
    d="M6 0C6.39903 0 6.78877 0.0399465 7.16602 0.114258C7.1613 0.126681 7.15589 0.138851 7.15137 0.151367C6.18898 0.49917 5.5 1.41765 5.5 2.5C5.5 3.52441 6.11797 4.40022 7 4.78613C7.00214 5.23431 7.29922 5.61249 7.70703 5.7373C8.16054 6.20697 8.7951 6.5 9.5 6.5C10.5824 6.5 11.5008 5.81102 11.8486 4.84863C11.861 4.84417 11.8725 4.83765 11.8848 4.83301C11.9592 5.2106 12 5.60057 12 6C12 9.31371 9.31371 12 6 12C2.68629 12 0 9.31371 0 6C0 2.68629 2.68629 0 6 0ZM8.19727 6.85547C7.7093 6.61148 7.11767 6.80427 6.86523 7.28516C6.8667 7.28245 6.86591 7.28235 6.86426 7.28516C6.86086 7.29092 6.85139 7.30631 6.83594 7.32812C6.80419 7.37293 6.75256 7.43815 6.67969 7.50293C6.54223 7.62511 6.33221 7.75 6 7.75C5.66779 7.75 5.45777 7.62511 5.32031 7.50293C5.24744 7.43815 5.19581 7.37293 5.16406 7.32812C5.14861 7.30631 5.13914 7.29092 5.13574 7.28516C5.13409 7.28235 5.1333 7.28245 5.13477 7.28516C5.13548 7.28648 5.13721 7.28821 5.13867 7.29102C5.13944 7.29249 5.14064 7.29498 5.1416 7.29688L5.14258 7.2998L5.14355 7.30078V7.30176C4.8962 6.80863 4.29632 6.60868 3.80273 6.85547C3.30876 7.10246 3.10848 7.70329 3.35547 8.19727L4.12305 7.81348C3.40784 8.17113 3.35956 8.19619 3.35645 8.19824V8.19922L3.35938 8.20508C3.36077 8.20782 3.36259 8.21065 3.36426 8.21387C3.36776 8.22059 3.37225 8.22862 3.37695 8.2373C3.38636 8.25468 3.39766 8.27626 3.41211 8.30078C3.44094 8.3497 3.48036 8.41253 3.53125 8.48438C3.63233 8.62707 3.78387 8.8119 3.99219 8.99707C4.41723 9.37489 5.08221 9.75 6 9.75C6.91779 9.75 7.58277 9.37489 8.00781 8.99707C8.21613 8.8119 8.36767 8.62707 8.46875 8.48438C8.51964 8.41253 8.55906 8.3497 8.58789 8.30078C8.60234 8.27626 8.61364 8.25468 8.62305 8.2373C8.62775 8.22862 8.63224 8.22059 8.63574 8.21387C8.63741 8.21065 8.63923 8.20782 8.64062 8.20508L8.64355 8.19922V8.19824C8.64043 8.19619 8.59215 8.17112 7.87695 7.81348L8.64453 8.19727C8.89152 7.70329 8.69124 7.10246 8.19727 6.85547ZM4 3.78125C3.44772 3.78125 3 4.22897 3 4.78125C3 5.33353 3.44772 5.78125 4 5.78125C4.55228 5.78125 5 5.33353 5 4.78125C5 4.22897 4.55228 3.78125 4 3.78125ZM9.5 0C10.0523 0 10.5 0.447715 10.5 1V1.5H11C11.5523 1.5 12 1.94772 12 2.5C12 3.05228 11.5523 3.5 11 3.5H10.5V4C10.5 4.55228 10.0523 5 9.5 5C8.94771 5 8.5 4.55228 8.5 4V3.5H8C7.44772 3.5 7 3.05228 7 2.5C7 1.94772 7.44772 1.5 8 1.5H8.5V1C8.5 0.447715 8.94771 0 9.5 0Z"
    fill="currentColor"
  />
</svg>
