<svg width="20" height="20" viewBox="0 0 20 20" fill="none" xmlns="http://www.w3.org/2000/svg" data-fui-icon="true">
  <path
    d="M10 0.5C15.1515 0.5 19.5 4.84845 19.5 10C19.5 15.1515 15.1515 19.5 10 19.5C4.84845 19.5 0.5 15.1515 0.5 10C0.5 4.84845 4.84845 0.5 10 0.5ZM10 2.5C5.95302 2.5 2.5 5.95302 2.5 10C2.5 14.047 5.95302 17.5 10 17.5C14.047 17.5 17.5 14.047 17.5 10C17.5 5.95302 14.047 2.5 10 2.5ZM12.5479 12.543C12.7978 12.0561 13.394 11.8601 13.8848 12.1055C14.3787 12.3525 14.579 12.9533 14.332 13.4473L13.5645 13.0635C14.2793 13.421 14.3279 13.4461 14.3311 13.4482V13.4492L14.3301 13.4512C14.3293 13.4527 14.328 13.4543 14.3271 13.4561C14.3254 13.4595 14.3235 13.4635 14.3213 13.4678C14.3168 13.4764 14.3113 13.4869 14.3047 13.499C14.2914 13.5234 14.274 13.5548 14.252 13.5918C14.2078 13.6659 14.1449 13.7648 14.0625 13.8789C13.8984 14.1061 13.6506 14.4015 13.3066 14.6963C12.6078 15.2953 11.5246 15.875 10 15.875C8.47537 15.875 7.39221 15.2953 6.69336 14.6963C6.34942 14.4015 6.10164 14.1061 5.9375 13.8789C5.85511 13.7648 5.79218 13.6659 5.74805 13.5918C5.72604 13.5548 5.70857 13.5234 5.69531 13.499C5.68871 13.4869 5.68322 13.4764 5.67871 13.4678C5.67646 13.4635 5.67459 13.4595 5.67285 13.4561C5.67198 13.4543 5.67067 13.4527 5.66992 13.4512L5.66895 13.4492V13.4482C5.67209 13.4461 5.72068 13.421 6.43555 13.0635L5.66797 13.4473C5.42098 12.9533 5.62126 12.3525 6.11523 12.1055C6.60882 11.8587 7.2087 12.0586 7.45605 12.5518V12.5508L7.45508 12.5498C7.45463 12.5489 7.45448 12.5476 7.4541 12.5469L7.4668 12.5693C7.48368 12.5977 7.51423 12.6456 7.55859 12.707C7.64836 12.8313 7.79138 13.0049 7.99414 13.1787C8.38904 13.5172 9.02463 13.875 10 13.875C10.9754 13.875 11.611 13.5172 12.0059 13.1787C12.2086 13.0049 12.3516 12.8313 12.4414 12.707C12.4858 12.6456 12.5163 12.5977 12.5332 12.5693C12.5415 12.5554 12.5461 12.5462 12.5479 12.543ZM6.5 7.875C7.25939 7.875 7.875 8.49061 7.875 9.25C7.875 10.0094 7.25939 10.625 6.5 10.625C5.74061 10.625 5.125 10.0094 5.125 9.25C5.125 8.49061 5.74061 7.875 6.5 7.875ZM13.5 7.875C14.2594 7.875 14.875 8.49061 14.875 9.25C14.875 10.0094 14.2594 10.625 13.5 10.625C12.7406 10.625 12.125 10.0094 12.125 9.25C12.125 8.49061 12.7406 7.875 13.5 7.875Z"
    fill="currentColor"
  />
</svg>
