<svg width="12" height="12" viewBox="0 0 12 12" fill="none" xmlns="http://www.w3.org/2000/svg" data-fui-icon="true">
  <path
    d="M6 0C6.55228 0 7 0.447715 7 1C7 1.55228 6.55228 2 6 2C3.79086 2 2 3.79086 2 6C2 8.20914 3.79086 10 6 10C8.20914 10 10 8.20914 10 6C10 5.44772 10.4477 5 11 5C11.5523 5 12 5.44772 12 6C12 9.31371 9.31371 12 6 12C2.68629 12 0 9.31371 0 6C0 2.68629 2.68629 0 6 0ZM6.86523 6.78516C7.11767 6.30427 7.7093 6.11148 8.19727 6.35547C8.69124 6.60246 8.89152 7.20329 8.64453 7.69727L7.87695 7.31348C8.59215 7.67112 8.64043 7.69619 8.64355 7.69824V7.69922L8.64062 7.70508C8.63923 7.70782 8.63741 7.71065 8.63574 7.71387C8.63224 7.72059 8.62775 7.72862 8.62305 7.7373C8.61364 7.75468 8.60234 7.77626 8.58789 7.80078C8.55906 7.8497 8.51964 7.91253 8.46875 7.98438C8.36767 8.12707 8.21613 8.3119 8.00781 8.49707C7.58277 8.87489 6.91779 9.25 6 9.25C5.08221 9.25 4.41723 8.87489 3.99219 8.49707C3.78387 8.3119 3.63233 8.12707 3.53125 7.98438C3.48036 7.91253 3.44094 7.8497 3.41211 7.80078C3.39766 7.77626 3.38636 7.75468 3.37695 7.7373C3.37225 7.72862 3.36776 7.72059 3.36426 7.71387C3.36259 7.71065 3.36077 7.70782 3.35938 7.70508L3.35645 7.69922V7.69824C3.35956 7.69619 3.40784 7.67113 4.12305 7.31348L3.35547 7.69727C3.10848 7.20329 3.30876 6.60246 3.80273 6.35547C4.29632 6.10868 4.8962 6.30863 5.14355 6.80176V6.80078L5.14258 6.7998L5.1416 6.79688C5.14064 6.79498 5.13944 6.79249 5.13867 6.79102C5.13721 6.78821 5.13548 6.78648 5.13477 6.78516C5.1333 6.78245 5.13409 6.78235 5.13574 6.78516C5.13914 6.79092 5.14861 6.80631 5.16406 6.82812C5.19581 6.87293 5.24744 6.93815 5.32031 7.00293C5.45777 7.12511 5.66779 7.25 6 7.25C6.33221 7.25 6.54223 7.12511 6.67969 7.00293C6.75256 6.93815 6.80419 6.87293 6.83594 6.82812C6.85139 6.80631 6.86086 6.79092 6.86426 6.78516C6.86591 6.78235 6.8667 6.78245 6.86523 6.78516ZM4.25 3.78125C4.80228 3.78125 5.25 4.22897 5.25 4.78125C5.25 5.33353 4.80228 5.78125 4.25 5.78125C3.69772 5.78125 3.25 5.33353 3.25 4.78125C3.25 4.22897 3.69772 3.78125 4.25 3.78125ZM9.5 0C10.0523 0 10.5 0.447715 10.5 1V1.5H11C11.5523 1.5 12 1.94772 12 2.5C12 3.05228 11.5523 3.5 11 3.5H10.5V4C10.5 4.55228 10.0523 5 9.5 5C9.19549 5 8.92365 4.86314 8.74023 4.64844C8.74601 4.69193 8.75 4.73618 8.75 4.78125C8.75 5.33353 8.30229 5.78125 7.75 5.78125C7.19772 5.78125 6.75 5.33353 6.75 4.78125C6.75 4.22897 7.19772 3.78125 7.75 3.78125C8.05402 3.78125 8.32538 3.91774 8.50879 4.13184C8.50311 4.08869 8.5 4.0447 8.5 4V3.5H8C7.44772 3.5 7 3.05228 7 2.5C7 1.94772 7.44772 1.5 8 1.5H8.5V1C8.5 0.447715 8.94771 0 9.5 0Z"
    fill="currentColor"
  />
</svg>
