<svg width="12" height="12" viewBox="0 0 12 12" fill="none" xmlns="http://www.w3.org/2000/svg" data-fui-icon="true">
  <path
    d="M6 0C9.31371 0 12 2.68629 12 6C12 9.31371 9.31371 12 6 12C2.68629 12 0 9.31371 0 6C0 2.68629 2.68629 0 6 0ZM4.63281 7.34766C4.42936 7.02681 4.01223 6.90575 3.66504 7.0791C3.29469 7.26428 3.14416 7.71455 3.3291 8.08496L3.72266 7.88867C3.34232 8.07896 3.32936 8.0854 3.3291 8.08594L3.33008 8.08691L3.33691 8.10059C3.34018 8.10681 3.34415 8.1149 3.34863 8.12305C3.35757 8.13929 3.36975 8.1595 3.38379 8.18262C3.41192 8.22892 3.45104 8.28856 3.50195 8.35645C3.6039 8.49233 3.75572 8.66551 3.96875 8.83594C4.40465 9.18466 5.06781 9.5 6 9.5C6.93219 9.5 7.59535 9.18466 8.03125 8.83594C8.24428 8.66551 8.3961 8.49233 8.49805 8.35645C8.54896 8.28856 8.58808 8.22892 8.61621 8.18262C8.63025 8.1595 8.64243 8.13929 8.65137 8.12305C8.65585 8.1149 8.65982 8.10681 8.66309 8.10059L8.66992 8.08691L8.6709 8.08594C8.67064 8.0854 8.65768 8.07896 8.27734 7.88867L8.6709 8.08496C8.85584 7.71455 8.70531 7.26428 8.33496 7.0791C7.98777 6.90575 7.57064 7.02681 7.36719 7.34766L7.33203 7.40918C7.3325 7.40826 7.3326 7.40703 7.33301 7.40625C7.32733 7.41543 7.31618 7.4329 7.29883 7.45605C7.26015 7.50762 7.19306 7.58462 7.09375 7.66406C6.90465 7.81534 6.56781 8 6 8C5.43219 8 5.09535 7.81534 4.90625 7.66406C4.80694 7.58462 4.73985 7.50762 4.70117 7.45605C4.68507 7.43456 4.67301 7.41878 4.66699 7.40918L4.63281 7.34766ZM4 4C3.44772 4 3 4.44772 3 5C3 5.55228 3.44772 6 4 6C4.55228 6 5 5.55228 5 5C5 4.44772 4.55228 4 4 4ZM8 4C7.44772 4 7 4.44772 7 5C7 5.55228 7.44772 6 8 6C8.55229 6 9 5.55228 9 5C9 4.44772 8.55229 4 8 4Z"
    fill="currentColor"
  />
</svg>
