<svg width="32" height="32" viewBox="0 0 32 32" fill="none" xmlns="http://www.w3.org/2000/svg" data-fui-icon="true">
  <path
    d="M16 0.5C18.7305 0.5 21.2844 1.18634 23.5 2.39844V2.5H22.5C20.8431 2.5 19.5 3.84315 19.5 5.5C19.5 7.15685 20.8431 8.5 22.5 8.5H23.5V9.5C23.5 11.1569 24.8431 12.5 26.5 12.5C28.1569 12.5 29.5 11.1569 29.5 9.5V8.5H29.6006C30.8128 10.7157 31.5 13.2693 31.5 16C31.5 24.6342 24.6342 31.5 16 31.5C7.3658 31.5 0.500004 24.6342 0.5 16C0.5 7.36576 7.3658 0.500016 16 0.5ZM22.2539 20.1357C21.7789 19.8588 21.1695 20.0189 20.8896 20.4912H20.8887L20.8877 20.4932L20.8867 20.4941V20.4961L20.8857 20.4971C20.8849 20.4985 20.884 20.5001 20.8828 20.502C20.8751 20.5143 20.8606 20.5367 20.8398 20.5674C20.798 20.629 20.7303 20.7244 20.6357 20.8418C20.4459 21.0774 20.1519 21.3972 19.75 21.7188C18.9529 22.3564 17.7298 23 16 23C14.2702 23 13.0471 22.3564 12.25 21.7188C11.8481 21.3972 11.5541 21.0774 11.3643 20.8418C11.2697 20.7244 11.202 20.629 11.1602 20.5674C11.1394 20.5367 11.1249 20.5143 11.1172 20.502C11.1159 20.4999 11.1142 20.4985 11.1133 20.4971C10.835 20.0201 10.2231 19.8576 9.74609 20.1357C9.2691 20.414 9.10761 21.0269 9.38574 21.5039L10.1934 21.0332C9.3863 21.504 9.38647 21.5044 9.38672 21.5049L9.3877 21.5059L9.38867 21.5078C9.38953 21.5093 9.39053 21.5109 9.3916 21.5127C9.39381 21.5164 9.3963 21.5212 9.39941 21.5264C9.40564 21.5367 9.41396 21.5497 9.42383 21.5654C9.44363 21.597 9.4711 21.6392 9.50586 21.6904C9.57538 21.7929 9.67572 21.932 9.80762 22.0957C10.0709 22.4226 10.4644 22.8528 11 23.2812C12.0779 24.1436 13.7298 25 16 25C18.2702 25 19.9221 24.1436 21 23.2812C21.5356 22.8528 21.9291 22.4226 22.1924 22.0957C22.3243 21.932 22.4246 21.7929 22.4941 21.6904C22.5289 21.6392 22.5564 21.597 22.5762 21.5654C22.586 21.5497 22.5944 21.5367 22.6006 21.5264C22.6037 21.5212 22.6062 21.5164 22.6084 21.5127C22.6095 21.5109 22.6105 21.5093 22.6113 21.5078L22.6123 21.5059L22.6133 21.5049C22.6135 21.5044 22.6137 21.504 21.8066 21.0332L22.6143 21.5039C22.8924 21.0269 22.7309 20.414 22.2539 20.1357ZM11.1123 20.4961C11.1134 20.4954 11.1133 20.4952 11.1133 20.4951V20.4941L11.1123 20.4932L11.1113 20.4912H11.1104C11.1107 20.4918 11.1109 20.4938 11.1123 20.4961ZM9.875 13.1504C8.97754 13.1504 8.25 13.8779 8.25 14.7754C8.2502 15.6727 8.97766 16.4004 9.875 16.4004C10.7723 16.4004 11.4998 15.6727 11.5 14.7754C11.5 13.8779 10.7725 13.1504 9.875 13.1504ZM22.125 13.1504C21.2275 13.1504 20.5 13.8779 20.5 14.7754C20.5002 15.6727 21.2277 16.4004 22.125 16.4004C23.0223 16.4004 23.7498 15.6727 23.75 14.7754C23.75 13.8779 23.0225 13.1504 22.125 13.1504ZM26.5 0.5C27.0523 0.5 27.5 0.947715 27.5 1.5V4.5H30.5C31.0523 4.5 31.5 4.94772 31.5 5.5C31.5 6.05228 31.0523 6.5 30.5 6.5H27.5V9.5C27.5 10.0523 27.0523 10.5 26.5 10.5C25.9477 10.5 25.5 10.0523 25.5 9.5V6.5H22.5C21.9477 6.5 21.5 6.05228 21.5 5.5C21.5 4.94772 21.9477 4.5 22.5 4.5H25.5V1.5C25.5 0.947715 25.9477 0.500001 26.5 0.5Z"
    fill="currentColor"
  />
</svg>
