<svg width="24" height="24" viewBox="0 0 24 24" fill="none" xmlns="http://www.w3.org/2000/svg" data-fui-icon="true">
  <path
    d="M12 0.5C18.158 0.5 23.5 5.84203 23.5 12C23.5 18.158 18.158 23.5 12 23.5C5.84204 23.5 0.500003 18.158 0.5 12C0.5 5.84203 5.84204 0.500013 12 0.5ZM12 2.5C6.9466 2.50001 2.5 6.94661 2.5 12C2.5 17.0534 6.9466 21.5 12 21.5C17.0534 21.5 21.5 17.0534 21.5 12C21.5 6.94659 17.0534 2.5 12 2.5ZM15.2334 15.2969C15.4822 14.8072 16.0802 14.6095 16.5723 14.8555C17.0662 15.1025 17.2665 15.7033 17.0195 16.1973L16.252 15.8135C16.9668 16.1709 17.0154 16.1961 17.0186 16.1982V16.1992L17.0176 16.2012C17.0168 16.2026 17.0155 16.2043 17.0146 16.2061C17.0128 16.2096 17.0112 16.2142 17.0088 16.2188C17.0039 16.2282 16.9976 16.2403 16.9902 16.2539C16.9755 16.281 16.9548 16.3163 16.9297 16.3584C16.8795 16.4428 16.8078 16.556 16.7129 16.6875C16.5234 16.9499 16.2365 17.2921 15.8379 17.6338C15.0297 18.3266 13.7746 19 12 19C10.2254 19 8.97033 18.3266 8.16211 17.6338C7.76349 17.2921 7.47664 16.9499 7.28711 16.6875C7.19216 16.556 7.12054 16.4428 7.07031 16.3584C7.04523 16.3163 7.02455 16.281 7.00977 16.2539C7.00237 16.2403 6.99612 16.2282 6.99121 16.2188C6.98881 16.2142 6.98716 16.2096 6.98535 16.2061C6.98447 16.2043 6.98317 16.2026 6.98242 16.2012L6.98145 16.1992V16.1982C6.98459 16.1961 7.0332 16.1709 7.74805 15.8135L6.98047 16.1973C6.73348 15.7033 6.93376 15.1025 7.42773 14.8555C7.92132 14.6087 8.5212 14.8086 8.76855 15.3018V15.3008L8.76758 15.2998L8.7666 15.2969C8.76973 15.3026 8.77674 15.3159 8.78809 15.335C8.81105 15.3735 8.85108 15.4365 8.9082 15.5156C9.02336 15.6751 9.20544 15.8955 9.46289 16.1162C9.96717 16.5484 10.7746 17 12 17C13.2254 17 14.0328 16.5484 14.5371 16.1162C14.7946 15.8955 14.9766 15.6751 15.0918 15.5156C15.1489 15.4365 15.1889 15.3735 15.2119 15.335L15.2334 15.2969ZM7.7002 10.0498C8.50084 10.0499 9.15026 10.6994 9.15039 11.5C9.15028 12.3007 8.50085 12.9501 7.7002 12.9502C6.89945 12.9502 6.25011 12.3007 6.25 11.5C6.25013 10.6993 6.89946 10.0498 7.7002 10.0498ZM16.2998 10.0498C17.1005 10.0498 17.7499 10.6993 17.75 11.5C17.7499 12.3007 17.1006 12.9502 16.2998 12.9502C15.4991 12.9501 14.8497 12.3007 14.8496 11.5C14.8497 10.6994 15.4992 10.0499 16.2998 10.0498Z"
    fill="currentColor"
  />
</svg>
