<svg width="16" height="16" viewBox="0 0 16 16" fill="none" xmlns="http://www.w3.org/2000/svg" data-fui-icon="true">
  <path
    d="M10.9609 2.35626C11.1755 1.55639 11.9979 1.08146 12.7979 1.29572C13.598 1.51019 14.0728 2.33345 13.8584 3.13361L13.5264 4.37189H14.2559L14.4092 4.3797C15.1654 4.45653 15.7556 5.09546 15.7559 5.87189C15.7559 6.64852 15.1655 7.28723 14.4092 7.36407L14.2559 7.37189H12.7227L12.1729 9.42462H13.0527L13.2061 9.43243C13.9624 9.50927 14.5527 10.148 14.5527 10.9246C14.5527 11.7013 13.9624 12.34 13.2061 12.4168L13.0527 12.4246H11.3691L10.8936 14.2C10.6791 15.0001 9.85577 15.4749 9.05566 15.2606C8.25582 15.046 7.7809 14.2236 7.99512 13.4236L8.2627 12.4246H5.59473L5.11914 14.2C4.90462 15.0001 4.08136 15.4749 3.28125 15.2606C2.48162 15.0459 2.00659 14.2235 2.2207 13.4236L2.48828 12.4246H1.74512C0.916821 12.4245 0.245117 11.753 0.245117 10.9246C0.245143 10.0963 0.916837 9.42478 1.74512 9.42462H3.29297L3.84277 7.37189H2.94824C2.11995 7.37173 1.44824 6.70022 1.44824 5.87189C1.44849 5.04376 2.1201 4.37204 2.94824 4.37189H4.64648L5.18652 2.35626C5.40108 1.55649 6.22353 1.08165 7.02344 1.29572C7.82364 1.51013 8.2984 2.33341 8.08398 3.13361L7.75195 4.37189H10.4209L10.9609 2.35626ZM6.39844 9.42462H9.06738L9.61719 7.37189H6.94824L6.39844 9.42462Z"
    fill="currentColor"
  />
</svg>
