<svg width="16" height="16" viewBox="0 0 16 16" fill="none" xmlns="http://www.w3.org/2000/svg" data-fui-icon="true">
  <path
    d="M11.6855 2.55083C11.7928 2.15101 12.2036 1.91359 12.6035 2.02055C13.0035 2.12784 13.241 2.53947 13.1338 2.9395L12.5488 5.12212H14.2559L14.332 5.12602C14.7104 5.16424 15.0058 5.48374 15.0059 5.87212C15.0059 6.26058 14.7104 6.57999 14.332 6.61821L14.2559 6.62212H12.1475L11.1953 10.1749H13.0527L13.1289 10.1788C13.5073 10.217 13.8027 10.5364 13.8027 10.9249C13.8026 11.3132 13.5072 11.6327 13.1289 11.6709L13.0527 11.6749H10.7939L10.1689 14.0059C10.0616 14.4057 9.64991 14.6432 9.25 14.5362C8.85029 14.4289 8.61296 14.018 8.71973 13.6182L9.24023 11.6749H5.01953L4.39453 14.0059C4.28712 14.4057 3.87552 14.6433 3.47559 14.5362C3.07606 14.4288 2.83865 14.0179 2.94531 13.6182L3.46582 11.6749H1.74512C1.3311 11.6747 0.995227 11.3389 0.995117 10.9249C0.995117 10.5107 1.33103 10.175 1.74512 10.1749H3.86816L4.82031 6.62212H2.94824C2.53416 6.62196 2.19824 6.28623 2.19824 5.87212C2.19835 5.45809 2.53423 5.12227 2.94824 5.12212H5.22168L5.91113 2.55083C6.0184 2.15108 6.42927 1.91375 6.8291 2.02055C7.2292 2.12776 7.46658 2.5394 7.35938 2.9395L6.77441 5.12212H10.9961L11.6855 2.55083ZM5.4209 10.1749H9.64258L10.5947 6.62212H6.37305L5.4209 10.1749Z"
    fill="currentColor"
  />
</svg>
