<svg width="32" height="32" viewBox="0 0 32 32" fill="none" xmlns="http://www.w3.org/2000/svg" data-fui-icon="true">
  <path
    d="M24.4102 3.36575C24.6248 2.56616 25.4473 2.09124 26.2471 2.30521C27.0472 2.51959 27.5218 3.34299 27.3076 4.1431L25.9385 9.25247H29.9902C30.8186 9.25249 31.4902 9.92406 31.4902 10.7525C31.4901 11.5808 30.8186 12.2525 29.9902 12.2525H25.1348L22.9102 20.5562H27.2988C28.1272 20.5562 28.7988 21.2278 28.7988 22.0562C28.7987 22.8845 28.1272 23.5562 27.2988 23.5562H22.1064L20.6738 28.9029C20.4594 29.7031 19.6361 30.1778 18.8359 29.9634C18.0362 29.7487 17.561 28.9265 17.7754 28.1265L19 23.5562H9.18848L7.75586 28.9029C7.54147 29.703 6.71808 30.1776 5.91797 29.9634C5.11809 29.7488 4.64306 28.9265 4.85742 28.1265L6.08203 23.5562H2C1.17164 23.5562 0.500104 22.8845 0.5 22.0562C0.5 21.2278 1.17158 20.5562 2 20.5562H6.88574L9.11133 12.2525H4.69141C3.86305 12.2525 3.19152 11.5808 3.19141 10.7525C3.19141 9.92404 3.86298 9.25247 4.69141 9.25247H9.91504L11.4922 3.36575C11.7069 2.56618 12.5293 2.09113 13.3291 2.30521C14.129 2.5197 14.6038 3.34313 14.3896 4.1431L13.0205 9.25247H22.833L24.4102 3.36575ZM9.99219 20.5562H19.8037L22.0293 12.2525H12.2168L9.99219 20.5562Z"
    fill="currentColor"
  />
</svg>
