<svg width="20" height="20" viewBox="0 0 20 20" fill="none" xmlns="http://www.w3.org/2000/svg" data-fui-icon="true">
  <path
    d="M15.1963 2.2692C15.3036 1.86938 15.7144 1.632 16.1143 1.73892C16.5143 1.84616 16.7517 2.2578 16.6445 2.65787L15.7725 5.91373H18.4004C18.8143 5.91407 19.1504 6.24972 19.1504 6.66373C19.1502 7.07758 18.8142 7.41338 18.4004 7.41373H15.3701L13.9551 12.6979H16.7852C17.199 12.6983 17.5352 13.034 17.5352 13.4479C17.5351 13.8618 17.199 14.1975 16.7852 14.1979H13.5527L12.6631 17.5192C12.5557 17.919 12.1441 18.1566 11.7441 18.0495C11.3441 17.9422 11.1067 17.5306 11.2139 17.1305L12 14.1979H5.79883L4.90918 17.5192C4.80179 17.919 4.39019 18.1566 3.99023 18.0495C3.59037 17.9421 3.35286 17.5305 3.45996 17.1305L4.24609 14.1979H1.60059C1.18638 14.1979 0.850603 13.8621 0.850586 13.4479C0.850586 13.0337 1.18637 12.6979 1.60059 12.6979H4.64746L6.06348 7.41373H3.21582C2.80171 7.41373 2.46599 7.07779 2.46582 6.66373C2.46582 6.24951 2.80161 5.91373 3.21582 5.91373H6.46582L7.44238 2.2692C7.54965 1.86945 7.96052 1.63213 8.36035 1.73892C8.76045 1.84613 8.99783 2.25777 8.89062 2.65787L8.01855 5.91373H14.2197L15.1963 2.2692ZM6.20117 12.6979H12.4014L13.8174 7.41373H7.61621L6.20117 12.6979Z"
    fill="currentColor"
  />
</svg>
