<svg width="20" height="20" viewBox="0 0 20 20" fill="none" xmlns="http://www.w3.org/2000/svg" data-fui-icon="true">
  <path
    fill-rule="evenodd"
    clip-rule="evenodd"
    d="M15.1963 2.26928C15.3036 1.86947 15.7144 1.63209 16.1143 1.73901C16.5143 1.84625 16.7517 2.25788 16.6445 2.65795L15.7725 5.91381H18.4004C18.8143 5.91416 19.1504 6.24981 19.1504 6.66381C19.1502 7.07767 18.8142 7.41347 18.4004 7.41381H15.3701L13.9551 12.698H16.7852C17.199 12.6984 17.5352 13.034 17.5352 13.448C17.5351 13.8619 17.199 14.1976 16.7852 14.198H13.5527L12.6631 17.5193C12.5557 17.9191 12.1441 18.1567 11.7441 18.0496C11.3441 17.9423 11.1067 17.5307 11.2139 17.1306L12 14.198H5.79883L4.90918 17.5193C4.80179 17.9191 4.39019 18.1567 3.99023 18.0496C3.59037 17.9422 3.35286 17.5306 3.45996 17.1306L4.24609 14.198H1.60059C1.18638 14.198 0.850603 13.8622 0.850586 13.448C0.850586 13.0338 1.18637 12.698 1.60059 12.698H4.64746L6.06348 7.41381H3.21582C2.80171 7.41381 2.46599 7.07788 2.46582 6.66381C2.46582 6.2496 2.80161 5.91381 3.21582 5.91381H6.46582L7.44238 2.26928C7.54965 1.86954 7.96052 1.63222 8.36035 1.73901C8.76045 1.84622 8.99783 2.25785 8.89062 2.65795L8.01855 5.91381H14.2197L15.1963 2.26928ZM6.20117 12.698H12.4014L13.8174 7.41381H7.61621L6.20117 12.698Z"
    fill="currentColor"
  />
</svg>
