<svg width="24" height="24" viewBox="0 0 24 24" fill="none" xmlns="http://www.w3.org/2000/svg" data-fui-icon="true">
  <path
    d="M12 1C14.5777 1.00002 16.6224 1.71074 18.2109 2.83984C19.7835 3.95762 20.8296 5.42778 21.5244 6.83789C22.2181 8.24579 22.5825 9.63614 22.7754 10.6621C22.8725 11.1785 22.9277 11.6122 22.959 11.9219C22.9746 12.0768 22.9843 12.2017 22.9902 12.291C22.9932 12.3357 22.9957 12.3719 22.9971 12.3984C22.9977 12.4115 22.9977 12.4223 22.998 12.4307C22.9982 12.4347 22.9989 12.4385 22.999 12.4414V12.4473C22.9991 12.448 22.999 12.4485 21.5 12.502L22.999 12.4492L23 12.4756V16.875C23 19.7055 20.7055 22 17.875 22H17.417C17.3332 22 17.2509 21.9929 17.1699 21.9824C16.8259 22.2172 16.4515 22.3983 16.0752 22.5352C15.1711 22.8639 14.1088 23 13 23C12.1716 23 11.5 22.3284 11.5 21.5C11.5 20.6716 12.1716 20 13 20C13.8911 20 14.5789 19.8861 15.0498 19.7148C15.2674 19.6357 15.4083 19.5549 15.5 19.4883V12.917C15.5 11.8584 16.3584 11 17.417 11H17.875C18.5774 11 19.247 11.1408 19.8564 11.3965C19.8464 11.3384 19.8387 11.2781 19.8271 11.2168C19.6675 10.3673 19.3713 9.25661 18.833 8.16406C18.2958 7.07374 17.5384 6.04271 16.4727 5.28516C15.4228 4.53898 13.9938 4.00002 12 4C10.0062 4 8.57719 4.53901 7.52734 5.28516C6.46161 6.0427 5.70421 7.07375 5.16699 8.16406C4.62872 9.2566 4.33252 10.3673 4.17285 11.2168C4.16132 11.2782 4.15268 11.3383 4.14258 11.3965C4.7523 11.1406 5.42231 11 6.125 11H6.58301C7.64155 11 8.5 11.8584 8.5 12.917V20.083C8.5 21.1416 7.64155 22 6.58301 22H6.125C3.29454 22 1 19.7055 1 16.875V12.4756L1.00098 12.4492L2.49902 12.502C1.00098 12.4486 1.00095 12.448 1.00098 12.4473V12.4414C1.00109 12.4385 1.00178 12.4347 1.00195 12.4307C1.00231 12.4223 1.00227 12.4115 1.00293 12.3984C1.00426 12.3719 1.00681 12.3357 1.00977 12.291C1.01567 12.2017 1.02538 12.0768 1.04102 11.9219C1.07227 11.6122 1.12755 11.1785 1.22461 10.6621C1.41748 9.63614 1.78194 8.24578 2.47559 6.83789C3.17037 5.42779 4.21655 3.95761 5.78906 2.83984C7.3776 1.71077 9.42231 1 12 1Z"
    fill="currentColor"
  />
</svg>
