<svg width="32" height="32" viewBox="0 0 32 32" fill="none" xmlns="http://www.w3.org/2000/svg" data-fui-icon="true">
  <path
    d="M16 1C23.016 1.00006 26.8149 4.7859 28.8047 8.53125C29.7891 10.3843 30.3346 12.2265 30.6348 13.5986C30.7853 14.2869 30.876 14.8632 30.9287 15.2705C30.955 15.4738 30.9718 15.6357 30.9824 15.749C30.9877 15.8058 30.9917 15.8512 30.9941 15.8828C30.9953 15.8984 30.9964 15.9108 30.9971 15.9199C30.9974 15.9245 30.9979 15.9287 30.998 15.9316V15.9365C30.9981 15.9371 30.9981 15.9376 30 16L30.998 15.9375L31 15.9688V21C31 21.0608 30.9928 21.12 30.9824 21.1777C30.9923 21.3256 31 21.4746 31 21.625V22.375C31 26.0339 28.0339 29 24.375 29H23.25C23.0435 29 22.8443 28.9691 22.6543 28.917C21.4403 30.2342 19.704 31 17 31C16.4478 31 16.0001 30.5522 16 30C16.0001 29.4478 16.4478 29 17 29C19.2174 29 20.3861 28.416 21.1621 27.5869C21.0583 27.3281 21 27.0459 21 26.75V17.25C21 16.0074 22.0074 15 23.25 15H24.375C26.1746 15 27.8061 15.7182 29 16.8828V16.0371C28.9983 16.0158 28.9955 15.982 28.9912 15.9365C28.9826 15.845 28.9684 15.7061 28.9453 15.5273C28.8989 15.1691 28.8182 14.6505 28.6816 14.0264C28.4076 12.7736 27.9139 11.1155 27.0391 9.46875C25.31 6.21423 22.1086 3.00006 16 3C9.89131 3.00001 6.68993 6.21422 4.96094 9.46875C4.08614 11.1155 3.5924 12.7736 3.31836 14.0264C3.1819 14.6503 3.10107 15.1681 3.05469 15.5264C3.03152 15.7054 3.01738 15.8449 3.00879 15.9365C3.00453 15.982 3.00165 16.0158 3 16.0371V16.8828C4.19394 15.7182 5.82537 15 7.625 15H8.75C9.99264 15 11 16.0074 11 17.25V26.75C11 27.9926 9.99264 29 8.75 29H7.625C3.96611 29 1 26.0339 1 22.375V21.625C1 21.4747 1.00674 21.3256 1.0166 21.1777C1.00624 21.12 1 21.0607 1 21V15.9688L1.00195 15.9375L2 16C1.00197 15.9376 1.00192 15.9371 1.00195 15.9365V15.9316C1.00215 15.9287 1.00261 15.9245 1.00293 15.9199C1.00357 15.9108 1.00465 15.8984 1.00586 15.8828C1.00832 15.8512 1.01226 15.8058 1.01758 15.749C1.02821 15.6357 1.04497 15.4738 1.07129 15.2705C1.12402 14.8632 1.21469 14.2869 1.36523 13.5986C1.66539 12.2265 2.21089 10.3844 3.19531 8.53125C5.18501 4.78586 8.98386 1.00001 16 1ZM7.625 17C5.07068 17 3 19.0707 3 21.625V22.375C3 24.9293 5.07068 27 7.625 27H8.75C8.88807 27 9 26.8881 9 26.75V17.25C9 17.1119 8.88807 17 8.75 17H7.625ZM23.25 17C23.1119 17 23 17.1119 23 17.25V26.75C23 26.8881 23.1119 27 23.25 27H24.375C26.9293 27 29 24.9293 29 22.375V21.625C29 19.0707 26.9293 17 24.375 17H23.25Z"
    fill="currentColor"
  />
</svg>
