<svg width="16" height="16" viewBox="0 0 16 16" fill="none" xmlns="http://www.w3.org/2000/svg" data-fui-icon="true">
  <path
    d="M8 1C10.7096 1 12.5809 2.09311 13.6953 3.80762C14.7385 5.41253 15 7.38029 15 9V11C15 11.0082 14.9982 11.0163 14.998 11.0244C14.9983 11.0407 15 11.0569 15 11.0732V11.4268C14.9998 13.4001 13.4001 14.9998 11.4268 15C10.3628 15 9.5 14.1372 9.5 13.0732V9.42676C9.5 8.3628 10.3628 7.5 11.4268 7.5C11.586 7.50001 11.7427 7.51105 11.8965 7.53125C11.7766 6.729 11.5475 6.0082 11.1797 5.44238C10.6691 4.65695 9.79028 4 8 4C6.20972 4 5.3309 4.65695 4.82031 5.44238C4.45251 6.00824 4.22242 6.72895 4.10254 7.53125C4.25659 7.51096 4.41366 7.50001 4.57324 7.5C5.6372 7.5 6.5 8.3628 6.5 9.42676V13.0732C6.5 14.1372 5.6372 15 4.57324 15C2.59986 14.9998 1.00016 13.4001 1 11.4268V11.0732C1 11.0569 1.00076 11.0407 1.00098 11.0244C1.00085 11.0163 1 11.0082 1 11V9C1 7.38029 1.26155 5.41253 2.30469 3.80762C3.41912 2.09311 5.29039 1 8 1Z"
    fill="currentColor"
  />
</svg>
