<svg width="12" height="13" viewBox="0 0 12 13" fill="none" xmlns="http://www.w3.org/2000/svg" data-fui-icon="true">
  <path
    fill-rule="evenodd"
    clip-rule="evenodd"
    d="M6.00029 0C7.46523 6.80701e-05 8.64132 0.371365 9.55595 1.00293C10.4628 1.62929 11.0306 2.45486 11.3831 3.23633C11.7329 4.01201 11.8831 4.77005 11.9485 5.32129C11.9816 5.60027 11.9943 5.83583 11.9983 6.00586C12.0003 6.09094 12.001 6.16065 12.0003 6.21191C11.9999 6.23724 11.9988 6.25817 11.9983 6.27441V7.92285C11.999 7.9485 12.0003 7.9742 12.0003 8C12.0003 8.0258 11.999 8.0515 11.9983 8.07715V8.25C11.9983 8.40165 11.9687 8.54618 11.9192 8.68066C11.6524 9.8296 10.7285 10.7251 9.56279 10.9463C9.5527 10.955 9.54392 10.9652 9.53349 10.9736C8.98689 11.4141 8.01608 12.0176 6.74931 12.0176C6.05902 12.0176 5.49942 11.4578 5.49931 10.7676C5.49931 10.0772 6.05895 9.51758 6.74931 9.51758C6.83452 9.51758 6.91792 9.50645 7.00029 9.49219V6.5C7.00029 5.67159 7.67188 5.00002 8.50029 5H9.00029C9.12125 5 9.24049 5.00757 9.35771 5.02148C9.29891 4.77659 9.21913 4.51722 9.10478 4.26367C8.89355 3.79545 8.58538 3.37061 8.13505 3.05957C7.69214 2.75382 7.02754 2.50007 6.00029 2.5C4.97301 2.5 4.3085 2.75385 3.86552 3.05957C3.41509 3.3706 3.10707 3.79541 2.89579 4.26367C2.78136 4.51736 2.69972 4.77646 2.64091 5.02148C2.75875 5.00741 2.87866 5 3.00029 5H3.50029C4.32871 5 5.00029 5.67157 5.00029 6.5V9.5C5.00029 10.3284 4.32871 11 3.50029 11H3.00029C1.5809 11 0.394021 10.0137 0.0823181 8.68945C0.0308879 8.55265 0.00224 8.40478 0.00224 8.25V8.07715C0.00159241 8.0515 0.000286873 8.0258 0.000286873 8C0.000286873 7.9742 0.00159241 7.9485 0.00224 7.92285V6.27441C0.00173258 6.25817 0.000649285 6.23724 0.000286873 6.21191C-0.000443315 6.16065 0.000224938 6.09094 0.00224 6.00586C0.00627727 5.83582 0.0189268 5.60028 0.0520447 5.32129C0.117499 4.77002 0.267589 4.01203 0.617474 3.23633C0.970015 2.45484 1.53768 1.62927 2.44462 1.00293C3.3593 0.371429 4.53532 4.58812e-06 6.00029 0Z"
    fill="currentColor"
  />
</svg>
