<svg width="32" height="32" viewBox="0 0 32 32" fill="none" xmlns="http://www.w3.org/2000/svg" data-fui-icon="true">
  <path
    d="M16 1C22.8538 1.00005 26.6518 4.22695 28.6953 7.74902C30.7066 11.2156 31 14.9231 31 16V21C31 21.0325 30.9972 21.0643 30.9932 21.0957C30.9972 21.1883 31 21.2814 31 21.375V22.625C31 26.1458 28.1458 29 24.625 29H24C23.7489 29 23.5095 28.9517 23.2881 28.8672C22.761 29.515 22.0986 30.0299 21.1768 30.3867C20.0818 30.8105 18.6618 31 16.75 31C16.3359 30.9998 16 30.6641 16 30.25C16 29.8359 16.3359 29.5002 16.75 29.5C18.5878 29.5 19.7933 29.3143 20.6357 28.9883C21.3305 28.7193 21.8011 28.3444 22.1885 27.8428C22.069 27.5864 22 27.3015 22 27V17C22 15.8955 22.8956 15.0002 24 15H24.625C26.581 15 28.3306 15.8818 29.5 17.2686V16C29.5 15.0768 29.2309 11.6592 27.3984 8.50098C25.5981 5.39827 22.2707 2.50005 16 2.5C9.7293 2.5001 6.40175 5.39827 4.60156 8.50098C2.76928 11.6592 2.50001 15.0768 2.5 16V17.2686C3.66936 15.8817 5.41895 15.0001 7.375 15H8C9.10457 15 10 15.8954 10 17V27C10 28.1046 9.10457 29 8 29H7.375C3.85432 28.9998 1 26.1457 1 22.625V21.375C1 21.2824 1.00293 21.1903 1.00684 21.0986C1.0026 21.0664 1 21.0334 1 21V16C1.00001 14.9231 1.29355 11.2156 3.30469 7.74902C5.34813 4.22691 9.14623 1.0001 16 1ZM7.375 16.5C4.68274 16.5002 2.5 18.6827 2.5 21.375V22.625C2.5 25.3173 4.68274 27.4998 7.375 27.5H8C8.27614 27.5 8.5 27.2761 8.5 27V17C8.5 16.7239 8.27614 16.5 8 16.5H7.375ZM24 16.5C23.724 16.5002 23.5 16.724 23.5 17V27C23.5 27.276 23.724 27.4998 24 27.5H24.625C27.3174 27.5 29.5 25.3174 29.5 22.625V21.375C29.5 18.6826 27.3174 16.5 24.625 16.5H24Z"
    fill="currentColor"
  />
</svg>
