<svg width="12" height="12" viewBox="0 0 12 12" fill="none" xmlns="http://www.w3.org/2000/svg" data-fui-icon="true">
  <path
    d="M6 0C8.12404 0 9.69003 0.857534 10.6875 2.1875C11.6457 3.46505 12 5.06758 12 6.5V9C12 9.02001 11.997 9.03979 11.9961 9.05957C11.9966 9.08134 12 9.10311 12 9.125C12 10.7128 10.7128 12 9.125 12H8.75C8.05964 12 7.5 11.4404 7.5 10.75V7.5C7.5 6.80964 8.05964 6.25 8.75 6.25H9.125C9.24949 6.25 9.37187 6.26004 9.49219 6.27539C9.45675 5.29006 9.19118 4.35908 8.6875 3.6875C8.18497 3.01747 7.37596 2.5 6 2.5C4.62404 2.5 3.81503 3.01747 3.3125 3.6875C2.80881 4.35909 2.54226 5.29005 2.50684 6.27539C2.62747 6.25996 2.75018 6.25 2.875 6.25H3.25C3.94036 6.25 4.5 6.80964 4.5 7.5V10.75C4.5 11.4404 3.94036 12 3.25 12H2.875C1.28718 12 0 10.7128 0 9.125C0 9.10312 0.00244325 9.08134 0.00292969 9.05957C0.00200127 9.03981 0 9.01999 0 9V6.5C0 5.06758 0.354334 3.46505 1.3125 2.1875C2.30997 0.857534 3.87596 0 6 0Z"
    fill="currentColor"
  />
</svg>
