<svg width="16" height="16" viewBox="0 0 16 16" fill="none" xmlns="http://www.w3.org/2000/svg" data-fui-icon="true">
  <path
    d="M8 1C10.8185 1 12.648 2.15536 13.7188 3.83789C14.7423 5.44626 15 7.42023 15 9V11.1768C14.9998 13.2882 13.2882 14.9998 11.1768 15C9.97473 15 9 14.0253 9 12.8232V9.17676C9 7.97473 9.97473 7 11.1768 7C11.7916 7.00005 12.372 7.14636 12.8867 7.4043C12.7529 6.5028 12.4888 5.6311 12.0312 4.91211C11.352 3.84471 10.1814 3 8 3C5.81856 3 4.648 3.84471 3.96875 4.91211C3.51122 5.63114 3.24616 6.50275 3.1123 7.4043C3.62717 7.14612 4.20805 7.00005 4.82324 7C6.02527 7 7 7.97473 7 9.17676V12.8232C7 14.0253 6.02527 15 4.82324 15C2.71179 14.9998 1.00016 13.2882 1 11.1768V9C1 7.42023 1.25774 5.44626 2.28125 3.83789C3.35201 2.15536 5.18151 1 8 1ZM4.82324 9C3.81636 9.00016 3.00016 9.81636 3 10.8232V11.1768C3.00016 12.1836 3.81636 12.9998 4.82324 13C4.9207 13 5 12.9207 5 12.8232V9.17676C5 9.0793 4.9207 9 4.82324 9ZM11.1768 9C11.0793 9 11 9.0793 11 9.17676V12.8232C11 12.9207 11.0793 13 11.1768 13C12.1836 12.9998 12.9998 12.1836 13 11.1768V10.8232C12.9998 9.81636 12.1836 9.00016 11.1768 9Z"
    fill="currentColor"
  />
</svg>
