<svg width="12" height="12" viewBox="0 0 12 12" fill="none" xmlns="http://www.w3.org/2000/svg" data-fui-icon="true">
  <path
    d="M6 0C7.42897 0 8.55397 0.324072 9.42773 0.860352C10.3006 1.39608 10.8785 2.11634 11.2578 2.83887C12.0038 4.25984 12 5.72963 12 6V8C12 9.6425 10.68 10.9751 9.04297 10.998C9.02036 11.0218 8.99693 11.0453 8.9707 11.0664C8.46814 11.4715 7.60614 12 6.5 12C6.08585 12 5.75011 11.6641 5.75 11.25C5.7501 10.8359 6.08585 10.5 6.5 10.5C6.90604 10.5 7.27389 10.3704 7.58398 10.1982C7.53042 10.059 7.5 9.90812 7.5 9.75V6.25C7.5 5.55964 8.05964 5 8.75 5H9C9.53271 5 10.0322 5.14031 10.4658 5.38379C10.4133 4.8954 10.2789 4.20124 9.92969 3.53613C9.65276 3.00866 9.24627 2.51017 8.64258 2.13965C8.03979 1.76968 7.19602 1.5 6 1.5C4.80398 1.5 3.96021 1.76968 3.35742 2.13965C2.75373 2.51017 2.34724 3.00866 2.07031 3.53613C1.72111 4.20129 1.58569 4.89539 1.5332 5.38379C1.96701 5.14005 2.46698 5 3 5H3.25C3.94036 5 4.5 5.55964 4.5 6.25V9.75C4.5 10.4404 3.94036 11 3.25 11H3C1.34315 11 0 9.65685 0 8V6C0 5.72963 -0.00382519 4.25984 0.742188 2.83887C1.12151 2.11634 1.6994 1.39608 2.57227 0.860352C3.44603 0.324072 4.57103 0 6 0Z"
    fill="currentColor"
  />
</svg>
