<svg width="16" height="16" viewBox="0 0 16 16" fill="none" xmlns="http://www.w3.org/2000/svg" data-fui-icon="true">
  <path
    d="M8 1C9.6657 1 10.9705 1.42703 11.9785 2.10352C12.981 2.77633 13.6477 3.66733 14.0898 4.53418C14.5307 5.39867 14.7559 6.25499 14.8721 6.88867C14.9304 7.20697 14.9624 7.47379 14.9795 7.66406C14.9881 7.75936 14.9932 7.8362 14.9961 7.89062C14.9975 7.91764 14.9985 7.93925 14.999 7.95508C14.9993 7.96301 14.9999 7.96964 15 7.97461V7.98438C14.9997 7.98478 14.984 7.98532 14.25 8L15 7.98535V10.333C15 10.3373 14.9991 10.3415 14.999 10.3457C14.9991 10.3555 15 10.3652 15 10.375V10.625C15 12.489 13.489 14 11.625 14H11.5332C10.9553 14.4613 9.98556 15.0459 8.75 15.0459C8.33599 15.0459 8.00033 14.7098 8 14.2959C8 13.8817 8.33579 13.5459 8.75 13.5459C9.25931 13.5459 9.71646 13.3797 10.0967 13.165C10.0346 13.0111 10 12.8431 10 12.667V8.33301C10.0002 7.59689 10.5969 7.00018 11.333 7H11.625C12.3006 7 12.9293 7.19918 13.457 7.54102C13.4426 7.42865 13.4234 7.29981 13.3975 7.1582C13.2988 6.6201 13.1098 5.91361 12.7539 5.21582C12.3992 4.52024 11.8861 3.84863 11.1426 3.34961C10.4045 2.85427 9.39673 2.5 8 2.5C6.60327 2.5 5.59547 2.85427 4.85742 3.34961C4.11394 3.84863 3.60084 4.52024 3.24609 5.21582C2.89024 5.91361 2.70122 6.6201 2.60254 7.1582C2.57657 7.29986 2.55642 7.42862 2.54199 7.54102C3.06984 7.1989 3.69914 7 4.375 7H4.66699C5.40311 7.00018 5.99982 7.59689 6 8.33301V12.667C5.99982 13.4031 5.40311 13.9998 4.66699 14H4.375C2.51104 14 1 12.489 1 10.625V7.98535L1.75 8C1.01597 7.98532 1.00032 7.98478 1 7.98438V7.97461C1.00014 7.96964 1.00069 7.96301 1.00098 7.95508C1.00154 7.93925 1.00249 7.91764 1.00391 7.89062C1.00677 7.8362 1.01193 7.75936 1.02051 7.66406C1.03764 7.47379 1.06959 7.20697 1.12793 6.88867C1.24411 6.25499 1.46926 5.39867 1.91016 4.53418C2.35227 3.66733 3.01899 2.77633 4.02148 2.10352C5.02951 1.42703 6.3343 1 8 1Z"
    fill="currentColor"
  />
</svg>
