<svg width="12" height="12" viewBox="0 0 12 12" fill="none" xmlns="http://www.w3.org/2000/svg" data-fui-icon="true">
  <g clip-path="url(#clip0_7211_180)">
    <path
      d="M6 0C10.0052 0 12 3.18299 12 6V8.25C12 10.3211 10.3211 12 8.25 12H6.75C6.33579 12 6 11.6642 6 11.25C6 10.8358 6.33579 10.5 6.75 10.5H8.25C8.98777 10.5 9.64046 10.1433 10.0508 9.59473C9.76002 9.69367 9.44923 9.75 9.125 9.75H8.75C8.05964 9.75 7.5 9.19036 7.5 8.5V5.25C7.5 4.55964 8.05964 4 8.75 4H9.125C9.48509 4 9.82882 4.06856 10.1465 4.18945C9.54065 2.70164 8.15668 1.5 6 1.5C3.84315 1.5 2.4583 2.70149 1.85254 4.18945C2.17044 4.06835 2.51459 4 2.875 4H3.25C3.94036 4 4.5 4.55964 4.5 5.25V8.5C4.5 9.19036 3.94036 9.75 3.25 9.75H2.875C1.37444 9.75 0.143583 8.6003 0.0126953 7.13379C0.0048617 7.09033 0 7.04571 0 7V6C0 3.18299 1.99485 0 6 0Z"
      fill="currentColor"
    />
  </g>
  <defs>
    <clipPath id="clip0_7211_180"><path fill="currentColor" d="M0 0H12V12H0z" /></clipPath>
  </defs>
</svg>
