<svg width="16" height="16" viewBox="0 0 16 16" fill="none" xmlns="http://www.w3.org/2000/svg" data-fui-icon="true">
  <path
    d="M8 0C10.9695 0 13.0044 1.16034 14.2783 2.78809C15.5288 4.38605 16 6.37284 16 8V12C16 12.0082 15.9983 12.0163 15.998 12.0244C15.9983 12.0407 16 12.0569 16 12.0732V12.4268C15.9998 14.4001 14.4001 15.9998 12.4268 16C11.3628 16 10.5 15.1372 10.5 14.0732V10.4268C10.5 9.3628 11.3628 8.5 12.4268 8.5C13.1998 8.50006 13.9153 8.7458 14.5 9.16309V8C14.5 6.62726 14.0961 4.9889 13.0967 3.71191C12.1205 2.4648 10.5303 1.5 8 1.5C5.46969 1.5 3.87945 2.4648 2.90332 3.71191C1.90394 4.9889 1.5 6.62726 1.5 8V9.16309C2.08466 8.7458 2.8002 8.50006 3.57324 8.5C4.6372 8.5 5.5 9.3628 5.5 10.4268V14.0732C5.5 15.1372 4.6372 16 3.57324 16C1.59986 15.9998 0.000155217 14.4001 0 12.4268V12.0732C1.28325e-06 12.0569 0.000757581 12.0407 0.000976562 12.0244C0.000716921 12.0163 0 12.0082 0 12V8C0 6.37284 0.471227 4.38605 1.72168 2.78809C2.99557 1.16034 5.0305 0 8 0Z"
    fill="currentColor"
  />
</svg>
