<svg width="20" height="20" viewBox="0 0 20 20" fill="none" xmlns="http://www.w3.org/2000/svg" data-fui-icon="true">
  <path
    d="M10 1C13.2258 1 15.5145 2.29071 16.9746 4.2373C18.4117 6.15346 19 8.63993 19 11V14.5C19 16.9853 16.9853 19 14.5 19C13.3954 19 12.5 18.1046 12.5 17V12C12.5 10.8954 13.3954 10 14.5 10C15.6527 10 16.7038 10.4338 17.5 11.1465V11C17.5 8.86021 16.9631 6.72151 15.7754 5.1377C14.6105 3.58446 12.774 2.5 10 2.5C7.226 2.5 5.38953 3.58446 4.22461 5.1377C3.03689 6.72151 2.5 8.86021 2.5 11V11.1465C3.29617 10.4338 4.34731 10 5.5 10C6.60457 10 7.5 10.8954 7.5 12V17C7.5 18.1046 6.60457 19 5.5 19C3.01472 19 1 16.9853 1 14.5V11C1 8.63993 1.58827 6.15346 3.02539 4.2373C4.48548 2.29071 6.77418 1 10 1Z"
    fill="currentColor"
  />
</svg>
