<svg
  width="20"
  height="20"
  viewBox="0 0 20 20"
  fill="none"
  xmlns="http://www.w3.org/2000/svg"
  data-fui-icon="true"
>
  <path
    fill-rule="evenodd"
    clip-rule="evenodd"
    d="M1.99341 2.74353C1.99341 2.32932 2.32919 1.99353 2.74341 1.99353H6.3717C6.78591 1.99353 7.1217 2.32932 7.1217 2.74353C7.1217 3.15774 6.78591 3.49353 6.3717 3.49353H5.30753V9.25001L14.6924 9.25001V3.49353H13.6283C13.2141 3.49353 12.8783 3.15774 12.8783 2.74353C12.8783 2.32932 13.2141 1.99353 13.6283 1.99353H17.2566C17.6708 1.99353 18.0066 2.32932 18.0066 2.74353C18.0066 3.15774 17.6708 3.49353 17.2566 3.49353H16.1924V16.5066H17.2566C17.6708 16.5066 18.0066 16.8424 18.0066 17.2566C18.0066 17.6708 17.6708 18.0066 17.2566 18.0066H13.6283C13.2141 18.0066 12.8783 17.6708 12.8783 17.2566C12.8783 16.8424 13.2141 16.5066 13.6283 16.5066H14.6924V10.75L5.30753 10.75V16.5066H6.3717C6.78591 16.5066 7.1217 16.8424 7.1217 17.2566C7.1217 17.6708 6.78591 18.0066 6.3717 18.0066H2.74341C2.32919 18.0066 1.99341 17.6708 1.99341 17.2566C1.99341 16.8424 2.32919 16.5066 2.74341 16.5066H3.80753V3.49353H2.74341C2.32919 3.49353 1.99341 3.15774 1.99341 2.74353Z"
    fill="currentColor"
  />
</svg>
