<svg width="12" height="12" viewBox="0 0 12 12" fill="none" xmlns="http://www.w3.org/2000/svg" data-fui-icon="true">
  <g clip-path="url(#clip0_7206_114)">
    <path
      d="M6 0C10.0052 0 12 3.18299 12 6V9C12 9.02075 11.9977 9.0412 11.9961 9.06152C11.9966 9.08265 12 9.10376 12 9.125C12 10.7128 10.7128 12 9.125 12H8.75C8.05964 12 7.5 11.4404 7.5 10.75V7.5C7.5 6.80964 8.05964 6.25 8.75 6.25H9.125C9.62308 6.25 10.0915 6.37674 10.5 6.59961V6C10.5 3.81701 8.99485 1.5 6 1.5C3.00515 1.5 1.5 3.81701 1.5 6V6.59961C1.90846 6.37674 2.37692 6.25 2.875 6.25H3.25C3.94036 6.25 4.5 6.80964 4.5 7.5V10.75C4.5 11.4404 3.94036 12 3.25 12H2.875C1.28718 12 0 10.7128 0 9.125C0 9.10377 0.00247184 9.08264 0.00292969 9.06152C0.00128038 9.04122 0 9.02073 0 9V6C0 3.18299 1.99485 0 6 0Z"
      fill="currentColor"
    />
  </g>
  <defs>
    <clipPath id="clip0_7206_114"><path fill="currentColor" d="M0 0H12V12H0z" /></clipPath>
  </defs>
</svg>
