<svg width="24" height="24" viewBox="0 0 24 24" fill="none" xmlns="http://www.w3.org/2000/svg" data-fui-icon="true">
  <path
    d="M12 1C17.1521 1.00004 19.939 3.77619 21.3965 6.52344C22.1174 7.88235 22.5156 9.23344 22.7344 10.2393C22.844 10.7435 22.91 11.1652 22.9482 11.4639C22.9674 11.6133 22.9796 11.7331 22.9873 11.8164C22.9911 11.8579 22.9943 11.8909 22.9961 11.9141C22.997 11.9255 22.9976 11.9347 22.998 11.9414V11.9521L22.999 11.9531C22.9982 11.9536 22.9738 11.9559 22.25 12L22.999 11.9541L23 11.9775V15.667C23 15.6887 22.9979 15.7102 22.9961 15.7314C22.9975 15.7791 23 15.827 23 15.875V17.125C23 19.8174 20.8174 22 18.125 22H17.667C17.3962 22 17.1411 21.934 16.915 21.8193C16.6373 22.051 16.2916 22.3174 15.8467 22.5254C15.1339 22.8585 14.1905 23.0576 12.75 23.0576C12.336 23.0576 12.0004 22.7215 12 22.3076C12 21.8934 12.3358 21.5576 12.75 21.5576C14.0592 21.5576 14.7638 21.375 15.2109 21.166C15.5502 21.0075 15.7572 20.8336 16.0244 20.6064C16.0097 20.5174 16 20.4262 16 20.333V12.667C16 11.7465 16.7465 11 17.667 11H18.125C19.4352 11 20.624 11.5175 21.5 12.3584V12.0273C21.4988 12.0119 21.4972 11.9872 21.4941 11.9541C21.488 11.8873 21.4767 11.7859 21.46 11.6553C21.4264 11.3934 21.3688 11.014 21.2695 10.5576C21.0703 9.64163 20.7107 8.43001 20.0723 7.22656C18.8109 4.84891 16.4726 2.50004 12 2.5C7.52737 2.50001 5.18902 4.84891 3.92773 7.22656C3.28937 8.43001 2.92968 9.64163 2.73047 10.5576C2.63122 11.014 2.57357 11.3934 2.54004 11.6553C2.52332 11.7859 2.51202 11.8873 2.50586 11.9541C2.50281 11.9872 2.50118 12.0119 2.5 12.0273V12.3584C3.37598 11.5175 4.56483 11 5.875 11H6.33301C7.25348 11 8 11.7465 8 12.667V20.333C8 21.2535 7.25348 22 6.33301 22H5.875C3.18261 22 1 19.8174 1 17.125V15.875C1 15.827 1.00155 15.7791 1.00293 15.7314C1.00111 15.7102 1.00001 15.6887 1 15.667V11.9775L1.00098 11.9541L1.75 12C1.00946 11.9549 1.00105 11.9536 1.00098 11.9531L1.00195 11.9521V11.9414C1.00241 11.9347 1.00304 11.9255 1.00391 11.9141C1.00567 11.8909 1.00887 11.8579 1.0127 11.8164C1.02038 11.7331 1.03262 11.6133 1.05176 11.4639C1.09001 11.1652 1.15598 10.7435 1.26562 10.2393C1.48435 9.23348 1.88171 7.88231 2.60254 6.52344C4.05994 3.77609 6.84768 1.00001 12 1Z"
    fill="currentColor"
  />
</svg>
