<svg width="13" height="13" viewBox="0 0 13 13" fill="none" xmlns="http://www.w3.org/2000/svg" data-fui-icon="true">
  <path
    fill-rule="evenodd"
    clip-rule="evenodd"
    d="M6.49293 0C8.09041 7.10074e-05 9.35163 0.383327 10.3266 1.02259C11.298 1.65967 11.9162 2.50555 12.3042 3.32236C12.689 4.1327 12.8557 4.92866 12.9285 5.51121C12.9652 5.80507 12.979 6.05239 12.9834 6.23062C12.9857 6.31995 12.9853 6.3931 12.9845 6.44612C12.9842 6.46287 12.9838 6.47769 12.9834 6.49049V8.65399L12.9792 8.8209C12.8953 10.4767 11.5699 11.8045 9.91565 11.894C9.9025 11.9057 9.8904 11.9187 9.87656 11.9299C9.3092 12.3872 8.31715 12.9998 7.0338 13C6.43644 13 5.95217 12.5156 5.95205 11.9183C5.95205 11.3208 6.43637 10.8365 7.0338 10.8365C7.24644 10.8364 7.44983 10.7975 7.64123 10.7351C7.59841 10.5896 7.57467 10.436 7.57467 10.2766V7.03137C7.57467 6.13522 8.30115 5.40874 9.1973 5.40874H9.73817C10.0909 5.4088 10.4301 5.46625 10.7481 5.57037C10.6836 5.17603 10.5671 4.70733 10.3498 4.24988C10.0956 3.71476 9.71499 3.2081 9.14025 2.83114C8.56885 2.45658 7.73416 2.16357 6.49293 2.1635C5.25131 2.1635 4.41603 2.45647 3.84454 2.83114C3.26983 3.20805 2.89027 3.71482 2.63603 4.24988C2.41868 4.70746 2.30018 5.17594 2.23565 5.57037C2.55404 5.46599 2.89439 5.40874 3.24768 5.40874H3.78855C4.68447 5.40902 5.41118 6.13539 5.41118 7.03137V10.2766C5.41118 11.1726 4.68447 11.899 3.78855 11.8992H3.24768C1.51137 11.8992 0.0935455 10.5356 0.00665939 8.8209L0.00243381 8.65399V6.51056C0.00189014 6.49409 0.000717695 6.4725 0.000321016 6.44612C-0.000474375 6.3931 0.000200379 6.31996 0.00243381 6.23062C0.00690249 6.05238 0.0206322 5.80509 0.0573664 5.51121C0.130195 4.92862 0.296817 4.13274 0.681696 3.32236C1.06966 2.50565 1.68696 1.65961 2.65821 1.02259C3.63325 0.383304 4.89528 0 6.49293 0ZM3.24768 7.57224C2.65025 7.57224 2.16593 8.05656 2.16593 8.65399C2.16593 9.25142 2.65025 9.73574 3.24768 9.73574V7.57224ZM9.73817 9.73574C10.3354 9.73546 10.8199 9.25125 10.8199 8.65399C10.8199 8.05673 10.3354 7.57252 9.73817 7.57224V9.73574Z"
    fill="currentColor"
  />
</svg>
