<svg width="24" height="24" viewBox="0 0 24 24" fill="none" xmlns="http://www.w3.org/2000/svg" data-fui-icon="true">
  <path
    d="M12 1C17.0763 1.00003 19.8857 3.20173 21.3809 5.74512C22.8399 8.22729 23 10.9483 23 12V15.667C23 15.6887 22.9979 15.7102 22.9961 15.7314C22.9975 15.7791 23 15.827 23 15.875V17.125C23 19.8174 20.8174 22 18.125 22H17.667C17.3962 22 17.1411 21.934 16.915 21.8193C16.6373 22.051 16.2916 22.3174 15.8467 22.5254C15.1339 22.8585 14.1905 23.0576 12.75 23.0576C12.336 23.0576 12.0004 22.7215 12 22.3076C12 21.8934 12.3358 21.5576 12.75 21.5576C14.0592 21.5576 14.7638 21.375 15.2109 21.166C15.5502 21.0075 15.7572 20.8336 16.0244 20.6064C16.0097 20.5174 16 20.4262 16 20.333V12.667C16 11.7465 16.7465 11 17.667 11H18.125C19.4352 11 20.624 11.5175 21.5 12.3584V12C21.5 11.0517 21.3475 8.64764 20.0879 6.50488C18.8642 4.42333 16.5485 2.50003 12 2.5C7.45148 2.50001 5.13574 4.42334 3.91211 6.50488C2.65256 8.64762 2.5 11.0517 2.5 12V12.3584C3.37598 11.5175 4.56483 11 5.875 11H6.33301C7.25348 11 8 11.7465 8 12.667V20.333C8 21.2535 7.25348 22 6.33301 22H5.875C3.18261 22 1 19.8174 1 17.125V15.875C1 15.827 1.00155 15.7791 1.00293 15.7314C1.00111 15.7102 1.00001 15.6887 1 15.667V12C1 10.9483 1.16009 8.2273 2.61914 5.74512C4.11422 3.20171 6.92367 1.00001 12 1ZM5.875 12.5C4.01104 12.5 2.5 14.011 2.5 15.875V17.125C2.5 18.989 4.01104 20.5 5.875 20.5H6.33301C6.42506 20.5 6.5 20.4251 6.5 20.333V12.667C6.5 12.5749 6.42506 12.5 6.33301 12.5H5.875ZM17.667 12.5C17.5749 12.5 17.5 12.5749 17.5 12.667V20.333C17.5 20.4251 17.5749 20.5 17.667 20.5H18.125C19.989 20.5 21.5 18.989 21.5 17.125V15.875C21.5 14.011 19.989 12.5 18.125 12.5H17.667Z"
    fill="currentColor"
  />
</svg>
