<svg width="24" height="24" viewBox="0 0 24 24" fill="none" xmlns="http://www.w3.org/2000/svg" data-fui-icon="true">
  <path
    d="M12 1C14.3798 1 16.3012 1.46361 17.8359 2.29492C19.3757 3.12908 20.473 4.30429 21.2422 5.6416C22.7569 8.27517 23 11.5369 23 14.125V17.625C23 17.695 22.9922 17.7632 22.9785 17.8291C22.7387 20.7246 20.3148 22.9999 17.3574 23C15.7795 23 14.5 21.7205 14.5 20.1426V14.3574C14.5 12.7795 15.7795 11.5 17.3574 11.5C18.7333 11.5001 19.9935 11.9933 20.9727 12.8115C20.8827 10.6539 20.5328 8.42183 19.5078 6.63965C18.9021 5.58652 18.0615 4.69118 16.8828 4.05273C15.6988 3.41151 14.12 3 12 3C9.87998 3 8.30117 3.41151 7.11719 4.05273C5.93852 4.69118 5.09791 5.58652 4.49219 6.63965C3.4672 8.42184 3.11628 10.6539 3.02637 12.8115C4.00564 11.993 5.26646 11.5001 6.64258 11.5C8.22053 11.5 9.5 12.7795 9.5 14.3574V20.1426C9.5 21.7205 8.22053 23 6.64258 23C3.68521 22.9999 1.26031 20.7246 1.02051 17.8291C1.00685 17.7632 1 17.6949 1 17.625V14.125C1 11.5369 1.24308 8.27517 2.75781 5.6416C3.52702 4.30429 4.62425 3.12908 6.16406 2.29492C7.69879 1.46361 9.62025 1 12 1ZM6.64258 13.5C4.63091 13.5002 3.00015 15.1309 3 17.1426V17.3574C3.00015 19.3691 4.63091 20.9998 6.64258 21C7.11596 21 7.5 20.616 7.5 20.1426V14.3574C7.5 13.884 7.11596 13.5 6.64258 13.5ZM17.3574 13.5C16.884 13.5 16.5 13.884 16.5 14.3574V20.1426C16.5 20.616 16.884 21 17.3574 21C19.3691 20.9998 20.9998 19.3691 21 17.3574V17.1426C20.9998 15.1309 19.3691 13.5002 17.3574 13.5Z"
    fill="currentColor"
  />
</svg>
