<svg width="24" height="24" viewBox="0 0 24 24" fill="none" xmlns="http://www.w3.org/2000/svg" data-fui-icon="true">
  <path
    d="M12 0C19.4199 0 24 5.59148 24 11.125V14.6074C24 14.7047 23.9963 14.8014 23.9912 14.8975C23.9958 14.9311 24 14.9651 24 15V16.25C24 20.5302 20.5302 24 16.25 24H12.75C12.3358 24 12 23.6642 12 23.25C12 22.8358 12.3358 22.5 12.75 22.5H16.25C18.7738 22.5 20.9459 21.0031 21.9326 18.8496C21.0162 19.5689 19.8627 19.9999 18.6074 20C17.1675 20 16 18.8325 16 17.3926V11.6074C16 10.1675 17.1675 9 18.6074 9C20.13 9.00008 21.5048 9.63163 22.4854 10.6465C22.2308 6.08247 18.3578 1.5 12 1.5C5.64221 1.5 1.76822 6.08245 1.51367 10.6465C2.49427 9.63134 3.86971 9.00008 5.39258 9C6.83246 9 8 10.1675 8 11.6074V17.3926C8 18.8325 6.83246 20 5.39258 20C2.41441 19.9998 0.000150697 17.5856 0 14.6074V11.125C0 5.59148 4.58012 0 12 0ZM5.39258 10.5C3.24283 10.5002 1.50015 12.2428 1.5 14.3926V14.6074C1.50015 16.7572 3.24283 18.4998 5.39258 18.5C6.00404 18.5 6.5 18.004 6.5 17.3926V11.6074C6.5 10.996 6.00404 10.5 5.39258 10.5ZM18.6074 10.5C17.996 10.5 17.5 10.996 17.5 11.6074V17.3926C17.5 18.004 17.996 18.5 18.6074 18.5C20.7572 18.4998 22.4998 16.7572 22.5 14.6074V14.3926C22.4998 12.2428 20.7572 10.5002 18.6074 10.5Z"
    fill="currentColor"
  />
</svg>
