<svg width="20" height="20" viewBox="0 0 20 20" fill="none" xmlns="http://www.w3.org/2000/svg" data-fui-icon="true">
  <path
    d="M10 1C12.1536 1.00001 13.84 1.56795 15.1406 2.4668C16.4326 3.3597 17.2872 4.53958 17.8506 5.68359C18.4125 6.82475 18.6972 7.95371 18.8428 8.78906C18.916 9.20917 18.9547 9.56161 18.9756 9.8125C18.986 9.93804 18.9918 10.0387 18.9951 10.1104C18.9968 10.1462 18.9984 10.1754 18.999 10.1963C18.9993 10.2065 18.9999 10.2153 19 10.2217V10.2334C19 10.2339 18.9999 10.2348 18 10.25L19 10.2344V13.25C19 13.2648 18.9977 13.2793 18.9971 13.2939C18.9976 13.3209 19 13.3479 19 13.375V13.625C19 16.0412 17.0412 18 14.625 18H14.25C14.0825 18 13.921 17.9746 13.7676 17.9307C13.6019 18.1236 13.41 18.3035 13.1797 18.457C12.5751 18.8601 11.8507 19 11 19C10.4477 19 10 18.5523 10 18C10 17.4477 10.4477 17 11 17C11.6492 17 11.9249 16.8899 12.0703 16.793C12.1988 16.7073 12.3257 16.5639 12.5 16.248V10.75C12.5 9.7835 13.2835 9 14.25 9H14.625C15.4795 9 16.2765 9.24539 16.9502 9.66895C16.9317 9.5136 16.9069 9.33295 16.8721 9.13281C16.7481 8.42142 16.5093 7.48753 16.0557 6.56641C15.6034 5.64809 14.95 4.7652 14.0039 4.11133C13.0662 3.46333 11.7838 3.00001 10 3C8.21623 3 6.93374 3.46334 5.99609 4.11133C5.04998 4.76519 4.3966 5.6481 3.94434 6.56641C3.49076 7.48752 3.25188 8.42142 3.12793 9.13281C3.09305 9.333 3.06735 9.51357 3.04883 9.66895C3.72264 9.24512 4.5202 9 5.375 9H5.75C6.7165 9 7.5 9.7835 7.5 10.75V16.25C7.5 17.2165 6.7165 18 5.75 18H5.375C2.95875 18 1 16.0412 1 13.625V13.375C1 13.3479 1.00146 13.3209 1.00195 13.2939C1.00132 13.2794 1 13.2647 1 13.25V10.2354L2 10.25C1.00011 10.2349 0.999992 10.2339 1 10.2334V10.2217C1.00015 10.2153 1.00067 10.2065 1.00098 10.1963C1.00161 10.1754 1.0032 10.1462 1.00488 10.1104C1.00825 10.0387 1.01395 9.93804 1.02441 9.8125C1.04532 9.56161 1.08403 9.20917 1.15723 8.78906C1.30279 7.9537 1.58755 6.82475 2.14941 5.68359C2.71275 4.53956 3.56738 3.35971 4.85938 2.4668C6.15999 1.56794 7.84633 1 10 1ZM5.375 11C4.06332 11 3 12.0633 3 13.375V13.625C3 14.9367 4.06332 16 5.375 16H5.5V11H5.375ZM14.5 16H14.625C15.9367 16 17 14.9367 17 13.625V13.375C17 12.0633 15.9367 11 14.625 11H14.5V16Z"
    fill="currentColor"
  />
</svg>
