<svg width="20" height="20" viewBox="0 0 20 20" fill="none" xmlns="http://www.w3.org/2000/svg" data-fui-icon="true">
  <path
    d="M6.37207 1.99341C6.78628 1.99341 7.12207 2.32919 7.12207 2.74341C7.12207 3.15762 6.78628 3.49341 6.37207 3.49341H5.30859V9.25024H14.6934V3.49341H13.6289C13.2147 3.49336 12.8789 3.15759 12.8789 2.74341C12.8789 2.32923 13.2147 1.99346 13.6289 1.99341H17.2568C17.671 1.99341 18.0068 2.32919 18.0068 2.74341C18.0068 3.15762 17.671 3.49341 17.2568 3.49341H16.1934V16.5061H17.2568C17.6709 16.5061 18.0066 16.8421 18.0068 17.2561C18.0068 17.6703 17.671 18.0061 17.2568 18.0061H13.6289C13.2147 18.0061 12.8789 17.6703 12.8789 17.2561C12.8791 16.8421 13.2149 16.5062 13.6289 16.5061H14.6934V10.7502H5.30859V16.5061H6.37207C6.78616 16.5061 7.12187 16.8421 7.12207 17.2561C7.12207 17.6703 6.78628 18.0061 6.37207 18.0061H2.74414C2.32993 18.0061 1.99414 17.6703 1.99414 17.2561C1.99434 16.8421 2.33005 16.5061 2.74414 16.5061H3.80859V3.49341H2.74414C2.32993 3.49341 1.99414 3.15762 1.99414 2.74341C1.99414 2.32919 2.32993 1.99341 2.74414 1.99341H6.37207Z"
    fill="currentColor"
  />
</svg>
