<svg width="12" height="13" viewBox="0 0 12 13" fill="none" xmlns="http://www.w3.org/2000/svg" data-fui-icon="true">
  <path
    fill-rule="evenodd"
    clip-rule="evenodd"
    d="M6.00029 0C7.46536 1.96167e-05 8.64126 0.371324 9.55595 1.00293C10.4629 1.62931 11.0306 2.4548 11.3831 3.23633C11.733 4.01204 11.8831 4.77002 11.9485 5.32129C11.9816 5.60028 11.9943 5.83582 11.9983 6.00586C12.0003 6.09095 12.001 6.16065 12.0003 6.21191C11.9999 6.23724 11.9988 6.25817 11.9983 6.27441V7.92285C11.999 7.9485 12.0003 7.9742 12.0003 8C12.0003 8.0258 11.999 8.0515 11.9983 8.07715V8.25C11.9983 8.40169 11.9687 8.54615 11.9192 8.68066C11.6524 9.8296 10.7285 10.7251 9.56279 10.9463C9.55275 10.9549 9.54386 10.9653 9.53349 10.9736C8.98685 11.4141 8.01595 12.0176 6.74931 12.0176C6.05915 12.0174 5.49942 11.4577 5.49931 10.7676C5.49931 10.0773 6.05909 9.51773 6.74931 9.51758C6.83442 9.51758 6.91801 9.50642 7.00029 9.49219V6.5C7.00029 5.67168 7.67201 5.00018 8.50029 5H9.00029C9.12125 5 9.24049 5.00757 9.35771 5.02148C9.29891 4.77657 9.21915 4.51723 9.10478 4.26367C8.89352 3.79538 8.58548 3.37062 8.13505 3.05957C7.6921 2.75379 7.0277 2.50002 6.00029 2.5C4.97286 2.5 4.3085 2.75379 3.86552 3.05957C3.41505 3.37062 3.10707 3.79537 2.89579 4.26367C2.78135 4.51738 2.69972 4.77645 2.64091 5.02148C2.75875 5.0074 2.87866 5.00001 3.00029 5H3.50029C4.32871 5 5.00029 5.67157 5.00029 6.5V9.5C5.00029 10.3284 4.32871 11 3.50029 11H3.00029C1.58136 10.9998 0.394395 10.0141 0.0823181 8.69043C0.0307059 8.55341 0.00224 8.40507 0.00224 8.25V8.07715C0.00159228 8.0515 0.000286873 8.0258 0.000286873 8C0.000286873 7.9742 0.00159228 7.9485 0.00224 7.92285V6.27441C0.00173255 6.25817 0.000649227 6.23724 0.000286873 6.21191C-0.000443315 6.16065 0.000224938 6.09094 0.00224 6.00586C0.00627709 5.83582 0.0189264 5.60028 0.0520447 5.32129C0.117497 4.77002 0.267582 4.01205 0.617474 3.23633C0.970012 2.45481 1.53764 1.6293 2.44462 1.00293C3.35932 0.371347 4.53522 4.58845e-06 6.00029 0Z"
    fill="currentColor"
  />
</svg>
