<svg width="32" height="32" viewBox="0 0 32 32" fill="none" xmlns="http://www.w3.org/2000/svg" data-fui-icon="true">
  <path
    d="M22.0791 16.9707C22.4037 17.4575 22.95 17.75 23.5352 17.75H29.7764C28.6113 20.3703 26.7529 22.5514 24.8135 24.2852C21.6072 27.1514 18.0901 28.884 16.8027 29.4668C16.2864 29.7005 15.7136 29.7005 15.1973 29.4668C13.9099 28.884 10.3928 27.1514 7.18652 24.2852C5.24713 22.5514 3.38872 20.3703 2.22363 17.75H8.47266C8.5551 17.75 8.63307 17.7904 8.67969 17.8584L11.7686 22.3643C12.4178 23.3113 13.8469 23.2076 14.3525 22.1768L19.0996 12.501L22.0791 16.9707ZM23.125 4C27.4111 4 31 7.33295 31 12.0791C31 13.5667 30.7608 14.9593 30.3467 16.2568C30.315 16.2528 30.2828 16.25 30.25 16.25H23.5352C23.4516 16.25 23.3735 16.2082 23.3271 16.1387L20.3477 11.6689C19.7061 10.7066 18.2626 10.8017 17.7529 11.8398L13.0059 21.5166L9.91699 17.0107C9.59069 16.5348 9.04975 16.25 8.47266 16.25H1.75C1.71688 16.25 1.68433 16.2527 1.65234 16.2568C1.23827 14.9594 1.00003 13.5666 1 12.0791C1 7.33295 4.58895 4 8.875 4C11.813 4 13.7818 5.30826 15.001 6.61328C15.4184 7.06015 15.7468 7.50718 16 7.90039C16.2532 7.50718 16.5816 7.06015 16.999 6.61328C18.2182 5.30826 20.187 4 23.125 4Z"
    fill="currentColor"
  />
</svg>
