<svg width="24" height="24" viewBox="0 0 24 24" fill="none" xmlns="http://www.w3.org/2000/svg" data-fui-icon="true">
  <path
    d="M17.625 2C21.0953 2 24 4.7013 24 8.53613C23.9999 12.7569 21.6069 16.0163 19.0635 18.29C16.515 20.5683 13.7221 21.9442 12.6992 22.4072C12.25 22.6106 11.75 22.6106 11.3008 22.4072C10.2779 21.9442 7.48501 20.5683 4.93652 18.29C2.39308 16.0163 9.46155e-05 12.7569 0 8.53613C0 4.7013 2.90474 2 6.375 2C8.6927 2 10.2843 3.0621 11.2783 4.1084C11.5673 4.41264 11.8054 4.71749 12 4.99512C12.1946 4.71749 12.4327 4.41264 12.7217 4.1084C13.7157 3.0621 15.3073 2 17.625 2Z"
    fill="currentColor"
  />
</svg>
