<svg width="12" height="12" viewBox="0 0 12 12" fill="none" xmlns="http://www.w3.org/2000/svg" data-fui-icon="true">
  <path
    fill-rule="evenodd"
    clip-rule="evenodd"
    d="M8.5 1.2168C10.3487 1.2168 12 2.59314 12 4.63477C12 6.70251 10.7531 8.24018 9.55957 9.24316C8.35349 10.2567 7.04396 10.8623 6.56445 11.0664C6.20183 11.2207 5.79817 11.2207 5.43555 11.0664C4.95605 10.8623 3.64651 10.2567 2.44043 9.24316C1.24694 8.24018 2.45318e-05 6.70251 0 4.63477C2.82829e-06 2.59314 1.65131 1.2168 3.5 1.2168C4.63263 1.2168 5.45712 1.68935 6 2.17773C6.54288 1.68935 7.36737 1.2168 8.5 1.2168ZM8.5 3.2168C7.93083 3.2168 7.54376 3.45796 7.27832 3.7168C7.14263 3.84917 7.04315 3.9825 6.97949 4.08105C6.94823 4.12947 6.92679 4.16759 6.91504 4.18945C6.90936 4.20003 6.90624 4.20703 6.90527 4.20898V4.20801L6.83984 4.32617C6.65754 4.60867 6.34272 4.78418 6 4.78418C5.65728 4.78418 5.34246 4.60867 5.16016 4.32617L5.09473 4.20801V4.20898C5.09376 4.20703 5.09064 4.20003 5.08496 4.18945C5.07321 4.16759 5.05177 4.12947 5.02051 4.08105C4.95685 3.9825 4.85737 3.84917 4.72168 3.7168C4.45624 3.45796 4.06917 3.2168 3.5 3.2168C2.62939 3.2168 2 3.8201 2 4.63477C2.00002 5.84137 2.72672 6.87155 3.72656 7.71191C4.5684 8.41937 5.49671 8.89389 6 9.125C6.50329 8.89389 7.4316 8.41937 8.27344 7.71191C9.27328 6.87155 9.99998 5.84137 10 4.63477C10 3.8201 9.37061 3.2168 8.5 3.2168Z"
    fill="currentColor"
  />
</svg>
