<svg width="20" height="20" viewBox="0 0 20 20" fill="none" xmlns="http://www.w3.org/2000/svg" data-fui-icon="true">
  <path
    fill-rule="evenodd"
    clip-rule="evenodd"
    d="M14.5 2.12012C17.4756 2.12012 19.9998 4.39982 20 7.65332C20 11.1337 17.9866 13.7916 15.9141 15.6074C13.8331 17.4307 11.5581 18.5289 10.7207 18.9004C10.2581 19.1056 9.74186 19.1056 9.2793 18.9004C8.44193 18.5289 6.1669 17.4307 4.08594 15.6074C2.01343 13.7916 1.45284e-05 11.1337 0 7.65332C0.000193347 4.39982 2.5244 2.12012 5.5 2.12012C7.5807 2.12012 8.96021 3.00143 9.80469 3.9082C9.87358 3.98219 9.93839 4.05646 10 4.12988C10.0616 4.05646 10.1264 3.98219 10.1953 3.9082C11.0398 3.00143 12.4193 2.12012 14.5 2.12012ZM14.5 4.12012C13.0538 4.12012 12.183 4.70815 11.6592 5.27051C11.389 5.56064 11.2047 5.85216 11.0898 6.06836C11.0329 6.17562 10.9945 6.26253 10.9717 6.31738C10.9605 6.34425 10.9529 6.36318 10.9492 6.37305H10.9482L10.9492 6.37402L10.9482 6.375V6.37598C10.9479 6.37697 10.9475 6.37825 10.9473 6.37891C10.9468 6.38015 10.9463 6.38084 10.9463 6.38086L10.8877 6.51953C10.7178 6.84683 10.3774 7.05859 10 7.05859C9.6226 7.05859 9.28217 6.84683 9.1123 6.51953L9.05371 6.38086C9.0537 6.38084 9.05316 6.38015 9.05273 6.37891C9.05251 6.37825 9.05209 6.37697 9.05176 6.37598V6.375L9.05078 6.37305L9.02832 6.31738C9.00545 6.26253 8.96713 6.17562 8.91016 6.06836C8.79532 5.85216 8.61102 5.56064 8.34082 5.27051C7.81703 4.70815 6.94618 4.12012 5.5 4.12012C3.5811 4.12012 2.00019 5.55166 2 7.65332C2.00001 10.3072 3.53266 12.4626 5.4043 14.1025C7.19711 15.6733 9.17958 16.6583 10 17.0293C10.8204 16.6583 12.8029 15.6733 14.5957 14.1025C16.4673 12.4626 18 10.3072 18 7.65332C17.9998 5.55166 16.4189 4.12012 14.5 4.12012Z"
    fill="currentColor"
  />
</svg>
