<svg width="20" height="20" viewBox="0 0 20 20" fill="none" xmlns="http://www.w3.org/2000/svg" data-fui-icon="true">
  <path
    d="M14.625 2C17.5513 2 19.9998 4.27979 20 7.50684C20 11.0313 18.0014 13.7453 15.8965 15.627C13.7866 17.513 11.4765 18.6509 10.6299 19.0342C10.2256 19.2172 9.77439 19.2172 9.37012 19.0342C8.52352 18.6509 6.21337 17.513 4.10352 15.627C1.99862 13.7453 0 11.0313 0 7.50684C0.000225261 4.27979 2.44873 2 5.375 2C7.43089 2 8.77899 2.88552 9.60059 3.78613C9.75239 3.95256 9.88348 4.12087 10 4.28125C10.1165 4.12087 10.2476 3.95256 10.3994 3.78613C11.221 2.88552 12.5691 2 14.625 2ZM14.625 3.5C13.0561 3.5 12.0915 4.15589 11.5068 4.79688C11.2085 5.12393 11.0054 5.45227 10.8779 5.69727C10.8145 5.81916 10.7709 5.91894 10.7441 5.98438C10.7309 6.01684 10.7219 6.04075 10.7168 6.05469L10.7129 6.06348L10.7139 6.06445L10.7129 6.06641V6.06543L10.7119 6.06836C10.6105 6.37554 10.3238 6.58301 10 6.58301C9.67623 6.58301 9.38947 6.37554 9.28809 6.06836C9.28788 6.06776 9.28658 6.06669 9.28613 6.06543V6.06348C9.28536 6.06129 9.28447 6.05818 9.2832 6.05469C9.27813 6.04075 9.26911 6.01684 9.25586 5.98438C9.22914 5.91894 9.18549 5.81916 9.12207 5.69727C8.99459 5.45227 8.79147 5.12393 8.49316 4.79688C7.90849 4.15589 6.94391 3.5 5.375 3.5C3.27083 3.5 1.50022 5.11453 1.5 7.50684C1.5 10.4237 3.15138 12.7637 5.10352 14.5088C7.05037 16.2491 9.20399 17.3129 9.98828 17.668C9.99359 17.6704 9.99772 17.6706 9.99902 17.6709H10.001C10.0023 17.6706 10.0064 17.6704 10.0117 17.668C10.796 17.3129 12.9496 16.2491 14.8965 14.5088C16.8486 12.7637 18.5 10.4237 18.5 7.50684C18.4998 5.11453 16.7292 3.5 14.625 3.5Z"
    fill="currentColor"
  />
</svg>
