<svg width="20" height="20" viewBox="0 0 20 20" fill="none" xmlns="http://www.w3.org/2000/svg" data-fui-icon="true">
  <path
    d="M13.2295 11.2461C13.4952 11.565 13.8886 11.7499 14.3037 11.75H18.9678C18.1889 13.2937 17.0592 14.5875 15.8965 15.627C13.7866 17.513 11.4765 18.6509 10.6299 19.0342C10.2256 19.2172 9.77439 19.2172 9.37012 19.0342C8.52352 18.6509 6.21337 17.513 4.10352 15.627C2.94076 14.5875 1.81113 13.2937 1.03223 11.75H5.64844L7.68262 14.1904C8.14278 14.7424 9.01844 14.6409 9.33984 13.998L11.6582 9.36035L13.2295 11.2461ZM14.625 2C17.5513 2 19.9998 4.27979 20 7.50684C20 8.50919 19.8374 9.44567 19.5576 10.3164C19.4637 10.2741 19.3597 10.25 19.25 10.25H14.3516L12.3174 7.80957L12.2266 7.71387C11.7818 7.3018 11.0651 7.38462 10.7266 7.8877L10.6602 8.00195L8.34277 12.6387L6.77051 10.7539L6.66504 10.6406C6.40598 10.3917 6.05953 10.2501 5.69629 10.25H0.75C0.639971 10.25 0.535544 10.2738 0.441406 10.3164C0.161689 9.44575 0 8.50908 0 7.50684C0.000225261 4.27979 2.44873 2 5.375 2C7.43089 2 8.77899 2.88552 9.60059 3.78613C9.75239 3.95256 9.88348 4.12087 10 4.28125C10.1165 4.12087 10.2476 3.95256 10.3994 3.78613C11.221 2.88552 12.5691 2 14.625 2Z"
    fill="currentColor"
  />
</svg>
