<svg width="16" height="16" viewBox="0 0 16 16" fill="none" xmlns="http://www.w3.org/2000/svg" data-fui-icon="true">
  <path
    d="M11.625 1.5C14.0075 1.5 15.9999 3.35887 16 5.97852C16 8.80664 14.3958 10.9743 12.7295 12.4639C11.0583 13.9578 9.23082 14.8577 8.56055 15.1611C8.20122 15.3238 7.79878 15.3238 7.43945 15.1611C6.76918 14.8577 4.94172 13.9578 3.27051 12.4639C1.60421 10.9743 0 8.80664 0 5.97852C8.35319e-05 3.35887 1.99251 1.5 4.375 1.5C5.94461 1.5 7.03525 2.23032 7.71387 2.93945C7.81904 3.04936 7.9133 3.16059 8 3.26758C8.0867 3.16059 8.18096 3.04936 8.28613 2.93945C8.96475 2.23032 10.0554 1.5 11.625 1.5Z"
    fill="currentColor"
  />
</svg>
