<svg width="16" height="16" viewBox="0 0 16 16" fill="none" xmlns="http://www.w3.org/2000/svg" data-fui-icon="true">
  <path
    d="M11.6279 11.4355C11.9397 11.1629 12.4138 11.1942 12.6865 11.5059C12.9592 11.8177 12.927 12.2918 12.6152 12.5645C10.9787 13.9954 9.22158 14.861 8.56348 15.1592C8.20403 15.322 7.79597 15.322 7.43652 15.1592C6.77842 14.861 5.02127 13.9954 3.38477 12.5645C3.07295 12.2918 3.04081 11.8177 3.31348 11.5059C3.58617 11.1942 4.06032 11.1629 4.37207 11.4355C5.80741 12.6906 7.36451 13.4745 8 13.7666C8.63549 13.4745 10.1926 12.6906 11.6279 11.4355ZM8.26855 6.80176C8.57026 6.34768 9.20104 6.2457 9.63086 6.58105L9.71973 6.65918L11.3105 8.25H15.25C15.6642 8.25 16 8.58579 16 9C16 9.41421 15.6642 9.75 15.25 9.75H11.2109C10.8771 9.75 10.5564 9.61693 10.3203 9.38086L9.20605 8.26562L7.79102 11.0957C7.50308 11.6715 6.73557 11.7958 6.28027 11.3408L4.68945 9.75H0.75C0.335792 9.75 8.63289e-06 9.41421 0 9C0 8.58579 0.335786 8.25 0.75 8.25H4.78906C5.08117 8.25 5.36292 8.35163 5.58691 8.53516L5.67969 8.61914L6.79492 9.7334L8.20898 6.9043L8.26855 6.80176ZM11.625 1.5C14.0075 1.5 15.9999 3.35887 16 5.97852C16 6.39273 15.6642 6.72852 15.25 6.72852C14.8358 6.72852 14.5 6.39273 14.5 5.97852C14.4999 4.19361 13.1854 3 11.625 3C10.5699 3 9.84776 3.47747 9.37012 3.97656C9.12891 4.22864 8.9547 4.48304 8.8418 4.67285C8.7859 4.76685 8.74633 4.8434 8.72168 4.89355C8.70946 4.91842 8.70099 4.93684 8.69629 4.94727C8.69395 4.95246 8.69187 4.95596 8.69141 4.95703C8.57453 5.23537 8.30214 5.41699 8 5.41699C7.69786 5.41699 7.42547 5.23537 7.30859 4.95703L7.30371 4.94727C7.29901 4.93684 7.29054 4.91842 7.27832 4.89355C7.25367 4.8434 7.2141 4.76685 7.1582 4.67285C7.0453 4.48304 6.87109 4.22864 6.62988 3.97656C6.15224 3.47747 5.43014 3 4.375 3C2.81461 3 1.50008 4.19361 1.5 5.97852C1.5 6.39273 1.16421 6.72852 0.75 6.72852C0.335786 6.72852 0 6.39273 0 5.97852C8.35155e-05 3.35887 1.99251 1.5 4.375 1.5C5.94461 1.5 7.03525 2.23032 7.71387 2.93945C7.81904 3.04936 7.9133 3.16059 8 3.26758C8.0867 3.16059 8.18096 3.04936 8.28613 2.93945C8.96475 2.23032 10.0554 1.5 11.625 1.5Z"
    fill="currentColor"
  />
</svg>
