<svg width="24" height="24" viewBox="0 0 24 24" fill="none" xmlns="http://www.w3.org/2000/svg" data-fui-icon="true">
  <path
    d="M16.1514 13.0977C16.4397 13.5066 16.9088 13.7508 17.4092 13.751H22.6963C21.7638 15.5483 20.4361 17.063 19.0635 18.29C16.515 20.5683 13.7221 21.9442 12.6992 22.4072C12.25 22.6106 11.75 22.6106 11.3008 22.4072C10.2779 21.9442 7.48501 20.5683 4.93652 18.29C3.56393 17.063 2.23623 15.5483 1.30371 13.751H6.59863C6.61102 13.7511 6.62252 13.7566 6.62988 13.7666L8.85254 16.8184C9.29102 17.4201 10.1994 17.387 10.5928 16.7549L14.4072 10.6201L16.1514 13.0977ZM17.625 2C21.0953 2 24 4.7013 24 8.53613C24 9.87324 23.7586 11.1135 23.3496 12.2568C23.317 12.2525 23.2838 12.251 23.25 12.251H17.4092C17.3966 12.2508 17.3843 12.2436 17.377 12.2334L15.2422 9.20215L15.1562 9.09473C14.7276 8.62633 13.9736 8.64767 13.5723 9.13965L13.4922 9.25195L9.67285 15.3955L7.84277 12.8838C7.55311 12.486 7.09072 12.2511 6.59863 12.251H0.75C0.715907 12.251 0.682301 12.2524 0.649414 12.2568C0.24045 11.1135 2.99709e-05 9.87312 0 8.53613C0 4.7013 2.90474 2 6.375 2C8.6927 2 10.2843 3.0621 11.2783 4.1084C11.5673 4.41264 11.8054 4.71749 12 4.99512C12.1946 4.71749 12.4327 4.41264 12.7217 4.1084C13.7157 3.0621 15.3073 2 17.625 2Z"
    fill="currentColor"
  />
</svg>
