<svg width="12" height="12" viewBox="0 0 12 12" fill="none" xmlns="http://www.w3.org/2000/svg" data-fui-icon="true">
  <path
    d="M8.5 1.2168C10.3487 1.2168 12 2.59314 12 4.63477C12 6.70251 10.7531 8.24018 9.55957 9.24316C8.35349 10.2567 7.04396 10.8623 6.56445 11.0664C6.20183 11.2207 5.79817 11.2207 5.43555 11.0664C4.95605 10.8623 3.64651 10.2567 2.44043 9.24316C1.24694 8.24018 2.45318e-05 6.70251 0 4.63477C2.82829e-06 2.59314 1.65131 1.2168 3.5 1.2168C4.63263 1.2168 5.45712 1.68935 6 2.17773C6.54288 1.68935 7.36737 1.2168 8.5 1.2168Z"
    fill="currentColor"
  />
</svg>
