<svg width="32" height="32" viewBox="0 0 32 32" fill="none" xmlns="http://www.w3.org/2000/svg" data-fui-icon="true">
  <path
    d="M16 1C16.8968 1 17.7677 1.3026 18.4707 1.85938L28.3203 9.66113C29.697 10.7517 30.4999 12.4116 30.5 14.168V26.75C30.5 28.5449 29.0449 30 27.25 30H21.5898C20.4357 29.9999 19.5001 29.0643 19.5 27.9102V21.5C19.5 19.567 17.933 18 16 18C14.067 18 12.5 19.567 12.5 21.5V27.9102C12.4999 29.0643 11.5643 29.9999 10.4102 30H4.75C2.95507 30 1.5 28.5449 1.5 26.75V14.168C1.50008 12.4116 2.30296 10.7517 3.67969 9.66113L13.5293 1.85938C14.2323 1.3026 15.1032 1 16 1ZM16 2.5C15.4414 2.5 14.8989 2.68837 14.4609 3.03516L4.61133 10.8369C3.59367 11.643 3.00008 12.8698 3 14.168V26.75C3 27.7165 3.7835 28.5 4.75 28.5H10.4102C10.7359 28.4999 10.9999 28.2359 11 27.9102V21.5C11 18.7386 13.2386 16.5 16 16.5C18.7614 16.5 21 18.7386 21 21.5V27.9102C21.0001 28.2359 21.2641 28.4999 21.5898 28.5H27.25C28.2165 28.5 29 27.7165 29 26.75V14.168C28.9999 12.8698 28.4063 11.643 27.3887 10.8369L17.5391 3.03516C17.1011 2.68837 16.5586 2.5 16 2.5Z"
    fill="currentColor"
  />
</svg>
