<svg width="20" height="20" viewBox="0 0 20 20" fill="none" xmlns="http://www.w3.org/2000/svg" data-fui-icon="true">
  <path
    fill-rule="evenodd"
    clip-rule="evenodd"
    d="M6.86719 2.20932C8.65101 0.614716 11.349 0.614715 13.1328 2.20932L17.6182 6.21909C18.4973 7.00504 19 8.12872 19 9.30795V15.6429C18.9998 17.4969 17.4966 19.0003 15.6426 19.0003H13.5703C12.6869 19.0003 11.9701 18.284 11.9697 17.4007V12.9701C11.9696 11.8822 11.0879 11.0003 10 11.0003C8.91208 11.0003 8.03041 11.8822 8.03027 12.9701V17.4007C8.02987 18.284 7.31309 19.0003 6.42969 19.0003H4.35742C2.50344 19.0003 1.00018 17.4969 1 15.6429V9.30795C1 8.12872 1.50272 7.00504 2.38184 6.21909L6.86719 2.20932Z"
    fill="currentColor"
  />
</svg>
