<svg width="20" height="20" viewBox="0 0 20 20" fill="none" xmlns="http://www.w3.org/2000/svg" data-fui-icon="true">
  <path
    d="M7.02832 2.15845C8.71905 0.641706 11.281 0.641707 12.9717 2.15845L17.707 6.40649C18.5299 7.14478 18.9999 8.19844 19 9.30396V15.8928C18.9999 17.6088 17.6086 19.0002 15.8926 19.0002H13.541C12.2592 19 11.2199 17.9608 11.2197 16.679V13.22C11.2196 12.5463 10.6737 12.0002 10 12.0002C9.3263 12.0002 8.78042 12.5463 8.78027 13.22V16.679C8.78012 17.9608 7.74079 19 6.45898 19.0002H4.10742C2.39144 19.0002 1.00008 17.6088 1 15.8928V9.30396C1.00011 8.19844 1.4701 7.14478 2.29297 6.40649L7.02832 2.15845ZM11.9697 3.27563C10.8489 2.27008 9.15111 2.27008 8.03027 3.27563L3.29492 7.52368C2.7893 7.97745 2.50011 8.62458 2.5 9.30396V15.8928C2.50008 16.7804 3.21987 17.5002 4.10742 17.5002H6.45898C6.91236 17.5 7.28012 17.1324 7.28027 16.679V13.22C7.28042 11.7179 8.49788 10.5002 10 10.5002C11.5021 10.5002 12.7196 11.7179 12.7197 13.22V16.679C12.7199 17.1323 13.0876 17.5 13.541 17.5002H15.8926C16.7801 17.5002 17.4999 16.7804 17.5 15.8928V9.30396C17.4999 8.62457 17.2107 7.97745 16.7051 7.52368L11.9697 3.27563Z"
    fill="currentColor"
  />
</svg>
