<svg width="12" height="12" viewBox="0 0 12 12" fill="none" xmlns="http://www.w3.org/2000/svg" data-fui-icon="true">
  <path
    fill-rule="evenodd"
    clip-rule="evenodd"
    d="M3.95004 0.769963C5.12964 -0.241111 6.8699 -0.241111 8.0495 0.769963L11.0396 3.33237C11.6488 3.85478 11.9995 4.61763 11.9995 5.42018V9.75009C11.9993 10.9925 10.9921 12 9.74963 12H8.75943C8.34005 11.9999 8.00007 11.6596 7.99969 11.2403V8.00016C7.99969 6.89563 7.1043 6.00023 5.99977 6.00023C4.89524 6.00023 3.99985 6.89563 3.99985 8.00016V11.2403C3.99948 11.6596 3.65953 11.9999 3.24011 12H2.24991C1.00747 12 0.000245603 10.9925 0 9.75009V5.42018C0 4.61763 0.350724 3.85479 0.959924 3.33237L3.95004 0.769963Z"
    fill="currentColor"
  />
</svg>
