<svg width="32" height="32" viewBox="0 0 32 32" fill="none" xmlns="http://www.w3.org/2000/svg" data-fui-icon="true">
  <path
    d="M16 1C16.8968 1 17.7677 1.3026 18.4707 1.85938L28.3203 9.66113C29.697 10.7517 30.4999 12.4116 30.5 14.168V26.75C30.5 28.5449 29.0449 30 27.25 30H23.0898C21.9357 29.9999 21.0001 29.0643 21 27.9102V23C21 20.2386 18.7614 18 16 18C13.2386 18 11 20.2386 11 23V27.9102C10.9999 29.0643 10.0643 29.9999 8.91016 30H4.75C2.95507 30 1.5 28.5449 1.5 26.75V14.168C1.50008 12.4116 2.30296 10.7517 3.67969 9.66113L13.5293 1.85938C14.2323 1.3026 15.1032 1 16 1Z"
    fill="currentColor"
  />
</svg>
