<svg width="12" height="12" viewBox="0 0 12 12" fill="none" xmlns="http://www.w3.org/2000/svg" data-fui-icon="true">
  <path
    d="M3.95003 0.769988C5.12963 -0.241083 6.86989 -0.241083 8.04948 0.769988L11.0396 3.33238C11.6488 3.8548 11.9995 4.61764 11.9995 5.42019V9.75009C11.9993 10.9925 10.992 12 9.7496 12H8.74964C7.78334 12 6.99996 11.2163 6.99972 10.2501V7.75017C6.99972 7.19791 6.55202 6.75021 5.99976 6.75021C5.44749 6.75021 4.9998 7.19791 4.9998 7.75017V10.2501C4.99955 11.2163 4.21618 12 3.24987 12H2.24991C1.00747 12 0.000245603 10.9925 0 9.75009V5.42019C0 4.61764 0.350723 3.8548 0.959922 3.33238L3.95003 0.769988ZM7.07393 1.90861C6.45605 1.379 5.54346 1.379 4.92558 1.90861L1.93644 4.47101C1.65954 4.70847 1.49994 5.0554 1.49994 5.42019V9.75009C1.50018 10.1641 1.83586 10.5001 2.24991 10.5001H3.24987C3.38778 10.5001 3.49961 10.3879 3.49986 10.2501V7.75017C3.49986 6.36952 4.6191 5.25027 5.99976 5.25027C7.38041 5.25027 8.49965 6.36952 8.49965 7.75017V10.2501C8.4999 10.3879 8.61173 10.5001 8.74964 10.5001H9.7496C10.1636 10.5001 10.4993 10.1641 10.4996 9.75009V5.42019C10.4996 5.0554 10.34 4.70847 10.0631 4.47101L7.07393 1.90861Z"
    fill="currentColor"
  />
</svg>
