<svg width="16" height="16" viewBox="0 0 16 16" fill="none" xmlns="http://www.w3.org/2000/svg" data-fui-icon="true">
  <path
    d="M5.36426 2.05981C6.85531 0.693017 9.14469 0.693015 10.6357 2.05981L13.9033 5.05493C14.6018 5.69531 15 6.60046 15 7.5481V12.2141C14.9998 13.7525 13.7523 15.0002 12.2139 15.0002H11.2998C10.5821 15.0001 10.0002 14.4181 10 13.7004V10.0002C9.99999 8.89569 9.10456 8.00024 8 8.00024C6.89544 8.00024 6.00001 8.89569 6 10.0002V13.7004C5.99975 14.4181 5.41792 15.0001 4.7002 15.0002H3.78613C2.24772 15.0002 1.00016 13.7525 1 12.2141V7.5481C1 6.60046 1.39817 5.69531 2.09668 5.05493L5.36426 2.05981Z"
    fill="currentColor"
  />
</svg>
