<svg width="32" height="32" viewBox="0 0 32 32" fill="none" xmlns="http://www.w3.org/2000/svg" data-fui-icon="true">
  <path
    d="M11.25 2.81738C13.9408 0.362895 18.0592 0.362894 20.75 2.81738L28.9854 10.3301C30.2686 11.5007 30.9999 13.1575 31 14.8945V26.1787C30.9999 28.8414 28.8414 30.9999 26.1787 31H22.25C21.0074 31 20 29.9926 20 28.75V21C20 18.7909 18.2091 17 16 17C13.7909 17 12 18.7909 12 21V28.75C12 29.9926 10.9926 31 9.75 31H5.82129C3.1586 30.9999 1.00008 28.8414 1 26.1787V14.8945C1.00007 13.1575 1.73136 11.5007 3.01465 10.3301L11.25 2.81738Z"
    fill="currentColor"
  />
</svg>
