<svg width="20" height="20" viewBox="0 0 20 20" fill="none" xmlns="http://www.w3.org/2000/svg" data-fui-icon="true">
  <path
    fill-rule="evenodd"
    clip-rule="evenodd"
    d="M7.02832 2.15822C8.71905 0.641474 11.281 0.641476 12.9717 2.15822L17.707 6.40626C18.5299 7.14455 18.9999 8.19821 19 9.30372V15.8926C18.9999 17.6086 17.6086 19 15.8926 19H13.3496C12.6044 18.9998 12.0003 18.3956 12 17.6504V13C12 11.8954 11.1046 11 10 11C8.89543 11 8 11.8954 8 13V17.6504C7.99971 18.3956 7.39562 18.9998 6.65039 19H4.10742C2.39144 19 1.00008 17.6086 1 15.8926V9.30372C1.00011 8.19821 1.4701 7.14455 2.29297 6.40626L7.02832 2.15822Z"
    fill="currentColor"
  />
</svg>
