<svg width="32" height="32" viewBox="0 0 32 32" fill="none" xmlns="http://www.w3.org/2000/svg" data-fui-icon="true">
  <path
    d="M11.0518 2.90381C13.8565 0.350067 18.1435 0.35007 20.9482 2.90381L28.8994 10.144C30.2371 11.3621 30.9999 13.0878 31 14.897V25.9282C30.9999 28.729 28.7295 30.9994 25.9287 30.9995H22.5C21.1193 30.9995 20 29.8802 20 28.4995V20.9995C19.9997 18.7906 18.209 16.9995 16 16.9995C13.791 16.9995 12.0003 18.7906 12 20.9995V28.4995C12 29.8802 10.8807 30.9995 9.5 30.9995H6.07129C3.27053 30.9994 1.00008 28.729 1 25.9282V14.897C1.00015 13.0878 1.76294 11.3621 3.10059 10.144L11.0518 2.90381Z"
    fill="currentColor"
  />
</svg>
