<svg width="12" height="12" viewBox="0 0 12 12" fill="none" xmlns="http://www.w3.org/2000/svg" data-fui-icon="true">
  <path
    fill-rule="evenodd"
    clip-rule="evenodd"
    d="M3.79785 0.809406C5.06751 -0.269801 6.93249 -0.269803 8.20215 0.809406L10.9434 3.13851C11.6139 3.70849 12 4.54458 12 5.42464V9.49984C12 10.8805 10.8807 11.9998 9.5 11.9998H8.5C7.39543 11.9998 6.5 11.1044 6.5 9.99984V7.99984C6.5 7.72369 6.27614 7.49984 6 7.49984C5.72386 7.49984 5.5 7.72369 5.5 7.99984V9.99984C5.5 11.1044 4.60457 11.9998 3.5 11.9998H2.5C1.11929 11.9998 0 10.8805 0 9.49984V5.42464C2.23333e-05 4.54458 0.386102 3.70849 1.05664 3.13851L3.79785 0.809406ZM6.90625 2.33284C6.38357 1.88884 5.61643 1.88884 5.09375 2.33284L2.35254 4.66292C2.12903 4.85291 2.00002 5.1313 2 5.42464V9.49984C2 9.77598 2.22386 9.99984 2.5 9.99984H3.5V7.99984C3.5 6.61912 4.61929 5.49984 6 5.49984C7.38071 5.49984 8.5 6.61912 8.5 7.99984V9.99984H9.5C9.77614 9.99984 10 9.77598 10 9.49984V5.42464C9.99998 5.1313 9.87097 4.85291 9.64746 4.66292L6.90625 2.33284Z"
    fill="currentColor"
  />
</svg>
