<svg width="16" height="16" viewBox="0 0 16 16" fill="none" xmlns="http://www.w3.org/2000/svg" data-fui-icon="true">
  <path
    fill-rule="evenodd"
    clip-rule="evenodd"
    d="M5.5625 1.92857C6.94919 0.684822 9.05081 0.684821 10.4375 1.92857L13.96 5.08873C14.6218 5.68252 14.9999 6.5306 15 7.41978V12.4637C15 13.8642 13.8643 14.9999 12.4639 14.9999H11.25C10.5596 14.9999 10 14.4402 10 13.7499V9.99986C9.99981 8.89545 9.10445 7.99986 8 7.99986C6.89555 7.99986 6.00019 8.89545 6 9.99986V13.7499C6 14.4402 5.44036 14.9999 4.75 14.9999H3.53613C2.1357 14.9999 1 13.8642 1 12.4637V7.41978C1.0001 6.5306 1.37817 5.68252 2.04004 5.08873L5.5625 1.92857Z"
    fill="currentColor"
  />
</svg>
