<svg width="16" height="16" viewBox="0 0 16 16" fill="none" xmlns="http://www.w3.org/2000/svg" data-fui-icon="true">
  <path
    fill-rule="evenodd"
    clip-rule="evenodd"
    d="M5.5625 1.92857C6.94919 0.684822 9.05081 0.684821 10.4375 1.92857L13.96 5.08873C14.6218 5.68252 14.9999 6.5306 15 7.41978V12.4637C15 13.8642 13.8643 14.9999 12.4639 14.9999H10.9404C9.86877 14.9998 9.00002 14.1311 9 13.0594V9.74986C8.99981 9.19773 8.55217 8.74986 8 8.74986C7.44783 8.74986 7.00019 9.19773 7 9.74986V13.0594C6.99997 14.1311 6.13123 14.9998 5.05957 14.9999H3.53613C2.1357 14.9999 1 13.8642 1 12.4637V7.41978C1.0001 6.5306 1.37817 5.68252 2.04004 5.08873L5.5625 1.92857ZM9.43555 3.04576C8.61872 2.3131 7.38128 2.3131 6.56445 3.04576L3.04199 6.20591C2.69728 6.51519 2.5001 6.95667 2.5 7.41978V12.4637C2.5 13.0357 2.96412 13.4999 3.53613 13.4999H5.05957C5.3028 13.4998 5.49997 13.3027 5.5 13.0594V9.74986C5.50019 8.36931 6.6194 7.24986 8 7.24986C9.3806 7.24986 10.4998 8.36931 10.5 9.74986V13.0594C10.5 13.3027 10.6972 13.4998 10.9404 13.4999H12.4639C13.0359 13.4999 13.5 13.0357 13.5 12.4637V7.41978C13.4999 6.95667 13.3027 6.51519 12.958 6.20591L9.43555 3.04576Z"
    fill="currentColor"
  />
</svg>
