<svg width="12" height="12" viewBox="0 0 12 12" fill="none" xmlns="http://www.w3.org/2000/svg" data-fui-icon="true">
  <path
    d="M0.75 5.41987C0.75 4.83602 1.00513 4.28132 1.44842 3.90136L4.4381 1.33877C5.33688 0.568392 6.66312 0.568392 7.5619 1.33877L10.5516 3.90136C10.9949 4.28132 11.25 4.83602 11.25 5.41987V9.75C11.25 10.5784 10.5784 11.25 9.75 11.25H8.75C8.19772 11.25 7.75 10.8023 7.75 10.25V7.75C7.75 6.7835 6.9665 6 6 6C5.0335 6 4.25 6.7835 4.25 7.75V10.25C4.25 10.8023 3.80228 11.25 3.25 11.25H2.25C1.42157 11.25 0.75 10.5784 0.75 9.75V5.41987Z"
    stroke="currentColor"
    stroke-width="1.5"
  />
</svg>
