<svg width="12" height="12" viewBox="0 0 12 12" fill="none" xmlns="http://www.w3.org/2000/svg" data-fui-icon="true">
  <path
    fill-rule="evenodd"
    clip-rule="evenodd"
    d="M3.95004 0.769963C5.12964 -0.241111 6.8699 -0.241111 8.0495 0.769963L11.0396 3.33237C11.6488 3.85478 11.9995 4.61763 11.9995 5.42018V9.75009C11.9993 10.9925 10.9921 12 9.74963 12H8.74967C7.78336 12 6.99998 11.2163 6.99973 10.2501V7.75017C6.99973 7.1979 6.55203 6.7502 5.99977 6.7502C5.44751 6.7502 4.99981 7.1979 4.99981 7.75017V10.2501C4.99956 11.2163 4.21619 12 3.24988 12H2.24991C1.00747 12 0.000245603 10.9925 0 9.75009V5.42018C0 4.61763 0.350724 3.85479 0.959924 3.33237L3.95004 0.769963ZM7.07395 1.90859C6.45606 1.37898 5.54348 1.37898 4.92559 1.90859L1.93645 4.47099C1.65954 4.70846 1.49994 5.05538 1.49994 5.42018V9.75009C1.50019 10.1641 1.83587 10.5001 2.24991 10.5001H3.24988C3.38779 10.5001 3.49962 10.3879 3.49987 10.2501V7.75017C3.49987 6.36951 4.61911 5.25026 5.99977 5.25026C7.38043 5.25026 8.49968 6.36951 8.49968 7.75017V10.2501C8.49992 10.3879 8.61175 10.5001 8.74967 10.5001H9.74963C10.1637 10.5001 10.4994 10.1641 10.4996 9.75009V5.42018C10.4996 5.05538 10.34 4.70846 10.0631 4.47099L7.07395 1.90859Z"
    fill="currentColor"
  />
</svg>
