<svg width="24" height="24" viewBox="0 0 24 24" fill="none" xmlns="http://www.w3.org/2000/svg" data-fui-icon="true">
  <path
    d="M2 11.2261C2 10.1267 2.46352 9.07813 3.27669 8.33815L8.93766 3.18665C10.6736 1.60691 13.3264 1.60691 15.0623 3.18665L20.7233 8.33815C21.5365 9.07813 22 10.1267 22 11.2261V19.0713C22 20.6887 20.6888 21.9999 19.0714 21.9999H16.9524C15.8741 21.9999 15 21.1258 15 20.0475V15.9999C15 14.3431 13.6569 12.9999 12 12.9999C10.3431 12.9999 9 14.3431 9 15.9999V20.0475C9 21.1258 8.12589 21.9999 7.04762 21.9999H4.92857C3.31117 21.9999 2 20.6887 2 19.0713V11.2261Z"
    stroke="currentColor"
    stroke-width="2"
  />
</svg>
