<svg width="20" height="20" viewBox="0 0 20 20" fill="none" xmlns="http://www.w3.org/2000/svg" data-fui-icon="true">
  <path
    d="M6.86719 2.20923C8.65101 0.614625 11.349 0.614623 13.1328 2.20923L17.6182 6.21899C18.4973 7.00494 19 8.12863 19 9.30786V15.6428C18.9998 17.4968 17.4966 19.0002 15.6426 19.0002H13.541C12.1212 19 10.97 17.8487 10.9697 16.429V12.97C10.9696 12.4344 10.5356 12.0002 10 12.0002C9.46437 12.0002 9.03041 12.4344 9.03027 12.97V16.429C9.03 17.8487 7.87879 19 6.45898 19.0002H4.35742C2.50344 19.0002 1.00018 17.4968 1 15.6428V9.30786C1 8.12863 1.50272 7.00494 2.38184 6.21899L6.86719 2.20923ZM11.7998 3.70044C10.7751 2.78439 9.22495 2.78439 8.2002 3.70044L3.71484 7.71021C3.26018 8.11673 3 8.69795 3 9.30786V15.6428C3.00018 16.3922 3.608 17.0002 4.35742 17.0002H6.45898C6.77422 17 7.03 16.7442 7.03027 16.429V12.97C7.03041 11.3298 8.3598 10.0002 10 10.0002C11.6402 10.0002 12.9696 11.3298 12.9697 12.97V16.429C12.97 16.7442 13.2258 17 13.541 17.0002H15.6426C16.392 17.0002 16.9998 16.3922 17 15.6428V9.30786C17 8.69795 16.7398 8.11673 16.2852 7.71021L11.7998 3.70044Z"
    fill="currentColor"
  />
</svg>
