<svg width="12" height="12" viewBox="0 0 12 12" fill="none" xmlns="http://www.w3.org/2000/svg" data-fui-icon="true">
  <path
    d="M0.99998 5.42501C0.99998 4.83829 1.25762 4.28116 1.70467 3.90117L4.44555 1.57142C5.34176 0.809638 6.65799 0.809636 7.5542 1.57142L10.2951 3.90117C10.7421 4.28116 10.9998 4.83829 10.9998 5.42501V9.50005C10.9998 10.3285 10.3282 11 9.49981 11H8.49983C7.94755 11 7.49985 10.5523 7.49985 10V8.00008C7.49985 7.17167 6.82829 6.50011 5.99988 6.50011C5.17147 6.50011 4.49991 7.17167 4.49991 8.00008V10C4.49991 10.5523 4.0522 11 3.49993 11H2.49995C1.67154 11 0.99998 10.3285 0.99998 9.50005V5.42501Z"
    stroke="currentColor"
    stroke-width="2"
  />
</svg>
