<svg width="12" height="12" viewBox="0 0 12 12" fill="none" xmlns="http://www.w3.org/2000/svg" data-fui-icon="true">
  <path
    d="M3.95003 0.769988C5.12963 -0.241083 6.86989 -0.241083 8.04948 0.769988L11.0396 3.33238C11.6488 3.8548 11.9995 4.61764 11.9995 5.42019V9.75009C11.9993 10.9925 10.992 12 9.7496 12H8.75941C8.34003 11.9999 8.00005 11.6596 7.99967 11.2403V8.00016C7.99967 6.89564 7.10428 6.00024 5.99976 6.00024C4.89523 6.00024 3.99984 6.89564 3.99984 8.00016V11.2403C3.99947 11.6596 3.65952 11.9999 3.2401 12H2.24991C1.00747 12 0.000245603 10.9925 0 9.75009V5.42019C0 4.61764 0.350723 3.8548 0.959922 3.33238L3.95003 0.769988Z"
    fill="currentColor"
  />
</svg>
