<svg width="12" height="12" viewBox="0 0 12 12" fill="none" xmlns="http://www.w3.org/2000/svg" data-fui-icon="true">
  <path
    d="M6 0C6.47442 0 6.93542 0.159198 7.30859 0.452148L11.3232 3.60352C11.7507 3.93906 12 4.4527 12 4.99609V10.7402C11.9999 11.4359 11.4359 11.9999 10.7402 12H8.36914C7.88922 11.9998 7.50022 11.6108 7.5 11.1309V8.75C7.5 7.92157 6.82843 7.25 6 7.25C5.17157 7.25 4.5 7.92157 4.5 8.75V11.1309C4.49978 11.6108 4.11077 11.9998 3.63086 12H1.25977C0.564066 11.9999 0.000115939 11.4359 0 10.7402V4.99609C0 4.4527 0.249349 3.93906 0.676758 3.60352L4.69141 0.452148C5.06458 0.159199 5.52558 0 6 0Z"
    fill="currentColor"
  />
</svg>
