<svg width="12" height="12" viewBox="0 0 12 12" fill="none" xmlns="http://www.w3.org/2000/svg" data-fui-icon="true">
  <path
    d="M6 0C6.47442 0 6.93542 0.159199 7.30859 0.452148L10.9482 3.30957C11.6123 3.8309 12 4.62843 12 5.47266V10.25C12 11.2165 11.2165 12 10.25 12H7.86328C7.38651 12 7 11.6135 7 11.1367V8.5C7 7.94771 6.55228 7.5 6 7.5C5.44771 7.5 5 7.94772 5 8.5V11.1367C5 11.6135 4.61349 12 4.13672 12H1.75C0.783502 12 0 11.2165 0 10.25V5.47266C0 4.62843 0.387737 3.8309 1.05176 3.30957L4.69141 0.452148C5.06458 0.159199 5.52558 0 6 0ZM6 1.5C5.86156 1.5 5.7271 1.54641 5.61816 1.63184L1.97852 4.48926C1.67666 4.72623 1.5 5.08889 1.5 5.47266V10.25C1.5 10.3881 1.61193 10.5 1.75 10.5H3.5V8.5C3.5 7.11929 4.61929 6 6 6C7.38071 6 8.5 7.11929 8.5 8.5V10.5H10.25C10.3881 10.5 10.5 10.3881 10.5 10.25V5.47266C10.5 5.08889 10.3233 4.72623 10.0215 4.48926L6.38184 1.63184C6.2729 1.54641 6.13844 1.5 6 1.5Z"
    fill="currentColor"
  />
</svg>
