<svg width="12" height="12" viewBox="0 0 12 12" fill="none" xmlns="http://www.w3.org/2000/svg" data-fui-icon="true">
  <path
    d="M6 0C6.47442 0 6.93542 0.159198 7.30859 0.452148L11.1396 3.45996C11.6828 3.88651 12 4.53886 12 5.22949V10.25C12 11.2165 11.2165 12 10.25 12H8.87598C8.39225 12 8 11.6078 8 11.124V9C8 7.89543 7.10457 7 6 7C4.89543 7 4 7.89543 4 9V11.124C4 11.6077 3.60775 12 3.12402 12H1.75C0.783502 12 0 11.2165 0 10.25V5.22949C0 4.53886 0.317205 3.88651 0.860352 3.45996L4.69141 0.452148C5.06458 0.159199 5.52558 0 6 0Z"
    fill="currentColor"
  />
</svg>
