<svg width="24" height="24" viewBox="0 0 24 24" fill="none" xmlns="http://www.w3.org/2000/svg" data-fui-icon="true">
  <path
    fill-rule="evenodd"
    clip-rule="evenodd"
    d="M8.44141 2.38086C10.4573 0.541992 13.5427 0.541993 15.5586 2.38086L21.4824 7.78516C22.449 8.66708 23 9.91516 23 11.2236V19.3223C22.9996 21.3536 21.3527 23 19.3213 23H16.75C15.7836 23 15.0001 22.2164 15 21.25V16C14.9998 14.3433 13.6567 13 12 13C10.3433 13 9.00021 14.3433 9 16V21.25C8.99987 22.2164 8.21642 23 7.25 23H4.67871C2.64732 23 1.00037 21.3536 1 19.3223V11.2236C1.00004 9.91516 1.55099 8.66708 2.51758 7.78516L8.44141 2.38086Z"
    fill="currentColor"
  />
</svg>
