<svg width="20" height="20" viewBox="0 0 20 20" fill="none" xmlns="http://www.w3.org/2000/svg" data-fui-icon="true">
  <path
    d="M1.75 9.30412C1.75 8.41143 2.12962 7.56086 2.79409 6.96473L7.52918 2.71668C8.93498 1.45547 11.065 1.45547 12.4708 2.71668L17.2059 6.96473C17.8704 7.56086 18.25 8.41143 18.25 9.30412V15.8929C18.25 17.1947 17.1947 18.25 15.8929 18.25H13.5414C12.6736 18.25 11.97 17.5464 11.97 16.6786V13.22C11.97 12.132 11.088 11.25 10 11.25C8.912 11.25 8.03 12.132 8.03 13.22V16.6786C8.03 17.5464 7.32645 18.25 6.45857 18.25H4.10714C2.80533 18.25 1.75 17.1947 1.75 15.8929V9.30412Z"
    stroke="currentColor"
    stroke-width="1.5"
  />
</svg>
