<svg width="24" height="24" viewBox="0 0 24 24" fill="none" xmlns="http://www.w3.org/2000/svg" data-fui-icon="true">
  <path
    d="M8.44141 2.38062C10.4573 0.541749 13.5427 0.54175 15.5586 2.38062L21.4824 7.78491C22.449 8.66683 23 9.91491 23 11.2234V19.322C22.9996 21.3533 21.3527 22.9998 19.3213 22.9998H16.7021C15.2099 22.9996 14.0001 21.7899 14 20.2976V15.9998C13.9998 14.8954 13.1044 13.9998 12 13.9998C10.8956 13.9998 10.0002 14.8954 10 15.9998V20.2976C9.99987 21.7899 8.79015 22.9996 7.29785 22.9998H4.67871C2.64732 22.9998 1.00037 21.3533 1 19.322V11.2234C1.00004 9.91491 1.55099 8.66683 2.51758 7.78491L8.44141 2.38062ZM14.5479 3.48901C13.1047 2.17255 10.8953 2.17255 9.45215 3.48901L3.52832 8.89233C2.87314 9.49005 2.50004 10.3365 2.5 11.2234V19.322C2.50037 20.5249 3.47575 21.4998 4.67871 21.4998H7.29785C7.96172 21.4996 8.49987 20.9615 8.5 20.2976V15.9998C8.50021 14.0669 10.0671 12.4998 12 12.4998C13.9329 12.4998 15.4998 14.0669 15.5 15.9998V20.2976C15.5001 20.9615 16.0383 21.4996 16.7021 21.4998H19.3213C20.5243 21.4998 21.4996 20.5249 21.5 19.322V11.2234C21.5 10.3365 21.1269 9.49005 20.4717 8.89233L14.5479 3.48901Z"
    fill="currentColor"
  />
</svg>
