<svg width="16" height="16" viewBox="0 0 16 16" fill="none" xmlns="http://www.w3.org/2000/svg" data-fui-icon="true">
  <path
    d="M8 0C8.5762 0 9.13465 0.199144 9.58105 0.563477L14.7393 4.77246C15.2209 5.16559 15.5 5.75523 15.5 6.37695V13.5898C15.5 14.3686 14.8686 15 14.0898 15H11.4102C10.6314 15 10 14.3686 10 13.5898V11C9.99999 9.89544 9.10456 9 8 9C6.89544 9 6.00001 9.89544 6 11V13.5898C6 14.3686 5.36857 15 4.58984 15H1.91016C1.13143 15 0.5 14.3686 0.5 13.5898V6.37695C0.5 5.75523 0.779096 5.16559 1.26074 4.77246L6.41895 0.563477C6.86535 0.199144 7.4238 0 8 0ZM8 1.5C7.76943 1.5 7.54581 1.5798 7.36719 1.72559L2.20996 5.93457C2.07732 6.04282 2 6.20575 2 6.37695V13.5H4.5V11C4.50001 9.06701 6.06701 7.5 8 7.5C9.93299 7.5 11.5 9.06701 11.5 11V13.5H14V6.37695C14 6.20575 13.9227 6.04282 13.79 5.93457L8.63281 1.72559C8.45419 1.5798 8.23057 1.5 8 1.5Z"
    fill="currentColor"
  />
</svg>
