<svg width="24" height="24" viewBox="0 0 24 24" fill="none" xmlns="http://www.w3.org/2000/svg" data-fui-icon="true">
  <path
    d="M8.44141 2.38062C10.4573 0.541749 13.5427 0.54175 15.5586 2.38062L21.4824 7.78491C22.449 8.66683 23 9.91491 23 11.2234V19.322C22.9996 21.3533 21.3527 22.9998 19.3213 22.9998H16.75C15.7836 22.9998 15.0001 22.2161 15 21.2498V15.9998C14.9998 14.3431 13.6567 12.9998 12 12.9998C10.3433 12.9998 9.00021 14.3431 9 15.9998V21.2498C8.99987 22.2161 8.21642 22.9998 7.25 22.9998H4.67871C2.64732 22.9998 1.00037 21.3533 1 19.322V11.2234C1.00004 9.91491 1.55099 8.66683 2.51758 7.78491L8.44141 2.38062Z"
    fill="currentColor"
  />
</svg>
