<svg width="16" height="16" viewBox="0 0 16 16" fill="none" xmlns="http://www.w3.org/2000/svg" data-fui-icon="true">
  <path
    d="M1.75 7.41979C1.75 6.74351 2.03759 6.09913 2.54098 5.64752L6.06341 2.4874C7.16525 1.49889 8.83474 1.49889 9.93659 2.4874L13.459 5.64752C13.9624 6.09913 14.25 6.74351 14.25 7.41979V12.4643C14.25 13.4505 13.4505 14.25 12.4643 14.25H10.9405C10.283 14.25 9.75 13.717 9.75 13.0595V9.75C9.75 8.7835 8.9665 8 8 8C7.0335 8 6.25 8.7835 6.25 9.75V13.0595C6.25 13.717 5.71701 14.25 5.05952 14.25H3.53571C2.54949 14.25 1.75 13.4505 1.75 12.4643V7.41979Z"
    stroke="currentColor"
    stroke-width="1.5"
  />
</svg>
