<svg width="16" height="16" viewBox="0 0 16 16" fill="none" xmlns="http://www.w3.org/2000/svg" data-fui-icon="true">
  <path
    d="M8 0C8.5762 0 9.13465 0.199144 9.58105 0.563477L14.4893 4.56836C15.1291 5.09062 15.5 5.87328 15.5 6.69922V12.75C15.5 13.9926 14.4926 15 13.25 15H11.4102C10.6314 15 10 14.3686 10 13.5898V11C9.99999 9.89544 9.10456 9 8 9C6.89544 9 6.00001 9.89544 6 11V13.5898C6 14.3686 5.36856 15 4.58984 15H2.75C1.50736 15 0.5 13.9926 0.5 12.75V6.69922C0.500015 5.87328 0.87088 5.09062 1.51074 4.56836L6.41895 0.563477C6.86535 0.199144 7.4238 0 8 0Z"
    fill="currentColor"
  />
</svg>
