<svg width="32" height="32" viewBox="0 0 32 32" fill="none" xmlns="http://www.w3.org/2000/svg" data-fui-icon="true">
  <path
    d="M2 14.8975C2 13.3696 2.64387 11.9125 3.77354 10.8837L11.7246 3.64331C14.1478 1.43668 17.8522 1.43668 20.2754 3.64331L28.2265 10.8837C29.3561 11.9125 30 13.3696 30 14.8975V25.9286C30 28.1772 28.1772 30 25.9286 30H22.7143C21.2152 30 20 28.7848 20 27.2857V21C20 18.7909 18.2091 17 16 17C13.7909 17 12 18.7909 12 21V27.2857C12 28.7848 10.7848 30 9.28571 30H6.07143C3.82284 30 2 28.1772 2 25.9286V14.8975Z"
    stroke="currentColor"
    stroke-width="2"
  />
</svg>
