<svg width="12" height="12" viewBox="0 0 12 12" fill="none" xmlns="http://www.w3.org/2000/svg" data-fui-icon="true">
  <path
    fill-rule="evenodd"
    clip-rule="evenodd"
    d="M8.99966 0.25C9.93629 0.250187 10.8156 1.0327 10.6881 2.08984C10.5814 2.9748 10.3401 3.64912 10.0104 4.17871C9.67997 4.70941 9.28535 5.05512 8.93521 5.30957C8.76769 5.43128 8.59828 5.53996 8.4733 5.62305C8.3372 5.71353 8.24695 5.7777 8.18033 5.83594C8.07991 5.92383 8.08267 5.94734 8.08267 6C8.08267 6.05266 8.07991 6.07617 8.18033 6.16406C8.24695 6.2223 8.3372 6.28647 8.4733 6.37695C8.59828 6.46004 8.76769 6.56872 8.93521 6.69043C9.28535 6.94488 9.67997 7.29059 10.0104 7.82129C10.3401 8.35088 10.5814 9.0252 10.6881 9.91016C10.8156 10.9673 9.93629 11.7498 8.99966 11.75H2.99966C2.0629 11.75 1.18371 10.9674 1.31119 9.91016C1.41797 9.02514 1.65917 8.3509 1.98892 7.82129C2.31941 7.29057 2.71395 6.94488 3.06412 6.69043C3.23167 6.56871 3.40108 6.46002 3.52603 6.37695C3.66213 6.28646 3.7524 6.22232 3.819 6.16406C3.91923 6.07631 3.91666 6.05263 3.91666 6C3.91666 5.94737 3.91923 5.92369 3.819 5.83594C3.7524 5.77768 3.66213 5.71354 3.52603 5.62305C3.40108 5.53998 3.23167 5.43129 3.06412 5.30957C2.71395 5.05512 2.31941 4.70943 1.98892 4.17871C1.65917 3.6491 1.41797 2.97486 1.31119 2.08984C1.18371 1.03256 2.0629 0.25 2.99966 0.25H8.99966ZM2.99966 1.75C2.92856 1.75 2.8705 1.7795 2.8356 1.81543C2.80458 1.84756 2.79655 1.87755 2.80045 1.91016C2.8854 2.61431 3.06665 3.07142 3.26236 3.38574C3.4573 3.69878 3.69144 3.91076 3.94595 4.0957C4.08033 4.19333 4.20787 4.27482 4.35709 4.37402C4.49525 4.46589 4.65832 4.5776 4.8063 4.70703C5.13492 4.9946 5.41666 5.40023 5.41666 6C5.41666 6.59977 5.13492 7.0054 4.8063 7.29297C4.65832 7.4224 4.49525 7.53411 4.35709 7.62598C4.20787 7.72518 4.08033 7.80667 3.94595 7.9043C3.69144 8.08924 3.4573 8.30122 3.26236 8.61426C3.06665 8.92858 2.8854 9.38569 2.80045 10.0898C2.79655 10.1225 2.80458 10.1524 2.8356 10.1846C2.8705 10.2205 2.92856 10.25 2.99966 10.25H8.99966C9.07073 10.2499 9.1289 10.2205 9.16373 10.1846C9.19461 10.1525 9.20277 10.1224 9.19888 10.0898C9.11394 9.38578 8.93264 8.92858 8.73697 8.61426C8.54207 8.30123 8.30785 8.08923 8.05338 7.9043C7.91898 7.80665 7.79144 7.72516 7.64224 7.62598C7.50409 7.53412 7.34104 7.4224 7.19302 7.29297C6.86433 7.00539 6.58267 6.59988 6.58267 6C6.58267 5.40012 6.86433 4.99461 7.19302 4.70703C7.34104 4.5776 7.50409 4.46588 7.64224 4.37402C7.79144 4.27484 7.91898 4.19335 8.05338 4.0957C8.30785 3.91077 8.54207 3.69877 8.73697 3.38574C8.93264 3.07142 9.11394 2.61422 9.19888 1.91016C9.20277 1.87762 9.19461 1.84748 9.16373 1.81543C9.1289 1.77948 9.07073 1.75009 8.99966 1.75H2.99966ZM7.61685 2.31055C7.89282 2.31059 8.11908 2.54141 8.01041 2.79492C7.77961 3.3317 7.20137 3.83587 6.54849 4.19629C6.20675 4.38493 5.7916 4.38493 5.44986 4.19629C4.79708 3.83587 4.21871 3.33163 3.98795 2.79492C3.87943 2.54154 4.10571 2.31076 4.3815 2.31055H7.61685Z"
    fill="currentColor"
  />
</svg>
