<svg width="24" height="24" viewBox="0 0 24 24" fill="none" xmlns="http://www.w3.org/2000/svg" data-fui-icon="true">
  <path
    fill-rule="evenodd"
    clip-rule="evenodd"
    d="M17.9992 1.65039C19.0658 1.6505 19.9832 2.53179 19.9103 3.6543C19.7932 5.456 19.4201 6.78518 18.8957 7.80273C18.3681 8.82616 17.7076 9.49434 17.0822 9.99707C16.7763 10.2429 16.4739 10.4527 16.2199 10.6318C15.956 10.8179 15.7499 10.9672 15.5822 11.1182C15.2825 11.3881 15.1487 11.6183 15.1486 12C15.1487 12.3819 15.2822 12.6128 15.5822 12.8828C15.75 13.0338 15.9558 13.183 16.2199 13.3691C16.4741 13.5483 16.7762 13.7579 17.0822 14.0039C17.7077 14.5067 18.368 15.1746 18.8957 16.1982C19.4201 17.2159 19.7933 18.5448 19.9103 20.3467C19.983 21.469 19.0657 22.3505 17.9992 22.3506H5.99918C4.9328 22.3504 4.01539 21.4689 4.08805 20.3467C4.20509 18.545 4.57831 17.2158 5.1027 16.1982C5.63015 15.1749 6.28992 14.5067 6.9152 14.0039C7.22099 13.7581 7.52344 13.5483 7.77751 13.3691C8.04155 13.183 8.24837 13.0338 8.41618 12.8828C8.71616 12.6128 8.84871 12.3819 8.84879 12C8.8487 11.6182 8.71609 11.3882 8.41618 11.1182C8.2483 10.967 8.04175 10.8181 7.77751 10.6318C7.52335 10.4526 7.22117 10.243 6.9152 9.99707C6.28981 9.4943 5.63027 8.82621 5.1027 7.80273C4.5782 6.78515 4.20515 5.45611 4.08805 3.6543C4.01515 2.53186 4.93268 1.65061 5.99918 1.65039H17.9992ZM5.99918 3.15039C5.74065 3.15061 5.57219 3.35665 5.58512 3.55664C5.69191 5.20025 6.02543 6.31913 6.43571 7.11523C6.84298 7.90533 7.34648 8.41883 7.85563 8.82812C8.11677 9.03802 8.37569 9.21699 8.64274 9.40527C8.89965 9.58641 9.17564 9.78382 9.41911 10.0029C9.94199 10.4737 10.3487 11.082 10.3488 12C10.3487 12.918 9.94199 13.5263 9.41911 13.9971C9.17575 14.2161 8.89955 14.4137 8.64274 14.5947C8.37578 14.7829 8.11669 14.963 7.85563 15.1729C7.34658 15.5821 6.8429 16.0958 6.43571 16.8857C6.02555 17.6819 5.69186 18.801 5.58512 20.4443C5.57255 20.6441 5.7409 20.8504 5.99918 20.8506H17.9992C18.2576 20.8505 18.4258 20.6442 18.4132 20.4443C18.3065 18.8006 17.972 17.6819 17.5617 16.8857C17.1544 16.0956 16.6519 15.5822 16.1427 15.1729C15.8815 14.9629 15.6228 14.7831 15.3556 14.5947C15.0986 14.4135 14.8218 14.2163 14.5783 13.9971C14.0555 13.5264 13.6487 12.9178 13.6486 12C13.6487 11.0823 14.0556 10.4736 14.5783 10.0029C14.8217 9.78379 15.0987 9.58643 15.3556 9.40527C15.6226 9.21705 15.8817 9.03794 16.1427 8.82812C16.6518 8.41888 17.1544 7.90518 17.5617 7.11523C17.972 6.31912 18.3064 5.20039 18.4132 3.55664C18.4262 3.35661 18.2578 3.15049 17.9992 3.15039H5.99918ZM15.5978 5.3252C15.9292 5.3252 16.2044 5.59785 16.1154 5.91699C15.7536 7.2139 14.2719 8.45161 12.6574 9.23438C12.2416 9.43578 11.7567 9.43589 11.341 9.23438C9.72648 8.45161 8.24482 7.2139 7.88297 5.91699C7.79412 5.59801 8.06941 5.3254 8.40055 5.3252H15.5978Z"
    fill="currentColor"
  />
</svg>
