<svg width="20" height="20" viewBox="0 0 20 20" fill="none" xmlns="http://www.w3.org/2000/svg" data-fui-icon="true">
  <path
    d="M15 1.25C15.9561 1.25013 16.7825 2.04047 16.7168 3.05273C16.6184 4.56765 16.305 5.69303 15.8584 6.55957C15.4087 7.43193 14.8453 8.00097 14.3145 8.42773C14.0557 8.63573 13.8006 8.81334 13.5898 8.96191C13.3691 9.11752 13.2029 9.23722 13.0693 9.35742C12.8378 9.56582 12.75 9.72627 12.75 10C12.75 10.2737 12.8378 10.4342 13.0693 10.6426C13.2029 10.7628 13.3691 10.8825 13.5898 11.0381C13.8006 11.1867 14.0557 11.3643 14.3145 11.5723C14.8453 11.999 15.4087 12.5681 15.8584 13.4404C16.305 14.307 16.6184 15.4323 16.7168 16.9473C16.7825 17.9595 15.9561 18.7499 15 18.75H5C4.04378 18.75 3.21745 17.9596 3.2832 16.9473C3.3816 15.4323 3.69495 14.307 4.1416 13.4404C4.5913 12.568 5.15467 11.999 5.68555 11.5723C5.9443 11.3643 6.19943 11.1867 6.41016 11.0381C6.63085 10.8825 6.79712 10.7628 6.93066 10.6426C7.16206 10.4342 7.25 10.2737 7.25 10C7.25 9.72632 7.16206 9.56577 6.93066 9.35742C6.79712 9.23721 6.63085 9.11751 6.41016 8.96191C6.19943 8.81334 5.9443 8.63573 5.68555 8.42773C5.15467 8.00097 4.5913 7.43195 4.1416 6.55957C3.69495 5.69302 3.3816 4.5677 3.2832 3.05273C3.21745 2.04038 4.04378 1.25 5 1.25H15ZM5 2.75C4.85192 2.75 4.77376 2.86525 4.7793 2.95508C4.86743 4.31192 5.14311 5.22705 5.47559 5.87207C5.8049 6.51086 6.21048 6.92555 6.625 7.25879C6.83882 7.43066 7.05086 7.57774 7.27441 7.73535C7.48805 7.88598 7.72528 8.05475 7.93457 8.24316C8.38871 8.65216 8.75 9.19045 8.75 10C8.75 10.8096 8.38871 11.3478 7.93457 11.7568C7.72528 11.9452 7.48805 12.114 7.27441 12.2646C7.05086 12.4223 6.83882 12.5693 6.625 12.7412C6.21049 13.0745 5.8049 13.4891 5.47559 14.1279C5.14311 14.773 4.86743 15.6881 4.7793 17.0449C4.77376 17.1348 4.85191 17.25 5 17.25H15C15.1479 17.2499 15.2262 17.1347 15.2207 17.0449C15.1326 15.6881 14.8569 14.7729 14.5244 14.1279C14.1951 13.4892 13.7895 13.0745 13.375 12.7412C13.1612 12.5693 12.9491 12.4223 12.7256 12.2646C12.512 12.114 12.2747 11.9452 12.0654 11.7568C11.6112 11.3478 11.25 10.8096 11.25 10C11.25 9.19037 11.6112 8.65217 12.0654 8.24316C12.2747 8.05475 12.512 7.88597 12.7256 7.73535C12.9491 7.57774 13.1612 7.43067 13.375 7.25879C13.7895 6.92555 14.1951 6.51085 14.5244 5.87207C14.8569 5.22705 15.1326 4.31186 15.2207 2.95508C15.2262 2.8653 15.1479 2.75012 15 2.75H5ZM12.998 4.4375C13.2741 4.4375 13.5037 4.66478 13.4297 4.93066C13.1282 6.01136 11.8941 7.043 10.5488 7.69531C10.2023 7.86332 9.79772 7.86328 9.45117 7.69531C8.10576 7.04301 6.87087 6.01142 6.56934 4.93066C6.49545 4.66486 6.72499 4.43753 7.00098 4.4375H12.998Z"
    fill="currentColor"
  />
</svg>
