<svg width="16" height="16" viewBox="0 0 16 16" fill="none" xmlns="http://www.w3.org/2000/svg" data-fui-icon="true">
  <path
    d="M12 0.25C12.9506 0.250214 13.7872 1.03378 13.7139 2.05469C13.6205 3.35319 13.3516 4.3233 12.9717 5.0752C12.5887 5.83316 12.1124 6.33052 11.666 6.7041C11.45 6.88489 11.2357 7.04014 11.0645 7.16699C10.8835 7.30107 10.7534 7.40193 10.6504 7.5C10.48 7.66235 10.417 7.78123 10.417 8C10.417 8.21877 10.48 8.33765 10.6504 8.5C10.7534 8.59807 10.8835 8.69893 11.0645 8.83301C11.2357 8.95986 11.45 9.11512 11.666 9.2959C12.1124 9.66948 12.5887 10.1668 12.9717 10.9248C13.3516 11.6767 13.6205 12.6468 13.7139 13.9453C13.7872 14.9662 12.9506 15.7498 12 15.75H4C3.04918 15.75 2.21274 14.9664 2.28613 13.9453C2.37949 12.6467 2.6484 11.6767 3.02832 10.9248C3.41136 10.1668 3.88757 9.66948 4.33398 9.2959C4.55007 9.11511 4.76436 8.95985 4.93555 8.83301C5.11648 8.69894 5.24663 8.59809 5.34961 8.5C5.51986 8.33775 5.58301 8.21868 5.58301 8C5.58301 7.78132 5.51986 7.66225 5.34961 7.5C5.24663 7.40191 5.11648 7.30106 4.93555 7.16699C4.76436 7.04015 4.55007 6.88489 4.33398 6.7041C3.88757 6.33052 3.41136 5.83321 3.02832 5.0752C2.6484 4.32329 2.37949 3.35327 2.28613 2.05469C2.21274 1.03363 3.04918 0.25 4 0.25H12ZM4 1.75C3.92961 1.75 3.87005 1.7786 3.83105 1.81836C3.79428 1.85604 3.77879 1.8995 3.78223 1.94727C3.86465 3.09354 4.09566 3.86096 4.36719 4.39844C4.63557 4.92953 4.96261 5.274 5.29688 5.55371C5.47095 5.69936 5.64269 5.82378 5.8291 5.96191C6.00565 6.09274 6.20611 6.24386 6.38477 6.41406C6.77786 6.78868 7.08301 7.27862 7.08301 8C7.08301 8.72138 6.77786 9.21132 6.38477 9.58594C6.20611 9.75614 6.00565 9.90726 5.8291 10.0381C5.64269 10.1762 5.47096 10.3006 5.29688 10.4463C4.96261 10.726 4.63557 11.0705 4.36719 11.6016C4.09566 12.139 3.86465 12.9065 3.78223 14.0527C3.77879 14.1005 3.79428 14.144 3.83105 14.1816C3.87005 14.2214 3.92961 14.25 4 14.25H12C12.0703 14.2499 12.13 14.2214 12.1689 14.1816C12.2056 14.144 12.2212 14.1004 12.2178 14.0527C12.1354 12.9066 11.9043 12.139 11.6328 11.6016C11.3645 11.0705 11.0373 10.726 10.7031 10.4463C10.529 10.3006 10.3573 10.1762 10.1709 10.0381C9.99436 9.90727 9.79392 9.75615 9.61523 9.58594C9.22205 9.21129 8.91699 8.72151 8.91699 8C8.91699 7.27849 9.22205 6.78871 9.61523 6.41406C9.79392 6.24385 9.99436 6.09273 10.1709 5.96191C10.3573 5.8238 10.529 5.69937 10.7031 5.55371C11.0373 5.274 11.3645 4.9295 11.6328 4.39844C11.9043 3.86096 12.1354 3.09345 12.2178 1.94727C12.2212 1.89959 12.2056 1.85598 12.1689 1.81836C12.13 1.77857 12.0703 1.7501 12 1.75H4ZM10.499 3C10.7752 3 11.0035 3.22836 10.9189 3.49121C10.6355 4.3719 9.64154 5.20736 8.54688 5.75391C8.20227 5.92595 7.79675 5.92595 7.45215 5.75391C6.35755 5.20736 5.36351 4.37186 5.08008 3.49121C4.99556 3.22839 5.22389 3 5.5 3H10.499Z"
    fill="currentColor"
  />
</svg>
