<svg width="12" height="12" viewBox="0 0 12 12" fill="none" xmlns="http://www.w3.org/2000/svg" data-fui-icon="true">
  <path
    d="M9.00024 0.25C9.93687 0.250187 10.8162 1.0327 10.6887 2.08984C10.582 2.9748 10.3407 3.64912 10.011 4.17871C9.68055 4.70941 9.28593 5.05512 8.93579 5.30957C8.76827 5.43128 8.59886 5.53996 8.47388 5.62305C8.33778 5.71353 8.24753 5.7777 8.18091 5.83594C8.08048 5.92383 8.08325 5.94734 8.08325 6C8.08325 6.05266 8.08048 6.07617 8.18091 6.16406C8.24753 6.2223 8.33778 6.28647 8.47388 6.37695C8.59886 6.46004 8.76827 6.56872 8.93579 6.69043C9.28593 6.94488 9.68055 7.29059 10.011 7.82129C10.3407 8.35088 10.582 9.0252 10.6887 9.91016C10.8162 10.9673 9.93687 11.7498 9.00024 11.75H3.00024C2.06348 11.75 1.18429 10.9674 1.31177 9.91016C1.41855 9.02514 1.65975 8.3509 1.9895 7.82129C2.31999 7.29057 2.71453 6.94488 3.0647 6.69043C3.23225 6.56871 3.40166 6.46002 3.52661 6.37695C3.66271 6.28646 3.75297 6.22232 3.81958 6.16406C3.91981 6.07631 3.91724 6.05263 3.91724 6C3.91724 5.94737 3.91981 5.92369 3.81958 5.83594C3.75297 5.77768 3.66271 5.71354 3.52661 5.62305C3.40166 5.53998 3.23225 5.43129 3.0647 5.30957C2.71453 5.05512 2.31999 4.70943 1.9895 4.17871C1.65975 3.6491 1.41855 2.97486 1.31177 2.08984C1.18429 1.03256 2.06348 0.25 3.00024 0.25H9.00024ZM3.00024 1.75C2.92914 1.75 2.87108 1.7795 2.83618 1.81543C2.80516 1.84756 2.79712 1.87755 2.80103 1.91016C2.88598 2.61431 3.06723 3.07142 3.26294 3.38574C3.45788 3.69878 3.69201 3.91076 3.94653 4.0957C4.08091 4.19333 4.20845 4.27482 4.35767 4.37402C4.49583 4.46589 4.6589 4.5776 4.80688 4.70703C5.1355 4.9946 5.41724 5.40023 5.41724 6C5.41724 6.59977 5.1355 7.0054 4.80688 7.29297C4.6589 7.4224 4.49583 7.53411 4.35767 7.62598C4.20845 7.72518 4.08091 7.80667 3.94653 7.9043C3.69201 8.08924 3.45788 8.30122 3.26294 8.61426C3.06723 8.92858 2.88598 9.38569 2.80103 10.0898C2.79712 10.1225 2.80516 10.1524 2.83618 10.1846C2.87108 10.2205 2.92914 10.25 3.00024 10.25H9.00024C9.07131 10.2499 9.12948 10.2205 9.16431 10.1846C9.19519 10.1525 9.20335 10.1224 9.19946 10.0898C9.11452 9.38578 8.93322 8.92858 8.73755 8.61426C8.54265 8.30123 8.30843 8.08923 8.05396 7.9043C7.91956 7.80665 7.79202 7.72516 7.64282 7.62598C7.50467 7.53412 7.34162 7.4224 7.1936 7.29297C6.86491 7.00539 6.58325 6.59988 6.58325 6C6.58325 5.40012 6.86491 4.99461 7.1936 4.70703C7.34162 4.5776 7.50467 4.46588 7.64282 4.37402C7.79202 4.27484 7.91956 4.19335 8.05396 4.0957C8.30843 3.91077 8.54265 3.69877 8.73755 3.38574C8.93322 3.07142 9.11452 2.61422 9.19946 1.91016C9.20335 1.87762 9.19519 1.84748 9.16431 1.81543C9.12948 1.77948 9.07131 1.75009 9.00024 1.75H3.00024ZM7.61743 2.31055C7.8934 2.31059 8.11966 2.54141 8.01099 2.79492C7.78019 3.3317 7.20195 3.83587 6.54907 4.19629C6.20733 4.38493 5.79218 4.38493 5.45044 4.19629C4.79766 3.83587 4.21929 3.33163 3.98853 2.79492C3.88001 2.54154 4.10629 2.31076 4.38208 2.31055H7.61743Z"
    fill="currentColor"
  />
</svg>
