<svg width="12" height="12" viewBox="0 0 12 12" fill="none" xmlns="http://www.w3.org/2000/svg" data-fui-icon="true">
  <path
    fill-rule="evenodd"
    clip-rule="evenodd"
    d="M8.99971 0C9.93639 0 10.816 0.782408 10.6882 1.83984C10.5811 2.72457 10.3403 3.4048 10.0173 3.94629C9.69432 4.48752 9.3097 4.85498 8.96846 5.13379C8.80569 5.26677 8.63734 5.39194 8.51436 5.48633C8.38054 5.58904 8.28687 5.66509 8.21651 5.73535C8.10073 5.85103 8.08272 5.90927 8.08272 6C8.08272 6.09073 8.10073 6.14897 8.21651 6.26465C8.28687 6.33491 8.38054 6.41096 8.51436 6.51367C8.63734 6.60806 8.80569 6.73323 8.96846 6.86621C9.3097 7.14502 9.69432 7.51248 10.0173 8.05371C10.3403 8.5952 10.5811 9.27543 10.6882 10.1602C10.816 11.2176 9.93639 12 8.99971 12H2.99971C2.06323 11.9997 1.18346 11.2174 1.31124 10.1602C1.41832 9.27552 1.65915 8.59518 1.98213 8.05371C2.30504 7.51251 2.68975 7.14503 3.03096 6.86621C3.19369 6.73325 3.36204 6.60808 3.48506 6.51367C3.6189 6.41096 3.71253 6.33489 3.78292 6.26465C3.89891 6.14881 3.9167 6.09079 3.9167 6C3.9167 5.90921 3.89891 5.85119 3.78292 5.73535C3.71253 5.66511 3.6189 5.58904 3.48506 5.48633C3.36204 5.39192 3.19369 5.26675 3.03096 5.13379C2.68975 4.85497 2.30504 4.48749 1.98213 3.94629C1.65915 3.40482 1.41831 2.72448 1.31124 1.83984C1.18346 0.782618 2.06323 0.000268226 2.99971 0H8.99971ZM2.99971 1.5C2.92851 1.50013 2.87027 1.52959 2.83565 1.56543C2.80498 1.59731 2.79656 1.62759 2.80049 1.66016C2.88574 2.36411 3.06795 2.83859 3.27022 3.17773C3.47265 3.517 3.71708 3.75766 3.98018 3.97266C4.11923 4.08625 4.24727 4.18011 4.39815 4.2959C4.53837 4.40351 4.69835 4.52996 4.84249 4.67383C5.15577 4.98666 5.4167 5.40563 5.4167 6C5.4167 6.59437 5.15577 7.01334 4.84249 7.32617C4.69835 7.47004 4.53837 7.59649 4.39815 7.7041C4.24727 7.81989 4.11923 7.91375 3.98018 8.02734C3.71708 8.24234 3.47265 8.483 3.27022 8.82227C3.06795 9.16141 2.88574 9.63589 2.80049 10.3398C2.79656 10.3724 2.80498 10.4027 2.83565 10.4346C2.87027 10.4704 2.92851 10.4999 2.99971 10.5H8.99971C9.07097 10.5 9.12905 10.4704 9.16377 10.4346C9.19466 10.4026 9.20289 10.3725 9.19893 10.3398C9.11367 9.63578 8.93152 9.16142 8.7292 8.82227C8.52673 8.48298 8.2824 8.24235 8.01924 8.02734C7.88021 7.91378 7.75219 7.81992 7.60127 7.7041C7.46105 7.59648 7.30104 7.47004 7.15694 7.32617C6.84376 7.01336 6.58272 6.59422 6.58272 6C6.58272 5.40578 6.84376 4.98664 7.15694 4.67383C7.30104 4.52996 7.46105 4.40352 7.60127 4.2959C7.75219 4.18008 7.88021 4.08622 8.01924 3.97266C8.2824 3.75765 8.52673 3.51702 8.7292 3.17773C8.93152 2.83858 9.11366 2.36422 9.19893 1.66016C9.20289 1.62748 9.19466 1.59742 9.16377 1.56543C9.12905 1.52961 9.07097 1.5 8.99971 1.5H2.99971ZM7.61788 2.15039C7.89391 2.15052 8.11701 2.382 8.00167 2.63281C7.76908 3.13822 7.21995 3.6338 6.65792 4.01172C6.25949 4.27961 5.7409 4.27962 5.34249 4.01172C4.7805 3.6338 4.23135 3.1382 3.99874 2.63281C3.88337 2.382 4.10648 2.15051 4.38252 2.15039H7.61788Z"
    fill="currentColor"
  />
</svg>
