<svg width="20" height="20" viewBox="0 0 20 20" fill="none" xmlns="http://www.w3.org/2000/svg" data-fui-icon="true">
  <path
    fill-rule="evenodd"
    clip-rule="evenodd"
    d="M14.5519 1C15.9069 1.00015 17.1676 2.13047 16.9846 3.64551C16.8238 4.97553 16.4637 5.99143 15.9846 6.79688C15.5056 7.60197 14.935 8.14954 14.424 8.56836C14.1789 8.76923 13.926 8.95666 13.7365 9.10254C13.5326 9.25955 13.3855 9.38112 13.2717 9.49512C13.0771 9.69002 13.0266 9.81258 13.0266 10C13.0266 10.1874 13.0771 10.31 13.2717 10.5049C13.3855 10.6189 13.5326 10.7405 13.7365 10.8975C13.926 11.0433 14.1789 11.2308 14.424 11.4316C14.935 11.8505 15.5056 12.398 15.9846 13.2031C16.4637 14.0086 16.8238 15.0245 16.9846 16.3545C17.1676 17.8695 15.9069 18.9998 14.5519 19H5.45038C4.0953 19 2.83472 17.8696 3.01777 16.3545C3.17849 15.0244 3.53859 14.0086 4.01777 13.2031C4.49682 12.398 5.06734 11.8505 5.57831 11.4316C5.82344 11.2308 6.07636 11.0433 6.26581 10.8975C6.46973 10.7405 6.61686 10.6189 6.73066 10.5049C6.92507 10.3101 6.97577 10.1874 6.97577 10C6.97577 9.81263 6.92507 9.68993 6.73066 9.49512C6.61686 9.38112 6.46973 9.25954 6.26581 9.10254C6.07636 8.95668 5.82344 8.76924 5.57831 8.56836C5.06734 8.14955 4.49682 7.602 4.01777 6.79688C3.53859 5.99142 3.17849 4.97559 3.01777 3.64551C2.83472 2.13036 4.0953 1 5.45038 1H14.5519ZM7.48945 4.07129C7.06383 4.07129 6.71906 4.42826 6.89765 4.81445C7.2595 5.59582 8.11588 6.3624 8.99042 6.94531C9.60285 7.35349 10.3975 7.35346 11.01 6.94531C11.8846 6.3624 12.7409 5.59582 13.1027 4.81445C13.2813 4.42826 12.9365 4.07129 12.5109 4.07129H7.48945Z"
    fill="currentColor"
  />
</svg>
