<svg width="12" height="12" viewBox="0 0 12 12" fill="none" xmlns="http://www.w3.org/2000/svg" data-fui-icon="true">
  <path
    fill-rule="evenodd"
    clip-rule="evenodd"
    d="M8.85689 0C9.8953 0.000182101 10.8937 0.871318 10.7485 2.07227C10.6423 2.94928 10.4014 3.63618 10.0708 4.19043C9.7402 4.74438 9.34714 5.1188 9.00728 5.39648C8.84783 5.52674 8.67953 5.65158 8.56782 5.7373C8.4418 5.83404 8.36587 5.89736 8.31294 5.9502C8.28901 5.97411 8.27581 5.99092 8.269 6C8.27581 6.00908 8.28901 6.02589 8.31294 6.0498C8.36587 6.10264 8.4418 6.16596 8.56782 6.2627C8.67953 6.34842 8.84783 6.47326 9.00728 6.60352C9.34714 6.8812 9.7402 7.25562 10.0708 7.80957C10.4014 8.36382 10.6423 9.05072 10.7485 9.92773C10.8937 11.1287 9.8953 11.9998 8.85689 12H3.14204C2.10376 11.9996 1.10529 11.1285 1.25044 9.92773L1.29634 9.60742C1.41793 8.88086 1.63886 8.29454 1.92818 7.80957C2.25867 7.25565 2.6518 6.88121 2.99165 6.60352C3.15103 6.47331 3.31936 6.34845 3.43111 6.2627C3.55712 6.16598 3.63304 6.10263 3.68599 6.0498C3.7095 6.02632 3.722 6.00922 3.72896 6C3.722 5.99078 3.7095 5.97368 3.68599 5.9502C3.63304 5.89737 3.55712 5.83402 3.43111 5.7373C3.31936 5.65155 3.15103 5.52669 2.99165 5.39648C2.6518 5.11879 2.25867 4.74435 1.92818 4.19043C1.59754 3.63619 1.35659 2.94923 1.25044 2.07227C1.10529 0.871464 2.10376 0.000364659 3.14204 0H8.85689ZM4.38325 2.15039C4.10711 2.15039 3.8831 2.38194 3.99849 2.63281C4.23107 3.13816 4.7803 3.63381 5.34224 4.01172C5.74062 4.2796 6.25926 4.27955 6.65767 4.01172C7.21969 3.63383 7.76876 3.1382 8.00142 2.63281C8.1168 2.38193 7.89377 2.15039 7.61763 2.15039H4.38325Z"
    fill="currentColor"
  />
</svg>
