<svg width="32" height="32" viewBox="0 0 32 32" fill="none" xmlns="http://www.w3.org/2000/svg" data-fui-icon="true">
  <path
    d="M23.999 1.25C25.5021 1.25 26.7917 2.48374 26.6787 4.05566C26.4975 6.57685 25.9782 8.41587 25.2725 9.8125C24.5637 11.215 23.6863 12.1328 22.8496 12.833C22.4382 13.1772 22.0318 13.473 21.6816 13.7324C21.3217 13.9991 21.0262 14.2247 20.7822 14.457C20.33 14.8879 20.082 15.3111 20.082 16C20.082 16.6889 20.33 17.1121 20.7822 17.543C21.0262 17.7753 21.3217 18.0009 21.6816 18.2676C22.0318 18.527 22.4382 18.8228 22.8496 19.167C23.6863 19.8672 24.5637 20.785 25.2725 22.1875C25.9782 23.5841 26.4975 25.4231 26.6787 27.9443C26.7917 29.5163 25.5021 30.75 23.999 30.75H7.99902C6.49595 30.75 5.20635 29.5162 5.31934 27.9443C5.50059 25.4232 6.0199 23.5841 6.72559 22.1875C7.43433 20.785 8.31171 19.8672 9.14844 19.167C9.55983 18.8228 9.96627 18.527 10.3164 18.2676C10.6764 18.0009 10.9719 17.7753 11.2158 17.543C11.6681 17.1121 11.916 16.689 11.916 16C11.916 15.311 11.6681 14.8879 11.2158 14.457C10.9719 14.2247 10.6764 13.9991 10.3164 13.7324C9.96627 13.473 9.55983 13.1772 9.14844 12.833C8.3117 12.1328 7.43433 11.215 6.72559 9.8125C6.0199 8.41587 5.50059 6.57684 5.31934 4.05566C5.20635 2.48377 6.49596 1.25004 7.99902 1.25H23.999ZM7.99902 2.75C7.29302 2.75004 6.77004 3.31673 6.81543 3.94824C6.98576 6.31726 7.46711 7.95354 8.06445 9.13574C8.65856 10.3115 9.3867 11.0762 10.1113 11.6826C10.4807 11.9917 10.8446 12.2566 11.21 12.5273C11.5654 12.7907 11.9313 13.0666 12.251 13.3711C12.926 14.0142 13.416 14.8083 13.416 16C13.416 17.1917 12.926 17.9858 12.251 18.6289C11.9313 18.9334 11.5654 19.2093 11.21 19.4727C10.8446 19.7434 10.4807 20.0083 10.1113 20.3174C9.3867 20.9238 8.65856 21.6885 8.06445 22.8643C7.46711 24.0465 6.98576 25.6827 6.81543 28.0518C6.77004 28.6833 7.29302 29.25 7.99902 29.25H23.999C24.7051 29.25 25.228 28.6833 25.1826 28.0518C25.0123 25.6827 24.5309 24.0465 23.9336 22.8643C23.3395 21.6885 22.6114 20.9238 21.8867 20.3174C21.5174 20.0083 21.1535 19.7434 20.7881 19.4727C20.4326 19.2093 20.0667 18.9334 19.7471 18.6289C19.0721 17.9858 18.582 17.1917 18.582 16C18.582 14.8083 19.0721 14.0142 19.7471 13.3711C20.0667 13.0666 20.4326 12.7907 20.7881 12.5273C21.1535 12.2566 21.5174 11.9917 21.8867 11.6826C22.6114 11.0762 23.3395 10.3115 23.9336 9.13574C24.5309 7.95354 25.0123 6.31728 25.1826 3.94824C25.228 3.31671 24.7051 2.75 23.999 2.75H7.99902ZM20.999 6C21.5511 6.00027 22.0069 6.45689 21.8379 6.98242C21.271 8.74387 19.2832 10.4157 17.0938 11.5088C16.4045 11.8529 15.5935 11.8529 14.9043 11.5088C12.7149 10.4157 10.7271 8.74384 10.1602 6.98242C9.99109 6.45676 10.4478 6 11 6H20.999Z"
    fill="currentColor"
  />
</svg>
