<svg width="16" height="16" viewBox="0 0 16 16" fill="none" xmlns="http://www.w3.org/2000/svg" data-fui-icon="true">
  <path
    fill-rule="evenodd"
    clip-rule="evenodd"
    d="M11.5811 1C12.623 1 13.5904 1.869 13.4493 3.03125C13.3234 4.0675 13.0423 4.858 12.668 5.4834C12.2939 6.10853 11.8481 6.53364 11.4483 6.85938C11.2563 7.01579 11.0588 7.16095 10.9092 7.27539C10.7488 7.39816 10.6312 7.49424 10.5401 7.58496C10.3827 7.74177 10.338 7.84478 10.338 8C10.338 8.15522 10.3827 8.25823 10.5401 8.41504C10.6312 8.50576 10.7488 8.60184 10.9092 8.72461C11.0588 8.83905 11.2563 8.98421 11.4483 9.14062C11.8481 9.46636 12.2939 9.89147 12.668 10.5166C13.0423 11.142 13.3234 11.9325 13.4493 12.9688C13.5904 14.131 12.623 15 11.5811 15H4.4112C3.36953 14.9997 2.402 14.1308 2.54303 12.9688C2.66887 11.9325 2.95108 11.142 3.32526 10.5166C3.69929 9.89163 4.14524 9.46633 4.54499 9.14062C4.73695 8.98425 4.93452 8.83903 5.08405 8.72461C5.24446 8.60185 5.36206 8.50575 5.45319 8.41504C5.61064 8.25822 5.65436 8.15522 5.65436 8C5.65436 7.84478 5.61064 7.74178 5.45319 7.58496C5.36206 7.49425 5.24446 7.39815 5.08405 7.27539C4.93452 7.16097 4.73695 7.01575 4.54499 6.85938C4.14524 6.53367 3.69929 6.10837 3.32526 5.4834C2.95108 4.858 2.66887 4.06745 2.54303 3.03125C2.402 1.8692 3.36954 1.00025 4.4112 1H11.5811ZM4.4112 2.5C4.28754 2.50012 4.1813 2.55088 4.11334 2.62109C4.04941 2.68743 4.02217 2.7651 4.03229 2.84961C4.13612 3.70499 4.35929 4.28989 4.61237 4.71289C4.86556 5.136 5.17053 5.43415 5.49225 5.69629C5.66069 5.83351 5.81757 5.94808 5.99518 6.08398C6.16205 6.21169 6.34673 6.35718 6.51178 6.52148C6.86673 6.87491 7.15436 7.33963 7.15436 8C7.15436 8.66037 6.86673 9.12508 6.51178 9.47852C6.34673 9.64282 6.16205 9.78831 5.99518 9.91602C5.81757 10.0519 5.66069 10.1665 5.49225 10.3037C5.17053 10.5658 4.86556 10.864 4.61237 11.2871C4.35929 11.7101 4.13612 12.295 4.03229 13.1504C4.02217 13.2349 4.04941 13.3126 4.11334 13.3789C4.1813 13.4491 4.28754 13.4999 4.4112 13.5H11.5811C11.705 13.5 11.8119 13.4492 11.8799 13.3789C11.9441 13.3125 11.9702 13.235 11.96 13.1504C11.8562 12.2949 11.6331 11.7101 11.3799 11.2871C11.1267 10.8641 10.8218 10.5658 10.5001 10.3037C10.3317 10.1665 10.1748 10.052 9.99713 9.91602C9.83034 9.78837 9.64646 9.64273 9.48151 9.47852C9.12664 9.12511 8.83795 8.66027 8.83795 8C8.83795 7.33973 9.12664 6.87489 9.48151 6.52148C9.64646 6.35727 9.83034 6.21163 9.99713 6.08398C10.1748 5.94803 10.3317 5.83346 10.5001 5.69629C10.8218 5.43418 11.1267 5.13591 11.3799 4.71289C11.6331 4.28988 11.8562 3.70508 11.96 2.84961C11.9702 2.76498 11.9441 2.6875 11.8799 2.62109C11.8119 2.55076 11.705 2.5 11.5811 2.5H4.4112ZM9.89069 3.50879C10.2129 3.50879 10.4738 3.77873 10.3389 4.07129C10.0664 4.66211 9.42172 5.24131 8.76276 5.68262C8.29853 5.99347 7.69475 5.99349 7.23053 5.68262C6.57164 5.24132 5.92687 4.66209 5.65436 4.07129C5.51943 3.77874 5.78044 3.50879 6.1026 3.50879H9.89069Z"
    fill="currentColor"
  />
</svg>
