<svg width="12" height="12" viewBox="0 0 12 12" fill="none" xmlns="http://www.w3.org/2000/svg" data-fui-icon="true">
  <path
    d="M9.00037 0.25C9.93699 0.250187 10.8163 1.0327 10.6888 2.08984C10.5821 2.9748 10.3408 3.64912 10.0111 4.17871C9.68067 4.70941 9.28605 5.05512 8.93591 5.30957C8.76839 5.43128 8.59898 5.53996 8.474 5.62305C8.3379 5.71353 8.24765 5.7777 8.18103 5.83594C8.08061 5.92383 8.08337 5.94734 8.08337 6C8.08337 6.05266 8.08061 6.07617 8.18103 6.16406C8.24765 6.2223 8.3379 6.28647 8.474 6.37695C8.59898 6.46004 8.76839 6.56872 8.93591 6.69043C9.28605 6.94488 9.68067 7.29059 10.0111 7.82129C10.3408 8.35088 10.5821 9.0252 10.6888 9.91016C10.8163 10.9673 9.93699 11.7498 9.00037 11.75H3.00037C2.0636 11.75 1.18441 10.9674 1.31189 9.91016C1.41867 9.02514 1.65987 8.3509 1.98962 7.82129C2.32011 7.29057 2.71466 6.94488 3.06482 6.69043C3.23237 6.56871 3.40178 6.46002 3.52673 6.37695C3.66283 6.28646 3.7531 6.22232 3.8197 6.16406C3.91993 6.07631 3.91736 6.05263 3.91736 6C3.91736 5.94737 3.91993 5.92369 3.8197 5.83594C3.7531 5.77768 3.66283 5.71354 3.52673 5.62305C3.40178 5.53998 3.23237 5.43129 3.06482 5.30957C2.71466 5.05512 2.32011 4.70943 1.98962 4.17871C1.65987 3.6491 1.41867 2.97486 1.31189 2.08984C1.18441 1.03256 2.0636 0.25 3.00037 0.25H9.00037ZM3.00037 1.75C2.92926 1.75 2.8712 1.7795 2.8363 1.81543C2.80528 1.84756 2.79725 1.87755 2.80115 1.91016C2.8861 2.61431 3.06736 3.07142 3.26306 3.38574C3.458 3.69878 3.69214 3.91076 3.94666 4.0957C4.08104 4.19333 4.20858 4.27482 4.35779 4.37402C4.49595 4.46589 4.65902 4.5776 4.80701 4.70703C5.13562 4.9946 5.41736 5.40023 5.41736 6C5.41736 6.59977 5.13562 7.0054 4.80701 7.29297C4.65902 7.4224 4.49595 7.53411 4.35779 7.62598C4.20858 7.72518 4.08104 7.80667 3.94666 7.9043C3.69214 8.08924 3.458 8.30122 3.26306 8.61426C3.06736 8.92858 2.8861 9.38569 2.80115 10.0898C2.79725 10.1225 2.80528 10.1524 2.8363 10.1846C2.8712 10.2205 2.92926 10.25 3.00037 10.25H9.00037C9.07143 10.2499 9.1296 10.2205 9.16443 10.1846C9.19531 10.1525 9.20347 10.1224 9.19958 10.0898C9.11464 9.38578 8.93334 8.92858 8.73767 8.61426C8.54277 8.30123 8.30855 8.08923 8.05408 7.9043C7.91968 7.80665 7.79214 7.72516 7.64294 7.62598C7.50479 7.53412 7.34174 7.4224 7.19373 7.29297C6.86503 7.00539 6.58337 6.59988 6.58337 6C6.58337 5.40012 6.86503 4.99461 7.19373 4.70703C7.34174 4.5776 7.50479 4.46588 7.64294 4.37402C7.79214 4.27484 7.91968 4.19335 8.05408 4.0957C8.30855 3.91077 8.54277 3.69877 8.73767 3.38574C8.93334 3.07142 9.11464 2.61422 9.19958 1.91016C9.20347 1.87762 9.19531 1.84748 9.16443 1.81543C9.1296 1.77948 9.07143 1.75009 9.00037 1.75H3.00037ZM7.61755 2.31055C7.89352 2.31059 8.11978 2.54141 8.01111 2.79492C7.78031 3.3317 7.20207 3.83587 6.54919 4.19629C6.20745 4.38493 5.79231 4.38493 5.45056 4.19629C4.79778 3.83587 4.21941 3.33163 3.98865 2.79492C3.88013 2.54154 4.10641 2.31076 4.3822 2.31055H7.61755Z"
    fill="currentColor"
  />
</svg>
