<svg width="16" height="16" viewBox="0 0 16 16" fill="none" xmlns="http://www.w3.org/2000/svg" data-fui-icon="true">
  <path
    fill-rule="evenodd"
    clip-rule="evenodd"
    d="M11.5811 1C12.623 1 13.5904 1.869 13.4493 3.03125C13.3234 4.0675 13.0423 4.858 12.668 5.4834C12.2939 6.10853 11.8481 6.53364 11.4483 6.85938C11.2563 7.01579 11.0588 7.16095 10.9092 7.27539C10.7488 7.39816 10.6312 7.49424 10.5401 7.58496C10.3827 7.74177 10.338 7.84478 10.338 8C10.338 8.15522 10.3827 8.25823 10.5401 8.41504C10.6312 8.50576 10.7488 8.60184 10.9092 8.72461C11.0588 8.83905 11.2563 8.98421 11.4483 9.14062C11.8481 9.46636 12.2939 9.89147 12.668 10.5166C13.0423 11.142 13.3234 11.9325 13.4493 12.9688C13.5904 14.131 12.623 15 11.5811 15H4.4112C3.36953 14.9997 2.402 14.1308 2.54303 12.9688C2.66887 11.9325 2.95108 11.142 3.32526 10.5166C3.69929 9.89163 4.14524 9.46633 4.54499 9.14062C4.73695 8.98425 4.93452 8.83903 5.08405 8.72461C5.24446 8.60185 5.36206 8.50575 5.45319 8.41504C5.61064 8.25822 5.65436 8.15522 5.65436 8C5.65436 7.84478 5.61064 7.74178 5.45319 7.58496C5.36206 7.49425 5.24446 7.39815 5.08405 7.27539C4.93452 7.16097 4.73695 7.01575 4.54499 6.85938C4.14524 6.53367 3.69929 6.10837 3.32526 5.4834C2.95108 4.858 2.66887 4.06745 2.54303 3.03125C2.402 1.8692 3.36954 1.00025 4.4112 1H11.5811ZM6.1026 3.50879C5.78044 3.50879 5.51943 3.77874 5.65436 4.07129C5.92687 4.66209 6.57164 5.24132 7.23053 5.68262C7.69475 5.99349 8.29853 5.99347 8.76276 5.68262C9.42172 5.24131 10.0664 4.66211 10.3389 4.07129C10.4738 3.77873 10.2129 3.50879 9.89069 3.50879H6.1026Z"
    fill="currentColor"
  />
</svg>
