<svg width="32" height="32" viewBox="0 0 32 32" fill="none" xmlns="http://www.w3.org/2000/svg" data-fui-icon="true">
  <path
    fill-rule="evenodd"
    clip-rule="evenodd"
    d="M24.1739 0.999023C26.0552 0.999163 27.7174 2.55544 27.4756 4.55078C27.2032 6.79821 26.5996 8.46895 25.8242 9.76562C25.0489 11.062 24.1223 11.9502 23.2608 12.6523C22.838 12.9968 22.4147 13.3092 22.0557 13.584C21.6858 13.8671 21.3752 14.1171 21.1201 14.3711C20.6348 14.8545 20.378 15.3209 20.378 15.998C20.3781 16.6751 20.6347 17.1416 21.1201 17.625C21.3753 17.879 21.6857 18.1289 22.0557 18.4121C22.4148 18.687 22.8379 18.9992 23.2608 19.3438C24.1224 20.0459 25.0489 20.9339 25.8242 22.2305C26.5996 23.5272 27.2033 25.1978 27.4756 27.4453C27.7171 29.4404 26.055 30.996 24.1739 30.9961H7.8262C5.94506 30.996 4.28205 29.4404 4.52347 27.4453C4.79583 25.1977 5.40045 23.5272 6.17581 22.2305C6.95108 20.934 7.8768 20.0459 8.73831 19.3438C9.16104 18.9993 9.58437 18.6869 9.94339 18.4121C10.3134 18.1289 10.6248 17.879 10.8799 17.625C11.3653 17.1417 11.621 16.675 11.6211 15.998C11.6211 15.3209 11.3653 14.8545 10.8799 14.3711C10.6248 14.117 10.3135 13.8673 9.94339 13.584C9.58432 13.3091 9.16117 12.9969 8.73831 12.6523C7.87676 11.9502 6.95116 11.0621 6.17581 9.76562C5.40036 8.46889 4.7959 6.79841 4.52347 4.55078C4.28167 2.55543 5.94489 0.999158 7.8262 0.999023H24.1739ZM7.8262 2.5C6.71386 2.50013 5.89441 3.39349 6.01273 4.37012C6.26323 6.43687 6.80856 7.90185 7.46292 8.99609C8.11739 10.0904 8.9022 10.8508 9.68558 11.4893C10.085 11.8148 10.4682 12.0961 10.8555 12.3926C11.232 12.6807 11.6085 12.9809 11.9375 13.3086C12.6204 13.9886 13.1211 14.8157 13.1211 15.998C13.121 17.1801 12.6203 18.0076 11.9375 18.6875C11.6086 19.015 11.2318 19.3155 10.8555 19.6035C10.4683 19.8999 10.0849 20.1814 9.68558 20.5068C8.90226 21.1453 8.1173 21.9057 7.46292 23C6.80864 24.0943 6.26317 25.5593 6.01273 27.626C5.89489 28.6023 6.71413 29.496 7.8262 29.4961H24.1739C25.286 29.496 26.1043 28.6024 25.9864 27.626C25.7359 25.5591 25.1905 24.0943 24.5362 23C23.8817 21.9056 23.0969 21.1453 22.3135 20.5068C21.9141 20.1813 21.531 19.9 21.1436 19.6035C20.7671 19.3154 20.3906 19.0151 20.0616 18.6875C19.3788 18.0076 18.8781 17.1801 18.878 15.998C18.878 14.8159 19.3789 13.9885 20.0616 13.3086C20.3905 12.981 20.7672 12.6806 21.1436 12.3926C21.5309 12.0962 21.9142 11.8147 22.3135 11.4893C23.0968 10.8509 23.8817 10.0902 24.5362 8.99609C25.1905 7.90186 25.7359 6.43684 25.9864 4.37012C26.1047 3.39348 25.2862 2.50014 24.1739 2.5H7.8262ZM20.3194 5.75781C21.0527 5.758 21.6457 6.37292 21.3389 7.03906C20.7179 8.3872 19.2475 9.70921 17.7442 10.7158C16.687 11.4237 15.314 11.4237 14.2569 10.7158C12.7537 9.70921 11.2831 8.38713 10.6621 7.03906C10.3553 6.37284 10.9491 5.75781 11.6826 5.75781H20.3194Z"
    fill="currentColor"
  />
</svg>
