<svg width="16" height="16" viewBox="0 0 16 16" fill="none" xmlns="http://www.w3.org/2000/svg" data-fui-icon="true">
  <path
    fill-rule="evenodd"
    clip-rule="evenodd"
    d="M6.50203 2.03029C7.18267 0.902986 8.81749 0.90299 9.49813 2.03029L15.7266 12.3457C16.4302 13.5119 15.5906 14.9997 14.2286 15H1.77157C0.410054 14.9993 -0.429493 13.5116 0.273518 12.3457L6.50203 2.03029ZM8.00008 5.50002C9.38079 5.50002 10.5001 6.61931 10.5001 8.00002C10.4999 9.38058 9.38068 10.5 8.00008 10.5C6.61959 10.4999 5.50026 9.3805 5.50008 8.00002C5.50008 6.61939 6.61948 5.50015 8.00008 5.50002C4.70449 5.50026 2.87406 8.11024 2.45907 8.7715C2.24218 9.11764 2.24587 9.55528 2.47274 9.89748C2.90299 10.5464 4.73305 12.9998 8.00008 13C11.2667 13 13.0966 10.547 13.5274 9.89748C13.7544 9.55515 13.7582 9.11771 13.5411 8.7715C13.139 8.13086 11.4091 5.66045 8.30477 5.50686L8.00008 5.50002ZM8.00008 7.00002C7.44791 7.00015 7.00008 7.44782 7.00008 8.00002C7.00026 8.55207 7.44802 8.99989 8.00008 9.00002C8.55226 9.00002 8.9999 8.55215 9.00008 8.00002C9.00008 7.44774 8.55237 7.00002 8.00008 7.00002Z"
    fill="currentColor"
  />
  <path
    d="M7.14394 2.41786L0.915845 12.7331C0.513446 13.3996 0.993378 14.25 1.77191 14.25H14.2281C15.0066 14.25 15.4866 13.3996 15.0842 12.7331L8.85606 2.41786C8.46713 1.77368 7.53287 1.77368 7.14394 2.41786Z"
    stroke="currentColor"
    stroke-width="1.5"
  />
</svg>
