<svg width="20" height="20" viewBox="0 0 20 20" fill="none" xmlns="http://www.w3.org/2000/svg" data-fui-icon="true">
  <path
    d="M8.27637 2.24213C9.04981 0.928282 10.9503 0.928179 11.7236 2.24213L19.5381 15.5273C20.3223 16.8605 19.3612 18.5408 17.8145 18.541H2.18555C0.638741 18.541 -0.322291 16.8605 0.461914 15.5273L8.27637 2.24213ZM16.0791 12.6064C15.7327 13.0828 15.2313 13.6825 14.5713 14.2441C13.4956 15.1593 11.9677 15.9999 10 15.9999C8.03224 15.9999 6.50441 15.1593 5.42871 14.2441C4.76848 13.6823 4.26632 13.0828 3.91992 12.6064L1.75488 16.288C1.55902 16.6213 1.79891 17.041 2.18555 17.041H17.8145C18.201 17.0408 18.441 16.6213 18.2451 16.288L16.0791 12.6064ZM13.1904 9.13276C13.2289 9.33263 13.25 9.53885 13.25 9.74994C13.25 11.5448 11.7949 12.9999 10 12.9999C8.20507 12.9999 6.75 11.5449 6.75 9.74994C6.75 9.53896 6.76922 9.33253 6.80762 9.13276C6.6679 9.23961 6.5347 9.35113 6.40723 9.46479C5.64318 10.1461 5.12811 10.8988 4.86719 11.329C5.12962 11.7413 5.64135 12.4556 6.40039 13.1015C7.29095 13.8592 8.48719 14.4999 10 14.4999C11.5128 14.4999 12.7091 13.8592 13.5996 13.1015C14.3583 12.4558 14.8693 11.7413 15.1318 11.329C14.8709 10.8988 14.3566 10.1459 13.5928 9.46479C13.4649 9.35081 13.3306 9.23988 13.1904 9.13276ZM10 7.99994C9.03351 7.99994 8.25002 8.78346 8.25 9.74994C8.25 10.7164 9.0335 11.4999 10 11.4999C10.9664 11.4999 11.75 10.7164 11.75 9.74994C11.75 8.7835 10.9664 8.00001 10 7.99994ZM10.4307 3.00287C10.2373 2.67471 9.76278 2.67482 9.56934 3.00287L7.11035 7.18256C7.88626 6.79794 8.78716 6.53405 9.81152 6.50483C9.87384 6.50127 9.93679 6.49994 10 6.49994L10.167 6.50385C10.1738 6.5042 10.1807 6.50444 10.1875 6.50483C11.2119 6.53394 12.1127 6.798 12.8887 7.18256L10.4307 3.00287Z"
    fill="currentColor"
  />
</svg>
