<svg width="24" height="24" viewBox="0 0 24 24" fill="none" xmlns="http://www.w3.org/2000/svg" data-fui-icon="true">
  <path
    d="M10.2764 2.40039C11.0498 1.08649 12.9502 1.08646 13.7236 2.40039L23.5381 19.085C24.3223 20.4182 23.3613 22.0996 21.8145 22.0996H2.18555C0.638718 22.0996 -0.322355 20.4182 0.461914 19.085L10.2764 2.40039ZM19.3027 14.8447C18.2997 16.2692 15.8795 18.9999 12 19C8.11992 18.9999 5.69825 16.2691 4.69531 14.8447L1.75488 19.8457C1.55882 20.179 1.79884 20.5996 2.18555 20.5996H21.8145C22.2011 20.5996 22.4412 20.179 22.2451 19.8457L19.3027 14.8447ZM15.5791 10.6309C15.6895 10.9844 15.75 11.3601 15.75 11.75C15.75 13.821 14.071 15.4999 12 15.5C9.92893 15.5 8.25 13.8211 8.25 11.75C8.25 11.3602 8.30954 10.9843 8.41992 10.6309C8.12253 10.8314 7.84554 11.0481 7.58984 11.2734C6.61009 12.1369 5.96768 13.096 5.66602 13.5996C6.33458 14.6623 8.46394 17.4999 12 17.5C15.5356 17.4999 17.6642 14.6626 18.333 13.5996C18.0313 13.0959 17.3898 12.1367 16.4102 11.2734C16.1542 11.0479 15.8768 10.8316 15.5791 10.6309ZM12 9.5C10.7574 9.5 9.75 10.5074 9.75 11.75C9.75 12.9926 10.7574 14 12 14C13.2426 13.9999 14.25 12.9926 14.25 11.75C14.25 10.5074 13.2426 9.50007 12 9.5ZM12.4307 3.16113C12.2373 2.83299 11.7627 2.83302 11.5693 3.16113L8.09473 9.06738C9.12158 8.47298 10.3564 8.04206 11.7979 8.00488C11.8647 8.00133 11.9322 8 12 8L12.1924 8.00488C12.1947 8.005 12.1969 8.00476 12.1992 8.00488C13.6416 8.04153 14.8769 8.47283 15.9043 9.06738L12.4307 3.16113Z"
    fill="currentColor"
  />
</svg>
