<svg width="16" height="16" viewBox="0 0 16 16" fill="none" xmlns="http://www.w3.org/2000/svg" data-fui-icon="true">
  <path
    d="M6.50195 2.03063C7.18259 0.903325 8.81741 0.903328 9.49805 2.03063L15.7266 12.3461C16.4302 13.5122 15.5905 15 14.2285 15.0004H1.77148C0.409739 14.9999 -0.429875 13.5121 0.273438 12.3461L6.50195 2.03063ZM1.55762 13.1215C1.45793 13.2878 1.57755 13.4999 1.77148 13.5004H14.2285C14.4227 13.5 14.5424 13.2879 14.4424 13.1215L12.9482 10.6478C12.101 11.612 10.4572 13.0004 8 13.0004C5.54186 13.0003 3.89767 11.611 3.05078 10.6468L1.55762 13.1215ZM10.5 8.00036C10.4998 9.3809 9.38059 10.5004 8 10.5004C6.61952 10.5002 5.5002 9.38082 5.5 8.00036C5.5 7.91812 5.50396 7.83642 5.51172 7.75622C4.73505 8.25977 4.19481 8.90167 3.89941 9.31676C4.44881 10.0448 5.82426 11.5003 8 11.5004C10.1752 11.5004 11.5499 10.045 12.0996 9.31676C11.804 8.9015 11.264 8.25979 10.4873 7.75622C10.4951 7.83646 10.5 7.91807 10.5 8.00036ZM8 7.00036C7.44783 7.00049 7 7.44816 7 8.00036C7.0002 8.55239 7.44795 9.00023 8 9.00036C8.55216 9.00036 8.9998 8.55247 9 8.00036C9 7.44807 8.55228 7.00036 8 7.00036ZM8.21387 2.80602C8.11663 2.64498 7.88337 2.64498 7.78613 2.80602L5.9375 5.86755C6.54622 5.64239 7.23325 5.50038 8 5.50036L8.30469 5.50719C8.94954 5.5391 9.53485 5.67193 10.0615 5.86657L8.21387 2.80602Z"
    fill="currentColor"
  />
</svg>
