<svg width="12" height="12" viewBox="0 0 12 12" fill="none" xmlns="http://www.w3.org/2000/svg" data-fui-icon="true">
  <path
    d="M4.50977 1.49133C5.1931 0.380908 6.80687 0.380927 7.49023 1.49133L11.7012 8.33313C12.4184 9.49906 11.5789 11.0001 10.21 11.0001H1.79004C0.42142 10.9999 -0.418002 9.49892 0.298828 8.33313L4.50977 1.49133ZM9.07031 7.00989C8.9291 7.23811 8.60402 7.71633 8.1123 8.14465C7.62149 8.5721 6.90499 9.00012 6 9.00012C5.09502 9.00001 4.37845 8.57212 3.8877 8.14465C3.39588 7.71621 3.0708 7.23799 2.92969 7.00989C2.91992 6.99408 2.9121 6.97726 2.90332 6.96106L1.57617 9.11926C1.47442 9.28564 1.59492 9.49985 1.79004 9.50012H10.21C10.4054 9.50012 10.526 9.28578 10.4238 9.11926L9.0957 6.96106C9.08702 6.97704 9.07995 6.99429 9.07031 7.00989ZM6 5.50012C5.58772 5.50024 5.20841 5.69439 4.87305 5.98645C4.67862 6.15585 4.51897 6.3426 4.39941 6.50012C4.51899 6.65768 4.67857 6.84436 4.87305 7.01379C5.20841 7.30586 5.58772 7.50001 6 7.50012C6.41231 7.50012 6.79156 7.30581 7.12695 7.01379C7.3212 6.84459 7.48006 6.65756 7.59961 6.50012C7.48005 6.34265 7.32127 6.15571 7.12695 5.98645C6.79153 5.69437 6.41236 5.50012 6 5.50012ZM6.21289 2.27747C6.11526 2.11887 5.88472 2.11884 5.78711 2.27747L4.45215 4.44543C4.877 4.19166 5.39616 4.0002 6 4.00012C6.60319 4.00012 7.12225 4.19114 7.54688 4.44446L6.21289 2.27747Z"
    fill="currentColor"
  />
</svg>
