<svg width="20" height="20" viewBox="0 0 20 20" fill="none" xmlns="http://www.w3.org/2000/svg" data-fui-icon="true">
  <path
    fill-rule="evenodd"
    clip-rule="evenodd"
    d="M8.2751 2.24214C9.0485 0.928373 10.9489 0.928428 11.7224 2.24214L19.5368 15.5273C20.321 16.8605 19.3599 18.5408 17.8132 18.541H2.18428C0.637825 18.5406 -0.323284 16.8604 0.460648 15.5273L8.2751 2.24214ZM10.1774 6.50386C11.8894 6.59643 13.2487 8.01485 13.2487 9.74996C13.2487 11.5449 11.7936 13 9.99873 13C8.20399 12.9998 6.74875 11.5447 6.74873 9.74996C6.74873 8.0151 8.10836 6.59679 9.82002 6.50386C7.92318 6.55533 6.44811 7.41634 5.40694 8.34468C4.60508 9.05973 4.03816 9.83227 3.70186 10.3574L3.44209 10.789C3.24869 11.1342 3.25073 11.555 3.45284 11.8994C3.70206 12.3235 4.35719 13.3334 5.42744 14.2441C6.50306 15.1592 8.0312 15.9998 9.99873 16C11.9663 15.9999 13.4944 15.1592 14.57 14.2441C15.6402 13.3335 16.2953 12.3236 16.5446 11.8994C16.7468 11.5549 16.7489 11.1342 16.5554 10.789C16.3109 10.3531 15.6596 9.29797 14.5905 8.34468C13.5492 7.41627 12.0746 6.55509 10.1774 6.50386ZM9.99873 7.99995C9.0324 8.00015 8.24873 8.78358 8.24873 9.74996C8.24875 10.7163 9.03241 11.4998 9.99873 11.5C10.9652 11.5 11.7487 10.7164 11.7487 9.74996C11.7487 8.78346 10.9652 7.99995 9.99873 7.99995Z"
    fill="currentColor"
  />
  <path
    d="M8.92258 2.62313L1.10809 15.9079C0.617925 16.7411 1.21874 17.7916 2.18551 17.7916H17.8145C18.7813 17.7916 19.3821 16.7411 18.8919 15.9079L11.0774 2.62313C10.5941 1.80149 9.40589 1.80149 8.92258 2.62313Z"
    stroke="currentColor"
    stroke-width="1.5"
  />
</svg>
