<svg width="16" height="16" viewBox="0 0 16 16" fill="none" xmlns="http://www.w3.org/2000/svg" data-fui-icon="true">
  <path
    fill-rule="evenodd"
    clip-rule="evenodd"
    d="M6.50219 2.03054C7.18283 0.903231 8.81765 0.903233 9.49829 2.03054L15.7268 12.346C16.4304 13.5121 15.5908 15 14.2288 15.0003H1.77172C0.40998 14.9998 -0.429635 13.512 0.273678 12.346L6.50219 2.03054ZM1.55786 13.1214C1.45817 13.2877 1.57779 13.4998 1.77172 13.5003H14.2288C14.4229 13.5 14.5426 13.2878 14.4426 13.1214L12.9485 10.6477C12.1012 11.6119 10.4574 13.0003 8.00024 13.0003C5.5421 13.0002 3.89792 11.6109 3.05102 10.6467L1.55786 13.1214ZM10.5002 8.00026C10.5 9.38081 9.38083 10.5003 8.00024 10.5003C6.61976 10.5001 5.50044 9.38073 5.50024 8.00026C5.50024 7.91803 5.5042 7.83633 5.51196 7.75612C4.73529 8.25967 4.19505 8.90157 3.89965 9.31667C4.44905 10.0447 5.8245 11.5002 8.00024 11.5003C10.1754 11.5003 11.5501 10.0449 12.0998 9.31667C11.8043 8.9014 11.2642 8.2597 10.4875 7.75612C10.4953 7.83637 10.5002 7.91798 10.5002 8.00026ZM8.00024 7.00026C7.44807 7.0004 7.00024 7.44806 7.00024 8.00026C7.00044 8.5523 7.44819 9.00013 8.00024 9.00026C8.5524 9.00026 9.00004 8.55238 9.00024 8.00026C9.00024 7.44798 8.55252 7.00026 8.00024 7.00026ZM8.21411 2.80593C8.11687 2.64488 7.88361 2.64489 7.78637 2.80593L5.93774 5.86745C6.54646 5.6423 7.23349 5.50029 8.00024 5.50026L8.30493 5.5071C8.94978 5.53901 9.53509 5.67184 10.0618 5.86648L8.21411 2.80593Z"
    fill="currentColor"
  />
</svg>
