<svg width="12" height="12" viewBox="0 0 12 12" fill="none" xmlns="http://www.w3.org/2000/svg" data-fui-icon="true">
  <path
    d="M4.50977 1.49146C5.1931 0.38103 6.80687 0.38105 7.49023 1.49146L11.7012 8.33325C12.418 9.49909 11.5787 11.0001 10.21 11.0002H1.79004C0.42148 11 -0.417833 9.49902 0.298828 8.33325L4.50977 1.49146ZM6 4.00024C6.82843 4.00024 7.5 4.67182 7.5 5.50024C7.49987 6.32856 6.82835 7.00024 6 7.00024C5.17173 7.00016 4.50013 6.32851 4.5 5.50024C4.5 4.67285 5.17006 4.00191 5.99707 4.00024C4.3214 4.00183 3.16971 5.0703 2.68066 5.62524L2.51172 5.82642C2.23392 6.17856 2.23387 6.67157 2.51172 7.02368C2.85161 7.45425 4.08439 8.84985 6.00098 8.84985C7.9179 8.84953 9.15092 7.45364 9.49023 7.02368C9.76783 6.67173 9.76761 6.17847 9.49023 5.82642C9.15079 5.39633 7.91774 4.00056 6.00098 4.00024H6Z"
    fill="currentColor"
  />
  <path
    d="M5.14834 1.88395L0.937906 8.7259C0.527894 9.39217 1.00724 10.25 1.78956 10.25H10.2104C10.9928 10.25 11.4721 9.39217 11.0621 8.7259L6.85166 1.88394C6.46117 1.24941 5.53883 1.24941 5.14834 1.88395Z"
    stroke="currentColor"
    stroke-width="1.5"
  />
</svg>
