<svg width="16" height="16" viewBox="0 0 16 16" fill="none" xmlns="http://www.w3.org/2000/svg" data-fui-icon="true">
  <path
    fill-rule="evenodd"
    clip-rule="evenodd"
    d="M6.50219 2.03029C7.18283 0.902987 8.81765 0.902989 9.49829 2.03029L15.7268 12.3457C16.4304 13.5119 15.5908 14.9997 14.2288 15H1.77172C0.40998 14.9995 -0.429635 13.5117 0.273678 12.3457L6.50219 2.03029ZM1.55786 13.1211C1.45817 13.2874 1.57779 13.4995 1.77172 13.5H14.2288C14.4229 13.4997 14.5426 13.2875 14.4426 13.1211L12.9485 10.6475C12.1012 11.6116 10.4574 13 8.00024 13C5.5421 12.9999 3.89792 11.6107 3.05102 10.6465L1.55786 13.1211ZM10.5002 8.00002C10.5 9.38056 9.38083 10.5 8.00024 10.5C6.61976 10.4999 5.50044 9.38048 5.50024 8.00002C5.50024 7.91778 5.5042 7.83608 5.51196 7.75588C4.73529 8.25943 4.19505 8.90133 3.89965 9.31643C4.44905 10.0444 5.8245 11.4999 8.00024 11.5C10.1754 11.5 11.5501 10.0447 12.0998 9.31643C11.8043 8.90116 11.2642 8.25945 10.4875 7.75588C10.4953 7.83613 10.5002 7.91773 10.5002 8.00002ZM8.00024 7.00002C7.44807 7.00015 7.00024 7.44782 7.00024 8.00002C7.00044 8.55206 7.44819 8.99989 8.00024 9.00002C8.5524 9.00002 9.00004 8.55214 9.00024 8.00002C9.00024 7.44774 8.55252 7.00002 8.00024 7.00002ZM8.21411 2.80568C8.11687 2.64464 7.88361 2.64464 7.78637 2.80568L5.93774 5.86721C6.54646 5.64206 7.23349 5.50005 8.00024 5.50002L8.30493 5.50686C8.94978 5.53876 9.53509 5.67159 10.0618 5.86623L8.21411 2.80568Z"
    fill="currentColor"
  />
</svg>
