<svg width="32" height="32" viewBox="0 0 32 32" fill="none" xmlns="http://www.w3.org/2000/svg" data-fui-icon="true">
  <path
    d="M14.0654 3.09021C14.9373 1.62171 17.0627 1.62172 17.9346 3.09021L31.2998 25.6019C32.1893 27.1015 31.1088 28.9999 29.3652 29.0004H2.63477C0.890804 29.0002 -0.189772 27.1016 0.700195 25.6019L14.0654 3.09021ZM15.999 11.0004C18.6224 11.0004 20.749 13.127 20.749 15.7504C20.7488 18.3735 18.6222 20.5004 15.999 20.5004C13.376 20.5002 11.2492 18.3734 11.249 15.7504C11.249 13.1278 13.3748 11.0016 15.9971 11.0004C12.902 11.0013 10.7032 12.3853 9.2373 13.8978C7.96487 15.2108 7.23167 16.6313 6.9043 17.3695L6.78809 17.642C6.65612 17.9672 6.65882 18.324 6.79688 18.6478C7.27351 19.7655 9.82418 25.0002 16 25.0004C22.1766 25 24.7281 19.7642 25.2041 18.6478C25.3421 18.3242 25.3446 17.9671 25.2129 17.642C24.9681 17.0395 24.2176 15.3972 22.7637 13.8969C21.2974 12.384 19.0962 11.0006 16 11.0004H15.999ZM15.999 12.5004C14.2043 12.5006 12.749 13.9556 12.749 15.7504C12.7492 17.545 14.2044 19.0002 15.999 19.0004C17.7938 19.0004 19.2488 17.5451 19.249 15.7504C19.249 13.9554 17.7939 12.5004 15.999 12.5004Z"
    fill="currentColor"
  />
</svg>
