<svg width="20" height="20" viewBox="0 0 20 20" fill="none" xmlns="http://www.w3.org/2000/svg" data-fui-icon="true">
  <path
    fill-rule="evenodd"
    clip-rule="evenodd"
    d="M8.27624 2.24226C9.04968 0.928412 10.9502 0.92831 11.7235 2.24226L19.538 15.5274C20.3221 16.8606 19.361 18.541 17.8143 18.5411H2.18542C0.638614 18.5411 -0.322419 16.8607 0.461786 15.5274L8.27624 2.24226ZM16.079 12.6065C15.7326 13.0829 15.2312 13.6826 14.5712 14.2442C13.4955 15.1594 11.9676 16 9.99987 16.0001C8.03211 16.0001 6.50428 15.1594 5.42858 14.2442C4.76835 13.6824 4.26619 13.083 3.91979 12.6065L1.75476 16.2882C1.55889 16.6214 1.79879 17.0411 2.18542 17.0411H17.8143C18.2009 17.041 18.4408 16.6214 18.245 16.2882L16.079 12.6065ZM13.1903 9.13289C13.2287 9.33276 13.2499 9.53898 13.2499 9.75007C13.2499 11.545 11.7947 13 9.99987 13.0001C8.20495 13.0001 6.74987 11.545 6.74987 9.75007C6.74987 9.53909 6.76909 9.33266 6.80749 9.13289C6.66777 9.23974 6.53457 9.35126 6.4071 9.46492C5.64306 10.1462 5.12798 10.8989 4.86706 11.3292C5.12949 11.7414 5.64123 12.4557 6.40026 13.1016C7.29082 13.8593 8.48706 14.5001 9.99987 14.5001C11.5126 14.5 12.7089 13.8593 13.5995 13.1016C14.3582 12.456 14.8692 11.7414 15.1317 11.3292C14.8707 10.8989 14.3565 10.146 13.5926 9.46492C13.4648 9.35095 13.3304 9.24001 13.1903 9.13289ZM9.99987 8.00007C9.03339 8.00007 8.24989 8.78359 8.24987 9.75007C8.24987 10.7166 9.03337 11.5001 9.99987 11.5001C10.9663 11.5 11.7499 10.7165 11.7499 9.75007C11.7499 8.78363 10.9663 8.00014 9.99987 8.00007ZM10.4305 3.003C10.2372 2.67484 9.76265 2.67495 9.56921 3.003L7.11022 7.18269C7.88614 6.79807 8.78703 6.53418 9.8114 6.50496C9.87372 6.5014 9.93666 6.50007 9.99987 6.50007L10.1669 6.50398C10.1737 6.50433 10.1805 6.50457 10.1874 6.50496C11.2118 6.53407 12.1126 6.79813 12.8885 7.18269L10.4305 3.003Z"
    fill="currentColor"
  />
</svg>
