<svg width="24" height="24" viewBox="0 0 24 24" fill="none" xmlns="http://www.w3.org/2000/svg" data-fui-icon="true">
  <path
    d="M10.2754 2.40042C11.0488 1.08656 12.9492 1.08661 13.7227 2.40042L23.5371 19.085C24.3214 20.4182 23.3603 22.0996 21.8135 22.0996H2.18457C0.637862 22.0995 -0.323258 20.4182 0.460938 19.085L10.2754 2.40042ZM12.1992 8.00491C14.1774 8.10881 15.749 9.74602 15.749 11.75C15.749 13.8211 14.0701 15.5 11.999 15.5C9.92809 15.4999 8.24904 13.821 8.24902 11.75C8.24902 9.74621 9.82096 8.10909 11.7988 8.00491C9.5687 8.06193 7.83074 9.06098 6.59668 10.1485C5.48926 11.1244 4.75905 12.193 4.39844 12.7891L4.26562 13.0147C4.0555 13.3854 4.05793 13.8377 4.27734 14.2071C4.8355 15.1457 7.38878 18.9999 11.999 19C16.6091 18.9999 19.1614 15.1459 19.7197 14.2071C19.9395 13.8375 19.9419 13.3856 19.7314 13.0147C19.44 12.501 18.6673 11.2641 17.4014 10.1485C16.1673 9.061 14.4294 8.06184 12.1992 8.00491ZM11.999 9.50003C10.7565 9.50018 9.74902 10.5075 9.74902 11.75C9.74904 12.9926 10.7565 13.9999 11.999 14C13.2417 14 14.249 12.9927 14.249 11.75C14.249 10.5074 13.2417 9.50003 11.999 9.50003Z"
    fill="currentColor"
  />
  <path
    d="M10.9226 2.78121L1.10809 19.466C0.617925 20.2993 1.21874 21.3497 2.18551 21.3497H21.8145C22.7813 21.3497 23.3821 20.2993 22.8919 19.466L13.0774 2.78121C12.5941 1.95957 11.4059 1.95957 10.9226 2.78121Z"
    stroke="currentColor"
    stroke-width="1.5"
  />
</svg>
