<svg width="20" height="20" viewBox="0 0 20 20" fill="none" xmlns="http://www.w3.org/2000/svg" data-fui-icon="true">
  <path
    d="M8.27637 2.24222C9.04986 0.928506 10.9503 0.928312 11.7236 2.24222L19.5381 15.5274C20.322 16.8604 19.3609 18.5406 17.8145 18.541H2.18555C0.638741 18.541 -0.322291 16.8606 0.461914 15.5274L8.27637 2.24222ZM10.1777 6.50394C11.8897 6.5965 13.249 8.01493 13.249 9.75003C13.249 11.5449 11.7939 13 9.99902 13C8.20428 12.9998 6.74904 11.5448 6.74902 9.75003C6.74902 8.01517 8.10865 6.59686 9.82031 6.50394C7.92365 6.55543 6.44934 7.4165 5.4082 8.34476C4.60629 9.05981 4.03947 9.83229 3.70312 10.3575L3.44336 10.7891C3.24982 11.1344 3.25182 11.555 3.4541 11.8994C3.70343 12.3237 4.35844 13.3335 5.42871 14.2442C6.5044 15.1593 8.03238 16 10 16C11.9675 15.9999 13.4957 15.1593 14.5713 14.2442C15.6415 13.3334 16.2967 12.3235 16.5459 11.8994C16.748 11.5551 16.75 11.1342 16.5566 10.7891C16.3123 10.3533 15.6609 9.29817 14.5918 8.34476C13.5504 7.41623 12.0751 6.55514 10.1777 6.50394ZM9.99902 8.00003C9.03269 8.00023 8.24902 8.78365 8.24902 9.75003C8.24904 10.7164 9.0327 11.4998 9.99902 11.5C10.9655 11.5 11.749 10.7165 11.749 9.75003C11.749 8.78353 10.9655 8.00003 9.99902 8.00003Z"
    fill="currentColor"
  />
  <path
    d="M8.92258 2.62301L1.10809 15.9077C0.617925 16.741 1.21874 17.7915 2.18551 17.7915H17.8145C18.7813 17.7915 19.3821 16.741 18.8919 15.9077L11.0774 2.62301C10.5941 1.80137 9.40589 1.80137 8.92258 2.62301Z"
    stroke="currentColor"
    stroke-width="1.5"
  />
</svg>
