<svg width="24" height="24" viewBox="0 0 24 24" fill="none" xmlns="http://www.w3.org/2000/svg" data-fui-icon="true">
  <path
    fill-rule="evenodd"
    clip-rule="evenodd"
    d="M10.2763 2.40047C11.0497 1.08657 12.9502 1.08655 13.7235 2.40047L23.538 19.085C24.3223 20.4183 23.3612 22.0997 21.8144 22.0997H2.18545C0.63862 22.0997 -0.322453 20.4183 0.461816 19.085L10.2763 2.40047ZM19.3026 14.8448C18.2996 16.2693 15.8794 19 11.9999 19.0001C8.11982 19 5.69815 16.2692 4.69521 14.8448L1.75479 19.8458C1.55872 20.1791 1.79874 20.5997 2.18545 20.5997H21.8144C22.201 20.5997 22.4411 20.1791 22.245 19.8458L19.3026 14.8448ZM15.579 10.6309C15.6894 10.9845 15.7499 11.3602 15.7499 11.7501C15.7499 13.8211 14.0709 15.5 11.9999 15.5001C9.92883 15.5001 8.2499 13.8212 8.2499 11.7501C8.2499 11.3603 8.30945 10.9844 8.41982 10.6309C8.12243 10.8315 7.84544 11.0482 7.58975 11.2735C6.60999 12.1369 5.96759 13.0961 5.66592 13.5997C6.33448 14.6624 8.46385 17.5 11.9999 17.5001C15.5355 17.4999 17.6641 14.6626 18.3329 13.5997C18.0312 13.096 17.3897 12.1368 16.4101 11.2735C16.1541 11.048 15.8767 10.8316 15.579 10.6309ZM11.9999 9.50008C10.7573 9.50008 9.7499 10.5074 9.7499 11.7501C9.7499 12.9927 10.7573 14.0001 11.9999 14.0001C13.2425 14 14.2499 12.9927 14.2499 11.7501C14.2499 10.5075 13.2425 9.50015 11.9999 9.50008ZM12.4306 3.16122C12.2372 2.83308 11.7626 2.83311 11.5692 3.16122L8.09463 9.06747C9.12148 8.47306 10.3563 8.04215 11.7978 8.00497C11.8646 8.00142 11.9321 8.00008 11.9999 8.00008L12.1923 8.00497C12.1946 8.00508 12.1968 8.00485 12.1991 8.00497C13.6415 8.04161 14.8768 8.47292 15.9042 9.06747L12.4306 3.16122Z"
    fill="currentColor"
  />
</svg>
