<svg width="12" height="12" viewBox="0 0 12 12" fill="none" xmlns="http://www.w3.org/2000/svg" data-fui-icon="true">
  <path
    d="M4.50964 1.49146C5.19298 0.38103 6.80675 0.38105 7.49011 1.49146L11.701 8.33325C12.4179 9.49909 11.5786 11.0001 10.2098 11.0002H1.78992C0.421358 11 -0.417955 9.49902 0.298706 8.33325L4.50964 1.49146ZM5.99988 4.00024C6.82831 4.00024 7.49988 4.67182 7.49988 5.50024C7.49975 6.32856 6.82822 7.00024 5.99988 7.00024C5.1716 7.00016 4.50001 6.32851 4.49988 5.50024C4.49988 4.67285 5.16994 4.00191 5.99695 4.00024C4.32128 4.00183 3.16959 5.0703 2.68054 5.62524L2.5116 5.82642C2.23379 6.17856 2.23375 6.67157 2.5116 7.02368C2.85149 7.45425 4.08426 8.84985 6.00085 8.84985C7.91778 8.84953 9.1508 7.45364 9.49011 7.02368C9.76771 6.67173 9.76749 6.17847 9.49011 5.82642C9.15067 5.39633 7.91761 4.00056 6.00085 4.00024H5.99988Z"
    fill="currentColor"
  />
</svg>
