<svg width="16" height="16" viewBox="0 0 16 16" fill="none" xmlns="http://www.w3.org/2000/svg" data-fui-icon="true">
  <path
    d="M6.50171 2.03052C7.18235 0.903211 8.81717 0.903214 9.4978 2.03052L15.7263 12.3459C16.4299 13.5121 15.5903 14.9999 14.2283 15.0002H1.77124C0.409729 14.9996 -0.429818 13.5119 0.273193 12.3459L6.50171 2.03052ZM7.99976 5.50024C9.38047 5.50024 10.4998 6.61953 10.4998 8.00024C10.4996 9.38081 9.38036 10.5002 7.99976 10.5002C6.61926 10.5001 5.49993 9.38072 5.49976 8.00024C5.49976 6.61961 6.61915 5.50037 7.99976 5.50024C4.70416 5.50048 2.87373 8.11047 2.45874 8.77173C2.24185 9.11787 2.24554 9.5555 2.47241 9.89771C2.90266 10.5466 4.73272 13 7.99976 13.0002C11.2664 13.0002 13.0963 10.5473 13.5271 9.89771C13.7541 9.55537 13.7579 9.11794 13.5408 8.77173C13.1387 8.13108 11.4088 5.66068 8.30444 5.50708L7.99976 5.50024ZM7.99976 7.00024C7.44758 7.00037 6.99976 7.44804 6.99976 8.00024C6.99993 8.5523 7.44769 9.00011 7.99976 9.00024C8.55193 9.00024 8.99958 8.55238 8.99976 8.00024C8.99976 7.44796 8.55204 7.00024 7.99976 7.00024Z"
    fill="currentColor"
  />
</svg>
