<svg width="24" height="24" viewBox="0 0 24 24" fill="none" xmlns="http://www.w3.org/2000/svg" data-fui-icon="true">
  <path
    fill-rule="evenodd"
    clip-rule="evenodd"
    d="M10.2752 2.40042C11.0486 1.08655 12.9491 1.08661 13.7225 2.40042L23.537 19.085C24.3212 20.4182 23.3601 22.0996 21.8133 22.0996H2.18443C0.637717 22.0995 -0.323403 20.4182 0.460792 19.085L10.2752 2.40042ZM12.1991 8.00491C14.1772 8.10881 15.7489 9.74602 15.7489 11.75C15.7489 13.8211 14.0699 15.5 11.9989 15.5C9.92795 15.4999 8.2489 13.821 8.24888 11.75C8.24888 9.7462 9.82081 8.10908 11.7987 8.00491C9.56855 8.06192 7.83059 9.06097 6.59653 10.1485C5.48912 11.1244 4.7589 12.193 4.39829 12.7891L4.26548 13.0147C4.05535 13.3854 4.05779 13.8377 4.2772 14.2071C4.83535 15.1457 7.38864 18.9998 11.9989 19C16.6089 18.9999 19.1612 15.1459 19.7196 14.2071C19.9393 13.8375 19.9417 13.3856 19.7313 13.0147C19.4398 12.501 18.6671 11.2641 17.4012 10.1485C16.1671 9.06099 14.4292 8.06184 12.1991 8.00491ZM11.9989 9.50003C10.7564 9.50018 9.74888 10.5075 9.74888 11.75C9.7489 12.9926 10.7564 13.9999 11.9989 14C13.2415 14 14.2489 12.9927 14.2489 11.75C14.2489 10.5074 13.2415 9.50003 11.9989 9.50003Z"
    fill="currentColor"
  />
  <path
    d="M10.9226 2.78133L1.10809 19.4661C0.617925 20.2994 1.21874 21.3499 2.18551 21.3499H21.8145C22.7813 21.3499 23.3821 20.2994 22.8919 19.4661L13.0774 2.78133C12.5941 1.9597 11.4059 1.95969 10.9226 2.78133Z"
    stroke="currentColor"
    stroke-width="1.5"
  />
</svg>
