<svg width="16" height="16" viewBox="0 0 16 16" fill="none" xmlns="http://www.w3.org/2000/svg" data-fui-icon="true">
  <path
    fill-rule="evenodd"
    clip-rule="evenodd"
    d="M6.50203 2.03054C7.18267 0.903231 8.81749 0.903234 9.49813 2.03054L15.7266 12.346C16.4302 13.5121 15.5906 15 14.2286 15.0003H1.77157C0.410054 14.9996 -0.429493 13.5119 0.273518 12.346L6.50203 2.03054ZM8.00008 5.50026C9.38079 5.50026 10.5001 6.61955 10.5001 8.00026C10.4999 9.38083 9.38068 10.5003 8.00008 10.5003C6.61959 10.5001 5.50026 9.38074 5.50008 8.00026C5.50008 6.61963 6.61948 5.50039 8.00008 5.50026C4.70449 5.5005 2.87406 8.11049 2.45907 8.77175C2.24218 9.11789 2.24587 9.55552 2.47274 9.89773C2.90299 10.5466 4.73305 13 8.00008 13.0003C11.2667 13.0003 13.0966 10.5473 13.5274 9.89773C13.7544 9.55539 13.7582 9.11796 13.5411 8.77175C13.139 8.1311 11.4091 5.6607 8.30477 5.5071L8.00008 5.50026ZM8.00008 7.00026C7.44791 7.00039 7.00008 7.44806 7.00008 8.00026C7.00026 8.55232 7.44802 9.00013 8.00008 9.00026C8.55226 9.00026 8.9999 8.5524 9.00008 8.00026C9.00008 7.44798 8.55237 7.00026 8.00008 7.00026Z"
    fill="currentColor"
  />
  <path
    d="M7.14394 2.41786L0.915845 12.7331C0.513446 13.3996 0.993378 14.25 1.77191 14.25H14.2281C15.0066 14.25 15.4866 13.3996 15.0842 12.7331L8.85606 2.41786C8.46713 1.77368 7.53287 1.77368 7.14394 2.41786Z"
    stroke="currentColor"
    stroke-width="1.5"
  />
</svg>
