<svg width="20" height="20" viewBox="0 0 20 20" fill="none" xmlns="http://www.w3.org/2000/svg" data-fui-icon="true">
  <g clip-path="url(#clip0_3954_13)">
    <path
      d="M1 11.05C0.585786 11.05 0.25 11.3858 0.25 11.8C0.25 12.2142 0.585786 12.55 1 12.55V11.05ZM6.85727 11.8H7.60727C7.60727 11.3858 7.27148 11.05 6.85727 11.05V11.8ZM13.1427 11.8V11.05C12.7285 11.05 12.3927 11.3858 12.3927 11.8H13.1427ZM19 12.55C19.4142 12.55 19.75 12.2142 19.75 11.8C19.75 11.3858 19.4142 11.05 19 11.05V12.55ZM3.82892 1.75H16.1711V0.25H3.82892V1.75ZM16.1711 1.75C17.3192 1.75 18.25 2.68076 18.25 3.82892H19.75C19.75 1.85234 18.1477 0.25 16.1711 0.25V1.75ZM18.25 3.82892V16.1711H19.75V3.82892H18.25ZM18.25 16.1711C18.25 17.3192 17.3192 18.25 16.1711 18.25V19.75C18.1477 19.75 19.75 18.1477 19.75 16.1711H18.25ZM16.1711 18.25H3.82892V19.75H16.1711V18.25ZM3.82892 18.25C2.68076 18.25 1.75 17.3192 1.75 16.1711H0.25C0.25 18.1477 1.85234 19.75 3.82892 19.75V18.25ZM1.75 16.1711V3.82892H0.25V16.1711H1.75ZM1.75 3.82892C1.75 2.68076 2.68076 1.75 3.82892 1.75V0.25C1.85234 0.25 0.25 1.85234 0.25 3.82892H1.75ZM1 12.55H6.85727V11.05H1V12.55ZM6.10727 11.8C6.10727 13.8894 7.89819 15.55 10 15.55V14.05C8.66016 14.05 7.60727 12.996 7.60727 11.8H6.10727ZM10 15.55C12.1018 15.55 13.8927 13.8894 13.8927 11.8H12.3927C12.3927 12.996 11.3398 14.05 10 14.05V15.55ZM13.1427 12.55H19V11.05H13.1427V12.55Z"
      fill="currentColor"
    />
  </g>
  <defs>
    <clipPath id="clip0_3954_13"><path fill="currentColor" d="M0 0H20V20H0z" /></clipPath>
  </defs>
</svg>
