<svg width="12" height="12" viewBox="0 0 12 12" fill="none" xmlns="http://www.w3.org/2000/svg" data-fui-icon="true">
  <g clip-path="url(#clip0_3954_23)">
    <path
      d="M1 6.25C0.585786 6.25 0.25 6.58579 0.25 7C0.25 7.41421 0.585786 7.75 1 7.75V6.25ZM4.25404 7H5.00404C5.00404 6.58579 4.66825 6.25 4.25404 6.25V7ZM7.74596 7V6.25C7.33175 6.25 6.99596 6.58579 6.99596 7H7.74596ZM11 7.75C11.4142 7.75 11.75 7.41421 11.75 7C11.75 6.58579 11.4142 6.25 11 6.25V7.75ZM2.57162 1.75H9.42838V0.25H2.57162V1.75ZM9.42838 1.75C9.88215 1.75 10.25 2.11785 10.25 2.57162H11.75C11.75 1.28943 10.7106 0.25 9.42838 0.25V1.75ZM10.25 2.57162V9.42838H11.75V2.57162H10.25ZM10.25 9.42838C10.25 9.88215 9.88215 10.25 9.42838 10.25V11.75C10.7106 11.75 11.75 10.7106 11.75 9.42838H10.25ZM9.42838 10.25H2.57162V11.75H9.42838V10.25ZM2.57162 10.25C2.11785 10.25 1.75 9.88215 1.75 9.42838H0.25C0.25 10.7106 1.28943 11.75 2.57162 11.75V10.25ZM1.75 9.42838V2.57162H0.25V9.42838H1.75ZM1.75 2.57162C1.75 2.11785 2.11785 1.75 2.57162 1.75V0.25C1.28943 0.25 0.25 1.28943 0.25 2.57162H1.75ZM1 7.75H4.25404V6.25H1V7.75ZM3.50404 7C3.50404 8.35928 4.663 9.41667 6 9.41667V7.91667C5.42497 7.91667 5.00404 7.46591 5.00404 7H3.50404ZM6 9.41667C7.337 9.41667 8.49596 8.35928 8.49596 7H6.99596C6.99596 7.46591 6.57503 7.91667 6 7.91667V9.41667ZM7.74596 7.75H11V6.25H7.74596V7.75Z"
      fill="currentColor"
    />
  </g>
  <defs>
    <clipPath id="clip0_3954_23"><path fill="currentColor" d="M0 0H12V12H0z" /></clipPath>
  </defs>
</svg>
