<svg
  width="16"
  height="16"
  viewBox="0 0 16 16"
  fill="none"
  xmlns="http://www.w3.org/2000/svg"
  data-fui-icon="true"
>
  <g clip-path="url(#clip0_3954_18)">
    <path
      d="M1 8.65C0.585786 8.65 0.25 8.98579 0.25 9.4C0.25 9.81421 0.585786 10.15 1 10.15V8.65ZM5.55566 9.4H6.30566C6.30566 8.98579 5.96987 8.65 5.55566 8.65V9.4ZM10.4443 9.4V8.65C10.0301 8.65 9.69434 8.98579 9.69434 9.4H10.4443ZM15 10.15C15.4142 10.15 15.75 9.81421 15.75 9.4C15.75 8.98579 15.4142 8.65 15 8.65V10.15ZM3.20027 1.75H12.7997V0.25H3.20027V1.75ZM12.7997 1.75C13.6007 1.75 14.25 2.39931 14.25 3.20027H15.75C15.75 1.57088 14.4291 0.25 12.7997 0.25V1.75ZM14.25 3.20027V12.7997H15.75V3.20027H14.25ZM14.25 12.7997C14.25 13.6007 13.6007 14.25 12.7997 14.25V15.75C14.4291 15.75 15.75 14.4291 15.75 12.7997H14.25ZM12.7997 14.25H3.20027V15.75H12.7997V14.25ZM3.20027 14.25C2.39931 14.25 1.75 13.6007 1.75 12.7997H0.25C0.25 14.4291 1.57088 15.75 3.20027 15.75V14.25ZM1.75 12.7997V3.20027H0.25V12.7997H1.75ZM1.75 3.20027C1.75 2.39931 2.39931 1.75 3.20027 1.75V0.25C1.57088 0.25 0.25 1.57088 0.25 3.20027H1.75ZM1 10.15H5.55566V8.65H1V10.15ZM4.80566 9.4C4.80566 11.1243 6.2806 12.4833 8 12.4833V10.9833C7.04256 10.9833 6.30566 10.231 6.30566 9.4H4.80566ZM8 12.4833C9.7194 12.4833 11.1943 11.1243 11.1943 9.4H9.69434C9.69434 10.231 8.95744 10.9833 8 10.9833V12.4833ZM10.4443 10.15H15V8.65H10.4443V10.15Z"
      fill="currentColor"
    />
  </g>
  <defs>
    <clipPath id="clip0_3954_18">
      <path fill="currentColor" d="M0 0H16V16H0z" />
    </clipPath>
  </defs>
</svg>
</svg>
