<svg width="16" height="16" viewBox="0 0 16 16" fill="none" xmlns="http://www.w3.org/2000/svg" data-fui-icon="true">
  <path
    d="M8 0C12.4183 0 16 3.58172 16 8C16 12.4183 12.4183 16 8 16C3.58172 16 0 12.4183 0 8C0 3.58172 3.58172 0 8 0ZM6.25 7C5.83579 7 5.5 7.33579 5.5 7.75C5.5 8.16421 5.83579 8.5 6.25 8.5H7.5V10.5H6.25C5.83579 10.5 5.5 10.8358 5.5 11.25C5.50007 11.6642 5.83583 12 6.25 12H9.75C10.1642 12 10.4999 11.6642 10.5 11.25C10.5 10.8358 10.1642 10.5 9.75 10.5H9V7.75C9 7.36183 8.70512 7.04253 8.32715 7.00391L8.25 7H6.25ZM8 4.00391C7.44776 4.00391 7.00007 4.45168 7 5.00391C7 5.55619 7.44772 6.00391 8 6.00391C8.55229 6.00391 9 5.55619 9 5.00391C8.99993 4.45168 8.55224 4.00391 8 4.00391Z"
    fill="currentColor"
  />
</svg>
