<svg width="32" height="32" viewBox="0 0 32 32" fill="none" xmlns="http://www.w3.org/2000/svg" data-fui-icon="true">
  <path
    fill-rule="evenodd"
    clip-rule="evenodd"
    d="M15.999 0.5C24.559 0.5 31.4989 7.43912 31.499 15.999C31.499 24.5591 24.5591 31.499 15.999 31.499C7.43912 31.4989 0.5 24.559 0.5 15.999C0.50016 7.43922 7.43922 0.50016 15.999 0.5ZM12.2002 12C11.786 12 11.4492 12.3358 11.4492 12.75C11.4492 13.1642 11.786 13.5 12.2002 13.5H15.501V22.5322H12.1992C11.7853 22.5325 11.4494 22.8683 11.4492 23.2822C11.4492 23.6964 11.786 24.0322 12.2002 24.0322H19.7998C20.2138 24.032 20.5498 23.6963 20.5498 23.2822C20.5497 22.8681 20.213 22.5322 19.7988 22.5322H17.001V12.75C17.001 12.3361 16.6647 12.0005 16.251 12H12.2002ZM16 7C15.1716 7 14.5 7.67157 14.5 8.5C14.5 9.32843 15.1716 10 16 10C16.8284 10 17.5 9.32843 17.5 8.5C17.5 7.67157 16.8284 7 16 7Z"
    fill="currentColor"
  />
</svg>
