<svg width="20" height="20" viewBox="0 0 20 20" fill="none" xmlns="http://www.w3.org/2000/svg" data-fui-icon="true">
  <path
    d="M15.6797 1C17.5133 1 19 2.48673 19 4.32031V15.6797C19 17.5133 17.5133 19 15.6797 19H4.32031C2.48673 19 1 17.5133 1 15.6797V4.32031C1 2.48673 2.48673 1 4.32031 1H15.6797ZM4.32031 2.5C3.31515 2.5 2.5 3.31515 2.5 4.32031V15.6797C2.5 16.6848 3.31515 17.5 4.32031 17.5H15.6797C16.6848 17.5 17.5 16.6848 17.5 15.6797V4.32031C17.5 3.31515 16.6848 2.5 15.6797 2.5H4.32031ZM10 8C10.4142 8 10.75 8.33579 10.75 8.75V13.5H12.25C12.6642 13.5001 13 13.8358 13 14.25C12.9999 14.6641 12.6641 14.9999 12.25 15H7.75C7.33583 15 7.00007 14.6642 7 14.25C7 13.8358 7.33579 13.5 7.75 13.5H9.25V9.5H7.75C7.33579 9.5 7 9.16421 7 8.75C7 8.33579 7.33579 8 7.75 8H10ZM10 5.00391C10.5522 5.00391 10.9999 5.45168 11 6.00391C11 6.55619 10.5523 7.00391 10 7.00391C9.44771 7.00391 9 6.55619 9 6.00391C9.00007 5.45168 9.44776 5.00391 10 5.00391Z"
    fill="currentColor"
  />
</svg>
