<svg width="20" height="20" viewBox="0 0 20 20" fill="none" xmlns="http://www.w3.org/2000/svg" data-fui-icon="true">
  <path
    d="M13.6504 1C16.6048 1.00021 18.9998 3.3952 19 6.34961V13.6504C18.9998 16.6048 16.6048 18.9998 13.6504 19H6.34961C3.3952 18.9998 1.00021 16.6048 1 13.6504V6.34961C1.00021 3.3952 3.3952 1.00021 6.34961 1H13.6504ZM10.001 8.5C9.58689 8.5 9.25117 8.83595 9.25098 9.25V14.25C9.25117 14.664 9.58689 15 10.001 15C10.4146 14.9995 10.7508 14.6637 10.751 14.25V9.25C10.7508 8.83628 10.4146 8.50053 10.001 8.5ZM10.001 5C9.44881 5 9.00117 5.44788 9.00098 6C9.00117 6.55212 9.44881 7 10.001 7C10.5527 6.99947 11.0008 6.55179 11.001 6C11.0008 5.44821 10.5527 5.00053 10.001 5Z"
    fill="currentColor"
  />
</svg>
