<svg width="24" height="24" viewBox="0 0 24 24" fill="none" xmlns="http://www.w3.org/2000/svg" data-fui-icon="true">
  <path
    d="M12 1C18.0751 1 23 5.92487 23 12C23 18.0751 18.0751 23 12 23C5.92487 23 1 18.0751 1 12C1 5.92487 5.92487 1 12 1ZM9.75 9C9.33579 9 9 9.33579 9 9.75C9 10.1642 9.33579 10.5 9.75 10.5H11.25V16.5H9.75C9.33579 16.5 9 16.8358 9 17.25C9.00007 17.6642 9.33583 18 9.75 18H14.25C14.6641 17.9999 14.9999 17.6641 15 17.25C15 16.8358 14.6642 16.5001 14.25 16.5H12.75V9.75C12.75 9.33579 12.4142 9 12 9H9.75ZM12 6.00391C11.4478 6.00391 11.0001 6.45168 11 7.00391C11 7.55619 11.4477 8.00391 12 8.00391C12.5523 8.00391 13 7.55619 13 7.00391C12.9999 6.45168 12.5522 6.00391 12 6.00391Z"
    fill="currentColor"
  />
</svg>
