<svg width="16" height="16" viewBox="0 0 16 16" fill="none" xmlns="http://www.w3.org/2000/svg" data-fui-icon="true">
  <path
    d="M8 0.5C12.1421 0.5 15.5 3.85786 15.5 8C15.5 12.1421 12.1421 15.5 8 15.5C3.85786 15.5 0.5 12.1421 0.5 8C0.5 3.85786 3.85786 0.5 8 0.5ZM8 2.5C4.96243 2.5 2.5 4.96243 2.5 8C2.5 11.0376 4.96243 13.5 8 13.5C11.0376 13.5 13.5 11.0376 13.5 8C13.5 4.96243 11.0376 2.5 8 2.5ZM8.25 7C8.80228 7 9.25 7.44772 9.25 8V10H9.3252C9.87739 10.0001 10.3252 10.4478 10.3252 11C10.3252 11.5522 9.87739 11.9999 9.3252 12H7C6.44772 12 6 11.5523 6 11C6 10.4477 6.44772 10 7 10H7.25V9H7C6.44772 9 6 8.55228 6 8C6 7.44772 6.44772 7 7 7H8.25ZM8 4.00391C8.69032 4.00391 9.24993 4.56361 9.25 5.25391C9.25 5.94426 8.69036 6.50391 8 6.50391C7.30964 6.50391 6.75 5.94426 6.75 5.25391C6.75007 4.56361 7.30968 4.00391 8 4.00391Z"
    fill="currentColor"
  />
</svg>
