<svg width="16" height="16" viewBox="0 0 16 16" fill="none" xmlns="http://www.w3.org/2000/svg" data-fui-icon="true">
  <path
    d="M8 0C12.4183 0 16 3.58172 16 8C16 12.4183 12.4183 16 8 16C3.58172 16 0 12.4183 0 8C0 3.58172 3.58172 0 8 0ZM8 1.5C4.41015 1.5 1.5 4.41015 1.5 8C1.5 11.5899 4.41015 14.5 8 14.5C11.5899 14.5 14.5 11.5899 14.5 8C14.5 4.41015 11.5899 1.5 8 1.5ZM8.32715 7.00391C8.70512 7.04253 9 7.36183 9 7.75V10.5H9.75C10.1642 10.5 10.5 10.8358 10.5 11.25C10.4999 11.6642 10.1642 12 9.75 12H6.25C5.83583 12 5.50007 11.6642 5.5 11.25C5.5 10.8358 5.83579 10.5 6.25 10.5H7.5V8.5H6.25C5.83579 8.5 5.5 8.16421 5.5 7.75C5.5 7.33579 5.83579 7 6.25 7H8.25L8.32715 7.00391ZM8 4.00391C8.55224 4.00391 8.99993 4.45168 9 5.00391C9 5.55619 8.55228 6.00391 8 6.00391C7.44772 6.00391 7 5.55619 7 5.00391C7.00007 4.45168 7.44776 4.00391 8 4.00391Z"
    fill="currentColor"
  />
</svg>
