<svg width="32" height="32" viewBox="0 0 32 32" fill="none" xmlns="http://www.w3.org/2000/svg" data-fui-icon="true">
  <path
    d="M16 0.5C24.5604 0.5 31.5 7.43959 31.5 16C31.5 24.5604 24.5604 31.5 16 31.5C7.43959 31.5 0.5 24.5604 0.5 16C0.5 7.43959 7.43959 0.5 16 0.5ZM16 2C8.26801 2 2 8.26801 2 16C2 23.732 8.26801 30 16 30C23.732 30 30 23.732 30 16C30 8.26801 23.732 2 16 2ZM16.251 12C16.6647 12.0005 17.001 12.3361 17.001 12.75V22.5322H19.7988C20.213 22.5322 20.5497 22.8681 20.5498 23.2822C20.5498 23.6963 20.2138 24.032 19.7998 24.0322H12.2002C11.786 24.0322 11.4502 23.6964 11.4502 23.2822C11.4503 22.8683 11.7853 22.5325 12.1992 22.5322H15.501V13.5H12.2002C11.786 13.5 11.4502 13.1642 11.4502 12.75C11.4502 12.3358 11.786 12 12.2002 12H16.251ZM16 7C16.8284 7 17.5 7.67157 17.5 8.5C17.5 9.32843 16.8284 10 16 10C15.1716 10 14.5 9.32843 14.5 8.5C14.5 7.67157 15.1716 7 16 7Z"
    fill="currentColor"
  />
</svg>
