<svg width="16" height="16" viewBox="0 0 16 16" fill="none" xmlns="http://www.w3.org/2000/svg" data-fui-icon="true">
  <path
    d="M12.75 0C14.5449 0 16 1.45507 16 3.25V12.75C16 14.5449 14.5449 16 12.75 16H3.25C1.45507 16 0 14.5449 0 12.75V3.25C0 1.45507 1.45507 0 3.25 0H12.75ZM3.25 1.5C2.2835 1.5 1.5 2.2835 1.5 3.25V12.75C1.5 13.7165 2.2835 14.5 3.25 14.5H12.75C13.7165 14.5 14.5 13.7165 14.5 12.75V3.25C14.5 2.2835 13.7165 1.5 12.75 1.5H3.25ZM8 7C8.41421 7 8.75 7.33579 8.75 7.75V10.5H9.25C9.66417 10.5001 10 10.8358 10 11.25C9.99993 11.6641 9.66413 11.9999 9.25 12H6.75C6.33583 12 6.00007 11.6642 6 11.25C6 10.8358 6.33579 10.5 6.75 10.5H7.25V8.5H6.75C6.33579 8.5 6 8.16421 6 7.75C6 7.33579 6.33579 7 6.75 7H8ZM8 4.00391C8.55224 4.00391 8.99993 4.45168 9 5.00391C9 5.55619 8.55228 6.00391 8 6.00391C7.44772 6.00391 7 5.55619 7 5.00391C7.00007 4.45168 7.44776 4.00391 8 4.00391Z"
    fill="currentColor"
  />
</svg>
