<svg width="24" height="24" viewBox="0 0 24 24" fill="none" xmlns="http://www.w3.org/2000/svg" data-fui-icon="true">
  <path
    d="M13.75 9C14.1642 9 14.5 9.33579 14.5 9.75V20.5H15.25C15.6642 20.5 16 20.8358 16 21.25C16 21.6642 15.6642 22 15.25 22H8.75C8.33579 22 8 21.6642 8 21.25C8 20.8358 8.33579 20.5 8.75 20.5H9.5V10.5H8.75C8.33579 10.5 8 10.1642 8 9.75C8 9.33579 8.33579 9 8.75 9H13.75ZM11 20.5H13V10.5H11V20.5ZM12 2C13.6569 2 15 3.34315 15 5C15 6.65685 13.6569 8 12 8C10.3431 8 9 6.65685 9 5C9 3.34315 10.3431 2 12 2ZM12 3.5C11.1716 3.5 10.5 4.17157 10.5 5C10.5 5.82843 11.1716 6.5 12 6.5C12.8284 6.5 13.5 5.82843 13.5 5C13.5 4.17157 12.8284 3.5 12 3.5Z"
    fill="currentColor"
  />
</svg>
