<svg width="32" height="32" viewBox="0 0 32 32" fill="none" xmlns="http://www.w3.org/2000/svg" data-fui-icon="true">
  <path
    fill-rule="evenodd"
    clip-rule="evenodd"
    d="M15.999 0.5C24.559 0.5 31.4989 7.43912 31.499 15.999C31.499 24.5591 24.5591 31.499 15.999 31.499C7.43912 31.4989 0.5 24.559 0.5 15.999C0.50016 7.43922 7.43922 0.50016 15.999 0.5ZM15.999 2C8.26765 2.00016 2.00016 8.26765 2 15.999C2 23.7305 8.26755 29.9989 15.999 29.999C23.7306 29.999 29.999 23.7306 29.999 15.999C29.9989 8.26755 23.7305 2 15.999 2ZM16.251 12C16.6647 12.0005 17.001 12.3361 17.001 12.75V22.5322H19.7988C20.213 22.5322 20.5497 22.8681 20.5498 23.2822C20.5498 23.6963 20.2138 24.032 19.7998 24.0322H12.2002C11.786 24.0322 11.4492 23.6964 11.4492 23.2822C11.4494 22.8683 11.7853 22.5325 12.1992 22.5322H15.501V13.5H12.2002C11.786 13.5 11.4492 13.1642 11.4492 12.75C11.4492 12.3358 11.786 12 12.2002 12H16.251ZM16 7C16.8284 7 17.5 7.67157 17.5 8.5C17.5 9.32843 16.8284 10 16 10C15.1716 10 14.5 9.32843 14.5 8.5C14.5 7.67157 15.1716 7 16 7Z"
    fill="currentColor"
  />
</svg>
