<svg width="16" height="16" viewBox="0 0 16 16" fill="none" xmlns="http://www.w3.org/2000/svg" data-fui-icon="true">
  <path
    d="M9.25 6C9.66421 6 10 6.33579 10 6.75V13.5H10.25C10.6642 13.5 11 13.8358 11 14.25C11 14.6642 10.6642 15 10.25 15H5.75C5.33579 15 5 14.6642 5 14.25C5 13.8358 5.33579 13.5 5.75 13.5H6V7.5H5.75C5.33579 7.5 5 7.16421 5 6.75C5 6.33579 5.33579 6 5.75 6H9.25ZM7.5 13.5H8.5V7.5H7.5V13.5ZM7.75 1C8.99264 1 10 2.00736 10 3.25C10 4.49264 8.99264 5.5 7.75 5.5C6.50736 5.5 5.5 4.49264 5.5 3.25C5.5 2.00736 6.50736 1 7.75 1ZM7.75 2.5C7.33579 2.5 7 2.83579 7 3.25C7 3.66421 7.33579 4 7.75 4C8.16421 4 8.5 3.66421 8.5 3.25C8.5 2.83579 8.16421 2.5 7.75 2.5Z"
    fill="currentColor"
  />
</svg>
