<svg width="32" height="32" viewBox="0 0 32 32" fill="none" xmlns="http://www.w3.org/2000/svg" data-fui-icon="true">
  <path
    d="M16 1C24.2843 1 31 7.71573 31 16C31 24.2843 24.2843 31 16 31C7.71573 31 1 24.2843 1 16C1 7.71573 7.71573 1 16 1ZM16 3C8.8203 3 3 8.8203 3 16C3 23.1797 8.8203 29 16 29C23.1797 29 29 23.1797 29 16C29 8.8203 23.1797 3 16 3ZM16.251 12C16.8028 12.0005 17.251 12.448 17.251 13V22H19.7988C20.3511 22 20.7988 22.4477 20.7988 23C20.7988 23.5523 20.3511 24 19.7988 24H12.1992C11.6469 24 11.1992 23.5523 11.1992 23C11.1992 22.4477 11.6469 22 12.1992 22H15.251V14H12.2002C11.6479 14 11.2002 13.5523 11.2002 13C11.2002 12.4477 11.6479 12 12.2002 12H16.251ZM16 7C16.8284 7 17.5 7.67157 17.5 8.5C17.5 9.32843 16.8284 10 16 10C15.1716 10 14.5 9.32843 14.5 8.5C14.5 7.67157 15.1716 7 16 7Z"
    fill="currentColor"
  />
</svg>
