<svg width="12" height="12" viewBox="0 0 12 12" fill="none" xmlns="http://www.w3.org/2000/svg" data-fui-icon="true">
  <path
    d="M9.75 0C10.9926 0 12 1.00736 12 2.25V9.75C12 10.9926 10.9926 12 9.75 12H2.25C1.00736 12 0 10.9926 0 9.75V2.25C6.44266e-08 1.00736 1.00736 6.44255e-08 2.25 0H9.75ZM2.25 1.5C1.83579 1.5 1.5 1.83579 1.5 2.25V9.75C1.5 10.1642 1.83579 10.5 2.25 10.5H9.75C10.1642 10.5 10.5 10.1642 10.5 9.75V2.25C10.5 1.83579 10.1642 1.5 9.75 1.5H2.25ZM6 4.5C6.41421 4.5 6.75 4.83579 6.75 5.25V7.5H7.25C7.66417 7.50005 8 7.83582 8 8.25C7.99993 8.66412 7.66413 8.99995 7.25 9H4.75C4.33583 9 4.00007 8.66416 4 8.25C4 7.83579 4.33579 7.5 4.75 7.5H5.25V6H4.75C4.33579 6 4 5.66421 4 5.25C4 4.83579 4.33579 4.5 4.75 4.5H6ZM5.75 2.50391C6.16417 2.50391 6.49993 2.83975 6.5 3.25391C6.5 3.66812 6.16421 4.00391 5.75 4.00391C5.33579 4.00391 5 3.66812 5 3.25391C5.00007 2.83975 5.33583 2.50391 5.75 2.50391Z"
    fill="currentColor"
  />
</svg>
