<svg width="24" height="24" viewBox="0 0 24 24" fill="none" xmlns="http://www.w3.org/2000/svg" data-fui-icon="true">
  <path
    d="M18.6797 2C20.5133 2 22 3.48673 22 5.32031V18.6797C22 20.5133 20.5133 22 18.6797 22H5.32031C3.48673 22 2 20.5133 2 18.6797V5.32031C2 3.48673 3.48673 2 5.32031 2H18.6797ZM5.32031 3.5C4.31515 3.5 3.5 4.31515 3.5 5.32031V18.6797C3.5 19.6848 4.31515 20.5 5.32031 20.5H18.6797C19.6848 20.5 20.5 19.6848 20.5 18.6797V5.32031C20.5 4.31515 19.6848 3.5 18.6797 3.5H5.32031ZM12 9C12.4142 9 12.75 9.33579 12.75 9.75V16.5H14.25C14.6642 16.5001 15 16.8358 15 17.25C14.9999 17.6641 14.6641 17.9999 14.25 18H9.75C9.33583 18 9.00007 17.6642 9 17.25C9 16.8358 9.33579 16.5 9.75 16.5H11.25V10.5H9.75C9.33579 10.5 9 10.1642 9 9.75C9 9.33579 9.33579 9 9.75 9H12ZM12 6.00391C12.5522 6.00391 12.9999 6.45168 13 7.00391C13 7.55619 12.5523 8.00391 12 8.00391C11.4477 8.00391 11 7.55619 11 7.00391C11.0001 6.45168 11.4478 6.00391 12 6.00391Z"
    fill="currentColor"
  />
</svg>
