<svg width="32" height="32" viewBox="0 0 32 32" fill="none" xmlns="http://www.w3.org/2000/svg" data-fui-icon="true">
  <path
    d="M16 0.5C24.5604 0.5 31.5 7.43959 31.5 16C31.5 24.5604 24.5604 31.5 16 31.5C7.43959 31.5 0.5 24.5604 0.5 16C0.5 7.43959 7.43959 0.5 16 0.5ZM12.501 12.5C11.9487 12.5 11.501 12.9477 11.501 13.5C11.501 14.0523 11.9487 14.5 12.501 14.5H15.001V21.5H12.5C11.9477 21.5 11.5 21.9477 11.5 22.5C11.5 23.0523 11.9477 23.5 12.5 23.5H19.5C20.0523 23.5 20.5 23.0523 20.5 22.5C20.5 21.9477 20.0523 21.5 19.5 21.5H17.001V13.5C17.001 12.9479 16.553 12.5003 16.001 12.5H12.501ZM16 7C15.0335 7 14.25 7.7835 14.25 8.75C14.25 9.7165 15.0335 10.5 16 10.5C16.9665 10.5 17.75 9.7165 17.75 8.75C17.75 7.7835 16.9665 7 16 7Z"
    fill="currentColor"
  />
</svg>
