<svg width="24" height="24" viewBox="0 0 24 24" fill="none" xmlns="http://www.w3.org/2000/svg" data-fui-icon="true">
  <path
    d="M12 0.5C18.3513 0.5 23.5 5.64873 23.5 12C23.5 18.3513 18.3513 23.5 12 23.5C5.64873 23.5 0.5 18.3513 0.5 12C0.5 5.64873 5.64873 0.5 12 0.5ZM9.5 9.5C8.94771 9.5 8.5 9.94771 8.5 10.5C8.5 11.0523 8.94771 11.5 9.5 11.5H11V15.5H9.5C8.94772 15.5 8.5 15.9477 8.5 16.5C8.5 17.0523 8.94772 17.5 9.5 17.5H14.5C15.0523 17.5 15.5 17.0523 15.5 16.5C15.5 15.9477 15.0523 15.5 14.5 15.5H13V10.5C13 9.94771 12.5523 9.5 12 9.5H9.5ZM12 4.5C11.0335 4.5 10.25 5.2835 10.25 6.25C10.25 7.2165 11.0335 8 12 8C12.9665 8 13.75 7.2165 13.75 6.25C13.75 5.2835 12.9665 4.5 12 4.5Z"
    fill="currentColor"
  />
</svg>
