<svg width="12" height="12" viewBox="0 0 12 12" fill="none" xmlns="http://www.w3.org/2000/svg" data-fui-icon="true">
  <path
    d="M6 0C9.31371 0 12 2.68629 12 6C12 9.31371 9.31371 12 6 12C2.68629 12 0 9.31371 0 6C0 2.68629 2.68629 0 6 0ZM6 1.5C3.51472 1.5 1.5 3.51472 1.5 6C1.5 8.48528 3.51472 10.5 6 10.5C8.48528 10.5 10.5 8.48528 10.5 6C10.5 3.51472 8.48528 1.5 6 1.5ZM6 5.5C6.41421 5.5 6.75 5.83579 6.75 6.25V8.25C6.74995 8.66417 6.41418 9 6 9C5.58582 9 5.25005 8.66417 5.25 8.25V6.25C5.25 5.83579 5.58579 5.5 6 5.5ZM6 2.75C6.49706 2.75 6.90039 3.15333 6.90039 3.65039C6.90018 4.14727 6.49693 4.5498 6 4.5498C5.50307 4.5498 5.09982 4.14727 5.09961 3.65039C5.09961 3.15333 5.50294 2.75 6 2.75Z"
    fill="currentColor"
  />
</svg>
