<svg width="20" height="20" viewBox="0 0 20 20" fill="none" xmlns="http://www.w3.org/2000/svg" data-fui-icon="true">
  <path
    d="M10 0C15.5228 0 20 4.47715 20 10C20 15.5228 15.5228 20 10 20C4.47715 20 0 15.5228 0 10C0 4.47715 4.47715 0 10 0ZM7.75 8C7.33579 8 7 8.33579 7 8.75C7 9.16421 7.33579 9.5 7.75 9.5H9.25V13.5H7.75C7.33579 13.5 7 13.8358 7 14.25C7.00007 14.6642 7.33583 15 7.75 15H12.25C12.6641 14.9999 12.9999 14.6641 13 14.25C13 13.8358 12.6642 13.5001 12.25 13.5H10.75V8.75C10.75 8.33579 10.4142 8 10 8H7.75ZM10 5.00391C9.44776 5.00391 9.00007 5.45168 9 6.00391C9 6.55619 9.44771 7.00391 10 7.00391C10.5523 7.00391 11 6.55619 11 6.00391C10.9999 5.45168 10.5522 5.00391 10 5.00391Z"
    fill="currentColor"
  />
</svg>
