<svg width="32" height="32" viewBox="0 0 32 32" fill="none" xmlns="http://www.w3.org/2000/svg" data-fui-icon="true">
  <path
    d="M15.999 1C24.2827 1 30.9987 7.71537 30.999 15.999C30.999 24.2829 24.2829 30.999 15.999 30.999C7.71537 30.9987 1 24.2827 1 15.999C1.00028 7.71554 7.71554 1.00028 15.999 1ZM15.999 2.5C8.54396 2.50028 2.50028 8.54396 2.5 15.999C2.5 23.4543 8.54379 29.4987 15.999 29.499C23.4545 29.499 29.499 23.4545 29.499 15.999C29.4987 8.54379 23.4543 2.5 15.999 2.5ZM16.251 12C16.6647 12.0005 17.001 12.3361 17.001 12.75V22.5322H19.7988C20.213 22.5322 20.5497 22.8681 20.5498 23.2822C20.5498 23.6963 20.2138 24.032 19.7998 24.0322H12.2002C11.786 24.0322 11.4492 23.6964 11.4492 23.2822C11.4494 22.8683 11.7853 22.5325 12.1992 22.5322H15.501V13.5H12.2002C11.786 13.5 11.4492 13.1642 11.4492 12.75C11.4492 12.3358 11.786 12 12.2002 12H16.251ZM16 7C16.8284 7 17.5 7.67157 17.5 8.5C17.5 9.32843 16.8284 10 16 10C15.1716 10 14.5 9.32843 14.5 8.5C14.5 7.67157 15.1716 7 16 7Z"
    fill="currentColor"
  />
</svg>
