<svg width="16" height="16" viewBox="0 0 16 16" fill="none" xmlns="http://www.w3.org/2000/svg" data-fui-icon="true">
  <path
    d="M10.5 1C12.9853 1 15 3.01472 15 5.5V10.5C15 12.9853 12.9853 15 10.5 15H5.5C3.01472 15 1 12.9853 1 10.5V5.5C1 3.01472 3.01472 1 5.5 1H10.5ZM5.5 3C4.11929 3 3 4.11929 3 5.5V10.5C3 11.8807 4.11929 13 5.5 13H10.5C11.8807 13 13 11.8807 13 10.5V5.5C13 4.11929 11.8807 3 10.5 3H5.5ZM7.99707 7.25C8.54936 7.25 8.99707 7.69772 8.99707 8.25V11C8.99707 11.5523 8.54935 12 7.99707 12C7.44479 12 6.99707 11.5523 6.99707 11V8.25C6.99707 7.69772 7.44479 7.25 7.99707 7.25ZM8 4C8.55228 4 9 4.44772 9 5C9 5.55228 8.55228 6 8 6C7.44772 6 7 5.55228 7 5C7 4.44772 7.44772 4 8 4Z"
    fill="currentColor"
  />
</svg>
