<svg width="24" height="24" viewBox="0 0 24 24" fill="none" xmlns="http://www.w3.org/2000/svg" data-fui-icon="true">
  <path
    d="M12 0.5C18.3513 0.5 23.5 5.64873 23.5 12C23.5 18.3513 18.3513 23.5 12 23.5C5.64873 23.5 0.5 18.3513 0.5 12C0.5 5.64873 5.64873 0.5 12 0.5ZM12 2C6.47715 2 2 6.47715 2 12C2 17.5228 6.47715 22 12 22C17.5228 22 22 17.5228 22 12C22 6.47715 17.5228 2 12 2ZM12.001 10.25C12.4146 10.2505 12.7508 10.5863 12.751 11V17.25C12.7508 17.6637 12.4146 17.9995 12.001 18C11.5869 18 11.2512 17.664 11.251 17.25V11C11.2512 10.586 11.5869 10.25 12.001 10.25ZM12.001 6C12.6079 6.00053 13.1004 6.4926 13.1006 7.09961C13.1006 7.7068 12.608 8.19869 12.001 8.19922C11.3935 8.19922 10.9004 7.70712 10.9004 7.09961C10.9006 6.49228 11.3936 6 12.001 6Z"
    fill="currentColor"
  />
</svg>
