<svg width="16" height="16" viewBox="0 0 16 16" fill="none" xmlns="http://www.w3.org/2000/svg" data-fui-icon="true">
  <path
    d="M8 0.5C12.1421 0.5 15.5 3.85786 15.5 8C15.5 12.1421 12.1421 15.5 8 15.5C3.85786 15.5 0.5 12.1421 0.5 8C0.5 3.85786 3.85786 0.5 8 0.5ZM7 7C6.44772 7 6 7.44772 6 8C6 8.55229 6.44772 9 7 9H7.25V10H7C6.44772 10 6 10.4477 6 11C6 11.5523 6.44772 12 7 12H9.3252C9.87739 11.9999 10.3252 11.5522 10.3252 11C10.3252 10.4478 9.87739 10.0001 9.3252 10H9.25V8C9.25 7.44772 8.80228 7 8.25 7H7ZM8 3.5C7.17157 3.5 6.5 4.17157 6.5 5C6.5 5.82843 7.17157 6.5 8 6.5C8.82843 6.5 9.5 5.82843 9.5 5C9.5 4.17157 8.82843 3.5 8 3.5Z"
    fill="currentColor"
  />
</svg>
