<svg width="20" height="20" viewBox="0 0 20 20" fill="none" xmlns="http://www.w3.org/2000/svg" data-fui-icon="true">
  <path
    d="M10 1C14.9705 1 18.9999 5.02949 19 10C19 14.9706 14.9706 19 10 19C5.02944 19 1 14.9706 1 10C1.00007 5.02949 5.02948 1 10 1ZM10 2.5C5.8579 2.5 2.50007 5.85792 2.5 10C2.5 14.1421 5.85786 17.5 10 17.5C14.1421 17.5 17.5 14.1421 17.5 10C17.4999 5.85792 14.1421 2.5 10 2.5ZM10.249 7.75C10.6632 7.75 10.999 8.08579 10.999 8.5V13.5H12.25C12.6642 13.5 13 13.8358 13 14.25C13 14.6642 12.6642 15 12.25 15H7.75C7.33579 15 7 14.6642 7 14.25C7 13.8358 7.33579 13.5 7.75 13.5H9.49902V9.25H7.75C7.33579 9.25 7 8.91421 7 8.5C7 8.08579 7.33579 7.75 7.75 7.75H10.249ZM10 4.5C10.5523 4.5 11 4.94772 11 5.5C11 6.05228 10.5523 6.5 10 6.5C9.44771 6.5 9 6.05228 9 5.5C9 4.94772 9.44771 4.5 10 4.5Z"
    fill="currentColor"
  />
</svg>
