<svg width="16" height="16" viewBox="0 0 16 16" fill="none" xmlns="http://www.w3.org/2000/svg" data-fui-icon="true">
  <path
    d="M8 0.5C12.1421 0.5 15.5 3.85786 15.5 8C15.5 12.1421 12.1421 15.5 8 15.5C3.85786 15.5 0.5 12.1421 0.5 8C0.5 3.85786 3.85786 0.5 8 0.5ZM6.5 7C6.08579 7 5.75 7.33579 5.75 7.75C5.75 8.16421 6.08579 8.5 6.5 8.5H7.5V10.5H6.5C6.08579 10.5 5.75 10.8358 5.75 11.25C5.75007 11.6642 6.08583 12 6.5 12H9.5C9.91417 12 10.2499 11.6642 10.25 11.25C10.25 10.8358 9.91421 10.5 9.5 10.5H9V7.75C9 7.33579 8.66421 7 8.25 7H6.5ZM8 4.00391C7.44776 4.00391 7.00007 4.45168 7 5.00391C7 5.55619 7.44772 6.00391 8 6.00391C8.55229 6.00391 9 5.55619 9 5.00391C8.99993 4.45168 8.55224 4.00391 8 4.00391Z"
    fill="currentColor"
  />
</svg>
