<svg width="20" height="20" viewBox="0 0 20 20" fill="none" xmlns="http://www.w3.org/2000/svg" data-fui-icon="true">
  <path
    d="M10 0.5C15.2467 0.5 19.5 4.75329 19.5 10C19.5 15.2467 15.2467 19.5 10 19.5C4.75329 19.5 0.5 15.2467 0.5 10C0.5 4.75329 4.75329 0.5 10 0.5ZM10 2.5C5.85786 2.5 2.5 5.85786 2.5 10C2.5 14.1421 5.85786 17.5 10 17.5C14.1421 17.5 17.5 14.1421 17.5 10C17.5 5.85786 14.1421 2.5 10 2.5ZM10 8.5C10.5519 8.50026 10.9998 8.94805 11 9.5V14C10.9998 14.552 10.5519 14.9997 10 15C9.44784 15 8.99922 14.5521 8.99902 14V9.5C8.99922 8.94788 9.44784 8.5 10 8.5ZM10 5C10.5519 5.00026 10.9998 5.44805 11 6C10.9998 6.55195 10.5519 6.99974 10 7C9.44784 7 8.99922 6.55212 8.99902 6C8.99922 5.44788 9.44784 5 10 5Z"
    fill="currentColor"
  />
</svg>
