<svg width="24" height="24" viewBox="0 0 24 24" fill="none" xmlns="http://www.w3.org/2000/svg" data-fui-icon="true">
  <path
    fill-rule="evenodd"
    clip-rule="evenodd"
    d="M12 1C18.0751 1 23 5.92487 23 12C23 18.0751 18.0751 23 12 23C5.92487 23 1 18.0751 1 12C1 5.92487 5.92487 1 12 1ZM12 2.5C6.75329 2.5 2.5 6.75329 2.5 12C2.5 17.2467 6.75329 21.5 12 21.5C17.2467 21.5 21.5 17.2467 21.5 12C21.5 6.75329 17.2467 2.5 12 2.5ZM12.25 9C12.6642 9 13 9.33579 13 9.75V17H15C15.4142 17 15.75 17.3358 15.75 17.75C15.75 18.1642 15.4142 18.5 15 18.5H9C8.58579 18.5 8.25 18.1642 8.25 17.75C8.25 17.3358 8.58579 17 9 17H11.5V10.5H9C8.58579 10.5 8.25 10.1642 8.25 9.75C8.25 9.33579 8.58579 9 9 9H12.25ZM12 5C12.6904 5 13.25 5.55964 13.25 6.25C13.25 6.94036 12.6904 7.5 12 7.5C11.3096 7.5 10.75 6.94036 10.75 6.25C10.75 5.55964 11.3096 5 12 5Z"
    fill="currentColor"
  />
</svg>
