<svg width="32" height="32" viewBox="0 0 32 32" fill="none" xmlns="http://www.w3.org/2000/svg" data-fui-icon="true">
  <path
    d="M16 0.5C24.5604 0.5 31.5 7.43959 31.5 16C31.5 24.5604 24.5604 31.5 16 31.5C7.43959 31.5 0.5 24.5604 0.5 16C0.5 7.43959 7.43959 0.5 16 0.5ZM12.1992 12C11.6469 12 11.1992 12.4477 11.1992 13C11.1992 13.5523 11.6469 14 12.1992 14H15.25V22H12.1992C11.6469 22 11.1992 22.4477 11.1992 23C11.1992 23.5523 11.6469 24 12.1992 24H19.7988C20.3511 24 20.7988 23.5523 20.7988 23C20.7988 22.4477 20.3511 22 19.7988 22H17.25V13C17.25 12.4479 16.8021 12.0003 16.25 12H12.1992ZM16 7C15.1716 7 14.5 7.67157 14.5 8.5C14.5 9.32843 15.1716 10 16 10C16.8284 10 17.5 9.32843 17.5 8.5C17.5 7.67157 16.8284 7 16 7Z"
    fill="currentColor"
  />
</svg>
