<svg width="20" height="20" viewBox="0 0 20 20" fill="none" xmlns="http://www.w3.org/2000/svg" data-fui-icon="true">
  <path
    d="M10 1C14.9706 1 19 5.02944 19 10C19 14.9706 14.9706 19 10 19C5.02944 19 1 14.9706 1 10C1 5.02944 5.02944 1 10 1ZM10 3C6.13401 3 3 6.13401 3 10C3 13.866 6.13401 17 10 17C13.866 17 17 13.866 17 10C17 6.13401 13.866 3 10 3ZM10.249 8C10.8013 8 11.249 8.44772 11.249 9V13H12C12.5523 13 13 13.4477 13 14C13 14.5523 12.5523 15 12 15H8C7.44772 15 7 14.5523 7 14C7 13.4477 7.44772 13 8 13H9.24902V10H8C7.44772 10 7 9.55229 7 9C7 8.44772 7.44772 8 8 8H10.249ZM10 4.5C10.6904 4.5 11.25 5.05964 11.25 5.75C11.25 6.44036 10.6904 7 10 7C9.30964 7 8.75 6.44036 8.75 5.75C8.75 5.05964 9.30964 4.5 10 4.5Z"
    fill="currentColor"
  />
</svg>
