<svg width="32" height="32" viewBox="0 0 32 32" fill="none" xmlns="http://www.w3.org/2000/svg" data-fui-icon="true">
  <path
    d="M16 0.5C24.5604 0.5 31.5 7.43959 31.5 16C31.5 24.5604 24.5604 31.5 16 31.5C7.43959 31.5 0.5 24.5604 0.5 16C0.5 7.43959 7.43959 0.5 16 0.5ZM16 2.5C8.54416 2.5 2.5 8.54416 2.5 16C2.5 23.4558 8.54416 29.5 16 29.5C23.4558 29.5 29.5 23.4558 29.5 16C29.5 8.54416 23.4558 2.5 16 2.5ZM16.001 13C16.5529 13.0003 17.0008 13.448 17.001 14V23C17.0008 23.552 16.5529 23.9997 16.001 24C15.4488 24 15.0012 23.5521 15.001 23V14C15.0012 13.4479 15.4488 13 16.001 13ZM16.001 8C16.691 8.00026 17.2508 8.55998 17.251 9.25C17.2508 9.94003 16.691 10.4997 16.001 10.5C15.3107 10.5 14.7512 9.94019 14.751 9.25C14.7512 8.55981 15.3107 8 16.001 8Z"
    fill="currentColor"
  />
</svg>
