<svg width="20" height="20" viewBox="0 0 20 20" fill="none" xmlns="http://www.w3.org/2000/svg" data-fui-icon="true">
  <path
    d="M10 0.5C15.2467 0.5 19.5 4.75329 19.5 10C19.5 15.2467 15.2467 19.5 10 19.5C4.75329 19.5 0.5 15.2467 0.5 10C0.5 4.75329 4.75329 0.5 10 0.5ZM10.001 8.5C9.58689 8.5 9.25117 8.83595 9.25098 9.25V14.25C9.25117 14.664 9.58689 15 10.001 15C10.4146 14.9995 10.7508 14.6637 10.751 14.25V9.25C10.7508 8.83628 10.4146 8.50053 10.001 8.5ZM10.001 5C9.44881 5 9.0002 5.44788 9 6C9.0002 6.55212 9.44881 7 10.001 7C10.5527 6.99947 11.0008 6.55179 11.001 6C11.0008 5.44821 10.5527 5.00053 10.001 5Z"
    fill="currentColor"
  />
</svg>
