<svg width="32" height="32" viewBox="0 0 32 32" fill="none" xmlns="http://www.w3.org/2000/svg" data-fui-icon="true">
  <path
    d="M22.5 1C27.1944 1 31 4.80558 31 9.5V22.5C31 27.1944 27.1944 31 22.5 31H9.5C4.80558 31 1 27.1944 1 22.5V9.5C1 4.80558 4.80558 1 9.5 1H22.5ZM9.5 3C5.91015 3 3 5.91015 3 9.5V22.5C3 26.0899 5.91015 29 9.5 29H22.5C26.0899 29 29 26.0899 29 22.5V9.5C29 5.91015 26.0899 3 22.5 3H9.5ZM16.001 13C16.5529 13.0003 17.0008 13.448 17.001 14V23C17.0008 23.552 16.5529 23.9997 16.001 24C15.4488 24 15.0012 23.5521 15.001 23V14C15.0012 13.4479 15.4488 13 16.001 13ZM16.001 8C16.691 8.00026 17.2508 8.55998 17.251 9.25C17.2508 9.94003 16.691 10.4997 16.001 10.5C15.3107 10.5 14.7512 9.94019 14.751 9.25C14.7512 8.55981 15.3107 8 16.001 8Z"
    fill="currentColor"
  />
</svg>
