<svg width="12" height="12" viewBox="0 0 12 12" fill="none" xmlns="http://www.w3.org/2000/svg" data-fui-icon="true">
  <path
    d="M6 4.00012C6.41421 4.00012 6.75 4.33591 6.75 4.75012V9.50012H8.25C8.66417 9.50018 9 9.83594 9 10.2501C8.99987 10.6642 8.66409 11.0001 8.25 11.0001H3.75C3.33587 11.0001 3.00013 10.6642 3 10.2501C3 9.83591 3.33579 9.50012 3.75 9.50012H5.25V5.50012H3.75C3.33583 5.50012 3.00007 5.16428 3 4.75012C3 4.33591 3.33579 4.00012 3.75 4.00012H6ZM6 1.00403C6.55228 1.00403 7 1.45174 7 2.00403C7 2.55631 6.55228 3.00403 6 3.00403C5.44772 3.00403 5 2.55631 5 2.00403C5 1.45174 5.44772 1.00403 6 1.00403Z"
    fill="currentColor"
  />
</svg>
