<svg width="20" height="20" viewBox="0 0 20 20" fill="none" xmlns="http://www.w3.org/2000/svg" data-fui-icon="true">
  <path
    d="M9.99902 0C15.5214 0 19.9987 4.47672 19.999 9.99902C19.999 15.5216 15.5216 19.999 9.99902 19.999C4.47672 19.9987 0 15.5214 0 9.99902C0.000303262 4.4769 4.4769 0.000303259 9.99902 0ZM9.99902 1.5C5.30533 1.5003 1.5003 5.30533 1.5 9.99902C1.5 14.693 5.30514 18.4987 9.99902 18.499C14.6932 18.499 18.499 14.6932 18.499 9.99902C18.4987 5.30514 14.693 1.5 9.99902 1.5ZM10.249 7.75C10.6632 7.75 10.999 8.08579 10.999 8.5V14H12.5449C12.9591 14 13.2949 14.3358 13.2949 14.75C13.2949 15.1642 12.9591 15.5 12.5449 15.5H7.5C7.08579 15.5 6.75 15.1642 6.75 14.75C6.75 14.3358 7.08579 14 7.5 14H9.49902V9.25H7.5C7.08579 9.25 6.75 8.91421 6.75 8.5C6.75 8.08579 7.08579 7.75 7.5 7.75H10.249ZM10 4.5C10.5523 4.5 11 4.94772 11 5.5C11 6.05228 10.5523 6.5 10 6.5C9.44771 6.5 9 6.05228 9 5.5C9 4.94772 9.44771 4.5 10 4.5Z"
    fill="currentColor"
  />
</svg>
