<svg width="20" height="20" viewBox="0 0 20 20" fill="none" xmlns="http://www.w3.org/2000/svg" data-fui-icon="true">
  <path
    d="M10 0.5C15.2467 0.5 19.5 4.75329 19.5 10C19.5 15.2467 15.2467 19.5 10 19.5C4.75329 19.5 0.5 15.2467 0.5 10C0.5 4.75329 4.75329 0.5 10 0.5ZM8 8.5C7.44772 8.5 7 8.94771 7 9.5C7 10.0523 7.44772 10.5 8 10.5H9V12.5H8C7.44772 12.5 7 12.9477 7 13.5C7 14.0523 7.44772 14.5 8 14.5H12C12.5523 14.5 13 14.0523 13 13.5C13 12.9477 12.5523 12.5 12 12.5H11V9.5C11 8.94771 10.5523 8.5 10 8.5H8ZM10 4C9.17157 4 8.5 4.67157 8.5 5.5C8.5 6.32843 9.17157 7 10 7C10.8284 7 11.5 6.32843 11.5 5.5C11.5 4.67157 10.8284 4 10 4Z"
    fill="currentColor"
  />
</svg>
