<svg width="20" height="20" viewBox="0 0 20 20" fill="none" xmlns="http://www.w3.org/2000/svg" data-fui-icon="true">
  <path
    d="M11.75 7.5C12.1642 7.5 12.5 7.83579 12.5 8.25V17H13C13.4142 17 13.75 17.3358 13.75 17.75C13.75 18.1642 13.4142 18.5 13 18.5H7.5C7.08579 18.5 6.75 18.1642 6.75 17.75C6.75 17.3358 7.08579 17 7.5 17H8V9H7.5C7.08579 9 6.75 8.66421 6.75 8.25C6.75 7.83579 7.08579 7.5 7.5 7.5H11.75ZM9.5 17H11V9H9.5V17ZM10 1.5C11.3807 1.5 12.5 2.61929 12.5 4C12.5 5.38071 11.3807 6.5 10 6.5C8.61929 6.5 7.5 5.38071 7.5 4C7.5 2.61929 8.61929 1.5 10 1.5ZM10 3C9.44772 3 9 3.44772 9 4C9 4.55228 9.44772 5 10 5C10.5523 5 11 4.55228 11 4C11 3.44772 10.5523 3 10 3Z"
    fill="currentColor"
  />
</svg>
