<svg width="24" height="24" viewBox="0 0 24 24" fill="none" xmlns="http://www.w3.org/2000/svg" data-fui-icon="true">
  <path
    d="M12 3.75C14.6869 3.75 15.0052 3.76006 16.0665 3.80855C16.7044 3.81625 17.3363 3.93353 17.9345 4.15527C18.3717 4.3166 18.7671 4.57388 19.0918 4.90818C19.4261 5.23282 19.6834 5.62827 19.8447 6.06545C20.0664 6.66369 20.1837 7.29558 20.1914 7.93354C20.2399 8.99474 20.25 9.31311 20.25 12C20.25 14.6869 20.2399 15.0052 20.1914 16.0665C20.1837 16.7044 20.0664 17.3363 19.8447 17.9345C19.6772 18.3686 19.4208 18.7629 19.0918 19.0918C18.7629 19.4208 18.3686 19.6772 17.9345 19.8447C17.3363 20.0664 16.7044 20.1837 16.0665 20.1914C15.0052 20.2399 14.6869 20.25 12 20.25C9.31311 20.25 8.99475 20.2399 7.93354 20.1914C7.29527 20.1838 6.66306 20.0665 6.06453 19.8447C5.62769 19.6833 5.23256 19.426 4.90818 19.0918C4.57388 18.7671 4.3166 18.3717 4.15527 17.9345C3.93353 17.3363 3.81625 16.7044 3.80855 16.0665C3.76006 15.0052 3.75 14.6869 3.75 12C3.75 9.31311 3.76006 8.99474 3.80855 7.93354C3.81625 7.29558 3.93353 6.66369 4.15527 6.06545C4.3166 5.62827 4.57388 5.23282 4.90818 4.90818C5.23282 4.57388 5.62827 4.3166 6.06545 4.15527C6.66369 3.93353 7.29558 3.81625 7.93354 3.80855C8.99475 3.76006 9.31311 3.75 12 3.75Z"
    stroke="currentColor"
    stroke-width="1.5"
    stroke-linejoin="round"
  />
  <path
    d="M11.9999 15.675C11.273 15.675 10.5625 15.4594 9.95818 15.0556C9.35387 14.6518 8.88285 14.0778 8.6047 13.4063C8.32655 12.7349 8.25376 11.9959 8.39557 11.2831C8.53737 10.5701 8.88737 9.9153 9.40133 9.40139C9.91524 8.88743 10.5701 8.53743 11.283 8.39563C11.9959 8.25383 12.7348 8.32661 13.4062 8.60476C14.0778 8.88291 14.6517 9.35393 15.0555 9.95824C15.4593 10.5626 15.675 11.2731 15.675 12C15.675 12.9746 15.2877 13.9094 14.5986 14.5986C13.9094 15.2878 12.9746 15.675 11.9999 15.675Z"
    stroke="currentColor"
    stroke-width="1.5"
    stroke-linejoin="round"
  />
  <path
    d="M16.3938 5.99397C16.5942 5.86015 16.8298 5.78873 17.0709 5.78873C17.3941 5.78873 17.7041 5.91703 17.9327 6.14544C18.1613 6.37383 18.2897 6.6836 18.2897 7.0066C18.2897 7.24747 18.2182 7.48294 18.0842 7.68322C17.9503 7.88349 17.7599 8.03959 17.5373 8.13177C17.3146 8.22394 17.0695 8.24806 16.8332 8.20107C16.5967 8.15408 16.3796 8.03809 16.2091 7.86777C16.0386 7.69745 15.9226 7.48044 15.8756 7.24419C15.8286 7.00795 15.8527 6.76308 15.945 6.54054C16.0371 6.318 16.1934 6.1278 16.3938 5.99397Z"
    fill="currentColor"
  />
</svg>
