<svg
  width="32"
  height="32"
  viewBox="0 0 32 32"
  fill="none"
  xmlns="http://www.w3.org/2000/svg"
  data-fui-icon="true"
>
  <path
    d="M16 5.61562C19.382 5.61562 19.7827 5.62829 21.1185 5.68931C21.9215 5.69901 22.7169 5.84663 23.4699 6.12574C24.0201 6.32881 24.5179 6.65265 24.9265 7.07343C25.3473 7.48206 25.6712 7.97982 25.8743 8.5301C26.1533 9.28311 26.3009 10.0785 26.3107 10.8815C26.3717 12.2172 26.3844 12.618 26.3844 16C26.3844 19.382 26.3717 19.7826 26.3107 21.1185C26.3009 21.9214 26.1533 22.7169 25.8743 23.4698C25.6635 24.0162 25.3407 24.5125 24.9265 24.9265C24.5125 25.3406 24.0163 25.6634 23.4699 25.8742C22.7169 26.1533 21.9215 26.3009 21.1185 26.3106C19.7827 26.3717 19.382 26.3844 16 26.3844C12.618 26.3844 12.2173 26.3717 10.8815 26.3106C10.0781 26.301 9.28234 26.1534 8.52897 25.8742C7.9791 25.671 7.48175 25.3472 7.07345 24.9265C6.65266 24.5178 6.32882 24.0201 6.12575 23.4698C5.84665 22.7169 5.69902 21.9214 5.68933 21.1185C5.6283 19.7826 5.61563 19.382 5.61563 16C5.61563 12.618 5.6283 12.2172 5.68933 10.8815C5.69902 10.0785 5.84665 9.28311 6.12575 8.5301C6.32882 7.97982 6.65266 7.48206 7.07345 7.07343C7.48207 6.65265 7.97984 6.32881 8.53012 6.12574C9.28313 5.84663 10.0785 5.69901 10.8815 5.68931C12.2173 5.62829 12.618 5.61562 16 5.61562ZM16 3.33331C12.5604 3.33331 12.1286 3.34829 10.7779 3.40931C9.72713 3.43027 8.68756 3.62923 7.70333 3.99774C6.85773 4.31611 6.09181 4.81519 5.45902 5.46017C4.81461 6.09273 4.31593 6.85823 3.99776 7.70331C3.62965 8.68761 3.43107 9.72718 3.41047 10.7779C3.34714 12.1286 3.33333 12.5604 3.33333 16C3.33333 19.4396 3.3483 19.8713 3.40933 21.2221C3.43029 22.2728 3.62925 23.3124 3.99776 24.2966C4.31613 25.1422 4.81521 25.9081 5.46018 26.5409C6.09274 27.1853 6.85825 27.684 7.70333 28.0022C8.68762 28.3704 9.7272 28.5689 10.7779 28.5894C12.1286 28.6528 12.5604 28.6666 16 28.6666C19.4396 28.6666 19.8713 28.6517 21.2221 28.5906C22.2728 28.5697 23.3124 28.3708 24.2967 28.0022C25.1384 27.6768 25.9028 27.179 26.5409 26.5409C27.1791 25.9028 27.6768 25.1384 28.0023 24.2966C28.3704 23.3124 28.5689 22.2728 28.5895 21.2221C28.6528 19.8713 28.6667 19.4396 28.6667 16C28.6667 12.5604 28.6517 12.1286 28.5907 10.7779C28.5697 9.72711 28.3708 8.68754 28.0023 7.70331C27.6839 6.85771 27.1848 6.09179 26.5399 5.45901C25.9072 4.81459 25.1417 4.31591 24.2967 3.99774C23.3124 3.62963 22.2728 3.43106 21.2221 3.41046C19.8713 3.34713 19.4396 3.33331 16 3.33331ZM16 9.49507C14.7135 9.49507 13.4557 9.87658 12.3861 10.5913C11.3163 11.3061 10.4826 12.322 9.99025 13.5106C9.4979 14.6993 9.36909 16.0072 9.62008 17.269C9.87108 18.5309 10.4906 19.69 11.4003 20.5996C12.3101 21.5093 13.4691 22.1289 14.7309 22.3798C15.9928 22.6309 17.3007 22.5021 18.4893 22.0097C19.678 21.5174 20.6939 20.6836 21.4087 19.614C22.1235 18.5442 22.5049 17.2865 22.5049 16C22.5049 14.2748 21.8196 12.6202 20.5996 11.4003C19.3797 10.1804 17.7252 9.49507 16 9.49507ZM16 20.2226C15.1648 20.2226 14.3484 19.9749 13.654 19.5109C12.9596 19.0469 12.4184 18.3874 12.0988 17.6158C11.7792 16.8444 11.6956 15.9953 11.8585 15.1762C12.0215 14.357 12.4236 13.6046 13.0142 13.0142C13.6047 12.4236 14.3571 12.0214 15.1763 11.8585C15.9953 11.6956 16.8444 11.7792 17.6159 12.0988C18.3875 12.4184 19.0469 12.9596 19.5109 13.654C19.9749 14.3484 20.2227 15.1648 20.2227 16C20.2227 17.1198 19.7777 18.194 18.9859 18.9858C18.194 19.7777 17.1199 20.2226 16 20.2226ZM22.7617 7.71829C22.4611 7.71829 22.1672 7.80743 21.9172 7.97445C21.6673 8.14147 21.4724 8.37886 21.3575 8.65661C21.2424 8.93435 21.2123 9.23997 21.2709 9.53482C21.3296 9.82967 21.4743 10.1005 21.6869 10.3131C21.8995 10.5257 22.1703 10.6704 22.4652 10.7291C22.76 10.7877 23.0656 10.7576 23.3433 10.6426C23.6211 10.5275 23.8585 10.3327 24.0255 10.0828C24.1925 9.83279 24.2817 9.53891 24.2817 9.23829C24.2817 8.83515 24.1216 8.44854 23.8365 8.16349C23.5515 7.87842 23.1648 7.71829 22.7617 7.71829Z"
    fill="currentColor"
  />
</svg>
