<svg
  width="24"
  height="24"
  viewBox="0 0 24 24"
  fill="none"
  xmlns="http://www.w3.org/2000/svg"
  data-fui-icon="true"
>
  <path
    d="M20.1055 17.8723L20.1054 17.8723C19.9097 18.3796 19.61 18.8405 19.2253 19.2251C19.2253 19.2251 19.2252 19.2252 19.2251 19.2253M20.1055 17.8723L17.6024 19.4056C18.0122 19.2475 18.3844 19.0054 18.6949 18.6948L19.2251 19.2253M20.1055 17.8723L20.109 17.863C20.3466 17.2218 20.473 16.5446 20.4828 15.8609C20.5289 14.8512 20.5383 14.5294 20.5383 11.9999C20.5383 9.47045 20.5289 9.14864 20.4828 8.13897C20.473 7.45559 20.3467 6.77885 20.1093 6.13788M20.1055 17.8723L20.1093 6.13788M19.2251 19.2253C18.8406 19.6099 18.3797 19.9096 17.8724 20.1054L17.8631 20.109L17.8631 20.1089C17.2218 20.3466 16.5447 20.4729 15.861 20.4827M19.2251 19.2253L15.861 20.4827M20.1093 6.13788C19.9195 5.62342 19.6174 5.15775 19.2253 4.77464C18.8422 4.3826 18.3768 4.08066 17.8625 3.89081C17.2214 3.65325 16.5445 3.5269 15.861 3.51717M20.1093 6.13788L15.861 3.51717M15.861 20.4827C14.8513 20.5288 14.5295 20.5382 12 20.5382C9.47057 20.5382 9.14872 20.5288 8.1391 20.4827C7.4553 20.4731 6.77812 20.3467 6.13676 20.1091C5.62268 19.9192 5.15741 19.6171 4.77463 19.2251C4.38251 18.842 4.08054 18.3764 3.8907 17.862L15.861 20.4827ZM15.861 3.51717C14.8512 3.47108 14.5295 3.46167 12 3.46167C9.47054 3.46167 9.14872 3.47108 8.13908 3.51717C7.45549 3.5269 6.77855 3.65326 6.13743 3.89083C5.62319 4.08068 5.15771 4.38261 4.77472 4.77465C4.38267 5.15765 4.08074 5.62313 3.89089 6.13737C3.65332 6.77849 3.52696 7.45543 3.51723 8.13902C3.47114 9.14865 3.46173 9.47047 3.46173 11.9999C3.46173 14.5294 3.47114 14.8512 3.51723 15.8609L15.861 3.51717Z"
    stroke="currentColor"
    stroke-width="1.5"
  />
  <path
    d="M9.82377 15.2568L9.82376 15.2567C9.17968 14.8264 8.67766 14.2146 8.38119 13.4989L9.82377 15.2568ZM9.82377 15.2568C10.4679 15.6872 11.2252 15.917 12 15.917C13.0388 15.917 14.0351 15.5042 14.7697 14.7697C15.5042 14.0351 15.917 13.0388 15.917 12C15.917 11.2252 15.6871 10.4679 15.2568 9.82377L15.2567 9.82376M9.82377 15.2568L15.2567 9.82376M15.2567 9.82376C14.8263 9.17968 14.2146 8.67766 13.4989 8.38119L15.2567 9.82376ZM9.23024 9.23029C8.68244 9.77806 8.30941 10.476 8.15828 11.2358L11.2358 8.15828C10.476 8.30941 9.77806 8.68244 9.23029 9.23024C9.23028 9.23025 9.23027 9.23025 9.23026 9.23026C9.23025 9.23027 9.23025 9.23028 9.23024 9.23029ZM8.15827 11.2359C8.00714 11.9956 8.0847 12.7832 8.38117 13.4989L8.15827 11.2359ZM13.4989 8.38117C12.7832 8.0847 11.9956 8.00714 11.2359 8.15827L13.4989 8.38117Z"
    stroke="currentColor"
    stroke-width="1.5"
  />
  <path
    d="M16.4379 5.98082C16.6254 5.85556 16.8458 5.7887 17.0713 5.7887C17.3736 5.7887 17.6636 5.9088 17.8774 6.1226C18.0912 6.33639 18.2113 6.62635 18.2113 6.9287C18.2113 7.15417 18.1444 7.37458 18.0191 7.56205C17.8939 7.74952 17.7158 7.89564 17.5075 7.98192C17.2992 8.0682 17.07 8.09078 16.8489 8.04679C16.6277 8.00281 16.4246 7.89423 16.2652 7.7348C16.1057 7.57537 15.9972 7.37224 15.9532 7.1511C15.9092 6.92996 15.9318 6.70075 16.0181 6.49244C16.1043 6.28413 16.2505 6.10609 16.4379 5.98082Z"
    fill="currentColor"
  />
</svg>
