<svg width="12" height="12" viewBox="0 0 12 12" fill="none" xmlns="http://www.w3.org/2000/svg" data-fui-icon="true">
  <path
    d="M6 1.125C7.32469 1.125 7.51339 1.13128 8.04102 1.15527L8.04199 1.1543C8.04385 1.15432 8.04599 1.15525 8.04785 1.15527C8.0543 1.15557 8.06083 1.15497 8.06738 1.15527L8.06641 1.15625C8.4629 1.16375 8.85554 1.23619 9.22754 1.37402L9.22656 1.375C9.54323 1.49186 9.83001 1.67636 10.0674 1.91602H10.0684C10.0708 1.91841 10.0727 1.92142 10.0752 1.92383C10.0779 1.92659 10.0813 1.92886 10.084 1.93164H10.083C10.323 2.16906 10.509 2.45558 10.626 2.77246L10.7188 3.06055C10.7971 3.34446 10.8391 3.63744 10.8447 3.93262L10.8691 4.66699C10.8735 4.94702 10.875 5.32686 10.875 6C10.875 7.32467 10.8687 7.51339 10.8447 8.04102L10.8457 8.04199C10.8408 8.44666 10.7666 8.84799 10.626 9.22754L10.6221 9.2373C10.531 9.47321 10.4037 9.69293 10.2451 9.88867L10.0762 10.0762C9.83765 10.3147 9.55188 10.5007 9.2373 10.6221L8.95703 9.89453L8.9668 9.92188L9.2373 10.6221L9.22754 10.626L8.93945 10.7188C8.65522 10.7971 8.36188 10.8382 8.06641 10.8438L8.06738 10.8447C8.06083 10.845 8.0543 10.8444 8.04785 10.8447C8.04601 10.8448 8.04384 10.8457 8.04199 10.8457L8.04102 10.8447C7.51339 10.8687 7.32467 10.875 6 10.875C4.67451 10.875 4.48634 10.8688 3.95801 10.8447V10.8457C3.95579 10.8457 3.95339 10.8448 3.95117 10.8447C3.94505 10.8444 3.93884 10.845 3.93262 10.8447V10.8438C3.53613 10.8362 3.14347 10.7638 2.77148 10.626V10.625C2.45506 10.5079 2.16872 10.3228 1.93164 10.083V10.084C1.92886 10.0813 1.92659 10.0779 1.92383 10.0752C1.92141 10.0727 1.91842 10.0708 1.91602 10.0684V10.0674C1.67649 9.83014 1.4909 9.54399 1.37402 9.22754L1.28125 8.93945C1.20071 8.64749 1.15796 8.34564 1.1543 8.04199L1.15527 8.04102C1.13128 7.51339 1.125 7.32469 1.125 6C1.125 4.65352 1.13024 4.48062 1.15527 3.93262C1.16287 3.53641 1.23631 3.14416 1.37402 2.77246C1.49096 2.45581 1.67624 2.16898 1.91602 1.93164L1.93164 1.91602C2.1689 1.67632 2.45594 1.49195 2.77246 1.375V1.37402C3.14416 1.23631 3.53642 1.16385 3.93262 1.15625V1.15527C3.93884 1.15499 3.94505 1.15555 3.95117 1.15527C3.95336 1.15524 3.95582 1.15432 3.95801 1.1543V1.15527C4.48634 1.13124 4.67449 1.125 6 1.125ZM3.29199 2.78125C3.17872 2.82311 3.07632 2.88994 2.99219 2.97656C2.98708 2.98182 2.98182 2.98708 2.97656 2.99219C2.88994 3.07632 2.82311 3.17872 2.78125 3.29199V3.29297L2.72754 3.45898C2.68112 3.62711 2.65643 3.80071 2.6543 3.97559C2.6542 3.98398 2.6537 3.99259 2.65332 4.00098C2.62988 4.51413 2.625 4.65966 2.625 6C2.625 6.67008 2.62667 7.04152 2.63086 7.30957L2.65332 7.99902L2.6543 8.02441C2.65643 8.19928 2.68112 8.3729 2.72754 8.54102L2.78125 8.70703L2.36328 8.86133L2.15332 8.93945L2.78125 8.70801C2.8231 8.82125 2.88992 8.92365 2.97656 9.00781C2.98183 9.01293 2.98707 9.01817 2.99219 9.02344C3.0763 9.1101 3.1788 9.17688 3.29199 9.21875H3.29297C3.51158 9.29977 3.74243 9.3429 3.97559 9.3457C3.98401 9.3458 3.99256 9.3463 4.00098 9.34668C4.51411 9.37014 4.65966 9.375 6 9.375C7.34033 9.375 7.48584 9.37014 7.99902 9.34668L8.02441 9.3457C8.25624 9.34286 8.48568 9.2999 8.70312 9.21973C8.82018 9.17361 8.92681 9.10447 9.01562 9.01562L9.08008 8.94434C9.13874 8.87188 9.18538 8.7903 9.21973 8.70312C9.2999 8.48568 9.34286 8.25624 9.3457 8.02441L9.34668 7.99902C9.37014 7.48584 9.375 7.34033 9.375 6C9.375 4.65966 9.37014 4.51411 9.34668 4.00098C9.3463 3.99261 9.3458 3.98396 9.3457 3.97559C9.34285 3.74258 9.29971 3.51144 9.21875 3.29297V3.29199C9.1769 3.17874 9.11008 3.07633 9.02344 2.99219C9.01818 2.98709 9.01291 2.98181 9.00781 2.97656C8.92365 2.88992 8.82124 2.8231 8.70801 2.78125H8.70703L8.54102 2.72754C8.3729 2.68112 8.19928 2.65643 8.02441 2.6543C8.01602 2.6542 8.00741 2.6537 7.99902 2.65332C7.48582 2.62988 7.34033 2.625 6 2.625C4.65966 2.625 4.51413 2.62988 4.00098 2.65332C3.99259 2.6537 3.98398 2.6542 3.97559 2.6543C3.80071 2.65643 3.62711 2.68112 3.45898 2.72754L3.29297 2.78125H3.29199L3.12012 2.31348L2.97852 1.93164L3.29199 2.78125ZM5.5127 3.54785C5.99749 3.4515 6.50037 3.50125 6.95703 3.69043C7.4137 3.87967 7.80447 4.20035 8.0791 4.61133C8.35361 5.02233 8.5 5.50565 8.5 6C8.5 6.66302 8.2364 7.29876 7.76758 7.76758C7.29876 8.2364 6.66302 8.5 6 8.5C5.50565 8.5 5.02233 8.35361 4.61133 8.0791C4.20035 7.80447 3.87967 7.4137 3.69043 6.95703C3.50125 6.50037 3.4515 5.99749 3.54785 5.5127C3.64431 5.02772 3.88277 4.58205 4.23242 4.23242C4.58205 3.88277 5.02772 3.64431 5.5127 3.54785ZM5.80469 5.01953C5.61077 5.05816 5.43271 5.15321 5.29297 5.29297C5.15321 5.43271 5.05816 5.61077 5.01953 5.80469C4.98095 5.99865 5.0005 6.20016 5.07617 6.38281C5.15183 6.56538 5.28005 6.7212 5.44434 6.83105C5.60881 6.94096 5.80225 7 6 7C6.26519 7 6.51951 6.89456 6.70703 6.70703C6.89456 6.51951 7 6.26519 7 6C7 5.80225 6.94096 5.60881 6.83105 5.44434C6.7212 5.28005 6.56538 5.15183 6.38281 5.07617C6.20016 5.0005 5.99865 4.98095 5.80469 5.01953Z"
    fill="currentColor"
  />
</svg>
