<svg
  width="16"
  height="16"
  viewBox="0 0 16 16"
  fill="none"
  xmlns="http://www.w3.org/2000/svg"
  data-fui-icon="true"
>
  <path
    d="M7.99999 2.80784C9.69099 2.80784 9.89132 2.81417 10.5593 2.84469C10.9607 2.84953 11.3585 2.92335 11.7349 3.0629C12.0101 3.16443 12.2589 3.32635 12.4633 3.53675C12.6737 3.74106 12.8356 3.98994 12.9371 4.26508C13.0767 4.64159 13.1505 5.03927 13.1553 5.44078C13.1859 6.10865 13.1922 6.30902 13.1922 8.00002C13.1922 9.69102 13.1859 9.89135 13.1553 10.5593C13.1505 10.9608 13.0767 11.3585 12.9371 11.735C12.8317 12.0082 12.6703 12.2563 12.4633 12.4633C12.2563 12.6704 12.0081 12.8318 11.7349 12.9372C11.3585 13.0767 10.9607 13.1505 10.5593 13.1554C9.89132 13.1859 9.69099 13.1922 7.99999 13.1922C6.30899 13.1922 6.10862 13.1859 5.44075 13.1554C5.03905 13.1506 4.64116 13.0768 4.26448 12.9372C3.98954 12.8356 3.74087 12.6736 3.53672 12.4633C3.32632 12.259 3.1644 12.0101 3.06287 11.735C2.92332 11.3585 2.8495 10.9608 2.84466 10.5593C2.81414 9.89135 2.80781 9.69102 2.80781 8.00002C2.80781 6.30902 2.81414 6.10865 2.84466 5.44078C2.8495 5.03927 2.92332 4.64159 3.06287 4.26508C3.1644 3.98994 3.32632 3.74106 3.53672 3.53675C3.74103 3.32635 3.98991 3.16443 4.26505 3.0629C4.64156 2.92335 5.03924 2.84953 5.44075 2.84469C6.10862 2.81417 6.30899 2.80784 7.99999 2.80784ZM7.99999 1.66669C6.2802 1.66669 6.06429 1.67417 5.38893 1.70469C4.86356 1.71517 4.34377 1.81465 3.85166 1.9989C3.42886 2.15809 3.0459 2.40763 2.7295 2.73011C2.4073 3.04639 2.15796 3.42915 1.99887 3.85169C1.81482 4.34383 1.71553 4.86362 1.70523 5.38896C1.67356 6.06432 1.66666 6.28023 1.66666 8.00002C1.66666 9.71982 1.67414 9.93569 1.70466 10.6111C1.71514 11.1364 1.81462 11.6562 1.99887 12.1484C2.15806 12.5712 2.4076 12.9541 2.73008 13.2705C3.04636 13.5927 3.42912 13.842 3.85166 14.0012C4.3438 14.1852 4.86359 14.2845 5.38893 14.2948C6.06429 14.3264 6.2802 14.3334 7.99999 14.3334C9.71979 14.3334 9.93566 14.3259 10.6111 14.2954C11.1364 14.2849 11.6562 14.1854 12.1483 14.0012C12.5692 13.8384 12.9514 13.5896 13.2705 13.2705C13.5895 12.9514 13.8384 12.5692 14.0011 12.1484C14.1852 11.6562 14.2845 11.1364 14.2947 10.6111C14.3264 9.93569 14.3333 9.71982 14.3333 8.00002C14.3333 6.28023 14.3259 6.06432 14.2953 5.38896C14.2849 4.86359 14.1854 4.3438 14.0011 3.85169C13.8419 3.42889 13.5924 3.04593 13.2699 2.72953C12.9536 2.40733 12.5709 2.15799 12.1483 1.9989C11.6562 1.81485 11.1364 1.71556 10.6111 1.70526C9.93566 1.67359 9.71979 1.66669 7.99999 1.66669ZM7.99999 4.74757C7.35672 4.74757 6.72786 4.93832 6.19302 5.2957C5.65816 5.65309 5.24128 6.16105 4.99512 6.75535C4.74894 7.34969 4.68454 8.00362 4.81003 8.63455C4.93553 9.26549 5.2453 9.84502 5.70016 10.2998C6.15502 10.7547 6.73452 11.0645 7.36546 11.19C7.99639 11.3155 8.65032 11.2511 9.24466 11.0049C9.83899 10.7588 10.3469 10.3418 10.7043 9.80702C11.0617 9.27215 11.2525 8.64329 11.2525 8.00002C11.2525 7.13742 10.9098 6.31014 10.2998 5.70019C9.68986 5.09023 8.86259 4.74757 7.99999 4.74757ZM7.99999 10.1114C7.58239 10.1114 7.17419 9.98749 6.82699 9.75549C6.47981 9.52349 6.2092 9.19375 6.0494 8.80795C5.8896 8.42222 5.84779 7.99769 5.92926 7.58815C6.01072 7.17855 6.2118 6.80235 6.50708 6.50711C6.80232 6.21183 7.17852 6.01075 7.58812 5.92929C7.99766 5.84782 8.42219 5.88963 8.80792 6.04943C9.19372 6.20923 9.52346 6.47984 9.75546 6.82702C9.98746 7.17422 10.1113 7.58242 10.1113 8.00002C10.1113 8.55995 9.88886 9.09702 9.49292 9.49295C9.09699 9.88889 8.55992 10.1114 7.99999 10.1114ZM11.3809 3.85917C11.2305 3.85917 11.0836 3.90375 10.9586 3.98725C10.8337 4.07077 10.7362 4.18946 10.6787 4.32833C10.6212 4.46721 10.6061 4.62001 10.6355 4.76744C10.6648 4.91487 10.7371 5.05029 10.8435 5.15657C10.9497 5.26286 11.0851 5.33525 11.2326 5.36457C11.38 5.39389 11.5328 5.37884 11.6717 5.32132C11.8105 5.2638 11.9293 5.16639 12.0127 5.04141C12.0963 4.91643 12.1409 4.76949 12.1409 4.61917C12.1409 4.41761 12.0608 4.2243 11.9183 4.08177C11.7757 3.93924 11.5824 3.85917 11.3809 3.85917Z"
    fill="currentColor"
  />
</svg>
