<svg
  width="20"
  height="20"
  viewBox="0 0 20 20"
  fill="none"
  xmlns="http://www.w3.org/2000/svg"
  data-fui-icon="true"
>
  <path
    d="M16.8712 14.9386L16.8711 14.9386C16.7018 15.3776 16.4424 15.7765 16.1095 16.1093C16.1094 16.1094 16.1094 16.1094 16.1093 16.1095M16.8712 14.9386L14.6687 16.1714C15.0102 16.0397 15.3203 15.8379 15.5791 15.5791L16.1093 16.1095M16.8712 14.9386L16.8747 14.9293C17.0774 14.3823 17.1853 13.8046 17.1939 13.2214C17.2324 12.3784 17.2402 12.1069 17.2402 9.99999C17.2402 7.89304 17.2324 7.6215 17.1939 6.77861C17.1853 6.19534 17.0774 5.61775 16.8747 5.07069C16.7102 4.6254 16.4488 4.22231 16.1094 3.89052C15.7775 3.55112 15.3743 3.28967 14.9289 3.12519C14.382 2.92251 13.8045 2.81461 13.2214 2.80606C12.3784 2.76759 12.1069 2.75977 9.99999 2.75977C7.89316 2.75977 7.62154 2.76759 6.77877 2.80605C6.1956 2.81458 5.61811 2.92249 5.07116 3.12516C4.6257 3.28963 4.22244 3.55108 3.89053 3.89053C3.55108 4.22244 3.28963 4.6257 3.12516 5.07116C2.92249 5.61811 2.81459 6.1956 2.80605 6.77877C2.76759 7.62154 2.75977 7.89316 2.75977 9.99999C2.75977 12.1069 2.76759 12.3784 2.80606 13.2214C2.8146 13.8045 2.92251 14.382 3.12519 14.9289M16.8712 14.9386L3.12519 14.9289M16.1093 16.1095C15.7765 16.4424 15.3776 16.7018 14.9386 16.8711L14.9293 16.8747L14.9293 16.8747C14.3823 17.0774 13.8046 17.1854 13.2214 17.1939C12.3784 17.2324 12.1069 17.2402 9.99999 17.2402C7.89314 17.2402 7.62153 17.2324 6.77872 17.1939C6.19517 17.1854 5.6173 17.0775 5.06997 16.8747C4.6249 16.7101 4.22204 16.4486 3.89046 16.1094C3.55109 15.7775 3.28966 15.3743 3.12519 14.9289M16.1093 16.1095L3.12519 14.9289"
    stroke="currentColor"
    stroke-width="1.5"
  />
  <path
    d="M8.11703 12.8179L8.11701 12.8179C7.55974 12.4455 7.12536 11.9162 6.86884 11.2969L8.11703 12.8179ZM8.11703 12.8179C8.67434 13.1903 9.32959 13.3891 9.99997 13.3891C10.8988 13.3891 11.7609 13.032 12.3965 12.3965C13.032 11.7609 13.3891 10.8988 13.3891 9.99997C13.3891 9.32959 13.1903 8.67434 12.8179 8.11703L12.8179 8.11701M8.11703 12.8179L12.8179 8.11701M12.8179 8.11701C12.4455 7.55974 11.9162 7.12536 11.2969 6.86884L12.8179 8.11701ZM7.60352 7.60347C7.6035 7.60349 7.60349 7.6035 7.60347 7.60352C7.12949 8.07748 6.80673 8.68136 6.67596 9.33881L7.60352 7.60347ZM7.60352 7.60347C8.07748 7.12949 8.68136 6.80673 9.33881 6.67596L7.60352 7.60347ZM6.67596 9.33883C6.54519 9.99621 6.6123 10.6777 6.86882 11.2969L6.67596 9.33883ZM11.2969 6.86882C10.6777 6.6123 9.99621 6.5452 9.33883 6.67596L11.2969 6.86882Z"
    stroke="currentColor"
    stroke-width="1.5"
  />
  <path
    d="M13.6982 4.98407C13.8545 4.87969 14.0382 4.82397 14.2261 4.82397C14.478 4.82397 14.7196 4.92406 14.8978 5.10222C15.076 5.28038 15.1761 5.52202 15.1761 5.77397C15.1761 5.96187 15.1203 6.14554 15.0159 6.30177C14.9116 6.45799 14.7631 6.57976 14.5896 6.65166C14.416 6.72356 14.225 6.74237 14.0407 6.70572C13.8564 6.66907 13.6872 6.57858 13.5543 6.44572C13.4214 6.31287 13.331 6.14359 13.2943 5.95931C13.2577 5.77502 13.2765 5.58402 13.3484 5.41042C13.4202 5.23683 13.5421 5.08847 13.6982 4.98407Z"
    fill="currentColor"
  />
</svg>
