<svg
  width="32"
  height="32"
  viewBox="0 0 32 32"
  fill="none"
  xmlns="http://www.w3.org/2000/svg"
  data-fui-icon="true"
>
  <path
    d="M16 5.61565C19.382 5.61565 19.7826 5.62832 21.1185 5.68934C21.9214 5.69904 22.7169 5.84666 23.4698 6.12577C24.0201 6.32884 24.5178 6.65268 24.9265 7.07346C25.3473 7.48209 25.6712 7.97985 25.8742 8.53013C26.1533 9.28314 26.3009 10.0785 26.3106 10.8815C26.3717 12.2173 26.3844 12.618 26.3844 16C26.3844 19.382 26.3717 19.7827 26.3106 21.1185C26.3009 21.9215 26.1533 22.7169 25.8742 23.4699C25.6634 24.0163 25.3406 24.5125 24.9265 24.9265C24.5125 25.3407 24.0162 25.6635 23.4698 25.8743C22.7169 26.1533 21.9214 26.3009 21.1185 26.3107C19.7826 26.3717 19.382 26.3844 16 26.3844C12.618 26.3844 12.2172 26.3717 10.8815 26.3107C10.0781 26.3011 9.28233 26.1535 8.52895 25.8743C7.97909 25.6711 7.48174 25.3472 7.07343 24.9265C6.65265 24.5179 6.32881 24.0201 6.12574 23.4699C5.84663 22.7169 5.69901 21.9215 5.68931 21.1185C5.62829 19.7827 5.61562 19.382 5.61562 16C5.61562 12.618 5.62829 12.2173 5.68931 10.8815C5.69901 10.0785 5.84663 9.28314 6.12574 8.53013C6.32881 7.97985 6.65265 7.48209 7.07343 7.07346C7.48206 6.65268 7.97982 6.32884 8.5301 6.12577C9.28311 5.84666 10.0785 5.69904 10.8815 5.68934C12.2172 5.62832 12.618 5.61565 16 5.61565ZM16 3.33334C12.5604 3.33334 12.1286 3.34832 10.7779 3.40934C9.72711 3.4303 8.68754 3.62926 7.70331 3.99777C6.85771 4.31614 6.09179 4.81522 5.45901 5.4602C4.81459 6.09276 4.31591 6.85826 3.99774 7.70334C3.62963 8.68764 3.43106 9.72721 3.41046 10.7779C3.34713 12.1286 3.33331 12.5604 3.33331 16C3.33331 19.4396 3.34829 19.8713 3.40931 21.2221C3.43027 22.2728 3.62923 23.3124 3.99774 24.2967C4.31611 25.1423 4.81519 25.9081 5.46017 26.5409C6.09273 27.1853 6.85823 27.684 7.70331 28.0023C8.68761 28.3704 9.72718 28.5689 10.7779 28.5895C12.1286 28.6528 12.5604 28.6667 16 28.6667C19.4396 28.6667 19.8713 28.6517 21.2221 28.5907C22.2728 28.5697 23.3124 28.3708 24.2966 28.0023C25.1384 27.6768 25.9028 27.1791 26.5409 26.5409C27.179 25.9028 27.6768 25.1384 28.0022 24.2967C28.3704 23.3124 28.5689 22.2728 28.5894 21.2221C28.6528 19.8713 28.6666 19.4396 28.6666 16C28.6666 12.5604 28.6517 12.1286 28.5906 10.7779C28.5697 9.72714 28.3708 8.68757 28.0022 7.70334C27.6838 6.85774 27.1848 6.09182 26.5398 5.45904C25.9072 4.81462 25.1417 4.31594 24.2966 3.99777C23.3124 3.62966 22.2728 3.43109 21.2221 3.41049C19.8713 3.34716 19.4396 3.33334 16 3.33334ZM16 9.4951C14.7134 9.4951 13.4557 9.87661 12.386 10.5914C11.3163 11.3061 10.4826 12.3221 9.99023 13.5107C9.49789 14.6993 9.36907 16.0072 9.62006 17.2691C9.87106 18.5309 10.4906 19.69 11.4003 20.5996C12.31 21.5093 13.469 22.1289 14.7309 22.3799C15.9928 22.6309 17.3006 22.5021 18.4893 22.0097C19.678 21.5175 20.6938 20.6836 21.4086 19.614C22.1234 18.5443 22.5049 17.2865 22.5049 16C22.5049 14.2748 21.8196 12.6203 20.5996 11.4003C19.3797 10.1804 17.7252 9.4951 16 9.4951ZM16 20.2227C15.1648 20.2227 14.3484 19.9749 13.654 19.5109C12.9596 19.0469 12.4184 18.3875 12.0988 17.6159C11.7792 16.8444 11.6956 15.9953 11.8585 15.1763C12.0214 14.3571 12.4236 13.6047 13.0142 13.0142C13.6046 12.4236 14.357 12.0215 15.1762 11.8585C15.9953 11.6956 16.8444 11.7792 17.6158 12.0988C18.3874 12.4184 19.0469 12.9597 19.5109 13.654C19.9749 14.3484 20.2226 15.1648 20.2226 16C20.2226 17.1199 19.7777 18.194 18.9858 18.9859C18.194 19.7777 17.1198 20.2227 16 20.2227ZM22.7617 7.71832C22.461 7.71832 22.1672 7.80746 21.9172 7.97448C21.6673 8.1415 21.4724 8.37889 21.3574 8.65664C21.2424 8.93438 21.2122 9.24 21.2709 9.53485C21.3296 9.8297 21.4742 10.1005 21.6869 10.3131C21.8994 10.5257 22.1702 10.6705 22.4652 10.7291C22.76 10.7878 23.0656 10.7577 23.3433 10.6426C23.621 10.5276 23.8585 10.3327 24.0254 10.0828C24.1925 9.83282 24.2817 9.53894 24.2817 9.23832C24.2817 8.83518 24.1216 8.44857 23.8365 8.16352C23.5514 7.87845 23.1648 7.71832 22.7617 7.71832Z"
    fill="currentColor"
  />
</svg>
