<svg width="32" height="32" viewBox="0 0 32 32" fill="none" xmlns="http://www.w3.org/2000/svg" data-fui-icon="true">
  <path
    d="M16 4.25C19.5724 4.25 20.0204 4.26428 21.4404 4.3291C22.3737 4.34145 23.2986 4.51248 24.1738 4.83691L24.1729 4.83789C24.8537 5.08929 25.4707 5.4876 25.9785 6.00586L26.1699 6.20312C26.603 6.67357 26.9409 7.22468 27.1631 7.82617L27.2773 8.1582C27.526 8.929 27.6586 9.73295 27.6709 10.5439L27.7109 11.4961C27.7423 12.3918 27.75 13.3105 27.75 16C27.75 19.5855 27.7364 20.0236 27.6709 21.4561C27.6568 22.3838 27.4856 23.3027 27.1631 24.1729L27.1592 24.1826C26.8982 24.859 26.4991 25.4737 25.9863 25.9863C25.4737 26.4991 24.859 26.8982 24.1826 27.1592L24.1738 27.1631L23.9131 26.46L24.1729 27.1631C23.2978 27.4874 22.3735 27.6585 21.4404 27.6709C20.0204 27.7358 19.5724 27.75 16 27.75C12.4267 27.75 11.9793 27.7358 10.5586 27.6709C9.62521 27.6585 8.70055 27.4875 7.8252 27.1631V27.1621C7.13809 26.908 6.51609 26.5042 6.00586 25.9785V25.9775C5.48784 25.4698 5.08921 24.8535 4.83789 24.1729C4.51531 23.3026 4.34315 22.3839 4.3291 21.4561C4.26366 20.0236 4.25 19.5855 4.25 16C4.25 12.4145 4.26366 11.9762 4.3291 10.5439C4.34315 9.61592 4.5143 8.69656 4.83691 7.82617C5.09086 7.13862 5.49567 6.51648 6.02148 6.00586C6.52911 5.4878 7.14564 5.0893 7.82617 4.83789C8.70114 4.51358 9.62559 4.34155 10.5586 4.3291C11.9793 4.26424 12.4267 4.25 16 4.25ZM18.1631 10.7793C17.131 10.3517 15.9942 10.2402 14.8984 10.458C13.8026 10.676 12.7959 11.2149 12.0059 12.0049C11.2158 12.7949 10.677 13.8016 10.459 14.8975C10.241 15.9933 10.3527 17.1299 10.7803 18.1621C11.2079 19.1944 11.9324 20.0765 12.8613 20.6973C13.7904 21.318 14.8835 21.6494 16.001 21.6494C17.4991 21.6492 18.9368 21.0544 19.9961 19.9951C21.0553 18.9357 21.6503 17.4981 21.6504 16C21.6503 14.8826 21.319 13.7893 20.6982 12.8604C20.0775 11.9315 19.1952 11.2069 18.1631 10.7793ZM15.1914 11.9297C15.9961 11.7698 16.831 11.8511 17.5889 12.165C18.347 12.4792 18.9952 13.012 19.4512 13.6943C19.907 14.3766 20.1503 15.1795 20.1504 16C20.1503 17.1002 19.7134 18.1565 18.9355 18.9346C18.1575 19.7126 17.1012 20.1492 16.001 20.1494C15.1804 20.1494 14.3777 19.906 13.6953 19.4502C13.0129 18.9942 12.4801 18.3462 12.166 17.5879C11.852 16.8299 11.7706 15.9952 11.9307 15.1904C12.0909 14.3855 12.4862 13.6456 13.0664 13.0654C13.6466 12.4853 14.3865 12.0898 15.1914 11.9297ZM22.7617 7.71875C22.4403 7.71875 22.1257 7.81377 21.8584 7.99219C21.5913 8.17062 21.3826 8.42401 21.2598 8.7207C21.1368 9.01741 21.1043 9.3442 21.167 9.65918C21.2297 9.97412 21.385 10.2632 21.6123 10.4902C21.8395 10.7173 22.129 10.8719 22.4443 10.9346C22.7594 10.9972 23.086 10.9656 23.3828 10.8428C23.6797 10.7199 23.9338 10.5112 24.1123 10.2441C24.2909 9.97714 24.3867 9.66291 24.3867 9.3418C24.3866 8.91132 24.2147 8.49876 23.9102 8.19434C23.6055 7.88991 23.1925 7.71888 22.7617 7.71875Z"
    fill="currentColor"
  />
</svg>
