<svg width="24" height="24" viewBox="0 0 24 24" fill="none" xmlns="http://www.w3.org/2000/svg" data-fui-icon="true">
  <path
    d="M12 3C14.6761 3 15.0184 3.01095 16.084 3.05957C16.8044 3.06923 17.5177 3.20189 18.1934 3.45215C18.7288 3.64976 19.2144 3.96308 19.6143 4.37012C20.0287 4.77256 20.3477 5.26277 20.5479 5.80469C20.7965 6.47566 20.9289 7.18408 20.9404 7.89941L20.9707 8.61719C20.9943 9.29161 21 9.9829 21 12C21 14.6899 20.9897 15.0219 20.9404 16.1006C20.9289 16.8159 20.7965 17.5244 20.5479 18.1953L20.5449 18.2041C20.3654 18.6695 20.1018 19.098 19.7686 19.4678L19.6221 19.6221C19.2191 20.0252 18.7358 20.3398 18.2041 20.5449L18.1953 20.5479C17.5192 20.7985 16.8049 20.9307 16.084 20.9404C15.0184 20.9891 14.676 21 12 21C9.32313 21 8.98129 20.9891 7.91504 20.9404C7.19409 20.9307 6.47986 20.7984 5.80371 20.5479V20.5469C5.26894 20.3491 4.78499 20.0357 4.38574 19.6289V19.6299C3.97106 19.2271 3.65132 18.7367 3.45117 18.1943L3.45215 18.1934C3.20381 17.5229 3.07104 16.8153 3.05957 16.1006C3.01029 15.0219 3 14.6899 3 12C3 9.3101 3.01029 8.97799 3.05957 7.89941C3.07104 7.18431 3.20363 6.47642 3.45215 5.80566C3.65229 5.26343 3.97109 4.77278 4.38574 4.37012C4.78556 3.96307 5.27021 3.64877 5.80566 3.45117V3.45215C6.4813 3.20182 7.19462 3.06935 7.91504 3.05957C8.98129 3.01091 9.32311 3 12 3ZM13.6934 7.91211C12.885 7.57724 11.9949 7.48947 11.1367 7.66016C10.2784 7.83092 9.48986 8.2523 8.87109 8.87109C8.25228 9.48986 7.83092 10.2784 7.66016 11.1367C7.48946 11.995 7.57723 12.8849 7.91211 13.6934C8.24704 14.5018 8.81444 15.1935 9.54199 15.6797C10.2695 16.1656 11.125 16.4248 12 16.4248C13.1735 16.4247 14.2991 15.9587 15.1289 15.1289C15.9587 14.2991 16.4248 13.1735 16.4248 12C16.4248 11.125 16.1656 10.2695 15.6797 9.54199C15.1935 8.81445 14.5018 8.24704 13.6934 7.91211ZM11.4297 9.13184C11.9969 9.01905 12.5849 9.07659 13.1191 9.29785L13.3164 9.3877C13.7661 9.61434 14.1515 9.95425 14.4326 10.375C14.7539 10.8559 14.9248 11.4217 14.9248 12C14.9248 12.7756 14.6168 13.5199 14.0684 14.0684C13.5199 14.6168 12.7756 14.9247 12 14.9248C11.4217 14.9248 10.8559 14.7539 10.375 14.4326C9.95424 14.1514 9.61434 13.7662 9.3877 13.3164L9.29785 13.1191C9.07658 12.5849 9.01903 11.9969 9.13184 11.4297C9.2447 10.8622 9.5226 10.3406 9.93164 9.93164C10.3406 9.52262 10.8622 9.2447 11.4297 9.13184ZM17.0713 5.78906C16.8302 5.78906 16.594 5.86032 16.3936 5.99414C16.1934 6.12796 16.0374 6.31859 15.9453 6.54102C15.8532 6.76347 15.829 7.00801 15.876 7.24414C15.923 7.48039 16.0385 7.69784 16.209 7.86816C16.3793 8.03839 16.5967 8.15416 16.833 8.20117C17.0693 8.24815 17.3145 8.22392 17.5371 8.13184C17.7596 8.03973 17.9502 7.88367 18.084 7.68359C18.2179 7.48338 18.29 7.24763 18.29 7.00684C18.29 6.68383 18.1612 6.3739 17.9326 6.14551C17.7041 5.9172 17.3944 5.78913 17.0713 5.78906Z"
    fill="currentColor"
  />
</svg>
