<svg width="16" height="16" viewBox="0 0 16 16" fill="none" xmlns="http://www.w3.org/2000/svg" data-fui-icon="true">
  <path
    d="M12.834 1.75C13.2479 1.75037 13.584 2.08602 13.584 2.5C13.584 2.91398 13.2479 3.24963 12.834 3.25H10.2236L7.34473 12.75H9.50684C9.92088 12.7502 10.2568 13.0859 10.2568 13.5C10.2568 13.9141 9.92088 14.2498 9.50684 14.25H3.16699C2.75278 14.25 2.41699 13.9142 2.41699 13.5C2.41699 13.0858 2.75278 12.75 3.16699 12.75H5.77734L8.65625 3.25H6.5C6.08594 3.24982 5.75 2.91411 5.75 2.5C5.75 2.08589 6.08594 1.75018 6.5 1.75H12.834Z"
    fill="currentColor"
  />
</svg>
