<svg width="24" height="24" viewBox="0 0 24 24" fill="none" xmlns="http://www.w3.org/2000/svg" data-fui-icon="true">
  <path
    d="M19.25 3C19.6642 3 20 3.33579 20 3.75C20 4.16421 19.6642 4.5 19.25 4.5H15.0566L10.5107 19.5H14.2598C14.674 19.5 15.0098 19.8358 15.0098 20.25C15.0098 20.6642 14.674 21 14.2598 21H4.75C4.33579 21 4 20.6642 4 20.25C4 19.8358 4.33579 19.5 4.75 19.5H8.94336L13.4893 4.5H9.75C9.33579 4.5 9 4.16421 9 3.75C9 3.33579 9.33579 3 9.75 3H19.25Z"
    fill="currentColor"
  />
</svg>
