<svg width="32" height="32" viewBox="0 0 32 32" fill="none" xmlns="http://www.w3.org/2000/svg" data-fui-icon="true">
  <path
    d="M25.665 4.25C26.0793 4.25 26.415 4.58579 26.415 5C26.415 5.41421 26.0793 5.75 25.665 5.75H19.8887L13.6758 26.25H19.0117C19.4259 26.25 19.7617 26.5858 19.7617 27C19.7617 27.4142 19.4259 27.75 19.0117 27.75H6.33203C5.91799 27.7498 5.58203 27.4141 5.58203 27C5.58203 26.5859 5.91799 26.2502 6.33203 26.25H12.1084L18.3213 5.75H12.999C12.585 5.7498 12.249 5.41409 12.249 5C12.249 4.58591 12.585 4.2502 12.999 4.25H25.665Z"
    fill="currentColor"
  />
</svg>
