<svg width="32" height="32" viewBox="0 0 32 32" fill="none" xmlns="http://www.w3.org/2000/svg" data-fui-icon="true">
  <path
    d="M25.666 4.25C26.0802 4.25 26.416 4.58579 26.416 5C26.416 5.41421 26.0802 5.75 25.666 5.75H19.8896L13.6768 26.25H19.0127C19.4269 26.25 19.7627 26.5858 19.7627 27C19.7627 27.4142 19.4269 27.75 19.0127 27.75H6.33301C5.91896 27.7498 5.58301 27.4141 5.58301 27C5.58301 26.5859 5.91896 26.2502 6.33301 26.25H12.1094L18.3223 5.75H13C12.586 5.7498 12.25 5.41409 12.25 5C12.25 4.58591 12.586 4.2502 13 4.25H25.666Z"
    fill="currentColor"
  />
</svg>
