<svg width="12" height="12" viewBox="0 0 12 12" fill="none" xmlns="http://www.w3.org/2000/svg" data-fui-icon="true">
  <path
    d="M9.625 1.125C10.0392 1.125 10.375 1.46079 10.375 1.875C10.375 2.28921 10.0392 2.625 9.625 2.625H7.80664L5.76074 9.375H7.12988C7.5441 9.375 7.87988 9.71079 7.87988 10.125C7.87988 10.5392 7.5441 10.875 7.12988 10.875H2.375C1.96079 10.875 1.625 10.5392 1.625 10.125C1.625 9.71079 1.96079 9.375 2.375 9.375H4.19336L6.23926 2.625H4.875C4.46079 2.625 4.125 2.28921 4.125 1.875C4.125 1.46079 4.46079 1.125 4.875 1.125H9.625Z"
    fill="currentColor"
  />
</svg>
