<svg width="16" height="16" viewBox="0 0 16 16" fill="none" xmlns="http://www.w3.org/2000/svg" data-fui-icon="true">
  <path
    d="M12.835 1.75C13.2489 1.75037 13.585 2.08602 13.585 2.5C13.585 2.91398 13.2489 3.24963 12.835 3.25H10.2246L7.3457 12.75H9.50781C9.92186 12.7502 10.2578 13.0859 10.2578 13.5C10.2578 13.9141 9.92186 14.2498 9.50781 14.25H3.16797C2.75376 14.25 2.41797 13.9142 2.41797 13.5C2.41797 13.0858 2.75376 12.75 3.16797 12.75H5.77832L8.65723 3.25H6.50098C6.08691 3.24982 5.75098 2.91411 5.75098 2.5C5.75098 2.08589 6.08691 1.75018 6.50098 1.75H12.835Z"
    fill="currentColor"
  />
</svg>
