<svg width="20" height="20" viewBox="0 0 20 20" fill="none" xmlns="http://www.w3.org/2000/svg" data-fui-icon="true">
  <path
    d="M16.041 2.375C16.4552 2.375 16.791 2.71079 16.791 3.125C16.791 3.53921 16.4552 3.875 16.041 3.875H12.6396L8.92676 16.125H11.8828C12.297 16.125 12.6328 16.4608 12.6328 16.875C12.6328 17.2892 12.297 17.625 11.8828 17.625H3.95801C3.54396 17.6248 3.20801 17.2891 3.20801 16.875C3.20801 16.4609 3.54396 16.1252 3.95801 16.125H7.35938L11.0723 3.875H8.125C7.71095 3.8748 7.375 3.53909 7.375 3.125C7.375 2.71091 7.71095 2.3752 8.125 2.375H16.041Z"
    fill="currentColor"
  />
</svg>
