<svg width="16" height="16" viewBox="0 0 16 16" fill="none" xmlns="http://www.w3.org/2000/svg" data-fui-icon="true">
  <path
    d="M12.25 1C13.7688 1 15 2.23122 15 3.75C15 5.26878 13.7688 6.5 12.25 6.5C11.0844 6.5 10.0907 5.77381 9.69043 4.75H4.12598C3.50435 4.75 3 5.25434 3 5.87598C3.00027 6.49738 3.50451 7.00098 4.12598 7.00098H11.876C13.6012 7.00137 15 8.40064 15 10.126C14.9997 11.8511 13.6011 13.2496 11.876 13.25H6.30957C5.90928 14.2738 4.91561 15 3.75 15C2.23122 15 1 13.7688 1 12.25C1 10.7312 2.23122 9.5 3.75 9.5C4.91561 9.5 5.90928 10.2262 6.30957 11.25H11.876C12.4965 11.2496 12.9997 10.7465 13 10.126C13 9.50521 12.4967 9.00137 11.876 9.00098H4.12598C2.39994 9.00098 1.00027 7.60195 1 5.87598C1 4.14978 2.39978 2.75 4.12598 2.75H9.69043C10.0907 1.72619 11.0844 1 12.25 1Z"
    fill="currentColor"
  />
</svg>
