<svg width="24" height="24" viewBox="0 0 24 24" fill="none" xmlns="http://www.w3.org/2000/svg" data-fui-icon="true">
  <path
    d="M19.5 1C21.433 1 23 2.567 23 4.5C23 6.433 21.433 8 19.5 8C17.8246 8 16.4255 6.82244 16.082 5.25H5.5C3.8432 5.25012 2.50012 6.5932 2.5 8.25C2.50004 9.90687 3.84315 11.2499 5.5 11.25H18.501C20.986 11.25 23.0009 13.265 23.001 15.75C23.0009 18.2351 20.9861 20.25 18.501 20.25H7.91797C7.57452 21.8224 6.17545 23 4.5 23C2.567 23 1 21.433 1 19.5C1 17.567 2.567 16 4.5 16C6.17545 16 7.57452 17.1776 7.91797 18.75H18.501C20.1577 18.75 21.5009 17.4067 21.501 15.75C21.5009 14.0934 20.1576 12.75 18.501 12.75H5.5C3.01472 12.7499 1.00004 10.7353 1 8.25C1.00012 5.76477 3.01477 3.75012 5.5 3.75H16.082C16.4255 2.17756 17.8246 1 19.5 1ZM4.5 17.5C3.39543 17.5 2.5 18.3954 2.5 19.5C2.5 20.6046 3.39543 21.5 4.5 21.5C5.60457 21.5 6.5 20.6046 6.5 19.5C6.5 18.3954 5.60457 17.5 4.5 17.5ZM19.5 2.5C18.3954 2.5 17.5 3.39543 17.5 4.5C17.5 5.60457 18.3954 6.5 19.5 6.5C20.6046 6.5 21.5 5.60457 21.5 4.5C21.5 3.39543 20.6046 2.5 19.5 2.5Z"
    fill="currentColor"
  />
</svg>
