<svg width="20" height="20" viewBox="0 0 20 20" fill="none" xmlns="http://www.w3.org/2000/svg" data-fui-icon="true">
  <path
    d="M15.75 1C17.5449 1 19 2.45507 19 4.25C19 6.04493 17.5449 7.5 15.75 7.5C14.304 7.5 13.079 6.55556 12.6572 5.25H4.875C3.83955 5.2502 3.0002 6.08955 3 7.125C3.00006 8.16056 3.83947 9.00078 4.875 9.00098H15.125C17.2646 9.00117 18.9998 10.7354 19 12.875C18.9999 15.0147 17.2647 16.7498 15.125 16.75H7.34277C6.92095 18.0556 5.69597 19 4.25 19C2.45507 19 1 17.5449 1 15.75C1 13.9551 2.45507 12.5 4.25 12.5C5.69597 12.5 6.92095 13.4444 7.34277 14.75H15.125C16.1601 14.7498 16.9999 13.9102 17 12.875C16.9998 11.84 16.16 11.0012 15.125 11.001H4.875C2.7349 11.0008 1.00006 9.26513 1 7.125C1.0002 4.98499 2.73498 3.2502 4.875 3.25H12.6572C13.079 1.94444 14.304 1 15.75 1Z"
    fill="currentColor"
  />
</svg>
