<svg width="32" height="32" viewBox="0 0 32 32" fill="none" xmlns="http://www.w3.org/2000/svg" data-fui-icon="true">
  <path
    d="M26.25 1C28.8734 1 31 3.12665 31 5.75C31 8.37335 28.8734 10.5 26.25 10.5C23.9698 10.5 22.0657 8.89307 21.6064 6.75H7.125C4.84692 6.7502 3.0002 8.59692 3 10.875C3.00003 13.1532 4.84681 15.0008 7.125 15.001H24.875C28.2572 15.0012 30.9998 17.7428 31 21.125C31 24.5074 28.2573 27.2497 24.875 27.25H10.3936C9.93425 29.3931 8.03024 31 5.75 31C3.12665 31 1 28.8734 1 26.25C1 23.6266 3.12665 21.5 5.75 21.5C8.03024 21.5 9.93425 23.1069 10.3936 25.25H24.875C27.1527 25.2497 29 23.4028 29 21.125C28.9998 18.8474 27.1526 17.0012 24.875 17.001H7.125C3.74224 17.0008 1.00003 14.2578 1 10.875C1.0002 7.49235 3.74235 4.7502 7.125 4.75H21.6064C22.0657 2.60693 23.9698 1 26.25 1Z"
    fill="currentColor"
  />
</svg>
