<svg width="16" height="16" viewBox="0 0 16 16" fill="none" xmlns="http://www.w3.org/2000/svg" data-fui-icon="true">
  <path
    d="M12.5 1C13.8807 1 15 2.12026 15 3.50098C14.9997 4.88146 13.8805 6.00098 12.5 6.00098C11.3804 6.00098 10.4327 5.26453 10.1143 4.25H4.00098C3.17224 4.25 2.5 4.92224 2.5 5.75098C2.50027 6.57948 3.17241 7.25098 4.00098 7.25098H12.002C13.6583 7.2512 15.001 8.59457 15.001 10.251C15.0007 11.9072 13.6581 13.2498 12.002 13.25H5.88477C5.56613 14.2642 4.61933 15 3.5 15C2.11929 15 1 13.8807 1 12.5C1 11.1193 2.11929 10 3.5 10C4.61933 10 5.56613 10.7358 5.88477 11.75H12.002C12.8297 11.7498 13.5007 11.0787 13.501 10.251C13.501 9.423 12.8299 8.7512 12.002 8.75098H4.00098C2.34398 8.75098 1.00027 7.40791 1 5.75098C1 4.09381 2.34381 2.75 4.00098 2.75H10.1152C10.434 1.73607 11.3808 1 12.5 1ZM3.5 11.5C2.94772 11.5 2.5 11.9477 2.5 12.5C2.5 13.0523 2.94772 13.5 3.5 13.5C4.05228 13.5 4.5 13.0523 4.5 12.5C4.5 11.9477 4.05228 11.5 3.5 11.5ZM12.5 2.50098C11.9477 2.50098 11.5 2.94869 11.5 3.50098C11.5003 4.05304 11.9479 4.50098 12.5 4.50098C13.0521 4.50098 13.4997 4.05304 13.5 3.50098C13.5 2.94869 13.0523 2.50098 12.5 2.50098Z"
    fill="currentColor"
  />
</svg>
