<svg width="16" height="16" viewBox="0 0 16 16" fill="none" xmlns="http://www.w3.org/2000/svg" data-fui-icon="true">
  <path
    d="M11.5 1.21973C11.7928 0.92689 12.2676 0.927003 12.5605 1.21973C12.8534 1.51262 12.8534 1.98738 12.5605 2.28027L6.84082 8L12.5605 13.7197C12.8534 14.0126 12.8534 14.4874 12.5605 14.7803C12.2676 15.073 11.7928 15.0731 11.5 14.7803L5.78027 9.06055L5 9.84082V14.25C5 14.6642 4.66421 15 4.25 15C3.83579 15 3.5 14.6642 3.5 14.25V1.75C3.5 1.33579 3.83579 1 4.25 1C4.66421 1 5 1.33579 5 1.75V7.71973L11.5 1.21973Z"
    fill="currentColor"
  />
</svg>
