<svg width="20" height="20" viewBox="0 0 20 20" fill="none" xmlns="http://www.w3.org/2000/svg" data-fui-icon="true">
  <path
    d="M13.7197 2.21973C14.0126 1.92683 14.4874 1.92683 14.7803 2.21973C15.0732 2.51262 15.0732 2.98738 14.7803 3.28027L8.06055 10L14.7803 16.7197C15.0732 17.0126 15.0731 17.4874 14.7803 17.7803C14.4874 18.0732 14.0126 18.0732 13.7197 17.7803L7 11.0605L6 12.0605V17.25C6 17.6642 5.66421 18 5.25 18C4.83579 18 4.5 17.6642 4.5 17.25V2.75C4.5 2.33579 4.83579 2 5.25 2C5.66421 2 6 2.33579 6 2.75V9.93945L13.7197 2.21973Z"
    fill="currentColor"
  />
</svg>
