<svg width="24" height="24" viewBox="0 0 24 24" fill="none" xmlns="http://www.w3.org/2000/svg" data-fui-icon="true">
  <path
    d="M17.1572 2.21973C17.4501 1.92683 17.9249 1.92683 18.2178 2.21973C18.5107 2.51262 18.5107 2.98738 18.2178 3.28027L9.49805 12L18.2178 20.7197C18.5107 21.0126 18.5107 21.4874 18.2178 21.7803C17.9249 22.0732 17.4501 22.0732 17.1572 21.7803L8.4375 13.0605L7 14.498V21.25C7 21.6642 6.66421 22 6.25 22C5.83579 22 5.5 21.6642 5.5 21.25V2.75C5.5 2.33579 5.83579 2 6.25 2C6.66421 2 7 2.33579 7 2.75V12.377L17.1572 2.21973Z"
    fill="currentColor"
  />
</svg>
