<svg width="32" height="32" viewBox="0 0 32 32" fill="none" xmlns="http://www.w3.org/2000/svg" data-fui-icon="true">
  <path
    d="M22.7197 3.21973C23.0126 2.92683 23.4874 2.92683 23.7803 3.21973C24.0732 3.51262 24.0732 3.98738 23.7803 4.28027L12.0605 16L23.7803 27.7197C24.0732 28.0126 24.0732 28.4874 23.7803 28.7803C23.4874 29.0732 23.0126 29.0732 22.7197 28.7803L11 17.0605L8.75 19.3105V28.25C8.75 28.6642 8.41421 29 8 29C7.58579 29 7.25 28.6642 7.25 28.25V3.75C7.25 3.33579 7.58579 3 8 3C8.41421 3 8.75 3.33579 8.75 3.75V17.1895L22.7197 3.21973Z"
    fill="currentColor"
  />
</svg>
