<svg width="21" height="20" viewBox="0 0 21 20" fill="none" xmlns="http://www.w3.org/2000/svg" data-fui-icon="true">
  <path
    d="M4.15901 10.0191C4.78306 8.65872 6.71649 8.65872 7.34053 10.0191L11.4312 18.9367C11.6036 19.3131 11.4384 19.7592 11.0621 19.9318C10.6859 20.1041 10.2408 19.9386 10.068 19.5627L9.12171 17.4993H2.37784L1.43158 19.5627C1.25877 19.9386 0.813666 20.1041 0.437483 19.9318C0.0611396 19.7592 -0.104036 19.3131 0.0683567 18.9367L4.15901 10.0191ZM5.9773 10.6441C5.88813 10.4499 5.61142 10.4499 5.52224 10.6441L3.06628 15.9994H8.43326L5.9773 10.6441ZM14.9994 0C15.4136 0 15.7494 0.335773 15.7494 0.74997V1.99992H19.2414L19.3186 2.00383C19.6967 2.04226 19.9914 2.3616 19.9914 2.74989H19.2414C19.9308 2.74989 19.9869 2.7504 19.9914 2.75087V2.78407C19.991 2.80191 19.9907 2.82634 19.9894 2.85633C19.9869 2.91655 19.9813 3.0013 19.9719 3.10632C19.9531 3.31617 19.9164 3.61064 19.8439 3.96664C19.6991 4.6782 19.4104 5.64384 18.8342 6.67161C18.2985 7.62703 17.522 8.61857 16.4085 9.50744C17.2531 9.91497 18.2454 10.2648 19.4123 10.5201C19.8167 10.6088 20.073 11.0091 19.9846 11.4136C19.8957 11.8175 19.4961 12.0739 19.092 11.9859C17.4527 11.6272 16.1063 11.0929 15.0004 10.4605C13.8938 11.0932 12.5476 11.6266 10.9097 11.9849C10.5052 12.0733 10.1057 11.8172 10.0172 11.4126C9.92866 11.008 10.1848 10.6086 10.5894 10.5201C11.7568 10.2647 12.7483 9.91473 13.5922 9.50744C12.2145 8.40736 11.3559 7.15124 10.8287 6.00855C10.6552 5.63247 10.8198 5.187 11.1958 5.01347C11.5718 4.8401 12.0174 5.00377 12.1909 5.37967C12.6754 6.42984 13.5167 7.65146 14.9984 8.68618C16.2289 7.82728 17.0176 6.84349 17.5257 5.93726C18.0109 5.07181 18.2537 4.26014 18.3743 3.66782C18.3861 3.60984 18.394 3.55332 18.4036 3.49986H10.7496C10.3354 3.49986 9.9996 3.16409 9.9996 2.74989C9.9996 2.33569 10.3354 1.99992 10.7496 1.99992H14.2494V0.74997C14.2494 0.335773 14.5852 0 14.9994 0Z"
    fill="currentColor"
  />
</svg>
