<svg width="32" height="32" viewBox="0 0 32 32" fill="none" xmlns="http://www.w3.org/2000/svg" data-fui-icon="true">
  <path
    fill-rule="evenodd"
    clip-rule="evenodd"
    d="M7.42462 16.2627C8.21345 14.566 10.6251 14.5659 11.4139 16.2627L17.7703 29.9336C17.9448 30.309 17.7813 30.7549 17.4061 30.9297C17.0306 31.1042 16.5847 30.9417 16.41 30.5664L14.5194 26.5H4.31915L2.42853 30.5664C2.25382 30.9417 1.8079 31.1041 1.43244 30.9297C1.05708 30.755 0.894598 30.3091 1.06915 29.9336L7.42462 16.2627ZM10.0545 16.8945C9.80357 16.3547 9.03609 16.3549 8.78497 16.8945L5.01642 25H13.8221L10.0545 16.8945ZM23.4988 1C23.9128 1.00027 24.2488 1.33595 24.2488 1.75V4H30.2479C30.652 4.0001 30.984 4.3207 30.9979 4.72461L30.2479 4.75C30.9972 4.72431 30.9978 4.72497 30.9979 4.72559V4.74023C30.998 4.74768 30.9987 4.75774 30.9988 4.76953C30.9991 4.79342 30.9994 4.82635 30.9988 4.86719C30.9976 4.94923 30.9933 5.06454 30.9832 5.20898C30.963 5.4984 30.9174 5.90626 30.8172 6.39844C30.617 7.38244 30.1967 8.71132 29.3162 10.1104C28.4373 11.5068 27.1177 12.9439 25.1522 14.1768C26.5957 14.7617 28.3156 15.2467 30.366 15.5713C30.775 15.6361 31.0546 16.0207 30.9901 16.4297C30.9252 16.8386 30.5406 17.1174 30.1317 17.0527C27.4488 16.6281 25.269 15.9348 23.4988 15.085C21.7287 15.935 19.5491 16.629 16.866 17.0537C16.457 17.1184 16.0724 16.8388 16.0076 16.4297C15.943 16.0206 16.2226 15.636 16.6317 15.5713C18.6819 15.2468 20.4011 14.7606 21.8445 14.1758C19.8998 12.956 18.5877 11.5362 17.7088 10.1533C17.4868 9.80386 17.59 9.3404 17.9393 9.11816C18.2887 8.89626 18.7522 8.99941 18.9744 9.34863C19.839 10.709 21.2331 12.1859 23.4979 13.4033C25.7838 12.1748 27.1837 10.6827 28.0467 9.31152C28.8133 8.09355 29.1761 6.94169 29.3475 6.09961C29.393 5.87602 29.4238 5.67437 29.4461 5.5H16.7488C16.3346 5.5 15.9988 5.16421 15.9988 4.75C15.9988 4.33579 16.3346 4 16.7488 4H22.7488V1.75C22.7488 1.33579 23.0846 1 23.4988 1Z"
    fill="currentColor"
  />
</svg>
