<svg width="32" height="32" viewBox="0 0 32 32" fill="none" xmlns="http://www.w3.org/2000/svg" data-fui-icon="true">
  <path
    d="M7.42578 16.2627C8.21461 14.566 10.6263 14.5659 11.415 16.2627L17.7715 29.9336C17.946 30.309 17.7825 30.7549 17.4072 30.9297C17.0317 31.1042 16.5859 30.9417 16.4111 30.5664L14.5205 26.5H4.32031L2.42969 30.5664C2.25498 30.9417 1.80905 31.1041 1.43359 30.9297C1.05824 30.755 0.895756 30.3091 1.07031 29.9336L7.42578 16.2627ZM10.0557 16.8945C9.80473 16.3547 9.03725 16.3549 8.78613 16.8945L5.01758 25H13.8232L10.0557 16.8945ZM23.5 1C23.914 1.00027 24.25 1.33595 24.25 1.75V4H30.249C30.6532 4.0001 30.9852 4.3207 30.999 4.72461L30.249 4.75C30.9984 4.72431 30.999 4.72497 30.999 4.72559V4.74023C30.9992 4.74768 30.9999 4.75774 31 4.76953C31.0002 4.79342 31.0006 4.82635 31 4.86719C30.9988 4.94923 30.9945 5.06454 30.9844 5.20898C30.9642 5.4984 30.9185 5.90626 30.8184 6.39844C30.6181 7.38244 30.1979 8.71132 29.3174 10.1104C28.4385 11.5068 27.1189 12.9439 25.1533 14.1768C26.5969 14.7617 28.3167 15.2467 30.3672 15.5713C30.7761 15.6361 31.0558 16.0207 30.9912 16.4297C30.9264 16.8386 30.5418 17.1174 30.1328 17.0527C27.45 16.6281 25.2702 15.9348 23.5 15.085C21.7298 15.935 19.5502 16.629 16.8672 17.0537C16.4581 17.1184 16.0735 16.8388 16.0088 16.4297C15.9441 16.0206 16.2237 15.636 16.6328 15.5713C18.6831 15.2468 20.4023 14.7606 21.8457 14.1758C19.901 12.956 18.5888 11.5362 17.71 10.1533C17.4879 9.80386 17.5911 9.3404 17.9404 9.11816C18.2899 8.89626 18.7534 8.99941 18.9756 9.34863C19.8401 10.709 21.2343 12.1859 23.499 13.4033C25.785 12.1748 27.1849 10.6827 28.0479 9.31152C28.8144 8.09355 29.1772 6.94169 29.3486 6.09961C29.3941 5.87602 29.4249 5.67437 29.4473 5.5H16.75C16.3358 5.5 16 5.16421 16 4.75C16 4.33579 16.3358 4 16.75 4H22.75V1.75C22.75 1.33579 23.0858 1 23.5 1Z"
    fill="currentColor"
  />
</svg>
