<svg width="17" height="16" viewBox="0 0 17 16" fill="none" xmlns="http://www.w3.org/2000/svg" data-fui-icon="true">
  <path
    fill-rule="evenodd"
    clip-rule="evenodd"
    d="M3.34429 7.89331C3.90018 6.69844 5.59887 6.69844 6.15475 7.89331L9.42907 14.9341C9.60323 15.3095 9.44114 15.7556 9.0658 15.9302C8.6904 16.1047 8.24453 15.9411 8.06974 15.5659L7.34124 13.9996H2.15781L1.42931 15.5659C1.25455 15.9411 0.808638 16.1046 0.433249 15.9302C0.0578967 15.7556 -0.104223 15.3095 0.0699791 14.9341L3.34429 7.89331ZM4.72023 8.50365C4.71825 8.50489 4.71617 8.50652 4.71437 8.50853C4.71252 8.51074 4.70914 8.51637 4.7046 8.52611L2.85603 12.4996H6.64302L4.79444 8.52611C4.78995 8.51646 4.78654 8.51077 4.78468 8.50853C4.7829 8.50655 4.78076 8.50488 4.77882 8.50365C4.77403 8.50074 4.76365 8.49682 4.74952 8.49681C4.73537 8.49681 4.72502 8.50074 4.72023 8.50365ZM11.9993 0C12.4135 3.40136e-05 12.7493 0.335797 12.7493 0.749977V1.49995H15.2492C15.6478 1.49999 15.9769 1.81184 15.9982 2.20989L15.2492 2.24993C15.9791 2.211 15.9977 2.21041 15.9982 2.21087V2.22161C15.9984 2.22673 15.9989 2.23345 15.9992 2.24114C15.9997 2.25663 16.0008 2.27723 16.0011 2.30266C16.0018 2.35427 16.0012 2.42652 15.9982 2.51555C15.9921 2.6934 15.9745 2.94267 15.9308 3.24307C15.8436 3.84261 15.6492 4.65745 15.2189 5.52522C14.8338 6.30174 14.2672 7.10285 13.4465 7.82496C14.0565 8.09254 14.7129 8.31482 15.4064 8.46361C15.8114 8.55051 16.0694 8.94926 15.9826 9.35421C15.8957 9.75914 15.4969 10.0171 15.092 9.93036C13.9835 9.69256 12.9579 9.29872 12.0481 8.81711C11.1934 9.30319 10.1593 9.70872 8.90955 9.98212C8.50495 10.0706 8.10552 9.81447 8.017 9.40987C7.92853 9.00526 8.18464 8.60583 8.58925 8.51732C9.34094 8.35286 9.99398 8.13464 10.5638 7.88355C9.40024 7.02242 8.50559 6.01102 8.06876 5.0643C7.89532 4.68831 8.05912 4.24284 8.43496 4.06921C8.81093 3.89581 9.25643 4.05959 9.43005 4.43541C9.73369 5.09365 10.4435 5.93945 11.5032 6.71366C11.6641 6.83119 11.8328 6.94473 12.0071 7.05643C12.9411 6.36969 13.5168 5.582 13.8752 4.85923C14.2204 4.16326 14.3766 3.5068 14.4465 3.02627C14.4478 3.01746 14.4482 3.00859 14.4494 2.99991H8.7494C8.3352 2.99991 7.99942 2.66413 7.99942 2.24993C7.99942 1.83573 8.3352 1.49995 8.7494 1.49995H11.2493V0.749977C11.2493 0.335776 11.5851 0 11.9993 0Z"
    fill="currentColor"
  />
</svg>
