<svg width="21" height="20" viewBox="0 0 21 20" fill="none" xmlns="http://www.w3.org/2000/svg" data-fui-icon="true">
  <path
    fill-rule="evenodd"
    clip-rule="evenodd"
    d="M4.15892 10.019C4.78296 8.65864 6.71637 8.65864 7.34041 10.019L11.431 18.9366C11.6034 19.313 11.4382 19.759 11.0619 19.9316C10.6857 20.1039 10.2406 19.9384 10.0678 19.5625L9.12157 17.4991H2.37776L1.43152 19.5625C1.2587 19.9384 0.813602 20.1039 0.437423 19.9316C0.0610835 19.759 -0.104091 19.313 0.0683005 18.9366L4.15892 10.019ZM5.97719 10.644C5.88802 10.4498 5.61131 10.4498 5.52214 10.644L3.0662 15.9992H8.43313L5.97719 10.644ZM14.9992 0C15.4134 0 15.7492 0.33577 15.7492 0.749963V1.9999H19.2412C19.6554 1.9999 19.9912 2.33567 19.9912 2.74987H19.2412C19.9306 2.74987 19.9867 2.75037 19.9912 2.75084V2.78404C19.9908 2.80188 19.9905 2.82632 19.9892 2.85631C19.9867 2.91652 19.981 3.00127 19.9716 3.10629C19.9528 3.31614 19.9162 3.6106 19.8437 3.9666C19.6989 4.67816 19.4102 5.64379 18.834 6.67155C18.2983 7.62696 17.5218 8.61849 16.4083 9.50735C17.2529 9.91488 18.2452 10.2647 19.4121 10.52C19.8164 10.6087 20.0728 11.009 19.9843 11.4135C19.8955 11.8174 19.4959 12.0738 19.0918 11.9857C17.4525 11.6271 16.1061 11.0928 15.0002 10.4604C13.8936 11.0931 12.5474 11.6265 10.9096 11.9848C10.505 12.0732 10.1056 11.8171 10.017 11.4125C9.92852 11.0079 10.1846 10.6085 10.5893 10.52C11.7567 10.2646 12.7481 9.91464 13.5921 9.50735C12.2143 8.40728 11.3557 7.15117 10.8285 6.0085C10.655 5.63242 10.8196 5.18695 11.1957 5.01343C11.5717 4.84006 12.0172 5.00373 12.1908 5.37962C12.6753 6.42979 13.5165 7.65139 14.9982 8.6861C16.2287 7.82721 17.0174 6.84343 17.5255 5.93721C18.0107 5.07177 18.2535 4.2601 18.374 3.66779C18.3858 3.60981 18.3938 3.55328 18.4033 3.49983H10.7494C10.3352 3.49983 9.99946 3.16406 9.99946 2.74987C9.99946 2.33567 10.3352 1.9999 10.7494 1.9999H14.2492V0.749963C14.2492 0.33577 14.585 0 14.9992 0Z"
    fill="currentColor"
  />
</svg>
