<svg width="16" height="16" viewBox="0 0 16 16" fill="none" xmlns="http://www.w3.org/2000/svg" data-fui-icon="true">
  <path
    fill-rule="evenodd"
    clip-rule="evenodd"
    d="M13.8651 1.26222C14.1074 1.21789 14.3561 1.29543 14.5303 1.46965C14.7046 1.64387 14.7821 1.89256 14.7378 2.13492L14.7364 2.14218L14.7328 2.16167L14.7189 2.23596C14.7067 2.3007 14.6886 2.3953 14.6649 2.51603C14.6176 2.75746 14.5481 3.10361 14.4586 3.52469C14.2798 4.36609 14.0206 5.51029 13.6997 6.71773C13.3796 7.92242 12.9943 9.20439 12.5612 10.3161C12.1404 11.3965 11.634 12.4266 11.0303 13.0303C8.98422 15.0764 5.76946 15.2417 3.53458 13.5261L2.53033 14.5303C2.23744 14.8232 1.76256 14.8232 1.46967 14.5303C1.17678 14.2374 1.17678 13.7625 1.46967 13.4696L2.47392 12.4654C0.758309 10.2305 0.923562 7.01576 2.96968 4.96964C3.57338 4.36594 4.60354 3.85959 5.6839 3.43876C6.7956 3.00573 8.07757 2.6204 9.28226 2.30026C10.4897 1.97939 11.6339 1.72023 12.4753 1.54141C12.8964 1.45192 13.2425 1.38236 13.484 1.33507C13.6047 1.31143 13.6993 1.29334 13.764 1.2811L13.8383 1.26716L13.8578 1.26355L13.8651 1.26222ZM9.96969 11.9697C8.5106 13.4287 6.24499 13.5898 4.60788 12.4528L6.81066 10.25H9.5C9.91421 10.25 10.25 9.91418 10.25 9.49997C10.25 9.08576 9.91421 8.74997 9.5 8.74997H8.31066L11.5303 5.5303C11.8232 5.23741 11.8232 4.76253 11.5303 4.46964C11.2374 4.17675 10.7626 4.17675 10.4697 4.46964L8.75 6.18931V5.89206C8.75 5.47785 8.41421 5.14206 8 5.14206C7.58579 5.14206 7.25 5.47785 7.25 5.89206V7.68931L5.71254 9.22677L5.74965 8.02309C5.76241 7.60907 5.43713 7.2631 5.02312 7.25033C4.6091 7.23757 4.26313 7.56285 4.25036 7.97687L4.16409 10.7752L3.54722 11.3921C2.41022 9.75498 2.57126 7.48939 4.03034 6.0303C4.39314 5.6675 5.15873 5.25311 6.22834 4.83647C7.26661 4.43204 8.48882 4.06318 9.66751 3.74994C10.8434 3.43744 11.9618 3.18404 12.7871 3.00864C12.877 2.98955 12.9633 2.97139 13.0458 2.95418C13.0286 3.03669 13.0104 3.12302 12.9913 3.21287C12.8159 4.03818 12.5625 5.15655 12.25 6.33248C11.9368 7.51117 11.568 8.73338 11.1635 9.77165C10.7469 10.8413 10.3325 11.6069 9.96969 11.9697Z"
    fill="currentColor"
  />
</svg>
