<svg width="32" height="32" viewBox="0 0 32 32" fill="none" xmlns="http://www.w3.org/2000/svg" data-fui-icon="true">
  <path
    fill-rule="evenodd"
    clip-rule="evenodd"
    d="M28.8651 2.26222C29.1074 2.21789 29.3561 2.29543 29.5303 2.46965C29.7046 2.64387 29.7821 2.89256 29.7378 3.13492L29.7376 3.13603L29.7351 3.14944L29.7275 3.19041L29.6978 3.34875C29.6716 3.48725 29.6328 3.69032 29.582 3.9499C29.4803 4.46903 29.3305 5.21441 29.1377 6.12162C28.7522 7.93528 28.1941 10.3993 27.5037 12.997C26.8141 15.592 25.9889 18.3348 25.0673 20.7006C24.158 23.0351 23.1145 25.1128 21.947 26.2803C17.6441 30.5832 10.7741 30.7543 6.26705 26.7936L3.53033 29.5303C3.23744 29.8232 2.76256 29.8232 2.46967 29.5303C2.17678 29.2374 2.17678 28.7625 2.46967 28.4696L5.20639 25.7329C1.24571 21.2259 1.4168 14.3558 5.71968 10.053C6.88717 8.88548 8.96484 7.84202 11.2994 6.93267C13.6652 6.01111 16.4079 5.18585 19.0029 4.49624C21.6007 3.8059 24.0647 3.24774 25.8784 2.8623C26.7856 2.66949 27.531 2.51971 28.0501 2.41803C28.3097 2.36719 28.5127 2.32836 28.6512 2.30218L28.8096 2.27248L28.8505 2.26489L28.8651 2.26222ZM20.8864 25.2197C17.1695 28.9365 11.249 29.1067 7.3303 25.7303L13.0607 20H19.25C19.6642 20 20 19.6642 20 19.25C20 18.8358 19.6642 18.5 19.25 18.5H14.5607L23.0303 10.0303C23.3232 9.73741 23.3232 9.26253 23.0303 8.96964C22.7374 8.67675 22.2626 8.67675 21.9697 8.96964L16.75 14.1893V11.433C16.75 11.0187 16.4142 10.683 16 10.683C15.5858 10.683 15.25 11.0187 15.25 11.433V15.6893L10.1012 20.8381L10.2496 16.0231C10.2624 15.6091 9.93712 15.2631 9.5231 15.2503C9.10909 15.2376 8.76311 15.5628 8.75035 15.9769L8.55275 22.3866L6.26964 24.6697C2.89324 20.751 3.06347 14.8305 6.78033 11.1136C7.70692 10.187 9.52003 9.23554 11.8438 8.33038C14.1362 7.43742 16.8192 6.62862 19.3882 5.94592C21.9544 5.26395 24.3926 4.71156 26.1902 4.32953C26.9338 4.1715 27.5671 4.04275 28.0538 3.94618C27.9572 4.43287 27.8285 5.06621 27.6705 5.8098C27.2884 7.60737 26.736 10.0456 26.0541 12.6118C25.3714 15.1808 24.5626 17.8638 23.6696 20.1562C22.7644 22.48 21.8129 24.2931 20.8864 25.2197Z"
    fill="currentColor"
  />
</svg>
