<svg
  width="12"
  height="12"
  viewBox="0 0 12 12"
  fill="none"
  xmlns="http://www.w3.org/2000/svg"
  data-fui-icon="true"
>
  <g clip-path="url(#clip0_1123_46)">
    <path
      fill-rule="evenodd"
      clip-rule="evenodd"
      d="M10.865 0.262251C11.1074 0.217919 11.3561 0.295457 11.5303 0.469681C11.7045 0.643904 11.7821 0.892587 11.7378 1.13495L11.7366 1.14118L11.7336 1.1576L11.7219 1.21987C11.7116 1.27408 11.6965 1.35319 11.6768 1.45408C11.6372 1.65584 11.5791 1.94495 11.5044 2.29659C11.3551 2.9991 11.1387 3.95475 10.8706 4.96357C10.6032 5.96965 10.2807 7.04294 9.91748 7.97548C9.56645 8.87667 9.13682 9.75718 8.61366 10.2803C6.89029 12.0037 4.19757 12.167 2.29054 10.7701L1.53033 11.5303C1.23744 11.8232 0.762563 11.8232 0.46967 11.5303C0.176777 11.2374 0.176777 10.7626 0.46967 10.4697L1.22988 9.70946C-0.166976 7.80243 -0.00371349 5.10972 1.71966 3.38634C2.24282 2.86318 3.12333 2.43356 4.02453 2.08252C4.95706 1.71927 6.03035 1.3968 7.03643 1.12944C8.04525 0.861346 9.00091 0.644901 9.70342 0.4956C10.0551 0.42087 10.3442 0.36277 10.5459 0.323253C10.6468 0.30349 10.7259 0.288364 10.7801 0.278117L10.8424 0.266435L10.8588 0.263395L10.865 0.262251ZM7.553 9.21968C6.41734 10.3553 4.67364 10.5124 3.36979 9.69087L5.06066 8H7.25C7.66421 8 8 7.66421 8 7.25C8 6.83579 7.66421 6.5 7.25 6.5H6.56066L9.03033 4.03033C9.32322 3.73744 9.32322 3.26256 9.03033 2.96967C8.73744 2.67678 8.26256 2.67678 7.96967 2.96967L6.74821 4.19113C6.72137 3.80131 6.39664 3.49341 6 3.49341C5.58579 3.49341 5.25 3.82919 5.25 4.24341V5.68934L4.22844 6.7109L4.24964 6.02312C4.26241 5.6091 3.93713 5.26313 3.52311 5.25036C3.10909 5.2376 2.76312 5.56288 2.75036 5.9769L2.67999 8.25935L2.30913 8.63021C1.48759 7.32636 1.64466 5.58267 2.78032 4.447C3.06258 4.16474 3.67852 3.82708 4.56897 3.48023C5.42807 3.14558 6.44161 2.83957 7.42168 2.57912C8.399 2.3194 9.32882 2.10871 10.0152 1.96283L10.0431 1.95692L10.0372 1.98476C9.89129 2.67119 9.6806 3.601 9.42088 4.57833C9.16043 5.5584 8.85442 6.57193 8.51978 7.43103C8.17293 8.32148 7.83526 8.93742 7.553 9.21968Z"
      fill="currentColor"
    />
  </g>
  <defs>
    <clipPath id="clip0_1123_46">
      <path fill="currentColor" d="M0 0H12V12H0z" />
    </clipPath>
  </defs>
</svg>
