<svg width="16" height="16" viewBox="0 0 16 16" fill="none" xmlns="http://www.w3.org/2000/svg" data-fui-icon="true">
  <path
    d="M10.8887 0C11.695 0.000446818 12.2264 0.840847 11.8809 1.56934L10.0137 5.5H12.8096C13.7451 5.50038 14.2518 6.59615 13.6465 7.30957L6.60645 15.6035C5.88104 16.4581 4.49205 15.8048 4.6875 14.7012L5.60938 9.5H3.23047C2.48474 9.5 1.95588 8.77291 2.18555 8.06348L4.49902 0.920898L4.53613 0.819336C4.74096 0.32667 5.22415 0.000172152 5.76465 0H10.8887ZM3.78223 8H6.2959C6.8706 8.00029 7.30635 8.51999 7.20605 9.08594L6.42285 13.501L11.9414 7H9.10254C8.42376 7 7.97662 6.29283 8.26758 5.67969L10.2529 1.5H5.8877L3.78223 8Z"
    fill="currentColor"
  />
</svg>
