<svg width="12" height="12" viewBox="0 0 12 12" fill="none" xmlns="http://www.w3.org/2000/svg" data-fui-icon="true">
  <path
    d="M7 10.5C7.41421 10.5 7.75 10.8358 7.75 11.25C7.75 11.6642 7.41421 12 7 12H5C4.58579 12 4.25 11.6642 4.25 11.25C4.25 10.8358 4.58579 10.5 5 10.5H7ZM6 2.25C7.20352 2.25 8.16126 2.709 8.81055 3.43945C9.44749 4.15608 9.75 5.09025 9.75 6C9.75 7.4145 8.78265 8.16612 8.23242 8.48047C8.12789 9.19836 7.51153 9.75 6.76465 9.75H5.23535C4.48842 9.75 3.87107 9.19843 3.7666 8.48047C3.21624 8.16587 2.25 7.41387 2.25 6C2.25 5.09025 2.55251 4.15608 3.18945 3.43945C3.83874 2.709 4.79648 2.25 6 2.25ZM6 3.75C5.2036 3.75 4.66126 4.04106 4.31055 4.43555C3.94757 4.8439 3.75 5.4098 3.75 6C3.75 6.6779 4.24417 7.04736 4.5957 7.22461C4.94338 7.40004 5.2429 7.77113 5.24902 8.25H6.75098C6.7571 7.77113 7.05662 7.40004 7.4043 7.22461C7.75583 7.04736 8.25 6.6779 8.25 6C8.25 5.4098 8.05243 4.8439 7.68945 4.43555C7.33874 4.04106 6.7964 3.75 6 3.75Z"
    fill="currentColor"
  />
</svg>
