<svg width="24" height="24" viewBox="0 0 24 24" fill="none" xmlns="http://www.w3.org/2000/svg" data-fui-icon="true">
  <path
    d="M4.61035 9.13672C4.9032 8.84403 5.37804 8.84403 5.6709 9.13672C5.96365 9.42956 5.96359 9.90439 5.6709 10.1973L4.18555 11.6836C3.10717 12.762 2.50099 14.2249 2.50098 15.75C2.5012 18.9254 5.077 21.4999 8.25293 21.5C9.7785 21.4999 11.2426 20.894 12.3213 19.8154L13.8037 18.333C14.0966 18.0406 14.5715 18.0403 14.8643 18.333C15.1569 18.6257 15.1566 19.1006 14.8643 19.3936L13.3828 20.876C12.0226 22.2362 10.1764 22.9999 8.25293 23C4.24907 22.9999 1.0012 19.7543 1.00098 15.75C1.00099 13.8271 1.76533 11.9828 3.125 10.623L4.61035 9.13672ZM14.2803 8.64941C14.5731 8.35664 15.0479 8.35684 15.3408 8.64941C15.6337 8.9423 15.6337 9.41707 15.3408 9.70996L9.70996 15.3408C9.41707 15.6337 8.94231 15.6337 8.64941 15.3408C8.35691 15.0479 8.35666 14.573 8.64941 14.2803L14.2803 8.64941ZM15.7461 1.00098C19.7501 1.00098 23 4.24712 23 8.25195C22.9998 10.1747 22.2356 12.0193 20.876 13.3789L19.3906 14.8643C19.0978 15.1569 18.6229 15.1568 18.3301 14.8643C18.0372 14.5714 18.0374 14.0966 18.3301 13.8037L19.8154 12.3184C20.8937 11.24 21.4998 9.77688 21.5 8.25195C21.5 5.07633 18.9225 2.50098 15.7461 2.50098C14.22 2.50106 12.7557 3.10762 11.6768 4.18652L10.1973 5.66504C9.90442 5.95772 9.42957 5.95772 9.13672 5.66504C8.84407 5.37219 8.84406 4.89734 9.13672 4.60449L10.6152 3.12598C11.9757 1.76545 13.8223 1.00106 15.7461 1.00098Z"
    fill="currentColor"
  />
</svg>
