<svg
  width="12"
  height="12"
  viewBox="0 0 12 12"
  fill="none"
  xmlns="http://www.w3.org/2000/svg"
  data-fui-icon="true"
>
  <path
    fill-rule="evenodd"
    clip-rule="evenodd"
    d="M5.58947 1.09987C6.2937 0.395636 7.24885 0 8.2448 0C10.3187 0 12 1.68126 12 3.7552C12 4.75115 11.6044 5.7063 10.9001 6.41053L9.81158 7.49908C9.51869 7.79197 9.04381 7.79197 8.75092 7.49908C8.45803 7.20619 8.45803 6.73131 8.75092 6.43842L9.83947 5.34987C10.2624 4.92694 10.5 4.35332 10.5 3.7552C10.5 2.50969 9.49031 1.5 8.2448 1.5C7.64668 1.5 7.07306 1.7376 6.65013 2.16053L5.56158 3.24908C5.26869 3.54197 4.79381 3.54197 4.50092 3.24908C4.20803 2.95619 4.20803 2.48131 4.50092 2.18842L5.58947 1.09987ZM3.24908 4.50092C3.54197 4.79381 3.54197 5.26869 3.24908 5.56158L2.16053 6.65013C1.7376 7.07306 1.5 7.64668 1.5 8.2448C1.5 9.49031 2.50969 10.5 3.7552 10.5C4.35332 10.5 4.92694 10.2624 5.34987 9.83947L6.43842 8.75092C6.73131 8.45803 7.20619 8.45803 7.49908 8.75092C7.79197 9.04381 7.79197 9.51869 7.49908 9.81158L6.41053 10.9001C5.7063 11.6044 4.75115 12 3.7552 12C1.68126 12 0 10.3187 0 8.2448C0 7.24885 0.395636 6.2937 1.09987 5.58947L2.18842 4.50092C2.48131 4.20803 2.95619 4.20803 3.24908 4.50092Z"
    fill="currentColor"
  />
  <path
    fill-rule="evenodd"
    clip-rule="evenodd"
    d="M7.78033 4.21967C8.07322 4.51256 8.07322 4.98744 7.78033 5.28033L5.28033 7.78033C4.98744 8.07322 4.51256 8.07322 4.21967 7.78033 3.92678 7.48744 3.92678 7.01256 4.21967 6.71967L6.71967 4.21967C7.01256 3.92678 7.48744 3.92678 7.78033 4.21967zM10 12C9.58579 12 9.25 11.6642 9.25 11.25L9.25 8.75C9.25 8.33579 9.58579 8 10 8 10.4142 8 10.75 8.33579 10.75 8.75V11.25C10.75 11.6642 10.4142 12 10 12z"
    fill="currentColor"
  />
  <path
    fill-rule="evenodd"
    clip-rule="evenodd"
    d="M8.75 9.25L11.25 9.25C11.6642 9.25 12 9.58579 12 10C12 10.4142 11.6642 10.75 11.25 10.75L8.75 10.75C8.33579 10.75 8 10.4142 8 10C8 9.58579 8.33579 9.25 8.75 9.25Z"
    fill="currentColor"
  />
</svg>
