<svg width="32" height="32" viewBox="0 0 32 32" fill="none" xmlns="http://www.w3.org/2000/svg" data-fui-icon="true">
  <path
    d="M6.75098 11.4385C7.04387 11.1456 7.51863 11.1456 7.81152 11.4385C8.10442 11.7314 8.10442 12.2061 7.81152 12.499L4.9209 15.3896C3.3708 16.9397 2.5 19.0422 2.5 21.2344C2.5 25.7993 6.20065 29.5 10.7656 29.5C12.9578 29.5 15.0603 28.6292 16.6104 27.0791L19.501 24.1885C19.7939 23.8956 20.2686 23.8956 20.5615 24.1885C20.8544 24.4814 20.8544 24.9561 20.5615 25.249L17.6709 28.1396C15.8395 29.9711 13.3556 31 10.7656 31C5.37223 31 1 26.6278 1 21.2344C1 18.6444 2.02895 16.1605 3.86035 14.3291L6.75098 11.4385ZM1.21973 1.21973C1.51258 0.926874 1.98737 0.926955 2.28027 1.21973L2.52148 1.46094C2.52437 1.46392 2.52733 1.46776 2.53027 1.4707L30.5303 29.4707C30.5331 29.4735 30.5363 29.4758 30.5391 29.4785L30.7803 29.7197C31.0732 30.0126 31.0732 30.4874 30.7803 30.7803C30.4874 31.073 30.0126 31.0731 29.7197 30.7803L16.2121 17.2727C16.095 17.1555 15.905 17.1555 15.7879 17.2727L11.2803 21.7803C10.9874 22.0732 10.5126 22.0732 10.2197 21.7803C9.92683 21.4874 9.92683 21.0126 10.2197 20.7197L14.7273 16.2121C14.8445 16.095 14.8445 15.905 14.7273 15.7879L1.21973 2.28027C0.926996 1.98741 0.926996 1.51259 1.21973 1.21973ZM21.2344 1C26.6278 1 31 5.37223 31 10.7656C31 13.3556 29.9711 15.8395 28.1396 17.6709L25.249 20.5615C24.9561 20.8544 24.4814 20.8544 24.1885 20.5615C23.8956 20.2686 23.8956 19.7939 24.1885 19.501L27.0791 16.6104C28.6292 15.0603 29.5 12.9578 29.5 10.7656C29.5 6.20065 25.7993 2.5 21.2344 2.5C19.0422 2.5 16.9397 3.3708 15.3896 4.9209L12.499 7.81152C12.2061 8.10442 11.7314 8.10442 11.4385 7.81152C11.1456 7.51863 11.1456 7.04387 11.4385 6.75098L14.3291 3.86035C16.1605 2.02895 18.6444 1 21.2344 1ZM20.7197 10.2197C21.0126 9.92683 21.4874 9.92683 21.7803 10.2197C22.0732 10.5126 22.0732 10.9874 21.7803 11.2803L18.3322 14.7274C18.2151 14.8445 18.0252 14.8445 17.908 14.7273L17.2717 14.0911C17.1546 13.9739 17.1546 13.7839 17.2718 13.6668L20.7197 10.2197Z"
    fill="currentColor"
  />
</svg>
