<svg width="12" height="12" viewBox="0 0 12 12" fill="none" xmlns="http://www.w3.org/2000/svg" data-fui-icon="true">
  <path
    d="M10.2598 1H1.73828C1.33008 1 1 1.32227 1 1.7207V10.2773C1 10.6758 1.33008 11 1.73828 11H10.2598C10.668 11 11 10.6758 11 10.2793V1.7207C11 1.32227 10.668 1 10.2598 1ZM3.9668 9.52148H2.48242V4.74805H3.9668V9.52148ZM3.22461 4.09766C2.74805 4.09766 2.36328 3.71289 2.36328 3.23828C2.36328 2.76367 2.74805 2.37891 3.22461 2.37891C3.69922 2.37891 4.08398 2.76367 4.08398 3.23828C4.08398 3.71094 3.69922 4.09766 3.22461 4.09766ZM9.52148 9.52148H8.03906V7.20117C8.03906 6.64844 8.0293 5.93555 7.26758 5.93555C6.49609 5.93555 6.37891 6.53906 6.37891 7.16211V9.52148H4.89844V4.74805H6.32031V5.40039H6.33984C6.53711 5.02539 7.02148 4.62891 7.74219 4.62891C9.24414 4.62891 9.52148 5.61719 9.52148 6.90234V9.52148Z"
    fill="currentColor"
  />
</svg>
