<svg width="32" height="32" viewBox="0 0 32 32" fill="none" xmlns="http://www.w3.org/2000/svg" data-fui-icon="true">
  <path
    d="M6.91309 10.9854C7.40123 10.4972 8.1925 10.4972 8.68066 10.9854C9.16868 11.4735 9.16876 12.2648 8.68066 12.7529L5.6875 15.7471C4.28653 17.1481 3.49909 19.048 3.49902 21.0293C3.49911 25.155 6.84616 28.501 10.9727 28.501C12.9548 28.5008 14.8564 27.7129 16.2578 26.3115L19.2461 23.3232C19.7342 22.8354 20.5256 22.8353 21.0137 23.3232C21.5016 23.8113 21.5015 24.6027 21.0137 25.0908L18.0264 28.0791C16.1559 29.9496 13.6177 31.0008 10.9727 31.001C5.46624 31.001 0.999115 26.5365 0.999023 21.0293C0.999089 18.3852 2.04942 15.8493 3.91895 13.9795L6.91309 10.9854ZM21.0254 0.998047C26.5315 0.998268 30.9999 5.46233 31 10.9697C30.9999 13.614 29.9488 16.1506 28.0791 18.0205L25.0859 21.0137C24.5978 21.5015 23.8064 21.5017 23.3184 21.0137C22.8303 20.5256 22.8305 19.7343 23.3184 19.2461L26.3115 16.252C27.7123 14.8509 28.4999 12.9509 28.5 10.9697C28.4999 6.84432 25.1521 3.49827 21.0254 3.49805C19.0425 3.49805 17.1392 4.28583 15.7373 5.6875L12.7529 8.67188C12.2648 9.16004 11.4735 9.16002 10.9854 8.67188C10.4973 8.18372 10.4973 7.39241 10.9854 6.9043L13.9697 3.91992C15.8407 2.0491 18.3799 0.998047 21.0254 0.998047ZM18.8662 11.3662C19.3544 10.8781 20.1457 10.8781 20.6338 11.3662C21.1219 11.8544 21.1219 12.6456 20.6338 13.1338L13.1338 20.6338C12.6457 21.1219 11.8544 21.1219 11.3662 20.6338C10.8781 20.1456 10.8781 19.3544 11.3662 18.8662L18.8662 11.3662Z"
    fill="currentColor"
  />
</svg>
