<svg width="20" height="20" viewBox="0 0 20 20" fill="none" xmlns="http://www.w3.org/2000/svg" data-fui-icon="true">
  <path
    d="M3.71973 6.96973C4.01262 6.67683 4.48738 6.67683 4.78027 6.96973C5.07317 7.26262 5.07317 7.73738 4.78027 8.03027L2.98926 9.82129C2.03598 10.7746 1.50009 12.0679 1.5 13.416C1.5 16.2236 3.77637 18.5 6.58398 18.5C7.93212 18.4999 9.22543 17.964 10.1787 17.0107L10.4697 16.7197C10.7626 16.4268 11.2374 16.4268 11.5303 16.7197C11.8232 17.0126 11.8232 17.4874 11.5303 17.7803L11.2393 18.0713C10.0047 19.3059 8.32994 19.9999 6.58398 20C2.94795 20 0 17.0521 0 13.416C9.36195e-05 11.6701 0.694124 9.99533 1.92871 8.76074L3.71973 6.96973ZM16.75 13.5C17.1642 13.5 17.5 13.8358 17.5 14.25V16H19.25C19.6642 16 20 16.3358 20 16.75C20 17.1642 19.6642 17.5 19.25 17.5H17.5V19.25C17.5 19.6642 17.1642 20 16.75 20C16.3358 20 16 19.6642 16 19.25V17.5H14.25C13.8358 17.5 13.5 17.1642 13.5 16.75C13.5 16.3358 13.8358 16 14.25 16H16V14.25C16 13.8358 16.3358 13.5 16.75 13.5ZM12.7197 6.21973C13.0126 5.92683 13.4874 5.92683 13.7803 6.21973C14.0732 6.51262 14.0732 6.98738 13.7803 7.28027L7.28027 13.7803C6.98738 14.0732 6.51262 14.0732 6.21973 13.7803C5.92683 13.4874 5.92683 13.0126 6.21973 12.7197L12.7197 6.21973ZM13.416 0C17.0521 0 20 2.94795 20 6.58398C19.9999 8.32994 19.3059 10.0047 18.0713 11.2393L17.7803 11.5303C17.4874 11.8232 17.0126 11.8232 16.7197 11.5303C16.4268 11.2374 16.4268 10.7626 16.7197 10.4697L17.0107 10.1787C17.964 9.22543 18.4999 7.93212 18.5 6.58398C18.5 3.77637 16.2236 1.5 13.416 1.5C12.0679 1.50009 10.7746 2.03598 9.82129 2.98926L8.03027 4.78027C7.73738 5.07317 7.26262 5.07317 6.96973 4.78027C6.67683 4.48738 6.67683 4.01262 6.96973 3.71973L8.76074 1.92871C9.99533 0.694124 11.6701 9.35543e-05 13.416 0Z"
    fill="currentColor"
  />
</svg>
