<svg width="16" height="16" viewBox="0 0 16 16" fill="none" xmlns="http://www.w3.org/2000/svg" data-fui-icon="true">
  <path
    d="M3.11621 5.86133C3.60431 5.37323 4.39562 5.37334 4.88379 5.86133C5.37194 6.34948 5.37194 7.14075 4.88379 7.62891L4.21777 8.2959C3.7554 8.75828 3.49516 9.38516 3.49512 10.0391C3.49505 11.4008 4.59917 12.5048 5.96094 12.5049C6.61489 12.5049 7.24265 12.2456 7.70508 11.7832L8.37109 11.1162C8.85917 10.6281 9.6505 10.6283 10.1387 11.1162C10.6268 11.6044 10.6268 12.3956 10.1387 12.8838L9.47266 13.5508C8.54139 14.482 7.27793 15.0049 5.96094 15.0049C3.21846 15.0048 0.995038 12.7816 0.995117 10.0391C0.995182 8.72215 1.51901 7.45952 2.4502 6.52832L3.11621 5.86133ZM9.03125 5.20117C9.51939 4.71303 10.3107 4.71306 10.7988 5.20117C11.287 5.68933 11.287 6.48059 10.7988 6.96875L6.96387 10.8037C6.47571 11.2918 5.68443 11.2919 5.19629 10.8037C4.70819 10.3156 4.70819 9.52428 5.19629 9.03613L9.03125 5.20117ZM10.0391 0.898438C12.7815 0.898524 15.0048 3.12184 15.0049 5.86426C15.0047 7.18106 14.4809 8.44485 13.5498 9.37598L12.8838 10.042C12.3956 10.5298 11.6043 10.53 11.1162 10.042C10.6282 9.55394 10.6284 8.76259 11.1162 8.27441L11.7822 7.6084C12.2445 7.14609 12.5048 6.51806 12.5049 5.86426C12.5048 4.50255 11.4008 3.39852 10.0391 3.39844C9.38517 3.3985 8.75729 3.65872 8.29492 4.12109L7.53223 4.88379C7.04407 5.37162 6.25173 5.37178 5.76367 4.88379C5.27607 4.39572 5.27603 3.60425 5.76367 3.11621L6.52734 2.35254C7.45854 1.42141 8.7222 0.898502 10.0391 0.898438Z"
    fill="currentColor"
  />
</svg>
