<svg width="32" height="32" viewBox="0 0 32 32" fill="none" xmlns="http://www.w3.org/2000/svg" data-fui-icon="true">
  <path
    d="M6.75098 11.4385C7.04387 11.1456 7.51863 11.1456 7.81152 11.4385C8.10442 11.7314 8.10442 12.2061 7.81152 12.499L4.9209 15.3896C3.3708 16.9397 2.5 19.0422 2.5 21.2344C2.5 25.7993 6.20065 29.5 10.7656 29.5H10.9199C13.0131 29.5 15.0209 28.6686 16.501 27.1885C16.7939 26.8956 17.2686 26.8956 17.5615 27.1885C17.8544 27.4814 17.8544 27.9561 17.5615 28.249C15.8001 30.0104 13.4109 31 10.9199 31H10.7656C5.37223 31 1 26.6278 1 21.2344C1 18.6444 2.02895 16.1605 3.86035 14.3291L6.75098 11.4385ZM29.7158 23.3516C30.0087 23.0588 30.4835 23.0587 30.7764 23.3516C31.0691 23.6444 31.0691 24.1192 30.7764 24.4121L28.125 27.0635L30.7764 29.7158C31.0691 30.0087 31.0692 30.4835 30.7764 30.7764C30.4835 31.0692 30.0087 31.0691 29.7158 30.7764L27.0635 28.125L24.4121 30.7764C24.1192 31.0691 23.6444 31.0692 23.3516 30.7764C23.0587 30.4835 23.0588 30.0087 23.3516 29.7158L26.0029 27.0635L23.3516 24.4121C23.0588 24.1192 23.0587 23.6444 23.3516 23.3516C23.6444 23.0587 24.1192 23.0588 24.4121 23.3516L27.0635 26.0029L29.7158 23.3516ZM20.7197 10.2197C21.0126 9.92683 21.4874 9.92683 21.7803 10.2197C22.0732 10.5126 22.0732 10.9874 21.7803 11.2803L11.2803 21.7803C10.9874 22.0732 10.5126 22.0732 10.2197 21.7803C9.92683 21.4874 9.92683 21.0126 10.2197 20.7197L20.7197 10.2197ZM21.2344 1C26.6278 1 31 5.37223 31 10.7656V10.9199C31 13.4109 30.0104 15.8001 28.249 17.5615C27.9561 17.8544 27.4814 17.8544 27.1885 17.5615C26.8956 17.2686 26.8956 16.7939 27.1885 16.501C28.6686 15.0209 29.5 13.0131 29.5 10.9199V10.7656C29.5 6.20065 25.7993 2.5 21.2344 2.5C19.0422 2.5 16.9397 3.3708 15.3896 4.9209L12.499 7.81152C12.2061 8.10442 11.7314 8.10442 11.4385 7.81152C11.1456 7.51863 11.1456 7.04387 11.4385 6.75098L14.3291 3.86035C16.1605 2.02895 18.6444 1 21.2344 1Z"
    fill="currentColor"
  />
</svg>
