<svg width="32" height="32" viewBox="0 0 32 32" fill="none" xmlns="http://www.w3.org/2000/svg" data-fui-icon="true">
  <path
    d="M5.93945 11.6055C6.52525 11.0198 7.4748 11.0197 8.06055 11.6055C8.64624 12.1912 8.64619 13.1408 8.06055 13.7266L6.11523 15.6719C4.76107 17.026 4.00004 18.8632 4 20.7783C4 24.7659 7.23508 27.999 11.2236 27.999C13.1394 27.9989 14.9775 27.2381 16.332 25.8838L18.2764 23.9395C18.8621 23.3538 19.8117 23.3538 20.3975 23.9395C20.9832 24.5252 20.9831 25.4748 20.3975 26.0605L18.4541 28.0049C16.5367 29.9223 13.9349 30.9989 11.2236 30.999C5.57921 30.999 1 26.4237 1 20.7783C1.00004 18.0676 2.07647 15.4676 3.99316 13.5508L5.93945 11.6055ZM18.6895 11.1895C19.2752 10.6037 20.2248 10.6037 20.8105 11.1895C21.3963 11.7752 21.3963 12.7248 20.8105 13.3105L13.3105 20.8105C12.7248 21.3963 11.7752 21.3963 11.1895 20.8105C10.6037 20.2248 10.6037 19.2752 11.1895 18.6895L18.6895 11.1895ZM20.7754 0.998047C26.4194 0.998275 30.9999 5.5741 31 11.2197C30.9999 13.9303 29.9225 16.5305 28.0059 18.4473L26.0605 20.3926C25.4748 20.9782 24.5252 20.9782 23.9395 20.3926C23.3537 19.8068 23.3538 18.8573 23.9395 18.2715L25.8848 16.3252C27.2388 14.9711 27.9999 13.1347 28 11.2197C27.9999 7.23255 24.7641 3.99828 20.7754 3.99805C18.8588 3.99805 17.019 4.75952 15.6641 6.11426L13.7178 8.06055C13.132 8.64621 12.1824 8.64621 11.5967 8.06055C11.0109 7.47478 11.011 6.52523 11.5967 5.93945L13.543 3.99316C15.4609 2.07543 18.0637 0.998047 20.7754 0.998047Z"
    fill="currentColor"
  />
</svg>
