<svg width="16" height="16" viewBox="0 0 16 16" fill="none" xmlns="http://www.w3.org/2000/svg" data-fui-icon="true">
  <path
    d="M3.2334 6.09375C3.62396 5.70375 4.25711 5.70341 4.64746 6.09375C5.03775 6.4841 5.03744 7.11727 4.64746 7.50781L3.79688 8.3584C3.28741 8.86806 3.00114 9.55964 3.00098 10.2803C3.00098 11.7814 4.21886 12.999 5.7207 12.999C6.44209 12.9989 7.1346 12.7121 7.64453 12.2021L8.49219 11.3545C8.88269 10.9646 9.51591 10.9644 9.90625 11.3545C10.2966 11.7448 10.2962 12.378 9.90625 12.7686L9.05859 13.6162C8.17341 14.5014 6.97228 14.9989 5.7207 14.999C3.11503 14.999 1.00098 12.8867 1.00098 10.2803C1.00114 9.02903 1.49804 7.82813 2.38281 6.94336L3.2334 6.09375ZM8.97266 5.61426C9.36313 5.22379 9.99618 5.2239 10.3867 5.61426C10.7772 6.00478 10.7772 6.6378 10.3867 7.02832L7.02637 10.3887C6.63581 10.7788 6.0027 10.7791 5.6123 10.3887C5.22207 9.99826 5.22222 9.36511 5.6123 8.97461L8.97266 5.61426ZM10.2773 1.00195C12.8825 1.00221 14.9978 3.11442 14.998 5.7207C14.998 6.97198 14.5009 8.17272 13.6162 9.05762L12.7656 9.90723C12.3751 10.2976 11.742 10.2977 11.3516 9.90723C10.9613 9.51673 10.9613 8.88363 11.3516 8.49316L12.2021 7.64355C12.7117 7.13373 12.998 6.44154 12.998 5.7207C12.9978 4.22012 11.7791 3.00221 10.2773 3.00195C9.55585 3.00206 8.86256 3.28906 8.35254 3.79883L7.50684 4.64453C7.11631 5.03505 6.4833 5.03505 6.09277 4.64453C5.70245 4.25399 5.70232 3.62092 6.09277 3.23047L6.93848 2.38477C7.82384 1.49966 9.0258 1.00206 10.2773 1.00195Z"
    fill="currentColor"
  />
</svg>
