<svg width="16" height="16" viewBox="0 0 16 16" fill="none" xmlns="http://www.w3.org/2000/svg" data-fui-icon="true">
  <path
    d="M2.71973 5.46973C3.01262 5.17683 3.48738 5.17683 3.78027 5.46973C4.07317 5.76262 4.07317 6.23738 3.78027 6.53027L2.67871 7.63281C1.92438 8.38715 1.50012 9.40978 1.5 10.4766C1.5 12.6984 3.30161 14.5 5.52344 14.5C6.59022 14.4999 7.61285 14.0756 8.36719 13.3213L9.46973 12.2197C9.76262 11.9268 10.2374 11.9268 10.5303 12.2197C10.8232 12.5126 10.8232 12.9874 10.5303 13.2803L9.42871 14.3828C8.39307 15.4184 6.98804 15.9999 5.52344 16C2.47319 16 0 13.5268 0 10.4766C0.000123558 9.01196 0.581553 7.60694 1.61719 6.57129L2.71973 5.46973ZM9.71973 5.21973C10.0126 4.92683 10.4874 4.92683 10.7803 5.21973C11.0732 5.51262 11.0732 5.98738 10.7803 6.28027L6.28027 10.7803C5.98738 11.0732 5.51262 11.0732 5.21973 10.7803C4.92683 10.4874 4.92683 10.0126 5.21973 9.71973L9.71973 5.21973ZM10.4766 0C13.5268 0 16 2.47318 16 5.52344C15.9999 6.98804 15.4184 8.39306 14.3828 9.42871L13.2803 10.5303C12.9874 10.8232 12.5126 10.8232 12.2197 10.5303C11.9268 10.2374 11.9268 9.76262 12.2197 9.46973L13.3213 8.36719C14.0756 7.61285 14.4999 6.59022 14.5 5.52344C14.5 3.30161 12.6984 1.5 10.4766 1.5C9.40978 1.50012 8.38715 1.92438 7.63281 2.67871L6.53027 3.78027C6.23738 4.07317 5.76262 4.07317 5.46973 3.78027C5.17683 3.48738 5.17683 3.01262 5.46973 2.71973L6.57129 1.61719C7.60694 0.581552 9.01196 0.000123611 10.4766 0Z"
    fill="currentColor"
  />
</svg>
