<svg width="32" height="32" viewBox="0 0 32 32" fill="none" xmlns="http://www.w3.org/2000/svg" data-fui-icon="true">
  <path
    d="M6.75098 11.4385C7.04387 11.1456 7.51863 11.1456 7.81152 11.4385C8.10442 11.7314 8.10442 12.2061 7.81152 12.499L4.9209 15.3896C3.3708 16.9397 2.5 19.0422 2.5 21.2344C2.5 25.7993 6.20065 29.5 10.7656 29.5C12.9578 29.5 15.0603 28.6292 16.6104 27.0791L19.501 24.1885C19.7939 23.8956 20.2686 23.8956 20.5615 24.1885C20.8544 24.4814 20.8544 24.9561 20.5615 25.249L17.6709 28.1396C15.8395 29.9711 13.3556 31 10.7656 31C5.37223 31 1 26.6278 1 21.2344C1 18.6444 2.02895 16.1605 3.86035 14.3291L6.75098 11.4385ZM20.7197 10.2197C21.0126 9.92683 21.4874 9.92683 21.7803 10.2197C22.0732 10.5126 22.0732 10.9874 21.7803 11.2803L11.2803 21.7803C10.9874 22.0732 10.5126 22.0732 10.2197 21.7803C9.92683 21.4874 9.92683 21.0126 10.2197 20.7197L20.7197 10.2197ZM21.2344 1C26.6278 1 31 5.37223 31 10.7656C31 13.3556 29.9711 15.8395 28.1396 17.6709L25.249 20.5615C24.9561 20.8544 24.4814 20.8544 24.1885 20.5615C23.8956 20.2686 23.8956 19.7939 24.1885 19.501L27.0791 16.6104C28.6292 15.0603 29.5 12.9578 29.5 10.7656C29.5 6.20065 25.7993 2.5 21.2344 2.5C19.0422 2.5 16.9397 3.3708 15.3896 4.9209L12.499 7.81152C12.2061 8.10442 11.7314 8.10442 11.4385 7.81152C11.1456 7.51863 11.1456 7.04387 11.4385 6.75098L14.3291 3.86035C16.1605 2.02895 18.6444 1 21.2344 1Z"
    fill="currentColor"
  />
</svg>
