<svg width="16" height="16" viewBox="0 0 16 16" fill="none" xmlns="http://www.w3.org/2000/svg" data-fui-icon="true">
  <path
    d="M2.71973 5.46973C3.01262 5.17683 3.48738 5.17683 3.78027 5.46973C4.07317 5.76262 4.07317 6.23738 3.78027 6.53027L2.67871 7.63281C1.92438 8.38715 1.50012 9.40978 1.5 10.4766C1.5 12.6984 3.30161 14.5 5.52344 14.5C6.23963 14.4999 6.93565 14.3083 7.54395 13.9541C7.90708 13.7427 8.47584 13.9373 8.70117 14.292C8.86316 14.5472 8.8504 14.894 8.59961 15.0625C7.69639 15.6686 6.62707 15.9999 5.52344 16C2.47319 16 0 13.5268 0 10.4766C0.000123558 9.01196 0.581553 7.60694 1.61719 6.57129L2.71973 5.46973ZM14.7129 11.5303C15.0058 11.2378 15.4806 11.2376 15.7734 11.5303C16.0663 11.8232 16.0663 12.2989 15.7734 12.5918L14.7129 13.6523L15.7734 14.7129C16.0661 15.0058 16.0662 15.4806 15.7734 15.7734C15.4806 16.0663 15.0058 16.0661 14.7129 15.7734L13.6523 14.7129L12.5908 15.7734C12.2979 16.066 11.8231 16.0662 11.5303 15.7734C11.2376 15.4806 11.2377 15.0058 11.5303 14.7129L12.5908 13.6523L11.5303 12.5918C11.2374 12.2989 11.2374 11.8232 11.5303 11.5303C11.823 11.2375 12.2979 11.2378 12.5908 11.5303L13.6523 12.5918L14.7129 11.5303ZM9.71973 5.21973C10.0126 4.92683 10.4874 4.92683 10.7803 5.21973C11.0732 5.51262 11.0732 5.98738 10.7803 6.28027L6.28027 10.7803C5.98738 11.0732 5.51262 11.0732 5.21973 10.7803C4.92683 10.4874 4.92683 10.0126 5.21973 9.71973L9.71973 5.21973ZM10.4766 0C13.5268 0 16 2.47318 16 5.52344C15.9999 6.62707 15.6686 7.69639 15.0625 8.59961C14.894 8.8504 14.5471 8.86317 14.292 8.70117C13.9373 8.47583 13.7427 7.90708 13.9541 7.54395C14.3083 6.93565 14.4999 6.23963 14.5 5.52344C14.5 3.30161 12.6984 1.5 10.4766 1.5C9.40978 1.50012 8.38715 1.92438 7.63281 2.67871L6.53027 3.78027C6.23738 4.07317 5.76262 4.07317 5.46973 3.78027C5.17683 3.48738 5.17683 3.01262 5.46973 2.71973L6.57129 1.61719C7.60694 0.581552 9.01196 0.000123611 10.4766 0Z"
    fill="currentColor"
  />
</svg>
