<svg width="20" height="20" viewBox="0 0 20 20" fill="none" xmlns="http://www.w3.org/2000/svg" data-fui-icon="true">
  <path
    d="M3.93945 7.47461C4.33003 7.08424 4.96308 7.08411 5.35352 7.47461C5.74382 7.86511 5.74378 8.49821 5.35352 8.88867L4.19336 10.0488C3.42958 10.8123 3.0001 11.8478 3 12.9277C3 15.1755 4.82571 17 7.0752 17C8.15627 16.9999 9.19384 16.5695 9.95801 15.8057L11.1152 14.6504C11.5058 14.26 12.1389 14.2599 12.5293 14.6504C12.9196 15.041 12.9189 15.6741 12.5283 16.0645L11.3721 17.2207C10.2324 18.3598 8.68591 18.9999 7.0752 19C3.72292 19 1 16.2818 1 12.9277C1.0001 11.3172 1.64023 9.7724 2.7793 8.63379L3.93945 7.47461ZM11.5918 6.99414C11.9824 6.60371 12.6154 6.60359 13.0059 6.99414C13.3958 7.3847 13.3961 8.01789 13.0059 8.4082L8.61035 12.8018C8.21994 13.192 7.58678 13.1918 7.19629 12.8018C6.80589 12.4112 6.80584 11.7782 7.19629 11.3877L11.5918 6.99414ZM12.9248 1.00488C16.2768 1.00497 19.0007 3.7221 19.001 7.07617C19.001 8.6869 18.3609 10.2324 17.2217 11.3711L16.0615 12.5303C15.6709 12.9204 15.0378 12.9198 14.6475 12.5293C14.2575 12.1387 14.2571 11.5055 14.6475 11.1152L15.8076 9.95605C16.5714 9.19244 17.001 8.15623 17.001 7.07617C17.0007 4.82884 15.1744 3.00497 12.9248 3.00488C11.8435 3.00498 10.8043 3.43433 10.04 4.19824L8.88574 5.35254C8.4952 5.7428 7.86211 5.74289 7.47168 5.35254C7.08162 4.96202 7.08149 4.32886 7.47168 3.93848L8.62598 2.78418C9.76586 1.64476 11.3138 1.00498 12.9248 1.00488Z"
    fill="currentColor"
  />
</svg>
