<svg width="16" height="16" viewBox="0 0 16 16" fill="none" xmlns="http://www.w3.org/2000/svg" data-fui-icon="true">
  <path
    d="M13.9637 1H2.03359C1.46211 1 1 1.45117 1 2.00898V13.9883C1 14.5461 1.46211 15 2.03359 15H13.9637C14.5352 15 15 14.5461 15 13.991V2.00898C15 1.45117 14.5352 1 13.9637 1ZM5.15352 12.9301H3.07539V6.24726H5.15352V12.9301ZM4.11445 5.33672C3.44727 5.33672 2.90859 4.79805 2.90859 4.13359C2.90859 3.46914 3.44727 2.93047 4.11445 2.93047C4.77891 2.93047 5.31758 3.46914 5.31758 4.13359C5.31758 4.79531 4.77891 5.33672 4.11445 5.33672ZM12.9301 12.9301H10.8547V9.68164C10.8547 8.90781 10.841 7.90977 9.77461 7.90977C8.69453 7.90977 8.53047 8.75469 8.53047 9.62695V12.9301H6.45781V6.24726H8.44844V7.16055H8.47578C8.75195 6.63555 9.43008 6.08047 10.4391 6.08047C12.5418 6.08047 12.9301 7.46406 12.9301 9.26328V12.9301Z"
    fill="currentColor"
  />
</svg>
