<svg width="24" height="24" viewBox="0 0 24 24" fill="none" xmlns="http://www.w3.org/2000/svg" data-fui-icon="true">
  <path
    d="M4.46973 8.21973C4.76262 7.92683 5.23738 7.92683 5.53027 8.21973C5.82317 8.51262 5.82317 8.98738 5.53027 9.28027L3.40332 11.4072C2.18479 12.6258 1.50005 14.2787 1.5 16.002C1.5 19.5906 4.40939 22.5 7.99805 22.5H8.17188C9.78386 22.4999 11.3299 21.8596 12.4697 20.7197C12.7626 20.4268 13.2374 20.4268 13.5303 20.7197C13.8232 21.0126 13.8232 21.4874 13.5303 21.7803C12.1091 23.2014 10.1817 23.9999 8.17188 24H7.99805C3.58096 24 0 20.419 0 16.002C5.36252e-05 13.8809 0.842934 11.8465 2.34277 10.3467L4.46973 8.21973ZM22.7148 17.7646C23.0078 17.4719 23.4826 17.4718 23.7754 17.7646C24.0679 18.0575 24.068 18.5324 23.7754 18.8252L21.8301 20.7695L23.7754 22.7139C24.0683 23.0068 24.0683 23.4825 23.7754 23.7754C23.4826 24.0681 23.0078 24.0678 22.7148 23.7754L20.7695 21.8301L18.8252 23.7754C18.5324 24.0679 18.0575 24.0679 17.7646 23.7754C17.4718 23.4825 17.4718 23.0068 17.7646 22.7139L19.709 20.7695L17.7646 18.8252C17.4718 18.5323 17.4718 18.0575 17.7646 17.7646C18.0575 17.4718 18.5323 17.4718 18.8252 17.7646L20.7695 19.709L22.7148 17.7646ZM15.7197 7.21973C16.0126 6.92683 16.4874 6.92683 16.7803 7.21973C17.0732 7.51262 17.0732 7.98738 16.7803 8.28027L8.28027 16.7803C7.98738 17.0732 7.51262 17.0732 7.21973 16.7803C6.92683 16.4874 6.92683 16.0126 7.21973 15.7197L15.7197 7.21973ZM16.002 0C20.419 0 24 3.58096 24 7.99805V8.17188C23.9999 10.1817 23.2014 12.1091 21.7803 13.5303C21.4874 13.8232 21.0126 13.8232 20.7197 13.5303C20.4268 13.2374 20.4268 12.7626 20.7197 12.4697C21.8596 11.3299 22.4999 9.78386 22.5 8.17188V7.99805C22.5 4.40939 19.5906 1.5 16.002 1.5C14.2787 1.50005 12.6258 2.18479 11.4072 3.40332L9.28027 5.53027C8.98738 5.82317 8.51262 5.82317 8.21973 5.53027C7.92683 5.23738 7.92683 4.76262 8.21973 4.46973L10.3467 2.34277C11.8465 0.842934 13.8809 5.36246e-05 16.002 0Z"
    fill="currentColor"
  />
</svg>
