<svg width="24" height="24" viewBox="0 0 24 24" fill="none" xmlns="http://www.w3.org/2000/svg" data-fui-icon="true">
  <path
    d="M4.46973 8.21973C4.76257 7.92712 5.23743 7.92712 5.53027 8.21973C5.82287 8.51257 5.82288 8.98744 5.53027 9.28027L3.40332 11.4072C2.18503 12.6256 1.50017 14.279 1.5 16.002C1.50024 19.5904 4.40954 22.5 7.99805 22.5C9.7212 22.4999 11.3743 21.8151 12.5928 20.5967L14.7197 18.4697C15.0126 18.1771 15.4874 18.1771 15.7803 18.4697C16.0729 18.7626 16.0729 19.2374 15.7803 19.5303L13.6533 21.6572C12.1535 23.1569 10.119 23.9999 7.99805 24C3.58111 24 0.00024257 20.4188 0 16.002C0.000166815 13.8811 0.843175 11.8464 2.34277 10.3467L4.46973 8.21973ZM0.219727 0.219727C0.471935 -0.0322836 0.858583 -0.0663886 1.14815 0.115751C1.16943 0.129136 1.18769 0.146623 1.20477 0.165077C1.20966 0.170365 1.21464 0.175579 1.21973 0.180664L23.7197 22.6807C23.7417 22.7026 23.7651 22.7223 23.7892 22.7406C23.8089 22.7557 23.8278 22.772 23.843 22.7917C24.071 23.0858 24.0502 23.5102 23.7803 23.7803C23.4874 24.0729 23.0126 24.0729 22.7197 23.7803L12.2121 13.2727C12.095 13.1555 11.905 13.1555 11.7879 13.2727L8.28027 16.7803C7.98744 17.0729 7.51256 17.0729 7.21973 16.7803C6.92712 16.4874 6.92713 16.0126 7.21973 15.7197L10.7273 12.2121C10.8445 12.095 10.8445 11.905 10.7273 11.7879L0.219727 1.28027C-0.0728817 0.987434 -0.0728818 0.512566 0.219727 0.219727ZM16.002 0C20.4189 0 23.9998 3.58116 24 7.99805C23.9998 10.1189 23.1568 12.1536 21.6572 13.6533L19.7803 15.5303C19.4874 15.8229 19.0126 15.8229 18.7197 15.5303C18.4271 15.2374 18.4271 14.7626 18.7197 14.4697L20.5967 12.5928C21.815 11.3744 22.4998 9.72105 22.5 7.99805C22.4998 4.40958 19.5905 1.5 16.002 1.5C14.2788 1.50005 12.6257 2.18492 11.4072 3.40332L9.53027 5.28027C9.23744 5.57287 8.76256 5.57287 8.46973 5.28027C8.17712 4.98744 8.17713 4.51257 8.46973 4.21973L10.3467 2.34277C11.8465 0.843068 13.881 5.3625e-05 16.002 0ZM15.7197 7.21973C16.0126 6.92712 16.4874 6.92712 16.7803 7.21973C17.0729 7.51257 17.0729 7.98744 16.7803 8.28027L14.3225 10.7372C14.2053 10.8543 14.0154 10.8543 13.8983 10.7371L13.262 10.1008C13.1448 9.98367 13.1448 9.79369 13.262 9.67654L15.7197 7.21973Z"
    fill="currentColor"
  />
</svg>
