<svg width="12" height="12" viewBox="0 0 12 12" fill="none" xmlns="http://www.w3.org/2000/svg" data-fui-icon="true">
  <path
    d="M2.875 7.375C3.42728 7.375 3.875 7.8227 3.875 8.375C3.875 8.9273 3.42728 9.375 2.875 9.375C2.32271 9.375 1.875 8.9273 1.875 8.375C1.875 7.8227 2.32271 7.375 2.875 7.375ZM10.125 7.625C10.5392 7.625 10.875 7.96079 10.875 8.375C10.875 8.78921 10.5392 9.125 10.125 9.125H5.875C5.46079 9.125 5.125 8.78921 5.125 8.375C5.125 7.96079 5.46079 7.625 5.875 7.625H10.125ZM2.875 2.625C3.42728 2.625 3.875 3.07271 3.875 3.625C3.875 4.17728 3.42728 4.625 2.875 4.625C2.32271 4.625 1.875 4.17728 1.875 3.625C1.875 3.07271 2.32271 2.625 2.875 2.625ZM10.125 2.875C10.5392 2.875 10.875 3.21079 10.875 3.625C10.875 4.03921 10.5392 4.375 10.125 4.375H5.875C5.46079 4.375 5.125 4.03921 5.125 3.625C5.125 3.21079 5.46079 2.875 5.875 2.875H10.125Z"
    fill="currentColor"
  />
</svg>
