<svg width="24" height="24" viewBox="0 0 24 24" fill="none" xmlns="http://www.w3.org/2000/svg" data-fui-icon="true">
  <path
    d="M5.75 14C7.26878 14 8.5 15.2312 8.5 16.75C8.5 18.2688 7.26878 19.5 5.75 19.5C4.23122 19.5 3 18.2688 3 16.75C3 15.2312 4.23122 14 5.75 14ZM5.75 15.5C5.05964 15.5 4.5 16.0596 4.5 16.75C4.5 17.4404 5.05964 18 5.75 18C6.44036 18 7 17.4404 7 16.75C7 16.0596 6.44036 15.5 5.75 15.5ZM20.25 16C20.6642 16 21 16.3358 21 16.75C21 17.1642 20.6642 17.5 20.25 17.5H11.75C11.3358 17.5 11 17.1642 11 16.75C11 16.3358 11.3358 16 11.75 16H20.25ZM5.75 4.5C7.26878 4.5 8.5 5.73122 8.5 7.25C8.5 8.76878 7.26878 10 5.75 10C4.23122 10 3 8.76878 3 7.25C3 5.73122 4.23122 4.5 5.75 4.5ZM5.75 6C5.05964 6 4.5 6.55964 4.5 7.25C4.5 7.94036 5.05964 8.5 5.75 8.5C6.44036 8.5 7 7.94036 7 7.25C7 6.55964 6.44036 6 5.75 6ZM20.25 6.5C20.6642 6.5 21 6.83579 21 7.25C21 7.66421 20.6642 8 20.25 8H11.75C11.3358 8 11 7.66421 11 7.25C11 6.83579 11.3358 6.5 11.75 6.5H20.25Z"
    fill="currentColor"
  />
</svg>
