<svg width="32" height="32" viewBox="0 0 32 32" fill="none" xmlns="http://www.w3.org/2000/svg" data-fui-icon="true">
  <path
    d="M9.96289 18.3857C10.3029 17.9506 10.931 17.873 11.3662 18.2129C11.8013 18.5528 11.8787 19.181 11.5391 19.6162L6.06934 26.6172C5.89786 26.8365 5.64268 26.9747 5.36523 26.998C5.08759 27.0212 4.81207 26.9273 4.60645 26.7393L1.3252 23.7393C0.917696 23.3666 0.889198 22.7338 1.26172 22.3262C1.63438 21.9186 2.26722 21.891 2.6748 22.2637L5.1582 24.5342L9.96289 18.3857ZM30 22C30.5523 22 31 22.4477 31 23C30.9999 23.5522 30.5522 24 30 24H16C15.4478 23.9999 15.0001 23.5522 15 23C15 22.4478 15.4478 22.0001 16 22H30ZM9.96289 4.38477C10.3029 3.94958 10.931 3.87197 11.3662 4.21191C11.8012 4.55182 11.8786 5.18007 11.5391 5.61523L6.06934 12.6162C5.89786 12.8355 5.64261 12.9738 5.36523 12.9971C5.08765 13.0202 4.81205 12.9262 4.60645 12.7383L1.3252 9.73828C0.917718 9.36569 0.889319 8.73279 1.26172 8.3252C1.63439 7.91764 2.26722 7.89005 2.6748 8.2627L5.1582 10.5332L9.96289 4.38477ZM30 8C30.5523 8 31 8.44772 31 9C30.9999 9.55223 30.5522 10 30 10H16C15.4478 9.99992 15.0001 9.55219 15 9C15 8.44776 15.4478 8.00008 16 8H30Z"
    fill="currentColor"
  />
</svg>
