<svg width="20" height="20" viewBox="0 0 20 20" fill="none" xmlns="http://www.w3.org/2000/svg" data-fui-icon="true">
  <path
    fill-rule="evenodd"
    clip-rule="evenodd"
    d="M6.21179 11.3848C6.55173 10.9496 7.17991 10.8722 7.61511 11.2119C8.0501 11.5519 8.12768 12.1801 7.78797 12.6152L4.66297 16.6152C4.49142 16.8348 4.23551 16.9728 3.95789 16.9961C3.68042 17.0192 3.40563 16.9261 3.20007 16.7383L1.32507 15.0234C0.917772 14.6509 0.889376 14.0189 1.2616 13.6113C1.63426 13.2037 2.26708 13.1752 2.67468 13.5479L3.75183 14.5322L6.21179 11.3848ZM17.9999 13C18.5521 13 18.9999 13.4477 18.9999 14C18.9998 14.5522 18.5521 15 17.9999 15H10.9999C10.4477 15 9.99999 14.5522 9.99988 14C9.99988 13.4477 10.4476 13 10.9999 13H17.9999ZM6.21179 3.38477C6.55173 2.94965 7.17991 2.87216 7.61511 3.21192C8.0501 3.55188 8.12768 4.18009 7.78797 4.61524L4.66297 8.61524C4.49142 8.83476 4.23551 8.97285 3.95789 8.9961C3.68042 9.01922 3.40563 8.92608 3.20007 8.73828L1.32507 7.02344C0.917772 6.65088 0.889376 6.01889 1.2616 5.61133C1.63426 5.20373 2.26708 5.17519 2.67468 5.54785L3.75183 6.53223L6.21179 3.38477ZM17.9999 5C18.5521 5.00005 18.9999 5.44775 18.9999 6C18.9998 6.55216 18.5521 6.99996 17.9999 7H10.9999C10.4477 7 9.99999 6.55219 9.99988 6C9.99988 5.44772 10.4476 5 10.9999 5H17.9999Z"
    fill="currentColor"
  />
</svg>
