<svg width="24" height="24" viewBox="0 0 24 24" fill="none" xmlns="http://www.w3.org/2000/svg" data-fui-icon="true">
  <path
    fill-rule="evenodd"
    clip-rule="evenodd"
    d="M8.21788 12.8769C8.56199 12.4451 9.19125 12.3738 9.62315 12.7177C10.055 13.0619 10.1263 13.6911 9.78233 14.123L5.40733 19.6132C5.231 19.8344 4.96893 19.9708 4.68663 19.9882C4.40426 20.0055 4.127 19.902 3.92491 19.7041L1.29991 17.1328C0.905769 16.7464 0.899318 16.1132 1.28526 15.7187C1.67171 15.3242 2.30576 15.3177 2.7003 15.7041L4.53331 17.499L8.21788 12.8769ZM22.0001 15C22.5524 15 23.0001 15.4477 23.0001 16C23.0001 16.5522 22.5524 17 22.0001 17H13.0001C12.4479 16.9998 12.0001 16.5522 12.0001 16C12.0001 15.4477 12.4479 15.0001 13.0001 15H22.0001ZM8.21788 4.37691C8.56199 3.94511 9.19125 3.87382 9.62315 4.21773C10.055 4.56188 10.1263 5.1911 9.78233 5.623L5.40733 11.1132C5.231 11.3344 4.96893 11.4708 4.68663 11.4882C4.40426 11.5055 4.127 11.402 3.92491 11.2041L1.29991 8.63277C0.905769 8.24642 0.899318 7.61319 1.28526 7.2187C1.67171 6.82421 2.30576 6.81767 2.7003 7.20406L4.53331 8.99898L8.21788 4.37691ZM22.0001 6.99995C22.5524 6.99995 23.0001 7.44767 23.0001 7.99995C23.0001 8.55223 22.5524 8.99995 22.0001 8.99995H13.0001C12.4479 8.99984 12.0001 8.55216 12.0001 7.99995C12.0001 7.44774 12.4479 7.00007 13.0001 6.99995H22.0001Z"
    fill="currentColor"
  />
</svg>
