<svg width="32" height="32" viewBox="0 0 32 32" fill="none" xmlns="http://www.w3.org/2000/svg" data-fui-icon="true">
  <path
    d="M7.66699 18.667C9.69177 18.6672 11.3328 20.3082 11.333 22.333C11.333 24.358 9.69188 25.9998 7.66699 26C5.64196 26 4 24.3581 4 22.333C4.00018 20.3081 5.64207 18.667 7.66699 18.667ZM7.66699 20.667C6.74662 20.667 6.00018 21.4127 6 22.333C6 23.2535 6.74651 24 7.66699 24C8.58733 23.9998 9.33301 23.2534 9.33301 22.333C9.33283 21.4128 8.58722 20.6672 7.66699 20.667ZM27 21.333C27.5522 21.333 27.9998 21.7809 28 22.333C28 22.8853 27.5523 23.333 27 23.333H15.667C15.1147 23.333 14.667 22.8853 14.667 22.333C14.6672 21.7809 15.1148 21.333 15.667 21.333H27ZM7.66699 6C9.69189 6.00018 11.333 7.64206 11.333 9.66699C11.3328 11.6918 9.69178 13.3328 7.66699 13.333C5.64206 13.333 4.00018 11.6919 4 9.66699C4 7.64195 5.64195 6 7.66699 6ZM7.66699 8C6.74652 8 6 8.74652 6 9.66699C6.00018 10.5873 6.74663 11.333 7.66699 11.333C8.58721 11.3328 9.33283 10.5872 9.33301 9.66699C9.33301 8.74663 8.58732 8.00018 7.66699 8ZM27 8.66699C27.5523 8.66699 28 9.11471 28 9.66699C27.9998 10.2191 27.5522 10.667 27 10.667H15.667C15.1148 10.667 14.6672 10.2191 14.667 9.66699C14.667 9.11471 15.1147 8.66699 15.667 8.66699H27Z"
    fill="currentColor"
  />
</svg>
