<svg width="12" height="12" viewBox="0 0 12 12" fill="none" xmlns="http://www.w3.org/2000/svg" data-fui-icon="true">
  <path
    fill-rule="evenodd"
    clip-rule="evenodd"
    d="M2.80469 6.37501C3.55701 6.37513 4.35537 6.92463 4.35547 7.81934C4.35539 8.29681 4.12505 8.6483 3.88281 8.8877C4.23357 8.95048 4.5 9.25619 4.5 9.62501C4.49987 10.0391 4.16413 10.375 3.75 10.375H1.875C1.46087 10.375 1.12513 10.0391 1.125 9.62501C1.125 9.10976 1.4342 8.76848 1.66797 8.5752C1.89389 8.38847 2.1833 8.23238 2.37109 8.12598C2.54713 8.02624 2.66928 7.95056 2.75586 7.8838C2.71931 7.89297 2.67127 7.91063 2.61523 7.94337C2.57722 7.96559 2.54537 7.9873 2.52539 8.00294C2.51577 8.01048 2.51003 8.01664 2.50781 8.01856C2.50833 8.01809 2.50875 8.01665 2.50977 8.01563C2.20816 8.29529 1.73677 8.28023 1.4541 7.98048C1.17016 7.67907 1.18412 7.20399 1.48535 6.91993L1.71484 7.16309C1.51272 6.94844 1.489 6.92299 1.48633 6.91993V6.91895H1.4873L1.48828 6.917C1.48931 6.91603 1.49095 6.91518 1.49219 6.91407C1.49467 6.91178 1.49775 6.90918 1.50098 6.90626C1.50753 6.90033 1.51583 6.89306 1.52539 6.88477C1.54466 6.86808 1.57047 6.84661 1.60156 6.82227C1.66314 6.77409 1.74998 6.71129 1.85742 6.64844C2.06242 6.5286 2.39809 6.37501 2.80469 6.37501ZM10.125 7.62501C10.5392 7.62501 10.875 7.96079 10.875 8.37501C10.8749 8.78911 10.5391 9.12501 10.125 9.12501H5.875C5.46087 9.12501 5.12513 8.78911 5.125 8.37501C5.125 7.96079 5.46079 7.62501 5.875 7.62501H10.125ZM2.69531 1.76075C2.92439 1.6005 3.2237 1.58086 3.47168 1.70997C3.71948 1.83919 3.875 2.09551 3.875 2.37501V4.87501C3.87487 5.28911 3.53913 5.62501 3.125 5.62501C2.71087 5.62501 2.37513 5.28911 2.375 4.87501V3.81446L2.30469 3.86426C1.96543 4.1015 1.49824 4.0188 1.26074 3.67969C1.0234 3.34041 1.10613 2.87326 1.44531 2.63575L2.69531 1.76075ZM10.125 2.87501C10.5392 2.87501 10.875 3.21079 10.875 3.62501C10.8749 4.03911 10.5391 4.37501 10.125 4.37501H5.875C5.46087 4.37501 5.12513 4.03911 5.125 3.62501C5.125 3.21079 5.46079 2.87501 5.875 2.87501H10.125Z"
    fill="currentColor"
  />
</svg>
