<svg width="32" height="32" viewBox="0 0 32 32" fill="none" xmlns="http://www.w3.org/2000/svg" data-fui-icon="true">
  <path
    d="M7.66699 18.917C9.5537 18.9172 11.0828 20.4462 11.083 22.333C11.083 24.2199 9.55381 25.7498 7.66699 25.75C5.78003 25.75 4.25 24.22 4.25 22.333C4.25018 20.4461 5.78013 18.917 7.66699 18.917ZM7.66699 20.417C6.60855 20.417 5.75018 21.2746 5.75 22.333C5.75 23.3916 6.60844 24.25 7.66699 24.25C8.7254 24.2498 9.58301 23.3915 9.58301 22.333C9.58283 21.2747 8.72529 20.4172 7.66699 20.417ZM27 21.583C27.4141 21.583 27.7498 21.9189 27.75 22.333C27.75 22.7472 27.4142 23.083 27 23.083H15.667C15.2528 23.083 14.917 22.7472 14.917 22.333C14.9172 21.9189 15.2529 21.583 15.667 21.583H27ZM7.66699 6.25C9.55382 6.25018 11.083 7.78013 11.083 9.66699C11.0828 11.5537 9.55371 13.0828 7.66699 13.083C5.78013 13.083 4.25018 11.5538 4.25 9.66699C4.25 7.78002 5.78002 6.25 7.66699 6.25ZM7.66699 7.75C6.60845 7.75 5.75 8.60845 5.75 9.66699C5.75018 10.7254 6.60855 11.583 7.66699 11.583C8.72528 11.5828 9.58283 10.7253 9.58301 9.66699C9.58301 8.60855 8.72539 7.75018 7.66699 7.75ZM27 8.91699C27.4142 8.91699 27.75 9.25278 27.75 9.66699C27.7498 10.0811 27.4141 10.417 27 10.417H15.667C15.2529 10.417 14.9172 10.0811 14.917 9.66699C14.917 9.25278 15.2528 8.91699 15.667 8.91699H27Z"
    fill="currentColor"
  />
</svg>
