<svg width="16" height="16" viewBox="0 0 16 16" fill="none" xmlns="http://www.w3.org/2000/svg" data-fui-icon="true">
  <path
    d="M3.58691 9.50098C4.50656 9.50111 5.25195 10.2473 5.25195 11.167C5.25182 12.0866 4.50647 12.8319 3.58691 12.832C2.66724 12.832 1.92103 12.0867 1.9209 11.167C1.9209 10.2472 2.66716 9.50098 3.58691 9.50098ZM13.2529 10.166C13.8049 10.1662 14.2526 10.6141 14.2529 11.166C14.2529 11.7182 13.8051 12.1658 13.2529 12.166H7.58594C7.03369 12.166 6.58594 11.7183 6.58594 11.166C6.58625 10.614 7.03388 10.1661 7.58594 10.166H13.2529ZM3.58691 3.16699C4.50714 3.16713 5.25271 3.9128 5.25293 4.83301C5.25293 5.7534 4.50728 6.49987 3.58691 6.5C2.66644 6.5 1.91992 5.75348 1.91992 4.83301C1.92014 3.91272 2.66657 3.16699 3.58691 3.16699ZM13.2529 3.83301C13.805 3.83318 14.2528 4.28094 14.2529 4.83301C14.2529 5.38518 13.8051 5.83283 13.2529 5.83301H7.58594C7.03369 5.83297 6.58594 5.38527 6.58594 4.83301C6.58607 4.28086 7.03377 3.83305 7.58594 3.83301H13.2529Z"
    fill="currentColor"
  />
</svg>
