<svg width="24" height="24" viewBox="0 0 24 24" fill="none" xmlns="http://www.w3.org/2000/svg" data-fui-icon="true">
  <path
    fill-rule="evenodd"
    clip-rule="evenodd"
    d="M8.41285 13.0323C8.67098 12.7084 9.14362 12.6551 9.46754 12.9131C9.79145 13.1713 9.84483 13.6439 9.58668 13.9678L5.21168 19.4571C5.07941 19.623 4.88245 19.7253 4.67067 19.7383C4.45903 19.7512 4.25187 19.6738 4.10035 19.5254L1.47535 16.9541C1.17966 16.6644 1.17414 16.1895 1.46364 15.8936C1.75344 15.5977 2.22827 15.5932 2.52418 15.8828L4.55543 17.8721L8.41285 13.0323ZM21.9998 15.25C22.414 15.25 22.7498 15.5858 22.7498 16C22.7498 16.4142 22.414 16.75 21.9998 16.75H12.9998C12.5857 16.7499 12.2498 16.4142 12.2498 16C12.2498 15.5859 12.5856 15.2501 12.9998 15.25H21.9998ZM8.41285 4.53226C8.67098 4.20839 9.14362 4.15508 9.46754 4.41312C9.79145 4.67127 9.84483 5.14388 9.58668 5.4678L5.21168 10.9571C5.07941 11.123 4.88245 11.2253 4.67067 11.2383C4.45903 11.2512 4.25187 11.1738 4.10035 11.0254L1.47535 8.45413C1.17966 8.16437 1.17414 7.68947 1.46364 7.39358C1.75344 7.09775 2.22827 7.09316 2.52418 7.38284L4.55543 9.3721L8.41285 4.53226ZM21.9998 7.25003C22.414 7.25003 22.7498 7.58582 22.7498 8.00003C22.7498 8.41423 22.414 8.75003 21.9998 8.75003H12.9998C12.5857 8.74992 12.2498 8.41417 12.2498 8.00003C12.2498 7.58588 12.5856 7.25014 12.9998 7.25003H21.9998Z"
    fill="currentColor"
  />
</svg>
1409 13.0576 9C13.0576 8.58591 13.3936 8.25021 13.8076 8.25H16.3076Z"
    fill="currentColor"
  />
</svg>
