<svg width="20" height="20" viewBox="0 0 20 20" fill="none" xmlns="http://www.w3.org/2000/svg" data-fui-icon="true">
  <path
    d="M4.79199 11.542C6.12642 11.5422 7.20783 12.6235 7.20801 13.958C7.20801 15.2926 6.12652 16.3748 4.79199 16.375C3.45731 16.375 2.375 15.2927 2.375 13.958C2.37518 12.6234 3.45742 11.542 4.79199 11.542ZM4.79199 13.042C4.28583 13.042 3.87518 13.4519 3.875 13.958C3.875 14.4643 4.28572 14.875 4.79199 14.875C5.29811 14.8748 5.70801 14.4642 5.70801 13.958C5.70783 13.452 5.298 13.0422 4.79199 13.042ZM16.875 13.208C17.2891 13.208 17.6248 13.5439 17.625 13.958C17.625 14.3722 17.2892 14.708 16.875 14.708H9.79199C9.37778 14.708 9.04199 14.3722 9.04199 13.958C9.04217 13.5439 9.37789 13.208 9.79199 13.208H16.875ZM4.79199 3.625C6.12653 3.62518 7.20801 4.70741 7.20801 6.04199C7.20783 7.37642 6.12642 8.45783 4.79199 8.45801C3.45741 8.45801 2.37518 7.37653 2.375 6.04199C2.375 4.7073 3.4573 3.625 4.79199 3.625ZM4.79199 5.125C4.28573 5.125 3.875 5.53573 3.875 6.04199C3.87518 6.5481 4.28584 6.95801 4.79199 6.95801C5.298 6.95783 5.70783 6.548 5.70801 6.04199C5.70801 5.53584 5.2981 5.12518 4.79199 5.125ZM16.875 5.29199C17.2892 5.29199 17.625 5.62778 17.625 6.04199C17.6248 6.45606 17.2891 6.79199 16.875 6.79199H9.79199C9.37789 6.79199 9.04217 6.45606 9.04199 6.04199C9.04199 5.62778 9.37778 5.29199 9.79199 5.29199H16.875Z"
    fill="currentColor"
  />
</svg>
