<svg width="16" height="16" viewBox="0 0 16 16" fill="none" xmlns="http://www.w3.org/2000/svg" data-fui-icon="true">
  <path
    d="M3.83301 9.83301C4.56939 9.83301 5.16699 10.4306 5.16699 11.167C5.16682 11.9032 4.56928 12.5 3.83301 12.5C3.09689 12.4998 2.50018 11.9031 2.5 11.167C2.5 10.4307 3.09678 9.83318 3.83301 9.83301ZM13.5 10.416C13.9138 10.4162 14.2497 10.7522 14.25 11.166C14.25 11.5801 13.9141 11.9158 13.5 11.916H7.83301C7.41896 11.9158 7.08301 11.5801 7.08301 11.166C7.08336 10.7522 7.41918 10.4162 7.83301 10.416H13.5ZM3.83301 3.5C4.56928 3.5 5.16682 4.09678 5.16699 4.83301C5.16699 5.56939 4.56939 6.16699 3.83301 6.16699C3.09678 6.16682 2.5 5.56928 2.5 4.83301C2.50018 4.09689 3.09689 3.50018 3.83301 3.5ZM13.5 4.08301C13.914 4.08318 14.2498 4.41905 14.25 4.83301C14.25 5.24711 13.9141 5.58283 13.5 5.58301H7.83301C7.41896 5.58281 7.08301 5.2471 7.08301 4.83301C7.08318 4.41906 7.41907 4.08321 7.83301 4.08301H13.5Z"
    fill="currentColor"
  />
</svg>
