<svg width="32" height="32" viewBox="0 0 32 32" fill="none" xmlns="http://www.w3.org/2000/svg" data-fui-icon="true">
  <path
    fill-rule="evenodd"
    clip-rule="evenodd"
    d="M9.96296 18.3858C10.3029 17.9506 10.9311 17.873 11.3663 18.2129C11.8013 18.5528 11.8787 19.181 11.5391 19.6162L6.0694 26.6172C5.89792 26.8365 5.64274 26.9747 5.3653 26.9981C5.08766 27.0212 4.81214 26.9273 4.60651 26.7393L1.32526 23.7393C0.917763 23.3666 0.889265 22.7338 1.26179 22.3262C1.63445 21.9186 2.26729 21.8911 2.67487 22.2637L5.15827 24.5342L9.96296 18.3858ZM30.0001 22C30.5524 22 31.0001 22.4477 31.0001 23C31 23.5522 30.5523 24 30.0001 24H16.0001C15.4479 23.9999 15.0001 23.5522 15.0001 23C15.0001 22.4478 15.4478 22.0001 16.0001 22H30.0001ZM9.96296 4.38478C10.3029 3.94959 10.9311 3.87198 11.3663 4.21193C11.8013 4.55184 11.8787 5.18008 11.5391 5.61525L6.0694 12.6162C5.89792 12.8355 5.64268 12.9738 5.3653 12.9971C5.08771 13.0203 4.81212 12.9262 4.60651 12.7383L1.32526 9.73829C0.917785 9.3657 0.889386 8.73281 1.26179 8.32521C1.63446 7.91766 2.26729 7.89006 2.67487 8.26271L5.15827 10.5332L9.96296 4.38478ZM30.0001 8.00001C30.5524 8.00001 31.0001 8.44773 31.0001 9.00001C31 9.55225 30.5523 10 30.0001 10H16.0001C15.4479 9.99994 15.0001 9.5522 15.0001 9.00001C15.0001 8.44778 15.4478 8.00009 16.0001 8.00001H30.0001Z"
    fill="currentColor"
  />
</svg>
