<svg width="20" height="20" viewBox="0 0 20 20" fill="none" xmlns="http://www.w3.org/2000/svg" data-fui-icon="true">
  <path
    d="M4.79199 11.292C6.26448 11.2922 7.45783 12.4855 7.45801 13.958C7.45801 15.4307 6.26459 16.6248 4.79199 16.625C3.31924 16.625 2.125 15.4308 2.125 13.958C2.12518 12.4854 3.31935 11.292 4.79199 11.292ZM16.875 12.958C17.4272 12.958 17.8748 13.4059 17.875 13.958C17.875 14.5103 17.4273 14.958 16.875 14.958H9.79199C9.23971 14.958 8.79199 14.5103 8.79199 13.958C8.79217 13.4059 9.23982 12.958 9.79199 12.958H16.875ZM4.79199 13.292C4.4239 13.292 4.12518 13.59 4.125 13.958C4.125 14.3262 4.42379 14.625 4.79199 14.625C5.16004 14.6248 5.45801 14.3261 5.45801 13.958C5.45783 13.5901 5.15993 13.2922 4.79199 13.292ZM4.79199 3.375C6.2646 3.37518 7.45801 4.56934 7.45801 6.04199C7.45783 7.51449 6.26449 8.70783 4.79199 8.70801C3.31934 8.70801 2.12518 7.5146 2.125 6.04199C2.125 4.56923 3.31923 3.375 4.79199 3.375ZM16.875 5.04199C17.4273 5.04199 17.875 5.48971 17.875 6.04199C17.8748 6.59413 17.4272 7.04199 16.875 7.04199H9.79199C9.23982 7.04199 8.79217 6.59413 8.79199 6.04199C8.79199 5.48971 9.23971 5.04199 9.79199 5.04199H16.875ZM4.79199 5.375C4.4238 5.375 4.125 5.6738 4.125 6.04199C4.12518 6.41003 4.42391 6.70801 4.79199 6.70801C5.15992 6.70783 5.45783 6.40992 5.45801 6.04199C5.45801 5.67391 5.16003 5.37518 4.79199 5.375Z"
    fill="currentColor"
  />
</svg>
