<svg width="12" height="12" viewBox="0 0 12 12" fill="none" xmlns="http://www.w3.org/2000/svg" data-fui-icon="true">
  <path
    fill-rule="evenodd"
    clip-rule="evenodd"
    d="M2.20588 6.47034C2.49835 6.00227 3.11552 5.85901 3.5838 6.15101C4.05199 6.44343 4.19512 7.0606 3.90314 7.52894L2.65314 9.52894C2.50195 9.77101 2.25479 9.93698 1.97345 9.98499C1.69199 10.0329 1.40337 9.95835 1.18048 9.77991L0.429508 9.17933C-0.00152638 8.83414 -0.0708949 8.20418 0.274234 7.77308C0.585078 7.38543 1.12554 7.29129 1.54474 7.52796L2.20588 6.47034ZM9.87384 7.37464C10.426 7.37464 10.8736 7.82254 10.8738 8.37464C10.8738 8.92692 10.4261 9.37464 9.87384 9.37464H5.62384C5.0716 9.37459 4.62384 8.92689 4.62384 8.37464C4.62406 7.82257 5.07174 7.37469 5.62384 7.37464H9.87384ZM2.20588 1.47034C2.4984 1.0023 3.11553 0.858933 3.5838 1.15101C4.05192 1.44342 4.19504 2.06063 3.90314 2.52894L2.65314 4.52894C2.50199 4.77095 2.2547 4.93694 1.97345 4.98499C1.692 5.03293 1.40337 4.95833 1.18048 4.77991L0.429508 4.17933C-0.00163275 3.83416 -0.0709267 3.20422 0.274234 2.77308C0.585116 2.38548 1.12556 2.29124 1.54474 2.52796L2.20588 1.47034ZM9.87384 2.62464C10.426 2.62464 10.8736 3.07254 10.8738 3.62464C10.8738 4.17692 10.4261 4.62464 9.87384 4.62464H5.62384C5.0716 4.62458 4.62384 4.17689 4.62384 3.62464C4.62406 3.07257 5.07174 2.62469 5.62384 2.62464H9.87384Z"
    fill="currentColor"
  />
</svg>
