<svg width="16" height="16" viewBox="0 0 16 16" fill="none" xmlns="http://www.w3.org/2000/svg" data-fui-icon="true">
  <path
    d="M5.18652 8.41919C5.50753 7.96978 6.13164 7.86576 6.58105 8.18677C7.03036 8.5078 7.13446 9.13193 6.81348 9.5813L4.31348 13.0813C4.14263 13.3204 3.87493 13.4731 3.58203 13.4973C3.2893 13.5214 3.0007 13.4149 2.79297 13.2073L1.29297 11.7073C0.902458 11.3168 0.902484 10.6837 1.29297 10.2932C1.68349 9.90269 2.31651 9.90269 2.70703 10.2932L3.37207 10.9583L5.18652 8.41919ZM14 10.0002C14.5522 10.0003 15 10.448 15 11.0002C14.9999 11.5524 14.5522 12.0002 14 12.0002H9C8.44777 12.0002 8.00008 11.5525 8 11.0002C8 10.448 8.44772 10.0002 9 10.0002H14ZM5.18652 2.41919C5.50753 1.96978 6.13164 1.86576 6.58105 2.18677C7.03036 2.5078 7.13446 3.13193 6.81348 3.5813L4.31348 7.0813C4.14263 7.32044 3.87493 7.47305 3.58203 7.49731C3.2893 7.5214 3.0007 7.41494 2.79297 7.20728L1.29297 5.70728C0.902458 5.31676 0.902484 4.68374 1.29297 4.29321C1.68349 3.90269 2.31651 3.90269 2.70703 4.29321L3.37207 4.95825L5.18652 2.41919ZM14 4.00024C14.5522 4.00028 15 4.44798 15 5.00024C14.9999 5.55243 14.5522 6.0002 14 6.00024H9C8.44777 6.00024 8.00008 5.55246 8 5.00024C8 4.44796 8.44772 4.00024 9 4.00024H14Z"
    fill="currentColor"
  />
</svg>
