<svg width="12" height="12" viewBox="0 0 12 12" fill="none" xmlns="http://www.w3.org/2000/svg" data-fui-icon="true">
  <path
    fill-rule="evenodd"
    clip-rule="evenodd"
    d="M2.41925 6.60214C2.63877 6.25122 3.1013 6.14462 3.45245 6.36386C3.80349 6.58332 3.90996 7.04586 3.69073 7.39706L2.44171 9.39706C2.3283 9.57849 2.14286 9.70286 1.93194 9.73886C1.72097 9.77479 1.50434 9.7192 1.33722 9.58554L0.586242 8.98397C0.263007 8.72508 0.210219 8.2526 0.469054 7.92929C0.727931 7.60617 1.20046 7.55437 1.52374 7.81308L1.61554 7.88632L2.41925 6.60214ZM9.87433 7.6246C10.2884 7.6246 10.6241 7.96057 10.6243 8.3746C10.6243 8.78881 10.2885 9.1246 9.87433 9.1246H5.62433C5.21016 9.12455 4.87433 8.78878 4.87433 8.3746C4.87454 7.9606 5.21029 7.62465 5.62433 7.6246H9.87433ZM2.41925 1.60214C2.63881 1.25125 3.10131 1.14454 3.45245 1.36386C3.80341 1.58331 3.90987 2.04589 3.69073 2.39706L2.44171 4.39706C2.32834 4.57843 2.14277 4.70282 1.93194 4.73886C1.72098 4.77479 1.50434 4.71918 1.33722 4.58554L0.586242 3.98397C0.2629 3.7251 0.210187 3.25264 0.469054 2.92929C0.727979 2.60621 1.20049 2.55429 1.52374 2.81308L1.61554 2.88632L2.41925 1.60214ZM9.87433 2.8746C10.2884 2.8746 10.6241 3.21057 10.6243 3.6246C10.6243 4.03881 10.2885 4.3746 9.87433 4.3746H5.62433C5.21016 4.37455 4.87433 4.03878 4.87433 3.6246C4.87454 3.2106 5.21029 2.87465 5.62433 2.8746H9.87433Z"
    fill="currentColor"
  />
</svg>
