<svg width="32" height="32" viewBox="0 0 32 32" fill="none" xmlns="http://www.w3.org/2000/svg" data-fui-icon="true">
  <path
    d="M10.1592 18.5391C10.4141 18.2127 10.8855 18.1553 11.2119 18.4102C11.5383 18.6652 11.5968 19.1365 11.3418 19.4629L5.87207 26.4629C5.7434 26.6275 5.55196 26.7316 5.34375 26.749C5.13563 26.7663 4.92953 26.6956 4.77539 26.5547L1.49414 23.5547C1.18852 23.2752 1.16697 22.8008 1.44629 22.4951C1.72567 22.1895 2.20014 22.1681 2.50586 22.4473L5.18848 24.9014L10.1592 18.5391ZM30 22.25C30.4142 22.25 30.75 22.5858 30.75 23C30.7499 23.4142 30.4142 23.75 30 23.75H16C15.5859 23.7499 15.2501 23.4141 15.25 23C15.25 22.5858 15.5859 22.2501 16 22.25H30ZM10.1592 4.53809C10.4141 4.21174 10.8855 4.15434 11.2119 4.40918C11.5383 4.6642 11.5968 5.13553 11.3418 5.46191L5.87207 12.4619C5.7434 12.6264 5.55189 12.7306 5.34375 12.748C5.13568 12.7653 4.92951 12.6946 4.77539 12.5537L1.49414 9.55371C1.18854 9.27431 1.1671 8.79985 1.44629 8.49414C1.72568 8.18856 2.20015 8.16713 2.50586 8.44629L5.18848 10.9004L10.1592 4.53809ZM30 8.25C30.4142 8.25 30.75 8.58579 30.75 9C30.7499 9.41416 30.4142 9.75 30 9.75H16C15.5859 9.74992 15.2501 9.41412 15.25 9C15.25 8.58583 15.5859 8.25008 16 8.25H30Z"
    fill="currentColor"
  />
</svg>
14.4316 11.4728 14.5086 11.1416 14.2881L9.6416 13.2881C9.29701 13.0583 9.20394 12.5927 9.43359 12.248C9.66337 11.9034 10.129 11.8103 10.4736 12.04L11.3828 12.6455L13.4531 9.88672ZM21.7441 11.25C22.1583 11.2501 22.4941 11.5858 22.4941 12C22.4941 12.4142 22.1583 12.7499 21.7441 12.75H18.4111C17.9969 12.75 17.6611 12.4142 17.6611 12C17.6611 11.5858 17.9969 11.25 18.4111 11.25H21.7441Z"
    fill="currentColor"
  />
</svg>
