<svg width="16" height="16" viewBox="0 0 16 16" fill="none" xmlns="http://www.w3.org/2000/svg" data-fui-icon="true">
  <path
    d="M8 0C11.2239 0 14.5 2.35185 14.5 6.25C14.5 10.5842 11.5074 13.8045 9.77637 15.3145C8.74718 16.2121 7.25282 16.2121 6.22363 15.3145C4.4926 13.8045 1.5 10.5842 1.5 6.25C1.5 2.35185 4.7761 0 8 0ZM8 1.5C5.42491 1.5 3 3.34916 3 6.25C3 9.90068 5.55168 12.7371 7.20996 14.1836C7.67419 14.5885 8.32581 14.5885 8.79004 14.1836C10.4483 12.7371 13 9.90068 13 6.25C13 3.34916 10.5751 1.5 8 1.5ZM8 3.5C9.65685 3.5 11 4.84315 11 6.5C11 8.15685 9.65685 9.5 8 9.5C6.34315 9.5 5 8.15685 5 6.5C5 4.84315 6.34315 3.5 8 3.5ZM8 5C7.17157 5 6.5 5.67157 6.5 6.5C6.5 7.32843 7.17157 8 8 8C8.82843 8 9.5 7.32843 9.5 6.5C9.5 5.67157 8.82843 5 8 5Z"
    fill="currentColor"
  />
</svg>
