<svg width="12" height="12" viewBox="0 0 12 12" fill="none" xmlns="http://www.w3.org/2000/svg" data-fui-icon="true">
  <path
    d="M6 0C8.76142 0 11 2.23858 11 5C11 6.87522 10.1788 8.40479 9.26367 9.52637C8.34945 10.6467 7.30574 11.406 6.76172 11.7617C6.29638 12.066 5.70362 12.066 5.23828 11.7617C4.69426 11.406 3.65055 10.6467 2.73633 9.52637C1.82117 8.40479 1 6.87522 1 5C1 2.23858 3.23858 0 6 0ZM6 2.5C4.61929 2.5 3.5 3.61929 3.5 5C3.5 6.38071 4.61929 7.5 6 7.5C7.38071 7.5 8.5 6.38071 8.5 5C8.5 3.61929 7.38071 2.5 6 2.5Z"
    fill="currentColor"
  />
</svg>
