<svg width="32" height="32" viewBox="0 0 32 32" fill="none" xmlns="http://www.w3.org/2000/svg" data-fui-icon="true">
  <path
    d="M16 1C22.5031 1 27.75 6.33877 27.75 13C27.75 17.2567 26.03 20.9836 23.9648 23.9268C21.8989 26.871 19.4565 29.0769 17.9297 30.3086C16.7921 31.2262 15.2079 31.2262 14.0703 30.3086C12.5435 29.0769 10.1011 26.871 8.03516 23.9268C5.97002 20.9836 4.25 17.2567 4.25 13C4.25 6.33877 9.49691 1 16 1ZM16 7.25C12.9624 7.25 10.5 9.71243 10.5 12.75C10.5 15.7876 12.9624 18.25 16 18.25C19.0376 18.25 21.5 15.7876 21.5 12.75C21.5 9.71243 19.0376 7.25 16 7.25Z"
    fill="currentColor"
  />
</svg>
