<svg width="24" height="25" viewBox="0 0 24 25" fill="none" xmlns="http://www.w3.org/2000/svg" data-fui-icon="true">
  <path
    d="M12 0C14.4402 0 16.8093 1.14238 18.5586 2.86816C20.3093 4.59543 21.5 6.96722 21.5 9.5C21.5 13.0415 20.0694 16.0876 18.376 18.4551C16.6825 20.8226 14.6967 22.5542 13.5039 23.4834C12.6127 24.1776 11.3873 24.1776 10.4961 23.4834C9.30332 22.5542 7.31745 20.8226 5.62402 18.4551C3.93061 16.0876 2.5 13.0415 2.5 9.5C2.5 6.96722 3.6907 4.59543 5.44141 2.86816C7.1907 1.14238 9.55976 0 12 0ZM12 1.5C10.0221 1.5 8.01623 2.43579 6.49512 3.93652C4.97539 5.43591 4 7.43939 4 9.5C4 12.628 5.26356 15.3738 6.84375 17.583C8.42359 19.7916 10.2904 21.4214 11.418 22.2998C11.7671 22.5718 12.2329 22.5718 12.582 22.2998C13.7096 21.4214 15.5764 19.7916 17.1562 17.583C18.7364 15.3738 20 12.628 20 9.5C20 7.43939 19.0246 5.43591 17.5049 3.93652C15.9838 2.43579 13.9779 1.5 12 1.5ZM12 5C14.4853 5 16.5 7.01472 16.5 9.5C16.5 11.9853 14.4853 14 12 14C9.51472 14 7.5 11.9853 7.5 9.5C7.5 7.01472 9.51472 5 12 5ZM12 6.5C10.3431 6.5 9 7.84315 9 9.5C9 11.1569 10.3431 12.5 12 12.5C13.6569 12.5 15 11.1569 15 9.5C15 7.84315 13.6569 6.5 12 6.5Z"
    fill="currentColor"
  />
</svg>
