<svg width="32" height="32" viewBox="0 0 32 32" fill="none" xmlns="http://www.w3.org/2000/svg" data-fui-icon="true">
  <path
    d="M16 1C22.5031 1 27.75 6.33877 27.75 13C27.75 20.4047 22.547 26.5265 19.2656 29.665C17.4123 31.4374 14.5877 31.4374 12.7344 29.665C9.45299 26.5265 4.25 20.4047 4.25 13C4.25 6.33877 9.49691 1 16 1ZM16 7.25C12.9624 7.25 10.5 9.71243 10.5 12.75C10.5 15.7876 12.9624 18.25 16 18.25C19.0376 18.25 21.5 15.7876 21.5 12.75C21.5 9.71243 19.0376 7.25 16 7.25Z"
    fill="currentColor"
  />
</svg>
