<svg width="32" height="32" viewBox="0 0 32 32" fill="none" xmlns="http://www.w3.org/2000/svg" data-fui-icon="true">
  <path
    d="M16 1C22.5031 1 27.75 6.33877 27.75 13C27.75 20.4047 22.547 26.5265 19.2656 29.665C17.4123 31.4374 14.5877 31.4374 12.7344 29.665C9.45299 26.5265 4.25 20.4047 4.25 13C4.25 6.33877 9.49691 1 16 1ZM16 2.5C10.3528 2.5 5.75 7.13943 5.75 13C5.75 19.7458 10.5366 25.487 13.7715 28.5811C15.0448 29.7985 16.9552 29.7985 18.2285 28.5811C21.4634 25.487 26.25 19.7458 26.25 13C26.25 7.13943 21.6472 2.5 16 2.5ZM16 7.25C19.0376 7.25 21.5 9.71243 21.5 12.75C21.5 15.7876 19.0376 18.25 16 18.25C12.9624 18.25 10.5 15.7876 10.5 12.75C10.5 9.71243 12.9624 7.25 16 7.25ZM16 8.75C13.7909 8.75 12 10.5409 12 12.75C12 14.9591 13.7909 16.75 16 16.75C18.2091 16.75 20 14.9591 20 12.75C20 10.5409 18.2091 8.75 16 8.75Z"
    fill="currentColor"
  />
</svg>
