<svg width="32" height="32" viewBox="0 0 32 32" fill="none" xmlns="http://www.w3.org/2000/svg" data-fui-icon="true">
  <path
    d="M16 1C22.5031 1 27.75 6.33877 27.75 13C27.75 17.2567 26.03 20.9836 23.9648 23.9268C21.8989 26.871 19.4565 29.0769 17.9297 30.3086C16.7921 31.2262 15.2079 31.2262 14.0703 30.3086C12.5435 29.0769 10.1011 26.871 8.03516 23.9268C5.97002 20.9836 4.25 17.2567 4.25 13C4.25 6.33877 9.49691 1 16 1ZM16 2.5C10.3528 2.5 5.75 7.13943 5.75 13C5.75 16.8459 7.30492 20.2753 9.2627 23.0654C11.2196 25.8543 13.5484 27.9594 15.0127 29.1406C15.6006 29.6147 16.3994 29.6147 16.9873 29.1406C18.4516 27.9594 20.7804 25.8543 22.7373 23.0654C24.6951 20.2753 26.25 16.8459 26.25 13C26.25 7.13943 21.6472 2.5 16 2.5ZM16 7.25C19.0376 7.25 21.5 9.71243 21.5 12.75C21.5 15.7876 19.0376 18.25 16 18.25C12.9624 18.25 10.5 15.7876 10.5 12.75C10.5 9.71243 12.9624 7.25 16 7.25ZM16 8.75C13.7909 8.75 12 10.5409 12 12.75C12 14.9591 13.7909 16.75 16 16.75C18.2091 16.75 20 14.9591 20 12.75C20 10.5409 18.2091 8.75 16 8.75Z"
    fill="currentColor"
  />
</svg>
