<svg width="20" height="20" viewBox="0 0 20 20" fill="none" xmlns="http://www.w3.org/2000/svg" data-fui-icon="true">
  <path
    d="M10 0C13.3137 0 16 2.68629 16 6V8.21387C17.4564 8.72871 18.5 10.1173 18.5 11.75V16.25C18.5 18.3211 16.8211 20 14.75 20H5.25C3.17893 20 1.5 18.3211 1.5 16.25V11.75C1.5 10.1173 2.54359 8.72871 4 8.21387V6C4 2.68629 6.68629 0 10 0ZM5.25 9.5C4.00736 9.5 3 10.5074 3 11.75V16.25C3 17.4926 4.00736 18.5 5.25 18.5H14.75C15.9926 18.5 17 17.4926 17 16.25V11.75C17 10.5074 15.9926 9.5 14.75 9.5H5.25ZM10 1.5C7.51472 1.5 5.5 3.51472 5.5 6V8H14.5V6C14.5 3.51472 12.4853 1.5 10 1.5Z"
    fill="currentColor"
  />
</svg>
