<svg width="24" height="24" viewBox="0 0 24 24" fill="none" xmlns="http://www.w3.org/2000/svg" data-fui-icon="true">
  <path
    d="M12 1C16.4183 1 20 4.58172 20 9V10.2178C21.4817 10.9541 22.5 12.4831 22.5 14.25V18.5C22.5 20.9853 20.4853 23 18 23H6C3.51472 23 1.5 20.9853 1.5 18.5V14.25C1.5 12.4831 2.51828 10.9541 4 10.2178V9C4 4.58172 7.58172 1 12 1ZM6 11.75C4.61929 11.75 3.5 12.8693 3.5 14.25V18.5C3.5 19.8807 4.61929 21 6 21H18C19.3807 21 20.5 19.8807 20.5 18.5V14.25C20.5 12.8693 19.3807 11.75 18 11.75H6ZM12 3C8.68629 3 6 5.68629 6 9V9.75H18V9C18 5.68629 15.3137 3 12 3Z"
    fill="currentColor"
  />
</svg>
