<svg width="12" height="12" viewBox="0 0 12 12" fill="none" xmlns="http://www.w3.org/2000/svg" data-fui-icon="true">
  <path
    d="M6 0C8.20914 0 10 1.79086 10 4V5.05273C10.8898 5.50812 11.5 6.4318 11.5 7.5V9.25C11.5 10.7688 10.2688 12 8.75 12H3.25C1.73122 12 0.5 10.7688 0.5 9.25V7.5C0.5 6.4318 1.11022 5.50812 2 5.05273V4C2 1.79086 3.79086 0 6 0ZM3.25 6.75C2.83579 6.75 2.5 7.08579 2.5 7.5V9.25C2.5 9.66421 2.83579 10 3.25 10H8.75C9.16421 10 9.5 9.66421 9.5 9.25V7.5C9.5 7.08579 9.16421 6.75 8.75 6.75H3.25ZM6 2C4.89543 2 4 2.89543 4 4V4.75H8V4C8 2.89543 7.10457 2 6 2Z"
    fill="currentColor"
  />
</svg>
