<svg width="20" height="20" viewBox="0 0 20 20" fill="none" xmlns="http://www.w3.org/2000/svg" data-fui-icon="true">
  <path
    d="M10 1C12.2106 1 14.141 2.1958 15.1816 3.97559C15.4601 4.45193 15.0781 5 14.5264 5C14.223 4.9999 13.9512 4.82446 13.7871 4.56934C12.9867 3.32466 11.5898 2.5 10 2.5C7.51472 2.5 5.5 4.51472 5.5 7V8H14.75C16.8211 8 18.5 9.67893 18.5 11.75V15.25C18.5 17.3211 16.8211 19 14.75 19H5.25C3.17893 19 1.5 17.3211 1.5 15.25V11.75C1.5 10.1173 2.54359 8.72871 4 8.21387V7C4 3.68629 6.68629 1 10 1Z"
    fill="currentColor"
  />
</svg>
