<svg width="32" height="32" viewBox="0 0 32 32" fill="none" xmlns="http://www.w3.org/2000/svg" data-fui-icon="true">
  <path
    d="M16 1C21.5228 1 26 5.47715 26 11V13.707C28.0574 14.5827 29.5 16.6228 29.5 19V25.25C29.5 28.4256 26.9256 31 23.75 31H8.25C5.07436 31 2.5 28.4256 2.5 25.25V19C2.5 16.6228 3.94257 14.5827 6 13.707V11C6 5.47715 10.4772 1 16 1ZM16 3C11.5817 3 8 6.58172 8 11V13.2559C8.0829 13.2523 8.16623 13.25 8.25 13.25H23.75C23.8338 13.25 23.9171 13.2523 24 13.2559V11C24 6.58172 20.4183 3 16 3Z"
    fill="currentColor"
  />
</svg>
