<svg width="24" height="24" viewBox="0 0 24 24" fill="none" xmlns="http://www.w3.org/2000/svg" data-fui-icon="true">
  <path
    d="M12 1C14.8707 1 17.3637 2.61336 18.624 4.98242C18.8788 5.46167 18.5017 5.99976 17.959 6C17.6515 6 17.376 5.8184 17.2246 5.55078C16.1947 3.72967 14.2415 2.5 12 2.5C8.68629 2.5 6 5.18629 6 8.5V10H18.25C20.5972 10 22.5 11.9028 22.5 14.25V18.75C22.5 21.0972 20.5972 23 18.25 23H5.75C3.40279 23 1.5 21.0972 1.5 18.75V14.25C1.5 12.3378 2.76279 10.7203 4.5 10.1865V8.5C4.5 4.35786 7.85786 1 12 1ZM5.75 11.5C4.23122 11.5 3 12.7312 3 14.25V18.75C3 20.2688 4.23122 21.5 5.75 21.5H18.25C19.7688 21.5 21 20.2688 21 18.75V14.25C21 12.7312 19.7688 11.5 18.25 11.5H5.75Z"
    fill="currentColor"
  />
</svg>
