<svg width="32" height="32" viewBox="0 0 32 32" fill="none" xmlns="http://www.w3.org/2000/svg" data-fui-icon="true">
  <path
    d="M16 0C21.6609 0 26.25 4.58908 26.25 10.25V13.6699C28.4089 14.2435 29.9999 16.2104 30 18.5498V26.9502C29.9999 29.7391 27.7391 31.9999 24.9502 32H7.0498C4.26092 31.9999 2.00011 29.7391 2 26.9502V18.5498C2.00009 16.2104 3.59114 14.2435 5.75 13.6699V10.25C5.75 4.58908 10.3391 0 16 0ZM16 2C11.4437 2 7.75 5.69365 7.75 10.25V13.5H24.25V10.25C24.25 5.69365 20.5563 2 16 2Z"
    fill="currentColor"
  />
</svg>
