<svg width="12" height="12" viewBox="0 0 12 12" fill="none" xmlns="http://www.w3.org/2000/svg" data-fui-icon="true">
  <path
    d="M6 0C7.52791 0 8.82572 0.978478 9.30371 2.34082C9.44083 2.73168 9.23461 3.15975 8.84375 3.29688C8.45297 3.43391 8.02487 3.22862 7.8877 2.83789C7.61403 2.05782 6.87128 1.5 6 1.5C4.89543 1.5 4 2.39543 4 3.5V4.5H8.5498C9.9029 4.5 11 5.5971 11 6.9502V9.5498C11 10.9029 9.9029 12 8.5498 12H3.4502C2.0971 12 1 10.9029 1 9.5498V6.9502C1 5.93394 1.61862 5.06153 2.5 4.69043V3.5C2.5 1.567 4.067 0 6 0ZM3.4502 6C2.92552 6 2.5 6.42552 2.5 6.9502V9.5498C2.5 10.0745 2.92552 10.5 3.4502 10.5H8.5498C9.07448 10.5 9.5 10.0745 9.5 9.5498V6.9502C9.5 6.42552 9.07448 6 8.5498 6H3.4502Z"
    fill="currentColor"
  />
</svg>
