<svg width="16" height="16" viewBox="0 0 16 16" fill="none" xmlns="http://www.w3.org/2000/svg" data-fui-icon="true">
  <path
    d="M8.29199 1C10.0431 1.00012 11.5529 2.02948 12.252 3.51562C11.5954 3.442 10.9128 3.65561 10.4092 4.15918C9.96984 4.59852 9.75 5.17418 9.75 5.75H7.75C6.50736 5.75 5.5 6.75736 5.5 8C5.5 9.24264 6.50736 10.25 7.75 10.25H9.75C9.74999 10.8258 9.96984 11.4015 10.4092 11.8408C10.9128 12.3444 11.5953 12.5571 12.252 12.4834C11.553 13.97 10.0434 14.9999 8.29199 15H5.375C2.95875 15 1 13.0412 1 10.625V5.375C1.00001 2.95876 2.95876 1.00001 5.375 1H8.29199ZM11.4697 5.21973C11.7626 4.92683 12.2374 4.92683 12.5303 5.21973L14.7803 7.46973C15.0732 7.76262 15.0732 8.23738 14.7803 8.53027L12.5303 10.7803C12.2374 11.0732 11.7626 11.0732 11.4697 10.7803C11.1769 10.4874 11.1768 10.0126 11.4697 9.71973L12.4395 8.75H7.75C7.33579 8.75 7 8.41421 7 8C7 7.58579 7.33579 7.25 7.75 7.25H12.4395L11.4697 6.28027C11.1768 5.98738 11.1768 5.51262 11.4697 5.21973Z"
    fill="currentColor"
  />
</svg>
