<svg width="16" height="16" viewBox="0 0 16 16" fill="none" xmlns="http://www.w3.org/2000/svg" data-fui-icon="true">
  <path
    d="M7.5498 1C8.67698 0.999986 9.75862 1.4481 10.5557 2.24512L10.7803 2.46973C11.0732 2.7626 11.0731 3.23738 10.7803 3.53027C10.4874 3.82317 10.0126 3.82317 9.71973 3.53027L9.49512 3.30566C8.97939 2.78996 8.27914 2.49999 7.5498 2.5H5.25C3.73128 2.50002 2.50008 3.7313 2.5 5.25V10.75C2.5 12.2688 3.73122 13.5 5.25 13.5H7.5498C8.27915 13.5 8.97939 13.2101 9.49512 12.6943L9.71973 12.4697C10.0126 12.177 10.4874 12.177 10.7803 12.4697C11.0731 12.7626 11.0731 13.2374 10.7803 13.5303L10.5557 13.7549C9.75863 14.5519 8.67698 15 7.5498 15H5.25C2.90279 15 1 13.0972 1 10.75V5.25C1.00008 2.90288 2.90286 1.00003 5.25 1H7.5498ZM11.4697 5.21973C11.7626 4.92696 12.2374 4.92695 12.5303 5.21973L14.7803 7.46973C15.0731 7.76259 15.0731 8.23737 14.7803 8.53027L12.5303 10.7803C12.2374 11.0732 11.7626 11.0732 11.4697 10.7803C11.1769 10.4874 11.1769 10.0126 11.4697 9.71973L12.4395 8.75H7.75C7.33579 8.75 7 8.41421 7 8C7.0001 7.58587 7.33585 7.25 7.75 7.25H12.4395L11.4697 6.28027C11.1769 5.98737 11.1769 5.51259 11.4697 5.21973Z"
    fill="currentColor"
  />
</svg>
