<svg width="24" height="24" viewBox="0 0 24 24" fill="none" xmlns="http://www.w3.org/2000/svg" data-fui-icon="true">
  <path
    d="M10.25 1C11.9738 1.00012 13.6268 1.68541 14.8457 2.9043L15.4844 3.54297C15.8749 3.93349 15.8749 4.56651 15.4844 4.95703C15.0938 5.34736 14.4608 5.34749 14.0703 4.95703L13.4316 4.31836C12.5878 3.47455 11.4433 3.00012 10.25 3H7.5C5.01473 3.00001 3.00001 5.01472 3 7.5V16.5C3.00001 18.9853 5.01472 21 7.5 21H10.25C11.4433 20.9999 12.5878 20.5255 13.4316 19.6816L14.0703 19.043C14.4608 18.6525 15.0938 18.6526 15.4844 19.043C15.8749 19.4335 15.8749 20.0665 15.4844 20.457L14.8457 21.0957C13.6268 22.3146 11.9738 22.9999 10.25 23H7.5C3.91015 23 1.00001 20.0898 1 16.5V7.5C1.00001 3.91016 3.91015 1.00001 7.5 1H10.25ZM17.7217 7.47168C18.1122 7.08123 18.7452 7.08118 19.1357 7.47168L22.957 11.293C23.1445 11.4805 23.25 11.7349 23.25 12C23.2499 12.2651 23.1445 12.5196 22.957 12.707L19.1357 16.5283C18.7452 16.9187 18.1122 16.9187 17.7217 16.5283C17.3313 16.1378 17.3313 15.5048 17.7217 15.1143L19.8359 13H11.75C11.1978 13 10.7501 12.5522 10.75 12C10.7501 11.4478 11.1978 11 11.75 11H19.8359L17.7217 8.88574C17.3312 8.49526 17.3313 7.86221 17.7217 7.47168Z"
    fill="currentColor"
  />
</svg>
