<svg width="20" height="20" viewBox="0 0 20 20" fill="none" xmlns="http://www.w3.org/2000/svg" data-fui-icon="true">
  <path
    d="M8.38574 1C9.77812 1 11.1141 1.55353 12.0986 2.53809L12.5303 2.96973C12.8232 3.26262 12.8232 3.73738 12.5303 4.03027C12.2374 4.32314 11.7626 4.32316 11.4697 4.03027L11.0381 3.59863C10.3348 2.89538 9.3803 2.5 8.38574 2.5H6.25C4.17896 2.50004 2.50001 4.17895 2.5 6.25V13.75C2.50002 15.821 4.17896 17.5 6.25 17.5H8.38574C9.38029 17.5 10.3348 17.1046 11.0381 16.4014L11.4697 15.9697C11.7626 15.6768 12.2374 15.6769 12.5303 15.9697C12.8232 16.2626 12.8232 16.7374 12.5303 17.0303L12.0986 17.4619C11.1141 18.4465 9.77812 19 8.38574 19H6.25C3.35054 19 1.00002 16.6495 1 13.75V6.25C1.00001 3.35053 3.35053 1.00004 6.25 1H8.38574ZM14.6836 6.43359C14.9764 6.14103 15.4513 6.14117 15.7441 6.43359L18.7803 9.46973C18.9207 9.61027 18.9999 9.80133 19 10C18.9999 10.1987 18.9207 10.3897 18.7803 10.5303L15.7441 13.5654C15.4512 13.8582 14.9764 13.8583 14.6836 13.5654C14.3912 13.2725 14.391 12.7976 14.6836 12.5049L16.4395 10.75H9.75C9.33593 10.75 9.00022 10.414 9 10C9.00021 9.58597 9.33592 9.25 9.75 9.25H16.4395L14.6836 7.49414C14.3912 7.20128 14.391 6.72637 14.6836 6.43359Z"
    fill="currentColor"
  />
</svg>
