<svg width="24" height="24" viewBox="0 0 24 24" fill="none" xmlns="http://www.w3.org/2000/svg" data-fui-icon="true">
  <path
    d="M12.5596 1C15.3229 1.00023 17.7084 2.61649 18.8232 4.95508C17.8655 4.83851 16.8661 5.14567 16.1309 5.88086C15.3503 6.66147 15.0518 7.73977 15.2314 8.75H11.75C9.95511 8.75 8.50007 10.2051 8.5 12C8.50013 13.7948 9.95516 15.25 11.75 15.25H15.2314C15.0518 16.2603 15.3502 17.3395 16.1309 18.1201C16.8661 18.855 17.8655 19.1605 18.8232 19.0439C17.7085 21.3829 15.3231 22.9998 12.5596 23H7.93555C4.10507 23 1.00022 19.8949 1 16.0645V7.93555C1 4.10494 4.10494 1 7.93555 1H12.5596ZM17.3682 7.11816C17.954 6.53245 18.9035 6.5324 19.4893 7.11816L23.3105 10.9395C23.5917 11.2207 23.75 11.6023 23.75 12C23.7499 12.3977 23.5918 12.7793 23.3105 13.0605L19.4893 16.8818C18.9035 17.4675 17.9539 17.4675 17.3682 16.8818C16.7825 16.2961 16.7825 15.3465 17.3682 14.7607L18.6289 13.5H11.75C10.9217 13.5 10.2501 12.8283 10.25 12C10.2501 11.1716 10.9216 10.5 11.75 10.5H18.6289L17.3682 9.23926C16.7824 8.65351 16.7825 7.70396 17.3682 7.11816Z"
    fill="currentColor"
  />
</svg>
