<svg width="32" height="32" viewBox="0 0 32 32" fill="none" xmlns="http://www.w3.org/2000/svg" data-fui-icon="true">
  <path
    d="M14.1436 1C16.3313 1.00005 18.4295 1.86914 19.9766 3.41602L20.5303 3.96973C20.8232 4.26262 20.8232 4.73738 20.5303 5.03027C20.2374 5.32317 19.7626 5.32317 19.4697 5.03027L18.916 4.47656C17.6502 3.21099 15.9335 2.50005 14.1436 2.5H9.25C5.52209 2.50002 2.50002 5.52209 2.5 9.25V22.75C2.50002 26.4779 5.52209 29.5 9.25 29.5H14.1436C15.9335 29.5 17.6502 28.789 18.916 27.5234L19.4697 26.9697C19.7626 26.6768 20.2374 26.6768 20.5303 26.9697C20.8232 27.2626 20.8232 27.7374 20.5303 28.0303L19.9766 28.584C18.4295 30.1309 16.3313 31 14.1436 31H9.25C4.69366 31 1.00002 27.3063 1 22.75V9.25C1.00002 4.69366 4.69366 1.00002 9.25 1H14.1436ZM24.4697 10.2197C24.7626 9.92684 25.2374 9.92683 25.5303 10.2197L30.7803 15.4697C30.9209 15.6104 31 15.8011 31 16C31 16.1988 30.9209 16.3897 30.7803 16.5303L25.5303 21.7803C25.2374 22.0731 24.7626 22.0731 24.4697 21.7803C24.1769 21.4874 24.1769 21.0126 24.4697 20.7197L28.4395 16.75H15.75C15.3358 16.75 15.0001 16.4141 15 16C15 15.5858 15.3358 15.25 15.75 15.25H28.4395L24.4697 11.2803C24.1769 10.9874 24.1769 10.5126 24.4697 10.2197Z"
    fill="currentColor"
  />
</svg>
