<svg width="24" height="24" viewBox="0 0 24 24" fill="none" xmlns="http://www.w3.org/2000/svg" data-fui-icon="true">
  <path
    d="M10.25 1C11.9074 1.00012 13.4969 1.65906 14.6689 2.83105L15.3076 3.46973C15.6005 3.76262 15.6005 4.23738 15.3076 4.53027C15.0147 4.82294 14.5399 4.82309 14.2471 4.53027L13.6084 3.8916C12.7177 3.00091 11.5096 2.50012 10.25 2.5H7.25C4.62667 2.50004 2.50001 4.62667 2.5 7.25V16.75C2.50003 19.3733 4.62668 21.5 7.25 21.5H10.25C11.5096 21.4999 12.7177 20.9991 13.6084 20.1084L14.2471 19.4697C14.5399 19.1769 15.0147 19.177 15.3076 19.4697C15.6005 19.7626 15.6005 20.2374 15.3076 20.5303L14.6689 21.1689C13.4969 22.3409 11.9074 22.9999 10.25 23H7.25C3.79825 23 1.00003 20.2017 1 16.75V7.25C1.00001 3.79824 3.79824 1.00004 7.25 1H10.25ZM17.8984 7.64844C18.1913 7.35561 18.6661 7.35557 18.959 7.64844L22.7803 11.4697C22.9208 11.6103 23 11.8012 23 12C22.9999 12.1988 22.9208 12.3897 22.7803 12.5303L18.959 16.3516C18.6661 16.6443 18.1913 16.6443 17.8984 16.3516C17.6056 16.0587 17.6057 15.5839 17.8984 15.291L20.4395 12.75H11.75C11.3359 12.75 11.0001 12.4141 11 12C11.0001 11.5858 11.3358 11.25 11.75 11.25H20.4395L17.8984 8.70898C17.6056 8.41613 17.6057 7.94134 17.8984 7.64844Z"
    fill="currentColor"
  />
</svg>
