<svg width="13" height="12" viewBox="0 0 13 12" fill="none" xmlns="http://www.w3.org/2000/svg" data-fui-icon="true">
  <path
    d="M6.25 0C7.23882 0 8.13762 0.383399 8.80762 1.00879C8.10534 1.05369 7.41569 1.34212 6.87891 1.87891C6.55174 2.20607 6.31925 2.59101 6.1748 3H5.5C3.84315 3 2.5 4.34315 2.5 6C2.5 7.65685 3.84315 9 5.5 9H6.1748C6.31925 9.40899 6.55174 9.79393 6.87891 10.1211C7.41568 10.6579 8.10537 10.9453 8.80762 10.9902C8.13757 11.6159 7.23906 12 6.25 12H3.75C1.67893 12 0 10.3211 0 8.25V3.75C0 1.67893 1.67893 0 3.75 0H6.25ZM8.11621 3.11621C8.60437 2.62806 9.39563 2.62806 9.88379 3.11621L11.8838 5.11621C12.3719 5.60437 12.3719 6.39563 11.8838 6.88379L9.88379 8.88379C9.39563 9.37194 8.60437 9.37194 8.11621 8.88379C7.67021 8.43779 7.63297 7.73973 8.00195 7.25H5.5C4.80964 7.25 4.25 6.69036 4.25 6C4.25 5.30964 4.80964 4.75 5.5 4.75H8.00195C7.63297 4.26027 7.67021 3.56221 8.11621 3.11621Z"
    fill="currentColor"
  />
</svg>
