<svg width="24" height="24" viewBox="0 0 24 24" fill="none" xmlns="http://www.w3.org/2000/svg" data-fui-icon="true">
  <path
    d="M12.5596 1C15.7477 1.00027 18.4312 3.15197 19.2422 6.08203C18.4366 5.76991 17.4881 5.9377 16.8379 6.58789C15.9655 7.46041 15.9601 8.86997 16.8203 9.75H11.75C10.5074 9.75 9.50006 10.7574 9.5 12C9.50013 13.2425 10.5074 14.25 11.75 14.25H16.8203C15.9601 15.13 15.9654 16.5396 16.8379 17.4121C17.4882 18.0623 18.4366 18.2292 19.2422 17.917C18.4314 20.8474 15.7479 22.9997 12.5596 23H7.93555C4.10507 23 1.00022 19.8949 1 16.0645V7.93555C1 4.10494 4.10494 1 7.93555 1H12.5596ZM17.8984 7.64844C18.1913 7.35561 18.6661 7.35557 18.959 7.64844L22.7803 11.4697C22.9208 11.6103 23 11.8012 23 12C22.9999 12.1988 22.9208 12.3897 22.7803 12.5303L18.959 16.3516C18.6661 16.6443 18.1913 16.6443 17.8984 16.3516C17.6056 16.0587 17.6057 15.5839 17.8984 15.291L20.4395 12.75H11.75C11.3359 12.75 11.0001 12.4141 11 12C11.0001 11.5858 11.3358 11.25 11.75 11.25H20.4395L17.8984 8.70898C17.6056 8.41613 17.6057 7.94134 17.8984 7.64844Z"
    fill="currentColor"
  />
</svg>
