<svg
  width="16"
  height="16"
  viewBox="0 0 16 16"
  fill="none"
  xmlns="http://www.w3.org/2000/svg"
  data-fui-icon="true"
>
  <path
    fill-rule="evenodd"
    clip-rule="evenodd"
    d="M7 2.5C4.51472 2.5 2.5 4.51472 2.5 7C2.5 9.48528 4.51472 11.5 7 11.5C9.48528 11.5 11.5 9.48528 11.5 7C11.5 4.51472 9.48528 2.5 7 2.5ZM1 7C1 3.68629 3.68629 1 7 1C10.3137 1 13 3.68629 13 7C13 10.3137 10.3137 13 7 13C3.68629 13 1 10.3137 1 7Z"
    fill="currentColor"
  />
  <path
    fill-rule="evenodd"
    clip-rule="evenodd"
    d="M13.7198 14.7803L10.2137 11.2742C9.92075 10.9813 9.92075 10.5064 10.2136 10.2135C10.5065 9.92064 10.9814 9.92063 11.2743 10.2135L14.7805 13.7196C15.0734 14.0125 15.0734 14.4874 14.7805 14.7803C14.4876 15.0732 14.0127 15.0732 13.7198 14.7803Z"
    fill="currentColor"
  />
</svg>
