<svg
  width="20"
  height="20"
  viewBox="0 0 20 20"
  fill="none"
  xmlns="http://www.w3.org/2000/svg"
  data-fui-icon="true"
>
  <path
    fill-rule="evenodd"
    clip-rule="evenodd"
    d="M13.5 8.5C13.5 11.2614 11.2614 13.5 8.5 13.5C5.73858 13.5 3.5 11.2614 3.5 8.5C3.5 5.73858 5.73858 3.5 8.5 3.5C11.2614 3.5 13.5 5.73858 13.5 8.5ZM12.5353 13.596C11.4268 14.475 10.0247 15 8.5 15C4.91015 15 2 12.0899 2 8.5C2 4.91015 4.91015 2 8.5 2C12.0899 2 15 4.91015 15 8.5C15 10.0247 14.475 11.4268 13.596 12.5353L17.5303 16.4697C17.8232 16.7626 17.8232 17.2374 17.5303 17.5303C17.2374 17.8232 16.7626 17.8232 16.4697 17.5303L12.5353 13.596Z"
    fill="currentColor"
  />
</svg>
