<svg width="32" height="32" viewBox="0 0 32 32" fill="none" xmlns="http://www.w3.org/2000/svg" data-fui-icon="true">
  <path
    d="M13.501 1C20.4043 1.00014 26.0009 6.59662 26.001 13.5C26.001 16.6823 24.8097 19.5853 22.8516 21.792L30.7793 29.7197C31.0721 30.0126 31.0722 30.4874 30.7793 30.7803C30.4864 31.0731 30.0116 31.0731 29.7188 30.7803L21.79 22.8516C19.5836 24.8088 16.6823 25.9999 13.501 26C6.59742 26 1.00098 20.4036 1.00098 13.5C1.00108 6.59653 6.59748 1 13.501 1ZM13.501 2.5C7.42591 2.5 2.50108 7.42496 2.50098 13.5C2.50098 19.5751 7.42584 24.5 13.501 24.5C19.576 24.4999 24.501 19.575 24.501 13.5C24.5009 7.42505 19.5759 2.50014 13.501 2.5Z"
    fill="currentColor"
  />
</svg>
