<svg width="12" height="12" viewBox="0 0 12 12" fill="none" xmlns="http://www.w3.org/2000/svg" data-fui-icon="true">
  <path
    d="M5 0C7.76142 0 10 2.23858 10 5C10 6.11012 9.63748 7.13519 9.02539 7.96484L11.7803 10.7197C12.0732 11.0126 12.0732 11.4874 11.7803 11.7803C11.4874 12.0732 11.0126 12.0732 10.7197 11.7803L7.96484 9.02539C7.13519 9.63748 6.11012 10 5 10C2.23858 10 0 7.76142 0 5C0 2.23858 2.23858 0 5 0ZM5 1.5C3.067 1.5 1.5 3.067 1.5 5C1.5 6.933 3.067 8.5 5 8.5C5.93518 8.5 6.78328 8.13173 7.41113 7.53418C7.42897 7.51169 7.44894 7.49051 7.46973 7.46973C7.49051 7.44894 7.51169 7.42897 7.53418 7.41113C8.13173 6.78328 8.5 5.93518 8.5 5C8.5 3.067 6.933 1.5 5 1.5Z"
    fill="currentColor"
  />
</svg>
