<svg width="24" height="24" viewBox="0 0 24 24" fill="none" xmlns="http://www.w3.org/2000/svg" data-fui-icon="true">
  <path
    d="M10.0029 1.00195C14.9733 1.00219 19.0029 5.03154 19.0029 10.002C19.0029 12.0364 18.3268 13.9126 17.1885 15.4199L22.6348 20.8652C23.1227 21.3533 23.1227 22.1457 22.6348 22.6338C22.1467 23.1219 21.3544 23.1218 20.8662 22.6338L15.4209 17.1875C13.9136 18.3259 12.0374 19.0019 10.0029 19.002C5.03242 19.002 1.00302 14.9724 1.00293 10.002C1.00293 5.03139 5.03237 1.00195 10.0029 1.00195ZM10.0029 3.50195C6.41308 3.50195 3.50293 6.4121 3.50293 10.002C3.50302 13.5917 6.41313 16.502 10.0029 16.502C13.5925 16.5017 16.5028 13.5916 16.5029 10.002C16.5029 6.41225 13.5926 3.50219 10.0029 3.50195Z"
    fill="currentColor"
  />
</svg>
