<svg width="12" height="12" viewBox="0 0 12 12" fill="none" xmlns="http://www.w3.org/2000/svg" data-fui-icon="true">
  <g clip-path="url(#clip0_882_336)">
    <path
      d="M9.94219 5V3.54038C9.94219 2.82772 9.36447 2.25 8.65181 2.25H2.04037C1.32772 2.25 0.75 2.82772 0.75 3.54038V8.45963C0.75 9.17228 1.32772 9.75 2.04037 9.75H7.5"
      stroke="currentColor"
      stroke-width="1.5"
      stroke-linecap="round"
      stroke-linejoin="round"
    />
    <path
      d="M0.75 3.81836L4.32409 5.96648C4.63272 6.15197 4.98601 6.24997 5.34609 6.24997C5.70618 6.24997 6.05947 6.15197 6.3681 5.96648L9.94219 3.81836"
      stroke="currentColor"
      stroke-width="1.5"
      stroke-linecap="round"
      stroke-linejoin="round"
    />
    <path
      d="M11.8198 7.82205L10.4256 6.44589C10.2677 6.28997 10 6.40187 10 6.62381V9.37614C10 9.59809 10.2677 9.70998 10.4256 9.55406L11.8198 8.1779C11.9189 8.08001 11.9189 7.91994 11.8198 7.82205Z"
      fill="currentColor"
    />
    <path d="M8 8H10.25" stroke="currentColor" stroke-width="1.5" stroke-linecap="round" stroke-linejoin="round" />
  </g>
  <defs>
    <clipPath id="clip0_882_336"><path fill="currentColor" d="M0 0H12V12H0z" /></clipPath>
  </defs>
</svg>
