<svg width="24" height="24" viewBox="0 0 24 24" fill="none" xmlns="http://www.w3.org/2000/svg" data-fui-icon="true">
  <path
    d="M17 2C20.3137 2 23 4.68629 23 8V16C23 19.3137 20.3137 22 17 22H7C3.68629 22 1 19.3137 1 16V8C1 4.68629 3.68629 2 7 2H17ZM13.3604 13.1064C12.4983 13.5114 11.5007 13.5116 10.6387 13.1064L3 9.5166V16C3 18.2091 4.79086 20 7 20H17C19.2091 20 21 18.2091 21 16V9.51562L13.3604 13.1064ZM7 4C5.00995 4 3.35959 5.4533 3.05176 7.35645C3.12179 7.37214 3.19115 7.39598 3.25879 7.42773L11.4893 11.2969C11.8124 11.4487 12.1866 11.4485 12.5098 11.2969L20.7412 7.42773C20.8084 7.39617 20.8777 7.37313 20.9473 7.35742C20.6398 5.45388 18.9903 4 17 4H7Z"
    fill="currentColor"
  />
</svg>
