<svg width="24" height="24" viewBox="0 0 24 24" fill="none" xmlns="http://www.w3.org/2000/svg" data-fui-icon="true">
  <path
    d="M11.5098 1.12177C11.7215 0.983511 11.989 0.960897 12.2207 1.0622L17.1914 3.23701C17.4641 3.35648 17.6405 3.62674 17.6406 3.92451C17.6405 4.22219 17.464 4.49151 17.1914 4.61103L12.6699 6.58857V7.9997H17.251C20.4265 7.9998 23.0009 10.5742 23.001 13.7497V20.4987C23.0009 21.8793 21.8816 22.9986 20.501 22.9987H3.5C2.11933 22.9987 1.00006 21.8794 1 20.4987V13.7497C1.00008 10.6273 3.48877 8.08785 6.59082 8.00361C6.61674 8.00089 6.64328 7.99971 6.66992 7.9997H11.1699V1.7497C11.17 1.49669 11.298 1.26027 11.5098 1.12177ZM6.75 9.4997C4.40284 9.4997 2.50008 11.4026 2.5 13.7497V20.4987C2.50006 21.051 2.94775 21.4987 3.5 21.4987H6.60547V21.4977H11V13.7497C10.9999 11.4026 9.09707 9.4998 6.75 9.4997ZM10.6221 9.4997C11.7756 10.5513 12.5 12.0658 12.5 13.7497V21.4987H20.501C21.0531 21.4986 21.5009 21.0509 21.501 20.4987V13.7497C21.5009 11.4026 19.5981 9.4998 17.251 9.4997H10.6221ZM8 17.4997C8.41404 17.4998 8.74987 17.8357 8.75 18.2497C8.75 18.6639 8.41412 18.9996 8 18.9997H5.5C5.08579 18.9997 4.75 18.6639 4.75 18.2497C4.75013 17.8356 5.08587 17.4997 5.5 17.4997H8ZM12.6699 4.95185L15.0186 3.92353L12.6699 2.89619V4.95185Z"
    fill="currentColor"
  />
</svg>
