<svg width="24" height="24" viewBox="0 0 24 24" fill="none" xmlns="http://www.w3.org/2000/svg" data-fui-icon="true">
  <path
    d="M16.25 1C19.9779 1 23 4.02208 23 7.75V16.25C23 19.9779 19.9779 23 16.25 23H7.75C4.02208 23 1 19.9779 1 16.25V7.75C1 4.02208 4.02208 1 7.75 1H16.25ZM13.3604 13.1064C12.4983 13.5114 11.5007 13.5116 10.6387 13.1064L3 9.5166V16.25C3 18.8734 5.12665 21 7.75 21H16.25C18.8734 21 21 18.8734 21 16.25V9.51562L13.3604 13.1064ZM7.75 3C5.26119 3 3.22046 4.91418 3.01758 7.35059C3.09912 7.36589 3.18024 7.39086 3.25879 7.42773L11.4893 11.2969C11.8124 11.4487 12.1866 11.4485 12.5098 11.2969L20.7412 7.42773C20.8194 7.39102 20.9003 7.36593 20.9814 7.35059C20.7785 4.91422 18.7388 3 16.25 3H7.75Z"
    fill="currentColor"
  />
</svg>
