<svg width="20" height="20" viewBox="0 0 20 20" fill="none" xmlns="http://www.w3.org/2000/svg" data-fui-icon="true">
  <path
    d="M10.1602 1.12226C10.3719 0.984071 10.6394 0.961335 10.8711 1.06269L14.8711 2.81269C15.1439 2.93217 15.3203 3.20232 15.3203 3.50019C15.3203 3.79806 15.1439 4.0682 14.8711 4.18769L11.3203 5.73945V6.25117C11.4019 6.32131 11.4925 6.40518 11.5859 6.50019H14.248C16.8713 6.50033 18.998 8.62693 18.998 11.2502V16.9973C18.9978 18.1015 18.1023 18.9971 16.998 18.9973H12V11.2502C11.9999 9.34864 11.1495 7.64652 9.80957 6.50019H9.82031V1.75019C9.82032 1.4971 9.94834 1.26079 10.1602 1.12226ZM5.75 6.50019C8.37327 6.50019 10.4999 8.62695 10.5 11.2502V18.9963H3C1.8955 18.9963 1.00011 18.1008 1 16.9963V11.2502C1.00013 8.62695 3.12673 6.50019 5.75 6.50019ZM4.75 14.1984C4.33579 14.1984 4 14.5342 4 14.9484C4.00038 15.3623 4.33602 15.6984 4.75 15.6984H6.75C7.16398 15.6984 7.49962 15.3623 7.5 14.9484C7.5 14.5342 7.16421 14.1984 6.75 14.1984H4.75Z"
    fill="currentColor"
  />
</svg>
