<svg width="16" height="16" viewBox="0 0 16 16" fill="none" xmlns="http://www.w3.org/2000/svg" data-fui-icon="true">
  <path
    fill-rule="evenodd"
    clip-rule="evenodd"
    d="M12.2451 2C14.3162 2 15.9951 3.67893 15.9951 5.75V10.25C15.9951 12.3211 14.3162 14 12.2451 14H3.75C1.67905 13.9999 0 12.321 0 10.25V5.75C0 3.67902 1.67905 2.00013 3.75 2H12.2451ZM8.89453 9.125C8.31904 9.35683 7.67605 9.35691 7.10059 9.125L2 7.06934V10.25C2 11.2164 2.78362 11.9999 3.75 12H12.2451C13.2116 12 13.9951 11.2165 13.9951 10.25V7.06934L8.89453 9.125ZM3.75 4C3.05842 4.0001 2.46182 4.40198 2.17773 4.98438L7.84766 7.27051C7.9435 7.30913 8.05159 7.30907 8.14746 7.27051L13.8164 4.98438C13.5322 4.40222 12.9366 4 12.2451 4H3.75Z"
    fill="currentColor"
  />
</svg>
