<svg width="16" height="16" viewBox="0 0 16 16" fill="none" xmlns="http://www.w3.org/2000/svg" data-fui-icon="true">
  <path
    d="M8.73926 1.14453C8.93337 1.00356 9.18295 0.964079 9.41113 1.03809L12.043 1.89258C12.3548 1.99395 12.5641 2.28643 12.5605 2.61426C12.5567 2.94217 12.3405 3.22998 12.0264 3.32422L9.92969 3.95313V5H11.25C13.3211 5 15 6.67894 15 8.75V13.249C15 14.2155 14.2165 14.999 13.25 14.999H2.75C1.7837 14.9988 1.00004 14.2154 1 13.249V8.75C1.00003 6.67896 2.67895 5 4.75 5H8.42969V1.75098C8.42969 1.51103 8.54522 1.28566 8.73926 1.14453ZM4.75 6.5C3.50738 6.5 2.50003 7.50738 2.5 8.75V13.249C2.50004 13.3869 2.61213 13.4988 2.75 13.499H7V8.75C6.99997 7.50738 5.99262 6.5 4.75 6.5ZM7.75 6.5C8.22083 7.12676 8.49999 7.90574 8.5 8.75V13.499H13.25C13.388 13.499 13.5 13.3871 13.5 13.249V8.75C13.5 7.50736 12.4926 6.5 11.25 6.5H7.75ZM5.5 11C5.91421 11 6.24999 11.3358 6.25 11.75C6.25 12.1642 5.91421 12.5 5.5 12.5H4C3.58579 12.5 3.25 12.1642 3.25 11.75C3.25001 11.3358 3.58579 11 4 11H5.5Z"
    fill="currentColor"
  />
</svg>
