<svg width="12" height="12" viewBox="0 0 12 12" fill="none" xmlns="http://www.w3.org/2000/svg" data-fui-icon="true">
  <path
    d="M9.74023 1C10.9882 1.00013 11.9999 2.01179 12 3.25977V8.74023C11.9999 9.98821 10.9882 10.9999 9.74023 11H2.25977C1.01179 10.9999 0.000126514 9.98821 0 8.74023V3.25977C0.000126901 2.01179 1.01179 1.00013 2.25977 1H9.74023ZM8.3125 6.3125C7.62474 6.76121 6.8212 7 6 7C5.1788 7 4.37526 6.76121 3.6875 6.3125L1.5 4.88477V8.74023C1.50013 9.15978 1.84021 9.49987 2.25977 9.5H9.74023C10.1598 9.49987 10.4999 9.15978 10.5 8.74023V4.88477L8.3125 6.3125ZM2.25977 2.5C1.89374 2.50011 1.58771 2.75888 1.51562 3.10352L4.50684 5.05566C4.95087 5.3454 5.4698 5.5 6 5.5C6.5302 5.5 7.04913 5.3454 7.49316 5.05566L10.4834 3.10352C10.4112 2.75897 10.1062 2.50011 9.74023 2.5H2.25977Z"
    fill="currentColor"
  />
</svg>
