<svg width="32" height="32" viewBox="0 0 32 32" fill="none" xmlns="http://www.w3.org/2000/svg" data-fui-icon="true">
  <path
    d="M9 10.0002C13.4183 10.0002 17 13.582 17 18.0002V31.0002H4.5C2.56708 31.0002 1.00012 29.4331 1 27.5002V18.0002C1 13.582 4.58172 10.0002 9 10.0002ZM15.4531 1.16332C15.7354 0.978868 16.0914 0.949166 16.4004 1.08422L23.3105 4.10668C23.6743 4.26591 23.909 4.62563 23.9092 5.0227C23.9092 5.41994 23.6745 5.78042 23.3105 5.93969L17 8.69946V9.00024L17.1641 9.13598C17.3726 9.31245 17.745 9.64142 18.0801 9.99926H23C27.4182 9.99926 30.9999 13.5821 31 18.0002V27.5002C30.9997 29.433 29.4328 31.0002 27.5 31.0002H19V18.0002C18.9999 14.7292 17.4292 11.8249 15.001 10.0002H15V2.00024C15 1.66277 15.1707 1.34804 15.4531 1.16332ZM6.75 24.0002C6.1978 24.0002 5.75013 24.4481 5.75 25.0002C5.75012 25.5524 6.19779 26.0002 6.75 26.0002H11.25C11.8022 26.0002 12.2499 25.5524 12.25 25.0002C12.2499 24.4481 11.8022 24.0002 11.25 24.0002H6.75Z"
    fill="currentColor"
  />
</svg>
