<svg width="20" height="20" viewBox="0 0 20 20" fill="none" xmlns="http://www.w3.org/2000/svg" data-fui-icon="true">
  <path
    fill-rule="evenodd"
    clip-rule="evenodd"
    d="M14.998 2C17.7595 2 19.998 4.23858 19.998 7V13C19.998 15.7614 17.7595 18 14.998 18H5C2.23864 17.9999 0 15.7614 0 13V7C0 4.23863 2.23864 2.00008 5 2H14.998ZM2 13C2 14.6568 3.34321 15.9999 5 16H14.998C16.6549 16 17.998 14.6569 17.998 13V8.2666L11.0791 11.1582C10.3887 11.4465 9.61129 11.4465 8.9209 11.1582L2 8.26562V13ZM5 4C3.63872 4.00007 2.48979 4.90697 2.12305 6.14941L9.69141 9.3125C9.88871 9.39489 10.1113 9.39493 10.3086 9.3125L17.874 6.15039C17.5074 4.90761 16.3596 4 14.998 4H5Z"
    fill="currentColor"
  />
</svg>
