<svg width="32" height="32" viewBox="0 0 32 32" fill="none" xmlns="http://www.w3.org/2000/svg" data-fui-icon="true">
  <path
    d="M31 24C31 26.2091 29.2091 28 27 28H5C2.79086 28 1 26.2091 1 24V10.4639L12.3203 18.1221C13.4068 18.857 14.6883 19.25 16 19.25C17.3117 19.25 18.5932 18.857 19.6797 18.1221L31 10.4639V24ZM27 4C29.2091 4 31 5.79086 31 8V8.0498L18.5596 16.4658C17.804 16.977 16.9123 17.25 16 17.25C15.0877 17.25 14.196 16.977 13.4404 16.4658L1 8.0498V8C1 5.79086 2.79086 4 5 4H27Z"
    fill="currentColor"
  />
</svg>
