<svg width="24" height="24" viewBox="0 0 24 24" fill="none" xmlns="http://www.w3.org/2000/svg" data-fui-icon="true">
  <path
    d="M7 8.00023C10.3137 8.00023 13 10.6865 13 14.0002V23.0002H3.75C2.23135 23.0002 1.00021 21.7688 1 20.2502V14.0002C1 10.6865 3.68629 8.00023 7 8.00023ZM12.7529 1.16332C13.0352 0.978863 13.3912 0.949173 13.7002 1.08421L18.6709 3.25902C19.0349 3.41827 19.2705 3.77773 19.2705 4.17503C19.2703 4.57212 19.0347 4.9319 18.6709 5.09105L14.2998 7.00218V7.25511C14.5138 7.44145 14.811 7.71059 15.082 8.00023H17C20.3137 8.00023 22.9999 10.6866 23 14.0002V20.2493C22.9997 21.7678 21.7686 22.9993 20.25 22.9993H15V14.0002C15 11.6103 13.9506 9.46638 12.2891 8.00023H12.2998V2.00023C12.2998 1.66287 12.4707 1.34806 12.7529 1.16332ZM5.5 17.2502C4.94772 17.2502 4.5 17.6979 4.5 18.2502C4.50021 18.8023 4.94784 19.2502 5.5 19.2502H8.5C9.05216 19.2502 9.49979 18.8023 9.5 18.2502C9.5 17.6979 9.05228 17.2502 8.5 17.2502H5.5Z"
    fill="currentColor"
  />
</svg>
