<svg width="20" height="20" viewBox="0 0 20 20" fill="none" xmlns="http://www.w3.org/2000/svg" data-fui-icon="true">
  <path
    d="M14.25 2C16.8734 2 19 4.12665 19 6.75V13.25C19 15.8734 16.8734 18 14.25 18H5.75C3.12665 18 1 15.8734 1 13.25V6.75C1 4.12665 3.12665 2 5.75 2H14.25ZM11.0283 10.8916C10.3733 11.1802 9.6267 11.1802 8.97168 10.8916L2.5 8.04004V13.25C2.5 15.0449 3.95507 16.5 5.75 16.5H14.25C16.0449 16.5 17.5 15.0449 17.5 13.25V8.04004L11.0283 10.8916ZM5.75 3.5C4.07051 3.5 2.68838 4.77392 2.51758 6.4082L9.57617 9.51855C9.8459 9.63741 10.1531 9.6374 10.4229 9.51855L17.4814 6.4082C17.3106 4.77397 15.9295 3.5 14.25 3.5H5.75Z"
    fill="currentColor"
  />
</svg>
