<svg width="16" height="16" viewBox="0 0 16 16" fill="none" xmlns="http://www.w3.org/2000/svg" data-fui-icon="true">
  <path
    fill-rule="evenodd"
    clip-rule="evenodd"
    d="M12.498 2C14.431 2.00003 15.998 3.56702 15.998 5.5V10.5C15.998 12.433 14.431 14 12.498 14H3.5C1.567 14 0 12.433 0 10.5V5.5C1.28872e-07 3.567 1.567 2 3.5 2H12.498ZM8.75879 8.92285C8.26912 9.10796 7.72801 9.10778 7.23828 8.92285L1.5 6.75293V10.5C1.5 11.6046 2.39543 12.5 3.5 12.5H12.498C13.6026 12.5 14.498 11.6045 14.498 10.5V6.75195L8.75879 8.92285ZM3.5 3.5C2.51104 3.5 1.69136 4.2181 1.53027 5.16113L7.76855 7.51953C7.91653 7.57532 8.08058 7.57546 8.22852 7.51953L14.4668 5.16113C14.3057 4.21818 13.4869 3.50003 12.498 3.5H3.5Z"
    fill="currentColor"
  />
</svg>
