<svg width="12" height="12" viewBox="0 0 12 12" fill="none" xmlns="http://www.w3.org/2000/svg" data-fui-icon="true">
  <path
    d="M12 8C12 10.2091 10.2091 12 8 12H4C1.79086 12 0 10.2091 0 8V4.88281L4.94922 7.23438C5.61425 7.55016 6.38575 7.55016 7.05078 7.23438L12 4.88281V8ZM8 0C9.60452 0 10.9877 0.945048 11.625 2.30859C11.5707 2.32575 11.5167 2.34599 11.4639 2.37109L6 4.96582L0.536133 2.37109C0.48298 2.34585 0.428591 2.3258 0.374023 2.30859C1.01126 0.944846 2.39534 0 4 0H8Z"
    fill="currentColor"
  />
</svg>
