<svg width="32" height="32" viewBox="0 0 32 32" fill="none" xmlns="http://www.w3.org/2000/svg" data-fui-icon="true">
  <path
    d="M24.499 3C28.6412 3 31.999 6.35787 31.999 10.5V21.5C31.999 25.6421 28.6412 29 24.499 29H7.5C3.35798 28.9999 0 25.6421 0 21.5V10.5C0 6.35795 3.35798 3.00013 7.5 3H24.499ZM17.6123 17.2568C16.5846 17.7097 15.4134 17.7098 14.3857 17.2568L2 11.7969V21.5C2 24.5375 4.46255 26.9999 7.5 27H24.499C27.5366 27 29.999 24.5376 29.999 21.5V11.7969L17.6123 17.2568ZM7.5 5C4.75453 5.00012 2.47853 7.0118 2.06641 9.6416L15.1924 15.4268C15.7061 15.6532 16.2919 15.6531 16.8057 15.4268L29.9316 9.64062C29.519 7.01132 27.2442 5 24.499 5H7.5Z"
    fill="currentColor"
  />
</svg>
