<svg width="12" height="12" viewBox="0 0 12 12" fill="none" xmlns="http://www.w3.org/2000/svg" data-fui-icon="true">
  <path
    d="M8.25 0C10.321 0.000129683 12 1.67901 12 3.75V8.25C12 10.321 10.321 11.9999 8.25 12H3.75C1.67893 12 0 10.3211 0 8.25V3.75C0 1.67893 1.67893 1.28851e-07 3.75 0H8.25ZM6.7832 6.8252C6.28412 7.04402 5.71588 7.04401 5.2168 6.8252L1.5 5.19434V8.25C1.5 9.49264 2.50736 10.5 3.75 10.5H8.25C9.49253 10.4999 10.5 9.49256 10.5 8.25V5.19434L6.7832 6.8252ZM3.75 1.5C2.61995 1.5 1.68661 2.33343 1.52637 3.41895L5.80859 5.43164C5.92973 5.48846 6.0703 5.48852 6.19141 5.43164L10.4727 3.41895C10.3124 2.33354 9.37992 1.50012 8.25 1.5H3.75Z"
    fill="currentColor"
  />
</svg>
