<svg width="12" height="12" viewBox="0 0 12 12" fill="none" xmlns="http://www.w3.org/2000/svg" data-fui-icon="true">
  <path
    d="M9 1C10.6567 1.00013 12 2.34323 12 4V8C12 9.65677 10.6567 10.9999 9 11H3C1.34315 11 0 9.65685 0 8V4C0 2.34315 1.34315 1 3 1H9ZM6.7832 6.8252C6.28412 7.04402 5.71588 7.04401 5.2168 6.8252L1.5 5.19434V8C1.5 8.82843 2.17157 9.5 3 9.5H9C9.82832 9.49987 10.5 8.82835 10.5 8V5.19434L6.7832 6.8252ZM3 2.5C2.36422 2.5 1.82088 2.89567 1.60254 3.4541L5.80859 5.43164C5.92973 5.48846 6.0703 5.48852 6.19141 5.43164L10.3955 3.4541C10.1771 2.896 9.63549 2.5001 9 2.5H3Z"
    fill="currentColor"
  />
</svg>
