<svg width="16" height="16" viewBox="0 0 16 16" fill="none" xmlns="http://www.w3.org/2000/svg" data-fui-icon="true">
  <path
    d="M16 12.25C16 13.2165 15.2165 14 14.25 14H1.75C0.783502 14 0 13.2165 0 12.25V5.20508L5.68555 9.25977C6.36108 9.74139 7.17036 10 8 10C8.82964 10 9.63892 9.74139 10.3145 9.25977L16 5.20508V12.25ZM14.25 2C15.093 2 15.7968 2.59602 15.9629 3.38965L9.44336 8.03809C9.02201 8.33848 8.51746 8.5 8 8.5C7.48254 8.5 6.97798 8.33848 6.55664 8.03809L0.0361328 3.38965C0.202177 2.59593 0.906954 2 1.75 2H14.25Z"
    fill="currentColor"
  />
</svg>
