<svg width="12" height="12" viewBox="0 0 12 12" fill="none" xmlns="http://www.w3.org/2000/svg" data-fui-icon="true">
  <path
    d="M12 9.25C12 10.2165 11.2165 11 10.25 11H1.75C0.783502 11 0 10.2165 0 9.25V3.88867L3.6875 6.30859C4.37457 6.75945 5.17821 7 6 7C6.82179 7 7.62543 6.75945 8.3125 6.30859L12 3.88867V9.25ZM10.25 1C11.0103 1 11.655 1.4857 11.8965 2.16309L7.49023 5.05469C7.04763 5.34514 6.5294 5.5 6 5.5C5.4706 5.5 4.95237 5.34514 4.50977 5.05469L0.102539 2.16309C0.343935 1.48554 0.989578 1 1.75 1H10.25Z"
    fill="currentColor"
  />
</svg>
