<svg width="32" height="32" viewBox="0 0 32 32" fill="none" xmlns="http://www.w3.org/2000/svg" data-fui-icon="true">
  <path
    d="M23.5 3C27.6421 3 31 6.35786 31 10.5V21.5C31 25.6421 27.6421 29 23.5 29H8.5C4.35786 29 1 25.6421 1 21.5V10.5C1 6.35786 4.35786 3 8.5 3H23.5ZM17.708 17.1748C16.6267 17.6854 15.3733 17.6854 14.292 17.1748L3 11.8418V21.5C3 24.5376 5.46243 27 8.5 27H23.5C26.5376 27 29 24.5376 29 21.5V11.8418L17.708 17.1748ZM8.5 5C5.74797 5 3.4678 7.0212 3.06348 9.66016L15.1455 15.3662C15.6862 15.6215 16.3138 15.6215 16.8545 15.3662L28.9355 9.66016C28.5312 7.02128 26.252 5 23.5 5H8.5Z"
    fill="currentColor"
  />
</svg>
