<svg width="20" height="20" viewBox="0 0 20 20" fill="none" xmlns="http://www.w3.org/2000/svg" data-fui-icon="true">
  <path
    d="M15.249 2C17.8723 2.00004 19.999 4.12667 19.999 6.75V13.25C19.999 15.8733 17.8723 18 15.249 18H4.75C2.12679 17.9998 0 15.8733 0 13.25V6.75C2.57696e-07 4.12675 2.12679 2.00017 4.75 2H15.249ZM10.9326 10.9639C10.3332 11.1994 9.6668 11.1994 9.06738 10.9639L1.5 7.99023V13.25C1.5 15.0448 2.95522 16.4998 4.75 16.5H15.249C17.0439 16.5 18.499 15.0449 18.499 13.25V7.99023L10.9326 10.9639ZM4.75 3.5C3.07835 3.50015 1.70156 4.76238 1.52051 6.38574L9.61621 9.56836C9.86281 9.66512 10.1372 9.66517 10.3838 9.56836L18.4785 6.38672C18.2979 4.76284 16.9211 3.50004 15.249 3.5H4.75Z"
    fill="currentColor"
  />
</svg>
