<svg width="20" height="20" viewBox="0 0 20 20" fill="none" xmlns="http://www.w3.org/2000/svg" data-fui-icon="true">
  <path
    d="M14 6.00068C16.7612 6.00089 19 8.23938 19 11.0007V16.7507C18.9998 17.993 17.9923 19.0005 16.75 19.0007H3.25C2.00748 19.0007 1.0002 17.9931 1 16.7507V11.0007C1 8.41235 2.96672 6.28279 5.4873 6.02607C5.55884 6.00982 5.63351 6.00068 5.70996 6.00068H10.9004V2.00068C10.9004 1.68837 11.0464 1.39387 11.2949 1.20478C11.5437 1.01574 11.8669 0.953256 12.168 1.03681L15.7676 2.03681C16.2002 2.15698 16.4997 2.55074 16.5 2.9997C16.5 3.44891 16.2004 3.84332 15.7676 3.96357L12.9004 4.75947V6.00068H14ZM6 8.00068C4.34315 8.00068 3 9.34383 3 11.0007V16.7507C3.0002 16.8886 3.11205 17.0007 3.25 17.0007H5.90723V16.9968H9V11.0007C9 9.34383 7.65685 8.00068 6 8.00068ZM10.001 8.00068C10.6284 8.83625 11 9.87531 11 11.0007V17.0007H16.75C16.8878 17.0005 16.9998 16.8885 17 16.7507V11.0007C17 9.34396 15.6567 8.00089 14 8.00068H10.001ZM7 13.9479C7.55228 13.9479 8 14.3957 8 14.9479C7.99998 15.5002 7.55227 15.9479 7 15.9479H5C4.44773 15.9479 4.00002 15.5002 4 14.9479C4 14.3957 4.44772 13.9479 5 13.9479H7Z"
    fill="currentColor"
  />
</svg>
