<svg width="20" height="20" viewBox="0 0 20 20" fill="none" xmlns="http://www.w3.org/2000/svg" data-fui-icon="true">
  <path
    d="M20 16C20 17.1046 19.1046 18 18 18H2C0.895431 18 0 17.1046 0 16V7.16699L7.39062 12.1963C8.16005 12.7198 9.06934 13 10 13C10.9307 13 11.8399 12.7198 12.6094 12.1963L20 7.16699V16ZM18 2C19.1046 2 20 2.89543 20 4V5.35254L11.7656 10.9561C11.245 11.3103 10.6297 11.5 10 11.5C9.37032 11.5 8.75496 11.3103 8.23438 10.9561L0 5.35254V4C0 2.89543 0.895431 2 2 2H18Z"
    fill="currentColor"
  />
</svg>
