<svg width="12" height="12" viewBox="0 0 12 12" fill="none" xmlns="http://www.w3.org/2000/svg" data-fui-icon="true">
  <path
    d="M3 3.00048C4.65685 3.00048 6 4.34363 6 6.00048V11.0005H1.5C0.671691 11.0005 0.000192084 10.3287 0 9.50048V6.00048C0 4.34363 1.34315 3.00048 3 3.00048ZM6.65918 0.144038C6.85328 0.00307425 7.10288 -0.0364031 7.33105 0.0375925L9.33105 0.687007C9.64293 0.788367 9.8532 1.08079 9.84961 1.40869C9.8457 1.73643 9.62933 2.02432 9.31543 2.11865L7.84961 2.5581V2.99951H8.75C10.5447 2.99951 11.9996 4.45488 12 6.24951V9.49951C12 10.3279 11.3284 10.9995 10.5 10.9995H7.5V5.99951C7.49984 4.84743 7.0667 3.79647 6.35449 3.00048H6.34961V0.750483C6.34961 0.51058 6.46521 0.285172 6.65918 0.144038ZM2.75 7.50048C2.33579 7.50048 2 7.83627 2 8.25048C2.00019 8.66453 2.3359 9.00048 2.75 9.00048H3.25C3.66409 9.00048 3.99981 8.66453 4 8.25048C4 7.83627 3.66421 7.50048 3.25 7.50048H2.75Z"
    fill="currentColor"
  />
</svg>
