<svg width="32" height="32" viewBox="0 0 32 32" fill="none" xmlns="http://www.w3.org/2000/svg" data-fui-icon="true">
  <path
    d="M23.75 3C27.7541 3 31 6.24594 31 10.25V21.75C31 25.7541 27.7541 29 23.75 29H8.25C4.24594 29 1 25.7541 1 21.75V10.25C1 6.24594 4.24594 3 8.25 3H23.75ZM17.5029 17.0361C16.5447 17.4553 15.4543 17.4554 14.4961 17.0361L2.5 11.7871V21.75C2.5 24.9256 5.07436 27.5 8.25 27.5H23.75C26.9256 27.5 29.5 24.9256 29.5 21.75V11.7871L17.5029 17.0361ZM8.25 4.5C5.10764 4.5 2.55512 7.02071 2.50195 10.1504L15.0977 15.6621C15.6725 15.9136 16.3265 15.9136 16.9014 15.6621L29.4971 10.1504C29.4439 7.02072 26.8924 4.5 23.75 4.5H8.25Z"
    fill="currentColor"
  />
</svg>
