<svg width="24" height="24" viewBox="0 0 24 24" fill="none" xmlns="http://www.w3.org/2000/svg" data-fui-icon="true">
  <path
    d="M24 18C24 19.6569 22.6569 21 21 21H3C1.34315 21 0 19.6569 0 18V8.44043L8.97754 14.3457C9.8749 14.9359 10.9259 15.25 12 15.25C13.0741 15.25 14.1251 14.9359 15.0225 14.3457L24 8.44043V18ZM21 3C22.6569 3 24 4.34315 24 6V6.04492L13.9229 12.6738C13.3518 13.0494 12.6834 13.25 12 13.25C11.3166 13.25 10.6482 13.0494 10.0771 12.6738L0 6.04492V6C2.57702e-07 4.34315 1.34315 3 3 3H21Z"
    fill="currentColor"
  />
</svg>
