<svg width="24" height="24" viewBox="0 0 24 24" fill="none" xmlns="http://www.w3.org/2000/svg" data-fui-icon="true">
  <path
    d="M18.249 2C21.4247 2 23.999 4.57436 23.999 7.75V16.25C23.999 19.4256 21.4247 22 18.249 22H5.75C2.5745 21.9998 0 19.4255 0 16.25V7.75C2.57703e-07 4.57446 2.5745 2.00016 5.75 2H18.249ZM1.5 16.25C1.5 18.5971 3.40293 20.4998 5.75 20.5H18.249C20.5962 20.5 22.499 18.5972 22.499 16.25V9.23438L13.0996 13.0088C12.3943 13.2919 11.6067 13.291 10.9014 13.0078L1.5 9.2334V16.25ZM5.75 3.5C3.44606 3.50016 1.57108 5.33363 1.50293 7.62109C1.51819 7.6261 1.53371 7.63066 1.54883 7.63672L11.46 11.6162C11.8066 11.7554 12.1943 11.7553 12.541 11.6162L22.4531 7.63672C22.4672 7.63107 22.4819 7.62681 22.4961 7.62207C22.4284 5.33406 20.5534 3.5 18.249 3.5H5.75Z"
    fill="currentColor"
  />
</svg>
