<svg width="20" height="20" viewBox="0 0 20 20" fill="none" xmlns="http://www.w3.org/2000/svg" data-fui-icon="true">
  <path
    d="M17 15.2501C17.4142 15.2501 17.75 15.5859 17.75 16.0001C17.75 16.4142 17.4142 16.75 17 16.7501H3C2.58581 16.7501 2.25003 16.4142 2.25 16.0001C2.25 15.5858 2.58579 15.2501 3 15.2501H17ZM17 9.25006C17.4142 9.25009 17.75 9.58586 17.75 10.0001C17.75 10.4142 17.4142 10.75 17 10.7501H3C2.58581 10.7501 2.25003 10.4142 2.25 10.0001C2.25 9.58584 2.58579 9.25006 3 9.25006H17ZM6.71973 1.21978C7.01262 0.92689 7.48738 0.92689 7.78027 1.21978C8.07311 1.51268 8.07315 1.98746 7.78027 2.28033L3.53027 6.53033C3.2374 6.8232 2.76262 6.82317 2.46973 6.53033L0.469727 4.53033C0.176833 4.23744 0.176833 3.76268 0.469727 3.46978C0.76262 3.17689 1.23738 3.17689 1.53027 3.46978L3 4.93951L6.71973 1.21978ZM17 3.25006C17.4142 3.25009 17.75 3.58586 17.75 4.00006C17.75 4.41423 17.4142 4.75003 17 4.75006H11C10.5858 4.75006 10.25 4.41424 10.25 4.00006C10.25 3.58584 10.5858 3.25006 11 3.25006H17Z"
    fill="currentColor"
  />
</svg>
