<svg width="12" height="12" viewBox="0 0 12 12" fill="none" xmlns="http://www.w3.org/2000/svg" data-fui-icon="true">
  <path
    d="M11 10.2501C11.4142 10.2501 11.75 10.5859 11.75 11.0001C11.7499 11.4143 11.4142 11.7501 11 11.7501H1C0.585826 11.7501 0.250063 11.4143 0.25 11.0001C0.25 10.5859 0.585786 10.2501 1 10.2501H11ZM11 6.25012C11.4142 6.25012 11.75 6.5859 11.75 7.00012C11.7499 7.41428 11.4142 7.75012 11 7.75012H1C0.585826 7.75012 0.250064 7.41428 0.25 7.00012C0.25 6.5859 0.585786 6.25012 1 6.25012H11ZM4.21973 1.09973C4.51262 0.806836 4.98738 0.806836 5.28027 1.09973C5.57317 1.39262 5.57316 1.86738 5.28027 2.16027L2.53027 4.91027C2.23738 5.20317 1.76262 5.20317 1.46973 4.91027L0.469727 3.91027C0.176836 3.61738 0.176834 3.14262 0.469727 2.84973C0.762619 2.55684 1.23738 2.55684 1.53027 2.84973L2 3.31945L4.21973 1.09973ZM11 2.25012C11.4142 2.25012 11.75 2.5859 11.75 3.00012C11.7499 3.41428 11.4142 3.75012 11 3.75012H7C6.58583 3.75012 6.25006 3.41428 6.25 3.00012C6.25 2.5859 6.58579 2.25012 7 2.25012H11Z"
    fill="currentColor"
  />
</svg>
