<svg width="16" height="16" viewBox="0 0 16 16" fill="none" xmlns="http://www.w3.org/2000/svg" data-fui-icon="true">
  <path
    d="M14 13.2501C14.4142 13.2501 14.75 13.5858 14.75 14.0001C14.75 14.4142 14.4142 14.7501 14 14.7501H2C1.58581 14.7501 1.25003 14.4142 1.25 14.0001C1.25 13.5858 1.58579 13.2501 2 13.2501H14ZM14 8.25006C14.4142 8.25006 14.75 8.58584 14.75 9.00006C14.75 9.41424 14.4142 9.75006 14 9.75006H2C1.58581 9.75006 1.25003 9.41424 1.25 9.00006C1.25 8.58584 1.58579 8.25006 2 8.25006H14ZM5.71973 1.21978C6.01262 0.92689 6.48738 0.92689 6.78027 1.21978C7.07314 1.51268 7.07316 1.98745 6.78027 2.28033L5.18555 3.87506L6.78027 5.46978C7.07314 5.76268 7.07316 6.23745 6.78027 6.53033C6.48739 6.82318 6.01261 6.82318 5.71973 6.53033L4.125 4.9356L2.53027 6.53033C2.23739 6.82318 1.76261 6.82318 1.46973 6.53033C1.17684 6.23745 1.17686 5.76268 1.46973 5.46978L3.06445 3.87506L1.46973 2.28033C1.17684 1.98745 1.17686 1.51268 1.46973 1.21978C1.76262 0.92689 2.23738 0.92689 2.53027 1.21978L4.125 2.81451L5.71973 1.21978ZM14 3.25006C14.4142 3.25006 14.75 3.58584 14.75 4.00006C14.75 4.41424 14.4142 4.75006 14 4.75006H10C9.5858 4.75006 9.25003 4.41424 9.25 4.00006C9.25 3.58584 9.58579 3.25006 10 3.25006H14Z"
    fill="currentColor"
  />
</svg>
