<svg width="32" height="32" viewBox="0 0 32 32" fill="none" xmlns="http://www.w3.org/2000/svg" data-fui-icon="true">
  <path
    d="M30 27.2501C30.4142 27.2501 30.75 27.5858 30.75 28.0001C30.75 28.4142 30.4142 28.7501 30 28.7501H2C1.58581 28.7501 1.25003 28.4142 1.25 28.0001C1.25 27.5858 1.58579 27.2501 2 27.2501H30ZM30 16.2501C30.4142 16.2501 30.75 16.5858 30.75 17.0001C30.75 17.4142 30.4142 17.7501 30 17.7501H2C1.58581 17.7501 1.25003 17.4142 1.25 17.0001C1.25 16.5858 1.58579 16.2501 2 16.2501H30ZM9.71973 1.21978C10.0126 0.92689 10.4874 0.92689 10.7803 1.21978C11.0731 1.51268 11.0732 1.98745 10.7803 2.28033L7.18555 5.87506L10.7803 9.46978C11.0731 9.76268 11.0732 10.2374 10.7803 10.5303C10.4874 10.8232 10.0126 10.8232 9.71973 10.5303L6.125 6.9356L2.53027 10.5303C2.23739 10.8232 1.76261 10.8232 1.46973 10.5303C1.17684 10.2374 1.17686 9.76268 1.46973 9.46978L5.06445 5.87506L1.46973 2.28033C1.17684 1.98745 1.17686 1.51268 1.46973 1.21978C1.76262 0.92689 2.23738 0.92689 2.53027 1.21978L6.125 4.81451L9.71973 1.21978ZM30 5.25006C30.4142 5.25006 30.75 5.58584 30.75 6.00006C30.75 6.41424 30.4142 6.75006 30 6.75006H15C14.5858 6.75006 14.25 6.41424 14.25 6.00006C14.25 5.58584 14.5858 5.25006 15 5.25006H30Z"
    fill="currentColor"
  />
</svg>
