<svg
  width="16"
  height="16"
  viewBox="0 0 16 16"
  fill="none"
  xmlns="http://www.w3.org/2000/svg"
  data-fui-icon="true"
>
  <path
    fill-rule="evenodd"
    clip-rule="evenodd"
    d="M8.03033 2.28033C8.32322 1.98744 8.32322 1.51256 8.03033 1.21967C7.73744 0.926777 7.26256 0.926777 6.96967 1.21967L4.84467 3.34467L3.25 4.93934L2.28033 3.96967C1.98744 3.67678 1.51256 3.67678 1.21967 3.96967C0.926777 4.26256 0.926777 4.73744 1.21967 5.03033L2.71967 6.53033C3.01256 6.82322 3.48744 6.82322 3.78033 6.53033L5.90533 4.40533L8.03033 2.28033ZM10.25 3.25C9.83579 3.25 9.5 3.58579 9.5 4C9.5 4.41421 9.83579 4.75 10.25 4.75H14.25C14.6642 4.75 15 4.41421 15 4C15 3.58579 14.6642 3.25 14.25 3.25H10.25ZM2.25 8.25C1.83579 8.25 1.5 8.58579 1.5 9C1.5 9.41421 1.83579 9.75 2.25 9.75H14.25C14.6642 9.75 15 9.41421 15 9C15 8.58579 14.6642 8.25 14.25 8.25H2.25ZM1.5 14C1.5 13.5858 1.83579 13.25 2.25 13.25H14.25C14.6642 13.25 15 13.5858 15 14C15 14.4142 14.6642 14.75 14.25 14.75H2.25C1.83579 14.75 1.5 14.4142 1.5 14Z"
    fill="currentColor"
  />
</svg>
