<svg width="12" height="12" viewBox="0 0 12 12" fill="none" xmlns="http://www.w3.org/2000/svg" data-fui-icon="true">
  <path
    fill-rule="evenodd"
    clip-rule="evenodd"
    d="M11 10.2499C11.4142 10.2499 11.75 10.5857 11.75 10.9999C11.7499 11.4141 11.4142 11.7499 11 11.7499H1C0.585826 11.7499 0.250063 11.4141 0.25 10.9999C0.25 10.5857 0.585786 10.2499 1 10.2499H11ZM11 6.24994C11.4142 6.24994 11.75 6.58573 11.75 6.99994C11.7499 7.4141 11.4142 7.74994 11 7.74994H1C0.585826 7.74994 0.250064 7.4141 0.25 6.99994C0.25 6.58573 0.585786 6.24994 1 6.24994H11ZM3.21973 1.09955C3.51262 0.80666 3.98738 0.80666 4.28027 1.09955C4.57317 1.39244 4.57316 1.8672 4.28027 2.1601L3.43555 3.00482L4.28027 3.84955C4.57317 4.14244 4.57316 4.6172 4.28027 4.9101C3.98738 5.20299 3.51262 5.20299 3.21973 4.9101L2.375 4.06537L1.53027 4.9101C1.23738 5.20299 0.76262 5.20299 0.469727 4.9101C0.176836 4.6172 0.176834 4.14244 0.469727 3.84955L1.31445 3.00482L0.469727 2.1601C0.176836 1.8672 0.176834 1.39244 0.469727 1.09955C0.762619 0.80666 1.23738 0.80666 1.53027 1.09955L2.375 1.94428L3.21973 1.09955ZM11 2.24994C11.4142 2.24994 11.75 2.58573 11.75 2.99994C11.7499 3.4141 11.4142 3.74994 11 3.74994H7C6.58583 3.74994 6.25006 3.4141 6.25 2.99994C6.25 2.58573 6.58579 2.24994 7 2.24994H11Z"
    fill="currentColor"
  />
</svg>
