<svg width="20" height="20" viewBox="0 0 20 20" fill="none" xmlns="http://www.w3.org/2000/svg" data-fui-icon="true">
  <path
    d="M17 15.2501C17.4142 15.2501 17.75 15.5858 17.75 16.0001C17.75 16.4142 17.4142 16.7501 17 16.7501H3C2.58581 16.7501 2.25003 16.4142 2.25 16.0001C2.25 15.5858 2.58579 15.2501 3 15.2501H17ZM17 9.25006C17.4142 9.25006 17.75 9.58584 17.75 10.0001C17.75 10.4142 17.4142 10.7501 17 10.7501H3C2.58581 10.7501 2.25003 10.4142 2.25 10.0001C2.25 9.58584 2.58579 9.25006 3 9.25006H17ZM6.71973 1.21978C7.01262 0.92689 7.48738 0.92689 7.78027 1.21978C8.07314 1.51268 8.07316 1.98745 7.78027 2.28033L6.18555 3.87506L7.78027 5.46978C8.07314 5.76268 8.07316 6.23745 7.78027 6.53033C7.48739 6.82319 7.01261 6.82319 6.71973 6.53033L5.125 4.9356L3.53027 6.53033C3.23739 6.82319 2.76261 6.82319 2.46973 6.53033C2.17684 6.23745 2.17686 5.76268 2.46973 5.46978L4.06445 3.87506L2.46973 2.28033C2.17684 1.98745 2.17686 1.51268 2.46973 1.21978C2.76262 0.92689 3.23738 0.92689 3.53027 1.21978L5.125 2.81451L6.71973 1.21978ZM17 3.25006C17.4142 3.25006 17.75 3.58584 17.75 4.00006C17.75 4.41424 17.4142 4.75006 17 4.75006H11C10.5858 4.75006 10.25 4.41424 10.25 4.00006C10.25 3.58584 10.5858 3.25006 11 3.25006H17Z"
    fill="currentColor"
  />
</svg>
