<svg width="16" height="16" viewBox="0 0 16 16" fill="none" xmlns="http://www.w3.org/2000/svg" data-fui-icon="true">
  <path
    fill-rule="evenodd"
    clip-rule="evenodd"
    d="M14 13.2499C14.4142 13.2499 14.75 13.5857 14.75 13.9999C14.75 14.4141 14.4142 14.7499 14 14.7499H2C1.58581 14.7499 1.25003 14.4141 1.25 13.9999C1.25 13.5857 1.58579 13.2499 2 13.2499H14ZM14 8.24994C14.4142 8.24994 14.75 8.58573 14.75 8.99994C14.75 9.41413 14.4142 9.74994 14 9.74994H2C1.58581 9.74994 1.25003 9.41413 1.25 8.99994C1.25 8.58573 1.58579 8.24994 2 8.24994H14ZM5.71973 1.21967C6.01262 0.926777 6.48738 0.926777 6.78027 1.21967C7.07314 1.51257 7.07316 1.98733 6.78027 2.28022L5.18555 3.87494L6.78027 5.46967C7.07314 5.76257 7.07316 6.23733 6.78027 6.53022C6.48739 6.82307 6.01261 6.82307 5.71973 6.53022L4.125 4.93549L2.53027 6.53022C2.23739 6.82307 1.76261 6.82307 1.46973 6.53022C1.17684 6.23733 1.17686 5.76257 1.46973 5.46967L3.06445 3.87494L1.46973 2.28022C1.17684 1.98733 1.17686 1.51257 1.46973 1.21967C1.76262 0.926777 2.23738 0.926777 2.53027 1.21967L4.125 2.8144L5.71973 1.21967ZM14 3.24994C14.4142 3.24994 14.75 3.58573 14.75 3.99994C14.75 4.41413 14.4142 4.74994 14 4.74994H10C9.5858 4.74994 9.25003 4.41413 9.25 3.99994C9.25 3.58573 9.58579 3.24994 10 3.24994H14Z"
    fill="currentColor"
  />
</svg>
