<svg width="16" height="16" viewBox="0 0 16 16" fill="none" xmlns="http://www.w3.org/2000/svg" data-fui-icon="true">
  <path
    d="M14 13.25C14.4142 13.25 14.75 13.5858 14.75 14C14.75 14.4142 14.4142 14.75 14 14.75H2C1.58581 14.75 1.25003 14.4142 1.25 14C1.25 13.5858 1.58579 13.25 2 13.25H14ZM14 8.25C14.4142 8.25 14.75 8.58579 14.75 9C14.75 9.41419 14.4142 9.75 14 9.75H2C1.58581 9.75 1.25003 9.41419 1.25 9C1.25 8.58579 1.58579 8.25 2 8.25H14ZM5.71973 1.21973C6.01262 0.926833 6.48738 0.926833 6.78027 1.21973C7.07314 1.51262 7.07316 1.98739 6.78027 2.28027L5.18555 3.875L6.78027 5.46973C7.07314 5.76262 7.07316 6.23739 6.78027 6.53027C6.48739 6.82313 6.01261 6.82313 5.71973 6.53027L4.125 4.93555L2.53027 6.53027C2.23739 6.82313 1.76261 6.82313 1.46973 6.53027C1.17684 6.23739 1.17686 5.76262 1.46973 5.46973L3.06445 3.875L1.46973 2.28027C1.17684 1.98739 1.17686 1.51262 1.46973 1.21973C1.76262 0.926833 2.23738 0.926833 2.53027 1.21973L4.125 2.81445L5.71973 1.21973ZM14 3.25C14.4142 3.25 14.75 3.58579 14.75 4C14.75 4.41419 14.4142 4.75 14 4.75H10C9.5858 4.75 9.25003 4.41419 9.25 4C9.25 3.58579 9.58579 3.25 10 3.25H14Z"
    fill="currentColor"
  />
</svg>
