<svg width="20" height="20" viewBox="0 0 20 20" fill="none" xmlns="http://www.w3.org/2000/svg" data-fui-icon="true">
  <path
    d="M17 15.25C17.4142 15.25 17.75 15.5858 17.75 16C17.75 16.4142 17.4142 16.75 17 16.75H3C2.58581 16.75 2.25003 16.4142 2.25 16C2.25 15.5858 2.58579 15.25 3 15.25H17ZM17 9.25C17.4142 9.25003 17.75 9.5858 17.75 10C17.75 10.4142 17.4142 10.75 17 10.75H3C2.58581 10.75 2.25003 10.4142 2.25 10C2.25 9.58579 2.58579 9.25 3 9.25H17ZM6.71973 1.21973C7.01262 0.926833 7.48738 0.926833 7.78027 1.21973C8.07311 1.51262 8.07315 1.9874 7.78027 2.28027L3.53027 6.53027C3.2374 6.82315 2.76262 6.82311 2.46973 6.53027L0.469727 4.53027C0.176833 4.23738 0.176833 3.76262 0.469727 3.46973C0.76262 3.17683 1.23738 3.17683 1.53027 3.46973L3 4.93945L6.71973 1.21973ZM17 3.25C17.4142 3.25003 17.75 3.58581 17.75 4C17.75 4.41417 17.4142 4.74997 17 4.75H11C10.5858 4.75 10.25 4.41419 10.25 4C10.25 3.58579 10.5858 3.25 11 3.25H17Z"
    fill="currentColor"
  />
</svg>
