<svg width="32" height="32" viewBox="0 0 32 32" fill="none" xmlns="http://www.w3.org/2000/svg" data-fui-icon="true">
  <path
    d="M30 27.2501C30.4142 27.2501 30.75 27.5859 30.75 28.0001C30.75 28.4142 30.4142 28.75 30 28.7501H2C1.58581 28.7501 1.25003 28.4142 1.25 28.0001C1.25 27.5858 1.58579 27.2501 2 27.2501H30ZM30 16.2501C30.4142 16.2501 30.75 16.5859 30.75 17.0001C30.75 17.4142 30.4142 17.75 30 17.7501H2C1.58581 17.7501 1.25003 17.4142 1.25 17.0001C1.25 16.5858 1.58579 16.2501 2 16.2501H30ZM11.7197 1.21978C12.0126 0.92689 12.4874 0.92689 12.7803 1.21978C13.0731 1.51268 13.0731 1.98746 12.7803 2.28033L4.53027 10.5303C4.2374 10.8232 3.76262 10.8232 3.46973 10.5303L0.469727 7.53033C0.176833 7.23744 0.176833 6.76268 0.469727 6.46978C0.76262 6.17689 1.23738 6.17689 1.53027 6.46978L4 8.93951L11.7197 1.21978ZM30 5.25006C30.4142 5.25009 30.75 5.58586 30.75 6.00006C30.75 6.41422 30.4142 6.75003 30 6.75006H17C16.5858 6.75006 16.25 6.41424 16.25 6.00006C16.25 5.58584 16.5858 5.25006 17 5.25006H30Z"
    fill="currentColor"
  />
</svg>
