<svg width="24" height="24" viewBox="0 0 24 24" fill="none" xmlns="http://www.w3.org/2000/svg" data-fui-icon="true">
  <path
    fill-rule="evenodd"
    clip-rule="evenodd"
    d="M22 20.2499C22.4142 20.2499 22.75 20.5857 22.75 20.9999C22.75 21.4141 22.4142 21.7499 22 21.7499H2C1.58581 21.7499 1.25003 21.4141 1.25 20.9999C1.25 20.5857 1.58579 20.2499 2 20.2499H22ZM22 12.2499C22.4142 12.2499 22.75 12.5857 22.75 12.9999C22.75 13.4141 22.4142 13.7499 22 13.7499H2C1.58581 13.7499 1.25003 13.4141 1.25 12.9999C1.25 12.5857 1.58579 12.2499 2 12.2499H22ZM7.71973 1.21967C8.01262 0.926777 8.48738 0.926777 8.78027 1.21967C9.07314 1.51257 9.07316 1.98733 8.78027 2.28022L6.18555 4.87494L8.78027 7.46967C9.07314 7.76257 9.07316 8.23733 8.78027 8.53022C8.48739 8.82307 8.01261 8.82307 7.71973 8.53022L5.125 5.93549L2.53027 8.53022C2.23739 8.82307 1.76261 8.82307 1.46973 8.53022C1.17684 8.23733 1.17686 7.76257 1.46973 7.46967L4.06445 4.87494L1.46973 2.28022C1.17684 1.98733 1.17686 1.51257 1.46973 1.21967C1.76262 0.926777 2.23738 0.926777 2.53027 1.21967L5.125 3.8144L7.71973 1.21967ZM22 4.24994C22.4142 4.24994 22.75 4.58573 22.75 4.99994C22.75 5.41413 22.4142 5.74994 22 5.74994H13C12.5858 5.74994 12.25 5.41413 12.25 4.99994C12.25 4.58573 12.5858 4.24994 13 4.24994H22Z"
    fill="currentColor"
  />
</svg>
