<svg width="16" height="16" viewBox="0 0 16 16" fill="none" xmlns="http://www.w3.org/2000/svg" data-fui-icon="true">
  <path
    d="M14.25 13.25C14.6642 13.25 15 13.5858 15 14C15 14.4142 14.6642 14.75 14.25 14.75H2.25C1.83579 14.75 1.5 14.4142 1.5 14C1.5 13.5858 1.83579 13.25 2.25 13.25H14.25ZM14.25 8.25C14.6642 8.25 15 8.58579 15 9C15 9.41421 14.6642 9.75 14.25 9.75H2.25C1.83579 9.75 1.5 9.41421 1.5 9C1.5 8.58579 1.83579 8.25 2.25 8.25H14.25ZM6.96973 1.21973C7.26262 0.926833 7.73738 0.926833 8.03027 1.21973C8.32317 1.51262 8.32317 1.98738 8.03027 2.28027L3.78027 6.53027C3.48738 6.82317 3.01262 6.82317 2.71973 6.53027L1.21973 5.03027C0.926833 4.73738 0.926833 4.26262 1.21973 3.96973C1.51262 3.67683 1.98738 3.67683 2.28027 3.96973L3.25 4.93945L6.96973 1.21973ZM14.25 3.25C14.6642 3.25 15 3.58579 15 4C15 4.41421 14.6642 4.75 14.25 4.75H10.25C9.83579 4.75 9.5 4.41421 9.5 4C9.5 3.58579 9.83579 3.25 10.25 3.25H14.25Z"
    fill="currentColor"
  />
</svg>
