<svg width="24" height="24" viewBox="0 0 24 24" fill="none" xmlns="http://www.w3.org/2000/svg" data-fui-icon="true">
  <path
    d="M22 20.2501C22.4142 20.2501 22.75 20.5858 22.75 21.0001C22.75 21.4142 22.4142 21.7501 22 21.7501H2C1.58581 21.7501 1.25003 21.4142 1.25 21.0001C1.25 20.5858 1.58579 20.2501 2 20.2501H22ZM22 12.2501C22.4142 12.2501 22.75 12.5858 22.75 13.0001C22.75 13.4142 22.4142 13.7501 22 13.7501H2C1.58581 13.7501 1.25003 13.4142 1.25 13.0001C1.25 12.5858 1.58579 12.2501 2 12.2501H22ZM7.71973 1.21978C8.01262 0.92689 8.48738 0.92689 8.78027 1.21978C9.07314 1.51268 9.07316 1.98745 8.78027 2.28033L6.18555 4.87506L8.78027 7.46978C9.07314 7.76268 9.07316 8.23745 8.78027 8.53033C8.48739 8.82319 8.01261 8.82319 7.71973 8.53033L5.125 5.9356L2.53027 8.53033C2.23739 8.82319 1.76261 8.82319 1.46973 8.53033C1.17684 8.23745 1.17686 7.76268 1.46973 7.46978L4.06445 4.87506L1.46973 2.28033C1.17684 1.98745 1.17686 1.51268 1.46973 1.21978C1.76262 0.92689 2.23738 0.92689 2.53027 1.21978L5.125 3.81451L7.71973 1.21978ZM22 4.25006C22.4142 4.25006 22.75 4.58584 22.75 5.00006C22.75 5.41424 22.4142 5.75006 22 5.75006H13C12.5858 5.75006 12.25 5.41424 12.25 5.00006C12.25 4.58584 12.5858 4.25006 13 4.25006H22Z"
    fill="currentColor"
  />
</svg>
