<svg
  width="16"
  height="16"
  viewBox="0 0 16 16"
  fill="none"
  xmlns="http://www.w3.org/2000/svg"
  data-fui-icon="true"
>
  <path
    d="M4.9946 2.45819L4.25896 2.60428V2.60428L4.9946 2.45819ZM0.882823 2.06265L0.145215 2.19842L0.882823 2.06265ZM11.0054 2.45819L11.741 2.60428V2.60428L11.0054 2.45819ZM15.1171 2.06265L15.8548 2.19842L15.1171 2.06265ZM6.82864 10.2967C6.53576 10.0038 6.06089 10.0038 5.76798 10.2967C5.47508 10.5896 5.47507 11.0645 5.76796 11.3574L6.82864 10.2967ZM7.24365 11.7724L6.7133 12.3028C6.85396 12.4434 7.04473 12.5224 7.24365 12.5224C7.44257 12.5224 7.63334 12.4434 7.77399 12.3028L7.24365 11.7724ZM10.2316 9.84501C10.5245 9.55211 10.5245 9.07723 10.2316 8.78435C9.93868 8.49146 9.4638 8.49147 9.17092 8.78438L10.2316 9.84501ZM6.49798 5.83636C7.0717 5.35331 7.07184 5.35347 7.07197 5.35363C7.07201 5.35368 7.07214 5.35384 7.07222 5.35393C7.07238 5.35412 7.07252 5.35429 7.07265 5.35444C7.0729 5.35474 7.07308 5.35496 7.07321 5.35511C7.07345 5.3554 7.07344 5.35539 7.07318 5.35507C7.07265 5.35444 7.07114 5.35259 7.06867 5.34954C7.06374 5.34345 7.05505 5.33258 7.043 5.31705C7.01889 5.28597 6.98146 5.23633 6.93403 5.16913C6.83905 5.03458 6.7047 4.83056 6.55728 4.56491C6.26166 4.03223 5.9187 3.26117 5.73023 2.3121L4.25896 2.60428C4.48438 3.7394 4.89311 4.65742 5.24571 5.29278C5.4224 5.61116 5.58629 5.8609 5.70853 6.03409C5.7697 6.12077 5.82062 6.18851 5.85771 6.23634C5.87626 6.26026 5.89138 6.27922 5.90261 6.2931C5.90823 6.30004 5.91288 6.30572 5.9165 6.31011C5.91831 6.3123 5.91987 6.31418 5.92116 6.31573C5.92181 6.31651 5.92239 6.3172 5.92291 6.31782C5.92317 6.31812 5.92341 6.31841 5.92363 6.31868C5.92374 6.31881 5.9239 6.319 5.92395 6.31906C5.92411 6.31924 5.92425 6.31942 6.49798 5.83636ZM3.23764 0.118208H1.9751V1.61821H3.23764V0.118208ZM0.145215 2.19842C0.491416 4.07915 1.52095 5.45299 2.43592 6.34291C2.89513 6.78955 3.33326 7.12214 3.6588 7.34446C3.82193 7.45588 3.95785 7.54031 4.05539 7.59817C4.1042 7.62712 4.1435 7.64947 4.17192 7.66528C4.18613 7.67318 4.19763 7.67946 4.20624 7.6841C4.21055 7.68643 4.21413 7.68834 4.21698 7.68986C4.2184 7.69061 4.21964 7.69127 4.22069 7.69182C4.22122 7.6921 4.22169 7.69235 4.22212 7.69257C4.22234 7.69269 4.22263 7.69284 4.22273 7.69289C4.22301 7.69304 4.22327 7.69318 4.57112 7.02872C4.91897 6.36427 4.91921 6.36439 4.91944 6.36451C4.9195 6.36454 4.91972 6.36466 4.91984 6.36472C4.92009 6.36485 4.92028 6.36495 4.92044 6.36504C4.92074 6.3652 4.92087 6.36526 4.92081 6.36523C4.9207 6.36518 4.91988 6.36474 4.91836 6.36392C4.91531 6.36228 4.9095 6.35911 4.90107 6.35443C4.88422 6.34505 4.85696 6.32959 4.82061 6.30804C4.74785 6.26488 4.63909 6.19751 4.50475 6.10577C4.23534 5.92178 3.86733 5.64265 3.48175 5.26763C2.70715 4.51423 1.89253 3.40503 1.62043 1.92687L0.145215 2.19842ZM1.9751 0.118208C0.944437 0.118208 -0.0768938 0.991815 0.145215 2.19842L1.62043 1.92687C1.60738 1.85599 1.62531 1.79458 1.68051 1.73617C1.74194 1.67118 1.84686 1.61821 1.9751 1.61821V0.118208ZM5.73023 2.31211C5.50614 1.18367 4.56306 0.118208 3.23764 0.118208V1.61821C3.67954 1.61821 4.13881 1.99925 4.25896 2.60428L5.73023 2.31211ZM9.50199 5.83636C10.0757 6.31942 10.0759 6.31924 10.076 6.31906C10.0761 6.319 10.0762 6.31881 10.0763 6.31868C10.0766 6.31841 10.0768 6.31812 10.0771 6.31782C10.0776 6.3172 10.0782 6.31651 10.0788 6.31573C10.0801 6.31418 10.0817 6.3123 10.0835 6.31011C10.0871 6.30572 10.0917 6.30004 10.0974 6.2931C10.1086 6.27922 10.1237 6.26026 10.1423 6.23634C10.1794 6.18851 10.2303 6.12077 10.2914 6.03409C10.4137 5.8609 10.5776 5.61116 10.7543 5.29278C11.1069 4.65742 11.5156 3.7394 11.741 2.60428L10.2697 2.3121C10.0813 3.26117 9.73831 4.03223 9.44269 4.56491C9.29527 4.83056 9.16091 5.03458 9.06594 5.16913C9.01851 5.23633 8.98107 5.28597 8.95697 5.31705C8.94492 5.33258 8.93623 5.34345 8.9313 5.34954C8.92883 5.35259 8.92731 5.35444 8.92679 5.35507C8.92653 5.35539 8.92652 5.3554 8.92676 5.35511C8.92688 5.35496 8.92707 5.35474 8.92732 5.35444C8.92745 5.35429 8.92759 5.35412 8.92774 5.35393C8.92782 5.35384 8.92795 5.35368 8.92799 5.35363C8.92813 5.35347 8.92827 5.35331 9.50199 5.83636ZM12.7623 1.61821H14.0249V0.118208H12.7623V1.61821ZM14.3795 1.92687C14.1074 3.40503 13.2928 4.51423 12.5182 5.26763C12.1326 5.64265 11.7646 5.92178 11.4952 6.10577C11.3609 6.19751 11.2521 6.26488 11.1794 6.30804C11.143 6.32959 11.1158 6.34505 11.0989 6.35443C11.0905 6.35911 11.0847 6.36228 11.0816 6.36392C11.0801 6.36474 11.0793 6.36518 11.0792 6.36523C11.0791 6.36526 11.0792 6.3652 11.0795 6.36504C11.0797 6.36495 11.0799 6.36485 11.0801 6.36472C11.0802 6.36466 11.0805 6.36454 11.0805 6.36451C11.0808 6.36439 11.081 6.36427 11.4288 7.02872C11.7767 7.69318 11.777 7.69304 11.7772 7.69289C11.7773 7.69284 11.7776 7.69269 11.7778 7.69257C11.7783 7.69235 11.7788 7.6921 11.7793 7.69182C11.7803 7.69127 11.7816 7.69061 11.783 7.68986C11.7858 7.68834 11.7894 7.68643 11.7937 7.6841C11.8023 7.67946 11.8138 7.67318 11.8281 7.66528C11.8565 7.64947 11.8958 7.62712 11.9446 7.59817C12.0421 7.54031 12.178 7.45588 12.3412 7.34446C12.6667 7.12214 13.1048 6.78955 13.5641 6.34291C14.479 5.45299 15.5086 4.07915 15.8548 2.19842L14.3795 1.92687ZM14.0249 1.61821C14.1531 1.61821 14.258 1.67118 14.3195 1.73617C14.3747 1.79458 14.3926 1.85599 14.3795 1.92687L15.8548 2.19842C16.0769 0.991815 15.0555 0.118208 14.0249 0.118208V1.61821ZM11.741 2.60428C11.8612 1.99925 12.3204 1.61821 12.7623 1.61821V0.118208C11.4369 0.118208 10.4938 1.18367 10.2697 2.31211L11.741 2.60428ZM5.76796 11.3574L6.7133 12.3028L7.77399 11.2421L6.82864 10.2967L5.76796 11.3574ZM7.77399 12.3028L10.2316 9.84501L9.17092 8.78438L6.7133 11.2421L7.77399 12.3028ZM12.068 10.314C12.068 12.5605 10.2468 14.3817 8.00026 14.3817V15.8817C11.0752 15.8817 13.568 13.3889 13.568 10.314H12.068ZM8.00026 14.3817C5.75372 14.3817 3.93254 12.5605 3.93254 10.314H2.43254C2.43254 13.3889 4.92529 15.8817 8.00026 15.8817V14.3817ZM3.93254 10.314C3.93254 8.06741 5.75372 6.24622 8.00026 6.24622V4.74623C4.92529 4.74623 2.43254 7.23898 2.43254 10.314H3.93254ZM8.00026 6.24622C10.2468 6.24622 12.068 8.06741 12.068 10.314H13.568C13.568 7.23898 11.0752 4.74623 8.00026 4.74623V6.24622Z"
    fill="currentColor"
  />
</svg>
