<svg width="32" height="32" viewBox="0 0 32 32" fill="none" xmlns="http://www.w3.org/2000/svg" data-fui-icon="true">
  <path
    d="M16 1.00098C22.3512 1.00098 27.4999 6.14976 27.5 12.501C27.5 15.8903 26.0329 18.9363 23.7002 21.041L26.0156 29.8945C26.1898 30.5624 25.5647 31.1632 24.9043 30.9629L16 28.2529L7.09668 30.9629C6.43596 31.1637 5.81095 30.5627 5.98535 29.8945L8.2998 21.041C5.96706 18.9363 4.5 15.8903 4.5 12.501C4.50007 6.14976 9.64877 1.00098 16 1.00098ZM22.4131 22.0469C20.5808 23.2803 18.3748 24.001 16 24.001C13.6254 24.001 11.4191 23.2811 9.58691 22.0479L7.71484 29.2061L15.7432 26.7646L15.8711 26.7354C15.9567 26.7227 16.0442 26.7227 16.1299 26.7354L16.2578 26.7646L24.2852 29.2061L22.4131 22.0469ZM16 2.50098C10.4772 2.50098 6.00007 6.97819 6 12.501C6 18.0238 10.4772 22.501 16 22.501C21.5228 22.501 26 18.0238 26 12.501C25.9999 6.97819 21.5228 2.50098 16 2.50098ZM19.7871 9.42188C20.08 9.12913 20.5558 9.12903 20.8486 9.42188C21.141 9.71467 21.141 10.1896 20.8486 10.4824L14.8047 16.5254C14.5119 16.8182 14.037 16.8181 13.7441 16.5254L11.1543 13.9355C10.8615 13.6426 10.8614 13.1679 11.1543 12.875C11.4472 12.5824 11.922 12.5823 12.2148 12.875L14.2744 14.9346L19.7871 9.42188Z"
    fill="currentColor"
  />
</svg>
