<svg width="20" height="20" viewBox="0 0 20 20" fill="none" xmlns="http://www.w3.org/2000/svg" data-fui-icon="true">
  <path
    d="M10 1C13.9028 1 17.0671 4.1637 17.0674 8.06641C17.0673 10.0286 16.2671 11.8035 14.9756 13.084L16.1484 17.5791C16.3692 18.4276 15.5834 19.1954 14.7402 18.9551L9.99707 17.5996L5.25488 18.9551C4.41154 19.1957 3.62574 18.4278 3.84668 17.5791L5.02051 13.0791C3.73217 11.799 2.93372 10.026 2.93359 8.06641C2.93383 4.16396 6.0976 1.00043 10 1ZM6.16504 16.6143L9.68652 15.6084L9.84082 15.5762C9.99662 15.5545 10.1562 15.5649 10.3086 15.6084L13.8291 16.6143L13.2383 14.3467C12.2679 14.848 11.1674 15.1338 10 15.1338C8.83047 15.1337 7.72836 14.8469 6.75684 14.3438L6.16504 16.6143ZM10 3C7.20217 3.00043 4.93383 5.26853 4.93359 8.06641C4.93385 10.8643 7.20218 13.1334 10 13.1338C12.7982 13.1338 15.0671 10.8645 15.0674 8.06641C15.0671 5.26827 12.7982 3 10 3ZM11.7197 5.90332C12.1103 5.51281 12.7433 5.5128 13.1338 5.90332C13.5242 6.29385 13.5243 6.92689 13.1338 7.31738L9.73633 10.7148C9.54883 10.9021 9.29432 11.0078 9.0293 11.0078C8.76424 11.0077 8.50972 10.9022 8.32227 10.7148L6.86621 9.25879C6.47582 8.8684 6.4761 8.23528 6.86621 7.84473C7.25674 7.4542 7.88975 7.4542 8.28027 7.84473L9.0293 8.59375L11.7197 5.90332Z"
    fill="currentColor"
  />
</svg>
