<svg width="16" height="16" viewBox="0 0 16 16" fill="none" xmlns="http://www.w3.org/2000/svg" data-fui-icon="true">
  <path
    d="M8 1C11.0375 1 13.4999 3.46255 13.5 6.5C13.5 8.03189 12.8728 9.4168 11.8623 10.4141L12.7676 13.8857C12.9372 14.5364 12.347 15.1308 11.6953 14.9648L8.00195 14.0234L4.30859 14.9648C3.65691 15.1308 3.06576 14.5364 3.23535 13.8857L4.13965 10.417C3.12772 9.41955 2.5 8.03313 2.5 6.5C2.50013 3.46255 4.96252 1 8 1ZM10.5596 11.3672C9.7948 11.7702 8.92454 12 8 12C7.07593 12 6.20589 11.7708 5.44141 11.3682L4.9502 13.2529L7.78418 12.5322L7.89258 12.5117C7.96525 12.5027 8.03866 12.5026 8.11133 12.5117L8.21973 12.5322L11.0518 13.2529L10.5596 11.3672ZM8 2.5C5.79094 2.5 4.00013 4.29097 4 6.5C4 8.70914 5.79086 10.5 8 10.5C10.2091 10.5 12 8.70914 12 6.5C11.9999 4.29097 10.2091 2.5 8 2.5ZM9.21973 4.96973C9.51263 4.67693 9.98741 4.67686 10.2803 4.96973C10.573 5.2626 10.573 5.7374 10.2803 6.03027L7.78027 8.53027C7.63966 8.67088 7.44884 8.74995 7.25 8.75C7.05114 8.74999 6.86036 8.67086 6.71973 8.53027L5.71973 7.53027C5.42688 7.23737 5.42686 6.7626 5.71973 6.46973C6.01263 6.17688 6.4874 6.17686 6.78027 6.46973L7.25 6.93945L9.21973 4.96973Z"
    fill="currentColor"
  />
</svg>
