<svg
  width="12"
  height="12"
  viewBox="0 0 12 12"
  fill="none"
  xmlns="http://www.w3.org/2000/svg"
  data-fui-icon="true"
>
  <path
    d="M7.10355 7.32853C7.29882 7.13327 7.29882 6.81668 7.10355 6.62142C6.90829 6.42616 6.59171 6.42616 6.39645 6.62142L5.7 7.31787L5.60355 7.22142C5.40829 7.02616 5.09171 7.02616 4.89645 7.22142C4.70118 7.41668 4.70118 7.73327 4.89645 7.92853L5.34645 8.37853C5.54171 8.57379 5.85829 8.57379 6.05355 8.37853L7.10355 7.32853Z"
    fill="currentColor"
  />
  <path
    fill-rule="evenodd"
    clip-rule="evenodd"
    d="M2.12503 0.625C1.34353 0.625 0.526474 1.29507 0.705721 2.25857C0.940618 3.52122 1.64174 4.43641 2.25331 5.02128C2.54024 5.29567 2.81483 5.50466 3.02792 5.65066C2.69332 6.18726 2.5 6.82105 2.5 7.5C2.5 9.433 4.067 11 6 11C7.933 11 9.5 9.433 9.5 7.5C9.5 6.82105 9.30668 6.18725 8.97207 5.65065C9.18517 5.50466 9.45976 5.29567 9.74669 5.02128C10.3583 4.43641 11.0594 3.52122 11.2943 2.25857C11.4735 1.29507 10.6565 0.625 9.87498 0.625H9.02436C8.03021 0.625 7.35082 1.41924 7.18989 2.22092C7.07694 2.78357 6.86998 3.24191 6.69119 3.55876C6.60221 3.71646 6.5216 3.83665 6.46576 3.91441C6.43791 3.9532 6.4164 3.98118 6.40336 3.99771L6.39047 4.01375L6.39145 4.01264L6.40384 4.02305C6.27134 4.00782 6.13658 4 6 4C5.86342 4 5.72866 4.00782 5.59616 4.02305L5.60855 4.01264L5.60953 4.01375L5.59664 3.99771C5.5836 3.98118 5.56209 3.9532 5.53424 3.91441C5.4784 3.83665 5.39779 3.71646 5.30881 3.55876C5.13002 3.24191 4.92306 2.78357 4.81011 2.22092C4.64918 1.41924 3.96979 0.625 2.97564 0.625H2.12503ZM7.90264 4.5544L7.89659 4.55791C7.88332 4.54934 7.86999 4.54085 7.8566 4.53246C7.90134 4.46135 7.94878 4.38238 7.99758 4.29589C8.23466 3.87571 8.50955 3.26831 8.66055 2.51614C8.6854 2.39234 8.74773 2.28514 8.82222 2.21509C8.89309 2.14845 8.96226 2.125 9.02436 2.125H9.7901C9.60736 2.90941 9.1547 3.51189 8.70997 3.9372C8.47645 4.16052 8.25333 4.32684 8.09069 4.43601C8.00974 4.49034 7.94487 4.52978 7.90264 4.5544ZM4.1434 4.53246C4.09866 4.46135 4.05122 4.38238 4.00242 4.29589C3.76534 3.87571 3.49045 3.26831 3.33945 2.51614C3.3146 2.39234 3.25227 2.28514 3.17778 2.21509C3.10691 2.14845 3.03774 2.125 2.97564 2.125H2.2099C2.39264 2.90941 2.8453 3.51189 3.29003 3.9372C3.52355 4.16052 3.74667 4.32684 3.90931 4.43601C3.99026 4.49034 4.05513 4.52978 4.09736 4.5544L4.10341 4.55791C4.11668 4.54934 4.13001 4.54085 4.1434 4.53246ZM8 7.5C8 8.60457 7.10457 9.5 6 9.5C4.89543 9.5 4 8.60457 4 7.5C4 6.39543 4.89543 5.5 6 5.5C7.10457 5.5 8 6.39543 8 7.5Z"
    fill="currentColor"
  />
</svg>
