<svg width="20" height="20" viewBox="0 0 20 20" fill="none" xmlns="http://www.w3.org/2000/svg" data-fui-icon="true">
  <path
    d="M10 1.00098C13.866 1.00098 17 4.13498 17 8.00098C16.9999 10.0015 16.1591 11.8045 14.8135 13.0801L16.0645 17.8779C16.2366 18.5394 15.6241 19.1379 14.9668 18.9502L9.99707 17.5303L5.02832 18.9502C4.37099 19.1379 3.75855 18.5394 3.93066 17.8779L5.18164 13.0762C3.83861 11.8008 3.00014 9.99924 3 8.00098C3 4.13498 6.13401 1.00098 10 1.00098ZM5.65527 17.2109L9.75488 16.04L9.875 16.0146C9.95633 16.0032 10.0388 16.0033 10.1201 16.0146L10.2402 16.04L14.3398 17.2109L13.5166 14.0518C12.483 14.6537 11.2823 15.001 10 15.001C8.71563 15.001 7.51323 14.6526 6.47852 14.0488L5.65527 17.2109ZM10 2.50098C6.96243 2.50098 4.5 4.96341 4.5 8.00098C4.50026 11.0383 6.9626 13.501 10 13.501C13.0374 13.501 15.4997 11.0383 15.5 8.00098C15.5 4.96341 13.0376 2.50098 10 2.50098ZM11.9697 5.96973C12.2626 5.677 12.7374 5.67689 13.0303 5.96973C13.323 6.26258 13.323 6.73741 13.0303 7.03027L9.53027 10.5303C9.23743 10.8231 8.76263 10.823 8.46973 10.5303L6.96973 9.03027C6.67683 8.73738 6.67683 8.26262 6.96973 7.96973C7.26263 7.677 7.73744 7.67689 8.03027 7.96973L9 8.93945L11.9697 5.96973Z"
    fill="currentColor"
  />
</svg>
