<svg width="16" height="16" viewBox="0 0 16 16" fill="none" xmlns="http://www.w3.org/2000/svg" data-fui-icon="true">
  <path
    d="M12.7676 13.8857C12.9372 14.5364 12.347 15.1307 11.6953 14.9648L8.00195 14.0234L4.30859 14.9648C3.65697 15.1307 3.06579 14.5364 3.23535 13.8857L3.85547 11.5068C4.98053 12.4391 6.42471 13 8 13C9.57629 13 11.0211 12.4383 12.1465 11.5049L12.7676 13.8857ZM8 1C11.0375 1 13.4999 3.46255 13.5 6.5C13.5 9.53757 11.0376 12 8 12C4.96243 12 2.5 9.53757 2.5 6.5C2.50013 3.46255 4.96252 1 8 1ZM10.2803 4.96973C9.98741 4.67686 9.51263 4.67693 9.21973 4.96973L7.25 6.93945L6.78027 6.46973C6.4874 6.17686 6.01263 6.17688 5.71973 6.46973C5.42686 6.7626 5.42688 7.23737 5.71973 7.53027L6.71973 8.53027C6.86036 8.67086 7.05114 8.74999 7.25 8.75C7.44884 8.74995 7.63966 8.67088 7.78027 8.53027L10.2803 6.03027C10.573 5.7374 10.573 5.2626 10.2803 4.96973Z"
    fill="currentColor"
  />
</svg>
