<svg
  width="14"
  height="14"
  viewBox="0 0 14 14"
  fill="none"
  xmlns="http://www.w3.org/2000/svg"
  data-fui-icon="true"
>
  <path
    fill-rule="evenodd"
    clip-rule="evenodd"
    d="M6.99965 12.5C8.8134 12.5 10.2837 11.0297 10.2837 9.21592C10.2837 7.40217 8.8134 5.93184 6.99965 5.93184C5.1859 5.93184 3.71557 7.40217 3.71557 9.21592C3.71557 11.0297 5.1859 12.5 6.99965 12.5ZM6.99965 14C9.64182 14 11.7837 11.8581 11.7837 9.21592C11.7837 6.57375 9.64182 4.43184 6.99965 4.43184C4.35748 4.43184 2.21557 6.57375 2.21557 9.21592C2.21557 11.8581 4.35748 14 6.99965 14Z"
    fill="currentColor"
  />
  <path
    d="M5.68549 5.09713C5.68549 5.09713 4.73218 3.96489 4.37003 2.14123 4.21943 1.38284 3.6059.749998 2.8327.749998H1.72798C1.14808.749998.667256 1.22481.772238 1.79513 1.31325 4.73416 3.99949 6.14044 3.99949 6.14044M8.31399 5.09713C8.31399 5.09713 9.2673 3.96489 9.62945 2.14123 9.78005 1.38284 10.3936.749998 11.1668.749998H12.2715C12.8514.749998 13.3322 1.22481 13.2272 1.79513 12.6862 4.73416 9.99999 6.14044 9.99999 6.14044"
    stroke="currentColor"
    stroke-width="1.5"
    stroke-linejoin="round"
  />
  <path
    d="M5.51076 9.46396L6.33794 10.2912L8.48835 8.14065"
    stroke="currentColor"
    stroke-width="1.5"
    stroke-linecap="round"
    stroke-linejoin="round"
  />
</svg>
