<svg width="12" height="12" viewBox="0 0 12 12" fill="none" xmlns="http://www.w3.org/2000/svg" data-fui-icon="true">
  <path
    d="M10.1826 10.9297C10.3452 11.5453 9.79825 12.1146 9.17676 11.9766L6 11.2686L2.82324 11.9766C2.20174 12.1146 1.65482 11.5453 1.81738 10.9297L2.29004 9.14062C3.29151 9.9877 4.58563 10.4999 6 10.5C7.41407 10.4999 8.70753 9.98737 9.70898 9.14062L10.1826 10.9297ZM6 0C8.62335 0 10.75 2.12665 10.75 4.75C10.75 7.37335 8.62335 9.5 6 9.5C3.37665 9.5 1.25 7.37335 1.25 4.75C1.25 2.12665 3.37665 0 6 0ZM8.03027 3.46973C7.73738 3.17683 7.26262 3.17683 6.96973 3.46973L5.5 4.93945L5.03027 4.46973C4.73738 4.17683 4.26262 4.17683 3.96973 4.46973C3.67683 4.76262 3.67683 5.23738 3.96973 5.53027L4.96973 6.53027C5.26262 6.82317 5.73738 6.82317 6.03027 6.53027L8.03027 4.53027C8.32317 4.23738 8.32317 3.76262 8.03027 3.46973Z"
    fill="currentColor"
  />
</svg>
