<svg width="16" height="16" viewBox="0 0 16 16" fill="none" xmlns="http://www.w3.org/2000/svg" data-fui-icon="true">
  <path
    d="M7.99902 0.995117C11.064 0.995223 13.5487 3.4799 13.5488 6.54492C13.5488 8.03049 12.9632 9.37796 12.0127 10.374L12.8506 13.582C13.0668 14.4109 12.32 15.1707 11.4873 14.9697L8 14.1279L4.51367 14.9697C3.68105 15.1705 2.93513 14.4109 3.15137 13.582L3.98633 10.377C3.03457 9.38068 2.44922 8.03157 2.44922 6.54492C2.44932 3.4799 4.934 0.995223 7.99902 0.995117ZM10.2676 11.6094C9.57483 11.9202 8.80749 12.0947 7.99902 12.0947C7.19094 12.0947 6.42395 11.9199 5.73145 11.6094L5.45117 12.6855L7.73438 12.1348L7.86621 12.1113C7.99917 12.0955 8.13476 12.1033 8.26562 12.1348L10.5488 12.6855L10.2676 11.6094ZM7.99902 2.99512C6.03857 2.99522 4.44932 4.58447 4.44922 6.54492C4.44922 8.50547 6.0385 10.0946 7.99902 10.0947C9.95954 10.0946 11.5488 8.50547 11.5488 6.54492C11.5487 4.58447 9.95948 2.99522 7.99902 2.99512ZM8.97363 4.8916C9.36418 4.50151 9.99829 4.50125 10.3887 4.8916C10.7787 5.28192 10.7784 5.91517 10.3887 6.30566L7.98535 8.70898C7.79793 8.89626 7.54327 9.00087 7.27832 9.00098C7.01309 9.00096 6.75882 8.89557 6.57129 8.70801L5.61035 7.74707C5.21997 7.3565 5.21983 6.72346 5.61035 6.33301C6.00087 5.94309 6.63407 5.94284 7.02441 6.33301L7.27832 6.58691L8.97363 4.8916Z"
    fill="currentColor"
  />
</svg>
