<svg width="16" height="16" viewBox="0 0 16 16" fill="none" xmlns="http://www.w3.org/2000/svg" data-fui-icon="true">
  <path
    d="M3.23828 0.118164C4.56346 0.118405 5.50738 1.18419 5.73145 2.3125C5.91992 3.26125 6.26305 4.03187 6.55859 4.56445C6.6258 4.68555 6.69072 4.79393 6.75 4.88867C7.15207 4.79636 7.5709 4.74611 8.00098 4.74609C8.43066 4.74613 8.84925 4.79651 9.25098 4.88867C9.3103 4.79387 9.37609 4.68566 9.44336 4.56445C9.73887 4.03187 10.0821 3.26109 10.2705 2.3125C10.4947 1.18412 11.4383 0.118164 12.7637 0.118164H14.0254C15.0558 0.118418 16.0774 0.991933 15.8555 2.19824C15.5093 4.0786 14.4803 5.45284 13.5654 6.34277C13.2161 6.68254 12.8774 6.95561 12.5928 7.16504C13.208 8.06055 13.5692 9.14489 13.5693 10.3135C13.5693 13.3883 11.0757 15.8816 8.00098 15.8818C4.9261 15.8817 2.43359 13.3884 2.43359 10.3135C2.4337 9.14539 2.79342 8.06131 3.4082 7.16602C3.12356 6.9566 2.78589 6.68255 2.43652 6.34277C1.52161 5.45285 0.492663 4.07882 0.146484 2.19824C-0.0755428 0.991837 0.945091 0.118404 1.97559 0.118164H3.23828ZM8.00098 6.24609C5.75469 6.2462 3.93386 8.06723 3.93359 10.3135C3.93359 12.56 5.75453 14.3817 8.00098 14.3818C10.2473 14.3816 12.0693 12.5599 12.0693 10.3135C12.0691 8.06731 10.2471 6.24634 8.00098 6.24609ZM9.17188 8.78418C9.46476 8.49166 9.93963 8.49151 10.2324 8.78418C10.525 9.07697 10.5249 9.55186 10.2324 9.84473L7.77539 12.3027C7.63484 12.4433 7.4429 12.5223 7.24414 12.5225C7.04547 12.5223 6.8544 12.4432 6.71387 12.3027L5.76855 11.3574C5.47587 11.0646 5.47597 10.5897 5.76855 10.2969C6.06143 10.0043 6.53629 10.0042 6.8291 10.2969L7.24414 10.7109L9.17188 8.78418ZM1.97559 1.61816C1.84771 1.61828 1.74303 1.67153 1.68164 1.73633C1.62647 1.7947 1.60809 1.85593 1.62109 1.92676C1.89318 3.40483 2.70786 4.51419 3.48242 5.26758C3.82996 5.60558 4.1642 5.86512 4.42383 6.04785C4.70298 5.81355 5.00532 5.60525 5.32715 5.42871C5.30162 5.38458 5.27326 5.34014 5.24707 5.29297C4.8945 4.65766 4.48519 3.73949 4.25977 2.60449C4.13966 1.99967 3.68004 1.61842 3.23828 1.61816H1.97559ZM12.7637 1.61816C12.3218 1.61816 11.8624 1.99955 11.7422 2.60449C11.5168 3.73938 11.1074 4.65765 10.7549 5.29297C10.7286 5.34026 10.6994 5.38448 10.6738 5.42871C10.9955 5.60512 11.2981 5.81274 11.5771 6.04688C11.8368 5.86412 12.172 5.60557 12.5195 5.26758C13.294 4.51419 14.1088 3.40462 14.3809 1.92676C14.3938 1.8561 14.3752 1.79458 14.3203 1.73633C14.259 1.67141 14.1534 1.61829 14.0254 1.61816H12.7637Z"
    fill="currentColor"
  />
</svg>
