<svg width="12" height="13" viewBox="0 0 12 13" fill="none" xmlns="http://www.w3.org/2000/svg" data-fui-icon="true">
  <path
    d="M10.2607 10.6201C10.4715 11.417 9.76252 12.1543 8.95801 11.9756L6 11.3154L3.04297 11.9756C2.23843 12.1544 1.52952 11.417 1.74023 10.6201L2.12988 9.14648C3.15743 10.0646 4.51282 10.6238 5.99902 10.624C7.4859 10.6239 8.84211 10.0642 9.87012 9.14551L10.2607 10.6201ZM5.99902 0C8.65641 0 10.8113 2.15419 10.8115 4.81152C10.8115 7.46904 8.65654 9.62402 5.99902 9.62402C3.34172 9.62377 1.1875 7.46888 1.1875 4.81152C1.18772 2.15435 3.34186 0.000254383 5.99902 0ZM7.95215 3.43848C7.55866 3.05096 6.92464 3.05576 6.53711 3.44922L5.50781 4.49316L5.44727 4.43457C5.0513 4.0498 4.41812 4.05838 4.0332 4.4541C3.64862 4.85008 3.65707 5.48331 4.05273 5.86816L4.82715 6.62109C5.22122 7.00384 5.85066 6.99662 6.23633 6.60547L7.96289 4.85352C8.35034 4.46009 8.34543 3.82602 7.95215 3.43848Z"
    fill="currentColor"
  />
</svg>
