<svg width="16" height="16" viewBox="0 0 16 16" fill="none" xmlns="http://www.w3.org/2000/svg" data-fui-icon="true">
  <path
    d="M4.99466 2.45821L4.25902 2.60429V2.6043L4.99466 2.45821ZM0.882884 2.06266L0.145276 2.19844L0.882884 2.06266ZM11.0054 2.45821L11.7411 2.6043V2.60429L11.0054 2.45821ZM15.1172 2.06266L15.8548 2.19844L15.1172 2.06266ZM6.82871 10.2967C6.53582 10.0038 6.06095 10.0038 5.76805 10.2967C5.47514 10.5896 5.47513 11.0645 5.76802 11.3574L6.82871 10.2967ZM7.24371 11.7725L6.71337 12.3028C6.85402 12.4434 7.04479 12.5225 7.24371 12.5225C7.44263 12.5225 7.6334 12.4434 7.77405 12.3028L7.24371 11.7725ZM10.2317 9.84502C10.5246 9.55212 10.5245 9.07725 10.2316 8.78436C9.93874 8.49148 9.46387 8.49149 9.17098 8.78439L10.2317 9.84502ZM6.49804 5.83638C7.07176 5.35333 7.0719 5.35349 7.07203 5.35365C7.07207 5.3537 7.07221 5.35385 7.07228 5.35395C7.07244 5.35414 7.07258 5.35431 7.07271 5.35445C7.07296 5.35475 7.07315 5.35498 7.07327 5.35512C7.07351 5.35542 7.0735 5.3554 7.07324 5.35509C7.07272 5.35445 7.0712 5.35261 7.06873 5.34956C7.0638 5.34347 7.05511 5.3326 7.04306 5.31707C7.01895 5.28598 6.98152 5.23635 6.93409 5.16915C6.83912 5.03459 6.70476 4.83057 6.55734 4.56493C6.26172 4.03225 5.91876 3.26119 5.73029 2.31212L4.25902 2.6043C4.48444 3.73941 4.89317 4.65744 5.24577 5.2928C5.42246 5.61118 5.58635 5.86092 5.70859 6.03411C5.76976 6.12079 5.82068 6.18853 5.85777 6.23635C5.87632 6.26027 5.89144 6.27924 5.90267 6.29312C5.90829 6.30006 5.91294 6.30573 5.91656 6.31012C5.91837 6.31232 5.91993 6.3142 5.92123 6.31575C5.92187 6.31652 5.92245 6.31722 5.92297 6.31783C5.92323 6.31814 5.92347 6.31843 5.92369 6.3187C5.9238 6.31883 5.92396 6.31901 5.92402 6.31908C5.92417 6.31926 5.92431 6.31944 6.49804 5.83638ZM3.2377 0.118225H1.97516V1.61823H3.2377V0.118225ZM0.145276 2.19844C0.491477 4.07917 1.52101 5.45301 2.43598 6.34293C2.89519 6.78957 3.33332 7.12216 3.65886 7.34448C3.82199 7.45589 3.95791 7.54033 4.05545 7.59819C4.10426 7.62714 4.14356 7.64949 4.17198 7.6653C4.18619 7.6732 4.19769 7.67947 4.2063 7.68412C4.21061 7.68644 4.2142 7.68836 4.21704 7.68987C4.21846 7.69063 4.2197 7.69128 4.22075 7.69184C4.22128 7.69211 4.22175 7.69237 4.22219 7.69259C4.2224 7.6927 4.22269 7.69286 4.2228 7.69291C4.22307 7.69306 4.22333 7.69319 4.57118 7.02874C4.91903 6.36428 4.91927 6.36441 4.9195 6.36453C4.91956 6.36456 4.91978 6.36468 4.9199 6.36474C4.92015 6.36487 4.92035 6.36497 4.9205 6.36505C4.9208 6.36521 4.92093 6.36528 4.92087 6.36525C4.92076 6.36519 4.91994 6.36475 4.91842 6.36393C4.91538 6.36229 4.90956 6.35913 4.90113 6.35444C4.88428 6.34507 4.85702 6.32961 4.82067 6.30805C4.74791 6.2649 4.63915 6.19753 4.50481 6.10579C4.23541 5.9218 3.86739 5.64266 3.48181 5.26765C2.70721 4.51425 1.89259 3.40505 1.62049 1.92689L0.145276 2.19844ZM1.97516 0.118225C0.944498 0.118225 -0.0768328 0.991832 0.145276 2.19844L1.62049 1.92689C1.60744 1.85601 1.62537 1.79459 1.68057 1.73619C1.742 1.6712 1.84692 1.61823 1.97516 1.61823V0.118225ZM5.73029 2.31212C5.5062 1.18368 4.56312 0.118225 3.2377 0.118225V1.61823C3.6796 1.61823 4.13887 1.99927 4.25902 2.60429L5.73029 2.31212ZM9.50205 5.83638C10.0758 6.31944 10.0759 6.31926 10.0761 6.31908C10.0761 6.31901 10.0763 6.31883 10.0764 6.3187C10.0766 6.31843 10.0769 6.31814 10.0771 6.31783C10.0776 6.31722 10.0782 6.31652 10.0789 6.31575C10.0802 6.3142 10.0817 6.31232 10.0835 6.31012C10.0872 6.30573 10.0918 6.30006 10.0974 6.29312C10.1087 6.27924 10.1238 6.26027 10.1423 6.23635C10.1794 6.18853 10.2303 6.12079 10.2915 6.03411C10.4137 5.86092 10.5776 5.61118 10.7543 5.2928C11.1069 4.65744 11.5156 3.73941 11.7411 2.6043L10.2698 2.31212C10.0813 3.26119 9.73837 4.03225 9.44275 4.56493C9.29533 4.83057 9.16097 5.03459 9.066 5.16915C9.01857 5.23635 8.98114 5.28598 8.95703 5.31707C8.94498 5.3326 8.93629 5.34347 8.93136 5.34956C8.92889 5.35261 8.92737 5.35445 8.92685 5.35509C8.92659 5.3554 8.92658 5.35542 8.92682 5.35512C8.92694 5.35498 8.92713 5.35475 8.92738 5.35445C8.92751 5.35431 8.92765 5.35414 8.92781 5.35395C8.92789 5.35385 8.92802 5.3537 8.92806 5.35365C8.92819 5.35349 8.92833 5.35333 9.50205 5.83638ZM12.7624 1.61823H14.0249V0.118225H12.7624V1.61823ZM14.3796 1.92689C14.1075 3.40505 13.2929 4.51425 12.5183 5.26765C12.1327 5.64266 11.7647 5.9218 11.4953 6.10579C11.3609 6.19753 11.2522 6.2649 11.1794 6.30805C11.1431 6.32961 11.1158 6.34507 11.099 6.35444C11.0905 6.35913 11.0847 6.36229 11.0817 6.36393C11.0802 6.36475 11.0793 6.36519 11.0792 6.36525C11.0792 6.36528 11.0793 6.36521 11.0796 6.36505C11.0797 6.36497 11.0799 6.36487 11.0802 6.36474C11.0803 6.36468 11.0805 6.36456 11.0806 6.36453C11.0808 6.36441 11.0811 6.36428 11.4289 7.02874C11.7768 7.69319 11.777 7.69306 11.7773 7.69291C11.7774 7.69286 11.7777 7.6927 11.7779 7.69259C11.7783 7.69237 11.7788 7.69211 11.7793 7.69184C11.7804 7.69128 11.7816 7.69063 11.783 7.68987C11.7859 7.68836 11.7895 7.68644 11.7938 7.68412C11.8024 7.67947 11.8139 7.6732 11.8281 7.6653C11.8565 7.64949 11.8958 7.62714 11.9446 7.59819C12.0422 7.54033 12.1781 7.45589 12.3412 7.34448C12.6668 7.12216 13.1049 6.78957 13.5641 6.34293C14.4791 5.45301 15.5086 4.07917 15.8548 2.19844L14.3796 1.92689ZM14.0249 1.61823C14.1532 1.61823 14.2581 1.6712 14.3195 1.73619C14.3747 1.79459 14.3926 1.85601 14.3796 1.92689L15.8548 2.19844C16.0769 0.991832 15.0556 0.118225 14.0249 0.118225V1.61823ZM11.7411 2.60429C11.8612 1.99927 12.3205 1.61823 12.7624 1.61823V0.118225C11.437 0.118225 10.4939 1.18368 10.2698 2.31212L11.7411 2.60429ZM5.76802 11.3574L6.71337 12.3028L7.77405 11.2421L6.82871 10.2967L5.76802 11.3574ZM7.77405 12.3028L10.2317 9.84502L9.17098 8.78439L6.71336 11.2421L7.77405 12.3028ZM12.0681 10.314C12.0681 12.5605 10.2469 14.3817 8.00032 14.3817V15.8817C11.0753 15.8817 13.5681 13.3889 13.5681 10.314H12.0681ZM8.00032 14.3817C5.75378 14.3817 3.9326 12.5605 3.9326 10.314H2.4326C2.4326 13.3889 4.92535 15.8817 8.00032 15.8817V14.3817ZM3.9326 10.314C3.9326 8.06743 5.75378 6.24624 8.00032 6.24624V4.74624C4.92535 4.74624 2.4326 7.239 2.4326 10.314H3.9326ZM8.00032 6.24624C10.2469 6.24624 12.0681 8.06743 12.0681 10.314H13.5681C13.5681 7.239 11.0753 4.74624 8.00032 4.74624V6.24624Z"
    fill="currentColor"
  />
</svg>
