<svg width="32" height="32" viewBox="0 0 32 32" fill="none" xmlns="http://www.w3.org/2000/svg" data-fui-icon="true">
  <path
    fill-rule="evenodd"
    clip-rule="evenodd"
    d="M21.958 2.05316C24.01 1.53759 25.9998 3.08976 26 5.20551V9.34588C26 9.42713 26.0603 9.49393 26.1406 9.50629C26.6548 9.58547 27.3529 9.74504 28.0605 10.0717C28.7701 10.3994 29.5118 10.9055 30.0752 11.686C30.6442 12.4742 30.999 13.4978 30.999 14.7973C30.999 16.0967 30.6441 17.1204 30.0752 17.9086C29.5118 18.689 28.77 19.1952 28.0605 19.5229C27.3529 19.8496 26.6548 20.0091 26.1406 20.0883C26.0604 20.1007 26 20.1664 26 20.2476V24.3686C25.9997 26.4946 23.9916 28.048 21.9336 27.5141L11.3753 24.7746C11.1854 24.7253 11 24.8687 11 25.065V29.2504C10.9996 29.6643 10.664 30.0004 10.25 30.0004C9.83603 30.0004 9.5004 29.6643 9.5 29.2504V24.5197C9.5 24.383 9.40761 24.2636 9.27531 24.2293L4.18262 22.9086C2.30883 22.4223 1.00016 20.7312 1 18.7953V10.6342C1.00017 8.68627 2.32472 6.98709 4.21387 6.51215L21.958 2.05316ZM24.5 5.20551C24.4998 4.06633 23.4281 3.23061 22.3232 3.50824L9.7269 6.67291C9.59352 6.70643 9.5 6.82634 9.5 6.96387V22.7192C9.49999 22.7301 9.50648 22.7397 9.51701 22.7424L22.3105 26.062C23.4186 26.3494 24.4997 25.5132 24.5 24.3686V19.5082C24.4966 19.4791 24.4941 19.4494 24.4941 19.4194C24.4941 19.3889 24.4965 19.359 24.5 19.3295V10.2651C24.4965 10.2356 24.4941 10.2056 24.4941 10.1752C24.4941 10.1448 24.4965 10.1149 24.5 10.0854V5.20551ZM4.58008 7.96625C3.35759 8.27346 2.50017 9.37374 2.5 10.6342V18.7953C2.50016 20.0479 3.34715 21.1418 4.55957 21.4565L7.62466 22.2517C7.81464 22.301 8 22.1576 8 21.9613V7.49159C8 7.29626 7.81632 7.15303 7.62689 7.20063L4.58008 7.96625ZM26 18.2345C26 18.4201 26.167 18.5617 26.348 18.521C26.6843 18.4454 27.0604 18.332 27.4316 18.1606C27.973 17.9106 28.4836 17.5498 28.8584 17.0307C29.2277 16.519 29.499 15.8085 29.499 14.7973C29.499 13.786 29.2277 13.0755 28.8584 12.5639C28.4836 12.0449 27.9739 11.684 27.4326 11.434C27.0612 11.2625 26.6846 11.1486 26.348 11.0727C26.1669 11.0319 26 11.1735 26 11.3591V18.2345Z"
    fill="currentColor"
  />
</svg>
