<svg width="20" height="20" viewBox="0 0 20 20" fill="none" xmlns="http://www.w3.org/2000/svg" data-fui-icon="true">
  <path
    fill-rule="evenodd"
    clip-rule="evenodd"
    d="M12.7207 1.14039C14.3371 0.610391 15.9997 1.81438 16 3.51539V5.59225C16 5.73501 16.1009 5.85695 16.2392 5.89227C16.4977 5.95827 16.7896 6.05615 17.085 6.20386C17.5487 6.43584 18.0354 6.79589 18.4043 7.34937C18.7763 7.90763 18.998 8.61881 18.998 9.49976C18.998 10.3807 18.7762 11.0918 18.4043 11.6502C18.0354 12.2037 17.5487 12.5636 17.085 12.7957C16.7896 12.9434 16.4977 13.0413 16.2392 13.1073C16.1009 13.1426 16 13.2645 16 13.4073V15.4646C15.9996 17.1739 14.3221 18.3792 12.7021 17.8337L8.39577 16.3831C8.20134 16.3176 8 16.4622 8 16.6674V18.2498C8 18.664 7.66421 18.9998 7.25 18.9998C6.83579 18.9998 6.5 18.664 6.5 18.2498V15.9595C6.5 15.8307 6.41778 15.7162 6.2957 15.6751L3.21289 14.6375C1.89101 14.1922 1.00031 12.9522 1 11.5574V7.33765C1.00015 5.93309 1.90268 4.68746 3.2373 4.24976L12.7207 1.14039ZM14.5 3.51539C14.4997 2.83517 13.8349 2.35334 13.1885 2.56519L6.70652 4.69083C6.58331 4.73123 6.5 4.84622 6.5 4.97589V14.1414C6.5 14.153 6.5056 14.1634 6.51666 14.1672L13.1807 16.4119C13.8285 16.63 14.4996 16.1481 14.5 15.4646V3.51539ZM3.70508 5.67554C2.98648 5.91121 2.50015 6.58141 2.5 7.33765V11.5574C2.50031 12.3083 2.97973 12.9758 3.69141 13.2156L4.6043 13.5228C4.79872 13.5883 5 13.4436 5 13.2385V5.66488C5 5.46072 4.80048 5.31619 4.60649 5.37983L3.70508 5.67554ZM16 11.2115C16 11.4131 16.1962 11.5585 16.378 11.4715C16.3901 11.4657 16.4021 11.4599 16.4141 11.4539C16.6997 11.3109 16.9631 11.108 17.1562 10.8181C17.3462 10.5327 17.498 10.1182 17.498 9.49976C17.498 8.88138 17.3463 8.46672 17.1562 8.1814C16.9631 7.89161 16.6996 7.68857 16.4141 7.54566C16.4019 7.5396 16.3898 7.53365 16.3777 7.52783C16.1959 7.44069 16 7.58536 16 7.78696V11.2115Z"
    fill="currentColor"
  />
</svg>
