<svg width="24" height="24" viewBox="0 0 24 24" fill="none" xmlns="http://www.w3.org/2000/svg" data-fui-icon="true">
  <path
    fill-rule="evenodd"
    clip-rule="evenodd"
    d="M14.7988 1.51358C16.8876 0.874595 18.9999 2.43762 19 4.62198V6.77725C19.0001 6.79875 19.0159 6.81672 19.0371 6.82022C19.4487 6.88781 20.0141 7.0244 20.5908 7.3085C21.171 7.59439 21.7842 8.04001 22.25 8.72842C22.7205 9.42395 22.9999 10.3085 23 11.3983C22.9999 12.4881 22.7204 13.3728 22.25 14.0683C21.7842 14.7566 21.1709 15.2023 20.5908 15.4882C20.0141 15.7723 19.4487 15.9098 19.0371 15.9774C19.016 15.9809 19.0002 15.9981 19 16.0194V18.1884C18.9999 20.3842 16.8667 21.948 14.7725 21.288L10.3906 19.9052C10.1974 19.8442 10.0001 19.9887 10 20.1913V21.4999C9.99974 22.3281 9.32826 22.9999 8.5 22.9999C7.67174 22.9999 7.00026 22.3281 7 21.4999V3.9003L14.7988 1.51358ZM4 17.8905L3.79688 17.8271C2.13219 17.302 1.00009 15.7581 1 14.0126V8.6962C1.00009 6.9381 2.148 5.38558 3.8291 4.871L4 4.81827V17.8905Z"
    fill="currentColor"
  />
</svg>
