<svg width="16" height="16" viewBox="0 0 16 16" fill="none" xmlns="http://www.w3.org/2000/svg" data-fui-icon="true">
  <path
    d="M10.4714 1.06003C11.744 0.711511 12.9996 1.66911 12.9996 2.98868V12.9981C12.9994 14.3239 11.7327 15.2827 10.4567 14.9229L6.8813 13.9134C6.68987 13.8594 6.4998 14.0032 6.4998 14.2021V15.25C6.49949 15.664 6.16383 16 5.74982 16C5.33582 16 5.00016 15.664 4.99985 15.25V13.4766C4.99985 13.4469 5.00192 13.417 5.00532 13.3881C5.00554 13.3862 5.00441 13.3844 5.00259 13.3838C5.00095 13.3833 4.99985 13.3817 4.99985 13.38V2.78693C4.99985 2.65175 5.09025 2.53328 5.22062 2.49758L10.4714 1.06003ZM3.49989 12.563C3.49989 12.7618 3.30998 12.9056 3.1186 12.8517L1.82123 12.4864C0.744176 12.1825 0.000130014 11.1993 0 10.0803V5.83527C7.89505e-06 4.70898 0.753529 3.72179 1.83979 3.42421L3.12059 3.07312C3.31152 3.02078 3.49989 3.16447 3.49989 3.36244V12.563ZM14.4996 5.86518C14.4996 5.6411 14.7358 5.49904 14.9156 5.63279C15.1323 5.79402 15.3408 5.99842 15.5171 6.25713C15.8214 6.70395 15.9995 7.26819 15.9995 7.95337C15.9992 9.09869 15.5081 9.8428 14.921 10.301C14.7417 10.4409 14.4996 10.2998 14.4996 10.0724V5.86518Z"
    fill="currentColor"
  />
</svg>
