<svg width="12" height="12" viewBox="0 0 12 12" fill="none" xmlns="http://www.w3.org/2000/svg" data-fui-icon="true">
  <path
    d="M9.5 0C10.6046 0 11.5 0.895431 11.5 2V10C11.5 11.1046 10.6046 12 9.5 12C8.39543 12 7.5 11.1046 7.5 10V9.80762L4.75 8.9834V11.25C4.75 11.6642 4.41421 12 4 12C3.58579 12 3.25 11.6642 3.25 11.25V8.5332L1.5 8.00781V8.75C1.5 9.16421 1.16421 9.5 0.75 9.5C0.335786 9.5 0 9.16421 0 8.75V3.25C0 2.83579 0.335786 2.5 0.75 2.5C1.16421 2.5 1.5 2.83579 1.5 3.25V3.49121L7.52734 1.68262C7.67957 0.729053 8.50356 0 9.5 0ZM9.5 1.5C9.22386 1.5 9 1.72386 9 2V10C9 10.2761 9.22386 10.5 9.5 10.5C9.77614 10.5 10 10.2761 10 10V2C10 1.72386 9.77614 1.5 9.5 1.5ZM1.5 5.05762V6.44141L7.5 8.24121V3.25781L1.5 5.05762Z"
    fill="currentColor"
  />
</svg>
