<svg
  width="12"
  height="12"
  viewBox="0 0 12 12"
  fill="none"
  xmlns="http://www.w3.org/2000/svg"
  data-fui-icon="true"
>
  <path
    fill-rule="evenodd"
    clip-rule="evenodd"
    d="M9.00006 1.99996C9.00006 1.72382 9.22391 1.49997 9.50005 1.49997C9.77619 1.49997 10 1.72382 10 1.99996V9.9998C10 10.2759 9.77619 10.4998 9.50005 10.4998C9.22391 10.4998 9.00006 10.2759 9.00006 9.9998V9.26666C9.00033 9.25521 9.00032 9.24377 9.00006 9.23238V2.26745C9.00032 2.25605 9.00033 2.24462 9.00006 2.23316V1.99996ZM7.52482 1.68458C7.67605 0.72988 8.50281 0 9.50005 0C10.6046 0 11.5 0.895412 11.5 1.99996V9.9998C11.5 11.1043 10.6046 11.9998 9.50005 11.9998C8.3955 11.9998 7.50009 11.1043 7.50009 9.9998V9.80783L4.75015 8.98285V11.2498C4.75015 11.664 4.41437 11.9998 4.00016 11.9998C3.58596 11.9998 3.25018 11.664 3.25018 11.2498V8.53287L1.50021 8.00789V8.74982C1.50021 9.16403 1.16443 9.49981 0.750229 9.49981C0.336024 9.49981 0.000244136 9.16403 0.000244136 8.74982V7.01736C-1.98201e-05 7.00594 -2.1235e-05 6.99448 0.000244136 6.98299V4.51683C-2.1235e-05 4.50534 -1.98201e-05 4.49388 0.000244136 4.48246V3.24993C0.000244136 2.83573 0.336024 2.49995 0.750229 2.49995C1.16443 2.49995 1.50021 2.83573 1.50021 3.24993V3.49194L7.52482 1.68458ZM7.50009 3.25801L1.50021 5.05795V6.44187L7.50009 8.24181V3.25801Z"
    fill="currentColor"
  />
</svg>
