<svg width="12" height="12" viewBox="0 0 12 12" fill="none" xmlns="http://www.w3.org/2000/svg" data-fui-icon="true">
  <path
    fill-rule="evenodd"
    clip-rule="evenodd"
    d="M7.80176 0.857288C8.91183 0.563474 9.99969 1.40048 10 2.54869V3.61482C10 3.68942 10.0609 3.74867 10.1343 3.76201C10.1386 3.76278 10.1429 3.7636 10.1472 3.76446C10.1474 3.7645 10.1476 3.76451 10.1477 3.76451C10.1482 3.76451 10.1486 3.76462 10.1491 3.76482L10.1494 3.765C10.1501 3.76532 10.1508 3.76549 10.1515 3.76549H10.1524C10.153 3.76549 10.1536 3.76555 10.1542 3.76568C10.1565 3.76618 10.1594 3.76685 10.1621 3.76744C10.1683 3.76879 10.1759 3.77031 10.1846 3.77233C10.2018 3.77636 10.2239 3.78185 10.25 3.78893C10.3022 3.80311 10.372 3.82459 10.4531 3.85436C10.6136 3.91321 10.832 4.01091 11.0547 4.16686C11.5174 4.49095 11.9989 5.07505 11.999 5.99987C11.999 6.92478 11.5175 7.50877 11.0547 7.83287C10.8319 7.98885 10.6136 8.08652 10.4531 8.14537C10.3719 8.17515 10.3022 8.19662 10.25 8.2108C10.2239 8.21788 10.2018 8.22337 10.1846 8.22741C10.1759 8.22942 10.1683 8.23094 10.1621 8.23229C10.1593 8.23288 10.1565 8.23355 10.1542 8.23406C10.1536 8.23418 10.153 8.23424 10.1524 8.23424H10.1515C10.1508 8.23424 10.1501 8.23441 10.1494 8.23473L10.1491 8.23491C10.1486 8.23511 10.1482 8.23522 10.1477 8.23522C10.1476 8.23522 10.1474 8.23524 10.1472 8.23527C10.1429 8.23613 10.1386 8.23694 10.1343 8.2377C10.0609 8.2508 10 8.3093 10 8.38385V9.45104C9.9998 10.5994 8.91189 11.4363 7.80176 11.1424L5.87678 10.6328C5.68645 10.5824 5.5 10.7259 5.5 10.9228V11.2499C5.5 11.6641 5.16421 11.9999 4.75 11.9999C4.33579 11.9999 4 11.6641 4 11.2499V10.3666C4 10.2304 3.90832 10.1114 3.77671 10.0766L1.67383 9.52037C0.687246 9.25902 0.000137583 8.36619 0 7.34557V4.65416C0.00021306 3.6336 0.687279 2.74069 1.67383 2.47936L7.80176 0.857288ZM8.18555 2.30748L4.22327 3.35583C4.09166 3.39065 4 3.50972 4 3.64585V8.35295C4 8.48906 4.09163 8.60812 4.2232 8.64296L8.18555 9.69225C8.34405 9.7342 8.4998 9.61494 8.5 9.45104V2.54869C8.49969 2.38489 8.34398 2.26557 8.18555 2.30748ZM2.05762 3.92955C1.72905 4.01675 1.50021 4.31422 1.5 4.65416V7.34557C1.50014 7.68557 1.72902 7.98295 2.05762 8.07018L2.12378 8.08756C2.31397 8.13752 2.5 7.99405 2.5 7.7974V4.20218C2.5 4.00528 2.31352 3.86176 2.12318 3.91219L2.05762 3.92955ZM10 6.48834C10 6.59298 10.1086 6.66437 10.1943 6.60436C10.3562 6.491 10.499 6.32491 10.499 5.99987C10.499 5.67491 10.3562 5.50874 10.1943 5.39537C10.1084 5.33523 10 5.406 10 5.51088V6.48834Z"
    fill="currentColor"
  />
</svg>
