<svg width="32" height="32" viewBox="0 0 32 32" fill="none" xmlns="http://www.w3.org/2000/svg" data-fui-icon="true">
  <path
    fill-rule="evenodd"
    clip-rule="evenodd"
    d="M21.958 2.05263C24.0099 1.53716 25.9995 3.08946 26 5.20498V24.3681C25.9997 26.4941 23.9916 28.0475 21.9336 27.5136L11.375 24.7743C11.1853 24.7253 11.0003 24.8684 11 25.0644V29.2499C10.9996 29.6638 10.664 29.9999 10.25 29.9999C9.83603 29.9999 9.5004 29.6638 9.5 29.2499V5.18252L21.958 2.05263ZM8 23.8983L4.18262 22.9081C2.30888 22.4218 1.00016 20.7307 1 18.7948V10.6337C1.00034 8.6859 2.32484 6.98653 4.21387 6.51162L8 5.55947V23.8983ZM27.5 9.84463C27.6839 9.90958 27.872 9.98416 28.0605 10.0712C28.77 10.3988 29.5118 10.9051 30.0752 11.6854C30.6441 12.4736 30.9989 13.4975 30.999 14.7968C30.999 16.096 30.644 17.1199 30.0752 17.9081C29.5119 18.6884 28.7699 19.1937 28.0605 19.5214C27.872 19.6084 27.6838 19.6829 27.5 19.7479V9.84463Z"
    fill="currentColor"
  />
</svg>
