<svg width="24" height="24" viewBox="0 0 24 24" fill="none" xmlns="http://www.w3.org/2000/svg" data-fui-icon="true">
  <path
    fill-rule="evenodd"
    clip-rule="evenodd"
    d="M16.2324 1.6044C18.1355 1.1008 19.9999 2.53519 20 4.50381V19.3124C19.9993 21.2896 18.1187 22.7266 16.2109 22.2069L8.87895 20.2068C8.68811 20.1547 8.5 20.2984 8.5 20.4962V23.2499C8.49976 23.6639 8.16407 23.9999 7.75 23.9999C7.33593 23.9999 7.00024 23.6639 7 23.2499V4.27869C7 4.14256 7.09165 4.0235 7.22325 3.98867L16.2324 1.6044ZM5.5 18.8924C5.5 19.0902 5.31199 19.2339 5.12118 19.1819L2.76367 18.5399C1.1324 18.0951 0.000385348 16.6125 0 14.9218V8.78701C0.000106784 7.08576 1.1455 5.59754 2.79004 5.16201L5.12319 4.54404C5.31353 4.49363 5.5 4.63714 5.5 4.83404V18.8924ZM21.5859 8.0458C22.1637 8.31263 22.7727 8.72747 23.2373 9.371C23.7074 10.0223 23.997 10.8628 23.9971 11.9188C23.997 12.9749 23.7075 13.8164 23.2373 14.4677C22.7727 15.111 22.1636 15.5261 21.5859 15.7929C21.546 15.8113 21.5 15.7797 21.5 15.7358V8.10172C21.5 8.05742 21.5457 8.02723 21.5859 8.0458Z"
    fill="currentColor"
  />
</svg>
