<svg width="12" height="12" viewBox="0 0 12 12" fill="none" xmlns="http://www.w3.org/2000/svg" data-fui-icon="true">
  <path
    fill-rule="evenodd"
    clip-rule="evenodd"
    d="M7.80172 0.857485C8.91185 0.563628 9.99975 1.40058 9.99995 2.54888V9.45119C9.9997 10.5995 8.91182 11.4364 7.80172 11.1426L5.87692 10.6328C5.6866 10.5824 5.49999 10.726 5.49997 10.9229V11.25C5.49993 11.6642 5.16416 12 4.74998 12C4.33579 12 4.00002 11.6642 3.99998 11.25V1.86334L7.80172 0.857485ZM2.49999 9.7383L1.67382 9.52053C0.687247 9.25919 0.000174023 8.36633 0 7.34573V4.65434C0.000138386 3.63372 0.687233 2.7409 1.67382 2.47955L2.49999 2.2608V9.7383ZM11.4999 4.57915C11.7811 4.917 11.9989 5.38132 11.999 6.00004C11.9989 6.61846 11.7809 7.08216 11.4999 7.41995V4.57915Z"
    fill="currentColor"
  />
</svg>
