<svg width="12" height="12" viewBox="0 0 12 12" fill="none" xmlns="http://www.w3.org/2000/svg" data-fui-icon="true">
  <path
    d="M7.45898 0.144531C8.73455 -0.21384 9.99986 0.745297 10 2.07031V2.96387C10 3.00341 10.0273 3.03747 10.0654 3.04785C10.1238 3.06369 10.2012 3.08751 10.29 3.12012C10.4648 3.18428 10.7036 3.29062 10.9482 3.46191C11.4611 3.82113 11.9989 4.4753 11.999 5.5C11.999 6.52477 11.4612 7.17888 10.9482 7.53809C10.7033 7.70956 10.4639 7.81574 10.2891 7.87988C10.2003 7.91242 10.1237 7.93633 10.0654 7.95215C10.0274 7.96246 10.0001 7.99578 10 8.03516V8.92969C9.99998 10.2548 8.73462 11.2139 7.45898 10.8555L6.38184 10.5518C6.19043 10.4978 6 10.642 6 10.8408V11C5.99998 11.5523 5.55227 12 5 12C4.44773 12 4.00002 11.5523 4 11V1.11719L7.45898 0.144531ZM2 9.31934L1.82324 9.27051C0.745086 8.96725 1.73922e-05 7.98328 0 6.86328V4.13672C9.76255e-05 3.01678 0.745118 2.03272 1.82324 1.72949L2 1.67969V9.31934Z"
    fill="currentColor"
  />
</svg>
3692C0 3.01692 0.745041 2.03299 1.82321 1.72974L7.45883 0.144816ZM4.96876 2.92214C4.83933 2.9585 4.7499 3.07652 4.7499 3.21095V7.78849C4.7499 7.92289 4.83929 8.04089 4.96868 8.07728L7.61862 8.82258C7.80999 8.8764 7.99984 8.73258 7.99984 8.53379V2.46645C7.99984 2.26769 7.81005 2.12388 7.6187 2.17764L4.96876 2.92214ZM2.36421 3.65549C2.14881 3.71628 1.99996 3.91307 1.99996 4.13692V6.86343C2 7.08725 2.14883 7.28409 2.36421 7.34486L2.36879 7.34615C2.56015 7.39993 2.74994 7.25611 2.74994 7.05734V3.943C2.74994 3.74394 2.55962 3.60008 2.36811 3.65438L2.36421 3.65549Z"
    fill="currentColor"
  />
</svg>
