<svg width="24" height="24" viewBox="0 0 24 24" fill="none" xmlns="http://www.w3.org/2000/svg" data-fui-icon="true">
  <path
    fill-rule="evenodd"
    clip-rule="evenodd"
    d="M14.7988 1.5137C16.8876 0.874717 18.9999 2.43774 19 4.6221V6.77737C19.0001 6.79887 19.0159 6.81684 19.0371 6.82034C19.4487 6.88793 20.0141 7.02453 20.5908 7.30862C21.171 7.59451 21.7842 8.04013 22.25 8.72855C22.7205 9.42407 22.9999 10.3086 23 11.3985C22.9999 12.4883 22.7204 13.3729 22.25 14.0684C21.7842 14.7567 21.1709 15.2024 20.5908 15.4883C20.0141 15.7724 19.4487 15.91 19.0371 15.9776C19.016 15.981 19.0002 15.9982 19 16.0196V18.1885C18.9999 20.3843 16.8667 21.9481 14.7725 21.2881L10.3906 19.9053C10.1974 19.8443 10.0001 19.9888 10 20.1914V21.5C9.99974 22.3282 9.32826 23 8.5 23C7.67174 23 7.00026 22.3282 7 21.5V3.90042L14.7988 1.5137ZM4 17.8907L3.79688 17.8272C2.13219 17.3021 1.00009 15.7583 1 14.0127V8.69632C1.00009 6.93823 2.148 5.38571 3.8291 4.87112L4 4.81839V17.8907Z"
    fill="currentColor"
  />
</svg>
71 3.18139 15.3838 3.42705L7.21222 5.92755C7.08612 5.96613 7 6.08254 7 6.21442V16.5206C7 16.6515 7.08491 16.7673 7.20978 16.8067L15.374 19.3812C16.1794 19.6348 16.9999 19.0332 17 18.1888V4.62237ZM4.41504 6.78448C3.57444 7.04176 3.00002 7.8175 3 8.69659V14.013C3.00009 14.8857 3.56611 15.6577 4.39844 15.9202L4.60988 15.9868C4.80319 16.0477 5 15.9033 5 15.7007V7.01078C5 6.809 4.8048 6.66475 4.61191 6.724L4.41504 6.78448ZM19 13.5624C19 13.7566 19.1824 13.9007 19.3658 13.8365C19.4785 13.797 19.593 13.7503 19.7061 13.6946C20.0512 13.5246 20.3644 13.2857 20.5928 12.9485C20.8164 12.618 20.9999 12.1326 21 11.3987C21 10.665 20.8163 10.1804 20.5928 9.84991C20.3645 9.51254 20.0513 9.27394 19.7061 9.10381C19.5928 9.04803 19.4782 9.00084 19.3654 8.96092C19.1823 8.89611 19 9.03986 19 9.2341V13.5624Z"
    fill="currentColor"
  />
</svg>
