<svg width="24" height="24" viewBox="0 0 24 24" fill="none" xmlns="http://www.w3.org/2000/svg" data-fui-icon="true">
  <path
    fill-rule="evenodd"
    clip-rule="evenodd"
    d="M16.2324 1.60415C18.1355 1.10055 19.9999 2.53495 20 4.50357V7.55407C20 7.56994 20.0117 7.58318 20.0273 7.5856C20.4429 7.64955 21.0096 7.77943 21.5859 8.04556C22.1638 8.31239 22.7727 8.72715 23.2373 9.37075C23.7075 10.0221 23.997 10.8624 23.9971 11.9186C23.9971 12.9749 23.7075 13.816 23.2373 14.4674C22.7727 15.1109 22.1637 15.5258 21.5859 15.7926C21.0096 16.0588 20.4429 16.1886 20.0273 16.2526C20.0117 16.255 20 16.2672 20 16.283V19.3122C19.9996 21.2897 18.1189 22.7265 16.2109 22.2067L8.87895 20.2066C8.68811 20.1545 8.5 20.2982 8.5 20.496V23.2497C8.5 23.6639 8.16421 23.9997 7.75 23.9997C7.33579 23.9997 7 23.6639 7 23.2497V19.9232C7 19.7879 6.90942 19.6693 6.77887 19.6337L2.76367 18.5397C1.13226 18.0948 0.000190562 16.6125 0 14.9215V8.78677C0.000106786 7.08548 1.14544 5.59726 2.79004 5.16177L16.2324 1.60415ZM18.5 4.50357C18.4999 3.51941 17.5676 2.80179 16.6162 3.05337L7.22325 5.53921C7.09165 5.57404 7 5.6931 7 5.82923V17.9102C7 18.0455 7.09054 18.164 7.22105 18.1996L16.6055 20.7594C17.5593 21.0191 18.4996 20.3007 18.5 19.3122V4.50357ZM3.17383 6.61196C2.18721 6.87332 1.50011 7.76611 1.5 8.78677V14.9215C1.50019 15.936 2.17941 16.8255 3.1582 17.0924L5.12118 17.627C5.31199 17.6789 5.5 17.5353 5.5 17.3375V6.38557C5.5 6.18867 5.31352 6.04515 5.12318 6.09557L3.17383 6.61196ZM20 14.3674C20 14.5563 20.1728 14.699 20.3549 14.6488C20.5497 14.5952 20.7547 14.5247 20.957 14.4313C21.3669 14.242 21.7453 13.972 22.0215 13.5895C22.292 13.2147 22.4971 12.6867 22.4971 11.9186C22.497 11.1508 22.2919 10.6234 22.0215 10.2487C21.7453 9.86614 21.3669 9.59614 20.957 9.40689C20.7547 9.31345 20.5497 9.24234 20.355 9.18817C20.173 9.13752 20 9.28012 20 9.46911V14.3674Z"
    fill="currentColor"
  />
</svg>
