<svg width="20" height="20" viewBox="0 0 20 20" fill="none" xmlns="http://www.w3.org/2000/svg" data-fui-icon="true">
  <path
    fill-rule="evenodd"
    clip-rule="evenodd"
    d="M13.3516 1.36711C14.9394 0.940914 16.4997 2.13718 16.5 3.78118V16.2001C16.5 17.8521 14.9262 19.0503 13.334 18.6103L7.88 17.1012C7.68891 17.0483 7.5 17.192 7.5 17.3903V19.2499C7.49987 19.664 7.16413 19.9999 6.75 19.9999C6.33587 19.9999 6.00013 19.664 6 19.2499V3.56988C6 3.43414 6.09115 3.31531 6.22225 3.28013L13.3516 1.36711ZM4.5 15.7727C4.5 15.971 4.31115 16.1147 4.12007 16.0619L2.38379 15.582C0.975501 15.1925 0.000169716 13.9113 0 12.4501V7.44328C0.000198525 5.9731 0.987311 4.68584 2.40723 4.30461L4.12213 3.84368C4.31272 3.79245 4.5 3.93604 4.5 4.13339V15.7727ZM18 7.202C18 6.98092 18.2307 6.8374 18.4171 6.95629C18.752 7.16989 19.0786 7.45222 19.3486 7.8261C19.7529 8.38622 19.998 9.10599 19.998 9.99992C19.998 10.8938 19.7528 11.6127 19.3486 12.1728C19.0786 12.5469 18.752 12.8296 18.4171 13.0434C18.2307 13.1624 18 13.0189 18 12.7978V7.202Z"
    fill="currentColor"
  />
</svg>
