<svg width="24" height="24" viewBox="0 0 24 24" fill="none" xmlns="http://www.w3.org/2000/svg" data-fui-icon="true">
  <path
    fill-rule="evenodd"
    clip-rule="evenodd"
    d="M15.0938 1.46341C17.0278 0.850879 19 2.295 19 4.32376V18.4165C18.9997 20.4489 17.0205 21.8935 15.085 21.274L8.3916 19.1284C8.198 19.0664 8 19.2113 8 19.4146V22.2505C7.99967 22.6645 7.66401 23.0005 7.25 23.0005C6.83599 23.0005 6.50033 22.6645 6.5 22.2505V4.18509L15.0938 1.46341ZM5 18.0406L3.60547 17.5952C2.05329 17.0978 1.00023 15.6539 1 14.024V8.67434C1.00004 7.03969 2.05891 5.59293 3.61719 5.09915L5 4.66067V18.0406ZM20.6826 7.53372C21.2335 7.80516 21.8099 8.22497 22.2461 8.86966C22.6856 9.51952 22.9531 10.3537 22.9531 11.399C22.953 12.4444 22.6858 13.2793 22.2461 13.9292C21.8099 14.5738 21.2335 14.9938 20.6826 15.2652C20.6217 15.2952 20.5605 15.3225 20.5 15.3491V7.44876C20.5606 7.47545 20.6216 7.50368 20.6826 7.53372Z"
    fill="currentColor"
  />
</svg>
