<svg width="12" height="12" viewBox="0 0 12 12" fill="none" xmlns="http://www.w3.org/2000/svg" data-fui-icon="true">
  <path
    fill-rule="evenodd"
    clip-rule="evenodd"
    d="M7.45883 0.144816C8.73446 -0.213612 9.9998 0.745435 9.9998 2.07056V2.96397C9.9998 3.00353 10.027 3.03772 10.0652 3.04808C10.1236 3.06392 10.2009 3.08773 10.2898 3.12034C10.4647 3.18452 10.7033 3.2908 10.948 3.46213C11.4609 3.82137 11.9988 4.47538 11.9988 5.50018C11.9987 6.52495 11.4609 7.17904 10.948 7.53822C10.7031 7.7097 10.4637 7.81587 10.2889 7.88001C10.2001 7.91256 10.1235 7.93646 10.0652 7.95227C10.0272 7.9626 9.9998 7.99575 9.9998 8.03517V8.92979C9.99973 10.2549 8.73442 11.2139 7.45883 10.8555L6.38124 10.5519C6.18984 10.4979 5.99988 10.6418 5.99988 10.8406V11.0001C5.99982 11.5523 5.55214 12 4.9999 12C4.44766 12 3.99997 11.5523 3.99992 11.0001V10.0001C3.99992 9.93298 3.95923 9.87053 3.89462 9.85238L1.82321 9.27061C0.74506 8.96738 4.46158e-05 7.9834 0 6.86343V4.13692C0 3.01692 0.745041 2.03299 1.82321 1.72974L7.45883 0.144816ZM4.96876 2.92214C4.83933 2.9585 4.7499 3.07652 4.7499 3.21095V7.78849C4.7499 7.92289 4.83929 8.04089 4.96868 8.07728L7.61862 8.82258C7.80999 8.8764 7.99984 8.73258 7.99984 8.53379V2.46645C7.99984 2.26769 7.81005 2.12388 7.6187 2.17764L4.96876 2.92214ZM2.36421 3.65549C2.14881 3.71628 1.99996 3.91307 1.99996 4.13692V6.86343C2 7.08725 2.14883 7.28409 2.36421 7.34486L2.36879 7.34615C2.56015 7.39993 2.74994 7.25611 2.74994 7.05734V3.943C2.74994 3.74394 2.55962 3.60008 2.36811 3.65438L2.36421 3.65549Z"
    fill="currentColor"
  />
</svg>
