<svg width="24" height="24" viewBox="0 0 24 24" fill="none" xmlns="http://www.w3.org/2000/svg" data-fui-icon="true">
  <path
    fill-rule="evenodd"
    clip-rule="evenodd"
    d="M14.7988 1.51391C16.8876 0.874871 19 2.43785 19 4.62231V6.77712C19 6.79875 19.0158 6.81704 19.0371 6.82055C19.4487 6.88814 20.0141 7.02471 20.5908 7.30883C21.171 7.59473 21.7842 8.04027 22.25 8.72875C22.7205 9.42431 23 10.3087 23 11.3987C22.9999 12.4885 22.7205 13.3731 22.25 14.0686C21.7842 14.7569 21.1709 15.2026 20.5908 15.4885C20.0141 15.7726 19.4487 15.9102 19.0371 15.9778C19.0158 15.9813 19 15.9985 19 16.0201V18.1887C18.9999 20.3845 16.8667 21.9483 14.7725 21.2883L9.39022 19.5911C9.19689 19.5301 9 19.6745 9 19.8772V22.0002C8.99974 22.5523 8.55212 23.0002 8 23.0002C7.44788 23.0002 7.00026 22.5523 7 22.0002V19.0571C7 18.9262 6.91508 18.8104 6.7902 18.771L3.79688 17.8274C2.13217 17.3023 1.00009 15.7585 1 14.0129V8.69653C1.00002 6.93837 2.14794 5.38593 3.8291 4.87133L14.7988 1.51391ZM17 4.62231C17 3.78218 16.1871 3.18132 15.3838 3.42699L7.21222 5.92748C7.08612 5.96607 7 6.08248 7 6.21435V16.5205C7 16.6514 7.08491 16.7672 7.20978 16.8066L15.374 19.3811C16.1794 19.6348 16.9999 19.0331 17 18.1887V4.62231ZM4.41504 6.78442C3.57444 7.0417 3.00002 7.81744 3 8.69653V14.0129C3.00009 14.8857 3.56611 15.6576 4.39844 15.9202L4.60988 15.9867C4.80319 16.0476 5 15.9033 5 15.7006V7.01072C5 6.80893 4.8048 6.66469 4.61191 6.72394L4.41504 6.78442ZM19 13.5623C19 13.7566 19.1824 13.9006 19.3658 13.8364C19.4785 13.797 19.593 13.7503 19.7061 13.6946C20.0512 13.5245 20.3644 13.2856 20.5928 12.9485C20.8164 12.618 20.9999 12.1326 21 11.3987C21 10.6649 20.8163 10.1803 20.5928 9.84984C20.3645 9.51248 20.0513 9.27388 19.7061 9.10375C19.5928 9.04797 19.4782 9.00078 19.3654 8.96086C19.1823 8.89605 19 9.0398 19 9.23404V13.5623Z"
    fill="currentColor"
  />
</svg>
