<svg width="32" height="32" viewBox="0 0 32 32" fill="none" xmlns="http://www.w3.org/2000/svg" data-fui-icon="true">
  <path
    fill-rule="evenodd"
    clip-rule="evenodd"
    d="M21.6299 1.83326C23.8441 1.26492 25.9998 2.93696 26 5.22291V9.09063C26 9.17601 26.0632 9.24637 26.1475 9.26002C26.6568 9.34255 27.3523 9.5101 28.0596 9.85377C28.77 10.1991 29.5151 10.7341 30.0811 11.5588C30.6524 12.3918 30.9999 13.4609 31 14.7971C31 16.1332 30.6523 17.2015 30.0811 18.0344C29.5151 18.8594 28.7701 19.395 28.0596 19.7405C27.3523 20.0842 26.6568 20.2517 26.1475 20.3342C26.0632 20.3479 26 20.4172 26 20.5025V24.3508C25.9998 26.648 23.8241 28.323 21.6035 27.7346L12.3769 25.2886C12.1865 25.2382 12 25.3817 12 25.5786V29.0003C11.9999 29.5525 11.5522 30.0003 11 30.0003C10.4478 30.0003 10.0001 29.5525 10 29.0003V24.8893C10 24.7532 9.90839 24.6342 9.77684 24.5993L4.34668 23.1604C2.37397 22.6373 1.00026 20.8517 1 18.8108V10.6204C1 8.56624 2.39134 6.77297 4.38086 6.26197L21.6299 1.83326ZM24 5.22291C23.9998 4.24327 23.0759 3.52714 22.127 3.77076L10.2254 6.82521C10.0928 6.85926 10 6.97883 10 7.1158V22.3583C10 22.4944 10.0916 22.6134 10.2231 22.6483L22.1152 25.801C23.0669 26.0533 23.9998 25.3353 24 24.3508V5.22291ZM4.87793 8.1985C3.7728 8.48249 3 9.47929 3 10.6204V18.8108C3.00026 19.9445 3.76352 20.9362 4.85938 21.2268L7.62317 21.959C7.81351 22.0094 8 21.8659 8 21.669V7.78351C8 7.58755 7.81519 7.4442 7.62538 7.49294L4.87793 8.1985ZM26 17.9621C26 18.1509 26.1725 18.2933 26.355 18.2451C26.6195 18.1751 26.9044 18.0778 27.1846 17.9417C27.6625 17.7093 28.1071 17.3781 28.4326 16.9036C28.7527 16.4367 29 15.7712 29 14.7971C28.9999 13.823 28.7528 13.1575 28.4326 12.6907C28.1071 12.2162 27.6626 11.8849 27.1846 11.6526C26.9042 11.5164 26.6194 11.4186 26.355 11.3484C26.1725 11.3 26 11.4424 26 11.6311V17.9621Z"
    fill="currentColor"
  />
</svg>
