<svg width="12" height="12" viewBox="0 0 12 12" fill="none" xmlns="http://www.w3.org/2000/svg" data-fui-icon="true">
  <path
    d="M7.80112 0.857352C8.911 0.563628 9.99873 1.40065 9.99919 2.54862V3.61464C9.99919 3.68922 10.0601 3.7485 10.1335 3.76184C10.1378 3.76262 10.1421 3.76343 10.1464 3.76429C10.1465 3.76432 10.1467 3.76434 10.1469 3.76434C10.1474 3.76434 10.1478 3.76445 10.1482 3.76465L10.1486 3.76483C10.1492 3.76515 10.1499 3.76532 10.1507 3.76532H10.1516C10.1522 3.76532 10.1528 3.76538 10.1534 3.7655C10.1557 3.76601 10.1586 3.76668 10.1613 3.76727C10.1675 3.76861 10.1751 3.77015 10.1837 3.77215C10.201 3.77618 10.2232 3.7817 10.2492 3.78875C10.3013 3.80293 10.3712 3.82445 10.4523 3.85418C10.6126 3.91302 10.8312 4.01081 11.0538 4.16665C11.5164 4.49072 11.9979 5.07503 11.998 5.99951C11.9979 6.92405 11.5165 7.50832 11.0538 7.83237C10.8311 7.98823 10.6127 8.08601 10.4523 8.14484C10.3712 8.17458 10.3014 8.1961 10.2492 8.21027C10.2231 8.21733 10.201 8.22284 10.1837 8.22687C10.1752 8.22887 10.1675 8.23041 10.1613 8.23175C10.1586 8.23234 10.1557 8.23302 10.1534 8.23352C10.1528 8.23364 10.1522 8.2337 10.1516 8.2337H10.1507C10.1499 8.2337 10.1492 8.23387 10.1486 8.23419L10.1482 8.23437C10.1478 8.23458 10.1474 8.23468 10.1469 8.23468C10.1467 8.23468 10.1465 8.2347 10.1464 8.23474C10.1421 8.23559 10.1378 8.2364 10.1335 8.23716C10.0601 8.25026 9.99919 8.30878 9.99919 8.38332V9.4504C9.99874 10.5984 8.91101 11.4354 7.80112 11.1417L5.8763 10.6321C5.68599 10.5817 5.49955 10.7252 5.49955 10.9221V11.2501C5.49908 11.6638 5.1635 12 4.74961 12C4.33572 12 4.00014 11.6638 3.99967 11.2501V2.09406C3.99967 1.95794 4.09133 1.83888 4.22292 1.80406L7.80112 0.857352ZM2.4998 9.3482C2.4998 9.54493 2.3136 9.68841 2.12336 9.63826L1.67369 9.51973C0.687347 9.25841 0.000311801 8.36546 0 7.34511V4.65392C0.000320197 3.63357 0.687352 2.74061 1.67369 2.47929L2.12304 2.36031C2.31336 2.30992 2.4998 2.45342 2.4998 2.6503V9.3482Z"
    fill="currentColor"
  />
</svg>
