<svg width="24" height="24" viewBox="0 0 24 24" fill="none" xmlns="http://www.w3.org/2000/svg" data-fui-icon="true">
  <path
    fill-rule="evenodd"
    clip-rule="evenodd"
    d="M15.0938 1.4631C17.0278 0.850576 19 2.2947 19 4.32345V6.83596C19 6.95167 19.086 7.04884 19.2002 7.06759C19.5956 7.13253 20.1345 7.26345 20.6826 7.53341C21.2336 7.80485 21.8099 8.22461 22.2461 8.86935C22.6857 9.51925 22.9531 10.3533 22.9531 11.3986C22.9531 12.4443 22.6859 13.2789 22.2461 13.9289C21.8099 14.5736 21.2335 14.9934 20.6826 15.2649C20.1346 15.5348 19.5956 15.6657 19.2002 15.7307C19.0862 15.7494 19 15.8445 19 15.9601V18.4162C18.9999 20.4488 17.0207 21.8933 15.085 21.2736L8.39155 19.1286C8.19795 19.0666 8 19.211 8 19.4143V22.2502C7.99986 22.6643 7.66413 23.0002 7.25 23.0002C6.83587 23.0002 6.50014 22.6643 6.5 22.2502V18.7406C6.5 18.6102 6.41571 18.4947 6.29148 18.4549L3.60547 17.5949C2.05318 17.0974 1.00008 15.6537 1 14.0236V8.67404C1.00004 7.03935 2.05885 5.59259 3.61719 5.09884L15.0938 1.4631ZM17.5 4.32345C17.5 3.30912 16.5138 2.58762 15.5469 2.89376L6.70942 5.69267C6.58473 5.73216 6.5 5.84788 6.5 5.97867V16.7276C6.5 16.858 6.58424 16.9735 6.70842 17.0133L15.542 19.8449C16.5098 20.1548 17.4999 19.4325 17.5 18.4162V4.32345ZM4.07031 6.52951C3.13541 6.8258 2.50004 7.6933 2.5 8.67404V14.0236C2.50008 15.0017 3.13208 15.8678 4.06348 16.1662L4.60854 16.3407C4.80212 16.4027 5 16.2583 5 16.055V6.64449C5 6.44155 4.80272 6.29717 4.60929 6.35853L4.07031 6.52951ZM19 13.8853C19 14.0717 19.1685 14.2138 19.3487 14.1664C19.5619 14.1104 19.793 14.0312 20.0205 13.9192C20.3951 13.7346 20.7449 13.4693 21.0029 13.0881C21.2574 12.7119 21.4531 12.1772 21.4531 11.3986C21.4531 10.6203 21.2573 10.0863 21.0029 9.71017C20.745 9.32889 20.3951 9.06374 20.0205 8.87912C19.793 8.76701 19.5618 8.68744 19.3487 8.63115C19.1685 8.58357 19 8.72558 19 8.91194V13.8853Z"
    fill="currentColor"
  />
</svg>
