<svg width="32" height="32" viewBox="0 0 32 32" fill="none" xmlns="http://www.w3.org/2000/svg" data-fui-icon="true">
  <path
    fill-rule="evenodd"
    clip-rule="evenodd"
    d="M21.6299 1.83337C23.844 1.26505 25.9997 2.93718 26 5.22302V9.09119C26 9.17657 26.0632 9.24746 26.1475 9.26111C26.6568 9.34365 27.3523 9.51121 28.0596 9.85486C28.77 10.2002 29.5152 10.7352 30.0811 11.5599C30.6523 12.3929 31 13.462 31 14.7982C30.9999 16.1344 30.6523 17.2026 30.0811 18.0355C29.5151 18.8605 28.7701 19.3962 28.0596 19.7416C27.3523 20.0853 26.6568 20.2528 26.1475 20.3353C26.0633 20.349 26 20.418 26 20.5033V24.351C25.9998 26.6481 23.8241 28.3231 21.6035 27.7347L13.377 25.5531C13.1866 25.5026 13 25.6462 13 25.8431V28.5004C12.9997 29.3286 12.3283 30.0004 11.5 30.0004C10.6717 30.0004 10.0003 29.3286 10 28.5004V4.81873L21.6299 1.83337ZM7 23.8627L4.34668 23.1605C2.37403 22.6374 1.00024 20.8517 1 18.8109V10.6205C1.00009 8.56642 2.39138 6.77305 4.38086 6.26208L7 5.58923V23.8627Z"
    fill="currentColor"
  />
</svg>
.52654 22.127 3.77014L10.2254 6.82459C10.0928 6.85863 10 6.97821 10 7.11517V22.3577C10 22.4937 10.0916 22.6128 10.2231 22.6476L22.1152 25.8004C23.067 26.0527 24 25.3348 24 24.3502V5.22228ZM4.87793 8.19787C3.77283 8.48179 3.00014 9.47875 3 10.6197V18.8102C3.00013 19.9439 3.7635 20.9355 4.85938 21.2262L7.62317 21.9584C7.81351 22.0088 8 21.8653 8 21.6684V7.78289C8 7.58692 7.81519 7.44357 7.62538 7.49232L4.87793 8.19787ZM26 17.9625C26 18.1512 26.1725 18.2937 26.355 18.2454C26.6195 18.1755 26.9043 18.0782 27.1846 17.942C27.6626 17.7097 28.1071 17.3785 28.4326 16.9039C28.7528 16.437 29 15.7717 29 14.7975C29 13.8232 28.7528 13.1579 28.4326 12.691C28.1071 12.2165 27.6626 11.8853 27.1846 11.6529C26.9042 11.5168 26.6194 11.419 26.355 11.3488C26.1725 11.3003 26 11.4427 26 11.6315V17.9625Z"
    fill="currentColor"
  />
</svg>
