<svg width="20" height="20" viewBox="0 0 20 20" fill="none" xmlns="http://www.w3.org/2000/svg" data-fui-icon="true">
  <path
    fill-rule="evenodd"
    clip-rule="evenodd"
    d="M13.3514 1.36735C14.9393 0.941131 16.4995 2.13735 16.4998 3.78138V6.16597C16.4998 6.23643 16.5522 6.29505 16.6219 6.30577C16.9715 6.35963 17.4501 6.46903 17.9383 6.69443C18.4281 6.92066 18.9497 7.2742 19.3484 7.82626C19.7527 8.38639 19.9978 9.10609 19.9978 10.0001C19.9978 10.8939 19.7526 11.6128 19.3484 12.1729C18.9497 12.7252 18.4282 13.0794 17.9383 13.3057C17.4501 13.5311 16.9715 13.6405 16.6219 13.6943C16.5523 13.7051 16.4998 13.7627 16.4998 13.833V16.2002C16.4998 17.8521 14.926 19.0503 13.3338 18.6103L7.87991 17.1012C7.68882 17.0483 7.49991 17.1921 7.49991 17.3903V19.2499C7.49978 19.664 7.16404 19.9999 6.74992 19.9999C6.33579 19.9999 6.00006 19.664 5.99993 19.2499V16.8103C5.99993 16.6754 5.9099 16.5571 5.77989 16.5212L2.38376 15.582C0.975476 15.1926 0.000169715 13.9113 0 12.4502V7.44345C0.000155789 5.97324 0.987268 4.68605 2.4072 4.30482L13.3514 1.36735ZM14.9998 3.78138C14.9995 3.12408 14.3759 2.64552 13.741 2.81558L6.22214 4.83402C6.09106 4.86921 5.99993 4.98803 5.99993 5.12376V14.7971C5.99993 14.932 6.08995 15.0503 6.21996 15.0862L13.7332 17.164C14.3701 17.3401 14.9998 16.861 14.9998 16.2002V3.78138ZM2.79586 5.75402C2.03155 5.95942 1.50014 6.652 1.49998 7.44345V12.4502C1.50015 13.2368 2.02507 13.9269 2.78317 14.1367L4.12001 14.5063C4.31109 14.5591 4.49995 14.4154 4.49995 14.2171V5.68729C4.49995 5.48994 4.31267 5.34635 4.12208 5.39757L2.79586 5.75402ZM16.4998 11.8316C16.4998 12.0189 16.67 12.1616 16.8504 12.1112C16.9997 12.0694 17.1558 12.0153 17.3094 11.9444C17.6313 11.7957 17.9224 11.5862 18.1326 11.295C18.3371 11.0114 18.4978 10.6055 18.4978 10.0001C18.4978 9.39435 18.3372 8.98772 18.1326 8.70418C17.9224 8.41312 17.6312 8.20439 17.3094 8.05575C17.1556 7.98478 16.9995 7.93 16.8502 7.88775C16.67 7.83677 16.4998 7.97922 16.4998 8.1665V11.8316Z"
    fill="currentColor"
  />
</svg>
