<svg width="24" height="24" viewBox="0 0 24 24" fill="none" xmlns="http://www.w3.org/2000/svg" data-fui-icon="true">
  <path
    fill-rule="evenodd"
    clip-rule="evenodd"
    d="M15.0938 1.46295C17.0277 0.850485 18.9999 2.29466 19 4.3233V18.4161C18.9999 20.4487 17.0206 21.8932 15.085 21.2735L8.3916 19.129C8.19807 19.0669 8.00014 19.2109 8 19.4141V22.2501C7.99985 22.6642 7.66412 23.0001 7.25 23.0001C6.83588 23.0001 6.50015 22.6642 6.5 22.2501V4.18463L15.0938 1.46295ZM5 18.0411L3.60547 17.5948C2.05322 17.0973 1.00009 15.6535 1 14.0235V8.67389C1.00012 7.03928 2.05891 5.59242 3.61719 5.09869L5 4.66022V18.0411ZM20.6826 7.53326C21.2335 7.80469 21.8099 8.22453 22.2461 8.8692C22.6856 9.51906 22.953 10.3532 22.9531 11.3985C22.9531 12.444 22.6858 13.2788 22.2461 13.9288C21.8099 14.5734 21.2335 14.9933 20.6826 15.2647C20.6217 15.2947 20.5605 15.322 20.5 15.3487V7.4483C20.5606 7.47501 20.6216 7.50321 20.6826 7.53326Z"
    fill="currentColor"
  />
</svg>
