<svg width="20" height="20" viewBox="0 0 20 20" fill="none" xmlns="http://www.w3.org/2000/svg" data-fui-icon="true">
  <path
    fill-rule="evenodd"
    clip-rule="evenodd"
    d="M12.7207 1.13969C14.337 0.609808 15.9995 1.81389 16 3.51469V5.59155C16 5.73432 16.1009 5.85626 16.2392 5.89171C16.4976 5.95796 16.7896 6.05638 17.085 6.20415C17.5487 6.43616 18.0354 6.79606 18.4043 7.34966C18.7763 7.90798 18.998 8.61896 18.998 9.50005C18.998 10.3811 18.7763 11.0921 18.4043 11.6504C18.0354 12.2041 17.5487 12.5639 17.085 12.7959C16.7896 12.9437 16.4977 13.0416 16.2392 13.1075C16.1009 13.1428 16 13.2648 16 13.4076V15.4639C15.9998 17.1734 14.3223 18.3786 12.7021 17.8331L8.39577 16.3824C8.20134 16.3169 8 16.4615 8 16.6667V18.25C7.99989 18.6642 7.66414 19 7.25 19C6.83586 19 6.50011 18.6642 6.5 18.25V15.9588C6.5 15.83 6.41778 15.7155 6.2957 15.6744L3.21289 14.6368C1.89094 14.1914 1.00015 12.9516 1 11.5567V7.33696C1.00028 5.93249 1.90271 4.68671 3.2373 4.24907L12.7207 1.13969ZM14.5 3.51469C14.4995 2.83467 13.8348 2.35276 13.1885 2.5645L6.70652 4.69013C6.58331 4.73054 6.5 4.84553 6.5 4.9752V14.1416C6.49999 14.1527 6.50616 14.1626 6.51663 14.1661L13.1807 16.4112C13.8287 16.6295 14.4998 16.1477 14.5 15.4639V3.51469ZM3.70508 5.67485C2.98652 5.91045 2.50028 6.58081 2.5 7.33696V11.5567C2.50015 12.3077 2.97966 12.9751 3.69141 13.2149L4.6043 13.5221C4.79872 13.5876 5 13.4429 5 13.2378V5.66419C5 5.46003 4.80048 5.3155 4.60649 5.37914L3.70508 5.67485ZM16 11.2118C16 11.4134 16.1961 11.5588 16.378 11.4718C16.39 11.466 16.4021 11.4602 16.4141 11.4541C16.6997 11.3112 16.9631 11.1083 17.1562 10.8184C17.3463 10.533 17.498 10.1186 17.498 9.50005C17.498 8.88151 17.3463 8.46705 17.1562 8.18169C16.9631 7.89179 16.6997 7.68889 16.4141 7.54594C16.4019 7.53988 16.3898 7.53394 16.3777 7.52812C16.1959 7.44097 16 7.58565 16 7.78726V11.2118Z"
    fill="currentColor"
  />
</svg>
