<svg width="16" height="16" viewBox="0 0 16 16" fill="none" xmlns="http://www.w3.org/2000/svg" data-fui-icon="true">
  <path
    fill-rule="evenodd"
    clip-rule="evenodd"
    d="M10.4082 1.03564C11.695 0.637382 13 1.59884 13 2.9458V4.86247C13 5.00124 13.0957 5.12048 13.2282 5.16178C13.3327 5.19435 13.4412 5.23379 13.5508 5.28173C13.8811 5.42627 14.2485 5.65967 14.5342 6.03466C14.8272 6.4195 15 6.90971 15 7.50048C14.9999 8.09119 14.8272 8.58153 14.5342 8.9663C14.2485 9.34119 13.881 9.57474 13.5508 9.71923C13.4413 9.76711 13.3328 9.8059 13.2283 9.83794C13.0957 9.87861 13 9.99776 13 10.1365V12.0552C12.9997 13.4018 11.6947 14.3634 10.4082 13.9653L7.38876 13.0301C7.19573 12.9703 7 13.1146 7 13.3166V14.2495C7 14.6637 6.66421 14.9995 6.25 14.9995C5.83579 14.9995 5.5 14.6637 5.5 14.2495V12.4761C5.50001 12.4582 5.4891 12.4421 5.47204 12.4368L2.76074 11.5981C1.71406 11.2741 1.00028 10.3061 1 9.21045V5.79052C1.00003 4.69464 1.7139 3.72693 2.76074 3.40283L10.4082 1.03564ZM10.8525 2.46826L5.71132 4.05912C5.58567 4.098 5.5 4.21419 5.5 4.34571V10.6543C5.5 10.7858 5.58565 10.902 5.71127 10.9409L10.8525 12.5327C11.1739 12.6318 11.4997 12.3914 11.5 12.0552V2.9458C11.5 2.60921 11.1741 2.36897 10.8525 2.46826ZM3.2041 4.83545C2.78547 4.96513 2.50003 5.35225 2.5 5.79052V9.21045C2.50028 9.6485 2.78563 10.0359 3.2041 10.1655L3.61138 10.2915C3.80438 10.3511 4 10.2069 4 10.0048V4.99563C4 4.79347 3.80412 4.64918 3.61106 4.70911L3.2041 4.83545ZM13 7.88581C13 8.08604 13.2193 8.21723 13.3408 8.0581C13.4225 7.95091 13.4999 7.78409 13.5 7.50048C13.5 7.21686 13.4225 7.05014 13.3408 6.94287C13.2192 6.78345 13 6.91428 13 7.11479V7.88581Z"
    fill="currentColor"
  />
</svg>
