<svg width="16" height="16" viewBox="0 0 16 16" fill="none" xmlns="http://www.w3.org/2000/svg" data-fui-icon="true">
  <path
    fill-rule="evenodd"
    clip-rule="evenodd"
    d="M10.4082 1.0357C11.695 0.637443 13 1.5989 13 2.94586V12.0552C12.9996 13.4018 11.6947 14.3634 10.4082 13.9654L7.38867 13.0298C7.19569 12.9702 7 13.1149 7 13.317V14.2496C6.99996 14.6637 6.66419 14.9996 6.25 14.9996C5.83581 14.9996 5.50004 14.6637 5.5 14.2496V2.55426L10.4082 1.0357ZM4 11.981L2.76074 11.5982C1.71408 11.2742 1.00031 10.3061 1 9.21051V5.79058C1.00003 4.69471 1.71391 3.727 2.76074 3.40289L4 3.0191V11.981ZM14.5342 6.03473C14.8271 6.41955 15 6.9098 15 7.50055C14.9999 8.09122 14.8272 8.58161 14.5342 8.96637C14.5233 8.98059 14.5111 8.99356 14.5 9.00738V5.99273C14.5112 6.00673 14.5232 6.02031 14.5342 6.03473Z"
    fill="currentColor"
  />
</svg>
