<svg width="24" height="24" viewBox="0 0 24 24" fill="none" xmlns="http://www.w3.org/2000/svg" data-fui-icon="true">
  <path
    d="M12 0.5C18.3513 0.5 23.5 5.64873 23.5 12C23.5 18.3513 18.3513 23.5 12 23.5C5.64873 23.5 0.5 18.3513 0.5 12C0.5 5.64873 5.64873 0.5 12 0.5ZM12 4C7.44772 4 4 7.44772 4 12C4 16.5523 7.44772 20 12 20C13.1714 20 14.1451 19.8278 14.9512 19.5498C15.4732 19.3697 15.7503 18.8004 15.5703 18.2783C15.3903 17.7562 14.8209 17.4791 14.2988 17.6592C13.724 17.8574 12.9733 18 12 18C8.55228 18 6 15.4477 6 12C6 8.55228 8.55228 6 12 6C15.4475 6 18 8.55478 18 12V12.875L17.9922 13.0645C17.9554 13.4845 17.7969 13.7462 17.627 13.9082C17.4196 14.1057 17.1268 14.2188 16.8125 14.2188C16.4982 14.2188 16.2054 14.1057 15.998 13.9082C15.8281 13.7462 15.6696 13.4845 15.6328 13.0645L15.625 12.875V9C15.625 8.44772 15.1773 8 14.625 8C14.2943 8 14.0014 8.16079 13.8193 8.4082C13.3254 8.15678 12.7225 8 12 8C9.69772 8 8 9.69772 8 12C8 14.3023 9.69772 16 12 16C13.1082 16 13.9194 15.6885 14.4912 15.2266C14.5327 15.2711 14.5751 15.3154 14.6191 15.3574C15.232 15.9409 16.0332 16.2188 16.8125 16.2188C17.5918 16.2188 18.393 15.9409 19.0059 15.3574C19.587 14.8039 19.9457 14.0259 19.9941 13.0938C19.998 13.0938 20 13.0938 20 13.0938V12C20 7.45073 16.5525 4 12 4ZM12 10C12.7569 10 13.1314 10.2812 13.335 10.5273C13.521 10.7524 13.5909 10.9818 13.6143 11.0781L13.625 11.125V12.877C13.625 12.8786 13.6248 12.8853 13.624 12.8965C13.6223 12.9211 13.618 12.9647 13.6074 13.0205C13.5856 13.1359 13.5414 13.2808 13.458 13.418C13.3318 13.6256 13.0147 14 12 14C10.8023 14 10 13.1977 10 12C10 10.8023 10.8023 10 12 10Z"
    fill="currentColor"
  />
</svg>
