<svg width="32" height="32" viewBox="0 0 32 32" fill="none" xmlns="http://www.w3.org/2000/svg" data-fui-icon="true">
  <path
    d="M16 0.5C24.5604 0.5 31.5 7.43959 31.5 16C31.5 24.5604 24.5604 31.5 16 31.5C7.43959 31.5 0.5 24.5604 0.5 16C0.5 7.43959 7.43959 0.5 16 0.5ZM16 2C8.26801 2 2 8.26801 2 16C2 23.732 8.26801 30 16 30C23.732 30 30 23.732 30 16C30 8.26801 23.732 2 16 2ZM16 6C21.7001 6 26 10.3039 26 16V17.4453C26 17.4453 25.997 17.4453 25.9912 17.4453C25.9283 18.5298 25.5116 19.4059 24.8643 20.0225C24.1702 20.6835 23.2564 21.0029 22.3594 21.0029C21.4623 21.0029 20.5486 20.6835 19.8545 20.0225C19.6659 19.8429 19.498 19.6403 19.3516 19.418C18.7124 20.1492 17.6593 20.7139 16 20.7139C13.2733 20.7139 11.2861 18.7267 11.2861 16C11.2861 13.2733 13.2733 11.2861 16 11.2861C17.1772 11.2861 18.067 11.6291 18.7188 12.1211V12.0361C18.7188 11.6219 19.0545 11.2861 19.4688 11.2861C19.883 11.2861 20.2188 11.6219 20.2188 12.0361V17.1562L20.2324 17.4609C20.2932 18.1421 20.5571 18.6189 20.8896 18.9355C21.2796 19.3069 21.8111 19.5029 22.3594 19.5029C22.9076 19.5029 23.4392 19.3069 23.8291 18.9355C24.1616 18.6189 24.4255 18.1421 24.4863 17.4609L24.5 17.1562V16C24.5 11.132 20.8713 7.5 16 7.5C11.1285 7.5 7.5 11.1285 7.5 16C7.5 20.8715 11.1285 24.5 16 24.5C17.3429 24.5 18.3989 24.3023 19.2246 24.0176C19.6161 23.8828 20.0427 24.091 20.1777 24.4824C20.3128 24.874 20.1045 25.3005 19.7129 25.4355C18.7138 25.7801 17.4913 26 16 26C10.3001 26 6 21.6999 6 16C6 10.3001 10.3001 6 16 6ZM16 12.7861C14.1017 12.7861 12.7861 14.1017 12.7861 16C12.7861 17.8983 14.1017 19.2139 16 19.2139C17.5228 19.2139 18.1358 18.6302 18.415 18.1709C18.5699 17.9162 18.6476 17.6555 18.6855 17.4551C18.7042 17.3564 18.7122 17.2763 18.7158 17.2246C18.7176 17.1989 18.7185 17.1804 18.7188 17.1709V14.8438L18.6963 14.6816C18.648 14.4563 18.5127 14.0627 18.2051 13.6904C17.8287 13.2349 17.1728 12.7861 16 12.7861Z"
    fill="currentColor"
  />
</svg>
