<svg width="20" height="20" viewBox="0 0 20 20" fill="none" xmlns="http://www.w3.org/2000/svg" data-fui-icon="true">
  <path
    d="M10 0.5C15.2467 0.5 19.5 4.75329 19.5 10C19.5 15.2467 15.2467 19.5 10 19.5C4.75329 19.5 0.5 15.2467 0.5 10C0.5 4.75329 4.75329 0.5 10 0.5ZM10 2.5C5.85786 2.5 2.5 5.85786 2.5 10C2.5 14.1421 5.85786 17.5 10 17.5C14.1421 17.5 17.5 14.1421 17.5 10C17.5 5.85786 14.1421 2.5 10 2.5ZM10 3.5C13.6953 3.5 16.5 6.30627 16.5 10V10.8594C16.5 10.8594 16.4973 10.8594 16.4922 10.8594C16.4537 11.6466 16.1543 12.3149 15.6523 12.793C15.1273 13.2929 14.4434 13.5293 13.7812 13.5293C13.1301 13.5293 12.4589 13.2994 11.9375 12.8164C11.4619 13.1455 10.825 13.3574 10 13.3574C8.07271 13.3574 6.64258 11.9273 6.64258 10C6.64258 8.07272 8.07272 6.64258 10 6.64258C10.5315 6.64258 10.9887 6.74585 11.376 6.91602C11.5551 6.74677 11.7966 6.64258 12.0625 6.64258C12.6147 6.64258 13.0623 7.09042 13.0625 7.64258V10.6875L13.0684 10.8164C13.0928 11.0992 13.196 11.2561 13.2891 11.3447C13.4086 11.4585 13.5841 11.5293 13.7812 11.5293C13.9784 11.5293 14.1539 11.4585 14.2734 11.3447C14.3665 11.2561 14.4697 11.0992 14.4941 10.8164L14.5 10.6875V10C14.5 7.41053 12.5904 5.5 10 5.5C7.40943 5.5 5.5 7.40943 5.5 10C5.5 12.5906 7.40943 14.5 10 14.5C10.7436 14.5 11.3094 14.3904 11.7363 14.2432C12.2584 14.0631 12.8278 14.3412 13.0078 14.8633C13.1877 15.3853 12.9107 15.9547 12.3887 16.1348C11.7305 16.3617 10.9416 16.5 10 16.5C6.30486 16.5 3.5 13.6951 3.5 10C3.5 6.30486 6.30486 3.5 10 3.5ZM10 8.64258C9.17728 8.64258 8.64258 9.17728 8.64258 10C8.64258 10.8227 9.17728 11.3574 10 11.3574C10.729 11.3574 10.9059 11.0967 10.9629 11.0029C11.0116 10.9227 11.039 10.8344 11.0527 10.7617L11.0625 10.6914V9.3125C11.0625 9.3695 11.07 9.33855 11.0352 9.24316C11.0052 9.1612 10.9556 9.06644 10.8838 8.97949C10.7642 8.83485 10.5303 8.64258 10 8.64258Z"
    fill="currentColor"
  />
</svg>
