<svg width="24" height="24" viewBox="0 0 24 24" fill="none" xmlns="http://www.w3.org/2000/svg" data-fui-icon="true">
  <path
    d="M12 0C18.6274 0 24 5.37258 24 12C24 18.6274 18.6274 24 12 24C5.37258 24 0 18.6274 0 12C0 5.37258 5.37258 0 12 0ZM12 4C7.44293 4 4 7.44293 4 12C4 16.5571 7.44293 20 12 20C13.1848 20 14.1611 19.8253 14.9629 19.5488C15.3544 19.4138 15.5627 18.9872 15.4277 18.5957C15.2927 18.2042 14.8661 17.9961 14.4746 18.1309C13.9247 18.3205 13.2359 18.4611 12.3779 18.4932L12 18.5C8.27136 18.5 5.5 15.7286 5.5 12C5.5 8.27136 8.27136 5.5 12 5.5C15.7284 5.5 18.5 8.27402 18.5 12V12.9062L18.4902 13.1299C18.446 13.6279 18.2544 13.9646 18.0244 14.1836C17.7517 14.4433 17.3763 14.584 16.9844 14.584C16.5924 14.584 16.2171 14.4433 15.9443 14.1836C15.7143 13.9646 15.5228 13.6279 15.4785 13.1299L15.4688 12.9062V8.89258C15.4686 8.47849 15.1329 8.14258 14.7188 8.14258C14.3807 8.14258 14.0976 8.36737 14.0039 8.6748C13.4919 8.35384 12.8312 8.14258 12 8.14258C9.77329 8.14258 8.14258 9.77329 8.14258 12C8.14258 14.2267 9.77329 15.8574 12 15.8574L12.2959 15.8496C13.3681 15.7927 14.1115 15.425 14.6084 14.9346C14.7001 15.0546 14.8008 15.1663 14.9092 15.2695C15.4861 15.8189 16.2436 16.084 16.9844 16.084C17.7252 16.084 18.4827 15.8189 19.0596 15.2695C19.6009 14.7538 19.9435 14.0245 19.9932 13.1328C19.9977 13.1328 20 13.1328 20 13.1328V12C20 7.44598 16.5573 4 12 4ZM12 9.64258C12.8704 9.64258 13.339 9.97288 13.6035 10.293C13.7448 10.464 13.8389 10.6476 13.8975 10.8076C13.9265 10.8869 13.946 10.9563 13.957 11.0107L13.9688 11.0938V12.9141C13.9686 12.9191 13.968 12.9309 13.9668 12.9482C13.9643 12.9833 13.9587 13.0399 13.9453 13.1104C13.9181 13.2538 13.8626 13.4384 13.7539 13.6172C13.5669 13.9247 13.1417 14.3574 12 14.3574C10.6017 14.3574 9.64258 13.3983 9.64258 12C9.64258 10.6017 10.6017 9.64258 12 9.64258Z"
    fill="currentColor"
  />
</svg>
