<svg width="32" height="32" viewBox="0 0 32 32" fill="none" xmlns="http://www.w3.org/2000/svg" data-fui-icon="true">
  <path
    d="M16 0.999329C24.284 0.99957 30.9997 7.71533 31 15.9993C31 24.2835 24.2842 31.0001 16 31.0003C7.71564 31.0003 0.999023 24.2837 0.999023 15.9993C0.999276 7.71518 7.71579 0.999329 16 0.999329ZM16 6.00031C10.3001 6.00031 6 10.3004 6 16.0003C6.00012 21.7001 10.3002 26.0003 16 26.0003C17.4911 26.0003 18.7139 25.7803 19.7129 25.4359C20.1042 25.3008 20.3125 24.8741 20.1777 24.4827C20.0428 24.0914 19.616 23.8833 19.2246 24.0179C18.399 24.3026 17.3427 24.5003 16 24.5003C11.1286 24.5003 7.50012 20.8717 7.5 16.0003C7.5 11.1288 11.1285 7.50031 16 7.50031C20.8711 7.50049 24.5 11.1324 24.5 16.0003V17.1566L24.4863 17.4612C24.4255 18.1422 24.1615 18.6192 23.8291 18.9359C23.4393 19.3071 22.9075 19.5031 22.3594 19.5032C21.8113 19.5032 21.2795 19.307 20.8896 18.9359C20.5572 18.6192 20.2933 18.1422 20.2324 17.4612L20.2188 17.1566V12.0364C20.2188 11.6223 19.8828 11.2866 19.4688 11.2864C19.0545 11.2864 18.7188 11.6222 18.7188 12.0364V12.1214C18.067 11.6295 17.177 11.2865 16 11.2864C13.2733 11.2864 11.2861 13.2736 11.2861 16.0003C11.2863 18.7269 13.2734 20.7142 16 20.7142C17.6591 20.7141 18.7124 20.1495 19.3516 19.4183C19.498 19.6405 19.666 19.8433 19.8545 20.0228C20.5485 20.6836 21.4624 21.0032 22.3594 21.0032C23.2563 21.0031 24.1703 20.6837 24.8643 20.0228C25.5115 19.4063 25.9282 18.5299 25.9912 17.4456C25.9967 17.4456 26 17.4456 26 17.4456V16.0003C26 10.3043 21.6999 6.00049 16 6.00031ZM16 12.7864C17.1726 12.7865 17.8287 13.2353 18.2051 13.6907C18.5125 14.0629 18.648 14.4567 18.6963 14.6819L18.7188 14.8441V17.1712C18.7185 17.1807 18.7176 17.1994 18.7158 17.2249C18.7122 17.2766 18.7042 17.3568 18.6855 17.4554C18.6476 17.6557 18.5698 17.9166 18.415 18.1712C18.1359 18.6304 17.5225 19.2141 16 19.2142C14.1018 19.2142 12.7862 17.8985 12.7861 16.0003C12.7861 14.102 14.1017 12.7864 16 12.7864Z"
    fill="currentColor"
  />
</svg>
