<svg width="32" height="32" viewBox="0 0 32 32" fill="none" xmlns="http://www.w3.org/2000/svg" data-fui-icon="true">
  <path
    d="M16.0004 0.999329C24.2844 0.99957 31.0001 7.71533 31.0004 15.9993C31.0004 24.2835 24.2845 31.0001 16.0004 31.0003C7.716 31.0003 0.99939 24.2837 0.99939 15.9993C0.999643 7.71518 7.71616 0.999329 16.0004 0.999329ZM16.1859 6.09698C14.6585 6.09698 13.2682 6.33513 12.016 6.80988C10.7708 7.27773 9.69752 7.95174 8.79626 8.83234C7.90181 9.70615 7.21344 10.7522 6.73181 11.97C6.25027 13.1809 6.00916 14.5328 6.00916 16.0257C6.00916 17.5119 6.25018 18.8606 6.73181 20.0716C7.22024 21.2823 7.91181 22.321 8.80603 23.1878C9.70728 24.0615 10.7844 24.7326 12.0365 25.2005C13.2887 25.6752 14.6857 25.9134 16.2269 25.9134C17.4653 25.9134 18.5318 25.7928 19.4261 25.5521C19.9886 25.4018 20.4646 25.2607 20.8529 25.1292C21.1945 25.0134 21.3544 24.6341 21.223 24.2982L20.8275 23.2894C20.6923 22.9441 20.3011 22.7742 19.9476 22.886C19.6384 22.984 19.2714 23.0879 18.848 23.1985C18.0844 23.398 17.2068 23.4984 16.2162 23.4984C14.6614 23.4983 13.3162 23.1917 12.181 22.5794C11.0528 21.974 10.1791 21.1138 9.55994 19.9993C8.94077 18.8779 8.63129 17.5501 8.63123 16.0159C8.63123 14.4816 8.9407 13.1531 9.55994 12.0316C10.1792 10.9101 11.0566 10.0433 12.1918 9.43097C13.327 8.81865 14.672 8.51203 16.2269 8.51202C17.6925 8.51202 18.9622 8.79451 20.0355 9.3587C21.1088 9.91601 21.938 10.7211 22.5228 11.7737C23.1076 12.8195 23.3998 14.0788 23.3998 15.5511C23.3998 16.6588 23.2282 17.5294 22.8842 18.1624C22.547 18.7885 22.0784 19.1009 21.4799 19.1009C21.1979 19.1008 20.974 19.0189 20.809 18.8538C20.6508 18.6819 20.5717 18.3962 20.5717 17.9974V11.7278C20.5714 11.36 20.2735 11.062 19.9056 11.0618H18.8949C18.6128 11.0618 18.3842 11.2904 18.3842 11.5726V12.0765C18.3842 12.0801 18.3809 12.0833 18.3773 12.0833C18.3751 12.0833 18.3726 12.0823 18.3715 12.0804C18.1785 11.7446 17.835 11.4533 17.3412 11.2064C16.8459 10.9519 16.2546 10.8246 15.5668 10.8245C14.7274 10.8245 13.9532 11.0309 13.2445 11.4437C12.5358 11.8496 11.9641 12.4377 11.5306 13.2083C11.0973 13.9789 10.8812 14.9113 10.8812 16.0052C10.8812 17.0097 11.0731 17.9112 11.4584 18.7093C11.8436 19.5004 12.3876 20.1263 13.0892 20.5872C13.791 21.0482 14.6203 21.2786 15.5765 21.2786C16.4091 21.2786 17.0801 21.1138 17.5892 20.7835C18.0967 20.4475 18.4372 20.0599 18.6097 19.6214C18.6109 19.619 18.613 19.6175 18.6156 19.6175C18.6187 19.6175 18.6216 19.6194 18.6224 19.6224C18.7062 20.0332 18.9673 20.4244 19.4056 20.7943C19.846 21.1657 20.5171 21.3509 21.4183 21.3509C22.8563 21.3509 23.9776 20.8418 24.7826 19.8235C25.5875 18.7984 25.9906 17.3607 25.9906 15.5101C25.9906 13.6181 25.5846 11.9664 24.7728 10.556C23.9609 9.14549 22.8185 8.05123 21.3461 7.27374C19.8806 6.48941 18.1605 6.09702 16.1859 6.09698ZM15.8558 13.0843C16.6331 13.0844 17.2282 13.3389 17.641 13.848C18.0607 14.3502 18.2709 15.0695 18.2709 16.0052C18.2709 16.934 18.0607 17.6533 17.641 18.1624C17.2282 18.6645 16.6331 18.9153 15.8558 18.9153C15.051 18.9153 14.428 18.6645 13.9877 18.1624C13.5542 17.6602 13.3373 16.9409 13.3373 16.0052C13.3373 15.0695 13.5542 14.3502 13.9877 13.848C14.428 13.339 15.0509 13.0843 15.8558 13.0843Z"
    fill="currentColor"
  />
</svg>
