<svg width="32" height="32" viewBox="0 0 32 32" fill="none" xmlns="http://www.w3.org/2000/svg" data-fui-icon="true">
  <path
    d="M16 0.5C24.5604 0.5 31.5 7.43959 31.5 16C31.5 24.5604 24.5604 31.5 16 31.5C7.43959 31.5 0.5 24.5604 0.5 16C0.5 7.43959 7.43959 0.5 16 0.5ZM16 6C10.3001 6 6 10.3001 6 16C6 21.6999 10.3001 26 16 26C17.4913 26 18.7138 25.7801 19.7129 25.4355C20.1045 25.3005 20.3128 24.874 20.1777 24.4824C20.0427 24.091 19.6161 23.8828 19.2246 24.0176C18.3989 24.3023 17.3429 24.5 16 24.5C11.1285 24.5 7.5 20.8715 7.5 16C7.5 11.1285 11.1285 7.5 16 7.5C20.8713 7.5 24.5 11.132 24.5 16V17.1562L24.4863 17.4609C24.4255 18.1421 24.1616 18.6189 23.8291 18.9355C23.4392 19.3069 22.9076 19.5029 22.3594 19.5029C21.8111 19.5029 21.2796 19.3069 20.8896 18.9355C20.5571 18.6189 20.2932 18.1421 20.2324 17.4609L20.2188 17.1562V12.0361C20.2188 11.6219 19.883 11.2861 19.4688 11.2861C19.0545 11.2861 18.7188 11.6219 18.7188 12.0361V12.1211C18.067 11.6291 17.1772 11.2861 16 11.2861C13.2733 11.2861 11.2861 13.2733 11.2861 16C11.2861 18.7267 13.2733 20.7139 16 20.7139C17.6593 20.7139 18.7124 20.1492 19.3516 19.418C19.498 19.6403 19.6659 19.8429 19.8545 20.0225C20.5486 20.6835 21.4623 21.0029 22.3594 21.0029C23.2564 21.0029 24.1702 20.6835 24.8643 20.0225C25.5116 19.4059 25.9283 18.5298 25.9912 17.4453C25.997 17.4453 26 17.4453 26 17.4453V16C26 10.3039 21.7001 6 16 6ZM16 12.7861C17.1728 12.7861 17.8287 13.2349 18.2051 13.6904C18.5127 14.0627 18.648 14.4563 18.6963 14.6816L18.7188 14.8438V17.1709C18.7185 17.1804 18.7176 17.1989 18.7158 17.2246C18.7122 17.2763 18.7042 17.3564 18.6855 17.4551C18.6476 17.6555 18.5699 17.9162 18.415 18.1709C18.1358 18.6302 17.5228 19.2139 16 19.2139C14.1017 19.2139 12.7861 17.8983 12.7861 16C12.7861 14.1017 14.1017 12.7861 16 12.7861Z"
    fill="currentColor"
  />
</svg>
