<svg width="32" height="32" viewBox="0 0 32 32" fill="none" xmlns="http://www.w3.org/2000/svg" data-fui-icon="true">
  <path
    d="M16 1.00031C24.2841 1.0005 31 7.71616 31 16.0003C30.9999 24.2843 24.284 31.0001 16 31.0003C7.71581 31.0003 1.00013 24.2845 1 16.0003C1 7.71603 7.71573 1.00031 16 1.00031ZM16 2.50031C8.54416 2.50031 2.5 8.54446 2.5 16.0003C2.50013 23.456 8.54424 29.5003 16 29.5003C23.4556 29.5001 29.4999 23.4559 29.5 16.0003C29.5 8.54458 23.4557 2.5005 16 2.50031ZM16 6.00031C21.6999 6.00049 26 10.3043 26 16.0003V17.4456C26 17.4456 25.9967 17.4456 25.9912 17.4456C25.9282 18.5299 25.5115 19.4063 24.8643 20.0228C24.1703 20.6837 23.2563 21.0031 22.3594 21.0032C21.4624 21.0032 20.5485 20.6836 19.8545 20.0228C19.666 19.8433 19.498 19.6405 19.3516 19.4183C18.7124 20.1495 17.6591 20.7141 16 20.7142C13.2734 20.7142 11.2863 18.7269 11.2861 16.0003C11.2861 13.2736 13.2733 11.2864 16 11.2864C17.177 11.2865 18.067 11.6295 18.7188 12.1214V12.0364C18.7188 11.6222 19.0545 11.2864 19.4688 11.2864C19.8828 11.2866 20.2188 11.6223 20.2188 12.0364V17.1566L20.2324 17.4612C20.2933 18.1422 20.5572 18.6192 20.8896 18.9359C21.2795 19.307 21.8113 19.5032 22.3594 19.5032C22.9075 19.5031 23.4393 19.3071 23.8291 18.9359C24.1615 18.6192 24.4255 18.1422 24.4863 17.4612L24.5 17.1566V16.0003C24.5 11.1324 20.8711 7.50049 16 7.50031C11.1285 7.50031 7.5 11.1288 7.5 16.0003C7.50012 20.8717 11.1286 24.5003 16 24.5003C17.3427 24.5003 18.399 24.3026 19.2246 24.0179C19.616 23.8833 20.0428 24.0914 20.1777 24.4827C20.3125 24.8741 20.1042 25.3008 19.7129 25.4359C18.7139 25.7803 17.4911 26.0003 16 26.0003C10.3002 26.0003 6.00012 21.7001 6 16.0003C6 10.3004 10.3001 6.00031 16 6.00031ZM16 12.7864C14.1017 12.7864 12.7861 14.102 12.7861 16.0003C12.7862 17.8985 14.1018 19.2142 16 19.2142C17.5225 19.2141 18.1359 18.6304 18.415 18.1712C18.5698 17.9166 18.6476 17.6557 18.6855 17.4554C18.7042 17.3568 18.7122 17.2766 18.7158 17.2249C18.7176 17.1994 18.7185 17.1807 18.7188 17.1712V14.8441L18.6963 14.6819C18.648 14.4567 18.5125 14.0629 18.2051 13.6907C17.8287 13.2353 17.1726 12.7865 16 12.7864Z"
    fill="currentColor"
  />
</svg>
