<svg width="32" height="32" viewBox="0 0 32 32" fill="none" xmlns="http://www.w3.org/2000/svg" data-fui-icon="true">
  <path
    d="M16 0.5C24.5604 0.5 31.5 7.43959 31.5 16C31.5 24.5604 24.5604 31.5 16 31.5C7.43959 31.5 0.5 24.5604 0.5 16C0.5 7.43959 7.43959 0.5 16 0.5ZM16 5.75C10.162 5.75 5.75 10.162 5.75 16C5.75 21.838 10.162 26.25 16 26.25C17.5161 26.25 18.7669 26.0264 19.7949 25.6719C20.3167 25.4918 20.5938 24.9233 20.4141 24.4014C20.234 23.8793 19.6647 23.6012 19.1426 23.7812C18.3458 24.056 17.3181 24.25 16 24.25C11.2666 24.25 7.75 20.7334 7.75 16C7.75 11.2666 11.2666 7.75 16 7.75C20.7332 7.75 24.25 11.27 24.25 16V17.1562L24.2383 17.4375C24.1827 18.0634 23.9425 18.4832 23.6572 18.7549C23.318 19.0779 22.8495 19.2529 22.3594 19.2529C21.8693 19.2529 21.4007 19.0779 21.0615 18.7549C20.7763 18.4832 20.536 18.0634 20.4805 17.4375L20.4688 17.1562V12.0361C20.4688 11.4838 20.021 11.0361 19.4688 11.0361C19.0375 11.0361 18.6707 11.3089 18.5303 11.6914C17.8773 11.2947 17.0426 11.0361 16 11.0361C13.1352 11.0361 11.0361 13.1352 11.0361 16C11.0361 18.8648 13.1352 20.9639 16 20.9639C17.5583 20.9639 18.6253 20.4815 19.3252 19.8086C19.4354 19.9489 19.5543 20.0809 19.6826 20.2031C20.4274 20.9124 21.4042 21.2529 22.3594 21.2529C23.3146 21.2529 24.2914 20.9124 25.0361 20.2031C25.7362 19.5364 26.1778 18.5944 26.2412 17.4453C26.247 17.4453 26.25 17.4453 26.25 17.4453V16C26.25 10.1659 21.8383 5.75 16 5.75ZM16 13.0361C17.0975 13.0361 17.6833 13.451 18.0127 13.8496C18.1894 14.0635 18.3076 14.293 18.3809 14.4932C18.4172 14.5926 18.4405 14.6797 18.4541 14.7471L18.4688 14.8438V17.166C18.4686 17.172 18.4683 17.1861 18.4668 17.207C18.4638 17.2504 18.4561 17.3212 18.4395 17.4092C18.4054 17.5885 18.3364 17.8186 18.2012 18.041C17.9711 18.4194 17.443 18.9639 16 18.9639C14.2398 18.9639 13.0361 17.7602 13.0361 16C13.0361 14.2398 14.2398 13.0361 16 13.0361Z"
    fill="currentColor"
  />
</svg>
