<svg width="20" height="20" viewBox="0 0 20 20" fill="none" xmlns="http://www.w3.org/2000/svg" data-fui-icon="true">
  <path
    d="M10 0C15.5228 0 20 4.47715 20 10C20 15.5228 15.5228 20 10 20C4.47715 20 8.05322e-08 15.5228 0 10C0 4.47715 4.47715 6.44258e-08 10 0ZM10 1.5C5.30558 1.5 1.5 5.30558 1.5 10C1.5 14.6944 5.30558 18.5 10 18.5C14.6944 18.5 18.5 14.6944 18.5 10C18.5 5.30558 14.6944 1.5 10 1.5ZM10 3.5C13.7 3.5 16.5 6.3015 16.5 10V10.8984C16.5 10.8984 16.4973 10.8984 16.4922 10.8984C16.4525 11.6457 16.1683 12.2658 15.7061 12.7061C15.2171 13.1718 14.5768 13.3936 13.9531 13.3936C13.3295 13.3936 12.6892 13.1718 12.2002 12.7061C12.149 12.6573 12.1015 12.6049 12.0547 12.5518C11.596 12.9446 10.9296 13.2139 10 13.2139C8.14829 13.2139 6.78613 11.8517 6.78613 10C6.78613 8.14829 8.14829 6.78613 10 6.78613C10.6103 6.78613 11.1135 6.92362 11.5195 7.14258C11.6517 6.92897 11.8866 6.78613 12.1562 6.78613C12.5705 6.78613 12.9062 7.12192 12.9062 7.53613V10.7188L12.9131 10.8818C12.945 11.2424 13.0823 11.4734 13.2354 11.6191C13.4202 11.7952 13.6783 11.8936 13.9531 11.8936C14.2279 11.8936 14.4861 11.7952 14.6709 11.6191C14.8239 11.4734 14.9613 11.2424 14.9932 10.8818L15 10.7188V10C15 7.1297 12.8714 5 10 5C7.1285 5 5 7.1285 5 10C5 12.8715 7.1285 15 10 15C10.8067 15 11.4316 14.8815 11.9121 14.7158C12.3036 14.581 12.7302 14.7892 12.8652 15.1807C13.0001 15.5722 12.7919 15.9988 12.4004 16.1338C11.7466 16.3592 10.955 16.5 10 16.5C6.30007 16.5 3.5 13.6999 3.5 10C3.5 6.30007 6.30007 3.5 10 3.5ZM10 8.28613C8.97671 8.28613 8.28613 8.97671 8.28613 10C8.28613 11.0233 8.97671 11.7139 10 11.7139C10.8561 11.7139 11.141 11.3958 11.2588 11.2021C11.3329 11.0803 11.3715 10.9523 11.3906 10.8516C11.3999 10.8026 11.4037 10.7638 11.4053 10.7412L11.4062 10.7305V9.28125L11.3994 9.24609C11.3933 9.21593 11.3817 9.16856 11.3594 9.10742C11.3182 8.99478 11.2516 8.86528 11.1523 8.74512C10.9718 8.52659 10.6436 8.28613 10 8.28613Z"
    fill="currentColor"
  />
</svg>
