<svg width="24" height="24" viewBox="0 0 24 24" fill="none" xmlns="http://www.w3.org/2000/svg" data-fui-icon="true">
  <path
    d="M22 18C22.5523 18 23 18.4477 23 19C23 19.5523 22.5523 20 22 20H2C1.44772 20 1 19.5523 1 19C1 18.4477 1.44772 18 2 18H22ZM22 11C22.5523 11 23 11.4477 23 12C23 12.5523 22.5523 13 22 13H2C1.44772 13 1 12.5523 1 12C1 11.4477 1.44772 11 2 11H22ZM22 4C22.5523 4 23 4.44772 23 5C23 5.55228 22.5523 6 22 6H2C1.44772 6 1 5.55228 1 5C1 4.44772 1.44772 4 2 4H22Z"
    fill="currentColor"
  />
</svg>
