<svg width="24" height="24" viewBox="0 0 24 24" fill="none" xmlns="http://www.w3.org/2000/svg" data-fui-icon="true">
  <path
    d="M22.25 18.5C22.6642 18.5 23 18.8358 23 19.25C23 19.6642 22.6642 20 22.25 20H1.75C1.33579 20 1 19.6642 1 19.25C1 18.8358 1.33579 18.5 1.75 18.5H22.25ZM22.25 11.25C22.6642 11.25 23 11.5858 23 12C23 12.4142 22.6642 12.75 22.25 12.75H1.75C1.33579 12.75 1 12.4142 1 12C1 11.5858 1.33579 11.25 1.75 11.25H22.25ZM22.25 4C22.6642 4 23 4.33579 23 4.75C23 5.16421 22.6642 5.5 22.25 5.5H1.75C1.33579 5.5 1 5.16421 1 4.75C1 4.33579 1.33579 4 1.75 4H22.25Z"
    fill="currentColor"
  />
</svg>
