<svg width="16" height="16" viewBox="0 0 16 16" fill="none" xmlns="http://www.w3.org/2000/svg" data-fui-icon="true">
  <path
    d="M15.25 12.75C15.6642 12.75 16 13.0858 16 13.5C16 13.9142 15.6642 14.25 15.25 14.25H0.75C0.335786 14.25 0 13.9142 0 13.5C0 13.0858 0.335786 12.75 0.75 12.75H15.25ZM15.25 7.25C15.6642 7.25 16 7.58579 16 8C16 8.41421 15.6642 8.75 15.25 8.75H0.75C0.335786 8.75 0 8.41421 0 8C0 7.58579 0.335786 7.25 0.75 7.25H15.25ZM15.25 1.75C15.6642 1.75 16 2.08579 16 2.5C16 2.91421 15.6642 3.25 15.25 3.25H0.75C0.335786 3.25 0 2.91421 0 2.5C0 2.08579 0.335786 1.75 0.75 1.75H15.25Z"
    fill="currentColor"
  />
</svg>
