<svg width="12" height="12" viewBox="0 0 12 12" fill="none" xmlns="http://www.w3.org/2000/svg" data-fui-icon="true">
  <path
    d="M11 8.25C11.4142 8.25 11.75 8.58579 11.75 9C11.75 9.41421 11.4142 9.75 11 9.75H1C0.585786 9.75 0.25 9.41421 0.25 9C0.25 8.58579 0.585786 8.25 1 8.25H11ZM11 5.25C11.4142 5.25 11.75 5.58579 11.75 6C11.75 6.41421 11.4142 6.75 11 6.75H1C0.585786 6.75 0.25 6.41421 0.25 6C0.25 5.58579 0.585786 5.25 1 5.25H11ZM11 2.25C11.4142 2.25 11.75 2.58579 11.75 3C11.75 3.41421 11.4142 3.75 11 3.75H1C0.585786 3.75 0.25 3.41421 0.25 3C0.25 2.58579 0.585786 2.25 1 2.25H11Z"
    fill="currentColor"
  />
</svg>
