<svg width="32" height="32" viewBox="0 0 32 32" fill="none" xmlns="http://www.w3.org/2000/svg" data-fui-icon="true">
  <path
    d="M28 23.25C28.4142 23.25 28.75 23.5858 28.75 24C28.75 24.4142 28.4142 24.75 28 24.75H4C3.58579 24.75 3.25 24.4142 3.25 24C3.25 23.5858 3.58579 23.25 4 23.25H28ZM28 15.25C28.4142 15.25 28.75 15.5858 28.75 16C28.75 16.4142 28.4142 16.75 28 16.75H4C3.58579 16.75 3.25 16.4142 3.25 16C3.25 15.5858 3.58579 15.25 4 15.25H28ZM28 7.25C28.4142 7.25 28.75 7.58579 28.75 8C28.75 8.41421 28.4142 8.75 28 8.75H4C3.58579 8.75 3.25 8.41421 3.25 8C3.25 7.58579 3.58579 7.25 4 7.25H28Z"
    fill="currentColor"
  />
</svg>
