<svg width="20" height="20" viewBox="0 0 20 20" fill="none" xmlns="http://www.w3.org/2000/svg" data-fui-icon="true">
  <path
    d="M18 14.25C18.4142 14.25 18.75 14.5858 18.75 15C18.75 15.4142 18.4142 15.75 18 15.75H2C1.58579 15.75 1.25 15.4142 1.25 15C1.25 14.5858 1.58579 14.25 2 14.25H18ZM18 9.25C18.4142 9.25 18.75 9.58579 18.75 10C18.75 10.4142 18.4142 10.75 18 10.75H2C1.58579 10.75 1.25 10.4142 1.25 10C1.25 9.58579 1.58579 9.25 2 9.25H18ZM18 4.25C18.4142 4.25 18.75 4.58579 18.75 5C18.75 5.41421 18.4142 5.75 18 5.75H2C1.58579 5.75 1.25 5.41421 1.25 5C1.25 4.58579 1.58579 4.25 2 4.25H18Z"
    fill="currentColor"
  />
</svg>
