<svg width="20" height="20" viewBox="0 0 20 20" fill="none" xmlns="http://www.w3.org/2000/svg" data-fui-icon="true">
  <path
    d="M18.25 15.5C18.6642 15.5 19 15.8358 19 16.25C19 16.6642 18.6642 17 18.25 17H1.75C1.33579 17 1 16.6642 1 16.25C1 15.8358 1.33579 15.5 1.75 15.5H18.25ZM18.25 9.25C18.6642 9.25 19 9.58579 19 10C19 10.4142 18.6642 10.75 18.25 10.75H1.75C1.33579 10.75 1 10.4142 1 10C1 9.58579 1.33579 9.25 1.75 9.25H18.25ZM18.25 3C18.6642 3 19 3.33579 19 3.75C19 4.16421 18.6642 4.5 18.25 4.5H1.75C1.33579 4.5 1 4.16421 1 3.75C1 3.33579 1.33579 3 1.75 3H18.25Z"
    fill="currentColor"
  />
</svg>
