<svg width="12" height="12" viewBox="0 0 12 12" fill="none" xmlns="http://www.w3.org/2000/svg" data-fui-icon="true">
  <path
    d="M11.25 9.25C11.6642 9.25 12 9.58579 12 10C12 10.4142 11.6642 10.75 11.25 10.75H0.75C0.335786 10.75 0 10.4142 0 10C0 9.58579 0.335786 9.25 0.75 9.25H11.25ZM11.25 5.25C11.6642 5.25 12 5.58579 12 6C12 6.41421 11.6642 6.75 11.25 6.75H0.75C0.335786 6.75 0 6.41421 0 6C0 5.58579 0.335786 5.25 0.75 5.25H11.25ZM11.25 1.25C11.6642 1.25 12 1.58579 12 2C12 2.41421 11.6642 2.75 11.25 2.75H0.75C0.335786 2.75 0 2.41421 0 2C0 1.58579 0.335786 1.25 0.75 1.25H11.25Z"
    fill="currentColor"
  />
</svg>
