<svg width="32" height="32" viewBox="0 0 32 32" fill="none" xmlns="http://www.w3.org/2000/svg" data-fui-icon="true">
  <path
    fill-rule="evenodd"
    clip-rule="evenodd"
    d="M9.69653 13.6C14.5014 13.6 18.3967 17.4953 18.3967 22.3002C18.3966 27.1049 14.5014 31.0004 9.69653 31.0004C8.47844 31.0003 7.31799 30.7458 6.26392 30.2924C5.40213 30.4836 4.52639 30.7002 3.78052 30.8959L3.00708 31.1029C1.72597 31.4511 0.544554 30.2666 0.892821 28.9877L1.09985 28.2142C1.29557 27.468 1.51207 26.5921 1.70337 25.7299C1.25071 24.6764 0.996363 23.5172 0.996337 22.3002C0.99635 17.4955 4.89193 13.6003 9.69653 13.6ZM20.2004 1.00037C26.1649 1.00048 31.0001 5.83568 31.0002 11.8002C31.0002 13.344 30.6753 14.8146 30.0901 16.1449C30.3652 17.3928 30.6837 18.6674 30.9583 19.7025L31.2327 20.7191C31.5854 21.9993 30.4038 23.1861 29.1204 22.8324C27.9925 22.5215 26.2461 22.0624 24.5481 21.6879C23.3591 22.2114 22.058 22.5258 20.6926 22.5873C20.6951 22.4918 20.7004 22.3962 20.7004 22.3002C20.7004 16.225 15.7756 11.3002 9.70044 11.3002C9.60414 11.3002 9.50806 11.3045 9.41235 11.307C9.67027 5.57156 14.4014 1.00065 20.2004 1.00037Z"
    fill="currentColor"
  />
</svg>
