<svg width="12" height="12" viewBox="0 0 12 12" fill="none" xmlns="http://www.w3.org/2000/svg" data-fui-icon="true">
  <g clip-path="url(#clip0_6949_118)">
    <path
      d="M0.219727 0.219727C0.469741 -0.0300623 0.85231 -0.066664 1.14108 0.110031C1.15787 0.120301 1.17302 0.132984 1.18694 0.146899L11.7197 10.6807C11.742 10.703 11.7657 10.7232 11.7901 10.7419C11.8105 10.7575 11.83 10.7743 11.8455 10.7947C12.0707 11.0887 12.0491 11.5112 11.7803 11.7803C11.4875 12.073 11.0126 12.0729 10.7197 11.7803L9.86398 10.9245C9.75702 10.8176 9.58761 10.8077 9.46424 10.8952C8.48541 11.5898 7.2906 12 5.99902 12C5.44117 11.9999 4.89973 11.9236 4.38574 11.7803C3.80071 11.6171 3.34367 11.5423 2.94727 11.6406C2.5752 11.733 2.21353 11.8406 1.8877 11.9463C1.30963 12.1336 0.760706 11.9101 0.424805 11.5742C0.08895 11.2383 -0.134716 10.6894 0.0527344 10.1113L0.210938 9.59863C0.262301 9.42095 0.311375 9.23705 0.357422 9.05078C0.455407 8.65422 0.381642 8.19802 0.21875 7.61328C0.0755338 7.09919 -0.000976562 6.55778 -0.000976562 6C-0.000976562 4.70837 0.4083 3.51277 1.10284 2.53382C1.19038 2.41044 1.18048 2.24102 1.07351 2.13405L0.219727 1.28027C-0.0730998 0.987393 -0.0730998 0.512607 0.219727 0.219727ZM2.58277 3.64332C2.45158 3.51212 2.23329 3.53007 2.13783 3.68916C1.73251 4.36462 1.49902 5.15499 1.49902 6C1.49902 6.42036 1.557 6.8266 1.66406 7.21094C1.83328 7.81841 2.01244 8.60631 1.81348 9.41113C1.76921 9.59019 1.72199 9.76599 1.6734 9.93644C1.60657 10.1709 1.82718 10.3915 2.0616 10.3246C2.23175 10.2761 2.40727 10.2289 2.58594 10.1846C3.39145 9.98477 4.18026 10.1654 4.78809 10.335C5.17242 10.4422 5.57865 10.4999 5.99902 10.5C6.84394 10.5 7.63362 10.2657 8.30887 9.86026C8.46795 9.76475 8.48591 9.54645 8.3547 9.41525L2.58277 3.64332ZM5.99902 0C9.31273 0 11.999 2.68629 11.999 6C11.999 6.6803 11.885 7.33367 11.6759 7.94293C11.607 8.14371 11.3533 8.19314 11.2032 8.04304L10.4619 7.30173C10.3858 7.22565 10.357 7.11483 10.3814 7.01004C10.457 6.68538 10.499 6.3477 10.499 6C10.499 3.51472 8.4843 1.5 5.99902 1.5C5.65115 1.50004 5.31302 1.5414 4.98801 1.61674C4.88321 1.64103 4.77243 1.61223 4.69639 1.53613L3.95575 0.794874C3.80574 0.644743 3.85522 0.391149 4.05599 0.322341C4.66531 0.113512 5.31888 6.8837e-05 5.99902 0Z"
      fill="currentColor"
    />
  </g>
  <defs>
    <clipPath id="clip0_6949_118"><path fill="currentColor" d="M0 0H12V12H0z" /></clipPath>
  </defs>
</svg>
