<svg width="24" height="24" viewBox="0 0 24 24" fill="none" xmlns="http://www.w3.org/2000/svg" data-fui-icon="true">
  <path
    fill-rule="evenodd"
    clip-rule="evenodd"
    d="M7.49688 10C11.0864 10.0003 13.9969 12.9102 13.9969 16.5C13.9969 20.0898 11.0864 22.9997 7.49688 23C6.61967 23 5.78077 22.8252 5.01543 22.5088C4.20569 22.6905 3.38654 22.902 2.79375 23.0635C1.66636 23.3702 0.625338 22.3299 0.932424 21.2021L1.23906 20.0254C1.32319 19.6874 1.40674 19.3309 1.48614 18.9766C1.17089 18.212 0.996877 17.3752 0.996877 16.5C0.996877 12.9103 3.90719 10.0002 7.49688 10ZM7.49688 12C5.01176 12.0002 2.99688 14.0148 2.99688 16.5C2.99688 17.1962 3.15437 17.8529 3.43438 18.4385C3.53064 18.6399 3.5578 18.8688 3.51055 19.0889C3.37579 19.7165 3.21585 20.3603 3.0711 20.9238C3.63374 20.7789 4.27752 20.6191 4.90508 20.4844L5.07207 20.4629C5.18296 20.4578 5.29397 20.4712 5.4002 20.502L5.55645 20.5615L5.7791 20.6602C6.30748 20.8786 6.88734 21 7.49688 21L7.72832 20.9941C10.106 20.8734 11.9969 18.9074 11.9969 16.5C11.9969 14.0926 10.106 12.1266 7.72832 12.0059L7.49688 12ZM14.9998 1C19.418 1.00012 22.9998 4.5818 22.9998 9C22.9998 10.1085 22.7714 11.1656 22.3621 12.1279C22.5532 12.9868 22.7717 13.8585 22.9607 14.5713L23.1561 15.2949C23.4674 16.4248 22.4241 17.4657 21.2957 17.1553L20.5721 16.96C19.86 16.7708 18.99 16.5513 18.1326 16.3604C17.4599 16.647 16.7401 16.843 15.9891 16.9365C15.9964 16.7919 15.9998 16.6464 15.9998 16.5C15.9998 15.9664 15.9474 15.4448 15.8533 14.9385C16.3562 14.8668 16.8388 14.7339 17.2928 14.5459L17.5916 14.4131L17.7469 14.3535C17.8534 14.3226 17.9647 14.3094 18.076 14.3145L18.243 14.3359C19.2067 14.5429 20.2025 14.7928 21.0076 15.0059C20.7948 14.1999 20.5447 13.204 20.3377 12.2402C20.2904 12.0199 20.3182 11.7906 20.4148 11.5889C20.7897 10.8065 20.9998 9.92918 20.9998 9C20.9998 5.68637 18.3134 3.00012 14.9998 3L14.6912 3.00781C11.8078 3.15399 9.46136 5.33572 9.06035 8.14453C8.55446 8.05064 8.0329 8.00001 7.49981 8C7.35318 8 7.20712 8.00243 7.06231 8.00977C7.5502 4.0589 10.9171 1.00012 14.9998 1Z"
    fill="currentColor"
  />
</svg>
