<svg
  width="16"
  height="16"
  viewBox="0 0 16 16"
  fill="none"
  xmlns="http://www.w3.org/2000/svg"
  data-fui-icon="true"
>
  <path
    d="M0.71967 14.2197C0.426777 14.5126 0.426777 14.9874 0.71967 15.2803C1.01256 15.5732 1.48744 15.5732 1.78033 15.2803L0.71967 14.2197ZM15.2803 1.78033C15.5732 1.48744 15.5732 1.01256 15.2803 0.71967C14.9874 0.426777 14.5126 0.426777 14.2197 0.71967L15.2803 1.78033ZM1.08301 10.3125C1.08301 10.7267 1.41879 11.0625 1.83301 11.0625C2.24722 11.0625 2.58301 10.7267 2.58301 10.3125H1.08301ZM6.19599 12.323L5.71304 12.8968L5.71425 12.8978L6.19599 12.323ZM7.57299 13.477L8.05588 12.9031L8.05473 12.9022L7.57299 13.477ZM8.42599 13.479L7.94752 12.9014L7.94563 12.903L8.42599 13.479ZM9.82499 12.32L9.3477 11.7415L9.34652 11.7424L9.82499 12.32ZM1.78033 15.2803L15.2803 1.78033L14.2197 0.71967L0.71967 14.2197L1.78033 15.2803ZM10.25 1.75H3.16701V3.25H10.25V1.75ZM3.16701 1.75C2.01616 1.75 1.08301 2.68242 1.08301 3.833H2.58301C2.58301 3.51158 2.84386 3.25 3.16701 3.25V1.75ZM1.08301 3.833V10.3125H2.58301V3.833H1.08301ZM3.814 12.917H5.76799V11.417H3.814V12.917ZM5.76799 12.917C5.74824 12.917 5.72898 12.9102 5.71304 12.8968L6.67895 11.7492C6.42301 11.5338 6.09974 11.417 5.76799 11.417V12.917ZM5.71425 12.8978L7.09125 14.0518L8.05473 12.9022L6.67773 11.7482L5.71425 12.8978ZM7.0901 14.0509C7.61397 14.4917 8.37991 14.494 8.90636 14.055L7.94563 12.903C7.97808 12.876 8.02402 12.8763 8.05588 12.9031L7.0901 14.0509ZM8.90447 14.0565L10.3035 12.8975L9.34652 11.7424L7.94752 12.9014L8.90447 14.0565ZM10.3023 12.8985C10.288 12.9103 10.2693 12.917 10.251 12.917V11.417C9.92071 11.417 9.60198 11.5317 9.3477 11.7415L10.3023 12.8985ZM10.251 12.917H12.833V11.417H10.251V12.917ZM12.833 12.917C13.9838 12.917 14.917 11.9846 14.917 10.834H13.417C13.417 11.1554 13.1561 11.417 12.833 11.417V12.917ZM14.917 10.834V3.83399H13.417V10.834H14.917ZM14.917 3.83399C14.917 2.97646 14.398 2.248 13.6681 1.92807L13.0659 3.30191C13.276 3.39398 13.417 3.59952 13.417 3.83399H14.917Z"
    fill="currentColor"
  />
</svg>
