<svg width="32" height="32" viewBox="0 0 32 32" fill="none" xmlns="http://www.w3.org/2000/svg" data-fui-icon="true">
  <path
    d="M9.69629 13.6C14.5012 13.6 18.3965 17.4953 18.3965 22.3002C18.3964 27.1049 14.5011 31.0004 9.69629 31.0004C8.4782 31.0003 7.31775 30.7458 6.26367 30.2924C5.40189 30.4836 4.52614 30.7002 3.78027 30.8959L3.00684 31.1029C1.72573 31.4511 0.544311 30.2666 0.892578 28.9877L1.09961 28.2142C1.29532 27.468 1.51183 26.5921 1.70312 25.7299C1.25047 24.6764 0.99612 23.5172 0.996094 22.3002C0.996107 17.4955 4.89169 13.6003 9.69629 13.6ZM20.2002 1.00037C26.1647 1.00048 30.9999 5.83568 31 11.8002C30.9999 13.344 30.675 14.8146 30.0898 16.1449C30.365 17.3928 30.6834 18.6674 30.958 19.7025L31.2324 20.7191C31.5852 21.9993 30.4036 23.1861 29.1201 22.8324C27.9923 22.5215 26.2459 22.0624 24.5479 21.6879C23.2167 22.2739 21.7452 22.5999 20.2002 22.6C20.1976 22.5999 20.1949 22.599 20.1924 22.599C20.1952 22.4997 20.2002 22.4001 20.2002 22.3002C20.2002 16.5013 15.499 11.8004 9.7002 11.8002C9.60008 11.8002 9.49983 11.8042 9.40039 11.807C9.40039 11.8047 9.40039 11.8024 9.40039 11.8002C9.40052 5.83581 14.2358 1.00066 20.2002 1.00037Z"
    fill="currentColor"
  />
</svg>
