<svg width="32" height="32" viewBox="0 0 32 32" fill="none" xmlns="http://www.w3.org/2000/svg" data-fui-icon="true">
  <path
    d="M1.21973 1.21973C1.51253 0.926945 1.98737 0.927108 2.28027 1.21973C2.28541 1.22486 2.28921 1.23116 2.29151 1.23804C2.32705 1.34459 2.3849 1.44545 2.46973 1.53027L30.4697 29.5303C30.5539 29.6144 30.654 29.6715 30.7597 29.7071C30.7674 29.7097 30.7745 29.714 30.7803 29.7197C31.073 30.0126 31.0731 30.4874 30.7803 30.7803C30.4874 31.073 30.0126 31.073 29.7197 30.7803L26.2634 27.3239C26.1503 27.2108 25.9687 27.2066 25.8481 27.3116C23.3035 29.5289 20.0048 30.9035 16.3867 30.9951L16 31C14.5988 31 13.2411 30.8068 11.9531 30.4463C10.1177 29.9326 8.34038 29.6291 6.71094 30.1162C5.90138 30.3583 5.13494 30.6069 4.43848 30.8447C3.43485 31.1872 2.44483 30.8197 1.8125 30.1875C1.18023 29.5552 0.812842 28.5652 1.15527 27.5615C1.39299 26.8655 1.64201 26.0992 1.88379 25.29C2.37061 23.6604 2.06599 21.8825 1.55273 20.0469C1.19259 18.7588 1.00004 17.401 1 16C1.00012 12.2306 2.39047 8.78509 4.68644 6.14994C4.79148 6.0294 4.7872 5.84775 4.67414 5.73469L1.21973 2.28027C0.927149 1.98741 0.927067 1.51254 1.21973 1.21973ZM6.16267 7.22322C6.04091 7.10146 5.84161 7.10676 5.72979 7.23771C3.71615 9.59583 2.50011 12.6562 2.5 16C2.50004 17.2632 2.67326 18.4855 2.99707 19.6436C3.52193 21.5207 3.93707 23.6555 3.32031 25.7197C3.07233 26.5497 2.81829 27.3341 2.5752 28.0459C2.45153 28.4087 2.56515 28.819 2.87305 29.127C3.181 29.4348 3.59135 29.5485 3.9541 29.4248C4.66619 29.1816 5.45083 28.927 6.28125 28.6787C8.34548 28.0616 10.4803 28.4766 12.3574 29.002C13.5152 29.326 14.7369 29.5 16 29.5L16.3486 29.4951C19.5562 29.4138 22.4836 28.2107 24.7593 26.2673C24.8903 26.1555 24.8956 25.9562 24.7738 25.8344L6.16267 7.22322ZM16.3867 1.00488C24.4921 1.21006 30.9998 7.84529 31 16C30.9999 19.2371 29.9719 22.2324 28.2276 24.6829C28.1216 24.8318 27.9076 24.8471 27.7784 24.7178L27.1299 24.0693C27.0257 23.9652 27.0129 23.8011 27.0968 23.6802C28.6097 21.4998 29.4999 18.855 29.5 16C29.4998 8.66093 23.6431 2.68986 16.3486 2.50488L16 2.5C13.1449 2.50005 10.4978 3.38762 8.3169 4.90031C8.19593 4.98421 8.03188 4.97134 7.92778 4.86724L7.27831 4.21776C7.14904 4.08849 7.16434 3.87446 7.31331 3.76848C9.76447 2.02466 12.7627 1.00005 16 1L16.3867 1.00488Z"
    fill="currentColor"
  />
</svg>
