<svg width="24" height="24" viewBox="0 0 24 24" fill="none" xmlns="http://www.w3.org/2000/svg" data-fui-icon="true">
  <path
    d="M12.3096 0.00390625C13.6154 0.0370115 14.8691 0.279787 16.0391 0.698242C16.2415 0.770799 16.2946 1.02848 16.1426 1.18066L11.585 5.73926C10.9026 6.42165 10.4728 7.31722 10.3662 8.27637L10.1172 10.5078C9.90137 12.4503 11.5438 14.0917 13.4863 13.876L15.7188 13.6279C16.6776 13.5213 17.5717 13.0913 18.2539 12.4092L22.8145 7.84766C22.9666 7.69551 23.2242 7.74866 23.2969 7.95117C23.7508 9.21619 24 10.5788 24 12L23.9961 12.3096C23.8345 18.6909 18.6908 23.8343 12.3096 23.9961L12 24C10.7647 24 9.57066 23.8134 8.44727 23.4658C7.11855 23.0548 5.86449 22.8242 4.72168 23.1484C4.12921 23.3166 3.56366 23.4939 3.04688 23.666C2.21253 23.9437 1.39859 23.631 0.883789 23.1162C0.369073 22.6013 0.0561794 21.7875 0.333984 20.9531C0.506391 20.4354 0.683421 19.8685 0.851562 19.2744C1.17493 18.1316 0.945068 16.878 0.53418 15.5498C0.230324 14.5674 0.0492856 13.5316 0.00878906 12.4609L0 12C3.73009e-05 5.37274 5.37277 0.000195433 12 0L12.3096 0.00390625ZM21.1904 7.35059L17.1934 11.3486C16.7519 11.79 16.1732 12.0677 15.5527 12.1367L13.3203 12.3857C12.3334 12.4951 11.4999 11.6608 11.6094 10.6738L11.8564 8.44141C11.9254 7.82098 12.2041 7.24224 12.6455 6.80078L16.6426 2.80273L21.1904 7.35059ZM18.4824 0.963867C19.7383 -0.291901 21.7744 -0.291901 23.0303 0.963867C24.2859 2.21977 24.286 4.25587 23.0303 5.51172L22.251 6.29004L17.7031 1.74219L18.4824 0.963867Z"
    fill="currentColor"
  />
</svg>
