<svg width="20" height="20" viewBox="0 0 20 20" fill="none" xmlns="http://www.w3.org/2000/svg" data-fui-icon="true">
  <path
    d="M17.7549 2.18646C18.066 1.91309 18.54 1.94375 18.8135 2.25482C19.0869 2.56596 19.0562 3.04 18.7451 3.31342L18.3418 3.66693C18.4557 4.04984 18.459 4.46952 18.459 4.79095V13.541C18.459 14.8762 17.3772 15.9579 16.042 15.9579H12.8145C12.7947 15.958 12.7752 15.9653 12.7617 15.9765L12.2822 15.3994V15.4003L12.7617 15.9765L12.7607 15.9775L11.0117 17.4267C10.4222 17.9153 9.56911 17.9107 8.98438 17.4208L7.2627 15.9775L7.23828 15.9628C7.22932 15.9595 7.21968 15.9579 7.20996 15.9579H4.35645L2.24512 17.8134C1.93397 18.0868 1.45994 18.0562 1.18652 17.7451C0.913192 17.4339 0.943778 16.9599 1.25488 16.6865L17.7549 2.18646ZM6.06348 14.4579H7.20996C7.5824 14.4579 7.94184 14.5892 8.22656 14.8281L9.94824 16.2714H9.94727C9.97847 16.2976 10.0242 16.2967 10.0547 16.2714L11.8037 14.8222C12.088 14.5862 12.4468 14.458 12.8145 14.4579H16.042C16.5488 14.4579 16.959 14.0477 16.959 13.541V4.88275L6.06348 14.4579ZM13.25 2.37494C13.6642 2.37494 14 2.71076 14 3.12494C14 3.53915 13.6642 3.87494 13.25 3.87494H3.95898C3.45226 3.87498 3.04203 4.2852 3.04199 4.79193V13.2499C3.04199 13.6642 2.70621 13.9999 2.29199 13.9999C1.87781 13.9999 1.54199 13.6641 1.54199 13.2499V4.79193C1.54203 3.45677 2.62383 2.37498 3.95898 2.37494H13.25Z"
    fill="currentColor"
  />
</svg>
