<svg width="32" height="32" viewBox="0 0 32 32" fill="none" xmlns="http://www.w3.org/2000/svg" data-fui-icon="true">
  <path
    fill-rule="evenodd"
    clip-rule="evenodd"
    d="M16.1086 0.5C24.623 0.500193 31.5246 7.40306 31.5246 15.918C31.5246 24.4329 24.623 31.3357 16.1086 31.3359C13.8136 31.3359 11.6341 30.8325 9.67504 29.9316C7.49615 30.406 5.24548 30.9833 3.54418 31.4414C1.75903 31.9217 0.102478 30.266 0.583241 28.4805C1.04185 26.778 1.61833 24.5252 2.09301 22.3447C1.19423 20.3875 0.69164 18.2106 0.69164 15.918C0.691702 7.40299 7.59428 0.500141 16.1086 0.5ZM16.1086 2C8.4228 2.00014 2.1917 8.23131 2.19164 15.918C2.19164 18.0712 2.68053 20.1086 3.55199 21.9268C3.6263 22.082 3.64794 22.2583 3.61156 22.4277C3.12028 24.7149 2.51075 27.0956 2.03246 28.8711C1.85264 29.5395 2.48472 30.1718 3.15355 29.9922C4.92825 29.5143 7.30783 28.9051 9.59398 28.4141C9.72115 28.3867 9.85279 28.392 9.97582 28.4277L10.0959 28.4736L10.4397 28.6328C12.1703 29.4057 14.0885 29.8359 16.1086 29.8359L16.468 29.8311C23.9877 29.6402 30.0246 23.4845 30.0246 15.918C30.0246 8.35147 23.9877 2.19569 16.468 2.00488L16.1086 2ZM9.50023 14.5C10.3285 14.5 11.0001 15.1717 11.0002 16C11.0002 16.8284 10.3286 17.5 9.50023 17.5C8.67181 17.5 8.00023 16.8284 8.00023 16C8.00041 15.1717 8.67192 14.5 9.50023 14.5ZM16.0002 14.5C16.8285 14.5 17.5001 15.1717 17.5002 16C17.5002 16.8284 16.8286 17.5 16.0002 17.5C15.1718 17.5 14.5002 16.8284 14.5002 16C14.5004 15.1717 15.1719 14.5 16.0002 14.5ZM22.5002 14.5C23.3285 14.5 24.0001 15.1717 24.0002 16C24.0002 16.8284 23.3286 17.5 22.5002 17.5C21.6718 17.5 21.0002 16.8284 21.0002 16C21.0004 15.1717 21.6719 14.5 22.5002 14.5Z"
    fill="currentColor"
  />
</svg>
