<svg
  width="20"
  height="20"
  viewBox="0 0 20 20"
  fill="none"
  xmlns="http://www.w3.org/2000/svg"
  data-fui-icon="true"
>
  <path
    d="M12.8125 4.75V10.375C12.8125 11.4297 11.9629 12.25 10.9375 12.25H7.1875L3.99414 14.0664C3.90625 14.125 3.84766 14.125 3.78906 14.125C3.58398 14.125 3.4375 14.0078 3.4375 13.7734V12.25H2.5C1.44531 12.25 0.625 11.4297 0.625 10.375V4.75C0.625 3.72461 1.44531 2.875 2.5 2.875H10.9375C11.9629 2.875 12.8125 3.72461 12.8125 4.75ZM4.84375 11.9863L6.80664 10.8438H10.9375C11.1719 10.8438 11.4062 10.6387 11.4062 10.375V4.75C11.4062 4.51562 11.1719 4.28125 10.9375 4.28125H2.5C2.23633 4.28125 2.03125 4.51562 2.03125 4.75V10.375C2.03125 10.6387 2.23633 10.8438 2.5 10.8438H4.84375V11.9863ZM8.125 14.125V13.1875H9.53125V14.125C9.53125 14.3887 9.73633 14.5938 10 14.5938H13.1641L15.1562 15.7363V14.5938H17.5C17.7344 14.5938 17.9688 14.3887 17.9688 14.125V8.5C17.9688 8.26562 17.7344 8.03125 17.5 8.03125H13.75V6.625H17.5C18.5254 6.625 19.375 7.47461 19.375 8.5V14.125C19.375 15.1797 18.5254 16 17.5 16H16.5625V17.5234C16.5625 17.7578 16.3867 17.875 16.2109 17.875C16.123 17.875 16.0645 17.875 15.9766 17.8164L12.8125 16H10C8.94531 16 8.125 15.1797 8.125 14.125Z"
    fill="currentColor"
  />
</svg>
