<svg width="24" height="24" viewBox="0 0 24 24" fill="none" xmlns="http://www.w3.org/2000/svg" data-fui-icon="true">
  <path
    fill-rule="evenodd"
    clip-rule="evenodd"
    d="M7.49687 10C11.0865 10.0003 13.9969 12.9103 13.9969 16.5C13.9969 20.0897 11.0865 22.9997 7.49687 23C6.6197 23 5.78075 22.8251 5.01542 22.5088C4.20565 22.6905 3.38653 22.902 2.79374 23.0635C1.66609 23.3703 0.625394 22.3297 0.932417 21.2021L1.23906 20.0254C1.323 19.6883 1.4069 19.3329 1.48613 18.9795C1.1702 18.214 0.99687 17.3759 0.99687 16.5C0.99687 12.9103 3.90718 10.0002 7.49687 10ZM14.9998 1C19.4179 1.00021 22.9998 4.58185 22.9998 9C22.9998 10.1085 22.7713 11.1657 22.3621 12.1279C22.5532 12.9868 22.7717 13.8585 22.9607 14.5713L23.156 15.2949C23.4674 16.4248 22.4241 17.4657 21.2957 17.1553L20.5721 16.96C19.86 16.7708 18.99 16.5513 18.1326 16.3604C17.4599 16.647 16.7401 16.843 15.9891 16.9365C15.9964 16.7919 15.9998 16.6464 15.9998 16.5C15.9998 11.8057 12.1941 8.00012 7.4998 8C7.35317 8 7.20711 8.00243 7.0623 8.00977C7.55019 4.0589 10.917 1.00012 14.9998 1Z"
    fill="currentColor"
  />
</svg>
