<svg
  width="12"
  height="12"
  viewBox="0 0 12 12"
  fill="none"
  xmlns="http://www.w3.org/2000/svg"
  data-fui-icon="true"
>
  <path
    d="M3.67969 5.0625C3.67969 4.86914 3.82031 4.71094 4.03125 4.71094C4.22461 4.71094 4.38281 4.86914 4.38281 5.0625C4.38281 5.25586 4.22461 5.41406 4.03125 5.41406C3.82031 5.41406 3.67969 5.25586 3.67969 5.0625ZM3.73242 2.39062H4.25977C4.7168 2.39062 5.10352 2.77734 5.10352 3.23438C5.10352 3.55078 4.92773 3.83203 4.62891 3.97266L4.29492 4.14844V4.21875C4.29492 4.37695 4.17188 4.5 4.01367 4.5C3.87305 4.5 3.73242 4.37695 3.73242 4.21875V3.97266C3.73242 3.86719 3.80273 3.76172 3.89062 3.72656L4.38281 3.48047C4.4707 3.42773 4.54102 3.33984 4.54102 3.23438C4.54102 3.07617 4.41797 2.95312 4.25977 2.95312H3.73242C3.60938 2.95312 3.50391 3.05859 3.50391 3.18164C3.50391 3.33984 3.38086 3.46289 3.22266 3.46289C3.06445 3.46289 2.94141 3.33984 2.94141 3.18164C2.94141 2.74219 3.29297 2.39062 3.73242 2.39062ZM6.5625 6.75H4.3125L2.39648 7.83984C2.34375 7.875 2.30859 7.875 2.27344 7.875C2.15039 7.875 2.0625 7.80469 2.0625 7.66406V6.75H1.5C0.867188 6.75 0.375 6.25781 0.375 5.625V2.25C0.375 1.63477 0.867188 1.125 1.5 1.125H6.5625C7.17773 1.125 7.6875 1.63477 7.6875 2.25V5.625C7.6875 6.25781 7.17773 6.75 6.5625 6.75ZM6.5625 5.90625C6.70312 5.90625 6.84375 5.7832 6.84375 5.625V2.25C6.84375 2.10938 6.70312 1.96875 6.5625 1.96875H1.5C1.3418 1.96875 1.21875 2.10938 1.21875 2.25V5.625C1.21875 5.7832 1.3418 5.90625 1.5 5.90625H2.90625V6.5918L4.08398 5.90625H6.5625ZM5.71875 7.3125V7.875C5.71875 8.0332 5.8418 8.15625 6 8.15625H7.89844L9.09375 8.8418V8.15625H10.5C10.6406 8.15625 10.7812 8.0332 10.7812 7.875V4.5C10.7812 4.35938 10.6406 4.21875 10.5 4.21875H8.25V3.375H10.5C11.1152 3.375 11.625 3.88477 11.625 4.5V7.875C11.625 8.50781 11.1152 9 10.5 9H9.9375V9.91406C9.9375 10.0547 9.83203 10.125 9.72656 10.125C9.67383 10.125 9.63867 10.125 9.58594 10.0898L7.6875 9H6C5.36719 9 4.875 8.50781 4.875 7.875V7.3125H5.71875Z"
    fill="currentColor"
  />
</svg>
