<svg width="13" height="13" viewBox="0 0 13 13" fill="none" xmlns="http://www.w3.org/2000/svg" data-fui-icon="true">
  <path
    d="M6.84183 0.00845322C7.0401 0.0185084 7.14113 0.247275 7.04238 0.419499C6.84371 0.765977 6.6946 1.14457 6.60497 1.54551C6.59481 1.59098 6.5545 1.62363 6.50792 1.62302C3.81882 1.62302 1.63887 3.80297 1.63887 6.49208C1.63887 6.94684 1.70083 7.38571 1.81639 7.80127C1.99912 8.45824 2.1935 9.31043 1.97911 10.1809C1.85728 10.6754 2.31948 11.1436 2.81387 11.0209C3.68561 10.8046 4.53884 10.9991 5.19662 11.1826C5.61285 11.2986 6.05271 11.3611 6.50792 11.3611L6.75835 11.3548C9.33099 11.2243 11.377 9.09702 11.377 6.49208C11.377 6.4449 11.4085 6.40405 11.4545 6.39374C11.7431 6.32915 12.0199 6.23359 12.2815 6.11091C12.5975 5.9627 13 6.14302 13 6.49208C13 9.96551 10.2719 12.8017 6.84183 12.9757L6.50792 12.9842C5.90396 12.9841 5.31789 12.9016 4.76128 12.7464C4.12806 12.5698 3.63387 12.489 3.20483 12.5953C2.80238 12.6952 2.41124 12.8116 2.05886 12.9259C2.05853 12.926 2.05818 12.926 2.05783 12.926C2.05748 12.926 2.05713 12.9261 2.0568 12.9262C1.43183 13.128 0.839661 12.8858 0.47655 12.5224C0.113274 12.1587 -0.128751 11.5657 0.0739657 10.9406L0.244087 10.3858C0.299603 10.1933 0.353898 9.99396 0.403641 9.792C0.509209 9.3627 0.428455 8.86909 0.25254 8.23661C0.0978717 7.68053 0.0158498 7.09515 0.0158498 6.49208C0.0158498 2.9066 2.92246 5.83143e-06 6.50792 0L6.84183 0.00845322ZM4.88491 5.41006C5.4823 5.41028 5.96692 5.89463 5.96692 6.49208C5.96692 7.08952 5.4823 7.57387 4.88491 7.57409C4.28733 7.57409 3.80289 7.08965 3.80289 6.49208C3.80289 5.8945 4.28733 5.41006 4.88491 5.41006ZM8.13094 5.41006C8.72834 5.41028 9.21296 5.89463 9.21296 6.49208C9.21296 7.08952 8.72834 7.57387 8.13094 7.57409C7.53336 7.57409 7.04893 7.08965 7.04893 6.49208C7.04893 5.8945 7.53336 5.41006 8.13094 5.41006ZM10.5655 0C11.9099 0.000141638 13 1.09006 13 2.43453C13 3.77899 11.9099 4.86891 10.5655 4.86906C9.22092 4.86906 8.13094 3.77908 8.13094 2.43453C8.13094 1.08998 9.22092 0 10.5655 0ZM10.5655 1.62302C10.1173 1.62302 9.75396 1.98634 9.75396 2.43453C9.75396 2.88271 10.1173 3.24604 10.5655 3.24604C11.0135 3.2459 11.377 2.88263 11.377 2.43453C11.377 1.98643 11.0135 1.62316 10.5655 1.62302Z"
    fill="currentColor"
  />
</svg>
