<svg width="20" height="20" viewBox="0 0 20 20" fill="none" xmlns="http://www.w3.org/2000/svg" data-fui-icon="true">
  <path
    d="M10 0.5C15.2467 0.5 19.5 4.75329 19.5 10C19.5 15.2467 15.2467 19.5 10 19.5C8.62461 19.5 7.3181 19.2027 6.13672 18.6758C5.1285 18.8971 4.09805 19.1535 3.21973 19.3838C1.65401 19.7942 0.20475 18.345 0.615234 16.7793C0.845595 15.9013 1.09989 14.8695 1.32129 13.8604C0.79535 12.6796 0.5 11.3737 0.5 10C0.5 4.75329 4.75329 0.5 10 0.5ZM6 8.75C5.30964 8.75 4.75 9.30964 4.75 10C4.75 10.6904 5.30964 11.25 6 11.25C6.69036 11.25 7.25 10.6904 7.25 10C7.25 9.30964 6.69036 8.75 6 8.75ZM10 8.75C9.30976 8.75013 8.75 9.30973 8.75 10C8.75 10.6903 9.30976 11.2499 10 11.25C10.6904 11.25 11.25 10.6904 11.25 10C11.25 9.30964 10.6904 8.75 10 8.75ZM14 8.75C13.3096 8.75 12.75 9.30964 12.75 10C12.75 10.6904 13.3096 11.25 14 11.25C14.6904 11.25 15.25 10.6904 15.25 10C15.25 9.30964 14.6904 8.75 14 8.75Z"
    fill="currentColor"
  />
</svg>
