<svg
  width="13"
  height="12"
  viewBox="0 0 13 12"
  fill="none"
  xmlns="http://www.w3.org/2000/svg"
  data-fui-icon="true"
>
  <path
    d="M5.5 1.875H2.375C1.82271 1.875 1.375 2.32271 1.375 2.875V8.125C1.375 8.6773 1.82271 9.125 2.375 9.125H4.32591C4.44338 9.125 4.55709 9.16635 4.64711 9.2418L5.67965 10.1074C5.8646 10.2624 6.13395 10.2631 6.31985 10.1091L7.369 9.23995C7.45865 9.16565 7.5715 9.125 7.68795 9.125H9.625C10.1773 9.125 10.625 8.6773 10.625 8.125V6.125"
    stroke="currentColor"
    stroke-width="1.5"
    stroke-linecap="round"
  />
  <path
    d="M3.3125 5.5C3.3125 5.7416 3.50837 5.9375 3.75 5.9375C3.99163 5.9375 4.1875 5.7416 4.1875 5.5C4.1875 5.2584 3.99163 5.0625 3.75 5.0625C3.50837 5.0625 3.3125 5.2584 3.3125 5.5ZM5.5625 5.5C5.5625 5.7416 5.7584 5.9375 6 5.9375C6.2416 5.9375 6.4375 5.7416 6.4375 5.5C6.4375 5.2584 6.2416 5.0625 6 5.0625C5.7584 5.0625 5.5625 5.2584 5.5625 5.5Z"
    fill="currentColor"
  />
  <path
    fill-rule="evenodd"
    clip-rule="evenodd"
    d="M3.0625 5.5C3.0625 5.12034 3.37029 4.8125 3.75 4.8125C4.12971 4.8125 4.4375 5.12034 4.4375 5.5C4.4375 5.87966 4.12971 6.1875 3.75 6.1875C3.37029 6.1875 3.0625 5.87966 3.0625 5.5ZM3.75 5.3125C3.64646 5.3125 3.5625 5.39646 3.5625 5.5C3.5625 5.60354 3.64646 5.6875 3.75 5.6875C3.85354 5.6875 3.9375 5.60354 3.9375 5.5C3.9375 5.39646 3.85354 5.3125 3.75 5.3125ZM5.3125 5.5C5.3125 5.12033 5.62033 4.8125 6 4.8125C6.37967 4.8125 6.6875 5.12033 6.6875 5.5C6.6875 5.87967 6.37967 6.1875 6 6.1875C5.62033 6.1875 5.3125 5.87967 5.3125 5.5ZM6 5.3125C5.89647 5.3125 5.8125 5.39647 5.8125 5.5C5.8125 5.60353 5.89647 5.6875 6 5.6875C6.10353 5.6875 6.1875 5.60353 6.1875 5.5C6.1875 5.39647 6.10353 5.3125 6 5.3125Z"
    fill="currentColor"
  />
  <path
    d="M9.22539 4.17825L10.9759 2.4277C11.3492 2.05442 11.3492 1.4492 10.9759 1.07592C10.6027 0.702631 9.99744 0.702632 9.62416 1.07592L7.8736 2.82647C7.58483 3.11524 7.40294 3.49369 7.35784 3.89958C7.30693 4.35777 7.69409 4.74493 8.15228 4.69402C8.55816 4.64892 8.93662 4.46702 9.22539 4.17825Z"
    stroke="currentColor"
    stroke-width="1.5"
  />
</svg>
