<svg
  width="32"
  height="32"
  viewBox="0 0 32 32"
  fill="none"
  xmlns="http://www.w3.org/2000/svg"
  data-fui-icon="true"
>
  <path
    d="M3.66669 7.66667C3.66669 6.19391 4.86059 5 6.33335 5H25.6667C27.1395 5 28.3334 6.19391 28.3334 7.66667V21.6667C28.3334 23.1395 27.1395 24.3333 25.6667 24.3333H20.5012C20.1907 24.3333 19.8898 24.4417 19.6507 24.6399L16.853 26.9577C16.3572 27.3684 15.639 27.3664 15.1458 26.9529L12.3923 24.6448C12.1523 24.4436 11.849 24.3333 11.5358 24.3333H6.33335C4.86059 24.3333 3.66669 23.1395 3.66669 21.6667V7.66667Z"
    stroke="currentColor"
    stroke-width="1.5"
    stroke-linejoin="round"
  />
  <path
    d="M8.83331 14.6667C8.83331 15.3109 9.35565 15.8333 9.99998 15.8333C10.6443 15.8333 11.1666 15.3109 11.1666 14.6667C11.1666 14.0224 10.6443 13.5 9.99998 13.5C9.35565 13.5 8.83331 14.0224 8.83331 14.6667ZM14.8333 14.6667C14.8333 15.3109 15.3557 15.8333 16 15.8333C16.6442 15.8333 17.1666 15.3109 17.1666 14.6667C17.1666 14.0224 16.6442 13.5 16 13.5C15.3557 13.5 14.8333 14.0224 14.8333 14.6667ZM20.8333 14.6667C20.8333 15.3109 21.3557 15.8333 22 15.8333C22.6442 15.8333 23.1666 15.3109 23.1666 14.6667C23.1666 14.0224 22.6442 13.5 22 13.5C21.3557 13.5 20.8333 14.0224 20.8333 14.6667Z"
    fill="currentColor"
    stroke="currentColor"
    stroke-width=".75"
    stroke-linecap="square"
  />
</svg>
