<svg width="32" height="32" viewBox="0 0 32 32" fill="none" xmlns="http://www.w3.org/2000/svg" data-fui-icon="true">
  <path
    d="M16 1.00024C24.2842 1.00024 30.9998 7.71611 31 16.0002L30.9951 16.387C30.7897 24.4923 24.1549 31.0002 16 31.0002C14.5987 31.0002 13.241 30.8073 11.9531 30.4465C10.1178 29.9325 8.34043 29.6283 6.71094 30.1155C5.90132 30.3575 5.13494 30.6061 4.43848 30.844C3.43473 31.1865 2.44564 30.8183 1.81348 30.1858C1.18154 29.5533 0.81368 28.5642 1.15625 27.5608C1.39404 26.8645 1.64215 26.0981 1.88379 25.2883C2.37005 23.6585 2.06609 21.8815 1.55273 20.0461C1.23763 18.9195 1.0506 17.7393 1.00879 16.5237L1 16.0002C1.00017 7.71628 7.71608 1.00052 16 1.00024ZM9.50098 14.5002C8.67257 14.5002 8.00102 15.1719 8.00098 16.0002C8.00107 16.8286 8.67261 17.5002 9.50098 17.5002C10.3291 17.5 11.0009 16.8284 11.001 16.0002C11.0009 15.172 10.3292 14.5005 9.50098 14.5002ZM16.001 14.5002C15.1726 14.5002 14.501 15.1719 14.501 16.0002C14.5011 16.8286 15.1726 17.5002 16.001 17.5002C16.8291 17.5 17.5009 16.8284 17.501 16.0002C17.5009 15.172 16.8292 14.5005 16.001 14.5002ZM22.501 14.5002C21.6726 14.5002 21.001 15.1719 21.001 16.0002C21.0011 16.8286 21.6726 17.5002 22.501 17.5002C23.3291 17.5 24.0009 16.8284 24.001 16.0002C24.0009 15.172 23.3292 14.5005 22.501 14.5002Z"
    fill="currentColor"
  />
</svg>
