<svg width="16" height="16" viewBox="0 0 16 16" fill="none" xmlns="http://www.w3.org/2000/svg" data-fui-icon="true">
  <path
    fill-rule="evenodd"
    clip-rule="evenodd"
    d="M5.29754 6.65002C7.53397 6.65004 9.34821 8.46294 9.34832 10.6998L9.34344 10.9078C9.23512 13.0482 7.46424 14.7496 5.29754 14.7496C4.77004 14.7496 4.26562 14.6469 3.80242 14.4625C3.33258 14.5689 2.85995 14.689 2.51532 14.7828H2.51434C1.72679 14.9961 1.00112 14.2707 1.21453 13.483V13.4821C1.30819 13.1384 1.42854 12.6655 1.53485 12.1949C1.37786 11.7999 1.27969 11.3754 1.25457 10.9323L1.24774 10.6998C1.24785 8.46328 3.06116 6.6503 5.29754 6.65002ZM9.80047 1.24963C12.5337 1.25014 14.7505 3.4665 14.7507 6.19983C14.7506 6.86774 14.6168 7.50695 14.3757 8.09045C14.5302 8.78036 14.7124 9.47955 14.8386 9.93713V9.93811C15.0555 10.7291 14.3251 11.4534 13.5378 11.2369C13.0794 11.1106 12.3809 10.9285 11.6921 10.774C11.4371 10.8797 11.1705 10.9627 10.8962 11.025C10.8979 10.967 10.9011 10.9087 10.9011 10.8502C10.9011 7.67479 8.32641 5.10056 5.15106 5.10022C5.09179 5.10022 5.03216 5.10234 4.97332 5.10413C5.47223 2.89781 7.44351 1.2497 9.80047 1.24963Z"
    fill="currentColor"
  />
</svg>
