<svg width="16" height="16" viewBox="0 0 16 16" fill="none" xmlns="http://www.w3.org/2000/svg" data-fui-icon="true">
  <path
    d="M8 0C12.4183 0 16 3.58172 16 8C16 12.4183 12.4183 16 8 16C7.19254 16 6.41195 15.8799 5.67578 15.6562C4.83881 15.4019 4.11444 15.2707 3.46875 15.4434C3.07888 15.5476 2.70298 15.6613 2.35742 15.7734C1.69368 15.9886 1.05773 15.7335 0.662109 15.3379C0.266511 14.9423 0.0113204 14.3063 0.226562 13.6426C0.338703 13.2969 0.452525 12.9207 0.556641 12.5303C0.728836 11.8845 0.597691 11.1608 0.34375 10.3242C0.120282 9.58805 0 8.80729 0 8C0 3.58177 3.58182 9.74091e-05 8 0ZM4.5 7C3.94783 7.00013 3.5 7.4478 3.5 8C3.5 8.5522 3.94783 8.99987 4.5 9C5.05228 9 5.5 8.55229 5.5 8C5.5 7.44772 5.05228 7 4.5 7ZM8 7C7.44794 7.00026 7 7.44788 7 8C7 8.55212 7.44794 8.99974 8 9C8.55229 9 9 8.55229 9 8C9 7.44772 8.55229 7 8 7ZM11.5 7C10.9478 7.00013 10.5 7.4478 10.5 8C10.5 8.5522 10.9478 8.99987 11.5 9C12.0523 9 12.5 8.55229 12.5 8C12.5 7.44772 12.0523 7 11.5 7Z"
    fill="currentColor"
  />
</svg>
