<svg width="24" height="24" viewBox="0 0 24 24" fill="none" xmlns="http://www.w3.org/2000/svg" data-fui-icon="true">
  <path
    fill-rule="evenodd"
    clip-rule="evenodd"
    d="M7.49765 10.25C10.9488 10.2506 13.7477 13.0485 13.7477 16.5C13.7477 19.9515 10.9488 22.7494 7.49765 22.75C6.62695 22.75 5.79614 22.5698 5.0416 22.2471C4.20096 22.4337 3.34339 22.655 2.7291 22.8223C1.78798 23.0786 0.917884 22.209 1.17441 21.2676C1.34176 20.6535 1.56177 19.7938 1.74863 18.9512C1.42687 18.1974 1.24765 17.369 1.24765 16.5C1.24765 13.0482 4.04587 10.25 7.49765 10.25ZM14.9996 1.25C19.2797 1.25009 22.7496 4.71985 22.7496 9C22.7496 10.1024 22.5174 11.1522 22.1012 12.1035C22.2972 12.992 22.523 13.8989 22.7184 14.6357L22.9146 15.3613C23.1745 16.3041 22.3036 17.1733 21.3619 16.9141L20.6363 16.7178C19.8997 16.5221 18.9938 16.2946 18.1061 16.0986C17.2401 16.4781 16.2925 16.7041 15.2975 16.7422C15.2975 16.7282 15.2994 16.7142 15.2994 16.7002C15.2994 12.2819 11.7177 8.7002 7.29941 8.7002C7.28541 8.7002 7.27141 8.7011 7.25742 8.70117C7.41449 4.55955 10.8196 1.25013 14.9996 1.25Z"
    fill="currentColor"
  />
</svg>
