<svg width="24" height="24" viewBox="0 0 24 24" fill="none" xmlns="http://www.w3.org/2000/svg" data-fui-icon="true">
  <path
    d="M7.83154 10.0088C11.2656 10.1832 13.9966 13.0226 13.9966 16.5C13.9966 19.9774 11.2656 22.8168 7.83154 22.9912L7.49658 23C6.61928 23 5.78062 22.8252 5.01514 22.5088C4.66222 22.588 4.30708 22.6717 3.97021 22.7559L2.79346 23.0635C1.66662 23.3698 0.625094 22.3302 0.932129 21.2021L1.23877 20.0254C1.32286 19.6877 1.40649 19.3316 1.48584 18.9775C1.17037 18.2125 0.996582 17.3753 0.996582 16.5C0.996582 12.9102 3.90682 10.0001 7.49658 10L7.83154 10.0088ZM7.49658 12C5.01133 12.0001 2.99658 14.0148 2.99658 16.5C2.99658 17.1968 3.15402 17.854 3.43408 18.4395C3.53031 18.6409 3.55749 18.8698 3.51025 19.0898C3.37553 19.7172 3.21553 20.3606 3.0708 20.9238C3.6335 20.7789 4.27725 20.6191 4.90479 20.4844L5.07178 20.4629C5.18271 20.4579 5.29365 20.4712 5.3999 20.502L5.55615 20.5615L5.77881 20.6602C6.30717 20.8787 6.88677 21 7.49658 21C9.98176 20.9999 11.9966 18.9852 11.9966 16.5C11.9966 14.0148 9.98176 12.0001 7.49658 12ZM14.9995 1C19.4177 1.00012 22.9995 4.5818 22.9995 9C22.9995 10.1085 22.7711 11.1656 22.3618 12.1279C22.5529 12.9868 22.7715 13.8585 22.9604 14.5713L23.1558 15.2949C23.4672 16.4248 22.4238 17.4657 21.2954 17.1553L20.5718 16.96C19.8597 16.7708 18.9897 16.5513 18.1323 16.3604C17.4596 16.647 16.7398 16.843 15.9888 16.9365C15.9961 16.7919 15.9995 16.6464 15.9995 16.5C15.9995 15.9664 15.9471 15.4448 15.853 14.9385C16.3559 14.8668 16.8385 14.7339 17.2925 14.5459L17.5913 14.4131L17.7466 14.3535C17.8531 14.3226 17.9644 14.3094 18.0757 14.3145L18.2427 14.3359C19.2064 14.5429 20.2022 14.7928 21.0073 15.0059C20.7945 14.1999 20.5444 13.204 20.3374 12.2402C20.2901 12.0199 20.3179 11.7906 20.4146 11.5889C20.7894 10.8065 20.9995 9.92918 20.9995 9C20.9995 5.68637 18.3131 3.00012 14.9995 3C11.976 3.00011 9.47591 5.23672 9.06104 8.14551C8.55479 8.05148 8.03299 8.00001 7.49951 8C7.35288 8 7.20682 8.00243 7.06201 8.00977C7.53339 4.19269 10.692 1.20852 14.5874 1.01074L14.9995 1Z"
    fill="currentColor"
  />
</svg>
