<svg width="24" height="24" viewBox="0 0 24 24" fill="none" xmlns="http://www.w3.org/2000/svg" data-fui-icon="true">
  <path
    d="M7.49658 10C11.0863 10.0001 13.9966 12.9102 13.9966 16.5C13.9966 20.0898 11.0863 22.9999 7.49658 23C6.61923 23 5.7806 22.8252 5.01514 22.5088C4.20528 22.6906 3.38625 22.902 2.79346 23.0635C1.66573 23.3705 0.62509 22.3298 0.932129 21.2021L1.23877 20.0254C1.32287 19.6876 1.40649 19.3316 1.48584 18.9775C1.17035 18.2125 0.996582 17.3753 0.996582 16.5C0.996582 12.9102 3.90677 10 7.49658 10ZM14.9995 1C19.4177 1.00012 22.9995 4.5818 22.9995 9C22.9995 10.1085 22.7711 11.1656 22.3618 12.1279C22.5529 12.9868 22.7715 13.8585 22.9604 14.5713L23.1558 15.2949C23.4672 16.4248 22.4238 17.4657 21.2954 17.1553L20.5718 16.96C19.8597 16.7708 18.9897 16.5513 18.1323 16.3604C17.4596 16.647 16.7398 16.843 15.9888 16.9365C15.9961 16.7919 15.9995 16.6464 15.9995 16.5C15.9995 11.8057 12.1938 8.00012 7.49951 8C7.35288 8 7.20682 8.00243 7.06201 8.00977C7.5499 4.0589 10.9168 1.00012 14.9995 1Z"
    fill="currentColor"
  />
</svg>
