<svg width="16" height="16" viewBox="0 0 16 16" fill="none" xmlns="http://www.w3.org/2000/svg" data-fui-icon="true">
  <path
    d="M8.00049 0C12.4183 0.000180233 16 3.58157 16 7.99951C16 12.4175 12.4183 15.9988 8.00049 15.999C6.85761 15.999 5.76995 15.7563 4.78486 15.3233C3.92547 15.5128 3.04864 15.7317 2.31236 15.9258C0.964834 16.281 -0.282274 15.0345 0.0732377 13.6867C0.26731 12.9509 0.486176 12.0735 0.67574 11.2132C0.243119 10.2282 0.000976503 9.14135 0.000976503 7.99951C0.000976503 3.5815 3.58248 0 8.00049 0ZM8.00049 1.49991C4.41086 1.49991 1.50088 4.40988 1.50088 7.99951C1.50088 9.00629 1.72803 9.95783 2.13464 10.806C2.20752 10.9581 2.22885 11.1303 2.19323 11.2962C1.98647 12.2587 1.73968 13.253 1.52432 14.0695C1.46206 14.3056 1.69315 14.5369 1.92957 14.4747C2.74497 14.2597 3.73897 14.0116 4.70186 13.8048C4.82632 13.7781 4.95441 13.7836 5.07489 13.8185L5.19304 13.8634L5.51529 14.007C6.28016 14.3238 7.11914 14.4991 8.00049 14.4991L8.33445 14.4903C11.7688 14.3163 14.5001 11.477 14.5001 7.99951C14.5001 4.52203 11.7688 1.68268 8.33445 1.5087L8.00049 1.49991ZM4.49973 6.99957C5.05198 6.99957 5.49966 7.44726 5.49966 7.99951C5.49966 8.55176 5.05198 8.99945 4.49973 8.99945C3.94747 8.99945 3.49979 8.55176 3.49979 7.99951C3.49979 7.44726 3.94747 6.99957 4.49973 6.99957ZM7.99951 6.99957C8.55176 6.99957 8.99945 7.44726 8.99945 7.99951C8.99945 8.55176 8.55176 8.99945 7.99951 8.99945C7.44737 8.99932 6.99957 8.55168 6.99957 7.99951C6.99957 7.44734 7.44737 6.9997 7.99951 6.99957ZM11.4993 6.99957C12.0515 6.99957 12.4992 7.44726 12.4992 7.99951C12.4992 8.55176 12.0515 8.99945 11.4993 8.99945C10.947 8.99945 10.4994 8.55176 10.4994 7.99951C10.4994 7.44726 10.947 6.99957 11.4993 6.99957Z"
    fill="currentColor"
  />
</svg>
