<svg width="13" height="13" viewBox="0 0 13 13" fill="none" xmlns="http://www.w3.org/2000/svg" data-fui-icon="true">
  <path
    d="M6.84216 0.0087259C6.9325 0.0133231 7.02257 0.0193341 7.11187 0.0277642C7.36765 0.0520627 7.46876 0.356846 7.29273 0.543914L6.35774 1.53496C6.30021 1.59571 6.22118 1.6312 6.13774 1.63756C3.62245 1.82662 1.64059 3.92863 1.64047 6.49233C1.6405 6.9466 1.70265 7.38545 1.81816 7.80069C2.00107 8.45824 2.19531 9.31221 1.97999 10.1837C1.9324 10.3761 1.88102 10.5651 1.82874 10.7485C1.7565 11.0021 1.99497 11.241 2.24864 11.1694C2.43166 11.1174 2.62136 11.0668 2.81344 11.0192C3.68575 10.8034 4.54044 10.9989 5.19852 11.1821C5.61401 11.2977 6.05351 11.3598 6.50793 11.3598L6.7586 11.3534C9.20855 11.2286 11.1799 9.29198 11.3606 6.85723C11.3668 6.77334 11.4031 6.69391 11.4642 6.63618L12.4542 5.70224C12.6413 5.52588 12.946 5.62718 12.9704 5.88311C12.9895 6.08355 13 6.28694 13 6.49233C12.9998 9.9653 10.2716 12.8015 6.84216 12.9759L6.50793 12.9844C5.90485 12.9844 5.31874 12.9022 4.76275 12.7475C4.12884 12.571 3.63337 12.4901 3.20373 12.5962C2.80251 12.6956 2.41256 12.8113 2.06143 12.9252C1.43603 13.128 0.842207 12.8856 0.478073 12.5222C0.114055 12.1585 -0.12854 11.5648 0.0740379 10.9388L0.244325 10.3857C0.299832 10.1936 0.353207 9.99472 0.402978 9.79337C0.509022 9.36406 0.428909 8.86969 0.252787 8.23645C0.0981991 7.68074 0.0158936 7.09511 0.0158653 6.49233C0.0159929 2.90694 2.92257 0.000264421 6.50793 0.000264421L6.84216 0.0087259ZM9.41128 0.66449C10.2101 -0.18295 11.5524 -0.202242 12.376 0.621125C13.199 1.44463 13.1796 2.7859 12.3326 3.58476L10.1136 5.6758C9.79661 5.9746 9.41771 6.20028 9.00407 6.33685L8.05744 6.64993C7.00158 6.99837 5.99876 5.99551 6.34716 4.93965L6.65918 3.99302C6.7957 3.57955 7.02161 3.2004 7.32023 2.88351L9.41128 0.66449ZM11.2273 1.76977C11.0515 1.59422 10.7654 1.59864 10.5948 1.77929L8.50273 3.99831C8.36717 4.14224 8.26437 4.31404 8.20234 4.50177L8.0585 4.93754L8.49532 4.79475C8.68322 4.73266 8.85478 4.62906 8.99878 4.49331L11.2178 2.40227C11.3984 2.23176 11.4027 1.94558 11.2273 1.76977Z"
    fill="currentColor"
  />
</svg>
