<svg width="20" height="20" viewBox="0 0 20 20" fill="none" xmlns="http://www.w3.org/2000/svg" data-fui-icon="true">
  <path
    fill-rule="evenodd"
    clip-rule="evenodd"
    d="M6.39806 8.44995C9.24238 8.45009 11.5475 10.7564 11.5475 13.6003C11.5472 16.4443 9.24211 18.7496 6.39806 18.7498C5.69819 18.7497 5.02875 18.6094 4.41857 18.3552C3.76434 18.5016 3.10084 18.6723 2.62267 18.8025H2.62169C1.75785 19.0366 0.960062 18.2392 1.19493 17.3748C1.32532 16.8963 1.49564 16.2315 1.6422 15.5759C1.38889 14.9672 1.24773 14.2997 1.24767 13.6003C1.24768 10.7562 3.55402 8.4502 6.39806 8.44995ZM12.402 1.24976C15.9083 1.25028 18.7512 4.093 18.7516 7.59937L18.7408 7.9646C18.698 8.71761 18.5213 9.43591 18.2379 10.0974C18.3347 10.5336 18.4401 10.9746 18.5436 11.3845L18.8776 12.6492C19.1159 13.5138 18.3185 14.3148 17.4518 14.0769V14.0759C16.8206 13.902 15.8499 13.6471 14.901 13.4363C14.3357 13.6787 13.7282 13.8413 13.0934 13.9109C13.0955 13.8408 13.0992 13.7705 13.0992 13.7C13.0992 9.94451 10.0549 6.90025 6.29943 6.90015C6.22956 6.90015 6.1598 6.90293 6.09044 6.90503C6.43681 3.72506 9.1301 1.24989 12.402 1.24976Z"
    fill="currentColor"
  />
</svg>
