<svg
  width="20"
  height="20"
  viewBox="0 0 20 20"
  fill="none"
  xmlns="http://www.w3.org/2000/svg"
  data-fui-icon="true"
>
  <path
    d="M2.29166 4.79167C2.29166 3.87119 3.03785 3.125 3.95832 3.125H16.0417C16.9622 3.125 17.7083 3.87119 17.7083 4.79167V13.5417C17.7083 14.4622 16.9622 15.2083 16.0417 15.2083H12.8132C12.6192 15.2083 12.4311 15.2761 12.2817 15.3999L10.5331 16.8486C10.2232 17.1052 9.77432 17.104 9.46607 16.8456L7.74517 15.403C7.59514 15.2773 7.40562 15.2083 7.20984 15.2083H3.95832C3.03785 15.2083 2.29166 14.4622 2.29166 13.5417V4.79167Z"
    stroke="currentColor"
    stroke-width="1.5"
    stroke-linejoin="round"
  />
  <path
    d="M5.52084 9.16667C5.52084 9.56933 5.8473 9.89583 6.25001 9.89583C6.65272 9.89583 6.97918 9.56933 6.97918 9.16667C6.97918 8.764 6.65272 8.4375 6.25001 8.4375C5.8473 8.4375 5.52084 8.764 5.52084 9.16667ZM9.27084 9.16667C9.27084 9.56933 9.59734 9.89583 10 9.89583C10.4027 9.89583 10.7292 9.56933 10.7292 9.16667C10.7292 8.764 10.4027 8.4375 10 8.4375C9.59734 8.4375 9.27084 8.764 9.27084 9.16667ZM13.0208 9.16667C13.0208 9.56933 13.3473 9.89583 13.75 9.89583C14.1527 9.89583 14.4792 9.56933 14.4792 9.16667C14.4792 8.764 14.1527 8.4375 13.75 8.4375C13.3473 8.4375 13.0208 8.764 13.0208 9.16667Z"
    fill="currentColor"
    stroke="currentColor"
    stroke-width=".75"
    stroke-linecap="square"
  />
</svg>
