<svg width="13" height="13" viewBox="0 0 13 13" fill="none" xmlns="http://www.w3.org/2000/svg" data-fui-icon="true">
  <path
    fill-rule="evenodd"
    clip-rule="evenodd"
    d="M6.50762 0C6.71095 3.39963e-05 6.91201 0.00986635 7.1105 0.0285575C7.36646 0.0526753 7.46866 0.357543 7.29242 0.544708L6.13849 1.76951C5.67685 2.25938 5.32773 2.84481 5.11676 3.48401L4.80475 4.4317C4.03878 6.75444 6.24423 8.95832 8.56693 8.19177L9.51462 7.88081C10.1535 7.66979 10.7384 7.32052 11.2281 6.85908L12.4529 5.70198C12.6398 5.52576 12.9452 5.62717 12.9701 5.88284C12.9894 6.08326 12.9997 6.28666 12.9997 6.49207L12.9912 6.8263C12.8173 10.2561 9.98046 12.9836 6.50762 12.9841C5.90467 12.9841 5.31812 12.9009 4.76244 12.7462C4.12905 12.5697 3.63383 12.4898 3.20447 12.596C2.8032 12.6953 2.41236 12.811 2.06111 12.9249C1.43596 13.1272 0.841775 12.8853 0.47776 12.5219C0.113955 12.1581 -0.127953 11.5643 0.0747823 10.9386L0.244012 10.3843C0.29936 10.1923 0.35306 9.99348 0.402664 9.79204C0.508316 9.36246 0.428617 8.86788 0.252473 8.23513C0.136531 7.81854 0.0608076 7.38528 0.0303596 6.94053L0.015552 6.49207C0.0156796 2.90683 2.92257 0.000323432 6.50762 0ZM9.41202 0.664226C10.2108 -0.183 11.5521 -0.202304 12.3757 0.620861C13.1991 1.44445 13.1797 2.78664 12.3323 3.58555L10.1133 5.67659C9.79645 5.97517 9.41818 6.20111 9.00481 6.33765L8.05713 6.64966C7.0015 6.99775 5.99877 5.9961 6.34685 4.94044L6.65993 3.99276C6.79645 3.57927 7.02128 3.20014 7.31992 2.88325L9.41202 0.664226Z"
    fill="currentColor"
  />
</svg>
