<svg width="20" height="20" viewBox="0 0 20 20" fill="none" xmlns="http://www.w3.org/2000/svg" data-fui-icon="true">
  <g clip-path="url(#clip0_5220_497)">
    <path
      d="M10 0C15.5225 0.000258803 19.9998 4.47751 20 10L19.9873 10.5146C19.7193 15.798 15.3499 19.9998 10 20C9.01536 20 8.06294 19.8563 7.16309 19.5898C6.04867 19.2597 5.02101 19.0871 4.09668 19.3545C3.55517 19.5113 3.04079 19.6747 2.57617 19.832C1.82828 20.0853 1.10141 19.8075 0.645508 19.3516C0.189608 18.8956 -0.0881382 18.1688 0.165039 17.4209C0.32286 16.9549 0.486638 16.4385 0.643555 15.8945C0.909808 14.9709 0.737104 13.945 0.408203 12.832C0.175931 12.046 0.0378131 11.2197 0.00683594 10.3672L0 10C0.00023092 4.47744 4.47751 0.000213963 10 0ZM10 1.5C5.30585 1.5002 1.50023 5.30594 1.5 10L1.50586 10.3125C1.53221 11.0381 1.64961 11.7403 1.84668 12.4072C2.19085 13.5719 2.47667 14.9522 2.08496 16.3105C1.92103 16.8788 1.74921 17.4164 1.58496 17.9014C1.54872 18.0084 1.57388 18.1569 1.70703 18.29C1.84019 18.4232 1.98873 18.4483 2.0957 18.4121C2.57852 18.2486 3.11381 18.0769 3.67969 17.9131C5.04005 17.5194 6.42273 17.806 7.58887 18.1514C8.35238 18.3775 9.1615 18.5 10 18.5C14.694 18.4997 18.4998 14.6941 18.5 10C18.4998 5.30594 14.6941 1.50026 10 1.5ZM5.5 8.75C6.1903 8.75007 6.75 9.30968 6.75 10C6.75 10.6903 6.1903 11.2499 5.5 11.25C4.80964 11.25 4.25 10.6904 4.25 10C4.25 9.30964 4.80964 8.75 5.5 8.75ZM10 8.75C10.6903 8.75007 11.25 9.30968 11.25 10C11.25 10.6903 10.6903 11.2499 10 11.25C9.30976 11.2499 8.75 10.6903 8.75 10C8.75 9.30973 9.30976 8.75013 10 8.75ZM14.5 8.75C15.1903 8.75007 15.75 9.30968 15.75 10C15.75 10.6903 15.1903 11.2499 14.5 11.25C13.8096 11.25 13.25 10.6904 13.25 10C13.25 9.30964 13.8096 8.75 14.5 8.75Z"
      fill="currentColor"
    />
  </g>
  <defs>
    <clipPath id="clip0_5220_497"><path fill="currentColor" d="M0 0H20V20H0z" /></clipPath>
  </defs>
</svg>
