<svg width="13" height="13" viewBox="0 0 13 13" fill="none" xmlns="http://www.w3.org/2000/svg" data-fui-icon="true">
  <path
    d="M6.50767 0C6.71101 2.34459e-05 6.91208 0.00986192 7.11057 0.0285586C7.36654 0.0526821 7.46872 0.35755 7.2925 0.54473L6.13852 1.76958C5.67687 2.25947 5.32773 2.84492 5.11676 3.48415L4.80473 4.43188C4.03873 6.75472 6.24427 8.95868 8.56706 8.1921L9.51479 7.88113C10.1537 7.67011 10.7387 7.32082 11.2283 6.85936L12.4532 5.70327C12.6401 5.52682 12.9455 5.62733 12.9704 5.88308C12.9897 6.0835 13 6.28692 13 6.49233C13 10.0777 10.0929 12.9843 6.50767 12.9847C5.90468 12.9846 5.31919 12.9014 4.76348 12.7467C4.13002 12.5702 3.63484 12.4905 3.20544 12.5965C2.80407 12.6959 2.41338 12.8115 2.06204 12.9254C1.43657 13.1282 0.842807 12.886 0.478622 12.5224C0.114507 12.1587 -0.128273 11.5651 0.0745698 10.939L0.244864 10.3848C0.300186 10.1928 0.35394 9.99379 0.403523 9.79244C0.509088 9.3629 0.428386 8.86812 0.252268 8.23547C0.0976711 7.67998 0.015337 7.09507 0.015337 6.49233C0.0154647 2.90684 2.92232 0.000137106 6.50767 0ZM9.41219 0.664253C10.211 -0.183007 11.5524 -0.202312 12.3759 0.620886C13.1994 1.44451 13.1801 2.78675 12.3326 3.5857L10.1135 5.67682C9.79663 5.97541 9.41835 6.20136 9.00496 6.3379L8.05724 6.64993C7.00157 6.99804 5.9988 5.99635 6.34689 4.94065L6.65998 3.99292C6.79651 3.57942 7.02135 3.20027 7.32 2.88337L9.41219 0.664253Z"
    fill="currentColor"
  />
</svg>
