<svg width="12" height="12" viewBox="0 0 12 12" fill="none" xmlns="http://www.w3.org/2000/svg" data-fui-icon="true">
  <g clip-path="url(#clip0_5220_507)">
    <path
      d="M6.00049 0C9.31403 0.00019082 12.0005 2.68641 12.0005 6C12.0005 9.31359 9.31403 11.9998 6.00049 12C5.44237 12 4.90039 11.9237 4.38623 11.7803C3.80142 11.6171 3.34501 11.5424 2.94873 11.6406C2.57669 11.7329 2.21506 11.8406 1.88916 11.9463C1.31109 12.1338 0.762237 11.9101 0.42627 11.5742C0.0903176 11.2383 -0.133305 10.6895 0.0541992 10.1113L0.212402 9.59863C0.263759 9.42097 0.312846 9.23702 0.358887 9.05078C0.456828 8.65426 0.383076 8.19794 0.220215 7.61328C0.0769917 7.09918 0.000488281 6.5578 0.000488281 6C0.000488281 2.6863 2.68682 3.0673e-05 6.00049 0ZM6.00049 1.5C3.51522 1.50003 1.50049 3.51474 1.50049 6C1.50049 6.42041 1.55748 6.82661 1.66455 7.21094C1.83377 7.81841 2.01389 8.60625 1.81494 9.41113C1.72043 9.79342 1.61246 10.1609 1.50635 10.4932C1.83791 10.3872 2.20544 10.2793 2.5874 10.1846C3.3929 9.98484 4.18178 10.1654 4.78955 10.335C5.17391 10.4422 5.58013 10.5 6.00049 10.5C8.48561 10.4998 10.5005 8.48516 10.5005 6C10.5005 3.51484 8.48561 1.50019 6.00049 1.5ZM4.50049 5C5.05262 5.00018 5.50049 5.44783 5.50049 6C5.50049 6.55217 5.05262 6.99982 4.50049 7C3.9482 7 3.50049 6.55228 3.50049 6C3.50049 5.44772 3.9482 5 4.50049 5ZM7.50049 5C8.05262 5.00018 8.50049 5.44783 8.50049 6C8.50049 6.55217 8.05262 6.99982 7.50049 7C6.9482 7 6.50049 6.55228 6.50049 6C6.50049 5.44772 6.9482 5 7.50049 5Z"
      fill="currentColor"
    />
  </g>
  <defs>
    <clipPath id="clip0_5220_507"><path fill="currentColor" d="M0 0H12V12H0z" /></clipPath>
  </defs>
</svg>
