<svg width="20" height="20" viewBox="0 0 20 20" fill="none" xmlns="http://www.w3.org/2000/svg" data-fui-icon="true">
  <path
    d="M10 2V1H9.99996L10 2ZM10 18L9.99996 19H10V18ZM3.82812 17.8633L3.57673 16.8954L3.57673 16.8954L3.82812 17.8633ZM2.13574 16.1719L1.16789 15.9204L1.1678 15.9207L2.13574 16.1719ZM2.78389 13.4658L1.8062 13.2558L2.78389 13.4658ZM2.78255 13.4545L3.68426 13.0222L2.78255 13.4545ZM6.54547 17.2165L6.97793 16.3148L6.54547 17.2165ZM6.53415 17.2151L6.32418 16.2374L6.53415 17.2151ZM10 2V3C13.866 3 17 6.13401 17 10H18H19C19 5.02944 14.9706 1 10 1V2ZM18 10H17C17 13.866 13.866 17 10 17V18V19C14.9706 19 19 14.9706 19 10H18ZM10 18L10 17C8.91607 17 7.89219 16.7533 6.97793 16.3148L6.54547 17.2165L6.11302 18.1181C7.29041 18.6828 8.60918 18.9999 9.99996 19L10 18ZM6.53415 17.2151L6.32418 16.2374C5.38052 16.4401 4.41115 16.6787 3.57673 16.8954L3.82812 17.8633L4.07952 18.8312C4.89734 18.6187 5.83738 18.3876 6.74412 18.1928L6.53415 17.2151ZM3.82812 17.8633L3.57673 16.8954C3.44766 16.9289 3.31549 16.8923 3.21115 16.788C3.10683 16.6837 3.07026 16.5518 3.10368 16.4231L2.13574 16.1719L1.1678 15.9207C0.713605 17.6709 2.3303 19.2855 4.07952 18.8312L3.82812 17.8633ZM2.13574 16.1719L3.10359 16.4234C3.32046 15.5889 3.55891 14.6193 3.76158 13.6759L2.78389 13.4658L1.8062 13.2558C1.61139 14.1625 1.38031 15.103 1.16789 15.9204L2.13574 16.1719ZM2.78255 13.4545L3.68426 13.0222C3.2461 12.1084 3 11.0842 3 10H2H1C1 11.3902 1.31619 12.7092 1.88084 13.8869L2.78255 13.4545ZM2 10H3C3 6.13417 6.13414 3.00017 10 3L10 2L9.99996 1C5.02964 1.00022 1 5.02951 1 10H2ZM2.78389 13.4658L3.76158 13.6759C3.80909 13.4548 3.78145 13.2249 3.68426 13.0222L2.78255 13.4545L1.88084 13.8869C1.78702 13.6912 1.76034 13.4693 1.8062 13.2558L2.78389 13.4658ZM6.54547 17.2165L6.97793 16.3148C6.77522 16.2176 6.54532 16.1899 6.32418 16.2374L6.53415 17.2151L6.74412 18.1928C6.53062 18.2387 6.30868 18.212 6.11302 18.1181L6.54547 17.2165Z"
    fill="currentColor"
  />
</svg>
