<svg
  width="24"
  height="24"
  viewBox="0 0 24 24"
  fill="none"
  xmlns="http://www.w3.org/2000/svg"
  data-fui-icon="true"
>
  <path
    fill-rule="evenodd"
    clip-rule="evenodd"
    d="M12.8 3C13.8 1.2 15.8 0 18 0C21.3 0 24 2.7 24 5.9C24 7.7 23.2 9.3 22 10.4V16.2C22 18.3 20.3 20 18.2 20H15.2C15 20 14.8 20.1 14.7 20.2L12 22.8C11.7 23.1 11.3 23.1 11 22.8L8.3 20.2C8.2 20.1 8 20 7.8 20H4.8C2.7 20 1 18.3 1 16.3V6.8C1 4.7 2.7 3 4.8 3H12.8ZM18.3 18.4C19.5 18.4 20.5 17.4 20.5 16.2V11.4C19.7 11.8 18.9 12 18 12C17.6576 12 17.3217 11.9709 16.9945 11.9151C16.9366 12.5239 16.4239 13 15.8 13C15.1372 13 14.6 12.4627 14.6 11.8C14.6 11.5342 14.6864 11.2886 14.8326 11.0897C13.135 10.0269 12 8.13959 12 6C12 5.73607 12.0279 5.47214 12.0542 5.22291C12.0777 5 12.1 4.78885 12.1 4.6H4.7C3.5 4.6 2.5 5.6 2.5 6.8V16.2C2.5 17.4 3.5 18.4 4.7 18.4H7.7C8.3 18.4 8.9 18.6 9.3 19L11.5 21.1L13.7 19C14.2 18.6 14.7 18.4 15.3 18.4H18.3ZM20.5 9.7C21.1 9.3 21.6 8.7 22 8C22.3 7.4 22.5 6.7 22.5 6C22.5 3.5 20.5 1.5 18 1.5C16.7 1.5 15.5 2.1 14.7 3C14.3 3.4 14 3.9 13.8 4.5C13.6 5 13.5 5.5 13.5 6C13.5 8.5 15.5 10.5 18 10.5C18.9 10.5 19.8 10.2 20.5 9.7ZM7.99998 11.8C7.99998 12.4627 7.46272 13 6.79998 13C6.13723 13 5.59998 12.4627 5.59998 11.8C5.59998 11.1372 6.13723 10.6 6.79998 10.6C7.46272 10.6 7.99998 11.1372 7.99998 11.8ZM12.4 11.8C12.4 12.4627 11.8627 13 11.2 13C10.5373 13 10 12.4627 10 11.8C10 11.1372 10.5373 10.6 11.2 10.6C11.8627 10.6 12.4 11.1372 12.4 11.8Z"
    fill="currentColor"
  />
</svg>
