<svg width="16" height="16" viewBox="0 0 16 16" fill="none" xmlns="http://www.w3.org/2000/svg" data-fui-icon="true">
  <path
    d="M5.29688 6.65002C7.53332 6.65002 9.34754 8.46293 9.34766 10.6998C9.34764 12.9369 7.53333 14.7496 5.29688 14.7496C4.76949 14.7495 4.26486 14.6468 3.80176 14.4625C3.33201 14.5688 2.85923 14.689 2.51465 14.7828H2.51367C1.72626 14.9959 1.00055 14.2706 1.21387 13.483V13.4821C1.30752 13.1384 1.42788 12.6655 1.53418 12.1949C1.34993 11.7313 1.24707 11.2267 1.24707 10.6998C1.24718 8.46336 3.06061 6.65044 5.29688 6.65002ZM5.29688 8.15002C3.88885 8.15039 2.74716 9.29187 2.74707 10.6998C2.74707 11.0948 2.83662 11.467 2.99512 11.7985C3.06714 11.9491 3.08711 12.1202 3.05176 12.2848C2.98963 12.5741 2.9199 12.8694 2.85156 13.1442C3.12629 13.0756 3.4222 13.0062 3.71191 12.944L3.83594 12.9274C3.91907 12.9235 4.0024 12.9336 4.08203 12.9567L4.19824 13.0016L4.3252 13.0573C4.62411 13.1808 4.95183 13.2495 5.29688 13.2496C6.70548 13.2496 7.84764 12.1079 7.84766 10.6998C7.84756 9.29182 6.70538 8.15002 5.29688 8.15002ZM9.7998 1.24963C12.5334 1.24989 14.7488 3.46648 14.749 6.19983C14.749 6.86792 14.6153 7.50681 14.374 8.09045C14.5285 8.78035 14.7107 9.4795 14.8369 9.93713H14.8379C15.0549 10.7262 14.3273 11.4545 13.5371 11.2369L12.5928 10.9879C12.3055 10.9155 11.9979 10.8416 11.6924 10.7731C11.5624 10.827 11.4292 10.8746 11.2939 10.9176C11.2965 10.8454 11.2998 10.7727 11.2998 10.6998C11.2998 10.2439 11.2467 9.80043 11.1504 9.37366L11.2881 9.31311L11.4043 9.26819C11.4839 9.24513 11.5673 9.23508 11.6504 9.23889L11.7744 9.25549C12.2616 9.36008 12.7621 9.48407 13.1973 9.59631C13.0853 9.1608 12.961 8.66039 12.8564 8.17346C12.8212 8.00887 12.842 7.83777 12.9141 7.68713C13.102 7.29443 13.2171 6.8594 13.2432 6.39905L13.249 6.19983C13.2488 4.29461 11.7047 2.74985 9.7998 2.74963C8.37425 2.74975 7.14984 3.61469 6.62402 4.84827C6.19792 4.75226 5.75491 4.69983 5.2998 4.69983C5.22594 4.69983 5.15232 4.70206 5.0791 4.70471C5.71305 2.7018 7.58729 1.24976 9.7998 1.24963Z"
    fill="currentColor"
  />
</svg>
