<svg
  width="16"
  height="16"
  viewBox="0 0 16 16"
  fill="none"
  xmlns="http://www.w3.org/2000/svg"
  data-fui-icon="true"
>
  <path
    d="M1.83337 3.83333C1.83337 3.09695 2.43033 2.5 3.16671 2.5H12.8334C13.5698 2.5 14.1667 3.09695 14.1667 3.83333V10.8333C14.1667 11.5697 13.5698 12.1667 12.8334 12.1667H10.2506C10.0954 12.1667 9.94491 12.2209 9.82537 12.3199L8.42651 13.4789C8.17864 13.6842 7.81951 13.6832 7.57291 13.4765L6.19619 12.3224C6.07616 12.2218 5.92454 12.1667 5.76792 12.1667H3.16671C2.43033 12.1667 1.83337 11.5697 1.83337 10.8333V3.83333Z"
    stroke="currentColor"
    stroke-width="1.5"
    stroke-linejoin="round"
  />
  <path
    d="M4.99996 6.47916C4.47067 6.47916 4.04163 6.90827 4.04163 7.4375 4.04163 7.96672 4.47067 8.39583 4.99996 8.39583 5.52925 8.39583 5.95829 7.96672 5.95829 7.4375 5.95829 6.90827 5.52925 6.47916 4.99996 6.47916zM7.99996 6.47916C7.47072 6.47916 7.04163 6.90826 7.04163 7.4375 7.04163 7.96674 7.47072 8.39583 7.99996 8.39583 8.5292 8.39583 8.95829 7.96674 8.95829 7.4375 8.95829 6.90826 8.5292 6.47916 7.99996 6.47916zM11 6.47916C10.4707 6.47916 10.0416 6.90826 10.0416 7.4375 10.0416 7.96674 10.4707 8.39583 11 8.39583 11.5292 8.39583 11.9583 7.96674 11.9583 7.4375 11.9583 6.90826 11.5292 6.47916 11 6.47916z"
    fill="currentColor"
  />
</svg>
