<svg width="20" height="20" viewBox="0 0 20 20" fill="none" xmlns="http://www.w3.org/2000/svg" data-fui-icon="true">
  <path
    d="M10 1.75V1H9.99997L10 1.75ZM10 18.25L9.99997 19H10V18.25ZM3.5625 18.1279L3.37335 17.4022L3.37335 17.4022L3.5625 18.1279ZM1.87109 16.4365L2.59683 16.6258L2.59683 16.6258L1.87109 16.4365ZM2.55831 13.5742L1.82504 13.4167L2.55831 13.5742ZM2.55696 13.5629L3.23323 13.2386L2.55696 13.5629ZM6.43707 17.4421L6.1127 18.1183L6.43707 17.4421ZM6.42575 17.4407L6.26827 16.7074L6.42575 17.4407ZM10 1.75V2.5C14.1421 2.5 17.5 5.85786 17.5 10H18.25H19C19 5.02944 14.9706 1 10 1V1.75ZM18.25 10H17.5C17.5 14.1421 14.1421 17.5 10 17.5V18.25V19C14.9706 19 19 14.9706 19 10H18.25ZM10 18.25L10 17.5C8.83882 17.5 7.74127 17.2358 6.76144 16.7658L6.43707 17.4421L6.1127 18.1183C7.29008 18.683 8.60883 18.9999 9.99997 19L10 18.25ZM6.42575 17.4407L6.26827 16.7074C5.27276 16.9212 4.24797 17.1742 3.37335 17.4022L3.5625 18.1279L3.75165 18.8537C4.6137 18.629 5.61602 18.3817 6.58323 18.174L6.42575 17.4407ZM3.5625 18.1279L3.37335 17.4022C2.91623 17.5213 2.47771 17.0826 2.59683 16.6258L1.87109 16.4365L1.14536 16.2473C0.737095 17.813 2.1862 19.2617 3.75165 18.8537L3.5625 18.1279ZM1.87109 16.4365L2.59683 16.6258C2.82483 15.7514 3.07776 14.727 3.29157 13.7318L2.55831 13.5742L1.82504 13.4167C1.6173 14.3836 1.37005 15.3856 1.14536 16.2473L1.87109 16.4365ZM2.55696 13.5629L3.23323 13.2386C2.76353 12.2592 2.5 11.1613 2.5 10H1.75H1C1 11.3907 1.31604 12.7097 1.8807 13.8872L2.55696 13.5629ZM1.75 10H2.5C2.5 5.85801 5.858 2.50017 10 2.5L10 1.75L9.99997 1C5.02962 1.00021 1 5.02952 1 10H1.75ZM2.55831 13.5742L3.29157 13.7318C3.32741 13.565 3.30656 13.3916 3.23323 13.2386L2.55696 13.5629L1.8807 13.8872C1.81074 13.7413 1.79084 13.5759 1.82504 13.4167L2.55831 13.5742ZM6.43707 17.4421L6.76144 16.7658C6.60852 16.6925 6.4351 16.6716 6.26827 16.7074L6.42575 17.4407L6.58323 18.174C6.42405 18.2082 6.25858 18.1883 6.1127 18.1183L6.43707 17.4421Z"
    fill="currentColor"
  />
</svg>
