<svg
  width="16"
  height="16"
  viewBox="0 0 16 16"
  fill="none"
  xmlns="http://www.w3.org/2000/svg"
  data-fui-icon="true"
>
  <path
    d="M1.83331 3.83333C1.83331 3.09695 2.43027 2.5 3.16665 2.5H12.8333C13.5697 2.5 14.1666 3.09695 14.1666 3.83333V10.8333C14.1666 11.5697 13.5697 12.1667 12.8333 12.1667H10.2506C10.0953 12.1667 9.94485 12.2209 9.82531 12.3199L8.42645 13.4789C8.17858 13.6842 7.81945 13.6832 7.57285 13.4765L6.19613 12.3224C6.0761 12.2218 5.92448 12.1667 5.76786 12.1667H3.16665C2.43027 12.1667 1.83331 11.5697 1.83331 10.8333V3.83333Z"
    stroke="currentColor"
    stroke-width="1.5"
    stroke-linejoin="round"
  />
  <path
    d="M4.41669 7.33333C4.41669 7.65547 4.67785 7.91667 5.00002 7.91667C5.32219 7.91667 5.58335 7.65547 5.58335 7.33333C5.58335 7.0112 5.32219 6.75 5.00002 6.75C4.67785 6.75 4.41669 7.0112 4.41669 7.33333ZM7.41669 7.33333C7.41669 7.65547 7.67789 7.91667 8.00002 7.91667C8.32215 7.91667 8.58335 7.65547 8.58335 7.33333C8.58335 7.0112 8.32215 6.75 8.00002 6.75C7.67789 6.75 7.41669 7.0112 7.41669 7.33333ZM10.4167 7.33333C10.4167 7.65547 10.6779 7.91667 11 7.91667C11.3222 7.91667 11.5834 7.65547 11.5834 7.33333C11.5834 7.0112 11.3222 6.75 11 6.75C10.6779 6.75 10.4167 7.0112 10.4167 7.33333Z"
    fill="currentColor"
    stroke="currentColor"
    stroke-width=".75"
    stroke-linecap="square"
  />
</svg>
