<svg width="12" height="12" viewBox="0 0 12 12" fill="none" xmlns="http://www.w3.org/2000/svg" data-fui-icon="true">
  <path
    fill-rule="evenodd"
    clip-rule="evenodd"
    d="M3.971 4.79993C5.75168 4.79996 7.19626 6.2435 7.19659 8.02454L7.19268 8.19055C7.10625 9.89454 5.69642 11.2501 3.971 11.2501C3.57045 11.2501 3.18995 11.1734 2.84014 11.0411C2.39462 11.1433 1.95371 11.2613 1.71905 11.3273L1.7171 11.3282C1.07089 11.5082 0.49145 10.9086 0.669246 10.2765C0.735147 10.0422 0.851139 9.59881 0.953426 9.15149C0.842699 8.85679 0.770524 8.54099 0.751277 8.21008L0.746394 8.02454C0.746726 6.24388 2.19021 4.80014 3.971 4.79993ZM7.34991 0.750122C9.5037 0.750254 11.2503 2.49669 11.2503 4.65051C11.2502 5.15515 11.1502 5.63453 10.9769 6.07336C11.039 6.34802 11.105 6.62346 11.1683 6.87024L11.3694 7.61829C11.5508 8.25987 10.9582 8.84862 10.3196 8.66907H10.3187C10.0257 8.58622 9.40053 8.41675 8.77667 8.27551C8.76676 8.27943 8.75635 8.28242 8.74639 8.28625C8.74813 8.23275 8.7503 8.17905 8.7503 8.12512C8.75029 5.43279 6.56762 3.25019 3.8753 3.25012C3.81945 3.25012 3.7637 3.25119 3.70831 3.25305C4.2701 1.78951 5.68846 0.750243 7.34991 0.750122Z"
    fill="currentColor"
  />
</svg>
