<svg width="13" height="12" viewBox="0 0 13 12" fill="none" xmlns="http://www.w3.org/2000/svg" data-fui-icon="true">
  <path
    d="M5.5 1.12537C5.91421 1.12537 6.25 1.46115 6.25 1.87537C6.2498 2.28941 5.91409 2.62537 5.5 2.62537H2.375C2.23693 2.62537 2.125 2.73729 2.125 2.87537V8.12537C2.1252 8.26328 2.23704 8.37537 2.375 8.37537H4.32617C4.58312 8.37542 4.83281 8.45473 5.04199 8.60095L5.12891 8.66736L6.00098 9.3988L6.89062 8.66248L6.97754 8.59705C7.18563 8.45327 7.43312 8.37546 7.6875 8.37537H9.625C9.76296 8.37537 9.8748 8.26328 9.875 8.12537V6.12537C9.875 5.71115 10.2108 5.37537 10.625 5.37537C11.0392 5.37537 11.375 5.71115 11.375 6.12537V8.12537C11.3748 9.09171 10.5914 9.87537 9.625 9.87537H7.77832L6.79785 10.6869C6.33334 11.0714 5.66065 11.0695 5.19824 10.682L4.23535 9.87537H2.375C1.40863 9.87537 0.625198 9.09172 0.625 8.12537V2.87537C0.625 1.90887 1.4085 1.12537 2.375 1.12537H5.5ZM3.75 4.81287C4.12971 4.81287 4.4375 5.1207 4.4375 5.50037C4.4373 5.87986 4.12958 6.18787 3.75 6.18787C3.37042 6.18787 3.0627 5.87986 3.0625 5.50037C3.0625 5.1207 3.37029 4.81287 3.75 4.81287ZM6 4.81287C6.37967 4.81287 6.6875 5.1207 6.6875 5.50037C6.6873 5.87987 6.37955 6.18787 6 6.18787C5.62045 6.18787 5.3127 5.87987 5.3125 5.50037C5.3125 5.1207 5.62033 4.81287 6 4.81287ZM9.09375 0.545288C9.75995 -0.12065 10.8407 -0.12081 11.5068 0.545288C12.1728 1.2114 12.1727 2.29223 11.5068 2.95837L9.75586 4.70935C9.34676 5.1183 8.81026 5.37589 8.23535 5.43982C7.29951 5.54378 6.50835 4.75262 6.6123 3.81677C6.67619 3.24178 6.93377 2.70542 7.34277 2.29626L9.09375 0.545288ZM10.4453 1.60681C10.3649 1.52642 10.2347 1.52642 10.1543 1.60681L8.4043 3.35681C8.2457 3.51545 8.14275 3.72067 8.10938 3.94177C8.33069 3.90849 8.53654 3.80656 8.69531 3.64783L10.4453 1.89783C10.5257 1.81748 10.5256 1.68721 10.4453 1.60681Z"
    fill="currentColor"
  />
</svg>
