<svg width="13" height="13" viewBox="0 0 13 13" fill="none" xmlns="http://www.w3.org/2000/svg" data-fui-icon="true">
  <path
    d="M6.84183 0.00845322C10.2718 0.182593 13 3.01875 13 6.49208C13 9.9654 10.2718 12.8016 6.84183 12.9757L6.50792 12.9842C5.90406 12.9842 5.31781 12.9015 4.76128 12.7464C4.12821 12.5699 3.6338 12.4891 3.20483 12.5953C2.80228 12.6952 2.41083 12.8117 2.05836 12.926C1.43304 13.1285 0.839895 12.886 0.47655 12.5224C0.11326 12.1587 -0.128748 11.5657 0.0739657 10.9406L0.244087 10.3858C0.299555 10.1935 0.353934 9.99484 0.403641 9.79306C0.509388 9.36365 0.428508 8.86931 0.25254 8.23661C0.0978725 7.68053 0.0158498 7.09515 0.0158498 6.49208C0.0158498 2.9066 2.92245 0 6.50792 0L6.84183 0.00845322ZM6.69707 3.91279C6.6207 3.74529 6.39416 3.74537 6.31773 3.91279L5.66049 5.35406C5.62978 5.42143 5.56829 5.46785 5.49776 5.47769L3.98569 5.68691C3.80991 5.71116 3.73971 5.93829 3.86841 6.06624L4.97366 7.16516C5.02543 7.21672 5.04903 7.2923 5.03601 7.36593L4.75811 8.93506C4.72579 9.1178 4.90985 9.25813 5.06559 9.16963L6.40649 8.40779C6.46898 8.37229 6.54473 8.37237 6.60725 8.40779L7.9492 9.16963C8.10489 9.25795 8.289 9.11774 8.25669 8.93506L7.97879 7.36593C7.96575 7.29223 7.98927 7.21672 8.04113 7.16516L9.14639 6.06624C9.27481 5.93832 9.20464 5.71134 9.0291 5.68691L7.51703 5.47769C7.44639 5.46794 7.38507 5.42151 7.3543 5.35406L6.69707 3.91279Z"
    fill="currentColor"
  />
</svg>
