<svg width="32" height="32" viewBox="0 0 32 32" fill="none" xmlns="http://www.w3.org/2000/svg" data-fui-icon="true">
  <path
    d="M15.9995 1.00024C24.2837 1.00024 30.9993 7.71611 30.9995 16.0002L30.9946 16.387C30.7893 24.4923 24.1544 31.0002 15.9995 31.0002C14.5982 31.0002 13.2405 30.8073 11.9526 30.4465C10.1174 29.9325 8.33994 29.6283 6.71045 30.1155C5.90083 30.3575 5.13445 30.6061 4.43799 30.844C3.43425 31.1865 2.44516 30.8183 1.81299 30.1858C1.18106 29.5533 0.813192 28.5642 1.15576 27.5608C1.39355 26.8645 1.64167 26.0981 1.8833 25.2883C2.36956 23.6585 2.0656 21.8815 1.55225 20.0461C1.23714 18.9195 1.05011 17.7393 1.0083 16.5237L0.999512 16.0002C0.999679 7.71628 7.71559 1.00052 15.9995 1.00024ZM15.9995 2.50024C8.54399 2.50052 2.49968 8.54472 2.49951 16.0002L2.50732 16.4719C2.54499 17.5673 2.71336 18.6291 2.99658 19.6418C3.52156 21.5188 3.93657 23.653 3.3208 25.717C3.07294 26.5476 2.81898 27.3328 2.57568 28.0452C2.45174 28.4081 2.56597 28.8183 2.87354 29.1262C3.18125 29.434 3.59085 29.5478 3.95361 29.4241C4.66571 29.1809 5.45028 28.9263 6.28076 28.678C8.34501 28.0608 10.4798 28.4764 12.3569 29.0022C13.5147 29.3265 14.7365 29.5002 15.9995 29.5002C23.4552 29.5002 29.4993 23.4559 29.4995 16.0002C29.4993 8.54454 23.4553 2.50024 15.9995 2.50024Z"
    fill="currentColor"
  />
</svg>
