<svg width="16" height="16" viewBox="0 0 16 16" fill="none" xmlns="http://www.w3.org/2000/svg" data-fui-icon="true">
  <path
    d="M5.29688 6.40002C7.67131 6.40002 9.59754 8.32479 9.59766 10.6998C9.59764 13.075 7.67131 14.9996 5.29688 14.9996C4.76568 14.9995 4.25617 14.9005 3.78516 14.7233C3.34418 14.8246 2.90512 14.9355 2.58008 15.024H2.5791C1.60537 15.2876 0.708845 14.3916 0.972656 13.4176V13.4166C1.0609 13.0928 1.17122 12.6534 1.27246 12.2115C1.09537 11.74 0.997073 11.2304 0.99707 10.6998C0.997191 8.32528 2.92258 6.40046 5.29688 6.40002ZM5.29688 8.40002C4.0269 8.40039 2.99716 9.42997 2.99707 10.6998C2.99707 11.0568 3.07801 11.3926 3.2207 11.691C3.31634 11.8913 3.34385 12.1187 3.29688 12.3375C3.26311 12.4948 3.22328 12.6528 3.18652 12.8092C3.34305 12.7723 3.50163 12.7327 3.65918 12.6989C3.82332 12.6636 3.99272 12.6706 4.15137 12.7164L4.30664 12.776L4.53711 12.8707C4.77427 12.9539 5.02966 12.9996 5.29688 12.9996C6.56751 12.9996 7.59764 11.9697 7.59766 10.6998C7.59756 9.42997 6.56739 8.40002 5.29688 8.40002ZM9.7998 0.999634C12.6715 0.999742 14.9998 3.32818 15 6.19983C15 6.87165 14.8703 7.51585 14.6367 8.10803C14.7864 8.76875 14.958 9.43144 15.0791 9.87073V9.8717C15.3477 10.8504 14.4449 11.7466 13.4707 11.4781C13.0306 11.3569 12.3701 11.1844 11.7109 11.0348C11.5699 11.0906 11.4251 11.1395 11.2783 11.1832C11.291 11.0238 11.2998 10.8626 11.2998 10.6998C11.2998 10.1553 11.2258 9.6281 11.0898 9.12659L11.1797 9.08752L11.335 9.02795C11.4936 8.98208 11.6631 8.97517 11.8271 9.01038C12.1718 9.08435 12.5226 9.16787 12.8525 9.24963C12.7711 8.92002 12.6861 8.57003 12.6123 8.2262C12.5654 8.0073 12.5936 7.77909 12.6895 7.57874C12.8634 7.215 12.971 6.81168 12.9951 6.3844L13 6.19983C12.9998 4.43276 11.5669 2.99974 9.7998 2.99963C8.49209 2.99967 7.36754 3.78474 6.87109 4.90881C6.37023 4.77325 5.84355 4.69983 5.2998 4.69983C5.13642 4.69983 4.97454 4.70752 4.81445 4.72034C5.452 2.56953 7.44222 0.999675 9.7998 0.999634Z"
    fill="currentColor"
  />
</svg>
