<svg width="20" height="20" viewBox="0 0 20 20" fill="none" xmlns="http://www.w3.org/2000/svg" data-fui-icon="true">
  <path
    d="M10 0C15.5225 0.000258803 19.9998 4.47751 20 10L19.9873 10.5146C19.7193 15.798 15.3499 19.9998 10 20C9.01536 20 8.06294 19.8563 7.16309 19.5898C6.04867 19.2597 5.02101 19.0871 4.09668 19.3545C3.55517 19.5113 3.04079 19.6747 2.57617 19.832C1.82828 20.0853 1.10141 19.8075 0.645508 19.3516C0.189608 18.8956 -0.0881382 18.1688 0.165039 17.4209C0.32286 16.9549 0.486638 16.4385 0.643555 15.8945C0.909808 14.9709 0.737104 13.945 0.408203 12.832C0.175931 12.046 0.0378131 11.2197 0.00683594 10.3672L0 10C0.00023092 4.47744 4.47751 0.000213963 10 0ZM10.9082 5.47559C10.478 4.84114 9.52206 4.84118 9.0918 5.47559L9.00879 5.62109L8.00879 7.69043L5.70801 7.99121C4.79761 8.11001 4.4136 9.23669 5.09668 9.87793L6.77441 11.4531L6.35352 13.7002C6.18088 14.622 7.15612 15.2971 7.95605 14.8682L10 13.7715L12.0439 14.8682C12.8439 15.2971 13.8191 14.6219 13.6465 13.7002L13.2246 11.4531L14.9033 9.87793C15.5863 9.23672 15.2023 8.1101 14.292 7.99121L11.9902 7.69043L10.9912 5.62109L10.9082 5.47559Z"
    fill="currentColor"
  />
</svg>
