<svg width="13" height="13" viewBox="0 0 13 13" fill="none" xmlns="http://www.w3.org/2000/svg" data-fui-icon="true">
  <path
    fill-rule="evenodd"
    clip-rule="evenodd"
    d="M0.252407 0.237747C0.522874 -0.0327213 0.936803 -0.072179 1.24932 0.119053C1.26748 0.130167 1.28389 0.143891 1.29894 0.158948L12.6956 11.5566C12.7193 11.5804 12.7447 11.6017 12.7707 11.6216C12.7921 11.6378 12.8124 11.6555 12.8288 11.6766C13.0756 11.9949 13.0533 12.4541 12.7611 12.7464C12.4441 13.0631 11.9304 13.0633 11.6135 12.7464L10.6886 11.8215C10.5729 11.7058 10.3896 11.695 10.2562 11.7897C9.19721 12.5408 7.90471 12.984 6.50779 12.9842C5.90392 12.9841 5.31745 12.9016 4.76114 12.7464C4.12843 12.5699 3.6345 12.4892 3.20575 12.5953C2.80325 12.6952 2.41189 12.8117 2.05928 12.926C1.43384 13.1289 0.839971 12.8868 0.476417 12.5234C0.112901 12.1599 -0.129109 11.5662 0.0738323 10.9406L0.243953 10.3858C0.299542 10.1936 0.353674 9.99464 0.403508 9.79306C0.509466 9.36399 0.428653 8.87034 0.252407 8.23767C0.09744 7.6814 0.0157164 7.09562 0.0157164 6.49208C0.0157164 5.09496 0.458105 3.80172 1.2091 2.74267C1.30377 2.60917 1.29303 2.4259 1.17731 2.31018L0.252407 1.38527C-0.0642426 1.06841 -0.0642426 0.554611 0.252407 0.237747ZM6.50779 0C10.0929 0.000381062 12.9999 2.90683 12.9999 6.49208C12.9999 7.2286 12.8754 7.93553 12.6484 8.59482C12.5736 8.81189 12.2992 8.86524 12.1369 8.70288L4.29602 0.861018C4.13365 0.698627 4.1871 0.424202 4.4043 0.349648C5.06388 0.123249 5.77132 3.24434e-06 6.50779 0Z"
    fill="currentColor"
  />
</svg>
