<svg width="12" height="12" viewBox="0 0 12 12" fill="none" xmlns="http://www.w3.org/2000/svg" data-fui-icon="true">
  <g clip-path="url(#clip0_6949_171)">
    <path
      d="M0.219727 0.219727C0.469665 -0.030212 0.852237 -0.0666477 1.14106 0.110022C1.15786 0.120298 1.17303 0.13299 1.18695 0.146915L11.7197 10.6807C11.7417 10.7026 11.7651 10.7224 11.7892 10.7407C11.8089 10.7557 11.8277 10.772 11.8429 10.7916C12.0711 11.0857 12.0504 11.5101 11.7803 11.7803C11.4874 12.0729 11.0125 12.0731 10.7197 11.7803L9.86494 10.9255C9.75798 10.8185 9.58859 10.8086 9.46522 10.8961C8.56488 11.5348 7.48171 11.9327 6.30859 11.9922L6 12C5.44192 12 4.89985 11.9237 4.38574 11.7803C3.80099 11.6171 3.34449 11.5423 2.94824 11.6406C2.57624 11.7329 2.21454 11.8406 1.88867 11.9463C1.31066 12.1335 0.761645 11.9101 0.425781 11.5742C0.089998 11.2383 -0.133661 10.6893 0.0537109 10.1113L0.211914 9.59863C0.263269 9.42099 0.312358 9.23701 0.358398 9.05078C0.456373 8.65422 0.382616 8.19803 0.219727 7.61328C0.076528 7.09922 0 6.55776 0 6C0 4.70857 0.4086 3.51275 1.10288 2.53382C1.19039 2.41043 1.18049 2.24103 1.07352 2.13407L0.219727 1.28027C-0.0728426 0.987442 -0.0728426 0.512558 0.219727 0.219727ZM6.30859 0.0078125C9.47887 0.168445 12 2.78979 12 6C12 6.68051 11.8855 7.33385 11.676 7.94314C11.607 8.14384 11.3534 8.1932 11.2033 8.04312L3.956 0.794903C3.8059 0.644787 3.85536 0.391109 4.05619 0.322304C4.66576 0.113455 5.31962 5.59469e-05 6 0L6.30859 0.0078125Z"
      fill="currentColor"
    />
  </g>
  <defs>
    <clipPath id="clip0_6949_171"><path fill="currentColor" d="M0 0H12V12H0z" /></clipPath>
  </defs>
</svg>
