<svg width="20" height="20" viewBox="0 0 20 20" fill="none" xmlns="http://www.w3.org/2000/svg" data-fui-icon="true">
  <path
    d="M10.0005 0C11.0285 4.91189e-05 12.0201 0.155823 12.9535 0.444314C13.1634 0.509188 13.2221 0.773304 13.0667 0.928666L10.1226 3.87383C9.44059 4.5561 9.01138 5.4501 8.90484 6.40887L8.73883 7.9C8.52324 9.8423 10.1645 11.4837 12.1068 11.268L13.598 11.102C14.5568 10.9954 15.4508 10.5654 16.133 9.88331L19.0743 6.94107C19.2297 6.78574 19.4929 6.84528 19.5576 7.05532C19.8444 7.98618 20 8.97462 20 9.99951L19.9873 10.5141C19.7193 15.7972 15.3502 19.9988 10.0005 19.999C9.0159 19.999 8.06352 19.8554 7.16371 19.5889C6.04936 19.2588 5.02174 19.0861 4.09746 19.3535C3.55598 19.5103 3.04161 19.6737 2.57702 19.8311C1.82916 20.0843 1.10233 19.8065 0.646453 19.3506C0.190575 18.8947 -0.0871574 18.1679 0.166008 17.42C0.32382 16.9541 0.487591 16.4377 0.6445 15.8938C0.910739 14.9702 0.738044 13.9443 0.40916 12.8314C0.176899 12.0454 0.0387878 11.2191 0.00781212 10.3667L0 9.99951C0.000230887 4.47722 4.47827 0.000213953 10.0005 0ZM17.587 6.30731L15.0725 8.82281C14.6311 9.26412 14.0523 9.54187 13.432 9.61086L11.9408 9.77589C10.9538 9.88541 10.1204 9.05207 10.23 8.06504L10.395 6.57487C10.464 5.95448 10.7417 5.3748 11.183 4.93335L13.6976 2.41785L17.587 6.30731ZM15.2834 0.833944C16.3573 -0.239825 18.099 -0.23979 19.1729 0.833944C20.2464 1.90776 20.2464 3.64862 19.1729 4.72243L18.6475 5.24681L14.7581 1.35736L15.2834 0.833944Z"
    fill="currentColor"
  />
</svg>
