<svg
  width="16"
  height="16"
  viewBox="0 0 16 16"
  fill="none"
  xmlns="http://www.w3.org/2000/svg"
  data-fui-icon="true"
>
  <path
    d="M11.4999 9.5H12.8347C13.571 9.5 14.168 8.90307 14.168 8.16667V3.83333C14.168 3.09695 13.571 2.5 12.8347 2.5H6.00132C5.26494 2.5 4.66799 3.09695 4.66799 3.83333V5.16667M10.168 5.16667H3.16799C2.43161 5.16667 1.83466 5.76362 1.83466 6.5V10.8333C1.83466 11.5697 2.43161 12.1667 3.16799 12.1667H4.00132V13.8333L7.00136 12.1667H10.168C10.9044 12.1667 11.5014 11.5697 11.5014 10.8333V6.5C11.5014 5.76362 10.9044 5.16667 10.168 5.16667Z"
    stroke="currentColor"
    stroke-width="1.5"
    stroke-linecap="round"
    stroke-linejoin="round"
  />
  <path
    d="M6.6584 9.10857C6.7158 8.72673 6.92944 8.52048 7.14359 8.37497C7.353 8.23256 7.56246 8.04776 7.56246 7.70559C7.56246 7.23332 7.18355 6.85083 6.7158 6.85083C6.24799 6.85083 5.86914 7.23332 5.86914 7.70559"
    stroke="currentColor"
    stroke-width="1.2"
    stroke-linecap="round"
  />
  <path
    d="M6.22266 10.4275C6.22266 10.7408 6.4766 10.9947 6.78984 10.9947C7.10308 10.9947 7.35702 10.7408 7.35702 10.4275C7.35702 10.1143 7.10308 9.86035 6.78984 9.86035C6.4766 9.86035 6.22266 10.1143 6.22266 10.4275Z"
    fill="currentColor"
  />
</svg>
