<svg width="32" height="32" viewBox="0 0 32 32" fill="none" xmlns="http://www.w3.org/2000/svg" data-fui-icon="true">
  <path
    d="M16 1.00024C24.2842 1.00024 30.9998 7.71611 31 16.0002L30.9951 16.387C30.7897 24.4923 24.1549 31.0002 16 31.0002C14.5987 31.0002 13.241 30.8073 11.9531 30.4465C10.1178 29.9325 8.34043 29.6283 6.71094 30.1155C5.90132 30.3575 5.13494 30.6061 4.43848 30.844C3.43473 31.1865 2.44564 30.8183 1.81348 30.1858C1.18154 29.5533 0.81368 28.5642 1.15625 27.5608C1.39404 26.8645 1.64215 26.0981 1.88379 25.2883C2.37005 23.6585 2.06609 21.8815 1.55273 20.0461C1.23763 18.9195 1.0506 17.7393 1.00879 16.5237L1 16.0002C1.00017 7.71628 7.71608 1.00052 16 1.00024ZM16 2.50024C8.54448 2.50052 2.50017 8.54472 2.5 16.0002L2.50781 16.4719C2.54547 17.5673 2.71385 18.6291 2.99707 19.6418C3.52205 21.5188 3.93706 23.653 3.32129 25.717C3.07343 26.5476 2.81947 27.3328 2.57617 28.0452C2.45223 28.4081 2.56646 28.8183 2.87402 29.1262C3.18174 29.434 3.59134 29.5478 3.9541 29.4241C4.6662 29.1809 5.45077 28.9263 6.28125 28.678C8.3455 28.0608 10.4802 28.4764 12.3574 29.0022C13.5152 29.3265 14.737 29.5002 16 29.5002C23.4557 29.5002 29.4997 23.4559 29.5 16.0002C29.4998 8.54454 23.4557 2.50024 16 2.50024Z"
    fill="currentColor"
  />
  <path
    d="M15.4732 9.08678C15.6849 8.63774 16.3151 8.63774 16.5268 9.08678L18.3488 12.9508C18.4341 13.1316 18.6036 13.2564 18.7995 13.2825L22.9915 13.8418C23.4789 13.9068 23.6739 14.5164 23.3169 14.8593L20.2522 17.8034C20.1084 17.9416 20.0434 18.1442 20.0795 18.3417L20.8492 22.5481C20.9388 23.0378 20.4288 23.4143 19.997 23.1771L16.278 21.1345C16.1045 21.0393 15.8955 21.0393 15.722 21.1345L12.003 23.1771C11.5712 23.4143 11.0612 23.0378 11.1508 22.5481L11.9205 18.3417C11.9566 18.1442 11.8916 17.9416 11.7478 17.8034L8.68312 14.8593C8.32615 14.5164 8.5211 13.9068 9.00851 13.8418L13.2005 13.2825C13.3964 13.2564 13.566 13.1316 13.6512 12.9508L15.4732 9.08678Z"
    stroke="currentColor"
    stroke-width="1.5"
    stroke-linecap="round"
    stroke-linejoin="round"
  />
</svg>
