<svg width="32" height="32" viewBox="0 0 32 32" fill="none" xmlns="http://www.w3.org/2000/svg" data-fui-icon="true">
  <path
    fill-rule="evenodd"
    clip-rule="evenodd"
    d="M16.0789 1.00293C24.3184 1.00324 30.9977 7.68204 30.9979 15.9209L30.993 16.3057C30.7889 24.3668 24.1899 30.8395 16.0789 30.8398C13.8615 30.8398 11.7554 30.3533 9.86214 29.4844C7.8003 29.9334 5.67214 30.4772 4.04183 30.915C2.25672 31.3942 0.601562 29.7393 1.08089 27.9541C1.51916 26.3235 2.06126 24.1936 2.51058 22.1309C1.69972 20.3623 1.22328 18.4084 1.16487 16.3516L1.15901 15.9209C1.15917 7.6819 7.83939 1.00307 16.0789 1.00293ZM9.49983 14.5C8.67152 14.5 8.00002 15.1717 7.99983 16C7.99983 16.8284 8.67141 17.5 9.49983 17.5C10.3281 17.4999 10.9998 16.8283 10.9998 16C10.9997 15.1718 10.328 14.5001 9.49983 14.5ZM15.9998 14.5C15.1715 14.5 14.5 15.1717 14.4998 16C14.4998 16.8284 15.1714 17.5 15.9998 17.5C16.8281 17.4999 17.4998 16.8283 17.4998 16C17.4997 15.1718 16.828 14.5001 15.9998 14.5ZM22.4998 14.5C21.6715 14.5 21 15.1717 20.9998 16C20.9998 16.8284 21.6714 17.5 22.4998 17.5C23.3281 17.4999 23.9998 16.8283 23.9998 16C23.9997 15.1718 23.328 14.5001 22.4998 14.5Z"
    fill="currentColor"
  />
</svg>
