<svg width="20" height="20" viewBox="0 0 20 20" fill="none" xmlns="http://www.w3.org/2000/svg" data-fui-icon="true">
  <path
    d="M10 0C15.5228 0 20 4.47715 20 10C20 15.5228 15.5228 20 10 20C8.54693 19.9999 7.16633 19.6856 5.91895 19.127C4.79753 19.3729 3.64957 19.6609 2.68945 19.9141C1.12327 20.3264 -0.326947 18.8753 0.0859375 17.3096C0.339099 16.3498 0.625068 15.2012 0.871094 14.0791C0.313186 12.8322 0 11.452 0 10C0 4.47724 4.47736 0.00020659 10 0ZM10 1.5C5.30571 1.50019 1.5 5.30573 1.5 10C1.5 11.3158 1.79882 12.5598 2.33105 13.6699C2.40432 13.8227 2.42536 13.9964 2.38965 14.1631C2.12664 15.3875 1.81124 16.6531 1.53711 17.6924C1.41723 18.1472 1.85229 18.5822 2.30664 18.4629C3.34529 18.1891 4.61118 17.8724 5.83594 17.6094L5.96191 17.5938C6.04609 17.5899 6.13024 17.5996 6.21094 17.623L6.3291 17.668L6.75098 17.8564C7.75125 18.2707 8.84805 18.5 10 18.5C14.6944 18.5 18.5 14.6944 18.5 10C18.5 5.30558 14.6944 1.5 10 1.5ZM5.5 8.75C6.19036 8.75 6.75 9.30964 6.75 10C6.75 10.6904 6.19036 11.25 5.5 11.25C4.80964 11.25 4.25 10.6904 4.25 10C4.25 9.30964 4.80964 8.75 5.5 8.75ZM10 8.75C10.6904 8.75 11.25 9.30964 11.25 10C11.25 10.6904 10.6904 11.25 10 11.25C9.30976 11.2499 8.75 10.6903 8.75 10C8.75 9.30973 9.30976 8.75013 10 8.75ZM14.5 8.75C15.1904 8.75 15.75 9.30964 15.75 10C15.75 10.6904 15.1904 11.25 14.5 11.25C13.8096 11.25 13.25 10.6904 13.25 10C13.25 9.30964 13.8096 8.75 14.5 8.75Z"
    fill="currentColor"
  />
</svg>
