<svg width="32" height="32" viewBox="0 0 32 32" fill="none" xmlns="http://www.w3.org/2000/svg" data-fui-icon="true">
  <path
    fill-rule="evenodd"
    clip-rule="evenodd"
    d="M16.073 2C23.7649 2 30.0007 8.23579 30.0007 15.9277C30.0006 23.6196 23.7649 29.8555 16.073 29.8555C13.918 29.8554 11.8772 29.3656 10.0559 28.4917C10.0499 28.4889 10.0431 28.4881 10.0366 28.4895C7.94272 28.9392 5.762 29.4953 4.09937 29.9414C2.87185 30.2705 1.72788 29.1259 2.05738 27.8984C2.50376 26.2355 3.05943 24.0544 3.50933 21.9602C3.51072 21.9537 3.50992 21.9469 3.50704 21.9409C2.63436 20.1206 2.14531 18.0812 2.14527 15.9277C2.14527 8.23584 8.38113 2.00008 16.073 2Z"
    fill="currentColor"
  />
  <path
    d="M16.073 2V1H16.073L16.073 2ZM30.0007 15.9277L31.0007 15.9278V15.9277H30.0007ZM16.073 29.8555L16.073 30.8555H16.073V29.8555ZM4.09937 29.9414L4.35834 30.9073L4.35849 30.9072L4.09937 29.9414ZM2.05738 27.8984L3.02319 28.1577L3.02319 28.1577L2.05738 27.8984ZM2.14527 15.9277H1.14527V15.9278L2.14527 15.9277ZM3.50933 21.9602L2.53163 21.7502L3.50933 21.9602ZM3.50704 21.9409L2.60531 22.3732L3.50704 21.9409ZM10.0559 28.4917L9.62331 29.3933L10.0559 28.4917ZM10.0366 28.4895L9.82662 27.5118L10.0366 28.4895ZM16.073 2V3C23.2127 3 29.0007 8.78807 29.0007 15.9277H30.0007H31.0007C31.0007 7.6835 24.3172 1 16.073 1V2ZM30.0007 15.9277L29.0007 15.9277C29.0006 23.0673 23.2126 28.8555 16.073 28.8555V29.8555V30.8555C24.3172 30.8555 31.0006 24.1718 31.0007 15.9278L30.0007 15.9277ZM16.073 29.8555L16.073 28.8555C14.071 28.8554 12.1778 28.4007 10.4885 27.5902L10.0559 28.4917L9.62331 29.3933C11.5766 30.3305 13.7649 30.8554 16.073 30.8555L16.073 29.8555ZM10.0366 28.4895L9.82662 27.5118C7.7097 27.9664 5.51104 28.5273 3.84024 28.9756L4.09937 29.9414L4.35849 30.9072C6.01295 30.4634 8.17574 29.9119 10.2466 29.4672L10.0366 28.4895ZM4.09937 29.9414L3.84039 28.9755C3.35696 29.1051 2.89326 28.6417 3.02319 28.1577L2.05738 27.8984L1.09157 27.6392C0.562501 29.6101 2.38675 31.4359 4.35834 30.9073L4.09937 29.9414ZM2.05738 27.8984L3.02319 28.1577C3.47185 26.4863 4.03221 24.2873 4.48702 22.1703L3.50933 21.9602L2.53163 21.7502C2.08665 23.8215 1.53567 25.9848 1.09157 27.6392L2.05738 27.8984ZM3.50704 21.9409L4.40877 21.5086C3.59936 19.8203 3.1453 17.9283 3.14527 15.9277L2.14527 15.9277L1.14527 15.9278C1.14531 18.2341 1.66937 20.421 2.60531 22.3732L3.50704 21.9409ZM2.14527 15.9277H3.14527C3.14527 8.78813 8.93341 3.00007 16.073 3L16.073 2L16.073 1C7.82885 1.00009 1.14527 7.68354 1.14527 15.9277H2.14527ZM3.50933 21.9602L4.48702 22.1703C4.53512 21.9464 4.50708 21.7137 4.40877 21.5086L3.50704 21.9409L2.60531 22.3732C2.51275 22.1802 2.48633 21.9611 2.53163 21.7502L3.50933 21.9602ZM10.0559 28.4917L10.4885 27.5902C10.2833 27.4917 10.0506 27.4636 9.82662 27.5118L10.0366 28.4895L10.2466 29.4672C10.0356 29.5125 9.81643 29.486 9.62331 29.3933L10.0559 28.4917Z"
    fill="currentColor"
  />
</svg>
