<svg width="12" height="12" viewBox="0 0 12 12" fill="none" xmlns="http://www.w3.org/2000/svg" data-fui-icon="true">
  <path
    d="M3.9707 4.54993C5.88925 4.5501 7.44593 6.10547 7.44629 8.02454C7.44629 9.94362 5.88975 11.5 3.9707 11.5001C3.56562 11.5001 3.17881 11.4283 2.82129 11.3019C2.51997 11.3725 2.22381 11.4477 1.99902 11.5089C1.08143 11.7587 0.236282 10.9144 0.486328 9.99622L0.621094 9.47668C0.645702 9.37752 0.668327 9.27434 0.692383 9.17102C0.56667 8.81354 0.496094 8.42777 0.496094 8.02454C0.49645 6.10586 2.05187 4.55017 3.9707 4.54993ZM7.34961 0.500122C9.64155 0.500515 11.499 2.35908 11.499 4.65051C11.4989 5.15825 11.4037 5.6428 11.2373 6.08997C11.3449 6.55931 11.4627 7.02468 11.5488 7.33704V7.33801C11.801 8.2565 10.9563 9.10192 10.0371 8.84973H10.0361C9.72299 8.76342 9.25923 8.6447 8.79199 8.53723C8.67435 8.58114 8.55332 8.61887 8.43066 8.65247C8.45929 8.44736 8.47559 8.23753 8.47559 8.02454C8.47537 5.53969 6.46039 3.52495 3.97559 3.52454C3.76071 3.52454 3.54864 3.54033 3.3418 3.56946C3.81767 1.80179 5.43183 0.500304 7.34961 0.500122Z"
    fill="currentColor"
  />
</svg>
