<svg width="13" height="13" viewBox="0 0 13 13" fill="none" xmlns="http://www.w3.org/2000/svg" data-fui-icon="true">
  <path
    d="M6.5074 0C6.71075 2.34468e-05 6.91183 0.00986232 7.11033 0.0285598C7.36631 0.0526842 7.46849 0.357565 7.29227 0.544752L6.13824 1.76965C5.67657 2.25956 5.32742 2.84504 5.11644 3.4843L4.80439 4.43206C4.03836 6.75499 6.244 8.95905 8.56688 8.19243L9.51465 7.88145C10.1535 7.67042 10.7386 7.32112 11.2282 6.85964L12.4531 5.7035C12.6401 5.52704 12.9455 5.62756 12.9704 5.88332C12.9897 6.08375 13 6.28718 13 6.4926C13 10.0782 10.0928 12.9848 6.5074 12.9852C5.90439 12.9852 5.31888 12.9019 4.76314 12.7472C4.12966 12.5707 3.63446 12.491 3.20504 12.597C2.80366 12.6964 2.41295 12.812 2.06159 12.926C1.4361 13.1288 0.842312 12.8865 0.478112 12.5229C0.113983 12.1592 -0.128807 11.5656 0.0740439 10.9395L0.244345 10.3852C0.299669 10.1932 0.353426 9.99419 0.403011 9.79284C0.50858 9.36328 0.427874 8.86848 0.251749 8.2358C0.0971462 7.68029 0.0148088 7.09536 0.0148088 6.4926C0.0149364 2.90695 2.92191 0.000137111 6.5074 0ZM9.41204 0.66428C10.2109 -0.183014 11.5523 -0.20232 12.3759 0.620911C13.1994 1.44457 13.1801 2.78687 12.3325 3.58584L10.1133 5.67705C9.7965 5.97566 9.41821 6.20162 9.0048 6.33816L8.05704 6.6502C7.00132 6.99832 5.99851 5.99659 6.34662 4.94085L6.65972 3.99308C6.79626 3.57956 7.02111 3.2004 7.31977 2.88348L9.41204 0.66428Z"
    fill="currentColor"
  />
</svg>
