<svg
  width="24"
  height="24"
  viewBox="0 0 24 24"
  fill="none"
  xmlns="http://www.w3.org/2000/svg"
  data-fui-icon="true"
>
  <path
    d="M6.79998 13C7.46272 13 7.99998 12.4627 7.99998 11.8 7.99998 11.1372 7.46272 10.6 6.79998 10.6 6.13723 10.6 5.59998 11.1372 5.59998 11.8 5.59998 12.4627 6.13723 13 6.79998 13zM11.2 13C11.8627 13 12.4 12.4627 12.4 11.8 12.4 11.1372 11.8627 10.6 11.2 10.6 10.5373 10.6 10 11.1372 10 11.8 10 12.4627 10.5373 13 11.2 13zM15.8 13C16.4627 13 17 12.4627 17 11.8 17 11.1372 16.4627 10.6 15.8 10.6 15.1372 10.6 14.6 11.1372 14.6 11.8 14.6 12.4627 15.1372 13 15.8 13z"
    fill="currentColor"
  />
  <path
    d="M18 0C15.8 0 13.8 1.2 12.8 3H4.8C2.7 3 1 4.7 1 6.8V16.3C1 18.3 2.7 20 4.8 20H7.8C8 20 8.2 20.1 8.3 20.2L11 22.8C11.3 23.1 11.7 23.1 12 22.8L14.7 20.2C14.8 20.1 15 20 15.2 20H18.2C20.3 20 22 18.3 22 16.2V10.4C23.2 9.3 24 7.7 24 5.9C24 2.7 21.3 0 18 0ZM20.5 16.2C20.5 17.4 19.5 18.4 18.3 18.4H15.3C14.7 18.4 14.2 18.6 13.7 19L11.5 21.1L9.3 19C8.9 18.6 8.3 18.4 7.7 18.4H4.7C3.5 18.4 2.5 17.4 2.5 16.2V6.8C2.5 5.6 3.5 4.6 4.7 4.6H12.1C12.1 5 12 5.5 12 6C12 9.3 14.7 12 18 12C18.9 12 19.7 11.8 20.5 11.4V16.2ZM22 8C21.6 8.7 21.1 9.3 20.5 9.7C19.8 10.2 18.9 10.5 18 10.5C15.5 10.5 13.5 8.5 13.5 6C13.5 5.5 13.6 5 13.8 4.5C14 3.9 14.3 3.4 14.7 3C15.5 2.1 16.7 1.5 18 1.5C20.5 1.5 22.5 3.5 22.5 6C22.5 6.7 22.3 7.4 22 8Z"
    fill="currentColor"
  />
</svg>
