<svg width="32" height="32" viewBox="0 0 32 32" fill="none" xmlns="http://www.w3.org/2000/svg" data-fui-icon="true">
  <path
    d="M9.69629 13.85C14.3631 13.85 18.1465 17.6334 18.1465 22.3002C18.1464 26.9669 14.3631 30.7504 9.69629 30.7504C8.48426 30.7503 7.3313 30.4913 6.28809 30.0306C5.07444 30.2978 3.82719 30.6205 2.94141 30.8617C1.84706 31.1591 0.836097 30.1458 1.13379 29.0531L1.34082 28.2777C1.54312 27.5064 1.76758 26.5962 1.96387 25.7045C1.50429 24.6622 1.24612 23.5107 1.24609 22.3002C1.24611 17.6336 5.02975 13.8503 9.69629 13.85ZM9.69629 15.35C5.85816 15.3503 2.74611 18.462 2.74609 22.3002L2.75781 22.7006C2.81052 23.627 3.04488 24.5038 3.4248 25.2972C3.49807 25.4502 3.51834 25.6242 3.48242 25.7914C3.20291 27.0927 2.8518 28.4491 2.59277 29.4017C3.54507 29.1429 4.90196 28.7925 6.20312 28.5131L6.3291 28.4965C6.41348 28.4925 6.49826 28.5024 6.5791 28.5258L6.69727 28.5707L7.04297 28.725C7.8599 29.063 8.75576 29.2503 9.69629 29.2504C13.5346 29.2504 16.6464 26.1385 16.6465 22.3002C16.6465 18.4618 13.5347 15.35 9.69629 15.35ZM20.2002 1.25037C26.0266 1.25048 30.7499 5.97374 30.75 11.8002C30.7499 13.3378 30.4198 14.8005 29.8271 16.1195C30.2062 17.8494 30.6749 19.6387 30.9912 20.7855C31.2926 21.8791 30.2826 22.8933 29.1865 22.5912C28.0394 22.275 26.2516 21.8041 24.5225 21.4252C23.3449 21.9547 22.0531 22.2743 20.6953 22.3373C20.6879 21.8285 20.6485 21.3281 20.5742 20.8383C21.837 20.7869 23.0319 20.4804 24.1084 19.9642C24.2231 19.9093 24.3501 19.8842 24.4766 19.89L24.6025 19.9066C26.4177 20.2964 28.3192 20.7975 29.5322 21.1312C29.1982 19.9175 28.6975 18.0157 28.3076 16.2006C28.2718 16.0336 28.2921 15.8593 28.3652 15.7064C28.9316 14.5247 29.2499 13.2003 29.25 11.8002C29.2499 6.80216 25.1982 2.75047 20.2002 2.75037C15.2698 2.75066 11.2627 6.69332 11.1553 11.598C10.6791 11.5351 10.1935 11.5004 9.7002 11.5004C9.68592 11.5004 9.67149 11.5013 9.65723 11.5013C9.81539 5.81309 14.4737 1.25066 20.2002 1.25037ZM29.585 21.1459C29.5848 21.1457 29.5841 21.1451 29.583 21.1449H29.5811C29.5822 21.1452 29.5838 21.1456 29.585 21.1459Z"
    fill="currentColor"
  />
</svg>
