<svg width="24" height="24" viewBox="0 0 24 24" fill="none" xmlns="http://www.w3.org/2000/svg" data-fui-icon="true">
  <path
    d="M12 0.75V0H12L12 0.75ZM12 23.25L12 24H12V23.25ZM2.87695 23.1748L2.68576 22.4496H2.68576L2.87695 23.1748ZM0.825195 21.123L0.0999992 20.9318L0.0999596 20.9319L0.825195 21.123ZM1.85198 16.8724L1.11871 16.7149L1.85198 16.8724ZM1.85034 16.8586L1.17408 17.1829L1.85034 16.8586ZM7.1404 22.1487L6.81599 22.8249L7.1404 22.1487ZM7.12663 22.147L7.2841 22.8803L7.12663 22.147ZM12 0.75V1.5C17.799 1.5 22.5 6.20101 22.5 12H23.25H24C24 5.37258 18.6274 0 12 0V0.75ZM23.25 12H22.5C22.5 17.799 17.799 22.5 12 22.5V23.25V24C18.6274 24 24 18.6274 24 12H23.25ZM12 23.25L12 22.5C10.3743 22.5 8.83681 22.1307 7.4648 21.4725L7.1404 22.1487L6.81599 22.8249C8.38599 23.5781 10.1447 23.9999 12 24L12 23.25ZM7.12663 22.147L6.96915 21.4138C5.48319 21.7329 3.94758 22.1169 2.68576 22.4496L2.87695 23.1748L3.06814 23.9C4.31757 23.5706 5.82896 23.1928 7.2841 22.8803L7.12663 22.147ZM2.87695 23.1748L2.68576 22.4496C2.01262 22.627 1.37298 21.9875 1.55043 21.3142L0.825195 21.123L0.0999596 20.9319C-0.37032 22.7163 1.28345 24.3705 3.06815 23.9L2.87695 23.1748ZM0.825195 21.123L1.55039 21.3143C1.8834 20.0518 2.2661 18.5156 2.58525 17.0299L1.85198 16.8724L1.11871 16.7149C0.806003 18.1705 0.429405 19.6829 0.0999992 20.9318L0.825195 21.123ZM1.85034 16.8586L2.52661 16.5343C1.86883 15.1627 1.5 13.6254 1.5 12H0.75H0C0 13.8547 0.421311 15.6132 1.17408 17.1829L1.85034 16.8586ZM0.75 12H1.5C1.5 6.20115 6.20115 1.50018 12 1.5L12 0.75L12 0C5.37276 0.000203848 0 5.37268 0 12H0.75ZM1.85198 16.8724L2.58525 17.0299C2.62126 16.8623 2.6003 16.688 2.52661 16.5343L1.85034 16.8586L1.17408 17.1829C1.1045 17.0378 1.08469 16.8732 1.11871 16.7149L1.85198 16.8724ZM7.1404 22.1487L7.4648 21.4725C7.3111 21.3987 7.1368 21.3778 6.96915 21.4138L7.12663 22.147L7.2841 22.8803C7.12576 22.9143 6.96112 22.8945 6.81599 22.8249L7.1404 22.1487Z"
    fill="currentColor"
  />
</svg>
