<svg width="12" height="12" viewBox="0 0 12 12" fill="none" xmlns="http://www.w3.org/2000/svg" data-fui-icon="true">
  <path
    d="M6 1V0H5.99993L6 1ZM6 11L5.99993 12H6V11ZM2.00879 10.9502L1.75498 9.98294L1.75497 9.98294L2.00879 10.9502ZM1.0498 9.99219L0.082584 9.73825L0.0824037 9.73894L1.0498 9.99219ZM1.48952 8.16545L2.46721 8.37548L1.48952 8.16545ZM1.48876 8.15903L2.39048 7.72672L1.48876 8.15903ZM3.84097 10.5103L4.27344 9.60862L3.84097 10.5103ZM3.83455 10.5095L3.62459 9.5318L3.83455 10.5095ZM6 1V2C8.20914 2 10 3.79086 10 6H11H12C12 2.68629 9.31371 0 6 0V1ZM11 6H10C10 8.20914 8.20914 10 6 10V11V12C9.31371 12 12 9.31371 12 6H11ZM6 11L6.00007 10C5.38012 9.99996 4.7955 9.85902 4.27344 9.60862L3.84097 10.5103L3.4085 11.4119C4.1937 11.7885 5.0732 11.9999 5.99993 12L6 11ZM3.83455 10.5095L3.62459 9.5318C2.97512 9.67127 2.30832 9.83774 1.75498 9.98294L2.00879 10.9502L2.2626 11.9174C2.8005 11.7763 3.43557 11.618 4.04451 11.4872L3.83455 10.5095ZM2.00879 10.9502L1.75497 9.98294C1.84535 9.95923 1.92571 9.99631 1.96466 10.0352C2.00363 10.0741 2.04096 10.1547 2.01721 10.2454L1.0498 9.99219L0.0824037 9.73894C-0.261599 11.053 0.94974 12.262 2.2626 11.9174L2.00879 10.9502ZM1.0498 9.99219L2.01703 10.2461C2.16274 9.69111 2.32792 9.0239 2.46721 8.37548L1.48952 8.16545L0.511821 7.95542C0.380757 8.56555 0.223374 9.202 0.0825843 9.73825L1.0498 9.99219ZM1.48876 8.15903L2.39048 7.72672C2.14051 7.20531 2 6.62041 2 6H1H0C0 6.92589 0.210383 7.8057 0.587026 8.59133L1.48876 8.15903ZM1 6H2C2 3.79105 3.79097 2.00016 6.00007 2L6 1L5.99993 0C2.68652 0.000237465 0 2.68634 0 6H1ZM1.48952 8.16545L2.46721 8.37548C2.51435 8.15602 2.48692 7.92789 2.39048 7.72672L1.48876 8.15903L0.587026 8.59133C0.492503 8.39417 0.465611 8.17054 0.511821 7.95542L1.48952 8.16545ZM3.84097 10.5103L4.27344 9.60862C4.07225 9.51212 3.84407 9.48466 3.62459 9.5318L3.83455 10.5095L4.04451 11.4872C3.82936 11.5334 3.6057 11.5065 3.4085 11.4119L3.84097 10.5103Z"
    fill="currentColor"
  />
</svg>
