<svg width="20" height="20" viewBox="0 0 20 20" fill="none" xmlns="http://www.w3.org/2000/svg" data-fui-icon="true">
  <path
    d="M6.39844 8.44995C9.24259 8.45029 11.5478 10.7565 11.5479 13.6003C11.5476 16.4442 9.24232 18.7494 6.39844 18.7498C5.6985 18.7498 5.02919 18.6094 4.41895 18.3552C3.76475 18.5016 3.10128 18.6723 2.62305 18.8025H2.62207C1.75818 19.0369 0.960638 18.2402 1.19531 17.3757V17.3748C1.3257 16.8963 1.49603 16.2315 1.64258 15.5759C1.38923 14.9672 1.2481 14.2998 1.24805 13.6003C1.24806 10.7561 3.55418 8.44995 6.39844 8.44995ZM6.39844 9.94995C4.38261 9.94995 2.74806 11.5845 2.74805 13.6003L2.75391 13.8103C2.78159 14.2961 2.90456 14.7555 3.10352 15.1716C3.17575 15.3228 3.19657 15.4947 3.16113 15.6599C3.04685 16.1922 2.90963 16.7394 2.78809 17.2087C3.25679 17.0872 3.80396 16.9509 4.33594 16.8367L4.46094 16.8201C4.544 16.8163 4.62746 16.8264 4.70703 16.8494L4.82422 16.8943L5.00488 16.9753C5.43321 17.1523 5.90386 17.2498 6.39844 17.2498L6.58594 17.2449C8.51418 17.147 10.0477 15.553 10.0479 13.6003C10.0478 11.6474 8.51417 10.0527 6.58594 9.95483L6.39844 9.94995ZM12.4004 1.24976C15.9071 1.24991 18.7496 4.09282 18.75 7.59937C18.75 8.48511 18.5661 9.32975 18.2373 10.0974C18.3342 10.5335 18.4393 10.9745 18.543 11.3845L18.877 12.6492C19.1153 13.515 18.3161 14.3143 17.4502 14.0759L16.1855 13.7419C15.7758 13.6383 15.3352 13.5331 14.8994 13.4363C14.5771 13.5745 14.2405 13.685 13.8936 13.7693C13.8948 13.7131 13.8984 13.6568 13.8984 13.6003C13.8984 13.1396 13.855 12.6886 13.7754 12.2507C14.0238 12.1773 14.2642 12.0856 14.4941 11.9753C14.6075 11.9211 14.7325 11.8954 14.8574 11.9011L14.9824 11.9177C15.789 12.0909 16.6232 12.305 17.2822 12.4802C17.107 11.8212 16.8919 10.9876 16.7188 10.1814C16.6833 10.0162 16.704 9.84438 16.7764 9.69312C17.0795 9.06041 17.25 8.35036 17.25 7.59937C17.2496 4.92114 15.0786 2.7499 12.4004 2.74976C10.2 2.74976 8.34152 4.21541 7.74805 6.22339C7.31021 6.14382 6.85923 6.10035 6.39844 6.10034C6.34166 6.10034 6.28499 6.10299 6.22852 6.10425C6.9013 3.31917 9.40883 1.24976 12.4004 1.24976Z"
    fill="currentColor"
  />
</svg>
