<svg width="16" height="16" viewBox="0 0 16 16" fill="none" xmlns="http://www.w3.org/2000/svg" data-fui-icon="true">
  <path
    d="M8 1.75L8.00004 1H8V1.75ZM8 14.25V15H8.00004L8 14.25ZM3.18359 14.1426L3.37205 14.8685L3.37208 14.8685L3.18359 14.1426ZM1.85742 12.8154L2.58333 13.004L2.58333 13.004L1.85742 12.8154ZM1.75 8H1H1.75ZM2.36131 10.7068L3.09459 10.8643L2.36131 10.7068ZM2.36026 10.6979L1.68393 11.022L2.36026 10.6979ZM5.30016 13.6388L5.62449 12.9625L5.30016 13.6388ZM5.29128 13.6377L5.44877 14.371L5.29128 13.6377ZM8 1.75L7.99996 2.5C11.0375 2.50014 13.5 4.96257 13.5 8H14.25H15C15 4.13407 11.8658 1.00018 8.00004 1L8 1.75ZM14.25 8H13.5C13.5 11.0374 11.0375 13.4999 7.99996 13.5L8 14.25L8.00004 15C11.8658 14.9998 15 11.8659 15 8H14.25ZM8 14.25V13.5C7.14771 13.5 6.34243 13.3069 5.62449 12.9625L5.30016 13.6388L4.97582 14.315C5.89215 14.7545 6.9187 15 8 15V14.25ZM5.29128 13.6377L5.13379 12.9044C4.39945 13.0622 3.64513 13.2479 2.99511 13.4166L3.18359 14.1426L3.37208 14.8685C4.00985 14.7029 4.74217 14.5227 5.44877 14.371L5.29128 13.6377ZM3.18359 14.1426L2.99514 13.4166C2.75689 13.4785 2.52108 13.2436 2.58333 13.004L1.85742 12.8154L1.13152 12.6269C0.781875 13.9728 2.0247 15.2183 3.37205 14.8685L3.18359 14.1426ZM1.85742 12.8154L2.58333 13.004C2.75252 12.3527 2.93695 11.5981 3.09459 10.8643L2.36131 10.7068L1.62804 10.5492C1.47605 11.2568 1.29698 11.9899 1.13152 12.6269L1.85742 12.8154ZM2.36026 10.6979L3.0366 10.3737C2.69272 9.65623 2.5 8.8518 2.5 8H1.75H1C1 9.08052 1.24495 10.1061 1.68393 11.022L2.36026 10.6979ZM1.75 8H2.5C2.5 4.96243 4.96243 2.5 8 2.5V1.75V1C4.13401 1 1 4.13401 1 8H1.75ZM2.36131 10.7068L3.09459 10.8643C3.13023 10.6984 3.1095 10.5259 3.0366 10.3737L2.36026 10.6979L1.68393 11.022C1.61367 10.8754 1.59369 10.7092 1.62804 10.5492L2.36131 10.7068ZM5.30016 13.6388L5.62449 12.9625C5.47234 12.8895 5.29978 12.8688 5.13379 12.9044L5.29128 13.6377L5.44877 14.371C5.28878 14.4054 5.12245 14.3853 4.97582 14.315L5.30016 13.6388Z"
    fill="currentColor"
  />
</svg>
