<svg width="13" height="13" viewBox="0 0 13 13" fill="none" xmlns="http://www.w3.org/2000/svg" data-fui-icon="true">
  <path
    d="M6.84183 0.00845322C10.2719 0.182408 13 3.01864 13 6.49208C13 9.96551 10.2719 12.8017 6.84183 12.9757L6.50792 12.9842C5.90396 12.9841 5.31789 12.9016 4.76128 12.7464C4.12806 12.5698 3.63387 12.489 3.20483 12.5953C2.80219 12.6952 2.41087 12.8117 2.05836 12.926H2.0573C1.43215 13.1281 0.839759 12.8859 0.47655 12.5224C0.113272 12.1587 -0.128752 11.5657 0.0739657 10.9406L0.244087 10.3858C0.299603 10.1933 0.353897 9.99396 0.403641 9.792C0.509209 9.3627 0.428455 8.86909 0.25254 8.23661C0.0978715 7.68053 0.0158498 7.09515 0.0158498 6.49208C0.0158498 2.9066 2.92245 3.41586e-06 6.50792 0L6.84183 0.00845322ZM4.88491 5.41006C4.28733 5.41006 3.80289 5.8945 3.80289 6.49208C3.80289 7.08965 4.28733 7.57409 4.88491 7.57409C5.48232 7.57389 5.96692 7.08953 5.96692 6.49208C5.96692 5.89462 5.48232 5.41026 4.88491 5.41006ZM8.13094 5.41006C7.53336 5.41006 7.04893 5.8945 7.04893 6.49208C7.04893 7.08965 7.53336 7.57409 8.13094 7.57409C8.72835 7.57389 9.21296 7.08953 9.21296 6.49208C9.21296 5.89462 8.72835 5.41026 8.13094 5.41006Z"
    fill="currentColor"
  />
</svg>
