<svg width="20" height="20" viewBox="0 0 20 20" fill="none" xmlns="http://www.w3.org/2000/svg" data-fui-icon="true">
  <path
    fill-rule="evenodd"
    clip-rule="evenodd"
    d="M6.39834 8.19995C9.38061 8.2003 11.7977 10.6185 11.7978 13.6003C11.7975 16.5822 9.38029 18.9994 6.39834 18.9998C5.69333 18.9998 5.01813 18.8622 4.39834 18.615C3.77368 18.7564 3.14628 18.919 2.68838 19.0437H2.6874C1.63706 19.3287 0.66832 18.3605 0.954004 17.3093L1.19814 16.3718C1.2605 16.1215 1.3234 15.8587 1.38271 15.5964C1.13628 14.9783 0.998006 14.305 0.997949 13.6003C0.997963 10.618 3.41601 8.19995 6.39834 8.19995ZM6.39834 10.2C4.52058 10.2 2.99796 11.7226 2.99795 13.6003L3.00381 13.7957C3.02956 14.2485 3.14363 14.6765 3.329 15.0642C3.42494 15.265 3.45226 15.4932 3.40518 15.7126C3.32227 16.0988 3.22889 16.4927 3.1376 16.8591C3.50342 16.7679 3.89735 16.6754 4.28311 16.5925L4.44912 16.571C4.55991 16.566 4.67113 16.5784 4.77725 16.6091L4.93252 16.6687L5.10049 16.7439C5.49909 16.9086 5.93716 16.9998 6.39834 16.9998L6.57314 16.9949C8.36919 16.9036 9.79756 15.4192 9.79775 13.6003C9.79774 11.7812 8.36914 10.2961 6.57314 10.2048L6.39834 10.2ZM12.4003 0.999756C16.0448 0.999976 19.0005 3.95462 19.0009 7.59937C19.0009 8.49138 18.8221 9.34442 18.4999 10.1228C18.5914 10.5304 18.6893 10.9407 18.786 11.324L19.1181 12.5828C19.4081 13.6355 18.437 14.6072 17.3837 14.3171C16.772 14.1485 15.843 13.904 14.9257 13.698C14.5918 13.8364 14.2433 13.9463 13.8847 14.0291C13.8927 13.8871 13.8983 13.7443 13.8983 13.6003C13.8983 13.0527 13.8379 12.5189 13.7265 12.0046C13.9539 11.9361 14.1746 11.8509 14.3856 11.7498C14.5364 11.6776 14.7029 11.6444 14.869 11.6521L15.0351 11.6736C15.6845 11.813 16.3511 11.9787 16.9306 12.1287C16.7809 11.5491 16.6149 10.8831 16.4755 10.2341C16.4283 10.0144 16.4553 9.78582 16.5517 9.58472C16.8389 8.98505 17.0009 8.31198 17.0009 7.59937C17.0005 5.05943 14.9405 2.99998 12.4003 2.99976L12.164 3.00562C10.1896 3.10559 8.54333 4.45072 7.99502 6.27124C7.48052 6.15969 6.94624 6.10035 6.39834 6.10034C6.25513 6.10035 6.11281 6.10511 5.97158 6.11304C6.64621 3.18451 9.26683 0.999829 12.4003 0.999756Z"
    fill="currentColor"
  />
</svg>
