<svg width="20" height="20" viewBox="0 0 20 20" fill="none" xmlns="http://www.w3.org/2000/svg" data-fui-icon="true">
  <path
    d="M10 0.5C15.2464 0.500277 19.5 4.7534 19.5 10C19.5 15.2466 15.2464 19.4997 10 19.5C8.65646 19.5 7.37739 19.2165 6.2168 18.7119C5.29623 18.9158 4.35991 19.1493 3.54883 19.3613C1.79829 19.8189 0.180107 18.2006 0.637695 16.4502C0.849756 15.6395 1.08216 14.7014 1.28613 13.7793C0.782474 12.6194 0.5 11.3419 0.5 10C0.5 4.75329 4.75329 0.5 10 0.5ZM10 2.5C5.85786 2.5 2.5 5.85786 2.5 10C2.5 11.1615 2.76331 12.2586 3.23242 13.2373C3.32946 13.4399 3.35701 13.6697 3.30957 13.8906C3.0825 14.9477 2.81375 16.0366 2.57324 16.9561C2.53972 17.0843 2.57583 17.2155 2.67969 17.3193C2.78354 17.4232 2.91475 17.4593 3.04297 17.4258C3.9608 17.1858 5.04894 16.9156 6.10645 16.6885L6.27344 16.667C6.44069 16.6593 6.60788 16.6929 6.75977 16.7656C7.73934 17.2356 8.83794 17.5 10 17.5L10.3857 17.4902C14.3485 17.2892 17.5 14.0125 17.5 10C17.5 5.98746 14.3485 2.71076 10.3857 2.50977L10 2.5ZM5.75 8.75C6.44036 8.75 7 9.30964 7 10C7 10.6904 6.44036 11.25 5.75 11.25C5.05964 11.25 4.5 10.6904 4.5 10C4.5 9.30964 5.05964 8.75 5.75 8.75ZM10 8.75C10.6904 8.75 11.25 9.30964 11.25 10C11.25 10.6904 10.6904 11.25 10 11.25C9.30964 11.25 8.75 10.6904 8.75 10C8.75 9.30964 9.30964 8.75 10 8.75ZM14.25 8.75C14.9404 8.75 15.5 9.30964 15.5 10C15.5 10.6904 14.9404 11.25 14.25 11.25C13.5596 11.25 13 10.6904 13 10C13 9.30964 13.5596 8.75 14.25 8.75Z"
    fill="currentColor"
  />
</svg>
