<svg width="16" height="16" viewBox="0 0 16 16" fill="none" xmlns="http://www.w3.org/2000/svg" data-fui-icon="true">
  <path
    d="M5.29688 6.40002C7.67131 6.40002 9.59754 8.32479 9.59766 10.6998C9.59764 13.075 7.67131 14.9996 5.29688 14.9996C4.76568 14.9995 4.25617 14.9005 3.78516 14.7233C3.34418 14.8246 2.90512 14.9355 2.58008 15.024H2.5791C1.60537 15.2876 0.708845 14.3916 0.972656 13.4176V13.4166C1.0609 13.0928 1.17122 12.6534 1.27246 12.2115C1.09537 11.74 0.997073 11.2304 0.99707 10.6998C0.997191 8.32528 2.92258 6.40046 5.29688 6.40002ZM9.7998 0.999634C12.6715 0.999742 14.9998 3.32818 15 6.19983C15 6.87165 14.8703 7.51585 14.6367 8.10803C14.7864 8.76875 14.958 9.43144 15.0791 9.87073V9.8717C15.3477 10.8504 14.4449 11.7466 13.4707 11.4781C13.0306 11.3569 12.3701 11.1844 11.7109 11.0348C11.5697 11.0907 11.4253 11.1404 11.2783 11.1842C11.2911 11.0244 11.2998 10.8629 11.2998 10.6998C11.2997 7.3862 8.61346 4.69983 5.2998 4.69983C5.13642 4.69983 4.97454 4.70752 4.81445 4.72034C5.45197 2.56941 7.4422 0.999675 9.7998 0.999634Z"
    fill="currentColor"
  />
</svg>
