<svg width="12" height="12" viewBox="0 0 12 12" fill="none" xmlns="http://www.w3.org/2000/svg" data-fui-icon="true">
  <g clip-path="url(#clip0_6950_212)">
    <path
      d="M6.30859 0.0078125C6.49184 0.0171056 6.58521 0.228532 6.49394 0.387702C6.31033 0.707919 6.17252 1.05781 6.08969 1.42837C6.0803 1.47039 6.04305 1.50057 6 1.5C3.51472 1.50001 1.5 3.51472 1.5 6C1.5 6.42029 1.55727 6.8259 1.66406 7.20996C1.83294 7.81714 2.0126 8.60474 1.81445 9.40918C1.70186 9.86629 2.12902 10.2989 2.58594 10.1855C3.39161 9.98568 4.18017 10.1654 4.78809 10.335C5.17277 10.4422 5.57929 10.5 6 10.5L6.23145 10.4941C8.60909 10.3735 10.5 8.4075 10.5 6C10.5 5.9564 10.5291 5.91864 10.5716 5.90912C10.8384 5.84943 11.0942 5.7611 11.3359 5.64773C11.628 5.51075 12 5.6774 12 6C12 9.21016 9.47871 11.8314 6.30859 11.9922L6 12C5.44181 12 4.90017 11.9237 4.38574 11.7803C3.80052 11.6171 3.34379 11.5424 2.94727 11.6406C2.57532 11.7329 2.21383 11.8405 1.88816 11.9461C1.88785 11.9462 1.88753 11.9463 1.88721 11.9463C1.88688 11.9463 1.88656 11.9463 1.88625 11.9464C1.30866 12.1329 0.761369 11.9091 0.425781 11.5732C0.0900396 11.2371 -0.13364 10.689 0.0537109 10.1113L0.210938 9.59863C0.262245 9.4207 0.312425 9.23645 0.358398 9.0498C0.455964 8.65304 0.381331 8.19685 0.21875 7.6123C0.0758049 7.09837 0 6.55736 0 6C0 2.68629 2.6863 5.38943e-06 6 0L6.30859 0.0078125ZM4.5 5C5.05212 5.0002 5.5 5.44784 5.5 6C5.5 6.55216 5.05212 6.9998 4.5 7C3.94772 7 3.5 6.55228 3.5 6C3.5 5.44772 3.94772 5 4.5 5ZM7.5 5C8.05212 5.0002 8.5 5.44784 8.5 6C8.5 6.55216 8.05212 6.9998 7.5 7C6.94772 7 6.5 6.55228 6.5 6C6.5 5.44772 6.94772 5 7.5 5ZM9.75 0C10.9925 0.000130902 12 1.00744 12 2.25C12 3.49256 10.9925 4.49987 9.75 4.5C8.50736 4.5 7.5 3.49264 7.5 2.25C7.5 1.00736 8.50736 0 9.75 0ZM9.75 1.5C9.33579 1.5 9 1.83579 9 2.25C9 2.66421 9.33579 3 9.75 3C10.1641 2.99987 10.5 2.66413 10.5 2.25C10.5 1.83587 10.1641 1.50013 9.75 1.5Z"
      fill="currentColor"
    />
  </g>
  <defs>
    <clipPath id="clip0_6950_212"><path fill="currentColor" d="M0 0H12V12H0z" /></clipPath>
  </defs>
</svg>
