<svg width="24" height="24" viewBox="0 0 24 24" fill="none" xmlns="http://www.w3.org/2000/svg" data-fui-icon="true">
  <path
    d="M12.3096 0.00390625C18.7938 0.168232 24 5.47618 24 12L23.9961 12.3096C23.8345 18.6909 18.6909 23.8344 12.3096 23.9961L12 24C10.7647 24 9.57069 23.8134 8.44727 23.4658C7.11851 23.0547 5.86452 22.8241 4.72168 23.1484C4.12917 23.3166 3.56369 23.4939 3.04688 23.666C2.21249 23.9437 1.39858 23.631 0.883789 23.1162C0.369073 22.6013 0.0561794 21.7875 0.333984 20.9531C0.506395 20.4354 0.683417 19.8685 0.851562 19.2744C1.17495 18.1315 0.945079 16.878 0.53418 15.5498C0.230323 14.5674 0.0492853 13.5316 0.00878906 12.4609L0 12C3.73005e-05 5.37274 5.37277 0.000195433 12 0L12.3096 0.00390625ZM13.0986 6.19531C12.6854 5.32673 11.5035 5.27224 10.9941 6.03223L10.9014 6.19531L9.50879 9.12109L6.30859 9.54492C5.28786 9.68001 4.89181 10.9365 5.62891 11.6387L7.9707 13.8691L7.38281 17.0576C7.19889 18.0564 8.25263 18.8452 9.16113 18.3506L12 16.8047L14.8389 18.3506C15.7475 18.8454 16.8011 18.0563 16.6172 17.0576L16.0283 13.8691L18.3711 11.6387C19.1083 10.9365 18.7123 9.67993 17.6914 9.54492L14.4902 9.12109L13.0986 6.19531Z"
    fill="currentColor"
  />
</svg>
