<svg width="20" height="20" viewBox="0 0 20 20" fill="none" xmlns="http://www.w3.org/2000/svg" data-fui-icon="true">
  <path
    fill-rule="evenodd"
    clip-rule="evenodd"
    d="M6.39883 8.19995C9.3811 8.2003 11.7982 10.6185 11.7982 13.6003C11.798 16.5822 9.38078 18.9994 6.39883 18.9998C5.69382 18.9998 5.01862 18.8622 4.39883 18.615C3.77417 18.7564 3.14677 18.919 2.68887 19.0437H2.68789C1.63755 19.3287 0.668808 18.3605 0.954492 17.3093L1.19863 16.3718C1.26099 16.1215 1.32388 15.8587 1.3832 15.5964C1.13677 14.9783 0.998494 14.305 0.998437 13.6003C0.998452 10.618 3.4165 8.19995 6.39883 8.19995ZM6.39883 10.2C4.52107 10.2 2.99845 11.7226 2.99844 13.6003L3.0043 13.7957C3.03005 14.2485 3.14412 14.6765 3.32949 15.0642C3.42543 15.265 3.45274 15.4932 3.40566 15.7126C3.32276 16.0988 3.22937 16.4927 3.13809 16.8591C3.50391 16.7679 3.89784 16.6754 4.28359 16.5925L4.44961 16.571C4.5604 16.566 4.67162 16.5784 4.77773 16.6091L4.93301 16.6687L5.10098 16.7439C5.49958 16.9086 5.93765 16.9998 6.39883 16.9998L6.57363 16.9949C8.36968 16.9036 9.79805 15.4192 9.79824 13.6003C9.79823 11.7812 8.36963 10.2961 6.57363 10.2048L6.39883 10.2ZM12.4008 0.999756C16.0453 0.999976 19.001 3.95462 19.0014 7.59937C19.0014 8.49138 18.8226 9.34442 18.5004 10.1228C18.5919 10.5304 18.6898 10.9407 18.7865 11.324L19.1186 12.5828C19.4086 13.6355 18.4375 14.6072 17.3842 14.3171C16.7724 14.1485 15.8435 13.904 14.9262 13.698C14.5923 13.8364 14.2438 13.9463 13.8852 14.0291C13.8932 13.8871 13.8988 13.7443 13.8988 13.6003C13.8988 13.0527 13.8384 12.5189 13.727 12.0046C13.9544 11.9361 14.1751 11.8509 14.3861 11.7498C14.5369 11.6776 14.7034 11.6444 14.8695 11.6521L15.0355 11.6736C15.6849 11.813 16.3516 11.9787 16.9311 12.1287C16.7814 11.5491 16.6154 10.8831 16.476 10.2341C16.4288 10.0144 16.4558 9.78582 16.5521 9.58472C16.8394 8.98505 17.0014 8.31198 17.0014 7.59937C17.001 5.05943 14.941 2.99998 12.4008 2.99976L12.1645 3.00562C10.1901 3.10559 8.54382 4.45072 7.99551 6.27124C7.48101 6.15969 6.94673 6.10035 6.39883 6.10034C6.25562 6.10035 6.1133 6.10511 5.97207 6.11304C6.6467 3.18451 9.26732 0.999829 12.4008 0.999756Z"
    fill="currentColor"
  />
</svg>
