<svg width="32" height="32" viewBox="0 0 32 32" fill="none" xmlns="http://www.w3.org/2000/svg" data-fui-icon="true">
  <path
    d="M16.0732 2V1H16.0732L16.0732 2ZM30.001 15.9277L31.001 15.9278V15.9277H30.001ZM16.0732 29.8555L16.0732 30.8555H16.0732V29.8555ZM4.09961 29.9414L4.35858 30.9073L4.35873 30.9072L4.09961 29.9414ZM2.05762 27.8984L3.02343 28.1577L3.02343 28.1577L2.05762 27.8984ZM2.14551 15.9277H1.14551V15.9278L2.14551 15.9277ZM3.50957 21.9602L2.53187 21.7502L3.50957 21.9602ZM3.50728 21.9409L2.60555 22.3732L3.50728 21.9409ZM10.0561 28.4917L9.62355 29.3933L10.0561 28.4917ZM10.0368 28.4895L9.82686 27.5118L10.0368 28.4895ZM16.0732 2V3C23.2129 3 29.001 8.78807 29.001 15.9277H30.001H31.001C31.001 7.6835 24.3175 1 16.0732 1V2ZM30.001 15.9277L29.001 15.9277C29.0008 23.0673 23.2128 28.8555 16.0732 28.8555V29.8555V30.8555C24.3174 30.8555 31.0008 24.1718 31.001 15.9278L30.001 15.9277ZM16.0732 29.8555L16.0733 28.8555C14.0712 28.8554 12.178 28.4007 10.4887 27.5902L10.0561 28.4917L9.62355 29.3933C11.5769 30.3305 13.7652 30.8554 16.0732 30.8555L16.0732 29.8555ZM10.0368 28.4895L9.82686 27.5118C7.70994 27.9664 5.51129 28.5273 3.84048 28.9756L4.09961 29.9414L4.35873 30.9072C6.01319 30.4634 8.17598 29.9119 10.2468 29.4672L10.0368 28.4895ZM4.09961 29.9414L3.84063 28.9755C3.3572 29.1051 2.8935 28.6417 3.02343 28.1577L2.05762 27.8984L1.09181 27.6392C0.562742 29.6101 2.38699 31.4359 4.35858 30.9073L4.09961 29.9414ZM2.05762 27.8984L3.02343 28.1577C3.47209 26.4863 4.03245 24.2873 4.48726 22.1703L3.50957 21.9602L2.53187 21.7502C2.08689 23.8215 1.53591 25.9848 1.09181 27.6392L2.05762 27.8984ZM3.50728 21.9409L4.40901 21.5086C3.5996 19.8203 3.14554 17.9283 3.14551 15.9277L2.14551 15.9277L1.14551 15.9278C1.14555 18.2341 1.66961 20.421 2.60555 22.3732L3.50728 21.9409ZM2.14551 15.9277H3.14551C3.14551 8.78813 8.93365 3.00007 16.0733 3L16.0732 2L16.0732 1C7.8291 1.00009 1.14551 7.68354 1.14551 15.9277H2.14551ZM3.50957 21.9602L4.48726 22.1703C4.53536 21.9464 4.50732 21.7137 4.40901 21.5086L3.50728 21.9409L2.60555 22.3732C2.51299 22.1802 2.48657 21.9611 2.53187 21.7502L3.50957 21.9602ZM10.0561 28.4917L10.4887 27.5902C10.2836 27.4917 10.0508 27.4636 9.82686 27.5118L10.0368 28.4895L10.2468 29.4672C10.0359 29.5125 9.81668 29.486 9.62355 29.3933L10.0561 28.4917Z"
    fill="currentColor"
  />
</svg>
