<svg width="13" height="13" viewBox="0 0 13 13" fill="none" xmlns="http://www.w3.org/2000/svg" data-fui-icon="true">
  <path
    fill-rule="evenodd"
    clip-rule="evenodd"
    d="M6.50776 0C10.093 0.000297384 12.9998 2.90678 12.9998 6.49208C12.9998 10.0774 10.093 12.9839 6.50776 12.9842C5.9039 12.9842 5.31742 12.9016 4.76112 12.7464C4.12841 12.5699 3.63447 12.4891 3.20572 12.5953C2.80321 12.6952 2.41188 12.8117 2.05926 12.926C1.43381 13.1289 0.839917 12.8868 0.47639 12.5234C0.112886 12.1599 -0.129076 11.5662 0.0738058 10.9406L0.244984 10.3858C0.300548 10.1936 0.353668 9.99456 0.403481 9.79306C0.50944 9.36403 0.429643 8.87025 0.253437 8.23767C0.0984688 7.6814 0.0156899 7.09563 0.0156899 6.49208C0.0156899 2.9066 2.92229 0 6.50776 0ZM6.50776 1.62302C3.81866 1.62302 1.63871 3.80297 1.63871 6.49208C1.63871 6.94698 1.70038 7.38649 1.81623 7.80232C1.99932 8.4596 2.19421 9.31209 1.97895 10.183C1.87669 10.5966 1.75986 10.9943 1.64505 11.3537C2.00378 11.2391 2.40151 11.1224 2.81476 11.0198C3.68628 10.8038 4.53993 10.9991 5.19752 11.1826C5.61338 11.2986 6.05297 11.3611 6.50776 11.3611L6.75819 11.3548C9.33067 11.2242 11.3768 9.097 11.3768 6.49208C11.3768 3.88715 9.33067 1.75997 6.75819 1.62936L6.50776 1.62302ZM6.31757 3.91279C6.39396 3.74532 6.62051 3.74533 6.69691 3.91279L7.35414 5.35406C7.38489 5.42148 7.44628 5.4679 7.51687 5.47769L9.02894 5.68691C9.20463 5.71123 9.2748 5.9383 9.14623 6.06624L8.04097 7.16516C7.98916 7.21672 7.96559 7.29226 7.97863 7.36593L8.25653 8.93506C8.28885 9.11779 8.10476 9.25809 7.94904 9.16963L6.60709 8.40779C6.5447 8.3725 6.46978 8.3725 6.40738 8.40779L5.06543 9.16963C4.9097 9.25808 4.72563 9.11779 4.75795 8.93506L5.03585 7.36593C5.04888 7.29226 5.02533 7.21672 4.97351 7.16516L3.86825 6.06624C3.73968 5.9383 3.80986 5.71122 3.98553 5.68691L5.4976 5.47769C5.5682 5.4679 5.6296 5.42148 5.66033 5.35406L6.31757 3.91279Z"
    fill="currentColor"
  />
</svg>
