<svg width="24" height="24" viewBox="0 0 24 24" fill="none" xmlns="http://www.w3.org/2000/svg" data-fui-icon="true">
  <path
    d="M12 1C18.0749 1 22.9999 5.92487 23 12C23 18.0753 18.075 23 12 23C10.4228 23 8.92111 22.6671 7.5625 22.0674C6.49465 22.3028 5.40657 22.5712 4.45801 22.8184C2.48879 23.3311 0.668826 21.5093 1.18164 19.541C1.42888 18.5924 1.69611 17.5029 1.93164 16.4336C1.33319 15.0761 1 13.5757 1 12C1.00014 5.9249 5.92515 1.00007 12 1ZM12 3C7.0297 3.00006 3.00013 7.02946 3 12C3 13.3934 3.31577 14.7109 3.87891 15.8857C3.97626 16.089 4.00454 16.3193 3.95703 16.541C3.69837 17.7452 3.39338 18.9853 3.11719 20.0449C2.98912 20.5363 3.46363 21.0105 3.9541 20.8828C5.01264 20.607 6.25251 20.3007 7.45703 20.042L7.62402 20.0205C7.7363 20.0153 7.84843 20.0293 7.95605 20.0605L8.11328 20.1201L8.56055 20.3193C9.61909 20.7575 10.78 21 12 21C16.9704 21 21 16.9707 21 12C20.9999 7.0294 16.9703 3 12 3ZM7.5 10.5C8.32842 10.5 8.99998 11.1716 9 12C9 12.8284 8.32843 13.5 7.5 13.5C6.67157 13.5 6 12.8284 6 12C6.00002 11.1716 6.67158 10.5 7.5 10.5ZM12 10.5C12.8284 10.5 13.5 11.1716 13.5 12C13.5 12.8284 12.8284 13.5 12 13.5C11.1716 13.5 10.5 12.8284 10.5 12C10.5 11.1716 11.1716 10.5 12 10.5ZM16.5 10.5C17.3284 10.5 18 11.1716 18 12C18 12.8284 17.3284 13.5 16.5 13.5C15.6716 13.5 15 12.8284 15 12C15 11.1716 15.6716 10.5 16.5 10.5Z"
    fill="currentColor"
  />
</svg>
