<svg width="16" height="16" viewBox="0 0 16 16" fill="none" xmlns="http://www.w3.org/2000/svg" data-fui-icon="true">
  <path
    fill-rule="evenodd"
    clip-rule="evenodd"
    d="M5.29672 6.40002C7.67115 6.40002 9.59738 8.32479 9.5975 10.6998C9.59749 13.075 7.67115 14.9996 5.29672 14.9996C4.76552 14.9995 4.25601 14.9005 3.785 14.7233C3.34402 14.8246 2.90496 14.9355 2.57992 15.024H2.57894C1.60522 15.2876 0.708688 14.3916 0.972499 13.4176V13.4166C1.06075 13.0928 1.17106 12.6534 1.2723 12.2115C1.09522 11.74 0.996916 11.2304 0.996913 10.6998C0.997033 8.32528 2.92242 6.40046 5.29672 6.40002ZM5.29672 8.40002C4.02675 8.40039 2.997 9.42997 2.99691 10.6998C2.99692 11.0568 3.07785 11.3926 3.22055 11.691C3.31618 11.8913 3.3437 12.1187 3.29672 12.3375C3.26295 12.4948 3.22312 12.6528 3.18637 12.8092C3.34289 12.7723 3.50148 12.7327 3.65902 12.6989C3.82316 12.6636 3.99256 12.6706 4.15121 12.7164L4.30648 12.776L4.53695 12.8707C4.77411 12.9539 5.0295 12.9996 5.29672 12.9996C6.56735 12.9996 7.59749 11.9697 7.5975 10.6998C7.59741 9.42997 6.56723 8.40002 5.29672 8.40002ZM9.79965 0.999634C12.6713 0.999806 14.9996 3.32822 14.9998 6.19983C14.9998 6.87164 14.8702 7.51585 14.6366 8.10803C14.7863 8.76877 14.9578 9.43144 15.0789 9.87073V9.8717C15.3477 10.8506 14.4445 11.7464 13.4705 11.4781C13.0305 11.3569 12.3698 11.1844 11.7108 11.0348C11.5697 11.0906 11.4249 11.1395 11.2782 11.1832C11.2909 11.0238 11.2996 10.8626 11.2996 10.6998C11.2996 10.1553 11.2256 9.6281 11.0897 9.12659L11.1795 9.08752L11.3348 9.02795C11.4934 8.98212 11.663 8.97518 11.827 9.01038C12.1715 9.08434 12.5225 9.16788 12.8524 9.24963C12.771 8.92001 12.686 8.57004 12.6121 8.2262C12.5652 8.00731 12.5934 7.77913 12.6893 7.57874C12.8632 7.21501 12.9708 6.81168 12.995 6.3844L12.9998 6.19983C12.9996 4.43279 11.5667 2.99981 9.79965 2.99963L9.63461 3.00354C8.39784 3.06646 7.34831 3.83321 6.87289 4.90979C6.37141 4.77387 5.84414 4.69983 5.29965 4.69983C5.13626 4.69983 4.97438 4.70752 4.8143 4.72034C5.45188 2.56958 7.44217 0.999743 9.79965 0.999634Z"
    fill="currentColor"
  />
</svg>
