<svg width="32" height="32" viewBox="0 0 32 32" fill="none" xmlns="http://www.w3.org/2000/svg" data-fui-icon="true">
  <path
    fill-rule="evenodd"
    clip-rule="evenodd"
    d="M9.69653 13.6C14.5013 13.6001 18.3967 17.4953 18.3967 22.3002C18.3966 27.1049 14.5013 31.0003 9.69653 31.0004C8.47834 31.0003 7.31741 30.746 6.26294 30.2924C5.08004 30.5548 3.87185 30.8674 3.00708 31.1029C1.7253 31.4516 0.544649 30.2662 0.89282 28.9877L1.09985 28.2142C1.29557 27.468 1.51207 26.5921 1.70337 25.7299C1.25069 24.6764 0.996362 23.5173 0.996336 22.3002C0.996349 17.4955 4.89187 13.6002 9.69653 13.6ZM9.69653 15.6C5.99644 15.6002 2.99635 18.6 2.99634 22.3002L3.00708 22.6859C3.05784 23.5794 3.2844 24.425 3.65063 25.1898C3.74754 25.3924 3.77533 25.6227 3.72778 25.8441C3.48584 26.9705 3.18858 28.1362 2.94555 29.0482C3.85698 28.8053 5.02331 28.5098 6.14966 28.2679C6.31564 28.2323 6.48725 28.2391 6.6477 28.2855L6.80493 28.3461L7.13696 28.4945C7.92453 28.8204 8.78892 29.0003 9.69653 29.0004L10.0413 28.9916C13.5812 28.812 16.3966 25.8847 16.3967 22.3002C16.3967 18.7156 13.5813 15.7883 10.0413 15.6088L9.69653 15.6ZM20.2004 1.00037C26.1649 1.00055 31.0001 5.83572 31.0002 11.8002C31.0002 13.344 30.6753 14.8147 30.0901 16.1449C30.3653 17.3928 30.6837 18.6674 30.9583 19.7025L31.2327 20.7191C31.5854 21.9993 30.4038 23.186 29.1204 22.8324C27.9926 22.5215 26.2462 22.0624 24.5481 21.6879C23.217 22.274 21.7455 22.5999 20.2004 22.6C20.1979 22.6 20.1952 22.599 20.1926 22.599C20.1954 22.4997 20.2004 22.4001 20.2004 22.3002C20.2004 21.7199 20.1504 21.1508 20.0598 20.5961C20.1066 20.5968 20.1535 20.6 20.2004 20.6C21.3926 20.5999 22.5279 20.3632 23.5627 19.9349L24.0002 19.7396L24.1575 19.6791C24.3179 19.6326 24.4895 19.6259 24.6555 19.6615C26.2785 20.01 27.9685 20.4482 29.177 20.7758C28.8494 19.5665 28.4114 17.8762 28.0627 16.2533C28.0152 16.0319 28.0438 15.8008 28.1409 15.598C28.6913 14.4494 29.0002 13.1619 29.0002 11.8002C29.0001 6.94027 25.0603 3.00053 20.2004 3.00037C15.3406 3.00058 11.4008 6.94027 11.4006 11.8002C11.4006 11.8468 11.4028 11.8934 11.4036 11.9398C10.8492 11.8494 10.2804 11.8002 9.70044 11.8002C9.60031 11.8002 9.50008 11.8042 9.40063 11.807C9.40063 11.8047 9.40063 11.8024 9.40063 11.8002C9.40076 5.83576 14.236 1.00058 20.2004 1.00037Z"
    fill="currentColor"
  />
</svg>
