<svg width="16" height="16" viewBox="0 0 16 16" fill="none" xmlns="http://www.w3.org/2000/svg" data-fui-icon="true">
  <path
    d="M8 0.5C12.1421 0.5 15.5 3.85786 15.5 8C15.5 12.1421 12.1421 15.5 8 15.5C6.96571 15.5 5.97883 15.2885 5.08008 14.9082C4.42166 15.0553 3.75501 15.2215 3.16992 15.374C1.63865 15.773 0.225374 14.36 0.625 12.8281C0.777758 12.2426 0.940542 11.5732 1.08789 10.9121C0.70975 10.0152 0.5 9.03094 0.5 8C0.5 3.85786 3.85786 0.5 8 0.5ZM5 7C4.44772 7 4 7.44772 4 8C4 8.55229 4.44772 9 5 9C5.55228 9 6 8.55229 6 8C6 7.44772 5.55228 7 5 7ZM8 7C7.44772 7 7 7.44772 7 8C7 8.55229 7.44772 9 8 9C8.55229 9 9 8.55229 9 8C9 7.44772 8.55229 7 8 7ZM11 7C10.4477 7 10 7.44772 10 8C10 8.55229 10.4477 9 11 9C11.5523 9 12 8.55229 12 8C12 7.44772 11.5523 7 11 7Z"
    fill="currentColor"
  />
</svg>
