<svg
  width="20"
  height="20"
  viewBox="0 0 20 20"
  fill="none"
  xmlns="http://www.w3.org/2000/svg"
  data-fui-icon="true"
>
  <path
    d="M2.29163 4.79167C2.29163 3.87119 3.03782 3.125 3.95829 3.125H16.0416C16.9621 3.125 17.7083 3.87119 17.7083 4.79167V13.5417C17.7083 14.4622 16.9621 15.2083 16.0416 15.2083H12.8132C12.6191 15.2083 12.431 15.2761 12.2816 15.3999L10.533 16.8486C10.2232 17.1052 9.77429 17.104 9.46604 16.8456L7.74514 15.403C7.59511 15.2773 7.40558 15.2083 7.20981 15.2083H3.95829C3.03782 15.2083 2.29163 14.4622 2.29163 13.5417V4.79167Z"
    stroke="currentColor"
    stroke-width="1.5"
    stroke-linejoin="round"
  />
  <path
    d="M6.25004 8.0625C5.64021 8.0625 5.14587 8.55691 5.14587 9.16667 5.14587 9.77643 5.64021 10.2708 6.25004 10.2708 6.85987 10.2708 7.35421 9.77643 7.35421 9.16667 7.35421 8.55691 6.85987 8.0625 6.25004 8.0625zM10 8.0625C9.39027 8.0625 8.89587 8.55689 8.89587 9.16667 8.89587 9.77644 9.39027 10.2708 10 10.2708 10.6098 10.2708 11.1042 9.77644 11.1042 9.16667 11.1042 8.55689 10.6098 8.0625 10 8.0625zM13.75 8.0625C13.1403 8.0625 12.6459 8.55689 12.6459 9.16667 12.6459 9.77644 13.1403 10.2708 13.75 10.2708 14.3598 10.2708 14.8542 9.77644 14.8542 9.16667 14.8542 8.55689 14.3598 8.0625 13.75 8.0625z"
    fill="currentColor"
  />
</svg>
