<svg width="16" height="16" viewBox="0 0 16 16" fill="none" xmlns="http://www.w3.org/2000/svg" data-fui-icon="true">
  <path
    d="M8 0.5C12.1421 0.5 15.5 3.85786 15.5 8C15.5 12.1421 12.1421 15.5 8 15.5C6.93424 15.5 5.92041 15.2739 5.00098 14.8721C4.25526 15.0369 3.49572 15.2263 2.8418 15.3975H2.84082C1.49368 15.7494 0.250025 14.5037 0.602539 13.1572C0.77365 12.504 0.961099 11.7428 1.12598 10.9951C0.725224 10.0765 0.5 9.06401 0.5 8C0.5 3.85786 3.85786 0.5 8 0.5ZM8 2C4.68629 2 2 4.68629 2 8C2 8.92854 2.21089 9.80601 2.58594 10.5889C2.65867 10.7409 2.67915 10.9134 2.64355 11.0791C2.46147 11.9269 2.24655 12.8019 2.05371 13.5381C1.99194 13.7754 2.22423 14.0075 2.46094 13.9463C3.19492 13.7541 4.06949 13.5367 4.91797 13.3545C5.04243 13.3278 5.17053 13.3332 5.29102 13.3682L5.40918 13.4131L5.70703 13.5459C6.41288 13.8382 7.18679 14 8 14C11.3137 14 14 11.3137 14 8C14 4.68629 11.3137 2 8 2ZM5 7C5.55228 7 6 7.44772 6 8C6 8.55228 5.55228 9 5 9C4.44772 9 4 8.55228 4 8C4 7.44772 4.44772 7 5 7ZM8 7C8.55228 7 9 7.44772 9 8C9 8.55228 8.55228 9 8 9C7.44772 9 7 8.55228 7 8C7 7.44772 7.44772 7 8 7ZM11 7C11.5523 7 12 7.44772 12 8C12 8.55228 11.5523 9 11 9C10.4477 9 10 8.55228 10 8C10 7.44772 10.4477 7 11 7Z"
    fill="currentColor"
  />
</svg>
