<svg
  width="16"
  height="16"
  viewBox="0 0 16 16"
  fill="none"
  xmlns="http://www.w3.org/2000/svg"
  data-fui-icon="true"
>
  <path
    d="M1.83334 3.83333C1.83334 3.09695 2.4303 2.5 3.16668 2.5H12.8333C13.5697 2.5 14.1667 3.09695 14.1667 3.83333V10.8333C14.1667 11.5697 13.5697 12.1667 12.8333 12.1667H10.2506C10.0953 12.1667 9.94488 12.2209 9.82534 12.3199L8.42648 13.4789C8.17861 13.6842 7.81948 13.6832 7.57288 13.4765L6.19616 12.3224C6.07613 12.2218 5.92451 12.1667 5.76789 12.1667H3.16668C2.4303 12.1667 1.83334 11.5697 1.83334 10.8333V3.83333Z"
    stroke="currentColor"
    stroke-width="1.5"
    stroke-linejoin="round"
  />
  <path
    d="M4.99999 6.47916C4.4707 6.47916 4.04166 6.90827 4.04166 7.4375 4.04166 7.96672 4.4707 8.39583 4.99999 8.39583 5.52928 8.39583 5.95832 7.96672 5.95832 7.4375 5.95832 6.90827 5.52928 6.47916 4.99999 6.47916zM7.99999 6.47916C7.47075 6.47916 7.04166 6.90826 7.04166 7.4375 7.04166 7.96674 7.47075 8.39583 7.99999 8.39583 8.52923 8.39583 8.95832 7.96674 8.95832 7.4375 8.95832 6.90826 8.52923 6.47916 7.99999 6.47916zM11 6.47916C10.4707 6.47916 10.0417 6.90826 10.0417 7.4375 10.0417 7.96674 10.4707 8.39583 11 8.39583 11.5292 8.39583 11.9583 7.96674 11.9583 7.4375 11.9583 6.90826 11.5292 6.47916 11 6.47916z"
    fill="currentColor"
  />
</svg>
