<svg width="16" height="16" viewBox="0 0 16 16" fill="none" xmlns="http://www.w3.org/2000/svg" data-fui-icon="true">
  <path
    d="M5.29688 6.40002C7.67131 6.40002 9.59754 8.32479 9.59766 10.6998C9.59764 13.075 7.67131 14.9996 5.29688 14.9996C4.76527 14.9995 4.25555 14.8998 3.78418 14.7223C3.15257 14.8672 2.52932 15.0361 2.2373 15.1188C1.40868 15.353 0.643625 14.588 0.87793 13.7594L1.08594 12.983C1.14729 12.7438 1.21137 12.4783 1.27246 12.2115C1.09539 11.7403 0.997073 11.2307 0.99707 10.6998C0.997191 8.32528 2.92258 6.40046 5.29688 6.40002ZM9.7998 0.999634C12.6715 0.999742 14.9998 3.32818 15 6.19983C15 6.87245 14.8699 7.51728 14.6357 8.10999C14.8338 8.98183 15.073 9.85438 15.1758 10.2155V10.2174C15.4125 11.056 14.6345 11.8076 13.8154 11.5748C13.4532 11.4718 12.5819 11.2319 11.7109 11.0338C11.5697 11.0898 11.4252 11.1394 11.2783 11.1832C11.291 11.0238 11.2998 10.8626 11.2998 10.6998C11.2997 7.3862 8.61346 4.69983 5.2998 4.69983C5.13642 4.69983 4.97454 4.70752 4.81445 4.72034C5.45197 2.56941 7.4422 0.999675 9.7998 0.999634Z"
    fill="currentColor"
  />
</svg>
