<svg width="24" height="24" viewBox="0 0 24 24" fill="none" xmlns="http://www.w3.org/2000/svg" data-fui-icon="true">
  <path
    d="M12.3096 0.00390625C13.2916 0.0288024 14.2436 0.173469 15.1531 0.42152C15.5754 0.536705 15.7337 1.03701 15.5402 1.42967C15.3819 1.75099 15.0175 1.93614 14.6711 1.84493C13.9856 1.66442 13.2729 1.55083 12.54 1.51367L12 1.5C6.2012 1.5002 1.50004 6.20116 1.5 12L1.50781 12.4043C1.5433 13.3425 1.70141 14.2484 1.9668 15.1064C2.3937 16.4864 2.74345 18.0988 2.29492 19.6836C2.11981 20.3023 1.93648 20.8913 1.75781 21.4277C1.69362 21.6209 1.74901 21.8602 1.94434 22.0557C2.13976 22.251 2.37912 22.3063 2.57227 22.2422C3.10741 22.064 3.69526 21.8802 4.3125 21.7051C5.89759 21.2553 7.51037 21.6052 8.89062 22.0322C9.87202 22.3359 10.9167 22.5 12 22.5L12.54 22.4863C18.0879 22.2051 22.5 17.6177 22.5 12C22.5 11.0771 22.3783 10.1828 22.1536 9.33036C22.0622 8.9832 22.2478 8.61793 22.5698 8.45917C22.9633 8.26518 23.4646 8.42369 23.5798 8.84697C23.8533 9.85171 24 10.9087 24 12L23.9961 12.3096C23.8345 18.6909 18.6908 23.8343 12.3096 23.9961L12 24C10.7647 24 9.57066 23.8134 8.44727 23.4658C7.11855 23.0548 5.86449 22.8242 4.72168 23.1484C4.12921 23.3166 3.56366 23.4939 3.04688 23.666C2.21253 23.9437 1.39859 23.631 0.883789 23.1162C0.369073 22.6013 0.0561794 21.7875 0.333984 20.9531C0.506391 20.4354 0.683421 19.8685 0.851562 19.2744C1.17493 18.1316 0.945068 16.878 0.53418 15.5498C0.230324 14.5674 0.0492856 13.5316 0.00878906 12.4609L0 12C3.73009e-05 5.37274 5.37277 0.000195433 12 0L12.3096 0.00390625ZM7 10.75C7.6903 10.7501 8.25 11.3097 8.25 12C8.25 12.6903 7.6903 13.2499 7 13.25C6.30964 13.25 5.75 12.6904 5.75 12C5.75 11.3096 6.30964 10.75 7 10.75ZM12 10.75C12.6903 10.7501 13.25 11.3097 13.25 12C13.25 12.6903 12.6903 13.2499 12 13.25C11.3098 13.2499 10.75 12.6903 10.75 12C10.75 11.3097 11.3098 10.7501 12 10.75ZM17.001 10.75C17.6911 10.7503 18.251 11.3098 18.251 12C18.251 12.6902 17.6911 13.2497 17.001 13.25C16.3106 13.25 15.751 12.6904 15.751 12C15.751 11.3096 16.3106 10.75 17.001 10.75ZM20.25 0C22.3211 0 24 1.67893 24 3.75C24 5.82107 22.3211 7.5 20.25 7.5C18.1789 7.5 16.5 5.82107 16.5 3.75C16.5 1.67893 18.1789 0 20.25 0ZM20.25 1.5C19.0074 1.5 18 2.50736 18 3.75C18 4.99264 19.0074 6 20.25 6C21.4926 6 22.5 4.99264 22.5 3.75C22.5 2.50736 21.4926 1.5 20.25 1.5Z"
    fill="currentColor"
  />
</svg>
