<svg width="24" height="24" viewBox="0 0 24 24" fill="none" xmlns="http://www.w3.org/2000/svg" data-fui-icon="true">
  <path
    d="M12 2V1H12L12 2ZM22 12H23V12L22 12ZM12 22L12 23H12V22ZM4.20605 21.8506L4.45808 22.8183L4.45818 22.8183L4.20605 21.8506ZM2.14941 19.793L3.11708 20.0452L3.11708 20.0452L2.14941 19.793ZM2 12L1 12V12H2ZM2.97893 16.3314L2.00123 16.1214L2.97893 16.3314ZM2.9773 16.3176L2.07554 16.7498L2.9773 16.3176ZM7.68044 21.0217L8.11297 20.1201L7.68044 21.0217ZM7.66667 21.0201L7.87666 21.9978L7.66667 21.0201ZM12 2V3C16.9703 3 20.9999 7.02941 21 12L22 12L23 12C22.9999 5.92485 18.0749 1 12 1V2ZM22 12H21C21 16.9707 16.9704 21 12 21V22V23C18.075 23 23 18.0753 23 12H22ZM12 22L12 21C10.6057 21 9.28825 20.6839 8.11297 20.1201L7.68044 21.0217L7.2479 21.9233C8.68767 22.614 10.3002 23 12 23L12 22ZM7.66667 21.0201L7.45668 20.0424C6.25208 20.3011 5.01251 20.6071 3.95393 20.8829L4.20605 21.8506L4.45818 22.8183C5.50005 22.5468 6.70973 22.2484 7.87666 21.9978L7.66667 21.0201ZM4.20605 21.8506L3.95403 20.8829C3.46356 21.0106 2.98902 20.5365 3.11708 20.0452L2.14941 19.793L1.18174 19.5407C0.668679 21.5092 2.48874 23.3312 4.45808 22.8183L4.20605 21.8506ZM2.14941 19.793L3.11708 20.0452C3.3933 18.9855 3.69795 17.7456 3.95663 16.5414L2.97893 16.3314L2.00123 16.1214C1.75038 17.2891 1.45313 18.4995 1.18174 19.5408L2.14941 19.793ZM2.9773 16.3176L3.87906 15.8854C3.31593 14.7105 3 13.3934 3 12H2H1C1 13.6989 1.3858 15.3108 2.07554 16.7498L2.9773 16.3176ZM2 12L3 12C3.00012 7.02946 7.0297 3.00006 12 3L12 2L12 1C5.92513 1.00007 1.00014 5.92487 1 12L2 12ZM2.97893 16.3314L3.95663 16.5414C4.00429 16.3195 3.97657 16.0888 3.87906 15.8854L2.9773 16.3176L2.07554 16.7498C1.98213 16.555 1.95557 16.334 2.00123 16.1214L2.97893 16.3314ZM7.68044 21.0217L8.11297 20.1201C7.90948 20.0225 7.67868 19.9947 7.45668 20.0424L7.66667 21.0201L7.87666 21.9978C7.66394 22.0435 7.44282 22.0169 7.2479 21.9233L7.68044 21.0217Z"
    fill="currentColor"
  />
</svg>
