<svg width="20" height="20" viewBox="0 0 20 20" fill="none" xmlns="http://www.w3.org/2000/svg" data-fui-icon="true">
  <path
    d="M10 0.5C15.2467 0.5 19.5 4.75329 19.5 10C19.5 15.2467 15.2467 19.5 10 19.5C8.62461 19.5 7.3181 19.2027 6.13672 18.6758C5.1285 18.8971 4.09805 19.1535 3.21973 19.3838C1.65401 19.7942 0.20475 18.345 0.615234 16.7793C0.845595 15.9013 1.09989 14.8695 1.32129 13.8604C0.79535 12.6796 0.5 11.3737 0.5 10C0.5 4.75329 4.75329 0.5 10 0.5ZM10 2C5.58172 2 2 5.58172 2 10C2 11.238 2.28076 12.4088 2.78125 13.4531C2.8543 13.6058 2.87551 13.7788 2.83984 13.9453C2.60147 15.0551 2.31804 16.2011 2.06641 17.1602C1.94713 17.6157 2.38322 18.0519 2.83887 17.9326C3.79704 17.6814 4.94257 17.3966 6.05273 17.1582L6.17871 17.1426C6.26289 17.1387 6.34703 17.1484 6.42773 17.1719L6.5459 17.2168L6.94336 17.3945C7.88458 17.7843 8.91634 18 10 18C14.4183 18 18 14.4183 18 10C18 5.58172 14.4183 2 10 2ZM6 8.75C6.69036 8.75 7.25 9.30964 7.25 10C7.25 10.6904 6.69036 11.25 6 11.25C5.30964 11.25 4.75 10.6904 4.75 10C4.75 9.30964 5.30964 8.75 6 8.75ZM10 8.75C10.6904 8.75 11.25 9.30964 11.25 10C11.25 10.6904 10.6904 11.25 10 11.25C9.30976 11.2499 8.75 10.6903 8.75 10C8.75 9.30973 9.30976 8.75013 10 8.75ZM14 8.75C14.6904 8.75 15.25 9.30964 15.25 10C15.25 10.6904 14.6904 11.25 14 11.25C13.3096 11.25 12.75 10.6904 12.75 10C12.75 9.30964 13.3096 8.75 14 8.75Z"
    fill="currentColor"
  />
</svg>
