<svg width="12" height="12" viewBox="0 0 12 12" fill="none" xmlns="http://www.w3.org/2000/svg" data-fui-icon="true">
  <path
    d="M9.62598 1.125C10.5924 1.125 11.376 1.90848 11.376 2.875V6.125C11.376 7.09154 10.5924 7.875 9.62598 7.875H9.37598V8.125C9.37598 9.09154 8.59242 9.875 7.62598 9.875H5.44434L3.36523 11.0303C3.13306 11.1593 2.85006 11.156 2.62109 11.0215C2.39206 10.8867 2.25098 10.6407 2.25098 10.375V9.86816C1.3429 9.80399 0.625977 9.04943 0.625977 8.125V4.875C0.625977 3.9085 1.40948 3.125 2.37598 3.125H2.75098V2.875C2.75098 1.9085 3.53448 1.125 4.50098 1.125H9.62598ZM2.37598 4.625C2.23791 4.625 2.12598 4.73693 2.12598 4.875V8.125C2.12598 8.26308 2.2379 8.375 2.37598 8.375H3.00098C3.407 8.375 3.73611 8.6977 3.74902 9.10059L4.88672 8.46973L4.97266 8.42871C5.06093 8.39342 5.15533 8.375 5.25098 8.375H7.62598C7.76404 8.375 7.87598 8.26306 7.87598 8.125V7.14355C7.87583 7.13738 7.875 7.13121 7.875 7.125C7.875 7.11781 7.87578 7.11066 7.87598 7.10352V4.875C7.87598 4.73695 7.76403 4.625 7.62598 4.625H2.37598ZM4.50098 2.625C4.36291 2.625 4.25098 2.73693 4.25098 2.875V3.125H7.62598C8.59242 3.125 9.37598 3.90848 9.37598 4.875V6.375H9.62598C9.76404 6.375 9.87598 6.26306 9.87598 6.125V2.875C9.87598 2.73695 9.76403 2.625 9.62598 2.625H4.50098Z"
    fill="currentColor"
  />
</svg>
