<svg width="24" height="24" viewBox="0 0 24 24" fill="none" xmlns="http://www.w3.org/2000/svg" data-fui-icon="true">
  <path
    fill-rule="evenodd"
    clip-rule="evenodd"
    d="M11.999 0.5C18.3501 0.5 23.4989 5.64873 23.499 12C23.499 18.3513 18.3503 23.501 11.999 23.501C10.3444 23.5009 8.77003 23.1492 7.34668 22.5186C6.16499 22.7786 4.9591 23.077 3.92578 23.3477C1.95671 23.863 0.134418 22.0407 0.650391 20.0713C0.921255 19.0374 1.2203 17.832 1.48047 16.6504C0.850525 15.2272 0.5 13.6534 0.5 12C0.500147 5.64891 5.64801 0.500156 11.999 0.5ZM11.999 2.5C6.75276 2.50014 2.50013 6.75326 2.5 12C2.5 13.4708 2.83322 14.8613 3.42773 16.1016C3.52509 16.3048 3.55337 16.5352 3.50586 16.7568C3.22251 18.076 2.88532 19.4364 2.58594 20.5791C2.45799 21.0685 2.93016 21.5404 3.41992 21.4121C4.56284 21.1128 5.92259 20.7763 7.24121 20.4932L7.4082 20.4717C7.52039 20.4665 7.63268 20.4795 7.74023 20.5107L7.89746 20.5713L8.36914 20.7822C9.4867 21.245 10.7121 21.5009 11.999 21.501C17.2455 21.501 21.499 17.2469 21.499 12C21.4989 6.75326 17.2455 2.5 11.999 2.5ZM7.5 10.5C8.32842 10.5 8.99998 11.1716 9 12C9 12.8284 8.32843 13.5 7.5 13.5C6.67157 13.5 6 12.8284 6 12C6.00002 11.1716 6.67158 10.5 7.5 10.5ZM12 10.5C12.8284 10.5 13.5 11.1716 13.5 12C13.5 12.8284 12.8284 13.5 12 13.5C11.1716 13.5 10.5 12.8284 10.5 12C10.5 11.1716 11.1716 10.5 12 10.5ZM16.5 10.5C17.3284 10.5 18 11.1716 18 12C18 12.8284 17.3284 13.5 16.5 13.5C15.6716 13.5 15 12.8284 15 12C15 11.1716 15.6716 10.5 16.5 10.5Z"
    fill="currentColor"
  />
</svg>
