<svg width="32" height="32" viewBox="0 0 32 32" fill="none" xmlns="http://www.w3.org/2000/svg" data-fui-icon="true">
  <path
    fill-rule="evenodd"
    clip-rule="evenodd"
    d="M16.0789 1.75293C23.9043 1.75315 30.2477 8.09625 30.2479 15.9209C30.2479 23.7457 23.9044 30.0896 16.0789 30.0898C13.8861 30.0898 11.8095 29.5909 9.95635 28.7017C9.95035 28.6988 9.94358 28.698 9.93707 28.6994C7.78595 29.1614 5.54514 29.7345 3.84749 30.1904C2.62003 30.5201 1.47573 29.3758 1.8055 28.1484C2.26191 26.4504 2.83428 24.2084 3.29651 22.0569C3.29791 22.0504 3.2971 22.0436 3.29422 22.0376C2.40655 20.186 1.90901 18.1115 1.90901 15.9209C1.90916 8.09611 8.25338 1.75293 16.0789 1.75293Z"
    fill="currentColor"
  />
  <path
    d="M16.0789 1.75293L16.079 1.00293H16.0789V1.75293ZM30.2479 15.9209H30.9979V15.9209L30.2479 15.9209ZM16.0789 30.0898V30.8398H16.079L16.0789 30.0898ZM3.84749 30.1904L4.04204 30.9148L4.04204 30.9148L3.84749 30.1904ZM1.8055 28.1484L1.0812 27.9538L1.08118 27.9538L1.8055 28.1484ZM1.90901 15.9209L1.15901 15.9209V15.9209H1.90901ZM3.29422 22.0376L2.61792 22.3618L3.29422 22.0376ZM9.95635 28.7017L9.63191 29.3779L9.95635 28.7017ZM9.93707 28.6994L9.7796 27.9661L9.93707 28.6994ZM16.0789 1.75293L16.0789 2.50293C23.4901 2.50314 29.4977 8.51051 29.4979 15.9209L30.2479 15.9209L30.9979 15.9209C30.9977 7.68198 24.3185 1.00316 16.079 1.00293L16.0789 1.75293ZM30.2479 15.9209H29.4979C29.4979 23.3315 23.4902 29.3396 16.0789 29.3398L16.0789 30.0898L16.079 30.8398C24.3186 30.8396 30.9979 24.1599 30.9979 15.9209H30.2479ZM16.0789 30.0898V29.3398C14.001 29.3398 12.035 28.8672 10.2808 28.0255L9.95635 28.7017L9.63191 29.3779C11.584 30.3145 13.7712 30.8398 16.0789 30.8398V30.0898ZM9.93707 28.6994L9.7796 27.9661C7.61093 28.4319 5.3565 29.0085 3.65294 29.4661L3.84749 30.1904L4.04204 30.9148C5.73379 30.4604 7.96097 29.8909 10.0946 29.4327L9.93707 28.6994ZM3.84749 30.1904L3.65294 29.4661C2.9834 29.6459 2.34998 29.0124 2.52981 28.343L1.8055 28.1484L1.08118 27.9538C0.601476 29.7393 2.25666 31.3943 4.04204 30.9148L3.84749 30.1904ZM1.8055 28.1484L2.52979 28.3431C2.98789 26.6388 3.56382 24.3833 4.02978 22.2144L3.29651 22.0569L2.56324 21.8994C2.10474 24.0336 1.53593 26.262 1.0812 27.9538L1.8055 28.1484ZM3.29422 22.0376L3.97053 21.7134C3.13029 19.9607 2.65901 17.9968 2.65901 15.9209H1.90901H1.15901C1.15901 18.2261 1.68281 20.4112 2.61792 22.3618L3.29422 22.0376ZM1.90901 15.9209L2.65901 15.9209C2.65915 8.51042 8.6675 2.50293 16.0789 2.50293V1.75293V1.00293C7.83927 1.00293 1.15917 7.6818 1.15901 15.9209L1.90901 15.9209ZM3.29651 22.0569L4.02978 22.2144C4.0662 22.0449 4.04498 21.8687 3.97053 21.7134L3.29422 22.0376L2.61792 22.3618C2.54922 22.2185 2.52961 22.0559 2.56324 21.8994L3.29651 22.0569ZM9.95635 28.7017L10.2808 28.0255C10.1254 27.951 9.94919 27.9297 9.7796 27.9661L9.93707 28.6994L10.0946 29.4327C9.93797 29.4663 9.77526 29.4467 9.63191 29.3779L9.95635 28.7017Z"
    fill="currentColor"
  />
</svg>
