<svg width="20" height="20" viewBox="0 0 20 20" fill="none" xmlns="http://www.w3.org/2000/svg" data-fui-icon="true">
  <path
    d="M6.39844 8.19995C9.38071 8.2003 11.7978 10.6185 11.7979 13.6003C11.7976 16.5822 9.38039 18.9994 6.39844 18.9998C5.69343 18.9998 5.01823 18.8622 4.39844 18.615C3.77378 18.7564 3.14638 18.919 2.68848 19.0437H2.6875C1.63716 19.3287 0.668418 18.3605 0.954102 17.3093L1.19824 16.3718C1.2606 16.1215 1.32349 15.8587 1.38281 15.5964C1.13638 14.9783 0.998104 14.305 0.998047 13.6003C0.998061 10.618 3.41611 8.19995 6.39844 8.19995ZM12.4004 0.999756C16.0451 0.999919 18.9996 3.95477 19 7.59937C19 8.49086 18.8225 9.34437 18.5 10.1238C18.5914 10.5311 18.6894 10.941 18.7861 11.324L19.1182 12.5828C19.408 13.6356 18.4367 14.607 17.3838 14.3171L16.124 13.9841C15.7416 13.8874 15.3324 13.7893 14.9258 13.698C14.5918 13.8365 14.2435 13.9463 13.8848 14.0291C13.8928 13.8871 13.8984 13.7443 13.8984 13.6003C13.8984 9.45825 10.5405 6.10039 6.39844 6.10034C6.2549 6.10035 6.11225 6.10508 5.9707 6.11304C6.64549 3.18425 9.26698 0.999756 12.4004 0.999756Z"
    fill="currentColor"
  />
</svg>
