<svg width="32" height="32" viewBox="0 0 32 32" fill="none" xmlns="http://www.w3.org/2000/svg" data-fui-icon="true">
  <path
    fill-rule="evenodd"
    clip-rule="evenodd"
    d="M16.0735 1C24.3174 1.00038 31.0012 7.68374 31.0012 15.9277C31.0011 24.1716 24.3173 30.8551 16.0735 30.8555C13.8866 30.8554 11.8067 30.3838 9.93286 29.5371C8.47912 29.8553 6.99446 30.2189 5.68579 30.5576L4.35864 30.9072C2.38717 31.4358 0.563307 29.6104 1.09204 27.6396C1.51388 26.0681 2.02892 24.0363 2.46118 22.0615C1.61623 20.1892 1.14579 18.1122 1.14575 15.9277C1.14575 7.68354 7.82935 1.00009 16.0735 1ZM9.50024 14C8.39576 14.0001 7.50024 14.8955 7.50024 16C7.50024 17.1045 8.39576 17.9999 9.50024 18C10.6048 18 11.5002 17.1046 11.5002 16C11.5002 14.8954 10.6048 14 9.50024 14ZM16.0002 14C14.8957 14 14.0002 14.8954 14.0002 16C14.0002 17.1045 14.8957 18 16.0002 18C17.1048 18 18.0002 17.1046 18.0002 16C18.0002 14.8954 17.1048 14 16.0002 14ZM22.5002 14C21.3957 14 20.5002 14.8954 20.5002 16C20.5002 17.1045 21.3957 18 22.5002 18C23.6048 17.9999 24.5002 17.1045 24.5002 16C24.5002 14.8955 23.6048 14.0001 22.5002 14Z"
    fill="currentColor"
  />
</svg>
