<svg width="12" height="12" viewBox="0 0 12 12" fill="none" xmlns="http://www.w3.org/2000/svg" data-fui-icon="true">
  <path
    d="M3.9707 4.79993C5.75126 4.8001 7.19596 6.24359 7.19629 8.02454C7.19629 9.80555 5.75167 11.2499 3.9707 11.2501C3.57024 11.2501 3.18958 11.1733 2.83984 11.0411C2.39448 11.1433 1.95347 11.2613 1.71875 11.3273L1.7168 11.3282C1.07059 11.5082 0.491151 10.9086 0.668945 10.2765C0.73485 10.0422 0.850848 9.59876 0.953125 9.15149C0.821863 8.80214 0.746094 8.42291 0.746094 8.02454C0.746426 6.24388 2.18991 4.80014 3.9707 4.79993ZM3.9707 6.29993C3.01837 6.30009 2.24635 7.07211 2.24609 8.02454C2.24609 8.28673 2.30718 8.53596 2.41504 8.76282C2.48617 8.91245 2.50667 9.08265 2.47168 9.24622C2.44614 9.36544 2.41752 9.48591 2.38965 9.60461C2.5085 9.57664 2.62961 9.54914 2.74902 9.52356C2.91259 9.48861 3.08283 9.50905 3.23242 9.5802C3.46016 9.68857 3.70936 9.75008 3.9707 9.75012C4.92325 9.74995 5.69629 8.97712 5.69629 8.02454C5.69603 7.07239 4.9233 6.3001 3.9707 6.29993ZM7.34961 0.750122C9.50328 0.750393 11.25 2.49678 11.25 4.65051C11.2499 5.15512 11.1499 5.63455 10.9766 6.07336C11.0387 6.34799 11.1047 6.62348 11.168 6.87024L11.3691 7.61829C11.5504 8.25976 10.9578 8.8484 10.3193 8.66907H10.3184C10.0254 8.58623 9.40014 8.41674 8.77637 8.27551C8.67302 8.31638 8.56652 8.35154 8.45898 8.38391C8.46834 8.26544 8.47559 8.14541 8.47559 8.02454C8.47555 7.61482 8.41903 7.21816 8.31641 6.84094L8.37988 6.81555L8.49512 6.77161C8.5741 6.74885 8.65681 6.73856 8.73926 6.74231L8.86328 6.75891C9.12408 6.81481 9.39051 6.87777 9.64062 6.93958C9.57877 6.6889 9.51399 6.42252 9.45801 6.16125C9.42298 5.99766 9.44346 5.82757 9.51465 5.67786C9.6458 5.40218 9.72778 5.10187 9.74609 4.78625L9.75 4.65051C9.74999 3.3252 8.67486 2.25039 7.34961 2.25012L7.10449 2.26282C6.23038 2.35163 5.49623 2.91028 5.15527 3.68176C4.77939 3.57988 4.3837 3.52461 3.97559 3.52454C3.85287 3.52454 3.73058 3.53052 3.61035 3.54016C4.08841 1.92726 5.58141 0.75025 7.34961 0.750122Z"
    fill="currentColor"
  />
</svg>
