<svg width="13" height="13" viewBox="0 0 13 13" fill="none" xmlns="http://www.w3.org/2000/svg" data-fui-icon="true">
  <path
    d="M0.254633 0.237728C0.525129 -0.0325251 0.939041 -0.0721254 1.25147 0.119045C1.26963 0.130157 1.28603 0.143879 1.30108 0.158933L12.6968 11.5557C12.7209 11.5798 12.7465 11.6017 12.7729 11.6219C12.795 11.6388 12.816 11.657 12.8329 11.679C13.0765 11.9971 13.0531 12.4543 12.7623 12.7454C12.4455 13.0621 11.9317 13.062 11.6148 12.7454L10.689 11.8195C10.5733 11.7038 10.39 11.6931 10.2565 11.7878C9.19748 12.5393 7.90478 12.9831 6.5074 12.9831C5.90384 12.983 5.31804 12.9004 4.76195 12.7454C4.12899 12.5688 3.6345 12.488 3.20562 12.5943C2.80308 12.6942 2.41178 12.8106 2.05925 12.925C1.43383 13.1276 0.839931 12.8858 0.476512 12.5224C0.113142 12.159 -0.128847 11.5652 0.0739597 10.9397L0.245124 10.385C0.300695 10.1928 0.353789 9.99379 0.403609 9.79226C0.509621 9.36321 0.429812 8.86964 0.253576 8.237C0.0986269 7.68079 0.0158485 7.09502 0.0158485 6.49155C0.0158485 5.0941 0.458655 3.80055 1.2101 2.7414C1.3048 2.60791 1.29409 2.42462 1.17836 2.30888L0.254633 1.38516C-0.0621834 1.06828 -0.0621834 0.554602 0.254633 0.237728ZM2.81127 3.9418C2.66933 3.79985 2.43316 3.81927 2.32987 3.99139C1.89135 4.72219 1.63874 5.57731 1.63874 6.49155C1.63874 6.94634 1.70146 7.38587 1.8173 7.80169C2.00037 8.45893 2.19421 9.31138 1.97895 10.1821C1.93106 10.3759 1.87997 10.5661 1.8274 10.7505C1.75509 11.0041 1.99377 11.2428 2.2474 11.1705C2.43149 11.118 2.62139 11.0669 2.81469 11.0189C3.68619 10.8028 4.53963 10.9982 5.19725 11.1816C5.61308 11.2976 6.05258 11.3602 6.5074 11.3602C7.42154 11.3602 8.27591 11.1067 9.00648 10.6681C9.17859 10.5647 9.19802 10.3285 9.05606 10.1866L2.81127 3.9418ZM6.5074 0C10.0926 0 12.9989 2.90636 12.9989 6.49155C12.9989 7.22758 12.8756 7.93447 12.6493 8.59365C12.5748 8.81088 12.3003 8.86435 12.1379 8.70196L11.3359 7.89992C11.2536 7.81761 11.2224 7.69771 11.2488 7.58434C11.3306 7.23308 11.3761 6.86774 11.3761 6.49155C11.3761 3.80266 9.19628 1.62289 6.5074 1.62289C6.13103 1.62293 5.7652 1.66768 5.41356 1.74919C5.30017 1.77548 5.18031 1.74431 5.09804 1.66198L4.29672 0.859993C4.13443 0.697563 4.18797 0.423193 4.40518 0.348749C5.06442 0.122811 5.77153 7.44764e-05 6.5074 0Z"
    fill="currentColor"
  />
</svg>
