<svg width="24" height="24" viewBox="0 0 24 24" fill="none" xmlns="http://www.w3.org/2000/svg" data-fui-icon="true">
  <path
    d="M12.001 1C18.076 1.00022 23.0008 5.92497 23.001 12C23.001 18.0752 18.076 22.9998 12.001 23C10.3909 23 8.86021 22.653 7.48047 22.0303C6.32677 22.283 5.14665 22.5752 4.12988 22.8408C2.34531 23.3068 0.69313 21.653 1.15918 19.8691C1.42463 18.8534 1.71515 17.6728 1.96777 16.5186C1.34572 15.1392 1 13.6088 1 12C1.00014 5.92478 5.92587 1 12.001 1ZM12.001 2.5C6.75415 2.5 2.50013 6.75334 2.5 12C2.5 13.4703 2.83312 14.8611 3.42773 16.1016C3.50139 16.2552 3.52233 16.4301 3.48633 16.5977C3.21649 17.8537 2.89759 19.149 2.61035 20.248C2.43384 20.9235 3.07619 21.5659 3.75098 21.3896C4.84914 21.1028 6.14444 20.7817 7.40137 20.5117L7.52832 20.4951C7.61281 20.4912 7.69731 20.501 7.77832 20.5244L7.89746 20.5703L8.37012 20.7812C9.48806 21.2441 10.7139 21.5 12.001 21.5L12.4902 21.4873C17.5095 21.2325 21.501 17.0826 21.501 12C21.5008 6.91751 17.5095 2.76752 12.4902 2.5127L12.001 2.5ZM7.5 10.75C8.19035 10.75 8.74998 11.3097 8.75 12C8.74998 12.6903 8.19034 13.25 7.5 13.25C6.80966 13.25 6.25002 12.6903 6.25 12C6.25002 11.3097 6.80965 10.75 7.5 10.75ZM12 10.75C12.6903 10.75 13.25 11.3097 13.25 12C13.25 12.6903 12.6903 13.25 12 13.25C11.3097 13.25 10.75 12.6903 10.75 12C10.75 11.3097 11.3097 10.75 12 10.75ZM16.5 10.75C17.1903 10.75 17.75 11.3097 17.75 12C17.75 12.6903 17.1903 13.25 16.5 13.25C15.8097 13.25 15.25 12.6903 15.25 12C15.25 11.3097 15.8097 10.75 16.5 10.75Z"
    fill="currentColor"
  />
</svg>
