<svg width="32" height="32" viewBox="0 0 32 32" fill="none" xmlns="http://www.w3.org/2000/svg" data-fui-icon="true">
  <path
    fill-rule="evenodd"
    clip-rule="evenodd"
    d="M16.0794 1.75293C23.9048 1.75315 30.2482 8.09625 30.2484 15.9209C30.2484 23.7457 23.9049 30.0896 16.0794 30.0898C13.8866 30.0898 11.81 29.5909 9.95684 28.7017C9.95084 28.6988 9.94407 28.698 9.93756 28.6994C7.78644 29.1614 5.54563 29.7345 3.84798 30.1904C2.62052 30.5201 1.47622 29.3758 1.80598 28.1484C2.2624 26.4504 2.83477 24.2084 3.297 22.0569C3.29839 22.0504 3.29759 22.0436 3.29471 22.0376C2.40704 20.186 1.9095 18.1115 1.9095 15.9209C1.90965 8.09611 8.25387 1.75293 16.0794 1.75293Z"
    fill="currentColor"
  />
  <path
    d="M16.0794 1.75293L16.0794 1.00293H16.0794V1.75293ZM30.2484 15.9209H30.9984V15.9209L30.2484 15.9209ZM16.0794 30.0898V30.8398H16.0794L16.0794 30.0898ZM3.84798 30.1904L4.04252 30.9148L4.04253 30.9148L3.84798 30.1904ZM1.80598 28.1484L1.08169 27.9538L1.08167 27.9538L1.80598 28.1484ZM1.9095 15.9209L1.1595 15.9209V15.9209H1.9095ZM3.29471 22.0376L2.61841 22.3618L3.29471 22.0376ZM9.95684 28.7017L9.6324 29.3779L9.95684 28.7017ZM9.93756 28.6994L9.78008 27.9661L9.93756 28.6994ZM16.0794 1.75293L16.0794 2.50293C23.4906 2.50314 29.4982 8.51051 29.4984 15.9209L30.2484 15.9209L30.9984 15.9209C30.9982 7.68198 24.319 1.00316 16.0794 1.00293L16.0794 1.75293ZM30.2484 15.9209H29.4984C29.4984 23.3315 23.4907 29.3396 16.0794 29.3398L16.0794 30.0898L16.0794 30.8398C24.3191 30.8396 30.9984 24.1599 30.9984 15.9209H30.2484ZM16.0794 30.0898V29.3398C14.0015 29.3398 12.0355 28.8672 10.2813 28.0255L9.95684 28.7017L9.6324 29.3779C11.5844 30.3145 13.7717 30.8398 16.0794 30.8398V30.0898ZM9.93756 28.6994L9.78008 27.9661C7.61142 28.4319 5.35699 29.0085 3.65343 29.4661L3.84798 30.1904L4.04253 30.9148C5.73428 30.4604 7.96146 29.8909 10.095 29.4327L9.93756 28.6994ZM3.84798 30.1904L3.65343 29.4661C2.98389 29.6459 2.35047 29.0124 2.5303 28.343L1.80598 28.1484L1.08167 27.9538C0.601965 29.7393 2.25714 31.3943 4.04252 30.9148L3.84798 30.1904ZM1.80598 28.1484L2.53028 28.3431C2.98838 26.6388 3.56431 24.3833 4.03027 22.2144L3.297 22.0569L2.56373 21.8994C2.10523 24.0336 1.53642 26.262 1.08169 27.9538L1.80598 28.1484ZM3.29471 22.0376L3.97101 21.7134C3.13078 19.9607 2.6595 17.9968 2.6595 15.9209H1.9095H1.1595C1.1595 18.2261 1.6833 20.4112 2.61841 22.3618L3.29471 22.0376ZM1.9095 15.9209L2.6595 15.9209C2.65964 8.51042 8.66799 2.50293 16.0794 2.50293V1.75293V1.00293C7.83975 1.00293 1.15965 7.6818 1.1595 15.9209L1.9095 15.9209ZM3.297 22.0569L4.03027 22.2144C4.06669 22.0449 4.04547 21.8687 3.97101 21.7134L3.29471 22.0376L2.61841 22.3618C2.54971 22.2185 2.5301 22.0559 2.56373 21.8994L3.297 22.0569ZM9.95684 28.7017L10.2813 28.0255C10.1259 27.951 9.94968 27.9297 9.78008 27.9661L9.93756 28.6994L10.095 29.4327C9.93846 29.4663 9.77575 29.4467 9.6324 29.3779L9.95684 28.7017Z"
    fill="currentColor"
  />
</svg>
