<svg width="20" height="20" viewBox="0 0 20 20" fill="none" xmlns="http://www.w3.org/2000/svg" data-fui-icon="true">
  <path
    d="M0.219727 0.219727C0.471502 -0.031992 0.857225 -0.0665663 1.14669 0.114545C1.1683 0.128065 1.18682 0.145796 1.20416 0.16448C1.20925 0.169967 1.21444 0.175379 1.21973 0.180664L19.7197 18.6807C19.7421 18.703 19.7657 18.7232 19.7902 18.7419C19.8105 18.7575 19.8299 18.7743 19.8455 18.7946C20.071 19.0886 20.0494 19.5111 19.7803 19.7803C19.4874 20.0731 19.0126 20.0731 18.7197 19.7803L16.7164 17.7769C16.6054 17.6659 16.4278 17.6597 16.3061 17.7588C14.5854 19.1591 12.3912 19.9999 10 20C9.01541 20 8.0629 19.8563 7.16309 19.5898C6.04871 19.2598 5.02098 19.0871 4.09668 19.3545C3.55522 19.5113 3.04075 19.6747 2.57617 19.832C1.82831 20.0852 1.10139 19.8074 0.645508 19.3516C0.189652 18.8956 -0.0881052 18.1687 0.165039 17.4209C0.322857 16.9549 0.486641 16.4384 0.643555 15.8945C0.909808 14.9709 0.737104 13.945 0.408203 12.832C0.175937 12.046 0.0378127 11.2197 0.00683594 10.3672L0 10C9.99867e-05 7.60877 0.84087 5.41455 2.24122 3.69394C2.34033 3.57217 2.33408 3.39463 2.22306 3.2836L0.219727 1.28027C-0.0730853 0.987396 -0.0730853 0.512604 0.219727 0.219727ZM10 0C15.5225 0.000258803 19.9998 4.47751 20 10L19.9873 10.5146C19.9049 12.1391 19.4327 13.6598 18.6649 14.9886C18.5685 15.1553 18.341 15.1808 18.2048 15.0446L4.95539 1.79523C4.8192 1.65904 4.84473 1.43147 5.01151 1.33513C6.47976 0.487037 8.18258 9.21589e-05 10 0Z"
    fill="currentColor"
  />
</svg>
