<svg width="32" height="32" viewBox="0 0 32 32" fill="none" xmlns="http://www.w3.org/2000/svg" data-fui-icon="true">
  <path
    d="M16 1C17.7483 1.00006 19.427 1.29958 20.9873 1.84961C21.4969 2.02925 21.6192 2.67452 21.2373 3.05664C21.0221 3.27187 20.7008 3.33869 20.4131 3.23926C19.0302 2.76101 17.5454 2.50005 16 2.5C8.54454 2.50028 2.50026 8.54456 2.5 16L2.50781 16.4717C2.54547 17.567 2.71385 18.6289 2.99707 19.6416C3.52203 21.5184 3.93693 23.6528 3.32129 25.7168C3.07347 26.5473 2.81944 27.3326 2.57617 28.0449C2.45223 28.4078 2.56646 28.8181 2.87402 29.126C3.18172 29.4336 3.5914 29.5475 3.9541 29.4238C4.66607 29.1807 5.45096 28.926 6.28125 28.6777C8.34534 28.0608 10.4804 28.4762 12.3574 29.002C13.5151 29.3262 14.7371 29.5 16 29.5C23.4554 29.4997 29.4997 23.4555 29.5 16C29.4999 14.4678 29.243 12.9957 28.7725 11.623C28.674 11.3359 28.7405 11.0155 28.9551 10.8008C29.3377 10.4182 29.9843 10.5412 30.1631 11.0518C30.7046 12.6009 30.9999 14.2661 31 16L30.9951 16.3867C30.7898 24.4919 24.1546 30.9997 16 31C14.5988 31 13.2409 30.8069 11.9531 30.4463C10.118 29.9323 8.34029 29.6283 6.71094 30.1152C5.90151 30.3572 5.13481 30.6059 4.43848 30.8438C3.43482 31.1862 2.44565 30.8179 1.81348 30.1855C1.18154 29.5531 0.81368 28.5639 1.15625 27.5605C1.39401 26.8643 1.64219 26.0977 1.88379 25.2881C2.36992 23.6584 2.06606 21.8812 1.55273 20.0459C1.23764 18.9192 1.0506 17.7391 1.00879 16.5234L0.999023 16C0.999281 7.71611 7.71614 1.00028 16 1ZM24.2529 2.16406C25.8019 0.615186 28.3143 0.615106 29.8633 2.16406C31.4119 3.71305 31.4111 6.22455 29.8623 7.77344L22.3457 15.29C21.7438 15.8918 20.9553 16.2711 20.1094 16.3652L17.0312 16.707C16.0441 16.8167 15.2097 15.9823 15.3193 14.9951L15.6611 11.917C15.7553 11.0712 16.1346 10.2825 16.7363 9.68066L24.2529 2.16406ZM17.7969 10.7412C17.4358 11.1024 17.2087 11.5763 17.1523 12.084L16.8105 15.1611C16.8072 15.1928 16.8336 15.2201 16.8652 15.2168L19.9424 14.874C20.45 14.8176 20.9239 14.5906 21.2852 14.2295L26.5654 8.94922L23.0771 5.46094L17.7969 10.7412ZM28.8018 3.22461C27.8386 2.2618 26.2766 2.26164 25.3135 3.22461L24.1387 4.40039L27.626 7.8877L28.8018 6.71289C29.7648 5.74975 29.7647 4.1878 28.8018 3.22461Z"
    fill="currentColor"
  />
</svg>
