<svg width="32" height="32" viewBox="0 0 32 32" fill="none" xmlns="http://www.w3.org/2000/svg" data-fui-icon="true">
  <path
    fill-rule="evenodd"
    clip-rule="evenodd"
    d="M16.08 1.00293C24.3197 1.00314 30.9989 7.68351 30.9989 15.9238C30.9988 24.1641 24.3197 30.8445 16.08 30.8447C13.8627 30.8447 11.7567 30.3593 9.86316 29.4902C7.80116 29.9393 5.6728 30.4821 4.04285 30.9199C2.25768 31.3993 0.602426 29.7443 1.08191 27.959C1.52019 26.3281 2.06226 24.1979 2.5116 22.1348C1.6443 20.2428 1.16006 18.139 1.16004 15.9238C1.16004 7.68334 7.84006 1.00293 16.08 1.00293ZM16.08 2.50293C8.66858 2.50293 2.66004 8.51168 2.66004 15.9238L2.6659 16.3115C2.72073 18.2447 3.18376 20.0742 3.97156 21.7178C4.04585 21.873 4.06751 22.0494 4.03113 22.2188C3.56521 24.3878 2.98918 26.6432 2.53113 28.3477C2.35127 29.017 2.98459 29.6506 3.65418 29.4707C5.35788 29.013 7.61202 28.4374 9.78015 27.9717C9.9074 27.9443 10.0389 27.9496 10.162 27.9854L10.2821 28.0312L10.6132 28.1846C12.282 28.9299 14.1318 29.3447 16.08 29.3447L16.4266 29.3408C23.6775 29.1567 29.4988 23.2199 29.4989 15.9238C29.4989 8.62768 23.6776 2.69092 16.4266 2.50684L16.08 2.50293ZM9.49988 14.5C10.328 14.5002 10.9997 15.1719 10.9999 16C10.9999 16.8283 10.3281 17.4998 9.49988 17.5C8.67145 17.5 7.99988 16.8284 7.99988 16C8.00006 15.1717 8.67157 14.5 9.49988 14.5ZM15.9999 14.5C16.828 14.5002 17.4997 15.1719 17.4999 16C17.4999 16.8283 16.8281 17.4998 15.9999 17.5C15.1715 17.5 14.4999 16.8284 14.4999 16C14.5001 15.1717 15.1716 14.5 15.9999 14.5ZM22.4999 14.5C23.328 14.5002 23.9997 15.1719 23.9999 16C23.9999 16.8283 23.3281 17.4998 22.4999 17.5C21.6715 17.5 20.9999 16.8284 20.9999 16C21.0001 15.1717 21.6716 14.5 22.4999 14.5Z"
    fill="currentColor"
  />
</svg>
