<svg
  width="20"
  height="20"
  viewBox="0 0 20 20"
  fill="none"
  xmlns="http://www.w3.org/2000/svg"
  data-fui-icon="true"
>
  <path
    d="M10.625 3.125H3.95832C3.03785 3.125 2.29166 3.87119 2.29166 4.79167V13.5417C2.29166 14.4622 3.03785 15.2083 3.95832 15.2083H7.20984C7.40562 15.2083 7.59514 15.2773 7.74517 15.403L9.46607 16.8456C9.77432 17.104 10.2232 17.1052 10.5331 16.8486L12.2817 15.3999C12.4311 15.2761 12.6192 15.2083 12.8132 15.2083H16.0417C16.9622 15.2083 17.7083 14.4622 17.7083 13.5417V10.2083"
    stroke="currentColor"
    stroke-width="1.5"
    stroke-linecap="round"
  />
  <path
    d="M15.8333 7.70835C17.3291 7.70835 18.5417 6.4958 18.5417 5.00002C18.5417 3.50425 17.3291 2.29169 15.8333 2.29169C14.3376 2.29169 13.125 3.50425 13.125 5.00002C13.125 6.4958 14.3376 7.70835 15.8333 7.70835Z"
    stroke="currentColor"
    stroke-width="1.5"
    stroke-linecap="round"
  />
  <path
    d="M10 9.89583C9.59733 9.89583 9.27083 9.56933 9.27083 9.16667 9.27083 8.764 9.59733 8.4375 10 8.4375 10.4027 8.4375 10.7292 8.764 10.7292 9.16667 10.7292 9.56933 10.4027 9.89583 10 9.89583zM5.93717 9.89583C5.53451 9.89583 5.20801 9.56933 5.20801 9.16667 5.20801 8.764 5.53451 8.4375 5.93717 8.4375 6.33984 8.4375 6.66634 8.764 6.66634 9.16667 6.66634 9.56933 6.33984 9.89583 5.93717 9.89583z"
    fill="currentColor"
  />
  <path
    fill-rule="evenodd"
    clip-rule="evenodd"
    d="M5.08301 9.16667C5.08301 8.69496 5.46547 8.3125 5.93717 8.3125C6.40888 8.3125 6.79134 8.69496 6.79134 9.16667C6.79134 9.63837 6.40888 10.0208 5.93717 10.0208C5.46547 10.0208 5.08301 9.63837 5.08301 9.16667ZM5.93717 8.5625C5.60354 8.5625 5.33301 8.83304 5.33301 9.16667C5.33301 9.5003 5.60354 9.77083 5.93717 9.77083C6.27081 9.77083 6.54134 9.5003 6.54134 9.16667C6.54134 8.83304 6.27081 8.5625 5.93717 8.5625ZM9.14583 9.16667C9.14583 8.69496 9.5283 8.3125 10 8.3125C10.4717 8.3125 10.8542 8.69496 10.8542 9.16667C10.8542 9.63837 10.4717 10.0208 10 10.0208C9.5283 10.0208 9.14583 9.63837 9.14583 9.16667ZM10 8.5625C9.66637 8.5625 9.39583 8.83304 9.39583 9.16667C9.39583 9.5003 9.66637 9.77083 10 9.77083C10.3336 9.77083 10.6042 9.5003 10.6042 9.16667C10.6042 8.83304 10.3336 8.5625 10 8.5625Z"
    fill="currentColor"
  />
</svg>
