<svg
  width="20"
  height="20"
  viewBox="0 0 20 20"
  fill="none"
  xmlns="http://www.w3.org/2000/svg"
  data-fui-icon="true"
>
  <path
    d="M2.29163 4.79167C2.29163 3.87119 3.03782 3.125 3.95829 3.125H16.0416C16.9621 3.125 17.7083 3.87119 17.7083 4.79167V13.5417C17.7083 14.4622 16.9621 15.2083 16.0416 15.2083H12.8132C12.6191 15.2083 12.431 15.2761 12.2816 15.3999L10.533 16.8486C10.2232 17.1052 9.77429 17.104 9.46604 16.8456L7.74514 15.403C7.59511 15.2773 7.40558 15.2083 7.20981 15.2083H3.95829C3.03782 15.2083 2.29163 14.4622 2.29163 13.5417V4.79167Z"
    stroke="currentColor"
    stroke-width="1.5"
    stroke-linejoin="round"
  />
  <path
    d="M5.52087 9.16667C5.52087 9.56933 5.84733 9.89583 6.25004 9.89583C6.65275 9.89583 6.97921 9.56933 6.97921 9.16667C6.97921 8.764 6.65275 8.4375 6.25004 8.4375C5.84733 8.4375 5.52087 8.764 5.52087 9.16667ZM9.27087 9.16667C9.27087 9.56933 9.59737 9.89583 10 9.89583C10.4027 9.89583 10.7292 9.56933 10.7292 9.16667C10.7292 8.764 10.4027 8.4375 10 8.4375C9.59737 8.4375 9.27087 8.764 9.27087 9.16667ZM13.0209 9.16667C13.0209 9.56933 13.3474 9.89583 13.75 9.89583C14.1527 9.89583 14.4792 9.56933 14.4792 9.16667C14.4792 8.764 14.1527 8.4375 13.75 8.4375C13.3474 8.4375 13.0209 8.764 13.0209 9.16667Z"
    fill="currentColor"
    stroke="currentColor"
    stroke-width=".75"
    stroke-linecap="square"
  />
</svg>
