<svg width="12" height="12" viewBox="0 0 12 12" fill="none" xmlns="http://www.w3.org/2000/svg" data-fui-icon="true">
  <g clip-path="url(#clip0_6953_770)">
    <path
      d="M6.31738 0.00805664C6.4008 0.0123012 6.48396 0.0178512 6.56641 0.0256348C6.80257 0.0480696 6.89593 0.329477 6.7334 0.502197L5.87012 1.41724C5.81699 1.47332 5.74403 1.50609 5.66699 1.51196C3.34461 1.68652 1.51476 3.62731 1.51465 5.99438C1.51467 6.41381 1.57206 6.819 1.67871 7.20239C1.84759 7.80951 2.02694 8.59798 1.82812 9.40259C1.78419 9.5803 1.73675 9.75481 1.68848 9.92407C1.62178 10.1582 1.84196 10.3789 2.07617 10.3127C2.24515 10.2647 2.42031 10.218 2.59766 10.1741C3.40306 9.97484 4.1922 10.1553 4.7998 10.3245C5.18343 10.4312 5.58922 10.4885 6.00879 10.4885L6.24023 10.4827C8.50227 10.3674 10.3225 8.57931 10.4893 6.3313C10.495 6.25384 10.5285 6.1805 10.585 6.1272L11.499 5.26489C11.6717 5.10206 11.9531 5.19559 11.9756 5.43188C11.9932 5.61695 12.0029 5.80475 12.0029 5.99438C12.0028 9.20098 9.48382 11.8196 6.31738 11.9807L6.00879 11.9885C5.45196 11.9885 4.91081 11.9126 4.39746 11.7698C3.81217 11.6068 3.3547 11.5321 2.95801 11.6301C2.58756 11.7219 2.22753 11.8287 1.90332 11.9338C1.32589 12.1211 0.777611 11.8973 0.441406 11.5618C0.105308 11.226 -0.118681 10.6778 0.0683594 10.0999L0.225586 9.58911C0.276836 9.41178 0.326117 9.22815 0.37207 9.04224C0.469981 8.64586 0.396012 8.18941 0.233398 7.60474C0.0906674 7.09165 0.0146746 6.55093 0.0146484 5.99438C0.0147663 2.68398 2.69842 0.000244141 6.00879 0.000244141L6.31738 0.00805664ZM8.68945 0.613525C9.42703 -0.168918 10.6663 -0.18673 11.4268 0.573486C12.1867 1.33383 12.1688 2.57222 11.3867 3.30981L9.33789 5.24048C9.04523 5.51637 8.69539 5.72474 8.31348 5.85083L7.43945 6.13989C6.46458 6.46161 5.53867 5.53567 5.86035 4.56079L6.14844 3.68677C6.27448 3.305 6.48307 2.95494 6.75879 2.66235L8.68945 0.613525ZM10.3662 1.63403C10.2039 1.47195 9.93969 1.47603 9.78223 1.64282L7.85059 3.69165C7.72543 3.82454 7.63051 3.98316 7.57324 4.15649L7.44043 4.55884L7.84375 4.427C8.01724 4.36967 8.17564 4.27402 8.30859 4.14868L10.3574 2.21802C10.5242 2.06059 10.5282 1.79636 10.3662 1.63403Z"
      fill="currentColor"
    />
  </g>
  <defs>
    <clipPath id="clip0_6953_770"><path fill="currentColor" d="M0 0H12V12H0z" /></clipPath>
  </defs>
</svg>
