<svg width="24" height="24" viewBox="0 0 24 24" fill="none" xmlns="http://www.w3.org/2000/svg" data-fui-icon="true">
  <path
    d="M7.49707 10.25C10.9487 10.2501 13.7471 13.0483 13.7471 16.5C13.7471 19.9517 10.9487 22.7499 7.49707 22.75C6.62645 22.75 5.79649 22.5698 5.04199 22.2471C4.20085 22.4339 3.34294 22.6549 2.72852 22.8223C1.78731 23.0785 0.917527 22.2087 1.17383 21.2676L1.48145 20.0859C1.57231 19.721 1.66317 19.3347 1.74805 18.9521C1.42611 18.198 1.24707 17.369 1.24707 16.5C1.24707 13.0482 4.04533 10.25 7.49707 10.25ZM7.49707 11.75C4.87375 11.75 2.74707 13.8767 2.74707 16.5C2.74707 17.2348 2.91311 17.9283 3.20898 18.5469C3.28161 18.6987 3.30223 18.8712 3.2666 19.0371C3.09853 19.8198 2.89228 20.6291 2.72168 21.2734C3.36541 21.1027 4.17493 20.8966 4.95801 20.7285C5.1239 20.6929 5.29643 20.7135 5.44824 20.7861C6.06779 21.0828 6.76214 21.25 7.49707 21.25L7.74121 21.2441C10.2511 21.117 12.2471 19.0414 12.2471 16.5C12.2471 13.9586 10.2511 11.883 7.74121 11.7559L7.49707 11.75ZM15 1.25C19.2801 1.25012 22.75 4.71987 22.75 9C22.75 10.1021 22.5176 11.1514 22.1016 12.1025C22.2977 12.9914 22.5243 13.8986 22.7197 14.6357L22.915 15.3613C23.1749 16.304 22.3039 17.1731 21.3623 16.9141L20.6367 16.7178C19.9001 16.5221 18.9941 16.2946 18.1064 16.0986C17.4453 16.3883 16.7361 16.5865 15.9951 16.6826C15.9964 16.6219 16 16.561 16 16.5C16 16.0526 15.965 15.6133 15.8984 15.1846C16.4188 15.1097 16.9185 14.972 17.3887 14.7773L17.6992 14.6387L17.8174 14.5938C17.9377 14.5589 18.066 14.5533 18.1904 14.5801C19.324 14.8235 20.5035 15.1273 21.3623 15.3594C21.1302 14.4996 20.8254 13.3208 20.582 12.1875C20.5464 12.0216 20.567 11.8491 20.6396 11.6973C21.0304 10.8818 21.25 9.96743 21.25 9C21.25 5.5483 18.4517 2.75012 15 2.75L14.6787 2.75781C11.6779 2.90986 9.23459 5.17857 8.81348 8.10059C8.38546 8.0342 7.94662 8.00001 7.5 8C7.43838 8 7.37673 8.0026 7.31543 8.00391C7.8044 4.19435 11.0575 1.25012 15 1.25Z"
    fill="currentColor"
  />
</svg>
