<svg width="20" height="20" viewBox="0 0 20 20" fill="none" xmlns="http://www.w3.org/2000/svg" data-fui-icon="true">
  <path
    d="M10 1C14.9706 1 19 5.02944 19 10C19 14.9706 14.9706 19 10 19C8.70162 18.9999 7.46774 18.7206 6.35156 18.2246C5.4574 18.4212 4.54526 18.6468 3.75195 18.8535C2.1865 19.2615 0.737242 17.8128 1.14551 16.2471C1.35233 15.4539 1.57681 14.5416 1.77344 13.6475C1.27796 12.5314 1 11.2975 1 10C1 5.02952 5.02966 1.00021 10 1ZM6 8.75C5.30964 8.75 4.75 9.30964 4.75 10C4.75 10.6904 5.30964 11.25 6 11.25C6.69036 11.25 7.25 10.6904 7.25 10C7.25 9.30964 6.69036 8.75 6 8.75ZM10 8.75C9.30976 8.75013 8.75 9.30973 8.75 10C8.75 10.6903 9.30976 11.2499 10 11.25C10.6904 11.25 11.25 10.6904 11.25 10C11.25 9.30964 10.6904 8.75 10 8.75ZM14 8.75C13.3096 8.75 12.75 9.30964 12.75 10C12.75 10.6904 13.3096 11.25 14 11.25C14.6904 11.25 15.25 10.6904 15.25 10C15.25 9.30964 14.6904 8.75 14 8.75Z"
    fill="currentColor"
  />
</svg>
