<svg width="12" height="12" viewBox="0 0 12 12" fill="none" xmlns="http://www.w3.org/2000/svg" data-fui-icon="true">
  <path
    fill-rule="evenodd"
    clip-rule="evenodd"
    d="M3.97068 4.54993C5.88922 4.5501 7.44591 6.10547 7.44627 8.02454C7.44627 9.94362 5.88972 11.4999 3.97068 11.5001C3.56706 11.5001 3.18187 11.4291 2.82615 11.3038C2.4107 11.4008 2.0066 11.5065 1.78611 11.5685H1.78416C0.947819 11.8018 0.198011 11.0266 0.427711 10.2091L0.582007 9.63391C0.619373 9.48732 0.65508 9.32821 0.692359 9.16809C0.567244 8.81178 0.49607 8.42722 0.49607 8.02454C0.496426 6.10586 2.05183 4.55015 3.97068 4.54993ZM3.97068 6.54993C3.15643 6.55009 2.49633 7.21017 2.49607 8.02454C2.49607 8.24745 2.5478 8.46018 2.6406 8.6554C2.73215 8.84796 2.75811 9.06552 2.71775 9.27649C2.92901 9.23596 3.14704 9.2629 3.33982 9.35461C3.53622 9.44806 3.74891 9.50008 3.97068 9.50012C4.78515 9.49995 5.44627 8.83905 5.44627 8.02454C5.44601 7.21053 4.78527 6.5501 3.97068 6.54993ZM7.34959 0.500122C9.64133 0.500393 11.5 2.35871 11.5 4.65051C11.4999 5.15992 11.403 5.64456 11.2363 6.09094C11.3727 6.68507 11.5302 7.27033 11.6094 7.54993C11.8441 8.3801 11.0771 9.14263 10.251 8.91028L10.25 8.9093C9.97031 8.83022 9.3866 8.67249 8.79392 8.53625C8.67561 8.58046 8.55393 8.61866 8.43064 8.65247C8.45926 8.44736 8.47556 8.23753 8.47556 8.02454C8.47552 7.52675 8.39243 7.04832 8.24314 6.60071L8.27146 6.58997L8.42576 6.53137C8.58373 6.48583 8.75251 6.47876 8.91599 6.51379C9.04446 6.54133 9.17432 6.57185 9.30271 6.60168C9.27278 6.4728 9.24147 6.34292 9.21384 6.21399C9.16719 5.99622 9.19425 5.76972 9.28904 5.57043C9.3902 5.3578 9.45868 5.12988 9.4863 4.89172L9.49998 4.65051C9.49997 3.46327 8.53676 2.50039 7.34959 2.50012L7.12986 2.51086C6.35737 2.5894 5.70707 3.07803 5.39646 3.755C4.94986 3.60642 4.47205 3.52462 3.97556 3.52454C3.76102 3.52454 3.54928 3.54042 3.34275 3.56946C3.81833 1.80189 5.43152 0.500261 7.34959 0.500122Z"
    fill="currentColor"
  />
</svg>
