<svg width="20" height="20" viewBox="0 0 20 20" fill="none" xmlns="http://www.w3.org/2000/svg" data-fui-icon="true">
  <path
    d="M10 0.5C15.2464 0.500277 19.5 4.7534 19.5 10C19.5 15.2466 15.2464 19.4997 10 19.5C8.65646 19.5 7.37739 19.2165 6.2168 18.7119C5.29623 18.9158 4.35991 19.1493 3.54883 19.3613C1.79829 19.8189 0.180107 18.2006 0.637695 16.4502C0.849756 15.6395 1.08216 14.7014 1.28613 13.7793C0.782474 12.6194 0.5 11.3419 0.5 10C0.5 4.75329 4.75329 0.5 10 0.5ZM5.75 8.75C5.05964 8.75 4.5 9.30964 4.5 10C4.5 10.6904 5.05964 11.25 5.75 11.25C6.44036 11.25 7 10.6904 7 10C7 9.30964 6.44036 8.75 5.75 8.75ZM10 8.75C9.30964 8.75 8.75 9.30964 8.75 10C8.75 10.6904 9.30964 11.25 10 11.25C10.6904 11.25 11.25 10.6904 11.25 10C11.25 9.30964 10.6904 8.75 10 8.75ZM14.25 8.75C13.5596 8.75 13 9.30964 13 10C13 10.6904 13.5596 11.25 14.25 11.25C14.9404 11.25 15.5 10.6904 15.5 10C15.5 9.30964 14.9404 8.75 14.25 8.75Z"
    fill="currentColor"
  />
</svg>
