<svg
  width="16"
  height="16"
  viewBox="0 0 16 16"
  fill="none"
  xmlns="http://www.w3.org/2000/svg"
  data-fui-icon="true"
>
  <path
    d="M1.83337 3.83333C1.83337 3.09695 2.43033 2.5 3.16671 2.5H12.8334C13.5698 2.5 14.1667 3.09695 14.1667 3.83333V10.8333C14.1667 11.5697 13.5698 12.1667 12.8334 12.1667H10.2506C10.0954 12.1667 9.94491 12.2209 9.82537 12.3199L8.42651 13.4789C8.17864 13.6842 7.81951 13.6832 7.57291 13.4765L6.19619 12.3224C6.07616 12.2218 5.92454 12.1667 5.76792 12.1667H3.16671C2.43033 12.1667 1.83337 11.5697 1.83337 10.8333V3.83333Z"
    stroke="currentColor"
    stroke-width="1.5"
    stroke-linejoin="round"
  />
  <path
    d="M4.41663 7.33333C4.41663 7.65547 4.67779 7.91667 4.99996 7.91667C5.32213 7.91667 5.58329 7.65547 5.58329 7.33333C5.58329 7.0112 5.32213 6.75 4.99996 6.75C4.67779 6.75 4.41663 7.0112 4.41663 7.33333ZM7.41663 7.33333C7.41663 7.65547 7.67783 7.91667 7.99996 7.91667C8.32209 7.91667 8.58329 7.65547 8.58329 7.33333C8.58329 7.0112 8.32209 6.75 7.99996 6.75C7.67783 6.75 7.41663 7.0112 7.41663 7.33333ZM10.4166 7.33333C10.4166 7.65547 10.6778 7.91667 11 7.91667C11.3221 7.91667 11.5833 7.65547 11.5833 7.33333C11.5833 7.0112 11.3221 6.75 11 6.75C10.6778 6.75 10.4166 7.0112 10.4166 7.33333Z"
    fill="currentColor"
    stroke="currentColor"
    stroke-width=".75"
    stroke-linecap="square"
  />
</svg>
