<svg width="20" height="20" viewBox="0 0 20 20" fill="none" xmlns="http://www.w3.org/2000/svg" data-fui-icon="true">
  <path
    d="M10 1C14.9706 1 19 5.02944 19 10C19 14.9706 14.9706 19 10 19C8.73364 18.9999 7.52819 18.7341 6.43359 18.2607C5.62508 18.44 4.80388 18.6428 4.0791 18.8311C2.33002 19.2851 0.713802 17.67 1.16797 15.9199C1.35626 15.1954 1.55894 14.3741 1.73828 13.5654C1.26529 12.4708 1 11.2656 1 10C1 5.02951 5.02969 1.00022 10 1ZM6 8.5C5.17157 8.5 4.5 9.17157 4.5 10C4.5 10.8284 5.17157 11.5 6 11.5C6.82843 11.5 7.5 10.8284 7.5 10C7.5 9.17157 6.82843 8.5 6 8.5ZM10 8.5C9.17169 8.50013 8.5 9.17165 8.5 10C8.5 10.8283 9.17169 11.4999 10 11.5C10.8284 11.5 11.5 10.8284 11.5 10C11.5 9.17157 10.8284 8.5 10 8.5ZM14 8.5C13.1716 8.5 12.5 9.17157 12.5 10C12.5 10.8284 13.1716 11.5 14 11.5C14.8284 11.5 15.5 10.8284 15.5 10C15.5 9.17157 14.8284 8.5 14 8.5Z"
    fill="currentColor"
  />
</svg>
