<svg width="12" height="12" viewBox="0 0 12 12" fill="none" xmlns="http://www.w3.org/2000/svg" data-fui-icon="true">
  <g clip-path="url(#clip0_6953_669)">
    <path
      d="M6.30859 0.0078125C9.47854 0.168753 12 2.78994 12 6C12 9.21006 9.47854 11.8312 6.30859 11.9922L6 12C5.44191 12 4.9001 11.9237 4.38574 11.7803C3.80066 11.6171 3.34372 11.5424 2.94727 11.6406C2.57523 11.7329 2.21345 11.8406 1.8877 11.9463C1.30978 12.1334 0.761586 11.9093 0.425781 11.5732C0.0900273 11.2371 -0.133638 10.689 0.0537109 10.1113L0.210938 9.59863C0.262202 9.42085 0.312459 9.23727 0.358398 9.05078C0.45613 8.65392 0.381381 8.19705 0.21875 7.6123C0.0758057 7.09837 0 6.55736 0 6C0 2.68629 2.68629 0 6 0L6.30859 0.0078125ZM6.1748 3.61621C6.10423 3.46141 5.89486 3.46148 5.82422 3.61621L5.2168 4.94824C5.18842 5.0105 5.13159 5.05341 5.06641 5.0625L3.66895 5.25586C3.50649 5.27828 3.4416 5.48819 3.56055 5.60645L4.58203 6.62207C4.62987 6.66972 4.65169 6.73957 4.63965 6.80762L4.38281 8.25781C4.35294 8.4267 4.52305 8.55639 4.66699 8.47461L5.90625 7.77051C5.96401 7.7377 6.03401 7.73777 6.0918 7.77051L7.33203 8.47461C7.47592 8.55623 7.64607 8.42665 7.61621 8.25781L7.35938 6.80762C7.34732 6.73951 7.36907 6.66972 7.41699 6.62207L8.43848 5.60645C8.55716 5.48822 8.49231 5.27844 8.33008 5.25586L6.93262 5.0625C6.86734 5.05349 6.81066 5.01058 6.78223 4.94824L6.1748 3.61621Z"
      fill="currentColor"
    />
  </g>
  <defs>
    <clipPath id="clip0_6953_669"><path fill="currentColor" d="M0 0H12V12H0z" /></clipPath>
  </defs>
</svg>
