<svg
  width="32"
  height="34"
  viewBox="0 0 32 34"
  fill="none"
  xmlns="http://www.w3.org/2000/svg"
  data-fui-icon="true"
>
  <path
    d="M17 5.3125H6.33329C4.86053 5.3125 3.66663 6.58103 3.66663 8.14583V23.0208C3.66663 24.5857 4.86053 25.8542 6.33329 25.8542H11.5357C11.849 25.8542 12.1522 25.9713 12.3923 26.1851L15.1457 28.6375C15.6389 29.0768 16.3572 29.0789 16.8529 28.6426L19.6506 26.1799C19.8897 25.9693 20.1906 25.8542 20.5012 25.8542H25.6666C27.1394 25.8542 28.3333 24.5857 28.3333 23.0208V17.3542"
    stroke="currentColor"
    stroke-width="1.5"
    stroke-linecap="round"
  />
  <path
    d="M8.83337 15.5833C8.83337 16.2679 9.35571 16.8229 10 16.8229C10.6444 16.8229 11.1667 16.2679 11.1667 15.5833C11.1667 14.8988 10.6444 14.3438 10 14.3438C9.35571 14.3438 8.83337 14.8988 8.83337 15.5833ZM14.8334 15.5833C14.8334 16.2679 15.3558 16.8229 16 16.8229C16.6443 16.8229 17.1667 16.2679 17.1667 15.5833C17.1667 14.8988 16.6443 14.3438 16 14.3438C15.3558 14.3438 14.8334 14.8988 14.8334 15.5833ZM20.8334 15.5833C20.8334 16.2679 21.3558 16.8229 22 16.8229C22.6443 16.8229 23.1667 16.2679 23.1667 15.5833C23.1667 14.8988 22.6443 14.3438 22 14.3438C21.3558 14.3438 20.8334 14.8988 20.8334 15.5833Z"
    fill="currentColor"
  />
  <path
    d="M25.6801 3.71282L22.2516 7.35564C21.7847 7.85171 21.4906 8.50182 21.4177 9.19907L21.2774 10.5407C21.2226 11.0654 21.6398 11.5088 22.1337 11.4505L23.3964 11.3014C24.0526 11.2239 24.6645 10.9115 25.1314 10.4154L28.5599 6.77259M25.6801 3.71282L26.7601 2.56541C27.5553 1.72047 28.8446 1.72047 29.6398 2.56541V2.56541C30.4351 3.41034 30.4351 4.78024 29.6398 5.62517L28.5599 6.77259M25.6801 3.71282L28.5599 6.77259"
    stroke="currentColor"
    stroke-width="1.5"
  />
</svg>
