<svg
  width="32"
  height="32"
  viewBox="0 0 32 32"
  fill="none"
  xmlns="http://www.w3.org/2000/svg"
  data-fui-icon="true"
>
  <path
    d="M3.66663 7.66667C3.66663 6.19391 4.86053 5 6.33329 5H25.6666C27.1394 5 28.3333 6.19391 28.3333 7.66667V21.6667C28.3333 23.1395 27.1394 24.3333 25.6666 24.3333H20.5012C20.1906 24.3333 19.8897 24.4417 19.6506 24.6399L16.8529 26.9577C16.3572 27.3684 15.6389 27.3664 15.1457 26.9529L12.3923 24.6448C12.1522 24.4436 11.849 24.3333 11.5357 24.3333H6.33329C4.86053 24.3333 3.66663 23.1395 3.66663 21.6667V7.66667Z"
    stroke="currentColor"
    stroke-width="1.5"
    stroke-linejoin="round"
  />
  <path
    d="M10 13.125C9.14859 13.125 8.45837 13.8153 8.45837 14.6667 8.45837 15.518 9.14859 16.2083 10 16.2083 10.8515 16.2083 11.5417 15.518 11.5417 14.6667 11.5417 13.8153 10.8515 13.125 10 13.125zM16 13.125C15.1487 13.125 14.4584 13.8153 14.4584 14.6667 14.4584 15.518 15.1487 16.2083 16 16.2083 16.8514 16.2083 17.5417 15.518 17.5417 14.6667 17.5417 13.8153 16.8514 13.125 16 13.125zM22 13.125C21.1487 13.125 20.4584 13.8153 20.4584 14.6667 20.4584 15.518 21.1487 16.2083 22 16.2083 22.8514 16.2083 23.5417 15.518 23.5417 14.6667 23.5417 13.8153 22.8514 13.125 22 13.125z"
    fill="currentColor"
  />
</svg>
