<svg width="12" height="12" viewBox="0 0 12 12" fill="none" xmlns="http://www.w3.org/2000/svg" data-fui-icon="true">
  <g clip-path="url(#clip0_5204_639)">
    <path
      d="M10.75 5C11.1642 5 11.5 5.33579 11.5 5.75C11.5 8.42251 9.50293 10.6268 6.91981 10.9558C6.82387 10.968 6.75 11.0485 6.75 11.1452V11.25C6.75 11.6642 6.41421 12 6 12C5.58579 12 5.25 11.6642 5.25 11.25V11.1452C5.25 11.0485 5.17613 10.968 5.08019 10.9558C2.49707 10.6268 0.5 8.42251 0.5 5.75C0.5 5.33579 0.835786 5 1.25 5C1.66421 5 2 5.33579 2 5.75C2 7.82107 3.67893 9.5 5.75 9.5H6.25C8.32107 9.5 10 7.82107 10 5.75C10 5.33579 10.3358 5 10.75 5ZM6 0.900391C7.65685 0.900391 9 2.24354 9 3.90039V5.40039C8.99979 7.05707 7.65672 8.40039 6 8.40039C4.39503 8.40039 3.08441 7.13965 3.00391 5.55469L3 5.40039V3.90039C3 2.24354 4.34315 0.900391 6 0.900391ZM6 2.40039C5.17157 2.40039 4.5 3.07196 4.5 3.90039V5.40039C4.50021 6.22864 5.1717 6.90039 6 6.90039C6.8283 6.90039 7.49979 6.22864 7.5 5.40039V3.90039C7.5 3.07196 6.82843 2.40039 6 2.40039Z"
      fill="currentColor"
    />
  </g>
  <defs>
    <clipPath id="clip0_5204_639"><path fill="currentColor" d="M0 0H12V12H0z" /></clipPath>
  </defs>
</svg>
