<svg width="16" height="16" viewBox="0 0 16 16" fill="none" xmlns="http://www.w3.org/2000/svg" data-fui-icon="true">
  <path
    d="M14 6.25C14.4142 6.25 14.75 6.58579 14.75 7C14.75 10.3977 12.2395 13.2073 8.97236 13.6787C8.84623 13.6969 8.75 13.8035 8.75 13.9309V14.25C8.75 14.6642 8.41421 15 8 15C7.58579 15 7.25 14.6642 7.25 14.25V13.9309C7.25 13.8035 7.15377 13.6969 7.02764 13.6787C3.76052 13.2073 1.25 10.3977 1.25 7C1.25 6.58579 1.58579 6.25 2 6.25C2.41421 6.25 2.75 6.58579 2.75 7C2.75 9.8995 5.10051 12.25 8 12.25C10.8995 12.25 13.25 9.8995 13.25 7C13.25 6.58579 13.5858 6.25 14 6.25ZM8 1C10.2091 1 12 2.79086 12 5V7C12 9.20914 10.2091 11 8 11C5.85996 11 4.11211 9.31944 4.00488 7.20605L4 7V5C4 2.79086 5.79086 1 8 1ZM8 2.5C6.61929 2.5 5.5 3.61929 5.5 5V7C5.5 8.38071 6.61929 9.5 8 9.5C9.38071 9.5 10.5 8.38071 10.5 7V5C10.5 3.61929 9.38071 2.5 8 2.5Z"
    fill="currentColor"
  />
</svg>
