<svg width="12" height="12" viewBox="0 0 12 12" fill="none" xmlns="http://www.w3.org/2000/svg" data-fui-icon="true">
  <g clip-path="url(#clip0_7215_343)">
    <path
      d="M10.75 4.5C11.1642 4.5 11.5 4.83579 11.5 5.25C11.5 7.92251 9.50293 10.1268 6.91981 10.4558C6.82387 10.468 6.75 10.5485 6.75 10.6452V11.25C6.75 11.6642 6.41421 12 6 12C5.58579 12 5.25 11.6642 5.25 11.25V10.6452C5.25 10.5485 5.17613 10.468 5.08019 10.4558C2.49707 10.1268 0.5 7.92251 0.5 5.25C0.5 4.83579 0.835786 4.5 1.25 4.5C1.66421 4.5 2 4.83579 2 5.25C2 7.32107 3.67893 9 5.75 9H6.25C8.32107 9 10 7.32107 10 5.25C10 4.83579 10.3358 4.5 10.75 4.5ZM6 0C7.65685 0 9 1.34315 9 3V5C8.9998 6.65669 7.65673 8 6 8C4.34327 8 3.0002 6.65669 3 5V3C3 1.34315 4.34315 0 6 0ZM6 1.5C5.17157 1.5 4.5 2.17157 4.5 3V5C4.5002 5.82826 5.1717 6.5 6 6.5C6.8283 6.5 7.4998 5.82826 7.5 5V3C7.5 2.17157 6.82843 1.5 6 1.5Z"
      fill="currentColor"
    />
  </g>
  <defs>
    <clipPath id="clip0_7215_343"><path fill="currentColor" d="M0 0H12V12H0z" /></clipPath>
  </defs>
</svg>
