<svg width="32" height="32" viewBox="0 0 32 32" fill="none" xmlns="http://www.w3.org/2000/svg" data-fui-icon="true">
  <path
    d="M1.21973 1.21997C1.51262 0.927077 1.98738 0.927077 2.28027 1.21997L30.7803 29.72C31.073 30.0129 31.0731 30.4877 30.7803 30.7805C30.4874 31.0732 30.0126 31.0732 29.7197 30.7805L24.2363 25.2971C24.0566 25.1174 23.7713 25.102 23.5669 25.2532C21.7579 26.5915 19.5845 27.4657 17.2205 27.6908C16.9568 27.7159 16.75 27.9337 16.75 28.1986V29.0002C16.75 29.2764 16.9739 29.5002 17.25 29.5002H21C21.414 29.5004 21.75 29.8362 21.75 30.2502C21.7498 30.6642 21.414 31 21 31.0002H11C10.5861 31 10.2502 30.6642 10.25 30.2502C10.25 29.8362 10.586 29.5005 11 29.5002H14.75C15.0261 29.5002 15.25 29.2764 15.25 29.0002V28.1986C15.25 27.9337 15.0427 27.7158 14.779 27.6908C8.31047 27.076 3.25014 21.6297 3.25 15.0002C3.25 14.5862 3.586 14.2505 4 14.2502C4.41405 14.2504 4.75 14.5862 4.75 15.0002C4.75015 21.2132 9.7871 26.25 16 26.2502C18.3767 26.2502 20.58 25.5106 22.396 24.252C22.644 24.0802 22.6664 23.7272 22.453 23.5138L20.8247 21.8855C20.6541 21.7149 20.3869 21.6919 20.1815 21.8184C18.9648 22.567 17.5332 23.0002 16 23.0002C11.582 23 8.00015 19.4182 8 15.0002V9.2679C8 9.13529 7.94732 9.00811 7.85355 8.91434L1.21973 2.28052C0.926873 1.98766 0.926954 1.51287 1.21973 1.21997ZM28 14.2502C28.414 14.2504 28.75 14.5862 28.75 15.0002C28.7499 17.763 27.8699 20.3196 26.3763 22.4072C26.2018 22.6512 25.8513 22.6718 25.6392 22.4597L25.276 22.0966C25.0994 21.9199 25.0812 21.6407 25.2244 21.436C26.4996 19.6123 27.2499 17.3944 27.25 15.0002C27.25 14.5862 27.586 14.2505 28 14.2502ZM16 1.00024C20.4181 1.00051 24 4.58213 24 9.00024V15.0002C24 16.4348 23.6217 17.781 22.9603 18.9452C22.8048 19.2187 22.4338 19.2543 22.2113 19.0319L9.01362 5.83417C8.86429 5.68485 8.82356 5.457 8.92217 5.27026C10.2629 2.73128 12.9291 1.00042 16 1.00024Z"
    fill="currentColor"
  />
</svg>
