<svg width="20" height="20" viewBox="0 0 20 20" fill="none" xmlns="http://www.w3.org/2000/svg" data-fui-icon="true">
  <path
    fill-rule="evenodd"
    clip-rule="evenodd"
    d="M0.219426 0.219727C0.512335 -0.0730121 0.988111 -0.0731203 1.28095 0.219727L19.78 18.7197C20.0727 19.0126 20.0727 19.4874 19.78 19.7803C19.4871 20.0731 19.0123 20.073 18.7194 19.7803L15.328 16.3889C15.22 16.2809 15.0485 16.2717 14.9261 16.3631C13.8122 17.1947 12.482 17.7524 11.0339 17.9336C10.8736 17.9537 10.7499 18.0876 10.7497 18.249V19.25C10.7497 19.6641 10.4138 19.9998 9.9997 20C9.58549 20 9.2497 19.6642 9.2497 19.25V18.249C9.24947 18.0877 9.12562 17.9538 8.96552 17.9336C4.89747 17.4248 1.7497 13.956 1.7497 9.75C1.7497 9.33579 2.08549 9 2.4997 9C2.91377 9.00016 3.2497 9.33589 3.2497 9.75C3.2497 13.4779 6.27178 16.5 9.9997 16.5C11.4059 16.4999 12.7101 16.068 13.7907 15.3317C13.941 15.2293 13.9553 15.0162 13.8267 14.8875L12.9922 14.053C12.8901 13.9509 12.7303 13.9369 12.6072 14.0125C11.8481 14.4789 10.9562 14.7499 9.9997 14.75C7.32442 14.75 5.14024 12.6489 5.00654 10.0068L4.9997 9.75V6.18481C4.9997 6.10525 4.96809 6.02894 4.91183 5.97268L0.219426 1.28027C-0.0731436 0.987441 -0.0731403 0.512557 0.219426 0.219727ZM17.4997 9C17.9138 9.00016 18.2497 9.33589 18.2497 9.75C18.2497 11.1405 17.9031 12.4491 17.2951 13.5978C17.2034 13.7711 16.9711 13.8005 16.8325 13.6619L16.1584 12.9878C16.0662 12.8956 16.0447 12.7546 16.1006 12.6368C16.5158 11.7615 16.7497 10.7832 16.7497 9.75C16.7497 9.33579 17.0855 9 17.4997 9ZM6.4997 9.75C6.4997 11.683 8.0667 13.25 9.9997 13.25C10.4897 13.25 10.9553 13.1481 11.3781 12.9655C11.5597 12.8871 11.5914 12.6522 11.4515 12.5124L7.01183 8.07268C6.82284 7.88369 6.4997 8.01754 6.4997 8.28481V9.75ZM9.9997 0C12.761 0.000162474 14.9997 2.23868 14.9997 5V9.75L14.9929 10.0068C14.9744 10.3718 14.916 10.7261 14.8229 11.0662C14.7653 11.2765 14.5044 11.3338 14.3502 11.1796L13.5662 10.3956C13.4986 10.328 13.4681 10.2323 13.4786 10.1373C13.4926 10.0101 13.4997 9.88089 13.4997 9.75V5C13.4997 3.0671 11.9326 1.50016 9.9997 1.5C8.7164 1.5 7.59445 2.19078 6.98521 3.2207C6.87733 3.40308 6.62225 3.45165 6.47241 3.30181L5.83259 2.66199C5.73649 2.56589 5.71622 2.41662 5.78966 2.30226C6.67876 0.917634 8.23199 0 9.9997 0Z"
    fill="currentColor"
  />
</svg>
