<svg width="24" height="24" viewBox="0 0 24 24" fill="none" xmlns="http://www.w3.org/2000/svg" data-fui-icon="true">
  <path
    fill-rule="evenodd"
    clip-rule="evenodd"
    d="M0.219669 0.219727C0.512564 -0.0731663 0.987322 -0.0731663 1.28022 0.219727L23.7802 22.7197C24.0731 23.0126 24.0731 23.4874 23.7802 23.7803C23.4873 24.0732 23.0126 24.0732 22.7197 23.7803L18.2548 19.3154C18.1469 19.2075 17.9755 19.1982 17.8536 19.29C16.4985 20.31 14.8706 20.9869 13.0966 21.1855C12.9019 21.2075 12.7509 21.3695 12.7509 21.5654V23.25C12.7509 23.6639 12.4147 23.9995 12.0009 24C11.5867 24 11.2509 23.6642 11.2509 23.25V21.5654C11.2509 21.3695 11.099 21.2075 10.9042 21.1855C6.03569 20.6407 2.24897 16.514 2.24897 11.5C2.24897 11.0858 2.58671 10.75 3.00092 10.75C3.41468 10.7505 3.75092 11.0861 3.75092 11.5C3.75092 16.0563 7.44457 19.75 12.0009 19.75C13.7576 19.7498 15.3845 19.1984 16.7222 18.262C16.8709 18.1579 16.8848 17.9454 16.7565 17.8171L15.564 16.6246C15.4618 16.5224 15.3016 16.5083 15.1792 16.5852C14.2578 17.1636 13.1692 17.4998 12.0009 17.5C8.79073 17.5 6.16937 14.9789 6.00873 11.8086L6.00092 11.5V7.18579C6.00092 7.10622 5.96931 7.02992 5.91305 6.97366L0.219669 1.28027C-0.0732231 0.98738 -0.0732231 0.51262 0.219669 0.219727ZM21.0009 10.75C21.4147 10.7505 21.7509 11.0861 21.7509 11.5C21.7509 13.3766 21.2183 15.1277 20.2991 16.6142C20.1997 16.775 19.9771 16.7965 19.8435 16.6629L19.1856 16.005C19.0871 15.9065 19.0699 15.7535 19.1398 15.6331C19.8452 14.4177 20.2509 13.0064 20.2509 11.5C20.2509 11.0858 20.5867 10.75 21.0009 10.75ZM7.50092 11.5C7.50092 13.9853 9.51564 16 12.0009 16C12.7056 15.9999 13.3714 15.8362 13.9646 15.5466C14.1401 15.4609 14.1688 15.2294 14.0306 15.0912L8.01305 9.07366C7.82406 8.88467 7.50092 9.01852 7.50092 9.28579V11.5ZM12.0009 0C15.3142 0.000527712 18.0009 2.68662 18.0009 6V11.5C18.0009 12.3178 17.8355 13.0966 17.5386 13.8068C17.4597 13.9956 17.2159 14.0353 17.0712 13.8906L16.3629 13.1823C16.2803 13.0997 16.254 12.977 16.2895 12.8657C16.4266 12.435 16.5009 11.9761 16.5009 11.5V6C16.5009 3.51504 14.4858 1.50053 12.0009 1.5C10.1911 1.5 8.63174 2.56876 7.91742 4.10926C7.82385 4.31105 7.55397 4.37337 7.39669 4.21609L6.73717 3.55656C6.64712 3.46651 6.62308 3.32905 6.68224 3.21628C7.68542 1.30397 9.69167 0 12.0009 0Z"
    fill="currentColor"
  />
</svg>
