<svg width="16" height="16" viewBox="0 0 16 16" fill="none" xmlns="http://www.w3.org/2000/svg" data-fui-icon="true">
  <path
    d="M0.219727 0.219727C0.512622 -0.0731385 0.98739 -0.0731573 1.28027 0.219727L15.7803 14.7197C16.0731 15.0126 16.0731 15.4874 15.7803 15.7803C15.4874 16.0732 15.0126 16.0731 14.7197 15.7803L11.77 12.8306C11.687 12.7476 11.5578 12.7339 11.4571 12.7942C10.71 13.2411 9.87004 13.5489 8.97209 13.6787C8.84596 13.6969 8.75 13.8035 8.75 13.9309V14.25C8.75 14.3881 8.86193 14.5 9 14.5H10.25C10.6641 14.5002 11 14.8359 11 15.25C11 15.6641 10.6641 15.9998 10.25 16H5.75C5.33579 16 5 15.6642 5 15.25C5 14.8358 5.33579 14.5 5.75 14.5H7C7.13807 14.5 7.25 14.3881 7.25 14.25V13.9309C7.25 13.8035 7.15377 13.6969 7.02764 13.6787C3.76052 13.2073 1.25 10.3977 1.25 7C1.25 6.58579 1.58579 6.25 2 6.25C2.41406 6.25018 2.75 6.5859 2.75 7C2.75 9.8995 5.1005 12.25 8 12.25C8.80178 12.2499 9.56083 12.0692 10.24 11.7472C10.3902 11.676 10.4181 11.4786 10.3005 11.3611L9.72342 10.784C9.65054 10.7111 9.54067 10.6911 9.44464 10.7285C8.99667 10.9031 8.50989 11 8 11C5.79086 11 4 9.20914 4 7V5.1641C4 5.0978 3.97366 5.03421 3.92678 4.98732L0.219727 1.28027C-0.0731667 0.98738 -0.0731667 0.51262 0.219727 0.219727ZM14 6.25C14.4141 6.25018 14.75 6.5859 14.75 7C14.75 8.1928 14.4403 9.31313 13.8973 10.2853C13.8188 10.4258 13.6284 10.4477 13.5145 10.3338L12.7694 9.58874C12.6917 9.51105 12.6744 9.39202 12.7225 9.29324C13.0598 8.60031 13.25 7.82245 13.25 7C13.25 6.58579 13.5858 6.25 14 6.25ZM8 0C10.209 0.00018373 12 1.79097 12 4V7C12 7.40558 11.9384 7.79664 11.8256 8.16531C11.7734 8.33597 11.56 8.37938 11.4338 8.25318L4.94393 1.76327C4.85613 1.67547 4.84544 1.53595 4.92494 1.44057C5.65875 0.560112 6.76426 0 8 0Z"
    fill="currentColor"
  />
</svg>
