<svg
  width="20"
  height="20"
  viewBox="0 0 20 20"
  fill="none"
  xmlns="http://www.w3.org/2000/svg"
  data-fui-icon="true"
>
  <path
    fill-rule="evenodd"
    clip-rule="evenodd"
    d="M10.0007 1.12891C7.63054 1.12891 5.70909 3.05035 5.70909 5.42057V9.17057C5.70909 11.5408 7.63054 13.4622 10.0007 13.4622C12.3709 13.4622 14.2924 11.5408 14.2924 9.17057V5.42057C14.2924 3.05035 12.3709 1.12891 10.0007 1.12891ZM7.20909 5.42057C7.20909 3.87877 8.45897 2.62891 10.0007 2.62891C11.5425 2.62891 12.7924 3.87878 12.7924 5.42057V9.17057C12.7924 10.7124 11.5425 11.9622 10.0007 11.9622C8.45897 11.9622 7.20909 10.7124 7.20909 9.17057V5.42057Z"
    fill="currentColor"
  />
  <path
    d="M4.95809 11.3703C4.79225 10.9907 4.35011 10.8175 3.97055 10.9833C3.59098 11.1491 3.41772 11.5913 3.58355 11.9708C4.56779 14.2236 6.70475 15.8597 9.25074 16.1309V17.3711H7.29166C6.87744 17.3711 6.54166 17.7069 6.54166 18.1211C6.54166 18.5353 6.87744 18.8711 7.29166 18.8711H12.7083C13.1225 18.8711 13.4583 18.5353 13.4583 18.1211C13.4583 17.7069 13.1225 17.3711 12.7083 17.3711H10.7507V16.1309C13.2968 15.8597 15.4337 14.2236 16.418 11.9709C16.5838 11.5913 16.4106 11.1492 16.031 10.9833C15.6515 10.8175 15.2093 10.9907 15.0435 11.3703C14.194 13.3144 12.2549 14.6706 10.0007 14.6706C7.74658 14.6706 5.80748 13.3144 4.95809 11.3703Z"
    fill="currentColor"
  />
</svg>
