<svg width="24" height="24" viewBox="0 0 24 24" fill="none" xmlns="http://www.w3.org/2000/svg" data-fui-icon="true">
  <path
    d="M21 10.75C21.414 10.7503 21.75 11.0859 21.75 11.5C21.75 16.5138 17.9647 20.6402 13.0964 21.1852C12.9016 21.207 12.75 21.3692 12.75 21.5653V23.25C12.75 23.6641 12.414 23.9997 12 24C11.5858 24 11.25 23.6642 11.25 23.25V21.5653C11.25 21.3693 11.0984 21.207 10.9036 21.1852C6.03501 20.6404 2.24902 16.514 2.24902 11.5C2.24902 11.0858 2.58579 10.75 3 10.75C3.41399 10.7503 3.75 11.0859 3.75 11.5C3.75 16.0563 7.44365 19.75 12 19.75C16.5561 19.7497 20.25 16.0562 20.25 11.5C20.25 11.0858 20.5858 10.75 21 10.75ZM12 0C15.3135 0.000263871 18 2.68645 18 6V11.5C18 14.8135 15.3135 17.4997 12 17.5C8.7898 17.5 6.16844 14.9789 6.00781 11.8086L6 11.5V6C6 2.68629 8.68629 0 12 0ZM12 1.5C9.51472 1.5 7.5 3.51472 7.5 6V11.5C7.5 13.9853 9.51472 16 12 16C14.4851 15.9997 16.5 13.9851 16.5 11.5V6C16.5 3.51488 14.4851 1.50026 12 1.5Z"
    fill="currentColor"
  />
</svg>
