<svg width="12" height="12" viewBox="0 0 12 12" fill="none" xmlns="http://www.w3.org/2000/svg" data-fui-icon="true">
  <g clip-path="url(#clip0_1299_26)">
    <path
      d="M10.75 4.09961C11.1642 4.09961 11.5 4.4354 11.5 4.84961C11.5 7.52212 9.50293 9.72644 6.91981 10.0554C6.82387 10.0676 6.75 10.1481 6.75 10.2448V10.3125C6.75 10.4161 6.83395 10.5 6.9375 10.5H8.25C8.66421 10.5 9 10.8358 9 11.25C9 11.6642 8.66421 12 8.25 12H3.75C3.33579 12 3 11.6642 3 11.25C3 10.8358 3.33579 10.5 3.75 10.5H5.0625C5.16605 10.5 5.25 10.4161 5.25 10.3125V10.2448C5.25 10.1481 5.17613 10.0676 5.08019 10.0554C2.49707 9.72644 0.5 7.52212 0.5 4.84961C0.5 4.4354 0.835786 4.09961 1.25 4.09961C1.66421 4.09961 2 4.4354 2 4.84961C2 6.92068 3.67893 8.59961 5.75 8.59961H6.25C8.32107 8.59961 10 6.92068 10 4.84961C10 4.4354 10.3358 4.09961 10.75 4.09961ZM6 0C7.65685 0 9 1.34315 9 3V4.5C8.99979 6.15667 7.65672 7.5 6 7.5C4.39503 7.5 3.08441 6.23926 3.00391 4.6543L3 4.5V3C3 1.34315 4.34315 0 6 0ZM6 1.5C5.17157 1.5 4.5 2.17157 4.5 3V4.5C4.50021 5.32825 5.1717 6 6 6C6.8283 6 7.49979 5.32825 7.5 4.5V3C7.5 2.17157 6.82843 1.5 6 1.5Z"
      fill="currentColor"
    />
  </g>
  <defs>
    <clipPath id="clip0_1299_26"><path fill="currentColor" d="M0 0H12V12H0z" /></clipPath>
  </defs>
</svg>
