<svg width="24" height="24" viewBox="0 0 24 24" fill="none" xmlns="http://www.w3.org/2000/svg" data-fui-icon="true">
  <path
    d="M0.219727 0.219727C0.51262 -0.0731667 0.98738 -0.0731667 1.28027 0.219727L23.7803 22.7197C24.0732 23.0126 24.0732 23.4874 23.7803 23.7803C23.4874 24.0732 23.0126 24.0732 22.7197 23.7803L18.2549 19.3154C18.147 19.2075 17.9755 19.1982 17.8536 19.29C16.4986 20.31 14.8706 20.9869 13.0967 21.1855C12.902 21.2075 12.751 21.3695 12.751 21.5654V23.25C12.751 23.6639 12.4147 23.9995 12.001 24C11.5868 24 11.251 23.6642 11.251 23.25V21.5654C11.251 21.3695 11.099 21.2075 10.9043 21.1855C6.03575 20.6407 2.24902 16.514 2.24902 11.5C2.24902 11.0858 2.58676 10.75 3.00098 10.75C3.41474 10.7505 3.75098 11.0861 3.75098 11.5C3.75098 16.0563 7.44463 19.75 12.001 19.75C13.7577 19.7498 15.3845 19.1984 16.7222 18.262C16.8709 18.1579 16.8849 17.9454 16.7565 17.8171L15.5641 16.6246C15.4618 16.5224 15.3017 16.5083 15.1792 16.5852C14.2578 17.1636 13.1693 17.4998 12.001 17.5C8.68727 17.5 6.00098 14.8137 6.00098 11.5V7.18579C6.00098 7.10622 5.96937 7.02992 5.91311 6.97366L0.219727 1.28027C-0.0731667 0.98738 -0.0731667 0.51262 0.219727 0.219727ZM21.001 10.75C21.4147 10.7505 21.751 11.0861 21.751 11.5C21.751 13.3766 21.2184 15.1277 20.2992 16.6142C20.1998 16.775 19.9772 16.7965 19.8436 16.6629L19.1856 16.005C19.0872 15.9065 19.0699 15.7535 19.1398 15.6331C19.8453 14.4177 20.251 13.0064 20.251 11.5C20.251 11.0858 20.5868 10.75 21.001 10.75ZM12.001 0C15.3142 0.000527712 18.001 2.68662 18.001 6V11.5C18.001 12.3178 17.8355 13.0966 17.5387 13.8068C17.4597 13.9956 17.216 14.0353 17.0713 13.8906L6.73722 3.55656C6.64717 3.46651 6.62314 3.32905 6.6823 3.21628C7.68547 1.30397 9.69173 0 12.001 0Z"
    fill="currentColor"
  />
</svg>
