<svg width="12" height="12" viewBox="0 0 12 12" fill="none" xmlns="http://www.w3.org/2000/svg" data-fui-icon="true">
  <path
    fill-rule="evenodd"
    clip-rule="evenodd"
    d="M0.219544 0.219723C0.512414 -0.0728604 0.987264 -0.0729539 1.28007 0.219723L11.7799 10.7195C12.0725 11.0123 12.0724 11.4872 11.7799 11.7801C11.4871 12.0729 11.0123 12.0728 10.7194 11.7801L8.67067 9.73138C8.58053 9.64124 8.4436 9.6187 8.3266 9.66931C7.88566 9.86008 7.41363 9.99252 6.91962 10.0555C6.82374 10.0677 6.7498 10.1483 6.7497 10.2449V10.3123C6.7497 10.4159 6.83365 10.4998 6.9372 10.4998H8.24967C8.66361 10.5 8.99955 10.8358 8.99966 11.2498C8.99966 11.6639 8.66368 11.9996 8.24967 11.9998H3.74975C3.33555 11.9998 2.99977 11.664 2.99977 11.2498C2.99988 10.8357 3.33561 10.4998 3.74975 10.4998H5.06223C5.16558 10.4996 5.24973 10.4157 5.24973 10.3123V10.2449C5.24963 10.1484 5.17549 10.0679 5.07981 10.0555C2.49677 9.72651 0.499813 7.52196 0.499813 4.84952C0.49992 4.43541 0.835659 4.09954 1.2498 4.09954C1.66374 4.09977 1.99968 4.43555 1.99979 4.84952C1.99979 6.92055 3.67869 8.59946 5.74972 8.59946H6.24971C6.46661 8.59943 6.67896 8.58036 6.88554 8.5444C7.10765 8.50573 7.17581 8.23652 7.01639 8.07709L6.51324 7.57395C6.44689 7.50759 6.35339 7.47702 6.26 7.48622C6.17427 7.49468 6.08754 7.49985 5.99971 7.49987C4.34302 7.49987 2.99998 6.15657 2.99977 4.49992V4.18474C2.99977 4.10517 2.96816 4.02887 2.9119 3.97261L0.219544 1.28025C-0.0731827 0.987392 -0.07318 0.512579 0.219544 0.219723ZM10.7496 4.09954C11.1636 4.09977 11.4995 4.43555 11.4996 4.84952C11.4996 5.70882 11.2917 6.51915 10.9252 7.2347C10.8366 7.40784 10.6062 7.43555 10.4687 7.29801L9.78442 6.61376C9.69452 6.52386 9.67217 6.38749 9.7204 6.26985C9.90001 5.83177 9.99964 5.35222 9.99964 4.84952C9.99975 4.43541 10.3355 4.09954 10.7496 4.09954ZM5.99971 0C7.65627 0.000235228 8.99955 1.34336 8.99966 2.99995V4.49992C8.99963 4.73364 8.9717 4.96079 8.92016 5.17888C8.87062 5.38848 8.61345 5.44279 8.46116 5.29049L4.18836 1.0177C4.06786 0.897197 4.07108 0.699329 4.20751 0.597213C4.70749 0.22299 5.3272 0 5.99971 0Z"
    fill="currentColor"
  />
</svg>
