<svg width="16" height="16" viewBox="0 0 16 16" fill="none" xmlns="http://www.w3.org/2000/svg" data-fui-icon="true">
  <g clip-path="url(#clip0_7227_170)">
    <path
      d="M0.220703 0.219727C0.513524 -0.0730946 0.988339 -0.0729506 1.28125 0.219727L15.7812 14.7197C16.0741 15.0126 16.0741 15.4874 15.7812 15.7803C15.4883 16.073 15.0135 16.0731 14.7207 15.7803L12.1068 13.1664C12.003 13.0625 11.8396 13.0497 11.7171 13.1308C10.9078 13.6667 9.97711 14.0339 8.97363 14.1787C8.84758 14.1969 8.7511 14.3033 8.75098 14.4307V15.25C8.75098 15.6642 8.41516 16 8.00098 16C7.58676 16 7.25098 15.6642 7.25098 15.25V14.4307C7.25085 14.3034 7.15434 14.1969 7.02832 14.1787C3.76134 13.7072 1.25098 10.8976 1.25098 7.5C1.25098 7.08579 1.58676 6.75 2.00098 6.75C2.41516 6.75003 2.75098 7.08581 2.75098 7.5C2.75098 10.3995 5.10148 12.75 8.00098 12.75C8.91863 12.75 9.77972 12.5124 10.5296 12.0979C10.6967 12.0055 10.7204 11.78 10.5854 11.645L10.0995 11.1591C10.0048 11.0643 9.85921 11.045 9.73862 11.1033C9.21322 11.3574 8.62383 11.5 8.00098 11.5C5.86094 11.5 4.11309 9.81944 4.00586 7.70605L4.00098 7.5V5.18481C4.00098 5.10525 3.96937 5.02894 3.91311 4.97268L0.220703 1.28027C-0.0719023 0.987435 -0.0719023 0.512565 0.220703 0.219727ZM14.001 6.75C14.4152 6.75003 14.751 7.08581 14.751 7.5C14.751 8.53238 14.5191 9.51044 14.1047 10.3851C14.0191 10.5658 13.7815 10.5998 13.6401 10.4584L12.9482 9.76652C12.8605 9.67888 12.8366 9.54666 12.8823 9.43145C13.1194 8.83355 13.251 8.18229 13.251 7.5C13.251 7.08579 13.5868 6.75 14.001 6.75ZM5.50098 7.5C5.50098 8.88071 6.62027 10 8.00098 10C8.11559 10 8.22826 9.99202 8.33858 9.97674C8.55841 9.94631 8.62251 9.68208 8.46558 9.52515L6.01311 7.07268C5.82412 6.88369 5.50098 7.01754 5.50098 7.28481V7.5ZM8.00098 0C10.2101 3.06018e-05 12.001 1.79088 12.001 4V7.5C12.001 7.72538 11.982 7.94633 11.9459 8.16147C11.9084 8.38536 11.6373 8.45571 11.4768 8.29518L10.5888 7.4072C10.5326 7.35094 10.501 7.27464 10.501 7.19507V4C10.501 2.61931 9.38166 1.50003 8.00098 1.5C7.23671 1.5 6.55391 1.84381 6.09575 2.38447C5.97053 2.53225 5.74163 2.55999 5.60466 2.42302L4.97548 1.79384C4.87013 1.68849 4.85715 1.52092 4.95377 1.40749C5.68754 0.546047 6.78072 0 8.00098 0Z"
      fill="currentColor"
    />
  </g>
  <defs>
    <clipPath id="clip0_7227_170"><path fill="currentColor" d="M0 0H16V16H0z" /></clipPath>
  </defs>
</svg>
