<svg width="20" height="20" viewBox="0 0 20 20" fill="none" xmlns="http://www.w3.org/2000/svg" data-fui-icon="true">
  <path
    fill-rule="evenodd"
    clip-rule="evenodd"
    d="M0.219426 0.219727C0.512337 -0.0729844 0.98812 -0.0731111 1.28095 0.219727L19.78 18.7197C20.0726 19.0126 20.0726 19.4874 19.78 19.7803C19.4871 20.0731 19.0123 20.073 18.7194 19.7803L14.7393 15.8002C14.634 15.6949 14.4694 15.6791 14.343 15.7577C13.3588 16.37 12.2374 16.7823 11.0337 16.9333C10.8732 16.9534 10.7497 17.0877 10.7497 17.2495V18.1875C10.7497 18.3601 10.8896 18.5 11.0622 18.5H13.2497C13.6638 18.5001 13.9997 18.8359 13.9997 19.25C13.9997 19.6641 13.6638 19.9999 13.2497 20H6.7497C6.33554 19.9999 5.9997 19.6642 5.9997 19.25C5.9997 18.8358 6.33554 18.5001 6.7497 18.5H8.9372C9.10979 18.5 9.2497 18.3601 9.2497 18.1875V17.2495C9.2497 17.0877 9.12586 16.9534 8.96539 16.9333C4.89739 16.4244 1.7497 12.9559 1.7497 8.75C1.7497 8.33583 2.08554 8.00007 2.4997 8C2.91379 8.00014 3.2497 8.33587 3.2497 8.75C3.2497 12.4779 6.27183 15.4999 9.9997 15.5C11.1285 15.5 12.1911 15.2209 13.1254 14.7302C13.3052 14.6358 13.3345 14.3953 13.1909 14.2518L12.3419 13.4028C12.2476 13.3084 12.1042 13.2853 11.9818 13.3384C11.3742 13.6023 10.7045 13.75 9.9997 13.75C7.23839 13.7499 4.9997 11.5113 4.9997 8.75V6.18999C4.9997 6.10711 4.96677 6.02762 4.90817 5.96902L0.219426 1.28027C-0.0731436 0.987441 -0.0731403 0.512557 0.219426 0.219727ZM17.4997 8C17.9138 8.00014 18.2497 8.33587 18.2497 8.75C18.2497 10.4057 17.7603 11.9461 16.9203 13.2376C16.8151 13.3994 16.5884 13.4178 16.452 13.2814L15.8148 12.6442C15.7098 12.5392 15.6939 12.3753 15.771 12.2485C16.3911 11.2281 16.7497 10.0312 16.7497 8.75C16.7497 8.33583 17.0855 8.00007 17.4997 8ZM9.9997 0C12.761 0.000143019 14.9997 2.23866 14.9997 5V8.75C14.9997 9.49004 14.8377 10.192 14.5488 10.8237C14.4627 11.012 14.2167 11.0461 14.0703 10.8997L5.83938 2.66879C5.73927 2.56868 5.71814 2.41316 5.79486 2.29418C6.68485 0.91411 8.23551 8.42951e-05 9.9997 0Z"
    fill="currentColor"
  />
</svg>
