<svg
  width="16"
  height="16"
  viewBox="0 0 16 16"
  fill="none"
  xmlns="http://www.w3.org/2000/svg"
  data-fui-icon="true"
>
  <path
    fill-rule="evenodd"
    clip-rule="evenodd"
    d="M8.0006 0.753174C6.02159 0.753174 4.41728 2.35749 4.41728 4.33651V7.33651C4.41728 9.31552 6.02159 10.9198 8.0006 10.9198C9.97961 10.9198 11.5839 9.31552 11.5839 7.33651V4.33651C11.5839 2.35749 9.97961 0.753174 8.0006 0.753174ZM5.91728 4.33651C5.91728 3.18591 6.85003 2.25317 8.0006 2.25317C9.15118 2.25317 10.0839 3.18592 10.0839 4.33651V7.33651C10.0839 8.48709 9.15118 9.41984 8.0006 9.41984C6.85003 9.41984 5.91728 8.4871 5.91728 7.33651V4.33651Z"
    fill="currentColor"
  />
  <path
    d="M4.10393 9.03623C3.93809 8.65667 3.49596 8.4834 3.11639 8.64924C2.73682 8.81508 2.56356 9.25721 2.7294 9.63678C3.52046 11.4474 5.21826 12.7733 7.2506 13.038V13.7469H5.83331C5.4191 13.7469 5.08331 14.0827 5.08331 14.4969C5.08331 14.9112 5.4191 15.2469 5.83331 15.2469H10.1666C10.5809 15.2469 10.9166 14.9112 10.9166 14.4969C10.9166 14.0827 10.5809 13.7469 10.1666 13.7469H8.7506V13.038C10.783 12.7733 12.4808 11.4474 13.2719 9.6368C13.4377 9.25723 13.2644 8.81509 12.8849 8.64925C12.5053 8.4834 12.0632 8.65666 11.8973 9.03622C11.2408 10.5388 9.74222 11.5865 8.0006 11.5865C6.25901 11.5865 4.76043 10.5388 4.10393 9.03623Z"
    fill="currentColor"
  />
</svg>
