<svg width="12" height="12" viewBox="0 0 12 12" fill="none" xmlns="http://www.w3.org/2000/svg" data-fui-icon="true">
  <path
    d="M0.219727 0.219727C0.512581 -0.0731178 0.987375 -0.0730404 1.28027 0.219727L11.7803 10.7197C12.073 11.0126 12.0731 11.4874 11.7803 11.7803C11.4874 12.0731 11.0126 12.0731 10.7197 11.7803L8.67099 9.73153C8.58085 9.6414 8.44394 9.61885 8.32695 9.66946C7.88599 9.8602 7.41389 9.99275 6.91992 10.0557C6.82407 10.068 6.75 10.1485 6.75 10.2451V10.3125C6.75 10.416 6.83403 10.4999 6.9375 10.5H8.25C8.66421 10.5 9 10.8358 9 11.25C9 11.6642 8.66421 12 8.25 12H3.75C3.33587 11.9999 3 11.6642 3 11.25C3 10.8358 3.33587 10.5001 3.75 10.5H5.0625C5.16605 10.5 5.25 10.4161 5.25 10.3125V10.2451C5.25 10.1484 5.17602 10.0679 5.08008 10.0557C2.49708 9.7266 0.5 7.52203 0.5 4.84961C0.5 4.43546 0.835873 4.09971 1.25 4.09961C1.66421 4.09961 2 4.4354 2 4.84961C2 6.92061 3.67902 8.59951 5.75 8.59961H6.25C6.46709 8.59961 6.67981 8.58083 6.88671 8.5451C7.10889 8.50672 7.17709 8.23764 7.01766 8.07821L6.51351 7.57406C6.44717 7.50771 6.3537 7.47713 6.26033 7.48634C6.17457 7.4948 6.08779 7.5 6 7.5C4.39511 7.4999 3.08441 6.2392 3.00391 4.6543L3 4.5V4.18481C3 4.10525 2.96839 4.02894 2.91213 3.97268L0.219727 1.28027C-0.0729937 0.987421 -0.072969 0.51259 0.219727 0.219727ZM10.75 4.09961C11.1642 4.09961 11.5 4.4354 11.5 4.84961C11.5 5.70906 11.2921 6.51928 10.9256 7.23487C10.837 7.40799 10.6066 7.4357 10.4691 7.29816L9.78479 6.61389C9.69488 6.52398 9.67253 6.38759 9.72077 6.26995C9.90044 5.83185 10 5.35243 10 4.84961C10 4.43546 10.3359 4.09971 10.75 4.09961ZM6 0C7.65685 0 9 1.34315 9 3V4.5C8.99997 4.73382 8.97206 4.96096 8.92051 5.17904C8.87097 5.38862 8.61381 5.44291 8.46152 5.29063L7.58787 4.41697C7.53161 4.36071 7.5 4.2844 7.5 4.20484V3C7.5 2.17157 6.82843 1.5 6 1.5C5.72863 1.50003 5.47404 1.57219 5.25441 1.69829C5.1188 1.77615 4.94312 1.77222 4.83255 1.66165L4.18858 1.01768C4.06809 0.897193 4.0713 0.699344 4.20771 0.597223C4.70768 0.222918 5.32738 4.17971e-05 6 0Z"
    fill="currentColor"
  />
</svg>
