<svg
  width="16"
  height="16"
  viewBox="0 0 16 16"
  fill="none"
  xmlns="http://www.w3.org/2000/svg"
  data-fui-icon="true"
>
  <path
    fill-rule="evenodd"
    clip-rule="evenodd"
    d="M8.00063 0.753174C6.02162 0.753174 4.41731 2.35749 4.41731 4.33651V7.33651C4.41731 9.31552 6.02162 10.9198 8.00063 10.9198C9.97964 10.9198 11.584 9.31552 11.584 7.33651V4.33651C11.584 2.35749 9.97964 0.753174 8.00063 0.753174ZM5.91731 4.33651C5.91731 3.18591 6.85006 2.25317 8.00063 2.25317C9.15122 2.25317 10.084 3.18592 10.084 4.33651V7.33651C10.084 8.48709 9.15121 9.41984 8.00063 9.41984C6.85006 9.41984 5.91731 8.4871 5.91731 7.33651V4.33651Z"
    fill="currentColor"
  />
  <path
    d="M4.10396 9.03623C3.93812 8.65667 3.49599 8.4834 3.11642 8.64924C2.73685 8.81508 2.56359 9.25721 2.72943 9.63678C3.52049 11.4474 5.21829 12.7733 7.25063 13.038V13.7469H5.83334C5.41913 13.7469 5.08334 14.0827 5.08334 14.4969C5.08334 14.9112 5.41913 15.2469 5.83334 15.2469H10.1667C10.5809 15.2469 10.9167 14.9112 10.9167 14.4969C10.9167 14.0827 10.5809 13.7469 10.1667 13.7469H8.75063V13.038C10.783 12.7733 12.4808 11.4474 13.2719 9.6368C13.4377 9.25723 13.2645 8.81509 12.8849 8.64925C12.5054 8.4834 12.0632 8.65666 11.8974 9.03622C11.2408 10.5388 9.74225 11.5865 8.00063 11.5865C6.25904 11.5865 4.76046 10.5388 4.10396 9.03623Z"
    fill="currentColor"
  />
</svg>
