<svg width="32" height="32" viewBox="0 0 32 32" fill="none" xmlns="http://www.w3.org/2000/svg" data-fui-icon="true">
  <path
    fill-rule="evenodd"
    clip-rule="evenodd"
    d="M1.21961 1.22C1.5125 0.927108 1.98726 0.927108 2.28016 1.22L30.7802 29.72C31.0729 30.0129 31.073 30.4877 30.7802 30.7805C30.4873 31.0733 30.0125 31.0732 29.7196 30.7805L24.2362 25.2972C24.0565 25.1174 23.7712 25.102 23.5668 25.2532C21.7578 26.5916 19.5844 27.4657 17.2204 27.6908C16.9567 27.7159 16.7499 27.9338 16.7499 28.1987V29.0003C16.7499 29.2764 16.9737 29.5003 17.2499 29.5003H20.9999C21.4139 29.5005 21.7499 29.8362 21.7499 30.2503C21.7497 30.6642 21.4138 31.0001 20.9999 31.0003H10.9999C10.586 31 10.25 30.6642 10.2499 30.2503C10.2499 29.8362 10.5859 29.5005 10.9999 29.5003H14.7499C15.026 29.5003 15.2499 29.2764 15.2499 29.0003V28.1987C15.2499 27.9338 15.0426 27.7159 14.7789 27.6908C8.31035 27.076 3.25003 21.6297 3.24988 15.0003C3.24988 14.5862 3.58588 14.2505 3.99988 14.2503C4.41393 14.2505 4.74988 14.5862 4.74988 15.0003C4.75004 21.2132 9.78698 26.25 15.9999 26.2503C18.3766 26.2502 20.5799 25.5107 22.3959 24.2521C22.6439 24.0802 22.6663 23.7272 22.4529 23.5139L20.8246 21.8855C20.654 21.7149 20.3868 21.692 20.1813 21.8184C18.9647 22.567 17.5331 23.0002 15.9999 23.0003C11.5819 23 8.00004 19.4183 7.99988 15.0003V9.26793C7.99988 9.13532 7.9472 9.00814 7.85344 8.91437L1.21961 2.28055C0.926757 1.98769 0.926837 1.5129 1.21961 1.22ZM27.9999 14.2503C28.4139 14.2505 28.7499 14.5862 28.7499 15.0003C28.7498 17.7631 27.8698 20.3196 26.3762 22.4073C26.2017 22.6512 25.8512 22.6719 25.6391 22.4598L25.2759 22.0966C25.0993 21.92 25.0811 21.6407 25.2243 21.436C26.4995 19.6123 27.2498 17.3944 27.2499 15.0003C27.2499 14.5862 27.5859 14.2505 27.9999 14.2503ZM15.9999 1.00027C20.4179 1.00054 23.9999 4.58216 23.9999 9.00027V15.0003C23.9998 16.4348 23.6216 17.7811 22.9602 18.9452C22.8047 19.2188 22.4337 19.2544 22.2112 19.0319L9.0135 5.83421C8.86418 5.68488 8.82344 5.45703 8.92205 5.27029C10.2628 2.73131 12.929 1.00045 15.9999 1.00027Z"
    fill="currentColor"
  />
</svg>
