<svg
  width="32"
  height="32"
  viewBox="0 0 32 32"
  fill="none"
  xmlns="http://www.w3.org/2000/svg"
  data-fui-icon="true"
>
  <path
    fill-rule="evenodd"
    clip-rule="evenodd"
    d="M16.0012 2.25623C12.4574 2.25623 9.58456 5.12907 9.58456 8.67289V14.6729C9.58456 18.2167 12.4574 21.0896 16.0012 21.0896C19.545 21.0896 22.4179 18.2167 22.4179 14.6729V8.67289C22.4179 5.12906 19.545 2.25623 16.0012 2.25623ZM11.0846 8.67289C11.0846 5.95749 13.2858 3.75623 16.0012 3.75623C18.7166 3.75623 20.9179 5.95749 20.9179 8.67289V14.6729C20.9179 17.3883 18.7166 19.5896 16.0012 19.5896C13.2858 19.5896 11.0846 17.3883 11.0846 14.6729V8.67289Z"
    fill="currentColor"
  />
  <path
    d="M7.52059 18.3726C7.35475 17.9931 6.91261 17.8198 6.53305 17.9856C6.15348 18.1515 5.98022 18.5936 6.14605 18.9732C7.70939 22.5513 11.1657 25.1156 15.2512 25.3971V28.2437H11.6666C11.2524 28.2437 10.9166 28.5794 10.9166 28.9937C10.9166 29.4079 11.2524 29.7437 11.6666 29.7437H20.3333C20.7475 29.7437 21.0833 29.4079 21.0833 28.9937C21.0833 28.5794 20.7475 28.2437 20.3333 28.2437H16.7512V25.3971C20.8368 25.1156 24.293 22.5514 25.8564 18.9732C26.0223 18.5936 25.849 18.1515 25.4695 17.9856C25.0899 17.8198 24.6478 17.993 24.4819 18.3726C23.0538 21.6412 19.7931 23.9229 16.0012 23.9229C12.2093 23.9229 8.94864 21.6412 7.52059 18.3726Z"
    fill="currentColor"
  />
</svg>
