<svg width="20" height="20" viewBox="0 0 20 20" fill="none" xmlns="http://www.w3.org/2000/svg" data-fui-icon="true">
  <path
    d="M8.49976 10C9.32818 10 9.99976 10.6716 9.99976 11.5V17.5C9.99976 18.3284 9.32818 19 8.49976 19C7.67144 18.9999 6.99976 18.3283 6.99976 17.5V15.1211L3.5603 18.5605C2.97451 19.1462 2.02495 19.1463 1.43921 18.5605C0.853585 17.9748 0.853585 17.0252 1.43921 16.4395L4.87866 13H2.49976C1.67144 12.9999 0.999756 12.3283 0.999756 11.5C0.999756 10.6717 1.67144 10.0001 2.49976 10H8.49976ZM16.4392 1.43945C17.025 0.853707 17.9745 0.853789 18.5603 1.43945C19.1461 2.02524 19.1461 2.97476 18.5603 3.56055L15.1208 7H17.4998C18.3282 7 18.9998 7.67157 18.9998 8.5C18.9998 9.32843 18.3282 10 17.4998 10H11.4998C10.6714 9.99987 9.99976 9.32835 9.99976 8.5V2.5C9.99976 1.67165 10.6714 1.00013 11.4998 1C12.3282 1 12.9998 1.67157 12.9998 2.5V4.87891L16.4392 1.43945Z"
    fill="currentColor"
  />
</svg>
