<svg width="32" height="32" viewBox="0 0 32 32" fill="none" xmlns="http://www.w3.org/2000/svg" data-fui-icon="true">
  <path
    d="M13.7498 16.9996C14.44 16.9996 14.9996 17.5594 14.9998 18.2496V29.7496C14.9998 30.44 14.4401 30.9996 13.7498 30.9996C13.0595 30.9995 12.4998 30.4399 12.4998 29.7496V21.2672L3.13354 30.6334C2.64539 31.1216 1.85412 31.1216 1.36597 30.6334C0.878117 30.1452 0.877913 29.3539 1.36597 28.8658L10.7322 19.4996H2.24976C1.55951 19.4995 0.999756 18.9399 0.999756 18.2496C0.999954 17.5595 1.55963 16.9998 2.24976 16.9996H13.7498ZM28.866 1.36584C29.354 0.877852 30.1454 0.878015 30.6335 1.36584C31.1217 1.85398 31.1216 2.64526 30.6335 3.13342L21.2673 12.4996H29.7498C30.44 12.4996 30.9996 13.0594 30.9998 13.7496C30.9998 14.44 30.4401 14.9996 29.7498 14.9996H18.2498C17.5595 14.9995 16.9998 14.4399 16.9998 13.7496V2.24963C17 1.55953 17.5596 0.999766 18.2498 0.999634C18.94 0.999634 19.4996 1.55945 19.4998 2.24963V10.7321L28.866 1.36584Z"
    fill="currentColor"
  />
</svg>
