<svg width="32" height="32" viewBox="0 0 32 32" fill="none" xmlns="http://www.w3.org/2000/svg" data-fui-icon="true">
  <path
    d="M13.9998 16.9996C14.5519 16.9996 14.9996 17.4475 14.9998 17.9996V29.9996C14.9998 30.5519 14.552 30.9996 13.9998 30.9996C13.4476 30.9995 12.9998 30.5518 12.9998 29.9996V20.4137L2.70679 30.7067C2.31626 31.0972 1.68325 31.0972 1.29272 30.7067C0.902505 30.3161 0.902302 29.683 1.29272 29.2926L11.5857 18.9996H1.99976C1.44758 18.9995 0.999756 18.5518 0.999756 17.9996C0.999954 17.4476 1.44771 16.9998 1.99976 16.9996H13.9998ZM29.2927 1.2926C29.6832 0.902241 30.3163 0.902403 30.7068 1.2926C31.0973 1.68311 31.0972 2.31614 30.7068 2.70667L20.4138 12.9996H29.9998C30.5519 12.9996 30.9996 13.4475 30.9998 13.9996C30.9998 14.5519 30.552 14.9996 29.9998 14.9996H17.9998C17.4476 14.9995 16.9998 14.5518 16.9998 13.9996V1.99963C17 1.4476 17.4477 0.999766 17.9998 0.999634C18.5519 0.999634 18.9996 1.44752 18.9998 1.99963V11.5856L29.2927 1.2926Z"
    fill="currentColor"
  />
</svg>
