<svg width="32" height="32" viewBox="0 0 32 32" fill="none" xmlns="http://www.w3.org/2000/svg" data-fui-icon="true">
  <path
    d="M27.2844 18.261C27.6985 18.2612 28.0344 18.5969 28.0344 19.011C28.0343 19.425 27.6984 19.7608 27.2844 19.761L20.8215 19.762L28.5305 27.469C28.8233 27.7617 28.8229 28.2366 28.5305 28.5295C28.2376 28.8224 27.7629 28.8224 27.47 28.5295L19.761 20.8225V27.2844C19.7608 27.6984 19.425 28.0344 19.011 28.0344C18.5969 28.0344 18.2612 27.6985 18.261 27.2844L18.26 19.011C18.26 18.5968 18.5968 18.26 19.011 18.26L27.2844 18.261ZM3.46899 3.46997C3.7618 3.17716 4.23663 3.17734 4.52954 3.46997L12.2395 11.178V4.71606C12.2396 4.30195 12.5754 3.96613 12.9895 3.96606C13.4035 3.96632 13.7385 4.30207 13.7385 4.71606L13.7395 12.9895C13.7393 13.4034 13.4034 13.7392 12.9895 13.7395L4.71606 13.7385C4.30209 13.7384 3.96631 13.4034 3.96606 12.9895C3.96612 12.5754 4.30197 12.2396 4.71606 12.2395L11.178 12.2385L3.46899 4.53052C3.17652 4.23776 3.17666 3.76281 3.46899 3.46997Z"
    fill="currentColor"
  />
</svg>
