<svg width="32" height="32" viewBox="0 0 32 32" fill="none" xmlns="http://www.w3.org/2000/svg" data-fui-icon="true">
  <path
    d="M14 16.4996C14.8283 16.4996 15.4998 17.1714 15.5 17.9996V29.4996C15.5 30.3281 14.8284 30.9996 14 30.9996C13.1717 30.9995 12.5 30.328 12.5 29.4996V21.6207L3.56055 30.5602C2.97476 31.146 2.02524 31.146 1.43945 30.5602C0.853972 29.9744 0.853769 29.0248 1.43945 28.4391L10.3789 19.4996H2.5C1.67169 19.4995 1 18.828 1 17.9996C1.0002 17.1715 1.67181 16.4998 2.5 16.4996H14ZM28.4395 1.43909C29.0251 0.853464 29.9748 0.853627 30.5605 1.43909C31.1463 2.02485 31.1463 2.97439 30.5605 3.56018L21.6211 12.4996H29.5C30.3283 12.4996 30.9998 13.1714 31 13.9996C31 14.8281 30.3284 15.4996 29.5 15.4996H18C17.1717 15.4995 16.5 14.828 16.5 13.9996V2.49963C16.5002 1.67146 17.1718 0.999766 18 0.999634C18.8283 0.999634 19.4998 1.67137 19.5 2.49963V10.3785L28.4395 1.43909Z"
    fill="currentColor"
  />
</svg>
