<svg width="16" height="16" viewBox="0 0 16 16" fill="none" xmlns="http://www.w3.org/2000/svg" data-fui-icon="true">
  <path
    d="M6.75 8.5C7.16421 8.5 7.5 8.83579 7.5 9.25V14.25C7.5 14.6642 7.16421 15 6.75 15C6.33579 15 6 14.6642 6 14.25V11.0605L2.28027 14.7803C1.98738 15.0732 1.51262 15.0732 1.21973 14.7803C0.926833 14.4874 0.926833 14.0126 1.21973 13.7197L4.93945 10H1.75C1.33579 10 1 9.66421 1 9.25C1 8.83579 1.33579 8.5 1.75 8.5H6.75ZM13.7197 1.21973C14.0126 0.926834 14.4874 0.926834 14.7803 1.21973C15.0732 1.51262 15.0732 1.98738 14.7803 2.28027L11.0605 6H14.25C14.6642 6 15 6.33579 15 6.75C15 7.16421 14.6642 7.5 14.25 7.5H9.25C8.83579 7.5 8.5 7.16421 8.5 6.75V1.75C8.5 1.33579 8.83579 1 9.25 1C9.66421 1 10 1.33579 10 1.75V4.93945L13.7197 1.21973Z"
    fill="currentColor"
  />
</svg>
