<svg width="12" height="12" viewBox="0 0 12 12" fill="none" xmlns="http://www.w3.org/2000/svg" data-fui-icon="true">
  <path
    d="M4.75 6.5C5.16421 6.5 5.5 6.83579 5.5 7.25V11.25C5.5 11.6642 5.16421 12 4.75 12C4.33579 12 4 11.6642 4 11.25V9.06055L1.28027 11.7803C0.98738 12.0732 0.51262 12.0732 0.219727 11.7803C-0.0731666 11.4874 -0.0731666 11.0126 0.219727 10.7197L2.93945 8H0.75C0.335786 8 0 7.66421 0 7.25C0 6.83579 0.335786 6.5 0.75 6.5H4.75ZM10.7197 0.219727C11.0126 -0.0731664 11.4874 -0.0731664 11.7803 0.219727C12.0732 0.51262 12.0732 0.98738 11.7803 1.28027L9.06055 4H11.25C11.6642 4 12 4.33579 12 4.75C12 5.16421 11.6642 5.5 11.25 5.5H7.25C6.83579 5.5 6.5 5.16421 6.5 4.75V0.75C6.5 0.335786 6.83579 0 7.25 0C7.66421 0 8 0.335786 8 0.75V2.93945L10.7197 0.219727Z"
    fill="currentColor"
  />
</svg>
