<svg width="16" height="16" viewBox="0 0 16 16" fill="none" xmlns="http://www.w3.org/2000/svg" data-fui-icon="true">
  <path
    d="M6.25 8.5C6.94036 8.5 7.5 9.05964 7.5 9.75V13.75C7.5 14.4404 6.94036 15 6.25 15C5.55964 15 5 14.4404 5 13.75V12.7676L3.13379 14.6338C2.64563 15.1219 1.85437 15.1219 1.36621 14.6338C0.878056 14.1456 0.878056 13.3544 1.36621 12.8662L3.23242 11H2.25C1.55964 11 1 10.4404 1 9.75C1 9.05964 1.55964 8.5 2.25 8.5H6.25ZM12.8662 1.36621C13.3544 0.878056 14.1456 0.878056 14.6338 1.36621C15.1219 1.85437 15.1219 2.64563 14.6338 3.13379L12.7676 5H13.75C14.4404 5 15 5.55964 15 6.25C15 6.94036 14.4404 7.5 13.75 7.5H9.75C9.05964 7.5 8.5 6.94036 8.5 6.25V2.25C8.5 1.55964 9.05964 1 9.75 1C10.4404 1 11 1.55964 11 2.25V3.23242L12.8662 1.36621Z"
    fill="currentColor"
  />
</svg>
