<svg width="20" height="20" viewBox="0 0 20 20" fill="none" xmlns="http://www.w3.org/2000/svg" data-fui-icon="true">
  <path
    d="M8.24976 10.5C8.94011 10.5 9.49976 11.0596 9.49976 11.75V17.75C9.49976 18.4404 8.94011 19 8.24976 19C7.55951 18.9999 6.99976 18.4403 6.99976 17.75V14.7676L3.13354 18.6338C2.64538 19.1218 1.85408 19.1219 1.36597 18.6338C0.877974 18.1457 0.877974 17.3543 1.36597 16.8662L5.23218 13H2.24976C1.55951 12.9999 0.999756 12.4403 0.999756 11.75C0.999756 11.0597 1.55951 10.5001 2.24976 10.5H8.24976ZM16.866 1.36621C17.3541 0.878096 18.1454 0.878178 18.6335 1.36621C19.1217 1.85437 19.1217 2.64563 18.6335 3.13379L14.7673 7H17.7498C18.4401 7 18.9998 7.55964 18.9998 8.25C18.9998 8.94036 18.4401 9.5 17.7498 9.5H11.7498C11.0595 9.49987 10.4998 8.94027 10.4998 8.25V2.25C10.4998 1.55973 11.0595 1.00013 11.7498 1C12.4401 1 12.9998 1.55964 12.9998 2.25V5.23242L16.866 1.36621Z"
    fill="currentColor"
  />
</svg>
