<svg width="32" height="32" viewBox="0 0 32 32" fill="none" xmlns="http://www.w3.org/2000/svg" data-fui-icon="true">
  <path
    d="M13.9998 16.4996C14.8281 16.4996 15.4996 17.1714 15.4998 17.9996V29.4996C15.4998 30.3281 14.8282 30.9996 13.9998 30.9996C13.1714 30.9995 12.4998 30.328 12.4998 29.4996V21.6207L3.5603 30.5602C2.97452 31.146 2.025 31.146 1.43921 30.5602C0.853728 29.9744 0.853524 29.0248 1.43921 28.4391L10.3787 19.4996H2.49976C1.67144 19.4995 0.999756 18.828 0.999756 17.9996C0.999954 17.1715 1.67156 16.4998 2.49976 16.4996H13.9998ZM28.4392 1.43909C29.0249 0.853464 29.9745 0.853627 30.5603 1.43909C31.1461 2.02485 31.146 2.97439 30.5603 3.56018L21.6208 12.4996H29.4998C30.3281 12.4996 30.9996 13.1714 30.9998 13.9996C30.9998 14.8281 30.3282 15.4996 29.4998 15.4996H17.9998C17.1714 15.4995 16.4998 14.828 16.4998 13.9996V2.49963C16.5 1.67146 17.1716 0.999766 17.9998 0.999634C18.8281 0.999634 19.4996 1.67137 19.4998 2.49963V10.3785L28.4392 1.43909Z"
    fill="currentColor"
  />
</svg>
