<svg width="12" height="12" viewBox="0 0 12 12" fill="none" xmlns="http://www.w3.org/2000/svg" data-fui-icon="true">
  <path
    d="M10.7013 6.505C11.1155 6.505 11.4513 6.84079 11.4513 7.255C11.4511 7.66901 11.1154 8.005 10.7013 8.005H9.06555L11.5304 10.4698C11.8232 10.7627 11.8232 11.2375 11.5304 11.5304C11.2375 11.8232 10.7627 11.8232 10.4698 11.5304L8.00403 9.06555V10.7013C8.00403 11.1154 7.66902 11.4511 7.255 11.4513C6.84079 11.4513 6.505 11.1155 6.505 10.7013V7.255C6.50501 6.84079 6.84079 6.50501 7.255 6.505H10.7013ZM0.469849 0.469849C0.762744 0.176986 1.23751 0.176966 1.5304 0.469849L3.99524 2.93469V1.29797C3.99544 0.884028 4.33128 0.548133 4.74524 0.547974C5.15933 0.547976 5.49504 0.883931 5.49524 1.29797V4.74524C5.49524 5.15945 5.15945 5.49524 4.74524 5.49524H1.29797C0.883951 5.49502 0.548951 5.15931 0.54895 4.74524C0.54911 4.3313 0.88405 3.99546 1.29797 3.99524H2.93469L0.469849 1.5304C0.176964 1.23751 0.17698 0.762744 0.469849 0.469849Z"
    fill="currentColor"
  />
</svg>
