<svg width="20" height="20" viewBox="0 0 20 20" fill="none" xmlns="http://www.w3.org/2000/svg" data-fui-icon="true">
  <path
    d="M8.74976 10.5C9.16397 10.5 9.49976 10.8358 9.49976 11.25V18.25C9.49976 18.6642 9.16397 19 8.74976 19C8.33566 18.9999 7.99976 18.6641 7.99976 18.25V13.0605L2.28003 18.7803C1.98713 19.073 1.51233 19.0731 1.21948 18.7803C0.926756 18.4874 0.926756 18.0126 1.21948 17.7197L6.93921 12H1.74976C1.33566 11.9999 0.999756 11.6641 0.999756 11.25C0.999756 10.8359 1.33566 10.5001 1.74976 10.5H8.74976ZM17.7195 1.21973C18.0123 0.926875 18.4871 0.926959 18.78 1.21973C19.0729 1.51262 19.0729 1.98738 18.78 2.28027L13.0603 8H18.2498C18.664 8 18.9998 8.33579 18.9998 8.75C18.9998 9.16421 18.664 9.5 18.2498 9.5H11.2498C10.8357 9.49986 10.4998 9.16413 10.4998 8.75V1.75C10.4998 1.33587 10.8357 1.00014 11.2498 1C11.664 1 11.9998 1.33579 11.9998 1.75V6.93945L17.7195 1.21973Z"
    fill="currentColor"
  />
</svg>
