<svg width="24" height="24" viewBox="0 0 24 24" fill="none" xmlns="http://www.w3.org/2000/svg" data-fui-icon="true">
  <path
    d="M9.75 13.5C10.1642 13.5 10.5 13.8358 10.5 14.25V22.25C10.5 22.6642 10.1642 23 9.75 23C9.33579 23 9 22.6642 9 22.25V16.0605L1.28027 23.7803C0.98738 24.0732 0.51262 24.0732 0.219727 23.7803C-0.0731667 23.4874 -0.0731667 23.0126 0.219727 22.7197L7.93945 15H1.75C1.33579 15 1 14.6642 1 14.25C1 13.8358 1.33579 13.5 1.75 13.5H9.75ZM22.7197 0.219727C23.0126 -0.0731667 23.4874 -0.0731667 23.7803 0.219727C24.0732 0.51262 24.0732 0.98738 23.7803 1.28027L16.0605 9H22.25C22.6642 9 23 9.33579 23 9.75C23 10.1642 22.6642 10.5 22.25 10.5H14.25C13.8358 10.5 13.5 10.1642 13.5 9.75V1.75C13.5 1.33579 13.8358 1 14.25 1C14.6642 1 15 1.33579 15 1.75V7.93945L22.7197 0.219727Z"
    fill="currentColor"
  />
</svg>
