<svg width="12" height="12" viewBox="0 0 12 12" fill="none" xmlns="http://www.w3.org/2000/svg" data-fui-icon="true">
  <path
    d="M4.75 6C5.44036 6 6 6.55964 6 7.25V10.75C6 11.4404 5.44036 12 4.75 12C4.05964 12 3.5 11.4404 3.5 10.75V10.2676L2.13379 11.6338C1.64563 12.1219 0.854366 12.1219 0.366211 11.6338C-0.121944 11.1456 -0.121944 10.3544 0.366211 9.86621L1.73242 8.5H1.25C0.559644 8.5 0 7.94036 0 7.25C0 6.55964 0.559644 6 1.25 6H4.75ZM9.86621 0.366211C10.3544 -0.121944 11.1456 -0.121944 11.6338 0.366211C12.1219 0.854366 12.1219 1.64563 11.6338 2.13379L10.2676 3.5H10.75C11.4404 3.5 12 4.05964 12 4.75C12 5.44036 11.4404 6 10.75 6H7.25C6.55964 6 6 5.44036 6 4.75V1.25C6 0.559644 6.55964 0 7.25 0C7.94036 0 8.5 0.559644 8.5 1.25V1.73242L9.86621 0.366211Z"
    fill="currentColor"
  />
</svg>
