<svg width="16" height="16" viewBox="0 0 16 16" fill="none" xmlns="http://www.w3.org/2000/svg" data-fui-icon="true">
  <path
    d="M6.25 9C6.66421 9 7 9.33579 7 9.75V14.25C7 14.6642 6.66421 15 6.25 15C5.83579 15 5.5 14.6642 5.5 14.25V11.5605L1.28027 15.7803C0.98738 16.0732 0.51262 16.0732 0.219727 15.7803C-0.0731667 15.4874 -0.0731667 15.0126 0.219727 14.7197L4.43945 10.5H1.75C1.33579 10.5 1 10.1642 1 9.75C1 9.33579 1.33579 9 1.75 9H6.25ZM14.7197 0.219727C15.0126 -0.0731667 15.4874 -0.0731667 15.7803 0.219727C16.0732 0.51262 16.0732 0.98738 15.7803 1.28027L11.5605 5.5H14.25C14.6642 5.5 15 5.83579 15 6.25C15 6.66421 14.6642 7 14.25 7H9.75C9.33579 7 9 6.66421 9 6.25V1.75C9 1.33579 9.33579 1 9.75 1C10.1642 1 10.5 1.33579 10.5 1.75V4.43945L14.7197 0.219727Z"
    fill="currentColor"
  />
</svg>
