<svg width="20" height="20" viewBox="0 0 20 20" fill="none" xmlns="http://www.w3.org/2000/svg" data-fui-icon="true">
  <path
    d="M8.25 10.5C8.94036 10.5 9.5 11.0596 9.5 11.75V17.75C9.5 18.4404 8.94036 19 8.25 19C7.55976 18.9999 7 18.4403 7 17.75V14.7676L3.13379 18.6338C2.64562 19.1218 1.85433 19.1219 1.36621 18.6338C0.878218 18.1457 0.878218 17.3543 1.36621 16.8662L5.23242 13H2.25C1.55976 12.9999 1 12.4403 1 11.75C1 11.0597 1.55976 10.5001 2.25 10.5H8.25ZM16.8662 1.36621C17.3543 0.878096 18.1456 0.878178 18.6338 1.36621C19.1219 1.85437 19.1219 2.64563 18.6338 3.13379L14.7676 7H17.75C18.4404 7 19 7.55964 19 8.25C19 8.94036 18.4404 9.5 17.75 9.5H11.75C11.0598 9.49987 10.5 8.94027 10.5 8.25V2.25C10.5 1.55973 11.0598 1.00013 11.75 1C12.4404 1 13 1.55964 13 2.25V5.23242L16.8662 1.36621Z"
    fill="currentColor"
  />
</svg>
