<svg width="16" height="16" viewBox="0 0 16 16" fill="none" xmlns="http://www.w3.org/2000/svg" data-fui-icon="true">
  <path
    d="M9.5 1C11.433 1 13 2.567 13 4.5V11.5C13 13.433 11.433 15 9.5 15H6.5C4.567 15 3 13.433 3 11.5V4.5C3 2.567 4.567 1 6.5 1H9.5ZM6.5 2.5C5.39543 2.5 4.5 3.39543 4.5 4.5V11.5C4.5 12.6046 5.39543 13.5 6.5 13.5H9.5C10.6046 13.5 11.5 12.6046 11.5 11.5V4.5C11.5 3.39543 10.6046 2.5 9.5 2.5H6.5ZM9.5 11C9.91421 11 10.25 11.3358 10.25 11.75C10.25 12.1642 9.91421 12.5 9.5 12.5H6.5C6.08579 12.5 5.75 12.1642 5.75 11.75C5.75 11.3358 6.08579 11 6.5 11H9.5Z"
    fill="currentColor"
  />
</svg>
