<svg width="12" height="12" viewBox="0 0 12 12" fill="none" xmlns="http://www.w3.org/2000/svg" data-fui-icon="true">
  <path
    d="M7.25 0C9.04493 2.68444e-08 10.5 1.45507 10.5 3.25V8.75C10.5 10.5449 9.04493 12 7.25 12H4.75C2.95507 12 1.5 10.5449 1.5 8.75V3.25C1.5 1.45507 2.95507 1.07376e-07 4.75 0H7.25ZM4.75 1.5C3.7835 1.5 3 2.2835 3 3.25V8.75C3 9.7165 3.7835 10.5 4.75 10.5H7.25C8.2165 10.5 9 9.7165 9 8.75V3.25C9 2.2835 8.2165 1.5 7.25 1.5H4.75ZM7 8C7.41421 8 7.75 8.33579 7.75 8.75C7.75 9.16421 7.41421 9.5 7 9.5H5C4.58579 9.5 4.25 9.16421 4.25 8.75C4.25 8.33579 4.58579 8 5 8H7Z"
    fill="currentColor"
  />
</svg>
