<svg width="16" height="16" viewBox="0 0 16 16" fill="none" xmlns="http://www.w3.org/2000/svg" data-fui-icon="true">
  <path
    fill-rule="evenodd"
    clip-rule="evenodd"
    d="M8.00043 0C9.49914 0.000118287 10.5381 0.33256 11.1918 0.658203C12.0911 1.10636 12.142 2.13599 11.7592 2.79297L10.8159 4.41016C13.4741 5.78106 15.067 8.40458 14.9682 10.874C14.9132 12.2474 14.3293 13.558 13.1362 14.5117C11.9542 15.4564 10.2401 15.9999 8.00043 16C5.76053 16 4.04578 15.4564 2.86371 14.5117C1.67049 13.558 1.08669 12.2474 1.03168 10.874C0.932928 8.40456 2.52569 5.78105 5.18403 4.41016L4.24067 2.79395C3.85703 2.13659 3.90776 1.10636 4.80805 0.658203L5.07172 0.537109C5.72924 0.255314 6.68901 0 8.00043 0ZM6.39887 5.5C3.85864 6.55014 2.4529 8.86395 2.53071 10.8135C2.56951 11.7836 2.97038 12.6765 3.80024 13.3398C4.64155 14.0122 5.99077 14.5 8.00043 14.5C10.0098 14.4999 11.3585 14.0122 12.1997 13.3398C13.0294 12.6765 13.4304 11.7835 13.4692 10.8135C13.547 8.86416 12.1415 6.5503 9.602 5.5H6.39887ZM8.00239 6.25C8.41651 6.2501 8.75239 6.58585 8.75239 7V7.12695C8.86519 7.16101 8.97866 7.20028 9.08735 7.24609C9.43494 7.39268 9.92257 7.67159 10.1694 8.16504C10.3543 8.53545 10.2038 8.98572 9.83344 9.1709C9.4631 9.35557 9.0127 9.2052 8.82758 8.83496C8.82328 8.8289 8.80423 8.80509 8.75629 8.76855C8.69573 8.72248 8.61009 8.67351 8.50434 8.62891C8.27776 8.53342 8.06606 8.50006 8.00239 8.5C7.67563 8.50009 7.48499 8.60677 7.38227 8.70215C7.32745 8.75317 7.29159 8.80637 7.27094 8.85059C7.25116 8.89299 7.24872 8.91878 7.24848 8.92188C7.24848 8.96029 7.2527 8.9825 7.25532 8.99219C7.25752 9.00025 7.26027 9.00357 7.26118 9.00488C7.26192 9.00606 7.27656 9.03024 7.34223 9.06836C7.50789 9.16417 7.75964 9.22889 8.17329 9.32812C8.52028 9.41137 9.02369 9.52775 9.42817 9.78125C9.6459 9.91779 9.8597 10.108 10.0161 10.374C10.1741 10.6431 10.2485 10.9477 10.2485 11.2744C10.2485 12.133 9.6061 12.7023 8.75239 12.9102V13C8.75239 13.4142 8.41651 13.7499 8.00239 13.75C7.58837 13.7498 7.25239 13.4141 7.25239 13V12.8896C7.16971 12.8676 7.08663 12.8424 7.00532 12.8145C6.66869 12.6987 6.26065 12.5026 5.95649 12.1846C5.67077 11.8854 5.68124 11.4112 5.97993 11.125C6.27919 10.8388 6.75414 10.8493 7.04047 11.1484C7.11121 11.2223 7.26625 11.3186 7.49262 11.3965C7.714 11.4726 7.9133 11.4999 8.00239 11.5C8.39283 11.5 8.59776 11.4054 8.68403 11.3418C8.72838 11.309 8.74397 11.2853 8.74848 11.2744C8.74847 11.1801 8.72916 11.1442 8.72309 11.1338C8.71532 11.1206 8.69431 11.0923 8.63129 11.0527C8.47334 10.9538 8.22626 10.8827 7.82368 10.7861C7.48771 10.7055 6.98879 10.5964 6.59223 10.3672C6.37751 10.243 6.15683 10.0659 5.9936 9.80859C5.827 9.54571 5.74848 9.24422 5.74848 8.92188C5.74862 8.15684 6.31751 7.38126 7.25239 7.10547V7C7.25239 6.58593 7.58837 6.25023 8.00239 6.25ZM8.00043 1.5C6.76681 1.5 5.96649 1.76511 5.51411 1.9834C5.5175 1.99825 5.5235 2.01735 5.53559 2.03809L6.6811 4H9.31879L10.4633 2.03809C10.4755 2.01714 10.4805 1.99732 10.4838 1.98242C10.0317 1.76434 9.23256 1.50011 8.00043 1.5Z"
    fill="currentColor"
  />
</svg>
