<svg width="24" height="24" viewBox="0 0 24 24" fill="none" xmlns="http://www.w3.org/2000/svg" data-fui-icon="true">
  <path
    d="M11.9873 0C13.8998 4.70135e-05 15.3694 0.358636 16.4023 0.750977C17.1327 1.02852 17.5907 1.61444 17.7402 2.28613C17.886 2.94202 17.7349 3.6511 17.335 4.23535L15.8672 6.37598C20.4626 8.25242 23.0568 12.3684 22.835 16.2314C22.7159 18.3022 21.7816 20.27 19.9531 21.707C18.1334 23.1369 15.4837 23.9999 11.9873 24C8.49084 24 5.84233 23.1373 4.02441 21.707C2.19757 20.2696 1.26672 18.3011 1.14941 16.2305C0.93101 12.3679 3.5258 8.25215 8.1123 6.37598L6.64746 4.22168C6.25245 3.64032 6.10256 2.93641 6.24707 2.28418C6.39537 1.61594 6.8504 1.03191 7.57617 0.753906C8.60452 0.360135 10.0709 2.52014e-05 11.9873 0ZM9.39648 7.5C4.85717 9.01982 2.45985 12.8315 2.64746 16.1465C2.74149 17.8044 3.4765 19.3673 4.95215 20.5283C6.43692 21.6965 8.7279 22.5 11.9873 22.5C15.2463 22.4999 17.5395 21.6966 19.0264 20.5283C20.504 19.367 21.2426 17.8032 21.3379 16.1455C21.5283 12.8314 19.131 9.01998 14.5791 7.5H9.39648ZM11.7568 9C12.171 9 12.5068 9.33579 12.5068 9.75V10.334C14.1539 10.6179 14.8446 11.8178 14.9863 12.5459C15.0654 12.9524 14.8 13.3466 14.3936 13.4258C13.9871 13.5046 13.5927 13.2385 13.5137 12.832C13.4767 12.6429 13.2553 12.1015 12.5068 11.875V14.4131C12.9607 14.5181 13.4471 14.6644 13.8574 14.9111C14.1774 15.1037 14.4743 15.3694 14.6865 15.7402C14.8987 16.1111 15 16.541 15 17.0225C15 18.169 14.1214 19.4087 12.5068 19.7051V20.25C12.5068 20.6642 12.171 21 11.7568 21C11.3427 20.9999 11.0068 20.6641 11.0068 20.25V19.707C10.3129 19.5813 9.77908 19.2842 9.38281 18.9111C8.87156 18.4297 8.63475 17.8672 8.53125 17.5205C8.41317 17.124 8.63885 16.7066 9.03516 16.5879C9.43202 16.4694 9.85022 16.695 9.96875 17.0918C10.0251 17.2805 10.1535 17.5767 10.4111 17.8193C10.5483 17.9484 10.7388 18.0749 11.0068 18.1621V15.6309C10.5528 15.5259 10.0655 15.3806 9.65527 15.1338C9.33539 14.9413 9.03833 14.6754 8.82617 14.3047C8.6141 13.9339 8.5127 13.5038 8.5127 13.0225C8.5127 11.8756 9.39301 10.6355 11.0068 10.3389V9.75C11.0068 9.33586 11.3427 9.00012 11.7568 9ZM12.5068 18.1621C13.2464 17.9241 13.5 17.3511 13.5 17.0225C13.5 16.754 13.4452 16.59 13.3848 16.4844C13.3243 16.379 13.2312 16.2848 13.084 16.1963C12.9259 16.1013 12.7347 16.0273 12.5068 15.9619V18.1621ZM11.0068 11.8818C10.267 12.1201 10.0127 12.6944 10.0127 13.0225C10.0127 13.2908 10.0675 13.4549 10.1279 13.5605C10.1883 13.666 10.2815 13.7601 10.4287 13.8486C10.5868 13.9437 10.7788 14.0167 11.0068 14.082V11.8818ZM11.9873 1.5C10.263 1.50003 8.97802 1.82373 8.1123 2.15527C7.87855 2.24483 7.7563 2.40907 7.71191 2.6084C7.66409 2.8241 7.70608 3.10916 7.88867 3.37793L9.66992 6H14.3076L16.0967 3.3877C16.2814 3.11773 16.3246 2.83008 16.2764 2.6123C16.2315 2.41056 16.1064 2.24351 15.8691 2.15332C14.9968 1.82205 13.7077 1.50005 11.9873 1.5Z"
    fill="currentColor"
  />
</svg>
