<svg width="20" height="20" viewBox="0 0 20 20" fill="none" xmlns="http://www.w3.org/2000/svg" data-fui-icon="true">
  <path
    fill-rule="evenodd"
    clip-rule="evenodd"
    d="M15.001 0C16.6578 0 18.001 1.34315 18.001 3V18.6328C18.001 19.6143 16.9548 20.2423 16.0889 19.7803L13.4102 18.3506L10.6865 19.8125C10.2578 20.0426 9.74194 20.043 9.31348 19.8125L6.59766 18.3506L3.91113 19.7812C3.04522 20.2424 2 19.6148 2 18.6338V3C2 1.34315 3.34315 0 5 0H15.001ZM5 1.5C4.17157 1.5 3.5 2.17157 3.5 3V18.2998L6.01074 16.9639L6.15234 16.8994C6.44102 16.7892 6.76062 16.7899 7.04883 16.9014L7.19043 16.9668L10.001 18.4785L12.8203 16.9658L12.9609 16.9004C13.2494 16.7891 13.5697 16.7888 13.8584 16.8994L14 16.9648L16.501 18.2988V3C16.501 2.17157 15.8294 1.5 15.001 1.5H5ZM9.99805 3.75C10.4123 3.75 10.748 4.08579 10.748 4.5V5.13379C11.4019 5.22931 12.2613 5.54041 12.7656 6.54883C12.9506 6.91919 12.7999 7.3704 12.4297 7.55566C12.0594 7.74037 11.609 7.58981 11.4238 7.21973C11.1258 6.62391 10.5634 6.59182 10.0039 6.5918C8.92145 6.59197 8.65264 7.25014 8.65234 7.4082C8.65237 7.56786 8.68756 7.65186 8.71777 7.7002C8.75077 7.75274 8.81078 7.81543 8.92871 7.88281C9.19908 8.03699 9.59616 8.12876 10.1543 8.24707C10.6436 8.35077 11.2963 8.48145 11.8115 8.77539C12.0858 8.93197 12.3537 9.15117 12.5498 9.46387C12.7487 9.78128 12.8447 10.1491 12.8447 10.5527C12.8445 11.6268 11.954 12.3375 10.748 12.543V13.1777C10.748 13.5919 10.4123 13.9277 9.99805 13.9277C9.58403 13.9275 9.24805 13.5918 9.24805 13.1777V12.5137C9.07332 12.4768 8.89271 12.4328 8.7168 12.375C8.2715 12.2285 7.75227 11.9865 7.37207 11.6064C7.07965 11.3136 7.07952 10.8387 7.37207 10.5459C7.66485 10.2534 8.13979 10.2535 8.43262 10.5459C8.57629 10.6894 8.8441 10.8379 9.18555 10.9502C9.52054 11.0603 9.83532 11.1064 10.0039 11.1064C10.6015 11.1063 10.9605 10.9672 11.1465 10.8359C11.3239 10.7104 11.3446 10.5993 11.3447 10.5527C11.3447 10.3931 11.3095 10.3091 11.2793 10.2607C11.2463 10.2082 11.1855 10.1456 11.0674 10.0781C10.797 9.92405 10.4007 9.83214 9.84277 9.71387C9.35348 9.61016 8.70087 9.47952 8.18555 9.18555C7.91129 9.02898 7.64339 8.80976 7.44727 8.49707C7.24838 8.17968 7.15237 7.81179 7.15234 7.4082C7.15249 6.43791 7.94811 5.45334 9.24805 5.17285V4.5C9.24805 4.08593 9.58403 3.75023 9.99805 3.75Z"
    fill="currentColor"
  />
</svg>
