<svg width="12" height="12" viewBox="0 0 12 12" fill="none" xmlns="http://www.w3.org/2000/svg" data-fui-icon="true">
  <path
    d="M6.00439 0C7.11482 2.48971e-05 7.89595 0.245378 8.39873 0.4941C9.18806 0.884873 9.22748 1.77822 8.91822 2.33379L8.30987 3.4255C10.2089 4.50681 11.3253 6.39372 11.2208 8.19953C11.1608 9.23329 10.6954 10.2118 9.78631 10.9171C8.88845 11.6136 7.61689 12 6.00439 12C4.39213 12 3.12093 11.6131 2.22248 10.9171C1.31287 10.2121 0.845887 9.23438 0.785092 8.2005C0.679226 6.39384 1.79525 4.50571 3.69794 3.42453L3.08959 2.33379C2.78005 1.77784 2.82015 0.884691 3.61006 0.4941L3.81121 0.401335C4.31284 0.187732 5.03254 3.01166e-06 6.00439 0ZM4.89902 4.49963C3.10215 5.29518 2.20879 6.8625 2.28204 8.11262C2.31864 8.7344 2.58882 9.30408 3.14037 9.73163C3.70361 10.168 4.61978 10.5001 6.00439 10.5001C7.38914 10.5001 8.30412 10.1678 8.86647 9.73163C9.4173 9.30429 9.68671 8.73475 9.72284 8.11262C9.79511 6.86176 8.90108 5.29493 7.1088 4.49963H4.89902ZM6.00439 1.49988C5.29686 1.49988 4.80079 1.62448 4.4801 1.74888L5.17731 2.99976H6.83148L7.52575 1.74888C7.20523 1.62482 6.71021 1.4999 6.00439 1.49988Z"
    fill="currentColor"
  />
</svg>
