<svg width="32" height="32" viewBox="0 0 32 32" fill="none" xmlns="http://www.w3.org/2000/svg" data-fui-icon="true">
  <path
    d="M22.9332 10C22.9853 10 23.0369 10.0137 23.082 10.0397C27.7058 12.7055 30.1947 17.1551 29.9229 21.3555C29.7557 23.9356 28.5417 26.3722 26.2041 28.1494C23.8762 29.9191 20.4835 30.9999 15.9951 31C11.5067 31 8.1143 29.9191 5.78711 28.1494C3.45016 26.3721 2.23672 23.9355 2.07031 21.3555C1.7997 17.1551 4.2895 12.7055 8.91115 10.0398C8.9563 10.0137 9.00788 10 9.06 10H22.9332ZM16.0068 12.001C15.5928 12.0011 15.257 12.337 15.2568 12.751V13.4381C15.2568 13.5891 15.144 13.7156 14.9954 13.7421C12.9425 14.1082 11.8051 15.5704 11.8047 16.9648C11.8047 17.5616 11.9407 18.0839 12.2139 18.5254C12.4854 18.9639 12.863 19.2748 13.2695 19.501C13.7911 19.791 14.4135 19.9654 15.0162 20.0955C15.1559 20.1257 15.2568 20.2484 15.2568 20.3913V23.4783C15.2568 23.6646 15.0882 23.807 14.9091 23.7562C14.4696 23.6316 14.1541 23.4389 13.9258 23.2402C13.5259 22.8921 13.3338 22.4761 13.251 22.2197C13.1235 21.826 12.7005 21.6094 12.3066 21.7363C11.9127 21.8636 11.6964 22.2867 11.8232 22.6807C11.9618 23.1099 12.2755 23.7932 12.9404 24.3721C13.442 24.8085 14.1145 25.1589 14.9946 25.3125C15.1438 25.3385 15.2568 25.4652 15.2568 25.6166V26.249C15.257 26.6631 15.5928 26.9989 16.0068 26.999C16.4208 26.9988 16.7567 26.663 16.7568 26.249V25.6149C16.7568 25.4638 16.8698 25.3372 17.0186 25.3108C19.0749 24.9462 20.2119 23.4823 20.2119 22.0869C20.2119 21.4902 20.076 20.9678 19.8027 20.5264C19.5312 20.088 19.1536 19.7769 18.7471 19.5508C18.2244 19.2602 17.6011 19.0847 16.9975 18.9543C16.8578 18.9241 16.7568 18.8014 16.7568 18.6585V15.5645C16.7568 15.3797 16.9235 15.2377 17.1023 15.2848C18.3035 15.6015 18.6674 16.4086 18.7275 16.6924C18.8129 17.0976 19.2109 17.3577 19.6162 17.2725C20.0213 17.187 20.2805 16.789 20.1953 16.3838C20.0088 15.4985 19.1201 14.0845 17.0215 13.7348C16.8714 13.7098 16.7568 13.5827 16.7568 13.4306V12.751C16.7567 12.337 16.4208 12.0012 16.0068 12.001ZM16.7568 20.8159C16.7568 20.6241 16.9345 20.4808 17.1202 20.5289C17.4656 20.6185 17.7666 20.7219 18.0176 20.8613C18.258 20.9951 18.4213 21.1452 18.5273 21.3164C18.6316 21.4849 18.7119 21.724 18.7119 22.0869C18.7119 22.5724 18.2955 23.425 17.1045 23.7573C16.9253 23.8073 16.7568 23.6651 16.7568 23.4791V20.8159ZM15.2568 18.2348C15.2568 18.4266 15.0791 18.57 14.8934 18.5218C14.5492 18.4325 14.2492 18.3295 13.999 18.1904C13.7586 18.0566 13.5953 17.9066 13.4893 17.7354C13.3851 17.5668 13.3047 17.3277 13.3047 16.9648C13.3051 16.4804 13.7213 15.6286 14.9089 15.2951C15.0881 15.2447 15.2568 15.387 15.2568 15.5732V18.2348ZM15.9951 1C18.3845 1.0001 20.1089 1.44692 21.2852 1.94434C22.0895 2.28475 22.5755 2.94536 22.7334 3.69434C22.8872 4.42459 22.7276 5.21143 22.3271 5.87988L20.8452 8.35415C20.791 8.44462 20.6933 8.5 20.5878 8.5H11.4046C11.299 8.5 11.2012 8.4445 11.1471 8.35386L9.66504 5.87305C9.2668 5.20626 9.10849 4.42176 9.26172 3.69336C9.41898 2.94606 9.90281 2.28677 10.7051 1.94629C11.8794 1.44799 13.6029 1 15.9951 1Z"
    fill="currentColor"
  />
</svg>
