<svg width="32" height="32" viewBox="0 0 32 32" fill="none" xmlns="http://www.w3.org/2000/svg" data-fui-icon="true">
  <path
    d="M24.25 1C26.8734 1 29 3.12665 29 5.75V29.5908C28.9999 30.6147 27.9044 31.2655 27.0049 30.7764L21.6455 27.8623L16.7422 30.7812C16.285 31.0533 15.7148 31.0536 15.2578 30.7812L10.3613 27.8623L4.99414 30.7783C4.09474 31.2665 3.00024 30.6151 3 29.5918V5.75C3 3.12665 5.12665 1 7.75 1H24.25ZM16.0078 7.25C15.5937 7.25012 15.2578 7.58586 15.2578 8V8.5957C13.1166 8.87388 11.9065 10.3298 11.9062 11.7422C11.9062 12.3193 12.0402 12.8256 12.3096 13.2539C12.5769 13.6787 12.9475 13.9785 13.3438 14.1953C13.9144 14.5075 14.6078 14.6806 15.2578 14.8096V18.2617C14.664 18.1563 14.2655 17.9337 13.9961 17.7031C13.613 17.375 13.4301 16.9833 13.3516 16.7441C13.2221 16.351 12.7976 16.1365 12.4043 16.2656C12.0115 16.395 11.7973 16.8188 11.9258 17.2119C12.0621 17.6271 12.3702 18.2859 13.0205 18.8428C13.5547 19.3 14.2853 19.6568 15.2578 19.7793V20.3242C15.2579 20.7383 15.5937 21.0741 16.0078 21.0742C16.422 21.0742 16.7578 20.7384 16.7578 20.3242V19.7783C18.9006 19.5008 20.1091 18.0442 20.1094 16.6318C20.1093 16.0545 19.9756 15.5475 19.7061 15.1191C19.4387 14.6946 19.068 14.3955 18.6719 14.1787C18.1013 13.8667 17.4079 13.6934 16.7578 13.5645V10.1084C18.169 10.3431 18.5671 11.218 18.626 11.4922C18.7128 11.8968 19.1109 12.1546 19.5156 12.0684C19.9207 11.9817 20.1794 11.5828 20.0928 11.1777C19.9006 10.281 18.9667 8.85737 16.7578 8.5918V8C16.7578 7.58579 16.422 7.25001 16.0078 7.25ZM16.7578 15.1006C17.2323 15.2048 17.634 15.3202 17.9521 15.4941C18.1836 15.6208 18.3374 15.7608 18.4365 15.918C18.5334 16.072 18.6093 16.2927 18.6094 16.6318C18.6091 17.1062 18.1515 18.018 16.7578 18.2627V15.1006ZM15.2578 13.2734C14.7834 13.1692 14.3816 13.0539 14.0635 12.8799C13.8318 12.7531 13.6781 12.6125 13.5791 12.4551C13.4823 12.301 13.4062 12.0811 13.4062 11.7422C13.4066 11.2685 13.8652 10.3576 15.2578 10.1123V13.2734Z"
    fill="currentColor"
  />
</svg>
