<svg width="32" height="32" viewBox="0 0 32 32" fill="none" xmlns="http://www.w3.org/2000/svg" data-fui-icon="true">
  <path
    d="M22.9332 10C22.9853 10 23.0369 10.0137 23.082 10.0397C27.7058 12.7055 30.1947 17.1551 29.9229 21.3555C29.7557 23.9356 28.5418 26.3722 26.2041 28.1494C23.8762 29.9191 20.4835 30.9999 15.9951 31C11.5066 31 8.1143 29.9191 5.78711 28.1494C3.45016 26.3721 2.23672 23.9355 2.07031 21.3555C1.7997 17.1551 4.2895 12.7055 8.91115 10.0398C8.9563 10.0137 9.00788 10 9.06 10H22.9332ZM15.9951 1C18.3846 1.00009 20.1089 1.44691 21.2852 1.94434C22.0896 2.28474 22.5755 2.94533 22.7334 3.69434C22.8872 4.4246 22.7276 5.21142 22.3271 5.87988L20.8452 8.35415C20.791 8.44462 20.6933 8.5 20.5878 8.5H11.4046C11.299 8.5 11.2012 8.4445 11.1471 8.35386L9.66504 5.87305C9.2668 5.20627 9.1085 4.42175 9.26172 3.69336C9.41898 2.94606 9.90281 2.28677 10.7051 1.94629C11.8794 1.44798 13.6029 1 15.9951 1Z"
    fill="currentColor"
  />
</svg>
