<svg width="32" height="32" viewBox="0 0 32 32" fill="none" xmlns="http://www.w3.org/2000/svg" data-fui-icon="true">
  <path
    fill-rule="evenodd"
    clip-rule="evenodd"
    d="M22.9336 10C22.9857 10 23.0373 10.0137 23.0824 10.0397C27.7062 12.7055 30.1952 17.1551 29.9233 21.3555C29.7562 23.9356 28.5422 26.3722 26.2045 28.1494C23.8766 29.9191 20.4839 30.9999 15.9956 31C11.5071 31 8.11474 29.9191 5.78755 28.1494C3.4506 26.3721 2.23716 23.9355 2.07075 21.3555C1.80014 17.1551 4.28994 12.7055 8.91159 10.0398C8.95674 10.0137 9.00832 10 9.06044 10H22.9336ZM16.0073 12.001C15.5932 12.0011 15.2574 12.337 15.2573 12.751V13.4381C15.2573 13.5891 15.1445 13.7156 14.9958 13.7421C12.9429 14.1082 11.8055 15.5704 11.8051 16.9648C11.8051 17.5616 11.9411 18.0839 12.2143 18.5254C12.4858 18.9639 12.8634 19.2748 13.27 19.501C13.7916 19.791 14.414 19.9654 15.0167 20.0955C15.1564 20.1257 15.2573 20.2484 15.2573 20.3913V23.4783C15.2573 23.6646 15.0887 23.807 14.9095 23.7562C14.4701 23.6316 14.1545 23.4389 13.9262 23.2402C13.5263 22.8921 13.3342 22.4761 13.2514 22.2197C13.124 21.826 12.701 21.6094 12.3071 21.7363C11.9131 21.8636 11.6968 22.2867 11.8237 22.6807C11.9623 23.1099 12.2759 23.7932 12.9409 24.3721C13.4424 24.8085 14.1149 25.1589 14.9951 25.3125C15.1442 25.3385 15.2573 25.4652 15.2573 25.6166V26.249C15.2574 26.6631 15.5932 26.9989 16.0073 26.999C16.4212 26.9988 16.7571 26.663 16.7573 26.249V25.6149C16.7573 25.4638 16.8703 25.3372 17.019 25.3108C19.0753 24.9462 20.2123 23.4823 20.2124 22.0869C20.2123 21.4902 20.0764 20.9678 19.8032 20.5264C19.5317 20.088 19.154 19.7769 18.7475 19.5508C18.2248 19.2602 17.6015 19.0847 16.9979 18.9543C16.8582 18.9241 16.7573 18.8014 16.7573 18.6585V15.5645C16.7573 15.3797 16.9239 15.2377 17.1027 15.2848C18.304 15.6015 18.6679 16.4086 18.728 16.6924C18.8133 17.0976 19.2114 17.3577 19.6167 17.2725C20.0218 17.187 20.281 16.789 20.1958 16.3838C20.0092 15.4985 19.1205 14.0845 17.0219 13.7348C16.8719 13.7098 16.7573 13.5827 16.7573 13.4306V12.751C16.7571 12.337 16.4212 12.0012 16.0073 12.001ZM16.7573 20.8159C16.7573 20.6241 16.935 20.4808 17.1206 20.5289C17.4661 20.6185 17.767 20.7219 18.018 20.8613C18.2584 20.9951 18.4217 21.1452 18.5278 21.3164C18.632 21.4849 18.7123 21.724 18.7124 22.0869C18.7123 22.5724 18.296 23.425 17.1049 23.7573C16.9258 23.8073 16.7573 23.6651 16.7573 23.4791V20.8159ZM15.2573 18.2348C15.2573 18.4266 15.0795 18.57 14.8939 18.5218C14.5497 18.4325 14.2497 18.3295 13.9995 18.1904C13.759 18.0566 13.5958 17.9066 13.4897 17.7354C13.3856 17.5668 13.3051 17.3277 13.3051 16.9648C13.3055 16.4804 13.7218 15.6286 14.9093 15.2951C15.0885 15.2447 15.2573 15.387 15.2573 15.5732V18.2348ZM15.9956 1C18.385 1.0001 20.1094 1.44692 21.2856 1.94434C22.09 2.28475 22.5759 2.94536 22.7338 3.69434C22.8877 4.42459 22.728 5.21143 22.3276 5.87988L20.8456 8.35415C20.7914 8.44462 20.6937 8.5 20.5882 8.5H11.4051C11.2995 8.5 11.2017 8.4445 11.1475 8.35386L9.66548 5.87305C9.26724 5.20626 9.10893 4.42176 9.26216 3.69336C9.41942 2.94606 9.90325 2.28677 10.7055 1.94629C11.8799 1.44799 13.6034 1 15.9956 1Z"
    fill="currentColor"
  />
</svg>
