<svg width="16" height="16" viewBox="0 0 16 16" fill="none" xmlns="http://www.w3.org/2000/svg" data-fui-icon="true">
  <path
    d="M12.318 5.5C12.39 5.5 12.4599 5.52585 12.5138 5.57372C14.1326 7.01277 15.0442 8.98813 14.9688 10.874C14.9137 12.2474 14.3299 13.558 13.1367 14.5117C11.9548 15.4564 10.2406 15.9999 8.00098 16C5.76107 16 4.04632 15.4564 2.86426 14.5117C1.67103 13.558 1.08723 12.2474 1.03223 10.874C0.956807 8.9881 1.86831 7.01277 3.4872 5.57372C3.54105 5.52585 3.61094 5.5 3.68298 5.5H12.318ZM8.00098 0C9.49969 0.000118499 10.5386 0.33256 11.1924 0.658203C12.0917 1.10636 12.1426 2.13599 11.7598 2.79297L11.1425 3.85116C11.0887 3.94333 10.9901 4 10.8834 4H5.11755C5.01089 4 4.91225 3.94337 4.85847 3.85125L4.24121 2.79395C3.85758 2.13659 3.90831 1.10636 4.80859 0.658203L5.07227 0.537109C5.72978 0.255314 6.68955 0 8.00098 0Z"
    fill="currentColor"
  />
</svg>
