<svg width="20" height="21" viewBox="0 0 20 21" fill="none" xmlns="http://www.w3.org/2000/svg" data-fui-icon="true">
  <path
    d="M16 0C17.6567 0.000197253 19 1.34327 19 3V18.6846C18.9999 19.6366 18.0095 20.2654 17.1475 19.8613L13.8799 18.3281L10.6191 19.8672C10.2273 20.052 9.77264 20.0522 9.38086 19.8672L6.12891 18.3281L2.85156 19.8623C1.98963 20.2657 1.00016 19.6372 1 18.6855V3C1 1.34315 2.34315 0 4 0H16ZM4 1.5C3.17157 1.5 2.5 2.17157 2.5 3V18.3701L5.59863 16.9209L5.72754 16.8691C5.98934 16.7804 6.27372 16.7803 6.53516 16.8701L6.66309 16.9229L10 18.5L13.3477 16.9219L13.4756 16.8701C13.7371 16.7806 14.0215 16.7801 14.2832 16.8691L14.4111 16.9209L17.5 18.3691V3C17.5 2.17169 16.8283 1.5002 16 1.5H4ZM14.25 13.5C14.6642 13.5 15 13.8358 15 14.25C15 14.6642 14.6642 15 14.25 15H5.75C5.33579 15 5 14.6642 5 14.25C5 13.8358 5.33579 13.5 5.75 13.5H14.25ZM10 2.75C10.4142 2.75007 10.75 3.08583 10.75 3.5V4.07617C11.3768 4.17348 12.1905 4.47877 12.6709 5.43945C12.8561 5.80989 12.7053 6.26102 12.335 6.44629C11.9646 6.63115 11.5143 6.48063 11.3291 6.11035C11.055 5.56237 10.5408 5.53028 10.0049 5.53027C8.98627 5.5303 8.75 6.14766 8.75 6.27539C8.75004 6.42241 8.78262 6.49526 8.80762 6.53516C8.83539 6.57945 8.88764 6.63579 8.99707 6.69824C9.24944 6.84207 9.62129 6.92782 10.1553 7.04102C10.6207 7.13967 11.2496 7.26589 11.7471 7.5498C12.0125 7.70131 12.273 7.91419 12.4639 8.21875C12.6574 8.52773 12.75 8.88479 12.75 9.27539C12.7499 10.3155 11.8961 10.9985 10.75 11.2031V11.7803C10.75 12.1944 10.4142 12.5302 10 12.5303C9.58579 12.5303 9.25 12.1945 9.25 11.7803V11.1748C9.09043 11.1401 8.92662 11.0995 8.7666 11.0469C8.33922 10.9063 7.83805 10.6739 7.46973 10.3057C7.17687 10.0128 7.17696 9.53802 7.46973 9.24512C7.76263 8.95229 8.2374 8.95225 8.53027 9.24512C8.66198 9.37672 8.91173 9.51565 9.23535 9.62207C9.55253 9.72631 9.84851 9.76952 10.0049 9.76953C10.5707 9.76951 10.9051 9.63771 11.0752 9.51758C11.2372 9.40311 11.2499 9.30712 11.25 9.27539C11.25 9.12825 11.2174 9.05458 11.1924 9.01465C11.1646 8.97042 11.1121 8.91484 11.0029 8.85254C10.7506 8.7086 10.3789 8.62203 9.84473 8.50879C9.37932 8.41013 8.75048 8.28487 8.25293 8.00098C7.98746 7.84947 7.72709 7.63668 7.53613 7.33203C7.34247 7.02302 7.25004 6.66607 7.25 6.27539C7.25 5.33695 8.01175 4.3926 9.25 4.11426V3.5C9.25 3.08579 9.58579 2.75 10 2.75Z"
    fill="currentColor"
  />
</svg>
