<svg width="32" height="32" viewBox="0 0 32 32" fill="none" xmlns="http://www.w3.org/2000/svg" data-fui-icon="true">
  <path
    d="M24.25 1C26.8732 1.0002 29 3.12677 29 5.75V29.5518C28.9999 30.1675 28.6049 30.6122 28.1689 30.8105C27.7366 31.0071 27.1594 31.012 26.6934 30.6562C25.5636 29.7935 23.8228 28.7501 22.125 28.75C21.441 28.75 20.9573 28.8723 20.5703 29.04C20.1712 29.2131 19.8461 29.4458 19.46 29.7295C18.6682 30.3112 17.7518 30.9999 16 31C14.2482 31 13.3318 30.3112 12.54 29.7295C12.1539 29.4458 11.8287 29.2132 11.4297 29.04C11.0428 28.8722 10.559 28.75 9.875 28.75C8.1772 28.75 6.43645 29.7935 5.30664 30.6562C4.84069 31.0121 4.26343 31.007 3.83105 30.8105C3.39496 30.6122 3.00012 30.1677 3 29.5518V5.75C3 3.12665 5.12665 1 7.75 1H24.25ZM9.75 22C9.33579 22 9 22.3358 9 22.75C9 23.1642 9.33579 23.5 9.75 23.5H22.25C22.6642 23.5 23 23.1642 23 22.75C23 22.3358 22.6642 22 22.25 22H9.75ZM16.0078 5.25C15.5936 5.25 15.2578 5.58579 15.2578 6V6.5957C13.1165 6.87381 11.9065 8.32979 11.9062 9.74219C11.9062 10.3194 12.0402 10.8256 12.3096 11.2539C12.577 11.6788 12.9474 11.9784 13.3438 12.1953C13.9145 12.5075 14.6078 12.6806 15.2578 12.8096V16.2617C14.6638 16.1563 14.2655 15.9337 13.9961 15.7031C13.6129 15.375 13.4301 14.9833 13.3516 14.7441C13.2221 14.351 12.7976 14.1365 12.4043 14.2656C12.0113 14.3949 11.7972 14.8188 11.9258 15.2119C12.0621 15.6272 12.3701 16.2859 13.0205 16.8428C13.5547 17.3001 14.2852 17.6569 15.2578 17.7793V18.3242C15.2579 18.7384 15.5936 19.0742 16.0078 19.0742C16.422 19.0742 16.7578 18.7384 16.7578 18.3242V17.7783C18.9006 17.5008 20.1091 16.0442 20.1094 14.6318C20.1093 14.0545 19.9756 13.5475 19.7061 13.1191C19.4387 12.6945 19.068 12.3955 18.6719 12.1787C18.1012 11.8666 17.4079 11.6934 16.7578 11.5645V8.1084C18.1691 8.34307 18.5672 9.21809 18.626 9.49219C18.7128 9.89689 19.1108 10.1548 19.5156 10.0684C19.9207 9.9817 20.1794 9.58278 20.0928 9.17773C19.9007 8.281 18.9667 6.85737 16.7578 6.5918V6C16.7578 5.58579 16.422 5.25001 16.0078 5.25ZM16.7578 13.1006C17.2324 13.2048 17.634 13.3202 17.9521 13.4941C18.1836 13.6208 18.3375 13.7608 18.4365 13.918C18.5334 14.072 18.6093 14.2927 18.6094 14.6318C18.6091 15.1062 18.1515 16.018 16.7578 16.2627V13.1006ZM15.2578 11.2734C14.7833 11.1692 14.3816 11.0539 14.0635 10.8799C13.8317 10.753 13.6782 10.6125 13.5791 10.4551C13.4823 10.301 13.4062 10.0812 13.4062 9.74219C13.4066 9.26848 13.865 8.3575 15.2578 8.1123V11.2734Z"
    fill="currentColor"
  />
</svg>
