<svg width="20" height="21" viewBox="0 0 20 21" fill="none" xmlns="http://www.w3.org/2000/svg" data-fui-icon="true">
  <path
    d="M15.5 0C17.4328 0.000197433 19 1.56713 19 3.5V18.6719C19 19.2689 18.6143 19.6942 18.2031 19.8857C17.7961 20.0751 17.2485 20.0943 16.793 19.7754C16.0478 19.2535 15.0665 18.7501 14.125 18.75C13.2622 18.75 12.8711 18.9837 12.4043 19.2666C11.8576 19.5979 11.211 19.9999 10 20C8.789 20 8.14242 19.5979 7.5957 19.2666C7.12889 18.9837 6.73766 18.7501 5.875 18.75C4.9335 18.75 3.95223 19.2535 3.20703 19.7754C2.75152 20.0944 2.20393 20.0751 1.79688 19.8857C1.38559 19.6942 1 19.269 1 18.6719V3.5C1 1.567 2.567 4.42926e-08 4.5 0H15.5ZM6.75 14C6.33579 14 6 14.3358 6 14.75C6 15.1642 6.33579 15.5 6.75 15.5H13.25C13.6642 15.5 14 15.1642 14 14.75C14 14.3358 13.6642 14 13.25 14H6.75ZM10 2.75C9.58579 2.75 9.25 3.08579 9.25 3.5V4.11426C8.01175 4.3926 7.25 5.33695 7.25 6.27539C7.25004 6.66607 7.34247 7.02302 7.53613 7.33203C7.72709 7.63668 7.98746 7.84947 8.25293 8.00098C8.75048 8.28487 9.37932 8.41013 9.84473 8.50879C10.3789 8.62203 10.7506 8.7086 11.0029 8.85254C11.1121 8.91484 11.1646 8.97042 11.1924 9.01465C11.2174 9.05458 11.25 9.12825 11.25 9.27539C11.2499 9.30712 11.2372 9.40311 11.0752 9.51758C10.9051 9.63771 10.5707 9.76951 10.0049 9.76953C9.84851 9.76952 9.55253 9.72631 9.23535 9.62207C8.91172 9.51565 8.66198 9.37672 8.53027 9.24512C8.2374 8.95225 7.76263 8.95229 7.46973 9.24512C7.17696 9.53802 7.17687 10.0128 7.46973 10.3057C7.83805 10.6739 8.33922 10.9063 8.7666 11.0469C8.92662 11.0995 9.09043 11.1401 9.25 11.1748V11.7803C9.25 12.1945 9.58579 12.5303 10 12.5303C10.4142 12.5302 10.75 12.1944 10.75 11.7803V11.2031C11.8961 10.9985 12.7499 10.3155 12.75 9.27539C12.75 8.88479 12.6574 8.52773 12.4639 8.21875C12.273 7.91419 12.0125 7.70131 11.7471 7.5498C11.2496 7.26589 10.6207 7.13967 10.1553 7.04102C9.62129 6.92782 9.24944 6.84207 8.99707 6.69824C8.88764 6.63579 8.83539 6.57945 8.80762 6.53516C8.78262 6.49526 8.75004 6.42241 8.75 6.27539C8.75 6.14766 8.98627 5.5303 10.0049 5.53027C10.5408 5.53028 11.055 5.56237 11.3291 6.11035C11.5143 6.48063 11.9646 6.63115 12.335 6.44629C12.7053 6.26102 12.8561 5.80989 12.6709 5.43945C12.1905 4.47877 11.3768 4.17348 10.75 4.07617V3.5C10.75 3.08583 10.4142 2.75007 10 2.75Z"
    fill="currentColor"
  />
</svg>
