<svg width="20" height="21" viewBox="0 0 20 21" fill="none" xmlns="http://www.w3.org/2000/svg" data-fui-icon="true">
  <path
    d="M9.99902 0C11.8801 3.58218e-10 13.1831 0.417872 13.9961 0.817383C15.019 1.32008 15.09 2.49946 14.623 3.2666L13.332 5.38574C16.9629 7.02544 19.0637 10.4012 18.9023 13.5723C18.8146 15.2933 18.0555 16.9284 16.5459 18.1201C15.0461 19.3039 12.8656 20.0049 9.99902 20.0049C7.13265 20.0048 4.95276 19.3039 3.45312 18.1201C1.94358 16.9284 1.18432 15.2933 1.09668 13.5723C0.935446 10.4016 3.03605 7.02563 6.66602 5.38574L5.37695 3.2666C4.91027 2.49979 4.98053 1.32022 6.00293 0.817383C6.81558 0.41783 8.11803 7.03129e-05 9.99902 0ZM7.90234 6.5C4.35883 7.80533 2.4612 10.8702 2.59473 13.4961C2.66151 14.8071 3.22929 16.0328 4.38281 16.9434C5.5465 17.8618 7.3665 18.5048 9.99902 18.5049C12.6317 18.5049 14.4524 17.8618 15.6162 16.9434C16.7698 16.0328 17.3374 14.8071 17.4043 13.4961C17.5379 10.8701 15.6406 7.80527 12.0967 6.5H7.90234ZM9.99902 1.5C8.34868 1.50007 7.27257 1.86445 6.66504 2.16309C6.6378 2.17651 6.62584 2.18968 6.62012 2.19727C6.61368 2.20587 6.60537 2.21989 6.60059 2.24316C6.59033 2.2937 6.59643 2.38482 6.6582 2.48633L8.1875 5H11.8115L13.3418 2.48633C13.4035 2.38488 13.4087 2.2937 13.3984 2.24316C13.3937 2.2201 13.3863 2.20589 13.3799 2.19727C13.3741 2.18964 13.3623 2.17654 13.335 2.16309C12.7271 1.86435 11.6499 1.5 9.99902 1.5Z"
    fill="currentColor"
  />
</svg>
