<svg width="12" height="12" viewBox="0 0 12 12" fill="none" xmlns="http://www.w3.org/2000/svg" data-fui-icon="true">
  <path
    fill-rule="evenodd"
    clip-rule="evenodd"
    d="M9.57812 4.49963C9.65884 4.49963 9.73645 4.53194 9.79167 4.59082C10.7668 5.63068 11.295 6.93408 11.2218 8.19953C11.1618 9.23329 10.6964 10.2118 9.78735 10.9171C8.88948 11.6136 7.61794 12 6.00543 12C4.39314 12 3.12196 11.6131 2.22351 10.9171C1.3139 10.2121 0.84692 9.23438 0.786127 8.2005C0.711957 6.93475 1.23949 5.63089 2.21529 4.59078C2.2705 4.53192 2.34809 4.49963 2.4288 4.49963H9.57812ZM6.00055 5.99951C5.58637 5.99951 5.25061 6.33527 5.25061 6.74945V9.24925C5.25061 9.66343 5.58637 9.99919 6.00055 9.99919C6.41473 9.99919 6.75049 9.66343 6.75049 9.24925V6.74945C6.75049 6.33527 6.41473 5.99951 6.00055 5.99951ZM6.00543 0C7.11589 1.6329e-05 7.89698 0.245373 8.39977 0.4941C9.18914 0.884861 9.22852 1.77821 8.91925 2.33379L8.63398 2.84579C8.58102 2.94084 8.48074 2.99976 8.37193 2.99976H3.63795C3.52914 2.99976 3.42886 2.94084 3.3759 2.84579L3.09063 2.33379C2.78109 1.77785 2.82123 0.884703 3.61109 0.4941L3.81225 0.401335C4.31388 0.187732 5.03357 3.01182e-06 6.00543 0Z"
    fill="currentColor"
  />
</svg>
