<svg width="20" height="21" viewBox="0 0 20 21" fill="none" xmlns="http://www.w3.org/2000/svg" data-fui-icon="true">
  <path
    d="M15.1375 6.5C15.2017 6.5 15.2644 6.52059 15.3157 6.55921C17.7104 8.36448 19.0315 11.0337 18.9023 13.5723C18.8146 15.2933 18.0555 16.9284 16.5459 18.1201C15.0461 19.3039 12.8656 20.0049 9.99902 20.0049C7.1327 20.0048 4.95277 19.3038 3.45312 18.1201C1.94358 16.9284 1.18432 15.2933 1.09668 13.5723C0.967606 11.034 2.2882 8.36459 4.68236 6.55924C4.73359 6.5206 4.79635 6.5 4.86052 6.5H15.1375ZM10.0029 7.5C9.58876 7.5 9.253 7.83584 9.25293 8.25V8.59852C9.25293 8.73899 9.15488 8.85913 9.02054 8.90018C7.91799 9.2371 7.24922 10.1209 7.24902 11C7.24906 11.3906 7.34161 11.7477 7.53516 12.0566C7.72609 12.3613 7.98651 12.5741 8.25195 12.7256C8.74951 13.0095 9.37831 13.1347 9.84375 13.2334C10.3779 13.3466 10.7496 13.4332 11.002 13.5771C11.111 13.6394 11.1635 13.6951 11.1914 13.7393C11.2164 13.7791 11.249 13.853 11.249 14C11.249 14.0317 11.2361 14.1278 11.0742 14.2422C10.9041 14.3623 10.5698 14.4941 10.0039 14.4941C9.84751 14.4941 9.5516 14.4509 9.23438 14.3467C8.91073 14.2402 8.66098 14.1013 8.5293 13.9697C8.23646 13.6771 7.7616 13.6771 7.46875 13.9697C7.17604 14.2626 7.17607 14.7374 7.46875 15.0303C7.83706 15.3985 8.33823 15.6309 8.76562 15.7715C8.84927 15.799 8.9339 15.8235 9.01842 15.8455C9.15509 15.8811 9.25391 16.0022 9.25391 16.1434V16.75C9.25391 17.1642 9.58969 17.5 10.0039 17.5C10.4181 17.5 10.7539 17.1642 10.7539 16.75V16.1776C10.7539 16.0324 10.8584 15.9094 10.9993 15.8742C12.0172 15.6196 12.7489 14.9629 12.749 14C12.749 13.6095 12.6564 13.2522 12.4629 12.9434C12.272 12.6389 12.0114 12.4259 11.7461 12.2744C11.2486 11.9905 10.6197 11.8643 10.1543 11.7656C9.62026 11.6524 9.24846 11.5667 8.99609 11.4229C8.8867 11.3604 8.83439 11.304 8.80664 11.2598C8.78166 11.2198 8.74906 11.1467 8.74902 11C8.74951 10.8714 8.98635 10.2549 10.0039 10.2549C10.5398 10.2549 11.054 10.2872 11.3281 10.835C11.5133 11.2053 11.9636 11.3558 12.334 11.1709C12.7043 10.9856 12.8551 10.5345 12.6699 10.1641C12.2526 9.32983 11.5839 8.98998 11.0047 8.85131C10.861 8.8169 10.7529 8.69282 10.7529 8.54503V8.25C10.7529 7.83584 10.4171 7.5 10.0029 7.5ZM9.99902 0C11.8801 2.45476e-05 13.1832 0.417884 13.9961 0.817383C15.0188 1.32014 15.09 2.49951 14.623 3.2666L13.6551 4.85604C13.6006 4.94544 13.5035 5 13.3988 5H6.60027C6.49556 5 6.39842 4.9454 6.34399 4.85594L5.37695 3.2666C4.91024 2.49974 4.98034 1.32017 6.00293 0.817383C6.8156 0.417827 8.11799 5.26205e-05 9.99902 0Z"
    fill="currentColor"
  />
</svg>
