<svg width="20" height="21" viewBox="0 0 20 21" fill="none" xmlns="http://www.w3.org/2000/svg" data-fui-icon="true">
  <path
    fill-rule="evenodd"
    clip-rule="evenodd"
    d="M9.99889 0C11.88 0 13.183 0.417872 13.996 0.817383C15.0189 1.32008 15.0899 2.49946 14.6229 3.2666L13.3319 5.38574C16.9627 7.02544 19.0636 10.4012 18.9022 13.5723C18.8145 15.2933 18.0553 16.9284 16.5458 18.1201C15.046 19.3039 12.8654 20.0049 9.99889 20.0049C7.13252 20.0048 4.95262 19.3039 3.45299 18.1201C1.94344 16.9284 1.18418 15.2933 1.09654 13.5723C0.935311 10.4016 3.03592 7.02563 6.66588 5.38574L5.37682 3.2666C4.91013 2.49979 4.98039 1.32022 6.00279 0.817383C6.81544 0.41783 8.11789 7.03133e-05 9.99889 0ZM7.90221 6.5C4.35869 7.80533 2.46106 10.8702 2.59459 13.4961C2.66138 14.8071 3.22915 16.0328 4.38268 16.9434C5.54637 17.8618 7.36636 18.5048 9.99889 18.5049C12.6316 18.5049 14.4522 17.8618 15.6161 16.9434C16.7697 16.0328 17.3373 14.8071 17.4042 13.4961C17.5378 10.8701 15.6405 7.80527 12.0965 6.5H7.90221ZM10.0038 7.5C10.4179 7.5 10.7537 7.83584 10.7538 8.25V8.80176C11.38 8.89971 12.1913 9.20556 12.6708 10.1641C12.856 10.5345 12.7052 10.9856 12.3348 11.1709C11.9644 11.3558 11.5141 11.2053 11.329 10.835C11.0548 10.2872 10.5406 10.2549 10.0047 10.2549C8.98719 10.2549 8.75035 10.8714 8.74986 11C8.7499 11.1467 8.7825 11.2198 8.80748 11.2598C8.83524 11.304 8.88755 11.3604 8.99693 11.4229C9.2493 11.5667 9.6211 11.6524 10.1551 11.7656C10.6205 11.8643 11.2494 11.9905 11.7469 12.2744C12.0123 12.4259 12.2728 12.6389 12.4637 12.9434C12.6572 13.2522 12.7498 13.6095 12.7499 14C12.7497 15.0387 11.8984 15.721 10.7547 15.9268V16.75C10.7547 17.1642 10.419 17.5 10.0047 17.5C9.59053 17.5 9.25475 17.1642 9.25475 16.75V15.9014C9.09357 15.8665 8.92817 15.8246 8.76647 15.7715C8.33907 15.6309 7.8379 15.3985 7.46959 15.0303C7.17691 14.7374 7.17688 14.2626 7.46959 13.9697C7.76244 13.6771 8.2373 13.6771 8.53014 13.9697C8.66182 14.1013 8.91157 14.2402 9.23522 14.3467C9.55244 14.4509 9.84835 14.4941 10.0047 14.4941C10.5706 14.4941 10.9049 14.3623 11.0751 14.2422C11.2369 14.1278 11.2498 14.0317 11.2499 14C11.2498 13.853 11.2172 13.7791 11.1922 13.7393C11.1644 13.6951 11.1118 13.6394 11.0028 13.5771C10.7504 13.4332 10.3788 13.3466 9.84459 13.2334C9.37915 13.1347 8.75035 13.0095 8.25279 12.7256C7.98735 12.5741 7.72693 12.3613 7.536 12.0566C7.34245 11.7477 7.2499 11.3906 7.24986 11C7.25008 10.0607 8.0135 9.11611 9.25377 8.83887V8.25C9.25384 7.83584 9.5896 7.5 10.0038 7.5ZM9.99889 1.5C8.34854 1.50007 7.27243 1.86445 6.6649 2.16309C6.63766 2.17651 6.62571 2.18968 6.61998 2.19727C6.61355 2.20587 6.60524 2.21989 6.60045 2.24316C6.59019 2.2937 6.59629 2.38482 6.65807 2.48633L8.18736 5H11.8114L13.3417 2.48633C13.4033 2.38488 13.4086 2.2937 13.3983 2.24316C13.3935 2.2201 13.3862 2.20589 13.3797 2.19727C13.374 2.18964 13.3622 2.17654 13.3348 2.16309C12.7269 1.86435 11.6498 1.5 9.99889 1.5Z"
    fill="currentColor"
  />
</svg>
