<svg width="32" height="32" viewBox="0 0 32 32" fill="none" xmlns="http://www.w3.org/2000/svg" data-fui-icon="true">
  <path
    fill-rule="evenodd"
    clip-rule="evenodd"
    d="M15.9956 1C18.3851 1.00005 20.1093 1.44691 21.2856 1.94434C22.0903 2.2847 22.5759 2.94522 22.7338 3.69434C22.8877 4.42463 22.728 5.21139 22.3276 5.87988L20.5512 8.8457C26.785 11.1868 30.2413 16.443 29.9233 21.3555C29.7562 23.9356 28.5423 26.3722 26.2045 28.1494C23.8766 29.919 20.484 31 15.9956 31C11.507 31 8.11472 29.9192 5.78756 28.1494C3.45062 26.3721 2.23716 23.9355 2.07076 21.3555C1.75428 16.4432 5.21148 11.1868 11.4409 8.8457L9.66549 5.87305C9.26728 5.20631 9.10899 4.42172 9.26217 3.69336C9.41941 2.94616 9.90344 2.28681 10.7055 1.94629C11.8798 1.44796 13.6033 1.00003 15.9956 1ZM12.6792 10C6.48127 12.0144 3.29099 16.9617 3.56783 21.2588C3.70651 23.4095 4.70832 25.4446 6.69576 26.9561C8.69335 28.4751 11.7372 29.5 15.9956 29.5C20.2536 29.5 23.2978 28.475 25.2963 26.9561C27.2847 25.4445 28.2878 23.4094 28.4272 21.2588C28.7053 16.962 25.5154 12.0144 19.312 10H12.6792ZM15.9956 2.5C13.7954 2.50003 12.2721 2.91101 11.2915 3.32715C10.9678 3.4646 10.7924 3.70561 10.7299 4.00195C10.6637 4.31732 10.7246 4.72014 10.9536 5.10352L12.9819 8.5H19.0102L21.0415 5.10938C21.2718 4.7249 21.3327 4.32054 21.2661 4.00391C21.2033 3.70623 21.0272 3.46403 20.7016 3.32617C19.7181 2.91028 18.1932 2.50005 15.9956 2.5Z"
    fill="currentColor"
  />
</svg>
