<svg width="32" height="32" viewBox="0 0 32 32" fill="none" xmlns="http://www.w3.org/2000/svg" data-fui-icon="true">
  <path
    d="M24.25 1C26.8732 1.0002 29 3.12677 29 5.75V29.5908C28.9999 30.6146 27.9044 31.2653 27.0049 30.7764L21.6455 27.8623L16.7422 30.7812C16.2851 31.0533 15.7148 31.0534 15.2578 30.7812L10.3613 27.8623L4.99414 30.7783C4.09474 31.2665 3.00024 30.6151 3 29.5918V5.75C3 3.12665 5.12665 1 7.75 1H24.25ZM8.75 22C8.33579 22 8 22.3358 8 22.75C8 23.1642 8.33579 23.5 8.75 23.5H23.25C23.6642 23.5 24 23.1642 24 22.75C24 22.3358 23.6642 22 23.25 22H8.75ZM16.0078 5.25C15.5937 5.25012 15.2578 5.58586 15.2578 6V6.5957C13.1166 6.87388 11.9065 8.32984 11.9062 9.74219C11.9062 10.3193 12.0402 10.8256 12.3096 11.2539C12.5769 11.6787 12.9475 11.9785 13.3438 12.1953C13.9144 12.5075 14.6078 12.6806 15.2578 12.8096V16.2617C14.664 16.1563 14.2655 15.9337 13.9961 15.7031C13.613 15.375 13.4301 14.9833 13.3516 14.7441C13.2221 14.351 12.7976 14.1365 12.4043 14.2656C12.0115 14.395 11.7973 14.8188 11.9258 15.2119C12.0621 15.6271 12.3702 16.2859 13.0205 16.8428C13.5547 17.3 14.2853 17.6568 15.2578 17.7793V18.3242C15.2579 18.7383 15.5937 19.0741 16.0078 19.0742C16.422 19.0742 16.7578 18.7384 16.7578 18.3242V17.7783C18.9006 17.5008 20.1091 16.0442 20.1094 14.6318C20.1093 14.0545 19.9756 13.5475 19.7061 13.1191C19.4387 12.6946 19.068 12.3955 18.6719 12.1787C18.1013 11.8667 17.4079 11.6934 16.7578 11.5645V8.1084C18.169 8.34306 18.5671 9.21804 18.626 9.49219C18.7128 9.89682 19.1109 10.1546 19.5156 10.0684C19.9207 9.9817 20.1794 9.58278 20.0928 9.17773C19.9006 8.281 18.9667 6.85737 16.7578 6.5918V6C16.7578 5.58579 16.422 5.25001 16.0078 5.25ZM16.7578 13.1006C17.2323 13.2048 17.634 13.3202 17.9521 13.4941C18.1836 13.6208 18.3374 13.7608 18.4365 13.918C18.5334 14.072 18.6093 14.2927 18.6094 14.6318C18.6091 15.1062 18.1515 16.018 16.7578 16.2627V13.1006ZM15.2578 11.2734C14.7834 11.1692 14.3816 11.0539 14.0635 10.8799C13.8318 10.7531 13.6781 10.6125 13.5791 10.4551C13.4823 10.301 13.4062 10.0811 13.4062 9.74219C13.4066 9.2685 13.8652 8.35756 15.2578 8.1123V11.2734Z"
    fill="currentColor"
  />
</svg>
