<svg width="16" height="16" viewBox="0 0 16 16" fill="none" xmlns="http://www.w3.org/2000/svg" data-fui-icon="true">
  <path
    d="M8.00098 0C9.49975 0.000102033 10.5386 0.332552 11.1924 0.658203C12.0918 1.10635 12.1426 2.13597 11.7598 2.79297L10.8164 4.41016C13.4747 5.78104 15.0675 8.40455 14.9688 10.874C14.9137 12.2474 14.3299 13.558 13.1367 14.5117C11.9548 15.4564 10.2407 15.9999 8.00098 16C5.76103 16 4.04632 15.4564 2.86426 14.5117C1.67103 13.558 1.08723 12.2474 1.03223 10.874C0.933471 8.40456 2.52623 5.78105 5.18457 4.41016L4.24121 2.79395C3.85758 2.13659 3.90831 1.10636 4.80859 0.658203L5.07227 0.537109C5.72978 0.255298 6.68949 -2.49744e-10 8.00098 0ZM6.39941 5.5C3.85918 6.55014 2.45345 8.86395 2.53125 10.8135C2.57005 11.7836 2.97092 12.6765 3.80078 13.3398C4.64209 14.0122 5.99126 14.5 8.00098 14.5C10.0104 14.4999 11.359 14.0122 12.2002 13.3398C13.03 12.6765 13.4309 11.7836 13.4697 10.8135C13.5475 8.86413 12.1422 6.55028 9.60254 5.5H6.39941ZM8.00098 1.5C6.76727 1.5 5.96701 1.7651 5.51465 1.9834C5.51804 1.99825 5.52403 2.01734 5.53613 2.03809L6.68164 4H9.31934L10.4639 2.03809C10.4761 2.01713 10.481 1.99733 10.4844 1.98242C10.0322 1.76434 9.23317 1.5001 8.00098 1.5Z"
    fill="currentColor"
  />
</svg>
