<svg width="24" height="25" viewBox="0 0 24 25" fill="none" xmlns="http://www.w3.org/2000/svg" data-fui-icon="true">
  <path
    d="M19.25 0C21.3209 0.000197257 23 1.67905 23 3.75V22.6465C23 23.6402 21.9624 24.2935 21.0664 23.8643L16.832 21.832L12.6328 23.8672C12.2333 24.0608 11.7666 24.06 11.3672 23.8662L7.17676 21.832L2.93262 23.8652C2.03662 24.2939 1 23.6408 1 22.6475V3.75C1 1.67893 2.67893 0 4.75 0H19.25ZM6.75 17C6.33579 17 6 17.3358 6 17.75C6 18.1642 6.33579 18.5 6.75 18.5H17.25C17.6642 18.5 18 18.1642 18 17.75C18 17.3358 17.6642 17 17.25 17H6.75ZM11.9961 3.25C11.5819 3.25005 11.2461 3.58582 11.2461 4V4.42188C9.49445 4.70852 8.51478 5.98641 8.51465 7.20703C8.51466 7.71199 8.62534 8.16143 8.85547 8.5459C9.08471 8.92866 9.4036 9.19967 9.74414 9.39551C10.1977 9.65629 10.7396 9.80631 11.2461 9.91602V12.6523C10.8843 12.5582 10.6354 12.4021 10.4609 12.2451C10.1698 11.9831 10.0274 11.6669 9.96582 11.4697C9.84218 11.0747 9.42152 10.8543 9.02637 10.9775C8.63113 11.101 8.41093 11.5217 8.53418 11.917C8.64775 12.2807 8.90543 12.8639 9.45703 13.3604C9.89192 13.7517 10.4786 14.0597 11.2461 14.1826V14.5605C11.2461 14.9747 11.5819 15.3105 11.9961 15.3105C12.4103 15.3105 12.7461 14.9748 12.7461 14.5605V14.1807C14.4986 13.8943 15.4774 12.6169 15.4775 11.3965C15.4775 10.8915 15.3669 10.4421 15.1367 10.0576C14.9075 9.6748 14.5886 9.40387 14.248 9.20801C13.7945 8.94719 13.2526 8.79622 12.7461 8.68652V5.94531C13.6861 6.17328 13.9523 6.80771 13.9932 7.00781C14.0759 7.4133 14.4714 7.67503 14.877 7.59277C15.2827 7.51008 15.5455 7.11383 15.4629 6.70801C15.3047 5.93185 14.5412 4.69202 12.7461 4.41797V4C12.7461 3.58579 12.4103 3.25 11.9961 3.25ZM12.7461 10.2295C13.0452 10.306 13.2964 10.3908 13.5 10.5078C13.6714 10.6064 13.7801 10.7121 13.8496 10.8281C13.9182 10.9427 13.9775 11.1162 13.9775 11.3965C13.9774 11.7474 13.6749 12.4147 12.7461 12.6533V10.2295ZM11.2461 8.37402C10.9469 8.29729 10.6959 8.21183 10.4922 8.09473C10.3208 7.99618 10.2121 7.89139 10.1426 7.77539C10.074 7.6608 10.0147 7.48733 10.0146 7.20703C10.0148 6.85669 10.3171 6.18803 11.2461 5.94922V8.37402Z"
    fill="currentColor"
  />
</svg>
