<svg width="24" height="24" viewBox="0 0 24 24" fill="none" xmlns="http://www.w3.org/2000/svg" data-fui-icon="true">
  <path
    d="M17.9182 7.5C17.9767 7.5 18.0342 7.51716 18.0828 7.54958C21.2807 9.68106 23.0182 13.0418 22.835 16.2314C22.7159 18.3022 21.7816 20.27 19.9531 21.707C18.1334 23.1369 15.4837 23.9999 11.9873 24C8.49084 24 5.84233 23.1373 4.02441 21.707C2.19757 20.2696 1.26672 18.3011 1.14941 16.2305C0.969084 13.0412 2.70757 9.68093 5.90054 7.54969C5.94922 7.5172 6.00677 7.5 6.06529 7.5H17.9182ZM11.7568 9C11.3427 9.00014 11.0068 9.33588 11.0068 9.75V10.089C11.0068 10.2338 10.9027 10.3566 10.7624 10.3923C9.30435 10.7635 8.5127 11.935 8.5127 13.0225C8.5127 13.5038 8.61411 13.9339 8.82617 14.3047C9.03833 14.6754 9.3354 14.9413 9.65527 15.1338C9.9964 15.339 10.3909 15.474 10.7752 15.5741C10.9103 15.6093 11.0068 15.7298 11.0068 15.8694V17.749C11.0068 17.9529 10.8053 18.0978 10.6325 17.9897C10.5463 17.9357 10.4732 17.8778 10.4111 17.8193C10.1535 17.5767 10.0251 17.2805 9.96875 17.0918C9.85022 16.695 9.43202 16.4694 9.03516 16.5879C8.63888 16.7066 8.41318 17.124 8.53125 17.5205C8.63475 17.8672 8.87158 18.4297 9.38281 18.9111C9.73114 19.239 10.1858 19.5083 10.762 19.654C10.9026 19.6896 11.0068 19.8125 11.0068 19.9576V20.25C11.0068 20.6641 11.3427 20.9999 11.7568 21C12.171 21 12.5068 20.6642 12.5068 20.25V19.955C12.5068 19.8102 12.611 19.6874 12.7513 19.6517C14.2099 19.2808 15 18.1097 15 17.0225C15 16.541 14.8987 16.1111 14.6865 15.7402C14.4743 15.3694 14.1774 15.1037 13.8574 14.9111C13.5163 14.706 13.1224 14.5702 12.7384 14.47C12.6033 14.4347 12.5068 14.3142 12.5068 14.1746V12.2792C12.5068 12.0779 12.7034 11.933 12.8779 12.0332C13.3326 12.294 13.4837 12.6787 13.5137 12.832C13.5927 13.2385 13.9871 13.5046 14.3936 13.4258C14.8 13.3466 15.0654 12.9524 14.9863 12.5459C14.852 11.8554 14.2239 10.7407 12.7548 10.3852C12.6128 10.3508 12.5068 10.2273 12.5068 10.0813V9.75C12.5068 9.33579 12.171 9 11.7568 9ZM12.5068 16.3601C12.5068 16.1606 12.6995 16.0137 12.8824 16.0934C12.9548 16.125 13.0219 16.159 13.084 16.1963C13.2312 16.2848 13.3243 16.379 13.3848 16.4844C13.4452 16.59 13.5 16.754 13.5 17.0225C13.5 17.288 13.3345 17.713 12.8808 17.992C12.7075 18.0986 12.5068 17.9539 12.5068 17.7504V16.3601ZM11.0068 13.684C11.0068 13.8834 10.8142 14.0305 10.6311 13.9514C10.5583 13.92 10.4909 13.886 10.4287 13.8486C10.2816 13.7601 10.1883 13.666 10.1279 13.5605C10.0675 13.4549 10.0127 13.2907 10.0127 13.0225C10.0127 12.7574 10.1787 12.3315 10.6328 12.0521C10.8061 11.9454 11.0068 12.0901 11.0068 12.2936V13.684ZM11.9873 0C13.8998 4.70131e-05 15.3694 0.358636 16.4023 0.750977C17.1327 1.02852 17.5907 1.61444 17.7402 2.28613C17.886 2.94202 17.7349 3.6511 17.335 4.23535L16.2144 5.86965C16.1584 5.95124 16.0659 6 15.967 6H8.01525C7.91591 6 7.82301 5.95082 7.76716 5.86867L6.64746 4.22168C6.25245 3.64032 6.10256 2.93641 6.24707 2.28418C6.39537 1.61594 6.8504 1.03191 7.57617 0.753906C8.60452 0.360135 10.0709 2.52018e-05 11.9873 0Z"
    fill="currentColor"
  />
</svg>
