<svg width="20" height="21" viewBox="0 0 20 21" fill="none" xmlns="http://www.w3.org/2000/svg" data-fui-icon="true">
  <path
    d="M16 0C17.6567 0.000197253 19 1.34327 19 3V18.6719C19 19.2689 18.6143 19.6942 18.2031 19.8857C17.7961 20.0751 17.2485 20.0943 16.793 19.7754C16.0478 19.2535 15.0665 18.7501 14.125 18.75C13.2622 18.75 12.8711 18.9837 12.4043 19.2666C11.8576 19.5979 11.211 19.9999 10 20C8.78901 20 8.14242 19.5979 7.5957 19.2666C7.12889 18.9837 6.73766 18.7501 5.875 18.75C4.9335 18.75 3.95223 19.2535 3.20703 19.7754C2.75152 20.0944 2.20393 20.0751 1.79688 19.8857C1.38559 19.6942 1 19.269 1 18.6719V3C1 1.34315 2.34315 0 4 0H16ZM4 1.5C3.17157 1.5 2.5 2.17157 2.5 3V18.4443C3.32189 17.8916 4.5468 17.25 5.875 17.25C7.13675 17.2501 7.80876 17.6414 8.37305 17.9834C8.85736 18.2769 9.21143 18.5 10 18.5C10.7885 18.4999 11.1426 18.277 11.627 17.9834C12.1912 17.6414 12.8632 17.25 14.125 17.25C15.4532 17.2501 16.6782 17.8916 17.5 18.4443V3C17.5 2.17169 16.8283 1.5002 16 1.5H4ZM13.25 14C13.6642 14 14 14.3358 14 14.75C14 15.1642 13.6642 15.5 13.25 15.5H6.75C6.33579 15.5 6 15.1642 6 14.75C6 14.3358 6.33579 14 6.75 14H13.25ZM10 2.75C10.4142 2.75007 10.75 3.08583 10.75 3.5V4.07617C11.3768 4.17348 12.1905 4.47877 12.6709 5.43945C12.8561 5.80989 12.7053 6.26102 12.335 6.44629C11.9646 6.63115 11.5143 6.48063 11.3291 6.11035C11.055 5.56237 10.5408 5.53028 10.0049 5.53027C8.98627 5.5303 8.75 6.14766 8.75 6.27539C8.75004 6.42241 8.78262 6.49526 8.80762 6.53516C8.83539 6.57945 8.88764 6.63579 8.99707 6.69824C9.24944 6.84207 9.62129 6.92782 10.1553 7.04102C10.6207 7.13967 11.2496 7.26589 11.7471 7.5498C12.0125 7.70131 12.273 7.91419 12.4639 8.21875C12.6574 8.52773 12.75 8.88479 12.75 9.27539C12.7499 10.3155 11.8961 10.9985 10.75 11.2031V11.7803C10.75 12.1944 10.4142 12.5302 10 12.5303C9.58579 12.5303 9.25 12.1945 9.25 11.7803V11.1748C9.09043 11.1401 8.92662 11.0995 8.7666 11.0469C8.33922 10.9063 7.83805 10.6739 7.46973 10.3057C7.17687 10.0128 7.17696 9.53802 7.46973 9.24512C7.76263 8.95229 8.2374 8.95225 8.53027 9.24512C8.66198 9.37672 8.91173 9.51565 9.23535 9.62207C9.55253 9.72631 9.84851 9.76952 10.0049 9.76953C10.5707 9.76951 10.9051 9.63771 11.0752 9.51758C11.2372 9.40311 11.2499 9.30712 11.25 9.27539C11.25 9.12825 11.2174 9.05458 11.1924 9.01465C11.1646 8.97042 11.1121 8.91484 11.0029 8.85254C10.7506 8.7086 10.3789 8.62203 9.84473 8.50879C9.37932 8.41013 8.75048 8.28487 8.25293 8.00098C7.98746 7.84947 7.72709 7.63668 7.53613 7.33203C7.34247 7.02302 7.25004 6.66607 7.25 6.27539C7.25 5.33695 8.01175 4.3926 9.25 4.11426V3.5C9.25 3.08579 9.58579 2.75 10 2.75Z"
    fill="currentColor"
  />
</svg>
