<svg width="16" height="16" viewBox="0 0 16 16" fill="none" xmlns="http://www.w3.org/2000/svg" data-fui-icon="true">
  <path
    fill-rule="evenodd"
    clip-rule="evenodd"
    d="M12.002 0C13.3827 0 14.502 1.11929 14.502 2.5V14.2158C14.502 15.1403 13.5336 15.745 12.7031 15.3389L10.6885 14.3535L8.61328 15.3193C8.22513 15.4998 7.77659 15.4993 7.38867 15.3184L5.32031 14.3535L3.29785 15.3408C2.46764 15.7457 1.5003 15.1413 1.5 14.2178V2.5C1.5 1.11929 2.61929 0 4 0H12.002ZM4 1.5C3.44772 1.5 3 1.94772 3 2.5V13.8164L4.77148 12.9541L4.90039 12.8994C5.16402 12.8057 5.45157 12.8035 5.7168 12.8926L5.84766 12.9443L8.00098 13.9482L10.165 12.9434L10.2949 12.8916C10.5601 12.8028 10.8479 12.8055 11.1113 12.8994L11.2412 12.9541L13.002 13.8154V2.5C13.002 1.94772 12.5542 1.5 12.002 1.5H4ZM7.99609 3.5C8.41024 3.49795 8.74784 3.83198 8.75 4.24609V4.37598C8.86421 4.41032 8.97883 4.44969 9.08887 4.49609C9.4365 4.6427 9.92412 4.92148 10.1709 5.41504C10.3558 5.78545 10.2053 6.23572 9.83496 6.4209C9.46455 6.60584 9.01428 6.45531 8.8291 6.08496C8.82508 6.07923 8.80629 6.05551 8.75781 6.01855C8.69724 5.97241 8.61176 5.92357 8.50586 5.87891C8.27914 5.7833 8.06761 5.75006 8.00391 5.75C7.67689 5.75 7.48655 5.85673 7.38379 5.95215C7.32884 6.00324 7.29314 6.05631 7.27246 6.10059C7.25263 6.14304 7.25024 6.16873 7.25 6.17188C7.25 6.21042 7.25422 6.23255 7.25684 6.24219C7.25916 6.25068 7.26194 6.25369 7.2627 6.25488C7.26345 6.25607 7.27781 6.28014 7.34375 6.31836C7.50946 6.4142 7.76092 6.47884 8.1748 6.57812C8.52189 6.66139 9.02516 6.77762 9.42969 7.03125C9.64747 7.16782 9.86121 7.35789 10.0176 7.62402C10.1756 7.8931 10.25 8.19767 10.25 8.52441C10.25 9.38429 9.60567 9.95404 8.75 10.1611V10.2539C8.74785 10.668 8.41024 11.0021 7.99609 11C7.58197 10.9978 7.24795 10.6602 7.25 10.2461V10.1387C7.16849 10.1168 7.08701 10.092 7.00684 10.0645C6.67014 9.9487 6.26229 9.75269 5.95801 9.43457C5.67201 9.13532 5.68246 8.66127 5.98145 8.375C6.28078 8.0887 6.75568 8.09911 7.04199 8.39844C7.11277 8.47235 7.26756 8.56859 7.49414 8.64648C7.71588 8.72271 7.91504 8.75 8.00391 8.75C8.39477 8.74997 8.59944 8.65536 8.68555 8.5918C8.76442 8.53354 8.75005 8.50342 8.75 8.52441C8.74998 8.43014 8.73068 8.39417 8.72461 8.38379C8.71692 8.37071 8.69612 8.34246 8.63281 8.30273C8.47487 8.2037 8.22804 8.13277 7.8252 8.03613C7.48922 7.95554 6.99047 7.84654 6.59375 7.61719C6.37893 7.49295 6.15843 7.31608 5.99512 7.05859C5.82844 6.79566 5.75 6.4943 5.75 6.17188C5.75014 5.40779 6.31718 4.63313 7.25 4.35645V4.25391C7.24795 3.83976 7.58197 3.50215 7.99609 3.5Z"
    fill="currentColor"
  />
</svg>
