<svg width="32" height="32" viewBox="0 0 32 32" fill="none" xmlns="http://www.w3.org/2000/svg" data-fui-icon="true">
  <path
    d="M22.9342 10C22.9863 10 23.0378 10.0137 23.083 10.0397C27.7067 12.7055 30.1957 17.1551 29.9238 21.3555C29.7567 23.9356 28.5427 26.3722 26.2051 28.1494C23.8772 29.9191 20.4845 30.9999 15.9961 31C11.5076 31 8.11528 29.9191 5.78809 28.1494C3.45114 26.3721 2.2377 23.9355 2.07129 21.3555C1.80067 17.1551 4.29047 12.7055 8.91212 10.0398C8.95727 10.0137 9.00886 10 9.06098 10H22.9342ZM16.0078 12.001C15.5938 12.0011 15.258 12.337 15.2578 12.751V13.4381C15.2578 13.5891 15.145 13.7156 14.9964 13.7421C12.9435 14.1082 11.806 15.5704 11.8057 16.9648C11.8057 17.5616 11.9417 18.0839 12.2148 18.5254C12.4863 18.9639 12.8639 19.2748 13.2705 19.501C13.7921 19.791 14.4145 19.9654 15.0172 20.0955C15.1569 20.1257 15.2578 20.2484 15.2578 20.3913V23.4783C15.2578 23.6646 15.0892 23.807 14.9101 23.7562C14.4706 23.6316 14.1551 23.4389 13.9268 23.2402C13.5269 22.8921 13.3347 22.4761 13.252 22.2197C13.1245 21.826 12.7015 21.6094 12.3076 21.7363C11.9137 21.8636 11.6973 22.2867 11.8242 22.6807C11.9628 23.1099 12.2765 23.7932 12.9414 24.3721C13.443 24.8085 14.1154 25.1589 14.9956 25.3125C15.1447 25.3385 15.2578 25.4652 15.2578 25.6166V26.249C15.2579 26.6631 15.5938 26.9989 16.0078 26.999C16.4218 26.9988 16.7577 26.663 16.7578 26.249V25.6149C16.7578 25.4638 16.8708 25.3372 17.0195 25.3108C19.0759 24.9462 20.2128 23.4823 20.2129 22.0869C20.2128 21.4902 20.0769 20.9678 19.8037 20.5264C19.5322 20.088 19.1546 19.7769 18.748 19.5508C18.2254 19.2602 17.602 19.0847 16.9985 18.9543C16.8587 18.9241 16.7578 18.8014 16.7578 18.6585V15.5645C16.7578 15.3797 16.9245 15.2377 17.1032 15.2848C18.3045 15.6015 18.6684 16.4086 18.7285 16.6924C18.8138 17.0976 19.2119 17.3577 19.6172 17.2725C20.0223 17.187 20.2815 16.789 20.1963 16.3838C20.0097 15.4985 19.1211 14.0845 17.0224 13.7348C16.8724 13.7098 16.7578 13.5827 16.7578 13.4306V12.751C16.7577 12.337 16.4218 12.0012 16.0078 12.001ZM16.7578 20.8159C16.7578 20.6241 16.9355 20.4808 17.1212 20.5289C17.4666 20.6185 17.7675 20.7219 18.0186 20.8613C18.2589 20.9951 18.4223 21.1452 18.5283 21.3164C18.6325 21.4849 18.7128 21.724 18.7129 22.0869C18.7128 22.5724 18.2965 23.425 17.1055 23.7573C16.9263 23.8073 16.7578 23.6651 16.7578 23.4791V20.8159ZM15.2578 18.2348C15.2578 18.4266 15.0801 18.57 14.8944 18.5218C14.5502 18.4325 14.2502 18.3295 14 18.1904C13.7595 18.0566 13.5963 17.9066 13.4902 17.7354C13.3861 17.5668 13.3057 17.3277 13.3057 16.9648C13.3061 16.4804 13.7223 15.6286 14.9098 15.2951C15.089 15.2447 15.2578 15.387 15.2578 15.5732V18.2348ZM15.9961 1C18.3855 1.0001 20.1099 1.44692 21.2861 1.94434C22.0905 2.28475 22.5765 2.94536 22.7344 3.69434C22.8882 4.42459 22.7285 5.21143 22.3281 5.87988L20.8461 8.35415C20.792 8.44462 20.6942 8.5 20.5888 8.5H11.4056C11.3 8.5 11.2022 8.4445 11.148 8.35386L9.66602 5.87305C9.26778 5.20626 9.10947 4.42176 9.2627 3.69336C9.41996 2.94606 9.90379 2.28677 10.7061 1.94629C11.8804 1.44799 13.6039 1 15.9961 1Z"
    fill="currentColor"
  />
</svg>
