<svg width="12" height="12" viewBox="0 0 12 12" fill="none" xmlns="http://www.w3.org/2000/svg" data-fui-icon="true">
  <path
    d="M8.75 0C9.99247 0.000197248 11 1.00748 11 2.25V10.8945C11 11.4196 10.6376 11.7573 10.3125 11.8906C9.99108 12.0223 9.53483 12.0314 9.16797 11.7324C8.81286 11.4427 8.43771 11.2501 8.125 11.25C7.93288 11.25 7.81799 11.2811 7.74023 11.3125C7.65396 11.3474 7.57824 11.3956 7.44824 11.4873C7.16757 11.6854 6.75046 11.9999 6 12C5.24953 12 4.83248 11.6855 4.55176 11.4873C4.42177 11.3956 4.34597 11.3474 4.25977 11.3125C4.18206 11.2811 4.06716 11.25 3.875 11.25C3.56228 11.25 3.18722 11.4427 2.83203 11.7324C2.46525 12.0314 2.00897 12.0222 1.6875 11.8906C1.36235 11.7574 1 11.4198 1 10.8945V2.25C1 1.00736 2.00736 2.0133e-08 3.25 0H8.75ZM3.25 1.5C2.83579 1.5 2.5 1.83579 2.5 2.25V10.1465C2.88578 9.92823 3.35607 9.75 3.875 9.75C4.24496 9.75004 4.55246 9.81274 4.82227 9.92188C5.08338 10.0275 5.28174 10.1672 5.41699 10.2627C5.66712 10.4393 5.75086 10.5 6 10.5C6.24894 10.4999 6.33281 10.4393 6.58301 10.2627C6.71831 10.1672 6.91663 10.0275 7.17773 9.92188C7.44756 9.81278 7.75502 9.75 8.125 9.75C8.64391 9.75008 9.11425 9.92821 9.5 10.1465V2.25C9.5 1.83591 9.16405 1.5002 8.75 1.5H3.25ZM6.25 7C6.66421 7 7 7.33579 7 7.75C7 8.16421 6.66421 8.5 6.25 8.5H4.75C4.33579 8.5 4 8.16421 4 7.75C4 7.33579 4.33579 7 4.75 7H6.25ZM7.25 4.5C7.66421 4.5 8 4.83579 8 5.25C8 5.66421 7.66421 6 7.25 6H4.75C4.33579 6 4 5.66421 4 5.25C4 4.83579 4.33579 4.5 4.75 4.5H7.25Z"
    fill="currentColor"
  />
</svg>
