<svg width="32" height="32" viewBox="0 0 32 32" fill="none" xmlns="http://www.w3.org/2000/svg" data-fui-icon="true">
  <path
    d="M24.25 1C26.8732 1.0002 29 3.12677 29 5.75V29.5908C28.9999 30.6146 27.9044 31.2653 27.0049 30.7764L21.6455 27.8623L16.7422 30.7812C16.2851 31.0533 15.7148 31.0534 15.2578 30.7812L10.3613 27.8623L4.99414 30.7783C4.09474 31.2665 3.00024 30.6151 3 29.5918V5.75C3 3.12665 5.12665 1 7.75 1H24.25ZM7.75 2.5C5.95508 2.5 4.5 3.95508 4.5 5.75V29.3389L9.77246 26.4766L9.9209 26.4082C10.2249 26.2917 10.5632 26.2981 10.8623 26.4268L11.0088 26.502L16 29.4766L21.002 26.501L21.1484 26.4268C21.4477 26.2984 21.786 26.2913 22.0898 26.4082L22.2383 26.4775L27.5 29.3379V5.75C27.5 3.9552 26.0448 2.5002 24.25 2.5H7.75ZM23.25 22C23.6642 22 24 22.3358 24 22.75C24 23.1642 23.6642 23.5 23.25 23.5H8.75C8.33579 23.5 8 23.1642 8 22.75C8 22.3358 8.33579 22 8.75 22H23.25ZM16.0078 5.25C16.422 5.25001 16.7578 5.58579 16.7578 6V6.5918C18.9667 6.85737 19.9007 8.281 20.0928 9.17773C20.1794 9.58278 19.9207 9.9817 19.5156 10.0684C19.1108 10.1548 18.7128 9.89689 18.626 9.49219C18.5672 9.21809 18.1691 8.34307 16.7578 8.1084V11.5645C17.4079 11.6934 18.1012 11.8666 18.6719 12.1787C19.068 12.3955 19.4387 12.6945 19.7061 13.1191C19.9756 13.5475 20.1093 14.0545 20.1094 14.6318C20.1091 16.0442 18.9006 17.5008 16.7578 17.7783V18.3242C16.7578 18.7384 16.422 19.0742 16.0078 19.0742C15.5936 19.0742 15.2579 18.7384 15.2578 18.3242V17.7793C14.2852 17.6569 13.5547 17.3001 13.0205 16.8428C12.3701 16.2859 12.0621 15.6272 11.9258 15.2119C11.7972 14.8188 12.0113 14.3949 12.4043 14.2656C12.7976 14.1365 13.2221 14.351 13.3516 14.7441C13.4301 14.9833 13.6129 15.375 13.9961 15.7031C14.2655 15.9337 14.6638 16.1563 15.2578 16.2617V12.8096C14.6078 12.6806 13.9145 12.5075 13.3438 12.1953C12.9474 11.9784 12.577 11.6788 12.3096 11.2539C12.0402 10.8256 11.9062 10.3194 11.9062 9.74219C11.9065 8.32979 13.1165 6.87381 15.2578 6.5957V6C15.2578 5.58579 15.5936 5.25 16.0078 5.25ZM16.7578 16.2627C18.1515 16.018 18.6091 15.1062 18.6094 14.6318C18.6093 14.2927 18.5334 14.072 18.4365 13.918C18.3375 13.7608 18.1836 13.6208 17.9521 13.4941C17.634 13.3202 17.2324 13.2048 16.7578 13.1006V16.2627ZM15.2578 8.1123C13.865 8.3575 13.4066 9.26848 13.4062 9.74219C13.4062 10.0812 13.4823 10.301 13.5791 10.4551C13.6782 10.6125 13.8317 10.753 14.0635 10.8799C14.3816 11.0539 14.7833 11.1692 15.2578 11.2734V8.1123Z"
    fill="currentColor"
  />
</svg>
