<svg width="12" height="12" viewBox="0 0 12 12" fill="none" xmlns="http://www.w3.org/2000/svg" data-fui-icon="true">
  <path
    d="M6.00439 0C7.11482 2.48971e-05 7.89595 0.245378 8.39873 0.4941C9.18806 0.884873 9.22748 1.77822 8.91822 2.33379L8.30987 3.4255C10.2089 4.50681 11.3253 6.39372 11.2208 8.19953C11.1608 9.23329 10.6954 10.2118 9.78631 10.9171C8.88845 11.6136 7.61689 12 6.00439 12C4.39213 12 3.12093 11.6131 2.22248 10.9171C1.31287 10.2121 0.845887 9.23438 0.785092 8.2005C0.679226 6.39384 1.79525 4.50571 3.69794 3.42453L3.08959 2.33379C2.78005 1.77784 2.82015 0.884691 3.61006 0.4941L3.81121 0.401335C4.31284 0.187732 5.03254 3.01166e-06 6.00439 0ZM4.89902 4.49963C3.10215 5.29518 2.20879 6.8625 2.28204 8.11262C2.31864 8.7344 2.58882 9.30408 3.14037 9.73163C3.70361 10.168 4.61978 10.5001 6.00439 10.5001C7.38914 10.5001 8.30412 10.1678 8.86647 9.73163C9.4173 9.30429 9.68671 8.73475 9.72284 8.11262C9.79511 6.86176 8.90108 5.29493 7.1088 4.49963H4.89902ZM6.00146 5.09919C6.27725 5.09944 6.50121 5.32336 6.50142 5.59915V5.65579C6.57363 5.67674 6.64642 5.70106 6.71625 5.72903C6.94333 5.82004 7.27197 5.99567 7.4408 6.31589C7.56937 6.56018 7.47508 6.86297 7.23086 6.99162C6.98658 7.11991 6.68464 7.02588 6.55611 6.78167C6.56127 6.79149 6.55601 6.77691 6.51412 6.74652C6.4737 6.71728 6.41578 6.68536 6.34421 6.65668C6.19223 6.59582 6.0484 6.57382 6.00146 6.57368C5.54648 6.57368 5.49914 6.83678 5.49858 6.81683C5.49863 6.85229 5.50575 6.85413 5.50053 6.84612C5.50314 6.8492 5.51633 6.86248 5.55228 6.88225C5.66458 6.94385 5.83473 6.98555 6.10985 7.04825C6.34121 7.10098 6.67397 7.1739 6.94182 7.33339C7.08571 7.41911 7.23026 7.54041 7.33729 7.71324C7.4462 7.88933 7.49832 8.09063 7.49841 8.30596C7.49841 8.64824 7.31606 8.94576 7.03947 9.13988C6.88578 9.24767 6.70394 9.32315 6.50142 9.36935V9.39865C6.50142 9.67462 6.27738 9.89837 6.00146 9.89861C5.72534 9.89861 5.50151 9.67477 5.50151 9.39865V9.35275C5.44873 9.33923 5.39533 9.32483 5.34332 9.30784C5.12136 9.23531 4.85001 9.11193 4.64611 8.90943C4.45041 8.71485 4.44969 8.39831 4.64415 8.20246C4.83869 8.00681 5.15527 8.00521 5.35113 8.19953C5.39706 8.24513 5.50054 8.30662 5.65384 8.35674C5.80301 8.40546 5.93882 8.42412 6.00146 8.42412C6.26667 8.42405 6.40676 8.36262 6.46529 8.32159C6.48263 8.30939 6.49058 8.29829 6.49557 8.29229C6.49399 8.25574 6.4893 8.24199 6.48775 8.23956C6.48506 8.23532 6.47251 8.21795 6.43014 8.19269C6.32318 8.12903 6.15559 8.08395 5.88722 8.02278C5.66271 7.97163 5.33246 7.90241 5.0699 7.75816C4.92838 7.6803 4.77998 7.56765 4.66857 7.40076C4.55398 7.22887 4.49873 7.03002 4.49866 6.81683C4.49886 6.30412 4.89014 5.81675 5.50151 5.64212V5.59915C5.50172 5.32321 5.72547 5.09919 6.00146 5.09919ZM6.00439 1.49988C5.29686 1.49988 4.80079 1.62448 4.4801 1.74888L5.17731 2.99976H6.83148L7.52575 1.74888C7.20523 1.62482 6.71021 1.4999 6.00439 1.49988Z"
    fill="currentColor"
  />
</svg>
