<svg width="16" height="17" viewBox="0 0 16 17" fill="none" xmlns="http://www.w3.org/2000/svg" data-fui-icon="true">
  <path
    d="M12.5 0C13.8805 0.00019725 15 1.11941 15 2.5V14.7646C15 15.679 14.0503 16.2837 13.2217 15.8975L10.9229 14.8232L8.58887 15.8594C8.21402 16.0257 7.78582 16.025 7.41113 15.8584L5.08789 14.8232L2.77734 15.8994C1.94878 16.2848 1 15.6795 1 14.7656V2.5C1 1.11929 2.11929 0 3.5 0H12.5ZM4.75 10.5C4.33579 10.5 4 10.8358 4 11.25C4 11.6642 4.33579 12 4.75 12H11.25C11.6642 12 12 11.6642 12 11.25C12 10.8358 11.6642 10.5 11.25 10.5H4.75ZM7.99609 2.25C7.58197 2.25215 7.24795 2.58976 7.25 3.00391V3.10645C6.31718 3.38313 5.75014 4.15778 5.75 4.92188C5.75 5.2443 5.82844 5.54566 5.99512 5.80859C6.15843 6.06608 6.37892 6.24295 6.59375 6.36719C6.99047 6.59654 7.48922 6.70553 7.8252 6.78613C8.22804 6.88277 8.47487 6.95369 8.63281 7.05273C8.69613 7.09247 8.71692 7.12071 8.72461 7.13379C8.73068 7.14417 8.74999 7.18013 8.75 7.27441C8.75005 7.2534 8.76443 7.28353 8.68555 7.3418C8.59944 7.40536 8.39477 7.49997 8.00391 7.5C7.91504 7.5 7.71588 7.47271 7.49414 7.39648C7.26756 7.31859 7.11277 7.22235 7.04199 7.14844C6.75568 6.8491 6.28078 6.83869 5.98145 7.125C5.68246 7.41127 5.672 7.88532 5.95801 8.18457C6.26229 8.50269 6.67014 8.6987 7.00684 8.81445C7.08701 8.84201 7.16849 8.8668 7.25 8.88867V8.99609C7.24795 9.41024 7.58197 9.74785 7.99609 9.75C8.41024 9.75205 8.74785 9.41803 8.75 9.00391V8.91113C9.60567 8.70404 10.25 8.13429 10.25 7.27441C10.25 6.94767 10.1756 6.6431 10.0176 6.37402C9.86121 6.10788 9.64747 5.91782 9.42969 5.78125C9.02516 5.52762 8.52189 5.41139 8.1748 5.32812C7.76092 5.22884 7.50946 5.1642 7.34375 5.06836C7.2778 5.03013 7.26345 5.00607 7.2627 5.00488C7.26194 5.0037 7.25916 5.0007 7.25684 4.99219C7.25422 4.98255 7.25 4.96043 7.25 4.92188C7.25024 4.91878 7.25261 4.89308 7.27246 4.85059C7.29314 4.80631 7.32884 4.75324 7.38379 4.70215C7.48655 4.60673 7.67688 4.5 8.00391 4.5C8.06761 4.50006 8.27914 4.5333 8.50586 4.62891C8.61176 4.67357 8.69724 4.72241 8.75781 4.76855C8.80631 4.80552 8.82509 4.82924 8.8291 4.83496C9.01428 5.20531 9.46455 5.35584 9.83496 5.1709C10.2053 4.98572 10.3558 4.53545 10.1709 4.16504C9.92412 3.67148 9.4365 3.3927 9.08887 3.24609C8.97883 3.19969 8.86421 3.16032 8.75 3.12598V2.99609C8.74785 2.58197 8.41024 2.24795 7.99609 2.25Z"
    fill="currentColor"
  />
</svg>
