<svg width="20" height="21" viewBox="0 0 20 21" fill="none" xmlns="http://www.w3.org/2000/svg" data-fui-icon="true">
  <path
    fill-rule="evenodd"
    clip-rule="evenodd"
    d="M15.1374 6.5C15.2016 6.5 15.2643 6.52059 15.3155 6.55921C17.7103 8.36448 19.0314 11.0337 18.9022 13.5723C18.8145 15.2933 18.0553 16.9284 16.5458 18.1201C15.046 19.3039 12.8655 20.0049 9.99889 20.0049C7.13257 20.0048 4.95264 19.3038 3.45299 18.1201C1.94345 16.9284 1.18418 15.2933 1.09654 13.5723C0.967469 11.034 2.28806 8.36459 4.68222 6.55924C4.73346 6.5206 4.79621 6.5 4.86038 6.5H15.1374ZM9.99889 0C11.8799 2.45476e-05 13.183 0.417884 13.996 0.817383C15.0186 1.32014 15.0898 2.49951 14.6229 3.2666L13.6549 4.85604C13.6005 4.94544 13.5034 5 13.3987 5H6.60014C6.49542 5 6.39828 4.9454 6.34385 4.85594L5.37682 3.2666C4.9101 2.49974 4.9802 1.32017 6.00279 0.817383C6.81546 0.417827 8.11785 5.26205e-05 9.99889 0Z"
    fill="currentColor"
  />
</svg>
