<svg width="12" height="13" viewBox="0 0 12 13" fill="none" xmlns="http://www.w3.org/2000/svg" data-fui-icon="true">
  <path
    fill-rule="evenodd"
    clip-rule="evenodd"
    d="M9.25 0C10.2165 0 11 0.783502 11 1.75V10.958C11 11.6993 10.2526 12.2074 9.56348 11.9346L7.98242 11.3076L6.54395 11.8896C6.19475 12.0307 5.80403 12.0303 5.45508 11.8887L4.02539 11.3076L2.43555 11.9355C1.74649 12.2075 1 11.6998 1 10.959V1.75C1 0.783502 1.7835 0 2.75 0H9.25ZM2.75 1.5C2.61193 1.5 2.5 1.61193 2.5 1.75V10.2969L3.49414 9.90527L3.62598 9.86035C3.89221 9.78387 4.17496 9.78515 4.44043 9.86426L4.57227 9.91016L6.00098 10.4902L7.43945 9.90918L7.57031 9.86328C7.8362 9.78447 8.11936 9.78418 8.38574 9.86133L8.5166 9.90625L9.5 10.2949V1.75C9.5 1.61193 9.38807 1.5 9.25 1.5H2.75ZM5.99609 2.25C6.41029 2.24786 6.74784 2.5819 6.75 2.99609V3.09082C6.86046 3.12294 6.97137 3.16 7.07812 3.20312C7.42014 3.34135 7.91287 3.60758 8.16504 4.09082C8.35646 4.45801 8.21384 4.91098 7.84668 5.10254C7.47951 5.29385 7.0265 5.15129 6.83496 4.78418C6.84199 4.79765 6.83361 4.77461 6.77051 4.72852C6.70994 4.68431 6.62364 4.63703 6.5166 4.59375C6.28839 4.50155 6.07278 4.46881 6.00391 4.46875C5.32378 4.46882 5.25 4.86745 5.25 4.8418C5.25 4.89776 5.26121 4.90369 5.25488 4.89355L5.2666 4.90527C5.27788 4.91503 5.29803 4.93036 5.33203 4.94922C5.5 5.04231 5.75474 5.10422 6.16797 5.19922C6.5151 5.27902 7.01549 5.39001 7.41797 5.63184C7.63422 5.76185 7.85094 5.94448 8.01074 6.20508C8.17333 6.47027 8.25 6.77281 8.25 7.09668C8.24986 7.95458 7.59223 8.49625 6.75 8.69434V8.75391C6.74784 9.1681 6.41029 9.50214 5.99609 9.5C5.58198 9.49774 5.24786 9.16023 5.25 8.74609V8.67285C5.17168 8.65254 5.0928 8.62992 5.01562 8.60449C4.68202 8.49454 4.2744 8.30819 3.96875 8.00195C3.67657 7.70888 3.67703 7.23395 3.96973 6.94141C4.26287 6.64883 4.73863 6.64931 5.03125 6.94238C5.10057 7.01169 5.25597 7.10507 5.48535 7.18066C5.70851 7.25415 5.91074 7.28121 6.00391 7.28125C6.40026 7.28122 6.60952 7.18884 6.69727 7.12695C6.72816 7.10509 6.7415 7.08726 6.74805 7.07812C6.74575 7.01228 6.7328 6.99147 6.73145 6.98926C6.72704 6.98214 6.70875 6.95558 6.64453 6.91699C6.48452 6.82105 6.23425 6.75361 5.83203 6.66113C5.49543 6.58375 4.99988 6.47928 4.60547 6.26074C4.39257 6.14272 4.17058 5.97245 4.00391 5.7207C3.83251 5.46168 3.75 5.16246 3.75 4.8418C3.75014 4.07462 4.33258 3.33974 5.25 3.07422V3.00391C5.24786 2.58977 5.58199 2.25226 5.99609 2.25Z"
    fill="currentColor"
  />
</svg>
