<svg width="20" height="21" viewBox="0 0 20 21" fill="none" xmlns="http://www.w3.org/2000/svg" data-fui-icon="true">
  <path
    fill-rule="evenodd"
    clip-rule="evenodd"
    d="M9.99889 0C11.88 0 13.183 0.417872 13.996 0.817383C15.0189 1.32008 15.0899 2.49946 14.6229 3.2666L13.3319 5.38574C16.9627 7.02544 19.0636 10.4012 18.9022 13.5723C18.8145 15.2933 18.0553 16.9284 16.5458 18.1201C15.046 19.3039 12.8654 20.0049 9.99889 20.0049C7.13252 20.0048 4.95262 19.3039 3.45299 18.1201C1.94344 16.9284 1.18418 15.2933 1.09654 13.5723C0.935311 10.4016 3.03592 7.02563 6.66588 5.38574L5.37682 3.2666C4.91013 2.49979 4.98039 1.32022 6.00279 0.817383C6.81544 0.41783 8.11789 7.03133e-05 9.99889 0ZM7.90221 6.5C4.35869 7.80533 2.46106 10.8702 2.59459 13.4961C2.66138 14.8071 3.22915 16.0328 4.38268 16.9434C5.54637 17.8618 7.36636 18.5048 9.99889 18.5049C12.6316 18.5049 14.4522 17.8618 15.6161 16.9434C16.7697 16.0328 17.3373 14.8071 17.4042 13.4961C17.5378 10.8701 15.6405 7.80527 12.0965 6.5H7.90221ZM9.99889 1.5C8.34854 1.50007 7.27243 1.86445 6.6649 2.16309C6.63766 2.17651 6.62571 2.18968 6.61998 2.19727C6.61355 2.20587 6.60524 2.21989 6.60045 2.24316C6.59019 2.2937 6.59629 2.38482 6.65807 2.48633L8.18736 5H11.8114L13.3417 2.48633C13.4033 2.38488 13.4086 2.2937 13.3983 2.24316C13.3935 2.2201 13.3862 2.20589 13.3797 2.19727C13.374 2.18964 13.3622 2.17654 13.3348 2.16309C12.7269 1.86435 11.6498 1.5 9.99889 1.5Z"
    fill="currentColor"
  />
</svg>
