<svg width="16" height="16" viewBox="0 0 16 16" fill="none" xmlns="http://www.w3.org/2000/svg" data-fui-icon="true">
  <path
    fill-rule="evenodd"
    clip-rule="evenodd"
    d="M12.3174 5.5C12.3895 5.5 12.4594 5.52585 12.5132 5.57372C14.1321 7.01277 15.0436 8.98813 14.9682 10.874C14.9132 12.2474 14.3293 13.558 13.1362 14.5117C11.9542 15.4564 10.2401 15.9999 8.00043 16C5.76053 16 4.04578 15.4564 2.86371 14.5117C1.67048 13.558 1.08668 12.2474 1.03168 10.874C0.956263 8.9881 1.86777 7.01277 3.48665 5.57372C3.5405 5.52585 3.61039 5.5 3.68244 5.5H12.3174ZM8.00043 0C9.49914 0.000118498 10.5381 0.33256 11.1918 0.658203C12.0911 1.10636 12.142 2.13599 11.7592 2.79297L11.1419 3.85116C11.0882 3.94333 10.9895 4 10.8828 4H5.11701C5.01035 4 4.91171 3.94337 4.85793 3.85125L4.24067 2.79395C3.85703 2.13659 3.90776 1.10636 4.80805 0.658203L5.07172 0.537109C5.72924 0.255314 6.68901 0 8.00043 0Z"
    fill="currentColor"
  />
</svg>
