<svg width="24" height="24" viewBox="0 0 24 24" fill="none" xmlns="http://www.w3.org/2000/svg" data-fui-icon="true">
  <path
    fill-rule="evenodd"
    clip-rule="evenodd"
    d="M11.9874 0C13.8999 4.70131e-05 15.3694 0.358636 16.4024 0.750977C17.1328 1.02852 17.5908 1.61444 17.7403 2.28613C17.886 2.94202 17.735 3.6511 17.335 4.23535L15.8673 6.37598C20.4627 8.25242 23.0569 12.3684 22.835 16.2314C22.7159 18.3022 21.7817 20.27 19.9532 21.707C18.1335 23.1369 15.4838 23.9999 11.9874 24C8.49091 24 5.8424 23.1373 4.02448 21.707C2.19764 20.2696 1.26679 18.3011 1.14948 16.2305C0.93108 12.3679 3.52587 8.25215 8.11237 6.37598L6.64753 4.22168C6.25252 3.64032 6.10263 2.93641 6.24714 2.28418C6.39544 1.61594 6.85047 1.03191 7.57624 0.753906C8.60459 0.360135 10.071 2.52018e-05 11.9874 0ZM9.39655 7.5C4.85724 9.01982 2.45992 12.8315 2.64753 16.1465C2.74156 17.8044 3.47657 19.3673 4.95222 20.5283C6.43699 21.6965 8.72797 22.5 11.9874 22.5C15.2464 22.4999 17.5395 21.6966 19.0264 20.5283C20.5041 19.3669 21.2426 17.8032 21.338 16.1455C21.5283 12.8314 19.1311 9.01998 14.5792 7.5H9.39655ZM11.7569 9C12.1711 9 12.5069 9.33579 12.5069 9.75V10.334C14.1539 10.6179 14.8447 11.8178 14.9864 12.5459C15.0655 12.9524 14.8001 13.3466 14.3936 13.4258C13.9872 13.5046 13.5928 13.2385 13.5137 12.832C13.4768 12.6429 13.2554 12.1015 12.5069 11.875V14.4131C12.9607 14.5181 13.4472 14.6644 13.8575 14.9111C14.1775 15.1036 14.4743 15.3694 14.6866 15.7402C14.8988 16.1111 15.0001 16.541 15.0001 17.0225C15.0001 18.169 14.1214 19.4087 12.5069 19.7051V20.25C12.5069 20.6642 12.1711 21 11.7569 21C11.3429 20.9998 11.0069 20.6641 11.0069 20.25V19.707C10.313 19.5813 9.77913 19.2842 9.38288 18.9111C8.87168 18.4297 8.63481 17.8672 8.53132 17.5205C8.41327 17.124 8.639 16.7066 9.03523 16.5879C9.43208 16.4694 9.85028 16.695 9.96882 17.0918C10.0251 17.2804 10.1536 17.5767 10.4112 17.8193C10.5483 17.9484 10.739 18.0749 11.0069 18.1621V15.6309C10.5529 15.5259 10.0655 15.3805 9.65534 15.1338C9.33549 14.9413 9.03838 14.6754 8.82624 14.3047C8.61419 13.9339 8.51277 13.5038 8.51277 13.0225C8.51277 11.8757 9.39315 10.6355 11.0069 10.3389V9.75C11.0069 9.3359 11.3429 9.00019 11.7569 9ZM12.5069 18.1621C13.2465 17.9241 13.5001 17.3511 13.5001 17.0225C13.5001 16.754 13.4453 16.59 13.3848 16.4844C13.3244 16.379 13.2312 16.2848 13.0841 16.1963C12.926 16.1013 12.7347 16.0273 12.5069 15.9619V18.1621ZM11.0069 11.8818C10.2671 12.1201 10.0128 12.6944 10.0128 13.0225C10.0128 13.2907 10.0676 13.4549 10.128 13.5605C10.1884 13.666 10.2817 13.7601 10.4288 13.8486C10.5869 13.9437 10.7789 14.0167 11.0069 14.082V11.8818ZM11.9874 1.5C10.2631 1.50003 8.9781 1.82373 8.11237 2.15527C7.87862 2.24483 7.75637 2.40907 7.71198 2.6084C7.66416 2.8241 7.70615 3.10916 7.88874 3.37793L9.66999 6H14.3077L16.0968 3.3877C16.2815 3.11773 16.3247 2.83008 16.2764 2.6123C16.2315 2.41056 16.1065 2.24351 15.8692 2.15332C14.9969 1.82205 13.7078 1.50005 11.9874 1.5Z"
    fill="currentColor"
  />
</svg>
