<svg width="24" height="24" viewBox="0 0 24 24" fill="none" xmlns="http://www.w3.org/2000/svg" data-fui-icon="true">
  <path
    fill-rule="evenodd"
    clip-rule="evenodd"
    d="M11.9874 0C13.8999 4.70131e-05 15.3694 0.358636 16.4024 0.750977C17.1328 1.02852 17.5908 1.61444 17.7403 2.28613C17.886 2.94202 17.735 3.6511 17.335 4.23535L15.8673 6.37598C20.4627 8.25242 23.0569 12.3684 22.835 16.2314C22.7159 18.3022 21.7817 20.27 19.9532 21.707C18.1335 23.1369 15.4838 23.9999 11.9874 24C8.49091 24 5.8424 23.1373 4.02448 21.707C2.19764 20.2696 1.26679 18.3011 1.14948 16.2305C0.93108 12.3679 3.52587 8.25215 8.11237 6.37598L6.64753 4.22168C6.25252 3.64032 6.10263 2.93641 6.24714 2.28418C6.39544 1.61594 6.85047 1.03191 7.57624 0.753906C8.60459 0.360135 10.071 2.52018e-05 11.9874 0ZM9.39655 7.5C4.85724 9.01982 2.45992 12.8315 2.64753 16.1465C2.74156 17.8044 3.47657 19.3673 4.95222 20.5283C6.43699 21.6965 8.72797 22.5 11.9874 22.5C15.2464 22.4999 17.5395 21.6966 19.0264 20.5283C20.5041 19.3669 21.2426 17.8032 21.338 16.1455C21.5283 12.8314 19.1311 9.01998 14.5792 7.5H9.39655ZM11.9874 1.5C10.2631 1.50003 8.9781 1.82373 8.11237 2.15527C7.87862 2.24483 7.75637 2.40907 7.71198 2.6084C7.66416 2.8241 7.70615 3.10916 7.88874 3.37793L9.66999 6H14.3077L16.0968 3.3877C16.2815 3.11773 16.3247 2.83008 16.2764 2.6123C16.2315 2.41056 16.1065 2.24351 15.8692 2.15332C14.9969 1.82205 13.7078 1.50005 11.9874 1.5Z"
    fill="currentColor"
  />
</svg>
