<svg width="20" height="20" viewBox="0 0 20 20" fill="none" xmlns="http://www.w3.org/2000/svg" data-fui-icon="true">
  <path
    d="M15.001 0C16.6578 0 18.001 1.34315 18.001 3V18.6328C18.001 19.6143 16.9548 20.2423 16.0889 19.7803L13.4102 18.3506L10.6865 19.8125C10.2578 20.0426 9.74194 20.043 9.31348 19.8125L6.59766 18.3506L3.91113 19.7812C3.04522 20.2424 2 19.6148 2 18.6338V3C2 1.34315 3.34315 0 5 0H15.001ZM9.99902 3.75C9.58481 3.75 9.24902 4.08579 9.24902 4.5V5.17285C7.94884 5.45323 7.15346 6.43781 7.15332 7.4082C7.15334 7.81187 7.24928 8.17963 7.44824 8.49707C7.64444 8.80989 7.91216 9.02897 8.18652 9.18555C8.70199 9.4796 9.35442 9.61014 9.84375 9.71387C10.4019 9.83218 10.798 9.92394 11.0684 10.0781C11.1866 10.1457 11.2473 10.2081 11.2803 10.2607C11.3105 10.3091 11.3457 10.3931 11.3457 10.5527C11.3456 10.5993 11.3249 10.7104 11.1475 10.8359C10.9615 10.9672 10.6028 11.1063 10.0049 11.1064C9.8364 11.1064 9.52179 11.0604 9.18652 10.9502C8.8449 10.8379 8.57732 10.6895 8.43359 10.5459C8.14078 10.2533 7.6659 10.2534 7.37305 10.5459C7.08022 10.8387 7.08035 11.3135 7.37305 11.6064C7.75335 11.9866 8.27239 12.2285 8.71777 12.375C8.89382 12.4329 9.07417 12.4768 9.24902 12.5137V13.1777C9.24902 13.5919 9.58481 13.9277 9.99902 13.9277C10.4132 13.9277 10.749 13.5919 10.749 13.1777V12.543C11.955 12.3375 12.8455 11.6268 12.8457 10.5527C12.8457 10.1491 12.7497 9.78128 12.5508 9.46387C12.3547 9.15107 12.0868 8.932 11.8125 8.77539C11.2972 8.48133 10.6446 8.3508 10.1553 8.24707C9.59693 8.12871 9.20013 8.03703 8.92969 7.88281C8.81155 7.81536 8.75178 7.75279 8.71875 7.7002C8.68851 7.65189 8.65334 7.56806 8.65332 7.4082C8.65362 7.25012 8.92208 6.5918 10.0049 6.5918C10.5645 6.59182 11.1268 6.62374 11.4248 7.21973C11.6101 7.58992 12.0603 7.74063 12.4307 7.55566C12.8009 7.3704 12.9516 6.91919 12.7666 6.54883C12.2623 5.54027 11.4029 5.22932 10.749 5.13379V4.5C10.749 4.08579 10.4132 3.75 9.99902 3.75Z"
    fill="currentColor"
  />
</svg>
