<svg width="16" height="16" viewBox="0 0 16 16" fill="none" xmlns="http://www.w3.org/2000/svg" data-fui-icon="true">
  <path
    fill-rule="evenodd"
    clip-rule="evenodd"
    d="M12.3194 5.5C12.3914 5.5 12.4613 5.52585 12.5152 5.57372C14.134 7.01278 15.0456 8.98815 14.9702 10.874C14.9152 12.2474 14.3312 13.558 13.1381 14.5117C11.9562 15.4564 10.242 15.9999 8.00239 16C5.76253 16 4.04773 15.4564 2.86567 14.5117C1.67244 13.558 1.08864 12.2474 1.03364 10.874C0.958216 8.9881 1.86972 7.01277 3.48861 5.57372C3.54245 5.52585 3.61235 5.5 3.68439 5.5H12.3194ZM8.00434 6.25C7.59032 6.25023 7.25434 6.58593 7.25434 7C7.25434 7.06254 7.21294 7.11723 7.15378 7.13753C6.27882 7.43767 5.75057 8.18467 5.75043 8.92188C5.75043 9.24422 5.82895 9.54571 5.99555 9.80859C6.15878 10.0659 6.37946 10.243 6.59418 10.3672C6.99075 10.5964 7.48966 10.7055 7.82563 10.7861C8.22821 10.8827 8.47529 10.9538 8.63324 11.0527C8.69626 11.0923 8.71727 11.1206 8.72504 11.1338C8.72962 11.1416 8.7417 11.1639 8.74739 11.2148C8.75177 11.254 8.74221 11.294 8.71275 11.3202C8.70527 11.3269 8.69642 11.3341 8.68598 11.3418C8.59971 11.4054 8.39478 11.5 8.00434 11.5C7.91526 11.4999 7.71595 11.4726 7.49457 11.3965C7.2682 11.3186 7.11316 11.2223 7.04242 11.1484C6.75609 10.8493 6.28114 10.8388 5.98188 11.125C5.68319 11.4112 5.67272 11.8854 5.95844 12.1846C6.26261 12.5026 6.67064 12.6987 7.00727 12.8145C7.05379 12.8304 7.10088 12.8455 7.14815 12.8596C7.21052 12.8782 7.25434 12.9349 7.25434 13C7.25434 13.4141 7.59032 13.7498 8.00434 13.75C8.41847 13.7499 8.75434 13.4142 8.75434 13C8.75434 12.9473 8.7905 12.9016 8.84132 12.8875C9.65131 12.6629 10.2504 12.1036 10.2504 11.2744C10.2504 10.9477 10.1761 10.6431 10.018 10.374C9.86165 10.108 9.64785 9.91779 9.43012 9.78125C9.02564 9.52775 8.52223 9.41137 8.17524 9.32812C7.7616 9.22889 7.50984 9.16417 7.34418 9.06836C7.27851 9.03024 7.26388 9.00606 7.26313 9.00488C7.26222 9.00357 7.25947 9.00025 7.25727 8.99219C7.25465 8.9825 7.25043 8.96029 7.25043 8.92188C7.25067 8.91878 7.25312 8.89299 7.27289 8.85059C7.29354 8.80637 7.3294 8.75317 7.38422 8.70215C7.48694 8.60677 7.67758 8.50009 8.00434 8.5C8.06801 8.50006 8.27971 8.53341 8.50629 8.62891C8.61204 8.67351 8.69768 8.72248 8.75824 8.76855C8.78539 8.78925 8.80327 8.80585 8.81446 8.81747C8.82513 8.82855 8.83291 8.84198 8.84021 8.85553C9.03149 9.21071 9.47198 9.35212 9.83539 9.1709C10.2057 8.98572 10.3563 8.53545 10.1713 8.16504C9.92452 7.67159 9.4369 7.39268 9.0893 7.24609C9.01945 7.21665 8.94763 7.18992 8.87528 7.16553C8.80385 7.14145 8.75434 7.07538 8.75434 7C8.75434 6.58585 8.41847 6.2501 8.00434 6.25ZM8.00239 0C9.50103 0.000135166 10.54 0.332569 11.1938 0.658203C12.093 1.10637 12.1439 2.13601 11.7612 2.79297L11.1439 3.85116C11.0901 3.94333 10.9915 4 10.8848 4H5.11896C5.0123 4 4.91366 3.94337 4.85988 3.85125L4.24262 2.79395C3.85899 2.13659 3.90971 1.10636 4.81 0.658203L5.07367 0.537109C5.73119 0.255331 6.69102 0 8.00239 0Z"
    fill="currentColor"
  />
</svg>
