<svg width="24" height="24" viewBox="0 0 24 24" fill="none" xmlns="http://www.w3.org/2000/svg" data-fui-icon="true">
  <path
    fill-rule="evenodd"
    clip-rule="evenodd"
    d="M17.9183 7.5C17.9767 7.5 18.0342 7.51716 18.0829 7.54958C21.2807 9.68106 23.0182 13.0418 22.835 16.2314C22.7159 18.3022 21.7817 20.27 19.9532 21.707C18.1335 23.1369 15.4837 23.9999 11.9874 24C8.4909 24 5.84239 23.1373 4.02448 21.707C2.19763 20.2696 1.26679 18.3011 1.14948 16.2305C0.969148 13.0412 2.70764 9.68093 5.90061 7.54969C5.94928 7.5172 6.00683 7.5 6.06536 7.5H17.9183ZM11.9874 0C13.8999 4.70131e-05 15.3694 0.358636 16.4024 0.750977C17.1328 1.02852 17.5908 1.61444 17.7403 2.28613C17.886 2.94202 17.735 3.6511 17.335 4.23535L16.2144 5.86965C16.1585 5.95124 16.0659 6 15.967 6H8.01532C7.91598 6 7.82308 5.95082 7.76722 5.86867L6.64752 4.22168C6.25251 3.64032 6.10262 2.93641 6.24713 2.28418C6.39544 1.61594 6.85047 1.03191 7.57624 0.753906C8.60459 0.360135 10.071 2.52018e-05 11.9874 0Z"
    fill="currentColor"
  />
</svg>
