<svg width="24" height="24" viewBox="0 0 24 24" fill="none" xmlns="http://www.w3.org/2000/svg" data-fui-icon="true">
  <path
    d="M19.25 3C20.7688 3 22 4.23122 22 5.75V15.25C22 16.7688 20.7688 18 19.25 18H15.5469V20.5625H17C17.4142 20.5625 17.75 20.8983 17.75 21.3125C17.75 21.7267 17.4142 22.0625 17 22.0625H7C6.58579 22.0625 6.25 21.7267 6.25 21.3125C6.25 20.8983 6.58579 20.5625 7 20.5625H8.45312V18H4.75C3.23122 18 2 16.7688 2 15.25V5.75C2 4.23122 3.23122 3 4.75 3H19.25ZM9.95312 20.5625H14.0469V18H9.95312V20.5625ZM3.5 15.25C3.5 15.9404 4.05964 16.5 4.75 16.5H19.25C19.9404 16.5 20.5 15.9404 20.5 15.25V14.5312H3.5V15.25ZM4.75 4.5C4.05964 4.5 3.5 5.05964 3.5 5.75V13.0312H20.5V5.75C20.5 5.05964 19.9404 4.5 19.25 4.5H4.75Z"
    fill="currentColor"
  />
</svg>
