<svg width="20" height="20" viewBox="0 0 20 20" fill="none" xmlns="http://www.w3.org/2000/svg" data-fui-icon="true">
  <path
    d="M9.05664 4.44489H8.30664V4.44493L9.05664 4.44489ZM1.25 9.99957L0.5 9.99954V9.99957H1.25ZM18.5947 10.1894L18.2434 9.5268L18.5947 10.1894ZM18.7433 10.2803L17.9937 10.2567L18.7433 10.2803ZM9.81112 1.40485L10.4737 1.75621L9.81112 1.40485ZM9.81112 1.40485L9.14852 1.05349C8.61169 2.06584 8.30664 3.22064 8.30664 4.44489H9.05664H9.80664C9.80664 3.47246 10.0484 2.55822 10.4737 1.75621L9.81112 1.40485ZM9.05664 4.44489L8.30664 4.44493C8.3069 8.44871 11.5527 11.6949 15.5566 11.6949V10.9449V10.1949C12.3812 10.1949 9.80685 7.62036 9.80664 4.44484L9.05664 4.44489ZM15.5566 10.9449V11.6949C16.7812 11.6949 17.9347 11.3883 18.9461 10.852L18.5947 10.1894L18.2434 9.5268C17.441 9.95226 16.528 10.1949 15.5566 10.1949V10.9449ZM18.7433 10.2803L17.9937 10.2567C17.8584 14.5561 14.3322 17.9996 10 17.9996V18.7496V19.4996C15.1452 19.4996 19.3323 15.4099 19.4929 10.3038L18.7433 10.2803ZM10 18.7496V17.9996C5.58172 17.9996 2 14.4179 2 9.99957H1.25H0.5C0.5 15.2463 4.75329 19.4996 10 19.4996V18.7496ZM1.25 9.99957L2 9.99961C2.00019 5.66741 5.44426 2.14089 9.74381 2.0059L9.72028 1.25627L9.69674 0.506635C4.59049 0.66696 0.500224 4.8543 0.5 9.99954L1.25 9.99957ZM18.5947 10.1894L18.9461 10.852C18.5248 11.0754 17.9773 10.7768 17.9937 10.2567L18.7433 10.2803L19.4929 10.3038C19.5141 9.62956 18.8009 9.23115 18.2434 9.5268L18.5947 10.1894ZM9.81112 1.40485L10.4737 1.75621C10.7693 1.19878 10.3711 0.485462 9.69674 0.506635L9.72028 1.25627L9.74381 2.0059C9.22356 2.02223 8.92516 1.47471 9.14852 1.05349L9.81112 1.40485Z"
    fill="currentColor"
  />
</svg>
