<svg width="20" height="20" viewBox="0 0 20 20" fill="none" xmlns="http://www.w3.org/2000/svg" data-fui-icon="true">
  <path
    d="M9.05664 4.44482H8.05664V4.44486L9.05664 4.44482ZM1.5 10.0005H0.5V10.0005L1.5 10.0005ZM18.3423 10.3159L18.7719 11.2189L18.3423 10.3159ZM18.4868 10.4102L17.4879 10.3628L18.4868 10.4102ZM9.68367 1.65821L8.78054 1.22884L9.68367 1.65821ZM9.68367 1.65821L8.78054 1.22884C8.31684 2.20418 8.05664 3.2952 8.05664 4.44482H9.05664H10.0566C10.0566 3.5997 10.2474 2.80139 10.5868 2.08758L9.68367 1.65821ZM9.05664 4.44482L8.05664 4.44486C8.05678 8.58683 11.4145 11.9448 15.5566 11.9448V10.9448V9.94482C12.5192 9.94482 10.0567 7.48232 10.0566 4.44479L9.05664 4.44482ZM15.5566 10.9448V11.9448C16.7076 11.9448 17.7977 11.6823 18.7719 11.2189L18.3423 10.3159L17.9127 9.41284C17.1979 9.7529 16.4005 9.94482 15.5566 9.94482V10.9448ZM18.4868 10.4102L17.4879 10.3628C17.2992 14.3366 14.0199 17.5005 10 17.5005V18.5005V19.5005C15.0939 19.5005 19.2466 15.4917 19.4857 10.4577L18.4868 10.4102ZM10 18.5005V17.5005C5.85803 17.5005 2.50018 14.1425 2.5 10.0004L1.5 10.0005L0.5 10.0005C0.500224 15.247 4.75338 19.5005 10 19.5005V18.5005ZM1.5 10.0005H2.5C2.5 5.98069 5.66329 2.70159 9.63678 2.51256L9.58926 1.51369L9.54174 0.51482C4.50799 0.754287 0.5 4.90693 0.5 10.0005H1.5ZM18.3423 10.3159L18.7719 11.2189C18.1839 11.4986 17.4543 11.0702 17.4879 10.3628L18.4868 10.4102L19.4857 10.4577C19.5265 9.59876 18.6376 9.06797 17.9127 9.41284L18.3423 10.3159ZM9.68367 1.65821L10.5868 2.08758C10.9314 1.36281 10.4008 0.473954 9.54174 0.51482L9.58926 1.51369L9.63678 2.51256C8.92922 2.54622 8.50109 1.81664 8.78054 1.22884L9.68367 1.65821Z"
    fill="currentColor"
  />
</svg>
