<svg width="32" height="32" viewBox="0 0 32 32" fill="none" xmlns="http://www.w3.org/2000/svg" data-fui-icon="true">
  <path
    d="M15.998 1.75C16.0422 1.75 16.0688 1.79941 16.0455 1.83689C15.066 3.408 14.498 5.26227 14.498 7.25C14.498 12.9109 19.0872 17.4999 24.748 17.5C26.7356 17.5 28.5893 16.9314 30.1603 15.9521C30.1982 15.9285 30.249 15.9554 30.249 16C30.249 23.8701 23.8681 30.2507 15.998 30.251C8.12796 30.2508 1.74805 23.8701 1.74805 16C1.74832 8.1301 8.12813 1.7502 15.998 1.75Z"
    fill="currentColor"
  />
  <path
    d="M24.748 17.5L24.748 18.25H24.748V17.5ZM30.249 16H30.999V16L30.249 16ZM15.998 30.251L15.998 31.001H15.9981L15.998 30.251ZM1.74805 16L0.998047 16V16H1.74805ZM15.998 1.75L15.9981 1H15.998L15.998 1.75ZM30.1603 15.9521L29.7636 15.3157L30.1603 15.9521ZM16.0455 1.83689L15.409 1.44013L16.0455 1.83689ZM16.0455 1.83689L15.409 1.44013C14.3579 3.12624 13.748 5.11732 13.748 7.25H14.498H15.248C15.248 5.40722 15.7742 3.68977 16.6819 2.23365L16.0455 1.83689ZM14.498 7.25H13.748C13.748 13.3251 18.673 18.2499 24.748 18.25L24.748 17.5L24.7481 16.75C19.5014 16.7499 15.248 12.4967 15.248 7.25H14.498ZM24.748 17.5V18.25C26.8807 18.25 28.8712 17.6395 30.5571 16.5886L30.1603 15.9521L29.7636 15.3157C28.3074 16.2234 26.5905 16.75 24.748 16.75V17.5ZM30.249 16H29.499C29.499 23.4559 23.4539 29.5007 15.998 29.501L15.998 30.251L15.9981 31.001C24.2823 31.0007 30.999 24.2843 30.999 16H30.249ZM15.998 30.251L15.9981 29.501C8.54222 29.5008 2.49805 23.456 2.49805 16H1.74805H0.998047C0.998047 24.2843 7.71369 31.0008 15.998 31.001L15.998 30.251ZM1.74805 16L2.49805 16C2.49831 8.54431 8.54235 2.50019 15.9981 2.5L15.998 1.75L15.998 1C7.7139 1.00021 0.998338 7.71589 0.998047 16L1.74805 16ZM30.1603 15.9521L30.5571 16.5886C30.1219 16.8599 29.499 16.5751 29.499 16L30.249 16L30.999 16C30.999 15.3357 30.2744 14.9972 29.7636 15.3157L30.1603 15.9521ZM16.0455 1.83689L16.6819 2.23365C17.0068 1.71254 16.6496 1.00002 15.9981 1L15.998 1.75L15.998 2.5C15.4348 2.49998 15.1309 1.88627 15.409 1.44013L16.0455 1.83689Z"
    fill="currentColor"
  />
</svg>
