<svg width="32" height="32" viewBox="0 0 32 32" fill="none" xmlns="http://www.w3.org/2000/svg" data-fui-icon="true">
  <path
    d="M14.5146 1.07715C14.7676 1.08737 15.0016 1.22635 15.1318 1.44922C15.2806 1.70401 15.2659 2.02245 15.0947 2.2627C12.1715 6.36303 12.549 12.0928 16.2275 15.7715C19.906 19.4499 25.6349 19.8265 29.7354 16.9033L29.8281 16.8457C30.0535 16.7303 30.3259 16.7361 30.5488 16.8662C30.8034 17.015 30.947 17.2995 30.916 17.5928C30.1198 25.1281 23.7471 30.9994 16.001 31C7.7164 31 0.999207 24.2836 0.999023 15.999C0.999296 8.25315 6.8701 1.87877 14.4053 1.08203L14.5146 1.07715Z"
    fill="currentColor"
  />
</svg>
