<svg width="16" height="16" viewBox="0 0 16 16" fill="none" xmlns="http://www.w3.org/2000/svg" data-fui-icon="true">
  <g clip-path="url(#clip0_882_617)">
    <path
      d="M7.25781 0.0410156C7.51082 0.0512443 7.7448 0.190165 7.875 0.413086C8.02378 0.667871 8.00911 0.986275 7.83789 1.22656C6.4545 3.16845 6.63439 5.88238 8.37598 7.62402C10.1175 9.36548 12.8304 9.54373 14.7725 8.16016C15.0127 7.98906 15.3322 7.97526 15.5869 8.12402C15.8414 8.27287 15.9851 8.55738 15.9541 8.85059C15.5288 12.8688 12.131 15.9998 8 16C3.58206 15.9998 0.000220887 12.4179 0 8C0.000209687 3.86922 3.13128 0.471421 7.14941 0.0458984L7.25781 0.0410156ZM5.81543 1.87598C3.3003 2.77304 1.50014 5.1769 1.5 8C1.50022 11.5895 4.41048 14.4998 8 14.5C10.8232 14.4998 13.2263 12.6991 14.123 10.1836C11.9179 10.9918 9.36156 10.5627 7.53125 8.8916L7.31543 8.68457C5.47409 6.84318 4.97479 4.16967 5.81543 1.87598Z"
      fill="currentColor"
    />
  </g>
  <defs>
    <clipPath id="clip0_882_617"><path fill="currentColor" d="M0 0H16V16H0z" /></clipPath>
  </defs>
</svg>
