<svg width="20" height="20" viewBox="0 0 20 20" fill="none" xmlns="http://www.w3.org/2000/svg" data-fui-icon="true">
  <path
    d="M9.15234 1.0459C9.4053 1.05615 9.63934 1.19512 9.76953 1.41797C9.91817 1.67274 9.90361 1.99124 9.73242 2.23145C8.12863 4.48164 8.33694 7.62596 10.3555 9.64453L10.5479 9.8291C12.5694 11.6744 15.5877 11.8202 17.7676 10.2666L17.8613 10.21C18.0866 10.0946 18.3582 10.0995 18.5811 10.2295C18.8357 10.3783 18.9802 10.6628 18.9492 10.9561C18.4712 15.4772 14.6477 18.9999 10 19C5.02962 18.9999 1.00019 14.9704 1 10C1.00017 5.35272 4.5222 1.52917 9.04297 1.05078L9.15234 1.0459Z"
    fill="currentColor"
  />
</svg>
