<svg width="20" height="20" viewBox="0 0 20 20" fill="none" xmlns="http://www.w3.org/2000/svg" data-fui-icon="true">
  <path
    d="M9.05664 4.44412L8.05664 4.44407V4.44412H9.05664ZM1.5 9.99979L0.5 9.99976V9.99979H1.5ZM18.3423 10.3161L18.7718 11.2192L18.3423 10.3161ZM18.4868 10.4105L19.4857 10.458L18.4868 10.4105ZM9.68462 1.6575L8.78158 1.22793L9.68462 1.6575ZM9.59023 1.51297L9.54282 0.514094L9.59023 1.51297ZM9.68462 1.6575L8.78158 1.22793C8.31773 2.20303 8.0567 3.29381 8.05664 4.44407L9.05664 4.44412L10.0566 4.44418C10.0567 3.59928 10.2479 2.80126 10.5876 2.08707L9.68462 1.6575ZM9.05664 4.44412H8.05664C8.05664 8.58626 11.4145 11.9441 15.5566 11.9441V10.9441V9.94412C12.5191 9.94412 10.0566 7.48169 10.0566 4.44412H9.05664ZM15.5566 10.9441V11.9441C16.707 11.9441 17.7972 11.6827 18.7718 11.2192L18.3423 10.3161L17.9128 9.41305C17.1985 9.75277 16.401 9.94412 15.5566 9.94412V10.9441ZM18.4868 10.4105L17.4879 10.363C17.299 14.3366 14.0199 17.4998 10 17.4998V18.4998V19.4998C15.0936 19.4998 19.2463 15.4919 19.4857 10.458L18.4868 10.4105ZM10 18.4998V17.4998C5.85786 17.4998 2.5 14.1419 2.5 9.99979H1.5H0.5C0.5 15.2465 4.75329 19.4998 10 19.4998V18.4998ZM1.5 9.99979L2.5 9.99981C2.5001 5.97978 5.66383 2.70044 9.63763 2.51185L9.59023 1.51297L9.54282 0.514094C4.50861 0.75301 0.500126 4.90597 0.5 9.99976L1.5 9.99979ZM18.3423 10.3161L18.7718 11.2192C18.1839 11.4988 17.4543 11.0705 17.4879 10.363L18.4868 10.4105L19.4857 10.458C19.5265 9.59904 18.6377 9.06831 17.9128 9.41305L18.3423 10.3161ZM9.68462 1.6575L10.5876 2.08707C10.9324 1.36228 10.4019 0.473326 9.54282 0.514094L9.59023 1.51297L9.63763 2.51185C8.93009 2.54542 8.50195 1.81576 8.78158 1.22793L9.68462 1.6575Z"
    fill="currentColor"
  />
</svg>
