<svg width="20" height="20" viewBox="0 0 20 20" fill="none" xmlns="http://www.w3.org/2000/svg" data-fui-icon="true">
  <path
    d="M10.1729 1.54395C10.4501 1.5497 10.702 1.70763 10.8271 1.95508C10.952 2.2027 10.9305 2.50006 10.7705 2.72656L10.5791 3.01953C10.1588 3.71991 9.91699 4.53941 9.91699 5.41699C9.91719 7.99419 12.0067 10.084 14.584 10.084C15.5868 10.0838 16.5144 9.76777 17.2744 9.23047L17.3623 9.17676C17.5742 9.06713 17.8283 9.0645 18.0449 9.17383C18.2922 9.2989 18.4512 9.55005 18.457 9.82715C18.4582 9.88483 18.459 9.9429 18.459 10C18.4588 14.6711 14.6711 18.4588 10 18.459C5.32886 18.4588 1.54219 14.6711 1.54199 10C1.54217 5.32885 5.32885 1.54217 10 1.54199C10.0575 1.542 10.1156 1.5428 10.1729 1.54395ZM8.85254 3.1377C5.55593 3.68497 3.04215 6.54822 3.04199 10C3.04219 13.8427 6.1573 16.9588 10 16.959C13.4518 16.9588 16.3151 14.4442 16.8623 11.1475C16.1571 11.4281 15.3882 11.5839 14.584 11.584C11.1783 11.584 8.41719 8.82262 8.41699 5.41699C8.41699 4.61246 8.5718 3.8431 8.85254 3.1377Z"
    fill="currentColor"
  />
</svg>
