<svg width="12" height="12" viewBox="0 0 12 12" fill="none" xmlns="http://www.w3.org/2000/svg" data-fui-icon="true">
  <path
    d="M5.4707 0.0292969C5.72367 0.0394909 5.95765 0.178541 6.08789 0.401367C6.2367 0.65616 6.22201 0.974541 6.05078 1.21484C5.10673 2.53999 5.23028 4.39236 6.41895 5.58105C7.60734 6.76926 9.45875 6.89152 10.7842 5.94727L10.877 5.89062C11.1024 5.77518 11.3747 5.77996 11.5977 5.91016C11.8522 6.05893 11.9958 6.34349 11.9648 6.63672C11.6462 9.6509 9.09879 11.9989 6 11.999C2.68629 11.999 0 9.31273 0 5.99902C0.000457607 2.90107 2.34869 0.353303 5.3623 0.0341797L5.4707 0.0292969Z"
    fill="currentColor"
  />
</svg>
