<svg
  width="20"
  height="20"
  viewBox="0 0 20 20"
  fill="none"
  xmlns="http://www.w3.org/2000/svg"
  data-fui-icon="true"
>
  <g clip-path="url(#clip0_882_612)">
    <path
      d="M1.74999 10L2.49999 10L1.74999 10ZM9.12063 1.79632L9.73142 2.23155C9.90266 1.99125 9.91708 1.67286 9.76826 1.41806C9.61944 1.16326 9.33504 1.0194 9.04161 1.05049L9.12063 1.79632ZM9.99999 18.25V17.5V18.25ZM18.2037 10.8794L18.9495 10.9584C18.9806 10.665 18.8367 10.3806 18.5819 10.2318C18.3271 10.0829 18.0087 10.0974 17.7684 10.2686L18.2037 10.8794ZM2.49999 10C2.49999 6.1284 5.43418 2.94112 9.19965 2.54214L9.04161 1.05049C4.52128 1.52945 0.999989 5.35301 0.999989 10L2.49999 10ZM9.99999 17.5C5.85785 17.5 2.49999 14.1421 2.49999 10L0.999989 10C0.999989 14.9706 5.02943 19 9.99999 19L9.99999 17.5ZM17.4578 10.8004C17.0589 14.5658 13.8716 17.5 9.99999 17.5V19C14.647 19 18.4705 15.4787 18.9495 10.9584L17.4578 10.8004ZM17.7684 10.2686C15.5184 11.8719 12.3736 11.6634 10.3551 9.64494L9.29441 10.7056C11.8395 13.2507 15.8021 13.5116 18.6389 11.4902L17.7684 10.2686ZM10.3551 9.64494C8.33656 7.62644 8.12807 4.48164 9.73142 2.23155L8.50984 1.36108C6.48839 4.1979 6.74931 8.16051 9.29441 10.7056L10.3551 9.64494Z"
      fill="currentColor"
    />
  </g>
  <defs>
    <clipPath id="clip0_882_612">
      <path fill="currentColor" d="M0 0H20V20H0z" />
    </clipPath>
  </defs>
</svg>
