<svg width="20" height="20" viewBox="0 0 20 20" fill="none" xmlns="http://www.w3.org/2000/svg" data-fui-icon="true">
  <g clip-path="url(#clip0_882_612)">
    <path
      d="M1.74996 10.0001L2.49996 10.0001L1.74996 10.0001ZM9.1206 1.79638L9.73139 2.23162C9.90263 1.99131 9.91705 1.67292 9.76823 1.41812C9.61941 1.16332 9.33501 1.01946 9.04157 1.05056L9.1206 1.79638ZM9.99996 18.2501V17.5001V18.2501ZM18.2036 10.8795L18.9495 10.9585C18.9806 10.665 18.8367 10.3807 18.5819 10.2318C18.3271 10.083 18.0087 10.0974 17.7684 10.2687L18.2036 10.8795ZM2.49996 10.0001C2.49996 6.12846 5.43415 2.94118 9.19962 2.54221L9.04157 1.05056C4.52125 1.52951 0.999958 5.35307 0.999958 10.0001L2.49996 10.0001ZM9.99996 17.5001C5.85782 17.5001 2.49996 14.1422 2.49996 10.0001L0.999958 10.0001C0.999959 14.9706 5.0294 19.0001 9.99996 19.0001L9.99996 17.5001ZM17.4578 10.8004C17.0588 14.5659 13.8716 17.5001 9.99996 17.5001V19.0001C14.6469 19.0001 18.4705 15.4788 18.9495 10.9585L17.4578 10.8004ZM17.7684 10.2687C15.5183 11.872 12.3735 11.6635 10.355 9.645L9.29438 10.7057C11.8395 13.2508 15.8021 13.5117 18.6389 11.4903L17.7684 10.2687ZM10.355 9.645C8.33653 7.6265 8.12804 4.4817 9.73139 2.23162L8.5098 1.36114C6.48836 4.19796 6.74928 8.16057 9.29438 10.7057L10.355 9.645Z"
      fill="currentColor"
    />
  </g>
  <defs>
    <clipPath id="clip0_882_612"><path fill="currentColor" d="M0 0H20V20H0z" /></clipPath>
  </defs>
</svg>
