<svg width="24" height="24" viewBox="0 0 24 24" fill="none" xmlns="http://www.w3.org/2000/svg" data-fui-icon="true">
  <path
    d="M10.834 5.16748L10.084 5.16747V5.16748H10.834ZM1.25 12.0005H0.5V12.0005L1.25 12.0005ZM22.5939 12.2274L22.9472 12.889L22.5939 12.2274ZM22.7424 12.3182L23.4921 12.34L22.7424 12.3182ZM11.7731 1.40655L12.4347 1.75978L11.7731 1.40655ZM11.6823 1.25806L11.7041 2.00774L11.6823 1.25806ZM11.7731 1.40655L11.1115 1.05332C10.4565 2.28014 10.084 3.68099 10.084 5.16747L10.834 5.16748L11.584 5.16749C11.584 3.93437 11.8925 2.77542 12.4347 1.75978L11.7731 1.40655ZM10.834 5.16748H10.084C10.084 9.99997 14.0015 13.9175 18.834 13.9175V13.1675V12.4175C14.8299 12.4175 11.584 9.17155 11.584 5.16748H10.834ZM18.834 13.1675V13.9175C20.3208 13.9175 21.7209 13.5438 22.9472 12.889L22.5939 12.2274L22.2407 11.5658C21.2248 12.1082 20.0665 12.4175 18.834 12.4175V13.1675ZM22.7424 12.3182L21.9927 12.2964C21.8363 17.6823 17.4234 22.0005 12 22.0005V22.7505V23.5005C18.2379 23.5005 23.3122 18.534 23.4921 12.34L22.7424 12.3182ZM12 22.7505V22.0005C6.4773 22.0005 2.00019 17.5232 2 12.0005L1.25 12.0005L0.5 12.0005C0.500218 18.3516 5.64883 23.5005 12 23.5005V22.7505ZM1.25 12.0005H2C2 6.5769 6.31809 2.16403 11.7041 2.00774L11.6823 1.25806L11.6606 0.508375C5.46634 0.68811 0.5 5.76252 0.5 12.0005H1.25ZM22.5939 12.2274L22.9472 12.889C22.5206 13.1167 21.9778 12.8104 21.9927 12.2964L22.7424 12.3182L23.4921 12.34C23.5115 11.6719 22.8032 11.2655 22.2407 11.5658L22.5939 12.2274ZM11.7731 1.40655L12.4347 1.75978C12.735 1.19736 12.3286 0.48899 11.6606 0.508375L11.6823 1.25806L11.7041 2.00774C11.19 2.02266 10.8838 1.4798 11.1115 1.05332L11.7731 1.40655Z"
    fill="currentColor"
  />
</svg>
