<svg width="16" height="16" viewBox="0 0 16 16" fill="none" xmlns="http://www.w3.org/2000/svg" data-fui-icon="true">
  <path
    d="M8.14062 1.08398C8.41794 1.08956 8.6697 1.24863 8.79492 1.49609C8.92005 1.74384 8.89847 2.04093 8.73828 2.26758C8.32576 2.85114 8.08308 3.56272 8.08301 4.33301C8.08301 6.31183 9.68728 7.91564 11.666 7.91602C12.4364 7.91602 13.1488 7.67432 13.7324 7.26172L13.8203 7.20801C14.0321 7.09831 14.2863 7.09499 14.5029 7.2041C14.7506 7.32907 14.9092 7.58111 14.915 7.8584C14.916 7.90569 14.916 7.95334 14.916 8C14.9158 11.8197 11.8197 14.9158 8 14.916C4.18031 14.9158 1.08318 11.8197 1.08301 8C1.08321 4.18032 4.18032 1.08321 8 1.08301C8.04683 1.08301 8.09396 1.08305 8.14062 1.08398ZM6.85059 2.70605C4.41134 3.23318 2.58318 5.40307 2.58301 8C2.58318 10.9913 5.00874 13.4158 8 13.416C10.5974 13.4159 12.7664 11.5874 13.293 9.14746C12.7818 9.32011 12.2347 9.41602 11.666 9.41602C8.85885 9.41564 6.58301 7.14026 6.58301 4.33301C6.58305 3.76442 6.67795 3.21716 6.85059 2.70605Z"
    fill="currentColor"
  />
</svg>
