<svg width="16" height="16" viewBox="0 0 16 16" fill="none" xmlns="http://www.w3.org/2000/svg" data-fui-icon="true">
  <g clip-path="url(#clip0_6288_92)">
    <path
      d="M7.25781 0.0410156C7.51083 0.0512115 7.74478 0.190187 7.875 0.413086C8.02379 0.667875 8.00911 0.986268 7.83789 1.22656C6.45449 3.16846 6.63438 5.88237 8.37598 7.62402C10.1176 9.3656 12.8314 9.54482 14.7734 8.16113L14.8662 8.10352C15.0916 7.98808 15.364 7.99382 15.5869 8.12402C15.8414 8.27284 15.9851 8.55737 15.9541 8.85059C15.5288 12.8689 12.1311 15.9998 8 16C3.58203 15.9998 0.000170188 12.418 0 8C0.000209687 3.86922 3.13128 0.471421 7.14941 0.0458984L7.25781 0.0410156Z"
      fill="currentColor"
    />
  </g>
  <defs>
    <clipPath id="clip0_6288_92"><path fill="currentColor" d="M0 0H16V16H0z" /></clipPath>
  </defs>
</svg>
