<svg width="16" height="16" viewBox="0 0 16 16" fill="none" xmlns="http://www.w3.org/2000/svg" data-fui-icon="true">
  <path
    d="M7.27734 3.7229H6.27734V3.72295L7.27734 3.7229ZM1.5 8.00024H0.5V8.00029L1.5 8.00024ZM14.3434 8.27594L14.7574 9.18622L14.3434 8.27594ZM14.4869 8.37148L15.4853 8.42774L14.4869 8.37148ZM7.72428 1.65584L6.81403 1.24179L7.72428 1.65584ZM7.72428 1.65584L6.81403 1.24179C6.46979 1.99858 6.27734 2.83928 6.27734 3.7229H7.27734H8.27734C8.27734 3.13206 8.40561 2.57316 8.63454 2.0699L7.72428 1.65584ZM7.27734 3.7229L6.27734 3.72295C6.27752 7.03644 8.96367 9.7229 12.2773 9.7229V8.7229V7.7229C10.0684 7.7229 8.27746 5.93195 8.27734 3.72285L7.27734 3.7229ZM12.2773 8.7229V9.7229C13.161 9.7229 14.0011 9.53017 14.7574 9.18622L14.3434 8.27594L13.9294 7.36565C13.4261 7.59457 12.8677 7.7229 12.2773 7.7229V8.7229ZM14.4869 8.37148L13.4884 8.31523C13.3256 11.2062 10.9311 13.5002 8 13.5002V14.5002V15.5002C11.9991 15.5002 15.2631 12.3707 15.4853 8.42774L14.4869 8.37148ZM8 14.5002V13.5002C4.96258 13.5002 2.50014 11.0377 2.5 8.0002L1.5 8.00024L0.5 8.00029C0.500191 12.1422 3.85792 15.5002 8 15.5002V14.5002ZM1.5 8.00024H2.5C2.5 5.06881 4.79414 2.67359 7.68496 2.51083L7.62874 1.51241L7.57253 0.51399C3.62918 0.736013 0.5 4.00123 0.5 8.00024H1.5ZM14.3434 8.27594L14.7574 9.18622C14.1797 9.44898 13.4481 9.03174 13.4884 8.31523L14.4869 8.37148L15.4853 8.42774C15.5341 7.5604 14.6447 7.04035 13.9294 7.36565L14.3434 8.27594ZM7.72428 1.65584L8.63454 2.0699C8.95986 1.35469 8.43996 0.46515 7.57253 0.51399L7.62874 1.51241L7.68496 2.51083C6.96837 2.55117 6.55126 1.81947 6.81403 1.24179L7.72428 1.65584Z"
    fill="currentColor"
  />
</svg>
