<svg width="21" height="21" viewBox="0 0 21 21" fill="none" xmlns="http://www.w3.org/2000/svg" data-fui-icon="true">
  <path
    d="M10.5 0.787423C10.5924 0.787425 10.6458 0.894033 10.5957 0.971638C9.90837 2.03649 9.50861 3.30445 9.50854 4.6661C9.50854 8.43503 12.564 11.4904 16.3329 11.4904C17.6942 11.4904 18.9617 11.0908 20.0264 10.4039C20.1044 10.3535 20.2126 10.4072 20.2126 10.5C20.2122 15.8636 15.8637 20.2125 10.5 20.2126C5.13641 20.2124 0.787794 15.8636 0.787423 10.5C0.787423 5.13613 5.13618 0.787631 10.5 0.787423Z"
    fill="currentColor"
  />
  <path
    d="M9.50854 4.6661L8.72112 4.66606V4.6661H9.50854ZM16.3329 11.4904L16.3329 12.2779H16.3329V11.4904ZM20.2126 10.5L21 10.5001V10.5H20.2126ZM10.5 20.2126L10.5 21H10.5L10.5 20.2126ZM0.787423 10.5H0V10.5001L0.787423 10.5ZM10.5 0.787423L10.5 0H10.5L10.5 0.787423ZM20.0264 10.4039L20.4534 11.0655L20.0264 10.4039ZM10.5957 0.971638L9.93411 0.544616L10.5957 0.971638ZM10.5957 0.971638L9.93411 0.544616C9.16734 1.73256 8.7212 3.14804 8.72112 4.66606L9.50854 4.6661L10.296 4.66614C10.296 3.46085 10.6494 2.34043 11.2573 1.39866L10.5957 0.971638ZM9.50854 4.6661H8.72112C8.72112 8.86993 12.1291 12.2778 16.3329 12.2779L16.3329 11.4904L16.3329 10.703C12.9988 10.7029 10.296 8.00013 10.296 4.6661H9.50854ZM16.3329 11.4904V12.2779C17.8506 12.2779 19.2656 11.8319 20.4534 11.0655L20.0264 10.4039L19.5995 9.74221C18.6579 10.3498 17.5379 10.703 16.3329 10.703V11.4904ZM20.2126 10.5L19.4252 10.4999C19.4248 15.4288 15.4288 19.4251 10.5 19.4252L10.5 20.2126L10.5 21C16.2986 20.9999 20.9996 16.2985 21 10.5001L20.2126 10.5ZM10.5 20.2126L10.5 19.4252C5.57132 19.425 1.57519 15.4287 1.57485 10.4999L0.787423 10.5L0 10.5001C0.000401318 16.2984 4.70149 20.9998 10.5 21L10.5 20.2126ZM0.787423 10.5H1.57485C1.57485 5.57104 5.57104 1.57504 10.5 1.57485L10.5 0.787423L10.5 0C4.70132 0.000224658 0 4.70122 0 10.5H0.787423ZM20.0264 10.4039L20.4534 11.0655C20.0595 11.3197 19.4252 11.0918 19.4252 10.5H20.2126H21C21 9.72257 20.1494 9.38739 19.5995 9.74221L20.0264 10.4039ZM10.5957 0.971638L11.2573 1.39866C11.6155 0.843589 11.2706 1.5457e-05 10.5 0L10.5 0.787423L10.5 1.57485C9.91413 1.57483 9.67602 0.944477 9.93411 0.544616L10.5957 0.971638Z"
    fill="currentColor"
  />
</svg>
