<svg width="24" height="24" viewBox="0 0 24 24" fill="none" xmlns="http://www.w3.org/2000/svg" data-fui-icon="true">
  <path
    d="M10.9395 1.05762C11.1924 1.06786 11.4264 1.20683 11.5566 1.42969C11.7052 1.68444 11.6907 2.00297 11.5195 2.24316C9.47644 5.10998 9.74081 9.11581 12.3125 11.6875L12.5576 11.9209C15.133 14.2724 18.9784 14.4588 21.7559 12.4795L21.8486 12.4219C22.074 12.3064 22.3464 12.3122 22.5693 12.4424C22.8237 12.5911 22.9673 12.8749 22.9365 13.168C22.3525 18.6938 17.6807 22.9999 12 23C5.92487 23 1.00001 18.0751 1 12C1 6.31986 5.30472 1.64617 10.8301 1.06152L10.9395 1.05762Z"
    fill="currentColor"
  />
</svg>
