<svg
  width="12"
  height="12"
  viewBox="0 0 12 12"
  fill="none"
  xmlns="http://www.w3.org/2000/svg"
  data-fui-icon="true"
>
  <path
    d="M0.750009 5.99999L1.50001 5.99999L1.50001 5.99999L0.750009 5.99999ZM5.4404 0.779464L6.0512 1.2147C6.22243 0.974389 6.23685 0.656004 6.08803 0.401204C5.93921 0.146405 5.65481 0.00254725 5.36138 0.0336391L5.4404 0.779464ZM6.00001 11.25L6.00001 12L6.00001 11.25ZM11.2205 6.55959L11.9664 6.63861C11.9975 6.34518 11.8536 6.06078 11.5988 5.91196C11.344 5.76314 11.0256 5.77756 10.7853 5.94879L11.2205 6.55959ZM1.50001 5.99999C1.50001 3.67722 3.26047 1.76464 5.51943 1.52529L5.36138 0.0336391C2.34757 0.352977 8.84459e-06 2.90184 8.79831e-06 5.99999L1.50001 5.99999ZM6.00001 10.5C3.51473 10.5 1.50001 8.48527 1.50001 5.99999L8.79831e-06 5.99999C8.65865e-06 9.3137 2.6863 12 6.00001 12L6.00001 10.5ZM10.4747 6.48056C10.2354 8.73953 8.32278 10.5 6.00001 10.5L6.00001 12C9.09816 12 11.647 9.65243 11.9664 6.63861L10.4747 6.48056ZM10.7853 5.94879C9.46011 6.89309 7.60757 6.76995 6.41881 5.58119L5.35815 6.64185C7.07349 8.35719 9.74384 8.53277 11.6558 7.17038L10.7853 5.94879ZM6.41881 5.58119C5.23005 4.39243 5.10691 2.53989 6.0512 1.2147L4.82961 0.34423C3.46723 2.25616 3.6428 4.9265 5.35815 6.64185L6.41881 5.58119Z"
    fill="currentColor"
  />
</svg>
