<svg width="20" height="20" viewBox="0 0 20 20" fill="none" xmlns="http://www.w3.org/2000/svg" data-fui-icon="true">
  <path
    d="M9.15234 1.0459C9.40529 1.05614 9.63933 1.19513 9.76953 1.41797C9.91817 1.67273 9.90361 1.99124 9.73242 2.23145C8.12864 4.48163 8.33697 7.62596 10.3555 9.64453C12.3739 11.6628 15.5173 11.8704 17.7676 10.2666L17.8613 10.21C18.0866 10.0946 18.3582 10.0995 18.5811 10.2295C18.8357 10.3783 18.9802 10.6627 18.9492 10.9561C18.4712 15.4772 14.6477 18.9999 10 19C5.02964 18.9999 1.00019 14.9703 1 10C1.00017 5.35272 4.5222 1.52917 9.04297 1.05078L9.15234 1.0459ZM7.69141 2.86328C4.67956 3.83698 2.50015 6.66403 2.5 10C2.50019 14.1419 5.85806 17.4999 10 17.5C13.3364 17.4999 16.1625 15.3202 17.1357 12.3076C14.6167 13.3185 11.6474 12.864 9.53711 10.9375L9.29395 10.7051C7.17365 8.58441 6.64146 5.48051 7.69141 2.86328Z"
    fill="currentColor"
  />
</svg>
