<svg width="12" height="12" viewBox="0 0 12 12" fill="none" xmlns="http://www.w3.org/2000/svg" data-fui-icon="true">
  <path
    d="M5.4707 0.0292969C5.72367 0.0394657 5.95763 0.178569 6.08789 0.401367C6.2367 0.65616 6.22298 0.975517 6.05176 1.21582C5.10786 2.54092 5.2304 4.39241 6.41895 5.58105L6.64941 5.79199C7.83679 6.78079 9.54169 6.83242 10.7842 5.94727L10.877 5.89062C11.1024 5.77517 11.3747 5.77996 11.5977 5.91016C11.8523 6.05891 11.9957 6.34348 11.9648 6.63672C11.6462 9.6509 9.09879 11.9989 6 11.999C2.68632 11.999 0 9.31271 0 5.99902C0.000463805 2.90107 2.34869 0.353303 5.3623 0.0341797L5.4707 0.0292969ZM4.08887 1.9248C2.55956 2.64323 1.50036 4.19772 1.5 5.99902C1.5 8.48428 3.51475 10.5 6 10.5C7.80194 10.4999 9.35521 9.43928 10.0732 7.90918C8.44406 8.34049 6.63677 7.91981 5.3584 6.6416C4.08005 5.36318 3.6575 3.55471 4.08887 1.9248Z"
    fill="currentColor"
  />
</svg>
