<svg
  width="20"
  height="20"
  viewBox="0 0 20 20"
  fill="none"
  xmlns="http://www.w3.org/2000/svg"
  data-fui-icon="true"
>
  <g clip-path="url(#clip0_882_612)">
    <path
      d="M1.74996 10L2.49996 10L1.74996 10ZM9.1206 1.79632L9.73139 2.23155C9.90263 1.99125 9.91705 1.67286 9.76823 1.41806C9.61941 1.16326 9.33501 1.0194 9.04157 1.05049L9.1206 1.79632ZM9.99996 18.25V17.5V18.25ZM18.2036 10.8794L18.9495 10.9584C18.9806 10.665 18.8367 10.3806 18.5819 10.2318C18.3271 10.0829 18.0087 10.0974 17.7684 10.2686L18.2036 10.8794ZM2.49996 10C2.49996 6.1284 5.43415 2.94112 9.19962 2.54214L9.04157 1.05049C4.52125 1.52945 0.999958 5.35301 0.999958 10L2.49996 10ZM9.99996 17.5C5.85782 17.5 2.49996 14.1421 2.49996 10L0.999958 10C0.999959 14.9706 5.0294 19 9.99996 19L9.99996 17.5ZM17.4578 10.8004C17.0588 14.5658 13.8716 17.5 9.99996 17.5V19C14.6469 19 18.4705 15.4787 18.9495 10.9584L17.4578 10.8004ZM17.7684 10.2686C15.5183 11.8719 12.3735 11.6634 10.355 9.64494L9.29438 10.7056C11.8395 13.2507 15.8021 13.5116 18.6389 11.4902L17.7684 10.2686ZM10.355 9.64494C8.33653 7.62644 8.12804 4.48164 9.73139 2.23155L8.5098 1.36108C6.48836 4.1979 6.74928 8.16051 9.29438 10.7056L10.355 9.64494Z"
      fill="currentColor"
    />
  </g>
  <defs>
    <clipPath id="clip0_882_612">
      <path fill="currentColor" d="M0 0H20V20H0z" />
    </clipPath>
  </defs>
</svg>
