<svg width="20" height="20" viewBox="0 0 20 20" fill="none" xmlns="http://www.w3.org/2000/svg" data-fui-icon="true">
  <g clip-path="url(#clip0_4061_7)">
    <path
      d="M7.05078 1.25C9.67413 1.25 11.8008 3.37665 11.8008 6C11.8008 7.35368 11.2328 8.57326 10.3242 9.43848C12.4652 10.4042 13.5936 12.1353 14.1729 13.541C14.856 15.1991 14.3136 17.1894 12.5684 18.0029C11.4084 18.5435 9.71246 19 7.30078 19C4.68209 19 2.90776 18.462 1.74805 17.8633C0.237489 17.0833 -0.296808 15.3678 0.15625 13.8496C0.589895 12.3968 1.5812 10.4912 3.79102 9.45215C2.87426 8.58617 2.30078 7.36062 2.30078 6C2.30078 3.37665 4.42744 1.25001 7.05078 1.25ZM8.7041 10.4531C8.18912 10.6444 7.63235 10.75 7.05078 10.75C6.47151 10.75 5.91661 10.6459 5.40332 10.4561C3.00393 11.1017 2.01511 12.8674 1.59375 14.2793C1.31308 15.2202 1.6668 16.1328 2.43652 16.5303C3.35948 17.0067 4.89311 17.5 7.30078 17.5C9.51928 17.5 10.9953 17.0813 11.9346 16.6436C12.8361 16.2233 13.2155 15.1543 12.7861 14.1123C12.2145 12.7251 11.0625 11.0715 8.7041 10.4531ZM13.501 2.25C15.5719 2.25012 17.251 3.92901 17.251 6C17.251 6.94224 16.902 7.8022 16.3281 8.46094C17.7159 9.11178 18.5565 10.1218 19.0508 11.0439C19.8318 12.5013 19.4233 14.3626 17.9199 15.2227C17.5856 15.4138 17.1964 15.596 16.7471 15.752C16.3558 15.8877 15.9288 15.6803 15.793 15.2891C15.6573 14.8979 15.8639 14.4709 16.2549 14.335C16.6157 14.2097 16.9206 14.0662 17.1748 13.9209C17.9058 13.5027 18.1635 12.5646 17.7285 11.7529C17.2717 10.9007 16.4291 9.93802 14.8301 9.50586C14.4168 9.66264 13.9692 9.74997 13.501 9.75C13.0868 9.74999 12.751 9.41421 12.751 9C12.751 8.58579 13.0868 8.25001 13.501 8.25C14.7435 8.24988 15.751 7.24257 15.751 6C15.751 4.75743 14.7435 3.75012 13.501 3.75C13.3724 3.75 13.2467 3.76084 13.125 3.78125C12.7167 3.8497 12.3305 3.5742 12.2617 3.16602C12.1932 2.75751 12.4684 2.37029 12.877 2.30176C13.0803 2.26766 13.289 2.25 13.501 2.25ZM7.05078 2.75C5.25587 2.75001 3.80078 4.20508 3.80078 6C3.80078 7.79492 5.25587 9.24999 7.05078 9.25C8.84571 9.25 10.3008 7.79493 10.3008 6C10.3008 4.20507 8.84571 2.75 7.05078 2.75Z"
      fill="currentColor"
    />
  </g>
  <defs>
    <clipPath id="clip0_4061_7"><path fill="currentColor" d="M0 0H20V20H0z" /></clipPath>
  </defs>
</svg>
