<svg width="16" height="16" viewBox="0 0 16 16" fill="none" xmlns="http://www.w3.org/2000/svg" data-fui-icon="true">
  <g clip-path="url(#clip0_4061_24)">
    <path
      d="M5.59961 0.849609C7.78087 0.849779 9.54961 2.61855 9.5498 4.7998C9.54975 5.84837 9.13943 6.80055 8.47266 7.50781C9.78766 8.15833 10.6155 9.16635 11.124 10.1152C12.0769 11.8934 11.3048 14.1003 9.29297 14.7002C8.41444 14.9621 7.27095 15.1494 5.7998 15.1494C4.15203 15.1494 2.91537 14.9137 2.00195 14.6025C0.22767 13.998 -0.519006 12.0775 0.160156 10.4102C0.577866 9.38481 1.35064 8.24003 2.73828 7.52148C2.06415 6.8129 1.64947 5.85492 1.64941 4.7998C1.64961 2.61845 3.41821 0.849609 5.59961 0.849609ZM6.92773 8.52051C6.51259 8.66878 6.06566 8.74996 5.59961 8.75C5.13576 8.75 4.69083 8.66936 4.27734 8.52246C2.71503 8.9581 1.94597 10.0041 1.5498 10.9766C1.16805 11.9141 1.59724 12.88 2.48535 13.1826C3.22449 13.4344 4.29563 13.6494 5.7998 13.6494C7.14274 13.6494 8.14022 13.4785 8.86426 13.2627C9.88832 12.9573 10.3451 11.8385 9.80176 10.8242C9.30295 9.89342 8.44461 8.93227 6.92773 8.52051ZM10.7998 1.65039C12.5393 1.65066 13.9492 3.06125 13.9492 4.80078C13.949 5.52207 13.7029 6.18396 13.2949 6.71484C14.1457 7.15292 14.7344 7.76066 15.1338 8.36719C16.0772 9.79996 15.6108 11.7709 14.001 12.5186C13.8293 12.5983 13.6436 12.674 13.4443 12.7432C13.0532 12.8785 12.6259 12.6714 12.4902 12.2803C12.3548 11.8892 12.5621 11.462 12.9531 11.3262C13.1048 11.2736 13.2432 11.2166 13.3691 11.1582C14.0945 10.8214 14.3533 9.91003 13.8809 9.19238C13.5133 8.63416 12.9077 8.05411 11.873 7.76172C11.5381 7.88318 11.1767 7.95014 10.7998 7.9502C10.3857 7.9502 10.05 7.61424 10.0498 7.2002C10.0499 6.78607 10.3857 6.4502 10.7998 6.4502C11.7106 6.44993 12.4488 5.71154 12.4492 4.80078C12.4492 3.88968 11.7108 3.15066 10.7998 3.15039C10.7053 3.15039 10.6127 3.15788 10.5234 3.17285C10.1151 3.24136 9.72887 2.96591 9.66016 2.55762C9.59162 2.14911 9.86689 1.76287 10.2754 1.69434C10.4463 1.66566 10.6218 1.65039 10.7998 1.65039ZM5.59961 2.34961C4.24663 2.34961 3.14961 3.44688 3.14941 4.7998C3.14952 6.15281 4.24658 7.25 5.59961 7.25C6.9525 7.24983 8.0497 6.15271 8.0498 4.7998C8.04961 3.44698 6.95244 2.34978 5.59961 2.34961Z"
      fill="currentColor"
    />
  </g>
  <defs>
    <clipPath id="clip0_4061_24"><path fill="currentColor" d="M0 0H16V16H0z" /></clipPath>
  </defs>
</svg>
