<svg width="24" height="24" viewBox="0 0 24 24" fill="none" xmlns="http://www.w3.org/2000/svg" data-fui-icon="true">
  <path
    d="M16.25 0C20.5302 0 24 3.46979 24 7.75V17.25C24 17.3765 23.9952 17.5021 23.9883 17.627C23.7568 17.5464 23.509 17.5 23.25 17.5H22V16.25C22 15.0074 20.9926 14 19.75 14C18.5074 14 17.5 15.0074 17.5 16.25V17.5H16.25C15.0074 17.5 14 18.5074 14 19.75C14 20.9926 15.0074 22 16.25 22H17.5V23.25C17.5 23.509 17.5464 23.7568 17.627 23.9883C17.5021 23.9952 17.3765 24 17.25 24H7.75C3.46979 24 0 20.5302 0 16.25V7.75C0 3.46979 3.46979 2.57702e-07 7.75 0H16.25ZM22.0459 22C22.0308 22.0152 22.0152 22.0299 22 22.0449V22H22.0459ZM7 16.25C6.58579 16.25 6.25 16.5858 6.25 17C6.25 17.4142 6.58579 17.75 7 17.75H12C12.4142 17.75 12.75 17.4142 12.75 17C12.75 16.5858 12.4142 16.25 12 16.25H7ZM7 11.25C6.58579 11.25 6.25 11.5858 6.25 12C6.25 12.4142 6.58579 12.75 7 12.75H17C17.4142 12.75 17.75 12.4142 17.75 12C17.75 11.5858 17.4142 11.25 17 11.25H7ZM7 6.25C6.58579 6.25 6.25 6.58579 6.25 7C6.25 7.41421 6.58579 7.75 7 7.75H17C17.4142 7.75 17.75 7.41421 17.75 7C17.75 6.58579 17.4142 6.25 17 6.25H7Z"
    fill="currentColor"
  />
  <path
    d="M19.75 16.25V19.75M19.75 23.25V19.75M19.75 19.75H16.25M19.75 19.75H23.25"
    stroke="currentColor"
    stroke-width="1.5"
    stroke-linecap="round"
    stroke-linejoin="round"
  />
</svg>
