<svg width="20" height="20" viewBox="0 0 20 20" fill="none" xmlns="http://www.w3.org/2000/svg" data-fui-icon="true">
  <path
    d="M14.6504 0C17.6048 0.000210779 19.9997 2.39525 20 5.34961V14.6504C19.9998 17.6048 17.6048 19.9998 14.6504 20H5.34961C2.3952 19.9998 0.00021078 17.6048 0 14.6504V5.34961C0.000277065 2.39525 2.39524 0.000211094 5.34961 0H14.6504ZM6 13.25C5.58581 13.25 5.25003 13.5858 5.25 14C5.25 14.4142 5.58579 14.75 6 14.75H11C11.4142 14.75 11.75 14.4142 11.75 14C11.75 13.5858 11.4142 13.25 11 13.25H6ZM6 9.25C5.58581 9.25 5.25003 9.58581 5.25 10C5.25 10.4142 5.58579 10.75 6 10.75H14C14.4142 10.75 14.75 10.4142 14.75 10C14.75 9.58581 14.4142 9.25 14 9.25H6ZM6 5.25C5.58581 5.25 5.25003 5.58581 5.25 6C5.25 6.41421 5.58579 6.75 6 6.75H14C14.4142 6.75 14.75 6.41421 14.75 6C14.75 5.58581 14.4142 5.25 14 5.25H6Z"
    fill="currentColor"
  />
</svg>
