<svg width="16" height="16" viewBox="0 0 16 16" fill="none" xmlns="http://www.w3.org/2000/svg" data-fui-icon="true">
  <path
    d="M11.7498 0.000244137C14.0969 0.00037608 15.9998 1.90309 15.9998 4.25018V11.7501C15.9996 14.097 14.0968 15.9999 11.7498 16H4.24994C1.90284 16 0.000131944 14.0971 0 11.7501V4.25018C1.28851e-07 1.90301 1.90276 0.000244137 4.24994 0.000244137H11.7498ZM4.24994 1.50022C2.73118 1.50022 1.49998 2.73142 1.49998 4.25018V11.7501C1.50011 13.2687 2.73126 14.5 4.24994 14.5H11.7498C13.2684 14.4999 14.4996 13.2686 14.4998 11.7501V4.25018C14.4998 2.7315 13.2685 1.50035 11.7498 1.50022H4.24994ZM7.99988 10.2501C8.41397 10.2502 8.74987 10.586 8.74987 11.0001C8.74973 11.4141 8.41389 11.7499 7.99988 11.7501H4.99992C4.5858 11.7501 4.25007 11.4142 4.24994 11.0001C4.24994 10.5859 4.58572 10.2501 4.99992 10.2501H7.99988ZM10.9998 7.25013C11.4139 7.25027 11.7498 7.586 11.7498 8.00012C11.7497 8.41414 11.4138 8.74998 10.9998 8.75011H4.99992C4.5858 8.75011 4.25007 8.41422 4.24994 8.00012C4.24994 7.58591 4.58572 7.25013 4.99992 7.25013H10.9998ZM10.9998 4.25018C11.4139 4.25031 11.7498 4.58604 11.7498 5.00017C11.7497 5.41418 11.4138 5.75002 10.9998 5.75016H4.99992C4.5858 5.75016 4.25007 5.41426 4.24994 5.00017C4.24994 4.58596 4.58572 4.25018 4.99992 4.25018H10.9998Z"
    fill="currentColor"
  />
</svg>
