<svg width="20" height="20" viewBox="0 0 20 20" fill="none" xmlns="http://www.w3.org/2000/svg" data-fui-icon="true">
  <path
    d="M9.99997 0C11.7388 0 13.0944 -0.000579819 14.1757 0.0996091C15.2676 0.200796 16.1554 0.409852 16.9394 0.874997C17.8394 1.40902 18.5909 2.16059 19.1249 3.06054C19.5901 3.84451 19.7991 4.73238 19.9003 5.8242C20.0005 6.90548 19.9999 8.26121 19.9999 9.99997V12.625C19.9999 13.0392 19.6642 13.375 19.2499 13.375C18.8357 13.375 18.4999 13.0392 18.4999 12.625V9.99997C18.4999 8.23299 18.4995 6.95889 18.4072 5.96287C18.3159 4.97759 18.1396 4.33971 17.8349 3.82616C17.429 3.14213 16.8578 2.57091 16.1738 2.16503C15.6602 1.86034 15.0224 1.68406 14.0371 1.59277C13.041 1.50049 11.767 1.5 9.99997 1.5C8.23294 1.5 6.95891 1.50049 5.96287 1.59277C4.97755 1.68406 4.33972 1.86034 3.82616 2.16503C3.14212 2.57091 2.57093 3.14213 2.16503 3.82616C1.86033 4.33971 1.68407 4.97759 1.59277 5.96287C1.50049 6.95889 1.5 8.23299 1.5 9.99997C1.5 11.7669 1.5005 13.041 1.59277 14.0371C1.68406 15.0224 1.86035 15.6602 2.16503 16.1738C2.57092 16.8578 3.14211 17.429 3.82616 17.8349C4.33973 18.1396 4.97753 18.3159 5.96287 18.4072C6.95891 18.4995 8.23293 18.4999 9.99997 18.4999H12.625C13.0391 18.4999 13.3749 18.8358 13.375 19.2499C13.375 19.6642 13.0392 19.9999 12.625 19.9999H9.99997C8.26115 19.9999 6.90551 20.0005 5.8242 19.9003C4.73232 19.7991 3.84453 19.5901 3.06054 19.1249C2.16057 18.5909 1.40903 17.8394 0.874997 16.9394C0.409867 16.1554 0.200795 15.2676 0.0996091 14.1757C-0.000569605 13.0945 0 11.7387 0 9.99997C-2.71565e-08 8.26121 -0.000578527 6.90548 0.0996091 5.8242C0.200803 4.73238 0.409847 3.84451 0.874997 3.06054C1.40904 2.16059 2.16058 1.40902 3.06054 0.874997C3.84452 0.409852 4.73234 0.200796 5.8242 0.0996091C6.90551 -0.000579839 8.26116 0 9.99997 0ZM16.7499 13.5C17.1641 13.5 17.4999 13.8358 17.4999 14.25V16H19.2499C19.6641 16 19.9999 16.3358 19.9999 16.7499C19.9999 17.1641 19.6641 17.4999 19.2499 17.4999H17.4999V19.2499C17.4999 19.6642 17.1642 19.9999 16.7499 19.9999C16.3357 19.9999 16 19.6642 16 19.2499V17.4999H14.25C13.8358 17.4999 13.5 17.1641 13.5 16.7499C13.5 16.3358 13.8358 16 14.25 16H16V14.25C16 13.8358 16.3358 13.5 16.7499 13.5ZM11 13.25C11.4142 13.25 11.7499 13.5858 11.75 14C11.75 14.4142 11.4142 14.75 11 14.75H5.99998C5.58577 14.75 5.24998 14.4142 5.24998 14C5.25002 13.5858 5.58579 13.25 5.99998 13.25H11ZM14 9.24997C14.4141 9.24997 14.7499 9.58579 14.75 9.99997C14.75 10.4142 14.4142 10.75 14 10.75H5.99998C5.58577 10.75 5.24998 10.4142 5.24998 9.99997C5.25002 9.58579 5.58579 9.24997 5.99998 9.24997H14ZM14 5.24998C14.4141 5.24998 14.7499 5.5858 14.75 5.99998C14.75 6.41419 14.4142 6.74998 14 6.74998H5.99998C5.58577 6.74998 5.24998 6.41419 5.24998 5.99998C5.25002 5.5858 5.58579 5.24998 5.99998 5.24998H14Z"
    fill="currentColor"
  />
</svg>
