<svg width="20" height="20" viewBox="0 0 20 20" fill="none" xmlns="http://www.w3.org/2000/svg" data-fui-icon="true">
  <path
    d="M14.6504 0C17.6048 0.000210779 19.9997 2.39525 20 5.34961V14.6504C19.9998 17.6048 17.6048 19.9998 14.6504 20H5.34961C2.3952 19.9998 0.00021078 17.6048 0 14.6504V5.34961C0.000277065 2.39525 2.39524 0.000211094 5.34961 0H14.6504ZM5.34961 1.5C3.22366 1.50021 1.50028 3.22368 1.5 5.34961V14.6504C1.50021 16.7764 3.22362 18.4998 5.34961 18.5H14.6504C16.7764 18.4998 18.4998 16.7764 18.5 14.6504V5.34961C18.4997 3.22368 16.7763 1.50021 14.6504 1.5H5.34961ZM11 13.25C11.4142 13.25 11.75 13.5858 11.75 14C11.75 14.4142 11.4142 14.75 11 14.75H6C5.58579 14.75 5.25 14.4142 5.25 14C5.25003 13.5858 5.58581 13.25 6 13.25H11ZM14 9.25C14.4142 9.25 14.75 9.58581 14.75 10C14.75 10.4142 14.4142 10.75 14 10.75H6C5.58579 10.75 5.25 10.4142 5.25 10C5.25003 9.58581 5.58581 9.25 6 9.25H14ZM14 5.25C14.4142 5.25 14.75 5.58581 14.75 6C14.75 6.41421 14.4142 6.75 14 6.75H6C5.58579 6.75 5.25 6.41421 5.25 6C5.25003 5.58581 5.58581 5.25 6 5.25H14Z"
    fill="currentColor"
  />
</svg>
