<svg width="32" height="32" viewBox="0 0 32 32" fill="none" xmlns="http://www.w3.org/2000/svg" data-fui-icon="true">
  <path
    d="M21.75 1C26.8586 1 31 5.14137 31 10.25V21.75C31 26.8586 26.8586 31 21.75 31H10.25C5.14137 31 1 26.8586 1 21.75V10.25C1 5.14137 5.14137 1 10.25 1H21.75ZM10.25 2.5C5.96979 2.5 2.5 5.96979 2.5 10.25V21.75C2.5 26.0302 5.96979 29.5 10.25 29.5H21.75C26.0302 29.5 29.5 26.0302 29.5 21.75V10.25C29.5 5.96979 26.0302 2.5 21.75 2.5H10.25ZM16 21.25C16.4142 21.25 16.75 21.5858 16.75 22C16.75 22.4142 16.4142 22.75 16 22.75H9C8.58579 22.75 8.25 22.4142 8.25 22C8.25 21.5858 8.58579 21.25 9 21.25H16ZM23 15.25C23.4142 15.25 23.75 15.5858 23.75 16C23.75 16.4142 23.4142 16.75 23 16.75H9C8.58579 16.75 8.25 16.4142 8.25 16C8.25 15.5858 8.58579 15.25 9 15.25H23ZM23 9.25C23.4142 9.25 23.75 9.58579 23.75 10C23.75 10.4142 23.4142 10.75 23 10.75H9C8.58579 10.75 8.25 10.4142 8.25 10C8.25 9.58579 8.58579 9.25 9 9.25H23Z"
    fill="currentColor"
  />
</svg>
