<svg width="32" height="32" viewBox="0 0 32 32" fill="none" xmlns="http://www.w3.org/2000/svg" data-fui-icon="true">
  <path
    d="M21.75 1C26.8586 1 31 5.14137 31 10.25V21.75C31 22.2882 30.9505 22.8151 30.8623 23.3281C30.6662 23.2787 30.4615 23.25 30.25 23.25H28.25V21.25C28.25 19.8693 27.1307 18.75 25.75 18.75C24.3693 18.75 23.25 19.8693 23.25 21.25V23.25H21.25C19.8693 23.25 18.75 24.3693 18.75 25.75C18.75 27.1307 19.8693 28.25 21.25 28.25H23.25V30.25C23.25 30.4615 23.2787 30.6662 23.3281 30.8623C22.8151 30.9505 22.2882 31 21.75 31H10.25C5.14137 31 1 26.8586 1 21.75V10.25C1 5.14137 5.14137 1 10.25 1H21.75ZM28.3301 28.25C28.3037 28.2767 28.2767 28.3027 28.25 28.3291V28.25H28.3301ZM9 21.25C8.58579 21.25 8.25 21.5858 8.25 22C8.25 22.4142 8.58579 22.75 9 22.75H16C16.4142 22.75 16.75 22.4142 16.75 22C16.75 21.5858 16.4142 21.25 16 21.25H9ZM9 15.25C8.58579 15.25 8.25 15.5858 8.25 16C8.25 16.4142 8.58579 16.75 9 16.75H23C23.4142 16.75 23.75 16.4142 23.75 16C23.75 15.5858 23.4142 15.25 23 15.25H9ZM9 9.25C8.58579 9.25 8.25 9.58579 8.25 10C8.25 10.4142 8.58579 10.75 9 10.75H23C23.4142 10.75 23.75 10.4142 23.75 10C23.75 9.58579 23.4142 9.25 23 9.25H9Z"
    fill="currentColor"
  />
  <path
    d="M25.75 21.25V25.75M25.75 30.25V25.75M25.75 25.75H21.25M25.75 25.75H30.25"
    stroke="currentColor"
    stroke-width="1.5"
    stroke-linecap="round"
    stroke-linejoin="round"
  />
</svg>
