<svg width="24" height="24" viewBox="0 0 24 24" fill="none" xmlns="http://www.w3.org/2000/svg" data-fui-icon="true">
  <path
    d="M12 0C13.9711 0 15.495 -0.000143781 16.7139 0.100586C17.9415 0.202061 18.9265 0.409696 19.8066 0.864258C21.2343 1.60181 22.3982 2.76568 23.1357 4.19336C23.5903 5.07346 23.7979 6.05855 23.8994 7.28613C24.0001 8.50497 24 10.0289 24 12V12.8652C24 14.9018 24.0007 16.4848 23.876 17.7422C23.7501 19.0113 23.4901 20.0301 22.918 20.915C22.3995 21.7169 21.7169 22.3995 20.915 22.918C20.0301 23.4901 19.0113 23.7501 17.7422 23.876C16.4848 24.0007 14.9018 24 12.8652 24H12C10.0289 24 8.50497 24.0001 7.28613 23.8994C6.05855 23.7979 5.07346 23.5903 4.19336 23.1357C2.76568 22.3982 1.60181 21.2343 0.864258 19.8066C0.409696 18.9265 0.202061 17.9415 0.100586 16.7139C-0.000143781 15.495 0 13.9711 0 12C0 10.0289 -0.000143781 8.50497 0.100586 7.28613C0.202061 6.05855 0.409696 5.07346 0.864258 4.19336C1.60181 2.76568 2.76568 1.60181 4.19336 0.864258C5.07346 0.409696 6.05855 0.202061 7.28613 0.100586C8.50497 -0.000143781 10.0289 0 12 0ZM12 1.5C10.0037 1.5 8.55195 1.50026 7.40918 1.59473C6.27561 1.68844 5.51306 1.87125 4.88184 2.19727C3.73048 2.79207 2.79207 3.73048 2.19727 4.88184C1.87125 5.51306 1.68844 6.27561 1.59473 7.40918C1.50026 8.55195 1.5 10.0037 1.5 12C1.5 13.9963 1.50026 15.4481 1.59473 16.5908C1.68844 17.7244 1.87125 18.4869 2.19727 19.1182C2.79207 20.2695 3.73048 21.2079 4.88184 21.8027C5.51306 22.1288 6.27561 22.3116 7.40918 22.4053C8.55195 22.4997 10.0037 22.5 12 22.5H12.8652C14.9322 22.5 16.4276 22.4994 17.5938 22.3838C18.7478 22.2693 19.4986 22.0483 20.1006 21.6592C20.7244 21.2558 21.2558 20.7244 21.6592 20.1006C22.0483 19.4986 22.2693 18.7478 22.3838 17.5938C22.4994 16.4276 22.5 14.9322 22.5 12.8652V12C22.5 10.0037 22.4997 8.55195 22.4053 7.40918C22.3116 6.27561 22.1288 5.51306 21.8027 4.88184C21.2079 3.73048 20.2695 2.79207 19.1182 2.19727C18.4869 1.87125 17.7244 1.68844 16.5908 1.59473C15.4481 1.50026 13.9963 1.5 12 1.5ZM12 16.25C12.4142 16.25 12.75 16.5858 12.75 17C12.75 17.4142 12.4142 17.75 12 17.75H7C6.58579 17.75 6.25 17.4142 6.25 17C6.25 16.5858 6.58579 16.25 7 16.25H12ZM17 11.25C17.4142 11.25 17.75 11.5858 17.75 12C17.75 12.4142 17.4142 12.75 17 12.75H7C6.58579 12.75 6.25 12.4142 6.25 12C6.25 11.5858 6.58579 11.25 7 11.25H17ZM17 6.25C17.4142 6.25 17.75 6.58579 17.75 7C17.75 7.41421 17.4142 7.75 17 7.75H7C6.58579 7.75 6.25 7.41421 6.25 7C6.25 6.58579 6.58579 6.25 7 6.25H17Z"
    fill="currentColor"
  />
</svg>
