<svg width="12" height="12" viewBox="0 0 12 12" fill="none" xmlns="http://www.w3.org/2000/svg" data-fui-icon="true">
  <path
    d="M8.25031 0C10.3209 0.000263795 11.9999 1.67901 12 3.74969V5.99951C12 6.41353 11.664 6.74919 11.2501 6.74945C10.8359 6.74945 10.5001 6.41369 10.5001 5.99951V3.74969C10.5001 2.50737 9.49258 1.50014 8.25031 1.49988H3.75067C2.50817 1.49988 1.50092 2.50721 1.50085 3.74969V8.24933C1.50085 9.49187 2.50813 10.4991 3.75067 10.4991H6.00049C6.4144 10.4994 6.75036 10.8351 6.75043 11.2491C6.75043 11.6631 6.41444 11.9988 6.00049 11.999H3.75067C1.67977 11.999 0.000976483 10.3202 0.000976483 8.24933V3.74969C0.00104249 1.67885 1.67981 1.28838e-07 3.75067 0H8.25031ZM5.99951 6.74945C6.41363 6.74945 6.74935 7.08529 6.74945 7.49939C6.74945 7.91357 6.41369 8.24933 5.99951 8.24933H3.99967C3.58561 8.2492 3.24974 7.91349 3.24974 7.49939C3.24983 7.08538 3.58567 6.74958 3.99967 6.74945H5.99951ZM7.99935 3.74969C8.41347 3.74969 8.74919 4.08554 8.74929 4.49963C8.74929 4.91381 8.41353 5.24957 7.99935 5.24957H3.99967C3.58561 5.24944 3.24974 4.91373 3.24974 4.49963C3.24983 4.08562 3.58567 3.74983 3.99967 3.74969H7.99935Z"
    fill="currentColor"
  />
  <path
    d="M9.74921 8.24957V9.7494M9.74921 11.2493V9.7494M9.74921 9.7494H8.24933M9.74921 9.7494H11.2491"
    stroke="currentColor"
    stroke-width="1.5"
    stroke-linecap="round"
    stroke-linejoin="round"
  />
</svg>
