<svg width="16" height="16" viewBox="0 0 16 16" fill="none" xmlns="http://www.w3.org/2000/svg" data-fui-icon="true">
  <path
    d="M10.7499 0C13.6494 5.88731e-08 15.9999 2.35049 15.9999 5.24996V8.24994C15.9999 8.66415 15.6641 8.99993 15.2499 8.99993C14.8357 8.99993 14.4999 8.66415 14.4999 8.24994V5.24996C14.4999 3.17891 12.821 1.49999 10.7499 1.49999H5.24996C3.17891 1.49999 1.49999 3.17891 1.49999 5.24996V10.7499C1.49999 12.821 3.17891 14.4999 5.24996 14.4999H6.24995C6.66416 14.4999 6.99995 14.8357 6.99995 15.2499C6.99995 15.6641 6.66416 15.9999 6.24995 15.9999H5.24996C2.35049 15.9999 0 13.6494 0 10.7499V5.24996C1.33298e-08 2.35049 2.35049 0 5.24996 0H10.7499ZM12.1923 10.248C12.4694 9.94035 12.944 9.91543 13.2519 10.1923L15.7518 12.4423C15.9098 12.5844 15.9998 12.7874 15.9999 12.9999C15.9999 13.2124 15.9097 13.4153 15.7518 13.5575L13.2519 15.8075C12.944 16.0846 12.4694 16.0597 12.1923 15.7518C11.9154 15.444 11.9402 14.9693 12.248 14.6923L13.2948 13.7499H8.74993C8.33572 13.7499 7.99994 13.4141 7.99994 12.9999C8.00011 12.5858 8.33583 12.2499 8.74993 12.2499H13.2948L12.248 11.3075C11.9403 11.0304 11.9153 10.5558 12.1923 10.248ZM4.49997 3.49997C5.05225 3.49997 5.49996 3.94769 5.49996 4.49997C5.49996 5.05225 5.05225 5.49996 4.49997 5.49996C3.94769 5.49996 3.49997 5.05225 3.49997 4.49997C3.49997 3.94769 3.94769 3.49997 4.49997 3.49997ZM7.49994 3.49997C8.05222 3.49997 8.49994 3.94769 8.49994 4.49997C8.49994 5.05225 8.05222 5.49996 7.49994 5.49996C6.94766 5.49996 6.49995 5.05225 6.49995 4.49997C6.49995 3.94769 6.94766 3.49997 7.49994 3.49997ZM10.4999 3.49997C11.0522 3.49997 11.4999 3.94769 11.4999 4.49997C11.4999 5.05225 11.0522 5.49996 10.4999 5.49996C9.94764 5.49996 9.49993 5.05225 9.49993 4.49997C9.49993 3.94769 9.94764 3.49997 10.4999 3.49997Z"
    fill="currentColor"
  />
</svg>
