<svg width="20" height="20" viewBox="0 0 20 20" fill="none" xmlns="http://www.w3.org/2000/svg" data-fui-icon="true">
  <path
    d="M13.7497 0C17.2014 0 19.9995 2.79815 19.9995 6.24985V10.2497C19.9995 10.664 19.6637 10.9997 19.2495 10.9997C18.8353 10.9997 18.4995 10.664 18.4995 10.2497V6.24985C18.4995 3.62656 16.373 1.49996 13.7497 1.49996H6.24985C3.62656 1.49996 1.49996 3.62656 1.49996 6.24985V13.7497C1.49996 16.373 3.62656 18.4995 6.24985 18.4995H7.24982C7.66403 18.4995 7.9998 18.8353 7.9998 19.2495C7.9998 19.6637 7.66403 19.9995 7.24982 19.9995H6.24985C2.79815 19.9995 0 17.2014 0 13.7497V6.24985C0 2.79815 2.79815 0 6.24985 0H13.7497ZM15.1998 12.239C15.4816 11.9358 15.9569 11.9183 16.2603 12.1999L19.7603 15.4498C19.9129 15.5916 19.9994 15.7913 19.9995 15.9996C19.9995 16.208 19.9129 16.4075 19.7603 16.5494L16.2603 19.7993C15.9569 20.0811 15.4817 20.0637 15.1998 19.7603C14.9182 19.4568 14.9355 18.9815 15.2389 18.6997L17.3394 16.7496H10.7497C10.3355 16.7496 9.99976 16.4138 9.99976 15.9996C9.99996 15.5856 10.3357 15.2496 10.7497 15.2496H17.3394L15.2389 13.2995C14.9356 13.0176 14.9181 12.5424 15.1998 12.239ZM4.99988 3.9999C5.55215 3.9999 5.99985 4.44761 5.99985 4.99988C5.99985 5.55215 5.55215 5.99985 4.99988 5.99985C4.44761 5.99985 3.9999 5.55215 3.9999 4.99988C3.9999 4.44761 4.44761 3.9999 4.99988 3.9999ZM7.9998 3.9999C8.55208 3.9999 8.99978 4.44761 8.99978 4.99988C8.99978 5.55215 8.55208 5.99985 7.9998 5.99985C7.44753 5.99985 6.99983 5.55215 6.99983 4.99988C6.99983 4.44761 7.44753 3.9999 7.9998 3.9999ZM10.9997 3.9999C11.552 3.9999 11.9997 4.44761 11.9997 4.99988C11.9997 5.55215 11.552 5.99985 10.9997 5.99985C10.4475 5.99985 9.99976 5.55215 9.99976 4.99988C9.99976 4.44761 10.4475 3.9999 10.9997 3.9999Z"
    fill="currentColor"
  />
</svg>
