<svg width="16" height="16" viewBox="0 0 16 16" fill="none" xmlns="http://www.w3.org/2000/svg" data-fui-icon="true">
  <path
    d="M10.7499 0C13.6494 5.8873e-08 15.9998 2.35048 15.9998 5.24994V8.24991C15.9998 8.66412 15.664 8.99991 15.2498 8.99991C14.8356 8.99991 14.4998 8.66412 14.4998 8.24991V5.24994C14.4998 3.1789 12.8209 1.49998 10.7499 1.49998H5.24994C3.1789 1.49998 1.49998 3.1789 1.49998 5.24994V10.7499C1.49998 12.8209 3.1789 14.4998 5.24994 14.4998H6.24993C6.66414 14.4998 6.99993 14.8356 6.99993 15.2498C6.99993 15.664 6.66414 15.9998 6.24993 15.9998H5.24994C2.35048 15.9998 0 13.6494 0 10.7499V5.24994C1.33297e-08 2.35048 2.35048 0 5.24994 0H10.7499ZM12.1923 10.2479C12.4693 9.94033 12.944 9.9154 13.2518 10.1923L15.7518 12.4423C15.9097 12.5844 15.9997 12.7874 15.9998 12.9999C15.9998 13.2124 15.9097 13.4153 15.7518 13.5575L13.2518 15.8075C12.944 16.0845 12.4694 16.0596 12.1923 15.7518C11.9153 15.4439 11.9401 14.9693 12.2479 14.6922L13.2948 13.7499H8.74991C8.3357 13.7499 7.99992 13.4141 7.99992 12.9999C8.00008 12.5858 8.3358 12.2499 8.74991 12.2499H13.2948L12.2479 11.3075C11.9402 11.0304 11.9152 10.5557 12.1923 10.2479ZM4.49995 3.49996C5.05223 3.49996 5.49994 3.94767 5.49994 4.49995C5.49994 5.05223 5.05223 5.49994 4.49995 5.49994C3.94767 5.49994 3.49996 5.05223 3.49996 4.49995C3.49996 3.94767 3.94767 3.49996 4.49995 3.49996ZM7.49992 3.49996C8.0522 3.49996 8.49991 3.94767 8.49991 4.49995C8.49991 5.05223 8.0522 5.49994 7.49992 5.49994C6.94764 5.49994 6.49993 5.05223 6.49993 4.49995C6.49993 3.94767 6.94764 3.49996 7.49992 3.49996ZM10.4999 3.49996C11.0522 3.49996 11.4999 3.94767 11.4999 4.49995C11.4999 5.05223 11.0522 5.49994 10.4999 5.49994C9.94761 5.49994 9.4999 5.05223 9.4999 4.49995C9.4999 3.94767 9.94761 3.49996 10.4999 3.49996Z"
    fill="currentColor"
  />
</svg>
