<svg
  width="32"
  height="32"
  viewBox="0 0 32 32"
  fill="none"
  xmlns="http://www.w3.org/2000/svg"
  data-fui-icon="true"
>
  <path
    d="M26.4279 21.959C27.9939 21.959 29.4662 21.0554 29.8493 19.537C30.1321 18.4157 30.2824 17.2416 30.2824 16.0324C30.2824 8.14447 23.8879 1.75 16 1.75C8.11199 1.75 1.71753 8.14447 1.71753 16.0324C1.71753 22.4957 6.01071 27.9563 11.9009 29.7179C13.4623 30.1849 14.9948 29.1548 15.5101 27.6087L16.4817 24.6941C17.0261 23.0607 18.5547 21.959 20.2764 21.959H26.4279Z"
    stroke="currentColor"
    stroke-width="1.5"
    stroke-linecap="round"
    stroke-linejoin="round"
  />
  <path
    d="M17.5 7.5C17.5 8.32843 16.8284 9 16 9 15.1716 9 14.5 8.32843 14.5 7.5 14.5 6.67157 15.1716 6 16 6 16.8284 6 17.5 6.67157 17.5 7.5zM10 12C10 12.8284 9.32843 13.5 8.5 13.5 7.67157 13.5 7 12.8284 7 12 7 11.1716 7.67157 10.5 8.5 10.5 9.32843 10.5 10 11.1716 10 12zM25 12C25 12.8284 24.3284 13.5 23.5 13.5 22.6716 13.5 22 12.8284 22 12 22 11.1716 22.6716 10.5 23.5 10.5 24.3284 10.5 25 11.1716 25 12zM10 20C10 20.8284 9.32843 21.5 8.5 21.5 7.67157 21.5 7 20.8284 7 20 7 19.1716 7.67157 18.5 8.5 18.5 9.32843 18.5 10 19.1716 10 20z"
    fill="currentColor"
  />
</svg>
