<svg width="24" height="24" viewBox="0 0 24 24" fill="none" xmlns="http://www.w3.org/2000/svg" data-fui-icon="true">
  <path
    fill-rule="evenodd"
    clip-rule="evenodd"
    d="M21.3164 14.7697C23.5642 13.6054 23.5637 10.3904 21.3155 9.2267L6.22367 1.41517C3.18887 -0.155531 -0.104151 3.02846 1.36332 6.11439L3.9766 11.6076C4.09329 11.8529 4.09301 12.1385 3.9766 12.3839L1.36136 17.8849C-0.105799 20.9711 3.18809 24.1552 6.22269 22.5841L21.3164 14.7697ZM20.3965 11.0021C21.204 11.4201 21.2038 12.575 20.3965 12.9933L5.30277 20.8078C3.96988 21.4977 2.52374 20.0998 3.168 18.7443L5.78324 13.2433C5.82114 13.1635 5.85458 13.0822 5.8848 13.0001L11.2422 13.0001C11.7944 13.0001 12.2421 12.5523 12.2422 12.0001C12.2422 11.4479 11.7945 11.0001 11.2422 11.0001L5.88675 11.0001C5.8558 10.9155 5.82134 10.8313 5.78226 10.7492L3.16996 5.25502C2.52562 3.89958 3.97175 2.50072 5.30472 3.19057L20.3965 11.0021Z"
    fill="currentColor"
  />
</svg>
