<svg width="32" height="32" viewBox="0 0 32 32" fill="none" xmlns="http://www.w3.org/2000/svg" data-fui-icon="true">
  <path
    fill-rule="evenodd"
    clip-rule="evenodd"
    d="M12.5432 28.8932C13.9945 31.6991 18.0081 31.6992 19.4592 28.8932L30.4758 7.58953C32.4756 3.72268 28.367 -0.447948 24.4709 1.49382L16.716 5.36003C16.2676 5.58359 15.7397 5.58348 15.2912 5.36003L7.52756 1.49187C3.63135 -0.449396 -0.476279 3.72099 1.52366 7.58757L12.5432 28.8932ZM17.6819 27.9743C16.9762 29.3386 15.0253 29.3385 14.3196 27.9743L3.30002 6.66863C2.18882 4.52027 4.47113 2.20312 6.63596 3.28191L14.3996 7.15007C14.5938 7.24682 14.7945 7.32489 14.9992 7.38445V15.278C14.9992 15.8303 15.447 16.278 15.9992 16.278C16.5514 16.2778 16.9992 15.8302 16.9992 15.278V7.38738C17.207 7.3275 17.4107 7.24824 17.6076 7.15007L25.3625 3.28386C27.5273 2.20471 29.8105 4.52205 28.6994 6.67058L17.6819 27.9743Z"
    fill="currentColor"
  />
</svg>
