<svg width="16" height="16" viewBox="0 0 16 16" fill="none" xmlns="http://www.w3.org/2000/svg" data-fui-icon="true">
  <path
    fill-rule="evenodd"
    clip-rule="evenodd"
    d="M10.9647 1.71409C12.9955 1.07192 14.9076 2.98413 14.2655 5.01484L11.4108 14.0346C10.6645 16.3915 7.37448 16.5139 6.45483 14.219L5.14627 10.9521C5.12472 10.8988 5.08217 10.8561 5.02888 10.8347L1.75851 9.52403C-0.536263 8.60396 -0.412904 5.31391 1.94427 4.56807L10.9647 1.71409ZM12.3589 4.412C12.5125 3.92575 12.0538 3.46714 11.5675 3.62065L2.54779 6.47532C1.98083 6.65472 1.95055 7.4456 2.50222 7.66718L5.64346 8.92603L7.67639 6.89309C8.06681 6.50273 8.70007 6.50291 9.0906 6.89309C9.48111 7.2836 9.48107 7.91678 9.0906 8.30731L7.05698 10.3409L8.31168 13.4753C8.53298 14.0274 9.32474 13.9975 9.50423 13.4304L12.3589 4.412Z"
    fill="currentColor"
  />
</svg>
