<svg width="20" height="20" viewBox="0 0 20 20" fill="none" xmlns="http://www.w3.org/2000/svg" data-fui-icon="true">
  <path
    fill-rule="evenodd"
    clip-rule="evenodd"
    d="M7.57204 17.5237C8.59256 19.4925 11.4091 19.4926 12.4295 17.5237L18.6404 5.54035C19.9978 2.92072 17.2732 0.0647354 14.5925 1.29718L10.2351 3.30109C10.0874 3.36901 9.91706 3.3689 9.7693 3.30109L5.40797 1.29621C2.72715 0.0637112 0.00338089 2.91974 1.3611 5.53937L7.57204 17.5237ZM10.6541 16.6038C10.3798 17.1328 9.62296 17.1325 9.3484 16.6038L3.13649 4.61847C2.6549 3.68905 3.62091 2.67646 4.57204 3.11359L8.93434 5.11847C8.95757 5.12914 8.98119 5.1388 9.00465 5.14875V9.26789C9.00483 9.81991 9.45264 10.2677 10.0047 10.2679C10.5568 10.2679 11.0045 9.82002 11.0047 9.26789V5.14679C11.0266 5.13742 11.0493 5.12849 11.0711 5.11847L15.4285 3.11457C16.3795 2.67765 17.3454 3.69009 16.864 4.61945L10.6541 16.6038Z"
    fill="currentColor"
  />
</svg>
