<svg width="32" height="32" viewBox="0 0 32 32" fill="none" xmlns="http://www.w3.org/2000/svg" data-fui-icon="true">
  <path
    fill-rule="evenodd"
    clip-rule="evenodd"
    d="M12.5427 3.10426C13.994 0.298574 18.0075 0.298587 19.4587 3.10426L30.4753 24.408C32.4751 28.2748 28.3665 32.4455 24.4704 30.5037L16.7155 26.6375C16.2672 26.414 15.7391 26.414 15.2907 26.6375L7.52707 30.5056C3.63087 32.4468 -0.476764 28.2765 1.52316 24.4099L12.5427 3.10426ZM17.6814 4.0232C16.9756 2.65923 15.0247 2.65914 14.3191 4.0232L3.29953 25.3289C2.18833 27.4772 4.47065 29.7943 6.63547 28.7156L14.3991 24.8474C14.5933 24.7507 14.7941 24.6726 14.9987 24.613V16.7195C14.9989 16.1673 15.4465 15.7195 15.9987 15.7195C16.5509 15.7195 16.9986 16.1673 16.9987 16.7195V24.6111C17.2065 24.671 17.4103 24.7493 17.6071 24.8474L25.362 28.7136C27.5268 29.7928 29.81 27.4755 28.6989 25.3269L17.6814 4.0232Z"
    fill="currentColor"
  />
</svg>
