<svg width="16" height="16" viewBox="0 0 16 16" fill="none" xmlns="http://www.w3.org/2000/svg" data-fui-icon="true">
  <path
    fill-rule="evenodd"
    clip-rule="evenodd"
    d="M6.1366 2.13368C6.92002 0.622102 9.08169 0.622112 9.86512 2.13368L14.7255 11.5126C15.7696 13.5276 13.6735 15.7237 11.6122 14.7743L8.1952 13.2001C8.07266 13.1436 7.93103 13.1437 7.80848 13.2001L4.38856 14.7753C2.32723 15.7241 0.231063 13.5274 1.27527 11.5126L6.1366 2.13368ZM8.53406 2.82411C8.31024 2.39222 7.69248 2.39225 7.46863 2.82411L2.6073 12.203C2.22019 12.95 2.99743 13.7639 3.7616 13.412L7.18152 11.8378C7.20519 11.8269 7.22981 11.8184 7.25379 11.8085V8.76747C7.25381 8.35327 7.58959 8.01747 8.00379 8.01747C8.41793 8.01753 8.75377 8.35331 8.75379 8.76747V11.8095C8.77677 11.819 8.80043 11.8273 8.82313 11.8378L12.2401 13.412C13.0041 13.7635 13.7814 12.9489 13.3944 12.202L8.53406 2.82411Z"
    fill="currentColor"
  />
</svg>
