<svg width="32" height="32" viewBox="0 0 32 32" fill="none" xmlns="http://www.w3.org/2000/svg" data-fui-icon="true">
  <path
    d="M25.166 1.20579C28.6459 0.0985305 31.9262 3.37868 30.8187 6.8585L23.9009 28.5937C22.5806 32.742 16.7264 32.7859 15.3445 28.658L12.5948 20.4406C12.4358 19.9655 12.0624 19.5922 11.5873 19.4331L3.36237 16.6786C-0.764602 15.2959 -0.720256 9.44306 3.42728 8.12287L25.166 1.20579ZM28.9128 6.25221C29.5281 4.31898 27.7055 2.49652 25.7723 3.11166L4.03357 10.0287C1.72943 10.7624 1.70482 14.0141 3.99766 14.7824L12.2226 17.5369C12.4281 17.6057 12.6256 17.6926 12.8123 17.7952L18.3939 12.2136C18.7844 11.8231 19.4176 11.8232 19.8081 12.2136C20.1987 12.6041 20.1987 13.2373 19.8081 13.6278L14.2286 19.2073C14.3332 19.3966 14.4211 19.5966 14.491 19.8053L17.2407 28.0227C18.0083 30.3165 21.2614 30.2923 21.9951 27.9875L28.9128 6.25221Z"
    fill="currentColor"
  />
</svg>
