<svg width="32" height="32" viewBox="0 0 32 32" fill="none" xmlns="http://www.w3.org/2000/svg" data-fui-icon="true">
  <path
    fill-rule="evenodd"
    clip-rule="evenodd"
    d="M2.9676 19.2347C0.340253 17.8769 0.340203 14.1195 2.9676 12.762L24.7752 1.4964C28.4459 -0.399385 32.3904 3.52691 30.5115 7.20636L26.452 15.1556C26.1827 15.6829 26.1828 16.3079 26.452 16.8353L30.5154 24.7982C32.3926 28.4777 28.4481 32.402 24.7781 30.5062L2.9676 19.2347ZM3.65608 14.095C2.11081 14.8936 2.11077 17.103 3.65608 17.9017L25.4666 29.1732C27.8414 30.4 30.3941 27.8608 29.1795 25.4798L25.116 17.5169C24.9904 17.2708 24.8977 17.0127 24.8367 16.7493H16.7469C16.3327 16.7493 15.9969 16.4135 15.9969 15.9993C15.9969 15.5851 16.3327 15.2493 16.7469 15.2493H24.8338C24.8947 14.9831 24.9891 14.7226 25.116 14.4739L29.1756 6.52472C30.3914 4.14378 27.839 1.6028 25.4637 2.82941L3.65608 14.095Z"
    fill="currentColor"
  />
</svg>
