<svg width="20" height="20" viewBox="0 0 20 20" fill="none" xmlns="http://www.w3.org/2000/svg" data-fui-icon="true">
  <path
    fill-rule="evenodd"
    clip-rule="evenodd"
    d="M2.34336 12.2071C0.553456 11.2803 0.553572 8.72002 2.34336 7.79306L14.8258 1.33114C17.2591 0.0719528 19.8946 2.63714 18.7018 5.1036L16.5035 9.64657C16.3961 9.86853 16.3963 10.1277 16.5035 10.3497L18.7027 14.8975C19.8957 17.3642 17.2601 19.9285 14.8268 18.669L2.34336 12.2071ZM3.03379 9.12509C2.32397 9.49253 2.32397 10.5076 3.03379 10.8751L15.5172 17.337C16.6696 17.9331 17.9171 16.7191 17.3522 15.5509L15.1529 11.003C15.1124 10.9191 15.0773 10.8333 15.0475 10.7462H10.7496C10.3356 10.7461 9.99979 10.4102 9.99961 9.99618C9.99961 9.58204 10.3355 9.2463 10.7496 9.24618H15.0494C15.079 9.16049 15.114 9.07582 15.1539 8.99325L17.3512 4.45028C17.9159 3.28226 16.6685 2.06751 15.5162 2.66317L3.03379 9.12509Z"
    fill="currentColor"
  />
</svg>
