<svg width="25" height="24" viewBox="0 0 25 24" fill="none" xmlns="http://www.w3.org/2000/svg" data-fui-icon="true">
  <path
    d="M17.8581 1.64339C20.6179 0.766428 23.2187 3.36733 22.3418 6.12703L17.4555 21.4955C16.4203 24.7523 11.8401 24.8296 10.6959 21.6095L8.65951 15.8774C8.56841 15.6214 8.36647 15.4195 8.11054 15.3284L2.37151 13.2879C-0.847844 12.1428 -0.770403 7.5624 2.48614 6.52754L17.8581 1.64339ZM20.4352 5.52143C20.8206 4.30791 19.6773 3.1631 18.4637 3.54857L3.09174 8.4341C1.66156 8.88875 1.62761 10.8996 3.04133 11.4027L8.78035 13.4432C8.86374 13.4729 8.94522 13.5073 9.0248 13.5441L12.8131 9.75578C13.2035 9.36532 13.8367 9.36545 14.2273 9.75578C14.6178 10.1463 14.6178 10.7795 14.2273 11.17L10.4404 14.9569C10.4783 15.0385 10.5129 15.122 10.5433 15.2075L12.5811 20.9397C13.0837 22.3541 15.0956 22.3205 15.5503 20.89L20.4352 5.52143Z"
    fill="currentColor"
  />
</svg>
