<svg width="24" height="24" viewBox="0 0 24 24" fill="none" xmlns="http://www.w3.org/2000/svg" data-fui-icon="true">
  <path
    fill-rule="evenodd"
    clip-rule="evenodd"
    d="M17.8571 1.64331C20.6168 0.766383 23.2174 3.36718 22.3405 6.12676L17.4545 21.4947C16.4193 24.7513 11.8393 24.8286 10.6952 21.6086L8.65885 15.8767C8.56776 15.6208 8.36582 15.4188 8.1099 15.3278L2.3711 13.2873C-0.848118 12.1423 -0.77068 7.56208 2.48573 6.52726L17.8571 1.64331ZM20.434 5.52119C20.8195 4.30772 19.6762 3.16295 18.4627 3.54841L3.0913 8.43374C1.66118 8.88837 1.62723 10.8991 3.04089 11.4022L8.77969 13.4427C8.86307 13.4723 8.94455 13.5067 9.02413 13.5435L12.8122 9.75537C13.2027 9.36493 13.8359 9.36506 14.2264 9.75537C14.6169 10.1459 14.6169 10.779 14.2264 11.1695L10.4397 14.9563C10.4775 15.0378 10.5121 15.1214 10.5426 15.2069L12.5802 20.9388C13.0828 22.3532 15.0947 22.3195 15.5494 20.8891L20.434 5.52119Z"
    fill="currentColor"
  />
</svg>
