<svg width="16" height="16" viewBox="0 0 16 16" fill="none" xmlns="http://www.w3.org/2000/svg" data-fui-icon="true">
  <path
    fill-rule="evenodd"
    clip-rule="evenodd"
    d="M5.91309 13.7356C6.79047 15.4245 9.20773 15.4246 10.085 13.7356L14.6924 4.86061C15.8312 2.66633 13.5914 0.253365 11.3184 1.22584L8.08301 2.61061C8.03012 2.63302 7.96986 2.63311 7.91699 2.61061L4.67774 1.22487C2.40449 0.252807 0.165307 2.66645 1.30469 4.86061L5.91309 13.7356ZM8.30957 12.8137C8.17884 13.0649 7.81924 13.0648 7.68848 12.8137L3.08008 3.93874C2.80603 3.41098 3.34385 2.83033 3.89063 3.06374L7.00196 4.39479V7.26979C7.00196 7.82191 7.44989 8.26953 8.00196 8.26979C8.55424 8.26979 9.00196 7.82207 9.00196 7.26979V4.39381L12.1055 3.06471C12.6523 2.8308 13.1911 3.41179 12.917 3.93971L8.30957 12.8137Z"
    fill="currentColor"
  />
</svg>
