<svg width="24" height="24" viewBox="0 0 24 24" fill="none" xmlns="http://www.w3.org/2000/svg" data-fui-icon="true">
  <path
    fill-rule="evenodd"
    clip-rule="evenodd"
    d="M19.1339 1.27305C21.3541 0.566551 23.4471 2.6595 22.7405 4.8797L17.4165 21.6044C16.4442 24.6591 12.1347 24.6945 11.1126 21.6562L9.09211 15.65C8.97703 15.308 8.70829 15.0393 8.36636 14.9242L2.35319 12.8996C-0.684591 11.877 -0.649248 7.56784 2.40498 6.59568L19.1339 1.27305ZM21.3111 4.42395C21.6481 3.36395 20.649 2.36461 19.5889 2.70176L2.86073 8.02509C1.1877 8.55749 1.16782 10.9176 2.83173 11.4778L8.8449 13.5024C8.99122 13.5517 9.13198 13.6129 9.26543 13.6854L13.1925 9.75833C13.4854 9.46553 13.9603 9.46547 14.2532 9.75833C14.5457 10.0512 14.5458 10.5262 14.2532 10.819L10.3282 14.744C10.4022 14.8794 10.4639 15.0227 10.5139 15.1714L12.5344 21.1777C13.0942 22.8419 15.4543 22.823 15.9871 21.1501L21.3111 4.42395Z"
    fill="currentColor"
  />
</svg>
