<svg width="16" height="16" viewBox="0 0 16 16" fill="none" xmlns="http://www.w3.org/2000/svg" data-fui-icon="true">
  <path
    fill-rule="evenodd"
    clip-rule="evenodd"
    d="M11.8332 1.53503C13.4561 1.02011 14.9846 2.54868 14.4697 4.17149L11.2746 14.2402C10.588 16.4032 7.55302 16.474 6.76679 14.3451L5.46375 10.8158C5.417 10.6892 5.31688 10.5891 5.1903 10.5424L1.65822 9.23794C-0.470036 8.45123 -0.398887 5.41593 1.76387 4.72944L11.8332 1.53503ZM13.0403 3.7185C13.1874 3.25483 12.7506 2.818 12.2869 2.96513L2.21755 6.15954C1.41597 6.41413 1.38997 7.53903 2.17888 7.83063L5.71027 9.13574C5.73465 9.14475 5.75818 9.1562 5.78208 9.16612L7.93241 7.0158C8.22529 6.72292 8.70017 6.72295 8.99307 7.0158C9.28596 7.30869 9.28596 7.78357 8.99307 8.07646L6.84205 10.2275C6.85157 10.2505 6.86239 10.2731 6.87106 10.2965L8.17409 13.8258C8.46575 14.6146 9.59132 14.5881 9.84588 13.7865L13.0403 3.7185Z"
    fill="currentColor"
  />
</svg>
