<svg width="24" height="24" viewBox="0 0 24 24" fill="none" xmlns="http://www.w3.org/2000/svg" data-fui-icon="true">
  <path
    fill-rule="evenodd"
    clip-rule="evenodd"
    d="M9.23192 2.68521C10.3962 0.437706 13.6112 0.438168 14.7749 2.68619L22.5864 17.778C24.1572 20.8128 20.9732 24.106 17.8872 22.6383L12.394 20.0251C12.1487 19.9084 11.8631 19.9087 11.6177 20.0251L6.11669 22.6403C3.03049 24.1075 -0.15362 20.8136 1.41747 17.779L9.23192 2.68521ZM12.9995 3.60513C12.5815 2.79784 11.4266 2.79815 11.0083 3.60513L3.19383 18.6989C2.5039 20.0318 3.90177 21.4779 5.25731 20.8337L10.7583 18.2184C10.838 18.1805 10.9194 18.1471 11.0015 18.1169V12.7594C11.0016 12.2074 11.4494 11.7596 12.0015 11.7594C12.5537 11.7594 13.0013 12.2073 13.0015 12.7594V18.1149C13.0861 18.1459 13.1702 18.1803 13.2524 18.2194L18.7466 20.8317C20.1021 21.4762 21.5009 20.03 20.811 18.6969L12.9995 3.60513Z"
    fill="currentColor"
  />
</svg>
