<svg width="20" height="20" viewBox="0 0 20 20" fill="none" xmlns="http://www.w3.org/2000/svg" data-fui-icon="true">
  <path
    fill-rule="evenodd"
    clip-rule="evenodd"
    d="M7.57137 2.4775C8.59182 0.508622 11.4083 0.508655 12.4288 2.4775L18.6397 14.4609C19.9975 17.0807 17.2727 19.937 14.5919 18.7041L10.2345 16.7002C10.0867 16.6323 9.91636 16.6322 9.76864 16.7002L5.40731 18.705C2.72672 19.937 0.00313824 17.0813 1.36044 14.4619L7.57137 2.4775ZM10.6534 3.39742C10.3791 2.86848 9.62222 2.86862 9.34774 3.39742L3.13583 15.3828C2.65466 16.312 3.62049 17.3242 4.57137 16.8877L8.93368 14.8828C8.95704 14.872 8.98138 14.8625 9.00497 14.8525V10.7334C9.0051 10.1813 9.45288 9.7335 10.005 9.73336C10.5572 9.73336 11.0048 10.1812 11.005 10.7334V14.8545C11.0268 14.8638 11.0488 14.8728 11.0704 14.8828L15.4278 16.8867C16.379 17.3241 17.3451 16.3113 16.8634 15.3818L10.6534 3.39742Z"
    fill="currentColor"
  />
</svg>
