<svg width="32" height="32" viewBox="0 0 32 32" fill="none" xmlns="http://www.w3.org/2000/svg" data-fui-icon="true">
  <path
    fill-rule="evenodd"
    clip-rule="evenodd"
    d="M28.8936 19.4557C31.6995 18.0044 31.6995 13.9909 28.8936 12.5397L7.58989 1.5231C3.72303 -0.476671 -0.447638 3.63192 1.49419 7.52798L5.3604 15.2829C5.58384 15.7313 5.58385 16.2593 5.3604 16.7077L1.49224 24.4713C-0.448622 28.3674 3.72151 32.4749 7.58794 30.4752L28.8936 19.4557ZM27.9747 14.317C29.3389 15.0227 29.3389 16.9737 27.9747 17.6793L6.66899 28.6989C4.52079 29.8098 2.20389 27.5276 3.28227 25.3629L7.15044 17.5993C7.24713 17.4052 7.32526 17.2043 7.38481 16.9997H15.2784C15.8306 16.9997 16.2783 16.5519 16.2784 15.9997C16.2784 15.4474 15.8307 14.9997 15.2784 14.9997H7.38774C7.32787 14.7918 7.2486 14.5882 7.15044 14.3913L3.28423 6.63638C2.20502 4.47163 4.5224 2.18836 6.67095 3.29946L27.9747 14.317Z"
    fill="currentColor"
  />
</svg>
