<svg width="32" height="32" viewBox="0 0 32 32" fill="none" xmlns="http://www.w3.org/2000/svg" data-fui-icon="true">
  <path
    fill-rule="evenodd"
    clip-rule="evenodd"
    d="M3.10493 19.4553C0.299075 18.004 0.298939 13.9905 3.10493 12.5393L24.4086 1.52273C28.2755 -0.477028 32.4461 3.63157 30.5043 7.52761L26.6381 15.2825C26.4146 15.7309 26.4147 16.2588 26.6381 16.7073L30.5063 24.471C32.4476 28.3672 28.2772 32.4748 24.4106 30.4749L3.10493 19.4553ZM4.02388 14.3167C2.65958 15.0223 2.65964 16.9733 4.02388 17.679L25.3295 28.6985C27.4779 29.8097 29.7951 27.5274 28.7163 25.3626L24.8481 17.5989C24.7514 17.4048 24.6733 17.204 24.6137 16.9993H16.7202C16.1679 16.9993 15.7202 16.5516 15.7202 15.9993C15.7204 15.4472 16.168 14.9993 16.7202 14.9993H24.6108C24.6707 14.7915 24.7499 14.5878 24.8481 14.3909L28.7143 6.63601C29.7935 4.47128 27.4761 2.188 25.3276 3.2991L4.02388 14.3167Z"
    fill="currentColor"
  />
</svg>
