<svg width="20" height="20" viewBox="0 0 20 20" fill="none" xmlns="http://www.w3.org/2000/svg" data-fui-icon="true">
  <path
    fill-rule="evenodd"
    clip-rule="evenodd"
    d="M15.8528 1.02596C17.7738 0.415703 19.5841 2.22614 18.974 4.14718L14.7168 17.5428C13.8868 20.1542 10.2089 20.204 9.30857 17.616L7.6506 12.8493C7.56954 12.6165 7.3862 12.4333 7.15342 12.3521L2.38252 10.6914C-0.20467 9.79051 -0.154345 6.11395 2.4564 5.2838L15.8528 1.02596ZM17.5439 3.6935C17.786 2.93176 17.0682 2.21397 16.3064 2.45606L2.91008 6.71389C1.67408 7.10739 1.65057 8.84756 2.87556 9.27439L7.64646 10.9351C7.73463 10.9658 7.82051 11.0022 7.90334 11.0428L10.9424 8.00381C11.2353 7.71107 11.7102 7.71097 12.003 8.00381C12.2959 8.29665 12.2958 8.77157 12.003 9.06447L8.96261 12.1049C9.00221 12.1862 9.03679 12.2705 9.06688 12.3569L10.7255 17.123C11.152 18.3487 12.8932 18.3256 13.2867 17.0892L17.5439 3.6935Z"
    fill="currentColor"
  />
</svg>
