<svg width="12" height="12" viewBox="0 0 12 12" fill="none" xmlns="http://www.w3.org/2000/svg" data-fui-icon="true">
  <path
    fill-rule="evenodd"
    clip-rule="evenodd"
    d="M8.96028 0.208385C10.7058 -0.354909 12.356 1.2954 11.7928 3.04096L9.43951 10.3344C8.757 12.4469 5.81727 12.58 4.94689 10.5374L3.91316 8.11017C3.90927 8.10104 3.90158 8.09334 3.89245 8.08945L1.46384 7.05434C-0.578953 6.18385 -0.445515 3.24457 1.66755 2.56242L8.96028 0.208385ZM9.88904 2.42707C9.95163 2.23311 9.76812 2.0496 9.57416 2.11219L2.28143 4.46622C1.92972 4.58016 1.90738 5.06899 2.24759 5.21407L4.44004 6.14836L5.9461 4.6423C6.33654 4.25186 6.96976 4.25203 7.36031 4.6423C7.75083 5.03283 7.75083 5.66599 7.36031 6.05652L5.85425 7.56257L6.78717 9.75364C6.93229 10.0937 7.42247 10.0715 7.53639 9.7198L9.88904 2.42707Z"
    fill="currentColor"
  />
</svg>
