<svg width="16" height="16" viewBox="0 0 16 16" fill="none" xmlns="http://www.w3.org/2000/svg" data-fui-icon="true">
  <path
    fill-rule="evenodd"
    clip-rule="evenodd"
    d="M2.1327 9.86523C0.621126 9.08181 0.621135 6.92014 2.1327 6.13671L11.5116 1.27636C13.5266 0.232255 15.7227 2.32829 14.7733 4.38964L13.1991 7.80664C13.1427 7.92917 13.1427 8.0708 13.1991 8.19335L14.7743 11.6133C15.7232 13.6746 13.5265 15.7708 11.5116 14.7266L2.1327 9.86523ZM2.82313 7.46777C2.39125 7.69159 2.39127 8.30935 2.82313 8.5332L12.202 13.3945C12.949 13.7816 13.7629 13.0044 13.411 12.2402L11.8368 8.82031C11.8259 8.79664 11.8174 8.77202 11.8075 8.74804H8.76649C8.3523 8.74802 8.01649 8.41224 8.01649 7.99804C8.01655 7.5839 8.35234 7.24807 8.76649 7.24804H11.8085C11.818 7.22506 11.8264 7.2014 11.8368 7.17871L13.411 3.76171C13.7625 2.99769 12.9479 2.22044 12.2011 2.60742L2.82313 7.46777Z"
    fill="currentColor"
  />
</svg>
