<svg width="24" height="24" viewBox="0 0 24 24" fill="none" xmlns="http://www.w3.org/2000/svg" data-fui-icon="true">
  <path
    fill-rule="evenodd"
    clip-rule="evenodd"
    d="M9.45159 21.4429C10.522 23.5125 13.482 23.5126 14.5522 21.4429L22.6137 5.85208C24.0855 3.00485 21.0637 -0.0672493 18.1928 1.35794L12.517 4.1763C12.1938 4.33679 11.8139 4.33669 11.4907 4.1763L5.80706 1.35598C2.93596 -0.0690784 -0.0858693 3.00306 1.38616 5.85012L9.45159 21.4429ZM13.2192 20.7544C12.7079 21.7423 11.2948 21.7424 10.7836 20.7544L2.71917 5.16165C1.91284 3.60218 3.56743 1.91916 5.14007 2.69973L10.8237 5.52005C10.9617 5.58858 11.1041 5.64493 11.2494 5.68801V11.2417C11.2494 11.6559 11.5853 11.9917 11.9994 11.9917C12.4137 11.9917 12.7494 11.6559 12.7494 11.2417V5.69094C12.8978 5.64752 13.0433 5.58994 13.184 5.52005L18.8598 2.70169C20.4321 1.92127 22.0873 3.60323 21.2817 5.16262L13.2192 20.7544Z"
    fill="currentColor"
  />
</svg>
