<svg width="13" height="12" viewBox="0 0 13 12" fill="none" xmlns="http://www.w3.org/2000/svg" data-fui-icon="true">
  <path
    fill-rule="evenodd"
    clip-rule="evenodd"
    d="M4.22218 1.09088C4.96529 -0.360881 7.03989 -0.361 7.78273 1.09088L11.7573 8.85943C12.6805 10.6645 10.8205 12.6271 8.96827 11.8028L6.12062 10.5352C6.04613 10.5021 5.96079 10.5022 5.88624 10.5352L3.03273 11.8047C1.18018 12.6288 -0.679132 10.6653 0.244641 8.86041L4.22218 1.09088ZM6.44679 1.77447C6.26109 1.41147 5.74292 1.41151 5.55714 1.77447L1.58058 9.544C1.30131 10.0897 1.86329 10.6828 2.42335 10.4337L5.25343 9.17486V6.75006C5.25343 6.33586 5.58923 6.00008 6.00343 6.00006C6.41764 6.00006 6.75343 6.33584 6.75343 6.75006V9.17486L9.57863 10.4327C10.1385 10.6815 10.7003 10.0886 10.4214 9.54303L6.44679 1.77447Z"
    fill="currentColor"
  />
</svg>
