<svg width="16" height="16" viewBox="0 0 16 16" fill="none" xmlns="http://www.w3.org/2000/svg" data-fui-icon="true">
  <path
    fill-rule="evenodd"
    clip-rule="evenodd"
    d="M6.1366 13.8693C6.92002 15.3809 9.08169 15.3809 9.86512 13.8693L14.7255 4.49041C15.7696 2.47541 13.6735 0.279311 11.6122 1.22869L8.1952 2.80291C8.07266 2.85935 7.93103 2.85931 7.80848 2.80291L4.38856 1.22771C2.32723 0.278855 0.231063 2.47556 1.27527 4.49041L6.1366 13.8693ZM8.53406 13.1789C8.31024 13.6108 7.69248 13.6107 7.46863 13.1789L2.6073 3.79998C2.22019 3.05303 2.99743 2.23911 3.7616 2.59099L7.18152 4.16521C7.20519 4.17611 7.22981 4.1846 7.25379 4.19451V7.23552C7.25381 7.64972 7.58959 7.98552 8.00379 7.98552C8.41793 7.98546 8.75377 7.64968 8.75379 7.23552V4.19353C8.77677 4.18399 8.80043 4.17566 8.82313 4.16521L12.2401 2.59099C13.0041 2.23951 13.7814 3.05411 13.3944 3.80095L8.53406 13.1789Z"
    fill="currentColor"
  />
</svg>
