<svg width="32" height="32" viewBox="0 0 32 32" fill="none" xmlns="http://www.w3.org/2000/svg" data-fui-icon="true">
  <path
    fill-rule="evenodd"
    clip-rule="evenodd"
    d="M29.0285 19.2347C31.6558 17.8769 31.6559 14.1195 29.0285 12.762L7.22088 1.4964C3.5502 -0.399385 -0.394321 3.52691 1.48455 7.20636L5.54412 15.1556C5.81341 15.6829 5.81326 16.3079 5.54412 16.8353L1.48064 24.7982C-0.396488 28.4777 3.54803 32.402 7.21795 30.5062L29.0285 19.2347ZM28.34 14.095C29.8853 14.8936 29.8853 17.103 28.34 17.9017L6.52947 29.1732C4.15468 30.4 1.60201 27.8608 2.81658 25.4798L6.88006 17.5169C7.00566 17.2708 7.09842 17.0127 7.15936 16.7493H15.2492C15.6634 16.7493 15.9992 16.4135 15.9992 15.9993C15.9992 15.5851 15.6634 15.2493 15.2492 15.2493H7.16228C7.1014 14.9831 7.00702 14.7226 6.88006 14.4739L2.82049 6.52472C1.60473 4.14378 4.15714 1.6028 6.5324 2.82941L28.34 14.095Z"
    fill="currentColor"
  />
</svg>
