<svg width="13" height="12" viewBox="0 0 13 12" fill="none" xmlns="http://www.w3.org/2000/svg" data-fui-icon="true">
  <path
    fill-rule="evenodd"
    clip-rule="evenodd"
    d="M4.22206 10.9094C4.96517 12.3612 7.03977 12.3613 7.78261 10.9094L11.7572 3.14087C12.6807 1.33571 10.8205 -0.62713 8.96815 0.197513L6.1205 1.46509C6.04599 1.49821 5.96065 1.49814 5.88612 1.46509L3.03261 0.19556C1.18022 -0.628169 -0.678961 1.33515 0.244522 3.1399L4.22206 10.9094ZM6.44667 10.2258C6.26097 10.5888 5.7428 10.5888 5.55702 10.2258L1.58046 2.4563C1.30148 1.91078 1.86332 1.31785 2.42323 1.56665L5.25429 2.82642V5.25025C5.25429 5.66446 5.59007 6.00025 6.00429 6.00025C6.4183 6.00001 6.75429 5.66431 6.75429 5.25025V2.82544L9.57851 1.56763C10.1385 1.31843 10.7004 1.91157 10.4213 2.45728L6.44667 10.2258Z"
    fill="currentColor"
  />
</svg>
