<svg width="32" height="32" viewBox="0 0 32 32" fill="none" xmlns="http://www.w3.org/2000/svg" data-fui-icon="true">
  <path
    fill-rule="evenodd"
    clip-rule="evenodd"
    d="M12.5437 28.8932C13.9951 31.699 18.0086 31.6992 19.4597 28.8932L30.4763 7.5895C32.4758 3.72277 28.3673 -0.44767 24.4714 1.49379L16.7165 5.36C16.2682 5.58352 15.7401 5.58335 15.2917 5.36L7.52805 1.49184C3.63184 -0.449427 -0.475791 3.72096 1.52414 7.58754L12.5437 28.8932ZM17.6823 27.9743C16.9768 29.3385 15.0258 29.3384 14.32 27.9743L3.30051 6.6686C2.1893 4.52024 4.47162 2.20309 6.63645 3.28188L14.4001 7.15004C14.594 7.24664 14.7943 7.3249 14.9988 7.38442V15.278C14.9988 15.8301 15.4466 16.2778 15.9988 16.278C16.551 16.278 16.9988 15.8303 16.9988 15.278V7.38735C17.2068 7.32744 17.411 7.2483 17.6081 7.15004L25.363 3.28383C27.5276 2.20499 29.8108 4.52214 28.6999 6.67055L17.6823 27.9743Z"
    fill="currentColor"
  />
</svg>
