<svg width="32" height="32" viewBox="0 0 32 32" fill="none" xmlns="http://www.w3.org/2000/svg" data-fui-icon="true">
  <path
    fill-rule="evenodd"
    clip-rule="evenodd"
    d="M12.7649 2.97089C14.1227 0.343548 17.8801 0.343499 19.2375 2.97089L30.5032 24.7785C32.399 28.4492 28.4727 32.3937 24.7932 30.5148L16.844 26.4553C16.3167 26.186 15.6917 26.1861 15.1643 26.4553L7.20141 30.5187C3.52189 32.3959 -0.402435 28.4514 1.49341 24.7814L12.7649 2.97089ZM17.9045 3.65937C17.106 2.1141 14.8966 2.11407 14.0979 3.65937L2.82641 25.4699C1.59959 27.8447 4.13877 30.3974 6.51977 29.1828L14.4827 25.1193C14.7288 24.9937 14.9868 24.901 15.2502 24.84V16.7502C15.2502 16.336 15.586 16.0002 16.0002 16.0002C16.4145 16.0002 16.7502 16.336 16.7502 16.7502V24.8371C17.0165 24.898 17.277 24.9924 17.5256 25.1193L25.4749 29.1789C27.8558 30.3947 30.3968 27.8423 29.1702 25.467L17.9045 3.65937Z"
    fill="currentColor"
  />
</svg>
