<svg width="24" height="24" viewBox="0 0 24 24" fill="none" xmlns="http://www.w3.org/2000/svg" data-fui-icon="true">
  <path
    fill-rule="evenodd"
    clip-rule="evenodd"
    d="M9.45122 21.4437C10.5217 23.5129 13.4814 23.5129 14.5518 21.4437L22.6133 5.85289C24.0857 3.00541 21.0635 -0.0669575 18.1924 1.35875L12.5166 4.1771C12.1935 4.33744 11.8134 4.33746 11.4903 4.1771L5.80668 1.35679C2.93551 -0.0683098 -0.0865369 3.0038 1.38579 5.85093L9.45122 21.4437ZM13.2188 20.7552C12.7074 21.7426 11.2945 21.7429 10.7832 20.7552L2.71879 5.16246C1.91217 3.60292 3.56697 1.91993 5.13969 2.70054L10.8233 5.52085C10.9615 5.58946 11.1045 5.64474 11.25 5.68785V11.2416C11.25 11.6558 11.5858 11.9916 12 11.9916C12.4141 11.9913 12.75 11.6556 12.75 11.2416V5.69078C12.8981 5.64741 13.0432 5.5906 13.1836 5.52085L18.8594 2.7025C20.432 1.92156 22.0875 3.60379 21.2813 5.16343L13.2188 20.7552Z"
    fill="currentColor"
  />
</svg>
