<svg width="32" height="32" viewBox="0 0 32 32" fill="none" xmlns="http://www.w3.org/2000/svg" data-fui-icon="true">
  <path
    fill-rule="evenodd"
    clip-rule="evenodd"
    d="M12.5427 3.1045C13.9941 0.298648 18.0076 0.298512 19.4587 3.1045L30.4753 24.4082C32.4751 28.2751 28.3665 32.4457 24.4704 30.5039L16.7156 26.6377C16.2671 26.4142 15.7392 26.4143 15.2907 26.6377L7.52707 30.5059C3.63086 32.4471 -0.476767 28.2768 1.52317 24.4102L12.5427 3.1045ZM17.6814 4.02345C16.9758 2.65916 15.0248 2.65921 14.3191 4.02345L3.29953 25.3291C2.18833 27.4775 4.47065 29.7946 6.63547 28.7158L14.3991 24.8477C14.5933 24.7509 14.794 24.6729 14.9988 24.6133V16.7197C14.9988 16.1675 15.4465 15.7197 15.9988 15.7197C16.5509 15.7199 16.9988 16.1676 16.9988 16.7197V24.6104C17.2065 24.6702 17.4102 24.7495 17.6072 24.8477L25.362 28.7139C27.5268 29.793 29.81 27.4757 28.6989 25.3272L17.6814 4.02345Z"
    fill="currentColor"
  />
</svg>
