<svg width="12" height="13" viewBox="0 0 12 13" fill="none" xmlns="http://www.w3.org/2000/svg" data-fui-icon="true">
  <path
    fill-rule="evenodd"
    clip-rule="evenodd"
    d="M10.9082 7.77946C12.36 7.03634 12.3601 4.96175 10.9082 4.21891L3.13966 0.244304C1.33468 -0.678788 -0.627903 1.18118 0.196301 3.03337L1.46388 5.88102C1.49703 5.95549 1.49685 6.04087 1.46388 6.1154L0.194347 8.96891C-0.629719 10.8215 1.3338 12.6808 3.13868 11.757L10.9082 7.77946ZM10.2246 5.55485C10.5876 5.74055 10.5876 6.25872 10.2246 6.4445L2.45509 10.4211C1.90942 10.7003 1.3163 10.1384 1.56544 9.57829L2.82423 6.74821L5.24903 6.74821C5.66325 6.74821 5.99903 6.41242 5.99903 5.99821C5.999 5.58402 5.66323 5.24821 5.24903 5.24821L2.82423 5.24821L1.56642 2.42301C1.31766 1.86322 1.91054 1.30145 2.45607 1.58024L10.2246 5.55485Z"
    fill="currentColor"
  />
</svg>
