<svg width="24" height="24" viewBox="0 0 24 24" fill="none" xmlns="http://www.w3.org/2000/svg" data-fui-icon="true">
  <path
    d="M21.9316 9.15588C24.3458 10.3483 24.3457 13.7924 21.9316 14.985L5.40137 23.1471C2.43943 24.6097 -0.739666 21.5887 0.570312 18.5563L3.11816 12.6588C3.28015 12.2834 3.28024 11.8574 3.11816 11.4821L0.570312 5.58459C-0.739599 2.55214 2.43945 -0.468816 5.40137 0.993774L21.9316 9.15588ZM21.2676 13.6393C22.5667 12.9969 22.5668 11.1438 21.2676 10.5016L4.7373 2.3385C3.02689 1.4939 1.19079 3.23872 1.94727 4.98987L4.49512 10.8873C4.55603 11.0284 4.6054 11.1732 4.64355 11.3199L10.1416 11.3199C10.5555 11.3201 10.8913 11.6561 10.8916 12.0699C10.8916 12.484 10.5557 12.8198 10.1416 12.8199L4.64355 12.8199C4.60538 12.9671 4.55615 13.1122 4.49512 13.2535L1.94727 19.151C1.19072 20.9022 3.02687 22.647 4.7373 21.8024L21.2676 13.6393Z"
    fill="currentColor"
  />
</svg>
