<svg width="20" height="20" viewBox="0 0 20 20" fill="none" xmlns="http://www.w3.org/2000/svg" data-fui-icon="true">
  <path
    fill-rule="evenodd"
    clip-rule="evenodd"
    d="M15.481 1.35262C17.4019 0.742417 19.2119 2.55296 18.6022 4.47384L14.3451 17.8695C13.5151 20.481 9.83718 20.5307 8.93679 17.9427L7.27882 13.1759C7.1977 12.9433 7.0143 12.7599 6.78164 12.6788L2.01074 11.018C-0.576739 10.1172 -0.526605 6.44035 2.08462 5.61046L15.481 1.35262ZM17.1721 4.02016C17.4138 3.25858 16.6963 2.54068 15.9347 2.78272L2.5383 7.04055C1.30182 7.4338 1.2785 9.17426 2.50378 9.60105L7.27468 11.2618C7.36287 11.2925 7.44871 11.3289 7.53156 11.3695L10.5699 8.33116C10.8627 8.03835 11.3377 8.03852 11.6306 8.33116C11.9235 8.62405 11.9235 9.09893 11.6306 9.39182L8.59014 12.4322C8.62968 12.5135 8.66504 12.5973 8.69511 12.6836L10.3538 17.4497C10.7802 18.6754 12.5215 18.6523 12.915 17.4158L17.1721 4.02016Z"
    fill="currentColor"
  />
</svg>
