<svg width="20" height="20" viewBox="0 0 20 20" fill="none" xmlns="http://www.w3.org/2000/svg" data-fui-icon="true">
  <path
    fill-rule="evenodd"
    clip-rule="evenodd"
    d="M7.79232 2.34288C8.71916 0.553188 11.2793 0.553511 12.2064 2.34288L18.6683 14.8253C19.928 17.2588 17.3625 19.8946 14.8958 18.7013L10.3529 16.503C10.131 16.3958 9.87165 16.3959 9.64975 16.503L5.10189 18.7023C2.63527 19.895 0.0707976 17.2596 1.33041 14.8263L7.79232 2.34288ZM10.8744 3.03331C10.5068 2.32391 9.49177 2.3237 9.12436 3.03331L2.66244 15.5167C2.06617 16.6691 3.28035 17.9164 4.44857 17.3517L8.99643 15.1525C9.08054 15.1118 9.1669 15.0768 9.25424 15.047V10.7501C9.25424 10.3359 9.59002 10.0001 10.0042 10.0001C10.4185 10.0001 10.7542 10.3359 10.7542 10.7501V15.0499C10.8396 15.0794 10.9239 15.1136 11.0062 15.1534L15.5492 17.3507C16.7174 17.9159 17.9324 16.6683 17.3363 15.5157L10.8744 3.03331Z"
    fill="currentColor"
  />
</svg>
