<svg width="24" height="24" viewBox="0 0 24 24" fill="none" xmlns="http://www.w3.org/2000/svg" data-fui-icon="true">
  <path
    fill-rule="evenodd"
    clip-rule="evenodd"
    d="M21.3164 14.7702C23.5643 13.606 23.5636 10.391 21.3154 9.22719L6.22361 1.41566C3.18869 -0.155163 -0.104599 3.02883 1.36326 6.11488L3.97654 11.608C4.09327 11.8535 4.09314 12.1389 3.97654 12.3844L1.36131 17.8854C-0.105854 20.9716 3.18803 24.1557 6.22264 22.5846L21.3164 14.7702ZM20.3965 11.0026C21.2039 11.4206 21.2039 12.5756 20.3965 12.9938L5.30272 20.8082C3.96982 21.4982 2.52369 20.1003 3.16795 18.7448L5.78318 13.2438C5.82123 13.1638 5.85443 13.082 5.88475 12.9996L11.2422 12.9996C11.7945 12.9996 12.2422 12.5519 12.2422 11.9996C12.2421 11.4475 11.7944 10.9996 11.2422 10.9996L5.88572 10.9996C5.85484 10.9153 5.82116 10.8315 5.78221 10.7496L3.1699 5.25551C2.52517 3.89995 3.97157 2.50109 5.30467 3.19105L20.3965 11.0026Z"
    fill="currentColor"
  />
</svg>
