<svg width="16" height="16" viewBox="0 0 16 16" fill="none" xmlns="http://www.w3.org/2000/svg" data-fui-icon="true">
  <path
    fill-rule="evenodd"
    clip-rule="evenodd"
    d="M13.7313 10.0881C15.4202 9.21075 15.4203 6.79349 13.7313 5.91626L4.85634 1.30884C2.66206 0.170012 0.249092 2.4098 1.22157 4.68286L2.60634 7.91821C2.62875 7.9711 2.62884 8.03136 2.60634 8.08423L1.2206 11.3235C0.248534 13.5967 2.66218 15.8359 4.85634 14.6965L13.7313 10.0881ZM12.8095 7.69165C13.0606 7.82238 13.0606 8.18198 12.8095 8.31274L3.93446 12.9211C3.40671 13.1952 2.82606 12.6574 3.05946 12.1106L4.39052 8.99927H7.26552C7.81764 8.99927 8.26525 8.55133 8.26552 7.99927C8.26552 7.44698 7.8178 6.99927 7.26552 6.99927H4.38954L3.06044 3.89575C2.82652 3.34887 3.40752 2.81015 3.93544 3.08423L12.8095 7.69165Z"
    fill="currentColor"
  />
</svg>
