<svg width="16" height="16" viewBox="0 0 16 16" fill="none" xmlns="http://www.w3.org/2000/svg" data-fui-icon="true">
  <path
    fill-rule="evenodd"
    clip-rule="evenodd"
    d="M11.8337 1.53505C13.4566 1.02013 14.9851 2.5487 14.4702 4.17151L11.2751 14.2402C10.5884 16.4029 7.55365 16.4737 6.76729 14.3451L5.46426 10.8158C5.41751 10.6892 5.31739 10.5891 5.1908 10.5424L1.65872 9.23796C-0.469715 8.45135 -0.398467 5.41595 1.76438 4.72946L11.8337 1.53505ZM13.0408 3.71852C13.1879 3.25485 12.7511 2.81802 12.2874 2.96515L2.21806 6.15956C1.41639 6.41415 1.39029 7.53914 2.17939 7.83065L5.71078 9.13576C5.73522 9.14479 5.75863 9.15619 5.78259 9.16614L7.93291 7.01582C8.22581 6.72293 8.70068 6.72293 8.99358 7.01582C9.28633 7.30872 9.28642 7.78363 8.99358 8.07648L6.84256 10.2275C6.85204 10.2504 6.86293 10.2732 6.87156 10.2965L8.1746 13.8259C8.46638 14.6143 9.59174 14.5878 9.84638 13.7865L13.0408 3.71852Z"
    fill="currentColor"
  />
</svg>
