<svg width="20" height="20" viewBox="0 0 20 20" fill="none" xmlns="http://www.w3.org/2000/svg" data-fui-icon="true">
  <path
    fill-rule="evenodd"
    clip-rule="evenodd"
    d="M17.5243 12.4294C19.4932 11.4089 19.4932 8.5924 17.5243 7.57201L5.54093 1.36107C2.92118 0.00343513 0.0650177 2.72816 1.29776 5.40892L3.30167 9.76634C3.36962 9.91413 3.36957 10.0844 3.30167 10.2322L1.29679 14.5935C0.0642929 17.2743 2.92032 19.9981 5.53995 18.6404L17.5243 12.4294ZM16.6044 9.3474C17.1334 9.62168 17.1332 10.3785 16.6044 10.6531L4.61905 16.865C3.68963 17.3466 2.67704 16.3806 3.11417 15.4294L5.11905 11.0671C5.1299 11.0435 5.14021 11.0197 5.1503 10.9958H9.26847C9.82057 10.9956 10.2685 10.548 10.2685 9.99584C10.2683 9.44385 9.82045 8.99604 9.26847 8.99584H5.14737C5.13808 8.97405 5.12898 8.95199 5.11905 8.93041L3.11515 4.57298C2.67793 3.62187 3.69055 2.65582 4.62003 3.13744L16.6044 9.3474Z"
    fill="currentColor"
  />
</svg>
