<svg width="12" height="13" viewBox="0 0 12 13" fill="none" xmlns="http://www.w3.org/2000/svg" data-fui-icon="true">
  <path
    fill-rule="evenodd"
    clip-rule="evenodd"
    d="M1.08984 7.77959C-0.361919 7.03648 -0.362038 4.96188 1.08984 4.21904L8.8584 0.244431C10.6636 -0.679011 12.6264 1.18111 11.8018 3.03349L10.5342 5.88115C10.5011 5.95566 10.5011 6.04099 10.5342 6.11552L11.8037 8.96904C12.6274 10.8214 10.6641 12.6806 8.85937 11.7571L1.08984 7.77959ZM1.77343 5.55498C1.41043 5.74068 1.41047 6.25885 1.77343 6.44463L9.54297 10.4212C10.0885 10.7002 10.6814 10.1383 10.4326 9.57841L9.17285 6.74736L6.74902 6.74736C6.33481 6.74736 5.99902 6.41157 5.99902 5.99736C5.99926 5.58335 6.33495 5.24736 6.74902 5.24736L9.17383 5.24736L10.4316 2.42314C10.6808 1.86315 10.0877 1.30123 9.54199 1.58037L1.77343 5.55498Z"
    fill="currentColor"
  />
</svg>
