<svg width="12" height="12" viewBox="0 0 12 12" fill="none" xmlns="http://www.w3.org/2000/svg" data-fui-icon="true">
  <path
    fill-rule="evenodd"
    clip-rule="evenodd"
    d="M9.21221 0.270524C10.7642 -0.23059 12.2312 1.23631 11.7299 2.78821L9.2419 10.4884C8.61828 12.4175 5.9152 12.4902 5.18847 10.5975L4.18443 7.9831C4.15516 7.90685 4.09493 7.84669 4.0187 7.81737L1.39882 6.81057C-0.493439 6.08326 -0.419625 3.38043 1.5093 2.75714L9.21221 0.270524ZM10.3019 2.32693C10.4272 1.93895 10.0608 1.57257 9.67279 1.69786L1.97058 4.18516C1.38769 4.37372 1.36558 5.19022 1.93743 5.41017L4.53384 6.4073L6.16212 4.77902C6.45499 4.48639 6.92995 4.48632 7.22278 4.77902C7.5156 5.07184 7.51544 5.54677 7.22278 5.83968L5.5945 7.46796L6.58887 10.0602C6.80858 10.6323 7.6252 10.6101 7.81388 10.0271L10.3019 2.32693Z"
    fill="currentColor"
  />
</svg>
