<svg width="20" height="20" viewBox="0 0 20 20" fill="none" xmlns="http://www.w3.org/2000/svg" data-fui-icon="true">
  <path
    fill-rule="evenodd"
    clip-rule="evenodd"
    d="M15.4813 1.35352C17.4023 0.743255 19.2126 2.55369 18.6025 4.47473L14.3453 17.8704C13.5152 20.4814 9.8376 20.5312 8.93709 17.9436L7.27912 13.1768C7.19809 12.9439 7.01477 12.7608 6.78193 12.6797L2.01103 11.0189C-0.576683 10.1183 -0.526208 6.4414 2.08492 5.61135L15.4813 1.35352ZM17.1724 4.02105C17.4145 3.25931 16.6967 2.54152 15.935 2.78361L2.5386 7.04144C1.30222 7.43485 1.27856 9.17535 2.50407 9.60195L7.27497 11.2627C7.3633 11.2934 7.44889 11.3297 7.53185 11.3704L10.5709 8.33136C10.8638 8.03847 11.3387 8.03847 11.6316 8.33136C11.9242 8.62427 11.9244 9.0992 11.6316 9.39202L8.59113 12.4324C8.63066 12.5137 8.66535 12.5981 8.6954 12.6845L10.3541 17.4506C10.7806 18.6759 12.5216 18.6528 12.9153 17.4167L17.1724 4.02105Z"
    fill="currentColor"
  />
</svg>
