<svg width="20" height="20" viewBox="0 0 20 20" fill="none" xmlns="http://www.w3.org/2000/svg" data-fui-icon="true">
  <path
    fill-rule="evenodd"
    clip-rule="evenodd"
    d="M2.47763 12.4295C0.508803 11.409 0.508717 8.59246 2.47763 7.57207L14.461 1.36113C17.0808 0.00349617 19.9369 2.72822 18.7042 5.40898L16.7003 9.7664C16.6323 9.91419 16.6324 10.0844 16.7003 10.2322L18.7052 14.5936C19.9377 17.2744 17.0816 19.9981 14.462 18.6404L2.47763 12.4295ZM3.39755 9.34746C2.86854 9.62174 2.8688 10.3786 3.39755 10.6531L15.3829 16.865C16.3123 17.3466 17.3249 16.3806 16.8878 15.4295L14.8829 11.0672C14.872 11.0436 14.8617 11.0198 14.8517 10.9959H10.7335C10.1814 10.9957 9.73349 10.5481 9.73349 9.9959C9.73369 9.44391 10.1815 8.99611 10.7335 8.9959H14.8546C14.8639 8.97411 14.873 8.95205 14.8829 8.93047L16.8868 4.57304C17.324 3.62194 16.3114 2.65588 15.3819 3.1375L3.39755 9.34746Z"
    fill="currentColor"
  />
</svg>
