<svg width="20" height="20" viewBox="0 0 20 20" fill="none" xmlns="http://www.w3.org/2000/svg" data-fui-icon="true">
  <path
    fill-rule="evenodd"
    clip-rule="evenodd"
    d="M7.57155 17.5238C8.59204 19.4927 11.4086 19.4927 12.429 17.5238L18.6399 5.54044C19.9975 2.92069 17.2728 0.0645294 14.5921 1.29728L10.2346 3.30118C10.0869 3.36913 9.91661 3.36908 9.76881 3.30118L5.40748 1.2963C2.72666 0.0638046 0.00289261 2.91983 1.36061 5.53946L7.57155 17.5238ZM10.6536 16.6039C10.3793 17.1329 9.62245 17.1327 9.34791 16.6039L3.136 4.61856C2.65441 3.68914 3.62042 2.67655 4.57155 3.11368L8.93385 5.11856C8.95747 5.12942 8.98128 5.13972 9.00514 5.14981V9.26798C9.00535 9.82009 9.45298 10.268 10.0051 10.268C10.5571 10.2678 11.0049 9.81996 11.0051 9.26798V5.14688C11.0269 5.13759 11.049 5.12849 11.0706 5.11856L15.428 3.11466C16.3791 2.67745 17.3452 3.69006 16.8635 4.61954L10.6536 16.6039Z"
    fill="currentColor"
  />
</svg>
