<svg width="32" height="32" viewBox="0 0 32 32" fill="none" xmlns="http://www.w3.org/2000/svg" data-fui-icon="true">
  <path
    fill-rule="evenodd"
    clip-rule="evenodd"
    d="M26.9257 0.501043C29.7436 -0.396687 32.4005 2.26016 31.5025 5.0779L24.0482 28.4642C22.7932 32.4003 17.2277 32.4132 15.9545 28.4829L13.2041 19.9914C13.0216 19.4281 12.5796 18.9862 12.0163 18.8036L3.51242 16.0463C-0.416736 14.7719 -0.402451 9.20774 3.53313 7.95329L26.9257 0.501043ZM30.0731 4.62215C30.6011 2.9648 29.0389 1.40252 27.3814 1.93045L3.98888 9.38269C1.44215 10.1944 1.43262 13.7949 3.97507 14.6197L12.479 17.377C12.7418 17.4622 12.9899 17.5791 13.2193 17.7223L18.9396 12.0019C19.2325 11.709 19.7074 11.709 20.0003 12.0019C20.2932 12.2948 20.2932 12.7697 20.0003 13.0625L14.282 18.7809C14.4272 19.0122 14.5447 19.2631 14.6307 19.5287L17.3811 28.0202C18.205 30.5635 21.8066 30.5554 22.6188 28.0085L30.0731 4.62215Z"
    fill="currentColor"
  />
</svg>
