<svg width="20" height="20" viewBox="0 0 20 20" fill="none" xmlns="http://www.w3.org/2000/svg" data-fui-icon="true">
  <path
    fill-rule="evenodd"
    clip-rule="evenodd"
    d="M7.79325 17.6569C8.72012 19.4468 11.2803 19.4467 12.2073 17.6569L18.6692 5.17446C19.9284 2.74119 17.3632 0.1056 14.8968 1.29848L10.3538 3.49672C10.1318 3.6041 9.87269 3.60393 9.65067 3.49672L5.10282 1.2975C2.63618 0.104538 0.0718678 2.74019 1.33133 5.17348L7.79325 17.6569ZM10.8753 16.9665C10.5078 17.6763 9.49273 17.6763 9.12528 16.9665L2.66337 4.48305C2.06724 3.33061 3.28127 2.08316 4.4495 2.64809L8.99735 4.84731C9.08128 4.88788 9.16704 4.92296 9.25419 4.95278V9.25063C9.25431 9.66463 9.5902 10.0005 10.0042 10.0006C10.4183 10.0006 10.7541 9.66474 10.7542 9.25063V4.95083C10.8399 4.92125 10.9245 4.88628 11.0071 4.84633L15.5501 2.64907C16.7181 2.08435 17.9329 3.3317 17.3372 4.48403L10.8753 16.9665Z"
    fill="currentColor"
  />
</svg>
