<svg width="16" height="16" viewBox="0 0 16 16" fill="none" xmlns="http://www.w3.org/2000/svg" data-fui-icon="true">
  <path
    fill-rule="evenodd"
    clip-rule="evenodd"
    d="M8.00041 0C9.89252 0 11.3727 0.509846 12.5151 1.30664C13.6502 2.09859 14.4119 3.14617 14.9213 4.16504C15.4298 5.18217 15.6979 6.19035 15.8393 6.93848C15.9103 7.31432 15.9497 7.62996 15.9721 7.85352C15.9832 7.96502 15.9905 8.05413 15.9946 8.11719C15.9966 8.14876 15.9976 8.17432 15.9985 8.19238C15.9989 8.20125 15.9992 8.20844 15.9994 8.21387C15.9995 8.2165 15.9994 8.21891 15.9994 8.2207L16.0004 8.22363V8.22461L15.9906 8.37305C15.9665 8.51812 15.8994 8.65382 15.7973 8.7627L12.5004 12.2793V14.54C12.5004 15.3463 11.8468 16 11.0405 16H4.96037C4.15426 15.9998 3.50043 15.3462 3.50041 14.54V12.2793L0.203537 8.7627C0.0674284 8.6174 -0.00621721 8.42359 0.00041183 8.22461V8.22363L0.00138839 8.2207C0.00145495 8.21891 0.0012823 8.2165 0.00138839 8.21387C0.00160997 8.20844 0.00193646 8.20125 0.00236496 8.19238C0.00323857 8.17433 0.00423686 8.14876 0.00627121 8.11719C0.0103382 8.05414 0.0175877 7.96501 0.0287321 7.85352C0.0510862 7.62997 0.0905573 7.31431 0.161545 6.93848C0.302877 6.19038 0.571045 5.18215 1.07951 4.16504C1.58893 3.14621 2.35072 2.09861 3.48576 1.30664C4.62807 0.509792 6.10835 7.42066e-05 8.00041 0ZM5.00041 14.5H11.0004V13H5.00041V14.5ZM4.37541 7C3.2724 7.0001 2.53429 7.41477 2.06877 7.81738C1.92485 7.94191 1.80641 8.06686 1.71135 8.17871L4.82463 11.5H7.25041V8.46094C7.23372 8.43572 7.21587 8.40575 7.19377 8.375C7.08645 8.22575 6.91823 8.02169 6.68205 7.81738C6.21646 7.41478 5.47847 7 4.37541 7ZM11.6254 7C10.5224 7.0001 9.78429 7.41477 9.31877 7.81738C9.08261 8.02171 8.91433 8.22578 8.80705 8.375C8.78496 8.40575 8.7671 8.43573 8.75041 8.46094V11.5H11.1762L14.2885 8.17871C14.1935 8.06697 14.0758 7.94172 13.9321 7.81738C13.4665 7.41478 12.7285 7 11.6254 7ZM8.00041 1.5C6.39308 1.50007 5.2163 1.92796 4.34319 2.53711C3.46323 3.15122 2.84924 3.97922 2.42131 4.83496C2.20552 5.26658 2.03909 5.70098 1.91154 6.10938C2.54701 5.75967 3.3624 5.50007 4.37541 5.5C5.8968 5.5 6.97183 6.08543 7.66252 6.68262C7.78816 6.79128 7.90013 6.90154 8.00041 7.00684C8.10069 6.90154 8.21268 6.79128 8.3383 6.68262C9.02892 6.08542 10.1041 5.50011 11.6254 5.5C12.638 5.5 13.4529 5.75992 14.0883 6.10938C13.9608 5.70104 13.7953 5.26649 13.5795 4.83496C13.1515 3.97919 12.5377 3.15121 11.6576 2.53711C10.7845 1.92801 9.60779 1.5 8.00041 1.5Z"
    fill="currentColor"
  />
</svg>
