<svg width="16" height="16" viewBox="0 0 16 16" fill="none" xmlns="http://www.w3.org/2000/svg" data-fui-icon="true">
  <path
    d="M8 0C9.89211 0 11.3723 0.509846 12.5146 1.30664C13.6498 2.09859 14.4114 3.14617 14.9209 4.16504C15.4294 5.18217 15.6975 6.19035 15.8389 6.93848C15.9099 7.31432 15.9493 7.62996 15.9717 7.85352C15.9828 7.96502 15.9901 8.05413 15.9941 8.11719C15.9962 8.14876 15.9972 8.17432 15.998 8.19238C15.9985 8.20125 15.9988 8.20844 15.999 8.21387C15.9991 8.2165 15.999 8.21891 15.999 8.2207L16 8.22363V8.22461L15.9902 8.37305C15.9661 8.51812 15.899 8.65382 15.7969 8.7627L12.5 12.2793V14.54C12.5 15.3463 11.8463 16 11.04 16H4.95996C4.15385 15.9998 3.50002 15.3462 3.5 14.54V12.2793L0.203125 8.7627C0.0670165 8.6174 -0.00662904 8.42359 0 8.22461V8.22363L0.000976562 8.2207C0.00104312 8.21891 0.000870471 8.2165 0.000976562 8.21387C0.00119814 8.20844 0.00152463 8.20125 0.00195312 8.19238C0.00282674 8.17433 0.00382503 8.14876 0.00585938 8.11719C0.00992634 8.05414 0.0171759 7.96501 0.0283203 7.85352C0.0506744 7.62997 0.0901455 7.31431 0.161133 6.93848C0.302465 6.19038 0.570633 5.18215 1.0791 4.16504C1.58852 3.14621 2.35031 2.09861 3.48535 1.30664C4.62765 0.509792 6.10794 7.42066e-05 8 0ZM5 14.5H11V13H5V14.5ZM4.375 7C3.27199 7.0001 2.53388 7.41477 2.06836 7.81738C1.92443 7.94191 1.806 8.06686 1.71094 8.17871L4.82422 11.5H7.25V8.46094C7.23331 8.43572 7.21546 8.40575 7.19336 8.375C7.08604 8.22575 6.91782 8.02169 6.68164 7.81738C6.21605 7.41478 5.47805 7 4.375 7ZM11.625 7C10.522 7.0001 9.78388 7.41477 9.31836 7.81738C9.0822 8.02171 8.91392 8.22578 8.80664 8.375C8.78455 8.40575 8.76669 8.43573 8.75 8.46094V11.5H11.1758L14.2881 8.17871C14.1931 8.06697 14.0754 7.94172 13.9316 7.81738C13.466 7.41478 12.7281 7 11.625 7ZM8 1.5C6.39267 1.50007 5.21589 1.92796 4.34277 2.53711C3.46281 3.15122 2.84883 3.97922 2.4209 4.83496C2.2051 5.26658 2.03868 5.70098 1.91113 6.10938C2.54659 5.75967 3.36199 5.50007 4.375 5.5C5.89639 5.5 6.97142 6.08543 7.66211 6.68262C7.78775 6.79128 7.89971 6.90154 8 7.00684C8.10027 6.90154 8.21227 6.79128 8.33789 6.68262C9.02851 6.08542 10.1037 5.50011 11.625 5.5C12.6376 5.5 13.4525 5.75992 14.0879 6.10938C13.9603 5.70104 13.7949 5.26649 13.5791 4.83496C13.1511 3.97919 12.5373 3.15121 11.6572 2.53711C10.7841 1.92801 9.60738 1.5 8 1.5Z"
    fill="currentColor"
  />
</svg>
