<svg width="20" height="20" viewBox="0 0 20 20" fill="none" xmlns="http://www.w3.org/2000/svg" data-fui-icon="true">
  <path
    fill-rule="evenodd"
    clip-rule="evenodd"
    d="M10.0003 1C12.1413 1 13.8088 1.57153 15.0921 2.46191C16.3684 3.34752 17.2238 4.52031 17.7962 5.66504C18.3676 6.8079 18.6666 7.94183 18.8236 8.78418C18.9023 9.20705 18.9458 9.56144 18.97 9.8125C18.9822 9.93814 18.9902 10.0388 18.9945 10.1094C18.9966 10.1445 18.9975 10.1725 18.9984 10.1924C18.9988 10.2021 18.9991 10.2099 18.9993 10.2158C18.9995 10.2188 19.0003 10.2217 19.0003 10.2236V10.2275L18.9906 10.3701C18.9679 10.5096 18.906 10.6409 18.8109 10.748L14.9827 15.0537C14.9929 15.1178 15.0003 15.1831 15.0003 15.25V17.4502C15.0002 18.3061 14.3064 18.9999 13.4505 19H6.55013C5.69439 18.9997 5.00043 18.306 5.00032 17.4502V15.25C5.00032 15.1832 5.00682 15.1177 5.01692 15.0537L1.18977 10.748C1.06285 10.6051 0.994704 10.4186 1.00032 10.2275V10.2236C1.00039 10.2217 1.00119 10.2188 1.0013 10.2158C1.00152 10.2099 1.00184 10.2021 1.00227 10.1924C1.00316 10.1725 1.00405 10.1445 1.00618 10.1094C1.01047 10.0388 1.01845 9.93814 1.0306 9.8125C1.05486 9.56145 1.09831 9.20704 1.17708 8.78418C1.33401 7.94186 1.63308 6.80788 2.20442 5.66504C2.77678 4.52033 3.63233 3.34754 4.90852 2.46191C6.19179 1.57149 7.85942 1.00006 10.0003 1ZM6.50032 17.4502C6.50043 17.4775 6.52282 17.4997 6.55013 17.5H13.4505C13.478 17.4999 13.5002 17.4777 13.5003 17.4502V15.5H6.50032V17.4502ZM5.87532 9C4.34837 9.00006 3.48819 9.44821 3.02278 9.83008C2.87823 9.94873 2.76617 10.0658 2.68099 10.1689L6.09602 14.0098C6.14649 14.0036 6.19818 14 6.25032 14H9.25032V10.4287C9.23704 10.4058 9.22264 10.3779 9.20345 10.3486C9.11637 10.216 8.96609 10.0256 8.72786 9.83008C8.26238 9.44822 7.40226 9 5.87532 9ZM14.1253 9C12.5984 9.00006 11.7382 9.44821 11.2728 9.83008C11.0346 10.0256 10.8842 10.216 10.7972 10.3486C10.778 10.3779 10.7636 10.4058 10.7503 10.4287V14H13.7503C13.8021 14 13.8535 14.0036 13.9036 14.0098L17.3187 10.1689C17.2335 10.0659 17.1222 9.94854 16.9779 9.83008C16.5124 9.44822 15.6523 9 14.1253 9ZM10.0003 2.5C8.14161 2.50006 6.77747 2.99114 5.76399 3.69434C4.74375 4.40233 4.03628 5.35497 3.54622 6.33496C3.23426 6.9589 3.01368 7.58692 2.85872 8.1543C3.58888 7.77532 4.57157 7.50005 5.87532 7.5C7.72283 7.5 8.92569 8.05196 9.67903 8.66992C9.79909 8.76843 9.90481 8.86968 10.0003 8.9668C10.0958 8.86968 10.2016 8.76843 10.3216 8.66992C11.0749 8.05193 12.2778 7.50006 14.1253 7.5C15.4286 7.5 16.4108 7.77556 17.1409 8.1543C16.986 7.58697 16.7664 6.95882 16.4544 6.33496C15.9643 5.35495 15.257 4.40231 14.2366 3.69434C13.2231 2.99118 11.8591 2.5 10.0003 2.5Z"
    fill="currentColor"
  />
</svg>
