<svg
  width="20"
  height="20"
  viewBox="0 0 20 20"
  fill="none"
  xmlns="http://www.w3.org/2000/svg"
  data-fui-icon="true"
>
  <path
    d="M5.75 17.45V15.25C5.75 14.9739 5.97386 14.75 6.25 14.75H13.75C14.0261 14.75 14.25 14.9739 14.25 15.25V17.45C14.25 17.8918 13.8918 18.25 13.45 18.25H6.55C6.10817 18.25 5.75 17.8918 5.75 17.45zM1.75 10.25L5.75 14.75M14.25 14.75L18.25 10.25M10 10.25V14.75M1.75 10.25C1.75 10.25 2 1.75 10 1.75 18 1.75 18.25 10.25 18.25 10.25"
    stroke="currentColor"
    stroke-width="1.5"
    stroke-linecap="round"
    stroke-linejoin="round"
  />
  <path
    d="M18.25 10.25C18.25 10.25 17.5 8.25 14.125 8.25C10.75 8.25 10 10.25 10 10.25C10 10.25 9.25 8.25 5.875 8.25C2.5 8.25 1.75 10.25 1.75 10.25"
    stroke="currentColor"
    stroke-width="1.5"
    stroke-linecap="round"
    stroke-linejoin="round"
  />
</svg>
