<svg width="24" height="24" viewBox="0 0 24 24" fill="none" xmlns="http://www.w3.org/2000/svg" data-fui-icon="true">
  <path
    fill-rule="evenodd"
    clip-rule="evenodd"
    d="M12.0002 1C14.6392 1 16.6814 1.69502 18.2463 2.77246C19.8046 3.84543 20.8481 5.26903 21.5461 6.66504C22.2431 8.05908 22.6051 9.44406 22.7932 10.4746C22.8876 10.9917 22.9389 11.4245 22.967 11.7305C22.981 11.8835 22.9886 12.0056 22.9934 12.0908C22.9957 12.1333 22.9973 12.1667 22.9983 12.1904C22.9987 12.2023 22.999 12.2118 22.9992 12.2188C22.9993 12.2222 23.0001 12.2253 23.0002 12.2275V12.2314C22.9973 12.2319 22.9519 12.2333 22.2502 12.25L23.0002 12.2324C23.0047 12.425 22.9345 12.6123 22.8049 12.7549L17.9836 18.0576C17.9933 18.1204 18.0002 18.1845 18.0002 18.25V21.25C18.0002 22.2165 17.2167 23 16.2502 23H7.7502C6.7838 22.9999 6.0002 22.2164 6.0002 21.25V18.25C6.0002 18.1845 6.00613 18.1204 6.01583 18.0576L1.19552 12.7549C1.06599 12.6124 0.995693 12.425 1.0002 12.2324L1.7502 12.25C1.01241 12.2324 1.00038 12.2319 1.0002 12.2314V12.2275C1.00027 12.2253 1.00107 12.2222 1.00118 12.2188C1.0014 12.2118 1.00169 12.2023 1.00216 12.1904C1.00309 12.1667 1.00468 12.1333 1.00704 12.0908C1.01178 12.0056 1.01936 11.8835 1.03341 11.7305C1.06151 11.4245 1.11285 10.9917 1.20724 10.4746C1.39535 9.44408 1.75736 8.05907 2.45431 6.66504C3.1523 5.26904 4.19584 3.84544 5.75411 2.77246C7.31901 1.69499 9.3612 1.00004 12.0002 1ZM7.5002 21.25C7.5002 21.388 7.61223 21.4999 7.7502 21.5H16.2502C16.3883 21.5 16.5002 21.3881 16.5002 21.25V18.5H7.5002V21.25ZM6.8752 10.5C5.11387 10.5001 3.99376 11.0634 3.32247 11.5898C3.0524 11.8017 2.8499 12.0123 2.70528 12.1855L7.092 17.0107C7.14378 17.0042 7.19665 17 7.2502 17H11.2502V12.4619C11.2226 12.4205 11.1896 12.369 11.1467 12.3125C11.0017 12.1213 10.7683 11.8568 10.4279 11.5898C9.75667 11.0634 8.63657 10.5 6.8752 10.5ZM17.1252 10.5C15.3638 10.5 14.2437 11.0634 13.5725 11.5898C13.2321 11.8568 12.9987 12.1213 12.8537 12.3125C12.8109 12.369 12.7778 12.4205 12.7502 12.4619V17H16.7502C16.8034 17 16.856 17.0043 16.9074 17.0107L21.2941 12.1855C21.1496 12.0124 20.9478 11.8015 20.6779 11.5898C20.0066 11.0634 18.8866 10.5 17.1252 10.5ZM12.0002 2.5C9.63948 2.50004 7.90006 3.1176 6.60567 4.00879C5.30492 4.90443 4.41054 6.10621 3.7961 7.33496C3.31108 8.30502 3.00607 9.28125 2.81466 10.1104C3.73578 9.50789 5.05751 9.00007 6.8752 9C8.98846 9 10.4313 9.68667 11.3537 10.4102C11.611 10.612 11.8244 10.8157 12.0002 11.0039C12.176 10.8157 12.3894 10.612 12.6467 10.4102C13.5691 9.68667 15.012 9.00004 17.1252 9C18.9425 9 20.2637 9.50811 21.1848 10.1104C20.9934 9.28128 20.6893 8.30495 20.2043 7.33496C19.5898 6.1062 18.6955 4.90442 17.3947 4.00879C16.1003 3.11763 14.361 2.5 12.0002 2.5Z"
    fill="currentColor"
  />
</svg>
