<svg width="32" height="32" viewBox="0 0 32 32" fill="none" xmlns="http://www.w3.org/2000/svg" data-fui-icon="true">
  <path
    d="M14 18.75C17.0561 18.75 19.3272 19.3851 21.0078 20.3633C22.6914 21.3432 23.7386 22.6421 24.3838 23.8965C25.2852 25.6496 24.1475 27.5108 22.4492 28.0127C20.5122 28.5851 17.5081 29.25 14 29.25C10.492 29.25 7.48789 28.5851 5.55078 28.0127C3.85235 27.5108 2.71469 25.6497 3.61621 23.8965C4.2614 22.6421 5.30859 21.3432 6.99219 20.3633C8.67286 19.3851 10.9439 18.75 14 18.75ZM14 20.25C11.1533 20.25 9.15459 20.8402 7.74707 21.6592C6.34259 22.4766 5.48226 23.5476 4.9502 24.582C4.56797 25.3252 4.982 26.2805 5.97559 26.5742C7.81833 27.1187 10.6752 27.75 14 27.75C17.3248 27.75 20.1817 27.1187 22.0244 26.5742C23.0178 26.2805 23.4319 25.3251 23.0498 24.582C22.5178 23.5477 21.6574 22.4766 20.2529 21.6592C18.8454 20.8401 16.8467 20.25 14 20.25ZM22.2881 15.7627C22.4191 15.3698 22.8444 15.1571 23.2373 15.2881C26.3086 16.3119 28.4604 17.3743 30.5859 20.0312C30.8446 20.3547 30.7921 20.8272 30.4688 21.0859C30.1453 21.3447 29.6728 21.2921 29.4141 20.9688C27.5397 18.6258 25.6912 17.6881 22.7627 16.7119C22.3697 16.5809 22.1571 16.1557 22.2881 15.7627ZM14 2.75C17.4517 2.7501 20.25 5.54828 20.25 9C20.25 12.4517 17.4517 15.2499 14 15.25C10.5482 15.25 7.75 12.4518 7.75 9C7.75 5.54822 10.5482 2.75 14 2.75ZM14 4.25C11.3766 4.25 9.25 6.37665 9.25 9C9.25 11.6234 11.3766 13.75 14 13.75C16.6233 13.7499 18.75 11.6233 18.75 9C18.75 6.37671 16.6233 4.2501 14 4.25ZM21.5 0.75C24.9517 0.750103 27.75 3.54828 27.75 7C27.75 8.33688 27.3293 9.57783 26.6133 10.5947C26.3749 10.9333 25.907 11.0146 25.5684 10.7764C25.2297 10.5379 25.1484 10.0701 25.3867 9.73145C25.9306 8.95906 26.25 8.01779 26.25 7C26.25 4.37671 24.1233 2.2501 21.5 2.25C21.0858 2.25 20.75 1.91421 20.75 1.5C20.75 1.08579 21.0858 0.75 21.5 0.75Z"
    fill="currentColor"
  />
</svg>
