<svg width="12" height="12" viewBox="0 0 12 12" fill="none" xmlns="http://www.w3.org/2000/svg" data-fui-icon="true">
  <g clip-path="url(#clip0_5220_259)">
    <path
      fill-rule="evenodd"
      clip-rule="evenodd"
      d="M5.24981 6.56281C6.46108 6.56281 7.39751 6.81533 8.11309 7.23175C8.83165 7.64996 9.28306 8.20822 9.56036 8.74738C10.0605 9.72037 9.40766 10.7012 8.55059 10.9544C7.79466 11.1777 6.6222 11.4378 5.24981 11.4378C3.87734 11.4378 2.7049 11.1777 1.94903 10.9544C1.09207 10.7011 0.439333 9.72027 0.939261 8.74738C1.21652 8.2083 1.66815 7.64994 2.38653 7.23175C3.10207 6.81535 4.03863 6.56284 5.24981 6.56281ZM5.24981 8.06281C4.24757 8.06284 3.58288 8.27014 3.14043 8.52765C2.70122 8.78338 2.43737 9.11389 2.27325 9.43293C2.26896 9.44134 2.2703 9.44156 2.27032 9.43683C2.27074 9.43819 2.2717 9.4406 2.27325 9.44367C2.28274 9.46229 2.31326 9.498 2.37383 9.51593C3.03533 9.71138 4.06045 9.93778 5.24981 9.93781C6.43909 9.93781 7.46423 9.71137 8.12578 9.51593C8.18624 9.49807 8.21677 9.46235 8.22637 9.44367C8.22787 9.4407 8.22886 9.43819 8.2293 9.43683C8.22932 9.44159 8.23077 9.44152 8.22637 9.43293C8.06221 9.11382 7.79858 8.7834 7.35918 8.52765C6.9167 8.27013 6.25215 8.06281 5.24981 8.06281ZM7.91289 5.763C8.04387 5.37008 8.46918 5.15748 8.86211 5.28839C10.0585 5.68719 10.9602 6.12458 11.8357 7.21906C12.0944 7.5425 12.042 8.01501 11.7186 8.27375C11.3952 8.53221 10.9226 8.47983 10.6639 8.15656C10.0395 7.37604 9.44112 7.06343 8.3875 6.71222C7.99473 6.58124 7.78217 6.15583 7.91289 5.763ZM5.24981 0.562808C6.80311 0.562808 8.06231 1.82201 8.06231 3.37531C8.06213 4.92846 6.803 6.18781 5.24981 6.18781C3.69672 6.18769 2.43748 4.92839 2.43731 3.37531C2.43731 1.82208 3.69661 0.562928 5.24981 0.562808ZM8.38946 0.64191C8.58756 0.278171 9.04231 0.144039 9.40606 0.342105C10.2793 0.817784 10.8748 1.74505 10.8748 2.81281C10.8747 3.41379 10.6854 3.97328 10.3631 4.43097C10.1246 4.76918 9.65667 4.85073 9.31817 4.61261C8.97957 4.37417 8.89822 3.90537 9.13653 3.56671C9.28658 3.35359 9.37474 3.09458 9.37481 2.81281C9.37481 2.31607 9.09952 1.88206 8.68926 1.65851C8.3256 1.46045 8.19158 1.00562 8.38946 0.64191ZM5.24981 2.06281C4.52504 2.06293 3.93731 2.65051 3.93731 3.37531C3.93748 4.09996 4.52514 4.68769 5.24981 4.68781C5.97457 4.68781 6.56213 4.10003 6.56231 3.37531C6.56231 2.65043 5.97468 2.06281 5.24981 2.06281Z"
      fill="currentColor"
    />
  </g>
  <defs>
    <clipPath id="clip0_5220_259"><path fill="currentColor" d="M0 0H12V12H0z" /></clipPath>
  </defs>
</svg>
