<svg width="20" height="20" viewBox="0 0 20 20" fill="none" xmlns="http://www.w3.org/2000/svg" data-fui-icon="true">
  <path
    d="M10 1C14.9706 1 19 5.02944 19 10C19 14.9706 14.9706 19 10 19C5.02944 19 1 14.9706 1 10C1 5.02944 5.02944 1 10 1ZM10 3C6.13401 3 3 6.13401 3 10C3 13.866 6.13401 17 10 17C13.866 17 17 13.866 17 10C17 6.13401 13.866 3 10 3ZM7.75 6.25C8.30228 6.25 8.75 6.69772 8.75 7.25V12.75C8.75 13.3023 8.30228 13.75 7.75 13.75C7.19772 13.75 6.75 13.3023 6.75 12.75V7.25C6.75 6.69772 7.19772 6.25 7.75 6.25ZM12.25 6.25C12.8023 6.25 13.25 6.69772 13.25 7.25V12.75C13.25 13.3023 12.8023 13.75 12.25 13.75C11.6977 13.75 11.25 13.3023 11.25 12.75V7.25C11.25 6.69772 11.6977 6.25 12.25 6.25Z"
    fill="currentColor"
  />
</svg>
5Z"
    fill="currentColor"
  />
</svg>
