<svg width="32" height="32" viewBox="0 0 32 32" fill="none" xmlns="http://www.w3.org/2000/svg" data-fui-icon="true">
  <path
    d="M16 0.5C24.5604 0.5 31.5 7.43959 31.5 16C31.5 24.5604 24.5604 31.5 16 31.5C7.43959 31.5 0.5 24.5604 0.5 16C0.5 7.43959 7.43959 0.5 16 0.5ZM16 2C8.26801 2 2 8.26801 2 16C2 23.732 8.26801 30 16 30C23.732 30 30 23.732 30 16C30 8.26801 23.732 2 16 2ZM12 10C12.4142 10 12.75 10.3358 12.75 10.75V21.25C12.7499 21.6642 12.4142 22 12 22C11.5858 22 11.2501 21.6642 11.25 21.25V10.75C11.25 10.3358 11.5858 10 12 10ZM20 10C20.4142 10 20.75 10.3358 20.75 10.75V21.25C20.7499 21.6642 20.4142 22 20 22C19.5858 22 19.2501 21.6642 19.25 21.25V10.75C19.25 10.3358 19.5858 10 20 10Z"
    fill="currentColor"
  />
</svg>
5Z"
    fill="currentColor"
  />
</svg>
