<svg width="12" height="12" viewBox="0 0 12 12" fill="none" xmlns="http://www.w3.org/2000/svg" data-fui-icon="true">
  <path
    d="M6 0C9.31371 0 12 2.68629 12 6C12 9.31371 9.31371 12 6 12C2.68629 12 0 9.31371 0 6C0 2.68629 2.68629 0 6 0ZM4.5 3.75C4.08579 3.75 3.75 4.08579 3.75 4.5V7.5C3.75 7.91421 4.08579 8.25 4.5 8.25C4.91421 8.25 5.25 7.91421 5.25 7.5V4.5C5.25 4.08579 4.91421 3.75 4.5 3.75ZM7.5 3.75C7.08579 3.75 6.75 4.08579 6.75 4.5V7.5C6.75 7.91421 7.08579 8.25 7.5 8.25C7.91421 8.25 8.25 7.91421 8.25 7.5V4.5C8.25 4.08579 7.91421 3.75 7.5 3.75Z"
    fill="currentColor"
  />
</svg>
