<svg width="20" height="20" viewBox="0 0 20 20" fill="none" xmlns="http://www.w3.org/2000/svg" data-fui-icon="true">
  <path
    d="M10 0.5C15.2467 0.5 19.5 4.75329 19.5 10C19.5 15.2467 15.2467 19.5 10 19.5C4.75329 19.5 0.5 15.2467 0.5 10C0.5 4.75329 4.75329 0.5 10 0.5ZM10 2.5C5.85786 2.5 2.5 5.85786 2.5 10C2.5 14.1421 5.85786 17.5 10 17.5C14.1421 17.5 17.5 14.1421 17.5 10C17.5 5.85786 14.1421 2.5 10 2.5ZM7.75 6.25C8.30228 6.25 8.75 6.69772 8.75 7.25V12.75C8.75 13.3023 8.30228 13.75 7.75 13.75C7.19772 13.75 6.75 13.3023 6.75 12.75V7.25C6.75 6.69772 7.19772 6.25 7.75 6.25ZM12.25 6.25C12.8023 6.25 13.25 6.69772 13.25 7.25V12.75C13.25 13.3023 12.8023 13.75 12.25 13.75C11.6977 13.75 11.25 13.3023 11.25 12.75V7.25C11.25 6.69772 11.6977 6.25 12.25 6.25Z"
    fill="currentColor"
  />
</svg>
