<svg width="20" height="20" viewBox="0 0 20 20" fill="none" xmlns="http://www.w3.org/2000/svg" data-fui-icon="true">
  <path
    d="M10 0.5C15.2467 0.5 19.5 4.75329 19.5 10C19.5 15.2467 15.2467 19.5 10 19.5C4.75329 19.5 0.5 15.2467 0.5 10C0.5 4.75329 4.75329 0.5 10 0.5ZM7 6C6.44772 6 6 6.44772 6 7V13C6 13.5523 6.44772 14 7 14H7.5C8.05228 14 8.5 13.5523 8.5 13V7C8.5 6.44772 8.05228 6 7.5 6H7ZM12.5 6C11.9477 6 11.5 6.44772 11.5 7V13C11.5 13.5523 11.9477 14 12.5 14H13C13.5523 14 14 13.5523 14 13V7C14 6.44772 13.5523 6 13 6H12.5Z"
    fill="currentColor"
  />
</svg>
