<svg width="16" height="16" viewBox="0 0 16 16" fill="none" xmlns="http://www.w3.org/2000/svg" data-fui-icon="true">
  <path
    d="M8 0.5C12.1421 0.5 15.5 3.85786 15.5 8C15.5 12.1421 12.1421 15.5 8 15.5C3.85786 15.5 0.5 12.1421 0.5 8C0.5 3.85786 3.85786 0.5 8 0.5ZM8 2C4.68629 2 2 4.68629 2 8C2 11.3137 4.68629 14 8 14C11.3137 14 14 11.3137 14 8C14 4.68629 11.3137 2 8 2ZM6.25 5C6.66421 5 7 5.33579 7 5.75V10.25C6.99995 10.6642 6.66418 11 6.25 11C5.83582 11 5.50005 10.6642 5.5 10.25V5.75C5.5 5.33579 5.83579 5 6.25 5ZM9.75 5C10.1642 5 10.5 5.33579 10.5 5.75V10.25C10.4999 10.6642 10.1642 11 9.75 11C9.33582 11 9.00005 10.6642 9 10.25V5.75C9 5.33579 9.33579 5 9.75 5Z"
    fill="currentColor"
  />
</svg>
</svg>
