<svg width="24" height="24" viewBox="0 0 24 24" fill="none" xmlns="http://www.w3.org/2000/svg" data-fui-icon="true">
  <path
    d="M12 0.5C18.3513 0.5 23.5 5.64873 23.5 12C23.5 18.3513 18.3513 23.5 12 23.5C5.64873 23.5 0.5 18.3513 0.5 12C0.5 5.64873 5.64873 0.5 12 0.5ZM12 2.5C6.75329 2.5 2.5 6.75329 2.5 12C2.5 17.2467 6.75329 21.5 12 21.5C17.2467 21.5 21.5 17.2467 21.5 12C21.5 6.75329 17.2467 2.5 12 2.5ZM9 7.25C9.55229 7.25 10 7.69772 10 8.25V15.75C9.99995 16.3022 9.55225 16.75 9 16.75C8.44775 16.75 8.00005 16.3022 8 15.75V8.25C8 7.69772 8.44772 7.25 9 7.25ZM15 7.25C15.5523 7.25 16 7.69772 16 8.25V15.75C15.9999 16.3022 15.5523 16.75 15 16.75C14.4477 16.75 14.0001 16.3022 14 15.75V8.25C14 7.69772 14.4477 7.25 15 7.25Z"
    fill="currentColor"
  />
</svg>
