<svg width="24" height="24" viewBox="0 0 24 24" fill="none" xmlns="http://www.w3.org/2000/svg" data-fui-icon="true">
  <path
    d="M12 1C18.0751 1 23 5.92487 23 12C23 18.0751 18.0751 23 12 23C5.92487 23 1 18.0751 1 12C1 5.92487 5.92487 1 12 1ZM8 7C7.44772 7 7 7.44772 7 8V16C7 16.5523 7.44772 17 8 17H9C9.55228 17 10 16.5523 10 16V8C10 7.44772 9.55229 7 9 7H8ZM15 7C14.4477 7 14 7.44772 14 8V16C14 16.5523 14.4477 17 15 17H16C16.5523 17 17 16.5523 17 16V8C17 7.44772 16.5523 7 16 7H15Z"
    fill="currentColor"
  />
</svg>
7 16 7H15Z"
    fill="currentColor"
  />
</svg>
