<svg width="20" height="20" viewBox="0 0 20 20" fill="none" xmlns="http://www.w3.org/2000/svg" data-fui-icon="true">
  <path
    d="M10 0C15.5228 0 20 4.47715 20 10C20 15.5228 15.5228 20 10 20C4.47715 20 0 15.5228 0 10C0 4.47715 4.47715 0 10 0ZM7.75 6.5C7.33579 6.5 7 6.83579 7 7.25V12.75C7 13.1642 7.33579 13.5 7.75 13.5C8.16421 13.5 8.5 13.1642 8.5 12.75V7.25C8.5 6.83579 8.16421 6.5 7.75 6.5ZM12.25 6.5C11.8358 6.5 11.5 6.83579 11.5 7.25V12.75C11.5 13.1642 11.8358 13.5 12.25 13.5C12.6642 13.5 13 13.1642 13 12.75V7.25C13 6.83579 12.6642 6.5 12.25 6.5Z"
    fill="currentColor"
  />
</svg>
