<svg width="20" height="20" viewBox="0 0 20 20" fill="none" xmlns="http://www.w3.org/2000/svg" data-fui-icon="true">
  <path
    d="M5.85938 2C6.76547 2.00024 7.49994 2.73449 7.5 3.64062V16.3594C7.4998 17.2654 6.76539 17.9998 5.85938 18H4.64062C3.73461 17.9998 3.0002 17.2654 3 16.3594V3.64062C3.00006 2.73449 3.73453 2.00024 4.64062 2H5.85938ZM15.3594 2C16.2654 2.00024 16.9998 2.73464 17 3.64062V16.3594C17 17.2655 16.2655 17.9998 15.3594 18H14.1406C13.2345 17.9998 12.5 17.2655 12.5 16.3594V3.64062C12.5002 2.73464 13.2346 2.00024 14.1406 2H15.3594Z"
    fill="currentColor"
  />
</svg>
