<svg width="24" height="24" viewBox="0 0 24 24" fill="none" xmlns="http://www.w3.org/2000/svg" data-fui-icon="true">
  <path
    d="M12 1C18.0751 1 23 5.92487 23 12C23 18.0751 18.0751 23 12 23C5.92487 23 1 18.0751 1 12C1 5.92487 5.92487 1 12 1ZM12 3C7.02944 3 3 7.02944 3 12C3 16.9706 7.02944 21 12 21C16.9706 21 21 16.9706 21 12C21 7.02944 16.9706 3 12 3ZM9 7.25C9.55229 7.25 10 7.69772 10 8.25V15.75C9.99995 16.3022 9.55225 16.75 9 16.75C8.44775 16.75 8.00005 16.3022 8 15.75V8.25C8 7.69772 8.44772 7.25 9 7.25ZM15 7.25C15.5523 7.25 16 7.69772 16 8.25V15.75C15.9999 16.3022 15.5523 16.75 15 16.75C14.4477 16.75 14.0001 16.3022 14 15.75V8.25C14 7.69772 14.4477 7.25 15 7.25Z"
    fill="currentColor"
  />
</svg>
15.75V8.25C14.25 7.83579 14.5858 7.5 15 7.5Z"
    fill="currentColor"
  />
</svg>
