<svg width="16" height="16" viewBox="0 0 16 16" fill="none" xmlns="http://www.w3.org/2000/svg" data-fui-icon="true">
  <path
    fill-rule="evenodd"
    clip-rule="evenodd"
    d="M8 1C11.866 1 15 4.13401 15 8C15 11.866 11.866 15 8 15C4.13401 15 1 11.866 1 8C1 4.13401 4.13401 1 8 1ZM5.7002 5C5.3136 5 5 5.3136 5 5.7002V10.2998C5 10.6864 5.3136 11 5.7002 11H6.2998C6.6864 11 7 10.6864 7 10.2998V5.7002C7 5.3136 6.6864 5 6.2998 5H5.7002ZM9.7002 5C9.3136 5 9 5.3136 9 5.7002V10.2998C9 10.6864 9.3136 11 9.7002 11H10.2998C10.6864 11 11 10.6864 11 10.2998V5.7002C11 5.3136 10.6864 5 10.2998 5H9.7002Z"
    fill="currentColor"
  />
</svg>
