<svg width="32" height="32" viewBox="0 0 32 32" fill="none" xmlns="http://www.w3.org/2000/svg" data-fui-icon="true">
  <path
    d="M16 0.5C24.5604 0.5 31.5 7.43959 31.5 16C31.5 24.5604 24.5604 31.5 16 31.5C7.43959 31.5 0.5 24.5604 0.5 16C0.5 7.43959 7.43959 0.5 16 0.5ZM11.5 9.5C10.6716 9.5 10 10.1716 10 11V21C10 21.8284 10.6716 22.5 11.5 22.5H12.5C13.3284 22.5 14 21.8284 14 21V11C14 10.1716 13.3284 9.5 12.5 9.5H11.5ZM19.5 9.5C18.6716 9.5 18 10.1716 18 11V21C18 21.8284 18.6716 22.5 19.5 22.5H20.5C21.3284 22.5 22 21.8284 22 21V11C22 10.1716 21.3284 9.5 20.5 9.5H19.5Z"
    fill="currentColor"
  />
</svg>
