<svg width="24" height="24" viewBox="0 0 24 24" fill="none" xmlns="http://www.w3.org/2000/svg" data-fui-icon="true">
  <path
    d="M12 0.5C18.3513 0.5 23.5 5.64873 23.5 12C23.5 18.3513 18.3513 23.5 12 23.5C5.64873 23.5 0.5 18.3513 0.5 12C0.5 5.64873 5.64873 0.5 12 0.5ZM12 2C6.47715 2 2 6.47715 2 12C2 17.5228 6.47715 22 12 22C17.5228 22 22 17.5228 22 12C22 6.47715 17.5228 2 12 2ZM9 7.5C9.41421 7.5 9.75 7.83579 9.75 8.25V15.75C9.74995 16.1642 9.41418 16.5 9 16.5C8.58582 16.5 8.25005 16.1642 8.25 15.75V8.25C8.25 7.83579 8.58579 7.5 9 7.5ZM15 7.5C15.4142 7.5 15.75 7.83579 15.75 8.25V15.75C15.7499 16.1642 15.4142 16.5 15 16.5C14.5858 16.5 14.2501 16.1642 14.25 15.75V8.25C14.25 7.83579 14.5858 7.5 15 7.5Z"
    fill="currentColor"
  />
</svg>
