<svg width="12" height="12" viewBox="0 0 12 12" fill="none" xmlns="http://www.w3.org/2000/svg" data-fui-icon="true">
  <path
    d="M6 0C9.31371 0 12 2.68629 12 6C12 9.31371 9.31371 12 6 12C2.68629 12 0 9.31371 0 6C0 2.68629 2.68629 0 6 0ZM6 1.5C3.51472 1.5 1.5 3.51472 1.5 6C1.5 8.48528 3.51472 10.5 6 10.5C8.48528 10.5 10.5 8.48528 10.5 6C10.5 3.51472 8.48528 1.5 6 1.5ZM4.25 4C4.66421 4 5 4.33579 5 4.75V7.25C4.99995 7.66417 4.66418 8 4.25 8C3.83582 8 3.50005 7.66417 3.5 7.25V4.75C3.5 4.33579 3.83579 4 4.25 4ZM7.75 4C8.16421 4 8.5 4.33579 8.5 4.75V7.25C8.49995 7.66417 8.16418 8 7.75 8C7.33582 8 7.00005 7.66417 7 7.25V4.75C7 4.33579 7.33579 4 7.75 4Z"
    fill="currentColor"
  />
</svg>
