<svg width="32" height="32" viewBox="0 0 32 32" fill="none" xmlns="http://www.w3.org/2000/svg" data-fui-icon="true">
  <path
    d="M16 1C24.2843 1 31 7.71573 31 16C31 24.2843 24.2843 31 16 31C7.71573 31 1 24.2843 1 16C1 7.71573 7.71573 1 16 1ZM16 3C8.8203 3 3 8.8203 3 16C3 23.1797 8.8203 29 16 29C23.1797 29 29 23.1797 29 16C29 8.8203 23.1797 3 16 3ZM12 9.75C12.5523 9.75 13 10.1977 13 10.75V21.25C12.9999 21.8022 12.5523 22.25 12 22.25C11.4477 22.25 11.0001 21.8022 11 21.25V10.75C11 10.1977 11.4477 9.75 12 9.75ZM20 9.75C20.5523 9.75 21 10.1977 21 10.75V21.25C20.9999 21.8022 20.5523 22.25 20 22.25C19.4477 22.25 19.0001 21.8022 19 21.25V10.75C19 10.1977 19.4477 9.75 20 9.75Z"
    fill="currentColor"
  />
</svg>
tColor"
  />
</svg>
