<svg width="16" height="16" viewBox="0 0 16 16" fill="none" xmlns="http://www.w3.org/2000/svg" data-fui-icon="true">
  <path
    d="M8 0C12.4183 0 16 3.58172 16 8C16 12.4183 12.4183 16 8 16C3.58172 16 0 12.4183 0 8C0 3.58172 3.58172 0 8 0ZM8 1.5C4.41015 1.5 1.5 4.41015 1.5 8C1.5 11.5899 4.41015 14.5 8 14.5C11.5899 14.5 14.5 11.5899 14.5 8C14.5 4.41015 11.5899 1.5 8 1.5ZM6 5C6.41421 5 6.75 5.33579 6.75 5.75V10.25C6.74995 10.6642 6.41418 11 6 11C5.58582 11 5.25005 10.6642 5.25 10.25V5.75C5.25 5.33579 5.58579 5 6 5ZM10 5C10.4142 5 10.75 5.33579 10.75 5.75V10.25C10.7499 10.6642 10.4142 11 10 11C9.58582 11 9.25005 10.6642 9.25 10.25V5.75C9.25 5.33579 9.58579 5 10 5Z"
    fill="currentColor"
  />
</svg>
