<svg width="16" height="16" viewBox="0 0 16 16" fill="none" xmlns="http://www.w3.org/2000/svg" data-fui-icon="true">
  <path
    fill-rule="evenodd"
    clip-rule="evenodd"
    d="M12.7883 8.35105C13.6234 7.71844 14.8049 7.83716 15.4971 8.6235C16.1884 9.40909 16.1574 10.5948 15.4258 11.3431L11.9905 14.8565C11.2758 15.5875 10.2962 16 9.27385 16H6.3375C5.47137 16 4.61275 15.86 3.79469 15.5869C3.49004 15.8442 3.09677 16 2.66683 16H1.75478C0.788389 16 0.00496632 15.2165 0.00488251 14.2501V9.88416C0.00493912 8.91777 0.788371 8.13427 1.75478 8.13427H2.66683C3.2393 8.13429 3.74592 8.41039 4.06518 8.8354C4.48264 8.73962 4.9213 8.73877 5.34733 8.84028L8.56784 9.60781C9.13473 9.74296 9.59468 10.0925 9.88416 10.5492L12.7883 8.35105ZM2.00476 14.0001H2.41684V10.1341H2.00476V14.0001ZM10.5365 12.5656C10.335 12.7182 10.1046 12.8243 9.8617 12.882C9.41223 13.5626 8.59803 13.9532 7.74757 13.8244L5.57974 13.4953C5.03381 13.4124 4.65818 12.9026 4.74092 12.3567C4.82396 11.811 5.33376 11.4352 5.87952 11.5179L8.04736 11.8469C8.12474 11.8586 8.19791 11.808 8.21532 11.7317C8.2331 11.652 8.18357 11.572 8.104 11.553L4.88349 10.7855C4.72713 10.7483 4.56492 10.7591 4.41672 10.8128V13.6847C5.03458 13.8922 5.68305 14.0001 6.3375 14.0001H9.27385C9.75798 14.0001 10.2224 13.8053 10.5609 13.4591L13.9962 9.94471L10.5365 12.5656ZM8.0415 0.0996033C8.53853 0.0996033 8.94184 0.502913 8.94184 0.999939V1.09173C9.52471 1.21916 10.2279 1.55083 10.6595 2.41392C10.8816 2.85842 10.7017 3.39961 10.2572 3.62185C9.81292 3.84384 9.27271 3.66347 9.05023 3.21953C8.94646 3.012 8.81402 2.92815 8.66451 2.87873C8.47956 2.81761 8.2772 2.8133 8.04248 2.8133C7.25281 2.81331 7.13141 3.25344 7.12164 3.27128C7.12169 3.32302 7.12737 3.3539 7.1314 3.36894C7.13518 3.3829 7.13884 3.38924 7.14019 3.39139C7.14318 3.39602 7.16234 3.42319 7.23491 3.46463C7.42848 3.57505 7.72955 3.64766 8.22508 3.7527C8.63778 3.84018 9.24529 3.9608 9.7328 4.239C9.99669 4.38961 10.264 4.60494 10.4613 4.91962C10.6617 5.23954 10.7542 5.60537 10.7542 5.99573C10.7541 7.03013 9.95988 7.68409 8.94184 7.92237V8.12255C8.94184 8.61958 8.53853 9.02289 8.0415 9.02289C7.54448 9.02289 7.14117 8.61958 7.14117 8.12255V7.89698C7.04352 7.87189 6.94545 7.84465 6.84919 7.813C6.44585 7.68037 5.95369 7.45548 5.58462 7.08648C5.23347 6.73519 5.23373 6.16555 5.58462 5.8141C5.93607 5.46265 6.50653 5.46265 6.85798 5.8141C6.94332 5.89912 7.13323 6.01159 7.41166 6.10314C7.68287 6.19229 7.92842 6.22618 8.04248 6.22618C8.52438 6.22618 8.78003 6.11386 8.88813 6.03772C8.92598 6.01099 8.94409 5.98988 8.95258 5.97815C8.95143 5.93719 8.9483 5.91153 8.94477 5.89808C8.94108 5.88432 8.93743 5.87797 8.93598 5.87562C8.93437 5.87305 8.91698 5.84568 8.84126 5.80238C8.6477 5.69193 8.34669 5.61839 7.85108 5.51334C7.4385 5.42588 6.83085 5.30608 6.34336 5.02801C6.07958 4.87749 5.81213 4.66184 5.61489 4.34739C5.41445 4.02759 5.32108 3.6615 5.32096 3.27128C5.32096 2.34353 6.02806 1.45356 7.14117 1.13567V0.999939C7.14117 0.502913 7.54448 0.0996033 8.0415 0.0996033Z"
    fill="currentColor"
  />
</svg>
