<svg width="25" height="24" viewBox="0 0 25 24" fill="none" xmlns="http://www.w3.org/2000/svg" data-fui-icon="true">
  <path
    d="M3 13C3.99099 13 4.812 13.7211 4.9707 14.667C5.72429 14.3624 6.55923 14.3109 7.34668 14.5283L12.5547 15.9668C13.406 16.2021 14.0315 16.8541 14.2734 17.6436C14.5792 17.5759 14.8701 17.4465 15.125 17.2588L20.2871 13.457C21.2514 12.7471 22.5974 12.8821 23.4014 13.7695C24.2378 14.6936 24.2001 16.1123 23.3164 16.9912L17.7617 22.5146C16.8058 23.4651 15.5121 23.9989 14.1641 23.999H8.5498C7.34073 23.999 6.14448 23.7481 5.03711 23.2627L4.66895 23.1006C4.31105 23.642 3.69755 24 3 24H2C0.895794 23.9997 0.000144143 23.1042 0 22V15C0.000132462 13.8957 0.895787 13.0003 2 13H3ZM2 14.5C1.72421 14.5003 1.50013 14.7242 1.5 15V22C1.50014 22.2758 1.72422 22.4997 2 22.5H3C3.27605 22.5 3.49986 22.276 3.5 22V15C3.49987 14.724 3.27606 14.5 3 14.5H2ZM22.2891 14.7764C22.0018 14.4598 21.5211 14.4117 21.1768 14.665L16.0137 18.4668C15.4946 18.849 14.8874 19.0865 14.2529 19.166C13.8603 20.3377 12.6571 21.0582 11.4219 20.8223L8.36035 20.2363C7.95377 20.1584 7.68708 19.766 7.76465 19.3594C7.8425 18.9528 8.23497 18.6861 8.6416 18.7637L11.7031 19.3486C12.2238 19.4481 12.7313 19.1216 12.8564 18.6064C12.9829 18.0847 12.6726 17.5563 12.1553 17.4131L6.94727 15.9746C6.43553 15.8334 5.88947 15.8812 5.41016 16.1094L5 16.3037V21.6084L5.63965 21.8887C6.55714 22.2908 7.54806 22.499 8.5498 22.499H14.1641C15.1157 22.4989 16.0292 22.1222 16.7041 21.4512L22.2588 15.9277C22.5743 15.6137 22.5879 15.1065 22.2891 14.7764ZM12.0068 0.25C12.421 0.25 12.7568 0.585786 12.7568 1V1.59473C13.0382 1.65789 13.3368 1.75121 13.6211 1.87109C14.1663 2.10103 14.8418 2.50481 15.1719 3.16504C15.3568 3.53545 15.2063 3.98572 14.8359 4.1709C14.4655 4.35584 14.0153 4.20531 13.8301 3.83496C13.7433 3.66191 13.4805 3.4405 13.0381 3.25391C12.6136 3.07493 12.194 3 12.0068 3C10.6848 3.00015 10.2514 3.8544 10.251 4.20312C10.251 4.40652 10.2977 4.52846 10.3496 4.61035C10.405 4.69756 10.4975 4.78845 10.6572 4.88086C11.0104 5.08513 11.5119 5.20695 12.1758 5.36621C12.7729 5.50946 13.5261 5.68831 14.1182 6.05957C14.4296 6.25489 14.7216 6.51688 14.9326 6.87598C15.1454 7.23815 15.251 7.65662 15.251 8.12402C15.251 9.34836 14.2344 10.223 12.7568 10.4434V11C12.7568 11.4142 12.421 11.75 12.0068 11.75C11.5928 11.7498 11.2568 11.4141 11.2568 11V10.418C11.0132 10.3705 10.7577 10.3037 10.5078 10.2178C9.98335 10.0374 9.38821 9.74465 8.95898 9.2959C8.67274 8.99656 8.68311 8.52164 8.98242 8.23535C9.28168 7.94918 9.75666 7.95969 10.043 8.25879C10.2386 8.46335 10.5807 8.6573 10.9951 8.7998C11.4044 8.94053 11.7917 8.99994 12.0068 9C13.5036 9 13.751 8.32818 13.751 8.12402C13.751 7.88846 13.7002 7.73889 13.6396 7.63574C13.5773 7.52962 13.4784 7.42862 13.3213 7.33008C12.9759 7.11349 12.479 6.98082 11.8262 6.82422C11.2403 6.68367 10.4914 6.5174 9.90723 6.17969C9.59865 6.00123 9.30003 5.75679 9.08203 5.41309C8.86072 5.06396 8.75098 4.65697 8.75098 4.20312C8.75124 3.09042 9.66847 1.86518 11.2568 1.56738V1C11.2568 0.5859 11.5928 0.250184 12.0068 0.25Z"
    fill="currentColor"
  />
</svg>
