<svg width="32" height="32" viewBox="0 0 32 32" fill="none" xmlns="http://www.w3.org/2000/svg" data-fui-icon="true">
  <path
    d="M26.7969 19.2347C27.8426 18.5376 29.2353 18.6751 30.124 19.5638C31.192 20.632 31.1461 22.3774 30.0234 23.388L22.8945 29.804C21.8602 30.7348 20.5174 31.2503 19.126 31.2503H11.1416C9.95691 31.2502 8.78424 31.0099 7.69531 30.5433L6.38281 29.9798C5.98101 30.5936 5.28841 31.0003 4.5 31.0003H3.25C2.00752 31.0003 1.00025 29.9927 1 28.7503V21.2503C1.00009 20.0077 2.00742 19.0003 3.25 19.0003H4.5C5.62465 19.0003 6.55289 19.8257 6.71973 20.9036L7.13184 20.7396C7.98646 20.3977 8.92734 20.3337 9.82031 20.5569L16.6602 22.2669C17.6691 22.5192 18.4081 23.2894 18.6729 24.221C19.1898 24.1557 19.6873 23.974 20.124 23.6829L26.7969 19.2347ZM29.0635 20.6243C28.6803 20.2413 28.0797 20.1822 27.6289 20.4827L20.9561 24.931C20.2739 25.3857 19.4898 25.6573 18.6777 25.7288C18.3085 27.0631 17.0191 27.9289 15.6426 27.761L11.4092 27.2444C10.9982 27.1943 10.706 26.8204 10.7559 26.4095C10.8061 25.9984 11.1797 25.706 11.5908 25.7562L15.8242 26.2728C16.4664 26.351 17.0687 25.9435 17.2363 25.3187C17.4238 24.6178 17.0007 23.8992 16.2969 23.723L9.45605 22.013C8.86922 21.8664 8.25111 21.9076 7.68945 22.1321L6.75 22.5071V28.5052L8.28613 29.1644C9.18838 29.551 10.16 29.7502 11.1416 29.7503H19.126C20.1467 29.7503 21.1318 29.3724 21.8906 28.6898L29.0205 22.2728C29.504 21.8371 29.5236 21.0847 29.0635 20.6243ZM3.25 20.5003C2.83584 20.5003 2.50009 20.8362 2.5 21.2503V28.7503C2.50025 29.1643 2.83594 29.5003 3.25 29.5003H4.5C4.91406 29.5003 5.24975 29.1643 5.25 28.7503V21.2503C5.24991 20.8362 4.91416 20.5003 4.5 20.5003H3.25ZM16.0098 0.250305C16.424 0.250305 16.7598 0.586092 16.7598 1.00031V2.32257C17.2722 2.40965 17.8602 2.57369 18.418 2.8089C19.2596 3.16385 20.2158 3.7552 20.6709 4.66534C20.8557 5.03571 20.7052 5.48607 20.335 5.6712C19.9647 5.85601 19.5143 5.7054 19.3291 5.33527C19.1174 4.91237 18.5737 4.50333 17.835 4.19171C17.114 3.88768 16.3826 3.75031 16.0098 3.75031C13.6762 3.75037 12.75 5.28994 12.75 6.12628C12.7501 6.52655 12.8437 6.80579 12.9775 7.01691C13.1149 7.23345 13.3246 7.42511 13.625 7.59894C14.2594 7.96581 15.136 8.17396 16.1748 8.42316C17.1469 8.65636 18.2752 8.92925 19.1484 9.47687C19.6005 9.76039 20.0097 10.1314 20.3027 10.6302C20.5975 11.1319 20.75 11.7206 20.75 12.3987C20.7498 14.1375 19.211 15.4871 16.7598 15.7151V17.0003C16.7596 17.4144 16.4239 17.7503 16.0098 17.7503C15.5957 17.7502 15.2599 17.4143 15.2598 17.0003V15.6898C14.7922 15.6225 14.27 15.4996 13.7578 15.3235C12.9517 15.0464 12.0748 14.6079 11.458 13.9632C11.1718 13.664 11.1824 13.189 11.4814 12.9026C11.7808 12.6163 12.2557 12.6268 12.542 12.9261C12.9252 13.3267 13.549 13.6662 14.2451 13.9056C14.9362 14.1431 15.6053 14.2503 16.0098 14.2503C18.517 14.2503 19.2498 13.0908 19.25 12.3987C19.25 11.9525 19.1523 11.6327 19.0098 11.39C18.8654 11.1442 18.6493 10.9341 18.3516 10.7474C17.7249 10.3544 16.853 10.1287 15.8252 9.88214C14.8643 9.65163 13.7405 9.39814 12.875 8.89777C12.4259 8.63801 12.01 8.29355 11.71 7.82062C11.4066 7.34225 11.2501 6.77719 11.25 6.12628C11.25 4.51066 12.6754 2.60729 15.2598 2.29523V1.00031C15.2598 0.586143 15.5956 0.250389 16.0098 0.250305Z"
    fill="currentColor"
  />
</svg>
