<svg width="17" height="16" viewBox="0 0 17 16" fill="none" xmlns="http://www.w3.org/2000/svg" data-fui-icon="true">
  <path
    d="M13.1592 8.65332C13.8983 8.10124 14.9375 8.20632 15.5518 8.89453C16.1772 9.59604 16.1489 10.6635 15.4873 11.3311L11.917 14.9326C11.2403 15.6152 10.3186 15.9999 9.35742 16H6.27637C5.35714 15.9999 4.44692 15.8404 3.58301 15.5361C3.31006 15.8211 2.92671 15.9999 2.50098 16H1.5C0.671816 15.9999 0.000212221 15.3282 0 14.5V10C0.000215857 9.17184 0.671819 8.50013 1.5 8.5H2.50098C3.05858 8.50017 3.54435 8.80515 3.80273 9.25684C4.24249 9.12255 4.71512 9.10457 5.17188 9.21191L8.53223 10.002C9.15041 10.1475 9.62651 10.577 9.85938 11.1191L13.1592 8.65332ZM1.5 14.5H2.50098V10H1.5V14.5ZM14.4326 9.89258C14.3363 9.78495 14.1724 9.76908 14.0566 9.85547L10.459 12.5439C10.2516 12.6989 10.0101 12.7997 9.75684 12.8408C9.37038 13.5082 8.60612 13.9006 7.80664 13.7812L5.53906 13.4414C5.12967 13.38 4.84712 12.9983 4.9082 12.5889C4.96974 12.1796 5.35139 11.8969 5.76074 11.958L8.02832 12.2979C8.2477 12.3305 8.45556 12.1886 8.50586 11.9727C8.55849 11.7444 8.4165 11.5157 8.18848 11.4619L4.82812 10.6719C4.54563 10.6055 4.24929 10.6511 4.00098 10.7969V14.0938C4.7288 14.3604 5.49889 14.4999 6.27637 14.5H9.35742C9.9185 14.4999 10.4566 14.2754 10.8516 13.877L14.4219 10.2754C14.5254 10.1707 14.5305 10.0026 14.4326 9.89258ZM8.04297 0C8.45718 0 8.79297 0.335786 8.79297 0.75V0.964844C9.36722 1.06595 10.093 1.36279 10.5273 2.23145C10.7123 2.60186 10.5618 3.05212 10.1914 3.2373C9.82108 3.42233 9.37087 3.27249 9.18555 2.90234C8.95724 2.44572 8.53463 2.41309 8.04395 2.41309C7.14874 2.4131 6.97266 2.95075 6.97266 3.02148C6.97277 3.14353 6.99968 3.19682 7.01465 3.2207C7.03245 3.24903 7.07004 3.29317 7.16211 3.3457C7.3802 3.47006 7.70677 3.54683 8.19531 3.65039C8.61489 3.73933 9.19713 3.85494 9.66016 4.11914C9.90846 4.26086 10.155 4.46133 10.3359 4.75C10.5194 5.04294 10.6064 5.38022 10.6064 5.74609C10.6063 6.71975 9.82469 7.35069 8.79297 7.55371V7.87305C8.79297 8.28726 8.45718 8.62305 8.04297 8.62305C7.62876 8.62305 7.29297 8.28726 7.29297 7.87305V7.52734C7.16178 7.49729 7.02803 7.46383 6.89746 7.4209C6.50447 7.29167 6.03781 7.07582 5.69238 6.73047C5.39967 6.43762 5.39968 5.96279 5.69238 5.66992C5.98524 5.37719 6.46007 5.37719 6.75293 5.66992C6.86174 5.77864 7.07697 5.90098 7.36621 5.99609C7.64908 6.08907 7.91068 6.12597 8.04395 6.12598C8.54795 6.12598 8.83663 6.00891 8.97656 5.91016C9.1057 5.8189 9.10648 5.75188 9.10645 5.74609C9.10642 5.62399 9.07947 5.56993 9.06445 5.5459C9.04661 5.5176 9.00869 5.47424 8.91699 5.42188C8.69891 5.29743 8.37251 5.22079 7.88379 5.11719C7.4643 5.02827 6.88202 4.91254 6.41895 4.64844C6.17066 4.50675 5.92412 4.30619 5.74316 4.01758C5.55959 3.72468 5.47278 3.38734 5.47266 3.02148C5.47266 2.14397 6.17096 1.27517 7.29297 1.00195V0.75C7.29297 0.335786 7.62876 0 8.04297 0Z"
    fill="currentColor"
  />
</svg>
