<svg width="20" height="20" viewBox="0 0 20 20" fill="none" xmlns="http://www.w3.org/2000/svg" data-fui-icon="true">
  <path
    d="M2.9209 10C3.80701 10.0001 4.55682 10.5767 4.81934 11.375C5.34861 11.2449 5.90579 11.2409 6.44531 11.3672L11.0107 12.4355C11.5989 12.5733 12.0871 12.912 12.4219 13.3613L15.833 10.5713C16.8176 9.76582 18.2535 9.83907 19.1514 10.7402C20.106 11.6987 20.1126 13.2465 19.167 14.2139L14.875 18.6045C14.0435 19.455 12.9043 19.9345 11.7148 19.9346H7.70996C6.58402 19.9345 5.4714 19.7201 4.42676 19.3105C4.06013 19.7314 3.52285 19.9999 2.9209 20H2C0.895534 20 0.000164924 19.1044 0 18V12C0 10.8954 0.89543 10 2 10H2.9209ZM2 18H2.9209V12H2V18ZM17.7344 12.1523C17.5627 11.9802 17.2878 11.9661 17.0996 12.1201L12.7646 15.666C12.386 16.721 11.3308 17.4015 10.1924 17.2822L6.97559 16.9443C6.42667 16.8866 6.02769 16.3946 6.08496 15.8457C6.1426 15.2965 6.63542 14.8976 7.18457 14.9551L10.4004 15.293C10.6315 15.3172 10.8448 15.1655 10.8984 14.9395C10.9571 14.6908 10.8034 14.4412 10.5547 14.3828L5.98926 13.3145C5.62634 13.2296 5.24493 13.2841 4.9209 13.4678V17.3516C5.8005 17.734 6.74898 17.9345 7.70996 17.9346H11.7148C12.366 17.9345 12.9901 17.6726 13.4453 17.207L17.7373 12.8164C17.918 12.6316 17.9165 12.3356 17.7344 12.1523ZM10.0029 0C10.5552 0 11.0029 0.447715 11.0029 1V1.16797C11.1537 1.21348 11.3049 1.26685 11.4502 1.32812C11.9137 1.52362 12.5636 1.89476 12.8926 2.55273C13.1396 3.04671 12.9393 3.64754 12.4453 3.89453C11.9513 4.14152 11.3505 3.94124 11.1035 3.44727C11.1081 3.45641 11.092 3.42087 11.0088 3.35742C10.9281 3.29597 10.8139 3.23137 10.6729 3.17188C10.3703 3.04427 10.0876 3 10.0029 3C9.56657 3.00002 9.31271 3.14223 9.17578 3.26953C9.10251 3.33766 9.05589 3.40873 9.02832 3.46777C9.00191 3.52436 8.99836 3.55837 8.99805 3.5625C8.99805 3.61413 9.00434 3.64349 9.00781 3.65625C9.01103 3.66801 9.01373 3.67238 9.01465 3.67383C9.01648 3.67671 9.03746 3.70873 9.12402 3.75879C9.34499 3.88645 9.67986 3.97119 10.2314 4.10352C10.6943 4.21455 11.3649 4.37074 11.9043 4.70898C12.1946 4.89105 12.48 5.14331 12.6885 5.49805C12.8993 5.85687 12.998 6.26348 12.998 6.69922C12.998 7.84413 12.1414 8.60377 11.0029 8.88086V9C11.0029 9.55229 10.5552 10 10.0029 10C9.45068 9.99996 9.00293 9.55226 9.00293 9V8.85156C8.89276 8.82212 8.78219 8.79017 8.67383 8.75293C8.2249 8.59859 7.6811 8.33725 7.27539 7.91309C6.89376 7.51397 6.90757 6.88073 7.30664 6.49902C7.70576 6.11738 8.33899 6.13217 8.7207 6.53125C8.81508 6.6298 9.02211 6.75747 9.32422 6.86133C9.61965 6.96285 9.88445 6.99998 10.0029 7C10.5242 7 10.7973 6.87383 10.9121 6.78906C11.0084 6.71797 10.9991 6.67811 10.9971 6.69336C10.9963 6.57159 10.9717 6.52515 10.9639 6.51172C10.9536 6.49427 10.9263 6.45635 10.8418 6.40332C10.6312 6.27126 10.3018 6.17769 9.76465 6.04883C9.31657 5.94134 8.65107 5.7952 8.12207 5.48926C7.83578 5.32361 7.54283 5.08825 7.3252 4.74512C7.10279 4.39445 6.99805 3.99256 6.99805 3.5625C6.99823 2.54246 7.75645 1.50934 9.00293 1.1416V1C9.00293 0.447741 9.45068 4.20031e-05 10.0029 0Z"
    fill="currentColor"
  />
</svg>
