<svg width="32" height="33" viewBox="0 0 32 33" fill="none" xmlns="http://www.w3.org/2000/svg" data-fui-icon="true">
  <path
    d="M27.5117 19.4505C28.6414 18.7388 30.1097 18.8821 31.0801 19.7991C32.3454 20.9951 32.292 23.0255 30.9658 24.1536L23.3721 30.6126C22.3181 31.5091 20.9793 32.0012 19.5957 32.0013H10.7607C9.60269 32.0013 8.45519 31.7778 7.38184 31.3431L5.97656 30.7737C5.51947 31.3672 4.80407 31.7513 3.99707 31.7513H2.5C1.11935 31.7513 9.29432e-05 30.6319 0 29.2513V21.7503C0.000113962 20.3697 1.11936 19.2503 2.5 19.2503H3.99707C5.14787 19.2503 6.11441 20.0288 6.40527 21.0872L6.71484 20.971C7.60186 20.6357 8.56932 20.5733 9.49219 20.7913L16.874 22.5355C17.9111 22.7806 18.692 23.5276 19.0322 24.4534C19.5056 24.3767 19.9612 24.2071 20.3701 23.9495L27.5117 19.4505ZM29.7061 21.2523C29.3992 20.9625 28.9343 20.9169 28.5771 21.1419L21.4365 25.6419C20.7156 26.0961 19.9017 26.3742 19.0596 26.4651C18.6058 27.825 17.261 28.6923 15.8242 28.5267L11.2041 27.9944C10.6555 27.9312 10.262 27.4346 10.3252 26.886C10.3887 26.3377 10.8842 25.944 11.4326 26.0071L16.0537 26.5403C16.5632 26.5989 17.0397 26.2789 17.1797 25.7855C17.3419 25.2121 16.994 24.6189 16.4141 24.4818L9.03223 22.7376C8.49724 22.6112 7.93608 22.6477 7.42188 22.8421L6.49707 23.1917V28.8265L8.13281 29.4896C8.96758 29.8276 9.86012 30.0013 10.7607 30.0013H19.5957C20.5045 30.0012 21.3839 29.678 22.0762 29.0892L29.6699 22.6302C30.0893 22.2734 30.1062 21.6305 29.7061 21.2523ZM2.5 21.2503C2.22393 21.2503 2.00011 21.4743 2 21.7503V29.2513C2.00009 29.5273 2.22391 29.7513 2.5 29.7513H3.99707C4.27316 29.7513 4.49698 29.5273 4.49707 29.2513V21.7503C4.49696 21.4743 4.27314 21.2503 3.99707 21.2503H2.5ZM16.0098 0.000305176C16.562 0.000305176 17.0098 0.44802 17.0098 1.00031V2.11554C17.4905 2.21259 18.0157 2.36806 18.5146 2.57843C19.3734 2.94057 20.3988 3.56167 20.8945 4.55304C21.1413 5.04697 20.9412 5.64789 20.4473 5.89484C19.9534 6.14169 19.3525 5.94133 19.1055 5.44757C18.9345 5.10567 18.4594 4.7267 17.7373 4.42218C17.0396 4.12795 16.3419 4.00031 16.0098 4.00031C13.7968 4.00037 13 5.44484 13 6.12628C13.0001 6.48474 13.0829 6.71654 13.1885 6.88312C13.2989 7.05707 13.475 7.22352 13.751 7.38312C14.3469 7.72761 15.1818 7.92771 16.2334 8.17999C17.1962 8.41097 18.3669 8.69156 19.2812 9.26495C19.759 9.56459 20.2007 9.96235 20.5186 10.5032C20.8386 11.0481 21 11.6819 21 12.3987C20.9998 14.2632 19.4081 15.6405 17.0098 15.9388V17.0003C17.0096 17.5524 16.5619 18.0003 16.0098 18.0003C15.4577 18.0002 15.0099 17.5524 15.0098 17.0003V15.9026C14.5828 15.8286 14.1242 15.714 13.6758 15.5599C12.8515 15.2764 11.9329 14.8213 11.2773 14.136C10.8957 13.737 10.9098 13.1038 11.3086 12.722C11.7077 12.3402 12.3409 12.3542 12.7227 12.7532C13.067 13.1131 13.6484 13.4362 14.3262 13.6693C14.9973 13.9 15.6388 14.0003 16.0098 14.0003C18.4543 14.0003 18.9998 12.888 19 12.3987C19 11.9912 18.9111 11.7164 18.7939 11.5169C18.6743 11.3133 18.4908 11.1299 18.2188 10.9593C17.6332 10.5921 16.8037 10.3741 15.7666 10.1253C14.8186 9.89788 13.653 9.63733 12.749 9.11456C12.2752 8.84051 11.8261 8.47003 11.499 7.95441C11.1674 7.43149 11.0001 6.81897 11 6.12628C11 4.41715 12.4509 2.48378 15.0098 2.07843V1.00031C15.0098 0.448072 15.4576 0.000389202 16.0098 0.000305176Z"
    fill="currentColor"
  />
</svg>
