<svg width="12" height="12" viewBox="0 0 12 12" fill="none" xmlns="http://www.w3.org/2000/svg" data-fui-icon="true">
  <path
    d="M0.366181 7.29238C0.849439 6.57238 1.71695 6.21197 2.56815 6.37741L5.78859 7.00334C6.34496 7.11153 6.76556 7.49964 6.94865 7.98568L10.0031 7.00627C10.5707 6.82434 11.1927 6.98886 11.5957 7.42811C12.2146 8.10344 12.1046 9.16823 11.3604 9.70234L8.77077 11.5596C8.37157 11.8459 7.89197 11.9998 7.40076 12H3.63545C3.62905 12 3.62228 11.9992 3.61592 11.999H2.25079C1.00825 11.999 0.000976483 10.9917 0.000976483 9.74921V9.51094C0.000921647 9.50737 4.57201e-06 9.50379 0 9.5002V8.49345C7.27272e-05 8.06579 0.127972 7.64754 0.366181 7.29238ZM2.28204 7.84897C2.02292 7.79868 1.75831 7.90907 1.6112 8.12824C1.53897 8.23619 1.49995 8.36356 1.49988 8.49345V8.89674C1.50005 8.90323 1.50085 8.90973 1.50085 8.91627V9.74921C1.50085 10.1634 1.83661 10.4991 2.25079 10.4991H4.53772C4.54425 10.4991 4.55075 10.5 4.55725 10.5001H7.40076C7.57842 10.4999 7.75243 10.4445 7.89682 10.341L10.4865 8.48368C10.4909 8.48045 10.4931 8.47778 10.4943 8.47587C10.4957 8.47333 10.4966 8.46878 10.4972 8.46415C10.4977 8.45948 10.4971 8.45443 10.4962 8.45146C10.4955 8.44936 10.494 8.44582 10.4904 8.4417C10.483 8.43373 10.4714 8.43074 10.4611 8.43388L6.78753 9.6125C6.71931 9.63439 6.64972 9.64155 6.5815 9.64375C6.26673 9.95223 5.82761 10.1234 5.36577 10.0861L2.96265 9.89177C2.55015 9.85818 2.24303 9.49575 2.27618 9.08325C2.3097 8.67061 2.67111 8.36354 3.08373 8.39678L5.48686 8.5911C5.51312 8.59313 5.53757 8.5768 5.54642 8.55204C5.55791 8.51852 5.53725 8.48265 5.50248 8.47587L2.28204 7.84897ZM6.00244 0C6.41662 0 6.75238 0.335759 6.75238 0.749939V0.764586C6.82097 0.78764 6.88949 0.811952 6.95549 0.839775C7.2537 0.965538 7.69433 1.21306 7.92025 1.6649C8.10512 2.03527 7.95464 2.48553 7.58434 2.67068C7.23726 2.84377 6.82003 2.72283 6.61665 2.40215L6.58833 2.35137C6.58611 2.34911 6.57644 2.3393 6.55513 2.32305C6.51505 2.29254 6.45363 2.25669 6.37253 2.22248C6.29276 2.18885 6.20847 2.16234 6.13329 2.14533C6.09632 2.13698 6.06431 2.13196 6.03955 2.12873C6.01478 2.12551 6.00245 2.12484 6.00244 2.12483C5.59407 2.12498 5.51548 2.33052 5.50151 2.35625C5.50551 2.35883 5.50969 2.36282 5.51518 2.36602C5.63398 2.43473 5.82312 2.4839 6.1743 2.56815C6.45886 2.63641 6.8996 2.73747 7.25722 2.96167C7.45152 3.08351 7.64575 3.25497 7.78843 3.49776C7.93286 3.7436 7.99935 4.02051 7.99935 4.31215C7.99904 5.0729 7.45598 5.57026 6.75043 5.77199C6.73839 6.17564 6.40901 6.49947 6.00244 6.49947C5.58855 6.49922 5.25263 6.16345 5.2525 5.74953C5.21217 5.73745 5.1711 5.72704 5.13142 5.7134C4.84173 5.61379 4.48062 5.44217 4.20767 5.15681C3.92148 4.85759 3.93207 4.38265 4.2311 4.09635C4.53035 3.81011 5.00526 3.82063 5.29156 4.11978C5.331 4.16102 5.43912 4.2328 5.61868 4.29457C5.79299 4.3545 5.94479 4.37454 6.00244 4.37464C6.30586 4.37464 6.44816 4.30084 6.49459 4.26723C6.49373 4.26197 6.49424 4.25792 6.49361 4.25551C6.48829 4.25067 6.47763 4.24288 6.46041 4.23208C6.34935 4.16253 6.16464 4.10857 5.82472 4.02702C5.55124 3.96141 5.11497 3.86595 4.76524 3.66376C4.57391 3.55309 4.37288 3.39281 4.22329 3.15697C4.0704 2.91571 3.99971 2.64076 3.99967 2.35137C3.99979 1.67756 4.47882 1.01535 5.2525 0.748962C5.25303 0.335384 5.5888 0.000247085 6.00244 0Z"
    fill="currentColor"
  />
</svg>
