<svg width="24" height="24" viewBox="0 0 24 24" fill="none" xmlns="http://www.w3.org/2000/svg" data-fui-icon="true">
  <path
    d="M3.16992 12.5C4.18196 12.5001 5.03661 13.1685 5.31934 14.0879C6.06345 13.8623 6.86051 13.8474 7.62012 14.0508L13.3975 15.5967C14.0718 15.7773 14.6179 16.1971 14.9746 16.7393L19.8867 13.0361C20.9572 12.2297 22.4684 12.382 23.3564 13.3857C24.2498 14.396 24.2096 15.9256 23.2646 16.8877L17.8574 22.3906C16.8469 23.4191 15.4653 23.9989 14.0234 23.999H8.69434C7.42439 23.999 6.16843 23.7298 5.00977 23.21L4.91504 23.167C4.50254 23.6744 3.87478 23.9999 3.16992 24H2.25C1.00744 24 0.000131947 22.9925 0 21.75V14.75C0 13.5074 1.00736 12.5 2.25 12.5H3.16992ZM2.25 14.5C2.11193 14.5 2 14.6119 2 14.75V21.75C2.00013 21.888 2.11201 22 2.25 22H3.16992C3.3078 21.9999 3.41979 21.8879 3.41992 21.75V14.75C3.41992 14.612 3.30788 14.5001 3.16992 14.5H2.25ZM21.8584 14.7109C21.6619 14.4889 21.3267 14.4554 21.0898 14.6338L15.3252 18.9785C14.9466 20.3403 13.5897 21.1985 12.1885 20.9385L8.38965 20.2334C7.84667 20.1326 7.48814 19.6104 7.58887 19.0674C7.68965 18.5245 8.21105 18.1661 8.75391 18.2666L12.5537 18.9717C12.9416 19.0435 13.318 18.7988 13.4092 18.415C13.5015 18.0254 13.2667 17.6329 12.8799 17.5293L7.10352 15.9824C6.59381 15.846 6.05149 15.8978 5.57715 16.1289L5.41992 16.2051V21.2021L5.8291 21.3857C6.7302 21.79 7.7067 21.999 8.69434 21.999H14.0234C14.9287 21.9989 15.7962 21.635 16.4307 20.9893L21.8379 15.4863C22.0469 15.2734 22.0561 14.9345 21.8584 14.7109ZM12.0059 0C12.5581 0 13.0059 0.447715 13.0059 1V1.39844C13.2432 1.46136 13.4858 1.54278 13.7178 1.64062C14.2801 1.87777 15.0238 2.31136 15.3945 3.05273C15.6415 3.54671 15.4412 4.14754 14.9473 4.39453C14.4533 4.64152 13.8525 4.44124 13.6055 3.94727C13.5595 3.85536 13.366 3.66387 12.9404 3.48438C12.539 3.3151 12.1524 3.25 12.0059 3.25C10.8049 3.25014 10.5005 4.00882 10.5 4.20312C10.5 4.36475 10.5359 4.43923 10.5596 4.47656C10.588 4.52125 10.6472 4.58598 10.7822 4.66406C11.0969 4.84605 11.5565 4.96067 12.2334 5.12305C12.8212 5.26406 13.6169 5.45066 14.25 5.84766C14.5873 6.05914 14.9116 6.34861 15.1475 6.75C15.3855 7.15525 15.5 7.61816 15.5 8.12402C15.5 9.45713 14.4509 10.3683 13.0059 10.6533V11C13.0059 11.5523 12.5581 12 12.0059 12C11.4537 11.9998 11.0059 11.5522 11.0059 11V10.6201C10.8133 10.5753 10.6175 10.52 10.4258 10.4541C9.88295 10.2675 9.24554 9.95825 8.77734 9.46875C8.39564 9.06964 8.4095 8.43642 8.80859 8.05469C9.20762 7.67306 9.8409 7.68708 10.2227 8.08594C10.3794 8.24986 10.68 8.42727 11.0762 8.56348C11.4653 8.69723 11.8242 8.74993 12.0059 8.75C12.6956 8.75 13.0936 8.58323 13.291 8.4375C13.479 8.2987 13.5 8.17705 13.5 8.12402C13.5 7.92711 13.4581 7.82267 13.4229 7.7627C13.3852 7.69871 13.319 7.62444 13.1875 7.54199C12.8832 7.35116 12.4287 7.22623 11.7666 7.06738C11.1935 6.92991 10.403 6.75565 9.78027 6.39551C9.44709 6.20276 9.11512 5.93316 8.87012 5.54688C8.62055 5.15319 8.5 4.69875 8.5 4.20312C8.50025 3.00632 9.4349 1.74896 11.0059 1.36719V1C11.0059 0.447829 11.4537 0.00018434 12.0059 0Z"
    fill="currentColor"
  />
</svg>
