<svg width="12" height="12" viewBox="0 0 12 12" fill="none" xmlns="http://www.w3.org/2000/svg" data-fui-icon="true">
  <path
    fill-rule="evenodd"
    clip-rule="evenodd"
    d="M6.62957 0.661133C8.28039 0.661213 9.2662 1.26331 9.76824 2.10742C9.83993 2.22803 9.89801 2.3504 9.94695 2.4707C10.7006 2.85882 11.1283 3.41412 11.3473 3.96484C11.5801 4.55025 11.5599 5.0822 11.5348 5.31934C11.5274 5.3893 11.518 5.45637 11.5104 5.5127V5.5166C11.465 5.8565 11.2742 6.85648 10.5016 7.7832C9.70161 8.74249 8.35136 9.53414 6.16863 9.53418H5.86101L5.59539 10.8652C5.48212 11.4311 4.98503 11.8389 4.40789 11.8389L2.93621 11.8379C2.22571 11.8378 1.69512 11.1845 1.84148 10.4893L1.84832 10.4561H1.55925C0.843667 10.456 0.311358 9.79327 0.466479 9.09473L2.05046 1.96973C2.22068 1.20526 2.89905 0.661149 3.6823 0.661133H6.62957ZM9.99773 4.6543C9.8628 5.07039 9.60224 5.63288 9.09441 6.16504C8.28545 7.01267 6.9436 7.69141 4.78582 7.69141H4.44988L3.98796 9.53906C3.90586 9.8672 3.69313 10.1341 3.41472 10.2939L3.40593 10.3379H4.17058L4.43718 9.00781L4.46257 8.90332C4.61261 8.39233 5.08366 8.0342 5.62468 8.03418H6.16863C7.9446 8.03414 8.85792 7.41236 9.34929 6.82324C9.86732 6.20201 9.99624 5.51849 10.0231 5.31738L10.0241 5.31348C10.032 5.25423 10.0378 5.20731 10.0427 5.16113C10.0518 5.0741 10.0591 4.87739 9.99773 4.6543ZM3.6823 2.16113C3.60194 2.16115 3.53186 2.21749 3.51433 2.2959L2.03484 8.95605H2.58757L3.04949 7.1084L3.07878 7.00879C3.24519 6.52337 3.70359 6.19142 4.22429 6.19141H4.78582C6.60643 6.19141 7.5302 5.63198 8.00945 5.12988C8.50786 4.60759 8.62313 4.04458 8.64421 3.9043C8.64972 3.86762 8.65458 3.83122 8.65886 3.79297C8.67537 3.64496 8.68891 3.22837 8.4782 2.87402C8.30797 2.58794 7.88367 2.16121 6.62957 2.16113H3.6823Z"
    fill="currentColor"
  />
</svg>
