<svg width="12" height="12" viewBox="0 0 12 12" fill="none" xmlns="http://www.w3.org/2000/svg" data-fui-icon="true">
  <g clip-path="url(#clip0_882_251)">
    <path
      d="M6.63025 0.661133C8.28107 0.661213 9.26688 1.26331 9.76892 2.10742C9.84062 2.22803 9.89869 2.3504 9.94763 2.4707C10.7013 2.85882 11.129 3.41412 11.348 3.96484C11.5808 4.55025 11.5606 5.0822 11.5355 5.31934C11.5281 5.3893 11.5186 5.45637 11.5111 5.5127V5.5166C11.4656 5.8565 11.2749 6.85648 10.5023 7.7832C9.70229 8.74249 8.35205 9.53414 6.16931 9.53418H5.86169L5.59607 10.8652C5.4828 11.4311 4.98571 11.8389 4.40857 11.8389L2.93689 11.8379C2.22639 11.8378 1.6958 11.1845 1.84216 10.4893L1.849 10.4561H1.55994C0.844351 10.456 0.312042 9.79327 0.467163 9.09473L2.05115 1.96973C2.22137 1.20526 2.89974 0.661149 3.68298 0.661133H6.63025ZM9.99841 4.6543C9.86349 5.07039 9.60292 5.63288 9.09509 6.16504C8.28613 7.01267 6.94428 7.69141 4.7865 7.69141H4.45056L3.98865 9.53906C3.90655 9.8672 3.69381 10.1341 3.41541 10.2939L3.40662 10.3379H4.17126L4.43787 9.00781L4.46326 8.90332C4.61329 8.39233 5.08434 8.0342 5.62537 8.03418H6.16931C7.94528 8.03414 8.8586 7.41236 9.34998 6.82324C9.86801 6.20201 9.99693 5.51849 10.0238 5.31738L10.0248 5.31348C10.0327 5.25423 10.0384 5.20731 10.0433 5.16113C10.0525 5.0741 10.0598 4.87739 9.99841 4.6543ZM3.68298 2.16113C3.60262 2.16115 3.53255 2.21749 3.51501 2.2959L2.03552 8.95605H2.58826L3.05017 7.1084L3.07947 7.00879C3.24587 6.52337 3.70427 6.19142 4.22498 6.19141H4.7865C6.60712 6.19141 7.53089 5.63198 8.01013 5.12988C8.50854 4.60759 8.62382 4.04458 8.6449 3.9043C8.6504 3.86762 8.65527 3.83122 8.65955 3.79297C8.67605 3.64496 8.68959 3.22837 8.47888 2.87402C8.30866 2.58794 7.88435 2.16121 6.63025 2.16113H3.68298Z"
      fill="currentColor"
    />
  </g>
  <defs>
    <clipPath id="clip0_882_251"><path fill="currentColor" d="M0 0H12V12H0z" /></clipPath>
  </defs>
</svg>
