<svg width="20" height="20" viewBox="0 0 20 20" fill="none" xmlns="http://www.w3.org/2000/svg" data-fui-icon="true">
  <path
    fill-rule="evenodd"
    clip-rule="evenodd"
    d="M11.0496 1.60254C13.6692 1.60259 15.1243 2.54753 15.8504 3.76855C15.9907 4.0046 16.0989 4.24403 16.1824 4.47852C17.4354 5.07197 18.1119 5.94533 18.449 6.79297C18.7959 7.6654 18.7654 8.46158 18.7283 8.8125C18.7168 8.92138 18.7029 9.02702 18.6902 9.12207L18.6892 9.12793C18.6197 9.6481 18.3224 11.2102 17.1189 12.6533C15.8884 14.1287 13.7834 15.3906 10.281 15.3906H9.3748C9.36637 15.3907 9.35898 15.397 9.35722 15.4053L8.83671 18.0107C8.69468 18.7202 8.071 19.2315 7.34745 19.2314H4.89433C4.02786 19.2314 3.38115 18.4338 3.55937 17.5859L3.69804 16.9277H2.59843C1.72586 16.9275 1.07826 16.1185 1.26737 15.2666L3.90605 3.39258C4.13856 2.34673 5.06609 1.60255 6.13749 1.60254H11.0496ZM16.4187 6.54395C16.409 6.63113 16.3978 6.7175 16.3846 6.80566C16.315 7.26783 16.0151 8.65499 14.7967 9.93164C13.5583 11.229 11.4608 12.3193 7.97733 12.3193H7.04081C7.03254 12.3193 7.02524 12.325 7.02323 12.333L6.16191 15.7773C6.04098 16.2606 5.69529 16.6392 5.2537 16.8164L5.06132 17.7314H7.34745C7.35595 17.7314 7.36323 17.7251 7.36503 17.7168L7.88651 15.1113C8.02843 14.4019 8.65129 13.8907 9.3748 13.8906H10.281C13.3768 13.8906 15.0447 12.7977 15.9666 11.6924C16.9147 10.5556 17.1508 9.31179 17.2019 8.92969L17.2029 8.92383C17.216 8.82571 17.2271 8.74034 17.2361 8.65527C17.2592 8.43753 17.2792 7.91078 17.0555 7.34766C16.9378 7.05173 16.7464 6.73004 16.4285 6.42871C16.4249 6.47222 16.4224 6.51125 16.4187 6.54395ZM6.13749 3.10254C5.76917 3.10255 5.44995 3.35828 5.36991 3.71777L2.76737 15.4277H4.68925C4.69728 15.4277 4.70457 15.4217 4.70683 15.4141L5.56816 11.9688C5.73715 11.2931 6.34429 10.8193 7.04081 10.8193H7.97733C11.124 10.8193 12.8031 9.84748 13.7117 8.89551C14.6393 7.92361 14.8574 6.87317 14.9012 6.58203C14.9114 6.51395 14.9207 6.44677 14.9285 6.37695C14.9602 6.09308 14.9959 5.26625 14.5613 4.53516C14.1671 3.87228 13.2728 3.10259 11.0496 3.10254H6.13749Z"
    fill="currentColor"
  />
</svg>
