<svg width="16" height="16" viewBox="0 0 16 16" fill="none" xmlns="http://www.w3.org/2000/svg" data-fui-icon="true">
  <path
    fill-rule="evenodd"
    clip-rule="evenodd"
    d="M8.83857 1.13184C10.9739 1.13184 12.1952 1.90492 12.8093 2.9375C12.9156 3.11632 12.9993 3.29762 13.0661 3.47559C14.0676 3.96647 14.6201 4.67979 14.8981 5.37891C15.1879 6.10773 15.1617 6.77135 15.1306 7.06543L15.0993 7.31738V7.32227C15.0418 7.75222 14.7976 9.03363 13.8093 10.2188C12.7939 11.4359 11.0666 12.4629 8.22431 12.4629H7.61103L7.21552 14.4385C7.08779 15.0759 6.52773 15.535 5.87763 15.5352H3.91474C3.12647 15.5348 2.53759 14.8085 2.6999 14.0371L2.77216 13.6914H2.0788C1.28484 13.6911 0.693778 12.9558 0.865914 12.1807L2.97724 2.68164C3.17839 1.77646 3.98168 1.13215 4.90888 1.13184H8.83857ZM13.2507 5.48828C13.1866 5.89467 12.9307 7.01603 11.945 8.04883C10.9213 9.12106 9.20154 10.0048 6.38154 10.0049H5.73798L5.0749 12.6582C4.97315 13.065 4.69359 13.389 4.33271 13.5596L4.2331 14.0352H5.7663L6.16084 12.0596L6.19013 11.9424C6.35894 11.3666 6.88927 10.9633 7.49873 10.9629H8.22431C10.6601 10.9629 11.9513 10.105 12.6579 9.25781C13.391 8.37864 13.573 7.41443 13.612 7.12305L13.613 7.11914C13.6235 7.04022 13.6324 6.97396 13.6394 6.9082C13.6564 6.74728 13.6704 6.35321 13.5036 5.93359C13.447 5.79132 13.3663 5.63975 13.2507 5.48828ZM4.90888 2.63184C4.68476 2.63215 4.49075 2.78801 4.44209 3.00684L2.40107 12.1914H3.64423L4.3083 9.53809L4.3415 9.42676C4.52882 8.87981 5.04499 8.50525 5.63154 8.50488H6.38154C8.86471 8.50478 10.1661 7.73964 10.8601 7.0127C11.5731 6.26556 11.7397 5.45887 11.7722 5.24316C11.78 5.19073 11.7866 5.13906 11.7927 5.08496C11.8168 4.86918 11.8421 4.24703 11.5192 3.7041C11.2369 3.22967 10.577 2.63184 8.83857 2.63184H4.90888Z"
    fill="currentColor"
  />
</svg>
