<svg
  width="32"
  height="32"
  viewBox="0 0 32 32"
  fill="none"
  xmlns="http://www.w3.org/2000/svg"
  data-fui-icon="true"
>
  <path
    d="M7.3961 25.8829L6.86956 28.384C6.74093 28.995 7.20711 29.5695 7.83152 29.5696L11.7568 29.5698C12.3426 29.5698 12.847 29.1563 12.9619 28.5819L13.7956 24.4131C13.9105 23.8387 14.4148 23.4252 15.0006 23.4252H16.4509C27.0084 23.4252 28.5208 15.8875 28.7135 14.4456L28.7148 14.4362C28.7355 14.2813 28.7558 14.1294 28.7723 13.9739C28.8686 13.0642 28.9327 9.74183 25.0529 8.10428M7.50367 25.8832H4.15878C3.52985 25.8832 3.06267 25.3008 3.1991 24.6868L7.42102 5.68818C7.67091 4.56368 8.66829 3.76361 9.82023 3.76361H17.6796C25.4287 3.76361 25.1999 9.2484 25.0783 10.3362C25.0642 10.4621 25.0484 10.5843 25.0296 10.7096C24.8487 11.913 23.3736 18.51 12.7642 18.51H11.2659C10.702 18.51 10.2105 18.8938 10.0737 19.4408L8.69584 24.9524C8.55908 25.4994 8.06756 25.8832 7.50367 25.8832Z"
    stroke="currentColor"
    stroke-width="1.5"
    stroke-linecap="round"
    stroke-linejoin="round"
  />
</svg>
