<svg width="16" height="16" viewBox="0 0 16 16" fill="none" xmlns="http://www.w3.org/2000/svg" data-fui-icon="true">
  <path
    fill-rule="evenodd"
    clip-rule="evenodd"
    d="M11.5731 1C12.4451 1.00003 13.2817 1.34642 13.8983 1.96289L14.037 2.10156C14.6535 2.71818 14.9999 3.55482 14.9999 4.42676C14.9998 5.31568 14.6397 6.167 14.0019 6.78613L6.27236 14.2881C6.15546 14.4016 6.00433 14.4739 5.84268 14.4941L1.84268 14.9941C1.61314 15.0228 1.38322 14.9438 1.21963 14.7803C1.05605 14.6167 0.977162 14.3868 1.00576 14.1572L1.50576 10.1572L1.53018 10.0381C1.56436 9.92198 1.62668 9.81525 1.71182 9.72754L7.61709 3.64258C7.64928 3.58666 7.68648 3.53218 7.73428 3.48438C7.77743 3.44123 7.826 3.40641 7.87588 3.37598L9.21377 1.99805C9.83294 1.36014 10.6842 1.0001 11.5731 1ZM2.96279 10.5918L2.61318 13.3857L5.40713 13.0361L10.8974 7.70801L8.29092 5.10156L2.96279 10.5918ZM11.5731 2.5C11.0898 2.5001 10.6266 2.6961 10.2899 3.04297L9.33584 4.02441L11.9735 6.66309L12.9569 5.70996C13.3038 5.37331 13.4998 4.91009 13.4999 4.42676C13.4999 3.95265 13.3116 3.49743 12.9765 3.16211L12.8378 3.02344C12.5025 2.68827 12.0473 2.50003 11.5731 2.5Z"
    fill="currentColor"
  />
</svg>
