<svg width="12" height="12" viewBox="0 0 12 12" fill="none" xmlns="http://www.w3.org/2000/svg" data-fui-icon="true">
  <path
    fill-rule="evenodd"
    clip-rule="evenodd"
    d="M9.06225 0C9.78115 7.62439e-05 10.4708 0.285687 10.9792 0.793945L11.2058 1.02051C11.714 1.52897 11.9997 2.21857 11.9997 2.9375C11.9997 3.65644 11.7141 4.34604 11.2058 4.85449L4.78002 11.2803C4.66543 11.3948 4.51658 11.4691 4.35619 11.4922L0.856192 11.9922C0.62257 12.0256 0.386389 11.9471 0.219473 11.7803C0.0525476 11.6133 -0.0258262 11.3772 0.00755889 11.1436L0.507559 7.64355C0.53057 7.48307 0.604835 7.33438 0.719473 7.21973L7.14525 0.793945C7.65373 0.28572 8.34331 0 9.06225 0ZM1.9558 8.10352L1.63256 10.3662L3.89525 10.043L8.1892 5.75L6.24975 3.81055L1.9558 8.10352ZM9.06225 1.5C8.74113 1.5 8.43298 1.62757 8.2058 1.85449L7.31029 2.75L9.24975 4.68945L10.1453 3.79395C10.3722 3.56679 10.4997 3.25861 10.4997 2.9375C10.4997 2.61639 10.3722 2.30821 10.1453 2.08105L9.91869 1.85449C9.69157 1.62754 9.38333 1.50008 9.06225 1.5Z"
    fill="currentColor"
  />
</svg>
