<svg width="24" height="24" viewBox="0 0 24 24" fill="none" xmlns="http://www.w3.org/2000/svg" data-fui-icon="true">
  <path
    d="M17.8125 1C19.0116 1.00008 20.1618 1.47643 21.0098 2.32422L21.6758 2.99023C22.5236 3.83826 23 4.98838 23 6.1875C23 7.38663 22.5236 8.53675 21.6758 9.38477L9.28027 21.7803C9.16568 21.8948 9.01683 21.9691 8.85645 21.9922L1.85645 22.9922C1.62282 23.0256 1.38664 22.9471 1.21973 22.7803C1.0528 22.6133 0.974427 22.3773 1.00781 22.1436L2.00781 15.1436L2.03418 15.0264C2.07015 14.9112 2.1336 14.8059 2.21973 14.7197L14.6143 2.32422C15.4623 1.47621 16.6132 1 17.8125 1ZM3.45605 15.6035L2.63281 21.3662L8.39551 20.543L17.4395 11.5L12.5 6.56055L3.45605 15.6035ZM17.8125 2.5C17.0112 2.5 16.2425 2.81832 15.6758 3.38477L13.5605 5.5L18.5 10.4395L20.6152 8.32422C21.1817 7.75751 21.5 6.9888 21.5 6.1875C21.5 5.3862 21.1817 4.6175 20.6152 4.05078L19.9492 3.38477C19.3825 2.81828 18.6138 2.50008 17.8125 2.5Z"
    fill="currentColor"
  />
</svg>
