<svg width="12" height="12" viewBox="0 0 12 12" fill="none" xmlns="http://www.w3.org/2000/svg" data-fui-icon="true">
  <path
    d="M9.0625 0C9.78141 7.62439e-05 10.4711 0.285687 10.9795 0.793945L11.2061 1.02051C11.7143 1.52897 12 2.21857 12 2.9375C12 3.65644 11.7143 4.34604 11.2061 4.85449L4.78027 11.2803C4.66568 11.3948 4.51683 11.4691 4.35645 11.4922L0.856445 11.9922C0.622823 12.0256 0.386643 11.9471 0.219727 11.7803C0.0528013 11.6133 -0.0255726 11.3772 0.0078125 11.1436L0.507812 7.64355C0.530824 7.48307 0.605088 7.33438 0.719727 7.21973L7.14551 0.793945C7.65399 0.28572 8.34356 0 9.0625 0ZM1.95605 8.10352L1.63281 10.3662L3.89551 10.043L8.18945 5.75L6.25 3.81055L1.95605 8.10352ZM9.0625 1.5C8.74139 1.5 8.43323 1.62757 8.20605 1.85449L7.31055 2.75L9.25 4.68945L10.1455 3.79395C10.3725 3.56679 10.5 3.25861 10.5 2.9375C10.5 2.61639 10.3724 2.30821 10.1455 2.08105L9.91895 1.85449C9.69182 1.62754 9.38358 1.50008 9.0625 1.5Z"
    fill="currentColor"
  />
</svg>
