<svg width="32" height="32" viewBox="0 0 32 32" fill="none" xmlns="http://www.w3.org/2000/svg" data-fui-icon="true">
  <path
    d="M23.5625 2C25.0818 2.00001 26.5389 2.60362 27.6133 3.67773L28.3223 4.38574C29.3967 5.46019 30 6.91798 30 8.4375C30 9.95681 29.3965 11.4139 28.3223 12.4883L12.2803 28.5303C12.1649 28.6456 12.0151 28.7207 11.8535 28.7432L2.85352 29.9932C2.62081 30.0254 2.38586 29.9464 2.21973 29.7803C2.05363 29.6141 1.97452 29.3792 2.00684 29.1465L3.25684 20.1465C3.27933 19.9849 3.35443 19.8351 3.46973 19.7197L19.5107 3.67773C20.5851 2.60333 22.0431 2.00007 23.5625 2ZM4.70801 20.6016L3.62891 28.3701L11.3975 27.291L23.3145 15.375L16.625 8.68555L4.70801 20.6016ZM23.5625 3.5C22.4411 3.50007 21.3653 3.94547 20.5723 4.73828L17.6855 7.625L24.375 14.3145L27.2617 11.4277C28.0546 10.6346 28.5 9.55899 28.5 8.4375C28.5 7.31601 28.0546 6.24037 27.2617 5.44727L26.5527 4.73828C25.7596 3.94547 24.6839 3.50001 23.5625 3.5Z"
    fill="currentColor"
  />
</svg>
