<svg width="13" height="12" viewBox="0 0 13 12" fill="none" xmlns="http://www.w3.org/2000/svg" data-fui-icon="true">
  <path
    fill-rule="evenodd"
    clip-rule="evenodd"
    d="M4.24986 7.25C6.45847 7.25 8.10215 8.47371 8.43931 10.3232C8.62343 11.3337 7.76633 12 6.99986 12H1.49986C0.73347 11.9998 -0.123659 11.3335 0.0604046 10.3232L0.0955608 10.1514C0.500616 8.39824 2.11045 7.2501 4.24986 7.25ZM9.5399 9.54297C9.26724 8.61384 9.94807 7.50305 10.6776 8.13965C11.3382 8.71622 11.7986 9.47024 11.9696 10.3018C12.1807 11.3305 11.3003 11.9996 10.5409 12C10.0131 12 9.66323 11.3745 9.70884 10.8486C9.72404 10.6737 9.72261 10.4902 9.70103 10.2988L9.67564 10.1182C9.66948 10.0826 9.66129 10.047 9.65415 10.0117C9.65291 10.0055 9.65764 10.0001 9.66392 10C9.67219 10 9.67682 9.98992 9.67173 9.9834C9.66322 9.9725 9.65403 9.96207 9.64537 9.95117C9.64234 9.94737 9.6405 9.94225 9.63951 9.9375C9.61155 9.80439 9.57801 9.67285 9.5399 9.54297ZM4.24986 9.25C3.28162 9.25006 2.67361 9.57376 2.33775 10H6.16197C5.82605 9.57378 5.21816 9.25 4.24986 9.25ZM4.24986 0.25C6.04478 0.25 7.49986 1.70507 7.49986 3.5C7.49986 5.29493 6.04478 6.75 4.24986 6.75C2.45506 6.74985 0.999858 5.29483 0.999858 3.5C0.999858 1.70517 2.45506 0.250152 4.24986 0.25ZM8.87779 2.42383C8.67415 1.54617 9.30196 0.624773 9.91685 1.2832C10.4588 1.86358 10.7908 2.64324 10.7909 3.5C10.7908 4.35823 10.4575 5.13891 9.91392 5.71973C9.2985 6.37707 8.6725 5.4562 8.87681 4.5791C8.95762 4.23267 9.0008 3.87114 9.00083 3.5C9.00081 3.12995 8.95798 2.76945 8.87779 2.42383ZM4.24986 2.25C3.55963 2.25015 2.99986 2.80974 2.99986 3.5C2.99986 4.19026 3.55963 4.74985 4.24986 4.75C4.94021 4.75 5.49986 4.19036 5.49986 3.5C5.49986 2.80964 4.94021 2.25 4.24986 2.25Z"
    fill="currentColor"
  />
</svg>
