<svg width="13" height="12" viewBox="0 0 13 12" fill="none" xmlns="http://www.w3.org/2000/svg" data-fui-icon="true">
  <path
    fill-rule="evenodd"
    clip-rule="evenodd"
    d="M4.24986 7.25C6.45847 7.25 8.10215 8.47371 8.43931 10.3232C8.62343 11.3337 7.76633 12 6.99986 12H1.49986C0.73347 11.9998 -0.123658 11.3335 0.0604045 10.3232L0.0955608 10.1514C0.500616 8.39824 2.11045 7.2501 4.24986 7.25ZM9.5399 9.54297C9.2675 8.61372 9.94907 7.50283 10.6786 8.13965C11.3392 8.71642 11.7986 9.47028 11.9696 10.3018C12.1809 11.3306 11.3003 11.9995 10.5409 12C10.0129 11.9997 9.66317 11.3738 9.70884 10.8477C9.72872 10.6185 9.71914 10.3751 9.67466 10.1182C9.66854 10.0828 9.66125 10.0478 9.65415 10.0127C9.65288 10.0064 9.65753 10.0002 9.66392 10C9.67241 10 9.6779 9.99009 9.67271 9.9834C9.66365 9.97191 9.65357 9.96069 9.64439 9.94922C9.64131 9.94531 9.63955 9.94042 9.63853 9.93555C9.61067 9.80315 9.57777 9.67218 9.5399 9.54297ZM4.24986 0.25C6.04478 0.25 7.49986 1.70507 7.49986 3.5C7.49986 5.29493 6.04478 6.75 4.24986 6.75C2.45506 6.74985 0.999858 5.29483 0.999858 3.5C0.999858 1.70517 2.45506 0.250152 4.24986 0.25ZM8.87681 2.42188C8.67303 1.54446 9.30062 0.623288 9.91587 1.28125C10.4589 1.86203 10.7909 2.64229 10.7909 3.5C10.7908 4.3592 10.4577 5.14063 9.91294 5.72168C9.29692 6.37871 8.6709 5.45715 8.87583 4.58008C8.9569 4.23324 8.99985 3.87171 8.99986 3.5C8.99985 3.12922 8.9573 2.7681 8.87681 2.42188Z"
    fill="currentColor"
  />
</svg>
