<svg width="32" height="32" viewBox="0 0 32 32" fill="none" xmlns="http://www.w3.org/2000/svg" data-fui-icon="true">
  <path
    fill-rule="evenodd"
    clip-rule="evenodd"
    d="M11.5002 19.1973C16.2464 19.1974 20.1027 22.1487 21.5051 25.5234C21.8895 26.4485 21.6605 27.3547 21.1008 27.9971C20.5581 28.6198 19.717 28.9911 18.8254 28.9912H4.25023C3.35863 28.9911 2.51743 28.6203 1.97386 27.998C1.41379 27.3567 1.18188 26.4512 1.56077 25.5254C2.9428 22.1511 6.75187 19.1974 11.5002 19.1973ZM23.0451 20.25C26.8763 20.2501 29.8997 23.0728 30.9319 26.0352C31.211 26.8364 30.9937 27.6075 30.51 28.1514C30.0398 28.6799 29.3281 28.9912 28.5744 28.9912H22.2239C22.2264 28.9883 22.2291 28.9853 22.2317 28.9824C23.1296 27.9517 23.5131 26.4483 22.8899 24.9482C22.2723 23.4621 21.2579 22.0651 19.9475 20.9004C20.8902 20.4896 21.9317 20.2501 23.0451 20.25ZM22.7502 8.5C25.2355 8.50006 27.2502 10.5148 27.2502 13C27.2502 15.4852 25.2355 17.4999 22.7502 17.5C20.6032 17.4999 18.8087 15.996 18.3596 13.9844C19.1395 12.7613 19.5992 11.316 19.6252 9.76367C20.4347 8.98187 21.536 8.50003 22.7502 8.5ZM11.5041 3C15.163 3 18.1291 5.96611 18.1291 9.625C18.1291 13.2839 15.163 16.25 11.5041 16.25C7.84538 16.2498 4.87913 13.2838 4.87913 9.625C4.87913 5.96621 7.84538 3.00016 11.5041 3Z"
    fill="currentColor"
  />
</svg>
