<svg width="32" height="32" viewBox="0 0 32 32" fill="none" xmlns="http://www.w3.org/2000/svg" data-fui-icon="true">
  <path
    d="M24.1484 20.416C25.7829 20.4162 27.4969 21.5769 28.7471 23.0068C30.0146 24.4568 30.9971 26.3974 30.9971 28.251C30.9968 28.6648 30.6609 29.0007 30.2471 29.001C29.8332 29.0008 29.4974 28.6648 29.4971 28.251C29.4971 26.8846 28.7434 25.2813 27.6182 23.9941C26.4755 22.6872 25.139 21.9163 24.1484 21.916C23.7343 21.916 23.3986 21.5801 23.3984 21.166C23.3984 20.7518 23.7342 20.416 24.1484 20.416ZM11.5 19.1973C14.495 19.1974 17.1272 20.3723 19.0117 22.0723C20.885 23.7621 22.0751 26.0253 22.0752 28.2412C22.0752 28.6552 21.7391 28.9908 21.3252 28.9912C20.911 28.9912 20.5752 28.6554 20.5752 28.2412C20.5751 26.5501 19.6477 24.6658 18.0068 23.1855C16.3772 21.7156 14.0967 20.6974 11.5 20.6973C8.9038 20.6973 6.64328 21.7155 5.0332 23.1836C3.41238 24.6615 2.50006 26.5455 2.5 28.2412C2.49999 28.6553 2.1641 28.9911 1.75 28.9912C1.33579 28.9912 1.00001 28.6554 1 28.2412C1.00006 26.0299 2.16672 23.7674 4.02246 22.0752C5.88919 20.3731 8.50411 19.1973 11.5 19.1973ZM22.6719 8.43652C25.1887 8.43675 27.2329 10.4717 27.2334 12.9863C27.2334 15.5014 25.189 17.5369 22.6719 17.5371C21.7459 17.5371 20.8817 17.2606 20.1611 16.7861C19.8155 16.5583 19.7196 16.0939 19.9473 15.748C20.175 15.4024 20.6395 15.3068 20.9854 15.5342C21.4683 15.8522 22.0477 16.0371 22.6719 16.0371C24.365 16.0369 25.7334 14.6686 25.7334 12.9863C25.7329 11.3045 24.3646 9.93675 22.6719 9.93652C22.2578 9.93639 21.9219 9.60066 21.9219 9.18652C21.9221 8.77261 22.2579 8.43666 22.6719 8.43652ZM11.5049 3C15.1636 3.0002 18.1299 5.96624 18.1299 9.625C18.1299 13.2837 15.1636 16.2498 11.5049 16.25C7.84602 16.25 4.87992 13.2839 4.87988 9.625C4.87988 5.96611 7.846 3 11.5049 3ZM11.5049 4.5C8.67442 4.5 6.37988 6.79454 6.37988 9.625C6.37992 12.4554 8.67444 14.75 11.5049 14.75C14.3352 14.7498 16.6298 12.4553 16.6299 9.625C16.6299 6.79466 14.3352 4.5002 11.5049 4.5Z"
    fill="currentColor"
  />
</svg>
