<svg width="20" height="20" viewBox="0 0 20 20" fill="none" xmlns="http://www.w3.org/2000/svg" data-fui-icon="true">
  <path
    d="M5.28015 9.71216C2.48583 10.4329 1.34226 12.4965 0.874258 14.0648C0.507308 15.2945 0.951106 16.608 2.09137 17.1967C3.13269 17.7343 4.78662 18.25 7.30005 18.25C9.61547 18.25 11.2015 17.8124 12.2511 17.3231C13.5745 16.7062 14.0349 15.177 13.4786 13.8269C12.8471 12.2942 11.5349 10.397 8.83409 9.71216"
    stroke="currentColor"
    stroke-width="1.5"
  />
  <path
    d="M16.2542 14.3348C15.8629 14.4706 15.6557 14.8979 15.7915 15.2892C15.9272 15.6806 16.3545 15.8877 16.7459 15.752L16.2542 14.3348ZM14.585 9.44382C16.3441 9.84011 17.2479 10.8584 17.7274 11.7531L19.0495 11.0446C18.406 9.84383 17.1774 8.49027 14.9147 7.9805L14.585 9.44382ZM17.1741 13.9209C16.9197 14.0664 16.6154 14.2095 16.2542 14.3348L16.7459 15.752C17.1953 15.596 17.5842 15.4143 17.9186 15.2231L17.1741 13.9209ZM17.7274 11.7531C18.1625 12.565 17.9053 13.5028 17.1741 13.9209L17.9186 15.2231C19.4225 14.3632 19.8307 12.5021 19.0495 11.0446L17.7274 11.7531Z"
    fill="currentColor"
  />
  <circle cx="7.05" cy="6" r="4" stroke="currentColor" stroke-width="1.5" />
  <path
    d="M13.5 9C15.1569 9 16.5 7.65685 16.5 6C16.5 4.34315 15.1569 3 13.5 3C13.3297 3 13.1626 3.0142 13 3.04148"
    stroke="currentColor"
    stroke-width="1.5"
    stroke-linecap="round"
  />
</svg>
