<svg width="24" height="24" viewBox="0 0 24 24" fill="none" xmlns="http://www.w3.org/2000/svg" data-fui-icon="true">
  <path
    fill-rule="evenodd"
    clip-rule="evenodd"
    d="M9.49962 13.5C13.7534 13.5003 16.9781 16.3238 17.7975 19.4619C18.1896 20.9643 16.8797 21.9995 15.6998 22H3.29943C2.11931 21.9999 0.809474 20.9646 1.20177 19.4619C2.02129 16.3237 5.24558 13.5 9.49962 13.5ZM19.152 16.8232C18.6527 15.9015 19.4095 14.732 20.2477 15.3613C21.6942 16.4481 22.7354 17.9065 23.1666 19.4482C23.364 20.1552 23.1489 20.8266 22.7242 21.292C22.3131 21.7419 21.7131 21.9998 21.0856 22C20.4193 22 19.9795 21.2577 20.0768 20.5986C20.1555 20.0647 20.1308 19.4911 19.9752 18.8945C19.7885 18.1795 19.5102 17.4844 19.152 16.8232ZM9.49962 1.75C12.3988 1.75034 14.7496 4.10072 14.7496 7C14.7496 9.89928 12.3988 12.2497 9.49962 12.25C6.60013 12.25 4.24962 9.8995 4.24962 7C4.24962 4.10051 6.60013 1.75 9.49962 1.75ZM16.2926 3.82031C15.9078 3.00022 16.4762 2.00075 17.2604 2.4541C18.8291 3.3615 19.8852 5.05714 19.8854 7C19.8852 8.94414 18.8279 10.6418 17.2574 11.5488C16.4731 12.0016 15.9052 11.0014 16.2906 10.1816C16.7446 9.21608 16.9996 8.13778 16.9996 7C16.9996 5.86314 16.7456 4.7856 16.2926 3.82031Z"
    fill="currentColor"
  />
</svg>
