<svg width="24" height="24" viewBox="0 0 24 24" fill="none" xmlns="http://www.w3.org/2000/svg" data-fui-icon="true">
  <g clip-path="url(#clip0_2825_111)">
    <path
      d="M18.4355 15.7188C19.7959 15.719 21.189 16.6843 22.1865 17.833C23.2021 19.0027 24.001 20.5789 24.001 22.1006C24.0008 22.5145 23.6649 22.8503 23.251 22.8506C22.8369 22.8506 22.5012 22.5146 22.501 22.1006C22.501 21.0628 21.9282 19.8225 21.0547 18.8164C20.1631 17.7896 19.1478 17.219 18.4355 17.2188C18.0214 17.2188 17.6857 16.8829 17.6855 16.4688C17.6855 16.0545 18.0213 15.7188 18.4355 15.7188ZM8.50098 14.75C10.9092 14.7501 13.0234 15.7015 14.5361 17.0771C16.0377 18.4428 17.0008 20.2801 17.001 22.0928C17.001 22.5068 16.665 22.8425 16.251 22.8428C15.8368 22.8428 15.501 22.507 15.501 22.0928C15.5008 20.7999 14.7963 19.3407 13.5273 18.1865C12.2691 17.0423 10.5077 16.2501 8.50098 16.25C6.49418 16.25 4.73292 17.0423 3.47461 18.1865C2.20547 19.3407 1.50114 20.7998 1.50098 22.0928C1.50098 22.5068 1.16497 22.8425 0.750977 22.8428C0.336763 22.8428 0.000976562 22.507 0.000976562 22.0928C0.00113441 20.28 0.964083 18.4428 2.46582 17.0771C3.97863 15.7015 6.09273 14.75 8.50098 14.75ZM17.2695 6.19629C19.3482 6.19655 21.029 7.88719 21.0293 9.9668C21.0293 12.0466 19.3484 13.738 17.2695 13.7383C16.5058 13.7382 15.7931 13.5087 15.1992 13.1152C14.854 12.8864 14.7594 12.4204 14.9883 12.0752C15.2172 11.7305 15.6823 11.6359 16.0273 11.8643C16.3834 12.1002 16.8098 12.2382 17.2695 12.2383C18.5147 12.238 19.5293 11.2235 19.5293 9.9668C19.529 8.71039 18.5146 7.69655 17.2695 7.69629C16.8555 7.69608 16.5195 7.36037 16.5195 6.94629C16.5196 6.53226 16.8555 6.1965 17.2695 6.19629ZM8.47559 1.87402C11.444 1.87408 13.8504 4.28067 13.8506 7.24902C13.8506 10.2175 11.4441 12.624 8.47559 12.624C5.50706 12.624 3.10059 10.2176 3.10059 7.24902C3.10075 4.28063 5.50716 1.87402 8.47559 1.87402ZM8.47559 3.37402C6.33558 3.37402 4.60075 5.10906 4.60059 7.24902C4.60059 9.38913 6.33548 11.124 8.47559 11.124C10.6156 11.124 12.3506 9.38909 12.3506 7.24902C12.3504 5.10909 10.6155 3.37408 8.47559 3.37402Z"
      fill="currentColor"
    />
  </g>
  <defs>
    <clipPath id="clip0_2825_111"><path fill="currentColor" d="M0 0H24V24H0z" /></clipPath>
  </defs>
</svg>
