<svg width="12" height="12" viewBox="0 0 12 12" fill="none" xmlns="http://www.w3.org/2000/svg" data-fui-icon="true">
  <path
    fill-rule="evenodd"
    clip-rule="evenodd"
    d="M4.24986 7.25C6.45847 7.25 8.10215 8.47371 8.43931 10.3232C8.62343 11.3337 7.76633 12 6.99986 12H1.49986C0.73347 11.9998 -0.123658 11.3335 0.0604045 10.3232L0.0955608 10.1514C0.500616 8.39824 2.11045 7.2501 4.24986 7.25ZM9.5399 9.54297C9.26746 8.61378 9.94927 7.50266 10.6786 8.13965C11.3388 8.71635 11.7976 9.47044 11.9686 10.3018C12.1799 11.3309 11.2995 12 10.5399 12C10.0124 11.9996 9.66301 11.3743 9.70884 10.8486C9.7288 10.6193 9.71917 10.3754 9.67466 10.1182C9.66851 10.0827 9.66127 10.047 9.65415 10.0117C9.65322 10.0057 9.65775 10 9.66392 10C9.67219 10 9.67682 9.9909 9.67173 9.98438C9.66311 9.97332 9.65414 9.9622 9.64537 9.95117C9.64246 9.94747 9.64051 9.94308 9.63951 9.93848C9.61152 9.80516 9.57805 9.67306 9.5399 9.54297ZM4.24986 0.25C6.04478 0.25 7.49986 1.70507 7.49986 3.5C7.49986 5.29493 6.04478 6.75 4.24986 6.75C2.45506 6.74985 0.999858 5.29483 0.999858 3.5C0.999858 1.70517 2.45506 0.250152 4.24986 0.25ZM8.87779 2.42285C8.67382 1.5453 9.30079 0.623913 9.91587 1.28223C10.4583 1.8629 10.7899 2.64266 10.7899 3.5C10.7898 4.35838 10.4576 5.13904 9.91392 5.71973C9.29832 6.37719 8.67233 5.45623 8.87681 4.5791C8.95764 4.23271 8.99985 3.87117 8.99986 3.5C8.99985 3.12948 8.95818 2.76885 8.87779 2.42285Z"
    fill="currentColor"
  />
</svg>
