<svg width="32" height="32" viewBox="0 0 32 32" fill="none" xmlns="http://www.w3.org/2000/svg" data-fui-icon="true">
  <path
    d="M11.251 18.5C16.865 18.5002 20.4868 22.3342 21.5186 26.0674C21.7401 26.8693 21.5014 27.6253 21.0146 28.1592C20.5381 28.6817 19.83 28.991 19.0762 28.9912H3.50098C2.74697 28.9911 2.03966 28.6813 1.5625 28.1592C1.07554 27.6261 0.834253 26.8721 1.05176 26.0703C2.06481 22.3388 5.63293 18.5001 11.251 18.5ZM20.6396 18.5C26.2537 18.5002 29.8754 22.3342 30.9072 26.0674C31.1288 26.8694 30.8901 27.6253 30.4033 28.1592C29.9267 28.6816 29.2186 28.991 28.4648 28.9912H24.0303C23.5441 28.9912 23.2346 28.4399 23.3877 27.9785C23.479 27.7036 23.7259 27.4912 24.0156 27.4912H28.4648C28.8148 27.491 29.1144 27.3462 29.2949 27.1484C29.4653 26.9616 29.5335 26.7293 29.4609 26.4668C28.5839 23.2939 25.4901 20.0002 20.6396 20C20.5737 20 20.5077 20.0005 20.4424 20.002C20.2396 20.0063 20.0456 19.9353 19.8965 19.7979C19.4167 19.3554 19.6161 18.526 20.2686 18.5059C20.3912 18.5021 20.515 18.5 20.6396 18.5ZM11.251 20C6.40494 20.0001 3.36186 23.2886 2.5 26.4629C2.4284 26.7267 2.49851 26.9598 2.66992 27.1475C2.85134 27.3459 3.15084 27.4911 3.50098 27.4912H19.0762C19.4262 27.491 19.7258 27.3462 19.9062 27.1484C20.0766 26.9616 20.1448 26.7293 20.0723 26.4668C19.1952 23.2939 16.1014 20.0002 11.251 20ZM11.251 3C14.8407 3.00016 17.751 5.91025 17.751 9.5C17.751 13.0897 14.8407 15.9998 11.251 16C7.66127 15.9998 4.75098 13.0897 4.75098 9.5C4.75098 5.91025 7.66127 3.00017 11.251 3ZM20.6396 3C24.2294 3.00009 27.1396 5.9102 27.1396 9.5C27.1396 13.0898 24.2294 15.9999 20.6396 16C19.8341 15.9999 19.0624 15.853 18.3506 15.585C17.9248 15.4243 17.8348 14.889 18.1045 14.5225C18.3173 14.2337 18.7031 14.1246 19.043 14.2393C19.5443 14.4084 20.0813 14.4999 20.6396 14.5C23.401 14.4999 25.6396 12.2614 25.6396 9.5C25.6396 6.73863 23.401 4.50009 20.6396 4.5C20.0809 4.50008 19.5428 4.59169 19.041 4.76074C18.7016 4.87492 18.3167 4.76573 18.1055 4.47656C17.8373 4.10947 17.9281 3.57425 18.3535 3.41406C19.0645 3.14665 19.8352 3.00009 20.6396 3ZM11.251 4.5C8.4897 4.50017 6.25098 6.73868 6.25098 9.5C6.25098 12.2613 8.4897 14.4998 11.251 14.5C14.0123 14.4998 16.251 12.2613 16.251 9.5C16.251 6.73868 14.0123 4.50016 11.251 4.5Z"
    fill="currentColor"
  />
</svg>
