<svg width="20" height="20" viewBox="0 0 20 20" fill="none" xmlns="http://www.w3.org/2000/svg" data-fui-icon="true">
  <path
    fill-rule="evenodd"
    clip-rule="evenodd"
    d="M8.00038 11.25C11.602 11.2501 14.2441 13.9671 14.8607 16.5879C15.125 17.712 14.1596 18.4999 13.2504 18.5H2.75038C1.84121 18.4998 0.875827 17.7119 1.14003 16.5879C1.75663 13.9671 4.39882 11.2502 8.00038 11.25ZM15.1498 13.6211C14.6683 12.9051 15.195 11.9282 15.9164 12.4014C17.4929 13.4358 18.5768 15.0285 18.9437 16.5879C19.208 17.7121 18.2427 18.5 17.3334 18.5H16.9848C16.5392 18.4998 16.2447 18.0089 16.3383 17.5732C16.4037 17.269 16.6531 17.0002 16.9642 17H17.3334C17.4063 17 17.4562 16.9692 17.4769 16.9473L17.4779 16.9463C17.4793 16.9447 17.4843 16.9327 17.4838 16.9307C17.2211 15.8151 16.4664 14.661 15.3695 13.8486C15.2829 13.7845 15.21 13.7105 15.1498 13.6211ZM8.00038 12.75C5.17642 12.7502 3.07676 14.9051 2.59999 16.9307C2.59746 16.9415 2.59946 16.9416 2.59803 16.9365C2.59719 16.9336 2.59823 16.9379 2.60682 16.9473C2.62734 16.9692 2.67715 16.9999 2.75038 17H13.2504C13.3236 17 13.3733 16.9692 13.3939 16.9473C13.3989 16.9419 13.4017 16.9382 13.4027 16.9365C13.4013 16.9415 13.4033 16.9415 13.4008 16.9307C12.924 14.9051 10.8244 12.7501 8.00038 12.75ZM8.00038 2C10.2095 2.00003 12.0004 3.79088 12.0004 6C12.0004 8.20912 10.2095 9.99997 8.00038 10C5.79139 9.99982 4.00038 8.20903 4.00038 6C4.00038 3.79097 5.79139 2.00018 8.00038 2ZM12.0834 2C14.2925 2 16.0834 3.79086 16.0834 6C16.0834 8.20914 14.2925 10 12.0834 10C11.9687 9.99971 11.9176 9.85888 11.9965 9.77539C12.3256 9.42677 12.6087 9.03475 12.8383 8.60938C12.9328 8.43416 13.0846 8.29699 13.2601 8.20312C14.0473 7.7826 14.5834 6.95496 14.5834 6C14.5834 5.04574 14.0483 4.2178 13.2621 3.79688C13.0866 3.7028 12.9348 3.56586 12.8402 3.39062C12.6103 2.96476 12.3262 2.57256 11.9965 2.22363C11.9176 2.14019 11.9687 2.00029 12.0834 2ZM8.00038 3.5C6.61982 3.50018 5.50038 4.6194 5.50038 6C5.50038 7.3806 6.61982 8.49982 8.00038 8.5C9.38106 8.49997 10.5004 7.38069 10.5004 6C10.5004 4.61931 9.38106 3.50003 8.00038 3.5Z"
    fill="currentColor"
  />
</svg>
