<svg width="24" height="24" viewBox="0 0 24 24" fill="none" xmlns="http://www.w3.org/2000/svg" data-fui-icon="true">
  <path
    d="M6.2761 11.6545C2.80966 12.5486 1.4602 15.1648 0.934855 17.0662C0.560316 18.4219 1.0886 19.8333 2.35995 20.4347C3.6035 21.0229 5.61072 21.6 8.69998 21.6C11.5783 21.6 13.5173 21.099 14.7745 20.5548C16.2283 19.9255 16.7735 18.3016 16.2059 16.8227C15.4864 14.9477 13.9185 12.511 10.5408 11.6545"
    stroke="currentColor"
    stroke-width="1.5"
  />
  <path
    d="M19.5542 17.3435C19.1628 17.4793 18.9557 17.9066 19.0914 18.2979C19.2272 18.6892 19.6545 18.8964 20.0458 18.7606L19.5542 17.3435ZM22.242 14.0311L21.5615 14.3464L22.242 14.0311ZM21.3924 17.28L21.8039 17.9071L21.3924 17.28ZM17.535 11.1863C19.8962 11.7182 21.0166 13.1705 21.5615 14.3464L22.9225 13.7157C22.233 12.2279 20.7873 10.3814 17.8647 9.72293L17.535 11.1863ZM20.981 16.653C20.6146 16.8934 20.1455 17.1384 19.5542 17.3435L20.0458 18.7606C20.7559 18.5143 21.336 18.2141 21.8039 17.9071L20.981 16.653ZM21.5615 14.3464C21.9642 15.2154 21.7123 16.1731 20.981 16.653L21.8039 17.9071C23.2252 16.9744 23.6023 15.1828 22.9225 13.7157L21.5615 14.3464Z"
    fill="currentColor"
  />
  <circle cx="8.4" cy="7.2" r="4.8" stroke="currentColor" stroke-width="1.5" />
  <path
    d="M16.2 10.8C18.1882 10.8 19.8 9.1882 19.8 7.19998C19.8 5.21175 18.1882 3.59998 16.2 3.59998C15.9956 3.59998 15.7951 3.61702 15.6 3.64975"
    stroke="currentColor"
    stroke-width="1.5"
    stroke-linecap="round"
  />
</svg>
