<svg width="12" height="12" viewBox="0 0 12 12" fill="none" xmlns="http://www.w3.org/2000/svg" data-fui-icon="true">
  <g clip-path="url(#clip0_2825_108)">
    <path
      d="M4.25 7.25C6.72903 7.25 8.5 9.32514 8.5 11.25C8.5 11.6642 8.16421 12 7.75 12C7.33579 12 7 11.6642 7 11.25C7 10.1415 5.88862 8.75 4.25 8.75C2.61138 8.75 1.5 10.1415 1.5 11.25C1.5 11.6642 1.16421 12 0.75 12C0.335786 12 0 11.6642 0 11.25C1.82795e-08 9.32514 1.77097 7.25 4.25 7.25ZM9 7.75C9.83546 7.75 10.5896 8.33526 11.0791 8.92969C11.5887 9.54859 12 10.3991 12 11.25C12 11.6642 11.6642 12 11.25 12C10.8358 12 10.5 11.6642 10.5 11.25C10.5 10.851 10.2862 10.3264 9.9209 9.88281C9.53549 9.4149 9.16451 9.25 9 9.25C8.58579 9.25 8.25 8.91421 8.25 8.5C8.25 8.08579 8.58579 7.75 9 7.75ZM8.75 2.5C9.99263 2.50001 11 3.50737 11 4.75C11 5.99263 9.99263 6.99999 8.75 7C8.34144 7 7.95572 6.89011 7.62402 6.69824C7.26588 6.49073 7.14337 6.0322 7.35059 5.67383C7.55799 5.31528 8.01743 5.193 8.37598 5.40039C8.48542 5.4636 8.61234 5.5 8.75 5.5C9.1642 5.49999 9.5 5.16421 9.5 4.75C9.5 4.36184 9.20511 4.04254 8.82715 4.00391L8.67285 3.99609C8.29488 3.95747 8 3.63817 8 3.25C8 2.83579 8.3358 2.50001 8.75 2.5ZM4.25 0.5C5.90685 0.5 7.25 1.84315 7.25 3.5C7.25 5.15685 5.90685 6.5 4.25 6.5C2.59315 6.5 1.25 5.15685 1.25 3.5C1.25 1.84315 2.59315 0.5 4.25 0.5ZM4.25 2C3.42157 2 2.75 2.67157 2.75 3.5C2.75 4.32843 3.42157 5 4.25 5C5.07843 5 5.75 4.32843 5.75 3.5C5.75 2.67157 5.07843 2 4.25 2Z"
      fill="currentColor"
    />
  </g>
  <defs>
    <clipPath id="clip0_2825_108"><path fill="currentColor" d="M0 0H12V12H0z" /></clipPath>
  </defs>
</svg>
