<svg width="16" height="16" viewBox="0 0 16 16" fill="none" xmlns="http://www.w3.org/2000/svg" data-fui-icon="true">
  <g clip-path="url(#clip0_4061_24)">
    <path
      d="M4.18411 7.76978C2.2684 8.26389 1.32253 9.54693 0.855508 10.6935C0.32496 11.996 0.912765 13.4397 2.24403 13.8932C3.07032 14.1747 4.22394 14.4 5.80002 14.4C7.2074 14.4 8.27793 14.2204 9.07932 13.9815C10.5974 13.5289 11.212 11.8661 10.4637 10.4698C9.88215 9.38442 8.84999 8.23196 7.02726 7.76978"
      stroke="currentColor"
      stroke-width="1.5"
    />
    <path
      d="M12.9542 11.3262C12.5629 11.4619 12.3557 11.8892 12.4915 12.2805C12.6272 12.6719 13.0545 12.8791 13.4459 12.7433L12.9542 11.3262ZM14.5088 8.77958L13.8823 9.19202L14.5088 8.77958ZM11.6351 7.70139C12.817 7.96765 13.4873 8.59209 13.8823 9.19202L15.1352 8.36714C14.5541 7.48454 13.5713 6.60001 11.9648 6.23806L11.6351 7.70139ZM13.3706 11.1583C13.2445 11.2169 13.1061 11.2735 12.9542 11.3262L13.4459 12.7433C13.6453 12.6741 13.8306 12.5986 14.0024 12.5188L13.3706 11.1583ZM13.8823 9.19202C14.3549 9.90968 14.0959 10.8215 13.3706 11.1583L14.0024 12.5188C15.6122 11.7712 16.0785 9.79992 15.1352 8.36714L13.8823 9.19202Z"
      fill="currentColor"
    />
    <circle cx="5.6" cy="4.8" r="3.2" stroke="currentColor" stroke-width="1.5" />
    <path
      d="M10.8 7.20002C12.1255 7.20002 13.2 6.12551 13.2 4.80002C13.2 3.47454 12.1255 2.40002 10.8 2.40002C10.6638 2.40002 10.5301 2.41138 10.4 2.43321"
      stroke="currentColor"
      stroke-width="1.5"
      stroke-linecap="round"
    />
  </g>
  <defs>
    <clipPath id="clip0_4061_24"><path fill="currentColor" d="M0 0H16V16H0z" /></clipPath>
  </defs>
</svg>
