<svg width="13" height="12" viewBox="0 0 13 12" fill="none" xmlns="http://www.w3.org/2000/svg" data-fui-icon="true">
  <path
    fill-rule="evenodd"
    clip-rule="evenodd"
    d="M4.25125 7.25C6.47498 7.25014 8.10539 8.91228 8.43778 10.6094C8.60057 11.4412 7.89413 11.9998 7.25125 12H1.25125C0.60829 12 -0.0981286 11.4414 0.0647304 10.6094L0.141879 10.292C0.602972 8.71092 2.16631 7.25 4.25125 7.25ZM9.59012 9.28613C9.27264 8.53748 9.80499 7.66652 10.4436 8.16992C11.2533 8.80821 11.8004 9.70368 11.9778 10.6094C12.1406 11.4412 11.4341 11.9998 10.7913 12H10.596C10.18 11.9999 9.90038 11.5502 9.94657 11.1367C9.96262 10.9936 9.96688 10.8459 9.95829 10.6953C9.95236 10.5916 10.0322 10.5 10.136 10.5C10.2574 10.4999 10.3394 10.3773 10.2835 10.2695C10.16 10.0315 9.99528 9.80338 9.7952 9.59961C9.71333 9.51623 9.64599 9.41931 9.60086 9.31152C9.59737 9.30317 9.59366 9.29448 9.59012 9.28613ZM4.25125 8.75C2.98489 8.75 2.01519 9.58709 1.6536 10.5H6.84891C6.48738 9.58712 5.51752 8.75013 4.25125 8.75ZM4.25125 0.5C5.90798 0.500155 7.25125 1.84324 7.25125 3.5C7.25125 5.15676 5.90798 6.49984 4.25125 6.5C2.5944 6.5 1.25125 5.15685 1.25125 3.5C1.25125 1.84315 2.5944 0.5 4.25125 0.5ZM7.79129 0.5C9.44797 0.500208 10.7913 1.84327 10.7913 3.5C10.7913 5.15673 9.44797 6.49979 7.79129 6.5C7.71742 6.49988 7.68089 6.4116 7.72782 6.35449C8.03904 5.97601 8.28991 5.54609 8.46512 5.0791C8.53556 4.89132 8.66583 4.73219 8.81278 4.5957C9.10687 4.32238 9.29129 3.93321 9.29129 3.5C9.29129 3.0666 9.10698 2.67684 8.81278 2.40332C8.66586 2.26681 8.53549 2.10772 8.46512 1.91992C8.29 1.45268 8.03911 1.02215 7.72782 0.643555C7.68151 0.586767 7.71796 0.500122 7.79129 0.5ZM4.25125 2C3.42283 2 2.75125 2.67157 2.75125 3.5C2.75125 4.32843 3.42283 5 4.25125 5C5.07955 4.99984 5.75125 4.32833 5.75125 3.5C5.75125 2.67167 5.07955 2.00016 4.25125 2Z"
    fill="currentColor"
  />
</svg>
