<svg width="20" height="20" viewBox="0 0 20 20" fill="none" xmlns="http://www.w3.org/2000/svg" data-fui-icon="true">
  <path
    d="M8.00098 11.25C11.6025 11.2502 14.2447 13.9671 14.8613 16.5879C14.8779 16.6582 14.8893 16.7273 14.8965 16.7949L14.8975 16.8213C14.8979 16.8239 14.8983 16.8258 14.8984 16.8271C14.899 16.834 14.8983 16.8409 14.8984 16.8477L14.9053 16.9932C14.8849 17.8968 14.0464 18.4998 13.251 18.5H2.75098C1.84169 18.5 0.876334 17.7121 1.14062 16.5879C1.75727 13.967 4.39927 11.25 8.00098 11.25ZM15.4951 14.1719C14.9827 13.2717 15.6366 12.1411 16.4482 12.7842C17.7369 13.806 18.6211 15.2102 18.9453 16.5879C19.2096 17.712 18.2442 18.4999 17.335 18.5C16.737 18.5 16.3428 17.8086 16.3945 17.2129C16.4214 16.904 16.4 16.5791 16.3213 16.2441C16.1568 15.5449 15.8769 14.8427 15.4951 14.1719ZM8.00098 2C10.21 2.00014 12.001 3.79095 12.001 6C12.001 8.20905 10.21 9.99986 8.00098 10C5.79184 10 4.00098 8.20914 4.00098 6C4.00098 3.79086 5.79184 2 8.00098 2ZM12.085 2C14.2941 2.00006 16.085 3.7909 16.085 6C16.085 8.2091 14.2941 9.99994 12.085 10C11.97 9.99998 11.9182 9.85892 11.9971 9.77539C12.9282 8.79045 13.5 7.46248 13.5 6C13.5 4.53738 12.9283 3.20879 11.9971 2.22363C11.9181 2.14012 11.97 2.00002 12.085 2Z"
    fill="currentColor"
  />
</svg>
