<svg width="16" height="16" viewBox="0 0 16 16" fill="none" xmlns="http://www.w3.org/2000/svg" data-fui-icon="true">
  <g clip-path="url(#clip0_7314_745)">
    <path
      d="M5.58496 10.1143C8.83208 10.1145 11.167 12.7818 11.167 15.2539C11.1669 15.6681 10.8312 16.0039 10.417 16.0039C10.0029 16.0038 9.66707 15.668 9.66699 15.2539C9.66697 13.6293 8.0229 11.6145 5.58496 11.6143C3.14682 11.6143 1.50197 13.6293 1.50195 15.2539C1.50188 15.6681 1.16612 16.0039 0.751953 16.0039C0.337787 16.0039 0.00202965 15.6681 0.00195312 15.2539C0.00196994 12.7817 2.33766 10.1143 5.58496 10.1143ZM11.415 11.1777C11.4847 10.7695 11.872 10.495 12.2803 10.5645C12.3193 10.5711 12.358 10.5783 12.3965 10.5859C12.4998 10.6064 12.6017 10.6308 12.7012 10.6582C14.4772 11.1473 15.5032 12.6565 15.8555 14.0801C16.1356 15.2124 15.1561 16 14.252 16H13.251C12.8369 15.9999 12.501 15.6641 12.501 15.25C12.501 14.8359 12.8369 14.5001 13.251 14.5H14.252C14.326 14.5 14.3759 14.4685 14.3955 14.4473C14.3975 14.4451 14.3984 14.4428 14.3994 14.4414V14.4404C14.1374 13.3817 13.4127 12.4091 12.3027 12.1035C12.2387 12.0859 12.1729 12.071 12.1055 12.0576C12.0802 12.0526 12.0541 12.0474 12.0283 12.043C11.6201 11.9734 11.3455 11.586 11.415 11.1777ZM11.748 4C13.2668 4 14.498 5.23122 14.498 6.75C14.498 8.26878 13.2668 9.5 11.748 9.5C11.1661 9.49998 10.6239 9.31844 10.1787 9.00879C9.83888 8.7722 9.75571 8.3048 9.99219 7.96484C10.2287 7.62492 10.6961 7.54084 11.0361 7.77734C11.238 7.91764 11.4822 7.99998 11.748 8C12.4384 8 12.998 7.44036 12.998 6.75C12.998 6.05964 12.4384 5.5 11.748 5.5C11.3339 5.49995 10.998 5.16418 10.998 4.75C10.998 4.33582 11.3339 4.00005 11.748 4ZM5.58398 1C7.69808 1 9.44129 2.68031 9.44141 4.78809C9.44116 6.89575 7.698 8.57617 5.58398 8.57617C3.47025 8.57584 1.72779 6.89554 1.72754 4.78809C1.72765 2.68052 3.47017 1.00033 5.58398 1ZM5.58398 2.5C4.26695 2.50033 3.22766 3.54024 3.22754 4.78809C3.22779 6.03582 4.26704 7.07584 5.58398 7.07617C6.90123 7.07617 7.94116 6.03602 7.94141 4.78809C7.94129 3.54004 6.90131 2.5 5.58398 2.5Z"
      fill="currentColor"
    />
  </g>
  <defs>
    <clipPath id="clip0_7314_745"><path fill="currentColor" d="M0 0H16V16H0z" /></clipPath>
  </defs>
</svg>
