<svg width="12" height="12" viewBox="0 0 12 12" fill="none" xmlns="http://www.w3.org/2000/svg" data-fui-icon="true">
  <path
    fill-rule="evenodd"
    clip-rule="evenodd"
    d="M4.2493 7.25C6.47317 7.25001 8.10343 8.91221 8.43582 10.6094C8.59868 11.4414 7.89226 12 7.2493 12H1.2493C0.606337 12 -0.100082 11.4414 0.0627773 10.6094L0.139926 10.292C0.600992 8.71089 2.16433 7.25 4.2493 7.25ZM9.74051 9.6875C9.43905 8.78294 10.0783 7.7916 10.7659 8.45215C11.3976 9.05893 11.8242 9.83021 11.9768 10.6094C12.1396 11.4411 11.4331 11.9997 10.7903 12C10.2842 12 9.94031 11.4472 9.95829 10.9414C9.96542 10.7411 9.95004 10.5337 9.90848 10.3213C9.86682 10.1086 9.81028 9.89675 9.74051 9.6875ZM4.2493 0.5C5.90615 0.500006 7.2493 1.84315 7.2493 3.5C7.2493 5.15685 5.90615 6.49999 4.2493 6.5C2.59245 6.5 1.2493 5.15685 1.2493 3.5C1.2493 1.84315 2.59245 0.5 4.2493 0.5ZM7.79032 0.5C9.44694 0.500274 10.7903 1.84331 10.7903 3.5C10.7903 5.15669 9.44694 6.49973 7.79032 6.5C7.71595 6.5 7.67871 6.41098 7.72586 6.35352C8.36446 5.57696 8.7493 4.58395 8.7493 3.5C8.7493 2.4158 8.36555 1.42137 7.72684 0.644531C7.67985 0.587389 7.71634 0.500001 7.79032 0.5Z"
    fill="currentColor"
  />
</svg>
