<svg width="16" height="16" viewBox="0 0 16 16" fill="none" xmlns="http://www.w3.org/2000/svg" data-fui-icon="true">
  <g clip-path="url(#clip0_2825_109)">
    <path
      d="M5.58496 10.1143C8.83208 10.1145 11.167 12.7818 11.167 15.2539C11.1669 15.6681 10.8312 16.0039 10.417 16.0039C10.0029 16.0038 9.66707 15.668 9.66699 15.2539C9.66697 13.6293 8.0229 11.6145 5.58496 11.6143C3.14682 11.6143 1.50197 13.6293 1.50195 15.2539C1.50188 15.6681 1.16612 16.0039 0.751953 16.0039C0.337787 16.0039 0.00202954 15.6681 0.00195312 15.2539C0.00196994 12.7817 2.33766 10.1143 5.58496 10.1143ZM12.1436 10.79C13.1623 10.7902 14.1292 11.4987 14.7881 12.2812C15.4649 13.0853 15.9999 14.1788 16 15.2539C15.9997 15.6678 15.6639 16.0038 15.25 16.0039C14.8361 16.0038 14.5003 15.6678 14.5 15.2539C14.4999 14.6412 14.1715 13.8778 13.6406 13.2471C13.0915 12.595 12.5055 12.2902 12.1436 12.29C11.7295 12.29 11.3938 11.954 11.3936 11.54C11.3936 11.1258 11.7293 10.79 12.1436 10.79ZM11.6738 4.05762C13.1907 4.05762 14.4285 5.281 14.4287 6.7998C14.4287 8.31879 13.1909 9.54199 11.6738 9.54199C11.116 9.54194 10.5943 9.37631 10.1592 9.09082C9.81312 8.86347 9.71613 8.39795 9.94336 8.05176C10.1706 7.70586 10.6353 7.61005 10.9814 7.83691C11.1792 7.96668 11.4166 8.04194 11.6738 8.04199C12.3713 8.04199 12.9287 7.4815 12.9287 6.7998C12.9285 6.11829 12.3712 5.55762 11.6738 5.55762C11.2597 5.55748 10.9238 5.22174 10.9238 4.80762C10.924 4.3936 11.2598 4.05776 11.6738 4.05762ZM5.58398 1C7.69808 1 9.44129 2.68031 9.44141 4.78809C9.44116 6.89575 7.698 8.57617 5.58398 8.57617C3.47025 8.57584 1.72779 6.89554 1.72754 4.78809C1.72765 2.68052 3.47017 1.00033 5.58398 1ZM5.58398 2.5C4.26695 2.50033 3.22766 3.54024 3.22754 4.78809C3.22779 6.03582 4.26704 7.07584 5.58398 7.07617C6.90123 7.07617 7.94116 6.03602 7.94141 4.78809C7.94129 3.54004 6.90131 2.5 5.58398 2.5Z"
      fill="currentColor"
    />
  </g>
  <defs>
    <clipPath id="clip0_2825_109"><path fill="currentColor" d="M0 0H16V16H0z" /></clipPath>
  </defs>
</svg>
