<svg width="20" height="20" viewBox="0 0 20 20" fill="none" xmlns="http://www.w3.org/2000/svg" data-fui-icon="true">
  <path
    fill-rule="evenodd"
    clip-rule="evenodd"
    d="M8.00035 11.25C11.602 11.25 14.244 13.9671 14.8607 16.5879C15.125 17.7121 14.1596 18.5 13.2504 18.5H2.75035C1.84129 18.4996 0.875885 17.7117 1.14 16.5879C1.75657 13.9672 4.39894 11.2503 8.00035 11.25ZM15.4916 14.165C14.9782 13.2658 15.6296 12.1366 16.4418 12.7783C17.7344 13.8006 18.6209 15.2076 18.9457 16.5879C19.2099 17.7119 18.2445 18.4998 17.3353 18.5C16.7376 18.4997 16.3432 17.8085 16.3949 17.2129C16.4217 16.9045 16.4001 16.5796 16.3216 16.2451V16.2432L16.2435 15.9434C16.0739 15.3418 15.8208 14.7414 15.4916 14.165ZM8.00035 2C10.2095 2 12.0004 3.79086 12.0004 6C12.0004 8.20914 10.2095 10 8.00035 10C5.79154 9.99961 4.00035 8.2089 4.00035 6C4.00035 3.7911 5.79154 2.00039 8.00035 2ZM12.0853 2C14.2943 2.00013 16.0853 3.79094 16.0853 6C16.0853 8.20906 14.2943 9.99987 12.0853 10C11.9706 9.99968 11.9195 9.85882 11.9984 9.77539C12.9294 8.79048 13.5004 7.46239 13.5004 6C13.5004 4.53744 12.9295 3.20875 11.9984 2.22363C11.9195 2.14021 11.9707 2.00031 12.0853 2Z"
    fill="currentColor"
  />
</svg>
