<svg width="20" height="20" viewBox="0 0 20 20" fill="none" xmlns="http://www.w3.org/2000/svg" data-fui-icon="true">
  <path
    fill-rule="evenodd"
    clip-rule="evenodd"
    d="M7.99996 11C11.764 11 14.2879 13.8477 14.8681 16.5479C15.1483 17.8521 14.0357 18.75 13 18.75H2.99996C1.96421 18.75 0.851602 17.8521 1.13179 16.5479L1.19137 16.2939C1.87055 13.6722 4.35367 11 7.99996 11ZM15.8925 14.2324C15.4322 13.2972 16.1574 12.2372 16.8984 12.9697C17.9332 13.9935 18.6117 15.2922 18.874 16.5537C19.1438 17.8522 18.039 18.7497 17.0009 18.75C16.6302 18.75 16.393 18.3343 16.5039 17.9805C16.6147 17.6265 16.6703 17.2456 16.6582 16.8457C16.6566 16.7939 16.6981 16.75 16.75 16.75C16.8088 16.7498 16.852 16.6943 16.8359 16.6377C16.752 16.3433 16.6363 16.0503 16.4931 15.7656C16.4679 15.7155 16.4474 15.6632 16.4316 15.6094C16.2956 15.1472 16.1152 14.6849 15.8925 14.2324ZM7.99996 13C5.4387 13 3.64299 14.8744 3.13961 16.75H12.8603C12.3569 14.8744 10.5612 13 7.99996 13ZM7.99996 1.75C10.3471 1.75004 12.25 3.65282 12.25 6C12.25 8.34718 10.3471 10.25 7.99996 10.25C5.65282 10.2499 3.74996 8.34716 3.74996 6C3.74996 3.65284 5.65282 1.75009 7.99996 1.75ZM13.6123 3.87305C13.29 3.02367 13.874 2.03936 14.6054 2.57812C15.6551 3.35135 16.3359 4.59596 16.3359 6C16.3359 7.406 15.6528 8.65185 14.6005 9.4248C13.8686 9.96228 13.2855 8.97774 13.6084 8.12891C13.6694 7.96844 13.7241 7.80446 13.7714 7.6377C13.8121 7.49442 13.8806 7.36053 13.9628 7.23633C14.1976 6.88153 14.3359 6.45727 14.3359 6C14.3359 5.54319 14.1989 5.11847 13.9648 4.76367C13.8828 4.63935 13.814 4.50562 13.7734 4.3623C13.7264 4.19632 13.6729 4.03281 13.6123 3.87305ZM7.99996 3.75C6.75739 3.75009 5.74996 4.75741 5.74996 6C5.74996 7.24259 6.75739 8.24991 7.99996 8.25C9.24256 8.24996 10.25 7.24261 10.25 6C10.25 4.75739 9.24256 3.75004 7.99996 3.75Z"
    fill="currentColor"
  />
</svg>
