<svg width="20" height="20" viewBox="0 0 20 20" fill="none" xmlns="http://www.w3.org/2000/svg" data-fui-icon="true">
  <path
    d="M8 11C11.764 11 14.288 13.8477 14.8682 16.5479C15.1484 17.8521 14.0357 18.75 13 18.75H3C1.96425 18.75 0.851644 17.8521 1.13184 16.5479L1.19141 16.2939C1.87059 13.6722 4.35372 11 8 11ZM15.8945 14.2354C15.4346 13.2996 16.1617 12.2397 16.9023 12.9736C17.9348 13.9969 18.611 15.2938 18.873 16.5537C19.143 17.8525 18.0382 18.75 17 18.75C16.6306 18.75 16.3942 18.3359 16.5049 17.9834C16.6164 17.6282 16.6724 17.2452 16.6602 16.8438C16.6589 16.793 16.6992 16.7502 16.75 16.75C16.8081 16.75 16.8506 16.6955 16.835 16.6396C16.7515 16.346 16.6376 16.0535 16.4951 15.7695C16.4701 15.7197 16.4493 15.6677 16.4336 15.6143C16.2977 15.1515 16.1172 14.6884 15.8945 14.2354ZM8 13C5.43874 13 3.64303 14.8744 3.13965 16.75H12.8604C12.357 14.8744 10.5613 13 8 13ZM8 1.75C10.3472 1.75004 12.25 3.65282 12.25 6C12.25 8.34718 10.3472 10.25 8 10.25C5.65286 10.2499 3.75 8.34716 3.75 6C3.75 3.65284 5.65286 1.75009 8 1.75ZM13.6113 3.87207C13.2891 3.02278 13.8732 2.03926 14.6045 2.57812C15.654 3.35161 16.3349 4.59598 16.335 6C16.3349 7.40565 15.6522 8.65082 14.6006 9.42383C13.8688 9.96173 13.2857 8.9778 13.6084 8.12891C13.6694 7.96851 13.7242 7.80438 13.7715 7.6377C13.8121 7.49462 13.8809 7.3614 13.9629 7.2373C14.1975 6.88247 14.3349 6.45727 14.335 6C14.3349 5.54329 14.1987 5.11846 13.9648 4.76367C13.8829 4.63931 13.814 4.50562 13.7734 4.3623C13.7263 4.19594 13.6721 4.03218 13.6113 3.87207ZM8 3.75C6.75743 3.75009 5.75 4.75741 5.75 6C5.75 7.24259 6.75743 8.24991 8 8.25C9.2426 8.24996 10.25 7.24261 10.25 6C10.25 4.75739 9.2426 3.75004 8 3.75Z"
    fill="currentColor"
  />
</svg>
