<svg width="32" height="32" viewBox="0 0 32 32" fill="none" xmlns="http://www.w3.org/2000/svg" data-fui-icon="true">
  <path
    d="M9.36822 15.5394C4.30219 16.8461 2.62729 20.9113 2.07355 23.4566C1.77456 24.8308 2.27914 26.2286 3.50593 26.9163C5.07999 27.7987 7.90133 28.8 12.6 28.8C17.0533 28.8 19.8202 27.9006 21.4371 27.0555C22.8411 26.3217 23.358 24.7138 22.8788 23.2039C22.0685 20.6502 20.0403 16.8037 15.0545 15.5394"
    stroke="currentColor"
    stroke-width="1.5"
  />
  <path
    d="M26.1543 23.3609C25.7629 23.4966 25.5558 23.9239 25.6915 24.3153C25.8273 24.7066 26.2546 24.9138 26.6459 24.778L26.1543 23.3609ZM29.9115 19.3151L29.2103 19.5813L29.9115 19.3151ZM29.0586 22.6567L28.5966 22.0659L29.0586 22.6567ZM23.435 14.6711C27.052 15.486 28.568 17.8891 29.2103 19.5813L30.6127 19.0489C29.8542 17.0508 28.0229 14.1671 23.7647 13.2078L23.435 14.6711ZM28.5966 22.0659C28.0393 22.5017 27.2463 22.982 26.1543 23.3609L26.6459 24.778C27.8998 24.343 28.8381 23.7812 29.5206 23.2474L28.5966 22.0659ZM29.2103 19.5813C29.5649 20.5153 29.3213 21.499 28.5966 22.0659L29.5206 23.2474C30.824 22.2282 31.1718 20.522 30.6127 19.0489L29.2103 19.5813Z"
    fill="currentColor"
  />
  <circle cx="12.2" cy="9.6" r="6.4" stroke="currentColor" stroke-width="1.5" />
  <path
    d="M21.6001 14.4C24.251 14.4 26.4001 12.251 26.4001 9.60005C26.4001 6.94908 24.251 4.80005 21.6001 4.80005C21.3275 4.80005 21.0602 4.82277 20.8 4.86642"
    stroke="currentColor"
    stroke-width="1.5"
    stroke-linecap="round"
  />
</svg>
