<svg width="32" height="32" viewBox="0 0 32 32" fill="none" xmlns="http://www.w3.org/2000/svg" data-fui-icon="true">
  <path
    d="M11.249 18.25C16.9794 18.2501 20.4327 21.9925 21.4092 25.7725C21.8932 27.6468 20.2684 28.9997 18.7002 29H3.7998C2.23141 28.9999 0.606698 27.6471 1.09082 25.7725C2.06704 21.9926 5.51878 18.2502 11.249 18.25ZM20.6387 18.25C26.3611 18.25 29.8944 21.9832 30.8994 25.7666C31.1364 26.6588 30.8635 27.4987 30.3232 28.0879C29.7959 28.6629 29.0206 28.9999 28.1992 29H24.6914C24.0687 29 23.6629 28.3099 23.8262 27.709C23.9319 27.3201 24.267 27.0001 24.6699 27H28.1992C28.4821 26.9999 28.7156 26.8824 28.8496 26.7363C28.9706 26.6043 29.0124 26.4555 28.9658 26.2803C28.2319 23.5174 25.7927 20.7302 21.7227 20.3066C21.4608 20.2794 21.2174 20.1563 21.042 19.96C20.8122 19.7028 20.5695 19.4534 20.3154 19.2129C19.9571 18.8734 20.145 18.2501 20.6387 18.25ZM11.249 20.25C6.53561 20.2502 3.80286 23.2699 3.02734 26.2725C2.98146 26.4501 3.02457 26.6017 3.14746 26.7354C3.28288 26.8826 3.51693 27 3.7998 27H18.7002C18.9827 26.9998 19.2162 26.8824 19.3516 26.7354C19.4744 26.6017 19.5185 26.4501 19.4727 26.2725C18.697 23.2698 15.9627 20.2501 11.249 20.25ZM11.249 2.75C14.9769 2.75 17.999 5.77208 17.999 9.5C17.999 13.2279 14.9769 16.25 11.249 16.25C7.52133 16.2497 4.49902 13.2278 4.49902 9.5C4.49902 5.77224 7.52133 2.75026 11.249 2.75ZM20.6387 2.75C24.3666 2.75 27.3887 5.77208 27.3887 9.5C27.3887 13.2279 24.3666 16.25 20.6387 16.25C20.2002 16.25 19.7715 16.2082 19.3564 16.1279C18.7154 16.0039 18.5362 15.2304 18.9033 14.6904C19.1487 14.3298 19.5929 14.1537 20.0254 14.21C20.226 14.2361 20.431 14.25 20.6387 14.25C23.262 14.25 25.3887 12.1234 25.3887 9.5C25.3887 6.87665 23.262 4.75 20.6387 4.75C20.4315 4.75002 20.2275 4.76318 20.0273 4.78906C19.5947 4.84506 19.1494 4.66951 18.9043 4.30859C18.5376 3.76831 18.7181 2.99445 19.3594 2.87109C19.7736 2.79145 20.2013 2.75002 20.6387 2.75ZM11.249 4.75C8.6259 4.75026 6.49902 6.87681 6.49902 9.5C6.49902 12.1232 8.6259 14.2497 11.249 14.25C13.8724 14.25 15.999 12.1234 15.999 9.5C15.999 6.87665 13.8724 4.75 11.249 4.75Z"
    fill="currentColor"
  />
</svg>
