<svg width="12" height="12" viewBox="0 0 12 12" fill="none" xmlns="http://www.w3.org/2000/svg" data-fui-icon="true">
  <g clip-path="url(#clip0_4061_30)">
    <path
      d="M4.40063 0.450195C6.14003 0.450553 7.55005 1.86111 7.55005 3.60059C7.5499 4.34895 7.28682 5.03489 6.85083 5.5752C7.48788 5.93259 7.96983 6.40005 8.32739 6.88965C9.5923 8.62203 8.63765 10.9549 6.55981 11.3682C5.9988 11.4797 5.3338 11.5498 4.55005 11.5498C3.61465 11.5498 2.84913 11.4497 2.22681 11.2988C0.383355 10.8518 -0.519564 8.82492 0.426025 7.16211C0.755548 6.58279 1.24597 6.01052 1.95923 5.58887C1.51669 5.04658 1.25039 4.35505 1.25024 3.60059C1.25024 1.86089 2.66094 0.450195 4.40063 0.450195ZM5.40259 6.58594C5.08778 6.69159 4.75103 6.74993 4.40063 6.75C4.05218 6.75 3.71693 6.69235 3.40356 6.58789C2.53727 6.84482 2.03623 7.36454 1.72974 7.90332C1.28487 8.6855 1.69025 9.62497 2.58032 9.84082C3.07562 9.9609 3.72151 10.0498 4.55005 10.0498C5.24411 10.0498 5.81043 9.98815 6.26685 9.89746C7.29582 9.69275 7.71861 8.60036 7.11548 7.77441C6.75507 7.28093 6.22087 6.82162 5.40259 6.58594ZM8.30981 1.64941C8.47111 1.26803 8.91076 1.0898 9.29224 1.25098C10.2062 1.63737 10.8499 2.54302 10.8499 3.60059C10.8497 4.24564 10.6083 4.83262 10.2141 5.28125C11.0242 6.07015 11.7339 7.17391 11.512 8.79199C11.4555 9.20209 11.0764 9.48872 10.6663 9.43262C10.2561 9.37619 9.96947 8.99808 10.0256 8.58789C10.19 7.38988 9.56783 6.64345 8.68091 5.93457C8.52008 5.85849 8.38458 5.72754 8.30981 5.55078C8.14863 5.16927 8.3268 4.72962 8.70825 4.56836C9.08656 4.40845 9.34964 4.03419 9.34985 3.60059C9.34985 3.1668 9.08665 2.79184 8.70825 2.63184C8.32688 2.47055 8.14869 2.03088 8.30981 1.64941ZM4.40063 1.9502C3.48936 1.9502 2.75024 2.68932 2.75024 3.60059C2.75059 4.51156 3.48958 5.25 4.40063 5.25C5.31139 5.24964 6.04971 4.51134 6.05005 3.60059C6.05005 2.68954 5.3116 1.95055 4.40063 1.9502Z"
      fill="currentColor"
    />
  </g>
  <defs>
    <clipPath id="clip0_4061_30"><path fill="currentColor" d="M0 0H12V12H0z" /></clipPath>
  </defs>
</svg>
