<svg width="12" height="12" viewBox="0 0 12 12" fill="none" xmlns="http://www.w3.org/2000/svg" data-fui-icon="true">
  <path
    d="M3.99976 1.125C5.31136 1.12508 6.37476 2.18838 6.37476 3.5C6.37476 4.51551 5.73611 5.37916 4.8396 5.71875C5.55637 5.884 6.16241 6.26173 6.63745 6.79297C7.27285 7.50371 7.64804 8.45601 7.80542 9.47559C7.9262 10.2584 7.29415 10.875 6.58667 10.875H1.41284C0.705578 10.8747 0.0733929 10.2582 0.194092 9.47559C0.351461 8.45606 0.726721 7.5037 1.36206 6.79297C1.83689 6.26189 2.44255 5.88415 3.15894 5.71875C2.26295 5.37889 1.62476 4.51513 1.62476 3.5C1.62476 2.18849 2.6883 1.12526 3.99976 1.125ZM8.49976 1.625C9.67329 1.62508 10.6248 2.57645 10.6248 3.75C10.6248 4.64139 10.0748 5.40226 9.29663 5.71777C9.9131 5.86612 10.4398 6.18726 10.8582 6.6377C11.4326 7.25625 11.7744 8.08384 11.9246 8.96484C12.0595 9.75856 11.4143 10.375 10.7107 10.375H8.87476C8.46077 10.3747 8.12476 10.0391 8.12476 9.625C8.12476 9.21095 8.46077 8.87526 8.87476 8.875H10.3718C10.24 8.35885 10.0272 7.94647 9.75952 7.6582C9.44962 7.3246 9.04223 7.12503 8.49976 7.125C8.33385 7.12504 8.18306 7.14367 8.04761 7.17676C7.64546 7.27457 7.23958 7.02812 7.14136 6.62598C7.04335 6.22387 7.29015 5.81818 7.69214 5.71973C7.69459 5.71913 7.6975 5.71837 7.69995 5.71777C6.92318 5.4016 6.37476 4.64037 6.37476 3.75C6.37476 2.57656 7.32638 1.62526 8.49976 1.625ZM3.99976 7.125C3.34959 7.12512 2.85527 7.37272 2.48022 7.79199C2.14377 8.16842 1.88527 8.70795 1.73901 9.375H6.2605C6.11421 8.70783 5.85584 8.16842 5.51929 7.79199C5.14419 7.3727 4.65004 7.12504 3.99976 7.125ZM3.99976 2.625C3.51673 2.62526 3.12476 3.01691 3.12476 3.5C3.12476 3.98309 3.51673 4.37474 3.99976 4.375C4.48293 4.37492 4.87476 3.9832 4.87476 3.5C4.87476 3.0168 4.48293 2.62508 3.99976 2.625ZM8.49976 3.125C8.1548 3.12526 7.87476 3.40498 7.87476 3.75C7.87476 4.09502 8.1548 4.37474 8.49976 4.375C8.84486 4.37492 9.12476 4.09513 9.12476 3.75C9.12476 3.40487 8.84486 3.12508 8.49976 3.125Z"
    fill="currentColor"
  />
</svg>
