<svg width="24" height="24" viewBox="0 0 24 24" fill="none" xmlns="http://www.w3.org/2000/svg" data-fui-icon="true">
  <path
    fill-rule="evenodd"
    clip-rule="evenodd"
    d="M9.49931 13.75C13.6614 13.75 16.961 16.7062 17.7942 19.7695C17.9617 20.3853 17.7756 20.9671 17.4036 21.374C17.0416 21.7698 16.5101 21.9999 15.9495 22H3.04912C2.48867 21.9997 1.95685 21.7698 1.59501 21.374C1.22333 20.9671 1.0371 20.385 1.20439 19.7695C2.03748 16.7064 5.33754 13.7504 9.49931 13.75ZM18.1048 16.4473C17.5067 15.6064 18.1043 14.4066 18.9993 14.9199C20.9883 16.0612 22.4212 17.8953 22.931 19.7695C23.0984 20.3852 22.9122 20.9671 22.5403 21.374C22.1784 21.7698 21.6468 21.9999 21.0862 22H20.8802C20.102 21.9997 19.584 21.0983 19.6058 20.3203C19.615 19.9926 19.5769 19.6536 19.4837 19.3105C19.2133 18.3162 18.742 17.3428 18.1048 16.4473ZM9.49931 2C12.2607 2 14.4993 4.23858 14.4993 7C14.4993 9.76142 12.2607 12 9.49931 12C6.73824 11.9996 4.49931 9.76117 4.49931 7C4.49931 4.23883 6.73824 2.00042 9.49931 2ZM14.636 2C17.3974 2.00011 19.636 4.23865 19.636 7C19.636 9.76135 17.3974 11.9999 14.636 12C14.4123 11.9997 14.3187 11.7264 14.47 11.5615C15.5742 10.3608 16.2493 8.76013 16.2493 7C16.2493 5.23931 15.5753 3.63629 14.471 2.43457C14.3205 2.27087 14.4138 2.00028 14.636 2Z"
    fill="currentColor"
  />
</svg>
