<svg width="16" height="16" viewBox="0 0 16 16" fill="none" xmlns="http://www.w3.org/2000/svg" data-fui-icon="true">
  <path
    d="M13.293 1.29346C13.6835 0.902933 14.3165 0.902933 14.707 1.29346C15.0975 1.68399 15.0975 2.31703 14.707 2.70752L2.70703 14.7075C2.31651 15.0977 1.6834 15.0978 1.29297 14.7075C0.902547 14.3171 0.902752 13.684 1.29297 13.2935L13.293 1.29346ZM12.25 9.50049C13.7688 9.50049 15 10.7317 15 12.2505C14.9998 13.7691 13.7686 15.0005 12.25 15.0005C10.7315 15.0004 9.50023 13.769 9.5 12.2505C9.5 10.7318 10.7313 9.5006 12.25 9.50049ZM12.25 11.5005C11.8359 11.5006 11.5 11.8363 11.5 12.2505C11.5002 12.6644 11.836 13.0004 12.25 13.0005C12.6641 13.0005 12.9998 12.6645 13 12.2505C13 11.8363 12.6642 11.5005 12.25 11.5005ZM3.75 1.00049C5.26878 1.00049 6.5 2.23171 6.5 3.75049C6.49979 5.26909 5.26865 6.50049 3.75 6.50049C2.23145 6.50037 1.00021 5.26902 1 3.75049C1 2.23178 2.23131 1.0006 3.75 1.00049ZM3.75 3.00049C3.33588 3.0006 3 3.33635 3 3.75049C3.00021 4.16445 3.33602 4.50037 3.75 4.50049C4.16408 4.50049 4.49979 4.16452 4.5 3.75049C4.5 3.33627 4.16421 3.00049 3.75 3.00049Z"
    fill="currentColor"
  />
</svg>
