<svg width="21" height="21" viewBox="0 0 21 21" fill="none" xmlns="http://www.w3.org/2000/svg" data-fui-icon="true">
  <path
    d="M18.8662 0.366211C19.3544 -0.121929 20.1456 -0.1219 20.6338 0.366211C21.1219 0.854366 21.1219 1.64563 20.6338 2.13379L2.13379 20.6338C1.64563 21.1219 0.854352 21.1219 0.366211 20.6338C-0.121885 20.1456 -0.121885 19.3544 0.366211 18.8662L18.8662 0.366211ZM16.5 12C18.9853 12 21 14.0147 21 16.5C21 18.9853 18.9853 21 16.5 21C14.0147 21 12 18.9853 12 16.5C12 14.0147 14.0147 12 16.5 12ZM16.5 14.5C15.3954 14.5 14.5 15.3954 14.5 16.5C14.5 17.6046 15.3954 18.5 16.5 18.5C17.6046 18.5 18.5 17.6046 18.5 16.5C18.5 15.3954 17.6046 14.5 16.5 14.5ZM4.5 0C6.98528 0 9 2.01472 9 4.5C9 6.98528 6.98528 9 4.5 9C2.01472 9 0 6.98528 0 4.5C0 2.01472 2.01472 0 4.5 0ZM4.5 2.5C3.39543 2.5 2.5 3.39543 2.5 4.5C2.5 5.60457 3.39543 6.5 4.5 6.5C5.60457 6.5 6.5 5.60457 6.5 4.5C6.5 3.39543 5.60457 2.5 4.5 2.5Z"
    fill="currentColor"
  />
</svg>
