<svg width="24" height="24" viewBox="0 0 24 24" fill="none" xmlns="http://www.w3.org/2000/svg" data-fui-icon="true">
  <g clip-path="url(#clip0_882_1135)">
    <path
      d="M22.7197 0.219727C23.0126 -0.0731578 23.4874 -0.0731637 23.7803 0.219727C24.0731 0.51262 24.0731 0.987391 23.7803 1.28027L1.28027 23.7803C0.987392 24.0732 0.512623 24.0731 0.219727 23.7803C-0.0731667 23.4874 -0.0731667 23.0126 0.219727 22.7197L22.7197 0.219727ZM19.25 14.5C21.8734 14.5 24 16.6266 24 19.25C24 21.8734 21.8734 24 19.25 24C16.6266 24 14.5 21.8734 14.5 19.25C14.5 16.6266 16.6266 14.5 19.25 14.5ZM19.25 16C17.4551 16 16 17.4551 16 19.25C16 21.0449 17.4551 22.5 19.25 22.5C21.0449 22.5 22.5 21.0449 22.5 19.25C22.5 17.4551 21.0449 16 19.25 16ZM4.75 0C7.37335 0 9.5 2.12665 9.5 4.75C9.5 7.37335 7.37335 9.5 4.75 9.5C2.12665 9.5 0 7.37335 0 4.75C0 2.12665 2.12665 0 4.75 0ZM4.75 1.5C2.95507 1.5 1.5 2.95507 1.5 4.75C1.5 6.54493 2.95507 8 4.75 8C6.54493 8 8 6.54493 8 4.75C8 2.95507 6.54493 1.5 4.75 1.5Z"
      fill="currentColor"
    />
  </g>
  <defs>
    <clipPath id="clip0_882_1135"><path fill="currentColor" d="M0 0H24V24H0z" /></clipPath>
  </defs>
</svg>
