<svg width="20" height="20" viewBox="0 0 20 20" fill="none" xmlns="http://www.w3.org/2000/svg" data-fui-icon="true">
  <path
    d="M14.75 12C16.2688 12 17.5 13.2312 17.5 14.75C17.5 16.2688 16.2688 17.5 14.75 17.5C13.2312 17.5 12 16.2688 12 14.75C12 13.2312 13.2312 12 14.75 12ZM15.7197 3.21973C16.0126 2.92683 16.4874 2.92683 16.7803 3.21973C17.0732 3.51262 17.0732 3.98738 16.7803 4.28027L4.28027 16.7803C3.98738 17.0732 3.51262 17.0732 3.21973 16.7803C2.92684 16.4874 2.92684 16.0126 3.21973 15.7197L15.7197 3.21973ZM14.75 13.5C14.0596 13.5 13.5 14.0596 13.5 14.75C13.5 15.4404 14.0596 16 14.75 16C15.4404 16 16 15.4404 16 14.75C16 14.0596 15.4404 13.5 14.75 13.5ZM5.25 2.5C6.76878 2.5 8 3.73122 8 5.25C8 6.76878 6.76878 8 5.25 8C3.73122 8 2.5 6.76878 2.5 5.25C2.5 3.73122 3.73122 2.5 5.25 2.5ZM5.25 4C4.55964 4 4 4.55964 4 5.25C4 5.94036 4.55964 6.5 5.25 6.5C5.94036 6.5 6.5 5.94036 6.5 5.25C6.5 4.55964 5.94036 4 5.25 4Z"
    fill="currentColor"
  />
</svg>
