<svg width="16" height="16" viewBox="0 0 16 16" fill="none" xmlns="http://www.w3.org/2000/svg" data-fui-icon="true">
  <path
    d="M12.5 10C13.8807 10 15 11.1193 15 12.5C15 13.8807 13.8807 15 12.5 15C11.1193 15 10 13.8807 10 12.5C10 11.1193 11.1193 10 12.5 10ZM13.7197 1.2207C14.0126 0.927844 14.4874 0.927821 14.7803 1.2207C15.0727 1.51362 15.073 1.98851 14.7803 2.28125L2.28125 14.7803C1.98851 15.073 1.51363 15.0727 1.2207 14.7803C0.927816 14.4874 0.927829 14.0126 1.2207 13.7197L13.7197 1.2207ZM12.5 11.5C11.9477 11.5 11.5 11.9477 11.5 12.5C11.5 13.0523 11.9477 13.5 12.5 13.5C13.0523 13.5 13.5 13.0523 13.5 12.5C13.5 11.9477 13.0523 11.5 12.5 11.5ZM3.50098 1.00098C4.88147 1.00123 6.00098 2.12042 6.00098 3.50098C6.00074 4.88133 4.88133 6.00072 3.50098 6.00098C2.12041 6.00098 1.00121 4.88149 1.00098 3.50098C1.00098 2.12026 2.12026 1.00098 3.50098 1.00098ZM3.50098 2.50098C2.94869 2.50098 2.50098 2.94869 2.50098 3.50098C2.50121 4.05306 2.94884 4.50098 3.50098 4.50098C4.0529 4.50072 4.50074 4.05291 4.50098 3.50098C4.50098 2.94885 4.05305 2.50123 3.50098 2.50098Z"
    fill="currentColor"
  />
</svg>
