<svg width="32" height="32" viewBox="0 0 32 32" fill="none" xmlns="http://www.w3.org/2000/svg" data-fui-icon="true">
  <path
    d="M28.8662 1.36621C29.3544 0.8781 30.1456 0.878071 30.6338 1.36621C31.1219 1.85436 31.1219 2.64565 30.6338 3.13379L3.13379 30.6338C2.64565 31.1219 1.85437 31.1219 1.36621 30.6338C0.878056 30.1456 0.878056 29.3544 1.36621 28.8662L28.8662 1.36621ZM25 19C28.3137 19.0001 31 21.6863 31 25C31 28.3137 28.3137 30.9999 25 31C21.6863 31 19 28.3137 19 25C19 21.6863 21.6863 19 25 19ZM25 21.5C23.067 21.5 21.5 23.067 21.5 25C21.5 26.933 23.067 28.5 25 28.5C26.933 28.4999 28.5 26.933 28.5 25C28.5 23.067 26.933 21.5001 25 21.5ZM7 1C10.3137 1.00005 13 3.68632 13 7C13 10.3137 10.3137 12.9999 7 13C3.68629 13 1 10.3137 1 7C1 3.68629 3.68629 1 7 1ZM7 3.5C5.067 3.5 3.5 5.067 3.5 7C3.5 8.933 5.067 10.5 7 10.5C8.93295 10.4999 10.5 8.93296 10.5 7C10.5 5.06704 8.93295 3.50005 7 3.5Z"
    fill="currentColor"
  />
</svg>
