<svg width="24" height="24" viewBox="0 0 24 24" fill="none" xmlns="http://www.w3.org/2000/svg" data-fui-icon="true">
  <path
    d="M20.8662 1.36609C21.3544 0.878044 22.1457 0.877971 22.6338 1.36609C23.1219 1.85421 23.1218 2.64552 22.6338 3.13367L3.13379 22.6337C2.64565 23.1218 1.85437 23.1218 1.36621 22.6337C0.878056 22.1455 0.878056 21.3542 1.36621 20.8661L20.8662 1.36609ZM18.5 13.9999C20.9852 14 23 16.0147 23 18.4999C23 20.9851 20.9852 22.9998 18.5 22.9999C16.0147 22.9999 14 20.9852 14 18.4999C14 16.0146 16.0147 13.9999 18.5 13.9999ZM18.5 16.4999C17.3955 16.4999 16.5 17.3953 16.5 18.4999C16.5 19.6044 17.3954 20.4999 18.5 20.4999C19.6045 20.4998 20.5 19.6044 20.5 18.4999C20.5 17.3954 19.6045 16.5 18.5 16.4999ZM5.5 0.999878C7.98519 0.999959 9.99996 3.01468 10 5.49988C10 7.98511 7.98521 9.9998 5.5 9.99988C3.01472 9.99988 1 7.98516 1 5.49988C1.00004 3.01463 3.01474 0.999878 5.5 0.999878ZM5.5 3.49988C4.39545 3.49988 3.50004 4.39534 3.5 5.49988C3.5 6.60445 4.39543 7.49988 5.5 7.49988C6.6045 7.4998 7.5 6.6044 7.5 5.49988C7.49996 4.39539 6.60448 3.49996 5.5 3.49988Z"
    fill="currentColor"
  />
</svg>
