<svg width="12" height="12" viewBox="0 0 12 12" fill="none" xmlns="http://www.w3.org/2000/svg" data-fui-icon="true">
  <path
    d="M9.21985 1.71973C9.51274 1.42686 9.98751 1.42684 10.2804 1.71973C10.5732 2.01261 10.5732 2.48739 10.2804 2.78027L2.7804 10.2803C2.48751 10.5732 2.01274 10.5731 1.71985 10.2803C1.42696 9.98738 1.42696 9.51262 1.71985 9.21973L9.21985 1.71973ZM9.00012 8C9.69045 8.00003 10.2501 8.55966 10.2501 9.25C10.2501 9.94034 9.69045 10.5 9.00012 10.5C8.30977 10.5 7.75012 9.94036 7.75012 9.25C7.75012 8.55964 8.30977 8 9.00012 8ZM3.00012 1.5C3.69045 1.50003 4.25012 2.05966 4.25012 2.75C4.25012 3.44034 3.69045 3.99997 3.00012 4C2.30977 4 1.75012 3.44036 1.75012 2.75C1.75012 2.05964 2.30977 1.5 3.00012 1.5Z"
    fill="currentColor"
  />
</svg>
