<svg width="16" height="16" viewBox="0 0 16 16" fill="none" xmlns="http://www.w3.org/2000/svg" data-fui-icon="true">
  <path
    d="M11.625 9.5C12.9367 9.5 14 10.5633 14 11.875C14 13.1867 12.9367 14.25 11.625 14.25C10.3133 14.25 9.25 13.1867 9.25 11.875C9.25 10.5633 10.3133 9.5 11.625 9.5ZM12.7197 2.21973C13.0126 1.92684 13.4874 1.92684 13.7803 2.21973C14.0732 2.51262 14.0732 2.98738 13.7803 3.28027L3.28027 13.7803C2.98738 14.0732 2.51262 14.0732 2.21973 13.7803C1.92683 13.4874 1.92683 13.0126 2.21973 12.7197L12.7197 2.21973ZM11.625 11C11.1418 11 10.75 11.3918 10.75 11.875C10.75 12.3582 11.1418 12.75 11.625 12.75C12.1082 12.75 12.5 12.3582 12.5 11.875C12.5 11.3918 12.1082 11 11.625 11ZM4.375 1.75C5.68668 1.75 6.75 2.81332 6.75 4.125C6.75 5.43668 5.68668 6.5 4.375 6.5C3.06332 6.5 2 5.43668 2 4.125C2 2.81332 3.06332 1.75 4.375 1.75ZM4.375 3.25C3.89175 3.25 3.5 3.64175 3.5 4.125C3.5 4.60825 3.89175 5 4.375 5C4.85825 5 5.25 4.60825 5.25 4.125C5.25 3.64175 4.85825 3.25 4.375 3.25Z"
    fill="currentColor"
  />
</svg>
