<svg width="24" height="24" viewBox="0 0 24 24" fill="none" xmlns="http://www.w3.org/2000/svg" data-fui-icon="true">
  <path
    d="M21.2939 1.29272C21.6845 0.90261 22.3176 0.902337 22.708 1.29272C23.0983 1.68312 23.0981 2.31626 22.708 2.70679L2.70801 22.7068C2.31751 23.0973 1.68448 23.0972 1.29395 22.7068C0.903421 22.3163 0.903421 21.6833 1.29395 21.2927L21.2939 1.29272ZM18.751 14.4998C21.0979 14.5 23.0008 16.4028 23.001 18.7498C23.001 21.0968 21.098 22.9995 18.751 22.9998C16.4038 22.9998 14.501 21.097 14.501 18.7498C14.5011 16.4027 16.4039 14.4998 18.751 14.4998ZM18.751 16.4998C17.5084 16.4998 16.5011 17.5072 16.501 18.7498C16.501 19.9924 17.5083 20.9998 18.751 20.9998C19.9934 20.9995 21.001 19.9922 21.001 18.7498C21.0008 17.5074 19.9933 16.5 18.751 16.4998ZM5.25 0.999756C7.59712 0.999756 9.49985 2.90267 9.5 5.24976C9.5 7.59697 7.59721 9.49976 5.25 9.49976C2.90301 9.49949 1 7.5968 1 5.24976C1.00015 2.90284 2.90311 1.00002 5.25 0.999756ZM5.25 2.99976C4.00768 3.00002 3.00015 4.0074 3 5.24976C3 6.49223 4.00758 7.49949 5.25 7.49976C6.49264 7.49976 7.5 6.4924 7.5 5.24976C7.49985 4.00724 6.49255 2.99976 5.25 2.99976Z"
    fill="currentColor"
  />
</svg>
