<svg width="20" height="20" viewBox="0 0 20 20" fill="none" xmlns="http://www.w3.org/2000/svg" data-fui-icon="true">
  <path
    d="M16.4395 1.43964C17.0252 0.853932 17.9748 0.853877 18.5605 1.43964C19.1462 2.02541 19.1462 2.97499 18.5605 3.56073L3.56055 18.5607C2.97481 19.1465 2.02525 19.1464 1.43945 18.5607C0.853667 17.9749 0.853667 17.0254 1.43945 16.4396L16.4395 1.43964ZM15 11.0002C17.2091 11.0002 19 12.791 19 15.0002C18.9999 17.2093 17.2091 19.0002 15 19.0002C12.7909 19.0002 11.0001 17.2093 11 15.0002C11 12.791 12.7909 11.0002 15 11.0002ZM15 14.0002C14.4477 14.0002 14 14.4479 14 15.0002C14.0001 15.5524 14.4478 16.0002 15 16.0002C15.5522 16.0002 15.9999 15.5524 16 15.0002C16 14.4479 15.5523 14.0002 15 14.0002ZM5 1.00018C7.20914 1.00018 9 2.79104 9 5.00018C8.99993 7.20927 7.2091 9.00018 5 9.00018C2.7909 9.00018 1.00007 7.20927 1 5.00018C1 2.79104 2.79086 1.00018 5 1.00018ZM5 4.00018C4.44772 4.00018 4 4.4479 4 5.00018C4.00007 5.55241 4.44776 6.00018 5 6.00018C5.55224 6.00018 5.99993 5.55241 6 5.00018C6 4.4479 5.55228 4.00018 5 4.00018Z"
    fill="currentColor"
  />
</svg>
