<svg width="12" height="12" viewBox="0 0 12 12" fill="none" xmlns="http://www.w3.org/2000/svg" data-fui-icon="true">
  <g clip-path="url(#clip0_882_1150)">
    <path
      d="M10.7197 0.220093C11.0126 -0.072795 11.4874 -0.0727986 11.7803 0.220093C12.0728 0.51301 12.0731 0.987853 11.7803 1.28064L1.28027 11.7806C0.987487 12.0734 0.512646 12.0732 0.219727 11.7806C-0.0731667 11.4877 -0.0731667 11.013 0.219727 10.7201L10.7197 0.220093ZM9.5 7.00037C10.8806 7.0005 12 8.11974 12 9.50037C11.9998 10.8808 10.8805 12.0002 9.5 12.0004C8.11941 12.0004 7.0002 10.8809 7 9.50037C7 8.11965 8.11929 7.00037 9.5 7.00037ZM9.5 8.50037C8.94771 8.50037 8.5 8.94808 8.5 9.50037C8.5002 10.0525 8.94784 10.5004 9.5 10.5004C10.0521 10.5002 10.4998 10.0524 10.5 9.50037C10.5 8.94816 10.0522 8.5005 9.5 8.50037ZM2.5 0.000366211C3.8806 0.000498164 5 1.11974 5 2.50037C4.9998 3.88083 3.88048 5.00023 2.5 5.00037C1.11941 5.00037 0.000197913 3.88091 0 2.50037C0 1.11965 1.11929 0.000366211 2.5 0.000366211ZM2.5 1.50037C1.94772 1.50037 1.5 1.94808 1.5 2.50037C1.5002 3.05248 1.94784 3.50037 2.5 3.50037C3.05205 3.50023 3.4998 3.0524 3.5 2.50037C3.5 1.94816 3.05217 1.5005 2.5 1.50037Z"
      fill="currentColor"
    />
  </g>
  <defs>
    <clipPath id="clip0_882_1150"><path fill="currentColor" d="M0 0H12V12H0z" /></clipPath>
  </defs>
</svg>
