<svg width="32" height="32" viewBox="0 0 32 32" fill="none" xmlns="http://www.w3.org/2000/svg" data-fui-icon="true">
  <path
    d="M29.1895 0.689331C29.7752 0.103593 30.7248 0.103663 31.3105 0.689331C31.8963 1.27511 31.8963 2.22464 31.3105 2.81042L2.81055 31.3104C2.22476 31.8962 1.27524 31.8962 0.689453 31.3104C0.103782 30.7246 0.103705 29.7751 0.689453 29.1893L29.1895 0.689331ZM25.25 18.7499C28.8398 18.7499 31.7499 21.6601 31.75 25.2499C31.75 28.8397 28.8399 31.7499 25.25 31.7499C21.6601 31.7499 18.75 28.8397 18.75 25.2499C18.7501 21.6601 21.6602 18.7499 25.25 18.7499ZM25.25 21.7499C23.317 21.7499 21.7501 23.3169 21.75 25.2499C21.75 27.1829 23.317 28.7499 25.25 28.7499C27.183 28.7499 28.75 27.1829 28.75 25.2499C28.7499 23.3169 27.183 21.7499 25.25 21.7499ZM6.75 0.249878C10.3398 0.249878 13.2499 3.16008 13.25 6.74988C13.25 10.3397 10.3399 13.2499 6.75 13.2499C3.16015 13.2499 0.25 10.3397 0.25 6.74988C0.250066 3.16008 3.16019 0.249878 6.75 0.249878ZM6.75 3.24988C4.81704 3.24988 3.25007 4.81694 3.25 6.74988C3.25 8.68287 4.817 10.2499 6.75 10.2499C8.683 10.2499 10.25 8.68287 10.25 6.74988C10.2499 4.81694 8.68296 3.24988 6.75 3.24988Z"
    fill="currentColor"
  />
</svg>
