<svg width="16" height="16" viewBox="0 0 16 16" fill="none" xmlns="http://www.w3.org/2000/svg" data-fui-icon="true">
  <path
    d="M12.499 10C13.8797 10 14.999 11.1193 14.999 12.5C14.999 13.8807 13.8797 15 12.499 15C11.1183 15 9.99902 13.8807 9.99902 12.5C9.99902 11.1193 11.1183 10 12.499 10ZM13.7188 1.2207C14.0116 0.927844 14.4864 0.927821 14.7793 1.2207C15.0717 1.51362 15.072 1.98851 14.7793 2.28125L2.28027 14.7803C1.98754 15.073 1.51265 15.0727 1.21973 14.7803C0.92684 14.4874 0.926852 14.0126 1.21973 13.7197L13.7188 1.2207ZM12.499 11.5C11.9467 11.5 11.499 11.9477 11.499 12.5C11.499 13.0523 11.9467 13.5 12.499 13.5C13.0513 13.5 13.499 13.0523 13.499 12.5C13.499 11.9477 13.0513 11.5 12.499 11.5ZM3.5 1.00098C4.8805 1.00123 6 2.12042 6 3.50098C5.99976 4.88133 4.88035 6.00072 3.5 6.00098C2.11943 6.00098 1.00024 4.88149 1 3.50098C1 2.12026 2.11929 1.00098 3.5 1.00098ZM3.5 2.50098C2.94772 2.50098 2.5 2.94869 2.5 3.50098C2.50024 4.05306 2.94786 4.50098 3.5 4.50098C4.05193 4.50072 4.49976 4.05291 4.5 3.50098C4.5 2.94885 4.05207 2.50123 3.5 2.50098Z"
    fill="currentColor"
  />
</svg>
