<svg width="24" height="24" viewBox="0 0 24 24" fill="none" xmlns="http://www.w3.org/2000/svg" data-fui-icon="true">
  <path
    d="M17.375 14.25C19.1009 14.25 20.5 15.6491 20.5 17.375C20.5 19.1009 19.1009 20.5 17.375 20.5C15.6491 20.5 14.25 19.1009 14.25 17.375C14.25 15.6491 15.6491 14.25 17.375 14.25ZM18.7197 4.21973C19.0126 3.92685 19.4874 3.92684 19.7803 4.21973C20.0732 4.51262 20.0732 4.98738 19.7803 5.28027L5.28027 19.7803C4.98738 20.0732 4.51262 20.0732 4.21973 19.7803C3.92683 19.4874 3.92683 19.0126 4.21973 18.7197L18.7197 4.21973ZM17.375 15.75C16.4775 15.75 15.75 16.4775 15.75 17.375C15.75 18.2725 16.4775 19 17.375 19C18.2725 19 19 18.2725 19 17.375C19 16.4775 18.2725 15.75 17.375 15.75ZM6.625 3.5C8.35089 3.5 9.75 4.89911 9.75 6.625C9.75 8.35089 8.35089 9.75 6.625 9.75C4.89911 9.75 3.5 8.35089 3.5 6.625C3.5 4.89911 4.89911 3.5 6.625 3.5ZM6.625 5C5.72754 5 5 5.72754 5 6.625C5 7.52246 5.72754 8.25 6.625 8.25C7.52246 8.25 8.25 7.52246 8.25 6.625C8.25 5.72754 7.52246 5 6.625 5Z"
    fill="currentColor"
  />
</svg>
