<svg width="12" height="12" viewBox="0 0 12 12" fill="none" xmlns="http://www.w3.org/2000/svg" data-fui-icon="true">
  <path
    d="M10.293 0.292969C10.6835 -0.0975556 11.3165 -0.0975556 11.707 0.292969C12.0976 0.683493 12.0976 1.31651 11.707 1.70703L1.70703 11.707C1.31651 12.0976 0.683493 12.0976 0.292969 11.707C-0.0975556 11.3165 -0.0975556 10.6835 0.292969 10.293L10.293 0.292969ZM9.5 7C10.8807 7 12 8.11929 12 9.5C12 10.8807 10.8807 12 9.5 12C8.11929 12 7 10.8807 7 9.5C7 8.11929 8.11929 7 9.5 7ZM9.5 9C9.22386 9 9 9.22386 9 9.5C9 9.77614 9.22386 10 9.5 10C9.77614 10 10 9.77614 10 9.5C10 9.22386 9.77614 9 9.5 9ZM2.5 0C3.88071 0 5 1.11929 5 2.5C5 3.88071 3.88071 5 2.5 5C1.11929 5 0 3.88071 0 2.5C0 1.11929 1.11929 0 2.5 0ZM2.5 2C2.22386 2 2 2.22386 2 2.5C2 2.77614 2.22386 3 2.5 3C2.77614 3 3 2.77614 3 2.5C3 2.22386 2.77614 2 2.5 2Z"
    fill="currentColor"
  />
</svg>
