<svg width="20" height="20" viewBox="0 0 20 20" fill="none" xmlns="http://www.w3.org/2000/svg" data-fui-icon="true">
  <path
    d="M16.4395 1.43958C17.0252 0.853871 17.9748 0.853816 18.5605 1.43958C19.1462 2.02535 19.1462 2.97492 18.5605 3.56067L3.56055 18.5607C2.97481 19.1464 2.02525 19.1463 1.43945 18.5607C0.853667 17.9749 0.853667 17.0254 1.43945 16.4396L16.4395 1.43958ZM15 11.0001C17.2091 11.0001 19 12.791 19 15.0001C18.9999 17.2092 17.2091 19.0001 15 19.0001C12.7909 19.0001 11.0001 17.2092 11 15.0001C11 12.791 12.7909 11.0001 15 11.0001ZM15 14.0001C14.4477 14.0001 14 14.4478 14 15.0001C14.0001 15.5524 14.4478 16.0001 15 16.0001C15.5522 16.0001 15.9999 15.5524 16 15.0001C16 14.4478 15.5523 14.0001 15 14.0001ZM5 1.00012C7.20914 1.00012 9 2.79098 9 5.00012C8.99993 7.2092 7.2091 9.00012 5 9.00012C2.7909 9.00012 1.00007 7.2092 1 5.00012C1 2.79098 2.79086 1.00012 5 1.00012ZM5 4.00012C4.44772 4.00012 4 4.44784 4 5.00012C4.00007 5.55235 4.44776 6.00012 5 6.00012C5.55224 6.00012 5.99993 5.55235 6 5.00012C6 4.44784 5.55228 4.00012 5 4.00012Z"
    fill="currentColor"
  />
</svg>
