<svg width="12" height="12" viewBox="0 0 12 12" fill="none" xmlns="http://www.w3.org/2000/svg" data-fui-icon="true">
  <path
    d="M9.86591 0.3662C10.354 -0.121717 11.1453 -0.121717 11.6334 0.3662C12.1215 0.854284 12.1214 1.64557 11.6334 2.13372L2.13372 11.6334C1.64558 12.1216 0.85434 12.1216 0.3662 11.6334C-0.121773 11.1453 -0.121885 10.354 0.3662 9.86591L9.86591 0.3662ZM9.49971 6.99979C10.8803 6.99979 11.9994 8.11921 11.9996 9.49971C11.9996 10.8804 10.8804 11.9996 9.49971 11.9996C8.11904 11.9996 6.99979 10.8804 6.99979 9.49971C6.99998 8.11921 8.11916 6.99979 9.49971 6.99979ZM2.49992 0C3.88047 0 4.99965 1.11942 4.99985 2.49992C4.99985 3.88059 3.88059 4.99985 2.49992 4.99985C1.11925 4.99985 0 3.88059 0 2.49992C0.000197888 1.11942 1.11938 0 2.49992 0Z"
    fill="currentColor"
  />
</svg>
