<svg width="32" height="32" viewBox="0 0 32 32" fill="none" xmlns="http://www.w3.org/2000/svg" data-fui-icon="true">
  <path
    d="M29.293 1.29297C29.6835 0.902445 30.3165 0.902445 30.707 1.29297C31.0975 1.68349 31.0976 2.31651 30.707 2.70703L2.70703 30.707C2.31651 31.0975 1.68349 31.0975 1.29297 30.707C0.902446 30.3165 0.902449 29.6835 1.29297 29.293L29.293 1.29297ZM25.25 19.5C28.4256 19.5 31 22.0744 31 25.25C31 28.4256 28.4256 31 25.25 31C22.0744 31 19.5 28.4256 19.5 25.25C19.5 22.0744 22.0744 19.5 25.25 19.5ZM25.25 21.5C23.1789 21.5 21.5 23.1789 21.5 25.25C21.5 27.3211 23.1789 29 25.25 29C27.3211 29 29 27.3211 29 25.25C29 23.1789 27.3211 21.5 25.25 21.5ZM6.75 1C9.92564 1 12.5 3.57436 12.5 6.75C12.5 9.92564 9.92564 12.5 6.75 12.5C3.57436 12.5 1 9.92564 1 6.75C1 3.57436 3.57436 1 6.75 1ZM6.75 3C4.67893 3 3 4.67893 3 6.75C3 8.82107 4.67893 10.5 6.75 10.5C8.82107 10.5 10.5 8.82107 10.5 6.75C10.5 4.67893 8.82107 3 6.75 3Z"
    fill="currentColor"
  />
</svg>
