<svg width="12" height="12" viewBox="0 0 12 12" fill="none" xmlns="http://www.w3.org/2000/svg" data-fui-icon="true">
  <g clip-path="url(#clip0_882_1150)">
    <path
      d="M10.7197 0.219971C11.0126 -0.0729171 11.4874 -0.0729207 11.7803 0.219971C12.0728 0.512888 12.0731 0.987731 11.7803 1.28052L1.28027 11.7805C0.987487 12.0733 0.512646 12.0731 0.219727 11.7805C-0.0731667 11.4876 -0.0731667 11.0129 0.219727 10.72L10.7197 0.219971ZM9.5 7.00024C10.8806 7.00038 12 8.11961 12 9.50024C11.9998 10.8807 10.8805 12.0001 9.5 12.0002C8.11941 12.0002 7.0002 10.8808 7 9.50024C7 8.11953 8.11929 7.00024 9.5 7.00024ZM9.5 8.50024C8.94771 8.50024 8.5 8.94796 8.5 9.50024C8.5002 10.0524 8.94784 10.5002 9.5 10.5002C10.0521 10.5001 10.4998 10.0523 10.5 9.50024C10.5 8.94804 10.0522 8.50038 9.5 8.50024ZM2.5 0.000244141C3.8806 0.000376094 5 1.11961 5 2.50024C4.9998 3.88071 3.88048 5.00011 2.5 5.00024C1.11941 5.00024 0.000197913 3.88079 0 2.50024C0 1.11953 1.11929 0.000244141 2.5 0.000244141ZM2.5 1.50024C1.94772 1.50024 1.5 1.94796 1.5 2.50024C1.5002 3.05236 1.94784 3.50024 2.5 3.50024C3.05205 3.50011 3.4998 3.05228 3.5 2.50024C3.5 1.94804 3.05217 1.50038 2.5 1.50024Z"
      fill="currentColor"
    />
  </g>
  <defs>
    <clipPath id="clip0_882_1150"><path fill="currentColor" d="M0 0H12V12H0z" /></clipPath>
  </defs>
</svg>
