<svg width="16" height="16" viewBox="0 0 16 16" fill="none" xmlns="http://www.w3.org/2000/svg" data-fui-icon="true">
  <path
    d="M13.293 1.2934C13.6835 0.902872 14.3165 0.902872 14.707 1.2934C15.0975 1.68393 15.0975 2.31697 14.707 2.70746L2.70703 14.7075C2.31651 15.0976 1.6834 15.0978 1.29297 14.7075C0.902547 14.317 0.902752 13.6839 1.29297 13.2934L13.293 1.2934ZM12.25 9.50043C13.7688 9.50043 15 10.7316 15 12.2504C14.9998 13.769 13.7686 15.0004 12.25 15.0004C10.7315 15.0003 9.50023 13.7689 9.5 12.2504C9.5 10.7317 10.7313 9.50054 12.25 9.50043ZM12.25 11.5004C11.8359 11.5005 11.5 11.8363 11.5 12.2504C11.5002 12.6644 11.836 13.0003 12.25 13.0004C12.6641 13.0004 12.9998 12.6644 13 12.2504C13 11.8362 12.6642 11.5004 12.25 11.5004ZM3.75 1.00043C5.26878 1.00043 6.5 2.23164 6.5 3.75043C6.49979 5.26903 5.26865 6.50043 3.75 6.50043C2.23145 6.50031 1.00021 5.26896 1 3.75043C1 2.23171 2.23131 1.00054 3.75 1.00043ZM3.75 3.00043C3.33588 3.00054 3 3.33628 3 3.75043C3.00021 4.16439 3.33602 4.50031 3.75 4.50043C4.16408 4.50043 4.49979 4.16446 4.5 3.75043C4.5 3.33621 4.16421 3.00043 3.75 3.00043Z"
    fill="currentColor"
  />
</svg>
