<svg width="32" height="32" viewBox="0 0 32 32" fill="none" xmlns="http://www.w3.org/2000/svg" data-fui-icon="true">
  <path
    d="M23.5 19.5C25.7091 19.5 27.5 21.2909 27.5 23.5C27.5 25.7091 25.7091 27.5 23.5 27.5C21.2909 27.5 19.5 25.7091 19.5 23.5C19.5 21.2909 21.2909 19.5 23.5 19.5ZM25.7197 5.21973C26.0126 4.92685 26.4874 4.92684 26.7803 5.21973C27.0731 5.51262 27.0731 5.98738 26.7803 6.28027L6.28027 26.7803C5.98738 27.0732 5.51262 27.0732 5.21973 26.7803C4.92683 26.4874 4.92683 26.0126 5.21973 25.7197L25.7197 5.21973ZM23.5 21C22.1193 21 21 22.1193 21 23.5C21 24.8807 22.1193 26 23.5 26C24.8807 26 26 24.8807 26 23.5C26 22.1193 24.8807 21 23.5 21ZM8.5 4.5C10.7091 4.5 12.5 6.29086 12.5 8.5C12.5 10.7091 10.7091 12.5 8.5 12.5C6.29086 12.5 4.5 10.7091 4.5 8.5C4.5 6.29086 6.29086 4.5 8.5 4.5ZM8.5 6C7.11929 6 6 7.11929 6 8.5C6 9.88071 7.11929 11 8.5 11C9.88071 11 11 9.88071 11 8.5C11 7.11929 9.88071 6 8.5 6Z"
    fill="currentColor"
  />
</svg>
