<svg width="20" height="20" viewBox="0 0 20 20" fill="none" xmlns="http://www.w3.org/2000/svg" data-fui-icon="true">
  <path
    d="M15.1299 1C17.2672 1 19 2.73278 19 4.87012V15.1299C19 17.2672 17.2672 19 15.1299 19H4.49023C2.56276 19 1 17.4372 1 15.5098V4.87012C1 2.73278 2.73278 1 4.87012 1H15.1299ZM4.87012 2.5C3.5612 2.5 2.5 3.5612 2.5 4.87012V10.9629L4.14551 9.03223C4.56842 8.53593 5.1878 8.25009 5.83984 8.25C6.46238 8.25 7.05696 8.51066 7.47852 8.96875L15.3193 17.4893C16.5396 17.3926 17.5 16.3749 17.5 15.1299V4.87012C17.5 3.5612 16.4388 2.5 15.1299 2.5H4.87012ZM12.5 5C13.8807 5 15 6.11929 15 7.5C15 8.88071 13.8807 10 12.5 10C11.1193 10 10 8.88071 10 7.5C10 6.11929 11.1193 5 12.5 5Z"
    fill="currentColor"
  />
</svg>
