<svg
  width="16"
  height="16"
  viewBox="0 0 16 16"
  fill="none"
  xmlns="http://www.w3.org/2000/svg"
  data-fui-icon="true"
>
  <path
    d="M14.125 1.625C15.082 1.625 15.875 2.41797 15.875 3.375V9.5C15.875 10.4844 15.082 11.25 14.125 11.25H4.5C3.51562 11.25 2.75 10.4844 2.75 9.5V3.375C2.75 2.41797 3.51562 1.625 4.5 1.625H14.125ZM14.5625 9.5V3.375C14.5625 3.15625 14.3438 2.9375 14.125 2.9375H4.5C4.25391 2.9375 4.0625 3.15625 4.0625 3.375V9.5C4.0625 9.74609 4.25391 9.9375 4.5 9.9375H4.9375L6.93359 7.28516C7.01562 7.17578 7.125 7.09375 7.28906 7.09375C7.42578 7.09375 7.53516 7.17578 7.61719 7.28516L8.24609 8.13281L9.94141 5.5625C10.0234 5.42578 10.1602 5.34375 10.3242 5.34375C10.4609 5.34375 10.5977 5.42578 10.6797 5.5625L13.6875 9.9375H14.125C14.3438 9.9375 14.5625 9.74609 14.5625 9.5ZM6.25 3.8125C6.71484 3.8125 7.125 4.22266 7.125 4.6875C7.125 5.17969 6.71484 5.5625 6.25 5.5625C5.75781 5.5625 5.375 5.17969 5.375 4.6875C5.375 4.22266 5.75781 3.8125 6.25 3.8125ZM12.5938 13.875C12.9492 13.875 13.25 13.6016 13.25 13.2188C13.25 12.8633 12.9492 12.5625 12.5938 12.5625H3.40625C2.3125 12.5625 1.4375 11.6875 1.4375 10.5938V4.03125C1.4375 3.67578 1.13672 3.375 0.78125 3.375C0.398438 3.375 0.125 3.67578 0.125 4.03125V10.5938C0.125 12.4258 1.57422 13.875 3.40625 13.875H12.5938Z"
    fill="currentColor"
  />
</svg>
