<svg width="20" height="20" viewBox="0 0 20 20" fill="none" xmlns="http://www.w3.org/2000/svg" data-fui-icon="true">
  <path
    d="M14.6504 0C17.6048 0.000210782 19.9998 2.3952 20 5.34961V14.6504C19.9998 17.6048 17.6048 19.9998 14.6504 20H5.34961C2.3952 19.9998 0.000211295 17.6048 0 14.6504V5.34961C0.00021104 2.3952 2.3952 0.000211037 5.34961 0H14.6504ZM13.875 9.9375C13.4736 9.9375 13.0885 10.0971 12.8047 10.3809L4.73438 18.4502C4.93475 18.4824 5.14016 18.5 5.34961 18.5H14.6504C16.7764 18.4998 18.4998 16.7764 18.5 14.6504V13.9326C18.4899 13.9236 18.4794 13.915 18.4697 13.9053L14.9453 10.3809C14.6615 10.0971 14.2764 9.9375 13.875 9.9375ZM5.34961 1.5C3.22362 1.50021 1.50021 3.22362 1.5 5.34961V14.6504C1.50014 16.0174 2.21314 17.2174 3.28711 17.9004C3.32215 17.7889 3.38133 17.6831 3.46973 17.5947L11.7441 9.32031C12.3092 8.7552 13.0758 8.4375 13.875 8.4375C14.6742 8.4375 15.4408 8.7552 16.0059 9.32031L18.5 11.8145V5.34961C18.4998 3.22362 16.7764 1.50021 14.6504 1.5H5.34961ZM6.75 4C8.26878 4 9.5 5.23122 9.5 6.75C9.5 8.26878 8.26878 9.5 6.75 9.5C5.23122 9.5 4 8.26878 4 6.75C4 5.23122 5.23122 4 6.75 4ZM6.75 5.5C6.05964 5.5 5.5 6.05964 5.5 6.75C5.5 7.44036 6.05964 8 6.75 8C7.44036 8 8 7.44036 8 6.75C8 6.05964 7.44036 5.5 6.75 5.5Z"
    fill="currentColor"
  />
</svg>
