<svg width="16" height="16" viewBox="0 0 16 16" fill="none" xmlns="http://www.w3.org/2000/svg" data-fui-icon="true">
  <path
    d="M11.7496 3.0004C14.0968 3.0004 15.9995 4.90313 15.9995 7.25027V11.7501C15.9993 14.0971 14.0966 16 11.7496 16H7.24978C4.90283 16 3.00015 14.097 2.99991 11.7501V7.25027C2.99991 4.90316 4.90268 3.00045 7.24978 3.0004H11.7496ZM10.9997 9.5002C10.8785 9.50022 10.7621 9.54831 10.6764 9.63398L6.07599 14.2335C6.43234 14.4022 6.82932 14.5 7.24978 14.5H11.7496C12.951 14.5 13.9688 13.728 14.3433 12.6544L11.3229 9.63398C11.2372 9.54829 11.1209 9.5002 10.9997 9.5002ZM7.24978 4.50035C5.73108 4.5004 4.49986 5.73156 4.49986 7.25027V11.7501C4.49995 12.3017 4.66353 12.8147 4.94321 13.2452L9.61592 8.57347C9.98291 8.2065 10.4807 8.00027 10.9997 8.00024C11.5187 8.00024 12.0164 8.20647 12.3834 8.57347L14.4996 10.6896V7.25027C14.4996 5.73153 13.2684 4.50035 11.7496 4.50035H7.24978ZM7.14822 0.210443C8.84358 -0.102328 10.1342 0.0291716 11.0915 0.652812C11.4381 0.87896 11.536 1.34397 11.3102 1.69087C11.0841 2.03767 10.6191 2.13548 10.2721 1.90961C9.77721 1.58724 8.94031 1.40352 7.41384 1.68598L3.77723 2.32757C2.2817 2.59127 1.28237 4.0175 1.54585 5.51302L2.12396 8.79026C2.19588 9.19817 1.92349 9.58745 1.51558 9.65937C1.10788 9.73108 0.719475 9.45864 0.647441 9.05099L0.0693338 5.77375C-0.337994 3.46242 1.20515 1.25762 3.51649 0.850072L7.14822 0.209466V0.210443ZM6.99979 5.75031C7.69012 5.75031 8.24975 6.30994 8.24975 7.00027C8.2495 7.6904 7.68997 8.25024 6.99979 8.25024C6.30965 8.25019 5.75007 7.69037 5.74982 7.00027C5.74982 6.30997 6.30949 5.75036 6.99979 5.75031Z"
    fill="currentColor"
  />
</svg>
