<svg width="12" height="12" viewBox="0 0 12 12" fill="none" xmlns="http://www.w3.org/2000/svg" data-fui-icon="true">
  <path
    d="M7.75 0C10.0972 5.36889e-09 12 1.90279 12 4.25V7.75C12 10.0972 10.0972 12 7.75 12H4.25C1.90279 12 0 10.0972 0 7.75V4.25C0 1.90279 1.90279 0 4.25 0H7.75ZM7.5 6.25C7.3788 6.25 7.26248 6.29811 7.17676 6.38379L3.25 10.3096C3.56021 10.4309 3.89683 10.5 4.25 10.5H7.75C8.88285 10.5 9.85412 9.81433 10.2754 8.83594L7.82324 6.38379C7.73752 6.29811 7.6212 6.25 7.5 6.25ZM4.25 1.5C2.73122 1.5 1.5 2.73122 1.5 4.25V7.75C1.5 8.36604 1.70472 8.93316 2.04688 9.3916L6.11621 5.32324C6.48323 4.95626 6.98098 4.75 7.5 4.75C8.01902 4.75 8.51677 4.95626 8.88379 5.32324L10.5 6.93945V4.25C10.5 2.73122 9.26878 1.5 7.75 1.5H4.25ZM4 2.75C4.69036 2.75 5.25 3.30964 5.25 4C5.25 4.69036 4.69036 5.25 4 5.25C3.30964 5.25 2.75 4.69036 2.75 4C2.75 3.30964 3.30964 2.75 4 2.75Z"
    fill="currentColor"
  />
</svg>
