<svg
  width="24"
  height="24"
  viewBox="0 0 24 24"
  fill="none"
  xmlns="http://www.w3.org/2000/svg"
  data-fui-icon="true"
>
  <path
    fill-rule="evenodd"
    clip-rule="evenodd"
    d="M7.38 3C6.3417 3 5.5 3.8417 5.5 4.88V15.62C5.5 16.6583 6.3417 17.5 7.38 17.5H20.62C21.6583 17.5 22.5 16.6583 22.5 15.62V4.88C22.5 3.8417 21.6583 3 20.62 3H7.38ZM4 4.88C4 3.01328 5.51328 1.5 7.38 1.5H20.62C22.4867 1.5 24 3.01328 24 4.88V15.62C24 17.4867 22.4867 19 20.62 19H7.38C5.51328 19 4 17.4867 4 15.62V4.88Z"
    fill="currentColor"
  />
  <path
    fill-rule="evenodd"
    clip-rule="evenodd"
    d="M8.84702 11C8.63933 11 8.44286 11.0943 8.31292 11.2563L5.33508 14.9692C5.07592 15.2924 4.60389 15.3442 4.28076 15.0851C3.95763 14.8259 3.90577 14.3539 4.16492 14.0308L7.14277 10.3178C7.5574 9.80083 8.1843 9.5 8.84702 9.5C9.46802 9.5 10.0597 9.76428 10.4741 10.2268L16.9489 17.453C17.2253 17.7615 17.1993 18.2357 16.8908 18.5121C16.5823 18.7885 16.1082 18.7625 15.8317 18.454L9.35693 11.2278C9.22705 11.0828 9.04163 11 8.84702 11Z"
    fill="currentColor"
  />
  <path
    fill-rule="evenodd"
    clip-rule="evenodd"
    d="M16.6354 12.327C17.0547 11.8042 17.6886 11.5 18.3587 11.5 18.9667 11.5 19.5477 11.7505 19.9651 12.1926L23.2883 15.7129C23.5727 16.014 23.559 16.4887 23.2578 16.7731 22.9566 17.0574 22.4819 17.0438 22.1976 16.7426L18.8743 13.2223C18.7404 13.0804 18.5538 13 18.3587 13 18.1436 13 17.9401 13.0976 17.8056 13.2654L15.3237 16.3599C15.0646 16.6831 14.5925 16.7349 14.2694 16.4758 13.9463 16.2166 13.8944 15.7446 14.1536 15.4214L16.6354 12.327zM14.75 6.5C14.0596 6.5 13.5 7.05964 13.5 7.75 13.5 8.44036 14.0596 9 14.75 9 15.4404 9 16 8.44036 16 7.75 16 7.05964 15.4404 6.5 14.75 6.5zM12 7.75C12 6.23122 13.2312 5 14.75 5 16.2688 5 17.5 6.23122 17.5 7.75 17.5 9.26878 16.2688 10.5 14.75 10.5 13.2312 10.5 12 9.26878 12 7.75z"
    fill="currentColor"
  />
  <path
    fill-rule="evenodd"
    clip-rule="evenodd"
    d="M1.25 3.4375C1.66421 3.4375 2 3.77329 2 4.1875V18.875C2 19.9105 2.83947 20.75 3.875 20.75H20.3125C20.7267 20.75 21.0625 21.0858 21.0625 21.5C21.0625 21.9142 20.7267 22.25 20.3125 22.25H3.875C2.01104 22.25 0.5 20.739 0.5 18.875V4.1875C0.5 3.77329 0.835786 3.4375 1.25 3.4375Z"
    fill="currentColor"
  />
</svg>
