<svg width="12" height="12" viewBox="0 0 12 12" fill="none" xmlns="http://www.w3.org/2000/svg" data-fui-icon="true">
  <path
    d="M9.25 0C10.7688 0 12 1.23122 12 2.75V9.25C12 10.7688 10.7688 12 9.25 12H2.75C1.23122 12 0 10.7688 0 9.25V2.75C0 1.23122 1.23122 0 2.75 0H9.25ZM2.75 1.5C2.05964 1.5 1.5 2.05964 1.5 2.75V5.97656L1.80176 5.62598C2.41638 4.91122 3.3122 4.50007 4.25488 4.5C5.08708 4.5 5.88733 4.82085 6.48926 5.39551L10.5 9.22461V2.75C10.5 2.05964 9.94036 1.5 9.25 1.5H2.75ZM8 3C8.55228 3 9 3.44772 9 4C9 4.55228 8.55228 5 8 5C7.44772 5 7 4.55228 7 4C7 3.44772 7.44772 3 8 3Z"
    fill="currentColor"
  />
</svg>
