<svg width="20" height="20" viewBox="0 0 20 20" fill="none" xmlns="http://www.w3.org/2000/svg" data-fui-icon="true">
  <path
    d="M15.0205 4.0061C15.3785 4.02429 15.727 4.07892 16.0625 4.16528C16.2301 4.20842 16.395 4.25878 16.5557 4.31763C16.8773 4.43541 17.1841 4.58462 17.4727 4.76001C17.6168 4.84761 17.757 4.94158 17.8916 5.04224C18.2285 5.29422 18.5343 5.58625 18.8018 5.9104C19.2296 6.42891 19.5602 7.03129 19.7646 7.68872C19.7901 7.7707 19.8134 7.8541 19.835 7.93774C19.9428 8.35682 19.9999 8.79657 20 9.24927V14.7493C20 17.6488 17.6495 19.9993 14.75 19.9993H9.25C7.40998 19.9992 5.79187 19.0522 4.85449 17.6194C4.84798 17.6094 4.84141 17.5991 4.83496 17.5891C4.79209 17.5226 4.75084 17.4545 4.71094 17.386C4.7008 17.3686 4.69061 17.3508 4.68066 17.3333C4.64336 17.2674 4.60677 17.2006 4.57227 17.1331C4.56285 17.1146 4.55315 17.0959 4.54395 17.0774C4.5063 17.0014 4.47054 16.924 4.43652 16.8459C4.43232 16.8363 4.42798 16.8263 4.42383 16.8167C4.35055 16.6457 4.28556 16.47 4.23047 16.2903C4.21593 16.2429 4.20268 16.1947 4.18945 16.1467C4.17948 16.1105 4.16937 16.0739 4.16016 16.0374C4.14574 15.9803 4.13265 15.9223 4.12012 15.8645C4.11011 15.8182 4.09959 15.7716 4.09082 15.7249C4.0847 15.6923 4.07974 15.659 4.07422 15.6262C4.06514 15.5722 4.05624 15.5177 4.04883 15.4631C4.04214 15.414 4.03559 15.3643 4.03027 15.3147C4.02583 15.273 4.02301 15.2307 4.01953 15.1887C4.01529 15.1376 4.01057 15.0859 4.00781 15.0344C4.00278 14.9402 4 14.8447 4 14.7493V9.24927C4.00005 8.86665 4.04235 8.49338 4.12012 8.13403C4.25978 7.4892 4.51743 6.88835 4.87012 6.35571C4.9256 6.27191 4.98289 6.18898 5.04297 6.10864C5.34516 5.70465 5.7044 5.34541 6.1084 5.04321C6.24314 4.94242 6.38304 4.84772 6.52734 4.76001C6.59948 4.71618 6.67271 4.67346 6.74707 4.63306C6.97043 4.5117 7.20386 4.40602 7.44531 4.31763C7.60574 4.25891 7.77018 4.20835 7.9375 4.16528C8.1053 4.12209 8.27634 4.0864 8.4502 4.05981C8.71086 4.01997 8.9782 3.99929 9.25 3.99927H14.75C14.8406 3.99927 14.931 4.00157 15.0205 4.0061ZM15.25 10.7493C14.5713 10.7494 13.9195 11.0195 13.4395 11.4993L7.10938 17.8274C7.71647 18.2505 8.45395 18.4992 9.25 18.4993H14.75C16.8211 18.4993 18.5 16.8203 18.5 14.7493V12.9387L17.0605 11.4993C16.5804 11.0194 15.9288 10.7493 15.25 10.7493ZM9.75879 0.0822754C11.9453 -0.302871 14.0527 0.726054 15.1465 2.51099C15.0157 2.50342 14.8836 2.49928 14.751 2.49927H9.25098C5.52328 2.49927 2.50135 5.52166 2.50098 9.24927V14.7493C2.50098 14.9589 2.51157 15.1665 2.53027 15.3713C1.83521 14.6903 1.32309 13.8104 1.0918 12.801L1.03809 12.5364L0.0830078 7.11938C-0.420235 4.26409 1.4865 1.54083 4.3418 1.03735L9.75879 0.0822754ZM9.5 7.24927C8.2578 7.24947 7.25044 8.25712 7.25 9.49927C7.25007 10.7417 8.25757 11.7491 9.5 11.7493C10.7425 11.7491 11.7499 10.7418 11.75 9.49927C11.7496 8.25708 10.7423 7.2494 9.5 7.24927Z"
    fill="currentColor"
  />
</svg>
