<svg width="16" height="16" viewBox="0 0 16 16" fill="none" xmlns="http://www.w3.org/2000/svg" data-fui-icon="true">
  <path
    d="M11.75 0C14.0972 0 16 1.90279 16 4.25V11.75C16 14.0972 14.0972 16 11.75 16H4.25C1.90279 16 0 14.0972 0 11.75V4.25C1.28853e-07 1.90279 1.90279 0 4.25 0H11.75ZM11.25 6.75C10.571 6.75007 9.91959 7.01996 9.43945 7.5L2.83398 14.1035C3.24803 14.3532 3.73127 14.5 4.25 14.5H11.75C13.2688 14.5 14.5 13.2688 14.5 11.75V8.93945L13.0605 7.5C12.5804 7.01996 11.929 6.75006 11.25 6.75ZM5.5 3.25C4.25748 3.25014 3.25 4.25745 3.25 5.5C3.25 6.74255 4.25748 7.74986 5.5 7.75C6.74253 7.74987 7.75 6.74256 7.75 5.5C7.75 4.25744 6.74253 3.25013 5.5 3.25Z"
    fill="currentColor"
  />
</svg>
