<svg width="24" height="24" viewBox="0 0 24 24" fill="none" xmlns="http://www.w3.org/2000/svg" data-fui-icon="true">
  <path
    d="M17.75 2C20.0972 2 22 3.90279 22 6.25V17.75C22 20.0972 20.0972 22 17.75 22H6.25C3.90279 22 2 20.0972 2 17.75V6.25C2 3.90279 3.90279 2 6.25 2H17.75ZM6.25 3.5C4.73122 3.5 3.5 4.73122 3.5 6.25V13.8652L5.14258 11.8174C5.55714 11.3006 6.18416 11.0001 6.84668 11C7.46752 11 8.05924 11.2643 8.47363 11.7266L12.6133 16.3467L14.6348 13.8271C14.9491 13.4352 15.3847 13.1658 15.8652 13.0557C16.0255 13.0189 16.1909 13 16.3584 13C16.9662 13 17.5475 13.2505 17.9648 13.6924L20.5 16.3779V6.25C20.5 4.73122 19.2688 3.5 17.75 3.5H6.25ZM13 5C14.6569 5 16 6.34315 16 8C16 9.65685 14.6569 11 13 11C11.3431 11 10 9.65685 10 8C10 6.34315 11.3431 5 13 5Z"
    fill="currentColor"
  />
</svg>
