<svg width="16" height="16" viewBox="0 0 16 16" fill="none" xmlns="http://www.w3.org/2000/svg" data-fui-icon="true">
  <path
    fill-rule="evenodd"
    clip-rule="evenodd"
    d="M11.7498 2.99975C13.51 2.99975 15.0205 4.07025 15.6658 5.59545C15.7196 5.72265 15.7679 5.8529 15.8094 5.98608C15.9335 6.38524 15.9998 6.80974 15.9998 7.24975V11.7497C15.9998 14.097 14.097 15.9997 11.7498 15.9997H7.2498C5.75231 15.9996 4.43636 15.2248 3.67949 14.0544C3.67553 14.0483 3.67169 14.042 3.66777 14.0359C3.37266 13.5743 3.16485 13.0521 3.06621 12.4919C3.06293 12.4734 3.05947 12.4549 3.05644 12.4363C3.03992 12.3345 3.02653 12.2317 3.01738 12.1277C3.0142 12.0917 3.01184 12.0555 3.00956 12.0193C3.0082 11.9975 3.00571 11.9757 3.00468 11.9538C3.00148 11.8863 2.9998 11.8181 2.9998 11.7497V7.24975C2.99996 4.90283 4.90291 3.00001 7.2498 2.99975H11.7498ZM10.9998 7.99975C10.481 7.99988 9.98291 8.20614 9.61601 8.57299L4.94316 13.2439C5.43323 13.9992 6.2824 14.4996 7.2498 14.4997H11.7498C13.2686 14.4997 14.4998 13.2685 14.4998 11.7497V10.6892L12.3836 8.57299C12.0166 8.20623 11.5187 7.99975 10.9998 7.99975ZM7.94804 0.0690841C9.48829 -0.202475 10.9803 0.393431 11.9256 1.50463C11.8673 1.50288 11.8085 1.50073 11.7498 1.50072H7.2498C4.07444 1.50104 1.49981 4.07529 1.4998 7.25072V11.7507C1.49981 11.7767 1.50141 11.8029 1.50175 11.8288C1.18362 11.3533 0.956156 10.8054 0.850385 10.2058L0.0691352 5.77416C-0.338292 3.46288 1.20524 1.25916 3.5164 0.851311L7.94804 0.0690841ZM6.9998 5.74975C6.30977 5.75001 5.74996 6.30969 5.7498 6.99975C5.7498 7.68994 6.30967 8.24948 6.9998 8.24975C7.69016 8.24975 8.2498 7.6901 8.2498 6.99975C8.24964 6.30953 7.69006 5.74975 6.9998 5.74975Z"
    fill="currentColor"
  />
</svg>
