<svg width="20" height="20" viewBox="0 0 20 20" fill="none" xmlns="http://www.w3.org/2000/svg" data-fui-icon="true">
  <path
    fill-rule="evenodd"
    clip-rule="evenodd"
    d="M15.0201 4.00603C15.378 4.02421 15.7266 4.07884 16.0621 4.16521C16.2297 4.20835 16.3945 4.25871 16.5552 4.31755C16.8768 4.43534 17.1836 4.58454 17.4722 4.75994C17.6164 4.84754 17.7566 4.94151 17.8912 5.04216C18.2281 5.29414 18.5339 5.58618 18.8013 5.91033C19.2292 6.42883 19.5597 7.03122 19.7642 7.68865C19.7897 7.77063 19.813 7.85402 19.8345 7.93767C19.9423 8.35674 19.9995 8.79649 19.9996 9.24919V14.7492C19.9996 17.6487 17.6491 19.9992 14.7496 19.9992H9.24957C7.40955 19.9991 5.79144 19.0522 4.85406 17.6193C4.84756 17.6094 4.84098 17.599 4.83453 17.589C4.79166 17.5225 4.75041 17.4545 4.71051 17.3859C4.70037 17.3685 4.69018 17.3507 4.68024 17.3332C4.64293 17.2673 4.60634 17.2006 4.57184 17.133C4.56242 17.1146 4.55272 17.0959 4.54352 17.0773C4.50587 17.0013 4.47011 16.9239 4.4361 16.8459C4.43189 16.8363 4.42755 16.8262 4.4234 16.8166C4.35012 16.6457 4.28513 16.4699 4.23004 16.2902C4.2155 16.2428 4.20225 16.1946 4.18903 16.1467C4.17905 16.1105 4.16894 16.0738 4.15973 16.0373C4.14531 15.9802 4.13222 15.9222 4.11969 15.8644C4.10968 15.8182 4.09917 15.7715 4.09039 15.7248C4.08427 15.6922 4.07931 15.6589 4.07379 15.6261C4.06472 15.5722 4.05581 15.5176 4.0484 15.4631C4.04171 15.4139 4.03516 15.3642 4.02985 15.3146C4.0254 15.273 4.02258 15.2306 4.0191 15.1886C4.01486 15.1375 4.01015 15.0859 4.00738 15.0344C4.00236 14.9402 3.99957 14.8446 3.99957 14.7492V9.24919C3.99962 8.86658 4.04192 8.49331 4.11969 8.13396C4.25935 7.48913 4.517 6.88828 4.86969 6.35564C4.92517 6.27184 4.98247 6.18891 5.04254 6.10857C5.34474 5.70458 5.70397 5.34533 6.10797 5.04314C6.24271 4.94235 6.38261 4.84765 6.52692 4.75994C6.59905 4.7161 6.67228 4.67338 6.74664 4.63298C6.97 4.51163 7.20343 4.40595 7.44488 4.31755C7.60532 4.25884 7.76975 4.20828 7.93707 4.16521C8.10487 4.12201 8.27591 4.08632 8.44977 4.05974C8.71043 4.0199 8.97778 3.99921 9.24957 3.99919H14.7496C14.8402 3.99919 14.9306 4.00149 15.0201 4.00603ZM15.2496 10.7492C14.5709 10.7493 13.9191 11.0194 13.439 11.4992L7.10895 17.8273C7.71604 18.2504 8.45352 18.4991 9.24957 18.4992H14.7496C16.8206 18.4992 18.4996 16.8203 18.4996 14.7492V12.9386L17.0601 11.4992C16.58 11.0193 15.9284 10.7493 15.2496 10.7492ZM9.75738 0.0831788C11.9446 -0.302478 14.0531 0.726295 15.147 2.51189C15.0155 2.50426 14.883 2.50017 14.7496 2.50017H9.24957C5.5218 2.50034 2.49957 5.52236 2.49957 9.25017V14.7502C2.49958 14.9586 2.51038 15.1648 2.52887 15.3683C1.77483 14.6285 1.23509 13.6558 1.03766 12.5363L0.08258 7.12029C-0.420905 4.26488 1.48599 1.5418 4.34137 1.03826L9.75738 0.0831788ZM9.49957 7.24919C8.25737 7.24939 7.25001 8.25705 7.24957 9.49919C7.24964 10.7417 8.25714 11.749 9.49957 11.7492C10.7421 11.7491 11.7495 10.7417 11.7496 9.49919C11.7491 8.25701 10.7418 7.24933 9.49957 7.24919Z"
    fill="currentColor"
  />
</svg>
