<svg
  width="32"
  height="32"
  viewBox="0 0 32 32"
  fill="none"
  xmlns="http://www.w3.org/2000/svg"
  data-fui-icon="true"
>
  <path
    fill-rule="evenodd"
    clip-rule="evenodd"
    d="M3.49999 7.75C3.49999 5.40279 5.40278 3.5 7.74999 3.5H24.25C26.5972 3.5 28.5 5.40279 28.5 7.75V22.5991L23.9755 17.7579C23.2255 16.9555 22.1764 16.5 21.0781 16.5C19.884 16.5 18.7535 17.038 18.0004 17.9646L16.3074 20.0478L12.2491 15.7681C11.4814 14.9585 10.4147 14.5 9.299 14.5C8.1289 14.5 7.01553 15.0041 6.24359 15.8835L3.49999 19.0088V7.75ZM1.99999 20.9959V7.75C1.99999 4.57436 4.57436 2 7.74999 2H24.25C27.4256 2 30 4.57436 30 7.75V24.25C30 24.3115 29.999 24.3728 29.9971 24.4339C30.0031 24.5024 29.9997 24.5715 29.987 24.6391C29.787 27.6333 27.2949 30 24.25 30H24.0016C24.0006 30 23.9996 30 23.9986 30H7.74999C4.57436 30 1.99999 27.4256 1.99999 24.25V21.0035C1.99998 21.001 1.99998 20.9984 1.99999 20.9959ZM21.25 10C21.25 11.7949 19.7949 13.25 18 13.25C16.2051 13.25 14.75 11.7949 14.75 10C14.75 8.20507 16.2051 6.75 18 6.75C19.7949 6.75 21.25 8.20507 21.25 10Z"
    fill="currentColor"
    fill-opacity=".875"
  />
</svg>
