<svg width="32" height="32" viewBox="0 0 32 32" fill="none" xmlns="http://www.w3.org/2000/svg" data-fui-icon="true">
  <path
    fill-rule="evenodd"
    clip-rule="evenodd"
    d="M23.2508 6.00129C23.5185 6.0013 23.7831 6.01484 24.0438 6.04133C24.1739 6.05456 24.3033 6.07057 24.4315 6.09016C24.6877 6.12933 24.94 6.18084 25.1873 6.24446C25.9304 6.43557 26.6301 6.73496 27.2694 7.12336C27.6953 7.3822 28.0949 7.68053 28.4618 8.01399C28.5536 8.09742 28.6436 8.18312 28.7313 8.27082C28.9066 8.44614 29.0734 8.63023 29.2313 8.82161C29.4681 9.10861 29.6846 9.41325 29.8788 9.73274C30.0081 9.94569 30.1284 10.1652 30.2372 10.3909C30.2915 10.5038 30.3424 10.6188 30.3914 10.7347C30.5384 11.0822 30.6612 11.4426 30.7567 11.8138C30.8841 12.309 30.9642 12.8235 30.9911 13.3519C30.9978 13.484 31.0008 13.6175 31.0008 13.7513V23.2513C31.0005 27.5312 27.5308 31.0012 23.2508 31.0013H13.7508C12.2324 31.0013 10.8167 30.5626 9.62094 29.8079C9.60526 29.798 9.58967 29.7877 9.57407 29.7777C9.47649 29.7151 9.3805 29.6501 9.28598 29.5833C9.25363 29.5605 9.22128 29.5373 9.1893 29.514C9.13072 29.4713 9.07279 29.4275 9.01547 29.3831C8.99734 29.3691 8.97879 29.3553 8.96078 29.3411C8.69904 29.135 8.45057 28.9127 8.21762 28.6751C8.16543 28.6219 8.11397 28.5677 8.06332 28.513C8.02486 28.4715 7.98662 28.4294 7.94907 28.387C7.92293 28.3575 7.89761 28.3271 7.87192 28.2972C7.80884 28.2238 7.74671 28.1493 7.68637 28.0736C7.6516 28.0299 7.61669 27.9861 7.58285 27.9417C7.54708 27.8948 7.5121 27.8469 7.47739 27.7991C7.44642 27.7565 7.4157 27.7135 7.38559 27.6702C7.33487 27.5973 7.2854 27.5233 7.23715 27.4486C7.21495 27.4142 7.19242 27.3798 7.17075 27.345C7.13842 27.2932 7.10714 27.2405 7.07602 27.1878C7.04778 27.1401 7.02024 27.0917 6.99301 27.0433C6.96228 26.9886 6.93162 26.9337 6.90219 26.8782C6.86388 26.8061 6.82694 26.733 6.79086 26.6595C6.77365 26.6244 6.7558 26.5894 6.7391 26.554C6.70228 26.4761 6.66693 26.3971 6.63266 26.3177C6.6201 26.2886 6.60777 26.2591 6.59555 26.2298C6.55778 26.1392 6.52155 26.0477 6.48715 25.9554C6.47751 25.9295 6.4682 25.9033 6.45883 25.8773C6.38137 25.6624 6.31227 25.4433 6.25375 25.22C6.24781 25.1974 6.24191 25.1744 6.23618 25.1517C6.21335 25.0612 6.19231 24.9699 6.1727 24.8782C6.1639 24.8371 6.15545 24.7956 6.14731 24.7542C6.07978 24.411 6.03504 24.0594 6.0145 23.7015C6.01204 23.6587 6.01039 23.6156 6.00864 23.5726C6.00428 23.4661 6.00083 23.3589 6.00082 23.2513V13.7513C6.00082 13.0823 6.08561 12.433 6.24496 11.8138C6.34048 11.4426 6.46325 11.0822 6.6102 10.7347C6.65926 10.6187 6.711 10.504 6.76547 10.3909C6.87421 10.1653 6.99358 9.9456 7.12289 9.73274C7.31703 9.41322 7.5335 9.10863 7.77035 8.82161C7.92845 8.63001 8.09583 8.44631 8.27133 8.27082C8.35891 8.18326 8.44821 8.0973 8.53989 8.01399C8.90682 7.68049 9.30627 7.38223 9.73227 7.12336C10.3715 6.73492 11.0713 6.43559 11.8143 6.24446C12.062 6.18075 12.3146 6.12935 12.5711 6.09016C12.6993 6.07058 12.8287 6.05455 12.9588 6.04133C13.2192 6.0149 13.4835 6.0013 13.7508 6.00129H23.2508ZM24.1317 17.1741C23.1381 17.1743 22.1849 17.5692 21.4823 18.2718L10.9266 28.8255C11.7751 29.2562 12.7342 29.5013 13.7508 29.5013H23.2508C26.7024 29.5012 29.5005 26.7028 29.5008 23.2513V20.9896L26.7821 18.2718C26.0794 17.5692 25.1254 17.1742 24.1317 17.1741ZM17.0077 1.36653C19.5693 0.914882 22.0576 1.77774 23.7831 3.47004C24.1876 3.86687 23.8175 4.5002 23.2508 4.50032H13.7508C8.64231 4.50032 4.50102 8.64185 4.50082 13.7503V23.2503C4.50069 23.6977 3.94118 23.9155 3.73813 23.5169C3.39932 22.8509 3.15203 22.124 3.01547 21.3499L1.36606 11.9935C0.62301 7.77849 3.43725 3.75929 7.65219 3.01594L17.0077 1.36653ZM14.4998 11.0003C12.567 11.0005 10.9998 12.5674 10.9998 14.5003C11.0001 16.433 12.5671 18.0001 14.4998 18.0003C16.4327 18.0003 17.9996 16.4331 17.9998 14.5003C17.9998 12.5673 16.4328 11.0004 14.4998 11.0003Z"
    fill="currentColor"
  />
</svg>
