<svg width="20" height="20" viewBox="0 0 20 20" fill="none" xmlns="http://www.w3.org/2000/svg" data-fui-icon="true">
  <path
    fill-rule="evenodd"
    clip-rule="evenodd"
    d="M14.5 3C13.1193 3 12 4.11929 12 5.5C12 6.88071 13.1193 8 14.5 8C15.8807 8 17 6.88071 17 5.5C17 4.11929 15.8807 3 14.5 3ZM13.5 5.5C13.5 4.94772 13.9477 4.5 14.5 4.5C15.0523 4.5 15.5 4.94772 15.5 5.5C15.5 6.05228 15.0523 6.5 14.5 6.5C13.9477 6.5 13.5 6.05228 13.5 5.5Z"
    fill="currentColor"
  />
  <path
    fill-rule="evenodd"
    clip-rule="evenodd"
    d="M6.75 16.5C4.95507 16.5 3.5 15.0449 3.5 13.25V3.75C3.5 1.95507 4.95507 0.5 6.75 0.5H16.25C18.0449 0.5 19.5 1.95507 19.5 3.75V13.25C19.5 15.0449 18.0449 16.5 16.25 16.5H6.75ZM5 3.75C5 2.7835 5.7835 2 6.75 2H16.25C17.2165 2 18 2.7835 18 3.75V13.25C18 13.5778 17.9099 13.8845 17.7531 14.1468L9.97795 5.71722C9.55626 5.26005 8.96263 5 8.34067 5C7.68819 5 7.06852 5.28609 6.64532 5.78272L5 7.71352V3.75ZM8.87535 6.73422L16.485 14.9844C16.4081 14.9947 16.3297 15 16.25 15H6.75C5.7835 15 5 14.2165 5 13.25V10.0262L7.78702 6.75561C7.92522 6.59343 8.12759 6.5 8.34067 6.5C8.54378 6.5 8.73764 6.58492 8.87535 6.73422Z"
    fill="currentColor"
  />
  <path
    d="M2 3.75C2 3.33579 1.66421 3 1.25 3C0.835786 3 0.5 3.33579 0.5 3.75V16.25C0.5 18.0449 1.95507 19.5 3.75 19.5H16.25C16.6642 19.5 17 19.1642 17 18.75C17 18.3358 16.6642 18 16.25 18H3.75C2.7835 18 2 17.2165 2 16.25V3.75Z"
    fill="currentColor"
  />
</svg>
