<svg width="24" height="24" viewBox="0 0 24 24" fill="none" xmlns="http://www.w3.org/2000/svg" data-fui-icon="true">
  <path
    fill-rule="evenodd"
    clip-rule="evenodd"
    d="M18.0706 4.01257C18.2838 4.02337 18.4943 4.04439 18.7014 4.07605C18.8049 4.09186 18.9074 4.11089 19.009 4.13171C19.3143 4.19418 19.6115 4.27847 19.8987 4.38366C20.0901 4.45378 20.2771 4.53318 20.4592 4.62097C21.2789 5.01601 21.9994 5.58458 22.5725 6.27917C22.7634 6.51048 22.9376 6.75608 23.094 7.01355C23.4072 7.529 23.6488 8.09314 23.803 8.69226C23.8287 8.79214 23.8515 8.89324 23.8723 8.99499C23.9139 9.19824 23.9457 9.40519 23.9671 9.61511C23.9777 9.72012 23.9861 9.82601 23.9915 9.93249C23.9969 10.0391 23.9993 10.1468 23.9993 10.2548V17.7499C23.9991 21.2015 21.2009 23.9999 17.7493 23.9999H10.2493C7.93087 23.9999 5.90925 22.736 4.83034 20.8612C4.8224 20.8474 4.81375 20.834 4.80592 20.8202C4.75768 20.7349 4.71153 20.6482 4.66725 20.5604C4.66194 20.5499 4.6559 20.5397 4.65065 20.5292L4.61549 20.4589C4.4787 20.1749 4.36293 19.8789 4.26979 19.5731C4.25883 19.5372 4.24886 19.5009 4.23854 19.4647C4.21792 19.3923 4.198 19.3194 4.17995 19.246C4.16911 19.202 4.15957 19.1575 4.14967 19.1132C4.13642 19.0536 4.1241 18.9936 4.11256 18.9335C4.10179 18.8774 4.09155 18.8211 4.08229 18.7645C4.07288 18.7069 4.06472 18.6488 4.0569 18.5907C4.05012 18.5404 4.04294 18.49 4.03737 18.4393C4.02874 18.3607 4.02255 18.2815 4.01686 18.202C4.01446 18.1686 4.01092 18.135 4.00905 18.1014C4.00259 17.9851 3.99929 17.8678 3.99928 17.7499V10.2548C3.99929 10.0101 4.0149 9.76844 4.04225 9.53113C4.40094 6.42032 7.04241 4.00494 10.2493 4.00476H17.7493L18.0706 4.01257ZM17.8753 12.4403C17.0762 12.4403 16.3095 12.7581 15.7444 13.3231L7.46706 21.5985C8.24912 22.1648 9.2099 22.4999 10.2493 22.4999H17.7493C20.3725 22.4999 22.4991 20.373 22.4993 17.7499V15.8173L20.0051 13.3231C19.4403 12.7583 18.674 12.4406 17.8753 12.4403ZM12.552 0.0965545C14.9766 -0.330936 17.3203 0.701849 18.6829 2.56237C18.3768 2.52562 18.0652 2.50477 17.7493 2.50476H10.2493C5.9692 2.5049 2.49928 5.97464 2.49928 10.2548V17.7499C2.49929 18.0686 2.52048 18.3826 2.55788 18.6913C1.98378 17.9292 1.57477 17.0245 1.39772 16.0204L0.0959616 8.63952C-0.503388 5.24029 1.76709 1.99782 5.16627 1.39831L12.552 0.0965545ZM10.7493 8.00378C9.23108 8.00398 7.99966 9.23457 7.99928 10.7528C7.99955 12.2711 9.23102 13.5026 10.7493 13.5028C12.2675 13.5026 13.499 12.2711 13.4993 10.7528C13.4989 9.23458 12.2675 8.004 10.7493 8.00378Z"
    fill="currentColor"
  />
</svg>
