<svg width="12" height="12" viewBox="0 0 12 12" fill="none" xmlns="http://www.w3.org/2000/svg" data-fui-icon="true">
  <path
    d="M8.25 0C10.3211 0 12 1.67893 12 3.75V8.25C12 10.3211 10.3211 12 8.25 12H3.75C1.67893 12 0 10.3211 0 8.25V3.75C0 1.67893 1.67893 0 3.75 0H8.25ZM7.5 4.75C6.98109 4.75005 6.48318 4.95636 6.11621 5.32324L1.90332 9.53418C2.30983 10.1177 2.98496 10.5 3.75 10.5H8.25C9.49264 10.5 10.5 9.49264 10.5 8.25V6.93945L8.88379 5.32324C8.51683 4.95637 8.01889 4.75006 7.5 4.75ZM4 2.75C3.30973 2.7501 2.75 3.30971 2.75 4C2.75 4.69029 3.30973 5.2499 4 5.25C4.69024 5.24987 5.25 4.69027 5.25 4C5.25 3.30973 4.69024 2.75013 4 2.75Z"
    fill="currentColor"
  />
</svg>
