<svg width="32" height="32" viewBox="0 0 32 32" fill="none" xmlns="http://www.w3.org/2000/svg" data-fui-icon="true">
  <path
    fill-rule="evenodd"
    clip-rule="evenodd"
    d="M23.2518 6.00116C27.5319 6.00135 31.0018 9.47107 31.0018 13.7512V23.2512C31.0017 27.5312 27.5318 31.001 23.2518 31.0012H13.7518C9.47165 31.0012 6.00189 27.5313 6.0018 23.2512V13.7512C6.00181 9.47096 9.4716 6.00116 13.7518 6.00116H23.2518ZM24.1317 18.674C23.536 18.6743 22.9641 18.911 22.5428 19.3322L12.4989 29.3752C12.9036 29.4575 13.3228 29.5012 13.7518 29.5012H23.2518C26.7034 29.501 29.5017 26.7028 29.5018 23.2512V23.1086C29.4913 23.0992 29.4797 23.0904 29.4696 23.0803L25.7215 19.3322C25.3001 18.9109 24.7276 18.674 24.1317 18.674ZM13.7518 7.50116C10.3 7.50116 7.50181 10.2994 7.5018 13.7512V23.2512C7.50187 25.6862 8.89531 27.7938 10.9276 28.8254L21.4823 18.2717C22.1848 17.5691 23.1382 17.1743 24.1317 17.174C25.1254 17.174 26.0793 17.5691 26.7821 18.2717L29.5018 20.9914V13.7512C29.5018 10.2995 26.7034 7.50135 23.2518 7.50116H13.7518ZM18.2352 1.25409C19.2375 1.24345 21.0567 1.3738 22.9471 2.77265C23.2795 3.01906 23.3493 3.48871 23.1034 3.82148C22.8569 4.15428 22.3865 4.22407 22.0536 3.97773C20.5264 2.8479 19.0783 2.74432 18.2508 2.75312C17.9584 2.75625 17.6568 2.79152 17.3426 2.84589L12.5897 3.66816L7.91391 4.49335C4.51458 5.09275 2.24421 8.33425 2.8436 11.7336L4.17856 19.301L4.32798 20.1291C4.40174 20.5366 4.131 20.9273 3.72348 21.0012C3.31605 21.0747 2.92617 20.8041 2.85239 20.3967L2.702 19.5676L1.36704 11.9934C0.623989 7.77829 3.4381 3.75904 7.65317 3.01581L12.3329 2.19062L17.0877 1.36835C17.453 1.30515 17.8382 1.25833 18.2352 1.25409ZM14.5008 11.0002C16.4338 11.0003 18.0008 12.5672 18.0008 14.5002C18.0007 16.4331 16.4337 18.0001 14.5008 18.0002C12.5679 18.0001 11.0009 16.4331 11.0008 14.5002C11.0008 12.5672 12.5678 11.0002 14.5008 11.0002ZM14.5008 12.5002C13.3962 12.5002 12.5008 13.3957 12.5008 14.5002C12.5009 15.6046 13.3963 16.5001 14.5008 16.5002C15.6053 16.5001 16.5007 15.6046 16.5008 14.5002C16.5008 13.3957 15.6054 12.5003 14.5008 12.5002Z"
    fill="currentColor"
  />
</svg>
