<svg width="16" height="16" viewBox="0 0 16 16" fill="none" xmlns="http://www.w3.org/2000/svg" data-fui-icon="true">
  <path
    d="M10.75 0C11.3249 1.16738e-08 11.8778 0.0938627 12.3955 0.264648C12.4579 0.276915 12.5165 0.298517 12.5723 0.325195C14.5735 1.06594 16 2.99125 16 5.25V10.75C16 13.6495 13.6495 16 10.75 16H5.25C2.35051 16 0 13.6495 0 10.75V5.25C1.03827e-08 2.99157 1.42601 1.06618 3.42676 0.325195C3.48247 0.298461 3.54122 0.276989 3.60352 0.264648C4.12148 0.0936768 4.67475 0 5.25 0H10.75ZM7.5 7.5C7.5 8.43162 6.8622 9.21129 6 9.43359V14.5H10V9.43359C9.1378 9.21129 8.5 8.43162 8.5 7.5V1.5H7.5V7.5ZM13 7.5C13 8.43162 12.3622 9.21129 11.5 9.43359V14.4248C13.2117 14.0773 14.5 12.5642 14.5 10.75V5.25C14.5 4.02299 13.911 2.93316 13 2.24902V7.5ZM3 2.24902C2.08897 2.93316 1.5 4.02299 1.5 5.25V10.75C1.5 12.5642 2.78834 14.0773 4.5 14.4248V9.43359C3.6378 9.21129 3 8.43162 3 7.5V2.24902ZM5.25 1.5C4.99321 1.5 4.74228 1.52505 4.5 1.57422V7.5C4.5 7.77614 4.72386 8 5 8H5.5C5.77614 8 6 7.77614 6 7.5V1.5H5.25ZM10 7.5C10 7.77614 10.2239 8 10.5 8H11C11.2761 8 11.5 7.77614 11.5 7.5V1.57422C11.2577 1.52505 11.0068 1.5 10.75 1.5H10V7.5Z"
    fill="currentColor"
  />
</svg>
