<svg width="24" height="24" viewBox="0 0 24 24" fill="none" xmlns="http://www.w3.org/2000/svg" data-fui-icon="true">
  <path
    d="M16.2497 0.000488271C16.9285 0.000530128 17.587 0.0874533 18.2145 0.25146C18.226 0.250936 18.238 0.250483 18.2496 0.250483C18.4131 0.250587 18.563 0.304226 18.6861 0.393058C21.772 1.41473 23.9995 4.32181 23.9995 7.75033V16.2502C23.9993 20.3963 20.7427 23.7816 16.6481 23.9893L16.2497 24H7.74984C3.46989 24 -0.000712593 20.5301 -0.000976543 16.2502V7.75033C-0.000976543 4.32213 2.226 1.41499 5.31142 0.393058C5.43481 0.303856 5.58599 0.250483 5.74988 0.250483C5.76102 0.25049 5.77207 0.250972 5.78309 0.25146C6.41099 0.0872598 7.07047 0.000488277 7.74984 0.000488271H16.2497ZM10.4998 11.5003C10.4996 12.7092 9.64041 13.7166 8.49983 13.9484V22.5H15.4997V13.9484C14.3586 13.7169 13.5 12.7096 13.4997 11.5003V1.50046H10.4998V11.5003ZM4.9999 2.13619C2.92681 3.15346 1.49997 5.28527 1.49997 7.75033V16.2502C1.50021 19.4479 3.90184 22.0818 6.99986 22.4522V13.9484C5.8588 13.7169 5.00013 12.7096 4.9999 11.5003V2.13619ZM18.9996 11.5003C18.9994 12.7092 18.1402 13.7166 16.9997 13.9484V22.4522C20.0972 22.0813 22.4993 19.4476 22.4995 16.2502V7.75033C22.4995 5.28574 21.0721 3.15467 18.9996 2.13716V11.5003ZM7.74984 1.50046C7.3219 1.50046 6.90363 1.54352 6.49987 1.62546V11.5003C6.50013 12.0523 6.94774 12.5002 7.49985 12.5002H7.99984C8.55172 12.5 8.99955 12.0521 8.99982 11.5003V1.50046H7.74984ZM14.9997 11.5003C15 12.0523 15.4476 12.5002 15.9997 12.5002H16.4997C17.0516 12.5 17.4994 12.0521 17.4996 11.5003V1.62546C17.0957 1.54343 16.6778 1.50049 16.2497 1.50046H14.9997V11.5003Z"
    fill="currentColor"
  />
</svg>
