<svg width="20" height="20" viewBox="0 0 20 20" fill="none" xmlns="http://www.w3.org/2000/svg" data-fui-icon="true">
  <path
    d="M13.75 0C17.2018 0 20 2.79822 20 6.25V13.75C20 17.2018 17.2018 20 13.75 20H6.25C2.79822 20 1.29287e-07 17.2018 0 13.75V6.25C0 2.79822 2.79822 5.44135e-08 6.25 0H13.75ZM9 9.75C9 10.8206 8.25169 11.7138 7.25 11.9414V18.5H12.75V11.9414C11.7483 11.7138 11 10.8206 11 9.75V1.5H9V9.75ZM4 2.06543C2.51152 2.86745 1.5 4.44068 1.5 6.25V13.75C1.5 16.2045 3.36169 18.2238 5.75 18.4736V11.9414C4.74831 11.7138 4 10.8206 4 9.75V2.06543ZM16 9.75C16 10.8206 15.2517 11.7138 14.25 11.9414V18.4736C16.6383 18.2238 18.5 16.2045 18.5 13.75V6.25C18.5 4.44068 17.4885 2.86745 16 2.06543V9.75Z"
    fill="currentColor"
  />
</svg>
