<svg width="12" height="12" viewBox="0 0 12 12" fill="none" xmlns="http://www.w3.org/2000/svg" data-fui-icon="true">
  <path
    d="M7.75 0C10.0972 5.36889e-09 12 1.90279 12 4.25V7.75C12 10.0972 10.0972 12 7.75 12H4.25C1.90279 12 0 10.0972 0 7.75V4.25C0 1.90279 1.90279 0 4.25 0H7.75ZM8.25 5.5C8.25 6.43162 7.6122 7.21129 6.75 7.43359V10.5H7.75C9.26878 10.5 10.5 9.26878 10.5 7.75V4.25C10.5 2.90206 9.52992 1.78211 8.25 1.54688V5.5ZM3.75 1.54688C2.47008 1.78211 1.5 2.90206 1.5 4.25V7.75C1.5 9.26878 2.73122 10.5 4.25 10.5H5.25V7.43359C4.3878 7.21129 3.75 6.43162 3.75 5.5V1.54688ZM5.25 5.5C5.25 5.77614 5.47386 6 5.75 6H6.25C6.52614 6 6.75 5.77614 6.75 5.5V1.5H5.25V5.5Z"
    fill="currentColor"
  />
</svg>
