<svg width="32" height="32" viewBox="0 0 32 32" fill="none" xmlns="http://www.w3.org/2000/svg" data-fui-icon="true">
  <path
    d="M21.75 1.00024C26.8585 1.00038 31 5.14169 31 10.2502V21.7502C30.9999 26.8587 26.8584 31.0001 21.75 31.0002H10.25C5.14145 31.0002 1.00013 26.8588 1 21.7502V10.2502C1 5.14161 5.14137 1.00024 10.25 1.00024H21.75ZM14 15.2502C13.9999 16.6846 12.9015 17.8602 11.5 17.9866V29.5002H20.5V17.9866C19.0985 17.8602 18.0001 16.6846 18 15.2502V2.50024H14V15.2502ZM7.5 3.00317C4.57738 4.11275 2.5 6.93852 2.5 10.2502V21.7502C2.50013 25.9467 5.8355 29.3615 10 29.4934V17.9866C8.59855 17.8602 7.50012 16.6846 7.5 15.2502V3.00317ZM24.5 15.2502C24.4999 16.6846 23.4015 17.8602 22 17.9866V29.4934C26.1643 29.3613 29.4999 25.9466 29.5 21.7502V10.2502C29.5 6.93868 27.4224 4.11286 24.5 3.00317V15.2502ZM10.25 2.50024C9.8245 2.50024 9.40687 2.53486 9 2.60083V15.2502C9.00013 15.9405 9.55973 16.5002 10.25 16.5002H11.25C11.9403 16.5002 12.4999 15.9405 12.5 15.2502V2.50024H10.25ZM19.5 15.2502C19.5001 15.9405 20.0597 16.5002 20.75 16.5002H21.75C22.4403 16.5002 22.9999 15.9405 23 15.2502V2.60083C22.5931 2.53483 22.1756 2.50026 21.75 2.50024H19.5V15.2502Z"
    fill="currentColor"
  />
</svg>
