<svg width="32" height="32" viewBox="0 0 32 32" fill="none" xmlns="http://www.w3.org/2000/svg" data-fui-icon="true">
  <path
    d="M22.75 1.00024C27.3062 1.00038 31 4.69398 31 9.25024V22.7502C30.9999 27.3064 27.3062 31.0001 22.75 31.0002H9.25C4.69373 31.0002 1.00013 27.3065 1 22.7502V9.25024C1 4.6939 4.69365 1.00024 9.25 1.00024H22.75ZM14 15.2502C13.9999 16.6846 12.9014 17.8601 11.5 17.9866V29.5002H20.5V17.9866C19.0986 17.8601 18.0001 16.6846 18 15.2502V2.50024H14V15.2502ZM24.5 15.2502C24.4999 16.6846 23.4014 17.8601 22 17.9866V29.5002H22.75C26.4777 29.5001 29.4999 26.478 29.5 22.7502V9.25024C29.5 6.12771 27.3794 3.50071 24.5 2.72974V15.2502ZM7.5 2.72974C4.62041 3.50055 2.5 6.12754 2.5 9.25024V22.7502C2.50013 26.4781 5.52216 29.5002 9.25 29.5002H10V17.9866C8.59856 17.8601 7.50012 16.6846 7.5 15.2502V2.72974Z"
    fill="currentColor"
  />
</svg>
