<svg width="16" height="16" viewBox="0 0 16 16" fill="none" xmlns="http://www.w3.org/2000/svg" data-fui-icon="true">
  <path
    d="M11.75 0C14.0972 0 16 1.90279 16 4.25V11.75C16 14.0972 14.0972 16 11.75 16H4.25C1.90279 16 0 14.0972 0 11.75V4.25C1.28853e-07 1.90279 1.90279 0 4.25 0H11.75ZM7 7.5C7 8.23975 6.5971 8.8835 6 9.22949V14.5H10V9.22949C9.4029 8.8835 9 8.23975 9 7.5V1.5H7V7.5ZM13 7.5C13 8.43162 12.3622 9.21129 11.5 9.43359V14.5H11.75C13.2688 14.5 14.5 13.2688 14.5 11.75V4.25C14.5 3.1818 13.8898 2.25812 13 1.80273V7.5ZM3 1.80273C2.11022 2.25812 1.5 3.1818 1.5 4.25V11.75C1.5 13.2688 2.73122 14.5 4.25 14.5H4.5V9.43359C3.6378 9.21129 3 8.43162 3 7.5V1.80273Z"
    fill="currentColor"
  />
</svg>
