<svg width="24" height="24" viewBox="0 0 24 24" fill="none" xmlns="http://www.w3.org/2000/svg" data-fui-icon="true">
  <path
    fill-rule="evenodd"
    clip-rule="evenodd"
    d="M16.2493 0C20.5291 0.000263848 23.999 3.47079 23.999 7.75066V16.2503C23.9988 20.3963 20.7422 23.7816 16.6478 23.9893L16.2493 24H7.74968C3.46981 24 0.000263884 20.5301 0 16.2503V7.75066C0 3.47063 3.46965 0 7.74968 0H16.2493ZM10.4996 11.5005C10.4993 12.7095 9.64037 13.7177 8.49965 13.9496V22.5001H15.4994V13.9496C14.3585 13.7179 13.4997 12.7097 13.4995 11.5005V1.50092H10.4996V11.5005ZM4.9998 2.13663C2.92675 3.15389 1.49994 5.28565 1.49994 7.75066V16.2503C1.50018 19.448 3.90176 22.0818 6.99972 22.4522V13.9496C5.85887 13.7179 5.00003 12.7097 4.9998 11.5005V2.13663ZM18.9992 11.5005C18.999 12.7095 18.14 13.7177 16.9993 13.9496V22.4522C20.0968 22.0814 22.4988 19.4476 22.4991 16.2503V7.75066C22.4991 5.28612 21.0716 3.15509 18.9992 2.13761V11.5005Z"
    fill="currentColor"
  />
</svg>
