<svg width="20" height="20" viewBox="0 0 20 20" fill="none" xmlns="http://www.w3.org/2000/svg" data-fui-icon="true">
  <path
    d="M14.6504 0C17.6048 0.000210782 19.9998 2.3952 20 5.34961V14.6504C19.9998 17.6048 17.6048 19.9998 14.6504 20H5.34961C2.3952 19.9998 0.000211295 17.6048 0 14.6504V5.34961C0.00021104 2.3952 2.3952 0.000211037 5.34961 0H14.6504ZM9 9.75C9 10.8206 8.25169 11.7138 7.25 11.9414V18.5H12.75V11.9414C11.7483 11.7138 11 10.8206 11 9.75V1.5H9V9.75ZM16 9.75C16 10.8206 15.2517 11.7138 14.25 11.9414V18.5H14.6504C16.7764 18.4998 18.4998 16.7764 18.5 14.6504V5.34961C18.4998 3.69846 17.4603 2.28999 16 1.74316V9.75ZM4 1.74316C2.53968 2.28999 1.50016 3.69846 1.5 5.34961V14.6504C1.50021 16.7764 3.22362 18.4998 5.34961 18.5H5.75V11.9414C4.74831 11.7138 4 10.8206 4 9.75V1.74316ZM5.5 9.75C5.5 10.1642 5.83579 10.5 6.25 10.5H6.75C7.16421 10.5 7.5 10.1642 7.5 9.75V1.5H5.5V9.75ZM12.5 9.75C12.5 10.1642 12.8358 10.5 13.25 10.5H13.75C14.1642 10.5 14.5 10.1642 14.5 9.75V1.5H12.5V9.75Z"
    fill="currentColor"
  />
</svg>
