<svg width="16" height="16" viewBox="0 0 16 16" fill="none" xmlns="http://www.w3.org/2000/svg" data-fui-icon="true">
  <path
    d="M11.25 1.5C13.3211 1.5 15 3.17893 15 5.25V10.75C15 12.8211 13.3211 14.5 11.25 14.5H4.75C2.67893 14.5 1 12.8211 1 10.75V5.25C1 3.17893 2.67893 1.5 4.75 1.5H11.25ZM9.25 8.75C8.97386 8.75 8.75 8.97386 8.75 9.25V13H11.25C12.4926 13 13.5 11.9926 13.5 10.75V8.75H9.25ZM4.75 3C3.50736 3 2.5 4.00736 2.5 5.25V10.75C2.5 11.9926 3.50736 13 4.75 13H7.25V9.25C7.25 8.14543 8.14543 7.25 9.25 7.25H13.5V5.25C13.5 4.00736 12.4926 3 11.25 3H4.75Z"
    fill="currentColor"
  />
</svg>
