<svg width="12" height="12" viewBox="0 0 12 12" fill="none" xmlns="http://www.w3.org/2000/svg" data-fui-icon="true">
  <g clip-path="url(#clip0_4051_18)">
    <path
      d="M8.5918 0.941406C10.1769 1.02171 11.4375 2.33239 11.4375 3.9375V8.0625C11.4375 9.71935 10.0944 11.0625 8.4375 11.0625H3.5625C1.90565 11.0625 0.5625 9.71935 0.5625 8.0625V3.9375C0.5625 2.28065 1.90565 0.9375 3.5625 0.9375H8.4375L8.5918 0.941406ZM6.9375 6.75C6.83395 6.75 6.75 6.83395 6.75 6.9375V9.5625H8.4375C9.26593 9.5625 9.9375 8.89093 9.9375 8.0625V6.75H6.9375ZM3.5625 2.4375C2.73407 2.4375 2.0625 3.10907 2.0625 3.9375V8.0625C2.0625 8.89093 2.73407 9.5625 3.5625 9.5625H5.25V6.9375C5.25 6.00552 6.00552 5.25 6.9375 5.25H9.9375V3.9375C9.9375 3.16084 9.34722 2.52211 8.59082 2.44531L8.4375 2.4375H3.5625Z"
      fill="currentColor"
    />
  </g>
  <defs>
    <clipPath id="clip0_4051_18"><path fill="currentColor" d="M0 0H12V12H0z" /></clipPath>
  </defs>
</svg>
