<svg width="12" height="12" viewBox="0 0 12 12" fill="none" xmlns="http://www.w3.org/2000/svg" data-fui-icon="true">
  <path
    d="M0.75 0.996094C1.16421 0.996094 1.5 1.33188 1.5 1.74609C1.50001 1.9652 1.53921 2.13071 1.59082 2.25586C2.5433 1.46757 3.83045 1 5.19043 1L5.44922 1.00586C6.05229 1.03153 6.64379 1.1454 7.19824 1.33008C7.22404 1.33856 7.23469 1.3348 7.23047 1.33594L8.2002 1.06152L8.3252 1.03418C8.95162 0.935471 9.53613 1.42048 9.53613 2.07227V2.73535C9.53662 2.73681 9.5378 2.73932 9.53906 2.74219C9.54342 2.75188 9.55299 2.76734 9.56934 2.78418C9.91791 3.14352 10.21 3.55476 10.417 4.00781C11.3047 4.09194 12.0006 4.83991 12.001 5.75V6.75L11.9922 6.92871C11.9025 7.81091 11.1565 8.49898 10.252 8.5H9.71582V9.50098C9.7156 10.3291 9.04395 11.0008 8.21582 11.001H7.35352C6.71835 11.001 6.192 10.5381 6.09082 9.93164C5.88263 9.96214 5.67159 9.98472 5.45898 9.99414L5.19043 10C5.14285 10 5.09512 9.99723 5.04785 9.99609C4.93691 10.5682 4.43454 11.0008 3.83008 11.001H2.92871C2.10042 11.001 1.42893 10.3292 1.42871 9.50098V8.62012C1.42876 8.62371 1.42909 8.6215 1.4248 8.6123C1.4196 8.60134 1.40823 8.58374 1.38867 8.56543C0.596392 7.82758 0.0688746 6.83772 0.00585938 5.72461L0 5.5C9.25246e-05 4.74361 0.207667 4.04603 0.569336 3.4375C0.259518 3.0617 2.75618e-05 2.50878 0 1.74609C0 1.33188 0.335786 0.996094 0.75 0.996094ZM7.39355 4.5C6.97946 4.5 6.64375 4.83595 6.64355 5.25C6.64375 5.66405 6.97946 6 7.39355 6C7.80765 6 8.14336 5.66405 8.14355 5.25C8.14336 4.83595 7.80765 4.5 7.39355 4.5ZM4.99805 3.5C4.34453 3.50177 3.82775 3.69667 3.47363 3.89355C3.29716 3.99171 3.15875 4.09137 3.06152 4.16992C3.01294 4.20919 2.97339 4.24451 2.94434 4.27148C2.93013 4.28469 2.9177 4.29629 2.9082 4.30566L2.89062 4.32324L2.88867 4.32617L2.8877 4.32715H2.88672V4.32812C2.60095 4.62732 2.61142 5.10146 2.91016 5.3877C3.1908 5.65596 3.62593 5.66374 3.91504 5.41699L3.96191 5.37305C3.96254 5.37257 3.96456 5.37133 3.96582 5.37012C3.97188 5.36452 3.9854 5.35267 4.00488 5.33691C4.0454 5.30419 4.1118 5.25437 4.20215 5.2041C4.38273 5.10369 4.65215 5.00096 5.00195 5C5.41602 4.99888 5.75088 4.66205 5.75 4.24805C5.74868 3.83403 5.4121 3.49892 4.99805 3.5ZM3.9707 5.36523H3.96973L3.96875 5.36621L3.96777 5.36816C3.96692 5.36893 3.96551 5.36956 3.96484 5.37012L3.96973 5.36426L3.9707 5.36523Z"
    fill="currentColor"
  />
</svg>
