<svg width="24" height="24" viewBox="0 0 24 24" fill="none" xmlns="http://www.w3.org/2000/svg" data-fui-icon="true">
  <path
    d="M10.792 1.01331C12.0636 1.07455 13.3118 1.34669 14.4766 1.79065C14.8253 1.92353 15.1797 1.93622 15.4795 1.83069L17.6016 1.08362V1.08264C18.2848 0.842902 18.9999 1.35077 19 2.07385V4.3512C19 4.66113 19.1244 4.98709 19.3594 5.28088C20.0644 6.16183 20.6129 7.15365 20.9404 8.22522C20.9996 8.41872 21.1468 8.49963 21.248 8.49963C22.7659 8.50031 23.9978 9.73128 23.998 11.2496V12.7496L23.9834 13.0309C23.8519 14.3249 22.8228 15.3531 21.5293 15.485L21.248 15.4996H20.8027C20.3558 15.4997 19.8911 15.7628 19.5371 16.2281C19.4913 16.2884 19.4447 16.3482 19.3975 16.4069C19.1381 16.7283 19 17.0726 19 17.3951V20.2496C19 21.7683 17.7686 22.9994 16.25 22.9996H15.2461C14.0056 22.9996 13 21.994 13 20.7535C12.9999 20.2959 12.5466 19.8613 11.9658 19.9176C11.5395 19.9591 11.1091 19.9847 10.6777 19.9948L10.2461 19.9996C10.1548 19.9996 10.0634 19.999 9.97266 19.9967C9.40179 19.9825 9.00009 20.4015 9 20.8082C8.99984 22.0183 8.01864 22.9993 6.80859 22.9996H5.75C4.23122 22.9996 3 21.7684 3 20.2496V17.7916C2.99985 17.4407 2.84021 17.0743 2.54492 16.7623C1.06669 15.2017 0.123911 13.1794 0.0117188 10.9489L0 10.4996C8.44425e-05 8.7109 0.529737 7.04889 1.44531 5.63049C0.521435 4.91098 0 3.57024 0 1.74963C0.000211949 1.3356 0.335917 0.999634 0.75 0.999634C1.16391 0.999831 1.49979 1.33572 1.5 1.74963C1.5 3.30854 1.92242 4.08052 2.35742 4.43323C4.24668 2.32729 7.09608 0.99976 10.2461 0.999634L10.792 1.01331ZM10.2461 2.49963C5.35691 2.49985 1.50023 6.13826 1.5 10.4996L1.50977 10.8717C1.60248 12.7199 2.38231 14.4089 3.63379 15.7301C4.13658 16.261 4.49985 16.9817 4.5 17.7916V20.2496C4.5 20.94 5.05964 21.4996 5.75 21.4996H6.80859C7.19021 21.4993 7.49984 21.1899 7.5 20.8082C7.50008 19.3988 8.76501 18.4657 10.0098 18.4967C10.0882 18.4986 10.1672 18.4996 10.2461 18.4996L10.6436 18.4948C11.0395 18.4855 11.4334 18.4622 11.8213 18.4244C13.1559 18.295 14.4999 19.2868 14.5 20.7535C14.5 21.1656 14.834 21.4996 15.2461 21.4996H16.25C16.9402 21.4994 17.5 20.9399 17.5 20.2496V17.3951C17.5 16.6448 17.8151 15.978 18.2295 15.4645C18.2678 15.417 18.3057 15.3687 18.3428 15.3199C18.8918 14.5981 19.758 13.9997 20.8027 13.9996H21.248L21.376 13.9928C21.9639 13.9325 22.4314 13.4652 22.4912 12.8776L22.498 12.7496V11.2496C22.4979 10.6032 22.0059 10.071 21.376 10.0065L21.248 9.99963C20.3889 9.99963 19.7274 9.38863 19.5059 8.6637C19.2395 7.79232 18.7878 6.96733 18.1885 6.21838C17.7838 5.71261 17.5 5.06529 17.5 4.3512V2.70862L15.9775 3.24573C15.2925 3.48688 14.5692 3.43092 13.9424 3.19202C12.9184 2.80172 11.8262 2.5647 10.7207 2.51135L10.2461 2.49963ZM15.5 7.99963C16.3283 7.99963 16.9998 8.67137 17 9.49963C17 10.3281 16.3284 10.9996 15.5 10.9996C14.6716 10.9996 14 10.3281 14 9.49963C14.0002 8.67137 14.6717 7.99963 15.5 7.99963ZM7.15625 4.54944C8.07332 4.12448 9.40237 3.79823 11.0596 4.14709C11.4647 4.23238 11.7235 4.62972 11.6387 5.03479C11.5534 5.44 11.1562 5.69997 10.751 5.61487C9.46018 5.34313 8.46052 5.59873 7.78711 5.91077C7.44778 6.06805 7.18879 6.2406 7.01855 6.37073C6.93389 6.43547 6.87129 6.48932 6.83301 6.52405C6.81407 6.54123 6.80091 6.55435 6.79395 6.56116L6.79102 6.56409V6.56311C6.50465 6.86189 6.03059 6.87268 5.73145 6.58655C5.43236 6.30021 5.42178 5.82525 5.70801 5.526L5.83398 5.64612C5.72753 5.54412 5.71128 5.52848 5.70898 5.526V5.52502L5.74609 5.48792C5.76557 5.4689 5.79216 5.44368 5.8252 5.4137C5.89179 5.35327 5.98639 5.27188 6.10742 5.17932C6.34924 4.99445 6.70129 4.76031 7.15625 4.54944Z"
    fill="currentColor"
  />
</svg>
