<svg width="24" height="24" viewBox="0 0 24 24" fill="none" xmlns="http://www.w3.org/2000/svg" data-fui-icon="true">
  <path
    d="M10.792 1.01331C12.0636 1.07455 13.3118 1.34669 14.4766 1.79065C14.8253 1.92353 15.1797 1.93622 15.4795 1.83069L17.6016 1.08362V1.08264C18.2848 0.842902 18.9999 1.35077 19 2.07385V4.3512C19 4.66113 19.1244 4.98709 19.3594 5.28088C20.0644 6.16183 20.6129 7.15365 20.9404 8.22522C20.9996 8.41872 21.1468 8.49963 21.248 8.49963C22.7659 8.50031 23.9978 9.73128 23.998 11.2496V12.7496C23.998 14.2683 22.7659 15.499 21.248 15.4996H20.8857C20.4254 15.4996 19.9511 15.7757 19.6133 16.2594C19.5321 16.3757 19.4484 16.49 19.3623 16.6012C19.1252 16.9074 19 17.2366 19 17.5455V20.2496C19 21.7683 17.7686 22.9994 16.25 22.9996H15.0293C13.9088 22.9996 13 22.0908 13 20.9703C12.9996 20.6466 12.6642 20.3126 12.2158 20.3717C11.7291 20.4362 11.236 20.4759 10.7412 20.4918L10.2461 20.4996C10.0631 20.4996 9.88072 20.4941 9.7002 20.484C9.2756 20.4604 9.00009 20.7716 9 21.0377C8.99999 22.1211 8.12145 22.9994 7.03809 22.9996H5.75C4.23122 22.9996 3 21.7684 3 20.2496V18.0114C2.99996 17.6758 2.85505 17.3252 2.58496 17.024C1.08683 15.354 0.125914 13.218 0.0117188 10.9537L0 10.4996C8.44408e-05 8.7109 0.529737 7.04889 1.44531 5.63049C0.521435 4.91098 0 3.57024 0 1.74963C0.000211949 1.3356 0.335917 0.999634 0.75 0.999634C1.16391 0.999831 1.49979 1.33572 1.5 1.74963C1.5 3.30854 1.92242 4.08052 2.35742 4.43323C4.24668 2.32729 7.09608 0.99976 10.2461 0.999634L10.792 1.01331ZM10.2461 2.49963C5.35691 2.49985 1.50024 6.13826 1.5 10.4996L1.50977 10.8785C1.60533 12.7669 2.40949 14.5821 3.70117 16.0221C4.17019 16.545 4.49996 17.24 4.5 18.0114V20.2496C4.5 20.94 5.05964 21.4996 5.75 21.4996H7.03809C7.29302 21.4994 7.49999 21.2927 7.5 21.0377C7.50008 19.7553 8.66265 18.9244 9.78418 18.9869C9.9371 18.9954 10.0913 18.9996 10.2461 18.9996L10.6934 18.9928C11.1396 18.9785 11.5827 18.9421 12.0186 18.8844C13.2359 18.7234 14.4996 19.6138 14.5 20.9703C14.5 21.2624 14.7372 21.4996 15.0293 21.4996H16.25C16.9402 21.4994 17.5 20.9399 17.5 20.2496V17.5455C17.5 16.8301 17.7858 16.1869 18.1758 15.6832C18.2469 15.5913 18.3167 15.497 18.3838 15.401C18.9239 14.6276 19.8128 13.9996 20.8857 13.9996H21.248L21.376 13.9928C21.9639 13.9325 22.4314 13.4652 22.4912 12.8776L22.498 12.7496V11.2496C22.4979 10.6032 22.0059 10.071 21.376 10.0065L21.248 9.99963C20.3889 9.99963 19.7274 9.38863 19.5059 8.6637C19.2395 7.79232 18.7878 6.96733 18.1885 6.21838C17.7838 5.71261 17.5 5.06529 17.5 4.3512V2.70862L15.9775 3.24573C15.2925 3.48688 14.5692 3.43092 13.9424 3.19202C12.9184 2.80172 11.8262 2.5647 10.7207 2.51135L10.2461 2.49963ZM15.5 7.99963C16.3283 7.99963 16.9998 8.67137 17 9.49963C17 10.3281 16.3284 10.9996 15.5 10.9996C14.6716 10.9996 14 10.3281 14 9.49963C14.0002 8.67137 14.6717 7.99963 15.5 7.99963ZM7.15625 4.54944C8.07332 4.12448 9.40237 3.79823 11.0596 4.14709C11.4647 4.23238 11.7235 4.62972 11.6387 5.03479C11.5534 5.44 11.1562 5.69997 10.751 5.61487C9.46018 5.34313 8.46052 5.59873 7.78711 5.91077C7.44778 6.06805 7.18879 6.2406 7.01855 6.37073C6.93389 6.43547 6.87129 6.48932 6.83301 6.52405C6.81407 6.54123 6.80091 6.55435 6.79395 6.56116L6.79102 6.56409V6.56311C6.50465 6.86189 6.03059 6.87268 5.73145 6.58655C5.43236 6.30021 5.42178 5.82525 5.70801 5.526L5.83398 5.64612C5.72753 5.54412 5.71128 5.52848 5.70898 5.526V5.52502L5.74609 5.48792C5.76557 5.4689 5.79216 5.44368 5.8252 5.4137C5.89179 5.35327 5.98639 5.27188 6.10742 5.17932C6.34924 4.99445 6.70129 4.76031 7.15625 4.54944Z"
    fill="currentColor"
  />
</svg>
