<svg width="12" height="12" viewBox="0 0 12 12" fill="none" xmlns="http://www.w3.org/2000/svg" data-fui-icon="true">
  <path
    d="M0.75 0.995728C1.16395 0.995913 1.49984 1.33177 1.5 1.74573C1.5 1.96456 1.53834 2.13039 1.58984 2.25549C2.54235 1.4671 3.83034 0.999634 5.19043 0.999634C5.88285 0.999817 6.56472 1.1187 7.19824 1.32971C7.22412 1.33824 7.2347 1.33443 7.23047 1.33557L8.2002 1.06116L8.3252 1.03381C8.95162 0.935105 9.53613 1.42012 9.53613 2.0719V2.73499C9.53656 2.73644 9.5377 2.73872 9.53906 2.74182C9.54335 2.7515 9.55282 2.76679 9.56934 2.78381C9.91799 3.1432 10.2099 3.55432 10.417 4.00745C11.3048 4.09156 12.0006 4.83953 12.001 5.74963V6.74963C12.0009 7.71601 11.2169 8.49854 10.252 8.49963H9.71582V9.50061C9.71579 10.3289 9.04407 11.0004 8.21582 11.0006H7.35352C6.71823 11.0006 6.19185 10.5379 6.09082 9.93127C5.79526 9.97458 5.49394 9.99955 5.19043 9.99963C5.14285 9.99963 5.09512 9.99686 5.04785 9.99573C4.93705 10.568 4.43466 11.0004 3.83008 11.0006H2.92871C2.1003 11.0006 1.42874 10.329 1.42871 9.50061V8.61975C1.42873 8.62389 1.42938 8.62168 1.4248 8.61194C1.41959 8.60094 1.40834 8.58343 1.38867 8.56506C0.596305 7.82713 0.0687799 6.83751 0.00585938 5.72424L0 5.49963C9.25242e-05 4.7432 0.208609 4.04666 0.570312 3.43811C0.26012 3.06228 0 2.50913 0 1.74573C0.000162958 1.33165 0.335887 0.995728 0.75 0.995728ZM5.19043 2.49963C3.02898 2.49963 1.50025 3.95666 1.5 5.49963L1.50391 5.63635C1.54202 6.31846 1.86406 6.95795 2.41113 7.46741C2.70578 7.74191 2.92871 8.14682 2.92871 8.61975V9.50061H3.59961C3.7217 8.90551 4.25661 8.51664 4.81445 8.49182L4.94141 8.4928L5.19043 8.49963L5.39258 8.49475C5.59508 8.48579 5.7974 8.4638 5.99707 8.42932C6.67843 8.31178 7.42912 8.74814 7.55273 9.50061H8.21582V7.78284C8.21585 7.56713 8.30307 7.35095 8.47266 7.19299L8.5498 7.12952C8.70998 7.01353 8.90672 6.95985 9.10254 6.97815L9.2002 6.99377L9.25098 6.99963H10.25C10.3712 6.99939 10.4729 6.9131 10.4961 6.79944L10.501 6.74963V5.74963C10.5008 5.61221 10.388 5.49991 10.25 5.49963V5.49866C9.68775 5.49823 9.26237 5.1268 9.08496 4.70178C8.95835 4.39845 8.75824 4.10297 8.49219 3.82874C8.22892 3.55741 8.03621 3.17454 8.03613 2.73499V2.66565L7.63867 2.77893C7.32318 2.86811 7.00397 2.84546 6.72461 2.75256C6.29639 2.60993 5.8426 2.52302 5.38574 2.50354L5.19043 2.49963ZM7.39355 4.49963C7.80765 4.49963 8.14336 4.83559 8.14355 5.24963C8.14355 5.66385 7.80777 5.99963 7.39355 5.99963C6.97934 5.99963 6.64355 5.66385 6.64355 5.24963C6.64375 4.83559 6.97946 4.49963 7.39355 4.49963ZM4.99805 3.49963C5.4121 3.49856 5.74868 3.83366 5.75 4.24768C5.75108 4.66186 5.41614 4.99851 5.00195 4.99963C4.65215 5.0006 4.38273 5.10333 4.20215 5.20374C4.11172 5.25403 4.04543 5.30381 4.00488 5.33655C3.9853 5.35237 3.9719 5.36414 3.96582 5.36975C3.96456 5.37103 3.96257 5.37218 3.96191 5.37268L3.91504 5.41663C3.62587 5.66358 3.19085 5.65582 2.91016 5.38733C2.61136 5.10104 2.60076 4.62694 2.88672 4.32776V4.32678H2.8877L2.88867 4.32581L2.89062 4.32288L2.9082 4.3053C2.91774 4.29589 2.93005 4.28439 2.94434 4.27112C2.97342 4.24412 3.01286 4.20888 3.06152 4.16956C3.15878 4.09098 3.29709 3.99137 3.47363 3.89319C3.82775 3.6963 4.34453 3.50141 4.99805 3.49963ZM3.96484 5.36975C3.96556 5.36916 3.96693 5.36867 3.96777 5.3678L3.96875 5.36584L3.96973 5.36487H3.9707L3.96973 5.36389L3.96484 5.36975Z"
    fill="currentColor"
  />
</svg>
