<svg width="24" height="24" viewBox="0 0 24 24" fill="none" xmlns="http://www.w3.org/2000/svg" data-fui-icon="true">
  <path
    d="M10.792 1.01367C12.0636 1.07492 13.3118 1.34705 14.4766 1.79102C14.8252 1.92383 15.1798 1.93653 15.4795 1.83105L17.6016 1.08398V1.08301C18.2848 0.843268 18.9999 1.35114 19 2.07422V4.35156C19.0001 4.66139 19.1245 4.98757 19.3594 5.28125C20.0643 6.16215 20.6129 7.15411 20.9404 8.22559C20.9996 8.41884 21.1468 8.5 21.248 8.5C22.7659 8.50068 23.9978 9.73165 23.998 11.25V12.75L23.9834 13.0312C23.8517 14.3251 22.8227 15.3534 21.5293 15.4854L21.248 15.5H20.8027C20.3558 15.5 19.8911 15.7631 19.5371 16.2285C19.4914 16.2887 19.4447 16.3487 19.3975 16.4072C19.1382 16.7286 19 17.073 19 17.3955V20.25C18.9998 21.7685 17.7685 22.9998 16.25 23H15.2461C14.0057 23 13.0002 21.9942 13 20.7539C12.9999 20.2962 12.5466 19.8617 11.9658 19.918C11.5395 19.9594 11.1091 19.9851 10.6777 19.9951L10.2461 20C10.1548 20 10.0634 19.9993 9.97266 19.9971C9.40179 19.9829 9.00009 20.4019 9 20.8086C8.99964 22.0185 8.01851 22.9996 6.80859 23H5.75C4.23134 23 3.0002 21.7686 3 20.25V17.792C2.99985 17.4412 2.84009 17.0746 2.54492 16.7627C1.06677 15.2022 0.123996 13.1796 0.0117188 10.9492L0 10.5C8.44472e-05 8.71116 0.529642 7.04836 1.44531 5.62988C0.521754 4.91027 0 3.57027 0 1.75C0 1.33579 0.335786 1 0.75 1C1.16421 1 1.5 1.33579 1.5 1.75C1.5 3.30957 1.9232 4.0811 2.3584 4.43359C4.24765 2.32766 7.09611 1.00013 10.2461 1L10.792 1.01367ZM15.5 8C14.6717 8 14.0002 8.67174 14 9.5C14.0002 10.3283 14.6717 11 15.5 11C16.3283 11 16.9998 10.3283 17 9.5C16.9998 8.67174 16.3283 8 15.5 8ZM11.0596 4.14746C9.40237 3.79859 8.07332 4.12485 7.15625 4.5498C6.70136 4.76066 6.34922 4.99483 6.10742 5.17969C5.98648 5.27219 5.89176 5.35367 5.8252 5.41406C5.79224 5.44397 5.76553 5.4693 5.74609 5.48828L5.70898 5.52539V5.52637C5.7119 5.52942 5.72998 5.54683 5.83398 5.64648L5.70801 5.52637C5.42196 5.82562 5.43242 6.30064 5.73145 6.58691C6.03053 6.87281 6.50469 6.86201 6.79102 6.56348V6.56445L6.79395 6.56152C6.80089 6.55473 6.81417 6.54151 6.83301 6.52441C6.87126 6.48971 6.93398 6.43578 7.01855 6.37109C7.18877 6.24098 7.44785 6.0684 7.78711 5.91113C8.46052 5.59909 9.46018 5.3435 10.751 5.61523C11.156 5.70027 11.5532 5.44014 11.6387 5.03516C11.7235 4.63011 11.4646 4.23278 11.0596 4.14746Z"
    fill="currentColor"
  />
</svg>
