<svg width="32" height="32" viewBox="0 0 32 32" fill="none" xmlns="http://www.w3.org/2000/svg" data-fui-icon="true">
  <path
    d="M1.75 1.99957C2.16407 1.99957 2.49977 2.33556 2.5 2.74957C2.5 4.56816 3.30729 5.79859 4.06445 6.2066C6.41665 3.62703 9.90905 2.00073 13.7812 2.00055L14.1279 2.00446C15.8599 2.04758 17.5643 2.41242 19.1445 3.03278C19.5978 3.2107 20.0688 3.24006 20.4824 3.10895L23.6328 2.10895L23.7598 2.07672C24.3944 1.95777 24.9992 2.4455 25 3.10895V6.55621C25.0001 6.96649 25.1544 7.38794 25.4336 7.76813C26.1471 8.73964 26.711 9.80777 27.0791 10.9478C27.1932 11.301 27.4835 11.5004 27.752 11.5005C29.5469 11.5005 31.002 12.9556 31.002 14.7505V17.2505C31.0016 19.0451 29.5468 20.5005 27.752 20.5005H27.1172C26.4693 20.5007 25.8309 20.8835 25.3955 21.5142C25.2651 21.7031 25.1293 21.8871 24.9893 22.066C24.6757 22.4665 24.5 22.9148 24.5 23.3511V26.7505C24.4999 28.5454 23.0448 30.0005 21.25 30.0005H19.8027C18.5314 30.0004 17.5001 28.9691 17.5 27.6978C17.4997 27.1878 16.9778 26.7148 16.3379 26.8111C15.7071 26.906 15.0675 26.9653 14.4248 26.9888L13.7812 27.0005C13.3774 27.0005 12.9773 26.9798 12.583 26.939C11.9648 26.8755 11.5002 27.3252 11.5 27.7711C11.4999 28.9967 10.506 29.9908 9.28027 29.9908H7.75C5.95531 29.9906 4.50014 28.5355 4.5 26.7408V23.4244C4.5 22.9855 4.32489 22.5391 4.01074 22.1529C2.25829 19.9985 1.14599 17.3185 1.01367 14.5543L1 14.0005C1 11.5487 1.78119 9.27997 3.11426 7.38922C1.83755 6.56027 1 4.76086 1 2.74957C1.00023 2.33566 1.33607 1.99974 1.75 1.99957ZM13.7812 3.50055C7.50299 3.50087 2.50001 8.24854 2.5 14.0005L2.51172 14.483C2.62751 16.8959 3.60292 19.2743 5.1748 21.2066C5.6679 21.8128 6 22.5841 6 23.4244V26.7408C6.00014 27.7071 6.78373 28.4906 7.75 28.4908H9.28027C9.67754 28.4908 9.99986 28.1683 10 27.7711C10.0002 26.2648 11.4137 25.3104 12.7373 25.4468C13.0809 25.4823 13.4295 25.5005 13.7812 25.5005L14.3701 25.4898C14.9574 25.4682 15.5413 25.414 16.1152 25.3277C17.524 25.1161 18.9998 26.1363 19 27.6978C19.0001 28.1407 19.3598 28.5004 19.8027 28.5005H21.25C22.2164 28.5005 22.9999 27.7169 23 26.7505V23.3511C23 22.5107 23.3351 21.7458 23.8086 21.1412C23.9303 20.9858 24.0479 20.8257 24.1611 20.6617C24.8059 19.7277 25.8638 19.0007 27.1172 19.0005H27.752C28.6579 19.0005 29.4034 18.3117 29.4932 17.4293L29.502 17.2505V14.7505C29.502 13.7841 28.7185 13.0005 27.752 13.0005C26.7329 13.0004 25.934 12.2807 25.6523 11.4088C25.3379 10.435 24.8513 9.51012 24.2246 8.6568C23.7942 8.07083 23.5001 7.34468 23.5 6.55621V3.72418L20.9365 4.53864C20.1463 4.78928 19.3191 4.71276 18.5967 4.42926C17.1701 3.86923 15.6381 3.54302 14.0908 3.50446L13.7812 3.50055ZM21.4023 11.0005C22.2308 11.0005 22.9023 11.6721 22.9023 12.5005C22.9021 13.3288 22.2306 14.0005 21.4023 14.0005C20.5741 14.0005 19.9026 13.3288 19.9023 12.5005C19.9023 11.6721 20.5739 11.0005 21.4023 11.0005ZM9.9502 6.67828C11.0795 6.15495 12.7189 5.75148 14.7695 6.18317C15.1747 6.26852 15.4347 6.6657 15.3496 7.07086C15.2641 7.47582 14.866 7.73605 14.4609 7.65094C12.7766 7.29633 11.4667 7.62918 10.5811 8.03961C10.1353 8.24623 9.79456 8.47383 9.56934 8.64606C9.45718 8.73185 9.37444 8.80379 9.32227 8.85114C9.29665 8.87438 9.27806 8.89168 9.26758 8.90192L9.25879 8.91071V8.90973C8.97247 9.20812 8.49827 9.21896 8.19922 8.93317C7.89998 8.64693 7.88972 8.17196 8.17578 7.87262L8.71777 8.39117L8.17676 7.87164L8.18164 7.86676C8.18407 7.86426 8.18697 7.86053 8.19043 7.85699C8.19752 7.84982 8.2074 7.84074 8.21875 7.82965C8.24173 7.8072 8.27333 7.77625 8.31348 7.73981C8.39398 7.66675 8.50977 7.56818 8.6582 7.45465C8.95503 7.22766 9.38884 6.93847 9.9502 6.67828Z"
    fill="currentColor"
  />
</svg>
