<svg width="16" height="16" viewBox="0 0 16 16" fill="none" xmlns="http://www.w3.org/2000/svg" data-fui-icon="true">
  <path
    fill-rule="evenodd"
    clip-rule="evenodd"
    d="M11.4141 1.03589C12.0854 0.845965 12.7498 1.35171 12.75 2.04663V3.64136C12.75 3.69928 12.7751 3.7818 12.8496 3.86694C13.1549 4.21514 13.4207 4.59401 13.6367 4.9978C13.7377 5.18644 13.8829 5.24969 13.9707 5.24976H14.25C15.2164 5.24976 15.9998 6.03344 16 6.99976V8.99976C15.9998 9.96595 15.2165 10.7498 14.25 10.7498H13V13.2498C12.9998 14.2161 12.2164 14.9998 11.25 14.9998H10.043C9.19082 14.9995 8.50007 14.308 8.5 13.4558C8.49991 13.4465 8.49819 13.4402 8.49512 13.4343C8.49102 13.4267 8.48137 13.4144 8.46387 13.4011C8.42502 13.3719 8.36981 13.3564 8.31738 13.366C7.84439 13.4527 7.35949 13.4997 6.87012 13.4998C6.77154 13.4998 6.67354 13.4977 6.57617 13.4939C6.54753 13.4928 6.52126 13.5039 6.50586 13.5173C6.50305 13.5198 6.50024 13.5218 6.49902 13.5232C6.49609 14.3389 5.83494 14.9996 5.01855 14.9998H3.75C2.78361 14.9998 2.00018 14.2161 2 13.2498V11.8289C1.99987 11.7632 1.96739 11.6679 1.87207 11.5779C0.724211 10.4935 0.000130009 9.01705 0 7.37476C8.07212e-05 6.20061 0.363003 5.11991 0.986328 4.20386C0.931588 4.1526 0.875747 4.09685 0.820312 4.03589C0.39082 3.56342 0 2.82353 0 1.74976C5.83956e-05 1.33559 0.335822 0.999756 0.75 0.999756C1.16418 0.999756 1.49994 1.33559 1.5 1.74976C1.5 2.42551 1.73427 2.81101 1.92969 3.02612C1.9453 3.0433 1.96209 3.05851 1.97754 3.07397C3.23839 1.93914 4.98526 1.24976 6.87012 1.24976C7.67523 1.24977 8.46995 1.37435 9.2207 1.59937C9.29477 1.62149 9.35705 1.61876 9.40137 1.6062L11.4131 1.03589H11.4141ZM10 5.49976C9.4478 5.49976 9.00014 5.94759 9 6.49976C9.00007 7.05198 9.44776 7.49976 10 7.49976C10.5522 7.49976 10.9999 7.05198 11 6.49976C10.9999 5.94759 10.5522 5.49976 10 5.49976ZM7.05957 3.67944C6.09737 3.60277 5.33196 3.85254 4.80664 4.12573C4.54537 4.26165 4.3423 4.40373 4.20117 4.51538C4.13048 4.57132 4.0747 4.62067 4.03418 4.65796C4.014 4.67653 3.99702 4.69239 3.98438 4.70483C3.97817 4.71096 3.97312 4.717 3.96875 4.72144C3.96666 4.72355 3.96455 4.72559 3.96289 4.72729C3.96206 4.72803 3.96062 4.72856 3.95996 4.72925L3.95898 4.7312L4.42188 5.17554L3.95801 4.73218C3.67205 5.03153 3.68223 5.50653 3.98145 5.79272C4.28064 6.07855 4.75476 6.06706 5.04102 5.76831C5.0431 5.76633 5.04659 5.76439 5.0498 5.76147C5.06509 5.74741 5.09281 5.72303 5.13184 5.69214C5.21064 5.62979 5.33462 5.54232 5.49902 5.45679C5.82579 5.28685 6.31102 5.12538 6.94043 5.17554C7.35318 5.20839 7.71496 4.89975 7.74805 4.48706C7.78095 4.07417 7.47246 3.71236 7.05957 3.67944ZM5.03613 5.77417H5.03711C5.03753 5.77374 5.03832 5.77297 5.03906 5.77222L5.04004 5.77026L5.04102 5.76929H5.04199L5.04102 5.76831C5.03832 5.77091 5.0369 5.77342 5.03613 5.77417Z"
    fill="currentColor"
  />
</svg>
