<svg width="24" height="24" viewBox="0 0 24 24" fill="none" xmlns="http://www.w3.org/2000/svg" data-fui-icon="true">
  <path
    fill-rule="evenodd"
    clip-rule="evenodd"
    d="M12.6914 2.77658C13.8433 1.62487 15.7112 1.62499 16.8632 2.77658L21.1767 7.09005C22.3287 8.24203 22.3285 10.1099 21.1767 11.2619L17.4765 14.9631C17.2955 15.1442 17.1581 15.3647 17.0771 15.6076L15.7314 19.6477C15.0379 21.7281 12.3973 22.3515 10.8466 20.801L7.52926 17.4846L3.9941 21.0197C3.70122 21.3126 3.22645 21.3126 2.93355 21.0197C2.64085 20.7268 2.64072 20.252 2.93355 19.9592L6.46871 16.424L3.1523 13.1076C1.60175 11.5569 2.22522 8.91633 4.30562 8.22287L8.34566 6.87716C8.58866 6.79617 8.81005 6.65886 8.99117 6.47775L12.6914 2.77658ZM15.8027 3.8381C15.2364 3.27184 14.3182 3.27184 13.7519 3.8381L10.0517 7.53829C9.70602 7.88397 9.28404 8.14341 8.82027 8.29806L4.78023 9.64572C3.75768 9.98656 3.45077 11.2849 4.21285 12.0471L11.9072 19.7404C12.6693 20.5024 13.9665 20.1963 14.3076 19.174L15.6552 15.133C15.8098 14.6695 16.0696 14.2481 16.415 13.9026L20.1162 10.2014C20.6822 9.63511 20.6823 8.71679 20.1162 8.1506L15.8027 3.8381Z"
    fill="currentColor"
  />
</svg>
