<svg width="16" height="16" viewBox="0 0 16 16" fill="none" xmlns="http://www.w3.org/2000/svg" data-fui-icon="true">
  <path
    fill-rule="evenodd"
    clip-rule="evenodd"
    d="M8.54116 1.83357C9.3417 1.03318 10.64 1.03318 11.4406 1.83357L14.1984 4.59138C14.9985 5.39184 14.9985 6.6893 14.1984 7.48982L12.0558 9.6324C11.9543 9.73415 11.8809 9.86165 11.8439 10.0006L11.1203 12.7174C10.7133 14.2432 8.80623 14.7549 7.6896 13.6383L5.57143 11.5211L3.27358 13.8189C2.98077 14.1117 2.50595 14.1116 2.21304 13.8189C1.92014 13.526 1.92014 13.0513 2.21304 12.7584L4.51089 10.4605L2.39272 8.34236C1.27619 7.2258 1.78808 5.31882 3.31362 4.91169L6.0314 4.18708C6.17034 4.14999 6.29782 4.07681 6.39956 3.97517L8.54116 1.83357ZM10.3791 2.89412C10.1643 2.67969 9.8164 2.67957 9.60171 2.89412L7.46011 5.03572C7.17172 5.324 6.81211 5.53122 6.41811 5.6363L3.70034 6.36091C3.29139 6.47039 3.15383 6.98235 3.45327 7.28181L8.75015 12.5777C9.04956 12.8771 9.5605 12.7404 9.67007 12.3316L10.3957 9.61384C10.5007 9.21993 10.7071 8.86022 10.9953 8.57185L13.1378 6.42927C13.3521 6.21454 13.3522 5.8666 13.1378 5.65193L10.3791 2.89412Z"
    fill="currentColor"
  />
</svg>
