<svg width="24" height="24" viewBox="0 0 24 24" fill="none" xmlns="http://www.w3.org/2000/svg" data-fui-icon="true">
  <path
    fill-rule="evenodd"
    clip-rule="evenodd"
    d="M15.0496 1C16.6787 1.00011 17.9998 2.32102 17.9998 3.9502V9.18359C17.9998 9.43973 18.0591 9.69278 18.1736 9.92188L20.0789 13.7305C21.0595 15.6918 19.633 17.9998 17.4402 18H12.7498V22.25C12.7498 22.6641 12.4139 22.9999 11.9998 23C11.5856 23 11.2498 22.6642 11.2498 22.25V18H6.55936C4.36645 17.9999 2.93997 15.6919 3.92069 13.7305L5.82596 9.92188C5.94049 9.6928 5.99978 9.4397 5.99979 9.18359V3.9502C5.99979 2.32096 7.32075 1 8.94999 1H15.0496ZM8.94999 2.5C8.14918 2.5 7.49979 3.14938 7.49979 3.9502V9.18359C7.49978 9.67249 7.38539 10.1545 7.16679 10.5918L5.26249 14.4014C4.78045 15.3654 5.48153 16.4999 6.55936 16.5H17.4402C18.5179 16.4998 19.219 15.3654 18.7371 14.4014L16.8328 10.5918C16.6142 10.1545 16.4998 9.67253 16.4998 9.18359V3.9502C16.4998 3.14945 15.8503 2.50011 15.0496 2.5H8.94999Z"
    fill="currentColor"
  />
</svg>
