<svg width="12" height="12" viewBox="0 0 12 12" fill="none" xmlns="http://www.w3.org/2000/svg" data-fui-icon="true">
  <path
    d="M10.0905 3.66596L8.32276 1.89819C7.93223 1.50767 7.29907 1.50767 6.90854 1.89819L5.19903 3.60771C5.04524 3.7615 4.85254 3.8706 4.64154 3.92335L2.43481 4.47503C1.68073 4.66356 1.42061 5.60265 1.97024 6.15228L3.90332 8.08536L5.83643 10.0185C6.38606 10.5681 7.32516 10.308 7.51368 9.5539L8.06536 7.34718C8.11811 7.13618 8.22722 6.94348 8.38101 6.78969L10.0905 5.08018C10.481 4.68965 10.481 4.05649 10.0905 3.66596Z"
    fill="currentColor"
  />
  <path
    d="M3.90332 8.08536L5.83643 10.0185C6.38606 10.5681 7.32516 10.308 7.51368 9.5539L8.06536 7.34718C8.11811 7.13618 8.22722 6.94348 8.38101 6.78969L10.0905 5.08018C10.481 4.68965 10.481 4.05649 10.0905 3.66596L8.32276 1.89819C7.93223 1.50767 7.29907 1.50767 6.90854 1.89819L5.19903 3.60771C5.04524 3.7615 4.85254 3.8706 4.64154 3.92335L2.43481 4.47503C1.68073 4.66356 1.42061 5.60265 1.97024 6.15228L3.90332 8.08536ZM3.90332 8.08536L1.782 10.2067"
    stroke="currentColor"
    stroke-width="1.5"
    stroke-linecap="round"
    stroke-linejoin="round"
  />
</svg>
