<svg width="24" height="24" viewBox="0 0 24 24" fill="none" xmlns="http://www.w3.org/2000/svg" data-fui-icon="true">
  <path
    fill-rule="evenodd"
    clip-rule="evenodd"
    d="M15.2498 1C16.7684 1.00013 17.9998 2.2313 17.9998 3.75V9.18359C17.9998 9.43973 18.059 9.69278 18.1736 9.92188L20.2234 14.0205C21.1372 15.8488 19.8075 17.9998 17.7634 18H12.7498V22.25C12.7498 22.6641 12.4138 22.9998 11.9998 23C11.5856 23 11.2498 22.6642 11.2498 22.25V18H6.23609C4.1919 18 2.86218 15.8489 3.77613 14.0205L5.82594 9.92188C5.94045 9.69281 5.99975 9.43969 5.99976 9.18359V3.75C5.99976 2.23122 7.23098 1 8.74976 1H15.2498Z"
    fill="currentColor"
  />
</svg>
