<svg width="32" height="32" viewBox="0 0 32 32" fill="none" xmlns="http://www.w3.org/2000/svg" data-fui-icon="true">
  <path
    d="M20.25 1.75H11.75C10.0931 1.75 8.75 3.09314 8.75 4.75V12.2946C8.75 12.7593 8.64879 13.2185 8.45339 13.6401L5.9748 18.9886C5.0534 20.9769 6.50534 23.25 8.69672 23.25H15.9999H23.3033C25.4947 23.25 26.9466 20.9769 26.0252 18.9886L23.5466 13.6401C23.3512 13.2185 23.25 12.7593 23.25 12.2946V4.75C23.25 3.09315 21.9069 1.75 20.25 1.75Z"
    fill="currentColor"
  />
  <path
    d="M15.9999 23.25H23.3033C25.4947 23.25 26.9466 20.9769 26.0252 18.9886L23.5466 13.6401C23.3512 13.2185 23.25 12.7593 23.25 12.2946V4.75C23.25 3.09315 21.9069 1.75 20.25 1.75H11.75C10.0931 1.75 8.75 3.09314 8.75 4.75V12.2946C8.75 12.7593 8.64878 13.2185 8.45339 13.6401L5.9748 18.9886C5.0534 20.9769 6.50534 23.25 8.69672 23.25H15.9999ZM15.9999 23.25V30.25"
    stroke="currentColor"
    stroke-width="1.5"
    stroke-linecap="round"
    stroke-linejoin="round"
  />
</svg>
