<svg width="32" height="32" viewBox="0 0 32 32" fill="none" xmlns="http://www.w3.org/2000/svg" data-fui-icon="true">
  <path
    fill-rule="evenodd"
    clip-rule="evenodd"
    d="M16.9365 3.69953C18.4008 2.23534 20.7748 2.23548 22.2392 3.69953L28.2499 9.71027C29.7144 11.1747 29.7142 13.5485 28.2499 15.013L22.915 20.3489C22.6637 20.6003 22.47 20.9039 22.3476 21.2376L20.3183 26.7718C19.3754 29.3434 16.0824 30.0697 14.1455 28.1331L9.51166 23.4984L4.91596 28.095C4.62308 28.3879 4.14733 28.3879 3.85444 28.095C3.56185 27.8022 3.56194 27.3273 3.85444 27.0345L8.45112 22.4378L3.81733 17.804C1.88084 15.8671 2.60621 12.5742 5.17768 11.6312L10.7119 9.60285C11.0458 9.4804 11.35 9.28597 11.6015 9.03449L16.9365 3.69953Z"
    fill="currentColor"
  />
</svg>
