<svg width="24" height="24" viewBox="0 0 24 24" fill="none" xmlns="http://www.w3.org/2000/svg" data-fui-icon="true">
  <path
    d="M15.25 1C16.7687 1.00013 18 2.2313 18 3.75V9.18359C18 9.43973 18.0593 9.69278 18.1738 9.92188L20.2236 14.0205C21.1375 15.8488 19.8077 17.9998 17.7637 18H12.75V22.25C12.75 22.6641 12.4141 22.9998 12 23C11.5858 23 11.25 22.6642 11.25 22.25V18H6.23633C4.19214 18 2.86242 15.8489 3.77637 14.0205L5.82617 9.92188C5.94069 9.69281 5.99999 9.43969 6 9.18359V3.75C6 2.23122 7.23122 1 8.75 1H15.25Z"
    fill="currentColor"
  />
</svg>
