<svg width="24" height="24" viewBox="0 0 24 24" fill="none" xmlns="http://www.w3.org/2000/svg" data-fui-icon="true">
  <path
    d="M15.25 1.75H8.75C7.64543 1.75 6.75 2.64543 6.75 3.75V9.18353C6.75 9.55612 6.66325 9.9236 6.49662 10.2569L4.44724 14.3556C3.78233 15.6854 4.74932 17.25 6.23609 17.25H11.9999H17.7639C19.2507 17.25 20.2177 15.6854 19.5528 14.3556L17.5034 10.2569C17.3368 9.9236 17.25 9.55612 17.25 9.18353V3.75C17.25 2.64543 16.3546 1.75 15.25 1.75Z"
    fill="currentColor"
  />
  <path
    d="M11.9999 17.25H17.7639C19.2507 17.25 20.2177 15.6854 19.5528 14.3556L17.5034 10.2569C17.3368 9.9236 17.25 9.55612 17.25 9.18353V3.75C17.25 2.64543 16.3546 1.75 15.25 1.75H8.75C7.64543 1.75 6.75 2.64543 6.75 3.75V9.18353C6.75 9.55612 6.66325 9.9236 6.49662 10.2569L4.44724 14.3556C3.78233 15.6854 4.74932 17.25 6.23609 17.25H11.9999ZM11.9999 17.25V22.25"
    stroke="currentColor"
    stroke-width="1.5"
    stroke-linecap="round"
    stroke-linejoin="round"
  />
</svg>
