<svg width="24" height="24" viewBox="0 0 24 24" fill="none" xmlns="http://www.w3.org/2000/svg" data-fui-icon="true">
  <path
    d="M20.6466 7.62061L16.3333 3.30726C15.4741 2.44811 14.0811 2.44811 13.222 3.30726L9.52133 7.00792C9.25787 7.27139 8.93668 7.46989 8.58321 7.58771L4.54285 8.93447C2.99133 9.45164 2.52647 11.4208 3.68291 12.5772L7.52974 16.4241L11.3767 20.271C12.5331 21.4274 14.5022 20.9625 15.0194 19.411L16.3662 15.3707C16.484 15.0172 16.6825 14.696 16.946 14.4325L20.6466 10.7319C21.5058 9.87273 21.5058 8.47977 20.6466 7.62061Z"
    fill="currentColor"
  />
  <path
    d="M7.52974 16.4241L11.3767 20.271C12.5331 21.4274 14.5022 20.9625 15.0194 19.411L16.3662 15.3707C16.484 15.0172 16.6825 14.696 16.946 14.4325L20.6466 10.7319C21.5058 9.87273 21.5058 8.47977 20.6466 7.62061L16.3333 3.30726C15.4741 2.44811 14.0811 2.44811 13.222 3.30726L9.52133 7.00792C9.25787 7.27139 8.93668 7.46989 8.58321 7.58771L4.54285 8.93447C2.99133 9.45164 2.52647 11.4208 3.68291 12.5772L7.52974 16.4241ZM7.52974 16.4241L3.46388 20.4899"
    stroke="currentColor"
    stroke-width="1.5"
    stroke-linecap="round"
    stroke-linejoin="round"
  />
</svg>
