<svg width="32" height="32" viewBox="0 0 32 32" fill="none" xmlns="http://www.w3.org/2000/svg" data-fui-icon="true">
  <path
    fill-rule="evenodd"
    clip-rule="evenodd"
    d="M16.9365 3.69953C18.4009 2.23537 20.7748 2.23545 22.2392 3.69953L28.25 9.71027C29.7144 11.1747 29.7142 13.5485 28.25 15.013L22.915 20.3489C22.6637 20.6003 22.4701 20.9039 22.3476 21.2376L20.3183 26.7718C19.3754 29.3435 16.0824 30.0697 14.1455 28.1331L9.51169 23.4984L4.91598 28.095C4.62311 28.3879 4.14736 28.3879 3.85446 28.095C3.56182 27.8022 3.56191 27.3274 3.85446 27.0345L8.45114 22.4378L3.81735 17.804C1.88085 15.8671 2.60617 12.5742 5.1777 11.6312L10.7119 9.60285C11.0458 9.4804 11.35 9.28597 11.6015 9.03449L16.9365 3.69953ZM21.1787 4.76007C20.3 3.88178 18.8756 3.88171 17.997 4.76007L12.6621 10.095C12.2567 10.5004 11.7676 10.8126 11.2295 11.0101L5.6943 13.0403C4.15156 13.6062 3.71619 15.5813 4.8779 16.7435L15.207 27.0726C16.3693 28.2339 18.3444 27.798 18.9101 26.2552L20.9394 20.721C21.1369 20.1826 21.449 19.6929 21.8545 19.2874L27.1894 13.9525C28.0679 13.0738 28.068 11.6494 27.1894 10.7708L21.1787 4.76007Z"
    fill="currentColor"
  />
</svg>
