<svg width="16" height="16" viewBox="0 0 16 16" fill="none" xmlns="http://www.w3.org/2000/svg" data-fui-icon="true">
  <path
    d="M9.9502 1C11.082 1.00034 11.9999 1.91792 12 3.0498V6.0791C12.0001 6.22299 12.0383 6.36473 12.1104 6.48926L13.5195 8.92285C14.3104 10.2894 13.3239 11.9997 11.7451 12H8.75V14.25C8.75 14.6641 8.414 14.9997 8 15C7.58579 15 7.25 14.6642 7.25 14.25V12H4.25488C2.67572 12 1.68931 10.2895 2.48047 8.92285L3.88965 6.48926C3.96167 6.36478 3.99993 6.22292 4 6.0791V3.0498C4.00011 1.91778 4.91778 1.00011 6.0498 1H9.9502ZM6.0498 2.5C5.7462 2.50011 5.50011 2.7462 5.5 3.0498V6.0791C5.49993 6.48683 5.39176 6.88735 5.1875 7.24023L3.77832 9.6748C3.56655 10.0414 3.83139 10.5 4.25488 10.5H11.7451C12.1683 10.4997 12.4332 10.0412 12.2217 9.6748L10.8125 7.24023C10.6082 6.88731 10.5001 6.4869 10.5 6.0791V3.0498C10.4999 2.74635 10.2536 2.50034 9.9502 2.5H6.0498Z"
    fill="currentColor"
  />
</svg>
