<svg width="20" height="20" viewBox="0 0 20 20" fill="none" xmlns="http://www.w3.org/2000/svg" data-fui-icon="true">
  <path
    fill-rule="evenodd"
    clip-rule="evenodd"
    d="M12.4503 1C13.8584 1.00011 15 2.14163 15.0001 3.5498V7.62695C15.0001 7.83109 15.0499 8.03253 15.1456 8.21289L16.7598 11.2549C17.6609 12.9532 16.4295 15 14.5069 15H10.7501V18.25C10.7501 18.6642 10.4142 19 10.0001 19C9.58588 19 9.25006 18.6642 9.25006 18.25V15H5.49322C3.57065 14.9999 2.33926 12.9532 3.24029 11.2549L4.85455 8.21289C4.95019 8.03252 5.00006 7.83111 5.00006 7.62695V3.5498C5.00016 2.14166 6.14173 1.00015 7.54986 1H12.4503Z"
    fill="currentColor"
  />
</svg>
