<svg width="32" height="32" viewBox="0 0 32 32" fill="none" xmlns="http://www.w3.org/2000/svg" data-fui-icon="true">
  <path
    d="M20.2495 1C22.3206 1 23.9995 2.67893 23.9995 4.75V12.2949C23.9996 12.6506 24.0775 13.0025 24.2271 13.3252L26.7056 18.6729C27.8572 21.158 26.0422 23.9997 23.3032 24H16.7495V30.25C16.7495 30.6642 16.4137 31 15.9995 31C15.5855 30.9998 15.2495 30.6641 15.2495 30.25V24H8.6958C5.95711 23.9994 4.14199 21.1579 5.29346 18.6729L7.77197 13.3252C7.92153 13.0025 7.99947 12.6506 7.99951 12.2949V4.75C7.99951 2.67907 9.67864 1.00023 11.7495 1H20.2495Z"
    fill="currentColor"
  />
</svg>
