<svg width="16" height="16" viewBox="0 0 16 16" fill="none" xmlns="http://www.w3.org/2000/svg" data-fui-icon="true">
  <path
    d="M8.54102 1.83356C9.34156 1.03317 10.6399 1.03317 11.4404 1.83356L14.1982 4.59137C14.9984 5.39183 14.9983 6.68929 14.1982 7.48981L12.0557 9.63239C11.9541 9.73414 11.8808 9.86164 11.8438 10.0005L11.1201 12.7173C10.7132 14.2432 8.80609 14.7549 7.68945 13.6382L5.57129 11.5211L3.27344 13.8189C2.98063 14.1117 2.5058 14.1115 2.21289 13.8189C1.92 13.526 1.92 13.0513 2.21289 12.7584L4.51074 10.4605L2.39258 8.34235C1.27604 7.22579 1.78794 5.3188 3.31348 4.91168L6.03125 4.18707C6.1702 4.14998 6.29767 4.0768 6.39941 3.97516L8.54102 1.83356Z"
    fill="currentColor"
  />
</svg>
