<svg width="20" height="20" viewBox="0 0 20 20" fill="none" xmlns="http://www.w3.org/2000/svg" data-fui-icon="true">
  <path
    fill-rule="evenodd"
    clip-rule="evenodd"
    d="M10.537 2.38997C11.5326 1.39469 13.1467 1.39481 14.1424 2.38997L17.6083 5.85579C18.6035 6.85153 18.6036 8.46554 17.6083 9.46126L14.7254 12.3441C14.5811 12.4884 14.4738 12.6665 14.4139 12.8616L13.4042 16.1536C12.8404 17.9917 10.5225 18.5686 9.16294 17.2093L6.50669 14.5531L3.63364 17.4251C3.34076 17.718 2.86599 17.718 2.5731 17.4251C2.28026 17.1322 2.28022 16.6574 2.5731 16.3646L5.44517 13.4925L2.78892 10.8353C1.42974 9.47574 2.00661 7.15779 3.84458 6.59407L7.13657 5.5843C7.33169 5.5244 7.50981 5.41807 7.65415 5.27376L10.537 2.38997Z"
    fill="currentColor"
  />
</svg>
