<svg width="16" height="16" viewBox="0 0 16 16" fill="none" xmlns="http://www.w3.org/2000/svg" data-fui-icon="true">
  <path
    d="M8.54102 1.83356C9.34156 1.03317 10.6399 1.03317 11.4404 1.83356L14.1982 4.59137C14.9984 5.39183 14.9983 6.68929 14.1982 7.48981L12.0557 9.63239C11.9541 9.73414 11.8808 9.86164 11.8438 10.0005L11.1201 12.7173C10.7132 14.2432 8.80608 14.7549 7.68945 13.6382L5.57129 11.5211L3.27344 13.8189C2.98063 14.1117 2.5058 14.1115 2.21289 13.8189C1.92 13.526 1.92 13.0513 2.21289 12.7584L4.51074 10.4605L2.39258 8.34235C1.27604 7.22579 1.78794 5.3188 3.31348 4.91168L6.03125 4.18707C6.1702 4.14998 6.29767 4.0768 6.39941 3.97516L8.54102 1.83356ZM10.3789 2.8941C10.1641 2.67967 9.81626 2.67956 9.60156 2.8941L7.45996 5.03571C7.17158 5.32398 6.81196 5.53121 6.41797 5.63629L3.7002 6.3609C3.29124 6.47037 3.15369 6.98234 3.45312 7.2818L8.75 12.5777C9.04942 12.8771 9.56035 12.7404 9.66992 12.3316L10.3955 9.61383C10.5006 9.21991 10.7069 8.8602 10.9951 8.57184L13.1377 6.42926C13.352 6.21453 13.3521 5.86659 13.1377 5.65192L10.3789 2.8941Z"
    fill="currentColor"
  />
</svg>
