<svg width="12" height="12" viewBox="0 0 12 12" fill="none" xmlns="http://www.w3.org/2000/svg" data-fui-icon="true">
  <path
    d="M7.24988 0C8.21638 0 8.99988 0.783502 8.99988 1.75V4.16797C8.99994 4.24939 9.02244 4.32959 9.06433 4.39941L10.2343 6.34961C10.9341 7.51603 10.0935 9 8.73328 9H6.74988V11.25C6.74988 11.6642 6.41408 12 5.99988 12C5.5857 12 5.24988 11.6642 5.24988 11.25V9H3.26648C1.90628 8.99994 1.0657 7.516 1.7655 6.34961L2.93542 4.39941C2.97733 4.32958 2.99981 4.24941 2.99988 4.16797V1.75C2.99988 0.783529 3.78342 4.39645e-05 4.74988 0H7.24988ZM4.74988 1.5C4.61184 1.50004 4.49988 1.61196 4.49988 1.75V4.16797C4.49981 4.52127 4.40333 4.86794 4.22156 5.1709L3.05164 7.12109C2.95171 7.2877 3.07222 7.49994 3.26648 7.5H8.73328C8.9276 7.5 9.0481 7.28773 8.94812 7.12109L7.7782 5.1709C7.59644 4.86795 7.49994 4.52126 7.49988 4.16797V1.75C7.49988 1.61193 7.38795 1.5 7.24988 1.5H4.74988Z"
    fill="currentColor"
  />
</svg>
