<svg width="20" height="20" viewBox="0 0 20 20" fill="none" xmlns="http://www.w3.org/2000/svg" data-fui-icon="true">
  <path
    d="M12.4501 1C13.8582 1.00011 14.9998 2.14163 14.9999 3.5498V7.62695C14.9999 7.83109 15.0498 8.03253 15.1454 8.21289L16.7596 11.2549C17.6607 12.9532 16.4293 15 14.5067 15H10.7499V18.25C10.7499 18.6642 10.4141 19 9.99988 19C9.5857 19 9.24988 18.6642 9.24988 18.25V15H5.49304C3.57047 14.9999 2.33908 12.9532 3.24011 11.2549L4.85437 8.21289C4.95001 8.03252 4.99988 7.83111 4.99988 7.62695V3.5498C4.99998 2.14166 6.14155 1.00015 7.54968 1H12.4501Z"
    fill="currentColor"
  />
</svg>
