<svg width="16" height="16" viewBox="0 0 16 16" fill="none" xmlns="http://www.w3.org/2000/svg" data-fui-icon="true">
  <path
    d="M9.95068 1C11.0825 1.00034 12.0004 1.91792 12.0005 3.0498V6.0791C12.0006 6.22299 12.0387 6.36473 12.1108 6.48926L13.52 8.92285C14.3109 10.2894 13.3244 11.9997 11.7456 12H8.75049V14.25C8.75049 14.6641 8.41449 14.9997 8.00049 15C7.58627 15 7.25049 14.6642 7.25049 14.25V12H4.25537C2.67621 12 1.6898 10.2895 2.48096 8.92285L3.89014 6.48926C3.96216 6.36477 4.00041 6.22292 4.00049 6.0791V3.0498C4.00059 1.91778 4.91826 1.00011 6.05029 1H9.95068Z"
    fill="currentColor"
  />
</svg>
