<svg width="20" height="20" viewBox="0 0 20 20" fill="none" xmlns="http://www.w3.org/2000/svg" data-fui-icon="true">
  <path
    fill-rule="evenodd"
    clip-rule="evenodd"
    d="M9.23553 0.399142C9.59151 -0.0800081 10.2872 -0.110768 10.6857 0.308325L10.7609 0.398165L16.7655 8.48283C17.231 9.10956 16.7835 9.99921 16.0029 9.99938H14.0508L18.16 15.4787C18.6295 16.1049 18.1819 16.999 17.3993 16.9991H10.7492C10.7493 17.0056 10.7501 17.0121 10.7501 17.0187V19.25C10.7501 19.6642 10.4143 19.9999 10.0002 20C9.58596 20 9.25018 19.6642 9.25018 19.25V17.0187C9.25018 17.0121 9.25099 17.0056 9.25116 16.9991H2.59808C1.81512 16.9991 1.36835 16.1049 1.83834 15.4787L5.9505 9.99938H3.99842C3.21807 9.99905 2.77062 9.10956 3.23575 8.48283L9.23553 0.399142Z"
    fill="currentColor"
  />
</svg>
