<svg width="20" height="20" viewBox="0 0 20 20" fill="none" xmlns="http://www.w3.org/2000/svg" data-fui-icon="true">
  <g clip-path="url(#clip0_7289_11)">
    <path
      d="M9.23438 0.39917C9.59037 -0.0799975 10.286 -0.110758 10.6846 0.30835L10.7598 0.398193L16.7646 8.48315C17.2302 9.10991 16.7826 9.99959 16.002 9.99976H14.0498L18.1592 15.4792C18.6287 16.1055 18.1811 16.9996 17.3984 16.9998H10.748C10.7482 17.0063 10.749 17.0128 10.749 17.0193V19.2507C10.749 19.6649 10.4132 20.0007 9.99902 20.0007C9.58481 20.0007 9.24902 19.6649 9.24902 19.2507V17.0193C9.24902 17.0128 9.24983 17.0063 9.25 16.9998H2.59668C1.81369 16.9998 1.36691 16.1055 1.83691 15.4792L5.94922 9.99976H3.99707C3.2167 9.99943 2.76923 9.1099 3.23438 8.48315L9.23438 0.39917Z"
      fill="currentColor"
    />
  </g>
  <defs>
    <clipPath id="clip0_7289_11"><path fill="currentColor" d="M0 0H20V20H0z" /></clipPath>
  </defs>
</svg>
