<svg width="24" height="24" viewBox="0 0 24 24" fill="none" xmlns="http://www.w3.org/2000/svg" data-fui-icon="true">
  <g clip-path="url(#clip0_7285_141)">
    <path
      fill-rule="evenodd"
      clip-rule="evenodd"
      d="M11.3229 0.279746C11.6928 -0.0967598 12.3055 -0.0968991 12.6754 0.279746L12.7506 0.365684L19.7936 9.4692C20.2758 10.0935 19.8306 11.0002 19.0416 11.0004H16.5465L21.8219 18.5044C22.2638 19.1337 21.8136 20.0002 21.0446 20.0005H12.7487V23.2514C12.7485 23.6655 12.4127 24.0014 11.9987 24.0014C11.5847 24.0012 11.2489 23.6653 11.2487 23.2514V20.0005H2.95569C2.18621 20.0005 1.73587 19.1338 2.17835 18.5044L7.45765 11.0004H4.95765C4.16835 11.0004 3.72293 10.0936 4.20569 9.4692L11.2477 0.365684L11.3229 0.279746ZM6.07777 9.50045H8.51722C9.28648 9.50088 9.73632 10.3683 9.29359 10.9975L4.01527 18.5005H19.986L14.7096 10.9965C14.2674 10.3671 14.7176 9.50048 15.4869 9.50045H17.9215L11.9987 1.84518L6.07777 9.50045Z"
      fill="currentColor"
    />
  </g>
  <defs>
    <clipPath id="clip0_7285_141"><path fill="currentColor" d="M0 0H24V24H0z" /></clipPath>
  </defs>
</svg>
