<svg width="12" height="12" viewBox="0 0 12 12" fill="none" xmlns="http://www.w3.org/2000/svg" data-fui-icon="true">
  <path
    fill-rule="evenodd"
    clip-rule="evenodd"
    d="M5.3169 0.290147C5.688 -0.0946159 6.31111 -0.0947468 6.68212 0.290147L6.75732 0.379014L9.85494 4.47761C10.3276 5.10337 9.88144 5.99995 9.09714 6.00005H8.98386L10.8178 8.48635C11.28 9.1135 10.8323 9.99991 10.0532 10H6.74951V11.25C6.74944 11.6641 6.41362 11.9999 5.99951 12C5.58534 12 5.24959 11.6642 5.24952 11.25V10H1.94584C1.16656 10 0.718757 9.11355 1.1812 8.48635L3.01517 6.00005H2.90091C2.11681 5.99979 1.67064 5.1033 2.14311 4.47761L5.24171 0.379014L5.3169 0.290147Z"
    fill="currentColor"
  />
</svg>
