<svg width="16" height="16" viewBox="0 0 16 16" fill="none" xmlns="http://www.w3.org/2000/svg" data-fui-icon="true">
  <path
    d="M7.33105 0.2771C7.69954 -0.0901495 8.30147 -0.0902145 8.66992 0.2771L8.74512 0.361084L13.5811 6.45874C14.0749 7.08136 13.6316 7.99966 12.8369 7.99976H11.4785L14.5352 12.5173C14.9618 13.1481 14.5096 13.9997 13.748 13.9998H8.75098V15.2488C8.75098 15.663 8.41519 15.9988 8.00098 15.9988C7.58689 15.9986 7.25098 15.6629 7.25098 15.2488V13.9998H2.25293C1.49128 13.9998 1.03918 13.1482 1.46582 12.5173L4.52246 7.99976H3.16504C2.37038 7.99976 1.92721 7.08238 2.4209 6.45972L7.25586 0.361084L7.33105 0.2771Z"
    fill="currentColor"
  />
</svg>
