<svg width="20" height="20" viewBox="0 0 20 20" fill="none" xmlns="http://www.w3.org/2000/svg" data-fui-icon="true">
  <g clip-path="url(#clip0_7285_139)">
    <path
      d="M9.23535 0.39917C9.59122 -0.0801075 10.2869 -0.110538 10.6855 0.30835L10.7607 0.398193L16.7656 8.48315C17.2312 9.10997 16.7837 9.99976 16.0029 9.99976H14.0508L18.1602 15.4792C18.6297 16.1055 18.1822 16.9998 17.3994 16.9998H10.749C10.7492 17.0063 10.75 17.0127 10.75 17.0193V19.2507C10.75 19.6649 10.4142 20.0007 10 20.0007C9.58599 20.0005 9.25 19.6648 9.25 19.2507V17.0193C9.25 17.0128 9.25081 17.0062 9.25098 16.9998H2.59766C1.81484 16.9995 1.36794 16.1054 1.83789 15.4792L5.9502 9.99976H3.99805C3.21785 9.99921 2.77026 9.10983 3.23535 8.48315L9.23535 0.39917ZM5.0918 8.49976H7.05078C7.83359 8.49976 8.28001 9.39307 7.81055 10.0193L3.69727 15.4998H16.2998L12.1904 10.0193C11.7218 9.39311 12.1689 8.49998 12.9512 8.49976H14.9092L9.99805 1.88745L5.0918 8.49976Z"
      fill="currentColor"
    />
  </g>
  <defs>
    <clipPath id="clip0_7285_139"><path fill="currentColor" d="M0 0H20V20H0z" /></clipPath>
  </defs>
</svg>
