<svg width="12" height="12" viewBox="0 0 12 12" fill="none" xmlns="http://www.w3.org/2000/svg" data-fui-icon="true">
  <path
    fill-rule="evenodd"
    clip-rule="evenodd"
    d="M5.31675 0.289497C5.68773 -0.0950685 6.31091 -0.0950001 6.68193 0.289497L6.75713 0.378361L9.85467 4.47684C10.3276 5.10262 9.88133 5.99924 9.09688 5.99924H8.9836L10.8175 8.48547C11.28 9.11265 10.8322 9.99909 10.0529 9.99909H6.74931V11.25C6.74907 11.664 6.41339 12 5.99934 12C5.58543 11.9998 5.24961 11.6639 5.24937 11.25V9.99909H1.94579C1.16668 9.99886 0.718682 9.11257 1.18117 8.48547L3.01508 5.99924H2.90083C2.1169 5.99875 1.67054 5.10244 2.14305 4.47684L5.24156 0.378361L5.31675 0.289497ZM4.00626 4.4993H4.10293C4.88213 4.4993 5.32981 5.38575 4.86755 6.01291L3.03461 8.49915H8.96407L7.13016 6.01291C6.66871 5.38594 7.11618 4.49975 7.89478 4.4993H7.99243L5.99934 1.86268L4.00626 4.4993Z"
    fill="currentColor"
  />
</svg>
