<svg width="16" height="16" viewBox="0 0 16 16" fill="none" xmlns="http://www.w3.org/2000/svg" data-fui-icon="true">
  <path
    fill-rule="evenodd"
    clip-rule="evenodd"
    d="M7.33066 0.277273C7.69918 -0.0900958 8.30106 -0.0901959 8.66953 0.277273L8.74472 0.361258L13.5807 6.45891C14.0744 7.0815 13.6311 7.99974 12.8365 7.99993H11.4781L14.5348 12.5175C14.9613 13.1483 14.5091 13.9997 13.7477 13.9999H8.75058V15.249C8.75051 15.6631 8.41475 15.999 8.00058 15.999C7.58648 15.9989 7.25065 15.6631 7.25058 15.249V13.9999H2.25253C1.49089 13.9999 1.03878 13.1484 1.46542 12.5175L4.52206 7.99993H3.16464C2.36998 7.99993 1.92681 7.08256 2.4205 6.45989L7.25546 0.361258L7.33066 0.277273ZM4.30234 6.49993H5.55917C6.32049 6.50036 6.77189 7.35166 6.34531 7.98235L3.28867 12.4999H12.7115L9.65488 7.98235C9.22805 7.35159 9.6795 6.50021 10.441 6.49993H11.6988L7.9996 1.83684L4.30234 6.49993Z"
    fill="currentColor"
  />
</svg>
