<svg width="24" height="25" viewBox="0 0 24 25" fill="none" xmlns="http://www.w3.org/2000/svg" data-fui-icon="true">
  <path
    fill-rule="evenodd"
    clip-rule="evenodd"
    d="M11.3227 0.282431C11.6927 -0.0940745 12.3054 -0.0942128 12.6753 0.282431L12.7505 0.368369L19.7934 9.47188C20.2763 10.0962 19.8308 11.0031 19.0415 11.0031H16.5464L21.8218 18.507C22.2643 19.1365 21.8139 20.0031 21.0444 20.0031H12.7495V23.2541C12.7494 23.6682 12.4136 24.0041 11.9995 24.0041C11.5854 24.0041 11.2496 23.6682 11.2495 23.2541V20.0031H2.95556C2.18631 20.0029 1.73597 19.1364 2.17821 18.507L7.45751 11.0031H4.95751C4.16846 11.0029 3.72306 10.0962 4.20556 9.47188L11.2475 0.368369L11.3227 0.282431ZM6.07763 9.50313H8.51708C9.28655 9.50331 9.73624 10.3708 9.29345 11.0002L4.01513 18.5031H19.9858L14.7095 10.9992C14.2673 10.3699 14.7177 9.50338 15.4868 9.50313H17.9214L11.9985 1.84786L6.07763 9.50313Z"
    fill="currentColor"
  />
</svg>
