<svg width="12" height="12" viewBox="0 0 12 12" fill="none" xmlns="http://www.w3.org/2000/svg" data-fui-icon="true">
  <path
    fill-rule="evenodd"
    clip-rule="evenodd"
    d="M6.49991 1.00195C6.82109 1.00199 7.10653 1.20667 7.20987 1.51074L8.13566 4.23828H9.86319C10.3192 4.23831 10.7978 4.41359 11.165 4.6709C11.5175 4.91796 11.9374 5.36806 11.9374 6C11.9374 6.63187 11.5174 7.08202 11.165 7.3291C10.7978 7.58637 10.3192 7.76169 9.86319 7.76172H8.13566L7.20987 10.4883C7.10664 10.7926 6.82123 10.998 6.49991 10.998H4.93741C4.73041 10.998 4.53229 10.9126 4.39054 10.7617C4.24884 10.6109 4.17649 10.4077 4.18937 10.2012L4.34171 7.76172H3.66105L2.66691 8.75488C2.52635 8.89544 2.3354 8.9745 2.13663 8.97461H0.812413C0.566037 8.97461 0.335258 8.85406 0.195225 8.65137C0.0552306 8.44853 0.0238572 8.18943 0.111241 7.95898L0.853428 6L0.111241 4.04102C0.0238869 3.81058 0.0552239 3.55145 0.195225 3.34863C0.335256 3.14591 0.566022 3.02441 0.812413 3.02441H2.13663L2.28312 3.03906C2.42733 3.06785 2.56138 3.13863 2.66691 3.24414L3.66105 4.23828H4.34171L4.18937 1.79883C4.17646 1.59223 4.24881 1.38916 4.39054 1.23828C4.53229 1.08744 4.73041 1.00195 4.93741 1.00195H6.49991ZM5.88858 4.94141C5.90152 5.148 5.82812 5.35105 5.68644 5.50195C5.54481 5.65264 5.34732 5.73813 5.14054 5.73828H3.3505C3.15159 5.73828 2.9599 5.65921 2.81925 5.51855L1.9423 4.6416L2.35733 5.73438C2.42214 5.90553 2.42216 6.09447 2.35733 6.26562L1.94327 7.35645L2.81925 6.48145L2.93351 6.3877C3.05589 6.30599 3.20117 6.26172 3.3505 6.26172H5.14054C5.34737 6.26187 5.54481 6.34729 5.68644 6.49805C5.82817 6.64893 5.90149 6.85199 5.88858 7.05859L5.73526 9.49805H5.9628L6.88761 6.77051L6.93448 6.66113C7.06266 6.4182 7.31654 6.26186 7.59757 6.26172H9.86319C9.96567 6.26169 10.1496 6.20924 10.3046 6.10059C10.3586 6.06269 10.3937 6.02655 10.4159 6C10.3937 5.97338 10.3589 5.93648 10.3046 5.89844C10.1496 5.78984 9.96564 5.73831 9.86319 5.73828H7.59757C7.27638 5.73812 6.99082 5.53367 6.88761 5.22949L5.9628 2.50195H5.73526L5.88858 4.94141Z"
    fill="currentColor"
  />
</svg>
