<svg width="20" height="20" viewBox="0 0 20 20" fill="none" xmlns="http://www.w3.org/2000/svg" data-fui-icon="true">
  <path
    d="M9.96582 2.16992C10.2498 2.16992 10.5096 2.33098 10.6367 2.58496L13.127 7.56445H16.4395C17.7845 7.56453 18.8749 8.65495 18.875 10C18.8749 11.345 17.7845 12.4355 16.4395 12.4355H13.127L10.6367 17.415L9.96582 17.0791V17.0801L10.6367 17.415C10.5097 17.6691 10.2499 17.8301 9.96582 17.8301H7.94336C7.71248 17.83 7.49463 17.723 7.35254 17.541C7.21051 17.359 7.15982 17.1214 7.21582 16.8975L8.33105 12.4355H5.89453L4.09082 14.2383C3.95017 14.3789 3.75946 14.458 3.56055 14.458H1.875C1.6304 14.458 1.40109 14.339 1.26074 14.1387C1.12052 13.9384 1.08643 13.682 1.16992 13.4521L2.4248 9.99902L1.16992 6.54785C1.08642 6.31804 1.12053 6.06164 1.26074 5.86133C1.40109 5.66101 1.6304 5.54104 1.875 5.54102H3.56055C3.7593 5.54102 3.9502 5.6203 4.09082 5.76074L5.89453 7.56445H8.33203L7.21582 3.10156C7.15998 2.87764 7.2105 2.63992 7.35254 2.45801C7.49464 2.27627 7.71265 2.16998 7.94336 2.16992H9.96582ZM10.0195 8.13184L9.29199 8.31348V8.31445L10.0195 8.13184C10.0755 8.35586 10.0249 8.59336 9.88281 8.77539C9.74068 8.95743 9.52294 9.06445 9.29199 9.06445H5.58398C5.3851 9.06443 5.19337 8.98536 5.05273 8.84473L5.58398 8.31445V8.31348L5.05273 8.84473L3.25 7.04102H2.94629L3.92871 9.74316C3.98886 9.90858 3.98875 10.0904 3.92871 10.2559L2.94629 12.958H3.25L5.05273 11.1553C5.19336 11.0147 5.38512 10.9356 5.58398 10.9355H9.29199C9.52273 10.9355 9.74067 11.0419 9.88281 11.2236C10.0249 11.4056 10.0754 11.6432 10.0195 11.8672L8.90332 16.3301H9.50293L11.9922 11.3496C12.1192 11.0958 12.3793 10.9357 12.6631 10.9355H16.4395C16.9561 10.9355 17.3749 10.5166 17.375 10C17.3749 9.48337 16.9561 9.06453 16.4395 9.06445H12.6631C12.3792 9.06431 12.1192 8.90339 11.9922 8.64941L9.50293 3.66992H8.9043L10.0195 8.13184Z"
    fill="currentColor"
  />
</svg>
