<svg width="20" height="20" viewBox="0 0 20 20" fill="none" xmlns="http://www.w3.org/2000/svg" data-fui-icon="true">
  <path
    fill-rule="evenodd"
    clip-rule="evenodd"
    d="M9.96589 2.16992C10.2499 2.16992 10.5097 2.33098 10.6368 2.58496L13.127 7.56445H16.4395C17.7846 7.56453 18.875 8.65495 18.8751 10C18.875 11.345 17.7846 12.4355 16.4395 12.4355H13.127L10.6368 17.415C10.5097 17.6691 10.2499 17.8301 9.96589 17.8301H7.94343C7.71254 17.83 7.4947 17.723 7.35261 17.541C7.21058 17.359 7.15989 17.1214 7.21589 16.8975L8.33112 12.4355H5.8946L4.09089 14.2383C3.95024 14.3789 3.75953 14.458 3.56062 14.458H1.87507C1.63047 14.458 1.40116 14.339 1.26081 14.1387C1.12059 13.9384 1.0865 13.682 1.16999 13.4521L2.42487 9.99902L1.16999 6.54785C1.08649 6.31804 1.1206 6.06164 1.26081 5.86133C1.40116 5.66101 1.63047 5.54104 1.87507 5.54102H3.56062C3.75937 5.54102 3.95027 5.6203 4.09089 5.76074L5.8946 7.56445H8.3321L7.21589 3.10156C7.16005 2.87764 7.21057 2.63992 7.35261 2.45801C7.49471 2.27627 7.71272 2.16998 7.94343 2.16992H9.96589ZM10.0196 8.13184C10.0756 8.35586 10.025 8.59336 9.88288 8.77539C9.74075 8.95743 9.52301 9.06445 9.29206 9.06445H5.58405C5.38517 9.06443 5.19344 8.98536 5.0528 8.84473L3.25007 7.04102H2.94636L3.92878 9.74316C3.98893 9.90858 3.98882 10.0904 3.92878 10.2559L2.94636 12.958H3.25007L5.0528 11.1553L5.16706 11.0615C5.28941 10.9799 5.43479 10.9356 5.58405 10.9355H9.29206C9.5228 10.9355 9.74074 11.0419 9.88288 11.2236C10.0249 11.4056 10.0755 11.6432 10.0196 11.8672L8.90339 16.3301H9.503L11.9923 11.3496C12.1193 11.0958 12.3793 10.9357 12.6632 10.9355H16.4395C16.9561 10.9355 17.375 10.5166 17.3751 10C17.375 9.48337 16.9562 9.06453 16.4395 9.06445H12.6632C12.3792 9.06431 12.1192 8.90339 11.9923 8.64941L9.503 3.66992H8.90437L10.0196 8.13184Z"
    fill="currentColor"
  />
</svg>
