<svg width="16" height="16" viewBox="0 0 16 16" fill="none" xmlns="http://www.w3.org/2000/svg" data-fui-icon="true">
  <path
    d="M7.97266 1.58594C8.25668 1.58594 8.51648 1.74698 8.64355 2.00098L10.5947 5.90137H13.1514C14.3103 5.90137 15.2499 6.84108 15.25 8C15.2499 9.15892 14.3103 10.0986 13.1514 10.0986H10.5938L8.64355 13.999L7.97266 13.6631V13.6641L8.64355 13.999C8.51651 14.2531 8.25673 14.4141 7.97266 14.4141H6.35449C6.12367 14.414 5.90573 14.3069 5.76367 14.125C5.62172 13.943 5.57097 13.7054 5.62695 13.4814L6.47266 10.0986H4.77734L3.37891 11.4971C3.23828 11.6377 3.0475 11.7168 2.84863 11.7168H1.5C1.25537 11.7168 1.02609 11.5969 0.885742 11.3965C0.745622 11.1962 0.711368 10.9397 0.794922 10.71L1.78027 7.99902L0.794922 5.28906L0.769531 5.20215C0.721909 4.99633 0.762928 4.77788 0.885742 4.60254C1.0261 4.40231 1.25547 4.28323 1.5 4.2832H2.84863L2.99512 4.29785C3.13936 4.32661 3.27335 4.39742 3.37891 4.50293L4.77734 5.90137H6.47266L5.62695 2.51758C5.57112 2.29366 5.62164 2.05594 5.76367 1.87402C5.90573 1.69227 6.1238 1.58605 6.35449 1.58594H7.97266ZM8.16113 6.46973C8.21702 6.69367 8.16645 6.93133 8.02441 7.11328C7.88228 7.29505 7.66436 7.40137 7.43359 7.40137H4.4668C4.26793 7.40134 4.07715 7.32225 3.93652 7.18164L2.58887 5.83398L3.2832 7.74316C3.34338 7.90866 3.34333 8.09035 3.2832 8.25586L2.58887 10.165L3.93652 8.81836L4.05078 8.72461C4.17308 8.64305 4.31763 8.59865 4.4668 8.59863H7.43359C7.66439 8.59863 7.88228 8.70491 8.02441 8.88672C8.16652 9.06872 8.2171 9.30625 8.16113 9.53027L7.31543 12.9141H7.50879L9.45996 9.0127L9.51367 8.92188C9.65238 8.72117 9.88247 8.59866 10.1309 8.59863H13.1514C13.4819 8.59863 13.7499 8.33049 13.75 8C13.7499 7.66951 13.4819 7.40137 13.1514 7.40137H10.1309C9.84681 7.40134 9.58699 7.24039 9.45996 6.98633L10.1309 6.65137V6.65039L9.45996 6.98633L7.50977 3.08594H7.31543L8.16113 6.46973Z"
    fill="currentColor"
  />
</svg>
