<svg width="24" height="24" viewBox="0 0 24 24" fill="none" xmlns="http://www.w3.org/2000/svg" data-fui-icon="true">
  <path
    fill-rule="evenodd"
    clip-rule="evenodd"
    d="M12.0645 2.76172C12.3063 2.79585 12.5187 2.94668 12.63 3.16895L15.6592 9.22656H19.7276C21.2587 9.22676 22.4999 10.4689 22.5001 12C22.4999 13.5311 21.2587 14.7723 19.7276 14.7725H15.6602L12.63 20.8311C12.5029 21.0849 12.2439 21.2459 11.96 21.2461H9.5323C9.30142 21.2461 9.08359 21.139 8.94147 20.957C8.79946 20.775 8.74876 20.5375 8.80476 20.3135L10.1895 14.7725H7.01081L4.8028 16.9805C4.66218 17.1209 4.4713 17.2002 4.27253 17.2002H2.25007C2.00544 17.2002 1.77616 17.0803 1.63581 16.8799C1.49569 16.6796 1.46144 16.4231 1.54499 16.1934L3.0694 11.999L1.54499 7.80566C1.4616 7.57586 1.49555 7.31939 1.63581 7.11914C1.77617 6.91891 2.00554 6.79983 2.25007 6.7998H4.27253L4.41999 6.81445C4.56399 6.84327 4.69739 6.9142 4.8028 7.01953L7.01081 9.22656H10.1895L8.80476 3.68555C8.74893 3.46163 8.79944 3.2239 8.94147 3.04199C9.0836 2.8603 9.3016 2.75393 9.5323 2.75391H11.96L12.0645 2.76172ZM11.878 9.79492C11.934 10.0189 11.8833 10.2565 11.7413 10.4385C11.5991 10.6204 11.3813 10.7266 11.1505 10.7266H6.70026C6.50138 10.7265 6.31062 10.6475 6.16999 10.5068L3.96198 8.2998H3.32136L4.57331 11.7432C4.63347 11.9086 4.63337 12.0904 4.57331 12.2559L3.32136 15.7002H3.96198L6.16999 13.4922L6.28425 13.3984C6.4065 13.317 6.55118 13.2725 6.70026 13.2725H11.1505C11.3811 13.2725 11.5991 13.3789 11.7413 13.5605C11.8833 13.7424 11.9338 13.9802 11.878 14.2041L10.4923 19.7461H11.4962L14.5255 13.6875L14.5792 13.5967C14.7179 13.3958 14.9478 13.2725 15.1964 13.2725H19.7276C20.4303 13.2723 20.9999 12.7027 21.0001 12C20.9999 11.2973 20.4303 10.7268 19.7276 10.7266H15.1964C14.9124 10.7265 14.6525 10.5665 14.5255 10.3125L11.4962 4.25391H10.4932L11.878 9.79492Z"
    fill="currentColor"
  />
</svg>
