<svg width="16" height="16" viewBox="0 0 16 16" fill="none" xmlns="http://www.w3.org/2000/svg" data-fui-icon="true">
  <path
    d="M8 0C12.4183 1.12749e-07 16 3.58172 16 8C16 12.4183 12.4183 16 8 16C3.58172 16 0 12.4183 0 8C1.77176e-07 3.58172 3.58172 0 8 0ZM8 1.5C4.41015 1.5 1.5 4.41015 1.5 8C1.5 11.5899 4.41015 14.5 8 14.5C11.5899 14.5 14.5 11.5899 14.5 8C14.5 4.41015 11.5899 1.5 8 1.5ZM5.75 5.96484C5.75008 5.01468 6.75469 4.4347 7.5625 4.84766L7.7207 4.94336L10.6035 6.97852C11.309 7.47654 11.309 8.52347 10.6035 9.02148L7.7207 11.0566C6.89274 11.6408 5.75009 11.0485 5.75 10.0352V5.96484ZM7.25 9.55176L9.44922 8L7.25 6.44727V9.55176Z"
    fill="currentColor"
  />
</svg>
