<svg width="20" height="20" viewBox="0 0 20 20" fill="none" xmlns="http://www.w3.org/2000/svg" data-fui-icon="true">
  <path
    d="M10 1C14.9706 1 19 5.02944 19 10C19 14.9706 14.9706 19 10 19C5.02944 19 1 14.9706 1 10C1 5.02944 5.02944 1 10 1ZM10 3C6.13401 3 3 6.13401 3 10C3 13.866 6.13401 17 10 17C13.866 17 17 13.866 17 10C17 6.13401 13.866 3 10 3ZM7 7.40137C7.00002 6.00367 8.55774 5.17001 9.7207 5.94531L13.6182 8.54395C14.6572 9.23663 14.6572 10.7634 13.6182 11.4561L9.7207 14.0547C8.55774 14.83 7.00002 13.9963 7 12.5986V7.40137ZM9 12.1309L12.1963 10L9 7.86816V12.1309Z"
    fill="currentColor"
  />
</svg>
