<svg width="24" height="24" viewBox="0 0 24 24" fill="none" xmlns="http://www.w3.org/2000/svg" data-fui-icon="true">
  <path
    d="M12 0.5C18.3513 0.5 23.5 5.64873 23.5 12C23.5 18.3513 18.3513 23.5 12 23.5C5.64873 23.5 0.5 18.3513 0.5 12C0.5 5.64873 5.64873 0.5 12 0.5ZM12 2.5C6.75329 2.5 2.5 6.75329 2.5 12C2.5 17.2467 6.75329 21.5 12 21.5C17.2467 21.5 21.5 17.2467 21.5 12C21.5 6.75329 17.2467 2.5 12 2.5ZM8 8.80469C8 7.23391 9.72751 6.2761 11.0596 7.1084L16.1729 10.3037C17.4262 11.087 17.4262 12.913 16.1729 13.6963L11.0596 16.8916C9.72751 17.7239 8 16.7661 8 15.1953V8.80469ZM10 15.1953L15.1133 12L10 8.80469V15.1953Z"
    fill="currentColor"
  />
</svg>
