<svg width="16" height="16" viewBox="0 0 16 16" fill="none" xmlns="http://www.w3.org/2000/svg" data-fui-icon="true">
  <path
    d="M8 0.5C12.1421 0.5 15.5 3.85786 15.5 8C15.5 12.1421 12.1421 15.5 8 15.5C3.85786 15.5 0.5 12.1421 0.5 8C0.5 3.85786 3.85786 0.5 8 0.5ZM8 2C4.68629 2 2 4.68629 2 8C2 11.3137 4.68629 14 8 14C11.3137 14 14 11.3137 14 8C14 4.68629 11.3137 2 8 2ZM5.75 5.96484C5.75008 5.01468 6.75469 4.4347 7.5625 4.84766L7.7207 4.94336L10.6035 6.97852C11.309 7.47654 11.309 8.52347 10.6035 9.02148L7.7207 11.0566C6.89274 11.6408 5.75009 11.0485 5.75 10.0352V5.96484ZM7.25 9.55176L9.44922 8L7.25 6.44727V9.55176Z"
    fill="currentColor"
  />
</svg>
