<svg width="12" height="12" viewBox="0 0 12 12" fill="none" xmlns="http://www.w3.org/2000/svg" data-fui-icon="true">
  <path
    d="M6 0C9.31371 0 12 2.68629 12 6C12 9.31371 9.31371 12 6 12C2.68629 12 0 9.31371 0 6C0 2.68629 2.68629 0 6 0ZM6 2C3.79086 2 2 3.79086 2 6C2 8.20914 3.79086 10 6 10C8.20914 10 10 8.20914 10 6C10 3.79086 8.20914 2 6 2ZM4 4.4668C4.00023 3.5311 4.9776 2.94991 5.78418 3.33691L5.94336 3.42676L8.24219 4.95996C8.98424 5.45466 8.98499 6.54515 8.24316 7.04004L5.94336 8.57324C5.11277 9.12681 4.00024 8.53132 4 7.5332V4.4668ZM6 6.13086L6.19629 6L6 5.86816V6.13086Z"
    fill="currentColor"
  />
</svg>
