<svg width="32" height="32" viewBox="0 0 32 32" fill="none" xmlns="http://www.w3.org/2000/svg" data-fui-icon="true">
  <path
    d="M16 0.5C24.5604 0.5 31.5 7.43959 31.5 16C31.5 24.5604 24.5604 31.5 16 31.5C7.43959 31.5 0.5 24.5604 0.5 16C0.5 7.43959 7.43959 0.5 16 0.5ZM16 2C8.26801 2 2 8.26801 2 16C2 23.732 8.26801 30 16 30C23.732 30 30 23.732 30 16C30 8.26801 23.732 2 16 2ZM11.25 11.7324C11.2501 9.95706 13.2102 8.88092 14.708 9.83398L21.4141 14.1016C22.8034 14.9857 22.8034 17.0143 21.4141 17.8984L14.708 22.166C13.2102 23.1191 11.2501 22.0429 11.25 20.2676V11.7324ZM13.9023 11.0996C13.4031 10.7822 12.7501 11.1408 12.75 11.7324V20.2676C12.7501 20.8592 13.4031 21.2178 13.9023 20.9004L20.6084 16.6328C21.0715 16.3381 21.0715 15.6619 20.6084 15.3672L13.9023 11.0996Z"
    fill="currentColor"
  />
</svg>
