<svg width="20" height="20" viewBox="0 0 20 20" fill="none" xmlns="http://www.w3.org/2000/svg" data-fui-icon="true">
  <path
    d="M10 0.5C15.2467 0.5 19.5 4.75329 19.5 10C19.5 15.2467 15.2467 19.5 10 19.5C4.75329 19.5 0.5 15.2467 0.5 10C0.5 4.75329 4.75329 0.5 10 0.5ZM10 2C5.58172 2 2 5.58172 2 10C2 14.4183 5.58172 18 10 18C14.4183 18 18 14.4183 18 10C18 5.58172 14.4183 2 10 2ZM7.25 7.40137C7.25002 6.20334 8.58521 5.48878 9.58203 6.15332L13.4795 8.75195C14.3701 9.34569 14.3701 10.6543 13.4795 11.248L9.58203 13.8467C8.58521 14.5112 7.25002 13.7967 7.25 12.5986V7.40137ZM8.75 12.5986L12.6475 10L8.75 7.40137V12.5986Z"
    fill="currentColor"
  />
</svg>
