<svg width="20" height="20" viewBox="0 0 20 20" fill="none" xmlns="http://www.w3.org/2000/svg" data-fui-icon="true">
  <path
    d="M10 1.4375C14.7289 1.4375 18.5625 5.27106 18.5625 10C18.5625 14.7289 14.7289 18.5625 10 18.5625C5.27106 18.5625 1.4375 14.7289 1.4375 10C1.4375 5.27106 5.27106 1.4375 10 1.4375ZM10 2.9375C6.09949 2.9375 2.9375 6.09949 2.9375 10C2.9375 13.9005 6.09949 17.0625 10 17.0625C13.9005 17.0625 17.0625 13.9005 17.0625 10C17.0625 6.09949 13.9005 2.9375 10 2.9375Z"
    fill="currentColor"
  />
  <path
    d="M8 12.5986V7.40139C8 6.80237 8.66761 6.44507 9.16602 6.77735L13.0639 9.37596C13.5092 9.67283 13.5092 10.3272 13.0639 10.624L9.16603 13.2227C8.66761 13.5549 8 13.1976 8 12.5986Z"
    stroke="currentColor"
    stroke-width="1.5"
    stroke-linecap="round"
  />
</svg>
