<svg width="20" height="20" viewBox="0 0 20 20" fill="none" xmlns="http://www.w3.org/2000/svg" data-fui-icon="true">
  <path
    d="M10 1.4375C14.7289 1.4375 18.5625 5.27106 18.5625 10C18.5625 14.7289 14.7289 18.5625 10 18.5625C5.27106 18.5625 1.4375 14.7289 1.4375 10C1.4375 5.27106 5.27106 1.4375 10 1.4375ZM10 2.9375C6.09949 2.9375 2.9375 6.09949 2.9375 10C2.9375 13.9005 6.09949 17.0625 10 17.0625C13.9005 17.0625 17.0625 13.9005 17.0625 10C17.0625 6.09949 13.9005 2.9375 10 2.9375ZM7.25 7.40137C7.25002 6.20334 8.58521 5.48878 9.58203 6.15332L13.4795 8.75195C14.3701 9.34569 14.3701 10.6543 13.4795 11.248L9.58203 13.8467C8.58521 14.5112 7.25002 13.7967 7.25 12.5986V7.40137ZM8.75 12.5986L12.6475 10L8.75 7.40137V12.5986Z"
    fill="currentColor"
  />
</svg>
