<svg width="20" height="20" viewBox="0 0 20 20" fill="none" xmlns="http://www.w3.org/2000/svg" data-fui-icon="true">
  <path
    d="M10 0.5C15.2467 0.5 19.5 4.75329 19.5 10C19.5 15.2467 15.2467 19.5 10 19.5C4.75329 19.5 0.5 15.2467 0.5 10C0.5 4.75329 4.75329 0.5 10 0.5ZM10 2.5C5.85786 2.5 2.5 5.85786 2.5 10C2.5 14.1421 5.85786 17.5 10 17.5C14.1421 17.5 17.5 14.1421 17.5 10C17.5 5.85786 14.1421 2.5 10 2.5ZM7 7.40137C7.00002 6.00367 8.55774 5.17001 9.7207 5.94531L13.6182 8.54395C14.6572 9.23663 14.6572 10.7634 13.6182 11.4561L9.7207 14.0547C8.55774 14.83 7.00002 13.9963 7 12.5986V7.40137ZM9 12.1309L12.1963 10L9 7.86816V12.1309Z"
    fill="currentColor"
  />
</svg>
