<svg width="12" height="12" viewBox="0 0 12 12" fill="none" xmlns="http://www.w3.org/2000/svg" data-fui-icon="true">
  <path
    d="M6 0.5625C9.00305 0.5625 11.4375 2.99695 11.4375 6C11.4375 9.00305 9.00305 11.4375 6 11.4375C2.99695 11.4375 0.5625 9.00305 0.5625 6C0.5625 2.99695 2.99695 0.5625 6 0.5625ZM6 2.0625C3.82538 2.0625 2.0625 3.82538 2.0625 6C2.0625 8.17462 3.82538 9.9375 6 9.9375C8.17462 9.9375 9.9375 8.17462 9.9375 6C9.9375 3.82538 8.17462 2.0625 6 2.0625ZM4.25 4.4668C4.25023 3.71822 5.03246 3.25276 5.67773 3.5625L5.80469 3.63477L8.10352 5.16797C8.69703 5.56372 8.69777 6.43609 8.10449 6.83203L5.80469 8.36523C5.14024 8.80804 4.25024 8.33164 4.25 7.5332V4.4668ZM5.75 6.59863L6.64746 6L5.75 5.40039V6.59863Z"
    fill="currentColor"
  />
</svg>
