<svg width="20" height="20" viewBox="0 0 20 20" fill="none" xmlns="http://www.w3.org/2000/svg" data-fui-icon="true">
  <path
    fill-rule="evenodd"
    clip-rule="evenodd"
    d="M10 1C14.9706 1 19 5.02944 19 10C19 14.9706 14.9706 19 10 19C5.02944 19 1 14.9706 1 10C1 5.02944 5.02944 1 10 1ZM10 2.5C5.85786 2.5 2.5 5.85786 2.5 10C2.5 14.1421 5.85786 17.5 10 17.5C14.1421 17.5 17.5 14.1421 17.5 10C17.5 5.85786 14.1421 2.5 10 2.5ZM7.25 7.40137C7.25002 6.20334 8.58521 5.48878 9.58203 6.15332L13.4795 8.75195C14.3701 9.34569 14.3701 10.6543 13.4795 11.248L9.58203 13.8467C8.58521 14.5112 7.25002 13.7967 7.25 12.5986V7.40137ZM8.75 12.5986L12.6475 10L8.75 7.40137V12.5986Z"
    fill="currentColor"
  />
</svg>
