<svg width="24" height="24" viewBox="0 0 24 24" fill="none" xmlns="http://www.w3.org/2000/svg" data-fui-icon="true">
  <path
    d="M16.25 1C19.9779 1 23 4.0221 23 7.75V16.25C23 19.9779 19.9779 23 16.25 23H7.75C4.02215 23 1.00004 19.9779 1 16.25V7.75C1.00002 4.02213 4.02213 1.00005 7.75 1H16.25ZM7.75 3C5.1267 3.00005 3.00002 5.1267 3 7.75V16.25C3.00004 18.8733 5.12671 21 7.75 21H16.25C18.8733 21 21 18.8733 21 16.25V7.75C21 5.12667 18.8733 3 16.25 3H7.75ZM12 6C12.5523 6 13 6.44774 13 7V11H17C17.5523 11 18 11.4477 18 12C18 12.5523 17.5523 13 17 13H13V17C13 17.5523 12.5523 18 12 18C11.4477 18 11 17.5523 11 17V13H7C6.44775 13 6.00003 12.5522 6 12C6.00002 11.4478 6.44775 11 7 11H11V7C11 6.44775 11.4478 6.00002 12 6Z"
    fill="currentColor"
  />
</svg>
