<svg width="24" height="24" viewBox="0 0 24 24" fill="none" xmlns="http://www.w3.org/2000/svg" data-fui-icon="true">
  <path
    d="M12 1C13.5039 1 14.6668 0.999217 15.6035 1.05859C16.5463 1.11836 17.3107 1.24143 18.0137 1.50977C20.0751 2.29666 21.7033 3.92489 22.4902 5.98633C22.7586 6.68931 22.8816 7.4537 22.9414 8.39648C23.0008 9.33318 23 10.4961 23 12C23 13.5039 23.0008 14.6668 22.9414 15.6035C22.8816 16.5463 22.7586 17.3107 22.4902 18.0137C21.7033 20.0751 20.0751 21.7033 18.0137 22.4902C17.3107 22.7586 16.5463 22.8816 15.6035 22.9414C14.6668 23.0008 13.5039 23 12 23C10.4961 23 9.33318 23.0008 8.39648 22.9414C7.4537 22.8816 6.68931 22.7586 5.98633 22.4902C3.92489 21.7033 2.29666 20.0751 1.50977 18.0137C1.24143 17.3107 1.11836 16.5463 1.05859 15.6035C0.999217 14.6668 1 13.5039 1 12C1 10.4961 0.999217 9.33318 1.05859 8.39648C1.11836 7.4537 1.24143 6.68931 1.50977 5.98633C2.29666 3.92489 3.92489 2.29666 5.98633 1.50977C6.68931 1.24143 7.4537 1.11836 8.39648 1.05859C9.33318 0.999217 10.4961 1 12 1ZM12 6C11.5858 6 11.25 6.33579 11.25 6.75V11.25H6.75C6.33579 11.25 6 11.5858 6 12C6.00003 12.4142 6.3358 12.75 6.75 12.75H11.25V17.25C11.25 17.6642 11.5858 18 12 18C12.4142 18 12.75 17.6642 12.75 17.25V12.75H17.25C17.6642 12.75 18 12.4142 18 12C18 11.5858 17.6642 11.25 17.25 11.25H12.75V6.75C12.75 6.33579 12.4142 6 12 6Z"
    fill="currentColor"
  />
</svg>
