<svg width="16" height="16" viewBox="0 0 16 16" fill="none" xmlns="http://www.w3.org/2000/svg" data-fui-icon="true">
  <path
    fill-rule="evenodd"
    clip-rule="evenodd"
    d="M8.00003 1.00022C9.57177 1.00022 10.5307 0.991646 11.3291 1.24338C12.9624 1.7585 14.2418 3.03785 14.7569 4.67112C15.0086 5.46949 15 6.42857 15 8.00022C15 9.57186 15.0086 10.5309 14.7569 11.3293C14.2417 12.9625 12.9624 14.242 11.3291 14.7571C10.5307 15.0088 9.57172 15.0002 8.00003 15.0002C6.42833 15.0002 5.46933 15.0088 4.67093 14.7571C3.0377 14.242 1.75834 12.9625 1.2432 11.3293C0.991471 10.5309 1.00003 9.57186 1.00003 8.00022C1.00003 6.42858 0.991511 5.46949 1.2432 4.67112C1.75831 3.03786 3.03769 1.75851 4.67093 1.24338C5.46933 0.991647 6.42832 1.00022 8.00003 1.00022ZM8.00003 4.00022C7.58585 4.00025 7.25003 4.33602 7.25003 4.75022V7.25022H4.75003C4.33593 7.25022 4.00022 7.58616 4.00003 8.00022C4.00012 8.41436 4.33587 8.75022 4.75003 8.75022H7.25003V11.2502C7.25012 11.6643 7.5859 12.0002 8.00003 12.0002C8.41412 12.0001 8.74995 11.6643 8.75003 11.2502V8.75022H11.25C11.6641 8.75013 11.9999 8.41431 12 8.00022C11.9999 7.58621 11.6641 7.2503 11.25 7.25022H8.75003V4.75022C8.75003 4.33606 8.41418 4.0003 8.00003 4.00022Z"
    fill="currentColor"
  />
</svg>
