<svg width="20" height="20" viewBox="0 0 20 20" fill="none" xmlns="http://www.w3.org/2000/svg" data-fui-icon="true">
  <path
    d="M10 0.999939C11.2711 0.999939 12.2621 0.999172 13.0605 1.05365C13.8656 1.10858 14.5297 1.22211 15.1416 1.47552C16.673 2.10985 17.8901 3.32694 18.5244 4.85834C18.7778 5.47023 18.8914 6.13436 18.9463 6.93939C19.0008 7.73784 19 8.72889 19 9.99994C19 11.271 19.0008 12.262 18.9463 13.0605C18.8914 13.8655 18.7778 14.5297 18.5244 15.1415C17.8901 16.673 16.673 17.89 15.1416 18.5244C14.5297 18.7778 13.8656 18.8913 13.0605 18.9462C12.2621 19.0007 11.2711 18.9999 10 18.9999C8.72892 18.9999 7.73792 19.0007 6.93945 18.9462C6.1344 18.8913 5.4703 18.7778 4.8584 18.5244C3.32698 17.89 2.10992 16.673 1.47559 15.1415C1.22218 14.5297 1.10864 13.8655 1.05371 13.0605C0.999236 12.262 1 11.271 1 9.99994C1 8.72889 0.999233 7.73784 1.05371 6.93939C1.10865 6.13436 1.22217 5.47023 1.47559 4.85834C2.10993 3.32694 3.32699 2.10985 4.8584 1.47552C5.4703 1.22211 6.1344 1.10858 6.93945 1.05365C7.73791 0.999172 8.72892 0.999939 10 0.999939ZM10 2.49994C8.70857 2.49994 7.77751 2.50055 7.04199 2.55072C6.31342 2.60043 5.83129 2.6962 5.43262 2.86127C4.26875 3.34336 3.34343 4.2687 2.86133 5.43256C2.69626 5.83122 2.60049 6.31338 2.55078 7.04193C2.50061 7.77744 2.5 8.70853 2.5 9.99994C2.5 11.2913 2.50062 12.2224 2.55078 12.9579C2.60049 13.6865 2.69627 14.1687 2.86133 14.5673C3.34342 15.7312 4.26874 16.6565 5.43262 17.1386C5.83129 17.3037 6.31341 17.3994 7.04199 17.4492C7.77751 17.4993 8.70856 17.4999 10 17.4999C11.2914 17.4999 12.2225 17.4993 12.958 17.4492C13.6866 17.3994 14.1687 17.3037 14.5674 17.1386C15.7313 16.6565 16.6566 15.7312 17.1387 14.5673C17.3037 14.1687 17.3995 13.6865 17.4492 12.9579C17.4994 12.2224 17.5 11.2913 17.5 9.99994C17.5 8.70853 17.4994 7.77744 17.4492 7.04193C17.3995 6.31338 17.3037 5.83122 17.1387 5.43256C16.6566 4.2687 15.7312 3.34336 14.5674 2.86127C14.1687 2.6962 13.6866 2.60043 12.958 2.55072C12.2225 2.50055 11.2914 2.49994 10 2.49994ZM10 5.24994C10.4142 5.24994 10.75 5.58573 10.75 5.99994V9.24994H14C14.4142 9.24994 14.75 9.58573 14.75 9.99994C14.75 10.4141 14.4142 10.7499 14 10.7499H10.75V13.9999C10.75 14.4142 10.4142 14.7499 10 14.7499C9.58579 14.7499 9.25 14.4142 9.25 13.9999V10.7499H6C5.5858 10.7499 5.25003 10.4141 5.25 9.99994C5.25 9.58573 5.58579 9.24994 6 9.24994H9.25V5.99994C9.25 5.58573 9.58579 5.24994 10 5.24994Z"
    fill="currentColor"
  />
</svg>
