<svg width="16" height="16" viewBox="0 0 16 16" fill="none" xmlns="http://www.w3.org/2000/svg" data-fui-icon="true">
  <path
    fill-rule="evenodd"
    clip-rule="evenodd"
    d="M8.00005 1.00024C9.33063 1.00024 10.1924 0.99174 10.9239 1.18774C12.8216 1.69637 14.3039 3.17869 14.8126 5.07641C15.0085 5.80783 15.0001 6.6698 15.0001 8.00024C15.0001 9.33068 15.0085 10.1926 14.8126 10.9241C14.3039 12.8217 12.8215 14.3041 10.9239 14.8127C10.1924 15.0087 9.33059 15.0002 8.00005 15.0002C6.66952 15.0002 5.80768 15.0087 5.07623 14.8127C3.17856 14.3041 1.69623 12.8217 1.18755 10.9241C0.991569 10.1926 1.00005 9.33068 1.00005 8.00024C1.00005 6.6698 0.99162 5.80783 1.18755 5.07641C1.69617 3.17869 3.17851 1.69638 5.07623 1.18774C5.8077 0.99174 6.66948 1.00024 8.00005 1.00024ZM8.00005 3.00024C6.54072 3.00024 6.00683 3.00871 5.5938 3.11938C4.38628 3.44308 3.44288 4.38645 3.11919 5.59399C3.00858 6.00698 3.00005 6.54117 3.00005 8.00024C3.00006 9.45939 3.00853 9.99348 3.11919 10.4065C3.44294 11.6139 4.38632 12.5574 5.5938 12.8811C6.00682 12.9918 6.54079 13.0002 8.00005 13.0002C9.45932 13.0002 9.99329 12.9918 10.4063 12.8811C11.6138 12.5574 12.5572 11.6139 12.8809 10.4065C12.9916 9.99348 13.0001 9.45939 13.0001 8.00024C13.0001 6.54117 12.9915 6.00698 12.8809 5.59399C12.5572 4.38645 11.6138 3.44308 10.4063 3.11938C9.99328 3.00871 9.45939 3.00024 8.00005 3.00024ZM8.00005 4.00024C8.55234 4.00024 9.00005 4.44795 9.00005 5.00024V7.00024H11.0001C11.5522 7.00024 11.9999 7.44809 12.0001 8.00024C11.9999 8.55241 11.5523 9.00024 11.0001 9.00024H9.00005V11.0002C8.99992 11.5524 8.55226 12.0002 8.00005 12.0002C7.44788 12.0002 7.00019 11.5524 7.00005 11.0002V9.00024H5.00005C4.44785 9.00024 4.00019 8.55241 4.00005 8.00024C4.00022 7.44809 4.44787 7.00024 5.00005 7.00024H7.00005V5.00024C7.00005 4.44797 7.44779 4.00027 8.00005 4.00024Z"
    fill="currentColor"
  />
</svg>
