<svg width="16" height="16" viewBox="0 0 16 16" fill="none" xmlns="http://www.w3.org/2000/svg" data-fui-icon="true">
  <path
    d="M7.99988 0.000244137C9.27066 0.000244098 10.27 -6.02845e-05 11.0721 0.0666494C11.883 0.134133 12.5604 0.273882 13.1736 0.593009C14.1291 1.0905 14.9096 1.87082 15.407 2.82637C15.726 3.4396 15.8659 4.11698 15.9334 4.9279C16 5.73004 15.9998 6.72936 15.9998 8.00012C15.9998 9.27091 16.0001 10.2702 15.9334 11.0723C15.8659 11.8833 15.7261 12.5606 15.407 13.1739C14.9095 14.1295 14.1292 14.9098 13.1736 15.4072C12.5604 15.7264 11.883 15.8661 11.0721 15.9336C10.27 16.0003 9.27066 16 7.99988 16C6.72911 16 5.7298 16.0003 4.92766 15.9336C4.11674 15.8661 3.43935 15.7263 2.82613 15.4072C1.87057 14.9098 1.09025 14.1294 0.592764 13.1739C0.273638 12.5606 0.133888 11.8833 0.0664052 11.0723C-0.000304421 10.2702 -3.92547e-08 9.27091 0 8.00012C0 6.72934 -0.00029023 5.73005 0.0664052 4.9279C0.133877 4.1169 0.273637 3.43965 0.592764 2.82637C1.09025 1.87072 1.87048 1.09049 2.82613 0.593009C3.43941 0.273882 4.11665 0.134121 4.92766 0.0666494C5.72981 -4.6093e-05 6.72909 0.000244137 7.99988 0.000244137ZM7.99988 4.00018C7.5857 4.00021 7.24989 4.33598 7.24989 4.75017V7.25013H4.74993C4.33583 7.25013 4.00012 7.58607 3.99994 8.00012C4.00007 8.41422 4.3358 8.75011 4.74993 8.75011H7.24989V11.2501C7.25002 11.6641 7.58578 12 7.99988 12.0001C8.41389 11.9999 8.74973 11.6641 8.74987 11.2501V8.75011H11.2498C11.6638 8.74998 11.9997 8.41414 11.9998 8.00012C11.9996 7.58615 11.6638 7.25027 11.2498 7.25013H8.74987V4.75017C8.74987 4.33605 8.41397 4.00032 7.99988 4.00018Z"
    fill="currentColor"
  />
</svg>
