<svg width="16" height="16" viewBox="0 0 16 16" fill="none" xmlns="http://www.w3.org/2000/svg" data-fui-icon="true">
  <path
    fill-rule="evenodd"
    clip-rule="evenodd"
    d="M8.00003 1.00016C9.57177 1.00016 10.5307 0.991585 11.3291 1.24332C12.9624 1.75844 14.2418 3.03778 14.7569 4.67106C15.0086 5.46943 15 6.42851 15 8.00016C15 9.5718 15.0086 10.5309 14.7569 11.3293C14.2417 12.9625 12.9624 14.2419 11.3291 14.757C10.5307 15.0087 9.57172 15.0002 8.00003 15.0002C6.42833 15.0002 5.46933 15.0087 4.67093 14.757C3.0377 14.2419 1.75834 12.9625 1.2432 11.3293C0.991471 10.5309 1.00003 9.5718 1.00003 8.00016C1.00003 6.42852 0.991511 5.46943 1.2432 4.67106C1.75831 3.0378 3.03769 1.75845 4.67093 1.24332C5.46933 0.991586 6.42832 1.00016 8.00003 1.00016ZM8.00003 4.00016C7.58585 4.00019 7.25003 4.33596 7.25003 4.75016V7.25016H4.75003C4.33593 7.25016 4.00022 7.5861 4.00003 8.00016C4.00012 8.4143 4.33587 8.75016 4.75003 8.75016H7.25003V11.2502C7.25012 11.6643 7.5859 12.0001 8.00003 12.0002C8.41412 12.0001 8.74995 11.6642 8.75003 11.2502V8.75016H11.25C11.6641 8.75007 11.9999 8.41424 12 8.00016C11.9999 7.58615 11.6641 7.25024 11.25 7.25016H8.75003V4.75016C8.75003 4.336 8.41418 4.00024 8.00003 4.00016Z"
    fill="currentColor"
  />
</svg>
