<svg width="20" height="20" viewBox="0 0 20 20" fill="none" xmlns="http://www.w3.org/2000/svg" data-fui-icon="true">
  <path
    fill-rule="evenodd"
    clip-rule="evenodd"
    d="M10 4.25C10.4142 4.25 10.75 4.58579 10.75 5V9.25H15C15.4142 9.25 15.75 9.58579 15.75 10C15.75 10.4142 15.4142 10.75 15 10.75H10.75V15C10.75 15.4142 10.4142 15.75 10 15.75C9.58579 15.75 9.25 15.4142 9.25 15V10.75H5C4.58579 10.75 4.25 10.4142 4.25 10C4.25 9.58579 4.58579 9.25 5 9.25H9.25V5C9.25 4.58579 9.58579 4.25 10 4.25Z"
    fill="currentColor"
  />
</svg>
