<svg width="24" height="24" viewBox="0 0 24 24" fill="none" xmlns="http://www.w3.org/2000/svg" data-fui-icon="true">
  <path
    d="M12 1C18.0751 1 23 5.92487 23 12C23 18.0751 18.0751 23 12 23C5.92487 23 1 18.0751 1 12C1 5.92487 5.92487 1 12 1ZM12 3C7.02944 3 3 7.02944 3 12C3 16.9706 7.02944 21 12 21C16.9706 21 21 16.9706 21 12C21 7.02944 16.9706 3 12 3ZM12 6.75C12.5523 6.75 13 7.19772 13 7.75V11H16.25C16.8023 11 17.25 11.4477 17.25 12C17.25 12.5523 16.8023 13 16.25 13H13V16.25C13 16.8023 12.5523 17.25 12 17.25C11.4477 17.25 11 16.8023 11 16.25V13H7.75C7.19772 13 6.75 12.5523 6.75 12C6.75 11.4477 7.19772 11 7.75 11H11V7.75C11 7.19772 11.4477 6.75 12 6.75Z"
    fill="currentColor"
  />
</svg>
