<svg width="20" height="20" viewBox="0 0 20 20" fill="none" xmlns="http://www.w3.org/2000/svg" data-fui-icon="true">
  <path
    d="M10 0.5C15.2467 0.5 19.5 4.75329 19.5 10C19.5 15.2467 15.2467 19.5 10 19.5C4.75329 19.5 0.5 15.2467 0.5 10C0.5 4.75329 4.75329 0.5 10 0.5ZM9.95898 6C9.54477 6 9.20898 6.33579 9.20898 6.75V9.20898H6.75C6.3359 9.20898 6.00018 9.54492 6 9.95898C6 10.3732 6.33579 10.709 6.75 10.709H9.20898V13.25C9.20898 13.6642 9.54477 14 9.95898 14C10.3732 14 10.709 13.6642 10.709 13.25V10.709H13.25C13.6642 10.709 14 10.3732 14 9.95898C13.9998 9.54492 13.6641 9.20898 13.25 9.20898H10.709V6.75C10.709 6.33581 10.3732 6.00004 9.95898 6Z"
    fill="currentColor"
  />
</svg>
