<svg width="20" height="20" viewBox="0 0 20 20" fill="none" xmlns="http://www.w3.org/2000/svg" data-fui-icon="true">
  <path
    d="M13.4004 1C16.4929 1.00021 18.9998 3.50715 19 6.59961V13.4004C18.9998 16.4929 16.4929 18.9998 13.4004 19H6.59961C3.50713 18.9998 1.00021 16.4929 1 13.4004V6.59961C1.00024 3.50715 3.50715 1.00021 6.59961 1H13.4004ZM10 4.875C9.37868 4.875 8.875 5.37868 8.875 6V8.875H6C5.37868 8.875 4.875 9.37868 4.875 10C4.87503 10.6213 5.3787 11.125 6 11.125H8.875V14C8.875 14.6213 9.37868 15.125 10 15.125C10.6213 15.125 11.125 14.6213 11.125 14V11.125H14C14.6213 11.125 15.125 10.6213 15.125 10C15.125 9.37868 14.6213 8.875 14 8.875H11.125V6C11.125 5.37868 10.6213 4.875 10 4.875Z"
    fill="currentColor"
  />
</svg>
