<svg width="20" height="20" viewBox="0 0 20 20" fill="none" xmlns="http://www.w3.org/2000/svg" data-fui-icon="true">
  <path
    d="M9.99997 0C11.617 0 12.8935 -0.000794271 13.9179 0.0878904C14.9551 0.177693 15.8273 0.364728 16.6152 0.794919C17.7088 1.3921 18.6078 2.29112 19.205 3.38476C19.6352 4.17259 19.8222 5.04479 19.912 6.08201C20.0007 7.10644 19.9999 8.38298 19.9999 9.99997C19.9999 11.617 20.0007 12.8935 19.912 13.9179C19.8222 14.9551 19.6352 15.8273 19.205 16.6152C18.6078 17.7088 17.7088 18.6078 16.6152 19.205C15.8273 19.6352 14.9551 19.8222 13.9179 19.912C12.8935 20.0007 11.617 19.9999 9.99997 19.9999C8.38298 19.9999 7.10644 20.0007 6.08201 19.912C5.04479 19.8222 4.17259 19.6352 3.38476 19.205C2.29112 18.6078 1.3921 17.7088 0.794919 16.6152C0.364728 15.8273 0.177693 14.9551 0.0878904 13.9179C-0.000794271 12.8935 0 11.617 0 9.99997C0 8.38298 -0.00079423 7.10644 0.0878904 6.08201C0.177693 5.04479 0.364728 4.17259 0.794919 3.38476C1.3921 2.29112 2.29112 1.3921 3.38476 0.794919C4.17259 0.364728 5.04479 0.177693 6.08201 0.0878904C7.10644 -0.00079423 8.38298 0 9.99997 0ZM9.99997 4.99998C9.44769 4.99998 8.99997 5.4477 8.99997 5.99998V8.99997H5.99998C5.4477 8.99997 4.99998 9.44769 4.99998 9.99997C5.00001 10.5522 5.44772 11 5.99998 11H8.99997V14C8.99997 14.5522 9.44769 15 9.99997 15C10.5523 15 11 14.5522 11 14V11H14C14.5522 11 14.9999 10.5522 15 9.99997C15 9.44769 14.5522 8.99997 14 8.99997H11V5.99998C11 5.4477 10.5523 4.99998 9.99997 4.99998Z"
    fill="currentColor"
  />
</svg>
