<svg width="32" height="32" viewBox="0 0 32 32" fill="none" xmlns="http://www.w3.org/2000/svg" data-fui-icon="true">
  <path
    d="M22.5 1C27.1944 1 31 4.80558 31 9.5V22.5C31 27.1944 27.1944 31 22.5 31H9.5C4.80558 31 1 27.1944 1 22.5V9.5C1 4.80558 4.80558 1 9.5 1H22.5ZM9.5 3C5.91015 3 3 5.91015 3 9.5V22.5C3 26.0899 5.91015 29 9.5 29H22.5C26.0899 29 29 26.0899 29 22.5V9.5C29 5.91015 26.0899 3 22.5 3H9.5ZM16 8C16.5523 8 17 8.44772 17 9V15H23C23.5523 15 24 15.4477 24 16C24 16.5523 23.5523 17 23 17H17V23C17 23.5523 16.5523 24 16 24C15.4477 24 15 23.5523 15 23V17H9C8.44773 17 8.00003 16.5523 8 16C8 15.4477 8.44772 15 9 15H15V9C15 8.44772 15.4477 8 16 8Z"
    fill="currentColor"
  />
</svg>
