<svg width="24" height="24" viewBox="0 0 24 24" fill="none" xmlns="http://www.w3.org/2000/svg" data-fui-icon="true">
  <path
    d="M12 1C14.7091 1 16.3192 0.986178 17.6426 1.44922C19.9402 2.25333 21.7466 4.05982 22.5508 6.35742C23.0139 7.68081 23 9.29085 23 12C23 14.7092 23.0138 16.3192 22.5508 17.6426C21.7467 19.9402 19.9402 21.7467 17.6426 22.5508C16.3192 23.0138 14.7092 23 12 23C9.29085 23 7.68081 23.0139 6.35742 22.5508C4.05982 21.7466 2.25333 19.9402 1.44922 17.6426C0.986178 16.3192 1 14.7091 1 12C1 9.29085 0.986145 7.68081 1.44922 6.35742C2.25334 4.05981 4.05981 2.25334 6.35742 1.44922C7.68081 0.986145 9.29085 1 12 1ZM12 5.75C11.3097 5.75002 10.75 6.30968 10.75 7V10.75H7C6.30968 10.75 5.75002 11.3097 5.75 12C5.75003 12.6903 6.30968 13.25 7 13.25H10.75V17C10.75 17.6903 11.3097 18.25 12 18.25C12.6904 18.25 13.25 17.6904 13.25 17V13.25H17C17.6903 13.25 18.25 12.6903 18.25 12C18.25 11.3097 17.6903 10.75 17 10.75H13.25V7C13.25 6.30966 12.6903 5.75 12 5.75Z"
    fill="currentColor"
  />
</svg>
