<svg width="32" height="32" viewBox="0 0 32 32" fill="none" xmlns="http://www.w3.org/2000/svg" data-fui-icon="true">
  <path
    d="M16 1C24.2843 1 31 7.71573 31 16C31 24.2843 24.2843 31 16 31C7.71573 31 1 24.2843 1 16C1 7.71573 7.71573 1 16 1ZM16 3C8.8203 3 3 8.8203 3 16C3 23.1797 8.8203 29 16 29C23.1797 29 29 23.1797 29 16C29 8.8203 23.1797 3 16 3ZM16 8.75C16.5523 8.75 17 9.19771 17 9.75V15H22.25C22.8023 15 23.25 15.4477 23.25 16C23.25 16.5523 22.8023 17 22.25 17H17V22.25C17 22.8023 16.5523 23.25 16 23.25C15.4477 23.25 15 22.8023 15 22.25V17H9.75C9.19772 17 8.75001 16.5523 8.75 16C8.75 15.4477 9.19771 15 9.75 15H15V9.75C15 9.19773 15.4477 8.75002 16 8.75Z"
    fill="currentColor"
  />
</svg>
