<svg width="16" height="16" viewBox="0 0 16 16" fill="none" xmlns="http://www.w3.org/2000/svg" data-fui-icon="true">
  <path
    d="M8 0.5C12.1421 0.5 15.5 3.85786 15.5 8C15.5 12.1421 12.1421 15.5 8 15.5C3.85786 15.5 0.5 12.1421 0.5 8C0.5 3.85786 3.85786 0.5 8 0.5ZM8 2.5C4.96243 2.5 2.5 4.96243 2.5 8C2.5 11.0376 4.96243 13.5 8 13.5C11.0376 13.5 13.5 11.0376 13.5 8C13.5 4.96243 11.0376 2.5 8 2.5ZM7.96875 4.25C8.52104 4.25 8.96875 4.69772 8.96875 5.25V6.96875H10.6875C11.2398 6.96875 11.6875 7.41647 11.6875 7.96875C11.6875 8.52104 11.2398 8.96875 10.6875 8.96875H8.96875V10.6875C8.96875 11.2398 8.52104 11.6875 7.96875 11.6875C7.41647 11.6875 6.96875 11.2398 6.96875 10.6875V8.96875H5.25C4.69772 8.96875 4.25 8.52104 4.25 7.96875C4.25 7.41647 4.69772 6.96875 5.25 6.96875H6.96875V5.25C6.96875 4.69772 7.41647 4.25 7.96875 4.25Z"
    fill="currentColor"
  />
</svg>
