<svg width="20" height="20" viewBox="0 0 20 20" fill="none" xmlns="http://www.w3.org/2000/svg" data-fui-icon="true">
  <path
    d="M10 1C14.9706 1 19 5.02944 19 10C19 14.9706 14.9706 19 10 19C5.02944 19 1 14.9706 1 10C1 5.02944 5.02944 1 10 1ZM10 2.5C5.85786 2.5 2.5 5.85786 2.5 10C2.5 14.1421 5.85786 17.5 10 17.5C14.1421 17.5 17.5 14.1421 17.5 10C17.5 5.85786 14.1421 2.5 10 2.5ZM9.95898 6C10.3732 6.00004 10.709 6.33581 10.709 6.75V9.20898H13.25C13.6641 9.20898 13.9998 9.54492 14 9.95898C14 10.3732 13.6642 10.709 13.25 10.709H10.709V13.25C10.709 13.6642 10.3732 14 9.95898 14C9.54477 14 9.20898 13.6642 9.20898 13.25V10.709H6.75C6.33579 10.709 6 10.3732 6 9.95898C6.00018 9.54492 6.3359 9.20898 6.75 9.20898H9.20898V6.75C9.20898 6.33579 9.54477 6 9.95898 6Z"
    fill="currentColor"
  />
</svg>
