<svg width="20" height="20" viewBox="0 0 20 20" fill="none" xmlns="http://www.w3.org/2000/svg" data-fui-icon="true">
  <path
    d="M10 0.5C15.2467 0.5 19.5 4.75329 19.5 10C19.5 15.2467 15.2467 19.5 10 19.5C4.75329 19.5 0.5 15.2467 0.5 10C0.5 4.75329 4.75329 0.5 10 0.5ZM10 2C5.58172 2 2 5.58172 2 10C2 14.4183 5.58172 18 10 18C14.4183 18 18 14.4183 18 10C18 5.58172 14.4183 2 10 2ZM9.95898 6C10.3732 6.00004 10.709 6.33581 10.709 6.75V9.20898H13.25C13.6641 9.20898 13.9998 9.54492 14 9.95898C14 10.3732 13.6642 10.709 13.25 10.709H10.709V13.25C10.709 13.6642 10.3732 14 9.95898 14C9.54477 14 9.20898 13.6642 9.20898 13.25V10.709H6.75C6.33579 10.709 6 10.3732 6 9.95898C6.00018 9.54492 6.3359 9.20898 6.75 9.20898H9.20898V6.75C9.20898 6.33579 9.54477 6 9.95898 6Z"
    fill="currentColor"
  />
</svg>
