<svg width="24" height="24" viewBox="0 0 24 24" fill="none" xmlns="http://www.w3.org/2000/svg" data-fui-icon="true">
  <path
    d="M12 4.75C12.8284 4.75 13.5 5.42157 13.5 6.25V10.5H17.75C18.5784 10.5 19.25 11.1716 19.25 12C19.25 12.8284 18.5784 13.5 17.75 13.5H13.5V17.75C13.5 18.5784 12.8284 19.25 12 19.25C11.1716 19.25 10.5 18.5784 10.5 17.75V13.5H6.25C5.42157 13.5 4.75 12.8284 4.75 12C4.75 11.1716 5.42157 10.5 6.25 10.5H10.5V6.25C10.5 5.42157 11.1716 4.75 12 4.75Z"
    fill="currentColor"
  />
</svg>
