<svg width="16" height="16" viewBox="0 0 16 16" fill="none" xmlns="http://www.w3.org/2000/svg" data-fui-icon="true">
  <path
    d="M8 1C11.866 1 15 4.13401 15 8C15 11.866 11.866 15 8 15C4.13401 15 1 11.866 1 8C1 4.13401 4.13401 1 8 1ZM8 3C5.23858 3 3 5.23858 3 8C3 10.7614 5.23858 13 8 13C10.7614 13 13 10.7614 13 8C13 5.23858 10.7614 3 8 3ZM7.96875 4.25C8.52104 4.25 8.96875 4.69772 8.96875 5.25V6.96875H10.6875C11.2398 6.96875 11.6875 7.41647 11.6875 7.96875C11.6875 8.52104 11.2398 8.96875 10.6875 8.96875H8.96875V10.6875C8.96875 11.2398 8.52104 11.6875 7.96875 11.6875C7.41647 11.6875 6.96875 11.2398 6.96875 10.6875V8.96875H5.25C4.69772 8.96875 4.25 8.52104 4.25 7.96875C4.25 7.41647 4.69772 6.96875 5.25 6.96875H6.96875V5.25C6.96875 4.69772 7.41647 4.25 7.96875 4.25Z"
    fill="currentColor"
  />
</svg>
