<svg width="24" height="24" viewBox="0 0 24 24" fill="none" xmlns="http://www.w3.org/2000/svg" data-fui-icon="true">
  <path
    d="M12 0C13.8502 0 15.2953 -0.000532031 16.4561 0.0898438C17.6273 0.181058 18.5927 0.369262 19.4707 0.791992C21.1036 1.57834 22.4217 2.89644 23.208 4.5293C23.6307 5.40728 23.8189 6.37266 23.9102 7.54395C24.0005 8.70465 24 10.1498 24 12C24 13.8502 24.0005 15.2953 23.9102 16.4561C23.8189 17.6273 23.6307 18.5927 23.208 19.4707C22.4217 21.1036 21.1036 22.4217 19.4707 23.208C18.5927 23.6307 17.6273 23.8189 16.4561 23.9102C15.2953 24.0005 13.8502 24 12 24C10.1498 24 8.70465 24.0005 7.54395 23.9102C6.37266 23.8189 5.40728 23.6307 4.5293 23.208C2.89644 22.4217 1.57834 21.1036 0.791992 19.4707C0.369262 18.5927 0.181058 17.6273 0.0898438 16.4561C-0.000532031 15.2953 0 13.8502 0 12C0 10.1498 -0.000532031 8.70465 0.0898438 7.54395C0.181058 6.37266 0.369262 5.40728 0.791992 4.5293C1.57834 2.89644 2.89644 1.57834 4.5293 0.791992C5.40728 0.369262 6.37266 0.181058 7.54395 0.0898438C8.70465 -0.000532031 10.1498 0 12 0ZM12 2C10.1184 2 8.76428 2.00106 7.69922 2.08398C6.64514 2.16607 5.95778 2.32344 5.39648 2.59375C4.17184 3.18351 3.18351 4.17184 2.59375 5.39648C2.32344 5.95778 2.16607 6.64514 2.08398 7.69922C2.00106 8.76428 2 10.1184 2 12C2 13.8816 2.00106 15.2357 2.08398 16.3008C2.16607 17.3549 2.32344 18.0422 2.59375 18.6035C3.18351 19.8282 4.17184 20.8165 5.39648 21.4062C5.95778 21.6766 6.64514 21.8339 7.69922 21.916C8.76428 21.9989 10.1184 22 12 22C13.8816 22 15.2357 21.9989 16.3008 21.916C17.3549 21.8339 18.0422 21.6766 18.6035 21.4062C19.8282 20.8165 20.8165 19.8282 21.4062 18.6035C21.6766 18.0422 21.8339 17.3549 21.916 16.3008C21.9989 15.2357 22 13.8816 22 12C22 10.1184 21.9989 8.76428 21.916 7.69922C21.8339 6.64514 21.6766 5.95778 21.4062 5.39648C20.8165 4.17184 19.8282 3.18351 18.6035 2.59375C18.0422 2.32344 17.3549 2.16607 16.3008 2.08398C15.2357 2.00106 13.8816 2 12 2Z"
    fill="currentColor"
  />
  <path
    d="M12 7V12M12 17V12M12 12H7M12 12H17"
    stroke="currentColor"
    stroke-width="2"
    stroke-linecap="round"
    stroke-linejoin="round"
  />
</svg>
