<svg width="32" height="32" viewBox="0 0 32 32" fill="none" xmlns="http://www.w3.org/2000/svg" data-fui-icon="true">
  <path
    d="M21.5 1C26.7467 1 31 5.2533 31 10.5V21.5C31 26.7467 26.7467 31 21.5 31H10.5C5.25329 31 1 26.7467 1 21.5V10.5C1 5.25329 5.2533 1 10.5 1H21.5ZM10.5 3C6.35786 3 3 6.35786 3 10.5V21.5C3 25.6421 6.35786 29 10.5 29H21.5C25.6421 29 29 25.6421 29 21.5V10.5C29 6.35786 25.6421 3 21.5 3H10.5ZM16 8C16.5523 8 17 8.44772 17 9V15H23C23.5523 15 24 15.4477 24 16C24 16.5523 23.5523 17 23 17H17V23C17 23.5523 16.5523 24 16 24C15.4477 24 15 23.5523 15 23V17H9C8.44773 17 8.00003 16.5523 8 16C8 15.4477 8.44772 15 9 15H15V9C15 8.44772 15.4477 8 16 8Z"
    fill="currentColor"
  />
</svg>
