<svg width="16" height="16" viewBox="0 0 16 16" fill="none" xmlns="http://www.w3.org/2000/svg" data-fui-icon="true">
  <path
    d="M10.75 1.00012C13.0972 1.00012 15 2.90291 15 5.25012V10.7501C14.9999 13.0973 13.0972 15.0001 10.75 15.0001H5.25C2.90285 15.0001 1.00008 13.0973 1 10.7501V5.25012C1 2.90292 2.9028 1.00014 5.25 1.00012H10.75ZM8 4.00012C7.58581 4.00015 7.25 4.33593 7.25 4.75012V7.25012H4.75C4.3359 7.25012 4.00018 7.58606 4 8.00012C4.00009 8.41426 4.33584 8.75012 4.75 8.75012H7.25V11.2501C7.25009 11.6642 7.58587 12.0001 8 12.0001C8.41409 12 8.74991 11.6642 8.75 11.2501V8.75012H11.25C11.6641 8.75004 11.9999 8.41421 12 8.00012C11.9998 7.58612 11.664 7.25021 11.25 7.25012H8.75V4.75012C8.75 4.33596 8.41414 4.00021 8 4.00012Z"
    fill="currentColor"
  />
</svg>
