<svg width="20" height="20" viewBox="0 0 20 20" fill="none" xmlns="http://www.w3.org/2000/svg" data-fui-icon="true">
  <g clip-path="url(#clip0_6387_34)">
    <path
      d="M10 0C15.5228 0 20 4.47715 20 10C20 15.5228 15.5228 20 10 20C4.47715 20 0 15.5228 0 10C0 4.47715 4.47715 0 10 0ZM10 5.25C9.58579 5.25 9.25 5.58579 9.25 6V9.25H6C5.58579 9.25 5.25 9.58579 5.25 10C5.25003 10.4142 5.5858 10.75 6 10.75H9.25V14C9.25 14.4142 9.58579 14.75 10 14.75C10.4142 14.75 10.75 14.4142 10.75 14V10.75H14C14.4142 10.75 14.75 10.4142 14.75 10C14.75 9.58579 14.4142 9.25 14 9.25H10.75V6C10.75 5.58579 10.4142 5.25 10 5.25Z"
      fill="currentColor"
    />
  </g>
  <defs>
    <clipPath id="clip0_6387_34"><path fill="currentColor" d="M0 0H20V20H0z" /></clipPath>
  </defs>
</svg>
