<svg width="32" height="32" viewBox="0 0 32 32" fill="none" xmlns="http://www.w3.org/2000/svg" data-fui-icon="true">
  <path
    d="M22.75 1C27.3063 1 31 4.69365 31 9.25V22.75C31 27.3063 27.3063 31 22.75 31H9.25C4.69365 31 1 27.3063 1 22.75V9.25C1 4.69365 4.69365 1 9.25 1H22.75ZM16 8.25C15.5858 8.25 15.25 8.58579 15.25 9V15.25H9C8.58579 15.25 8.25 15.5858 8.25 16C8.25003 16.4142 8.5858 16.75 9 16.75H15.25V23C15.25 23.4142 15.5858 23.75 16 23.75C16.4142 23.75 16.75 23.4142 16.75 23V16.75H23C23.4142 16.75 23.75 16.4142 23.75 16C23.75 15.5858 23.4142 15.25 23 15.25H16.75V9C16.75 8.58579 16.4142 8.25 16 8.25Z"
    fill="currentColor"
  />
</svg>
