<svg width="32" height="32" viewBox="0 0 32 32" fill="none" xmlns="http://www.w3.org/2000/svg" data-fui-icon="true">
  <path
    fill-rule="evenodd"
    clip-rule="evenodd"
    d="M20.5 2C25.7467 2 30 6.2533 30 11.5V20.5C30 25.7467 25.7467 30 20.5 30H11.5C6.2533 30 2 25.7467 2 20.5V11.5C2 6.25329 6.2533 2 11.5 2H20.5ZM16 8C15.4477 8 15 8.44772 15 9V15H9C8.44772 15 8 15.4477 8 16C8.00003 16.5523 8.44773 17 9 17H15V23C15 23.5523 15.4477 24 16 24C16.5523 24 17 23.5523 17 23V17H23C23.5523 17 24 16.5523 24 16C24 15.4477 23.5523 15 23 15H17V9C17 8.44772 16.5523 8 16 8Z"
    fill="currentColor"
  />
</svg>
