<svg width="12" height="12" viewBox="0 0 12 12" fill="none" xmlns="http://www.w3.org/2000/svg" data-fui-icon="true">
  <path
    d="M6 0C9.31371 0 12 2.68629 12 6C12 9.31371 9.31371 12 6 12C2.68629 12 0 9.31371 0 6C0 2.68629 2.68629 0 6 0ZM6 2.5C5.44772 2.5 5 2.94772 5 3.5V5H3.5C2.94772 5 2.5 5.44772 2.5 6C2.5 6.55228 2.94772 7 3.5 7H5V8.5C5 9.05228 5.44772 9.5 6 9.5C6.55228 9.5 7 9.05228 7 8.5V7H8.5C9.05228 7 9.5 6.55228 9.5 6C9.5 5.44772 9.05228 5 8.5 5H7V3.5C7 2.94772 6.55228 2.5 6 2.5Z"
    fill="currentColor"
  />
</svg>
