<svg width="20" height="20" viewBox="0 0 20 20" fill="none" xmlns="http://www.w3.org/2000/svg" data-fui-icon="true">
  <path
    d="M9.99997 0C11.7388 0 13.0944 -0.00057985 14.1757 0.0996091C15.2676 0.200796 16.1554 0.409852 16.9394 0.874997C17.8394 1.40902 18.5909 2.16059 19.1249 3.06054C19.5901 3.84451 19.7991 4.73238 19.9003 5.8242C20.0005 6.90548 19.9999 8.26121 19.9999 9.99997C19.9999 11.7387 20.0005 13.0945 19.9003 14.1757C19.7991 15.2676 19.5901 16.1554 19.1249 16.9394C18.5909 17.8394 17.8394 18.5909 16.9394 19.1249C16.1554 19.5901 15.2676 19.7991 14.1757 19.9003C13.0944 20.0005 11.7388 19.9999 9.99997 19.9999C8.26115 19.9999 6.90551 20.0005 5.8242 19.9003C4.73232 19.7991 3.84453 19.5901 3.06054 19.1249C2.16057 18.5909 1.40903 17.8394 0.874997 16.9394C0.409867 16.1554 0.200795 15.2676 0.0996091 14.1757C-0.000569636 13.0945 0 11.7387 0 9.99997C-2.71579e-08 8.26121 -0.000578558 6.90548 0.0996091 5.8242C0.200803 4.73238 0.409847 3.84451 0.874997 3.06054C1.40904 2.16059 2.16058 1.40902 3.06054 0.874997C3.84452 0.409852 4.73234 0.200796 5.8242 0.0996091C6.90551 -0.00057987 8.26116 0 9.99997 0ZM9.99997 5.24998C9.58576 5.24998 9.24997 5.58577 9.24997 5.99998V9.24997H5.99998C5.58577 9.24997 5.24998 9.58576 5.24998 9.99997C5.25001 10.4142 5.58579 10.75 5.99998 10.75H9.24997V14C9.24997 14.4142 9.58576 14.75 9.99997 14.75C10.4142 14.75 10.75 14.4142 10.75 14V10.75H14C14.4142 10.75 14.7499 10.4142 14.75 9.99997C14.75 9.58576 14.4142 9.24997 14 9.24997H10.75V5.99998C10.75 5.58577 10.4142 5.24998 9.99997 5.24998Z"
    fill="currentColor"
  />
</svg>
