<svg width="32" height="32" viewBox="0 0 32 32" fill="none" xmlns="http://www.w3.org/2000/svg" data-fui-icon="true">
  <path
    d="M16 0.5C24.5604 0.5 31.5 7.43959 31.5 16C31.5 24.5604 24.5604 31.5 16 31.5C7.43959 31.5 0.5 24.5604 0.5 16C0.5 7.43959 7.43959 0.5 16 0.5ZM16 9C15.5858 9.00002 15.25 9.3358 15.25 9.75V15.25H9.75C9.33579 15.25 9 15.5858 9 16C9.00001 16.4142 9.33579 16.75 9.75 16.75H15.25V22.25C15.25 22.6642 15.5858 23 16 23C16.4142 23 16.75 22.6642 16.75 22.25V16.75H22.25C22.6642 16.75 23 16.4142 23 16C23 15.5858 22.6642 15.25 22.25 15.25H16.75V9.75C16.75 9.33579 16.4142 9 16 9Z"
    fill="currentColor"
  />
</svg>
