<svg width="32" height="32" viewBox="0 0 32 32" fill="none" xmlns="http://www.w3.org/2000/svg" data-fui-icon="true">
  <path
    d="M22.75 1C27.3063 1 31 4.69365 31 9.25V22.75C31 27.3063 27.3063 31 22.75 31H9.25C4.69365 31 1 27.3063 1 22.75V9.25C1 4.69365 4.69365 1 9.25 1H22.75ZM9.25 2.5C5.52208 2.5 2.5 5.52208 2.5 9.25V22.75C2.5 26.4779 5.52208 29.5 9.25 29.5H22.75C26.4779 29.5 29.5 26.4779 29.5 22.75V9.25C29.5 5.52208 26.4779 2.5 22.75 2.5H9.25ZM16 8.25C16.4142 8.25 16.75 8.58579 16.75 9V15.25H23C23.4142 15.25 23.75 15.5858 23.75 16C23.75 16.4142 23.4142 16.75 23 16.75H16.75V23C16.75 23.4142 16.4142 23.75 16 23.75C15.5858 23.75 15.25 23.4142 15.25 23V16.75H9C8.5858 16.75 8.25003 16.4142 8.25 16C8.25 15.5858 8.58579 15.25 9 15.25H15.25V9C15.25 8.58579 15.5858 8.25 16 8.25Z"
    fill="currentColor"
  />
</svg>
