<svg width="24" height="24" viewBox="0 0 24 24" fill="none" xmlns="http://www.w3.org/2000/svg" data-fui-icon="true">
  <path
    fill-rule="evenodd"
    clip-rule="evenodd"
    d="M12 0.999922C14.7092 0.999922 16.3192 0.986081 17.6426 1.44914C19.9403 2.25325 21.7467 4.05972 22.5508 6.35734C23.0139 7.68074 23 9.29074 23 11.9999C23 14.7091 23.0139 16.3191 22.5508 17.6425C21.7467 19.9402 19.9403 21.7466 17.6426 22.5507C16.3192 23.0138 14.7092 22.9999 12 22.9999C9.29086 22.9999 7.68086 23.0138 6.35747 22.5507C4.05984 21.7466 2.25338 19.9401 1.44926 17.6425C0.986203 16.3191 1.00004 14.7091 1.00004 11.9999C1.00004 9.29074 0.986186 7.68074 1.44926 6.35734C2.25338 4.05971 4.05983 2.25326 6.35747 1.44914C7.68086 0.986064 9.29086 0.999922 12 0.999922ZM12 2.99992C9.12363 2.99992 7.94038 3.01433 7.0186 3.33684C5.29514 3.93991 3.94003 5.29502 3.33696 7.01848C3.01445 7.94026 3.00004 9.12351 3.00004 11.9999C3.00004 14.8763 3.01447 16.0596 3.33696 16.9814C3.94002 18.7048 5.29514 20.0599 7.0186 20.663C7.94038 20.9855 9.12363 20.9999 12 20.9999C14.8765 20.9999 16.0597 20.9855 16.9815 20.663C18.705 20.0599 20.0601 18.7048 20.6631 16.9814C20.9856 16.0596 21 14.8763 21 11.9999C21 9.12351 20.9856 7.94026 20.6631 7.01848C20.06 5.29502 18.705 3.9399 16.9815 3.33684C16.0597 3.01435 14.8764 2.99992 12 2.99992Z"
    fill="currentColor"
  />
  <path
    d="M12 7V12M12 17V12M12 12H7M12 12H17"
    stroke="currentColor"
    stroke-width="2"
    stroke-linecap="round"
    stroke-linejoin="round"
  />
</svg>
