<svg width="32" height="32" viewBox="0 0 32 32" fill="none" xmlns="http://www.w3.org/2000/svg" data-fui-icon="true">
  <path
    d="M21.75 1C26.8586 1 31 5.14137 31 10.25V21.75C31 26.8586 26.8586 31 21.75 31H10.25C5.14137 31 1 26.8586 1 21.75V10.25C1 5.14137 5.14137 1 10.25 1H21.75ZM16 8.25C15.5858 8.25 15.25 8.58579 15.25 9V15.25H9C8.58579 15.25 8.25 15.5858 8.25 16C8.25003 16.4142 8.5858 16.75 9 16.75H15.25V23C15.25 23.4142 15.5858 23.75 16 23.75C16.4142 23.75 16.75 23.4142 16.75 23V16.75H23C23.4142 16.75 23.75 16.4142 23.75 16C23.75 15.5858 23.4142 15.25 23 15.25H16.75V9C16.75 8.58579 16.4142 8.25 16 8.25Z"
    fill="currentColor"
  />
</svg>
