<svg width="24" height="24" viewBox="0 0 24 24" fill="none" xmlns="http://www.w3.org/2000/svg" data-fui-icon="true">
  <path
    d="M16.5 1C20.0899 1 23 3.91015 23 7.5V16.5C23 20.0899 20.0898 23 16.5 23H7.5C3.91015 23 1 20.0898 1 16.5V7.5C1 3.91015 3.91015 1 7.5 1H16.5ZM7.5 2.5C4.73858 2.5 2.5 4.73858 2.5 7.5V16.5C2.5 19.2614 4.73858 21.5 7.5 21.5H16.5C19.2614 21.5 21.5 19.2614 21.5 16.5V7.5C21.5 4.73858 19.2614 2.5 16.5 2.5H7.5ZM12 6C12.4142 6 12.75 6.33579 12.75 6.75V11.25H17.25C17.6642 11.25 18 11.5858 18 12C18 12.4142 17.6642 12.75 17.25 12.75H12.75V17.25C12.75 17.6642 12.4142 18 12 18C11.5858 18 11.25 17.6642 11.25 17.25V12.75H6.75C6.3358 12.75 6.00003 12.4142 6 12C6 11.5858 6.33579 11.25 6.75 11.25H11.25V6.75C11.25 6.33579 11.5858 6 12 6Z"
    fill="currentColor"
  />
</svg>
