<svg width="32" height="32" viewBox="0 0 32 32" fill="none" xmlns="http://www.w3.org/2000/svg" data-fui-icon="true">
  <path
    d="M16 0.5C24.5604 0.5 31.5 7.43959 31.5 16C31.5 24.5604 24.5604 31.5 16 31.5C7.43959 31.5 0.5 24.5604 0.5 16C0.5 7.43959 7.43959 0.5 16 0.5ZM16 8.375C15.2406 8.37502 14.625 8.99062 14.625 9.75V14.625H9.75C8.99061 14.625 8.375 15.2406 8.375 16C8.37501 16.7594 8.99061 17.375 9.75 17.375H14.625V22.25C14.625 23.0094 15.2406 23.625 16 23.625C16.7594 23.625 17.375 23.0094 17.375 22.25V17.375H22.25C23.0094 17.375 23.625 16.7594 23.625 16C23.625 15.2406 23.0094 14.625 22.25 14.625H17.375V9.75C17.375 8.99061 16.7594 8.375 16 8.375Z"
    fill="currentColor"
  />
</svg>
