<svg width="12" height="12" viewBox="0 0 12 12" fill="none" xmlns="http://www.w3.org/2000/svg" data-fui-icon="true">
  <path
    d="M6.00049 0C6.80519 -1.09202e-07 7.44679 -0.000266601 7.96615 0.0351534C8.492 0.0710585 8.94827 0.146047 9.37619 0.323216C10.4173 0.754573 11.2455 1.58265 11.6768 2.62381C11.854 3.05181 11.929 3.50786 11.9648 4.03385C12.0003 4.55328 12 5.19464 12 5.99951C12 6.80436 12.0003 7.44574 11.9648 7.96517C11.929 8.49111 11.8539 8.94725 11.6768 9.37521C11.2455 10.4163 10.4173 11.2444 9.37619 11.6758C8.94828 11.853 8.49199 11.928 7.96615 11.9639C7.44679 11.9993 6.80519 11.999 6.00049 11.999C5.1958 11.999 4.5542 11.9993 4.03483 11.9639C3.50893 11.928 3.05273 11.8529 2.62479 11.6758C1.58352 11.2445 0.755514 10.4165 0.324192 9.37521C0.14697 8.94717 0.0720223 8.49123 0.0361299 7.96517C0.00070878 7.44573 0.000976483 6.8044 0.000976483 5.99951C0.000976455 5.19464 0.000704544 4.55328 0.0361299 4.03385C0.0720264 3.50786 0.146988 3.05182 0.324192 2.62381C0.755539 1.58266 1.58359 0.754492 2.62479 0.323216C3.0527 0.14613 3.50896 0.0710329 4.03483 0.0351534C4.5542 -0.000239866 5.19581 0 6.00049 0ZM5.99951 3.12865C5.58552 3.12877 5.2497 3.4646 5.24957 3.87859V5.24957H3.87859C3.46458 5.24957 3.12892 5.58556 3.12865 5.99951C3.12865 6.41369 3.46441 6.74945 3.87859 6.74945H5.24957V8.12043C5.24957 8.53454 5.58544 8.87025 5.99951 8.87037C6.41369 8.87037 6.74945 8.53461 6.74945 8.12043V6.74945H8.12043C8.53461 6.74945 8.87037 6.41369 8.87037 5.99951C8.8701 5.58556 8.53445 5.24957 8.12043 5.24957H6.74945V3.87859C6.74932 3.46452 6.41361 3.12865 5.99951 3.12865Z"
    fill="currentColor"
  />
</svg>
