<svg width="24" height="24" viewBox="0 0 24 24" fill="none" xmlns="http://www.w3.org/2000/svg" data-fui-icon="true">
  <path
    fill-rule="evenodd"
    clip-rule="evenodd"
    d="M12 0.999983C14.7093 0.999983 16.3192 0.986123 17.6426 1.4492C19.9403 2.25332 21.7467 4.05975 22.5508 6.35741C23.0139 7.68081 23 9.29078 23 12C23 14.7092 23.0139 16.3192 22.5508 17.6426C21.7467 19.9402 19.9403 21.7466 17.6426 22.5508C16.3192 23.0138 14.7093 23 12 23C9.29084 23 7.68087 23.0138 6.35747 22.5508C4.05981 21.7466 2.25338 19.9402 1.44926 17.6426C0.986184 16.3192 1.00004 14.7092 1.00004 12C1.00004 9.29078 0.986184 7.68081 1.44926 6.35741C2.25338 4.05975 4.05981 2.25332 6.35747 1.4492C7.68087 0.986123 9.29084 0.999983 12 0.999983ZM12 2.99998C9.1236 2.99998 7.94039 3.01439 7.0186 3.3369C5.29512 3.93997 3.94003 5.29506 3.33696 7.01854C3.01445 7.94033 3.00004 9.12354 3.00004 12C3.00004 14.8764 3.01445 16.0596 3.33696 16.9814C3.94003 18.7049 5.29512 20.06 7.0186 20.6631C7.94039 20.9856 9.1236 21 12 21C14.8765 21 16.0597 20.9856 16.9815 20.6631C18.705 20.06 20.0601 18.7049 20.6631 16.9814C20.9856 16.0596 21 14.8764 21 12C21 9.12354 20.9856 7.94033 20.6631 7.01854C20.0601 5.29506 18.705 3.93997 16.9815 3.3369C16.0597 3.01439 14.8765 2.99998 12 2.99998Z"
    fill="currentColor"
  />
  <path
    d="M12 7V12M12 17V12M12 12H7M12 12H17"
    stroke="currentColor"
    stroke-width="2"
    stroke-linecap="round"
    stroke-linejoin="round"
  />
</svg>
