<svg width="12" height="12" viewBox="0 0 12 12" fill="none" xmlns="http://www.w3.org/2000/svg" data-fui-icon="true">
  <path
    d="M8.00033 0C10.2091 0 11.9997 1.79094 12 3.99967V7.99935C12 10.2083 10.2093 11.999 8.00033 11.999H4.00065C1.79175 11.999 0.000976483 10.2083 0.000976483 7.99935V3.99967C0.00123864 1.79098 1.79191 6.47934e-05 4.00065 0H8.00033ZM4.00065 1.99984C2.89639 1.9999 2.00108 2.89546 2.00081 3.99967V7.99935C2.00081 9.10379 2.89623 9.99912 4.00065 9.99919H8.00033C9.10481 9.99919 10.0002 9.10383 10.0002 7.99935V3.99967C9.9999 2.89542 9.10464 1.99984 8.00033 1.99984H4.00065ZM5.99854 3.00073C6.55078 3.00073 6.99845 3.44841 6.99845 4.00065V5.00057H7.99837C8.55061 5.00057 8.99828 5.44826 8.99829 6.00049C8.99828 6.55272 8.55061 7.00041 7.99837 7.00041H6.99845V8.00033C6.99845 8.55256 6.55077 9.00024 5.99854 9.00024C5.4464 9.00012 4.99863 8.55248 4.99862 8.00033V7.00041H3.9987C3.44656 7.00029 2.99879 6.55265 2.99878 6.00049C2.99879 5.44833 3.44656 5.00069 3.9987 5.00057H4.99862V4.00065C4.99862 3.44849 5.4464 3.00085 5.99854 3.00073Z"
    fill="currentColor"
  />
</svg>
