<svg width="16" height="16" viewBox="0 0 16 16" fill="none" xmlns="http://www.w3.org/2000/svg" data-fui-icon="true">
  <path
    d="M10.5 1.00024C12.9853 1.00024 15 3.01496 15 5.50024V10.5002C14.9999 12.9854 12.9852 15.0002 10.5 15.0002H5.5C3.01481 15.0002 1.0001 12.9854 1 10.5002V5.50024C1 3.01498 3.01474 1.00027 5.5 1.00024H10.5ZM5.5 3.00024C4.11931 3.00027 3 4.11955 3 5.50024V10.5002C3.0001 11.8809 4.11938 13.0002 5.5 13.0002H10.5C11.8806 13.0002 12.9999 11.8809 13 10.5002V5.50024C13 4.11953 11.8807 3.00024 10.5 3.00024H5.5ZM8 4.00024C8.55229 4.00024 9 4.44796 9 5.00024V7.00024H11C11.5522 7.00024 11.9998 7.4481 12 8.00024C11.9999 8.55244 11.5522 9.00024 11 9.00024H9V11.0002C8.9999 11.5524 8.55222 12.0002 8 12.0002C7.44783 12.0002 7.0001 11.5524 7 11.0002V9.00024H5C4.4478 9.00021 4.0001 8.55242 4 8.00024C4.00017 7.44812 4.44784 7.00027 5 7.00024H7V5.00024C7 4.448 7.44776 4.0003 8 4.00024Z"
    fill="currentColor"
  />
</svg>
