<svg width="12" height="12" viewBox="0 0 12 12" fill="none" xmlns="http://www.w3.org/2000/svg" data-fui-icon="true">
  <path
    d="M6.00195 6.5C8.02767 6.50027 9.58414 7.71851 10.2139 9.4209C10.418 9.97299 10.2768 10.5206 9.9541 10.9053C9.64177 11.2775 9.16359 11.4999 8.65332 11.5H3.34961C2.83936 11.4999 2.36119 11.2775 2.04883 10.9053C1.72609 10.5206 1.58484 9.97306 1.78906 9.4209C2.41887 7.71834 3.97596 6.5 6.00195 6.5ZM6.00195 8C4.63774 8 3.62051 8.79466 3.19629 9.93945L3.19824 9.94043C3.21823 9.96416 3.27111 9.9999 3.34961 10H8.65332C8.73189 9.99987 8.78479 9.96415 8.80469 9.94043L8.80566 9.93945C8.38145 8.79499 7.36575 8.00026 6.00195 8ZM6.00098 0.5C7.45074 0.500005 8.62598 1.67526 8.62598 3.125C8.62598 4.57474 7.45074 5.74999 6.00098 5.75C4.55131 5.74991 3.37598 4.57469 3.37598 3.125C3.37598 1.67531 4.55131 0.500089 6.00098 0.5ZM6.00098 2C5.37974 2.00009 4.87598 2.50373 4.87598 3.125C4.87598 3.74627 5.37974 4.24991 6.00098 4.25C6.6223 4.24999 7.12598 3.74632 7.12598 3.125C7.12598 2.50368 6.6223 2.00001 6.00098 2Z"
    fill="currentColor"
  />
</svg>
