<svg width="32" height="32" viewBox="0 0 32 32" fill="none" xmlns="http://www.w3.org/2000/svg" data-fui-icon="true">
  <path
    d="M16.001 16.917C20.8531 16.917 24.5539 19.8141 26.0615 23.8906C26.4359 24.9033 26.1827 25.8956 25.583 26.6104C24.9936 27.3125 24.0735 27.75 23.0723 27.75H8.93066C7.92937 27.75 7.00933 27.3126 6.41992 26.6104C5.82023 25.8957 5.567 24.9033 5.94141 23.8906C7.44902 19.8143 11.1492 16.9172 16.001 16.917ZM16.002 2.91699C19.1774 2.91724 21.752 5.49151 21.752 8.66699C21.7518 11.8423 19.1773 14.4167 16.002 14.417C12.8264 14.417 10.2521 11.8425 10.252 8.66699C10.252 5.49135 12.8263 2.91699 16.002 2.91699Z"
    fill="currentColor"
  />
</svg>
