<svg width="16" height="16" viewBox="0 0 16 16" fill="none" xmlns="http://www.w3.org/2000/svg" data-fui-icon="true">
  <path
    d="M8 0.5C12.1421 0.5 15.5 3.85786 15.5 8C15.5 12.1421 12.1421 15.5 8 15.5C3.85786 15.5 0.5 12.1421 0.5 8C0.5 3.85786 3.85786 0.5 8 0.5ZM8 10C6.24207 10 4.7054 10.9396 3.86035 12.3398C4.93721 13.3673 6.39408 14 8 14C9.60566 14 11.0619 13.367 12.1387 12.3398C11.2936 10.9398 9.75772 10 8 10ZM8 4C6.61929 4 5.5 5.11929 5.5 6.5C5.5 7.88071 6.61929 9 8 9C9.38071 9 10.5 7.88071 10.5 6.5C10.5 5.11929 9.38071 4 8 4Z"
    fill="currentColor"
  />
</svg>
