<svg width="16" height="16" viewBox="0 0 16 16" fill="none" xmlns="http://www.w3.org/2000/svg" data-fui-icon="true">
  <path
    d="M7.99805 0C12.4151 6.55703e-05 15.9961 3.58096 15.9961 7.99805C15.996 12.4151 12.4151 15.996 7.99805 15.9961C3.581 15.996 6.56162e-05 12.4151 0 7.99805C0 3.58095 3.58096 5.28641e-05 7.99805 0ZM7.99707 12.5449C6.75068 12.5451 5.59188 12.9149 4.62305 13.5518C5.60674 14.1509 6.76208 14.4961 7.99805 14.4961C9.23338 14.4961 10.3877 14.1503 11.3711 13.5518C10.4021 12.9152 9.24331 12.5449 7.99707 12.5449ZM7.99805 1.5C4.40939 1.50005 1.5 4.40937 1.5 7.99805C1.50003 9.78787 2.22381 11.4088 3.39453 12.584C4.67526 11.6183 6.26976 11.0451 7.99707 11.0449C9.72425 11.0449 11.3188 11.6186 12.5996 12.584C13.771 11.4087 14.4961 9.7884 14.4961 7.99805C14.4961 4.40938 11.5867 1.50007 7.99805 1.5ZM8 4C9.65685 4 11 5.34315 11 7C11 8.65685 9.65685 10 8 10C6.34315 10 5 8.65685 5 7C5 5.34315 6.34315 4 8 4ZM8 5.5C7.17157 5.5 6.5 6.17157 6.5 7C6.5 7.82843 7.17157 8.5 8 8.5C8.82843 8.5 9.5 7.82843 9.5 7C9.5 6.17157 8.82843 5.5 8 5.5Z"
    fill="currentColor"
  />
</svg>
