<svg width="24" height="24" viewBox="0 0 24 24" fill="none" xmlns="http://www.w3.org/2000/svg" data-fui-icon="true">
  <path
    d="M12.0007 12.5C15.7223 12.5 18.5649 14.7257 19.7214 17.8525C20.0279 18.681 19.8198 19.4954 19.3308 20.0781C18.8523 20.6483 18.1092 20.9999 17.3044 21H6.698C5.89302 20.9999 5.14923 20.6485 4.67065 20.0781C4.18177 19.4954 3.97366 18.681 4.28003 17.8525C5.43653 14.7257 8.27929 12.5001 12.0007 12.5ZM12.0007 2C14.486 2.00001 16.5007 4.01473 16.5007 6.5C16.5007 8.98527 14.486 11 12.0007 11C9.51568 10.9998 7.50073 8.98513 7.50073 6.5C7.50073 4.01487 9.51568 2.00025 12.0007 2Z"
    fill="currentColor"
  />
</svg>
