<svg width="32" height="32" viewBox="0 0 32 32" fill="none" xmlns="http://www.w3.org/2000/svg" data-fui-icon="true">
  <path
    d="M16.0009 16.917C20.853 16.917 24.5537 19.8141 26.0614 23.8906C26.4358 24.9033 26.1826 25.8956 25.5829 26.6104C24.9935 27.3125 24.0734 27.75 23.0721 27.75H8.93054C7.92925 27.75 7.00921 27.3126 6.4198 26.6104C5.82011 25.8957 5.56688 24.9033 5.94128 23.8906C7.4489 19.8143 11.1491 16.9172 16.0009 16.917ZM16.0018 2.91699C19.1773 2.91724 21.7518 5.49151 21.7518 8.66699C21.7517 11.8423 19.1772 14.4167 16.0018 14.417C12.8263 14.417 10.252 11.8425 10.2518 8.66699C10.2518 5.49135 12.8262 2.91699 16.0018 2.91699Z"
    fill="currentColor"
  />
</svg>
