<svg
  width="16"
  height="16"
  viewBox="0 0 16 16"
  fill="none"
  xmlns="http://www.w3.org/2000/svg"
  data-fui-icon="true"
>
  <g clip-path="url(#clip0_882_1417)">
    <circle
      cx="8"
      cy="8"
      r="6.75"
      stroke="currentColor"
      stroke-width="1.5"
      stroke-linecap="round"
      stroke-linejoin="round"
    />
    <path
      d="M12.3931 13.125L12.8815 13.6942C13.0475 13.5517 13.1431 13.3438 13.1431 13.125C13.1431 12.9062 13.0475 12.6983 12.8815 12.5558L12.3931 13.125ZM3.60709 13.125L3.11872 12.5558C2.95265 12.6983 2.85709 12.9062 2.85709 13.125C2.85709 13.3438 2.95265 13.5517 3.11872 13.6942L3.60709 13.125ZM11.9047 12.5558C10.8549 13.4565 9.49191 14 8.00008 14V15.5C9.86356 15.5 11.57 14.8194 12.8815 13.6942L11.9047 12.5558ZM8.00008 14C6.50826 14 5.14528 13.4565 4.09545 12.5558L3.11872 13.6942C4.4302 14.8194 6.13661 15.5 8.00008 15.5V14ZM4.09545 13.6942C5.14529 12.7935 6.50828 12.25 8.00011 12.25V10.75C6.13663 10.75 4.4302 11.4306 3.11872 12.5558L4.09545 13.6942ZM8.00011 12.25C9.49193 12.25 10.8549 12.7935 11.9047 13.6942L12.8815 12.5558C11.57 11.4306 9.86358 10.75 8.00011 10.75V12.25Z"
      fill="currentColor"
    />
    <circle
      cx="8"
      cy="7"
      r="2.25"
      stroke="currentColor"
      stroke-width="1.5"
      stroke-linecap="round"
      stroke-linejoin="round"
    />
  </g>
  <defs>
    <clipPath id="clip0_882_1417">
      <path fill="currentColor" d="M0 0H16V16H0z" />
    </clipPath>
  </defs>
</svg>
