<svg width="20" height="20" viewBox="0 0 20 20" fill="none" xmlns="http://www.w3.org/2000/svg" data-fui-icon="true">
  <g clip-path="url(#clip0_6490_258)">
    <path
      d="M9.99902 0C10.3442 6.26974e-06 10.6853 0.0176126 11.0215 0.0517578C12.03 0.154219 12.9943 0.406514 13.8916 0.786133C14.1906 0.912635 14.4823 1.0531 14.7656 1.20703C15.1904 1.43784 15.5966 1.69857 15.9814 1.98633C16.4949 2.37029 16.9699 2.80273 17.4004 3.27637C18.4762 4.46011 19.2726 5.90271 19.6836 7.5C19.7658 7.81959 19.8322 8.14545 19.8828 8.47656C19.9587 8.97298 19.998 9.48141 19.998 9.99902C19.998 10.3476 19.9792 10.6919 19.9443 11.0312C19.9402 11.0718 19.9334 11.112 19.9287 11.1523C19.8948 11.447 19.8509 11.7381 19.792 12.0244C19.7852 12.0575 19.7767 12.0901 19.7695 12.123C19.6324 12.7567 19.4356 13.3676 19.1846 13.9502C19.1799 13.961 19.1746 13.9716 19.1699 13.9824C17.6303 17.5218 14.1049 19.998 9.99902 19.998C6.40989 19.998 3.26377 18.1059 1.5 15.2656C1.49885 15.2638 1.49822 15.2616 1.49707 15.2598C1.25063 14.8623 1.0315 14.4466 0.841797 14.0146C0.83118 13.9905 0.820001 13.9666 0.80957 13.9424C0.693944 13.6733 0.591092 13.3978 0.499023 13.1172C0.486883 13.0802 0.472657 13.044 0.460938 13.0068C0.420314 12.8779 0.384113 12.7473 0.348633 12.6162C0.340413 12.5859 0.331183 12.5558 0.323242 12.5254C0.288611 12.3924 0.257748 12.2581 0.228516 12.123C0.221376 12.0901 0.212868 12.0575 0.206055 12.0244C0.147717 11.7409 0.103116 11.4529 0.0693359 11.1611C0.0643122 11.1178 0.057202 11.0747 0.0527344 11.0312C0.0179257 10.6919 6.34823e-06 10.3475 0 9.99902C0 9.65384 0.0176099 9.31274 0.0517578 8.97656C0.0858782 8.64064 0.136583 8.30963 0.203125 7.98438C0.536082 6.35694 1.26422 4.87338 2.2832 3.63867C2.58892 3.26822 2.92115 2.9205 3.27637 2.59766C3.39469 2.49012 3.51528 2.38503 3.63867 2.2832C3.88547 2.07952 4.14236 1.88763 4.4082 1.70801C6.00413 0.629708 7.92806 1.76269e-05 9.99902 0ZM10 14C7.76047 14 5.70836 14.7974 4.1084 16.1221C5.63625 17.5923 7.7113 18.498 9.99902 18.498C12.2869 18.498 14.3617 17.5916 15.8896 16.1211C14.2899 14.7972 12.2388 14 10 14ZM10 4.25C7.65279 4.25 5.75 6.15279 5.75 8.5C5.75 10.8472 7.65279 12.75 10 12.75C12.3472 12.75 14.25 10.8472 14.25 8.5C14.25 6.15279 12.3472 4.25 10 4.25Z"
      fill="currentColor"
    />
  </g>
  <defs>
    <clipPath id="clip0_6490_258"><path fill="currentColor" d="M0 0H20V20H0z" /></clipPath>
  </defs>
</svg>
