<svg width="12" height="12" viewBox="0 0 12 12" fill="none" xmlns="http://www.w3.org/2000/svg" data-fui-icon="true">
  <path
    d="M6.00073 6.5C8.02652 6.50017 9.58287 7.7185 10.2126 9.4209C10.4169 9.97308 10.2756 10.5206 9.95288 10.9053C9.64049 11.2775 9.16238 11.4999 8.6521 11.5H3.34839C2.8382 11.4998 2.3599 11.2775 2.04761 10.9053C1.72499 10.5206 1.58371 9.97295 1.78784 9.4209C2.4176 7.71839 3.97487 6.50013 6.00073 6.5ZM6.00073 0.5C7.45039 0.500133 8.62573 1.67534 8.62573 3.125C8.62573 4.57466 7.45039 5.74987 6.00073 5.75C4.55099 5.75 3.37573 4.57475 3.37573 3.125C3.37573 1.67525 4.55099 0.5 6.00073 0.5Z"
    fill="currentColor"
  />
</svg>
