<svg width="32" height="32" viewBox="0 0 32 32" fill="none" xmlns="http://www.w3.org/2000/svg" data-fui-icon="true">
  <path
    d="M16 0.99707C17.553 0.997094 19.0511 1.23276 20.46 1.6709C21.2428 1.91437 21.9976 2.22151 22.7197 2.58398C23.4382 2.94465 24.1237 3.36114 24.7705 3.82812C25.0337 4.01813 25.2911 4.2156 25.541 4.42188C25.6337 4.49834 25.7256 4.57567 25.8164 4.6543C25.9072 4.73296 25.997 4.81276 26.0859 4.89355C26.8389 5.5779 27.5209 6.33866 28.1221 7.16211C28.3716 7.50385 28.6077 7.85597 28.8281 8.21875C28.8908 8.32184 28.9525 8.42557 29.0127 8.53027C29.0899 8.66455 29.1642 8.80065 29.2373 8.9375C29.5064 9.44106 29.7487 9.96127 29.96 10.4971C30.0495 10.7242 30.1333 10.9542 30.2119 11.1865C30.5832 12.2838 30.8298 13.4382 30.9375 14.6328C30.9666 14.9555 30.9868 15.2811 30.9951 15.6094C30.9984 15.7382 31 15.8674 31 15.9971C30.9999 24.2813 24.2842 30.9969 16 30.9971C15.8704 30.9971 15.7411 30.9955 15.6123 30.9922C15.098 30.9791 14.59 30.9405 14.0898 30.877C13.2137 30.7656 12.3613 30.578 11.5391 30.3223C11.4216 30.2857 11.3047 30.2483 11.1885 30.209C11.0723 30.1697 10.9567 30.129 10.8418 30.0869C10.7272 30.045 10.6133 30.0017 10.5 29.957C9.97129 29.7486 9.45828 29.509 8.96094 29.2441C8.35823 28.9232 7.7797 28.5632 7.22949 28.166C6.18603 27.4126 5.24267 26.5292 4.4248 25.5381C4.04286 25.0753 3.68833 24.589 3.36328 24.082C3.16808 23.7776 2.98381 23.4655 2.81055 23.1465C2.69507 22.9339 2.58385 22.7186 2.47852 22.5C2.4259 22.3908 2.37522 22.2806 2.3252 22.1699C2.07475 21.616 1.85648 21.0444 1.67383 20.457C1.56435 20.105 1.4675 19.7474 1.38379 19.3848C1.27206 18.9008 1.18375 18.4079 1.12012 17.9072C1.07241 17.5318 1.03897 17.1521 1.01953 16.7686C1.00658 16.513 1 16.2558 1 15.9971C1 15.4792 1.02592 14.9673 1.07715 14.4629C1.10274 14.211 1.13495 13.961 1.17285 13.7129C1.24873 13.2162 1.34834 12.7274 1.47168 12.248C1.53334 12.0084 1.60077 11.771 1.67383 11.5361C1.85641 10.9491 2.07489 10.3779 2.3252 9.82422C2.47549 9.49179 2.63725 9.16567 2.81055 8.84668C3.09918 8.31538 3.41906 7.80355 3.76758 7.31348C3.83715 7.21565 3.90765 7.11853 3.97949 7.02246C4.12357 6.82979 4.27184 6.64043 4.4248 6.45508C4.50112 6.36261 4.57876 6.27125 4.65723 6.18066C4.81449 5.9991 4.97592 5.82123 5.1416 5.64746C5.55547 5.21338 5.99507 4.80394 6.45801 4.42188C6.64336 4.26891 6.83272 4.12064 7.02539 3.97656C7.12146 3.90472 7.21858 3.83422 7.31641 3.76465C7.80648 3.41613 8.31831 3.09625 8.84961 2.80762C9.1686 2.63432 9.49471 2.47256 9.82715 2.32227C10.3808 2.07196 10.952 1.85348 11.5391 1.6709C11.7739 1.59784 12.0113 1.53041 12.251 1.46875C12.7304 1.34541 13.2191 1.2458 13.7158 1.16992C13.9639 1.13202 14.2139 1.09981 14.4658 1.07422C14.9702 1.02299 15.4821 0.997071 16 0.99707ZM16 20.5C11.2401 20.5001 8.56313 23.7292 7.24414 26.2725C9.6014 28.283 12.659 29.4971 16 29.4971C19.341 29.497 22.3977 28.2821 24.7549 26.2715C23.4353 23.7285 20.7594 20.5 16 20.5ZM16 8.25C13.3766 8.25 11.25 10.3766 11.25 13C11.25 15.6234 13.3766 17.75 16 17.75C18.6234 17.75 20.75 15.6234 20.75 13C20.75 10.3766 18.6234 8.25 16 8.25Z"
    fill="currentColor"
  />
</svg>
