<svg width="20" height="20" viewBox="0 0 20 20" fill="none" xmlns="http://www.w3.org/2000/svg" data-fui-icon="true">
  <path
    d="M10.0011 10.292C13.1575 10.2921 15.572 12.1818 16.5529 14.834C16.825 15.5703 16.6387 16.2959 16.2052 16.8125C15.782 17.3167 15.1267 17.625 14.42 17.625H5.58215C4.87549 17.625 4.22023 17.3166 3.797 16.8125C3.36348 16.2958 3.17709 15.5703 3.44934 14.834C4.43027 12.1818 6.84465 10.292 10.0011 10.292ZM10.0011 1.54199C12.1411 1.54209 13.8761 3.27695 13.8761 5.41699C13.8759 7.55689 12.141 9.29189 10.0011 9.29199C7.86111 9.29199 6.12626 7.55695 6.1261 5.41699C6.1261 3.27689 7.86101 1.54199 10.0011 1.54199Z"
    fill="currentColor"
  />
</svg>
