<svg width="20" height="20" viewBox="0 0 20 20" fill="none" xmlns="http://www.w3.org/2000/svg" data-fui-icon="true">
  <g clip-path="url(#clip0_882_1411)">
    <path
      d="M9.99902 0C15.5211 0.000100312 19.998 4.47688 19.998 9.99902C19.9979 15.5211 15.5211 19.9979 9.99902 19.998C4.47692 19.998 0.000100582 15.5211 0 9.99902C0 4.47685 4.47686 4.70015e-05 9.99902 0ZM9.99902 15.5C8.22261 15.5 6.58101 16.0743 5.24902 17.0479C6.60509 17.9635 8.23969 18.498 9.99902 18.498C11.7575 18.498 13.3914 17.9637 14.7471 17.0488C13.4152 16.0754 11.7752 15.5001 9.99902 15.5ZM9.99902 1.5C5.30528 1.50005 1.5 5.30527 1.5 9.99902C1.50005 12.3789 2.47934 14.5294 4.05566 16.0723C5.68699 14.7756 7.75338 14 9.99902 14C12.2444 14.0001 14.3101 14.7759 15.9414 16.0723C17.5181 14.5294 18.498 12.3791 18.498 9.99902C18.498 5.30531 14.6927 1.5001 9.99902 1.5ZM10 4.25C12.3472 4.25 14.25 6.15279 14.25 8.5C14.25 10.8472 12.3472 12.75 10 12.75C7.65279 12.75 5.75 10.8472 5.75 8.5C5.75 6.15279 7.65279 4.25 10 4.25ZM10 5.75C8.48122 5.75 7.25 6.98122 7.25 8.5C7.25 10.0188 8.48122 11.25 10 11.25C11.5188 11.25 12.75 10.0188 12.75 8.5C12.75 6.98122 11.5188 5.75 10 5.75Z"
      fill="currentColor"
    />
  </g>
  <defs>
    <clipPath id="clip0_882_1411"><path fill="currentColor" d="M0 0H20V20H0z" /></clipPath>
  </defs>
</svg>
