<svg width="32" height="32" viewBox="0 0 32 32" fill="none" xmlns="http://www.w3.org/2000/svg" data-fui-icon="true">
  <path
    d="M16 0.5C24.5604 0.5 31.5 7.43959 31.5 16C31.5 24.5604 24.5604 31.5 16 31.5C7.43959 31.5 0.5 24.5604 0.5 16C0.5 7.43959 7.43959 0.5 16 0.5ZM16 20.5C11.2388 20.5001 8.56179 23.7308 7.24316 26.2744C9.60059 28.2856 12.6584 29.5 16 29.5C19.3416 29.5 22.3984 28.2846 24.7559 26.2734C23.4366 23.7302 20.7606 20.5 16 20.5ZM16 8.25C13.3766 8.25 11.25 10.3766 11.25 13C11.25 15.6234 13.3766 17.75 16 17.75C18.6234 17.75 20.75 15.6234 20.75 13C20.75 10.3766 18.6234 8.25 16 8.25Z"
    fill="currentColor"
  />
</svg>
