<svg width="24" height="24" viewBox="0 0 24 24" fill="none" xmlns="http://www.w3.org/2000/svg" data-fui-icon="true">
  <path
    d="M11.999 0C12.4131 0 12.8223 0.0205793 13.2256 0.0615234C13.4273 0.0820048 13.6275 0.10832 13.8262 0.138672C14.8194 0.290427 15.7725 0.563755 16.6699 0.943359C17.0287 1.09514 17.3788 1.26355 17.7188 1.44824C18.7388 2.00238 19.6692 2.70043 20.4834 3.51465C21.0263 4.05751 21.5179 4.65166 21.9492 5.29004C22.057 5.44965 22.1605 5.61239 22.2607 5.77734C22.4611 6.10711 22.646 6.44727 22.8145 6.79688C23.2358 7.67126 23.5541 8.60454 23.7539 9.58105C23.7939 9.77636 23.83 9.97324 23.8604 10.1719C23.9514 10.7676 23.998 11.3778 23.998 11.999C23.998 12.0649 23.9972 12.1307 23.9961 12.1963C23.9894 12.6133 23.9613 13.025 23.9131 13.4307C23.9037 13.5097 23.8928 13.5884 23.8818 13.667C23.8586 13.8342 23.8318 14.0002 23.8018 14.165C23.7962 14.1956 23.791 14.2263 23.7852 14.2568C23.7722 14.3251 23.7583 14.3931 23.7441 14.4609C23.7116 14.6165 23.6752 14.7706 23.6367 14.9238C23.6255 14.9685 23.6142 15.0131 23.6025 15.0576C23.5664 15.195 23.5282 15.3314 23.4873 15.4668C23.469 15.5276 23.4499 15.5881 23.4307 15.6484C23.3909 15.773 23.3494 15.8968 23.3057 16.0195C23.2124 16.2818 23.1097 16.5395 22.999 16.793C22.9698 16.8598 22.9396 16.926 22.9092 16.9922C22.7739 17.2872 22.6276 17.5758 22.4697 17.8574C22.4422 17.9065 22.414 17.9552 22.3857 18.0039C20.3101 21.5865 16.4375 23.998 11.999 23.998C7.96062 23.9979 4.39143 22.0006 2.2168 18.9424C2.20422 18.9247 2.19119 18.9074 2.17871 18.8896C2.07663 18.7444 1.97754 18.5971 1.88184 18.4473C1.8671 18.4242 1.85248 18.4011 1.83789 18.3779C1.7604 18.2548 1.68538 18.13 1.6123 18.0039C1.58407 17.9552 1.55589 17.9065 1.52832 17.8574C1.45957 17.7348 1.39363 17.6106 1.3291 17.4854C1.30261 17.434 1.27577 17.3828 1.25 17.3311C1.21386 17.2583 1.17727 17.1858 1.14258 17.1123C1.08724 16.9952 1.03404 16.8769 0.982422 16.7578C0.958168 16.7017 0.934552 16.6454 0.911133 16.5889C0.859431 16.4643 0.810276 16.3385 0.762695 16.2119C0.742702 16.1586 0.722378 16.1054 0.703125 16.0518C0.650611 15.9057 0.601625 15.758 0.554688 15.6094C0.543304 15.5733 0.531558 15.5372 0.520508 15.501C0.475361 15.3531 0.433073 15.204 0.393555 15.0537C0.382717 15.0124 0.371736 14.9711 0.361328 14.9297C0.31998 14.7653 0.281544 14.5996 0.24707 14.4326C0.23504 14.3742 0.224069 14.3155 0.212891 14.2568C0.206625 14.224 0.200333 14.1911 0.194336 14.1582C0.186191 14.1134 0.178544 14.0684 0.170898 14.0234C0.110789 13.6704 0.0655939 13.3121 0.0371094 12.9492C0.0176093 12.7003 0.00603035 12.4492 0.00195312 12.1963C0.000893297 12.1307 0 12.0649 0 11.999C0.000176538 5.37227 5.37228 0.00017689 11.999 0ZM12 17C9.25875 17 6.754 18.0052 4.82812 19.6641C6.70498 21.4207 9.22554 22.498 11.999 22.498C14.7723 22.498 17.2921 21.4203 19.1689 19.6641C17.2435 18.0058 14.7405 17 12 17ZM12 5.25C9.23858 5.25 7 7.48858 7 10.25C7 13.0114 9.23858 15.25 12 15.25C14.7614 15.25 17 13.0114 17 10.25C17 7.48858 14.7614 5.25 12 5.25Z"
    fill="currentColor"
  />
</svg>
