<svg width="32" height="32" viewBox="0 0 32 32" fill="none" xmlns="http://www.w3.org/2000/svg" data-fui-icon="true">
  <path
    d="M16 1C24.2843 1 31 7.71573 31 16C31 24.2843 24.2843 31 16 31C7.71573 31 1 24.2843 1 16C1 7.71573 7.71573 1 16 1ZM16 22C12.1868 22.0001 9.97061 24.5592 8.79883 26.8242C10.8604 28.1985 13.3365 29 16 29C18.6632 29 21.1388 28.1982 23.2002 26.8242C22.0279 24.5591 19.8127 22 16 22ZM16 3C8.8203 3 3 8.8203 3 16C3 19.7876 4.6204 23.1962 7.20508 25.5723C8.60428 23.0463 11.3154 20.0001 16 20C20.6843 20 23.3953 23.0457 24.7949 25.5713C27.3793 23.1953 29 19.7874 29 16C29 8.8203 23.1797 3 16 3ZM16 8C19.0376 8 21.5 10.4624 21.5 13.5C21.5 16.5376 19.0376 19 16 19C12.9624 19 10.5 16.5376 10.5 13.5C10.5 10.4624 12.9624 8 16 8ZM16 10C14.067 10 12.5 11.567 12.5 13.5C12.5 15.433 14.067 17 16 17C17.933 17 19.5 15.433 19.5 13.5C19.5 11.567 17.933 10 16 10Z"
    fill="currentColor"
  />
</svg>
