<svg width="20" height="20" viewBox="0 0 20 20" fill="none" xmlns="http://www.w3.org/2000/svg" data-fui-icon="true">
  <path
    d="M10.002 10.292C13.1584 10.2921 15.5728 12.1818 16.5537 14.834C16.8259 15.5703 16.6395 16.2959 16.2061 16.8125C15.7829 17.3167 15.1276 17.625 14.4209 17.625H5.58301C4.87634 17.625 4.22109 17.3166 3.79785 16.8125C3.36433 16.2958 3.17795 15.5703 3.4502 14.834C4.43112 12.1818 6.8455 10.292 10.002 10.292ZM10.002 1.54199C12.142 1.54209 13.877 3.27695 13.877 5.41699C13.8768 7.55689 12.1419 9.29189 10.002 9.29199C7.86196 9.29199 6.12712 7.55695 6.12695 5.41699C6.12695 3.27689 7.86186 1.54199 10.002 1.54199Z"
    fill="currentColor"
  />
</svg>
