<svg width="24" height="24" viewBox="0 0 24 24" fill="none" xmlns="http://www.w3.org/2000/svg" data-fui-icon="true">
  <path
    d="M12.001 12.5C12.5667 12.5 13.1147 12.552 13.6406 12.6514C14.0475 12.7284 14.3151 13.1204 14.2383 13.5273C14.1613 13.9341 13.7691 14.2017 13.3623 14.125C12.9301 14.0434 12.4753 14 12.001 14C11.9557 14 11.911 14.0002 11.8672 14.001H11.8662C11.7329 14.0033 11.601 14.0094 11.4707 14.0186C11.4433 14.0205 11.4159 14.0232 11.3887 14.0254C11.2613 14.0357 11.1352 14.0487 11.0107 14.0654C11.0017 14.0667 10.9925 14.0681 10.9834 14.0693C10.8601 14.0864 10.7383 14.1067 10.6182 14.1299C10.6033 14.1327 10.5881 14.1347 10.5732 14.1377C8.22958 14.6049 6.48408 16.2193 5.6875 18.373C5.58507 18.65 5.64479 18.9049 5.82031 19.1143C6.00622 19.3357 6.32412 19.5 6.69727 19.5H12.251C12.6652 19.5 13.001 19.8358 13.001 20.25C13.001 20.6642 12.6652 21 12.251 21H6.69727C5.89239 21 5.14931 20.6484 4.6709 20.0781C4.1822 19.4953 3.97397 18.6808 4.28027 17.8525C5.21292 15.3309 7.24277 13.3946 9.94727 12.7402C10.0152 12.7238 10.0836 12.7082 10.1523 12.6934C10.1822 12.6869 10.2122 12.6809 10.2422 12.6748C10.2976 12.6635 10.3533 12.6528 10.4092 12.6426C10.5837 12.6107 10.7609 12.5838 10.9404 12.5625C11.0043 12.5549 11.0684 12.5472 11.1328 12.541C11.1568 12.5387 11.181 12.5373 11.2051 12.5352C11.2895 12.5277 11.3746 12.5217 11.46 12.5166C11.4817 12.5153 11.5036 12.5138 11.5254 12.5127C11.6295 12.5073 11.7344 12.5028 11.8398 12.501L12.001 12.5ZM19.4707 15.4697C19.7635 15.1769 20.2383 15.177 20.5312 15.4697C20.8241 15.7626 20.8241 16.2374 20.5312 16.5303L19.0615 18L20.5312 19.4697C20.8241 19.7626 20.8241 20.2374 20.5312 20.5303C20.2383 20.823 19.7635 20.8231 19.4707 20.5303L18.001 19.0605L16.5312 20.5303C16.2383 20.823 15.7635 20.8231 15.4707 20.5303C15.178 20.2374 15.178 19.7626 15.4707 19.4697L16.9404 18L15.4707 16.5303C15.178 16.2374 15.178 15.7626 15.4707 15.4697C15.7635 15.1769 16.2383 15.177 16.5312 15.4697L18.001 16.9395L19.4707 15.4697ZM12.001 2C14.4862 2 16.501 4.01471 16.501 6.5C16.501 8.98529 14.4862 11 12.001 11C9.51584 10.9998 7.50098 8.98517 7.50098 6.5C7.50098 4.01483 9.51584 2.00019 12.001 2ZM12.001 3.5C10.3443 3.50019 9.00098 4.84326 9.00098 6.5C9.00098 8.15674 10.3443 9.49981 12.001 9.5C13.6578 9.5 15.001 8.15685 15.001 6.5C15.001 4.84315 13.6578 3.5 12.001 3.5Z"
    fill="currentColor"
  />
</svg>
