<svg width="32" height="32" viewBox="0 0 32 32" fill="none" xmlns="http://www.w3.org/2000/svg" data-fui-icon="true">
  <path
    d="M16 0.5C24.5604 0.5 31.5 7.43959 31.5 16C31.5 24.5604 24.5604 31.5 16 31.5C7.43959 31.5 0.5 24.5604 0.5 16C0.5 7.43959 7.43959 0.5 16 0.5ZM16 22C11.9303 22.0001 9.6795 24.915 8.57617 27.2764C10.7062 28.6815 13.2574 29.5 16 29.5C18.742 29.5 21.2921 28.681 23.4219 27.2764C22.3177 24.915 20.0689 22 16 22ZM16 2.5C8.54416 2.5 2.5 8.54416 2.5 16C2.5 19.9799 4.22214 23.5575 6.96191 26.0283C8.27878 23.4294 11.029 20.0001 16 20C20.9705 20 23.7196 23.4288 25.0371 26.0273C27.7769 23.5565 29.5 19.9799 29.5 16C29.5 8.54416 23.4558 2.5 16 2.5ZM16 8C19.0376 8 21.5 10.4624 21.5 13.5C21.5 16.5376 19.0376 19 16 19C12.9624 19 10.5 16.5376 10.5 13.5C10.5 10.4624 12.9624 8 16 8ZM16 10C14.067 10 12.5 11.567 12.5 13.5C12.5 15.433 14.067 17 16 17C17.933 17 19.5 15.433 19.5 13.5C19.5 11.567 17.933 10 16 10Z"
    fill="currentColor"
  />
</svg>
