<svg width="24" height="24" viewBox="0 0 24 24" fill="none" xmlns="http://www.w3.org/2000/svg" data-fui-icon="true">
  <path
    d="M12 0.5C18.3513 0.5 23.5 5.64873 23.5 12C23.5 18.3513 18.3513 23.5 12 23.5C5.64873 23.5 0.5 18.3513 0.5 12C0.5 5.64873 5.64873 0.5 12 0.5ZM12 16.75C9.40355 16.75 7.87934 18.5163 7.05859 20.1152C8.4983 20.9938 10.19 21.5 12 21.5C13.8097 21.5 15.5009 20.9935 16.9404 20.1152C16.1193 18.5162 14.5962 16.75 12 16.75ZM12 2.5C6.75329 2.5 2.5 6.75329 2.5 12C2.5 14.7086 3.63554 17.1503 5.4541 18.8809C6.49427 17.0243 8.51373 14.75 12 14.75C15.4865 14.75 17.5047 17.0253 18.5449 18.8818C20.3641 17.1512 21.5 14.7091 21.5 12C21.5 6.75329 17.2467 2.5 12 2.5ZM12 5.5C14.3472 5.5 16.25 7.40279 16.25 9.75C16.25 12.0972 14.3472 14 12 14C9.65279 14 7.75 12.0972 7.75 9.75C7.75 7.40279 9.65279 5.5 12 5.5ZM12 7.5C10.7574 7.5 9.75 8.50736 9.75 9.75C9.75 10.9926 10.7574 12 12 12C13.2426 12 14.25 10.9926 14.25 9.75C14.25 8.50736 13.2426 7.5 12 7.5Z"
    fill="currentColor"
  />
</svg>
