<svg width="12" height="12" viewBox="0 0 12 12" fill="none" xmlns="http://www.w3.org/2000/svg" data-fui-icon="true">
  <path
    d="M6 0C9.31371 0 12 2.68629 12 6C12 9.31371 9.31371 12 6 12C2.68629 12 0 9.31371 0 6C0 2.68629 2.68629 0 6 0ZM6.00098 9.5C5.56218 9.5 5.14912 9.61354 4.79004 9.8125C5.17185 9.93357 5.57812 10 6 10C6.42188 10 6.82815 9.93357 7.20996 9.8125C6.85131 9.61376 6.43934 9.50016 6.00098 9.5ZM6 2C3.79086 2 2 3.79086 2 6C2 7.01459 2.37845 7.94034 3.00098 8.64551C3.79654 7.93383 4.84812 7.5 6.00098 7.5C7.15315 7.50024 8.20293 7.93435 8.99805 8.64551C9.62083 7.94028 10 7.01483 10 6C10 3.79086 8.20914 2 6 2ZM6 2.5C7.24264 2.5 8.25 3.50736 8.25 4.75C8.25 5.99264 7.24264 7 6 7C4.75736 7 3.75 5.99264 3.75 4.75C3.75 3.50736 4.75736 2.5 6 2.5ZM6 4.5C5.86193 4.5 5.75 4.61193 5.75 4.75C5.75 4.88807 5.86193 5 6 5C6.13807 5 6.25 4.88807 6.25 4.75C6.25 4.61193 6.13807 4.5 6 4.5Z"
    fill="currentColor"
  />
</svg>
