<svg width="32" height="32" viewBox="0 0 32 32" fill="none" xmlns="http://www.w3.org/2000/svg" data-fui-icon="true">
  <path
    d="M10 17.5C12.4853 17.5 14.5 19.5147 14.5 22V26.5C14.5 28.9853 12.4853 31 10 31H5.5C3.01472 31 1 28.9853 1 26.5V22C1 19.5147 3.01472 17.5 5.5 17.5H10ZM20.6787 26.2588C21.5613 26.3483 22.25 27.0938 22.25 28V29.25L22.2412 29.4287C22.1517 30.3113 21.4062 31 20.5 31H19.25C18.2835 31 17.5 30.2165 17.5 29.25V28C17.5 27.0938 18.1887 26.3483 19.0713 26.2588L19.25 26.25H20.5L20.6787 26.2588ZM29.4287 26.2588C30.3113 26.3483 31 27.0938 31 28V29.25L30.9912 29.4287C30.9017 30.3113 30.1562 31 29.25 31H28C27.0335 31 26.25 30.2165 26.25 29.25V28C26.25 27.0938 26.9387 26.3483 27.8213 26.2588L28 26.25H29.25L29.4287 26.2588ZM5.5 19.5C4.11929 19.5 3 20.6193 3 22V26.5C3 27.8807 4.11929 29 5.5 29H10C11.3807 29 12.5 27.8807 12.5 26.5V22C12.5 20.6193 11.3807 19.5 10 19.5H5.5ZM19.875 28.25C19.6679 28.25 19.5 28.4179 19.5 28.625C19.5 28.8321 19.6679 29 19.875 29C20.0821 29 20.25 28.8321 20.25 28.625C20.25 28.4179 20.0821 28.25 19.875 28.25ZM28.625 28.25C28.4179 28.25 28.25 28.4179 28.25 28.625C28.25 28.8321 28.4179 29 28.625 29C28.8321 29 29 28.8321 29 28.625C29 28.4179 28.8321 28.25 28.625 28.25ZM25.0488 21.8789C25.9313 21.9685 26.6201 22.714 26.6201 23.6201V24.8701L26.6113 25.0488C26.5218 25.9313 25.7762 26.6201 24.8701 26.6201H23.6201C22.6537 26.6201 21.8702 25.8366 21.8701 24.8701V23.6201C21.8701 22.7139 22.5588 21.9684 23.4414 21.8789L23.6201 21.8701H24.8701L25.0488 21.8789ZM24.2451 23.8701C24.038 23.8701 23.8701 24.038 23.8701 24.2451C23.8701 24.4522 24.038 24.6201 24.2451 24.6201C24.4522 24.6201 24.6201 24.4522 24.6201 24.2451C24.6201 24.038 24.4522 23.8701 24.2451 23.8701ZM20.6787 17.5088C21.5613 17.5983 22.25 18.3438 22.25 19.25V20.5L22.2412 20.6787C22.1517 21.5613 21.4062 22.25 20.5 22.25H19.25C18.2835 22.25 17.5 21.4665 17.5 20.5V19.25C17.5 18.3438 18.1887 17.5983 19.0713 17.5088L19.25 17.5H20.5L20.6787 17.5088ZM29.4287 17.5088C30.3113 17.5983 31 18.3438 31 19.25V20.5L30.9912 20.6787C30.9017 21.5613 30.1562 22.25 29.25 22.25H28C27.0335 22.25 26.25 21.4665 26.25 20.5V19.25C26.25 18.3438 26.9387 17.5983 27.8213 17.5088L28 17.5H29.25L29.4287 17.5088ZM19.875 19.5C19.6679 19.5 19.5 19.6679 19.5 19.875C19.5 20.0821 19.6679 20.25 19.875 20.25C20.0821 20.25 20.25 20.0821 20.25 19.875C20.25 19.6679 20.0821 19.5 19.875 19.5ZM28.625 19.5C28.4179 19.5 28.25 19.6679 28.25 19.875C28.25 20.0821 28.4179 20.25 28.625 20.25C28.8321 20.25 29 20.0821 29 19.875C29 19.6679 28.8321 19.5 28.625 19.5ZM10 1C12.4853 1 14.5 3.01472 14.5 5.5V10C14.5 12.4853 12.4853 14.5 10 14.5H5.5C3.01472 14.5 1 12.4853 1 10V5.5C1 3.01472 3.01472 1 5.5 1H10ZM26.5 1C28.9853 1 31 3.01472 31 5.5V10C31 12.4853 28.9853 14.5 26.5 14.5H22C19.5147 14.5 17.5 12.4853 17.5 10V5.5C17.5 3.01472 19.5147 1 22 1H26.5ZM5.5 3C4.11929 3 3 4.11929 3 5.5V10C3 11.3807 4.11929 12.5 5.5 12.5H10C11.3807 12.5 12.5 11.3807 12.5 10V5.5C12.5 4.11929 11.3807 3 10 3H5.5ZM22 3C20.6193 3 19.5 4.11929 19.5 5.5V10C19.5 11.3807 20.6193 12.5 22 12.5H26.5C27.8807 12.5 29 11.3807 29 10V5.5C29 4.11929 27.8807 3 26.5 3H22Z"
    fill="currentColor"
  />
</svg>
