<svg width="24" height="24" viewBox="0 0 24 24" fill="none" xmlns="http://www.w3.org/2000/svg" data-fui-icon="true">
  <path
    d="M7.75 13.25C9.40685 13.25 10.75 14.5931 10.75 16.25V20C10.75 21.6569 9.40685 23 7.75 23H4C2.34315 23 1 21.6569 1 20V16.25C1 14.5931 2.34315 13.25 4 13.25H7.75ZM15 20C15.5523 20 16 20.4477 16 21V22C16 22.5523 15.5523 23 15 23H14C13.4477 23 13 22.5523 13 22V21C13 20.4477 13.4477 20 14 20H15ZM22 20C22.5523 20 23 20.4477 23 21V22C23 22.5523 22.5523 23 22 23H21C20.4477 23 20 22.5523 20 22V21C20 20.4477 20.4477 20 21 20H22ZM4 14.75C3.17157 14.75 2.5 15.4216 2.5 16.25V20C2.5 20.8284 3.17157 21.5 4 21.5H7.75C8.57843 21.5 9.25 20.8284 9.25 20V16.25C9.25 15.4216 8.57843 14.75 7.75 14.75H4ZM18.5 16.6201C19.0523 16.6201 19.5 17.0678 19.5 17.6201V18.6201C19.4999 19.1723 19.0522 19.6201 18.5 19.6201H17.5C16.9478 19.6201 16.5001 19.1723 16.5 18.6201V17.6201C16.5 17.0678 16.9477 16.6201 17.5 16.6201H18.5ZM15 13.25C15.5523 13.25 16 13.6977 16 14.25V15.25C16 15.8023 15.5523 16.25 15 16.25H14C13.4477 16.25 13 15.8023 13 15.25V14.25C13 13.6977 13.4477 13.25 14 13.25H15ZM22 13.25C22.5523 13.25 23 13.6977 23 14.25V15.25C23 15.8023 22.5523 16.25 22 16.25H21C20.4477 16.25 20 15.8023 20 15.25V14.25C20 13.6977 20.4477 13.25 21 13.25H22ZM7.75 1C9.40685 1 10.75 2.34315 10.75 4V7.75C10.75 9.40685 9.40685 10.75 7.75 10.75H4C2.34315 10.75 1 9.40685 1 7.75V4C1 2.34315 2.34315 1 4 1H7.75ZM20 1C21.6569 1 23 2.34315 23 4V7.75C23 9.40685 21.6569 10.75 20 10.75H16.25C14.5931 10.75 13.25 9.40685 13.25 7.75V4C13.25 2.34315 14.5931 1 16.25 1H20ZM4 2.5C3.17157 2.5 2.5 3.17157 2.5 4V7.75C2.5 8.57843 3.17157 9.25 4 9.25H7.75C8.57843 9.25 9.25 8.57843 9.25 7.75V4C9.25 3.17157 8.57843 2.5 7.75 2.5H4ZM16.25 2.5C15.4216 2.5 14.75 3.17157 14.75 4V7.75C14.75 8.57843 15.4216 9.25 16.25 9.25H20C20.8284 9.25 21.5 8.57843 21.5 7.75V4C21.5 3.17157 20.8284 2.5 20 2.5H16.25Z"
    fill="currentColor"
  />
</svg>
