<svg width="12" height="12" viewBox="0 0 12 12" fill="none" xmlns="http://www.w3.org/2000/svg" data-fui-icon="true">
  <path
    d="M3.5 6.5C4.60457 6.5 5.5 7.39543 5.5 8.5V10C5.5 11.1046 4.60457 12 3.5 12H2C0.89543 12 0 11.1046 0 10V8.5C0 7.39543 0.895431 6.5 2 6.5H3.5ZM8.15039 6.5C8.48145 6.50021 8.74979 6.76855 8.75 7.09961V7.83008C8.75011 7.99561 8.88427 8.12978 9.0498 8.12988H9.4502C9.61573 8.12978 9.74989 7.99561 9.75 7.83008V7.09961C9.75021 6.76855 10.0185 6.50021 10.3496 6.5H11.4004C11.7315 6.50021 11.9998 6.76855 12 7.09961V8.15039C11.9998 8.48145 11.7315 8.74979 11.4004 8.75H10.6797C10.5142 8.75011 10.38 8.88427 10.3799 9.0498V9.4502C10.38 9.61573 10.5142 9.74989 10.6797 9.75H11.4004C11.7315 9.75021 11.9998 10.0185 12 10.3496V11.4004C11.9998 11.7315 11.7315 11.9998 11.4004 12H10.3496C10.0185 11.9998 9.75021 11.7315 9.75 11.4004V10.6797C9.74989 10.5142 9.61573 10.38 9.4502 10.3799H9.0498C8.88427 10.38 8.75011 10.5142 8.75 10.6797V11.4004C8.74979 11.7315 8.48145 11.9998 8.15039 12H7.09961C6.76855 11.9998 6.50021 11.7315 6.5 11.4004V10.3496C6.50021 10.0185 6.76855 9.75021 7.09961 9.75H7.83008C7.99561 9.74989 8.12978 9.61573 8.12988 9.4502V9.0498C8.12978 8.88427 7.99561 8.75011 7.83008 8.75H7.09961C6.76855 8.74979 6.50021 8.48145 6.5 8.15039V7.09961C6.50021 6.76855 6.76855 6.50021 7.09961 6.5H8.15039ZM2 10H3.5V8.5H2V10ZM3.5 0C4.60457 0 5.5 0.895431 5.5 2V3.5C5.5 4.60457 4.60457 5.5 3.5 5.5H2C0.89543 5.5 0 4.60457 0 3.5V2C0 0.89543 0.895431 0 2 0H3.5ZM10 0C11.1046 0 12 0.895431 12 2V3.5C12 4.60457 11.1046 5.5 10 5.5H8.5C7.39543 5.5 6.5 4.60457 6.5 3.5V2C6.5 0.89543 7.39543 0 8.5 0H10ZM2 3.5H3.5V2H2V3.5ZM8.5 3.5H10V2H8.5V3.5Z"
    fill="currentColor"
  />
</svg>
