<svg width="32" height="32" viewBox="0 0 32 32" fill="none" xmlns="http://www.w3.org/2000/svg" data-fui-icon="true">
  <path
    d="M10.25 17.5C12.5972 17.5 14.5 19.4028 14.5 21.75V26.75C14.5 29.0972 12.5972 31 10.25 31H5.25C2.90279 31 1 29.0972 1 26.75V21.75C1 19.4028 2.90279 17.5 5.25 17.5H10.25ZM20.4287 26.5088C21.3113 26.5983 22 27.3438 22 28.25V29.25L21.9912 29.4287C21.9077 30.2525 21.2525 30.9077 20.4287 30.9912L20.25 31H19.25C18.3438 31 17.5983 30.3113 17.5088 29.4287L17.5 29.25V28.25C17.5 27.2835 18.2835 26.5 19.25 26.5H20.25L20.4287 26.5088ZM29.4287 26.5088C30.3113 26.5983 31 27.3438 31 28.25V29.25L30.9912 29.4287C30.9077 30.2525 30.2525 30.9077 29.4287 30.9912L29.25 31H28.25C27.3438 31 26.5983 30.3113 26.5088 29.4287L26.5 29.25V28.25C26.5 27.2835 27.2835 26.5 28.25 26.5H29.25L29.4287 26.5088ZM5.25 19C3.73122 19 2.5 20.2312 2.5 21.75V26.75C2.5 28.2688 3.73122 29.5 5.25 29.5H10.25C11.7688 29.5 13 28.2688 13 26.75V21.75C13 20.2312 11.7688 19 10.25 19H5.25ZM19.25 28C19.1119 28 19 28.1119 19 28.25V29.25C19 29.3881 19.1119 29.5 19.25 29.5H20.25C20.3881 29.5 20.5 29.3881 20.5 29.25V28.25C20.5 28.1119 20.3881 28 20.25 28H19.25ZM28.25 28C28.1119 28 28 28.1119 28 28.25V29.25C28 29.3881 28.1119 29.5 28.25 29.5H29.25C29.3881 29.5 29.5 29.3881 29.5 29.25V28.25C29.5 28.1119 29.3881 28 29.25 28H28.25ZM24.9287 22.0088C25.8113 22.0983 26.5 22.8438 26.5 23.75V24.75L26.4912 24.9287C26.4077 25.7525 25.7525 26.4077 24.9287 26.4912L24.75 26.5H23.75C22.8438 26.5 22.0983 25.8113 22.0088 24.9287L22 24.75V23.75C22 22.7835 22.7835 22 23.75 22H24.75L24.9287 22.0088ZM23.75 23.5C23.6119 23.5 23.5 23.6119 23.5 23.75V24.75C23.5 24.8881 23.6119 25 23.75 25H24.75C24.8881 25 25 24.8881 25 24.75V23.75C25 23.6119 24.8881 23.5 24.75 23.5H23.75ZM20.4287 17.5088C21.3113 17.5983 22 18.3438 22 19.25V20.25L21.9912 20.4287C21.9077 21.2525 21.2525 21.9077 20.4287 21.9912L20.25 22H19.25C18.3438 22 17.5983 21.3113 17.5088 20.4287L17.5 20.25V19.25C17.5 18.2835 18.2835 17.5 19.25 17.5H20.25L20.4287 17.5088ZM29.4287 17.5088C30.3113 17.5983 31 18.3438 31 19.25V20.25L30.9912 20.4287C30.9077 21.2525 30.2525 21.9077 29.4287 21.9912L29.25 22H28.25C27.3438 22 26.5983 21.3113 26.5088 20.4287L26.5 20.25V19.25C26.5 18.2835 27.2835 17.5 28.25 17.5H29.25L29.4287 17.5088ZM19.25 19C19.1119 19 19 19.1119 19 19.25V20.25C19 20.3881 19.1119 20.5 19.25 20.5H20.25C20.3881 20.5 20.5 20.3881 20.5 20.25V19.25C20.5 19.1119 20.3881 19 20.25 19H19.25ZM28.25 19C28.1119 19 28 19.1119 28 19.25V20.25C28 20.3881 28.1119 20.5 28.25 20.5H29.25C29.3881 20.5 29.5 20.3881 29.5 20.25V19.25C29.5 19.1119 29.3881 19 29.25 19H28.25ZM10.25 1C12.5972 1 14.5 2.90279 14.5 5.25V10.25C14.5 12.5972 12.5972 14.5 10.25 14.5H5.25C2.90279 14.5 1 12.5972 1 10.25V5.25C1 2.90279 2.90279 1 5.25 1H10.25ZM26.75 1C29.0972 1 31 2.90279 31 5.25V10.25C31 12.5972 29.0972 14.5 26.75 14.5H21.75C19.4028 14.5 17.5 12.5972 17.5 10.25V5.25C17.5 2.90279 19.4028 1 21.75 1H26.75ZM5.25 2.5C3.73122 2.5 2.5 3.73122 2.5 5.25V10.25C2.5 11.7688 3.73122 13 5.25 13H10.25C11.7688 13 13 11.7688 13 10.25V5.25C13 3.73122 11.7688 2.5 10.25 2.5H5.25ZM21.75 2.5C20.2312 2.5 19 3.73122 19 5.25V10.25C19 11.7688 20.2312 13 21.75 13H26.75C28.2688 13 29.5 11.7688 29.5 10.25V5.25C29.5 3.73122 28.2688 2.5 26.75 2.5H21.75Z"
    fill="currentColor"
  />
</svg>
