<svg width="16" height="16" viewBox="0 0 16 16" fill="none" xmlns="http://www.w3.org/2000/svg" data-fui-icon="true">
  <path
    d="M5.25 8.5C6.49264 8.5 7.5 9.50736 7.5 10.75V12.75C7.5 13.9926 6.49264 15 5.25 15H3.25C2.00736 15 1 13.9926 1 12.75V10.75C1 9.50736 2.00736 8.5 3.25 8.5H5.25ZM10 12.75C10.4142 12.75 10.75 13.0858 10.75 13.5V14.25C10.75 14.6642 10.4142 15 10 15H9.25C8.83579 15 8.5 14.6642 8.5 14.25V13.5C8.5 13.0858 8.83579 12.75 9.25 12.75H10ZM14.25 12.75C14.6642 12.75 15 13.0858 15 13.5V14.25C15 14.6642 14.6642 15 14.25 15H13.5C13.0858 15 12.75 14.6642 12.75 14.25V13.5C12.75 13.0858 13.0858 12.75 13.5 12.75H14.25ZM3.25 10C2.83579 10 2.5 10.3358 2.5 10.75V12.75C2.5 13.1642 2.83579 13.5 3.25 13.5H5.25C5.66421 13.5 6 13.1642 6 12.75V10.75C6 10.3358 5.66421 10 5.25 10H3.25ZM12.1299 10.6299C12.5441 10.6299 12.8798 10.9657 12.8799 11.3799V12.1299C12.8799 12.5441 12.5441 12.8799 12.1299 12.8799H11.3799C10.9657 12.8798 10.6299 12.5441 10.6299 12.1299V11.3799C10.6299 10.9658 10.9658 10.6299 11.3799 10.6299H12.1299ZM10 8.5C10.4142 8.5 10.75 8.83579 10.75 9.25V10C10.75 10.4142 10.4142 10.75 10 10.75H9.25C8.83579 10.75 8.5 10.4142 8.5 10V9.25C8.5 8.83579 8.83579 8.5 9.25 8.5H10ZM14.25 8.5C14.6642 8.5 15 8.83579 15 9.25V10C15 10.4142 14.6642 10.75 14.25 10.75H13.5C13.0858 10.75 12.75 10.4142 12.75 10V9.25C12.75 8.83579 13.0858 8.5 13.5 8.5H14.25ZM5.25 1C6.49264 1 7.5 2.00736 7.5 3.25V5.25C7.5 6.49264 6.49264 7.5 5.25 7.5H3.25C2.00736 7.5 1 6.49264 1 5.25V3.25C1 2.00736 2.00736 1 3.25 1H5.25ZM12.75 1C13.9926 1 15 2.00736 15 3.25V5.25C15 6.49264 13.9926 7.5 12.75 7.5H10.75C9.50736 7.5 8.5 6.49264 8.5 5.25V3.25C8.5 2.00736 9.50736 1 10.75 1H12.75ZM3.25 2.5C2.83579 2.5 2.5 2.83579 2.5 3.25V5.25C2.5 5.66421 2.83579 6 3.25 6H5.25C5.66421 6 6 5.66421 6 5.25V3.25C6 2.83579 5.66421 2.5 5.25 2.5H3.25ZM10.75 2.5C10.3358 2.5 10 2.83579 10 3.25V5.25C10 5.66421 10.3358 6 10.75 6H12.75C13.1642 6 13.5 5.66421 13.5 5.25V3.25C13.5 2.83579 13.1642 2.5 12.75 2.5H10.75Z"
    fill="currentColor"
  />
</svg>
