<svg width="20" height="20" viewBox="0 0 20 20" fill="none" xmlns="http://www.w3.org/2000/svg" data-fui-icon="true">
  <path
    d="M6.5 11C7.88071 11 9 12.1193 9 13.5V16.5C9 17.8807 7.88071 19 6.5 19H3.5C2.11929 19 1 17.8807 1 16.5V13.5C1 12.1193 2.11929 11 3.5 11H6.5ZM12.75 16.5C13.1642 16.5 13.5 16.8358 13.5 17.25V18.25C13.5 18.6642 13.1642 19 12.75 19H11.75C11.3358 19 11 18.6642 11 18.25V17.25C11 16.8358 11.3358 16.5 11.75 16.5H12.75ZM18.25 16.5C18.6642 16.5 19 16.8358 19 17.25V18.25C19 18.6642 18.6642 19 18.25 19H17.25C16.8358 19 16.5 18.6642 16.5 18.25V17.25C16.5 16.8358 16.8358 16.5 17.25 16.5H18.25ZM3.5 12.5C2.94772 12.5 2.5 12.9477 2.5 13.5V16.5C2.5 17.0523 2.94772 17.5 3.5 17.5H6.5C7.05228 17.5 7.5 17.0523 7.5 16.5V13.5C7.5 12.9477 7.05228 12.5 6.5 12.5H3.5ZM15.5 13.75C15.9142 13.75 16.25 14.0858 16.25 14.5V15.5C16.25 15.9142 15.9142 16.25 15.5 16.25H14.5C14.0858 16.25 13.75 15.9142 13.75 15.5V14.5C13.75 14.0858 14.0858 13.75 14.5 13.75H15.5ZM12.75 11C13.1642 11 13.5 11.3358 13.5 11.75V12.75C13.5 13.1642 13.1642 13.5 12.75 13.5H11.75C11.3358 13.5 11 13.1642 11 12.75V11.75C11 11.3358 11.3358 11 11.75 11H12.75ZM18.25 11C18.6642 11 19 11.3358 19 11.75V12.75C19 13.1642 18.6642 13.5 18.25 13.5H17.25C16.8358 13.5 16.5 13.1642 16.5 12.75V11.75C16.5 11.3358 16.8358 11 17.25 11H18.25ZM6.5 1C7.88066 1.00004 8.99998 2.11933 9 3.5V6.5C9 7.88068 7.88067 8.99996 6.5 9H3.5C2.11929 9 1 7.88071 1 6.5V3.5C1.00002 2.11931 2.1193 1 3.5 1H6.5ZM16.5 1C17.8807 1 19 2.11929 19 3.5V6.5C19 7.88071 17.8807 9 16.5 9H13.5C12.1193 9 11 7.88071 11 6.5V3.5C11 2.11929 12.1193 1 13.5 1H16.5ZM3.5 2.5C2.94773 2.5 2.50002 2.94773 2.5 3.5V6.5C2.5 7.05228 2.94772 7.5 3.5 7.5H6.5C7.05225 7.49996 7.5 7.05226 7.5 6.5V3.5C7.49998 2.94776 7.05223 2.50004 6.5 2.5H3.5ZM13.5 2.5C12.9477 2.5 12.5 2.94772 12.5 3.5V6.5C12.5 7.05228 12.9477 7.5 13.5 7.5H16.5C17.0523 7.5 17.5 7.05228 17.5 6.5V3.5C17.5 2.94772 17.0523 2.5 16.5 2.5H13.5Z"
    fill="currentColor"
  />
</svg>
