<svg width="12" height="12" viewBox="0 0 12 12" fill="none" xmlns="http://www.w3.org/2000/svg" data-fui-icon="true">
  <path
    d="M3.75 6.5C4.7165 6.5 5.5 7.2835 5.5 8.25V10.25C5.5 11.2165 4.7165 12 3.75 12H1.75C0.783502 12 0 11.2165 0 10.25V8.25C0 7.2835 0.783502 6.5 1.75 6.5H3.75ZM7.90039 10C8.23145 10.0002 8.49979 10.2685 8.5 10.5996V11.4004C8.49979 11.7315 8.23145 11.9998 7.90039 12H7.09961C6.76855 11.9998 6.50021 11.7315 6.5 11.4004V10.5996C6.50021 10.2685 6.76855 10.0002 7.09961 10H7.90039ZM11.4004 10C11.7315 10.0002 11.9998 10.2685 12 10.5996V11.4004C11.9998 11.7315 11.7315 11.9998 11.4004 12H10.5996C10.2685 11.9998 10.0002 11.7315 10 11.4004V10.5996C10.0002 10.2685 10.2685 10.0002 10.5996 10H11.4004ZM1.75 8C1.61193 8 1.5 8.11193 1.5 8.25V10.25C1.5 10.3881 1.61193 10.5 1.75 10.5H3.75C3.88807 10.5 4 10.3881 4 10.25V8.25C4 8.11193 3.88807 8 3.75 8H1.75ZM9.65039 8.25C9.98145 8.25021 10.2498 8.51855 10.25 8.84961V9.65039C10.2498 9.98145 9.98145 10.2498 9.65039 10.25H8.84961C8.51855 10.2498 8.25021 9.98145 8.25 9.65039V8.84961C8.25021 8.51855 8.51855 8.25021 8.84961 8.25H9.65039ZM7.90039 6.5C8.23145 6.50021 8.49979 6.76855 8.5 7.09961V7.90039C8.49979 8.23145 8.23145 8.49979 7.90039 8.5H7.09961C6.76855 8.49979 6.50021 8.23145 6.5 7.90039V7.09961C6.50021 6.76855 6.76855 6.50021 7.09961 6.5H7.90039ZM11.4004 6.5C11.7315 6.50021 11.9998 6.76855 12 7.09961V7.90039C11.9998 8.23145 11.7315 8.49979 11.4004 8.5H10.5996C10.2685 8.49979 10.0002 8.23145 10 7.90039V7.09961C10.0002 6.76855 10.2685 6.50021 10.5996 6.5H11.4004ZM3.75 0C4.7165 0 5.5 0.783502 5.5 1.75V3.75C5.5 4.7165 4.7165 5.5 3.75 5.5H1.75C0.783502 5.5 0 4.7165 0 3.75V1.75C0 0.783502 0.783502 0 1.75 0H3.75ZM10.25 0C11.2165 0 12 0.783502 12 1.75V3.75C12 4.7165 11.2165 5.5 10.25 5.5H8.25C7.2835 5.5 6.5 4.7165 6.5 3.75V1.75C6.5 0.783502 7.2835 0 8.25 0H10.25ZM1.75 1.5C1.61193 1.5 1.5 1.61193 1.5 1.75V3.75C1.5 3.88807 1.61193 4 1.75 4H3.75C3.88807 4 4 3.88807 4 3.75V1.75C4 1.61193 3.88807 1.5 3.75 1.5H1.75ZM8.25 1.5C8.11193 1.5 8 1.61193 8 1.75V3.75C8 3.88807 8.11193 4 8.25 4H10.25C10.3881 4 10.5 3.88807 10.5 3.75V1.75C10.5 1.61193 10.3881 1.5 10.25 1.5H8.25Z"
    fill="currentColor"
  />
</svg>
