<svg width="20" height="20" viewBox="0 0 20 20" fill="none" xmlns="http://www.w3.org/2000/svg" data-fui-icon="true">
  <path
    d="M10 1C14.9706 1 19 5.02944 19 10C19 14.9706 14.9706 19 10 19C5.02944 19 1 14.9706 1 10C1 5.02944 5.02944 1 10 1ZM10 3C6.13401 3 3 6.13401 3 10C3 13.866 6.13401 17 10 17C13.866 17 17 13.866 17 10C17 6.13401 13.866 3 10 3ZM10 13.501C10.6904 13.501 11.25 14.0606 11.25 14.751C11.2495 15.4409 10.69 16.001 10 16.001C9.31008 16.0008 8.75053 15.4408 8.75 14.751C8.75 14.0607 9.30976 13.5011 10 13.501ZM10 4C11.2709 4.00015 12.2981 4.4873 12.9971 5.27344C13.6795 6.04122 13.9999 7.03707 14 8C13.9998 9.56888 13.1287 11.2609 11.2754 11.8193C11.1631 11.8532 11.0767 11.9119 11.0303 11.9619C11.0105 11.9834 11.0025 11.9977 11 12.0039L10.9951 12.1016C10.944 12.6057 10.5176 12.9997 10 13C9.44814 12.9999 9.00044 12.5519 9 12C9.00005 10.8431 9.92861 10.1363 10.6982 9.9043C11.5284 9.65407 11.9998 8.88792 12 8C11.9999 7.46348 11.8192 6.95849 11.502 6.60156C11.2009 6.26325 10.7277 6.00014 10 6C9.27199 6.00006 8.79798 6.26322 8.49707 6.60156C8.18009 6.95842 8.0001 7.46344 8 8V8.24707C7.99974 8.79904 7.55199 9.24692 7 9.24707C6.44799 9.24694 6.00026 8.79905 6 8.24707V8C6.0001 7.03724 6.32065 6.04128 7.00293 5.27344C7.70187 4.48732 8.7291 4.00006 10 4Z"
    fill="currentColor"
  />
</svg>
