<svg width="20" height="20" viewBox="0 0 20 20" fill="none" xmlns="http://www.w3.org/2000/svg" data-fui-icon="true">
  <path
    d="M10 1C14.9704 1 18.9998 5.02961 19 10C19 14.9706 14.9706 19 10 19C5.02944 19 1 14.9706 1 10C1.0002 5.02961 5.02956 1 10 1ZM10 13.501C9.17157 13.501 8.5 14.1725 8.5 15.001C8.50053 15.829 9.1719 16.501 10 16.501C10.8281 16.501 11.4995 15.829 11.5 15.001C11.5 14.1725 10.8284 13.501 10 13.501ZM10 3.5C8.59325 3.5 7.4274 4.04325 6.62891 4.94141C5.85533 5.812 5.5001 6.93072 5.5 8V8.24707C5.50026 9.07527 6.17174 9.74707 7 9.74707C7.82814 9.74692 8.49974 9.07518 8.5 8.24707V8C8.5001 7.56994 8.64536 7.18772 8.87109 6.93359C9.07257 6.70722 9.4078 6.5 10 6.5C10.5923 6.50014 10.9274 6.70794 11.1289 6.93457C11.3546 7.18879 11.4999 7.57036 11.5 8C11.4998 8.74007 11.1156 9.30134 10.4355 9.45508L10.2959 9.48047C9.41096 9.60137 8.49952 10.3489 8.5 11.501C8.5008 12.3292 9.17272 13.0005 10.001 13C10.5135 12.9996 10.9651 12.7411 11.2354 12.3486C13.4395 11.7918 14.4998 9.80878 14.5 8C14.4999 6.93041 14.1449 5.81096 13.3711 4.94043C12.5726 4.0424 11.4066 3.50015 10 3.5ZM11.4951 11.6084C11.4948 11.6101 11.4935 11.6126 11.4932 11.6143C11.496 11.5765 11.5 11.5375 11.5 11.499L11.4951 11.6084Z"
    fill="currentColor"
  />
</svg>
