<svg width="32" height="32" viewBox="0 0 32 32" fill="none" xmlns="http://www.w3.org/2000/svg" data-fui-icon="true">
  <path
    d="M15.999 1C24.2827 1 30.9987 7.71537 30.999 15.999C30.999 24.2829 24.2829 30.999 15.999 30.999C7.71537 30.9987 1 24.2827 1 15.999C1.00028 7.71554 7.71554 1.00028 15.999 1ZM16 23C15.0337 23.0002 14.25 23.7836 14.25 24.75C14.25 25.7164 15.0337 26.4998 16 26.5C16.9665 26.5 17.75 25.7165 17.75 24.75C17.75 23.7835 16.9665 23 16 23ZM15.999 6C12.0218 6.00044 9 9.07338 9 13V13.5C9 14.3283 9.67174 14.9998 10.5 15C11.3284 15 12 14.3284 12 13.5V13C12 10.7166 13.6923 9.00042 15.999 9C18.3065 9 20 10.7166 20 13C20 14.9864 18.7248 16.5164 16.9258 16.9033C15.756 17.1551 14.5 18.1701 14.5 19.75V20C14.5 20.8283 15.1717 21.4998 16 21.5C16.8284 21.5 17.5 20.8284 17.5 20V19.8574C17.5172 19.8488 17.5367 19.8413 17.5566 19.8369C20.7625 19.1475 23 16.3749 23 13C23 9.07275 19.9763 6 15.999 6Z"
    fill="currentColor"
  />
</svg>
