<svg width="12" height="12" viewBox="0 0 12 12" fill="none" xmlns="http://www.w3.org/2000/svg" data-fui-icon="true">
  <path
    d="M6 0C9.31371 0 12 2.68629 12 6C12 9.31371 9.31371 12 6 12C2.68629 12 0 9.31371 0 6C0 2.68629 2.68629 0 6 0ZM6 8C5.58579 8 5.25 8.33579 5.25 8.75C5.25 9.16421 5.58579 9.5 6 9.5C6.41421 9.5 6.75 9.16421 6.75 8.75C6.75 8.33579 6.41421 8 6 8ZM6 2.5C4.47589 2.5 3.5 3.67712 3.5 4.9834V5.11523C3.50004 5.52941 3.83581 5.86523 4.25 5.86523C4.66419 5.86523 4.99996 5.52941 5 5.11523V4.9834C5 4.43767 5.3706 4 6 4C6.62949 4.00008 7 4.43792 7 4.9834C6.99997 5.38819 6.71943 5.75775 6.28809 5.875L6.2002 5.89453C5.74523 5.97799 5.24988 6.37249 5.25 7C5.25021 7.41409 5.58596 7.75 6 7.75C6.29739 7.74985 6.55169 7.57521 6.67285 7.32422C7.71887 7.04255 8.49997 6.11411 8.5 4.9834C8.5 3.67697 7.52382 2.50009 6 2.5Z"
    fill="currentColor"
  />
</svg>
