<svg width="20" height="20" viewBox="0 0 20 20" fill="none" xmlns="http://www.w3.org/2000/svg" data-fui-icon="true">
  <path
    d="M10 0.5C15.2467 0.5 19.5 4.75329 19.5 10C19.5 15.2467 15.2467 19.5 10 19.5C4.75329 19.5 0.5 15.2467 0.5 10C0.5 4.75329 4.75329 0.5 10 0.5ZM10 13.001C9.44772 13.001 9 13.4487 9 14.001C9.00053 14.5528 9.44804 15.001 10 15.001C10.552 15.001 10.9995 14.5528 11 14.001C11 13.4487 10.5523 13.001 10 13.001ZM10 5C8.02665 5 6.75019 6.60908 6.75 8.35059C6.75053 8.76435 7.08611 9.10059 7.5 9.10059C7.91389 9.10059 8.24947 8.76435 8.25 8.35059C8.25018 7.31442 8.97305 6.50098 10 6.50098C11.0202 6.50114 11.7498 7.34626 11.75 8.35059C11.7497 8.93292 11.4569 9.35698 10.9277 9.58105C10.1979 9.89017 9.25027 10.6014 9.25 11.751C9.25053 12.1647 9.58617 12.5009 10 12.501C10.4137 12.5008 10.7494 12.1646 10.75 11.751C10.7502 11.5204 10.9718 11.1921 11.5127 10.9629C12.5774 10.5121 13.2496 9.55599 13.25 8.35059C13.2498 6.6554 11.9798 5.00016 10 5Z"
    fill="currentColor"
  />
</svg>
