<svg width="24" height="24" viewBox="0 0 24 24" fill="none" xmlns="http://www.w3.org/2000/svg" data-fui-icon="true">
  <path
    d="M12 1C18.0751 1 23 5.92487 23 12C23 18.0751 18.0751 23 12 23C5.92487 23 1 18.0751 1 12C1 5.92487 5.92487 1 12 1ZM12 3C7.02944 3 3 7.02944 3 12C3 16.9706 7.02944 21 12 21C16.9706 21 21 16.9706 21 12C21 7.02944 16.9706 3 12 3ZM12 17C12.5523 17 13 17.4477 13 18C13 18.5523 12.5523 19 12 19C11.4477 19 11 18.5523 11 18C11 17.4477 11.4477 17 12 17ZM12 4.75C14.7183 4.75 16.9998 6.86738 17 9.57324C17 11.7499 15.5158 13.5533 13.5273 14.168C13.3496 14.2229 13.2007 14.3198 13.1074 14.4219C13.0195 14.5182 13 14.594 13 14.6475V15C13 15.5523 12.5523 16 12 16C11.4477 16 11 15.5523 11 15V14.6475C11 13.3579 12.035 12.5355 12.9365 12.2568C14.1607 11.8784 15 10.7982 15 9.57324C14.9998 8.05601 13.6997 6.75 12 6.75C10.3003 6.75 9.00016 8.05601 9 9.57324V9.86719C9 10.4195 8.55228 10.8672 8 10.8672C7.44772 10.8672 7 10.4195 7 9.86719V9.57324C7.00016 6.86738 9.28167 4.75 12 4.75Z"
    fill="currentColor"
  />
</svg>
