<svg width="16" height="16" viewBox="0 0 16 16" fill="none" xmlns="http://www.w3.org/2000/svg" data-fui-icon="true">
  <path
    fill-rule="evenodd"
    clip-rule="evenodd"
    d="M8 1C11.866 1 15 4.13401 15 8C14.9999 11.8659 11.8659 15 8 15C4.13409 15 1.00013 11.8659 1 8C1 4.13401 4.13401 1 8 1ZM8 2.5C4.96243 2.5 2.5 4.96243 2.5 8C2.50013 11.0375 4.96252 13.5 8 13.5C11.0375 13.5 13.4999 11.0375 13.5 8C13.5 4.96243 11.0376 2.5 8 2.5ZM7.99512 11.251C8.47825 11.2511 8.87012 11.6428 8.87012 12.126C8.86959 12.6087 8.47793 13.0008 7.99512 13.001C7.51225 13.0009 7.12064 12.6087 7.12012 12.126C7.12012 11.6428 7.51192 11.251 7.99512 11.251ZM7.99707 3.00098C9.98859 3.00106 11.5 4.66684 11.5 6.43066C11.4994 7.9896 10.2556 9.18767 8.87793 9.53711C8.82142 9.55149 8.77716 9.58052 8.75488 9.60449C8.75095 9.60878 8.74771 9.61289 8.74609 9.61523C8.738 10.0224 8.40614 10.3505 7.99707 10.3506C7.58333 10.3504 7.24757 10.0143 7.24707 9.60059C7.24728 8.76761 7.90993 8.23502 8.50879 8.08301C9.39469 7.85836 9.99933 7.13929 10 6.43066C10 5.47385 9.13891 4.50106 7.99707 4.50098C6.85726 4.50118 6 5.47196 6 6.43066V6.62402C5.9995 7.03776 5.66384 7.37394 5.25 7.37402C4.83615 7.37396 4.5005 7.03777 4.5 6.62402V6.43066C4.5 4.66886 6.00373 3.00117 7.99707 3.00098Z"
    fill="currentColor"
  />
</svg>
