<svg width="20" height="20" viewBox="0 0 20 20" fill="none" xmlns="http://www.w3.org/2000/svg" data-fui-icon="true">
  <path
    d="M10 0.5C15.2467 0.5 19.5 4.75329 19.5 10C19.5 15.2467 15.2467 19.5 10 19.5C4.75329 19.5 0.5 15.2467 0.5 10C0.5 4.75329 4.75329 0.5 10 0.5ZM10 13C9.30964 13 8.75 13.5596 8.75 14.25C8.75 14.9404 9.30964 15.5 10 15.5C10.6904 15.5 11.25 14.9404 11.25 14.25C11.25 13.5596 10.6904 13 10 13ZM10 4.625C7.79005 4.625 6.37519 6.43177 6.375 8.34961C6.375 8.97093 6.87868 9.47461 7.5 9.47461C8.12132 9.47461 8.625 8.97093 8.625 8.34961C8.62518 7.48978 9.20964 6.875 10 6.875C10.7803 6.87516 11.3748 7.51801 11.375 8.34961C11.375 8.76385 11.1827 9.09322 10.7168 9.26172L10.501 9.32324C9.73827 9.4928 8.87542 10.1637 8.875 11.25C8.875 11.871 9.37796 12.3746 9.99902 12.375C10.5379 12.3752 10.9875 11.9962 11.0977 11.4902C12.5714 11.1188 13.625 9.95754 13.625 8.34961C13.6248 6.48171 12.2197 4.62516 10 4.625Z"
    fill="currentColor"
  />
</svg>
