<svg width="12" height="12" viewBox="0 0 12 12" fill="none" xmlns="http://www.w3.org/2000/svg" data-fui-icon="true">
  <path
    d="M6 0C9.31371 0 12 2.68629 12 6C12 9.31371 9.31371 12 6 12C2.68629 12 0 9.31371 0 6C0 2.68629 2.68629 0 6 0ZM6 1.5C3.51472 1.5 1.5 3.51472 1.5 6C1.5 8.48528 3.51472 10.5 6 10.5C8.48528 10.5 10.5 8.48528 10.5 6C10.5 3.51472 8.48528 1.5 6 1.5ZM6 8C6.55228 8 7 8.44771 7 9C7 9.55228 6.55228 10 6 10C5.44772 10 5 9.55228 5 9C5 8.44771 5.44772 8 6 8ZM6.72754 2.25C7.85325 2.25015 8.74999 3.17592 8.75 4.28418C8.75 5.37998 7.86329 6.2959 6.75 6.2959V7C6.75 7.41421 6.41421 7.75 6 7.75C5.58579 7.75 5.25 7.41421 5.25 7V6.2959C5.25 5.46747 5.92157 4.7959 6.75 4.7959C7.01742 4.7959 7.25 4.56909 7.25 4.28418C7.24999 3.98681 7.0074 3.75015 6.72754 3.75H5.09082C4.90261 3.75005 4.75005 3.90261 4.75 4.09082C4.75 4.50503 4.41421 4.84082 4 4.84082C3.58579 4.84082 3.25 4.50503 3.25 4.09082C3.25005 3.07419 4.07418 2.25005 5.09082 2.25H6.72754Z"
    fill="currentColor"
  />
</svg>
