<svg width="20" height="20" viewBox="0 0 20 20" fill="none" xmlns="http://www.w3.org/2000/svg" data-fui-icon="true">
  <path
    fill-rule="evenodd"
    clip-rule="evenodd"
    d="M10 1C14.9704 1 18.9998 5.02961 19 10C19 14.9706 14.9706 19 10 19C5.02944 19 1 14.9706 1 10C1.0002 5.02961 5.02956 1 10 1ZM10 2.5C5.85799 2.5 2.5002 5.85803 2.5 10C2.5 14.1421 5.85786 17.5 10 17.5C14.1421 17.5 17.5 14.1421 17.5 10C17.4998 5.85803 14.142 2.5 10 2.5ZM10 14.001C10.5522 14.0011 11 14.4488 11 15.001C10.9995 15.5527 10.5518 16.0008 10 16.001C9.44815 16.0008 9.00053 15.5527 9 15.001C9 14.4488 9.44783 14.0011 10 14.001ZM10 4C12.4529 4.0003 13.9998 5.89055 14 8C13.9998 9.71111 12.882 11.1559 11.3223 11.6836C10.9083 11.8237 10.7503 12.0927 10.75 12.25C10.7497 12.6638 10.4138 12.9997 10 13C9.58606 12.9999 9.25026 12.6639 9.25 12.25C9.25025 11.1918 10.1047 10.5121 10.8418 10.2627C11.8261 9.92958 12.4998 9.03273 12.5 8C12.4998 6.63767 11.5454 5.50029 10 5.5C8.45457 5.50012 7.50022 6.63736 7.5 8V8.24707C7.49974 8.66097 7.16392 8.99692 6.75 8.99707C6.33606 8.99694 6.00026 8.66098 6 8.24707V8C6.00023 5.89066 7.5467 4.00013 10 4Z"
    fill="currentColor"
  />
</svg>
