<svg width="24" height="24" viewBox="0 0 24 24" fill="none" xmlns="http://www.w3.org/2000/svg" data-fui-icon="true">
  <path
    d="M12 0.5C18.3513 0.5 23.5 5.64873 23.5 12C23.5 18.3513 18.3513 23.5 12 23.5C5.64873 23.5 0.5 18.3513 0.5 12C0.5 5.64873 5.64873 0.5 12 0.5ZM12 2C6.47715 2 2 6.47715 2 12C2 17.5228 6.47715 22 12 22C17.5228 22 22 17.5228 22 12C22 6.47715 17.5228 2 12 2ZM12 16.001C12.5523 16.001 13 16.4487 13 17.001C12.9997 17.553 12.5521 18.001 12 18.001C11.4479 18.001 11.0003 17.553 11 17.001C11 16.4487 11.4477 16.001 12 16.001ZM12 6.25C14.2609 6.25019 15.7499 8.0923 15.75 10.0332C15.75 11.5167 14.8342 12.6296 13.4619 13.0732C12.9684 13.2328 12.7501 13.5581 12.75 13.792V14C12.7499 14.4142 12.4132 14.7501 11.999 14.75C11.5851 14.7497 11.25 14.414 11.25 14V13.791C11.2504 12.6445 12.181 11.9116 13.001 11.6465C13.8184 11.3821 14.25 10.8008 14.25 10.0332C14.2499 8.82441 13.3393 7.75019 12 7.75C10.6538 7.75 9.75006 8.78597 9.75 10.0332C9.75 10.4474 9.41421 10.7832 9 10.7832C8.58579 10.7832 8.25 10.4474 8.25 10.0332C8.25006 8.03954 9.74564 6.25 12 6.25Z"
    fill="currentColor"
  />
</svg>
