<svg width="24" height="24" viewBox="0 0 24 24" fill="none" xmlns="http://www.w3.org/2000/svg" data-fui-icon="true">
  <path
    d="M12 0.5C18.3513 0.5 23.5 5.64873 23.5 12C23.5 18.3513 18.3513 23.5 12 23.5C5.64873 23.5 0.5 18.3513 0.5 12C0.5 5.64873 5.64873 0.5 12 0.5ZM12 16.001C11.4477 16.001 11 16.4487 11 17.001C11.0003 17.553 11.4479 18.001 12 18.001C12.5521 18.001 12.9997 17.553 13 17.001C13 16.4487 12.5523 16.001 12 16.001ZM12 6.25C9.74564 6.25 8.25006 8.03954 8.25 10.0332C8.25 10.4474 8.58579 10.7832 9 10.7832C9.41421 10.7832 9.75 10.4474 9.75 10.0332C9.75006 8.78597 10.6538 7.75 12 7.75C13.3393 7.75019 14.2499 8.82441 14.25 10.0332C14.25 10.8008 13.8184 11.3821 13.001 11.6465C12.181 11.9116 11.2504 12.6445 11.25 13.791V14C11.25 14.414 11.5851 14.7497 11.999 14.75C12.4132 14.7501 12.7499 14.4142 12.75 14V13.792C12.7501 13.5581 12.9684 13.2328 13.4619 13.0732C14.8342 12.6296 15.75 11.5167 15.75 10.0332C15.7499 8.0923 14.2609 6.25019 12 6.25Z"
    fill="currentColor"
  />
</svg>
