<svg width="12" height="12" viewBox="0 0 12 12" fill="none" xmlns="http://www.w3.org/2000/svg" data-fui-icon="true">
  <path
    d="M6 0C9.31371 0 12 2.68629 12 6C12 9.31371 9.31371 12 6 12C2.68629 12 0 9.31371 0 6C0 2.68629 2.68629 0 6 0ZM6 8.25C5.58579 8.25 5.25 8.58579 5.25 9C5.25 9.41421 5.58579 9.75 6 9.75C6.41421 9.75 6.75 9.41421 6.75 9C6.75 8.58579 6.41421 8.25 6 8.25ZM6 2.25C4.47589 2.25 3.5 3.42712 3.5 4.7334V4.86523C3.50004 5.27941 3.83581 5.61523 4.25 5.61523C4.66419 5.61523 4.99996 5.27941 5 4.86523V4.7334C5 4.18767 5.3706 3.75 6 3.75C6.62949 3.75008 7 4.18792 7 4.7334C6.99997 5.13819 6.71943 5.50775 6.28809 5.625L6.2002 5.64453C5.74523 5.72799 5.24988 6.12249 5.25 6.75C5.25021 7.16409 5.58596 7.5 6 7.5C6.29739 7.49985 6.55169 7.32521 6.67285 7.07422C7.71887 6.79255 8.49997 5.86411 8.5 4.7334C8.5 3.42697 7.52382 2.25009 6 2.25Z"
    fill="currentColor"
  />
</svg>
