<svg width="32" height="32" viewBox="0 0 32 32" fill="none" xmlns="http://www.w3.org/2000/svg" data-fui-icon="true">
  <path
    d="M16 0.5C24.5604 0.5 31.5 7.43959 31.5 16C31.5 24.5604 24.5604 31.5 16 31.5C7.43959 31.5 0.5 24.5604 0.5 16C0.5 7.43959 7.43959 0.5 16 0.5ZM16 22.75C15.3096 22.75 14.75 23.3096 14.75 24C14.75 24.6904 15.3096 25.25 16 25.25C16.6904 25.25 17.25 24.6904 17.25 24C17.25 23.3096 16.6904 22.75 16 22.75ZM16 7C12.5793 7 10 9.66662 10 13V13.2988C10.0001 13.713 10.3358 14.0488 10.75 14.0488C11.1642 14.0488 11.4999 13.713 11.5 13.2988V13C11.5 10.4811 13.4216 8.5 16 8.5C18.5783 8.50024 20.5 10.4814 20.5 13C20.5 14.9151 19.3885 16.3785 17.7148 16.9678C16.5244 17.3869 15.25 18.4419 15.25 20C15.25 20.4142 15.5858 20.75 16 20.75C16.414 20.7497 16.75 20.4141 16.75 20C16.75 19.349 17.3196 18.6964 18.2129 18.3818C20.4716 17.5865 22 15.5674 22 13C22 9.66659 19.4203 7.00024 16 7Z"
    fill="currentColor"
  />
</svg>
