<svg width="32" height="32" viewBox="0 0 32 32" fill="none" xmlns="http://www.w3.org/2000/svg" data-fui-icon="true">
  <path
    d="M16 0.5C24.5604 0.5 31.5 7.43959 31.5 16C31.5 24.5604 24.5604 31.5 16 31.5C7.43959 31.5 0.5 24.5604 0.5 16C0.5 7.43959 7.43959 0.5 16 0.5ZM16 2.5C8.54416 2.5 2.5 8.54416 2.5 16C2.5 23.4558 8.54416 29.5 16 29.5C23.4558 29.5 29.5 23.4558 29.5 16C29.5 8.54416 23.4558 2.5 16 2.5ZM16 22.75C16.6904 22.75 17.25 23.3096 17.25 24C17.25 24.6904 16.6904 25.25 16 25.25C15.3096 25.25 14.75 24.6904 14.75 24C14.75 23.3096 15.3096 22.75 16 22.75ZM16 6.75C19.5606 6.75024 22.25 9.53079 22.25 13C22.25 15.6762 20.6522 17.7885 18.2959 18.6182C17.4521 18.9153 17 19.5002 17 20C17 20.5521 16.5521 20.9997 16 21C15.4477 21 15 20.5523 15 20C15 18.2907 16.3919 17.168 17.6318 16.7314C19.2079 16.1764 20.25 14.8063 20.25 13C20.25 10.6172 18.438 8.75024 16 8.75C13.562 8.75 11.75 10.6168 11.75 13V13.2988C11.7499 13.851 11.3022 14.2988 10.75 14.2988C10.1978 14.2988 9.75008 13.851 9.75 13.2988V13C9.75 9.53088 12.4389 6.75 16 6.75Z"
    fill="currentColor"
  />
</svg>
