<svg width="16" height="16" viewBox="0 0 16 16" fill="none" xmlns="http://www.w3.org/2000/svg" data-fui-icon="true">
  <path
    d="M8 0.5C12.1421 0.5 15.5 3.85786 15.5 8C15.5 12.1421 12.1421 15.5 8 15.5C3.85786 15.5 0.5 12.1421 0.5 8C0.5 3.85786 3.85786 0.5 8 0.5ZM8 2.5C4.96243 2.5 2.5 4.96243 2.5 8C2.5 11.0376 4.96243 13.5 8 13.5C11.0376 13.5 13.5 11.0376 13.5 8C13.5 4.96243 11.0376 2.5 8 2.5ZM8 10.251C8.55228 10.251 9 10.6987 9 11.251C8.99947 11.8028 8.55196 12.251 8 12.251C7.4481 12.2509 7.00053 11.8028 7 11.251C7 10.6987 7.44777 10.251 8 10.251ZM7.99707 3.75098C9.51631 3.75105 10.75 4.9192 10.75 6.43066C10.7495 7.49118 10.1309 8.51054 9.16309 8.98242C9.11738 9.00472 9.0751 9.02994 9.04102 9.05469C9.01956 9.07033 9.00389 9.08553 8.99219 9.09668C8.94342 9.60496 8.51477 10.0026 7.99414 10.001C7.44222 9.99893 6.99559 9.54889 6.99707 8.99707C7.00087 7.98723 7.81953 7.41212 8.28613 7.18457C8.55232 7.05484 8.7495 6.74255 8.75 6.43066C8.75 6.08335 8.47227 5.75104 7.99707 5.75098C7.52612 5.75114 7.25 6.0794 7.25 6.43066V6.62402C7.2495 7.17583 6.80191 7.62394 6.25 7.62402C5.69808 7.62396 5.2505 7.17584 5.25 6.62402V6.43066C5.25 4.92327 6.4738 3.75116 7.99707 3.75098Z"
    fill="currentColor"
  />
</svg>
