<svg width="32" height="32" viewBox="0 0 32 32" fill="none" xmlns="http://www.w3.org/2000/svg" data-fui-icon="true">
  <path
    d="M16 1C24.2843 1 31 7.71573 31 16C31 24.2843 24.2843 31 16 31C7.71573 31 1 24.2843 1 16C1 7.71573 7.71573 1 16 1ZM16 3C8.8203 3 3 8.8203 3 16C3 23.1797 8.8203 29 16 29C23.1797 29 29 23.1797 29 16C29 8.8203 23.1797 3 16 3ZM16 22.75C16.6902 22.7502 17.25 23.3098 17.25 24C17.25 24.6902 16.6902 25.2498 16 25.25C15.3098 25.2498 14.75 24.6902 14.75 24C14.75 23.3098 15.3098 22.7502 16 22.75ZM16 6.75C19.5605 6.75041 22.25 9.5309 22.25 13C22.25 16.0036 20.243 18.2745 17.4443 18.8545C17.2984 18.8848 17.1736 18.9583 17.0947 19.042C17.0208 19.1206 17 19.1914 17 19.25V20C17 20.552 16.5519 20.9996 16 21C15.4479 20.9998 15 20.5522 15 20V19.25C15 17.9669 16.0261 17.1065 17.0391 16.8965C18.9566 16.499 20.25 15.0078 20.25 13C20.25 10.6173 18.4378 8.75041 16 8.75C13.5622 8.75019 11.75 10.6169 11.75 13V13.2988C11.7499 13.8509 11.3021 14.2987 10.75 14.2988C10.1979 14.2986 9.75008 13.8509 9.75 13.2988V13C9.75 9.531 12.4391 6.75019 16 6.75Z"
    fill="currentColor"
  />
</svg>
