<svg width="16" height="16" viewBox="0 0 16 16" fill="none" xmlns="http://www.w3.org/2000/svg" data-fui-icon="true">
  <path
    d="M7.99707 0C12.4138 1.87158e-05 15.995 3.5804 15.9951 7.99707C15.995 12.4137 12.4138 15.9951 7.99707 15.9951C3.58048 15.995 0.000151172 12.4137 0 7.99707C0.000143795 3.58047 3.58047 0.000143791 7.99707 0ZM7.99707 1.5C4.4089 1.50014 1.50014 4.4089 1.5 7.99707C1.50015 11.5852 4.40891 14.495 7.99707 14.4951C11.5853 14.4951 14.495 11.5853 14.4951 7.99707C14.495 4.40882 11.5853 1.50002 7.99707 1.5ZM7.99512 11.251C8.47825 11.2511 8.87012 11.6428 8.87012 12.126C8.86959 12.6087 8.47793 13.0008 7.99512 13.001C7.51225 13.0009 7.12064 12.6087 7.12012 12.126C7.12012 11.6428 7.51192 11.251 7.99512 11.251ZM7.99707 3.00098C9.98859 3.00106 11.5 4.66684 11.5 6.43066C11.4994 7.9896 10.2556 9.18767 8.87793 9.53711C8.82141 9.55149 8.77716 9.58052 8.75488 9.60449C8.75095 9.60878 8.74771 9.61289 8.74609 9.61523C8.738 10.0224 8.40614 10.3505 7.99707 10.3506C7.58333 10.3504 7.24757 10.0143 7.24707 9.60059C7.24728 8.76761 7.90993 8.23502 8.50879 8.08301C9.39469 7.85836 9.99933 7.13929 10 6.43066C10 5.47385 9.13891 4.50106 7.99707 4.50098C6.85726 4.50118 6 5.47196 6 6.43066V6.62402C5.9995 7.03776 5.66384 7.37394 5.25 7.37402C4.83615 7.37396 4.5005 7.03777 4.5 6.62402V6.43066C4.5 4.66886 6.00373 3.00117 7.99707 3.00098Z"
    fill="currentColor"
  />
</svg>
