<svg width="32" height="32" viewBox="0 0 32 32" fill="none" xmlns="http://www.w3.org/2000/svg" data-fui-icon="true">
  <path
    d="M15.999 1C24.2827 1 30.9987 7.71537 30.999 15.999C30.999 24.2829 24.2829 30.999 15.999 30.999C7.71537 30.9987 1 24.2827 1 15.999C1.00028 7.71554 7.71554 1.00028 15.999 1ZM15.999 2.5C8.54396 2.50028 2.50028 8.54396 2.5 15.999C2.5 23.4543 8.54379 29.4987 15.999 29.499C23.4545 29.499 29.499 23.4545 29.499 15.999C29.4987 8.54379 23.4543 2.5 15.999 2.5ZM16 22.75C16.6902 22.7502 17.25 23.3098 17.25 24C17.25 24.6902 16.6902 25.2498 16 25.25C15.3098 25.2498 14.75 24.6902 14.75 24C14.75 23.3098 15.3098 22.7502 16 22.75ZM16 7C19.4201 7.00041 22 9.6667 22 13C22 15.8791 20.0821 18.0522 17.3936 18.6094C16.9707 18.6972 16.75 19.0044 16.75 19.25V20C16.75 20.4139 16.4138 20.7496 16 20.75C15.586 20.7498 15.25 20.4141 15.25 20V19.25C15.25 18.1151 16.1612 17.3332 17.0898 17.1406C19.1174 16.7202 20.5 15.1322 20.5 13C20.5 10.4815 18.5781 8.50041 16 8.5C13.4218 8.50019 11.5 10.4812 11.5 13V13.2988L11.4961 13.375C11.4578 13.7532 11.1383 14.0487 10.75 14.0488C10.3617 14.0486 10.0422 13.7532 10.0039 13.375L10 13.2988V13C10 9.66674 12.5795 7.00019 16 7Z"
    fill="currentColor"
  />
</svg>
