<svg width="20" height="20" viewBox="0 0 20 20" fill="none" xmlns="http://www.w3.org/2000/svg" data-fui-icon="true">
  <path
    d="M10 0C15.5225 0.000215036 19.9998 4.4775 20 10C20 15.5227 15.5226 19.9998 10 20C4.4772 20 3.04088e-05 15.5228 0 10C0.000211158 4.47736 4.47731 0 10 0ZM10 1.5C5.30574 1.5 1.50021 5.30579 1.5 10C1.50003 14.6944 5.30563 18.5 10 18.5C14.6942 18.4998 18.5 14.6942 18.5 10C18.4998 5.30592 14.6941 1.50022 10 1.5ZM10 14.001C10.5522 14.0011 11 14.4488 11 15.001C10.9995 15.5527 10.5518 16.0008 10 16.001C9.44815 16.0008 9.00053 15.5527 9 15.001C9 14.4488 9.44783 14.0011 10 14.001ZM10 4C12.4529 4.0003 13.9998 5.89055 14 8C13.9998 9.71111 12.882 11.1559 11.3223 11.6836C10.9083 11.8237 10.7503 12.0927 10.75 12.25C10.7497 12.6638 10.4138 12.9997 10 13C9.58606 12.9999 9.25026 12.6639 9.25 12.25C9.25025 11.1918 10.1047 10.5121 10.8418 10.2627C11.8261 9.92957 12.4998 9.03273 12.5 8C12.4998 6.63767 11.5454 5.50029 10 5.5C8.45457 5.50012 7.50022 6.63736 7.5 8V8.24707C7.49974 8.66097 7.16392 8.99692 6.75 8.99707C6.33606 8.99694 6.00026 8.66098 6 8.24707V8C6.00023 5.89066 7.5467 4.00013 10 4Z"
    fill="currentColor"
  />
</svg>
