<svg width="24" height="24" viewBox="0 0 24 24" fill="none" xmlns="http://www.w3.org/2000/svg" data-fui-icon="true">
  <path
    d="M12 1C18.0751 1 23 5.92487 23 12C23 18.0751 18.0751 23 12 23C5.92487 23 1 18.0751 1 12C1 5.92487 5.92487 1 12 1ZM12 16.5C11.0335 16.5 10.25 17.2835 10.25 18.25C10.25 19.2165 11.0335 20 12 20C12.9665 20 13.75 19.2165 13.75 18.25C13.75 17.2835 12.9665 16.5 12 16.5ZM12 4.25C9.02703 4.25 6.50016 6.57021 6.5 9.57324V9.86719C6.5 10.6956 7.17157 11.3672 8 11.3672C8.82843 11.3672 9.5 10.6956 9.5 9.86719V9.57324C9.50017 8.35317 10.5549 7.25 12 7.25C13.4451 7.25 14.4998 8.35317 14.5 9.57324C14.5 10.6829 13.6345 11.6894 12.3867 11.8691C11.4532 12.0038 10.5 12.7934 10.5 14C10.5 14.8284 11.1716 15.5 12 15.5C12.5565 15.5 13.0409 15.1962 13.2998 14.7461C15.6694 14.188 17.5 12.1248 17.5 9.57324C17.4998 6.57021 14.973 4.25 12 4.25Z"
    fill="currentColor"
  />
</svg>
