<svg width="16" height="16" viewBox="0 0 16 16" fill="none" xmlns="http://www.w3.org/2000/svg" data-fui-icon="true">
  <path
    d="M8 0.5C12.1421 0.5 15.5 3.85786 15.5 8C15.5 12.1421 12.1421 15.5 8 15.5C3.85786 15.5 0.5 12.1421 0.5 8C0.5 3.85786 3.85786 0.5 8 0.5ZM8 2.5C4.96243 2.5 2.5 4.96243 2.5 8C2.5 11.0376 4.96243 13.5 8 13.5C11.0376 13.5 13.5 11.0376 13.5 8C13.5 4.96243 11.0376 2.5 8 2.5ZM8 10.25C8.55228 10.25 9 10.6977 9 11.25C9 11.8023 8.55228 12.25 8 12.25C7.44772 12.25 7 11.8023 7 11.25C7 10.6977 7.44772 10.25 8 10.25ZM7.99707 3.75C9.51638 3.75 10.75 4.91817 10.75 6.42969C10.7499 7.55868 10.0428 8.65585 8.94238 9.07422C8.80699 9.46903 8.43263 9.75226 7.99219 9.75C7.43991 9.74702 6.99409 9.29642 6.99707 8.74414C7.00202 7.87099 7.6932 7.37742 8.19434 7.2207L8.30469 7.17383C8.55617 7.04079 8.7499 6.74337 8.75 6.42969C8.75 6.08234 8.47236 5.75 7.99707 5.75C7.52604 5.75011 7.25 6.07839 7.25 6.42969V6.62305C7.25 7.17533 6.80228 7.62305 6.25 7.62305C5.69772 7.62305 5.25 7.17533 5.25 6.62305V6.42969C5.25 4.92225 6.47374 3.75012 7.99707 3.75Z"
    fill="currentColor"
  />
</svg>
