<svg width="24" height="24" viewBox="0 0 24 24" fill="none" xmlns="http://www.w3.org/2000/svg" data-fui-icon="true">
  <path
    d="M12 0C18.6274 0 24 5.37258 24 12C24 18.6274 18.6274 24 12 24C5.37258 24 0 18.6274 0 12C0 5.37258 5.37258 0 12 0ZM12 1.5C6.20101 1.5 1.5 6.20101 1.5 12C1.5 17.799 6.20101 22.5 12 22.5C17.799 22.5 22.5 17.799 22.5 12C22.5 6.20101 17.799 1.5 12 1.5ZM12 17C12.5523 17 13 17.4477 13 18C13 18.5523 12.5523 19 12 19C11.4477 19 11 18.5523 11 18C11 17.4477 11.4477 17 12 17ZM12 5C14.591 5 16.7498 7.01596 16.75 9.57324C16.75 11.631 15.3462 13.3436 13.4531 13.9287C12.9751 14.0765 12.75 14.4065 12.75 14.6475V15C12.75 15.4142 12.4142 15.75 12 15.75C11.5858 15.75 11.25 15.4142 11.25 15V14.6475C11.25 13.5077 12.1697 12.756 13.0107 12.4961C14.3304 12.0881 15.25 10.9171 15.25 9.57324C15.2498 7.90744 13.8271 6.5 12 6.5C10.1729 6.5 8.75016 7.90744 8.75 9.57324V9.86719C8.75 10.2814 8.41421 10.6172 8 10.6172C7.58579 10.6172 7.25 10.2814 7.25 9.86719V9.57324C7.25016 7.01596 9.409 5 12 5Z"
    fill="currentColor"
  />
</svg>
