<svg width="20" height="20" viewBox="0 0 20 20" fill="none" xmlns="http://www.w3.org/2000/svg" data-fui-icon="true">
  <path
    d="M6.4209 4.26819C6.71023 4.08025 7.09703 4.16162 7.28516 4.45081C7.47326 4.74023 7.39099 5.12794 7.10156 5.31604C5.75939 6.18833 4.68534 6.94628 3.95508 7.95276C3.69778 8.30741 3.47927 8.70013 3.30957 9.14905C3.91314 8.74351 4.64341 8.50745 5.42578 8.50745C7.47689 8.50768 9.16699 10.1326 9.16699 12.1705C9.16687 14.2083 7.47681 15.8334 5.42578 15.8336C3.38046 15.8336 1.69341 14.2178 1.68359 12.1881C1.56918 10.0177 2.04037 8.46297 2.94336 7.21838C3.82701 6.00053 5.09181 5.13196 6.4209 4.26819ZM15.5869 4.26819C15.8763 4.08012 16.2639 4.16149 16.4521 4.45081C16.6402 4.74021 16.5579 5.12792 16.2686 5.31604C14.9263 6.18836 13.8524 6.94625 13.1221 7.95276C12.8647 8.30751 12.6453 8.69997 12.4756 9.14905C13.0791 8.74343 13.8094 8.5075 14.5918 8.50745C16.6431 8.50745 18.334 10.1324 18.334 12.1705C18.3339 14.2084 16.6431 15.8336 14.5918 15.8336C12.5466 15.8335 10.8604 14.2177 10.8506 12.1881C10.7362 10.0177 11.2074 8.46297 12.1104 7.21838C12.9939 6.00072 14.258 5.13185 15.5869 4.26819Z"
    fill="currentColor"
  />
</svg>
