<svg
  width="20"
  height="20"
  viewBox="0 0 20 20"
  fill="none"
  xmlns="http://www.w3.org/2000/svg"
  data-fui-icon="true"
>
  <path
    d="M5.40824 4.16669C3.35694 4.16669 1.66669 5.79185 1.66669 7.82988 1.66669 9.86794 3.35694 11.4931 5.40824 11.4931 6.19074 11.4931 6.9207 11.2566 7.52434 10.8509 7.3546 11.3 7.13543 11.6925 6.87804 12.0473 6.14776 13.0538 5.07422 13.812 3.73199 14.6843 3.44257 14.8724 3.36043 15.2595 3.54852 15.5489 3.73662 15.8384 4.12373 15.9205 4.41315 15.7324 5.74226 14.8686 7.00614 13.9992 7.88978 12.7814 8.79277 11.5368 9.26419 9.98285 9.14977 7.81245 9.14019 5.7826 7.4537 4.16669 5.40824 4.16669zM14.5749 4.16669C12.5236 4.16669 10.8333 5.79185 10.8333 7.82988 10.8333 9.86794 12.5236 11.4931 14.5749 11.4931 15.3574 11.4931 16.0873 11.2566 16.691 10.8509 16.5212 11.3 16.3021 11.6925 16.0446 12.0473 15.3144 13.0538 14.2408 13.812 12.8986 14.6843 12.6092 14.8724 12.5271 15.2595 12.7151 15.5489 12.9032 15.8384 13.2904 15.9205 13.5798 15.7324 14.9089 14.8686 16.1727 13.9992 17.0564 12.7814 17.9594 11.5368 18.4308 9.98285 18.3164 7.81245 18.3068 5.7826 16.6203 4.16669 14.5749 4.16669z"
    fill="currentColor"
  />
</svg>
