<svg width="16" height="16" viewBox="0 0 16 16" fill="none" xmlns="http://www.w3.org/2000/svg" data-fui-icon="true">
  <path
    fill-rule="evenodd"
    clip-rule="evenodd"
    d="M5.1356 3.41416C5.36714 3.26368 5.6775 3.3291 5.82798 3.56064C5.9784 3.79217 5.91203 4.10158 5.68052 4.25205C4.60674 4.9499 3.74815 5.55719 3.16392 6.3624C2.95807 6.64616 2.78308 6.96024 2.64732 7.31943C3.13017 6.99499 3.71382 6.80578 4.3397 6.80576C5.98075 6.80576 7.33287 8.10596 7.33287 9.73642C7.33268 11.3667 5.98063 12.6671 4.3397 12.6671C2.70342 12.667 1.35426 11.3739 1.34654 9.7501C1.255 8.01376 1.63196 6.77018 2.35435 5.77451C3.06121 4.80035 4.07245 4.10511 5.1356 3.41416ZM12.4696 3.41416C12.7011 3.26392 13.0105 3.32924 13.161 3.56064C13.3113 3.792 13.2456 4.10144 13.0145 4.25205C11.9407 4.9499 11.0812 5.55719 10.4969 6.3624C10.2912 6.64613 10.1161 6.96029 9.98033 7.31943C10.4631 6.99496 11.0468 6.80583 11.6727 6.80576C13.3138 6.80576 14.6659 8.10596 14.6659 9.73642C14.6657 11.3667 13.3137 12.6671 11.6727 12.6671C10.0366 12.6669 8.68725 11.3738 8.67955 9.7501C8.58801 8.01376 8.96502 6.77018 9.68736 5.77451C10.3943 4.80023 11.4063 4.10518 12.4696 3.41416Z"
    fill="currentColor"
  />
</svg>
