<svg width="12" height="12" viewBox="0 0 12 12" fill="none" xmlns="http://www.w3.org/2000/svg" data-fui-icon="true">
  <path
    d="M3.85254 2.56071C4.02619 2.44787 4.25824 2.49742 4.37109 2.67107C4.48379 2.8447 4.43433 3.0768 4.26074 3.18962C3.45557 3.71291 2.81115 4.16784 2.37305 4.77165C2.21867 4.98446 2.08716 5.22006 1.98535 5.48943C2.34753 5.24603 2.78636 5.10466 3.25586 5.10466C4.48636 5.1049 5.49988 6.07933 5.5 7.30193C5.5 8.52457 4.48644 9.49992 3.25586 9.50017C2.02861 9.50017 1.01654 8.53053 1.01074 7.31267C0.942092 6.01042 1.22481 5.07797 1.7666 4.33122C2.29679 3.60053 3.0551 3.07897 3.85254 2.56071ZM9.35254 2.56071C9.52619 2.44787 9.7582 2.49742 9.87109 2.67107C9.98378 2.8447 9.93433 3.0768 9.76074 3.18962C8.95556 3.71292 8.31118 4.16783 7.87305 4.77165C7.7187 4.98445 7.58717 5.22005 7.48535 5.48943C7.8475 5.24603 8.28636 5.10466 8.75586 5.10466C9.98637 5.10491 10.9999 6.07933 11 7.30193C11 8.52457 9.98645 9.49992 8.75586 9.50017C7.52863 9.50017 6.51653 8.53053 6.51074 7.31267C6.44209 6.01042 6.72485 5.07797 7.2666 4.33122C7.7968 3.60054 8.55512 3.07897 9.35254 2.56071Z"
    fill="currentColor"
  />
</svg>
