<svg width="12" height="12" viewBox="0 0 12 12" fill="none" xmlns="http://www.w3.org/2000/svg" data-fui-icon="true">
  <path
    d="M3.24512 2.5C4.47231 2.5001 5.48448 3.46965 5.49023 4.6875C5.55887 5.98971 5.27518 6.92221 4.7334 7.66895C4.20322 8.39948 3.44481 8.92123 2.64746 9.43945C2.47384 9.55205 2.2417 9.50265 2.12891 9.3291C2.01627 9.15548 2.0657 8.92339 2.23926 8.81055C3.04455 8.28722 3.6888 7.83238 4.12695 7.22852C4.28136 7.01571 4.41282 6.78013 4.51465 6.51074C4.15253 6.75409 3.71453 6.89547 3.24512 6.89551C2.01445 6.89551 1.00018 5.92092 1 4.69824C1 3.47542 2.01434 2.5 3.24512 2.5ZM8.74512 2.5C9.97229 2.50009 10.9845 3.46964 10.9902 4.6875C11.0589 5.98971 10.7752 6.92221 10.2334 7.66895C9.70321 8.39948 8.9448 8.92123 8.14746 9.43945C7.97384 9.55204 7.74169 9.50265 7.62891 9.3291C7.51628 9.15548 7.5657 8.92339 7.73926 8.81055C8.54452 8.28722 9.18881 7.83239 9.62695 7.22852C9.78137 7.01571 9.91281 6.78013 10.0146 6.51074C9.6525 6.75409 9.21453 6.89547 8.74512 6.89551C7.51443 6.89551 6.50018 5.92092 6.5 4.69824C6.5 3.47542 7.51432 2.5 8.74512 2.5Z"
    fill="currentColor"
  />
</svg>
