<svg
  width="32"
  height="32"
  viewBox="0 0 32 32"
  fill="none"
  xmlns="http://www.w3.org/2000/svg"
  data-fui-icon="true"
>
  <path
    d="M23.3468 25.3335C26.629 25.3335 29.3334 22.7332 29.3334 19.4724 29.3334 16.2115 26.629 13.6112 23.3468 13.6112 22.0948 13.6112 20.9268 13.9896 19.9611 14.6387 20.2327 13.9202 20.5834 13.2922 20.9951 12.7246 22.1636 11.1141 23.8812 9.90099 26.0288 8.50529 26.4919 8.20433 26.6234 7.58495 26.3224 7.12187 26.0214 6.65879 25.402 6.52737 24.939 6.82833 22.8124 8.21039 20.7902 9.60141 19.3763 11.55 17.9316 13.5414 17.1774 16.0276 17.3604 19.5003 17.3758 22.748 20.0742 25.3335 23.3468 25.3335zM8.68015 25.3335C11.9622 25.3335 14.6667 22.7332 14.6667 19.4724 14.6667 16.2115 11.9622 13.6112 8.68015 13.6112 7.42815 13.6112 6.2602 13.9896 5.29439 14.6387 5.56596 13.9202 5.91664 13.2922 6.32847 12.7246 7.49692 11.1141 9.21459 9.90099 11.3622 8.50529 11.8252 8.20433 11.9567 7.58495 11.6557 7.12187 11.3547 6.65879 10.7354 6.52737 10.2723 6.82833 8.14571 8.21039 6.12352 9.60141 4.70968 11.55 3.2649 13.5414 2.51067 16.0276 2.69374 19.5003 2.7091 22.748 5.40743 25.3335 8.68015 25.3335z"
    fill="currentColor"
    fill-opacity=".875"
  />
</svg>
