<svg width="12" height="12" viewBox="0 0 12 12" fill="none" xmlns="http://www.w3.org/2000/svg" data-fui-icon="true">
  <path
    d="M3.85217 2.56073C4.02583 2.44788 4.25787 2.49743 4.37073 2.67108C4.48342 2.84471 4.43396 3.07682 4.26038 3.18964C3.45521 3.71293 2.81079 4.16785 2.37268 4.77167C2.21831 4.98447 2.08679 5.22007 1.98499 5.48944C2.34717 5.24604 2.78599 5.10468 3.25549 5.10468C4.486 5.10492 5.49951 6.07935 5.49963 7.30194C5.49963 8.52459 4.48607 9.49994 3.25549 9.50018C2.02825 9.50018 1.01617 8.53055 1.01038 7.31268C0.941726 6.01043 1.22444 5.07799 1.76624 4.33124C2.29642 3.60055 3.05474 3.07899 3.85217 2.56073ZM9.35217 2.56073C9.52582 2.44789 9.75783 2.49743 9.87073 2.67108C9.98341 2.84472 9.93396 3.07682 9.76038 3.18964C8.95519 3.71293 8.31082 4.16785 7.87268 4.77167C7.71834 4.98447 7.58681 5.22007 7.48499 5.48944C7.84714 5.24604 8.28599 5.10468 8.75549 5.10468C9.98601 5.10492 10.9995 6.07935 10.9996 7.30194C10.9996 8.52459 9.98608 9.49994 8.75549 9.50018C7.52827 9.50018 6.51616 8.53055 6.51038 7.31268C6.44173 6.01043 6.72449 5.07799 7.26624 4.33124C7.79643 3.60056 8.55476 3.07898 9.35217 2.56073Z"
    fill="currentColor"
  />
</svg>
