<svg
  width="16"
  height="16"
  viewBox="0 0 16 16"
  fill="none"
  xmlns="http://www.w3.org/2000/svg"
  data-fui-icon="true"
>
  <path
    d="M4.32657 3.33334C2.68553 3.33334 1.33333 4.63347 1.33333 6.2639 1.33333 7.89434 2.68553 9.19448 4.32657 9.19448 4.95257 9.19448 5.53654 9.00528 6.01945 8.68074 5.88366 9.04001 5.70833 9.35401 5.50241 9.63781 4.91819 10.443 4.05936 11.0496 2.98557 11.7474 2.75404 11.8979 2.68833 12.2076 2.8388 12.4391 2.98928 12.6707 3.29897 12.7364 3.53051 12.5859 4.59379 11.8949 5.60489 11.1993 6.3118 10.2251 7.0342 9.22941 7.41133 7.98628 7.3198 6.24996 7.31213 4.62607 5.96294 3.33334 4.32657 3.33334zM11.6599 3.33334C10.0189 3.33334 8.66666 4.63347 8.66666 6.2639 8.66666 7.89434 10.0189 9.19448 11.6599 9.19448 12.2859 9.19448 12.8699 9.00528 13.3528 8.68074 13.217 9.04001 13.0417 9.35401 12.8357 9.63781 12.2515 10.443 11.3927 11.0496 10.3189 11.7474 10.0874 11.8979 10.0217 12.2076 10.1721 12.4391 10.3226 12.6707 10.6323 12.7364 10.8639 12.5859 11.9271 11.8949 12.9382 11.1993 13.6451 10.2251 14.3675 9.22941 14.7447 7.98628 14.6531 6.24996 14.6455 4.62607 13.2963 3.33334 11.6599 3.33334z"
    fill="currentColor"
  />
</svg>
