<svg width="20" height="20" viewBox="0 0 20 20" fill="none" xmlns="http://www.w3.org/2000/svg" data-fui-icon="true">
  <path
    d="M6.4209 4.26816C6.71023 4.08022 7.09703 4.16159 7.28516 4.45078C7.47326 4.7402 7.39099 5.12791 7.10156 5.31601C5.75939 6.1883 4.68534 6.94625 3.95508 7.95273C3.69778 8.30738 3.47927 8.7001 3.30957 9.14902C3.91314 8.74348 4.64341 8.50742 5.42578 8.50742C7.47689 8.50765 9.16699 10.1326 9.16699 12.1705C9.16687 14.2082 7.47681 15.8334 5.42578 15.8336C3.38046 15.8336 1.69341 14.2177 1.68359 12.1881C1.56918 10.0177 2.04037 8.46294 2.94336 7.21835C3.82701 6.0005 5.09181 5.13193 6.4209 4.26816ZM15.5869 4.26816C15.8763 4.08009 16.2639 4.16146 16.4521 4.45078C16.6402 4.74018 16.5579 5.12789 16.2686 5.31601C14.9263 6.18833 13.8524 6.94622 13.1221 7.95273C12.8647 8.30747 12.6453 8.69994 12.4756 9.14902C13.0791 8.7434 13.8094 8.50747 14.5918 8.50742C16.6431 8.50742 18.334 10.1324 18.334 12.1705C18.3339 14.2084 16.6431 15.8336 14.5918 15.8336C12.5466 15.8334 10.8604 14.2176 10.8506 12.1881C10.7362 10.0177 11.2074 8.46294 12.1104 7.21835C12.9939 6.00069 14.258 5.13182 15.5869 4.26816Z"
    fill="currentColor"
  />
</svg>
