<svg
  width="20"
  height="20"
  viewBox="0 0 20 20"
  fill="none"
  xmlns="http://www.w3.org/2000/svg"
  data-fui-icon="true"
>
  <path
    d="M14.5917 15.8334C16.6431 15.8334 18.3333 14.2082 18.3333 12.1702 18.3333 10.1322 16.6431 8.50699 14.5917 8.50699 13.8092 8.50699 13.0793 8.74349 12.4757 9.14916 12.6454 8.70007 12.8646 8.30757 13.1219 7.95282 13.8522 6.94631 14.9258 6.1881 16.268 5.31578 16.5574 5.12768 16.6396 4.74057 16.4515 4.45115 16.2633 4.16172 15.8763 4.07958 15.5868 4.26768 14.2578 5.13147 12.9938 6.00086 12.1102 7.21874 11.2072 8.46332 10.7358 10.0172 10.8502 12.1877 10.8598 14.2175 12.5463 15.8334 14.5917 15.8334zM5.42507 15.8334C7.47638 15.8334 9.16666 14.2082 9.16666 12.1702 9.16666 10.1322 7.47638 8.50699 5.42507 8.50699 4.64257 8.50699 3.91261 8.74349 3.30897 9.14916 3.47871 8.70007 3.69788 8.30758 3.95527 7.95282 4.68555 6.94631 5.7591 6.1881 7.10132 5.31578 7.39075 5.12768 7.47289 4.74057 7.28479 4.45115 7.09669 4.16172 6.70958 4.07958 6.42016 4.26768 5.09105 5.13147 3.82718 6.00086 2.94353 7.21874 2.04054 8.46332 1.56915 10.0172 1.68356 12.1877 1.69316 14.2175 3.37962 15.8334 5.42507 15.8334z"
    fill="currentColor"
  />
</svg>
