<svg width="20" height="20" viewBox="0 0 20 20" fill="none" xmlns="http://www.w3.org/2000/svg" data-fui-icon="true">
  <path
    d="M5.40818 4.16669C3.35688 4.16669 1.66663 5.79185 1.66663 7.82988 1.66663 9.86794 3.35688 11.4931 5.40818 11.4931 6.19068 11.4931 6.92064 11.2566 7.52428 10.8509 7.35454 11.3 7.13537 11.6925 6.87798 12.0473 6.1477 13.0538 5.07416 13.812 3.73193 14.6843 3.44251 14.8724 3.36037 15.2595 3.54846 15.5489 3.73656 15.8384 4.12367 15.9205 4.41309 15.7324 5.7422 14.8686 7.00608 13.9992 7.88972 12.7814 8.79271 11.5368 9.26413 9.98285 9.14971 7.81245 9.14013 5.7826 7.45363 4.16669 5.40818 4.16669zM14.575 4.16669C12.5236 4.16669 10.8334 5.79185 10.8334 7.82988 10.8334 9.86794 12.5236 11.4931 14.575 11.4931 15.3575 11.4931 16.0874 11.2566 16.691 10.8509 16.5213 11.3 16.3021 11.6925 16.0447 12.0473 15.3145 13.0538 14.2409 13.812 12.8987 14.6843 12.6093 14.8724 12.5271 15.2595 12.7152 15.5489 12.9033 15.8384 13.2905 15.9205 13.5799 15.7324 14.909 14.8686 16.1728 13.9992 17.0565 12.7814 17.9595 11.5368 18.4309 9.98285 18.3165 7.81245 18.3069 5.7826 16.6204 4.16669 14.575 4.16669z"
    fill="currentColor"
  />
</svg>
