<svg
  width="20"
  height="20"
  viewBox="0 0 20 20"
  fill="none"
  xmlns="http://www.w3.org/2000/svg"
  data-fui-icon="true"
>
  <path
    d="M5.40818 4.16666C3.35688 4.16666 1.66663 5.79181 1.66663 7.82985 1.66663 9.86791 3.35688 11.4931 5.40818 11.4931 6.19068 11.4931 6.92064 11.2566 7.52428 10.8509 7.35454 11.3 7.13537 11.6925 6.87798 12.0472 6.1477 13.0537 5.07416 13.812 3.73193 14.6842 3.44251 14.8724 3.36037 15.2595 3.54846 15.5489 3.73656 15.8383 4.12367 15.9205 4.41309 15.7324 5.7422 14.8686 7.00608 13.9992 7.88972 12.7813 8.79271 11.5367 9.26413 9.98282 9.14971 7.81242 9.14013 5.78256 7.45363 4.16666 5.40818 4.16666zM14.575 4.16666C12.5236 4.16666 10.8334 5.79181 10.8334 7.82985 10.8334 9.86791 12.5236 11.4931 14.575 11.4931 15.3575 11.4931 16.0874 11.2566 16.691 10.8509 16.5213 11.3 16.3021 11.6925 16.0447 12.0472 15.3145 13.0537 14.2409 13.812 12.8987 14.6842 12.6093 14.8724 12.5271 15.2595 12.7152 15.5489 12.9033 15.8383 13.2905 15.9205 13.5799 15.7324 14.909 14.8686 16.1728 13.9992 17.0565 12.7813 17.9595 11.5367 18.4309 9.98282 18.3165 7.81242 18.3069 5.78256 16.6204 4.16666 14.575 4.16666z"
    fill="currentColor"
  />
</svg>
