<svg width="12" height="12" viewBox="0 0 12 12" fill="none" xmlns="http://www.w3.org/2000/svg" data-fui-icon="true">
  <path
    fill-rule="evenodd"
    clip-rule="evenodd"
    d="M3.85194 2.56077C4.0256 2.44792 4.25764 2.49747 4.3705 2.67112C4.48319 2.84475 4.43374 3.07686 4.26015 3.18968C3.45498 3.71297 2.81056 4.16789 2.37245 4.77171C2.21808 4.98451 2.08657 5.22011 1.98476 5.48948C2.34694 5.24608 2.78576 5.10471 3.25526 5.10471C4.48577 5.10496 5.49928 6.07939 5.49941 7.30198C5.49941 8.52463 4.48584 9.49998 3.25526 9.50022C2.02802 9.50022 1.01595 8.53059 1.01015 7.31272C0.941497 6.01047 1.22421 5.07803 1.76601 4.33128C2.29619 3.60059 3.05451 3.07903 3.85194 2.56077ZM9.35194 2.56077C9.52559 2.44793 9.7576 2.49747 9.8705 2.67112C9.98319 2.84475 9.93373 3.07686 9.76015 3.18968C8.95496 3.71297 8.31059 4.16789 7.87245 4.77171C7.71811 4.98451 7.58658 5.22011 7.48476 5.48948C7.84691 5.24608 8.28576 5.10471 8.75526 5.10471C9.98578 5.10496 10.9993 6.07939 10.9994 7.30198C10.9994 8.52463 9.98585 9.49998 8.75526 9.50022C7.52804 9.50022 6.51594 8.53059 6.51015 7.31272C6.4415 6.01047 6.72426 5.07803 7.26601 4.33128C7.7962 3.6006 8.55453 3.07902 9.35194 2.56077Z"
    fill="currentColor"
  />
</svg>
