<svg width="16" height="16" viewBox="0 0 16 16" fill="none" xmlns="http://www.w3.org/2000/svg" data-fui-icon="true">
  <g clip-path="url(#clip0_6111_24)">
    <path
      d="M10.3193 0C10.7334 0.000169002 11.0693 0.335891 11.0693 0.75C11.0693 1.16411 10.7334 1.49983 10.3193 1.5H8.74902V3.02734C11.3739 3.20098 13.1541 4.29025 14.2891 5.86426C15.4968 7.53923 15.9086 9.66864 15.9854 11.5537C16.0182 12.3679 15.3552 13 14.582 13H8.74902V14.5H14.249C14.6632 14.5 14.999 14.8358 14.999 15.25C14.999 15.6642 14.6632 16 14.249 16H1.74902C1.3349 15.9999 0.999023 15.6641 0.999023 15.25C0.999023 14.8359 1.3349 14.5001 1.74902 14.5H7.24902V13H1.41602C0.642942 12.9999 -0.0201718 12.3679 0.0126953 11.5537L0.03125 11.1973C0.144049 9.40396 0.576737 7.43458 1.70898 5.86426C2.84394 4.29024 4.62424 3.20102 7.24902 3.02734V1.5H5.67871C5.26473 1.49973 4.92871 1.16404 4.92871 0.75C4.92871 0.335956 5.26473 0.000274576 5.67871 0H10.3193Z"
      fill="currentColor"
    />
  </g>
  <defs>
    <clipPath id="clip0_6111_24"><path fill="currentColor" d="M0 0H16V16H0z" /></clipPath>
  </defs>
</svg>
