<svg width="16" height="16" viewBox="0 0 16 16" fill="none" xmlns="http://www.w3.org/2000/svg" data-fui-icon="true">
  <g clip-path="url(#clip0_6109_54)">
    <path
      d="M10.3203 0C10.7344 0.000169002 11.0703 0.335891 11.0703 0.75C11.0703 1.16411 10.7344 1.49983 10.3203 1.5H8.75V3.02734C11.3749 3.20098 13.1551 4.2902 14.29 5.86426C15.4978 7.53923 15.9096 9.66864 15.9863 11.5537C16.0192 12.3679 15.3562 13 14.583 13H8.75V14.5H14.25C14.6642 14.5 15 14.8358 15 15.25C15 15.6642 14.6642 16 14.25 16H1.75C1.33579 16 1 15.6642 1 15.25C1 14.8358 1.33579 14.5 1.75 14.5H7.25V13H1.41699C0.643833 13 -0.0192028 12.3679 0.0136719 11.5537L0.0322266 11.1973C0.145028 9.40392 0.577664 7.4346 1.70996 5.86426C2.84494 4.2902 4.62511 3.20098 7.25 3.02734V1.5H5.67969C5.26562 1.49983 4.92969 1.16411 4.92969 0.75C4.92969 0.335891 5.26562 0.000168744 5.67969 0H10.3203ZM8 4.5C5.38931 4.5 3.85534 5.45357 2.92676 6.74121C1.98686 8.04471 1.60165 9.78407 1.51855 11.5H14.4814C14.3983 9.78407 14.0131 8.04471 13.0732 6.74121C12.1447 5.45357 10.6107 4.5 8 4.5Z"
      fill="currentColor"
    />
  </g>
  <defs>
    <clipPath id="clip0_6109_54"><path fill="currentColor" d="M0 0H16V16H0z" /></clipPath>
  </defs>
</svg>
