<svg width="12" height="12" viewBox="0 0 12 12" fill="none" xmlns="http://www.w3.org/2000/svg" data-fui-icon="true">
  <g clip-path="url(#clip0_6109_49)">
    <path
      d="M7.25 0C7.66421 0 8 0.335786 8 0.75C8 1.16421 7.66421 1.5 7.25 1.5H6.75V2.53418C8.58313 2.70329 9.84099 3.49249 10.6621 4.52051C11.5639 5.64961 11.8856 6.99655 11.9727 7.93164C12.0434 8.69193 11.4207 9.25 10.75 9.25H6.75V10.5H10.25C10.6642 10.5 11 10.8358 11 11.25C11 11.6642 10.6642 12 10.25 12H1.75C1.3358 12 1 11.6642 1 11.25C1 10.8358 1.3358 10.5 1.75 10.5H5.25V9.25H1.25C0.579278 9.24998 -0.043436 8.69191 0.0273438 7.93164L0.0722656 7.56348C0.204401 6.66375 0.548679 5.50864 1.33789 4.52051C2.15901 3.49249 3.41688 2.70329 5.25 2.53418V1.5H4.75C4.3358 1.49998 4 1.1642 4 0.75C4 0.335798 4.3358 1.83929e-05 4.75 0H7.25ZM6 4C4.1862 4.00001 3.13939 4.66871 2.50977 5.45703C1.94164 6.16847 1.66951 7.03487 1.56055 7.75H10.4395C10.3305 7.03487 10.0584 6.16847 9.49023 5.45703C8.8606 4.66871 7.8138 4 6 4Z"
      fill="currentColor"
    />
  </g>
  <defs>
    <clipPath id="clip0_6109_49"><path fill="currentColor" d="M0 0H12V12H0z" /></clipPath>
  </defs>
</svg>
