<svg width="24" height="25" viewBox="0 0 24 25" fill="none" xmlns="http://www.w3.org/2000/svg" data-fui-icon="true">
  <path
    d="M19.25 0C21.3209 0.000197257 23 1.67905 23 3.75V22.5518C22.9999 23.1692 22.6027 23.613 22.1699 23.8125C21.7411 24.01 21.1667 24.0221 20.6963 23.6787C19.752 22.9891 18.4176 22.2501 17.125 22.25C16.5582 22.25 16.161 22.3438 15.8477 22.4697C15.5243 22.5997 15.2607 22.7741 14.9385 22.9941C14.2693 23.4511 13.4856 23.9999 12 24C10.5253 24 9.68419 23.4615 8.98145 23.0039C8.32507 22.5765 7.82782 22.2501 6.875 22.25C6.29977 22.25 5.6506 22.438 4.99414 22.7393C4.34474 23.0373 3.73468 23.4251 3.24902 23.7715C2.78485 24.1025 2.22251 24.0903 1.79883 23.8877C1.37144 23.683 1 23.2401 1 22.6436V3.75C1 1.67893 2.67893 0 4.75 0H19.25ZM6.75 10.5C6.33579 10.5 6 10.8358 6 11.25C6 11.6642 6.33579 12 6.75 12H12.25C12.6642 12 13 11.6642 13 11.25C13 10.8358 12.6642 10.5 12.25 10.5H6.75ZM6.75 5.5C6.33579 5.5 6 5.83579 6 6.25C6 6.66421 6.33579 7 6.75 7H17.25C17.6642 7 18 6.66421 18 6.25C18 5.83579 17.6642 5.5 17.25 5.5H6.75Z"
    fill="currentColor"
  />
</svg>
