<svg width="20" height="20" viewBox="0 0 20 20" fill="none" xmlns="http://www.w3.org/2000/svg" data-fui-icon="true">
  <path
    fill-rule="evenodd"
    clip-rule="evenodd"
    d="M12.4999 1C13.0521 1.00008 13.4999 1.44777 13.4999 2C13.4999 2.55223 13.0521 2.99992 12.4999 3H10.9999V4.03613C14.0087 4.26332 16.0072 5.53018 17.245 7.39648C18.5615 9.38185 18.9203 11.906 18.9872 14.1367C19.0184 15.1809 18.1701 15.9997 17.1669 16H10.9999V17H16.9999C17.5521 17.0001 17.9999 17.4478 17.9999 18C17.9999 18.5522 17.5521 18.9999 16.9999 19H2.99986C2.44758 19 1.99986 18.5523 1.99986 18C1.99986 17.4477 2.44758 17 2.99986 17H8.99986V16H2.83287C1.82952 15.9998 0.981285 15.1809 1.01256 14.1367C1.07939 11.9059 1.43822 9.3819 2.75474 7.39648C3.99255 5.53004 5.99071 4.26317 8.99986 4.03613V3H7.49986C6.94758 3 6.49986 2.55228 6.49986 2C6.49986 1.44772 6.94758 1 7.49986 1H12.4999ZM9.99986 6C6.99609 6 5.3686 7.07349 4.42174 8.50098C3.45248 9.96252 3.10037 11.9421 3.02135 14H16.9784C16.8993 11.9424 16.5471 9.96346 15.578 8.50195C14.6311 7.07428 13.0037 6.0001 9.99986 6Z"
    fill="currentColor"
  />
</svg>
