<svg width="20" height="20" viewBox="0 0 20 20" fill="none" xmlns="http://www.w3.org/2000/svg" data-fui-icon="true">
  <path
    fill-rule="evenodd"
    clip-rule="evenodd"
    d="M15.001 0C16.6578 0 18.001 1.34315 18.001 3V18.6328C18.001 19.6143 16.9548 20.2423 16.0889 19.7803L13.4102 18.3506L10.6865 19.8125C10.2578 20.0425 9.74188 20.043 9.31348 19.8125L6.59766 18.3506L3.91113 19.7812C3.04526 20.2422 2 19.6148 2 18.6338V3C2 1.34323 3.34326 0.000132323 5 0H15.001ZM6.26562 9C5.85141 9 5.51562 9.33579 5.51562 9.75C5.51562 10.1642 5.85141 10.5 6.26562 10.5H10.2207C10.6347 10.4997 10.9707 10.164 10.9707 9.75C10.9707 9.33596 10.6347 9.00028 10.2207 9H6.26562ZM6.26562 5C5.85141 5 5.51562 5.33579 5.51562 5.75C5.51562 6.16421 5.85141 6.5 6.26562 6.5H13.7363C14.1502 6.4996 14.4863 6.16397 14.4863 5.75C14.4863 5.33603 14.1502 5.0004 13.7363 5H6.26562Z"
    fill="currentColor"
  />
</svg>
