<svg width="16" height="16" viewBox="0 0 16 16" fill="none" xmlns="http://www.w3.org/2000/svg" data-fui-icon="true">
  <path
    fill-rule="evenodd"
    clip-rule="evenodd"
    d="M10.3199 1C10.7339 1.00017 11.0699 1.33589 11.0699 1.75C11.0699 2.16411 10.7339 2.49983 10.3199 2.5H8.74956V3.27539C11.0911 3.42473 12.6595 4.28536 13.6363 5.6582C14.6729 7.11557 14.9417 9.01572 14.9908 10.8125C15.0127 11.6166 14.3589 12.25 13.5826 12.25H8.74956V13.5H13.2496C13.6638 13.5 13.9996 13.8358 13.9996 14.25C13.9996 14.6642 13.6638 15 13.2496 15H2.74956C2.33554 14.9998 1.99956 14.6641 1.99956 14.25C1.99956 13.8359 2.33554 13.5002 2.74956 13.5H7.24956V12.25H2.41655C1.64045 12.2498 0.986391 11.6165 1.00835 10.8125L1.03862 10.1348C1.13714 8.54759 1.45595 6.93332 2.36284 5.6582C3.33955 4.28532 4.90816 3.42482 7.24956 3.27539V2.5H5.67925C5.26537 2.49961 4.92925 2.16397 4.92925 1.75C4.92925 1.33603 5.26537 1.00039 5.67925 1H10.3199ZM7.99956 4.75C5.58639 4.75009 4.3106 5.50815 3.5855 6.52734C2.83513 7.58221 2.56828 9.05968 2.51323 10.75H13.4859C13.4308 9.05958 13.1641 7.58222 12.4136 6.52734C11.6885 5.50819 10.4128 4.75 7.99956 4.75Z"
    fill="currentColor"
  />
</svg>
