<svg width="16" height="16" viewBox="0 0 16 16" fill="none" xmlns="http://www.w3.org/2000/svg" data-fui-icon="true">
  <path
    d="M10.3203 1C10.7344 1.00017 11.0703 1.33589 11.0703 1.75C11.0703 2.16411 10.7344 2.49983 10.3203 2.5H8.75V3.27539C11.0915 3.42473 12.6599 4.28536 13.6367 5.6582C14.6733 7.11557 14.9421 9.01572 14.9912 10.8125C15.0132 11.6166 14.3593 12.25 13.583 12.25H8.75V13.5H13.25C13.6642 13.5 14 13.8358 14 14.25C14 14.6642 13.6642 15 13.25 15H2.75C2.33598 14.9998 2 14.6641 2 14.25C2 13.8359 2.33598 13.5002 2.75 13.5H7.25V12.25H2.41699C1.64089 12.2498 0.98683 11.6165 1.00879 10.8125L1.03906 10.1348C1.13758 8.54759 1.45639 6.93332 2.36328 5.6582C3.33999 4.28532 4.9086 3.42482 7.25 3.27539V2.5H5.67969C5.26581 2.49961 4.92969 2.16397 4.92969 1.75C4.92969 1.33603 5.26581 1.00039 5.67969 1H10.3203ZM8 4.75C5.58683 4.75009 4.31104 5.50815 3.58594 6.52734C2.83557 7.58221 2.56872 9.05968 2.51367 10.75H13.4863C13.4313 9.05958 13.1645 7.58222 12.4141 6.52734C11.6889 5.50819 10.4133 4.75 8 4.75Z"
    fill="currentColor"
  />
</svg>
