<svg width="12" height="12" viewBox="0 0 12 12" fill="none" xmlns="http://www.w3.org/2000/svg" data-fui-icon="true">
  <g clip-path="url(#clip0_6111_21)">
    <path
      d="M7.25 0C7.66405 0.000190088 8 0.335904 8 0.75C8 1.1641 7.66405 1.49981 7.25 1.5H6.75V2.53418C8.58295 2.70335 9.84104 3.49255 10.6621 4.52051C11.5638 5.64957 11.8856 6.99659 11.9727 7.93164C12.0434 8.69178 11.4206 9.2498 10.75 9.25H6.75V10.5H10.25C10.6641 10.5002 11 10.8359 11 11.25C11 11.6641 10.6641 11.9998 10.25 12H1.75C1.33579 12 1 11.6642 1 11.25C1 10.8358 1.33579 10.5 1.75 10.5H5.25V9.25H1.25C0.579265 9.25 -0.0434392 8.69193 0.0273438 7.93164L0.0722656 7.56348C0.204407 6.66375 0.548685 5.50863 1.33789 4.52051C2.15902 3.49257 3.41697 2.70328 5.25 2.53418V1.5H4.75C4.33579 1.5 4 1.16421 4 0.75C4 0.335786 4.33579 0 4.75 0H7.25Z"
      fill="currentColor"
    />
  </g>
  <defs>
    <clipPath id="clip0_6111_21"><path fill="currentColor" d="M0 0H12V12H0z" /></clipPath>
  </defs>
</svg>
