<svg width="12" height="12" viewBox="0 0 12 12" fill="none" xmlns="http://www.w3.org/2000/svg" data-fui-icon="true">
  <path
    fill-rule="evenodd"
    clip-rule="evenodd"
    d="M7.54432 0C8.0966 0 8.54432 0.447716 8.54432 1C8.54432 1.55228 8.0966 2 7.54432 2H6.99842V2.54199C8.87161 2.70076 10.1495 3.32003 10.9535 4.30664C11.8584 5.41744 11.975 6.7797 11.9965 7.72754C12.0158 8.58392 11.3191 9.25 10.5014 9.25H6.99842V10H9.9994C10.5517 10 10.9994 10.4477 10.9994 11C10.9994 11.5523 10.5517 12 9.9994 12H1.9994C1.4473 11.9998 0.999397 11.5521 0.999397 11C0.999398 10.4479 1.4473 10.0002 1.9994 10H4.99842V9.25H1.4994C0.681858 9.24978 -0.0145674 8.58426 0.00428009 7.72852L0.017952 7.35449C0.0665533 6.44417 0.253679 5.27973 1.04432 4.30762C1.84748 3.32025 3.1251 2.70077 4.99842 2.54199V2H4.45155C3.89945 1.99978 3.45155 1.55215 3.45155 1C3.45155 0.447853 3.89945 0.000221751 4.45155 0H7.54432Z"
    fill="currentColor"
  />
</svg>
