<svg width="32" height="32" viewBox="0 0 32 32" fill="none" xmlns="http://www.w3.org/2000/svg" data-fui-icon="true">
  <path
    d="M24.25 0.75C27.0113 0.750197 29.25 2.9887 29.25 5.75V29.5908C29.2499 30.8043 27.9518 31.5756 26.8857 30.9961L21.6514 28.1494L16.8691 30.9961C16.3332 31.3149 15.6656 31.3143 15.1299 30.9951L10.3564 28.1504L5.11328 30.9971C4.04726 31.5759 2.75024 30.8048 2.75 29.5918V5.75C2.75 2.98858 4.98858 0.75 7.75 0.75H24.25ZM9.5 14.5C8.94772 14.5 8.5 14.9477 8.5 15.5C8.5 16.0523 8.94772 16.5 9.5 16.5H17.5C18.0523 16.5 18.5 16.0523 18.5 15.5C18.5 14.9477 18.0523 14.5 17.5 14.5H9.5ZM9.5 8.5C8.94772 8.5 8.5 8.94772 8.5 9.5C8.5 10.0523 8.94772 10.5 9.5 10.5H22.5C23.0523 10.5 23.5 10.0523 23.5 9.5C23.5 8.94772 23.0523 8.5 22.5 8.5H9.5Z"
    fill="currentColor"
  />
</svg>
