<svg width="24" height="24" viewBox="0 0 24 24" fill="none" xmlns="http://www.w3.org/2000/svg" data-fui-icon="true">
  <path
    fill-rule="evenodd"
    clip-rule="evenodd"
    d="M15.5646 1C15.9787 1 16.3145 1.3359 16.3146 1.75C16.3146 2.16421 15.9788 2.5 15.5646 2.5H12.7482V4.0166C14.8326 4.10643 16.5262 4.57305 17.8927 5.33691C19.4234 6.19273 20.5007 7.39688 21.2521 8.76367C22.7357 11.4627 22.9575 14.8203 22.9913 17.4912C23.0035 18.4686 22.2097 19.25 21.2472 19.25H12.7482V21.499H21.2472C21.6613 21.499 21.997 21.835 21.9972 22.249C21.9972 22.6632 21.6614 22.999 21.2472 22.999H2.74818C2.33415 22.9988 1.99818 22.6631 1.99818 22.249C1.99835 21.8351 2.33426 21.4992 2.74818 21.499H11.2482V19.25H2.74818C1.78584 19.2498 0.991914 18.4685 1.00404 17.4912C1.03792 14.8203 1.25968 11.4628 2.7433 8.76367C3.49469 7.3968 4.57194 6.1928 6.10268 5.33691C7.46937 4.57284 9.1633 4.10638 11.2482 4.0166V2.5H8.4308C8.01677 2.49978 7.6808 2.16408 7.6808 1.75C7.68093 1.33603 8.01685 1.00021 8.4308 1H15.5646ZM11.9982 5.5C9.76457 5.50005 8.09323 5.94317 6.8351 6.64648C5.58076 7.34784 4.69204 8.33249 4.05775 9.48633C2.77024 11.8287 2.53782 14.8468 2.50404 17.5098C2.50244 17.6365 2.60651 17.7498 2.74818 17.75H21.2472C21.3891 17.75 21.4939 17.6366 21.4923 17.5098C21.4585 14.8468 21.2252 11.8287 19.9376 9.48633C19.3034 8.33267 18.4154 7.34776 17.1613 6.64648C15.9032 5.94318 14.2317 5.50006 11.9982 5.5Z"
    fill="currentColor"
  />
</svg>
