<svg width="20" height="21" viewBox="0 0 20 21" fill="none" xmlns="http://www.w3.org/2000/svg" data-fui-icon="true">
  <path
    d="M16 0C17.6567 0.000197253 19 1.34327 19 3V18.6846C18.9999 19.6366 18.0095 20.2654 17.1475 19.8613L13.8799 18.3281L10.6191 19.8672C10.2273 20.052 9.77264 20.0522 9.38086 19.8672L6.12891 18.3281L2.85156 19.8623C1.98963 20.2657 1.00016 19.6372 1 18.6855V3C1 1.34315 2.34315 0 4 0H16ZM4 1.5C3.17157 1.5 2.5 2.17157 2.5 3V18.3701L5.59863 16.9209L5.72754 16.8691C5.98934 16.7804 6.27372 16.7803 6.53516 16.8701L6.66309 16.9229L10 18.5L13.3477 16.9219L13.4756 16.8701C13.7371 16.7806 14.0215 16.7801 14.2832 16.8691L14.4111 16.9209L17.5 18.3691V3C17.5 2.17169 16.8283 1.5002 16 1.5H4ZM10.25 9C10.6642 9 11 9.33579 11 9.75C11 10.1642 10.6642 10.5 10.25 10.5H5.75C5.33579 10.5 5 10.1642 5 9.75C5 9.33579 5.33579 9 5.75 9H10.25ZM14.25 5C14.6642 5 15 5.33579 15 5.75C15 6.16421 14.6642 6.5 14.25 6.5H5.75C5.33579 6.5 5 6.16421 5 5.75C5 5.33579 5.33579 5 5.75 5H14.25Z"
    fill="currentColor"
  />
</svg>
