<svg width="24" height="24" viewBox="0 0 24 24" fill="none" xmlns="http://www.w3.org/2000/svg" data-fui-icon="true">
  <path
    d="M18 0C20.2091 0 22 1.79086 22 4V22.0068C21.9997 23.2104 20.7206 23.983 19.6553 23.4229L16.2432 21.627L12.7979 23.458C12.2987 23.7232 11.7001 23.7226 11.2012 23.457L7.76367 21.6279L4.34375 23.4238C3.27836 23.9832 2 23.2102 2 22.0068V4C2 1.79086 3.79086 0 6 0H18ZM8 11C7.44772 11 7 11.4477 7 12C7 12.5523 7.44772 13 8 13H12C12.5523 13 13 12.5523 13 12C13 11.4477 12.5523 11 12 11H8ZM8 6C7.44772 6 7 6.44772 7 7C7 7.55228 7.44772 8 8 8H16C16.5523 8 17 7.55228 17 7C17 6.44772 16.5523 6 16 6H8Z"
    fill="currentColor"
  />
</svg>
