<svg width="20" height="20" viewBox="0 0 20 20" fill="none" xmlns="http://www.w3.org/2000/svg" data-fui-icon="true">
  <path
    d="M11.958 0.53125C12.228 0.322748 12.605 0.322858 12.875 0.53125L14.833 2.04492L16.791 0.53125C17.0172 0.356406 17.3234 0.326244 17.5801 0.452148C17.8368 0.578181 17.9999 0.838995 18 1.125V18.875C18 19.161 17.8368 19.4218 17.5801 19.5479C17.3233 19.6738 17.0173 19.6437 16.791 19.4688L14.833 17.9541L12.875 19.4688L12.7695 19.5371C12.5128 19.6741 12.1944 19.6513 11.958 19.4688L10 17.9541L8.04199 19.4688C7.80564 19.6513 7.48724 19.6741 7.23047 19.5371L7.125 19.4688L5.16602 17.9541L3.20898 19.4688C2.98273 19.6437 2.67666 19.6738 2.41992 19.5479C2.16317 19.4218 2 19.161 2 18.875V1.125C2.00005 0.838995 2.16317 0.578181 2.41992 0.452148C2.67662 0.326244 2.98275 0.356406 3.20898 0.53125L5.16602 2.04492L7.125 0.53125C7.39502 0.32285 7.77202 0.322756 8.04199 0.53125L10 2.04492L11.958 0.53125L12.416 1.125H12.417L11.958 0.53125ZM10.459 3.58691L10.3525 3.65527C10.1325 3.77261 9.86752 3.77262 9.64746 3.65527L9.54102 3.58691L7.58301 2.07227L5.625 3.58691L5.51953 3.65527C5.2627 3.79234 4.9444 3.76961 4.70801 3.58691L3.5 2.65234V17.3467L4.70801 16.4131C4.97802 16.2045 5.35492 16.2046 5.625 16.4131L7.58301 17.9268L9.54102 16.4131C9.81115 16.2043 10.1888 16.2043 10.459 16.4131L12.416 17.9268L14.375 16.4131L14.4805 16.3447C14.7373 16.2077 15.0556 16.2305 15.292 16.4131L16.5 17.3467V2.65234L15.292 3.58691C15.0556 3.7696 14.7373 3.79235 14.4805 3.65527L14.375 3.58691L12.416 2.07227L10.459 3.58691ZM10.75 12.75C11.1642 12.75 11.4999 13.0858 11.5 13.5C11.5 13.9142 11.1642 14.25 10.75 14.25H6.5C6.08579 14.25 5.75 13.9142 5.75 13.5C5.75007 13.0858 6.08583 12.75 6.5 12.75H10.75ZM13.5 9.25C13.9142 9.25 14.2499 9.58585 14.25 10C14.25 10.4142 13.9142 10.75 13.5 10.75H6.5C6.08579 10.75 5.75 10.4142 5.75 10C5.75007 9.58585 6.08583 9.25 6.5 9.25H13.5ZM13.5 5.75C13.9142 5.75 14.2499 6.08585 14.25 6.5C14.25 6.91421 13.9142 7.25 13.5 7.25H6.5C6.08579 7.25 5.75 6.91421 5.75 6.5C5.75007 6.08585 6.08583 5.75 6.5 5.75H13.5Z"
    fill="currentColor"
  />
</svg>
