<svg width="16" height="16" viewBox="0 0 16 16" fill="none" xmlns="http://www.w3.org/2000/svg" data-fui-icon="true">
  <path
    d="M10 1C10.5523 1 11 1.44772 11 2C11 2.55228 10.5523 3 10 3H9V3.54688C10.8219 3.7155 12.2417 4.35864 13.25 5.45801C14.4138 6.72707 14.8891 8.44998 14.9824 10.2822C15.032 11.2555 14.2388 12 13.333 12H9V13H13C13.5523 13 14 13.4477 14 14C14 14.5523 13.5523 15 13 15H3C2.44774 15 2 14.5523 2 14C2 13.4477 2.44774 13 3 13H7V12H2.66699C1.76123 12 0.968025 11.2555 1.01758 10.2822L1.04004 9.94043C1.17336 8.23666 1.65887 6.64784 2.75 5.45801C3.7583 4.35864 5.17811 3.71551 7 3.54688V3H6C5.44774 2.99997 5 2.55227 5 2C5 1.44773 5.44774 1.00003 6 1H10Z"
    fill="currentColor"
  />
</svg>
