<svg width="12" height="13" viewBox="0 0 12 13" fill="none" xmlns="http://www.w3.org/2000/svg" data-fui-icon="true">
  <path
    d="M9 0C10.1046 0 11 0.895431 11 2V10.7061C11 11.6264 10.0699 12.2558 9.21582 11.9131L7.86621 11.3711L6.64453 11.8711C6.23107 12.0403 5.76767 12.04 5.35449 11.8701L4.14062 11.3711L2.78223 11.9141C1.92842 12.2552 1.00002 11.6265 1 10.707V2C1 0.895432 1.89543 0 3 0H9ZM5 6C4.44772 6 4 6.44772 4 7C4 7.55228 4.44772 8 5 8H6C6.55228 8 7 7.55228 7 7C7 6.44772 6.55228 6 6 6H5ZM5 3C4.44772 3 4 3.44772 4 4C4 4.55228 4.44772 5 5 5H7C7.55228 5 8 4.55228 8 4C8 3.44772 7.55228 3 7 3H5Z"
    fill="currentColor"
  />
</svg>
