<svg width="12" height="12" viewBox="0 0 12 12" fill="none" xmlns="http://www.w3.org/2000/svg" data-fui-icon="true">
  <path
    d="M7.54297 0C8.09525 0 8.54297 0.447716 8.54297 1C8.54297 1.55228 8.09525 2 7.54297 2H6.99707V2.54199C8.87026 2.70076 10.1482 3.32003 10.9521 4.30664C11.8571 5.41744 11.9737 6.7797 11.9951 7.72754C12.0145 8.58392 11.3177 9.25 10.5 9.25H6.99707V10H9.99805C10.5503 10 10.998 10.4477 10.998 11C10.998 11.5523 10.5503 12 9.99805 12H1.99805C1.44595 11.9998 0.998047 11.5521 0.998047 11C0.998048 10.4479 1.44595 10.0002 1.99805 10H4.99707V9.25H1.49805C0.680508 9.24978 -0.0159178 8.58426 0.00292969 7.72852L0.0166016 7.35449C0.0652029 6.44417 0.252329 5.27973 1.04297 4.30762C1.84613 3.32025 3.12375 2.70077 4.99707 2.54199V2H4.4502C3.8981 1.99978 3.4502 1.55215 3.4502 1C3.4502 0.447853 3.8981 0.000221751 4.4502 0H7.54297Z"
    fill="currentColor"
  />
</svg>
