<svg width="24" height="24" viewBox="0 0 24 24" fill="none" xmlns="http://www.w3.org/2000/svg" data-fui-icon="true">
  <path
    fill-rule="evenodd"
    clip-rule="evenodd"
    d="M15.5022 1C16.0544 1.00016 16.5022 1.44781 16.5022 2C16.5022 2.55219 16.0544 2.99984 15.5022 3H13.0003V4.0293C17.164 4.2699 19.7087 6.0265 21.1722 8.52441C22.6869 11.1101 22.9506 14.3431 22.9944 16.9834C23.0131 18.1064 22.1009 18.9998 21.0022 19H13.0003V21H21.0022C21.5544 21.0002 22.0022 21.4478 22.0022 22C22.0022 22.5522 21.5544 22.9998 21.0022 23H3.00223C2.44995 23 2.00223 22.5523 2.00223 22C2.00223 21.4477 2.44995 21 3.00223 21H11.0003V19H3.00223C1.90345 19 0.991516 18.1064 1.01004 16.9834C1.05362 14.3434 1.31596 11.111 2.82938 8.52539C4.29192 6.02687 6.83573 4.26964 11.0003 4.0293V3H8.50223C7.94995 3 7.50223 2.55228 7.50223 2C7.50223 1.44772 7.94995 1 8.50223 1H15.5022ZM12.0003 6C7.84325 6 5.72233 7.54093 4.55497 9.53516C3.32776 11.6317 3.05404 14.392 3.01004 17H20.9944C20.9502 14.3925 20.6746 11.6327 19.4466 9.53613C18.2782 7.54169 16.1569 6.00019 12.0003 6Z"
    fill="currentColor"
  />
</svg>
