<svg width="12" height="13" viewBox="0 0 12 13" fill="none" xmlns="http://www.w3.org/2000/svg" data-fui-icon="true">
  <path
    d="M9 0C10.1046 0 11 0.895431 11 2V10.7061C11 11.6264 10.0699 12.2558 9.21582 11.9131L7.86621 11.3711L6.64453 11.8711C6.23107 12.0403 5.76767 12.04 5.35449 11.8701L4.14062 11.3711L2.78223 11.9141C1.92842 12.2552 1.00002 11.6265 1 10.707V2C1 0.895432 1.89543 0 3 0H9ZM3 9.67285L3.51074 9.46875C3.86975 9.32525 4.26574 9.30926 4.63281 9.41992L4.78906 9.47559L6.00098 9.97363L7.22266 9.47461L7.37793 9.41895C7.745 9.30892 8.14039 9.32585 8.49902 9.46973L9 9.66992V2H3V9.67285ZM6 6C6.55228 6 7 6.44772 7 7C7 7.55228 6.55228 8 6 8H4.5C3.94772 8 3.5 7.55228 3.5 7C3.5 6.44772 3.94772 6 4.5 6H6ZM7.5 3C8.05228 3 8.5 3.44772 8.5 4C8.5 4.55228 8.05228 5 7.5 5H4.5C3.94772 5 3.5 4.55228 3.5 4C3.5 3.44772 3.94772 3 4.5 3H7.5Z"
    fill="currentColor"
  />
</svg>
