<svg width="20" height="20" viewBox="0 0 20 20" fill="none" xmlns="http://www.w3.org/2000/svg" data-fui-icon="true">
  <path
    d="M12.5225 1C12.9365 1.00011 13.2723 1.33603 13.2725 1.75C13.2725 2.16414 12.9366 2.49989 12.5225 2.5H10.75V4.02148C13.9539 4.2048 16.0101 5.57114 17.2578 7.52441C18.5606 9.5642 18.9209 12.1493 18.9873 14.3945C19.0138 15.2925 18.2836 15.9999 17.416 16H10.75V17.499H17.249C17.6629 17.4991 17.9986 17.8352 17.999 18.249C17.999 18.6632 17.6632 18.999 17.249 18.999H2.75C2.33579 18.999 2 18.6632 2 18.249C2.00042 17.8352 2.33605 17.499 2.75 17.499H9.25V16H2.58301C1.71549 15.9998 0.986172 15.2924 1.0127 14.3945C1.07912 12.1492 1.4393 9.56424 2.74219 7.52441C3.98999 5.57106 6.04577 4.20465 9.25 4.02148V2.5H7.47754C7.06333 2.5 6.72754 2.16421 6.72754 1.75C6.72774 1.33595 7.06345 1 7.47754 1H12.5225ZM10 5.5C6.82273 5.5 5.04593 6.7039 4.00586 8.33203C2.92659 10.022 2.57589 12.2707 2.51172 14.4385C2.51129 14.4529 2.51541 14.4654 2.52734 14.4775C2.54019 14.4905 2.55891 14.4999 2.58301 14.5H17.416C17.4401 14.5 17.4588 14.4904 17.4717 14.4775C17.4835 14.4655 17.4887 14.4529 17.4883 14.4385C17.4241 12.2706 17.0725 10.022 15.9932 8.33203C14.9531 6.70391 13.1771 5.5001 10 5.5Z"
    fill="currentColor"
  />
</svg>
