<svg width="32" height="32" viewBox="0 0 32 32" fill="none" xmlns="http://www.w3.org/2000/svg" data-fui-icon="true">
  <path
    d="M24.25 1C26.8732 1.0002 29 3.12677 29 5.75V29.5908C28.9999 30.6146 27.9044 31.2653 27.0049 30.7764L21.6455 27.8623L16.7422 30.7812C16.2851 31.0533 15.7148 31.0534 15.2578 30.7812L10.3613 27.8623L4.99414 30.7783C4.09474 31.2665 3.00024 30.6151 3 29.5918V5.75C3 3.12665 5.12665 1 7.75 1H24.25ZM9.75 14C9.33579 14 9 14.3358 9 14.75C9 15.1642 9.33579 15.5 9.75 15.5H18.25C18.6642 15.5 19 15.1642 19 14.75C19 14.3358 18.6642 14 18.25 14H9.75ZM9.75 8C9.33579 8 9 8.33579 9 8.75C9 9.16421 9.33579 9.5 9.75 9.5H22.25C22.6642 9.5 23 9.16421 23 8.75C23 8.33579 22.6642 8 22.25 8H9.75Z"
    fill="currentColor"
  />
</svg>
