<svg width="20" height="21" viewBox="0 0 20 21" fill="none" xmlns="http://www.w3.org/2000/svg" data-fui-icon="true">
  <path
    d="M16 0C17.6567 0.000197253 19 1.34327 19 3V18.6719C19 19.2689 18.6143 19.6942 18.2031 19.8857C17.7961 20.0751 17.2485 20.0943 16.793 19.7754C16.0478 19.2535 15.0665 18.7501 14.125 18.75C13.2622 18.75 12.8711 18.9837 12.4043 19.2666C11.8576 19.5979 11.211 19.9999 10 20C8.78901 20 8.14242 19.5979 7.5957 19.2666C7.12889 18.9837 6.73766 18.7501 5.875 18.75C4.9335 18.75 3.95223 19.2535 3.20703 19.7754C2.75152 20.0944 2.20393 20.0751 1.79688 19.8857C1.38559 19.6942 1 19.269 1 18.6719V3C1 1.34315 2.34315 0 4 0H16ZM4 1.5C3.17157 1.5 2.5 2.17157 2.5 3V18.4443C3.32189 17.8916 4.5468 17.25 5.875 17.25C7.13675 17.2501 7.80876 17.6414 8.37305 17.9834C8.85736 18.2769 9.21143 18.5 10 18.5C10.7885 18.4999 11.1426 18.277 11.627 17.9834C12.1912 17.6414 12.8632 17.25 14.125 17.25C15.4532 17.2501 16.6782 17.8916 17.5 18.4443V3C17.5 2.17169 16.8283 1.5002 16 1.5H4ZM10.25 9C10.6642 9 11 9.33579 11 9.75C11 10.1642 10.6642 10.5 10.25 10.5H5.75C5.33579 10.5 5 10.1642 5 9.75C5 9.33579 5.33579 9 5.75 9H10.25ZM14.25 5C14.6642 5 15 5.33579 15 5.75C15 6.16421 14.6642 6.5 14.25 6.5H5.75C5.33579 6.5 5 6.16421 5 5.75C5 5.33579 5.33579 5 5.75 5H14.25Z"
    fill="currentColor"
  />
</svg>
