<svg width="16" height="16" viewBox="0 0 16 16" fill="none" xmlns="http://www.w3.org/2000/svg" data-fui-icon="true">
  <path
    d="M12.5 0C13.8805 0.00019725 15 1.11941 15 2.5V14.5C15 15.134 14.5538 15.5436 14.1426 15.7061C13.7346 15.8669 13.1688 15.8688 12.7275 15.501C12.196 15.0578 11.6254 14.7501 11.125 14.75C10.823 14.75 10.6265 14.8062 10.4785 14.875C10.3176 14.9499 10.1812 15.0535 9.98438 15.2109C9.58013 15.5343 9.02724 15.9999 8 16C6.97271 16 6.4199 15.5344 6.01562 15.2109C5.81879 15.0535 5.68237 14.9499 5.52148 14.875C5.37348 14.8062 5.17703 14.75 4.875 14.75C4.37455 14.75 3.80407 15.0577 3.27246 15.501C2.83127 15.8689 2.26545 15.8669 1.85742 15.7061C1.44609 15.5437 1 15.1341 1 14.5V2.5C1 1.11929 2.11929 0 3.5 0H12.5ZM3.5 1.5C2.94772 1.5 2.5 1.94772 2.5 2.5V14.1982C3.0986 13.7339 3.93524 13.25 4.875 13.25C5.38495 13.25 5.79856 13.3502 6.1543 13.5156C6.49693 13.6751 6.75956 13.8842 6.95312 14.0391C7.32993 14.3405 7.52757 14.5 8 14.5C8.47226 14.4999 8.67002 14.3405 9.04688 14.0391C9.24047 13.8842 9.50305 13.675 9.8457 13.5156C10.2015 13.3502 10.615 13.25 11.125 13.25C12.0647 13.2501 12.9015 13.7339 13.5 14.1982V2.5C13.5 1.94784 13.0521 1.5002 12.5 1.5H3.5ZM8.25 7C8.66421 7 9 7.33579 9 7.75C9 8.16421 8.66421 8.5 8.25 8.5H4.75C4.33579 8.5 4 8.16421 4 7.75C4 7.33579 4.33579 7 4.75 7H8.25ZM11.25 3.5C11.6642 3.5 12 3.83579 12 4.25C12 4.66421 11.6642 5 11.25 5H4.75C4.33579 5 4 4.66421 4 4.25C4 3.83579 4.33579 3.5 4.75 3.5H11.25Z"
    fill="currentColor"
  />
</svg>
