<svg width="24" height="25" viewBox="0 0 24 25" fill="none" xmlns="http://www.w3.org/2000/svg" data-fui-icon="true">
  <path
    d="M19.25 0C21.3209 0.000197257 23 1.67905 23 3.75V22.6465C23 23.6402 21.9624 24.2935 21.0664 23.8643L16.832 21.832L12.6328 23.8672C12.2333 24.0608 11.7666 24.06 11.3672 23.8662L7.17676 21.832L2.93262 23.8652C2.03662 24.2939 1 23.6408 1 22.6475V3.75C1 1.67893 2.67893 0 4.75 0H19.25ZM6.75 10.5C6.33579 10.5 6 10.8358 6 11.25C6 11.6642 6.33579 12 6.75 12H12.25C12.6642 12 13 11.6642 13 11.25C13 10.8358 12.6642 10.5 12.25 10.5H6.75ZM6.75 5.5C6.33579 5.5 6 5.83579 6 6.25C6 6.66421 6.33579 7 6.75 7H17.25C17.6642 7 18 6.66421 18 6.25C18 5.83579 17.6642 5.5 17.25 5.5H6.75Z"
    fill="currentColor"
  />
</svg>
