<svg width="32" height="32" viewBox="0 0 32 32" fill="none" xmlns="http://www.w3.org/2000/svg" data-fui-icon="true">
  <path
    d="M24 1C26.7614 1 29 3.23858 29 6V29.2412C28.9998 30.4545 27.7018 31.226 26.6357 30.6465L21.5371 27.875L16.8691 30.6514C16.3332 30.9701 15.6656 30.9706 15.1299 30.6514L10.4707 27.874L5.36328 30.6475C4.29717 31.2261 3 30.4542 3 29.2412V6C3 3.23858 5.23858 1 8 1H24ZM8 3C6.34315 3 5 4.34315 5 6V28.5684L9.76758 25.9814C10.1746 25.7606 10.6573 25.7416 11.0762 25.9219L11.251 26.0117L16 28.8408L20.7598 26.0107L20.9346 25.9219C21.2937 25.7676 21.6996 25.7592 22.0645 25.8994L22.2422 25.9824L27 28.5684V6C27 4.34315 25.6569 3 24 3H8ZM18.25 14C18.8023 14 19.25 14.4477 19.25 15C19.25 15.5523 18.8023 16 18.25 16H9.75C9.19772 16 8.75 15.5523 8.75 15C8.75 14.4477 9.19772 14 9.75 14H18.25ZM22.25 8C22.8023 8 23.25 8.44772 23.25 9C23.25 9.55229 22.8023 10 22.25 10H9.75C9.19772 10 8.75 9.55229 8.75 9C8.75 8.44772 9.19772 8 9.75 8H22.25Z"
    fill="currentColor"
  />
</svg>
