<svg width="16" height="16" viewBox="0 0 16 16" fill="none" xmlns="http://www.w3.org/2000/svg" data-fui-icon="true">
  <path
    d="M12.5 0C13.8805 0.00019725 15 1.11941 15 2.5V14.5C15 15.134 14.5538 15.5436 14.1426 15.7061C13.7346 15.8669 13.1688 15.8688 12.7275 15.501C12.196 15.0578 11.6254 14.7501 11.125 14.75C10.823 14.75 10.6265 14.8062 10.4785 14.875C10.3176 14.9499 10.1812 15.0535 9.98438 15.2109C9.58013 15.5343 9.02724 15.9999 8 16C6.97271 16 6.4199 15.5344 6.01562 15.2109C5.81879 15.0535 5.68237 14.9499 5.52148 14.875C5.37348 14.8062 5.17703 14.75 4.875 14.75C4.37455 14.75 3.80407 15.0577 3.27246 15.501C2.83127 15.8689 2.26545 15.8669 1.85742 15.7061C1.44609 15.5437 1 15.1341 1 14.5V2.5C1 1.11929 2.11929 0 3.5 0H12.5ZM4.75 7C4.33579 7 4 7.33579 4 7.75C4 8.16421 4.33579 8.5 4.75 8.5H8.25C8.66421 8.5 9 8.16421 9 7.75C9 7.33579 8.66421 7 8.25 7H4.75ZM4.75 3.5C4.33579 3.5 4 3.83579 4 4.25C4 4.66421 4.33579 5 4.75 5H11.25C11.6642 5 12 4.66421 12 4.25C12 3.83579 11.6642 3.5 11.25 3.5H4.75Z"
    fill="currentColor"
  />
</svg>
