<svg width="20" height="20" viewBox="0 0 20 20" fill="none" xmlns="http://www.w3.org/2000/svg" data-fui-icon="true">
  <path
    fill-rule="evenodd"
    clip-rule="evenodd"
    d="M12.5222 1C12.9362 1.00011 13.272 1.33603 13.2722 1.75C13.2722 2.16414 12.9363 2.49989 12.5222 2.5H10.7497V4.02148C13.9536 4.2048 16.0098 5.57114 17.2575 7.52441C18.5603 9.5642 18.9206 12.1493 18.987 14.3945C19.0135 15.2925 18.2833 15.9999 17.4157 16H10.7497V17.499H17.2487C17.6626 17.4991 17.9983 17.8352 17.9987 18.249C17.9987 18.6632 17.6629 18.999 17.2487 18.999H2.74972C2.33551 18.999 1.99972 18.6632 1.99972 18.249C2.00015 17.8352 2.33577 17.499 2.74972 17.499H9.24972V16H2.58273C1.71521 15.9998 0.985897 15.2924 1.01242 14.3945C1.07885 12.1492 1.43902 9.56424 2.74191 7.52441C3.98971 5.57106 6.0455 4.20465 9.24972 4.02148V2.5H7.47726C7.06305 2.5 6.72726 2.16421 6.72726 1.75C6.72746 1.33595 7.06317 1 7.47726 1H12.5222ZM9.99972 5.5C6.82246 5.5 5.04566 6.7039 4.00558 8.33203C2.92632 10.022 2.57561 12.2707 2.51144 14.4385C2.51102 14.4529 2.51514 14.4654 2.52707 14.4775C2.53992 14.4905 2.55864 14.4999 2.58273 14.5H17.4157C17.4398 14.5 17.4585 14.4904 17.4714 14.4775C17.4833 14.4655 17.4884 14.4529 17.488 14.4385C17.4238 12.2706 17.0723 10.022 15.9929 8.33203C14.9529 6.70391 13.1768 5.5001 9.99972 5.5Z"
    fill="currentColor"
  />
</svg>
