<svg width="12" height="12" viewBox="0 0 12 12" fill="none" xmlns="http://www.w3.org/2000/svg" data-fui-icon="true">
  <path
    d="M7.54492 0C8.09721 0 8.54492 0.447716 8.54492 1C8.54492 1.55228 8.09721 2 7.54492 2H6.99902V2.54199C8.87232 2.70077 10.1502 3.31993 10.9541 4.30664C11.859 5.41744 11.9757 6.7797 11.9971 7.72754C12.0164 8.58392 11.3197 9.25 10.502 9.25H6.99902V10H10C10.5523 10 11 10.4477 11 11C11 11.5523 10.5523 12 10 12H2C1.44774 12 1 11.5523 1 11C1 10.4477 1.44775 10 2 10H4.99902V9.25H1.5C0.682309 9.24996 -0.0139716 8.58438 0.00488281 7.72852L0.0185547 7.35449C0.0671588 6.44412 0.254166 5.27977 1.04492 4.30762C1.84813 3.32019 3.12552 2.70073 4.99902 2.54199V2H4.45215C3.89989 1.99997 3.45215 1.55226 3.45215 1C3.45215 0.447737 3.89989 3.47881e-05 4.45215 0H7.54492ZM5.99902 4.5C3.90556 4.50001 3.01443 5.05599 2.59668 5.56934C2.2361 6.01263 2.08808 6.58765 2.03223 7.25H9.96973C9.91345 6.58821 9.76451 6.01368 9.40332 5.57031C8.98458 5.05632 8.09261 4.50005 5.99902 4.5Z"
    fill="currentColor"
  />
</svg>
