<svg width="16" height="16" viewBox="0 0 16 16" fill="none" xmlns="http://www.w3.org/2000/svg" data-fui-icon="true">
  <path
    d="M10.3203 1C10.7344 1.00019 11.0703 1.3359 11.0703 1.75C11.0703 2.1641 10.7344 2.49981 10.3203 2.5H8.75V3.27539C11.0916 3.42475 12.66 4.28525 13.6367 5.6582C14.6733 7.11557 14.9421 9.01572 14.9912 10.8125C15.0132 11.6166 14.3593 12.25 13.583 12.25H8.75V13.5H13.25C13.6642 13.5 14 13.8358 14 14.25C14 14.6642 13.6642 15 13.25 15H2.75C2.33579 15 2 14.6642 2 14.25C2 13.8358 2.33579 13.5 2.75 13.5H7.25V12.25H2.41699C1.6407 12.25 0.98682 11.6166 1.00879 10.8125L1.03906 10.1348C1.13758 8.54751 1.45629 6.93335 2.36328 5.6582C3.34005 4.28525 4.90838 3.42474 7.25 3.27539V2.5H5.67969C5.26562 2.49983 4.92969 2.16411 4.92969 1.75C4.92969 1.33589 5.26562 1.00017 5.67969 1H10.3203Z"
    fill="currentColor"
  />
</svg>
