<svg width="20" height="20" viewBox="0 0 20 20" fill="none" xmlns="http://www.w3.org/2000/svg" data-fui-icon="true">
  <path
    d="M17 12.6367C18.5188 12.6367 19.75 13.8679 19.75 15.3867V16.2959C19.7497 16.7098 19.414 17.0459 19 17.0459C18.586 17.0459 18.2503 16.7098 18.25 16.2959V15.3867C18.25 14.6964 17.6904 14.1367 17 14.1367H3C2.30964 14.1367 1.75 14.6964 1.75 15.3867V16.2959C1.74969 16.7098 1.41402 17.0459 1 17.0459C0.585979 17.0459 0.250311 16.7098 0.25 16.2959V15.3867C0.250001 13.8679 1.48122 12.6367 3 12.6367H17ZM17 2C18.5188 2 19.75 3.23122 19.75 4.75V8.11328C19.75 9.63206 18.5188 10.8633 17 10.8633H3C1.48122 10.8633 0.25 9.63206 0.25 8.11328V4.75C0.250001 3.23122 1.48122 2 3 2H17ZM3 3.5C2.30964 3.5 1.75 4.05964 1.75 4.75V8.11328C1.75 8.80364 2.30964 9.36328 3 9.36328H17C17.6904 9.36328 18.25 8.80364 18.25 8.11328V4.75C18.25 4.05964 17.6904 3.5 17 3.5H3Z"
    fill="currentColor"
  />
</svg>
