<svg width="24" height="24" viewBox="0 0 24 24" fill="none" xmlns="http://www.w3.org/2000/svg" data-fui-icon="true">
  <path
    d="M12 0.5C16.943 0.500103 21.1559 3.61885 22.7822 7.99316C22.8473 8.16815 22.9092 8.34552 22.9658 8.52441C23.3133 9.62183 23.5 10.7898 23.5 12C23.5 13.2102 23.3133 14.3782 22.9658 15.4756C22.9092 15.6545 22.8473 15.8318 22.7822 16.0068C21.1559 20.3811 16.9431 23.4999 12 23.5C7.057 23.4999 2.84407 20.3811 1.21777 16.0068C1.07372 15.6188 1.27128 15.1874 1.65918 15.043C2.04736 14.8988 2.47969 15.0962 2.62402 15.4844C4.039 19.2902 7.70396 21.9999 12 22C16.2961 21.9999 19.962 19.2903 21.377 15.4844C21.4334 15.3325 21.486 15.1787 21.5352 15.0234C21.8369 14.0706 22 13.0549 22 12C22 10.9451 21.8369 9.92936 21.5352 8.97656C21.486 8.82131 21.4334 8.6675 21.377 8.51562C19.962 4.70973 16.2961 2.0001 12 2C7.90087 2.00011 4.37765 4.46771 2.83398 8H5.5C5.91421 8 6.25 8.33579 6.25 8.75C6.25 9.16421 5.91421 9.5 5.5 9.5H1.25C0.835786 9.5 0.5 9.16421 0.5 8.75V3.5C0.5 3.08579 0.835786 2.75 1.25 2.75C1.66421 2.75 2 3.08579 2 3.5V6.32031C3.97793 2.84547 7.71405 0.500104 12 0.5ZM12.0078 5.08594C12.422 5.08595 12.7578 5.42173 12.7578 5.83594V6.42773C14.9667 6.6933 15.9006 8.11694 16.0928 9.01367C16.1794 9.41872 15.9207 9.81764 15.5156 9.9043C15.111 9.99041 14.7128 9.73268 14.626 9.32812C14.5671 9.05392 14.1689 8.17898 12.7578 7.94434V11.4004C13.4078 11.5293 14.1013 11.7027 14.6719 12.0146C15.068 12.2314 15.4387 12.5306 15.7061 12.9551C15.9756 13.3834 16.1093 13.8905 16.1094 14.4678C16.1091 15.8801 14.9006 17.3367 12.7578 17.6143V18.1602C12.7578 18.5743 12.422 18.9101 12.0078 18.9102C11.5938 18.9099 11.2579 18.5742 11.2578 18.1602V17.6152C10.2854 17.4928 9.55465 17.1359 9.02051 16.6787C8.37032 16.1219 8.06207 15.463 7.92578 15.0479C7.79737 14.6549 8.01163 14.231 8.4043 14.1016C8.7976 13.9725 9.22208 14.187 9.35156 14.5801C9.43005 14.8192 9.61312 15.211 9.99609 15.5391C10.2654 15.7696 10.6641 15.9923 11.2578 16.0977V12.6455C10.6079 12.5166 9.91436 12.3434 9.34375 12.0312C8.94755 11.8144 8.57687 11.5146 8.30957 11.0898C8.04025 10.6616 7.90625 10.1552 7.90625 9.57812C7.90654 8.16583 9.11677 6.70989 11.2578 6.43164V5.83594C11.2578 5.42188 11.5938 5.08619 12.0078 5.08594ZM12.7578 16.0986C14.1515 15.854 14.6091 14.9422 14.6094 14.4678C14.6093 14.1287 14.5334 13.9079 14.4365 13.7539C14.3374 13.5968 14.1835 13.4567 13.9521 13.3301C13.634 13.1562 13.2322 13.0407 12.7578 12.9365V16.0986ZM11.2578 7.94824C9.86535 8.19356 9.40658 9.10446 9.40625 9.57812C9.40625 9.91693 9.48234 10.137 9.5791 10.291C9.67812 10.4484 9.83191 10.589 10.0635 10.7158C10.3815 10.8898 10.7835 11.0052 11.2578 11.1094V7.94824Z"
    fill="currentColor"
  />
</svg>
