<svg width="16" height="16" viewBox="0 0 16 16" fill="none" xmlns="http://www.w3.org/2000/svg" data-fui-icon="true">
  <path
    d="M8 0.5C11.1914 0.500016 13.9143 2.49317 14.998 5.29785C15.3226 6.13787 15.5 7.0497 15.5 8C15.5 8.9503 15.3226 9.86213 14.998 10.7021C13.9143 13.5068 11.1914 15.5 8 15.5C4.80861 15.5 2.08569 13.5068 1.00195 10.7021C0.753364 10.0583 1.07393 9.33472 1.71777 9.08594C2.36165 8.83734 3.0852 9.15791 3.33398 9.80176C4.0569 11.6723 5.87079 12.9954 7.99121 12.999C7.44117 12.9964 6.99512 12.5507 6.99512 12V11.8672C6.52 11.7346 6.12965 11.5116 5.82129 11.2324C5.54475 10.9819 5.35501 10.7078 5.22754 10.4658C4.97072 9.97751 5.15854 9.37273 5.64648 9.11523C6.13498 8.85796 6.73958 9.04583 6.99707 9.53418C7.03503 9.6062 7.08963 9.68251 7.16406 9.75C7.27625 9.85147 7.50754 9.99984 8.00098 10C8.47137 10 8.72524 9.85838 8.84766 9.74902C8.98403 9.6269 9 9.51446 9 9.5C9 9.43388 8.99197 9.39306 8.98633 9.37109C8.98112 9.35097 8.97618 9.34151 8.97461 9.33887C8.97244 9.33527 8.95537 9.30933 8.88477 9.26953C8.68349 9.15634 8.36451 9.08528 7.81641 8.98242C7.36582 8.89788 6.68352 8.78103 6.13574 8.47266C5.8372 8.30445 5.53833 8.06062 5.32031 7.7041C5.10045 7.34428 5.00293 6.9345 5.00293 6.5C5.00293 6.49772 5.00292 6.49544 5.00293 6.49316C4.77515 6.8 4.4115 7 4 7H1.75C1.05968 7 0.500065 6.4403 0.5 5.75V3C0.5 2.30964 1.05964 1.75 1.75 1.75C2.26396 1.75 2.70441 2.06053 2.89648 2.50391C4.23454 1.26065 6.02801 0.5 8 0.5ZM7.99707 3C8.54868 3.00079 8.99609 3.4482 8.99609 4V4.12402C9.95565 4.37784 10.5399 4.98508 10.8174 5.57324C11.0527 6.07259 10.839 6.66863 10.3398 6.9043C9.84048 7.1396 9.24442 6.92596 9.00879 6.42676C8.97999 6.36574 8.91368 6.2668 8.78125 6.18164C8.65368 6.09983 8.41731 6.00008 8.00195 6C7.53166 6.00007 7.27806 6.14233 7.15527 6.25195C7.01853 6.37435 7.00293 6.48614 7.00293 6.5C7.00293 6.56599 7.00999 6.60691 7.01562 6.62891C7.02086 6.6491 7.02579 6.65855 7.02734 6.66113C7.02896 6.66378 7.04581 6.6897 7.11816 6.73047C7.31945 6.84355 7.63778 6.91478 8.18555 7.01758C8.63606 7.10211 9.31835 7.21901 9.86621 7.52734C10.1647 7.69553 10.4626 7.93946 10.6807 8.2959C10.9007 8.65582 11 9.06532 11 9.5C11 10.5475 10.2359 11.5228 8.99609 11.8672V12C8.99609 12.5521 8.54815 12.9988 7.99609 12.999C7.9974 12.999 7.9987 13 8 13C10.1242 13 11.9421 11.6749 12.666 9.80176C12.8813 9.24451 13 8.63743 13 8C13 7.36257 12.8813 6.75549 12.666 6.19824C11.9421 4.3251 10.1242 3.00002 8 3H7.99707ZM7.99316 3C6.57046 3.0019 5.28706 3.5996 4.37695 4.55664C4.81619 4.69529 5.14861 5.0713 5.22949 5.5332C5.54108 4.89484 6.1598 4.37129 6.99609 4.13574V4C6.99609 3.44869 7.44222 3.00158 7.99316 3Z"
    fill="currentColor"
  />
</svg>
