<svg width="32" height="32" viewBox="0 0 32 32" fill="none" xmlns="http://www.w3.org/2000/svg" data-fui-icon="true">
  <path
    d="M16 0.5C22.7175 0.500104 28.4351 4.77321 30.5869 10.7461C30.6495 10.9198 30.7091 11.095 30.7656 11.2715C31.243 12.7634 31.5 14.3527 31.5 16C31.5 17.6473 31.243 19.2366 30.7656 20.7285C30.7091 20.905 30.6495 21.0802 30.5869 21.2539C28.4351 27.2268 22.7175 31.4999 16 31.5C9.28257 31.4999 3.56589 27.2267 1.41406 21.2539C1.35149 21.0802 1.29184 20.905 1.23535 20.7285C1.06703 20.2025 1.35682 19.64 1.88281 19.4717C2.40876 19.3035 2.97135 19.5932 3.13965 20.1191C3.18881 20.2728 3.24144 20.425 3.2959 20.5762C5.17103 25.7809 10.1523 29.4999 16 29.5C21.8478 29.4999 26.83 25.781 28.7051 20.5762C28.7595 20.4251 28.8112 20.2727 28.8604 20.1191C29.2755 18.8219 29.5 17.438 29.5 16C29.5 14.562 29.2755 13.1781 28.8604 11.8809C28.8112 11.7273 28.7595 11.5749 28.7051 11.4238C26.83 6.219 21.8478 2.5001 16 2.5C10.3125 2.50013 5.44563 6.01859 3.45801 11H7.75C8.30228 11 8.75 11.4477 8.75 12C8.75 12.5523 8.30228 13 7.75 13H1.5C0.947715 13 0.5 12.5523 0.5 12V5C0.5 4.44772 0.947715 4 1.5 4C2.05228 4 2.5 4.44772 2.5 5V8.38477C5.15993 3.67927 10.2069 0.500114 16 0.5ZM16.0273 6.30762C16.5794 6.30784 17.0273 6.75547 17.0273 7.30762V7.96387C20.1853 8.32793 21.493 10.3947 21.7568 11.6553C21.8697 12.1956 21.5236 12.7256 20.9834 12.8389C20.443 12.9518 19.913 12.6048 19.7998 12.0645C19.7062 11.6181 19.1021 10.3066 17.0273 9.98145V15.1641C17.9634 15.3519 18.9626 15.6029 19.7812 16.0605C20.3377 16.3717 20.8521 16.7983 21.2217 17.3984C21.5932 18.002 21.7783 18.7156 21.7783 19.5342C21.7782 21.5237 20.0905 23.6346 17.0273 24.0146V24.6768C17.0272 25.2288 16.5793 25.6765 16.0273 25.6768C15.4752 25.6768 15.0275 25.2289 15.0273 24.6768V24.0176C13.6263 23.8485 12.5819 23.3279 11.8242 22.665C10.9152 21.8697 10.487 20.9316 10.2979 20.3428C10.1291 19.8171 10.4188 19.254 10.9443 19.085C11.47 18.9163 12.0333 19.2058 12.2021 19.7314C12.3177 20.091 12.5852 20.6733 13.1416 21.1602C13.5439 21.512 14.1385 21.8491 15.0273 21.9971V16.8184C14.0909 16.6305 13.0902 16.3815 12.2715 15.9238C11.7152 15.6128 11.2006 15.1868 10.8311 14.5869C10.4593 13.9833 10.2745 13.269 10.2744 12.4502C10.2744 10.4603 11.9653 8.34839 15.0273 7.96777V7.30762C15.0273 6.75533 15.4751 6.30762 16.0273 6.30762ZM17.0273 21.9971C19.071 21.658 19.7782 20.297 19.7783 19.5342C19.7783 19.025 19.6665 18.6866 19.5186 18.4463C19.3685 18.2027 19.1398 17.9925 18.8057 17.8057C18.3327 17.5413 17.7341 17.3653 17.0273 17.21V21.9971ZM15.0273 9.98633C12.9835 10.3259 12.2744 11.6883 12.2744 12.4502C12.2744 12.9594 12.3862 13.2978 12.5342 13.5381C12.6843 13.7817 12.9138 13.9918 13.248 14.1787C13.7211 14.443 14.3206 14.6171 15.0273 14.7725V9.98633Z"
    fill="currentColor"
  />
</svg>
