<svg width="16" height="16" viewBox="0 0 16 16" fill="none" xmlns="http://www.w3.org/2000/svg" data-fui-icon="true">
  <path
    d="M8.00098 0.5C11.4729 0.500394 14.3922 2.85929 15.2471 6.06055C15.4124 6.6799 15.501 7.33045 15.501 8C15.501 8.66955 15.4124 9.3201 15.2471 9.93945C14.3922 13.1407 11.4729 15.4996 8.00098 15.5C4.5287 15.5 1.60883 13.1409 0.753906 9.93945C0.64706 9.53926 0.88496 9.12833 1.28516 9.02148C1.68521 8.91494 2.09632 9.15269 2.20312 9.55273C2.88727 12.1142 5.22514 14 8.00098 14C10.7765 13.9996 13.1138 12.114 13.7979 9.55273C13.9298 9.05847 14.001 8.53776 14.001 8C14.001 7.46224 13.9298 6.94153 13.7979 6.44727C13.1138 3.88599 10.7765 2.00039 8.00098 2C5.58019 2 3.49217 3.43417 2.54395 5.5H3.5C3.91418 5.5 4.24995 5.83583 4.25 6.25C4.24995 6.66417 3.91418 7 3.5 7H1.25C0.835819 7 0.500052 6.66417 0.5 6.25V3.5C0.5 3.08579 0.835786 2.75 1.25 2.75C1.66421 2.75 2 3.08579 2 3.5V3.50098C3.36817 1.67916 5.5465 0.5 8.00098 0.5ZM8 3.25C8.414 3.25025 8.75 3.58594 8.75 4V4.32324C10.026 4.58074 10.6063 5.48083 10.7344 6.09766C10.8184 6.50303 10.5576 6.90003 10.1523 6.98438C9.74698 7.0682 9.34979 6.80769 9.26562 6.40234C9.24937 6.32451 9.04766 5.7502 8.00586 5.75C6.97356 5.75019 6.76074 6.33951 6.76074 6.5C6.76074 6.66608 6.79613 6.74909 6.82227 6.79199C6.84981 6.83693 6.89935 6.89029 7.00195 6.94824C7.24579 7.08563 7.60941 7.1621 8.14453 7.2627C8.60637 7.3495 9.24224 7.46096 9.74609 7.74512C10.0165 7.89773 10.2783 8.11485 10.4688 8.42676C10.6606 8.74126 10.751 9.10399 10.751 9.5C10.751 10.4623 10.0063 11.4001 8.75098 11.6699V12C8.75098 12.4139 8.41479 12.7495 8.00098 12.75C7.58676 12.75 7.25098 12.4142 7.25098 12V11.6699C6.74121 11.5606 6.33512 11.3451 6.02246 11.0693C5.58328 10.6817 5.37723 10.2264 5.28613 9.94043C5.16053 9.54577 5.37878 9.12371 5.77344 8.99805C6.16786 8.87302 6.59025 9.09098 6.71582 9.48535C6.75269 9.601 6.83893 9.78912 7.01465 9.94434C7.17619 10.0867 7.46647 10.25 8.00684 10.25C9.03798 10.2496 9.25098 9.66107 9.25098 9.5C9.25098 9.33418 9.21558 9.25097 9.18945 9.20801C9.16197 9.16302 9.11157 9.10983 9.00879 9.05176C8.76506 8.9144 8.40198 8.83785 7.86719 8.7373C7.40548 8.65051 6.76959 8.5389 6.26562 8.25488C5.99513 8.10227 5.73254 7.88527 5.54199 7.57324C5.35005 7.25871 5.26074 6.89605 5.26074 6.5C5.26074 5.54003 6.00157 4.60497 7.25 4.33203V4C7.25 3.58594 7.586 3.25025 8 3.25Z"
    fill="currentColor"
  />
</svg>
