<svg width="20" height="20" viewBox="0 0 20 20" fill="none" xmlns="http://www.w3.org/2000/svg" data-fui-icon="true">
  <path
    d="M10 0.5C14.0678 0.500205 17.537 3.05705 18.8916 6.64746C19.2853 7.69126 19.5 8.82176 19.5 10C19.5 11.1782 19.2853 12.3087 18.8916 13.3525C17.537 16.943 14.0678 19.4998 10 19.5C5.93223 19.4998 2.46406 16.9429 1.10938 13.3525C0.914689 12.8359 1.17578 12.2594 1.69238 12.0645C2.20891 11.8701 2.78561 12.131 2.98047 12.6475C4.05113 15.4846 6.79161 17.4998 10 17.5C13.2084 17.4998 15.9499 15.4847 17.0205 12.6475C17.3305 11.8257 17.5 10.9336 17.5 10C17.5 9.06643 17.3305 8.17428 17.0205 7.35254C15.9499 4.51534 13.2084 2.5002 10 2.5C7.32992 2.50013 4.98444 3.89641 3.65527 6H4.5C5.05228 6 5.5 6.44772 5.5 7C5.5 7.55228 5.05228 8 4.5 8H1.5C0.947715 8 0.5 7.55228 0.5 7V3C0.5 2.44772 0.947715 2 1.5 2C2.05228 2 2.5 2.44772 2.5 3V4.16797C4.23771 1.93633 6.95088 0.500116 10 0.5ZM9.99609 3.71973C10.5482 3.71996 10.9961 4.16758 10.9961 4.71973V4.92773C12.7528 5.28091 13.5374 6.54079 13.708 7.37793C13.818 7.91882 13.4684 8.44712 12.9277 8.55762C12.3868 8.6676 11.8584 8.31822 11.748 7.77734C11.7278 7.67866 11.5759 7.25494 10.9961 7.00977V9.20605C11.4588 9.31551 11.9502 9.46786 12.373 9.71094C12.7416 9.92297 13.0958 10.2224 13.3516 10.6494C13.6084 11.0787 13.7275 11.5741 13.7275 12.1162C13.7274 13.4249 12.7255 14.7388 10.9961 15.1084V15.2803C10.9961 15.8324 10.5482 16.28 9.99609 16.2803C9.44403 16.28 8.9961 15.8324 8.99609 15.2803V15.1104C8.28411 14.9603 7.72074 14.6531 7.29004 14.2656C6.69522 13.7302 6.41814 13.1023 6.2959 12.7109C6.1317 12.184 6.42527 11.6236 6.95215 11.459C7.47903 11.2948 8.03936 11.5885 8.2041 12.1152C8.257 12.2846 8.38045 12.5565 8.62793 12.7793C8.71887 12.8611 8.83882 12.9455 8.99609 13.0186V10.8369C8.53343 10.7275 8.04192 10.5751 7.61914 10.332C7.25049 10.12 6.89641 9.82074 6.64062 9.39355C6.3837 8.96417 6.26466 8.46903 6.26465 7.92676C6.26477 6.6178 7.2678 5.30446 8.99609 4.93457V4.71973C8.99609 4.1676 9.44403 3.71999 9.99609 3.71973ZM10.9961 13.0225C11.5687 12.7633 11.7274 12.307 11.7275 12.1162C11.7275 11.8737 11.6764 11.7464 11.6348 11.6768C11.5919 11.6052 11.5189 11.5266 11.376 11.4443C11.2672 11.3818 11.141 11.3287 10.9961 11.2803V13.0225ZM8.99609 7.02051C8.42345 7.27985 8.26478 7.73665 8.26465 7.92676C8.26466 8.16938 8.31578 8.29654 8.35742 8.36621C8.4003 8.4377 8.47347 8.51547 8.61621 8.59766C8.72484 8.66009 8.85144 8.71228 8.99609 8.76074V7.02051Z"
    fill="currentColor"
  />
</svg>
