<svg width="20" height="20" viewBox="0 0 20 20" fill="none" xmlns="http://www.w3.org/2000/svg" data-fui-icon="true">
  <path
    d="M10 0.5C14.2037 0.500085 17.7683 3.23001 19.0205 7.01172C19.3319 7.95221 19.5 8.9574 19.5 10C19.5 11.0426 19.3319 12.0478 19.0205 12.9883C17.7683 16.77 14.2037 19.4999 10 19.5C5.79629 19.4999 2.23169 16.77 0.979492 12.9883C0.849379 12.5952 1.063 12.1703 1.45605 12.04C1.84914 11.9101 2.27315 12.1236 2.40332 12.5166C3.45825 15.7028 6.46211 17.9999 10 18C13.5379 17.9999 16.5418 15.7028 17.5967 12.5166C17.8583 11.7263 18 10.8804 18 10C18 9.11961 17.8583 8.27372 17.5967 7.4834C16.5418 4.29719 13.5379 2.00009 10 2C6.83812 2.00009 4.10439 3.83556 2.80566 6.5H5C5.41421 6.5 5.75 6.83579 5.75 7.25C5.75 7.66421 5.41421 8 5 8H1.25C0.835786 8 0.5 7.66421 0.5 7.25V3C0.5 2.58579 0.835786 2.25 1.25 2.25C1.66421 2.25 2 2.58579 2 3V4.87793C3.68869 2.24583 6.63931 0.500085 10 0.5ZM9.99609 3.96973C10.4103 3.96973 10.7461 4.30551 10.7461 4.71973V5.1377C12.5412 5.41175 13.3047 6.65157 13.4629 7.42773C13.5455 7.83356 13.2827 8.2298 12.877 8.3125C12.4714 8.39476 12.0759 8.13302 11.9932 7.72754C11.9523 7.52744 11.6861 6.89301 10.7461 6.66504V9.40625C11.2526 9.51595 11.7945 9.66692 12.248 9.92773C12.5886 10.1236 12.9075 10.3945 13.1367 10.7773C13.3669 11.1618 13.4775 11.6113 13.4775 12.1162C13.4774 13.3366 12.4986 14.614 10.7461 14.9004V15.2803C10.7461 15.6945 10.4103 16.0303 9.99609 16.0303C9.58193 16.0302 9.2461 15.6945 9.24609 15.2803V14.9023C8.47859 14.7795 7.89192 14.4714 7.45703 14.0801C6.90543 13.5836 6.64775 13.0004 6.53418 12.6367C6.41093 12.2414 6.63113 11.8207 7.02637 11.6973C7.42152 11.574 7.84218 11.7945 7.96582 12.1895C8.02738 12.3866 8.16984 12.7029 8.46094 12.9648C8.63541 13.1218 8.88434 13.278 9.24609 13.3721V10.6357C8.73963 10.526 8.19771 10.376 7.74414 10.1152C7.4036 9.9194 7.08471 9.64838 6.85547 9.26562C6.62534 8.88116 6.51466 8.43172 6.51465 7.92676C6.51478 6.70614 7.49445 5.42825 9.24609 5.1416V4.71973C9.24609 4.30555 9.58192 3.96978 9.99609 3.96973ZM10.7461 13.373C11.6749 13.1344 11.9774 12.4671 11.9775 12.1162C11.9775 11.8359 11.9182 11.6624 11.8496 11.5479C11.7801 11.4318 11.6714 11.3261 11.5 11.2275C11.2964 11.1105 11.0452 11.0257 10.7461 10.9492V13.373ZM9.24609 6.66895C8.31714 6.90775 8.01479 7.57641 8.01465 7.92676C8.01466 8.20706 8.07401 8.38053 8.14258 8.49512C8.21212 8.61112 8.32083 8.7159 8.49219 8.81445C8.69588 8.93156 8.94687 9.01702 9.24609 9.09375V6.66895Z"
    fill="currentColor"
  />
</svg>
