<svg width="16" height="16" viewBox="0 0 16 16" fill="none" xmlns="http://www.w3.org/2000/svg" data-fui-icon="true">
  <path
    d="M6.57886 2.00262C7.27545 1.54527 8.24975 2.03545 8.24976 2.91376V4.93134C10.7547 5.02246 12.5866 5.59607 13.7751 6.96747C15.0519 8.44099 15.4167 10.6514 15.4167 13.4997C15.4166 13.8473 15.177 14.1502 14.8386 14.2302C14.5427 14.2999 14.2389 14.1832 14.0632 13.945L13.9958 13.8356L13.6414 13.1423C13.3087 12.5267 13.0104 12.1287 12.4646 11.82C11.761 11.4223 10.5691 11.1425 8.24976 11.0934V13.0866C8.24929 14.0231 7.14065 14.5179 6.44312 13.8923L0.775146 8.80634C0.295918 8.37603 0.295746 7.62456 0.775146 7.19403L6.44312 2.10712L6.57886 2.00262ZM2.12183 7.99969L6.74976 12.152V10.3337C6.74976 9.91955 7.08566 9.58382 7.49976 9.58368C10.346 9.5837 12.061 9.86876 13.2019 10.5134C13.41 10.631 13.5958 10.7607 13.7634 10.8972C13.5771 9.5555 13.2145 8.6114 12.6414 7.94989C11.7789 6.9547 10.2737 6.41672 7.49976 6.41669C7.08577 6.41655 6.74993 6.08067 6.74976 5.66669V3.84735L2.12183 7.99969Z"
    fill="currentColor"
  />
</svg>
