<svg width="24" height="24" viewBox="0 0 24 24" fill="none" xmlns="http://www.w3.org/2000/svg" data-fui-icon="true">
  <path
    d="M10.0703 3.31885C10.874 2.79025 11.9987 3.35611 11.999 4.36963V7.75732C15.9057 7.8497 18.6421 8.69215 20.3789 10.6958C22.1974 12.7943 22.749 15.9846 22.749 20.2495C22.7488 20.5971 22.5102 20.8991 22.1719 20.979C21.8335 21.0587 21.4836 20.8955 21.3281 20.5845L21.999 20.2495H21.998L21.3281 20.5845C20.5616 19.0514 20.0871 18.0842 18.8799 17.4019C17.7011 16.736 15.7417 16.3034 11.999 16.2534V19.6284C11.999 20.7094 10.72 21.281 9.91504 20.5591L1.41309 12.9292C0.86038 12.4325 0.859767 11.5654 1.41309 11.0688L9.91504 3.43896L10.0703 3.31885ZM2.62207 11.9985L10.499 19.0679V15.4995C10.4993 15.0858 10.8354 14.75 11.249 14.7495C15.5118 14.7495 17.9981 15.1808 19.6182 16.0962C20.2503 16.4535 20.7369 16.8782 21.1367 17.3472C20.9079 14.733 20.3172 12.9154 19.2451 11.6782C17.8409 10.0583 15.4393 9.24951 11.249 9.24951C10.8353 9.24905 10.4993 8.91325 10.499 8.49951V4.93018L2.62207 11.9985Z"
    fill="currentColor"
  />
</svg>
