<svg
  width="32"
  height="32"
  viewBox="0 0 32 32"
  fill="none"
  xmlns="http://www.w3.org/2000/svg"
  data-fui-icon="true"
>
  <path
    fill-rule="evenodd"
    clip-rule="evenodd"
    d="M8.84413 5.61853C9.41345 4.90688 10.2754 4.49261 11.1867 4.49261H20.814C21.7254 4.49261 22.5873 4.90688 23.1566 5.61853L28.2868 12.0313C29.2133 13.1893 29.1545 14.8505 28.1486 15.9402L18.2048 26.7127C17.0169 27.9996 14.9839 27.9996 13.796 26.7127L3.85212 15.9402C2.84623 14.8505 2.7875 13.1893 3.71392 12.0313L8.84413 5.61853ZM11.1867 2.99261C9.81971 2.99261 8.5268 3.61402 7.67283 4.68149L2.54262 11.0942C1.15298 12.8313 1.24108 15.3231 2.74991 16.9576L12.6938 27.7301C14.4756 29.6605 17.5252 29.6605 19.307 27.7301L29.2508 16.9576C30.7597 15.3231 30.8478 12.8313 29.4581 11.0942L24.3279 4.68149C23.474 3.61402 22.1811 2.99261 20.814 2.99261H11.1867ZM16.7903 8.03964C16.6472 7.14063 15.3533 7.14059 15.2102 8.03958L14.7548 10.8999C14.6026 11.8556 13.8564 12.607 12.9018 12.7657L9.99662 13.2487C9.09744 13.3982 9.1081 14.6944 10.0096 14.8291L12.8652 15.2557C13.838 15.4011 14.6036 16.1614 14.7557 17.1331L15.2098 20.0342C15.351 20.9359 16.6495 20.9359 16.7906 20.0341L17.2445 17.1332C17.3966 16.1614 18.1622 15.4011 19.135 15.2557L21.9908 14.8291C22.8923 14.6944 22.903 13.3982 22.0038 13.2487L19.0985 12.7657C18.1438 12.607 17.3975 11.8556 17.2454 10.8998L16.7903 8.03964Z"
    fill="currentColor"
  />
</svg>
