<svg width="20" height="20" viewBox="0 0 20 20" fill="none" xmlns="http://www.w3.org/2000/svg" data-fui-icon="true">
  <path
    fill-rule="evenodd"
    clip-rule="evenodd"
    d="M6.03506 4.06377C6.27228 3.76725 6.63142 3.59464 7.01115 3.59464H12.9881C13.3678 3.59464 13.727 3.76725 13.9642 4.06377L17.2268 8.14203C17.6128 8.62454 17.5883 9.3167 17.1692 9.77075L10.9181 16.5428C10.4232 17.079 9.57608 17.079 9.08112 16.5428L2.83004 9.77075C2.41092 9.3167 2.38645 8.62454 2.77246 8.14203L6.03506 4.06377ZM7.01115 2.09464C6.17574 2.09464 5.38563 2.47438 4.86376 3.12672L1.60115 7.20498C0.75193 8.26651 0.805766 9.78926 1.72783 10.7882L7.97892 17.5602C9.06781 18.7398 10.9314 18.7398 12.0203 17.5602L18.2714 10.7882C19.1935 9.78926 19.2473 8.26651 18.3981 7.20498L15.1355 3.12672C14.6136 2.47438 13.8235 2.09464 12.9881 2.09464H7.01115ZM10.4807 5.77844C10.3434 5.29335 9.6558 5.29336 9.51849 5.77845L8.98646 7.65797C8.93917 7.82503 8.8086 7.9556 8.64154 8.00288L6.76202 8.53492C6.27693 8.67223 6.27693 9.3598 6.76202 9.49711L8.64154 10.0291C8.8086 10.0764 8.93917 10.207 8.98646 10.3741L9.51849 12.2536C9.6558 12.7387 10.3434 12.7387 10.4807 12.2536L11.0127 10.3741C11.06 10.207 11.1906 10.0764 11.3576 10.0291L13.2372 9.49711C13.7222 9.3598 13.7222 8.67223 13.2372 8.53492L11.3576 8.00288C11.1906 7.9556 11.06 7.82503 11.0127 7.65797L10.4807 5.77844Z"
    fill="currentColor"
  />
</svg>
