<svg width="16" height="16" viewBox="0 0 16 16" fill="none" xmlns="http://www.w3.org/2000/svg" data-fui-icon="true">
  <path
    fill-rule="evenodd"
    clip-rule="evenodd"
    d="M5.04207 3.64426C5.23174 3.40471 5.52053 3.26501 5.82608 3.26501H10.1758C10.4813 3.26501 10.7701 3.40471 10.9598 3.64426L13.2867 6.58311C13.5912 6.96765 13.5718 7.51624 13.241 7.87836L8.73921 12.8059C8.3427 13.2399 7.65915 13.2399 7.26264 12.8059L2.76087 7.87835C2.43004 7.51624 2.41068 6.96765 2.71515 6.58311L5.04207 3.64426ZM5.82608 1.76501C5.0622 1.76501 4.34025 2.11424 3.86607 2.71312L1.53915 5.65197C0.777975 6.61331 0.826383 7.98481 1.65344 8.89009L6.15521 13.8176C7.14649 14.9027 8.85535 14.9027 9.84663 13.8176L14.3484 8.89009C15.1755 7.98481 15.2239 6.61332 14.4627 5.65197L12.1358 2.71312C11.6616 2.11424 10.9396 1.76501 10.1758 1.76501H5.82608ZM8.49025 4.80292C8.37916 4.27305 7.62262 4.27305 7.51153 4.80292L7.26783 5.96526C7.20694 6.25567 6.98056 6.48288 6.69037 6.54483L5.51471 6.79581C4.98722 6.90842 4.98722 7.66117 5.51471 7.77378L6.69037 8.02476C6.98056 8.08671 7.20694 8.31392 7.26783 8.60433L7.51153 9.76667C7.62262 10.2965 8.37916 10.2965 8.49025 9.76667L8.73395 8.60433C8.79484 8.31392 9.02122 8.08671 9.31141 8.02476L10.4871 7.77378C11.0146 7.66117 11.0146 6.90842 10.4871 6.79581L9.31141 6.54483C9.02122 6.48288 8.79484 6.25567 8.73395 5.96526L8.49025 4.80292Z"
    fill="currentColor"
  />
</svg>
