<svg width="24" height="24" viewBox="0 0 24 24" fill="none" xmlns="http://www.w3.org/2000/svg" data-fui-icon="true">
  <path
    fill-rule="evenodd"
    clip-rule="evenodd"
    d="M15.5198 2.65088C16.5829 2.65089 17.589 3.13424 18.2532 3.96436L21.9993 8.64795C23.0801 9.99897 23.0116 11.9372 21.8381 13.2085L14.5745 21.0786C13.1886 22.5797 10.8157 22.5798 9.42992 21.0786L2.16625 13.2085C0.992953 11.9372 0.924516 9.9989 2.00512 8.64795L5.75121 3.96436C6.41533 3.13422 7.42153 2.651 8.48461 2.65088H15.5198ZM8.48461 4.15088C7.87721 4.151 7.30255 4.42755 6.92309 4.90186L3.17602 9.58447C2.55867 10.3564 2.59759 11.4645 3.26782 12.1909L10.5325 20.061C11.3243 20.9187 12.68 20.9186 13.4719 20.061L20.7366 12.1909C21.407 11.4644 21.4459 10.3564 20.8284 9.58447L17.0813 4.90186C16.7018 4.42756 16.1272 4.15089 15.5198 4.15088H8.48461ZM11.4075 7.12354C11.5048 6.43545 12.4978 6.43561 12.595 7.12354L12.7893 8.50146C12.9141 9.38777 13.6124 10.0836 14.4993 10.2046L15.8596 10.3901C16.5477 10.4841 16.5526 11.4775 15.8655 11.5786L14.4788 11.7827C13.602 11.9117 12.9141 12.6026 12.7893 13.48L12.595 14.8472C12.4968 15.5337 11.5058 15.5339 11.4075 14.8472L11.2112 13.478C11.0858 12.6014 10.3988 11.9117 9.5227 11.7827L8.13598 11.5786C7.44926 11.4771 7.45483 10.4841 8.14282 10.3901L9.50219 10.2046C10.3884 10.0836 11.0868 9.38899 11.2122 8.50342L11.4075 7.12354Z"
    fill="currentColor"
  />
</svg>
