<svg width="32" height="32" viewBox="0 0 32 32" fill="none" xmlns="http://www.w3.org/2000/svg" data-fui-icon="true">
  <path
    d="M20.8145 2.99268C22.1813 2.99277 23.4742 3.61389 24.3281 4.68115L29.458 11.0942C30.8476 12.8313 30.7597 15.3229 29.251 16.9575L19.3066 27.73C17.5248 29.6601 14.4761 29.6602 12.6943 27.73L2.75 16.9575C1.24126 15.3229 1.15336 12.8312 2.54297 11.0942L7.67285 4.68115C8.52676 3.61389 9.8197 2.99278 11.1865 2.99268H20.8145ZM11.1865 4.49268C10.2754 4.49278 9.41397 4.90721 8.84473 5.61865L3.71387 12.0317C2.78772 13.1897 2.84677 14.8503 3.85254 15.9399L13.7959 26.7124C14.9838 27.9993 17.0172 27.9993 18.2051 26.7124L28.1484 15.9399C29.1542 14.8503 29.2133 13.1897 28.2871 12.0317L23.1572 5.61865C22.588 4.90709 21.7257 4.49277 20.8145 4.49268H11.1865ZM15.21 8.03955C15.3531 7.14066 16.6468 7.14076 16.79 8.03955L17.2451 10.8999C17.3972 11.8557 18.1439 12.6074 19.0986 12.7661L22.0039 13.2485C22.903 13.398 22.8925 14.6947 21.9912 14.8296L19.1348 15.2554C18.1621 15.4008 17.3962 16.1616 17.2441 17.1333L16.791 20.0347C16.6496 20.9358 15.3514 20.9358 15.21 20.0347L14.7559 17.1333C14.6038 16.1616 13.838 15.4007 12.8652 15.2554L10.0098 14.8296C9.10824 14.6949 9.09789 13.398 9.99707 13.2485L12.9023 12.7661C13.8568 12.6073 14.6028 11.8555 14.7549 10.8999L15.21 8.03955Z"
    fill="currentColor"
  />
</svg>
