<svg width="20" height="20" viewBox="0 0 20 20" fill="none" xmlns="http://www.w3.org/2000/svg" data-fui-icon="true">
  <path
    d="M12.9873 2.0946C13.8227 2.0946 14.6129 2.47451 15.1348 3.12683L18.3975 7.20496C19.2467 8.26648 19.1926 9.78906 18.2705 10.788L12.0195 17.5604C10.9307 18.7397 9.06734 18.7398 7.97852 17.5604L1.72754 10.788C0.805484 9.78907 0.751396 8.26648 1.60059 7.20496L4.86328 3.12683C5.38515 2.47449 6.17534 2.0946 7.01074 2.0946H12.9873ZM7.01074 3.5946C6.63103 3.5946 6.2714 3.76686 6.03418 4.06335L2.77148 8.14246C2.38602 8.6248 2.41049 9.31649 2.8291 9.77039L9.08105 16.5428C9.57604 17.0788 10.4231 17.079 10.918 16.5428L17.1689 9.77039C17.5877 9.31646 17.6122 8.62485 17.2266 8.14246L13.9639 4.06335C13.7267 3.76693 13.367 3.5946 12.9873 3.5946H7.01074ZM9.51758 5.7782C9.65494 5.29324 10.3431 5.29327 10.4805 5.7782L11.0127 7.65808C11.06 7.82502 11.1904 7.95554 11.3574 8.00281L13.2363 8.53503C13.7214 8.67235 13.7214 9.35964 13.2363 9.49695L11.3574 10.0292C11.1904 10.0764 11.06 10.207 11.0127 10.3739L10.4805 12.2538C10.3431 12.7387 9.65495 12.7387 9.51758 12.2538L8.98633 10.3739C8.93903 10.2069 8.80768 10.0765 8.64062 10.0292L6.76172 9.49695C6.27663 9.35964 6.27663 8.67235 6.76172 8.53503L8.64062 8.00281C8.80767 7.95552 8.93903 7.82512 8.98633 7.65808L9.51758 5.7782Z"
    fill="currentColor"
  />
</svg>
