<svg width="20" height="20" viewBox="0 0 20 20" fill="none" xmlns="http://www.w3.org/2000/svg" data-fui-icon="true">
  <path
    fill-rule="evenodd"
    clip-rule="evenodd"
    d="M12.9872 2.09473C13.8226 2.09477 14.6128 2.47468 15.1347 3.12695L18.3974 7.20508C19.2465 8.26658 19.1924 9.7892 18.2704 10.7881L12.0194 17.5605C10.9306 18.7398 9.06726 18.7398 7.97843 17.5605L1.72746 10.7881C0.805425 9.7892 0.751338 8.2666 1.6005 7.20508L4.8632 3.12695C5.38507 2.47465 6.17528 2.09473 7.01066 2.09473H12.9872ZM7.01066 3.59473C6.63096 3.59473 6.27131 3.76701 6.0341 4.06348L2.77238 8.14258C2.38642 8.62509 2.41089 9.31648 2.82999 9.77051L9.08097 16.543C9.57597 17.0788 10.423 17.0791 10.9179 16.543L17.1689 9.77051C17.5876 9.3166 17.612 8.62496 17.2265 8.14258L13.9638 4.06348C13.7266 3.7671 13.3668 3.59477 12.9872 3.59473H7.01066ZM9.51749 5.77832C9.65485 5.29336 10.343 5.29339 10.4804 5.77832L11.0126 7.6582C11.06 7.82514 11.1904 7.95567 11.3573 8.00293L13.2362 8.53516C13.7213 8.67247 13.7213 9.35976 13.2362 9.49707L11.3573 10.0293C11.1904 10.0766 11.06 10.2071 11.0126 10.374L10.4804 12.2539C10.343 12.7388 9.65486 12.7388 9.51749 12.2539L8.98624 10.374C8.93895 10.207 8.80759 10.0766 8.64054 10.0293L6.76164 9.49707C6.27655 9.35976 6.27655 8.67247 6.76164 8.53516L8.64054 8.00293C8.80759 7.95564 8.93895 7.82524 8.98624 7.6582L9.51749 5.77832Z"
    fill="currentColor"
  />
</svg>
