<svg width="24" height="24" viewBox="0 0 24 24" fill="none" xmlns="http://www.w3.org/2000/svg" data-fui-icon="true">
  <path
    fill-rule="evenodd"
    clip-rule="evenodd"
    d="M6.21188 19.0126C6.50058 18.7158 6.97549 18.7094 7.27243 18.9979C7.56931 19.2866 7.57647 19.7615 7.28805 20.0585L5.62106 21.7724C5.33238 22.0693 4.85752 22.0765 4.56052 21.788C4.26358 21.4992 4.25716 21.0244 4.54587 20.7274L6.21188 19.0126ZM3.9902 16.7274C4.27892 16.4307 4.75382 16.4232 5.05075 16.7118C5.34763 17.0004 5.35381 17.4753 5.0654 17.7724L2.28805 20.6298C1.99932 20.9268 1.5245 20.9332 1.22751 20.6444C0.930592 20.3557 0.923171 19.8808 1.21188 19.5839L3.9902 16.7274ZM20.1904 2.04091C21.2005 1.96118 22.0375 2.79839 21.958 3.80848C21.6602 7.5746 19.7747 10.4859 16.999 13.0946V17.1561C16.999 17.7964 16.6495 18.3855 16.0879 18.6923L12.5879 20.6015C11.4218 21.2373 9.99899 20.3937 9.99899 19.0653V17.4491L6.54977 13.9999H4.93356C3.60558 13.9994 2.76161 12.5779 3.39743 11.412L5.30661 7.912C5.61321 7.35008 6.20263 7.00008 6.84274 6.99989H10.9052C13.5137 4.22463 16.4247 2.33873 20.1904 2.04091ZM16.2422 6.02333C15.3104 6.02343 14.5548 6.77904 14.5547 7.71083C14.5547 8.64275 15.3103 9.39823 16.2422 9.39833C17.174 9.39822 17.9297 8.64274 17.9297 7.71083C17.9295 6.77904 17.174 6.02344 16.2422 6.02333Z"
    fill="currentColor"
  />
</svg>
