<svg width="16" height="16" viewBox="0 0 16 16" fill="none" xmlns="http://www.w3.org/2000/svg" data-fui-icon="true">
  <path
    fill-rule="evenodd"
    clip-rule="evenodd"
    d="M14.8884 2.55879C14.9537 1.73197 14.268 1.04626 13.4412 1.11162L13.4411 1.11162C10.8834 1.31381 8.90712 2.58083 7.16034 4.41667H4.5624C4.04399 4.41667 3.56697 4.69985 3.31872 5.15496L3.31872 5.15497L2.046 7.48826L2.04599 7.48827C1.53109 8.43228 2.2143 9.58334 3.28968 9.58334H4.2634L6.41665 11.7366V12.7103C6.41665 13.7857 7.56773 14.4688 8.51165 13.9541L8.51172 13.954L10.8451 12.6813L10.8452 12.6812C11.3001 12.4329 11.5833 11.9561 11.5833 11.4376V8.83965C13.4192 7.09287 14.6862 5.11654 14.8884 2.55883L14.8884 2.55879ZM4.61188 5.91667H5.93271L4.21195 8.08334H3.43004L4.61188 5.91667ZM7.224 10.4226L5.57736 8.77598L8.05674 5.65412C9.65821 3.91243 11.3124 2.8394 13.3762 2.62375C13.1606 4.68758 12.0876 6.34179 10.3459 7.94325L7.224 10.4226ZM7.91665 11.788L10.0833 10.0673V11.3882L7.91665 12.57V11.788ZM3.55623 12.0227C3.84497 11.7258 3.83828 11.2509 3.54128 10.9622C3.24429 10.6735 2.76946 10.6801 2.48073 10.9771L0.628875 12.8819C0.340139 13.1789 0.346831 13.6538 0.643823 13.9425C0.940814 14.2312 1.41564 14.2245 1.70438 13.9275L3.55623 12.0227ZM5.03771 13.5465C5.32645 13.2496 5.31976 12.7747 5.02277 12.486C4.72578 12.1973 4.25095 12.2039 3.96221 12.5009L2.8511 13.6438C2.56236 13.9408 2.56905 14.4156 2.86604 14.7044C3.16303 14.9931 3.63786 14.9864 3.92659 14.6894L5.03771 13.5465ZM10.8281 6.26563C11.4494 6.26563 11.9531 5.76195 11.9531 5.14063C11.9531 4.51931 11.4494 4.01563 10.8281 4.01563C10.2068 4.01563 9.70312 4.51931 9.70312 5.14063C9.70312 5.76195 10.2068 6.26563 10.8281 6.26563Z"
    fill="currentColor"
  />
</svg>
