<svg
  width="12"
  height="12"
  viewBox="0 0 12 12"
  fill="none"
  xmlns="http://www.w3.org/2000/svg"
  data-fui-icon="true"
>
  <path
    fill-rule="evenodd"
    clip-rule="evenodd"
    d="M10.0661 0.646794C10.8012 0.588694 11.4113 1.1988 11.3532 1.93386L11.3532 1.9339C11.1989 3.88589 10.2415 5.3933 8.87502 6.7098V8.5782C8.87502 9.03567 8.62512 9.45644 8.22377 9.67549L8.22361 9.67557L6.47361 10.6301L6.47354 10.6302C5.64068 11.0843 4.62502 10.4816 4.62502 9.53275V8.88011L3.11991 7.375H2.46729C1.51842 7.375 0.915599 6.35936 1.36992 5.52642L1.36992 5.52641L2.32446 3.77644C2.32447 3.77644 2.32447 3.77644 2.32447 3.77643C2.54351 3.37486 2.96441 3.125 3.42183 3.125H5.29022C6.60671 1.75856 8.11411 0.801105 10.0661 0.646795L10.0661 0.646794ZM4.06121 4.625H3.57024L2.88842 5.875H3.06847L4.06121 4.625ZM4.43388 6.56765L5.43237 7.56615L7.63749 5.81484C8.85211 4.69682 9.60659 3.56181 9.81552 2.1845C8.43821 2.39342 7.30322 3.1479 6.18518 4.36253L4.43388 6.56765ZM7.37502 7.93881L6.12502 8.93156V9.11163L7.37502 8.42981V7.93881ZM2.78669 8.0872C3.08369 8.37594 3.09038 8.85077 2.80164 9.14776L1.41275 10.5764C1.12401 10.8734 0.649188 10.88 0.352197 10.5913C0.055205 10.3026 0.0485129 9.82774 0.337249 9.53075L1.72614 8.10215C2.01488 7.80516 2.4897 7.79847 2.78669 8.0872ZM10.1252 1.39435L10.1252 1.39437L10.1252 1.39435ZM3.89781 9.23006C4.1948 9.5188 4.20149 9.99362 3.91275 10.2906L3.07941 11.1478C2.79067 11.4448 2.31585 11.4514 2.01886 11.1627C1.72187 10.874 1.71518 10.3991 2.00392 10.1021L2.83725 9.245C3.12599 8.94801 3.60082 8.94132 3.89781 9.23006Z"
    fill="currentColor"
  />
</svg>
