<svg width="24" height="24" viewBox="0 0 24 24" fill="none" xmlns="http://www.w3.org/2000/svg" data-fui-icon="true">
  <path
    fill-rule="evenodd"
    clip-rule="evenodd"
    d="M20.1913 2.04129C21.2016 1.96143 22.0386 2.79834 21.9587 3.80868L21.9587 3.80872C21.6609 7.57555 19.7765 10.4889 17 13.098V17.1564C17 17.7969 16.6501 18.386 16.0882 18.6927L16.088 18.6928L12.588 20.6019L12.5879 20.6019C11.4219 21.2378 9.99998 20.3939 9.99998 19.0655V17.4496L6.55042 14H4.93451C3.60612 14 2.76214 12.5782 3.3982 11.412L3.39821 11.412L5.30729 7.91205L5.3073 7.91205C5.61395 7.34984 6.20321 7.00004 6.84361 7.00004H10.902C13.5111 4.22352 16.4244 2.33907 20.1913 2.04129L20.2504 2.78896L20.1913 2.04129ZM9.67577 8.50004H6.84361C6.75213 8.50004 6.66795 8.55001 6.62414 8.63032L6.62414 8.63033L4.71505 12.1303L4.71504 12.1303C4.62416 12.2969 4.74479 12.5 4.93451 12.5H6.49898L9.67577 8.50004ZM7.86439 13.1927L10.8073 16.1356L15.7626 12.2002C18.4984 9.68722 20.1981 7.04656 20.4634 3.6905C20.4706 3.59972 20.4003 3.52945 20.3095 3.53663C16.9534 3.80193 14.3128 5.50159 11.7999 8.23741L7.86439 13.1927ZM15.5 14.3242L11.5 17.501V19.0655C11.5 19.2551 11.703 19.3759 11.8697 19.285L11.8698 19.285L15.3696 17.376C15.45 17.3321 15.5 17.2478 15.5 17.1564V14.3242ZM5.05058 16.7122C5.34758 17.0009 5.35427 17.4758 5.06553 17.7728L2.28775 20.63C1.99902 20.9269 1.52419 20.9336 1.2272 20.6449C0.930205 20.3562 0.923513 19.8813 1.21225 19.5843L3.99003 16.7271C4.27877 16.4302 4.75359 16.4235 5.05058 16.7122ZM7.27281 18.9979C7.5698 19.2866 7.57649 19.7615 7.28775 20.0585L5.62108 21.7728C5.33234 22.0697 4.85751 22.0764 4.56052 21.7877C4.26353 21.499 4.25684 21.0241 4.54558 20.7271L6.21225 19.0128C6.50099 18.7159 6.97582 18.7092 7.27281 18.9979ZM16.2422 9.39848C17.1742 9.39848 17.9297 8.64296 17.9297 7.71098C17.9297 6.779 17.1742 6.02348 16.2422 6.02348C15.3102 6.02348 14.5547 6.779 14.5547 7.71098C14.5547 8.64296 15.3102 9.39848 16.2422 9.39848Z"
    fill="currentColor"
  />
</svg>
