<svg width="12" height="12" viewBox="0 0 12 12" fill="none" xmlns="http://www.w3.org/2000/svg" data-fui-icon="true">
  <path
    fill-rule="evenodd"
    clip-rule="evenodd"
    d="M2.83685 9.24463C3.12552 8.94783 3.60043 8.94152 3.89739 9.22998C4.19427 9.51862 4.20145 9.99352 3.91302 10.2905L3.07903 11.1479C2.79028 11.4447 2.3154 11.4513 2.01849 11.1626C1.72173 10.8738 1.71518 10.399 2.00384 10.1021L2.83685 9.24463ZM1.7265 8.10205C2.01527 7.80541 2.49017 7.79878 2.78704 8.0874C3.08371 8.37614 3.09026 8.85105 2.80169 9.14795L1.41302 10.5767C1.12434 10.8736 0.649475 10.8799 0.352472 10.5913C0.0555291 10.3026 0.0482552 9.82776 0.336847 9.53076L1.7265 8.10205ZM10.2021 0.644043C10.8746 0.66583 11.4079 1.24496 11.3534 1.93408C11.1991 3.8859 10.2412 5.39306 8.87493 6.70947V8.57861C8.87482 8.97871 8.68367 9.351 8.36712 9.58447L8.22357 9.67529L6.47357 10.6304C5.64071 11.0845 4.62493 10.4816 4.62493 9.53271V8.88037L3.12005 7.37549H2.46771C1.51892 7.37549 0.91595 6.35976 1.37005 5.52686L2.32415 3.77686L2.41595 3.6333C2.64951 3.31654 3.02162 3.12549 3.42181 3.12549H5.29095C6.60738 1.75918 8.11445 0.801273 10.0663 0.646973L10.2021 0.644043Z"
    fill="currentColor"
  />
</svg>
