<svg
  width="24"
  height="24"
  viewBox="0 0 24 24"
  fill="none"
  xmlns="http://www.w3.org/2000/svg"
  data-fui-icon="true"
>
  <path
    fill-rule="evenodd"
    clip-rule="evenodd"
    d="M20.1913 2.04125C21.2016 1.96139 22.0386 2.7983 21.9587 3.80864L21.9587 3.80868C21.6609 7.5755 19.7765 10.4889 17 13.098V17.1564C17 17.7968 16.6501 18.3859 16.0882 18.6926L16.088 18.6927L12.588 20.6018L12.5879 20.6019C11.4219 21.2377 9.99998 20.3939 9.99998 19.0655V17.4496L6.55042 14H4.93451C3.60612 14 2.76214 12.5781 3.3982 11.412L3.39821 11.412L5.30729 7.91201L5.3073 7.912C5.61395 7.3498 6.20321 6.99999 6.84361 6.99999H10.902C13.5111 4.22348 16.4244 2.33902 20.1913 2.04125L20.2504 2.78891L20.1913 2.04125ZM9.67577 8.49999H6.84361C6.75213 8.49999 6.66795 8.54997 6.62414 8.63028L6.62414 8.63029L4.71505 12.1302L4.71504 12.1302C4.62416 12.2969 4.74479 12.5 4.93451 12.5H6.49898L9.67577 8.49999ZM7.86439 13.1926L10.8073 16.1356L15.7626 12.2001C18.4984 9.68717 20.1981 7.04652 20.4634 3.69045C20.4706 3.59967 20.4003 3.5294 20.3095 3.53658C16.9534 3.80188 14.3128 5.50154 11.7999 8.23736L7.86439 13.1926ZM15.5 14.3242L11.5 17.501V19.0655C11.5 19.2551 11.703 19.3758 11.8697 19.285L11.8698 19.2849L15.3696 17.376C15.45 17.3321 15.5 17.2478 15.5 17.1564V14.3242ZM5.05058 16.7122C5.34758 17.0009 5.35427 17.4757 5.06553 17.7727L2.28775 20.6299C1.99902 20.9269 1.52419 20.9336 1.2272 20.6449C0.930205 20.3561 0.923513 19.8813 1.21225 19.5843L3.99003 16.7271C4.27877 16.4301 4.75359 16.4234 5.05058 16.7122ZM7.27281 18.9979C7.5698 19.2866 7.57649 19.7614 7.28775 20.0584L5.62108 21.7727C5.33234 22.0697 4.85751 22.0764 4.56052 21.7877C4.26353 21.4989 4.25684 21.0241 4.54558 20.7271L6.21225 19.0128C6.50099 18.7158 6.97582 18.7091 7.27281 18.9979ZM16.2422 9.39843C17.1742 9.39843 17.9297 8.64291 17.9297 7.71093C17.9297 6.77895 17.1742 6.02343 16.2422 6.02343C15.3102 6.02343 14.5547 6.77895 14.5547 7.71093C14.5547 8.64291 15.3102 9.39843 16.2422 9.39843Z"
    fill="currentColor"
  />
</svg>
