<svg width="24" height="24" viewBox="0 0 24 24" fill="none" xmlns="http://www.w3.org/2000/svg" data-fui-icon="true">
  <path
    d="M6.21191 19.0122C6.50057 18.7155 6.97553 18.7092 7.27246 18.9975C7.56933 19.2861 7.57647 19.7611 7.28809 20.0581L5.62109 21.7719C5.33241 22.0689 4.85755 22.0761 4.56055 21.7876C4.26376 21.4988 4.25724 21.0239 4.5459 20.727L6.21191 19.0122ZM3.99023 16.727C4.27891 16.4303 4.75385 16.423 5.05078 16.7114C5.34765 17 5.35381 17.4749 5.06543 17.7719L2.28809 20.6294C1.99935 20.9264 1.52453 20.9327 1.22754 20.644C0.930777 20.3553 0.923253 19.8804 1.21191 19.5835L3.99023 16.727ZM20.1904 2.0405C21.2006 1.96065 22.0375 2.79796 21.958 3.80807C21.6602 7.57425 19.7748 10.4855 16.999 13.0942V17.1557C16.999 17.796 16.6497 18.3851 16.0879 18.6919L12.5879 20.601C11.4219 21.2367 9.99902 20.3932 9.99902 19.0649V17.4487L6.5498 13.9995H4.93359C3.60576 13.9988 2.76168 12.5774 3.39746 11.4116L5.30664 7.91159C5.61318 7.34969 6.20273 6.99977 6.84277 6.99948H10.9053C13.5137 4.2242 16.4248 2.33839 20.1904 2.0405ZM11.499 17.5005V19.0649C11.499 19.2544 11.7025 19.3752 11.8691 19.2846L15.3691 17.3755L15.4238 17.3354C15.4716 17.2889 15.499 17.2241 15.499 17.1557V14.3237L11.499 17.5005ZM20.3086 3.53659C16.9543 3.802 14.3135 5.49928 11.8018 8.23288L7.86328 13.1919L10.8066 16.1342L15.7588 12.2016C18.4962 9.68794 20.1975 7.04711 20.4629 3.68991C20.4697 3.59938 20.3992 3.52943 20.3086 3.53659ZM6.84277 8.49948C6.75165 8.49977 6.66772 8.55033 6.62402 8.63034L4.71484 12.1294C4.62408 12.2958 4.74439 12.4988 4.93359 12.4995H6.49805L9.6748 8.49948H6.84277ZM16.2422 6.0239C17.1742 6.02391 17.9297 6.77942 17.9297 7.7114C17.9294 8.64316 17.174 9.39888 16.2422 9.3989C15.3104 9.3989 14.5549 8.64317 14.5547 7.7114C14.5547 6.77941 15.3102 6.0239 16.2422 6.0239Z"
    fill="currentColor"
  />
</svg>
