<svg width="20" height="20" viewBox="0 0 20 20" fill="none" xmlns="http://www.w3.org/2000/svg" data-fui-icon="true">
  <path
    fill-rule="evenodd"
    clip-rule="evenodd"
    d="M5.51832 15.7421C5.80706 15.4451 6.28189 15.4387 6.57887 15.7274C6.87557 16.0162 6.88216 16.4911 6.59351 16.788L5.20484 18.2167C4.91613 18.5132 4.44116 18.5197 4.14429 18.2313C3.84741 17.9427 3.84113 17.4678 4.12965 17.1708L5.51832 15.7421ZM3.66676 13.8378C3.95548 13.5408 4.43031 13.5334 4.7273 13.8221C5.02404 14.1108 5.03046 14.5858 4.74195 14.8827L2.4275 17.2635C2.1389 17.5602 1.6639 17.5674 1.36695 17.2792C1.07012 16.9906 1.06307 16.5157 1.35133 16.2186L3.66676 13.8378ZM17.2478 1.5614C18.1662 1.4891 18.9268 2.2504 18.8543 3.16882C18.6042 6.33038 17.0274 8.7728 14.7224 10.9501V14.2821C14.7223 14.8613 14.4063 15.3943 13.8982 15.6718H13.8972L10.9812 17.2626C9.92631 17.8378 8.63963 17.0746 8.63941 15.8729V14.578L5.83765 11.7762H4.54371C3.34202 11.7762 2.57813 10.4904 3.15308 9.43542V9.43445L4.7439 6.51843C5.02135 6.00977 5.55512 5.69324 6.13453 5.69324H9.46461C11.6421 3.38789 14.0858 1.81136 17.2478 1.5614ZM13.9666 5.00476C13.1899 5.00476 12.5603 5.63436 12.5603 6.41101C12.5606 7.18744 13.1901 7.81726 13.9666 7.81726C14.743 7.81722 15.3725 7.18741 15.3728 6.41101C15.3728 5.63438 14.7432 5.0048 13.9666 5.00476Z"
    fill="currentColor"
  />
</svg>
