<svg width="20" height="20" viewBox="0 0 20 20" fill="none" xmlns="http://www.w3.org/2000/svg" data-fui-icon="true">
  <path
    d="M5.51855 15.7422C5.8073 15.4452 6.28213 15.4388 6.5791 15.7275C6.87581 16.0163 6.88239 16.4912 6.59375 16.7881L5.20508 18.2168C4.91637 18.5133 4.4414 18.5198 4.14453 18.2314C3.84765 17.9428 3.84137 17.4679 4.12988 17.1709L5.51855 15.7422ZM3.66699 13.8379C3.95572 13.5409 4.43055 13.5336 4.72754 13.8223C5.02427 14.111 5.0307 14.5859 4.74219 14.8828L2.42773 17.2637C2.13913 17.5603 1.66414 17.5675 1.36719 17.2793C1.07036 16.9907 1.06331 16.5158 1.35156 16.2188L3.66699 13.8379ZM17.248 1.56152C18.1664 1.48926 18.927 2.25058 18.8545 3.16895C18.6044 6.33052 17.0276 8.77291 14.7227 10.9502V14.2822C14.7226 14.8614 14.4066 15.3944 13.8984 15.6719H13.8975L13.5391 15.0137L13.1797 14.3555C13.2064 14.3408 13.2226 14.3125 13.2227 14.2822V12.1807L10.1396 14.6289V15.873C10.1397 15.8942 10.1445 15.9067 10.1494 15.915C10.1555 15.9251 10.1662 15.9357 10.1807 15.9443C10.1953 15.953 10.2099 15.9566 10.2217 15.957C10.2313 15.9574 10.2443 15.9562 10.2627 15.9463L13.1797 14.3555L13.8975 15.6719L10.9814 17.2627C9.92651 17.838 8.63978 17.0748 8.63965 15.873V14.5781L5.83789 11.7764H4.54395C3.34223 11.7764 2.57829 10.4905 3.15332 9.43555L3.81152 9.79395L4.4707 10.1533C4.46065 10.1717 4.45871 10.1847 4.45898 10.1943C4.4594 10.2061 4.46317 10.2208 4.47168 10.2354C4.48037 10.25 4.49177 10.2606 4.50195 10.2666C4.51028 10.2715 4.52277 10.2764 4.54395 10.2764H5.78711L8.23535 7.19336H6.13477C6.10447 7.19336 6.0762 7.20985 6.06152 7.23633L4.4707 10.1533L3.15332 9.43457L4.74414 6.51855C5.0216 6.00995 5.55539 5.69336 6.13477 5.69336H9.46484C11.6423 3.38806 14.0861 1.81148 17.248 1.56152ZM17.3584 3.05664C14.6078 3.27626 12.4362 4.6694 10.3564 6.93359L7.15234 10.9688L9.44629 13.2637L13.4766 10.0635C15.7441 7.98198 17.1389 5.80987 17.3584 3.05664ZM13.9668 5.00488C14.7433 5.00508 15.373 5.6346 15.373 6.41113C15.3729 7.18751 14.7432 7.81719 13.9668 7.81738C13.1903 7.81738 12.5607 7.18763 12.5605 6.41113C12.5605 5.63448 13.1901 5.00488 13.9668 5.00488Z"
    fill="currentColor"
  />
</svg>
