<svg width="20" height="20" viewBox="0 0 20 20" fill="none" xmlns="http://www.w3.org/2000/svg" data-fui-icon="true">
  <path
    fill-rule="evenodd"
    clip-rule="evenodd"
    d="M5.51832 15.7421C5.80706 15.4451 6.28189 15.4387 6.57887 15.7274C6.87557 16.0162 6.88216 16.4911 6.59351 16.788L5.20484 18.2167C4.91613 18.5132 4.44116 18.5197 4.14429 18.2313C3.84741 17.9426 3.84113 17.4678 4.12965 17.1708L5.51832 15.7421ZM3.66676 13.8378C3.95548 13.5408 4.43031 13.5334 4.7273 13.8221C5.02404 14.1108 5.03046 14.5858 4.74195 14.8827L2.4275 17.2635C2.1389 17.5602 1.6639 17.5674 1.36695 17.2792C1.07012 16.9906 1.06307 16.5156 1.35133 16.2186L3.66676 13.8378ZM17.2478 1.5614C18.1661 1.48913 18.9268 2.25045 18.8543 3.16882C18.6042 6.33039 17.0274 8.77279 14.7224 10.9501V14.2821C14.7223 14.8613 14.4063 15.3943 13.8982 15.6717H13.8972L10.9812 17.2626C9.92627 17.8378 8.63954 17.0747 8.63941 15.8729V14.578L5.83765 11.7762H4.54371C3.34199 11.7762 2.57806 10.4904 3.15308 9.43542V9.43444L4.7439 6.51843C5.02137 6.00982 5.55515 5.69323 6.13453 5.69323H9.46461C11.6421 3.38793 14.0859 1.81135 17.2478 1.5614ZM10.1394 14.6288V15.8729C10.1394 15.8941 10.1443 15.9066 10.1492 15.9149C10.1552 15.925 10.1659 15.9356 10.1804 15.9442C10.195 15.9529 10.2096 15.9565 10.2214 15.9569C10.2311 15.9572 10.2441 15.9561 10.2625 15.9462L13.1795 14.3553C13.2062 14.3407 13.2223 14.3123 13.2224 14.2821V12.1805L10.1394 14.6288ZM17.3582 3.05651C14.6076 3.27613 12.436 4.66927 10.3562 6.93347L7.15211 10.9686L9.44605 13.2635L13.4763 10.0633C15.7439 7.98185 17.1386 5.80974 17.3582 3.05651ZM6.13453 7.19323C6.10423 7.19323 6.07596 7.20973 6.06129 7.2362L4.47047 10.1532C4.46042 10.1716 4.45847 10.1846 4.45875 10.1942C4.45916 10.2059 4.46293 10.2207 4.47144 10.2352C4.48013 10.2499 4.49153 10.2604 4.50172 10.2665C4.51004 10.2714 4.52253 10.2762 4.54371 10.2762H5.78687L8.23512 7.19323H6.13453ZM13.9666 5.00475C14.743 5.00495 15.3728 5.63448 15.3728 6.41101C15.3726 7.18738 14.7429 7.81706 13.9666 7.81726C13.19 7.81726 12.5605 7.1875 12.5603 6.41101C12.5603 5.63435 13.1899 5.00475 13.9666 5.00475Z"
    fill="currentColor"
  />
</svg>
