<svg width="24" height="24" viewBox="0 0 24 24" fill="none" xmlns="http://www.w3.org/2000/svg" data-fui-icon="true">
  <path
    d="M6.21191 19.0123C6.50061 18.7156 6.97553 18.7092 7.27246 18.9977C7.56934 19.2863 7.5765 19.7612 7.28809 20.0582L5.62109 21.7721C5.33241 22.069 4.85755 22.0763 4.56055 21.7877C4.26361 21.499 4.25719 21.0241 4.5459 20.7272L6.21191 19.0123ZM3.99023 16.7272C4.27895 16.4304 4.75385 16.423 5.05078 16.7115C5.34766 17.0002 5.35385 17.4751 5.06543 17.7721L2.28809 20.6295C1.99935 20.9265 1.52453 20.9329 1.22754 20.6442C0.930623 20.3554 0.923202 19.8806 1.21191 19.5836L3.99023 16.7272ZM20.1904 2.04065C21.2006 1.96093 22.0376 2.79814 21.958 3.80823C21.6602 7.57434 19.7747 10.4857 16.999 13.0944V17.1559C16.999 17.7961 16.6496 18.3853 16.0879 18.692L12.5879 20.6012C11.4218 21.237 9.99902 20.3934 9.99902 19.0651V17.4489L6.5498 13.9996H4.93359C3.60561 13.9992 2.76164 12.5777 3.39746 11.4117L5.30664 7.91174C5.61324 7.34982 6.20266 6.99983 6.84277 6.99963H10.9053C13.5137 4.22438 16.4248 2.33848 20.1904 2.04065ZM16.2422 6.02307C15.3104 6.02317 14.5548 6.77878 14.5547 7.71057C14.5547 8.64249 15.3103 9.39797 16.2422 9.39807C17.1741 9.39796 17.9297 8.64248 17.9297 7.71057C17.9295 6.77878 17.174 6.02318 16.2422 6.02307Z"
    fill="currentColor"
  />
</svg>
