<svg width="12" height="12" viewBox="0 0 12 12" fill="none" xmlns="http://www.w3.org/2000/svg" data-fui-icon="true">
  <path
    d="M2.83691 9.24451C3.12558 8.94771 3.60049 8.9414 3.89746 9.22986C4.19434 9.5185 4.20152 9.9934 3.91309 10.2904L3.0791 11.1478C2.79035 11.4446 2.31547 11.4511 2.01855 11.1625C1.7218 10.8737 1.71524 10.3988 2.00391 10.1019L2.83691 9.24451ZM1.72656 8.10193C2.01533 7.80529 2.49024 7.79866 2.78711 8.08728C3.08378 8.37602 3.09033 8.85093 2.80176 9.14783L1.41309 10.5765C1.1244 10.8735 0.649542 10.8798 0.352539 10.5912C0.0555963 10.3025 0.0483224 9.82764 0.336914 9.53064L1.72656 8.10193ZM10.2021 0.643921C10.8747 0.665708 11.4079 1.24484 11.3535 1.93396C11.1992 3.88578 10.2413 5.39294 8.875 6.70935V8.57849C8.87489 8.97859 8.68373 9.35088 8.36719 9.58435L8.22363 9.67517L6.47363 10.6302L6.31543 10.7035C5.51765 11.0078 4.625 10.4221 4.625 9.53259V8.88025L3.12012 7.37537H2.46777C1.51899 7.37537 0.916017 6.35964 1.37012 5.52673L2.32422 3.77673L2.41602 3.63318C2.64958 3.31641 3.02168 3.12537 3.42188 3.12537H5.29102C6.60745 1.75905 8.11452 0.801151 10.0664 0.646851L10.2021 0.643921ZM6.125 8.93103V9.11072L7.375 8.42908V7.93884L6.125 8.93103ZM9.8125 2.18591C8.43361 2.39596 7.29729 3.15211 6.17773 4.37048L4.43359 6.56677L5.43164 7.5658L7.63379 5.81677C8.84957 4.69839 9.603 3.56348 9.8125 2.18591ZM2.8877 5.87537H3.06836L4.06152 4.62537H3.57031L2.8877 5.87537Z"
    fill="currentColor"
  />
</svg>
