<svg width="32" height="32" viewBox="0 0 32 32" fill="none" xmlns="http://www.w3.org/2000/svg" data-fui-icon="true">
  <path
    fill-rule="evenodd"
    clip-rule="evenodd"
    d="M8.46155 25.5243C8.75019 25.2276 9.22514 25.2213 9.52209 25.5096C9.81908 25.7984 9.82548 26.2732 9.53674 26.5702L7.31506 28.8563C7.02635 29.1531 6.55146 29.1595 6.25452 28.871C5.95795 28.5823 5.9506 28.1073 6.23889 27.8104L8.46155 25.5243ZM5.49866 22.4774C5.78725 22.1806 6.26218 22.1735 6.5592 22.4618C6.85618 22.7505 6.86254 23.2253 6.57385 23.5223L2.87073 27.3319C2.58209 27.6287 2.10715 27.6359 1.81018 27.3475C1.51364 27.0589 1.50636 26.5839 1.79456 26.287L5.49866 22.4774ZM26.941 2.97057C28.1347 2.87646 29.1231 3.86482 29.0289 5.05846C28.6357 10.0321 26.1335 13.8797 22.4166 17.3514V22.8749C22.4166 23.5896 22.0498 24.251 21.4528 24.6317L21.3307 24.704L16.6637 27.2499C15.2756 28.0065 13.5827 27.002 13.5826 25.4208V23.162L8.83752 18.4169H6.57873C4.99769 18.4165 3.99277 16.7239 4.74963 15.3358L7.29553 10.6688C7.66062 9.9998 8.36248 9.58295 9.12463 9.58287H14.649C18.1206 5.86635 21.9677 3.36378 26.941 2.97057ZM21.6559 8.03111C20.4134 8.03123 19.406 9.03866 19.4059 10.2811C19.4059 11.5237 20.4133 12.531 21.6559 12.5311C22.8984 12.5309 23.9059 11.5236 23.9059 10.2811C23.9057 9.03872 22.8983 8.03131 21.6559 8.03111Z"
    fill="currentColor"
  />
</svg>
