<svg width="32" height="32" viewBox="0 0 32 32" fill="none" xmlns="http://www.w3.org/2000/svg" data-fui-icon="true">
  <path
    fill-rule="evenodd"
    clip-rule="evenodd"
    d="M8.46267 25.5238C8.7514 25.2273 9.22638 25.2207 9.52322 25.5091C9.8201 25.7978 9.8263 26.2727 9.53787 26.5697L7.31619 28.8558C7.02749 29.1527 6.55263 29.1591 6.25564 28.8705C5.95885 28.5818 5.95155 28.1069 6.24002 27.8099L8.46267 25.5238ZM5.49978 22.4769C5.78846 22.1803 6.26342 22.1729 6.56033 22.4613C6.8572 22.7499 6.86335 23.2248 6.57498 23.5218L2.87185 27.3314C2.58322 27.6283 2.10832 27.6354 1.8113 27.347C1.51455 27.0584 1.50731 26.5834 1.79568 26.2865L5.49978 22.4769ZM26.9422 2.97007C28.1357 2.87602 29.124 3.86448 29.0301 5.05796C28.6368 10.0315 26.1345 13.8793 22.4177 17.3509V22.8744C22.4177 23.589 22.0508 24.2505 21.4539 24.6312L21.3318 24.7035L16.6648 27.2494C15.2767 28.0061 13.5838 27.0015 13.5838 25.4203V23.1615L8.83865 18.4164H6.57986C4.99869 18.4162 3.99386 16.7235 4.75076 15.3353L7.29666 10.6683C7.66183 9.99944 8.36365 9.58237 9.12576 9.58237H14.6502C18.1217 5.86594 21.9688 3.36322 26.9422 2.97007ZM15.0838 23.2132V25.4203C15.0838 25.8628 15.5582 26.144 15.947 25.932L20.6131 23.3871C20.8003 23.2846 20.9177 23.0875 20.9177 22.8744V18.5794L15.0838 23.2132ZM27.0603 4.46616C22.4968 4.82694 18.9186 7.1426 15.5408 10.8226L10.1511 17.6078L14.3914 21.848L21.1765 16.4584C24.8566 13.0805 27.1741 9.50338 27.5349 4.9398C27.5563 4.66587 27.3343 4.44477 27.0603 4.46616ZM9.12576 11.0824C8.91249 11.0824 8.71536 11.2 8.61306 11.3871L6.06814 16.0531C5.85612 16.4418 6.13726 16.9162 6.57986 16.9164H8.78591L13.4197 11.0824H9.12576ZM21.657 8.03159C22.8994 8.03185 23.907 9.03911 23.907 10.2816C23.9068 11.5239 22.8993 12.5313 21.657 12.5316C20.4145 12.5316 19.4072 11.524 19.407 10.2816C19.407 9.03895 20.4144 8.03159 21.657 8.03159Z"
    fill="currentColor"
  />
</svg>
