<svg
  width="20"
  height="20"
  viewBox="0 0 20 20"
  fill="none"
  xmlns="http://www.w3.org/2000/svg"
  data-fui-icon="true"
>
  <path
    fill-rule="evenodd"
    clip-rule="evenodd"
    d="M9.94108 0.428773C7.63328 -0.00393975 5.5 1.76653 5.5 4.11454V6.24976C5.5 6.66398 5.83579 6.99976 6.25 6.99976C6.66421 6.99976 7 6.66398 7 6.24976V4.11454C7 2.70573 8.27997 1.64345 9.66465 1.90308L15.6646 3.02808C16.7288 3.22762 17.5 4.15681 17.5 5.23954V14.76C17.5 15.8427 16.7288 16.7719 15.6646 16.9714L9.66465 18.0964C8.27997 18.3561 7 17.2938 7 15.885V13.9998C7 13.5856 6.66421 13.2498 6.25 13.2498C5.83579 13.2498 5.5 13.5856 5.5 13.9998V15.885C5.5 18.233 7.63328 20.0035 9.94108 19.5708L15.9411 18.4458C17.7147 18.1132 19 16.5645 19 14.76V5.23954C19 3.43499 17.7147 1.88633 15.9411 1.55377L9.94108 0.428773ZM11.2803 6.9693C10.9874 6.67641 10.5126 6.67641 10.2197 6.9693C9.92678 7.2622 9.92678 7.73707 10.2197 8.02996L11.4393 9.24963H11.4268H11.4054H11.384H11.3625H11.3409H11.3192H11.2974H11.2755H11.2536H11.2315H11.2094H11.1872H11.1649H11.1425H11.1201H11.0975H11.0749H11.0522H11.0294H11.0066H10.9837H10.9607H10.9376H10.9144H10.8912H10.8679H10.8445H10.821H10.7975H10.7739H10.7503H10.7265H10.7027H10.6788H10.6549H10.6309H10.6068H10.5827H10.5585H10.5342H10.5098H10.4854H10.461H10.4364H10.4119H10.3872H10.3625H10.3377H10.3129H10.288H10.263H10.238H10.213H10.1879H10.1627H10.1375H10.1122H10.0869H10.0615H10.036H10.0105H9.98499H9.9594H9.93376H9.90807H9.88233H9.85655H9.83071H9.80484H9.77891H9.75294H9.72693H9.70087H9.67477H9.64863H9.62245H9.59622H9.56995H9.54365H9.51731H9.49092H9.4645H9.43804H9.41155H9.38502H9.35845H9.33185H9.30522H9.27855H9.25185H9.22512H9.19836H9.17157H9.14474H9.11789H9.09101H9.0641H9.03716H9.0102H8.98321H8.95619H8.92915H8.90209H8.875H8.84789H8.82076H8.7936H8.76643H8.73923H8.71201H8.68478H8.65753H8.63025H8.60297H8.57566H8.54834H8.52101H8.49366H8.4663H8.43892H8.41153H8.38413H8.35672H8.32929H8.30186H8.27442H8.24697H8.21951H8.19205H8.16457H8.13709H8.10961H8.08212H8.05463H8.02713H7.99963H7.97213H7.94463H7.91713H7.88962H7.86212H7.83462H7.80712H7.77962H7.75212H7.72463H7.69715H7.66966H7.64219H7.61472H7.58725H7.5598H7.53235H7.50491H7.47748H7.45007H7.42266H7.39526H7.36788H7.34051H7.31315H7.2858H7.25847H7.23116H7.20386H7.17658H7.14932H7.12207H7.09484H7.06763H7.04045H7.01328H6.98613H6.95901H6.9319H6.90483H6.87777H6.85074H6.82373H6.79675H6.7698H6.74287H6.71597H6.6891H6.66226H6.63545H6.60867H6.58191H6.5552H6.52851H6.50185H6.47523H6.44865H6.42209H6.39558H6.3691H6.34265H6.31625H6.28988H6.26355H6.23726H6.21101H6.1848H6.15863H6.13251H6.10642H6.08038H6.05438H6.02843H6.00253H5.97666H5.95085H5.92508H5.89936H5.87369H5.84807H5.8225H5.79697H5.7715H5.74608H5.72072H5.6954H5.67014H5.64493H5.61978H5.59469H5.56965H5.54466H5.51974H5.49487H5.47006H5.44531H5.42062H5.396H5.37143H5.34692H5.32248H5.2981H5.27379H5.24954H5.22535H5.20123H5.17718H5.15319H5.12928H5.10543H5.08165H5.05794H5.0343H5.01073H4.98723H4.96381H4.94046H4.91718H4.89398H4.87085H4.8478H4.82482H4.80192H4.7791H4.75635H4.73369H4.7111H4.6886H4.66617H4.64383H4.62157H4.59939H4.5773H4.55529H4.53336H4.51152H4.48977H4.4681H4.44652H4.42503H4.40362H4.38231H4.36108H4.33995H4.31891H4.29796H4.2771H4.25633H4.23566H4.21508H4.1946H4.17422H4.15393H4.13373H4.11364H4.09364H4.07374H4.05394H4.03425H4.01465H3.99515H3.97576H3.95647H3.93728H3.9182H3.89922H3.88035H3.86158H3.84292H3.82437H3.80593H3.78759H3.76936H3.75125H3.73324H3.71535H3.69756H3.6799H3.66234H3.6449H3.62757H3.61035H3.59326H3.57628H3.55941H3.54267H3.52604H3.50953H3.49314H3.47687H3.46073H3.4447H3.4288H3.41302H3.39736H3.38183H3.36642H3.35114H3.33598H3.32096H3.30605H3.29128H3.27664H3.26212H3.24774H3.23348H3.21936H3.20537H3.19151H3.17779H3.16419H3.15074H3.13742H3.12423H3.11118H3.09827H3.0855H3.07286H3.06037H3.04801H3.0358H3.02372H3.01179H3C2.07531 9.24963 1.31407 9.5624 0.78217 10.0943C0.257323 10.6191 0 11.3141 0 11.9996C0 12.6851 0.257302 13.3802 0.782083 13.9051C1.31395 14.4372 2.0752 14.7501 3 14.7501C3.41421 14.7501 3.75 14.4143 3.75 14.0001C3.75 13.5859 3.41421 13.2501 3 13.2501C2.4248 13.2501 2.06105 13.0628 1.84292 12.8446C1.6177 12.6193 1.5 12.3141 1.5 11.9996C1.5 11.6852 1.61768 11.3801 1.84283 11.155C2.06093 10.9369 2.42469 10.7496 3 10.7496H3.01179H3.02372H3.0358H3.04801H3.06037H3.07286H3.0855H3.09827H3.11118H3.12423H3.13742H3.15074H3.16419H3.17779H3.19151H3.20537H3.21936H3.23348H3.24774H3.26212H3.27664H3.29128H3.30605H3.32096H3.33598H3.35114H3.36642H3.38183H3.39736H3.41302H3.4288H3.4447H3.46073H3.47687H3.49314H3.50953H3.52604H3.54267H3.55941H3.57628H3.59326H3.61035H3.62757H3.6449H3.66234H3.6799H3.69756H3.71535H3.73324H3.75125H3.76936H3.78759H3.80593H3.82437H3.84292H3.86158H3.88035H3.89922H3.9182H3.93728H3.95647H3.97576H3.99515H4.01465H4.03425H4.05394H4.07374H4.09364H4.11364H4.13373H4.15393H4.17422H4.1946H4.21508H4.23566H4.25633H4.2771H4.29796H4.31891H4.33995H4.36108H4.38231H4.40362H4.42503H4.44652H4.4681H4.48977H4.51152H4.53336H4.55529H4.5773H4.59939H4.62157H4.64383H4.66617H4.6886H4.7111H4.73369H4.75635H4.7791H4.80192H4.82482H4.8478H4.87085H4.89398H4.91718H4.94046H4.96381H4.98723H5.01073H5.0343H5.05794H5.08165H5.10543H5.12928H5.15319H5.17718H5.20123H5.22535H5.24954H5.27379H5.2981H5.32248H5.34692H5.37143H5.396H5.42062H5.44531H5.47006H5.49487H5.51974H5.54466H5.56965H5.59469H5.61978H5.64493H5.67014H5.6954H5.72072H5.74608H5.7715H5.79697H5.8225H5.84807H5.87369H5.89936H5.92508H5.95085H5.97666H6.00253H6.02843H6.05438H6.08038H6.10642H6.13251H6.15863H6.1848H6.21101H6.23726H6.26355H6.28988H6.31625H6.34265H6.3691H6.39558H6.42209H6.44865H6.47523H6.50185H6.52851H6.5552H6.58191H6.60867H6.63545H6.66226H6.6891H6.71597H6.74287H6.7698H6.79675H6.82373H6.85074H6.87777H6.90483H6.9319H6.95901H6.98613H7.01328H7.04045H7.06763H7.09484H7.12207H7.14932H7.17658H7.20386H7.23116H7.25847H7.2858H7.31315H7.34051H7.36788H7.39526H7.42266H7.45007H7.47748H7.50491H7.53235H7.5598H7.58725H7.61472H7.64219H7.66966H7.69715H7.72463H7.75212H7.77962H7.80712H7.83462H7.86212H7.88962H7.91713H7.94463H7.97213H7.99963H8.02713H8.05463H8.08212H8.10961H8.13709H8.16457H8.19205H8.21951H8.24697H8.27442H8.30186H8.32929H8.35672H8.38413H8.41153H8.43892H8.4663H8.49366H8.52101H8.54834H8.57566H8.60297H8.63025H8.65753H8.68478H8.71201H8.73923H8.76643H8.7936H8.82076H8.84789H8.875H8.90209H8.92915H8.95619H8.98321H9.0102H9.03716H9.0641H9.09101H9.11789H9.14474H9.17157H9.19836H9.22512H9.25185H9.27855H9.30522H9.33185H9.35845H9.38502H9.41155H9.43804H9.4645H9.49092H9.51731H9.54365H9.56995H9.59622H9.62245H9.64863H9.67477H9.70087H9.72693H9.75294H9.77891H9.80484H9.83071H9.85655H9.88233H9.90807H9.93376H9.9594H9.98499H10.0105H10.036H10.0615H10.0869H10.1122H10.1375H10.1627H10.1879H10.213H10.238H10.263H10.288H10.3129H10.3377H10.3625H10.3872H10.4119H10.4364H10.461H10.4854H10.5098H10.5342H10.5585H10.5827H10.6068H10.6309H10.6549H10.6788H10.7027H10.7265H10.7503H10.7739H10.7975H10.821H10.8445H10.8679H10.8912H10.9144H10.9376H10.9607H10.9837H11.0066H11.0294H11.0522H11.0749H11.0975H11.1201H11.1425H11.1649H11.1872H11.2094H11.2315H11.2536H11.2755H11.2974H11.3192H11.3409H11.3625H11.384H11.4054H11.4268H11.4393L10.2197 11.9693C9.92678 12.2622 9.92678 12.7371 10.2197 13.03C10.5126 13.3229 10.9874 13.3229 11.2803 13.03L13.7803 10.53C14.0732 10.2371 14.0732 9.7622 13.7803 9.4693L11.2803 6.9693Z"
    fill="currentColor"
  />
</svg>
