<svg width="32" height="32" viewBox="0 0 32 32" fill="none" xmlns="http://www.w3.org/2000/svg" data-fui-icon="true">
  <path
    d="M16 0.5C22.7183 0.500104 28.4354 4.77392 30.5869 10.7461C31.1786 12.3886 31.5 14.1585 31.5 16C31.5 17.8415 31.1786 19.6114 30.5869 21.2539C28.4354 27.2261 22.7183 31.4999 16 31.5C9.2818 31.4999 3.56563 27.226 1.41406 21.2539C1.13348 20.4747 1.53739 19.6159 2.31641 19.335C3.09572 19.0543 3.95554 19.458 4.23633 20.2373C5.97285 25.0573 10.5864 28.4999 16 28.5C21.4137 28.4999 26.0281 25.0574 27.7646 20.2373C28.2406 18.9162 28.5 17.49 28.5 16C28.5 14.51 28.2406 13.0838 27.7646 11.7627C26.0281 6.9426 21.4137 3.5001 16 3.5C11.2729 3.50013 7.15652 6.12532 5.03223 10H9C9.82843 10 10.5 10.6716 10.5 11.5C10.5 12.3284 9.82843 13 9 13H2C1.17157 13 0.5 12.3284 0.5 11.5V4.5C0.5 3.67157 1.17157 3 2 3C2.82843 3 3.5 3.67157 3.5 4.5V6.83887C6.32007 2.99717 10.8665 0.500111 16 0.5Z"
    fill="currentColor"
  />
</svg>
