<svg width="24" height="24" viewBox="0 0 24 24" fill="none" xmlns="http://www.w3.org/2000/svg" data-fui-icon="true">
  <path
    fill-rule="evenodd"
    clip-rule="evenodd"
    d="M7.5 5.14922C7.50006 2.28018 10.1491 0.144228 12.9531 0.751761L20.4531 2.37676C22.523 2.82538 24 4.65629 24 6.77422V17.2254C24 19.3433 22.523 21.1742 20.4531 21.6229L12.9531 23.2479C10.1491 23.8554 7.50006 21.7194 7.5 18.8504V15.9998C7.5 15.5856 7.83579 15.2498 8.25 15.2498C8.66421 15.2498 9 15.5856 9 15.9998V18.8504C9.00006 20.7631 10.7664 22.1871 12.6357 21.782L20.1357 20.157C21.5155 19.8578 22.5 18.6372 22.5 17.2254V6.77422C22.5 5.36238 21.5155 4.14177 20.1357 3.84258L12.6357 2.21758C10.7664 1.81256 9.00006 3.23654 9 5.14922V8.24981C9 8.66402 8.66421 8.99981 8.25 8.99981C7.83579 8.99981 7.5 8.66402 7.5 8.24981V5.14922ZM13.4697 7.96953C13.7626 7.67664 14.2374 7.67664 14.5303 7.96953L18.0303 11.4695C18.3231 11.7624 18.3232 12.2372 18.0303 12.5301L14.5303 16.0301C14.2374 16.3229 13.7626 16.3229 13.4697 16.0301C13.1768 15.7372 13.1769 15.2624 13.4697 14.9695L15.6895 12.7498H3.25C2.67469 12.7498 2.31087 12.937 2.09277 13.1551C1.86764 13.3802 1.75 13.6853 1.75 13.9998C1.75002 14.3142 1.86771 14.6193 2.09277 14.8445C2.31091 15.0627 2.67483 15.2508 3.25 15.2508C3.66421 15.2508 4 15.5866 4 16.0008C3.9997 16.4147 3.66403 16.7508 3.25 16.7508C2.32522 16.7508 1.56409 16.4371 1.03223 15.9051C0.507487 15.3802 0.250018 14.6853 0.25 13.9998C0.25 13.3143 0.507404 12.6194 1.03223 12.0945C1.56413 11.5626 2.32531 11.2498 3.25 11.2498H15.6895L13.4697 9.03008C13.1768 8.7372 13.1769 8.26243 13.4697 7.96953Z"
    fill="currentColor"
  />
</svg>
