<svg width="20" height="20" viewBox="0 0 20 20" fill="none" xmlns="http://www.w3.org/2000/svg" data-fui-icon="true">
  <path
    d="M10.001 0.5C14.2057 0.500398 17.7688 3.23186 19.0205 7.0127C19.3321 7.95396 19.501 8.95887 19.501 10C19.501 11.0411 19.3321 12.046 19.0205 12.9873C17.7688 16.7681 14.2057 19.4996 10.001 19.5C5.79594 19.5 2.23236 16.7683 0.980469 12.9873C0.720371 12.2011 1.14651 11.3532 1.93262 11.0928C2.71894 10.8327 3.5678 11.2586 3.82812 12.0449C4.68563 14.6347 7.12776 16.5 10.001 16.5C12.8738 16.4996 15.3155 14.6345 16.1729 12.0449C16.3851 11.4039 16.501 10.7168 16.501 10C16.501 9.28317 16.3851 8.5961 16.1729 7.95508C15.3155 5.36553 12.8738 3.5004 10.001 3.5C7.92091 3.5 6.06648 4.47768 4.87598 6H6C6.82843 6 7.5 6.67157 7.5 7.5C7.5 8.32843 6.82843 9 6 9H2C1.17157 9 0.5 8.32843 0.5 7.5V3.5C0.5 2.67157 1.17157 2 2 2C2.6974 2 3.2822 2.47631 3.4502 3.12109C5.15411 1.49784 7.46035 0.5 10.001 0.5Z"
    fill="currentColor"
  />
</svg>
