<svg width="12" height="13" viewBox="0 0 12 13" fill="none" xmlns="http://www.w3.org/2000/svg" data-fui-icon="true">
  <path
    d="M3 2.25085C3.0003 0.772913 4.40197 -0.303531 5.83008 0.0770264L10.3301 1.27722C11.3147 1.53994 11.9998 2.43197 12 3.45105V8.64636C12 9.66559 11.3148 10.5574 10.3301 10.8202L5.83008 12.0204C4.40189 12.4009 3.00013 11.3246 3 9.84656V9.04871C3.00015 8.63477 3.33609 8.29895 3.75 8.29871C4.16412 8.29871 4.49985 8.63462 4.5 9.04871V9.84656C4.50013 10.3391 4.96743 10.6978 5.44336 10.5712L9.94336 9.37097C10.2716 9.28337 10.5 8.9861 10.5 8.64636V3.45105C10.4998 3.11146 10.2715 2.81397 9.94336 2.72644L5.44336 1.52625C4.96754 1.39966 4.5003 1.75848 4.5 2.25085V3.33386C4.5 3.74808 4.16421 4.08386 3.75 4.08386C3.336 4.08361 3 3.74792 3 3.33386V2.25085ZM5.96973 3.76843C6.26254 3.47568 6.73738 3.4758 7.03027 3.76843L8.78027 5.51843C9.07309 5.81131 9.07308 6.2861 8.78027 6.57898L7.03027 8.32898C6.73738 8.62161 6.26255 8.62173 5.96973 8.32898C5.67716 8.03615 5.67715 7.56126 5.96973 7.26843L6.43945 6.79871H2.5C2.11488 6.79879 1.8603 6.89649 1.71875 7.00964C1.59988 7.10486 1.50008 7.25633 1.5 7.54871C1.5 7.96292 1.16421 8.29871 0.75 8.29871C0.336008 8.29845 0 7.96276 0 7.54871C9.61648e-05 6.84194 0.275787 6.24341 0.78125 5.83875C1.26452 5.45212 1.88583 5.29879 2.5 5.29871H6.43945L5.96973 4.82898C5.67716 4.53615 5.67715 4.06126 5.96973 3.76843Z"
    fill="currentColor"
  />
</svg>
