<svg width="20" height="20" viewBox="0 0 20 20" fill="none" xmlns="http://www.w3.org/2000/svg" data-fui-icon="true">
  <path
    d="M10 0.5C13.3605 0.5 16.3112 2.24522 18 4.87695V2.25C18 1.83579 18.3358 1.5 18.75 1.5C19.1642 1.5 19.5 1.83579 19.5 2.25V7.25C19.5 7.66421 19.1642 8 18.75 8H13.75C13.3358 8 13 7.66421 13 7.25C13 6.83579 13.3358 6.5 13.75 6.5H17.1943C15.8956 3.83553 13.162 2 10 2C6.46198 2 3.45825 4.29711 2.40332 7.4834C2.14166 8.27372 2 9.1196 2 10C2 10.8804 2.14166 11.7263 2.40332 12.5166C3.45825 15.7029 6.46198 18 10 18C13.538 18 16.5417 15.7029 17.5967 12.5166C17.7268 12.1234 18.1508 11.91 18.5439 12.04C18.9372 12.1702 19.1507 12.5951 19.0205 12.9883C17.7683 16.7701 14.2038 19.5 10 19.5C5.79617 19.5 2.2317 16.7701 0.979492 12.9883C0.668114 12.0478 0.5 11.0426 0.5 10C0.5 8.9574 0.668114 7.95221 0.979492 7.01172C2.2317 3.22994 5.79617 0.5 10 0.5Z"
    fill="currentColor"
  />
</svg>
