<svg width="16" height="16" viewBox="0 0 16 16" fill="none" xmlns="http://www.w3.org/2000/svg" data-fui-icon="true">
  <path
    d="M14.25 9C14.9404 9 15.5 9.55964 15.5 10.25V13.25C15.5 13.9404 14.9404 14.5 14.25 14.5C13.6641 14.5 13.1735 14.0967 13.0381 13.5527C11.707 14.7612 9.94087 15.5 8 15.5C4.8099 15.5 2.08755 13.5089 1.00293 10.7061C0.753836 10.0623 1.07402 9.33803 1.71777 9.08887C2.36162 8.83976 3.08585 9.15987 3.33496 9.80371C4.05941 11.6758 5.87657 13 8 13C9.39665 13 10.6585 12.4248 11.5664 11.5H11.25C10.5596 11.5 10 10.9404 10 10.25C10 9.55964 10.5596 9 11.25 9H14.25ZM8 0.5C11.0774 0.500023 13.7188 2.35377 14.875 5C14.9174 5.09704 14.9587 5.19479 14.9971 5.29395C15.2462 5.93771 14.9259 6.66194 14.2822 6.91113C13.6384 7.16024 12.9142 6.84013 12.665 6.19629C12.6395 6.13034 12.6122 6.06458 12.584 6C11.8112 4.2318 10.0481 3.00002 8 3C6.60246 3 5.33797 3.574 4.42969 4.5H4.75C5.44036 4.5 6 5.05964 6 5.75C6 6.44036 5.44036 7 4.75 7H1.75C1.05964 7 0.5 6.44036 0.5 5.75V2.75C0.5 2.05964 1.05964 1.5 1.75 1.5C2.33545 1.5 2.8251 1.90293 2.96094 2.44629C4.29177 1.23771 6.05903 0.5 8 0.5Z"
    fill="currentColor"
  />
</svg>
