<svg width="16" height="16" viewBox="0 0 16 16" fill="none" xmlns="http://www.w3.org/2000/svg" data-fui-icon="true">
  <path
    fill-rule="evenodd"
    clip-rule="evenodd"
    d="M5.5 3.06148C5.50002 1.27243 7.18135 -0.040391 8.91699 0.393515L13.917 1.64351C15.1412 1.94958 16 3.04963 16 4.31148V11.6884C15.9999 12.9502 15.1411 14.0504 13.917 14.3564L8.91699 15.6064C7.18144 16.0403 5.50016 14.7274 5.5 12.9384V12C5.5002 11.5859 5.83591 11.25 6.25 11.25C6.66409 11.25 6.9998 11.5859 7 12V12.9384C7.00016 13.7513 7.76407 14.3481 8.55273 14.1513L13.5527 12.9013C14.1091 12.7622 14.4999 12.2619 14.5 11.6884V4.31148C14.5 3.73793 14.1092 3.23772 13.5527 3.09859L8.55273 1.84859C7.76398 1.65171 7.00002 2.24844 7 3.06148V4.23922C6.99979 4.65325 6.66408 4.98922 6.25 4.98922C5.83592 4.98922 5.50021 4.65325 5.5 4.23922V3.06148ZM9.21973 4.96969C9.51262 4.67679 9.98738 4.67679 10.2803 4.96969L12.7803 7.46969C13.073 7.76259 13.0731 8.23738 12.7803 8.53023L10.2803 11.0302C9.98741 11.323 9.51259 11.323 9.21973 11.0302C8.92688 10.7374 8.92696 10.2626 9.21973 9.96969L10.4395 8.74996H3C2.42469 8.74996 2.06087 8.93714 1.84277 9.15523C1.6177 9.38037 1.5 9.68554 1.5 9.99996C1.50007 10.3143 1.61775 10.6195 1.84277 10.8447C2.06092 11.0628 2.42491 11.2509 3 11.2509C3.41421 11.2509 3.75 11.5867 3.75 12.0009C3.7496 12.4148 3.41396 12.7509 3 12.7509C2.07528 12.7509 1.31408 12.4372 0.782227 11.9052C0.257535 11.3804 6.53041e-05 10.6854 0 9.99996C0 9.3145 0.257468 8.61952 0.782227 8.09469C1.31413 7.56278 2.07531 7.24996 3 7.24996H10.4395L9.21973 6.03023C8.92688 5.73738 8.92696 5.26259 9.21973 4.96969Z"
    fill="currentColor"
  />
</svg>
