<svg width="32" height="32" viewBox="0 0 32 32" fill="none" xmlns="http://www.w3.org/2000/svg" data-fui-icon="true">
  <path
    d="M30.248 18.25C31.0765 18.25 31.748 18.9216 31.748 19.75V26.75C31.748 27.5784 31.0765 28.25 30.248 28.25C29.4198 28.2498 28.748 27.5783 28.748 26.75V25.2422C25.8863 29.183 21.2445 31.749 15.999 31.749C9.14181 31.7489 3.31156 27.3674 1.14844 21.2559C0.872067 20.4749 1.28153 19.6172 2.0625 19.3408C2.84334 19.0648 3.70025 19.4741 3.97656 20.2549C5.72893 25.2059 10.4522 28.7489 15.999 28.749C21.1663 28.7489 25.6173 25.6734 27.6191 21.25H23.248C22.4198 21.2498 21.748 20.5783 21.748 19.75C21.748 18.9217 22.4198 18.2502 23.248 18.25H30.248ZM15.999 0.250977C22.8565 0.251061 28.6867 4.63319 30.8496 10.7451C31.1257 11.5259 30.7172 12.3828 29.9365 12.6592C29.1557 12.9355 28.298 12.5267 28.0215 11.7461C26.2693 6.79475 21.5461 3.25106 15.999 3.25098C10.8316 3.25106 6.37967 6.32633 4.37793 10.75H8.75C9.57827 10.7502 10.25 11.4217 10.25 12.25C10.25 13.0783 9.57827 13.7498 8.75 13.75H1.75C0.921573 13.75 0.25 13.0784 0.25 12.25V5.25C0.25 4.42157 0.921573 3.75 1.75 3.75C2.57827 3.75018 3.25 4.42168 3.25 5.25V6.75586C6.1118 2.81559 10.7541 0.251047 15.999 0.250977Z"
    fill="currentColor"
  />
</svg>
