<svg width="12" height="12" viewBox="0 0 12 12" fill="none" xmlns="http://www.w3.org/2000/svg" data-fui-icon="true">
  <path
    d="M11.25 7C11.6642 7 12 7.33579 12 7.75V10.75C12 11.1642 11.6642 11.5 11.25 11.5C10.8358 11.5 10.5 11.1642 10.5 10.75V9.96777C9.40085 11.2134 7.79288 12 6 12C3.38785 12 1.16719 10.3312 0.342773 8.00391C0.204492 7.61346 0.409355 7.18418 0.799805 7.0459C1.19014 6.90791 1.6186 7.11262 1.75684 7.50293C2.37576 9.25024 4.04291 10.5 6 10.5C7.55882 10.5 8.93149 9.70563 9.73926 8.5H8.25C7.83579 8.5 7.5 8.16421 7.5 7.75C7.5 7.33579 7.83579 7 8.25 7H11.25ZM6 0C8.61215 1.19826e-05 10.8328 1.66876 11.6572 3.99609C11.7955 4.38654 11.5906 4.81582 11.2002 4.9541C10.8098 5.09213 10.3814 4.8874 10.2432 4.49707C9.62425 2.74976 7.95708 1.50001 6 1.5C4.44117 1.5 3.06851 2.29436 2.26074 3.5H3.75C4.16421 3.5 4.5 3.83579 4.5 4.25C4.5 4.66421 4.16421 5 3.75 5H0.75C0.335786 5 0 4.66421 0 4.25V1.25C0 0.835786 0.335786 0.5 0.75 0.5C1.16421 0.5 1.5 0.835786 1.5 1.25V2.03125C2.59913 0.785917 4.20738 0 6 0Z"
    fill="currentColor"
  />
</svg>
