<svg width="20" height="20" viewBox="0 0 20 20" fill="none" xmlns="http://www.w3.org/2000/svg" data-fui-icon="true">
  <path
    d="M10 0.5C12.7718 0.5 15.264 1.68802 17 3.58008V3.25C17 2.55964 17.5596 2 18.25 2C18.9404 2 19.5 2.55964 19.5 3.25V7.25C19.5 7.94036 18.9404 8.5 18.25 8.5H14.25C13.5596 8.5 13 7.94036 13 7.25C13 6.55964 13.5596 6 14.25 6H15.7451C14.4794 4.18593 12.3774 3 10 3C6.98357 3 4.40926 4.90838 3.42578 7.58789C3.15048 8.33808 3 9.15025 3 10C3 10.8497 3.15048 11.6619 3.42578 12.4121C4.40925 15.0916 6.98357 17 10 17C13.0164 17 15.5907 15.0916 16.5742 12.4121C16.812 11.7641 17.5297 11.4312 18.1777 11.6689C18.8257 11.9067 19.1584 12.6245 18.9209 13.2725C17.5879 16.9048 14.0985 19.5 10 19.5C5.9015 19.5 2.4121 16.9048 1.0791 13.2725C0.704151 12.2506 0.5 11.1477 0.5 10C0.5 8.85226 0.704151 7.74941 1.0791 6.72754C2.4121 3.09524 5.9015 0.5 10 0.5Z"
    fill="currentColor"
  />
</svg>
