<svg width="20" height="20" viewBox="0 0 20 20" fill="none" xmlns="http://www.w3.org/2000/svg" data-fui-icon="true">
  <path
    d="M18 11.5C18.5523 11.5 19 11.9477 19 12.5V16.5C19 17.0523 18.5523 17.5 18 17.5C17.4477 17.5 17 17.0523 17 16.5V15.793C15.3043 17.7555 12.7983 18.9999 10 19C5.97187 18.9999 2.54852 16.4227 1.27832 12.834C1.09413 12.3135 1.36636 11.742 1.88672 11.5576C2.40717 11.3736 2.9787 11.6457 3.16309 12.166C4.15976 14.9824 6.84653 16.9999 10 17C12.6283 16.9999 14.9306 15.5974 16.2021 13.5H14C13.4477 13.5 13 13.0523 13 12.5C13 11.9477 13.4477 11.5 14 11.5H18ZM10 1C14.0282 1.00009 17.4525 3.57718 18.7227 7.16602C18.9068 7.68656 18.6338 8.25806 18.1133 8.44238C17.5928 8.62658 17.0213 8.35439 16.8369 7.83398C15.8403 5.01761 13.1535 3.00009 10 3C7.37157 3.00008 5.06842 4.40245 3.79688 6.5H6C6.55228 6.5 7 6.94772 7 7.5C7 8.05228 6.55228 8.5 6 8.5H2C1.44772 8.5 1 8.05228 1 7.5V3.5C1 2.94772 1.44772 2.5 2 2.5C2.55228 2.5 3 2.94772 3 3.5V4.20703C4.69547 2.24436 7.20162 1.00007 10 1Z"
    fill="currentColor"
  />
</svg>
