<svg width="24" height="24" viewBox="0 0 24 24" fill="none" xmlns="http://www.w3.org/2000/svg" data-fui-icon="true">
  <path
    d="M8.25 13C8.66421 13 9 13.3358 9 13.75C9 14.1642 8.66421 14.5 8.25 14.5H3.85254C4.07871 15.4981 4.69605 17 5.84863 18.3652C7.27599 20.0559 9.49068 21.5 12.75 21.5C16.0642 21.5 18.2335 20.0074 19.5938 18.2852C20.9852 16.5234 21.5 14.5584 21.5 13.75C21.5 13.3358 21.8358 13 22.25 13C22.6642 13 23 13.3358 23 13.75C23 14.9416 22.3408 17.2266 20.7705 19.2148C19.169 21.2425 16.5885 23 12.75 23C8.98326 23 6.36928 21.3076 4.70215 19.333C3.55879 17.9786 2.8454 16.4723 2.5 15.2617V20.25C2.5 20.6642 2.16421 21 1.75 21C1.33579 21 1 20.6642 1 20.25V15.25C1 14.0074 2.00736 13 3.25 13H8.25ZM11.25 1C15.0167 1 17.6307 2.69236 19.2979 4.66699C20.4409 6.02102 21.1545 7.52689 21.5 8.7373V3.75C21.5 3.33579 21.8358 3 22.25 3C22.6642 3 23 3.33579 23 3.75V8.75C23 9.99264 21.9926 11 20.75 11H15.75C15.3358 11 15 10.6642 15 10.25C15 9.83579 15.3358 9.5 15.75 9.5H20.1475C19.9213 8.50193 19.304 7.00004 18.1514 5.63477C16.724 3.94413 14.5093 2.5 11.25 2.5C7.93576 2.5 5.76649 3.99261 4.40625 5.71484C3.01476 7.47665 2.5 9.44162 2.5 10.25C2.5 10.6642 2.16421 11 1.75 11C1.33579 11 1 10.6642 1 10.25C1 9.05838 1.65919 6.77335 3.22949 4.78516C4.83105 2.75747 7.4115 1 11.25 1Z"
    fill="currentColor"
  />
</svg>
