<svg width="24" height="24" viewBox="0 0 24 24" fill="none" xmlns="http://www.w3.org/2000/svg" data-fui-icon="true">
  <path
    d="M12 0.5C17.1411 0.5 21.4916 3.87327 22.9648 8.52441C23.3125 9.62222 23.5 10.7902 23.5 12C23.5 13.2098 23.3125 14.3778 22.9648 15.4756C21.4916 20.1267 17.1411 23.5 12 23.5C6.85888 23.5 2.50836 20.1267 1.03516 15.4756C0.868595 14.9492 1.16012 14.3874 1.68652 14.2207C2.21296 14.0541 2.77464 14.3457 2.94141 14.8721C4.15894 18.716 7.75576 21.5 12 21.5C16.2442 21.5 19.8411 18.716 21.0586 14.8721C21.3452 13.9672 21.5 13.0026 21.5 12C21.5 10.9974 21.3452 10.0328 21.0586 9.12793C19.8411 5.28397 16.2442 2.5 12 2.5C8.18353 2.5 4.89113 4.75135 3.38086 8H6.5C7.05228 8 7.5 8.44772 7.5 9C7.5 9.55228 7.05228 10 6.5 10H1.5C0.947715 10 0.5 9.55228 0.5 9V4C0.5 3.44772 0.947715 3 1.5 3C2.05228 3 2.5 3.44772 2.5 4V5.52148C4.57044 2.49097 8.05129 0.500004 12 0.5Z"
    fill="currentColor"
  />
</svg>
