<svg width="12" height="12" viewBox="0 0 12 12" fill="none" xmlns="http://www.w3.org/2000/svg" data-fui-icon="true">
  <path
    d="M6.04297 0.75C4.26538 0.75 3.03606 1.50055 2.25 2.44629V2C2.24999 1.5858 1.91421 1.25 1.5 1.25C1.08579 1.25 0.75001 1.5858 0.75 2V4.5293C0.750242 5.22329 1.30981 5.79785 2.01465 5.79785H4.5C4.91421 5.79785 5.25 5.46207 5.25 5.04785C5.24988 4.63374 4.91414 4.29785 4.5 4.29785H2.85938C3.27797 3.29709 4.26129 2.25 6.04297 2.25C8.3273 2.25005 9.75 3.9455 9.75 6C9.75 8.0545 8.3273 9.74994 6.04297 9.75C4.67474 9.75 3.54036 9.03966 2.90137 8.08301C2.67127 7.73867 2.20475 7.64594 1.86035 7.87598C1.51602 8.10608 1.42328 8.57259 1.65332 8.91699C2.54941 10.2585 4.13668 11.25 6.04297 11.25C9.24422 11.2499 11.25 8.79158 11.25 6C11.25 3.20842 9.24422 0.750057 6.04297 0.75Z"
    fill="currentColor"
  />
</svg>
