<svg width="12" height="12" viewBox="0 0 12 12" fill="none" xmlns="http://www.w3.org/2000/svg" data-fui-icon="true">
  <path
    d="M4.25014 6.99943C4.66432 6.99943 5.00008 7.33519 5.00008 7.74937C5.00008 8.16355 4.66432 8.49931 4.25014 8.49931H2.84108C2.93514 8.67203 3.05141 8.85616 3.19359 9.0393C3.74556 9.75013 4.72274 10.499 6.49996 10.4991C8.27728 10.4991 9.25428 9.75013 9.80633 9.0393C10.0914 8.6721 10.2723 8.30176 10.3805 8.02376C10.4341 7.88596 10.4691 7.77325 10.4899 7.69859C10.5002 7.6615 10.5066 7.63371 10.5104 7.61754C10.5119 7.61119 10.5137 7.60655 10.5143 7.60387C10.5945 7.19839 10.9883 6.93389 11.3941 7.0131C11.775 7.08787 12.0317 7.43925 11.9966 7.81772L11.9858 7.89389L11.9849 7.89487V7.89779C11.9846 7.89918 11.9842 7.90096 11.9839 7.90268C11.9831 7.90643 11.9821 7.91104 11.981 7.91635C11.9786 7.92748 11.9753 7.94276 11.9712 7.96029C11.963 7.99532 11.9512 8.04287 11.9351 8.1009C11.9025 8.21755 11.8518 8.37876 11.7779 8.56864C11.6306 8.94671 11.3857 9.45178 10.9918 9.95915C10.1851 10.998 8.78668 11.999 6.49996 11.999C4.21351 11.9989 2.81577 10.9979 2.00911 9.95915C1.79978 9.68953 1.63328 9.41968 1.50037 9.17015V11.2491C1.50037 11.6633 1.16461 11.999 0.750427 11.999C0.336446 11.9988 0.000488242 11.6631 0.000488242 11.2491V8.44951C0.000488242 7.6489 0.650017 6.99966 1.45057 6.99943H4.25014ZM11.2496 0C11.6638 0 11.9995 0.335759 11.9995 0.749939V3.54952C11.9995 4.35026 11.3502 4.99959 10.5494 4.99959H7.74986C7.33588 4.99936 6.99992 4.66369 6.99992 4.24965C6.99992 3.83562 7.33588 3.49995 7.74986 3.49972H9.15892C9.06484 3.32698 8.94862 3.14287 8.80641 2.95972C8.25436 2.2489 7.27736 1.49988 5.50004 1.49988C3.72282 1.5 2.74565 2.24889 2.19367 2.95972C1.90859 3.32692 1.72772 3.6973 1.6195 3.97526C1.56587 4.11306 1.53094 4.2258 1.51013 4.30043C1.49979 4.33754 1.49341 4.36535 1.48962 4.38148C1.48842 4.38655 1.48632 4.39047 1.48572 4.3932C1.40611 4.79962 1.01234 5.06549 0.605908 4.98592C0.199914 4.906 -0.0653109 4.51131 0.014159 4.10513L0.0151355 4.10416V4.10123C0.0154127 4.09985 0.0157585 4.09807 0.016112 4.09635C0.0168807 4.0926 0.0179042 4.08798 0.0190414 4.08268C0.0214261 4.07156 0.0246955 4.05627 0.0288062 4.03873C0.0370224 4.00371 0.0487677 3.95615 0.0649361 3.89812C0.0974437 3.78149 0.148231 3.62026 0.22215 3.43038C0.36938 3.05229 0.615224 2.54732 1.0092 2.03987C1.81586 1.00109 3.21359 0.000126043 5.50004 0C7.78676 0 9.18515 1.00102 9.99186 2.03987C10.2011 2.30942 10.3667 2.57941 10.4996 2.82887V0.749939C10.4996 0.335903 10.8356 0.00023333 11.2496 0Z"
    fill="currentColor"
  />
</svg>
