<svg width="24" height="24" viewBox="0 0 24 24" fill="none" xmlns="http://www.w3.org/2000/svg" data-fui-icon="true">
  <path
    d="M22.5 14C23.0523 14 23.5 14.4477 23.5 15V20C23.5 20.5523 23.0523 21 22.5 21C21.9477 21 21.5 20.5523 21.5 20V18.4785C19.4297 21.5087 15.9488 23.5 12 23.5C7.05646 23.5 2.84394 20.3808 1.21777 16.0068C1.15272 15.8318 1.09182 15.6545 1.03516 15.4756C0.868595 14.9492 1.16012 14.3874 1.68652 14.2207C2.21296 14.0541 2.77464 14.3457 2.94141 14.8721C2.98817 15.0197 3.03908 15.1661 3.09277 15.3105C4.43728 18.9264 7.91923 21.5 12 21.5C15.8163 21.5 19.1087 19.2492 20.6191 16H17.5C16.9477 16 16.5 15.5523 16.5 15C16.5 14.4477 16.9477 14 17.5 14H22.5ZM12 0.5C16.9435 0.5 21.1561 3.61917 22.7822 7.99316C22.8473 8.16817 22.9082 8.3455 22.9648 8.52441C23.1314 9.05084 22.8399 9.61256 22.3135 9.7793C21.787 9.94592 21.2254 9.65434 21.0586 9.12793C21.0118 8.98028 20.9609 8.83389 20.9072 8.68945C19.5627 5.07356 16.0808 2.5 12 2.5C8.18372 2.5 4.89129 4.75084 3.38086 8H6.5C7.05228 8 7.5 8.44772 7.5 9C7.5 9.55228 7.05228 10 6.5 10H1.5C0.947715 10 0.5 9.55228 0.5 9V4C0.5 3.44772 0.947715 3 1.5 3C2.05228 3 2.5 3.44772 2.5 4V5.52051C4.57041 2.49067 8.05147 0.500004 12 0.5Z"
    fill="currentColor"
  />
</svg>
