<svg width="20" height="20" viewBox="0 0 20 20" fill="none" xmlns="http://www.w3.org/2000/svg" data-fui-icon="true">
  <path
    d="M18.25 11.5C18.9403 11.5 19.4999 12.0597 19.5 12.75V16.6787C19.4999 17.369 18.9403 17.9287 18.25 17.9287C17.5597 17.9287 17.0001 17.369 17 16.6787V16.4189C15.264 18.3113 12.7721 19.4999 10 19.5C5.86308 19.4999 2.34649 16.8561 1.04199 13.1699C0.811774 12.5191 1.15295 11.8045 1.80371 11.5742C2.45444 11.3441 3.16914 11.6852 3.39941 12.3359C4.36169 15.055 6.9552 16.9999 10 17C12.3775 16.9999 14.4805 15.8143 15.7461 14H14.3213C13.631 13.9999 13.0714 13.4402 13.0713 12.75C13.0714 12.0598 13.631 11.5001 14.3213 11.5H18.25ZM10 0.5C14.1369 0.500091 17.6535 3.14383 18.958 6.83008C19.1882 7.4808 18.847 8.19541 18.1963 8.42578C17.5457 8.65571 16.8319 8.31461 16.6016 7.66406C15.6393 4.94496 13.0449 3.00009 10 3C7.62262 3.00007 5.52033 4.1859 4.25488 6H5.67871C6.36896 6.00008 6.92864 6.55975 6.92871 7.25C6.92864 7.94025 6.36896 8.49992 5.67871 8.5H1.75C1.05969 8.5 0.500076 7.94029 0.5 7.25V3.32129C0.500075 2.631 1.05969 2.07129 1.75 2.07129C2.44031 2.07129 2.99992 2.631 3 3.32129V3.5791C4.73603 1.68742 7.22848 0.500063 10 0.5Z"
    fill="currentColor"
  />
</svg>
