<svg width="20" height="20" viewBox="0 0 20 20" fill="none" xmlns="http://www.w3.org/2000/svg" data-fui-icon="true">
  <path
    d="M18.25 12C18.6642 12 18.9999 12.3359 19 12.75V16.6787C18.9999 17.0929 18.6642 17.4287 18.25 17.4287C17.8358 17.4287 17.5001 17.0929 17.5 16.6787V14.9727C15.8883 17.3989 13.1324 18.9999 10 19C6.08149 18.9999 2.74972 16.4957 1.51367 13.0029C1.37562 12.6125 1.58028 12.1841 1.9707 12.0459C2.36109 11.908 2.78959 12.1126 2.92773 12.5029C3.95848 15.4153 6.73681 17.4999 10 17.5C12.8768 17.4999 15.3759 15.8793 16.6338 13.5H14.3213C13.9072 13.4999 13.5714 13.1641 13.5713 12.75C13.5714 12.3359 13.9072 12.0001 14.3213 12H18.25ZM10 1C13.9185 1.00009 17.2503 3.50425 18.4863 6.99707C18.6244 7.38736 18.4204 7.81575 18.0303 7.9541C17.6398 8.09228 17.2105 7.88751 17.0723 7.49707C16.0415 4.5847 13.2632 2.50009 10 2.5C7.12318 2.50008 4.62414 4.1208 3.36621 6.5H5.67871C6.09281 6.50008 6.42864 6.8359 6.42871 7.25C6.42864 7.6641 6.09281 7.99992 5.67871 8H1.75C1.33583 8 1.00008 7.66415 1 7.25V3.32129C1.00008 2.90714 1.33583 2.57129 1.75 2.57129C2.16417 2.57129 2.49992 2.90714 2.5 3.32129V5.02637C4.11179 2.60064 6.86799 1.00008 10 1Z"
    fill="currentColor"
  />
</svg>
