<svg width="16" height="16" viewBox="0 0 16 16" fill="none" xmlns="http://www.w3.org/2000/svg" data-fui-icon="true">
  <path
    d="M8 0.5C10.4544 0.5 12.6318 1.67929 14 3.50098V2.25C14 1.83579 14.3358 1.5 14.75 1.5C15.1642 1.5 15.5 1.83579 15.5 2.25V6.25C15.5 6.66421 15.1642 7 14.75 7H14.5908C14.5577 7.00308 14.5249 7.00131 14.4922 7H10.75C10.3358 7 10 6.66421 10 6.25C10 5.83579 10.3358 5.5 10.75 5.5H13.4561C12.5078 3.43425 10.4207 2 8 2C5.22409 2 2.88622 3.88565 2.20215 6.44727C2.07018 6.94156 2 7.4622 2 8C2 8.5378 2.07018 9.05844 2.20215 9.55273C2.88622 12.1143 5.22409 14 8 14C10.7759 14 13.1138 12.1143 13.7979 9.55273C13.9047 9.15254 14.3156 8.91464 14.7158 9.02148C15.1158 9.12848 15.3539 9.53938 15.2471 9.93945C14.3922 13.141 11.4724 15.5 8 15.5C4.52765 15.5 1.60778 13.141 0.75293 9.93945C0.587563 9.32007 0.5 8.6696 0.5 8C0.5 7.3304 0.587563 6.67993 0.75293 6.06055C1.60778 2.85895 4.52765 0.5 8 0.5Z"
    fill="currentColor"
  />
</svg>
