<svg width="24" height="24" viewBox="0 0 24 24" fill="none" xmlns="http://www.w3.org/2000/svg" data-fui-icon="true">
  <path
    d="M22.25 14C22.9404 14 23.5 14.5596 23.5 15.25V20.25C23.5 20.9404 22.9404 21.5 22.25 21.5C21.5596 21.5 21 20.9404 21 20.25V19.1553C18.8938 21.8013 15.6468 23.4999 12 23.5C7.05619 23.4999 2.84379 20.3803 1.21777 16.0068C0.977493 15.3599 1.30722 14.641 1.9541 14.4004C2.60108 14.16 3.32092 14.4888 3.56152 15.1357C4.83533 18.5619 8.13446 20.9999 12 21C15.3292 20.9999 18.2369 19.1905 19.7939 16.5H17.25C16.5596 16.5 16 15.9404 16 15.25C16 14.5596 16.5596 14 17.25 14H22.25ZM12 0.5C16.9438 0.500103 21.1562 3.61962 22.7822 7.99316C23.0225 8.6399 22.6933 9.35879 22.0469 9.59961C21.3999 9.84013 20.6802 9.51107 20.4395 8.86426C19.1657 5.43808 15.8656 3.0001 12 3C8.67075 3.00008 5.76296 4.80938 4.20605 7.5H6.75C7.44036 7.5 8 8.05964 8 8.75C8 9.44036 7.44036 10 6.75 10H1.75C1.05964 10 0.5 9.44036 0.5 8.75V3.75C0.5 3.05964 1.05964 2.5 1.75 2.5C2.44036 2.5 3 3.05964 3 3.75V4.84277C5.10633 2.19759 8.35389 0.50007 12 0.5Z"
    fill="currentColor"
  />
</svg>
