<svg width="24" height="24" viewBox="0 0 24 24" fill="none" xmlns="http://www.w3.org/2000/svg" data-fui-icon="true">
  <path
    d="M22.0039 13.5C22.8323 13.5 23.5039 14.1716 23.5039 15V20C23.5039 20.8284 22.8323 21.5 22.0039 21.5C21.1757 21.4998 20.5039 20.8283 20.5039 20V19.7441C18.4007 22.0517 15.3722 23.5019 12.002 23.502C6.99321 23.5018 2.73575 20.3016 1.15625 15.8389C0.880031 15.058 1.28944 14.2002 2.07031 13.9238C2.85092 13.6482 3.70799 14.0574 3.98438 14.8379C5.15306 18.14 8.30346 20.5018 12.002 20.502C15.0436 20.5018 17.7138 18.9041 19.2168 16.5H17.0039C16.1757 16.4998 15.5039 15.8283 15.5039 15C15.5039 14.1717 16.1757 13.5002 17.0039 13.5H22.0039ZM12.002 0.5C17.0106 0.500141 21.269 3.70051 22.8486 8.16309C23.125 8.9439 22.7153 9.80157 21.9346 10.0781C21.1537 10.3544 20.2969 9.94494 20.0205 9.16406C18.8517 5.86218 15.7003 3.50014 12.002 3.5C8.96154 3.50012 6.29225 5.09748 4.78906 7.5H7C7.82822 7.50024 8.5 8.17172 8.5 9C8.5 9.82828 7.82822 10.4998 7 10.5H2C1.17157 10.5 0.5 9.82843 0.5 9V4C0.5 3.17157 1.17157 2.5 2 2.5C2.82822 2.50024 3.5 3.17172 3.5 4V4.25781C5.60299 1.95051 8.63195 0.500098 12.002 0.5Z"
    fill="currentColor"
  />
</svg>
