<svg width="16" height="16" viewBox="0 0 16 16" fill="none" xmlns="http://www.w3.org/2000/svg" data-fui-icon="true">
  <path
    d="M8.01367 1.75C6.28962 1.75009 5.02162 2.35796 3.91602 3.35254V2.66699C3.91602 2.25278 3.58023 1.91699 3.16602 1.91699C2.75212 1.91736 2.41602 2.25301 2.41602 2.66699V4.83301C2.41602 5.52314 2.97599 6.08264 3.66602 6.08301H5.83301C6.24722 6.08301 6.58301 5.74722 6.58301 5.33301C6.58283 4.91894 6.24711 4.58301 5.83301 4.58301L4.79395 4.58301C5.72539 3.70269 6.68593 3.25008 8.01367 3.25C10.637 3.25 12.7637 5.37665 12.7637 8C12.7637 10.6233 10.637 12.75 8.01367 12.75C5.94682 12.7498 4.18661 11.4288 3.53418 9.58301C3.39608 9.19285 2.96744 8.98833 2.57715 9.12598C2.18698 9.26409 1.98146 9.6927 2.11914 10.083C2.97677 12.5094 5.29137 14.2498 8.01367 14.25C11.4654 14.25 14.2637 11.4517 14.2637 8C14.2637 4.54822 11.4654 1.75 8.01367 1.75Z"
    fill="currentColor"
  />
</svg>
