<svg width="32" height="32" viewBox="0 0 32 32" fill="none" xmlns="http://www.w3.org/2000/svg" data-fui-icon="true">
  <path
    d="M30.5 19C31.0523 19 31.5 19.4477 31.5 20V27C31.5 27.5523 31.0523 28 30.5 28C29.9477 28 29.5 27.5523 29.5 27V23.6143C26.84 28.3201 21.7933 31.4999 16 31.5C9.28257 31.4999 3.56589 27.2267 1.41406 21.2539C1.35149 21.0802 1.29184 20.905 1.23535 20.7285C1.06703 20.2025 1.35682 19.64 1.88281 19.4717C2.40876 19.3035 2.97135 19.5932 3.13965 20.1191C3.18881 20.2728 3.24144 20.425 3.2959 20.5762C5.17103 25.7809 10.1523 29.4999 16 29.5C21.6875 29.4999 26.5543 25.9814 28.542 21H23.5C22.9477 21 22.5 20.5523 22.5 20C22.5 19.4477 22.9477 19 23.5 19H30.5ZM16 0.5C22.7175 0.500104 28.4351 4.77321 30.5869 10.7461C30.6495 10.9198 30.7091 11.095 30.7656 11.2715C30.9338 11.7973 30.6438 12.3598 30.1182 12.5283C29.5922 12.6966 29.0287 12.4068 28.8604 11.8809C28.8112 11.7273 28.7595 11.5749 28.7051 11.4238C26.83 6.219 21.8478 2.5001 16 2.5C10.3125 2.50013 5.44563 6.01859 3.45801 11H8.5C9.05228 11 9.5 11.4477 9.5 12C9.5 12.5523 9.05228 13 8.5 13H1.5C0.947715 13 0.5 12.5523 0.5 12V5C0.5 4.44772 0.947715 4 1.5 4C2.05228 4 2.5 4.44772 2.5 5V8.38477C5.15993 3.67927 10.2069 0.500114 16 0.5Z"
    fill="currentColor"
  />
</svg>
