<svg width="16" height="16" viewBox="0 0 16 16" fill="none" xmlns="http://www.w3.org/2000/svg" data-fui-icon="true">
  <path
    d="M14 9C14.5523 9 15 9.44771 15 10V13C15 13.5523 14.5523 14 14 14C13.4493 14 13.0026 13.5549 13 13.0049C11.709 14.2528 9.94011 14.9999 8 15C4.91933 14.9999 2.26802 13.119 1.28223 10.334C1.09803 9.81349 1.37027 9.24203 1.89062 9.05762C2.41105 8.87362 2.98261 9.14575 3.16699 9.66602C3.86421 11.6361 5.74908 12.9999 8 13C9.69625 12.9999 11.1835 12.2248 12.1123 11H11C10.4477 11 10 10.5523 10 10C10 9.44771 10.4477 9 11 9H14ZM8 1C11.0807 1.00013 13.733 2.88093 14.7188 5.66602C14.9029 6.18654 14.6298 6.75805 14.1094 6.94238C13.5889 7.12651 13.0174 6.85437 12.833 6.33398C12.1358 4.36385 10.251 3.00012 8 3C6.30366 3.0001 4.8156 3.77513 3.88672 5H5C5.55229 5 6 5.44772 6 6C6 6.55229 5.55229 7 5 7H2C1.44772 7 1 6.55229 1 6V3C1 2.44772 1.44772 2 2 2C2.55033 2 2.99587 2.44455 2.99902 2.99414C4.28979 1.74615 6.05987 1.00008 8 1Z"
    fill="currentColor"
  />
</svg>
