<svg width="12" height="12" viewBox="0 0 12 12" fill="none" xmlns="http://www.w3.org/2000/svg" data-fui-icon="true">
  <path
    d="M5.95703 0.75C7.73462 0.75 8.96394 1.50055 9.75 2.44629V2C9.75001 1.5858 10.0858 1.25 10.5 1.25C10.9142 1.25 11.25 1.5858 11.25 2V4.5293C11.2498 5.22329 10.6902 5.79785 9.98535 5.79785H7.5C7.08579 5.79785 6.75 5.46207 6.75 5.04785C6.75012 4.63374 7.08586 4.29785 7.5 4.29785H9.14062C8.72203 3.29709 7.73871 2.25 5.95703 2.25C3.6727 2.25005 2.25 3.9455 2.25 6C2.25 8.0545 3.6727 9.74994 5.95703 9.75C7.32526 9.75 8.45964 9.03967 9.09863 8.08301C9.32873 7.73867 9.79525 7.64594 10.1396 7.87598C10.484 8.10608 10.5767 8.57259 10.3467 8.91699C9.45059 10.2585 7.86332 11.25 5.95703 11.25C2.75578 11.2499 0.75 8.79158 0.75 6C0.75 3.20842 2.75578 0.750057 5.95703 0.75Z"
    fill="currentColor"
  />
</svg>
