<svg width="20" height="20" viewBox="0 0 20 20" fill="none" xmlns="http://www.w3.org/2000/svg" data-fui-icon="true">
  <path
    d="M18.5 12C19.0523 12 19.5 12.4477 19.5 13V17C19.5 17.5523 19.0523 18 18.5 18C17.9477 18 17.5 17.5523 17.5 17V15.8301C15.7622 18.0624 13.0496 19.4998 10 19.5C5.93223 19.4998 2.46406 16.9429 1.10938 13.3525C0.91469 12.8359 1.17578 12.2594 1.69238 12.0645C2.20891 11.8701 2.78561 12.131 2.98047 12.6475C4.05113 15.4846 6.79161 17.4998 10 17.5C12.6701 17.4998 15.0155 16.1036 16.3447 14H14.5C13.9477 14 13.5 13.5523 13.5 13C13.5 12.4477 13.9477 12 14.5 12H18.5ZM10 0.5C14.0678 0.500205 17.537 3.05705 18.8916 6.64746C19.0861 7.16389 18.8248 7.74051 18.3086 7.93555C17.792 8.13036 17.2155 7.86911 17.0205 7.35254C15.9499 4.51534 13.2084 2.5002 10 2.5C7.32992 2.50013 4.98444 3.89641 3.65527 6H5.5C6.05228 6 6.5 6.44772 6.5 7C6.5 7.55228 6.05228 8 5.5 8H1.5C0.947715 8 0.5 7.55228 0.5 7V3C0.5 2.44772 0.947715 2 1.5 2C2.05228 2 2.5 2.44772 2.5 3V4.16797C4.23771 1.93633 6.95089 0.500115 10 0.5Z"
    fill="currentColor"
  />
</svg>
