<svg width="32" height="32" viewBox="0 0 32 32" fill="none" xmlns="http://www.w3.org/2000/svg" data-fui-icon="true">
  <path
    d="M16 0.5C21.1337 0.5 25.68 2.99703 28.5 6.83887V4.5C28.5 3.67157 29.1716 3 30 3C30.8284 3 31.5 3.67157 31.5 4.5V11.5C31.5 12.3284 30.8284 13 30 13H23C22.1716 13 21.5 12.3284 21.5 11.5C21.5 10.6716 22.1716 10 23 10H26.9678C24.8435 6.12518 20.7273 3.5 16 3.5C10.5862 3.5 5.97287 6.94254 4.23633 11.7627C3.76035 13.0839 3.5 14.5099 3.5 16C3.5 17.4901 3.76035 18.9161 4.23633 20.2373C5.97287 25.0575 10.5862 28.5 16 28.5C21.4138 28.5 26.0271 25.0575 27.7637 20.2373C28.0445 19.4579 28.9042 19.0542 29.6836 19.335C30.4628 19.6158 30.8666 20.4746 30.5859 21.2539C28.4344 27.2261 22.7184 31.5 16 31.5C9.28162 31.5 3.56564 27.2261 1.41406 21.2539C0.822294 19.6113 0.5 17.8417 0.5 16C0.5 14.1583 0.822294 12.3887 1.41406 10.7461C3.56564 4.77385 9.28162 0.5 16 0.5Z"
    fill="currentColor"
  />
</svg>
