<svg width="12" height="12" viewBox="0 0 12 12" fill="none" xmlns="http://www.w3.org/2000/svg" data-fui-icon="true">
  <path
    d="M9.625 0.75C10.0391 0.750131 10.375 1.08587 10.375 1.5V3.625C10.375 4.24624 9.8712 4.74987 9.25 4.75H6.8125C6.3984 4.74987 6.0625 4.41413 6.0625 4C6.0625 3.58587 6.3984 3.25013 6.8125 3.25H7.89453C7.33956 2.83207 6.75 2.625 5.98926 2.625C4.12541 2.62513 2.61426 4.13612 2.61426 6C2.61426 7.86386 4.12542 9.37487 5.98926 9.375C7.45755 9.375 8.70913 8.43683 9.17285 7.125C9.31094 6.73466 9.73947 6.5301 10.1299 6.66797C10.5202 6.80615 10.7249 7.23459 10.5869 7.625C9.91799 9.51739 8.11301 10.875 5.98926 10.875C3.29698 10.8749 1.11426 8.69228 1.11426 6C1.11426 3.30769 3.29699 1.12513 5.98926 1.125C7.1782 1.125 8.08986 1.49791 8.875 2.1123V1.5C8.875 1.08587 9.2109 0.750132 9.625 0.75Z"
    fill="currentColor"
  />
</svg>
