<svg width="24" height="24" viewBox="0 0 24 24" fill="none" xmlns="http://www.w3.org/2000/svg" data-fui-icon="true">
  <path
    d="M7.5 5.14916C7.50006 2.28012 10.1491 0.144169 12.9531 0.751701L20.4531 2.3767C22.523 2.82532 24 4.65623 24 6.77416V17.2253C24 19.3433 22.523 21.1742 20.4531 21.6228L12.9531 23.2478C10.1491 23.8553 7.50006 21.7194 7.5 18.8503V15.9997C7.5 15.5855 7.83579 15.2497 8.25 15.2497C8.66421 15.2497 9 15.5855 9 15.9997V18.8503C9.00006 20.763 10.7664 22.187 12.6357 21.782L20.1357 20.157C21.5155 19.8578 22.5 18.6372 22.5 17.2253V6.77416C22.5 5.36232 21.5155 4.14171 20.1357 3.84252L12.6357 2.21752C10.7664 1.8125 9.00006 3.23648 9 5.14916V8.24975C9 8.66396 8.66421 8.99975 8.25 8.99975C7.83579 8.99975 7.5 8.66396 7.5 8.24975V5.14916ZM13.4697 7.96947C13.7626 7.67658 14.2374 7.67658 14.5303 7.96947L18.0303 11.4695C18.3231 11.7624 18.3232 12.2371 18.0303 12.53L14.5303 16.03C14.2374 16.3229 13.7626 16.3229 13.4697 16.03C13.1768 15.7371 13.1769 15.2624 13.4697 14.9695L15.6895 12.7497H3.25C2.67469 12.7497 2.31087 12.9369 2.09277 13.155C1.86764 13.3802 1.75 13.6853 1.75 13.9997C1.75002 14.3141 1.86771 14.6192 2.09277 14.8445C2.31091 15.0627 2.67483 15.2507 3.25 15.2507C3.66421 15.2507 4 15.5865 4 16.0007C3.9997 16.4147 3.66403 16.7507 3.25 16.7507C2.32522 16.7507 1.56409 16.437 1.03223 15.905C0.507487 15.3801 0.250018 14.6852 0.25 13.9997C0.25 13.3142 0.507404 12.6193 1.03223 12.0945C1.56413 11.5626 2.32531 11.2497 3.25 11.2497H15.6895L13.4697 9.03002C13.1768 8.73714 13.1769 8.26237 13.4697 7.96947Z"
    fill="currentColor"
  />
</svg>
