<svg width="12" height="12" viewBox="0 0 12 12" fill="none" xmlns="http://www.w3.org/2000/svg" data-fui-icon="true">
  <path
    d="M2.375 0.5625C1.9609 0.562631 1.625 0.898367 1.625 1.3125V3.625C1.625 4.24624 2.1288 4.74987 2.75 4.75H5.3125C5.7266 4.74987 6.0625 4.41413 6.0625 4C6.0625 3.58587 5.7266 3.25013 5.3125 3.25H4.10547C4.66044 2.83207 5.25 2.625 6.01074 2.625C7.87459 2.62513 9.38574 4.13612 9.38574 6C9.38574 7.86386 7.87458 9.37487 6.01074 9.375C4.54245 9.375 3.29087 8.43683 2.82715 7.125C2.68906 6.73466 2.26053 6.5301 1.87012 6.66797C1.47983 6.80615 1.2751 7.23459 1.41309 7.625C2.08201 9.51739 3.88699 10.875 6.01074 10.875C8.70302 10.8749 10.8857 8.69228 10.8857 6C10.8857 3.30769 8.70301 1.12513 6.01074 1.125C4.8218 1.125 3.91014 1.49791 3.125 2.1123V1.3125C3.125 0.898368 2.7891 0.562632 2.375 0.5625Z"
    fill="currentColor"
  />
</svg>
