<svg width="20" height="20" viewBox="0 0 20 20" fill="none" xmlns="http://www.w3.org/2000/svg" data-fui-icon="true">
  <path
    fill-rule="evenodd"
    clip-rule="evenodd"
    d="M5.5 4.11515C5.5 1.76713 7.63361 -0.00408372 9.94141 0.428629L15.9414 1.55363C17.7149 1.88632 19 3.43571 19 5.24015V14.7597C18.9998 16.564 17.7148 18.1136 15.9414 18.4462L9.94141 19.5712C7.63375 20.0039 5.50022 18.2325 5.5 15.8847V13.9999C5.5 13.5857 5.83579 13.2499 6.25 13.2499C6.66421 13.2499 7 13.5857 7 13.9999V15.8847C7.00022 17.2933 8.2805 18.3562 9.66504 18.0966L15.665 16.9716C16.7289 16.7719 17.4998 15.8421 17.5 14.7597V5.24015C17.5 4.15757 16.729 3.22795 15.665 3.02824L9.66504 1.90324C8.28036 1.64361 7 2.70634 7 4.11515V6.24992C6.99981 6.66397 6.66409 6.99992 6.25 6.99992C5.83591 6.99992 5.50019 6.66397 5.5 6.24992V4.11515ZM10.2197 6.96964C10.5126 6.67675 10.9874 6.67675 11.2803 6.96964L13.7803 9.46964C14.0729 9.76256 14.0731 10.2374 13.7803 10.5302L11.2803 13.0302C10.9874 13.3228 10.5126 13.3228 10.2197 13.0302C9.92692 12.7374 9.92708 12.2626 10.2197 11.9696L11.4395 10.7499H3C2.42469 10.7499 2.06087 10.9371 1.84277 11.1552C1.61778 11.3803 1.5 11.6856 1.5 11.9999C1.50012 12.3142 1.61781 12.6195 1.84277 12.8446C2.06094 13.0627 2.42501 13.2509 3 13.2509C3.41421 13.2509 3.75 13.5867 3.75 14.0009C3.74947 14.4147 3.41389 14.7509 3 14.7509C2.07534 14.7509 1.31408 14.4371 0.782227 13.9052C0.257594 13.3804 0.000122477 12.6852 0 11.9999C0 11.3145 0.257544 10.6195 0.782227 10.0946C1.31413 9.56274 2.07531 9.24992 3 9.24992H11.4395L10.2197 8.03019C9.92692 7.73738 9.92708 7.26256 10.2197 6.96964Z"
    fill="currentColor"
  />
</svg>
