<svg width="32" height="32" viewBox="0 0 32 32" fill="none" xmlns="http://www.w3.org/2000/svg" data-fui-icon="true">
  <path
    d="M15.876 2.25C23.3057 2.25 27.0489 7.24416 28.25 11.3301V5.75C28.25 5.33579 28.5858 5 29 5C29.4142 5 29.75 5.33579 29.75 5.75V11.75C29.75 12.9857 28.756 13.9998 27.5146 14H21.5713C21.1572 13.9999 20.8213 13.6642 20.8213 13.25C20.8213 12.8358 21.1572 12.5001 21.5713 12.5H27.002C26.2082 8.7819 22.9252 3.75 15.876 3.75C8.41076 3.75011 3.75 9.3686 3.75 16C3.75 22.6314 8.41076 28.2499 15.876 28.25C20.9922 28.25 25.11 25.234 26.9375 21.4258C27.1167 21.0523 27.5641 20.895 27.9375 21.0742C28.3109 21.2534 28.4682 21.7008 28.2891 22.0742C26.2261 26.3733 21.601 29.75 15.876 29.75C7.49384 29.7499 2.25 23.3685 2.25 16C2.25 8.63152 7.49384 2.25011 15.876 2.25Z"
    fill="currentColor"
  />
</svg>
