<svg width="24" height="24" viewBox="0 0 24 24" fill="none" xmlns="http://www.w3.org/2000/svg" data-fui-icon="true">
  <path
    d="M22.252 14.5C22.666 14.5002 23.002 14.8359 23.002 15.25V20.25C23.002 20.6641 22.666 20.9998 22.252 21C21.8377 21 21.502 20.6642 21.502 20.25V17.5469C19.5937 20.8084 16.0543 23 12.001 23C7.21162 23 3.13888 19.9402 1.62793 15.6709C1.48997 15.2805 1.69459 14.852 2.08496 14.7139C2.47517 14.5759 2.90357 14.7799 3.04199 15.1699C4.34753 18.859 7.86678 21.5 12.001 21.5C15.8178 21.5 19.1087 19.2486 20.6191 16H17.252C16.8377 16 16.502 15.6642 16.502 15.25C16.502 14.8358 16.8377 14.5 17.252 14.5H22.252ZM12.001 1C16.7901 1 20.8629 4.06011 22.374 8.3291C22.5122 8.71954 22.3074 9.14888 21.917 9.28711C21.5266 9.42508 21.0981 9.22041 20.96 8.83008C19.6543 5.14119 16.1351 2.5 12.001 2.5C8.18444 2.5 4.89338 4.75177 3.38281 8H6.75C7.16421 8 7.5 8.33579 7.5 8.75C7.5 9.16421 7.16421 9.5 6.75 9.5H1.75C1.33596 9.49979 1 9.16409 1 8.75V3.75C1 3.33591 1.33596 3.00021 1.75 3C2.16421 3 2.5 3.33579 2.5 3.75V6.45312C4.40839 3.19194 7.948 1 12.001 1Z"
    fill="currentColor"
  />
</svg>
