<svg width="32" height="32" viewBox="0 0 32 32" fill="none" xmlns="http://www.w3.org/2000/svg" data-fui-icon="true">
  <path
    fill-rule="evenodd"
    clip-rule="evenodd"
    d="M10 7.6736C10.0002 3.85814 13.5149 1.01236 17.2471 1.80544L27.2471 3.93044C30.0181 4.51929 31.9998 6.96571 32 9.7986V22.2009C31.9999 25.0339 30.0181 27.4802 27.2471 28.0691L17.2471 30.1941C13.5148 30.9872 10.0002 28.1415 10 24.3259V19.9998C10 19.4475 10.4477 18.9998 11 18.9998C11.5523 18.9998 12 19.4475 12 19.9998V24.3259C12.0002 26.8695 14.3431 28.7665 16.8311 28.2381L26.8311 26.1131C28.6784 25.7205 29.9999 24.0895 30 22.2009V9.7986C29.9998 7.91006 28.6784 6.27905 26.8311 5.88649L16.8311 3.76149C14.3431 3.23302 12.0002 5.13014 12 7.6736V12.2498C12 12.8021 11.5523 13.2498 11 13.2498C10.4477 13.2498 10 12.8021 10 12.2498V7.6736ZM18.293 10.7927C18.6835 10.4022 19.3165 10.4022 19.707 10.7927L24.207 15.2927C24.5975 15.6833 24.5975 16.3163 24.207 16.7068L19.707 21.2068C19.3165 21.5973 18.6835 21.5973 18.293 21.2068C17.9025 20.8163 17.9025 20.1833 18.293 19.7927L21.0859 16.9998H3.25C2.73292 16.9998 2.43533 17.166 2.26953 17.3318C2.09435 17.507 2 17.7472 2 17.9998C2.00002 18.2523 2.09441 18.4924 2.26953 18.6677C2.43539 18.8336 2.73311 19.0007 3.25 19.0007C3.80228 19.0007 4.25 19.4485 4.25 20.0007C4.24969 20.5528 3.80209 21.0007 3.25 21.0007C2.26696 21.0007 1.43962 20.6661 0.855469 20.0818C0.280786 19.5069 2.10404e-05 18.7471 0 17.9998C0 17.2524 0.280701 16.4925 0.855469 15.9177C1.43967 15.3335 2.26708 14.9998 3.25 14.9998H21.0859L18.293 12.2068C17.9025 11.8163 17.9025 11.1833 18.293 10.7927Z"
    fill="currentColor"
  />
</svg>
