<svg width="20" height="20" viewBox="0 0 20 20" fill="none" xmlns="http://www.w3.org/2000/svg" data-fui-icon="true">
  <path
    d="M10 0.5C14.0984 0.500103 17.5879 3.09531 18.9209 6.72754C19.2958 7.74941 19.5 8.85226 19.5 10C19.5 11.1477 19.2958 12.2506 18.9209 13.2725C17.5879 16.9047 14.0984 19.4999 10 19.5C5.90163 19.4999 2.41209 16.9046 1.0791 13.2725C0.841646 12.6245 1.17439 11.9067 1.82227 11.6689C2.4703 11.4313 3.18894 11.7641 3.42676 12.4121C4.41029 15.0914 6.98379 16.9999 10 17C13.0163 16.9999 15.5908 15.0915 16.5742 12.4121C16.8495 11.6619 17 10.8497 17 10C17 9.15028 16.8495 8.33805 16.5742 7.58789C15.5907 4.9085 13.0163 3.0001 10 3C7.62288 3.00008 5.52141 4.18611 4.25586 6H5.75C6.44036 6 7 6.55964 7 7.25C7 7.94036 6.44036 8.5 5.75 8.5H1.75C1.05964 8.5 0.5 7.94036 0.5 7.25V3.25C0.5 2.55964 1.05964 2 1.75 2C2.44036 2 3 2.55964 3 3.25V3.58008C4.73603 1.68813 7.22831 0.500071 10 0.5Z"
    fill="currentColor"
  />
</svg>
