<svg width="20" height="20" viewBox="0 0 20 20" fill="none" xmlns="http://www.w3.org/2000/svg" data-fui-icon="true">
  <path
    d="M18.75 12C19.1642 12 19.5 12.3358 19.5 12.75V17.75C19.5 18.1642 19.1642 18.5 18.75 18.5C18.3358 18.5 18 18.1642 18 17.75V15.123C16.3112 17.7547 13.3604 19.4999 10 19.5C5.79629 19.4999 2.23169 16.77 0.979492 12.9883C0.849379 12.5952 1.063 12.1703 1.45605 12.04C1.84914 11.9101 2.27315 12.1236 2.40332 12.5166C3.45825 15.7028 6.46211 17.9999 10 18C13.1619 17.9999 15.8956 16.1644 17.1943 13.5H13.75C13.3358 13.5 13 13.1642 13 12.75C13 12.3358 13.3358 12 13.75 12H18.75ZM10 0.5C14.2037 0.500085 17.7683 3.23001 19.0205 7.01172C19.1507 7.40494 18.9372 7.82977 18.5439 7.95996C18.1508 8.08997 17.7268 7.87653 17.5967 7.4834C16.5418 4.29719 13.5379 2.00009 10 2C6.83812 2.00009 4.10439 3.83556 2.80566 6.5H6.25C6.66421 6.5 7 6.83579 7 7.25C7 7.66421 6.66421 8 6.25 8H1.25C0.835786 8 0.5 7.66421 0.5 7.25V2.25C0.5 1.83579 0.835786 1.5 1.25 1.5C1.66421 1.5 2 1.83579 2 2.25V4.87793C3.68869 2.24583 6.63931 0.500085 10 0.5Z"
    fill="currentColor"
  />
</svg>
