<svg width="12" height="13" viewBox="0 0 12 13" fill="none" xmlns="http://www.w3.org/2000/svg" data-fui-icon="true">
  <path
    d="M3 2.25092C3.0003 0.772974 4.40197 -0.30347 5.83008 0.0770874L10.3301 1.27728C11.3147 1.54 11.9998 2.43203 12 3.45111V8.64642C12 9.66565 11.3148 10.5575 10.3301 10.8203L5.83008 12.0204C4.40189 12.401 3.00013 11.3247 3 9.84662V9.04877C3.00015 8.63483 3.33609 8.29902 3.75 8.29877C4.16412 8.29877 4.49985 8.63468 4.5 9.04877V9.84662C4.50013 10.3391 4.96743 10.6979 5.44336 10.5712L9.94336 9.37103C10.2716 9.28343 10.5 8.98616 10.5 8.64642V3.45111C10.4998 3.11152 10.2715 2.81403 9.94336 2.7265L5.44336 1.52631C4.96754 1.39972 4.5003 1.75854 4.5 2.25092V3.33392C4.5 3.74814 4.16421 4.08392 3.75 4.08392C3.336 4.08367 3 3.74798 3 3.33392V2.25092ZM5.96973 3.76849C6.26254 3.47574 6.73738 3.47586 7.03027 3.76849L8.78027 5.51849C9.07309 5.81137 9.07308 6.28616 8.78027 6.57904L7.03027 8.32904C6.73738 8.62167 6.26255 8.62179 5.96973 8.32904C5.67716 8.03621 5.67715 7.56133 5.96973 7.26849L6.43945 6.79877H2.5C2.11488 6.79885 1.8603 6.89655 1.71875 7.0097C1.59988 7.10492 1.50008 7.25639 1.5 7.54877C1.5 7.96298 1.16421 8.29877 0.75 8.29877C0.336008 8.29851 0 7.96282 0 7.54877C9.61648e-05 6.842 0.275787 6.24348 0.78125 5.83881C1.26452 5.45218 1.88583 5.29885 2.5 5.29877H6.43945L5.96973 4.82904C5.67716 4.53621 5.67715 4.06133 5.96973 3.76849Z"
    fill="currentColor"
  />
</svg>
