<svg width="20" height="20" viewBox="0 0 20 20" fill="none" xmlns="http://www.w3.org/2000/svg" data-fui-icon="true">
  <path
    fill-rule="evenodd"
    clip-rule="evenodd"
    d="M6 4.11489C6 1.61034 8.27565 -0.278312 10.7373 0.183249L16.7373 1.30825C18.6291 1.66306 20 3.3151 20 5.23989V14.7594C20 16.6842 18.6291 18.3363 16.7373 18.6911L10.7373 19.8161C8.27565 20.2776 6 18.389 6 15.8844V13.9997C6 13.4474 6.44772 12.9997 7 12.9997C7.55228 12.9997 8 13.4474 8 13.9997V15.8844C8 17.1366 9.13746 18.0808 10.3682 17.8502L16.3682 16.7252C17.3141 16.5479 18 15.7219 18 14.7594V5.23989C18 4.27746 17.3141 3.45143 16.3682 3.27407L10.3682 2.14907C9.13746 1.91852 8 2.86273 8 4.11489V6.24965C8 6.80194 7.55228 7.24965 7 7.24965C6.44772 7.24965 6 6.80194 6 6.24965V4.11489ZM10.293 6.79262C10.6835 6.4021 11.3165 6.4021 11.707 6.79262L14.207 9.29262C14.5975 9.68315 14.5975 10.3162 14.207 10.7067L11.707 13.2067C11.3165 13.5971 10.6835 13.5971 10.293 13.2067C9.90246 12.8162 9.90249 12.1832 10.293 11.7926L11.0859 10.9997H3.25C2.73292 10.9997 2.43533 11.1659 2.26953 11.3317C2.09436 11.5069 2 11.747 2 11.9997C2.00003 12.2522 2.09442 12.4923 2.26953 12.6676C2.43539 12.8335 2.73312 13.0006 3.25 13.0006C3.80228 13.0006 4.25 13.4483 4.25 14.0006C4.24968 14.5526 3.80209 15.0006 3.25 15.0006C2.26696 15.0006 1.43962 14.666 0.855469 14.0817C0.280791 13.5068 2.55566e-05 12.7469 0 11.9997C0 11.2523 0.280708 10.4924 0.855469 9.91762C1.43967 9.33342 2.26708 8.99965 3.25 8.99965H11.0859L10.293 8.20669C9.90246 7.81618 9.90249 7.18315 10.293 6.79262Z"
    fill="currentColor"
  />
</svg>
