<svg width="32" height="32" viewBox="0 0 32 32" fill="none" xmlns="http://www.w3.org/2000/svg" data-fui-icon="true">
  <path
    d="M10.25 18C10.6642 18 11 18.3358 11 18.75C11 19.1642 10.6642 19.5 10.25 19.5H4.71875C4.99044 21.1304 6.09462 23.2417 7.98535 25.0273C10.0675 26.9938 13.0351 28.5 16.7002 28.5C20.4453 28.4999 23.3986 26.9271 25.4219 24.9014C27.4699 22.8506 28.5 20.4059 28.5 18.75C28.5 18.3358 28.8358 18 29.25 18C29.6642 18 30 18.3358 30 18.75C30 20.9121 28.7243 23.7173 26.4824 25.9619C24.2156 28.2314 20.8938 29.9999 16.7002 30C12.6011 30 9.27621 28.3103 6.95508 26.1182C5.25279 24.5104 4.0552 22.5951 3.5 20.8281V26.25C3.5 26.6642 3.16421 27 2.75 27C2.33579 27 2 26.6642 2 26.25V20.25C2 19.0074 3.00736 18 4.25 18H10.25ZM15.2998 2C19.3989 2 22.7238 3.68967 25.0449 5.88184C26.7469 7.48928 27.9447 9.40415 28.5 11.1709V5.75C28.5 5.33579 28.8358 5 29.25 5C29.6642 5.00003 30 5.33581 30 5.75V11.75C30 12.9926 28.9926 14 27.75 14H21.75C21.3358 14 21 13.6642 21 13.25C21 12.8358 21.3358 12.5 21.75 12.5H27.2812C27.0096 10.8696 25.9054 8.75834 24.0146 6.97266C21.9325 5.00619 18.9649 3.5 15.2998 3.5C11.5547 3.50005 8.60143 5.07286 6.57812 7.09863C4.53005 9.14939 3.5 11.5941 3.5 13.25C3.5 13.6642 3.16421 14 2.75 14C2.33579 14 2 13.6642 2 13.25C2 11.0879 3.27569 8.2827 5.51758 6.03809C7.78443 3.76858 11.1062 2.00005 15.2998 2Z"
    fill="currentColor"
  />
</svg>
