<svg width="24" height="24" viewBox="0 0 24 24" fill="none" xmlns="http://www.w3.org/2000/svg" data-fui-icon="true">
  <path
    fill-rule="evenodd"
    clip-rule="evenodd"
    d="M8.99833 22.9978C4.58063 22.9977 0.99931 19.4165 0.99931 14.9988C0.999508 10.5812 4.58075 6.99987 8.99833 6.99976H19.6018L15.3089 2.70679C14.9187 2.31628 14.9186 1.68316 15.3089 1.29272C15.6993 0.902336 16.3324 0.902502 16.7229 1.29272L22.6995 7.26831C23.0899 7.6587 23.0896 8.29182 22.6995 8.68237L16.6751 14.7068C16.2846 15.0973 15.6516 15.0973 15.261 14.7068C14.8707 14.3162 14.8706 13.6832 15.261 13.2927L19.553 8.99976H8.99833C5.68532 8.99987 2.99951 11.6858 2.99931 14.9988C2.99931 18.3119 5.6852 20.9977 8.99833 20.9978H11.0813C11.6335 20.9978 12.0811 21.4457 12.0813 21.9978C12.0813 22.5501 11.6336 22.9978 11.0813 22.9978H8.99833Z"
    fill="currentColor"
  />
</svg>
