<svg width="12" height="12" viewBox="0 0 12 12" fill="none" xmlns="http://www.w3.org/2000/svg" data-fui-icon="true">
  <g clip-path="url(#clip0_6203_141)">
    <path
      d="M7.625 12C10.0412 11.9999 12 10.0412 12 7.625C12 5.2088 10.0412 3.25007 7.625 3.25H2.56055L4.53027 1.28027C4.82308 0.987396 4.82308 0.512604 4.53027 0.219727C4.2374 -0.0731459 3.76262 -0.0731039 3.46973 0.219727L0.219727 3.46973C-0.0731667 3.76262 -0.0731667 4.23738 0.219727 4.53027L3.46973 7.78027C3.76262 8.0731 4.2374 8.07315 4.53027 7.78027C4.82308 7.4874 4.82308 7.0126 4.53027 6.71973L2.56055 4.75H7.625C9.21276 4.75007 10.5 6.03722 10.5 7.625C10.5 9.21278 9.21276 10.4999 7.625 10.5H6.75C6.33579 10.5 6 10.8358 6 11.25C6 11.6642 6.33579 12 6.75 12H7.625Z"
      fill="currentColor"
    />
  </g>
  <defs>
    <clipPath id="clip0_6203_141"><path fill="currentColor" d="M0 0H12V12H0z" /></clipPath>
  </defs>
</svg>
