<svg width="16" height="16" viewBox="0 0 16 16" fill="none" xmlns="http://www.w3.org/2000/svg" data-fui-icon="true">
  <path
    fill-rule="evenodd"
    clip-rule="evenodd"
    d="M5.8776 14.9988C3.18462 14.9986 1.00084 12.8158 1.00065 10.1228C1.00074 7.42974 3.18456 5.24604 5.8776 5.24585H12.4352L9.47135 2.28003C9.17893 1.98709 9.17868 1.5122 9.47135 1.21948C9.76417 0.926828 10.2391 0.926965 10.5319 1.21948L14.7819 5.47144C15.0745 5.76427 15.0745 6.23913 14.7819 6.53198L10.5319 10.7839C10.2391 11.0768 9.7643 11.0767 9.47135 10.7839C9.17895 10.4911 9.17876 10.0162 9.47135 9.72339L12.4469 6.74585H5.8776C4.01298 6.74604 2.50074 8.25816 2.50065 10.1228C2.50084 11.9874 4.01305 13.4986 5.8776 13.4988H7.24869C7.66277 13.4988 7.99847 13.8348 7.99869 14.2488C7.99869 14.663 7.66291 14.9988 7.24869 14.9988H5.8776Z"
    fill="currentColor"
  />
</svg>
