<svg width="16" height="16" viewBox="0 0 16 16" fill="none" xmlns="http://www.w3.org/2000/svg" data-fui-icon="true">
  <g clip-path="url(#clip0_6203_145)">
    <path
      d="M10.1266 15.9978C13.3706 15.9977 16.0005 13.3678 16.0006 10.1238C16.0005 6.87969 13.3707 4.24985 10.1266 4.24976H2.56506L5.52991 1.28003C5.82243 0.987045 5.82261 0.512179 5.52991 0.219482C5.23692 -0.072998 4.76204 -0.0732098 4.46936 0.219482L0.21936 4.47632C-0.0724176 4.76915 -0.0727545 5.24327 0.21936 5.53589L4.46936 9.79175C4.76196 10.0845 5.23686 10.085 5.52991 9.79272C5.82298 9.50005 5.82256 9.02528 5.52991 8.73218L2.55334 5.74976H10.1266C12.5422 5.74985 14.5005 7.70812 14.5006 10.1238C14.5005 12.5394 12.5422 14.4977 10.1266 14.4978H8.75256C8.33867 14.498 8.00276 14.8339 8.00256 15.2478C8.00272 15.6617 8.33864 15.9976 8.75256 15.9978H10.1266Z"
      fill="currentColor"
    />
  </g>
  <defs>
    <clipPath id="clip0_6203_145"><path fill="currentColor" d="M0 0H16V16H0z" /></clipPath>
  </defs>
</svg>
