<svg width="12" height="12" viewBox="0 0 12 12" fill="none" xmlns="http://www.w3.org/2000/svg" data-fui-icon="true">
  <path
    d="M4.49982 11.9995C2.01464 11.9995 0 9.98481 0 7.49963C0 5.01445 2.01464 2.99982 4.49982 2.99982H6.87863L6.43919 2.56038C5.85343 1.97462 5.85343 1.02514 6.43919 0.439374C7.02497 -0.146171 7.97451 -0.146316 8.5602 0.439374L11.564 3.44316C11.6329 3.51264 11.6952 3.58885 11.7495 3.67069C11.7605 3.68715 11.7696 3.70468 11.7798 3.72147C11.794 3.74476 11.8089 3.76767 11.8218 3.79178C11.8337 3.81405 11.8433 3.83741 11.854 3.86013C11.8648 3.88287 11.8766 3.90514 11.8862 3.92849C11.8996 3.96088 11.9104 3.99405 11.9214 4.02712C11.9255 4.03951 11.9303 4.05169 11.9341 4.06423C11.9402 4.08459 11.9454 4.10519 11.9507 4.12575C11.9814 4.2454 11.9995 4.37051 11.9995 4.49976C11.9995 4.62933 11.9816 4.75481 11.9507 4.87474C11.9462 4.89201 11.9421 4.90936 11.937 4.9265L11.9312 4.94603C11.9242 4.96822 11.9156 4.98972 11.9077 5.01145C11.9004 5.03155 11.8944 5.05216 11.8862 5.072C11.8729 5.1044 11.8569 5.1355 11.8413 5.16672C11.8345 5.18051 11.8291 5.19509 11.8218 5.20871C11.8088 5.2328 11.794 5.25574 11.7798 5.27902C11.7696 5.2958 11.7605 5.31335 11.7495 5.3298C11.6942 5.41292 11.6304 5.48992 11.5601 5.56026L8.5602 8.56014C7.97451 9.14583 7.02497 9.14568 6.43919 8.56014C5.85343 7.97437 5.85343 7.02489 6.43919 6.43913L6.87863 5.99969H4.49982C3.67142 5.99969 2.99988 6.67124 2.99988 7.49963C2.99988 8.32803 3.67142 8.99957 4.49982 8.99957H5.24979C6.07796 8.99983 6.74973 9.67128 6.74973 10.4995C6.74973 11.3277 6.07796 11.9992 5.24979 11.9995H4.49982Z"
    fill="currentColor"
  />
</svg>
