<svg width="20" height="20" viewBox="0 0 20 20" fill="none" xmlns="http://www.w3.org/2000/svg" data-fui-icon="true">
  <g clip-path="url(#clip0_6203_188)">
    <path
      d="M7.24951 19.9983C3.24607 19.9982 0.000638962 16.7527 0.000488281 12.7493C0.000547409 8.74577 3.24601 5.5003 7.24951 5.50024H17.4507L13.2964 1.34009C13.0038 1.04694 13.0042 0.571198 13.2974 0.278564C13.5905 -0.0138264 14.0663 -0.0135155 14.3589 0.279541L19.7798 5.71021C20.0716 6.00287 20.0715 6.47707 19.7798 6.76978L14.3589 12.1995C14.0662 12.4926 13.5905 12.4931 13.2974 12.2004C13.0046 11.9078 13.0041 11.433 13.2964 11.1399L17.4292 7.00024H7.24951C4.07444 7.0003 1.50055 9.5742 1.50049 12.7493C1.50064 15.9243 4.0745 18.4982 7.24951 18.4983H9.04053C9.45432 18.4987 9.79041 18.8344 9.79053 19.2483C9.79038 19.6621 9.4543 19.9979 9.04053 19.9983H7.24951Z"
      fill="currentColor"
    />
  </g>
  <defs>
    <clipPath id="clip0_6203_188"><path fill="currentColor" d="M0 0H20V20H0z" /></clipPath>
  </defs>
</svg>
