<svg width="20" height="20" viewBox="0 0 20 20" fill="none" xmlns="http://www.w3.org/2000/svg" data-fui-icon="true">
  <path
    d="M7.49902 18.9983C3.90991 18.998 1.00007 16.0884 1 12.4993C1.00008 8.91011 3.90993 6.0005 7.49902 6.00024H15.8359L12.542 2.7063C12.1515 2.31579 12.1515 1.68276 12.542 1.29224C12.9325 0.90172 13.5655 0.901735 13.9561 1.29224L18.9561 6.29224C19.1435 6.47976 19.249 6.7341 19.249 6.99927C19.249 7.26445 19.1436 7.51879 18.9561 7.7063L13.9561 12.7063C13.5656 13.0968 12.9325 13.0967 12.542 12.7063C12.1515 12.3158 12.1515 11.6827 12.542 11.2922L15.834 8.00024H7.49902C5.01448 8.0005 3.00006 10.0147 3 12.4993C3.00008 14.9838 5.01448 16.998 7.49902 16.9983H9.49902C10.0511 16.9984 10.4989 17.4462 10.499 17.9983C10.4989 18.5504 10.0511 18.9982 9.49902 18.9983H7.49902Z"
    fill="currentColor"
  />
</svg>
