<svg width="12" height="12" viewBox="0 0 12 12" fill="none" xmlns="http://www.w3.org/2000/svg" data-fui-icon="true">
  <path
    fill-rule="evenodd"
    clip-rule="evenodd"
    d="M4.37506 11.9999C1.95887 11.9999 5.72205e-05 10.0411 5.72205e-05 7.62494C5.72205e-05 5.20873 1.95887 3.25001 4.37506 3.24994H9.43951L7.46978 1.28021C7.17697 0.987335 7.17697 0.512543 7.46978 0.219666C7.76266 -0.0732069 8.23743 -0.0731649 8.53033 0.219666L11.7803 3.46967C12.0732 3.76256 12.0732 4.23732 11.7803 4.53021L8.53033 7.78021C8.23743 8.07304 7.76266 8.07308 7.46978 7.78021C7.17697 7.48733 7.17697 7.01254 7.46978 6.71967L9.43951 4.74994H4.37506C2.7873 4.75001 1.50006 6.03716 1.50006 7.62494C1.50006 9.21272 2.7873 10.4999 4.37506 10.4999H5.25006C5.66427 10.4999 6.00006 10.8357 6.00006 11.2499C6.00006 11.6642 5.66427 11.9999 5.25006 11.9999H4.37506Z"
    fill="currentColor"
  />
</svg>
