<svg width="16" height="16" viewBox="0 0 16 16" fill="none" xmlns="http://www.w3.org/2000/svg" data-fui-icon="true">
  <path
    fill-rule="evenodd"
    clip-rule="evenodd"
    d="M10.1247 14.9988C12.8177 14.9986 15.0015 12.8158 15.0017 10.1228C15.0016 7.42974 12.8178 5.24604 10.1247 5.24585H3.5671L6.53097 2.28003C6.82339 1.98709 6.82364 1.5122 6.53097 1.21948C6.23815 0.926828 5.76327 0.926965 5.47042 1.21948L1.22042 5.47144C0.92781 5.76427 0.927845 6.23913 1.22042 6.53198L5.47042 10.7839C5.76324 11.0768 6.23802 11.0767 6.53097 10.7839C6.82337 10.4911 6.82356 10.0162 6.53097 9.72339L3.55538 6.74585H10.1247C11.9893 6.74604 13.5016 8.25816 13.5017 10.1228C13.5015 11.9874 11.9893 13.4986 10.1247 13.4988H8.75363C8.33955 13.4988 8.00385 13.8348 8.00363 14.2488C8.00363 14.663 8.33941 14.9988 8.75363 14.9988H10.1247Z"
    fill="currentColor"
  />
</svg>
