<svg width="16" height="16" viewBox="0 0 16 16" fill="none" xmlns="http://www.w3.org/2000/svg" data-fui-icon="true">
  <path
    fill-rule="evenodd"
    clip-rule="evenodd"
    d="M9.99805 14.9998C12.7606 14.9997 15 12.7603 15 9.9978C14.9999 7.2354 12.7605 4.99588 9.99805 4.99585H4.41992L6.70898 2.70679C7.09939 2.31626 7.09945 1.68321 6.70898 1.29272C6.31848 0.902426 5.68539 0.902377 5.29492 1.29272L1.29297 5.29468C1.1055 5.48214 1.00008 5.7366 1 6.00171C1 6.26684 1.10555 6.52122 1.29297 6.70874L5.29492 10.7107C5.68545 11.1012 6.31846 11.1012 6.70898 10.7107C7.09938 10.3202 7.09947 9.68711 6.70898 9.29663L4.4082 6.99585H9.99805C11.6559 6.99588 12.9999 8.33997 13 9.9978C13 11.6557 11.656 12.9997 9.99805 12.9998H8.75293C8.2008 12.9998 7.75309 13.4476 7.75293 13.9998C7.75293 14.552 8.2007 14.9997 8.75293 14.9998H9.99805Z"
    fill="currentColor"
  />
</svg>
