<svg width="24" height="24" viewBox="0 0 24 24" fill="none" xmlns="http://www.w3.org/2000/svg" data-fui-icon="true">
  <path
    d="M14.9935 22.9978C19.4113 22.9977 22.9926 19.4165 22.9926 14.9988C22.9924 10.5812 19.4112 6.99982 14.9935 6.99976H4.39001L8.68298 2.70679C9.07333 2.3163 9.07333 1.68321 8.68298 1.29272C8.29248 0.902494 7.65937 0.902418 7.26892 1.29272L1.29236 7.26831C0.902101 7.65863 0.902479 8.29182 1.29236 8.68237L7.31677 14.7068C7.70728 15.0973 8.34031 15.0972 8.73083 14.7068C9.12136 14.3163 9.12136 13.6832 8.73083 13.2927L4.43884 8.99976H14.9935C18.3066 8.99982 20.9924 11.6858 20.9926 14.9988C20.9926 18.312 18.3067 20.9977 14.9935 20.9978H12.9105C12.3585 20.998 11.9108 21.4458 11.9105 21.9978C11.9105 22.55 12.3584 22.9976 12.9105 22.9978H14.9935Z"
    fill="currentColor"
  />
</svg>
003Z"
    fill="currentColor"
  />
</svg>
