<svg width="12" height="12" viewBox="0 0 12 12" fill="none" xmlns="http://www.w3.org/2000/svg" data-fui-icon="true">
  <path
    fill-rule="evenodd"
    clip-rule="evenodd"
    d="M4.49983 11.9995C2.01465 11.9995 1.62118e-05 9.98481 1.62118e-05 7.49963C1.62118e-05 5.01445 2.01465 2.99982 4.49983 2.99982H8.5856L7.29269 1.7069C6.90221 1.31639 6.90219 0.68339 7.29269 0.292896C7.68321 -0.0975302 8.31622 -0.0975808 8.70669 0.292896L11.7066 3.29277C11.7342 3.32038 11.759 3.34982 11.7827 3.37968C11.8189 3.42527 11.8516 3.47366 11.8794 3.52519C11.9043 3.57129 11.9248 3.61906 11.9419 3.66776C11.9466 3.68113 11.9524 3.69418 11.9566 3.7078C12.0144 3.89802 12.0146 4.10256 11.9566 4.29273C11.9524 4.30635 11.9466 4.31941 11.9419 4.33277C11.9153 4.40817 11.8797 4.48104 11.8345 4.54956C11.7971 4.6062 11.7544 4.65897 11.7066 4.70678L8.70669 7.70666C8.31623 8.09698 7.68317 8.09695 7.29269 7.70666C6.90222 7.31619 6.9023 6.68317 7.29269 6.29265L8.5856 4.99974H4.49983C3.11918 4.99974 1.99993 6.11898 1.99993 7.49963C1.99993 8.88029 3.11918 9.99953 4.49983 9.99953H5.2498C5.80189 9.99974 6.24976 10.4474 6.24976 10.9995C6.24976 11.5516 5.80189 11.9992 5.2498 11.9995H4.49983Z"
    fill="currentColor"
  />
</svg>
