<svg width="32" height="32" viewBox="0 0 32 32" fill="none" xmlns="http://www.w3.org/2000/svg" data-fui-icon="true">
  <path
    fill-rule="evenodd"
    clip-rule="evenodd"
    d="M11.5003 30.9998C5.70133 30.9998 1.00032 26.2987 1.00032 20.4998C1.00045 14.7009 5.70141 9.99976 11.5003 9.99976H25.9075L19.4974 3.55737C18.9137 2.97013 18.9163 2.02043 19.5032 1.43628C20.0904 0.852362 21.0401 0.855324 21.6243 1.44214L30.5628 10.4246C31.145 11.0098 31.1451 11.9556 30.5628 12.5408L21.6243 21.5222C21.0401 22.1092 20.0905 22.112 19.5032 21.5281C18.9163 20.9437 18.9132 19.9931 19.4974 19.406L25.8724 12.9998H11.5003C7.35826 12.9998 4.00045 16.3577 4.00032 20.4998C4.00032 24.6419 7.35818 27.9998 11.5003 27.9998H15.4154C16.2435 28 16.9152 28.6716 16.9154 29.4998C16.9154 30.3281 16.2436 30.9995 15.4154 30.9998H11.5003Z"
    fill="currentColor"
  />
</svg>
