<svg width="32" height="32" viewBox="0 0 32 32" fill="none" xmlns="http://www.w3.org/2000/svg" data-fui-icon="true">
  <path
    fill-rule="evenodd"
    clip-rule="evenodd"
    d="M20.4997 30.9998C26.2987 30.9998 30.9997 26.2987 30.9997 20.4998C30.9996 14.7009 26.2986 9.99976 20.4997 9.99976H6.09245L12.5026 3.55737C13.0862 2.97015 13.0836 2.02041 12.4968 1.43628C11.9096 0.85239 10.9599 0.855408 10.3757 1.44214L1.43718 10.4246C0.85498 11.0098 0.854868 11.9556 1.43718 12.5408L10.3757 21.5222C10.9599 22.1091 11.9096 22.1119 12.4968 21.5281C13.0835 20.9437 13.0867 19.9931 12.5026 19.406L6.12761 12.9998H20.4997C24.6417 12.9998 27.9996 16.3577 27.9997 20.4998C27.9997 24.6419 24.6418 27.9998 20.4997 27.9998H16.5846C15.7564 27.9999 15.0848 28.6715 15.0846 29.4998C15.0846 30.3281 15.7563 30.9996 16.5846 30.9998H20.4997Z"
    fill="currentColor"
  />
</svg>
