<svg width="20" height="20" viewBox="0 0 20 20" fill="none" xmlns="http://www.w3.org/2000/svg" data-fui-icon="true">
  <path
    fill-rule="evenodd"
    clip-rule="evenodd"
    d="M7.24937 18.9983C3.79823 18.9982 1.00044 16.2004 1.00035 12.7493C1.00043 9.2981 3.79823 6.50037 7.24937 6.50024H16.4496L12.2377 2.28052C11.9452 1.98745 11.9458 1.51162 12.2386 1.21899C12.5318 0.926407 13.0075 0.926832 13.3002 1.21997L18.7787 6.71021C19.071 7.00316 19.0713 7.47806 18.7787 7.77075L13.2992 13.2502C13.0063 13.5426 12.5314 13.5428 12.2386 13.2502C11.9459 12.9575 11.9462 12.4826 12.2386 12.1897L16.4271 8.00024H7.24937C4.62665 8.00037 2.50041 10.1265 2.50035 12.7493C2.50044 15.372 4.62666 17.4982 7.24937 17.4983H9.24937C9.6634 17.4984 9.99925 17.8343 9.99937 18.2483C9.99922 18.6623 9.66338 18.9982 9.24937 18.9983H7.24937Z"
    fill="currentColor"
  />
</svg>
