<svg width="24" height="24" viewBox="0 0 24 24" fill="none" xmlns="http://www.w3.org/2000/svg" data-fui-icon="true">
  <path
    d="M15.0006 22.9998C19.4187 22.9995 23.0006 19.4179 23.0006 14.9998C23.0005 10.5817 19.4186 7 15.0006 6.99976H6.1217L9.56116 3.5603C10.1465 2.97449 10.1468 2.02485 9.56116 1.43921C8.97552 0.853575 8.02589 0.853874 7.44006 1.43921L1.44006 7.43921C1.1589 7.72041 0.999744 8.10211 0.999634 8.49976C0.999656 8.89755 1.15878 9.27902 1.44006 9.5603L7.44006 15.5603C8.02584 16.146 8.97539 16.146 9.56116 15.5603C10.1465 14.9745 10.1467 14.0249 9.56116 13.4392L6.1217 9.99976H15.0006C17.7617 10 20.0005 12.2386 20.0006 14.9998C20.0006 17.761 17.7618 19.9995 15.0006 19.9998H12.9108C12.0825 19.9999 11.4109 20.6715 11.4108 21.4998C11.4108 22.3281 12.0824 22.9997 12.9108 22.9998H15.0006Z"
    fill="currentColor"
  />
</svg>
