<svg width="12" height="12" viewBox="0 0 12 12" fill="none" xmlns="http://www.w3.org/2000/svg" data-fui-icon="true">
  <g clip-path="url(#clip0_6203_141)">
    <path
      d="M7.62512 12C10.0413 11.9999 12.0001 10.0412 12.0001 7.625C12.0001 5.2088 10.0413 3.25007 7.62512 3.25H2.56067L4.5304 1.28027C4.8232 0.987396 4.8232 0.512604 4.5304 0.219727C4.23752 -0.0731459 3.76275 -0.0731039 3.46985 0.219727L0.219849 3.46973C-0.0730446 3.76262 -0.0730446 4.23738 0.219849 4.53027L3.46985 7.78027C3.76275 8.0731 4.23752 8.07315 4.5304 7.78027C4.8232 7.4874 4.8232 7.0126 4.5304 6.71973L2.56067 4.75H7.62512C9.21288 4.75007 10.5001 6.03722 10.5001 7.625C10.5001 9.21278 9.21288 10.4999 7.62512 10.5H6.75012C6.33591 10.5 6.00012 10.8358 6.00012 11.25C6.00012 11.6642 6.33591 12 6.75012 12H7.62512Z"
      fill="currentColor"
    />
  </g>
  <defs>
    <clipPath id="clip0_6203_141"><path fill="currentColor" d="M0 0H12V12H0z" /></clipPath>
  </defs>
</svg>
