<svg width="32" height="32" viewBox="0 0 32 32" fill="none" xmlns="http://www.w3.org/2000/svg" data-fui-icon="true">
  <path
    fill-rule="evenodd"
    clip-rule="evenodd"
    d="M11.5025 30.9998C5.70304 30.9997 1.00154 26.2982 1.00149 20.4988C1.00169 14.6995 5.70313 9.99782 11.5025 9.9978H28.4644L20.7837 2.27905C20.4917 1.98563 20.4926 1.51073 20.7857 1.21851C21.0792 0.926432 21.554 0.927168 21.8462 1.22046L30.7857 10.2029C31.0768 10.4955 31.0768 10.9689 30.7857 11.2615L21.8462 20.2439C21.554 20.5368 21.0791 20.5378 20.7857 20.2458C20.4923 19.9537 20.4918 19.4789 20.7837 19.1853L28.4331 11.4978H11.5025C6.53156 11.4978 2.50169 15.5279 2.50149 20.4988C2.50154 25.4698 6.53146 29.4997 11.5025 29.4998H15.4204C15.8345 29.4998 16.1702 29.8357 16.1704 30.2498C16.1703 30.6639 15.8346 30.9998 15.4204 30.9998H11.5025Z"
    fill="currentColor"
  />
</svg>
