<svg width="24" height="24" viewBox="0 0 24 24" fill="none" xmlns="http://www.w3.org/2000/svg" data-fui-icon="true">
  <path
    fill-rule="evenodd"
    clip-rule="evenodd"
    d="M8.99895 22.9978C4.5812 22.9977 0.999929 19.4165 0.999929 14.9988C1.00013 10.5812 4.58133 6.99982 8.99895 6.99976H19.6025L15.3095 2.70679C14.9192 2.3163 14.9192 1.68321 15.3095 1.29272C15.7 0.902494 16.3331 0.902418 16.7236 1.29272L22.7001 7.26831C23.0904 7.65863 23.09 8.29182 22.7001 8.68237L16.6757 14.7068C16.2852 15.0973 15.6522 15.0972 15.2616 14.7068C14.8711 14.3163 14.8711 13.6832 15.2616 13.2927L19.5536 8.99976H8.99895C5.68589 8.99982 3.00013 11.6858 2.99993 14.9988C2.99993 18.312 5.68577 20.9977 8.99895 20.9978H11.082C11.6339 20.998 12.0817 21.4458 12.082 21.9978C12.082 22.55 11.6341 22.9976 11.082 22.9978H8.99895Z"
    fill="currentColor"
  />
</svg>
