<svg width="32" height="32" viewBox="0 0 32 32" fill="none" xmlns="http://www.w3.org/2000/svg" data-fui-icon="true">
  <path
    fill-rule="evenodd"
    clip-rule="evenodd"
    d="M11.5006 30.9998C5.70165 30.9998 1.00064 26.2987 1.00064 20.4998C1.00077 14.7009 5.70173 9.99976 11.5006 9.99976H27.6129L20.3522 2.70483C19.9631 2.31333 19.9648 1.68018 20.3561 1.29077C20.7475 0.901522 21.3807 0.903555 21.7702 1.29468L30.7086 10.2771C31.0968 10.6672 31.0968 11.2971 30.7086 11.6873L21.7702 20.6697C21.3807 21.061 20.7476 21.0628 20.3561 20.6736C19.9649 20.284 19.9627 19.6499 20.3522 19.2585L27.5758 11.9998H11.5006C6.8063 11.9998 3.00077 15.8054 3.00064 20.4998C3.00064 25.1942 6.80622 28.9998 11.5006 28.9998H15.4157C15.9677 28.9999 16.4156 29.4477 16.4157 29.9998C16.4157 30.5519 15.9678 30.9996 15.4157 30.9998H11.5006Z"
    fill="currentColor"
  />
</svg>
