<svg width="20" height="20" viewBox="0 0 20 20" fill="none" xmlns="http://www.w3.org/2000/svg" data-fui-icon="true">
  <path
    fill-rule="evenodd"
    clip-rule="evenodd"
    d="M12.7501 18.9983C16.2012 18.9981 18.9991 16.2004 18.9992 12.7493C18.9991 9.29815 16.2012 6.50046 12.7501 6.50024H3.54994L7.76186 2.28052C8.05422 1.98747 8.0536 1.5116 7.76088 1.21899C7.46774 0.926434 6.99197 0.926916 6.69936 1.21997L1.22084 6.71021C0.928464 7.00316 0.928214 7.47806 1.22084 7.77075L6.70033 13.2502C6.99322 13.5425 7.46816 13.5428 7.76088 13.2502C8.0535 12.9575 8.0532 12.4826 7.76088 12.1897L3.5724 8.00024H12.7501C15.3728 8.00046 17.4991 10.1266 17.4992 12.7493C17.4991 15.3719 15.3728 17.4981 12.7501 17.4983H10.7501C10.3361 17.4984 10.0003 17.8343 10.0001 18.2483C10.0003 18.6623 10.3361 18.9982 10.7501 18.9983H12.7501Z"
    fill="currentColor"
  />
</svg>
