<svg width="24" height="24" viewBox="0 0 24 24" fill="none" xmlns="http://www.w3.org/2000/svg" data-fui-icon="true">
  <g clip-path="url(#clip0_6203_192)">
    <path
      d="M8.74829 23.9978C3.91652 23.9975 -0.000732422 20.0806 -0.000732422 15.2488C-0.000534058 10.4171 3.91665 6.50005 8.74829 6.49976H21.4612L16.467 1.50562C16.1743 1.21274 16.1743 0.737936 16.467 0.445068C16.7599 0.15221 17.2347 0.152279 17.5276 0.445068L23.7786 6.69604C23.919 6.83666 23.9983 7.02757 23.9983 7.22632C23.9982 7.42509 23.9191 7.61603 23.7786 7.75659L17.5276 14.0066C17.2347 14.2994 16.7599 14.2995 16.467 14.0066C16.1744 13.7137 16.1743 13.2389 16.467 12.946L21.4124 7.99976H8.74829C4.74507 8.00005 1.49947 11.2455 1.49927 15.2488C1.49927 19.2522 4.74495 22.4975 8.74829 22.4978H10.8313C11.2453 22.4978 11.581 22.8338 11.5813 23.2478C11.5813 23.662 11.2455 23.9978 10.8313 23.9978H8.74829Z"
      fill="currentColor"
    />
  </g>
  <defs>
    <clipPath id="clip0_6203_192"><path fill="currentColor" d="M0 0H24V24H0z" /></clipPath>
  </defs>
</svg>
