<svg width="24" height="24" viewBox="0 0 24 24" fill="none" xmlns="http://www.w3.org/2000/svg" data-fui-icon="true">
  <path
    fill-rule="evenodd"
    clip-rule="evenodd"
    d="M15.2488 22.9978C19.5285 22.9977 22.9978 19.5285 22.9978 15.2488C22.9976 10.9693 19.5283 7.49982 15.2488 7.49976H3.53687L8.7605 2.28003C9.05309 1.98721 9.05315 1.51235 8.7605 1.21948C8.46776 0.9268 7.99289 0.926991 7.69995 1.21948L1.21948 7.69507C1.07885 7.83559 0.999914 8.02655 0.999756 8.22534C0.999719 8.42425 1.07886 8.61494 1.21948 8.75562L7.69995 15.2371C7.99279 15.5297 8.46766 15.5297 8.7605 15.2371C9.05311 14.9442 9.05312 14.4694 8.7605 14.1765L3.58569 8.99976H15.2488C18.6999 8.99982 21.4976 11.7977 21.4978 15.2488C21.4978 18.7 18.7 21.4977 15.2488 21.4978H13.1658C12.7518 21.4978 12.416 21.8338 12.4158 22.2478C12.4158 22.662 12.7516 22.9978 13.1658 22.9978H15.2488Z"
    fill="currentColor"
  />
</svg>
