<svg width="20" height="20" viewBox="0 0 20 20" fill="none" xmlns="http://www.w3.org/2000/svg" data-fui-icon="true">
  <g clip-path="url(#clip0_6203_149)">
    <path
      d="M12.7495 19.9983C16.753 19.9982 19.9984 16.7527 19.9985 12.7493C19.9985 8.74577 16.753 5.5003 12.7495 5.50024H2.54834L6.70264 1.34009C6.99524 1.04694 6.99479 0.571198 6.70166 0.278564C6.4085 -0.0138264 5.9327 -0.0135155 5.64014 0.279541L0.219238 5.71021C-0.072562 6.00287 -0.0724958 6.47707 0.219238 6.76978L5.64014 12.1995C5.93278 12.4926 6.40852 12.4931 6.70166 12.2004C6.99446 11.9078 6.99497 11.433 6.70264 11.1399L2.56982 7.00024H12.7495C15.9246 7.0003 18.4985 9.5742 18.4985 12.7493C18.4984 15.9243 15.9245 18.4982 12.7495 18.4983H10.9585C10.5447 18.4987 10.2086 18.8344 10.2085 19.2483C10.2086 19.6621 10.5447 19.9979 10.9585 19.9983H12.7495Z"
      fill="currentColor"
    />
  </g>
  <defs>
    <clipPath id="clip0_6203_149"><path fill="currentColor" d="M0 0H20V20H0z" /></clipPath>
  </defs>
</svg>
