<svg width="12" height="12" viewBox="0 0 12 12" fill="none" xmlns="http://www.w3.org/2000/svg" data-fui-icon="true">
  <path
    fill-rule="evenodd"
    clip-rule="evenodd"
    d="M7.4997 12C9.98498 12 11.9997 9.98528 11.9997 7.5C11.9997 5.01472 9.98498 3 7.4997 3H5.1208L5.56025 2.56055C6.14603 1.97476 6.14603 1.02524 5.56025 0.439453C4.97445 -0.146212 4.0249 -0.146293 3.43915 0.439453L0.435248 3.44336C0.368254 3.51086 0.307849 3.58486 0.254584 3.66406C0.23474 3.69355 0.217419 3.72436 0.199897 3.75488C0.192921 3.76703 0.185055 3.77866 0.178412 3.79102C0.166243 3.81367 0.15613 3.83722 0.145209 3.86035C0.134324 3.88337 0.122713 3.90605 0.112983 3.92969C0.108198 3.94134 0.10379 3.9531 0.0993109 3.96484C0.0703313 4.04065 0.0464333 4.11906 0.029975 4.2002C-0.0107053 4.40056 -0.00888413 4.60744 0.0329047 4.80762C0.0492996 4.88621 0.0711418 4.96258 0.0993109 5.03613C0.103796 5.04787 0.108192 5.05965 0.112983 5.07129C0.126466 5.10399 0.142225 5.1355 0.157905 5.16699C0.164959 5.18118 0.170881 5.19596 0.178412 5.20996C0.185061 5.22231 0.192916 5.23396 0.199897 5.24609C0.239879 5.31565 0.284566 5.38351 0.336616 5.44727C0.36883 5.48678 0.403144 5.52453 0.439155 5.56055L3.43915 8.56055C4.0249 9.14629 4.97445 9.14621 5.56025 8.56055C6.14603 7.97476 6.14603 7.02524 5.56025 6.43945L5.1208 6H7.4997C8.32813 6 8.9997 6.67157 8.9997 7.5C8.9997 8.32843 8.32813 9 7.4997 9H6.7497C5.92141 9.00016 5.2497 9.67167 5.2497 10.5C5.2497 11.3283 5.92141 11.9998 6.7497 12H7.4997Z"
    fill="currentColor"
  />
</svg>
