<svg width="12" height="12" viewBox="0 0 12 12" fill="none" xmlns="http://www.w3.org/2000/svg" data-fui-icon="true">
  <path
    fill-rule="evenodd"
    clip-rule="evenodd"
    d="M7.49945 11.9995C9.98463 11.9995 11.9993 9.98481 11.9993 7.49963C11.9993 5.01445 9.98463 2.99982 7.49945 2.99982H4.26716L5.13334 2.13364C5.62147 1.64551 5.62147 0.854271 5.13334 0.366135C4.64519 -0.121853 3.85392 -0.121951 3.36583 0.366135L0.365954 3.36601C-0.121985 3.85411 -0.121985 4.64542 0.365954 5.13352L3.36583 8.1334C3.85392 8.62148 4.64519 8.62139 5.13334 8.1334C5.62147 7.64526 5.62147 6.85403 5.13334 6.36589L4.26716 5.49972H7.49945C8.60398 5.49972 9.49937 6.39511 9.49937 7.49963C9.49937 8.60416 8.60398 9.49955 7.49945 9.49955H6.74948C6.05932 9.49975 5.49953 10.0593 5.49953 10.7495C5.49953 11.4397 6.05932 11.9993 6.74948 11.9995H7.49945Z"
    fill="currentColor"
  />
</svg>
001 7.49963C10.0001 8.88024 8.8808 9.99946 7.50021 9.99953H6.75024C6.19798 9.99953 5.75028 10.4472 5.75028 10.9995C5.75028 11.5518 6.19798 11.9995 6.75024 11.9995H7.50021Z"
    fill="currentColor"
  />
</svg>
