<svg width="20" height="20" viewBox="0 0 20 20" fill="none" xmlns="http://www.w3.org/2000/svg" data-fui-icon="true">
  <path
    d="M7.49976 19.0002C3.90999 19.0002 0.999887 16.09 0.999756 12.5002C0.999756 8.91039 3.90991 6.00024 7.49976 6.00024H13.8787L11.4392 3.56079C10.8535 2.97505 10.8535 2.02549 11.4392 1.4397C12.025 0.85391 12.9745 0.85391 13.5603 1.4397L18.5603 6.4397C18.8415 6.72098 18.9997 7.10249 18.9998 7.50024C18.9997 7.89798 18.8415 8.27954 18.5603 8.56079L13.5603 13.5608C12.9745 14.1464 12.025 14.1464 11.4392 13.5608C10.8535 12.975 10.8536 12.0255 11.4392 11.4397L13.8787 9.00024H7.49976C5.56676 9.00024 3.99976 10.5672 3.99976 12.5002C3.99989 14.4331 5.56684 16.0002 7.49976 16.0002H9.24976C10.0782 16.0002 10.7498 16.6718 10.7498 17.5002C10.7496 18.3286 10.0781 19.0002 9.24976 19.0002H7.49976Z"
    fill="currentColor"
  />
</svg>
