<svg width="32" height="32" viewBox="0 0 32 32" fill="none" xmlns="http://www.w3.org/2000/svg" data-fui-icon="true">
  <path
    d="M11.502 30.9998C5.70271 30.9995 1.00102 26.2981 1.00098 20.4988C1.00117 14.6996 5.7028 9.99805 11.502 9.9978H28.4648L20.7842 2.27905C20.4921 1.98555 20.4928 1.51071 20.7861 1.21851C21.0796 0.926483 21.5545 0.927185 21.8467 1.22046L30.7861 10.2029C31.077 10.4955 31.0771 10.969 30.7861 11.2615L21.8467 20.2439C21.5546 20.537 21.0796 20.5376 20.7861 20.2458C20.4927 19.9536 20.4921 19.4788 20.7842 19.1853L28.4336 11.4978H11.502C6.53123 11.498 2.50117 15.528 2.50098 20.4988C2.50102 25.4696 6.53114 29.4995 11.502 29.4998H14.4199C14.834 29.4998 15.1697 29.8357 15.1699 30.2498C15.1698 30.6639 14.8341 30.9998 14.4199 30.9998H11.502Z"
    fill="currentColor"
  />
</svg>
