<svg width="12" height="12" viewBox="0 0 12 12" fill="none" xmlns="http://www.w3.org/2000/svg" data-fui-icon="true">
  <g clip-path="url(#clip0_6203_180)">
    <path
      d="M4.375 12C1.95881 11.9999 0 10.0412 0 7.625C0 5.2088 1.95881 3.25007 4.375 3.25H9.43945L7.46973 1.28027C7.17692 0.987396 7.17692 0.512604 7.46973 0.219727C7.7626 -0.0731459 8.23738 -0.0731039 8.53027 0.219727L11.7803 3.46973C12.0732 3.76262 12.0732 4.23738 11.7803 4.53027L8.53027 7.78027C8.23738 8.0731 7.7626 8.07315 7.46973 7.78027C7.17692 7.4874 7.17692 7.0126 7.46973 6.71973L9.43945 4.75H4.375C2.78724 4.75007 1.5 6.03722 1.5 7.625C1.5 9.21278 2.78724 10.4999 4.375 10.5H5.25C5.66421 10.5 6 10.8358 6 11.25C6 11.6642 5.66421 12 5.25 12H4.375Z"
      fill="currentColor"
    />
  </g>
  <defs>
    <clipPath id="clip0_6203_180"><path fill="currentColor" d="M0 0H12V12H0z" /></clipPath>
  </defs>
</svg>
