<svg width="12" height="12" viewBox="0 0 12 12" fill="none" xmlns="http://www.w3.org/2000/svg" data-fui-icon="true">
  <path
    fill-rule="evenodd"
    clip-rule="evenodd"
    d="M4.49986 11.9996C2.01465 11.9996 -2.86094e-06 9.98498 -2.86094e-06 7.49977C-2.86094e-06 5.01457 2.01465 2.99991 4.49986 2.99991H7.73218L6.866 2.13372C6.37786 1.64558 6.37786 0.85434 6.866 0.3662C7.35415 -0.121793 8.14543 -0.121891 8.63352 0.3662L11.6334 3.36611C12.1214 3.85421 12.1214 4.64553 11.6334 5.13363L8.63352 8.13354C8.14543 8.62163 7.35415 8.62153 6.866 8.13354C6.37786 7.6454 6.37786 6.85416 6.866 6.36602L7.73218 5.49983H4.49986C3.39532 5.49983 2.49992 6.39524 2.49992 7.49977C2.49992 8.60431 3.39532 9.49971 4.49986 9.49971H5.24984C5.94 9.49991 6.4998 10.0595 6.4998 10.7497C6.4998 11.4399 5.94 11.9994 5.24984 11.9996H4.49986Z"
    fill="currentColor"
  />
</svg>
6.11908 1.99989 7.49969C1.99989 8.88031 3.1192 9.99952 4.49979 9.99959H5.24976C5.80202 9.99959 6.24972 10.4473 6.24972 10.9996C6.24972 11.5518 5.80202 11.9995 5.24976 11.9995H4.49979Z"
    fill="currentColor"
  />
</svg>
