<svg width="12" height="12" viewBox="0 0 12 12" fill="none" xmlns="http://www.w3.org/2000/svg" data-fui-icon="true">
  <path
    fill-rule="evenodd"
    clip-rule="evenodd"
    d="M7.49969 11.9995C9.98487 11.9995 11.9995 9.98481 11.9995 7.49963C11.9995 5.01445 9.98487 2.99982 7.49969 2.99982H5.12089L5.56032 2.56038C6.14608 1.97462 6.14608 1.02514 5.56032 0.439374C4.97454 -0.146171 4.025 -0.146316 3.43931 0.439374L0.435529 3.44316C0.366586 3.51264 0.304359 3.58885 0.24999 3.67069C0.239049 3.68715 0.229939 3.70468 0.219718 3.72147C0.205532 3.74476 0.190656 3.76767 0.177727 3.79178C0.165791 3.81405 0.156232 3.83741 0.145502 3.86013C0.134748 3.88287 0.122903 3.90514 0.113277 3.92849C0.0999514 3.96088 0.0890831 3.99405 0.0781218 4.02712C0.0740048 4.03951 0.069227 4.05169 0.065427 4.06423C0.0592636 4.08459 0.0541044 4.10519 0.0488261 4.12575C0.0180865 4.2454 0 4.37051 0 4.49976C0 4.62933 0.0179344 4.75481 0.0488261 4.87474C0.0532711 4.89201 0.057428 4.90936 0.0624975 4.9265L0.0683566 4.94603C0.0752638 4.96822 0.0838965 4.98972 0.0917931 5.01145C0.0990811 5.03155 0.105102 5.05216 0.113277 5.072C0.12666 5.1044 0.142655 5.1355 0.158197 5.16672C0.165054 5.18051 0.170419 5.19509 0.177727 5.20871C0.190666 5.2328 0.205524 5.25574 0.219718 5.27902C0.229944 5.2958 0.239044 5.31335 0.24999 5.3298C0.305275 5.41292 0.369127 5.48992 0.439435 5.56026L3.43931 8.56014C4.025 9.14583 4.97454 9.14568 5.56032 8.56014C6.14608 7.97437 6.14608 7.02489 5.56032 6.43913L5.12089 5.99969H7.49969C8.32809 5.99969 8.99963 6.67124 8.99963 7.49963C8.99963 8.32803 8.32809 8.99957 7.49969 8.99957H6.74973C5.92155 8.99983 5.24979 9.67128 5.24979 10.4995C5.24979 11.3277 5.92155 11.9992 6.74973 11.9995H7.49969Z"
    fill="currentColor"
  />
</svg>
