<svg width="12" height="12" viewBox="0 0 12 12" fill="none" xmlns="http://www.w3.org/2000/svg" data-fui-icon="true">
  <path
    d="M6 0C9.31371 0 12 2.68629 12 6C12 9.31371 9.31371 12 6 12C2.68629 12 0 9.31371 0 6C0 2.68629 2.68629 0 6 0ZM6 2C3.79086 2 2 3.79086 2 6C2 8.20914 3.79086 10 6 10C8.20914 10 10 8.20914 10 6C10 3.79086 8.20914 2 6 2ZM6 6.25C7.2491 6.25018 8.01041 6.93699 8.36133 7.37402C8.70685 7.80469 8.63763 8.4346 8.20703 8.78027C7.77637 9.12551 7.14637 9.05647 6.80078 8.62598C6.67602 8.47074 6.43375 8.25016 6 8.25C5.56602 8.25016 5.32294 8.47073 5.19824 8.62598C4.85253 9.05636 4.22258 9.12572 3.79199 8.78027C3.36174 8.43461 3.29247 7.80459 3.6377 7.37402C3.98853 6.937 4.75068 6.25018 6 6.25ZM4.25 3.78125C4.80228 3.78125 5.25 4.22897 5.25 4.78125C5.25 5.33353 4.80228 5.78125 4.25 5.78125C3.69772 5.78125 3.25 5.33353 3.25 4.78125C3.25 4.22897 3.69772 3.78125 4.25 3.78125ZM7.75 3.78125C8.30229 3.78125 8.75 4.22897 8.75 4.78125C8.75 5.33353 8.30229 5.78125 7.75 5.78125C7.19772 5.78125 6.75 5.33353 6.75 4.78125C6.75 4.22897 7.19772 3.78125 7.75 3.78125Z"
    fill="currentColor"
  />
</svg>
