<svg width="16" height="16" viewBox="0 0 16 16" fill="none" xmlns="http://www.w3.org/2000/svg" data-fui-icon="true">
  <path
    d="M8 0.5C12.1421 0.5 15.5 3.85786 15.5 8C15.5 12.1421 12.1421 15.5 8 15.5C3.85786 15.5 0.5 12.1421 0.5 8C0.5 3.85786 3.85786 0.5 8 0.5ZM8 9.25C6.93254 9.25 6.15071 9.63498 5.63672 10.0303C5.38265 10.2257 5.19485 10.4225 5.06836 10.5742C5.0049 10.6504 4.95576 10.7168 4.9209 10.7666C4.90358 10.7914 4.88952 10.8127 4.87891 10.8291C4.87372 10.8371 4.86885 10.8438 4.86523 10.8496C4.86339 10.8526 4.86179 10.856 4.86035 10.8584C4.85972 10.8594 4.85895 10.8604 4.8584 10.8613L4.85742 10.8623V10.8633L4.85645 10.8643C4.64357 11.2194 4.75917 11.6805 5.11426 11.8936C5.46686 12.1049 5.92365 11.9927 6.13867 11.6436C6.13983 11.6418 6.14392 11.6352 6.15039 11.626C6.16342 11.6074 6.18685 11.5758 6.2207 11.5352C6.28948 11.4526 6.39885 11.3366 6.55078 11.2197C6.8493 10.9901 7.31765 10.75 8 10.75C8.68235 10.75 9.1507 10.9901 9.44922 11.2197C9.60115 11.3366 9.71052 11.4526 9.7793 11.5352C9.81315 11.5758 9.83658 11.6074 9.84961 11.626L9.86133 11.6436C10.0764 11.9927 10.5331 12.1049 10.8857 11.8936C11.2408 11.6805 11.3564 11.2194 11.1436 10.8643L11.1426 10.8633V10.8623L11.1416 10.8613C11.1411 10.8604 11.1403 10.8594 11.1396 10.8584C11.1382 10.856 11.1366 10.8526 11.1348 10.8496C11.1311 10.8438 11.1263 10.8371 11.1211 10.8291C11.1105 10.8127 11.0964 10.7914 11.0791 10.7666C11.0442 10.7168 10.9951 10.6504 10.9316 10.5742C10.8051 10.4225 10.6173 10.2257 10.3633 10.0303C9.84929 9.63498 9.06746 9.25 8 9.25ZM5.5 6C4.94772 6 4.5 6.44772 4.5 7C4.5 7.55228 4.94772 8 5.5 8C6.05228 8 6.5 7.55228 6.5 7C6.5 6.44772 6.05228 6 5.5 6ZM10.5 6C9.94771 6 9.5 6.44772 9.5 7C9.5 7.55228 9.94771 8 10.5 8C11.0523 8 11.5 7.55228 11.5 7C11.5 6.44772 11.0523 6 10.5 6Z"
    fill="currentColor"
  />
</svg>
