<svg width="20" height="20" viewBox="0 0 20 20" fill="none" xmlns="http://www.w3.org/2000/svg" data-fui-icon="true">
  <path
    d="M10 0.5C15.1487 0.5 19.5 4.85125 19.5 10C19.5 15.1487 15.1487 19.5 10 19.5C4.85125 19.5 0.5 15.1487 0.5 10C0.5 4.85125 4.85125 0.5 10 0.5ZM10 2C5.67968 2 2 5.67968 2 10C2 14.3203 5.67968 18 10 18C14.3203 18 18 14.3203 18 10C18 5.67968 14.3203 2 10 2ZM10 12.25C12.0902 12.2501 13.2769 13.3803 13.7861 14.043C14.0382 14.3713 13.9765 14.8423 13.6484 15.0947C13.3201 15.3471 12.8491 15.2852 12.5967 14.957C12.2649 14.5254 11.4737 13.7501 10 13.75C8.52658 13.7501 7.73615 14.5253 7.4043 14.957C7.15196 15.2854 6.68095 15.3469 6.35254 15.0947C6.02412 14.8423 5.96246 14.3714 6.21484 14.043C6.72417 13.3803 7.91004 12.2501 10 12.25ZM6.5 8C7.19036 8 7.75 8.55964 7.75 9.25C7.75 9.94036 7.19036 10.5 6.5 10.5C5.80964 10.5 5.25 9.94036 5.25 9.25C5.25 8.55964 5.80964 8 6.5 8ZM13.5 8C14.1904 8 14.75 8.55964 14.75 9.25C14.75 9.94036 14.1904 10.5 13.5 10.5C12.8096 10.5 12.25 9.94036 12.25 9.25C12.25 8.55964 12.8096 8 13.5 8Z"
    fill="currentColor"
  />
</svg>
