<svg width="32" height="32" viewBox="0 0 32 32" fill="none" xmlns="http://www.w3.org/2000/svg" data-fui-icon="true">
  <path
    d="M16 0.5C24.6355 0.5 31.5 7.36448 31.5 16C31.5 24.6355 24.6355 31.5 16 31.5C7.36453 31.5 0.500004 24.6355 0.5 16C0.5 7.36449 7.36453 0.500017 16 0.5ZM16 20.25C13.7974 20.25 12.1991 21.0798 11.1562 21.9141C10.6374 22.3291 10.2561 22.7451 10.002 23.0605C9.87465 23.2186 9.77798 23.3528 9.71191 23.4502C9.67908 23.4986 9.65399 23.5383 9.63574 23.5674C9.62659 23.582 9.61882 23.5944 9.61328 23.6035C9.61058 23.608 9.60828 23.6121 9.60645 23.6152C9.60558 23.6167 9.60418 23.618 9.60352 23.6191L9.60254 23.6211L10.25 24L9.60254 23.6221C9.39386 23.9798 9.51442 24.4387 9.87207 24.6475C10.2297 24.8561 10.6876 24.7352 10.8965 24.3779C10.898 24.3754 10.9022 24.3717 10.9062 24.3652C10.9155 24.3504 10.9315 24.3253 10.9541 24.292C10.9994 24.2253 11.0709 24.1249 11.1699 24.002C11.3689 23.7549 11.6751 23.4208 12.0938 23.0859C12.9259 22.4202 14.2026 21.75 16 21.75C17.7974 21.75 19.0741 22.4202 19.9062 23.0859C20.3249 23.4208 20.6311 23.7549 20.8301 24.002C20.9291 24.1249 21.0006 24.2253 21.0459 24.292C21.0685 24.3253 21.0845 24.3504 21.0938 24.3652L21.1025 24.3779C21.3113 24.7356 21.7702 24.8561 22.1279 24.6475C22.4856 24.4387 22.6061 23.9798 22.3975 23.6221L21.75 24C22.3978 23.6221 22.3977 23.6214 22.3975 23.6211L22.3965 23.6191C22.3958 23.618 22.3944 23.6167 22.3936 23.6152C22.3917 23.6121 22.3894 23.608 22.3867 23.6035C22.3812 23.5944 22.3734 23.582 22.3643 23.5674C22.346 23.5383 22.3209 23.4986 22.2881 23.4502C22.222 23.3528 22.1254 23.2186 21.998 23.0605C21.7439 22.7451 21.3626 22.3291 20.8438 21.9141C19.8009 21.0798 18.2026 20.25 16 20.25ZM9.875 13.2754C9.04657 13.2754 8.375 13.947 8.375 14.7754C8.3752 15.6036 9.04669 16.2754 9.875 16.2754C10.7033 16.2754 11.3748 15.6036 11.375 14.7754C11.375 13.947 10.7034 13.2754 9.875 13.2754ZM22.125 13.2754C21.2966 13.2754 20.625 13.947 20.625 14.7754C20.6252 15.6036 21.2967 16.2754 22.125 16.2754C22.9533 16.2754 23.6248 15.6036 23.625 14.7754C23.625 13.947 22.9534 13.2754 22.125 13.2754Z"
    fill="currentColor"
  />
</svg>
