<svg width="20" height="20" viewBox="0 0 20 20" fill="none" xmlns="http://www.w3.org/2000/svg" data-fui-icon="true">
  <path
    d="M10 0.5C15.1515 0.5 19.5 4.84845 19.5 10C19.5 15.1515 15.1515 19.5 10 19.5C4.84845 19.5 0.5 15.1515 0.5 10C0.5 4.84845 4.84845 0.5 10 0.5ZM10 2.5C5.95302 2.5 2.5 5.95302 2.5 10C2.5 14.047 5.95302 17.5 10 17.5C14.047 17.5 17.5 14.047 17.5 10C17.5 5.95302 14.047 2.5 10 2.5ZM10 12C11.9048 12 13.1071 12.901 13.7412 13.6006C14.1117 14.0097 14.0808 14.6419 13.6719 15.0127C13.2627 15.3836 12.6297 15.3525 12.2588 14.9434C11.8991 14.5466 11.2012 14 10 14C8.79885 14 8.10091 14.5466 7.74121 14.9434C7.37029 15.3525 6.73731 15.3836 6.32812 15.0127C5.91918 14.6419 5.88829 14.0097 6.25879 13.6006C6.89294 12.901 8.09524 12 10 12ZM6.5 7.875C7.25939 7.875 7.875 8.49061 7.875 9.25C7.875 10.0094 7.25939 10.625 6.5 10.625C5.74061 10.625 5.125 10.0094 5.125 9.25C5.125 8.49061 5.74061 7.875 6.5 7.875ZM13.5 7.875C14.2594 7.875 14.875 8.49061 14.875 9.25C14.875 10.0094 14.2594 10.625 13.5 10.625C12.7406 10.625 12.125 10.0094 12.125 9.25C12.125 8.49061 12.7406 7.875 13.5 7.875Z"
    fill="currentColor"
  />
</svg>
