<svg width="24" height="24" viewBox="0 0 24 24" fill="none" xmlns="http://www.w3.org/2000/svg" data-fui-icon="true">
  <path
    d="M12 0.5C18.158 0.5 23.5 5.84203 23.5 12C23.5 18.158 18.158 23.5 12 23.5C5.84204 23.5 0.500003 18.158 0.5 12C0.5 5.84203 5.84204 0.500013 12 0.5ZM12 14.75C10.2254 14.75 8.97033 15.4234 8.16211 16.1162C7.76349 16.4579 7.47664 16.8001 7.28711 17.0625C7.19216 17.194 7.12054 17.3072 7.07031 17.3916C7.04523 17.4337 7.02455 17.469 7.00977 17.4961C7.00237 17.5097 6.99612 17.5218 6.99121 17.5312C6.98881 17.5358 6.98716 17.5404 6.98535 17.5439C6.98447 17.5457 6.98317 17.5474 6.98242 17.5488L6.98145 17.5508V17.5518C6.98459 17.5539 7.0332 17.5791 7.74805 17.9365L6.98047 17.5527C6.73348 18.0467 6.93376 18.6475 7.42773 18.8945C7.92132 19.1413 8.5212 18.9414 8.76855 18.4482V18.4492L8.76758 18.4502L8.7666 18.4531C8.76973 18.4474 8.77674 18.4341 8.78809 18.415C8.81105 18.3765 8.85108 18.3135 8.9082 18.2344C9.02336 18.0749 9.20544 17.8545 9.46289 17.6338C9.96717 17.2016 10.7746 16.75 12 16.75C13.2254 16.75 14.0328 17.2016 14.5371 17.6338C14.7946 17.8545 14.9766 18.0749 15.0918 18.2344C15.1489 18.3135 15.1889 18.3765 15.2119 18.415L15.2305 18.4482C15.4777 18.9417 16.0785 19.1414 16.5723 18.8945C17.0662 18.6475 17.2665 18.0467 17.0195 17.5527L16.252 17.9365C16.9668 17.5791 17.0154 17.5539 17.0186 17.5518V17.5508L17.0176 17.5488C17.0168 17.5474 17.0155 17.5457 17.0146 17.5439C17.0128 17.5404 17.0112 17.5358 17.0088 17.5312C17.0039 17.5218 16.9976 17.5097 16.9902 17.4961C16.9755 17.469 16.9548 17.4337 16.9297 17.3916C16.8795 17.3072 16.8078 17.194 16.7129 17.0625C16.5234 16.8001 16.2365 16.4579 15.8379 16.1162C15.0297 15.4234 13.7746 14.75 12 14.75ZM7.7002 10.0498C6.89946 10.0498 6.25013 10.6993 6.25 11.5C6.25011 12.3007 6.89945 12.9502 7.7002 12.9502C8.50085 12.9501 9.15028 12.3007 9.15039 11.5C9.15026 10.6994 8.50084 10.0499 7.7002 10.0498ZM16.2998 10.0498C15.4992 10.0499 14.8497 10.6994 14.8496 11.5C14.8497 12.3007 15.4991 12.9501 16.2998 12.9502C17.1006 12.9502 17.7499 12.3007 17.75 11.5C17.7499 10.6993 17.1005 10.0498 16.2998 10.0498Z"
    fill="currentColor"
  />
</svg>
