<svg width="32" height="32" viewBox="0 0 32 32" fill="none" xmlns="http://www.w3.org/2000/svg" data-fui-icon="true">
  <path
    d="M16 0.5C24.6342 0.5 31.5 7.36576 31.5 16C31.5 24.6342 24.6342 31.5 16 31.5C7.3658 31.5 0.500004 24.6342 0.5 16C0.5 7.36576 7.3658 0.500016 16 0.5ZM16 20C13.7298 20 12.0779 20.8564 11 21.7188C10.4644 22.1472 10.0709 22.5774 9.80762 22.9043C9.67572 23.068 9.57538 23.2071 9.50586 23.3096C9.4711 23.3608 9.44363 23.403 9.42383 23.4346C9.41396 23.4503 9.40564 23.4633 9.39941 23.4736C9.3963 23.4788 9.39381 23.4836 9.3916 23.4873C9.39053 23.4891 9.38953 23.4907 9.38867 23.4922L9.3877 23.4941L9.38672 23.4951C9.38647 23.4956 9.3863 23.496 10.1934 23.9668L9.38574 23.4961C9.10761 23.9731 9.2691 24.586 9.74609 24.8643C10.2231 25.1424 10.835 24.9799 11.1133 24.5029C11.1142 24.5015 11.1159 24.5001 11.1172 24.498C11.1249 24.4857 11.1394 24.4633 11.1602 24.4326C11.202 24.371 11.2697 24.2756 11.3643 24.1582C11.5541 23.9226 11.8481 23.6028 12.25 23.2812C13.0471 22.6436 14.2702 22 16 22C17.7298 22 18.9529 22.6436 19.75 23.2812C20.1519 23.6028 20.4459 23.9226 20.6357 24.1582C20.7303 24.2756 20.798 24.371 20.8398 24.4326C20.8606 24.4633 20.8751 24.4857 20.8828 24.498C20.884 24.4999 20.8849 24.5015 20.8857 24.5029L20.8867 24.5039V24.5059L20.8877 24.5068L20.8887 24.5088H20.8896C21.1695 24.9811 21.7789 25.1412 22.2539 24.8643C22.7309 24.586 22.8924 23.9731 22.6143 23.4961L21.8066 23.9668C22.6137 23.496 22.6135 23.4956 22.6133 23.4951L22.6123 23.4941L22.6113 23.4922C22.6105 23.4907 22.6095 23.4891 22.6084 23.4873C22.6062 23.4836 22.6037 23.4788 22.6006 23.4736C22.5944 23.4633 22.586 23.4503 22.5762 23.4346C22.5564 23.403 22.5289 23.3608 22.4941 23.3096C22.4246 23.2071 22.3243 23.068 22.1924 22.9043C21.9291 22.5774 21.5356 22.1472 21 21.7188C19.9221 20.8564 18.2702 20 16 20ZM11.1104 24.5088H11.1113L11.1123 24.5068L11.1133 24.5059V24.5049C11.1133 24.5048 11.1134 24.5046 11.1123 24.5039C11.1109 24.5062 11.1107 24.5082 11.1104 24.5088ZM9.875 13.1504C8.97754 13.1504 8.25 13.8779 8.25 14.7754C8.2502 15.6727 8.97766 16.4004 9.875 16.4004C10.7723 16.4004 11.4998 15.6727 11.5 14.7754C11.5 13.8779 10.7725 13.1504 9.875 13.1504ZM22.125 13.1504C21.2275 13.1504 20.5 13.8779 20.5 14.7754C20.5002 15.6727 21.2277 16.4004 22.125 16.4004C23.0223 16.4004 23.7498 15.6727 23.75 14.7754C23.75 13.8779 23.0225 13.1504 22.125 13.1504Z"
    fill="currentColor"
  />
</svg>
