<svg width="24" height="24" viewBox="0 0 24 24" fill="none" xmlns="http://www.w3.org/2000/svg" data-fui-icon="true">
  <g clip-path="url(#clip0_7079_919)">
    <path
      d="M11.999 0C12.4132 0 12.749 0.335786 12.749 0.75V3H18.999C19.2919 3 19.5583 3.17046 19.6807 3.43652L23.748 12.2891C23.9085 12.6384 24.0154 13.0558 23.9795 13.5C23.7348 16.5237 21.32 18.0254 18.999 18.0254C16.6781 18.0253 14.2632 16.5237 14.0186 13.5C13.9826 13.0558 14.0895 12.6384 14.25 12.2891L17.8291 4.5H12.749V20H16.582C17.9167 20 18.999 21.0823 18.999 22.417C18.9988 23.2912 18.2902 23.9998 17.416 24H6.58203C5.7079 23.9998 4.9992 23.2911 4.99902 22.417C4.99902 21.0823 6.08139 20.0001 7.41602 20H11.249V4.5H6.16895L9.74805 12.2891C9.90854 12.6384 10.0154 13.0558 9.97949 13.5C9.7348 16.5237 7.31996 18.0254 4.99902 18.0254C2.67812 18.0253 0.263237 16.5237 0.0185547 13.5C-0.0173659 13.0558 0.0895098 12.6384 0.25 12.2891L4.31738 3.43652C4.43972 3.17046 4.70618 3.00009 4.99902 3H11.249V0.75C11.249 0.33583 11.5849 7.11489e-05 11.999 0ZM7.41602 21.5C6.90982 21.5001 6.49902 21.9108 6.49902 22.417C6.4992 22.4627 6.53633 22.4998 6.58203 22.5H17.416C17.4618 22.4998 17.4988 22.4628 17.499 22.417C17.499 21.9107 17.0883 21.5 16.582 21.5H7.41602ZM1.56152 13.75C1.88094 15.5941 3.39843 16.5253 4.99902 16.5254C6.5997 16.5254 8.11812 15.5942 8.4375 13.75H1.56152ZM15.5615 13.75C15.8809 15.5941 17.3984 16.5253 18.999 16.5254C20.5997 16.5254 22.1181 15.5942 22.4375 13.75H15.5615ZM15.9189 12.25H22.0791L18.999 5.54688L15.9189 12.25ZM1.91895 12.25H8.0791L4.99902 5.54688L1.91895 12.25Z"
      fill="currentColor"
    />
  </g>
  <defs>
    <clipPath id="clip0_7079_919"><path fill="currentColor" d="M0 0H24V24H0z" /></clipPath>
  </defs>
</svg>
