<svg width="24" height="24" viewBox="0 0 24 24" fill="none" xmlns="http://www.w3.org/2000/svg" data-fui-icon="true">
  <g clip-path="url(#clip0_7079_958)">
    <path
      d="M11.999 0C12.4132 0 12.749 0.335786 12.749 0.75V3H18.999C19.2919 3 19.5583 3.17046 19.6807 3.43652L23.748 12.2891C23.9085 12.6384 24.0154 13.0558 23.9795 13.5C23.8984 14.5015 23.5775 15.3346 23.1025 16.0029C23.0943 16.0146 23.0865 16.0265 23.0781 16.0381C23.0494 16.0778 23.0201 16.1168 22.9902 16.1553C22.9743 16.1759 22.9586 16.1966 22.9424 16.2168C22.9141 16.252 22.8847 16.2861 22.8555 16.3203C22.8351 16.3442 22.8148 16.3682 22.7939 16.3916C22.7687 16.4199 22.7436 16.448 22.7178 16.4756C22.6943 16.5007 22.6704 16.5253 22.6465 16.5498C22.6195 16.5773 22.592 16.6041 22.5645 16.6309C22.5362 16.6583 22.5074 16.6852 22.4785 16.7119C22.457 16.7318 22.4359 16.7521 22.4141 16.7715C22.317 16.8576 22.2163 16.9385 22.1133 17.0156C22.1028 17.0234 22.0925 17.0313 22.082 17.0391C22.0389 17.0708 21.9953 17.1016 21.9512 17.1318C21.9336 17.1439 21.9162 17.1562 21.8984 17.168C21.5988 17.3674 21.2789 17.5316 20.9463 17.6611C20.9284 17.6681 20.9105 17.6749 20.8926 17.6816C20.7748 17.726 20.6556 17.766 20.5352 17.8018C20.5157 17.8075 20.4961 17.8128 20.4766 17.8184C20.4311 17.8313 20.3856 17.8438 20.3398 17.8555C20.3132 17.8623 20.2865 17.8686 20.2598 17.875C20.211 17.8867 20.1623 17.8979 20.1133 17.9082C20.0957 17.9119 20.0781 17.9154 20.0605 17.9189C20.0121 17.9286 19.9637 17.938 19.915 17.9463C19.8929 17.9501 19.8708 17.9535 19.8486 17.957C19.7155 17.9781 19.582 17.9947 19.4482 18.0059C19.442 18.0064 19.4359 18.0073 19.4297 18.0078C19.405 18.0098 19.3802 18.0101 19.3555 18.0117C19.2366 18.0196 19.1177 18.0254 18.999 18.0254C18.88 18.0254 18.7608 18.0196 18.6416 18.0117C18.6169 18.0101 18.5921 18.0098 18.5674 18.0078C18.5612 18.0073 18.555 18.0064 18.5488 18.0059C18.415 17.9947 18.2815 17.9782 18.1484 17.957C18.1263 17.9535 18.1041 17.9501 18.082 17.9463C18.0334 17.938 17.985 17.9286 17.9365 17.9189C17.9189 17.9154 17.9014 17.9119 17.8838 17.9082C17.8348 17.8979 17.786 17.8867 17.7373 17.875C17.7106 17.8686 17.6839 17.8623 17.6572 17.8555C17.6115 17.8438 17.566 17.8313 17.5205 17.8184C17.501 17.8128 17.4814 17.8075 17.4619 17.8018C17.3352 17.7641 17.2097 17.722 17.0859 17.6748C17.0777 17.6717 17.0697 17.6682 17.0615 17.665C16.6559 17.508 16.2684 17.3 15.9141 17.0391C15.9038 17.0315 15.894 17.0233 15.8838 17.0156C15.776 16.9349 15.6715 16.8493 15.5703 16.7588C15.5609 16.7503 15.5514 16.7419 15.542 16.7334C15.5037 16.6986 15.4659 16.6632 15.4287 16.627C15.4027 16.6016 15.3771 16.5758 15.3516 16.5498C15.3276 16.5253 15.3037 16.5007 15.2803 16.4756C15.2543 16.4479 15.2285 16.42 15.2031 16.3916C15.1823 16.3682 15.162 16.3442 15.1416 16.3203C15.1125 16.2863 15.0838 16.2518 15.0557 16.2168C15.0393 16.1964 15.0229 16.176 15.0068 16.1553C14.977 16.1168 14.9477 16.0778 14.9189 16.0381C14.9106 16.0265 14.9028 16.0146 14.8945 16.0029C14.6178 15.6134 14.3948 15.1676 14.2402 14.665C14.2336 14.6436 14.2261 14.6223 14.2197 14.6006C14.1802 14.4656 14.1456 14.3266 14.1162 14.1836C14.1133 14.1693 14.1103 14.155 14.1074 14.1406C14.1057 14.1319 14.1051 14.123 14.1035 14.1143C14.0657 13.9169 14.0357 13.7124 14.0186 13.5C13.9826 13.0558 14.0895 12.6384 14.25 12.2891L17.8291 4.5H12.749V20H16.582C17.5832 20 18.4427 20.6089 18.8096 21.4766C18.8401 21.5487 18.8671 21.6227 18.8906 21.6982C18.9613 21.9253 18.999 22.1667 18.999 22.417C18.9989 23.0179 18.6641 23.5405 18.1709 23.8086C18.0363 23.8818 17.8899 23.9361 17.7354 23.9678C17.6322 23.9889 17.5254 24 17.416 24H6.58203C6.25428 23.9999 5.94985 23.9001 5.69727 23.7295C5.48681 23.5873 5.3123 23.396 5.19043 23.1719C5.16596 23.1269 5.14314 23.0807 5.12305 23.0332C5.06301 22.8913 5.02309 22.7386 5.00684 22.5791C5.00141 22.5258 4.99903 22.4717 4.99902 22.417C4.99902 21.8332 5.20612 21.2976 5.55078 20.8799C5.64943 20.7603 5.75935 20.6504 5.87891 20.5518C6.17723 20.3056 6.53559 20.1293 6.92871 20.0488C7.0861 20.0166 7.24911 20 7.41602 20H11.249V4.5H6.16895L9.74805 12.2891C9.90854 12.6384 10.0154 13.0558 9.97949 13.5C9.89845 14.5015 9.57747 15.3346 9.10254 16.0029C9.09428 16.0146 9.08648 16.0265 9.07812 16.0381C9.04936 16.0778 9.02009 16.1168 8.99023 16.1553C8.9743 16.1759 8.95862 16.1966 8.94238 16.2168C8.91407 16.252 8.88468 16.2861 8.85547 16.3203C8.83506 16.3442 8.81478 16.3682 8.79395 16.3916C8.76875 16.4199 8.74358 16.448 8.71777 16.4756C8.6943 16.5007 8.67045 16.5253 8.64648 16.5498C8.61952 16.5773 8.59202 16.6041 8.56445 16.6309C8.53615 16.6583 8.50743 16.6852 8.47852 16.7119C8.45697 16.7318 8.43594 16.7521 8.41406 16.7715C8.31705 16.8576 8.21635 16.9385 8.11328 17.0156C8.10285 17.0234 8.09252 17.0313 8.08203 17.0391C8.0389 17.0708 7.99525 17.1016 7.95117 17.1318C7.93358 17.1439 7.91618 17.1562 7.89844 17.168C7.59877 17.3674 7.27888 17.5316 6.94629 17.6611C6.92843 17.6681 6.91051 17.6749 6.89258 17.6816C6.77479 17.726 6.65559 17.766 6.53516 17.8018C6.51569 17.8075 6.49609 17.8128 6.47656 17.8184C6.43111 17.8313 6.38559 17.8438 6.33984 17.8555C6.31321 17.8623 6.28649 17.8686 6.25977 17.875C6.21103 17.8867 6.16227 17.8979 6.11328 17.9082C6.09572 17.9119 6.07814 17.9154 6.06055 17.9189C6.01211 17.9286 5.96367 17.938 5.91504 17.9463C5.89293 17.9501 5.87078 17.9535 5.84863 17.957C5.71554 17.9781 5.58203 17.9947 5.44824 18.0059C5.44205 18.0064 5.43589 18.0073 5.42969 18.0078C5.40498 18.0098 5.38018 18.0101 5.35547 18.0117C5.23661 18.0196 5.11769 18.0254 4.99902 18.0254C4.87999 18.0254 4.76083 18.0196 4.6416 18.0117C4.61689 18.0101 4.59209 18.0098 4.56738 18.0078C4.56119 18.0073 4.55503 18.0064 4.54883 18.0059C4.41505 17.9947 4.28152 17.9782 4.14844 17.957C4.12629 17.9535 4.10414 17.9501 4.08203 17.9463C4.0334 17.938 3.98496 17.9286 3.93652 17.9189C3.91893 17.9154 3.90135 17.9119 3.88379 17.9082C3.8348 17.8979 3.78603 17.8867 3.7373 17.875C3.71059 17.8686 3.68385 17.8623 3.65723 17.8555C3.61148 17.8438 3.56596 17.8313 3.52051 17.8184C3.50098 17.8128 3.48138 17.8075 3.46191 17.8018C3.33519 17.7641 3.20972 17.722 3.08594 17.6748C3.07775 17.6717 3.0697 17.6682 3.06152 17.665C2.65588 17.508 2.26845 17.3 1.91406 17.0391C1.90379 17.0315 1.89401 17.0233 1.88379 17.0156C1.776 16.9349 1.67146 16.8493 1.57031 16.7588C1.56086 16.7503 1.55138 16.7419 1.54199 16.7334C1.50373 16.6986 1.46592 16.6632 1.42871 16.627C1.40267 16.6016 1.37706 16.5758 1.35156 16.5498C1.3276 16.5253 1.30375 16.5007 1.28027 16.4756C1.25432 16.4479 1.22846 16.42 1.20312 16.3916C1.1823 16.3682 1.162 16.3442 1.1416 16.3203C1.11254 16.2863 1.08384 16.2518 1.05566 16.2168C1.0393 16.1964 1.02289 16.176 1.00684 16.1553C0.976996 16.1168 0.947696 16.0778 0.918945 16.0381C0.910591 16.0265 0.902792 16.0146 0.894531 16.0029C0.617805 15.6134 0.394825 15.1676 0.240234 14.665C0.233617 14.6436 0.226093 14.6223 0.219727 14.6006C0.180177 14.4656 0.145556 14.3266 0.116211 14.1836C0.113261 14.1693 0.110268 14.155 0.107422 14.1406C0.10569 14.1319 0.105103 14.123 0.103516 14.1143C0.0657013 13.9169 0.035741 13.7124 0.0185547 13.5C-0.0173659 13.0558 0.0895098 12.6384 0.25 12.2891L4.31738 3.43652C4.43972 3.17046 4.70618 3.00009 4.99902 3H11.249V0.75C11.249 0.33583 11.5849 7.11489e-05 11.999 0ZM15.9189 12.25H22.0791L18.999 5.54688L15.9189 12.25ZM1.91895 12.25H8.0791L4.99902 5.54688L1.91895 12.25Z"
      fill="currentColor"
    />
  </g>
  <defs>
    <clipPath id="clip0_7079_958"><path fill="currentColor" d="M0 0H24V24H0z" /></clipPath>
  </defs>
</svg>
