<svg width="24" height="24" viewBox="0 0 24 24" fill="none" xmlns="http://www.w3.org/2000/svg" data-fui-icon="true">
  <path
    fill-rule="evenodd"
    clip-rule="evenodd"
    d="M11.9992 0C12.4134 0 12.7492 0.335786 12.7492 0.75V3H18.9992C19.292 3 19.5584 3.17046 19.6808 3.43652L23.7482 12.2891C23.9087 12.6384 24.0155 13.0558 23.9796 13.5C23.8986 14.5015 23.5776 15.3346 23.1027 16.0029C23.0944 16.0146 23.0866 16.0265 23.0783 16.0381C23.0495 16.0778 23.0202 16.1168 22.9904 16.1553C22.9744 16.1759 22.9587 16.1966 22.9425 16.2168C22.9142 16.252 22.8848 16.2861 22.8556 16.3203C22.8352 16.3442 22.8149 16.3682 22.7941 16.3916C22.7689 16.4199 22.7437 16.448 22.7179 16.4756C22.6944 16.5007 22.6706 16.5253 22.6466 16.5498C22.6197 16.5773 22.5921 16.6041 22.5646 16.6309C22.5363 16.6583 22.5076 16.6852 22.4786 16.7119C22.4571 16.7318 22.4361 16.7521 22.4142 16.7715C22.3172 16.8576 22.2165 16.9385 22.1134 17.0156C22.103 17.0234 22.0927 17.0313 22.0822 17.0391C22.039 17.0708 21.9954 17.1016 21.9513 17.1318C21.9337 17.1439 21.9163 17.1562 21.8986 17.168C21.5989 17.3674 21.279 17.5316 20.9464 17.6611C20.9286 17.6681 20.9106 17.6749 20.8927 17.6816C20.7749 17.726 20.6557 17.766 20.5353 17.8018C20.5158 17.8075 20.4962 17.8128 20.4767 17.8184C20.4312 17.8313 20.3857 17.8438 20.34 17.8555C20.3133 17.8623 20.2866 17.8686 20.2599 17.875C20.2112 17.8867 20.1624 17.8979 20.1134 17.9082C20.0958 17.9119 20.0783 17.9154 20.0607 17.9189C20.0122 17.9286 19.9638 17.938 19.9152 17.9463C19.8931 17.9501 19.8709 17.9535 19.8488 17.957C19.7157 17.9781 19.5822 17.9947 19.4484 18.0059C19.4422 18.0064 19.436 18.0073 19.4298 18.0078C19.4051 18.0098 19.3803 18.0101 19.3556 18.0117C19.2367 18.0196 19.1178 18.0254 18.9992 18.0254C18.8801 18.0254 18.761 18.0196 18.6417 18.0117C18.617 18.0101 18.5922 18.0098 18.5675 18.0078C18.5613 18.0073 18.5552 18.0064 18.549 18.0059C18.4152 17.9947 18.2817 17.9782 18.1486 17.957C18.1264 17.9535 18.1043 17.9501 18.0822 17.9463C18.0335 17.938 17.9851 17.9286 17.9367 17.9189C17.9191 17.9154 17.9015 17.9119 17.8839 17.9082C17.8349 17.8979 17.7862 17.8867 17.7374 17.875C17.7107 17.8686 17.684 17.8623 17.6574 17.8555C17.6116 17.8438 17.5661 17.8313 17.5206 17.8184C17.5011 17.8128 17.4815 17.8075 17.462 17.8018C17.3353 17.7641 17.2098 17.722 17.0861 17.6748C17.0779 17.6717 17.0698 17.6682 17.0617 17.665C16.656 17.508 16.2686 17.3 15.9142 17.0391C15.9039 17.0315 15.8941 17.0233 15.8839 17.0156C15.7761 16.9349 15.6716 16.8493 15.5704 16.7588C15.561 16.7503 15.5515 16.7419 15.5421 16.7334C15.5039 16.6986 15.466 16.6632 15.4288 16.627C15.4028 16.6016 15.3772 16.5758 15.3517 16.5498C15.3277 16.5253 15.3039 16.5007 15.2804 16.4756C15.2545 16.4479 15.2286 16.42 15.2033 16.3916C15.1824 16.3682 15.1621 16.3442 15.1417 16.3203C15.1127 16.2863 15.084 16.2518 15.0558 16.2168C15.0394 16.1964 15.023 16.176 15.007 16.1553C14.9771 16.1168 14.9478 16.0778 14.9191 16.0381C14.9107 16.0265 14.9029 16.0146 14.8947 16.0029C14.6179 15.6134 14.395 15.1676 14.2404 14.665C14.2337 14.6436 14.2262 14.6223 14.2199 14.6006C14.1803 14.4656 14.1457 14.3266 14.1163 14.1836C14.1134 14.1693 14.1104 14.155 14.1076 14.1406C14.1058 14.1319 14.1052 14.123 14.1036 14.1143C14.0658 13.9169 14.0359 13.7124 14.0187 13.5C13.9828 13.0558 14.0896 12.6384 14.2501 12.2891L17.8292 4.5H12.7492V20H16.5822C17.5833 20 18.4428 20.6089 18.8097 21.4766C18.8402 21.5487 18.8673 21.6227 18.8908 21.6982C18.9614 21.9253 18.9992 22.1667 18.9992 22.417C18.999 23.0179 18.6643 23.5405 18.171 23.8086C18.0364 23.8818 17.8901 23.9361 17.7355 23.9678C17.6324 23.9889 17.5255 24 17.4161 24H6.58216C6.25441 23.9999 5.94998 23.9001 5.6974 23.7295C5.48694 23.5873 5.31243 23.396 5.19056 23.1719C5.16609 23.1269 5.14327 23.0807 5.12318 23.0332C5.06314 22.8913 5.02322 22.7386 5.00697 22.5791C5.00154 22.5258 4.99916 22.4717 4.99915 22.417C4.99915 21.8332 5.20625 21.2976 5.55091 20.8799C5.64956 20.7603 5.75948 20.6504 5.87904 20.5518C6.17736 20.3056 6.53572 20.1293 6.92884 20.0488C7.08623 20.0166 7.24924 20 7.41615 20H11.2492V4.5H6.16908L9.74818 12.2891C9.90867 12.6384 10.0155 13.0558 9.97962 13.5C9.89858 14.5015 9.5776 15.3346 9.10267 16.0029C9.09441 16.0146 9.08661 16.0265 9.07825 16.0381C9.04949 16.0778 9.02022 16.1168 8.99036 16.1553C8.97443 16.1759 8.95875 16.1966 8.94251 16.2168C8.9142 16.252 8.88481 16.2861 8.8556 16.3203C8.83519 16.3442 8.81491 16.3682 8.79408 16.3916C8.76888 16.4199 8.74371 16.448 8.7179 16.4756C8.69443 16.5007 8.67058 16.5253 8.64661 16.5498C8.61965 16.5773 8.59215 16.6041 8.56458 16.6309C8.53628 16.6583 8.50756 16.6852 8.47865 16.7119C8.4571 16.7318 8.43607 16.7521 8.41419 16.7715C8.31718 16.8576 8.21648 16.9385 8.11341 17.0156C8.10298 17.0234 8.09265 17.0313 8.08216 17.0391C8.03903 17.0708 7.99538 17.1016 7.9513 17.1318C7.93371 17.1439 7.91631 17.1562 7.89857 17.168C7.5989 17.3674 7.27901 17.5316 6.94642 17.6611C6.92856 17.6681 6.91064 17.6749 6.89271 17.6816C6.77492 17.726 6.65572 17.766 6.53529 17.8018C6.51582 17.8075 6.49622 17.8128 6.47669 17.8184C6.43124 17.8313 6.38572 17.8438 6.33997 17.8555C6.31334 17.8623 6.28662 17.8686 6.2599 17.875C6.21116 17.8867 6.1624 17.8979 6.11341 17.9082C6.09585 17.9119 6.07827 17.9154 6.06068 17.9189C6.01224 17.9286 5.9638 17.938 5.91517 17.9463C5.89306 17.9501 5.87091 17.9535 5.84876 17.957C5.71567 17.9781 5.58216 17.9947 5.44837 18.0059C5.44217 18.0064 5.43602 18.0073 5.42982 18.0078C5.40511 18.0098 5.38031 18.0101 5.3556 18.0117C5.23674 18.0196 5.11782 18.0254 4.99915 18.0254C4.88012 18.0254 4.76096 18.0196 4.64173 18.0117C4.61702 18.0101 4.59222 18.0098 4.56751 18.0078C4.56132 18.0073 4.55515 18.0064 4.54896 18.0059C4.41518 17.9947 4.28165 17.9782 4.14857 17.957C4.12642 17.9535 4.10427 17.9501 4.08216 17.9463C4.03353 17.938 3.98509 17.9286 3.93665 17.9189C3.91906 17.9154 3.90148 17.9119 3.88392 17.9082C3.83493 17.8979 3.78616 17.8867 3.73743 17.875C3.71072 17.8686 3.68398 17.8623 3.65736 17.8555C3.61161 17.8438 3.56609 17.8313 3.52064 17.8184C3.50111 17.8128 3.48151 17.8075 3.46204 17.8018C3.33532 17.7641 3.20985 17.722 3.08607 17.6748C3.07788 17.6717 3.06983 17.6682 3.06165 17.665C2.65601 17.508 2.26858 17.3 1.91419 17.0391C1.90392 17.0315 1.89414 17.0233 1.88392 17.0156C1.77613 16.9349 1.67159 16.8493 1.57044 16.7588C1.56099 16.7503 1.55151 16.7419 1.54212 16.7334C1.50386 16.6986 1.46605 16.6632 1.42884 16.627C1.4028 16.6016 1.37719 16.5758 1.35169 16.5498C1.32773 16.5253 1.30388 16.5007 1.2804 16.4756C1.25445 16.4479 1.22859 16.42 1.20325 16.3916C1.18243 16.3682 1.16213 16.3442 1.14173 16.3203C1.11267 16.2863 1.08397 16.2518 1.05579 16.2168C1.03943 16.1964 1.02302 16.176 1.00697 16.1553C0.977126 16.1168 0.947826 16.0778 0.919075 16.0381C0.910721 16.0265 0.902921 16.0146 0.894661 16.0029C0.617935 15.6134 0.394955 15.1676 0.240364 14.665C0.233747 14.6436 0.226223 14.6223 0.219856 14.6006C0.180306 14.4656 0.145686 14.3266 0.116341 14.1836C0.11339 14.1693 0.110398 14.155 0.107552 14.1406C0.10582 14.1319 0.105232 14.123 0.103645 14.1143C0.0658311 13.9169 0.0358708 13.7124 0.0186845 13.5C-0.0172362 13.0558 0.0896397 12.6384 0.25013 12.2891L4.31751 3.43652C4.43985 3.17046 4.70631 3.00009 4.99915 3H11.2492V0.75C11.2492 0.33583 11.585 7.1149e-05 11.9992 0ZM15.9191 12.25H22.0792L18.9992 5.54688L15.9191 12.25ZM1.91908 12.25H8.07923L4.99915 5.54688L1.91908 12.25Z"
    fill="currentColor"
  />
</svg>
