<svg width="24" height="24" viewBox="0 0 24 24" fill="none" xmlns="http://www.w3.org/2000/svg" data-fui-icon="true">
  <path
    fill-rule="evenodd"
    clip-rule="evenodd"
    d="M11.9992 0C12.4134 0 12.7492 0.335786 12.7492 0.75V3H18.9992C19.292 3 19.5584 3.17046 19.6808 3.43652L23.7482 12.2891C23.9087 12.6384 24.0155 13.0558 23.9796 13.5C23.7349 16.5237 21.3201 18.0254 18.9992 18.0254C16.6782 18.0253 14.2634 16.5237 14.0187 13.5C13.9828 13.0558 14.0896 12.6384 14.2501 12.2891L17.8292 4.5H12.7492V20H16.5822C17.9169 20 18.9992 21.0823 18.9992 22.417C18.999 23.2912 18.2903 23.9998 17.4161 24H6.58216C5.70803 23.9998 4.99933 23.2911 4.99915 22.417C4.99915 21.0823 6.08152 20.0001 7.41615 20H11.2492V4.5H6.16908L9.74818 12.2891C9.90867 12.6384 10.0155 13.0558 9.97962 13.5C9.73493 16.5237 7.32009 18.0254 4.99915 18.0254C2.67825 18.0253 0.263366 16.5237 0.0186845 13.5C-0.0172362 13.0558 0.0896397 12.6384 0.25013 12.2891L4.31751 3.43652C4.43985 3.17046 4.70631 3.00009 4.99915 3H11.2492V0.75C11.2492 0.33583 11.585 7.1149e-05 11.9992 0ZM7.41615 21.5C6.90995 21.5001 6.49915 21.9108 6.49915 22.417C6.49933 22.4627 6.53646 22.4998 6.58216 22.5H17.4161C17.4619 22.4998 17.499 22.4628 17.4992 22.417C17.4992 21.9107 17.0884 21.5 16.5822 21.5H7.41615ZM1.56165 13.75C1.88107 15.5941 3.39856 16.5253 4.99915 16.5254C6.59983 16.5254 8.11825 15.5942 8.43763 13.75H1.56165ZM15.5617 13.75C15.8811 15.5941 17.3986 16.5253 18.9992 16.5254C20.5998 16.5254 22.1183 15.5942 22.4376 13.75H15.5617ZM15.9191 12.25H22.0792L18.9992 5.54688L15.9191 12.25ZM1.91908 12.25H8.07923L4.99915 5.54688L1.91908 12.25Z"
    fill="currentColor"
  />
</svg>
