<svg width="20" height="20" viewBox="0 0 20 20" fill="none" xmlns="http://www.w3.org/2000/svg" data-fui-icon="true">
  <path
    d="M10 0C10.4142 2.38517e-05 10.75 0.335801 10.75 0.75V3H16C16.2955 3.00002 16.5637 3.17376 16.6846 3.44336L19.7598 10.3027C19.9098 10.6374 20.0254 11.0613 19.9678 11.5215C19.9528 11.6406 19.9315 11.7559 19.9072 11.8682C19.9041 11.8836 19.903 11.8995 19.8994 11.915C19.8406 12.1679 19.7584 12.4026 19.6572 12.6201C19.6477 12.6406 19.6368 12.6604 19.627 12.6807C19.6107 12.7138 19.5952 12.747 19.5781 12.7793C19.5674 12.7994 19.556 12.819 19.5449 12.8389C19.5258 12.8732 19.5064 12.9071 19.4863 12.9404C19.4774 12.9552 19.4681 12.9698 19.459 12.9844C19.4366 13.0202 19.4132 13.0551 19.3896 13.0898C19.3824 13.1005 19.3755 13.1115 19.3682 13.1221C19.3457 13.1544 19.3232 13.1864 19.2998 13.2178C19.287 13.2349 19.2738 13.2517 19.2607 13.2686C19.1386 13.4258 19.0036 13.5688 18.8594 13.7002C18.8053 13.7494 18.7501 13.7971 18.6934 13.8428C18.6628 13.8674 18.6319 13.8915 18.6006 13.915C18.541 13.9599 18.48 14.0028 18.418 14.0439C18.3979 14.0572 18.3777 14.0701 18.3574 14.083C18.3097 14.1134 18.2609 14.1417 18.2119 14.1699C18.1404 14.2112 18.068 14.2504 17.9941 14.2871C17.9682 14.3 17.9422 14.3128 17.916 14.3252C17.8456 14.3584 17.7742 14.3888 17.7021 14.418C17.6683 14.4317 17.6348 14.4461 17.6006 14.459C17.5316 14.4849 17.4617 14.5079 17.3916 14.5303C17.3571 14.5413 17.3229 14.5533 17.2881 14.5635C17.2124 14.5856 17.1361 14.605 17.0596 14.623C17.0296 14.6302 16.9998 14.638 16.9697 14.6445C16.8957 14.6604 16.8214 14.6733 16.7471 14.6855C16.7121 14.6913 16.6776 14.6991 16.6426 14.7041C16.5808 14.7128 16.5188 14.7175 16.457 14.7236C16.4087 14.7285 16.3607 14.735 16.3125 14.7383C16.2082 14.7454 16.1043 14.75 16.001 14.75L16 14.749V14.75C15.9834 14.75 15.9668 14.7482 15.9502 14.748C15.8636 14.7471 15.7767 14.7442 15.6895 14.7383C15.6325 14.7344 15.5756 14.7277 15.5186 14.7217C15.4665 14.7162 15.4143 14.7114 15.3623 14.7041C15.3153 14.6975 15.2686 14.6887 15.2217 14.6807C15.1608 14.6702 15.0997 14.6604 15.0391 14.6475C14.9955 14.6381 14.9526 14.6259 14.9092 14.6152C14.8442 14.5994 14.7792 14.5833 14.7148 14.5645C14.6792 14.554 14.6438 14.5426 14.6084 14.5312C14.5379 14.5087 14.4678 14.4851 14.3984 14.459C14.3603 14.4446 14.3229 14.4285 14.2852 14.4131C14.2215 14.387 14.1581 14.3603 14.0957 14.3311C14.0615 14.3151 14.0279 14.2982 13.9941 14.2812C13.9277 14.2479 13.8624 14.2128 13.7979 14.1758C13.7408 14.1431 13.6834 14.1108 13.6279 14.0752C13.6184 14.0691 13.609 14.0628 13.5996 14.0566C13.5206 14.0049 13.4442 13.9493 13.3691 13.8916C13.3592 13.8839 13.3487 13.8769 13.3389 13.8691C13.2631 13.8096 13.1902 13.7464 13.1191 13.6807C13.1093 13.6716 13.0986 13.6635 13.0889 13.6543C13.0823 13.6481 13.0758 13.642 13.0693 13.6357L12.9883 13.5547C12.9849 13.5512 12.9819 13.5474 12.9785 13.5439C12.8356 13.3961 12.7054 13.2338 12.5889 13.0576C12.5814 13.0463 12.5738 13.0349 12.5664 13.0234C12.2957 12.6032 12.1052 12.1042 12.0322 11.5215C11.9746 11.0613 12.0902 10.6374 12.2402 10.3027L14.8418 4.5H10.75V16H13.584C14.9185 16.0002 16.001 17.0825 16.001 18.417C16.0008 19.291 15.292 19.9996 14.418 20H5.58398C4.70979 19.9998 4.00115 19.2912 4.00098 18.417C4.00098 17.0823 5.08328 16 6.41797 16H9.25V4.5H5.1582L7.75977 10.3027C7.90979 10.6374 8.02542 11.0613 7.96777 11.5215C7.95285 11.6406 7.93154 11.7559 7.90723 11.8682C7.90414 11.8836 7.90303 11.8995 7.89941 11.915C7.84057 12.1679 7.75839 12.4026 7.65723 12.6201C7.64768 12.6406 7.63685 12.6604 7.62695 12.6807C7.61075 12.7138 7.59523 12.747 7.57812 12.7793C7.56744 12.7994 7.55595 12.819 7.54492 12.8389C7.52584 12.8732 7.50642 12.9071 7.48633 12.9404C7.4774 12.9552 7.46811 12.9698 7.45898 12.9844C7.43662 13.0202 7.41315 13.0551 7.38965 13.0898C7.38239 13.1005 7.37553 13.1115 7.36816 13.1221C7.34573 13.1544 7.3232 13.1864 7.2998 13.2178C7.28698 13.2349 7.27385 13.2517 7.26074 13.2686C7.13858 13.4258 7.00356 13.5688 6.85938 13.7002C6.80527 13.7494 6.75015 13.7971 6.69336 13.8428C6.66278 13.8674 6.63189 13.8915 6.60059 13.915C6.54095 13.9599 6.48004 14.0028 6.41797 14.0439C6.39794 14.0572 6.37769 14.0701 6.35742 14.083C6.30971 14.1134 6.26085 14.1417 6.21191 14.1699C6.14039 14.2112 6.06798 14.2504 5.99414 14.2871C5.96819 14.3 5.94223 14.3128 5.91602 14.3252C5.84561 14.3584 5.7742 14.3888 5.70215 14.418C5.66829 14.4317 5.63476 14.4461 5.60059 14.459C5.53157 14.4849 5.46172 14.5079 5.3916 14.5303C5.35705 14.5413 5.32286 14.5533 5.28809 14.5635C5.21237 14.5856 5.13612 14.605 5.05957 14.623C5.02958 14.6302 4.99982 14.638 4.96973 14.6445C4.89574 14.6604 4.82143 14.6733 4.74707 14.6855C4.71212 14.6913 4.67757 14.6991 4.64258 14.7041C4.58082 14.7128 4.51878 14.7175 4.45703 14.7236C4.40873 14.7285 4.36072 14.735 4.3125 14.7383C4.20821 14.7454 4.10428 14.75 4.00098 14.75L4 14.749V14.75C3.98342 14.75 3.9668 14.7482 3.9502 14.748C3.86362 14.7471 3.77667 14.7442 3.68945 14.7383C3.63248 14.7344 3.57564 14.7277 3.51855 14.7217C3.46652 14.7162 3.41434 14.7114 3.3623 14.7041C3.3153 14.6975 3.2686 14.6887 3.22168 14.6807C3.16078 14.6702 3.0997 14.6604 3.03906 14.6475C2.99548 14.6381 2.95256 14.6259 2.90918 14.6152C2.84418 14.5994 2.77923 14.5833 2.71484 14.5645C2.67917 14.554 2.64383 14.5426 2.6084 14.5312C2.53791 14.5087 2.46781 14.4851 2.39844 14.459C2.36031 14.4446 2.32289 14.4285 2.28516 14.4131C2.22145 14.387 2.15811 14.3603 2.0957 14.3311C2.06154 14.3151 2.02786 14.2982 1.99414 14.2812C1.92774 14.2479 1.86237 14.2128 1.79785 14.1758C1.74076 14.1431 1.68336 14.1108 1.62793 14.0752C1.61844 14.0691 1.60905 14.0628 1.59961 14.0566C1.52062 14.0049 1.4442 13.9493 1.36914 13.8916C1.35919 13.8839 1.34874 13.8769 1.33887 13.8691C1.2631 13.8096 1.19023 13.7464 1.11914 13.6807C1.10934 13.6716 1.09858 13.6635 1.08887 13.6543C1.08234 13.6481 1.07581 13.642 1.06934 13.6357L0.988281 13.5547C0.98491 13.5512 0.981873 13.5474 0.978516 13.5439C0.835553 13.3961 0.705415 13.2338 0.588867 13.0576C0.581368 13.0463 0.573786 13.0349 0.566406 13.0234C0.295704 12.6032 0.105234 12.1042 0.0322266 11.5215C-0.0254104 11.0613 0.0902205 10.6374 0.240234 10.3027L3.31543 3.44336L3.36816 3.34668C3.50444 3.13307 3.74167 3.00013 4 3H9.25V0.75C9.25 0.335881 9.58592 0.000153838 10 0ZM13.9082 10.25H18.0918L16 5.58301L13.9082 10.25ZM1.9082 10.25H6.0918L4 5.58301L1.9082 10.25Z"
    fill="currentColor"
  />
</svg>
