<svg width="32" height="32" viewBox="0 0 32 32" fill="none" xmlns="http://www.w3.org/2000/svg" data-fui-icon="true">
  <path
    d="M15.9873 1C16.4015 1 16.7373 1.33579 16.7373 1.75V4H24.5C24.7909 4 25.0552 4.16836 25.1787 4.43164L30.7275 16.2783C30.8945 16.6347 31.0015 17.0579 30.9688 17.5039C30.6952 21.2274 27.4831 22.9996 24.4883 23C21.4935 23.0003 18.2804 21.2288 18.0059 17.5059C17.9728 17.0581 18.0809 16.6338 18.249 16.2764L23.3184 5.5H16.7373V26H22.9043C24.6069 26.0002 25.9871 27.3804 25.9873 29.083C25.9873 30.1416 25.1289 31 24.0703 31H7.9043C6.84582 30.9999 5.9873 30.1415 5.9873 29.083C5.98748 27.3804 7.36776 26.0003 9.07031 26H15.2373V5.5H8.67871L13.7275 16.2783C13.8945 16.6347 14.0015 17.0579 13.9688 17.5039C13.6952 21.2274 10.4831 22.9996 7.48828 23C4.49348 23.0003 1.28044 21.2288 1.00586 17.5059C0.972844 17.0581 1.08088 16.6338 1.24902 16.2764L6.82129 4.43066C6.94496 4.16782 7.20952 4.00006 7.5 4H15.2373V1.75C15.2373 1.33584 15.5732 1.00008 15.9873 1ZM9.07031 27.5C8.19619 27.5003 7.48748 28.2089 7.4873 29.083C7.4873 29.3131 7.67425 29.4999 7.9043 29.5H24.0703C24.3004 29.5 24.4873 29.3131 24.4873 29.083C24.4871 28.2088 23.7785 27.5002 22.9043 27.5H9.07031ZM2.54297 17.75C2.90779 20.1979 5.09799 21.5002 7.48828 21.5C9.87786 21.4996 12.0667 20.1972 12.4316 17.75H2.54297ZM19.543 17.75C19.9078 20.1979 22.098 21.5002 24.4883 21.5C26.8779 21.4996 29.0667 20.1972 29.4316 17.75H19.543ZM19.9189 16.25H29.0576L24.498 6.51465L19.9189 16.25ZM2.91895 16.25H12.0576L7.49805 6.51465L2.91895 16.25Z"
    fill="currentColor"
  />
</svg>
