<svg width="24" height="24" viewBox="0 0 24 24" fill="none" xmlns="http://www.w3.org/2000/svg" data-fui-icon="true">
  <path
    d="M1.75 14.75C2.16421 14.75 2.5 15.0858 2.5 15.5V17.25C2.5 19.5972 4.40279 21.5 6.75 21.5H8.5C8.91421 21.5 9.25 21.8358 9.25 22.25C9.25 22.6642 8.91421 23 8.5 23H6.75C3.57436 23 1 20.4256 1 17.25V15.5C1 15.0858 1.33579 14.75 1.75 14.75ZM22.25 14.75C22.6642 14.75 23 15.0858 23 15.5V17.25C23 20.4256 20.4256 23 17.25 23H15.5C15.0858 23 14.75 22.6642 14.75 22.25C14.75 21.8358 15.0858 21.5 15.5 21.5H17.25C19.5972 21.5 21.5 19.5972 21.5 17.25V15.5C21.5 15.0858 21.8358 14.75 22.25 14.75ZM9.25 12.5C10.4926 12.5 11.5 13.5074 11.5 14.75V17.25C11.5 18.4926 10.4926 19.5 9.25 19.5H6.75C5.50736 19.5 4.5 18.4926 4.5 17.25V14.75C4.5 13.5074 5.50736 12.5 6.75 12.5H9.25ZM17.25 12.5C18.4926 12.5 19.5 13.5074 19.5 14.75V17.25C19.5 18.4926 18.4926 19.5 17.25 19.5H14.75C13.5074 19.5 12.5 18.4926 12.5 17.25V14.75C12.5 13.5074 13.5074 12.5 14.75 12.5H17.25ZM6.75 14C6.33579 14 6 14.3358 6 14.75V17.25C6 17.6642 6.33579 18 6.75 18H9.25C9.66421 18 10 17.6642 10 17.25V14.75C10 14.3358 9.66421 14 9.25 14H6.75ZM14.75 14C14.3358 14 14 14.3358 14 14.75V17.25C14 17.6642 14.3358 18 14.75 18H17.25C17.6642 18 18 17.6642 18 17.25V14.75C18 14.3358 17.6642 14 17.25 14H14.75ZM9.25 4.5C10.4926 4.5 11.5 5.50736 11.5 6.75V9.25C11.5 10.4926 10.4926 11.5 9.25 11.5H6.75C5.50736 11.5 4.5 10.4926 4.5 9.25V6.75C4.5 5.50736 5.50736 4.5 6.75 4.5H9.25ZM17.25 4.5C18.4926 4.5 19.5 5.50736 19.5 6.75V9.25C19.5 10.4926 18.4926 11.5 17.25 11.5H14.75C13.5074 11.5 12.5 10.4926 12.5 9.25V6.75C12.5 5.50736 13.5074 4.5 14.75 4.5H17.25ZM6.75 6C6.33579 6 6 6.33579 6 6.75V9.25C6 9.66421 6.33579 10 6.75 10H9.25C9.66421 10 10 9.66421 10 9.25V6.75C10 6.33579 9.66421 6 9.25 6H6.75ZM14.75 6C14.3358 6 14 6.33579 14 6.75V9.25C14 9.66421 14.3358 10 14.75 10H17.25C17.6642 10 18 9.66421 18 9.25V6.75C18 6.33579 17.6642 6 17.25 6H14.75ZM8.5 1C8.91421 1 9.25 1.33579 9.25 1.75C9.25 2.16421 8.91421 2.5 8.5 2.5H6.75C4.40279 2.5 2.5 4.40279 2.5 6.75V8.5C2.5 8.91421 2.16421 9.25 1.75 9.25C1.33579 9.25 1 8.91421 1 8.5V6.75C1 3.57436 3.57436 1 6.75 1H8.5ZM17.25 1C20.4256 1 23 3.57436 23 6.75V8.5C23 8.91421 22.6642 9.25 22.25 9.25C21.8358 9.25 21.5 8.91421 21.5 8.5V6.75C21.5 4.40279 19.5972 2.5 17.25 2.5H15.5C15.0858 2.5 14.75 2.16421 14.75 1.75C14.75 1.33579 15.0858 1 15.5 1H17.25Z"
    fill="currentColor"
  />
</svg>
