<svg width="16" height="16" viewBox="0 0 16 16" fill="none" xmlns="http://www.w3.org/2000/svg" data-fui-icon="true">
  <path
    d="M2 8.75C2.55228 8.75 3 9.19772 3 9.75V11C3 12.1046 3.89543 13 5 13H6.25C6.80228 13 7.25 13.4477 7.25 14C7.25 14.5523 6.80228 15 6.25 15H5C2.79086 15 1 13.2091 1 11V9.75C1 9.19772 1.44772 8.75 2 8.75ZM14 8.75C14.5523 8.75 15 9.19772 15 9.75V11C15 13.2091 13.2091 15 11 15H9.75C9.19772 15 8.75 14.5523 8.75 14C8.75 13.4477 9.19772 13 9.75 13H11C12.1046 13 13 12.1046 13 11V9.75C13 9.19772 13.4477 8.75 14 8.75ZM6.2998 8.25C7.10062 8.25 7.75 8.89938 7.75 9.7002V10.5498C7.75 11.3506 7.10062 12 6.2998 12H5.4502C4.64938 12 4 11.3506 4 10.5498V9.7002C4 8.89938 4.64938 8.25 5.4502 8.25H6.2998ZM10.5498 8.25C11.3506 8.25 12 8.89938 12 9.7002V10.5498C12 11.3506 11.3506 12 10.5498 12H9.7002C8.89938 12 8.25 11.3506 8.25 10.5498V9.7002C8.25 8.89938 8.89938 8.25 9.7002 8.25H10.5498ZM6.2998 4C7.10062 4 7.75 4.64938 7.75 5.4502V6.2998C7.75 7.10062 7.10062 7.75 6.2998 7.75H5.4502C4.64938 7.75 4 7.10062 4 6.2998V5.4502C4 4.64938 4.64938 4 5.4502 4H6.2998ZM10.5498 4C11.3506 4 12 4.64938 12 5.4502V6.2998C12 7.10062 11.3506 7.75 10.5498 7.75H9.7002C8.89938 7.75 8.25 7.10062 8.25 6.2998V5.4502C8.25 4.64938 8.89938 4 9.7002 4H10.5498ZM6.25 1C6.80228 1 7.25 1.44772 7.25 2C7.25 2.55228 6.80228 3 6.25 3H5C3.89543 3 3 3.89543 3 5V6.25C3 6.80228 2.55228 7.25 2 7.25C1.44772 7.25 1 6.80228 1 6.25V5C1 2.79086 2.79086 1 5 1H6.25ZM11 1C13.2091 1 15 2.79086 15 5V6.25C15 6.80228 14.5523 7.25 14 7.25C13.4477 7.25 13 6.80228 13 6.25V5C13 3.89543 12.1046 3 11 3H9.75C9.19772 3 8.75 2.55228 8.75 2C8.75 1.44772 9.19772 1 9.75 1H11Z"
    fill="currentColor"
  />
</svg>
