<svg width="20" height="20" viewBox="0 0 20 20" fill="none" xmlns="http://www.w3.org/2000/svg" data-fui-icon="true">
  <path
    d="M2 11.5C2.55228 11.5 3 11.9477 3 12.5V14C3 15.6569 4.34315 17 6 17H7.5C8.05228 17 8.5 17.4477 8.5 18C8.5 18.5523 8.05228 19 7.5 19H6C3.23858 19 1 16.7614 1 14V12.5C1 11.9477 1.44772 11.5 2 11.5ZM18 11.5C18.5523 11.5 19 11.9477 19 12.5V14C19 16.7614 16.7614 19 14 19H12.5C11.9477 19 11.5 18.5523 11.5 18C11.5 17.4477 11.9477 17 12.5 17H14C15.6569 17 17 15.6569 17 14V12.5C17 11.9477 17.4477 11.5 18 11.5ZM7.5 10.5C8.60457 10.5 9.5 11.3954 9.5 12.5V13.75C9.5 14.8546 8.60457 15.75 7.5 15.75H6.25C5.14543 15.75 4.25 14.8546 4.25 13.75V12.5C4.25 11.3954 5.14543 10.5 6.25 10.5H7.5ZM13.75 10.5C14.8546 10.5 15.75 11.3954 15.75 12.5V13.75C15.75 14.8546 14.8546 15.75 13.75 15.75H12.5C11.3954 15.75 10.5 14.8546 10.5 13.75V12.5C10.5 11.3954 11.3954 10.5 12.5 10.5H13.75ZM7.5 4.25C8.60457 4.25 9.5 5.14543 9.5 6.25V7.5C9.5 8.60457 8.60457 9.5 7.5 9.5H6.25C5.14543 9.5 4.25 8.60457 4.25 7.5V6.25C4.25 5.14543 5.14543 4.25 6.25 4.25H7.5ZM13.75 4.25C14.8546 4.25 15.75 5.14543 15.75 6.25V7.5C15.75 8.60457 14.8546 9.5 13.75 9.5H12.5C11.3954 9.5 10.5 8.60457 10.5 7.5V6.25C10.5 5.14543 11.3954 4.25 12.5 4.25H13.75ZM7.5 1C8.05228 1 8.5 1.44772 8.5 2C8.5 2.55228 8.05228 3 7.5 3H6C4.34315 3 3 4.34315 3 6V7.5C3 8.05228 2.55228 8.5 2 8.5C1.44772 8.5 1 8.05228 1 7.5V6C1 3.23858 3.23858 1 6 1H7.5ZM14 1C16.7614 1 19 3.23858 19 6V7.5C19 8.05228 18.5523 8.5 18 8.5C17.4477 8.5 17 8.05228 17 7.5V6C17 4.34315 15.6569 3 14 3H12.5C11.9477 3 11.5 2.55228 11.5 2C11.5 1.44772 11.9477 1 12.5 1H14Z"
    fill="currentColor"
  />
</svg>
