<svg width="16" height="16" viewBox="0 0 16 16" fill="none" xmlns="http://www.w3.org/2000/svg" data-fui-icon="true">
  <path
    d="M1.75 9.25C2.16421 9.25 2.5 9.58579 2.5 10V11.25C2.5 12.4926 3.50736 13.5 4.75 13.5H6C6.41421 13.5 6.75 13.8358 6.75 14.25C6.75 14.6642 6.41421 15 6 15H4.75C2.67893 15 1 13.3211 1 11.25V10C1 9.58579 1.33579 9.25 1.75 9.25ZM14.25 9.25C14.6642 9.25 15 9.58579 15 10V11.25C15 13.3211 13.3211 15 11.25 15H10C9.58579 15 9.25 14.6642 9.25 14.25C9.25 13.8358 9.58579 13.5 10 13.5H11.25C12.4926 13.5 13.5 12.4926 13.5 11.25V10C13.5 9.58579 13.8358 9.25 14.25 9.25ZM6.2998 8.5C6.96255 8.5 7.5 9.03745 7.5 9.7002V11.2998C7.5 11.9625 6.96255 12.5 6.2998 12.5H4.7002C4.03745 12.5 3.5 11.9625 3.5 11.2998V9.7002C3.5 9.03745 4.03745 8.5 4.7002 8.5H6.2998ZM11.2998 8.5C11.9625 8.5 12.5 9.03745 12.5 9.7002V11.2998C12.5 11.9625 11.9625 12.5 11.2998 12.5H9.7002C9.03745 12.5 8.5 11.9625 8.5 11.2998V9.7002C8.5 9.03745 9.03745 8.5 9.7002 8.5H11.2998ZM6.2998 3.5C6.96255 3.5 7.5 4.03745 7.5 4.7002V6.2998C7.5 6.96255 6.96255 7.5 6.2998 7.5H4.7002C4.03745 7.5 3.5 6.96255 3.5 6.2998V4.7002C3.5 4.03745 4.03745 3.5 4.7002 3.5H6.2998ZM11.2998 3.5C11.9625 3.5 12.5 4.03745 12.5 4.7002V6.2998C12.5 6.96255 11.9625 7.5 11.2998 7.5H9.7002C9.03745 7.5 8.5 6.96255 8.5 6.2998V4.7002C8.5 4.03745 9.03745 3.5 9.7002 3.5H11.2998ZM6 1C6.41421 1 6.75 1.33579 6.75 1.75C6.75 2.16421 6.41421 2.5 6 2.5H4.75C3.50736 2.5 2.5 3.50736 2.5 4.75V6C2.5 6.41421 2.16421 6.75 1.75 6.75C1.33579 6.75 1 6.41421 1 6V4.75C1 2.67893 2.67893 1 4.75 1H6ZM11.25 1C13.3211 1 15 2.67893 15 4.75V6C15 6.41421 14.6642 6.75 14.25 6.75C13.8358 6.75 13.5 6.41421 13.5 6V4.75C13.5 3.50736 12.4926 2.5 11.25 2.5H10C9.58579 2.5 9.25 2.16421 9.25 1.75C9.25 1.33579 9.58579 1 10 1H11.25Z"
    fill="currentColor"
  />
</svg>
