<svg width="24" height="24" viewBox="0 0 24 24" fill="none" xmlns="http://www.w3.org/2000/svg" data-fui-icon="true">
  <path
    d="M12 1C13.237 1 14.3406 1.56344 15.0713 2.44141C15.3094 2.72756 15.5285 2.90603 15.7334 2.99121C15.9356 3.07514 16.2106 3.10325 16.5859 3.06836C17.726 2.96227 18.9079 3.34465 19.7842 4.2207L19.9424 4.38867C20.7052 5.24405 21.0344 6.34765 20.9355 7.41504C20.9007 7.79117 20.9284 8.06693 21.0127 8.26953C21.098 8.47449 21.2769 8.69333 21.5625 8.93164C22.4383 9.66256 23 10.7649 23 12C23 13.232 22.4412 14.3318 21.5693 15.0625C21.2818 15.3035 21.1013 15.5245 21.0146 15.7324C20.9294 15.937 20.9017 16.215 20.9365 16.5947C21.0343 17.6612 20.7046 18.7636 19.9424 19.6182L19.7842 19.7861C18.9084 20.6616 17.7277 21.044 16.5889 20.9385C16.2116 20.9035 15.9348 20.9311 15.7305 21.0156C15.525 21.1006 15.305 21.2788 15.0654 21.5654C14.3347 22.4394 13.2338 23 12 23C10.7623 22.9999 9.6577 22.436 8.92676 21.5566C8.69101 21.273 8.47375 21.0968 8.27148 21.0127C8.07177 20.9298 7.7999 20.9015 7.42871 20.9365C6.28824 21.0441 5.10512 20.6637 4.22754 19.7861C3.35352 18.912 2.97184 17.7338 3.0752 16.5967C3.1095 16.2189 3.08089 15.9427 2.99609 15.7393C2.90955 15.5317 2.72892 15.3106 2.44043 15.0703C1.56313 14.3396 1 13.2365 1 12C1.00003 10.7604 1.56594 9.65472 2.44727 8.92383C2.73392 8.68611 2.91277 8.46736 2.99805 8.2627C3.08198 8.06122 3.10957 7.78715 3.0752 7.41309C2.97054 6.27497 3.35232 5.09499 4.22754 4.21973C5.10602 3.34133 6.29133 2.9597 7.43359 3.06836C7.80225 3.10346 8.07262 3.07633 8.27051 2.99414C8.47089 2.91089 8.68635 2.7358 8.91992 2.45312C9.65065 1.56868 10.758 1.00012 12 1ZM12 3C11.3814 3.00009 10.8302 3.28093 10.4619 3.72656C10.1265 4.13255 9.66181 4.58137 9.03711 4.84082C8.4093 5.10151 7.76555 5.10921 7.24414 5.05957C6.66811 5.00478 6.07909 5.19636 5.6416 5.63379C5.20596 6.06946 5.01464 6.65544 5.06738 7.22949C5.11554 7.75321 5.10648 8.40042 4.84375 9.03125C4.58236 9.65871 4.13086 10.1252 3.72363 10.4629C3.27929 10.8314 3.00002 11.3826 3 12C3 12.6156 3.27833 13.1647 3.7207 13.5332C4.12823 13.8727 4.5797 14.3412 4.8418 14.9697C5.10588 15.6031 5.11413 16.2533 5.06641 16.7783C5.01439 17.3515 5.20633 17.9367 5.6416 18.3721C6.0782 18.8087 6.66584 18.9996 7.24121 18.9453C7.76406 18.896 8.40948 18.9044 9.03906 19.166C9.6634 19.4255 10.1284 19.8735 10.4648 20.2783C10.8331 20.7213 11.3833 20.9999 12 21C12.6143 21 13.1628 20.723 13.5312 20.2822C13.8702 19.8768 14.3379 19.4268 14.9658 19.167C15.599 18.9051 16.2483 18.8977 16.7734 18.9463C17.3474 18.9994 17.9339 18.8081 18.3701 18.3721L18.5215 18.2021C18.8495 17.7903 18.9904 17.2794 18.9443 16.7773C18.8961 16.251 18.9043 15.5992 19.1689 14.9639C19.43 14.3372 19.8788 13.8691 20.2842 13.5293C20.7238 13.1608 21 12.6134 21 12C21 11.3848 20.7219 10.8353 20.2803 10.4668C19.8753 10.1288 19.4272 9.66245 19.167 9.03711C18.9037 8.40433 18.8957 7.75532 18.9443 7.23047C18.9908 6.72818 18.8496 6.21682 18.5215 5.80469L18.3701 5.63477C17.9333 5.19809 17.3459 5.00612 16.7715 5.05957C16.2474 5.10833 15.599 5.10131 14.9668 4.83887C14.3392 4.57834 13.8725 4.1273 13.5342 3.7207C13.1657 3.27799 12.6159 3 12 3ZM14.7334 8.55176C15.1239 8.16143 15.757 8.16137 16.1475 8.55176C16.5379 8.94223 16.5378 9.5753 16.1475 9.96582L10.6465 15.4668C10.256 15.8573 9.62197 15.8573 9.23145 15.4668L7.16895 13.4043C6.77852 13.0138 6.77852 12.3807 7.16895 11.9902C7.55945 11.5999 8.19252 11.5998 8.58301 11.9902L9.93848 13.3447L14.7334 8.55176Z"
    fill="currentColor"
  />
</svg>
