<svg width="24" height="24" viewBox="0 0 24 24" fill="none" xmlns="http://www.w3.org/2000/svg" data-fui-icon="true">
  <path
    d="M12 0C13.3328 0 14.5245 0.607377 15.3115 1.55664C15.5754 1.87491 15.8255 2.08277 16.0684 2.18359C16.3084 2.28323 16.6253 2.31186 17.041 2.27246C18.2715 2.15576 19.547 2.56959 20.4912 3.51367C21.4344 4.45704 21.8473 5.73036 21.7314 6.95898C21.6922 7.3753 21.7213 7.69316 21.8213 7.93457C21.9218 8.17692 22.1284 8.42737 22.4463 8.69141C23.3937 9.47845 24 10.6686 24 12C24 13.328 23.3963 14.5149 22.4531 15.3018C22.1334 15.5685 21.925 15.8213 21.8232 16.0664C21.7221 16.3104 21.6922 16.6321 21.7314 17.0527C21.8458 18.2801 21.4332 19.5511 20.4912 20.4932C19.5481 21.4363 18.2749 21.85 17.0459 21.7344C16.6265 21.6949 16.3069 21.7236 16.0645 21.8242C15.8198 21.9258 15.5676 22.1343 15.3018 22.4531C14.515 23.3963 13.3282 24 12 24C10.6672 24 9.4755 23.3926 8.68848 22.4434C8.42647 22.1273 8.17808 21.9221 7.9375 21.8223C7.69868 21.7233 7.38366 21.6942 6.9707 21.7334C5.81761 21.843 4.62482 21.4871 3.70215 20.6641L3.52148 20.4932C2.58136 19.5527 2.16704 18.2837 2.2793 17.0576C2.31776 16.6375 2.28761 16.3179 2.18652 16.0752C2.08391 15.8289 1.87416 15.5758 1.55273 15.3086C0.605651 14.5214 4.54173e-05 13.3309 0 12C0 10.6657 0.609136 9.47291 1.56055 8.68555C1.87986 8.42129 2.08705 8.17008 2.18848 7.92676C2.28851 7.68664 2.31879 7.36985 2.28027 6.9541C2.16645 5.72669 2.57964 4.45468 3.52148 3.5127C4.46716 2.56718 5.74487 2.1549 6.97656 2.27344C7.38613 2.31288 7.69813 2.2835 7.93359 2.18555C8.17261 2.08604 8.41997 1.8814 8.67969 1.56641C9.46718 0.61135 10.6628 1.31128e-06 12 0ZM12 15.625C11.2406 15.625 10.625 16.2406 10.625 17V17.0195L10.6318 17.1602C10.702 17.8537 11.2879 18.3945 12 18.3945C12.7594 18.3945 13.375 17.7789 13.375 17.0195V17C13.375 16.2406 12.7594 15.625 12 15.625ZM12 5C11.3096 5 10.75 5.55964 10.75 6.25V12.5C10.75 13.1904 11.3096 13.75 12 13.75C12.6904 13.75 13.25 13.1904 13.25 12.5V6.25C13.25 5.55964 12.6904 5 12 5Z"
    fill="currentColor"
  />
</svg>
