<svg
  width="16"
  height="16"
  viewBox="0 0 16 16"
  fill="none"
  xmlns="http://www.w3.org/2000/svg"
  data-fui-icon="true"
>
  <g clip-path="url(#clip0_1057_1093)">
    <path
      d="M10.2886 13.5252L10.4352 12.7897C10.1375 12.7304 9.83345 12.8563 9.6649 13.1087L10.2886 13.5252ZM5.71138 13.5252L6.3351 13.1087C6.16655 12.8563 5.8625 12.7304 5.56485 12.7897L5.71138 13.5252ZM3.22702 12.773L2.69669 13.3033H2.69669L3.22702 12.773ZM2.47476 10.2886L3.21031 10.4352C3.26961 10.1375 3.14366 9.83345 2.89126 9.66491L2.47476 10.2886ZM2.47477 5.71136L2.89127 6.33508C3.14367 6.16654 3.26962 5.86249 3.21032 5.56484L2.47477 5.71136ZM3.22703 3.22703L3.75736 3.75736V3.75736L3.22703 3.22703ZM5.71138 2.47478L5.56485 3.21032C5.8625 3.26962 6.16655 3.14368 6.3351 2.89128L5.71138 2.47478ZM10.2886 2.47477L9.6649 2.89127C9.83345 3.14367 10.1375 3.26962 10.4352 3.21032L10.2886 2.47477ZM12.773 3.22703L12.2426 3.75736L12.773 3.22703ZM13.5252 5.71139L12.7897 5.56486C12.7304 5.86251 12.8563 6.16656 13.1087 6.33511L13.5252 5.71139ZM13.5252 10.2886L13.1087 9.66489C12.8563 9.83344 12.7304 10.1375 12.7897 10.4351L13.5252 10.2886ZM8 15.5C9.21562 15.5 10.286 14.8796 10.9123 13.9417L9.6649 13.1087C9.30503 13.6477 8.69351 14 8 14V15.5ZM5.08766 13.9417C5.71397 14.8796 6.78438 15.5 8 15.5V14C7.30649 14 6.69498 13.6477 6.3351 13.1087L5.08766 13.9417ZM2.69669 13.3033C3.55626 14.1629 4.75183 14.4811 5.85791 14.2608L5.56485 12.7897C4.92929 12.9163 4.24773 12.733 3.75735 12.2426L2.69669 13.3033ZM1.73922 10.1421C1.51888 11.2482 1.83712 12.4437 2.69669 13.3033L3.75735 12.2426C3.26697 11.7523 3.08371 11.0707 3.21031 10.4352L1.73922 10.1421ZM0.499969 8C0.499969 9.21563 1.12034 10.286 2.05827 10.9124L2.89126 9.66491C2.35232 9.30503 1.99997 8.69351 1.99997 8H0.499969ZM2.05828 5.08763C1.12034 5.71394 0.499969 6.78437 0.499969 8H1.99997C1.99997 7.30648 2.35233 6.69496 2.89127 6.33508L2.05828 5.08763ZM2.6967 2.6967C1.83714 3.55626 1.51889 4.75181 1.73923 5.85788L3.21032 5.56484C3.08372 4.92929 3.26698 4.24774 3.75736 3.75736L2.6967 2.6967ZM5.85791 1.73923C4.75183 1.51889 3.55627 1.83713 2.6967 2.6967L3.75736 3.75736C4.24774 3.26698 4.9293 3.08372 5.56485 3.21032L5.85791 1.73923ZM8 0.5C6.78438 0.5 5.71397 1.12036 5.08766 2.05828L6.3351 2.89128C6.69498 2.35235 7.30649 2 8 2V0.5ZM10.9123 2.05827C10.286 1.12036 9.21562 0.5 8 0.5V2C8.69351 2 9.30502 2.35235 9.6649 2.89127L10.9123 2.05827ZM13.3033 2.6967C12.4437 1.83713 11.2482 1.51889 10.1421 1.73923L10.4352 3.21032C11.0707 3.08371 11.7523 3.26697 12.2426 3.75736L13.3033 2.6967ZM14.2608 5.85792C14.4811 4.75184 14.1629 3.55627 13.3033 2.6967L12.2426 3.75736C12.733 4.24774 12.9163 4.9293 12.7897 5.56486L14.2608 5.85792ZM15.5 8C15.5 6.78439 14.8796 5.71398 13.9417 5.08767L13.1087 6.33511C13.6476 6.69499 14 7.3065 14 8H15.5ZM13.9417 10.9123C14.8796 10.286 15.5 9.2156 15.5 8H14C14 8.6935 13.6476 9.30501 13.1087 9.66489L13.9417 10.9123ZM13.3033 13.3033C14.1629 12.4437 14.4811 11.2482 14.2608 10.1421L12.7897 10.4351C12.9163 11.0707 12.733 11.7523 12.2426 12.2426L13.3033 13.3033ZM10.1421 14.2608C11.2482 14.4811 12.4437 14.1629 13.3033 13.3033L12.2426 12.2426C11.7523 12.733 11.0707 12.9163 10.4352 12.7897L10.1421 14.2608Z"
      fill="currentColor"
    />
    <path
      d="M8 4.5L8 7.5"
      stroke="currentColor"
      stroke-width="1.5"
      stroke-linecap="round"
      stroke-linejoin="round"
    />
    <circle cx="8" cy="10.5" r="1" fill="currentColor" />
  </g>
  <defs>
    <clipPath id="clip0_1057_1093">
      <path fill="currentColor" d="M0 0H16V16H0z" />
    </clipPath>
  </defs>
</svg>
