<svg width="32" height="32" viewBox="0 0 32 32" fill="none" xmlns="http://www.w3.org/2000/svg" data-fui-icon="true">
  <path
    d="M16 1C17.5551 1.00006 18.945 1.70797 19.8652 2.81543C20.2356 3.26109 20.629 3.60505 21.0605 3.78516C21.4894 3.96406 22.0032 3.99639 22.585 3.94141C24.0233 3.8055 25.5124 4.28874 26.6152 5.3916C27.7165 6.49307 28.1988 7.9791 28.0645 9.41504C28.0099 9.99798 28.0422 10.5132 28.2217 10.9434C28.4017 11.3747 28.7455 11.7678 29.1904 12.1387C30.2947 13.0591 31 14.4474 31 16C31 17.5484 30.2982 18.9324 29.1992 19.8525C28.7519 20.227 28.4061 20.6237 28.2246 21.0586C28.0436 21.4924 28.0111 22.0116 28.0654 22.5996C28.1896 23.9441 27.7729 25.3318 26.8145 26.4062L26.6152 26.6172C25.5133 27.7191 24.0258 28.2023 22.5889 28.0674C22.0043 28.0125 21.4882 28.045 21.0566 28.2246C20.6238 28.4048 20.2288 28.7484 19.8564 29.1943C18.9363 30.2961 17.5506 30.9999 16 31C14.4428 31 13.0505 30.2907 12.1299 29.1807C11.7633 28.7387 11.3734 28.3988 10.9463 28.2207C10.5207 28.0433 10.0113 28.0102 9.43457 28.0654C7.99572 28.2032 6.50538 27.722 5.40137 26.6182C4.30138 25.5182 3.81864 24.0342 3.95117 22.5996C4.00516 22.0154 3.97203 21.4994 3.79199 21.0684C3.61057 20.6341 3.264 20.2389 2.81543 19.8662C1.70767 18.9458 1 17.5554 1 16C1.00005 14.4406 1.71138 13.0467 2.82422 12.126C3.27037 11.7569 3.615 11.3642 3.79492 10.9336C3.97342 10.5062 4.0064 9.99434 3.95215 9.41504C3.81766 7.97871 4.29983 6.49219 5.40137 5.39062L5.61328 5.19043C6.69275 4.22807 8.08848 3.81239 9.43848 3.94238C10.0128 3.99766 10.5201 3.96585 10.9434 3.78906C11.3695 3.61106 11.7583 3.27013 12.123 2.82812C13.0435 1.71305 14.4387 1 16 1ZM16 2.5C14.9053 2.5 13.9272 2.99812 13.2793 3.7832C12.8379 4.318 12.264 4.86271 11.5215 5.17285C10.7737 5.48516 9.98395 5.50185 9.29492 5.43555C8.34456 5.34404 7.367 5.63656 6.61035 6.31152L6.46191 6.45117C5.68971 7.22339 5.35063 8.26424 5.44531 9.27539C5.51012 9.96762 5.4924 10.7607 5.17871 11.5117C4.86652 12.2588 4.31763 12.8368 3.78027 13.2812C2.99689 13.9293 2.50004 14.9065 2.5 16C2.5 17.0903 2.99466 18.064 3.77441 18.7119C4.31291 19.1593 4.86248 19.7403 5.17578 20.4902C5.49099 21.2449 5.50857 22.042 5.44434 22.7373C5.35102 23.7472 5.6907 24.7864 6.46191 25.5576C7.23554 26.3311 8.27829 26.6691 9.29102 26.5723C9.98199 26.5061 10.7745 26.5232 11.5244 26.8359C12.2671 27.1458 12.8416 27.69 13.2842 28.2236C13.9322 29.0049 14.9081 29.5 16 29.5L16.2021 29.4941C17.2067 29.4374 18.0979 28.9603 18.7051 28.2334C19.1524 27.6977 19.7326 27.1512 20.4805 26.8398C21.2361 26.5253 22.0338 26.5089 22.7295 26.5742C23.7408 26.6691 24.7821 26.3293 25.5547 25.5566L25.6943 25.4092C26.3666 24.6559 26.6587 23.6836 26.5713 22.7373C26.5068 22.0396 26.5238 21.2392 26.8398 20.4814C27.1522 19.7327 27.7002 19.151 28.2363 18.7021C29.01 18.0543 29.5 17.0851 29.5 16C29.5 14.9116 29.0069 13.939 28.2295 13.291C27.6947 12.8452 27.1492 12.2672 26.8379 11.5215C26.523 10.7672 26.5062 9.97034 26.5713 9.27539C26.6659 8.26457 26.3267 7.22431 25.5547 6.45215C24.7811 5.67855 23.7379 5.3389 22.7256 5.43457C22.0321 5.50008 21.2367 5.48322 20.4834 5.16895C19.7363 4.85722 19.1578 4.31001 18.7119 3.77344C18.1047 3.04273 17.2106 2.56309 16.2031 2.50586L16 2.5ZM20.4785 11.4658C20.7714 11.1729 21.2462 11.1729 21.5391 11.4658C21.832 11.7587 21.832 12.2335 21.5391 12.5264L13.5391 20.5264C13.2461 20.819 12.7713 20.8192 12.4785 20.5264L9.47852 17.5264C9.1857 17.2336 9.18587 16.7587 9.47852 16.4658C9.77141 16.1729 10.2462 16.1729 10.5391 16.4658L13.0088 18.9355L20.4785 11.4658Z"
    fill="currentColor"
  />
</svg>
