<svg width="16" height="17" viewBox="0 0 16 17" fill="none" xmlns="http://www.w3.org/2000/svg" data-fui-icon="true">
  <path
    d="M8 0.00146484C8.90358 0.00156655 9.70903 0.413168 10.2432 1.0542C10.415 1.26038 10.5722 1.38624 10.7158 1.4458C10.8573 1.50434 11.0526 1.52458 11.3232 1.49951C12.157 1.4224 13.0207 1.7029 13.6611 2.34326L13.7773 2.46631C14.3345 3.0915 14.5751 3.8985 14.5029 4.67822C14.478 4.94875 14.4987 5.14409 14.5576 5.28564C14.6175 5.42906 14.7435 5.58559 14.9492 5.75732C15.5894 6.29206 16 7.09858 16 8.00146C15.9996 8.90203 15.5903 9.70576 14.9531 10.2397C14.7461 10.4133 14.6198 10.5713 14.5596 10.7163C14.5001 10.8599 14.479 11.0573 14.5039 11.3306C14.5747 12.1098 14.3341 12.9162 13.7773 13.5405L13.6611 13.6626C13.021 14.3026 12.1577 14.5821 11.3252 14.5054C11.0529 14.4802 10.8564 14.5009 10.7139 14.5601C10.5693 14.6201 10.4119 14.7462 10.2393 14.9526C9.70539 15.5907 8.90165 16.0014 8 16.0015C7.09408 16.0015 6.28629 15.5873 5.75195 14.9438C5.58315 14.7405 5.42843 14.6161 5.28711 14.5571C5.14873 14.4995 4.95697 14.4791 4.69043 14.5044C3.8561 14.5836 2.98987 14.3056 2.34766 13.6636C1.7087 13.0246 1.42861 12.1624 1.50391 11.3306C1.52852 11.059 1.50724 10.8633 1.44824 10.7212C1.38804 10.5766 1.26104 10.4193 1.05371 10.2466C0.412238 9.7124 0.000385118 8.90534 0 8.00146C0 7.09514 0.413965 6.28541 1.05859 5.75049C1.26454 5.5796 1.39072 5.42427 1.4502 5.28174C1.5087 5.14112 1.52845 4.94628 1.50391 4.67725C1.42795 3.84514 1.70855 2.98276 2.34766 2.34326L2.4707 2.22705C3.09796 1.66769 3.90848 1.42639 4.69141 1.50049C4.95676 1.52558 5.14766 1.50501 5.28516 1.44775C5.4254 1.38918 5.57895 1.26513 5.74707 1.06201C6.28204 0.415663 7.0925 0.00146484 8 0.00146484ZM8 1.50146C7.5587 1.50146 7.16491 1.70173 6.90234 2.01904C6.65809 2.31411 6.31895 2.64208 5.8623 2.83252C5.40166 3.02447 4.92945 3.03055 4.5498 2.99463C4.19078 2.96066 3.825 3.06096 3.53027 3.29541L3.4082 3.40381C3.09798 3.71436 2.96085 4.13197 2.99805 4.54053C3.03282 4.92149 3.02719 5.39587 2.83496 5.85791C2.64347 6.31774 2.31275 6.65904 2.0166 6.90479C1.69998 7.16758 1.5 7.5612 1.5 8.00146L1.50879 8.16357C1.55125 8.53567 1.73787 8.86459 2.01367 9.09424C2.31038 9.34135 2.64115 9.68408 2.83301 10.145C3.02595 10.609 3.03268 11.0844 2.99805 11.4663C2.96116 11.8748 3.09779 12.2926 3.4082 12.603C3.71937 12.914 4.13846 13.0502 4.54883 13.0112C4.92969 12.9751 5.40323 12.9807 5.86523 13.1733C6.32137 13.3638 6.66042 13.691 6.90527 13.9858C7.16808 14.3022 7.56084 14.5015 8 14.5015L8.16113 14.4927C8.53188 14.4507 8.85912 14.2652 9.08887 13.9907C9.33618 13.6951 9.67866 13.3653 10.1387 13.1743C10.6036 12.9813 11.0802 12.9769 11.4629 13.0122C11.8719 13.0498 12.2899 12.9126 12.6006 12.6021L12.709 12.481C12.9422 12.1879 13.0421 11.8235 13.0098 11.4663C12.9749 11.0832 12.9809 10.6063 13.1738 10.1411C13.365 9.68062 13.6948 9.33792 13.9902 9.09033C14.3032 8.828 14.4997 8.43803 14.5 8.00146C14.5 7.56292 14.3018 7.17136 13.9873 6.90869C13.6923 6.6624 13.3639 6.32061 13.1729 5.86182C12.9797 5.39774 12.9734 4.92208 13.0088 4.53955C13.0418 4.1821 12.9421 3.81807 12.709 3.5249L12.6006 3.40381C12.2892 3.09243 11.8703 2.95573 11.4609 2.99365C11.0793 3.02898 10.6044 3.02384 10.1406 2.83154C9.68021 2.64054 9.33759 2.31027 9.09082 2.01416C8.86139 1.73887 8.53405 1.55247 8.16211 1.51025L8 1.50146ZM8.00195 10.0005C8.55424 10.0005 9.00195 10.4482 9.00195 11.0005V11.0142C9.00151 11.5661 8.55396 12.0142 8.00195 12.0142C7.44994 12.0142 7.0024 11.5661 7.00195 11.0142V11.0005C7.00195 10.4482 7.44967 10.0005 8.00195 10.0005ZM8.00195 3.75049C8.41617 3.75049 8.75195 4.08627 8.75195 4.50049V8.00049C8.75169 8.41448 8.416 8.75049 8.00195 8.75049C7.5879 8.75049 7.25222 8.41448 7.25195 8.00049V4.50049C7.25195 4.08627 7.58774 3.75049 8.00195 3.75049Z"
    fill="currentColor"
  />
</svg>
