<svg width="20" height="20" viewBox="0 0 20 20" fill="none" xmlns="http://www.w3.org/2000/svg" data-fui-icon="true">
  <g clip-path="url(#clip0_2948_30)">
    <g clip-path="url(#clip1_2948_30)">
      <path
        d="M10.0044 -0.00909424C10.9306 -0.00900204 11.7567 0.411809 12.3062 1.07191C12.5943 1.41809 12.9373 1.73213 13.3532 1.905C13.7701 2.07829 14.2314 2.09582 14.681 2.05391C15.5383 1.97399 16.4231 2.26114 17.0796 2.91766C17.735 3.57311 18.0212 4.4556 17.9422 5.31144C17.9006 5.7622 17.9185 6.22466 18.0923 6.64266C18.2651 7.05837 18.5787 7.40126 18.9243 7.68984C19.5823 8.23936 20.0015 9.06438 20.0015 9.98895C20.0013 10.9111 19.5842 11.7341 18.929 12.2835C18.5826 12.574 18.2679 12.9187 18.0941 13.336C17.9192 13.756 17.9013 14.2208 17.9427 14.6739C18.0209 15.5289 17.7343 16.4103 17.0796 17.0651C16.4236 17.7211 15.5401 18.0078 14.6835 17.9283C14.2323 17.8865 13.7693 17.904 13.3508 18.0778C12.9345 18.2507 12.5908 18.5646 12.3016 18.9104C11.7522 19.5674 10.928 19.9859 10.0044 19.986C9.07688 19.986 8.2493 19.5643 7.69969 18.9027C7.41394 18.5588 7.07355 18.247 6.66069 18.0752C6.24618 17.9028 5.78753 17.8851 5.34057 17.9274C4.48259 18.0085 3.59713 17.7223 2.93994 17.0651C2.2853 16.4102 1.99819 15.5286 2.07612 14.6734C2.1172 14.2226 2.09906 13.7602 1.92492 13.3423C1.75091 12.9248 1.43519 12.5807 1.08755 12.2914C0.427317 11.7418 0.00647674 10.9152 0.00634766 9.98895C0.00634766 9.06033 0.428953 8.23161 1.09185 7.6819C1.43832 7.39458 1.75275 7.05241 1.92619 6.63707C2.09972 6.2215 2.11789 5.76145 2.07648 5.31302C1.99742 4.45669 2.28433 3.57342 2.93994 2.91766C3.59768 2.25992 4.48432 1.9733 5.34309 2.05488C5.7884 2.09719 6.24539 2.07952 6.65834 1.90757C7.07076 1.73585 7.41048 1.42394 7.69515 1.07964C8.24474 0.414933 9.07434 -0.00909424 10.0044 -0.00909424Z"
        fill="currentColor"
      />
      <path
        d="M6.25562 10.6224L8.13062 12.4974L13.1306 7.49741"
        stroke="currentColor"
        stroke-width="1.5"
        stroke-linecap="round"
        stroke-linejoin="round"
      />
    </g>
  </g>
  <defs>
    <clipPath id="clip0_2948_30"><path fill="currentColor" d="M0 0H20V20H0z" /></clipPath>
    <clipPath id="clip1_2948_30"><rect width="20" height="20" rx="10" fill="currentColor" /></clipPath>
  </defs>
</svg>
