<svg width="16" height="16" viewBox="0 0 16 16" fill="none" xmlns="http://www.w3.org/2000/svg" data-fui-icon="true">
  <path
    fill-rule="evenodd"
    clip-rule="evenodd"
    d="M8 1.00049C8.81201 1.00049 9.5369 1.37033 10.0166 1.94678C10.1588 2.11764 10.2798 2.21242 10.3809 2.25439C10.4803 2.29555 10.6291 2.31348 10.8535 2.29248C11.6015 2.22239 12.3784 2.47285 12.9541 3.04834L13.0586 3.15869C13.5593 3.7205 13.7749 4.44605 13.71 5.146C13.6891 5.37083 13.7076 5.5199 13.749 5.61963C13.7914 5.72118 13.8857 5.84305 14.0566 5.98584C14.6312 6.46572 15 7.1903 15 8.00049L14.9961 8.15088C14.9535 8.89771 14.5971 9.56014 14.0615 10.0093C13.8894 10.1537 13.7931 10.2767 13.75 10.3804C13.708 10.4818 13.6891 10.6329 13.71 10.8608C13.7738 11.5602 13.558 12.2843 13.0576 12.8452L12.9541 12.9556C12.3785 13.5308 11.6018 13.7804 10.8545 13.7104C10.6284 13.6893 10.4792 13.708 10.3789 13.7495C10.2766 13.792 10.1546 13.887 10.0117 14.0581C9.53272 14.6312 8.81027 15.0005 8 15.0005C7.18733 15.0004 6.46246 14.6288 5.9834 14.0522C5.84284 13.8831 5.72225 13.7903 5.62207 13.7485C5.52439 13.7079 5.37785 13.6884 5.15527 13.7095C4.45379 13.7757 3.72686 13.5607 3.16406 13.0591L3.05371 12.9546C2.47983 12.3806 2.22963 11.6061 2.29785 10.8599C2.31849 10.6341 2.29936 10.4846 2.25781 10.3843C2.21528 10.2819 2.11956 10.1593 1.94727 10.0161C1.40709 9.56703 1.04702 8.90233 1.00391 8.15186L1 8.00049C1.00002 7.18661 1.37188 6.45906 1.95117 5.979C2.12233 5.83718 2.21602 5.71603 2.25781 5.61572C2.29878 5.51697 2.31742 5.3693 2.29688 5.146C2.22797 4.39882 2.4795 3.62384 3.05371 3.04932L3.16406 2.94482C3.727 2.44295 4.45419 2.22707 5.15625 2.29346C5.37728 2.31439 5.52327 2.2956 5.62012 2.25537C5.71911 2.21415 5.8386 2.12166 5.97852 1.95264C6.45827 1.37273 7.18559 1.0006 8 1.00049ZM10.7217 5.71729C10.4288 5.42455 9.95301 5.42449 9.66016 5.71729L6.69043 8.68604L5.90918 7.90479C5.61629 7.61205 5.14148 7.61199 4.84863 7.90479C4.5559 8.19764 4.55592 8.67247 4.84863 8.96533L6.16113 10.2778C6.45401 10.5704 6.92886 10.5705 7.22168 10.2778L10.7217 6.77783C11.0142 6.485 11.0142 6.0101 10.7217 5.71729Z"
    fill="currentColor"
  />
</svg>
