<svg width="16" height="16" viewBox="0 0 16 16" fill="none" xmlns="http://www.w3.org/2000/svg" data-fui-icon="true">
  <g clip-path="url(#clip0_1057_1093)">
    <path
      d="M8 0.5C9.04264 0.5 9.97776 0.957025 10.6182 1.67871C11.5814 1.62112 12.5664 1.95894 13.3037 2.69629C14.0408 3.43341 14.3776 4.4179 14.3203 5.38086C15.0426 6.02129 15.5 6.95685 15.5 8C15.5 9.04291 15.0423 9.97775 14.3203 10.6182C14.3779 11.5814 14.0411 12.5663 13.3037 13.3037C12.5663 14.0411 11.5814 14.3779 10.6182 14.3203C9.97775 15.0423 9.0429 15.5 8 15.5C6.95686 15.5 6.02128 15.0426 5.38086 14.3203C4.4179 14.3776 3.4334 14.0408 2.69629 13.3037C1.95895 12.5664 1.62113 11.5814 1.67871 10.6182C0.957015 9.97776 0.5 9.04265 0.5 8C0.5 6.95712 0.956735 6.02127 1.67871 5.38086C1.62142 4.41792 1.9592 3.43339 2.69629 2.69629C3.43338 1.9592 4.41792 1.62143 5.38086 1.67871C6.02127 0.956733 6.95712 0.500009 8 0.5ZM8 2C7.30651 2.00001 6.69483 2.35268 6.33496 2.8916L6.26562 2.97949C6.09045 3.17195 5.82495 3.26185 5.56445 3.20996C4.92904 3.08354 4.24807 3.26755 3.75781 3.75781C3.26756 4.24808 3.08353 4.92904 3.20996 5.56445C3.26923 5.862 3.14383 6.16638 2.8916 6.33496L2.69824 6.48145C2.26974 6.84906 2 7.39317 2 8C2 8.69351 2.35267 9.30516 2.8916 9.66504C3.14382 9.83362 3.26923 10.138 3.20996 10.4355C3.08353 11.071 3.26755 11.7519 3.75781 12.2422C4.24808 12.7324 4.92903 12.9165 5.56445 12.79L5.67676 12.7764C5.93647 12.7643 6.1875 12.8878 6.33496 13.1084C6.69483 13.6473 7.30651 14 8 14C8.69351 14 9.30516 13.6473 9.66504 13.1084L9.73438 13.0205C9.90955 12.828 10.175 12.7381 10.4355 12.79C11.071 12.9165 11.7519 12.7324 12.2422 12.2422C12.6714 11.813 12.8654 11.2379 12.8223 10.6748L12.79 10.4355L12.7764 10.3232C12.7643 10.0635 12.8878 9.8125 13.1084 9.66504C13.6473 9.30516 14 8.6935 14 8C14 7.3065 13.6473 6.69484 13.1084 6.33496C12.8562 6.16637 12.7308 5.86199 12.79 5.56445L12.8223 5.3252C12.8654 4.76214 12.6714 4.187 12.2422 3.75781C11.7519 3.26755 11.071 3.08352 10.4355 3.20996C10.175 3.26186 9.90955 3.17197 9.73438 2.97949L9.66504 2.8916L9.51855 2.69824C9.15094 2.26975 8.60683 2 8 2ZM8 9.5C8.55228 9.5 9 9.94771 9 10.5C9 11.0523 8.55228 11.5 8 11.5C7.44772 11.5 7 11.0523 7 10.5C7 9.94771 7.44772 9.5 8 9.5ZM8 3.75C8.41421 3.75 8.75 4.08579 8.75 4.5V7.5C8.75 7.91421 8.41421 8.25 8 8.25C7.58579 8.25 7.25 7.91421 7.25 7.5V4.5C7.25 4.08579 7.58579 3.75 8 3.75Z"
      fill="currentColor"
    />
  </g>
  <defs>
    <clipPath id="clip0_1057_1093"><path fill="currentColor" d="M0 0H16V16H0z" /></clipPath>
  </defs>
</svg>
