<svg width="24" height="24" viewBox="0 0 24 24" fill="none" xmlns="http://www.w3.org/2000/svg" data-fui-icon="true">
  <g clip-path="url(#clip0_1057_1064)">
    <path
      d="M12 0.5C13.6118 0.500004 15.0435 1.26424 15.957 2.44629C17.439 2.25629 18.992 2.72833 20.1318 3.86816C21.2715 5.00779 21.7424 6.56032 21.5527 8.04199C22.7354 8.95549 23.5 10.3877 23.5 12C23.5 13.6121 22.7351 15.0435 21.5527 15.957C21.7428 17.439 21.2717 18.992 20.1318 20.1318C18.992 21.2717 17.439 21.7428 15.957 21.5527C15.0435 22.7351 13.6121 23.5 12 23.5C10.3877 23.5 8.95549 22.7354 8.04199 21.5527C6.56031 21.7425 5.00779 21.2715 3.86816 20.1318C2.72833 18.992 2.25629 17.439 2.44629 15.957C1.26424 15.0435 0.5 13.6118 0.5 12C0.50001 10.388 1.26397 8.95551 2.44629 8.04199C2.25662 6.56036 2.72857 5.00776 3.86816 3.86816C5.00776 2.72858 6.56036 2.25661 8.04199 2.44629C8.95552 1.26398 10.388 0.5 12 0.5ZM12 2C10.7422 2 9.63846 2.66303 9.02051 3.66211C8.85077 3.93639 8.5249 4.07106 8.21094 3.99707L8.38281 3.26758L8.38184 3.2666L8.21094 3.99707C7.06752 3.72757 5.81808 4.03936 4.92871 4.92871C4.03935 5.81808 3.72757 7.06752 3.99707 8.21094L3.2666 8.38184L3.26758 8.38281L3.99707 8.21094C4.07107 8.52489 3.93637 8.85076 3.66211 9.02051C2.66303 9.63846 2.00001 10.7423 2 12C2 13.2578 2.66302 14.3615 3.66211 14.9795C3.93638 15.1492 4.07105 15.4751 3.99707 15.7891L3.26758 15.6172H3.2666L3.99707 15.7891C3.72756 16.9325 4.03935 18.1819 4.92871 19.0713C5.81808 19.9607 7.06751 20.2724 8.21094 20.0029L8.3291 19.9844C8.60406 19.9645 8.87204 20.098 9.02051 20.3379C9.63846 21.337 10.7422 22 12 22C13.2578 22 14.3615 21.337 14.9795 20.3379L15.0498 20.2422C15.2302 20.0333 15.5142 19.9381 15.7891 20.0029C16.9325 20.2724 18.1819 19.9607 19.0713 19.0713C19.9606 18.1819 20.2724 16.9325 20.0029 15.7891C19.9289 15.4751 20.0636 15.1492 20.3379 14.9795C21.337 14.3615 22 13.2578 22 12C22 10.7423 21.337 9.63846 20.3379 9.02051C20.0636 8.85077 19.9289 8.5249 20.0029 8.21094L20.7324 8.38281V8.38184L20.0029 8.21094C20.2724 7.06752 19.9607 5.81808 19.0713 4.92871C18.1819 4.03935 16.9325 3.72756 15.7891 3.99707L15.6172 3.2666V3.26758L15.7891 3.99707C15.4751 4.07107 15.1492 3.93639 14.9795 3.66211C14.3615 2.66303 13.2577 2 12 2ZM12 15C12.5523 15 13 15.4477 13 16C13 16.5523 12.5523 17 12 17C11.4477 17 11 16.5523 11 16C11 15.4477 11.4477 15 12 15ZM12 6C12.4142 6 12.75 6.33579 12.75 6.75V12.25C12.75 12.6642 12.4142 13 12 13C11.5858 13 11.25 12.6642 11.25 12.25V6.75C11.25 6.33579 11.5858 6 12 6Z"
      fill="currentColor"
    />
  </g>
  <defs>
    <clipPath id="clip0_1057_1064"><path fill="currentColor" d="M0 0H24V24H0z" /></clipPath>
  </defs>
</svg>
