<svg width="32" height="32" viewBox="0 0 32 32" fill="none" xmlns="http://www.w3.org/2000/svg" data-fui-icon="true">
  <path
    d="M15.999 0C17.7002 0 19.2206 0.774048 20.2275 1.98438C20.6091 2.44295 20.9984 2.77647 21.4092 2.94629C21.819 3.11563 22.3228 3.15206 22.9209 3.09668C24.4913 2.9512 26.1169 3.48028 27.3213 4.68457C28.524 5.88747 29.052 7.50943 28.9082 9.07715C28.8531 9.67728 28.8901 10.1829 29.0605 10.5938C29.2312 11.0048 29.5646 11.3941 30.0225 11.7764C31.2291 12.7837 32 14.302 32 16C32 17.6941 31.2328 19.209 30.0312 20.2158C29.5707 20.6017 29.2342 20.9936 29.0625 21.4082C28.8908 21.8228 28.8543 22.3328 28.9092 22.9375C29.0512 24.5037 28.5226 26.1236 27.3213 27.3252C26.1174 28.5289 24.493 29.0571 22.9238 28.9121C22.3228 28.8566 21.8161 28.8931 21.4043 29.0635C20.9922 29.234 20.6021 29.568 20.2188 30.0264C19.2118 31.2306 17.6952 32 15.999 32C14.2958 32 12.7729 31.2248 11.7656 30.0117C11.3888 29.5579 11.0043 29.2276 10.5986 29.0596C10.1933 28.8917 9.69386 28.8554 9.10156 28.9111C7.5295 29.0591 5.90159 28.5314 4.69531 27.3252C3.49429 26.124 2.96575 24.5046 3.10742 22.9385C3.16187 22.3367 3.12411 21.83 2.95312 21.418C2.78123 21.0038 2.44514 20.6119 1.9834 20.2275C0.773637 19.2206 0 17.7007 0 16C1.96695e-06 14.2948 0.777642 12.7709 1.99316 11.7637C2.45199 11.3835 2.7856 10.995 2.95605 10.585C3.12555 10.177 3.16311 9.67449 3.1084 9.07812C2.9645 7.51002 3.49251 5.88758 4.69531 4.68457C5.90243 3.47743 7.53214 2.94968 9.10547 3.09863C9.69457 3.15438 10.1915 3.11807 10.5947 2.95117C10.9989 2.78384 11.3822 2.45382 11.7568 2C12.7639 0.780427 14.2904 2.00247e-05 15.999 0ZM15.999 2C14.9126 2.00002 13.9425 2.49393 13.2988 3.27344C12.8227 3.85018 12.19 4.45501 11.3594 4.79883C10.5276 5.14309 9.65853 5.16003 8.91699 5.08984C7.91154 4.99465 6.87706 5.33094 6.10938 6.09863C5.34453 6.86364 5.00765 7.89341 5.09961 8.89551C5.168 9.64102 5.15016 10.5152 4.80273 11.3516C4.45587 12.1864 3.84773 12.8238 3.26855 13.3037C2.49198 13.9474 2 14.9157 2 16C2 17.0813 2.48949 18.0468 3.2627 18.6904C3.84298 19.1735 4.45295 19.8132 4.80078 20.6514C5.14942 21.4915 5.16632 22.3697 5.09863 23.1182C5.00808 24.1189 5.34556 25.1472 6.10938 25.9111C6.87631 26.678 7.90932 27.0144 8.91406 26.9199C9.65757 26.8499 10.53 26.8664 11.3643 27.2119C12.194 27.5556 12.8273 28.1584 13.3047 28.7334C13.9484 29.5087 14.9157 30 15.999 30C17.0774 30 18.041 29.5128 18.6846 28.7432C19.167 28.1663 19.8056 27.5602 20.6406 27.2148C21.4812 26.8673 22.3599 26.8517 23.1084 26.9209C24.1113 27.0135 25.1418 26.6764 25.9072 25.9111C26.671 25.1472 27.0077 24.1193 26.917 23.1182C26.8489 22.3675 26.8659 21.4863 27.2148 20.6436C27.5613 19.8068 28.1685 19.1666 28.7461 18.6826C29.5141 18.0391 30 17.0769 30 16C30 14.9201 29.5123 13.9552 28.7412 13.3115C28.1648 12.8303 27.5588 12.1938 27.2129 11.3604C26.8645 10.5207 26.8474 9.6426 26.916 8.89453C27.0079 7.89256 26.6718 6.86342 25.9072 6.09863C25.141 5.33247 24.1089 4.99493 23.1055 5.08789C22.359 5.15703 21.4828 5.14142 20.6445 4.79492C19.809 4.44947 19.1716 3.84188 18.6904 3.26367C18.0468 2.49009 17.0806 2 15.999 2ZM15.999 21.125C16.7584 21.125 17.374 21.7406 17.374 22.5V22.5254C17.3738 23.2846 16.7583 23.9004 15.999 23.9004C15.2398 23.9004 14.6242 23.2846 14.624 22.5254V22.5C14.624 21.7406 15.2396 21.125 15.999 21.125ZM15.999 7.39941C16.5513 7.39941 16.999 7.84713 16.999 8.39941V17.583C16.999 18.1353 16.5513 18.583 15.999 18.583C15.4467 18.583 14.999 18.1353 14.999 17.583V8.39941C14.999 7.84713 15.4467 7.39941 15.999 7.39941Z"
    fill="currentColor"
  />
</svg>
