<svg width="32" height="32" viewBox="0 0 32 32" fill="none" xmlns="http://www.w3.org/2000/svg" data-fui-icon="true">
  <path
    d="M15.499 0C17.1554 0 18.6363 0.754134 19.6162 1.93359C19.9811 2.37286 20.3522 2.69037 20.7412 2.85254C21.1266 3.01308 21.6049 3.04841 22.1787 2.99414C23.7088 2.84947 25.2938 3.36346 26.4678 4.53711L26.6797 4.76172C27.7011 5.90662 28.1438 7.38574 28.0107 8.81738C27.9572 9.39362 27.9937 9.87384 28.1553 10.2617C28.3177 10.6516 28.6346 11.024 29.0742 11.3906C30.2489 12.3703 31 13.8475 31 15.5C31 17.1492 30.2524 18.624 29.082 19.6035C28.6405 19.9731 28.3208 20.3474 28.1572 20.7402C27.9946 21.1311 27.9582 21.6147 28.0117 22.1953C28.1523 23.7215 27.6386 25.3008 26.4678 26.4717C25.2947 27.6446 23.7113 28.1583 22.1826 28.0146C21.6053 27.9604 21.1245 27.9957 20.7363 28.1572C20.3454 28.32 19.9727 28.6384 19.6055 29.0781C18.6262 30.2507 17.1502 31 15.499 31C13.8409 30.9998 12.3585 30.2441 11.3789 29.0625C11.0184 28.6276 10.6519 28.3136 10.2676 28.1533C9.88599 27.9943 9.41206 27.9592 8.84375 28.0137C7.31176 28.1606 5.72371 27.6476 4.54785 26.4717C3.37698 25.3007 2.86298 23.7206 3.00391 22.1943C3.05715 21.6173 3.02127 21.1367 2.85938 20.749C2.69562 20.3569 2.37508 19.9839 1.93262 19.6162C0.753695 18.6366 0 17.1562 0 15.5C4.4167e-05 13.8396 0.757792 12.3549 1.94238 11.375C2.38209 11.0112 2.69955 10.6417 2.86133 10.2539C3.02166 9.86938 3.05731 9.39229 3.00391 8.82031C2.86125 7.29201 3.37547 5.70953 4.54785 4.53711C5.72481 3.36023 7.31491 2.84694 8.84863 2.99512C9.41335 3.0497 9.88405 3.01444 10.2627 2.85645C10.6452 2.69684 11.01 2.3836 11.3682 1.94922C12.348 0.760706 13.8356 0.000153422 15.499 0ZM15.999 20.875C15.1016 20.875 14.374 21.6025 14.374 22.5V22.5254C14.3742 23.4227 15.1017 24.1504 15.999 24.1504C16.8964 24.1504 17.6238 23.4227 17.624 22.5254V22.5C17.624 21.6025 16.8965 20.875 15.999 20.875ZM15.999 7.02441C15.2396 7.02441 14.624 7.64002 14.624 8.39941V17.25C14.624 18.0094 15.2396 18.625 15.999 18.625C16.7584 18.625 17.374 18.0094 17.374 17.25V8.39941C17.374 7.64002 16.7584 7.02441 15.999 7.02441Z"
    fill="currentColor"
  />
</svg>
