<svg width="32" height="32" viewBox="0 0 32 32" fill="none" xmlns="http://www.w3.org/2000/svg" data-fui-icon="true">
  <path
    d="M16 0C17.6474 0 19.1201 0.748941 20.0957 1.92188C20.4965 2.40376 20.9247 2.7788 21.3984 2.97461C21.8719 3.17024 22.4341 3.2048 23.0615 3.14648C24.5829 3.0052 26.1568 3.51728 27.3232 4.68359C28.4878 5.84829 28.9989 7.41891 28.8594 8.9375C28.8015 9.56737 28.8364 10.1311 29.0332 10.6064C29.2296 11.0806 29.6047 11.5092 30.0859 11.9111C31.2541 12.8866 32 14.3565 32 16C32 17.6394 31.2578 19.1056 30.0947 20.0811C29.611 20.4868 29.233 20.9186 29.0352 21.3965C28.8369 21.8755 28.8028 22.4435 28.8604 23.0781C28.9979 24.595 28.4863 26.163 27.3232 27.3262C26.1578 28.4913 24.586 29.0026 23.0664 28.8623C22.4356 28.8041 21.87 28.8385 21.3936 29.0352C20.9184 29.2314 20.4889 29.607 20.0859 30.0889C19.1106 31.2553 17.6422 32 16 32C14.3512 32 12.8769 31.2499 11.9014 30.0752C11.5043 29.5971 11.0798 29.2245 10.6104 29.0303C10.1404 28.8359 9.58267 28.8018 8.95996 28.8604C7.43767 29.0035 5.86201 28.4929 4.69434 27.3252C3.53095 26.1616 3.01921 24.5928 3.15723 23.0752C3.21454 22.445 3.17953 21.8813 2.98242 21.4062C2.78448 20.9294 2.40563 20.499 1.9209 20.0957C0.748288 19.1201 0 17.6471 0 16C2.62835e-05 14.3489 0.751988 12.8723 1.92969 11.8965C2.41191 11.497 2.78789 11.0697 2.98438 10.5967C3.18019 10.1251 3.21569 9.56511 3.1582 8.93945C3.01854 7.42002 3.53033 5.84857 4.69531 4.68359L4.91895 4.47168C6.06102 3.4531 7.53772 3.01214 8.9668 3.14746C9.58562 3.20604 10.1397 3.17157 10.6064 2.97852C11.0739 2.78509 11.4972 2.41409 11.8916 1.93652C12.8674 0.755111 14.3458 9.59597e-06 16 0ZM21.5391 11.4658C21.2462 11.1729 20.7714 11.1729 20.4785 11.4658L13.0088 18.9355L10.5391 16.4658C10.2462 16.1729 9.77141 16.1729 9.47852 16.4658C9.18587 16.7587 9.1857 17.2336 9.47852 17.5264L12.4785 20.5264C12.7713 20.8192 13.2461 20.819 13.5391 20.5264L21.5391 12.5264C21.832 12.2335 21.832 11.7587 21.5391 11.4658Z"
    fill="currentColor"
  />
</svg>
