<svg width="32" height="32" viewBox="0 0 32 32" fill="none" xmlns="http://www.w3.org/2000/svg" data-fui-icon="true">
  <g clip-path="url(#clip0_2948_3)">
    <g clip-path="url(#clip1_2948_3)">
      <path
        d="M16 0C17.4844 0 18.811 0.673867 19.6914 1.73224C20.1513 2.28511 20.6986 2.78684 21.3631 3.06172C22.0285 3.33694 22.7642 3.36495 23.4811 3.29842C24.8543 3.171 26.2719 3.63323 27.3232 4.68457C28.373 5.73454 28.8338 7.14911 28.7074 8.52015C28.6412 9.23878 28.6697 9.97611 28.946 10.6428C29.221 11.3062 29.7216 11.853 30.273 12.3131C31.3283 13.1936 32 14.5182 32 16C32 17.4782 31.3314 18.7999 30.2805 19.6805C29.7273 20.144 29.2247 20.6938 28.9485 21.3605C28.6708 22.0308 28.6424 22.7721 28.7082 23.4946C28.8329 24.8641 28.3716 26.2765 27.3232 27.3252C26.2732 28.3753 24.8579 28.8371 23.4864 28.711C22.766 28.6448 22.0268 28.6728 21.3582 28.949C20.6923 29.224 20.1433 29.7257 19.6811 30.2783C18.801 31.3305 17.4793 32 16 32C14.5141 32 13.1864 31.3248 12.306 30.2646C11.8499 29.7154 11.3067 29.2175 10.647 28.9446C9.98527 28.6707 9.25355 28.6426 8.5405 28.7097C7.16639 28.839 5.74753 28.3784 4.69531 27.3262C3.64665 26.2774 3.18465 24.8642 3.30925 23.4943C3.37466 22.7752 3.3458 22.0375 3.06957 21.3704C2.79331 20.7032 2.28899 20.1541 1.7337 19.6924C0.674564 18.8119 0 17.485 0 16C4.13653e-05 14.5118 0.677265 13.1819 1.74028 12.3014C2.29376 11.843 2.79609 11.2969 3.07151 10.6331C3.34682 9.9695 3.37578 9.23556 3.30997 8.52017C3.18379 7.14874 3.64542 5.73353 4.69531 4.68359C5.74867 3.63024 7.16967 3.1692 8.54527 3.29973C9.25521 3.3671 9.98378 3.33896 10.6426 3.06608C11.3012 2.79332 11.843 2.29534 12.297 1.74569C13.1774 0.679533 14.5092 7.53423e-06 16 0Z"
        fill="currentColor"
      />
      <path
        d="M10.009 16.9958L13.009 19.9958L21.009 11.9958"
        stroke="currentColor"
        stroke-width="1.5"
        stroke-linecap="round"
        stroke-linejoin="round"
      />
    </g>
  </g>
  <defs>
    <clipPath id="clip0_2948_3"><path fill="currentColor" d="M0 0H32V32H0z" /></clipPath>
    <clipPath id="clip1_2948_3"><rect width="32" height="32" rx="16" fill="currentColor" /></clipPath>
  </defs>
</svg>
