<svg width="20" height="20" viewBox="0 0 20 20" fill="none" xmlns="http://www.w3.org/2000/svg" data-fui-icon="true">
  <path
    d="M9.99902 0C11.1429 0 12.1639 0.520613 12.8398 1.33203C13.0494 1.5836 13.2344 1.73137 13.3984 1.7998C13.5585 1.86647 13.7872 1.8931 14.1182 1.8623C15.1723 1.76408 16.2656 2.11717 17.0762 2.92773C17.8873 3.73895 18.2403 4.83317 18.1416 5.8877C18.1108 6.21678 18.1367 6.44465 18.2031 6.60449C18.2706 6.76674 18.4168 6.95084 18.667 7.15918C19.4787 7.83514 20 8.85588 20 10C19.9999 11.1405 19.4818 12.1577 18.6748 12.833C18.4216 13.0449 18.2727 13.2311 18.2041 13.3965C18.1363 13.5601 18.1101 13.7927 18.1406 14.127C18.2307 15.1128 17.9263 16.1319 17.2217 16.9219L17.0752 17.0771C16.2647 17.8876 15.1721 18.2415 14.1182 18.1436C13.7862 18.1127 13.5565 18.1382 13.3955 18.2051C13.2309 18.2735 13.0452 18.4214 12.835 18.6729C12.1592 19.4811 11.1405 20 9.99902 20C8.85325 19.9999 7.83109 19.4771 7.15527 18.6631C6.94882 18.4144 6.76669 18.2697 6.60645 18.2031C6.44851 18.1376 6.22251 18.1119 5.89648 18.1426C4.90728 18.2356 3.88366 17.9309 3.09082 17.2236L2.93555 17.0771C2.12856 16.27 1.7741 15.1823 1.86816 14.1318C1.89801 13.7983 1.87142 13.5672 1.80371 13.4043C1.73483 13.2386 1.58575 13.0511 1.33105 12.8389C0.520368 12.163 7.67568e-05 11.1431 0 10C0 8.85318 0.523452 7.82963 1.33887 7.15332C1.5912 6.94407 1.73805 6.75934 1.80566 6.59668C1.87233 6.43625 1.89916 6.20802 1.86914 5.87891C1.77311 4.82708 2.12607 3.73665 2.93457 2.92773L3.08984 2.78027C3.88336 2.07262 4.909 1.76858 5.89941 1.8623C6.22331 1.89296 6.44719 1.86664 6.60352 1.80176C6.76262 1.73565 6.9443 1.5919 7.14941 1.34375C7.8254 0.525849 8.85025 0.000114262 9.99902 0ZM9.99902 12.75C9.30867 12.75 8.74902 13.3096 8.74902 14V14.0166C8.74902 14.707 9.30867 15.2666 9.99902 15.2666C10.6894 15.2666 11.249 14.707 11.249 14.0166V14C11.249 13.3096 10.6894 12.75 9.99902 12.75ZM9.99902 4.125C9.3777 4.125 8.87402 4.62868 8.87402 5.25V10.25C8.87402 10.8713 9.3777 11.375 9.99902 11.375C10.6203 11.375 11.124 10.8713 11.124 10.25V5.25C11.124 4.62868 10.6203 4.125 9.99902 4.125Z"
    fill="currentColor"
  />
</svg>
