<svg width="16" height="17" viewBox="0 0 16 17" fill="none" xmlns="http://www.w3.org/2000/svg" data-fui-icon="true">
  <path
    d="M8 0.00146484C8.90358 0.00156655 9.70903 0.413168 10.2432 1.0542C10.415 1.26038 10.5722 1.38624 10.7158 1.4458C10.8573 1.50434 11.0526 1.52458 11.3232 1.49951C12.157 1.4224 13.0207 1.7029 13.6611 2.34326L13.7773 2.46631C14.3345 3.0915 14.5751 3.8985 14.5029 4.67822C14.478 4.94875 14.4987 5.14409 14.5576 5.28564C14.6175 5.42906 14.7435 5.58559 14.9492 5.75732C15.5894 6.29206 16 7.09858 16 8.00146C15.9996 8.90203 15.5903 9.70576 14.9531 10.2397C14.7461 10.4133 14.6198 10.5713 14.5596 10.7163C14.5001 10.8599 14.479 11.0573 14.5039 11.3306C14.5747 12.1098 14.3341 12.9162 13.7773 13.5405L13.6611 13.6626C13.021 14.3026 12.1577 14.5821 11.3252 14.5054C11.0529 14.4802 10.8564 14.5009 10.7139 14.5601C10.5693 14.6201 10.4119 14.7462 10.2393 14.9526C9.70539 15.5907 8.90165 16.0014 8 16.0015C7.09408 16.0015 6.28629 15.5873 5.75195 14.9438C5.58315 14.7405 5.42843 14.6161 5.28711 14.5571C5.14873 14.4995 4.95697 14.4791 4.69043 14.5044C3.8561 14.5836 2.98987 14.3056 2.34766 13.6636C1.7087 13.0246 1.42861 12.1624 1.50391 11.3306C1.52852 11.059 1.50724 10.8633 1.44824 10.7212C1.38804 10.5766 1.26104 10.4193 1.05371 10.2466C0.412238 9.7124 0.000385118 8.90534 0 8.00146C0 7.09514 0.413965 6.28541 1.05859 5.75049C1.26454 5.5796 1.39072 5.42427 1.4502 5.28174C1.5087 5.14112 1.52845 4.94628 1.50391 4.67725C1.42795 3.84514 1.70855 2.98276 2.34766 2.34326L2.4707 2.22705C3.09796 1.66769 3.90848 1.42639 4.69141 1.50049C4.95676 1.52558 5.14766 1.50501 5.28516 1.44775C5.4254 1.38918 5.57895 1.26513 5.74707 1.06201C6.28204 0.415663 7.0925 0.00146484 8 0.00146484ZM8.00195 10.0005C7.44967 10.0005 7.00195 10.4482 7.00195 11.0005V11.0142C7.0024 11.5661 7.44994 12.0142 8.00195 12.0142C8.55396 12.0142 9.00151 11.5661 9.00195 11.0142V11.0005C9.00195 10.4482 8.55424 10.0005 8.00195 10.0005ZM8.00195 3.75049C7.58774 3.75049 7.25195 4.08627 7.25195 4.50049V8.00049C7.25222 8.41448 7.5879 8.75049 8.00195 8.75049C8.416 8.75049 8.75169 8.41448 8.75195 8.00049V4.50049C8.75195 4.08627 8.41617 3.75049 8.00195 3.75049Z"
    fill="currentColor"
  />
</svg>
