<svg width="16" height="16" viewBox="0 0 16 16" fill="none" xmlns="http://www.w3.org/2000/svg" data-fui-icon="true">
  <path
    d="M7.99951 0C8.95851 9.95893e-05 9.8144 0.438347 10.3802 1.1181C10.5318 1.30012 10.6482 1.38519 10.7288 1.41886C10.8056 1.45074 10.9425 1.47352 11.1829 1.45108C12.0653 1.36882 12.9818 1.66418 13.6613 2.34361L13.7843 2.47348C14.3762 3.13756 14.6303 3.99511 14.5528 4.82197C14.5304 5.06153 14.5531 5.19819 14.585 5.27507C14.6183 5.3547 14.7018 5.47083 14.8829 5.62173C15.5617 6.18745 15.9988 7.04244 15.999 8.00049C15.9989 8.95685 15.5634 9.81057 14.8868 10.3763C14.7042 10.5291 14.6196 10.6461 14.586 10.7269C14.5534 10.8059 14.5314 10.945 14.5538 11.1868C14.6304 12.0131 14.3757 12.8701 13.7843 13.5334L13.6613 13.6632C12.9819 14.3424 12.0656 14.6379 11.1839 14.5558C10.9419 14.5332 10.8037 14.5554 10.7249 14.588C10.6439 14.6216 10.5263 14.7061 10.3734 14.8887C9.80761 15.5648 8.95431 15.9999 7.99854 16C7.03836 16 6.1803 15.5622 5.61392 14.88C5.46499 14.7005 5.35145 14.6183 5.27409 14.586C5.19954 14.555 5.06621 14.5325 4.83076 14.5548C4.00286 14.6331 3.14335 14.3791 2.47836 13.7863L2.34849 13.6632C1.67175 12.9864 1.37615 12.0738 1.45499 11.1946C1.47673 10.9525 1.45354 10.8139 1.42081 10.7347C1.38663 10.6525 1.30077 10.5342 1.11614 10.3802C0.437148 9.81447 0.00014839 8.95876 0 8.00049C0.000205838 7.04043 0.439124 6.183 1.12103 5.61684C1.30357 5.46527 1.38786 5.34802 1.42179 5.26726C1.45368 5.19096 1.47674 5.05506 1.45499 4.81514C1.37493 3.93492 1.67132 3.0212 2.34849 2.34361L2.47836 2.22057C3.14315 1.6276 4.00269 1.37186 4.83174 1.45011C5.06597 1.47218 5.19885 1.45048 5.27312 1.41984C5.34932 1.38823 5.46306 1.30682 5.61099 1.12786C6.17697 0.442679 7.0362 0 7.99951 0ZM7.99951 2.00085C7.65994 2.00085 7.35661 2.15459 7.15288 2.40122C6.90297 2.70369 6.5405 3.05862 6.03967 3.2664C5.53654 3.47506 5.03052 3.47774 4.64327 3.4412C4.36526 3.41501 4.08322 3.49291 3.85621 3.6736L3.76247 3.75758C3.52388 3.9965 3.41835 4.31724 3.44706 4.63351C3.48237 5.0222 3.47902 5.53243 3.26738 6.03869C3.05751 6.54041 2.7011 6.90443 2.39829 7.15581C2.15335 7.35925 2.00002 7.66162 1.99988 8.00049C2.00002 8.33802 2.15207 8.63968 2.39634 8.84321C2.69959 9.09593 3.05751 9.46173 3.26738 9.96619C3.47821 10.4733 3.48201 10.9838 3.44706 11.3733C3.41876 11.6898 3.52412 12.0109 3.76247 12.2493L3.85621 12.3323C4.08242 12.5122 4.36398 12.59 4.64229 12.5637C5.03061 12.527 5.53753 12.53 6.04162 12.7395C6.54127 12.9472 6.90285 13.3014 7.15288 13.6027C7.35625 13.8475 7.65929 14.0001 7.99854 14.0001L8.12255 13.9933C8.40862 13.9611 8.66123 13.8183 8.8393 13.6056C9.09166 13.304 9.45685 12.9487 9.95935 12.7404C10.4677 12.5299 10.979 12.5283 11.3694 12.5647C11.6868 12.5942 12.0083 12.488 12.2473 12.2493L12.3303 12.1565C12.5101 11.9308 12.5873 11.6499 12.5617 11.3724C12.5255 10.982 12.5282 10.4704 12.7385 9.96228C12.9468 9.45941 13.303 9.0945 13.6046 8.84223C13.848 8.63867 13.999 8.33721 13.9991 8.00049C13.999 7.66304 13.8468 7.36127 13.6027 7.15777C13.3012 6.90653 12.9467 6.54323 12.7385 6.0426C12.5278 5.53568 12.5253 5.02528 12.5617 4.63546C12.5878 4.35749 12.5102 4.07635 12.3303 3.85035L12.2473 3.75758C12.0079 3.51822 11.6861 3.41254 11.3684 3.44217C10.9789 3.47853 10.4679 3.4767 9.96033 3.26543C9.45884 3.05663 9.09508 2.70076 8.84321 2.39829C8.66496 2.18414 8.41128 2.04024 8.1245 2.00769L7.99951 2.00085ZM9.392 5.73207C9.78248 5.3416 10.4155 5.34166 10.806 5.73207C11.1965 6.12257 11.1965 6.75555 10.806 7.14605L7.49759 10.4544C7.10708 10.8445 6.47399 10.8448 6.08361 10.4544L4.89228 9.26311C4.50208 8.87274 4.50225 8.23962 4.89228 7.84913C5.28273 7.45882 5.91578 7.45882 6.30626 7.84913L6.7906 8.33348L9.392 5.73207Z"
    fill="currentColor"
  />
</svg>
