<svg width="32" height="32" viewBox="0 0 32 32" fill="none" xmlns="http://www.w3.org/2000/svg" data-fui-icon="true">
  <path
    d="M16 0C17.6474 0 19.1201 0.748941 20.0957 1.92188C20.4965 2.40376 20.9247 2.7788 21.3984 2.97461C21.8719 3.17024 22.4341 3.2048 23.0615 3.14648C24.5829 3.0052 26.1568 3.51728 27.3232 4.68359C28.4878 5.84829 28.9989 7.41891 28.8594 8.9375C28.8015 9.56737 28.8364 10.1311 29.0332 10.6064C29.2296 11.0806 29.6047 11.5092 30.0859 11.9111C31.2541 12.8866 32 14.3565 32 16C32 17.6394 31.2578 19.1056 30.0947 20.0811C29.611 20.4868 29.233 20.9186 29.0352 21.3965C28.8369 21.8755 28.8028 22.4435 28.8604 23.0781C28.9979 24.595 28.4863 26.163 27.3232 27.3262C26.1578 28.4913 24.586 29.0026 23.0664 28.8623C22.4356 28.8041 21.87 28.8385 21.3936 29.0352C20.9184 29.2314 20.4889 29.607 20.0859 30.0889C19.1106 31.2553 17.6422 32 16 32C14.3512 32 12.8769 31.2499 11.9014 30.0752C11.5043 29.5971 11.0798 29.2245 10.6104 29.0303C10.1404 28.8359 9.58267 28.8018 8.95996 28.8604C7.43767 29.0035 5.86201 28.4929 4.69434 27.3252C3.53095 26.1616 3.01921 24.5928 3.15723 23.0752C3.21454 22.445 3.17953 21.8813 2.98242 21.4062C2.78448 20.9294 2.40563 20.499 1.9209 20.0957C0.748288 19.1201 0 17.6471 0 16C2.62835e-05 14.3489 0.751988 12.8723 1.92969 11.8965C2.41191 11.497 2.78789 11.0697 2.98438 10.5967C3.18019 10.1251 3.21569 9.56511 3.1582 8.93945C3.01854 7.42002 3.53033 5.84857 4.69531 4.68359L4.91895 4.47168C6.06102 3.4531 7.53772 3.01214 8.9668 3.14746C9.58562 3.20604 10.1397 3.17157 10.6064 2.97852C11.0739 2.78509 11.4972 2.41409 11.8916 1.93652C12.8674 0.755111 14.3458 9.59597e-06 16 0ZM16 1.5C14.8121 1.50001 13.7509 2.04043 13.0479 2.8916C12.5776 3.46104 11.9678 4.03844 11.1807 4.36426C10.3924 4.6904 9.55847 4.71006 8.8252 4.64062C7.79553 4.54313 6.737 4.8612 5.91699 5.59277L5.75586 5.74414C4.91942 6.58057 4.55078 7.70703 4.65137 8.80176C4.71919 9.53958 4.69939 10.3789 4.37012 11.1719C4.04129 11.9637 3.45916 12.5775 2.88672 13.0518C2.03833 13.7548 1.50002 14.8143 1.5 16C1.5 17.1826 2.03596 18.2394 2.88086 18.9424C3.4545 19.4197 4.0373 20.0363 4.36719 20.8311C4.69779 21.6275 4.71873 22.4701 4.65137 23.2109C4.55192 24.3045 4.91969 25.4293 5.75488 26.2646C6.59293 27.1027 7.72224 27.4703 8.81934 27.3672C9.55566 27.298 10.3931 27.3171 11.1846 27.6445C11.9723 27.9705 12.5833 28.5475 13.0557 29.1162C13.7586 29.9626 14.8162 30.5 16 30.5C17.1787 30.5 18.2318 29.9674 18.9346 29.127C19.4119 28.5562 20.0281 27.976 20.8213 27.6484C21.6188 27.3193 22.4625 27.2997 23.2041 27.3682C24.2994 27.4693 25.4262 27.1019 26.2627 26.2656C27.0974 25.4309 27.4653 24.307 27.3662 23.2139C27.2987 22.4699 27.3183 21.6233 27.6494 20.8232C27.9783 20.0288 28.5596 19.4108 29.1309 18.9316C29.9689 18.2288 30.5 17.1769 30.5 16C30.5 14.8201 29.9667 13.7654 29.125 13.0625C28.5548 12.5864 27.9753 11.9721 27.6475 11.1807C27.3175 10.384 27.2972 9.54093 27.3652 8.7998C27.4657 7.70546 27.0984 6.57999 26.2627 5.74414C25.4252 4.90667 24.2964 4.53785 23.2002 4.63965C22.4614 4.70833 21.6208 4.68956 20.8262 4.36133C20.0333 4.03374 19.418 3.45263 18.9424 2.88086C18.2394 2.03584 17.1827 1.5 16 1.5ZM15.999 21.208C16.6203 21.208 17.1239 21.7118 17.124 22.333V22.3584C17.1238 22.9795 16.6202 23.4834 15.999 23.4834C15.3778 23.4834 14.8742 22.9795 14.874 22.3584V22.333C14.8742 21.7118 15.3778 21.208 15.999 21.208ZM15.999 7.64941C16.4132 7.64941 16.749 7.9852 16.749 8.39941V17.583C16.749 17.9972 16.4132 18.333 15.999 18.333C15.5848 18.333 15.249 17.9972 15.249 17.583V8.39941C15.249 7.9852 15.5848 7.64941 15.999 7.64941Z"
    fill="currentColor"
  />
</svg>
