<svg width="12" height="12" viewBox="0 0 12 12" fill="none" xmlns="http://www.w3.org/2000/svg" data-fui-icon="true">
  <path
    d="M6 0C6.77338 3.11662e-05 7.46306 0.352908 7.91895 0.900391C7.96253 0.952758 7.99865 0.987711 8.02539 1.00977C8.05035 1.03032 8.06101 1.03466 8.05762 1.0332C8.06182 1.03434 8.07289 1.03624 8.09277 1.03809C8.1264 1.0412 8.17591 1.0417 8.24609 1.03516C8.95783 0.968779 9.69793 1.20788 10.2461 1.75586L10.3457 1.86035C10.8235 2.39612 11.0277 3.0881 10.9658 3.75391C10.9593 3.82405 10.9597 3.87359 10.9629 3.90723C10.9649 3.92912 10.9678 3.94017 10.9688 3.94336C10.9707 3.94701 10.9771 3.95828 10.9922 3.97656C11.0145 4.00357 11.0492 4.0393 11.1016 4.08301C11.6478 4.53888 12 5.22758 12 6C12 6.77109 11.6487 7.45845 11.1045 7.91406C11.0516 7.95834 11.0168 7.99489 10.9941 8.02246C10.9727 8.04851 10.9677 8.06008 10.9688 8.05762C10.9676 8.06156 10.9649 8.07308 10.9629 8.09473C10.9597 8.12901 10.9593 8.17909 10.9658 8.25C11.0272 8.91543 10.8231 9.6072 10.3457 10.1426L10.2461 10.2471C9.69737 10.7955 8.95738 11.0324 8.24707 10.9658C8.17657 10.9592 8.12676 10.9597 8.09277 10.9629C8.06082 10.9659 8.05131 10.9705 8.05566 10.9688C8.05228 10.9706 8.04139 10.9776 8.02246 10.9932C7.99536 11.0155 7.95978 11.0502 7.91602 11.1025C7.46064 11.6478 6.77227 12 6 12C5.22512 12 4.53399 11.6459 4.07812 11.0967C4.03529 11.0451 4.00049 11.0106 3.97461 10.9893C3.95871 10.9762 3.94877 10.9707 3.94531 10.9688C3.94136 10.9677 3.93077 10.9647 3.91113 10.9629C3.87822 10.9598 3.8295 10.9594 3.76074 10.9658C3.09393 11.0285 2.40148 10.8237 1.86523 10.3457L1.75977 10.2461C1.21296 9.69906 0.974202 8.9615 1.03906 8.25195C1.04552 8.18138 1.04517 8.13155 1.04199 8.09766C1.04001 8.07658 1.03722 8.06536 1.03613 8.06152C1.03455 8.05852 1.02806 8.04711 1.01172 8.02734C0.98912 8.00002 0.954284 7.96394 0.901367 7.91992C0.353275 7.46403 3.11732e-05 6.77387 0 6C0 5.2252 0.353827 4.53283 0.904297 4.07617C0.956685 4.03271 0.991442 3.99748 1.01367 3.9707C1.02926 3.95188 1.03555 3.94042 1.03711 3.9375C1.03823 3.93338 1.04112 3.92273 1.04297 3.90332C1.04611 3.87008 1.04644 3.82064 1.04004 3.75098C0.974964 3.04163 1.21288 2.30408 1.75977 1.75684L1.86523 1.65723C2.40137 1.17931 3.09408 0.973417 3.76172 1.03613C3.82986 1.04254 3.87794 1.04204 3.91016 1.03906C3.92777 1.03742 3.93809 1.03527 3.94238 1.03418C3.94574 1.03229 3.95541 1.02616 3.97168 1.0127C3.99741 0.991398 4.03166 0.957687 4.07422 0.90625C4.53059 0.354645 5.2239 0 6 0ZM8.58398 4.04297C8.1935 3.65249 7.56046 3.65257 7.16992 4.04297L5.12793 6.08398L4.70703 5.66309C4.31651 5.27256 3.68349 5.27256 3.29297 5.66309C2.90244 6.05361 2.90244 6.68662 3.29297 7.07715L4.4209 8.20508C4.81142 8.5956 5.44444 8.5956 5.83496 8.20508L8.58398 5.45703C8.97435 5.06654 8.97435 4.43346 8.58398 4.04297Z"
    fill="currentColor"
  />
</svg>
