<svg width="12" height="12" viewBox="0 0 12 12" fill="none" xmlns="http://www.w3.org/2000/svg" data-fui-icon="true">
  <g clip-path="url(#clip0_882_1094)">
    <path
      d="M6 0C6.82902 2.32488e-06 7.57884 0.337515 8.12109 0.879883C8.88789 0.879924 9.6561 1.17172 10.2422 1.75781C10.8283 2.3439 11.1201 3.11211 11.1201 3.87891C11.6625 4.42116 12 5.17098 12 6C12 6.82902 11.6625 7.57884 11.1201 8.12109C11.1201 8.88788 10.8283 9.6561 10.2422 10.2422C9.6561 10.8283 8.88788 11.1201 8.12109 11.1201C7.57884 11.6625 6.82902 12 6 12C5.17098 12 4.42116 11.6625 3.87891 11.1201C3.11211 11.1201 2.3439 10.8283 1.75781 10.2422C1.17172 9.6561 0.879924 8.88789 0.879883 8.12109C0.337515 7.57884 0 6.82902 0 6C0 5.17098 0.337515 4.42116 0.879883 3.87891C0.879926 3.11212 1.17173 2.3439 1.75781 1.75781C2.3439 1.17173 3.11212 0.879927 3.87891 0.879883C4.42116 0.337518 5.17098 0 6 0ZM6 1.5C5.50931 1.5 5.07372 1.73499 4.79883 2.10156L4.73242 2.17871C4.56685 2.34634 4.32993 2.42742 4.09277 2.39355C3.6392 2.32873 3.16532 2.4714 2.81836 2.81836C2.4714 3.16532 2.32873 3.6392 2.39355 4.09277C2.43227 4.36384 2.32061 4.63452 2.10156 4.79883L1.9707 4.90918C1.68005 5.18344 1.5 5.57054 1.5 6C1.5 6.49068 1.73499 6.92628 2.10156 7.20117C2.3206 7.36548 2.43227 7.63616 2.39355 7.90723C2.32873 8.36081 2.47139 8.83467 2.81836 9.18164C3.16533 9.52861 3.63919 9.67127 4.09277 9.60645C4.32993 9.57258 4.56685 9.65366 4.73242 9.82129L4.79883 9.89844L4.90918 10.0293C5.18344 10.3199 5.57054 10.5 6 10.5C6.49069 10.5 6.92628 10.265 7.20117 9.89844C7.36548 9.67939 7.63615 9.56773 7.90723 9.60645C8.3608 9.67127 8.83468 9.5286 9.18164 9.18164C9.5286 8.83468 9.67127 8.3608 9.60645 7.90723C9.56773 7.63616 9.67939 7.36548 9.89844 7.20117C10.265 6.92628 10.5 6.49069 10.5 6C10.5 5.57054 10.3199 5.18344 10.0293 4.90918L9.89844 4.79883L9.82129 4.73242C9.65366 4.56685 9.57257 4.32993 9.60645 4.09277C9.67128 3.63919 9.52861 3.16533 9.18164 2.81836C8.83467 2.47139 8.36081 2.32872 7.90723 2.39355C7.67006 2.42743 7.43316 2.34634 7.26758 2.17871L7.20117 2.10156L7.09082 1.9707C6.81656 1.68005 6.42946 1.5 6 1.5ZM7.71191 3.97754C8.0003 3.68052 8.47521 3.67367 8.77246 3.96191C9.06948 4.2503 9.07633 4.72521 8.78809 5.02246L5.78809 8.11621C5.6455 8.26306 5.44883 8.34528 5.24414 8.34375C5.06504 8.34235 4.89295 8.27729 4.75879 8.16113L4.7041 8.10742L3.2041 6.51367C2.92027 6.21204 2.93472 5.73797 3.23633 5.4541C3.53796 5.17027 4.01203 5.18472 4.2959 5.48633L5.25684 6.50879L7.71191 3.97754Z"
      fill="currentColor"
    />
  </g>
  <defs>
    <clipPath id="clip0_882_1094"><path fill="currentColor" d="M0 0H12V12H0z" /></clipPath>
  </defs>
</svg>
