<svg width="16" height="16" viewBox="0 0 16 16" fill="none" xmlns="http://www.w3.org/2000/svg" data-fui-icon="true">
  <g clip-path="url(#clip0_2948_43)">
    <g clip-path="url(#clip1_2948_43)">
      <path
        d="M8.00317 -0.00726318C8.74464 -0.00726318 9.40618 0.329847 9.84589 0.858592C10.0762 1.13552 10.3504 1.38669 10.683 1.52481C11.0164 1.66327 11.3853 1.67728 11.7448 1.6436C12.4305 1.57935 13.1381 1.80854 13.6633 2.33356C14.1879 2.85813 14.4172 3.56474 14.3539 4.24986C14.3206 4.61014 14.3349 4.97978 14.4739 5.31384C14.6121 5.64598 14.8628 5.91998 15.1389 6.15054C15.6657 6.59032 16.0012 7.25083 16.0012 7.99078C16.0012 8.72874 15.6673 9.38718 15.1429 9.82675C14.8657 10.0591 14.614 10.3348 14.4752 10.6687C14.3355 11.0047 14.3213 11.3764 14.3544 11.7388C14.4169 12.4232 14.1873 13.1289 13.6633 13.6529C13.1386 14.1774 12.4321 14.4061 11.7471 14.3423C11.3861 14.3086 11.0157 14.3227 10.6808 14.4616C10.3476 14.5998 10.0728 14.851 9.84146 15.1277C9.40189 15.6537 8.74243 15.9888 8.00317 15.9888C7.26095 15.9888 6.5989 15.6511 6.15924 15.1215C5.93079 14.8464 5.65856 14.597 5.32821 14.46C4.99667 14.3225 4.63 14.3084 4.27267 14.3421C3.58612 14.4068 2.87754 14.1776 2.35181 13.6519C1.82832 13.1282 1.59859 12.423 1.66081 11.7391C1.69362 11.3785 1.67912 11.0085 1.5402 10.6741C1.40136 10.3399 1.14875 10.0646 0.870545 9.83314C0.342049 9.39344 0.00512695 8.73205 0.00512695 7.99078C0.0051427 7.24752 0.34365 6.58405 0.874513 6.14415C1.15171 5.91445 1.40323 5.64082 1.54145 5.30841C1.67969 4.97593 1.69428 4.6081 1.66128 4.24954C1.59826 3.56491 1.82774 2.85888 2.35181 2.33453C2.87806 1.80828 3.58772 1.57862 4.27499 1.6438C4.63081 1.67755 4.99594 1.66339 5.32604 1.52636C5.65585 1.38944 5.92738 1.14011 6.15481 0.864809C6.5946 0.33245 7.25874 -0.00724755 8.00317 -0.00726318Z"
        fill="currentColor"
      />
      <path
        d="M5.00452 8.49792L6.50452 9.99792L10.5045 5.99792"
        stroke="currentColor"
        stroke-width="1.5"
        stroke-linecap="round"
        stroke-linejoin="round"
      />
    </g>
  </g>
  <defs>
    <clipPath id="clip0_2948_43"><path fill="currentColor" d="M0 0H16V16H0z" /></clipPath>
    <clipPath id="clip1_2948_43"><rect width="16" height="16" rx="8" fill="currentColor" /></clipPath>
  </defs>
</svg>
