<svg width="24" height="24" viewBox="0 0 24 24" fill="none" xmlns="http://www.w3.org/2000/svg" data-fui-icon="true">
  <path
    d="M12 0C13.3328 0 14.5245 0.607377 15.3115 1.55664C15.5754 1.87491 15.8255 2.08277 16.0684 2.18359C16.3084 2.28323 16.6253 2.31186 17.041 2.27246C18.2715 2.15576 19.547 2.56959 20.4912 3.51367C21.4344 4.45704 21.8473 5.73036 21.7314 6.95898C21.6922 7.3753 21.7213 7.69316 21.8213 7.93457C21.9218 8.17692 22.1284 8.42737 22.4463 8.69141C23.3937 9.47845 24 10.6686 24 12C24 13.328 23.3963 14.5149 22.4531 15.3018C22.1334 15.5685 21.925 15.8213 21.8232 16.0664C21.7221 16.3104 21.6922 16.6321 21.7314 17.0527C21.8458 18.2801 21.4332 19.5511 20.4912 20.4932C19.5481 21.4363 18.2749 21.85 17.0459 21.7344C16.6265 21.6949 16.3069 21.7236 16.0645 21.8242C15.8198 21.9258 15.5676 22.1343 15.3018 22.4531C14.515 23.3963 13.3282 24 12 24C10.6672 24 9.4755 23.3926 8.68848 22.4434C8.42647 22.1273 8.17808 21.9221 7.9375 21.8223C7.69868 21.7233 7.38366 21.6942 6.9707 21.7334C5.81761 21.843 4.62482 21.4871 3.70215 20.6641L3.52148 20.4932C2.58136 19.5527 2.16704 18.2837 2.2793 17.0576C2.31776 16.6375 2.28761 16.3179 2.18652 16.0752C2.08391 15.8289 1.87416 15.5758 1.55273 15.3086C0.605651 14.5214 4.54173e-05 13.3309 0 12C0 10.6657 0.609136 9.47291 1.56055 8.68555C1.87986 8.42129 2.08705 8.17008 2.18848 7.92676C2.28851 7.68664 2.31879 7.36985 2.28027 6.9541C2.16645 5.72669 2.57964 4.45468 3.52148 3.5127C4.46716 2.56718 5.74487 2.1549 6.97656 2.27344C7.38613 2.31288 7.69813 2.2835 7.93359 2.18555C8.17261 2.08604 8.41997 1.8814 8.67969 1.56641C9.46718 0.61135 10.6628 1.31128e-06 12 0ZM12 2C11.2848 2 10.6463 2.32507 10.2227 2.83887C9.86089 3.27761 9.36498 3.7553 8.70215 4.03125C8.03523 4.30886 7.34843 4.31792 6.78516 4.26367C6.12208 4.19982 5.44092 4.42151 4.93555 4.92676C4.43229 5.43013 4.21036 6.10791 4.27148 6.76855C4.32398 7.33457 4.31434 8.02616 4.03516 8.69629C3.75726 9.36309 3.27526 9.86121 2.83496 10.2256C2.32311 10.6492 2 11.2866 2 12L2.01465 12.2627C2.08316 12.8667 2.38513 13.3998 2.83105 13.7705C3.27181 14.1369 3.75463 14.6371 4.0332 15.3057C4.31349 15.9785 4.32345 16.6727 4.27148 17.2402C4.21117 17.8995 4.43268 18.576 4.93555 19.0791L5.13281 19.2549C5.60979 19.6343 6.20203 19.7972 6.78125 19.7422C7.3463 19.6885 8.03538 19.6972 8.7041 19.9746C9.36837 20.2501 9.86529 20.7289 10.2285 21.167C10.6521 21.6777 11.288 22 12 22C12.7093 22 13.3431 21.6798 13.7666 21.1719C14.1324 20.7332 14.6317 20.2541 15.2979 19.9775C15.9714 19.698 16.6654 19.6897 17.2334 19.7432C17.8943 19.8053 18.5728 19.5834 19.0771 19.0791C19.5807 18.5755 19.8017 17.8985 19.7402 17.2383C19.6872 16.6695 19.6962 15.9748 19.9756 15.3008C20.2524 14.6331 20.7328 14.1329 21.1719 13.7666C21.6796 13.3431 22 12.7094 22 12C22 11.2886 21.6779 10.6531 21.168 10.2295C20.7294 9.86517 20.2498 9.3671 19.9736 8.70117C19.6954 8.03005 19.6868 7.33854 19.7402 6.77148C19.8026 6.11034 19.5811 5.43179 19.0771 4.92773C18.5722 4.42285 17.8923 4.20099 17.2305 4.26367C16.6643 4.31737 15.9728 4.30882 15.3018 4.03027C14.6353 3.75359 14.1361 3.27376 13.7715 2.83398C13.3479 2.32305 12.7122 2 12 2ZM15.1074 8.55176C15.4979 8.16145 16.131 8.16141 16.5215 8.55176C16.9119 8.94223 16.9118 9.5753 16.5215 9.96582L11.0205 15.4668C10.63 15.8573 9.99599 15.8573 9.60547 15.4668L7.54297 13.4043C7.15259 13.0138 7.15255 12.3807 7.54297 11.9902C7.93346 11.5999 8.56654 11.5999 8.95703 11.9902L10.3125 13.3447L15.1074 8.55176Z"
    fill="currentColor"
  />
</svg>
