<svg width="24" height="24" viewBox="0 0 24 24" fill="none" xmlns="http://www.w3.org/2000/svg" data-fui-icon="true">
  <g clip-path="url(#clip0_2948_16)">
    <g clip-path="url(#clip1_2948_16)">
      <path
        d="M12.0048 -0.0108948C13.1199 -0.0108948 14.1164 0.496241 14.7767 1.29234C15.1195 1.70555 15.528 2.08018 16.0238 2.28614C16.5208 2.4926 17.0707 2.51313 17.6064 2.46223C18.6388 2.36414 19.7056 2.71057 20.496 3.50082C21.2843 4.28937 21.6297 5.35269 21.5332 6.38257C21.4829 6.92017 21.5039 7.47186 21.7107 7.97064C21.9165 8.46687 22.2911 8.87577 22.704 9.21944C23.4969 9.8795 24.0018 10.8736 24.0018 11.9862C24.0018 13.0957 23.4993 14.0867 22.71 14.7464C22.2955 15.0928 21.9193 15.5043 21.7122 16.0031C21.5039 16.5048 21.4829 17.0598 21.5331 17.6006C21.6286 18.6293 21.2834 19.6907 20.496 20.4784C19.7064 21.2679 18.6413 21.6139 17.61 21.5165C17.0719 21.4658 16.5197 21.4863 16.0203 21.6932C15.5235 21.8991 15.1139 22.2737 14.7696 22.6868C14.1095 23.4789 13.1164 23.9832 12.0048 23.9832C10.8893 23.9832 9.89305 23.4755 9.2331 22.6788C8.89255 22.2677 8.48636 21.8953 7.99337 21.6906C7.49838 21.485 6.95075 21.4643 6.4172 21.5154C5.38509 21.6142 4.31872 21.2689 3.5282 20.4784C2.74046 19.6905 2.39424 18.6286 2.48944 17.5997C2.53926 17.0614 2.51801 16.509 2.31005 16.01C2.10226 15.5113 1.72496 15.1006 1.3093 14.7556C0.514201 14.0956 0.00769043 13.1004 0.00769043 11.9862C0.00769789 10.8688 0.516767 9.87027 1.31567 9.21003C1.72959 8.86795 2.10503 8.45997 2.31192 7.96443C2.51894 7.46857 2.54024 6.91958 2.48999 6.38459C2.39321 5.35412 2.73918 4.28989 3.5282 3.50082C4.3196 2.70949 5.38783 2.36395 6.42124 2.46362C6.95214 2.51482 7.49709 2.49401 7.98964 2.28937C8.48183 2.08488 8.88688 1.71246 9.2258 1.30113C9.88591 0.499977 10.8856 -0.0108502 12.0048 -0.0108948Z"
        fill="currentColor"
      />
      <path
        d="M7.50684 12.7469L9.75684 14.9969L15.7568 8.99689"
        stroke="currentColor"
        stroke-width="1.5"
        stroke-linecap="round"
        stroke-linejoin="round"
      />
    </g>
  </g>
  <defs>
    <clipPath id="clip0_2948_16"><path fill="currentColor" d="M0 0H24V24H0z" /></clipPath>
    <clipPath id="clip1_2948_16"><rect width="24" height="24" rx="12" fill="currentColor" /></clipPath>
  </defs>
</svg>
