<svg width="12" height="12" viewBox="0 0 12 12" fill="none" xmlns="http://www.w3.org/2000/svg" data-fui-icon="true">
  <path
    d="M6 0C6.71922 6.17461e-05 7.36079 0.327958 7.78516 0.837891C7.89885 0.974527 7.98606 1.03768 8.0459 1.0625C8.10364 1.08639 8.20581 1.10278 8.38574 1.08594C9.04816 1.02395 9.73622 1.24619 10.2461 1.75586L10.3379 1.85352C10.7813 2.35059 10.9729 2.99196 10.916 3.61133C10.8993 3.79263 10.916 3.89638 10.9404 3.95508C10.9656 4.01559 11.0291 4.10332 11.166 4.21777C11.6738 4.64235 12 5.28271 12 6C12 6.71613 11.6745 7.35438 11.1689 7.77832C11.0313 7.89376 10.9671 7.98221 10.9414 8.04395C10.9165 8.10407 10.8993 8.20928 10.916 8.39258C10.9724 9.01169 10.7809 9.65281 10.3379 10.1494L10.2461 10.2471C9.73639 10.7566 9.04918 10.9777 8.3877 10.916C8.20662 10.8991 8.10352 10.9162 8.04492 10.9404C7.984 10.9657 7.89574 11.0291 7.78125 11.166C7.3571 11.6734 6.7174 12 6 12C5.27994 12 4.63744 11.6713 4.21289 11.1602C4.10086 11.0253 4.01495 10.9631 3.95605 10.9385C3.90016 10.9152 3.79969 10.8982 3.62207 10.915C3.00079 10.9738 2.35631 10.7836 1.85742 10.3389L1.75977 10.2461C1.25207 9.73802 1.02995 9.05303 1.08984 8.39258C1.10634 8.21089 1.08879 8.10754 1.06445 8.04883C1.03893 7.9875 0.974864 7.89909 0.836914 7.78418C0.32766 7.36003 2.46763e-05 6.71892 0 6C0 5.27908 0.329572 4.63549 0.841797 4.21094C0.978412 4.09765 1.04086 4.01127 1.06543 3.95215C1.08941 3.89438 1.10626 3.79237 1.08984 3.61328C1.02911 2.95225 1.25128 2.26567 1.75977 1.75684L1.85742 1.66406C2.35654 1.21905 3.00186 1.02785 3.62402 1.08691C3.79977 1.10359 3.89895 1.08728 3.9541 1.06445C4.0119 1.04039 4.09766 0.97841 4.20898 0.84375C4.63374 0.330057 5.27812 0 6 0ZM8.40918 3.96777C8.11643 3.67503 7.64156 3.67532 7.34863 3.96777L4.87891 6.4375L4.28418 5.84277C3.99143 5.55003 3.51656 5.55032 3.22363 5.84277C2.93074 6.13567 2.93074 6.61043 3.22363 6.90332L4.34863 8.02832C4.64153 8.32117 5.1163 8.3212 5.40918 8.02832L8.40918 5.02832C8.70162 4.73541 8.70188 4.26052 8.40918 3.96777Z"
    fill="currentColor"
  />
</svg>
