<svg width="21" height="21" viewBox="0 0 21 21" fill="none" xmlns="http://www.w3.org/2000/svg" data-fui-icon="true">
  <path
    d="M10.5005 0C11.4723 0.000251935 12.3397 0.441935 12.9163 1.13461C13.2186 1.49776 13.5787 1.82753 14.015 2.00888C14.4524 2.19056 14.9363 2.2086 15.4079 2.16467C16.3077 2.0808 17.2372 2.3827 17.9262 3.07175C18.6138 3.75962 18.9142 4.68582 18.8312 5.58387C18.7876 6.05685 18.8058 6.54225 18.988 6.98087C19.1693 7.41698 19.4988 7.77681 19.8613 8.0796C20.5519 8.65634 20.9928 9.52297 20.9928 10.4933C20.9926 11.461 20.5539 12.3243 19.8664 12.9009C19.5029 13.2058 19.1725 13.5678 18.9901 14.0058C18.8065 14.4466 18.7878 14.9345 18.8312 15.41C18.9132 16.3073 18.6133 17.2328 17.9262 17.9201C17.2378 18.6085 16.31 18.9095 15.411 18.8261C14.9374 18.7822 14.4512 18.8005 14.012 18.9829C13.5752 19.1644 13.2146 19.4934 12.9112 19.8562C12.3346 20.5456 11.4697 20.9854 10.5005 20.9857C9.52705 20.9857 8.65746 20.5423 8.08063 19.848C7.7809 19.4873 7.42407 19.1601 6.99112 18.9798C6.55614 18.7989 6.07443 18.7808 5.6054 18.8251C4.70509 18.9102 3.7758 18.6095 3.08609 17.9201C2.39913 17.2328 2.09737 16.3074 2.17902 15.41C2.22213 14.937 2.2028 14.4514 2.02016 14.013C1.83753 13.5748 1.50663 13.2128 1.14178 12.9091C0.44891 12.3324 0.0063772 11.4654 0.00614964 10.4933C0.00614964 9.51872 0.450145 8.64835 1.14588 8.0714C1.50947 7.76988 1.83917 7.41059 2.02118 6.97472C2.20318 6.53874 2.22242 6.05638 2.17902 5.58592C2.09605 4.68718 2.39801 3.75999 3.08609 3.07175C3.77632 2.38159 4.70629 2.08019 5.60745 2.1657C6.07482 2.2101 6.55463 2.1914 6.98804 2.01093C7.42081 1.83073 7.77779 1.50409 8.07653 1.14281C8.65334 0.445169 9.52438 0 10.5005 0ZM14.3379 7.32115C14.0306 7.01389 13.5322 7.01407 13.2248 7.32115L8.53365 12.0123L7.12231 10.601C6.815 10.2937 6.31664 10.2939 6.00922 10.601C5.70184 10.9083 5.70187 11.4066 6.00922 11.714L7.97711 13.6819C8.28451 13.9893 8.78279 13.9893 9.09019 13.6819L14.3379 8.43423C14.645 8.12681 14.6452 7.62845 14.3379 7.32115Z"
    fill="currentColor"
  />
</svg>
