<svg width="16" height="17" viewBox="0 0 16 17" fill="none" xmlns="http://www.w3.org/2000/svg" data-fui-icon="true">
  <path
    d="M8.00244 0C8.74377 0 9.40543 0.336586 9.8451 0.865182C10.0753 1.14196 10.3496 1.39301 10.682 1.53116C11.0154 1.6696 11.385 1.68397 11.7444 1.65029C12.43 1.58616 13.1371 1.81578 13.6623 2.34068C14.1867 2.86521 14.416 3.57153 14.3526 4.25658C14.3194 4.61663 14.3339 4.98612 14.4727 5.31999C14.6109 5.65202 14.8617 5.92634 15.1377 6.15685C15.6645 6.5966 16 7.25765 16 7.99756C15.9999 8.7353 15.6659 9.39393 15.1417 9.83338C14.8647 10.0656 14.6135 10.3414 14.4747 10.6751C14.3351 11.0111 14.3205 11.3831 14.3536 11.7454C14.416 12.4296 14.1861 13.1355 13.6623 13.6593C13.1376 14.1835 12.4312 14.4116 11.7464 14.3478C11.3854 14.3141 11.0149 14.329 10.68 14.4679C10.347 14.6061 10.0724 14.8572 9.8412 15.1338C9.40166 15.6598 8.74165 15.9951 8.00244 15.9951C7.26036 15.995 6.59839 15.6565 6.1588 15.127C5.93042 14.852 5.65801 14.6029 5.3278 14.4659C4.99631 14.3285 4.62948 14.3141 4.2722 14.3478C3.58579 14.4125 2.87706 14.1839 2.35142 13.6583C1.828 13.1347 1.59885 12.4292 1.66103 11.7454C1.69384 11.3848 1.67886 11.0144 1.53995 10.68C1.40109 10.346 1.14816 10.0706 0.870064 9.83924C0.341885 9.39965 0.0050119 8.73845 0.00488251 7.99756C0.00489826 7.25434 0.344116 6.59087 0.874947 6.15099C1.152 5.92139 1.40271 5.64731 1.54092 5.31511C1.6791 4.98278 1.69398 4.61497 1.66103 4.25658C1.59803 3.57214 1.82762 2.86593 2.35142 2.34165C2.87764 1.81543 3.5879 1.58511 4.27513 1.65029C4.63081 1.68399 4.99588 1.67009 5.32585 1.53311C5.65557 1.3962 5.92751 1.14726 6.1549 0.872017C6.59461 0.339749 7.25815 8.9898e-05 8.00244 0ZM7.99951 9.50626C7.44726 9.50626 6.99957 9.95394 6.99957 10.5062C6.99957 11.0584 7.44726 11.5061 7.99951 11.5061C8.55176 11.5061 8.99945 11.0584 8.99945 10.5062C8.99945 9.95394 8.55176 9.50626 7.99951 9.50626ZM7.99951 3.75661C7.58532 3.75661 7.24956 4.09237 7.24956 4.50656V7.50638C7.24956 7.92057 7.58532 8.25633 7.99951 8.25633C8.4137 8.25633 8.74947 7.92057 8.74947 7.50638V4.50656C8.74947 4.09237 8.4137 3.75661 7.99951 3.75661Z"
    fill="currentColor"
  />
</svg>
