<svg
  width="12"
  height="12"
  viewBox="0 0 12 12"
  fill="none"
  xmlns="http://www.w3.org/2000/svg"
  data-fui-icon="true"
>
  <path
    d="M10.875 3.75C10.875 4.78516 10.0352 5.625 9 5.625C8.43359 5.625 7.92578 5.39062 7.57422 4.98047L5.81641 5.85938C5.85547 5.99609 5.85547 6.13281 5.85547 6.25C5.85547 6.38672 5.85547 6.52344 5.81641 6.66016L7.57422 7.51953C7.92578 7.12891 8.43359 6.875 9 6.875C10.0352 6.875 10.875 7.71484 10.875 8.75C10.875 9.78516 10.0352 10.625 9 10.625C7.94531 10.625 7.125 9.78516 7.125 8.75C7.125 8.63281 7.125 8.49609 7.16406 8.35938L5.40625 7.48047C5.05469 7.89062 4.54688 8.125 4 8.125C2.94531 8.125 2.125 7.28516 2.125 6.25C2.125 5.21484 2.94531 4.375 4 4.375C4.54688 4.375 5.05469 4.62891 5.40625 5.01953L7.16406 4.16016C7.125 4.02344 7.125 3.88672 7.125 3.75C7.125 2.71484 7.94531 1.875 9 1.875C10.0352 1.875 10.875 2.71484 10.875 3.75ZM3.98047 7.1875C4.50781 7.1875 4.91797 6.77734 4.91797 6.25C4.91797 5.74219 4.50781 5.3125 3.98047 5.3125C3.47266 5.3125 3.04297 5.74219 3.04297 6.25C3.04297 6.77734 3.47266 7.1875 3.98047 7.1875ZM9 2.8125C8.47266 2.8125 8.0625 3.24219 8.0625 3.75C8.0625 4.27734 8.47266 4.6875 9 4.6875C9.50781 4.6875 9.9375 4.27734 9.9375 3.75C9.9375 3.24219 9.50781 2.8125 9 2.8125ZM9 9.6875C9.50781 9.6875 9.9375 9.27734 9.9375 8.75C9.9375 8.24219 9.50781 7.8125 9 7.8125C8.47266 7.8125 8.0625 8.24219 8.0625 8.75C8.0625 9.27734 8.47266 9.6875 9 9.6875Z"
    fill="currentColor"
  />
</svg>
