<svg width="12" height="12" viewBox="0 0 12 12" fill="none" xmlns="http://www.w3.org/2000/svg" data-fui-icon="true">
  <path
    fill-rule="evenodd"
    clip-rule="evenodd"
    d="M9.125 0.25C7.67525 0.25 6.5 1.42525 6.5 2.875C6.5 3.02241 6.51215 3.16699 6.53551 3.30778L4.70732 4.12031C4.23429 3.65913 3.58783 3.375 2.875 3.375C1.42525 3.375 0.25 4.55025 0.25 6C0.25 7.44975 1.42525 8.625 2.875 8.625C3.49755 8.625 4.06948 8.40828 4.51947 8.04618L6.50716 8.9296C6.50242 8.99411 6.5 9.05927 6.5 9.125C6.5 10.5747 7.67525 11.75 9.125 11.75C10.5747 11.75 11.75 10.5747 11.75 9.125C11.75 7.67525 10.5747 6.5 9.125 6.5C8.27692 6.5 7.52278 6.90218 7.04288 7.52622L5.37994 6.78714C5.45795 6.53864 5.5 6.27423 5.5 6C5.5 5.80654 5.47907 5.61797 5.43936 5.43643L7.19623 4.6556C7.67582 5.17484 8.36244 5.5 9.125 5.5C10.5747 5.5 11.75 4.32475 11.75 2.875C11.75 1.42525 10.5747 0.25 9.125 0.25ZM8 2.875C8 2.25368 8.50368 1.75 9.125 1.75C9.74632 1.75 10.25 2.25368 10.25 2.875C10.25 3.49632 9.74632 4 9.125 4C8.50368 4 8 3.49632 8 2.875ZM1.75 6C1.75 5.37868 2.25368 4.875 2.875 4.875C3.49632 4.875 4 5.37868 4 6C4 6.62132 3.49632 7.125 2.875 7.125C2.25368 7.125 1.75 6.62132 1.75 6ZM9.125 8C8.50368 8 8 8.50368 8 9.125C8 9.74632 8.50368 10.25 9.125 10.25C9.74632 10.25 10.25 9.74632 10.25 9.125C10.25 8.50368 9.74632 8 9.125 8Z"
    fill="currentColor"
  />
</svg>
