<svg
  width="24"
  height="24"
  viewBox="0 0 24 24"
  fill="none"
  xmlns="http://www.w3.org/2000/svg"
  data-fui-icon="true"
>
  <path
    d="M20.75 7.5C20.75 9.57031 19.0703 11.25 17 11.25C15.8672 11.25 14.8516 10.7812 14.1484 9.96094L10.6328 11.7188C10.7109 11.9922 10.7109 12.2656 10.7109 12.5C10.7109 12.7734 10.7109 13.0469 10.6328 13.3203L14.1484 15.0391C14.8516 14.2578 15.8672 13.75 17 13.75C19.0703 13.75 20.75 15.4297 20.75 17.5C20.75 19.5703 19.0703 21.25 17 21.25C14.8906 21.25 13.25 19.5703 13.25 17.5C13.25 17.2656 13.25 16.9922 13.3281 16.7188L9.8125 14.9609C9.10938 15.7812 8.09375 16.25 7 16.25C4.89062 16.25 3.25 14.5703 3.25 12.5C3.25 10.4297 4.89062 8.75 7 8.75C8.09375 8.75 9.10938 9.25781 9.8125 10.0391L13.3281 8.32031C13.25 8.04688 13.25 7.77344 13.25 7.5C13.25 5.42969 14.8906 3.75 17 3.75C19.0703 3.75 20.75 5.42969 20.75 7.5ZM6.96094 14.375C8.01562 14.375 8.83594 13.5547 8.83594 12.5C8.83594 11.4844 8.01562 10.625 6.96094 10.625C5.94531 10.625 5.08594 11.4844 5.08594 12.5C5.08594 13.5547 5.94531 14.375 6.96094 14.375ZM17 5.625C15.9453 5.625 15.125 6.48438 15.125 7.5C15.125 8.55469 15.9453 9.375 17 9.375C18.0156 9.375 18.875 8.55469 18.875 7.5C18.875 6.48438 18.0156 5.625 17 5.625ZM17 19.375C18.0156 19.375 18.875 18.5547 18.875 17.5C18.875 16.4844 18.0156 15.625 17 15.625C15.9453 15.625 15.125 16.4844 15.125 17.5C15.125 18.5547 15.9453 19.375 17 19.375Z"
    fill="currentColor"
  />
</svg>
