<svg width="20" height="20" viewBox="0 0 20 20" fill="none" xmlns="http://www.w3.org/2000/svg" data-fui-icon="true">
  <path
    fill-rule="evenodd"
    clip-rule="evenodd"
    d="M15.4919 1.5C13.5589 1.5 11.9919 3.067 11.9919 5C11.9919 5.184 12.0061 5.36468 12.0335 5.54101L7.14329 7.71443C6.50173 6.98107 5.55899 6.51788 4.50806 6.51788C2.57506 6.51788 1.00806 8.08489 1.00806 10.0179C1.00806 11.9509 2.57506 13.5179 4.50806 13.5179C5.57127 13.5179 6.52376 13.0438 7.16567 12.2955L12.0335 14.459C12.0061 14.6353 11.9919 14.816 11.9919 15C11.9919 16.933 13.5589 18.5 15.4919 18.5C17.4249 18.5 18.9919 16.933 18.9919 15C18.9919 13.067 17.4249 11.5 15.4919 11.5C14.2766 11.5 13.206 12.1194 12.5785 13.0597L7.87695 10.9702C7.96236 10.6674 8.00806 10.348 8.00806 10.0179C8.00806 9.67624 7.95911 9.34603 7.86784 9.03389L12.5785 6.94025C13.206 7.88059 14.2766 8.5 15.4919 8.5C17.4249 8.5 18.9919 6.93299 18.9919 5C18.9919 3.067 17.4249 1.5 15.4919 1.5ZM13.4919 5C13.4919 3.89543 14.3874 3 15.4919 3C16.5965 3 17.4919 3.89543 17.4919 5C17.4919 6.10457 16.5965 7 15.4919 7C14.3874 7 13.4919 6.10457 13.4919 5ZM2.50806 10.0179C2.50806 8.91331 3.40349 8.01788 4.50806 8.01788C5.61263 8.01788 6.50806 8.91331 6.50806 10.0179C6.50806 11.1225 5.61263 12.0179 4.50806 12.0179C3.40349 12.0179 2.50806 11.1225 2.50806 10.0179ZM15.4919 13C14.3874 13 13.4919 13.8954 13.4919 15C13.4919 16.1046 14.3874 17 15.4919 17C16.5965 17 17.4919 16.1046 17.4919 15C17.4919 13.8954 16.5965 13 15.4919 13Z"
    fill="currentColor"
  />
</svg>
