<svg
  width="20"
  height="20"
  viewBox="0 0 20 20"
  fill="none"
  xmlns="http://www.w3.org/2000/svg"
  data-fui-icon="true"
>
  <path
    fill-rule="evenodd"
    clip-rule="evenodd"
    d="M4.50806 8.01788C3.40349 8.01788 2.50806 8.91331 2.50806 10.0179 2.50806 11.1225 3.40349 12.0179 4.50806 12.0179 5.61263 12.0179 6.50806 11.1225 6.50806 10.0179 6.50806 8.91331 5.61263 8.01788 4.50806 8.01788zM1.00806 10.0179C1.00806 8.08489 2.57506 6.51788 4.50806 6.51788 6.44106 6.51788 8.00806 8.08489 8.00806 10.0179 8.00806 11.9509 6.44106 13.5179 4.50806 13.5179 2.57506 13.5179 1.00806 11.9509 1.00806 10.0179zM15.4919 3C14.3874 3 13.4919 3.89543 13.4919 5 13.4919 6.10457 14.3874 7 15.4919 7 16.5965 7 17.4919 6.10457 17.4919 5 17.4919 3.89543 16.5965 3 15.4919 3zM11.9919 5C11.9919 3.067 13.5589 1.5 15.4919 1.5 17.4249 1.5 18.9919 3.067 18.9919 5 18.9919 6.93299 17.4249 8.5 15.4919 8.5 13.5589 8.5 11.9919 6.93299 11.9919 5zM15.4919 13C14.3874 13 13.4919 13.8954 13.4919 15 13.4919 16.1046 14.3874 17 15.4919 17 16.5965 17 17.4919 16.1046 17.4919 15 17.4919 13.8954 16.5965 13 15.4919 13zM11.9919 15C11.9919 13.067 13.5589 11.5 15.4919 11.5 17.4249 11.5 18.9919 13.067 18.9919 15 18.9919 16.933 17.4249 18.5 15.4919 18.5 13.5589 18.5 11.9919 16.933 11.9919 15z"
    fill="currentColor"
  />
  <path
    fill-rule="evenodd"
    clip-rule="evenodd"
    d="M13.5647 5.68121C13.7329 6.05972 13.5625 6.50294 13.184 6.67117L7.26469 9.30195C6.88617 9.47018 6.44295 9.29971 6.27472 8.9212C6.1065 8.54269 6.27697 8.09946 6.65548 7.93124L12.5747 5.30045C12.9533 5.13222 13.3965 5.30269 13.5647 5.68121ZM6.27472 11.0788C6.44295 10.7003 6.88617 10.5298 7.26469 10.698L13.184 13.3288C13.5625 13.4971 13.7329 13.9403 13.5647 14.3188C13.3965 14.6973 12.9533 14.8678 12.5747 14.6995L6.65548 12.0688C6.27697 11.9005 6.1065 11.4573 6.27472 11.0788Z"
    fill="currentColor"
  />
</svg>
