<svg
  width="24"
  height="24"
  viewBox="0 0 24 24"
  fill="none"
  xmlns="http://www.w3.org/2000/svg"
  data-fui-icon="true"
>
  <path
    fill-rule="evenodd"
    clip-rule="evenodd"
    d="M5.41582 9.5842C4.0816 9.5842 3 10.6658 3 12 3 13.3342 4.0816 14.4158 5.41582 14.4158 6.75003 14.4158 7.83163 13.3342 7.83163 12 7.83163 10.6658 6.75003 9.5842 5.41582 9.5842zM1.5 12C1.5 9.83737 3.25317 8.0842 5.41582 8.0842 7.57846 8.0842 9.33163 9.83737 9.33163 12 9.33163 14.1627 7.57846 15.9158 5.41582 15.9158 3.25317 15.9158 1.5 14.1627 1.5 12zM18.1658 3.625C16.8316 3.625 15.75 4.7066 15.75 6.04082 15.75 7.37503 16.8316 8.45663 18.1658 8.45663 19.5 8.45663 20.5816 7.37503 20.5816 6.04082 20.5816 4.7066 19.5 3.625 18.1658 3.625zM14.25 6.04082C14.25 3.87817 16.0032 2.125 18.1658 2.125 20.3285 2.125 22.0816 3.87817 22.0816 6.04082 22.0816 8.20346 20.3285 9.95663 18.1658 9.95663 16.0032 9.95663 14.25 8.20346 14.25 6.04082zM18.1658 15.5434C16.8316 15.5434 15.75 16.625 15.75 17.9592 15.75 19.2934 16.8316 20.375 18.1658 20.375 19.5 20.375 20.5816 19.2934 20.5816 17.9592 20.5816 16.625 19.5 15.5434 18.1658 15.5434zM14.25 17.9592C14.25 15.7965 16.0032 14.0434 18.1658 14.0434 20.3285 14.0434 22.0816 15.7965 22.0816 17.9592 22.0816 20.1218 20.3285 21.875 18.1658 21.875 16.0032 21.875 14.25 20.1218 14.25 17.9592z"
    fill="currentColor"
  />
  <path
    fill-rule="evenodd"
    clip-rule="evenodd"
    d="M15.8219 7.04403C15.9901 7.42254 15.8197 7.86576 15.4412 8.03399L8.58231 11.0824C8.2038 11.2506 7.76058 11.0801 7.59235 10.7016C7.42412 10.3231 7.59459 9.87987 7.97311 9.71165L14.8319 6.66327C15.2105 6.49505 15.6537 6.66552 15.8219 7.04403ZM7.59235 13.2984C7.76058 12.9199 8.2038 12.7494 8.58231 12.9176L15.4412 15.966C15.8197 16.1342 15.9901 16.5774 15.8219 16.956C15.6537 17.3345 15.2105 17.5049 14.8319 17.3367L7.97311 14.2883C7.59459 14.1201 7.42412 13.6769 7.59235 13.2984Z"
    fill="currentColor"
  />
</svg>
