<svg width="24" height="24" viewBox="0 0 24 24" fill="none" xmlns="http://www.w3.org/2000/svg" data-fui-icon="true">
  <path
    fill-rule="evenodd"
    clip-rule="evenodd"
    d="M18.1658 2.125C16.0032 2.125 14.25 3.87817 14.25 6.04082C14.25 6.32947 14.2812 6.61083 14.3405 6.88169L8.43508 9.50632C7.71684 8.63769 6.63097 8.0842 5.41582 8.0842C3.25317 8.0842 1.5 9.83737 1.5 12C1.5 14.1627 3.25317 15.9158 5.41582 15.9158C6.63098 15.9158 7.71687 15.3623 8.43511 14.4937L14.3405 17.1183C14.2812 17.3892 14.25 17.6705 14.25 17.9592C14.25 20.1218 16.0032 21.875 18.1658 21.875C20.3285 21.875 22.0816 20.1218 22.0816 17.9592C22.0816 15.7965 20.3285 14.0434 18.1658 14.0434C16.8261 14.0434 15.6436 14.7161 14.9376 15.7422L9.15341 13.1714C9.26921 12.8016 9.33163 12.4081 9.33163 12C9.33163 11.5919 9.26921 11.1984 9.15339 10.8285L14.9376 8.2578C15.6436 9.28389 16.8261 9.95663 18.1658 9.95663C20.3285 9.95663 22.0816 8.20346 22.0816 6.04082C22.0816 3.87817 20.3285 2.125 18.1658 2.125ZM15.75 6.04082C15.75 4.7066 16.8316 3.625 18.1658 3.625C19.5 3.625 20.5816 4.7066 20.5816 6.04082C20.5816 7.37503 19.5 8.45663 18.1658 8.45663C16.8316 8.45663 15.75 7.37503 15.75 6.04082ZM3 12C3 10.6658 4.0816 9.5842 5.41582 9.5842C6.75003 9.5842 7.83163 10.6658 7.83163 12C7.83163 13.3342 6.75003 14.4158 5.41582 14.4158C4.0816 14.4158 3 13.3342 3 12ZM18.1658 15.5434C16.8316 15.5434 15.75 16.625 15.75 17.9592C15.75 19.2934 16.8316 20.375 18.1658 20.375C19.5 20.375 20.5816 19.2934 20.5816 17.9592C20.5816 16.625 19.5 15.5434 18.1658 15.5434Z"
    fill="currentColor"
  />
</svg>
