<svg
  width="12"
  height="12"
  viewBox="0 0 12 12"
  fill="none"
  xmlns="http://www.w3.org/2000/svg"
  data-fui-icon="true"
>
  <path
    fill-rule="evenodd"
    clip-rule="evenodd"
    d="M2.875 4.875C2.25368 4.875 1.75 5.37868 1.75 6 1.75 6.62132 2.25368 7.125 2.875 7.125 3.49632 7.125 4 6.62132 4 6 4 5.37868 3.49632 4.875 2.875 4.875zM.25 6C.25 4.55025 1.42525 3.375 2.875 3.375 4.32475 3.375 5.5 4.55025 5.5 6 5.5 7.44975 4.32475 8.625 2.875 8.625 1.42525 8.625.25 7.44975.25 6zM9.125 1.75C8.50368 1.75 8 2.25368 8 2.875 8 3.49632 8.50368 4 9.125 4 9.74632 4 10.25 3.49632 10.25 2.875 10.25 2.25368 9.74632 1.75 9.125 1.75zM6.5 2.875C6.5 1.42525 7.67525.25 9.125.25 10.5747.25 11.75 1.42525 11.75 2.875 11.75 4.32475 10.5747 5.5 9.125 5.5 7.67525 5.5 6.5 4.32475 6.5 2.875zM9.125 8C8.50368 8 8 8.50368 8 9.125 8 9.74632 8.50368 10.25 9.125 10.25 9.74632 10.25 10.25 9.74632 10.25 9.125 10.25 8.50368 9.74632 8 9.125 8zM6.5 9.125C6.5 7.67525 7.67525 6.5 9.125 6.5 10.5747 6.5 11.75 7.67525 11.75 9.125 11.75 10.5747 10.5747 11.75 9.125 11.75 7.67525 11.75 6.5 10.5747 6.5 9.125z"
    fill="currentColor"
  />
  <path
    fill-rule="evenodd"
    clip-rule="evenodd"
    d="M7.91899 3.51363C8.08722 3.89215 7.91675 4.33537 7.53824 4.5036L4.99845 5.63239C4.61994 5.80062 4.17672 5.63015 4.00849 5.25163C3.84026 4.87312 4.01073 4.4299 4.38924 4.26167L6.92903 3.13288C7.30754 2.96465 7.75077 3.13512 7.91899 3.51363ZM4.00849 6.99834C4.17672 6.61983 4.61994 6.44936 4.99845 6.61758L7.53824 7.74638C7.91675 7.91461 8.08722 8.35783 7.91899 8.73634C7.75077 9.11485 7.30754 9.28532 6.92903 9.11709L4.38924 7.9883C4.01073 7.82007 3.84026 7.37685 4.00849 6.99834Z"
    fill="currentColor"
  />
</svg>
