<svg width="20" height="20" viewBox="0 0 20 20" fill="none" xmlns="http://www.w3.org/2000/svg" data-fui-icon="true">
  <path
    fill-rule="evenodd"
    clip-rule="evenodd"
    d="M9.25 0.250771C9.78536 0.0575341 10.372 0.0592485 10.9062 0.255654L17.416 2.65116C18.3673 3.00113 18.9998 3.90706 19 4.92069V10.9998L18.9941 11.2498C18.875 13.8112 16.9442 15.8499 15.1025 17.243C13.1616 18.711 11.0895 19.6367 10.5166 19.8797C10.234 19.9995 9.92522 20.0006 9.6416 19.8826C9.06298 19.6419 6.95319 18.718 4.97559 17.2508C3.04083 15.8152 1 13.6871 1 10.9998V4.92851C1.00013 3.90949 1.6392 2.99922 2.59766 2.65312L9.25 0.250771ZM10.3887 1.66386C10.1857 1.58924 9.96218 1.58848 9.75879 1.6619L3.10645 4.06425C2.74263 4.19581 2.50014 4.54163 2.5 4.92851V10.9998L2.50488 11.1795C2.59438 13.0266 4.05158 14.6971 5.86914 16.0457C7.56379 17.303 9.38466 18.138 10.0732 18.4334C10.7516 18.1367 12.5368 17.3025 14.1973 16.0467C16.0338 14.6576 17.5 12.923 17.5 10.9998V4.92069C17.4998 4.53577 17.2597 4.1913 16.8984 4.05839L10.3887 1.66386ZM12.4668 7.21952C12.7596 6.92696 13.2345 6.92696 13.5273 7.21952C13.8202 7.51233 13.82 7.98715 13.5273 8.28007L9.35547 12.4519C9.06258 12.7448 8.58782 12.7448 8.29492 12.4519L6.62598 10.783C6.3334 10.4901 6.33319 10.0152 6.62598 9.72245C6.9188 9.4301 7.39375 9.43002 7.68652 9.72245L8.8252 10.8611L12.4668 7.21952Z"
    fill="currentColor"
  />
</svg>
