<svg width="16" height="16" viewBox="0 0 16 16" fill="none" xmlns="http://www.w3.org/2000/svg" data-fui-icon="true">
  <path
    fill-rule="evenodd"
    clip-rule="evenodd"
    d="M7.38672 1.12695C7.82762 0.959099 8.31542 0.961281 8.75488 1.13281L12.791 2.70996C13.5203 2.99492 14.0008 3.69848 14.001 4.48144V8.8789C14.0008 10.6939 12.6648 12.1405 11.4609 13.0967C10.2172 14.0845 8.88632 14.7285 8.49121 14.9102C8.22431 15.0329 7.92174 15.0356 7.65234 14.915C7.25128 14.7355 5.88725 14.0928 4.61133 13.1064C3.37899 12.1537 2.00022 10.7046 2 8.8789V4.48828C2.00024 3.69952 2.48753 2.99274 3.22461 2.71191L7.38672 1.12695ZM8.75 13.0928C9.26369 12.8088 9.912 12.4123 10.5283 11.9228C11.6736 11.0132 12.5008 9.95668 12.501 8.8789V4.48144C12.5008 4.31622 12.399 4.16756 12.2451 4.10742L8.75 2.74121V13.0928ZM3.75879 4.11328C3.60324 4.17249 3.50024 4.32188 3.5 4.48828V8.8789C3.50023 9.94936 4.3464 11.0062 5.52832 11.9199C6.12048 12.3777 6.7409 12.7548 7.25 13.0342V2.78417L3.75879 4.11328Z"
    fill="currentColor"
  />
</svg>
