<svg width="24" height="24" viewBox="0 0 24 24" fill="none" xmlns="http://www.w3.org/2000/svg" data-fui-icon="true">
  <path
    d="M11.1035 0.322754C11.7409 0.0800837 12.4461 0.0830031 13.082 0.32959L20.7402 3.30029C21.8008 3.71193 22.4998 4.73295 22.5 5.87061V13.2095C22.4998 16.3382 20.2119 18.8752 17.9766 20.6274C15.704 22.4088 13.271 23.5482 12.5811 23.855C12.2678 23.9943 11.9222 23.9952 11.6074 23.8579C10.9098 23.5536 8.4304 22.4158 6.11426 20.6353C3.83822 18.8854 1.50023 16.3466 1.5 13.2095V5.88037C1.50016 4.73616 2.20702 3.71036 3.27637 3.30322L11.1035 0.322754ZM12.54 1.72803C12.2501 1.61564 11.9283 1.61449 11.6377 1.7251L3.80957 4.70459C3.32217 4.89031 3.00016 5.35879 3 5.88037V13.2095C3.00023 15.5967 4.81525 17.7437 7.0293 19.4458C9.08769 21.0282 11.3038 22.0805 12.0889 22.4302C12.8632 22.0785 15.0348 21.027 17.0508 19.4468C19.2182 17.7478 20.9998 15.6011 21 13.2095V5.87061C20.9998 5.35188 20.6809 4.88636 20.1973 4.69873L12.54 1.72803Z"
    fill="currentColor"
  />
</svg>
