<svg width="32" height="32" viewBox="0 0 32 32" fill="none" xmlns="http://www.w3.org/2000/svg" data-fui-icon="true">
  <path
    d="M14.9365 1.39966C15.697 1.10762 16.5393 1.11059 17.2979 1.40747L26.9248 5.17603C28.1763 5.66618 28.9999 6.87301 29 8.21704V17.5227C28.9999 21.3459 26.1973 24.5044 23.4023 26.7249C20.57 28.9749 17.5325 30.4316 16.6641 30.8274C16.3136 30.9871 15.9255 30.9886 15.5732 30.8313C14.6955 30.4391 11.6001 28.9834 8.71191 26.7336C5.86435 24.5154 3.00013 21.3551 3 17.5227V8.22876C3.00017 6.87701 3.83288 5.66471 5.09473 5.17993L14.9365 1.39966ZM16.751 2.80396C16.3409 2.64357 15.8857 2.64227 15.4746 2.80005L5.63281 6.58032C4.95049 6.84242 4.50017 7.49785 4.5 8.22876V17.5227C4.50013 20.609 6.84501 23.3786 9.63379 25.551C12.3066 27.633 15.1884 29.0108 16.1123 29.428C17.0226 29.0089 19.8498 27.6314 22.4697 25.55C25.2001 23.3809 27.4999 20.6127 27.5 17.5227V8.21704C27.4999 7.49034 27.0546 6.83756 26.3779 6.57251L16.751 2.80396ZM19.9697 10.47C20.2626 10.1771 20.7374 10.1771 21.0303 10.47C21.323 10.7629 21.3231 11.2377 21.0303 11.5305L17.0605 15.5002L21.0303 19.47C21.323 19.7629 21.3231 20.2377 21.0303 20.5305C20.7374 20.8232 20.2626 20.8232 19.9697 20.5305L16 16.5608L12.0303 20.5305C11.7374 20.8232 11.2626 20.8232 10.9697 20.5305C10.6769 20.2377 10.677 19.7629 10.9697 19.47L14.9395 15.5002L10.9697 11.5305C10.6769 11.2377 10.677 10.7629 10.9697 10.47C11.2626 10.1771 11.7374 10.1771 12.0303 10.47L16 14.4397L19.9697 10.47Z"
    fill="currentColor"
  />
</svg>
