<svg width="12" height="13" viewBox="0 0 12 13" fill="none" xmlns="http://www.w3.org/2000/svg" data-fui-icon="true">
  <path
    fill-rule="evenodd"
    clip-rule="evenodd"
    d="M5.37402 0.116987C5.77703 -0.0373681 6.22297 -0.0373682 6.62598 0.116987L10.376 1.55449C11.0528 1.8139 11.5 2.46342 11.5 3.18828V6.75078C11.4996 8.41481 10.1999 9.67078 9.08984 10.4607C7.93116 11.2852 6.70055 11.7995 6.36133 11.9344C6.1277 12.0272 5.8723 12.0272 5.63867 11.9344C5.29945 11.7995 4.06884 11.2852 2.91016 10.4607C1.80011 9.67078 0.500401 8.41481 0.5 6.75078V3.18828C0.5 2.46342 0.947189 1.8139 1.62402 1.55449L5.37402 0.116987ZM5.03027 3.78203C4.73738 3.48947 4.26252 3.48929 3.96973 3.78203C3.67693 4.0748 3.67718 4.54964 3.96973 4.84257L4.93945 5.8123L3.96973 6.78203C3.67703 7.07483 3.67718 7.54969 3.96973 7.84257C4.2626 8.13535 4.73741 8.13534 5.03027 7.84257L6 6.87285L6.96973 7.84257C7.26265 8.13517 7.73748 8.13537 8.03027 7.84257C8.32298 7.54977 8.32283 7.07491 8.03027 6.78203L7.06055 5.8123L8.03027 4.84257C8.3229 4.54972 8.32291 4.07486 8.03027 3.78203C7.73742 3.48955 7.26252 3.48946 6.96973 3.78203L6 4.75175L5.03027 3.78203Z"
    fill="currentColor"
  />
</svg>
