<svg width="20" height="20" viewBox="0 0 20 20" fill="none" xmlns="http://www.w3.org/2000/svg" data-fui-icon="true">
  <path
    fill-rule="evenodd"
    clip-rule="evenodd"
    d="M9.25 0.250771C9.78536 0.0575341 10.372 0.0592484 10.9062 0.255654L17.416 2.65116C18.3673 3.00113 18.9998 3.90706 19 4.92069V10.9998L18.9941 11.2498C18.875 13.8112 16.9442 15.8499 15.1025 17.243C13.1616 18.711 11.0895 19.6367 10.5166 19.8797C10.234 19.9995 9.92521 20.0006 9.6416 19.8826C9.06298 19.6419 6.95319 18.718 4.97559 17.2508C3.04083 15.8152 1 13.6871 1 10.9998V4.92851C1.00013 3.90949 1.6392 2.99922 2.59766 2.65312L9.25 0.250771ZM13.5273 7.21952C13.2345 6.92696 12.7596 6.92696 12.4668 7.21952L8.8252 10.8611L7.68652 9.72245C7.39375 9.43002 6.9188 9.4301 6.62598 9.72245C6.33319 10.0152 6.3334 10.4901 6.62598 10.783L8.29492 12.4519C8.58782 12.7448 9.06258 12.7448 9.35547 12.4519L13.5273 8.28007C13.82 7.98716 13.8202 7.51233 13.5273 7.21952Z"
    fill="currentColor"
  />
</svg>
