<svg width="24" height="24" viewBox="0 0 24 24" fill="none" xmlns="http://www.w3.org/2000/svg" data-fui-icon="true">
  <path
    fill-rule="evenodd"
    clip-rule="evenodd"
    d="M11.0752 1.18872C11.7251 0.93534 12.4474 0.936923 13.0957 1.19458L19.7646 3.84497C20.8141 4.26229 21.5037 5.27805 21.5039 6.40747V13.0579C21.5039 15.9375 19.4616 18.2731 17.4629 19.8879C15.4315 21.5289 13.2463 22.5859 12.5869 22.8879C12.2677 23.0341 11.9073 23.036 11.5859 22.8918C10.9202 22.5928 8.69407 21.5373 6.62305 19.8967C4.58753 18.2842 2.5 15.9464 2.5 13.0579V6.41723C2.50003 5.28107 3.19736 4.26076 4.25586 3.8479L11.0752 1.18872ZM12.542 2.58911C12.2465 2.47164 11.9164 2.47073 11.6201 2.58618L4.80078 5.24536C4.3181 5.43363 4.00003 5.89914 4 6.41723V13.0579C4 15.2165 5.5904 17.1649 7.55469 18.7209C9.37379 20.1619 11.3423 21.1287 12.0811 21.468C12.8101 21.1265 14.7385 20.1597 16.5195 18.7209C18.4418 17.168 20.0039 15.2205 20.0039 13.0579V6.40747C20.0037 5.8926 19.6884 5.42983 19.21 5.2395L12.542 2.58911ZM15.0752 8.76977C15.3681 8.47736 15.843 8.47704 16.1357 8.76977C16.4282 9.06253 16.4281 9.53749 16.1357 9.83032L11.1172 14.8489C10.8244 15.1417 10.3496 15.1415 10.0566 14.8489L8.04883 12.8411C7.75615 12.5482 7.75601 12.0733 8.04883 11.7805C8.34169 11.4882 8.81665 11.488 9.10938 11.7805L10.5869 13.2581L15.0752 8.76977Z"
    fill="currentColor"
  />
</svg>
