<svg width="32" height="32" viewBox="0 0 32 32" fill="none" xmlns="http://www.w3.org/2000/svg" data-fui-icon="true">
  <path
    fill-rule="evenodd"
    clip-rule="evenodd"
    d="M14.9365 1.39985C15.697 1.10781 16.5393 1.11078 17.2979 1.40766L26.9248 5.17622C28.1763 5.66637 28.9999 6.8732 29 8.21723V17.5229C28.9999 21.3461 26.1973 24.5046 23.4023 26.725C20.57 28.9751 17.5325 30.4318 16.6641 30.8276C16.3136 30.9873 15.9255 30.9888 15.5732 30.8315C14.6955 30.4393 11.6001 28.9836 8.71191 26.7338C5.86435 24.5156 3.00013 21.3553 3 17.5229V8.22895C3.00017 6.8772 3.83288 5.6649 5.09473 5.18012L14.9365 1.39985ZM21.0498 12.2202C20.7569 11.9273 20.2822 11.9273 19.9893 12.2202L14.2285 17.9799L12.2432 15.9946C11.9503 15.7017 11.4755 15.7017 11.1826 15.9946C10.8899 16.2875 10.8898 16.7623 11.1826 17.0551L13.6992 19.5707C13.9921 19.8635 14.4669 19.8635 14.7598 19.5707L21.0498 13.2807C21.3427 12.9879 21.3426 12.5131 21.0498 12.2202Z"
    fill="currentColor"
  />
</svg>
