<svg width="32" height="32" viewBox="0 0 32 32" fill="none" xmlns="http://www.w3.org/2000/svg" data-fui-icon="true">
  <path
    fill-rule="evenodd"
    clip-rule="evenodd"
    d="M14.7959 1.25333C15.6413 0.911937 16.5876 0.914996 17.4307 1.26212L26.3428 4.93204C27.6492 5.47019 28.5018 6.74372 28.502 8.15665V17.4682C28.502 21.3124 25.8704 24.4778 23.2031 26.7152C20.5084 28.9755 17.6009 30.4383 16.7041 30.8647C16.3302 31.0424 15.9019 31.045 15.5254 30.8695C14.6198 30.4474 11.6564 28.9864 8.9082 26.726C6.1904 24.4906 3.5 21.3221 3.5 17.4682V8.17032C3.50007 6.7488 4.36367 5.46856 5.68164 4.93595L14.7959 1.25333ZM16 19.9994C13.072 19.9997 10.2327 21.5122 9.3418 25.0815C9.3389 25.093 9.33445 25.1043 9.33105 25.1156C9.50571 25.2685 9.6823 25.4195 9.86133 25.5668C12.4181 27.6697 15.1928 29.0557 16.1084 29.4858C17.0113 29.0534 19.7333 27.6678 22.2393 25.5658C22.3908 25.4387 22.5401 25.3085 22.6885 25.1772C22.6763 25.1465 22.6654 25.1143 22.6572 25.0815C21.7662 21.5122 18.9281 19.9995 16 19.9994ZM16.8594 2.64981C16.379 2.452 15.8392 2.44944 15.3574 2.64395L6.24414 6.32755C5.49301 6.63107 5.00105 7.3602 5.00098 8.17032V17.4682C5.00098 19.8838 6.31117 22.082 8.11133 23.9545C9.40766 20.1292 12.7435 18.4997 16 18.4994C19.2706 18.4995 22.6199 20.1436 23.9043 24.0043C25.6921 22.1226 27.002 19.9077 27.002 17.4682V8.15665C27.0018 7.35152 26.5159 6.62545 25.7715 6.31876L16.8594 2.64981ZM15.9951 7.99942C18.4112 7.99942 20.3699 9.95835 20.3701 12.3744C20.3701 14.7907 18.4114 16.7494 15.9951 16.7494C13.5791 16.7491 11.6201 14.7905 11.6201 12.3744C11.6203 9.95852 13.5792 7.9997 15.9951 7.99942ZM15.9951 9.49942C14.4077 9.4997 13.1203 10.787 13.1201 12.3744C13.1201 13.9621 14.4075 15.2491 15.9951 15.2494C17.5829 15.2494 18.8701 13.9622 18.8701 12.3744C18.8699 10.7868 17.5828 9.49942 15.9951 9.49942Z"
    fill="currentColor"
  />
</svg>
