<svg width="20" height="20" viewBox="0 0 20 20" fill="none" xmlns="http://www.w3.org/2000/svg" data-fui-icon="true">
  <path
    fill-rule="evenodd"
    clip-rule="evenodd"
    d="M9.28125 1.13988C9.79123 0.951774 10.3525 0.953372 10.8613 1.14476L16.5381 3.28051C17.4197 3.61236 18.0039 4.45667 18.0039 5.39867V10.8625C18.0035 13.2955 16.2349 15.2231 14.5605 16.5207C12.8499 17.8465 11.0214 18.6836 10.5039 18.9084C10.226 19.0291 9.91888 19.0301 9.63965 18.9114C9.11719 18.6887 7.25549 17.8524 5.5127 16.5276C3.80905 15.2324 2.0004 13.3036 2 10.8625V5.40551C1.99998 4.45829 2.58995 3.61058 3.47852 3.28246L9.28125 1.13988ZM13.5273 7.21996C13.2344 6.92719 12.7596 6.92711 12.4668 7.21996L8.8252 10.8616L7.68652 9.72289C7.39368 9.43025 6.91882 9.43025 6.62598 9.72289C6.33315 10.0157 6.33328 10.4905 6.62598 10.7834L8.29492 12.4524C8.58782 12.7453 9.06258 12.7453 9.35547 12.4524L13.5273 8.28051C13.8202 7.98761 13.8202 7.51285 13.5273 7.21996Z"
    fill="currentColor"
  />
</svg>
