<svg width="32" height="32" viewBox="0 0 32 32" fill="none" xmlns="http://www.w3.org/2000/svg" data-fui-icon="true">
  <path
    d="M16.0488 1.00198C16.545 0.995166 17.0425 1.08715 17.5098 1.2803L26.2188 4.88089C27.5994 5.45189 28.5007 6.79889 28.501 8.293V17.4434C28.5008 21.3382 25.8493 24.5133 23.2246 26.7246C20.5635 28.9665 17.6951 30.4162 16.8057 30.8409C16.5655 30.9555 16.3054 31.0064 16.0469 30.9971C16.0313 30.9978 16.0157 31 16 31C15.8614 31 15.7294 30.9719 15.6094 30.9209C15.5447 30.9 15.4806 30.876 15.418 30.8467C14.5199 30.4262 11.5972 28.9789 8.88379 26.7373C6.21039 24.5288 3.50018 21.3501 3.5 17.4434V8.30569C3.50031 6.80259 4.41179 5.44888 5.80469 4.88382L14.7109 1.27151C15.0846 1.12002 15.4769 1.0332 15.8721 1.00882C15.914 1.00346 15.9566 1.00003 16 1.00003C16.0164 1.00003 16.0326 1.0012 16.0488 1.00198ZM17 28.4971C18.2291 27.8391 20.1418 26.7073 21.9365 25.1953C24.4454 23.0815 26.5008 20.4183 26.501 17.4434V8.293C26.5007 7.6082 26.087 6.99023 25.4541 6.72855L17 3.23343V28.4971ZM6.55664 6.73734C5.91827 6.99631 5.50031 7.61684 5.5 8.30569V17.4434C5.50018 20.4133 7.59352 23.0774 10.1572 25.1953C11.8981 26.6335 13.7465 27.7266 15 28.3955V3.31155L6.55664 6.73734Z"
    fill="currentColor"
  />
</svg>
