<svg width="16" height="16" viewBox="0 0 16 16" fill="none" xmlns="http://www.w3.org/2000/svg" data-fui-icon="true">
  <path
    fill-rule="evenodd"
    clip-rule="evenodd"
    d="M8.04883 1.00171C8.31555 1.00011 8.58252 1.04886 8.83496 1.14819L12.665 2.65698C13.4723 2.97485 14.0038 3.75427 14.0039 4.62183V8.84058C14.0039 10.7154 12.6417 12.1762 11.4834 13.1042C10.2737 14.0733 8.98191 14.7036 8.59375 14.8835C8.4127 14.9675 8.21774 15.0042 8.02344 14.9978C8.01563 14.998 8.00785 14.9998 8 14.9998C7.82015 14.9998 7.65168 14.952 7.50586 14.8689C7.06604 14.6679 5.79025 14.0504 4.5918 13.116C3.40769 12.1927 2 10.7292 2 8.84058V4.62866C2.00014 3.75438 2.53917 2.97016 3.35547 2.65698L7.30566 1.14136C7.4678 1.07921 7.63588 1.03903 7.80566 1.01831C7.86849 1.00594 7.93354 0.999756 8 0.999756C8.01638 0.999756 8.03264 1.00093 8.04883 1.00171ZM9 12.3972C9.38759 12.1624 9.81823 11.8755 10.2324 11.5437C11.3094 10.6809 12.0039 9.74005 12.0039 8.84058V4.62183C12.0038 4.57601 11.9753 4.53413 11.9326 4.51733L9 3.36206V12.3972ZM4.07129 4.52417C4.02835 4.54077 4.00014 4.58263 4 4.62866V8.84058C4 9.7298 4.70793 10.6707 5.82129 11.5388C6.21589 11.8465 6.62524 12.1149 7 12.3396V3.40112L4.07129 4.52417Z"
    fill="currentColor"
  />
</svg>
