<svg width="12" height="13" viewBox="0 0 12 13" fill="none" xmlns="http://www.w3.org/2000/svg" data-fui-icon="true">
  <path
    fill-rule="evenodd"
    clip-rule="evenodd"
    d="M5.37402 0.116774C5.77703 -0.0375817 6.22297 -0.0375819 6.62598 0.116774L10.376 1.55427C11.0528 1.81367 11.5 2.46318 11.5 3.18806V6.75056C11.4997 8.41471 10.1999 9.67054 9.08984 10.4605C7.93113 11.285 6.70056 11.7993 6.36133 11.9342C6.12766 12.027 5.87234 12.027 5.63867 11.9342C5.29944 11.7993 4.06887 11.285 2.91016 10.4605C1.80006 9.67054 0.500291 8.41471 0.5 6.75056V3.18806C0.5 2.46318 0.94715 1.81367 1.62402 1.55427L5.37402 0.116774ZM6.75 10.107C7.18821 9.88736 7.71633 9.59678 8.2207 9.23787C9.28427 8.48091 9.99969 7.6191 10 6.75056V3.18806C10 3.08467 9.93628 2.99184 9.83984 2.95466L6.75 1.77009V10.107Z"
    fill="currentColor"
  />
</svg>
