<svg width="12" height="12" viewBox="0 0 12 12" fill="none" xmlns="http://www.w3.org/2000/svg" data-fui-icon="true">
  <path
    fill-rule="evenodd"
    clip-rule="evenodd"
    d="M5.32701 0.135793C5.75943 -0.0452061 6.24713 -0.0453222 6.67952 0.135793L10.029 1.53908C10.6792 1.81165 11.1032 2.44825 11.1032 3.15329V6.74305C11.1031 8.36554 9.94676 9.61342 8.92165 10.4168C7.86314 11.2462 6.73225 11.7684 6.39535 11.9158C6.14416 12.0256 5.86242 12.0254 5.61119 11.9158C5.27483 11.7687 4.14367 11.2463 3.08488 10.4168C2.05972 9.61342 0.902495 8.36565 0.902321 6.74305V3.15329C0.902364 2.44807 1.32702 1.81154 1.97749 1.53908L5.32701 0.135793ZM6.75178 10.0535C7.13221 9.83963 7.57488 9.56683 7.99687 9.23615C8.94364 8.49415 9.60309 7.63537 9.60327 6.74305V3.15329C9.60323 3.05285 9.54244 2.96191 9.44995 2.92283L6.75178 1.792V10.0535ZM2.55658 2.92283C2.46373 2.96176 2.4033 3.05262 2.40326 3.15329V6.74305C2.40344 7.63547 3.06272 8.49409 4.00966 9.23615C4.43085 9.56616 4.87202 9.83878 5.25182 10.0525V1.79298L2.55658 2.92283Z"
    fill="currentColor"
  />
</svg>
