<svg width="24" height="24" viewBox="0 0 24 24" fill="none" xmlns="http://www.w3.org/2000/svg" data-fui-icon="true">
  <path
    fill-rule="evenodd"
    clip-rule="evenodd"
    d="M11.1035 0.323324C11.741 0.0806317 12.4461 0.0835061 13.082 0.33016L20.7402 3.30086C21.8009 3.71255 22.4999 4.73336 22.5 5.87118V13.21C22.4997 16.3388 20.2119 18.8758 17.9766 20.628C15.7041 22.4093 13.271 23.5487 12.5811 23.8556C12.2678 23.9948 11.9221 23.9957 11.6074 23.8585C10.91 23.5543 8.43061 22.4165 6.11426 20.6358C3.83817 18.886 1.50029 16.3472 1.5 13.21V5.88094C1.5 4.73664 2.20699 3.71102 3.27637 3.30379L11.1035 0.323324ZM15.9053 7.71981C15.6124 7.42694 15.1376 7.42692 14.8447 7.71981L12 10.5645L9.15527 7.71981C8.86238 7.42694 8.38761 7.42692 8.09473 7.71981C7.80194 8.0127 7.80189 8.48749 8.09473 8.78035L10.9395 11.6251L8.09473 14.4698C7.80194 14.7627 7.80189 15.2375 8.09473 15.5304C8.38759 15.8232 8.86237 15.8232 9.15527 15.5304L12 12.6856L14.8447 15.5304C15.1376 15.8232 15.6124 15.8232 15.9053 15.5304C16.1982 15.2375 16.1982 14.7627 15.9053 14.4698L13.0605 11.6251L15.9053 8.78035C16.1982 8.48746 16.1982 8.0127 15.9053 7.71981Z"
    fill="currentColor"
  />
</svg>
