<svg width="20" height="20" viewBox="0 0 20 20" fill="none" xmlns="http://www.w3.org/2000/svg" data-fui-icon="true">
  <path
    fill-rule="evenodd"
    clip-rule="evenodd"
    d="M9.28125 1.13988C9.79123 0.951774 10.3525 0.953372 10.8613 1.14476L16.5381 3.28051C17.4197 3.61236 18.0039 4.45667 18.0039 5.39867V10.8625C18.0035 13.2955 16.2349 15.2231 14.5605 16.5207C12.8499 17.8465 11.0214 18.6836 10.5039 18.9084C10.226 19.0291 9.91888 19.0301 9.63965 18.9114C9.11719 18.6887 7.25549 17.8524 5.5127 16.5276C3.80905 15.2324 2.0004 13.3036 2 10.8625V5.40551C1.99998 4.45829 2.58995 3.61058 3.47852 3.28246L9.28125 1.13988ZM10.333 2.54906C10.1617 2.48462 9.97252 2.48388 9.80078 2.54711L3.99805 4.68969C3.69869 4.80028 3.49999 5.08636 3.5 5.40551V10.8625C3.50041 12.5512 4.78285 14.0886 6.41992 15.3332C7.87108 16.4364 9.43251 17.1782 10.0654 17.4582C10.6885 17.1772 12.2196 16.4372 13.6416 15.3352C15.2437 14.0935 16.5035 12.5561 16.5039 10.8625V5.39867C16.5039 5.08136 16.3066 4.79671 16.0098 4.6848L10.333 2.54906ZM12.2822 6.21996C12.5751 5.92707 13.0499 5.92707 13.3428 6.21996C13.6357 6.51285 13.6357 6.98761 13.3428 7.28051L11.0605 9.56273L13.3428 11.845C13.6357 12.1379 13.6357 12.6126 13.3428 12.9055C13.0499 13.1984 12.5751 13.1984 12.2822 12.9055L10 10.6233L7.71777 12.9055C7.42488 13.1984 6.95012 13.1984 6.65723 12.9055C6.36433 12.6126 6.36433 12.1379 6.65723 11.845L8.93945 9.56273L6.65723 7.28051C6.36433 6.98761 6.36433 6.51285 6.65723 6.21996C6.95012 5.92707 7.42488 5.92707 7.71777 6.21996L10 8.50219L12.2822 6.21996Z"
    fill="currentColor"
  />
</svg>
