<svg width="32" height="32" viewBox="0 0 32 32" fill="none" xmlns="http://www.w3.org/2000/svg" data-fui-icon="true">
  <path
    fill-rule="evenodd"
    clip-rule="evenodd"
    d="M14.9365 1.3997C15.697 1.10766 16.5393 1.11062 17.2979 1.40751L26.9248 5.17606C28.1763 5.66622 28.9999 6.87305 29 8.21708V17.5227C28.9999 21.3459 26.1973 24.5044 23.4023 26.7249C20.57 28.9749 17.5325 30.4316 16.6641 30.8274C16.3136 30.9871 15.9255 30.9887 15.5732 30.8313C14.6955 30.4391 11.6001 28.9835 8.71191 26.7337C5.86434 24.5155 3.00012 21.3552 3 17.5227V8.2288C3.00017 6.87705 3.83288 5.66474 5.09473 5.17997L14.9365 1.3997ZM16.751 2.80399C16.3409 2.64361 15.8857 2.64231 15.4746 2.80009L5.63281 6.58036C4.95049 6.84246 4.50017 7.49789 4.5 8.2288V17.5227C4.50012 20.609 6.84501 23.3786 9.63379 25.5511C12.3066 27.633 15.1884 29.0108 16.1123 29.428C17.0226 29.0089 19.8498 27.6315 22.4697 25.5501C25.2001 23.3809 27.4999 20.6127 27.5 17.5227V8.21708C27.4999 7.49038 27.0546 6.8376 26.3779 6.57255L16.751 2.80399ZM15.9229 3.96708C16.0429 3.92112 16.1762 3.92118 16.2959 3.96805L16.75 4.14579V27.721C16.5107 27.8446 16.2953 27.9544 16.1074 28.0462C14.9127 27.4742 12.5774 26.2598 10.4014 24.5647C7.6617 22.4305 5.75023 19.9871 5.75 17.5227V8.2288C5.75025 8.01544 5.88189 7.82394 6.08105 7.74735L15.9229 3.96708Z"
    fill="currentColor"
  />
</svg>
