<svg width="32" height="32" viewBox="0 0 32 32" fill="none" xmlns="http://www.w3.org/2000/svg" data-fui-icon="true">
  <path
    d="M14.9365 1.39941C15.697 1.10738 16.5393 1.11034 17.2979 1.40723L26.9248 5.17578C28.1763 5.66594 28.9999 6.87277 29 8.2168V17.5225C28.9999 21.3456 26.1973 24.5042 23.4023 26.7246C20.57 28.9746 17.5325 30.4314 16.6641 30.8271C16.3136 30.9868 15.9255 30.9884 15.5732 30.8311C14.6955 30.4388 11.6001 28.9832 8.71191 26.7334C5.86434 24.5152 3.00012 21.3549 3 17.5225V8.22852C3.00017 6.87677 3.83288 5.66446 5.09473 5.17969L14.9365 1.39941ZM16.751 2.80371C16.3409 2.64333 15.8857 2.64203 15.4746 2.7998L5.63281 6.58008C4.95049 6.84218 4.50017 7.49761 4.5 8.22852V17.5225C4.50012 20.6087 6.84501 23.3784 9.63379 25.5508C12.3066 27.6327 15.1884 29.0106 16.1123 29.4277C17.0226 29.0086 19.8498 27.6312 22.4697 25.5498C25.2001 23.3807 27.4999 20.6124 27.5 17.5225V8.2168C27.4999 7.4901 27.0546 6.83732 26.3779 6.57227L16.751 2.80371ZM15.9229 3.9668C16.0429 3.92084 16.1762 3.9209 16.2959 3.96777L16.75 4.14551V27.7207C16.5107 27.8444 16.2953 27.9541 16.1074 28.0459C14.9127 27.4739 12.5774 26.2595 10.4014 24.5645C7.6617 22.4303 5.75023 19.9868 5.75 17.5225V8.22852C5.75025 8.01516 5.88189 7.82366 6.08105 7.74707L15.9229 3.9668Z"
    fill="currentColor"
  />
</svg>
