<svg width="24" height="24" viewBox="0 0 24 24" fill="none" xmlns="http://www.w3.org/2000/svg" data-fui-icon="true">
  <path
    d="M11.1035 0.323242C11.741 0.0805583 12.4461 0.0834499 13.082 0.330078L20.7402 3.30078C21.8009 3.71246 22.4999 4.73331 22.5 5.87109V13.21C22.4998 16.3388 20.2119 18.8757 17.9766 20.6279C15.704 22.4093 13.271 23.5487 12.5811 23.8555C12.2678 23.9947 11.9222 23.9956 11.6074 23.8584C10.9099 23.5542 8.43053 22.4164 6.11426 20.6357C3.83817 18.8859 1.50023 16.3472 1.5 13.21V5.88086C1.50003 4.73656 2.20698 3.71091 3.27637 3.30371L11.1035 0.323242ZM12.54 1.72852C12.2501 1.61609 11.9283 1.61496 11.6377 1.72559L3.80957 4.70508C3.32213 4.89086 3.00003 5.35918 3 5.88086V13.21C3.00023 15.5972 4.81518 17.7441 7.0293 19.4463C9.0878 21.0288 11.3039 22.0811 12.0889 22.4307C12.8632 22.079 15.0348 21.0275 17.0508 19.4473C19.2182 17.7482 20.9998 15.6016 21 13.21V5.87109C20.9999 5.35224 20.681 4.88689 20.1973 4.69922L12.54 1.72852ZM14.8447 7.71973C15.1376 7.42688 15.6124 7.42696 15.9053 7.71973C16.1982 8.01262 16.1982 8.48738 15.9053 8.78027L13.0605 11.625L15.9053 14.4697C16.1982 14.7626 16.1982 15.2374 15.9053 15.5303C15.6124 15.8232 15.1376 15.8232 14.8447 15.5303L12 12.6855L9.15527 15.5303C8.86238 15.8232 8.38762 15.8232 8.09473 15.5303C7.80196 15.2374 7.80188 14.7626 8.09473 14.4697L10.9395 11.625L8.09473 8.78027C7.80196 8.48737 7.80188 8.01258 8.09473 7.71973C8.38758 7.42688 8.86237 7.42696 9.15527 7.71973L12 10.5645L14.8447 7.71973Z"
    fill="currentColor"
  />
</svg>
