<svg width="24" height="24" viewBox="0 0 24 24" fill="none" xmlns="http://www.w3.org/2000/svg" data-fui-icon="true">
  <path
    d="M12.0381 1.00098C12.4289 0.996555 12.8203 1.0674 13.1895 1.21484L19.6094 3.77832C20.7518 4.23465 21.5008 5.34115 21.501 6.57129V13.0322C21.5009 15.9636 19.4406 18.309 17.4883 19.8965C15.4934 21.5185 13.3496 22.5629 12.6914 22.8662C12.481 22.9632 12.2547 23.0056 12.0293 22.998C12.0196 22.9983 12.0098 23 12 23C11.8751 23 11.7558 22.9764 11.6455 22.9346C11.5881 22.9167 11.5312 22.8962 11.4756 22.8711C10.8105 22.5705 8.6276 21.5271 6.59473 19.9062C4.60772 18.3219 2.50005 15.9744 2.5 13.0322V6.58105C2.50001 5.34368 3.25811 4.2328 4.41016 3.78125L10.9756 1.20703C11.265 1.09358 11.5679 1.02804 11.873 1.00781C11.9146 1.00255 11.957 1 12 1C12.0128 1 12.0254 1.0005 12.0381 1.00098ZM13 20.4668C13.8842 19.99 15.089 19.2696 16.2266 18.3447C18.0744 16.8421 19.5009 15.0132 19.501 13.0322V6.57129C19.5008 6.15929 19.2498 5.78856 18.8672 5.63574L13 3.29297V20.4668ZM5.13965 5.64355C4.75391 5.79489 4.50001 6.16667 4.5 6.58105V13.0322C4.50005 15.0069 5.95145 16.8362 7.84082 18.3428C8.94596 19.224 10.113 19.9194 11 20.3955V3.3457L5.13965 5.64355Z"
    fill="currentColor"
  />
</svg>
