<svg width="24" height="24" viewBox="0 0 24 24" fill="none" xmlns="http://www.w3.org/2000/svg" data-fui-icon="true">
  <path
    d="M11.1035 0.322998C11.741 0.0803138 12.4461 0.0832047 13.082 0.329834L20.7402 3.30054C21.8009 3.7122 22.4998 4.73312 22.5 5.87085V13.2097C22.4998 16.3385 20.2119 18.8754 17.9766 20.6277C15.704 22.409 13.271 23.5484 12.5811 23.8552C12.2678 23.9945 11.9222 23.9954 11.6074 23.8582C10.9099 23.5539 8.43053 22.4162 6.11426 20.6355C3.83818 18.8856 1.50023 16.3469 1.5 13.2097V5.88062C1.50009 4.73634 2.20697 3.71063 3.27637 3.30347L11.1035 0.322998ZM12.54 1.72827C12.2501 1.61584 11.9283 1.61472 11.6377 1.72534L3.80957 4.70483C3.32211 4.89057 3.00009 5.35896 3 5.88062V13.2097C3.00023 15.597 4.81519 17.7439 7.0293 19.446C9.08779 21.0285 11.3039 22.0808 12.0889 22.4304C12.8632 22.0787 15.0348 21.0273 17.0508 19.447C19.2182 17.748 20.9998 15.6014 21 13.2097V5.87085C20.9998 5.35205 20.681 4.88663 20.1973 4.69897L12.54 1.72827ZM12.75 3.15015V20.7117C12.5025 20.8414 12.2784 20.9557 12.084 21.0505C11.1132 20.5868 9.39483 19.6887 7.79102 18.4558C5.62877 16.7935 4.25033 14.9719 4.25 13.2097V5.87866L4.25098 5.87573L4.25293 5.87378H4.25488L12.082 2.89331C12.0837 2.89273 12.0862 2.89273 12.0879 2.89331L12.75 3.15015Z"
    fill="currentColor"
  />
</svg>
