<svg width="20" height="20" viewBox="0 0 20 20" fill="none" xmlns="http://www.w3.org/2000/svg" data-fui-icon="true">
  <path
    fill-rule="evenodd"
    clip-rule="evenodd"
    d="M9.28125 1.13988C9.79123 0.951774 10.3525 0.953372 10.8613 1.14476L16.5381 3.28051C17.4197 3.61236 18.0039 4.45667 18.0039 5.39867V10.8625C18.0035 13.2955 16.2349 15.2231 14.5605 16.5207C12.8499 17.8465 11.0214 18.6836 10.5039 18.9084C10.226 19.0291 9.91888 19.0301 9.63965 18.9114C9.11719 18.6887 7.25549 17.8524 5.5127 16.5276C3.80905 15.2324 2.0004 13.3036 2 10.8625V5.40551C1.99998 4.45829 2.58995 3.61058 3.47852 3.28246L9.28125 1.13988ZM10.333 2.54906C10.1617 2.48462 9.97252 2.48388 9.80078 2.54711L3.99805 4.68969C3.69869 4.80028 3.49999 5.08636 3.5 5.40551V10.8625C3.50041 12.5512 4.78285 14.0886 6.41992 15.3332C7.87108 16.4364 9.43251 17.1782 10.0654 17.4582C10.6885 17.1772 12.2196 16.4372 13.6416 15.3352C15.2437 14.0935 16.5035 12.5561 16.5039 10.8625V5.39867C16.5039 5.08136 16.3066 4.79671 16.0098 4.6848L10.333 2.54906ZM10.0049 4.75023C10.4191 4.75023 10.7549 5.08602 10.7549 5.50023V5.81762C12.2784 6.05258 12.9966 6.99208 13.1602 7.69164C13.254 8.09471 13.0035 8.49769 12.6006 8.59203C12.1975 8.68584 11.7934 8.43554 11.6992 8.03246C11.6868 7.9811 11.5179 7.53244 10.7549 7.34496V9.12523C11.1795 9.20861 11.6284 9.32041 12.0088 9.51097C12.3133 9.66365 12.616 9.88355 12.8398 10.2092C13.0686 10.5423 13.1796 10.9357 13.1797 11.3713C13.1796 12.4639 12.2373 13.4326 10.7549 13.6789V14.0041C10.7546 14.4181 10.4189 14.7541 10.0049 14.7541C9.59126 14.7536 9.25516 14.4178 9.25488 14.0041V13.6819C8.61792 13.5791 8.11827 13.3486 7.73633 13.0491C7.22464 12.6474 6.97644 12.1669 6.86426 11.8537C6.72521 11.4642 6.92801 11.0345 7.31738 10.8948C7.70703 10.7552 8.13638 10.9585 8.27637 11.3479C8.31946 11.4682 8.42701 11.6837 8.66211 11.8684C8.79236 11.9706 8.98188 12.0772 9.25488 12.1506V10.3782C8.83117 10.2945 8.38337 10.1817 8.00391 9.99144C7.69943 9.83868 7.39657 9.61897 7.17285 9.2932C6.94445 8.96029 6.83307 8.56734 6.83301 8.13207C6.83322 7.04026 7.7754 6.07193 9.25488 5.82445V5.50023C9.25488 5.08633 9.59109 4.75073 10.0049 4.75023ZM10.7549 12.1545C11.518 11.9576 11.6796 11.4805 11.6797 11.3713C11.6796 11.2002 11.6397 11.1116 11.6035 11.0588C11.5623 10.9991 11.4851 10.9266 11.3359 10.8518C11.1768 10.7722 10.9833 10.7106 10.7549 10.6565V12.1545ZM9.25488 7.34984C8.49557 7.54743 8.33336 8.02297 8.33301 8.13207C8.33306 8.30293 8.37304 8.39174 8.40918 8.44457C8.45025 8.50432 8.52768 8.5758 8.67676 8.65062C8.83509 8.72995 9.02794 8.79075 9.25488 8.84496V7.34984Z"
    fill="currentColor"
  />
</svg>
