<svg width="20" height="20" viewBox="0 0 20 20" fill="none" xmlns="http://www.w3.org/2000/svg" data-fui-icon="true">
  <path
    d="M9.25 0.250732C9.78536 0.0574953 10.372 0.0592096 10.9062 0.255615L17.416 2.65112C18.3673 3.0011 18.9998 3.90702 19 4.92065V10.9998L18.9941 11.2498C18.875 13.8111 16.9442 15.8499 15.1025 17.2429C13.1616 18.7109 11.0895 19.6367 10.5166 19.8796C10.234 19.9995 9.92522 20.0005 9.6416 19.8826C9.06298 19.6418 6.95319 18.7179 4.97559 17.2507C3.04083 15.8152 1 13.687 1 10.9998V4.92847C1.00013 3.90945 1.6392 2.99918 2.59766 2.65308L9.25 0.250732ZM10.3887 1.66382C10.1857 1.5892 9.96218 1.58844 9.75879 1.66187L3.10645 4.06421C2.74263 4.19577 2.50014 4.5416 2.5 4.92847V10.9998C2.5 12.9182 3.99282 14.6535 5.86914 16.0457C7.56379 17.303 9.38466 18.1379 10.0732 18.4333C10.7516 18.1367 12.5368 17.3024 14.1973 16.0466C16.0338 14.6575 17.5 12.923 17.5 10.9998V4.92065C17.4998 4.53573 17.2597 4.19126 16.8984 4.05835L10.3887 1.66382Z"
    fill="currentColor"
  />
</svg>
