<svg width="32" height="32" viewBox="0 0 32 32" fill="none" xmlns="http://www.w3.org/2000/svg" data-fui-icon="true">
  <path
    fill-rule="evenodd"
    clip-rule="evenodd"
    d="M14.9365 1.39985C15.697 1.10781 16.5393 1.11078 17.2979 1.40766L26.9248 5.17622C28.1763 5.66637 28.9999 6.8732 29 8.21723V17.5229C28.9999 21.3461 26.1973 24.5046 23.4023 26.725C20.57 28.9751 17.5325 30.4318 16.6641 30.8276C16.3136 30.9873 15.9255 30.9888 15.5732 30.8315C14.6955 30.4393 11.6001 28.9836 8.71191 26.7338C5.86435 24.5156 3.00013 21.3553 3 17.5229V8.22895C3.00017 6.8772 3.83288 5.6649 5.09473 5.18012L14.9365 1.39985ZM16.75 29.1215C17.9999 28.5062 20.3059 27.2692 22.4697 25.5502C25.2001 23.3811 27.4999 20.6129 27.5 17.5229V8.21723C27.4999 7.49053 27.0546 6.83775 26.3779 6.5727L16.75 2.80317V29.1215ZM5.63281 6.58051C4.95049 6.84262 4.50017 7.49805 4.5 8.22895V17.5229C4.50013 20.6091 6.84501 23.3788 9.63379 25.5512C11.7228 27.1784 13.9403 28.3736 15.25 29.018V2.88618L5.63281 6.58051Z"
    fill="currentColor"
  />
</svg>
