<svg width="16" height="17" viewBox="0 0 16 17" fill="none" xmlns="http://www.w3.org/2000/svg" data-fui-icon="true">
  <path
    fill-rule="evenodd"
    clip-rule="evenodd"
    d="M7.35254 0.129126C7.82469 -0.0455085 8.34481 -0.0427894 8.81543 0.135962L13.6572 1.97581C14.4655 2.2831 14.9999 3.05837 15 3.92307V9.00315C15 11.061 13.4381 12.71 12.0107 13.8098C10.539 14.9437 8.96494 15.6809 8.50977 15.884C8.23752 16.0055 7.93354 16.0081 7.65918 15.8889C7.1973 15.6883 5.58367 14.9514 4.07324 13.8186C2.6116 12.7223 1 11.0718 1 9.00315V3.93088C1.0002 3.05974 1.54248 2.28037 2.35938 1.97776L7.35254 0.129126ZM8.28223 1.53831C8.15056 1.48833 8.00514 1.4875 7.87305 1.53635L2.88086 3.38401C2.65228 3.46863 2.5002 3.68717 2.5 3.93088V9.00315C2.5 10.296 3.55134 11.5523 4.97266 12.6184C6.19091 13.532 7.50329 14.1697 8.07715 14.4299C8.63919 14.168 9.91274 13.5319 11.0947 12.6213C12.473 11.5594 13.5 10.3034 13.5 9.00315V3.92307C13.4999 3.68114 13.3502 3.46412 13.124 3.37815L8.28223 1.53831ZM8.75 3.05198V12.6711C8.50131 12.8133 8.27137 12.9395 8.06934 13.0432C7.45081 12.7348 6.55773 12.2447 5.72266 11.6184C4.33482 10.5774 3.75 9.6497 3.75 9.00315V4.39475L8.07129 2.79514L8.75 3.05198Z"
    fill="currentColor"
  />
</svg>
