<svg width="32" height="32" viewBox="0 0 32 32" fill="none" xmlns="http://www.w3.org/2000/svg" data-fui-icon="true">
  <path
    d="M14.9365 1.39941C15.697 1.10737 16.5393 1.11034 17.2979 1.40723L26.9248 5.17578C28.1763 5.66593 28.9999 6.87276 29 8.2168V17.5225C28.9999 21.3456 26.1973 24.5042 23.4023 26.7246C20.57 28.9746 17.5325 30.4314 16.6641 30.8271C16.3136 30.9868 15.9255 30.9884 15.5732 30.8311C14.6955 30.4388 11.6001 28.9832 8.71191 26.7334C5.86435 24.5152 3.00013 21.3549 3 17.5225V8.22852C3.00017 6.87677 3.83288 5.66446 5.09473 5.17969L14.9365 1.39941ZM16.75 29.1211C17.9999 28.5057 20.3059 27.2688 22.4697 25.5498C25.2001 23.3807 27.4999 20.6124 27.5 17.5225V8.2168C27.4999 7.4901 27.0546 6.83732 26.3779 6.57227L16.75 2.80273V29.1211Z"
    fill="currentColor"
  />
</svg>
