<svg width="16" height="16" viewBox="0 0 16 16" fill="none" xmlns="http://www.w3.org/2000/svg" data-fui-icon="true">
  <path
    fill-rule="evenodd"
    clip-rule="evenodd"
    d="M7.38672 1.12769C7.82769 0.959814 8.31536 0.961941 8.75488 1.13355L12.791 2.7107C13.5204 2.9957 14.001 3.6991 14.001 4.48218V8.87965C14.0006 10.6946 12.6648 12.1413 11.4609 13.0974C10.2172 14.0851 8.88626 14.7293 8.49121 14.9109C8.22437 15.0335 7.92166 15.0363 7.65234 14.9158C7.25157 14.7364 5.88747 14.0937 4.61133 13.1072C3.379 12.1545 2.00038 10.7053 2 8.87965V4.48902C2.00011 3.7002 2.48754 2.99358 3.22461 2.71265L7.38672 1.12769ZM8.20898 2.53101C8.11633 2.4949 8.01386 2.49472 7.9209 2.53004L3.75879 4.11402C3.60326 4.17333 3.50011 4.32257 3.5 4.48902V8.87965C3.5004 9.95007 4.34639 11.007 5.52832 11.9207C6.50526 12.6759 7.55812 13.212 8.06348 13.4509C8.55748 13.211 9.58035 12.6764 10.5283 11.9236C11.6736 11.014 12.5006 9.95734 12.501 8.87965V4.48218C12.501 4.31683 12.3991 4.16834 12.2451 4.10816L8.20898 2.53101ZM9.72656 5.71265C10.0233 5.42413 10.4982 5.43007 10.7871 5.72633C11.0758 6.02301 11.0697 6.49796 10.7734 6.78687L7.60547 9.86988C7.31146 10.1559 6.84182 10.1521 6.55176 9.86207L5.21875 8.52906C4.92621 8.23614 4.92598 7.76129 5.21875 7.46851C5.51155 7.1761 5.98649 7.1761 6.2793 7.46851L7.08887 8.27808L9.72656 5.71265Z"
    fill="currentColor"
  />
</svg>
