<svg width="20" height="20" viewBox="0 0 20 20" fill="none" xmlns="http://www.w3.org/2000/svg" data-fui-icon="true">
  <path
    fill-rule="evenodd"
    clip-rule="evenodd"
    d="M10.043 1.00253C10.3451 1.00049 10.6474 1.05322 10.9346 1.16171L16.4033 3.22812C17.3647 3.59144 18.0008 4.51192 18.001 5.53964V10.8375C18.0008 13.3281 16.2049 15.2672 14.5752 16.5367C12.8981 17.8431 11.109 18.6654 10.5986 18.8883C10.4159 18.9681 10.2224 19.0038 10.0293 18.9986C10.0196 18.9989 10.0098 19.0006 10 19.0006C9.85096 19.0006 9.71008 18.9663 9.58301 18.9078C9.56859 18.9022 9.55336 18.8983 9.53906 18.8922C9.02368 18.6714 7.20316 17.8497 5.49512 16.5445C3.83823 15.2784 2.00018 13.3383 2 10.8375V5.54648C2.00011 4.51316 2.64348 3.5885 3.6123 3.2291L9.20117 1.15585C9.41508 1.0765 9.63732 1.02838 9.86133 1.01035C9.90668 1.00405 9.95291 1.00058 10 1.00058C10.0144 1.00058 10.0287 1.00193 10.043 1.00253ZM11 16.4635C11.6787 16.1006 12.532 15.5924 13.3457 14.9586C14.8771 13.7657 16.0008 12.3468 16.001 10.8375V5.53964C16.0008 5.34374 15.8796 5.16848 15.6963 5.09921L11 3.32382V16.4635ZM4.30762 5.10507C4.12291 5.17363 4.00011 5.34947 4 5.54648V10.8375C4.00019 12.3397 5.1429 13.7589 6.70898 14.9557C7.49917 15.5595 8.32566 16.0497 9 16.4088V3.36288L4.30762 5.10507Z"
    fill="currentColor"
  />
</svg>
