<svg width="32" height="32" viewBox="0 0 32 32" fill="none" xmlns="http://www.w3.org/2000/svg" data-fui-icon="true">
  <path
    fill-rule="evenodd"
    clip-rule="evenodd"
    d="M14.7109 1.27212C15.6089 0.907977 16.6143 0.91074 17.5098 1.28091L26.2188 4.88149C27.5995 5.4526 28.5009 6.79937 28.501 8.2936V17.444C28.5007 21.3389 25.8494 24.5139 23.2246 26.7252C20.5633 28.9673 17.6948 30.4169 16.8057 30.8415C16.3663 31.0512 15.8608 31.0544 15.418 30.8473C14.52 30.4268 11.5971 28.9793 8.88379 26.7379C6.21041 24.5294 3.50023 21.3506 3.5 17.444V8.3063C3.50011 6.803 4.41163 5.44955 5.80469 4.88442L14.7109 1.27212ZM21.207 10.2926C20.8166 9.90238 20.1834 9.90238 19.793 10.2926L16 14.0856L12.207 10.2926C11.8166 9.90238 11.1834 9.90238 10.793 10.2926C10.4025 10.6831 10.4027 11.3161 10.793 11.7067L14.5859 15.4997L10.793 19.2926C10.4025 19.6831 10.4027 20.3161 10.793 20.7067C11.1835 21.0972 11.8165 21.0972 12.207 20.7067L16 16.9137L19.793 20.7067C20.1835 21.0972 20.8165 21.0972 21.207 20.7067C21.5973 20.3161 21.5975 19.6831 21.207 19.2926L17.4141 15.4997L21.207 11.7067C21.5973 11.3161 21.5975 10.6831 21.207 10.2926Z"
    fill="currentColor"
  />
</svg>
