<svg width="24" height="24" viewBox="0 0 24 24" fill="none" xmlns="http://www.w3.org/2000/svg" data-fui-icon="true">
  <path
    fill-rule="evenodd"
    clip-rule="evenodd"
    d="M11.0762 1.18885C11.7261 0.93545 12.4484 0.937049 13.0967 1.19471L19.7656 3.8451C20.8151 4.26245 21.5047 5.27819 21.5049 6.4076V13.058C21.5048 15.9376 19.4626 18.2733 17.4639 19.8881C15.4325 21.5291 13.2472 22.5861 12.5879 22.8881C12.2687 23.0342 11.9083 23.0361 11.5869 22.892C10.9212 22.593 8.69502 21.5374 6.62402 19.8969C4.58853 18.2844 2.50007 15.9465 2.5 13.058V6.41737C2.50001 5.28118 3.19832 4.2609 4.25684 3.84803L11.0762 1.18885ZM12.0078 5.75037C11.5936 5.75037 11.2578 6.08616 11.2578 6.50037V6.94862C9.4163 7.21225 8.32229 8.43474 8.32227 9.69862C8.32234 10.2084 8.44567 10.6611 8.69727 11.0443C8.94557 11.4221 9.28645 11.6843 9.6416 11.8705C10.127 12.1247 10.7097 12.2701 11.2578 12.3773V15.0336C10.8064 14.941 10.5009 14.7725 10.2939 14.6029C9.97775 14.3435 9.82941 14.0357 9.7666 13.8529C9.63246 13.4613 9.20515 13.2524 8.81348 13.3861C8.42185 13.5204 8.21275 13.9466 8.34668 14.3383C8.47248 14.7052 8.75415 15.2791 9.34277 15.7621C9.80971 16.145 10.4369 16.4416 11.2578 16.5551V17.0033C11.2583 17.4171 11.5939 17.7533 12.0078 17.7533C12.4215 17.753 12.7573 17.4169 12.7578 17.0033V16.5541C14.6005 16.291 15.695 15.0678 15.6953 13.8041C15.6953 13.2944 15.5707 12.8416 15.3193 12.4584C15.0713 12.0806 14.7309 11.8185 14.376 11.6322C13.8904 11.3776 13.3065 11.2323 12.7578 11.1254V8.46326C13.8843 8.67878 14.1764 9.35658 14.2129 9.51991C14.3034 9.9238 14.7043 10.1785 15.1084 10.0883C15.5119 9.99768 15.7665 9.59651 15.6768 9.19276C15.4968 8.38732 14.6565 7.19526 12.7578 6.94373V6.50037C12.7578 6.08633 12.4218 5.75065 12.0078 5.75037ZM12.7578 12.6605C13.1229 12.7416 13.4318 12.8319 13.6787 12.9613C13.8733 13.0635 13.9927 13.1709 14.0654 13.2816C14.1347 13.3874 14.1953 13.545 14.1953 13.8041C14.195 14.1003 13.8753 14.8098 12.7578 15.0346V12.6605ZM11.2578 10.8422C10.8931 10.7611 10.5847 10.6715 10.3379 10.5424C10.1431 10.4402 10.0241 10.3317 9.95117 10.2211C9.88177 10.1154 9.82234 9.95799 9.82227 9.69862C9.8223 9.40331 10.1403 8.69254 11.2578 8.46717V10.8422Z"
    fill="currentColor"
  />
</svg>
