<svg width="24" height="24" viewBox="0 0 24 24" fill="none" xmlns="http://www.w3.org/2000/svg" data-fui-icon="true">
  <path
    fill-rule="evenodd"
    clip-rule="evenodd"
    d="M11.4893 1.0577C12.0556 0.945811 12.6465 0.998081 13.1895 1.21492L19.6094 3.7784C20.7518 4.23474 21.5008 5.34123 21.501 6.57137V13.0323C21.5009 15.9636 19.4406 18.3091 17.4883 19.8966C15.4934 21.5186 13.3496 22.563 12.6914 22.8663C12.4314 22.9861 12.1471 23.0245 11.8701 22.9845C11.8659 22.9839 11.8617 22.9831 11.8574 22.9825C11.8185 22.9765 11.7798 22.9692 11.7412 22.96C11.7288 22.9572 11.7165 22.9535 11.7041 22.9503C11.6267 22.9297 11.5499 22.9048 11.4756 22.8712C10.8105 22.5706 8.62762 21.5272 6.59473 19.9063C4.60773 18.322 2.50009 15.9744 2.5 13.0323V6.58113C2.5 5.34375 3.25811 4.23289 4.41016 3.78133L10.9756 1.20711C11.1165 1.15187 11.2612 1.11035 11.4072 1.07723C11.4347 1.07108 11.4617 1.06306 11.4893 1.0577ZM12 3.00301V20.9034C12.0265 20.916 12.0516 20.929 12.0762 20.9405C12.8494 20.5693 14.6054 19.663 16.2266 18.3448C18.0744 16.8422 19.5009 15.0133 19.501 13.0323V6.57137C19.5008 6.15937 19.2498 5.78865 18.8672 5.63582L12.4473 3.07235C12.3042 3.01519 12.1511 2.99209 12 3.00301Z"
    fill="currentColor"
  />
</svg>
