<svg width="32" height="32" viewBox="0 0 32 32" fill="none" xmlns="http://www.w3.org/2000/svg" data-fui-icon="true">
  <path
    fill-rule="evenodd"
    clip-rule="evenodd"
    d="M14.7959 1.25316C15.6412 0.911798 16.5876 0.914839 17.4307 1.26195L26.3428 4.93187C27.6492 5.46998 28.5017 6.74361 28.502 8.15648V17.468C28.502 21.3122 25.8704 24.4777 23.2031 26.7151C20.5085 28.9752 17.601 30.4381 16.7041 30.8645C16.3302 31.0422 15.902 31.0448 15.5254 30.8694C14.6198 30.4472 11.6565 28.9863 8.9082 26.7258C6.1904 24.4904 3.5 21.3219 3.5 17.468V8.17016C3.50015 6.74871 4.36373 5.46837 5.68164 4.93578L14.7959 1.25316ZM16.75 29.1643C17.9712 28.5363 20.1788 27.2939 22.2393 25.5657C24.8207 23.4002 27.002 20.6195 27.002 17.468V8.15648C27.0017 7.35141 26.5159 6.62524 25.7715 6.31859L16.8594 2.64965C16.8236 2.6349 16.7864 2.62316 16.75 2.61059V29.1643ZM6.24414 6.32738C5.49307 6.63087 5.00113 7.36011 5.00098 8.17016V17.468C5.00098 20.6165 7.22472 23.398 9.86133 25.5666C11.8521 27.2041 13.9755 28.4056 15.25 29.0608V2.68676L6.24414 6.32738Z"
    fill="currentColor"
  />
</svg>
