<svg width="16" height="16" viewBox="0 0 16 16" fill="none" xmlns="http://www.w3.org/2000/svg" data-fui-icon="true">
  <path
    fill-rule="evenodd"
    clip-rule="evenodd"
    d="M7.38672 1.12731C7.82766 0.959442 8.31539 0.961594 8.75488 1.13317L12.791 2.71031C13.5204 2.99532 14.001 3.69871 14.001 4.4818V8.87926C14.0007 10.6943 12.6648 12.1409 11.4609 13.097C10.2172 14.0848 8.88628 14.7289 8.49121 14.9105C8.22434 15.0332 7.9217 15.0359 7.65234 14.9154C7.25144 14.736 5.88739 14.0932 4.61133 13.1068C3.37895 12.1541 2.00023 10.705 2 8.87926V4.48864C2.00011 3.69978 2.48749 2.99317 3.22461 2.71227L7.38672 1.12731ZM8.20898 2.53063C8.11635 2.49455 8.01383 2.49435 7.9209 2.52965L3.75879 4.11364C3.6032 4.17292 3.50011 4.32215 3.5 4.48864V8.87926C3.50024 9.94977 4.34631 11.0065 5.52832 11.9203C6.50522 12.6755 7.55807 13.2116 8.06348 13.4505C8.5575 13.2106 9.58031 12.6761 10.5283 11.9232C11.6737 11.0136 12.5007 9.95706 12.501 8.87926V4.4818C12.501 4.31645 12.3991 4.16796 12.2451 4.10778L8.20898 2.53063ZM9.46973 5.2191C9.76256 4.92652 10.2374 4.92652 10.5303 5.2191C10.8231 5.51192 10.8229 5.98674 10.5303 6.27965L9.06055 7.74938L10.5303 9.2191C10.8231 9.51192 10.8229 9.98674 10.5303 10.2797C10.2374 10.5725 9.76262 10.5725 9.46973 10.2797L8 8.80992L6.53027 10.2797C6.23738 10.5725 5.76262 10.5725 5.46973 10.2797C5.17707 9.98674 5.17691 9.51192 5.46973 9.2191L6.93945 7.74938L5.46973 6.27965C5.17707 5.98674 5.17691 5.51192 5.46973 5.2191C5.76256 4.92652 6.23744 4.92652 6.53027 5.2191L8 6.68883L9.46973 5.2191Z"
    fill="currentColor"
  />
</svg>
