<svg width="20" height="20" viewBox="0 0 20 20" fill="none" xmlns="http://www.w3.org/2000/svg" data-fui-icon="true">
  <path
    fill-rule="evenodd"
    clip-rule="evenodd"
    d="M9.25 0.250771C9.78536 0.0575341 10.372 0.0592484 10.9062 0.255654L17.416 2.65116C18.3673 3.00113 18.9998 3.90706 19 4.92069V10.9998L18.9941 11.2498C18.875 13.8112 16.9442 15.8499 15.1025 17.243C13.1616 18.711 11.0895 19.6367 10.5166 19.8797C10.234 19.9995 9.92521 20.0006 9.6416 19.8826C9.06298 19.6419 6.95319 18.718 4.97559 17.2508C3.04083 15.8152 1 13.6871 1 10.9998V4.92851C1.00013 3.90949 1.6392 2.99922 2.59766 2.65312L9.25 0.250771ZM13.3428 6.21952C13.0499 5.92691 12.575 5.92683 12.2822 6.21952L10 8.50175L7.71777 6.21952C7.4249 5.92691 6.95005 5.92683 6.65723 6.21952C6.36441 6.51233 6.36458 6.98716 6.65723 7.28007L8.93945 9.56229L6.65723 11.8445C6.36441 12.1373 6.36458 12.6122 6.65723 12.9051C6.95012 13.198 7.42488 13.198 7.71777 12.9051L10 10.6228L12.2822 12.9051C12.5751 13.198 13.0499 13.198 13.3428 12.9051C13.6355 12.6122 13.6356 12.1374 13.3428 11.8445L11.0605 9.56229L13.3428 7.28007C13.6355 6.98717 13.6356 6.51237 13.3428 6.21952Z"
    fill="currentColor"
  />
</svg>
