<svg width="12" height="12" viewBox="0 0 12 12" fill="none" xmlns="http://www.w3.org/2000/svg" data-fui-icon="true">
  <path
    fill-rule="evenodd"
    clip-rule="evenodd"
    d="M5.32686 0.13576C5.75924 -0.0451759 6.247 -0.0453306 6.67933 0.13576L10.0288 1.53901C10.679 1.81152 11.1028 2.44818 11.1029 3.15318V6.74283C11.1028 8.36527 9.94648 9.61308 8.9214 10.4165C7.86307 11.2458 6.73224 11.768 6.39517 11.9154C6.14394 12.0253 5.86229 12.0251 5.61103 11.9154C5.27467 11.7683 4.14361 11.2461 3.0848 10.4165C2.05962 9.61309 0.902378 8.36548 0.902296 6.74283V3.15318C0.902416 2.44805 1.32704 1.81144 1.97743 1.53901L5.32686 0.13576ZM6.09928 1.51947C6.03773 1.49378 5.96751 1.49384 5.90593 1.51947L2.5565 2.92272C2.46372 2.96163 2.40331 3.05258 2.40319 3.15318V6.74283C2.40328 7.63529 3.06257 8.49377 4.00955 9.23586C4.76492 9.82775 5.57951 10.2447 6.00261 10.4438C6.42571 10.2447 7.24111 9.82792 7.99664 9.23586C8.94336 8.49386 9.60292 7.63514 9.603 6.74283V3.15318C9.60288 3.05276 9.54219 2.96174 9.44969 2.92272L6.09928 1.51947ZM6.00554 2.45009C6.41931 2.45044 6.75531 2.78624 6.7555 3.20005V3.25864C6.84184 3.28638 6.92833 3.31738 7.01134 3.35238C7.32929 3.48653 7.78884 3.74638 8.02301 4.21464C8.20803 4.5849 8.05712 5.03508 7.68709 5.22045C7.31669 5.40559 6.86655 5.25583 6.68128 4.88551C6.69085 4.90457 6.68885 4.88919 6.63929 4.85133C6.59109 4.81459 6.51932 4.77353 6.42837 4.73512C6.33881 4.69735 6.24417 4.66732 6.15983 4.64821C6.11854 4.63888 6.08206 4.63342 6.05339 4.62966C6.03938 4.62784 6.02681 4.6264 6.01823 4.62575C6.01448 4.62549 6.01072 4.62492 6.00847 4.62478C6.00736 4.62474 6.00605 4.62476 6.00554 4.62478C5.45768 4.62478 5.40206 4.95504 5.40206 4.92945C5.40206 4.94807 5.40378 4.96064 5.40498 4.96753C5.41217 4.97366 5.42599 4.98353 5.44893 4.99683C5.58653 5.07634 5.80118 5.13215 6.1774 5.2224C6.487 5.29666 6.95265 5.40357 7.32871 5.63937C7.53226 5.76705 7.7343 5.94603 7.88239 6.19794C8.03219 6.4529 8.102 6.74106 8.10211 7.04652C8.10211 7.84647 7.51908 8.37293 6.7555 8.57769V8.60015C6.75529 9.01394 6.4193 9.34976 6.00554 9.35011C5.59148 9.35011 5.25579 9.01416 5.25558 8.60015V8.55523C5.19819 8.53885 5.14009 8.52284 5.08371 8.50348C4.77531 8.39745 4.3956 8.21687 4.11013 7.91855C3.82391 7.6193 3.83446 7.14437 4.13357 6.85806C4.43291 6.57218 4.9079 6.58232 5.19406 6.88149C5.24608 6.9358 5.37272 7.0174 5.57099 7.08558C5.76441 7.15204 5.93565 7.17445 6.00554 7.17445C6.34553 7.17434 6.51354 7.09276 6.57484 7.0475C6.58736 7.03813 6.59414 7.02842 6.59926 7.02309C6.59799 6.99828 6.59659 6.98201 6.59437 6.97329C6.59171 6.96288 6.58989 6.95834 6.58949 6.95766C6.58871 6.95639 6.58544 6.95247 6.57875 6.94594C6.57089 6.93833 6.55636 6.92618 6.53188 6.91079C6.40211 6.82941 6.19196 6.76793 5.82684 6.68033C5.52847 6.60876 5.06736 6.50845 4.69897 6.29559C4.49825 6.1795 4.28963 6.01274 4.13454 5.76827C3.97596 5.51822 3.90214 5.23225 3.90214 4.92945C3.90252 4.21887 4.4175 3.51133 5.25558 3.24106V3.20005C5.25577 2.78602 5.59146 2.45009 6.00554 2.45009Z"
    fill="currentColor"
  />
</svg>
