<svg width="24" height="24" viewBox="0 0 24 24" fill="none" xmlns="http://www.w3.org/2000/svg" data-fui-icon="true">
  <path
    fill-rule="evenodd"
    clip-rule="evenodd"
    d="M10.9756 1.20705C11.6873 0.928085 12.4795 0.931332 13.1895 1.21486L19.6094 3.77834C20.7518 4.23466 21.5008 5.34117 21.501 6.57131V13.0322C21.5009 15.9636 19.4406 18.309 17.4883 19.8965C15.4934 21.5185 13.3496 22.5629 12.6914 22.8662C12.3051 23.0442 11.8648 23.047 11.4756 22.8711C10.8105 22.5705 8.6276 21.5272 6.59473 19.9063C4.60772 18.3219 2.50005 15.9744 2.5 13.0322V6.58107C2.50001 5.3437 3.25811 4.23282 4.41016 3.78127L10.9756 1.20705ZM12.001 15.75C10.2536 15.7501 8.63393 16.4961 7.90625 18.3936C9.54466 19.6866 11.3015 20.5758 12.0762 20.9404C12.831 20.5781 14.5211 19.7042 16.1094 18.4365C15.3898 16.5079 13.7612 15.7501 12.001 15.75ZM12.4473 3.07228C12.2095 2.97734 11.9444 2.976 11.7061 3.06936L5.13965 5.64357C4.75391 5.79491 4.50001 6.16669 4.5 6.58107V13.0322C4.50004 14.4429 5.24249 15.7779 6.35449 16.9756C7.55797 14.6611 9.8329 13.7501 12.001 13.75C14.1772 13.7501 16.4605 14.6682 17.6602 17.002C18.7612 15.7998 19.5009 14.4564 19.501 13.0322V6.57131C19.5008 6.15931 19.2498 5.78858 18.8672 5.63576L12.4473 3.07228ZM12.001 5.7549C14.0719 5.75506 15.7509 7.43397 15.751 9.5049C15.7508 11.5758 14.0718 13.2547 12.001 13.2549C9.93005 13.2548 8.25111 11.5758 8.25098 9.5049C8.25103 7.43392 9.93 5.75497 12.001 5.7549ZM12.001 7.7549C11.0346 7.75497 10.251 8.53849 10.251 9.5049C10.2511 10.4712 11.0346 11.2548 12.001 11.2549C12.9673 11.2547 13.7508 10.4712 13.751 9.5049C13.7509 8.53854 12.9673 7.75506 12.001 7.7549Z"
    fill="currentColor"
  />
</svg>
