<svg width="24" height="24" viewBox="0 0 24 24" fill="none" xmlns="http://www.w3.org/2000/svg" data-fui-icon="true">
  <path
    fill-rule="evenodd"
    clip-rule="evenodd"
    d="M10.9756 1.20705C11.6873 0.928085 12.4795 0.931331 13.1895 1.21486L19.6094 3.77834C20.7518 4.23466 21.5008 5.34116 21.501 6.57131V13.0322C21.5009 15.9636 19.4406 18.309 17.4883 19.8965C15.4934 21.5185 13.3496 22.5629 12.6914 22.8662C12.3051 23.0442 11.8648 23.047 11.4756 22.8711C10.8105 22.5705 8.6276 21.5272 6.59473 19.9063C4.60772 18.3219 2.50005 15.9744 2.5 13.0322V6.58107C2.50001 5.3437 3.25811 4.23282 4.41016 3.78127L10.9756 1.20705ZM16.3125 8.59279C15.9222 8.20246 15.289 8.20285 14.8984 8.59279L10.5869 12.9043L9.28613 11.6035C8.89581 11.2134 8.26257 11.2137 7.87207 11.6035C7.48155 11.9941 7.48155 12.628 7.87207 13.0186L9.87988 15.0254C10.2704 15.4157 10.9035 15.4159 11.2939 15.0254L16.3125 10.0069C16.7024 9.61635 16.7026 8.98314 16.3125 8.59279Z"
    fill="currentColor"
  />
</svg>
