<svg width="16" height="17" viewBox="0 0 16 17" fill="none" xmlns="http://www.w3.org/2000/svg" data-fui-icon="true">
  <path
    fill-rule="evenodd"
    clip-rule="evenodd"
    d="M7.35254 0.129146C7.82472 -0.0455019 8.34479 -0.0428097 8.81543 0.135982L13.6572 1.97583C14.4656 2.28315 15 3.05827 15 3.92309V9.00317C15 11.061 13.4381 12.71 12.0107 13.8098C10.539 14.9437 8.96493 15.681 8.50977 15.884C8.23755 16.0054 7.93351 16.0081 7.65918 15.8889C7.19745 15.6884 5.58379 14.9515 4.07324 13.8186C2.61156 12.7224 1.00001 11.0719 1 9.00317V3.9309C1.00008 3.05968 1.54245 2.28045 2.35938 1.97778L7.35254 0.129146ZM10.9443 5.4729C10.6515 5.1802 10.1766 5.18015 9.88379 5.4729L7.08203 8.27465L6.2793 7.47192C5.98649 7.17934 5.5116 7.1794 5.21875 7.47192C4.92593 7.76474 4.92607 8.23956 5.21875 8.53247L6.55176 9.86547C6.84466 10.1582 7.31946 10.1583 7.6123 9.86547L10.9443 6.53344C11.2371 6.24059 11.237 5.76577 10.9443 5.4729Z"
    fill="currentColor"
  />
</svg>
