<svg width="20" height="20" viewBox="0 0 20 20" fill="none" xmlns="http://www.w3.org/2000/svg" data-fui-icon="true">
  <path
    fill-rule="evenodd"
    clip-rule="evenodd"
    d="M9.40039 1.0913C9.90441 0.951662 10.442 0.975465 10.9346 1.16162L16.4033 3.22802C17.3647 3.59135 18.0008 4.51184 18.001 5.53955V10.8374C18.0008 13.328 16.2049 15.2671 14.5752 16.5366C12.8982 17.843 11.1091 18.6653 10.5986 18.8882C10.4066 18.972 10.2028 19.0065 10 18.9966H9.99805C9.96018 18.9947 9.92246 18.992 9.88477 18.9868C9.88216 18.9865 9.87955 18.9862 9.87695 18.9858C9.84394 18.9811 9.81106 18.9755 9.77832 18.9683C9.69731 18.9509 9.61713 18.9265 9.53906 18.8931C9.02385 18.6724 7.20315 17.8505 5.49512 16.5454C3.83838 15.2794 2.00057 13.3388 2 10.8384V5.54736C2 5.47522 2.00458 5.40344 2.01074 5.33252C2.03214 5.08578 2.08859 4.84716 2.17871 4.62353C2.22516 4.50835 2.27992 4.39694 2.34277 4.29052C2.49965 4.02478 2.70559 3.7888 2.95117 3.59716C3.04948 3.52047 3.15431 3.45086 3.26465 3.38916C3.37497 3.32746 3.4912 3.27393 3.6123 3.229L9.20117 1.15576C9.26687 1.13139 9.33332 1.10969 9.40039 1.0913ZM10 3.00634V16.9038C10.021 16.9135 10.0408 16.9241 10.0605 16.9331C10.71 16.632 12.0758 15.9477 13.3457 14.9585C14.877 13.7656 16.0008 12.3467 16.001 10.8374V5.53955C16.0008 5.34366 15.8796 5.16838 15.6963 5.09912L10.2275 3.03173C10.1546 3.00421 10.0764 2.99645 10 3.00634Z"
    fill="currentColor"
  />
</svg>
