<svg width="24" height="24" viewBox="0 0 24 24" fill="none" xmlns="http://www.w3.org/2000/svg" data-fui-icon="true">
  <path
    fill-rule="evenodd"
    clip-rule="evenodd"
    d="M11.0752 1.18872C11.7251 0.93534 12.4474 0.936923 13.0957 1.19458L19.7646 3.84497C20.8141 4.26229 21.5037 5.27805 21.5039 6.40747V13.0579C21.5039 15.9375 19.4616 18.2731 17.4629 19.8879C15.4315 21.5289 13.2463 22.5859 12.5869 22.8879C12.2677 23.0341 11.9073 23.036 11.5859 22.8918C10.9202 22.5928 8.69407 21.5373 6.62305 19.8967C4.58753 18.2842 2.5 15.9464 2.5 13.0579V6.41723C2.50003 5.28107 3.19736 4.26076 4.25586 3.8479L11.0752 1.18872ZM12.75 21.137C13.6809 20.6594 15.1446 19.8316 16.5195 18.7209C18.4418 17.168 20.0039 15.2205 20.0039 13.0579V6.40747C20.0037 5.8926 19.6884 5.42983 19.21 5.2395L12.75 2.67114V21.137ZM4.80078 5.24536C4.3181 5.43363 4.00003 5.89914 4 6.41723V13.0579C4 15.2165 5.5904 17.1649 7.55469 18.7209C8.88669 19.7761 10.2993 20.5754 11.25 21.0618V2.72973L4.80078 5.24536Z"
    fill="currentColor"
  />
</svg>
