<svg width="16" height="17" viewBox="0 0 16 17" fill="none" xmlns="http://www.w3.org/2000/svg" data-fui-icon="true">
  <path
    fill-rule="evenodd"
    clip-rule="evenodd"
    d="M7.35254 0.129146C7.82472 -0.0455018 8.34479 -0.0428097 8.81543 0.135982L13.6572 1.97583C14.4656 2.28315 15 3.05827 15 3.92309V9.00317C15 11.061 13.4381 12.71 12.0107 13.8098C10.539 14.9437 8.96493 15.681 8.50977 15.884C8.23754 16.0054 7.93351 16.0081 7.65918 15.8889C7.19746 15.6884 5.58379 14.9515 4.07324 13.8186C2.61156 12.7224 1.00001 11.0719 1 9.00317V3.9309C1.00008 3.05968 1.54245 2.28045 2.35938 1.97778L7.35254 0.129146ZM8.75 14.0969C9.39194 13.7627 10.266 13.2598 11.0947 12.6213C12.473 11.5594 13.5 10.3034 13.5 9.00317V3.92309C13.5 3.68104 13.3503 3.46418 13.124 3.37817L8.75 1.71606V14.0969Z"
    fill="currentColor"
  />
</svg>
