<svg width="32" height="32" viewBox="0 0 32 32" fill="none" xmlns="http://www.w3.org/2000/svg" data-fui-icon="true">
  <path
    fill-rule="evenodd"
    clip-rule="evenodd"
    d="M14.7949 1.25366C15.6403 0.912215 16.5866 0.91531 17.4297 1.26245L26.3418 4.93237C27.6482 5.47057 28.5009 6.74404 28.501 8.15698V17.4685C28.5009 21.3128 25.8694 24.4782 23.2021 26.7156C20.5073 28.9759 17.5998 30.4387 16.7031 30.865C16.3293 31.0427 15.9009 31.0452 15.5244 30.8699C14.6188 30.4477 11.6554 28.9866 8.90723 26.7263C6.18948 24.4909 3.5001 21.3224 3.5 17.4685V8.17065C3.5 6.74906 4.36264 5.46892 5.68066 4.93628L14.7949 1.25366ZM16.0078 7.50073C15.5937 7.50073 15.2579 7.83661 15.2578 8.25073V9.40015C12.7816 9.66733 11.3663 11.246 11.3662 12.8064C11.3663 13.438 11.5204 13.987 11.8252 14.447C12.1265 14.9014 12.5421 15.2211 12.9863 15.4519C13.6572 15.8002 14.4814 15.9866 15.2578 16.1296V20.0925C14.4599 19.9845 13.9305 19.7108 13.5781 19.4246C13.115 19.048 12.8974 18.6025 12.8047 18.3347C12.6693 17.9433 12.242 17.7356 11.8506 17.8708C11.4591 18.0062 11.2514 18.4335 11.3867 18.825C11.5437 19.2789 11.8963 19.9899 12.6328 20.5886C13.2527 21.0923 14.1065 21.4838 15.2578 21.6033V22.7507C15.2581 23.1647 15.5938 23.5007 16.0078 23.5007C16.4217 23.5005 16.7576 23.1646 16.7578 22.7507V21.6023C19.235 21.3357 20.649 19.7571 20.6494 18.197C20.6494 17.5654 20.4952 17.0165 20.1904 16.5564C19.8892 16.1019 19.4735 15.7833 19.0293 15.5525C18.3583 15.204 17.5344 15.0152 16.7578 14.8718V10.908C18.5838 11.1401 19.0952 12.1994 19.168 12.5222C19.2593 12.9258 19.6607 13.1795 20.0645 13.0886C20.4682 12.9975 20.7224 12.5959 20.6318 12.1921C20.4089 11.2033 19.324 9.65241 16.7578 9.39722V8.25073C16.7577 7.83673 16.4218 7.50092 16.0078 7.50073ZM16.7578 16.4011C17.3828 16.5252 17.9182 16.6655 18.3379 16.8835C18.6227 17.0316 18.8162 17.1972 18.9404 17.3845C19.0608 17.5665 19.1494 17.8188 19.1494 18.197C19.149 18.753 18.5605 19.8521 16.7578 20.0935V16.4011ZM15.2578 14.6013C14.633 14.4773 14.0974 14.3378 13.6777 14.1199C13.3929 13.9719 13.1995 13.8062 13.0752 13.6189C12.9546 13.437 12.8663 13.1848 12.8662 12.8064C12.8663 12.2513 13.455 11.151 15.2578 10.9089V14.6013Z"
    fill="currentColor"
  />
</svg>
