<svg width="12" height="13" viewBox="0 0 12 13" fill="none" xmlns="http://www.w3.org/2000/svg" data-fui-icon="true">
  <path
    fill-rule="evenodd"
    clip-rule="evenodd"
    d="M5.42285 0.0902199C5.7996 -0.0260766 6.20333 -0.0260948 6.58008 0.0902199L6.76562 0.157603L9.90527 1.4867C10.6305 1.79369 11.1014 2.50588 11.1016 3.29334V6.70936C11.1016 8.38708 9.92465 9.64809 8.94238 10.4271C7.91742 11.24 6.82564 11.7506 6.49512 11.8969C6.17951 12.0365 5.82243 12.0365 5.50684 11.8969C5.17538 11.7502 4.08469 11.2393 3.06055 10.4271C2.0783 9.64808 0.900391 8.38701 0.900391 6.70936V3.29334C0.900568 2.50598 1.37164 1.79375 2.09668 1.4867L5.23633 0.157603L5.42285 0.0902199ZM8.03125 3.78163C7.73852 3.48891 7.26363 3.48923 6.9707 3.78163L6.00098 4.75135L5.03125 3.78163C4.7385 3.48901 4.26359 3.48923 3.9707 3.78163C3.67791 4.07448 3.67795 4.54929 3.9707 4.84217L4.94043 5.8119L3.9707 6.78163C3.67794 7.07452 3.67787 7.54932 3.9707 7.84217C4.26356 8.13493 4.73837 8.13492 5.03125 7.84217L6.00098 6.87245L6.9707 7.84217C7.26359 8.13489 7.7384 8.13495 8.03125 7.84217C8.32363 7.54929 8.32384 7.07438 8.03125 6.78163L7.06152 5.8119L8.03125 4.84217C8.32364 4.54926 8.32392 4.07436 8.03125 3.78163Z"
    fill="currentColor"
  />
</svg>
