<svg width="16" height="16" viewBox="0 0 16 16" fill="none" xmlns="http://www.w3.org/2000/svg" data-fui-icon="true">
  <path
    fill-rule="evenodd"
    clip-rule="evenodd"
    d="M7.38672 1.12769C7.82769 0.959814 8.31536 0.961941 8.75488 1.13355L12.791 2.7107C13.5204 2.9957 14.001 3.6991 14.001 4.48218V8.87965C14.0006 10.6946 12.6648 12.1413 11.4609 13.0974C10.2172 14.0851 8.88626 14.7293 8.49121 14.9109C8.22437 15.0335 7.92166 15.0363 7.65234 14.9158C7.25157 14.7364 5.88747 14.0937 4.61133 13.1072C3.379 12.1545 2.00038 10.7053 2 8.87965V4.48902C2.00011 3.7002 2.48754 2.99358 3.22461 2.71265L7.38672 1.12769ZM10.7871 5.72633C10.4983 5.43009 10.0233 5.42415 9.72656 5.71265L7.08887 8.27808L6.2793 7.46851C5.9865 7.17612 5.51155 7.17612 5.21875 7.46851C4.92598 7.76128 4.92623 8.23614 5.21875 8.52906L6.55176 9.86207C6.84182 10.1521 7.31146 10.1559 7.60547 9.86988L10.7734 6.78687C11.0697 6.49796 11.0758 6.023 10.7871 5.72633Z"
    fill="currentColor"
  />
</svg>
