<svg width="24" height="24" viewBox="0 0 24 24" fill="none" xmlns="http://www.w3.org/2000/svg" data-fui-icon="true">
  <path
    fill-rule="evenodd"
    clip-rule="evenodd"
    d="M10.9756 1.20705C11.6873 0.928085 12.4795 0.931331 13.1895 1.21486L19.6094 3.77834C20.7518 4.23466 21.5008 5.34116 21.501 6.57131V13.0322C21.5009 15.9636 19.4406 18.309 17.4883 19.8965C15.4934 21.5185 13.3496 22.5629 12.6914 22.8662C12.3051 23.0442 11.8648 23.047 11.4756 22.8711C10.8105 22.5705 8.6276 21.5272 6.59473 19.9063C4.60772 18.3219 2.50005 15.9744 2.5 13.0322V6.58107C2.50001 5.3437 3.25811 4.23282 4.41016 3.78127L10.9756 1.20705ZM12.0059 5.50002C11.4537 5.50021 11.0059 5.94785 11.0059 6.50002V6.73635C9.19739 7.0771 8.07034 8.32957 8.07031 9.69826C8.07031 10.25 8.20426 10.7521 8.48633 11.1817C8.76387 11.6042 9.1415 11.8916 9.52344 12.0918C9.97649 12.3292 10.5051 12.476 11.0059 12.5821V14.71C10.7564 14.6247 10.5785 14.5136 10.4512 14.4092C10.18 14.1867 10.0531 13.9235 10.001 13.7715C9.82202 13.2491 9.25287 12.9706 8.73047 13.1494C8.20837 13.3285 7.92973 13.8967 8.1084 14.419C8.2446 14.8166 8.54832 15.4346 9.18262 15.9551C9.64503 16.3344 10.2458 16.6295 11.0059 16.7686V17.0029C11.0061 17.5549 11.4539 18.0028 12.0059 18.0029C12.558 18.0029 13.0056 17.555 13.0059 17.0029V16.7647C14.8162 16.4246 15.9434 15.1725 15.9434 13.8037C15.9433 13.252 15.8084 12.7499 15.5264 12.3203C15.2488 11.8979 14.8711 11.6104 14.4893 11.4102C14.0359 11.1726 13.5069 11.0251 13.0059 10.919V8.78029C13.7816 9.02376 13.9539 9.51671 13.9668 9.57424C14.0872 10.1131 14.6222 10.4522 15.1611 10.3321C15.6997 10.2115 16.039 9.67739 15.9189 9.13869C15.723 8.26089 14.8564 7.0542 13.0059 6.72951V6.50002C13.0059 5.94773 12.5581 5.50002 12.0059 5.50002ZM13.0059 12.9756C13.2215 13.0344 13.4057 13.1006 13.5605 13.1817C13.7289 13.2699 13.8109 13.3526 13.8545 13.419C13.8935 13.4785 13.9433 13.5862 13.9434 13.8037C13.9434 13.9345 13.7765 14.4591 13.0059 14.7149V12.9756ZM11.0059 10.5254C10.7906 10.4667 10.6068 10.4013 10.4521 10.3203C10.2841 10.2322 10.2018 10.1503 10.1582 10.084C10.1191 10.0245 10.0703 9.91613 10.0703 9.69826C10.0704 9.56809 10.2369 9.0443 11.0059 8.78811V10.5254Z"
    fill="currentColor"
  />
</svg>
