<svg width="12" height="12" viewBox="0 0 12 12" fill="none" xmlns="http://www.w3.org/2000/svg" data-fui-icon="true">
  <path
    fill-rule="evenodd"
    clip-rule="evenodd"
    d="M5.32715 0.135856C5.75958 -0.0451449 6.24729 -0.0452628 6.67969 0.135856L10.0293 1.53918C10.6795 1.81176 11.1035 2.44837 11.1035 3.15343V6.74328C11.1033 8.36582 9.94702 9.61372 8.92188 10.4171C7.86335 11.2466 6.73243 11.7688 6.39551 11.9161C6.14431 12.026 5.86257 12.0258 5.61133 11.9161C5.462 11.8508 5.15622 11.7103 4.76953 11.503C4.28517 11.2434 3.67356 10.8783 3.08496 10.4171C2.05979 9.61373 0.902542 8.36587 0.902344 6.74328V3.15343C0.902389 2.80068 1.00865 2.46511 1.19629 2.18371C1.2431 2.11339 1.29498 2.04649 1.35156 1.98351C1.40824 1.9205 1.46948 1.86126 1.53516 1.80675C1.66627 1.69787 1.81506 1.60723 1.97754 1.53918L5.32715 0.135856ZM6.00195 10.4435L6.00293 10.4444C6.42601 10.2454 7.24141 9.8286 7.99707 9.23644C8.94387 8.49442 9.60334 7.63563 9.60352 6.74328V3.15343C9.60347 3.05298 9.54268 2.96205 9.4502 2.92297L6.09961 1.51964C6.0686 1.5067 6.03503 1.50006 6.00195 1.50011V10.4435Z"
    fill="currentColor"
  />
</svg>
