<svg width="16" height="16" viewBox="0 0 16 16" fill="none" xmlns="http://www.w3.org/2000/svg" data-fui-icon="true">
  <path
    fill-rule="evenodd"
    clip-rule="evenodd"
    d="M7.38672 1.12769C7.82769 0.959814 8.31536 0.961941 8.75488 1.13355L12.791 2.7107C13.5204 2.9957 14.001 3.6991 14.001 4.48218V8.87965C14.0006 10.6946 12.6648 12.1413 11.4609 13.0974C10.2172 14.0851 8.88626 14.7293 8.49121 14.9109C8.22437 15.0335 7.92166 15.0363 7.65234 14.9158C7.25157 14.7364 5.88747 14.0937 4.61133 13.1072C3.379 12.1545 2.00038 10.7053 2 8.87965V4.48902C2.00011 3.7002 2.48754 2.99358 3.22461 2.71265L7.38672 1.12769ZM10.5303 5.21949C10.2374 4.92665 9.76261 4.92665 9.46973 5.21949L8 6.68922L6.53027 5.21949C6.23739 4.92665 5.76261 4.92665 5.46973 5.21949C5.17685 5.51237 5.17687 5.98714 5.46973 6.28004L6.93945 7.74976L5.46973 9.21949C5.17685 9.51237 5.17687 9.98714 5.46973 10.28C5.76262 10.5729 6.23738 10.5729 6.53027 10.28L8 8.81031L9.46973 10.28C9.76262 10.5729 10.2374 10.5729 10.5303 10.28C10.8231 9.98714 10.8232 9.51237 10.5303 9.21949L9.06055 7.74976L10.5303 6.28004C10.8231 5.98714 10.8232 5.51237 10.5303 5.21949Z"
    fill="currentColor"
  />
</svg>
