<svg width="16" height="16" viewBox="0 0 16 16" fill="none" xmlns="http://www.w3.org/2000/svg" data-fui-icon="true">
  <path
    fill-rule="evenodd"
    clip-rule="evenodd"
    d="M7.30566 1.14155C7.79828 0.952744 8.34403 0.955222 8.83496 1.14839L12.665 2.65718C13.4723 2.97505 14.0038 3.75446 14.0039 4.62202V8.84077C14.0039 10.7156 12.6417 12.1764 11.4834 13.1044C10.2737 14.0735 8.98191 14.7038 8.59375 14.8837C8.26222 15.0374 7.88378 15.0407 7.54883 14.8896C7.15564 14.7121 5.83248 14.0835 4.5918 13.1162C3.40769 12.1929 2 10.7294 2 8.84077V4.62886C2.00014 3.75457 2.53917 2.97035 3.35547 2.65718L7.30566 1.14155ZM10.707 5.04292C10.3165 4.6524 9.68349 4.6524 9.29297 5.04292L8 6.33589L6.70703 5.04292C6.31651 4.6524 5.68349 4.6524 5.29297 5.04292C4.90244 5.43345 4.90244 6.06646 5.29297 6.45698L6.58594 7.74995L5.29297 9.04292C4.90244 9.43345 4.90244 10.0665 5.29297 10.457C5.68349 10.8475 6.31651 10.8475 6.70703 10.457L8 9.16402L9.29297 10.457C9.68349 10.8475 10.3165 10.8475 10.707 10.457C11.0976 10.0665 11.0976 9.43345 10.707 9.04292L9.41406 7.74995L10.707 6.45698C11.0976 6.06646 11.0976 5.43345 10.707 5.04292Z"
    fill="currentColor"
  />
</svg>
