<svg width="32" height="32" viewBox="0 0 32 32" fill="none" xmlns="http://www.w3.org/2000/svg" data-fui-icon="true">
  <path
    fill-rule="evenodd"
    clip-rule="evenodd"
    d="M14.7959 1.2533C15.6413 0.911906 16.5876 0.914966 17.4307 1.26209L26.3428 4.93201C27.6492 5.47016 28.5018 6.74369 28.502 8.15662V17.4681C28.502 21.3124 25.8704 24.4778 23.2031 26.7152C20.5084 28.9754 17.6009 30.4382 16.7041 30.8646C16.3302 31.0424 15.9019 31.0449 15.5254 30.8695C14.6198 30.4473 11.6564 28.9863 8.9082 26.726C6.1904 24.4905 3.5 21.3221 3.5 17.4681V8.17029C3.50007 6.74877 4.36367 5.46853 5.68164 4.93592L14.7959 1.2533ZM16.8594 2.64978C16.379 2.45197 15.8392 2.44941 15.3574 2.64392L6.24414 6.32752C5.49301 6.63103 5.00105 7.36017 5.00098 8.17029V17.4681C5.00098 20.6167 7.22472 23.3981 9.86133 25.5668C12.4181 27.6697 15.1928 29.0557 16.1084 29.4857C17.0113 29.0534 19.7333 27.6677 22.2393 25.5658C24.8208 23.4003 27.002 20.6197 27.002 17.4681V8.15662C27.0018 7.35149 26.5159 6.62542 25.7715 6.31873L16.8594 2.64978ZM19.9893 12.2201C20.2822 11.9272 20.7569 11.9272 21.0498 12.2201C21.3425 12.513 21.3426 12.9878 21.0498 13.2806L14.7598 19.5707C14.4669 19.8634 13.9921 19.8634 13.6992 19.5707L11.1826 17.0551C10.8898 16.7622 10.89 16.2874 11.1826 15.9945C11.4755 15.7016 11.9503 15.7016 12.2432 15.9945L14.2285 17.9799L19.9893 12.2201Z"
    fill="currentColor"
  />
</svg>
