<svg width="12" height="13" viewBox="0 0 12 13" fill="none" xmlns="http://www.w3.org/2000/svg" data-fui-icon="true">
  <path
    fill-rule="evenodd"
    clip-rule="evenodd"
    d="M5.37402 0.116926C5.77703 -0.0374291 6.22297 -0.0374293 6.62598 0.116926L10.376 1.55443C11.0528 1.81383 11.5 2.46335 11.5 3.18822V6.75072C11.4996 8.41479 10.1999 9.67071 9.08984 10.4607C7.93114 11.2852 6.70055 11.7995 6.36133 11.9343C6.12768 12.0271 5.87232 12.0271 5.63867 11.9343C5.29945 11.7995 4.06886 11.2852 2.91016 10.4607C1.80009 9.67071 0.500359 8.41479 0.5 6.75072V3.18822C0.5 2.46335 0.947174 1.81383 1.62402 1.55443L5.37402 0.116926ZM8.28027 4.21947C7.98741 3.92675 7.51259 3.92675 7.21973 4.21947L5.25 6.18919L4.78027 5.71947C4.48741 5.42675 4.01259 5.42675 3.71973 5.71947C3.42688 6.01231 3.42697 6.48711 3.71973 6.78001L4.71973 7.78001C5.01262 8.07291 5.48738 8.07291 5.78027 7.78001L8.28027 5.28001C8.57303 4.98711 8.57312 4.51231 8.28027 4.21947Z"
    fill="currentColor"
  />
</svg>
