<svg width="16" height="16" viewBox="0 0 16 16" fill="none" xmlns="http://www.w3.org/2000/svg" data-fui-icon="true">
  <path
    fill-rule="evenodd"
    clip-rule="evenodd"
    d="M7.30566 1.14155C7.79828 0.952744 8.34403 0.955222 8.83496 1.14839L12.665 2.65718C13.4723 2.97505 14.0038 3.75446 14.0039 4.62202V8.84077C14.0039 10.7156 12.6417 12.1764 11.4834 13.1044C10.2737 14.0735 8.98191 14.7038 8.59375 14.8837C8.26222 15.0374 7.88378 15.0407 7.54883 14.8896C7.15564 14.7121 5.83248 14.0835 4.5918 13.1162C3.40769 12.1929 2 10.7294 2 8.84077V4.62886C2.00014 3.75457 2.53917 2.97035 3.35547 2.65718L7.30566 1.14155ZM8.00684 3.70015C7.53762 3.70029 7.1574 4.08055 7.15723 4.54976V4.61323C6.07291 4.87735 5.33126 5.64253 5.33105 6.58198L5.33594 6.72261C5.35742 7.04765 5.45509 7.35214 5.6377 7.61812C5.84094 7.91389 6.11141 8.10753 6.37012 8.23726C6.85046 8.47804 7.44923 8.57009 7.86523 8.6396C8.36067 8.72239 8.67454 8.7828 8.87793 8.88472C8.94327 8.9175 8.96594 8.94077 8.9707 8.94624C8.97371 8.95544 8.97846 8.97777 8.97852 9.01948C8.9785 8.91164 8.97416 9.38405 8.0166 9.38765H7.99414C7.45613 9.38618 7.21514 9.28632 7.11523 9.22652C7.02422 9.17185 6.9778 9.11185 6.89355 8.97652C6.64541 8.57844 6.12101 8.45628 5.72266 8.70405C5.32446 8.95209 5.20257 9.47655 5.4502 9.87495C5.56899 10.0658 5.79061 10.4136 6.24023 10.6835C6.49757 10.838 6.80045 10.9479 7.15723 11.0146V11.0507C7.15733 11.52 7.53758 11.9002 8.00684 11.9003C8.47621 11.9003 8.85634 11.5201 8.85645 11.0507V10.9873C9.93945 10.7223 10.6785 9.95785 10.6787 9.01948C10.6786 8.64165 10.5807 8.28819 10.3721 7.98433C10.1688 7.68843 9.89843 7.49494 9.63965 7.36519C9.15945 7.1245 8.56147 7.03234 8.14551 6.96284C7.64985 6.88002 7.33526 6.81969 7.13184 6.71773C7.06459 6.68399 7.04288 6.65979 7.03906 6.65523L7.03809 6.65327L7.0332 6.59859C7.04661 6.58301 7.15407 6.21289 8.00586 6.21284C8.55281 6.21289 8.79154 6.31578 8.8877 6.37398C8.97509 6.42695 9.01925 6.48331 9.10742 6.62495C9.35549 7.02297 9.87901 7.14495 10.2773 6.89741C10.6758 6.64937 10.7977 6.12501 10.5498 5.72652C10.4349 5.54186 10.2164 5.19131 9.76855 4.91987C9.51244 4.76476 9.21156 4.65256 8.85645 4.58589V4.54976C8.85627 4.08047 8.47617 3.70015 8.00684 3.70015Z"
    fill="currentColor"
  />
</svg>
