<svg width="20" height="20" viewBox="0 0 20 20" fill="none" xmlns="http://www.w3.org/2000/svg" data-fui-icon="true">
  <path
    fill-rule="evenodd"
    clip-rule="evenodd"
    d="M9.28125 1.13988C9.79123 0.951774 10.3525 0.953372 10.8613 1.14476L16.5381 3.28051C17.4197 3.61236 18.0039 4.45667 18.0039 5.39867V10.8625C18.0035 13.2955 16.2349 15.2231 14.5605 16.5207C12.8499 17.8465 11.0214 18.6836 10.5039 18.9084C10.226 19.0291 9.91888 19.0301 9.63965 18.9114C9.11719 18.6887 7.25549 17.8524 5.5127 16.5276C3.80905 15.2324 2.0004 13.3036 2 10.8625V5.40551C1.99998 4.45829 2.58995 3.61058 3.47852 3.28246L9.28125 1.13988ZM10.0049 4.75023C9.59109 4.75073 9.25488 5.08633 9.25488 5.50023V5.82445C7.7754 6.07193 6.83322 7.04026 6.83301 8.13207C6.83307 8.56734 6.94445 8.96029 7.17285 9.2932C7.39657 9.61897 7.69943 9.83868 8.00391 9.99144C8.38337 10.1817 8.83117 10.2945 9.25488 10.3782V12.1506C8.98188 12.0772 8.79236 11.9706 8.66211 11.8684C8.42701 11.6837 8.31946 11.4682 8.27637 11.3479C8.13638 10.9585 7.70703 10.7552 7.31738 10.8948C6.92801 11.0345 6.72521 11.4642 6.86426 11.8537C6.97644 12.1669 7.22464 12.6474 7.73633 13.0491C8.11827 13.3486 8.61792 13.5791 9.25488 13.6819V14.0041C9.25516 14.4178 9.59126 14.7536 10.0049 14.7541C10.4189 14.7541 10.7546 14.4181 10.7549 14.0041V13.6789C12.2373 13.4326 13.1796 12.4639 13.1797 11.3713C13.1796 10.9357 13.0686 10.5423 12.8398 10.2092C12.616 9.88355 12.3133 9.66365 12.0088 9.51097C11.6284 9.3204 11.1795 9.20861 10.7549 9.12523V7.34496C11.5179 7.53244 11.6868 7.9811 11.6992 8.03246C11.7934 8.43554 12.1975 8.68584 12.6006 8.59203C13.0035 8.49769 13.254 8.09471 13.1602 7.69164C12.9966 6.99208 12.2784 6.05258 10.7549 5.81762V5.50023C10.7549 5.08602 10.4191 4.75023 10.0049 4.75023ZM10.7549 10.6565C10.9833 10.7106 11.1768 10.7722 11.3359 10.8518C11.4851 10.9266 11.5623 10.9991 11.6035 11.0588C11.6397 11.1116 11.6796 11.2002 11.6797 11.3713C11.6796 11.4805 11.518 11.9576 10.7549 12.1545V10.6565ZM9.25488 8.84496C9.02794 8.79075 8.83509 8.72995 8.67676 8.65062C8.52768 8.5758 8.45025 8.50432 8.40918 8.44457C8.37304 8.39174 8.33306 8.30293 8.33301 8.13207C8.33336 8.02297 8.49557 7.54743 9.25488 7.34984V8.84496Z"
    fill="currentColor"
  />
</svg>
