<svg width="24" height="24" viewBox="0 0 24 24" fill="none" xmlns="http://www.w3.org/2000/svg" data-fui-icon="true">
  <path
    fill-rule="evenodd"
    clip-rule="evenodd"
    d="M12.001 1.00377C12.3722 0.993266 12.7455 1.05462 13.0967 1.1942L19.7656 3.84459C20.8151 4.26186 21.5046 5.27776 21.5049 6.40709V13.0575C21.5049 15.9371 19.4626 18.2728 17.4639 19.8876C15.4326 21.5285 13.2474 22.5855 12.5879 22.8876C12.3372 23.0023 12.0614 23.0267 11.7988 22.9628C11.7877 22.9601 11.7767 22.9569 11.7656 22.954C11.7414 22.9473 11.7173 22.9407 11.6934 22.9325C11.6576 22.9205 11.6219 22.9072 11.5869 22.8915C11.3371 22.7793 10.8678 22.561 10.2695 22.245C9.27286 21.7186 7.91832 20.9217 6.62402 19.8964C6.11498 19.4931 5.6022 19.0448 5.12012 18.5536C4.63836 18.0627 4.18692 17.5292 3.79883 16.9559C3.70174 16.8125 3.60814 16.6668 3.51953 16.5184C2.89935 15.4801 2.5 14.3212 2.5 13.0575V6.41686C2.50009 5.70702 2.77259 5.04229 3.23535 4.54284C3.32793 4.44287 3.42799 4.34932 3.53516 4.26354C3.6423 4.1778 3.75657 4.09978 3.87695 4.03014C3.99732 3.96051 4.12452 3.89913 4.25684 3.84752L11.0762 1.18834C11.2009 1.13971 11.329 1.10294 11.458 1.07311C11.4867 1.06658 11.5151 1.05918 11.5439 1.05358C11.5974 1.04301 11.6512 1.03556 11.7051 1.02819C11.7302 1.02482 11.7551 1.02013 11.7803 1.01745C11.8404 1.0109 11.9006 1.00734 11.9609 1.00475C11.9743 1.00418 11.9876 1.00318 12.001 1.0028V1.00377ZM12.001 2.50377V21.4286C12.0296 21.4419 12.0564 21.4559 12.082 21.4676C12.8112 21.1261 14.7395 20.1593 16.5205 18.7206C18.4427 17.1677 20.0049 15.2201 20.0049 13.0575V6.40709C20.0046 5.89231 19.6893 5.42939 19.2109 5.23913L12.543 2.58874C12.3696 2.51984 12.1842 2.49257 12.001 2.50377Z"
    fill="currentColor"
  />
</svg>
