<svg width="24" height="24" viewBox="0 0 24 24" fill="none" xmlns="http://www.w3.org/2000/svg" data-fui-icon="true">
  <path
    fill-rule="evenodd"
    clip-rule="evenodd"
    d="M10.9756 1.20705C11.6873 0.928085 12.4795 0.931332 13.1895 1.21486L19.6094 3.77834C20.7518 4.23466 21.5008 5.34117 21.501 6.57131V13.0322C21.5009 15.9636 19.4406 18.309 17.4883 19.8965C15.4934 21.5185 13.3496 22.5629 12.6914 22.8662C12.3051 23.0442 11.8648 23.047 11.4756 22.8711C10.8105 22.5705 8.6276 21.5272 6.59473 19.9063C4.60772 18.3219 2.50005 15.9744 2.5 13.0322V6.58107C2.50001 5.3437 3.25811 4.23282 4.41016 3.78127L10.9756 1.20705ZM12.4473 3.07228C12.2095 2.97734 11.9444 2.976 11.7061 3.06936L5.13965 5.64357C4.75391 5.79491 4.50001 6.16669 4.5 6.58107V13.0322C4.50005 15.0069 5.95145 16.8363 7.84082 18.3428C9.49749 19.6637 11.2912 20.571 12.0762 20.9404C12.8494 20.5692 14.6054 19.6629 16.2266 18.3447C18.0744 16.8422 19.5009 15.0133 19.501 13.0322V6.57131C19.5008 6.15931 19.2498 5.78858 18.8672 5.63576L12.4473 3.07228Z"
    fill="currentColor"
  />
</svg>
