<svg width="24" height="24" viewBox="0 0 24 24" fill="none" xmlns="http://www.w3.org/2000/svg" data-fui-icon="true">
  <path
    fill-rule="evenodd"
    clip-rule="evenodd"
    d="M11.0752 1.18921C11.7252 0.935763 12.4474 0.937392 13.0957 1.19507L19.7646 3.84546C20.814 4.26284 21.5038 5.27859 21.5039 6.40796V13.0584C21.5037 15.9379 19.4616 18.2737 17.4629 19.8884C15.4313 21.5296 13.2461 22.5866 12.5869 22.8884C12.2678 23.0346 11.9073 23.0364 11.5859 22.8923C10.9202 22.5933 8.694 21.5377 6.62305 19.8972C4.58764 18.2848 2.50024 15.9466 2.5 13.0584V6.41773C2.50001 5.28154 3.19734 4.26126 4.25586 3.84839L11.0752 1.18921ZM12.542 2.5896C12.2464 2.47211 11.9165 2.47115 11.6201 2.58667L4.80078 5.24585C4.31808 5.43412 4.00001 5.89961 4 6.41773V13.0584C4.00024 15.2168 5.59054 17.1655 7.55469 18.7214C9.37372 20.1623 11.3423 21.1292 12.0811 21.4685C12.8099 21.1271 14.7383 20.1604 16.5195 18.7214C18.4417 17.1686 20.0037 15.2209 20.0039 13.0584V6.40796C20.0038 5.89314 19.6883 5.43037 19.21 5.23999L12.542 2.5896Z"
    fill="currentColor"
  />
</svg>
