<svg width="32" height="32" viewBox="0 0 32 32" fill="none" xmlns="http://www.w3.org/2000/svg" data-fui-icon="true">
  <path
    fill-rule="evenodd"
    clip-rule="evenodd"
    d="M15.0527 1.15297C15.5093 1.01793 15.9855 0.972906 16.4551 1.0182C16.5781 1.03004 16.7007 1.0477 16.8223 1.07191C16.9831 1.10398 17.1423 1.14709 17.2988 1.20082C17.3625 1.22267 17.4256 1.24667 17.4883 1.27211C17.4956 1.27507 17.5035 1.27788 17.5107 1.2809L26.2197 4.88148C26.4783 4.98846 26.7202 5.12265 26.9424 5.27992C27.3131 5.5423 27.6291 5.86914 27.8779 6.24086C27.9286 6.31654 27.9765 6.39402 28.0215 6.47328C28.181 6.75443 28.3012 7.05775 28.3828 7.37465C28.3956 7.42421 28.4082 7.47382 28.4189 7.52406C28.4722 7.77389 28.5019 8.03127 28.502 8.29359V17.444C28.5017 21.3389 25.8503 24.5139 23.2256 26.7252C23.0747 26.8524 22.9224 26.9763 22.7705 27.0983C22.7236 27.136 22.6759 27.1724 22.6289 27.2096C22.5282 27.2894 22.4279 27.3685 22.3271 27.4459C22.2766 27.4848 22.2263 27.5238 22.1758 27.5621C22.0296 27.673 21.8837 27.7815 21.7383 27.8873C21.5153 28.0498 21.2931 28.2055 21.0742 28.3561C21.039 28.3803 21.0038 28.4044 20.9688 28.4284C20.3153 28.874 19.6873 29.2644 19.1201 29.5983C19.0164 29.6593 18.9149 29.7189 18.8154 29.776C17.9036 30.3001 17.1808 30.6628 16.8066 30.8414C16.3673 31.0512 15.8617 31.0544 15.4189 30.8473C15.0733 30.6854 14.4276 30.3705 13.6094 29.9176C13.3866 29.7943 13.151 29.6608 12.9053 29.5172C12.8456 29.4824 12.7854 29.4468 12.7246 29.4108C12.656 29.3701 12.5866 29.3289 12.5166 29.2868C11.9975 28.9743 11.442 28.6209 10.8711 28.2291C10.7986 28.1794 10.7262 28.1287 10.6533 28.0778C10.5265 27.9892 10.3992 27.8986 10.2715 27.8063C10.2038 27.7574 10.1362 27.7078 10.0684 27.6579C9.91269 27.5433 9.75658 27.4262 9.60059 27.3063C9.5675 27.2809 9.53405 27.2558 9.50098 27.2301C9.29519 27.0704 9.08913 26.9067 8.88477 26.7379C8.80922 26.6755 8.73472 26.6105 8.65918 26.5465C8.06632 26.0446 7.47398 25.497 6.91504 24.903C6.52147 24.4846 6.14339 24.0444 5.79199 23.5827C5.65141 23.3979 5.51528 23.2097 5.38379 23.0182C5.31791 22.9223 5.2528 22.8258 5.18945 22.7282C4.99972 22.4359 4.82218 22.1358 4.6582 21.8287C4.49433 21.5218 4.34456 21.2076 4.21094 20.8864C3.76515 19.815 3.50008 18.665 3.5 17.444V8.30629C3.50006 7.769 3.61859 7.25172 3.83203 6.78187C3.8799 6.6764 3.93088 6.57258 3.98828 6.4723C4.0777 6.31623 4.17793 6.16648 4.28906 6.02504C4.51145 5.74184 4.77582 5.49048 5.0752 5.2809C5.15003 5.22852 5.22753 5.17946 5.30664 5.13246C5.46484 5.03846 5.63158 4.95503 5.80566 4.88441L14.7119 1.27211C14.7679 1.2494 14.8241 1.2275 14.8809 1.20765C14.9377 1.18777 14.9952 1.16999 15.0527 1.15297ZM16.002 18.2496C14.2545 18.2497 12.4518 18.6607 10.9307 19.6647C9.7085 20.4715 8.7053 21.6378 8.06641 23.1959C8.69642 23.9049 9.40635 24.5748 10.1582 25.1959C12.5376 27.1615 15.1175 28.4845 16.1055 28.9577C17.0804 28.4814 19.6079 27.1586 21.9375 25.1959C22.6601 24.5871 23.3421 23.9302 23.9512 23.236C23.3131 21.6581 22.3047 20.4783 21.0723 19.6647C19.5513 18.6609 17.7492 18.2498 16.002 18.2496ZM15.9971 7.37465C13.5119 7.37465 11.4973 9.38957 11.4971 11.8746C11.4971 14.3599 13.5118 16.3746 15.9971 16.3746C18.4821 16.3744 20.4971 14.3598 20.4971 11.8746C20.4968 9.38974 18.482 7.37491 15.9971 7.37465Z"
    fill="currentColor"
  />
</svg>
