<svg width="12" height="13" viewBox="0 0 12 13" fill="none" xmlns="http://www.w3.org/2000/svg" data-fui-icon="true">
  <path
    d="M5.37402 0.116943C5.77703 -0.0374121 6.22297 -0.0374123 6.62598 0.116943L10.376 1.55444C11.0528 1.81385 11.5 2.46338 11.5 3.18823V6.75073C11.4996 8.41477 10.1999 9.67074 9.08984 10.4607C7.93116 11.2852 6.70055 11.7995 6.36133 11.9343C6.1277 12.0271 5.8723 12.0271 5.63867 11.9343C5.29945 11.7995 4.06884 11.2852 2.91016 10.4607C1.80011 9.67074 0.500401 8.41477 0.5 6.75073V3.18823C0.5 2.46338 0.947189 1.81385 1.62402 1.55444L5.37402 0.116943ZM6.08984 1.51831C6.03225 1.49624 5.96775 1.49624 5.91016 1.51831L2.16016 2.95483C2.06376 2.99203 2 3.08487 2 3.18823V6.75073C2.00042 7.6192 2.71582 8.48114 3.7793 9.23804C4.63586 9.84756 5.55592 10.2703 6 10.4587C6.44408 10.2703 7.36414 9.84756 8.2207 9.23804C9.28418 8.48114 9.99958 7.6192 10 6.75073V3.18823C10 3.08487 9.93624 2.99203 9.83984 2.95483L6.08984 1.51831Z"
    fill="currentColor"
  />
</svg>
