<svg width="24" height="24" viewBox="0 0 24 24" fill="none" xmlns="http://www.w3.org/2000/svg" data-fui-icon="true">
  <path
    fill-rule="evenodd"
    clip-rule="evenodd"
    d="M10.9756 1.20705C11.6873 0.928085 12.4795 0.931331 13.1895 1.21486L19.6094 3.77834C20.7518 4.23466 21.5008 5.34116 21.501 6.57131V13.0322C21.5009 15.9636 19.4406 18.309 17.4883 19.8965C15.4934 21.5185 13.3496 22.5629 12.6914 22.8662C12.3051 23.0442 11.8648 23.047 11.4756 22.8711C10.8105 22.5705 8.6276 21.5272 6.59473 19.9063C4.60772 18.3219 2.50005 15.9744 2.5 13.0322V6.58107C2.50001 5.3437 3.25811 4.23282 4.41016 3.78127L10.9756 1.20705ZM16.082 7.54299C15.6915 7.15246 15.0585 7.15246 14.668 7.54299L12 10.211L9.33203 7.54299C8.94151 7.15246 8.30849 7.15246 7.91797 7.54299C7.52744 7.93351 7.52744 8.56653 7.91797 8.95705L10.5859 11.625L7.91797 14.293C7.52744 14.6835 7.52744 15.3165 7.91797 15.7071C8.30849 16.0976 8.94151 16.0976 9.33203 15.7071L12 13.0391L14.668 15.7071C15.0585 16.0976 15.6915 16.0976 16.082 15.7071C16.4726 15.3165 16.4726 14.6835 16.082 14.293L13.4141 11.625L16.082 8.95705C16.4726 8.56653 16.4726 7.93351 16.082 7.54299Z"
    fill="currentColor"
  />
</svg>
