<svg width="20" height="20" viewBox="0 0 20 20" fill="none" xmlns="http://www.w3.org/2000/svg" data-fui-icon="true">
  <path
    fill-rule="evenodd"
    clip-rule="evenodd"
    d="M9.28125 1.13964C9.79122 0.951472 10.3525 0.953185 10.8613 1.14452L16.5381 3.28026C17.4199 3.61199 18.0039 4.45626 18.0039 5.39843V10.8623C18.0036 13.2954 16.235 15.2228 14.5605 16.5205C12.8498 17.8463 11.0211 18.6835 10.5039 18.9082C10.2259 19.0287 9.91891 19.03 9.63965 18.9111C9.11685 18.6883 7.25538 17.8522 5.5127 16.5273C3.80903 15.2321 2.00029 13.3034 2 10.8623V5.40526C1.99998 4.45816 2.59012 3.61042 3.47852 3.28222L9.28125 1.13964ZM10.001 13.5C9.17437 13.5 8.40945 13.6417 7.79297 13.9805C7.273 14.2663 6.82464 14.7103 6.52441 15.4101C7.94558 16.4703 9.44736 17.1845 10.0654 17.458C10.6667 17.1868 12.1134 16.4866 13.4922 15.4473C13.1918 14.7262 12.7381 14.2712 12.209 13.9805C11.5924 13.6418 10.8276 13.5 10.001 13.5ZM10.333 2.54882C10.1617 2.48443 9.9725 2.48358 9.80078 2.54687L3.99805 4.68944C3.69887 4.80012 3.49999 5.08624 3.5 5.40526V10.8623C3.50022 12.1557 4.25406 13.3589 5.3418 14.4111C5.77023 13.6209 6.36985 13.0504 7.07129 12.665C7.98357 12.1639 9.02346 12 10.001 12C10.9786 12 12.0192 12.1638 12.9316 12.665C13.6408 13.0547 14.2438 13.6346 14.6729 14.4385C15.7519 13.3817 16.5037 12.1694 16.5039 10.8623V5.39843C16.5039 5.08095 16.3069 4.79634 16.0098 4.68456L10.333 2.54882ZM10.002 4.99999C11.6585 5.00025 13.0018 6.34341 13.002 7.99999C13.002 9.65668 11.6586 10.9997 10.002 11C8.3451 11 7.00195 9.65685 7.00195 7.99999C7.00209 6.34325 8.34518 4.99999 10.002 4.99999ZM10.002 6.49999C9.17361 6.49999 8.50209 7.17168 8.50195 7.99999C8.50195 8.82842 9.17353 9.49999 10.002 9.49999C10.8302 9.49973 11.502 8.82826 11.502 7.99999C11.5018 7.17184 10.8301 6.50025 10.002 6.49999Z"
    fill="currentColor"
  />
</svg>
