<svg width="20" height="20" viewBox="0 0 20 20" fill="none" xmlns="http://www.w3.org/2000/svg" data-fui-icon="true">
  <path
    fill-rule="evenodd"
    clip-rule="evenodd"
    d="M9.20117 1.15576C9.76058 0.948247 10.3764 0.950724 10.9346 1.16162L16.4033 3.22802C17.3647 3.59133 18.0007 4.51187 18.001 5.53955V10.8374C18.0008 13.328 16.2049 15.2671 14.5752 16.5366C12.8981 17.843 11.109 18.6653 10.5986 18.8882C10.2586 19.0367 9.8808 19.0384 9.53906 18.8921C9.02363 18.6713 7.20311 17.8496 5.49512 16.5444C3.83825 15.2783 2.00018 13.3381 2 10.8374V5.54638C2.00015 4.51311 2.64351 3.58838 3.6123 3.229L9.20117 1.15576ZM10.001 13.7505C8.65755 13.7505 7.56338 14.1158 6.94727 15.1294C8.17407 16.0257 9.44014 16.651 10.0605 16.9331C10.6637 16.6535 11.882 16.0396 13.0703 15.1616C12.4579 14.1246 11.3579 13.7505 10.001 13.7505ZM10.2275 3.03173C10.1211 2.99159 10.0031 2.99121 9.89648 3.03076L4.30762 5.10498C4.12293 5.17351 4.00015 5.34941 4 5.54638V10.8374C4.00013 11.8837 4.55519 12.8894 5.4209 13.8081C6.54986 12.2021 8.39013 11.7505 10.001 11.7505C11.6177 11.7505 13.4659 12.2053 14.5938 13.8257C15.449 12.9045 16.0008 11.8936 16.001 10.8374V5.53955C16.0007 5.34369 15.8795 5.16837 15.6963 5.09912L10.2275 3.03173ZM10.001 4.75048C11.7959 4.75048 13.251 6.20556 13.251 8.00048C13.2508 9.79524 11.7958 11.2505 10.001 11.2505C8.20618 11.2505 6.75118 9.79524 6.75098 8.00048C6.75098 6.20556 8.20605 4.75048 10.001 4.75048ZM10.001 6.75048C9.31062 6.75048 8.75098 7.31013 8.75098 8.00048C8.75118 8.69067 9.31075 9.25048 10.001 9.25048C10.6912 9.25048 11.2508 8.69067 11.251 8.00048C11.251 7.31013 10.6913 6.75048 10.001 6.75048Z"
    fill="currentColor"
  />
</svg>
