<svg width="12" height="13" viewBox="0 0 12 13" fill="none" xmlns="http://www.w3.org/2000/svg" data-fui-icon="true">
  <path
    fill-rule="evenodd"
    clip-rule="evenodd"
    d="M5.42285 0.0905999C5.79963 -0.0257057 6.20331 -0.0257424 6.58008 0.0905999L6.76562 0.157983L9.90527 1.48708C10.6306 1.79411 11.1015 2.50613 11.1016 3.29373V6.70974C11.1016 8.38746 9.92465 9.64847 8.94238 10.4275C7.91747 11.2403 6.82562 11.751 6.49512 11.8972C6.17954 12.0368 5.82238 12.0369 5.50684 11.8972C5.17552 11.7506 4.08481 11.2398 3.06055 10.4275C2.07827 9.64847 0.900391 8.38748 0.900391 6.70974V3.29373C0.900441 2.50627 1.37161 1.7942 2.09668 1.48708L5.23633 0.157983L5.42285 0.0905999ZM2.90039 3.31814V6.70974C2.90039 7.42445 3.42924 8.16832 4.30273 8.86111C4.92342 9.35333 5.59117 9.71733 6.00098 9.9197C6.41064 9.71744 7.07832 9.35343 7.69922 8.86111C8.57289 8.16826 9.10156 7.42453 9.10156 6.70974V3.31814L6.00098 2.00564L2.90039 3.31814ZM6.00391 2.44998C6.41804 2.45007 6.7539 2.78582 6.75391 3.19998V3.25857C6.84037 3.28634 6.92664 3.31726 7.00977 3.35232C7.32775 3.48644 7.78724 3.74615 8.02148 4.21462C8.20661 4.58508 8.05598 5.03527 7.68555 5.22048C7.31513 5.40564 6.86496 5.25587 6.67969 4.88552C6.68926 4.9046 6.68739 4.88928 6.6377 4.85134C6.58944 4.81456 6.51785 4.77357 6.42676 4.73513C6.33706 4.6973 6.24265 4.66732 6.1582 4.64822C6.11671 4.63883 6.0805 4.63342 6.05176 4.62966C6.0375 4.6278 6.0252 4.62638 6.0166 4.62576C6.01258 4.62547 6.00909 4.62487 6.00684 4.62478C6.00525 4.62472 6.00427 4.62478 6.00391 4.62478C5.45602 4.62478 5.40039 4.95506 5.40039 4.92947C5.40039 4.94831 5.40212 4.96071 5.40332 4.96755C5.41047 4.97367 5.42421 4.98349 5.44727 4.99685C5.58487 5.07643 5.79934 5.13213 6.17578 5.22244C6.48539 5.29671 6.95092 5.40352 7.32715 5.63943C7.53079 5.76713 7.73271 5.94601 7.88086 6.19802C8.03073 6.45309 8.10053 6.74105 8.10059 7.04665C8.10059 7.84683 7.5178 8.37324 6.75391 8.5779V8.60037C6.7537 9.01434 6.41791 9.35028 6.00391 9.35037C5.58982 9.35037 5.25412 9.0144 5.25391 8.60037V8.55544C5.1964 8.53903 5.13852 8.5231 5.08203 8.50369C4.77359 8.39764 4.39389 8.2171 4.1084 7.91873C3.82216 7.61946 3.83272 7.14451 4.13184 6.85818C4.43117 6.57188 4.90608 6.58229 5.19238 6.88162C5.24437 6.93593 5.37098 7.0175 5.56934 7.08572C5.7629 7.15226 5.93397 7.17458 6.00391 7.17458C6.34424 7.17456 6.51191 7.09291 6.57324 7.04763C6.58608 7.03814 6.59247 7.02862 6.59766 7.02322C6.59638 6.99824 6.595 6.98217 6.59277 6.97341C6.59008 6.96286 6.58829 6.95847 6.58789 6.95779C6.58714 6.95654 6.58394 6.95269 6.57715 6.94607C6.56926 6.93844 6.55486 6.92636 6.53027 6.91091C6.40045 6.82951 6.19057 6.7681 5.8252 6.68044C5.52675 6.60885 5.06572 6.50863 4.69727 6.29568C4.49654 6.17959 4.28791 6.01282 4.13281 5.76833C3.97421 5.51827 3.90039 5.23229 3.90039 4.92947C3.90061 4.21873 4.41565 3.51132 5.25391 3.24099V3.19998C5.25391 2.78577 5.5897 2.44998 6.00391 2.44998Z"
    fill="currentColor"
  />
</svg>
