<svg width="32" height="32" viewBox="0 0 32 32" fill="none" xmlns="http://www.w3.org/2000/svg" data-fui-icon="true">
  <path
    fill-rule="evenodd"
    clip-rule="evenodd"
    d="M14.7109 1.27205C15.6089 0.90792 16.6143 0.910677 17.5098 1.28084L26.2188 4.88143C27.5995 5.45253 28.5009 6.7993 28.501 8.29353V17.4439C28.5008 21.3389 25.8494 24.5138 23.2246 26.7252C20.5633 28.9672 17.6949 30.4168 16.8057 30.8414C16.3663 31.0512 15.8608 31.0543 15.418 30.8472C14.52 30.4268 11.5971 28.9793 8.88379 26.7379C6.2104 24.5294 3.5002 21.3506 3.5 17.4439V8.30623C3.50011 6.80293 4.41164 5.44948 5.80469 4.88436L14.7109 1.27205ZM16.7451 3.12947C16.3349 2.95996 15.8743 2.95795 15.4629 3.12459L6.55664 6.73787C5.91812 6.9969 5.50011 7.61718 5.5 8.30623V17.4439C5.50021 20.4138 7.59353 23.078 10.1572 25.1959C12.5366 27.1615 15.1165 28.4844 16.1045 28.9576C17.0794 28.4814 19.6068 27.1586 21.9365 25.1959C24.4455 23.082 26.5008 20.4189 26.501 17.4439V8.29353C26.5009 7.60861 26.087 6.99087 25.4541 6.72908L16.7451 3.12947ZM19.793 10.2926C20.1834 9.90232 20.8166 9.90232 21.207 10.2926C21.5975 10.683 21.5973 11.3161 21.207 11.7066L17.4141 15.4996L21.207 19.2926C21.5975 19.683 21.5973 20.3161 21.207 20.7066C20.8165 21.0971 20.1835 21.0971 19.793 20.7066L16 16.9137L12.207 20.7066C11.8165 21.0971 11.1835 21.0971 10.793 20.7066C10.4027 20.3161 10.4025 19.683 10.793 19.2926L14.5859 15.4996L10.793 11.7066C10.4027 11.3161 10.4025 10.683 10.793 10.2926C11.1834 9.90232 11.8166 9.90232 12.207 10.2926L16 14.0855L19.793 10.2926Z"
    fill="currentColor"
  />
</svg>
