<svg width="12" height="12" viewBox="0 0 12 12" fill="none" xmlns="http://www.w3.org/2000/svg" data-fui-icon="true">
  <path
    fill-rule="evenodd"
    clip-rule="evenodd"
    d="M5.42344 0.0905805C5.80019 -0.0256115 6.20389 -0.0258243 6.58059 0.0905805L6.76612 0.157959L9.90554 1.48697C10.6306 1.79407 11.1017 2.50606 11.1017 3.29348V6.70925C11.1017 8.38665 9.92485 9.64775 8.94272 10.4268C7.91828 11.2392 6.82666 11.7499 6.49563 11.8964C6.26672 11.9977 6.01585 12.024 5.77498 11.9784C5.77209 11.9779 5.76908 11.978 5.76619 11.9774C5.73271 11.9708 5.69959 11.9625 5.66659 11.953C5.65657 11.9502 5.64628 11.9483 5.63632 11.9452L5.62753 11.9423C5.58693 11.9292 5.54689 11.9138 5.50742 11.8964C5.42477 11.8598 5.29414 11.8007 5.12952 11.7196C4.71743 11.5166 4.08873 11.1779 3.44604 10.7178C3.31763 10.6258 3.18926 10.5282 3.06131 10.4268C2.8707 10.2756 2.67266 10.106 2.47736 9.91898C1.66616 9.14245 0.900419 8.06118 0.900327 6.70925V3.29348C0.900401 2.85062 1.04982 2.43177 1.30948 2.09532C1.5113 1.8335 1.78017 1.62132 2.09751 1.48697L5.23693 0.157959L5.42344 0.0905805ZM6.00055 2.00548V9.91801L6.00153 9.91898C6.41124 9.71667 7.07896 9.35265 7.69965 8.86046C8.57305 8.16774 9.10189 7.42389 9.10189 6.70925V3.31789L6.00055 2.00548Z"
    fill="currentColor"
  />
</svg>
