<svg width="24" height="24" viewBox="0 0 24 24" fill="none" xmlns="http://www.w3.org/2000/svg" data-fui-icon="true">
  <path
    fill-rule="evenodd"
    clip-rule="evenodd"
    d="M11.0752 1.18873C11.7252 0.935201 12.4473 0.936888 13.0957 1.19459L19.7646 3.84498C20.8144 4.26222 21.5037 5.27792 21.5039 6.40748V13.0579C21.5039 15.9377 19.4617 18.2732 17.4629 19.888C15.4312 21.5293 13.2458 22.5862 12.5869 22.888C12.2676 23.0342 11.9074 23.0362 11.5859 22.8919C10.9202 22.5928 8.69415 21.5374 6.62305 19.8967C4.58753 18.2842 2.5 15.9464 2.5 13.0579V6.41725C2.50002 5.28108 3.19735 4.26078 4.25586 3.84791L11.0752 1.18873ZM12.001 15.4993C10.9902 15.4993 10.0161 15.7466 9.22656 16.2825C8.49494 16.7793 7.88006 17.5521 7.53711 18.7063C7.54308 18.7111 7.54871 18.7162 7.55469 18.721C9.37387 20.1621 11.3423 21.1287 12.0811 21.468C12.8042 21.1293 14.7077 20.1739 16.4775 18.7532C16.1373 17.5728 15.5161 16.7859 14.7744 16.2825C13.9849 15.7468 13.0116 15.4993 12.001 15.4993ZM12.542 2.58912C12.2463 2.47161 11.9165 2.47059 11.6201 2.5862L4.80078 5.24538C4.31809 5.43365 4.00002 5.89915 4 6.41725V13.0579C4 14.7409 4.96814 16.2948 6.3252 17.636C6.78985 16.4944 7.50834 15.6362 8.38477 15.0413C9.47224 14.3032 10.7557 13.9993 12.001 13.9993C13.2463 13.9993 14.5297 14.3032 15.6172 15.0413C16.5022 15.642 17.2263 16.5109 17.6904 17.6692C19.0368 16.3224 20.0039 14.7577 20.0039 13.0579V6.40748C20.0037 5.89247 19.6886 5.42975 19.21 5.23952L12.542 2.58912ZM12.001 6.00416C13.9338 6.00417 15.5007 7.57141 15.501 9.50416C15.501 11.4372 13.934 13.0042 12.001 13.0042C10.0681 13.004 8.50098 11.4371 8.50098 9.50416C8.50126 7.57151 10.0683 6.00434 12.001 6.00416ZM12.001 7.50416C10.8967 7.50434 10.0013 8.39994 10.001 9.50416C10.001 10.6086 10.8966 11.504 12.001 11.5042C13.1055 11.5042 14.001 10.6087 14.001 9.50416C14.0007 8.39983 13.1054 7.50417 12.001 7.50416Z"
    fill="currentColor"
  />
</svg>
