<svg width="24" height="24" viewBox="0 0 24 24" fill="none" xmlns="http://www.w3.org/2000/svg" data-fui-icon="true">
  <path
    fill-rule="evenodd"
    clip-rule="evenodd"
    d="M11.1035 0.322833C11.7409 0.0801627 12.4461 0.083082 13.082 0.329669L20.7402 3.30037C21.8008 3.71201 22.4998 4.73303 22.5 5.87068V13.2096C22.4998 16.3383 20.2119 18.8753 17.9766 20.6275C15.704 22.4089 13.271 23.5482 12.5811 23.8551C12.2678 23.9944 11.9222 23.9952 11.6074 23.858C10.9098 23.5537 8.4304 22.4159 6.11426 20.6353C3.83822 18.8855 1.50023 16.3467 1.5 13.2096V5.88045C1.50016 4.73624 2.20702 3.71044 3.27637 3.3033L11.1035 0.322833ZM12.54 1.72811C12.2501 1.61572 11.9283 1.61457 11.6377 1.72518L3.80957 4.70467C3.32217 4.89038 3.00016 5.35886 3 5.88045V13.2096C3.00023 15.5968 4.81525 17.7437 7.0293 19.4459C9.08769 21.0283 11.3038 22.0806 12.0889 22.4303C12.8632 22.0786 15.0348 21.0271 17.0508 19.4469C19.2182 17.7478 20.9998 15.6012 21 13.2096V5.87068C20.9998 5.35196 20.6809 4.88644 20.1973 4.69881L12.54 1.72811Z"
    fill="currentColor"
  />
</svg>
