<svg width="20" height="20" viewBox="0 0 20 20" fill="none" xmlns="http://www.w3.org/2000/svg" data-fui-icon="true">
  <path
    fill-rule="evenodd"
    clip-rule="evenodd"
    d="M9.25 0.250769C9.78536 0.0575466 10.3721 0.0592372 10.9062 0.255652L17.416 2.65116C18.3673 3.00113 18.9998 3.90707 19 4.92069V10.9998L18.9941 11.2498C18.875 13.8112 16.9442 15.8499 15.1025 17.243C13.1616 18.7109 11.0896 19.6367 10.5166 19.8797C10.234 19.9995 9.92522 20.0006 9.6416 19.8826C9.06304 19.6419 6.95323 18.718 4.97559 17.2508C3.04082 15.8152 1 13.6871 1 10.9998V4.9285C1.00014 3.9095 1.6392 2.99921 2.59766 2.65311L9.25 0.250769ZM10.3887 1.66386C10.1857 1.58923 9.96218 1.58849 9.75879 1.6619L3.10645 4.06425C2.74264 4.1958 2.50015 4.54164 2.5 4.9285V10.9998L2.50488 11.1795C2.59438 13.0266 4.05157 14.6971 5.86914 16.0457C7.56382 17.3031 9.38469 18.138 10.0732 18.4334C10.7516 18.1367 12.5369 17.3025 14.1973 16.0467C16.0338 14.6576 17.5 12.923 17.5 10.9998V4.92069C17.4998 4.53578 17.2597 4.1913 16.8984 4.05839L10.3887 1.66386ZM10.75 3.12772V16.7264C10.4971 16.8574 10.2668 16.9702 10.0684 17.0642C9.24852 16.6834 7.88764 15.9865 6.61426 15.0418C4.78653 13.6857 3.75 12.2775 3.75 10.9998V5.16093L10.0703 2.87772L10.75 3.12772Z"
    fill="currentColor"
  />
</svg>
