<svg width="16" height="16" viewBox="0 0 16 16" fill="none" xmlns="http://www.w3.org/2000/svg" data-fui-icon="true">
  <path
    fill-rule="evenodd"
    clip-rule="evenodd"
    d="M10.5112 1C12.3629 1.00013 13.9247 2.38088 14.1509 4.21875L14.9712 10.8857C15.24 13.0717 13.534 14.9998 11.3315 15H4.67137C2.46918 15 0.763492 13.0725 1.03173 10.8867L1.85009 4.21973C2.07586 2.38135 3.63753 1 5.48973 1H10.5112ZM10.2505 4.625C9.83801 4.62514 9.5031 4.95824 9.50048 5.37012C9.50047 5.37068 9.50062 5.3735 9.50048 5.37793C9.50019 5.38694 9.49909 5.40387 9.49755 5.42676C9.49442 5.47278 9.48768 5.54292 9.47411 5.62891C9.44628 5.8051 9.39244 6.0281 9.29149 6.24121C9.19144 6.45233 9.05494 6.63523 8.86962 6.76562C8.69095 6.89126 8.4223 7 7.9995 7C7.57685 6.99993 7.30875 6.89116 7.13036 6.76562C6.94532 6.63535 6.80834 6.45316 6.70848 6.24219C6.60771 6.02919 6.55359 5.80606 6.52587 5.62988C6.5123 5.54363 6.50649 5.47279 6.50341 5.42676C6.5019 5.40427 6.50076 5.38798 6.50048 5.37891V5.37109C6.49838 4.95907 6.16398 4.62553 5.75145 4.625C5.3375 4.62484 5.00101 4.9601 5.00048 5.37402L5.75048 5.375C5.03059 5.3745 5.00162 5.37465 5.00048 5.375V5.39258C5.0006 5.40101 5.00105 5.41192 5.00145 5.4248C5.00225 5.45058 5.00352 5.4853 5.00634 5.52734C5.01195 5.61111 5.02302 5.72614 5.04442 5.8623C5.08672 6.13126 5.17307 6.50236 5.35301 6.88281C5.53404 7.26539 5.81961 7.67722 6.26708 7.99219C6.72127 8.31183 7.29721 8.49993 7.9995 8.5C8.7019 8.5 9.27856 8.31174 9.7329 7.99219C10.1802 7.67738 10.4657 7.26619 10.647 6.88379C10.8273 6.5033 10.914 6.13233 10.9565 5.86328C10.9781 5.72691 10.9889 5.61119 10.9946 5.52734C10.9974 5.48571 10.9987 5.45144 10.9995 5.42578C10.9999 5.41303 11.0003 5.40194 11.0005 5.39355V5.375C11.0005 4.96081 10.6647 4.62503 10.2505 4.625Z"
    fill="currentColor"
  />
</svg>
