<svg width="20" height="20" viewBox="0 0 20 20" fill="none" xmlns="http://www.w3.org/2000/svg" data-fui-icon="true">
  <path
    fill-rule="evenodd"
    clip-rule="evenodd"
    d="M14.5333 1C16.0259 1.00037 17.3786 1.8815 17.9815 3.24707L18.7002 4.875C19.3113 6.25973 18.9403 7.74719 18 8.70996V15.9365C18 15.9892 17.9988 16.0417 17.9961 16.0938C17.9908 16.1984 17.9804 16.3017 17.9649 16.4033C17.9494 16.5046 17.9285 16.6044 17.9034 16.7021C17.6641 17.6313 16.9997 18.3907 16.1299 18.7588C15.9928 18.8168 15.8496 18.8646 15.7032 18.9023C15.5075 18.9527 15.3035 18.9845 15.0948 18.9951C15.043 18.9977 14.99 18.999 14.9376 18.999H5.06255C5.01012 18.999 4.95711 18.9977 4.90532 18.9951C4.69662 18.9845 4.49256 18.9527 4.29693 18.9023C4.1505 18.8646 4.00726 18.8168 3.87017 18.7588C3.0004 18.3907 2.33602 17.6313 2.09673 16.7021C2.07157 16.6044 2.0507 16.5046 2.03521 16.4033C2.01966 16.3017 2.00926 16.1984 2.00396 16.0938C2.00132 16.0417 2.00005 15.9892 2.00005 15.9365V8.70898C1.06049 7.74613 0.690722 6.25949 1.30181 4.875L2.02056 3.24707C2.62364 1.88145 3.9759 1 5.4688 1H14.5333ZM9.45025 12C8.37358 12.0002 7.50018 12.8735 7.50005 13.9502V17.0879C7.50007 17.2309 7.52196 17.3689 7.56157 17.499H12.4385C12.4781 17.3689 12.5 17.2309 12.5001 17.0879V13.9502C12.4999 12.8735 11.6265 12.0002 10.5499 12H9.45025ZM5.4688 2.5C4.56992 2.5 3.75569 3.03124 3.39263 3.85352L2.67388 5.48047C2.09834 6.78443 3.05325 8.24993 4.47857 8.25C5.47886 8.24963 6.32106 7.5004 6.43755 6.50684L6.90728 2.5H5.4688ZM8.01177 6.0166C7.87395 7.20601 8.80366 8.25 10.001 8.25C11.1979 8.24943 12.128 7.20565 11.9903 6.0166L11.5831 2.5H8.419L8.01177 6.0166ZM13.5635 6.50684C13.6801 7.50048 14.5221 8.24978 15.5225 8.25C16.9474 8.24949 17.9024 6.78419 17.3272 5.48047L16.6094 3.85352C16.2465 3.03138 15.4319 2.50037 14.5333 2.5H13.0938L13.5635 6.50684Z"
    fill="currentColor"
  />
</svg>
