<svg width="12" height="12" viewBox="0 0 12 12" fill="none" xmlns="http://www.w3.org/2000/svg" data-fui-icon="true">
  <path
    d="M9.24121 0L9.44727 0.0078125C10.4664 0.0885071 11.3526 0.763706 11.6934 1.74121L11.8633 2.22949C11.954 2.4898 12 2.76535 12 3.04102L11.9873 3.29199C11.9405 3.75272 11.7657 4.17599 11.5 4.52637V9.2627C11.5 10.7744 10.2744 12 8.7627 12H3.2373C1.72562 12 0.5 10.7744 0.5 9.2627V4.52637C0.23425 4.17599 0.0595261 3.75272 0.0126953 3.29199L0 3.04102C0 2.76535 0.0459969 2.4898 0.136719 2.22949L0.306641 1.74121C0.647381 0.763706 1.53355 0.0885071 2.55273 0.0078125L2.75879 0H9.24121ZM4.20898 4.75781C3.75993 5.21804 3.13536 5.5 2.45312 5.5C2.29826 5.49998 2.14691 5.48463 2 5.45703V9.2627C2 9.94595 2.55405 10.5 3.2373 10.5H3.5V8.13574C3.50012 7.50854 4.00854 7.00012 4.63574 7H7.36426C7.99146 7.00012 8.49988 7.50854 8.5 8.13574V10.5H8.7627C9.44595 10.5 10 9.94595 10 9.2627V5.45703C9.85309 5.48463 9.70174 5.49998 9.54688 5.5C8.86489 5.5 8.24004 5.21872 7.79102 4.75879C7.33396 5.21354 6.70538 5.49993 6.00098 5.5C5.29593 5.49994 4.66624 5.2133 4.20898 4.75781ZM5 10.5H7V8.5H5V10.5ZM4.95801 2.96387C4.96062 3.52778 5.41969 3.99989 6.00098 4C6.57957 3.99987 7.03525 3.53213 7.04199 2.97168L6.78418 1.5H5.21582L4.95801 2.96387ZM2.75879 1.5C2.29255 1.5 1.87707 1.79509 1.72363 2.23535L1.55371 2.72363C1.5185 2.82466 1.5 2.93282 1.5 3.04102C1.50016 3.57195 1.93136 3.99979 2.45312 4C2.91617 4 3.31256 3.66701 3.39258 3.21094L3.46387 2.80371C3.46453 2.79301 3.46405 2.78221 3.46484 2.77148L3.47949 2.62988L3.62598 1.5H2.75879ZM8.52246 2.62988C8.53083 2.69432 8.53558 2.75853 8.53906 2.82227L8.60742 3.21094C8.68744 3.66701 9.08383 4 9.54688 4C10.0686 3.99979 10.4998 3.57195 10.5 3.04102C10.5 2.93282 10.4815 2.82466 10.4463 2.72363L10.2764 2.23535C10.1229 1.79509 9.70745 1.5 9.24121 1.5H8.37598L8.52246 2.62988Z"
    fill="currentColor"
  />
</svg>
