<svg width="13" height="12" viewBox="0 0 13 12" fill="none" xmlns="http://www.w3.org/2000/svg" data-fui-icon="true">
  <path
    fill-rule="evenodd"
    clip-rule="evenodd"
    d="M8.13672 0C9.78539 5.98333e-05 11.1725 1.2346 11.3643 2.87207L12.0078 8.37207C12.2339 10.3035 10.7249 12 8.78028 12H3.25001C1.3054 11.9999 -0.203611 10.3035 0.022466 8.37207L0.666021 2.87207C0.857732 1.23466 2.24499 0.000176247 3.89356 0H8.13672ZM3.89356 1.5C3.00592 1.50018 2.25945 2.16522 2.15626 3.04688L1.51172 8.54688C1.39022 9.58672 2.20306 10.4999 3.25001 10.5H8.78028C9.82729 10.5 10.6401 9.58676 10.5186 8.54688L9.875 3.04688C9.77181 2.16513 9.02447 1.50006 8.13672 1.5H3.89356ZM8.01661 3C8.43076 3.00007 8.76661 3.33583 8.76661 3.75V3.79785C8.76582 3.82131 8.76439 3.8524 8.76172 3.88965C8.75639 3.9642 8.74557 4.0657 8.72559 4.18555C8.68612 4.4222 8.60567 4.74988 8.4375 5.08594C8.26791 5.42475 8.00178 5.78634 7.58887 6.06152C7.17099 6.33987 6.647 6.49994 6.01563 6.5C5.38414 6.5 4.86033 6.33989 4.44239 6.06152C4.02918 5.78627 3.76243 5.42491 3.59278 5.08594C3.4246 4.74987 3.34417 4.42221 3.30469 4.18555C3.28473 4.06575 3.27487 3.96418 3.26954 3.88965C3.26687 3.85241 3.26544 3.82131 3.26465 3.79785C3.26426 3.78609 3.26381 3.77552 3.26368 3.76758V3.75098C3.26565 3.7506 3.30324 3.75 4.01368 3.75H3.26368C3.26368 3.33579 3.59946 3 4.01368 3C4.42555 3.00007 4.76001 3.33214 4.76368 3.74316V3.74707C4.76387 3.75284 4.76441 3.76512 4.76563 3.78223C4.76811 3.81696 4.77392 3.87207 4.78516 3.93945C4.80825 4.07765 4.85271 4.25038 4.93458 4.41406C5.01509 4.57493 5.12391 4.7138 5.27344 4.81348C5.41847 4.91005 5.64638 5 6.01563 5C6.38466 4.99994 6.61187 4.91002 6.75684 4.81348C6.90648 4.71378 7.01517 4.57501 7.09571 4.41406C7.17764 4.2503 7.22301 4.0777 7.2461 3.93945C7.25734 3.87207 7.26217 3.81695 7.26465 3.78223C7.26588 3.7651 7.26641 3.75284 7.26661 3.74707V3.74512C7.26923 3.33331 7.60424 3.00026 8.01661 3Z"
    fill="currentColor"
  />
</svg>
