<svg width="32" height="32" viewBox="0 0 32 32" fill="none" xmlns="http://www.w3.org/2000/svg" data-fui-icon="true">
  <path
    fill-rule="evenodd"
    clip-rule="evenodd"
    d="M21.5903 1C25.0688 1.00021 28.0232 3.54609 28.5376 6.98633L30.9214 22.9365C31.5559 27.1827 28.2665 31 23.9731 31H8.02682C3.73358 30.9998 0.444006 27.1826 1.07858 22.9365L3.46335 6.98633C3.97775 3.54607 6.93312 1.00016 10.4116 1H21.5903ZM21.2837 9.00098C20.8959 8.98473 20.5637 9.26555 20.5092 9.6416L20.5024 9.71777V9.7207C20.5021 9.72605 20.5015 9.7356 20.5005 9.74902C20.4983 9.77679 20.4944 9.8216 20.4878 9.87988C20.4744 9.99672 20.4496 10.1687 20.4057 10.377C20.3173 10.797 20.1544 11.3479 19.8579 11.8906C19.2855 12.9381 18.2042 14 16.0005 14C13.7974 13.9997 12.716 12.9381 12.143 11.8906C11.8462 11.3478 11.6818 10.796 11.5932 10.376C11.5493 10.1678 11.5256 9.99563 11.5122 9.87891C11.5055 9.8208 11.5006 9.77675 11.4985 9.74902C11.4974 9.73517 11.4969 9.72501 11.4965 9.71973C11.4964 9.71779 11.4966 9.71646 11.4965 9.71582C11.4777 9.30296 11.1285 8.98322 10.7153 9.00098C10.3017 9.01903 9.98074 9.36858 9.9985 9.78223L10.7475 9.75C10.0472 9.7801 10.0014 9.7827 9.9985 9.7832V9.79199C9.99873 9.79636 9.99908 9.80193 9.99948 9.80859C10.0003 9.82219 10.0017 9.84061 10.0034 9.86328C10.0069 9.90874 10.0129 9.97239 10.0219 10.0508C10.0399 10.2073 10.0716 10.4265 10.1264 10.6865C10.2356 11.2037 10.4403 11.9027 10.8266 12.6094C11.6207 14.0615 13.1665 15.4997 16.0005 15.5C18.8348 15.5 20.3807 14.0617 21.1743 12.6094C21.5605 11.9024 21.7646 11.2029 21.8735 10.6855C21.9283 10.4253 21.9601 10.2064 21.978 10.0498C21.9869 9.97171 21.9921 9.90867 21.9956 9.86328C21.9973 9.84069 21.9987 9.82219 21.9995 9.80859C21.9999 9.80179 22.0002 9.79544 22.0005 9.79102C22.0005 9.78916 22.0014 9.78754 22.0014 9.78613V9.78223L22.0005 9.70508C21.9781 9.32561 21.6716 9.01748 21.2837 9.00098Z"
    fill="currentColor"
  />
</svg>
