<svg width="32" height="32" viewBox="0 0 32 32" fill="none" xmlns="http://www.w3.org/2000/svg" data-fui-icon="true">
  <path
    d="M21.1475 1C24.6896 1.00003 27.7131 3.55941 28.2988 7.05273L30.8975 22.5498C31.6386 26.9717 28.2297 30.9998 23.7461 31H8.25293C3.76902 30.9995 0.359443 26.97 1.10156 22.5479L3.70215 7.05176C4.28832 3.55899 7.31291 1.00017 10.8545 1H21.1475ZM10.874 9.05078C10.0488 9.12045 9.43556 9.84657 9.50488 10.6719L11 10.5459C9.60706 10.6629 9.51223 10.6716 9.50586 10.6729V10.6787C9.50608 10.681 9.50659 10.6838 9.50684 10.6865C9.5074 10.6927 9.50795 10.7007 9.50879 10.709C9.51049 10.7258 9.51265 10.7473 9.51562 10.7725C9.52163 10.8231 9.53113 10.8906 9.54395 10.9717C9.56958 11.1337 9.61084 11.3549 9.67773 11.6152C9.81025 12.1309 10.0497 12.8333 10.4805 13.5479C11.3826 15.0441 13.0856 16.4999 15.9961 16.5C18.9064 16.5 20.6106 15.044 21.5146 13.5488C21.9464 12.8347 22.1869 12.1327 22.3203 11.6172C22.3876 11.357 22.4302 11.1355 22.4561 10.9736C22.4689 10.893 22.4773 10.8258 22.4834 10.7754C22.4864 10.7504 22.4895 10.7287 22.4912 10.7119C22.4921 10.7036 22.4926 10.6957 22.4932 10.6895C22.4934 10.6865 22.4939 10.6831 22.4941 10.6807V10.6758C22.4942 10.675 22.4945 10.6741 21 10.5459L22.4941 10.6738C22.5648 9.84852 21.9533 9.12255 21.1279 9.05176C20.3036 8.98128 19.578 9.59114 19.5059 10.415V10.4092L19.5049 10.417C19.5031 10.4318 19.4995 10.4603 19.4932 10.5C19.4801 10.5816 19.4566 10.7094 19.416 10.8662C19.3333 11.1858 19.1885 11.598 18.9473 11.9971C18.5047 12.7289 17.707 13.5 15.9961 13.5C14.2857 13.4999 13.4903 12.7296 13.0498 11.999C12.8094 11.6002 12.6651 11.1876 12.583 10.8682C12.5428 10.7116 12.5197 10.5844 12.5068 10.5029C12.5005 10.4627 12.4969 10.4337 12.4951 10.4189C12.4944 10.4132 12.4942 10.4093 12.4941 10.4082V10.4092C12.4192 9.58929 11.6958 8.98175 10.874 9.05078Z"
    fill="currentColor"
  />
</svg>
