<svg width="16" height="16" viewBox="0 0 16 16" fill="none" xmlns="http://www.w3.org/2000/svg" data-fui-icon="true">
  <path
    fill-rule="evenodd"
    clip-rule="evenodd"
    d="M11.8312 1C12.8811 1.0001 13.8288 1.62982 14.2355 2.59766L14.7961 3.93164C15.2113 4.92038 15.0408 5.96132 14.4963 6.74316C14.4973 6.76195 14.5002 6.78076 14.5002 6.7998V11.6875C14.5 13.5166 13.0167 14.9997 11.1877 15H4.81267C2.9835 14.9998 1.50039 13.5167 1.50017 11.6875V6.7998C1.50018 6.78046 1.50103 6.76127 1.50212 6.74219C0.958266 5.96047 0.789217 4.91987 1.20427 3.93164L1.76482 2.59766C2.17157 1.62979 3.11922 1 4.16912 1H11.8312ZM10.0802 7.19629C9.53325 7.69291 8.80671 7.99993 8.00017 8C7.19333 7.99998 6.46622 7.69321 5.91912 7.19629C5.39108 7.69492 4.68255 7.99986 3.90838 8C3.76923 8 3.6329 7.98982 3.50017 7.97168V11.6875C3.50039 12.4121 4.08807 12.9998 4.81267 13H5.25017V10.8994C5.25064 9.85057 6.10165 9.00016 7.15056 9H8.84978C9.8986 9.00027 10.7497 9.85064 10.7502 10.8994V13H11.1877C11.9122 12.9997 12.5 12.412 12.5002 11.6875V7.97168C12.3674 7.98985 12.2312 7.99999 12.092 8C11.3175 7.9999 10.6084 7.6952 10.0802 7.19629ZM7.25017 13H8.75017V11H7.25017V13ZM4.16912 3C3.92454 3 3.70346 3.14669 3.60857 3.37207L3.04802 4.70605C2.78987 5.3207 3.24172 6 3.90838 6C4.37624 5.99973 4.7722 5.65241 4.83318 5.18848L5.12029 3H4.16912ZM6.91033 4.75977C6.82507 5.41723 7.33718 5.99996 8.00017 6C8.66307 5.99985 9.17526 5.41716 9.09002 4.75977L8.8615 3H7.13884L6.91033 4.75977ZM11.1681 5.18848C11.2291 5.65243 11.6241 5.99981 12.092 6C12.7584 5.99982 13.2103 5.32056 12.9523 4.70605L12.3918 3.37207C12.2969 3.14672 12.0757 3.0001 11.8312 3H10.8801L11.1681 5.18848Z"
    fill="currentColor"
  />
</svg>
