<svg width="12" height="12" viewBox="0 0 12 12" fill="none" xmlns="http://www.w3.org/2000/svg" data-fui-icon="true">
  <g clip-path="url(#clip0_7199_1108)">
    <path
      d="M8.12988 0.25C9.77147 0.25 11.1552 1.47424 11.3555 3.10352L11.9697 8.10352C12.2076 10.0409 10.6961 11.7499 8.74414 11.75H3.25586C1.30397 11.7498 -0.208591 10.0409 0.0292969 8.10352L0.643555 3.10352C0.843782 1.4744 2.22779 0.250305 3.86914 0.25H8.12988ZM8 3.25C7.5881 3.25004 7.25367 3.58212 7.25 3.99316C7.25 3.99316 7.25007 3.99477 7.25 3.99707C7.24981 4.00284 7.24926 4.01513 7.24805 4.03223C7.24556 4.06698 7.23975 4.12204 7.22852 4.18945C7.20544 4.32778 7.16102 4.50121 7.0791 4.66504C6.99861 4.82589 6.88955 4.96393 6.74023 5.06348C6.59548 5.15997 6.36871 5.25 6 5.25C5.63129 5.24999 5.40451 5.15997 5.25977 5.06348C5.11047 4.96393 5.00138 4.82588 4.9209 4.66504C4.83899 4.50121 4.79456 4.32777 4.77148 4.18945C4.76025 4.12205 4.75444 4.06697 4.75195 4.03223C4.75074 4.01513 4.75019 4.00284 4.75 3.99707V3.99316C4.74633 3.5821 4.41193 3.25 4 3.25C3.58582 3.25004 3.25 3.58581 3.25 4V4.01758C3.25013 4.02552 3.25058 4.03609 3.25098 4.04785C3.25176 4.07129 3.2532 4.10243 3.25586 4.13965C3.26119 4.21418 3.27106 4.31575 3.29102 4.43555C3.33044 4.67207 3.41123 4.99907 3.5791 5.33496C3.74858 5.67392 4.01471 6.03616 4.42773 6.31152C4.84546 6.59001 5.3688 6.74999 6 6.75C6.63121 6.75 7.15453 6.59 7.57227 6.31152C7.9853 6.03616 8.25141 5.67392 8.4209 5.33496C8.58878 4.99907 8.66956 4.67207 8.70898 4.43555C8.72894 4.31575 8.73881 4.21418 8.74414 4.13965C8.7468 4.10242 8.74824 4.0713 8.74902 4.04785C8.74942 4.03609 8.74987 4.02552 8.75 4.01758V4C8.75 3.58579 8.41421 3.25 8 3.25Z"
      fill="currentColor"
    />
  </g>
  <defs>
    <clipPath id="clip0_7199_1108"><path fill="currentColor" d="M0 0H12V12H0z" /></clipPath>
  </defs>
</svg>
