<svg width="16" height="16" viewBox="0 0 16 16" fill="none" xmlns="http://www.w3.org/2000/svg" data-fui-icon="true">
  <path
    fill-rule="evenodd"
    clip-rule="evenodd"
    d="M11.7278 1C12.8509 1.00028 13.8697 1.66038 14.3284 2.68555L14.928 4.02539C15.448 5.18843 15.2074 6.43344 14.5002 7.31445V11.9375C14.5001 13.6287 13.1289 14.9998 11.4377 15H4.56274C2.87154 14.9999 1.50034 13.6287 1.50024 11.9375V11.4736C1.50013 11.4616 1.49927 11.4495 1.49927 11.4375V7.5C1.49927 7.49382 1.50015 7.4876 1.50024 7.48145V7.31543C0.792393 6.43432 0.552236 5.18887 1.07251 4.02539L1.67212 2.68555C2.13087 1.66036 3.14956 1.00022 4.27271 1H11.7278ZM7.90064 9C6.9895 9.00013 6.25028 9.73923 6.25024 10.6504V12.5H9.75024V10.6504C9.75021 9.73932 9.01086 9.00029 8.09985 9H7.90064ZM4.27271 3.5C4.13528 3.50022 4.01052 3.58159 3.95435 3.70703L3.35474 5.0459C3.15458 5.49366 3.48258 5.9995 3.9729 6C4.31354 5.99978 4.60157 5.74613 4.64478 5.4082L4.88892 3.5H4.27271ZM7.20825 5.10254C7.14841 5.57878 7.52023 5.99979 8.00024 6C8.48021 5.99975 8.85207 5.57875 8.79224 5.10254L8.59009 3.5H7.4104L7.20825 5.10254ZM11.3557 5.4082C11.3989 5.74615 11.6869 5.99985 12.0276 6C12.5178 5.99944 12.8458 5.49359 12.6458 5.0459L12.0461 3.70703C11.99 3.58161 11.8652 3.50028 11.7278 3.5H11.1116L11.3557 5.4082Z"
    fill="currentColor"
  />
</svg>
