<svg width="16" height="16" viewBox="0 0 16 16" fill="none" xmlns="http://www.w3.org/2000/svg" data-fui-icon="true">
  <path
    fill-rule="evenodd"
    clip-rule="evenodd"
    d="M10.5112 1C12.363 1.00012 13.9247 2.38087 14.1509 4.21875L14.9712 10.8857C15.24 13.0717 13.534 14.9999 11.3315 15H4.67137C2.46918 15 0.763492 13.0725 1.03173 10.8867L1.85009 4.21973C2.07586 2.38135 3.63753 1 5.48973 1H10.5112ZM5.48973 2.5C4.39534 2.5 3.47288 3.31617 3.33934 4.40234L2.52098 11.0693C2.36242 12.361 3.37004 13.5 4.67137 13.5H11.3315C12.633 13.4999 13.6408 12.3601 13.4819 11.0684L12.6616 4.40234C12.528 3.31632 11.6054 2.50012 10.5112 2.5H5.48973ZM10.2505 4.625C10.6647 4.62503 11.0005 4.96081 11.0005 5.375V5.39355C11.0003 5.40194 10.9999 5.41303 10.9995 5.42578C10.9987 5.45144 10.9974 5.48571 10.9946 5.52734C10.9889 5.61119 10.9781 5.72691 10.9565 5.86328C10.914 6.13233 10.8272 6.5033 10.647 6.88379C10.4657 7.26619 10.1802 7.67738 9.7329 7.99219C9.27856 8.31174 8.70189 8.5 7.9995 8.5C7.29722 8.49992 6.72127 8.31183 6.26708 7.99219C5.81963 7.67722 5.53403 7.26539 5.35301 6.88281C5.17308 6.50236 5.08672 6.13126 5.04442 5.8623C5.02302 5.72615 5.01195 5.61111 5.00634 5.52734C5.00352 5.4853 5.00225 5.45058 5.00145 5.4248C5.00105 5.41192 5.0006 5.40101 5.00048 5.39258V5.375C5.00162 5.37465 5.03062 5.3745 5.75048 5.375L5.00048 5.37402C5.00101 4.96011 5.33752 4.62486 5.75145 4.625C6.16398 4.62553 6.49838 4.95907 6.50048 5.37109V5.37891C6.50076 5.38798 6.5019 5.40427 6.50341 5.42676C6.50649 5.47279 6.51231 5.54363 6.52587 5.62988C6.55359 5.80606 6.60772 6.02919 6.70848 6.24219C6.80834 6.45316 6.94533 6.63535 7.13036 6.76562C7.30875 6.89115 7.57686 6.99993 7.9995 7C8.42228 7 8.69095 6.89126 8.86962 6.76562C9.05494 6.63523 9.19144 6.45232 9.29149 6.24121C9.39244 6.0281 9.44628 5.8051 9.47411 5.62891C9.48768 5.54293 9.49442 5.47278 9.49755 5.42676C9.49909 5.40387 9.50019 5.38694 9.50048 5.37793C9.50062 5.3735 9.50047 5.37068 9.50048 5.37012C9.5031 4.95825 9.83802 4.62516 10.2505 4.625Z"
    fill="currentColor"
  />
</svg>
