<svg width="16" height="16" viewBox="0 0 16 16" fill="none" xmlns="http://www.w3.org/2000/svg" data-fui-icon="true">
  <path
    fill-rule="evenodd"
    clip-rule="evenodd"
    d="M11.8315 1C12.8813 1.0001 13.8291 1.62982 14.2358 2.59766L14.7963 3.93164C15.2115 4.92038 15.0411 5.96132 14.4965 6.74316C14.4976 6.76195 14.5004 6.78076 14.5004 6.7998V11.6875C14.5002 13.5166 13.017 14.9997 11.1879 15H4.81292C2.98374 14.9998 1.50063 13.5167 1.50042 11.6875V6.7998C1.50042 6.78046 1.50128 6.76127 1.50237 6.74219C0.95851 5.96047 0.789461 4.91987 1.20452 3.93164L1.76506 2.59766C2.17182 1.62979 3.11946 1 4.16936 1H11.8315ZM10.0805 7.19629C9.53349 7.69291 8.80695 7.99993 8.00042 8C7.19357 7.99998 6.46646 7.69321 5.91936 7.19629C5.39132 7.69492 4.6828 7.99986 3.90862 8C3.76947 8 3.63315 7.98982 3.50042 7.97168V11.6875C3.50063 12.4121 4.08831 12.9998 4.81292 13H5.25042V10.8994C5.25089 9.85057 6.10189 9.00016 7.15081 9H8.85003C9.89884 9.00027 10.7499 9.85064 10.7504 10.8994V13H11.1879C11.9124 12.9997 12.5002 12.412 12.5004 11.6875V7.97168C12.3676 7.98985 12.2315 7.99999 12.0922 8C11.3178 7.9999 10.6086 7.6952 10.0805 7.19629ZM7.25042 13H8.75042V11H7.25042V13ZM4.16936 3C3.92479 3 3.70371 3.14669 3.60881 3.37207L3.04827 4.70605C2.79012 5.3207 3.24196 6 3.90862 6C4.37649 5.99973 4.77244 5.65241 4.83342 5.18848L5.12053 3H4.16936ZM6.91057 4.75977C6.82531 5.41723 7.33742 5.99996 8.00042 6C8.66332 5.99985 9.1755 5.41716 9.09026 4.75977L8.86174 3H7.13909L6.91057 4.75977ZM11.1684 5.18848C11.2294 5.65243 11.6243 5.99981 12.0922 6C12.7587 5.99982 13.2106 5.32056 12.9526 4.70605L12.392 3.37207C12.2972 3.14672 12.076 3.0001 11.8315 3H10.8803L11.1684 5.18848Z"
    fill="currentColor"
  />
</svg>
