<svg width="24" height="24" viewBox="0 0 24 24" fill="none" xmlns="http://www.w3.org/2000/svg" data-fui-icon="true">
  <path
    fill-rule="evenodd"
    clip-rule="evenodd"
    d="M15.68 1C18.4232 1 20.7597 2.99253 21.1937 5.70117L22.929 16.5322C23.4725 19.9255 20.8509 23 17.4144 23H6.58916C3.15292 22.9996 0.531938 19.9253 1.07549 16.5322L2.81084 5.70117C3.24481 2.99268 5.58248 1.00013 8.32549 1H15.68ZM8.32549 3C6.56491 3.00013 5.06399 4.27914 4.78545 6.01758L3.0501 16.8486C2.70128 19.0264 4.38374 20.9996 6.58916 21H17.4144C19.6201 21 21.3032 19.0266 20.9544 16.8486L19.219 6.01758C18.9406 4.27898 17.4407 3 15.68 3H8.32549ZM8.43975 7.00098C8.98957 6.9737 9.45757 7.39616 9.4876 7.94531V7.94336L9.48858 7.94629C9.48936 7.95519 9.49103 7.97382 9.49444 8C9.5013 8.0527 9.51409 8.13565 9.53838 8.23828C9.58791 8.44747 9.67849 8.7177 9.83819 8.97949C10.1244 9.44848 10.6876 10 11.9993 10C13.3113 9.99992 13.8766 9.44761 14.1644 8.97754C14.3247 8.71553 14.4161 8.44551 14.4661 8.23633C14.4906 8.13369 14.5041 8.05077 14.511 7.99805C14.5145 7.97185 14.5161 7.95323 14.5169 7.94434L14.5276 7.8457C14.6052 7.345 15.0508 6.97399 15.5677 7.00098C16.1189 7.02993 16.5425 7.5005 16.514 8.05176L15.5159 8L16.514 8.05371V8.06348C16.5137 8.06786 16.5124 8.07329 16.512 8.0791C16.5112 8.09088 16.5106 8.1057 16.5091 8.12305C16.506 8.15803 16.5008 8.20412 16.4935 8.25977C16.4787 8.37108 16.454 8.52281 16.4114 8.70117C16.327 9.05436 16.169 9.53463 15.8704 10.0225C15.24 11.0523 14.0463 11.9999 11.9993 12C9.95195 12 8.76008 11.0514 8.13116 10.0205C7.83341 9.53238 7.67574 9.05249 7.59209 8.69922C7.54985 8.52079 7.52553 8.36916 7.51104 8.25781C7.5038 8.20217 7.49848 8.1561 7.49541 8.12109C7.49388 8.10356 7.49329 8.08801 7.49249 8.07617C7.49211 8.07064 7.49176 8.06574 7.49151 8.06152C7.49138 8.05931 7.49161 8.05653 7.49151 8.05469L7.49053 8.05273V8.05078C7.49431 8.05009 7.55432 8.04687 8.48956 8L7.49053 8.0498C7.46304 7.49833 7.88825 7.02862 8.43975 7.00098Z"
    fill="currentColor"
  />
</svg>
