<svg
  width="16"
  height="16"
  viewBox="0 0 16 16"
  fill="none"
  xmlns="http://www.w3.org/2000/svg"
  data-fui-icon="true"
>
  <g clip-path="url(#clip0_14_1548)">
    <path
      fill-rule="evenodd"
      clip-rule="evenodd"
      d="M3.65895 2.5H5.20841L4.73415 5.15583C4.59526 5.93363 3.9188 6.5 3.12869 6.5H3.00108C2.17132 6.5 1.4985 5.82764 1.49793 4.99788C1.49779 4.79945 1.53694 4.60296 1.61312 4.41974L1.93234 3.65201C2.22235 2.9545 2.90355 2.5 3.65895 2.5ZM3.65895 1H5.47626H5.49995H6.99999H8.99747H10.5H10.5212H12.3385C13.6999 1 14.9275 1.81909 15.4502 3.07612L15.7694 3.84386C15.9216 4.20991 15.9998 4.60248 15.9995 4.99891C15.9989 5.88686 15.613 6.68458 15 7.23399V12.6757C15 14.5117 13.5116 16 11.6757 16H4.32419C2.48827 16 0.999953 14.5117 0.999953 12.6757V7.23618C0.385491 6.6867 -0.00146234 5.88804 -0.0020752 4.99891C-0.00234757 4.60248 0.0758725 4.20991 0.228074 3.84386L0.547291 3.07612C1.06995 1.81909 2.2976 1 3.65895 1ZM10.4363 6.84062C9.86532 7.54295 8.9941 8 7.99995 8C7.0051 8 6.13334 7.5423 5.56234 6.83912C4.98369 7.55321 4.10102 8 3.12869 8H3.00108C2.83034 8 2.66292 7.98575 2.49995 7.95837V12.6757C2.49995 13.6832 3.31669 14.5 4.32419 14.5H4.99996L4.99995 11.25C4.99995 10.5596 5.5596 10 6.24995 10H9.74996C10.4403 10 11 10.5596 11 11.25V14.5H11.6757C12.6832 14.5 13.5 13.6832 13.5 12.6757V7.95796C13.3362 7.98561 13.168 8 12.9964 8H12.8688C11.8971 8 11.015 7.55384 10.4363 6.84062ZM9.49996 14.5H6.49996L6.49995 11.5H9.49996V14.5ZM10.7891 2.5H12.3385C13.0939 2.5 13.7751 2.9545 14.0651 3.65201L14.3843 4.41974C14.4605 4.60296 14.4997 4.79945 14.4995 4.99788C14.499 5.82764 13.8261 6.5 12.9964 6.5H12.8688C12.0787 6.5 11.4022 5.93363 11.2633 5.15583L10.7891 2.5ZM6.38581 4.57208L6.75582 2.5H9.24408L9.6141 4.57208C9.79356 5.57709 9.02086 6.5 7.99995 6.5C6.97905 6.5 6.20634 5.57709 6.38581 4.57208Z"
      fill="currentColor"
    />
  </g>
  <defs>
    <clipPath id="clip0_14_1548">
      <path fill="currentColor" d="M0 0H16V16H0z" />
    </clipPath>
  </defs>
</svg>
