<svg width="12" height="12" viewBox="0 0 12 12" fill="none" xmlns="http://www.w3.org/2000/svg" data-fui-icon="true">
  <path
    d="M9.12769 0C10.0076 3.41576e-06 10.8023 0.525464 11.1472 1.33496L11.7009 2.63379C12.0383 3.42628 11.9187 4.26181 11.5007 4.90234V9.25C11.5007 10.7685 10.2692 11.9996 8.75073 12H3.25073C1.73195 12 0.500738 10.7688 0.500732 9.25V4.90527C0.081235 4.26436 -0.0392767 3.4275 0.298584 2.63379L0.852295 1.33496C1.19717 0.525471 1.99192 0 2.87183 0H9.12769ZM5.75073 7C5.06049 7.00013 4.50073 7.55972 4.50073 8.25V10.5H7.50073V8.25C7.50073 7.55998 6.94062 7.00055 6.25073 7H5.75073ZM2.87183 1.5C2.59313 1.5 2.34141 1.66646 2.23218 1.92285L1.67944 3.2207C1.42134 3.82669 1.86555 4.49986 2.52417 4.5C2.98861 4.5 3.38008 4.15339 3.43628 3.69238L3.70288 1.5H2.87183ZM4.99097 3.36328C4.91854 3.96786 5.39079 4.49998 5.99976 4.5C6.60874 4.5 7.08098 3.96787 7.00854 3.36328L6.78394 1.5H5.21558L4.99097 3.36328ZM8.56323 3.69238C8.61941 4.15339 9.01091 4.5 9.47534 4.5C10.1339 4.49989 10.5779 3.82758 10.3201 3.22168L9.76733 1.92285C9.65811 1.66645 9.40638 1.5 9.12769 1.5H8.29663L8.56323 3.69238Z"
    fill="currentColor"
  />
</svg>
