<svg width="16" height="16" viewBox="0 0 16 16" fill="none" xmlns="http://www.w3.org/2000/svg" data-fui-icon="true">
  <path
    d="M10.9131 0.5C13.0548 0.500111 14.8622 2.09382 15.1299 4.21875L15.9482 10.7188C16.2678 13.2566 14.2893 15.4999 11.7314 15.5H4.26855C1.71062 15.5 -0.267841 13.2566 0.0517578 10.7188L0.870117 4.21875C1.13785 2.09377 2.94511 0.5 5.08691 0.5H10.9131ZM10.8242 4.00391C10.4131 3.963 10.0464 4.26213 10.0039 4.67285L10.0029 4.67871C10.0016 4.68835 9.99928 4.70617 9.99512 4.73047C9.98671 4.77952 9.97188 4.85495 9.94727 4.94727C9.89725 5.13481 9.8107 5.37797 9.66895 5.61426C9.40284 6.05762 8.93822 6.49992 8 6.5C7.06169 6.5 6.59719 6.05762 6.33105 5.61426C6.18928 5.37796 6.10276 5.13483 6.05273 4.94727C6.02812 4.85495 6.01329 4.77953 6.00488 4.73047C6.00072 4.70617 5.99836 4.68837 5.99707 4.67871L5.99609 4.67285C5.95366 4.2622 5.58684 3.96315 5.17578 4.00391C4.76375 4.04511 4.46292 4.41222 4.50391 4.82422L5.25 4.75C4.56374 4.81862 4.50831 4.82441 4.50391 4.8252V4.82812C4.50404 4.82931 4.50473 4.83059 4.50488 4.83203C4.50522 4.83521 4.50535 4.83936 4.50586 4.84375C4.50687 4.85248 4.50799 4.86364 4.50977 4.87695C4.51336 4.90389 4.51884 4.94047 4.52637 4.98438C4.54139 5.07199 4.56569 5.19215 4.60352 5.33398C4.67849 5.61507 4.8109 5.99725 5.04395 6.38574C5.52786 7.19221 6.43867 8 8 8C9.56125 7.99991 10.4722 7.1922 10.9561 6.38574C11.1891 5.99726 11.3215 5.61505 11.3965 5.33398C11.4343 5.19215 11.4586 5.07198 11.4736 4.98438C11.4812 4.94047 11.4866 4.90389 11.4902 4.87695C11.492 4.86364 11.4931 4.85248 11.4941 4.84375C11.4946 4.83936 11.4948 4.83521 11.4951 4.83203C11.4953 4.83059 11.496 4.82931 11.4961 4.82812V4.8252C11.4938 4.82461 11.4531 4.82031 10.75 4.75L11.4961 4.82422C11.5371 4.41231 11.2361 4.04523 10.8242 4.00391Z"
    fill="currentColor"
  />
</svg>
