<svg width="16" height="16" viewBox="0 0 16 16" fill="none" xmlns="http://www.w3.org/2000/svg" data-fui-icon="true">
  <path
    d="M11.9053 1C12.8636 1.00007 13.7331 1.56353 14.124 2.43848L14.7529 3.84766C15.183 4.81051 15.016 5.83768 14.4707 6.59668C14.4892 6.66124 14.5 6.72918 14.5 6.7998V11.9375C14.4999 13.6287 13.1287 14.9999 11.4375 15H4.5625C2.87128 14.9999 1.50007 13.6287 1.5 11.9375V6.7998C1.50001 6.72992 1.51021 6.66257 1.52832 6.59863C0.981553 5.83942 0.813756 4.81138 1.24414 3.84766L1.87402 2.43848C2.26479 1.56371 3.13376 1.00034 4.0918 1H11.9053ZM7.5 9C6.67169 9.00013 6 9.67165 6 10.5V13.5H10V10.5C10 9.67165 9.32831 9.00013 8.5 9H7.5ZM4.0918 2.5C3.72553 2.50034 3.39356 2.71632 3.24414 3.05078L2.61426 4.45996C2.23886 5.30091 2.85448 6.24973 3.77539 6.25C4.41522 6.24985 4.95598 5.77432 5.03711 5.13965L5.37402 2.5H4.0918ZM6.6123 4.67676C6.50704 5.51149 7.15774 6.24977 7.99902 6.25C8.84042 6.2499 9.49102 5.51156 9.38574 4.67676L9.11133 2.5H6.88672L6.6123 4.67676ZM10.9609 5.13965C11.042 5.77427 11.5829 6.24977 12.2227 6.25C13.1437 6.24988 13.7593 5.30096 13.3838 4.45996L12.7539 3.05078C12.6044 2.71616 12.2718 2.50007 11.9053 2.5H10.624L10.9609 5.13965Z"
    fill="currentColor"
  />
</svg>
