<svg width="32" height="32" viewBox="0 0 32 32" fill="none" xmlns="http://www.w3.org/2000/svg" data-fui-icon="true">
  <path
    fill-rule="evenodd"
    clip-rule="evenodd"
    d="M23.84 1C26.1912 1.00031 28.3258 2.37539 29.2971 4.5166L30.4592 7.08105C31.5532 9.49301 30.7879 12.1143 29.0002 13.6543V26.2998C29.0001 28.8953 26.8955 30.9998 24.3 31H7.70039C5.10474 31 3.00028 28.8954 3.00019 26.2998V13.6553C1.21156 12.1153 0.446141 9.49341 1.54023 7.08105L2.70331 4.5166C3.67468 2.37536 5.80909 1.00017 8.16035 1H23.84ZM11.3049 12.5049C10.2941 14.0181 8.57365 14.9997 6.64472 15C6.06602 15 5.51528 14.9122 5.00019 14.7559V26.2998C5.00028 27.7909 6.20931 29 7.70039 29H11.0002V21.9199C11.0004 20.3075 12.3076 19.0001 13.9201 19H18.0803C19.6926 19.0002 21 20.3075 21.0002 21.9199V29H24.3C25.7909 28.9998 27.0001 27.7908 27.0002 26.2998V14.7549C26.485 14.9114 25.9346 15 25.3557 15C23.4265 14.9999 21.7044 14.0192 20.6935 12.5059C19.6803 14.0013 17.9692 14.9999 16.0002 15C14.0304 15 12.3181 14.0012 11.3049 12.5049ZM13.9201 21C13.4122 21.0001 13.0004 21.412 13.0002 21.9199V29H19.0002V21.9199C19 21.4121 18.5881 21.0002 18.0803 21H13.9201ZM8.16035 3C6.59407 3.00017 5.17281 3.91649 4.52558 5.34277L3.36249 7.90723C2.28018 10.2932 4.02471 13 6.64472 13C8.46809 12.9996 10.0047 11.6375 10.2228 9.82715L11.0451 3H8.16035ZM12.3586 8.89844C12.0988 11.0804 13.8028 13 16.0002 13C18.1972 12.9998 19.9013 11.081 19.6418 8.89941L18.9396 3H13.0607L12.3586 8.89844ZM21.7775 9.82715C21.9958 11.6376 23.5321 12.9998 25.3557 13C27.9754 12.9998 29.72 10.2931 28.6379 7.90723L27.4748 5.34277C26.8276 3.91652 25.4062 3.00031 23.84 3H20.9553L21.7775 9.82715Z"
    fill="currentColor"
  />
</svg>
