<svg width="13" height="12" viewBox="0 0 13 12" fill="none" xmlns="http://www.w3.org/2000/svg" data-fui-icon="true">
  <path
    fill-rule="evenodd"
    clip-rule="evenodd"
    d="M9.27481 0C10.2548 0.000199327 11.1408 0.585664 11.5248 1.4873L12.0775 2.78516C12.5015 3.78073 12.2721 4.83824 11.6469 5.56934V8.9375C11.6469 10.6285 10.2753 11.9995 8.58438 12H3.70938C2.01822 11.9998 0.64493 10.6287 0.644925 8.9375V5.56738C0.0210067 4.83636 -0.207482 3.77994 0.216214 2.78516L0.768948 1.4873C1.15308 0.585604 2.03882 0 3.01895 0H9.27481ZM5.99649 7.25C5.25143 7.25045 4.64711 7.85451 4.64688 8.59961V10H7.64688V8.59961C7.64664 7.85468 7.04208 7.25074 6.29727 7.25H5.99649ZM3.01895 2C2.84056 2 2.67881 2.10645 2.60879 2.27051L2.05606 3.56934C1.86838 4.01036 2.19199 4.49987 2.67129 4.5C3.00915 4.49975 3.29448 4.24753 3.33535 3.91211L3.56778 2H3.01895ZM5.38614 3.64258C5.33129 4.09852 5.68766 4.49998 6.14688 4.5C6.60585 4.49971 6.9624 4.09834 6.90762 3.64258L6.71035 2H5.5834L5.38614 3.64258ZM8.9584 3.91211C8.9993 4.24767 9.28441 4.5 9.62246 4.5C10.1014 4.49955 10.4252 4.01016 10.2377 3.56934L9.68496 2.27051C9.61505 2.1065 9.45307 2.0002 9.27481 2H8.72598L8.9584 3.91211Z"
    fill="currentColor"
  />
</svg>
