<svg width="20" height="20" viewBox="0 0 20 20" fill="none" xmlns="http://www.w3.org/2000/svg" data-fui-icon="true">
  <g clip-path="url(#clip0_4630_21)">
    <path
      d="M13.8496 0.5C16.5354 0.5 18.7879 2.52731 19.0703 5.19824L19.9688 13.6982C20.2964 16.7988 17.8659 19.5 14.748 19.5H5.25C2.13243 19.4997 -0.298353 16.7986 0.0292969 13.6982L0.927734 5.19824C1.21008 2.52745 3.46282 0.500246 6.14844 0.5H13.8496ZM6.14844 2C4.23029 2.00025 2.62074 3.44794 2.41895 5.35547L1.52051 13.8555C1.28643 16.07 3.0232 17.9997 5.25 18H14.748C16.9751 18 18.7117 16.0702 18.4775 13.8555L17.5791 5.35547C17.3773 3.44781 15.768 2 13.8496 2H6.14844ZM13.8076 5.00195C14.2203 5.03399 14.5298 5.39482 14.498 5.80762L13.75 5.75C14.4932 5.80717 14.4981 5.80818 14.498 5.80859V5.80957L14.4971 5.81152C14.497 5.81289 14.4972 5.81469 14.4971 5.81641C14.4968 5.82007 14.4966 5.82489 14.4961 5.83008C14.4951 5.8405 14.493 5.8539 14.4912 5.87012C14.4875 5.90327 14.4821 5.94892 14.4736 6.00391C14.4567 6.11367 14.4287 6.26525 14.3828 6.44434C14.2916 6.8001 14.1258 7.28164 13.8262 7.76855C13.2045 8.7786 12.037 9.74985 10 9.75C7.9629 9.75 6.79562 8.7786 6.17383 7.76855C5.87417 7.28162 5.70844 6.80014 5.61719 6.44434C5.57127 6.26524 5.54327 6.11369 5.52637 6.00391C5.51791 5.94892 5.51253 5.90328 5.50879 5.87012C5.50696 5.8539 5.50489 5.84051 5.50391 5.83008C5.50342 5.8249 5.50324 5.82008 5.50293 5.81641C5.50278 5.81469 5.50304 5.8129 5.50293 5.81152L5.50195 5.80957V5.80859C5.50683 5.80781 5.56521 5.80268 6.25 5.75L5.50195 5.80762C5.47019 5.39465 5.77943 5.03376 6.19238 5.00195C6.60516 4.97045 6.96625 5.27958 6.99805 5.69238C6.99828 5.69471 6.99856 5.69801 6.99902 5.70215C7.00065 5.71656 7.00361 5.74169 7.00879 5.77539C7.01924 5.84328 7.03819 5.94599 7.07031 6.07129C7.1353 6.32472 7.25109 6.6562 7.45117 6.98145C7.82951 7.59613 8.53766 8.25 10 8.25C11.4622 8.24986 12.1706 7.59612 12.5488 6.98145C12.7489 6.65622 12.8647 6.32468 12.9297 6.07129C12.9618 5.946 12.9808 5.84326 12.9912 5.77539C12.9964 5.74169 12.9994 5.71655 13.001 5.70215C13.0014 5.69801 13.0017 5.6947 13.002 5.69238C13.0338 5.27944 13.3947 4.97019 13.8076 5.00195ZM6.99707 5.69238L6.99805 5.69141V5.68945L6.99707 5.68848C6.99712 5.68918 6.99691 5.69084 6.99707 5.69238Z"
      fill="currentColor"
    />
  </g>
  <defs>
    <clipPath id="clip0_4630_21"><path fill="currentColor" d="M0 0H20V20H0z" /></clipPath>
  </defs>
</svg>
