<svg width="16" height="16" viewBox="0 0 16 16" fill="none" xmlns="http://www.w3.org/2000/svg" data-fui-icon="true">
  <path
    fill-rule="evenodd"
    clip-rule="evenodd"
    d="M10.2179 1C12.1702 1 13.8254 2.43786 14.0978 4.37109L14.9659 10.5361C15.2981 12.8937 13.4678 15 11.087 15H4.91807C2.53687 14.9999 0.706353 12.893 1.03917 10.5352L1.90929 4.37012C2.18215 2.43745 3.83639 1.00011 5.78819 1H10.2179ZM10.253 4.5C9.42757 4.49844 8.75644 5.16395 8.75011 5.98828V5.96289C8.74929 5.97278 8.74695 5.99821 8.74034 6.0332C8.72587 6.10967 8.69933 6.1944 8.66026 6.26367C8.62635 6.32367 8.58843 6.3643 8.53429 6.39648C8.48134 6.42785 8.33108 6.5 7.99815 6.5C7.66575 6.49999 7.51643 6.42852 7.46397 6.39746C7.4102 6.36557 7.37267 6.32461 7.33897 6.26465C7.30035 6.19584 7.27417 6.11243 7.25987 6.03613C7.25331 6.00107 7.24992 5.97572 7.24913 5.96582C7.24923 5.96846 7.25001 5.97297 7.25011 5.97852V5.99121C7.24538 5.16683 6.5756 4.5 5.75011 4.5C4.92168 4.5 4.25011 5.17157 4.25011 6H5.75011C4.25011 6 4.25011 6.00111 4.25011 6.00195V6.0332C4.25034 6.04627 4.25142 6.06193 4.25206 6.0791C4.25336 6.11354 4.2549 6.15629 4.2589 6.20605C4.26688 6.30552 4.28211 6.4365 4.31065 6.58887C4.36661 6.88748 4.48145 7.30426 4.72374 7.73535C4.97106 8.17526 5.35539 8.63455 5.9337 8.97754C6.51369 9.32147 7.20719 9.49999 7.99815 9.5C9.67775 9.5 10.7327 8.69535 11.2735 7.73633C11.5162 7.30585 11.6321 6.89025 11.6886 6.5918C11.7174 6.43957 11.7322 6.30841 11.7403 6.20898C11.7444 6.15899 11.7468 6.11558 11.7482 6.08105C11.7488 6.06409 11.7498 6.04908 11.7501 6.03613V6.00488C11.7501 6.00404 11.7501 6.00283 10.2501 6L11.7501 6.00293C11.7517 5.17454 11.0814 4.50162 10.253 4.5Z"
    fill="currentColor"
  />
</svg>
