<svg width="20" height="20" viewBox="0 0 20 20" fill="none" xmlns="http://www.w3.org/2000/svg" data-fui-icon="true">
  <path
    fill-rule="evenodd"
    clip-rule="evenodd"
    d="M14.5328 1C16.0256 1.00019 17.3781 1.88137 17.981 3.24707L18.6998 4.875C19.3109 6.25988 18.94 7.74716 17.9996 8.70996V15.9365C17.9994 17.6277 16.6282 18.9989 14.9371 18.999H5.06206C3.37112 18.9987 1.99975 17.6275 1.99956 15.9365V8.70898C1.06 7.74613 0.690234 6.25949 1.30132 4.875L2.02007 3.24707C2.62312 1.88136 3.97535 1 5.46831 1H14.5328ZM12.7681 8.39062C12.1309 9.21259 11.1351 9.74984 10.0005 9.75C8.8655 9.75 7.86832 9.21305 7.23101 8.39062C6.59278 9.22091 5.59201 9.74991 4.47808 9.75C4.1347 9.74999 3.80713 9.69964 3.49956 9.61035V15.9365C3.49975 16.7991 4.19955 17.4987 5.06206 17.499H6.99956V13.9502C6.99967 12.8736 7.87318 12.0004 8.94976 12H11.0494C12.1261 12.0001 12.9995 12.8734 12.9996 13.9502V17.499H14.9371C15.7998 17.4989 16.4994 16.7992 16.4996 15.9365V9.61035C16.1922 9.69953 15.8651 9.74997 15.522 9.75C14.4079 9.74986 13.4063 9.22121 12.7681 8.39062ZM8.94976 13.5C8.70161 13.5004 8.49967 13.702 8.49956 13.9502V17.499H11.4996V13.9502C11.4995 13.7018 11.2977 13.5001 11.0494 13.5H8.94976ZM5.46831 2.5C4.56937 2.5 3.75517 3.03115 3.39214 3.85352L2.67339 5.48047C2.09785 6.78443 3.05277 8.24993 4.47808 8.25C5.47857 8.24985 6.32055 7.50055 6.43706 6.50684L6.90679 2.5H5.46831ZM8.01128 6.0166C7.87347 7.20601 8.80317 8.25 10.0005 8.25C11.1976 8.2497 12.1276 7.20582 11.9898 6.0166L11.5826 2.5H8.41851L8.01128 6.0166ZM13.563 6.50684C13.6796 7.50051 14.5216 8.24978 15.522 8.25C16.9472 8.2498 17.9021 6.78437 17.3267 5.48047L16.6089 3.85352C16.246 3.03124 15.4315 2.50019 14.5328 2.5H13.0933L13.563 6.50684Z"
    fill="currentColor"
  />
</svg>
