<svg width="20" height="20" viewBox="0 0 20 20" fill="none" xmlns="http://www.w3.org/2000/svg" data-fui-icon="true">
  <path
    fill-rule="evenodd"
    clip-rule="evenodd"
    d="M14.0255 1C15.9324 1.00045 17.6279 2.21745 18.2374 4.02441L18.837 5.80176C19.3245 7.24728 18.9256 8.72184 18.0001 9.72949V15.9365C18.0001 17.6277 16.6287 18.9988 14.9376 18.999H14.2267C14.2139 18.9992 14.2004 19 14.1876 19H5.8126C5.79983 19 5.78628 18.9992 5.77353 18.999H5.0626C3.37142 18.9988 2.00013 17.6277 2.0001 15.9365V9.72852C1.07507 8.72082 0.677682 7.24697 1.16513 5.80176L1.76474 4.02441C2.37442 2.21722 4.06938 1.00001 5.97666 1H14.0255ZM9.70029 11.75C8.62362 11.7503 7.7501 12.6234 7.7501 13.7002V16H12.2501V13.7002C12.2501 12.6234 11.3766 11.7503 10.2999 11.75H9.70029ZM5.97666 4C5.35674 4.00001 4.80575 4.39605 4.60752 4.9834L4.00791 6.76074C3.80263 7.36934 4.25532 7.99982 4.89756 8C5.3744 7.99955 5.7768 7.6418 5.83115 7.16797L6.19443 4H5.97666ZM8.90146 6.76953C8.82736 7.42548 9.34089 8 10.0011 8C10.6608 7.99941 11.1738 7.42514 11.0997 6.76953L10.7862 4H9.21494L8.90146 6.76953ZM14.171 7.16797C14.2255 7.64204 14.6274 8 15.1046 8C15.7462 7.99911 16.1991 7.36893 15.9942 6.76074L15.3946 4.9834C15.1966 4.39625 14.6451 4.00045 14.0255 4H13.8077L14.171 7.16797Z"
    fill="currentColor"
  />
</svg>
