<svg width="32" height="32" viewBox="0 0 32 32" fill="none" xmlns="http://www.w3.org/2000/svg" data-fui-icon="true">
  <path
    fill-rule="evenodd"
    clip-rule="evenodd"
    d="M23.4604 1.00046C26.0373 1.00075 28.3711 2.52353 29.4087 4.88229L30.6011 7.59225C31.7321 10.1642 30.9037 12.9386 29.0005 14.5698V26.5512C28.9995 29.008 27.0071 31.0012 24.5503 31.0014H7.45066C4.99357 31.0014 3.0014 29.0081 3.00046 26.5512V14.5708C1.09639 12.9397 0.268466 10.1647 1.39988 7.59225L2.59226 4.88229C3.62987 2.52339 5.9635 1.00058 8.5405 1.00046H23.4604ZM14.6704 19.0014C13.1958 19.0015 12.0005 20.1968 12.0005 21.6714V28.0014H20.0005V21.6714C20.0004 20.197 18.8049 19.0017 17.3305 19.0014H14.6704ZM8.5405 4.00046C7.15322 4.00058 5.89693 4.82042 5.33836 6.0903L4.14597 8.80026C3.27575 10.7791 4.72538 13.0004 6.88718 13.0005C8.40603 13.0002 9.68518 11.8625 9.86179 10.354L10.604 4.00046H8.5405ZM12.978 9.60886C12.7697 11.4151 14.1821 13.0005 16.0005 13.0005C17.8185 13.0002 19.2311 11.4149 19.0229 9.60886L18.3755 4.00046H13.6255L12.978 9.60886ZM22.1391 10.354C22.3158 11.8626 23.5947 13.0005 25.1137 13.0005C27.2752 13.0001 28.7248 10.7789 27.855 8.80026L26.6626 6.0903C26.1041 4.82055 24.8475 4.00075 23.4604 4.00046H21.3969L22.1391 10.354Z"
    fill="currentColor"
  />
</svg>
