<svg width="20" height="20" viewBox="0 0 20 20" fill="none" xmlns="http://www.w3.org/2000/svg" data-fui-icon="true">
  <path
    fill-rule="evenodd"
    clip-rule="evenodd"
    d="M13.2936 1C15.548 1.00025 17.455 2.66886 17.7545 4.90332L18.9606 13.9014C19.3222 16.6003 17.2226 18.9997 14.4996 19H5.50548C2.78224 19 0.68279 16.6005 1.04455 13.9014L2.2506 4.90332C2.55014 2.66872 4.45694 1 6.71154 1H13.2936ZM12.9996 5.25C12.5868 5.25014 12.2517 5.58377 12.2496 5.99609C12.2496 5.99762 12.2498 6.00224 12.2496 6.00879C12.2492 6.02189 12.2479 6.04449 12.2457 6.0752C12.2413 6.13729 12.2316 6.23143 12.2125 6.3457C12.1738 6.57778 12.0981 6.87623 11.9537 7.16504C11.8107 7.45087 11.6079 7.71396 11.318 7.90723C11.0326 8.09742 10.6182 8.25 9.99962 8.25C9.38104 8.24995 8.9666 8.09745 8.68127 7.90723C8.39144 7.71394 8.1885 7.45085 8.04552 7.16504C7.90114 6.87624 7.82544 6.57776 7.78673 6.3457C7.76769 6.23143 7.75797 6.13728 7.75353 6.0752C7.75134 6.04449 7.75006 6.02189 7.74962 6.00879V5.99609C7.74752 5.58368 7.41253 5.25 6.99962 5.25C6.58554 5.25016 6.24962 5.58589 6.24962 6H6.99962C6.25002 6.00002 6.24962 6.00059 6.24962 6.00098V6.02051C6.24978 6.03032 6.25009 6.04323 6.2506 6.05859C6.25163 6.08941 6.25379 6.13151 6.25744 6.18262C6.26472 6.28449 6.2785 6.42514 6.30627 6.5918C6.36131 6.92204 6.47338 7.37411 6.70373 7.83496C6.93569 8.29887 7.29568 8.78617 7.84923 9.15527C8.40754 9.52748 9.11853 9.74995 9.99962 9.75C10.8808 9.75 11.5917 9.52745 12.15 9.15527C12.7036 8.78619 13.0635 8.29889 13.2955 7.83496C13.5259 7.37409 13.6379 6.92206 13.693 6.5918C13.7208 6.42513 13.7345 6.2845 13.7418 6.18262C13.7455 6.13151 13.7476 6.08941 13.7486 6.05859C13.7492 6.04322 13.7495 6.03032 13.7496 6.02051V6C13.7496 5.58579 13.4138 5.25001 12.9996 5.25Z"
    fill="currentColor"
  />
</svg>
