<svg width="12" height="12" viewBox="0 0 12 12" fill="none" xmlns="http://www.w3.org/2000/svg" data-fui-icon="true">
  <path
    fill-rule="evenodd"
    clip-rule="evenodd"
    d="M7.89111 0C9.66122 7.92725e-05 11.1528 1.32184 11.3657 3.0791L11.9712 8.0791C12.2237 10.1638 10.5965 12 8.49658 12H3.50244C1.40275 11.9998 -0.224656 10.1636 0.0278296 8.0791L0.633298 3.0791C0.846192 1.322 2.33802 0.00032763 4.10791 0H7.89111ZM4.10791 2C3.34962 2.00033 2.70996 2.56651 2.61865 3.31934L2.01318 8.31934C1.90498 9.21261 2.60268 9.99975 3.50244 10H8.49658C9.39654 10 10.0941 9.21277 9.98584 8.31934L9.38037 3.31934C9.28901 2.56638 8.6496 2.00008 7.89111 2H4.10791ZM7.61474 3.00977C8.16112 2.93181 8.66817 3.31198 8.74658 3.8584L7.75635 4C8.74587 3.85802 8.7465 3.85882 8.74658 3.85938V3.8623C8.74682 3.86399 8.7473 3.86626 8.74756 3.86816C8.74807 3.87195 8.74893 3.87619 8.74951 3.88086C8.7507 3.89038 8.75204 3.90197 8.75342 3.91504C8.75616 3.94114 8.75881 3.97438 8.76123 4.01367C8.76604 4.09201 8.7691 4.19749 8.76318 4.32129C8.75162 4.56284 8.70504 4.90864 8.54931 5.27051C8.38909 5.64269 8.11133 6.03255 7.65576 6.32129C7.20376 6.60762 6.64653 6.74995 5.99853 6.75C5.35057 6.74996 4.79327 6.60789 4.34131 6.32129C3.88563 6.03222 3.60847 5.64109 3.44873 5.26855C3.29365 4.90657 3.24795 4.56077 3.23681 4.31934C3.23111 4.19559 3.23382 4.09001 3.23877 4.01172C3.24125 3.9725 3.24477 3.93914 3.24756 3.91309C3.24894 3.90012 3.25027 3.88836 3.25146 3.87891C3.25204 3.87433 3.25291 3.86992 3.25342 3.86621C3.25366 3.86449 3.25418 3.86286 3.25439 3.86133V3.85742C3.25894 3.85755 3.32355 3.86628 4.24463 4L3.25439 3.85645C3.33376 3.30992 3.84164 2.9314 4.38818 3.01074C4.93337 3.09025 5.31136 3.59545 5.23388 4.14062L5.23486 4.13965V4.22754C5.23887 4.31404 5.25534 4.4062 5.2876 4.48145C5.31533 4.54591 5.3515 4.59299 5.4126 4.63184C5.47797 4.67323 5.64307 4.74996 5.99853 4.75C6.35419 4.74995 6.51968 4.67348 6.58545 4.63184C6.64736 4.59254 6.68437 4.54461 6.7124 4.47949C6.74483 4.40401 6.761 4.31201 6.76513 4.22559C6.76705 4.18551 6.7662 4.1541 6.76513 4.13672L6.76416 4.12695C6.69479 3.58607 7.0731 3.08748 7.61474 3.00977Z"
    fill="currentColor"
  />
</svg>
