<svg width="24" height="24" viewBox="0 0 24 24" fill="none" xmlns="http://www.w3.org/2000/svg" data-fui-icon="true">
  <path
    fill-rule="evenodd"
    clip-rule="evenodd"
    d="M17.4521 1C19.4255 1 21.1952 2.21562 21.9033 4.05762L22.7275 6.20117C23.3219 7.74808 22.9535 9.35716 22 10.4873C22 10.4915 22.0009 10.4958 22.0009 10.5V19.2246C22.0008 21.3091 20.31 22.9996 18.2256 23H5.77634C3.69154 23 2.0001 21.3094 1.99997 19.2246V10.4883C1.04617 9.35813 0.677966 7.74823 1.27243 6.20117L2.09665 4.05762C2.80467 2.21565 4.57446 1.00008 6.54782 1H17.4521ZM15.4033 10.3896C14.5993 11.3674 13.3812 12 12 12C10.6183 11.9999 9.39863 11.368 8.5947 10.3896C7.80861 11.3758 6.59915 11.9999 5.25681 12C4.81541 12 4.39483 11.9327 4.00095 11.8125V19.2246C4.00108 20.2048 4.79611 21 5.77634 21H8.00095V16.4404C8.00108 15.093 9.09388 14 10.4414 14H13.5605C14.9076 14.0004 16.0008 15.0932 16.0009 16.4404V21H18.2256C19.2054 20.9996 20.0008 20.2045 20.0009 19.2246V11.8115C19.6065 11.9321 19.1852 12 18.7431 12C17.4004 11.9999 16.1893 11.3763 15.4033 10.3896ZM10.4414 16C10.1985 16 10.0011 16.1975 10.0009 16.4404V21H14.0009V16.4404C14.0008 16.1978 13.8031 16.0004 13.5605 16H10.4414ZM6.54782 3C5.40213 3.00008 4.37488 3.70597 3.96384 4.77539L3.13962 6.91895C2.56914 8.40412 3.66579 9.99987 5.25681 10C6.40739 9.99992 7.37521 9.13794 7.50876 7.99512L8.09274 3H6.54782ZM9.60934 7.31738C9.44443 8.74633 10.5615 9.99989 12 10C13.4385 9.99998 14.5555 8.74639 14.3906 7.31738L13.8925 3H10.1074L9.60934 7.31738ZM16.4912 7.99512C16.6247 9.13793 17.5926 9.99985 18.7431 10C20.3343 10 21.4308 8.40421 20.8603 6.91895L20.0361 4.77539C19.625 3.70595 18.5979 3 17.4521 3H15.9072L16.4912 7.99512Z"
    fill="currentColor"
  />
</svg>
