<svg width="24" height="24" viewBox="0 0 24 24" fill="none" xmlns="http://www.w3.org/2000/svg" data-fui-icon="true">
  <path
    d="M15.6797 1C18.4229 1 20.7595 2.99252 21.1934 5.70117L22.9287 16.5322C23.4722 19.9255 20.8506 23 17.4141 23H6.58887C3.15259 22.9996 0.531631 19.9253 1.0752 16.5322L2.81055 5.70117C3.24452 2.99266 5.58216 1.0001 8.3252 1H15.6797ZM8.41406 6.50195C7.58673 6.54348 6.94975 7.24785 6.99121 8.0752L8.48926 8C7.07686 8.07078 6.9958 8.07609 6.99121 8.07715V8.08203C6.99135 8.0846 6.99201 8.08786 6.99219 8.09082C6.99253 8.0966 6.99267 8.10314 6.99316 8.11035C6.99418 8.1252 6.99527 8.14339 6.99707 8.16406C7.0007 8.20562 7.00644 8.25912 7.01465 8.32227C7.03104 8.44827 7.05875 8.61712 7.10547 8.81445C7.19765 9.20377 7.37182 9.73655 7.7041 10.2812C8.41875 11.4526 9.76791 12.5 11.999 12.5C14.2297 12.4999 15.5798 11.4529 16.2959 10.2832C16.6291 9.73895 16.8045 9.20655 16.8975 8.81738C16.9446 8.62014 16.9726 8.45115 16.9893 8.3252C16.9976 8.26237 17.0031 8.20939 17.0068 8.16797C17.0087 8.14736 17.0097 8.12909 17.0107 8.11426C17.0113 8.1068 17.0123 8.09967 17.0127 8.09375V8.08008L15.5156 8L17.0127 8.07812C17.0558 7.25108 16.4207 6.54547 15.5938 6.50195C14.7674 6.45875 14.0623 7.093 14.0176 7.91895V7.91113L14.0146 7.93262C14.0096 7.97074 13.9995 8.03654 13.9795 8.12012C13.9381 8.29338 13.8632 8.51115 13.7373 8.7168C13.5352 9.04692 13.127 9.49991 11.999 9.5C10.8711 9.5 10.4651 9.0473 10.2646 8.71875C10.1395 8.51361 10.0654 8.29615 10.0244 8.12305C10.0046 8.03937 9.99421 7.97359 9.98926 7.93555L9.98633 7.90625V7.91602C9.94026 7.09308 9.23834 6.46081 8.41406 6.50195Z"
    fill="currentColor"
  />
</svg>
