<svg width="32" height="32" viewBox="0 0 32 32" fill="none" xmlns="http://www.w3.org/2000/svg" data-fui-icon="true">
  <path
    fill-rule="evenodd"
    clip-rule="evenodd"
    d="M21.1477 1C24.6898 1.00003 27.7133 3.55941 28.2991 7.05273L30.8977 22.5498C31.6389 26.9717 28.2299 30.9998 23.7463 31H8.25317C3.76926 30.9995 0.359686 26.97 1.1018 22.5479L3.70239 7.05176C4.28857 3.55899 7.31316 1.00017 10.8547 1H21.1477ZM10.8547 3C8.28998 3.00017 6.09955 4.8534 5.67505 7.38281L3.07446 22.8789C2.53704 26.0814 5.00605 28.9995 8.25317 29H23.7463C26.9934 28.9998 29.462 26.0823 28.925 22.8799L26.3264 7.38281C25.9021 4.85315 23.7127 3.00003 21.1477 3H10.8547ZM21.0862 9.5498C21.6362 9.59725 22.0435 10.0817 21.9963 10.6318L21.0002 10.5459C21.9966 10.6314 21.9964 10.6323 21.9963 10.6328V10.6357C21.9961 10.6376 21.9956 10.6403 21.9954 10.6426C21.9949 10.6474 21.9941 10.6543 21.9934 10.6611C21.992 10.6751 21.9902 10.694 21.9875 10.7158C21.9822 10.7604 21.974 10.8215 21.9622 10.8955C21.9384 11.0441 21.899 11.2493 21.8362 11.4922C21.7112 11.975 21.4871 12.6285 21.0872 13.29C20.26 14.658 18.7068 16 15.9963 16C13.2856 15.9999 11.7336 14.6578 10.9084 13.2891C10.5097 12.6274 10.2865 11.9741 10.1624 11.4912C10.0999 11.2481 10.0609 11.0422 10.0374 10.8936C10.0256 10.8194 10.0182 10.7584 10.0129 10.7139C10.0103 10.6918 10.0075 10.6732 10.0061 10.6592C10.0054 10.6523 10.0055 10.6455 10.0051 10.6406C10.0049 10.6386 10.0043 10.6364 10.0041 10.6348V10.6309C10.0078 10.6301 10.0663 10.6243 11.0002 10.5459L10.0041 10.6299C9.95794 10.0797 10.3662 9.59632 10.9163 9.5498C11.4655 9.50367 11.9485 9.91027 11.9963 10.459C11.9966 10.4622 11.9972 10.4692 11.9983 10.4785C12.0008 10.4992 12.0055 10.5343 12.0129 10.5811C12.028 10.676 12.0551 10.8191 12.0999 10.9932C12.1904 11.3453 12.3493 11.8055 12.6213 12.2568C13.1387 13.1151 14.0857 13.9999 15.9963 14C17.907 14 18.8557 13.1148 19.3752 12.2559C19.6483 11.8043 19.8095 11.3434 19.9006 10.9912C19.9456 10.8173 19.9724 10.674 19.9875 10.5791C19.995 10.5323 19.9997 10.4972 20.0022 10.4766L20.0041 10.459V10.46L20.0178 10.3594C20.1118 9.86122 20.5703 9.50565 21.0862 9.5498Z"
    fill="currentColor"
  />
</svg>
