<svg
  width="32"
  height="32"
  viewBox="0 0 32 32"
  fill="none"
  xmlns="http://www.w3.org/2000/svg"
  data-fui-icon="true"
>
  <path
    fill-rule="evenodd"
    clip-rule="evenodd"
    d="M11.3624 4.5H8.17211C6.35845 4.5 4.71292 5.56227 3.96623 7.21509L3.35516 8.56774C3.13024 9.0656 3.01392 9.60566 3.01392 10.152V10.2388C3.01392 12.3161 4.69786 14 6.77511 14C8.57828 14 10.1277 12.7203 10.4685 10.9496L10.905 8.6818L11.3624 4.5ZM11.5265 3H8.17211C5.76898 3 3.58862 4.40752 2.59925 6.59754L1.98818 7.95019C1.67559 8.64213 1.51392 9.3927 1.51392 10.152V10.2388C1.51392 12.2294 2.61944 13.9618 4.25 14.8556V24.1435C4.25 27.1018 6.64821 29.5 9.60654 29.5H12H20H22.3935C25.3518 29.5 27.75 27.1018 27.75 24.1435V14.8632C29.3882 13.9717 30.5 12.2351 30.5 10.2388V10.152C30.5 9.3927 30.3383 8.64213 30.0257 7.95019L29.4147 6.59754C28.4253 4.40752 26.2449 3 23.8418 3H20.4738H20.0155H18.4879H13.526H11.9985H11.5265ZM12.3895 8.90547L13.2373 4.5H18.7766L19.5929 8.74159L19.7149 9.85676C19.9568 12.0683 18.2248 14 16.0002 14C13.7755 14 12.0435 12.0683 12.2854 9.85676L12.3895 8.90547ZM11.3947 12.7581C10.4927 14.4117 8.7418 15.5 6.77511 15.5C6.42433 15.5 6.08157 15.4657 5.75 15.4002V24.1435C5.75 26.2734 7.47663 28 9.60654 28H11.25V21.1447C11.25 20.2364 11.9864 19.5 12.8947 19.5H19.1053C20.0136 19.5 20.75 20.2364 20.75 21.1447V28H22.3935C24.5234 28 26.25 26.2734 26.25 24.1435V15.4029C25.9228 15.4666 25.5847 15.5 25.2388 15.5C23.2671 15.5 21.5123 14.4062 20.6124 12.7456C19.7325 14.3752 18.0098 15.5 16.0002 15.5C13.9957 15.5 12.2766 14.3809 11.3947 12.7581ZM21.0774 8.51792L21.5454 10.9496C21.8862 12.7203 23.4356 14 25.2388 14C27.3161 14 29 12.3161 29 10.2388V10.152C29 9.60566 28.8837 9.0656 28.6588 8.56774L28.0477 7.21509C27.301 5.56227 25.6555 4.5 23.8418 4.5H20.6379L21.0774 8.51792ZM19.25 28H12.75V21.1447C12.75 21.0648 12.8148 21 12.8947 21H19.1053C19.1852 21 19.25 21.0648 19.25 21.1447V28Z"
    fill="currentColor"
  />
</svg>
