<svg width="12" height="12" viewBox="0 0 12 12" fill="none" xmlns="http://www.w3.org/2000/svg" data-fui-icon="true">
  <path
    d="M7.8916 0C9.6615 0.000338775 11.1533 1.32198 11.3662 3.0791L11.9717 8.0791C12.2242 10.1636 10.5968 11.9998 8.49707 12H3.50293C1.40302 12 -0.224215 10.1638 0.0283203 8.0791L0.633789 3.0791C0.846708 1.32186 2.33832 0.00010526 4.1084 0H7.8916ZM8.00684 2.75C7.31914 2.75009 6.76104 3.30551 6.75684 3.99219V3.97363C6.756 3.98363 6.75411 4.00733 6.74805 4.03906C6.73478 4.10833 6.70996 4.18647 6.67188 4.25293C6.6382 4.31162 6.59632 4.35813 6.53223 4.39551C6.46811 4.43275 6.31427 4.49988 5.99902 4.5C5.68363 4.5 5.52963 4.43254 5.46582 4.39551C5.40227 4.35845 5.3615 4.3122 5.32812 4.25391C5.2903 4.18775 5.2651 4.11025 5.25195 4.04102C5.24592 4.00918 5.24397 3.98551 5.24316 3.97559V4.00098C5.24372 3.31134 4.68487 2.75145 3.99512 2.75C3.30491 2.74892 2.74442 3.3078 2.74316 3.99805L3.99316 4C2.82831 3.99788 2.74857 3.99837 2.74316 3.99902V4.02637C2.74335 4.03752 2.74361 4.05076 2.74414 4.06543C2.74522 4.09506 2.74754 4.13184 2.75098 4.1748C2.75786 4.26071 2.77095 4.37411 2.7959 4.50586C2.84494 4.76464 2.94488 5.1249 3.15723 5.49609C3.62914 6.32083 4.54445 7 5.99902 7C7.45303 6.99974 8.36729 6.32059 8.83984 5.49707C9.05259 5.12622 9.15368 4.76649 9.20312 4.50781C9.22828 4.37612 9.24199 4.26263 9.24902 4.17676C9.25253 4.1338 9.25473 4.09699 9.25586 4.06738C9.25642 4.05265 9.25663 4.03951 9.25684 4.02832V4.00098C9.25441 4.0003 9.2001 3.99984 8.00684 4H9.25684C9.25674 3.3098 8.69697 2.75016 8.00684 2.75Z"
    fill="currentColor"
  />
</svg>
