<svg width="12" height="12" viewBox="0 0 12 12" fill="none" xmlns="http://www.w3.org/2000/svg" data-fui-icon="true">
  <path
    fill-rule="evenodd"
    clip-rule="evenodd"
    d="M7.89112 0C9.66102 0.000338775 11.1529 1.32198 11.3657 3.0791L11.9712 8.0791C12.2237 10.1636 10.5963 11.9998 8.49659 12H3.50245C1.40254 12 -0.224694 10.1638 0.0278414 8.0791L0.63331 3.0791C0.846229 1.32186 2.33784 0.00010526 4.10792 0H7.89112ZM8.00636 2.75C7.31866 2.75009 6.76056 3.30551 6.75636 3.99219V3.97363C6.75553 3.98363 6.75363 4.00733 6.74757 4.03906C6.7343 4.10833 6.70948 4.18647 6.6714 4.25293C6.63773 4.31162 6.59585 4.35813 6.53175 4.39551C6.46763 4.43275 6.3138 4.49988 5.99854 4.5C5.68315 4.5 5.52915 4.43254 5.46534 4.39551C5.40179 4.35845 5.36102 4.3122 5.32765 4.25391C5.28982 4.18775 5.26462 4.11025 5.25147 4.04102C5.24544 4.00918 5.24349 3.98551 5.24269 3.97559V4.00098C5.24324 3.31134 4.68439 2.75145 3.99464 2.75C3.30443 2.74892 2.74394 3.3078 2.74269 3.99805L3.99269 4C2.82783 3.99788 2.74809 3.99837 2.74269 3.99902V4.02637C2.74287 4.03752 2.74313 4.05076 2.74366 4.06543C2.74474 4.09506 2.74706 4.13184 2.7505 4.1748C2.75738 4.26071 2.77047 4.37411 2.79542 4.50586C2.84446 4.76464 2.9444 5.1249 3.15675 5.49609C3.62867 6.32083 4.54397 7 5.99854 7C7.45255 6.99974 8.36682 6.32059 8.83937 5.49707C9.05211 5.12622 9.1532 4.76649 9.20265 4.50781C9.22781 4.37612 9.24152 4.26263 9.24854 4.17676C9.25205 4.1338 9.25425 4.09699 9.25538 4.06738C9.25594 4.05265 9.25615 4.03951 9.25636 4.02832V4.00098C9.25393 4.0003 9.19962 3.99984 8.00636 4H9.25636C9.25626 3.3098 8.6965 2.75016 8.00636 2.75Z"
    fill="currentColor"
  />
</svg>
