<svg width="24" height="24" viewBox="0 0 24 24" fill="none" xmlns="http://www.w3.org/2000/svg" data-fui-icon="true">
  <path
    fill-rule="evenodd"
    clip-rule="evenodd"
    d="M17.5945 1C19.3785 1.00016 20.9944 2.05451 21.7127 3.6875L22.6063 5.71973C23.2777 7.24645 22.9451 8.87761 21.9998 10.0166V19.4756C21.9997 19.9014 21.9244 20.3097 21.7859 20.6875C21.7662 20.7415 21.7448 20.7949 21.7225 20.8477C21.6333 21.0584 21.524 21.2589 21.3973 21.4463C20.7637 22.3836 19.6907 22.9999 18.4744 23H5.5252C4.30886 23 3.23599 22.3836 2.60235 21.4463C2.47564 21.2589 2.36638 21.0584 2.27716 20.8477C2.25484 20.7949 2.23347 20.7415 2.21368 20.6875C2.07524 20.3097 1.99988 19.9014 1.99981 19.4756V10.0176C1.0539 8.87851 0.721641 7.24689 1.39337 5.71973L2.28692 3.6875C3.00529 2.05448 4.62104 1.00004 6.40508 1H17.5945ZM11.1902 15C9.98078 15.0001 8.99981 15.981 8.99981 17.1904V21.457C8.99981 21.4714 9.00137 21.4857 9.00176 21.5H14.9979C14.9983 21.4857 14.9998 21.4714 14.9998 21.457V17.1904C14.9998 15.9811 14.0187 15.0002 12.8094 15H11.1902ZM6.40508 2.5C5.21601 2.50004 4.13889 3.20268 3.65997 4.29102L2.76641 6.32422C2.00461 8.0562 3.27275 9.99991 5.16485 10C6.49436 9.9998 7.614 9.00414 7.76837 7.68359L8.37383 2.5H6.40508ZM9.36016 7.03809C9.17802 8.61556 10.4119 9.99994 11.9998 10C13.5874 9.99974 14.8203 8.61623 14.6385 7.03906L14.1141 2.5H9.88458L9.36016 7.03809ZM16.2313 7.68359C16.3857 9.00422 17.5051 9.99995 18.8348 10C20.7267 9.99966 21.9949 8.05609 21.2332 6.32422L20.3397 4.29102C19.8608 3.20271 18.7835 2.50016 17.5945 2.5H15.6258L16.2313 7.68359Z"
    fill="currentColor"
  />
</svg>
