<svg width="32" height="32" viewBox="0 0 32 32" fill="none" xmlns="http://www.w3.org/2000/svg" data-fui-icon="true">
  <path
    fill-rule="evenodd"
    clip-rule="evenodd"
    d="M21.5903 1C25.0687 1.00028 28.0233 3.54612 28.5376 6.98633L30.9214 22.9365C31.5559 27.1827 28.2664 30.9999 23.9731 31H8.02684C3.73342 31 0.443973 27.1827 1.07859 22.9365L3.46336 6.98633C3.97779 3.54598 6.93301 1.00001 10.4116 1H21.5903ZM21.2837 9.00098C20.8957 8.98449 20.5637 9.2654 20.5093 9.6416L20.5024 9.71777V9.7207C20.5021 9.72604 20.5015 9.73557 20.5005 9.74902C20.4984 9.77679 20.4944 9.82158 20.4878 9.87988C20.4744 9.99672 20.4496 10.1687 20.4057 10.377C20.3173 10.797 20.1544 11.3478 19.8579 11.8906C19.2855 12.9382 18.2044 14 16.0005 14C13.7971 13.9999 12.716 12.9382 12.143 11.8906C11.8462 11.3477 11.6818 10.7961 11.5932 10.376C11.5493 10.1678 11.5256 9.99565 11.5122 9.87891C11.5055 9.82078 11.5006 9.77676 11.4985 9.74902C11.4975 9.73515 11.4969 9.72502 11.4966 9.71973C11.4964 9.71778 11.4966 9.71646 11.4966 9.71582C11.4777 9.30295 11.1285 8.98322 10.7153 9.00098C10.3015 9.01879 9.98073 9.36841 9.99852 9.78223L10.7475 9.75C10.0467 9.78012 10.0014 9.7827 9.99852 9.7832V9.79199C9.99874 9.79637 9.9991 9.80191 9.99949 9.80859C10.0003 9.8222 10.0017 9.84059 10.0034 9.86328C10.0069 9.90875 10.0129 9.97237 10.022 10.0508C10.04 10.2073 10.0716 10.4264 10.1264 10.6865C10.2356 11.2038 10.4403 11.9027 10.8266 12.6094C11.6207 14.0616 13.1663 15.4999 16.0005 15.5C18.835 15.5 20.3808 14.0618 21.1743 12.6094C21.5605 11.9024 21.7646 11.2029 21.8735 10.6855C21.9283 10.4253 21.9601 10.2064 21.978 10.0498C21.9869 9.97169 21.9921 9.90867 21.9956 9.86328C21.9973 9.84068 21.9987 9.8222 21.9995 9.80859C21.9999 9.80178 22.0002 9.79544 22.0005 9.79102C22.0006 9.78915 22.0014 9.78755 22.0014 9.78613V9.78223L22.0005 9.70508C21.9782 9.3256 21.6716 9.01748 21.2837 9.00098Z"
    fill="currentColor"
  />
</svg>
