<svg width="32" height="32" viewBox="0 0 32 32" fill="none" xmlns="http://www.w3.org/2000/svg" data-fui-icon="true">
  <path
    fill-rule="evenodd"
    clip-rule="evenodd"
    d="M21.1477 1C24.6898 1.00003 27.7133 3.55941 28.2991 7.05273L30.8977 22.5498C31.6389 26.9717 28.2299 30.9998 23.7463 31H8.25317C3.76926 30.9995 0.359686 26.97 1.1018 22.5479L3.70239 7.05176C4.28857 3.55899 7.31316 1.00017 10.8547 1H21.1477ZM10.8743 9.05078C10.0491 9.12045 9.4358 9.84657 9.50513 10.6719L11.0002 10.5459C9.60731 10.6629 9.51247 10.6716 9.5061 10.6729V10.6787C9.50633 10.681 9.50683 10.6838 9.50708 10.6865C9.50764 10.6927 9.50819 10.7007 9.50903 10.709C9.51073 10.7258 9.51289 10.7473 9.51587 10.7725C9.52187 10.8231 9.53137 10.8906 9.54419 10.9717C9.56982 11.1337 9.61109 11.3549 9.67798 11.6152C9.81049 12.1309 10.05 12.8333 10.4807 13.5479C11.3829 15.0441 13.0859 16.4999 15.9963 16.5C18.9067 16.5 20.6108 15.044 21.5149 13.5488C21.9466 12.8347 22.1872 12.1327 22.3206 11.6172C22.3878 11.357 22.4304 11.1355 22.4563 10.9736C22.4692 10.893 22.4776 10.8258 22.4836 10.7754C22.4867 10.7504 22.4897 10.7287 22.4915 10.7119C22.4923 10.7036 22.4928 10.6957 22.4934 10.6895C22.4937 10.6865 22.4941 10.6831 22.4944 10.6807V10.6758C22.4945 10.675 22.4948 10.6741 21.0002 10.5459L22.4944 10.6738C22.5651 9.84852 21.9535 9.12255 21.1282 9.05176C20.3038 8.98128 19.5782 9.59114 19.5061 10.415V10.4092L19.5051 10.417C19.5033 10.4318 19.4997 10.4603 19.4934 10.5C19.4804 10.5816 19.4568 10.7094 19.4163 10.8662C19.3336 11.1858 19.1888 11.598 18.9475 11.9971C18.5049 12.7289 17.7072 13.5 15.9963 13.5C14.286 13.4999 13.4906 12.7296 13.05 11.999C12.8097 11.6002 12.6654 11.1876 12.5833 10.8682C12.5431 10.7116 12.52 10.5844 12.5071 10.5029C12.5007 10.4627 12.4971 10.4337 12.4954 10.4189C12.4947 10.4132 12.4944 10.4093 12.4944 10.4082V10.4092C12.4195 9.58929 11.6961 8.98175 10.8743 9.05078Z"
    fill="currentColor"
  />
</svg>
