<svg width="32" height="32" viewBox="0 0 32 32" fill="none" xmlns="http://www.w3.org/2000/svg" data-fui-icon="true">
  <path
    fill-rule="evenodd"
    clip-rule="evenodd"
    d="M23.8393 1C26.1906 1.00017 28.325 2.37536 29.2963 4.5166L30.4584 7.08105C31.5527 9.49343 30.7878 12.1153 28.9995 13.6553V26.2998C28.9994 28.8955 26.8949 31 24.2993 31H7.69965C5.10416 30.9998 2.99954 28.8953 2.99945 26.2998V13.6543C1.21148 12.1142 0.445664 9.49299 1.53949 7.08105L2.70258 4.5166C3.67387 2.37539 5.80844 1.0003 8.15961 1H23.8393ZM11.3041 12.5049C10.2933 14.0181 8.57299 14.9999 6.64398 15C6.06507 15 5.5147 14.9114 4.99945 14.7549V26.2998C4.99954 27.7908 6.20872 28.9998 7.69965 29H10.9995V21.9199C10.9996 20.3076 12.307 19.0003 13.9194 19H18.0795C19.6921 19 20.9993 20.3074 20.9995 21.9199V29H24.2993C25.7904 29 26.9994 27.7909 26.9995 26.2998V14.7559C26.4844 14.9122 25.9336 15 25.3549 15C23.4259 14.9998 21.7036 14.0192 20.6928 12.5059C19.6795 14.0013 17.9685 15 15.9995 15C14.0297 14.9999 12.3173 14.0012 11.3041 12.5049ZM13.9194 21C13.4116 21.0003 12.9996 21.4121 12.9995 21.9199V29H18.9995V21.9199C18.9993 21.412 18.5875 21 18.0795 21H13.9194ZM8.15961 3C6.59342 3.0003 5.17199 3.91651 4.52484 5.34277L3.36176 7.90723C2.2796 10.2931 4.0242 12.9998 6.64398 13C8.46749 12.9998 10.0039 11.6376 10.2221 9.82715L11.0444 3H8.15961ZM12.3578 8.89844C12.0981 11.0803 13.8022 12.9998 15.9995 13C18.1966 13 19.9006 11.0812 19.6411 8.89941L18.9389 3H13.06L12.3578 8.89844ZM21.7768 9.82715C21.995 11.6375 23.5315 12.9997 25.3549 13C27.9749 13 29.7194 10.2933 28.6371 7.90723L27.4741 5.34277C26.8268 3.91648 25.4056 3.00017 23.8393 3H20.9545L21.7768 9.82715Z"
    fill="currentColor"
  />
</svg>
