<svg width="32" height="32" viewBox="0 0 32 32" fill="none" xmlns="http://www.w3.org/2000/svg" data-fui-icon="true">
  <path
    fill-rule="evenodd"
    clip-rule="evenodd"
    d="M23.4604 0.999512C26.0373 0.999795 28.3711 2.52356 29.4087 4.88232L30.601 7.59229C31.7321 10.1643 30.9038 12.9387 29.0005 14.5698V26.5503C28.9999 29.0073 27.0074 31.0002 24.5503 31.0005H7.45065C4.99335 31.0005 3.00105 29.0075 3.00046 26.5503V14.5708C1.0964 12.9397 0.268469 10.1648 1.39987 7.59229L2.59225 4.88232C3.62987 2.52342 5.96349 0.99963 8.5405 0.999512H23.4604ZM14.6704 19.0015C13.1959 19.0015 12.0005 20.1969 12.0005 21.6714V28.0005H20.0005V21.6714C20.0004 20.197 18.8049 19.0018 17.3305 19.0015H14.6704ZM8.5405 4.00049C7.15321 4.00061 5.89692 4.82045 5.33835 6.09033L4.14596 8.80029C3.27575 10.7791 4.72538 13.0005 6.88718 13.0005C8.40604 13.0003 9.68517 11.8625 9.86178 10.354L10.604 4.00049H8.5405ZM12.978 9.60889C12.7697 11.4152 14.1821 13.0005 16.0005 13.0005C17.8185 13.0002 19.2311 11.415 19.0229 9.60889L18.3755 4.00049H13.6255L12.978 9.60889ZM22.1391 10.354C22.3158 11.8626 23.5947 13.0005 25.1137 13.0005C27.2752 13.0001 28.7248 10.7789 27.8549 8.80029L26.6626 6.09033C26.104 4.82057 24.8475 4.00077 23.4604 4.00049H21.3969L22.1391 10.354Z"
    fill="currentColor"
  />
</svg>
