<svg width="12" height="12" viewBox="0 0 12 12" fill="none" xmlns="http://www.w3.org/2000/svg" data-fui-icon="true">
  <path
    fill-rule="evenodd"
    clip-rule="evenodd"
    d="M9.12819 0C10.008 0.000108663 10.8029 0.525545 11.1477 1.33496L11.7014 2.63379C12.0443 3.4393 11.9145 4.28914 11.4798 4.93359C11.492 4.98732 11.5002 5.04317 11.5003 5.10059V9.25C11.5 10.7684 10.2687 11.9998 8.75026 12H3.25026C1.73176 11.9999 0.500534 10.7685 0.500265 9.25V5.10059C0.500299 5.04286 0.507405 4.98661 0.519796 4.93262C0.0854937 4.28825 -0.0436494 3.43897 0.299093 2.63379L0.852804 1.33496C1.1977 0.525526 1.99246 0 2.87233 0H9.12819ZM4.24245 5.2793C3.80179 5.72476 3.19299 5.99993 2.52468 6C2.34319 5.99999 2.16794 5.97897 2.00026 5.94238V9.25C2.00053 9.94005 2.56019 10.4999 3.25026 10.5H4.00026V8.34961C4.00059 7.60452 4.60478 7.00034 5.34987 7H6.65066C7.39567 7.00043 7.99994 7.60457 8.00026 8.34961V10.5H8.75026C9.44027 10.4998 10 9.93999 10.0003 9.25V5.94238C9.83251 5.97902 9.65743 5.99997 9.47585 6C8.80749 6 8.19781 5.72573 7.7571 5.28027C7.30585 5.72215 6.68952 5.99993 6.00026 6C5.31046 5.99999 4.69383 5.72173 4.24245 5.2793ZM5.50026 10.5H6.50026V8.5H5.50026V10.5ZM2.87233 1.5C2.59367 1.5 2.34194 1.66651 2.23269 1.92285L1.67995 3.2207C1.42185 3.82669 1.86606 4.49986 2.52468 4.5C2.989 4.49986 3.3806 4.1533 3.43679 3.69238L3.70339 1.5H2.87233ZM4.99148 3.36328C4.91904 3.96786 5.3913 4.49998 6.00026 4.5C6.60911 4.49984 7.08146 3.96777 7.00905 3.36328L6.78444 1.5H5.21608L4.99148 3.36328ZM8.56374 3.69238C8.61993 4.15338 9.01143 4.5 9.47585 4.5C10.1342 4.49971 10.5783 3.82748 10.3206 3.22168L9.76784 1.92285C9.65865 1.66653 9.40679 1.50011 9.12819 1.5H8.29714L8.56374 3.69238Z"
    fill="currentColor"
  />
</svg>
