<svg width="24" height="24" viewBox="0 0 24 24" fill="none" xmlns="http://www.w3.org/2000/svg" data-fui-icon="true">
  <path
    fill-rule="evenodd"
    clip-rule="evenodd"
    d="M17.5949 1C19.3789 1.00012 20.9947 2.05446 21.713 3.6875L22.6066 5.71973C23.2824 7.25624 22.9408 8.89817 21.9816 10.0381C21.9931 10.0904 22.0001 10.1445 22.0001 10.2002V19.4756C21.9997 21.4218 20.421 22.9997 18.4747 23H5.52553C3.57908 22.9999 1.99961 21.4219 1.99916 19.4756V10.2002C1.99918 10.1448 2.00628 10.091 2.01771 10.0391C1.05817 8.89909 0.717745 7.25644 1.39369 5.71973L2.28724 3.6875C3.00562 2.05443 4.62131 1 6.40541 1H17.5949ZM15.4259 9.69336C14.6807 10.7774 13.4337 11.4999 12.0001 11.5C10.5664 11.5 9.31764 10.7785 8.5724 9.69434C7.82674 10.7903 6.57155 11.4999 5.16517 11.5C4.56381 11.5 4.00308 11.3731 3.50013 11.1514V19.4756C3.50058 20.5935 4.4075 21.4999 5.52553 21.5H8.54994V16.6904C8.55007 15.4811 9.53103 14.5001 10.7404 14.5H13.2599C14.4691 14.5003 15.4502 15.4812 15.4503 16.6904V21.5H18.4747C19.5926 21.4997 20.4997 20.5934 20.5001 19.4756V11.1514C19.9971 11.3733 19.4365 11.4999 18.8351 11.5C17.428 11.5 16.1715 10.7902 15.4259 9.69336ZM10.7404 16C10.3595 16.0001 10.0501 16.3095 10.0499 16.6904V21.5H13.9503V16.6904C13.9502 16.3096 13.6407 16.0003 13.2599 16H10.7404ZM6.40541 2.5C5.21628 2.5 4.13922 3.20263 3.66029 4.29102L2.76674 6.32422C2.00488 8.05624 3.27301 9.99998 5.16517 10C6.49472 9.99984 7.61432 9.00417 7.76869 7.68359L8.37416 2.5H6.40541ZM9.36049 7.03809C9.17833 8.6156 10.4121 10 12.0001 10C13.5878 9.9998 14.8206 8.61626 14.6388 7.03906L14.1144 2.5H9.8849L9.36049 7.03809ZM16.2316 7.68359C16.386 9.00425 17.5054 10 18.8351 10C20.727 9.99973 21.9952 8.05612 21.2335 6.32422L20.34 4.29102C19.8611 3.20266 18.7839 2.50012 17.5949 2.5H15.6261L16.2316 7.68359Z"
    fill="currentColor"
  />
</svg>
