<svg width="24" height="24" viewBox="0 0 24 24" fill="none" xmlns="http://www.w3.org/2000/svg" data-fui-icon="true">
  <path
    fill-rule="evenodd"
    clip-rule="evenodd"
    d="M17.0572 1C19.2684 1.00004 21.2454 2.37969 22.0084 4.45508L22.8502 6.74512C23.4707 8.43313 23.0504 10.177 21.9996 11.3936V19.4756C21.9993 21.4221 20.4208 23 18.4742 23H5.525C3.57857 22.9998 1.99995 21.422 1.99961 19.4756V11.3926C0.949478 10.1761 0.528764 8.43262 1.14902 6.74512L1.99082 4.45508C2.75371 2.37975 4.73092 1.00023 6.94199 1H17.0572ZM11.44 14.25C10.2308 14.2503 9.24961 15.2311 9.24961 16.4404V20H14.7496V16.4404C14.7496 15.2309 13.7687 14.25 12.5592 14.25H11.44ZM6.94199 4C5.9886 4.00023 5.13619 4.59535 4.80723 5.49023L3.96543 7.78027C3.56974 8.85701 4.36628 9.99944 5.51328 10C6.35362 9.99999 7.06054 9.36834 7.15391 8.5332L7.65977 4H6.94199ZM10.235 8.03027C10.119 9.08107 10.9425 9.99973 11.9996 10C13.057 9.99997 13.8793 9.08124 13.7633 8.03027L13.3189 4H10.6803L10.235 8.03027ZM16.8453 8.5332C16.9386 9.36824 17.6458 9.99977 18.4859 10C19.6332 9.9997 20.4297 8.85719 20.0338 7.78027L19.192 5.49023C18.8629 4.59529 18.0107 4.00004 17.0572 4H16.3395L16.8453 8.5332Z"
    fill="currentColor"
  />
</svg>
