<svg width="12" height="12" viewBox="0 0 12 12" fill="none" xmlns="http://www.w3.org/2000/svg" data-fui-icon="true">
  <path
    fill-rule="evenodd"
    clip-rule="evenodd"
    d="M9.16867 6.68652C9.61806 6.36552 10.2422 6.46954 10.5632 6.91893L11.8131 8.66888C12.0614 9.01655 12.0614 9.4833 11.8131 9.83095L10.5632 11.5809C10.2421 12.0299 9.61792 12.1342 9.16867 11.8133C8.71946 11.4924 8.61565 10.8682 8.93625 10.4188L9.05734 10.2499H7.5525C6.9214 10.2497 6.31864 9.98598 5.89045 9.52237C5.51611 9.11684 5.54112 8.48402 5.94611 8.10933C6.35177 7.73487 6.98451 7.7596 7.35915 8.16499C7.40877 8.21873 7.47937 8.24981 7.5525 8.24995H9.05734L8.93625 8.08101C8.61536 7.63175 8.71964 7.00761 9.16867 6.68652ZM9.16867 0.186716C9.61806 -0.134266 10.2422 -0.0302463 10.5632 0.419131L11.8131 2.16908C12.0614 2.51675 12.0614 2.98351 11.8131 3.33115L10.5632 5.0811C10.2421 5.53013 9.61792 5.63441 9.16867 5.31351C8.71943 4.99261 8.61564 4.36838 8.93625 3.91902L9.05734 3.75008H8.29174C7.55617 3.7502 6.87984 4.15419 6.53105 4.80181L4.73032 8.14643C4.03261 9.44173 2.67926 10.2499 1.20797 10.2499H0.999969C0.447993 10.2497 0.000235855 9.80188 0 9.24992C0 8.69775 0.447847 8.25012 0.999969 8.24995H1.20797C1.94347 8.24995 2.61974 7.84564 2.96866 7.19822L4.77036 3.8536C5.46798 2.55824 6.82048 1.75026 8.29174 1.75014H9.05734L8.93625 1.5812C8.61537 1.13195 8.71963 0.507799 9.16867 0.186716ZM1.94721 1.75014C2.57846 1.75018 3.18098 2.01394 3.60926 2.47766C3.98369 2.88332 3.95897 3.51607 3.5536 3.8907C3.14794 4.26477 2.51509 4.24026 2.14056 3.83504C2.09085 3.78119 2.02049 3.75012 1.94721 3.75008H0.999969C0.448004 3.74989 0.000216661 3.30208 0 2.75011C0 2.19797 0.44787 1.75034 0.999969 1.75014H1.94721Z"
    fill="currentColor"
  />
</svg>
