<svg width="12" height="12" viewBox="0 0 12 12" fill="none" xmlns="http://www.w3.org/2000/svg" data-fui-icon="true">
  <path
    fill-rule="evenodd"
    clip-rule="evenodd"
    d="M9.29943 6.64989C9.63068 6.40145 10.1016 6.46821 10.3502 6.7993L11.8501 8.79922C12.05 9.06583 12.05 9.43296 11.8501 9.69957L10.3502 11.6995C10.1016 12.0308 9.63077 12.0974 9.29943 11.8489C8.96869 11.6003 8.90172 11.1303 9.15002 10.7991L9.7496 9.99937H8.10514C7.19132 9.99919 6.31888 9.61713 5.69899 8.9457C5.41842 8.64143 5.43702 8.16706 5.74098 7.88617C6.04517 7.60538 6.51951 7.62427 6.8005 7.92816C7.13646 8.29211 7.60985 8.49925 8.10514 8.49943H9.7496L9.15002 7.69965C8.9019 7.36849 8.96863 6.89844 9.29943 6.64989ZM9.29943 0.150156C9.6307 -0.0982964 10.1016 -0.0315688 10.3502 0.299564L11.8501 2.29948C12.05 2.56609 12.05 2.93322 11.8501 3.19984L10.3502 5.19976C10.1016 5.53107 9.63077 5.59767 9.29943 5.34916C8.96867 5.10052 8.90171 4.63053 9.15002 4.2994L9.7496 3.49963H8.29165C7.46409 3.49975 6.70266 3.95452 6.31029 4.68317L4.50958 8.02777C3.85549 9.24214 2.58731 9.99937 1.20796 9.99937H0.749969C0.335919 9.99919 0 9.66349 0 9.2494C9.06321e-05 8.83538 0.335974 8.4996 0.749969 8.49943H1.20796C2.03565 8.49943 2.7969 8.04463 3.18932 7.31588L4.99003 3.97129C5.64406 2.75699 6.91242 1.99981 8.29165 1.99969H9.7496L9.15002 1.19992C8.90185 0.868739 8.96858 0.398706 9.29943 0.150156ZM1.39447 1.99969C2.3083 1.99976 3.18067 2.38201 3.80063 3.05336C4.08151 3.35764 4.0628 3.83192 3.75864 4.11289C3.45435 4.39367 2.98004 4.37502 2.69911 4.0709C2.36309 3.70704 1.88976 3.4997 1.39447 3.49963H0.749969C0.335941 3.49943 0 3.16373 0 2.74966C0.000109928 2.33568 0.336009 1.99989 0.749969 1.99969H1.39447Z"
    fill="currentColor"
  />
</svg>
