<svg width="24" height="24" viewBox="0 0 24 24" fill="none" xmlns="http://www.w3.org/2000/svg" data-fui-icon="true">
  <path
    fill-rule="evenodd"
    clip-rule="evenodd"
    d="M17.7139 13.6656C18.313 13.0937 19.2629 13.1154 19.835 13.7144L23.335 17.3814C23.8792 17.9518 23.889 18.8461 23.3574 19.4283L19.8574 23.2623C19.2988 23.8735 18.3499 23.9162 17.7383 23.358C17.1269 22.7994 17.0843 21.8505 17.6426 21.2389L18.8486 19.9176H16.2402C14.3608 19.9174 12.5886 19.0404 11.4482 17.5465C10.9458 16.8881 11.0723 15.9466 11.7305 15.4439C12.389 14.9413 13.3304 15.0676 13.833 15.7262C14.4058 16.4766 15.2962 16.9174 16.2402 16.9176H18.7451L17.665 15.7867C17.0932 15.1876 17.1151 14.2377 17.7139 13.6656ZM17.7383 0.643151C18.35 0.0846642 19.2988 0.127379 19.8574 0.738854L23.3574 4.57284C23.8888 5.15512 23.8793 6.04945 23.335 6.61971L19.835 10.2867C19.263 10.8854 18.313 10.9072 17.7139 10.3355C17.1149 9.76357 17.0933 8.81362 17.665 8.21444L18.7451 7.08358H17.208C15.4662 7.08359 13.862 8.03073 13.0195 9.55526L9.60645 15.731C8.23572 18.2109 5.62552 19.7506 2.79199 19.7506H1.75C0.921723 19.7506 0.25023 19.0788 0.25 18.2506C0.25 17.4222 0.921581 16.7506 1.75 16.7506H2.79199C4.53361 16.7506 6.13788 15.8041 6.98047 14.2799L10.3936 8.10409C11.7642 5.62387 14.3743 4.08359 17.208 4.08358H18.8486L17.6426 2.76229C17.0842 2.15069 17.127 1.2018 17.7383 0.643151ZM3.75879 4.25057C5.63858 4.25057 7.41129 5.12737 8.55176 6.62167C9.0541 7.28018 8.92793 8.22166 8.26953 8.72421C7.6111 9.22653 6.66959 9.10017 6.16699 8.44198C5.59404 7.69123 4.7032 7.25057 3.75879 7.25057H1.75C0.921718 7.25056 0.250224 6.5788 0.25 5.75057C0.25 4.92215 0.92158 4.25058 1.75 4.25057H3.75879Z"
    fill="currentColor"
  />
</svg>
