<svg width="20" height="20" viewBox="0 0 20 20" fill="none" xmlns="http://www.w3.org/2000/svg" data-fui-icon="true">
  <path
    fill-rule="evenodd"
    clip-rule="evenodd"
    d="M15.2695 11.6739C15.5877 11.4088 16.061 11.4516 16.3262 11.7696L18.8262 14.7696C19.0579 15.0478 19.0579 15.4524 18.8262 15.7306L16.3262 18.7306C16.061 19.0485 15.5876 19.0913 15.2695 18.8263C14.9515 18.5611 14.9088 18.0878 15.1738 17.7696L16.6484 16.0001H14.1924C12.53 16.0001 10.9688 15.2019 9.99512 13.8546C9.7526 13.519 9.82772 13.0504 10.1631 12.8077C10.4988 12.5651 10.9683 12.6401 11.2109 12.9757C11.9026 13.9327 13.0115 14.5001 14.1924 14.5001H16.6484L15.1738 12.7306C14.9087 12.4124 14.9516 11.9391 15.2695 11.6739ZM15.2695 1.17391C15.5877 0.90879 16.061 0.951569 16.3262 1.26962L18.8262 4.26962C19.0579 4.54775 19.0579 4.95244 18.8262 5.23056L16.3262 8.23056C16.061 8.5485 15.5876 8.59131 15.2695 8.32626C14.9515 8.06107 14.9088 7.58777 15.1738 7.26962L16.6484 5.50009H14.3242C12.7235 5.50009 11.2492 6.37068 10.4766 7.77255L7.62305 12.9513C6.58667 14.8319 4.60925 16.0001 2.46191 16.0001H1.75C1.33582 16.0001 1.00005 15.6643 1 15.2501C1 14.8359 1.33579 14.5001 1.75 14.5001H2.46191C4.0626 14.5001 5.53698 13.6295 6.30957 12.2276L9.16309 7.04891C10.1995 5.16825 12.1769 4.00009 14.3242 4.00009H16.6484L15.1738 2.23056C14.9087 1.91244 14.9516 1.43913 15.2695 1.17391ZM2.59375 4.00009C4.25607 4.00021 5.81738 4.79823 6.79102 6.14559C7.03354 6.48132 6.95777 6.94989 6.62207 7.19247C6.28643 7.43495 5.81783 7.36 5.5752 7.0245C4.88358 6.06739 3.77457 5.50021 2.59375 5.50009H1.75C1.33583 5.50008 1.00007 5.16424 1 4.75009C1 4.33588 1.33579 4.00009 1.75 4.00009H2.59375Z"
    fill="currentColor"
  />
</svg>
