<svg width="24" height="24" viewBox="0 0 24 24" fill="none" xmlns="http://www.w3.org/2000/svg" data-fui-icon="true">
  <path
    d="M17.7139 13.6655C18.313 13.0936 19.2629 13.1154 19.835 13.7144L23.335 17.3813C23.8792 17.9517 23.889 18.846 23.3574 19.4282L19.8574 23.2622C19.2988 23.8734 18.3499 23.9161 17.7383 23.3579C17.1269 22.7994 17.0843 21.8504 17.6426 21.2388L18.8486 19.9175H16.2402C14.3608 19.9173 12.5886 19.0403 11.4482 17.5464C10.9458 16.888 11.0723 15.9465 11.7305 15.4438C12.389 14.9413 13.3304 15.0675 13.833 15.7261C14.4058 16.4765 15.2962 16.9173 16.2402 16.9175H18.7451L17.665 15.7866C17.0932 15.1875 17.1151 14.2376 17.7139 13.6655ZM17.7383 0.643066C18.35 0.0845798 19.2988 0.127295 19.8574 0.73877L23.3574 4.57275C23.8888 5.15504 23.8793 6.04937 23.335 6.61963L19.835 10.2866C19.263 10.8853 18.313 10.9071 17.7139 10.3354C17.1149 9.76349 17.0933 8.81353 17.665 8.21436L18.7451 7.0835H17.208C15.4662 7.0835 13.862 8.03064 13.0195 9.55518L9.60645 15.731C8.23572 18.2108 5.62552 19.7505 2.79199 19.7505H1.75C0.921723 19.7505 0.25023 19.0787 0.25 18.2505C0.25 17.4221 0.921581 16.7505 1.75 16.7505H2.79199C4.53361 16.7505 6.13788 15.804 6.98047 14.2798L10.3936 8.104C11.7642 5.62378 14.3743 4.0835 17.208 4.0835H18.8486L17.6426 2.76221C17.0842 2.15061 17.127 1.20172 17.7383 0.643066ZM3.75879 4.25049C5.63858 4.25049 7.41129 5.12729 8.55176 6.62158C9.0541 7.2801 8.92793 8.22158 8.26953 8.72412C7.6111 9.22644 6.66959 9.10009 6.16699 8.44189C5.59404 7.69114 4.7032 7.25049 3.75879 7.25049H1.75C0.921718 7.25048 0.250224 6.57872 0.25 5.75049C0.25 4.92207 0.92158 4.2505 1.75 4.25049H3.75879Z"
    fill="currentColor"
  />
</svg>
