<svg width="24" height="24" viewBox="0 0 24 24" fill="none" xmlns="http://www.w3.org/2000/svg" data-fui-icon="true">
  <path
    fill-rule="evenodd"
    clip-rule="evenodd"
    d="M18.0596 14.026C18.459 13.6451 19.0924 13.66 19.4736 14.0592L22.9736 17.7262C23.3362 18.1064 23.3424 18.7024 22.9883 19.0905L19.4883 22.9235C19.1159 23.3313 18.484 23.3602 18.0762 22.9879C17.6686 22.6155 17.6395 21.9836 18.0117 21.5758L19.9824 19.4166H16.9873C14.7928 19.4165 12.7239 18.3926 11.3926 16.6481C11.0578 16.2091 11.1421 15.5817 11.5811 15.2467C12.0199 14.912 12.6473 14.9957 12.9824 15.4342C13.9354 16.683 15.4164 17.4165 16.9873 17.4166H19.9131L18.0264 15.4401C17.6454 15.0405 17.6602 14.4072 18.0596 14.026ZM18.0762 1.01136C18.484 0.639337 19.116 0.668265 19.4883 1.07581L22.9883 4.90882C23.3426 5.29683 23.3361 5.89282 22.9736 6.27307L19.4736 9.94007C19.0923 10.3395 18.4591 10.3545 18.0596 9.97327C17.6603 9.59196 17.6452 8.95865 18.0264 8.55921L19.9131 6.58264H17.208C15.2843 6.58265 13.5126 7.62851 12.582 9.31214L9.16895 15.4879C7.88633 17.8089 5.44376 19.2496 2.79199 19.2496H1.75C1.19772 19.2496 0.75 18.8019 0.75 18.2496C0.750202 17.6975 1.19785 17.2496 1.75 17.2496H2.79199C4.71582 17.2496 6.48745 16.204 7.41797 14.5201L10.8311 8.34436C12.1137 6.02367 14.5564 4.58265 17.208 4.58264H19.9824L18.0117 2.42347C17.6397 2.0156 17.6684 1.38364 18.0762 1.01136ZM3.0127 4.74964C5.20711 4.74974 7.27603 5.77382 8.60742 7.51819C8.94234 7.95716 8.85779 8.58449 8.41895 8.91956C7.97992 9.25447 7.3526 9.17006 7.01758 8.73108C6.06452 7.48255 4.58342 6.74974 3.0127 6.74964H1.75C1.19772 6.74963 0.75 6.30192 0.75 5.74964C0.750209 5.19754 1.19785 4.74965 1.75 4.74964H3.0127Z"
    fill="currentColor"
  />
</svg>
