<svg width="16" height="16" viewBox="0 0 16 16" fill="none" xmlns="http://www.w3.org/2000/svg" data-fui-icon="true">
  <path
    fill-rule="evenodd"
    clip-rule="evenodd"
    d="M12.1504 9.4504C12.5922 9.11917 13.2185 9.20882 13.5498 9.6506L15.0498 11.6506C15.3161 12.0061 15.3163 12.4944 15.0498 12.8498L13.5498 14.8498C13.2185 15.2913 12.5921 15.381 12.1504 15.05C11.7087 14.7187 11.6192 14.0924 11.9502 13.6506L12.251 13.2502H10.9238C9.697 13.2502 8.55327 12.6278 7.88672 11.5979C7.58699 11.1343 7.72015 10.515 8.18359 10.215C8.64724 9.91529 9.26645 10.0484 9.56641 10.5119C9.86443 10.9721 10.3755 11.2502 10.9238 11.2502H12.251L11.9502 10.8498C11.619 10.4081 11.7088 9.78176 12.1504 9.4504ZM12.1504 0.950401C12.5922 0.619169 13.2185 0.708821 13.5498 1.1506L15.0498 3.1506C15.3162 3.50607 15.3163 3.9944 15.0498 4.34982L13.5498 6.34982C13.2185 6.79135 12.5921 6.88104 12.1504 6.55001C11.7087 6.21873 11.6192 5.5924 11.9502 5.1506L12.251 4.75021H11.4082C10.297 4.75021 9.27673 5.36486 8.75684 6.34689L6.51074 10.59C5.64415 12.2266 3.94361 13.2502 2.0918 13.2502H1.75C1.19783 13.2502 0.750183 12.8023 0.75 12.2502C0.75 11.6979 1.19772 11.2502 1.75 11.2502H2.0918C3.20285 11.2502 4.22322 10.6354 4.74316 9.65353L6.98926 5.41036C7.8558 3.77371 9.55629 2.75021 11.4082 2.75021H12.251L11.9502 2.34982C11.619 1.90805 11.7088 1.28177 12.1504 0.950401ZM2.57617 2.75021C3.8031 2.75021 4.94675 3.37246 5.61328 4.40255C5.91284 4.86617 5.7799 5.48546 5.31641 5.78536C4.85286 6.08494 4.23358 5.95181 3.93359 5.48849C3.63559 5.02817 3.12455 4.75021 2.57617 4.75021H1.75C1.19783 4.75021 0.750186 4.30233 0.75 3.75021C0.75 3.19792 1.19772 2.75021 1.75 2.75021H2.57617Z"
    fill="currentColor"
  />
</svg>
