<svg width="32" height="32" viewBox="0 0 32 32" fill="none" xmlns="http://www.w3.org/2000/svg" data-fui-icon="true">
  <path
    fill-rule="evenodd"
    clip-rule="evenodd"
    d="M24.2412 18.1399C24.8542 17.5829 25.8032 17.6286 26.3604 18.2414L31.3604 23.7414C31.88 24.3135 31.88 25.187 31.3604 25.759L26.3604 31.259C25.8032 31.8718 24.8542 31.9174 24.2412 31.3606C23.6284 30.8034 23.5828 29.8544 24.1396 29.2414L26.8594 26.2502H21.4971C19.1284 26.2502 16.9098 25.0905 15.5576 23.1457C15.0848 22.4656 15.2526 21.5308 15.9326 21.0578C16.6127 20.585 17.5476 20.7528 18.0205 21.4328C18.8119 22.5711 20.1107 23.2502 21.4971 23.2502H26.8594L24.1396 20.259C23.5827 19.646 23.6284 18.697 24.2412 18.1399ZM24.2412 0.639867C24.8542 0.0829483 25.8032 0.128564 26.3604 0.74143L31.3604 6.24143C31.88 6.81346 31.88 7.68701 31.3604 8.25901L26.3604 13.759C25.8032 14.3718 24.8542 14.4174 24.2412 13.8606C23.6284 13.3034 23.5828 12.3544 24.1396 11.7414L26.8594 8.75022H23.1543C20.5281 8.75022 18.1124 10.1874 16.8594 12.4953L12.2773 20.9358C10.4996 24.2105 7.0719 26.2502 3.3457 26.2502H1.75C0.921617 26.2502 0.250072 25.5786 0.25 24.7502C0.25 23.9218 0.921573 23.2502 1.75 23.2502H3.3457C5.97182 23.2502 8.38761 21.813 9.64062 19.5051L14.2227 11.0647C16.0004 7.78986 19.4281 5.75022 23.1543 5.75022H26.8594L24.1396 2.75901C23.5828 2.14603 23.6284 1.19703 24.2412 0.639867ZM5.00293 5.75022C7.3716 5.75028 9.5902 6.90992 10.9424 8.85471C11.4152 9.53483 11.2474 10.4697 10.5674 10.9426C9.88729 11.4154 8.95244 11.2475 8.47949 10.5676C7.68807 9.42926 6.38935 8.75028 5.00293 8.75022H1.75C0.921615 8.75022 0.250068 8.07859 0.25 7.25022C0.25 6.42179 0.921573 5.75022 1.75 5.75022H5.00293Z"
    fill="currentColor"
  />
</svg>
