<svg width="12" height="12" viewBox="0 0 12 12" fill="none" xmlns="http://www.w3.org/2000/svg" data-fui-icon="true">
  <path
    fill-rule="evenodd"
    clip-rule="evenodd"
    d="M8.69993 6.78955C9.23012 6.3478 10.0177 6.41976 10.4596 6.9497L11.7096 8.44965C12.0958 8.91315 12.0958 9.58571 11.7096 10.0492L10.4596 11.5492C10.0177 12.0795 9.23026 12.1512 8.69993 11.7093C8.33445 11.4045 8.18656 10.9353 8.27514 10.4994H8.05835C7.4971 10.4993 6.94324 10.3685 6.44121 10.1176C5.82419 9.80878 5.5733 9.05811 5.88166 8.44086C6.19028 7.82377 6.9411 7.57324 7.55836 7.88131C7.71338 7.95881 7.88504 7.99935 8.05835 7.99947H8.27514C8.18671 7.56359 8.33432 7.09425 8.69993 6.78955ZM8.69993 0.289744C9.23014 -0.151996 10.0177 -0.080075 10.4596 0.449895L11.7096 1.94985C12.0958 2.41334 12.0957 3.0859 11.7096 3.54941L10.4596 5.04936C10.0177 5.57967 9.23026 5.65138 8.69993 5.20952C8.33473 4.90496 8.18605 4.43613 8.27416 4.00057C7.63747 4.00704 7.05322 4.35813 6.75077 4.91949L4.93051 8.30122C4.20149 9.65507 2.78762 10.4994 1.24996 10.4994C0.559773 10.4992 0 9.93966 0 9.24943C0.000178219 8.55935 0.559883 7.99964 1.24996 7.99947C1.86795 7.99947 2.43641 7.65982 2.72941 7.11571L4.54967 3.73495C5.28826 2.36344 6.7183 1.5068 8.27514 1.50064C8.1863 1.06449 8.33404 0.594671 8.69993 0.289744ZM1.35543 1.49967C2.05907 1.49967 2.74181 1.74256 3.28799 2.18617C3.82365 2.6215 3.90487 3.40819 3.46962 3.94393C3.03428 4.47961 2.2476 4.56085 1.71186 4.12556C1.61132 4.04407 1.48486 3.99959 1.35543 3.99959H1.24996C0.559795 3.99939 0 3.43984 0 2.74963C0.000197647 2.05959 0.559917 1.49987 1.24996 1.49967H1.35543Z"
    fill="currentColor"
  />
</svg>
