<svg width="12" height="12" viewBox="0 0 12 12" fill="none" xmlns="http://www.w3.org/2000/svg" data-fui-icon="true">
  <path
    fill-rule="evenodd"
    clip-rule="evenodd"
    d="M8.69984 6.78985C9.23013 6.34803 10.0176 6.41979 10.4595 6.95L11.7095 8.44994C12.0957 8.91344 12.0957 9.58598 11.7095 10.0495L10.4595 11.5494C10.0176 12.0795 9.23008 12.1513 8.69984 11.7096C8.33424 11.4048 8.18655 10.9356 8.27505 10.4997H8.05827C7.49702 10.4995 6.94317 10.3688 6.44114 10.1178C5.82407 9.80917 5.57342 9.05841 5.8816 8.44115C6.1902 7.82389 6.94094 7.57335 7.55829 7.8816C7.7133 7.9591 7.88496 7.99964 8.05827 7.99976H8.27505C8.18647 7.56387 8.3343 7.09466 8.69984 6.78985ZM8.69984 0.290114C9.23015 -0.151708 10.0176 -0.0799861 10.4595 0.450264L11.7095 1.9502C12.0957 2.4137 12.0957 3.08624 11.7095 3.54975L10.4595 5.04969C10.0176 5.57974 9.23008 5.65162 8.69984 5.20984C8.33452 4.90535 8.18605 4.43649 8.27408 4.0009C7.63734 4.00737 7.05313 4.35839 6.7507 4.91981L4.93046 8.30151C4.20141 9.65517 2.78748 10.4997 1.24995 10.4997C0.559834 10.4995 0.000108174 9.93984 0 9.24971C0 8.55949 0.559767 7.99993 1.24995 7.99976C1.86782 7.99976 2.43634 7.65995 2.72938 7.11601L4.54962 3.73529C5.28818 2.36371 6.71818 1.50716 8.27505 1.501C8.18608 1.06485 8.33404 0.595132 8.69984 0.290114ZM1.35541 1.50003C2.05916 1.50003 2.74174 1.74278 3.28795 2.18652C3.82362 2.62185 3.90487 3.40853 3.46959 3.94426C3.03421 4.47969 2.24749 4.5611 1.71184 4.1259C1.61126 4.04427 1.48496 3.99992 1.35541 3.99992H1.24995C0.559844 3.99973 8.87252e-05 3.44011 0 2.74997C0 2.05977 0.55979 1.50022 1.24995 1.50003H1.35541Z"
    fill="currentColor"
  />
</svg>
