<svg width="32" height="32" viewBox="0 0 32 32" fill="none" xmlns="http://www.w3.org/2000/svg" data-fui-icon="true">
  <path
    fill-rule="evenodd"
    clip-rule="evenodd"
    d="M24.4092 18.3252C24.92 17.8609 25.7104 17.8984 26.1748 18.4092L31.1748 23.9092C31.6082 24.386 31.6082 25.1141 31.1748 25.5908L26.1748 31.0908C25.7104 31.6015 24.92 31.6391 24.4092 31.1748C23.8984 30.7105 23.8609 29.92 24.3252 29.4092L27.4248 26H21.4971C19.2103 26 17.0682 24.8805 15.7627 23.003C15.3687 22.4362 15.5086 21.6569 16.0752 21.2627C16.642 20.8687 17.4213 21.0086 17.8154 21.5752C18.6536 22.7807 20.0288 23.5 21.4971 23.5H27.4248L24.3252 20.0908C23.8608 19.5801 23.8985 18.7896 24.4092 18.3252ZM24.4092 0.825222C24.92 0.360857 25.7104 0.398446 26.1748 0.909206L31.1748 6.40921C31.6082 6.88598 31.6082 7.61409 31.1748 8.09085L26.1748 13.5908C25.7104 14.1015 24.92 14.1391 24.4092 13.6748C23.8984 13.2105 23.8609 12.42 24.3252 11.9092L27.4248 8.50003H23.1543C20.4364 8.50003 17.9364 9.98743 16.6396 12.376L12.0576 20.8164C10.3236 24.0106 6.98023 26 3.3457 26H1.75C1.05969 26 0.500072 25.4403 0.5 24.75C0.5 24.0597 1.05964 23.5 1.75 23.5H3.3457C6.06353 23.5 8.56362 22.0126 9.86035 19.6241L14.4424 11.1836C16.1764 7.98937 19.5197 6.00003 23.1543 6.00003H27.4248L24.3252 2.59085C23.8608 2.08006 23.8985 1.28962 24.4092 0.825222ZM5.00293 6.00003C7.28974 6.00009 9.43185 7.11952 10.7373 8.9971C11.1313 9.56385 10.9914 10.3432 10.4248 10.7373C9.85808 11.1313 9.0787 10.9914 8.68457 10.4248C7.84642 9.21927 6.47121 8.50009 5.00293 8.50003H1.75C1.05969 8.50003 0.500068 7.94032 0.5 7.25003C0.5 6.55967 1.05964 6.00003 1.75 6.00003H5.00293Z"
    fill="currentColor"
  />
</svg>
