<svg width="32" height="32" viewBox="0 0 32 32" fill="none" xmlns="http://www.w3.org/2000/svg" data-fui-icon="true">
  <path
    fill-rule="evenodd"
    clip-rule="evenodd"
    d="M24.5771 18.5096C24.9858 18.1383 25.6188 18.1685 25.9902 18.577L30.9902 24.077C31.3369 24.4584 31.3368 25.0413 30.9902 25.4227L25.9902 30.9227C25.6187 31.3314 24.9858 31.3616 24.5771 30.9901C24.1686 30.6186 24.1383 29.9857 24.5098 29.577L27.9893 25.7499H22.4961C19.6653 25.7498 17.0135 24.3642 15.3975 22.0399C15.0824 21.5865 15.1942 20.9626 15.6475 20.6473C16.1008 20.3322 16.7247 20.4442 17.04 20.8973C18.2822 22.684 20.3201 23.7498 22.4961 23.7499H27.9893L24.5098 19.9227C24.1384 19.5141 24.1685 18.8811 24.5771 18.5096ZM24.5771 1.00965C24.9858 0.63832 25.6188 0.668519 25.9902 1.07703L30.9902 6.57703C31.3369 6.9584 31.3368 7.54133 30.9902 7.92274L25.9902 13.4227C25.6187 13.8314 24.9858 13.8616 24.5771 13.4901C24.1686 13.1186 24.1383 12.4857 24.5098 12.077L27.9893 8.24988H23.1543C20.3448 8.24988 17.7604 9.7876 16.4199 12.2567L11.8379 20.6971C10.1476 23.8108 6.88861 25.7499 3.3457 25.7499H1.75C1.19772 25.7499 0.75 25.3022 0.75 24.7499C0.750097 24.1977 1.19777 23.7499 1.75 23.7499H3.3457C6.15528 23.7499 8.73965 22.2122 10.0801 19.743L14.6621 11.3026C16.3524 8.189 19.6114 6.24988 23.1543 6.24988H27.9893L24.5098 2.42274C24.1384 2.01407 24.1685 1.38111 24.5771 1.00965ZM4.00391 6.24988C6.83467 6.24996 9.48654 7.63568 11.1025 9.95984C11.4177 10.4132 11.3058 11.0371 10.8525 11.3524C10.3991 11.6676 9.77527 11.5557 9.45996 11.1024C8.21781 9.31585 6.17986 8.24996 4.00391 8.24988H1.75C1.19772 8.24988 0.75 7.80217 0.75 7.24988C0.7501 6.69768 1.19778 6.24988 1.75 6.24988H4.00391Z"
    fill="currentColor"
  />
</svg>
