<svg width="16" height="16" viewBox="0 0 16 16" fill="none" xmlns="http://www.w3.org/2000/svg" data-fui-icon="true">
  <path
    fill-rule="evenodd"
    clip-rule="evenodd"
    d="M12.1504 9.45019C12.5922 9.11896 13.2185 9.20861 13.5498 9.65038L15.0498 11.6504C15.3163 12.0059 15.3163 12.4941 15.0498 12.8496L13.5498 14.8496C13.2185 15.2913 12.5922 15.381 12.1504 15.0498C11.7086 14.7185 11.619 14.0922 11.9502 13.6504L12.251 13.25H10.9238C9.69692 13.25 8.55325 12.6277 7.88672 11.5976C7.58697 11.134 7.72004 10.5148 8.18359 10.2148C8.64724 9.91508 9.26645 10.0481 9.56641 10.5117C9.86442 10.972 10.3755 11.25 10.9238 11.25H12.251L11.9502 10.8496C11.619 10.4078 11.7086 9.78153 12.1504 9.45019ZM12.1504 0.950188C12.5922 0.618956 13.2185 0.708607 13.5498 1.15038L15.0498 3.15038C15.3163 3.50587 15.3163 3.99412 15.0498 4.3496L13.5498 6.3496C13.2185 6.79134 12.5922 6.88099 12.1504 6.5498C11.7086 6.21847 11.619 5.5922 11.9502 5.15038L12.251 4.74999H11.4082C10.297 4.75 9.27673 5.36464 8.75684 6.34667L6.51074 10.5898C5.64419 12.2265 3.94369 13.25 2.0918 13.25H1.75C1.19773 13.25 0.750031 12.8023 0.75 12.25C0.75 11.6977 1.19772 11.25 1.75 11.25H2.0918C3.20294 11.25 4.22326 10.6353 4.74316 9.65331L6.98926 5.41015C7.8558 3.77349 9.55629 2.75 11.4082 2.74999H12.251L11.9502 2.3496C11.619 1.90779 11.7086 1.28153 12.1504 0.950188ZM2.57617 2.74999C3.8031 2.74999 4.94675 3.37225 5.61328 4.40234C5.913 4.86598 5.77997 5.4852 5.31641 5.78515C4.85278 6.08487 4.23356 5.9518 3.93359 5.48827C3.63559 5.02796 3.12455 4.74999 2.57617 4.74999H1.75C1.19774 4.74999 0.750033 4.30225 0.75 3.74999C0.75 3.19771 1.19772 2.74999 1.75 2.74999H2.57617Z"
    fill="currentColor"
  />
</svg>
