<svg width="32" height="32" viewBox="0 0 32 32" fill="none" xmlns="http://www.w3.org/2000/svg" data-fui-icon="true">
  <path
    d="M24.7451 18.6953C25.0515 18.4168 25.526 18.4389 25.8047 18.7451L30.8047 24.2451C31.0647 24.5312 31.0647 24.9688 30.8047 25.2549L25.8047 30.7549C25.526 31.061 25.0515 31.0832 24.7451 30.8047C24.4389 30.526 24.4168 30.0515 24.6953 29.7451L28.5547 25.5H22.4961C19.7471 25.4999 17.1718 24.1536 15.6025 21.8965C15.3665 21.5564 15.4511 21.0889 15.791 20.8525C16.1311 20.6165 16.5986 20.7011 16.835 21.041C18.1239 22.8946 20.2384 23.9999 22.4961 24H28.5547L24.6953 19.7549C24.4168 19.4485 24.439 18.974 24.7451 18.6953ZM24.7451 1.19531C25.0515 0.916791 25.526 0.938963 25.8047 1.24512L30.8047 6.74512C31.0647 7.03118 31.0647 7.46882 30.8047 7.75488L25.8047 13.2549C25.526 13.561 25.0515 13.5832 24.7451 13.3047C24.439 13.026 24.4168 12.5515 24.6953 12.2451L28.5547 8H23.1543C20.2531 8 17.5844 9.58793 16.2002 12.1377L11.6182 20.5781C9.9716 23.6112 6.79692 25.5 3.3457 25.5H1.75C1.3358 25.5 1.00002 25.1642 1 24.75C1 24.3358 1.33579 24 1.75 24H3.3457C6.24694 24 8.91564 22.4121 10.2998 19.8623L14.8818 11.4219C16.5284 8.38875 19.7031 6.5 23.1543 6.5H28.5547L24.6953 2.25488C24.4168 1.9485 24.4389 1.47399 24.7451 1.19531ZM4.00391 6.5C6.75294 6.50008 9.32821 7.84637 10.8975 10.1035C11.1335 10.4436 11.0489 10.9111 10.709 11.1475C10.3689 11.3835 9.90138 11.2989 9.66504 10.959C8.37613 9.1054 6.26159 8.00008 4.00391 8H1.75C1.3358 8 1.00002 7.6642 1 7.25C1 6.83579 1.33579 6.5 1.75 6.5H4.00391Z"
    fill="currentColor"
  />
</svg>
