<svg width="24" height="24" viewBox="0 0 24 24" fill="none" xmlns="http://www.w3.org/2000/svg" data-fui-icon="true">
  <path
    fill-rule="evenodd"
    clip-rule="evenodd"
    d="M17.8867 13.846C18.3861 13.3693 19.1776 13.3877 19.6543 13.887L23.1543 17.554C23.6077 18.0293 23.6158 18.7749 23.1729 19.2601L19.6729 23.0931C19.2074 23.6025 18.4169 23.6383 17.9072 23.1731C17.3976 22.7077 17.3619 21.9173 17.8271 21.4075L19.416 19.6673H16.2402C14.4386 19.6671 12.7395 18.826 11.6465 17.3938C11.2281 16.8452 11.3335 16.0607 11.8818 15.6419C12.4306 15.2231 13.2159 15.3284 13.6348 15.8772C14.2549 16.6896 15.2182 17.1671 16.2402 17.1673H19.3291L17.8457 15.6136C17.3691 15.1143 17.3876 14.3227 17.8867 13.846ZM17.9072 0.827437C18.417 0.361975 19.2074 0.397784 19.6729 0.907515L23.1729 4.74052C23.6157 5.22572 23.6078 5.97135 23.1543 6.44658L19.6543 10.1136C19.1777 10.6126 18.386 10.631 17.8867 10.1546C17.3875 9.67798 17.3693 8.88638 17.8457 8.38701L19.3291 6.8333H17.208C15.3752 6.8333 13.6873 7.82971 12.8008 9.43388L9.3877 15.6097C8.061 18.01 5.53459 19.5003 2.79199 19.5003H1.75C1.05979 19.5003 0.50023 18.9404 0.5 18.2503C0.5 17.5599 1.05965 17.0003 1.75 17.0003H2.79199C4.62454 17.0003 6.31259 16.0044 7.19922 14.4007L10.6123 8.22392C11.939 5.82352 14.4654 4.3333 17.208 4.3333H19.416L17.8271 2.59306C17.3618 2.08335 17.3977 1.29296 17.9072 0.827437ZM3.75879 4.50029C5.56064 4.50029 7.26034 5.34039 8.35352 6.77275C8.77211 7.32152 8.66684 8.10691 8.11816 8.52568C7.56963 8.94413 6.78513 8.83839 6.36621 8.29033C5.74596 7.47761 4.78115 7.00029 3.75879 7.00029H1.75C1.05979 7.00028 0.500224 6.44045 0.5 5.75029C0.5 5.05994 1.05965 4.5003 1.75 4.50029H3.75879Z"
    fill="currentColor"
  />
</svg>
