<svg width="20" height="20" viewBox="0 0 20 20" fill="none" xmlns="http://www.w3.org/2000/svg" data-fui-icon="true">
  <path
    d="M14.79 11.098C15.4265 10.5679 16.3721 10.654 16.9023 11.2904L19.4023 14.2904C19.8655 14.8466 19.8656 15.6542 19.4023 16.2103L16.9023 19.2103C16.3721 19.8464 15.4264 19.9327 14.79 19.4027C14.1538 18.8725 14.0677 17.9268 14.5977 17.2904L15.0479 16.7504H13.626C12.0786 16.7502 10.6252 16.0073 9.71875 14.7533C9.23356 14.0819 9.38435 13.1438 10.0557 12.6586C10.7271 12.1734 11.6652 12.324 12.1504 12.9955C12.4928 13.4692 13.0415 13.7502 13.626 13.7504H15.0479L14.5977 13.2103C14.0675 12.574 14.1538 11.6283 14.79 11.098ZM14.79 0.598022C15.4265 0.0678399 16.372 0.154049 16.9023 0.790405L19.4023 3.79041C19.8655 4.3466 19.8656 5.15419 19.4023 5.71033L16.9023 8.71033C16.3721 9.34646 15.4264 9.43268 14.79 8.90271C14.1538 8.37247 14.0677 7.42682 14.5977 6.79041L15.0479 6.25037H14.3242C12.9968 6.25037 11.7745 6.97257 11.1338 8.13513L8.28027 13.3138C7.11195 15.4337 4.88246 16.7504 2.46191 16.7504H1.75C0.921675 16.7504 0.25016 16.0787 0.25 15.2504C0.25 14.4219 0.921576 13.7504 1.75 13.7504H2.46191C3.78928 13.7504 5.01165 13.0281 5.65234 11.8656L8.50586 6.68689C9.67416 4.56692 11.9036 3.25037 14.3242 3.25037H15.0479L14.5977 2.71033C14.0675 2.07396 14.1538 1.12834 14.79 0.598022ZM3.15918 3.25037C4.707 3.25037 6.16084 3.99386 7.06738 5.24841C7.5521 5.91975 7.40153 6.85701 6.73047 7.34216C6.05911 7.82716 5.12097 7.67641 4.63574 7.00525C4.29325 6.53127 3.74395 6.25037 3.15918 6.25037H1.75C0.921686 6.25036 0.250179 5.57864 0.25 4.75037C0.25 3.92194 0.921576 3.25037 1.75 3.25037H3.15918Z"
    fill="currentColor"
  />
</svg>
