<svg width="32" height="32" viewBox="0 0 32 32" fill="none" xmlns="http://www.w3.org/2000/svg" data-fui-icon="true">
  <path
    fill-rule="evenodd"
    clip-rule="evenodd"
    d="M24.7451 18.6952C25.0515 18.4167 25.526 18.4388 25.8047 18.745L30.8047 24.245C31.0647 24.5311 31.0647 24.9687 30.8047 25.2548L25.8047 30.7548C25.526 31.0609 25.0515 31.0831 24.7451 30.8046C24.4389 30.5259 24.4168 30.0514 24.6953 29.745L28.5547 25.4999H22.4961C19.7471 25.4998 17.1718 24.1535 15.6025 21.8964C15.3665 21.5563 15.4511 21.0888 15.791 20.8524C16.1311 20.6164 16.5986 20.7009 16.835 21.0409C18.1239 22.8945 20.2384 23.9998 22.4961 23.9999H28.5547L24.6953 19.7548C24.4168 19.4484 24.439 18.9739 24.7451 18.6952ZM24.7451 1.19518C25.0515 0.91666 25.526 0.938832 25.8047 1.24499L30.8047 6.74499C31.0647 7.03105 31.0647 7.46869 30.8047 7.75475L25.8047 13.2548C25.526 13.5609 25.0515 13.5831 24.7451 13.3046C24.439 13.0259 24.4168 12.5514 24.6953 12.245L28.5547 7.99987H23.1543C20.2531 7.99987 17.5844 9.58779 16.2002 12.1376L11.6182 20.578C9.9716 23.6111 6.79692 25.4999 3.3457 25.4999H1.75C1.3358 25.4999 1.00002 25.1641 1 24.7499C1 24.3357 1.33579 23.9999 1.75 23.9999H3.3457C6.24694 23.9999 8.91564 22.4119 10.2998 19.8622L14.8818 11.4217C16.5284 8.38862 19.7031 6.49987 23.1543 6.49987H28.5547L24.6953 2.25475C24.4168 1.94837 24.4389 1.47385 24.7451 1.19518ZM4.00391 6.49987C6.75294 6.49995 9.32821 7.84624 10.8975 10.1034C11.1335 10.4434 11.0489 10.911 10.709 11.1473C10.3689 11.3834 9.90138 11.2988 9.66504 10.9589C8.37613 9.10527 6.26159 7.99995 4.00391 7.99987H1.75C1.3358 7.99987 1.00002 7.66407 1 7.24987C1 6.83566 1.33579 6.49987 1.75 6.49987H4.00391Z"
    fill="currentColor"
  />
</svg>
