<svg width="24" height="24" viewBox="0 0 24 24" fill="none" xmlns="http://www.w3.org/2000/svg" data-fui-icon="true">
  <path
    fill-rule="evenodd"
    clip-rule="evenodd"
    d="M18.2324 14.2072C18.5321 13.9216 19.0071 13.9331 19.293 14.2326L22.793 17.8986C23.0651 18.1838 23.0695 18.6319 22.8037 18.923L19.3037 22.756C19.0244 23.0616 18.5499 23.083 18.2441 22.8039C17.9384 22.5246 17.9172 22.0501 18.1963 21.7443L20.5498 19.1672H16.9873C14.8708 19.1671 12.8749 18.1797 11.5908 16.4972C11.3396 16.168 11.4032 15.6968 11.7324 15.4455C12.0617 15.1942 12.5329 15.2578 12.7842 15.5871C13.7845 16.8975 15.3387 17.6671 16.9873 17.6672H20.4971L18.207 15.2677C17.9214 14.9681 17.933 14.4931 18.2324 14.2072ZM18.2441 1.19645C18.55 0.917209 19.0244 0.938568 19.3037 1.24431L22.8037 5.07731C23.0694 5.36845 23.0651 5.81659 22.793 6.10173L19.293 9.76774C19.0071 10.0671 18.532 10.0786 18.2324 9.79313C17.933 9.50729 17.9215 9.03224 18.207 8.73259L20.4971 6.33317H17.208C15.1933 6.33318 13.3378 7.42823 12.3633 9.19157L8.9502 15.3674C7.71157 17.6086 5.3527 19.0002 2.79199 19.0002H1.75C1.33587 19.0002 1.00012 18.6643 1 18.2502C1 17.836 1.33579 17.5002 1.75 17.5002H2.79199C4.80675 17.5002 6.66216 16.4051 7.63672 14.6418L11.0498 8.46599C12.2884 6.22469 14.6472 4.83318 17.208 4.83317H20.5498L18.1963 2.25602C17.9171 1.95023 17.9385 1.47578 18.2441 1.19645ZM3.0127 5.00016C5.12926 5.00027 7.12509 5.98753 8.40918 7.67009C8.66022 7.99935 8.59676 8.47062 8.26758 8.72184C7.93845 8.97275 7.46808 8.90907 7.2168 8.58024C6.21646 7.26949 4.66154 6.50027 3.0127 6.50016H1.75C1.33586 6.50016 1.00012 6.16428 1 5.75016C1 5.33596 1.33579 5.00017 1.75 5.00016H3.0127Z"
    fill="currentColor"
  />
</svg>
