<svg width="20" height="20" viewBox="0 0 20 20" fill="none" xmlns="http://www.w3.org/2000/svg" data-fui-icon="true">
  <path
    fill-rule="evenodd"
    clip-rule="evenodd"
    d="M14.9502 11.2895C15.4804 10.848 16.2681 10.9197 16.71 11.4497L19.21 14.4497C19.5961 14.9131 19.5959 15.5858 19.21 16.0493L16.71 19.0493C16.268 19.5796 15.4805 19.6513 14.9502 19.2095C14.4201 18.7675 14.3482 17.98 14.79 17.4497L15.582 16.4995H13.626C12.1587 16.4994 10.7804 15.7952 9.9209 14.606C9.51686 14.0465 9.64287 13.2652 10.2021 12.8608C10.7615 12.4568 11.5429 12.5821 11.9473 13.1411C12.3367 13.68 12.9612 13.9994 13.626 13.9995H15.582L14.79 13.0493C14.3484 12.519 14.42 11.7314 14.9502 11.2895ZM14.9502 0.790525C15.4805 0.348644 16.268 0.420361 16.71 0.950681L19.21 3.95068C19.5959 4.4142 19.5961 5.08686 19.21 5.55029L16.71 8.55029C16.2681 9.08027 15.4804 9.15201 14.9502 8.71045C14.42 8.2686 14.3484 7.48102 14.79 6.95068L15.582 6.00049H14.3242C12.9057 6.00049 11.5987 6.77181 10.9141 8.01416L8.06152 13.1929C6.93718 15.233 4.79139 16.5005 2.46191 16.5005H1.75C1.0598 16.5005 0.500253 15.9406 0.5 15.2505C0.5 14.5601 1.05965 14.0005 1.75 14.0005H2.46191C3.88017 14.0005 5.18635 13.2288 5.87109 11.9868L8.72461 6.8081C9.84889 4.76774 11.9946 3.50049 14.3242 3.50049H15.582L14.79 2.55029C14.3482 2.02002 14.4201 1.2325 14.9502 0.790525ZM3.15918 3.49951C4.62661 3.49951 6.00568 4.20473 6.86523 5.39404C7.26905 5.95348 7.14316 6.7349 6.58398 7.13916C6.02452 7.54343 5.24326 7.41723 4.83887 6.85791C4.44935 6.31908 3.82407 5.99951 3.15918 5.99951H1.75C1.05965 5.99951 0.5 5.43986 0.5 4.74951C0.500256 4.05937 1.05981 3.49951 1.75 3.49951H3.15918Z"
    fill="currentColor"
  />
</svg>
