<svg width="12" height="12" viewBox="0 0 12 12" fill="none" xmlns="http://www.w3.org/2000/svg" data-fui-icon="true">
  <path
    d="M7.75 0C10.0972 0 12 1.90279 12 4.25V7.75C12 10.0972 10.0972 12 7.75 12H4.25C1.90279 12 0 10.0972 0 7.75V4.25C0 1.90279 1.90279 0 4.25 0H7.75ZM4.25 1.5C2.73122 1.5 1.5 2.73122 1.5 4.25V7.75C1.5 9.26878 2.73122 10.5 4.25 10.5H7.75C9.26878 10.5 10.5 9.26878 10.5 7.75V4.25C10.5 2.73122 9.26878 1.5 7.75 1.5H4.25ZM4.75 5.75C5.16421 5.75 5.5 6.08579 5.5 6.5V7H8.25C8.66421 7 9 7.33579 9 7.75C9 8.16421 8.66421 8.5 8.25 8.5H5.5V9C5.5 9.41421 5.16421 9.75 4.75 9.75C4.33579 9.75 4 9.41421 4 9V8.5H3.75C3.33579 8.5 3 8.16421 3 7.75C3 7.33579 3.33579 7 3.75 7H4V6.5C4 6.08579 4.33579 5.75 4.75 5.75ZM7.25 2.25C7.66421 2.25 8 2.58579 8 3V3.5H8.25C8.66421 3.5 9 3.83579 9 4.25C9 4.66421 8.66421 5 8.25 5H8V5.5C8 5.91421 7.66421 6.25 7.25 6.25C6.83579 6.25 6.5 5.91421 6.5 5.5V5H3.75C3.33579 5 3 4.66421 3 4.25C3 3.83579 3.33579 3.5 3.75 3.5H6.5V3C6.5 2.58579 6.83579 2.25 7.25 2.25Z"
    fill="currentColor"
  />
</svg>
