<svg width="16" height="16" viewBox="0 0 16 16" fill="none" xmlns="http://www.w3.org/2000/svg" data-fui-icon="true">
  <path
    d="M10.75 0C13.6495 0 16 2.35051 16 5.25V10.75C16 13.6495 13.6495 16 10.75 16H5.25C2.35051 16 0 13.6495 0 10.75V5.25C0 2.35051 2.35051 0 5.25 0H10.75ZM5.25 1.5C3.17893 1.5 1.5 3.17893 1.5 5.25V10.75C1.5 12.8211 3.17893 14.5 5.25 14.5H10.75C12.8211 14.5 14.5 12.8211 14.5 10.75V5.25C14.5 3.17893 12.8211 1.5 10.75 1.5H5.25ZM6 8.25C6.41421 8.25 6.75 8.58579 6.75 9V10H11.75C12.1642 10 12.5 10.3358 12.5 10.75C12.5 11.1642 12.1642 11.5 11.75 11.5H6.75V12.5C6.75 12.9142 6.41421 13.25 6 13.25C5.58579 13.25 5.25 12.9142 5.25 12.5V11.5H4.25C3.83579 11.5 3.5 11.1642 3.5 10.75C3.5 10.3358 3.83579 10 4.25 10H5.25V9C5.25 8.58579 5.58579 8.25 6 8.25ZM10 2.75C10.4142 2.75 10.75 3.08579 10.75 3.5V4.5H11.75C12.1642 4.5 12.5 4.83579 12.5 5.25C12.5 5.66421 12.1642 6 11.75 6H10.75V7C10.75 7.41421 10.4142 7.75 10 7.75C9.58579 7.75 9.25 7.41421 9.25 7V6H4.25C3.83579 6 3.5 5.66421 3.5 5.25C3.5 4.83579 3.83579 4.5 4.25 4.5H9.25V3.5C9.25 3.08579 9.58579 2.75 10 2.75Z"
    fill="currentColor"
  />
</svg>
