<svg width="20" height="20" viewBox="0 0 20 20" fill="none" xmlns="http://www.w3.org/2000/svg" data-fui-icon="true">
  <path
    d="M14.6504 0C17.6048 0.000210782 19.9998 2.3952 20 5.34961V14.6504C19.9998 17.6048 17.6048 19.9998 14.6504 20H5.34961C2.3952 19.9998 0.000211295 17.6048 0 14.6504V5.34961C0.00021104 2.3952 2.3952 0.000211037 5.34961 0H14.6504ZM5.34961 1.5C3.22362 1.50021 1.50021 3.22362 1.5 5.34961V14.6504C1.50021 16.7764 3.22362 18.4998 5.34961 18.5H14.6504C16.7764 18.4998 18.4998 16.7764 18.5 14.6504V5.34961C18.4998 3.22362 16.7764 1.50021 14.6504 1.5H5.34961ZM8.25 10.25C9.49264 10.25 10.5 11.2574 10.5 12.5V12.75H15.25C15.6641 12.75 15.9999 13.0859 16 13.5C15.9999 13.9141 15.6641 14.25 15.25 14.25H10.5V14.5C10.5 15.7426 9.49264 16.75 8.25 16.75C7.00736 16.75 6 15.7426 6 14.5V14.25H4.75C4.33598 14.2499 4.00013 13.914 4 13.5C4.00011 13.086 4.33597 12.7501 4.75 12.75H6V12.5C6 11.2574 7.00736 10.25 8.25 10.25ZM8.25 11.75C7.83579 11.75 7.5 12.0858 7.5 12.5V14.5C7.5 14.9142 7.83579 15.25 8.25 15.25C8.66421 15.25 9 14.9142 9 14.5V12.5C9 12.0858 8.66421 11.75 8.25 11.75ZM11.75 3.5C12.9926 3.5 14 4.50736 14 5.75V6H15.25C15.664 6.00013 15.9999 6.33596 16 6.75C15.9999 7.16402 15.664 7.49987 15.25 7.5H14V7.75C14 8.99264 12.9926 10 11.75 10C10.5074 10 9.5 8.99264 9.5 7.75V7.5H4.75C4.33587 7.5 4.00013 7.1641 4 6.75C4.00011 6.33588 4.33586 6 4.75 6H9.5V5.75C9.5 4.50736 10.5074 3.5 11.75 3.5ZM11.75 5C11.3358 5 11 5.33579 11 5.75V7.75C11 8.16421 11.3358 8.5 11.75 8.5C12.1642 8.5 12.5 8.16421 12.5 7.75V5.75C12.5 5.33579 12.1642 5 11.75 5Z"
    fill="currentColor"
  />
</svg>
