<svg width="32" height="32" viewBox="0 0 32 32" fill="none" xmlns="http://www.w3.org/2000/svg" data-fui-icon="true">
  <path
    d="M16 1.25C18.5558 1.25 20.5217 1.24888 22.0879 1.38672C23.6637 1.52543 24.9064 1.80929 26.001 2.41895C27.504 3.25611 28.7439 4.49602 29.5811 5.99902C30.1907 7.09361 30.4746 8.33632 30.6133 9.91211C30.7511 11.4783 30.75 13.4442 30.75 16C30.75 18.5558 30.7511 20.5217 30.6133 22.0879C30.4746 23.6637 30.1907 24.9064 29.5811 26.001C28.7439 27.504 27.504 28.7439 26.001 29.5811C24.9064 30.1907 23.6637 30.4746 22.0879 30.6133C20.5217 30.7511 18.5558 30.75 16 30.75C13.4442 30.75 11.4783 30.7511 9.91211 30.6133C8.33632 30.4746 7.09361 30.1907 5.99902 29.5811C4.49602 28.7439 3.25611 27.504 2.41895 26.001C1.80929 24.9064 1.52543 23.6637 1.38672 22.0879C1.24888 20.5217 1.25 18.5558 1.25 16C1.25 13.4442 1.24888 11.4783 1.38672 9.91211C1.52543 8.33632 1.80929 7.09361 2.41895 5.99902C3.25611 4.49602 4.49602 3.25611 5.99902 2.41895C7.09361 1.80929 8.33632 1.52543 9.91211 1.38672C11.4783 1.24888 13.4442 1.25 16 1.25ZM16 2.75C13.4174 2.75 11.5291 2.75113 10.0439 2.88184C8.56868 3.01168 7.56238 3.26503 6.72852 3.72949C5.46944 4.43085 4.43085 5.46944 3.72949 6.72852C3.26503 7.56238 3.01168 8.56868 2.88184 10.0439C2.75113 11.5291 2.75 13.4174 2.75 16C2.75 18.5826 2.75113 20.4709 2.88184 21.9561C3.01168 23.4313 3.26503 24.4376 3.72949 25.2715C4.43085 26.5306 5.46944 27.5691 6.72852 28.2705C7.56238 28.735 8.56868 28.9883 10.0439 29.1182C11.5291 29.2489 13.4174 29.25 16 29.25C18.5826 29.25 20.4709 29.2489 21.9561 29.1182C23.4313 28.9883 24.4376 28.735 25.2715 28.2705C26.5306 27.5691 27.5691 26.5306 28.2705 25.2715C28.735 24.4376 28.9883 23.4313 29.1182 21.9561C29.2489 20.4709 29.25 18.5826 29.25 16C29.25 13.4174 29.2489 11.5291 29.1182 10.0439C28.9883 8.56868 28.735 7.56238 28.2705 6.72852C27.5691 5.46944 26.5306 4.43085 25.2715 3.72949C24.4376 3.26503 23.4313 3.01168 21.9561 2.88184C20.4709 2.75113 18.5826 2.75 16 2.75ZM12.75 17C14.5449 17 16 18.4551 16 20.25V20.5H25.25C25.6641 20.5 25.9999 20.8359 26 21.25C25.9999 21.6641 25.6641 22 25.25 22H16V22.25C16 24.0449 14.5449 25.5 12.75 25.5C10.9551 25.5 9.5 24.0449 9.5 22.25V22H6.75C6.33598 21.9999 6.00013 21.664 6 21.25C6.00011 20.836 6.33597 20.5001 6.75 20.5H9.5V20.25C9.5 18.4551 10.9551 17 12.75 17ZM12.75 18.5C11.7835 18.5 11 19.2835 11 20.25V22.25C11 23.2165 11.7835 24 12.75 24C13.7165 24 14.5 23.2165 14.5 22.25V20.25C14.5 19.2835 13.7165 18.5 12.75 18.5ZM19.25 6.5C21.0449 6.5 22.5 7.95507 22.5 9.75V10H25.25C25.664 10.0001 25.9999 10.336 26 10.75C25.9999 11.164 25.664 11.4999 25.25 11.5H22.5V11.75C22.5 13.5449 21.0449 15 19.25 15C17.4551 15 16 13.5449 16 11.75V11.5H6.75C6.33587 11.5 6.00013 11.1641 6 10.75C6.00011 10.3359 6.33586 10 6.75 10H16V9.75C16 7.95507 17.4551 6.5 19.25 6.5ZM19.25 8C18.2835 8 17.5 8.7835 17.5 9.75V11.75C17.5 12.7165 18.2835 13.5 19.25 13.5C20.2165 13.5 21 12.7165 21 11.75V9.75C21 8.7835 20.2165 8 19.25 8Z"
    fill="currentColor"
  />
</svg>
