<svg width="12" height="12" viewBox="0 0 12 12" fill="none" xmlns="http://www.w3.org/2000/svg" data-fui-icon="true">
  <path
    d="M5.44922 9.03745L4.24922 10.225C4.14089 10.325 4.01172 10.375 3.86172 10.375C3.72005 10.375 3.59505 10.3208 3.48672 10.2125C3.37839 10.1041 3.32422 9.97912 3.32422 9.83745C3.32422 9.68745 3.37839 9.55829 3.48672 9.44995L5.44922 7.48745V6.54995H4.51172L2.54922 8.51245C2.44089 8.62079 2.31172 8.67495 2.16172 8.67495C2.02005 8.67495 1.89089 8.61662 1.77422 8.49995C1.67422 8.39995 1.62422 8.27912 1.62422 8.13745C1.62422 7.98745 1.67422 7.85829 1.77422 7.74995L2.96172 6.54995H1.48672C1.33672 6.54995 1.20755 6.49579 1.09922 6.38745C0.999219 6.27912 0.949219 6.14995 0.949219 5.99995C0.949219 5.84995 1.00339 5.72079 1.11172 5.61245C1.22005 5.50412 1.34922 5.44995 1.49922 5.44995H2.96172L1.77422 4.26245C1.67422 4.15412 1.62422 4.02912 1.62422 3.88745C1.62422 3.73745 1.67839 3.60829 1.78672 3.49995C1.89505 3.39162 2.02005 3.33745 2.16172 3.33745C2.31172 3.33745 2.44089 3.39162 2.54922 3.49995L4.51172 5.44995H5.44922V4.51245L3.48672 2.56245C3.37839 2.45412 3.32422 2.32912 3.32422 2.18745C3.32422 2.03745 3.38255 1.90412 3.49922 1.78745C3.59922 1.68745 3.72005 1.63745 3.86172 1.63745C4.01172 1.63745 4.14089 1.68745 4.24922 1.78745L5.44922 2.96245V1.49995C5.44922 1.34995 5.50339 1.22078 5.61172 1.11245C5.72005 1.00412 5.84922 0.949951 5.99922 0.949951C6.14922 0.949951 6.27839 1.00412 6.38672 1.11245C6.49505 1.22078 6.54922 1.34995 6.54922 1.49995V2.96245L7.73672 1.78745C7.84505 1.68745 7.97005 1.63745 8.11172 1.63745C8.26172 1.63745 8.39089 1.69162 8.49922 1.79995C8.60755 1.90828 8.66172 2.03745 8.66172 2.18745C8.66172 2.32912 8.60755 2.45412 8.49922 2.56245L6.54922 4.51245V5.44995H7.48672L9.43672 3.49995C9.54505 3.39162 9.67005 3.33745 9.81172 3.33745C9.96172 3.33745 10.0951 3.39579 10.2117 3.51245C10.3117 3.61245 10.3617 3.73745 10.3617 3.88745C10.3617 4.02912 10.3117 4.15412 10.2117 4.26245L9.03672 5.44995H10.4992C10.6492 5.44995 10.7784 5.50412 10.8867 5.61245C10.9951 5.72079 11.0492 5.84995 11.0492 5.99995C11.0492 6.14995 10.9951 6.27912 10.8867 6.38745C10.7784 6.49579 10.6492 6.54995 10.4992 6.54995H9.03672L10.2117 7.74995C10.3117 7.85829 10.3617 7.98745 10.3617 8.13745C10.3617 8.27912 10.3076 8.40412 10.1992 8.51245C10.0909 8.62079 9.96172 8.67495 9.81172 8.67495C9.67005 8.67495 9.54505 8.62079 9.43672 8.51245L7.48672 6.54995H6.54922V7.48745L8.49922 9.44995C8.60755 9.55829 8.66172 9.68745 8.66172 9.83745C8.66172 9.97912 8.60339 10.1083 8.48672 10.225C8.38672 10.325 8.26172 10.375 8.11172 10.375C7.97005 10.375 7.84505 10.325 7.73672 10.225L6.54922 9.03745V10.5125C6.54922 10.6625 6.49505 10.7916 6.38672 10.9C6.27839 11 6.14922 11.05 5.99922 11.05C5.84922 11.05 5.72005 10.9958 5.61172 10.8875C5.50339 10.7791 5.44922 10.65 5.44922 10.5V9.03745Z"
    fill="currentColor"
  />
</svg>
