<svg width="32" height="32" viewBox="0 0 32 32" fill="none" xmlns="http://www.w3.org/2000/svg" data-fui-icon="true">
  <path
    d="M14.5332 24.1L11.3332 27.2667C11.0443 27.5333 10.6999 27.6667 10.2999 27.6667C9.92209 27.6667 9.58876 27.5222 9.29987 27.2333C9.01098 26.9444 8.86654 26.6111 8.86654 26.2333C8.86654 25.8333 9.01098 25.4889 9.29987 25.2L14.5332 19.9667V17.4667H12.0332L6.79987 22.7C6.51098 22.9889 6.16654 23.1333 5.76654 23.1333C5.38876 23.1333 5.04431 22.9778 4.7332 22.6667C4.46654 22.4 4.3332 22.0778 4.3332 21.7C4.3332 21.3 4.46654 20.9555 4.7332 20.6667L7.89987 17.4667H3.96654C3.56654 17.4667 3.22209 17.3222 2.9332 17.0333C2.66654 16.7444 2.5332 16.4 2.5332 16C2.5332 15.6 2.67765 15.2555 2.96654 14.9667C3.25543 14.6778 3.59987 14.5333 3.99987 14.5333H7.89987L4.7332 11.3667C4.46654 11.0778 4.3332 10.7444 4.3332 10.3667C4.3332 9.96666 4.47765 9.62222 4.76654 9.33333C5.05543 9.04444 5.38876 8.89999 5.76654 8.89999C6.16654 8.89999 6.51098 9.04444 6.79987 9.33333L12.0332 14.5333H14.5332V12.0333L9.29987 6.83333C9.01098 6.54444 8.86654 6.2111 8.86654 5.83333C8.86654 5.43333 9.02209 5.07777 9.3332 4.76666C9.59987 4.49999 9.92209 4.36666 10.2999 4.36666C10.6999 4.36666 11.0443 4.49999 11.3332 4.76666L14.5332 7.89999V3.99999C14.5332 3.59999 14.6776 3.25555 14.9665 2.96666C15.2554 2.67777 15.5999 2.53333 15.9999 2.53333C16.3999 2.53333 16.7443 2.67777 17.0332 2.96666C17.3221 3.25555 17.4665 3.59999 17.4665 3.99999V7.89999L20.6332 4.76666C20.9221 4.49999 21.2554 4.36666 21.6332 4.36666C22.0332 4.36666 22.3776 4.5111 22.6665 4.79999C22.9554 5.08888 23.0999 5.43333 23.0999 5.83333C23.0999 6.2111 22.9554 6.54444 22.6665 6.83333L17.4665 12.0333V14.5333H19.9665L25.1665 9.33333C25.4554 9.04444 25.7888 8.89999 26.1665 8.89999C26.5665 8.89999 26.9221 9.05555 27.2332 9.36666C27.4999 9.63333 27.6332 9.96666 27.6332 10.3667C27.6332 10.7444 27.4999 11.0778 27.2332 11.3667L24.0999 14.5333H27.9999C28.3999 14.5333 28.7443 14.6778 29.0332 14.9667C29.3221 15.2555 29.4665 15.6 29.4665 16C29.4665 16.4 29.3221 16.7444 29.0332 17.0333C28.7443 17.3222 28.3999 17.4667 27.9999 17.4667H24.0999L27.2332 20.6667C27.4999 20.9555 27.6332 21.3 27.6332 21.7C27.6332 22.0778 27.4888 22.4111 27.1999 22.7C26.911 22.9889 26.5665 23.1333 26.1665 23.1333C25.7888 23.1333 25.4554 22.9889 25.1665 22.7L19.9665 17.4667H17.4665V19.9667L22.6665 25.2C22.9554 25.4889 23.0999 25.8333 23.0999 26.2333C23.0999 26.6111 22.9443 26.9555 22.6332 27.2667C22.3665 27.5333 22.0332 27.6667 21.6332 27.6667C21.2554 27.6667 20.9221 27.5333 20.6332 27.2667L17.4665 24.1V28.0333C17.4665 28.4333 17.3221 28.7778 17.0332 29.0667C16.7443 29.3333 16.3999 29.4667 15.9999 29.4667C15.5999 29.4667 15.2554 29.3222 14.9665 29.0333C14.6776 28.7444 14.5332 28.4 14.5332 28V24.1Z"
    fill="currentColor"
  />
</svg>
