<svg width="20" height="20" viewBox="0 0 20 20" fill="none" xmlns="http://www.w3.org/2000/svg" data-fui-icon="true">
  <path
    d="M9.08398 15.0624L7.08398 17.0416C6.90343 17.2083 6.68815 17.2916 6.43815 17.2916C6.20204 17.2916 5.99371 17.2013 5.81315 17.0208C5.6326 16.8402 5.54232 16.6319 5.54232 16.3958C5.54232 16.1458 5.6326 15.9305 5.81315 15.7499L9.08398 12.4791V10.9166H7.52148L4.25065 14.1874C4.0701 14.368 3.85482 14.4583 3.60482 14.4583C3.36871 14.4583 3.15343 14.361 2.95898 14.1666C2.79232 13.9999 2.70898 13.7985 2.70898 13.5624C2.70898 13.3124 2.79232 13.0971 2.95898 12.9166L4.93815 10.9166H2.47982C2.22982 10.9166 2.01454 10.8263 1.83398 10.6458C1.66732 10.4652 1.58398 10.2499 1.58398 9.99992C1.58398 9.74992 1.67426 9.53464 1.85482 9.35409C2.03537 9.17353 2.25065 9.08325 2.50065 9.08325H4.93815L2.95898 7.10409C2.79232 6.92353 2.70898 6.7152 2.70898 6.47909C2.70898 6.22909 2.79926 6.01381 2.97982 5.83325C3.16037 5.6527 3.36871 5.56242 3.60482 5.56242C3.85482 5.56242 4.0701 5.6527 4.25065 5.83325L7.52148 9.08325H9.08398V7.52075L5.81315 4.27075C5.6326 4.0902 5.54232 3.88186 5.54232 3.64575C5.54232 3.39575 5.63954 3.17353 5.83398 2.97909C6.00065 2.81242 6.20204 2.72909 6.43815 2.72909C6.68815 2.72909 6.90343 2.81242 7.08398 2.97909L9.08398 4.93742V2.49992C9.08398 2.24992 9.17426 2.03464 9.35482 1.85409C9.53537 1.67353 9.75065 1.58325 10.0007 1.58325C10.2507 1.58325 10.4659 1.67353 10.6465 1.85409C10.827 2.03464 10.9173 2.24992 10.9173 2.49992V4.93742L12.8965 2.97909C13.077 2.81242 13.2854 2.72909 13.5215 2.72909C13.7715 2.72909 13.9868 2.81936 14.1673 2.99992C14.3479 3.18047 14.4382 3.39575 14.4382 3.64575C14.4382 3.88186 14.3479 4.0902 14.1673 4.27075L10.9173 7.52075V9.08325H12.4798L15.7298 5.83325C15.9104 5.6527 16.1187 5.56242 16.3548 5.56242C16.6048 5.56242 16.827 5.65964 17.0215 5.85409C17.1882 6.02075 17.2715 6.22909 17.2715 6.47909C17.2715 6.7152 17.1882 6.92353 17.0215 7.10409L15.0632 9.08325H17.5007C17.7507 9.08325 17.9659 9.17353 18.1465 9.35409C18.327 9.53464 18.4173 9.74992 18.4173 9.99992C18.4173 10.2499 18.327 10.4652 18.1465 10.6458C17.9659 10.8263 17.7507 10.9166 17.5007 10.9166H15.0632L17.0215 12.9166C17.1882 13.0971 17.2715 13.3124 17.2715 13.5624C17.2715 13.7985 17.1812 14.0069 17.0007 14.1874C16.8201 14.368 16.6048 14.4583 16.3548 14.4583C16.1187 14.4583 15.9104 14.368 15.7298 14.1874L12.4798 10.9166H10.9173V12.4791L14.1673 15.7499C14.3479 15.9305 14.4382 16.1458 14.4382 16.3958C14.4382 16.6319 14.3409 16.8471 14.1465 17.0416C13.9798 17.2083 13.7715 17.2916 13.5215 17.2916C13.2854 17.2916 13.077 17.2083 12.8965 17.0416L10.9173 15.0624V17.5208C10.9173 17.7708 10.827 17.986 10.6465 18.1666C10.4659 18.3333 10.2507 18.4166 10.0007 18.4166C9.75065 18.4166 9.53537 18.3263 9.35482 18.1458C9.17426 17.9652 9.08398 17.7499 9.08398 17.4999V15.0624Z"
    fill="currentColor"
  />
</svg>
