<svg width="12" height="12" viewBox="0 0 12 12" fill="none" xmlns="http://www.w3.org/2000/svg" data-fui-icon="true">
  <path
    d="M5.44922 9.03751L4.24922 10.225C4.14089 10.325 4.01172 10.375 3.86172 10.375C3.72005 10.375 3.59505 10.3208 3.48672 10.2125C3.37839 10.1042 3.32422 9.97918 3.32422 9.83751C3.32422 9.68751 3.37839 9.55835 3.48672 9.45001L5.44922 7.48751V6.55001H4.51172L2.54922 8.51251C2.44089 8.62085 2.31172 8.67501 2.16172 8.67501C2.02005 8.67501 1.89089 8.61668 1.77422 8.50001C1.67422 8.40001 1.62422 8.27918 1.62422 8.13751C1.62422 7.98751 1.67422 7.85835 1.77422 7.75001L2.96172 6.55001H1.48672C1.33672 6.55001 1.20755 6.49585 1.09922 6.38751C0.999219 6.27918 0.949219 6.15001 0.949219 6.00001C0.949219 5.85001 1.00339 5.72085 1.11172 5.61251C1.22005 5.50418 1.34922 5.45001 1.49922 5.45001H2.96172L1.77422 4.26251C1.67422 4.15418 1.62422 4.02918 1.62422 3.88751C1.62422 3.73751 1.67839 3.60835 1.78672 3.50001C1.89505 3.39168 2.02005 3.33751 2.16172 3.33751C2.31172 3.33751 2.44089 3.39168 2.54922 3.50001L4.51172 5.45001H5.44922V4.51251L3.48672 2.56251C3.37839 2.45418 3.32422 2.32918 3.32422 2.18751C3.32422 2.03751 3.38255 1.90418 3.49922 1.78751C3.59922 1.68751 3.72005 1.63751 3.86172 1.63751C4.01172 1.63751 4.14089 1.68751 4.24922 1.78751L5.44922 2.96251V1.50001C5.44922 1.35001 5.50339 1.22085 5.61172 1.11251C5.72005 1.00418 5.84922 0.950012 5.99922 0.950012C6.14922 0.950012 6.27839 1.00418 6.38672 1.11251C6.49505 1.22085 6.54922 1.35001 6.54922 1.50001V2.96251L7.73672 1.78751C7.84505 1.68751 7.97005 1.63751 8.11172 1.63751C8.26172 1.63751 8.39089 1.69168 8.49922 1.80001C8.60755 1.90835 8.66172 2.03751 8.66172 2.18751C8.66172 2.32918 8.60755 2.45418 8.49922 2.56251L6.54922 4.51251V5.45001H7.48672L9.43672 3.50001C9.54505 3.39168 9.67005 3.33751 9.81172 3.33751C9.96172 3.33751 10.0951 3.39585 10.2117 3.51251C10.3117 3.61251 10.3617 3.73751 10.3617 3.88751C10.3617 4.02918 10.3117 4.15418 10.2117 4.26251L9.03672 5.45001H10.4992C10.6492 5.45001 10.7784 5.50418 10.8867 5.61251C10.9951 5.72085 11.0492 5.85001 11.0492 6.00001C11.0492 6.15001 10.9951 6.27918 10.8867 6.38751C10.7784 6.49585 10.6492 6.55001 10.4992 6.55001H9.03672L10.2117 7.75001C10.3117 7.85835 10.3617 7.98751 10.3617 8.13751C10.3617 8.27918 10.3076 8.40418 10.1992 8.51251C10.0909 8.62085 9.96172 8.67501 9.81172 8.67501C9.67005 8.67501 9.54505 8.62085 9.43672 8.51251L7.48672 6.55001H6.54922V7.48751L8.49922 9.45001C8.60755 9.55835 8.66172 9.68751 8.66172 9.83751C8.66172 9.97918 8.60339 10.1083 8.48672 10.225C8.38672 10.325 8.26172 10.375 8.11172 10.375C7.97005 10.375 7.84505 10.325 7.73672 10.225L6.54922 9.03751V10.5125C6.54922 10.6625 6.49505 10.7917 6.38672 10.9C6.27839 11 6.14922 11.05 5.99922 11.05C5.84922 11.05 5.72005 10.9958 5.61172 10.8875C5.50339 10.7792 5.44922 10.65 5.44922 10.5V9.03751Z"
    fill="currentColor"
  />
</svg>
