<svg width="24" height="24" viewBox="0 0 24 24" fill="none" xmlns="http://www.w3.org/2000/svg" data-fui-icon="true">
  <path
    d="M6.5 12C6.9565 12 7.36142 12.2942 7.50195 12.7285L8.42285 15.5771L11.2715 16.498C11.7058 16.6386 12 17.0435 12 17.5C12 17.9565 11.7058 18.3614 11.2715 18.502L8.42285 19.4229L7.50195 22.2715C7.36142 22.7058 6.9565 23 6.5 23C6.04351 23 5.63858 22.7058 5.49805 22.2715L4.57715 19.4229L1.72852 18.502C1.29418 18.3614 1 17.9565 1 17.5C1.00001 17.0435 1.29419 16.6386 1.72852 16.498L4.57715 15.5771L5.49805 12.7285C5.63858 12.2942 6.04351 12 6.5 12ZM15.4834 1C16.1092 1 16.6637 1.40295 16.8574 1.99805L18.0107 5.53809C18.0805 5.75208 18.2479 5.92049 18.4619 5.99023L22.002 7.14258C22.597 7.33633 23 7.89078 23 8.5166C23 9.14245 22.5971 9.69687 22.002 9.89062L18.4619 11.0439C18.2481 11.1137 18.0805 11.2813 18.0107 11.4951L16.8574 15.0352C16.6637 15.6303 16.1092 16.0332 15.4834 16.0332C14.8576 16.0332 14.3031 15.6302 14.1094 15.0352L12.957 11.4951C12.8873 11.2811 12.7189 11.1137 12.5049 11.0439L8.96484 9.89062C8.36975 9.69687 7.9668 9.14245 7.9668 8.5166C7.96682 7.89078 8.36977 7.33633 8.96484 7.14258L12.5049 5.99023C12.719 5.92049 12.8873 5.75224 12.957 5.53809L14.1094 1.99805C14.3031 1.40297 14.8576 1.00004 15.4834 1Z"
    fill="currentColor"
  />
</svg>
