<svg width="20" height="20" viewBox="0 0 20 20" fill="none" xmlns="http://www.w3.org/2000/svg" data-fui-icon="true">
  <path
    d="M14.501 9.99968C14.1275 9.99968 13.7966 10.241 13.6816 10.5964L12.9268 12.9264L10.5967 13.6803C10.2414 13.7953 10.0011 14.1263 10.001 14.4997C10.001 14.8731 10.2414 15.204 10.5967 15.319L12.9268 16.0739L13.6816 18.404C13.7967 18.7592 14.1276 18.9997 14.501 18.9997C14.8743 18.9995 15.2054 18.7592 15.3203 18.404L16.0742 16.0739L18.4043 15.319C18.7597 15.204 19.001 14.8732 19.001 14.4997C19.0008 14.1263 18.7596 13.7953 18.4043 13.6803L16.0742 12.9264L15.3203 10.5964C15.2054 10.2411 14.8743 9.99984 14.501 9.99968ZM7.02832 0.99968C6.52644 0.99968 6.08116 1.32324 5.92578 1.80046L5.00195 4.63933C4.94598 4.81095 4.81129 4.94572 4.63965 5.00163L1.80078 5.92546C1.32356 6.08084 0.999998 6.52612 1 7.028C1.0001 7.52978 1.32364 7.97421 1.80078 8.12956L4.63965 9.05437C4.81132 9.11034 4.94605 9.24497 5.00195 9.41667L5.92578 12.2555C6.08119 12.7327 6.52647 13.0553 7.02832 13.0553C7.53005 13.0553 7.97442 12.7326 8.12988 12.2555L9.05469 9.41667C9.11061 9.24492 9.24525 9.11031 9.41699 9.05437L12.2559 8.12956C12.7329 7.97416 13.0556 7.52973 13.0557 7.028C13.0557 6.52612 12.7331 6.08084 12.2559 5.92546L9.41699 5.00163C9.24532 4.94574 9.11068 4.81095 9.05469 4.63933L8.12988 1.80046C7.97451 1.32326 7.53017 0.999712 7.02832 0.99968Z"
    fill="currentColor"
  />
</svg>
