<svg width="12" height="12" viewBox="0 0 12 12" fill="none" xmlns="http://www.w3.org/2000/svg" data-fui-icon="true">
  <path
    fill-rule="evenodd"
    clip-rule="evenodd"
    d="M2.08772 6.89012C2.39755 6.3674 3.20517 6.40522 3.44406 7.00241L3.68916 7.61467C3.81621 7.93208 4.06796 8.18388 4.38539 8.3109L4.99862 8.556C5.6351 8.81102 5.63446 9.71231 4.99764 9.96702L4.38539 10.2121C4.06799 10.3392 3.81615 10.5909 3.68916 10.9083L3.44406 11.5206C3.18912 12.1571 2.28787 12.1572 2.03304 11.5206L1.78794 10.9083C1.6609 10.5908 1.40927 10.3392 1.09171 10.2121L0.479457 9.96702C-0.157289 9.71225 -0.157141 8.81095 0.479457 8.556L1.09171 8.3109C1.40914 8.18392 1.66085 7.93204 1.78794 7.61467L2.03304 7.00241L2.08772 6.89012ZM2.73806 8.91046C2.63201 9.03758 2.51464 9.155 2.3875 9.26102C2.51473 9.36708 2.63194 9.4844 2.73806 9.61158C2.84404 9.4845 2.96156 9.36702 3.08862 9.26102C2.96147 9.15492 2.8441 9.03767 2.73806 8.91046ZM6.55318 0.75097C6.78497 -0.250398 8.21168 -0.250249 8.44365 0.75097L8.79421 2.26843C8.90165 2.734 9.26514 3.09826 9.73066 3.20585L11.2481 3.55543C12.2504 3.78685 12.2503 5.21446 11.2481 5.4459L9.73066 5.79548C9.26517 5.90299 8.90177 6.26743 8.79421 6.73291L8.44365 8.25036C8.21209 9.25236 6.78468 9.25241 6.55318 8.25036L6.2036 6.73291C6.09598 6.26743 5.73173 5.90291 5.26618 5.79548L3.7497 5.4459C2.74775 5.21429 2.74763 3.78688 3.7497 3.55543L5.26618 3.20585C5.73189 3.09838 6.09612 2.73414 6.2036 2.26843L6.55318 0.75097ZM7.49842 3.09941C7.22193 3.72451 6.72228 4.22421 6.09716 4.50067C6.72183 4.7769 7.2218 5.27649 7.49842 5.90094C7.77482 5.27672 8.27447 4.77707 8.89869 4.50067C8.27426 4.22405 7.77466 3.72406 7.49842 3.09941Z"
    fill="currentColor"
  />
</svg>
