<svg width="16" height="16" viewBox="0 0 16 16" fill="none" xmlns="http://www.w3.org/2000/svg" data-fui-icon="true">
  <path
    fill-rule="evenodd"
    clip-rule="evenodd"
    d="M3.37482 9.01013C3.75936 8.36217 4.71996 8.36196 5.10431 9.01013L5.17658 9.15857L5.49298 9.95056C5.59465 10.2045 5.7966 10.4056 6.0506 10.5072L6.84161 10.8236C7.68795 11.1623 7.68797 12.3609 6.84161 12.6996L6.0506 13.016C5.79656 13.1176 5.59461 13.3186 5.49298 13.5726L5.17658 14.3636C4.83793 15.2101 3.64019 15.2101 3.30158 14.3636L2.98517 13.5726C2.88354 13.3186 2.68161 13.1176 2.42755 13.016L1.63654 12.6996C0.790378 12.3609 0.790473 11.1624 1.63654 10.8236L2.42755 10.5072C2.68146 10.4056 2.8835 10.2044 2.98517 9.95056L3.30158 9.15857L3.37482 9.01013ZM4.1131 11.7611C4.15632 11.8018 4.19834 11.8439 4.23908 11.8871C4.2798 11.8439 4.32184 11.8018 4.36505 11.7611C4.32166 11.7202 4.27995 11.6776 4.23908 11.6342C4.19819 11.6776 4.15649 11.7202 4.1131 11.7611ZM8.46759 1.83142C8.82595 0.723353 10.424 0.723018 10.782 1.83142L10.8133 1.94568L11.2801 3.97009C11.3661 4.3427 11.6575 4.6341 12.0301 4.72009L14.0545 5.18689C15.3149 5.47806 15.3149 7.27355 14.0545 7.56482L12.0301 8.03259C11.6576 8.11855 11.3662 8.40918 11.2801 8.78162L10.8133 10.806C10.5223 12.0669 8.72634 12.0669 8.43536 10.806L7.96857 8.78162C7.88256 8.4092 7.59096 8.11866 7.21857 8.03259L5.19415 7.56482C3.93328 7.27384 3.93326 5.47787 5.19415 5.18689L7.21857 4.72009C7.59096 4.63398 7.88262 4.34255 7.96857 3.97009L8.43536 1.94568L8.46759 1.83142ZM9.62384 5.18591C9.34904 5.6876 8.93601 6.10046 8.43439 6.37537C8.936 6.65006 9.34889 7.06337 9.62384 7.56482C9.89867 7.06353 10.3119 6.65009 10.8133 6.37537C10.3117 6.10037 9.89855 5.68767 9.62384 5.18591Z"
    fill="currentColor"
  />
</svg>
