<svg width="12" height="12" viewBox="0 0 12 12" fill="none" xmlns="http://www.w3.org/2000/svg" data-fui-icon="true">
  <path
    fill-rule="evenodd"
    clip-rule="evenodd"
    d="M1.8859 7.0707C2.22547 6.39833 3.21413 6.39836 3.55373 7.0707L3.61525 7.22498L3.69239 7.42711C3.8989 7.88333 4.29198 8.23437 4.77629 8.38602C5.6546 8.66053 5.65484 9.9043 4.77629 10.1788C4.2227 10.3521 3.78836 10.7862 3.61525 11.3399C3.34049 12.2178 2.0981 12.2178 1.82341 11.3399C1.65019 10.7861 1.21614 10.352 0.662368 10.1788C-0.215618 9.90402 -0.215545 8.66063 0.662368 8.38602L0.8645 8.30888C1.32087 8.10219 1.67196 7.70962 1.82341 7.22498L1.8859 7.0707ZM6.09747 1.00283C6.54378 -0.375984 8.5834 -0.330308 8.92341 1.14052L9.18121 2.25859C9.24569 2.53802 9.46423 2.75656 9.74366 2.82104L10.8617 3.07883C12.3797 3.4299 12.3796 5.59161 10.8617 5.94286L9.74366 6.20163C9.46443 6.26609 9.24584 6.48395 9.18121 6.7631L8.92341 7.88118C8.57278 9.40015 6.41005 9.40018 6.05939 7.88118L5.8016 6.7631C5.73707 6.484 5.51822 6.26624 5.23914 6.20163L4.12107 5.94286C2.60244 5.59202 2.60236 3.42962 4.12107 3.07883L5.23914 2.82104C5.51832 2.7564 5.73716 2.53784 5.8016 2.25859L6.05939 1.14052L6.09747 1.00283Z"
    fill="currentColor"
  />
</svg>
