<svg width="24" height="24" viewBox="0 0 24 24" fill="none" xmlns="http://www.w3.org/2000/svg" data-fui-icon="true">
  <path
    fill-rule="evenodd"
    clip-rule="evenodd"
    d="M4.84931 14.0538C5.26347 13.3553 6.34248 13.4052 6.66181 14.2032L7.21649 15.5909C7.43441 16.1352 7.86645 16.5665 8.41083 16.7843L9.7995 17.3399C10.6499 17.6808 10.6501 18.885 9.7995 19.2257L8.41083 19.7804C7.86623 19.9981 7.43438 20.4301 7.21649 20.9747L6.66181 22.3624C6.32108 23.2129 5.11699 23.2127 4.77606 22.3624L4.2204 20.9747C4.00256 20.4302 3.57053 19.9982 3.02606 19.7804L1.63837 19.2257C0.787161 18.8852 0.787259 17.6806 1.63837 17.3399L3.02704 16.7843C3.57121 16.5665 4.00253 16.135 4.2204 15.5909L4.77606 14.2032L4.84931 14.0538ZM5.71845 17.0284C5.39585 17.532 4.96817 17.9598 4.46454 18.2823C4.96807 18.6048 5.39587 19.0327 5.71845 19.5362C6.04101 19.0327 6.46879 18.6049 6.97235 18.2823C6.46887 17.9598 6.04097 17.5319 5.71845 17.0284ZM13.1462 2.04306C13.4572 0.695769 15.3258 0.653875 15.7341 1.91708L15.7692 2.04306L16.6286 5.76865C16.813 6.56688 17.4368 7.19081 18.235 7.37509L21.9616 8.23447C23.3525 8.55537 23.3526 10.5356 21.9616 10.8565L18.235 11.7169C17.4369 11.9012 16.813 12.5242 16.6286 13.3224L15.7692 17.0479C15.448 18.4383 13.4674 18.4383 13.1462 17.0479L12.2868 13.3224C12.1024 12.5241 11.4787 11.9011 10.6804 11.7169L6.9538 10.8565C5.56316 10.5355 5.56317 8.55555 6.9538 8.23447L10.6804 7.37509C11.4787 7.19089 12.1023 6.56692 12.2868 5.76865L13.1462 2.04306ZM14.235 6.21786C13.8786 7.76145 12.6732 8.9672 11.1296 9.32333L10.1657 9.54501L11.1296 9.76767C12.6733 10.1238 13.8787 11.3294 14.235 12.8731L14.4577 13.837L14.6804 12.8731C15.0367 11.3295 16.2421 10.1239 17.7858 9.76767L18.7487 9.54501L17.7858 9.32333C16.2422 8.96719 15.0368 7.76144 14.6804 6.21786L14.4577 5.25302L14.235 6.21786Z"
    fill="currentColor"
  />
</svg>
