<svg width="12" height="12" viewBox="0 0 12 12" fill="none" xmlns="http://www.w3.org/2000/svg" data-fui-icon="true">
  <g clip-path="url(#clip0_5386_20)">
    <path
      d="M9 5.99995C8.751 5.99995 8.52978 6.16051 8.45312 6.39742L7.95117 7.95113L6.39746 8.45406C6.16057 8.5307 6.00003 8.75098 6 8.99995C6 9.24895 6.16055 9.4692 6.39746 9.54585L7.95117 10.0488L8.45312 11.6025C8.52978 11.8394 8.751 12 9 12C9.24894 11.9999 9.46926 11.8393 9.5459 11.6025L10.0488 10.0488L11.6025 9.54585C11.8393 9.46914 12 9.24888 12 8.99995C12 8.75104 11.8393 8.53076 11.6025 8.45406L10.0488 7.95113L9.5459 6.39742C9.46924 6.16059 9.24891 6.00002 9 5.99995ZM3.91699 -4.57764e-05C3.59089 -4.57764e-05 3.30115 0.21038 3.2002 0.520462L2.59961 2.36421C2.56327 2.47583 2.47587 2.5642 2.36426 2.60054L0.519531 3.20015C0.209527 3.30115 -9.53674e-07 3.59089 0 3.91695C9.44138e-05 4.24285 0.209684 4.53174 0.519531 4.63277L2.36426 5.23335C2.4758 5.26967 2.56323 5.35719 2.59961 5.4687L3.2002 7.31343C3.30115 7.62351 3.59089 7.83296 3.91699 7.83296C4.2429 7.83275 4.53191 7.62336 4.63281 7.31343L5.2334 5.4687C5.26978 5.35719 5.3572 5.26967 5.46875 5.23335L7.31348 4.63277C7.62332 4.53174 7.83291 4.24285 7.83301 3.91695C7.83301 3.59089 7.62348 3.30115 7.31348 3.20015L5.46875 2.60054C5.35714 2.5642 5.26974 2.47583 5.2334 2.36421L4.63281 0.520462C4.53191 0.210534 4.2429 0.00016337 3.91699 -4.57764e-05Z"
      fill="currentColor"
    />
  </g>
  <defs>
    <clipPath id="clip0_5386_20"><path fill="currentColor" d="M0 0H12V12H0z" /></clipPath>
  </defs>
</svg>
