<svg width="20" height="20" viewBox="0 0 20 20" fill="none" xmlns="http://www.w3.org/2000/svg" data-fui-icon="true">
  <path
    fill-rule="evenodd"
    clip-rule="evenodd"
    d="M4.16373 11.7349C4.45415 11.2457 5.17898 11.2457 5.4694 11.7349L5.52506 11.8472L5.986 13.0005C6.1712 13.463 6.53805 13.83 7.00065 14.0151L8.15299 14.4761C8.79161 14.7321 8.79163 15.6361 8.15299 15.8921L7.00065 16.353C6.53778 16.5382 6.17112 16.9058 5.986 17.3687L5.52506 18.521C5.2693 19.1602 4.36396 19.1601 4.10807 18.521L3.64713 17.3687C3.46206 16.9059 3.0952 16.5382 2.63248 16.353L1.48014 15.8921C0.841316 15.6362 0.841194 14.732 1.48014 14.4761L2.63248 14.0151C3.09507 13.83 3.46198 13.4631 3.64713 13.0005L4.10807 11.8472L4.16373 11.7349ZM4.81608 14.0112C4.53076 14.4948 4.12771 14.8987 3.6442 15.1841C4.12738 15.4693 4.53081 15.8728 4.81608 16.356C5.10127 15.8728 5.50482 15.4694 5.98795 15.1841C5.50467 14.8987 5.10127 14.4947 4.81608 14.0112ZM11.0407 1.70166C11.3442 0.764134 12.6961 0.764186 12.9997 1.70166L13.026 1.79932L13.7399 4.89307C13.8965 5.57143 14.4268 6.10149 15.1051 6.2583L18.1989 6.97217C19.266 7.21875 19.266 8.73834 18.1989 8.98486L15.1051 9.69873C14.4268 9.85554 13.8965 10.3855 13.7399 11.064L13.026 14.1577C12.7797 15.2252 11.2596 15.2252 11.0133 14.1577L10.2995 11.064C10.1427 10.3855 9.6128 9.85535 8.93424 9.69873L5.84147 8.98486C4.77445 8.73827 4.77445 7.21874 5.84147 6.97217L8.93424 6.2583C9.61279 6.10168 10.1427 5.57156 10.2995 4.89307L11.0133 1.79932L11.0407 1.70166ZM11.7614 5.22998C11.4758 6.46748 10.5096 7.43352 9.27213 7.71924L8.15006 7.97803L9.27213 8.23682C10.5096 8.52248 11.4758 9.48958 11.7614 10.7271L12.0202 11.8481L12.279 10.7271C12.5646 9.48956 13.5308 8.52251 14.7682 8.23682L15.8893 7.97803L14.7682 7.71924C13.5308 7.4335 12.5645 6.46742 12.279 5.22998L12.0202 4.10791L11.7614 5.22998Z"
    fill="currentColor"
  />
</svg>
