<svg width="32" height="32" viewBox="0 0 32 32" fill="none" xmlns="http://www.w3.org/2000/svg" data-fui-icon="true">
  <path
    d="M23 15.9993C22.419 15.9993 21.9035 16.3743 21.7246 16.9271L20.5518 20.5521L16.9268 21.7249C16.374 21.9038 15.999 22.4193 15.999 23.0003C15.9992 23.5812 16.3741 24.0959 16.9268 24.2747L20.5518 25.4476L21.7246 29.0726C21.9035 29.6254 22.419 30.0003 23 30.0003C23.5809 30.0002 24.0956 29.6253 24.2744 29.0726L25.4473 25.4476L29.0723 24.2747C29.6249 24.0959 29.9998 23.5812 30 23.0003C30 22.4193 29.6251 21.9038 29.0723 21.7249L25.4473 20.5521L24.2744 16.9271C24.0956 16.3744 23.5809 15.9994 23 15.9993ZM11.5654 1.99933C10.7691 1.99953 10.063 2.51257 9.81641 3.26984L8.34961 7.77472C8.26085 8.04735 8.04705 8.26115 7.77441 8.34991L3.26953 9.81671C2.51211 10.0633 1.99902 10.7702 1.99902 11.5667C1.99922 12.3631 2.51226 13.0692 3.26953 13.3157L7.77441 14.7825C8.04705 14.8713 8.26084 15.0851 8.34961 15.3577L9.81641 19.8626C10.063 20.6199 10.7691 21.1329 11.5654 21.1331C12.362 21.1331 13.0688 20.62 13.3154 19.8626L14.7822 15.3577C14.871 15.0851 15.0848 14.8713 15.3574 14.7825L19.8623 13.3157C20.6196 13.0692 21.1326 12.3631 21.1328 11.5667C21.1328 10.7702 20.6197 10.0633 19.8623 9.81671L15.3574 8.34991C15.0848 8.26115 14.871 8.04735 14.7822 7.77472L13.3154 3.26984C13.0688 2.51242 12.362 1.99933 11.5654 1.99933Z"
    fill="currentColor"
  />
</svg>
