<svg width="20" height="20" viewBox="0 0 20 20" fill="none" xmlns="http://www.w3.org/2000/svg" data-fui-icon="true">
  <path
    fill-rule="evenodd"
    clip-rule="evenodd"
    d="M4.25757 11.2587C4.64331 10.6096 5.60644 10.6093 5.99195 11.2587L6.06519 11.4081L6.53687 12.5878C6.69661 12.9868 7.01284 13.3031 7.41187 13.4628L8.59156 13.9345C9.43976 14.2742 9.43964 15.4755 8.59156 15.8154L7.41187 16.287C7.01298 16.4467 6.69665 16.7632 6.53687 17.162L6.06519 18.3417C5.72554 19.1904 4.52399 19.1904 4.18433 18.3417L3.71265 17.162C3.55294 16.7631 3.23652 16.4468 2.83765 16.287L1.65796 15.8154C0.809354 15.4757 0.809295 14.2742 1.65796 13.9345L2.83765 13.4628C3.23645 13.303 3.55298 12.9867 3.71265 12.5878L4.18433 11.4081L4.25757 11.2587ZM10.783 1.84856C11.1601 0.684265 12.8396 0.684109 13.2166 1.84856L13.2498 1.96966L13.9255 4.89641C14.0607 5.48198 14.5177 5.93902 15.1033 6.07415L18.03 6.74993C19.3554 7.05611 19.3553 8.94365 18.03 9.24993L15.1033 9.92571C14.5178 10.0608 14.0608 10.5181 13.9255 11.1034L13.2498 14.0302C12.9438 15.3561 11.0557 15.3561 10.7498 14.0302L10.074 11.1034C9.93882 10.5181 9.48159 10.0609 8.89625 9.92571L5.96949 9.24993C4.64361 8.94396 4.64362 7.0559 5.96949 6.74993L8.89625 6.07415C9.48159 5.93888 9.93889 5.48182 10.074 4.89641L10.7498 1.96966L10.783 1.84856Z"
    fill="currentColor"
  />
</svg>
