<svg width="32" height="32" viewBox="0 0 32 32" fill="none" xmlns="http://www.w3.org/2000/svg" data-fui-icon="true">
  <path
    fill-rule="evenodd"
    clip-rule="evenodd"
    d="M6.37555 19.2985C6.66928 18.8037 7.40325 18.8036 7.69684 19.2985L7.7525 19.4127L8.57086 21.4596C8.93032 22.3578 9.64232 23.07 10.5406 23.4293L12.5875 24.2477C13.2334 24.5065 13.2335 25.4215 12.5875 25.6803L10.5406 26.4987C9.64208 26.8581 8.93024 27.5709 8.57086 28.4694L7.7525 30.5163C7.49383 31.1622 6.57888 31.1621 6.31988 30.5163L5.50152 28.4694C5.14218 27.5709 4.4292 26.8582 3.53082 26.4987L1.48492 25.6803C0.838377 25.4217 0.838342 24.5064 1.48492 24.2477L3.53082 23.4293C4.42911 23.0699 5.14215 22.3579 5.50152 21.4596L6.31988 19.4127L6.37555 19.2985ZM18.2964 1.83169C18.655 0.721826 20.2554 0.721759 20.6138 1.83169L20.6451 1.94595L21.9117 7.43618C22.2157 8.75362 23.2447 9.78239 24.5621 10.0866L30.0523 11.3532C31.3147 11.6445 31.3146 13.4426 30.0523 13.734L24.5621 15.0006C23.2448 15.3048 22.2158 16.3338 21.9117 17.651L20.6451 23.1413C20.3538 24.4037 18.5565 24.4037 18.2652 23.1413L16.9976 17.651C16.6934 16.3337 15.6646 15.3047 14.3472 15.0006L8.85797 13.734C7.5956 13.4427 7.59556 11.6445 8.85797 11.3532L14.3472 10.0866C15.6647 9.78249 16.6935 8.75366 16.9976 7.43618L18.2652 1.94595L18.2964 1.83169Z"
    fill="currentColor"
  />
</svg>
