<svg width="12" height="12" viewBox="0 0 12 12" fill="none" xmlns="http://www.w3.org/2000/svg" data-fui-icon="true">
  <path
    d="M2.99999 5.99998C3.24899 5.99998 3.47021 6.16053 3.54686 6.39744L4.04881 7.95114L5.60252 8.45407C5.8394 8.53071 5.99995 8.75099 5.99998 8.99997C5.99998 9.24896 5.83942 9.46921 5.60252 9.54586L4.04881 10.0488L3.54686 11.6025C3.47021 11.8394 3.24899 12 2.99999 12C2.75105 11.9999 2.53073 11.8394 2.45409 11.6025L1.95116 10.0488L0.397459 9.54586C0.160671 9.46915 0 9.24889 0 8.99997C2.63009e-05 8.75106 0.160671 8.53077 0.397459 8.45407L1.95116 7.95114L2.45409 6.39744C2.53075 6.16062 2.75108 6.00004 2.99999 5.99998ZM8.08298 0C8.40908 0 8.69881 0.210425 8.79977 0.520506L9.40035 2.36425C9.43669 2.47586 9.52409 2.56424 9.63571 2.60058L11.4804 3.20018C11.7904 3.30118 12 3.59092 12 3.91698C11.9999 4.24288 11.7903 4.53177 11.4804 4.63279L9.63571 5.23338C9.52416 5.2697 9.43674 5.35721 9.40035 5.46873L8.79977 7.31345C8.69881 7.62353 8.40908 7.83298 8.08298 7.83298C7.75707 7.83277 7.46807 7.62337 7.36716 7.31345L6.76658 5.46873C6.73019 5.35721 6.64277 5.2697 6.53123 5.23338L4.68651 4.63279C4.37666 4.53177 4.16707 4.24288 4.16698 3.91698C4.16698 3.59093 4.3765 3.30118 4.68651 3.20018L6.53123 2.60058C6.64284 2.56424 6.73024 2.47586 6.76658 2.36425L7.36716 0.520506C7.46807 0.210579 7.75707 0.000209145 8.08298 0Z"
    fill="currentColor"
  />
</svg>
