<svg width="20" height="20" viewBox="0 0 20 20" fill="none" xmlns="http://www.w3.org/2000/svg" data-fui-icon="true">
  <path
    d="M5.5 9.99968C5.8735 9.99968 6.20436 10.241 6.31934 10.5964L7.07422 12.9264L9.4043 13.6803C9.75956 13.7953 9.99987 14.1263 10 14.4997C10 14.8731 9.75958 15.204 9.4043 15.319L7.07422 16.0739L6.31934 18.404C6.20429 18.7592 5.87342 18.9997 5.5 18.9997C5.12665 18.9995 4.79561 18.7592 4.68066 18.404L3.92676 16.0739L1.59668 15.319C1.24132 15.204 1 14.8732 1 14.4997C1.00013 14.1263 1.24142 13.7953 1.59668 13.6803L3.92676 12.9264L4.68066 10.5964C4.79561 10.2411 5.12665 9.99983 5.5 9.99968ZM12.9727 0.999676C13.4745 0.999676 13.9198 1.32323 14.0752 1.80046L14.999 4.63932C15.055 4.81094 15.1897 4.94571 15.3613 5.00163L18.2002 5.92546C18.6774 6.08083 19.001 6.52611 19.001 7.028C19.0009 7.52978 18.6773 7.9742 18.2002 8.12956L15.3613 9.05436C15.1897 9.11034 15.0549 9.24496 14.999 9.41667L14.0752 12.2555C13.9198 12.7327 13.4745 13.0553 12.9727 13.0553C12.4709 13.0553 12.0266 12.7326 11.8711 12.2555L10.9463 9.41667C10.8904 9.24492 10.7557 9.11031 10.584 9.05436L7.74512 8.12956C7.26805 7.97416 6.94541 7.52973 6.94531 7.028C6.94531 6.52612 7.26789 6.08083 7.74512 5.92546L10.584 5.00163C10.7557 4.94574 10.8903 4.81095 10.9463 4.63932L11.8711 1.80046C12.0265 1.32326 12.4708 0.999709 12.9727 0.999676Z"
    fill="currentColor"
  />
</svg>
