<svg width="24" height="24" viewBox="0 0 24 24" fill="none" xmlns="http://www.w3.org/2000/svg" data-fui-icon="true">
  <path
    fill-rule="evenodd"
    clip-rule="evenodd"
    d="M4.84931 14.0539C5.26347 13.3554 6.34248 13.4052 6.66181 14.2033L7.21649 15.591C7.43441 16.1353 7.86645 16.5666 8.41083 16.7843L9.7995 17.34C10.6499 17.6809 10.6501 18.8851 9.7995 19.2257L8.41083 19.7804C7.86623 19.9982 7.43438 20.4302 7.21649 20.9748L6.66181 22.3625C6.32108 23.2129 5.11699 23.2127 4.77606 22.3625L4.2204 20.9748C4.00256 20.4303 3.57053 19.9982 3.02606 19.7804L1.63837 19.2257C0.787161 18.8852 0.787259 17.6806 1.63837 17.34L3.02704 16.7843C3.57121 16.5665 4.00253 16.1351 4.2204 15.591L4.77606 14.2033L4.84931 14.0539ZM5.71845 17.0285C5.39585 17.5321 4.96817 17.9598 4.46454 18.2824C4.96807 18.6049 5.39587 19.0328 5.71845 19.5363C6.04101 19.0327 6.46879 18.6049 6.97235 18.2824C6.46887 17.9598 6.04097 17.532 5.71845 17.0285ZM13.1462 2.04312C13.4572 0.69583 15.3258 0.653936 15.7341 1.91714L15.7692 2.04312L16.6286 5.76871C16.813 6.56694 17.4368 7.19087 18.235 7.37515L21.9616 8.23453C23.3525 8.55543 23.3526 10.5357 21.9616 10.8566L18.235 11.7169C17.4369 11.9013 16.813 12.5243 16.6286 13.3224L15.7692 17.048C15.448 18.4384 13.4674 18.4384 13.1462 17.048L12.2868 13.3224C12.1024 12.5242 11.4787 11.9012 10.6804 11.7169L6.9538 10.8566C5.56316 10.5356 5.56317 8.55561 6.9538 8.23453L10.6804 7.37515C11.4787 7.19095 12.1023 6.56699 12.2868 5.76871L13.1462 2.04312ZM14.235 6.21793C13.8786 7.76151 12.6732 8.96726 11.1296 9.32339L10.1657 9.54507L11.1296 9.76773C12.6733 10.1239 13.8787 11.3295 14.235 12.8732L14.4577 13.8371L14.6804 12.8732C15.0367 11.3295 16.2421 10.1239 17.7858 9.76773L18.7487 9.54507L17.7858 9.32339C16.2422 8.96725 15.0368 7.7615 14.6804 6.21793L14.4577 5.25308L14.235 6.21793Z"
    fill="currentColor"
  />
</svg>
