<svg width="32" height="32" viewBox="0 0 32 32" fill="none" xmlns="http://www.w3.org/2000/svg" data-fui-icon="true">
  <path
    fill-rule="evenodd"
    clip-rule="evenodd"
    d="M6.31946 19.0029C6.70767 18.3447 7.68326 18.3447 8.07142 19.0029L8.14466 19.1543L8.94349 21.1699C9.27478 22.0056 9.93412 22.6691 10.7677 23.0058L12.7521 23.8076C13.6039 24.1517 13.604 25.3581 12.7521 25.7021L10.7677 26.5029C9.93396 26.8397 9.27471 27.5039 8.94349 28.3398L8.14466 30.3545C7.8037 31.2144 6.58613 31.2145 6.24524 30.3545L5.44739 28.3398C5.11616 27.5038 4.45699 26.8397 3.62317 26.5029L1.6388 25.7021C0.786978 25.3581 0.787156 24.1518 1.6388 23.8076L3.62317 23.0058C4.45668 22.6691 5.11611 22.0056 5.44739 21.1699L6.24524 19.1543L6.31946 19.0029ZM7.19544 22.167C6.67075 23.3084 5.75544 24.2254 4.61536 24.7539C5.75565 25.2823 6.67064 26.2003 7.19544 27.3418C7.72011 26.2006 8.63469 25.2824 9.77454 24.7539C8.63476 24.2253 7.72003 23.3082 7.19544 22.167ZM17.756 2.00585C18.2006 0.621207 20.2493 0.667599 20.587 2.14452L21.8663 7.74022C22.1463 8.96515 23.1006 9.92383 24.3243 10.209L29.8654 11.5C31.3813 11.8538 31.3815 14.0125 29.8654 14.3662L24.3243 15.6572C23.1006 15.9424 22.1463 16.9001 21.8663 18.125L20.587 23.7207C20.2385 25.2454 18.0675 25.2454 17.7189 23.7207L16.4396 18.125C16.1596 16.9001 15.2053 15.9424 13.9816 15.6572L8.44153 14.3662C6.92481 14.0128 6.92478 11.8534 8.44153 11.5L13.9816 10.209C15.2053 9.9238 16.1596 8.96515 16.4396 7.74022L17.7189 2.14452L17.756 2.00585ZM18.3898 8.18651C17.9393 10.1568 16.4041 11.6975 14.4357 12.1562L11.1027 12.9326L14.4357 13.709C16.4042 14.1677 17.9394 15.7092 18.3898 17.6797L19.1525 21.0205L19.9171 17.6797C20.3675 15.7092 21.9017 14.1677 23.8702 13.709L27.2023 12.9326L23.8702 12.1562C21.9019 11.6975 20.3676 10.1567 19.9171 8.18651L19.1525 4.84374L18.3898 8.18651Z"
    fill="currentColor"
  />
</svg>
