<svg width="32" height="32" viewBox="0 0 32 32" fill="none" xmlns="http://www.w3.org/2000/svg" data-fui-icon="true">
  <path
    fill-rule="evenodd"
    clip-rule="evenodd"
    d="M6.31934 19.0024C6.70768 18.344 7.68338 18.3445 8.07129 19.0033L8.14453 19.1537L8.94336 21.1693C9.27459 22.0051 9.93402 22.6685 10.7676 23.0053L12.752 23.807C13.6036 24.1512 13.6036 25.3575 12.752 25.7016L10.7676 26.5024C9.93387 26.8391 9.27459 27.5033 8.94336 28.3393L8.14453 30.3539C7.80373 31.2143 6.58591 31.2143 6.24512 30.3539L5.44727 28.3393C5.11603 27.5033 4.45677 26.8391 3.62305 26.5024L1.63867 25.7016C0.787118 25.3574 0.7871 24.1512 1.63867 23.807L3.62305 23.0053C4.45663 22.6685 5.11606 22.0052 5.44727 21.1693L6.24512 19.1537L6.31934 19.0024ZM17.7178 2.14395C18.0663 0.619282 20.2383 0.619385 20.5869 2.14395L21.8662 7.73966C22.1462 8.9646 23.1005 9.92325 24.3242 10.2084L29.8643 11.4994C31.3808 11.8529 31.3808 14.0121 29.8643 14.3656L24.3242 15.6566C23.1006 15.9418 22.1463 16.8996 21.8662 18.1244L20.5869 23.7211C20.2381 25.2454 18.0665 25.2454 17.7178 23.7211L16.4395 18.1244C16.1594 16.8996 15.2051 15.9418 13.9814 15.6566L8.44043 14.3656C6.92428 14.0119 6.9243 11.8531 8.44043 11.4994L13.9814 10.2084C15.2052 9.92321 16.1595 8.96459 16.4395 7.73966L17.7178 2.14395Z"
    fill="currentColor"
  />
</svg>
