<svg width="24" height="24" viewBox="0 0 24 24" fill="none" xmlns="http://www.w3.org/2000/svg" data-fui-icon="true">
  <path
    fill-rule="evenodd"
    clip-rule="evenodd"
    d="M4.89985 14.2564C5.19112 13.7646 5.91984 13.7649 6.21138 14.2564L6.26704 14.3687L6.84712 15.8189C7.09031 16.4269 7.57223 16.9096 8.18013 17.1529L9.63032 17.733C10.2722 17.9897 10.272 18.8982 9.63032 19.1549L8.18013 19.735C7.5722 19.9782 7.09032 20.46 6.84712 21.068L6.26704 22.5182C6.01033 23.1599 5.10188 23.1599 4.84517 22.5182L4.26509 21.068C4.02181 20.46 3.53915 19.9782 2.9311 19.735L1.48091 19.1549C0.839664 18.898 0.839731 17.9899 1.48091 17.733L2.9311 17.1529C3.53918 16.9097 4.02185 16.427 4.26509 15.8189L4.84517 14.3687L4.89985 14.2564ZM13.4311 1.84921C13.6844 0.752174 15.2062 0.71806 15.5385 1.74667L15.5668 1.84921L16.4653 5.74179C16.6712 6.63318 17.3678 7.33 18.2592 7.53574L22.1508 8.4332C23.2833 8.69454 23.2833 10.3076 22.1508 10.5689L18.2592 11.4674C17.3678 11.6732 16.6712 12.369 16.4653 13.2603L15.5668 17.1529C15.3052 18.2849 13.6927 18.2849 13.4311 17.1529L12.5336 13.2603C12.3278 12.3689 11.6312 11.6732 10.7397 11.4674L6.84712 10.5689C5.715 10.3075 5.71507 8.69477 6.84712 8.4332L10.7397 7.53574C11.6312 7.32999 12.3277 6.63321 12.5336 5.74179L13.4311 1.84921Z"
    fill="currentColor"
  />
</svg>
