<svg width="32" height="32" viewBox="0 0 32 32" fill="none" xmlns="http://www.w3.org/2000/svg" data-fui-icon="true">
  <path
    fill-rule="evenodd"
    clip-rule="evenodd"
    d="M6.37543 19.2982C6.66914 18.8036 7.40305 18.8035 7.69672 19.2982L7.75239 19.4124L8.57074 21.4593C8.93014 22.3576 9.6422 23.0696 10.5405 23.429L12.5873 24.2474C13.2338 24.506 13.2338 25.4213 12.5873 25.68L10.5405 26.4984C9.64203 26.8578 8.93015 27.5706 8.57074 28.4691L7.75239 30.516C7.49366 31.1621 6.5786 31.162 6.31977 30.516L5.50141 28.4691C5.14198 27.5706 4.42919 26.8578 3.53071 26.4984L1.48481 25.68C0.838451 25.4213 0.838345 24.506 1.48481 24.2474L3.53071 23.429C4.42913 23.0696 5.14199 22.3577 5.50141 21.4593L6.31977 19.4124L6.37543 19.2982ZM6.89399 22.016C6.38214 23.2956 5.36794 24.3097 4.08832 24.8216L3.73285 24.9632L4.08832 25.1058C5.36789 25.6177 6.38211 26.6319 6.89399 27.9115L7.03559 28.266L7.17817 27.9115C7.69007 26.6319 8.70422 25.6177 9.98383 25.1058L10.3383 24.9632L9.98383 24.8216C8.7043 24.3097 7.68998 23.2955 7.17817 22.016L7.03559 21.6605L6.89399 22.016ZM18.2973 1.83237C18.6557 0.722245 20.2563 0.722192 20.6147 1.83237L20.6459 1.94663L21.9125 7.43686C22.2167 8.75408 23.2457 9.7831 24.5629 10.0873L30.0532 11.3539C31.3149 11.6455 31.315 13.4431 30.0532 13.7347L24.5629 15.0013C23.2456 15.3055 22.2166 16.3344 21.9125 17.6517L20.6459 23.1419C20.3545 24.404 18.5577 24.4038 18.2661 23.1419L16.9985 17.6517C16.6944 16.3345 15.6653 15.3055 14.3481 15.0013L8.85883 13.7347C7.59645 13.4434 7.59642 11.6452 8.85883 11.3539L14.3481 10.0873C15.6653 9.7831 16.6944 8.75412 16.9985 7.43686L18.2661 1.94663L18.2973 1.83237ZM18.4604 7.77377C18.0274 9.64994 16.5621 11.116 14.686 11.5492L10.3715 12.5443L14.686 13.5404C16.562 13.9737 18.0275 15.4386 18.4604 17.3148L19.4555 21.6283L20.4516 17.3148C20.8846 15.4384 22.3496 13.9735 24.226 13.5404L28.5395 12.5443L24.226 11.5492C22.3497 11.1161 20.8847 9.65003 20.4516 7.77377L19.4555 3.45932L18.4604 7.77377Z"
    fill="currentColor"
  />
</svg>
