<svg width="16" height="16" viewBox="0 0 16 16" fill="none" xmlns="http://www.w3.org/2000/svg" data-fui-icon="true">
  <path
    fill-rule="evenodd"
    clip-rule="evenodd"
    d="M10 1C12.2091 1 14 2.79086 14 5V11C14 13.2091 12.2091 15 10 15H6C3.79086 15 2 13.2091 2 11V5C2 2.79086 3.79086 1 6 1H10ZM6 2.5C4.61929 2.5 3.5 3.61929 3.5 5V11C3.5 12.3807 4.61929 13.5 6 13.5H10C11.3807 13.5 12.5 12.3807 12.5 11V5C12.5 3.61929 11.3807 2.5 10 2.5H6ZM8 6.5C9.65685 6.5 11 7.84315 11 9.5C11 11.1569 9.65685 12.5 8 12.5C6.34315 12.5 5 11.1569 5 9.5C5 7.84315 6.34315 6.5 8 6.5ZM8 8C7.17157 8 6.5 8.67157 6.5 9.5C6.5 10.3284 7.17157 11 8 11C8.82843 11 9.5 10.3284 9.5 9.5C9.5 8.67157 8.82843 8 8 8ZM8 3.5C8.55228 3.5 9 3.94772 9 4.5C9 5.05228 8.55228 5.5 8 5.5C7.44772 5.5 7 5.05228 7 4.5C7 3.94772 7.44772 3.5 8 3.5Z"
    fill="currentColor"
  />
</svg>
