<svg width="32" height="32" viewBox="0 0 32 32" fill="none" xmlns="http://www.w3.org/2000/svg" data-fui-icon="true">
  <path
    d="M21 1C25.1421 1 28.5 4.35786 28.5 8.5V23.5C28.5 27.6421 25.1421 31 21 31H11C6.85786 31 3.5 27.6421 3.5 23.5V8.5C3.5 4.35786 6.85786 1 11 1H21ZM11 3C7.96243 3 5.5 5.46243 5.5 8.5V23.5C5.5 26.5376 7.96243 29 11 29H21C24.0376 29 26.5 26.5376 26.5 23.5V8.5C26.5 5.46243 24.0376 3 21 3H11ZM16 12C19.866 12 23 15.134 23 19C23 22.866 19.866 26 16 26C12.134 26 9 22.866 9 19C9 15.134 12.134 12 16 12ZM16 14C13.2386 14 11 16.2386 11 19C11 21.7614 13.2386 24 16 24C18.7614 24 21 21.7614 21 19C21 16.2386 18.7614 14 16 14ZM16 7C16.8284 7 17.5 7.67157 17.5 8.5C17.5 9.32843 16.8284 10 16 10C15.1716 10 14.5 9.32843 14.5 8.5C14.5 7.67157 15.1716 7 16 7Z"
    fill="currentColor"
  />
</svg>
