<svg width="32" height="32" viewBox="0 0 32 32" fill="none" xmlns="http://www.w3.org/2000/svg" data-fui-icon="true">
  <path
    d="M21.25 1C25.2541 1 28.5 4.24594 28.5 8.25V23.75C28.5 27.7541 25.2541 31 21.25 31H10.75C6.74594 31 3.5 27.7541 3.5 23.75V8.25C3.5 4.24594 6.74594 1 10.75 1H21.25ZM10.75 2.5C7.57436 2.5 5 5.07436 5 8.25V23.75C5 26.9256 7.57436 29.5 10.75 29.5H21.25C24.4256 29.5 27 26.9256 27 23.75V8.25C27 5.07436 24.4256 2.5 21.25 2.5H10.75ZM16 12.5C19.7279 12.5 22.75 15.5221 22.75 19.25C22.75 22.9779 19.7279 26 16 26C12.2721 26 9.25 22.9779 9.25 19.25C9.25 15.5221 12.2721 12.5 16 12.5ZM16 14C13.1005 14 10.75 16.3505 10.75 19.25C10.75 22.1495 13.1005 24.5 16 24.5C18.8995 24.5 21.25 22.1495 21.25 19.25C21.25 16.3505 18.8995 14 16 14ZM16 7C16.8284 7 17.5 7.67157 17.5 8.5C17.5 9.32843 16.8284 10 16 10C15.1716 10 14.5 9.32843 14.5 8.5C14.5 7.67157 15.1716 7 16 7Z"
    fill="currentColor"
  />
</svg>
