<svg width="20" height="20" viewBox="0 0 20 20" fill="none" xmlns="http://www.w3.org/2000/svg" data-fui-icon="true">
  <path
    d="M12.4375 1C15.2334 1 17.5 3.26656 17.5 6.0625V13.9375C17.5 16.7334 15.2334 19 12.4375 19H7.5625C4.76656 19 2.5 16.7334 2.5 13.9375V6.0625C2.5 3.26656 4.76656 1 7.5625 1H12.4375ZM7.5625 3C5.87113 3 4.5 4.37113 4.5 6.0625V13.9375C4.5 15.6289 5.87113 17 7.5625 17H12.4375C14.1289 17 15.5 15.6289 15.5 13.9375V6.0625C15.5 4.37113 14.1289 3 12.4375 3H7.5625ZM10 8.25C12.0711 8.25 13.75 9.92893 13.75 12C13.75 14.0711 12.0711 15.75 10 15.75C7.92893 15.75 6.25 14.0711 6.25 12C6.25 9.92893 7.92893 8.25 10 8.25ZM10 10.25C9.0335 10.25 8.25 11.0335 8.25 12C8.25 12.9665 9.0335 13.75 10 13.75C10.9665 13.75 11.75 12.9665 11.75 12C11.75 11.0335 10.9665 10.25 10 10.25ZM10 4.5C10.6904 4.5 11.25 5.05964 11.25 5.75C11.25 6.44036 10.6904 7 10 7C9.30964 7 8.75 6.44036 8.75 5.75C8.75 5.05964 9.30964 4.5 10 4.5Z"
    fill="currentColor"
  />
</svg>
