<svg width="32" height="32" viewBox="0 0 32 32" fill="none" xmlns="http://www.w3.org/2000/svg" data-fui-icon="true">
  <path
    d="M21 1.75C25.0041 1.75 28.25 4.99594 28.25 9V23C28.25 27.0041 25.0041 30.25 21 30.25H11C6.99594 30.25 3.75 27.0041 3.75 23V9C3.75 4.99594 6.99594 1.75 11 1.75H21ZM11 3.25C7.82436 3.25 5.25 5.82436 5.25 9V23C5.25 26.1756 7.82436 28.75 11 28.75H21C24.1756 28.75 26.75 26.1756 26.75 23V9C26.75 5.82436 24.1756 3.25 21 3.25H11ZM16 13C19.3137 13 22 15.6863 22 19C22 22.3137 19.3137 25 16 25C12.6863 25 10 22.3137 10 19C10 15.6863 12.6863 13 16 13ZM16 14.5C13.5147 14.5 11.5 16.5147 11.5 19C11.5 21.4853 13.5147 23.5 16 23.5C18.4853 23.5 20.5 21.4853 20.5 19C20.5 16.5147 18.4853 14.5 16 14.5ZM16 7C16.8284 7 17.5 7.67157 17.5 8.5C17.5 9.32843 16.8284 10 16 10C15.1716 10 14.5 9.32843 14.5 8.5C14.5 7.67157 15.1716 7 16 7Z"
    fill="currentColor"
  />
</svg>
