<svg width="16" height="16" viewBox="0 0 16 16" fill="none" xmlns="http://www.w3.org/2000/svg" data-fui-icon="true">
  <path
    d="M10.5 0.5C12.7091 0.5 14.5 2.29086 14.5 4.5V11.5C14.5 13.7091 12.7091 15.5 10.5 15.5H5.5C3.29086 15.5 1.5 13.7091 1.5 11.5V4.5C1.5 2.29086 3.29086 0.5 5.5 0.5H10.5ZM5.5 2C4.11929 2 3 3.11929 3 4.5V11.5C3 12.8807 4.11929 14 5.5 14H10.5C11.8807 14 13 12.8807 13 11.5V4.5C13 3.11929 11.8807 2 10.5 2H5.5ZM8 6.5C9.65685 6.5 11 7.84315 11 9.5C11 11.1569 9.65685 12.5 8 12.5C6.34315 12.5 5 11.1569 5 9.5C5 7.84315 6.34315 6.5 8 6.5ZM8 8C7.17157 8 6.5 8.67157 6.5 9.5C6.5 10.3284 7.17157 11 8 11C8.82843 11 9.5 10.3284 9.5 9.5C9.5 8.67157 8.82843 8 8 8ZM8 3.5C8.55228 3.5 9 3.94772 9 4.5C9 5.05228 8.55228 5.5 8 5.5C7.44772 5.5 7 5.05228 7 4.5C7 3.94772 7.44772 3.5 8 3.5Z"
    fill="currentColor"
  />
</svg>
