<svg width="12" height="12" viewBox="0 0 12 12" fill="none" xmlns="http://www.w3.org/2000/svg" data-fui-icon="true">
  <path
    d="M7.8125 0C9.57291 0 11 1.42709 11 3.1875V8.8125C11 10.5729 9.57291 12 7.8125 12H4.1875C2.42709 12 1 10.5729 1 8.8125V3.1875C1 1.42709 2.42709 2.41596e-08 4.1875 0H7.8125ZM4.1875 1.5C3.25552 1.5 2.5 2.25552 2.5 3.1875V8.8125C2.5 9.74448 3.25552 10.5 4.1875 10.5H7.8125C8.74448 10.5 9.5 9.74448 9.5 8.8125V3.1875C9.5 2.25552 8.74448 1.5 7.8125 1.5H4.1875ZM6 4.75C7.24264 4.75 8.25 5.75736 8.25 7C8.25 8.24264 7.24264 9.25 6 9.25C4.75736 9.25 3.75 8.24264 3.75 7C3.75 5.75736 4.75736 4.75 6 4.75ZM6 6.25C5.58579 6.25 5.25 6.58579 5.25 7C5.25 7.41421 5.58579 7.75 6 7.75C6.41421 7.75 6.75 7.41421 6.75 7C6.75 6.58579 6.41421 6.25 6 6.25ZM6 2.59961C6.41408 2.59961 6.74979 2.93558 6.75 3.34961C6.75 3.76382 6.41421 4.09961 6 4.09961C5.58579 4.09961 5.25 3.76382 5.25 3.34961C5.25021 2.93558 5.58592 2.59961 6 2.59961Z"
    fill="currentColor"
  />
</svg>
