<svg width="12" height="12" viewBox="0 0 12 12" fill="none" xmlns="http://www.w3.org/2000/svg" data-fui-icon="true">
  <path
    d="M7.5625 0C9.46098 0 11 1.53902 11 3.4375V8.5625C11 10.461 9.46098 12 7.5625 12H4.4375C2.53902 12 1 10.461 1 8.5625V3.4375C1 1.53902 2.53902 0 4.4375 0H7.5625ZM4.4375 2C3.64359 2 3 2.64359 3 3.4375V8.5625C3 9.35641 3.64359 10 4.4375 10H7.5625C8.35641 10 9 9.35641 9 8.5625V3.4375C9 2.64359 8.35641 2 7.5625 2H4.4375ZM5.99414 5.25C7.02967 5.25 7.86914 6.08947 7.86914 7.125C7.86914 8.16053 7.02967 9 5.99414 9C4.95861 9 4.11914 8.16053 4.11914 7.125C4.11914 6.08947 4.95861 5.25 5.99414 5.25ZM5.99414 7C5.92511 7 5.86914 7.05596 5.86914 7.125C5.86914 7.19404 5.92511 7.25 5.99414 7.25C6.06318 7.25 6.11914 7.19404 6.11914 7.125C6.11914 7.05596 6.06318 7 5.99414 7ZM6 2.75C6.55228 2.75 7 3.19772 7 3.75C7 4.30228 6.55228 4.75 6 4.75C5.44772 4.75 5 4.30228 5 3.75C5 3.19772 5.44772 2.75 6 2.75Z"
    fill="currentColor"
  />
</svg>
