<svg width="24" height="24" viewBox="0 0 24 24" fill="none" xmlns="http://www.w3.org/2000/svg" data-fui-icon="true">
  <path
    fill-rule="evenodd"
    clip-rule="evenodd"
    d="M15.375 1C18.4816 1 21 3.5184 21 6.625V17.375C21 20.4816 18.4816 23 15.375 23H8.625C5.5184 23 3 20.4816 3 17.375V6.625C3 3.5184 5.5184 1 8.625 1H15.375ZM8.625 2.5C6.34683 2.5 4.5 4.34683 4.5 6.625V17.375C4.5 19.6532 6.34683 21.5 8.625 21.5H15.375C17.6532 21.5 19.5 19.6532 19.5 17.375V6.625C19.5 4.34683 17.6532 2.5 15.375 2.5H8.625ZM12 9.5C14.7614 9.5 17 11.7386 17 14.5C17 17.2614 14.7614 19.5 12 19.5C9.23858 19.5 7 17.2614 7 14.5C7 11.7386 9.23858 9.5 12 9.5ZM12 11C10.067 11 8.5 12.567 8.5 14.5C8.5 16.433 10.067 18 12 18C13.933 18 15.5 16.433 15.5 14.5C15.5 12.567 13.933 11 12 11ZM12 4.75C12.8284 4.75 13.5 5.42157 13.5 6.25C13.5 7.07843 12.8284 7.75 12 7.75C11.1716 7.75 10.5 7.07843 10.5 6.25C10.5 5.42157 11.1716 4.75 12 4.75Z"
    fill="currentColor"
  />
</svg>
