<svg width="32" height="32" viewBox="0 0 32 32" fill="none" xmlns="http://www.w3.org/2000/svg" data-fui-icon="true">
  <path
    fill-rule="evenodd"
    clip-rule="evenodd"
    d="M25.7959 31.283C26.3663 31.6718 27.1444 31.5243 27.5332 30.9539L31.2822 25.4539C31.5716 25.0292 31.5717 24.4703 31.2822 24.0457L27.5332 18.5457C27.1444 17.9753 26.3663 17.8279 25.7959 18.2166C25.2255 18.6054 25.079 19.3835 25.4678 19.9539L27.8848 23.4998H23.0459C21.671 23.4997 20.406 22.7472 19.75 21.5388L16.7422 15.9978C17.7982 14.0395 18.9065 11.9985 19.75 10.449C20.4045 9.24707 21.6648 8.49977 23.0361 8.49977H27.8838L25.4678 12.0457C25.079 12.6161 25.2255 13.3942 25.7959 13.783C26.3663 14.1717 27.1444 14.0243 27.5332 13.4539L31.2812 7.95387C31.5705 7.52921 31.5706 6.97028 31.2812 6.54567L27.5332 1.04567C27.1444 0.475376 26.3663 0.327984 25.7959 0.716566C25.2256 1.10537 25.0791 1.88345 25.4678 2.45387L27.8838 5.99977H23.0361C20.752 5.99977 18.6483 7.24532 17.5547 9.25368C16.7194 10.7882 15.6244 12.8063 14.5762 14.7498H9.82324C9.28144 12.8728 7.5514 11.4998 5.5 11.4998C3.01478 11.4998 1.00011 13.5146 1 15.9998C1 18.4851 3.01472 20.4998 5.5 20.4998C7.55146 20.4998 9.28149 19.1268 9.82324 17.2498H14.5771L17.5527 22.7312C18.646 24.7452 20.7543 25.9997 23.0459 25.9998H27.8848L25.4678 29.5457C25.079 30.1161 25.2255 30.8941 25.7959 31.283Z"
    fill="currentColor"
  />
</svg>
