<svg width="32" height="32" viewBox="0 0 32 32" fill="none" xmlns="http://www.w3.org/2000/svg" data-fui-icon="true">
  <path
    fill-rule="evenodd"
    clip-rule="evenodd"
    d="M1.12961 26.078C0.896715 26.4202 0.984931 26.8867 1.32687 27.12L6.82687 30.869C7.08168 31.0426 7.41781 31.0427 7.67258 30.869L13.1726 27.12C13.5144 26.8868 13.6026 26.4201 13.3698 26.078C13.1366 25.7358 12.6691 25.6475 12.3269 25.8807L7.99972 28.83V23.0458C7.99977 21.4875 8.85289 20.0539 10.2224 19.3104L16.0007 16.1737C18.0313 17.268 20.1761 18.4325 21.7888 19.3104C23.1522 20.0527 23.9997 21.482 23.9997 23.036V28.83L19.6726 25.8807C19.3303 25.6475 18.8629 25.7357 18.6296 26.078C18.3967 26.4202 18.4849 26.8867 18.8269 27.12L24.3269 30.868C24.5817 31.0416 24.9178 31.0416 25.1726 30.868L30.6726 27.12C31.0144 26.8868 31.1026 26.4201 30.8698 26.078C30.6366 25.7357 30.1691 25.6475 29.8269 25.8807L25.4997 28.83V23.036C25.4997 20.9343 24.3539 18.9988 22.5066 17.993C20.903 17.1201 18.7721 15.9639 16.7497 14.8739V9.9364C18.8778 9.57918 20.4997 7.72949 20.4997 5.49988C20.4997 3.01466 18.4849 0.999983 15.9997 0.999878C13.5144 0.999878 11.4997 3.0146 11.4997 5.49988C11.4997 7.72962 13.1214 9.57934 15.2497 9.9364V14.8749L9.50656 17.9921C7.65371 18.9979 6.49977 20.9375 6.49972 23.0458V28.83L2.17258 25.8807C1.83031 25.6474 1.36291 25.7357 1.12961 26.078ZM12.9997 5.49988C12.9997 3.84302 14.3429 2.49988 15.9997 2.49988C17.6565 2.49998 18.9997 3.84309 18.9997 5.49988C18.9997 7.15667 17.6565 8.49977 15.9997 8.49988C14.3429 8.49988 12.9997 7.15673 12.9997 5.49988Z"
    fill="currentColor"
  />
</svg>
