<svg width="21" height="20" viewBox="0 0 21 20" fill="none" xmlns="http://www.w3.org/2000/svg" data-fui-icon="true">
  <path
    d="M15.9424 0.862305C16.4327 0.416603 17.1918 0.452321 17.6377 0.942383L20.1377 3.69238C20.5538 4.15009 20.5538 4.84991 20.1377 5.30762L17.6377 8.05762C17.1918 8.54768 16.4327 8.5834 15.9424 8.1377C15.4523 7.69184 15.4166 6.93266 15.8623 6.44238L16.5371 5.7002H14.2812C13.7765 5.70031 13.3121 5.97587 13.0703 6.41895L11.1162 10L13.0703 13.5811C13.3121 14.0241 13.7765 14.2997 14.2812 14.2998H16.5371L15.8623 13.5576C15.4166 13.0673 15.4523 12.3082 15.9424 11.8623C16.4327 11.4166 17.1918 11.4523 17.6377 11.9424L20.1377 14.6924C20.5538 15.1501 20.5538 15.8499 20.1377 16.3076L17.6377 19.0576C17.1918 19.5477 16.4327 19.5834 15.9424 19.1377C15.4523 18.6918 15.4166 17.9327 15.8623 17.4424L16.5371 16.7002H14.2812C12.8982 16.7001 11.6253 15.9446 10.9629 14.7305L9.03809 11.2002H6.78906C6.29927 12.5421 5.0114 13.5 3.5 13.5C1.567 13.5 0 11.933 0 10C2.83472e-06 8.06701 1.56701 6.5 3.5 6.5C5.01139 6.5 6.29927 7.45791 6.78906 8.7998H9.03809L10.9629 5.26953C11.6253 4.05539 12.8982 3.29992 14.2812 3.2998H16.5371L15.8623 2.55762C15.4166 2.06734 15.4523 1.30815 15.9424 0.862305Z"
    fill="currentColor"
  />
</svg>
