<svg width="32" height="32" viewBox="0 0 32 32" fill="none" xmlns="http://www.w3.org/2000/svg" data-fui-icon="true">
  <path
    fill-rule="evenodd"
    clip-rule="evenodd"
    d="M0.965971 6.45361C0.577457 5.88328 0.724916 5.10512 1.29507 4.71631L6.79507 0.967285C7.21966 0.677879 7.77861 0.678047 8.20328 0.967285L13.7033 4.71631C14.2737 5.10514 14.4212 5.88317 14.0324 6.45361C13.6435 7.02394 12.8655 7.17054 12.2951 6.78174L8.74917 4.36475V9.20361C8.74922 10.5784 9.50198 11.8435 10.7101 12.4995L16.2511 15.5073C18.2094 14.4513 20.2504 13.3431 21.8 12.4995C23.002 11.845 23.7492 10.5848 23.7492 9.21338V4.36572L20.2033 6.78174C19.6329 7.17031 18.8547 7.0239 18.466 6.45361C18.0775 5.88327 18.225 5.10509 18.7951 4.71631L24.2951 0.968262C24.7196 0.678919 25.2786 0.679087 25.7033 0.968262L31.2033 4.71631C31.7737 5.10511 31.9211 5.88317 31.5324 6.45361C31.1435 7.0239 30.3655 7.17047 29.7951 6.78174L26.2492 4.36572V9.21338C26.2492 11.4976 25.0037 13.6012 22.9953 14.6948C21.4608 15.5302 19.4426 16.6252 17.4992 17.6733V22.4263C19.3762 22.968 20.7492 24.6981 20.7492 26.7495C20.7492 29.2348 18.7345 31.2495 16.2492 31.2495C13.7641 31.2493 11.7492 29.2347 11.7492 26.7495C11.7492 24.6982 13.1222 22.9681 14.9992 22.4263V17.6724L9.51773 14.6968C7.50399 13.6034 6.24922 11.4951 6.24917 9.20361V4.36475L2.70328 6.78174C2.13287 7.17037 1.35477 7.02394 0.965971 6.45361Z"
    fill="currentColor"
  />
</svg>
