<svg width="20" height="20" viewBox="0 0 20 20" fill="none" xmlns="http://www.w3.org/2000/svg" data-fui-icon="true">
  <path
    fill-rule="evenodd"
    clip-rule="evenodd"
    d="M0.999937 15.0004C0.585877 15.5526 0.697892 16.3361 1.24994 16.7504L4.24994 19.0004C4.69432 19.3336 5.30552 19.3336 5.74994 19.0004L8.74994 16.7504C9.30221 16.3362 9.41413 15.5527 8.99994 15.0004C8.58571 14.4482 7.80218 14.3362 7.24994 14.7504L6.24994 15.5004V14.5277C6.25002 13.505 6.81778 12.5669 7.72357 12.0922L10.2451 10.7709C11.0991 11.2266 11.9831 11.6935 12.7499 12.0931C13.6719 12.5736 14.2499 13.5229 14.2499 14.5541L14.2499 15.5004L13.2499 14.7504C12.6977 14.3364 11.9141 14.4482 11.4999 15.0004C11.0859 15.5526 11.1979 16.3362 11.7499 16.7504L14.7499 19.0004C15.1942 19.3334 15.8056 19.3334 16.2499 19.0004L19.2499 16.7504C19.8022 16.3362 19.9141 15.5527 19.4999 15.0004C19.0857 14.4482 18.3022 14.3363 17.7499 14.7504L16.7499 15.5004V14.5541C16.7499 12.5825 15.6461 10.7826 13.9052 9.87537C13.1657 9.48999 12.3195 9.04465 11.4999 8.60779V6.60779C11.4999 6.56392 11.4975 6.52061 11.4931 6.47791C12.5288 6.00508 13.2499 4.96326 13.2499 3.75037C13.2498 2.09362 11.9067 0.750366 10.2499 0.750366C8.59327 0.750497 7.25007 2.0937 7.24994 3.75037C7.24994 4.96319 7.97108 6.00505 9.00677 6.47791C9.00236 6.5206 8.99994 6.56393 8.99994 6.60779V8.60095L6.56341 9.87732C4.83383 10.7835 3.75002 12.5751 3.74994 14.5277V15.5004L2.74994 14.7504C2.19766 14.3364 1.41409 14.4482 0.999937 15.0004Z"
    fill="currentColor"
  />
</svg>
