<svg width="24" height="24" viewBox="0 0 24 24" fill="none" xmlns="http://www.w3.org/2000/svg" data-fui-icon="true">
  <path
    fill-rule="evenodd"
    clip-rule="evenodd"
    d="M1.1324 19.0743C0.897839 19.4157 0.984464 19.8827 1.32576 20.1173L5.32576 22.8673C5.58159 23.0429 5.91961 23.043 6.17537 22.8673L10.1754 20.1173C10.5164 19.8827 10.603 19.4156 10.3687 19.0743C10.1342 18.7331 9.66706 18.6466 9.32576 18.881L6.50056 20.8234V17.8927C6.50065 16.3392 7.34846 14.9096 8.7115 14.1642L12.0015 12.3644C13.1379 12.9777 14.3123 13.6182 15.3101 14.1652C16.6624 14.9066 17.5006 16.3284 17.5006 17.8741V20.8234L14.6754 18.881C14.3341 18.6464 13.867 18.7331 13.6324 19.0743C13.3978 19.4157 13.4844 19.8827 13.8258 20.1173L17.8258 22.8663C18.0816 23.042 18.4196 23.0422 18.6754 22.8663L22.6754 20.1173C23.0164 19.8827 23.103 19.4156 22.8687 19.0743C22.6342 18.7331 22.1671 18.6466 21.8258 18.881L19.0006 20.8234V17.8741C19.0006 15.7841 17.8666 13.8561 16.0308 12.8497C15.0423 12.3079 13.8794 11.674 12.7506 11.0646V7.91809C14.3228 7.57454 15.5004 6.17535 15.5006 4.50012C15.5006 2.56726 13.9334 1.00033 12.0006 1.00012C10.0676 1.00012 8.50056 2.56713 8.50056 4.50012C8.50068 6.17569 9.67789 7.57587 11.2506 7.91907V11.0665L7.99275 12.8478C6.14823 13.8561 5.00065 15.7906 5.00056 17.8927V20.8234L2.17537 18.881C1.8341 18.6465 1.36706 18.7332 1.1324 19.0743ZM10.0006 4.50012C10.0006 3.39555 10.896 2.50012 12.0006 2.50012C13.105 2.50033 14.0006 3.39568 14.0006 4.50012C14.0004 5.60445 13.1049 6.49991 12.0006 6.50012C10.8961 6.50012 10.0007 5.60458 10.0006 4.50012Z"
    fill="currentColor"
  />
</svg>
