<svg width="24" height="24" viewBox="0 0 24 24" fill="none" xmlns="http://www.w3.org/2000/svg" data-fui-icon="true">
  <path
    fill-rule="evenodd"
    clip-rule="evenodd"
    d="M18.6582 22.8067C19.1034 23.1331 19.73 23.0369 20.0566 22.5919L22.8066 18.8419C23.0646 18.4901 23.0643 18.0112 22.8066 17.6593L20.0566 13.9083C19.73 13.4631 19.1035 13.3669 18.6582 13.6935C18.2131 14.0201 18.1168 14.6466 18.4434 15.0919L20.0264 17.2501H17.8936C16.4313 17.25 15.0853 16.452 14.3838 15.1691L12.6504 11.9972C13.2434 10.8993 13.8573 9.77293 14.3848 8.81065C15.082 7.53872 16.4199 6.75011 17.875 6.75011H20.0264L18.4434 8.90831C18.117 9.35361 18.213 9.98016 18.6582 10.3067C19.1034 10.6331 19.73 10.5369 20.0566 10.0919L22.8066 6.3419C23.0646 5.99013 23.0643 5.51122 22.8066 5.15929L20.0566 1.40831C19.73 0.963095 19.1035 0.866917 18.6582 1.19347C18.2131 1.52013 18.1168 2.14664 18.4434 2.5919L20.0264 4.75011H17.875C15.6941 4.75011 13.6814 5.93318 12.6309 7.84972C12.1099 8.80019 11.5047 9.91234 10.917 11.0001H7.85449C7.42426 9.55429 6.08556 8.50011 4.5 8.50011C2.567 8.50011 1 10.0671 1 12.0001C1.00018 13.933 2.56711 15.5001 4.5 15.5001C6.08534 15.5001 7.42407 14.4456 7.85449 13.0001H10.9189L12.6289 16.128C13.6812 18.0526 15.7001 19.25 17.8936 19.2501H20.0264L18.4434 21.4083C18.117 21.8536 18.213 22.4802 18.6582 22.8067ZM4.5 13.5001C3.67168 13.5001 3.00018 12.8284 3 12.0001C3 11.1717 3.67157 10.5001 4.5 10.5001C5.32843 10.5001 6 11.1717 6 12.0001C5.99983 12.8284 5.32832 13.5001 4.5 13.5001Z"
    fill="currentColor"
  />
</svg>
