<svg width="24" height="24" viewBox="0 0 24 24" fill="none" xmlns="http://www.w3.org/2000/svg" data-fui-icon="true">
  <path
    fill-rule="evenodd"
    clip-rule="evenodd"
    d="M0.970219 18.5413C0.579284 19.1101 0.723659 19.8885 1.29248 20.2795L5.29248 23.0295C5.7189 23.3224 6.28215 23.3225 6.7085 23.0295L10.7085 20.2795C11.277 19.8885 11.4214 19.11 11.0308 18.5413C10.6398 17.9725 9.86133 17.8283 9.29248 18.219L7.25049 19.6233V17.6428C7.25058 16.2719 7.99879 15.0104 9.20166 14.3528L12.2534 12.6848C13.3127 13.2574 14.3926 13.8455 15.3198 14.3538C16.5109 15.0069 17.2505 16.26 17.2505 17.6243V19.6233L15.2085 18.219C14.6396 17.8281 13.8613 17.9725 13.4702 18.5413C13.0793 19.1102 13.2236 19.8885 13.7925 20.2795L17.7925 23.0286C18.219 23.3215 18.7821 23.3217 19.2085 23.0286L23.2085 20.2795C23.7771 19.8885 23.9215 19.1101 23.5308 18.5413C23.1398 17.9725 22.3614 17.8282 21.7925 18.219L19.7505 19.6233V17.6243C19.7505 15.3527 18.5179 13.2561 16.521 12.1614C15.6084 11.6611 14.5468 11.0826 13.5005 10.5168V7.5188C14.8158 7.01533 15.7504 5.74242 15.7505 4.25024C15.7505 2.31738 14.1833 0.750455 12.2505 0.750244C10.3175 0.750244 8.75049 2.31725 8.75049 4.25024C8.75059 5.74266 9.68499 7.01647 11.0005 7.51978V10.5198L8.00245 12.1594C5.99764 13.2555 4.75058 15.358 4.75049 17.6428V19.6233L2.7085 18.219C2.13968 17.8281 1.36131 17.9726 0.970219 18.5413Z"
    fill="currentColor"
  />
</svg>
