<svg width="12" height="12" viewBox="0 0 12 12" fill="none" xmlns="http://www.w3.org/2000/svg" data-fui-icon="true">
  <path
    fill-rule="evenodd"
    clip-rule="evenodd"
    d="M0.240621 3.15039C-0.118329 2.73105 -0.0691813 2.0995 0.349996 1.74023L2.1 0.240234C2.47449 -0.0802937 3.02745 -0.0796366 3.40175 0.241211L5.15078 1.74121C5.57003 2.1006 5.61845 2.73108 5.25918 3.15039C4.89975 3.56969 4.26931 3.6182 3.85 3.25879L3.75039 3.17383V3.62598C3.75039 4.03975 4.0058 4.41103 4.39199 4.55957L6.00136 5.17871L7.60976 4.55957C7.99564 4.41089 8.25039 4.03954 8.25039 3.62598V3.17383L8.15078 3.25879C7.73145 3.61821 7.10102 3.56972 6.7416 3.15039C6.38221 2.73106 6.43068 2.10062 6.85 1.74121L8.6 0.241211C8.97448 -0.0796509 9.52634 -0.0797281 9.90078 0.241211L11.6508 1.74121C12.0701 2.10059 12.1185 2.73106 11.7592 3.15039C11.3998 3.56972 10.7693 3.61821 10.35 3.25879L10.2504 3.17383V3.62598C10.2504 4.8672 9.48598 5.98109 8.32754 6.42676L7.00039 6.9375V7.73633C7.74065 8.10466 8.25029 8.86706 8.25039 9.75C8.25039 10.9926 7.24297 11.9999 6.00039 12C4.75775 12 3.75039 10.9926 3.75039 9.75C3.75048 8.86698 4.26002 8.10462 5.00039 7.73633V6.93652L3.67324 6.42676C2.51478 5.9811 1.75039 4.86722 1.75039 3.62598V3.1748L1.65078 3.25977C1.23144 3.61875 0.599898 3.56958 0.240621 3.15039ZM5.75039 9.75C5.75039 9.88807 5.86232 10 6.00039 10C6.1384 9.99993 6.25039 9.88803 6.25039 9.75C6.25026 9.61208 6.13832 9.50007 6.00039 9.5C5.8624 9.5 5.75052 9.61204 5.75039 9.75Z"
    fill="currentColor"
  />
</svg>
