<svg width="13" height="13" viewBox="0 0 13 13" fill="none" xmlns="http://www.w3.org/2000/svg" data-fui-icon="true">
  <path
    d="M9.51696 0.207707C9.97636 -0.136502 10.6278 -0.0431944 10.9724 0.415923L12.5325 2.49604C12.8096 2.86567 12.8095 3.3736 12.5325 3.74331L10.9724 5.82343C10.6278 6.2829 9.97648 6.37614 9.51696 6.03164C9.0577 5.68699 8.96431 5.03561 9.30875 4.57617L9.62158 4.15974H8.77856C8.5881 4.15979 8.41468 4.27128 8.33471 4.44413L7.38504 6.49987L8.33471 8.55562C8.41459 8.7287 8.58794 8.83996 8.77856 8.84001H9.62158L9.30875 8.42358C8.96453 7.96408 9.0576 7.31263 9.51696 6.9681C9.97636 6.62389 10.6278 6.7172 10.9724 7.17632L12.5325 9.25644C12.8096 9.62607 12.8095 10.134 12.5325 10.5037L10.9724 12.5838C10.6278 13.0433 9.97648 13.1365 9.51696 12.792C9.0577 12.4474 8.96431 11.796 9.30875 11.3366L9.62158 10.9201H8.77856C7.77675 10.9201 6.86653 10.3376 6.44655 9.42809L5.57509 7.53993H4.98193C4.58053 8.45786 3.66609 9.10003 2.60015 9.10003C1.16413 9.10003 0 7.9359 0 6.49987C0.000270668 5.06408 1.16429 3.89972 2.60015 3.89972C3.66596 3.89972 4.58045 4.54193 4.98193 5.45981H5.57509L6.44655 3.57165C6.86661 2.66239 7.7769 2.07966 8.77856 2.07961H9.62158L9.30875 1.66318C8.96453 1.20368 9.0576 0.552233 9.51696 0.207707Z"
    fill="currentColor"
  />
</svg>
