<svg width="24" height="24" viewBox="0 0 24 24" fill="none" xmlns="http://www.w3.org/2000/svg" data-fui-icon="true">
  <path
    d="M18.3633 23.2102C19.0312 23.6995 19.9702 23.5546 20.46 22.887L23.21 19.137C23.5967 18.6092 23.5966 17.8913 23.21 17.3635L20.46 13.6135C19.9702 12.9456 19.0313 12.8007 18.3633 13.2903C17.6955 13.7801 17.5505 14.719 18.04 15.387L19.04 16.7502H17.8936C16.6141 16.7502 15.4361 16.0515 14.8223 14.929L13.2188 11.9973C13.7707 10.977 14.3341 9.94345 14.8232 9.05103C15.4322 7.94028 16.6013 7.25025 17.875 7.25024H19.04L18.04 8.61353C17.5507 9.28153 17.6954 10.2204 18.3633 10.7102C19.0312 11.1995 19.9702 11.0546 20.46 10.387L23.21 6.63696C23.5967 6.10921 23.5966 5.39131 23.21 4.86353L20.46 1.11353C19.9702 0.445591 19.0313 0.300711 18.3633 0.790283C17.6955 1.28012 17.5505 2.21898 18.04 2.88696L19.04 4.25024H17.875C15.5126 4.25025 13.3322 5.53197 12.1934 7.60962C11.7139 8.48436 11.1625 9.49619 10.6191 10.5002H7.66309C7.10135 9.31779 5.89618 8.50024 4.5 8.50024C2.567 8.50024 1 10.0672 1 12.0002C1.00018 13.9331 2.56711 15.5002 4.5 15.5002C5.89595 15.5002 7.10025 14.6825 7.66211 13.5002H10.623L12.1904 16.3684C13.3304 18.4533 15.5174 19.7502 17.8936 19.7502H19.04L18.04 21.1135C17.5507 21.7815 17.6954 22.7204 18.3633 23.2102Z"
    fill="currentColor"
  />
</svg>
