<svg width="32" height="32" viewBox="0 0 32 32" fill="none" xmlns="http://www.w3.org/2000/svg" data-fui-icon="true">
  <path
    fill-rule="evenodd"
    clip-rule="evenodd"
    d="M7.43555 31.1721C6.78864 31.689 5.84445 31.5834 5.32715 30.9368L1.32812 25.9368C0.898647 25.3995 0.889959 24.6384 1.30664 24.0911L5.30566 18.8411C5.8076 18.1824 6.7483 18.0553 7.40723 18.5569C8.0662 19.0589 8.19435 20.0004 7.69238 20.6594L5.52832 23.5003H9.66309C10.961 23.5003 12.1529 22.7818 12.7588 21.634L15.7305 16.0032C14.682 14.0467 13.586 11.9743 12.7549 10.3889C12.1459 9.22764 10.9458 8.50025 9.63965 8.50025H5.52832L7.69238 11.3411C8.1942 12.0001 8.06624 12.9417 7.40723 13.4436C6.74834 13.945 5.80755 13.8179 5.30566 13.1594L1.30664 7.90943C0.889851 7.36216 0.899675 6.60109 1.3291 6.06373L5.32715 1.06373C5.84448 0.416801 6.78855 0.311184 7.43555 0.828379C8.0825 1.34577 8.18729 2.2898 7.66992 2.93678L5.62012 5.50025H9.63965C12.0667 5.50025 14.2876 6.85137 15.4121 8.99635C16.2293 10.5552 17.3001 12.581 18.3281 14.5003H23.0059L23.0068 14.5012C23.6245 12.7533 25.2896 11.5003 27.249 11.5003C29.7343 11.5003 31.749 13.515 31.749 16.0003C31.7489 18.4854 29.7342 20.5003 27.249 20.5003C25.29 20.5003 23.6248 19.2477 23.0068 17.5003H18.333L15.4121 23.0344C14.2869 25.1662 12.0736 26.5003 9.66309 26.5003H5.62012L7.66992 29.0637C8.18717 29.7107 8.08243 30.6547 7.43555 31.1721Z"
    fill="currentColor"
  />
</svg>
