<svg width="12" height="12" viewBox="0 0 12 12" fill="none" xmlns="http://www.w3.org/2000/svg" data-fui-icon="true">
  <path
    fill-rule="evenodd"
    clip-rule="evenodd"
    d="M0.150589 2.69983C-0.097831 2.3686 -0.0309973 1.89864 0.300003 1.65002L2.3 0.150024C2.56664 -0.049737 2.93383 -0.0498962 3.20039 0.150024L5.20039 1.65002C5.5313 1.89855 5.59891 2.36861 5.35078 2.69983C5.1023 3.03115 4.63137 3.09763 4.3 2.84924L3.5002 2.24963V2.70764C3.5002 3.53537 3.95501 4.29665 4.68379 4.68909L6.00118 5.39905C6.44859 5.15815 6.90421 4.91169 7.31758 4.68909C8.04596 4.29665 8.5002 3.53518 8.5002 2.70764V2.25061L7.70039 2.85022C7.36912 3.09862 6.89915 3.03095 6.65059 2.69983C6.40212 2.36853 6.46882 1.8986 6.8 1.65002L8.8 0.150024C9.06664 -0.049737 9.43383 -0.0498962 9.70039 0.150024L11.7004 1.65002C12.0313 1.89856 12.098 2.3686 11.8498 2.69983C11.6013 3.03096 11.1313 3.0985 10.8 2.85022L10.0002 2.25061V2.70764C10.0002 4.08686 9.24289 5.35528 8.02852 6.0094C7.62699 6.22563 7.18524 6.46364 6.7502 6.69788V7.63049C7.62342 7.93967 8.25009 8.77051 8.2502 9.74963C8.2502 10.9921 7.24266 11.9994 6.0002 11.9996C4.75756 11.9996 3.7502 10.9923 3.7502 9.74963C3.7503 8.77025 4.37662 7.93948 5.2502 7.63049V6.6969L3.97286 6.0094C2.75822 5.35534 2.0002 4.08718 2.0002 2.70764V2.24963L1.20039 2.84924C0.869142 3.09768 0.399188 3.03089 0.150589 2.69983ZM5.2502 9.74963C5.2502 10.1638 5.58599 10.4996 6.0002 10.4996C6.41424 10.4994 6.7502 10.1637 6.7502 9.74963C6.75007 9.33566 6.41415 8.99984 6.0002 8.99963C5.58607 8.99963 5.25033 9.33553 5.2502 9.74963Z"
    fill="currentColor"
  />
</svg>
