<svg width="20" height="20" viewBox="0 0 20 20" fill="none" xmlns="http://www.w3.org/2000/svg" data-fui-icon="true">
  <path
    fill-rule="evenodd"
    clip-rule="evenodd"
    d="M1.22545 15.1174C0.876187 15.5448 0.939836 16.175 1.36706 16.5247L4.11706 18.7747C4.48524 19.0755 5.01449 19.0755 5.38268 18.7747L8.13268 16.5247C8.55997 16.1751 8.62357 15.5449 8.27428 15.1174C7.92467 14.6902 7.29447 14.6266 6.86706 14.9758L5.74987 15.8899V14.7776C5.74995 13.6618 6.36983 12.6382 7.35827 12.1204L9.99596 10.7385C10.8845 11.2134 11.8137 11.7037 12.6151 12.1213C13.619 12.6445 14.2498 13.6787 14.2499 14.804L14.2499 15.8899L13.1327 14.9758C12.7052 14.6266 12.075 14.6902 11.7255 15.1174C11.3762 15.5448 11.4398 16.175 11.8671 16.5247L14.6171 18.7747C14.9852 19.0755 15.5145 19.0755 15.8827 18.7747L18.6327 16.5247C19.06 16.1751 19.1236 15.5449 18.7743 15.1174C18.4247 14.6902 17.7945 14.6266 17.3671 14.9758L16.2499 15.8899V14.804C16.2498 12.9264 15.1989 11.2115 13.5399 10.3469C12.76 9.94051 11.8613 9.4671 10.9999 9.00708V6.85767C10.9999 6.8472 10.9982 6.83681 10.9979 6.82642C12.1635 6.41481 12.9999 5.30676 12.9999 4.00024C12.9999 2.34339 11.6567 1.00024 9.99987 1.00024C8.34304 1.00027 6.99987 2.34341 6.99987 4.00024C6.99987 5.3064 7.83574 6.41453 9.00084 6.82642C9.00053 6.8368 8.99987 6.84721 8.99987 6.85767V9.0022L6.42956 10.3489C4.78225 11.2119 3.74995 12.9179 3.74987 14.7776V15.8899L2.63268 14.9758C2.20525 14.6266 1.57503 14.6902 1.22545 15.1174ZM8.99987 4.00024C8.99987 3.44798 9.44761 3.00027 9.99987 3.00024C10.5522 3.00024 10.9999 3.44796 10.9999 4.00024C10.9999 4.55253 10.5522 5.00024 9.99987 5.00024C9.44761 5.00022 8.99987 4.55251 8.99987 4.00024Z"
    fill="currentColor"
  />
</svg>
