<svg width="12" height="12" viewBox="0 0 12 12" fill="none" xmlns="http://www.w3.org/2000/svg" data-fui-icon="true">
  <path
    fill-rule="evenodd"
    clip-rule="evenodd"
    d="M3.2998 11.7096C2.76942 12.1514 1.98193 12.0798 1.54004 11.5495L0.290039 10.0495C-0.0959749 9.58587 -0.0962162 8.91229 0.290039 8.44886L1.54004 6.94886C1.98204 6.41908 2.77063 6.34807 3.30078 6.78968C3.57124 7.01526 3.72173 7.33136 3.74609 7.65687C3.95066 7.50603 4.12423 7.3105 4.24902 7.07875L4.83105 5.99867C4.63206 5.62909 4.43236 5.26002 4.24902 4.91957C4.12421 4.68792 3.95065 4.49219 3.74609 4.34144C3.72204 4.6674 3.57156 4.98373 3.30078 5.20961C2.77042 5.65154 1.98197 5.57981 1.54004 5.04945L0.290039 3.54945C-0.0959578 3.08589 -0.0961838 2.41229 0.290039 1.94886L1.54004 0.449841C1.98196 -0.0802736 2.7705 -0.152001 3.30078 0.289684C3.69918 0.621965 3.83838 1.15003 3.69531 1.61683C4.85818 1.89455 5.86861 2.65427 6.4502 3.73402C6.62295 4.05483 6.80961 4.4015 6.99707 4.74965H7.87988C8.28359 4.14695 8.97023 3.74973 9.75 3.74965C10.9926 3.74965 11.9999 4.75712 12 5.99965C12 7.24229 10.9926 8.24965 9.75 8.24965C8.97018 8.24956 8.28358 7.85234 7.87988 7.24965H6.99707L6.4502 8.26429C5.86858 9.34441 4.85769 10.1028 3.69434 10.3805C3.83865 10.8481 3.69918 11.3768 3.2998 11.7096Z"
    fill="currentColor"
  />
</svg>
