<svg width="32" height="32" viewBox="0 0 32 32" fill="none" xmlns="http://www.w3.org/2000/svg" data-fui-icon="true">
  <path
    fill-rule="evenodd"
    clip-rule="evenodd"
    d="M5.92139 30.8697C5.57924 31.1026 5.11265 31.0143 4.87939 30.6724L1.13037 25.1724C0.956812 24.9176 0.956718 24.5815 1.13037 24.3267L4.87939 18.8267C5.11262 18.4849 5.57927 18.3967 5.92139 18.6294C6.26363 18.8627 6.35191 19.3301 6.11865 19.6724L3.16943 23.9995H8.95361C10.5119 23.9995 11.9455 23.1464 12.689 21.7769L15.8257 15.9986C14.7314 13.9679 13.5669 11.8232 12.689 10.2105C11.9467 8.84709 10.5174 7.99954 8.96338 7.99954H3.16943L6.11865 12.3267C6.35192 12.669 6.26367 13.1364 5.92139 13.3697C5.57923 13.6026 5.11264 13.5143 4.87939 13.1724L1.13135 7.6724C0.957832 7.41761 0.957741 7.08143 1.13135 6.82669L4.87939 1.32669C5.11262 0.984859 5.57926 0.896692 5.92139 1.12943C6.26365 1.36269 6.35188 1.83012 6.11865 2.1724L3.16943 6.49954H8.96338C11.0651 6.49954 13.0006 7.64541 14.0063 9.49271C14.8793 11.0963 16.0355 13.2272 17.1255 15.2495H22.063C22.4202 13.1215 24.2699 11.4995 26.4995 11.4995C28.9847 11.4995 30.9994 13.5144 30.9995 15.9995C30.9995 18.4848 28.9848 20.4995 26.4995 20.4995C24.2698 20.4995 22.4201 18.8778 22.063 16.7495H17.1245L14.0073 22.4927C13.0015 24.3456 11.0619 25.4995 8.95361 25.4995H3.16943L6.11865 29.8267C6.35195 30.169 6.26365 30.6364 5.92139 30.8697ZM26.4995 18.9995C28.1564 18.9995 29.4995 17.6564 29.4995 15.9995C29.4994 14.3428 28.1563 12.9995 26.4995 12.9995C24.8427 12.9995 23.4996 14.3428 23.4995 15.9995C23.4995 17.6564 24.8427 18.9995 26.4995 18.9995Z"
    fill="currentColor"
  />
</svg>
