<svg width="32" height="32" viewBox="0 0 32 32" fill="none" xmlns="http://www.w3.org/2000/svg" data-fui-icon="true">
  <path
    fill-rule="evenodd"
    clip-rule="evenodd"
    d="M5.92114 30.8697C5.57899 31.1026 5.11241 31.0143 4.87915 30.6724L1.13013 25.1724C0.956568 24.9176 0.956474 24.5815 1.13013 24.3267L4.87915 18.8267C5.11238 18.4849 5.57902 18.3967 5.92114 18.6294C6.26339 18.8627 6.35166 19.3301 6.11841 19.6724L3.16919 23.9995H8.95337C10.5116 23.9995 11.9453 23.1464 12.6887 21.7769L15.8254 15.9986C14.7311 13.9679 13.5666 11.8232 12.6887 10.2105C11.9464 8.84709 10.5171 7.99954 8.96313 7.99954H3.16919L6.11841 12.3267C6.35168 12.669 6.26342 13.1364 5.92114 13.3697C5.57898 13.6026 5.1124 13.5143 4.87915 13.1724L1.1311 7.6724C0.957588 7.41761 0.957497 7.08143 1.1311 6.82669L4.87915 1.32669C5.11237 0.984859 5.57902 0.896692 5.92114 1.12943C6.26341 1.36269 6.35163 1.83012 6.11841 2.1724L3.16919 6.49954H8.96313C11.0649 6.49954 13.0004 7.64541 14.0061 9.49271C14.879 11.0963 16.0353 13.2272 17.1252 15.2495H22.0627C22.42 13.1215 24.2697 11.4995 26.4993 11.4995C28.9845 11.4995 30.9992 13.5144 30.9993 15.9995C30.9993 18.4848 28.9845 20.4995 26.4993 20.4995C24.2695 20.4995 22.4198 18.8778 22.0627 16.7495H17.1243L14.0071 22.4927C13.0012 24.3456 11.0616 25.4995 8.95337 25.4995H3.16919L6.11841 29.8267C6.35171 30.169 6.26341 30.6364 5.92114 30.8697ZM26.4993 18.9995C28.1561 18.9995 29.4993 17.6564 29.4993 15.9995C29.4992 14.3428 28.1561 12.9995 26.4993 12.9995C24.8425 12.9995 23.4994 14.3428 23.4993 15.9995C23.4993 17.6564 24.8424 18.9995 26.4993 18.9995Z"
    fill="currentColor"
  />
</svg>
