<svg width="16" height="16" viewBox="0 0 16 16" fill="none" xmlns="http://www.w3.org/2000/svg" data-fui-icon="true">
  <path
    fill-rule="evenodd"
    clip-rule="evenodd"
    d="M4.71948 15.2733C4.15423 15.6695 3.37456 15.5328 2.97827 14.9676L1.22534 12.4676C0.923528 12.0369 0.923481 11.4627 1.22534 11.0321L2.97827 8.53207C3.37457 7.96704 4.15428 7.83029 4.71948 8.22641C5.28456 8.62271 5.42131 9.4024 5.02515 9.96762L4.6521 10.4998H4.94995C5.58519 10.4998 6.17051 10.1556 6.47925 9.60043L7.37183 7.99301C7.06271 7.42642 6.7522 6.8641 6.47925 6.37582C6.17765 5.83636 5.60292 5.49984 4.97339 5.49984H4.6521L5.02515 6.03207C5.42127 6.5973 5.28453 7.377 4.71948 7.77328C4.15426 8.16941 3.37456 8.03267 2.97827 7.46762L1.22632 4.96762C0.924562 4.53698 0.924525 3.96269 1.22632 3.53207L2.97827 1.03207C3.37454 0.467072 4.15427 0.330352 4.71948 0.726407C5.28452 1.12268 5.42125 1.9024 5.02515 2.46762L4.6521 2.99984H4.97339C6.49698 2.99984 7.91184 3.81619 8.66089 5.15609C8.92899 5.63571 9.23442 6.1888 9.54077 6.74984H10.8396C11.272 6.00318 12.0778 5.49984 13.0027 5.49984C14.3834 5.49984 15.5026 6.61917 15.5027 7.99984C15.5027 9.38056 14.3834 10.4998 13.0027 10.4998C12.0778 10.4998 11.272 9.99651 10.8396 9.24984H9.53394L8.66479 10.8143C7.91514 12.1632 6.49315 12.9998 4.94995 12.9998H4.6521L5.02515 13.5321C5.4213 14.0973 5.28451 14.877 4.71948 15.2733Z"
    fill="currentColor"
  />
</svg>
