<svg width="20" height="20" viewBox="0 0 20 20" fill="none" xmlns="http://www.w3.org/2000/svg" data-fui-icon="true">
  <path
    fill-rule="evenodd"
    clip-rule="evenodd"
    d="M14.7998 19.1613C15.4409 19.6858 16.3865 19.5913 16.9111 18.9503L19.1611 16.2003C19.6132 15.6478 19.6132 14.8525 19.1611 14.2999L16.9111 11.5499C16.3865 10.9089 15.4409 10.8144 14.7998 11.339C14.1588 11.8636 14.0643 12.8092 14.5889 13.4503L14.834 13.7501H14.7773C13.8475 13.7501 12.994 13.234 12.5625 12.4103L11.3027 10.005C11.7388 9.18659 12.1829 8.34754 12.5645 7.61537C13.0023 6.77542 13.8666 6.25016 14.8037 6.25014H14.834L14.5889 6.54994C14.0644 7.19107 14.1588 8.13668 14.7998 8.66127C15.4409 9.18581 16.3865 9.09134 16.9111 8.45033L19.1611 5.70033C19.6132 5.14779 19.6132 4.35249 19.1611 3.79994L16.9111 1.04994C16.3865 0.408873 15.4409 0.314444 14.7998 0.839006C14.1588 1.36363 14.0643 2.30923 14.5889 2.95033L14.834 3.25014H14.8037C12.7381 3.25016 10.8532 4.40685 9.90332 6.22963C9.53886 6.929 9.12047 7.72325 8.70703 8.50014H6.85742C6.77247 8.50014 6.68949 8.50902 6.6084 8.5226C6.09276 7.61426 5.11912 7.00014 4 7.00014C2.34315 7.00014 1 8.34328 1 10.0001C1.00003 11.657 2.34316 13.0001 4 13.0001C5.1188 13.0001 6.09264 12.3866 6.6084 11.4787C6.68944 11.4922 6.77254 11.5001 6.85742 11.5001H8.69922L9.90527 13.8019C10.8546 15.6141 12.7316 16.7501 14.7773 16.7501H14.834L14.5889 17.0499C14.0644 17.6911 14.1588 18.6367 14.7998 19.1613Z"
    fill="currentColor"
  />
</svg>
