<svg width="24" height="24" viewBox="0 0 24 24" fill="none" xmlns="http://www.w3.org/2000/svg" data-fui-icon="true">
  <path
    fill-rule="evenodd"
    clip-rule="evenodd"
    d="M6.13672 23.2102C5.46875 23.6996 4.52984 23.5547 4.04004 22.8869L1.29004 19.1369C0.903303 18.6091 0.903311 17.8913 1.29004 17.3635L4.04004 13.6135C4.52984 12.9456 5.46869 12.8007 6.13672 13.2902C6.8046 13.7801 6.94952 14.7189 6.45996 15.3869L5.45996 16.7502H6.60645C7.8859 16.7501 9.06394 16.0515 9.67773 14.9289L11.2812 11.9973C10.7293 10.9769 10.1659 9.94343 9.67676 9.05099C9.06784 7.94024 7.89867 7.25021 6.625 7.25021H5.45996L6.45996 8.61349C6.94942 9.2815 6.80459 10.2204 6.13672 10.7102C5.46875 11.1996 4.52984 11.0547 4.04004 10.3869L1.29004 6.63692C0.903305 6.10914 0.903311 5.39128 1.29004 4.86349L4.04004 1.11349C4.52984 0.445553 5.46869 0.300673 6.13672 0.790245C6.8046 1.28006 6.94952 2.21891 6.45996 2.88692L5.45996 4.25021H6.625C8.98736 4.25021 11.1678 5.53193 12.3066 7.60958C12.7861 8.48435 13.3375 9.49611 13.8809 10.5002H16.8369C17.3987 9.31775 18.6038 8.50021 20 8.50021C21.933 8.50021 23.5 10.0672 23.5 12.0002C23.4999 13.9331 21.9329 15.5002 20 15.5002C18.6039 15.5002 17.3987 14.6826 16.8369 13.5002H13.877L12.3096 16.3684C11.1696 18.4533 8.98268 19.7501 6.60645 19.7502H5.45996L6.45996 21.1135C6.94942 21.7815 6.80459 22.7204 6.13672 23.2102Z"
    fill="currentColor"
  />
</svg>
