<svg width="16" height="16" viewBox="0 0 16 16" fill="none" xmlns="http://www.w3.org/2000/svg" data-fui-icon="true">
  <path
    fill-rule="evenodd"
    clip-rule="evenodd"
    d="M0.81649 4.92047C0.307938 4.26662 0.425443 3.32462 1.07919 2.81598L3.32919 1.06598C3.87083 0.644939 4.62943 0.644769 5.17098 1.06598L7.42098 2.81598C8.07439 3.3246 8.19192 4.26672 7.68368 4.92047C7.26663 5.45649 6.55822 5.63147 5.95614 5.39703C6.0962 5.63728 6.30085 5.83984 6.55672 5.97321L8.24325 6.85211C8.82143 6.54567 9.40653 6.23758 9.92098 5.97125C10.1783 5.83794 10.387 5.63931 10.5304 5.40289C9.93128 5.62949 9.23045 5.45234 8.81649 4.92047C8.30794 4.26662 8.42544 3.32462 9.07919 2.81598L11.3292 1.06598C11.8708 0.644939 12.6294 0.644769 13.171 1.06598L15.421 2.81598C16.0744 3.3246 16.1919 4.26672 15.6837 4.92047C15.2062 5.5341 14.3466 5.6756 13.7022 5.27008C13.4933 6.70376 12.6021 7.96198 11.2999 8.63629C10.8208 8.88433 10.2829 9.16598 9.75008 9.44781V10.6304C9.75008 10.6706 9.74634 10.7102 9.74325 10.7496C10.3526 11.2055 10.7491 11.93 10.7491 12.7496C10.7491 14.1303 9.62982 15.2496 8.24911 15.2496C6.86859 15.2494 5.74911 14.1301 5.74911 12.7496C5.74911 11.9301 6.14564 11.2055 6.75497 10.7496C6.75188 10.7103 6.75008 10.6705 6.75008 10.6304V9.4566L5.17098 8.63336C3.87198 7.95655 2.99633 6.69816 2.79501 5.27301C2.15102 5.67609 1.29319 5.53294 0.81649 4.92047Z"
    fill="currentColor"
  />
</svg>
