<svg width="20" height="20" viewBox="0 0 20 20" fill="none" xmlns="http://www.w3.org/2000/svg" data-fui-icon="true">
  <path
    fill-rule="evenodd"
    clip-rule="evenodd"
    d="M1.14949 15.5497C0.901215 15.8808 0.968108 16.3509 1.2989 16.5995L4.2989 18.8495C4.56551 19.0494 4.93264 19.0493 5.19929 18.8495L8.19929 16.5995C8.53039 16.3509 8.59715 15.881 8.34871 15.5497C8.10009 15.2188 7.63011 15.1519 7.2989 15.4003L5.4991 16.7499V14.7772C5.49918 13.5685 6.17059 12.4593 7.24129 11.8983L9.99617 10.455C10.9185 10.9487 11.8943 11.4635 12.7305 11.8993C13.8161 12.4652 14.4991 13.5844 14.4991 14.8036L14.4991 16.7499L12.6993 15.4003C12.368 15.1521 11.898 15.2187 11.6495 15.5497C11.4012 15.8809 11.4681 16.3509 11.7989 16.5995L14.7989 18.8495C15.0655 19.0494 15.4327 19.0493 15.6993 18.8495L18.6993 16.5995C19.0304 16.3509 19.0971 15.881 18.8487 15.5497C18.6001 15.2188 18.1301 15.1519 17.7989 15.4003L15.9991 16.7499L15.9991 14.8036C15.9991 13.0202 15.0009 11.3901 13.4239 10.5682C12.6038 10.1409 11.6512 9.63972 10.7491 9.1571V6.90222C12.0428 6.56902 12.9991 5.39758 12.9991 3.99988C12.999 2.34314 11.6559 0.999878 9.9991 0.999878C8.34249 1.00007 6.99923 2.34326 6.9991 3.99988C6.9991 5.39726 7.95588 6.56773 9.2491 6.90125V9.1532L6.545 10.5702C4.98014 11.3901 3.99918 13.0106 3.9991 14.7772V16.7499L2.19929 15.4003C1.86802 15.152 1.39801 15.2186 1.14949 15.5497ZM8.4991 3.99988C8.49923 3.17168 9.17092 2.50007 9.9991 2.49988C10.8274 2.49988 11.499 3.17156 11.4991 3.99988C11.4991 4.82831 10.8275 5.49988 9.9991 5.49988C9.17084 5.49968 8.4991 4.82819 8.4991 3.99988Z"
    fill="currentColor"
  />
</svg>
