<svg width="12" height="12" viewBox="0 0 12 12" fill="none" xmlns="http://www.w3.org/2000/svg" data-fui-icon="true">
  <path
    fill-rule="evenodd"
    clip-rule="evenodd"
    d="M0.240621 8.84985C-0.118329 9.26919 -0.0691813 9.90074 0.349996 10.26L2.1 11.76C2.47449 12.0805 3.02745 12.0799 3.40175 11.759L5.15078 10.259C5.57003 9.89965 5.61845 9.26917 5.25918 8.84985C4.89975 8.43055 4.26931 8.38204 3.85 8.74146L3.75039 8.82642V8.37427C3.75039 7.9605 4.0058 7.58921 4.39199 7.44067L6.00136 6.82153L7.60976 7.44067C7.99564 7.58935 8.25039 7.9607 8.25039 8.37427V8.82642L8.15078 8.74146C7.73145 8.38203 7.10102 8.43053 6.7416 8.84985C6.38221 9.26918 6.43068 9.89962 6.85 10.259L8.6 11.759C8.97448 12.0799 9.52634 12.08 9.90078 11.759L11.6508 10.259C12.0701 9.89965 12.1185 9.26918 11.7592 8.84985C11.3998 8.43053 10.7693 8.38203 10.35 8.74146L10.2504 8.82642V8.37427C10.2504 7.13304 9.48598 6.01915 8.32754 5.57349L7.00039 5.06274V4.26392C7.74065 3.89559 8.25029 3.13318 8.25039 2.25024C8.25039 1.00764 7.24297 0.000310117 6.00039 0.000244141C4.75775 0.000244141 3.75039 1.0076 3.75039 2.25024C3.75048 3.13326 4.26002 3.89563 5.00039 4.26392V5.06372L3.67324 5.57349C2.51478 6.01914 1.75039 7.13302 1.75039 8.37427V8.82544L1.65078 8.74048C1.23144 8.3815 0.599898 8.43066 0.240621 8.84985ZM5.75039 2.25024C5.75039 2.11217 5.86232 2.00024 6.00039 2.00024C6.1384 2.00031 6.25039 2.11221 6.25039 2.25024C6.25026 2.38816 6.13832 2.50018 6.00039 2.50024C5.8624 2.50024 5.75052 2.3882 5.75039 2.25024Z"
    fill="currentColor"
  />
</svg>
