<svg width="20" height="20" viewBox="0 0 20 20" fill="none" xmlns="http://www.w3.org/2000/svg" data-fui-icon="true">
  <path
    fill-rule="evenodd"
    clip-rule="evenodd"
    d="M1.08899 14.5498C0.564579 15.1909 0.659077 16.1365 1.29993 16.6611L4.04993 18.9111C4.60243 19.3632 5.39777 19.3631 5.95032 18.9111L8.70032 16.6611C9.34139 16.1365 9.43582 15.1909 8.91126 14.5498C8.38662 13.9089 7.441 13.8144 6.79993 14.3389L6.50012 14.584V14.5273C6.50021 13.5976 7.01639 12.744 7.83997 12.3125L10.2452 11.0527C11.0636 11.4888 11.9028 11.9329 12.6349 12.3145C13.4748 12.7523 14.0001 13.6166 14.0001 14.5537V14.584L13.7003 14.3389C13.0592 13.8145 12.1135 13.9088 11.589 14.5498C11.0646 15.1909 11.1591 16.1365 11.7999 16.6611L14.5499 18.9111C15.1024 19.3632 15.8978 19.3631 16.4503 18.9111L19.2003 16.6611C19.8414 16.1365 19.9358 15.1909 19.4113 14.5498C18.8866 13.9089 17.941 13.8144 17.2999 14.3389L17.0001 14.584V14.5537C17.0001 12.4881 15.8434 10.6032 14.0206 9.65332C13.3213 9.28888 12.5269 8.87043 11.7501 8.45703V6.60742C11.7501 6.52246 11.7412 6.4395 11.7277 6.3584C12.636 5.84276 13.2501 4.86912 13.2501 3.75C13.2501 2.09315 11.907 0.75 10.2501 0.75C8.5934 0.750152 7.25012 2.09324 7.25012 3.75C7.25012 4.86905 7.86425 5.84273 8.77258 6.3584C8.75902 6.43947 8.75013 6.52249 8.75012 6.60742V8.44922L6.44836 9.65527C4.63627 10.6046 3.50021 12.4816 3.50012 14.5273V14.584L3.20032 14.3389C2.55919 13.8145 1.61354 13.9088 1.08899 14.5498Z"
    fill="currentColor"
  />
</svg>
