<svg width="24" height="24" viewBox="0 0 24 24" fill="none" xmlns="http://www.w3.org/2000/svg" data-fui-icon="true">
  <path
    fill-rule="evenodd"
    clip-rule="evenodd"
    d="M1.1935 18.6582C0.867175 19.1034 0.963373 19.73 1.40834 20.0566L5.15834 22.8066C5.51011 23.0646 5.98902 23.0643 6.34096 22.8066L10.0919 20.0566C10.5371 19.73 10.6333 19.1035 10.3068 18.6582C9.98012 18.2131 9.3536 18.1168 8.90834 18.4434L6.75014 20.0264V17.8936C6.75023 16.4313 7.54825 15.0853 8.83119 14.3838L12.0031 12.6504C13.1009 13.2434 14.2273 13.8573 15.1896 14.3848C16.4615 15.082 17.2501 16.4199 17.2501 17.875V20.0264L15.0919 18.4434C14.6466 18.117 14.0201 18.213 13.6935 18.6582C13.3672 19.1034 13.4634 19.73 13.9083 20.0566L17.6583 22.8066C18.0101 23.0646 18.489 23.0643 18.841 22.8066L22.5919 20.0566C23.0371 19.73 23.1333 19.1035 22.8068 18.6582C22.4801 18.2131 21.8536 18.1168 21.4083 18.4434L19.2501 20.0264V17.875C19.2501 15.6941 18.0671 13.6814 16.1505 12.6309C15.2001 12.1099 14.0879 11.5047 13.0001 10.917V7.85449C14.446 7.42426 15.5001 6.08556 15.5001 4.5C15.5001 2.567 13.9331 1 12.0001 1C10.0673 1.00018 8.50014 2.56711 8.50014 4.5C8.50014 6.08534 9.55462 7.42407 11.0001 7.85449V10.9189L7.87221 12.6289C5.94767 13.6812 4.75023 15.7001 4.75014 17.8936L4.75014 20.0264L2.59193 18.4434C2.14664 18.117 1.52008 18.213 1.1935 18.6582ZM10.5001 4.5C10.5001 3.67168 11.1719 3.00018 12.0001 3C12.8286 3 13.5001 3.67157 13.5001 4.5C13.5001 5.32843 12.8286 6 12.0001 6C11.1719 5.99983 10.5001 5.32832 10.5001 4.5Z"
    fill="currentColor"
  />
</svg>
