<svg width="17" height="17" viewBox="0 0 17 17" fill="none" xmlns="http://www.w3.org/2000/svg" data-fui-icon="true">
  <path
    d="M12.226 0.291284C12.6835 -0.12461 13.3916 -0.0913953 13.8077 0.365845L16.3527 3.16536C16.741 3.59247 16.741 4.24536 16.3527 4.67248L13.8077 7.47199C13.3916 7.92923 12.6835 7.96245 12.226 7.54655C11.7688 7.13049 11.7355 6.42235 12.1514 5.96487L12.9935 5.03833H11.6444C11.3044 5.03836 10.9914 5.22328 10.8262 5.52049L9.16999 8.49994L10.8262 11.4794C10.9914 11.7766 11.3044 11.9615 11.6444 11.9615H12.9935L12.1514 11.035C11.7355 10.5775 11.7688 9.86939 12.226 9.45332C12.6835 9.03743 13.3916 9.07064 13.8077 9.52788L16.3527 12.3274C16.741 12.7545 16.741 13.4074 16.3527 13.8345L13.8077 16.634C13.3916 17.0913 12.6835 17.1245 12.226 16.7086C11.7688 16.2925 11.7355 15.5844 12.1514 15.1269L12.9935 14.2004H11.6444C10.491 14.2003 9.42794 13.5753 8.86777 12.567L7.23041 9.61934H5.89428C5.44757 10.7519 4.34527 11.554 3.05401 11.554C1.36733 11.554 0 10.1866 0 8.49994C0 6.81325 1.36733 5.44593 3.05401 5.44593C4.34527 5.44593 5.44757 6.248 5.89428 7.38053H7.23041L8.86777 4.43289C9.42794 3.4246 10.491 2.79955 11.6444 2.79951H12.9935L12.1514 1.87297C11.7355 1.41548 11.7688 0.707349 12.226 0.291284Z"
    fill="currentColor"
  />
</svg>
