<svg width="32" height="32" viewBox="0 0 32 32" fill="none" xmlns="http://www.w3.org/2000/svg" data-fui-icon="true">
  <path
    fill-rule="evenodd"
    clip-rule="evenodd"
    d="M6.70361 31.2833C6.1332 31.672 5.35511 31.5245 4.96631 30.9542L1.21729 25.4542C0.927837 25.0296 0.927923 24.4707 1.21729 24.046L4.96631 18.546C5.35513 17.9756 6.13318 17.8281 6.70361 18.2169C7.27401 18.6057 7.42056 19.3838 7.03174 19.9542L4.61475 23.5001H9.45361C10.8285 23.5001 12.0935 22.7474 12.7495 21.5392L15.7573 15.9981C14.7013 14.0398 13.5931 11.9989 12.7495 10.4493C12.095 9.24728 10.8348 8.5001 9.46338 8.5001H4.61572L7.03174 12.046C7.42046 12.6164 7.27396 13.3945 6.70361 13.7833C6.1332 14.1719 5.35508 14.0245 4.96631 13.4542L1.21826 7.9542C0.928877 7.52958 0.928963 6.97066 1.21826 6.546L4.96631 1.046C5.3551 0.475611 6.13317 0.328163 6.70361 0.716898C7.27397 1.10571 7.42049 1.88378 7.03174 2.4542L4.61572 6.0001H9.46338C11.7476 6.0001 13.8512 7.24553 14.9448 9.25401C15.7802 10.7885 16.8751 12.8065 17.9233 14.7501H22.6763C23.218 12.8731 24.9481 11.5001 26.9995 11.5001C29.4848 11.5001 31.4995 13.5148 31.4995 16.0001C31.4994 18.4853 29.4847 20.5001 26.9995 20.5001C24.9481 20.5001 23.2181 19.1271 22.6763 17.2501H17.9224L14.9468 22.7315C13.8534 24.7454 11.7451 26.0001 9.45361 26.0001H4.61475L7.03174 29.546C7.42053 30.1164 7.274 30.8945 6.70361 31.2833Z"
    fill="currentColor"
  />
</svg>
