<svg width="32" height="32" viewBox="0 0 32 32" fill="none" xmlns="http://www.w3.org/2000/svg" data-fui-icon="true">
  <path
    fill-rule="evenodd"
    clip-rule="evenodd"
    d="M1.12961 5.92114C0.896715 5.57899 0.984931 5.11241 1.32687 4.87915L6.82687 1.13013C7.08168 0.956568 7.41781 0.956474 7.67258 1.13013L13.1726 4.87915C13.5144 5.11238 13.6026 5.57902 13.3698 5.92114C13.1366 6.26339 12.6691 6.35166 12.3269 6.11841L7.99972 3.16919V8.95337C7.99977 10.5116 8.85289 11.9453 10.2224 12.6887L16.0007 15.8254C18.0313 14.7311 20.1761 13.5666 21.7888 12.6887C23.1522 11.9464 23.9997 10.5171 23.9997 8.96313V3.16919L19.6726 6.11841C19.3303 6.35168 18.8629 6.26342 18.6296 5.92114C18.3967 5.57898 18.4849 5.1124 18.8269 4.87915L24.3269 1.1311C24.5817 0.957588 24.9178 0.957497 25.1726 1.1311L30.6726 4.87915C31.0144 5.11237 31.1026 5.57902 30.8698 5.92114C30.6366 6.26341 30.1691 6.35163 29.8269 6.11841L25.4997 3.16919V8.96313C25.4997 11.0649 24.3539 13.0004 22.5066 14.0061C20.903 14.879 18.7721 16.0353 16.7497 17.1252V22.0627C18.8778 22.42 20.4997 24.2697 20.4997 26.4993C20.4997 28.9845 18.4849 30.9992 15.9997 30.9993C13.5144 30.9993 11.4997 28.9845 11.4997 26.4993C11.4997 24.2695 13.1214 22.4198 15.2497 22.0627V17.1243L9.50656 14.0071C7.65371 13.0012 6.49977 11.0616 6.49972 8.95337V3.16919L2.17258 6.11841C1.83031 6.35171 1.36291 6.26341 1.12961 5.92114ZM12.9997 26.4993C12.9997 28.1561 14.3429 29.4993 15.9997 29.4993C17.6565 29.4992 18.9997 28.1561 18.9997 26.4993C18.9997 24.8425 17.6565 23.4994 15.9997 23.4993C14.3429 23.4993 12.9997 24.8424 12.9997 26.4993Z"
    fill="currentColor"
  />
</svg>
