<svg width="32" height="32" viewBox="0 0 32 32" fill="none" xmlns="http://www.w3.org/2000/svg" data-fui-icon="true">
  <path
    fill-rule="evenodd"
    clip-rule="evenodd"
    d="M6.70337 31.283C6.13293 31.6718 5.35489 31.5243 4.96606 30.9539L1.21704 25.4539C0.927691 25.0292 0.927597 24.4703 1.21704 24.0457L4.96606 18.5457C5.35486 17.9753 6.13297 17.8279 6.70337 18.2166C7.27375 18.6054 7.42027 19.3835 7.03149 19.9539L4.6145 23.4998H9.45337C10.8283 23.4997 12.0933 22.7472 12.7493 21.5388L15.7571 15.9978C14.7011 14.0395 13.5928 11.9985 12.7493 10.449C12.0947 9.24707 10.8345 8.49977 9.46313 8.49977H4.61548L7.03149 12.0457C7.42025 12.6161 7.27373 13.3942 6.70337 13.783C6.13293 14.1717 5.35486 14.0243 4.96606 13.4539L1.21802 7.95387C0.92873 7.52921 0.928638 6.97028 1.21802 6.54567L4.96606 1.04567C5.35484 0.475376 6.13296 0.327984 6.70337 0.716566C7.27371 1.10537 7.4202 1.88345 7.03149 2.45387L4.61548 5.99977H9.46313C11.7473 5.99977 13.851 7.24532 14.9446 9.25368C15.7799 10.7882 16.8749 12.8063 17.9231 14.7498H22.676C23.2178 12.8728 24.9479 11.4998 26.9993 11.4998C29.4845 11.4998 31.4992 13.5146 31.4993 15.9998C31.4993 18.4851 29.4845 20.4998 26.9993 20.4998C24.9478 20.4998 23.2178 19.1268 22.676 17.2498H17.9221L14.9465 22.7312C13.8532 24.7452 11.745 25.9997 9.45337 25.9998H4.6145L7.03149 29.5457C7.42031 30.1161 7.27376 30.8941 6.70337 31.283Z"
    fill="currentColor"
  />
</svg>
