<svg width="20" height="20" viewBox="0 0 20 20" fill="none" xmlns="http://www.w3.org/2000/svg" data-fui-icon="true">
  <path
    fill-rule="evenodd"
    clip-rule="evenodd"
    d="M1.08899 5.45044C0.564579 4.80938 0.659077 3.86373 1.29993 3.33911L4.04993 1.08911C4.60243 0.637066 5.39777 0.637144 5.95032 1.08911L8.70032 3.33911C9.34139 3.86372 9.43582 4.80931 8.91126 5.45044C8.38662 6.09135 7.441 6.18589 6.79993 5.66138L6.50012 5.41626V5.4729C6.50021 6.40268 7.01639 7.25623 7.83997 7.68774L10.2452 8.94751C11.0636 8.51147 11.9028 8.06732 12.6349 7.68579C13.4748 7.24792 14.0001 6.38363 14.0001 5.44653V5.41626L13.7003 5.66138C13.0592 6.18575 12.1135 6.09144 11.589 5.45044C11.0646 4.80938 11.1591 3.86373 11.7999 3.33911L14.5499 1.08911C15.1024 0.637066 15.8978 0.637144 16.4503 1.08911L19.2003 3.33911C19.8414 3.86372 19.9358 4.80931 19.4113 5.45044C18.8866 6.09135 17.941 6.18589 17.2999 5.66138L17.0001 5.41626V5.44653C17.0001 7.51212 15.8434 9.39703 14.0206 10.3469C13.3213 10.7114 12.5269 11.1298 11.7501 11.5432V13.3928C11.7501 13.4778 11.7412 13.5607 11.7277 13.6418C12.636 14.1575 13.2501 15.1311 13.2501 16.2502C13.2501 17.9071 11.907 19.2502 10.2501 19.2502C8.5934 19.2501 7.25012 17.907 7.25012 16.2502C7.25012 15.1312 7.86425 14.1575 8.77258 13.6418C8.75902 13.5608 8.75013 13.4777 8.75012 13.3928V11.551L6.44836 10.345C4.63627 9.39563 3.50021 7.51861 3.50012 5.4729V5.41626L3.20032 5.66138C2.55919 6.18575 1.61354 6.09144 1.08899 5.45044Z"
    fill="currentColor"
  />
</svg>
