<svg width="16" height="16" viewBox="0 0 16 16" fill="none" xmlns="http://www.w3.org/2000/svg" data-fui-icon="true">
  <path
    fill-rule="evenodd"
    clip-rule="evenodd"
    d="M5.17041 15.433C4.51656 15.9416 3.57456 15.8241 3.06592 15.1703L1.31592 12.9203C0.894878 12.3787 0.894708 11.6201 1.31592 11.0785L3.06592 8.82853C3.57454 8.17512 4.51666 8.05759 5.17041 8.56583C5.70643 8.98288 5.88141 9.69129 5.64697 10.2934C5.88722 10.1533 6.08978 9.94866 6.22314 9.69279L7.10205 8.00626C6.7956 7.42808 6.48752 6.84298 6.22119 6.32853C6.08788 6.07122 5.88925 5.86248 5.65283 5.71915C5.87943 6.31823 5.70228 7.01906 5.17041 7.43302C4.51656 7.94157 3.57456 7.82407 3.06592 7.17033L1.31592 4.92033C0.894878 4.37868 0.894708 3.62009 1.31592 3.07853L3.06592 0.828529C3.57454 0.17512 4.51666 0.0575943 5.17041 0.565834C5.78404 1.04326 5.92554 1.90287 5.52002 2.54728C6.9537 2.75624 8.21192 3.6474 8.88623 4.94962C9.13427 5.42875 9.41591 5.96666 9.69775 6.49943H10.8804C10.9205 6.49943 10.9602 6.50317 10.9995 6.50626C11.4554 5.89696 12.18 5.5004 12.9995 5.5004C14.3802 5.5004 15.4995 6.61969 15.4995 8.0004C15.4993 9.38093 14.3801 10.5004 12.9995 10.5004C12.18 10.5004 11.4555 10.1039 10.9995 9.49454C10.9602 9.49763 10.9205 9.49943 10.8804 9.49943H9.70654L8.8833 11.0785C8.20649 12.3775 6.94809 13.2532 5.52295 13.4545C5.92603 14.0985 5.78288 14.9563 5.17041 15.433Z"
    fill="currentColor"
  />
</svg>
