<svg width="32" height="32" viewBox="0 0 32 32" fill="none" xmlns="http://www.w3.org/2000/svg" data-fui-icon="true">
  <path
    fill-rule="evenodd"
    clip-rule="evenodd"
    d="M7.43555 31.1721C6.78862 31.689 5.84446 31.5835 5.32715 30.9367L1.32812 25.9367C0.898624 25.3994 0.889894 24.6383 1.30664 24.091L5.30566 18.841C5.8076 18.1823 6.7483 18.0552 7.40723 18.5568C8.06624 19.0588 8.19436 20.0004 7.69238 20.6594L5.52832 23.5002H9.66309C10.961 23.5002 12.1529 22.7818 12.7588 21.634L15.7305 16.0031C14.682 14.0466 13.586 11.9743 12.7549 10.3889C12.1459 9.22758 10.9458 8.50019 9.63965 8.50019H5.52832L7.69238 11.341C8.19428 12.0001 8.06627 12.9416 7.40723 13.4436C6.74831 13.945 5.80755 13.818 5.30566 13.1594L1.30664 7.90937C0.88983 7.36207 0.899612 6.60103 1.3291 6.06367L5.32715 1.06367C5.84447 0.41674 6.78856 0.311129 7.43555 0.828316C8.08255 1.3457 8.18731 2.28971 7.66992 2.93671L5.62012 5.50019H9.63965C12.0667 5.50019 14.2876 6.85131 15.4121 8.99628C16.2293 10.5551 17.3001 12.5809 18.3281 14.5002H23.0059L23.0068 14.5012C23.6245 12.7532 25.2896 11.5002 27.249 11.5002C29.7343 11.5002 31.749 13.5149 31.749 16.0002C31.7489 18.4854 29.7342 20.5002 27.249 20.5002C25.29 20.5002 23.6248 19.2477 23.0068 17.5002H18.333L15.4121 23.0344C14.2869 25.1662 12.0736 26.5002 9.66309 26.5002H5.62012L7.66992 29.0637C8.18724 29.7106 8.08246 30.6547 7.43555 31.1721Z"
    fill="currentColor"
  />
</svg>
