<svg width="12" height="12" viewBox="0 0 12 12" fill="none" xmlns="http://www.w3.org/2000/svg" data-fui-icon="true">
  <path
    fill-rule="evenodd"
    clip-rule="evenodd"
    d="M0.149937 2.69983C-0.0982305 2.36866 -0.0314613 1.8986 0.299351 1.65002L2.29935 0.150024C2.56593 -0.0499067 2.9331 -0.0497694 3.19974 0.150024L5.19974 1.65002C5.53088 1.89859 5.59855 2.36854 5.35013 2.69983C5.1016 3.03116 4.63071 3.09776 4.29935 2.84924L3.49955 2.24963V2.70764C3.49955 3.53525 3.95454 4.2966 4.68314 4.68909L6.00052 5.39905C6.44799 5.15813 6.90349 4.91173 7.31693 4.68909C8.04552 4.29671 8.49955 3.53531 8.49955 2.70764V2.25061L7.69974 2.85022C7.36844 3.09854 6.89846 3.03097 6.64994 2.69983C6.40172 2.36859 6.46836 1.89856 6.79935 1.65002L8.79935 0.150024C9.06593 -0.0499067 9.4331 -0.0497694 9.69974 0.150024L11.6997 1.65002C12.0309 1.8986 12.0976 2.36853 11.8492 2.69983C11.6006 3.03097 11.1306 3.09863 10.7994 2.85022L9.99955 2.25061V2.70764C9.99955 4.08699 9.24244 5.35533 8.02787 6.0094C7.62627 6.22566 7.18464 6.46362 6.74955 6.69788V7.63049C7.62308 7.9395 8.24944 8.77028 8.24955 9.74963C8.24955 10.9923 7.24219 11.9996 5.99955 11.9996C4.75704 11.9995 3.74955 10.9922 3.74955 9.74963C3.74965 8.77048 4.37629 7.93965 5.24955 7.63049V6.6969L3.9722 6.0094C2.75775 5.35529 1.99955 4.08707 1.99955 2.70764V2.24963L1.19974 2.84924C0.86847 3.09759 0.39849 3.03092 0.149937 2.69983ZM5.24955 9.74963C5.24955 10.1637 5.58547 10.4995 5.99955 10.4996C6.41376 10.4996 6.74955 10.1638 6.74955 9.74963C6.74941 9.33553 6.41368 8.99963 5.99955 8.99963C5.58555 8.9998 5.24968 9.33563 5.24955 9.74963Z"
    fill="currentColor"
  />
</svg>
