<svg width="12" height="12" viewBox="0 0 12 12" fill="none" xmlns="http://www.w3.org/2000/svg" data-fui-icon="true">
  <path
    fill-rule="evenodd"
    clip-rule="evenodd"
    d="M0.150307 9.29993C-0.0980429 9.63115 -0.0312529 10.1011 0.299722 10.3497L2.29972 11.8497C2.56636 12.0496 2.93349 12.0497 3.20011 11.8497L5.20011 10.3497C5.53121 10.1012 5.59881 9.6312 5.3505 9.29993C5.10197 8.96856 4.63109 8.90198 4.29972 9.15051L3.49992 9.75012V9.29211C3.49992 8.4644 3.95475 7.70311 4.68351 7.31067L6.00089 6.60071C6.44839 6.84165 6.90385 7.08802 7.3173 7.31067C8.04582 7.70306 8.49992 8.46448 8.49992 9.29211V9.74915L7.70011 9.14954C7.36881 8.90111 6.89886 8.96874 6.65031 9.29993C6.4019 9.63122 6.46857 10.1012 6.79972 10.3497L8.79972 11.8497C9.06636 12.0496 9.43349 12.0497 9.70011 11.8497L11.7001 10.3497C12.0312 10.1012 12.0979 9.63122 11.8495 9.29993C11.601 8.96874 11.131 8.90111 10.7997 9.14954L9.99992 9.74915V9.29211C9.99992 7.9128 9.24275 6.64444 8.02824 5.99036C7.62663 5.77409 7.18504 5.53615 6.74992 5.30188V4.36926C7.62329 4.06017 8.24981 3.22936 8.24992 2.25012C8.24992 1.0075 7.24253 0.000153255 5.99992 0.00012207C4.75728 0.00012207 3.74992 1.00748 3.74992 2.25012C3.75002 3.2294 4.37649 4.0602 5.24992 4.36926V5.30286L3.97257 5.99036C2.75795 6.64442 1.99992 7.91258 1.99992 9.29211V9.75012L1.20011 9.15051C0.868834 8.90205 0.398891 8.9688 0.150307 9.29993ZM5.24992 2.25012C5.24992 1.83591 5.5857 1.50012 5.99992 1.50012C6.4141 1.50015 6.74992 1.83593 6.74992 2.25012C6.74978 2.6642 6.41402 3.00009 5.99992 3.00012C5.58578 3.00012 5.25005 2.66422 5.24992 2.25012Z"
    fill="currentColor"
  />
</svg>
