<svg width="32" height="32" viewBox="0 0 32 32" fill="none" xmlns="http://www.w3.org/2000/svg" data-fui-icon="true">
  <path
    fill-rule="evenodd"
    clip-rule="evenodd"
    d="M6.62305 30.7815C6.19187 31.1259 5.56263 31.0561 5.21777 30.6253L1.21875 25.6253C0.932375 25.2672 0.926628 24.7597 1.2041 24.3948L5.20312 19.1448C5.53769 18.7056 6.16516 18.62 6.60449 18.9544C7.04375 19.289 7.12846 19.9164 6.79395 20.3558L4.01758 24.0003H9.16309C10.6464 24.0003 12.0087 23.1793 12.7012 21.8675L15.7969 16.0022C14.7117 13.9802 13.5625 11.806 12.6982 10.1575C12.0034 8.83207 10.6328 8.00029 9.13965 8.00029H4.01855L6.79395 11.6448C7.12839 12.0842 7.0438 12.7116 6.60449 13.0462C6.16519 13.3803 5.53763 13.2948 5.20312 12.8558L1.20508 7.60576C0.927357 7.24093 0.933508 6.73347 1.21973 6.37529L5.21777 1.37529C5.56267 0.944304 6.19181 0.874454 6.62305 1.21904C7.05433 1.56397 7.1242 2.19398 6.7793 2.62529L4.08105 6.00029H9.13965C11.3799 6.00029 13.4311 7.2477 14.4697 9.22881C15.3246 10.8596 16.4557 13.0028 17.5273 15.0003H22.3623C22.8171 12.9964 24.6075 11.5003 26.749 11.5003C29.2343 11.5003 31.249 13.515 31.249 16.0003C31.2489 18.4854 29.2342 20.5003 26.749 20.5003C24.6077 20.5003 22.8173 19.0039 22.3623 17.0003H17.5312L14.4697 22.8011C13.431 24.7688 11.3881 26.0003 9.16309 26.0003H4.08008L6.7793 29.3753C7.12415 29.8066 7.05431 30.4366 6.62305 30.7815ZM26.749 18.5003C28.1296 18.5003 29.2489 17.3809 29.249 16.0003C29.249 14.6196 28.1297 13.5003 26.749 13.5003C25.3683 13.5003 24.249 14.6196 24.249 16.0003C24.2492 17.3809 25.3684 18.5003 26.749 18.5003Z"
    fill="currentColor"
  />
</svg>
