<svg width="20" height="20" viewBox="0 0 20 20" fill="none" xmlns="http://www.w3.org/2000/svg" data-fui-icon="true">
  <path
    fill-rule="evenodd"
    clip-rule="evenodd"
    d="M1.08885 14.5498C0.564308 15.1909 0.658781 16.1365 1.29979 16.6611L4.04979 18.9111C4.60234 19.3632 5.39763 19.3632 5.95018 18.9111L8.70018 16.6611C9.34125 16.1365 9.43568 15.1909 8.91112 14.5498C8.3865 13.9088 7.4409 13.8143 6.79979 14.3389L6.49998 14.584V14.5273C6.50007 13.5975 7.01614 12.744 7.83983 12.3125L10.2451 11.0527C11.0635 11.4888 11.9026 11.9329 12.6347 12.3145C13.4747 12.7523 14 13.6166 14 14.5537V14.584L13.7002 14.3389C13.0591 13.8144 12.1134 13.9088 11.5889 14.5498C11.0643 15.1909 11.1588 16.1365 11.7998 16.6611L14.5498 18.9111C15.1023 19.3632 15.8976 19.3632 16.4502 18.9111L19.2002 16.6611C19.8412 16.1365 19.9357 15.1909 19.4111 14.5498C18.8865 13.9088 17.9409 13.8143 17.2998 14.3389L17 14.584V14.5537C17 12.4881 15.8433 10.6032 14.0205 9.65332C13.3211 9.28886 12.5269 8.87047 11.75 8.45703V6.60742C11.75 6.52247 11.7411 6.43949 11.7275 6.3584C12.6359 5.84276 13.25 4.86912 13.25 3.75C13.25 2.09315 11.9068 0.75 10.25 0.75C8.59315 0.750029 7.24998 2.09316 7.24998 3.75C7.24998 4.8688 7.86354 5.84264 8.77147 6.3584C8.75792 6.43944 8.74999 6.52254 8.74998 6.60742V8.44922L6.44823 9.65527C4.63602 10.6046 3.50007 12.4816 3.49998 14.5273V14.584L3.20018 14.3389C2.55905 13.8144 1.61344 13.9088 1.08885 14.5498Z"
    fill="currentColor"
  />
</svg>
