<svg width="24" height="24" viewBox="0 0 24 24" fill="none" xmlns="http://www.w3.org/2000/svg" data-fui-icon="true">
  <path
    fill-rule="evenodd"
    clip-rule="evenodd"
    d="M6.13672 23.2102C5.46879 23.6996 4.52984 23.5546 4.04004 22.887L1.29004 19.137C0.903328 18.6092 0.903385 17.8913 1.29004 17.3636L4.04004 13.6136C4.52984 12.9456 5.46869 12.8007 6.13672 13.2903C6.80453 13.7801 6.9495 14.719 6.45996 15.387L5.45996 16.7503H6.60645C7.88585 16.7502 9.06392 16.0515 9.67773 14.929L11.2812 11.9973C10.7293 10.977 10.1659 9.94348 9.67676 9.05106C9.06784 7.94031 7.89867 7.25028 6.625 7.25028H5.45996L6.45996 8.61356C6.94933 9.28156 6.80455 10.2205 6.13672 10.7102C5.46879 11.1996 4.52984 11.0546 4.04004 10.387L1.29004 6.637C0.903328 6.10925 0.903385 5.39134 1.29004 4.86356L4.04004 1.11356C4.52984 0.445623 5.46869 0.300743 6.13672 0.790316C6.80453 1.28015 6.9495 2.21901 6.45996 2.887L5.45996 4.25028H6.625C8.98736 4.25028 11.1678 5.53201 12.3066 7.60965C12.7861 8.48439 13.3375 9.49622 13.8809 10.5003H16.8369C17.3987 9.31782 18.6038 8.50028 20 8.50028C21.933 8.50028 23.5 10.0673 23.5 12.0003C23.4998 13.9331 21.9329 15.5003 20 15.5003C18.6041 15.5003 17.3998 14.6825 16.8379 13.5003H13.877L12.3096 16.3684C11.1696 18.4533 8.98263 19.7502 6.60645 19.7503H5.45996L6.45996 21.1136C6.94933 21.7816 6.80455 22.7205 6.13672 23.2102Z"
    fill="currentColor"
  />
</svg>
