<svg width="32" height="32" viewBox="0 0 32 32" fill="none" xmlns="http://www.w3.org/2000/svg" data-fui-icon="true">
  <path
    fill-rule="evenodd"
    clip-rule="evenodd"
    d="M6.62317 30.7815C6.19199 31.1259 5.56275 31.0561 5.2179 30.6253L1.21887 25.6253C0.932497 25.2672 0.92675 24.7597 1.20422 24.3948L5.20325 19.1448C5.53782 18.7056 6.16529 18.62 6.60461 18.9544C7.04387 19.289 7.12859 19.9164 6.79407 20.3558L4.0177 24.0003H9.16321C10.6466 24.0003 12.0088 23.1793 12.7013 21.8675L15.797 16.0022C14.7118 13.9802 13.5626 11.806 12.6984 10.1575C12.0035 8.83207 10.6329 8.00029 9.13977 8.00029H4.01868L6.79407 11.6448C7.12851 12.0842 7.04392 12.7116 6.60461 13.0462C6.16531 13.3803 5.53775 13.2948 5.20325 12.8558L1.2052 7.60576C0.927479 7.24093 0.93363 6.73347 1.21985 6.37529L5.2179 1.37529C5.56279 0.944304 6.19194 0.874454 6.62317 1.21904C7.05445 1.56397 7.12432 2.19398 6.77942 2.62529L4.08118 6.00029H9.13977C11.38 6.00029 13.4313 7.2477 14.4698 9.22881C15.3248 10.8596 16.4558 13.0028 17.5275 15.0003H22.3624C22.8172 12.9964 24.6076 11.5003 26.7491 11.5003C29.2344 11.5003 31.2491 13.515 31.2491 16.0003C31.249 18.4854 29.2343 20.5003 26.7491 20.5003C24.6078 20.5003 22.8174 19.0039 22.3624 17.0003H17.5314L14.4698 22.8011C13.4311 24.7688 11.3883 26.0003 9.16321 26.0003H4.0802L6.77942 29.3753C7.12427 29.8066 7.05444 30.4366 6.62317 30.7815ZM26.7491 18.5003C28.1298 18.5003 29.249 17.3809 29.2491 16.0003C29.2491 14.6196 28.1299 13.5003 26.7491 13.5003C25.3684 13.5003 24.2491 14.6196 24.2491 16.0003C24.2493 17.3809 25.3685 18.5003 26.7491 18.5003Z"
    fill="currentColor"
  />
</svg>
