<svg width="24" height="24" viewBox="0 0 24 24" fill="none" xmlns="http://www.w3.org/2000/svg" data-fui-icon="true">
  <path
    fill-rule="evenodd"
    clip-rule="evenodd"
    d="M1.1324 4.92493C0.897839 4.5836 0.984464 4.11659 1.32576 3.88196L5.32576 1.13196C5.58159 0.956367 5.91961 0.956226 6.17537 1.13196L10.1754 3.88196C10.5164 4.11659 10.603 4.58371 10.3687 4.92493C10.1342 5.26614 9.66706 5.35263 9.32576 5.11829L6.50056 3.1759V6.10657C6.50065 7.66012 7.34846 9.08971 8.7115 9.83508L12.0015 11.6349C13.1379 11.0216 14.3123 10.381 15.3101 9.83411C16.6624 9.09265 17.5006 7.67083 17.5006 6.12512V3.1759L14.6754 5.11829C14.3341 5.35283 13.867 5.26613 13.6324 4.92493C13.3978 4.58358 13.4844 4.11657 13.8258 3.88196L17.8258 1.13293C18.0816 0.957245 18.4196 0.957104 18.6754 1.13293L22.6754 3.88196C23.0164 4.11658 23.103 4.58368 22.8687 4.92493C22.6342 5.26617 22.1671 5.35265 21.8258 5.11829L19.0006 3.1759V6.12512C19.0006 8.21521 17.8666 10.1431 16.0308 11.1495C15.0423 11.6914 13.8794 12.3253 12.7506 12.9347V16.0812C14.3228 16.4247 15.5004 17.8239 15.5006 19.4991C15.5006 21.432 13.9334 22.9989 12.0006 22.9991C10.0676 22.9991 8.50056 21.4321 8.50056 19.4991C8.50068 17.8236 9.67789 16.4234 11.2506 16.0802V12.9327L7.99275 11.1515C6.14823 10.1431 5.00065 8.20871 5.00056 6.10657V3.1759L2.17537 5.11829C1.8341 5.35281 1.36706 5.2661 1.1324 4.92493ZM10.0006 19.4991C10.0006 20.6037 10.896 21.4991 12.0006 21.4991C13.105 21.4989 14.0006 20.6036 14.0006 19.4991C14.0004 18.3948 13.1049 17.4994 12.0006 17.4991C10.8961 17.4991 10.0007 18.3947 10.0006 19.4991Z"
    fill="currentColor"
  />
</svg>
