<svg width="32" height="32" viewBox="0 0 32 32" fill="none" xmlns="http://www.w3.org/2000/svg" data-fui-icon="true">
  <path
    fill-rule="evenodd"
    clip-rule="evenodd"
    d="M0.966086 6.45361C0.577425 5.8832 0.724841 5.10511 1.29519 4.71631L6.79519 0.967285C7.21984 0.677837 7.7787 0.677923 8.20339 0.967285L13.7034 4.71631C14.2738 5.10513 14.4213 5.88318 14.0325 6.45361C13.6436 7.02401 12.8656 7.17056 12.2952 6.78174L8.74929 4.36475V9.20361C8.74934 10.5785 9.50197 11.8435 10.7102 12.4995L16.2512 15.5073C18.2096 14.4513 20.2505 13.3431 21.8001 12.4995C23.0021 11.845 23.7493 10.5848 23.7493 9.21338V4.36572L20.2034 6.78174C19.633 7.17046 18.8549 7.02396 18.4661 6.45361C18.0775 5.8832 18.2249 5.10508 18.7952 4.71631L24.2952 0.968262C24.7198 0.678877 25.2787 0.678963 25.7034 0.968262L31.2034 4.71631C31.7738 5.1051 31.9212 5.88317 31.5325 6.45361C31.1437 7.02397 30.3656 7.17049 29.7952 6.78174L26.2493 4.36572V9.21338C26.2493 11.4976 25.0039 13.6012 22.9954 14.6948C21.4608 15.5302 19.4428 16.6251 17.4993 17.6733V22.4263C19.3763 22.968 20.7493 24.6981 20.7493 26.7495C20.7493 29.2348 18.7346 31.2495 16.2493 31.2495C13.7641 31.2494 11.7493 29.2347 11.7493 26.7495C11.7493 24.6981 13.1223 22.9681 14.9993 22.4263V17.6724L9.51784 14.6968C7.50398 13.6034 6.24934 11.4951 6.24929 9.20361V4.36475L2.70339 6.78174C2.13297 7.17053 1.35492 7.024 0.966086 6.45361Z"
    fill="currentColor"
  />
</svg>
