<svg width="20" height="20" viewBox="0 0 20 20" fill="none" xmlns="http://www.w3.org/2000/svg" data-fui-icon="true">
  <path
    fill-rule="evenodd"
    clip-rule="evenodd"
    d="M5.25 19.2503C4.6978 19.6644 3.91423 19.5524 3.5 19.0003L1.25 16.0003C0.916752 15.5559 0.916798 14.9447 1.25 14.5003L3.5 11.5003C3.9142 10.948 4.69771 10.8361 5.25 11.2503C5.80215 11.6645 5.91416 12.4481 5.5 13.0003L4.75 14.0003H5.72266C6.74533 14.0002 7.68349 13.4325 8.1582 12.5267L9.47949 10.0052C9.02377 9.15117 8.55682 8.2671 8.15723 7.50031C7.67672 6.57834 6.7275 6.00033 5.69629 6.00031H4.75L5.5 7.00031C5.91399 7.55259 5.80218 8.33617 5.25 8.75031C4.69776 9.16435 3.91419 9.05239 3.5 8.50031L1.25 5.50031C0.916937 5.05599 0.916983 4.44464 1.25 4.00031L3.5 1.00031C3.91417 0.448072 4.69771 0.336182 5.25 0.750307C5.80212 1.16451 5.91409 1.94806 5.5 2.50031L4.75 3.50031H5.69629C7.66784 3.50033 9.46778 4.60414 10.375 6.34503C10.7604 7.08454 11.2057 7.93079 11.6426 8.75031H13.6426C13.6864 8.75031 13.7298 8.75273 13.7725 8.75714C14.2453 7.72143 15.2871 7.00031 16.5 7.00031C18.1567 7.00044 19.5 8.34353 19.5 10.0003C19.4999 11.657 18.1567 13.0002 16.5 13.0003C15.2872 13.0003 14.2453 12.2792 13.7725 11.2435C13.7298 11.2479 13.6864 11.2503 13.6426 11.2503H11.6494L10.373 13.6868C9.46682 15.4164 7.67529 16.5002 5.72266 16.5003H4.75L5.5 17.5003C5.91401 18.0526 5.80221 18.8362 5.25 19.2503Z"
    fill="currentColor"
  />
</svg>
