<svg width="12" height="12" viewBox="0 0 12 12" fill="none" xmlns="http://www.w3.org/2000/svg" data-fui-icon="true">
  <path
    d="M3.2998 11.7096C2.76942 12.1514 1.98193 12.0798 1.54004 11.5494L0.290039 10.0494C-0.0959749 9.58586 -0.0962162 8.91228 0.290039 8.44885L1.54004 6.94885C1.98204 6.41907 2.77063 6.34806 3.30078 6.78967C3.57124 7.01525 3.72173 7.33134 3.74609 7.65686C3.95066 7.50602 4.12423 7.31048 4.24902 7.07874L4.83105 5.99866C4.63206 5.62908 4.43236 5.26 4.24902 4.91956C4.12421 4.68791 3.95065 4.49218 3.74609 4.34143C3.72204 4.66739 3.57156 4.98372 3.30078 5.20959C2.77042 5.65153 1.98197 5.5798 1.54004 5.04944L0.290039 3.54944C-0.0959578 3.08588 -0.0961838 2.41228 0.290039 1.94885L1.54004 0.449829C1.98196 -0.0802851 2.7705 -0.152013 3.30078 0.289673C3.69918 0.621954 3.83838 1.15002 3.69531 1.61682C4.85818 1.89453 5.86861 2.65426 6.4502 3.73401C6.62295 4.05482 6.80961 4.40148 6.99707 4.74963H7.87988C8.28359 4.14694 8.97023 3.74972 9.75 3.74963C10.9926 3.74963 11.9999 4.75711 12 5.99963C12 7.24227 10.9926 8.24963 9.75 8.24963C8.97018 8.24955 8.28358 7.85233 7.87988 7.24963H6.99707L6.4502 8.26428C5.86858 9.3444 4.85769 10.1028 3.69434 10.3805C3.83865 10.848 3.69918 11.3768 3.2998 11.7096Z"
    fill="currentColor"
  />
</svg>
