<svg width="20" height="20" viewBox="0 0 20 20" fill="none" xmlns="http://www.w3.org/2000/svg" data-fui-icon="true">
  <path
    fill-rule="evenodd"
    clip-rule="evenodd"
    d="M1.15023 15.5497C0.901808 15.8809 0.968618 16.3509 1.29965 16.5995L4.29965 18.8495C4.56629 19.0493 4.93345 19.0494 5.20004 18.8495L8.20004 16.5995C8.53084 16.3509 8.59769 15.8808 8.34945 15.5497C8.10094 15.2187 7.6309 15.1521 7.29965 15.4003L5.49984 16.7499V14.7772C5.49993 13.5684 6.17121 12.4593 7.24203 11.8983L9.99691 10.455C10.9193 10.9488 11.8951 11.4635 12.7313 11.8993C13.8167 12.4652 14.4998 13.5845 14.4998 14.8036L14.4998 16.7499L12.7 15.4003C12.3688 15.1519 11.8988 15.2188 11.6502 15.5497C11.4018 15.881 11.4686 16.3509 11.7996 16.5995L14.7996 18.8495C15.0663 19.0493 15.4335 19.0494 15.7 18.8495L18.7 16.5995C19.0308 16.3509 19.0977 15.8809 18.8495 15.5497C18.601 15.2187 18.1309 15.1521 17.7996 15.4003L15.9998 16.7499L15.9998 14.8036C15.9998 13.0203 15.0015 11.3902 13.4246 10.5682C12.6046 10.1409 11.6519 9.63972 10.7498 9.1571V6.90125C12.0431 6.56774 12.9998 5.39726 12.9998 3.99988C12.9997 2.34325 11.6565 1.00006 9.99984 0.999878C8.34307 0.999878 6.99998 2.34314 6.99984 3.99988C6.99984 5.39758 7.95618 6.56902 9.24984 6.90222V9.1532L6.54574 10.5702C4.98076 11.3901 3.99993 13.0105 3.99984 14.7772V16.7499L2.20004 15.4003C1.86883 15.1519 1.39886 15.2187 1.15023 15.5497ZM8.49984 3.99988C8.49998 3.17156 9.1715 2.49988 9.99984 2.49988C10.828 2.50006 11.4997 3.17168 11.4998 3.99988C11.4998 4.82819 10.8281 5.49969 9.99984 5.49988C9.17142 5.49988 8.49984 4.82831 8.49984 3.99988Z"
    fill="currentColor"
  />
</svg>
