<svg width="32" height="32" viewBox="0 0 32 32" fill="none" xmlns="http://www.w3.org/2000/svg" data-fui-icon="true">
  <path
    fill-rule="evenodd"
    clip-rule="evenodd"
    d="M1.20257 7.06122C0.685593 6.41429 0.791159 5.47013 1.43792 4.95282L6.43792 0.953796C6.97525 0.524296 7.73632 0.515566 8.28362 0.932312L13.5336 4.93134C14.1923 5.43327 14.3194 6.37397 13.8178 7.0329C13.3158 7.69192 12.3743 7.82003 11.7153 7.31805L8.87444 5.15399V9.28876C8.87444 10.5867 9.59281 11.7786 10.7407 12.3845L16.3715 15.3561C18.328 14.3077 20.4004 13.2117 21.9858 12.3806C23.1471 11.7716 23.8744 10.5715 23.8744 9.26532V5.15399L21.0336 7.31805C20.3746 7.81995 19.433 7.69194 18.9311 7.0329C18.4296 6.37399 18.5567 5.43322 19.2153 4.93134L24.4653 0.932312C25.0126 0.515501 25.7736 0.525284 26.311 0.954773L31.311 4.95282C31.9579 5.47015 32.0635 6.41423 31.5463 7.06122C31.0289 7.70822 30.0849 7.81298 29.4379 7.29559L26.8744 5.24579V9.26532C26.8744 11.6923 25.5233 13.9133 23.3783 15.0378C21.8195 15.855 19.7937 16.9258 17.8744 17.9538V22.6315L17.8735 22.6325C19.6214 23.2502 20.8744 24.9152 20.8744 26.8747C20.8744 29.36 18.8597 31.3747 16.3744 31.3747C13.8892 31.3746 11.8744 29.3599 11.8744 26.8747C11.8744 24.9156 13.127 23.2505 14.8744 22.6325V17.9587L9.34026 15.0378C7.20846 13.9126 5.87444 11.6993 5.87444 9.28876V5.24579L3.31097 7.29559C2.66401 7.81291 1.71997 7.70813 1.20257 7.06122Z"
    fill="currentColor"
  />
</svg>
