<svg width="16" height="16" viewBox="0 0 16 16" fill="none" xmlns="http://www.w3.org/2000/svg" data-fui-icon="true">
  <path
    fill-rule="evenodd"
    clip-rule="evenodd"
    d="M0.97745 11.5312C0.581261 12.0965 0.717971 12.8762 1.28311 13.2725L3.78311 15.0254C4.21379 15.3272 4.78801 15.3273 5.21866 15.0254L7.71866 13.2725C8.2837 12.8762 8.42044 12.0965 8.02433 11.5312C7.62802 10.9662 6.84833 10.8294 6.28311 11.2256L5.75089 11.5986V11.3008C5.75092 10.6655 6.09517 10.0802 6.6503 9.77148L8.25772 8.87891C8.82431 9.18802 9.38663 9.49854 9.87491 9.77148C10.4144 10.0731 10.7509 10.6478 10.7509 11.2773V11.5986L10.2187 11.2256C9.65344 10.8295 8.87374 10.9662 8.47745 11.5312C8.08132 12.0965 8.21806 12.8762 8.78311 13.2725L11.2831 15.0244C11.7138 15.3262 12.288 15.3262 12.7187 15.0244L15.2187 13.2725C15.7837 12.8762 15.9204 12.0965 15.5243 11.5312C15.128 10.9662 14.3483 10.8295 13.7831 11.2256L13.2509 11.5986V11.2773C13.2509 9.75376 12.4345 8.33889 11.0946 7.58984C10.615 7.32174 10.0619 7.01631 9.50089 6.70996V5.41113C10.2476 4.97871 10.7509 4.17294 10.7509 3.24805C10.7509 1.86736 9.63157 0.748088 8.25089 0.748047C6.87018 0.748047 5.75089 1.86733 5.75089 3.24805C5.75089 4.17296 6.25422 4.97872 7.00089 5.41113V6.7168L5.43643 7.58594C4.08755 8.33559 3.25092 9.75758 3.25089 11.3008V11.5986L2.71866 11.2256C2.15346 10.8294 1.37377 10.9662 0.97745 11.5312Z"
    fill="currentColor"
  />
</svg>
