<svg width="20" height="20" viewBox="0 0 20 20" fill="none" xmlns="http://www.w3.org/2000/svg" data-fui-icon="true">
  <path
    fill-rule="evenodd"
    clip-rule="evenodd"
    d="M4.44971 18.85C4.11855 19.0983 3.64852 19.0314 3.3999 18.7006L1.1499 15.7006C0.949951 15.434 0.950041 15.0669 1.1499 14.8002L3.3999 11.8002C3.64849 11.4691 4.11844 11.4024 4.44971 11.6508C4.78063 11.8994 4.84751 12.3694 4.59912 12.7006L3.24951 14.5004H5.22217C6.43093 14.5003 7.5401 13.8289 8.10107 12.7582L9.54443 10.0033C9.05065 9.08101 8.53587 8.10519 8.1001 7.26897C7.53419 6.18341 6.41496 5.50044 5.1958 5.50041H3.24951L4.59912 7.30022C4.84731 7.63148 4.7807 8.10151 4.44971 8.35002C4.11852 8.59827 3.64849 8.53144 3.3999 8.20061L1.1499 5.20061C0.950008 4.93402 0.950092 4.56684 1.1499 4.30022L3.3999 1.30022C3.64847 0.969145 4.11843 0.902405 4.44971 1.1508C4.78061 1.39941 4.84747 1.8694 4.59912 2.20061L3.24951 4.00041H5.1958C6.97922 4.00044 8.60925 4.9986 9.43115 6.57561C9.85853 7.39572 10.3597 8.34836 10.8423 9.25041H13.0972C13.4304 7.95674 14.6018 7.00041 15.9995 7.00041C17.6563 7.00054 18.9995 8.34364 18.9995 10.0004C18.9993 11.657 17.6561 13.0003 15.9995 13.0004C14.6021 13.0004 13.4317 12.0436 13.0981 10.7504H10.8462L9.4292 13.4545C8.60929 15.0194 6.98883 16.0003 5.22217 16.0004H3.24951L4.59912 17.8002C4.84738 18.1315 4.78078 18.6015 4.44971 18.85ZM15.9995 11.5004C16.8277 11.5003 17.4993 10.8286 17.4995 10.0004C17.4995 9.17207 16.8278 8.50054 15.9995 8.50041C15.1711 8.50041 14.4995 9.17198 14.4995 10.0004C14.4997 10.8287 15.1712 11.5004 15.9995 11.5004Z"
    fill="currentColor"
  />
</svg>
