<svg width="32" height="32" viewBox="0 0 32 32" fill="none" xmlns="http://www.w3.org/2000/svg" data-fui-icon="true">
  <path
    fill-rule="evenodd"
    clip-rule="evenodd"
    d="M1.34321 25.5017C0.998899 25.9329 1.06866 26.5621 1.49946 26.907L6.49946 30.906C6.85752 31.1924 7.36503 31.1981 7.72993 30.9207L12.9799 26.9216C13.4192 26.5871 13.5047 25.9596 13.1704 25.5203C12.8357 25.081 12.2083 24.9963 11.769 25.3308L8.12446 28.1072V22.9617C8.12446 21.4783 8.9455 20.1161 10.2573 19.4236L16.1225 16.3279C18.1446 17.4131 20.3187 18.5623 21.9672 19.4265C23.2927 20.1214 24.1245 21.492 24.1245 22.9851V28.1062L20.4799 25.3308C20.0406 24.9964 19.4131 25.081 19.0786 25.5203C18.7445 25.9596 18.8299 26.5871 19.269 26.9216L24.519 30.9197C24.8838 31.1974 25.3913 31.1912 25.7495 30.905L30.7495 26.907C31.1805 26.5621 31.2503 25.9329 30.9057 25.5017C30.5608 25.0704 29.9308 25.0006 29.4995 25.3455L26.1245 28.0437V22.9851C26.1245 20.7448 24.8771 18.6936 22.8959 17.655C21.2652 16.8001 19.122 15.669 17.1245 14.5974V9.76245C19.1284 9.30769 20.6245 7.51729 20.6245 5.37573C20.6245 2.89045 18.6097 0.875732 16.1245 0.875732C13.6393 0.875896 11.6245 2.89055 11.6245 5.37573C11.6245 7.51708 13.1208 9.30747 15.1245 9.76245V14.5935L9.32368 17.655C7.35597 18.6937 6.12446 20.7366 6.12446 22.9617V28.0447L2.74946 25.3455C2.31816 25.0006 1.68814 25.0704 1.34321 25.5017ZM13.6245 5.37573C13.6245 3.99512 14.7439 2.8759 16.1245 2.87573C17.5052 2.87573 18.6245 3.99502 18.6245 5.37573C18.6245 6.75644 17.5052 7.87573 16.1245 7.87573C14.7439 7.87557 13.6245 6.75634 13.6245 5.37573Z"
    fill="currentColor"
  />
</svg>
