<svg width="20" height="20" viewBox="0 0 20 20" fill="none" xmlns="http://www.w3.org/2000/svg" data-fui-icon="true">
  <path
    fill-rule="evenodd"
    clip-rule="evenodd"
    d="M1.08887 5.45044C0.564457 4.80938 0.658954 3.86373 1.29981 3.33911L4.04981 1.08911C4.60231 0.637066 5.39765 0.637144 5.9502 1.08911L8.7002 3.33911C9.34127 3.86372 9.4357 4.80931 8.91113 5.45044C8.38649 6.09135 7.44088 6.18589 6.79981 5.66138L6.5 5.41626V5.4729C6.50008 6.40268 7.01626 7.25623 7.83984 7.68774L10.2451 8.94751C11.0635 8.51147 11.9026 8.06732 12.6348 7.68579C13.4747 7.24792 14 6.38363 14 5.44653V5.41626L13.7002 5.66138C13.0591 6.18575 12.1134 6.09144 11.5889 5.45044C11.0645 4.80938 11.159 3.86373 11.7998 3.33911L14.5498 1.08911C15.1023 0.637066 15.8977 0.637144 16.4502 1.08911L19.2002 3.33911C19.8413 3.86372 19.9357 4.80931 19.4111 5.45044C18.8865 6.09135 17.9409 6.18589 17.2998 5.66138L17 5.41626V5.44653C17 7.51212 15.8433 9.39703 14.0205 10.3469C13.3212 10.7114 12.5268 11.1298 11.75 11.5432V13.3928C11.75 13.4778 11.7411 13.5607 11.7275 13.6418C12.6359 14.1575 13.25 15.1311 13.25 16.2502C13.25 17.9071 11.9069 19.2502 10.25 19.2502C8.59328 19.2501 7.25 17.907 7.25 16.2502C7.25 15.1312 7.86413 14.1575 8.77246 13.6418C8.7589 13.5608 8.75 13.4777 8.75 13.3928V11.551L6.44824 10.345C4.63614 9.39563 3.50008 7.51861 3.5 5.4729V5.41626L3.2002 5.66138C2.55907 6.18575 1.61342 6.09144 1.08887 5.45044Z"
    fill="currentColor"
  />
</svg>
