<svg width="12" height="12" viewBox="0 0 12 12" fill="none" xmlns="http://www.w3.org/2000/svg" data-fui-icon="true">
  <path
    fill-rule="evenodd"
    clip-rule="evenodd"
    d="M9.2998 11.8494C9.63103 12.0978 10.101 12.031 10.3496 11.7L11.8496 9.70003C12.0495 9.43339 12.0495 9.06627 11.8496 8.79964L10.3496 6.79964C10.1011 6.46855 9.63108 6.40095 9.2998 6.64925C8.96843 6.89778 8.90186 7.36866 9.15039 7.70003L9.75 8.49984H9.29199C8.46428 8.49984 7.70299 8.04501 7.31055 7.31625L6.60059 5.99886C6.84152 5.55137 7.0879 5.09591 7.31055 4.68246C7.70294 3.95393 8.46436 3.49984 9.29199 3.49984H9.74902L9.14941 4.29964C8.90099 4.63095 8.96862 5.1009 9.2998 5.34945C9.6311 5.59785 10.1011 5.53119 10.3496 5.20003L11.8496 3.20003C12.0495 2.93339 12.0495 2.56627 11.8496 2.29964L10.3496 0.299644C10.1011 -0.0314932 9.63109 -0.0981312 9.2998 0.150229C8.96862 0.398779 8.90099 0.868731 9.14941 1.20003L9.74902 1.99984H9.29199C7.91268 1.99984 6.64432 2.757 5.99023 3.97152C5.77397 4.37312 5.53603 4.81472 5.30176 5.24984H4.36914C4.06005 4.37647 3.22924 3.74994 2.25 3.74984C1.00738 3.74984 3.11847e-05 4.75722 0 5.99984C0 7.24248 1.00736 8.24984 2.25 8.24984C3.22927 8.24974 4.06007 7.62326 4.36914 6.74984H5.30273L5.99023 8.02718C6.6443 9.2418 7.91246 9.99984 9.29199 9.99984H9.75L9.15039 10.7996C8.90193 11.1309 8.96868 11.6009 9.2998 11.8494ZM2.25 6.74984C1.83579 6.74984 1.5 6.41405 1.5 5.99984C1.50003 5.58565 1.83581 5.24984 2.25 5.24984C2.66408 5.24997 2.99997 5.58573 3 5.99984C3 6.41397 2.6641 6.74971 2.25 6.74984Z"
    fill="currentColor"
  />
</svg>
