<svg width="16" height="16" viewBox="0 0 16 16" fill="none" xmlns="http://www.w3.org/2000/svg" data-fui-icon="true">
  <path
    fill-rule="evenodd"
    clip-rule="evenodd"
    d="M4.36426 14.7891C3.92842 15.1281 3.30006 15.0499 2.96094 14.6143L1.21094 12.3643C0.930213 12.0032 0.930121 11.4968 1.21094 11.1358L2.96094 8.88577C3.30004 8.45019 3.92844 8.37212 4.36426 8.71097C4.79982 9.05008 4.87793 9.67848 4.53906 10.1143L4.04492 10.75H4.44824C5.17436 10.75 5.84349 10.3563 6.19629 9.72171L7.15625 7.99515C6.82498 7.38647 6.48807 6.77765 6.19531 6.25394C5.84895 5.63449 5.19058 5.25003 4.47168 5.25003H4.04492L4.53906 5.88577C4.87804 6.3216 4.7999 6.94996 4.36426 7.28909C3.92845 7.62806 3.30008 7.54987 2.96094 7.11429L1.21094 4.86429C0.930191 4.50318 0.930099 3.99683 1.21094 3.63577L2.96094 1.38577C3.30006 0.950252 3.92847 0.872118 4.36426 1.21097C4.79988 1.55008 4.87797 2.17846 4.53906 2.61429L4.04492 3.25003H4.47168C5.90582 3.25003 7.23709 4.01855 7.94141 5.27835C8.22996 5.79454 8.5615 6.39577 8.89062 7.00003H10.21C10.5959 6.11753 11.4752 5.50003 12.5 5.50003C13.8807 5.50003 14.9999 6.6194 15 8.00003C15 9.38074 13.8807 10.5 12.5 10.5C11.4749 10.5 10.5948 9.88287 10.209 9.00003H8.88574L7.94434 10.6934C7.23873 11.9627 5.90053 12.75 4.44824 12.75H4.04492L4.53906 13.3858C4.87801 13.8216 4.79984 14.45 4.36426 14.7891ZM12.5 8.50003C12.7761 8.50003 13 8.27617 13 8.00003C12.9999 7.72397 12.7761 7.50003 12.5 7.50003C12.2239 7.50003 12.0001 7.72397 12 8.00003C12 8.27617 12.2239 8.50003 12.5 8.50003Z"
    fill="currentColor"
  />
</svg>
