<svg width="24" height="24" viewBox="0 0 24 24" fill="none" xmlns="http://www.w3.org/2000/svg" data-fui-icon="true">
  <path
    fill-rule="evenodd"
    clip-rule="evenodd"
    d="M5.70898 23.2799C5.14011 23.6708 4.36176 23.5265 3.9707 22.9576L1.2207 18.9576C0.927826 18.5312 0.927723 17.968 1.2207 17.5416L3.9707 13.5416C4.36175 12.973 5.14018 12.8286 5.70898 13.2194C6.27775 13.6104 6.42204 14.3888 6.03125 14.9576L4.62695 16.9996H6.60742C7.97832 16.9995 9.23984 16.2513 9.89746 15.0485L11.5654 11.9967C10.9928 10.9374 10.4047 9.85752 9.89648 8.93029C9.24336 7.73916 7.99025 6.99964 6.62598 6.99963H4.62695L6.03125 9.04162C6.42219 9.6105 6.27779 10.3889 5.70898 10.7799C5.14007 11.1709 4.36173 11.0265 3.9707 10.4576L1.22168 6.45764C0.928661 6.03115 0.928558 5.46807 1.22168 5.04162L3.9707 1.04162C4.36173 0.472933 5.14014 0.328587 5.70898 0.719357C6.27781 1.11035 6.42207 1.88874 6.03125 2.45764L4.62695 4.49963H6.62598C8.89754 4.49964 10.9941 5.73216 12.0889 7.72912C12.5891 8.64175 13.1676 9.70331 13.7334 10.7496H16.7314C17.2349 9.43433 18.5078 8.49973 20 8.49963C21.9329 8.49963 23.4999 10.0668 23.5 11.9996C23.5 13.9326 21.933 15.4996 20 15.4996C18.5076 15.4995 17.2338 14.5651 16.7305 13.2496H13.7305L12.0908 16.2477C10.9947 18.2525 8.89229 19.4995 6.60742 19.4996H4.62695L6.03125 21.5416C6.42216 22.1105 6.27773 22.8888 5.70898 23.2799Z"
    fill="currentColor"
  />
</svg>
