<svg width="32" height="32" viewBox="0 0 32 32" fill="none" xmlns="http://www.w3.org/2000/svg" data-fui-icon="true">
  <path
    fill-rule="evenodd"
    clip-rule="evenodd"
    d="M0.966086 25.5461C0.577425 26.1166 0.724841 26.8946 1.29519 27.2834L6.79519 31.0325C7.21984 31.3219 7.7787 31.3218 8.20339 31.0325L13.7034 27.2834C14.2738 26.8946 14.4213 26.1166 14.0325 25.5461C13.6436 24.9757 12.8656 24.8292 12.2952 25.218L8.74929 27.635V22.7961C8.74934 21.4213 9.50197 20.1562 10.7102 19.5002L16.2512 16.4924C18.2096 17.5485 20.2505 18.6567 21.8001 19.5002C23.0021 20.1547 23.7493 21.415 23.7493 22.7864V27.634L20.2034 25.218C19.633 24.8293 18.8549 24.9758 18.4661 25.5461C18.0775 26.1166 18.2249 26.8947 18.7952 27.2834L24.2952 31.0315C24.7198 31.3209 25.2787 31.3208 25.7034 31.0315L31.2034 27.2834C31.7738 26.8947 31.9212 26.1166 31.5325 25.5461C31.1437 24.9758 30.3656 24.8293 29.7952 25.218L26.2493 27.634V22.7864C26.2493 20.5021 25.0039 18.3985 22.9954 17.3049C21.4608 16.4696 19.4428 15.3746 17.4993 14.3264V9.57349C19.3763 9.03174 20.7493 7.30171 20.7493 5.25024C20.7493 2.76496 18.7346 0.750244 16.2493 0.750244C13.7641 0.75033 11.7493 2.76502 11.7493 5.25024C11.7493 7.30166 13.1223 9.03169 14.9993 9.57349V14.3274L9.51784 17.303C7.50398 18.3963 6.24934 20.5046 6.24929 22.7961V27.635L2.70339 25.218C2.13297 24.8292 1.35492 24.9758 0.966086 25.5461Z"
    fill="currentColor"
  />
</svg>
