<svg width="16" height="16" viewBox="0 0 16 16" fill="none" xmlns="http://www.w3.org/2000/svg" data-fui-icon="true">
  <path
    fill-rule="evenodd"
    clip-rule="evenodd"
    d="M15.1896 5.6113C15.0386 5.1453 14.6426 4.8163 14.1566 4.7533L10.6556 4.2953L9.13355 1.1283C8.92255 0.690298 8.48856 0.417297 8.00056 0.417297C7.51256 0.417297 7.07856 0.689298 6.86756 1.1283L5.34655 4.2953L1.84556 4.7533C1.35856 4.8163 0.962555 5.1453 0.811555 5.6113C0.661555 6.0763 0.790555 6.5733 1.14555 6.9083L3.70356 9.3193L3.06056 12.7653C2.97156 13.2443 3.16155 13.7193 3.55555 14.0063C3.77655 14.1683 4.03456 14.2493 4.29456 14.2493C4.49856 14.2493 4.70356 14.1993 4.89256 14.0973L8.00056 12.4223L11.1086 14.0973C11.5376 14.3283 12.0516 14.2943 12.4456 14.0063C12.8406 13.7193 13.0296 13.2433 12.9406 12.7643L12.2976 9.3193L14.8546 6.9093C15.2106 6.5743 15.3396 6.0753 15.1896 5.6113ZM11.1686 8.3223C10.8566 8.6173 10.7196 9.0453 10.7996 9.4623L11.3726 12.5353L8.59756 11.0393C8.41056 10.9383 8.20556 10.8883 8.00056 10.8883V2.2333L9.36056 5.0653C9.54556 5.4473 9.90656 5.7093 10.3286 5.7653L13.4486 6.1733L11.1686 8.3223Z"
    fill="currentColor"
  />
</svg>
