<svg width="13" height="12" viewBox="0 0 13 12" fill="none" xmlns="http://www.w3.org/2000/svg" data-fui-icon="true">
  <path
    fill-rule="evenodd"
    clip-rule="evenodd"
    d="M5.04399 0.76267C5.52929 0.044095 6.65174 0.0956113 7.04595 0.916967L8.24028 3.4072L10.9922 3.76853C11.9567 3.89502 12.3494 5.08567 11.6377 5.75779L9.62798 7.65427L10.1329 10.3642C10.312 11.3262 9.29464 12.0547 8.44243 11.5947L6.00103 10.2763L3.55962 11.5947C2.70747 12.0547 1.69007 11.3263 1.86919 10.3642L2.3731 7.65427L0.364307 5.75779C-0.347498 5.08566 0.0453265 3.89498 1.00981 3.76853L3.76079 3.4072L4.9561 0.916967L5.04399 0.76267ZM5.03325 4.22361C4.86362 4.57716 4.52638 4.8202 4.13872 4.87107L1.91802 5.16208L3.53911 6.69236C3.82447 6.96185 3.95469 7.35829 3.88286 7.74509L3.47466 9.93454L5.45024 8.86911C5.75098 8.70694 6.10581 8.68685 6.41997 8.80857L6.55181 8.86911L8.52642 9.93454L8.11919 7.74509C8.04733 7.35825 8.17765 6.96183 8.46294 6.69236L10.0831 5.16208L7.86333 4.87107C7.47562 4.82023 7.13849 4.57784 6.9688 4.22458V4.22361L6.00103 2.20603L5.03325 4.22361Z"
    fill="currentColor"
  />
</svg>
