<svg width="25" height="24" viewBox="0 0 25 24" fill="none" xmlns="http://www.w3.org/2000/svg" data-fui-icon="true">
  <path
    fill-rule="evenodd"
    clip-rule="evenodd"
    d="M10.5354 1.49788C11.1255 0.270237 12.8769 0.270238 13.467 1.49788L16.2004 7.18636L16.217 7.21175C16.2367 7.2352 16.2655 7.25138 16.2981 7.25569L22.5861 8.07894C23.939 8.25634 24.4898 9.9241 23.4914 10.866L18.8938 15.201C18.8634 15.23 18.8504 15.2714 18.8576 15.3104L20.0119 21.5028C20.2629 22.8508 18.8362 23.8706 17.6408 23.2264L12.0627 20.2186C12.0246 20.1981 11.9777 20.1981 11.9397 20.2186L6.36153 23.2264C5.16623 23.8703 3.73955 22.8508 3.99043 21.5028L5.14473 15.3104C5.15202 15.2713 5.13905 15.2299 5.1086 15.201L0.510942 10.866C-0.487361 9.92413 0.0635679 8.25646 1.41622 8.07894L7.7043 7.25569C7.74784 7.24999 7.78426 7.22304 7.80196 7.18636L10.5354 1.49788ZM12.0012 2.07698C11.9731 2.07702 11.9488 2.0844 11.9318 2.09456C11.9248 2.09883 11.917 2.10473 11.9094 2.11312L11.8869 2.1473L9.15352 7.83577C8.91546 8.33112 8.44341 8.6717 7.89961 8.743L1.61153 9.56624C1.50273 9.58064 1.46854 9.70756 1.54024 9.77522L6.1379 14.1092C6.53844 14.4871 6.7204 15.0426 6.61934 15.5848L5.46504 21.7772C5.459 21.8097 5.464 21.8296 5.46993 21.8436C5.47717 21.8606 5.49093 21.8803 5.5129 21.8963C5.53503 21.9124 5.55911 21.9208 5.5793 21.9227C5.59623 21.9242 5.61899 21.9225 5.64961 21.9061L11.2287 18.8983C11.7108 18.6387 12.2916 18.6387 12.7736 18.8983L18.3527 21.9061C18.3833 21.9225 18.4061 21.9241 18.4231 21.9227C18.4432 21.9209 18.4673 21.9123 18.4895 21.8963C18.5111 21.8805 18.5251 21.8614 18.5324 21.8446C18.5384 21.8305 18.5434 21.81 18.5373 21.7772L17.383 15.5848C17.2819 15.0426 17.4641 14.487 17.8645 14.1092L22.4621 9.77522C22.5339 9.70752 22.4999 9.58051 22.3908 9.56624L16.1027 8.743C15.5589 8.67163 15.0869 8.33091 14.8488 7.83577H14.8479L12.1154 2.1473C12.1009 2.1171 12.0847 2.10303 12.0705 2.09456C12.0535 2.0844 12.0293 2.07698 12.0012 2.07698Z"
    fill="currentColor"
  />
</svg>
