<svg
  width="32"
  height="32"
  viewBox="0 0 32 32"
  fill="none"
  xmlns="http://www.w3.org/2000/svg"
  data-fui-icon="true"
>
  <path
    d="M23.4096 27.7502C23.1236 27.7502 22.8356 27.6802 22.5706 27.5362L16.1246 24.0612C16.0456 24.0182 15.9516 24.0182 15.8726 24.0612L9.4266 27.5362C8.8226 27.8632 8.1026 27.8122 7.5486 27.4082C6.9966 27.0062 6.7316 26.3392 6.8566 25.6672L8.1906 18.5132C8.2066 18.4272 8.1786 18.3412 8.1146 18.2822L2.8016 13.2722C2.3026 12.8012 2.1246 12.1052 2.3356 11.4542C2.5466 10.8022 3.1016 10.3422 3.7836 10.2522L11.0496 9.30118C11.1386 9.28918 11.2146 9.23518 11.2526 9.15518L14.4116 2.58218C14.7076 1.96718 15.3166 1.58417 16.0006 1.58417C16.6846 1.58417 17.2936 1.96719 17.5896 2.58319L20.7476 9.15417C20.7866 9.23417 20.8616 9.28917 20.9496 9.30017L28.2176 10.2532C28.8986 10.3422 29.4536 10.8022 29.6646 11.4542C29.8756 12.1052 29.6966 12.8022 29.1986 13.2712L23.8866 18.2812C23.8226 18.3422 23.7936 18.4272 23.8096 18.5122L25.1436 25.6672C25.2686 26.3392 25.0026 27.0062 24.4506 27.4082C24.1396 27.6352 23.7776 27.7502 23.4126 27.7502H23.4096Z"
    fill="currentColor"
  />
</svg>
