<svg width="25" height="24" viewBox="0 0 25 24" fill="none" xmlns="http://www.w3.org/2000/svg" data-fui-icon="true">
  <path
    d="M10.5352 1.49762C11.1253 0.270256 12.8766 0.270255 13.4668 1.49762L16.2002 7.1861L16.2168 7.21149C16.2365 7.23498 16.2652 7.25115 16.2979 7.25543L22.5859 8.07867C23.9387 8.25607 24.4895 9.92381 23.4912 10.8658L18.8936 15.2007C18.8632 15.2296 18.8502 15.2712 18.8574 15.3101L20.0117 21.5025C20.2627 22.8506 18.836 23.8704 17.6406 23.2261L12.0625 20.2183C12.0244 20.1979 11.9775 20.1979 11.9395 20.2183L6.36133 23.2261C5.16595 23.8703 3.7392 22.8507 3.99023 21.5025L5.14453 15.3101C5.15172 15.2711 5.13878 15.2296 5.1084 15.2007L0.510742 10.8658C-0.4875 9.9238 0.0632541 8.25605 1.41602 8.07867L7.7041 7.25543C7.74769 7.24971 7.7841 7.22285 7.80176 7.1861L10.5352 1.49762Z"
    fill="currentColor"
  />
</svg>
