<svg width="24" height="24" viewBox="0 0 24 24" fill="none" xmlns="http://www.w3.org/2000/svg" data-fui-icon="true">
  <path
    fill-rule="evenodd"
    clip-rule="evenodd"
    d="M22.4257 8.532C22.2447 7.973 21.7687 7.578 21.1857 7.502L15.7287 6.784L13.3597 1.854C13.1067 1.327 12.5847 1 11.9987 1C11.4127 1 10.8917 1.328 10.6377 1.854L8.26266 6.788L2.81366 7.502C2.22966 7.578 1.75366 7.973 1.57266 8.532C1.39166 9.09 1.54566 9.687 1.97266 10.09L5.95866 13.85L4.95766 19.217C4.85066 19.792 5.07866 20.363 5.55066 20.708C5.81666 20.902 6.12666 21 6.43966 21C6.68466 21 6.93166 20.939 7.15866 20.816L12.0047 18.21L16.8397 20.816C17.3587 21.096 17.9747 21.054 18.4477 20.707C18.9207 20.362 19.1477 19.79 19.0407 19.216L18.0417 13.845L22.0247 10.089C22.4527 9.686 22.6057 9.089 22.4247 8.531L22.4257 8.532ZM17.0127 12.754C16.6387 13.107 16.4707 13.619 16.5657 14.124L17.5517 19.496L12.7167 16.89C12.4917 16.769 12.2457 16.708 11.9997 16.708V2.499L12.0087 2.503L14.3767 7.433C14.5987 7.894 15.0337 8.209 15.5417 8.275L20.9967 8.997L17.0127 12.754Z"
    fill="currentColor"
  />
</svg>
