<svg width="13" height="12" viewBox="0 0 13 12" fill="none" xmlns="http://www.w3.org/2000/svg" data-fui-icon="true">
  <path
    d="M5.04395 0.762787C5.52924 0.0442121 6.65169 0.0957285 7.0459 0.917084L8.24023 3.40732L10.9922 3.76865C11.9566 3.89514 12.3493 5.08578 11.6377 5.7579L9.62793 7.65439L10.1328 10.3643C10.3119 11.3263 9.29459 12.0548 8.44238 11.5948L6.00098 10.2765L3.55957 11.5948C2.70742 12.0548 1.69002 11.3264 1.86914 10.3643L2.37305 7.65439L0.364258 5.7579C-0.347547 5.08578 0.0452775 3.89509 1.00977 3.76865L3.76074 3.40732L4.95605 0.917084L5.04395 0.762787ZM5.0332 4.22372C4.86357 4.57728 4.52633 4.82032 4.13867 4.87119L1.91797 5.1622L3.53906 6.69247C3.82442 6.96197 3.95464 7.3584 3.88281 7.74521L3.47461 9.93466L5.4502 8.86923C5.75093 8.70705 6.10576 8.68697 6.41992 8.80869L6.55176 8.86923L8.52637 9.93466L8.11914 7.74521C8.04729 7.35837 8.17761 6.96194 8.46289 6.69247L10.083 5.1622L7.86328 4.87119C7.47557 4.82035 7.13844 4.57796 6.96875 4.2247V4.22372L6.00098 2.20615L5.0332 4.22372Z"
    fill="currentColor"
  />
</svg>
