<svg width="21" height="20" viewBox="0 0 21 20" fill="none" xmlns="http://www.w3.org/2000/svg" data-fui-icon="true">
  <path
    d="M8.67676 1.37155C9.19452 0.30278 10.6944 0.269829 11.2734 1.27194L11.3271 1.37155L13.5654 5.99557L18.7217 6.66452C19.9373 6.82301 20.4514 8.32396 19.5381 9.17819L15.7744 12.6977L16.7197 17.7251C16.9499 18.953 15.646 19.8503 14.5781 19.2798L10.002 16.8325L5.42578 19.2798C4.3578 19.8508 3.05381 18.9534 3.28418 17.7251L4.22852 12.6977L0.46582 9.17819C-0.447626 8.32383 0.0662581 6.82265 1.28223 6.66452L6.4375 5.99557L8.67676 1.37155ZM7.78027 6.6655C7.56366 7.11267 7.13459 7.41726 6.64551 7.48093L1.55371 8.14206L5.26953 11.6176L5.27051 11.6186C5.63299 11.9583 5.80019 12.4598 5.70801 12.9507L4.77148 17.9282L9.30566 15.5044L9.47266 15.4282C9.86988 15.2759 10.3179 15.3011 10.6982 15.5044L15.2314 17.9282L14.2959 12.9507C14.2036 12.4594 14.3714 11.9574 14.7344 11.6176L18.4492 8.14206L13.3584 7.48093C12.8692 7.41738 12.4404 7.11236 12.2236 6.6655L10.002 2.07761L7.78027 6.6655Z"
    fill="currentColor"
  />
</svg>
