<svg
  width="12"
  height="12"
  viewBox="0 0 12 12"
  fill="none"
  xmlns="http://www.w3.org/2000/svg"
  data-fui-icon="true"
>
  <path
    d="M11.5701 5.15048C11.4341 4.73148 11.0781 4.43549 10.6411 4.37949L8.11608 4.04749L7.01809 1.76547C6.82909 1.36947 6.43907 1.12347 5.99907 1.12347C5.55907 1.12347 5.17108 1.36849 4.98108 1.76349L3.88209 4.04749L1.35908 4.37848C0.921075 4.43548 0.564075 4.73148 0.428075 5.14948C0.293075 5.56748 0.407078 6.0145 0.728078 6.3165L2.57209 8.05447L2.10907 10.5395C2.03007 10.9695 2.20008 11.3955 2.55208 11.6535C2.90708 11.9125 3.36808 11.9445 3.75608 11.7365L5.99808 10.5285L8.24209 11.7375C8.41109 11.8285 8.59507 11.8735 8.77707 11.8735C9.01107 11.8735 9.24508 11.7995 9.44408 11.6535C9.79708 11.3955 9.96607 10.9685 9.88707 10.5375L9.42408 8.05447L11.2671 6.3165C11.5881 6.0145 11.7031 5.56748 11.5681 5.14948L11.5701 5.15048Z"
    fill="currentColor"
  />
</svg>
