<svg width="20" height="20" viewBox="0 0 20 20" fill="none" xmlns="http://www.w3.org/2000/svg" data-fui-icon="true">
  <path
    fill-rule="evenodd"
    clip-rule="evenodd"
    d="M18.8071 7.07198C18.6411 6.55898 18.2051 6.19698 17.6711 6.12798L13.1921 5.54098L11.2471 1.48998C11.0141 1.00798 10.5361 0.707977 10.0001 0.707977C9.46408 0.707977 8.98608 1.00698 8.75308 1.48998L6.80708 5.54198L2.32908 6.12798C1.79408 6.19798 1.35808 6.55898 1.19208 7.07198C1.02708 7.58398 1.16708 8.13098 1.55808 8.49898L4.83008 11.585L4.00908 15.991C3.91108 16.518 4.11908 17.042 4.55308 17.358C4.79608 17.535 5.08008 17.625 5.36608 17.625C5.59108 17.625 5.81608 17.569 6.02408 17.457L9.99908 15.315L13.9731 17.457C14.4481 17.713 15.0111 17.675 15.4461 17.358C15.8801 17.042 16.0881 16.518 15.9901 15.99L15.1691 11.584L18.4411 8.49898C18.8321 8.12998 18.9721 7.58298 18.8071 7.07198ZM14.0901 10.539C13.7481 10.863 13.5951 11.332 13.6811 11.794L14.4691 16.021L10.6561 13.966C10.4511 13.855 10.2251 13.8 10.0001 13.8V2.35998L11.8691 6.25198C12.0721 6.67298 12.4711 6.95998 12.9351 7.02198L17.2261 7.58398L14.0901 10.54V10.539Z"
    fill="currentColor"
  />
</svg>
