<svg width="32" height="32" viewBox="0 0 32 32" fill="none" xmlns="http://www.w3.org/2000/svg" data-fui-icon="true">
  <path
    fill-rule="evenodd"
    clip-rule="evenodd"
    d="M14.3235 2.7834C14.9984 1.37984 17.0021 1.3798 17.677 2.7834V2.78437L21.1389 9.98945L21.1867 10.0637C21.2435 10.1313 21.325 10.1766 21.4162 10.1887L29.3811 11.2316C30.9291 11.4344 31.5585 13.3415 30.4172 14.4182L24.594 19.9084C24.5058 19.9915 24.4669 20.1121 24.4885 20.2287L25.9514 28.0725C26.2386 29.613 24.6068 30.7807 23.2385 30.0432L16.1721 26.2346V26.2336C16.0648 26.1762 15.9346 26.1759 15.8274 26.2336L15.8283 26.2346L8.76194 30.0432C7.39368 30.7807 5.76182 29.6132 6.04905 28.0725L7.51194 20.2287C7.52816 20.1411 7.51032 20.0512 7.46311 19.9768L7.40647 19.9084L1.58323 14.4182C0.441887 13.3415 1.07132 11.4343 2.61936 11.2316L10.5842 10.1887C10.7059 10.1726 10.8098 10.097 10.8616 9.98945L14.3235 2.7834ZM16.3254 3.43379C16.1955 3.16335 15.805 3.1634 15.675 3.43379L12.2131 10.6389C11.9409 11.2052 11.4007 11.5945 10.7785 11.676L2.8137 12.7189C2.50979 12.7588 2.39795 13.125 2.61253 13.3273L8.43577 18.8166V18.8176C8.89374 19.2497 9.10209 19.8844 8.98655 20.5041L7.52366 28.3478C7.47061 28.6337 7.77748 28.8698 8.05003 28.7228L15.1164 24.9143L15.3283 24.8166C15.7604 24.6496 16.24 24.6496 16.6721 24.8166L16.884 24.9143L23.9504 28.7228L24.0022 28.7463C24.2599 28.8399 24.5265 28.6157 24.4768 28.3478L23.0139 20.5041C22.8983 19.8843 23.1067 19.2497 23.5647 18.8176V18.8166L29.3879 13.3273L29.4241 13.2873C29.5875 13.0803 29.4716 12.7564 29.1867 12.7189L21.2219 11.676C20.6774 11.6047 20.1959 11.2978 19.9016 10.843L19.7873 10.6389L16.3254 3.43379Z"
    fill="currentColor"
  />
</svg>
