<svg width="21" height="20" viewBox="0 0 21 20" fill="none" xmlns="http://www.w3.org/2000/svg" data-fui-icon="true">
  <path
    fill-rule="evenodd"
    clip-rule="evenodd"
    d="M8.67661 1.37162C9.19438 0.302844 10.6943 0.269893 11.2733 1.27201L11.327 1.37162L13.5653 5.99564L18.7215 6.66458C19.9372 6.82307 20.4512 8.32402 19.5379 9.17826L15.7743 12.6978L16.7196 17.7251C16.9497 18.9531 15.6459 19.8504 14.578 19.2798L10.0018 16.8326L5.42564 19.2798C4.35765 19.8509 3.05366 18.9535 3.28404 17.7251L4.22837 12.6978L0.465676 9.17826C-0.44777 8.3239 0.0661139 6.82271 1.28208 6.66458L6.43736 5.99564L8.67661 1.37162ZM7.78013 6.66556C7.56351 7.11274 7.13445 7.41732 6.64536 7.48099L1.55357 8.14212L5.26939 11.6177L5.27036 11.6187C5.63284 11.9584 5.80004 12.4599 5.70786 12.9507L4.77134 17.9283L9.30552 15.5044L9.47251 15.4283C9.86974 15.2759 10.3178 15.3012 10.6981 15.5044L15.2313 17.9283L14.2958 12.9507C14.2035 12.4595 14.3712 11.9574 14.7342 11.6177L18.4491 8.14212L13.3583 7.48099C12.8691 7.41744 12.4403 7.11242 12.2235 6.66556L10.0018 2.07767L7.78013 6.66556Z"
    fill="currentColor"
  />
</svg>
