<svg width="13" height="12" viewBox="0 0 13 12" fill="none" xmlns="http://www.w3.org/2000/svg" data-fui-icon="true">
  <path
    d="M5.04395 0.762817C5.52924 0.0442426 6.65169 0.095759 7.0459 0.917114L8.24023 3.40735L10.9922 3.76868C11.9566 3.89517 12.3493 5.08582 11.6377 5.75793L9.62793 7.65442L10.1328 10.3644C10.3119 11.3264 9.29459 12.0549 8.44238 11.5948L6.00098 10.2765L3.55957 11.5948C2.70742 12.0548 1.69002 11.3265 1.86914 10.3644L2.37305 7.65442L0.364258 5.75793C-0.347547 5.08581 0.0452775 3.89512 1.00977 3.76868L3.76074 3.40735L4.95605 0.917114L5.04395 0.762817ZM5.0332 4.22375C4.86357 4.57731 4.52633 4.82035 4.13867 4.87122L1.91797 5.16223L3.53906 6.6925C3.82442 6.962 3.95464 7.35843 3.88281 7.74524L3.47461 9.93469L5.4502 8.86926C5.75093 8.70708 6.10576 8.687 6.41992 8.80872L6.55176 8.86926L8.52637 9.93469L8.11914 7.74524C8.04729 7.3584 8.17761 6.96197 8.46289 6.6925L10.083 5.16223L7.86328 4.87122C7.47557 4.82038 7.13844 4.57799 6.96875 4.22473V4.22375L6.00098 2.20618L5.0332 4.22375Z"
    fill="currentColor"
  />
</svg>
