<svg width="20" height="20" viewBox="0 0 20 20" fill="none" xmlns="http://www.w3.org/2000/svg" data-fui-icon="true">
  <path
    fill-rule="evenodd"
    clip-rule="evenodd"
    d="M18.8071 7.07195C18.6411 6.55895 18.2051 6.19694 17.6711 6.12794L13.1921 5.54095L11.2471 1.48995C11.0141 1.00795 10.5361 0.707947 10.0001 0.707947C9.46408 0.707947 8.98608 1.00695 8.75308 1.48995L6.80708 5.54195L2.32908 6.12794C1.79408 6.19795 1.35808 6.55895 1.19208 7.07195C1.02708 7.58395 1.16708 8.13095 1.55808 8.49895L4.83008 11.5849L4.00908 15.9909C3.91108 16.5179 4.11908 17.0419 4.55308 17.3579C4.79608 17.5349 5.08008 17.6249 5.36608 17.6249C5.59108 17.6249 5.81608 17.5689 6.02408 17.4569L9.99908 15.3149L13.9731 17.4569C14.4481 17.7129 15.0111 17.6749 15.4461 17.3579C15.8801 17.0419 16.0881 16.5179 15.9901 15.9899L15.1691 11.5839L18.4411 8.49895C18.8321 8.12995 18.9721 7.58295 18.8071 7.07195ZM14.0901 10.5389C13.7481 10.8629 13.5951 11.3319 13.6811 11.7939L14.4691 16.0209L10.6561 13.9659C10.4511 13.8549 10.2251 13.7999 10.0001 13.7999V2.35995L11.8691 6.25195C12.0721 6.67295 12.4711 6.95995 12.9351 7.02195L17.2261 7.58395L14.0901 10.5399V10.5389Z"
    fill="currentColor"
  />
</svg>
