<svg width="16" height="16" viewBox="0 0 16 16" fill="none" xmlns="http://www.w3.org/2000/svg" data-fui-icon="true">
  <path
    d="M6.23486 1.58801C6.93351 0.183195 8.91423 0.139035 9.69287 1.45618L9.76416 1.58801L10.9722 4.01868L13.7808 4.37512C15.3512 4.57377 16.1603 6.56131 14.8628 7.74329L12.8481 9.57727L13.3521 12.1837C13.687 13.9211 11.8401 14.971 10.5044 14.2755L7.99951 12.9708L5.49463 14.2755C4.15914 14.9704 2.31218 13.921 2.64697 12.1837L3.1499 9.57727L1.13623 7.74329C-0.160904 6.56139 0.648227 4.5741 2.21826 4.37512L5.02588 4.01868L6.23486 1.58801ZM8.42139 2.25598C8.25193 1.91541 7.74704 1.91535 7.57764 2.25598L6.12061 5.18665L6.05713 5.28137C5.98288 5.36655 5.87659 5.42376 5.75928 5.4386H5.76025L2.40674 5.86243C2.01722 5.91204 1.86078 6.37481 2.146 6.63489L4.59717 8.86731L4.59814 8.86829C4.71299 8.97309 4.7647 9.12678 4.73584 9.27649L4.12061 12.4679C4.04931 12.839 4.4561 13.1235 4.80127 12.9445H4.80225L7.77686 11.3956C7.91552 11.3234 8.08346 11.3235 8.22217 11.3956L11.1968 12.9445C11.5205 13.1131 11.9 12.873 11.8872 12.5363L11.8784 12.4679L11.7612 11.8605L11.2632 9.27649C11.2343 9.12691 11.2863 8.97308 11.4009 8.86829V8.86731L13.853 6.63489C14.1386 6.37474 13.9823 5.91175 13.5923 5.86243L10.2388 5.4386C10.0824 5.41857 9.94656 5.32358 9.87842 5.18665L8.42139 2.25598Z"
    fill="currentColor"
  />
</svg>
