<svg width="12" height="12" viewBox="0 0 12 12" fill="none" xmlns="http://www.w3.org/2000/svg" data-fui-icon="true">
  <path
    d="M1.25 1C1.66421 1 2 1.33579 2 1.75V8.9375C2 9.24816 2.25184 9.5 2.5625 9.5H11.25C11.6642 9.5 12 9.83579 12 10.25C12 10.6642 11.6642 11 11.25 11H2.5625C1.42341 11 0.5 10.0766 0.5 8.9375V1.75C0.5 1.33579 0.835786 1 1.25 1ZM10.25 2C10.6642 2 11 2.33579 11 2.75V4.75C11 5.05335 10.8174 5.32727 10.5371 5.44336C10.2569 5.5594 9.93421 5.49475 9.71973 5.28027L9.25 4.81055L7.59277 6.46777C7.29988 6.76067 6.82512 6.76067 6.53223 6.46777L5.375 5.31055L3.96777 6.71777C3.67488 7.01067 3.20012 7.01067 2.90723 6.71777C2.61433 6.42488 2.61433 5.95012 2.90723 5.65723L4.84473 3.71973L4.90137 3.66797C5.19595 3.42766 5.63067 3.44512 5.90527 3.71973L7.0625 4.87695L8.18945 3.75L7.71973 3.28027C7.50525 3.06579 7.4406 2.74313 7.55664 2.46289C7.67273 2.18263 7.94665 2 8.25 2H10.25Z"
    fill="currentColor"
  />
</svg>
