<svg width="12" height="12" viewBox="0 0 12 12" fill="none" xmlns="http://www.w3.org/2000/svg" data-fui-icon="true">
  <path
    d="M1.25 0.25C1.66421 0.25 2 0.585786 2 1V10C2.00003 10.138 2.11195 10.25 2.25 10.25H11C11.4142 10.25 11.75 10.5858 11.75 11C11.75 11.4142 11.4142 11.75 11 11.75H2.25C1.28352 11.75 0.500029 10.9665 0.5 10V1C0.5 0.585786 0.835786 0.25 1.25 0.25ZM10.8125 2.75C11.2267 2.75 11.5625 3.08579 11.5625 3.5V5.5C11.5625 5.80335 11.3799 6.07727 11.0996 6.19336C10.8194 6.3094 10.4967 6.24475 10.2822 6.03027L9.8125 5.56055L8.15527 7.21777C7.86238 7.51067 7.38762 7.51067 7.09473 7.21777L5.9375 6.06055L4.53027 7.46777C4.23738 7.76067 3.76262 7.76067 3.46973 7.46777C3.17683 7.17488 3.17683 6.70012 3.46973 6.40723L5.40723 4.46973L5.46387 4.41797C5.75845 4.17766 6.19317 4.19512 6.46777 4.46973L7.625 5.62695L8.75195 4.5L8.28223 4.03027C8.06775 3.81579 8.0031 3.49313 8.11914 3.21289C8.23523 2.93263 8.50915 2.75 8.8125 2.75H10.8125Z"
    fill="currentColor"
  />
</svg>
