<svg width="16" height="16" viewBox="0 0 16 16" fill="none" xmlns="http://www.w3.org/2000/svg" data-fui-icon="true">
  <path
    d="M1.25 1C1.66421 1 2 1.33579 2 1.75V12.75C2 13.1642 2.33579 13.5 2.75 13.5H14.75C15.1642 13.5 15.5 13.8358 15.5 14.25C15.5 14.6642 15.1642 15 14.75 15H2.75C1.50736 15 0.500001 13.9926 0.5 12.75V1.75C0.5 1.33579 0.835786 1 1.25 1ZM14.25 3C14.6642 3 15 3.33579 15 3.75V6.25C15 6.66421 14.6642 7 14.25 7C13.8358 7 13.5 6.66421 13.5 6.25V5.56055L10.5303 8.53027C10.2374 8.82317 9.76262 8.82317 9.46973 8.53027L7.75 6.81055L5.03027 9.53027C4.73738 9.82317 4.26262 9.82317 3.96973 9.53027C3.67683 9.23738 3.67683 8.76262 3.96973 8.46973L7.21973 5.21973L7.27637 5.16797C7.57095 4.92766 8.00567 4.94512 8.28027 5.21973L10 6.93945L12.4395 4.5H11.75C11.3358 4.5 11 4.16421 11 3.75C11 3.33579 11.3358 3 11.75 3H14.25Z"
    fill="currentColor"
  />
</svg>
