<svg width="16" height="16" viewBox="0 0 16 16" fill="none" xmlns="http://www.w3.org/2000/svg" data-fui-icon="true">
  <path
    d="M1.25 1.25C1.66421 1.25 2 1.58579 2 2V12C2 12.5523 2.44772 13 3 13H14C14.4142 13 14.75 13.3358 14.75 13.75C14.75 14.1642 14.4142 14.5 14 14.5H3C1.61929 14.5 0.5 13.3807 0.5 12V2C0.5 1.58579 0.835786 1.25 1.25 1.25ZM13.25 4C13.6642 4 14 4.33579 14 4.75V7.25C14 7.66421 13.6642 8 13.25 8C12.8358 8 12.5 7.66421 12.5 7.25V6.56055L9.53027 9.53027C9.23738 9.82317 8.76262 9.82317 8.46973 9.53027L6.75 7.81055L4.03027 10.5303C3.73738 10.8232 3.26262 10.8232 2.96973 10.5303C2.67683 10.2374 2.67683 9.76262 2.96973 9.46973L6.21973 6.21973L6.27637 6.16797C6.57095 5.92766 7.00567 5.94512 7.28027 6.21973L9 7.93945L11.4395 5.5H10.75C10.3358 5.5 10 5.16421 10 4.75C10 4.33579 10.3358 4 10.75 4H13.25Z"
    fill="currentColor"
  />
</svg>
