<svg width="16" height="16" viewBox="0 0 16 16" fill="none" xmlns="http://www.w3.org/2000/svg" data-fui-icon="true">
  <path
    d="M2 1.00031C2.55228 1.00031 3 1.44802 3 2.00031V12.2503C3.00016 12.6643 3.33595 13.0002 3.75 13.0003H14C14.5523 13.0003 15 13.448 15 14.0003C14.9998 14.5525 14.5522 15.0003 14 15.0003H3.75C2.23138 15.0002 1.00016 13.7689 1 12.2503V2.00031C1 1.44806 1.44777 1.00038 2 1.00031ZM14 3.00031C14.5523 3.00031 15 3.44802 15 4.00031V6.50031C14.9998 7.05245 14.5522 7.50031 14 7.50031C13.4479 7.50024 13.0002 7.05241 13 6.50031V6.41437L10.707 8.70734C10.3165 9.09761 9.68343 9.0977 9.29297 8.70734L8 7.41437L6.20703 9.20734C5.81652 9.59761 5.18343 9.5977 4.79297 9.20734C4.40252 8.81688 4.40266 8.18382 4.79297 7.79327L7.29297 5.29327L7.36914 5.22491C7.76191 4.90456 8.34092 4.92716 8.70703 5.29327L10 6.58624L11.5859 5.00031H11.5C10.9479 5.00024 10.5002 4.55241 10.5 4.00031C10.5 3.44806 10.9478 3.00038 11.5 3.00031H14Z"
    fill="currentColor"
  />
</svg>
