<svg width="16" height="16" viewBox="0 0 16 16" fill="none" xmlns="http://www.w3.org/2000/svg" data-fui-icon="true">
  <path
    d="M10.018 0.078078C12.3305 -0.333546 14.5842 1.13723 15.1186 3.45174L15.4514 4.89331C16.5546 9.6719 13.5752 14.4399 8.79665 15.5431L7.35507 15.876L7.1311 15.9216C4.89311 16.3204 2.70992 14.9566 2.0869 12.7705L2.02979 12.5492L0.698098 6.78097C0.163694 4.46621 1.54519 2.15603 3.8045 1.51258L4.02584 1.45547L9.79404 0.123774L10.018 0.078078ZM4.35887 2.89799C2.76601 3.26573 1.77288 4.85507 2.14062 6.44793L3.47232 12.2161C3.84021 13.8088 5.42951 14.8021 7.02226 14.4344L8.46383 14.1016C8.78978 14.0263 9.10491 13.9285 9.40972 13.814L8.76035 11.0013C8.33075 9.13965 9.49177 7.28174 11.3533 6.8517L14.166 6.20233C14.1353 5.87816 14.0851 5.55207 14.0098 5.22612L13.677 3.78455C13.3093 2.1918 11.7198 1.19878 10.1271 1.5663L4.35887 2.89799ZM11.6863 8.29422C10.6212 8.54039 9.95715 9.60305 10.2029 10.6683L10.7721 13.1337C12.653 11.9366 13.9014 9.94023 14.1527 7.72482L11.6863 8.29422Z"
    fill="currentColor"
  />
</svg>
