<svg width="32" height="32" viewBox="0 0 32 32" fill="none" xmlns="http://www.w3.org/2000/svg" data-fui-icon="true">
  <g clip-path="url(#clip0_6194_112)">
    <path
      d="M18.6682 1.24047C23.3498 0.159782 28.0217 3.07892 29.1025 7.76056L29.8213 10.874C31.8089 19.4839 26.4404 28.0752 17.8306 30.0631L14.7172 30.7819L14.278 30.8723C9.74679 31.6791 5.33002 28.797 4.28285 24.2618L1.92196 14.0357C0.874904 9.50038 3.58156 4.97484 8.00794 3.7136L8.44205 3.60135L18.6682 1.24047ZM8.77948 5.06291C5.02616 5.92943 2.64192 9.58448 3.30955 13.3345L3.38352 13.6983L5.7444 23.9244C6.63902 27.7988 10.5053 30.2148 14.3798 29.3203L17.4932 28.6016C17.6735 28.5599 17.8517 28.5128 18.0289 28.4648L16.4101 21.453C15.5715 17.8206 17.8363 14.1962 21.4686 13.3576L28.47 11.7412C28.4361 11.5648 28.4005 11.3879 28.3597 11.2114L27.641 8.09798C26.7744 4.34468 23.1194 1.96045 19.3694 2.62806L19.0056 2.70202L8.77948 5.06291ZM21.8061 14.8191C18.9809 15.4714 17.2194 18.2904 17.8716 21.1156L19.4603 27.9971C25.463 25.6847 29.2375 19.6417 28.679 13.2324L21.8061 14.8191Z"
      fill="currentColor"
    />
  </g>
  <defs>
    <clipPath id="clip0_6194_112"><path fill="currentColor" d="M0 0H32V32H0z" /></clipPath>
  </defs>
</svg>
