<svg width="24" height="24" viewBox="0 0 24 24" fill="none" xmlns="http://www.w3.org/2000/svg" data-fui-icon="true">
  <path
    d="M14.4061 0.292013C17.9575 -0.527676 21.501 1.68658 22.3211 5.23789L22.9541 7.9795C23.027 8.2952 22.8301 8.61021 22.5144 8.6831L16.3958 10.0957L16.1395 10.1619C13.5277 10.906 11.9306 13.5767 12.5485 16.2527L13.961 22.3713C14.0339 22.6871 13.8371 23.0021 13.5214 23.0749L10.7798 23.7079C7.22837 24.5276 3.68482 22.3133 2.86472 18.762L0.88498 10.1868C0.0652909 6.63541 2.27955 3.09186 5.83085 2.27176L14.4061 0.292013ZM22.5573 10.2126C22.9321 10.1261 23.2876 10.4181 23.2559 10.8015C22.868 15.4898 20.2338 19.7052 16.19 22.1091C15.8594 22.3057 15.4411 22.1142 15.3546 21.7394L14.01 15.9153C13.5586 13.9601 14.778 12.0086 16.7332 11.5572L22.5573 10.2126Z"
    fill="currentColor"
  />
</svg>
