<svg
  width="12"
  height="12"
  viewBox="0 0 12 12"
  fill="none"
  xmlns="http://www.w3.org/2000/svg"
  data-fui-icon="true"
>
  <path
    d="M11.25 5.25V3.25C11.25 2.42157 10.5784 1.75 9.75 1.75H2.25C1.42157 1.75 0.75 2.42157 0.75 3.25V8.75C0.75 9.57843 1.42157 10.25 2.25 10.25H4"
    stroke="currentColor"
    stroke-width="1.5"
    stroke-linecap="round"
    stroke-linejoin="round"
  />
  <path
    fill-rule="evenodd"
    clip-rule="evenodd"
    d="M7.62215 5.64127C7.81003 5.52251 8.02774 5.45947 8.25001 5.45947C8.47227 5.45947 8.68998 5.52251 8.87786 5.64127L10.5218 6.68039C10.8321 6.87655 11.0203 7.21807 11.0203 7.58521V9.41481C11.0203 9.78195 10.8321 10.1235 10.5218 10.3196L8.87786 11.3588C8.68998 11.4775 8.47227 11.5406 8.25001 11.5406C8.02774 11.5406 7.81003 11.4775 7.62215 11.3588L5.97823 10.3196C5.66789 10.1235 5.47974 9.78195 5.47974 9.41482V7.58521C5.47974 7.21807 5.66789 6.87655 5.97823 6.68039L7.62215 5.64127Z"
    fill="currentColor"
  />
  <circle cx="2.875" cy="3.875" r=".625" fill="currentColor" />
  <circle cx="4.625" cy="3.875" r=".625" fill="currentColor" />
  <circle cx="6.375" cy="3.875" r=".625" fill="currentColor" />
</svg>
