<svg width="12" height="12" viewBox="0 0 12 12" fill="none" xmlns="http://www.w3.org/2000/svg" data-fui-icon="true">
  <path
    d="M8.25 5.45996C8.47218 5.46001 8.69012 5.52289 8.87793 5.6416L10.5215 6.68066C10.8318 6.87683 11.0205 7.21882 11.0205 7.58594V9.41504C11.0203 9.78199 10.8317 10.1242 10.5215 10.3203L8.87793 11.3594C8.69021 11.4779 8.47203 11.541 8.25 11.541C8.0279 11.541 7.80983 11.478 7.62207 11.3594L5.97754 10.3203C5.66748 10.1242 5.47966 9.7819 5.47949 9.41504V7.58594C5.47949 7.21904 5.66757 6.87689 5.97754 6.68066L7.62207 5.6416C7.80984 5.52296 8.02789 5.46001 8.25 5.45996ZM9.75 1C10.9926 1 12 2.00736 12 3.25V5.25C12 5.66421 11.6642 6 11.25 6C10.8358 6 10.5 5.66421 10.5 5.25V3.25C10.5 2.83579 10.1642 2.5 9.75 2.5H2.25C1.83579 2.5 1.5 2.83579 1.5 3.25V8.75C1.5 9.16421 1.83579 9.5 2.25 9.5H4C4.41421 9.5 4.75 9.83579 4.75 10.25C4.75 10.6642 4.41421 11 4 11H2.25C1.00736 11 0 9.99264 0 8.75V3.25C0 2.00736 1.00736 1 2.25 1H9.75ZM6.97949 7.82227V9.17773L8.24902 9.98145L9.52051 9.17773V7.82324L8.24902 7.01953L6.97949 7.82227ZM2.875 3.25C3.22018 3.25 3.5 3.52982 3.5 3.875C3.5 4.22018 3.22018 4.5 2.875 4.5C2.52982 4.5 2.25 4.22018 2.25 3.875C2.25 3.52982 2.52982 3.25 2.875 3.25ZM4.625 3.25C4.97018 3.25 5.25 3.52982 5.25 3.875C5.25 4.22018 4.97018 4.5 4.625 4.5C4.27982 4.5 4 4.22018 4 3.875C4 3.52982 4.27982 3.25 4.625 3.25ZM6.375 3.25C6.72018 3.25 7 3.52982 7 3.875C7 4.22018 6.72018 4.5 6.375 4.5C6.02982 4.5 5.75 4.22018 5.75 3.875C5.75 3.52982 6.02982 3.25 6.375 3.25Z"
    fill="currentColor"
  />
</svg>
