<svg width="32" height="32" viewBox="0 0 32 32" fill="none" xmlns="http://www.w3.org/2000/svg" data-fui-icon="true">
  <path
    fill-rule="evenodd"
    clip-rule="evenodd"
    d="M14.7105 21.0874C15.5174 21.5161 16.4856 21.5163 17.2925 21.0874L25.9947 16.4585V21.6333C25.9946 22.9611 25.5695 24.3971 24.3882 25.3169C22.8655 26.5022 20.1152 27.9994 15.9742 27.9995C11.8253 27.9995 9.08481 26.4967 7.57279 25.3091C6.40461 24.3914 5.98782 22.9663 5.98782 21.6509V16.4477L14.7105 21.0874ZM15.4136 2.94577C15.7805 2.75063 16.2205 2.75069 16.5874 2.94577L30.3228 10.2505C30.7678 10.4871 30.9879 10.9256 30.9849 11.3628C30.9947 11.4111 31.0005 11.461 31.0005 11.5122V19.8432C31.0003 20.2572 30.6645 20.5931 30.2505 20.5932C29.8364 20.5932 29.5007 20.2573 29.5005 19.8432V12.894L16.5874 19.7622C16.2205 19.9572 15.7805 19.9573 15.4136 19.7622L1.67825 12.4575C0.794736 11.9872 0.794762 10.7208 1.67825 10.2505L15.4136 2.94577Z"
    fill="currentColor"
  />
</svg>
