<svg width="20" height="20" viewBox="0 0 20 20" fill="none" xmlns="http://www.w3.org/2000/svg" data-fui-icon="true">
  <path
    fill-rule="evenodd"
    clip-rule="evenodd"
    d="M9.55454 1.58204C9.84127 1.4726 10.1584 1.47271 10.4452 1.58204L10.5858 1.64552L19.3368 6.29005C19.7975 6.53476 20.016 6.99589 19.9969 7.44825C19.9981 7.46506 19.9999 7.48194 19.9999 7.49903V13.0137C19.9999 13.4279 19.6641 13.7637 19.2499 13.7637C18.8356 13.7637 18.4999 13.4279 18.4999 13.0137V8.94239L15.9999 10.2695V14.8067C15.9998 15.2836 15.9117 15.887 15.5047 16.3887C14.8025 17.2541 13.2089 18.499 9.99888 18.499C6.78822 18.4989 5.1957 17.2533 4.494 16.3877C4.08753 15.8862 3.99986 15.2832 3.99986 14.8067V10.2695L0.663917 8.49903C-0.221309 8.02914 -0.221302 6.75996 0.663917 6.29005L9.41392 1.64552L9.55454 1.58204ZM10.5858 13.1436C10.2194 13.3379 9.78026 13.338 9.41392 13.1436L5.49986 11.0654V14.8067C5.49986 15.1273 5.56357 15.3255 5.65903 15.4434C6.07177 15.9525 7.23388 16.9989 9.99888 16.999C12.7634 16.999 13.9264 15.9528 14.3397 15.4434C14.4353 15.3254 14.4998 15.1273 14.4999 14.8067V11.0654L10.5858 13.1436ZM1.78208 7.39454L9.99986 11.7559L18.2167 7.39454L9.99986 3.03224L1.78208 7.39454Z"
    fill="currentColor"
  />
</svg>
