<svg width="16" height="16" viewBox="0 0 16 16" fill="none" xmlns="http://www.w3.org/2000/svg" data-fui-icon="true">
  <path
    fill-rule="evenodd"
    clip-rule="evenodd"
    d="M7.55353 1.08216C7.84046 0.972633 8.15821 0.972593 8.44513 1.08216L8.58576 1.14564L15.3348 4.72865C15.7857 4.96803 16.0054 5.4149 15.9969 5.85755C15.9981 5.87487 15.9998 5.89266 15.9998 5.91029V10.3009C15.9996 10.7149 15.6639 11.0509 15.2498 11.0509C14.8357 11.0509 14.5 10.7149 14.4998 10.3009V7.37904L12.9998 8.17591V11.9142C12.9998 12.2016 12.9454 12.5608 12.7274 12.8908C12.2437 13.6222 10.9173 15 7.99884 15.0001C5.07916 15.0001 3.75388 13.6214 3.2713 12.8898C3.05403 12.5603 2.99987 12.2018 2.99982 11.9152V8.17591L0.663881 6.93665C-0.221263 6.46671 -0.221324 5.19853 0.663881 4.72865L7.4129 1.14564L7.55353 1.08216ZM8.58576 10.5197C8.21926 10.7142 7.7794 10.7142 7.4129 10.5197L4.49982 8.97279V11.9152C4.49987 12.0216 4.52064 12.0593 4.52326 12.0636C4.76508 12.4302 5.64672 13.5001 7.99884 13.5001C10.3501 13.5 11.2335 12.431 11.4764 12.0636C11.4789 12.0595 11.4998 12.0217 11.4998 11.9142V8.97181L8.58576 10.5197ZM1.78302 5.83216L7.99884 9.13197L14.2147 5.83216L7.99884 2.53236L1.78302 5.83216Z"
    fill="currentColor"
  />
</svg>
