<svg width="16" height="16" viewBox="0 0 16 16" fill="none" xmlns="http://www.w3.org/2000/svg" data-fui-icon="true">
  <path
    d="M13 11.9146C12.9999 12.2018 12.9455 12.5614 12.7275 12.8911C12.2438 13.6227 10.9171 15.0004 7.99902 15.0005C5.07972 15.0005 3.75425 13.6219 3.27148 12.8901C3.05431 12.5609 3.00011 12.2021 3 11.9155V9.87451L6.70996 11.8442C7.51617 12.272 8.48291 12.2722 9.28906 11.8442L13 9.87451V11.9146ZM7.55371 1.08252C7.84063 0.973038 8.15842 0.972948 8.44531 1.08252L8.58594 1.146L15.335 4.729C15.7858 4.9685 16.0057 5.41518 15.9971 5.85791C15.9982 5.87503 16 5.89225 16 5.90967V10.3003C16 10.7144 15.664 11.0501 15.25 11.0503C14.8358 11.0503 14.5 10.7145 14.5 10.3003V7.37939L8.58594 10.52C8.21956 10.7145 7.77951 10.7144 7.41309 10.52L0.664062 6.93701C-0.221173 6.46711 -0.221173 5.1989 0.664062 4.729L7.41309 1.146L7.55371 1.08252Z"
    fill="currentColor"
  />
</svg>
