<svg width="20" height="20" viewBox="0 0 20 20" fill="none" xmlns="http://www.w3.org/2000/svg" data-fui-icon="true">
  <path
    fill-rule="evenodd"
    clip-rule="evenodd"
    d="M15.9999 14.8067C15.9998 15.2837 15.9117 15.887 15.5047 16.3887C14.8025 17.2542 13.2091 18.499 9.99888 18.499C6.78814 18.4989 5.19567 17.2533 4.494 16.3877C4.08759 15.8862 3.99986 15.2832 3.99986 14.8067V11.9668L8.71079 14.4678C9.51708 14.8958 10.4836 14.8957 11.2899 14.4678L15.9999 11.9668V14.8067ZM9.55454 1.58204C9.84127 1.4726 10.1584 1.47271 10.4452 1.58204L10.5858 1.64552L19.3368 6.29005C19.7975 6.53474 20.0159 6.99592 19.9969 7.44825C19.9981 7.46506 19.9999 7.48194 19.9999 7.49904V13.0137C19.9999 13.4279 19.6641 13.7637 19.2499 13.7637C18.8356 13.7637 18.4999 13.4279 18.4999 13.0137V8.94239L10.5858 13.1436C10.2194 13.3379 9.78027 13.338 9.41392 13.1436L0.663917 8.49904C-0.221309 8.02914 -0.221302 6.75996 0.663917 6.29005L9.41392 1.64552L9.55454 1.58204Z"
    fill="currentColor"
  />
</svg>
