<svg width="24" height="24" viewBox="0 0 24 24" fill="none" xmlns="http://www.w3.org/2000/svg" data-fui-icon="true">
  <g clip-path="url(#clip0_7197_1061)">
    <path
      d="M12.0049 20.5046C12.419 20.5046 12.7547 20.8406 12.7549 21.2546V23.2546C12.7549 23.6689 12.4191 24.0046 12.0049 24.0046C11.5907 24.0046 11.2549 23.6688 11.2549 23.2546V21.2546C11.2551 20.8406 11.5908 20.5047 12.0049 20.5046ZM4.93262 18.0183C5.22549 17.7258 5.70037 17.7257 5.99316 18.0183C6.28606 18.3112 6.28606 18.7869 5.99316 19.0798L4.5791 20.4939C4.28632 20.7867 3.81147 20.7865 3.51855 20.4939C3.22566 20.201 3.22566 19.7262 3.51855 19.4333L4.93262 18.0183ZM18.0137 18.0115C18.3065 17.7188 18.7813 17.7189 19.0742 18.0115L20.4883 19.4265C20.7812 19.7194 20.7812 20.1942 20.4883 20.4871C20.1954 20.7796 19.7205 20.7798 19.4277 20.4871L18.0137 19.072C17.7211 18.7791 17.7209 18.3043 18.0137 18.0115ZM12 4.99976C15.8659 4.99976 18.9999 8.13387 19 11.9998C19 15.8657 15.866 18.9998 12 18.9998C8.13401 18.9998 5 15.8657 5 11.9998C5.00013 8.13387 8.13408 4.99976 12 4.99976ZM2.75 11.2498C3.16414 11.2498 3.49987 11.5857 3.5 11.9998C3.5 12.414 3.16421 12.7498 2.75 12.7498H0.75C0.335787 12.7498 3.24944e-08 12.414 0 11.9998C0.000126513 11.5856 0.335864 11.2498 0.75 11.2498H2.75ZM23.25 11.2498C23.6641 11.2498 23.9999 11.5856 24 11.9998C24 12.414 23.6642 12.7498 23.25 12.7498H21.25C20.8358 12.7498 20.5 12.414 20.5 11.9998C20.5001 11.5856 20.8359 11.2498 21.25 11.2498H23.25ZM19.4277 3.52319C19.7206 3.23035 20.1954 3.23046 20.4883 3.52319C20.7812 3.81609 20.7812 4.29085 20.4883 4.58374L19.0742 5.9978C18.7813 6.29061 18.3065 6.29067 18.0137 5.9978C17.721 5.70493 17.7209 5.2301 18.0137 4.93726L19.4277 3.52319ZM3.51855 3.51636C3.81146 3.22356 4.28624 3.22349 4.5791 3.51636L5.99316 4.93042C6.28594 5.22329 6.28594 5.6981 5.99316 5.99097C5.7003 6.28383 5.22552 6.28377 4.93262 5.99097L3.51855 4.5769C3.22566 4.28401 3.22566 3.80925 3.51855 3.51636ZM12.0049 0.00463867C12.419 0.00463883 12.7547 0.340593 12.7549 0.754639V2.75464C12.7549 3.16885 12.4191 3.50464 12.0049 3.50464C11.5907 3.50458 11.2549 3.16881 11.2549 2.75464V0.754639C11.2551 0.340631 11.5908 0.00469939 12.0049 0.00463867Z"
      fill="currentColor"
    />
  </g>
  <defs>
    <clipPath id="clip0_7197_1061"><path fill="currentColor" d="M0 0H24V24H0z" /></clipPath>
  </defs>
</svg>
