<svg width="32" height="32" viewBox="0 0 32 32" fill="none" xmlns="http://www.w3.org/2000/svg" data-fui-icon="true">
  <path
    fill-rule="evenodd"
    clip-rule="evenodd"
    d="M16.0107 26.7451C16.4247 26.7453 16.7607 27.081 16.7607 27.4951V30.2499C16.7607 30.664 16.4248 30.9997 16.0107 30.9999C15.5965 30.9999 15.2607 30.6642 15.2607 30.2499V27.4951C15.2608 27.0809 15.5966 26.7451 16.0107 26.7451ZM7.35059 23.6015C7.64349 23.3087 8.11827 23.3086 8.41113 23.6015C8.70378 23.8944 8.70386 24.3692 8.41113 24.662L6.46289 26.6103C6.17006 26.903 5.69521 26.9029 5.40234 26.6103C5.1095 26.3174 5.1096 25.8426 5.40234 25.5497L7.35059 23.6015ZM23.6064 23.5947C23.8993 23.3018 24.3741 23.3019 24.667 23.5947L26.6152 25.5429C26.908 25.8358 26.9081 26.3106 26.6152 26.6035C26.3224 26.896 25.8475 26.8961 25.5547 26.6035L23.6064 24.6552C23.3137 24.3624 23.3139 23.8875 23.6064 23.5947ZM16.001 6.99994C20.9713 7.0002 25.0009 11.0296 25.001 15.9999C25.001 20.9703 20.9713 24.9997 16.001 24.9999C11.0304 24.9999 7.00098 20.9705 7.00098 15.9999C7.001 11.0294 11.0304 6.99994 16.001 6.99994ZM16.001 8.49994C11.8589 8.49994 8.501 11.8578 8.50098 15.9999C8.50098 20.1421 11.8588 23.4999 16.001 23.4999C20.1429 23.4997 23.501 20.1419 23.501 15.9999C23.5009 11.858 20.1429 8.5002 16.001 8.49994ZM4.50098 15.2451C4.91495 15.2453 5.25095 15.581 5.25098 15.9951C5.25098 16.4093 4.91421 16.7451 4.5 16.7451H1.75488C1.34089 16.7448 1.00586 16.4091 1.00586 15.9951C1.00588 15.5809 1.34166 15.2451 1.75586 15.2451H4.50098ZM30.2559 15.2451C30.6698 15.2453 31.0058 15.581 31.0059 15.9951C31.0059 16.4091 30.6698 16.7448 30.2559 16.7451H27.501C27.0868 16.7451 26.751 16.4093 26.751 15.9951C26.751 15.5809 27.0868 15.2451 27.501 15.2451H30.2559ZM25.5547 5.39642C25.8475 5.10377 26.3224 5.10386 26.6152 5.39642C26.9081 5.68927 26.908 6.16407 26.6152 6.45697L24.6748 8.39838C24.3819 8.69127 23.9062 8.69127 23.6133 8.39838C23.3207 8.10552 23.3207 7.63064 23.6133 7.33783L25.5547 5.39642ZM5.40234 5.38959C5.69521 5.09695 6.17006 5.09691 6.46289 5.38959L8.4043 7.33099C8.69695 7.62383 8.69692 8.09869 8.4043 8.39154C8.11146 8.68438 7.63666 8.68426 7.34375 8.39154L5.40234 6.45013C5.1096 6.15723 5.1095 5.68243 5.40234 5.38959ZM16.0107 0.999939C16.4247 1.00014 16.7607 1.3359 16.7607 1.74994V4.49506C16.7607 4.90915 16.4248 5.24486 16.0107 5.24506C15.5965 5.24506 15.2607 4.90927 15.2607 4.49506V1.74994C15.2608 1.33578 15.5966 0.999939 16.0107 0.999939Z"
    fill="currentColor"
  />
</svg>
