<svg width="13" height="12" viewBox="0 0 13 12" fill="none" xmlns="http://www.w3.org/2000/svg" data-fui-icon="true">
  <path
    d="M6.00098 10C6.41497 10.0003 6.75097 10.3359 6.75098 10.75V11.25C6.75098 11.6641 6.41497 11.9997 6.00098 12C5.58676 12 5.25098 11.6642 5.25098 11.25V10.75C5.25098 10.3358 5.58677 10 6.00098 10ZM2.11328 8.8252C2.40618 8.53242 2.88097 8.53234 3.17383 8.8252C3.4664 9.11807 3.46651 9.59293 3.17383 9.88574L2.82031 10.2393C2.52751 10.5321 2.05268 10.5319 1.75977 10.2393C1.46687 9.94636 1.46687 9.4716 1.75977 9.17871L2.11328 8.8252ZM8.83691 8.8252C9.12977 8.53234 9.60456 8.53242 9.89746 8.8252L10.252 9.17871C10.5444 9.47156 10.5445 9.94646 10.252 10.2393C9.95906 10.5321 9.48332 10.5321 9.19043 10.2393L8.83691 9.88574C8.54423 9.59293 8.54434 9.11807 8.83691 8.8252ZM6.00098 3C7.65762 3.00025 9.00098 4.3433 9.00098 6C9.00098 7.6567 7.65762 8.99975 6.00098 9C4.34412 9 3.00098 7.65685 3.00098 6C3.00098 4.34315 4.34412 3 6.00098 3ZM1.25586 5.24512C1.6699 5.24532 2.00586 5.58103 2.00586 5.99512C2.0058 6.40915 1.66986 6.74492 1.25586 6.74512H0.755859C0.341684 6.74512 0.0059213 6.40928 0.00585938 5.99512C0.00585937 5.5809 0.341646 5.24512 0.755859 5.24512H1.25586ZM11.2559 5.24512C11.6699 5.24532 12.0059 5.58103 12.0059 5.99512C12.0058 6.40915 11.6699 6.74491 11.2559 6.74512H10.7559C10.3417 6.74512 10.0059 6.40928 10.0059 5.99512C10.0059 5.5809 10.3416 5.24512 10.7559 5.24512H11.2559ZM1.7666 1.75391C2.05951 1.46122 2.53433 1.46108 2.82715 1.75391L3.18066 2.10742C3.47337 2.40025 3.47331 2.8751 3.18066 3.16797C2.88781 3.46082 2.41302 3.46075 2.12012 3.16797L1.7666 2.81445C1.47371 2.52156 1.47371 2.0468 1.7666 1.75391ZM9.18359 1.75391C9.47642 1.46109 9.95123 1.46123 10.2441 1.75391C10.537 2.0468 10.537 2.52156 10.2441 2.81445L9.89062 3.16797C9.59772 3.46075 9.12293 3.46082 8.83008 3.16797C8.53743 2.8751 8.53737 2.40025 8.83008 2.10742L9.18359 1.75391ZM6.00098 0C6.41497 0.000253159 6.75097 0.335945 6.75098 0.75V1.25C6.75098 1.66406 6.41497 1.99975 6.00098 2C5.58676 2 5.25098 1.66421 5.25098 1.25V0.75C5.25098 0.335789 5.58677 3.26956e-07 6.00098 0Z"
    fill="currentColor"
  />
</svg>
