<svg width="32" height="32" viewBox="0 0 32 32" fill="none" xmlns="http://www.w3.org/2000/svg" data-fui-icon="true">
  <path
    d="M16.0107 26.7451C16.4247 26.7453 16.7607 27.0811 16.7607 27.4951V30.25C16.7607 30.6641 16.4248 30.9998 16.0107 31C15.5965 31 15.2607 30.6642 15.2607 30.25V27.4951C15.2608 27.081 15.5966 26.7451 16.0107 26.7451ZM7.35059 23.6016C7.64349 23.3088 8.11827 23.3087 8.41113 23.6016C8.70378 23.8944 8.70386 24.3693 8.41113 24.6621L6.46289 26.6104C6.17006 26.903 5.69521 26.903 5.40234 26.6104C5.1095 26.3175 5.1096 25.8427 5.40234 25.5498L7.35059 23.6016ZM23.6064 23.5947C23.8993 23.3019 24.3741 23.3019 24.667 23.5947L26.6152 25.543C26.908 25.8359 26.9081 26.3107 26.6152 26.6035C26.3224 26.8961 25.8475 26.8962 25.5547 26.6035L23.6064 24.6553C23.3137 24.3625 23.3139 23.8876 23.6064 23.5947ZM16.001 7C20.9713 7.00026 25.0009 11.0296 25.001 16C25.001 20.9704 20.9713 24.9997 16.001 25C11.0304 25 7.00098 20.9706 7.00098 16C7.001 11.0295 11.0304 7 16.001 7ZM16.001 8.5C11.8589 8.5 8.501 11.8579 8.50098 16C8.50098 20.1421 11.8588 23.5 16.001 23.5C20.1429 23.4997 23.501 20.142 23.501 16C23.5009 11.858 20.1429 8.50026 16.001 8.5ZM4.50098 15.2451C4.91495 15.2454 5.25095 15.5811 5.25098 15.9951C5.25098 16.4093 4.91421 16.7451 4.5 16.7451H1.75488C1.34089 16.7449 1.00586 16.4092 1.00586 15.9951C1.00588 15.5809 1.34166 15.2451 1.75586 15.2451H4.50098ZM30.2559 15.2451C30.6698 15.2454 31.0058 15.5811 31.0059 15.9951C31.0059 16.4092 30.6698 16.7449 30.2559 16.7451H27.501C27.0868 16.7451 26.751 16.4093 26.751 15.9951C26.751 15.5809 27.0868 15.2451 27.501 15.2451H30.2559ZM25.5547 5.39648C25.8475 5.10383 26.3224 5.10392 26.6152 5.39648C26.9081 5.68933 26.908 6.16413 26.6152 6.45703L24.6748 8.39844C24.3819 8.69133 23.9062 8.69133 23.6133 8.39844C23.3207 8.10558 23.3207 7.6307 23.6133 7.33789L25.5547 5.39648ZM5.40234 5.38965C5.69521 5.09701 6.17006 5.09697 6.46289 5.38965L8.4043 7.33105C8.69695 7.62389 8.69692 8.09875 8.4043 8.3916C8.11146 8.68444 7.63666 8.68432 7.34375 8.3916L5.40234 6.4502C5.1096 6.15729 5.1095 5.68249 5.40234 5.38965ZM16.0107 1C16.4247 1.0002 16.7607 1.33596 16.7607 1.75V4.49512C16.7607 4.90921 16.4248 5.24492 16.0107 5.24512C15.5965 5.24512 15.2607 4.90933 15.2607 4.49512V1.75C15.2608 1.33584 15.5966 1 16.0107 1Z"
    fill="currentColor"
  />
</svg>
