<svg width="25" height="25" viewBox="0 0 25 25" fill="none" xmlns="http://www.w3.org/2000/svg" data-fui-icon="true">
  <path
    fill-rule="evenodd"
    clip-rule="evenodd"
    d="M22.9692 0C24.0908 0.000155991 25.0005 0.909648 25.0005 2.03129V8.47201C25.0004 9.70502 24.4173 10.8657 23.4289 11.6029L13.2593 19.1869C13.5138 19.4996 13.6911 19.8697 13.7719 20.2671C14.1148 21.9543 12.6911 23.4761 10.9849 23.2464L10.9208 23.2383C10.3676 23.1636 9.85386 22.9088 9.45912 22.514L7.93235 20.9873L4.12509 24.3734C3.1443 25.2453 1.65361 25.2017 0.725704 24.2737C-0.202007 23.3458 -0.245713 21.8551 0.626022 20.8744L4.01116 17.0651L2.52304 15.5769C2.09585 15.1497 1.83333 14.5851 1.78356 13.983L1.77848 13.9159C1.6459 12.3078 3.04963 10.9972 4.64486 11.2397C5.07187 11.3047 5.47209 11.4808 5.80952 11.7453L13.3976 1.57051C14.1348 0.582194 15.2954 3.12687e-07 16.5285 0H22.9692ZM1.79373 21.9129C1.47178 22.2754 1.48854 22.8262 1.83137 23.1691C2.17435 23.5117 2.7252 23.5278 3.08757 23.2057L6.82669 19.8816L5.11683 18.1717L1.79373 21.9129ZM4.40989 12.7838C3.81218 12.6929 3.28641 13.1843 3.33576 13.7867L3.34085 13.8539C3.36011 14.0874 3.46201 14.3066 3.62769 14.4723L5.6366 16.4822L10.5638 21.4094C10.7165 21.5622 10.9162 21.6603 11.1303 21.6891L11.1934 21.6983C11.8345 21.7845 12.3689 21.2123 12.2401 20.5784C12.2033 20.3976 12.1142 20.2318 11.9837 20.1013L4.93068 13.0483C4.78948 12.9071 4.60728 12.8138 4.40989 12.7838ZM16.5285 1.56237C15.7886 1.56237 15.0921 1.91216 14.6497 2.50529L6.93756 12.8448L8.99428 14.9015L16.0545 7.84136C16.3595 7.53636 16.854 7.53632 17.1591 7.84136C17.4638 8.14644 17.464 8.64104 17.1591 8.94601L10.0989 16.0062L12.1546 18.0619L22.4952 10.3507C23.0882 9.90845 23.438 9.21176 23.4381 8.47201V2.03129C23.4381 1.77252 23.2279 1.56253 22.9692 1.56237H16.5285Z"
    fill="currentColor"
  />
</svg>
