<svg width="17" height="17" viewBox="0 0 17 17" fill="none" xmlns="http://www.w3.org/2000/svg" data-fui-icon="true">
  <path
    d="M15.2467 0C16.2146 0.00026904 16.999 0.785385 16.999 1.75333V5.78701C16.9989 6.93646 16.4267 8.01107 15.4728 8.65251L10.0811 12.2764C10.2616 12.6097 10.3591 12.9851 10.3591 13.3709C10.359 14.6405 9.32967 15.6697 8.06011 15.67C7.45056 15.6698 6.86546 15.4276 6.4344 14.9966L5.82332 14.3856L3.63115 16.4221C2.77936 17.2125 1.45461 17.1878 0.632857 16.3661C-0.188662 15.5443 -0.213515 14.2195 0.576834 13.3678L2.61235 11.1756L2.00232 10.5656C1.5708 10.1338 1.32912 9.54735 1.329 8.93781C1.329 7.66975 2.35728 6.63695 3.62804 6.6367C4.01452 6.63679 4.39108 6.73458 4.72464 6.91578L8.35994 1.52301C9.0017 0.570923 10.0752 0 11.2234 0H15.2467ZM1.74503 14.452C1.53774 14.6756 1.54406 15.0237 1.75955 15.2394C1.97528 15.4551 2.32331 15.4613 2.54699 15.2539L4.69559 13.2578L3.74008 12.3023L1.74503 14.452ZM3.62804 8.23026C3.24013 8.23051 2.92256 8.54709 2.92256 8.93781C2.92268 9.12583 2.99781 9.30657 3.13005 9.43891L7.56109 13.8699C7.6933 14.0021 7.8732 14.0763 8.06011 14.0764C8.44957 14.0762 8.76549 13.7604 8.76559 13.3709C8.76555 13.1839 8.69135 13.0042 8.55914 12.8719L6.3431 10.6559H6.34206L4.12706 8.43671C3.9949 8.30446 3.81499 8.23039 3.62804 8.23026ZM11.2234 1.59356C10.6053 1.59356 10.0273 1.90082 9.68168 2.41316L5.9665 7.9242L7.00708 8.96479L11.1238 4.84914C11.4349 4.53805 11.9404 4.538 12.2515 4.84914C12.5625 5.16029 12.5625 5.66575 12.2515 5.97687L8.13481 10.0925L9.0758 11.0335L14.5837 7.32973C15.0973 6.98435 15.4054 6.4059 15.4054 5.78701V1.75333C15.4054 1.66548 15.3345 1.59382 15.2467 1.59356H11.2234Z"
    fill="currentColor"
  />
</svg>
