<svg width="25" height="25" viewBox="0 0 25 25" fill="none" xmlns="http://www.w3.org/2000/svg" data-fui-icon="true">
  <path
    d="M22.9687 0C24.0903 0.000155585 25 0.909647 25 2.03129V8.47201C24.9999 9.70502 24.4169 10.8657 23.4285 11.6029L13.2588 19.1869C13.5133 19.4996 13.6906 19.8697 13.7715 20.2671C14.1143 21.9543 12.6906 23.4761 10.9844 23.2464L10.9203 23.2383C10.3671 23.1636 9.8534 22.9088 9.45866 22.514L7.93189 20.9873L4.12462 24.3734C3.14383 25.2453 1.65314 25.2017 0.725242 24.2737C-0.202469 23.3458 -0.246175 21.8551 0.625559 20.8744L4.0107 17.0651L2.52258 15.5769C2.09539 15.1497 1.83287 14.5851 1.7831 13.983L1.77801 13.9159C1.64544 12.3078 3.04916 10.9972 4.6444 11.2397C5.07141 11.3047 5.47163 11.4808 5.80906 11.7453L13.3971 1.57051C14.1344 0.582194 15.295 2.59075e-07 16.528 0H22.9687ZM1.79327 21.9129C1.47132 22.2754 1.48808 22.8262 1.83091 23.1691C2.17388 23.5117 2.72474 23.5278 3.08711 23.2057L6.82623 19.8816L5.11636 18.1717L1.79327 21.9129ZM4.40943 12.7838C3.81172 12.6929 3.28595 13.1843 3.3353 13.7867L3.34039 13.8539C3.35965 14.0874 3.46155 14.3066 3.62723 14.4723L5.63614 16.4822L10.5633 21.4094C10.7161 21.5622 10.9158 21.6603 11.1299 21.6891L11.1929 21.6983C11.834 21.7845 12.3684 21.2123 12.2396 20.5784C12.2028 20.3976 12.1137 20.2318 11.9833 20.1013L4.93022 13.0483C4.78902 12.9071 4.60682 12.8138 4.40943 12.7838ZM16.528 1.56237C15.7881 1.56237 15.0916 1.91216 14.6493 2.50529L6.9371 12.8448L8.99382 14.9015L16.054 7.84136C16.3591 7.53636 16.8536 7.53632 17.1586 7.84136C17.4634 8.14644 17.4635 8.64104 17.1586 8.94601L10.0985 16.0062L12.1542 18.0619L22.4947 10.3507C23.0877 9.90845 23.4375 9.21176 23.4376 8.47201V2.03129C23.4376 1.77252 23.2274 1.56253 22.9687 1.56237H16.528Z"
    fill="currentColor"
  />
</svg>
