<svg width="17" height="17" viewBox="0 0 17 17" fill="none" xmlns="http://www.w3.org/2000/svg" data-fui-icon="true">
  <path
    fill-rule="evenodd"
    clip-rule="evenodd"
    d="M15.2467 0C16.2145 0.000268856 16.9989 0.785385 16.9989 1.75333V5.78701C16.9989 6.93646 16.4267 8.01107 15.4728 8.65251L10.0811 12.2764C10.2615 12.6097 10.3591 12.9851 10.3591 13.3709C10.359 14.6405 9.32965 15.6697 8.0601 15.67C7.45054 15.6698 6.86544 15.4276 6.43438 14.9966L5.82331 14.3856L3.63113 16.4221C2.77934 17.2125 1.45459 17.1878 0.632842 16.3661C-0.188677 15.5443 -0.213529 14.2195 0.576819 13.3678L2.61234 11.1756L2.0023 10.5656C1.57079 10.1338 1.3291 9.54735 1.32899 8.93781C1.32899 7.66975 2.35726 6.63695 3.62802 6.6367C4.01451 6.63679 4.39107 6.73458 4.72463 6.91578L8.35993 1.52301C9.00169 0.570923 10.0752 0 11.2233 0H15.2467ZM1.74501 14.452C1.53772 14.6756 1.54404 15.0237 1.75954 15.2394C1.97527 15.4551 2.32329 15.4613 2.54698 15.2539L4.69558 13.2578L3.74007 12.3023L1.74501 14.452ZM3.62802 8.23026C3.24011 8.23051 2.92254 8.54709 2.92254 8.93781C2.92266 9.12583 2.99779 9.30657 3.13004 9.43891L7.56107 13.8699C7.69329 14.0021 7.87318 14.0763 8.0601 14.0764C8.44956 14.0762 8.76548 13.7604 8.76558 13.3709C8.76554 13.1839 8.69133 13.0042 8.55912 12.8719L6.34308 10.6559H6.34205L4.12704 8.43671C3.99489 8.30446 3.81498 8.23039 3.62802 8.23026ZM11.2233 1.59356C10.6053 1.59356 10.0273 1.90082 9.68166 2.41316L5.96648 7.9242L7.00706 8.96479L11.1237 4.84914C11.4349 4.53805 11.9403 4.538 12.2515 4.84914C12.5625 5.16029 12.5625 5.66575 12.2515 5.97687L8.1348 10.0925L9.07578 11.0335L14.5837 7.32973C15.0973 6.98435 15.4053 6.4059 15.4054 5.78701V1.75333C15.4054 1.66548 15.3344 1.59382 15.2467 1.59356H11.2233Z"
    fill="currentColor"
  />
</svg>
