<svg width="32" height="32" viewBox="0 0 32 32" fill="none" xmlns="http://www.w3.org/2000/svg" data-fui-icon="true">
  <path
    d="M3.17285 17.584C3.02713 15.8145 4.57175 14.3718 6.32715 14.6387L6.46484 14.6602C7.04435 14.7485 7.58157 15.0191 7.99609 15.4336L12.2812 19.7197L16.6055 24.0439C16.987 24.4256 17.2479 24.9117 17.3555 25.4404L17.3867 25.5947C17.7631 27.4481 16.1995 29.1202 14.3252 28.8682L14.0703 28.833C13.4734 28.7526 12.9191 28.4785 12.4932 28.0527L10.4697 26.0293L5.65918 30.3076C4.57102 31.2748 2.9163 31.2265 1.88672 30.1973L1.80371 30.1143C0.774165 29.0847 0.726133 27.4301 1.69336 26.3418L5.9707 21.5303L3.98926 19.5488C3.52897 19.0885 3.24698 18.4789 3.19336 17.8301L3.17285 17.584ZM28.6514 1C29.9485 1.00067 31.0008 2.05234 31.001 3.34961V11.2441C31.0009 12.5857 30.3672 13.8492 29.292 14.6514L17.8516 23.1826C17.792 23.1149 17.73 23.0484 17.666 22.9844L13.8711 19.1895L21.5303 11.5303C21.8232 11.2374 21.8232 10.7626 21.5303 10.4697C21.2374 10.177 20.7626 10.1769 20.4697 10.4697L12.8105 18.1279L9.05664 14.374C8.97903 14.2964 8.89736 14.2223 8.81445 14.1514L17.3496 2.70898C18.1517 1.6337 19.4153 1.00009 20.7568 1H28.6514Z"
    fill="currentColor"
  />
</svg>
