<svg
  width="12"
  height="12"
  viewBox="0 0 12 12"
  fill="none"
  xmlns="http://www.w3.org/2000/svg"
  data-fui-icon="true"
>
  <g clip-path="url(#clip0_1083_206)">
    <path
      fill-rule="evenodd"
      clip-rule="evenodd"
      d="M2.89668 0.469735C2.7011 0.274153 2.41374 0.202094 2.14902 0.282244C1.88429 0.362394 1.68517 0.581743 1.63092 0.852965C1.39841 2.01538 1.76227 3.21707 2.60047 4.05527L4.05907 5.51387L3.64061 5.93232L3.16661 5.45832C2.87372 5.16543 2.39884 5.16543 2.10595 5.45832C1.81306 5.75121 1.81306 6.22609 2.10595 6.51898L2.58 6.99303L0.476059 9.09696L0.46967 9.10328C0.176777 9.39617 0.176777 9.87104 0.46967 10.1639L1.34987 11.0441C2.29093 11.9852 3.81669 11.9852 4.75775 11.0441L5.05115 10.7507C5.80705 9.99484 5.95578 8.86169 5.49734 7.95734L5.99994 7.45474L6.50261 7.95741C6.04422 8.86175 6.19296 9.99485 6.94884 10.7507L7.24224 11.0441C8.1833 11.9852 9.70905 11.9852 10.6501 11.0441L11.5278 10.1664L11.5303 10.1639C11.6951 9.99918 11.7671 9.77685 11.7466 9.56171C11.7305 9.39439 11.6585 9.23142 11.5303 9.10328L11.5303 9.10327L11.5291 9.10203L9.42002 6.99298L9.89403 6.51898C10.1869 6.22608 10.1869 5.75121 9.89403 5.45832C9.60114 5.16542 9.12626 5.16542 8.83337 5.45832L8.35932 5.93237L7.94083 5.51389L9.39944 4.05528L9.39945 4.05527C10.2377 3.21706 10.6015 2.01537 10.369 0.852981C10.3148 0.581755 10.1157 0.3624 9.85094 0.282246C9.58621 0.202092 9.29885 0.274151 9.10327 0.469735L5.99997 3.57303L2.89668 0.469735ZM8.0095 8.40351L8.35938 8.05364L9.93933 9.63359L9.58946 9.98347C9.23418 10.3387 8.65817 10.3387 8.3029 9.98347L8.0095 9.69007C7.65422 9.3348 7.65422 8.75879 8.0095 8.40351ZM2.06069 9.63363L3.64065 8.05368L3.99049 8.40352C4.34576 8.75879 4.34576 9.3348 3.99049 9.69007L3.69709 9.98348C3.34181 10.3388 2.7658 10.3388 2.41053 9.98347L2.06069 9.63363Z"
      fill="currentColor"
    />
  </g>
  <defs>
    <clipPath id="clip0_1083_206">
      <path fill="currentColor" d="M0 0H12V12H0z" />
    </clipPath>
  </defs>
</svg>
