<svg width="16" height="16" viewBox="0 0 16 16" fill="none" xmlns="http://www.w3.org/2000/svg" data-fui-icon="true">
  <path
    fill-rule="evenodd"
    clip-rule="evenodd"
    d="M3.41485 6.24669C3.98874 6.24689 4.53939 6.47544 4.94503 6.88142L7.02986 8.96918L9.11665 11.055C9.52225 11.4608 9.75036 12.0114 9.7504 12.5852C9.75033 13.7801 8.7813 14.7487 7.58647 14.7491C7.01281 14.749 6.46201 14.5209 6.05629 14.1153L5.48113 13.5402L3.41778 15.4571C2.61612 16.201 1.3692 16.1776 0.595684 15.4043C-0.17754 14.6308 -0.201048 13.3839 0.542953 12.5822L2.45885 10.5189L1.88467 9.94471C1.47853 9.53826 1.25102 8.98628 1.25092 8.41257C1.25092 7.21901 2.21874 6.24689 3.41485 6.24669ZM14.3497 0C15.2608 0.000153047 15.999 0.73917 15.999 1.65029V5.44693C15.999 6.52889 15.4605 7.54029 14.5626 8.14403L10.7367 10.7152C10.5822 10.4549 10.3956 10.2121 10.1781 9.99451H10.1771L8.66843 8.48581L11.5306 5.62466C11.8229 5.33182 11.8231 4.85691 11.5306 4.56417C11.2378 4.2716 10.7619 4.27162 10.4691 4.56417L7.60697 7.42533L6.00649 5.82191V5.82093L5.87466 5.69594C5.69255 5.5309 5.49362 5.3884 5.28485 5.26433L7.8677 1.43351C8.47171 0.537396 9.48219 6.57426e-05 10.5628 0H14.3497Z"
    fill="currentColor"
  />
</svg>
