<svg width="24" height="24" viewBox="0 0 24 24" fill="none" xmlns="http://www.w3.org/2000/svg" data-fui-icon="true">
  <path
    fill-rule="evenodd"
    clip-rule="evenodd"
    d="M8.29393 1.78908C8.49099 1.72301 8.70797 1.74158 8.89256 1.84279C9.10301 1.95828 9.24604 2.16722 9.27635 2.40529L9.2783 2.41603C9.28041 2.42924 9.28397 2.45195 9.29002 2.48244C9.30242 2.54481 9.32413 2.6395 9.35838 2.7549C9.4278 2.98869 9.54589 3.29543 9.73826 3.59572C10.1054 4.1686 10.7524 4.75001 12.001 4.75002C13.2495 4.75001 13.8965 4.1686 14.2637 3.59572C14.456 3.29543 14.5741 2.98869 14.6435 2.7549C14.6778 2.6395 14.6995 2.54481 14.7119 2.48244C14.7179 2.45195 14.7215 2.42924 14.7236 2.41603L14.7256 2.40529C14.7559 2.16721 14.8989 1.95828 15.1094 1.84279C15.3203 1.72715 15.5736 1.71924 15.791 1.82228L23.0058 5.24416C23.7649 5.60421 24.0801 6.51783 23.7051 7.26955L21.9941 10.6992C21.6648 11.359 20.9045 11.6824 20.2012 11.461L19.501 11.2393V21C19.5009 21.8284 18.8293 22.5 18.001 22.5H6.00096C5.17259 22.5 4.50105 21.8284 4.50096 21V11.2393L3.80076 11.461C3.09743 11.6824 2.33708 11.359 2.00779 10.6992L0.296857 7.26955C-0.0782255 6.51782 0.237046 5.60421 0.996076 5.24416L8.21092 1.82228L8.29393 1.78908Z"
    fill="currentColor"
  />
</svg>
