<svg width="12" height="12" viewBox="0 0 12 12" fill="none" xmlns="http://www.w3.org/2000/svg" data-fui-icon="true">
  <g clip-path="url(#clip0_6288_113)">
    <path
      d="M4.16602 0.786133C4.36244 0.722788 4.57807 0.743178 4.76074 0.844727C4.96684 0.959399 5.10646 1.1642 5.13867 1.39746C5.13881 1.39833 5.13889 1.40115 5.13965 1.40527C5.14005 1.40746 5.141 1.41005 5.1416 1.41309C5.14523 1.43137 5.1532 1.46302 5.16504 1.50293C5.18955 1.58548 5.22977 1.69037 5.29297 1.78906C5.40172 1.95882 5.58298 2.13663 6 2.13672C6.41711 2.13672 6.59824 1.95881 6.70703 1.78906C6.77024 1.69038 6.81044 1.5855 6.83496 1.50293C6.84679 1.46306 6.85476 1.43139 6.8584 1.41309C6.85899 1.41007 6.85994 1.40745 6.86035 1.40527V1.4043L6.85938 1.40527L6.86133 1.39746C6.89352 1.16429 7.0333 0.95943 7.23926 0.844727C7.44803 0.728575 7.69988 0.718713 7.91699 0.818359L11.3604 2.40137C11.9245 2.66091 12.1618 3.33585 11.8848 3.8916L11.0967 5.4707C10.8825 5.8997 10.4202 6.13346 9.95801 6.06738V9.875C9.95799 10.4962 9.45416 10.9998 8.83301 11H3.16699C2.54599 10.9996 2.04201 10.4961 2.04199 9.875V6.06738C1.57982 6.13331 1.11739 5.89969 0.90332 5.4707L0.115234 3.8916C-0.161689 3.33597 0.0757293 2.66099 0.639648 2.40137L4.08301 0.818359L4.16602 0.786133Z"
      fill="currentColor"
    />
  </g>
  <defs>
    <clipPath id="clip0_6288_113"><path fill="currentColor" d="M0 0H12V12H0z" /></clipPath>
  </defs>
</svg>
