<svg width="13" height="12" viewBox="0 0 13 12" fill="none" xmlns="http://www.w3.org/2000/svg" data-fui-icon="true">
  <path
    fill-rule="evenodd"
    clip-rule="evenodd"
    d="M4.16667 0.786089C4.36309 0.722833 4.57876 0.743071 4.76139 0.844682C4.96736 0.959384 5.10713 1.16424 5.13932 1.39742C5.13946 1.39832 5.13955 1.40114 5.1403 1.40523C5.14071 1.40742 5.14165 1.41001 5.14225 1.41304C5.14589 1.43134 5.15385 1.46298 5.16569 1.50289C5.19021 1.58546 5.2304 1.69032 5.29362 1.78902C5.40241 1.95878 5.58351 2.13667 6.00065 2.13667C6.41767 2.13658 6.59893 1.95877 6.70768 1.78902C6.77086 1.69033 6.81111 1.58543 6.83561 1.50289C6.84744 1.463 6.85542 1.43132 6.85905 1.41304C6.85965 1.41002 6.8606 1.40741 6.861 1.40523V1.40425L6.86003 1.40523L6.86198 1.39742C6.8942 1.16417 7.03383 0.959348 7.23991 0.844682C7.44871 0.728619 7.70056 0.718583 7.91764 0.818315L11.361 2.40132C11.9249 2.66093 12.1623 3.33592 11.8854 3.89156L11.0973 5.47066C10.8833 5.89965 10.4208 6.13327 9.95866 6.06734V9.87496C9.95866 10.4961 9.45467 10.9996 8.83366 11H3.16764C2.54648 10.9998 2.04264 10.4962 2.04264 9.87496V6.06734C1.58041 6.13342 1.11812 5.89967 0.903971 5.47066L0.115885 3.89156C-0.161168 3.33581 0.0761429 2.66086 0.640299 2.40132L4.08366 0.818315L4.16667 0.786089ZM7.97038 2.59761C7.63489 3.1213 7.01365 3.63656 6.00065 3.63667C4.98755 3.63667 4.36647 3.12131 4.03092 2.59761C4.01351 2.57043 3.99793 2.54255 3.9821 2.51558L1.64128 3.59175L2.0944 4.498L2.57292 4.35152C2.80019 4.28195 3.04777 4.32354 3.23893 4.4648C3.43007 4.60622 3.54264 4.83053 3.54264 5.06832V9.49996H8.45866V5.06832C8.45866 4.83045 8.57111 4.60622 8.76237 4.4648C8.95358 4.32361 9.20112 4.28185 9.42839 4.35152L9.90592 4.498L10.359 3.59175L8.01823 2.51558C8.00248 2.5424 7.98768 2.57058 7.97038 2.59761Z"
    fill="currentColor"
  />
</svg>
