<svg width="16" height="16" viewBox="0 0 16 16" fill="none" xmlns="http://www.w3.org/2000/svg" data-fui-icon="true">
  <path
    fill-rule="evenodd"
    clip-rule="evenodd"
    d="M9.9588 1.08882C10.1733 0.974149 10.4307 0.970262 10.6483 1.07906L15.2156 3.36324C15.818 3.66481 16.0735 4.38954 15.7928 5.00191L14.741 7.2939C14.482 7.85839 13.8475 8.14691 13.2518 7.97164L12.9998 7.89742V13.75C12.9998 14.4401 12.44 14.9997 11.7498 15H4.24982C3.55961 14.9998 2.99986 14.4402 2.99982 13.75V7.89742L2.74884 7.97164C2.15299 8.14723 1.51873 7.85842 1.25959 7.2939L0.207828 5.00191C-0.0731691 4.38928 0.182118 3.66467 0.784976 3.36324L5.35236 1.07906L5.43537 1.0439C5.6333 0.973285 5.85408 0.98835 6.04181 1.08882C6.25554 1.20349 6.40083 1.41467 6.43146 1.65523C6.43246 1.66135 6.43504 1.67302 6.4383 1.68941C6.44526 1.72446 6.458 1.78004 6.47834 1.84859C6.51992 1.98862 6.58968 2.17038 6.70197 2.34566C6.90893 2.6685 7.26707 2.99988 7.99982 2.99996C8.73281 2.99983 9.09175 2.66862 9.29865 2.34566C9.41093 2.17035 9.48071 1.98861 9.52228 1.84859C9.54262 1.78002 9.55536 1.72442 9.56232 1.68941C9.56574 1.67218 9.56726 1.66006 9.56818 1.65425C9.56859 1.6517 9.56916 1.65035 9.56916 1.65035C9.60114 1.41156 9.74615 1.20263 9.9588 1.08882Z"
    fill="currentColor"
  />
</svg>
