<svg width="16" height="16" viewBox="0 0 16 16" fill="none" xmlns="http://www.w3.org/2000/svg" data-fui-icon="true">
  <path
    d="M9.95898 1.08899C10.1735 0.974316 10.4308 0.970428 10.6484 1.07922L15.2158 3.3634C15.8182 3.66497 16.0737 4.38971 15.793 5.00208L14.7412 7.29407C14.4822 7.85856 13.8477 8.14708 13.252 7.9718L13 7.89758V13.7501C13 14.4403 12.4401 14.9999 11.75 15.0001H4.25C3.55979 15 3.00004 14.4404 3 13.7501V7.89758L2.74902 7.9718C2.15317 8.1474 1.51891 7.85858 1.25977 7.29407L0.208008 5.00208C-0.0729894 4.38945 0.182297 3.66483 0.785156 3.3634L5.35254 1.07922L5.43555 1.04407C5.63348 0.973451 5.85426 0.988516 6.04199 1.08899C6.25572 1.20365 6.40101 1.41484 6.43164 1.6554C6.43264 1.66151 6.43522 1.67318 6.43848 1.68958C6.44544 1.72462 6.45818 1.78021 6.47852 1.84875C6.5201 1.98879 6.58986 2.17055 6.70215 2.34583C6.90911 2.66867 7.26725 3.00004 8 3.00012C8.73299 2.99999 9.09193 2.66879 9.29883 2.34583C9.41111 2.17051 9.48089 1.98878 9.52246 1.84875C9.5428 1.78018 9.55554 1.72458 9.5625 1.68958C9.56592 1.67234 9.56744 1.66023 9.56836 1.65442C9.56877 1.65187 9.56934 1.65051 9.56934 1.65051C9.60132 1.41172 9.74633 1.2028 9.95898 1.08899ZM10.752 2.80774C10.6979 2.91968 10.6365 3.03733 10.5615 3.15442C10.1279 3.83132 9.32897 4.49998 8 4.50012C6.6711 4.50003 5.87315 3.83126 5.43945 3.15442C5.36438 3.03722 5.30218 2.91978 5.24805 2.80774L1.67188 4.59583L2.53223 6.4718L3.53809 6.1759C3.76464 6.10927 4.01002 6.15276 4.19922 6.29407C4.38838 6.43568 4.5 6.65932 4.5 6.89563V13.5001H11.5V6.89563C11.5 6.65919 11.6114 6.43567 11.8008 6.29407C11.99 6.15268 12.2353 6.10922 12.4619 6.1759L13.4678 6.4718L14.3281 4.59583L10.752 2.80774Z"
    fill="currentColor"
  />
</svg>
