<svg width="32" height="32" viewBox="0 0 32 32" fill="none" xmlns="http://www.w3.org/2000/svg" data-fui-icon="true">
  <path
    fill-rule="evenodd"
    clip-rule="evenodd"
    d="M11.1445 2.53613C11.341 2.47269 11.5565 2.49314 11.7392 2.59473C11.9479 2.71085 12.0893 2.91933 12.1191 3.15625C12.1196 3.15964 12.1204 3.16661 12.122 3.17676C12.1253 3.19721 12.1317 3.23073 12.1406 3.27539C12.1584 3.36508 12.1881 3.49882 12.2363 3.66113C12.3335 3.98869 12.4999 4.42035 12.7724 4.8457C13.2997 5.66862 14.2357 6.5 16 6.5C17.7642 6.49999 18.7002 5.66862 19.2275 4.8457C19.5 4.42036 19.6664 3.98869 19.7636 3.66113C19.8118 3.49883 19.8415 3.36507 19.8593 3.27539C19.8682 3.23074 19.8746 3.19721 19.8779 3.17676C19.8795 3.16661 19.8803 3.15964 19.8808 3.15625C19.9107 2.91932 20.052 2.71085 20.2607 2.59473C20.4696 2.47864 20.7213 2.46854 20.9384 2.56836L30.875 7.1377C31.7729 7.55057 32.1512 8.62443 31.7099 9.50879L29.4306 14.0771C29.0487 14.8424 28.1692 15.2194 27.3515 14.9688L26 14.5537V27.75C26 28.7165 25.2164 29.5 24.25 29.5H7.74996C6.78346 29.5 5.99996 28.7165 5.99996 27.75V14.5537L4.6484 14.9688C3.83069 15.2194 2.95121 14.8424 2.5693 14.0771L0.290001 9.50879C-0.151269 8.62442 0.226977 7.55056 1.12496 7.1377L11.0615 2.56836L11.1445 2.53613Z"
    fill="currentColor"
  />
</svg>
