<svg width="13" height="12" viewBox="0 0 13 12" fill="none" xmlns="http://www.w3.org/2000/svg" data-fui-icon="true">
  <path
    fill-rule="evenodd"
    clip-rule="evenodd"
    d="M4.16657 0.786145C4.36299 0.7228 4.57862 0.74319 4.76129 0.844739C4.96739 0.959412 5.10701 1.16421 5.13922 1.39747C5.13936 1.39834 5.13945 1.40117 5.1402 1.40529C5.1406 1.40748 5.14155 1.41006 5.14215 1.4131C5.14579 1.43138 5.15375 1.46303 5.16559 1.50294C5.1901 1.58549 5.23033 1.69038 5.29352 1.78907C5.40227 1.95883 5.58354 2.13664 6.00055 2.13673C6.41767 2.13673 6.59879 1.95883 6.70758 1.78907C6.7708 1.69039 6.81099 1.58551 6.83551 1.50294C6.84734 1.46307 6.85531 1.4314 6.85895 1.4131C6.85955 1.41008 6.86049 1.40747 6.8609 1.40529V1.40431L6.85993 1.40529L6.86188 1.39747C6.89407 1.1643 7.03385 0.959442 7.23981 0.844739C7.44858 0.728588 7.70043 0.718725 7.91754 0.818372L11.3609 2.40138C11.9251 2.66092 12.1624 3.33587 11.8853 3.89161L11.0972 5.47072C10.8831 5.89971 10.4208 6.13347 9.95856 6.0674V9.87501C9.95855 10.4962 9.45471 10.9998 8.83356 11H3.16754C2.58542 10.9997 2.10608 10.5572 2.0484 9.99025L2.04254 9.87501V6.0674C1.58038 6.13332 1.11795 5.8997 0.903873 5.47072L0.115787 3.89161C-0.161136 3.33598 0.076282 2.661 0.640201 2.40138L4.08356 0.818372L4.16657 0.786145Z"
    fill="currentColor"
  />
</svg>
