<svg width="20" height="20" viewBox="0 0 20 20" fill="none" xmlns="http://www.w3.org/2000/svg" data-fui-icon="true">
  <path
    d="M6.94824 1.53503C7.14459 1.47225 7.36068 1.4939 7.54297 1.59558C7.75045 1.7117 7.89081 1.91935 7.9209 2.15515V2.15417C7.92108 2.15535 7.92155 2.15711 7.92188 2.15906C7.9233 2.168 7.92609 2.18483 7.93066 2.20789C7.93998 2.25478 7.95602 2.3279 7.98242 2.41687C8.03605 2.59749 8.1275 2.83296 8.27441 3.06238C8.55081 3.49369 9.03478 3.93333 9.99121 3.93347C10.9476 3.93335 11.4306 3.49364 11.707 3.06238C11.8541 2.83287 11.9454 2.59757 11.999 2.41687C12.0255 2.32778 12.0415 2.25482 12.0508 2.20789C12.0554 2.18473 12.0591 2.16803 12.0605 2.15906C12.0608 2.1576 12.0604 2.15617 12.0605 2.15515C12.0906 1.91945 12.2312 1.71177 12.4385 1.59558C12.6465 1.47924 12.8982 1.46881 13.1152 1.56726L19.1475 4.30847C19.8967 4.64904 20.2124 5.54377 19.8428 6.27917L18.5273 8.89832C18.2073 9.53497 17.4711 9.84453 16.792 9.62878L16.5 9.53503V17.1249C16.5 17.8843 15.8844 18.4999 15.125 18.4999H4.87109C4.11206 18.4995 3.49609 17.884 3.49609 17.1249V9.53601L3.20801 9.62781C2.52875 9.84378 1.79277 9.53422 1.47266 8.89734L0.15625 6.27917C-0.212782 5.54453 0.102688 4.64971 0.850586 4.30847L6.86621 1.56726L6.94824 1.53503ZM13.2754 3.28699C13.1974 3.47069 13.0991 3.67047 12.9707 3.87097C12.4676 4.65628 11.5438 5.43333 9.99121 5.43347C8.43861 5.43332 7.51385 4.65631 7.01074 3.87097C6.88254 3.67075 6.78302 3.47144 6.70508 3.28796L1.51953 5.65027L2.79395 8.18542L4.01855 7.79578C4.24642 7.72325 4.49635 7.76414 4.68945 7.90515C4.88243 8.04633 4.99601 8.27151 4.99609 8.51062V16.9999H15V8.51062C15.0001 8.2716 15.1148 8.04635 15.3076 7.90515C15.5005 7.76425 15.7498 7.72361 15.9775 7.79578L17.2051 8.18542L18.4795 5.65125L13.2754 3.28699Z"
    fill="currentColor"
  />
</svg>
