<svg width="20" height="20" viewBox="0 0 20 20" fill="none" xmlns="http://www.w3.org/2000/svg" data-fui-icon="true">
  <path
    d="M6.94824 1.53491C7.14459 1.47212 7.36068 1.49378 7.54297 1.59546C7.75045 1.71158 7.89081 1.91923 7.9209 2.15503V2.15405C7.92108 2.15523 7.92155 2.15699 7.92188 2.15894C7.9233 2.16788 7.92609 2.18471 7.93066 2.20776C7.93998 2.25466 7.95602 2.32777 7.98242 2.41675C8.03605 2.59737 8.1275 2.83284 8.27441 3.06226C8.55081 3.49357 9.03478 3.93321 9.99121 3.93335C10.9476 3.93322 11.4306 3.49352 11.707 3.06226C11.8541 2.83275 11.9454 2.59745 11.999 2.41675C12.0255 2.32766 12.0415 2.2547 12.0508 2.20776C12.0554 2.1846 12.0591 2.16791 12.0605 2.15894C12.0608 2.15748 12.0604 2.15605 12.0605 2.15503C12.0906 1.91932 12.2312 1.71165 12.4385 1.59546C12.6465 1.47912 12.8982 1.46869 13.1152 1.56714L19.1475 4.30835C19.8967 4.64892 20.2124 5.54365 19.8428 6.27905L18.5273 8.89819C18.2073 9.53485 17.4711 9.8444 16.792 9.62866L16.5 9.53491V17.1248C16.5 17.8841 15.8844 18.4998 15.125 18.4998H4.87109C4.11206 18.4993 3.49609 17.8839 3.49609 17.1248V9.53589L3.20801 9.62769C2.52875 9.84365 1.79277 9.5341 1.47266 8.89722L0.15625 6.27905C-0.212782 5.54441 0.102688 4.64958 0.850586 4.30835L6.86621 1.56714L6.94824 1.53491ZM13.2754 3.28687C13.1974 3.47057 13.0991 3.67035 12.9707 3.87085C12.4676 4.65616 11.5438 5.43321 9.99121 5.43335C8.43861 5.4332 7.51385 4.65618 7.01074 3.87085C6.88254 3.67063 6.78302 3.47131 6.70508 3.28784L1.51953 5.65015L2.79395 8.1853L4.01855 7.79565C4.24642 7.72313 4.49635 7.76402 4.68945 7.90503C4.88243 8.04621 4.99601 8.27139 4.99609 8.5105V16.9998H15V8.5105C15.0001 8.27148 15.1148 8.04622 15.3076 7.90503C15.5005 7.76413 15.7498 7.72348 15.9775 7.79565L17.2051 8.1853L18.4795 5.65112L13.2754 3.28687Z"
    fill="currentColor"
  />
</svg>
