<svg width="24" height="24" viewBox="0 0 24 24" fill="none" xmlns="http://www.w3.org/2000/svg" data-fui-icon="true">
  <path
    d="M8.29395 1.78918C8.49101 1.72312 8.70799 1.74169 8.89258 1.8429C9.10303 1.95838 9.24606 2.16732 9.27637 2.4054L9.27832 2.41614C9.28043 2.42935 9.28399 2.45206 9.29004 2.48254C9.30243 2.54491 9.32415 2.63961 9.3584 2.755C9.42782 2.98879 9.54591 3.29554 9.73828 3.59583C10.1054 4.1687 10.7524 4.75012 12.001 4.75012C13.2495 4.75012 13.8965 4.1687 14.2637 3.59583C14.456 3.29553 14.5741 2.98879 14.6436 2.755C14.6778 2.63961 14.6995 2.54491 14.7119 2.48254C14.718 2.45206 14.7215 2.42935 14.7236 2.41614L14.7256 2.4054C14.7559 2.16732 14.8989 1.95838 15.1094 1.8429C15.3203 1.72725 15.5737 1.71935 15.791 1.82239L23.0059 5.24426C23.7649 5.60432 24.0802 6.51793 23.7051 7.26965L21.9941 10.6993C21.6649 11.3591 20.9045 11.6825 20.2012 11.4611L19.501 11.2394V21.0001C19.5009 21.8285 18.8293 22.5001 18.001 22.5001H6.00098C5.17261 22.5001 4.50107 21.8285 4.50098 21.0001V11.2394L3.80078 11.4611C3.09744 11.6825 2.33709 11.3591 2.00781 10.6993L0.296875 7.26965C-0.0782073 6.51793 0.237064 5.60432 0.996094 5.24426L8.21094 1.82239L8.29395 1.78918Z"
    fill="currentColor"
  />
</svg>
