<svg width="12" height="12" viewBox="0 0 12 12" fill="none" xmlns="http://www.w3.org/2000/svg" data-fui-icon="true">
  <path
    d="M8.25 0C10.3211 0 12 1.67893 12 3.75V8.25C12 10.3211 10.3211 12 8.25 12H3.75C1.67893 12 0 10.3211 0 8.25V3.75C0 1.67893 1.67893 0 3.75 0H8.25ZM5.25 10.5H8.25C9.49264 10.5 10.5 9.49264 10.5 8.25V5.25H5.25V10.5ZM1.5 8.25C1.5 9.49264 2.50736 10.5 3.75 10.5V5.25H1.5V8.25ZM5.25 3.75H10.5C10.5 2.50736 9.49264 1.5 8.25 1.5H5.25V3.75ZM3.75 1.5C2.50736 1.5 1.5 2.50736 1.5 3.75H3.75V1.5Z"
    fill="currentColor"
  />
</svg>
