<svg width="16" height="16" viewBox="0 0 16 16" fill="none" xmlns="http://www.w3.org/2000/svg" data-fui-icon="true">
  <g clip-path="url(#clip0_3952_71)">
    <path
      d="M13.2998 0C14.791 0 16 1.20903 16 2.7002V13.2998C16 14.791 14.791 16 13.2998 16H2.7002C1.20903 16 0 14.791 0 13.2998V2.7002C0 1.20903 1.20903 0 2.7002 0H13.2998ZM6.75 14.5H13.2998C13.9625 14.5 14.5 13.9625 14.5 13.2998V6.25H6.75V14.5ZM1.5 13.2998C1.5 13.9625 2.03745 14.5 2.7002 14.5H5.25V6.25H1.5V13.2998ZM6.75 4.75H14.5V2.7002C14.5 2.03745 13.9625 1.5 13.2998 1.5H6.75V4.75ZM2.7002 1.5C2.03745 1.5 1.5 2.03745 1.5 2.7002V4.75H5.25V1.5H2.7002Z"
      fill="currentColor"
    />
  </g>
  <defs>
    <clipPath id="clip0_3952_71"><path fill="currentColor" d="M0 0H16V16H0z" /></clipPath>
  </defs>
</svg>
