<svg width="16" height="16" viewBox="0 0 16 16" fill="none" xmlns="http://www.w3.org/2000/svg" data-fui-icon="true">
  <path
    d="M10.752 1C13.0991 1.00004 15.002 2.90281 15.002 5.25V10.752C15.0019 13.0991 13.0991 15.0019 10.752 15.002H5.25C2.90285 15.002 1.0001 13.0991 1 10.752V5.25C1 2.90279 2.90279 1 5.25 1H10.752ZM7.02637 13.502H10.752C12.2706 13.5019 13.5019 12.2706 13.502 10.752V6.5957H7.02637V13.502ZM2.5 10.752C2.5001 12.2706 3.73128 13.502 5.25 13.502H5.52637V6.5957H2.5V10.752ZM7.02637 5.0957H13.4941C13.4141 3.64872 12.2189 2.50004 10.752 2.5H7.02637V5.0957ZM5.25 2.5C3.783 2.5 2.58785 3.6487 2.50781 5.0957H5.52637V2.5H5.25Z"
    fill="currentColor"
  />
</svg>
