<svg width="24" height="24" viewBox="0 0 24 24" fill="none" xmlns="http://www.w3.org/2000/svg" data-fui-icon="true">
  <path
    d="M19.0098 1.75C20.7992 1.75 22.25 3.20084 22.25 4.99023V19.0098C22.25 20.7992 20.7992 22.25 19.0098 22.25H4.99023C3.20083 22.25 1.75 20.7992 1.75 19.0098V4.99023C1.75001 3.20084 3.20084 1.75 4.99023 1.75H19.0098ZM9.25 20.75H19.0098C19.9707 20.75 20.75 19.9707 20.75 19.0098V9.30957H9.25V20.75ZM3.25 19.0098C3.25 19.9707 4.02926 20.75 4.99023 20.75H7.75V9.30957H3.25V19.0098ZM9.2041 3.25C9.23197 3.32848 9.25 3.41196 9.25 3.5V7.80957H20.75V4.99023C20.75 4.02927 19.9707 3.25 19.0098 3.25H9.2041ZM4.99023 3.25C4.02926 3.25 3.25001 4.02927 3.25 4.99023V7.80957H7.75V3.5C7.75 3.41196 7.76803 3.32848 7.7959 3.25H4.99023Z"
    fill="currentColor"
  />
</svg>
