<svg width="13" height="12" viewBox="0 0 13 12" fill="none" xmlns="http://www.w3.org/2000/svg" data-fui-icon="true">
  <path
    d="M10.0898 0C11.2828 0 12.25 0.967221 12.25 2.16016V3.94434C12.4025 4.08162 12.5 4.27868 12.5 4.5C12.5 4.72108 12.4022 4.91742 12.25 5.05469V9.83984C12.25 11.0328 11.2828 12 10.0898 12H2.41016C1.21722 12 0.25 11.0328 0.25 9.83984V5.05469C0.097818 4.91742 0 4.72108 0 4.5C0 4.27868 0.0975348 4.08162 0.25 3.94434V2.16016C0.25 0.967221 1.21722 0 2.41016 0H10.0898ZM5.5 10.5H10.0898C10.4544 10.5 10.75 10.2044 10.75 9.83984V5.25H5.5V10.5ZM1.75 9.83984C1.75 10.2044 2.04565 10.5 2.41016 10.5H4V5.25H1.75V9.83984ZM5.5 3.75H10.75V2.16016C10.75 1.79565 10.4544 1.5 10.0898 1.5H5.5V3.75ZM2.41016 1.5C2.04565 1.5 1.75 1.79565 1.75 2.16016V3.75H4V1.5H2.41016Z"
    fill="currentColor"
  />
</svg>
