<svg width="32" height="32" viewBox="0 0 32 32" fill="none" xmlns="http://www.w3.org/2000/svg" data-fui-icon="true">
  <path
    d="M21.5 2.25C26.0563 2.25 29.75 5.94365 29.75 10.5V21.5C29.75 26.0563 26.0563 29.75 21.5 29.75H10.5C5.94365 29.75 2.25 26.0563 2.25 21.5V10.5C2.25 5.94365 5.94365 2.25 10.5 2.25H21.5ZM11.25 10.8633V28.25H21.5C25.2279 28.25 28.25 25.2279 28.25 21.5V10.8633H11.25ZM3.75 10.8633V21.5C3.75 24.9743 6.37513 27.8339 9.75 28.207V10.8633H3.75ZM9.75 3.79199C6.75152 4.1235 4.34719 6.41867 3.84766 9.36328H9.75V3.79199ZM11.25 9.36328H28.1523C27.6118 6.17681 24.8404 3.75 21.5 3.75H11.25V9.36328Z"
    fill="currentColor"
  />
</svg>
