<svg width="32" height="32" viewBox="0 0 32 32" fill="none" xmlns="http://www.w3.org/2000/svg" data-fui-icon="true">
  <path
    fill-rule="evenodd"
    clip-rule="evenodd"
    d="M26.2502 1C28.8733 1.00023 31.0001 3.12686 31.0002 5.75V14.2344C31.0001 16.0245 30.2884 17.741 29.0227 19.0068L18.7736 29.2568C16.7233 31.3069 13.399 31.3061 11.3488 29.2559L2.74337 20.6514C0.69361 18.6012 0.693621 15.2767 2.74337 13.2266L12.9934 2.97656C14.259 1.71109 15.9761 1.0002 17.7658 1H26.2502ZM17.7658 2.5C16.3737 2.5002 15.0383 3.05371 14.0539 4.03809L3.80392 14.2871C2.34008 15.7513 2.34033 18.1254 3.80392 19.5898L12.4094 28.1953C13.8738 29.6598 16.2486 29.6596 17.7131 28.1953L27.9621 17.9463C28.9466 16.9618 29.5001 15.6266 29.5002 14.2344V5.75C29.5001 3.95529 28.0449 2.50023 26.2502 2.5H17.7658ZM21.9699 6.27832C24.0409 6.27832 25.7198 7.95736 25.7199 10.0283C25.7199 12.0994 24.041 13.7783 21.9699 13.7783C19.8989 13.7783 18.2199 12.0994 18.2199 10.0283C18.2201 7.9574 19.899 6.27837 21.9699 6.27832ZM21.9699 7.77832C20.7274 7.77837 19.7201 8.78582 19.7199 10.0283C19.7199 11.2709 20.7273 12.2783 21.9699 12.2783C23.2126 12.2783 24.2199 11.271 24.2199 10.0283C24.2198 8.78579 23.2125 7.77832 21.9699 7.77832Z"
    fill="currentColor"
  />
</svg>
