<svg width="32" height="32" viewBox="0 0 32 32" fill="none" xmlns="http://www.w3.org/2000/svg" data-fui-icon="true">
  <path
    fill-rule="evenodd"
    clip-rule="evenodd"
    d="M26.2504 1C28.8735 1.00023 31.0003 3.12686 31.0004 5.75V14.2344C31.0003 16.0245 30.2886 17.741 29.0228 19.0068L18.7738 29.2568C16.7235 31.307 13.3992 31.3061 11.349 29.2559L2.74353 20.6514C0.693558 18.6012 0.693568 15.2768 2.74353 13.2266L12.9935 2.97656C14.2593 1.71102 15.9761 1.00011 17.766 1H26.2504ZM21.9701 6.27832C19.8991 6.27832 18.2202 7.95736 18.2201 10.0283C18.2201 12.0994 19.899 13.7783 21.9701 13.7783C24.0411 13.7782 25.7201 12.0993 25.7201 10.0283C25.72 7.95744 24.041 6.27844 21.9701 6.27832Z"
    fill="currentColor"
  />
</svg>
