<svg width="16" height="17" viewBox="0 0 16 17" fill="none" xmlns="http://www.w3.org/2000/svg" data-fui-icon="true">
  <path
    fill-rule="evenodd"
    clip-rule="evenodd"
    d="M13.2504 0C14.7692 4.12318e-05 16.0004 1.23222 16.0004 2.75098V7.76758C16.0002 8.7619 15.6049 9.71585 14.9018 10.4189L10.4174 14.9033C8.953 16.3669 6.57892 16.3672 5.11471 14.9033L1.0981 10.8867C-0.366152 9.42237 -0.365917 7.04747 1.0981 5.58301L5.58248 1.09961C6.28554 0.396586 7.23962 0.000223334 8.23385 0H13.2504ZM8.23385 1.50098C7.63743 1.5012 7.06478 1.73842 6.64303 2.16016L2.15865 6.64355C1.28044 7.52224 1.28019 8.94763 2.15865 9.82617L6.17525 13.8428C7.05369 14.7209 8.47824 14.7206 9.35689 13.8428L13.8413 9.3584C14.2631 8.93661 14.5003 8.36407 14.5004 7.76758V2.75098C14.5004 2.06065 13.9408 1.50102 13.2504 1.50098H8.23385ZM10.2504 4C11.2169 4.00001 12.0004 4.78351 12.0004 5.75C12.0004 6.71649 11.2169 7.49999 10.2504 7.5C9.28395 7.5 8.50045 6.7165 8.50045 5.75C8.50045 4.7835 9.28395 4 10.2504 4Z"
    fill="currentColor"
  />
</svg>
