<svg width="12" height="12" viewBox="0 0 12 12" fill="none" xmlns="http://www.w3.org/2000/svg" data-fui-icon="true">
  <path
    d="M10.4404 0C11.3017 0.000232362 11.9998 0.698347 12 1.55957V5.1543C11.9999 5.57986 11.8261 5.98705 11.5186 6.28125L6.59668 10.9893C6.08626 11.4775 5.40651 11.75 4.7002 11.75C3.97286 11.7499 3.27505 11.4606 2.76074 10.9463L1.05371 9.23926C0.539403 8.72495 0.250057 8.02714 0.25 7.2998C0.25 6.59349 0.522518 5.91374 1.01074 5.40332L5.71875 0.481445C6.01295 0.173939 6.42014 0.000109351 6.8457 0H10.4404ZM6.8457 1.5C6.82947 1.50011 6.81396 1.50682 6.80273 1.51855L2.09473 6.44043C1.87351 6.6717 1.75 6.97977 1.75 7.2998C1.75006 7.62932 1.88125 7.94571 2.11426 8.17871L3.82129 9.88574C4.05429 10.1187 4.37068 10.2499 4.7002 10.25C5.02023 10.25 5.3283 10.1265 5.55957 9.90527L10.4814 5.19727C10.4932 5.18604 10.4999 5.17053 10.5 5.1543V1.55957C10.4998 1.52677 10.4732 1.50023 10.4404 1.5H6.8457ZM8 3C8.55228 3 9 3.44772 9 4C9 4.55228 8.55228 5 8 5C7.44772 5 7 4.55228 7 4C7 3.44772 7.44772 3 8 3Z"
    fill="currentColor"
  />
</svg>
