<svg width="20" height="20" viewBox="0 0 20 20" fill="none" xmlns="http://www.w3.org/2000/svg" data-fui-icon="true">
  <path
    fill-rule="evenodd"
    clip-rule="evenodd"
    d="M16.2535 1C17.7723 1.00004 19.0035 2.23124 19.0035 3.75V9.60254L18.9986 9.80078C18.9495 10.7893 18.5349 11.7275 17.8316 12.4307L11.9937 18.2686L11.8639 18.3926C10.5342 19.5939 8.504 19.594 7.17441 18.3926L7.04453 18.2686L1.73495 12.959C0.368347 11.5921 0.368246 9.37555 1.73495 8.00879L7.57285 2.17188C8.27596 1.46879 9.21433 1.05407 10.2027 1.00488L10.4019 1H16.2535ZM10.4019 3C9.8716 3.00005 9.36193 3.21093 8.98691 3.58594L3.14902 9.42383C2.56383 10.0096 2.56362 10.9593 3.14902 11.5449L8.45859 16.8535C9.04433 17.4393 9.99388 17.4392 10.5797 16.8535L16.4176 11.0166C16.7926 10.6416 17.0034 10.1328 17.0035 9.60254V3.75C17.0035 3.33581 16.6677 3.00004 16.2535 3H10.4019ZM12.0006 5C13.6573 5.00016 15.0006 6.34325 15.0006 8C15.0006 9.65675 13.6573 10.9998 12.0006 11C10.3437 11 9.00058 9.65685 9.00058 8C9.00058 6.34315 10.3437 5 12.0006 5ZM12.0006 7C11.4483 7 11.0006 7.44772 11.0006 8C11.0006 8.55228 11.4483 9 12.0006 9C12.5527 8.99984 13.0006 8.55218 13.0006 8C13.0006 7.44782 12.5527 7.00016 12.0006 7Z"
    fill="currentColor"
  />
</svg>
