<svg width="20" height="20" viewBox="0 0 20 20" fill="none" xmlns="http://www.w3.org/2000/svg" data-fui-icon="true">
  <path
    fill-rule="evenodd"
    clip-rule="evenodd"
    d="M16.4998 0C18.4325 0.000235797 19.9996 1.56805 19.9996 3.50081V9.35306C19.9994 10.6125 19.4987 11.8207 18.6081 12.7113L12.7705 18.5489C11.111 20.2079 8.42057 20.2077 6.761 18.5489L1.45169 13.2396C-0.207837 11.5799 -0.207902 8.88874 1.45169 7.22914L7.2893 1.39251C8.18005 0.501795 9.38882 0 10.6485 0H16.4998ZM12.999 4.24979C11.4804 4.2499 10.2491 5.48101 10.2491 6.99966C10.2491 8.5183 11.4804 9.74942 12.999 9.74952C14.5177 9.74952 15.7488 8.51837 15.7488 6.99966C15.7488 5.48095 14.5177 4.24979 12.999 4.24979Z"
    fill="currentColor"
  />
</svg>
