<svg width="24" height="24" viewBox="0 0 24 24" fill="none" xmlns="http://www.w3.org/2000/svg" data-fui-icon="true">
  <path
    fill-rule="evenodd"
    clip-rule="evenodd"
    d="M20.0005 0.000976562C22.2096 0.000976562 24.0005 1.79184 24.0005 4.00098V10.5469C24.0004 12.0717 23.395 13.5341 22.3169 14.6123L14.5249 22.4043C12.6699 24.2591 9.66205 24.2593 7.80712 22.4043L1.59716 16.1943C-0.257616 14.3394 -0.257678 11.3315 1.59716 9.47656L9.38915 1.68457C10.4674 0.606361 11.9307 0.00101699 13.4556 0.000976562H20.0005ZM13.4556 1.50098C12.3285 1.50102 11.2467 1.94913 10.4497 2.74609L2.65771 10.5371C1.38865 11.8063 1.38872 13.8646 2.65771 15.1338L8.86767 21.3438C10.1368 22.6129 12.1951 22.6128 13.4643 21.3438L21.2563 13.5518C22.0532 12.7548 22.5004 11.6738 22.5005 10.5469V4.00098C22.5005 2.62027 21.3812 1.50098 20.0005 1.50098H13.4556ZM16.5005 4.25C18.2952 4.25026 19.7505 5.70523 19.7505 7.5C19.7505 9.29477 18.2952 10.7497 16.5005 10.75C14.7056 10.75 13.2505 9.29493 13.2505 7.5C13.2505 5.70507 14.7056 4.25 16.5005 4.25ZM16.5005 5.75C15.534 5.75 14.7505 6.5335 14.7505 7.5C14.7505 8.4665 15.534 9.25 16.5005 9.25C17.4668 9.24974 18.2505 8.46634 18.2505 7.5C18.2505 6.53366 17.4668 5.75026 16.5005 5.75Z"
    fill="currentColor"
  />
</svg>
