<svg width="12" height="12" viewBox="0 0 12 12" fill="none" xmlns="http://www.w3.org/2000/svg" data-fui-icon="true">
  <path
    fill-rule="evenodd"
    clip-rule="evenodd"
    d="M9.7465 0C10.9891 0 11.9965 1.00736 11.9965 2.25V5.85742C11.9964 6.65296 11.6802 7.41603 11.1176 7.97852L7.90568 11.1904C6.8318 12.2639 5.09083 12.2639 4.01701 11.1904L0.805097 7.97949C-0.268492 6.90571 -0.26824 5.16474 0.805097 4.09082L4.01799 0.878906C4.58057 0.316423 5.34354 1.43657e-05 6.13908 0H9.7465ZM7.50041 3C6.67198 3 6.00041 3.67157 6.00041 4.5C6.00041 5.32843 6.67198 6 7.50041 6C8.32861 5.99974 9.00041 5.32826 9.00041 4.5C9.00041 3.67174 8.32861 3.00026 7.50041 3Z"
    fill="currentColor"
  />
</svg>
