<svg width="32" height="32" viewBox="0 0 32 32" fill="none" xmlns="http://www.w3.org/2000/svg" data-fui-icon="true">
  <path
    fill-rule="evenodd"
    clip-rule="evenodd"
    d="M26.0659 1.93262C28.2747 1.93289 30.0657 3.72382 30.0659 5.93262V14.9463L30.0581 15.2441C29.9845 16.727 29.3628 18.1346 28.3081 19.1895L17.521 29.9766L17.353 30.1357C15.6434 31.6803 13.0342 31.6805 11.3247 30.1357L11.1567 29.9766L2.02198 20.8408C0.264914 19.0834 0.264705 16.2338 2.02198 14.4766L12.8091 3.69043C13.8639 2.63579 15.2717 2.01404 16.7544 1.94043L17.0523 1.93262H26.0659ZM17.0523 3.93262C15.9916 3.93262 14.9742 4.35459 14.2241 5.10449L3.43604 15.8916C2.46025 16.8678 2.46017 18.4506 3.43604 19.4268L12.5718 28.5615C13.5481 29.5379 15.1306 29.5378 16.1069 28.5615L26.894 17.7754C27.644 17.0253 28.0659 16.007 28.0659 14.9463V5.93262C28.0657 4.8284 27.1701 3.93289 26.0659 3.93262H17.0523ZM19.6831 8.20996C21.9505 8.21026 23.7884 10.049 23.7886 12.3164C23.7884 14.5839 21.9506 16.4216 19.6831 16.4219C17.4154 16.4219 15.5768 14.5841 15.5767 12.3164C15.5769 10.0488 17.4155 8.20996 19.6831 8.20996ZM19.6831 10.21C18.52 10.21 17.5769 11.1534 17.5767 12.3164C17.5768 13.4795 18.52 14.4219 19.6831 14.4219C20.846 14.4216 21.7884 13.4793 21.7886 12.3164C21.7884 11.1536 20.8459 10.2103 19.6831 10.21Z"
    fill="currentColor"
  />
</svg>
