<svg width="20" height="20" viewBox="0 0 20 20" fill="none" xmlns="http://www.w3.org/2000/svg" data-fui-icon="true">
  <path
    fill-rule="evenodd"
    clip-rule="evenodd"
    d="M11.164 1.13986C11.5011 0.899323 11.9692 0.977683 12.2099 1.31466C13.9462 3.74669 14.7939 6.88999 14.7939 9.99923C14.7938 13.1085 13.9462 16.2518 12.2099 18.6838C11.9692 19.0206 11.501 19.099 11.164 18.8586C10.8271 18.618 10.7488 18.1488 10.9892 17.8117C12.5115 15.6793 13.2938 12.8563 13.2939 9.99923C13.2939 7.14192 12.5117 4.31827 10.9892 2.18576C10.7488 1.84877 10.8272 1.38055 11.164 1.13986ZM7.83391 3.59787C8.16353 3.34706 8.63386 3.41085 8.88469 3.74044C11.5329 7.22087 11.5329 12.7776 8.88469 16.258C8.63377 16.5872 8.16338 16.6513 7.83391 16.4006C7.50464 16.1499 7.44101 15.6794 7.69133 15.3498C9.93111 12.4061 9.93114 7.59235 7.69133 4.64865C7.44065 4.3192 7.50475 3.8488 7.83391 3.59787ZM4.83391 6.01388C5.17843 5.78435 5.64415 5.87756 5.87395 6.22189C6.59205 7.29904 6.92948 8.66724 6.92961 9.99826C6.92961 11.3294 6.59205 12.6983 5.87395 13.7756C5.64416 14.12 5.17846 14.2132 4.83391 13.9836C4.48952 13.7538 4.39639 13.2881 4.6259 12.9436C5.14729 12.1613 5.42961 11.0977 5.42961 9.99826C5.42948 8.89893 5.1473 7.83602 4.6259 7.05392C4.3964 6.70931 4.48937 6.24358 4.83391 6.01388Z"
    fill="currentColor"
  />
</svg>
