<svg width="16" height="16" viewBox="0 0 16 16" fill="none" xmlns="http://www.w3.org/2000/svg" data-fui-icon="true">
  <path
    d="M8 0.525391C12.1282 0.525391 15.4754 3.87185 15.4756 8C15.4754 12.1281 12.1282 15.4756 8 15.4756C3.87198 15.4754 0.525602 12.128 0.525391 8C0.525602 3.87198 3.87198 0.525602 8 0.525391ZM10.5049 4.22363C10.2892 3.80685 9.77625 3.64392 9.35938 3.85938C8.94258 4.07512 8.77949 4.58799 8.99512 5.00488C9.90408 6.763 9.90425 9.23811 8.99512 10.9961C8.77969 11.4129 8.94266 11.9259 9.35938 12.1416C9.77614 12.3567 10.2892 12.1939 10.5049 11.7773C11.6675 9.52945 11.6673 6.47168 10.5049 4.22363ZM8.31445 5.39941C8.10182 4.98144 7.59009 4.81444 7.17188 5.02637C6.75359 5.23898 6.58658 5.75057 6.79883 6.16895C7.35497 7.26346 7.35485 8.73548 6.79883 9.83008C6.58616 10.2486 6.75341 10.7609 7.17188 10.9736C7.59017 11.1856 8.10187 11.0187 8.31445 10.6006C9.11652 9.02205 9.11649 6.97797 8.31445 5.39941ZM6.18457 6.52734C6.00388 6.09423 5.50642 5.88984 5.07324 6.07031C4.64004 6.25105 4.43553 6.7484 4.61621 7.18164C4.82377 7.67996 4.82385 8.32107 4.61621 8.81934C4.43571 9.25254 4.64006 9.75098 5.07324 9.93164C5.50625 10.1117 6.00388 9.90647 6.18457 9.47363C6.56694 8.55657 6.56684 7.44446 6.18457 6.52734Z"
    fill="currentColor"
  />
</svg>
