<svg width="32" height="32" viewBox="0 0 32 32" fill="none" xmlns="http://www.w3.org/2000/svg" data-fui-icon="true">
  <path
    fill-rule="evenodd"
    clip-rule="evenodd"
    d="M17.7833 1.14094C18.1203 0.900447 18.5885 0.978762 18.8292 1.31574C21.7507 5.408 23.1905 10.7219 23.1905 16.0013C23.1904 21.2805 21.7506 26.5937 18.8292 30.6859C18.5885 31.023 18.1204 31.1013 17.7833 30.8607C17.4462 30.62 17.3678 30.1519 17.6085 29.8148C20.3162 26.0221 21.6904 21.0287 21.6905 16.0013C21.6905 10.9738 20.3162 5.97958 17.6085 2.18684C17.368 1.84974 17.4462 1.38157 17.7833 1.14094ZM12.6915 5.37141C13.0243 5.1249 13.4937 5.19488 13.7403 5.52766C15.9075 8.45258 16.9717 12.2429 16.9717 16.0013C16.9717 19.7596 15.9075 23.551 13.7403 26.4759C13.4935 26.8081 13.024 26.8776 12.6915 26.6312C12.3589 26.3847 12.289 25.9151 12.5352 25.5823C14.4792 22.9587 15.4717 19.4958 15.4717 16.0013C15.4717 12.5067 14.4792 9.04397 12.5352 6.42023C12.2888 6.08758 12.3591 5.61806 12.6915 5.37141ZM8.16803 9.5716C8.51266 9.34189 8.97831 9.435 9.20807 9.77961C10.3772 11.5334 10.9405 13.7859 10.9405 16.0013C10.9404 18.2165 10.377 20.4684 9.20807 22.222C8.9783 22.5666 8.51267 22.6598 8.16803 22.43C7.82355 22.2002 7.7303 21.7345 7.96002 21.39C8.93227 19.9314 9.44044 17.9848 9.44049 16.0013C9.44048 14.0175 8.93246 12.0703 7.96002 10.6116C7.73027 10.267 7.82339 9.80136 8.16803 9.5716Z"
    fill="currentColor"
  />
</svg>
