<svg width="12" height="12" viewBox="0 0 12 12" fill="none" xmlns="http://www.w3.org/2000/svg" data-fui-icon="true">
  <path
    d="M6 0C9.31371 0 12 2.68629 12 6C12 9.31371 9.31371 12 6 12C2.68629 12 0 9.31371 0 6C0 2.68629 2.68629 0 6 0ZM8.03027 2.8252C7.81029 2.4744 7.347 2.36806 6.99609 2.58789C6.64545 2.80791 6.53905 3.27123 6.75879 3.62207C7.60463 4.97201 7.60467 7.03193 6.75879 8.38184C6.53952 8.73261 6.64564 9.19515 6.99609 9.41504C7.34693 9.63485 7.81022 9.52836 8.03027 9.17773C9.18124 7.34068 9.18135 4.66216 8.03027 2.8252ZM6.14844 3.58496C5.91912 3.24023 5.45326 3.1459 5.1084 3.375C4.76353 3.60428 4.67026 4.07012 4.89941 4.41504C5.17502 4.8296 5.33203 5.39889 5.33203 6C5.33199 6.60112 5.17506 7.17046 4.89941 7.58496C4.67005 7.92981 4.76361 8.3946 5.1084 8.62402C5.45329 8.85341 5.91807 8.75992 6.14746 8.41504C6.61596 7.71057 6.83197 6.83917 6.83203 6C6.83203 5.16095 6.61671 4.28941 6.14844 3.58496ZM4.39844 4.62695C4.19061 4.26885 3.73224 4.14686 3.37402 4.35449C3.01585 4.56227 2.89397 5.02066 3.10156 5.37891C3.31277 5.74315 3.31274 6.25975 3.10156 6.62402C2.89388 6.98228 3.01584 7.44062 3.37402 7.64844C3.73228 7.85614 4.19061 7.73416 4.39844 7.37598C4.87945 6.54636 4.8795 5.45654 4.39844 4.62695Z"
    fill="currentColor"
  />
</svg>
