<svg width="16" height="16" viewBox="0 0 16 16" fill="none" xmlns="http://www.w3.org/2000/svg" data-fui-icon="true">
  <path
    d="M8 0.5C12.1421 0.5 15.5 3.85786 15.5 8C15.5 12.1421 12.1421 15.5 8 15.5C3.85786 15.5 0.5 12.1421 0.5 8C0.5 3.85786 3.85786 0.5 8 0.5ZM9.91797 3.58008C9.68323 3.23903 9.21616 3.15226 8.875 3.38672C8.53422 3.62153 8.44726 4.08863 8.68164 4.42969C9.34005 5.38637 9.69133 6.67563 9.69141 8C9.69134 9.3244 9.34006 10.6136 8.68164 11.5703C8.44712 11.9115 8.53397 12.3795 8.875 12.6143C9.21604 12.8485 9.68318 12.7616 9.91797 12.4209C10.7809 11.1669 11.1913 9.56522 11.1914 8C11.1913 6.4349 10.7808 4.83403 9.91797 3.58008ZM7.7832 4.73633C7.53361 4.40616 7.06289 4.3405 6.73242 4.58984C6.40239 4.83938 6.33684 5.31019 6.58594 5.64062C7.55779 6.92916 7.55801 9.07201 6.58594 10.3604C6.337 10.6907 6.40255 11.1606 6.73242 11.4102C7.06294 11.6595 7.53367 11.594 7.7832 11.2637C9.15882 9.44049 9.15875 6.55956 7.7832 4.73633ZM5.85742 5.93262C5.61461 5.59747 5.14595 5.5223 4.81055 5.76465C4.4753 6.00749 4.40006 6.47609 4.64258 6.81152C4.85985 7.11168 4.98917 7.53972 4.98926 8C4.98919 8.46004 4.85962 8.88735 4.64258 9.1875C4.39983 9.52297 4.47515 9.99246 4.81055 10.2354C5.14597 10.4779 5.61457 10.4026 5.85742 10.0674C6.29188 9.46707 6.48919 8.71662 6.48926 8C6.48917 7.28337 6.29192 6.53292 5.85742 5.93262Z"
    fill="currentColor"
  />
</svg>
