<svg width="24" height="24" viewBox="0 0 24 24" fill="none" xmlns="http://www.w3.org/2000/svg" data-fui-icon="true">
  <path
    d="M12 0.5C18.3513 0.5 23.5 5.64873 23.5 12C23.5 18.3513 18.3513 23.5 12 23.5C5.64873 23.5 0.5 18.3513 0.5 12C0.5 5.64873 5.64873 0.5 12 0.5ZM14.1182 5.44922C13.8835 5.10821 13.4164 5.02151 13.0752 5.25586C12.7342 5.49061 12.6474 5.95768 12.8818 6.29883C13.946 7.84516 14.5 9.90592 14.5 12.001C14.4998 14.0959 13.946 16.156 12.8818 17.7021C12.6475 18.0433 12.7342 18.5104 13.0752 18.7451C13.4163 18.9792 13.8835 18.8925 14.1182 18.5518C15.3867 16.7083 15.9998 14.3366 16 12.001C16 9.6652 15.3867 7.29283 14.1182 5.44922ZM11.3486 7.2373C11.0991 6.90691 10.6284 6.84141 10.2979 7.09082C9.96751 7.34037 9.90198 7.81107 10.1514 8.1416C11.7489 10.26 11.7494 13.7424 10.1514 15.8604C9.90227 16.1908 9.96772 16.6607 10.2979 16.9102C10.6284 17.1591 11.0992 17.0939 11.3486 16.7637C13.3502 14.1109 13.3499 9.89035 11.3486 7.2373ZM8.85742 9.06543C8.61456 8.73 8.14604 8.65474 7.81055 8.89746C7.47521 9.14035 7.39988 9.60888 7.64258 9.94434C8.03357 10.4847 8.25 11.2268 8.25 12.001C8.24983 12.775 8.03362 13.5164 7.64258 14.0566C7.39994 14.3921 7.47515 14.8617 7.81055 15.1045C8.14588 15.3465 8.61467 15.2714 8.85742 14.9365C9.4659 14.0961 9.74984 13.0316 9.75 12.001C9.75 10.9705 9.46565 9.90598 8.85742 9.06543Z"
    fill="currentColor"
  />
</svg>
