<svg width="16" height="16" viewBox="0 0 16 16" fill="none" xmlns="http://www.w3.org/2000/svg" data-fui-icon="true">
  <path
    d="M9.38379 0.834229C9.88942 0.473727 10.5922 0.591451 10.9531 1.09692C12.3517 3.05636 13.0205 5.56428 13.0205 8.02075C13.0205 10.4775 12.3521 12.986 10.9531 14.9456C10.5923 15.451 9.88941 15.5677 9.38379 15.2073C8.87818 14.8463 8.76024 14.1436 9.12109 13.6379C10.1993 12.1277 10.7705 10.0995 10.7705 8.02075C10.7705 5.94211 10.1992 3.91379 9.12109 2.40356C8.76045 1.89793 8.87826 1.19514 9.38379 0.834229ZM6.67871 2.71216C7.17305 2.3363 7.87965 2.43194 8.25586 2.92603C10.42 5.77021 10.4198 10.2702 8.25586 13.1145C7.87962 13.6089 7.17316 13.7046 6.67871 13.3284C6.18463 12.9522 6.08897 12.2465 6.46484 11.7522C8.01623 9.71294 8.01634 6.32847 6.46484 4.28931C6.08878 3.79491 6.18444 3.08839 6.67871 2.71216ZM4.29199 4.52954C4.80893 4.18516 5.50796 4.32518 5.85254 4.84204C6.47113 5.77011 6.74804 6.92321 6.74805 8.02075C6.74804 9.1183 6.47114 10.2714 5.85254 11.1995C5.50797 11.7163 4.80893 11.8563 4.29199 11.512C3.77508 11.1674 3.63499 10.4684 3.97949 9.95142C4.30315 9.46591 4.49804 8.77091 4.49805 8.02075C4.49804 7.27063 4.30312 6.5756 3.97949 6.09009C3.63504 5.57314 3.7751 4.87414 4.29199 4.52954Z"
    fill="currentColor"
  />
</svg>
