<svg width="32" height="32" viewBox="0 0 32 32" fill="none" xmlns="http://www.w3.org/2000/svg" data-fui-icon="true">
  <path
    d="M17.3477 0.531006C18.0219 0.0498856 18.9582 0.206478 19.4395 0.880615C22.4679 5.12264 23.9404 10.5963 23.9404 16.0017C23.9403 21.4071 22.4679 26.8809 19.4395 31.1228C18.9581 31.7966 18.0217 31.9525 17.3477 31.4714C16.6735 30.9901 16.5169 30.0538 16.998 29.3796C19.5988 25.7368 20.9403 20.9031 20.9404 16.0017C20.9404 11.1002 19.5989 6.2658 16.998 2.6228C16.517 1.94864 16.6736 1.01233 17.3477 0.531006ZM12.2461 4.76831C12.9117 4.27571 13.8507 4.41541 14.3438 5.08081C16.6224 8.15624 17.7226 12.1106 17.7227 16.0007C17.7227 19.8909 16.6224 23.8461 14.3438 26.9216C13.8506 27.587 12.9116 27.7261 12.2461 27.2332C11.5805 26.74 11.4404 25.8011 11.9336 25.1355C13.7659 22.6624 14.7227 19.3633 14.7227 16.0007C14.7226 12.6382 13.766 9.33902 11.9336 6.86597C11.4406 6.20036 11.5805 5.26145 12.2461 4.76831ZM7.75195 8.948C8.44125 8.48847 9.3725 8.67472 9.83203 9.36401C11.0995 11.2653 11.6904 13.6705 11.6904 16.0017C11.6903 18.3327 11.0993 20.7373 9.83203 22.6384C9.37248 23.3275 8.44118 23.5139 7.75195 23.0544C7.06289 22.5949 6.87661 21.6636 7.33594 20.9744C8.20982 19.6634 8.69034 17.8693 8.69043 16.0017C8.69043 14.1338 8.20997 12.3392 7.33594 11.0281C6.87644 10.3388 7.06277 9.40756 7.75195 8.948Z"
    fill="currentColor"
  />
</svg>
