<svg width="16" height="16" viewBox="0 0 16 16" fill="none" xmlns="http://www.w3.org/2000/svg" data-fui-icon="true">
  <path
    fill-rule="evenodd"
    clip-rule="evenodd"
    d="M9.60162 1.13962C9.9387 0.899341 10.4069 0.977463 10.6475 1.31442C11.9929 3.19904 12.6455 5.62683 12.6456 8.02048C12.6456 10.4142 11.993 12.8428 10.6475 14.7275C10.4069 15.0643 9.93862 15.1417 9.60162 14.9013C9.26454 14.6607 9.18614 14.1925 9.42681 13.8554C10.5584 12.2703 11.1456 10.1622 11.1456 8.02048C11.1455 5.87877 10.5584 3.77063 9.42681 2.18552C9.18625 1.84841 9.26455 1.38027 9.60162 1.13962ZM6.90631 3.01169C7.23592 2.76091 7.70626 2.82469 7.95709 3.15427C10.019 5.86439 10.0191 10.1776 7.95709 12.8877C7.70634 13.2171 7.23591 13.2808 6.90631 13.0302C6.57683 12.7794 6.51299 12.309 6.76373 11.9795C8.41728 9.80612 8.41719 6.23589 6.76373 4.06247C6.51292 3.73285 6.57671 3.26252 6.90631 3.01169ZM4.50006 4.84177C4.84466 4.61223 5.31038 4.70525 5.54009 5.04977C6.10963 5.90408 6.37306 6.98078 6.3731 8.02048C6.3731 9.06013 6.10953 10.1369 5.54009 10.9912C5.31034 11.3358 4.8447 11.4289 4.50006 11.1992C4.15544 10.9694 4.06229 10.5038 4.29205 10.1592C4.66478 9.59988 4.8731 8.82845 4.8731 8.02048C4.87306 7.21245 4.66487 6.44104 4.29205 5.88181C4.06232 5.53716 4.15542 5.07152 4.50006 4.84177Z"
    fill="currentColor"
  />
</svg>
