<svg width="12" height="12" viewBox="0 0 12 12" fill="none" xmlns="http://www.w3.org/2000/svg" data-fui-icon="true">
  <path
    d="M6 0C9.31371 0 12 2.68629 12 6C12 9.31371 9.31371 12 6 12C2.68629 12 0 9.31371 0 6C0 2.68629 2.68629 0 6 0ZM6 1.5C3.51472 1.5 1.5 3.51472 1.5 6C1.5 8.48528 3.51472 10.5 6 10.5C8.48528 10.5 10.5 8.48528 10.5 6C10.5 3.51472 8.48528 1.5 6 1.5ZM6.99609 2.58789C7.347 2.36806 7.81029 2.4744 8.03027 2.8252C9.18135 4.66216 9.18124 7.34068 8.03027 9.17773C7.81022 9.52836 7.34693 9.63485 6.99609 9.41504C6.64564 9.19515 6.53952 8.73261 6.75879 8.38184C7.60467 7.03193 7.60463 4.97201 6.75879 3.62207C6.53905 3.27123 6.64545 2.80791 6.99609 2.58789ZM5.1084 3.375C5.45326 3.1459 5.91912 3.24023 6.14844 3.58496C6.61671 4.28941 6.83203 5.16095 6.83203 6C6.83197 6.83917 6.61596 7.71057 6.14746 8.41504C5.91807 8.75992 5.45329 8.85341 5.1084 8.62402C4.76361 8.3946 4.67005 7.92981 4.89941 7.58496C5.17506 7.17046 5.33199 6.60112 5.33203 6C5.33203 5.39889 5.17502 4.8296 4.89941 4.41504C4.67026 4.07012 4.76353 3.60428 5.1084 3.375ZM3.37402 4.35449C3.73224 4.14686 4.19061 4.26885 4.39844 4.62695C4.8795 5.45654 4.87945 6.54636 4.39844 7.37598C4.19061 7.73416 3.73228 7.85614 3.37402 7.64844C3.01584 7.44062 2.89388 6.98228 3.10156 6.62402C3.31274 6.25975 3.31277 5.74315 3.10156 5.37891C2.89397 5.02066 3.01585 4.56227 3.37402 4.35449Z"
    fill="currentColor"
  />
</svg>
