<svg width="16" height="16" viewBox="0 0 16 16" fill="none" xmlns="http://www.w3.org/2000/svg" data-fui-icon="true">
  <path
    d="M8 0.525391C12.1282 0.525391 15.4754 3.87185 15.4756 8C15.4754 12.1281 12.1282 15.4756 8 15.4756C3.87198 15.4754 0.525602 12.128 0.525391 8C0.525602 3.87198 3.87198 0.525602 8 0.525391ZM8 2.27539C4.83848 2.2756 2.2756 4.83848 2.27539 8C2.2756 11.1615 4.83848 13.7254 8 13.7256C11.1617 13.7256 13.7254 11.1617 13.7256 8C13.7254 4.83835 11.1617 2.27539 8 2.27539ZM9.35938 3.8584C9.77613 3.64321 10.2892 3.80613 10.5049 4.22266C11.6675 6.47059 11.6674 9.52833 10.5049 11.7764C10.2893 12.1933 9.7763 12.3561 9.35938 12.1406C8.94257 11.9249 8.77949 11.412 8.99512 10.9951C9.90408 9.23698 9.90428 6.76189 8.99512 5.00391C8.77964 4.58702 8.94258 4.07407 9.35938 3.8584ZM7.1709 5.02637C7.58919 4.81405 8.10074 4.98131 8.31348 5.39941C9.11576 6.97816 9.11582 9.02188 8.31348 10.6006C8.10085 11.0189 7.58928 11.1859 7.1709 10.9736C6.75272 10.7608 6.58522 10.2484 6.79785 9.83008C7.35415 8.73532 7.35424 7.26364 6.79785 6.16895C6.58569 5.75067 6.75282 5.23905 7.1709 5.02637ZM5.07324 6.07031C5.50642 5.88982 6.00388 6.09422 6.18457 6.52734C6.56684 7.44446 6.56694 8.55657 6.18457 9.47363C6.00388 9.90646 5.50624 10.1117 5.07324 9.93164C4.64006 9.75098 4.43571 9.25254 4.61621 8.81934C4.82385 8.32107 4.82377 7.67995 4.61621 7.18164C4.43552 6.7484 4.64003 6.25104 5.07324 6.07031Z"
    fill="currentColor"
  />
</svg>
