<svg width="24" height="24" viewBox="0 0 24 24" fill="none" xmlns="http://www.w3.org/2000/svg" data-fui-icon="true">
  <path
    fill-rule="evenodd"
    clip-rule="evenodd"
    d="M13.8144 1.14014C14.1515 0.899578 14.6197 0.977874 14.8603 1.31494C16.9916 4.30035 18.037 8.16695 18.0371 11.9995C18.037 15.8322 16.9917 19.6996 14.8603 22.6851C14.6197 23.022 14.1515 23.1003 13.8144 22.8599C13.4774 22.6193 13.3992 22.1511 13.6396 21.814C15.5572 19.128 16.537 15.5803 16.5371 11.9995C16.537 8.41889 15.5571 4.87193 13.6396 2.18604C13.3991 1.84897 13.4775 1.38081 13.8144 1.14014ZM9.75779 4.19092C10.0874 3.94013 10.5577 4.00397 10.8086 4.3335C14.0496 8.5929 14.0495 15.407 10.8086 19.6665C10.5577 19.9958 10.0873 20.0606 9.75779 19.8101C9.42842 19.5593 9.36473 19.0879 9.61521 18.7583C12.4477 15.0355 12.4478 8.96438 9.61521 5.2417C9.36456 4.91221 9.42855 4.44181 9.75779 4.19092ZM6.08396 7.19971C6.4285 6.97015 6.89421 7.06335 7.124 7.40772C7.99251 8.71048 8.40518 10.3736 8.40525 11.9995C8.40524 13.6254 7.99245 15.2885 7.124 16.5913C6.89423 16.9359 6.42857 17.029 6.08396 16.7993C5.73949 16.5695 5.64629 16.1039 5.87595 15.7593C6.54769 14.7515 6.90524 13.3937 6.90525 11.9995C6.90518 10.6053 6.54775 9.24744 5.87595 8.23975C5.64642 7.89513 5.7394 7.42941 6.08396 7.19971Z"
    fill="currentColor"
  />
</svg>
