<svg width="32" height="32" viewBox="0 0 32 32" fill="none" xmlns="http://www.w3.org/2000/svg" data-fui-icon="true">
  <path
    d="M17.4922 0.733887C18.054 0.332835 18.8352 0.463173 19.2363 1.0249C22.2292 5.21702 23.6904 10.638 23.6904 16.0015C23.6904 21.3648 22.2291 26.785 19.2363 30.9771C18.8352 31.5389 18.054 31.6692 17.4922 31.2681C16.9305 30.8669 16.8001 30.0857 17.2012 29.5239C19.8375 25.8311 21.1904 20.9448 21.1904 16.0015C21.1904 11.058 19.8377 6.17092 17.2012 2.47803C16.8001 1.91619 16.9304 1.13501 17.4922 0.733887ZM12.3936 4.97021C12.9482 4.55927 13.7306 4.67546 14.1416 5.22998C16.3832 8.25532 17.4716 12.1551 17.4717 16.0015C17.4716 19.8478 16.3832 23.7477 14.1416 26.7729C13.7306 27.3272 12.9481 27.4445 12.3936 27.0337C11.8391 26.6228 11.7232 25.8393 12.1338 25.2847C14.0032 22.7614 14.9716 19.4079 14.9717 16.0015C14.9716 12.5949 14.0033 9.24157 12.1338 6.71826C11.723 6.16379 11.8394 5.38133 12.3936 4.97021ZM7.89062 9.15576C8.46502 8.77288 9.24109 8.92806 9.62402 9.50244C10.8588 11.3545 11.4404 13.7088 11.4404 16.0015C11.4404 18.2939 10.8586 20.6475 9.62402 22.4995C9.24108 23.0739 8.46504 23.2291 7.89062 22.8462C7.31638 22.4632 7.16105 21.6871 7.54395 21.1128C8.45063 19.7526 8.94038 17.9077 8.94043 16.0015C8.94042 14.0949 8.45082 12.2495 7.54395 10.8892C7.16102 10.3148 7.31622 9.5387 7.89062 9.15576Z"
    fill="currentColor"
  />
</svg>
