<svg width="12" height="12" viewBox="0 0 12 12" fill="none" xmlns="http://www.w3.org/2000/svg" data-fui-icon="true">
  <path
    d="M2.33203 7.00684C1.81603 7.6735 1.51758 8.42652 1.37012 9.12109L1.30957 9.45801C1.2214 10.0512 1.34261 10.5721 1.58887 11H1.25C0.559644 11 0 10.4404 0 9.75V9.25C0 8.74251 0.176293 8.17242 0.606445 7.72461C1.01721 7.29708 1.60392 7.0412 2.33203 7.00684ZM6 6.5C7.08565 6.50008 7.92082 6.92351 8.49902 7.55566C9.06008 8.16931 9.3505 8.94519 9.4541 9.6416C9.57307 10.4416 8.90619 10.9998 8.25 11H3.75C3.09386 10.9997 2.42695 10.4416 2.5459 9.6416L2.59375 9.37695C2.72648 8.75375 3.01015 8.09252 3.50098 7.55566C4.07916 6.9235 4.91438 6.50012 6 6.5ZM9.66797 7.00684C10.3961 7.0412 10.9828 7.29708 11.3936 7.72461C11.8237 8.17242 12 8.74251 12 9.25V9.75C12 10.4404 11.4404 11 10.75 11H10.4121C10.6583 10.5722 10.7786 10.0511 10.6904 9.45801C10.5742 8.67643 10.2686 7.78301 9.66797 7.00684ZM1.875 3.75C2.49632 3.75 3 4.25368 3 4.875C3 5.49632 2.49632 6 1.875 6C1.25368 6 0.75 5.49632 0.75 4.875C0.75 4.25368 1.25368 3.75 1.875 3.75ZM10.125 3.75C10.7463 3.75 11.25 4.25368 11.25 4.875C11.25 5.49632 10.7463 6 10.125 6C9.50368 6 9 5.49632 9 4.875C9 4.25368 9.50368 3.75 10.125 3.75ZM6.00098 1C7.24326 1.00042 8.25098 2.00762 8.25098 3.25C8.25098 4.49238 7.24326 5.49958 6.00098 5.5C4.75834 5.5 3.75098 4.49264 3.75098 3.25C3.75098 2.00736 4.75834 1 6.00098 1Z"
    fill="currentColor"
  />
</svg>
