<svg width="16" height="16" viewBox="0 0 16 16" fill="none" xmlns="http://www.w3.org/2000/svg" data-fui-icon="true">
  <path
    d="M3.27148 9.00293C2.99135 9.31519 2.75132 9.65147 2.55664 10.0049L2.38477 10.3467C1.95693 11.2799 2.07511 12.2484 2.5166 13H1.45117C0.691253 13 -0.182528 12.3337 0.0527344 11.334C0.212798 10.6539 0.56683 10.056 1.12305 9.63184C1.67754 9.20905 2.37901 9.00001 3.16797 9C3.20274 9 3.23722 9.00218 3.27148 9.00293ZM8 8.5C10.1831 8.50002 11.6555 9.67102 12.252 10.9717C12.4993 11.5112 12.3733 12.0615 12.0479 12.4424C11.7413 12.8008 11.2753 13 10.7979 13H5.20215C4.72465 13 4.2587 12.8008 3.95215 12.4424C3.6267 12.0615 3.5007 11.5112 3.74805 10.9717L3.87012 10.7295C4.53132 9.52913 5.95328 8.5 8 8.5ZM12.835 9C13.6238 9.00009 14.3256 9.20903 14.8799 9.63184C15.4358 10.056 15.7893 10.6541 15.9492 11.334C16.1843 12.3336 15.3107 13 14.5508 13H13.4834C13.9249 12.2484 14.043 11.2799 13.6152 10.3467C13.3961 9.86886 13.0974 9.41479 12.7285 9.00293C12.7637 9.00214 12.7992 9 12.835 9ZM2.75098 4.5C3.71746 4.50002 4.50098 5.28351 4.50098 6.25C4.50098 7.21649 3.71746 7.99998 2.75098 8C1.78448 8 1.00098 7.2165 1.00098 6.25C1.00098 5.2835 1.78448 4.5 2.75098 4.5ZM13.251 4.5C14.2175 4.50002 15.001 5.28351 15.001 6.25C15.001 7.21649 14.2175 7.99998 13.251 8C12.2845 8 11.501 7.2165 11.501 6.25C11.501 5.2835 12.2845 4.5 13.251 4.5ZM8.00098 2.25C9.51975 2.25002 10.751 3.48123 10.751 5C10.751 6.51877 9.51975 7.74998 8.00098 7.75C6.48219 7.75 5.25098 6.51878 5.25098 5C5.25098 3.48122 6.48219 2.25 8.00098 2.25Z"
    fill="currentColor"
  />
</svg>
