<svg width="32" height="32" viewBox="0 0 32 32" fill="none" xmlns="http://www.w3.org/2000/svg" data-fui-icon="true">
  <path
    fill-rule="evenodd"
    clip-rule="evenodd"
    d="M15.9971 17.7505C18.5727 17.7506 20.574 18.5366 22.0137 19.8071C22.9988 19.115 24.2967 18.7066 25.9102 18.7065C28.0086 18.7065 29.5591 19.4442 30.5771 20.562C31.574 21.6569 31.993 23.0428 31.9932 24.2495C31.9932 24.8018 31.5454 25.2495 30.9932 25.2495C30.4412 25.2492 29.9932 24.8016 29.9932 24.2495C29.993 23.476 29.7189 22.59 29.0986 21.9087C28.4993 21.2507 27.5077 20.7065 25.9102 20.7065C24.76 20.7066 23.929 20.9681 23.335 21.3325C24.3143 22.8191 24.749 24.5745 24.749 26.2505C24.7488 26.8026 24.3011 27.2505 23.749 27.2505C23.197 27.2504 22.7493 26.8025 22.749 26.2505C22.749 24.6296 22.2441 23.0043 21.1836 21.7993C20.1431 20.6174 18.4907 19.7506 15.9971 19.7505C13.5033 19.7505 11.8518 20.6176 10.8125 21.7993C9.75324 23.0041 9.24902 24.6292 9.24902 26.2505C9.24876 26.8026 8.80115 27.2505 8.24902 27.2505C7.69702 27.2504 7.24929 26.8025 7.24902 26.2505C7.24902 24.5755 7.68239 22.8207 8.66016 21.3345C8.06591 20.9695 7.23461 20.7066 6.08301 20.7065C4.48529 20.7066 3.4938 21.2505 2.89453 21.9087C2.27425 22.59 2.00012 23.476 2 24.2495C2 24.8017 1.55218 25.2494 1 25.2495C0.44782 25.2494 0 24.8017 0 24.2495C0.000113003 23.0428 0.419192 21.6569 1.41602 20.562C2.43407 19.4441 3.98444 18.7066 6.08301 18.7065C7.69767 18.7066 8.99602 19.1161 9.98145 19.8091C11.4203 18.5376 13.4207 17.7505 15.9971 17.7505ZM6.25 11.0005C8.04493 11.0005 9.5 12.4556 9.5 14.2505C9.49974 16.0452 8.04476 17.5005 6.25 17.5005C4.45524 17.5005 3.00026 16.0452 3 14.2505C3 12.4556 4.45507 11.0005 6.25 11.0005ZM25.75 11.0005C27.5449 11.0005 29 12.4556 29 14.2505C28.9997 16.0452 27.5448 17.5005 25.75 17.5005C23.9552 17.5005 22.5003 16.0452 22.5 14.2505C22.5 12.4556 23.9551 11.0005 25.75 11.0005ZM16.001 5.74951C18.9005 5.74951 21.251 8.10099 21.251 11.0005C21.2507 13.8998 18.9003 16.2505 16.001 16.2505C13.1016 16.2505 10.7512 13.8998 10.751 11.0005C10.751 8.10099 13.1015 5.74951 16.001 5.74951ZM6.25 13.0005C5.55964 13.0005 5 13.5601 5 14.2505C5.00026 14.9406 5.55981 15.5005 6.25 15.5005C6.94019 15.5005 7.49974 14.9406 7.5 14.2505C7.5 13.5601 6.94036 13.0005 6.25 13.0005ZM25.75 13.0005C25.0596 13.0005 24.5 13.5601 24.5 14.2505C24.5003 14.9406 25.0598 15.5005 25.75 15.5005C26.4402 15.5005 26.9997 14.9406 27 14.2505C27 13.5601 26.4404 13.0005 25.75 13.0005ZM16.001 7.75049C14.2061 7.75049 12.751 9.20556 12.751 11.0005C12.7512 12.7952 14.2062 14.2505 16.001 14.2505C17.7957 14.2505 19.2507 12.7952 19.251 11.0005C19.251 9.20556 17.7959 7.75049 16.001 7.75049Z"
    fill="currentColor"
  />
</svg>
