<svg width="33" height="32" viewBox="0 0 33 32" fill="none" xmlns="http://www.w3.org/2000/svg" data-fui-icon="true">
  <path
    fill-rule="evenodd"
    clip-rule="evenodd"
    d="M15.998 18.001C18.3303 18.001 20.1588 18.6986 21.501 19.8398C22.8357 20.975 23.6402 22.5064 24.0078 24.0986C24.3917 25.764 22.9559 27.001 21.5 27.001H10.5C9.04414 27.0009 7.60934 25.7646 7.99219 24.0996C8.35916 22.5075 9.16218 20.9751 10.4961 19.8398C11.8375 18.6985 13.6657 18.001 15.998 18.001ZM5.83789 18.957C6.72732 18.9571 7.51274 19.0849 8.19727 19.3145C7.17248 20.5038 6.50641 21.8887 6.13379 23.2871L6.04395 23.6504C5.73807 24.979 6.03122 26.1184 6.64844 27H2.25391C1.01143 27 0.0041701 25.9924 0.00390625 24.75V24.25C0.00401936 23.0975 0.404725 21.7736 1.35449 20.7305C2.32039 19.6701 3.80169 18.9571 5.83789 18.957ZM26.1729 18.957C28.2091 18.9572 29.6904 19.6699 30.6562 20.7305C31.606 21.7736 32.0067 23.0975 32.0068 24.25V24.75C32.0066 25.9923 30.9991 26.9997 29.7568 27H25.3525C25.9699 26.1182 26.2635 24.9785 25.957 23.6494C25.6063 22.1301 24.9142 20.6095 23.8018 19.3184C24.489 19.0862 25.2784 18.957 26.1729 18.957ZM7.00293 11.501C8.65952 11.5014 10.0039 12.8442 10.0039 14.501C10.0034 16.1573 8.65919 17.5005 7.00293 17.501C5.3465 17.5007 4.00248 16.1574 4.00195 14.501C4.00195 12.8441 5.34618 11.5012 7.00293 11.501ZM25.0068 11.501C26.6635 11.5013 28.0078 12.8442 28.0078 14.501C28.0073 16.1573 26.6632 17.5007 25.0068 17.501C23.3504 17.5007 22.0074 16.1574 22.0068 14.501C22.0068 12.8441 23.3501 11.5012 25.0068 11.501ZM16.0059 5.99902C18.7675 5.99914 21.0068 8.23948 21.0068 11.001C21.0063 13.762 18.7672 16.0009 16.0059 16.001C13.2444 16.001 11.0054 13.7621 11.0049 11.001C11.0049 8.23942 13.2441 5.99905 16.0059 5.99902Z"
    fill="currentColor"
  />
</svg>
