<svg width="16" height="16" viewBox="0 0 16 16" fill="none" xmlns="http://www.w3.org/2000/svg" data-fui-icon="true">
  <path
    fill-rule="evenodd"
    clip-rule="evenodd"
    d="M2.9531 9.50684C2.66996 9.89558 2.43912 10.3077 2.2656 10.7275C1.8642 11.6993 1.95034 12.6892 2.34177 13.5H1.45114C0.691224 13.5 -0.182556 12.8337 0.0527062 11.834C0.212771 11.1539 0.566805 10.556 1.12302 10.1318C1.62665 9.74784 2.25155 9.5417 2.9531 9.50684ZM8.00095 9C10.0287 9.0002 11.3598 10.2138 11.8877 11.4912C12.1112 12.0323 11.9743 12.5734 11.6494 12.9473C11.3412 13.3017 10.8778 13.5 10.4004 13.5H5.60056C5.12317 13.4999 4.65963 13.3017 4.35153 12.9473C4.02674 12.5734 3.88985 12.0321 4.11325 11.4912L4.22165 11.2529C4.81017 10.0669 6.09971 9.00016 8.00095 9ZM13.0478 9.50684C13.75 9.54149 14.3759 9.74748 14.8799 10.1318C15.4358 10.556 15.7892 11.1541 15.9492 11.834C16.1843 12.8336 15.3107 13.5 14.5508 13.5H13.6592C14.0508 12.6893 14.1374 11.7002 13.7363 10.7285C13.5626 10.3081 13.3316 9.89586 13.0478 9.50684ZM2.75095 5C3.71739 5.00006 4.50095 5.78354 4.50095 6.75C4.50095 7.71646 3.71739 8.49994 2.75095 8.5C1.78445 8.5 1.00095 7.7165 1.00095 6.75C1.00095 5.7835 1.78445 5 2.75095 5ZM13.2509 5C14.2174 5.00006 15.0009 5.78354 15.0009 6.75C15.0009 7.71646 14.2174 8.49994 13.2509 8.5C12.2844 8.5 11.5009 7.7165 11.5009 6.75C11.5009 5.7835 12.2844 5 13.2509 5ZM8.00095 2.25C9.51968 2.25006 10.7509 3.48126 10.7509 5C10.7509 6.51874 9.51968 7.74994 8.00095 7.75C6.48218 7.74998 5.25095 6.51877 5.25095 5C5.25095 3.48123 6.48218 2.25002 8.00095 2.25Z"
    fill="currentColor"
  />
</svg>
