<svg width="12" height="12" viewBox="0 0 12 12" fill="none" xmlns="http://www.w3.org/2000/svg" data-fui-icon="true">
  <path
    fill-rule="evenodd"
    clip-rule="evenodd"
    d="M6.00051 6.5C6.92627 6.50009 7.66219 6.80781 8.2134 7.28027C8.58053 7.09623 9.01265 7.00008 9.49953 7C10.5532 7 11.2042 7.54879 11.5611 8.08398C11.7325 8.34115 11.8372 8.59313 11.8989 8.77832C11.9302 8.87198 11.9512 8.95217 11.9654 9.01172C11.9724 9.0415 11.9781 9.06662 11.982 9.08594L11.9888 9.12012C11.989 9.12132 11.9886 9.12297 11.9888 9.12402L11.9898 9.125C11.9862 9.12604 11.9364 9.13551 11.2495 9.25L11.9898 9.12695C12.0577 9.5353 11.7818 9.92198 11.3736 9.99023C10.9651 10.0582 10.5784 9.78152 10.5103 9.37305V9.37598L10.5064 9.35938C10.501 9.33694 10.4916 9.29961 10.4761 9.25293C10.4441 9.1569 10.3915 9.03374 10.313 8.91602C10.1699 8.70139 9.94554 8.5 9.49953 8.5C9.35447 8.50004 9.23313 8.51566 9.13137 8.53809C9.38706 9.11165 9.50051 9.71929 9.50051 10.25C9.50051 10.6641 9.16453 10.9998 8.75051 11C8.3363 11 8.00051 10.6642 8.00051 10.25C8.00051 9.75561 7.84799 9.16933 7.52199 8.72656C7.2169 8.31251 6.74716 8.00011 6.00051 8C5.25374 8 4.78418 8.31253 4.47902 8.72656C4.15293 9.16935 4.00051 9.75555 4.00051 10.25C4.00051 10.6641 3.66453 10.9998 3.25051 11C2.8363 11 2.50051 10.6642 2.50051 10.25C2.50051 9.71941 2.61213 9.11153 2.8677 8.53809C2.76612 8.51579 2.64513 8.50003 2.50051 8.5C2.05446 8.5 1.83019 8.70137 1.68703 8.91602C1.60854 9.03376 1.55596 9.15689 1.52395 9.25293C1.50838 9.29964 1.49901 9.33694 1.49367 9.35938L1.48977 9.37598V9.37305C1.42167 9.78158 1.03501 10.0582 0.626485 9.99023C0.218206 9.92198 -0.0576315 9.5353 0.0102746 9.12695L0.750509 9.25C0.0509716 9.1334 0.0123431 9.12578 0.0102746 9.125L0.0112511 9.12402C0.0114214 9.12297 0.0110396 9.12133 0.0112511 9.12012L0.0180871 9.08594C0.021954 9.06662 0.0275946 9.04151 0.0346886 9.01172C0.0488731 8.95217 0.0698668 8.872 0.101095 8.77832C0.162837 8.59312 0.267528 8.34117 0.438985 8.08398C0.795867 7.54876 1.44684 7 2.50051 7C2.98706 7.00005 3.41869 7.0965 3.78567 7.28027C4.33703 6.80742 5.07419 6.5 6.00051 6.5ZM1.87551 3.75C2.49663 3.75024 3.00051 4.25383 3.00051 4.875C3.00051 5.49617 2.49663 5.99976 1.87551 6C1.25419 6 0.750509 5.49632 0.750509 4.875C0.750509 4.25368 1.25419 3.75 1.87551 3.75ZM10.1255 3.75C10.7466 3.75024 11.2505 4.25383 11.2505 4.875C11.2505 5.49617 10.7466 5.99976 10.1255 6C9.50419 6 9.00051 5.49632 9.00051 4.875C9.00051 4.25368 9.50419 3.75 10.1255 3.75ZM6.00051 1C7.24296 1.00022 8.25051 2.0075 8.25051 3.25C8.25051 4.4925 7.24296 5.49978 6.00051 5.5C4.75787 5.5 3.75051 4.49264 3.75051 3.25C3.75051 2.00736 4.75787 1 6.00051 1ZM6.00051 2.5C5.5863 2.5 5.25051 2.83579 5.25051 3.25C5.25051 3.66421 5.5863 4 6.00051 4C6.41453 3.99978 6.75051 3.66408 6.75051 3.25C6.75051 2.83592 6.41453 2.50022 6.00051 2.5Z"
    fill="currentColor"
  />
</svg>
