<svg width="24" height="24" viewBox="0 0 24 24" fill="none" xmlns="http://www.w3.org/2000/svg" data-fui-icon="true">
  <path
    fill-rule="evenodd"
    clip-rule="evenodd"
    d="M11.998 13.1284C13.9029 13.1284 15.424 13.5752 16.5566 14.3823C17.2824 13.9684 18.1816 13.7349 19.2471 13.7349C20.8894 13.7349 22.1094 14.3659 22.9043 15.2935C23.6736 16.1911 23.997 17.3087 23.9971 18.2495C23.9971 18.8017 23.5493 19.2494 22.9971 19.2495C22.4448 19.2495 21.9971 18.8018 21.9971 18.2495C21.997 17.7295 21.8093 17.0895 21.3857 16.5952C20.9875 16.1306 20.3318 15.7349 19.2471 15.7349C18.7433 15.7349 18.334 15.8061 18.002 15.9175C18.6291 16.9268 18.8915 18.0952 18.8916 19.2495C18.8916 19.8017 18.4437 20.2493 17.8916 20.2495C17.3393 20.2495 16.8916 19.8018 16.8916 19.2495C16.8915 18.1047 16.5498 17.1022 15.8418 16.3882C15.1395 15.6802 13.9498 15.1285 11.998 15.1284C10.0467 15.1285 8.85757 15.6803 8.15527 16.3882C7.44728 17.1022 7.10556 18.1047 7.10547 19.2495C7.10547 19.8017 6.65767 20.2494 6.10547 20.2495C5.55318 20.2495 5.10547 19.8018 5.10547 19.2495C5.10554 18.0957 5.36668 16.9274 5.99316 15.9185C5.66223 15.8076 5.25379 15.7349 4.75 15.7349C3.66525 15.7349 3.00954 16.1306 2.61133 16.5952C2.18772 17.0895 2.0001 17.7294 2 18.2495C2 18.8017 1.55221 19.2494 1 19.2495C0.447789 19.2494 0 18.8017 0 18.2495C9.79259e-05 17.3087 0.323494 16.1911 1.09277 15.2935C1.88772 14.366 3.10769 13.7349 4.75 13.7349C5.81281 13.7349 6.71177 13.9667 7.43945 14.3813C8.57192 13.5743 10.0933 13.1285 11.998 13.1284ZM4.5 7.50049C6.01878 7.50049 7.25 8.73171 7.25 10.2505C7.24974 11.769 6.01862 13.0005 4.5 13.0005C2.98138 13.0005 1.75026 11.769 1.75 10.2505C1.75 8.73171 2.98122 7.50049 4.5 7.50049ZM19.5 7.50049C21.0188 7.50049 22.25 8.73171 22.25 10.2505C22.2497 11.769 21.0186 13.0005 19.5 13.0005C17.9814 13.0005 16.7503 11.769 16.75 10.2505C16.75 8.73171 17.9812 7.50049 19.5 7.50049ZM12 3.75049C14.3472 3.75049 16.25 5.65328 16.25 8.00049C16.2497 10.3475 14.347 12.2505 12 12.2505C9.65295 12.2505 7.75026 10.3475 7.75 8.00049C7.75 5.65328 9.65279 3.75049 12 3.75049ZM4.5 9.50049C4.08579 9.50049 3.75 9.83627 3.75 10.2505C3.75026 10.6645 4.08595 11.0005 4.5 11.0005C4.91405 11.0005 5.24974 10.6645 5.25 10.2505C5.25 9.83627 4.91421 9.50049 4.5 9.50049ZM19.5 9.50049C19.0858 9.50049 18.75 9.83627 18.75 10.2505C18.7503 10.6645 19.0859 11.0005 19.5 11.0005C19.9141 11.0005 20.2497 10.6645 20.25 10.2505C20.25 9.83627 19.9142 9.50049 19.5 9.50049ZM12 5.75049C10.7574 5.75049 9.75 6.75785 9.75 8.00049C9.75026 9.2429 10.7575 10.2505 12 10.2505C13.2425 10.2505 14.2497 9.2429 14.25 8.00049C14.25 6.75785 13.2426 5.75049 12 5.75049Z"
    fill="currentColor"
  />
</svg>
