<svg width="33" height="32" viewBox="0 0 33 32" fill="none" xmlns="http://www.w3.org/2000/svg" data-fui-icon="true">
  <path
    fill-rule="evenodd"
    clip-rule="evenodd"
    d="M15.999 18.001C18.3312 18.0011 20.1598 18.6987 21.502 19.8398C22.8367 20.975 23.6412 22.5064 24.0088 24.0986C24.3926 25.7639 22.9568 27.0008 21.501 27.001H10.501C9.04523 27.0007 7.61034 25.7645 7.99316 24.0996C8.36013 22.5075 9.16316 20.9751 10.4971 19.8398C11.8384 18.6985 13.6669 18.0011 15.999 18.001ZM5.83887 18.957C6.7283 18.9571 7.51372 19.0849 8.19824 19.3145C7.17343 20.5038 6.50739 21.8888 6.13477 23.2871L6.04492 23.6504C5.73905 24.979 6.03214 26.1184 6.64941 27H2.25488C1.0124 27 0.00417035 25.9924 0.00390625 24.75V24.25C0.00401934 23.0975 0.405701 21.7736 1.35547 20.7305C2.32136 19.6701 3.80267 18.9571 5.83887 18.957ZM26.1738 18.957C28.2101 18.9572 29.6914 19.6699 30.6572 20.7305C31.607 21.7736 32.0077 23.0975 32.0078 24.25V24.75C32.0075 25.9923 31.0001 26.9997 29.7578 27H25.3535C25.9708 26.1182 26.2644 24.9784 25.958 23.6494C25.6073 22.1301 24.9152 20.6095 23.8027 19.3184C24.49 19.0862 25.2793 18.957 26.1738 18.957ZM7.00391 11.5C8.6605 11.5004 10.0049 12.8442 10.0049 14.501C10.0044 16.1573 8.66017 17.5005 7.00391 17.501C5.34748 17.5007 4.00443 16.1574 4.00391 14.501C4.00391 12.8441 5.34715 11.5002 7.00391 11.5ZM25.0078 11.5C26.6645 11.5003 28.0088 12.8442 28.0088 14.501C28.0083 16.1573 26.6642 17.5007 25.0078 17.501C23.3514 17.5007 22.0083 16.1574 22.0078 14.501C22.0078 12.8441 23.3511 11.5002 25.0078 11.5ZM16.0068 6.00098C18.7684 6.00122 21.0078 8.23956 21.0078 11.001C21.0073 13.7619 18.7681 16.0007 16.0068 16.001C13.2455 16.0008 11.0064 13.762 11.0059 11.001C11.0059 8.2395 13.2452 6.00112 16.0068 6.00098Z"
    fill="currentColor"
  />
</svg>
