<svg width="20" height="20" viewBox="0 0 20 20" fill="none" xmlns="http://www.w3.org/2000/svg" data-fui-icon="true">
  <path
    fill-rule="evenodd"
    clip-rule="evenodd"
    d="M9.99707 10.7505C11.4991 10.7505 12.7208 11.1244 13.6562 11.7769C14.2742 11.436 15.0291 11.2486 15.9092 11.2485C17.3324 11.2485 18.3873 11.8353 19.0664 12.6665C19.7177 13.4638 19.9922 14.4446 19.9922 15.2505C19.9919 15.8025 19.5443 16.2505 18.9922 16.2505C18.4402 16.2504 17.9925 15.8025 17.9922 15.2505C17.9922 14.8555 17.8467 14.3352 17.5176 13.9321C17.2158 13.5628 16.7281 13.2485 15.9092 13.2485C15.5888 13.2486 15.3205 13.2855 15.0957 13.3442C15.6216 14.2509 15.8418 15.278 15.8418 16.2505C15.8415 16.8025 15.3938 17.2503 14.8418 17.2505C14.2897 17.2505 13.8421 16.8025 13.8418 16.2505C13.8418 15.3379 13.5673 14.4719 13 13.8462C12.4505 13.2404 11.5273 12.7505 9.99707 12.7505C8.46683 12.7505 7.54366 13.2405 6.99414 13.8462C6.42679 14.4719 6.15234 15.3379 6.15234 16.2505C6.15208 16.8025 5.70447 17.2505 5.15234 17.2505C4.60022 17.2505 4.15261 16.8025 4.15234 16.2505C4.15234 15.2784 4.37203 14.2516 4.89746 13.3452C4.6729 13.2864 4.40437 13.2485 4.08301 13.2485C3.26413 13.2486 2.77638 13.5628 2.47461 13.9321C2.14558 14.3352 2 14.8556 2 15.2505C1.99974 15.8025 1.55208 16.2504 1 16.2505C0.447919 16.2504 0.000263768 15.8025 0 15.2505C0 14.4446 0.274565 13.4638 0.925781 12.6665C1.60491 11.8353 2.65987 11.2486 4.08301 11.2485C4.9611 11.2486 5.71497 11.4369 6.33496 11.7788C7.27082 11.1251 8.49349 10.7505 9.99707 10.7505ZM3.625 5.75049C4.93668 5.75049 6 6.81381 6 8.12549C5.99974 9.43694 4.93651 10.5005 3.625 10.5005C2.31349 10.5005 1.25026 9.43694 1.25 8.12549C1.25 6.81381 2.31332 5.75049 3.625 5.75049ZM16.375 5.75049C17.6867 5.75049 18.75 6.81381 18.75 8.12549C18.7497 9.43694 17.6865 10.5005 16.375 10.5005C15.0635 10.5005 14.0003 9.43694 14 8.12549C14 6.81381 15.0633 5.75049 16.375 5.75049ZM10 2.75049C12.0711 2.75049 13.75 4.42942 13.75 6.50049C13.7497 8.57133 12.0709 10.2505 10 10.2505C7.92909 10.2505 6.25026 8.57133 6.25 6.50049C6.25 4.42942 7.92893 2.75049 10 2.75049ZM3.625 7.75049C3.41789 7.75049 3.25 7.91838 3.25 8.12549C3.25026 8.33237 3.41806 8.50049 3.625 8.50049C3.83194 8.50049 3.99974 8.33237 4 8.12549C4 7.91838 3.83211 7.75049 3.625 7.75049ZM16.375 7.75049C16.1679 7.75049 16 7.91838 16 8.12549C16.0003 8.33237 16.1681 8.50049 16.375 8.50049C16.5819 8.50049 16.7497 8.33237 16.75 8.12549C16.75 7.91838 16.5821 7.75049 16.375 7.75049ZM10 4.75049C9.0335 4.75049 8.25 5.53399 8.25 6.50049C8.25026 7.46676 9.03366 8.25049 10 8.25049C10.9663 8.25049 11.7497 7.46676 11.75 6.50049C11.75 5.53399 10.9665 4.75049 10 4.75049Z"
    fill="currentColor"
  />
</svg>
