<svg width="16" height="16" viewBox="0 0 16 16" fill="none" xmlns="http://www.w3.org/2000/svg" data-fui-icon="true">
  <path
    d="M7.99902 8.5C9.23779 8.50001 10.256 8.88154 11.0127 9.45312C11.5046 9.16329 12.1144 9 12.834 9C13.8823 9.00016 14.6943 9.34285 15.2422 9.91309C15.7783 10.4712 15.9999 11.184 16 11.8213C16 12.2354 15.6641 12.5712 15.25 12.5713C14.8359 12.5711 14.5 12.2354 14.5 11.8213C14.4999 11.5173 14.3926 11.1942 14.1602 10.9521C13.9392 10.7223 13.5424 10.5002 12.834 10.5C12.5185 10.5 12.2651 10.544 12.0625 10.6123C12.3797 11.1414 12.5469 11.7115 12.5469 12.25C12.5469 12.6642 12.211 13 11.7969 13C11.3827 13 11.0469 12.6642 11.0469 12.25C11.0469 11.4631 10.1344 10 7.99902 10C5.86363 10 4.95118 11.4631 4.95117 12.25C4.95117 12.6642 4.61539 13 4.20117 13C3.78697 13 3.45117 12.6642 3.45117 12.25C3.45117 11.7117 3.6175 11.1413 3.93457 10.6123C3.73316 10.5447 3.48138 10.5 3.16699 10.5C2.45852 10.5 2.06188 10.7223 1.84082 10.9521C1.60826 11.1942 1.50006 11.5172 1.5 11.8213C1.5 12.2354 1.16408 12.5711 0.75 12.5713C0.335906 12.5711 0 12.2354 0 11.8213C5.62558e-05 11.1839 0.2225 10.4713 0.758789 9.91309C1.30677 9.34283 2.11843 9.00001 3.16699 9C3.88467 9.00004 4.49494 9.16047 4.98828 9.45117C5.74465 8.88076 6.76178 8.5 7.99902 8.5ZM2.75 4.5C3.7165 4.5 4.5 5.2835 4.5 6.25C4.5 7.2165 3.7165 8 2.75 8C1.7835 8 1 7.2165 1 6.25C1 5.2835 1.7835 4.5 2.75 4.5ZM13.25 4.5C14.2165 4.5 15 5.2835 15 6.25C15 7.2165 14.2165 8 13.25 8C12.2835 8 11.5 7.2165 11.5 6.25C11.5 5.2835 12.2835 4.5 13.25 4.5ZM8 2.25C9.51878 2.25 10.75 3.48122 10.75 5C10.75 6.51878 9.51878 7.75 8 7.75C6.48122 7.75 5.25 6.51878 5.25 5C5.25 3.48122 6.48122 2.25 8 2.25ZM2.75 6C2.61193 6 2.5 6.11193 2.5 6.25C2.5 6.38807 2.61193 6.5 2.75 6.5C2.88807 6.5 3 6.38807 3 6.25C3 6.11193 2.88807 6 2.75 6ZM13.25 6C13.1119 6 13 6.11193 13 6.25C13 6.38807 13.1119 6.5 13.25 6.5C13.3881 6.5 13.5 6.38807 13.5 6.25C13.5 6.11193 13.3881 6 13.25 6ZM8 3.75C7.30964 3.75 6.75 4.30964 6.75 5C6.75 5.69036 7.30964 6.25 8 6.25C8.69036 6.25 9.25 5.69036 9.25 5C9.25 4.30964 8.69036 3.75 8 3.75Z"
    fill="currentColor"
  />
</svg>
