<svg width="20" height="20" viewBox="0 0 20 20" fill="none" xmlns="http://www.w3.org/2000/svg" data-fui-icon="true">
  <path
    d="M3.83301 11.4985C4.13071 11.4985 4.41169 11.524 4.67676 11.5669C3.86422 12.4246 3.36622 13.4496 3.11426 14.4751C2.86633 15.4849 3.08154 16.3408 3.54004 17.0005H1.75C0.783664 17.0005 0.00026384 16.2168 0 15.2505C0 14.4959 0.258939 13.5728 0.870117 12.8247C1.50209 12.0512 2.48536 11.4985 3.83301 11.4985ZM9.99707 11.0005C11.5628 11.0005 12.8016 11.4173 13.7197 12.1353C14.6354 12.8514 15.1757 13.8232 15.4238 14.8335C15.7354 16.1045 14.627 17.0003 13.5918 17.0005H6.40234C5.36702 17.0005 4.25864 16.1046 4.57031 14.8335C4.8185 13.8232 5.35869 12.8514 6.27441 12.1353C7.19258 11.4173 8.43129 11.0005 9.99707 11.0005ZM16.165 11.4985C17.5127 11.4985 18.496 12.0513 19.1279 12.8247C19.7391 13.5728 19.998 14.4959 19.998 15.2505C19.9978 16.2168 19.2144 17.0005 18.248 17.0005H16.4541C16.9126 16.3408 17.1278 15.4849 16.8799 14.4751C16.6278 13.4492 16.1295 12.4239 15.3164 11.5659C15.5827 11.5225 15.8655 11.4986 16.165 11.4985ZM3.75 5.7583C4.99264 5.7583 6 6.76566 6 8.0083C5.9998 9.25077 4.99252 10.2583 3.75 10.2583C2.50748 10.2583 1.5002 9.25077 1.5 8.0083C1.5 6.76566 2.50736 5.7583 3.75 5.7583ZM16.25 5.7583C17.4926 5.7583 18.5 6.76566 18.5 8.0083C18.4998 9.25077 17.4925 10.2583 16.25 10.2583C15.0075 10.2583 14.0002 9.25077 14 8.0083C14 6.76566 15.0074 5.7583 16.25 5.7583ZM10 2.99951C11.933 2.99951 13.5 4.56749 13.5 6.50049C13.4997 8.43326 11.9328 10.0005 10 10.0005C8.06717 10.0005 6.50026 8.43326 6.5 6.50049C6.5 4.56749 8.067 2.99951 10 2.99951Z"
    fill="currentColor"
  />
</svg>
