<svg width="24" height="24" viewBox="0 0 24 24" fill="none" xmlns="http://www.w3.org/2000/svg" data-fui-icon="true">
  <path
    d="M4.5 13.9849C4.97754 13.9849 5.41762 14.0354 5.82129 14.1265C4.95142 15.0137 4.3974 16.0837 4.1084 17.2007C3.83643 18.2524 4.09535 19.2488 4.63281 19.9995H1.75C0.81586 19.9995 -0.0696297 19.2198 0.0664062 18.1567C0.203259 17.0876 0.567871 16.0398 1.30176 15.2515C2.05421 14.4432 3.12386 13.9849 4.5 13.9849ZM11.998 13.3784C13.8476 13.3784 15.3071 13.8058 16.3916 14.5708C17.4816 15.3398 18.1345 16.4092 18.4365 17.5767C18.6108 18.2505 18.3961 18.8803 17.9883 19.3188C17.59 19.747 17.0075 19.9995 16.3916 19.9995H7.60547C6.98957 19.9995 6.40713 19.7469 6.00879 19.3188C5.60099 18.8803 5.38628 18.2505 5.56055 17.5767C5.86253 16.4092 6.51546 15.3398 7.60547 14.5708C8.68991 13.8059 10.1487 13.3785 11.998 13.3784ZM19.5 13.9849C20.8761 13.9849 21.9458 14.4432 22.6982 15.2515C23.4321 16.0398 23.7958 17.0877 23.9326 18.1567C24.0686 19.2197 23.1841 19.9995 22.25 19.9995H19.3643C19.9016 19.249 20.1604 18.2532 19.8887 17.2017C19.5996 16.0839 19.0446 15.0133 18.1738 14.1255C18.5784 14.0339 19.0204 13.9849 19.5 13.9849ZM4.5 8.00244C5.88071 8.00244 7 9.12173 7 10.5024C6.99993 11.8831 5.88067 13.0024 4.5 13.0024C3.11933 13.0024 2.00007 11.8831 2 10.5024C2 9.12173 3.11929 8.00244 4.5 8.00244ZM19.5 8.00244C20.8807 8.00244 22 9.12173 22 10.5024C21.9999 11.8831 20.8807 13.0024 19.5 13.0024C18.1193 13.0024 17.0001 11.8831 17 10.5024C17 9.12173 18.1193 8.00244 19.5 8.00244ZM12 3.99951C14.2091 3.99951 16 5.79135 16 8.00049C15.9997 10.2094 14.209 12.0005 12 12.0005C9.79102 12.0005 8.00026 10.2094 8 8.00049C8 5.79135 9.79086 3.99951 12 3.99951Z"
    fill="currentColor"
  />
</svg>
