<svg width="16" height="16" viewBox="0 0 16 16" fill="none" xmlns="http://www.w3.org/2000/svg" data-fui-icon="true">
  <path
    d="M7.99902 8.5C9.24816 8.50001 10.2737 8.88723 11.0322 9.4668C11.1755 9.36925 11.3779 9.25337 11.6221 9.17871C12.0351 9.05244 12.3793 9.00002 12.833 9C13.8816 9 14.6932 9.34284 15.2412 9.91309C15.7775 10.4713 15.9999 11.1839 16 11.8213C16 12.2355 15.6642 12.5713 15.25 12.5713C14.8358 12.5712 14.5 12.2355 14.5 11.8213C14.4999 11.5172 14.3927 11.1942 14.1602 10.9521C13.9392 10.7221 13.542 10.5 12.833 10.5C12.5263 10.5 12.3302 10.5306 12.0625 10.6123C12.3797 11.1415 12.5469 11.7115 12.5469 12.25C12.5469 12.6642 12.211 13 11.7969 13C11.3827 13 11.0469 12.6642 11.0469 12.25C11.0469 11.4631 10.1344 10 7.99902 10C5.86364 10 4.95118 11.4631 4.95117 12.25C4.95117 12.6642 4.61539 13 4.20117 13C3.78698 13 3.45117 12.6642 3.45117 12.25C3.45117 11.7114 3.61723 11.1405 3.93457 10.6113C3.6684 10.5303 3.47257 10.5 3.16699 10.5C2.45803 10.5 2.06082 10.7221 1.83984 10.9521C1.6073 11.1942 1.50006 11.5172 1.5 11.8213C1.5 12.2355 1.16417 12.5712 0.75 12.5713C0.335786 12.5713 0 12.2355 0 11.8213C5.62569e-05 11.1839 0.222501 10.4713 0.758789 9.91309C1.30678 9.34284 2.11842 9 3.16699 9C3.62072 9.00002 3.96485 9.05244 4.37793 9.17871C4.62175 9.25325 4.82353 9.36934 4.9668 9.4668C5.72531 8.88747 6.75021 8.50001 7.99902 8.5ZM2.75 4.5C3.7165 4.5 4.5 5.2835 4.5 6.25C4.5 7.2165 3.7165 8 2.75 8C1.78351 7.99999 1 7.21649 1 6.25C1 5.28351 1.78351 4.50001 2.75 4.5ZM13.25 4.5C14.2165 4.5 15 5.2835 15 6.25C15 7.2165 14.2165 8 13.25 8C12.2835 7.99999 11.5 7.21649 11.5 6.25C11.5 5.28351 12.2835 4.50001 13.25 4.5ZM8 2.25C9.51878 2.25 10.75 3.48122 10.75 5C10.75 6.51878 9.51878 7.75 8 7.75C6.48122 7.74999 5.25 6.51878 5.25 5C5.25 3.48122 6.48122 2.25001 8 2.25ZM2.75 6C2.61194 6.00001 2.5 6.11193 2.5 6.25C2.5 6.38807 2.61194 6.49999 2.75 6.5C2.88807 6.5 3 6.38807 3 6.25C3 6.11193 2.88807 6 2.75 6ZM13.25 6C13.1119 6.00001 13 6.11193 13 6.25C13 6.38807 13.1119 6.49999 13.25 6.5C13.3881 6.5 13.5 6.38807 13.5 6.25C13.5 6.11193 13.3881 6 13.25 6ZM8 3.75C7.30965 3.75001 6.75 4.30965 6.75 5C6.75 5.69035 7.30965 6.24999 8 6.25C8.69036 6.25 9.25 5.69036 9.25 5C9.25 4.30964 8.69036 3.75 8 3.75Z"
    fill="currentColor"
  />
</svg>
