<svg width="20" height="20" viewBox="0 0 20 20" fill="none" xmlns="http://www.w3.org/2000/svg" data-fui-icon="true">
  <path
    fill-rule="evenodd"
    clip-rule="evenodd"
    d="M3.83301 11.4985C4.26662 11.4985 4.6651 11.5487 5.0293 11.6382C4.34277 12.4446 3.91922 13.3793 3.6875 14.2983L3.63281 14.5298C3.41849 15.5116 3.6352 16.3504 4.08594 17.0005H1.75C0.783664 17.0005 0.00026384 16.2168 0 15.2505C0 14.4959 0.258939 13.5728 0.870117 12.8247C1.50209 12.0512 2.48536 11.4985 3.83301 11.4985ZM10 11.0005C11.4264 11.0006 12.557 11.4304 13.3887 12.1626C14.2113 12.887 14.6855 13.857 14.9023 14.8491C15.1765 16.1052 14.0942 17.0003 13.0498 17.0005H6.9502C5.90573 17.0004 4.82347 16.1054 5.09766 14.8491C5.31451 13.8571 5.78881 12.887 6.61133 12.1626C7.44303 11.4305 8.57372 11.0005 10 11.0005ZM16.165 11.4985C17.5127 11.4985 18.496 12.0513 19.1279 12.8247C19.7391 13.5728 19.998 14.4959 19.998 15.2505C19.9978 16.2168 19.2144 17.0005 18.248 17.0005H15.9141C16.365 16.3504 16.5824 15.5116 16.3682 14.5298C16.1511 13.5366 15.7146 12.51 14.9688 11.6353C15.3324 11.546 15.7314 11.4986 16.165 11.4985ZM3.5 5.99951C4.60457 5.99951 5.5 6.89592 5.5 8.00049C5.49974 9.10483 4.60441 10.0005 3.5 10.0005C2.39559 10.0005 1.50026 9.10483 1.5 8.00049C1.5 6.89592 2.39543 5.99951 3.5 5.99951ZM16.5 5.99951C17.6046 5.99951 18.5 6.89592 18.5 8.00049C18.4997 9.10483 17.6044 10.0005 16.5 10.0005C15.3956 10.0005 14.5003 9.10483 14.5 8.00049C14.5 6.89592 15.3954 5.99951 16.5 5.99951ZM10 2.74951C11.9328 2.74971 13.5 4.31761 13.5 6.25049C13.4997 8.18314 11.9327 9.75029 10 9.75049C8.06737 9.75025 6.50026 8.18312 6.5 6.25049C6.5 4.31764 8.0672 2.74975 10 2.74951Z"
    fill="currentColor"
  />
</svg>
