<svg width="24" height="24" viewBox="0 0 24 24" fill="none" xmlns="http://www.w3.org/2000/svg" data-fui-icon="true">
  <path
    fill-rule="evenodd"
    clip-rule="evenodd"
    d="M4.50021 13.9849C4.88224 13.9849 5.24066 14.0186 5.57541 14.0776C4.88361 14.9165 4.42799 15.8729 4.16134 16.8452L4.08908 17.1294C3.82215 18.2589 4.02955 19.229 4.50314 19.9995H1.75021C0.816158 19.9994 -0.0693901 19.2197 0.0666166 18.1567C0.203468 17.0877 0.56816 16.0398 1.30197 15.2515C2.05437 14.4434 3.12429 13.9849 4.50021 13.9849ZM11.9748 13.3784C13.6853 13.3785 15.0401 13.8134 16.0451 14.5903C17.0503 15.3675 17.6419 16.4372 17.9143 17.5894C18.2458 18.9922 17.0239 19.9993 15.8498 19.9995H8.09982C6.92559 19.9995 5.70377 18.9924 6.03537 17.5894C6.30777 16.4372 6.89926 15.3675 7.90451 14.5903C8.90962 13.8135 10.2643 13.3784 11.9748 13.3784ZM19.5002 13.9849C20.8761 13.985 21.9461 14.4434 22.6985 15.2515C23.4322 16.0398 23.796 17.0877 23.9328 18.1567C24.0688 19.2196 23.1842 19.9993 22.2502 19.9995H19.4465C19.9202 19.229 20.1275 18.2589 19.8606 17.1294C19.6082 16.0617 19.1331 15.003 18.3762 14.0835C18.7246 14.0189 19.0995 13.9849 19.5002 13.9849ZM4.49923 7.50049C5.87995 7.50049 6.99923 8.61978 6.99923 10.0005C6.99897 11.381 5.87978 12.5005 4.49923 12.5005C3.11884 12.5003 1.9995 11.3809 1.99923 10.0005C1.99923 8.61989 3.11867 7.50067 4.49923 7.50049ZM19.4992 7.50049C20.8799 7.50049 21.9992 8.61978 21.9992 10.0005C21.999 11.381 20.8798 12.5005 19.4992 12.5005C18.1188 12.5003 16.9995 11.3809 16.9992 10.0005C16.9992 8.61989 18.1187 7.50067 19.4992 7.50049ZM12.0002 4.00049C14.2091 4.00084 16.0002 5.79156 16.0002 8.00049C15.9999 10.2092 14.2089 12.0001 12.0002 12.0005C9.79123 12.0005 8.00047 10.2094 8.00021 8.00049C8.00021 5.79135 9.79107 4.00049 12.0002 4.00049Z"
    fill="currentColor"
  />
</svg>
