<svg width="32" height="32" viewBox="0 0 32 32" fill="none" xmlns="http://www.w3.org/2000/svg" data-fui-icon="true">
  <path
    d="M15.9971 18.0005C18.3959 18.0006 20.277 18.6939 21.6592 19.8315C23.0356 20.9645 23.8672 22.4969 24.248 24.0942C24.6456 25.7633 23.2026 27.0005 21.749 27.0005H10.249C8.79536 27.0005 7.3521 25.7632 7.74902 24.0942C8.12924 22.4971 8.96034 20.9646 10.3359 19.8315C11.7174 18.6937 13.5981 18.0005 15.9971 18.0005ZM5.83496 18.9565C6.88615 18.9566 7.79219 19.134 8.55762 19.4487C7.47332 20.6064 6.76921 21.9871 6.38086 23.3979L6.29102 23.7476C5.97697 25.068 6.33974 26.1821 7.03223 26.9995H2.25195C1.00931 26.9995 0.00195312 25.9922 0.00195312 24.7495V24.2495C0.00206631 23.097 0.40291 21.7741 1.35254 20.731C2.31828 19.6704 3.79879 18.9565 5.83496 18.9565ZM26.165 18.9565C28.2012 18.9565 29.6817 19.6704 30.6475 20.731C31.5971 21.7741 31.9979 23.097 31.998 24.2495V24.7495C31.998 25.9922 30.9907 26.9995 29.748 26.9995H24.9678C25.6603 26.182 26.0228 25.0675 25.708 23.7466C25.343 22.2157 24.6139 20.7023 23.4404 19.4497C24.2063 19.1345 25.1129 18.9566 26.165 18.9565ZM6 11.4995C7.65685 11.4995 9 12.8436 9 14.5005C8.99974 16.1571 7.65669 17.5005 6 17.5005C4.34331 17.5005 3.00026 16.1571 3 14.5005C3 12.8436 4.34315 11.4995 6 11.4995ZM26 11.4995C27.6569 11.4995 29 12.8436 29 14.5005C28.9997 16.1571 27.6567 17.5005 26 17.5005C24.3433 17.5005 23.0003 16.1571 23 14.5005C23 12.8436 24.3431 11.4995 26 11.4995ZM16.001 6.00049C18.7624 6.00049 21.001 8.23906 21.001 11.0005C21.0007 13.7617 18.7622 16.0005 16.001 16.0005C13.2397 16.0005 11.0012 13.7617 11.001 11.0005C11.001 8.23906 13.2396 6.00049 16.001 6.00049Z"
    fill="currentColor"
  />
</svg>
