<svg width="32" height="32" viewBox="0 0 32 32" fill="none" xmlns="http://www.w3.org/2000/svg" data-fui-icon="true">
  <path
    d="M28.7041 3.68652C28.8516 3.69322 29.0308 3.71518 29.2178 3.75977C29.4625 3.81816 29.7764 3.92995 30.0498 4.15039L30.0537 4.15332C30.5273 4.54051 30.6398 5.05459 30.6836 5.2959L30.6855 5.30273L30.6865 5.31055C30.724 5.54293 30.7767 6.0668 30.7324 6.51172C30.342 10.6139 28.6564 20.5074 27.8027 25.0566C27.4303 27.0567 26.5983 28.1886 25.373 28.3008C24.4035 28.3895 23.5834 28.0612 22.8652 27.6406C22.5085 27.4317 22.1606 27.1899 21.8262 26.9531C21.6552 26.832 21.4873 26.7125 21.3193 26.5947L20.8096 26.248C19.6698 25.5028 18.7771 24.898 17.8975 24.3008C17.018 23.7037 16.1517 23.1141 15.0557 22.3945C14.3802 21.9509 13.8797 21.4939 13.6113 20.9814C13.3145 20.4144 13.3393 19.8546 13.5596 19.3545C13.7571 18.9061 14.1068 18.515 14.4316 18.1855C14.5999 18.0149 14.7828 17.8404 14.958 17.6719C15.1364 17.5003 15.3118 17.33 15.4824 17.1533C15.6886 16.9394 17.4731 15.3092 19.1553 13.7256C19.7 13.2128 20.2382 12.6991 20.7217 12.2305C20.4974 12.3773 20.255 12.5358 19.9951 12.707C18.1867 13.8986 15.5285 15.6737 12.0186 18.0342C10.9221 18.786 9.8378 19.218 8.7832 19.1953C8.23311 19.1835 7.48952 19.0351 6.7627 18.8535C6.20463 18.7141 5.62107 18.5455 5.08203 18.3789L4.55957 18.2139C3.81236 17.9713 2.99563 17.744 2.42578 17.4688C2.13194 17.3268 1.81784 17.1344 1.58691 16.8516C1.33189 16.5389 1.20783 16.1506 1.2627 15.7178H1.26367C1.3309 15.1787 1.70933 14.7834 2.08301 14.5068C2.47325 14.2181 2.999 13.9539 3.62598 13.7041L8.79492 11.4648C13.4944 9.43341 16.7875 8.02599 18.6719 7.24414L18.6729 7.24316C22.2514 5.76001 24.4297 4.88203 25.8369 4.37305C27.2313 3.86871 27.9477 3.6956 28.5674 3.68457L28.7041 3.68652ZM28.5928 5.18457C28.2416 5.19096 27.7284 5.28479 26.3477 5.78418C25.3205 6.15568 23.8559 6.73487 21.6758 7.62793L19.2471 8.62891C16.7479 9.66582 11.7421 11.8157 4.22363 15.0801L4.21191 15.085L4.20117 15.0889C3.61762 15.3201 3.2203 15.5318 2.97559 15.7129C2.84 15.8132 2.78179 15.8812 2.75879 15.9131C2.79491 15.9516 2.88348 16.0241 3.07812 16.1182C3.52549 16.3342 4.15831 16.5065 5.02246 16.7871H5.02148C5.6698 16.997 6.42519 17.2233 7.12598 17.3984C7.84428 17.5779 8.44698 17.6884 8.81543 17.6963C9.43665 17.7096 10.213 17.4546 11.1709 16.7979L11.1768 16.7939C14.6901 14.4312 17.3545 12.6513 19.1699 11.4551C20.0771 10.8573 20.7752 10.4024 21.2627 10.0938C21.5057 9.93987 21.7017 9.81889 21.8467 9.7334C21.9183 9.69114 21.9845 9.65372 22.041 9.62402C22.0636 9.61215 22.1802 9.54836 22.3086 9.51953L22.4854 9.48438C22.5621 9.47232 22.6535 9.46215 22.749 9.46289C22.949 9.46449 23.2408 9.51321 23.4961 9.7373H23.4971C23.4984 9.73846 23.4997 9.74003 23.501 9.74121C23.5024 9.74243 23.5044 9.74388 23.5059 9.74512H23.5049C23.7631 9.97459 23.8438 10.2672 23.8701 10.4443C23.8962 10.6204 23.8846 10.7946 23.8545 10.9248L23.8564 10.9258C23.8261 11.0575 23.7677 11.1598 23.7402 11.2061C23.7053 11.2649 23.6656 11.3212 23.6289 11.3701C23.5552 11.4684 23.4618 11.5787 23.3594 11.6934C23.1524 11.9251 22.8711 12.2163 22.5469 12.541C21.8963 13.1927 21.0411 14.0101 20.1836 14.8174C19.3249 15.6258 18.458 16.4293 17.7842 17.0537C17.4469 17.3663 17.1592 17.6337 16.9434 17.835C16.8354 17.9356 16.7466 18.0186 16.6797 18.082C16.6462 18.1137 16.6185 18.14 16.5977 18.1602C16.5875 18.17 16.5795 18.1784 16.5732 18.1846C16.5702 18.1876 16.5672 18.1896 16.5654 18.1914C16.5646 18.1922 16.5639 18.1929 16.5635 18.1934V18.1943L16.5625 18.1953C16.3708 18.3938 16.1774 18.5805 15.998 18.7529C15.8154 18.9286 15.6507 19.0855 15.5 19.2383C15.1871 19.5556 15.0111 19.781 14.9326 19.959C14.877 20.0852 14.8766 20.163 14.9404 20.2852C15.0331 20.4622 15.2815 20.7482 15.8789 21.1406C16.986 21.8674 17.8616 22.4631 18.7402 23.0596C19.6189 23.6561 20.5018 24.2547 21.6299 24.9922C22.0075 25.2388 22.3667 25.4979 22.6924 25.7285C23.0255 25.9644 23.3274 26.1735 23.623 26.3467C24.2099 26.6903 24.7075 26.855 25.2363 26.8066C25.3888 26.7927 25.9835 26.6329 26.3281 24.7812V24.7803C27.1828 20.2255 28.8571 10.3954 29.2402 6.37012V6.36523C29.2664 6.10719 29.2345 5.73685 29.208 5.56348C29.1794 5.40621 29.1469 5.34974 29.1055 5.31543C29.0676 5.28618 28.9895 5.24746 28.8691 5.21875C28.7502 5.19042 28.6408 5.18376 28.5928 5.18457Z"
    fill="currentColor"
  />
</svg>
