<svg width="16" height="16" viewBox="0 0 16 16" fill="none" xmlns="http://www.w3.org/2000/svg" data-fui-icon="true">
  <path
    fill-rule="evenodd"
    clip-rule="evenodd"
    d="M13.3916 3.04396C13.4831 3.04242 13.6864 3.06484 13.8193 3.17189C13.9297 3.26211 13.961 3.38405 13.9765 3.46974C13.9904 3.55539 14.0096 3.75089 13.9941 3.90333C13.8284 5.64495 13.1082 9.87142 12.7422 11.8223C12.5886 12.6473 12.2834 12.9249 11.9883 12.9522C11.346 13.011 10.8588 12.529 10.2373 12.1231C9.26523 11.4875 8.71592 11.0917 7.77146 10.4717C6.68044 9.7551 7.38818 9.36138 8.00974 8.71778C8.17201 8.54931 11.0002 5.98545 11.0537 5.75294C11.0606 5.72354 11.0674 5.61561 11.0019 5.5586C10.9382 5.50141 10.8434 5.52067 10.7744 5.53614C10.6759 5.55818 9.12348 6.58233 6.11228 8.60743C5.67209 8.90924 5.27312 9.05652 4.91404 9.04884C4.52045 9.04039 3.76083 8.82631 3.19627 8.64357C2.50585 8.41939 1.95497 8.30051 2.00291 7.91993C2.02708 7.72167 2.30202 7.51887 2.82517 7.31153C6.04692 5.91271 8.19465 4.98952 9.26853 4.54396C12.3382 3.2717 12.9755 3.05135 13.3916 3.04396Z"
    fill="currentColor"
  />
</svg>
