<svg
  width="20"
  height="20"
  viewBox="0 0 20 20"
  fill="none"
  xmlns="http://www.w3.org/2000/svg"
  data-fui-icon="true"
>
  <path
    d="M3.09981 9.08135C7.39558 7.2162 10.2594 5.98648 11.6913 5.39238C15.7845 3.69593 16.6339 3.40129 17.1887 3.39142C17.3107 3.38936 17.5824 3.41942 17.7597 3.56237C17.907 3.68285 17.9485 3.84577 17.9692 3.96004C17.9876 4.07432 18.0129 4.33476 17.9923 4.53807C17.7713 6.86029 16.8113 12.4955 16.3232 15.0966C16.1183 16.1972 15.7108 16.5661 15.3171 16.6022C14.4607 16.6807 13.8115 16.0386 12.9827 15.4972C11.6867 14.6498 10.9546 14.1225 9.69537 13.2957C8.24044 12.3402 9.18428 11.815 10.0131 10.9568C10.2294 10.7321 14.0003 7.31418 14.0717 7.00417C14.0809 6.96539 14.0902 6.82082 14.0026 6.74464C13.9175 6.66822 13.7907 6.69439 13.6987 6.71503C13.5674 6.74441 11.4979 8.10928 7.48296 10.8094C6.89592 11.2119 6.36414 11.4081 5.88529 11.3978C5.36041 11.3865 4.34754 11.1013 3.59475 10.8576C2.6739 10.5586 1.93948 10.4005 2.00394 9.89268C2.03617 9.62834 2.40227 9.3578 3.09981 9.08135Z"
    fill="currentColor"
  />
</svg>
