<svg
  width="32"
  height="32"
  viewBox="0 0 32 32"
  fill="none"
  xmlns="http://www.w3.org/2000/svg"
  data-fui-icon="true"
>
  <path
    d="M3.92467 14.3923C11.4423 11.1283 16.454 8.9763 18.9597 7.93663C26.1229 4.96783 27.6094 4.45222 28.5803 4.43495C28.7938 4.43134 29.2692 4.48394 29.5794 4.73412C29.8372 4.94494 29.9098 5.23006 29.9461 5.43004C29.9783 5.63002 30.0226 6.0858 29.9865 6.44159C29.5997 10.5055 27.9197 20.3671 27.0656 24.919C26.7071 26.845 25.9939 27.4907 25.305 27.5538C23.8063 27.6911 22.6702 26.5674 21.2198 25.6201C18.9517 24.1372 17.6706 23.2143 15.4669 21.7675C12.9208 20.0953 14.5725 19.1762 16.0229 17.6743C16.4015 17.2812 23.0005 11.2998 23.1254 10.7573C23.1416 10.6894 23.1578 10.4364 23.0046 10.3031C22.8556 10.1694 22.6338 10.2151 22.4727 10.2513C22.243 10.3027 18.6213 12.6912 11.5952 17.4164C10.5679 18.1208 9.63724 18.4641 8.79926 18.4461C7.88072 18.4264 6.1082 17.9273 4.79081 17.5008C3.17932 16.9776 1.89409 16.7009 2.0069 15.8122C2.0633 15.3496 2.70397 14.8761 3.92467 14.3923Z"
    fill="currentColor"
  />
</svg>
