<svg width="24" height="24" viewBox="0 0 24 24" fill="none" xmlns="http://www.w3.org/2000/svg" data-fui-icon="true">
  <path
    d="M20.9863 3.73914C21.139 3.73663 21.4779 3.77459 21.6992 3.953C21.8834 4.10359 21.936 4.30723 21.9619 4.45007C21.985 4.59298 22.0161 4.91866 21.9902 5.17273C21.7139 8.07561 20.5144 15.1197 19.9043 18.371C19.6482 19.7465 19.1385 20.2077 18.6465 20.2528C17.5761 20.3509 16.7644 19.5486 15.7285 18.8719C14.1085 17.8128 13.1932 17.1533 11.6191 16.12C9.80047 14.9256 10.9806 14.2689 12.0166 13.1962C12.287 12.9154 17.0006 8.64227 17.0898 8.25476C17.1014 8.20561 17.112 8.02547 17.0029 7.93054C16.8965 7.83537 16.738 7.86765 16.623 7.89343C16.4566 7.93183 13.8696 9.63815 8.85352 13.0116C8.11974 13.5147 7.45499 13.7598 6.85645 13.7469C6.20029 13.7328 4.93407 13.3767 3.99316 13.0721C2.84235 12.6985 1.9246 12.5006 2.00488 11.8661C2.04517 11.5357 2.50307 11.197 3.375 10.8514C8.74455 8.52007 12.3245 6.98272 14.1143 6.24011C19.2305 4.11964 20.2929 3.75147 20.9863 3.73914Z"
    fill="currentColor"
  />
</svg>
