<svg width="20" height="20" viewBox="0 0 20 20" fill="none" xmlns="http://www.w3.org/2000/svg" data-fui-icon="true">
  <path
    fill-rule="evenodd"
    clip-rule="evenodd"
    d="M17.1885 3.39161C17.3105 3.38954 17.5825 3.41955 17.7598 3.56251C17.907 3.68288 17.948 3.84572 17.9688 3.95997C17.9872 4.07423 18.0129 4.33479 17.9922 4.53809C17.7712 6.86031 16.8113 12.4956 16.3233 15.0967C16.1184 16.1971 15.711 16.5664 15.3174 16.6025C14.461 16.681 13.8113 16.0384 12.9825 15.4971C11.6866 14.6498 10.9545 14.1225 9.69535 13.2959C8.24064 12.3405 9.18401 11.8151 10.0127 10.957C10.2291 10.7324 14 7.31392 14.0713 7.00391C14.0805 6.96481 14.0899 6.82122 14.003 6.74512C13.918 6.66885 13.7912 6.69422 13.6993 6.71485C13.568 6.74423 11.4982 8.10956 7.48343 10.8096C6.89656 11.212 6.36452 11.4076 5.88578 11.3975C5.36089 11.3862 4.34755 11.1011 3.59476 10.8574C2.67398 10.5585 1.93948 10.4004 2.00394 9.89258C2.03632 9.62831 2.40232 9.35744 3.09964 9.08106C7.39541 7.21591 10.2596 5.98668 11.6914 5.39258C15.7839 3.69644 16.6337 3.40157 17.1885 3.39161Z"
    fill="currentColor"
  />
</svg>
