<svg width="12" height="12" viewBox="0 0 12 12" fill="none" xmlns="http://www.w3.org/2000/svg" data-fui-icon="true">
  <path
    fill-rule="evenodd"
    clip-rule="evenodd"
    d="M10.6165 1.37598C10.6656 1.38112 10.7192 1.38935 10.7737 1.40234C10.8533 1.42133 10.9574 1.45448 11.0608 1.51562L11.1634 1.58691L11.1653 1.58887C11.342 1.73332 11.416 1.91284 11.4495 2.03516L11.472 2.13574L11.4739 2.14453C11.4889 2.23734 11.5097 2.44572 11.4915 2.63184L11.4925 2.63281C11.3519 4.10976 10.7474 7.65342 10.4427 9.27734C10.3053 10.0142 9.97167 10.5686 9.36845 10.624C8.95415 10.6619 8.61104 10.5194 8.33427 10.3574C8.19747 10.2773 8.06517 10.1853 7.9456 10.1006C7.82128 10.0126 7.70927 9.93134 7.59013 9.85352C7.18155 9.58638 6.86129 9.36952 6.54716 9.15625L5.53446 8.47754C5.28142 8.3113 5.06371 8.12141 4.94071 7.88672C4.79892 7.61558 4.81136 7.34077 4.91532 7.10449C5.00429 6.90264 5.15589 6.73668 5.27372 6.61719C5.33645 6.55358 5.40475 6.48869 5.4661 6.42969C5.48502 6.41149 5.50248 6.3918 5.52079 6.37402C5.2663 6.54473 4.99461 6.72444 4.70829 6.91699C4.29535 7.20012 3.86088 7.38247 3.41728 7.37305C3.19274 7.36818 2.90463 7.3093 2.64384 7.24414C2.37151 7.17608 2.08396 7.09001 1.84208 7.01172V7.01074C1.59336 6.93 1.27246 6.8408 1.05009 6.7334C0.932884 6.67673 0.785793 6.58945 0.672159 6.4502C0.542921 6.2916 0.479038 6.09084 0.506144 5.87207H0.505167C0.540525 5.58336 0.740296 5.39176 0.890909 5.28027C1.05168 5.1613 1.25792 5.05868 1.48759 4.9668L4.84501 3.51562C5.7414 3.13073 6.41479 2.84481 6.86454 2.6582L8.43778 2.01367C8.85653 1.84569 9.17972 1.72083 9.43388 1.62891C9.93344 1.44823 10.221 1.37386 10.4837 1.36914L10.6165 1.37598ZM10.4925 2.36914C10.4066 2.37204 10.2485 2.39763 9.77372 2.56934C9.29046 2.74413 8.52821 3.0502 7.24735 3.58105C6.35674 3.95059 4.57097 4.71803 1.88603 5.88379L1.87821 5.8877L1.87138 5.89062C1.83325 5.90574 1.79844 5.92238 1.76591 5.93652C1.81875 5.95373 1.87477 5.97301 1.93583 5.99219C2.00277 6.0132 2.07612 6.03537 2.15067 6.05957C2.37872 6.13338 2.64283 6.21264 2.88603 6.27344C3.14103 6.33715 3.33522 6.37077 3.43876 6.37305C3.59356 6.37626 3.82339 6.31249 4.14384 6.09277L4.14677 6.09082C5.4017 5.24685 6.35485 4.61047 7.00419 4.18262C7.32838 3.96901 7.57931 3.8057 7.75517 3.69434C7.8424 3.6391 7.91418 3.59388 7.96903 3.56152C7.99601 3.54561 8.02405 3.52977 8.04911 3.5166C8.05535 3.51319 8.12289 3.47668 8.20146 3.45898L8.2786 3.44336C8.31562 3.43755 8.36218 3.43226 8.41142 3.43262C8.51707 3.43346 8.68675 3.45972 8.83525 3.59277H8.83427C8.98267 3.72491 9.02578 3.89039 9.03935 3.98145C9.05263 4.07128 9.04788 4.16255 9.03056 4.23828L9.03153 4.23926C9.01252 4.32185 8.97654 4.38371 8.96317 4.40625C8.94496 4.43693 8.92531 4.46422 8.90946 4.48535C8.87746 4.52801 8.83946 4.57321 8.80107 4.61621C8.72287 4.70377 8.61899 4.81176 8.50224 4.92871C8.2673 5.16403 7.95921 5.45748 7.65263 5.74609C7.34525 6.03545 7.03483 6.32291 6.79423 6.5459C6.67361 6.65768 6.5712 6.75362 6.49442 6.8252C6.45614 6.86089 6.42482 6.89015 6.40165 6.91211C6.37606 6.93636 6.36701 6.94483 6.36747 6.94434V6.94531C6.29578 7.01955 6.22361 7.0887 6.15946 7.15039C6.09312 7.21419 6.0367 7.26756 5.98564 7.31934C5.92137 7.38452 5.88284 7.43084 5.85966 7.46191C5.89367 7.49847 5.95911 7.56 6.08329 7.6416C6.4803 7.90224 6.79508 8.11619 7.10868 8.3291C7.42213 8.54191 7.73626 8.75459 8.137 9.0166L8.52372 9.28516C8.64221 9.36905 8.74322 9.43793 8.83915 9.49414C9.0191 9.59951 9.14355 9.63318 9.25907 9.62695C9.26389 9.62226 9.27228 9.61578 9.28153 9.60352C9.32783 9.54204 9.40293 9.39616 9.45927 9.09375L9.46025 9.09277C9.76566 7.46507 10.3607 3.9637 10.4964 2.53809L10.4974 2.53516C10.5 2.50824 10.5003 2.46461 10.4974 2.41309C10.4964 2.39753 10.4937 2.38252 10.4925 2.36914Z"
    fill="currentColor"
  />
</svg>
