<svg width="16" height="16" viewBox="0 0 16 16" fill="none" xmlns="http://www.w3.org/2000/svg" data-fui-icon="true">
  <path
    d="M13.3916 3.04395C13.4831 3.04241 13.6864 3.06482 13.8193 3.17188C13.9297 3.2621 13.961 3.38404 13.9766 3.46973C13.9904 3.55538 14.0096 3.75088 13.9941 3.90332C13.8284 5.64494 13.1082 9.87141 12.7422 11.8223C12.5886 12.6473 12.2834 12.9249 11.9883 12.9521C11.3461 13.011 10.8588 12.529 10.2373 12.123C9.26525 11.4875 8.71594 11.0917 7.77148 10.4717C6.68046 9.75509 7.3882 9.36137 8.00977 8.71777C8.17203 8.5493 11.0002 5.98544 11.0537 5.75293C11.0606 5.72353 11.0674 5.6156 11.002 5.55859C10.9382 5.5014 10.8434 5.52066 10.7744 5.53613C10.676 5.55817 9.1235 6.58232 6.1123 8.60742C5.67211 8.90923 5.27314 9.05651 4.91406 9.04883C4.52048 9.04038 3.76085 8.8263 3.19629 8.64355C2.50587 8.41938 1.95499 8.3005 2.00293 7.91992C2.0271 7.72166 2.30204 7.51886 2.8252 7.31152C6.04694 5.91269 8.19467 4.98951 9.26855 4.54395C12.3383 3.27169 12.9755 3.05134 13.3916 3.04395Z"
    fill="currentColor"
  />
</svg>
