<svg width="16" height="16" viewBox="0 0 16 16" fill="none" xmlns="http://www.w3.org/2000/svg" data-fui-icon="true">
  <path
    d="M10.3701 0C11.2702 0.000117341 11.9999 0.729828 12 1.62988V3.78906L11.9941 3.93164C11.9324 4.6379 11.4167 5.23161 10.7119 5.38281L8.58594 5.83789C8.53412 6.50341 8.5 7.22602 8.5 8C8.5 8.77357 8.53414 9.49585 8.58594 10.1611L10.7119 10.6172C11.4635 10.7784 11.9996 11.4434 12 12.2109V14.3701C11.9999 15.2702 11.2702 15.9999 10.3701 16H7.43164C6.77885 16 6.10311 15.6964 5.73047 15.0586C5.09923 13.978 4 11.5817 4 8C4 4.41832 5.09923 2.02197 5.73047 0.941406C6.10311 0.303555 6.77885 1.35254e-06 7.43164 0H10.3701ZM7.35645 1.50391C7.19036 1.52302 7.07944 1.60494 7.02539 1.69727C6.49942 2.59757 5.5 4.73592 5.5 8C5.5 11.2641 6.49942 13.4024 7.02539 14.3027C7.07944 14.3951 7.19036 14.477 7.35645 14.4961L7.43164 14.5H10.3701C10.4239 14.5 10.4705 14.4675 10.4902 14.4209L10.5 14.3701V12.2109C10.4998 12.1494 10.4567 12.0967 10.3975 12.084L7.72852 11.5117C7.4091 11.4432 7.17116 11.1757 7.13965 10.8506C7.05713 9.99907 7 9.04435 7 8C7 6.95531 7.05707 6.00026 7.13965 5.14844C7.17117 4.82328 7.40911 4.55578 7.72852 4.4873L10.3975 3.91602C10.4419 3.90644 10.4772 3.87443 10.4922 3.83301L10.5 3.78906V1.62988C10.4999 1.55818 10.4418 1.50006 10.3701 1.5H7.43164L7.35645 1.50391Z"
    fill="currentColor"
  />
</svg>
