<svg width="16" height="16" viewBox="0 0 16 16" fill="none" xmlns="http://www.w3.org/2000/svg" data-fui-icon="true">
  <path
    fill-rule="evenodd"
    clip-rule="evenodd"
    d="M13.544 2.42676C13.6039 2.43306 13.6689 2.44312 13.7354 2.45898C13.8324 2.48215 13.959 2.52354 14.086 2.59863L14.212 2.68555L14.2159 2.68848C14.4335 2.86664 14.5237 3.08761 14.5645 3.2373L14.5918 3.35938L14.5938 3.37109C14.6121 3.48477 14.6393 3.73945 14.6163 3.9668C14.4467 5.74296 13.7218 9.99154 13.3565 11.9385C13.1911 12.8251 12.7867 13.5063 12.045 13.5742C11.5403 13.6204 11.1235 13.4468 10.7891 13.251C10.6238 13.1542 10.4649 13.0441 10.3213 12.9424L9.89555 12.6465C9.40477 12.3256 9.01977 12.0656 8.64262 11.8096C8.2656 11.5536 7.89614 11.302 7.42876 10.9951C7.12358 10.7947 6.85768 10.5637 6.70708 10.2764C6.53276 9.94343 6.54924 9.60534 6.6768 9.31543C6.78555 9.06882 6.97079 8.86719 7.11235 8.72363C7.14851 8.68697 7.18626 8.64963 7.22368 8.61328C6.98227 8.77532 6.72885 8.94455 6.46489 9.12207C5.96699 9.46338 5.44002 9.68543 4.90044 9.67383C4.62798 9.66795 4.28094 9.59581 3.96782 9.51758C3.64019 9.43572 3.29469 9.33239 3.00395 9.23828H3.00297C2.70652 9.14203 2.31983 9.03318 2.05083 8.90332C1.90888 8.83476 1.72787 8.72885 1.58794 8.55762C1.42792 8.36151 1.34863 8.11155 1.38286 7.84082H1.38383C1.42857 7.48584 1.67349 7.25194 1.85551 7.11719C2.0551 6.9695 2.31111 6.8429 2.59477 6.73047C5.80524 5.33658 7.95195 4.4148 9.02934 3.96777C10.5616 3.33273 11.5016 2.95336 12.1123 2.73242C12.7125 2.51537 13.061 2.42366 13.3809 2.41797L13.544 2.42676ZM13.3702 3.6709C13.2655 3.67809 13.0673 3.71683 12.5381 3.9082C12.2485 4.01296 11.8748 4.15676 11.3819 4.35449L9.50786 5.12207C8.43939 5.5654 6.29633 6.4858 3.07426 7.88477L3.05473 7.89258C3.03101 7.90199 3.00823 7.91181 2.98637 7.9209C3.03238 7.9356 3.08066 7.95169 3.13188 7.96777C3.2121 7.99295 3.29923 8.01978 3.38872 8.04883L3.82329 8.18262C3.97304 8.22645 4.12485 8.26926 4.27055 8.30566C4.57664 8.38214 4.80664 8.42122 4.92778 8.42383C5.10629 8.42757 5.37665 8.35379 5.75883 8.0918L5.76372 8.08887L7.75005 6.75684C8.32129 6.37525 8.80184 6.05555 9.19145 5.79883C9.58037 5.54257 9.88156 5.34668 10.0928 5.21289C10.1977 5.14646 10.2854 5.09278 10.3516 5.05371C10.3841 5.03457 10.4177 5.01508 10.4483 4.99902C10.4555 4.99504 10.5396 4.94875 10.6377 4.92676C10.6679 4.91998 10.7739 4.89461 10.8946 4.89551C11.0251 4.89655 11.2356 4.92826 11.42 5.09375H11.419C11.6033 5.25809 11.6573 5.46321 11.6739 5.5752C11.6905 5.68815 11.6848 5.80333 11.6622 5.89844L11.6612 5.89746C11.6372 5.99825 11.5943 6.07331 11.5782 6.10059C11.5557 6.1384 11.532 6.17251 11.5127 6.19824C11.4737 6.25029 11.4272 6.30558 11.3809 6.35742C11.2866 6.46298 11.1607 6.59207 11.0206 6.73242C10.7383 7.01513 10.369 7.36848 10.001 7.71484C9.63212 8.06212 9.25942 8.40727 8.97075 8.6748C8.82626 8.80872 8.70335 8.92304 8.61137 9.00879C8.56541 9.05164 8.52779 9.087 8.50005 9.11328C8.47331 9.13861 8.46178 9.14965 8.46001 9.15137L8.45903 9.15234C8.37283 9.24158 8.28684 9.32553 8.21001 9.39941C8.13035 9.47601 8.06293 9.53978 8.002 9.60156C7.93588 9.66862 7.89198 9.71784 7.8643 9.75293C7.86816 9.7569 7.87153 9.76228 7.87602 9.7666C7.92482 9.81348 8.00052 9.87546 8.1143 9.9502C8.59104 10.2632 8.96834 10.5198 9.34477 10.7754C9.72087 11.0307 10.0975 11.2854 10.5782 11.5996C10.7461 11.7093 10.9076 11.8253 11.044 11.9219C11.1864 12.0227 11.3066 12.1059 11.4209 12.1729C11.6302 12.2953 11.7728 12.3342 11.9024 12.3291C11.9065 12.3245 11.9127 12.3188 11.919 12.3105C11.9713 12.2412 12.0607 12.0699 12.128 11.709V11.708C12.4944 9.75505 13.2093 5.55462 13.3721 3.84473V3.84082C13.3752 3.81049 13.3766 3.7596 13.3731 3.69824C13.3726 3.68899 13.3708 3.67956 13.3702 3.6709Z"
    fill="currentColor"
  />
</svg>
