<svg width="32" height="32" viewBox="0 0 32 32" fill="none" xmlns="http://www.w3.org/2000/svg" data-fui-icon="true">
  <path
    fill-rule="evenodd"
    clip-rule="evenodd"
    d="M28.5801 4.43538C28.7936 4.43177 29.2689 4.48413 29.5791 4.73421C29.837 4.94504 29.91 5.23052 29.9463 5.4305C29.9786 5.63067 30.0224 6.08578 29.9864 6.44124C29.5996 10.5051 27.9196 20.3669 27.0655 24.9188C26.7069 26.8448 25.9936 27.4905 25.3047 27.5535C23.8062 27.6907 22.6701 26.5673 21.2198 25.62C18.9517 24.1371 17.6705 23.2141 15.4668 21.7674C12.9211 20.0954 14.5722 19.1763 16.0225 17.6746C16.401 17.2817 22.9965 11.3031 23.125 10.7576C23.1412 10.6898 23.1577 10.4369 23.0049 10.3035C22.8559 10.1698 22.6338 10.2147 22.4727 10.2508C22.2429 10.3023 18.6208 12.6916 11.5948 17.4168C10.5676 18.121 9.63671 18.4641 8.79887 18.4461C7.88023 18.4262 6.10821 17.9272 4.79105 17.5008C3.17967 16.9776 1.89427 16.7009 2.00687 15.8123C2.06328 15.3497 2.70414 14.8762 3.92484 14.3924C11.4424 11.1284 16.4542 8.97602 18.96 7.93636C26.1223 4.96789 27.6093 4.45272 28.5801 4.43538Z"
    fill="currentColor"
  />
</svg>
