<svg
  width="20"
  height="20"
  viewBox="0 0 20 20"
  fill="none"
  xmlns="http://www.w3.org/2000/svg"
  data-fui-icon="true"
>
  <path
    d="M12.4343 6.40295L12.5725 7.1401L12.5725 7.1401L12.4343 6.40295ZM9.45226 6.96208L9.31405 6.22492C8.99524 6.2847 8.75099 6.54265 8.70867 6.86424L9.45226 6.96208ZM9.25002 10L10 10L9.25002 10ZM9.45225 13.0379L8.70866 13.1358C8.75097 13.4574 8.99522 13.7153 9.31403 13.7751L9.45225 13.0379ZM12.4343 13.5971L12.2961 14.3342L12.2961 14.3342L12.4343 13.5971ZM8.23936 17.594L7.61811 18.0142L8.23936 17.594ZM8.23936 2.40598L7.61811 1.9858L7.61811 1.9858L8.23936 2.40598ZM12.25 1L10.75 1L10.75 2.5L12.25 2.5L12.25 1ZM14 2.75C14 1.7835 13.2165 1 12.25 1L12.25 2.5C12.3881 2.5 12.5 2.61193 12.5 2.75L14 2.75ZM14 5.42007L14 2.75L12.5 2.75L12.5 5.42007L14 5.42007ZM12.5725 7.1401C13.4002 6.98491 14 6.2622 14 5.42007L12.5 5.42007C12.5 5.54038 12.4143 5.64362 12.2961 5.66579L12.5725 7.1401ZM9.59048 7.69923L12.5725 7.1401L12.2961 5.66579L9.31405 6.22492L9.59048 7.69923ZM10 10C10 8.9527 10.077 7.96319 10.1959 7.05991L8.70867 6.86424C8.58234 7.8244 8.50002 8.87967 8.50002 10L10 10ZM10.1958 12.9401C10.077 12.0368 10 11.0473 10 10L8.50002 10C8.50001 11.1203 8.58233 12.1756 8.70866 13.1358L10.1958 12.9401ZM9.31403 13.7751L12.2961 14.3342L12.5725 12.8599L9.59046 12.3008L9.31403 13.7751ZM12.2961 14.3342C12.4143 14.3564 12.5 14.4596 12.5 14.5799L14 14.5799C14 13.7378 13.4002 13.0151 12.5725 12.8599L12.2961 14.3342ZM12.5 14.5799L12.5 17.25L14 17.25L14 14.5799L12.5 14.5799ZM12.5 17.25C12.5 17.3881 12.3881 17.5 12.25 17.5L12.25 19C13.2165 19 14 18.2165 14 17.25L12.5 17.25ZM12.25 17.5L10.75 17.5L10.75 19L12.25 19L12.25 17.5ZM10.75 17.5L9.75 17.5L9.75 19L10.75 19L10.75 17.5ZM9.58391 19L9.75 19L9.75 17.5L9.58391 17.5L9.58391 19ZM7.61811 18.0142C8.08671 18.707 8.86033 19 9.58391 19L9.58391 17.5C9.24016 17.5 8.98996 17.3651 8.86061 17.1738L7.61811 18.0142ZM5.50002 10C5.50002 14.2279 6.81221 16.8227 7.61811 18.0142L8.86061 17.1738C8.20407 16.2031 7.00002 13.897 7.00002 10L5.50002 10ZM7.61811 1.9858C6.81221 3.17735 5.50002 5.77211 5.50002 10L7.00002 10C7.00002 6.10299 8.20407 3.79687 8.86061 2.82616L7.61811 1.9858ZM9.58391 1C8.86033 1 8.08671 1.29295 7.61811 1.9858L8.86061 2.82616C8.98996 2.6349 9.24016 2.5 9.58391 2.5L9.58391 1ZM9.75 1L9.58391 1L9.58391 2.5L9.75 2.5L9.75 1ZM10.75 1L9.75 1L9.75 2.5L10.75 2.5L10.75 1Z"
    fill="currentColor"
  />
</svg>
