<svg width="12" height="12" viewBox="0 0 12 12" fill="none" xmlns="http://www.w3.org/2000/svg" data-fui-icon="true">
  <path
    d="M10.4927 1.87006C10.5689 1.86876 10.7393 1.88715 10.8501 1.9765C10.9419 2.05164 10.968 2.1532 10.981 2.22455C10.9925 2.29589 11.0084 2.45887 10.9956 2.58588C10.8575 4.03726 10.2567 7.55983 9.95166 9.18549C9.8236 9.8732 9.56877 10.1034 9.32275 10.1259C8.78771 10.1747 8.38163 9.77374 7.86377 9.43549C7.05406 8.90608 6.59686 8.57605 5.81006 8.05951C4.90072 7.46229 5.4903 7.13399 6.0083 6.5976C6.14585 6.45513 8.49711 4.32372 8.54443 4.12787C8.55021 4.10364 8.55609 4.01339 8.50146 3.96576C8.44831 3.91806 8.36952 3.93431 8.31201 3.9472C8.22997 3.96556 6.93638 4.81835 4.42725 6.5058C4.06035 6.75736 3.7275 6.8804 3.42822 6.87396C3.10014 6.86688 2.46703 6.68836 1.99658 6.53607C1.42111 6.34923 0.962157 6.24992 1.00244 5.93256C1.02286 5.76749 1.25155 5.59834 1.68701 5.42572C4.37186 4.26 6.16222 3.49136 7.05713 3.12006C9.61453 2.06013 10.1459 1.87633 10.4927 1.87006Z"
    fill="currentColor"
  />
</svg>
