<svg width="12" height="12" viewBox="0 0 12 12" fill="none" xmlns="http://www.w3.org/2000/svg" data-fui-icon="true">
  <path
    fill-rule="evenodd"
    clip-rule="evenodd"
    d="M10.4927 1.87006C10.569 1.86877 10.7393 1.88715 10.8501 1.9765C10.9419 2.05164 10.968 2.1532 10.981 2.22455C10.9925 2.29589 11.0085 2.45887 10.9956 2.58588C10.8575 4.03726 10.2567 7.55983 9.95168 9.18549C9.82363 9.8732 9.5688 10.1034 9.32278 10.1259C8.78773 10.1747 8.38165 9.77374 7.86379 9.43549C7.05408 8.90608 6.59689 8.57605 5.81008 8.05951C4.90075 7.46229 5.49032 7.13399 6.00832 6.5976C6.14587 6.45513 8.49713 4.32372 8.54446 4.12787C8.55024 4.10364 8.55611 4.01339 8.50149 3.96576C8.44833 3.91806 8.36954 3.93431 8.31203 3.94721C8.22999 3.96557 6.9364 4.81835 4.42727 6.5058C4.06037 6.75736 3.72752 6.8804 3.42825 6.87396C3.10016 6.86689 2.46705 6.68836 1.9966 6.53607C1.42113 6.34923 0.962179 6.24993 1.00246 5.93256C1.02288 5.76749 1.25157 5.59834 1.68703 5.42572C4.37189 4.26 6.16224 3.49137 7.05715 3.12006C9.61455 2.06013 10.146 1.87633 10.4927 1.87006Z"
    fill="currentColor"
  />
</svg>
