<svg width="16" height="16" viewBox="0 0 16 16" fill="none" xmlns="http://www.w3.org/2000/svg" data-fui-icon="true">
  <path
    d="M13.3916 3.04388C13.4831 3.04235 13.6864 3.06476 13.8193 3.17181C13.9297 3.26203 13.961 3.38398 13.9766 3.46967C13.9904 3.55532 14.0096 3.75081 13.9941 3.90326C13.8284 5.64488 13.1082 9.87135 12.7422 11.8222C12.5886 12.6473 12.2834 12.9248 11.9883 12.9521C11.3461 13.0109 10.8588 12.529 10.2373 12.123C9.26525 11.4875 8.71594 11.0917 7.77148 10.4716C6.68046 9.75503 7.3882 9.36131 8.00977 8.71771C8.17203 8.54924 11.0002 5.98538 11.0537 5.75287C11.0606 5.72347 11.0674 5.61553 11.002 5.55853C10.9382 5.50134 10.8434 5.5206 10.7744 5.53607C10.676 5.5581 9.1235 6.58226 6.1123 8.60736C5.67211 8.90917 5.27314 9.05645 4.91406 9.04877C4.52048 9.04032 3.76085 8.82624 3.19629 8.64349C2.50587 8.41932 1.95499 8.30044 2.00293 7.91986C2.0271 7.7216 2.30204 7.5188 2.8252 7.31146C6.04694 5.91263 8.19467 4.98945 9.26855 4.54388C12.3383 3.27163 12.9755 3.05128 13.3916 3.04388Z"
    fill="currentColor"
  />
</svg>
