<svg
  width="16"
  height="16"
  viewBox="0 0 16 16"
  fill="none"
  xmlns="http://www.w3.org/2000/svg"
  data-fui-icon="true"
>
  <path
    d="M5.33335 7.99999V7.99333M5.50002 7.99999C5.50002 8.09206 5.4254 8.16666 5.33335 8.16666 5.24131 8.16666 5.16669 8.09206 5.16669 7.99999 5.16669 7.90793 5.24131 7.83333 5.33335 7.83333 5.4254 7.83333 5.50002 7.90793 5.50002 7.99999zM7.99998 7.99999V7.99333M8.16665 7.99999C8.16665 8.09206 8.09205 8.16666 7.99998 8.16666 7.90791 8.16666 7.83331 8.09206 7.83331 7.99999 7.83331 7.90793 7.90791 7.83333 7.99998 7.83333 8.09205 7.83333 8.16665 7.90793 8.16665 7.99999zM10.6667 7.99999V7.99333M10.8333 7.99999C10.8333 8.09206 10.7587 8.16666 10.6667 8.16666 10.5746 8.16666 10.5 8.09206 10.5 7.99999 10.5 7.90793 10.5746 7.83333 10.6667 7.83333 10.7587 7.83333 10.8333 7.90793 10.8333 7.99999z"
    stroke="currentColor"
    stroke-width="1.5"
    stroke-linecap="round"
  />
  <path
    d="M14.1666 8C14.1666 11.4057 11.4057 14.1667 7.99998 14.1667C4.59423 14.1667 1.83331 11.4057 1.83331 8C1.83331 4.59424 4.59423 1.83333 7.99998 1.83333C11.4057 1.83333 14.1666 4.59424 14.1666 8Z"
    stroke="currentColor"
    stroke-width="1.5"
  />
</svg>
