<svg
  width="20"
  height="20"
  viewBox="0 0 20 20"
  fill="none"
  xmlns="http://www.w3.org/2000/svg"
  data-fui-icon="true"
>
  <path
    d="M6.66671 10V9.99169M6.87504 10C6.87504 10.1151 6.78177 10.2084 6.66671 10.2084 6.55165 10.2084 6.45837 10.1151 6.45837 10 6.45837 9.88494 6.55165 9.79169 6.66671 9.79169 6.78177 9.79169 6.87504 9.88494 6.87504 10zM9.99996 10V9.99169M10.2083 10C10.2083 10.1151 10.115 10.2084 9.99996 10.2084 9.88488 10.2084 9.79163 10.1151 9.79163 10 9.79163 9.88494 9.88488 9.79169 9.99996 9.79169 10.115 9.79169 10.2083 9.88494 10.2083 10zM13.3333 10V9.99169M13.5417 10C13.5417 10.1151 13.4484 10.2084 13.3333 10.2084 13.2182 10.2084 13.125 10.1151 13.125 10 13.125 9.88494 13.2182 9.79169 13.3333 9.79169 13.4484 9.79169 13.5417 9.88494 13.5417 10z"
    stroke="currentColor"
    stroke-width="1.5"
    stroke-linecap="round"
  />
  <path
    d="M17.7083 10C17.7083 14.2572 14.2571 17.7084 9.99996 17.7084C5.74277 17.7084 2.29163 14.2572 2.29163 10C2.29163 5.74283 5.74277 2.29169 9.99996 2.29169C14.2571 2.29169 17.7083 5.74283 17.7083 10Z"
    stroke="currentColor"
    stroke-width="1.5"
  />
</svg>
