<svg width="24" height="24" viewBox="0 0 24 24" fill="none" xmlns="http://www.w3.org/2000/svg" data-fui-icon="true">
  <path
    d="M12 0.5C18.3513 0.5 23.5 5.64873 23.5 12C23.5 18.3513 18.3513 23.5 12 23.5C5.64873 23.5 0.5 18.3513 0.5 12C0.5 5.64873 5.64873 0.5 12 0.5ZM7 10.375C6.10265 10.375 5.375 11.1024 5.375 12C5.375 12.8976 6.10265 13.625 7 13.625C7.89735 13.625 8.625 12.8976 8.625 12C8.625 11.1024 7.89735 10.375 7 10.375ZM12 10.375C11.1025 10.375 10.375 11.1025 10.375 12C10.375 12.8975 11.1025 13.625 12 13.625C12.8975 13.625 13.625 12.8975 13.625 12C13.625 11.1025 12.8975 10.375 12 10.375ZM17 10.375C16.1025 10.375 15.375 11.1025 15.375 12C15.375 12.8975 16.1025 13.625 17 13.625C17.8975 13.625 18.625 12.8975 18.625 12C18.625 11.1025 17.8975 10.375 17 10.375Z"
    fill="currentColor"
  />
</svg>
