<svg width="20" height="20" viewBox="0 0 20 20" fill="none" xmlns="http://www.w3.org/2000/svg" data-fui-icon="true">
  <path
    d="M10 0.5C15.2467 0.5 19.5 4.75329 19.5 10C19.5 15.2467 15.2467 19.5 10 19.5C4.75329 19.5 0.5 15.2467 0.5 10C0.5 4.75329 4.75329 0.5 10 0.5ZM5.95801 8.66699C5.22198 8.66717 4.62518 9.26377 4.625 10C4.6252 10.7362 5.22199 11.3338 5.95801 11.334C6.69418 11.334 7.29179 10.7363 7.29199 10C7.29182 9.26366 6.69419 8.66699 5.95801 8.66699ZM10 8.66699C9.26385 8.66717 8.66717 9.26385 8.66699 10C8.66716 10.7362 9.26385 11.3338 10 11.334C10.7363 11.334 11.3338 10.7363 11.334 10C11.3338 9.26375 10.7363 8.66699 10 8.66699ZM14.0381 8.66699C13.3019 8.66717 12.7053 9.26385 12.7051 10C12.7053 10.7361 13.302 11.3338 14.0381 11.334C14.7744 11.334 15.3719 10.7362 15.3721 10C15.3719 9.26375 14.7744 8.66699 14.0381 8.66699Z"
    fill="currentColor"
  />
</svg>
