<svg width="16" height="16" viewBox="0 0 16 16" fill="none" xmlns="http://www.w3.org/2000/svg" data-fui-icon="true">
  <path
    d="M6.75 13.25C6.75 12.5596 7.30964 12 8 12C8.69036 12 9.25 12.5596 9.25 13.25C9.25 13.9404 8.69036 14.5 8 14.5C7.30964 14.5 6.75 13.9404 6.75 13.25ZM6.75 8C6.75 7.30964 7.30964 6.75 8 6.75C8.69036 6.75 9.25 7.30964 9.25 8C9.25 8.69036 8.69036 9.25 8 9.25C7.30964 9.25 6.75 8.69036 6.75 8ZM6.75 2.75C6.75 2.05964 7.30964 1.5 8 1.5C8.69036 1.5 9.25 2.05964 9.25 2.75C9.25 3.44036 8.69036 4 8 4C7.30964 4 6.75 3.44036 6.75 2.75Z"
    fill="currentColor"
  />
</svg>
