<svg width="32" height="32" viewBox="0 0 32 32" fill="none" xmlns="http://www.w3.org/2000/svg" data-fui-icon="true">
  <path
    d="M16 2.91699C23.2254 2.91719 29.0838 8.77455 29.084 16C29.0838 23.2254 23.2254 29.0838 16 29.084C8.77454 29.0838 2.91717 23.2254 2.91699 16C2.91717 8.77454 8.77454 2.91717 16 2.91699ZM16 4.41699C9.60296 4.41717 4.41717 9.60296 4.41699 16C4.41717 22.397 9.60297 27.5838 16 27.584C22.397 27.5838 27.5838 22.397 27.584 16C27.5838 9.60298 22.397 4.41719 16 4.41699ZM10.666 14.667C11.4022 14.667 11.9998 15.2637 12 16C11.9998 16.7363 11.4022 17.334 10.666 17.334C9.93014 17.3336 9.33319 16.7361 9.33301 16C9.33318 15.2639 9.93014 14.6674 10.666 14.667ZM16 14.667C16.7361 14.6672 17.3338 15.2639 17.334 16C17.3338 16.7361 16.7361 17.3338 16 17.334C15.2638 17.3338 14.6672 16.7362 14.667 16C14.6672 15.2638 15.2638 14.6672 16 14.667ZM21.333 14.667C22.0693 14.667 22.6668 15.2637 22.667 16C22.6668 16.7363 22.0693 17.334 21.333 17.334C20.5968 17.3338 20.0002 16.7362 20 16C20.0002 15.2638 20.5968 14.6672 21.333 14.667Z"
    fill="currentColor"
  />
</svg>
