<svg width="24" height="24" viewBox="0 0 24 24" fill="none" xmlns="http://www.w3.org/2000/svg" data-fui-icon="true">
  <path
    d="M9.2627 19.6831C9.40372 18.2964 10.5761 17.2146 12 17.2144C13.5188 17.2146 14.7498 18.4455 14.75 19.9644C14.7498 21.3883 13.668 22.5606 12.2812 22.7017L12 22.7153L11.7188 22.7017C10.3318 22.5608 9.24921 21.3884 9.24902 19.9644L9.2627 19.6831ZM9.2627 11.7183C9.40379 10.3316 10.5761 9.24972 12 9.24951C13.5188 9.24974 14.7497 10.4808 14.75 11.9995C14.75 13.4236 13.6681 14.5958 12.2812 14.7368L12 14.7505L11.7188 14.7368C10.3317 14.596 9.24902 13.4237 9.24902 11.9995L9.2627 11.7183ZM9.2627 3.75439C9.40372 2.36765 10.5761 1.28586 12 1.28564C13.5188 1.28587 14.7498 2.5168 14.75 4.03564C14.7499 5.45963 13.6681 6.63192 12.2812 6.77295L12 6.78662L11.7188 6.77295C10.3317 6.63212 9.24915 5.45978 9.24902 4.03564L9.2627 3.75439Z"
    fill="currentColor"
  />
</svg>
