<svg width="20" height="20" viewBox="0 0 20 20" fill="none" xmlns="http://www.w3.org/2000/svg" data-fui-icon="true">
  <path
    d="M3.75 8C4.85443 8.00016 5.75 8.89553 5.75 10C5.75 11.1045 4.85443 11.9998 3.75 12C2.64543 12 1.75 11.1046 1.75 10C1.75 8.89543 2.64543 8 3.75 8ZM10 8C11.1044 8.00016 12 8.89553 12 10C12 11.1045 11.1044 11.9998 10 12C8.89543 12 8 11.1046 8 10C8 8.89543 8.89543 8 10 8ZM16.25 8C17.3544 8.00016 18.25 8.89553 18.25 10C18.25 11.1045 17.3544 11.9998 16.25 12C15.1454 12 14.25 11.1046 14.25 10C14.25 8.89543 15.1454 8 16.25 8Z"
    fill="currentColor"
  />
</svg>
