<svg width="16" height="16" viewBox="0 0 16 16" fill="none" xmlns="http://www.w3.org/2000/svg" data-fui-icon="true">
  <path
    d="M8 0.5C12.1421 0.5 15.5 3.85786 15.5 8C15.5 12.1421 12.1421 15.5 8 15.5C3.85786 15.5 0.5 12.1421 0.5 8C0.5 3.85786 3.85786 0.5 8 0.5ZM4.91699 7.08301C4.44245 7.08301 4.05186 7.44399 4.00488 7.90625L4 8L4.00488 8.09375C4.05199 8.55587 4.44255 8.91602 4.91699 8.91602C5.42294 8.91584 5.83283 8.50608 5.83301 8C5.83282 7.5256 5.47264 7.13498 5.01074 7.08789L4.91699 7.08301ZM8 7.08301C7.52537 7.08301 7.13484 7.44401 7.08789 7.90625L7.08301 8L7.08789 8.09375C7.135 8.55583 7.52549 8.91602 8 8.91602C8.50602 8.91584 8.91584 8.50602 8.91602 8C8.91586 7.52562 8.55573 7.13499 8.09375 7.08789L8 7.08301ZM11.0869 7.08301C10.6123 7.08301 10.2218 7.44404 10.1748 7.90625L10.1699 8L10.1748 8.09375C10.2219 8.55583 10.6124 8.91602 11.0869 8.91602C11.5929 8.91584 12.0028 8.50602 12.0029 8C12.0027 7.52565 11.6426 7.13498 11.1807 7.08789L11.0869 7.08301Z"
    fill="currentColor"
  />
</svg>
