<svg width="24" height="24" viewBox="0 0 24 24" fill="none" xmlns="http://www.w3.org/2000/svg" data-fui-icon="true">
  <path
    d="M10.25 20C10.25 19.0335 11.0335 18.25 12 18.25C12.9665 18.25 13.75 19.0335 13.75 20C13.75 20.9665 12.9665 21.75 12 21.75C11.0335 21.75 10.25 20.9665 10.25 20ZM10.25 12C10.25 11.0335 11.0335 10.25 12 10.25C12.9665 10.25 13.75 11.0335 13.75 12C13.75 12.9665 12.9665 13.75 12 13.75C11.0335 13.75 10.25 12.9665 10.25 12ZM10.25 4C10.25 3.0335 11.0335 2.25 12 2.25C12.9665 2.25 13.75 3.0335 13.75 4C13.75 4.9665 12.9665 5.75 12 5.75C11.0335 5.75 10.25 4.9665 10.25 4Z"
    fill="currentColor"
  />
</svg>
