<svg width="20" height="20" viewBox="0 0 20 20" fill="none" xmlns="http://www.w3.org/2000/svg" data-fui-icon="true">
  <path
    d="M10 1.54199C14.6711 1.54219 18.4588 5.32886 18.459 10C18.4588 14.6711 14.6711 18.4588 10 18.459C5.32885 18.4588 1.54217 14.6711 1.54199 10C1.54217 5.32885 5.32885 1.54217 10 1.54199ZM10 3.04199C6.15728 3.04217 3.04217 6.15728 3.04199 10C3.04217 13.8427 6.15728 16.9588 10 16.959C13.8427 16.9588 16.9588 13.8427 16.959 10C16.9588 6.1573 13.8427 3.04219 10 3.04199ZM6.66602 9.04199C7.19512 9.04199 7.62482 9.47079 7.625 10C7.62482 10.5292 7.19512 10.959 6.66602 10.959C6.13723 10.9586 5.70818 10.529 5.70801 10C5.70818 9.47102 6.13723 9.04237 6.66602 9.04199ZM10 9.04199C10.529 9.04219 10.9588 9.47097 10.959 10C10.9588 10.529 10.529 10.9588 10 10.959C9.47096 10.9588 9.04217 10.529 9.04199 10C9.04217 9.47096 9.47096 9.04217 10 9.04199ZM13.333 9.04199C13.8622 9.04199 14.2918 9.47085 14.292 10C14.2918 10.5291 13.8622 10.959 13.333 10.959C12.804 10.9588 12.3752 10.529 12.375 10C12.3752 9.47096 12.804 9.04217 13.333 9.04199Z"
    fill="currentColor"
  />
</svg>
