<svg width="20" height="20" viewBox="0 0 20 20" fill="none" xmlns="http://www.w3.org/2000/svg" data-fui-icon="true">
  <path
    d="M10 0.5C15.2467 0.5 19.5 4.75329 19.5 10C19.5 15.2467 15.2467 19.5 10 19.5C4.75329 19.5 0.5 15.2467 0.5 10C0.5 4.75329 4.75329 0.5 10 0.5ZM10 2.5C5.85786 2.5 2.5 5.85786 2.5 10C2.5 14.1421 5.85786 17.5 10 17.5C14.1421 17.5 17.5 14.1421 17.5 10C17.5 5.85786 14.1421 2.5 10 2.5ZM5.95801 8.66699C6.69419 8.66699 7.29182 9.26366 7.29199 10C7.29179 10.7363 6.69418 11.334 5.95801 11.334C5.22199 11.3338 4.6252 10.7362 4.625 10C4.62518 9.26377 5.22198 8.66717 5.95801 8.66699ZM10 8.66699C10.7363 8.66699 11.3338 9.26375 11.334 10C11.3338 10.7363 10.7363 11.334 10 11.334C9.26385 11.3338 8.66716 10.7362 8.66699 10C8.66717 9.26385 9.26385 8.66717 10 8.66699ZM14.0381 8.66699C14.7744 8.66699 15.3719 9.26375 15.3721 10C15.3719 10.7362 14.7744 11.334 14.0381 11.334C13.302 11.3338 12.7053 10.7361 12.7051 10C12.7053 9.26385 13.3019 8.66717 14.0381 8.66699Z"
    fill="currentColor"
  />
</svg>
