<svg width="20" height="20" viewBox="0 0 20 20" fill="none" xmlns="http://www.w3.org/2000/svg" data-fui-icon="true">
  <path
    d="M3.5 8.25C4.4665 8.25 5.25 9.0335 5.25 10C5.25 10.9665 4.4665 11.75 3.5 11.75C2.5335 11.75 1.75 10.9665 1.75 10C1.75 9.0335 2.5335 8.25 3.5 8.25ZM10 8.25C10.9665 8.25 11.75 9.0335 11.75 10C11.75 10.9665 10.9665 11.75 10 11.75C9.0335 11.75 8.25 10.9665 8.25 10C8.25 9.0335 9.0335 8.25 10 8.25ZM16.5 8.25C17.4665 8.25 18.25 9.0335 18.25 10C18.25 10.9665 17.4665 11.75 16.5 11.75C15.5335 11.75 14.75 10.9665 14.75 10C14.75 9.0335 15.5335 8.25 16.5 8.25Z"
    fill="currentColor"
  />
</svg>
