<svg
  width="16"
  height="16"
  viewBox="0 0 16 16"
  fill="none"
  xmlns="http://www.w3.org/2000/svg"
  data-fui-icon="true"
>
  <path
    d="M5.33329 7.99998V7.99331M5.49996 7.99998C5.49996 8.09205 5.42534 8.16665 5.33329 8.16665 5.24125 8.16665 5.16663 8.09205 5.16663 7.99998 5.16663 7.90791 5.24125 7.83331 5.33329 7.83331 5.42534 7.83331 5.49996 7.90791 5.49996 7.99998zM8.00004 7.99998V7.99331M8.16671 7.99998C8.16671 8.09205 8.09211 8.16665 8.00004 8.16665 7.90797 8.16665 7.83337 8.09205 7.83337 7.99998 7.83337 7.90791 7.90797 7.83331 8.00004 7.83331 8.09211 7.83331 8.16671 7.90791 8.16671 7.99998zM10.6667 7.99998V7.99331M10.8333 7.99998C10.8333 8.09205 10.7587 8.16665 10.6667 8.16665 10.5746 8.16665 10.5 8.09205 10.5 7.99998 10.5 7.90791 10.5746 7.83331 10.6667 7.83331 10.7587 7.83331 10.8333 7.90791 10.8333 7.99998z"
    stroke="currentColor"
    stroke-width="1.5"
    stroke-linecap="round"
  />
  <path
    d="M14.1667 7.99998C14.1667 11.4057 11.4058 14.1666 8.00004 14.1666C4.59429 14.1666 1.83337 11.4057 1.83337 7.99998C1.83337 4.59423 4.59429 1.83331 8.00004 1.83331C11.4058 1.83331 14.1667 4.59423 14.1667 7.99998Z"
    stroke="currentColor"
    stroke-width="1.5"
  />
</svg>
