<svg width="32" height="32" viewBox="0 0 32 32" fill="none" xmlns="http://www.w3.org/2000/svg" data-fui-icon="true">
  <path
    d="M16 0.5C24.5604 0.5 31.5 7.43959 31.5 16C31.5 24.5604 24.5604 31.5 16 31.5C7.43959 31.5 0.5 24.5604 0.5 16C0.5 7.43959 7.43959 0.5 16 0.5ZM9.33301 14.167C8.32086 14.1672 7.50018 14.9876 7.5 16C7.5002 17.0124 8.32088 17.8338 9.33301 17.834C10.3453 17.834 11.1668 17.0125 11.167 16C11.1668 14.9875 10.3453 14.167 9.33301 14.167ZM16 14.167C14.9877 14.1672 14.1672 14.9877 14.167 16C14.1672 17.0123 14.9877 17.8338 16 17.834C17.0125 17.834 17.8338 17.0124 17.834 16C17.8338 14.9876 17.0125 14.167 16 14.167ZM22.6631 14.167C21.6508 14.1672 20.8303 14.9877 20.8301 16C20.8303 17.0123 21.6508 17.8338 22.6631 17.834C23.6755 17.834 24.4969 17.0124 24.4971 16C24.4969 14.9876 23.6755 14.167 22.6631 14.167Z"
    fill="currentColor"
  />
</svg>
