<svg width="32" height="32" viewBox="0 0 32 32" fill="none" xmlns="http://www.w3.org/2000/svg" data-fui-icon="true">
  <path
    d="M16 23C17.1046 23 18 23.8954 18 25C18 26.1046 17.1046 27 16 27C14.8954 27 14 26.1046 14 25C14 23.8954 14.8954 23 16 23ZM16 14C17.1046 14 18 14.8954 18 16C18 17.1046 17.1046 18 16 18C14.8954 18 14 17.1046 14 16C14 14.8954 14.8954 14 16 14ZM16 5C17.1046 5 18 5.89543 18 7C18 8.10457 17.1046 9 16 9C14.8954 9 14 8.10457 14 7C14 5.89543 14.8954 5 16 5Z"
    fill="currentColor"
  />
</svg>
