<svg width="12" height="12" viewBox="0 0 12 12" fill="none" xmlns="http://www.w3.org/2000/svg" data-fui-icon="true">
  <path
    d="M1.75 4.25C2.7165 4.25 3.5 5.0335 3.5 6C3.5 6.9665 2.7165 7.75 1.75 7.75C0.783502 7.75 0 6.9665 0 6C0 5.0335 0.783502 4.25 1.75 4.25ZM6 4.25C6.9665 4.25 7.75 5.0335 7.75 6C7.75 6.9665 6.9665 7.75 6 7.75C5.0335 7.75 4.25 6.9665 4.25 6C4.25 5.0335 5.0335 4.25 6 4.25ZM10.25 4.25C11.2165 4.25 12 5.0335 12 6C12 6.9665 11.2165 7.75 10.25 7.75C9.2835 7.75 8.5 6.9665 8.5 6C8.5 5.0335 9.2835 4.25 10.25 4.25Z"
    fill="currentColor"
  />
</svg>
