<svg width="12" height="12" viewBox="0 0 12 12" fill="none" xmlns="http://www.w3.org/2000/svg" data-fui-icon="true">
  <path
    d="M6 0C9.31371 0 12 2.68629 12 6C12 9.31371 9.31371 12 6 12C2.68629 12 0 9.31371 0 6C0 2.68629 2.68629 0 6 0ZM3.625 5.125C3.17215 5.125 2.79988 5.46907 2.75488 5.91016L2.75 6L2.75488 6.08984C2.79988 6.53093 3.17215 6.875 3.625 6.875C4.10819 6.875 4.5 6.48332 4.5 6C4.5 5.54703 4.15582 5.17488 3.71484 5.12988L3.625 5.125ZM6 5.125C5.54708 5.125 5.17488 5.46912 5.12988 5.91016L5.125 6L5.12988 6.08984C5.17488 6.53088 5.54708 6.875 6 6.875C6.48326 6.875 6.875 6.48326 6.875 6C6.875 5.54708 6.53088 5.17488 6.08984 5.12988L6 5.125ZM8.375 5.125C7.92208 5.125 7.54988 5.46912 7.50488 5.91016L7.5 6L7.50488 6.08984C7.54988 6.53088 7.92208 6.875 8.375 6.875C8.85826 6.875 9.25 6.48326 9.25 6C9.25 5.54708 8.90588 5.17488 8.46484 5.12988L8.375 5.125Z"
    fill="currentColor"
  />
</svg>
