<svg width="24" height="24" viewBox="0 0 24 24" fill="none" xmlns="http://www.w3.org/2000/svg" data-fui-icon="true">
  <path
    d="M4.31738 9.2627C5.70413 9.40372 6.78592 10.5761 6.78613 12C6.78591 13.5188 5.55498 14.7498 4.03613 14.75C2.6122 14.7498 1.43986 13.668 1.29883 12.2812L1.28516 12L1.29883 11.7188C1.43965 10.3318 2.61205 9.24921 4.03613 9.24902L4.31738 9.2627ZM12.2822 9.2627C13.6689 9.40379 14.7508 10.5761 14.751 12C14.7508 13.5188 13.5197 14.7497 12.001 14.75C10.5769 14.75 9.40471 13.6681 9.26367 12.2812L9.25 12L9.26367 11.7188C9.40453 10.3317 10.5767 9.24902 12.001 9.24902L12.2822 9.2627ZM20.2461 9.2627C21.6328 9.40372 22.7146 10.5761 22.7148 12C22.7146 13.5188 21.4837 14.7498 19.9648 14.75C18.5409 14.7499 17.3686 13.6681 17.2275 12.2812L17.2139 12L17.2275 11.7188C17.3684 10.3317 18.5407 9.24915 19.9648 9.24902L20.2461 9.2627Z"
    fill="currentColor"
  />
</svg>
