<svg
  width="16"
  height="16"
  viewBox="0 0 16 16"
  fill="none"
  xmlns="http://www.w3.org/2000/svg"
  data-fui-icon="true"
>
  <g clip-path="url(#clip0_160_34)">
    <path
      fill-rule="evenodd"
      clip-rule="evenodd"
      d="M6.64934 2.58769C6.79946 2.06226 7.27971 1.70001 7.82616 1.70001C8.88809 1.70001 9.74895 2.56089 9.74895 3.62283V5.30501C9.74895 5.50969 9.74937 5.63163 9.75679 5.72202C9.76127 5.77719 9.76722 5.80038 9.76918 5.80659C9.78563 5.83784 9.81118 5.86337 9.8424 5.87984C9.84863 5.88176 9.8718 5.88771 9.92696 5.89222C10.0173 5.89961 10.1393 5.90001 10.344 5.90001H11.2996C11.7827 5.90001 12.1796 5.9 12.4967 5.92834C12.8229 5.9575 13.1283 6.02059 13.3995 6.18868C13.8027 6.43853 14.1115 6.83238 14.2441 7.29963C14.3321 7.60997 14.3048 7.92413 14.2411 8.24431C14.183 8.53607 14.0819 8.88964 13.9608 9.31286C13.9503 9.34961 13.9396 9.38685 13.9288 9.42458L13.1098 12.2944C13.1017 12.3228 13.0937 12.351 13.0858 12.3787C12.9442 12.8761 12.8336 13.2644 12.5977 13.5645C12.3942 13.8235 12.129 14.0295 11.8165 14.1571C11.4643 14.3009 11.0626 14.3006 10.5486 14.3001C10.5182 14.3 10.4873 14.3 10.4559 14.3H4.44266C4.06876 14.3 3.75667 14.3 3.50171 14.2792C3.23579 14.2575 2.98613 14.2105 2.75004 14.0902C2.38783 13.9056 2.09334 13.6111 1.90879 13.249C1.78849 13.0129 1.74152 12.7632 1.7198 12.4973C1.69896 12.2423 1.69897 11.9302 1.69897 11.5563V9.34373C1.69897 8.96979 1.69896 8.65773 1.7198 8.40272C1.74152 8.13679 1.78849 7.88717 1.90879 7.65108C2.09334 7.28887 2.38783 6.99438 2.75004 6.80982C2.98613 6.68954 3.23579 6.64256 3.50171 6.62083C3.75667 6.6 4.06876 6.60001 4.44268 6.60001H5.05415C5.2129 6.60001 5.30484 6.5997 5.37361 6.59483C5.41577 6.59184 5.43337 6.58792 5.43803 6.58665C5.46543 6.57528 5.4895 6.55713 5.50796 6.5339C5.51046 6.52977 5.51907 6.51393 5.53352 6.47422C5.5571 6.40942 5.58265 6.3211 5.62626 6.16847L6.64934 2.58769ZM5.50719 6.53507C5.50719 6.53504 5.50752 6.53451 5.50796 6.5339L5.50719 6.53507ZM5.43936 6.58624C5.43939 6.58624 5.43885 6.58643 5.43803 6.58665L5.43936 6.58624ZM9.84058 5.8792C9.84058 5.87919 9.841 5.87932 9.8417 5.87961L9.84058 5.8792ZM9.76981 5.8084C9.76981 5.80842 9.76967 5.8081 9.76939 5.80734L9.76981 5.8084ZM7.82616 2.75001C7.74852 2.75001 7.68027 2.80148 7.65895 2.87615L6.63587 6.45693C6.63031 6.47636 6.62478 6.49594 6.61921 6.51563C6.55434 6.74521 6.48529 6.98958 6.33415 7.18192C6.20297 7.34884 6.03068 7.4788 5.83414 7.55907C5.74263 7.59645 5.64663 7.6186 5.54898 7.63168V13.25H10.4559C11.1086 13.25 11.2836 13.2406 11.4195 13.1851C11.5561 13.1293 11.676 13.0381 11.7722 12.9157C11.8629 12.8002 11.9211 12.6329 12.1001 12.0063C12.1001 12.0064 12.1002 12.0063 12.1001 12.0063L12.9192 9.13632C12.928 9.10538 12.9367 9.07486 12.9452 9.04511C13.073 8.59823 13.1621 8.28659 13.2112 8.03956C13.263 7.77923 13.2546 7.65933 13.2339 7.58621C13.1759 7.38167 13.0368 7.19918 12.8464 7.08123C12.7789 7.03937 12.6642 6.9975 12.4033 6.97417C12.1385 6.95051 11.7888 6.95001 11.275 6.95001H10.3256C10.1454 6.95003 9.97988 6.95004 9.84149 6.93873C9.69225 6.92654 9.52908 6.89864 9.36787 6.81649C9.13736 6.69905 8.94997 6.51165 8.83251 6.28115C8.75033 6.11994 8.72247 5.95671 8.71029 5.80752C8.69895 5.66915 8.69895 5.50361 8.69895 5.32337V3.62283C8.69895 3.14079 8.30821 2.75001 7.82616 2.75001ZM4.49898 13.25V7.65001H4.46398C4.06328 7.65001 3.79432 7.65042 3.58721 7.66734C3.38622 7.68377 3.29013 7.71308 3.22673 7.74538C3.06209 7.82927 2.92823 7.96313 2.84435 8.12776C2.81204 8.19118 2.78272 8.28729 2.7663 8.48826C2.74938 8.69539 2.74898 8.96433 2.74898 9.36501V11.535C2.74898 11.9357 2.74938 12.2046 2.7663 12.4118C2.78272 12.6127 2.81204 12.7088 2.84435 12.7723C2.92823 12.9369 3.06209 13.0707 3.22673 13.1547C3.29013 13.1869 3.38622 13.2163 3.58721 13.2327C3.79432 13.2496 4.06328 13.25 4.46398 13.25H4.49898Z"
      fill="currentColor"
    />
  </g>
  <defs>
    <clipPath id="clip0_160_34">
      <path fill="currentColor" transform="translate(1 1)" d="M0 0H14V14H0z" />
    </clipPath>
  </defs>
</svg>
