<svg width="20" height="20" viewBox="0 0 20 20" fill="none" xmlns="http://www.w3.org/2000/svg" data-fui-icon="true">
  <path
    fill-rule="evenodd"
    clip-rule="evenodd"
    d="M5.27535 8.20817H3.12533C2.25089 8.20817 1.54199 8.91703 1.54199 9.7915V16.0415C1.54199 16.916 2.25089 17.6248 3.12533 17.6248H14.5187C16.1248 17.6248 17.49 16.4516 17.7316 14.8638L18.4291 10.2804C18.7284 8.31339 17.2058 6.5415 15.2161 6.5415H11.7231L12.0678 4.33047C12.2966 2.8627 11.1569 1.5415 9.67616 1.5415C9.08439 1.5415 8.53956 1.87169 8.2676 2.39973L5.27535 8.20817ZM4.87533 16.1248V9.70817H3.12533C3.0793 9.70817 3.04199 9.74548 3.04199 9.7915V16.0415C3.04199 16.0875 3.0793 16.1248 3.12533 16.1248H4.87533Z"
    fill="currentColor"
  />
</svg>
