<svg width="32" height="32" viewBox="0 0 32 32" fill="none" xmlns="http://www.w3.org/2000/svg" data-fui-icon="true">
  <path
    fill-rule="evenodd"
    clip-rule="evenodd"
    d="M8.71474 13.5833H5.00033C3.84975 13.5833 2.91699 14.516 2.91699 15.6666V25.6666C2.91699 26.8172 3.84975 27.75 5.00033 27.75H23.2297C25.5771 27.75 27.5724 26.0352 27.9255 23.7145L29.0415 16.3812C29.479 13.5063 27.2536 10.9166 24.3455 10.9166H18.2311L18.8636 6.85964C19.187 4.7855 17.5761 2.91663 15.4817 2.91663C14.7026 2.91663 13.9857 3.35141 13.628 4.04588L8.71474 13.5833ZM8.25033 26.25V15.0833H5.00033C4.67816 15.0833 4.41699 15.3444 4.41699 15.6666V25.6666C4.41699 25.9888 4.67816 26.25 5.00033 26.25H8.25033Z"
    fill="currentColor"
  />
</svg>
