<svg width="32" height="32" viewBox="0 0 32 32" fill="none" xmlns="http://www.w3.org/2000/svg" data-fui-icon="true">
  <path
    fill-rule="evenodd"
    clip-rule="evenodd"
    d="M8.71474 18.4168H5.00033C3.84975 18.4168 2.91699 17.4841 2.91699 16.3335V6.3335C2.91699 5.18287 3.84975 4.25016 5.00033 4.25016H23.2297C25.5771 4.25016 27.5724 5.96491 27.9255 8.28559L29.0415 15.6189C29.479 18.4938 27.2536 21.0835 24.3455 21.0835H18.2311L18.8636 25.1405C19.187 27.2146 17.5761 29.0835 15.4817 29.0835C14.7026 29.0835 13.9857 28.6487 13.628 27.9542L8.71474 18.4168ZM8.25033 5.75016V16.9168H5.00033C4.67816 16.9168 4.41699 16.6557 4.41699 16.3335V6.3335C4.41699 6.01132 4.67816 5.75016 5.00033 5.75016H8.25033Z"
    fill="currentColor"
  />
</svg>
