<svg width="32" height="32" viewBox="0 0 32 32" fill="none" xmlns="http://www.w3.org/2000/svg" data-fui-icon="true">
  <path
    fill-rule="evenodd"
    clip-rule="evenodd"
    d="M8.71474 18.4167H5.00033C3.84975 18.4167 2.91699 17.484 2.91699 16.3334V6.33337C2.91699 5.18275 3.84975 4.25004 5.00033 4.25004H23.2297C25.5771 4.25004 27.5724 5.96479 27.9255 8.28547L29.0415 15.6188C29.479 18.4937 27.2536 21.0834 24.3455 21.0834H18.2311L18.8636 25.1404C19.187 27.2145 17.5761 29.0834 15.4817 29.0834C14.7026 29.0834 13.9857 28.6486 13.628 27.9541L8.71474 18.4167ZM8.25033 5.75004V16.9167H5.00033C4.67816 16.9167 4.41699 16.6556 4.41699 16.3334V6.33337C4.41699 6.0112 4.67816 5.75004 5.00033 5.75004H8.25033Z"
    fill="currentColor"
  />
</svg>
