<svg width="20" height="20" viewBox="0 0 20 20" fill="none" xmlns="http://www.w3.org/2000/svg" data-fui-icon="true">
  <path
    fill-rule="evenodd"
    clip-rule="evenodd"
    d="M11.8848 1.00391C12.5807 1.00405 13.175 1.25129 13.7285 1.62402C13.7932 1.66758 13.9225 1.75274 14.0283 1.8457C14.1405 1.94437 14.2966 2.10976 14.3877 2.35938L14.4219 2.47168L14.4482 2.60059C14.4891 2.89404 14.407 3.13352 14.3633 3.24707C14.3129 3.37778 14.2388 3.52084 14.1904 3.61523C14.0768 3.83696 14.0118 4.08756 14.0117 4.35547C14.012 5.25798 14.7438 5.99013 15.6465 5.99023C15.9136 5.99023 16.1637 5.92567 16.3857 5.81152C16.48 5.76304 16.6222 5.68817 16.7529 5.6377C16.8667 5.59379 17.1058 5.512 17.3994 5.55273L17.5283 5.57813L17.6406 5.61328C17.8902 5.70424 18.0556 5.85965 18.1543 5.97168C18.2473 6.07737 18.3324 6.20598 18.376 6.27051C18.7507 6.82552 19 7.42166 19 8.12012C18.9998 8.94418 18.6544 9.62297 18.1699 10.2578C17.8198 10.7166 17.3479 11.2136 16.791 11.7764L16.207 12.3623L12.3633 16.207C11.55 17.0203 10.8699 17.703 10.2578 18.1699C9.62268 18.6543 8.94427 19 8.12012 19C7.4225 18.9999 6.8263 18.7512 6.27148 18.377C6.20689 18.3334 6.07819 18.2491 5.97266 18.1562C5.84464 18.0436 5.65973 17.8431 5.5791 17.5303C5.48882 17.1789 5.58859 16.885 5.63867 16.7549C5.68891 16.6245 5.76306 16.4821 5.81152 16.3877C5.92543 16.1658 5.99016 15.9148 5.99023 15.6475C5.99001 14.7446 5.25799 14.0127 4.35547 14.0127C4.08811 14.0128 3.83811 14.0776 3.61621 14.1914C3.5218 14.2399 3.37879 14.3139 3.24805 14.3643C3.11802 14.4143 2.82426 14.5142 2.47266 14.4238C2.15953 14.3433 1.95946 14.1575 1.84668 14.0293C1.75393 13.9238 1.66956 13.7952 1.62598 13.7305C1.2524 13.1762 1.00402 12.5806 1.00391 11.8838C1.00396 11.0596 1.34958 10.381 1.83398 9.74609C2.30088 9.13425 2.9838 8.45468 3.79687 7.6416L7.6416 3.79688C8.45492 2.98355 9.13495 2.30093 9.74707 1.83398C10.3823 1.34948 11.0605 1.00391 11.8848 1.00391ZM11.8848 3.00391C11.6735 3.00391 11.4172 3.07511 10.96 3.42383C10.4797 3.79021 9.90878 4.35781 9.05566 5.21094L6.71191 7.55469L7.09668 7.93945C7.48707 8.32994 7.48706 8.96301 7.09668 9.35352C6.7062 9.74397 6.07315 9.7439 5.68262 9.35352L5.29785 8.96875L5.21094 9.05566C4.358 9.90861 3.79025 10.4789 3.42383 10.959C3.07519 11.4159 3.00393 11.6728 3.00391 11.8838C3.00396 11.9882 3.02203 12.1023 3.08008 12.2441C3.47697 12.0947 3.90714 12.0128 4.35547 12.0127L4.54297 12.0176C6.46325 12.1152 7.98993 13.7034 7.99023 15.6475L7.9834 15.8691C7.96093 16.2377 7.88251 16.5919 7.75781 16.9229C7.90069 16.9816 8.01512 17 8.12012 17C8.33133 17 8.58785 16.9286 9.04492 16.5801C9.52521 16.2137 10.0961 15.6461 10.9492 14.793L11.0352 14.7051L10.6523 14.3223C10.2619 13.9318 10.2619 13.2987 10.6523 12.9082C11.0429 12.5177 11.6759 12.5177 12.0664 12.9082L12.4492 13.291L14.793 10.9482L15.3809 10.3584C15.9174 9.8157 16.3053 9.404 16.5801 9.04395C16.9283 8.58746 16.9999 8.33112 17 8.12012C17 8.01493 16.981 7.90022 16.9219 7.75684C16.5909 7.88174 16.2371 7.96092 15.8682 7.9834L15.6465 7.99023C13.7023 7.9901 12.1144 6.46306 12.0166 4.54297L12.0117 4.35547C12.0118 3.90753 12.0939 3.4771 12.2432 3.08008C12.1019 3.02241 11.9889 3.00395 11.8848 3.00391ZM7.59961 9.85938C7.99014 9.4689 8.62316 9.46887 9.01367 9.85938L10.1426 10.9883C10.5329 11.3788 10.533 12.0119 10.1426 12.4023C9.7521 12.7927 9.11901 12.7926 8.72852 12.4023L7.59961 11.2734C7.20914 10.883 7.20923 10.2499 7.59961 9.85938Z"
    fill="currentColor"
  />
</svg>
