<svg width="32" height="32" viewBox="0 0 32 32" fill="none" xmlns="http://www.w3.org/2000/svg" data-fui-icon="true">
  <path
    d="M19.333 0.65686C20.0451 0.656921 20.696 0.844029 21.3281 1.17542C21.4735 1.25162 21.6848 1.35956 21.8525 1.48303C22.0299 1.61356 22.2444 1.82062 22.3584 2.14026L22.4004 2.28381L22.4277 2.44885C22.4652 2.82255 22.3275 3.12423 22.2344 3.29456C22.1309 3.48375 21.9781 3.69158 21.8525 3.86487C21.3158 4.60554 20.9991 5.5142 20.999 6.49963C20.999 8.98468 23.0138 10.9994 25.499 10.9996C26.4846 10.9996 27.3931 10.683 28.1338 10.1461C28.307 10.0205 28.5149 9.86781 28.7041 9.76428C28.8744 9.67112 29.1761 9.5335 29.5498 9.57092L29.7148 9.59827L29.8584 9.64026C30.1777 9.75411 30.3851 9.96804 30.5156 10.1451C30.6392 10.313 30.747 10.5252 30.8232 10.6705C31.1551 11.303 31.3427 11.9538 31.3428 12.6666L31.3369 12.8776C31.2825 13.9215 30.8263 14.8207 30.1377 15.7233C29.4208 16.663 28.3631 17.7176 27.0498 19.0309L19.0303 27.0504C17.717 28.3637 16.6624 29.4214 15.7227 30.1383C14.7598 30.8728 13.801 31.3434 12.666 31.3434C11.9539 31.3434 11.3034 31.1563 10.6709 30.8248C10.5255 30.7486 10.3134 30.6408 10.1455 30.5172C9.94293 30.3681 9.69207 30.1188 9.59766 29.7164C9.49223 29.2669 9.65717 28.9004 9.76367 28.7057C9.86719 28.5165 10.0199 28.3087 10.1455 28.1354C10.6824 27.3946 10.999 26.4856 10.999 25.4996C10.9988 23.0144 8.98406 20.9996 6.49902 20.9996C5.51359 20.9997 4.60493 21.3164 3.86426 21.8531C3.69097 21.9787 3.48314 22.1315 3.29395 22.235C3.09921 22.3415 2.73269 22.5064 2.2832 22.401C1.88071 22.3066 1.63153 22.0557 1.48242 21.8531C1.35895 21.6854 1.25102 21.4741 1.1748 21.3287C0.843412 20.6966 0.6563 20.0458 0.65625 19.3336C0.656251 18.1987 1.1268 17.2398 1.86133 16.277C2.57826 15.3373 3.63593 14.2826 4.94922 12.9694L12.9688 4.94983C14.282 3.63653 15.3366 2.57887 16.2764 1.86194C17.2392 1.12741 18.198 0.656859 19.333 0.65686ZM18.2139 20.7203C17.8384 20.3157 17.2057 20.2914 16.8008 20.6666C16.396 21.0419 16.3721 21.6747 16.7471 22.0797L17.7666 23.1793C18.142 23.584 18.7747 23.6082 19.1797 23.233C19.5845 22.8577 19.6085 22.225 19.2334 21.8199L18.2139 20.7203ZM14.2061 16.7926C13.8155 16.4025 13.1824 16.4023 12.792 16.7926C12.4017 17.183 12.4019 17.8161 12.792 18.2067L13.792 19.2067C14.1825 19.5971 14.8156 19.5971 15.2061 19.2067C15.5964 18.8162 15.5965 18.1831 15.2061 17.7926L14.2061 16.7926ZM10.2061 12.7926C9.81554 12.4025 9.18239 12.4023 8.79199 12.7926C8.40169 13.183 8.40194 13.8161 8.79199 14.2067L9.79199 15.2067C10.1825 15.5971 10.8155 15.5971 11.2061 15.2067C11.5964 14.8162 11.5964 14.1831 11.2061 13.7926L10.2061 12.7926Z"
    fill="currentColor"
  />
</svg>
