<svg width="32" height="32" viewBox="0 0 32 32" fill="none" xmlns="http://www.w3.org/2000/svg" data-fui-icon="true">
  <path
    d="M19.333 0.65686C20.0451 0.656921 20.696 0.844029 21.3281 1.17542C21.4735 1.25162 21.6848 1.35956 21.8525 1.48303C22.0299 1.61356 22.2444 1.82062 22.3584 2.14026L22.4004 2.28381L22.4277 2.44885C22.4652 2.82255 22.3275 3.12423 22.2344 3.29456C22.1309 3.48375 21.9781 3.69158 21.8525 3.86487C21.3158 4.60554 20.9991 5.5142 20.999 6.49963C20.999 8.98468 23.0138 10.9994 25.499 10.9996C26.4846 10.9996 27.3931 10.683 28.1338 10.1461C28.307 10.0205 28.5149 9.86781 28.7041 9.76428C28.8744 9.67112 29.1761 9.5335 29.5498 9.57092L29.7148 9.59827L29.8584 9.64026C30.1777 9.75411 30.3851 9.96804 30.5156 10.1451C30.6392 10.313 30.747 10.5252 30.8232 10.6705C31.1551 11.303 31.3427 11.9538 31.3428 12.6666L31.3369 12.8776C31.2825 13.9215 30.8263 14.8207 30.1377 15.7233C29.4208 16.663 28.3631 17.7176 27.0498 19.0309L19.0303 27.0504C17.717 28.3637 16.6624 29.4214 15.7227 30.1383C14.7598 30.8728 13.801 31.3434 12.666 31.3434C11.9539 31.3434 11.3034 31.1563 10.6709 30.8248C10.5255 30.7486 10.3134 30.6408 10.1455 30.5172C9.94293 30.3681 9.69207 30.1188 9.59766 29.7164C9.49223 29.2669 9.65717 28.9004 9.76367 28.7057C9.86719 28.5165 10.0199 28.3087 10.1455 28.1354C10.6824 27.3946 10.999 26.4856 10.999 25.4996C10.9988 23.0144 8.98406 20.9996 6.49902 20.9996C5.51359 20.9997 4.60493 21.3164 3.86426 21.8531C3.69097 21.9787 3.48314 22.1315 3.29395 22.235C3.09921 22.3415 2.73269 22.5064 2.2832 22.401C1.88071 22.3066 1.63153 22.0557 1.48242 21.8531C1.35895 21.6854 1.25102 21.4741 1.1748 21.3287C0.843412 20.6966 0.6563 20.0458 0.65625 19.3336C0.656251 18.1987 1.1268 17.2398 1.86133 16.277C2.57826 15.3373 3.63593 14.2826 4.94922 12.9694L12.9688 4.94983C14.282 3.63653 15.3366 2.57887 16.2764 1.86194C17.2392 1.12741 18.198 0.656859 19.333 0.65686ZM18.541 20.3395C17.9552 19.7539 17.0057 19.7538 16.4199 20.3395C15.8343 20.9252 15.8344 21.8748 16.4199 22.4606L18.1318 24.1735C18.7176 24.7591 19.6681 24.7591 20.2539 24.1735C20.8395 23.5878 20.8392 22.6382 20.2539 22.0524L18.541 20.3395ZM14.3682 16.1627C13.7823 15.5775 12.8327 15.5771 12.2471 16.1627C11.6617 16.7483 11.6619 17.6981 12.2471 18.2838L13.7148 19.7516C14.3006 20.3373 15.2501 20.3372 15.8359 19.7516C16.4217 19.1658 16.4217 18.2163 15.8359 17.6305L14.3682 16.1627ZM9.9502 11.7399C9.3644 11.1542 8.41483 11.1541 7.8291 11.7399C7.24373 12.3256 7.2436 13.2753 7.8291 13.861L9.5293 15.5621C10.115 16.1475 11.0656 16.1475 11.6514 15.5621C12.2371 14.9764 12.2369 14.0259 11.6514 13.4401L9.9502 11.7399Z"
    fill="currentColor"
  />
</svg>
