<svg width="21" height="21" viewBox="0 0 21 21" fill="none" xmlns="http://www.w3.org/2000/svg" data-fui-icon="true">
  <path
    fill-rule="evenodd"
    clip-rule="evenodd"
    d="M12.696 0C13.5518 0.00013777 14.2573 0.355781 14.9165 0.855009C14.9824 0.904904 15.1107 0.999618 15.2149 1.10105C15.3235 1.2069 15.4777 1.3863 15.5614 1.65056L15.5931 1.76948L15.6136 1.90275C15.6433 2.20502 15.5527 2.44705 15.5029 2.56503C15.4466 2.69835 15.3654 2.8432 15.3133 2.93717C15.1532 3.22602 15.0611 3.5578 15.0611 3.91418L15.0713 4.12127C15.175 5.1417 16.0365 5.9377 17.0838 5.9379L17.216 5.9338C17.5215 5.91395 17.8067 5.82532 18.0598 5.68468C18.1536 5.6325 18.2986 5.55152 18.4319 5.49502C18.5499 5.44503 18.7918 5.35387 19.0942 5.38327L19.2274 5.40378L19.3464 5.43453C19.6108 5.51795 19.7898 5.67245 19.8959 5.78105C19.9975 5.88514 20.0929 6.01341 20.1429 6.07938C20.6439 6.73998 21.001 7.44724 21.001 8.30507C21.001 9.1703 20.6382 9.88272 20.1296 10.5492C19.6395 11.1915 18.9225 11.9049 18.069 12.7585L12.7595 18.068C11.9057 18.9218 11.1918 19.6384 10.5492 20.1286C9.88244 20.6372 9.17027 20.9999 8.30507 21C7.44688 20.9999 6.73944 20.6424 6.07835 20.1409C6.01241 20.0909 5.88485 19.9961 5.78105 19.8948C5.65692 19.7736 5.47337 19.5568 5.40378 19.2264C5.32734 18.8627 5.43689 18.5658 5.494 18.4309C5.55048 18.2975 5.63268 18.1533 5.68468 18.0598C5.84537 17.7704 5.93688 17.4396 5.93688 17.0858C5.93665 16.0386 5.14028 15.1764 4.12024 15.0723L3.91315 15.0621C3.55824 15.0622 3.22708 15.1542 2.9382 15.3143C2.8444 15.3663 2.69942 15.4476 2.56605 15.504C2.43125 15.5609 2.13426 15.6709 1.7705 15.5942C1.44021 15.5243 1.22313 15.341 1.10208 15.2169C1.00062 15.1128 0.905981 14.9845 0.856034 14.9186C0.38742 14.3001 0.0451884 13.6406 0.00410076 12.8549L0 12.696C7.14523e-05 11.8308 0.362854 11.1186 0.871412 10.4518C1.36162 9.80921 2.07828 9.09527 2.93204 8.24151L8.24151 2.93204C9.09533 2.07822 9.80921 1.36157 10.4518 0.871412C11.1186 0.362882 11.8308 -8.17111e-07 12.696 0ZM12.696 2.09959C12.4742 2.09959 12.2049 2.17451 11.7251 2.54042C11.2209 2.92501 10.6216 3.5209 9.72598 4.41652L6.49663 7.64587L7.02871 8.17794C7.43845 8.58792 7.43859 9.25252 7.02871 9.66242C6.6188 10.0721 5.95416 10.0721 5.54423 9.66242L5.01216 9.13035L4.41652 9.72598C3.52099 10.6215 2.92507 11.2209 2.54042 11.7251C2.17447 12.2049 2.09965 12.4743 2.09959 12.696L2.10369 12.78C2.1165 12.918 2.16476 13.079 2.2913 13.2967C2.78935 13.0827 3.33799 12.9626 3.91315 12.9625L4.12537 12.9676C6.3034 13.0784 8.03619 14.8802 8.03647 17.0858C8.03647 17.6617 7.91436 18.2093 7.70021 18.7066C7.96578 18.8616 8.14718 18.9004 8.30507 18.9004C8.5268 18.9004 8.79609 18.8255 9.27592 18.4596C9.78012 18.0749 10.3794 17.4791 11.275 16.5835L11.8707 15.9878L11.3407 15.4578C10.9314 15.0479 10.9312 14.3831 11.3407 13.9733C11.7504 13.5636 12.4151 13.564 12.8251 13.9733L13.3552 14.5034L16.5845 11.274C17.4799 10.3786 18.0759 9.77997 18.4606 9.27592C18.8266 8.79619 18.9014 8.52662 18.9014 8.30507C18.9014 8.14755 18.8622 7.96637 18.7077 7.70123C18.2874 7.88225 17.8316 7.99706 17.3534 8.02827L17.0838 8.03749C14.8778 8.03721 13.077 6.30451 12.9666 4.12639L12.9615 3.91418C12.9616 3.33892 13.0816 2.79008 13.2957 2.2913C13.0327 2.13857 12.8527 2.09965 12.696 2.09959ZM7.78017 10.417C8.19004 10.0071 8.85465 10.0073 9.26465 10.417L10.582 11.7343C10.9917 12.1443 10.9919 12.8089 10.582 13.2188C10.1721 13.6286 9.50749 13.6285 9.09754 13.2188L7.78017 11.9014C7.37055 11.4915 7.37043 10.8268 7.78017 10.417Z"
    fill="currentColor"
  />
</svg>
