<svg width="16" height="16" viewBox="0 0 16 16" fill="none" xmlns="http://www.w3.org/2000/svg" data-fui-icon="true">
  <path
    d="M9.66992 1.00635C10.1149 1.03593 10.5045 1.19157 10.8721 1.42432C10.9278 1.45958 11.0326 1.5238 11.1182 1.59521C11.2094 1.67142 11.3317 1.79628 11.4053 1.98486L11.4336 2.06982L11.4551 2.16943C11.4911 2.39448 11.4308 2.58035 11.3975 2.67139C11.3588 2.77667 11.3004 2.89289 11.2598 2.9751C11.1733 3.15023 11.125 3.3469 11.125 3.55615L11.1318 3.69092C11.1996 4.35772 11.7633 4.87913 12.4492 4.87939C12.6576 4.87934 12.8541 4.83017 13.0293 4.74365C13.1113 4.70315 13.227 4.64451 13.332 4.60596C13.4235 4.57244 13.6105 4.51289 13.8359 4.54932L13.9346 4.5708L14.0195 4.6001C14.2079 4.67378 14.3329 4.79476 14.4092 4.88623C14.4807 4.97218 14.545 5.07771 14.5801 5.1333C14.8113 5.49957 14.9657 5.88758 14.9951 6.33057C15.0033 6.45478 15.0033 6.58036 14.9951 6.70459C14.9553 7.30451 14.6875 7.7998 14.3184 8.27295C13.9604 8.73174 13.4463 9.24396 12.8271 9.86279L9.86328 12.8247C9.2446 13.443 8.73215 13.9565 8.27344 14.314C7.80048 14.6825 7.30543 14.9499 6.70605 14.9897H6.70508C6.58154 14.9979 6.4568 14.9979 6.33301 14.9897C5.8899 14.9604 5.50144 14.8061 5.13477 14.5747C5.07904 14.5395 4.97375 14.4745 4.8877 14.4028C4.78292 14.3155 4.63891 14.1649 4.57227 13.9272C4.49668 13.6575 4.56987 13.4291 4.6084 13.3247C4.64734 13.2192 4.70625 13.1032 4.74707 13.021C4.8123 12.8897 4.85613 12.7465 4.87402 12.5952L4.88281 12.4409C4.88266 11.7106 4.2899 11.1179 3.55859 11.1177C3.34841 11.1178 3.15093 11.1667 2.97559 11.2534C2.89337 11.2941 2.77716 11.3533 2.67187 11.3921C2.56772 11.4304 2.33861 11.5027 2.06934 11.4272C1.83222 11.3606 1.6819 11.2163 1.59473 11.1118C1.52319 11.026 1.45811 10.9215 1.42285 10.8657C1.1909 10.4987 1.03628 10.1095 1.00684 9.66553V9.66455C0.998709 9.54091 0.998668 9.41628 1.00684 9.29248C1.04661 8.69239 1.31443 8.19728 1.68359 7.72412C2.04178 7.26513 2.55642 6.75233 3.17578 6.1333L6.13867 3.17236C6.75738 2.55399 7.26985 2.03978 7.72852 1.68213C8.20131 1.31354 8.69635 1.04614 9.2959 1.00635C9.41995 0.998166 9.54587 0.998149 9.66992 1.00635ZM9.39551 2.50244C9.21632 2.51432 9.00469 2.58948 8.65039 2.86572C8.28182 3.15319 7.84486 3.58762 7.19922 4.23291L5.53042 5.90005C5.37287 6.05743 5.37281 6.31275 5.53027 6.47021C5.8229 6.76311 5.82304 7.23794 5.53027 7.53076C5.23745 7.82318 4.76252 7.82325 4.46973 7.53076C4.31223 7.37327 4.05667 7.37319 3.89958 7.53109C3.43406 7.99901 3.10103 8.34515 2.86621 8.646C2.58943 9.00069 2.51479 9.21269 2.50293 9.39209C2.49914 9.44984 2.49914 9.50801 2.50293 9.56592C2.51182 9.70002 2.65935 9.76234 2.78859 9.72547C3.03355 9.6556 3.29198 9.61774 3.55859 9.61768C5.11792 9.61788 6.38261 10.8818 6.38281 12.4409L6.37793 12.6079C6.36561 12.8157 6.32978 13.0172 6.27414 13.2102C6.23714 13.3386 6.29928 13.4848 6.43262 13.4937C6.49025 13.4974 6.54856 13.4974 6.60645 13.4937C6.7858 13.4817 6.99759 13.4072 7.35156 13.1313C7.65308 12.8964 7.99959 12.5621 8.46933 12.0949C8.6256 11.9395 8.62558 11.6866 8.46973 11.5308C8.17707 11.238 8.17729 10.7631 8.46973 10.4702C8.76261 10.1774 9.2374 10.1774 9.53027 10.4702C9.68671 10.6266 9.94031 10.6267 10.0968 10.4704L11.7666 8.80225C12.413 8.15616 12.8481 7.71881 13.1357 7.3501C13.4121 6.99582 13.4871 6.78447 13.499 6.60498C13.5028 6.54691 13.5028 6.48826 13.499 6.43018C13.4902 6.29729 13.3444 6.23528 13.2163 6.27183C12.9725 6.34143 12.7151 6.37936 12.4492 6.37939C10.8903 6.37901 9.6252 5.1154 9.625 3.55615C9.625 3.2912 9.66237 3.03461 9.73141 2.7912C9.76844 2.66064 9.70572 2.51148 9.57031 2.50244C9.51238 2.49863 9.45344 2.49864 9.39551 2.50244ZM5.96875 7.97021C6.26162 7.67734 6.7364 7.67738 7.0293 7.97021L8.0293 8.97021C8.32219 9.26311 8.32219 9.73787 8.0293 10.0308C7.73635 10.323 7.26143 10.3234 6.96875 10.0308L5.96875 9.03076C5.67613 8.73808 5.67651 8.26314 5.96875 7.97021Z"
    fill="currentColor"
  />
</svg>
