<svg width="12" height="12" viewBox="0 0 12 12" fill="none" xmlns="http://www.w3.org/2000/svg" data-fui-icon="true">
  <path
    d="M7.70703 10.1219L7.66699 10.162C7.18711 10.6419 6.75775 11.0746 6.36426 11.3749C5.99974 11.653 5.57771 11.8886 5.06445 11.9432L4.83887 11.955C4.4 11.955 4.0185 11.8214 3.67871 11.6219C3.65605 11.6086 3.55717 11.553 3.4707 11.4862C3.35688 11.3983 3.20013 11.2462 3.10352 11.0048C2.99454 10.7322 3.02318 10.4903 3.04297 10.3759C3.06055 10.2743 3.09246 10.1684 3.10352 10.1298C3.12826 10.0432 3.14159 9.95248 3.1416 9.85828L3.13672 9.75574C3.08876 9.28545 2.71449 8.91115 2.24414 8.86316L2.1416 8.85828C2.04528 8.85828 1.95323 8.87193 1.86719 8.89636C1.82798 8.9075 1.72226 8.9386 1.62109 8.95593C1.50701 8.97548 1.26489 9.00397 0.992187 8.89441C0.751033 8.79745 0.599382 8.64096 0.511719 8.52722C0.445099 8.44077 0.390244 8.34189 0.376953 8.31921C0.177728 7.97923 0.0449217 7.5986 0.0449219 7.16101C0.044925 6.54374 0.307131 6.05217 0.625 5.63562C0.925251 5.24219 1.35801 4.81277 1.83789 4.33289L1.87793 4.29285L7.70703 10.1219ZM7.32324 0.0496826C7.69408 0.07771 8.02273 0.201477 8.32031 0.375854C8.34299 0.389145 8.44187 0.443999 8.52832 0.51062C8.62788 0.587357 8.75993 0.713305 8.85645 0.905151L8.89551 0.991089L8.93066 1.09167C8.99844 1.32232 8.97414 1.52013 8.95703 1.62C8.9397 1.72116 8.9086 1.82688 8.89746 1.86609C8.87303 1.95213 8.85938 2.04418 8.85938 2.1405L8.86426 2.24304C8.91568 2.74715 9.34185 3.14047 9.85938 3.1405L9.99805 3.13074C10.0433 3.12431 10.0876 3.11478 10.1309 3.10242C10.1695 3.09136 10.2754 3.05945 10.377 3.04187C10.4914 3.02208 10.7333 2.99344 11.0059 3.10242C11.2473 3.19903 11.3994 3.35579 11.4873 3.4696C11.5541 3.55607 11.6097 3.65495 11.623 3.67761C11.8225 4.01741 11.9561 4.3989 11.9561 4.83777C11.9559 5.45481 11.6938 5.94666 11.376 6.36316C11.0757 6.75665 10.643 7.18601 10.1631 7.66589L9.12109 8.70789L3.29199 2.87878L4.33398 1.83679C4.81387 1.35691 5.24329 0.924153 5.63672 0.623901C6.05327 0.306032 6.54484 0.0438267 7.16211 0.0438232L7.32324 0.0496826Z"
    fill="currentColor"
  />
</svg>
