<svg width="16" height="16" viewBox="0 0 16 16" fill="none" xmlns="http://www.w3.org/2000/svg" data-fui-icon="true">
  <path
    fill-rule="evenodd"
    clip-rule="evenodd"
    d="M9.92075 0.0119627C10.4487 0.0651042 10.906 0.296472 11.3416 0.617422C11.3959 0.657442 11.4941 0.728826 11.5731 0.803943C11.6671 0.893517 11.8021 1.05035 11.8553 1.28929C11.914 1.55388 11.8358 1.77244 11.7938 1.87424C11.7519 1.97556 11.6911 2.0864 11.6492 2.1633C11.5252 2.39131 11.454 2.65186 11.4539 2.93086L11.4627 3.0959C11.5456 3.91074 12.2332 4.54704 13.0691 4.54705L13.2742 4.53435C13.4748 4.5085 13.6638 4.44508 13.8347 4.35174C13.9116 4.30978 14.0224 4.24829 14.1238 4.20623C14.2132 4.16915 14.3915 4.10342 14.6121 4.12713L14.7088 4.14374L14.7947 4.16717C14.9863 4.22992 15.1167 4.3436 15.1951 4.42596C15.2703 4.50514 15.3417 4.60328 15.3816 4.6574C15.7488 5.15564 15.9998 5.68202 15.9998 6.31069C15.9996 6.97053 15.7239 7.51788 15.3269 8.03821C14.943 8.5413 14.3801 9.10119 13.7029 9.77842L9.77817 13.7032C9.10084 14.3805 8.54013 14.9433 8.03699 15.3272C7.58175 15.6744 7.10626 15.929 6.55263 15.9873L6.31045 16C5.68235 16 5.15612 15.7496 4.65813 15.3828C4.60396 15.3429 4.50586 15.2715 4.42669 15.1963C4.33264 15.1068 4.19779 14.9499 4.14447 14.711C4.08577 14.4466 4.16374 14.2282 4.20599 14.126C4.24789 14.0248 4.30956 13.9139 4.3515 13.8369C4.44471 13.6659 4.50833 13.476 4.53411 13.2745L4.54681 13.0694C4.54681 12.1773 3.82265 11.4534 2.93062 11.4532C2.65108 11.4533 2.38992 11.5237 2.16208 11.6475C2.08507 11.6894 1.97438 11.7511 1.87302 11.793C1.77131 11.835 1.55273 11.9133 1.28807 11.8546C1.04889 11.8013 0.891295 11.6665 0.801746 11.5723C0.726652 11.4933 0.656214 11.3943 0.616202 11.3399C0.249921 10.8422 0.000113903 10.3169 0 9.68955C9.17562e-05 9.02973 0.275965 8.48331 0.672841 7.96301C0.960743 7.58566 1.34849 7.17518 1.81052 6.70815L6.70791 1.81076C7.17461 1.3488 7.58451 0.960966 7.96179 0.673085C8.48221 0.276032 9.02926 0.000288246 9.68931 0.000244137L9.92075 0.0119627ZM9.68931 1.50022C9.48905 1.50025 9.25886 1.57026 8.87193 1.86545C8.46761 2.17394 7.98944 2.65029 7.28212 3.35761L4.84954 5.79019L5.02922 5.96988C5.32192 6.26276 5.32201 6.73757 5.02922 7.03041C4.73637 7.32285 4.26147 7.32298 3.96869 7.03041L3.789 6.85073L3.35737 7.28236C2.65004 7.98969 2.17369 8.46785 1.86521 8.87218C1.57005 9.25907 1.50003 9.48928 1.49998 9.68955C1.50005 9.83494 1.537 9.99616 1.6699 10.2208C2.05591 10.0495 2.48278 9.95328 2.93062 9.95322C4.65107 9.95345 6.04678 11.3489 6.04678 13.0694L6.03995 13.2696C6.01587 13.6443 5.92365 14.0009 5.77823 14.3282C6.00371 14.4618 6.16481 14.5 6.31045 14.5L6.38662 14.4961C6.57011 14.4786 6.78919 14.3931 7.12782 14.1348C7.53215 13.8263 8.0104 13.3499 8.71764 12.6426L9.14927 12.211L8.96861 12.0303C8.6761 11.7375 8.6762 11.2626 8.96861 10.9698C9.26144 10.677 9.73626 10.6771 10.0291 10.9698L10.2098 11.1505L12.6424 8.71788C13.3496 8.01064 13.8261 7.53239 14.1345 7.12807C14.4295 6.7414 14.4996 6.51085 14.4998 6.31069C14.4998 6.16485 14.4612 6.00363 14.3269 5.7775C14.0003 5.923 13.6442 6.01602 13.2693 6.04019L13.0691 6.04703C11.402 6.04701 10.0415 4.73662 9.95786 3.09102L9.95395 2.93086C9.95401 2.48316 10.0496 2.05648 10.2205 1.67112C10.0693 1.58153 9.94679 1.53457 9.83872 1.51389L9.68931 1.50022ZM5.96866 7.96985C6.26147 7.67703 6.73628 7.67718 7.02919 7.96985L8.02917 8.96983C8.32191 9.26274 8.32201 9.73753 8.02917 10.0304C7.73631 10.3229 7.26143 10.323 6.96864 10.0304L5.96866 9.03038C5.6761 8.73759 5.67618 8.26269 5.96866 7.96985Z"
    fill="currentColor"
  />
</svg>
