<svg width="12" height="12" viewBox="0 0 12 12" fill="none" xmlns="http://www.w3.org/2000/svg" data-fui-icon="true">
  <g clip-path="url(#clip0_7090_177)">
    <path
      d="M7.37793 0.0057373C7.71551 0.0314733 8.01879 0.144065 8.30078 0.309448C8.332 0.327741 8.41551 0.375271 8.4873 0.430542C8.55665 0.484044 8.6433 0.564785 8.71387 0.680542L8.77832 0.809448L8.82422 0.962769C8.85331 1.10941 8.83937 1.23431 8.82715 1.30652C8.81235 1.3936 8.78401 1.48806 8.77051 1.53601C8.73744 1.65373 8.71973 1.78004 8.71973 1.91199L8.72656 2.05164C8.79691 2.74149 9.37957 3.27999 10.0879 3.28015C10.2167 3.28011 10.3416 3.26215 10.46 3.22839C10.5077 3.21476 10.6014 3.18679 10.6885 3.17175C10.7612 3.15922 10.8863 3.14384 11.0332 3.17273L11.1865 3.21765L11.3154 3.2821C11.4316 3.35256 11.5127 3.4393 11.5664 3.50867C11.6221 3.58076 11.6704 3.66453 11.6885 3.69519C11.8783 4.01754 11.9999 4.36882 12 4.76843L11.9893 4.97351C11.9398 5.44044 11.7253 5.83501 11.4492 6.19714C11.298 6.39546 11.1126 6.60456 10.9004 6.828L10.1914 7.54675L7.54687 10.1903C7.03249 10.7047 6.59452 11.1455 6.19824 11.4481C5.83643 11.7244 5.44185 11.9395 4.97461 11.9891L4.76953 11.9999C4.36976 11.9999 4.01815 11.8784 3.69531 11.6884C3.66462 11.6703 3.58093 11.622 3.50879 11.5663C3.41618 11.4946 3.29413 11.3745 3.21875 11.1864C3.13424 10.975 3.15516 10.7854 3.17187 10.6884C3.18692 10.6013 3.21488 10.5076 3.22852 10.4598C3.24532 10.4009 3.25782 10.3399 3.2666 10.2782L3.28027 10.0878C3.28008 9.37933 2.74156 8.79671 2.05176 8.72644L1.91211 8.7196C1.78153 8.71961 1.6561 8.73796 1.53809 8.77136C1.49037 8.78489 1.3966 8.81207 1.30957 8.82703C1.21309 8.84354 1.02295 8.86475 0.811523 8.78015C0.623569 8.70474 0.50423 8.58175 0.432617 8.48914C0.377133 8.41728 0.328896 8.33385 0.310547 8.30261C0.120868 7.97989 -0.000878281 7.62912 -0.000976563 7.23035C-0.000903039 6.67113 0.235943 6.21524 0.551758 5.80164C0.854416 5.40536 1.29515 4.96742 1.80957 4.453L4.45312 1.80847L5.17188 1.10046C5.39543 0.888126 5.60438 0.701967 5.80273 0.550659C6.21644 0.235135 6.67187 -0.00090269 7.23047 -0.00109863L7.37793 0.0057373ZM4.53027 4.4696C4.23742 4.17675 3.76263 4.17683 3.46973 4.4696C3.17683 4.7625 3.17683 5.23726 3.46973 5.53015L6.46973 8.53015C6.76262 8.82304 7.23738 8.82304 7.53027 8.53015C7.82304 8.23725 7.82313 7.76246 7.53027 7.4696L4.53027 4.4696Z"
      fill="currentColor"
    />
  </g>
  <defs>
    <clipPath id="clip0_7090_177"><path fill="currentColor" d="M0 0H12V12H0z" /></clipPath>
  </defs>
</svg>
