<svg width="24" height="24" viewBox="0 0 24 24" fill="none" xmlns="http://www.w3.org/2000/svg" data-fui-icon="true">
  <g clip-path="url(#clip0_7090_207)">
    <path
      d="M14.7754 0.00439453C15.5722 0.0454554 16.2618 0.389319 16.9551 0.912598C17.0443 0.979934 17.168 1.07164 17.2646 1.16553C17.3758 1.27364 17.5201 1.44798 17.5752 1.70654C17.6353 1.98951 17.5516 2.22734 17.4971 2.35693C17.4428 2.48578 17.3617 2.6308 17.2939 2.75342C17.0644 3.16894 16.9336 3.64662 16.9336 4.15674C16.9338 5.76374 18.2366 7.06681 19.8438 7.06689L20.0332 7.06104C20.4714 7.03268 20.8825 6.90672 21.2461 6.70557C21.3685 6.63783 21.5129 6.5567 21.6416 6.50244C21.7551 6.45462 21.9515 6.38419 22.1885 6.40771L22.292 6.42432L22.3857 6.44873C22.5938 6.51483 22.7394 6.63761 22.834 6.73486C22.928 6.83165 23.0196 6.95534 23.0869 7.04443C23.6455 7.78436 24 8.51982 24 9.38623C23.9998 10.2657 23.6352 11.0104 23.0615 11.7622C22.5009 12.4968 21.6733 13.3223 20.6426 14.353L14.3525 20.6431C13.3219 21.6737 12.4963 22.5014 11.7617 23.062C11.0568 23.5999 10.3582 23.9544 9.54883 23.9966L9.38574 24.0005C8.51934 24.0005 7.78387 23.646 7.04395 23.0874C6.95485 23.0201 6.83116 22.9284 6.73437 22.8345C6.62318 22.7264 6.47897 22.5514 6.42383 22.2925C6.3638 22.0094 6.44732 21.7718 6.50195 21.6421C6.55621 21.5134 6.63734 21.369 6.70508 21.2466C6.90621 20.883 7.03217 20.4719 7.06055 20.0337L7.06641 19.8442C7.06635 18.2368 5.76303 16.9333 4.15625 16.9331C3.64612 16.9332 3.1684 17.064 2.75293 17.2935C2.63027 17.3612 2.4853 17.4423 2.35645 17.4966C2.22688 17.5511 1.98903 17.6348 1.70605 17.5747C1.44748 17.5196 1.27313 17.3753 1.16504 17.2642C1.07117 17.1675 0.979467 17.0438 0.912109 16.9546C0.354249 16.2156 0.000119143 15.4806 0 14.6147C6.11651e-05 13.7351 0.364706 12.9906 0.938477 12.2388C1.49913 11.5041 2.3267 10.6787 3.35742 9.64795L9.64746 3.35791C10.6782 2.3272 11.5036 1.49962 12.2383 0.938965C12.9901 0.365206 13.7347 0.000579687 14.6143 0.000488281L14.7754 0.00439453ZM13.7803 15.7202C13.4874 15.4273 13.0126 15.4273 12.7197 15.7202C12.4269 16.0131 12.4269 16.4879 12.7197 16.7808L13.9697 18.0308C14.2626 18.3232 14.7375 18.3235 15.0303 18.0308C15.323 17.738 15.3227 17.2631 15.0303 16.9702L13.7803 15.7202ZM10.2803 12.2202C9.98738 11.9273 9.51262 11.9273 9.21973 12.2202C8.92683 12.5131 8.92683 12.9879 9.21973 13.2808L10.7197 14.7808C11.0127 15.0732 11.4875 15.0735 11.7803 14.7808C12.073 14.488 12.0727 14.0131 11.7803 13.7202L10.2803 12.2202ZM7.03027 8.97021C6.73738 8.67733 6.26261 8.67733 5.96973 8.97021C5.67685 9.26311 5.67684 9.73787 5.96973 10.0308L7.21973 11.2808C7.51265 11.5731 7.98755 11.5735 8.28027 11.2808C8.573 10.988 8.57268 10.5131 8.28027 10.2202L7.03027 8.97021Z"
      fill="currentColor"
    />
  </g>
  <defs>
    <clipPath id="clip0_7090_207"><path fill="currentColor" d="M0 0H24V24H0z" /></clipPath>
  </defs>
</svg>
