<svg width="16" height="16" viewBox="0 0 16 16" fill="none" xmlns="http://www.w3.org/2000/svg" data-fui-icon="true">
  <path
    d="M9.92075 0.0119627C10.4487 0.0651042 10.906 0.296472 11.3416 0.617422C11.3959 0.657442 11.4941 0.728826 11.5731 0.803943C11.6671 0.893517 11.8021 1.05035 11.8553 1.28929C11.914 1.55388 11.8358 1.77244 11.7938 1.87424C11.7519 1.97556 11.6911 2.0864 11.6492 2.1633C11.5252 2.39131 11.454 2.65186 11.4539 2.93086L11.4627 3.0959C11.5456 3.91074 12.2332 4.54704 13.0691 4.54705L13.2742 4.53435C13.4748 4.5085 13.6638 4.44508 13.8347 4.35174C13.9116 4.30978 14.0224 4.24829 14.1238 4.20623C14.2132 4.16915 14.3915 4.10342 14.6121 4.12713L14.7088 4.14374L14.7947 4.16717C14.9863 4.22992 15.1167 4.3436 15.1951 4.42596C15.2703 4.50514 15.3417 4.60328 15.3816 4.6574C15.7488 5.15564 15.9998 5.68202 15.9998 6.31069C15.9996 6.97053 15.7239 7.51788 15.3269 8.03821C14.943 8.5413 14.3801 9.10119 13.7029 9.77842L9.77817 13.7032C9.10084 14.3805 8.54013 14.9433 8.03699 15.3272C7.58175 15.6744 7.10626 15.929 6.55263 15.9873L6.31045 16C5.68235 16 5.15612 15.7496 4.65813 15.3828C4.60396 15.3429 4.50586 15.2715 4.42669 15.1963C4.33264 15.1068 4.19779 14.9499 4.14447 14.711C4.08577 14.4466 4.16374 14.2282 4.20599 14.126C4.24789 14.0248 4.30956 13.9139 4.3515 13.8369C4.44471 13.6659 4.50833 13.476 4.53411 13.2745L4.54681 13.0694C4.54681 12.1773 3.82265 11.4534 2.93062 11.4532C2.65108 11.4533 2.38992 11.5237 2.16208 11.6475C2.08507 11.6894 1.97438 11.7511 1.87302 11.793C1.77131 11.835 1.55273 11.9133 1.28807 11.8546C1.04889 11.8013 0.891295 11.6665 0.801746 11.5723C0.726652 11.4933 0.656214 11.3943 0.616202 11.3399C0.249921 10.8422 0.000113902 10.3169 0 9.68955C9.17558e-05 9.02973 0.275965 8.48331 0.672841 7.96301C0.960743 7.58566 1.34849 7.17518 1.81052 6.70815L6.70791 1.81076C7.17461 1.3488 7.58451 0.960966 7.96179 0.673085C8.48221 0.276032 9.02926 0.000288245 9.68931 0.000244137L9.92075 0.0119627ZM9.53013 10.4698C9.23725 10.1771 8.76244 10.1771 8.4696 10.4698C8.17692 10.7627 8.17693 11.2375 8.4696 11.5303L8.96959 12.0303C9.26245 12.3229 9.73732 12.323 10.0301 12.0303C10.3228 11.7375 10.3227 11.2627 10.0301 10.9698L9.53013 10.4698ZM7.28016 8.21985C6.98729 7.92711 6.51249 7.92708 6.21963 8.21985C5.92696 8.51271 5.92692 8.98753 6.21963 9.28038L6.71962 9.78037C7.01248 10.0729 7.48735 10.073 7.78015 9.78037C8.07286 9.48757 8.07271 9.01272 7.78015 8.71984L7.28016 8.21985ZM5.0302 5.96988C4.73732 5.67717 4.26251 5.67712 3.96967 5.96988C3.67697 6.26273 3.67698 6.73756 3.96967 7.03041L4.46966 7.5304C4.76252 7.82294 5.23739 7.82305 5.53019 7.5304C5.8229 7.23761 5.82275 6.76276 5.53019 6.46987L5.0302 5.96988Z"
    fill="currentColor"
  />
</svg>
