<svg width="24" height="24" viewBox="0 0 24 24" fill="none" xmlns="http://www.w3.org/2000/svg" data-fui-icon="true">
  <path
    d="M14.5 0.242676C15.1306 0.242793 15.6971 0.422015 16.2373 0.726074C16.342 0.785018 16.5196 0.882709 16.6621 0.993652C16.8356 1.1288 17.0735 1.3703 17.1514 1.76123C17.2384 2.19891 17.0599 2.54141 16.9648 2.69971C16.8707 2.85638 16.7369 3.02482 16.6387 3.1499C16.2384 3.65982 16 4.30097 16 5.00049L16.0039 5.15479C16.0844 6.73988 17.3952 8.00049 19 8.00049L19.2588 7.98975C19.8562 7.93857 20.4023 7.71173 20.8486 7.36084C20.9735 7.26263 21.1413 7.12792 21.2979 7.03369C21.4364 6.95038 21.7155 6.80317 22.0762 6.82568L22.2363 6.84717L22.376 6.8833C22.6861 6.98312 22.8865 7.18357 23.0049 7.33545C23.1159 7.47792 23.2125 7.65654 23.2715 7.76123C23.5763 8.30221 23.7568 8.86891 23.7568 9.50049C23.7567 10.4281 23.3695 11.1998 22.8018 11.9438C22.2515 12.665 21.4438 13.4698 20.4639 14.4497L17.0166 17.896L15.0605 15.9399C14.4748 15.3542 13.5252 15.3542 12.9395 15.9399C12.3537 16.5257 12.3537 17.4752 12.9395 18.061L14.8955 20.0171L14.4492 20.4644C13.4693 21.4442 12.6645 22.252 11.9434 22.8022C11.2457 23.3346 10.5239 23.7078 9.67187 23.7524L9.5 23.7573C8.86859 23.7573 8.30159 23.5776 7.76074 23.2729C7.65605 23.214 7.47744 23.1164 7.33496 23.0054C7.1614 22.8701 6.92428 22.6279 6.84668 22.2368C6.7599 21.7991 6.93794 21.4567 7.0332 21.2983C7.12743 21.1417 7.26215 20.974 7.36035 20.8491C7.71124 20.4028 7.93808 19.8567 7.98926 19.2593L8 19.0005C7.99997 17.3957 6.73936 16.0849 5.1543 16.0044L5 16.0005C4.30046 16.0005 3.65932 16.2389 3.14941 16.6392C3.02433 16.7373 2.85588 16.8712 2.69922 16.9653C2.54092 17.0604 2.19841 17.2389 1.76074 17.1519C1.36981 17.074 1.12831 16.8361 0.993164 16.6626C0.882229 16.5201 0.784531 16.3425 0.725586 16.2378C0.459499 15.7651 0.289556 15.2721 0.250977 14.7339L0.242187 14.5005C0.242188 13.5727 0.629416 12.8006 1.19727 12.0562C1.74754 11.3348 2.5552 10.5302 3.53516 9.55029L3.98145 9.10303L5.93945 11.061C6.52527 11.6464 7.4749 11.6467 8.06055 11.061C8.64619 10.4754 8.64591 9.52576 8.06055 8.93994L6.10254 6.98193L9.5498 3.53564C10.5298 2.55569 11.3344 1.74803 12.0557 1.19775C12.8001 0.629904 13.5722 0.242675 14.5 0.242676ZM10.8105 11.6899C10.2248 11.1042 9.27524 11.1042 8.68945 11.6899C8.10367 12.2757 8.10367 13.2252 8.68945 13.811L10.1895 15.311C10.7753 15.8964 11.7249 15.8967 12.3105 15.311C12.8962 14.7254 12.8959 13.7758 12.3105 13.1899L10.8105 11.6899Z"
    fill="currentColor"
  />
</svg>
