<svg width="12" height="13" viewBox="0 0 12 13" fill="none" xmlns="http://www.w3.org/2000/svg" data-fui-icon="true">
  <path
    d="M7.37793 0.00683594C7.71551 0.0325719 8.01879 0.145163 8.30078 0.310547C8.332 0.32884 8.41551 0.376369 8.4873 0.431641C8.55665 0.485143 8.6433 0.565884 8.71387 0.681641L8.77832 0.810547L8.82422 0.963867C8.85331 1.11051 8.83937 1.23541 8.82715 1.30762C8.81235 1.3947 8.78401 1.48916 8.77051 1.53711C8.73744 1.65483 8.71973 1.78114 8.71973 1.91309L8.72656 2.05273C8.79691 2.74259 9.37957 3.28109 10.0879 3.28125C10.2167 3.2812 10.3416 3.26324 10.46 3.22949C10.5077 3.21586 10.6014 3.18789 10.6885 3.17285C10.7612 3.16032 10.8863 3.14493 11.0332 3.17383L11.1865 3.21875L11.3154 3.2832C11.4316 3.35366 11.5127 3.4404 11.5664 3.50977C11.6221 3.58186 11.6704 3.66563 11.6885 3.69629C11.8783 4.01864 11.9999 4.36992 12 4.76953L11.9893 4.97461C11.9398 5.44154 11.7253 5.83611 11.4492 6.19824C11.298 6.39656 11.1126 6.60566 10.9004 6.8291L10.1914 7.54785L7.54687 10.1914C7.03249 10.7058 6.59452 11.1466 6.19824 11.4492C5.83643 11.7255 5.44185 11.9406 4.97461 11.9902L4.76953 12.001C4.36976 12.001 4.01815 11.8795 3.69531 11.6895C3.66462 11.6714 3.58093 11.6231 3.50879 11.5674C3.41618 11.4957 3.29413 11.3756 3.21875 11.1875C3.13424 10.9761 3.15516 10.7865 3.17187 10.6895C3.18692 10.6024 3.21488 10.5087 3.22852 10.4609C3.24532 10.402 3.25782 10.341 3.2666 10.2793L3.28027 10.0889C3.28008 9.38043 2.74156 8.79781 2.05176 8.72754L1.91211 8.7207C1.78153 8.72071 1.6561 8.73906 1.53809 8.77246C1.49037 8.78599 1.3966 8.81317 1.30957 8.82812C1.21309 8.84463 1.02295 8.86585 0.811523 8.78125C0.623569 8.70583 0.50423 8.58285 0.432617 8.49023C0.377133 8.41838 0.328896 8.33495 0.310547 8.30371C0.120868 7.98099 -0.000878281 7.63022 -0.000976563 7.23145C-0.000903039 6.67223 0.235943 6.21633 0.551758 5.80273C0.854416 5.40646 1.29515 4.96852 1.80957 4.4541L4.45312 1.80957L5.17188 1.10156C5.39543 0.889225 5.60438 0.703065 5.80273 0.551758C6.21644 0.236234 6.67187 0.000195943 7.23047 0L7.37793 0.00683594ZM4.53027 4.4707C4.23742 4.17785 3.76263 4.17793 3.46973 4.4707C3.17683 4.7636 3.17683 5.23836 3.46973 5.53125L6.46973 8.53125C6.76262 8.82414 7.23738 8.82414 7.53027 8.53125C7.82304 8.23835 7.82313 7.76356 7.53027 7.4707L4.53027 4.4707Z"
    fill="currentColor"
  />
</svg>
