<svg width="17" height="17" viewBox="0 0 17 17" fill="none" xmlns="http://www.w3.org/2000/svg" data-fui-icon="true">
  <path
    d="M10.4978 0.0359211C10.7709 0.0647696 11.031 0.135618 11.281 0.241332C11.3299 0.261982 11.4789 0.321586 11.6078 0.401097C11.7591 0.494387 11.9436 0.648156 12.0716 0.892839L12.1234 1.00384L12.168 1.1356C12.2517 1.43735 12.1971 1.69745 12.1577 1.8369C12.1181 1.97666 12.0534 2.12388 12.0228 2.19585C11.9148 2.44954 11.8547 2.72727 11.8547 3.02061L11.8661 3.23743C11.9748 4.30898 12.8793 5.14527 13.9794 5.14527L14.1952 5.13386C14.4084 5.11183 14.6124 5.05754 14.8031 4.97617C14.8751 4.94545 15.0216 4.88091 15.161 4.8413C15.3005 4.80168 15.5606 4.74753 15.8623 4.83093L15.9941 4.87554L16.1051 4.92637C16.35 5.05412 16.5034 5.23901 16.5968 5.3901C16.6764 5.51884 16.7369 5.6669 16.7576 5.71586C16.8993 6.04982 16.9786 6.40233 16.9786 6.78026C16.9785 7.54577 16.6557 8.16699 16.2296 8.72545C15.8221 9.25949 15.2296 9.84889 14.5427 10.5358L12.2292 12.8492L11.3765 11.9965C10.9616 11.582 10.289 11.5817 9.87427 11.9965C9.45957 12.4112 9.45981 13.0838 9.87427 13.4987L10.727 14.3514L10.5144 14.5641C9.82749 15.251 9.23809 15.8435 8.70405 16.251C8.21554 16.6237 7.67914 16.9177 7.04001 16.9855L6.75887 17C6.38094 17 6.0284 16.9207 5.69446 16.779C5.64547 16.7583 5.49742 16.6978 5.36871 16.6182C5.19598 16.5114 4.97942 16.326 4.85414 16.0155C4.71043 15.6589 4.77464 15.3418 4.81991 15.1824C4.85951 15.043 4.92405 14.8965 4.95477 14.8245C5.03613 14.6338 5.09042 14.4298 5.11246 14.2166L5.12387 14.0008C5.12387 12.9006 4.28758 11.9962 3.21604 11.8875L2.99921 11.8761C2.70585 11.8761 2.42812 11.9362 2.17446 12.0442C2.10248 12.0748 1.95526 12.1395 1.81551 12.1791C1.65614 12.2242 1.33904 12.289 0.982448 12.1448C0.671861 12.0192 0.486395 11.8022 0.3797 11.6292C0.300188 11.5002 0.240585 11.3513 0.219935 11.3024C0.0789303 10.9689 -1.11477e-07 10.6176 0 10.2411C2.99463e-05 9.47552 0.322904 8.85442 0.749026 8.29595C1.15652 7.76194 1.74899 7.17252 2.43589 6.48563L2.64856 6.27296L3.50029 7.12469C3.91515 7.53954 4.58763 7.53952 5.00249 7.12469C5.41736 6.70982 5.41736 6.03736 5.00249 5.62249L4.15076 4.77076L6.46424 2.45729C7.15113 1.77039 7.74054 1.17792 8.27455 0.770423C8.83302 0.344305 9.45414 0.0214375 10.2197 0.021397L10.4978 0.0359211ZM7.65832 8.27831C7.24344 7.86388 6.57085 7.86363 6.15612 8.27831C5.74142 8.69305 5.74167 9.36563 6.15612 9.78051L7.21845 10.8428C7.6333 11.2577 8.30578 11.2577 8.72065 10.8428C9.13547 10.428 9.1355 9.75549 8.72065 9.34064L7.65832 8.27831Z"
    fill="currentColor"
  />
</svg>
