<svg width="20" height="20" viewBox="0 0 20 20" fill="none" xmlns="http://www.w3.org/2000/svg" data-fui-icon="true">
  <path
    d="M12.4252 0.0156242C13.0588 0.0811229 13.6115 0.368315 14.1546 0.778282C14.2253 0.831618 14.3354 0.912672 14.4221 0.997022C14.5109 1.08338 14.6285 1.22134 14.6917 1.42083L14.7151 1.51067L14.7307 1.61027C14.7532 1.83799 14.6852 2.02441 14.6428 2.1249C14.5947 2.23888 14.5232 2.3648 14.469 2.46277C14.2905 2.7854 14.1888 3.15591 14.1888 3.55158L14.2005 3.78302C14.3167 4.9217 15.279 5.81104 16.4484 5.81124L16.5949 5.80636C16.9345 5.78433 17.2532 5.68721 17.5353 5.53098C17.6332 5.47672 17.7592 5.40524 17.8732 5.35716C17.9737 5.31476 18.1594 5.24695 18.3868 5.26927L18.4874 5.2849L18.5772 5.30833C18.7766 5.37166 18.9149 5.48933 19.001 5.57785C19.0853 5.66465 19.1665 5.77403 19.2198 5.84444C19.6886 6.46459 19.999 7.09751 19.999 7.85118C19.9988 8.61491 19.6818 9.25605 19.2012 9.88624C18.7337 10.4992 18.0452 11.1848 17.2003 12.0297L12.0277 17.2013C11.1831 18.0459 10.4971 18.7337 9.88428 19.2012C9.33317 19.6217 8.77409 19.9178 8.13144 19.9854L7.8502 20C7.09734 20 6.46439 19.6906 5.84346 19.2217C5.77298 19.1685 5.66285 19.0874 5.5759 19.003C5.4745 18.9044 5.33581 18.7381 5.28295 18.4893C5.22516 18.2166 5.30659 17.9903 5.35521 17.8751C5.40337 17.7611 5.47471 17.6342 5.52903 17.5363C5.68553 17.254 5.78334 16.9356 5.80538 16.5959L5.81026 16.4494C5.81013 15.2797 4.92027 14.3173 3.78107 14.2015L3.55061 14.1897C3.15489 14.1898 2.78438 14.2915 2.46179 14.47C2.36382 14.5242 2.23789 14.5957 2.12392 14.6438C2.00908 14.6922 1.7817 14.7739 1.50872 14.7161C1.2605 14.6632 1.09467 14.5245 0.996045 14.4231C0.911708 14.3363 0.830644 14.2262 0.777306 14.1556C0.308852 13.5349 -0.000843447 12.9021 -0.000976515 12.1498C-0.00081104 11.386 0.318166 10.7458 0.798789 10.1157C1.2663 9.50291 1.95405 8.81691 2.79869 7.97227L7.97129 2.80064C8.81599 1.95594 9.50207 1.26745 10.1147 0.799766C10.7446 0.319079 11.3848 0.000124475 12.1488 0L12.4252 0.0156242ZM11.5297 13.47C11.2368 13.1772 10.7621 13.1772 10.4692 13.47C10.1765 13.7629 10.1764 14.2377 10.4692 14.5305L11.2192 15.2805C11.512 15.5731 11.9869 15.5732 12.2797 15.2805C12.5725 14.9877 12.5723 14.5129 12.2797 14.22L11.5297 13.47ZM8.40486 10.3452C8.11201 10.0523 7.63725 10.0524 7.34437 10.3452C7.05152 10.6381 7.0515 11.1128 7.34437 11.4057L8.59431 12.6556C8.88722 12.948 9.36209 12.9483 9.6548 12.6556C9.94743 12.3629 9.94716 11.888 9.6548 11.5951L8.40486 10.3452ZM5.77999 7.72033C5.48711 7.42745 5.01238 7.42745 4.7195 7.72033C4.42677 8.01322 4.42667 8.48799 4.7195 8.78082L5.46946 9.53078C5.76231 9.8234 6.23714 9.82344 6.52995 9.53078C6.82276 9.23798 6.82262 8.76319 6.52995 8.47029L5.77999 7.72033Z"
    fill="currentColor"
  />
</svg>
