<svg width="20" height="20" viewBox="0 0 20 20" fill="none" xmlns="http://www.w3.org/2000/svg" data-fui-icon="true">
  <g clip-path="url(#clip0_7090_196)">
    <path
      d="M12.4258 0.0150146C13.0594 0.0805165 13.6121 0.367722 14.1553 0.77771C14.226 0.831048 14.3361 0.912107 14.4229 0.99646C14.5116 1.08282 14.6292 1.22079 14.6924 1.42029L14.7158 1.51013L14.7314 1.60974C14.7539 1.83747 14.6859 2.02389 14.6436 2.12439C14.5955 2.23838 14.524 2.36431 14.4697 2.46228C14.2912 2.78493 14.1895 3.15546 14.1895 3.55115L14.2012 3.78259C14.3174 4.92133 15.2797 5.81071 16.4492 5.81091L16.5957 5.80603C16.9353 5.78401 17.2541 5.68688 17.5361 5.53064C17.6341 5.47638 17.7601 5.40489 17.874 5.35681C17.9746 5.31441 18.1603 5.24659 18.3877 5.26892L18.4883 5.28455L18.5781 5.30798C18.7775 5.37131 18.9158 5.48898 19.002 5.57751C19.0863 5.66432 19.1675 5.7737 19.2207 5.84412C19.6895 6.4643 20 7.09724 20 7.85095C19.9998 8.61472 19.6828 9.25589 19.2021 9.88611C18.7346 10.4992 18.0461 11.1848 17.2012 12.0297L12.0283 17.2015C11.1836 18.0462 10.4976 18.734 9.88477 19.2015C9.33362 19.622 8.77452 19.9181 8.13184 19.9857L7.85059 20.0004C7.09769 20.0004 6.46471 19.6909 5.84375 19.222C5.77326 19.1688 5.66312 19.0877 5.57617 19.0033C5.47477 18.9047 5.33607 18.7384 5.2832 18.4896C5.22542 18.2169 5.30685 17.9906 5.35547 17.8754C5.40364 17.7613 5.47498 17.6344 5.5293 17.5365C5.68581 17.2542 5.78362 16.9358 5.80566 16.5961L5.81055 16.4496C5.81041 15.2798 4.92051 14.3174 3.78125 14.2015L3.55078 14.1898C3.15504 14.1899 2.78451 14.2916 2.46191 14.4701C2.36393 14.5243 2.238 14.5958 2.12402 14.6439C2.00917 14.6923 1.78179 14.774 1.50879 14.7162C1.26056 14.6633 1.09473 14.5246 0.996094 14.4232C0.911753 14.3364 0.830684 14.2263 0.777344 14.1556C0.308867 13.535 -0.000843489 12.9021 -0.000976563 12.1498C-0.000811079 11.3859 0.318181 10.7457 0.798828 10.1156C1.26636 9.50276 1.95414 8.81673 2.79883 7.97205L7.97168 2.80017C8.81642 1.95543 9.50253 1.2669 10.1152 0.799194C10.7451 0.318485 11.3854 -0.00048587 12.1494 -0.000610352L12.4258 0.0150146ZM11.5303 13.4701C11.2374 13.1772 10.7626 13.1772 10.4697 13.4701C10.177 13.763 10.1769 14.2378 10.4697 14.5306L11.2197 15.2806C11.5126 15.5732 11.9875 15.5733 12.2803 15.2806C12.5731 14.9878 12.5729 14.513 12.2803 14.2201L11.5303 13.4701ZM8.40527 10.3451C8.11241 10.0522 7.63763 10.0523 7.34473 10.3451C7.05186 10.638 7.05184 11.1128 7.34473 11.4056L8.59473 12.6556C8.88765 12.948 9.36254 12.9483 9.65527 12.6556C9.94791 12.3629 9.94765 11.888 9.65527 11.5951L8.40527 10.3451ZM5.78027 7.72009C5.48738 7.4272 5.01262 7.4272 4.71973 7.72009C4.42699 8.013 4.42688 8.4878 4.71973 8.78064L5.46973 9.53064C5.76259 9.82327 6.23744 9.82331 6.53027 9.53064C6.82309 9.23782 6.82295 8.763 6.53027 8.47009L5.78027 7.72009Z"
      fill="currentColor"
    />
  </g>
  <defs>
    <clipPath id="clip0_7090_196"><path fill="currentColor" d="M0 0H20V20H0z" /></clipPath>
  </defs>
</svg>
