<svg width="24" height="24" viewBox="0 0 24 24" fill="none" xmlns="http://www.w3.org/2000/svg" data-fui-icon="true">
  <path
    fill-rule="evenodd"
    clip-rule="evenodd"
    d="M14.3428 1.00061C15.1713 1.0007 15.8777 1.30951 16.5527 1.78381C16.6339 1.84083 16.7733 1.93715 16.8857 2.03967C17.0028 2.14646 17.1613 2.32039 17.251 2.57874L17.2852 2.69397L17.3086 2.82581C17.3461 3.12594 17.2606 3.37185 17.2109 3.4967C17.154 3.6397 17.0696 3.79734 17.0088 3.91272C16.8426 4.22819 16.7481 4.58828 16.748 4.97327L16.7598 5.20667C16.877 6.35541 17.8477 7.25245 19.0273 7.25256L19.1699 7.24768C19.5001 7.22718 19.8097 7.13686 20.0859 6.99084C20.2013 6.92988 20.3588 6.84484 20.502 6.78772C20.6271 6.7378 20.8725 6.6527 21.1729 6.69006L21.3047 6.7135L21.4199 6.74768C21.6784 6.83731 21.8531 6.99489 21.96 7.11194C22.0626 7.22449 22.1588 7.36394 22.2158 7.44495C22.6909 8.12047 23.0009 8.82809 23.001 9.65784L22.9961 9.82971C22.9515 10.6817 22.5782 11.4043 22.0459 12.1022C21.4956 12.8235 20.6879 13.6282 19.708 14.608L14.6074 19.7076C13.6276 20.6874 12.8226 21.4953 12.1016 22.0455C11.404 22.5778 10.6821 22.9511 9.83008 22.9957L9.6582 23.0006C8.82826 23.0006 8.12113 22.6902 7.44629 22.2155C7.36527 22.1585 7.22582 22.0623 7.11328 21.9596C6.97958 21.8375 6.79253 21.6266 6.71484 21.3033C6.62883 20.9444 6.73192 20.6448 6.78906 20.5016C6.84615 20.3587 6.9312 20.2008 6.99219 20.0856C7.1595 19.7694 7.25481 19.4095 7.25488 19.026C7.25446 17.8466 6.35721 16.8761 5.20801 16.7594L4.97559 16.7477C4.59062 16.7477 4.23001 16.8428 3.91406 17.0094C3.79859 17.0703 3.64101 17.1546 3.49805 17.2115C3.35543 17.2683 3.05549 17.372 2.69629 17.2858C2.37333 17.208 2.163 17.0209 2.04102 16.8873C1.93845 16.775 1.84227 16.6355 1.78516 16.5543C1.31036 15.8795 1.0001 15.1723 1 14.3424C1.00001 13.4147 1.38739 12.6431 1.95508 11.899C2.50534 11.178 3.31316 10.373 4.29297 9.39319L9.39258 4.29358C10.3725 3.31366 11.1771 2.50596 11.8984 1.95569C12.6428 1.38784 13.4149 1.00061 14.3428 1.00061ZM14.3428 3.00061C14.028 3.00061 13.6778 3.11338 13.1113 3.54553C12.5218 3.99526 11.8264 4.68784 10.8066 5.70764L7.55664 8.95667L8.4873 9.88733C8.8778 10.2778 8.87773 10.9109 8.4873 11.3014C8.09676 11.6917 7.46369 11.6918 7.07324 11.3014L6.14258 10.3707L5.70703 10.8073C4.68719 11.8271 3.99469 12.5225 3.54492 13.1119C3.1129 13.6781 3.00001 14.0278 3 14.3424C3.00007 14.5637 3.05667 14.8006 3.2373 15.1158C3.76933 14.8791 4.35835 14.7477 4.97559 14.7477L5.19629 14.7535C7.45617 14.8687 9.25431 16.7372 9.25488 19.026C9.25482 19.6436 9.12154 20.2316 8.88477 20.7623C9.20024 20.9431 9.43682 21.0006 9.6582 21.0006L9.77832 20.9948C10.0636 20.9672 10.3934 20.8336 10.8887 20.4557C11.4781 20.0059 12.1735 19.3134 13.1934 18.2936L13.6279 17.858L12.6934 16.9235C12.3031 16.533 12.3032 15.8999 12.6934 15.5094C13.0838 15.1189 13.7169 15.119 14.1074 15.5094L15.042 16.444L18.2939 13.194C19.3137 12.1742 20.0063 11.4788 20.4561 10.8893C20.834 10.3938 20.9675 10.0634 20.9951 9.77795L21.001 9.65784C21.0009 9.43608 20.9434 9.19901 20.7627 8.88342C20.3092 9.08549 19.8143 9.21141 19.2949 9.24377L19.0273 9.25256C16.7384 9.25241 14.8691 7.45433 14.7539 5.19397L14.748 4.97327C14.7481 4.35697 14.8791 3.76857 15.1152 3.23694C14.8009 3.05728 14.5643 3.00067 14.3428 3.00061ZM9.18066 11.9957C9.57114 11.6053 10.2042 11.6054 10.5947 11.9957L12 13.401C12.3904 13.7915 12.3905 14.4246 12 14.8151C11.6095 15.2053 10.9764 15.2054 10.5859 14.8151L9.18066 13.4098C8.79036 13.0193 8.79042 12.3862 9.18066 11.9957Z"
    fill="currentColor"
  />
</svg>
