<svg width="32" height="32" viewBox="0 0 32 32" fill="none" xmlns="http://www.w3.org/2000/svg" data-fui-icon="true">
  <path
    fill-rule="evenodd"
    clip-rule="evenodd"
    d="M19.4688 0C20.6772 1.04889e-05 21.6847 0.534615 22.709 1.35059C22.8351 1.45104 23.0057 1.58499 23.1367 1.71973C23.2839 1.87111 23.488 2.12807 23.54 2.50781C23.5965 2.92167 23.4327 3.24931 23.3389 3.41406C23.2424 3.58337 23.1039 3.77128 22.9863 3.93359C22.5533 4.53167 22.2981 5.26578 22.2979 6.06152C22.2979 8.07007 23.927 9.69905 25.9355 9.69922L26.2305 9.6875C26.912 9.63276 27.5391 9.38983 28.0625 9.01074C28.2248 8.8932 28.4127 8.75473 28.582 8.6582C28.7261 8.57607 28.9949 8.44028 29.3369 8.44531L29.4883 8.45703L29.625 8.48242C29.9303 8.55812 30.1438 8.73066 30.2764 8.85938C30.411 8.99025 30.545 9.161 30.6455 9.28711C31.4619 10.3114 31.9968 11.3195 31.9971 12.5283L31.9912 12.7393C31.9368 13.7832 31.4805 14.6824 30.792 15.585C30.0751 16.5247 29.0174 17.5793 27.7041 18.8926L18.8926 27.7041C17.5794 29.0173 16.5245 30.0751 15.585 30.792C14.6827 31.4805 13.784 31.9367 12.7402 31.9912L12.5293 31.9971C11.3214 31.997 10.3135 31.4632 9.28906 30.6475C9.16295 30.547 8.99226 30.4139 8.86133 30.2793C8.71402 30.1278 8.50992 29.8701 8.45801 29.4902C8.40167 29.0763 8.56621 28.7487 8.66016 28.584C8.75684 28.4145 8.89503 28.2258 9.0127 28.0635C9.44653 27.4648 9.70215 26.7308 9.70215 25.9346C9.70159 23.9265 8.07285 22.2979 6.06445 22.2979C5.26813 22.298 4.53405 22.5536 3.93555 22.9873C3.77312 23.105 3.58454 23.2432 3.41504 23.3398C3.25031 23.4338 2.9229 23.5984 2.50879 23.542C2.1289 23.49 1.87115 23.2859 1.71973 23.1387C1.5851 23.0077 1.45195 22.8369 1.35156 22.7109C0.534886 21.6858 0.000102806 20.6775 0 19.4688C0.000104007 18.334 0.470633 17.3748 1.20508 16.4121C1.92202 15.4724 2.97977 14.4177 4.29297 13.1045L13.1045 4.29297C14.4178 2.97969 15.4724 1.922 16.4121 1.20508C17.3748 0.470617 18.3339 6.80655e-05 19.4688 0ZM19.4688 2C18.9469 2.00006 18.4098 2.19623 17.625 2.79492C16.8171 3.41131 15.8717 4.35385 14.5186 5.70703L5.70703 14.5186C4.35393 15.8717 3.41134 16.8171 2.79492 17.625C2.19623 18.4098 2.00009 18.947 2 19.4688L2.01074 19.6777C2.05963 20.1412 2.28211 20.6392 2.81348 21.3311C3.73182 20.6811 4.85466 20.298 6.06445 20.2979C9.17719 20.2979 11.7015 22.8218 11.7021 25.9346C11.7021 27.1444 11.3178 28.2662 10.668 29.1846C11.4642 29.796 12.004 29.997 12.5293 29.9971L12.7256 29.9873C13.1886 29.9416 13.6853 29.7262 14.3721 29.2021C15.1799 28.5857 16.1253 27.6432 17.4785 26.29L26.29 17.4785C27.6432 16.1254 28.5858 15.18 29.2021 14.3721C29.7259 13.6855 29.9415 13.1885 29.9873 12.7256L29.9971 12.5283C29.9969 12.0032 29.7953 11.464 29.1826 10.667C28.3233 11.2747 27.2861 11.6492 26.165 11.6943L25.9355 11.6992C22.8225 11.699 20.2979 9.17467 20.2979 6.06152C20.2981 4.85291 20.68 3.73048 21.3291 2.8125C20.533 2.20113 19.9938 2.00001 19.4688 2ZM16.0723 20.2373C16.4628 19.8468 17.0958 19.8469 17.4863 20.2373L19.3076 22.0586C19.698 22.4491 19.6981 23.0822 19.3076 23.4727C18.9171 23.8629 18.284 23.863 17.8936 23.4727L16.0723 21.6514C15.6819 21.2609 15.682 20.6278 16.0723 20.2373ZM12.4277 16.5938C12.8182 16.2033 13.4513 16.2033 13.8418 16.5938L15.4033 18.1553C15.7937 18.5458 15.7937 19.1788 15.4033 19.5693C15.0128 19.9595 14.3797 19.9596 13.9893 19.5693L12.4277 18.0078C12.0374 17.6174 12.0375 16.9843 12.4277 16.5938ZM8.52441 12.6895C8.91494 12.2993 9.54806 12.2991 9.93848 12.6895L11.748 14.498C12.1384 14.8885 12.1382 15.5226 11.748 15.9131C11.3575 16.3033 10.7234 16.3034 10.333 15.9131L8.52441 14.1035C8.13405 13.7131 8.13419 13.08 8.52441 12.6895Z"
    fill="currentColor"
  />
</svg>
