<svg width="24" height="24" viewBox="0 0 24 24" fill="none" xmlns="http://www.w3.org/2000/svg" data-fui-icon="true">
  <g clip-path="url(#clip0_7090_105)">
    <path
      d="M14.7754 0.00439453C15.5722 0.0454554 16.2618 0.389319 16.9551 0.912598C17.0443 0.979934 17.168 1.07164 17.2646 1.16553C17.3758 1.27364 17.5201 1.44798 17.5752 1.70654C17.6353 1.98951 17.5516 2.22734 17.4971 2.35693C17.4428 2.48578 17.3617 2.6308 17.2939 2.75342C17.0644 3.16894 16.9336 3.64662 16.9336 4.15674L16.9375 4.30615C17.0155 5.8437 18.2867 7.06681 19.8438 7.06689L20.0332 7.06104C20.4714 7.03268 20.8825 6.90672 21.2461 6.70557C21.3685 6.63783 21.5129 6.5567 21.6416 6.50244C21.7551 6.45462 21.9515 6.38419 22.1885 6.40771L22.292 6.42432L22.3857 6.44873C22.5938 6.51483 22.7394 6.63761 22.834 6.73486C22.928 6.83165 23.0196 6.95534 23.0869 7.04443C23.6455 7.78436 24 8.51982 24 9.38623C23.9998 10.2657 23.6352 11.0104 23.0615 11.7622C22.5009 12.4968 21.6733 13.3223 20.6426 14.353L14.3525 20.6431C13.3219 21.6737 12.4963 22.5014 11.7617 23.062C11.0568 23.5999 10.3582 23.9544 9.54883 23.9966L9.38574 24.0005C8.51934 24.0005 7.78387 23.646 7.04395 23.0874C6.95485 23.0201 6.83116 22.9284 6.73437 22.8345C6.62318 22.7264 6.47897 22.5514 6.42383 22.2925C6.3638 22.0094 6.44732 21.7718 6.50195 21.6421C6.55621 21.5134 6.63734 21.369 6.70508 21.2466C6.90621 20.883 7.03217 20.4719 7.06055 20.0337L7.06641 19.8442C7.06635 18.287 5.84301 17.0151 4.30566 16.937L4.15625 16.9331C3.64612 16.9332 3.1684 17.064 2.75293 17.2935C2.63027 17.3612 2.4853 17.4423 2.35645 17.4966C2.22688 17.5511 1.98903 17.6348 1.70605 17.5747C1.44748 17.5196 1.27313 17.3753 1.16504 17.2642C1.07117 17.1675 0.979467 17.0438 0.912109 16.9546C0.354249 16.2156 0.000119143 15.4806 0 14.6147C6.11651e-05 13.7351 0.364706 12.9906 0.938477 12.2388C1.49913 11.5041 2.3267 10.6787 3.35742 9.64795L9.64746 3.35791C10.6782 2.3272 11.5036 1.49962 12.2383 0.938965C12.9901 0.365206 13.7347 0.000579687 14.6143 0.000488281L14.7754 0.00439453ZM14.6143 1.50049C14.1946 1.50055 13.7668 1.65946 13.1484 2.13135C12.5125 2.61665 11.7688 3.35771 10.708 4.41846L6.59277 8.53271L8.03027 9.97021C8.32274 10.2631 8.32302 10.738 8.03027 11.0308C7.73752 11.3235 7.26265 11.3232 6.96973 11.0308L5.53223 9.59326L4.41797 10.7085C3.3572 11.7693 2.61616 12.513 2.13086 13.1489C1.65896 13.7673 1.50004 14.1951 1.5 14.6147L1.50781 14.77C1.5417 15.116 1.69502 15.4819 2.0498 15.9683C2.67619 15.6269 3.3948 15.4332 4.15625 15.4331L4.38281 15.439C6.71324 15.5572 8.56634 17.485 8.56641 19.8442L8.55664 20.1313C8.51414 20.7861 8.32731 21.4024 8.0293 21.9487C8.59022 22.3581 8.99122 22.5005 9.38574 22.5005L9.54395 22.4927C9.91531 22.4557 10.3107 22.2824 10.8516 21.8696C11.4874 21.3843 12.2313 20.6432 13.292 19.5825L14.4062 18.4673L12.9697 17.0308C12.6768 16.7379 12.6768 16.2631 12.9697 15.9702C13.2626 15.6773 13.7374 15.6773 14.0303 15.9702L15.4668 17.4067L19.582 13.2925C20.6427 12.2318 21.3838 11.4879 21.8691 10.8521C22.3409 10.2338 22.4998 9.80577 22.5 9.38623C22.5 8.9917 22.3577 8.59072 21.9482 8.02979C21.4019 8.32779 20.7857 8.51465 20.1309 8.55713L19.8438 8.56689C17.4843 8.56679 15.5576 6.71349 15.4395 4.3833L15.4336 4.15674C15.4336 3.39511 15.6275 2.67659 15.9688 2.05029C15.4822 1.69545 15.1159 1.54216 14.7695 1.5083L14.6143 1.50049ZM9.21973 12.2202C9.51262 11.9273 9.98738 11.9273 10.2803 12.2202L11.7803 13.7202C12.0727 14.0131 12.073 14.488 11.7803 14.7808C11.4875 15.0735 11.0127 15.0732 10.7197 14.7808L9.21973 13.2808C8.92683 12.9879 8.92683 12.5131 9.21973 12.2202Z"
      fill="currentColor"
    />
  </g>
  <defs>
    <clipPath id="clip0_7090_105"><path fill="currentColor" d="M0 0H24V24H0z" /></clipPath>
  </defs>
</svg>
