<svg width="32" height="32" viewBox="0 0 32 32" fill="none" xmlns="http://www.w3.org/2000/svg" data-fui-icon="true">
  <path
    d="M19.6436 1.00879C19.9707 1.03775 20.2893 1.10952 20.6035 1.22266C21.1979 1.43665 21.8573 1.636 22.2275 2.32715C22.4627 2.76637 22.4136 3.29624 22.3428 3.73633C22.265 4.21945 22.109 4.85048 21.917 5.62988C21.8475 5.91182 21.8106 6.20752 21.8105 6.5127L21.8154 6.70215C21.9143 8.64468 23.5208 10.1894 25.4883 10.1895L25.7148 10.1826C25.9397 10.1689 26.1589 10.1351 26.3701 10.083C27.1492 9.8908 27.7799 9.73414 28.2627 9.65625C28.7025 9.58533 29.2319 9.53591 29.6709 9.77051C30.3619 10.1402 30.5616 10.8004 30.7764 11.3945C30.928 11.8143 31.0068 12.241 31.0068 12.6875C31.0067 13.7406 30.5727 14.6422 29.8594 15.5771C29.1591 16.495 28.1216 17.5298 26.8115 18.8398L18.8398 26.8105C17.5297 28.1207 16.4949 29.1581 15.5771 29.8584C14.7005 30.5273 13.8532 30.9507 12.8828 31.001L12.6875 31.0059C12.2416 31.0059 11.8149 30.9276 11.3955 30.7764C10.8012 30.562 10.1415 30.3624 9.77148 29.6709C9.53665 29.2317 9.58611 28.7026 9.65723 28.2627C9.73533 27.7798 9.8923 27.1482 10.085 26.3691C10.1546 26.0875 10.1914 25.7921 10.1914 25.4873C10.1912 23.5204 8.64559 21.9136 6.70312 21.8145L6.51367 21.8096C6.20834 21.8096 5.91212 21.8465 5.62988 21.916C4.85048 22.1082 4.21944 22.2649 3.73633 22.3428C3.29625 22.4137 2.7664 22.4626 2.32715 22.2275C1.63579 21.8573 1.43677 21.1971 1.22266 20.6025C1.07193 20.184 0.994183 19.7584 0.994141 19.3135C0.994141 18.2603 1.42825 17.3591 2.1416 16.4238C2.8419 15.5058 3.87919 14.4704 5.18945 13.1602L13.1611 5.18945C14.4712 3.87936 15.506 2.84189 16.4238 2.1416C17.3588 1.42821 18.2603 0.994189 19.3135 0.994141L19.6436 1.00879ZM19.3135 2.49414C18.7202 2.49418 18.1354 2.72254 17.334 3.33398C16.515 3.95889 15.5618 4.90991 14.2217 6.25L6.25 14.2207C4.90983 15.5609 3.95886 16.5138 3.33398 17.333C2.72231 18.1349 2.49414 18.72 2.49414 19.3135L2.50293 19.5098C2.52005 19.7044 2.56279 19.8965 2.63379 20.0938C2.76286 20.4522 2.83178 20.6364 2.90332 20.7637C2.94929 20.8454 2.97999 20.8726 3.02344 20.8975C3.0428 20.8988 3.16372 20.9152 3.49805 20.8613C3.90545 20.7957 4.46495 20.6588 5.27148 20.46C5.67013 20.3617 6.08648 20.3096 6.51367 20.3096C9.37241 20.3102 11.6911 22.6284 11.6914 25.4873C11.6914 25.9146 11.6395 26.331 11.541 26.7295C11.3416 27.5358 11.2035 28.0948 11.1377 28.502C11.0725 28.9055 11.1113 28.9962 11.1006 28.9746C11.1256 29.0188 11.1529 29.0493 11.2354 29.0957C11.3625 29.1672 11.5462 29.2361 11.9043 29.3652C12.1683 29.4604 12.4232 29.5059 12.6875 29.5059L12.9102 29.4951C13.4304 29.4429 13.9659 29.201 14.667 28.666C15.4859 28.0411 16.4391 27.0902 17.7793 25.75L25.751 17.7793C27.091 16.4393 28.0421 15.486 28.667 14.667C29.2784 13.8656 29.5067 13.2807 29.5068 12.6875C29.5068 12.4231 29.4616 12.1685 29.3662 11.9043C29.2367 11.546 29.1674 11.3616 29.0957 11.2344C29.0494 11.1522 29.0184 11.1254 28.9746 11.1006C28.9528 11.0989 28.8312 11.0846 28.502 11.1377C28.0948 11.2034 27.5357 11.3401 26.7295 11.5391C26.431 11.6127 26.1222 11.6604 25.8066 11.6797L25.4883 11.6895C22.7186 11.6894 20.4564 9.51472 20.3174 6.7793L20.3105 6.5127C20.3106 6.08575 20.3628 5.66985 20.4609 5.27148C20.6597 4.46481 20.7967 3.90549 20.8623 3.49805C20.9162 3.16323 20.8988 3.04254 20.8975 3.02344C20.8727 2.98009 20.846 2.94914 20.7646 2.90332C20.6374 2.83178 20.4532 2.76286 20.0947 2.63379C19.8972 2.5627 19.7047 2.52005 19.5098 2.50293L19.3135 2.49414ZM16.2207 20.2197C16.5136 19.927 16.9884 19.9269 17.2812 20.2197L19.0312 21.9697C19.324 22.2626 19.324 22.7374 19.0312 23.0303C18.7384 23.3231 18.2636 23.323 17.9707 23.0303L16.2207 21.2803C15.9278 20.9874 15.9278 20.5126 16.2207 20.2197ZM12.7207 16.7197C13.0136 16.4271 13.4884 16.4269 13.7812 16.7197L15.2812 18.2197C15.5739 18.5126 15.5739 18.9874 15.2812 19.2803C14.9884 19.5731 14.5136 19.573 14.2207 19.2803L12.7207 17.7803C12.4278 17.4874 12.4278 17.0126 12.7207 16.7197ZM8.9707 12.9697C9.26361 12.677 9.7384 12.6769 10.0312 12.9697L11.7695 14.708C12.0618 15.0009 12.0621 15.4759 11.7695 15.7686C11.4768 16.0612 11.0019 16.0608 10.709 15.7686L8.9707 14.0303C8.67781 13.7374 8.67781 13.2626 8.9707 12.9697Z"
    fill="currentColor"
  />
</svg>
