<svg
  width="32"
  height="32"
  viewBox="0 0 32 32"
  fill="none"
  xmlns="http://www.w3.org/2000/svg"
  data-fui-icon="true"
>
  <path
    d="M28.25 13.9844H28.1953C25.6797 13.9844 23.3828 13.2188 21.5234 11.8516V21.6406C21.5234 26.5625 17.5312 30.5 12.6094 30.5C7.6875 30.5 3.75 26.5625 3.75 21.6406C3.75 16.7188 7.6875 12.7266 12.6094 12.7266C13.0469 12.7266 13.4297 12.7812 13.8672 12.8359V17.7578C13.4297 17.5938 13.0469 17.5391 12.6094 17.5391C10.3672 17.5391 8.50781 19.3984 8.50781 21.6406C8.50781 23.8828 10.3672 25.7422 12.6094 25.7422C14.8516 25.7422 16.7109 23.8828 16.7109 21.6406V2.5H21.5234C21.5234 2.55469 21.5234 2.55469 21.5234 2.60938C21.5234 2.99219 21.5234 3.375 21.6328 3.75781C21.9609 5.5625 23.0547 7.14844 24.5859 8.13281C25.625 8.84375 26.8828 9.22656 28.1953 9.22656C28.1953 9.22656 28.1953 9.22656 28.25 9.22656V13.9844Z"
    fill="currentColor"
  />
</svg>
