<svg width="20" height="20" viewBox="0 0 20 20" fill="none" xmlns="http://www.w3.org/2000/svg" data-fui-icon="true">
  <path
    d="M13.9102 1.99121C13.9186 2.07874 13.9291 2.16637 13.9443 2.25293V2.25391C14.1121 3.20952 14.685 4.02847 15.4814 4.52539C16.0151 4.85833 16.6326 5.0351 17.2617 5.03418L17.8877 5.0332V9.13672H17.2627C16.0579 9.13671 14.9188 8.85057 13.9102 8.34375V13.0605C13.91 16.3179 11.268 18.959 8.00977 18.959C6.79509 18.9589 5.66373 18.5912 4.72461 17.9609C3.14902 16.9035 2.10949 15.1028 2.10938 13.0605C2.10953 9.80336 4.75141 7.1632 8.00977 7.16309C8.28033 7.16296 8.55054 7.18119 8.81836 7.21777L9.35938 7.29199V8.4834L9.3584 10.7539V11.6074L8.54492 11.3496C8.3741 11.2954 8.19116 11.2656 8.00098 11.2656C7.01323 11.2659 6.21289 12.0663 6.21289 13.0527C6.21308 13.7491 6.61222 14.3543 7.19727 14.6494C7.43837 14.7709 7.71092 14.8398 8.00098 14.8398C8.98611 14.8398 9.78546 14.0432 9.79004 13.0605V1.04199H13.9102V1.99121ZM11.04 13.0625C11.0341 14.7348 9.67526 16.0898 8.00098 16.0898C7.51085 16.0898 7.04613 15.9729 6.63477 15.7656L6.63379 15.7646C5.64451 15.2653 4.96308 14.2392 4.96289 13.0527C4.96289 11.3754 6.32342 10.0159 8.00098 10.0156C8.03679 10.0156 8.07286 10.0183 8.1084 10.0195L8.10938 8.4834V8.41602C8.07649 8.41534 8.04364 8.41307 8.01074 8.41309H8.00977C5.44111 8.4132 3.35953 10.4944 3.35938 13.0605C3.35949 14.6686 4.17714 16.0875 5.42188 16.9229C6.16119 17.4189 7.05072 17.7089 8.00977 17.709C10.5783 17.709 12.66 15.627 12.6602 13.0605V6.02539L13.6484 6.73047C14.5077 7.34412 15.5298 7.74316 16.6377 7.85352V6.24121C16.1012 6.16839 15.5804 6.00239 15.1006 5.74805L14.8203 5.58594C13.7311 4.90654 12.9447 3.78502 12.7139 2.46973C12.7035 2.41081 12.6946 2.35122 12.6865 2.29199H11.04V13.0625Z"
    fill="currentColor"
  />
</svg>
