<svg width="32" height="32" viewBox="0 0 32 32" fill="none" xmlns="http://www.w3.org/2000/svg" data-fui-icon="true">
  <path
    d="M22.0068 3.21191C22.0134 3.28027 22.0202 3.34894 22.0293 3.41699L22.0654 3.64844L22.126 3.94629C22.4677 5.41946 23.3887 6.67349 24.6387 7.45312L24.9805 7.64941C25.7913 8.07936 26.6973 8.30507 27.6191 8.30371L28.3701 8.30273V14.3682H27.6201C25.5869 14.3681 23.674 13.8478 22.0068 12.9355V20.8975C22.0065 25.9709 17.8915 30.0838 12.8164 30.084C10.9238 30.084 9.16198 29.511 7.69922 28.5293C5.2444 26.8819 3.62523 24.0783 3.625 20.8975C3.625 15.824 7.73994 11.7112 12.8154 11.7109H12.8164C13.2378 11.7108 13.659 11.7399 14.0762 11.7969L14.7246 11.8848V17.2061L14.7236 18.2305L13.7471 17.9209C13.4499 17.8266 13.1329 17.7745 12.8027 17.7744C11.0841 17.7744 9.69148 19.1672 9.69141 20.8838C9.69153 22.0962 10.3862 23.148 11.4033 23.6611H11.4023C11.8225 23.8729 12.2981 23.9932 12.8027 23.9932C14.5166 23.9929 15.9054 22.6075 15.9131 20.8975V1.91699H22.0068V3.21191ZM17.4131 20.8994C17.4041 23.4373 15.3438 25.4929 12.8027 25.4932C12.1511 25.4932 11.5293 25.357 10.9658 25.1123L10.7275 25.001C9.22501 24.243 8.19153 22.6847 8.19141 20.8838C8.19148 18.3381 10.2563 16.2744 12.8027 16.2744C12.9449 16.2744 13.0855 16.2832 13.2246 16.2959V13.2227C13.1768 13.2202 13.1289 13.2174 13.0811 13.2158L12.8164 13.2109C8.56823 13.2109 5.125 16.653 5.125 20.8975C5.12523 23.5571 6.47743 25.9033 8.53516 27.2842C9.75817 28.1049 11.2305 28.584 12.8164 28.584C17.0637 28.5838 20.5065 25.1418 20.5068 20.8975V10.126L21.6924 10.9727C23.1726 12.0298 24.9471 12.7003 26.8701 12.8398V9.76465C25.7992 9.65255 24.7638 9.29901 23.8447 8.72559C22.1604 7.67501 20.9446 5.94092 20.5879 3.9082L20.543 3.61621C20.5341 3.55006 20.5275 3.48334 20.5205 3.41699H17.4131V20.8994Z"
    fill="currentColor"
  />
</svg>
