<svg width="32" height="32" viewBox="0 0 32 32" fill="none" xmlns="http://www.w3.org/2000/svg" data-fui-icon="true">
  <path
    d="M27.6204 13.6179C25.2476 13.6179 23.0507 12.864 21.2567 11.5827V20.8968C21.2567 25.5562 17.4776 29.3334 12.816 29.3334C11.0767 29.3334 9.46005 28.8078 8.11712 27.9064C5.86065 26.3922 4.375 23.8174 4.375 20.8968C4.375 16.2378 8.15415 12.4606 12.8161 12.4607C13.2036 12.4605 13.5905 12.4868 13.9743 12.5392V13.5734L13.9741 17.2054C13.6047 17.0882 13.2109 17.0246 12.8023 17.0246C10.6697 17.0246 8.94125 18.7524 8.94125 20.8836C8.94125 22.3904 9.80525 23.6952 11.0652 24.3308C11.5876 24.5942 12.1775 24.7426 12.8023 24.7426C14.9305 24.7426 16.656 23.0218 16.6633 20.8968V2.66669H21.2567V3.25374C21.2728 3.42925 21.2961 3.60409 21.3267 3.77778C21.6453 5.59518 22.7327 7.14794 24.2417 8.08915C25.2551 8.72139 26.4261 9.05563 27.6205 9.05382L27.6204 13.6179Z"
    fill="currentColor"
  />
</svg>
