<svg width="24" height="24" viewBox="0 0 24 24" fill="none" xmlns="http://www.w3.org/2000/svg" data-fui-icon="true">
  <path
    d="M16.6924 2.39355C16.7025 2.49723 16.7154 2.60059 16.7334 2.70312V2.7041C16.9346 3.85128 17.622 4.8343 18.5781 5.43066C19.2185 5.83023 19.9589 6.04111 20.7139 6.04004L21.4658 6.03906V6.79004L21.4648 10.2139V10.9639H20.7148C19.2692 10.9638 17.9027 10.6199 16.6924 10.0117V15.6729C16.6922 19.5817 13.5221 22.7498 9.6123 22.75C8.15455 22.75 6.79696 22.3091 5.66992 21.5527C3.77907 20.2838 2.53134 18.1237 2.53125 15.6729C2.53125 11.7642 5.70137 8.59606 9.61133 8.5957H9.6123C9.93681 8.59557 10.2608 8.61726 10.582 8.66113L11.2305 8.75V13.9287L10.2539 13.6191C10.0489 13.5541 9.82978 13.5186 9.60156 13.5186C8.41609 13.5186 7.45605 14.4793 7.45605 15.6631C7.4562 16.4988 7.93467 17.2239 8.63672 17.5781C8.92627 17.7241 9.25316 17.8066 9.60156 17.8066C10.7837 17.8066 11.7415 16.852 11.7471 15.6729V1.25H16.6924V2.39355ZM13.2471 15.6748C13.2401 17.6818 11.6108 19.3066 9.60156 19.3066C9.01298 19.3066 8.45486 19.1669 7.96094 18.918C6.7734 18.3189 5.9562 17.0872 5.95605 15.6631C5.95605 13.6502 7.58832 12.0186 9.60156 12.0186C9.64467 12.0186 9.6877 12.021 9.73047 12.0225V10.0986L9.6123 10.0957C6.52963 10.0956 4.03125 12.5932 4.03125 15.6729C4.03134 17.6025 5.0122 19.3042 6.50586 20.3066C7.3932 20.9022 8.46113 21.25 9.6123 21.25C12.6944 21.2498 15.1922 18.7526 15.1924 15.6729V7.22949L16.3779 8.07715C17.409 8.81354 18.6354 9.29134 19.9648 9.42383V7.48926C19.1934 7.3845 18.4495 7.11825 17.7842 6.70312C16.5586 5.93865 15.653 4.70761 15.3164 3.25586L15.2559 2.96289C15.2434 2.89216 15.2333 2.82109 15.2236 2.75H13.2471V15.6748Z"
    fill="currentColor"
  />
</svg>
