<svg width="20" height="20" viewBox="0 0 20 20" fill="none" xmlns="http://www.w3.org/2000/svg" data-fui-icon="true">
  <path
    d="M17.2627 8.51119C15.7797 8.51119 14.4067 8.03999 13.2854 7.23917V13.0605C13.2854 15.9726 10.9235 18.3334 8.01001 18.3334C6.92293 18.3334 5.91253 18.0049 5.0732 17.4415C3.66291 16.4951 2.73438 14.8859 2.73438 13.0605C2.73438 10.1486 5.09634 7.78788 8.01009 7.78794C8.25223 7.78782 8.49408 7.80426 8.73392 7.83703V8.48335L8.73383 10.7534C8.50292 10.6801 8.2568 10.6404 8.00143 10.6404C6.66857 10.6404 5.58828 11.7203 5.58828 13.0523C5.58828 13.994 6.12828 14.8095 6.91572 15.2068C7.24223 15.3714 7.61097 15.4641 8.00145 15.4641C9.33158 15.4641 10.41 14.3886 10.4146 13.0605V1.66669H13.2854V2.0336C13.2955 2.14329 13.3101 2.25256 13.3292 2.36112C13.5283 3.497 14.2079 4.46747 15.1511 5.05573C15.7844 5.45088 16.5163 5.65978 17.2628 5.65865L17.2627 8.51119Z"
    fill="currentColor"
  />
</svg>
