<svg width="20" height="20" viewBox="0 0 20 20" fill="none" xmlns="http://www.w3.org/2000/svg" data-fui-icon="true">
  <path
    d="M17.2627 8.51125C15.7797 8.51125 14.4067 8.04005 13.2854 7.23923V13.0606C13.2854 15.9727 10.9235 18.3334 8.01001 18.3334C6.92293 18.3334 5.91253 18.0049 5.0732 17.4416C3.66291 16.4952 2.73438 14.8859 2.73438 13.0606C2.73438 10.1487 5.09634 7.78794 8.01009 7.788C8.25223 7.78788 8.49408 7.80432 8.73392 7.83709V8.48341L8.73383 10.7534C8.50292 10.6802 8.2568 10.6404 8.00143 10.6404C6.66857 10.6404 5.58828 11.7203 5.58828 13.0523C5.58828 13.9941 6.12828 14.8096 6.91572 15.2068C7.24223 15.3714 7.61097 15.4642 8.00145 15.4642C9.33158 15.4642 10.41 14.3887 10.4146 13.0606V1.66675H13.2854V2.03366C13.2955 2.14335 13.3101 2.25262 13.3292 2.36118C13.5283 3.49706 14.2079 4.46753 15.1511 5.05579C15.7844 5.45094 16.5163 5.65984 17.2628 5.65871L17.2627 8.51125Z"
    fill="currentColor"
  />
</svg>
