<svg width="12" height="12" viewBox="0 0 12 12" fill="none" xmlns="http://www.w3.org/2000/svg" data-fui-icon="true">
  <path
    d="M8.34668 1.19922C8.35171 1.25026 8.35832 1.30108 8.36719 1.35156C8.46776 1.92512 8.81105 2.41663 9.28906 2.71484C9.60932 2.91466 9.97986 3.02108 10.3574 3.02051L10.7324 3.01953V5.48145H10.3574C9.6346 5.48141 8.95182 5.30897 8.34668 5.00488V7.83594C8.34668 9.79047 6.76069 11.375 4.80566 11.375C4.07692 11.3749 3.39839 11.1545 2.83496 10.7764C1.8895 10.1419 1.26562 9.06143 1.26562 7.83594C1.26582 5.88178 2.8508 4.29803 4.80566 4.29785C4.96803 4.29777 5.1303 4.3091 5.29102 4.33105L5.61523 4.375V6.96484L5.12695 6.80957C5.02446 6.77706 4.91489 6.75879 4.80078 6.75879C4.20814 6.75883 3.7277 7.23929 3.72754 7.83105C3.72754 8.24898 3.96728 8.61192 4.31836 8.78906C4.46314 8.86203 4.62658 8.90331 4.80078 8.90332C5.39199 8.90332 5.87149 8.42571 5.87402 7.83594V0.625H8.34668V1.19922ZM6.62402 7.83789C6.6204 8.84125 5.80532 9.65332 4.80078 9.65332C4.50649 9.65331 4.22743 9.58347 3.98047 9.45898C3.38665 9.15941 2.97754 8.54321 2.97754 7.83105C2.9777 6.82475 3.79426 6.00883 4.80078 6.00879C4.82233 6.00879 4.84386 6.01 4.86523 6.01074V5.0498C4.8457 5.0494 4.82619 5.04784 4.80664 5.04785H4.80566C3.26463 5.04803 2.01582 6.29639 2.01562 7.83594C2.01562 8.80082 2.50607 9.65209 3.25293 10.1533C3.69651 10.451 4.23021 10.6249 4.80566 10.625C6.34683 10.625 7.59668 9.37591 7.59668 7.83594V3.61523L8.18945 4.03809C8.70492 4.40623 9.3178 4.64369 9.98242 4.70996V3.74512C9.59679 3.69276 9.22519 3.55903 8.89258 3.35156C8.27974 2.96933 7.82649 2.35384 7.6582 1.62793L7.62793 1.48145C7.62173 1.44615 7.61811 1.41048 7.61328 1.375H6.62402V7.83789Z"
    fill="currentColor"
  />
</svg>
