<svg width="12" height="12" viewBox="0 0 12 12" fill="none" xmlns="http://www.w3.org/2000/svg" data-fui-icon="true">
  <path
    d="M6 0C8.46188 1.12949e-05 10.575 1.48269 11.5 3.59961C11.8217 4.33595 12 5.14852 12 6C12 6.85148 11.8217 7.66405 11.5 8.40039C10.575 10.5173 8.46188 12 6 12C3.53812 12 1.42499 10.5173 0.5 8.40039C0.278901 7.89435 0.509634 7.30515 1.01562 7.08398C1.52167 6.86289 2.11086 7.09362 2.33203 7.59961C2.95019 9.01442 4.3613 10 6 10C7.63869 9.99999 9.04981 9.01442 9.66797 7.59961C9.8814 7.11107 10 6.57066 10 6C10 5.42933 9.8814 4.88893 9.66797 4.40039C9.04981 2.98558 7.63869 2.00001 6 2C4.98663 2 4.06107 2.37777 3.35547 3H3.5C4.05228 3 4.5 3.44772 4.5 4C4.5 4.55228 4.05228 5 3.5 5H1C0.447715 5 0 4.55228 0 4V1.5C0 0.947715 0.447715 0.5 1 0.5C1.55228 0.5 2 0.947715 2 1.5V1.52832C3.061 0.578369 4.46246 0 6 0ZM6 3C6.55221 3 6.99988 3.44781 7 4V5.97949L7.57324 6.38086C8.02554 6.69755 8.13586 7.32104 7.81934 7.77344C7.50266 8.22565 6.87913 8.33594 6.42676 8.01953L5.42676 7.31934C5.15949 7.13225 5.00008 6.82623 5 6.5V4C5.00012 3.44781 5.44779 3 6 3Z"
    fill="currentColor"
  />
</svg>
