<svg width="12" height="12" viewBox="0 0 12 12" fill="none" xmlns="http://www.w3.org/2000/svg" data-fui-icon="true">
  <path
    d="M6 0C7.79262 0 9.40087 0.785917 10.5 2.03125V1.25C10.5 0.835786 10.8358 0.5 11.25 0.5C11.6642 0.5 12 0.835786 12 1.25V4.25C12 4.66421 11.6642 5 11.25 5H8.25C7.83579 5 7.5 4.66421 7.5 4.25C7.5 3.83579 7.83579 3.5 8.25 3.5H9.73926C8.93149 2.29436 7.55883 1.5 6 1.5C4.04291 1.5 2.37576 2.74976 1.75684 4.49707C1.59075 4.96603 1.5 5.47171 1.5 6C1.5 6.52829 1.59075 7.03397 1.75684 7.50293C2.37576 9.25024 4.04291 10.5 6 10.5C7.95709 10.5 9.62424 9.25024 10.2432 7.50293C10.3814 7.11261 10.8098 6.90789 11.2002 7.0459C11.5906 7.18418 11.7955 7.61346 11.6572 8.00391C10.8328 10.3312 8.61215 12 6 12C3.38785 12 1.16718 10.3312 0.342773 8.00391C0.12053 7.37638 0 6.70125 0 6C0 5.29875 0.12053 4.62362 0.342773 3.99609C1.16718 1.66876 3.38785 0 6 0ZM5.75 3C6.16418 3 6.49995 3.33583 6.5 3.75V6.03613L7.58496 6.5791C7.95529 6.76428 8.10581 7.21457 7.9209 7.58496C7.73565 7.95544 7.28454 8.10615 6.91406 7.9209L5.41504 7.1709C5.16096 7.04385 5 6.78407 5 6.5V3.75C5.00005 3.33583 5.33582 3 5.75 3Z"
    fill="currentColor"
  />
</svg>
