<svg width="16" height="16" viewBox="0 0 16 16" fill="none" xmlns="http://www.w3.org/2000/svg" data-fui-icon="true">
  <path
    d="M8.05225 14.2499C11.8629 14.2497 14.2495 11.3299 14.2495 7.99988C14.2494 4.67 11.8628 1.75006 8.05225 1.74988C5.7021 1.74999 4.15845 2.8517 3.24951 4.14929V2.99988C3.24938 2.58578 2.91364 2.24988 2.49951 2.24988C2.08555 2.25008 1.74964 2.5859 1.74951 2.99988L1.74951 6.20203C1.74963 6.95972 2.36055 7.58659 3.12842 7.58679H4.99951C5.4136 7.58679 5.74931 7.25083 5.74951 6.83679C5.74938 6.42269 5.41364 6.08679 4.99951 6.08679H3.91846C4.39172 4.7503 5.6534 3.25003 8.05225 3.24988C10.9459 3.25005 12.7494 5.40709 12.7495 7.99988C12.7495 10.5928 10.946 12.7497 8.05225 12.7499C6.14108 12.7497 4.6001 11.7036 3.85596 10.3817C3.65265 10.0211 3.19527 9.8935 2.83447 10.0966C2.47377 10.2997 2.34545 10.7572 2.54834 11.118C3.54921 12.8959 5.58121 14.2497 8.05225 14.2499ZM9.0835 10.1239C9.42814 10.3537 9.89377 10.2605 10.1235 9.91589C10.3533 9.57125 10.2602 9.10562 9.91553 8.87585L8.74951 8.09851V5.49988C8.74938 5.08578 8.41364 4.74988 7.99951 4.74988C7.58555 4.75008 7.24964 5.0859 7.24951 5.49988V8.49988C7.24951 8.71912 7.34575 8.92583 7.50928 9.06726L7.5835 9.1239L9.0835 10.1239Z"
    fill="currentColor"
  />
</svg>
