<svg width="20" height="20" viewBox="0 0 20 20" fill="none" xmlns="http://www.w3.org/2000/svg" data-fui-icon="true">
  <path
    d="M10 0.5C12.5402 0.5 14.845 1.49827 16.5488 3.12109C16.7167 2.47619 17.3025 2 18 2C18.8284 2 19.5 2.67157 19.5 3.5V7.5C19.5 8.32843 18.8284 9 18 9H14C13.1716 9 12.5 8.32843 12.5 7.5C12.5 6.67157 13.1716 6 14 6H15.124C13.9338 4.4776 12.0801 3.5 10 3.5C7.12679 3.5 4.68563 5.36532 3.82812 7.95508C3.61588 8.59614 3.5 9.28312 3.5 10C3.5 10.7169 3.61588 11.4039 3.82812 12.0449C4.68563 14.6347 7.12679 16.5 10 16.5C12.8732 16.5 15.3144 14.6347 16.1719 12.0449C16.4322 11.2585 17.281 10.8325 18.0674 11.0928C18.8537 11.3531 19.2806 12.201 19.0205 12.9873C17.7687 16.7684 14.2051 19.5 10 19.5C5.7949 19.5 2.23134 16.7684 0.979492 12.9873C0.667915 12.046 0.5 11.0411 0.5 10C0.5 8.95888 0.667915 7.95396 0.979492 7.0127C2.23134 3.23159 5.7949 0.5 10 0.5ZM10 5C10.8281 5 11.4995 5.67105 11.5 6.49902V9.77832L12.9375 10.9287C13.5839 11.4462 13.688 12.3904 13.1709 13.0371C12.6533 13.6836 11.7092 13.7879 11.0625 13.2705L9.0625 11.6719L8.93652 11.5586C8.65871 11.2794 8.50023 10.8994 8.5 10.501V6.5C8.50026 5.6718 9.17174 5 10 5Z"
    fill="currentColor"
  />
</svg>
