<svg width="12" height="12" viewBox="0 0 12 12" fill="none" xmlns="http://www.w3.org/2000/svg" data-fui-icon="true">
  <path
    d="M6 0C7.36064 0 8.61426 0.453552 9.62012 1.21582C9.82047 0.792797 10.2508 0.5 10.75 0.5C11.4404 0.5 12 1.05964 12 1.75V4.25C12 4.94036 11.4404 5.5 10.75 5.5H8.25C7.55964 5.5 7 4.94036 7 4.25C7 3.68568 7.37407 3.20906 7.8877 3.05371C7.3428 2.70342 6.69513 2.5 6 2.5C4.59537 2.5 3.3818 3.32787 2.82422 4.52734C2.61686 4.97349 2.5 5.47132 2.5 6C2.5 6.52868 2.61686 7.02651 2.82422 7.47266C3.3818 8.67213 4.59537 9.5 6 9.5C7.40463 9.5 8.61819 8.67213 9.17578 7.47266C9.46686 6.84678 10.211 6.57523 10.8369 6.86621C11.4628 7.15727 11.7343 7.90137 11.4434 8.52734C10.491 10.5757 8.41299 12 6 12C3.58701 12 1.50898 10.5757 0.556641 8.52734C0.198914 7.7578 0 6.90022 0 6C0 5.09978 0.198914 4.2422 0.556641 3.47266C1.50898 1.42426 3.58701 0 6 0ZM6 3C6.55221 3 6.99988 3.44781 7 4V5.97949L7.57324 6.38086C8.02554 6.69755 8.13586 7.32104 7.81934 7.77344C7.50266 8.22565 6.87913 8.33594 6.42676 8.01953L5.42676 7.31934C5.15949 7.13225 5.00008 6.82623 5 6.5V4C5.00012 3.44781 5.44779 3 6 3Z"
    fill="currentColor"
  />
</svg>
