<svg width="16" height="16" viewBox="0 0 16 16" fill="none" xmlns="http://www.w3.org/2000/svg" data-fui-icon="true">
  <path
    d="M8 0.5C11.3384 0.50001 14.1646 2.68056 15.1377 5.69238C15.3729 6.42055 15.5 7.19657 15.5 8C15.5 8.80343 15.3729 9.57944 15.1377 10.3076C14.1646 13.3194 11.3384 15.5 8 15.5C4.66162 15.5 1.83541 13.3194 0.862305 10.3076C0.692564 9.78218 0.980515 9.21873 1.50586 9.04883C2.0313 8.87909 2.59475 9.16704 2.76465 9.69238C3.47875 11.9029 5.55441 13.5 8 13.5C10.4456 13.5 12.5212 11.9029 13.2354 9.69238C13.4071 9.16052 13.5 8.59207 13.5 8C13.5 7.40793 13.4071 6.83948 13.2354 6.30762C12.5212 4.09708 10.4456 2.50001 8 2.5C6.07037 2.5 4.37157 3.49462 3.38965 5H4.5C5.05229 5 5.5 5.44772 5.5 6C5.5 6.55229 5.05229 7 4.5 7H1.5C0.947715 7 0.5 6.55229 0.5 6V3C0.5 2.44772 0.947715 2 1.5 2C2.02098 2 2.44828 2.39846 2.49512 2.90723C3.86463 1.42722 5.82333 0.5 8 0.5ZM8 4C8.5522 4 8.99987 4.44783 9 5V8.01465L10.2305 8.98438C10.6643 9.32604 10.739 9.95479 10.3975 10.3887C10.0557 10.8222 9.4269 10.8963 8.99316 10.5547L7.38086 9.28516L7.2959 9.20996C7.10774 9.02336 7.00004 8.7681 7 8.5V5C7.00013 4.44783 7.4478 4 8 4Z"
    fill="currentColor"
  />
</svg>
