<svg width="24" height="24" viewBox="0 0 24 24" fill="none" xmlns="http://www.w3.org/2000/svg" data-fui-icon="true">
  <path
    d="M12 0.5C15.9487 0.5 19.4296 2.49097 21.5 5.52148V4C21.5 3.44772 21.9477 3 22.5 3C23.0523 3 23.5 3.44772 23.5 4V9C23.5 9.55228 23.0523 10 22.5 10H17.5C16.9477 10 16.5 9.55228 16.5 9C16.5 8.44772 16.9477 8 17.5 8H20.6191C19.1089 4.75134 15.8165 2.5 12 2.5C7.75576 2.5 4.15894 5.28397 2.94141 9.12793C2.65481 10.0328 2.5 10.9974 2.5 12C2.5 13.0026 2.65481 13.9672 2.94141 14.8721C4.15894 18.716 7.75576 21.5 12 21.5C16.2442 21.5 19.8411 18.716 21.0586 14.8721C21.2254 14.3457 21.787 14.0541 22.3135 14.2207C22.8399 14.3874 23.1314 14.9492 22.9648 15.4756C21.4916 20.1267 17.1411 23.5 12 23.5C6.85888 23.5 2.50836 20.1267 1.03516 15.4756C0.687471 14.3778 0.5 13.2098 0.5 12C0.5 10.7902 0.687471 9.62221 1.03516 8.52441C2.50836 3.87327 6.85888 0.5 12 0.5ZM11.75 5.00098C12.3021 5.00098 12.7497 5.44794 12.75 6V12.0186L15.625 14.3184C16.0562 14.6633 16.126 15.2934 15.7812 15.7246C15.4362 16.1559 14.8063 16.2259 14.375 15.8809L11.125 13.2812L11.041 13.2061C10.8558 13.02 10.7502 12.7665 10.75 12.501V6.00098C10.75 5.44869 11.1977 5.00098 11.75 5.00098Z"
    fill="currentColor"
  />
</svg>
