<svg width="20" height="20" viewBox="0 0 20 20" fill="none" xmlns="http://www.w3.org/2000/svg" data-fui-icon="true">
  <path
    d="M10 0.5C14.2037 0.500085 17.7683 3.23001 19.0205 7.01172C19.3319 7.95221 19.5 8.9574 19.5 10C19.5 11.0426 19.3319 12.0478 19.0205 12.9883C17.7683 16.77 14.2037 19.4999 10 19.5C5.79629 19.4999 2.23169 16.77 0.979492 12.9883C0.849379 12.5952 1.063 12.1703 1.45605 12.04C1.84914 11.9101 2.27315 12.1236 2.40332 12.5166C3.45825 15.7028 6.46211 17.9999 10 18C13.5379 17.9999 16.5418 15.7028 17.5967 12.5166C17.8583 11.7263 18 10.8804 18 10C18 9.11961 17.8583 8.27372 17.5967 7.4834C16.5418 4.29719 13.5379 2.00009 10 2C6.83812 2.00009 4.10439 3.83556 2.80566 6.5H6.25C6.66421 6.5 7 6.83579 7 7.25C7 7.66421 6.66421 8 6.25 8H1.25C0.835786 8 0.5 7.66421 0.5 7.25V2.25C0.5 1.83579 0.835786 1.5 1.25 1.5C1.66421 1.5 2 1.83579 2 2.25V4.87793C3.68869 2.24583 6.63931 0.500085 10 0.5ZM9.75 4.25C10.1642 4.25 10.4999 4.58583 10.5 5V10.1182L12.9414 11.8936C13.2762 12.1372 13.35 12.6065 13.1064 12.9414C12.8628 13.2762 12.3935 13.35 12.0586 13.1064L9.30859 11.1064L9.24023 11.0498C9.08814 10.9088 9 10.71 9 10.5V5C9.00005 4.58583 9.33582 4.25 9.75 4.25Z"
    fill="currentColor"
  />
</svg>
