<svg width="12" height="12" viewBox="0 0 12 12" fill="none" xmlns="http://www.w3.org/2000/svg" data-fui-icon="true">
  <path
    d="M5.95703 0.75C2.75578 0.750057 0.75 3.20842 0.75 6C0.75 8.79158 2.75578 11.2499 5.95703 11.25C7.86332 11.25 9.45059 10.2585 10.3467 8.91699C10.5767 8.57259 10.484 8.10608 10.1396 7.87598C9.79525 7.64594 9.32873 7.73867 9.09863 8.08301C8.45964 9.03966 7.32526 9.75 5.95703 9.75C3.6727 9.74994 2.25 8.0545 2.25 6C2.25 3.9455 3.6727 2.25005 5.95703 2.25C7.73871 2.25 8.72203 3.29709 9.14062 4.29785H8.5C8.08586 4.29785 7.75012 4.63374 7.75 5.04785C7.75 5.46207 8.08579 5.79785 8.5 5.79785H9.98535C10.6902 5.79785 11.2498 5.22329 11.25 4.5293V2C11.25 1.5858 10.9142 1.25 10.5 1.25C10.0858 1.25 9.75001 1.5858 9.75 2V2.44629C8.96394 1.50055 7.73462 0.75 5.95703 0.75ZM6 3.75C5.58579 3.75 5.25 4.08579 5.25 4.5V6C5.25 6.14915 5.29445 6.29372 5.37598 6.41602L5.46973 6.53027L6.46973 7.53027C6.76262 7.82317 7.23738 7.82317 7.53027 7.53027C7.82317 7.23738 7.82317 6.76262 7.53027 6.46973L6.75 5.68945V4.5C6.75 4.08579 6.41421 3.75 6 3.75Z"
    fill="currentColor"
  />
</svg>
