<svg width="24" height="24" viewBox="0 0 24 24" fill="none" xmlns="http://www.w3.org/2000/svg" data-fui-icon="true">
  <path
    d="M12.0854 21.7496C18.0293 21.7495 21.7493 17.215 21.7495 12.0006C21.7495 6.78613 18.0302 2.25 12.0864 2.24964C7.53082 2.24963 4.92528 4.89965 3.74951 7.49182L3.74951 3.99963C3.74925 3.58564 3.41357 3.24963 2.99951 3.24963C2.58569 3.2499 2.24978 3.58581 2.24951 3.99963L2.24951 9.05725C2.24951 10.038 3.03915 10.8449 4.02783 10.8453L7.99951 10.8453C8.41373 10.8453 8.74951 10.5096 8.74951 10.0953C8.74901 9.68156 8.41341 9.34534 7.99951 9.34534L4.67432 9.34534C5.30705 6.88187 7.5203 3.74986 12.0855 3.74964C17.1124 3.74975 20.2493 7.5223 20.2495 11.9996C20.2495 16.4772 17.1126 20.2495 12.0854 20.2496C8.5165 20.2494 5.6801 18.1206 4.52002 15.4508C4.35475 15.0713 3.91242 14.8972 3.53272 15.0621C3.15348 15.2273 2.97954 15.6689 3.14404 16.0485C4.53521 19.2502 7.90198 21.7494 12.0854 21.7496ZM14.0591 15.1071C14.3939 15.3501 14.8634 15.2766 15.1069 14.942C15.3504 14.6073 15.2762 14.138 14.9419 13.8942L12.5005 12.1188L12.5005 7.00061C12.5005 6.58656 12.1645 6.25087 11.7505 6.25061C11.3363 6.25061 11.0005 6.5864 11.0005 7.00061L11.0005 12.5006C11.0006 12.7105 11.0888 12.9095 11.2407 13.0504L11.3091 13.1071L14.0591 15.1071Z"
    fill="currentColor"
  />
</svg>
