<svg width="24" height="24" viewBox="0 0 24 24" fill="none" xmlns="http://www.w3.org/2000/svg" data-fui-icon="true">
  <path
    d="M12 0.5C16.9442 0.500103 21.1564 3.62001 22.7822 7.99316C23.2468 9.24283 23.5 10.5936 23.5 12C23.5 13.4064 23.2468 14.7572 22.7822 16.0068C21.1564 20.38 16.9442 23.4999 12 23.5C7.05578 23.4999 2.84365 20.38 1.21777 16.0068C0.929381 15.2304 1.3252 14.3668 2.10156 14.0781C2.87792 13.7898 3.74166 14.1856 4.03027 14.9619C5.23356 18.1981 8.34979 20.4999 12 20.5C15.6503 20.4999 18.7675 18.1982 19.9707 14.9619C20.3128 14.0417 20.5 13.0443 20.5 12C20.5 10.9557 20.3128 9.95833 19.9707 9.03809C18.7675 5.80177 15.6503 3.5001 12 3.5C9.17638 3.50006 6.67323 4.87825 5.12695 7H7C7.82843 7 8.5 7.67157 8.5 8.5C8.5 9.32843 7.82843 10 7 10H2.83984C2.69773 10.0208 2.5515 10.0217 2.40527 10H2C1.17157 10 0.5 9.32843 0.5 8.5V3.5C0.5 2.67157 1.17157 2 2 2C2.82843 2 3.5 2.67157 3.5 3.5V4.25586C5.60254 1.94931 8.63105 0.500056 12 0.5ZM11.75 5.5C12.5784 5.5 13.25 6.17157 13.25 7V11.7793L15.4375 13.5293C16.084 14.0469 16.1883 14.991 15.6709 15.6377C15.1533 16.2842 14.2092 16.3885 13.5625 15.8711L10.8125 13.6719L10.6865 13.5586C10.4084 13.2792 10.25 12.8988 10.25 12.5V7C10.25 6.17157 10.9216 5.5 11.75 5.5Z"
    fill="currentColor"
  />
</svg>
