<svg width="16" height="16" viewBox="0 0 16 16" fill="none" xmlns="http://www.w3.org/2000/svg" data-fui-icon="true">
  <path
    d="M8 0.5C9.71983 0.5 11.303 1.07945 12.5674 2.05176C12.7579 1.44218 13.3276 1 14 1C14.8284 1 15.5 1.67157 15.5 2.5V5.5C15.5 6.32843 14.8284 7 14 7H11C10.1716 7 9.5 6.32843 9.5 5.5C9.5 4.91027 9.84097 4.40132 10.3359 4.15625C9.65422 3.74114 8.85536 3.5 8 3.5C6.18617 3.5 4.61977 4.57348 3.90723 6.12598C3.64627 6.69464 3.5 7.32819 3.5 8C3.5 8.67181 3.64627 9.30536 3.90723 9.87402C4.61977 11.4265 6.18617 12.5 8 12.5C9.81383 12.5 11.3802 11.4265 12.0928 9.87402C12.4384 9.1213 13.3292 8.7912 14.082 9.13672C14.8347 9.48238 15.1648 10.3732 14.8193 11.126C13.6358 13.7044 11.0291 15.5 8 15.5C4.97091 15.5 2.36418 13.7044 1.18066 11.126C0.743095 10.1726 0.5 9.11251 0.5 8C0.5 6.88749 0.743096 5.8274 1.18066 4.87402C2.36418 2.29557 4.97091 0.5 8 0.5ZM8 4.25C8.69036 4.25 9.25 4.80964 9.25 5.5V7.89258L10.043 8.51758C10.5853 8.94468 10.679 9.73108 10.252 10.2734C9.82484 10.8158 9.03845 10.9095 8.49609 10.4824L7.22656 9.48242L7.12012 9.3877C6.88472 9.15438 6.75 8.83532 6.75 8.5V5.5C6.75 4.80964 7.30964 4.25 8 4.25Z"
    fill="currentColor"
  />
</svg>
