<svg width="24" height="24" viewBox="0 0 24 24" fill="none" xmlns="http://www.w3.org/2000/svg" data-fui-icon="true">
  <path
    d="M12 0.5C15.6465 0.5 18.8937 2.19811 21 4.84375V3.75C21 3.05964 21.5596 2.5 22.25 2.5C22.9404 2.5 23.5 3.05964 23.5 3.75V8.75C23.5 9.44036 22.9404 10 22.25 10H17.25C16.5596 10 16 9.44036 16 8.75C16 8.05964 16.5596 7.5 17.25 7.5H19.7939C18.2371 4.80926 15.3294 3 12 3C8.13434 3 4.83534 5.438 3.56152 8.86426C3.19911 9.83909 3 10.8948 3 12C3 13.1052 3.19911 14.1609 3.56152 15.1357C4.83534 18.562 8.13434 21 12 21C15.8657 21 19.1647 18.562 20.4385 15.1357C20.6791 14.4887 21.3989 14.1599 22.0459 14.4004C22.6929 14.6409 23.0226 15.3598 22.7822 16.0068C21.1562 20.3805 16.9439 23.5 12 23.5C7.05606 23.5 2.8438 20.3804 1.21777 16.0068C0.753335 14.7575 0.5 13.4069 0.5 12C0.5 10.5931 0.753334 9.24251 1.21777 7.99316C2.8438 3.61955 7.05606 0.5 12 0.5ZM11.75 5.25C12.4403 5.25 12.9999 5.80969 13 6.5V11.8994L15.2812 13.7236C15.8203 14.1549 15.9078 14.9424 15.4766 15.4814C15.0453 16.0205 14.2578 16.108 13.7188 15.6768L10.9688 13.4766L10.8643 13.3818C10.6324 13.149 10.5 12.8324 10.5 12.5V6.5C10.5001 5.80969 11.0597 5.25 11.75 5.25Z"
    fill="currentColor"
  />
</svg>
