<svg width="16" height="16" viewBox="0 0 16 16" fill="none" xmlns="http://www.w3.org/2000/svg" data-fui-icon="true">
  <path
    d="M8.68848 0C9.95035 1.34138e-05 11.0504 0.858808 11.3564 2.08301L11.5859 3H15.25C15.6642 3 16 3.33579 16 3.75C16 4.16421 15.6642 4.5 15.25 4.5H14.6621L13.5205 13.6787L13.5195 13.6777C13.4119 14.9874 12.3189 16 11 16H5C3.68109 16 2.58706 14.9874 2.47949 13.6777L1.33789 4.5H0.75C0.335786 4.5 0 4.16421 0 3.75C0 3.33579 0.335786 3 0.75 3H4.41406L4.64355 2.08301C4.9496 0.858808 6.04965 1.34137e-05 7.31152 0H8.68848ZM3.96777 13.4932C3.96958 13.5077 3.9717 13.5225 3.97266 13.5371C4.00804 14.0787 4.45721 14.5 5 14.5H11C11.5428 14.5 11.992 14.0787 12.0273 13.5371L12.0322 13.4932L13.1514 4.5H2.84863L3.96777 13.4932ZM7.31152 1.5C6.73795 1.50001 6.23775 1.89082 6.09863 2.44727L5.95996 3H10.04L9.90137 2.44727C9.76226 1.89082 9.26205 1.50001 8.68848 1.5H7.31152Z"
    fill="currentColor"
  />
</svg>
