<svg width="20" height="20" viewBox="0 0 20 20" fill="none" xmlns="http://www.w3.org/2000/svg" data-fui-icon="true">
  <path
    fill-rule="evenodd"
    clip-rule="evenodd"
    d="M6.12757 4.00001L6.38049 2.65106C6.66871 1.1139 8.01088 0 9.57483 0H10.4252C11.9891 0 13.3313 1.1139 13.6195 2.65106L13.8725 4.00001H17.25C17.6642 4.00001 18 4.3358 18 4.75001C18 5.16423 17.6642 5.50001 17.25 5.50001H13.2627C13.2599 5.50006 13.257 5.5001 13.2542 5.50012C13.248 5.50016 13.2418 5.50012 13.2357 5.50001H6.76436C6.75538 5.50018 6.74638 5.50018 6.73735 5.50001H2.75C2.33579 5.50001 2 5.16423 2 4.75001C2 4.3358 2.33579 4.00001 2.75 4.00001H6.12757ZM12.3463 4.00001L12.1452 2.9275C11.99 2.09979 11.2673 1.5 10.4252 1.5H9.57483C8.7327 1.5 8.01 2.09979 7.8548 2.9275L7.65371 4.00001H12.3463Z"
    fill="currentColor"
  />
  <path
    d="M4.5 6.00001C4.29329 6.00001 4.09574 6.08533 3.95402 6.23581C3.8123 6.38629 3.73897 6.58859 3.75135 6.79493L4.37331 17.1609C4.46899 18.7557 5.79023 20 7.38788 20H12.6121C14.2098 20 15.531 18.7557 15.6267 17.1609L16.2487 6.79493C16.261 6.58859 16.1877 6.38629 16.046 6.23581C15.9043 6.08533 15.7067 6.00001 15.5 6.00001H4.5Z"
    fill="currentColor"
  />
</svg>
