<svg width="16" height="16" viewBox="0 0 16 16" fill="none" xmlns="http://www.w3.org/2000/svg" data-fui-icon="true">
  <path
    fill-rule="evenodd"
    clip-rule="evenodd"
    d="M4.41447 2.99999L4.64372 2.08303C4.94977 0.858817 6.04972 0 7.31161 0H8.6885C9.95039 0 11.0503 0.858817 11.3564 2.08303L11.5856 2.99999H14.25C14.6642 2.99999 15 3.33578 15 3.74999C15 4.16421 14.6642 4.49999 14.25 4.49999H11.016C11.0132 4.50006 11.0105 4.5001 11.0077 4.50013C10.9995 4.50022 10.9912 4.50018 10.983 4.49999H5.01713C5.00616 4.50024 4.99515 4.50024 4.98411 4.49999H1.75C1.33579 4.49999 1 4.16421 1 3.74999C1 3.33578 1.33579 2.99999 1.75 2.99999H4.41447ZM10.0395 2.99999L9.90118 2.44683C9.76207 1.89037 9.26209 1.5 8.6885 1.5H7.31161C6.73802 1.5 6.23804 1.89037 6.09893 2.44683L5.96064 2.99999H10.0395Z"
    fill="currentColor"
  />
  <path
    d="M3 4.99999C2.79083 4.99999 2.59116 5.08735 2.4492 5.24096C2.30723 5.39458 2.23587 5.6005 2.25233 5.80902L2.87286 13.6691C2.97675 14.9851 4.07495 16 5.39501 16H10.605C11.925 16 13.0233 14.9851 13.1271 13.6691L13.7477 5.80902C13.7641 5.6005 13.6928 5.39458 13.5508 5.24096C13.4088 5.08735 13.2092 4.99999 13 4.99999H3Z"
    fill="currentColor"
  />
</svg>
