<svg width="12" height="12" viewBox="0 0 12 12" fill="none" xmlns="http://www.w3.org/2000/svg" data-fui-icon="true">
  <path
    d="M9.87793 5.5C10.1809 5.5 10.4148 5.76725 10.374 6.06738L9.81836 10.1416C9.72499 11.1904 8.84706 12 7.78809 12H4.21191C3.15294 12 2.27501 11.1904 2.18164 10.1416L1.62598 6.06738C1.58517 5.76725 1.81915 5.5 2.12207 5.5H9.87793ZM6.75586 0C7.52867 0 8.21055 0.506848 8.43262 1.24707L8.80859 2.5H11.25C11.6642 2.5 12 2.83579 12 3.25C12 3.66421 11.6642 4 11.25 4H0.75C0.335786 4 0 3.66421 0 3.25C0 2.83579 0.335786 2.5 0.75 2.5H3.19141L3.56738 1.24707C3.78945 0.506848 4.47133 0 5.24414 0H6.75586ZM5.24414 1.5C5.1339 1.5 5.03676 1.57225 5.00488 1.67773L4.75879 2.5H7.24121L6.99512 1.67773C6.96324 1.57225 6.8661 1.5 6.75586 1.5H5.24414Z"
    fill="currentColor"
  />
</svg>
