<svg width="16" height="16" viewBox="0 0 16 16" fill="none" xmlns="http://www.w3.org/2000/svg" data-fui-icon="true">
  <path
    d="M8.88184 1.99988C10.5516 2.00031 11.8355 3.47702 11.6045 5.13074L11.5847 5.27211C11.5678 5.39243 11.6612 5.49988 11.7827 5.49988H13.1875C13.8977 5.49992 14.5594 5.8618 14.9424 6.45984L15.6064 7.49695C15.8844 7.93136 15.991 8.45406 15.9062 8.96277L15.5098 11.3427C15.3525 12.2853 14.5771 12.9888 13.6405 13.0718C13.5674 13.0783 13.5016 13.1203 13.4655 13.1842C13.0514 13.9188 12.2668 14.4157 11.3633 14.4159C10.3883 14.4159 9.54979 13.8383 9.16795 13.0069C9.12124 12.9051 9.00515 12.8517 8.89794 12.8839C8.64798 12.959 8.38391 12.9998 8.11133 12.9999H7.02321C6.94483 12.9999 6.87433 13.046 6.83808 13.1155C6.43515 13.8881 5.62811 14.4158 4.69629 14.4159C3.61654 14.4158 2.70469 13.7075 2.39494 12.7303C2.3788 12.6794 2.34462 12.6359 2.29874 12.6086C1.3852 12.0635 0.820431 11.01 0.980469 9.86804L1.0705 9.22773C1.08742 9.10738 0.993982 8.99988 0.87245 8.99988H0.75C0.335786 8.99988 0 8.66409 0 8.24988C0.000131912 7.83578 0.335868 7.49988 0.75 7.49988H4C4.00653 7.49988 4.01304 7.50069 4.01953 7.50085H4.5C4.7759 7.50085 4.99961 7.27667 5 7.00085C5 6.72471 4.77614 6.50085 4.5 6.50085L1.45215 6.49988H1C0.585786 6.49988 0.25 6.16409 0.25 5.74988C0.250132 5.33578 0.585868 4.99988 1 4.99988H6.00586C6.27908 4.99675 6.49961 4.77472 6.5 4.50085C6.5 4.22471 6.27614 4.00085 6 4.00085H2.09645C1.96379 4.00085 1.86793 3.87378 1.91613 3.75019C2.31974 2.71529 3.32262 1.9999 4.47559 1.99988H8.88184ZM4.69629 11.0829C4.19028 11.083 3.77955 11.4939 3.7793 11.9999C3.77947 12.5059 4.19023 12.9158 4.69629 12.9159C5.20229 12.9157 5.61213 12.5059 5.6123 11.9999C5.61205 11.4939 5.20225 11.0831 4.69629 11.0829ZM11.3633 11.0829C10.8572 11.0829 10.4465 11.4938 10.4463 11.9999C10.4465 12.506 10.8571 12.9159 11.3633 12.9159C11.8692 12.9157 12.2791 12.5058 12.2793 11.9999C12.279 11.494 11.8692 11.0831 11.3633 11.0829ZM11.0141 9.34884C10.9954 9.48212 11.1112 9.59434 11.2455 9.58643C11.2845 9.58413 11.3238 9.58289 11.3633 9.58289C12.4366 9.58308 13.346 10.2836 13.6609 11.252C13.7023 11.3794 13.8517 11.445 13.93 11.3364C13.9801 11.2668 14.0153 11.1852 14.0303 11.0956L14.4268 8.7157C14.4504 8.57332 14.4206 8.42712 14.3428 8.30554L13.6797 7.26843C13.5725 7.10099 13.3863 6.99992 13.1875 6.99988H11.5167C11.417 6.99988 11.3325 7.07338 11.3187 7.17216L11.0141 9.34884Z"
    fill="currentColor"
  />
</svg>
