<svg width="25" height="24" viewBox="0 0 25 24" fill="none" xmlns="http://www.w3.org/2000/svg" data-fui-icon="true">
  <path
    d="M14.1562 3.00085C16.4299 3.00139 18.1808 5.00902 17.8711 7.2616L17.7394 8.2157C17.7187 8.36593 17.8354 8.49988 17.9871 8.49988H20.2578C21.2126 8.5 22.0992 8.99531 22.5996 9.80847L23.6211 11.4686C23.9692 12.0343 24.1004 12.707 23.9912 13.3622L23.3936 16.952C23.1724 18.2779 22.0249 19.2499 20.6807 19.2499H20.1627C20.0618 19.2499 19.9716 19.311 19.928 19.4019C19.4045 20.4948 18.2887 21.2499 16.9961 21.2499C15.5951 21.2499 14.4023 20.3629 13.9459 19.1202C13.8994 18.9938 13.7675 18.9171 13.635 18.9413C13.424 18.9798 13.2074 19.0008 12.9863 19.0009H10.2737C10.1652 19.0009 10.0701 19.0712 10.0309 19.1723C9.56056 20.3876 8.38137 21.2499 7 21.2499C5.43077 21.2499 4.12166 20.1375 3.81718 18.6584C3.80172 18.5833 3.75538 18.5179 3.68938 18.4789C2.42351 17.731 1.64775 16.2654 1.88672 14.6884C1.90163 14.5891 1.82479 14.4999 1.72445 14.4999H1.25C0.835786 14.4999 0.5 14.1641 0.5 13.7499C0.5 13.3357 0.835786 12.9999 1.25 12.9999H4C4.41421 12.9999 4.75 13.3357 4.75 13.7499C4.75 14.1641 4.41421 14.4999 4 14.4999H3.64666C3.52303 14.4999 3.41797 14.5902 3.39947 14.7125L3.36914 14.913C3.28032 15.4997 3.42614 16.0596 3.73077 16.5075C3.83305 16.6579 4.05292 16.6165 4.1394 16.4565C4.68876 15.4402 5.76363 14.7499 7 14.7499C8.55117 14.7499 9.84849 15.8364 10.1722 17.29C10.1991 17.4104 10.303 17.5009 10.4264 17.5009H12.9863C13.2297 17.5008 13.4647 17.4605 13.6855 17.3877C13.7656 17.3613 13.8221 17.2917 13.8425 17.2099C14.0374 16.429 14.515 15.76 15.1601 15.3177C15.2207 15.2761 15.2626 15.2118 15.2726 15.1389L16.3848 7.0575C16.5707 5.70598 15.5204 4.50139 14.1562 4.50085H6.88379C5.77161 4.50085 4.82619 5.31344 4.65918 6.41296L4.61383 6.71245C4.59093 6.86371 4.70803 6.99988 4.86102 6.99988H9C9.41421 6.99988 9.75 7.33566 9.75 7.74988C9.75 8.16409 9.41421 8.49988 9 8.49988H1.5C1.08579 8.49988 0.75 8.16409 0.75 7.74988C0.75 7.33566 1.08579 6.99988 1.5 6.99988H2.83778C2.96138 6.99988 3.06643 6.90956 3.08496 6.78736L3.17578 6.18835C3.45387 4.35549 5.02995 3.00085 6.88379 3.00085H14.1562ZM7 16.2499C6.0335 16.2499 5.25 17.0334 5.25 17.9999C5.25011 18.9663 6.03357 19.7499 7 19.7499C7.96643 19.7499 8.74989 18.9663 8.75 17.9999C8.75 17.0334 7.9665 16.2499 7 16.2499ZM16.9961 16.2499C16.0296 16.2499 15.2461 17.0334 15.2461 17.9999C15.2462 18.9663 16.0297 19.7499 16.9961 19.7499C17.9625 19.7499 18.746 18.9663 18.7461 17.9999C18.7461 17.0334 17.9626 16.2499 16.9961 16.2499ZM16.8603 14.597C16.8492 14.678 16.9143 14.7499 16.9961 14.7499C18.6278 14.7499 19.9775 15.9523 20.2096 17.5195C20.2287 17.6488 20.3363 17.7499 20.4671 17.7499H20.6807C21.2917 17.7499 21.8136 17.3077 21.9141 16.705L22.5117 13.1151C22.5613 12.8174 22.5019 12.5118 22.3438 12.2548L21.3223 10.5946C21.0948 10.225 20.6917 10 20.2578 9.99988H17.712C17.5872 9.99988 17.4814 10.092 17.4644 10.2157L16.8603 14.597ZM5.77539 9.99988C6.1896 9.99988 6.52539 10.3357 6.52539 10.7499C6.52539 11.1641 6.1896 11.4999 5.77539 11.4999H0.75C0.335786 11.4999 0 11.1641 0 10.7499C0 10.3357 0.335786 9.99988 0.75 9.99988H5.77539Z"
    fill="currentColor"
  />
</svg>
