<svg width="16" height="16" viewBox="0 0 16 16" fill="none" xmlns="http://www.w3.org/2000/svg" data-fui-icon="true">
  <path
    d="M8.88184 1.99988C10.5516 2.00031 11.8355 3.47702 11.6045 5.13074L11.5847 5.27211C11.5678 5.39243 11.6612 5.49988 11.7827 5.49988H13.1875C13.8977 5.49992 14.5594 5.8618 14.9424 6.45984L15.6064 7.49695C15.8844 7.93136 15.991 8.45406 15.9062 8.96277L15.5098 11.3427C15.3511 12.2936 14.5635 13.0024 13.6158 13.0751C13.5418 13.0808 13.4748 13.1229 13.4383 13.1875C13.0236 13.9205 12.2393 14.4168 11.3369 14.4169C10.364 14.4168 9.52703 13.8409 9.1441 13.0121C9.09756 12.9114 8.98287 12.8583 8.87638 12.8894C8.6328 12.9607 8.37619 12.9998 8.11133 12.9999H6.99392C6.91554 12.9999 6.84503 13.046 6.80879 13.1155C6.40588 13.8883 5.59885 14.4167 4.66699 14.4169C3.57974 14.4169 2.66243 13.698 2.3589 12.7103C2.34333 12.6596 2.30994 12.6162 2.26482 12.5884C1.37124 12.0376 0.822406 10.996 0.980469 9.86804L1.0705 9.22773C1.08742 9.10738 0.993982 8.99988 0.87245 8.99988H0.75C0.335786 8.99988 0 8.66409 0 8.24988C0.000131912 7.83578 0.335868 7.49988 0.75 7.49988H4.25C4.66413 7.49988 4.99987 7.83578 5 8.24988C5 8.66409 4.66421 8.99988 4.25 8.99988H2.7227C2.6622 8.99988 2.61094 9.04445 2.60254 9.10437L2.46582 10.076C2.44886 10.1971 2.44994 10.3158 2.46676 10.43C2.49012 10.5887 2.68998 10.6035 2.79101 10.479C3.23386 9.93302 3.90921 9.58386 4.66699 9.58386C5.77335 9.58401 6.70504 10.3275 6.99148 11.3423C7.01717 11.4333 7.09797 11.4999 7.19254 11.4999H8.11133C8.7345 11.4997 9.26309 11.0399 9.34961 10.4227L10.1191 4.92273C10.2238 4.17136 9.64048 3.50031 8.88184 3.49988H4.47559C4.10569 3.49989 3.77006 3.6628 3.53966 3.9235C3.49803 3.97061 3.43958 4.00085 3.37672 4.00085H2.09645C1.9638 4.00085 1.86794 3.87378 1.91614 3.75019C2.31976 2.71536 3.32264 1.9999 4.47559 1.99988H8.88184ZM4.66699 11.0839C4.16073 11.0839 3.75 11.4946 3.75 12.0009C3.75044 12.5067 4.161 12.9169 4.66699 12.9169C5.17283 12.9167 5.58257 12.5066 5.58301 12.0009C5.58301 11.4947 5.1731 11.084 4.66699 11.0839ZM11.3369 11.0839C10.8307 11.0839 10.4199 11.4946 10.4199 12.0009C10.4204 12.5067 10.831 12.9168 11.3369 12.9169C11.8428 12.9167 12.2525 12.5066 12.2529 12.0009C12.2529 11.4947 11.843 11.084 11.3369 11.0839ZM11.0137 9.34697C10.9952 9.47935 11.1094 9.5917 11.2429 9.58592C11.2741 9.58457 11.3054 9.58386 11.3369 9.58386C12.4184 9.584 13.3331 10.2945 13.6412 11.2743C13.6803 11.3987 13.8232 11.467 13.9064 11.3666C13.9691 11.2909 14.0131 11.1986 14.0303 11.0956L14.4268 8.7157C14.4504 8.57332 14.4206 8.42712 14.3428 8.30554L13.6797 7.26843C13.5725 7.10099 13.3863 6.99992 13.1875 6.99988H11.5167C11.417 6.99988 11.3325 7.07335 11.3186 7.17211L11.0137 9.34697ZM6 4.99988C6.41413 4.99988 6.74987 5.33578 6.75 5.74988C6.75 6.16409 6.41421 6.49988 6 6.49988H1C0.585786 6.49988 0.25 6.16409 0.25 5.74988C0.250132 5.33578 0.585868 4.99988 1 4.99988H6Z"
    fill="currentColor"
  />
</svg>
