<svg width="12" height="12" viewBox="0 0 12 12" fill="none" xmlns="http://www.w3.org/2000/svg" data-fui-icon="true">
  <path
    d="M6.54199 1.5C7.83136 1.50001 8.83679 2.57519 8.78807 3.83248C8.78461 3.92191 8.85375 4 8.94324 4H9.73633C10.3213 4.00001 10.8678 4.29259 11.1924 4.7793L11.6758 5.50488C11.9224 5.87482 12.0194 6.32512 11.9463 6.76367L11.6504 8.53809C11.5317 9.249 10.9949 9.79875 10.317 9.95437C10.2735 9.96436 10.2358 9.99151 10.2127 10.0297C9.86286 10.6106 9.22748 11 8.5 11C7.75716 10.9998 7.11079 10.5938 6.76624 9.99231C6.72856 9.92654 6.65038 9.89411 6.57745 9.91475C6.38386 9.96953 6.18037 9.99998 5.9707 10H5.31693C5.26341 10 5.21432 10.0288 5.18553 10.0739C4.83044 10.6302 4.20891 11 3.5 11C2.57615 10.9998 1.80023 10.3728 1.57083 9.52138C1.56251 9.4905 1.54527 9.46266 1.52122 9.44158C0.972492 8.9606 0.660725 8.22177 0.773438 7.43262L0.779297 7.39355L0.833008 7.01855C0.891748 6.60903 1.2711 6.32479 1.68066 6.38281C2.09071 6.44139 2.37596 6.82139 2.31738 7.23145C2.30776 7.2963 2.38312 7.34174 2.4386 7.30679C2.74617 7.11304 3.10963 7.00009 3.5 7C4.39096 7 5.1438 7.58323 5.40227 8.3883C5.42319 8.45345 5.48239 8.5 5.55081 8.5H5.9707C6.34372 8.49992 6.65992 8.22565 6.71289 7.85645L7.28418 3.85645C7.34873 3.40463 6.99839 3.00001 6.54199 3H2.27148C1.85749 2.99974 1.52148 2.66405 1.52148 2.25C1.52148 1.83595 1.85749 1.50026 2.27148 1.5H6.54199ZM3.5 8.5C3.22408 8.50026 3 8.72402 3 9C3 9.27598 3.22408 9.49974 3.5 9.5C3.77614 9.5 4 9.27614 4 9C4 8.72386 3.77614 8.5 3.5 8.5ZM8.5 8.5C8.22408 8.50026 8 8.72402 8 9C8 9.27598 8.22408 9.49974 8.5 9.5C8.77614 9.5 9 9.27614 9 9C9 8.72386 8.77614 8.5 8.5 8.5ZM8.37095 6.8587C8.35999 6.93528 8.42264 7.00002 8.5 7C9.08605 7 9.61227 7.25282 9.97768 7.65475C10.0718 7.75833 10.2664 7.71745 10.2894 7.57938L10.4668 6.5166C10.4772 6.45401 10.4629 6.38971 10.4277 6.33691L9.94434 5.61133C9.89796 5.54192 9.81982 5.50001 9.73633 5.5H8.69549C8.62086 5.5 8.55758 5.55487 8.547 5.62875L8.37095 6.8587ZM3.75 4C4.16421 4 4.5 4.33579 4.5 4.75C4.5 5.16421 4.16421 5.5 3.75 5.5H0.75C0.33601 5.49974 0 5.16405 0 4.75C0 4.33595 0.33601 4.00026 0.75 4H3.75Z"
    fill="currentColor"
  />
</svg>
