<svg width="13" height="12" viewBox="0 0 13 12" fill="none" xmlns="http://www.w3.org/2000/svg" data-fui-icon="true">
  <path
    fill-rule="evenodd"
    clip-rule="evenodd"
    d="M8.1644 0.900391C8.86807 0.900391 9.51474 1.14968 10.0189 1.56152C10.3005 1.48587 10.5709 1.38165 10.8246 1.25098L10.9261 1.20801C11.166 1.12849 11.4201 1.18963 11.596 1.34082C11.7722 1.4925 11.8717 1.74098 11.8177 1.99707C12.1599 2.1167 12.3655 2.54706 12.1195 2.90625C11.8314 3.33046 11.4789 3.70997 11.0794 4.0332L11.0804 4.03613C11.0804 7.30565 8.55113 11.0993 3.91342 11.0996C2.65474 11.0995 1.47077 10.7776 0.441742 10.2139C0.104237 10.0287 0.0324127 9.66141 0.11557 9.39844C0.196525 9.1432 0.446659 8.89903 0.80307 8.90918L0.926117 8.91113C1.39801 8.91113 1.8512 8.8319 2.27182 8.68652C1.76438 8.36609 1.36261 7.89525 1.1351 7.33496C1.05153 7.12903 1.06826 6.93856 1.14487 6.7832C0.582785 6.2608 0.227987 5.52116 0.227875 4.69434C0.227875 4.47941 0.332104 4.302 0.483734 4.19336C0.33193 3.84521 0.24643 3.46135 0.24643 3.05762C0.246445 2.59122 0.359795 2.14921 0.559906 1.75879L0.609711 1.67578C0.875184 1.29 1.42104 1.3044 1.69858 1.625C2.59065 2.65805 3.84 3.38292 5.2601 3.61621C5.34246 2.0947 6.62028 0.900676 8.1644 0.900391ZM8.1644 2.09961C7.21295 2.0999 6.45651 2.85751 6.45639 3.77246C6.45639 3.90261 6.47163 4.03018 6.50034 4.1543L6.68002 4.92773L5.88608 4.88867C4.18109 4.804 2.63458 4.13103 1.4476 3.07324C1.4529 3.64235 1.74759 4.1487 2.20248 4.44824L3.97983 5.61719L1.85385 5.54883C1.78866 5.54671 1.72361 5.54145 1.65952 5.53516C1.89656 5.93336 2.29769 6.22876 2.7767 6.3291C2.7826 6.33033 2.78932 6.33183 2.79526 6.33301H2.79428L2.79916 6.33398L4.65561 6.71094L2.92026 7.47168C2.84869 7.50297 2.77276 7.52014 2.72006 7.53125C3.0112 7.77743 3.38823 7.93108 3.80307 7.93848L5.51498 7.96777L4.15952 9.0127C3.73738 9.33828 3.26247 9.60012 2.75131 9.78711C3.12675 9.86028 3.51567 9.90036 3.91342 9.90039C7.76729 9.90013 9.88017 6.77087 9.88022 4.03613C9.88022 3.94872 9.87844 3.85903 9.87436 3.76953L9.85873 3.44336L10.0306 3.32031C9.95736 3.24889 9.90315 3.16408 9.87241 3.08008C9.84513 3.0053 9.8315 2.91879 9.8353 2.83008L9.64096 2.86816L9.41537 2.63184C9.10384 2.30582 8.65916 2.09961 8.1644 2.09961Z"
    fill="currentColor"
  />
</svg>
