<svg width="32" height="32" viewBox="0 0 32 32" fill="none" xmlns="http://www.w3.org/2000/svg" data-fui-icon="true">
  <path
    d="M21.7725 3.25C23.5989 3.25015 25.2638 3.95212 26.5 5.09473C27.4697 4.87407 28.3938 4.53504 29.2539 4.0918L29.4014 4.0293C29.7493 3.91369 30.1142 4.00222 30.3672 4.21973C30.6666 4.47734 30.8159 4.92797 30.6191 5.36328C30.4499 5.73756 30.2464 6.09317 30.0146 6.42773C30.2455 6.34407 30.4735 6.25376 30.6973 6.15625L30.8262 6.1123C31.4665 5.95315 32.0127 6.68399 31.6182 7.26562C30.8207 8.44127 29.8274 9.48289 28.6914 10.3457C28.6948 10.4846 28.6973 10.6238 28.6973 10.7627C28.6973 19.1029 22.2473 28.7498 10.4346 28.75C7.22431 28.75 4.20844 27.9288 1.58594 26.4922C1.10166 26.2267 0.997252 25.7027 1.11914 25.3184C1.23805 24.9438 1.60081 24.5924 2.11719 24.6074L2.46973 24.6123C4.51135 24.6123 6.42951 24.0952 8.09766 23.1885C6.14641 22.5651 4.57304 21.1082 3.81445 19.2402C3.59372 18.6966 3.86374 18.2197 4.26855 18C2.56576 16.7618 1.45716 14.7706 1.45703 12.5176C1.45703 11.9306 2.05859 11.5636 2.57129 11.7881C1.89837 10.7369 1.50789 9.49058 1.50781 8.1543C1.50781 7.0495 1.77648 6.00358 2.25098 5.07812L2.32129 4.95996C2.67511 4.4459 3.38136 4.42386 3.80176 4.80273L3.8877 4.88965L4.16309 5.20117C6.86231 8.17389 10.6379 10.1781 14.8926 10.6191C14.8774 10.4349 14.8682 10.2488 14.8682 10.0605C14.8682 6.28784 17.971 3.25 21.7725 3.25ZM21.7725 4.75C18.7774 4.75 16.3682 7.13811 16.3682 10.0605C16.3682 10.4746 16.4163 10.8782 16.5068 11.2695L16.7305 12.2373L15.7393 12.1885C10.8259 11.945 6.42715 9.79011 3.28906 6.46387C3.10737 6.99561 3.00781 7.5638 3.00781 8.1543C3.00795 9.99015 3.95658 11.6167 5.40723 12.5713L7.62891 14.0322L4.9707 13.9473C4.31148 13.926 3.67511 13.8113 3.07422 13.6201C3.51324 15.6591 5.14495 17.2738 7.23145 17.71C7.24095 17.7119 7.25123 17.7139 7.26074 17.7158L7.29395 17.7227L9.61523 18.1953L7.44531 19.1445C7.30435 19.2063 7.13679 19.2448 7.00879 19.2695C6.86411 19.2975 6.69901 19.3211 6.53125 19.3408C6.22162 19.3772 5.8709 19.4009 5.57031 19.4043C6.49368 20.9399 8.18341 21.9848 10.1279 22.0186L12.2666 22.0557L10.5732 23.3623C8.73642 24.7792 6.5071 25.7227 4.07617 26.0146C6.03642 26.8089 8.18187 27.25 10.4346 27.25C21.2675 27.2498 27.1973 18.4344 27.1973 10.7627C27.1973 10.5153 27.1911 10.2637 27.1797 10.0137L27.1611 9.60547L27.4941 9.36914C27.9333 9.05653 28.3487 8.71225 28.7393 8.34375C28.5125 8.39133 28.2838 8.43566 28.0527 8.47168C27.5775 8.54575 27.2371 8.23046 27.124 7.9209C27.0135 7.61798 27.0654 7.18318 27.4365 6.92383L27.7246 6.70801C27.95 6.5273 28.1577 6.32665 28.3506 6.11328C27.7232 6.33806 27.074 6.51957 26.4062 6.64844L26.0049 6.72559L25.7217 6.42969C24.7358 5.3977 23.3312 4.75016 21.7725 4.75Z"
    fill="currentColor"
  />
</svg>
