<svg width="24" height="24" viewBox="0 0 24 24" fill="none" xmlns="http://www.w3.org/2000/svg" data-fui-icon="true">
  <path
    fill-rule="evenodd"
    clip-rule="evenodd"
    d="M16.3274 2.25C17.7094 2.25 18.9734 2.76756 19.9261 3.61523C20.6032 3.45309 21.2496 3.21313 21.8528 2.90234C22.2163 2.71506 22.6254 2.7892 22.8968 3.02246C23.1785 3.26486 23.319 3.69043 23.1341 4.09961C23.0819 4.21503 23.0242 4.32767 22.9641 4.43848C23.6498 4.15747 24.285 4.93964 23.8675 5.55469C23.2748 6.42831 22.5412 7.20518 21.7034 7.85352C21.7047 7.92636 21.7093 7.99943 21.7093 8.07227C21.7092 14.411 16.8066 21.75 7.8245 21.75C5.38455 21.7499 3.09162 21.1264 1.09794 20.0342C0.642823 19.7847 0.544923 19.2898 0.658484 18.9316C0.769108 18.5833 1.10915 18.2546 1.59208 18.2686L1.85087 18.2715C3.19794 18.2715 4.47102 17.9638 5.6038 17.4189C4.27932 16.8733 3.22141 15.8197 2.68583 14.501C2.52195 14.0972 2.64545 13.7349 2.88993 13.499C1.68034 12.53 0.903601 11.051 0.903601 9.3877C0.903692 8.97051 1.21301 8.66585 1.5745 8.61133C1.17155 7.86801 0.941687 7.0181 0.941687 6.11523C0.941717 5.25597 1.15086 4.44227 1.51981 3.72266C1.82267 3.13218 2.55444 3.08381 2.97587 3.46289L3.05594 3.54492L3.26005 3.77539C5.2076 5.92011 7.91415 7.3812 10.9681 7.75195C10.9654 7.68341 10.9622 7.61415 10.9622 7.54492C10.9624 4.60951 13.376 2.25033 16.3274 2.25ZM16.3274 3.75C14.1824 3.75033 12.4624 5.45978 12.4622 7.54492C12.4622 7.84081 12.4969 8.12985 12.5618 8.41016L12.7854 9.37793L11.7932 9.32812C8.17402 9.14856 4.92183 7.60477 2.55301 5.20801C2.4802 5.4989 2.4417 5.80274 2.44169 6.11523C2.44169 7.42574 3.11944 8.58826 4.15751 9.27148L6.37821 10.7334L3.72098 10.6475C3.32596 10.6347 2.94114 10.578 2.57157 10.4854C2.97409 11.7929 4.07454 12.8087 5.46024 13.0986L5.46122 13.0996L5.50223 13.1074H5.50126L5.50614 13.1084L7.82743 13.5801L5.65751 14.5303C5.53141 14.5854 5.38786 14.6169 5.29032 14.6357C5.17614 14.6578 5.04788 14.6773 4.91923 14.6924C4.7914 14.7074 4.65363 14.7188 4.51786 14.7275C5.20468 15.6749 6.32403 16.3039 7.59794 16.3262L9.73661 16.3633L8.04325 17.6699C6.8212 18.6125 5.37126 19.2802 3.7913 19.585C5.05494 20.0147 6.41111 20.25 7.8245 20.25C15.8268 20.25 20.2092 13.7425 20.2093 8.07227C20.2093 7.89 20.205 7.7044 20.1966 7.51953L20.178 7.11035L20.51 6.87402C20.6555 6.7705 20.7964 6.66 20.9349 6.54785C20.5424 6.54896 20.2637 6.27447 20.1653 6.00488C20.0587 5.71255 20.109 5.2906 20.469 5.03906L20.4944 5.01953C20.2788 5.07631 20.0602 5.12725 19.8391 5.16992L19.4368 5.24805L19.1546 4.95215C18.4493 4.21392 17.4439 3.75 16.3274 3.75Z"
    fill="currentColor"
  />
</svg>
