<svg
  width="13"
  height="12"
  viewBox="0 0 13 12"
  fill="none"
  xmlns="http://www.w3.org/2000/svg"
  data-fui-icon="true"
>
  <path
    d="M2.67891 6.92175C2.58984 6.96075 2.27258 6.99609 2.0625 6.99609C1.96922 6.99609 1.88063 6.99255 1.79281 6.9834C1.722 6.97602 1.6639 7.04323 1.69068 7.10919C2.0257 7.93426 2.83874 8.52143 3.79271 8.538C3.00245 9.1476 2.00706 9.51095 0.925955 9.51095C0.878927 9.51095 0.832057 9.51027 0.785352 9.5089C0.685667 9.506 0.642092 9.64014 0.729555 9.68806C1.67271 10.2047 2.75721 10.5 3.91261 10.5C8.15875 10.5 10.48 7.0383 10.48 4.03604C10.48 3.9385 10.4775 3.83998 10.4731 3.74244C10.9239 3.42154 11.3154 3.02211 11.624 2.56709V2.56709C11.6243 2.56666 11.6238 2.56613 11.6234 2.56633C11.2625 2.72356 10.8783 2.83627 10.476 2.89897C10.436 2.90522 10.4162 2.85011 10.4494 2.82689C10.7859 2.59197 11.0559 2.2704 11.2255 1.89521C11.261 1.81671 11.1752 1.74481 11.0987 1.78427C10.711 1.98405 10.2911 2.13156 9.84875 2.21692C9.4276 1.77604 8.8281 1.5 8.1642 1.5C6.88985 1.5 5.8563 2.51734 5.8563 3.77268C5.8563 3.9502 5.87715 4.12285 5.91575 4.28964C4.04471 4.19691 2.38185 3.33449 1.24458 2.01749C1.20211 1.96831 1.1236 1.97469 1.09395 2.03251C0.935672 2.3412 0.846185 2.6895 0.846185 3.05771C0.846185 3.84584 1.25395 4.54178 1.87279 4.94901C1.50466 4.93715 1.15808 4.84042 0.853117 4.67856C0.841479 4.67238 0.82736 4.68076 0.82736 4.69394V4.69394C0.82736 5.78605 1.61013 6.69856 2.65405 6.9167M2.67891 6.92175C2.6706 6.92011 2.66232 6.91843 2.65405 6.9167M2.67891 6.92175L2.65405 6.9167"
    stroke="currentColor"
    stroke-width="1.2"
  />
</svg>
