<svg width="24" height="24" viewBox="0 0 24 24" fill="none" xmlns="http://www.w3.org/2000/svg" data-fui-icon="true">
  <path
    d="M22 1.25C22.4142 1.25 22.75 1.58579 22.75 2V5.2002C22.7499 5.61432 22.4141 5.9502 22 5.9502C21.5859 5.9502 21.2501 5.61432 21.25 5.2002V2.75H12.75V21.25H15.8457C16.2599 21.25 16.5957 21.5858 16.5957 22C16.5957 22.4142 16.2599 22.75 15.8457 22.75H7.38477C6.97055 22.75 6.63477 22.4142 6.63477 22C6.63477 21.5858 6.97055 21.25 7.38477 21.25H11.25V2.75H2.75V5.2002C2.74989 5.61432 2.41415 5.9502 2 5.9502C1.58585 5.9502 1.25011 5.61432 1.25 5.2002V2C1.25 1.58579 1.58579 1.25 2 1.25H22Z"
    fill="currentColor"
  />
</svg>
