<svg width="12" height="12" viewBox="0 0 12 12" fill="none" xmlns="http://www.w3.org/2000/svg" data-fui-icon="true">
  <path
    d="M9.125 9.625C9.53921 9.625 9.875 9.96079 9.875 10.375C9.875 10.7892 9.53921 11.125 9.125 11.125H2.875C2.46079 11.125 2.125 10.7892 2.125 10.375C2.125 9.96079 2.46079 9.625 2.875 9.625H9.125ZM9.125 0.90625C9.53921 0.90625 9.875 1.24204 9.875 1.65625V5C9.875 7.14011 8.14011 8.875 6 8.875C3.8599 8.875 2.125 7.14012 2.125 5V1.65625C2.125 1.24204 2.46079 0.90625 2.875 0.90625C3.28921 0.90625 3.625 1.24204 3.625 1.65625V5C3.625 6.31169 4.68832 7.375 6 7.375C7.31169 7.375 8.375 6.31169 8.375 5V1.65625C8.375 1.24204 8.71079 0.90625 9.125 0.90625Z"
    fill="currentColor"
  />
</svg>
