<svg width="32" height="32" viewBox="0 0 32 32" fill="none" xmlns="http://www.w3.org/2000/svg" data-fui-icon="true">
  <path
    d="M24.334 26.917C24.7479 26.9174 25.084 27.253 25.084 27.667C25.0838 28.0808 24.7478 28.4166 24.334 28.417H7.66699C7.25289 28.417 6.91717 28.0811 6.91699 27.667C6.91699 27.2528 7.25278 26.917 7.66699 26.917H24.334ZM24.334 4.25C24.7479 4.25037 25.084 4.58602 25.084 5V16C25.084 21.0165 21.0164 25.0828 16 25.083C10.9836 25.0828 6.91699 21.0165 6.91699 16V5C6.91699 4.58579 7.25278 4.25 7.66699 4.25C8.08104 4.2502 8.41699 4.58591 8.41699 5V16C8.41699 20.1881 11.812 23.5828 16 23.583C20.188 23.5828 23.584 20.1881 23.584 16V5C23.584 4.58579 23.9198 4.25 24.334 4.25Z"
    fill="currentColor"
  />
</svg>
