<svg width="16" height="16" viewBox="0 0 16 16" fill="none" xmlns="http://www.w3.org/2000/svg" data-fui-icon="true">
  <path
    d="M12.166 13.083C12.5801 13.083 12.9158 13.4189 12.916 13.833C12.916 14.2472 12.5802 14.583 12.166 14.583H3.83301C3.41896 14.5828 3.08301 14.2471 3.08301 13.833C3.08318 13.4191 3.41907 13.0832 3.83301 13.083H12.166ZM12.166 1.03125C12.5802 1.03125 12.916 1.36704 12.916 1.78125V7C12.916 9.71531 10.7153 11.9168 8 11.917C5.28477 11.9168 3.08301 9.71529 3.08301 7V1.78125C3.08301 1.36716 3.41896 1.03145 3.83301 1.03125C4.24722 1.03125 4.58301 1.36704 4.58301 1.78125V7C4.58301 8.88686 6.11319 10.4168 8 10.417C9.88684 10.4168 11.416 8.88688 11.416 7V1.78125C11.416 1.36727 11.7521 1.03162 12.166 1.03125Z"
    fill="currentColor"
  />
</svg>
