<svg width="20" height="20" viewBox="0 0 20 20" fill="none" xmlns="http://www.w3.org/2000/svg" data-fui-icon="true">
  <path
    d="M15.209 16.542C15.6229 16.5424 15.959 16.878 15.959 17.292C15.9588 17.7058 15.6228 18.0416 15.209 18.042H4.79199C4.37789 18.042 4.04217 17.7061 4.04199 17.292C4.04199 16.8778 4.37778 16.542 4.79199 16.542H15.209ZM15.209 2.375C15.6229 2.37537 15.959 2.71102 15.959 3.125V10C15.959 13.2906 13.2905 15.9578 10 15.958C6.70945 15.9578 4.04199 13.2906 4.04199 10V3.125C4.04199 2.71079 4.37778 2.375 4.79199 2.375C5.20604 2.3752 5.54199 2.71091 5.54199 3.125V10C5.54199 12.4622 7.53788 14.4578 10 14.458C12.4621 14.4578 14.459 12.4622 14.459 10V3.125C14.459 2.71079 14.7948 2.375 15.209 2.375Z"
    fill="currentColor"
  />
</svg>
