<svg width="20" height="20" viewBox="0 0 20 20" fill="none" xmlns="http://www.w3.org/2000/svg" data-fui-icon="true">
  <path
    fill-rule="evenodd"
    clip-rule="evenodd"
    d="M1.21967 1.21973C1.51257 0.926862 1.98733 0.926843 2.28022 1.21973L18.7802 17.7197C19.0731 18.0126 19.0731 18.4874 18.7802 18.7803C18.4873 19.0732 18.0126 19.0731 17.7197 18.7803L14.0273 15.0879C13.971 15.0316 13.8947 15 13.8151 15H11.0499C10.8843 15 10.7499 15.1343 10.7499 15.3V18.25C10.7499 18.6642 10.4141 18.9999 9.99994 19C9.58577 19 9.24994 18.6642 9.24994 18.25V15.3C9.24994 15.1343 9.11563 15 8.94994 15H5.49311C3.57054 14.9999 2.33914 12.9532 3.24018 11.2549L4.85443 8.21289C4.95005 8.03254 4.99994 7.83109 4.99994 7.62695V6.18481C4.99994 6.10525 4.96834 6.02894 4.91207 5.97268L1.21967 2.28027C0.926777 1.98738 0.926777 1.51262 1.21967 1.21973ZM12.4501 1C13.8583 1.00017 14.9998 2.14167 14.9999 3.5498V7.62695C14.9999 7.8311 15.0498 8.03253 15.1455 8.21289L16.7597 11.2549C17.1069 11.9092 17.1367 12.6149 16.933 13.2356C16.8696 13.4287 16.6275 13.4674 16.4837 13.3237L15.6359 12.4758C15.5836 12.4235 15.5542 12.3533 15.5425 12.2802C15.525 12.1718 15.4903 12.0632 15.4345 11.958L13.8203 8.91602C13.6097 8.51913 13.4999 8.07622 13.4999 7.62695V3.5498C13.4998 2.9701 13.0298 2.50017 12.4501 2.5H7.54975C7.23811 2.50008 6.95816 2.63593 6.76587 2.85161C6.6051 3.03194 6.28505 3.12476 6.1143 2.95385L5.54525 2.38432C5.44711 2.28609 5.42774 2.13215 5.51108 2.0211C5.97603 1.40156 6.71551 1.00009 7.54975 1H12.4501ZM6.49994 7.62695C6.49994 8.07621 6.39014 8.51913 6.17963 8.91602L4.56537 11.958C4.19441 12.6573 4.70151 13.4999 5.49311 13.5H11.7151C11.9824 13.5 12.1163 13.1769 11.9273 12.9879L6.5469 7.6075C6.52957 7.59018 6.49994 7.60245 6.49994 7.62695Z"
    fill="currentColor"
  />
</svg>
