<svg width="12" height="12" viewBox="0 0 12 12" fill="none" xmlns="http://www.w3.org/2000/svg" data-fui-icon="true">
  <path
    fill-rule="evenodd"
    clip-rule="evenodd"
    d="M0.21967 0.219727C0.512562 -0.0731667 0.987324 -0.0731667 1.28022 0.219727L11.7802 10.7197C12.0731 11.0126 12.0731 11.4874 11.7802 11.7803C11.4873 12.0732 11.0126 12.0732 10.7197 11.7803L8.02726 9.08787C7.971 9.03161 7.8947 9 7.81513 9H7.04994C6.88426 9 6.74994 9.13431 6.74994 9.3V11.25C6.74994 11.6642 6.41411 11.9999 5.99994 12C5.58577 12 5.24994 11.6642 5.24994 11.25V9.3C5.24994 9.13431 5.11563 9 4.94994 9H3.26654C1.90634 8.99994 1.06577 7.516 1.76557 6.34961L2.93549 4.39941C2.97738 4.32958 2.99988 4.2494 2.99994 4.16797C2.99994 4.09919 2.97262 4.03322 2.92398 3.98459L0.21967 1.28027C-0.0732233 0.98738 -0.0732233 0.51262 0.21967 0.219727ZM3.0517 7.12109C2.95178 7.2877 3.07228 7.49994 3.26654 7.5H5.71513C5.9824 7.5 6.11625 7.17686 5.92726 6.98787L4.45139 5.51199C4.31336 5.37396 4.08236 5.40243 3.98197 5.56983L3.0517 7.12109ZM7.24994 0C8.21641 3.85987e-05 8.99994 0.783526 8.99994 1.75V4.16797C9.00001 4.24939 9.02251 4.32959 9.0644 4.39941L10.2343 6.34961C10.2936 6.4484 10.3415 6.54946 10.3788 6.6517C10.4684 6.89687 10.1838 7.02373 9.99927 6.83917L7.58522 4.42512C7.53578 4.37568 7.50426 4.31058 7.50144 4.24073C7.50046 4.21652 7.49995 4.19226 7.49994 4.16797V1.75C7.49994 1.61195 7.38798 1.50004 7.24994 1.5H4.74994C4.70177 1.50002 4.65135 1.49123 4.61731 1.45716L3.82276 0.661891C3.70029 0.539311 3.7061 0.33626 3.85476 0.247248C4.11659 0.0904803 4.42254 1.48925e-05 4.74994 0H7.24994Z"
    fill="currentColor"
  />
</svg>
