<svg width="32" height="32" viewBox="0 0 32 32" fill="none" xmlns="http://www.w3.org/2000/svg" data-fui-icon="true">
  <path
    fill-rule="evenodd"
    clip-rule="evenodd"
    d="M1.21967 1.21973C1.51257 0.926965 1.98737 0.926878 2.28022 1.21973L30.7802 29.7197C31.0729 30.0126 31.0729 30.4874 30.7802 30.7803C30.4874 31.0731 30.0126 31.073 29.7197 30.7803L23.0273 24.0879C22.971 24.0316 22.8947 24 22.8151 24H17.0499C16.8843 24 16.7499 24.1343 16.7499 24.3V30.25C16.7499 30.6641 16.414 30.9998 15.9999 31C15.5857 31 15.2499 30.6642 15.2499 30.25V24.3C15.2499 24.1343 15.1156 24 14.9499 24H8.69623C5.95725 23.9997 4.14221 21.158 5.29389 18.6729L7.7724 13.3252C7.92193 13.0025 7.9999 12.6506 7.99994 12.2949V9.18481C7.99994 9.10525 7.96834 9.02894 7.91208 8.97268L1.21967 2.28027C0.926777 1.98738 0.926777 1.51262 1.21967 1.21973ZM20.2499 1C22.3209 1.00011 23.9999 2.679 23.9999 4.75V12.2949C24 12.6506 24.0779 13.0025 24.2275 13.3252L26.706 18.6729C27.3622 20.0889 27.0538 21.6195 26.1614 22.6753C26.0541 22.8022 25.8624 22.8019 25.7449 22.6844L25.1084 22.0479C24.9917 21.9312 24.993 21.7431 25.0928 21.6117C25.5698 20.9834 25.7194 20.1124 25.3447 19.3037L22.8662 13.9551C22.6251 13.4348 22.5 12.8683 22.4999 12.2949V4.75C22.4999 3.50743 21.4925 2.50011 20.2499 2.5H11.7499C10.5073 2.5 9.49994 3.50736 9.49994 4.75V5.71519C9.49994 5.98246 9.1768 6.11631 8.98781 5.92732L8.08781 5.02732C8.03155 4.97106 7.99994 4.89475 7.99994 4.81519V4.75C7.99994 2.67893 9.67888 1 11.7499 1H20.2499ZM9.49994 12.2949C9.4999 12.8683 9.37477 13.4348 9.13373 13.9551L6.65522 19.3037C5.96423 20.7948 7.05294 22.4997 8.69623 22.5H20.7151C20.9824 22.5 21.1163 22.1769 20.9273 21.9879L10.0121 11.0727C9.82308 10.8837 9.49994 11.0175 9.49994 11.2848V12.2949Z"
    fill="currentColor"
  />
</svg>
