<svg width="24" height="24" viewBox="0 0 24 24" fill="none" xmlns="http://www.w3.org/2000/svg" data-fui-icon="true">
  <path
    fill-rule="evenodd"
    clip-rule="evenodd"
    d="M1.21967 1.21973C1.51257 0.926862 1.98733 0.926843 2.28022 1.21973L22.7802 21.7197C23.0731 22.0126 23.0731 22.4874 22.7802 22.7803C22.4873 23.0732 22.0126 23.0731 21.7197 22.7803L17.0273 18.0879C16.971 18.0316 16.8947 18 16.8151 18H13.0499C12.8843 18 12.7499 18.1343 12.7499 18.3V22.25C12.7499 22.6641 12.414 22.9998 11.9999 23C11.5857 23 11.2499 22.6642 11.2499 22.25V18.3C11.2499 18.1343 11.1156 18 10.9499 18H6.55951C4.3666 17.9999 2.94012 15.6919 3.92084 13.7305L5.82611 9.92188C5.94063 9.69281 5.99993 9.43969 5.99994 9.18359V7.18481C5.99994 7.10525 5.96834 7.02894 5.91207 6.97268L1.21967 2.28027C0.926777 1.98738 0.926777 1.51262 1.21967 1.21973ZM15.0497 1C16.6789 1.00012 17.9999 2.32103 17.9999 3.9502V9.18359C18 9.43973 18.0592 9.69278 18.1738 9.92188L20.079 13.7305C20.5312 14.6348 20.4703 15.6121 20.0596 16.4034C19.973 16.5703 19.751 16.5909 19.6181 16.458L18.9166 15.7565C18.8301 15.67 18.8076 15.5402 18.8398 15.4221C18.9279 15.0984 18.9064 14.7397 18.7372 14.4014L16.833 10.5918C16.6143 10.1545 16.5 9.67253 16.4999 9.18359V3.9502C16.4999 3.14946 15.8505 2.50012 15.0497 2.5H8.95014C8.14933 2.5 7.49994 3.14938 7.49994 3.9502C7.49994 4.09362 7.32653 4.16545 7.22511 4.06403L6.29125 3.13018C6.21037 3.04929 6.18132 2.92887 6.22506 2.82318C6.66784 1.75332 7.72031 1 8.95014 1H15.0497ZM7.49994 9.18359C7.49993 9.67249 7.38553 10.1545 7.16693 10.5918L5.26264 14.4014C4.7806 15.3654 5.48168 16.4999 6.55951 16.5H14.7151C14.9824 16.5 15.1163 16.1769 14.9273 15.9879L7.9405 9.00111C7.77793 8.83853 7.49994 8.95367 7.49994 9.18359Z"
    fill="currentColor"
  />
</svg>
