<svg width="20" height="20" viewBox="0 0 20 20" fill="none" xmlns="http://www.w3.org/2000/svg" data-fui-icon="true">
  <path
    fill-rule="evenodd"
    clip-rule="evenodd"
    d="M1.21967 1.21973C1.51257 0.926862 1.98733 0.926843 2.28022 1.21973L18.7802 17.7197C19.0731 18.0126 19.0731 18.4874 18.7802 18.7803C18.4873 19.0732 18.0126 19.0731 17.7197 18.7803L14.0273 15.0879C13.971 15.0316 13.8947 15 13.8151 15H11.0499C10.8843 15 10.7499 15.1343 10.7499 15.3V18.25C10.7499 18.6642 10.4141 18.9999 9.99994 19C9.58577 19 9.24994 18.6642 9.24994 18.25V15.3C9.24994 15.1343 9.11563 15 8.94994 15H5.49311C3.57054 14.9999 2.33914 12.9532 3.24018 11.2549L4.85443 8.21289C4.95005 8.03254 4.99994 7.83109 4.99994 7.62695V6.18481C4.99994 6.10525 4.96834 6.02894 4.91207 5.97268L1.21967 2.28027C0.926777 1.98738 0.926777 1.51262 1.21967 1.21973ZM12.4501 1C13.8583 1.00017 14.9998 2.14167 14.9999 3.5498V7.62695C14.9999 7.83109 15.0498 8.03253 15.1455 8.21289L16.7597 11.2549C17.1068 11.9092 17.1367 12.6149 16.933 13.2355C16.8696 13.4287 16.6275 13.4674 16.4837 13.3236L5.54538 2.38432C5.44718 2.28611 5.42777 2.13211 5.51115 2.02102C5.97612 1.40153 6.71556 1.00009 7.54975 1H12.4501Z"
    fill="currentColor"
  />
</svg>
