<svg width="32" height="32" viewBox="0 0 32 32" fill="none" xmlns="http://www.w3.org/2000/svg" data-fui-icon="true">
  <path
    d="M1.21973 1.21973C1.51263 0.926965 1.98742 0.926878 2.28027 1.21973L30.7803 29.7197C31.073 30.0126 31.073 30.4874 30.7803 30.7803C30.4874 31.0731 30.0126 31.073 29.7197 30.7803L23.0273 24.0879C22.9711 24.0316 22.8948 24 22.8152 24H17.049C16.8833 24 16.749 24.1343 16.749 24.3V30.25C16.749 30.6642 16.4132 31 15.999 31C15.5852 30.9996 15.249 30.664 15.249 30.25V24.3C15.249 24.1343 15.1147 24 14.949 24H8.69531C5.95686 23.9992 4.14168 21.1577 5.29297 18.6729L7.77148 13.3252C7.92104 13.0025 7.99898 12.6506 7.99902 12.2949V9.18383C7.99902 9.10427 7.96742 9.02796 7.91116 8.9717L1.21973 2.28027C0.926834 1.98738 0.926834 1.51262 1.21973 1.21973ZM20.249 1C22.3201 1 23.999 2.67893 23.999 4.75V12.2949C23.9991 12.6505 24.0771 13.0026 24.2266 13.3252L26.7051 18.6729C27.3613 20.089 27.053 21.6195 26.1605 22.6753C26.0532 22.8022 25.8615 22.8019 25.744 22.6844L8.08689 5.02732C8.03063 4.97106 7.99902 4.89475 7.99902 4.81519V4.75C7.99902 2.67919 9.67831 1.00042 11.749 1H20.249Z"
    fill="currentColor"
  />
</svg>
