<svg width="20" height="20" viewBox="0 0 20 20" fill="none" xmlns="http://www.w3.org/2000/svg" data-fui-icon="true">
  <path
    fill-rule="evenodd"
    clip-rule="evenodd"
    d="M1.21967 1.21967C1.51256 0.926777 1.98732 0.926777 2.28022 1.21967L18.7802 17.7197C19.0731 18.0126 19.0731 18.4873 18.7802 18.7802C18.4873 19.0731 18.0126 19.0731 17.7197 18.7802L14.1528 15.2134C13.9928 15.0533 13.7199 15.1214 13.6538 15.3378L13.4042 16.1542C12.8404 17.9918 10.5225 18.5686 9.16303 17.2099L6.71887 14.7657C6.60173 14.6486 6.41181 14.6486 6.29465 14.7657L3.63373 17.4257C3.34097 17.7184 2.86608 17.7182 2.57318 17.4257C2.28039 17.1329 2.28041 16.6581 2.57318 16.3652L5.23316 13.7052C5.3503 13.5881 5.35032 13.3981 5.2332 13.281L2.78901 10.8359C1.42983 9.47634 2.0067 7.1584 3.84467 6.59467L4.66039 6.34373C4.87647 6.27725 4.94417 6.00472 4.78431 5.84486L1.21967 2.28022C0.926777 1.98732 0.926777 1.51256 1.21967 1.21967ZM10.5371 2.39057C11.5327 1.39529 13.1468 1.39542 14.1425 2.39057L17.6083 5.85639C18.6032 6.85217 18.6035 8.46627 17.6083 9.46186L15.3273 11.7429C15.2102 11.86 15.0202 11.86 14.903 11.7429L8.25602 5.09586C8.13886 4.97871 8.13886 4.78876 8.25602 4.6716L10.5371 2.39057Z"
    fill="currentColor"
  />
</svg>
