<svg width="24" height="24" viewBox="0 0 24 24" fill="none" xmlns="http://www.w3.org/2000/svg" data-fui-icon="true">
  <path
    d="M1.21973 1.21979C1.51262 0.926895 1.98738 0.926894 2.28027 1.21979L22.7803 21.7198C23.0731 22.0127 23.0731 22.4875 22.7803 22.7803C22.4874 23.0732 22.0126 23.0732 21.7197 22.7803L16.7878 17.8484C16.6301 17.6907 16.3614 17.7542 16.291 17.9659L15.7314 19.6485C15.0378 21.7287 12.3973 22.3513 10.8467 20.8008L7.74146 17.6965C7.62428 17.5794 7.43434 17.5794 7.3172 17.6966L3.99414 21.0206C3.70134 21.3132 3.22645 21.3131 2.93359 21.0206C2.64083 20.7277 2.64074 20.2519 2.93359 19.959L6.25662 16.636C6.37378 16.5189 6.37378 16.3289 6.25662 16.2118L3.15234 13.1075C1.60195 11.5568 2.22531 8.91616 4.30566 8.22272L5.98704 7.66149C6.19853 7.5909 6.26184 7.32245 6.10419 7.16479L1.21973 2.28033C0.926833 1.98744 0.926833 1.51268 1.21973 1.21979ZM12.6914 2.7774C13.8434 1.62546 15.7112 1.6255 16.8633 2.7774L21.1768 7.0899C22.3287 8.24184 22.3285 10.1097 21.1768 11.2618L18.0119 14.4266C17.8948 14.5438 17.7048 14.5438 17.5877 14.4266L9.52662 6.36554C9.40945 6.24837 9.40946 6.0584 9.52665 5.94125L12.6914 2.7774Z"
    fill="currentColor"
  />
</svg>
