<svg width="16" height="16" viewBox="0 0 16 16" fill="none" xmlns="http://www.w3.org/2000/svg" data-fui-icon="true">
  <path
    d="M1.21973 1.21979C1.51262 0.926894 1.98738 0.926894 2.28027 1.21979L14.7803 13.7198C15.0731 14.0127 15.0731 14.4875 14.7803 14.7803C14.4874 15.0732 14.0126 15.0732 13.7197 14.7803L11.5425 12.6031C11.4049 12.4655 11.17 12.5288 11.1201 12.7169C10.7132 14.2425 8.80613 14.7549 7.68945 13.6387L5.78342 11.7327C5.66626 11.6155 5.47631 11.6155 5.35916 11.7327L3.27344 13.8184C2.98059 14.1113 2.50579 14.1112 2.21289 13.8184C1.92 13.5255 1.92 13.0508 2.21289 12.7579L4.29861 10.6722C4.41577 10.555 4.41577 10.365 4.29861 10.2479L2.39258 8.34186C1.27632 7.22528 1.78805 5.3183 3.31348 4.91119C3.50178 4.86086 3.56491 4.62552 3.42709 4.4877L1.21973 2.28033C0.926833 1.98744 0.926834 1.51268 1.21973 1.21979ZM8.54102 1.83307C9.34157 1.03288 10.64 1.03275 11.4404 1.83307L14.1982 4.59088C14.9985 5.39136 14.9984 6.68977 14.1982 7.4903L12.636 9.05086C12.5188 9.1679 12.3289 9.16785 12.2118 9.05074L6.97971 3.81864C6.86255 3.70148 6.86255 3.51153 6.97971 3.39437L8.54102 1.83307Z"
    fill="currentColor"
  />
</svg>
