<svg width="20" height="20" viewBox="0 0 20 20" fill="none" xmlns="http://www.w3.org/2000/svg" data-fui-icon="true">
  <path
    d="M1.21973 1.21979C1.51262 0.926895 1.98738 0.926894 2.28027 1.21979L18.7803 17.7198C19.0731 18.0127 19.0731 18.4875 18.7803 18.7803C18.4874 19.0732 18.0126 19.0732 17.7197 18.7803L14.1529 15.2135C13.9928 15.0535 13.72 15.1215 13.6538 15.3379L13.4043 16.1544C12.8404 17.9919 10.5226 18.5688 9.16309 17.21L6.71893 14.7659C6.60179 14.6487 6.41187 14.6487 6.2947 14.7658L3.63379 17.4258C3.34103 17.7185 2.86614 17.7183 2.57324 17.4258C2.28044 17.133 2.28046 16.6582 2.57324 16.3653L5.23322 13.7053C5.35036 13.5882 5.35038 13.3983 5.23326 13.2811L2.78906 10.836C1.42989 9.47646 2.00675 7.15851 3.84473 6.59479L4.66044 6.34384C4.87653 6.27737 4.94423 6.00484 4.78437 5.84497L1.21973 2.28033C0.926833 1.98744 0.926833 1.51268 1.21973 1.21979ZM10.5371 2.39069C11.5328 1.39541 13.1468 1.39554 14.1426 2.39069L17.6084 5.85651C18.6033 6.85228 18.6036 8.46638 17.6084 9.46198L15.3274 11.743C15.2102 11.8602 15.0203 11.8602 14.9031 11.743L8.25608 5.09598C8.13892 4.97882 8.13892 4.78888 8.25608 4.67172L10.5371 2.39069Z"
    fill="currentColor"
  />
</svg>
