<svg width="16" height="16" viewBox="0 0 16 16" fill="none" xmlns="http://www.w3.org/2000/svg" data-fui-icon="true">
  <path
    d="M1.21973 1.21979C1.51262 0.926894 1.98738 0.926894 2.28027 1.21979L14.7803 13.7198C15.0731 14.0127 15.0731 14.4875 14.7803 14.7803C14.4874 15.0732 14.0126 15.0732 13.7197 14.7803L11.5425 12.6031C11.4049 12.4655 11.17 12.5288 11.1201 12.7169C10.7132 14.2427 8.80608 14.7544 7.68945 13.6378L5.78342 11.7326C5.66626 11.6155 5.47634 11.6155 5.35921 11.7327L3.27344 13.8184C2.98063 14.1112 2.5058 14.1111 2.21289 13.8184C1.92012 13.5255 1.92004 13.0507 2.21289 12.7579L4.29861 10.6722C4.41577 10.555 4.41577 10.365 4.29861 10.2479L2.39258 8.34186C1.27621 7.22529 1.788 5.3183 3.31348 4.91119C3.50178 4.86086 3.56491 4.62552 3.42709 4.4877L1.21973 2.28033C0.926833 1.98744 0.926834 1.51268 1.21973 1.21979ZM3.7002 6.36041C3.2913 6.46987 3.15385 6.98184 3.45312 7.28131L8.75 12.5772C9.04942 12.8766 9.56035 12.7399 9.66992 12.3311L9.96228 11.2346C9.98986 11.1311 9.96023 11.0208 9.88454 10.9451L5.08522 6.14582C5.00951 6.07012 4.89919 6.04049 4.79574 6.0681L3.7002 6.36041ZM8.54102 1.83307C9.34154 1.03303 10.64 1.03291 11.4404 1.83307L14.1982 4.59088C14.9983 5.39124 14.998 6.68878 14.1982 7.48932L12.636 9.05074C12.5188 9.16784 12.3289 9.16782 12.2118 9.05068L11.5755 8.4144C11.4583 8.29722 11.4583 8.10723 11.5755 7.99008L13.1377 6.42877C13.3517 6.21402 13.352 5.866 13.1377 5.65143L10.3789 2.89362C10.1642 2.67941 9.81624 2.67942 9.60156 2.89362L8.04026 4.45492C7.9231 4.57208 7.73315 4.57208 7.61599 4.45492L6.97971 3.81864C6.86255 3.70148 6.86255 3.51153 6.97971 3.39437L8.54102 1.83307Z"
    fill="currentColor"
  />
</svg>
