<svg width="12" height="12" viewBox="0 0 12 12" fill="none" xmlns="http://www.w3.org/2000/svg" data-fui-icon="true">
  <path
    fill-rule="evenodd"
    clip-rule="evenodd"
    d="M0.21967 0.21967C0.512562 -0.0732233 0.987324 -0.0732233 1.28022 0.21967L11.7802 10.7197C12.0731 11.0126 12.0731 11.4873 11.7802 11.7802C11.4873 12.0731 11.0126 12.0731 10.7197 11.7802L8.58032 9.64087C8.46905 9.5296 8.27892 9.58253 8.24115 9.7353C7.91125 11.0549 6.26747 11.5106 5.30561 10.5488L4.11546 9.3578C3.99829 9.24054 3.80823 9.24054 3.69106 9.35779L2.31244 10.7372C2.01962 11.0298 1.54474 11.0298 1.2519 10.7372C0.959003 10.4444 0.959004 9.96862 1.2519 9.67572L2.63058 8.29704C2.74774 8.17988 2.74774 7.98993 2.63058 7.87277L1.44037 6.68256C0.478643 5.72074 0.933373 4.07701 2.25287 3.74701C2.40551 3.70875 2.45809 3.51864 2.34683 3.40737L0.21967 1.28022C-0.0732233 0.987324 -0.0732233 0.512563 0.21967 0.21967ZM2.61713 5.20209C2.42864 5.24921 2.36359 5.4846 2.50092 5.62201L6.36615 9.48725C6.50346 9.62455 6.7387 9.56021 6.78608 9.37201L7.04965 8.31604C7.07516 8.21384 7.04519 8.10574 6.97071 8.03126L3.95609 5.01664C3.88152 4.94207 3.77327 4.91213 3.67098 4.93778L2.61713 5.20209ZM6.37787 1.36811C7.0613 0.684805 8.17008 0.684728 8.85346 1.36811L10.621 3.13569C11.3043 3.81907 11.3043 4.92691 10.621 5.61029L9.90836 6.32297C9.79121 6.44012 9.60126 6.44012 9.4841 6.32297L8.84782 5.68668C8.73066 5.56953 8.73066 5.37958 8.84782 5.26242L9.56049 4.54975C9.65793 4.45215 9.65793 4.29383 9.56049 4.19623L7.79291 2.42865C7.69533 2.33107 7.53704 2.33117 7.4394 2.42865L6.72575 3.1408C6.60855 3.25774 6.41878 3.25764 6.30171 3.14057L5.66531 2.50418C5.54811 2.38698 5.54816 2.19694 5.66542 2.0798L6.37787 1.36811Z"
    fill="currentColor"
  />
</svg>
