<svg width="20" height="20" viewBox="0 0 20 20" fill="none" xmlns="http://www.w3.org/2000/svg" data-fui-icon="true">
  <path
    d="M17.9999 16.9996C18.5521 16.9996 18.9997 17.4474 18.9999 17.9996C18.9999 18.5519 18.5522 18.9996 17.9999 18.9996H1.99988C1.44759 18.9996 0.999878 18.5519 0.999878 17.9996C1.00005 17.4474 1.4477 16.9996 1.99988 16.9996H17.9999ZM9.36902 1.22418C9.76173 0.904048 10.3408 0.926636 10.7069 1.29254L16.7069 7.29254C17.0971 7.68302 17.0972 8.31615 16.7069 8.7066C16.3165 9.09705 15.6834 9.09688 15.2928 8.7066L10.9999 4.41364V13.9996C10.9999 14.5518 10.5521 14.9995 9.99988 14.9996C9.44759 14.9996 8.99988 14.5519 8.99988 13.9996V4.41364L4.70691 8.7066C4.31639 9.09695 3.68332 9.09703 3.29285 8.7066C2.90253 8.31612 2.90254 7.68303 3.29285 7.29254L9.29285 1.29254L9.36902 1.22418Z"
    fill="currentColor"
  />
</svg>
