<svg width="12" height="13" viewBox="0 0 12 13" fill="none" xmlns="http://www.w3.org/2000/svg" data-fui-icon="true">
  <path
    d="M9.625 10.6251C10.0392 10.6251 10.375 10.9609 10.375 11.3751C10.3749 11.7893 10.0392 12.1251 9.625 12.1251H2.375C1.96083 12.1251 1.62507 11.7893 1.625 11.3751C1.625 10.9609 1.96079 10.6251 2.375 10.6251H9.625ZM5.11621 1.07336C5.60435 0.585266 6.39565 0.585266 6.88379 1.07336L8.65527 2.84485C8.9481 3.13775 8.94814 3.61252 8.65527 3.9054C8.3624 4.1982 7.8876 4.1982 7.59473 3.9054L6.75 3.06067V8.62512C6.74993 9.03927 6.41417 9.37512 6 9.37512C5.58583 9.37512 5.25007 9.03927 5.25 8.62512V3.06067L4.40527 3.9054C4.1124 4.1982 3.6376 4.1982 3.34473 3.9054C3.05186 3.61252 3.0519 3.13775 3.34473 2.84485L5.11621 1.07336Z"
    fill="currentColor"
  />
</svg>
