<svg width="16" height="16" viewBox="0 0 16 16" fill="none" xmlns="http://www.w3.org/2000/svg" data-fui-icon="true">
  <path
    d="M14 13.0001C14.5522 13.0002 15 13.4479 15 14.0001C14.9999 14.5523 14.5522 15.0001 14 15.0001H2C1.44777 15.0001 1.00008 14.5523 1 14.0001C1.00002 13.4479 1.44773 13.0001 2 13.0001H14ZM7.36914 1.22473C7.7619 0.904359 8.3409 0.926992 8.70703 1.29309L12.707 5.29309C13.0974 5.68362 13.0975 6.31667 12.707 6.70715C12.3165 7.09756 11.6835 7.09754 11.293 6.70715L9 4.41418V11.0001C8.99992 11.5523 8.5522 12.0001 8 12.0001C7.4478 12.0001 7.00008 11.5523 7 11.0001V4.41418L4.70703 6.70715C4.31654 7.09759 3.68349 7.09755 3.29297 6.70715C2.90249 6.31664 2.9025 5.68361 3.29297 5.29309L7.29297 1.29309L7.36914 1.22473Z"
    fill="currentColor"
  />
</svg>
