<svg width="12" height="12" viewBox="0 0 12 12" fill="none" xmlns="http://www.w3.org/2000/svg" data-fui-icon="true">
  <path
    d="M11.2499 10.5C11.6641 10.5 11.9999 10.8358 11.9999 11.25C11.9999 11.6642 11.6641 12 11.2499 12H0.749992C0.335783 12 0 11.6642 0 11.25C0 10.8358 0.335783 10.5 0.749992 10.5H11.2499ZM5.52631 0.168089C5.82089 -0.0722174 6.25561 -0.0547545 6.53021 0.219846L9.78017 3.46981C10.0731 3.7627 10.0731 4.23746 9.78017 4.53035C9.48728 4.82324 9.01253 4.82324 8.71964 4.53035L6.74993 2.56064V8.00004C6.74993 8.41425 6.41415 8.75003 5.99994 8.75003C5.58573 8.75003 5.24995 8.41425 5.24995 8.00004V2.56064L3.28024 4.53035C2.98735 4.82324 2.51259 4.82324 2.2197 4.53035C1.92681 4.23746 1.92681 3.7627 2.2197 3.46981L5.46967 0.219846L5.52631 0.168089Z"
    fill="currentColor"
  />
</svg>
