<svg width="24" height="24" viewBox="0 0 24 24" fill="none" xmlns="http://www.w3.org/2000/svg" data-fui-icon="true">
  <path
    fill-rule="evenodd"
    clip-rule="evenodd"
    d="M22.25 21.4999C22.6642 21.4999 22.9999 21.8358 23 22.2499C23 22.6641 22.6642 22.9999 22.25 22.9999H1.75C1.33579 22.9999 1 22.6641 1 22.2499C1.0001 21.8358 1.33585 21.4999 1.75 21.4999H22.25ZM11.5264 1.16788C11.8209 0.927676 12.2557 0.945152 12.5303 1.21964L20.0303 8.71964C20.3231 9.0125 20.3231 9.48729 20.0303 9.78019C19.7374 10.0731 19.2626 10.0731 18.9697 9.78019L12.75 3.56046V18.4999C12.75 18.9141 12.4142 19.2499 12 19.2499C11.5858 19.2499 11.25 18.9141 11.25 18.4999V3.56046L5.03027 9.78019C4.73738 10.0731 4.26262 10.0731 3.96973 9.78019C3.67692 9.48729 3.67686 9.0125 3.96973 8.71964L11.4697 1.21964L11.5264 1.16788Z"
    fill="currentColor"
  />
</svg>
