<svg width="16" height="16" viewBox="0 0 16 16" fill="none" xmlns="http://www.w3.org/2000/svg" data-fui-icon="true">
  <path
    d="M12.834 13.0833C13.2479 13.0836 13.584 13.4193 13.584 13.8333C13.584 14.2472 13.2479 14.5829 12.834 14.5833H3.16699C2.7528 14.5833 2.41702 14.2474 2.41699 13.8333C2.41699 13.419 2.75278 13.0833 3.16699 13.0833H12.834ZM6.99902 1.27466C7.55227 0.721635 8.44879 0.721499 9.00195 1.27466L11.3643 3.63599C11.6568 3.92873 11.6566 4.40367 11.3643 4.69653C11.0714 4.98936 10.5966 4.98922 10.3037 4.69653L8.75 3.1438V11.1663C8.74997 11.5803 8.41403 11.9161 8 11.9163C7.58595 11.9161 7.25003 11.5803 7.25 11.1663V3.14478L5.69727 4.69653C5.40444 4.98936 4.92963 4.98922 4.63672 4.69653C4.34399 4.40363 4.34388 3.92882 4.63672 3.63599L6.99902 1.27466Z"
    fill="currentColor"
  />
</svg>
