<svg width="32" height="32" viewBox="0 0 32 32" fill="none" xmlns="http://www.w3.org/2000/svg" data-fui-icon="true">
  <path
    fill-rule="evenodd"
    clip-rule="evenodd"
    d="M30.25 29.4999C30.6642 29.4999 31 29.8357 31 30.2499C31 30.6641 30.6642 30.9999 30.25 30.9999H1.75C1.33581 30.9999 1.00003 30.6641 1 30.2499C1 29.8357 1.33579 29.4999 1.75 29.4999H30.25ZM15.4697 1.21967C15.7626 0.926777 16.2374 0.926777 16.5303 1.21967L27.0303 11.7197C27.3231 12.0126 27.3232 12.4873 27.0303 12.7802C26.7374 13.0731 26.2626 13.0731 25.9697 12.7802L16.75 3.56049V25.9999C16.75 26.4141 16.4142 26.7499 16 26.7499C15.5858 26.7499 15.25 26.4141 15.25 25.9999V3.56049L6.03027 12.7802C5.73739 13.0731 5.26261 13.0731 4.96973 12.7802C4.67684 12.4873 4.67686 12.0126 4.96973 11.7197L15.4697 1.21967Z"
    fill="currentColor"
  />
</svg>
