<svg width="24" height="24" viewBox="0 0 24 24" fill="none" xmlns="http://www.w3.org/2000/svg" data-fui-icon="true">
  <path
    d="M19.25 21.0002C19.6642 21.0002 20 21.336 20 21.7502C19.9999 22.1644 19.6641 22.5002 19.25 22.5002H4.75C4.33586 22.5002 4.00012 22.1644 4 21.7502C4 21.336 4.33579 21.0002 4.75 21.0002H19.25ZM10.7627 2.677C11.4461 1.9937 12.5539 1.9937 13.2373 2.677L16.7803 6.21997C17.0731 6.51287 17.0731 6.98766 16.7803 7.28052C16.4874 7.57326 16.0126 7.57326 15.7197 7.28052L12.75 4.31079V17.2502C12.7499 17.6644 12.4141 18.0002 12 18.0002C11.5859 18.0002 11.2501 17.6644 11.25 17.2502V4.31079L8.28027 7.28052C7.98741 7.57326 7.51259 7.57326 7.21973 7.28052C6.92687 6.98766 6.92694 6.51287 7.21973 6.21997L10.7627 2.677Z"
    fill="currentColor"
  />
</svg>
