<svg width="24" height="24" viewBox="0 0 24 24" fill="none" xmlns="http://www.w3.org/2000/svg" data-fui-icon="true">
  <path
    d="M23.25 22.5C23.6642 22.5 24 22.8358 24 23.25C24 23.6642 23.6642 24 23.25 24H0.75C0.335786 24 0 23.6642 0 23.25C0 22.8358 0.335786 22.5 0.75 22.5H23.25ZM11.5264 0.167969C11.8209 -0.0723403 12.2557 -0.0548772 12.5303 0.219727L20.0303 7.71973C20.3232 8.01262 20.3232 8.48738 20.0303 8.78027C19.7374 9.07317 19.2626 9.07317 18.9697 8.78027L12.75 2.56055V18.25C12.75 18.6642 12.4142 19 12 19C11.5858 19 11.25 18.6642 11.25 18.25V2.56055L5.03027 8.78027C4.73738 9.07317 4.26262 9.07317 3.96973 8.78027C3.67683 8.48738 3.67683 8.01262 3.96973 7.71973L11.4697 0.219727L11.5264 0.167969Z"
    fill="currentColor"
  />
</svg>
