<svg width="20" height="20" viewBox="0 0 20 20" fill="none" xmlns="http://www.w3.org/2000/svg" data-fui-icon="true">
  <path
    d="M16.041 16.5413C16.4551 16.5413 16.7908 16.8772 16.791 17.2913C16.791 17.7055 16.4552 18.0413 16.041 18.0413H3.95801C3.54396 18.0411 3.20801 17.7054 3.20801 17.2913C3.20819 16.8773 3.54407 16.5415 3.95801 16.5413H16.041ZM8.87988 1.47485C9.49801 0.856791 10.5008 0.857134 11.1191 1.47485L14.0713 4.42798C14.3642 4.72087 14.3642 5.19563 14.0713 5.48853C13.7784 5.78108 13.3035 5.78131 13.0107 5.48853L10.75 3.22778V13.7083C10.7498 14.1222 10.414 14.4581 10 14.4583C9.58606 14.4581 9.25018 14.1222 9.25 13.7083V3.22681L6.98828 5.48853C6.69543 5.78119 6.22058 5.7812 5.92773 5.48853C5.63525 5.19566 5.63514 4.72077 5.92773 4.42798L8.87988 1.47485Z"
    fill="currentColor"
  />
</svg>
