<svg width="32" height="32" viewBox="0 0 32 32" fill="none" xmlns="http://www.w3.org/2000/svg" data-fui-icon="true">
  <path
    d="M25.666 27.9164C26.0801 27.9164 26.4159 28.2523 26.416 28.6664C26.416 29.0806 26.0802 29.4164 25.666 29.4164H6.33301C5.91896 29.4162 5.58301 29.0805 5.58301 28.6664C5.58315 28.2524 5.91905 27.9166 6.33301 27.9164H25.666ZM14.5264 4.07849C15.3397 3.26521 16.6591 3.26553 17.4727 4.07849L22.1963 8.8031C22.4892 9.09599 22.4892 9.57075 22.1963 9.86365C21.9034 10.1562 21.4285 10.1564 21.1357 9.86365L16.75 5.47791V23.3334C16.7498 23.7473 16.414 24.0832 16 24.0834C15.5861 24.0832 15.2502 23.7473 15.25 23.3334V5.47693L10.8633 9.86365C10.5704 10.1563 10.0956 10.1563 9.80273 9.86365C9.51022 9.5708 9.51016 9.09591 9.80273 8.8031L14.5264 4.07849Z"
    fill="currentColor"
  />
</svg>
