<svg width="24" height="24" viewBox="0 0 24 24" fill="none" xmlns="http://www.w3.org/2000/svg" data-fui-icon="true">
  <path
    d="M22 20.9996C22.5521 20.9996 22.9998 21.4475 23 21.9996C23 22.5519 22.5523 22.9996 22 22.9996H2C1.44772 22.9996 1 22.5519 1 21.9996C1.00022 21.4475 1.44785 20.9996 2 20.9996H22ZM11.3691 1.22424C11.7618 0.904127 12.341 0.926749 12.707 1.2926L19.707 8.2926C20.0975 8.68306 20.0973 9.31612 19.707 9.70667C19.3165 10.0972 18.6835 10.0972 18.293 9.70667L13 4.4137V17.9996C13 18.5519 12.5523 18.9996 12 18.9996C11.4477 18.9996 11 18.5519 11 17.9996V4.4137L5.70703 9.70667C5.31651 10.0972 4.68349 10.0972 4.29297 9.70667C3.90265 9.31612 3.90251 8.68306 4.29297 8.2926L11.293 1.2926L11.3691 1.22424Z"
    fill="currentColor"
  />
</svg>
