<svg width="16" height="16" viewBox="0 0 16 16" fill="none" xmlns="http://www.w3.org/2000/svg" data-fui-icon="true">
  <path
    d="M14.25 13.4998C14.6642 13.4998 14.9999 13.8357 15 14.2498C15 14.664 14.6642 14.9998 14.25 14.9998H1.75C1.33579 14.9998 1 14.664 1 14.2498C1.00009 13.8357 1.33584 13.4998 1.75 13.4998H14.25ZM7.52637 1.16779C7.82092 0.92757 8.25569 0.945044 8.53027 1.21954L13.0303 5.71954C13.3231 6.01241 13.3231 6.48719 13.0303 6.78009C12.7374 7.07298 12.2626 7.07298 11.9697 6.78009L8.75 3.56036V11.2498C8.75 11.664 8.41421 11.9998 8 11.9998C7.58579 11.9998 7.25 11.664 7.25 11.2498V3.56036L4.03027 6.78009C3.73738 7.07298 3.26262 7.07298 2.96973 6.78009C2.67692 6.48719 2.67686 6.01241 2.96973 5.71954L7.46973 1.21954L7.52637 1.16779Z"
    fill="currentColor"
  />
</svg>
