<svg width="12" height="12" viewBox="0 0 12 12" fill="none" xmlns="http://www.w3.org/2000/svg" data-fui-icon="true">
  <path
    fill-rule="evenodd"
    clip-rule="evenodd"
    d="M10.9996 9.99956C11.5518 9.99956 11.9995 10.4473 11.9995 10.9995C11.9995 11.5518 11.5518 11.9995 10.9996 11.9995H0.999959C0.447849 11.9993 2.43395e-05 11.5517 0 10.9995C0 10.4474 0.447834 9.99972 0.999959 9.99956H10.9996ZM5.37283 0.220659C5.76377 -0.0946057 6.33674 -0.0719599 6.70188 0.288039L9.88046 3.42561C10.2735 3.81358 10.2782 4.44756 9.89022 4.84059C9.50227 5.23328 8.86916 5.23712 8.47622 4.84938L6.99972 3.39143V7.99964C6.99969 8.55188 6.552 8.9996 5.99976 8.9996C5.44765 8.99943 4.99982 8.55178 4.9998 7.99964V3.39143L3.52329 4.84938C3.13028 5.237 2.49717 5.2334 2.10929 4.84059C1.7215 4.44761 1.72624 3.81355 2.11905 3.42561L5.29764 0.288039L5.37283 0.220659Z"
    fill="currentColor"
  />
</svg>
