<svg width="24" height="24" viewBox="0 0 24 24" fill="none" xmlns="http://www.w3.org/2000/svg" data-fui-icon="true">
  <path
    d="M22 20.9996C22.5521 20.9996 22.9998 21.4475 23 21.9996C23 22.5519 22.5523 22.9996 22 22.9996H2C1.44772 22.9996 1 22.5519 1 21.9996C1.00022 21.4475 1.44785 20.9996 2 20.9996H22ZM11.3691 1.22418C11.7618 0.904066 12.341 0.926688 12.707 1.29254L19.707 8.29254C20.0975 8.683 20.0973 9.31606 19.707 9.7066C19.3165 10.0971 18.6835 10.0971 18.293 9.7066L13 4.41364V17.9996C13 18.5519 12.5523 18.9996 12 18.9996C11.4477 18.9996 11 18.5519 11 17.9996V4.41364L5.70703 9.7066C5.31651 10.0971 4.68349 10.0971 4.29297 9.7066C3.90265 9.31606 3.90251 8.683 4.29297 8.29254L11.293 1.29254L11.3691 1.22418Z"
    fill="currentColor"
  />
</svg>
