<svg width="12" height="12" viewBox="0 0 12 12" fill="none" xmlns="http://www.w3.org/2000/svg" data-fui-icon="true">
  <path
    fill-rule="evenodd"
    clip-rule="evenodd"
    d="M6.00021 6.99977C7.0817 6.99979 8.24399 7.20071 9.22276 7.84056C10.2268 8.49709 10.9559 9.56246 11.2383 11.1158C11.3121 11.5231 11.0411 11.9137 10.6338 11.9879C10.2265 12.0617 9.83589 11.7908 9.7618 11.3834C9.54427 10.1875 9.02306 9.50231 8.40247 9.09638C7.75647 8.67399 6.9184 8.49975 6.00021 8.49972C5.082 8.49972 4.24398 8.67403 3.59794 9.09638C2.9773 9.50229 2.45617 10.1874 2.23862 11.3834C2.16456 11.7907 1.77386 12.0616 1.36657 11.9879C0.959198 11.9138 0.688275 11.5232 0.762101 11.1158C1.04455 9.5624 1.77357 8.49708 2.77766 7.84056C3.75646 7.20074 4.91871 6.99977 6.00021 6.99977ZM6.00021 0C7.65691 0.000115183 9.00011 1.34317 9.00011 2.9999C9.00011 4.65663 7.65691 5.99969 6.00021 5.9998C4.34341 5.9998 3.00031 4.6567 3.00031 2.9999C3.00031 1.3431 4.34341 0 6.00021 0ZM6.00021 1.49995C5.17181 1.49995 4.50026 2.1715 4.50026 2.9999C4.50026 3.8283 5.17181 4.49985 6.00021 4.49985C6.82851 4.49974 7.50016 3.82823 7.50016 2.9999C7.50016 2.17157 6.82851 1.50007 6.00021 1.49995Z"
    fill="currentColor"
  />
</svg>
