<svg width="24" height="24" viewBox="0 0 24 24" fill="none" xmlns="http://www.w3.org/2000/svg" data-fui-icon="true">
  <path
    fill-rule="evenodd"
    clip-rule="evenodd"
    d="M12.0009 13.5C16.1074 13.5001 20.4077 15.3755 21.997 20.377C22.4427 21.7799 21.3059 22.9998 20.0156 23H3.9863C2.6959 23 1.55907 21.78 2.00486 20.377C3.59421 15.3754 7.89442 13.5 12.0009 13.5ZM12.0009 15.5C8.48703 15.5 5.16564 17.0491 3.91403 20.9727C3.92499 20.984 3.94774 21 3.9863 21H20.0156C20.0536 20.9999 20.0758 20.9839 20.0869 20.9727C18.8353 17.0493 15.5147 15.5001 12.0009 15.5ZM12.0009 1C15.0385 1 17.5009 3.46243 17.5009 6.5C17.5009 9.53757 15.0385 12 12.0009 12C8.96338 12 6.50095 9.53757 6.50095 6.5C6.50095 3.46243 8.96338 1 12.0009 1ZM12.0009 3C10.068 3 8.50095 4.567 8.50095 6.5C8.50095 8.433 10.068 10 12.0009 10C13.9339 10 15.5009 8.433 15.5009 6.5C15.5009 4.567 13.9339 3 12.0009 3Z"
    fill="currentColor"
  />
</svg>
