<svg width="16" height="16" viewBox="0 0 16 16" fill="none" xmlns="http://www.w3.org/2000/svg" data-fui-icon="true">
  <path
    fill-rule="evenodd"
    clip-rule="evenodd"
    d="M8.00047 9C9.3157 9.00001 10.674 9.33916 11.7983 10.1709C12.9348 11.0117 13.7724 12.313 14.1011 14.1182C14.1752 14.5256 13.905 14.916 13.4975 14.9902C13.0903 15.064 12.6996 14.794 12.6255 14.3867C12.3582 12.919 11.7068 11.969 10.9067 11.377C10.0944 10.7761 9.06868 10.5 8.00047 10.5C6.93225 10.5 5.90647 10.776 5.09422 11.377C4.29422 11.969 3.64268 12.9191 3.37547 14.3867C3.30125 14.7942 2.90992 15.0644 2.50242 14.9902C2.09537 14.9158 1.82493 14.5254 1.89891 14.1182C2.22755 12.3131 3.0662 11.0117 4.20262 10.1709C5.32691 9.33915 6.68527 9.00005 8.00047 9ZM8.00047 1.00488C9.93343 1.00488 11.5004 2.57193 11.5005 4.50488C11.5005 6.43788 9.93347 8.00488 8.00047 8.00488C6.06761 8.00473 4.50047 6.43778 4.50047 4.50488C4.50052 2.57202 6.06764 1.00504 8.00047 1.00488ZM8.00047 2.50488C6.89606 2.50504 6.00052 3.40045 6.00047 4.50488C6.00047 5.60936 6.89603 6.50473 8.00047 6.50488C9.10504 6.50488 10.0005 5.60945 10.0005 4.50488C10.0004 3.40036 9.10501 2.50488 8.00047 2.50488Z"
    fill="currentColor"
  />
</svg>
