<svg width="32" height="32" viewBox="0 0 32 32" fill="none" xmlns="http://www.w3.org/2000/svg" data-fui-icon="true">
  <path
    d="M16 18.25C18.5944 18.25 21.003 19.0476 22.9971 20.376C23.3418 20.6056 23.4357 21.0713 23.2061 21.416C22.9764 21.7606 22.5107 21.8535 22.166 21.624C20.4051 20.4509 18.2831 19.75 16 19.75C9.90593 19.7501 5 24.7365 5 30.249C4.99989 30.6631 4.66415 30.999 4.25 30.999C3.83591 30.999 3.50011 30.6631 3.5 30.249C3.5 23.8697 9.11645 18.2501 16 18.25ZM29.2197 23.0693C29.5126 22.7767 29.9875 22.7766 30.2803 23.0693C30.5731 23.3621 30.5729 23.837 30.2803 24.1299L23.6504 30.7598C23.5098 30.9004 23.3189 30.9794 23.1201 30.9795C22.9212 30.9795 22.7305 30.9004 22.5898 30.7598L19.7197 27.8896C19.427 27.5967 19.4269 27.1219 19.7197 26.8291C20.0126 26.5366 20.4875 26.5365 20.7803 26.8291L23.1201 29.1689L29.2197 23.0693ZM15.999 1C20.2791 1 23.7489 4.46991 23.749 8.75C23.749 13.0302 20.2792 16.5 15.999 16.5C11.719 16.4998 8.24902 13.0301 8.24902 8.75C8.24916 4.47001 11.719 1.00017 15.999 1ZM15.999 2.5C12.5475 2.50017 9.74916 5.29844 9.74902 8.75C9.74902 12.2017 12.5474 14.9998 15.999 15C19.4508 15 22.249 12.2018 22.249 8.75C22.2489 5.29833 19.4507 2.5 15.999 2.5Z"
    fill="currentColor"
  />
</svg>
