<svg width="24" height="24" viewBox="0 0 24 24" fill="none" xmlns="http://www.w3.org/2000/svg" data-fui-icon="true">
  <path
    fill-rule="evenodd"
    clip-rule="evenodd"
    d="M12.0003 13.5C14.2384 13.5 16.537 14.049 18.4359 15.3877C20.354 16.7402 21.7915 18.8489 22.3577 21.8125C22.4612 22.3548 22.1051 22.8787 21.5628 22.9824C21.0204 23.0859 20.4966 22.7299 20.3929 22.1875C19.9175 19.6991 18.7506 18.0569 17.2835 17.0225C15.7971 15.9745 13.9286 15.5 12.0003 15.5C10.072 15.5 8.20354 15.9745 6.71712 17.0225C5.25001 18.0569 4.08322 19.699 3.60775 22.1875C3.50414 22.7298 2.98013 23.0858 2.43782 22.9824C1.89541 22.8788 1.53938 22.3549 1.6429 21.8125C2.20913 18.8488 3.64653 16.7402 5.56478 15.3877C7.46365 14.049 9.7622 13.5 12.0003 13.5ZM12.0003 1C15.0379 1.00002 17.5003 3.46245 17.5003 6.5C17.5003 9.53755 15.0379 12 12.0003 12C8.96276 12 6.50032 9.53757 6.50032 6.5C6.50032 3.46243 8.96276 1 12.0003 1ZM12.0003 3C10.0673 3 8.50032 4.567 8.50032 6.5C8.50032 8.433 10.0673 10 12.0003 10C13.9333 9.99998 15.5003 8.43298 15.5003 6.5C15.5003 4.56702 13.9333 3.00002 12.0003 3Z"
    fill="currentColor"
  />
</svg>
