<svg width="16" height="16" viewBox="0 0 16 16" fill="none" xmlns="http://www.w3.org/2000/svg" data-fui-icon="true">
  <path
    fill-rule="evenodd"
    clip-rule="evenodd"
    d="M8.00048 9C9.31571 9.00005 10.674 9.33911 11.7983 10.1709C12.9348 11.0117 13.7724 12.3131 14.1011 14.1182C14.1752 14.5256 13.9049 14.916 13.4976 14.9902C13.0902 15.0642 12.6997 14.7941 12.6255 14.3867C12.3583 12.9191 11.7067 11.969 10.9067 11.377C10.0945 10.776 9.0687 10.5 8.00048 10.5C6.93224 10.5 5.90653 10.776 5.09424 11.377C4.29417 11.969 3.64272 12.919 3.37549 14.3867C3.3013 14.7942 2.90988 15.0643 2.50244 14.9902C2.09523 14.9159 1.8249 14.5255 1.89892 14.1182C2.22758 12.313 3.06614 11.0117 4.20263 10.1709C5.32697 9.33917 6.68526 9 8.00048 9ZM8.00048 1.00488C9.93336 1.00499 11.5004 2.57199 11.5005 4.50488C11.5005 6.43781 9.93339 8.00478 8.00048 8.00488C6.06749 8.00488 4.50049 6.43788 4.50049 4.50488C4.50053 2.57193 6.06752 1.00488 8.00048 1.00488ZM8.00048 2.50488C6.89595 2.50488 6.00053 3.40036 6.00048 4.50488C6.00048 5.60945 6.89592 6.50488 8.00048 6.50488C9.10496 6.50478 10.0005 5.60939 10.0005 4.50488C10.0004 3.40042 9.10493 2.50499 8.00048 2.50488Z"
    fill="currentColor"
  />
</svg>
