<svg width="25" height="24" viewBox="0 0 25 24" fill="none" xmlns="http://www.w3.org/2000/svg" data-fui-icon="true">
  <path
    fill-rule="evenodd"
    clip-rule="evenodd"
    d="M11.9992 14C12.3096 14 12.6175 14.0134 12.9211 14.0391C13.4969 14.088 13.8597 14.685 13.633 15.2197C13.3444 15.8998 12.0593 19.3326 13.6174 22.7979C13.8606 23.3388 13.4832 23.9998 12.842 24H5.2492C4.35726 23.9999 3.51699 23.6307 2.96014 23.0156C2.39083 22.3865 2.12203 21.4955 2.42986 20.5576C3.68638 16.7303 7.52283 14.0001 11.9992 14ZM19.3976 13.5C19.8118 13.5001 20.1476 13.8358 20.1476 14.25V15.0742C20.959 15.2389 21.6743 15.6672 22.2033 16.2637L22.9201 15.8506C23.2788 15.6437 23.7375 15.7664 23.9445 16.125C24.1514 16.4836 24.0285 16.9422 23.6701 17.1494L22.9543 17.5615C23.079 17.9351 23.1476 18.3345 23.1476 18.75C23.1476 19.1652 23.0789 19.5642 22.9543 19.9375L23.6701 20.3506C24.0285 20.5578 24.1514 21.0164 23.9445 21.375C23.7375 21.7336 23.2788 21.8563 22.9201 21.6494L22.2033 21.2354C21.6743 21.8321 20.9592 22.26 20.1476 22.4248V23.25C20.1476 23.6642 19.8118 23.9999 19.3976 24C18.9834 24 18.6476 23.6642 18.6476 23.25V22.4248C17.8356 22.26 17.1191 21.8326 16.59 21.2354L15.8752 21.6494C15.5165 21.8564 15.0578 21.7336 14.8508 21.375C14.6438 21.0164 14.7667 20.5578 15.1252 20.3506L15.84 19.9365C15.7157 19.5635 15.6476 19.1648 15.6476 18.75C15.6476 18.3349 15.7155 17.9357 15.84 17.5625L15.1252 17.1494C14.7667 16.9423 14.6438 16.4836 14.8508 16.125C15.0578 15.7663 15.5165 15.6436 15.8752 15.8506L16.59 16.2637C17.1191 15.6667 17.8358 15.239 18.6476 15.0742V14.25C18.6476 13.8358 18.9834 13.5 19.3976 13.5ZM19.3976 16.5C18.155 16.5 17.1476 17.5074 17.1476 18.75C17.1476 19.9926 18.155 21 19.3976 21C20.6402 20.9999 21.6476 19.9926 21.6476 18.75C21.6476 17.5074 20.6402 16.5001 19.3976 16.5ZM11.9992 0C15.451 0 18.2492 2.79822 18.2492 6.25C18.2492 9.70178 15.451 12.5 11.9992 12.5C8.54752 12.4999 5.7492 9.70171 5.7492 6.25C5.7492 2.79829 8.54752 0.000113646 11.9992 0Z"
    fill="currentColor"
  />
</svg>
