<svg width="20" height="20" viewBox="0 0 20 20" fill="none" xmlns="http://www.w3.org/2000/svg" data-fui-icon="true">
  <path
    fill-rule="evenodd"
    clip-rule="evenodd"
    d="M9.99978 11.5C11.7826 11.5 13.6111 11.9372 15.1199 13.001C16.6432 14.075 17.7854 15.7503 18.2361 18.1094C18.3138 18.5162 18.0472 18.9086 17.6404 18.9863C17.2336 19.064 16.8412 18.7974 16.7635 18.3906C16.3808 16.3879 15.4397 15.063 14.2547 14.2275C13.0552 13.3819 11.5501 13 9.99978 13C8.44943 13 6.94433 13.3819 5.7449 14.2275C4.55993 15.063 3.61874 16.3879 3.23611 18.3906C3.15838 18.7975 2.76599 19.064 2.35916 18.9863C1.95237 18.9086 1.68577 18.5162 1.76345 18.1094C2.21414 15.7504 3.35643 14.075 4.87967 13.001C6.38849 11.9372 8.21694 11.5 9.99978 11.5ZM9.9949 1C12.4111 1 14.3699 2.95875 14.3699 5.375C14.3699 7.79125 12.4111 9.75 9.9949 9.75C7.57867 9.74998 5.6199 7.79124 5.6199 5.375C5.6199 2.95876 7.57867 1.00002 9.9949 1ZM9.9949 2.5C8.40709 2.50002 7.1199 3.78719 7.1199 5.375C7.1199 6.96281 8.40709 8.24998 9.9949 8.25C11.5827 8.25 12.8699 6.96282 12.8699 5.375C12.8699 3.78718 11.5827 2.5 9.9949 2.5Z"
    fill="currentColor"
  />
</svg>
