<svg width="20" height="20" viewBox="0 0 20 20" fill="none" xmlns="http://www.w3.org/2000/svg" data-fui-icon="true">
  <path
    fill-rule="evenodd"
    clip-rule="evenodd"
    d="M10.0003 11C11.8242 11 13.6533 11.4486 15.1575 12.5605C16.6767 13.6837 17.7753 15.418 18.2327 17.8125C18.3362 18.3548 17.9801 18.8787 17.4378 18.9824C16.8954 19.0859 16.3715 18.7299 16.2679 18.1875C15.8921 16.2206 15.0319 14.9544 13.9681 14.168C12.8892 13.3707 11.5094 13 10.0003 13C8.49121 13 7.11146 13.3707 6.03255 14.168C4.96866 14.9544 4.10858 16.2205 3.73275 18.1875C3.62913 18.7298 3.10516 19.0858 2.56282 18.9824C2.02041 18.8788 1.66438 18.3549 1.7679 17.8125C2.22539 15.4179 3.32391 13.6836 4.8431 12.5605C6.34742 11.4487 8.17642 11 10.0003 11ZM10.0003 1C12.4856 1.00003 14.5003 3.01474 14.5003 5.5C14.5003 7.98526 12.4856 9.99997 10.0003 10C7.51504 10 5.50032 7.98528 5.50032 5.5C5.50032 3.01472 7.51504 1 10.0003 1ZM10.0003 3C8.61961 3 7.50032 4.11929 7.50032 5.5C7.50032 6.88071 8.61961 8 10.0003 8C11.381 7.99997 12.5003 6.88069 12.5003 5.5C12.5003 4.11931 11.381 3.00003 10.0003 3Z"
    fill="currentColor"
  />
</svg>
