<svg width="16" height="16" viewBox="0 0 16 16" fill="none" xmlns="http://www.w3.org/2000/svg" data-fui-icon="true">
  <path
    d="M8 8.5C11.839 8.5 15 11.5217 15 15.25C15 15.6642 14.6642 16 14.25 16C13.8358 16 13.5 15.6642 13.5 15.25C13.5 12.4031 11.0646 10 8 10C4.93545 10 2.5 12.4031 2.5 15.25C2.5 15.6642 2.16421 16 1.75 16C1.33579 16 1 15.6642 1 15.25C1 11.5217 4.16099 8.5 8 8.5ZM8 0C10.2091 0 12 1.79086 12 4C12 6.20914 10.2091 8 8 8C5.79086 8 4 6.20914 4 4C4 1.79086 5.79086 0 8 0ZM8 1.5C6.61929 1.5 5.5 2.61929 5.5 4C5.5 5.38071 6.61929 6.5 8 6.5C9.38071 6.5 10.5 5.38071 10.5 4C10.5 2.61929 9.38071 1.5 8 1.5Z"
    fill="currentColor"
  />
</svg>
