<svg width="16" height="16" viewBox="0 0 16 16" fill="none" xmlns="http://www.w3.org/2000/svg" data-fui-icon="true">
  <path
    fill-rule="evenodd"
    clip-rule="evenodd"
    d="M8.00008 9C9.31238 9 10.6872 9.30584 11.8389 10.0791C13.0126 10.8672 13.8886 12.0991 14.2305 13.8037C14.3389 14.3451 13.9877 14.8719 13.4464 14.9805C12.9051 15.0886 12.3782 14.7375 12.2696 14.1963C12.0282 12.9932 11.4458 12.2241 10.7237 11.7393C9.97971 11.2399 9.02077 11 8.00008 11C6.97941 11.0001 6.0204 11.2398 5.27645 11.7393C4.5545 12.2241 3.97195 12.9933 3.73055 14.1963C3.62192 14.7376 3.09513 15.0889 2.55379 14.9805C2.01263 14.8717 1.66129 14.3449 1.76961 13.8037C2.11154 12.0992 2.98764 10.8672 4.16121 10.0791C5.31286 9.30579 6.6878 9.00005 8.00008 9ZM8.00008 1C9.93308 1 11.5001 2.567 11.5001 4.5C11.5001 6.433 9.93308 8 8.00008 8C6.06721 7.99985 4.50008 6.4329 4.50008 4.5C4.50008 2.5671 6.06721 1.00015 8.00008 1ZM8.00008 3C7.17178 3.00015 6.50008 3.67167 6.50008 4.5C6.50008 5.32833 7.17178 5.99985 8.00008 6C8.82851 6 9.50008 5.32843 9.50008 4.5C9.50008 3.67157 8.82851 3 8.00008 3Z"
    fill="currentColor"
  />
</svg>
