<svg width="12" height="12" viewBox="0 0 12 12" fill="none" xmlns="http://www.w3.org/2000/svg" data-fui-icon="true">
  <path
    d="M6 6.5C9.2239 6.5 11.5 8.84187 11.5 11.25C11.5 11.6642 11.1642 12 10.75 12C10.3358 12 10 11.6642 10 11.25C10 9.79213 8.5228 8 6 8C3.4772 8 2 9.79213 2 11.25C2 11.6642 1.66421 12 1.25 12C0.835786 12 0.5 11.6642 0.5 11.25C0.5 8.84187 2.7761 6.5 6 6.5ZM6 0C7.65685 0 9 1.34315 9 3C9 4.65685 7.65685 6 6 6C4.34315 6 3 4.65685 3 3C3 1.34315 4.34315 0 6 0ZM6 1.5C5.17157 1.5 4.5 2.17157 4.5 3C4.5 3.82843 5.17157 4.5 6 4.5C6.82843 4.5 7.5 3.82843 7.5 3C7.5 2.17157 6.82843 1.5 6 1.5Z"
    fill="currentColor"
  />
</svg>
