<svg width="20" height="20" viewBox="0 0 20 20" fill="none" xmlns="http://www.w3.org/2000/svg" data-fui-icon="true">
  <path
    d="M10 11.75C10.9579 11.75 11.879 11.905 12.7354 12.1875C13.1285 12.3174 13.3416 12.7415 13.2119 13.1348C13.0822 13.5281 12.658 13.742 12.2646 13.6123C11.5572 13.379 10.7951 13.25 10 13.25C6.18525 13.25 3.25 15.88 3.25 19.25C3.25 19.6642 2.91419 20 2.5 20C2.08579 20 1.75 19.6642 1.75 19.25C1.75 14.888 5.53048 11.75 10 11.75ZM17.7197 14.4697C18.0126 14.1768 18.4874 14.1768 18.7803 14.4697C19.0732 14.7626 19.0732 15.2374 18.7803 15.5303L14.5303 19.7803C14.2374 20.0732 13.7626 20.0732 13.4697 19.7803L11.7197 18.0303C11.4268 17.7374 11.4268 17.2626 11.7197 16.9697C12.0126 16.6768 12.4874 16.6768 12.7803 16.9697L14 18.1895L17.7197 14.4697ZM10 0C12.8995 3.0668e-05 15.25 2.35052 15.25 5.25C15.2498 8.14934 12.8994 10.5 10 10.5C7.10061 10.5 4.75016 8.14935 4.75 5.25C4.75 2.35051 7.1005 0 10 0ZM10 1.5C7.92893 1.5 6.25 3.17893 6.25 5.25C6.25016 7.32093 7.92903 9 10 9C12.0709 8.99997 13.7498 7.32091 13.75 5.25C13.75 3.17895 12.071 1.50003 10 1.5Z"
    fill="currentColor"
  />
</svg>
