<svg width="32" height="32" viewBox="0 0 32 32" fill="none" xmlns="http://www.w3.org/2000/svg" data-fui-icon="true">
  <path
    fill-rule="evenodd"
    clip-rule="evenodd"
    d="M16.0003 18C19.5745 18.0001 22.5027 18.8525 24.7816 20.5664C27.0598 22.28 28.5905 24.7806 29.5081 27.8936C29.9894 29.5268 28.6934 30.9998 27.1214 31H4.87923C3.30709 31 2.01109 29.527 2.49251 27.8936C3.41018 24.7806 4.9407 22.28 7.21908 20.5664C9.49803 18.8526 12.4261 18 16.0003 18ZM16.0003 1C20.1423 1.00017 23.5003 4.35797 23.5003 8.5C23.5003 12.642 20.1423 15.9998 16.0003 16C11.8582 16 8.50033 12.6421 8.50033 8.5C8.50033 4.35786 11.8582 1 16.0003 1Z"
    fill="currentColor"
  />
</svg>
