<svg width="20" height="20" viewBox="0 0 20 20" fill="none" xmlns="http://www.w3.org/2000/svg" data-fui-icon="true">
  <path
    fill-rule="evenodd"
    clip-rule="evenodd"
    d="M9.94107 11.7568C10.5074 11.8206 10.8439 12.4218 10.6256 12.9385C10.3931 13.4879 9.52159 15.8999 10.6471 18.8438C10.8515 19.3789 10.4724 19.9998 9.85318 20H4.50064C3.74668 20 3.03349 19.6884 2.55728 19.1641C2.06864 18.626 1.83293 17.8586 2.09439 17.0508C3.11115 13.9106 6.22353 11.8177 9.82486 11.752L9.94107 11.7568ZM15.9977 11C16.4118 11.0001 16.7477 11.3358 16.7477 11.75V12.3379C17.3749 12.4861 17.93 12.8174 18.3581 13.2705L18.8698 12.9756C19.2285 12.7685 19.6881 12.8913 19.8952 13.25C20.1021 13.6087 19.9784 14.0673 19.6198 14.2744L19.111 14.5674C19.1994 14.8629 19.2477 15.1758 19.2477 15.5C19.2477 15.8239 19.1992 16.1364 19.111 16.4316L19.6198 16.7256C19.9784 16.9327 20.1021 17.3913 19.8952 17.75C19.6881 18.1087 19.2285 18.2315 18.8698 18.0244L18.3581 17.7285C17.93 18.1818 17.3751 18.5128 16.7477 18.6611V19.25C16.7477 19.6642 16.4118 19.9999 15.9977 20C15.5835 20 15.2477 19.6642 15.2477 19.25V18.6611C14.6201 18.5128 14.0646 18.1821 13.6364 17.7285L13.1247 18.0244C12.766 18.2313 12.3073 18.1086 12.1002 17.75C11.8933 17.3914 12.0162 16.9328 12.3747 16.7256L12.8835 16.4307C12.7955 16.1358 12.7477 15.8235 12.7477 15.5C12.7477 15.1762 12.7953 14.8635 12.8835 14.5684L12.3747 14.2744C12.0162 14.0672 11.8933 13.6086 12.1002 13.25C12.3073 12.8914 12.766 12.7687 13.1247 12.9756L13.6364 13.2705C14.0646 12.8172 14.6202 12.4861 15.2477 12.3379V11.75C15.2477 11.3358 15.5835 11 15.9977 11ZM15.9977 13.75C15.0312 13.75 14.2477 14.5335 14.2477 15.5C14.2477 16.4665 15.0312 17.25 15.9977 17.25C16.9641 17.2499 17.7477 16.4664 17.7477 15.5C17.7477 14.5336 16.9641 13.7501 15.9977 13.75ZM10.0006 0C12.9001 4.45845e-05 15.2506 2.35053 15.2506 5.25C15.2505 8.14933 12.9 10.5 10.0006 10.5C7.10125 10.5 4.75081 8.14935 4.75064 5.25C4.75064 2.35051 7.10115 0 10.0006 0Z"
    fill="currentColor"
  />
</svg>
