<svg width="16" height="16" viewBox="0 0 16 16" fill="none" xmlns="http://www.w3.org/2000/svg" data-fui-icon="true">
  <path
    fill-rule="evenodd"
    clip-rule="evenodd"
    d="M8.00067 9C10.3568 9.00003 12.9477 10.0129 13.9645 12.8379C14.3876 14.0134 13.4115 14.9999 12.3962 15H3.60516C2.58983 15 1.61372 14.0135 2.0368 12.8379L2.13739 12.5781C3.21609 9.95066 5.71823 9 8.00067 9ZM8.00067 11C6.35104 11 4.89224 11.6067 4.15009 13H11.8513C11.1091 11.6067 9.65028 11 8.00067 11ZM8.00067 1C9.9336 1.00008 11.5007 2.56705 11.5007 4.5C11.5007 6.43295 9.9336 7.99992 8.00067 8C6.06768 8 4.50067 6.433 4.50067 4.5C4.50067 2.567 6.06768 1 8.00067 1ZM8.00067 3C7.17224 3 6.50067 3.67157 6.50067 4.5C6.50067 5.32843 7.17224 6 8.00067 6C8.82903 5.99992 9.50067 5.32838 9.50067 4.5C9.50067 3.67162 8.82903 3.00008 8.00067 3Z"
    fill="currentColor"
  />
</svg>
