<svg width="32" height="32" viewBox="0 0 32 32" fill="none" xmlns="http://www.w3.org/2000/svg" data-fui-icon="true">
  <path
    d="M25.5 19.75C25.9142 19.75 26.25 20.0858 26.25 20.5V21.3164C27.2453 21.4936 28.1197 22.0178 28.7461 22.7588L29.4551 22.3506C29.8138 22.1435 30.2724 22.2664 30.4795 22.625C30.6866 22.9837 30.5638 23.4423 30.2051 23.6494L29.498 24.0566C29.6608 24.5073 29.75 24.9932 29.75 25.5C29.75 26.0065 29.6606 26.4919 29.498 26.9424L30.2051 27.3506C30.5638 27.5577 30.6866 28.0163 30.4795 28.375C30.2723 28.7336 29.8137 28.8565 29.4551 28.6494L28.7461 28.2402C28.1197 28.9815 27.2455 29.5053 26.25 29.6826V30.5C26.25 30.9142 25.9142 31.25 25.5 31.25C25.0858 31.25 24.75 30.9142 24.75 30.5V29.6826C23.7543 29.5053 22.8793 28.9817 22.2529 28.2402L21.5449 28.6494C21.1862 28.8565 20.7276 28.7337 20.5205 28.375C20.3134 28.0163 20.4363 27.5577 20.7949 27.3506L21.501 26.9424C21.3385 26.492 21.25 26.0064 21.25 25.5C21.25 24.9933 21.3383 24.5072 21.501 24.0566L20.7949 23.6494C20.4363 23.4423 20.3134 22.9837 20.5205 22.625C20.7276 22.2663 21.1862 22.1435 21.5449 22.3506L22.2529 22.7588C22.8793 22.0176 23.7545 21.4937 24.75 21.3164V20.5C24.75 20.0858 25.0858 19.75 25.5 19.75ZM15.6494 18.7324C16.9874 18.7324 18.1358 18.8568 19.5215 19.2832C19.9168 19.4053 20.1391 19.8252 20.0176 20.2207C19.8957 20.6162 19.4757 20.8382 19.0801 20.7168C17.866 20.3432 16.8711 20.2324 15.6494 20.2324C9.51189 20.2325 4.65055 24.7777 4.65039 30.249C4.65015 30.6629 4.31427 30.9988 3.90039 30.999C3.48633 30.999 3.15063 30.663 3.15039 30.249C3.15055 23.8287 8.80951 18.7325 15.6494 18.7324ZM25.5 22.75C23.9812 22.75 22.75 23.9812 22.75 25.5C22.75 27.0188 23.9812 28.25 25.5 28.25C27.0188 28.25 28.25 27.0188 28.25 25.5C28.25 23.9812 27.0188 22.75 25.5 22.75ZM16 1C20.2799 1.00026 23.7499 4.47006 23.75 8.75C23.75 13.03 20.28 16.4997 16 16.5C11.7198 16.5 8.25 13.0302 8.25 8.75C8.25013 4.46991 11.7199 1 16 1ZM16 2.5C12.5483 2.5 9.75013 5.29833 9.75 8.75C9.75 12.2018 12.5482 15 16 15C19.4516 14.9997 22.25 12.2016 22.25 8.75C22.2499 5.29849 19.4515 2.50026 16 2.5Z"
    fill="currentColor"
  />
</svg>
