<svg width="20" height="20" viewBox="0 0 20 20" fill="none" xmlns="http://www.w3.org/2000/svg" data-fui-icon="true">
  <path
    d="M10 11C14.3392 11 18 14.171 18 18.25C18 18.6642 17.6642 19 17.25 19C16.8358 19 16.5 18.6642 16.5 18.25C16.5 15.1493 13.669 12.5 10 12.5C6.33103 12.5 3.5 15.1493 3.5 18.25C3.5 18.6642 3.16421 19 2.75 19C2.33579 19 2 18.6642 2 18.25C2 14.171 5.66085 11 10 11ZM10 1C12.4853 1 14.5 3.01472 14.5 5.5C14.5 7.98528 12.4853 10 10 10C7.51472 10 5.5 7.98528 5.5 5.5C5.5 3.01472 7.51472 1 10 1ZM10 2.5C8.34315 2.5 7 3.84315 7 5.5C7 7.15685 8.34315 8.5 10 8.5C11.6569 8.5 13 7.15685 13 5.5C13 3.84315 11.6569 2.5 10 2.5Z"
    fill="currentColor"
  />
</svg>
