<svg width="12" height="12" viewBox="0 0 12 12" fill="none" xmlns="http://www.w3.org/2000/svg" data-fui-icon="true">
  <path
    fill-rule="evenodd"
    clip-rule="evenodd"
    d="M6.00014 6.99972C7.08158 6.99972 8.2439 7.20075 9.22266 7.8405C10.2267 8.49701 10.9558 9.56234 11.2382 11.1158C11.312 11.5231 11.0411 11.9137 10.6337 11.9878C10.2265 12.0614 9.83575 11.7906 9.7617 11.3833C9.54415 10.1874 9.02302 9.50221 8.40239 9.09631C7.75637 8.67402 6.91828 8.49965 6.00014 8.49965C5.08202 8.4997 4.24386 8.67395 3.59789 9.09631C2.97737 9.50224 2.45609 10.1875 2.23857 11.3833C2.16448 11.7907 1.77388 12.0616 1.36654 11.9878C0.959393 11.9136 0.688309 11.523 0.762071 11.1158C1.04449 9.56245 1.77366 8.49703 2.77761 7.8405C3.75632 7.20069 4.9187 6.99976 6.00014 6.99972ZM6.00014 0C7.65693 0 9.00002 1.34309 9.00002 2.99988C9.00002 4.65666 7.65693 5.99976 6.00014 5.99976C4.34353 5.99955 3.00026 4.65654 3.00026 2.99988C3.00026 1.34322 4.34353 0.000205233 6.00014 0ZM6.00014 1.49994C5.17192 1.50014 4.5002 2.17161 4.5002 2.99988C4.5002 3.82814 5.17192 4.49961 6.00014 4.49982C6.82853 4.49982 7.50008 3.82827 7.50008 2.99988C7.50008 2.17148 6.82853 1.49994 6.00014 1.49994Z"
    fill="currentColor"
  />
</svg>
