<svg width="24" height="24" viewBox="0 0 24 24" fill="none" xmlns="http://www.w3.org/2000/svg" data-fui-icon="true">
  <path
    d="M21.559 0.776023C21.6392 0.760346 21.7209 0.795614 21.7633 0.865476C22.5602 2.18027 22.9205 3.54207 22.9205 5.2495C22.9205 10.8277 18.0148 18.066 14.0049 23.1753C13.9675 23.2229 13.9109 23.25 13.8503 23.25H4.92918C4.83316 23.25 4.75108 23.1809 4.7347 23.0863L1.11655 2.18797C1.0969 2.07444 1.17827 1.96828 1.293 1.95776L8.93143 1.25725C9.03719 1.24755 9.13166 1.32327 9.14521 1.42861L10.9985 15.8355C11.0221 16.0186 11.2601 16.072 11.3567 15.9146C13.1163 13.0469 15.1328 8.85369 15.1328 5.9464C15.1328 4.40361 14.8815 3.31282 14.4796 2.41541C14.4265 2.29665 14.4955 2.1572 14.6231 2.13223L21.559 0.776023Z"
    fill="currentColor"
    stroke="currentColor"
    stroke-width="1.5"
  />
</svg>
