<svg width="16" height="16" viewBox="0 0 16 16" fill="none" xmlns="http://www.w3.org/2000/svg" data-fui-icon="true">
  <path
    d="M14.1604 0.76677C14.2121 0.756668 14.2648 0.779396 14.2921 0.824418C14.8056 1.67173 15.0378 2.54933 15.0378 3.64968C15.0378 7.24449 11.8764 11.9092 9.29223 15.2018C9.26814 15.2325 9.23162 15.25 9.1926 15.25H3.44342C3.38155 15.25 3.32865 15.2055 3.31809 15.1445L0.986398 1.67669C0.973731 1.60353 1.02617 1.53511 1.10011 1.52833L6.02265 1.07689C6.09081 1.07064 6.15169 1.11944 6.16042 1.18733L7.35477 10.4718C7.36996 10.5898 7.52336 10.6242 7.5856 10.5228C8.71956 8.67467 10.0191 5.97238 10.0191 4.09879C10.0191 3.10455 9.85712 2.4016 9.59816 1.82326C9.56389 1.74673 9.60835 1.65686 9.69065 1.64077L14.1604 0.76677Z"
    stroke="currentColor"
    stroke-width="1.5"
  />
</svg>
