<svg width="20" height="20" viewBox="0 0 20 20" fill="none" xmlns="http://www.w3.org/2000/svg" data-fui-icon="true">
  <path
    d="M17.8597 0.771397C17.9256 0.758507 17.9929 0.787505 18.0277 0.844947C18.6829 1.926 18.9791 3.0457 18.9791 4.44959C18.9791 9.03608 14.9456 14.9876 11.6486 19.1886C11.6178 19.2277 11.5712 19.25 11.5215 19.25H4.1863C4.10735 19.25 4.03986 19.1932 4.0264 19.1154L1.05148 1.93233C1.03531 1.83899 1.10222 1.7517 1.19656 1.74305L7.47704 1.16707C7.564 1.1591 7.64167 1.22136 7.65282 1.30797L9.17665 13.1536C9.19602 13.3042 9.39173 13.3481 9.47114 13.2187C10.9179 10.8608 12.576 7.41303 12.576 5.02259C12.576 3.75408 12.3693 2.85721 12.0389 2.11933C11.9952 2.02169 12.0519 1.90703 12.1569 1.8865L17.8597 0.771397Z"
    fill="currentColor"
    stroke="currentColor"
    stroke-width="1.5"
  />
</svg>
