<svg width="32" height="32" viewBox="0 0 32 32" fill="none" xmlns="http://www.w3.org/2000/svg" data-fui-icon="true">
  <path
    d="M28.108 1.78296C28.2095 1.76311 28.3131 1.80778 28.3667 1.89627C29.3761 3.56167 29.8325 5.28662 29.8325 7.44937C29.8325 14.515 23.6186 23.6836 18.5394 30.1553C18.4921 30.2157 18.4203 30.25 18.3436 30.25H7.04349C6.92188 30.25 6.8179 30.1625 6.79716 30.0426L2.21417 3.57143C2.18927 3.42763 2.29234 3.29316 2.43768 3.27983L12.113 2.39251C12.247 2.38023 12.3666 2.47615 12.3838 2.60957L14.7313 20.8583C14.7612 21.0903 15.0627 21.1579 15.185 20.9585C17.4138 17.3261 19.9681 12.0147 19.9681 8.3321C19.9681 6.3779 19.6497 4.99624 19.1407 3.85952C19.0734 3.7091 19.1608 3.53245 19.3225 3.50082L28.108 1.78296Z"
    fill="currentColor"
    stroke="currentColor"
    stroke-width="1.5"
  />
</svg>
