<svg
  width="24"
  height="24"
  viewBox="0 0 24 24"
  fill="none"
  xmlns="http://www.w3.org/2000/svg"
  data-fui-icon="true"
>
  <path
    fill-rule="evenodd"
    clip-rule="evenodd"
    d="M3.61986 8.49997L9.09293 3.02691C9.10174 3.0181 9.11028 3.00913 9.11856 3H13.7485L8.24854 8.49997H3.61986ZM1.49854 8.49997H1V6.5625C1 4.59499 2.59499 3 4.5625 3H6.99852L1.49854 8.49997ZM23 8.49997H16.9794L21.6829 3.79653C22.4865 4.44973 23 5.44615 23 6.5625V8.49997ZM19.4375 3C19.7214 3 19.9975 3.0332 20.2621 3.09593L14.8581 8.49997H10.3699L15.8429 3.02691C15.8517 3.0181 15.8603 3.00913 15.8686 3H19.4375ZM23 9.99997H1V17.4375C1 19.405 2.59499 21 4.5625 21H19.4375C21.405 21 23 19.405 23 17.4375V9.99997ZM9.48749 18.3105V12.4676C9.48749 12.1797 9.79835 11.9992 10.0483 12.1419L15.1937 15.0779C15.4465 15.2221 15.4457 15.5869 15.1923 15.7301L10.047 18.637C9.79697 18.7783 9.48749 18.5977 9.48749 18.3105Z"
    fill="currentColor"
  />
</svg>
