<svg width="16" height="16" viewBox="0 0 16 16" fill="none" xmlns="http://www.w3.org/2000/svg" data-fui-icon="true">
  <path
    d="M16 11.8666C16 13.2657 14.8659 14.3997 13.4668 14.3998H2.5332C1.13414 14.3997 0 13.2657 0 11.8666V6.25037H16V11.8666ZM6.69922 7.9613C6.53263 7.86624 6.32537 7.98636 6.3252 8.1781V12.1459C6.3253 12.3372 6.53163 12.4578 6.69824 12.3636L10.1914 10.39C10.3604 10.2946 10.3609 10.0506 10.1924 9.95447L6.69922 7.9613ZM1.27734 5.00037H0V4.13318C7.17651e-05 2.73416 1.13419 1.60005 2.5332 1.59998H4.67773L1.27734 5.00037ZM5.77734 5.00037H3.04492L6.40039 1.6449C6.41428 1.63099 6.4252 1.61481 6.4375 1.59998H9.17773L5.77734 5.00037ZM13.5781 1.60486L10.1836 5.00037H7.54492L10.9004 1.6449C10.9143 1.63099 10.9252 1.61481 10.9375 1.59998H13.4668C13.5041 1.59998 13.5412 1.60326 13.5781 1.60486ZM14.9033 2.04724C15.5656 2.50419 16 3.26773 16 4.13318V5.00037H11.9512L14.9033 2.04724Z"
    fill="currentColor"
  />
</svg>
