<svg
  width="16"
  height="16"
  viewBox="0 0 16 16"
  fill="none"
  xmlns="http://www.w3.org/2000/svg"
  data-fui-icon="true"
>
  <path
    fill-rule="evenodd"
    clip-rule="evenodd"
    d="M3.04547 5.00004H5.77771L9.17771 1.60004H6.44133C6.42854 1.61557 6.41488 1.63063 6.40035 1.64516L3.04547 5.00004ZM7.54547 5.00004H10.184L13.5815 1.60259C13.5434 1.60089 13.5051 1.60004 13.4667 1.60004H10.9413C10.9285 1.61557 10.9149 1.63063 10.9004 1.64516L7.54547 5.00004ZM11.9518 5.00004H16V4.13337C16 3.26823 15.5663 2.50437 14.9045 2.04733L11.9518 5.00004ZM16 6.25004H0V11.8667C0 13.2658 1.13421 14.4 2.53333 14.4H13.4667C14.8658 14.4 16 13.2658 16 11.8667V6.25004ZM1.27771 5.00004H0V4.13337C0 2.73425 1.13421 1.60004 2.53333 1.60004H4.67771L1.27771 5.00004ZM6.325 8.17841V12.1458C6.325 12.3372 6.53131 12.4576 6.69797 12.3635L10.1916 10.3896C10.3606 10.2942 10.3611 10.051 10.1926 9.95483L6.6989 7.96127C6.53224 7.86617 6.325 7.98652 6.325 8.17841Z"
    fill="currentColor"
  />
</svg>
