<svg width="16" height="16" viewBox="0 0 16 16" fill="none" xmlns="http://www.w3.org/2000/svg" data-fui-icon="true">
  <path
    d="M6.5498 1.46216C7.69 0.442243 9.49995 1.25165 9.5 2.78149V13.219C9.49977 14.7487 7.68994 15.558 6.5498 14.5383L3.92676 12.1917C3.78924 12.0686 3.61128 12.0002 3.42676 12.0002H2.25C1.00743 12.0002 0.000121755 10.9928 0 9.75024V6.25024C3.35017e-06 5.00761 1.00736 4.00024 2.25 4.00024H3.42676C3.61124 4.00024 3.78926 3.93182 3.92676 3.80884L6.5498 1.46216ZM14.7197 5.96997C15.0126 5.67708 15.4874 5.67708 15.7803 5.96997C16.0731 6.26287 16.0731 6.73766 15.7803 7.03052L14.8105 8.00024L15.7803 8.96997C16.0731 9.26287 16.0731 9.73766 15.7803 10.0305C15.4874 10.3233 15.0126 10.3233 14.7197 10.0305L13.75 9.06079L12.7803 10.0305C12.4874 10.3233 12.0126 10.3233 11.7197 10.0305C11.4269 9.73766 11.4269 9.26287 11.7197 8.96997L12.6895 8.00024L11.7197 7.03052C11.4269 6.73766 11.4269 6.26287 11.7197 5.96997C12.0126 5.67708 12.4874 5.67708 12.7803 5.96997L13.75 6.9397L14.7197 5.96997Z"
    fill="currentColor"
  />
</svg>
