<svg width="32" height="32" viewBox="0 0 32 32" fill="none" xmlns="http://www.w3.org/2000/svg" data-fui-icon="true">
  <path
    fill-rule="evenodd"
    clip-rule="evenodd"
    d="M13.9961 2.80927C15.9276 1.07602 18.9998 2.44754 19 5.04267V26.9577C18.9997 29.5528 15.9275 30.9235 13.9961 29.1901L8.85449 24.5749C8.44172 24.2045 7.90614 23.9998 7.35156 23.9997H4.75C2.67893 23.9997 1 22.3208 1 20.2497V11.7497C1.00018 9.67878 2.67904 7.9997 4.75 7.9997H7.35156C7.90619 7.99961 8.44171 7.79495 8.85449 7.4245L13.9961 2.80927ZM26.2002 6.23896C26.482 5.93574 26.9573 5.91827 27.2607 6.19989L26.8584 6.63349C27.2295 6.23392 27.2583 6.20303 27.2607 6.20087H27.2617L27.2627 6.20282C27.2637 6.20372 27.2653 6.20456 27.2666 6.20575C27.2696 6.20856 27.2737 6.21307 27.2783 6.21747C27.2876 6.22631 27.3001 6.23848 27.3154 6.2536C27.3465 6.28426 27.3899 6.32823 27.4434 6.38446C27.5505 6.49702 27.6998 6.66076 27.876 6.8747C28.2282 7.30245 28.6921 7.93318 29.1543 8.75849C30.0798 10.4112 30.9999 12.8489 31 15.9997C31 19.1505 30.0798 21.5881 29.1543 23.2409C28.6921 24.0663 28.2282 24.6969 27.876 25.1247C27.6998 25.3386 27.5505 25.5023 27.4434 25.6149C27.3899 25.6711 27.3465 25.7151 27.3154 25.7458C27.3001 25.7609 27.2876 25.7731 27.2783 25.7819C27.2737 25.7863 27.2696 25.7908 27.2666 25.7936C27.2653 25.7949 27.2637 25.7957 27.2627 25.7966L27.2617 25.7985H27.2607C27.257 25.795 27.2163 25.7518 26.75 25.2497L27.2607 25.7995C26.9573 26.0813 26.4821 26.0639 26.2002 25.7604C25.9185 25.4569 25.9368 24.9817 26.2402 24.6999L26.2412 24.6979C26.2452 24.6942 26.2528 24.6872 26.2627 24.6774C26.2828 24.6576 26.3154 24.6259 26.3574 24.5817C26.4417 24.4932 26.5661 24.3558 26.7178 24.1716C27.0217 23.8025 27.4331 23.2452 27.8457 22.5085C28.6701 21.0362 29.5 18.8483 29.5 15.9997C29.4999 13.151 28.6701 10.9631 27.8457 9.49091C27.4331 8.75417 27.0217 8.19684 26.7178 7.82782C26.5661 7.64361 26.4416 7.50619 26.3574 7.41767C26.3154 7.3735 26.2828 7.34179 26.2627 7.32196C26.253 7.3124 26.2462 7.30526 26.2422 7.30146C26.2414 7.3006 26.2408 7.29902 26.2402 7.29853C25.9369 7.01665 25.9184 6.54241 26.2002 6.23896ZM22.9238 11.2692C23.189 10.9514 23.6624 10.9086 23.9805 11.1735L23.8984 11.2722C23.9673 11.1898 23.9785 11.1765 23.9805 11.1745H23.9814L23.9863 11.1794C23.9888 11.1814 23.992 11.1836 23.9951 11.1862C24.0015 11.1917 24.0095 11.1986 24.0186 11.2067C24.0367 11.2231 24.0602 11.2451 24.0879 11.2722C24.1438 11.3267 24.2182 11.4039 24.3037 11.5036C24.4749 11.7033 24.6933 11.9964 24.9082 12.3903C25.3405 13.1829 25.7499 14.3688 25.75 15.9997C25.75 17.6305 25.3405 18.8164 24.9082 19.6091C24.6933 20.003 24.4749 20.2961 24.3037 20.4958C24.2183 20.5955 24.1448 20.6727 24.0889 20.7272C24.061 20.7545 24.0368 20.7762 24.0186 20.7927C24.0096 20.8008 24.0015 20.8077 23.9951 20.8132C23.992 20.8159 23.9888 20.818 23.9863 20.82L23.9814 20.8249H23.9805C23.9758 20.82 23.9322 20.7682 23.5 20.2497L23.9805 20.8259C23.6623 21.091 23.1891 21.0482 22.9238 20.7302C22.6606 20.4142 22.7014 19.9455 23.0137 19.6794L23.0146 19.6774C23.0184 19.674 23.0272 19.6656 23.04 19.653C23.0661 19.6275 23.1101 19.5833 23.165 19.5192C23.275 19.3908 23.4319 19.1834 23.5918 18.8903C23.9094 18.3079 24.25 17.3681 24.25 15.9997C24.25 14.6313 23.9094 13.6914 23.5918 13.1091C23.4319 12.816 23.275 12.6085 23.165 12.4802C23.1104 12.4164 23.0671 12.3719 23.041 12.3464C23.0281 12.3337 23.0183 12.3253 23.0146 12.322C23.0133 12.3207 23.0132 12.3198 23.0137 12.32C22.7015 12.0538 22.6605 11.5852 22.9238 11.2692Z"
    fill="currentColor"
  />
</svg>
