<svg width="32" height="32" viewBox="0 0 32 32" fill="none" xmlns="http://www.w3.org/2000/svg" data-fui-icon="true">
  <path
    fill-rule="evenodd"
    clip-rule="evenodd"
    d="M13.9961 2.80987C15.9276 1.07644 19 2.44797 19 5.04327V26.9583C18.9995 29.5531 15.9275 30.9238 13.9961 29.1907L8.85449 24.5755C8.44171 24.2051 7.90619 24.0004 7.35156 24.0003H4.75C2.67905 24.0003 1.00019 22.3212 1 20.2503V11.7503C1.00007 9.67929 2.67898 8.0003 4.75 8.0003H7.35156C7.90611 8.00022 8.44173 7.79546 8.85449 7.42511L13.9961 2.80987ZM17.5 5.04327C17.5 3.74568 15.9638 3.05954 14.998 3.92608L9.85547 8.54132C9.1675 9.15855 8.27584 9.50022 7.35156 9.5003H4.75C3.5074 9.5003 2.50007 10.5077 2.5 11.7503V20.2503C2.50019 21.4928 3.50747 22.5003 4.75 22.5003H7.35156C8.27586 22.5004 9.16749 22.842 9.85547 23.4593L14.998 28.0745C15.9637 28.9408 17.4995 28.2554 17.5 26.9583V5.04327ZM22.9238 11.2698C23.189 10.9518 23.6623 10.909 23.9805 11.1741L23.8984 11.2728C23.9661 11.1918 23.9782 11.1775 23.9805 11.1751H23.9814L23.9863 11.18C23.9888 11.1821 23.992 11.1841 23.9951 11.1868C24.0015 11.1923 24.0095 11.1992 24.0186 11.2073C24.0367 11.2237 24.0602 11.2457 24.0879 11.2728C24.1438 11.3273 24.2182 11.4045 24.3037 11.5042C24.4749 11.7039 24.6933 11.997 24.9082 12.3909C25.3405 13.1835 25.75 14.3694 25.75 16.0003C25.7499 17.6312 25.3405 18.8171 24.9082 19.6097C24.6933 20.0036 24.4749 20.2967 24.3037 20.4964C24.2182 20.5961 24.1447 20.6733 24.0889 20.7278C24.0609 20.7551 24.0368 20.7768 24.0186 20.7933C24.0095 20.8014 24.0015 20.8083 23.9951 20.8138C23.992 20.8165 23.9888 20.8185 23.9863 20.8206L23.9814 20.8255H23.9805C23.9767 20.8216 23.9373 20.7749 23.5 20.2503L23.9805 20.8265C23.6624 21.0915 23.189 21.0487 22.9238 20.7308C22.6605 20.4148 22.7015 19.9462 23.0137 19.68L23.0146 19.678C23.0183 19.6747 23.0271 19.6663 23.04 19.6536C23.0661 19.6282 23.1101 19.584 23.165 19.5198C23.275 19.3915 23.4319 19.184 23.5918 18.8909C23.9094 18.3085 24.2499 17.3688 24.25 16.0003C24.25 14.6318 23.9094 13.6921 23.5918 13.1097C23.4319 12.8166 23.275 12.6091 23.165 12.4808C23.1104 12.4171 23.0672 12.3725 23.041 12.347C23.0281 12.3344 23.0184 12.326 23.0146 12.3226C23.0131 12.3212 23.0131 12.3201 23.0137 12.3206C22.7014 12.0545 22.6606 11.5859 22.9238 11.2698Z"
    fill="currentColor"
  />
</svg>
