<svg width="20" height="20" viewBox="0 0 20 20" fill="none" xmlns="http://www.w3.org/2000/svg" data-fui-icon="true">
  <g clip-path="url(#clip0_7233_560)">
    <path
      d="M8.29102 1.53491C9.75178 0.290963 11.9997 1.32916 12 3.2478V16.7517C11.9999 18.6706 9.75185 19.7088 8.29102 18.4646L4.64453 15.3582C4.37325 15.1271 4.02821 14.9998 3.67188 14.9998H2.75C1.23122 14.9998 0 13.7685 0 12.2498V7.74976C0.000155222 6.2311 1.23131 4.99976 2.75 4.99976H3.67188C4.02826 4.99968 4.37323 4.87247 4.64453 4.64136L8.29102 1.53491ZM18.7197 7.46948C19.0126 7.17675 19.4874 7.17675 19.7803 7.46948C20.0731 7.76233 20.073 8.23713 19.7803 8.53003L18.3105 9.99976L19.7803 11.4695C20.0731 11.7623 20.073 12.2371 19.7803 12.53C19.4874 12.8229 19.0126 12.8229 18.7197 12.53L17.25 11.0603L15.7803 12.53C15.4874 12.8229 15.0126 12.8229 14.7197 12.53C14.427 12.2371 14.4269 11.7623 14.7197 11.4695L16.1895 9.99976L14.7197 8.53003C14.427 8.23713 14.4269 7.76233 14.7197 7.46948C15.0126 7.17675 15.4874 7.17675 15.7803 7.46948L17.25 8.93921L18.7197 7.46948Z"
      fill="currentColor"
    />
  </g>
  <defs>
    <clipPath id="clip0_7233_560"><path fill="currentColor" d="M0 0H20V20H0z" /></clipPath>
  </defs>
</svg>
