<svg width="24" height="24" viewBox="0 0 24 24" fill="none" xmlns="http://www.w3.org/2000/svg" data-fui-icon="true">
  <path
    d="M9.78613 1.68225C11.3813 0.180231 13.9999 1.3114 14 3.50256V20.4977C13.9998 22.6889 11.3813 23.8195 9.78613 22.317L5.78027 18.5446C5.40932 18.1952 4.91875 17.9997 4.40918 17.9996H3.25C1.45507 17.9996 0 16.5446 0 14.7496V9.24963C0.000233069 7.45491 1.45522 5.99963 3.25 5.99963H4.40918C4.91878 5.99953 5.40932 5.80511 5.78027 5.45569L9.78613 1.68225ZM17.1504 8.29944C17.399 7.9686 17.869 7.90179 18.2002 8.15002L17.8857 8.56897C18.1924 8.16027 18.2006 8.14997 18.2012 8.15002L18.2041 8.15295C18.2053 8.15386 18.2067 8.1549 18.208 8.15588C18.2109 8.15814 18.2144 8.16101 18.2178 8.1637C18.2246 8.16907 18.2327 8.17516 18.2412 8.18225C18.2586 8.19671 18.2801 8.215 18.3037 8.23694C18.3511 8.28092 18.4097 8.34079 18.4756 8.4176C18.608 8.57205 18.7677 8.79582 18.9209 9.10217C19.2287 9.718 19.5 10.6476 19.5 11.9996C19.5 13.3516 19.2287 14.2812 18.9209 14.8971C18.7677 15.2035 18.608 15.4272 18.4756 15.5817C18.4097 15.6585 18.3511 15.7183 18.3037 15.7623C18.2801 15.7843 18.2586 15.8025 18.2412 15.817C18.2327 15.8241 18.2246 15.8302 18.2178 15.8356C18.2144 15.8382 18.2109 15.8411 18.208 15.8434C18.2067 15.8444 18.2053 15.8454 18.2041 15.8463L18.2012 15.8492C18.1988 15.8469 18.1693 15.8085 17.75 15.2496L18.2002 15.8492C17.8689 16.0978 17.399 16.031 17.1504 15.6998C16.9021 15.3686 16.9687 14.8986 17.2998 14.65L17.2959 14.652C17.2949 14.6528 17.2939 14.6541 17.293 14.6549C17.2912 14.6563 17.2895 14.6577 17.2881 14.6588C17.2851 14.6612 17.2826 14.6635 17.2812 14.6647C17.2785 14.667 17.2786 14.6661 17.2822 14.6627C17.2896 14.6558 17.3094 14.6372 17.3369 14.6051C17.392 14.5407 17.4826 14.4193 17.5791 14.2262C17.7711 13.8419 18 13.1463 18 11.9996C18 10.8525 17.7711 10.1561 17.5791 9.77209C17.4826 9.57917 17.3919 9.45838 17.3369 9.39417C17.3093 9.36197 17.2895 9.34326 17.2822 9.33655C17.279 9.33349 17.2788 9.33258 17.2812 9.33459C17.2826 9.33572 17.285 9.33803 17.2881 9.34045C17.2895 9.34156 17.2912 9.343 17.293 9.34436C17.2939 9.3451 17.2957 9.34644 17.2969 9.34729L17.2988 9.34924L17.2998 9.34827C16.9693 9.09955 16.9021 8.63049 17.1504 8.29944Z"
    fill="currentColor"
  />
</svg>
