<svg width="12" height="12" viewBox="0 0 12 12" fill="none" xmlns="http://www.w3.org/2000/svg" data-fui-icon="true">
  <path
    d="M4.16797 1.43469C5.05006 0.637974 6.49964 1.25439 6.5 2.47961V9.51965C6.49998 10.7849 4.95459 11.4006 4.08398 10.4825L2.67773 9.00012H1.5C0.671707 9.00012 0.000217716 8.32836 0 7.50012V4.50012C0.000135865 3.67181 0.671657 3.00012 1.5 3.00012H2.67676L4.08398 1.51672L4.16797 1.43469ZM9.75 3.75012C10.1642 3.75012 10.5 4.08591 10.5 4.50012V5.25012H11.25C11.6642 5.25012 12 5.58591 12 6.00012C11.9999 6.41428 11.6642 6.75012 11.25 6.75012H10.5V7.50012C10.4999 7.91428 10.1642 8.25012 9.75 8.25012C9.33583 8.25012 9.00007 7.91428 9 7.50012V6.75012H8.25C7.83583 6.75012 7.50007 6.41428 7.5 6.00012C7.5 5.58591 7.83579 5.25012 8.25 5.25012H9V4.50012C9 4.08591 9.33579 3.75012 9.75 3.75012Z"
    fill="currentColor"
  />
</svg>
