<svg width="20" height="20" viewBox="0 0 20 20" fill="none" xmlns="http://www.w3.org/2000/svg" data-fui-icon="true">
  <path
    d="M8.29102 1.53491C9.75178 0.290963 11.9997 1.32916 12 3.2478V16.7517C11.9999 18.6706 9.75185 19.7088 8.29102 18.4646L4.64453 15.3582C4.37325 15.1271 4.02821 14.9998 3.67188 14.9998H2.75C1.23122 14.9998 0 13.7685 0 12.2498V7.74976C0.000155222 6.2311 1.23131 4.99976 2.75 4.99976H3.67188C4.02826 4.99968 4.37323 4.87247 4.64453 4.64136L8.29102 1.53491ZM16.75 6.74976C17.1641 6.74976 17.4999 7.08565 17.5 7.49976V9.24976H19.25C19.6641 9.24976 19.9999 9.58565 20 9.99976C20 10.414 19.6642 10.7498 19.25 10.7498H17.5V12.4998C17.5 12.914 17.1642 13.2498 16.75 13.2498C16.3358 13.2498 16 12.914 16 12.4998V10.7498H14.25C13.8358 10.7498 13.5 10.414 13.5 9.99976C13.5001 9.58565 13.8359 9.24976 14.25 9.24976H16V7.49976C16.0001 7.08565 16.3359 6.74976 16.75 6.74976Z"
    fill="currentColor"
  />
</svg>
