<svg width="24" height="24" viewBox="0 0 24 24" fill="none" xmlns="http://www.w3.org/2000/svg" data-fui-icon="true">
  <path
    d="M9.78613 1.68225C11.3813 0.180231 13.9999 1.3114 14 3.50256V20.4977C13.9998 22.6889 11.3813 23.8195 9.78613 22.317L5.78027 18.5446C5.40932 18.1952 4.91875 17.9997 4.40918 17.9996H3.25C1.45507 17.9996 0 16.5446 0 14.7496V9.24963C0.000233232 7.45491 1.45522 5.99963 3.25 5.99963H4.40918C4.91878 5.99953 5.40932 5.80511 5.78027 5.45569L9.78613 1.68225ZM12.5 3.50256C12.4999 2.62623 11.4525 2.1735 10.8145 2.77405L6.80859 6.54749C6.15934 7.15905 5.3011 7.49953 4.40918 7.49963H3.25C2.28365 7.49963 1.50023 8.28333 1.5 9.24963V14.7496C1.5 15.7161 2.2835 16.4996 3.25 16.4996H4.40918C5.30097 16.4997 6.15937 16.8404 6.80859 17.4518L10.8145 21.2252C11.4525 21.8262 12.4998 21.3741 12.5 20.4977V3.50256ZM23.25 11.2496C23.6641 11.2496 23.9998 11.5856 24 11.9996C24 12.4138 23.6642 12.7496 23.25 12.7496H18.25C17.8358 12.7496 17.5 12.4138 17.5 11.9996C17.5002 11.5856 17.8359 11.2496 18.25 11.2496H23.25Z"
    fill="currentColor"
  />
</svg>
