<svg width="32" height="32" viewBox="0 0 32 32" fill="none" xmlns="http://www.w3.org/2000/svg" data-fui-icon="true">
  <path
    d="M12.9961 2.80994C14.9276 1.07651 18 2.44803 18 5.04333V26.9584C17.9994 29.5531 14.9275 30.9238 12.9961 29.1908L7.85449 24.5756C7.44171 24.2051 6.90619 24.0004 6.35156 24.0004H4.75C2.67907 24.0004 1.00022 22.3212 1 20.2504V11.7504C1.00007 9.67936 2.67898 8.00037 4.75 8.00037H6.35156C6.9061 8.00028 7.44174 7.79551 7.85449 7.42517L12.9961 2.80994ZM16.5 5.04333C16.5 3.74574 14.9638 3.0596 13.998 3.92615L8.85547 8.54138C8.16751 9.1586 7.27583 9.50028 6.35156 9.50037H4.75C3.5074 9.50037 2.50007 10.5078 2.5 11.7504V20.2504C2.50022 21.4928 3.50749 22.5004 4.75 22.5004H6.35156C7.27586 22.5004 8.16749 22.8421 8.85547 23.4594L13.998 28.0746C14.9636 28.9408 16.4994 28.2554 16.5 26.9584V5.04333Z"
    fill="currentColor"
  />
</svg>
