<svg width="24" height="24" viewBox="0 0 24 24" fill="none" xmlns="http://www.w3.org/2000/svg" data-fui-icon="true">
  <path
    fill-rule="evenodd"
    clip-rule="evenodd"
    d="M9.78613 1.68243C11.3813 0.180406 13.9999 1.31158 14 3.50274V20.4979C13.9998 22.6891 11.3813 23.8197 9.78613 22.3172L5.78027 18.5447C5.40932 18.1954 4.91875 17.9999 4.40918 17.9998H3.25C1.45507 17.9998 0 16.5447 0 14.7498V9.24981C0.000233069 7.45508 1.45522 5.99981 3.25 5.99981H4.40918C4.91878 5.9997 5.40932 5.80529 5.78027 5.45586L9.78613 1.68243ZM12.5 3.50274C12.4999 2.6264 11.4525 2.17368 10.8145 2.77422L6.80859 6.54766C6.15934 7.15922 5.3011 7.4997 4.40918 7.49981H3.25C2.28365 7.49981 1.50023 8.28351 1.5 9.24981V14.7498C1.5 15.7163 2.2835 16.4998 3.25 16.4998H4.40918C5.30097 16.4999 6.15937 16.8406 6.80859 17.452L10.8145 21.2254C11.4525 21.8264 12.4998 21.3743 12.5 20.4979V3.50274Z"
    fill="currentColor"
  />
</svg>
