<svg width="32" height="32" viewBox="0 0 32 32" fill="none" xmlns="http://www.w3.org/2000/svg" data-fui-icon="true">
  <path
    d="M12.9961 2.80933C14.9276 1.07603 17.9999 2.44755 18 5.04272V26.9578C17.9997 29.5529 14.9275 30.9235 12.9961 29.1902L7.85449 24.575C7.44172 24.2045 6.90616 23.9998 6.35156 23.9998H4.75C2.67893 23.9998 1 22.3208 1 20.2498V11.7498C1.00015 9.67881 2.67902 7.99976 4.75 7.99976H6.35156C6.90619 7.99967 7.44171 7.79501 7.85449 7.42456L12.9961 2.80933ZM16.5 5.04272C16.4999 3.74525 14.9638 3.05912 13.998 3.92554L8.85547 8.54077C8.16748 9.1581 7.27592 9.49967 6.35156 9.49976H4.75C3.50745 9.49976 2.50015 10.5072 2.5 11.7498V20.2498C2.5 21.4924 3.50736 22.4998 4.75 22.4998H6.35156C7.27583 22.4998 8.1675 22.8415 8.85547 23.4587L13.998 28.074C14.9637 28.9406 16.4997 28.2552 16.5 26.9578V5.04272ZM29.7197 11.9695C30.0126 11.6767 30.4874 11.6767 30.7803 11.9695C31.0731 12.2623 31.0731 12.7371 30.7803 13.03L27.8105 15.9998L30.7803 18.9695C31.0731 19.2623 31.0731 19.7371 30.7803 20.03C30.4874 20.3229 30.0126 20.3229 29.7197 20.03L26.75 17.0603L23.7803 20.03C23.4874 20.3229 23.0126 20.3229 22.7197 20.03C22.4269 19.7371 22.4269 19.2623 22.7197 18.9695L25.6895 15.9998L22.7197 13.03C22.4269 12.7371 22.4269 12.2623 22.7197 11.9695C23.0126 11.6767 23.4874 11.6767 23.7803 11.9695L26.75 14.9392L29.7197 11.9695Z"
    fill="currentColor"
  />
</svg>
