<svg width="32" height="32" viewBox="0 0 32 32" fill="none" xmlns="http://www.w3.org/2000/svg" data-fui-icon="true">
  <path
    d="M13.9961 2.80933C15.9276 1.07608 18.9998 2.4476 19 5.04272V26.9578C18.9997 29.5529 15.9275 30.9235 13.9961 29.1902L8.85449 24.575C8.44172 24.2046 7.90614 23.9998 7.35156 23.9998H4.75C2.67893 23.9998 1 22.3208 1 20.2498V11.7498C1.00018 9.67884 2.67904 7.99976 4.75 7.99976H7.35156C7.90619 7.99967 8.44171 7.79501 8.85449 7.42456L13.9961 2.80933ZM26.2002 6.23901C26.482 5.9358 26.9573 5.91833 27.2607 6.19995L26.8584 6.63354C27.2295 6.23398 27.2583 6.20309 27.2607 6.20093H27.2617L27.2627 6.20288C27.2637 6.20378 27.2653 6.20462 27.2666 6.20581C27.2696 6.20862 27.2737 6.21312 27.2783 6.21753C27.2876 6.22637 27.3001 6.23853 27.3154 6.25366C27.3465 6.28432 27.3899 6.32829 27.4434 6.38452C27.5505 6.49708 27.6998 6.66082 27.876 6.87476C28.2282 7.30251 28.6921 7.93324 29.1543 8.75854C30.0798 10.4112 30.9999 12.849 31 15.9998C31 19.1505 30.0798 21.5882 29.1543 23.241C28.6921 24.0663 28.2282 24.6969 27.876 25.1248C27.6998 25.3387 27.5505 25.5024 27.4434 25.615C27.3899 25.6712 27.3465 25.7152 27.3154 25.7458C27.3001 25.761 27.2876 25.7731 27.2783 25.782C27.2737 25.7864 27.2696 25.7909 27.2666 25.7937C27.2653 25.7949 27.2637 25.7958 27.2627 25.7966L27.2617 25.7986H27.2607C27.257 25.7951 27.2163 25.7519 26.75 25.2498L27.2607 25.7996C26.9573 26.0814 26.4821 26.0639 26.2002 25.7605C25.9185 25.457 25.9368 24.9818 26.2402 24.7L26.2412 24.698C26.2452 24.6942 26.2528 24.6873 26.2627 24.6775C26.2828 24.6576 26.3154 24.6259 26.3574 24.5818C26.4417 24.4932 26.5661 24.3558 26.7178 24.1716C27.0217 23.8026 27.4331 23.2453 27.8457 22.5085C28.6701 21.0363 29.5 18.8484 29.5 15.9998C29.4999 13.1511 28.6701 10.9631 27.8457 9.49097C27.4331 8.75422 27.0217 8.1969 26.7178 7.82788C26.5661 7.64367 26.4416 7.50625 26.3574 7.41772C26.3154 7.37356 26.2828 7.34185 26.2627 7.32202C26.253 7.31246 26.2462 7.30532 26.2422 7.30151C26.2414 7.30065 26.2408 7.29908 26.2402 7.29858C25.9369 7.01671 25.9184 6.54247 26.2002 6.23901ZM22.9238 11.2693C23.189 10.9515 23.6624 10.9087 23.9805 11.1736L23.8984 11.2722C23.9673 11.1898 23.9785 11.1765 23.9805 11.1746H23.9814L23.9863 11.1794C23.9888 11.1815 23.992 11.1836 23.9951 11.1863C24.0015 11.1918 24.0095 11.1987 24.0186 11.2068C24.0367 11.2231 24.0602 11.2452 24.0879 11.2722C24.1438 11.3268 24.2182 11.4039 24.3037 11.5037C24.4749 11.7034 24.6933 11.9965 24.9082 12.3904C25.3405 13.1829 25.7499 14.3689 25.75 15.9998C25.75 17.6306 25.3405 18.8165 24.9082 19.6091C24.6933 20.003 24.4749 20.2961 24.3037 20.4958C24.2183 20.5955 24.1448 20.6727 24.0889 20.7273C24.061 20.7545 24.0368 20.7763 24.0186 20.7927C24.0096 20.8008 24.0015 20.8077 23.9951 20.8132C23.992 20.8159 23.9888 20.818 23.9863 20.8201L23.9814 20.825H23.9805C23.9758 20.82 23.9322 20.7682 23.5 20.2498L23.9805 20.8259C23.6623 21.0911 23.1891 21.0483 22.9238 20.7302C22.6606 20.4142 22.7014 19.9456 23.0137 19.6794L23.0146 19.6775C23.0184 19.6741 23.0272 19.6656 23.04 19.6531C23.0661 19.6276 23.1101 19.5834 23.165 19.5193C23.275 19.3909 23.4319 19.1835 23.5918 18.8904C23.9094 18.3079 24.25 17.3682 24.25 15.9998C24.25 14.6313 23.9094 13.6915 23.5918 13.1091C23.4319 12.8161 23.275 12.6086 23.165 12.4802C23.1104 12.4165 23.0671 12.3719 23.041 12.3464C23.0281 12.3338 23.0183 12.3253 23.0146 12.322C23.0133 12.3208 23.0132 12.3198 23.0137 12.3201C22.7015 12.0539 22.6605 11.5853 22.9238 11.2693Z"
    fill="currentColor"
  />
</svg>
