<svg width="12" height="12" viewBox="0 0 12 12" fill="none" xmlns="http://www.w3.org/2000/svg" data-fui-icon="true">
  <path
    fill-rule="evenodd"
    clip-rule="evenodd"
    d="M4.16797 1.43478C5.05006 0.638059 6.49964 1.25447 6.5 2.4797V9.51974C6.49998 10.785 4.95459 11.4007 4.08398 10.4826L2.67773 9.00021H1.5C0.671707 9.00021 0.000217716 8.32845 0 7.50021V4.50021C0.000135865 3.6719 0.671657 3.00021 1.5 3.00021H2.67676L4.08398 1.51681L4.16797 1.43478ZM3.69238 4.10958C3.45636 4.35847 3.12816 4.50018 2.78516 4.50021H1.5V7.50021H2.78516C3.08517 7.50023 3.37408 7.60741 3.59961 7.80099L3.69238 7.88986L5 9.26876V2.73068L3.69238 4.10958ZM9.75 3.75021C10.1642 3.75021 10.5 4.08599 10.5 4.50021V5.25021H11.25C11.6642 5.25021 12 5.58599 12 6.00021C11.9999 6.41436 11.6642 6.75021 11.25 6.75021H10.5V7.50021C10.4999 7.91436 10.1642 8.25021 9.75 8.25021C9.33583 8.25021 9.00007 7.91436 9 7.50021V6.75021H8.25C7.83583 6.75021 7.50007 6.41436 7.5 6.00021C7.5 5.58599 7.83579 5.25021 8.25 5.25021H9V4.50021C9 4.08599 9.33579 3.75021 9.75 3.75021Z"
    fill="currentColor"
  />
</svg>
