<svg width="20" height="20" viewBox="0 0 20 20" fill="none" xmlns="http://www.w3.org/2000/svg" data-fui-icon="true">
  <path
    fill-rule="evenodd"
    clip-rule="evenodd"
    d="M8.29102 1.53512C9.75178 0.291169 11.9997 1.32936 12 3.24801V16.7519C11.9999 18.6708 9.75185 19.709 8.29102 18.4648L4.64453 15.3584C4.37325 15.1273 4.02821 15 3.67188 15H2.75C1.23122 15 0 13.7687 0 12.25V7.74996C0.000155222 6.23131 1.23131 4.99996 2.75 4.99996H3.67188C4.02826 4.99989 4.37323 4.87267 4.64453 4.64156L8.29102 1.53512ZM16.752 4.18941C17.0615 3.9145 17.5354 3.94254 17.8105 4.25191L17.8145 4.25582C17.8163 4.25787 17.8186 4.26146 17.8213 4.26461C17.8268 4.27095 17.8347 4.2794 17.8438 4.29C17.862 4.3114 17.887 4.34167 17.918 4.37984C17.9802 4.45655 18.0669 4.56667 18.1689 4.70699C18.3729 4.98749 18.643 5.39279 18.9121 5.89742C19.4472 6.90091 19.9999 8.33671 20 9.99996C20 11.6632 19.4472 13.0989 18.9121 14.1025C18.643 14.6072 18.373 15.0124 18.1689 15.2929C18.0669 15.4332 17.9802 15.5434 17.918 15.6201C17.887 15.6582 17.862 15.6885 17.8438 15.7099C17.8347 15.7205 17.8268 15.729 17.8213 15.7353C17.8186 15.7384 17.8163 15.742 17.8145 15.7441L17.8105 15.748C17.5354 16.0576 17.0616 16.0856 16.752 15.8105C16.4618 15.5525 16.4189 15.1196 16.6416 14.8115L16.6895 14.7519H16.6885L16.6895 14.7509C16.6915 14.7486 16.6959 14.7445 16.7012 14.7382C16.7122 14.7253 16.7305 14.7036 16.7539 14.6748C16.801 14.6168 16.8709 14.5272 16.9561 14.4101C17.127 14.175 17.3572 13.829 17.5879 13.3964C18.0526 12.525 18.5 11.336 18.5 9.99996C18.4999 8.6638 18.0526 7.47385 17.5879 6.6025C17.3573 6.17018 17.1269 5.82477 16.9561 5.58981C16.8709 5.4727 16.801 5.38313 16.7539 5.32516C16.7304 5.29625 16.7122 5.27461 16.7012 5.26168C16.6961 5.25572 16.6925 5.25132 16.6904 5.24898L16.6895 5.24801C16.4145 4.93842 16.4425 4.46453 16.752 4.18941ZM14.2197 6.96969C14.5126 6.67696 14.9874 6.67696 15.2803 6.96969L15.3047 6.9941C15.3163 7.00633 15.3315 7.02283 15.3496 7.04293C15.3861 7.08333 15.4352 7.13973 15.4922 7.2109C15.6058 7.35288 15.7539 7.55728 15.9014 7.81539C16.1946 8.32862 16.4999 9.08236 16.5 9.99996C16.5 10.9176 16.1946 11.6712 15.9014 12.1845C15.7539 12.4427 15.6058 12.647 15.4922 12.789C15.4353 12.8602 15.3861 12.9166 15.3496 12.957C15.3315 12.9771 15.3163 12.9936 15.3047 13.0058L15.2812 13.0293V13.0302H15.2803C14.9874 13.3231 14.5126 13.3231 14.2197 13.0302C13.9452 12.7556 13.9277 12.3209 14.168 12.0263L14.2158 11.9736L14.2168 11.9716L14.2178 11.9707H14.2188L14.2197 11.9697C14.2231 11.9661 14.2287 11.9596 14.2363 11.9511C14.2545 11.931 14.2837 11.8973 14.3203 11.8515C14.3942 11.7592 14.4963 11.6195 14.5986 11.4404C14.8053 11.0787 15 10.5819 15 9.99996C14.9999 9.41797 14.8053 8.92117 14.5986 8.55953C14.4962 8.38038 14.3942 8.24071 14.3203 8.1484C14.2837 8.10259 14.2545 8.06889 14.2363 8.04879C14.2274 8.03889 14.2207 8.03237 14.2178 8.02926L14.2168 8.02828L14.2188 8.02926L14.2197 8.03023C13.927 7.73733 13.9269 7.26254 14.2197 6.96969Z"
    fill="currentColor"
  />
</svg>
