<svg width="32" height="32" viewBox="0 0 32 32" fill="none" xmlns="http://www.w3.org/2000/svg" data-fui-icon="true">
  <path
    fill-rule="evenodd"
    clip-rule="evenodd"
    d="M12.9961 2.80987C14.9276 1.07644 18 2.44797 18 5.04327V26.9583C17.9995 29.5531 14.9275 30.9237 12.9961 29.1907L7.85449 24.5755C7.44171 24.2051 6.90619 24.0004 6.35156 24.0003H4.75C2.67906 24.0003 1.0002 22.3212 1 20.2503V11.7503C1.00007 9.67929 2.67898 8.0003 4.75 8.0003H6.35156C6.90611 8.00022 7.44174 7.79545 7.85449 7.42511L12.9961 2.80987ZM29.7197 11.97C30.0126 11.6771 30.4874 11.6771 30.7803 11.97C31.073 12.2629 31.0731 12.7377 30.7803 13.0306L27.8105 16.0003L30.7803 18.97C31.073 19.2629 31.0731 19.7377 30.7803 20.0306C30.4874 20.3233 30.0126 20.3233 29.7197 20.0306L26.75 17.0608L23.7803 20.0306C23.4874 20.3233 23.0126 20.3233 22.7197 20.0306C22.4269 19.7377 22.427 19.2629 22.7197 18.97L25.6895 16.0003L22.7197 13.0306C22.4269 12.7377 22.427 12.2629 22.7197 11.97C23.0126 11.6771 23.4874 11.6771 23.7803 11.97L26.75 14.9398L29.7197 11.97Z"
    fill="currentColor"
  />
</svg>
