<svg width="12" height="12" viewBox="0 0 12 12" fill="none" xmlns="http://www.w3.org/2000/svg" data-fui-icon="true">
  <path
    d="M4.16797 1.43469C5.05004 0.638036 6.49958 1.25445 6.5 2.47961V9.51965C6.49998 10.7849 4.95459 11.4006 4.08398 10.4825L2.67773 9.00012H1.5C0.671707 9.00012 0.000217716 8.32836 0 7.50012V4.50012C0.000173278 3.67184 0.67168 3.00012 1.5 3.00012H2.67676L4.08398 1.51672L4.16797 1.43469ZM7.75977 6.93274C7.75598 6.93589 7.75334 6.93824 7.75195 6.93958C7.75317 6.93827 7.75511 6.93589 7.75781 6.93274C7.77103 6.91728 7.80132 6.87844 7.83594 6.81262C7.90302 6.68501 7.99998 6.43025 8 6.00012C7.99999 5.57005 7.90303 5.31531 7.83594 5.18762C7.80134 5.12183 7.77108 5.08303 7.75781 5.0675C7.75514 5.06438 7.75319 5.062 7.75195 5.06067L7.76953 5.07629C7.77102 5.07754 7.77274 5.07882 7.77441 5.0802C7.45675 4.81986 7.40737 4.35136 7.66504 4.0304C7.92444 3.70756 8.39684 3.65588 8.71973 3.91516L8.72266 3.91809C8.72374 3.91896 8.72544 3.9201 8.72656 3.92102C8.72873 3.92281 8.73101 3.92488 8.7334 3.92688C8.73837 3.93105 8.74414 3.93542 8.75 3.94055C8.76195 3.95103 8.7758 3.96402 8.79102 3.97864C8.82148 4.00791 8.85829 4.04594 8.89844 4.0929C8.97889 4.18704 9.07382 4.31775 9.16406 4.48938C9.34689 4.83719 9.5 5.3324 9.5 6.00012C9.49998 6.66783 9.3469 7.16307 9.16406 7.51086C9.07381 7.68246 8.97889 7.81322 8.89844 7.90735C8.8583 7.95428 8.82148 7.99235 8.79102 8.02161C8.77579 8.03622 8.76195 8.04922 8.75 8.05969C8.74414 8.06482 8.73837 8.0692 8.7334 8.07336C8.73103 8.07535 8.72872 8.07745 8.72656 8.07922C8.72542 8.08015 8.72372 8.08129 8.72266 8.08215L8.7207 8.08411C8.72017 8.08422 8.71114 8.07414 8.25 7.50012L8.71973 8.08508C8.39684 8.34431 7.92442 8.29264 7.66504 7.96985C7.42265 7.668 7.45212 7.23582 7.7207 6.96887L7.75977 6.93274ZM7.76367 6.92981L7.76172 6.93176L7.75977 6.93274L7.76367 6.92981Z"
    fill="currentColor"
  />
</svg>
