<svg width="16" height="16" viewBox="0 0 16 16" fill="none" xmlns="http://www.w3.org/2000/svg" data-fui-icon="true">
  <path
    fill-rule="evenodd"
    clip-rule="evenodd"
    d="M6.5498 1.46225C7.69 0.442334 9.49995 1.25174 9.5 2.78159V13.2191C9.49977 14.7487 7.68994 15.5581 6.5498 14.5384L3.92676 12.1917C3.78924 12.0687 3.61128 12.0003 3.42676 12.0003H2.25C1.00743 12.0003 0.000121755 10.9929 0 9.75033V6.25034C3.35017e-06 5.0077 1.00736 4.00034 2.25 4.00034H3.42676C3.61124 4.00034 3.78926 3.93191 3.92676 3.80893L6.5498 1.46225ZM13.25 5.25034C13.6642 5.25034 14 5.58612 14 6.00034V7.25034H15.25C15.6642 7.25034 16 7.58612 16 8.00034C15.9999 8.41444 15.6641 8.75034 15.25 8.75034H14V10.0003C13.9999 10.4144 13.6641 10.7503 13.25 10.7503C12.8359 10.7503 12.5001 10.4144 12.5 10.0003V8.75034H11.25C10.8359 8.75034 10.5001 8.41444 10.5 8.00034C10.5 7.58612 10.8358 7.25034 11.25 7.25034H12.5V6.00034C12.5 5.58612 12.8358 5.25034 13.25 5.25034Z"
    fill="currentColor"
  />
</svg>
