<svg width="20" height="20" viewBox="0 0 20 20" fill="none" xmlns="http://www.w3.org/2000/svg" data-fui-icon="true">
  <path
    fill-rule="evenodd"
    clip-rule="evenodd"
    d="M8.29102 1.53512C9.75178 0.291169 11.9997 1.32936 12 3.24801V16.7519C11.9999 18.6708 9.75185 19.709 8.29102 18.4648L4.64453 15.3584C4.37325 15.1273 4.02821 15 3.67188 15H2.75C1.23122 15 0 13.7687 0 12.25V7.74996C0.000155222 6.23131 1.23131 4.99996 2.75 4.99996H3.67188C4.02826 4.99989 4.37323 4.87267 4.64453 4.64156L8.29102 1.53512ZM10.5 3.24801C10.4997 2.60865 9.75052 2.26313 9.26367 2.6777L5.61719 5.78414C5.07453 6.24638 4.38472 6.49989 3.67188 6.49996H2.75C2.05974 6.49996 1.50016 7.05974 1.5 7.74996V12.25C1.5 12.9403 2.05964 13.5 2.75 13.5H3.67188C4.3847 13.5 5.07453 13.7545 5.61719 14.2168L9.26367 17.3222C9.75059 17.737 10.4999 17.3915 10.5 16.7519V3.24801ZM16.75 6.74996C17.1641 6.74996 17.4999 7.08586 17.5 7.49996V9.24996H19.25C19.6641 9.24996 19.9999 9.58586 20 9.99996C20 10.4142 19.6642 10.75 19.25 10.75H17.5V12.5C17.5 12.9142 17.1642 13.25 16.75 13.25C16.3358 13.25 16 12.9142 16 12.5V10.75H14.25C13.8358 10.75 13.5 10.4142 13.5 9.99996C13.5001 9.58586 13.8359 9.24996 14.25 9.24996H16V7.49996C16.0001 7.08586 16.3359 6.74996 16.75 6.74996Z"
    fill="currentColor"
  />
</svg>
