<svg width="16" height="16" viewBox="0 0 16 16" fill="none" xmlns="http://www.w3.org/2000/svg" data-fui-icon="true">
  <path
    fill-rule="evenodd"
    clip-rule="evenodd"
    d="M6.5498 1.46225C7.69 0.442334 9.49995 1.25174 9.5 2.78159V13.2191C9.49977 14.7487 7.68994 15.5581 6.5498 14.5384L3.92676 12.1917C3.78924 12.0687 3.61128 12.0003 3.42676 12.0003H2.25C1.00743 12.0003 0.000121755 10.9929 0 9.75033V6.25034C3.35017e-06 5.0077 1.00736 4.00034 2.25 4.00034H3.42676C3.61124 4.00034 3.78926 3.93191 3.92676 3.80893L6.5498 1.46225ZM14.7197 5.97006C15.0126 5.67717 15.4874 5.67717 15.7803 5.97006C16.0731 6.26296 16.0731 6.73775 15.7803 7.03061L14.8105 8.00034L15.7803 8.97006C16.0731 9.26296 16.0731 9.73775 15.7803 10.0306C15.4874 10.3234 15.0126 10.3234 14.7197 10.0306L13.75 9.06088L12.7803 10.0306C12.4874 10.3234 12.0126 10.3234 11.7197 10.0306C11.4269 9.73775 11.4269 9.26296 11.7197 8.97006L12.6895 8.00034L11.7197 7.03061C11.4269 6.73775 11.4269 6.26296 11.7197 5.97006C12.0126 5.67717 12.4874 5.67717 12.7803 5.97006L13.75 6.93979L14.7197 5.97006Z"
    fill="currentColor"
  />
</svg>
