<svg width="32" height="32" viewBox="0 0 32 32" fill="none" xmlns="http://www.w3.org/2000/svg" data-fui-icon="true">
  <path
    d="M25.6658 8.66665C25.6658 7.37798 24.6211 6.33331 23.3324 6.33331H5.26567C4.34519 6.33331 3.599 7.0795 3.599 7.99998M3.599 7.99998V23C3.599 24.4728 4.79291 25.6666 6.26567 25.6666H25.599C27.0718 25.6666 28.2656 24.4728 28.2656 23V12.3333C28.2656 10.8606 27.0718 9.66665 25.599 9.66665H5.26567C4.34519 9.66665 3.599 8.92046 3.599 7.99998ZM22.9991 17.6666C22.9991 18.2189 22.5514 18.6666 21.9991 18.6666C21.4468 18.6666 20.9991 18.2189 20.9991 17.6666C20.9991 17.1144 21.4468 16.6666 21.9991 16.6666C22.5514 16.6666 22.9991 17.1144 22.9991 17.6666Z"
    stroke="currentColor"
    stroke-width="1.5"
    stroke-linecap="round"
    stroke-linejoin="round"
  />
</svg>
