<svg width="16" height="16" viewBox="0 0 16 16" fill="none" xmlns="http://www.w3.org/2000/svg" data-fui-icon="true">
  <path
    d="M9.75 1C11.5449 1 13 2.45507 13 4.25V4.50977C14.6781 4.63743 16 6.0392 16 7.75V11.75C16 13.5449 14.5449 15 12.75 15H3.25C1.45517 14.9999 0 13.5449 0 11.75V3.5C0 3.47399 0.000343185 3.44818 0.00292969 3.42285C0.0437208 2.07792 1.14521 1.00011 2.5 1H9.75ZM11.75 8.75C11.1977 8.75 10.75 9.19771 10.75 9.75C10.75 10.3023 11.1977 10.75 11.75 10.75C12.3023 10.75 12.75 10.3023 12.75 9.75C12.75 9.19771 12.3023 8.75 11.75 8.75ZM2.5 2.5C1.94781 2.50011 1.5 2.94778 1.5 3.5C1.5 4.05222 1.94781 4.49989 2.5 4.5H11.5V4.25C11.5 3.2835 10.7165 2.5 9.75 2.5H2.5Z"
    fill="currentColor"
  />
</svg>
