<svg width="24" height="24" viewBox="0 0 24 24" fill="none" xmlns="http://www.w3.org/2000/svg" data-fui-icon="true">
  <path
    d="M14 2.5C16.4853 2.5 18.5 4.51472 18.5 7C20.9853 7 23 9.01472 23 11.5V17C23 19.4853 20.9853 21.5 18.5 21.5H5.5C3.01472 21.5 1 19.4853 1 17V5.5C1 5.39238 1.01639 5.28854 1.04785 5.19141C1.31267 3.66265 2.64555 2.5 4.25 2.5H14ZM3 17C3 18.3807 4.11929 19.5 5.5 19.5H18.5C19.8807 19.5 21 18.3807 21 17V11.5C21 10.1193 19.8807 9 18.5 9H4.25C3.80679 9 3.38498 8.90967 3 8.74902V17ZM17.25 12.5C18.2165 12.5 19 13.2835 19 14.25C19 15.2165 18.2165 16 17.25 16C16.2835 16 15.5 15.2165 15.5 14.25C15.5 13.2835 16.2835 12.5 17.25 12.5ZM4.25 4.5C3.55964 4.5 3 5.05964 3 5.75C3 6.44036 3.55964 7 4.25 7H16.5C16.5 5.61929 15.3807 4.5 14 4.5H4.25Z"
    fill="currentColor"
  />
</svg>
