<svg width="20" height="20" viewBox="0 0 20 20" fill="none" xmlns="http://www.w3.org/2000/svg" data-fui-icon="true">
  <path
    d="M11.25 1C13.3211 1 15 2.67893 15 4.75V5H16.25C18.3211 5 20 6.67893 20 8.75V15.25C20 17.3211 18.3211 19 16.25 19H3.75C1.67903 18.9999 0 17.321 0 15.25V3.75C0 3.72329 0.0011814 3.69689 0.00390625 3.6709C0.0458074 2.1888 1.25779 1.00011 2.75 1H11.25ZM15 10.75C14.3096 10.75 13.75 11.3096 13.75 12C13.75 12.6904 14.3096 13.25 15 13.25C15.6904 13.25 16.25 12.6904 16.25 12C16.25 11.3096 15.6904 10.75 15 10.75ZM2.75 2.5C2.05974 2.50011 1.5 3.05971 1.5 3.75C1.5 4.44029 2.05974 4.99989 2.75 5H13.5V4.75C13.5 3.50736 12.4926 2.5 11.25 2.5H2.75Z"
    fill="currentColor"
  />
</svg>
