<svg width="24" height="24" viewBox="0 0 24 24" fill="none" xmlns="http://www.w3.org/2000/svg" data-fui-icon="true">
  <path
    d="M13.75 2.5C16.0972 2.5 18 4.40279 18 6.75V7H18.75C21.0972 7 23 8.90279 23 11.25V17.25C23 19.5972 21.0972 21.5 18.75 21.5H5.25C2.90289 21.4999 1 19.5971 1 17.25V5.5C1 3.84315 2.34315 2.5 4 2.5H13.75ZM2.5 17.25C2.5 18.7687 3.73131 19.9999 5.25 20H18.75C20.2688 20 21.5 18.7688 21.5 17.25V11.25C21.5 9.73122 20.2688 8.5 18.75 8.5H4C3.45287 8.5 2.94164 8.35059 2.5 8.09473V17.25ZM17.5 12.75C18.3284 12.75 19 13.4216 19 14.25C19 15.0784 18.3284 15.75 17.5 15.75C16.6716 15.75 16 15.0784 16 14.25C16 13.4216 16.6716 12.75 17.5 12.75ZM4 4C3.17157 4 2.5 4.67157 2.5 5.5C2.5 6.32843 3.17157 7 4 7H16.5V6.75C16.5 5.23122 15.2688 4 13.75 4H4Z"
    fill="currentColor"
  />
</svg>
