<svg width="16" height="16" viewBox="0 0 16 16" fill="none" xmlns="http://www.w3.org/2000/svg" data-fui-icon="true">
  <path
    d="M8.5 1.5C10.433 1.5 12 3.067 12 5V5.03516C13.6962 5.27775 15 6.73675 15 8.5V11C15 12.933 13.433 14.5 11.5 14.5H4.5C2.567 14.5 1 12.933 1 11V4.5C1 4.46069 1.00242 4.42192 1.00684 4.38379C1.00471 4.3394 1 4.29491 1 4.25C1 2.73122 2.23122 1.5 3.75 1.5H8.5ZM10.75 8.5C10.0596 8.5 9.5 9.05964 9.5 9.75C9.5 10.4404 10.0596 11 10.75 11C11.4404 11 12 10.4404 12 9.75C12 9.05964 11.4404 8.5 10.75 8.5ZM3.75 3.5C3.33579 3.5 3 3.83579 3 4.25C3 4.66421 3.33579 5 3.75 5H10C10 4.17157 9.32843 3.5 8.5 3.5H3.75Z"
    fill="currentColor"
  />
</svg>
