<svg width="12" height="12" viewBox="0 0 12 12" fill="none" xmlns="http://www.w3.org/2000/svg" data-fui-icon="true">
  <path
    d="M6.25 0.5C7.76878 0.5 9 1.73122 9 3.25V3.5H9.25C10.7688 3.5 12 4.73122 12 6.25V8.75C12 10.2688 10.7688 11.5 9.25 11.5H2.75C1.23131 11.4999 0 10.2687 0 8.75V3C0 2.96589 0.00242166 2.93232 0.00683594 2.89941C0.00359317 2.84999 0 2.80024 0 2.75C0 1.50743 1.00745 0.500112 2.25 0.5H6.25ZM8 6.5C7.44772 6.5 7 6.94772 7 7.5C7 8.05228 7.44772 8.5 8 8.5C8.55229 8.5 9 8.05228 9 7.5C9 6.94772 8.55229 6.5 8 6.5ZM2.25 2C1.83588 2.00011 1.5 2.33586 1.5 2.75C1.5 3.16414 1.83588 3.49989 2.25 3.5H7.5V3.25C7.5 2.55964 6.94036 2 6.25 2H2.25Z"
    fill="currentColor"
  />
</svg>
