<svg width="12" height="12" viewBox="0 0 12 12" fill="none" xmlns="http://www.w3.org/2000/svg" data-fui-icon="true">
  <path
    d="M3.5 2.25C3.91421 2.25 4.25 2.58579 4.25 3V9C4.25 9.41421 3.91421 9.75 3.5 9.75C3.08579 9.75 2.75 9.41421 2.75 9V3C2.75 2.58579 3.08579 2.25 3.5 2.25ZM8.5 2.25C8.91421 2.25 9.25 2.58579 9.25 3V9C9.25 9.41421 8.91421 9.75 8.5 9.75C8.08579 9.75 7.75 9.41421 7.75 9V3C7.75 2.58579 8.08579 2.25 8.5 2.25ZM11 3.75C11.4142 3.75 11.75 4.08579 11.75 4.5V7.5C11.75 7.91421 11.4142 8.25 11 8.25C10.5858 8.25 10.25 7.91421 10.25 7.5V4.5C10.25 4.08579 10.5858 3.75 11 3.75ZM1 4C1.41421 4 1.75 4.33579 1.75 4.75V7.25C1.75 7.66421 1.41421 8 1 8C0.585787 8 0.25 7.66421 0.25 7.25V4.75C0.25 4.33579 0.585786 4 1 4ZM6 4C6.41421 4 6.75 4.33579 6.75 4.75V7.25C6.75 7.66421 6.41421 8 6 8C5.58579 8 5.25 7.66421 5.25 7.25V4.75C5.25 4.33579 5.58579 4 6 4Z"
    fill="currentColor"
  />
</svg>
