<svg width="32" height="32" viewBox="0 0 32 32" fill="none" xmlns="http://www.w3.org/2000/svg" data-fui-icon="true">
  <path
    fill-rule="evenodd"
    clip-rule="evenodd"
    d="M1.29297 2.29338C1.68349 1.90286 2.31651 1.90286 2.70703 2.29338L5.5187 5.10505C5.52038 5.10673 5.5229 5.10717 5.5249 5.10588C5.5269 5.10459 5.52942 5.10503 5.53111 5.10671L7.09578 6.67237C7.09704 6.67363 7.09646 6.67577 7.09472 6.67619C7.09299 6.67662 7.09241 6.67876 7.09367 6.68002L21.8209 21.4072C21.8215 21.4078 21.8224 21.4075 21.8223 21.4067C21.8222 21.4058 21.823 21.4055 21.8237 21.4061L23.3915 22.9739C23.3922 22.9746 23.3924 22.9756 23.3921 22.9765C23.3918 22.9774 23.392 22.9784 23.3927 22.979L28.707 28.2934C29.0975 28.6839 29.0975 29.3169 28.707 29.7074C28.3165 30.0975 27.6833 30.0977 27.293 29.7074L22.5592 24.9737C22.4335 24.848 22.227 24.8589 22.1088 24.9917C20.7392 26.5303 18.7442 27.5003 16.5225 27.5004H8.47754C4.34824 27.5 1.00047 24.1522 1 20.0229V11.978C1.00009 9.75625 1.96933 7.76029 3.50771 6.39066C3.6405 6.27244 3.65146 6.06594 3.52575 5.94022L1.29297 3.70744C0.9026 3.31707 0.902909 2.68394 1.29297 2.29338ZM5.36993 7.7844C5.26419 7.67866 5.09611 7.66627 4.98106 7.7618C3.77111 8.76656 3.00009 10.2824 3 11.978V20.0229C3.00047 23.0476 5.45281 25.5 8.47754 25.5004H16.5225C18.2181 25.5003 19.733 24.7285 20.7377 23.5184C20.8332 23.4033 20.8208 23.2353 20.715 23.1295L5.36993 7.7844ZM16.5225 4.50041C20.0958 4.50056 23.0827 7.0069 23.8229 10.3577C23.8739 10.5885 24.1552 10.6932 24.3347 10.5393L27.0977 8.17131C28.6309 6.85711 30.9998 7.94594 31 9.96526V22.0356C30.9994 24.0545 28.6308 25.1444 27.0977 23.8305L26.9385 23.6938L22.0878 18.8412C22.0316 18.7849 22 18.7087 22 18.6291V11.978C21.9998 8.95286 19.5475 6.50058 16.5225 6.50041H9.87622C9.79665 6.50041 9.72035 6.46881 9.66409 6.41254L8.23746 4.98592C8.05771 4.80617 8.16958 4.50268 8.42378 4.50063C8.44168 4.50049 8.4596 4.50041 8.47754 4.50041H16.5225ZM29 9.96526C28.9998 9.65472 28.6353 9.48691 28.3994 9.68889L24.1048 13.3696C24.0383 13.4266 24 13.5098 24 13.5974V18.4025C24 18.4901 24.0383 18.5733 24.1047 18.6302L28.3994 22.3119C28.6352 22.5137 28.9994 22.3457 29 22.0356V9.96526Z"
    fill="currentColor"
  />
</svg>
