<svg width="24" height="24" viewBox="0 0 24 24" fill="none" xmlns="http://www.w3.org/2000/svg" data-fui-icon="true">
  <path
    fill-rule="evenodd"
    clip-rule="evenodd"
    d="M1.21973 2.21978C1.50891 1.9306 1.97488 1.9272 2.26855 2.20904L20.79 20.7305C21.0726 21.0242 21.0697 21.4909 20.7803 21.7803C20.4874 22.073 20.0126 22.073 19.7197 21.7803L16.826 18.8866C16.7041 18.7647 16.5054 18.7709 16.3835 18.8926C15.3886 19.8854 14.0164 20.5001 12.5 20.5001H6.5C3.46254 20.5001 1.00016 18.0375 1 15.0001V9.00005C1 7.48364 1.61388 6.11057 2.60647 5.11563C2.72816 4.99365 2.73436 4.79496 2.61252 4.67312L1.21973 3.28033C0.926885 2.98749 0.926987 2.51269 1.21973 2.21978ZM12.5 3.50005C15.0112 3.50005 17.1276 5.18336 17.786 7.48299C17.8509 7.70968 18.1354 7.8044 18.3096 7.64548L20.0684 6.04107C21.1915 5.01636 22.9973 5.81283 22.998 7.33306V16.6749C22.9976 18.0523 21.516 18.8344 20.4021 18.2076C20.3802 18.1952 20.3601 18.1795 20.3424 18.1618L6.16175 3.98114C5.98655 3.80594 6.0882 3.5106 6.33584 3.50269C6.39035 3.50095 6.44508 3.50005 6.5 3.50005H12.5Z"
    fill="currentColor"
  />
</svg>
