<svg width="16" height="16" viewBox="0 0 16 16" fill="none" xmlns="http://www.w3.org/2000/svg" data-fui-icon="true">
  <path
    fill-rule="evenodd"
    clip-rule="evenodd"
    d="M1.21973 1.21978C1.5089 0.930603 1.97488 0.927196 2.26855 1.20904L14.7197 13.6602C14.7232 13.6636 14.727 13.6666 14.7305 13.67L14.7803 13.7198C15.073 14.0127 15.0731 14.4875 14.7803 14.7803C14.4874 15.073 14.0126 15.073 13.7197 14.7803L11.3417 12.4023C11.2177 12.2783 11.0148 12.2875 10.8903 12.4111C10.2126 13.0838 9.2802 13.5001 8.25 13.5001H4.75C2.67903 13.5001 1.00016 11.821 1 9.75005V6.25005C1 5.21987 1.41551 4.28664 2.08798 3.60885C2.21153 3.48432 2.22081 3.28142 2.09677 3.15737L1.21973 2.28033C0.926884 1.98749 0.926986 1.51269 1.21973 1.21978ZM8.25 2.50005C9.71822 2.50005 10.9888 3.34405 11.6042 4.57319C11.7002 4.76476 11.9559 4.82805 12.1142 4.68366L12.4043 4.419C13.3991 3.51107 14.9988 4.21661 14.999 5.56353V10.4366C14.9989 10.7162 14.929 10.9672 14.8102 11.1822C14.726 11.3345 14.5214 11.3408 14.3984 11.2178L6.1928 3.01219C6.00381 2.8232 6.13766 2.50005 6.40493 2.50005H8.25Z"
    fill="currentColor"
  />
</svg>
