<svg width="16" height="16" viewBox="0 0 16 16" fill="none" xmlns="http://www.w3.org/2000/svg" data-fui-icon="true">
  <path
    d="M12.9102 3.97278L13.4158 4.52666L13.4159 4.52664L12.9102 3.97278ZM14.25 4.5636H15V4.56351L14.25 4.5636ZM14.25 11.4366L15 11.437V11.4366H14.25ZM12.9102 12.0275L12.4043 12.5812L12.4045 12.5813L12.9102 12.0275ZM1.75 10.2501H1V10.2502L1.75 10.2501ZM11.3135 10.5688L11.8193 10.0151L11.3135 10.5688ZM11.2282 10.6016L10.4832 10.5146L11.2282 10.6016ZM11.2282 5.39776L10.4832 5.48488L11.2282 5.39776ZM11.3134 5.43054L11.8191 5.98443L11.3134 5.43054ZM8.25 2.75012V3.50012C9.40232 3.50012 10.3525 4.36717 10.4832 5.48488L11.2282 5.39776L11.9731 5.31065C11.7551 3.44669 10.173 2.00012 8.25 2.00012V2.75012ZM11.3134 5.43054L11.8191 5.98443L13.4158 4.52666L12.9102 3.97278L12.4045 3.41889L10.8077 4.87666L11.3134 5.43054ZM12.9102 3.97278L13.4159 4.52664C13.4247 4.51856 13.4305 4.51552 13.4329 4.51443C13.4354 4.51325 13.4375 4.51266 13.4399 4.51233C13.4453 4.51157 13.4564 4.51189 13.47 4.5179C13.4836 4.52391 13.4913 4.53185 13.4944 4.53637C13.4957 4.53833 13.4967 4.54029 13.4976 4.54293C13.4983 4.54537 13.5 4.55172 13.5 4.56369L14.25 4.5636L15 4.56351C14.9998 3.21632 13.3992 2.51064 12.4045 3.41891L12.9102 3.97278ZM14.25 4.5636H13.5V11.4366H14.25H15V4.5636H14.25ZM14.25 11.4366L13.5 11.4363C13.5 11.4482 13.4983 11.4546 13.4976 11.4571C13.4967 11.4597 13.4957 11.4617 13.4944 11.4637C13.4912 11.4683 13.4835 11.4762 13.4698 11.4823C13.4562 11.4883 13.4451 11.4886 13.4397 11.4878C13.4374 11.4875 13.4353 11.4869 13.4328 11.4858C13.4305 11.4847 13.4247 11.4817 13.4159 11.4736L12.9102 12.0275L12.4045 12.5813C13.3995 13.4899 14.9994 12.7832 15 11.437L14.25 11.4366ZM12.9102 12.0275L13.416 11.4737L11.8193 10.0151L11.3135 10.5688L10.8076 11.1225L12.4043 12.5812L12.9102 12.0275ZM11.2282 10.6016L10.4832 10.5146C10.3527 11.6327 9.40236 12.5001 8.25 12.5001V13.2501V14.0001C10.1734 14.0001 11.7555 12.5527 11.9731 10.6885L11.2282 10.6016ZM8.25 13.2501V12.5001H4.75V13.2501V14.0001H8.25V13.2501ZM4.75 13.2501V12.5001C3.50745 12.5001 2.50006 11.4927 2.5 10.2501L1.75 10.2501L1 10.2502C1.0001 12.3211 2.67895 14.0001 4.75 14.0001V13.2501ZM1.75 10.2501H2.5V5.75012H1.75H1V10.2501H1.75ZM1.75 5.75012H2.5C2.5 4.50748 3.50736 3.50012 4.75 3.50012V2.75012V2.00012C2.67893 2.00012 1 3.67905 1 5.75012H1.75ZM4.75 2.75012V3.50012H8.25V2.75012V2.00012H4.75V2.75012ZM11.3135 10.5688L11.8193 10.0151C11.3173 9.5565 10.5558 9.89318 10.4832 10.5146L11.2282 10.6016L11.9731 10.6885C11.9102 11.2275 11.2482 11.5251 10.8076 11.1225L11.3135 10.5688ZM11.2282 5.39776L10.4832 5.48488C10.5559 6.10612 11.3171 6.4427 11.8191 5.98443L11.3134 5.43054L10.8077 4.87666C11.2484 4.47437 11.9101 4.77188 11.9731 5.31065L11.2282 5.39776Z"
    fill="currentColor"
  />
</svg>
