<svg width="20" height="20" viewBox="0 0 20 20" fill="none" xmlns="http://www.w3.org/2000/svg" data-fui-icon="true">
  <path
    d="M1.29297 1.2932C1.6578 0.928369 2.23428 0.904111 2.62695 1.22093L18.1133 16.7073C18.1377 16.7317 18.1633 16.7543 18.1895 16.7756L18.707 17.2932C19.0974 17.6837 19.0975 18.3168 18.707 18.7073C18.3165 19.0976 17.6835 19.0976 17.293 18.7073L14.1665 15.5807C14.0394 15.4537 13.8304 15.4666 13.71 15.6C12.7951 16.6129 11.4724 17.2502 10 17.2502H6C3.23865 17.2502 1.00012 15.0115 1 12.2502V7.75023C1 6.39724 1.53696 5.16909 2.40988 4.26883C2.52909 4.14589 2.53444 3.94873 2.41335 3.82765L1.29297 2.70726C0.902483 2.31677 0.90256 1.68373 1.29297 1.2932ZM4.24976 5.66405C4.13908 5.55337 3.96063 5.54533 3.85138 5.65744C3.32476 6.1979 3 6.93603 3 7.75023V12.2502C3.00012 13.907 4.34322 15.2502 6 15.2502H10C10.9539 15.2502 11.8031 14.8043 12.3525 14.1102C12.4412 13.9981 12.4243 13.8386 12.3232 13.7375L4.24976 5.66405ZM10 2.75023C12.0099 2.75023 13.7418 3.93658 14.536 5.64696C14.6262 5.84125 14.8816 5.90436 15.0397 5.75992L15.6504 5.20238C16.9336 4.02902 18.9996 4.9392 19 6.67796V13.3264C19 13.6135 18.9425 13.8771 18.8419 14.1129C18.7676 14.2869 18.5432 14.3091 18.4095 14.1753L17.0879 12.8537C17.0316 12.7975 17 12.7212 17 12.6416V7.35887C17 7.098 16.69 6.96144 16.4975 7.13749L15.0975 8.41786C15.0354 8.47469 15 8.55503 15 8.63924V10.0416C15 10.3089 14.6769 10.4427 14.4879 10.2537L13.0879 8.85372C13.0316 8.79746 13 8.72115 13 8.64159V7.75023C13 6.09337 11.6569 4.75023 10 4.75023H9.10864C9.02907 4.75023 8.95277 4.71862 8.89651 4.66236L7.49651 3.26236C7.30752 3.07337 7.44137 2.75023 7.70864 2.75023H10Z"
    fill="currentColor"
  />
</svg>
