<svg width="32" height="32" viewBox="0 0 32 32" fill="none" xmlns="http://www.w3.org/2000/svg" data-fui-icon="true">
  <path
    fill-rule="evenodd"
    clip-rule="evenodd"
    d="M1.21973 2.21998C1.50887 1.93083 1.97487 1.92749 2.26855 2.20924L24.7197 24.6604C24.7225 24.6632 24.7257 24.6655 24.7285 24.6682L28.7803 28.72C29.0729 29.0129 29.0731 29.4877 28.7803 29.7805C28.4874 30.0731 28.0126 30.0731 27.7197 29.7805L22.4067 24.4675C22.2756 24.3364 22.0584 24.3547 21.9435 24.5001C20.6199 26.1744 18.5723 27.2502 16.2725 27.2503H8.22754C4.23613 27.2501 1.00045 24.0141 1 20.0227V11.9778C1.0001 9.67794 2.07502 7.62948 3.74916 6.30583C3.89458 6.19085 3.9129 5.97369 3.78181 5.84261L1.21973 3.28053C0.926921 2.98772 0.927096 2.51289 1.21973 2.21998ZM5.28317 7.34396C5.18298 7.24378 5.02583 7.22668 4.9104 7.30884C3.45188 8.34702 2.5001 10.0512 2.5 11.9778V20.0227C2.50045 23.1856 5.06456 25.7501 8.22754 25.7503H16.2725C18.1991 25.7502 19.9024 24.7975 20.9405 23.3389C21.0226 23.2234 21.0055 23.0663 20.9053 22.9661L5.28317 7.34396ZM16.2725 4.75025C19.8395 4.7504 22.8022 7.33417 23.3923 10.7325C23.4326 10.9646 23.707 11.0827 23.8938 10.9392L27.5977 8.09303C28.9878 7.0245 31 8.01544 31 9.76881V22.3147C30.9993 24.0439 29.035 25.041 27.6387 24.0208L23.5352 21.0208L22.1076 19.8275C22.0394 19.7705 22 19.6862 22 19.5973V11.9778C21.9998 8.81463 19.4356 6.25042 16.2725 6.25025H8.55493C8.47536 6.25025 8.39906 6.21864 8.3428 6.16238L7.44263 5.26222C7.27006 5.08965 7.36555 4.79781 7.6087 4.77689C7.81267 4.75935 8.01905 4.75026 8.22754 4.75025H16.2725ZM29.5 9.76881C29.5 9.25991 28.9163 8.97188 28.5127 9.2815L23.6172 13.044C23.5433 13.1008 23.5 13.1887 23.5 13.2818V18.9856C23.5 19.0814 23.5457 19.1713 23.623 19.2278L28.5244 22.8098C28.9297 23.1055 29.4993 22.8163 29.5 22.3147V9.76881Z"
    fill="currentColor"
  />
</svg>
