<svg width="24" height="24" viewBox="0 0 24 24" fill="none" xmlns="http://www.w3.org/2000/svg" data-fui-icon="true">
  <path
    d="M12.25 3.25C14.9708 3.25 17.2486 5.14014 17.8457 7.67871L19.6104 5.97949C20.8806 4.75578 22.998 5.65601 22.998 7.41992V16.5898C22.9977 18.3534 20.8805 19.2536 19.6104 18.0303L17.8438 16.3281C17.2441 18.8632 14.9683 20.75 12.25 20.75H6.75C3.57436 20.75 1 18.1756 1 15V9C1 5.82436 3.57436 3.25 6.75 3.25H12.25ZM6.75 5.25C4.67893 5.25 3 6.92893 3 9V15C3 17.0711 4.67893 18.75 6.75 18.75H12.25C14.3211 18.75 16 17.0711 16 15V9C16 6.92893 14.3211 5.25 12.25 5.25H6.75ZM18.1943 10.1221C18.1346 10.1796 18.0687 10.2269 18 10.2666V13.7412C18.069 13.781 18.1344 13.8299 18.1943 13.8877L20.998 16.5898V7.41992L18.1943 10.1221ZM9.5 7.5C10.0523 7.5 10.5 7.94772 10.5 8.5V11H13C13.5523 11 14 11.4477 14 12C14 12.5523 13.5523 13 13 13H10.5V15.5C10.5 16.0523 10.0523 16.5 9.5 16.5C8.94772 16.5 8.5 16.0523 8.5 15.5V13H6C5.44772 13 5 12.5523 5 12C5 11.4477 5.44772 11 6 11H8.5V8.5C8.5 7.94772 8.94772 7.5 9.5 7.5Z"
    fill="currentColor"
  />
</svg>
