<svg width="20" height="20" viewBox="0 0 20 20" fill="none" xmlns="http://www.w3.org/2000/svg" data-fui-icon="true">
  <path
    d="M16.1387 4.96606L15.6332 4.412L15.6331 4.41209L16.1387 4.96606ZM17.8125 5.70435H18.5625V5.70409L17.8125 5.70435ZM16.1387 15.0334L16.6444 14.4796L16.6443 14.4795L16.1387 15.0334ZM2.1875 12.8127H1.4375V12.8128L2.1875 12.8127ZM14.1418 13.211L13.6362 13.765L14.1418 13.211ZM14.0352 13.252L14.7802 13.3389L14.0352 13.252ZM14.0352 6.74756L13.2903 6.83463L14.0352 6.74756ZM14.1418 6.78854L14.6474 7.34251L14.1418 6.78854ZM10.3125 3.43774V4.18774C11.8493 4.18774 13.1161 5.34411 13.2903 6.83463L14.0352 6.74756L14.7801 6.66049C14.5187 4.42371 12.62 2.68774 10.3125 2.68774V3.43774ZM14.1418 6.78854L14.6474 7.34251L16.6443 5.52004L16.1387 4.96606L15.6331 4.41209L13.6362 6.23457L14.1418 6.78854ZM16.1387 4.96606L16.6441 5.52013C16.8047 5.37371 17.0624 5.48756 17.0625 5.70461L17.8125 5.70435L18.5625 5.70409C18.562 4.18359 16.7563 3.3874 15.6332 4.412L16.1387 4.96606ZM17.8125 5.70435H17.0625V14.2952H17.8125H18.5625V5.70435H17.8125ZM17.8125 14.2952H17.0625C17.0625 14.5124 16.8049 14.6261 16.6444 14.4796L16.1387 15.0334L15.633 15.5873C16.7562 16.6128 18.5625 15.8163 18.5625 14.2952H17.8125ZM16.1387 15.0334L16.6443 14.4795L14.6474 12.657L14.1418 13.211L13.6362 13.765L15.6331 15.5874L16.1387 15.0334ZM14.0352 13.252L13.2903 13.165C13.1163 14.6559 11.8494 15.8127 10.3125 15.8127V16.5627V17.3127C12.6204 17.3127 14.5191 15.576 14.7802 13.3389L14.0352 13.252ZM10.3125 16.5627V15.8127H5.9375V16.5627V17.3127H10.3125V16.5627ZM5.9375 16.5627V15.8127C4.28073 15.8127 2.93757 14.4696 2.9375 12.8127L2.1875 12.8127L1.4375 12.8128C1.4376 15.2979 3.45224 17.3127 5.9375 17.3127V16.5627ZM2.1875 12.8127H2.9375V7.18774H2.1875H1.4375V12.8127H2.1875ZM2.1875 7.18774H2.9375C2.9375 5.53089 4.28065 4.18774 5.9375 4.18774V3.43774V2.68774C3.45222 2.68774 1.4375 4.70246 1.4375 7.18774H2.1875ZM5.9375 3.43774V4.18774H10.3125V3.43774V2.68774H5.9375V3.43774ZM14.1418 13.211L14.6474 12.657C14.1377 12.1918 13.364 12.5334 13.2903 13.165L14.0352 13.252L14.7802 13.3389C14.7185 13.8674 14.0693 14.1602 13.6362 13.765L14.1418 13.211ZM14.0352 6.74756L13.2903 6.83463C13.3641 7.46615 14.1377 7.80767 14.6474 7.34251L14.1418 6.78854L13.6362 6.23457C14.0692 5.83939 14.7184 6.13205 14.7801 6.66049L14.0352 6.74756Z"
    fill="currentColor"
  />
</svg>
