<svg width="24" height="24" viewBox="0 0 24 24" fill="none" xmlns="http://www.w3.org/2000/svg" data-fui-icon="true">
  <path
    d="M12.25 3.25C14.9708 3.25 17.2486 5.14014 17.8457 7.67871L19.6104 5.97949C20.8806 4.75578 22.998 5.65601 22.998 7.41992V16.5898C22.9977 18.3534 20.8805 19.2536 19.6104 18.0303L17.8438 16.3281C17.2441 18.8632 14.9683 20.75 12.25 20.75H6.75C3.57436 20.75 1 18.1756 1 15V9C1 5.82436 3.57436 3.25 6.75 3.25H12.25ZM9.5 7.5C8.94772 7.5 8.5 7.94772 8.5 8.5V11H6C5.44772 11 5 11.4477 5 12C5 12.5523 5.44772 13 6 13H8.5V15.5C8.5 16.0523 8.94772 16.5 9.5 16.5C10.0523 16.5 10.5 16.0523 10.5 15.5V13H13C13.5523 13 14 12.5523 14 12C14 11.4477 13.5523 11 13 11H10.5V8.5C10.5 7.94772 10.0523 7.5 9.5 7.5Z"
    fill="currentColor"
  />
</svg>
