<svg width="24" height="24" viewBox="0 0 24 24" fill="none" xmlns="http://www.w3.org/2000/svg" data-fui-icon="true">
  <path
    d="M19.3662 5.95923L19.8717 6.51327L19.8717 6.51324L19.3662 5.95923ZM21.375 17.1545L22.125 17.1546V17.1545H21.375ZM19.3662 18.0403L19.8719 17.4864L19.8718 17.4864L19.3662 18.0403ZM2.625 15.3752H1.875V15.3753L2.625 15.3752ZM16.9702 15.8532L16.4645 16.4071L16.9702 15.8532ZM16.8423 15.9024L16.0973 15.8154L16.8423 15.9024ZM16.8422 8.0963L16.0973 8.18349L16.8422 8.0963ZM16.9701 8.14547L16.4646 7.59144L16.9701 8.14547ZM12.375 4.12524V4.87524C14.296 4.87524 15.8793 6.32056 16.0973 8.18349L16.8422 8.0963L17.5871 8.0091C17.2817 5.40001 15.0666 3.37524 12.375 3.37524V4.12524ZM16.9701 8.14547L17.4756 8.69951L19.8717 6.51327L19.3662 5.95923L18.8607 5.40519L16.4646 7.59144L16.9701 8.14547ZM19.3662 5.95923L19.8717 6.51324C20.1603 6.24993 20.625 6.45451 20.625 6.84595H21.375H22.125C22.125 5.15164 20.1126 4.2628 18.8607 5.40521L19.3662 5.95923ZM21.375 6.84595H20.625V17.1545H21.375H22.125V6.84595H21.375ZM21.375 17.1545L20.625 17.1545C20.625 17.5453 20.1609 17.7503 19.8719 17.4864L19.3662 18.0403L18.8605 18.5942C20.1119 19.7367 22.1249 18.8496 22.125 17.1546L21.375 17.1545ZM19.3662 18.0403L19.8718 17.4864L17.4758 15.2992L16.9702 15.8532L16.4645 16.4071L18.8606 18.5942L19.3662 18.0403ZM16.8423 15.9024L16.0973 15.8154C15.8798 17.6791 14.2963 19.1252 12.375 19.1252V19.8752V20.6252C15.0674 20.6252 17.2826 18.5992 17.5872 15.9893L16.8423 15.9024ZM12.375 19.8752V19.1252H7.125V19.8752V20.6252H12.375V19.8752ZM7.125 19.8752V19.1252C5.05401 19.1252 3.37507 17.4463 3.375 15.3752L2.625 15.3752L1.875 15.3753C1.8751 18.2746 4.22553 20.6252 7.125 20.6252V19.8752ZM2.625 15.3752H3.375V8.62524H2.625H1.875V15.3752H2.625ZM2.625 8.62524H3.375C3.375 6.55418 5.05393 4.87524 7.125 4.87524V4.12524V3.37524C4.22551 3.37524 1.875 5.72575 1.875 8.62524H2.625ZM7.125 4.12524V4.87524H12.375V4.12524V3.37524H7.125V4.12524ZM16.9702 15.8532L17.4758 15.2992C16.9584 14.827 16.1722 15.1735 16.0973 15.8154L16.8423 15.9024L17.5872 15.9893C17.5267 16.5075 16.8899 16.7954 16.4645 16.4071L16.9702 15.8532ZM16.8422 8.0963L16.0973 8.18349C16.1724 8.82523 16.9583 9.1715 17.4756 8.69951L16.9701 8.14547L16.4646 7.59144C16.8899 7.20338 17.5265 7.49105 17.5871 8.0091L16.8422 8.0963Z"
    fill="currentColor"
  />
</svg>
