<svg width="24" height="24" viewBox="0 0 24 24" fill="none" xmlns="http://www.w3.org/2000/svg" data-fui-icon="true">
  <path
    d="M1.21973 2.21973C1.50892 1.93067 1.97492 1.92718 2.26855 2.20899L20.79 20.7305C21.0725 21.0241 21.0696 21.4909 20.7803 21.7803C20.4874 22.073 20.0126 22.0729 19.7197 21.7803L16.826 18.8865C16.7041 18.7647 16.5054 18.7709 16.3835 18.8926C15.3887 19.8853 14.0164 20.5 12.5 20.5H6.5C3.46254 20.5 1.00017 18.0374 1 15V9.00001C1.00005 7.48361 1.61385 6.1105 2.60645 5.11559C2.72815 4.9936 2.73436 4.79491 2.61252 4.67307L1.21973 3.28028C0.926926 2.98743 0.926983 2.51262 1.21973 2.21973ZM4.09672 6.15728C3.98592 6.04648 3.80759 6.03879 3.69586 6.14866C2.95802 6.8742 2.50005 7.88348 2.5 9.00001V15C2.50017 17.209 4.29097 19 6.5 19H12.5C13.6165 19 14.6258 18.542 15.3513 17.8041C15.4612 17.6924 15.4535 17.5141 15.3427 17.4033L4.09672 6.15728ZM12.5 3.50001C15.0114 3.50006 17.1279 5.18385 17.7861 7.48381C17.8509 7.71053 18.1355 7.80528 18.3097 7.64635L20.0684 6.042C21.1916 5.01686 22.9977 5.81335 22.998 7.33399V16.6758C22.9973 18.0515 21.5188 18.8336 20.4054 18.2105C20.3833 18.1982 20.363 18.1823 20.3451 18.1644L16.5879 14.4072C16.5316 14.351 16.5 14.2746 16.5 14.1951V9.00001C16.4999 6.79099 14.709 5.00007 12.5 5.00001H7.30493C7.22536 5.00001 7.14906 4.9684 7.0928 4.91214L6.1614 3.98075C5.98627 3.80561 6.08779 3.51052 6.33534 3.50264C6.39002 3.5009 6.44491 3.50001 6.5 3.50001H12.5ZM21.498 7.33399C21.4977 7.117 21.2395 7.00307 21.0791 7.14942L18.0059 9.95606C18.0025 9.95902 18 9.96253 18 9.96702V14.0412C18 14.0461 18.0023 14.0504 18.0059 14.0537L21.0791 16.8604C21.2394 17.0061 21.4973 16.8923 21.498 16.6758V7.33399Z"
    fill="currentColor"
  />
</svg>
