<svg width="20" height="20" viewBox="0 0 20 20" fill="none" xmlns="http://www.w3.org/2000/svg" data-fui-icon="true">
  <path
    d="M10 2.75C12.1694 2.75 14.0149 4.1321 14.707 6.06348L15.6504 5.20215C16.9336 4.02879 18.9996 4.93898 19 6.67773V13.3262C19 15.0653 16.9337 15.9755 15.6504 14.8018L14.7061 13.9385C14.0134 15.8688 12.1687 17.25 10 17.25H6C3.23858 17.25 1 15.0114 1 12.25V7.75C1 4.98858 3.23858 2.75 6 2.75H10ZM6 4.75C4.34315 4.75 3 6.09315 3 7.75V12.25C3 13.9069 4.34315 15.25 6 15.25H10C11.6569 15.25 13 13.9069 13 12.25V7.75C13 6.09315 11.6569 4.75 10 4.75H6ZM15 8.50684V11.4971L17 13.3262V6.67773L15 8.50684Z"
    fill="currentColor"
  />
</svg>
