<svg width="20" height="20" viewBox="0 0 20 20" fill="none" xmlns="http://www.w3.org/2000/svg" data-fui-icon="true">
  <path
    d="M10.25 3C12.4455 3 14.2917 4.48999 14.8359 6.51367L16.0693 5.38672C17.1922 4.36018 18.9996 5.1564 19 6.67773V13.3262C19 14.8477 17.1923 15.6446 16.0693 14.6182L14.835 13.4893C14.2897 15.5114 12.4445 17 10.25 17H5.75C3.12665 17 1 14.8734 1 12.25V7.75C1 5.12665 3.12665 3 5.75 3H10.25ZM5.75 4.5C3.95507 4.5 2.5 5.95507 2.5 7.75V12.25C2.5 14.0449 3.95507 15.5 5.75 15.5H10.25C12.0449 15.5 13.5 14.0449 13.5 12.25V7.75C13.5 5.95507 12.0449 4.5 10.25 4.5H5.75ZM8 6C8.41421 6 8.75 6.33579 8.75 6.75V9.25H11.25C11.6642 9.25 12 9.58579 12 10C12 10.4142 11.6642 10.75 11.25 10.75H8.75V13.25C8.75 13.6642 8.41421 14 8 14C7.58579 14 7.25 13.6642 7.25 13.25V10.75H4.75C4.33579 10.75 4 10.4142 4 10C4 9.58579 4.33579 9.25 4.75 9.25H7.25V6.75C7.25 6.33579 7.58579 6 8 6ZM17.5 6.67773C17.4996 6.4607 17.2414 6.34675 17.0811 6.49316L15.0059 8.3916C15.0042 8.39314 15.0017 8.39399 15 8.39551V11.6084C15.0019 11.6101 15.004 11.6116 15.0059 11.6133L17.0811 13.5107C17.2415 13.6575 17.5 13.5436 17.5 13.3262V6.67773Z"
    fill="currentColor"
  />
</svg>
