<svg width="32" height="32" viewBox="0 0 32 32" fill="none" xmlns="http://www.w3.org/2000/svg" data-fui-icon="true">
  <path
    d="M16.2725 4.75C20.0248 4.75016 23.1084 7.60976 23.4648 11.2686L27.5977 8.09277C28.9878 7.02425 31 8.01519 31 9.76855V22.3145C30.9997 24.0441 29.0352 25.0412 27.6387 24.0205L23.4385 20.9502C22.9829 24.5035 19.9496 27.2498 16.2725 27.25H8.22754C4.23595 27.2498 1.00017 24.014 1 20.0225V11.9775C1.00017 7.98595 4.23595 4.75017 8.22754 4.75H16.2725ZM12.25 9.75C11.8358 9.75 11.5 10.0858 11.5 10.5V15.25H6.75C6.33579 15.25 6 15.5858 6 16C6 16.4142 6.33579 16.75 6.75 16.75H11.5V21.5C11.5 21.9142 11.8358 22.25 12.25 22.25C12.6642 22.25 13 21.9142 13 21.5V16.75H17.75C18.1642 16.75 18.5 16.4142 18.5 16C18.5 15.5858 18.1642 15.25 17.75 15.25H13V10.5C13 10.0858 12.6642 9.75 12.25 9.75Z"
    fill="currentColor"
  />
</svg>
