<svg width="12" height="12" viewBox="0 0 12 12" fill="none" xmlns="http://www.w3.org/2000/svg" data-fui-icon="true">
  <path
    fill-rule="evenodd"
    clip-rule="evenodd"
    d="M0.292969 0.29287C0.683488 -0.0976232 1.31651 -0.0976235 1.70703 0.29287L2.04492 0.630761C2.06628 0.656942 2.08888 0.682526 2.11328 0.706932L11.7754 10.369C12.0957 10.7618 12.0731 11.3408 11.707 11.7069C11.3165 12.0974 10.6835 12.0974 10.293 11.7069L8.304 9.71796C8.1853 9.59926 7.99311 9.60223 7.86596 9.71184C7.29755 10.2019 6.5594 10.4999 5.75 10.4999H3.25C1.45511 10.4999 6.44241e-05 9.04477 0 7.2499V4.7499C1.14516e-05 3.94052 0.297304 3.20159 0.787131 2.633C0.896694 2.50582 0.89966 2.31362 0.780962 2.19493L0.292969 1.70693C-0.0975121 1.31643 -0.0974852 0.683391 0.292969 0.29287ZM2.61325 4.02722C2.50008 3.91404 2.31425 3.90798 2.22284 4.03936C2.08256 4.24099 2.00001 4.48562 2 4.7499V7.2499C2.00006 7.9402 2.55968 8.4999 3.25 8.4999H5.75C6.01431 8.4999 6.25842 8.41685 6.45975 8.27629C6.59098 8.18467 6.58489 7.99885 6.47172 7.88568L2.61325 4.02722ZM5.75 1.4999C6.88372 1.4999 7.88094 2.08081 8.46229 2.96087C8.56469 3.11589 8.77729 3.16582 8.92598 3.05442L9.59961 2.54971L9.69434 2.48428C10.6761 1.85311 12 2.55268 12 3.7499V7.04126C12 7.30853 11.6769 7.44238 11.4879 7.25339L10.0879 5.85339C10.0316 5.79713 10 5.72083 10 5.64126V5.25543C10 5.0467 9.76173 4.92753 9.59471 5.05272C9.49385 5.12832 9.35275 5.11828 9.26362 5.02915L5.74542 1.51095C5.74135 1.50687 5.74423 1.4999 5.75 1.4999Z"
    fill="currentColor"
  />
</svg>
