<svg width="20" height="20" viewBox="0 0 20 20" fill="none" xmlns="http://www.w3.org/2000/svg" data-fui-icon="true">
  <path
    fill-rule="evenodd"
    clip-rule="evenodd"
    d="M1.21973 1.21979C1.50891 0.930611 1.97488 0.927203 2.26855 1.20905L18.7197 17.6602C18.7232 17.6636 18.727 17.6666 18.7305 17.67L18.7803 17.7198C19.073 18.0127 19.0731 18.4875 18.7803 18.7803C18.4874 19.073 18.0126 19.073 17.7197 18.7803L14.2889 15.3495C14.16 15.2206 13.9474 15.2361 13.8274 15.3734C12.9568 16.3699 11.6772 17.0001 10.25 17.0001H5.75C3.12675 17.0001 1.00016 14.8733 1 12.2501V7.75006C1 6.3229 1.62937 5.04243 2.62574 4.17166C2.76299 4.05171 2.77844 3.83905 2.64956 3.71017L1.21973 2.28034C0.926885 1.98749 0.926986 1.51269 1.21973 1.21979ZM4.14232 5.20293C4.04179 5.1024 3.88353 5.08509 3.77083 5.17175C2.99806 5.76592 2.5 6.69995 2.5 7.75006V12.2501C2.50016 14.0448 3.95518 15.5001 5.75 15.5001H10.25C11.3002 15.5001 12.2333 15.0012 12.8274 14.2283C12.914 14.1155 12.8967 13.9573 12.7962 13.8568L4.14232 5.20293ZM10.25 3.00006C12.2723 3.00006 13.9981 4.2641 14.6832 6.045C14.7639 6.25485 15.034 6.3328 15.2 6.18113L16.0693 5.38678C17.1922 4.36019 18.9997 5.15641 19 6.6778V13.8897C18.9999 14.3409 18.8408 14.7249 18.5895 15.018C18.4878 15.1366 18.3084 15.1278 18.1979 15.0173L17.543 14.3624C17.4402 14.2596 17.4997 14.0351 17.5 13.8897V6.6778C17.4997 6.46071 17.2414 6.34676 17.0811 6.49323L15.0059 8.39166C15.0025 8.39462 15 8.39814 15 8.40262V11.0951C15 11.3624 14.6769 11.4963 14.4879 11.3073L13.5879 10.4073C13.5316 10.351 13.5 10.2747 13.5 10.1951V7.75006C13.5 5.95514 12.0449 4.50006 10.25 4.50006H7.80493C7.72536 4.50006 7.64906 4.46846 7.5928 4.41219L6.6928 3.51219C6.50381 3.32321 6.63766 3.00006 6.90493 3.00006H10.25Z"
    fill="currentColor"
  />
</svg>
