<svg width="24" height="24" viewBox="0 0 24 24" fill="none" xmlns="http://www.w3.org/2000/svg" data-fui-icon="true">
  <path
    fill-rule="evenodd"
    clip-rule="evenodd"
    d="M1.43945 1.43956C2.02522 0.85379 2.97476 0.853821 3.56055 1.43956L3.56738 1.4464C3.5994 1.48564 3.63334 1.52407 3.66992 1.56065L22.665 20.5558C23.1437 21.1449 23.109 22.0122 22.5605 22.5607C21.9748 23.1462 21.0252 23.1463 20.4395 22.5607L16.8453 18.9665C16.7217 18.8429 16.5196 18.8513 16.3986 18.9775C15.3523 20.069 13.8814 20.7501 12.25 20.7501H6.75C3.57456 20.75 1.00015 18.1755 1 15.0001V9.00011C1 7.48917 1.58361 6.11504 2.5368 5.08894C2.65083 4.96619 2.65296 4.77417 2.5345 4.6557L1.43945 3.56065C0.853797 2.97495 0.853932 2.02535 1.43945 1.43956ZM12.25 3.25011C14.7864 3.25011 16.9378 4.89273 17.7015 7.172C17.7754 7.39252 18.0577 7.47453 18.2252 7.31317L19.6104 5.97862C20.8805 4.75512 22.9977 5.65544 22.998 7.41905V16.589C22.998 16.6093 22.9704 16.6189 22.956 16.6046L10.1137 3.76224C9.92471 3.57325 10.0586 3.25011 10.3258 3.25011H12.25Z"
    fill="currentColor"
  />
</svg>
