<svg width="32" height="32" viewBox="0 0 32 32" fill="none" xmlns="http://www.w3.org/2000/svg" data-fui-icon="true">
  <path
    d="M16.5225 4.5C20.1816 4.50015 23.2245 7.12887 23.8711 10.6006L27.1641 7.97949C28.7127 6.7467 31 7.84971 31 9.8291V22.2568C31 24.2095 28.7669 25.3201 27.21 24.1416L23.834 21.5869C23.1145 24.9653 20.1154 27.4999 16.5225 27.5H8.47754C4.34788 27.4998 1.00017 24.1521 1 20.0225V11.9775C1.00017 7.84788 4.34788 4.50017 8.47754 4.5H16.5225ZM12.25 9.5C11.6977 9.5 11.25 9.94772 11.25 10.5V15H6.75C6.19772 15 5.75 15.4477 5.75 16C5.75 16.5523 6.19772 17 6.75 17H11.25V21.5C11.25 22.0523 11.6977 22.5 12.25 22.5C12.8023 22.5 13.25 22.0523 13.25 21.5V17H17.75C18.3023 17 18.75 16.5523 18.75 16C18.75 15.4477 18.3023 15 17.75 15H13.25V10.5C13.25 9.94772 12.8023 9.5 12.25 9.5Z"
    fill="currentColor"
  />
</svg>
