<svg width="12" height="12" viewBox="0 0 12 12" fill="none" xmlns="http://www.w3.org/2000/svg" data-fui-icon="true">
  <path
    fill-rule="evenodd"
    clip-rule="evenodd"
    d="M0.366211 0.366137C0.83743 -0.104929 1.59029 -0.120164 2.08105 0.318285L11.6768 9.91399C12.1202 10.4046 12.1066 11.1608 11.6338 11.6337C11.1456 12.1218 10.3544 12.1218 9.86621 11.6337L8.10741 9.87491C7.99502 9.76253 7.8153 9.75856 7.68801 9.85373C7.14697 10.2583 6.47756 10.4999 5.75 10.4999H3.25C1.45517 10.4998 4.22597e-05 9.04476 0 7.24993V4.74993C6.50879e-05 4.02246 0.240947 3.35219 0.645252 2.81098C0.740373 2.68365 0.736419 2.50392 0.624033 2.39154L0.366211 2.13371C-0.121784 1.64556 -0.121857 0.854246 0.366211 0.366137ZM8.24489 2.94697C8.00905 2.71112 8.15091 2.53598 8.35095 2.80287C8.38957 2.8544 8.42671 2.90712 8.46228 2.96097C8.5647 3.11596 8.77727 3.16585 8.92595 3.05446L9.59961 2.54973L9.69434 2.4843C10.676 1.85331 11.9998 2.55291 12 3.74993V5.97781C12 6.24508 11.6769 6.37893 11.4879 6.18994L8.24489 2.94697Z"
    fill="currentColor"
  />
</svg>
