<svg width="16" height="16" viewBox="0 0 16 16" fill="none" xmlns="http://www.w3.org/2000/svg" data-fui-icon="true">
  <path
    fill-rule="evenodd"
    clip-rule="evenodd"
    d="M1.29297 1.29352C1.6578 0.928693 2.23428 0.904433 2.62695 1.22126L14.1133 12.7076C14.1377 12.732 14.1633 12.7546 14.1895 12.7759L14.707 13.2935C15.0973 13.6841 15.0975 14.3171 14.707 14.7076C14.3166 15.0978 13.6834 15.0978 13.293 14.7076L11.2153 12.6299C11.0932 12.5078 10.8942 12.5146 10.7697 12.6342C10.051 13.325 9.07549 13.7505 8 13.7506H5C2.79102 13.7506 1.00025 11.9595 1 9.75055V6.25055C1 5.2926 1.33699 4.4132 1.89862 3.72445C2.00119 3.59866 1.9995 3.41412 1.88473 3.29935L1.29297 2.70759C0.902522 2.31714 0.902679 1.68407 1.29297 1.29352ZM3.73161 5.14623C3.60963 5.02425 3.40803 5.02924 3.31495 5.17447C3.11585 5.48512 3 5.85424 3 6.25055V9.75055C3.00025 10.8549 3.89559 11.7506 5 11.7506H8C8.54206 11.7505 9.03242 11.5335 9.39223 11.1829C9.50108 11.0768 9.48938 10.904 9.38192 10.7965L3.73161 5.14623ZM8 2.25055C9.46029 2.25058 10.7369 3.03334 11.4351 4.20198C11.5388 4.37564 11.7779 4.42379 11.9275 4.28761L11.9854 4.23493L12.0957 4.14118C13.255 3.23203 14.9988 4.04868 14.999 5.56403V10.4371C14.999 10.5636 14.8477 10.6139 14.7582 10.5244L13.0869 8.85307C13.0306 8.79681 12.999 8.7205 12.999 8.64094V6.69679C12.999 6.43612 12.6895 6.29948 12.4969 6.47514L12.0957 6.84101C12.0347 6.89661 12 6.9753 12 7.05781C12 7.31921 11.6839 7.45013 11.4991 7.26528L9.97095 5.73713C9.93554 5.70172 9.90999 5.65785 9.89397 5.6104C9.69486 5.02068 9.22905 4.55452 8.63925 4.3556C8.59176 4.33959 8.54784 4.31402 8.5124 4.27858L6.99651 2.76269C6.80752 2.5737 6.94137 2.25055 7.20864 2.25055H8Z"
    fill="currentColor"
  />
</svg>
