<svg width="16" height="16" viewBox="0 0 16 16" fill="none" xmlns="http://www.w3.org/2000/svg" data-fui-icon="true">
  <path
    d="M1.29297 1.29336C1.6578 0.928531 2.23428 0.904271 2.62695 1.2211L14.1133 12.7074C14.1377 12.7318 14.1633 12.7544 14.1895 12.7758L14.707 13.2934C15.0973 13.6839 15.0975 14.317 14.707 14.7074C14.3166 15.0976 13.6834 15.0976 13.293 14.7074L11.2153 12.6297C11.0932 12.5076 10.8942 12.5144 10.7697 12.634C10.051 13.3248 9.07549 13.7504 8 13.7504H5C2.79102 13.7504 1.00025 11.9593 1 9.75039V6.25039C1 5.29244 1.33699 4.41304 1.89862 3.72429C2.00119 3.5985 1.9995 3.41396 1.88473 3.29919L1.29297 2.70742C0.902522 2.31698 0.902679 1.6839 1.29297 1.29336ZM3.73161 5.14607C3.60963 5.02409 3.40803 5.02908 3.31495 5.17431C3.11585 5.48496 3 5.85408 3 6.25039V9.75039C3.00025 10.8547 3.89559 11.7504 5 11.7504H8C8.54206 11.7504 9.03242 11.5333 9.39223 11.1827C9.50108 11.0766 9.48938 10.9038 9.38192 10.7964L3.73161 5.14607ZM8 2.25039C9.46029 2.25042 10.7369 3.03317 11.4351 4.20182C11.5388 4.37548 11.7779 4.42363 11.9275 4.28745L11.9854 4.23477L12.0957 4.14102C13.255 3.23187 14.9988 4.04852 14.999 5.56387V10.4369C14.999 10.5635 14.8477 10.6137 14.7582 10.5243L13.0869 8.85291C13.0306 8.79665 12.999 8.72034 12.999 8.64078V6.69663C12.999 6.43596 12.6895 6.29932 12.4969 6.47497L12.0957 6.84085C12.0347 6.89645 12 6.97514 12 7.05765C12 7.31905 11.6839 7.44997 11.4991 7.26512L9.97095 5.73697C9.93554 5.70156 9.90999 5.65768 9.89397 5.61024C9.69486 5.02052 9.22905 4.55436 8.63925 4.35544C8.59176 4.33942 8.54784 4.31386 8.5124 4.27841L6.99651 2.76253C6.80752 2.57354 6.94137 2.25039 7.20864 2.25039H8Z"
    fill="currentColor"
  />
</svg>
