<svg width="24" height="24" viewBox="0 0 24 24" fill="none" xmlns="http://www.w3.org/2000/svg" data-fui-icon="true">
  <path
    fill-rule="evenodd"
    clip-rule="evenodd"
    d="M1.28906 1.29647C1.67064 0.911165 2.2879 0.901444 2.68164 1.26912L22.1172 20.5103C22.124 20.5171 22.1317 20.5233 22.1387 20.5299L22.7031 21.0885C23.0955 21.477 23.0994 22.111 22.7109 22.5035C22.3225 22.8958 21.6894 22.8986 21.2969 22.5103L17.2474 18.5012C17.1144 18.3696 16.8951 18.3908 16.7799 18.5382C15.7276 19.8837 14.0906 20.7496 12.25 20.7496H6.75C3.57439 20.7496 1.00004 18.1752 1 14.9996V8.99959C1.00007 7.31462 1.72495 5.79874 2.8798 4.74707C3.01192 4.62675 3.0228 4.41902 2.8958 4.29331L1.29688 2.71053C0.904647 2.32209 0.900937 1.68894 1.28906 1.29647ZM4.74833 6.12794C4.64439 6.02505 4.48051 6.01113 4.36762 6.10411C3.53269 6.79183 3.00007 7.83348 3 8.99959V14.9996C3.00004 17.0706 4.67896 18.7496 6.75 18.7496H12.25C13.5847 18.7496 14.7554 18.0516 15.4198 17.0014C15.4915 16.888 15.4694 16.7411 15.3741 16.6468L4.74833 6.12794ZM12.25 3.24959C14.7861 3.24959 16.9375 4.89194 17.7015 7.17082C17.7754 7.39126 18.0576 7.47326 18.2251 7.31199L19.6104 5.97811C20.8805 4.75505 22.9975 5.65524 22.998 7.41854V16.5885C22.998 17.0498 22.8523 17.4512 22.6154 17.7714C22.5174 17.904 22.3263 17.9031 22.2092 17.7871L21.087 16.6765C21.0301 16.6202 20.998 16.5434 20.998 16.4633V8.12432C20.998 7.85971 20.6804 7.72469 20.4899 7.90831L18.1943 10.1207C18.1773 10.1371 18.1598 10.1527 18.1419 10.1676C18.0596 10.236 18 10.3321 18 10.4392V12.9007C18 13.1672 17.6784 13.3014 17.489 13.1139L16.089 11.7283C16.032 11.6719 16 11.5951 16 11.515V8.99959C15.9999 6.92864 14.321 5.24959 12.25 5.24959H9.66829C9.58926 5.24959 9.51341 5.2184 9.45724 5.1628L8.04289 3.7628C7.85241 3.57426 7.98593 3.24959 8.25393 3.24959H12.25Z"
    fill="currentColor"
  />
</svg>
