<svg width="32" height="32" viewBox="0 0 32 32" fill="none" xmlns="http://www.w3.org/2000/svg" data-fui-icon="true">
  <path
    d="M25.8213 7.94556L26.3269 8.49952L26.3269 8.4995L25.8213 7.94556ZM28.5 9.1272H29.25V9.1271L28.5 9.1272ZM25.8213 24.054L26.327 23.5001L26.327 23.5001L25.8213 24.054ZM3.5 20.5002H2.75V20.5003L3.5 20.5002ZM22.6269 21.1375L22.1212 21.6914L22.6269 21.1375ZM22.4564 21.2031L23.2013 21.29L22.4564 21.2031ZM22.4563 10.7956L21.7114 10.8827L22.4563 10.7956ZM22.6268 10.8611L22.1212 10.3072L22.6268 10.8611ZM16.5 5.50024V6.25024C19.1899 6.25024 21.4063 8.27418 21.7114 10.8827L22.4563 10.7956L23.2012 10.7084C22.8089 7.35373 19.9606 4.75024 16.5 4.75024V5.50024ZM22.6268 10.8611L23.1324 11.4151L26.3269 8.49952L25.8213 7.94556L25.3157 7.3916L22.1212 10.3072L22.6268 10.8611ZM25.8213 7.94556L26.3269 8.4995C26.8724 8.0016 27.7499 8.38859 27.75 9.1273L28.5 9.1272L29.25 9.1271C29.2497 7.08497 26.8241 6.01485 25.3157 7.39161L25.8213 7.94556ZM28.5 9.1272H27.75V22.8723H28.5H29.25V9.1272H28.5ZM28.5 22.8723H27.75C27.75 23.6112 26.8725 23.9982 26.327 23.5001L25.8213 24.054L25.3156 24.6078C26.8241 25.9851 29.25 24.9147 29.25 22.8723H28.5ZM25.8213 24.054L26.327 23.5001L23.1326 20.5836L22.6269 21.1375L22.1212 21.6914L25.3156 24.6078L25.8213 24.054ZM22.4564 21.2031L21.7114 21.1161C21.4069 23.7254 19.1903 25.7502 16.5 25.7502V26.5002V27.2502C19.9613 27.2502 22.8097 24.6455 23.2013 21.29L22.4564 21.2031ZM16.5 26.5002V25.7502H9.5V26.5002V27.2502H16.5V26.5002ZM9.5 26.5002V25.7502C6.60057 25.7502 4.25007 23.3997 4.25 20.5002L3.5 20.5002L2.75 20.5003C2.75009 24.2281 5.77211 27.2502 9.5 27.2502V26.5002ZM3.5 20.5002H4.25V11.5002H3.5H2.75V20.5002H3.5ZM3.5 11.5002H4.25C4.25 8.60075 6.60051 6.25024 9.5 6.25024V5.50024V4.75024C5.77208 4.75024 2.75 7.77232 2.75 11.5002H3.5ZM9.5 5.50024V6.25024H16.5V5.50024V4.75024H9.5V5.50024ZM22.6269 21.1375L23.1326 20.5836C22.5999 20.0973 21.7887 20.4535 21.7114 21.1161L22.4564 21.2031L23.2013 21.29C23.1432 21.7876 22.5312 22.0657 22.1212 21.6914L22.6269 21.1375ZM22.4563 10.7956L21.7114 10.8827C21.7889 11.5451 22.5998 11.9012 23.1324 11.4151L22.6268 10.8611L22.1212 10.3072C22.5312 9.93299 23.1431 10.2109 23.2012 10.7084L22.4563 10.7956Z"
    fill="currentColor"
  />
</svg>
