<svg width="20" height="20" viewBox="0 0 20 20" fill="none" xmlns="http://www.w3.org/2000/svg" data-fui-icon="true">
  <path
    fill-rule="evenodd"
    clip-rule="evenodd"
    d="M1.29297 1.29328C1.6578 0.928448 2.23428 0.904191 2.62695 1.22101L18.1133 16.7073C18.1377 16.7317 18.1633 16.7544 18.1895 16.7757L18.707 17.2933C19.0974 17.6838 19.0975 18.3169 18.707 18.7073C18.3165 19.0977 17.6835 19.0977 17.293 18.7073L14.1665 15.5808C14.0394 15.4538 13.8304 15.4667 13.71 15.6C12.7951 16.6129 11.4723 17.2503 10 17.2503H6C3.23868 17.2503 1.00017 15.0116 1 12.2503V7.75031C1 6.39733 1.53698 5.16917 2.40989 4.26891C2.52909 4.14597 2.53444 3.94881 2.41336 3.82773L1.29297 2.70734C0.902496 2.31687 0.902598 1.68381 1.29297 1.29328ZM4.24976 5.66414C4.13908 5.55345 3.96062 5.54541 3.85138 5.65752C3.32477 6.19798 3 6.93613 3 7.75031V12.2503C3.00017 13.907 4.34325 15.2503 6 15.2503H10C10.9539 15.2503 11.8031 14.8044 12.3524 14.1103C12.4412 13.9982 12.4243 13.8387 12.3232 13.7375L4.24976 5.66414ZM10 2.75031C12.01 2.75031 13.7418 3.93662 14.536 5.64703C14.6262 5.84133 14.8816 5.90444 15.0398 5.76L15.6504 5.20246C16.9337 4.02903 18.9997 4.93922 19 6.67804V13.3265C19 13.6135 18.9425 13.8772 18.8419 14.1129C18.7676 14.287 18.5432 14.3092 18.4095 14.1754L17.0879 12.8538C17.0316 12.7975 17 12.7212 17 12.6417V7.35895C17 7.09808 16.69 6.96152 16.4975 7.13757L15.0975 8.41794C15.0354 8.47477 15 8.55511 15 8.63932V10.0417C15 10.3089 14.6769 10.4428 14.4879 10.2538L13.0879 8.8538C13.0316 8.79754 13 8.72123 13 8.64167V7.75031C13 6.09345 11.6569 4.75031 10 4.75031H9.10864C9.02907 4.75031 8.95277 4.7187 8.89651 4.66244L7.49651 3.26244C7.30752 3.07345 7.44137 2.75031 7.70864 2.75031H10Z"
    fill="currentColor"
  />
</svg>
