<svg width="32" height="32" viewBox="0 0 32 32" fill="none" xmlns="http://www.w3.org/2000/svg" data-fui-icon="true">
  <path
    d="M16.2725 4.75C20.0248 4.75016 23.1084 7.60976 23.4648 11.2686L27.5977 8.09277C28.9878 7.02424 31 8.01519 31 9.76855V22.3145C30.9997 24.0441 29.0352 25.0412 27.6387 24.0205L23.4385 20.9502C22.9829 24.5035 19.9496 27.2498 16.2725 27.25H8.22754C4.23595 27.2498 1.00017 24.014 1 20.0225V11.9775C1.00017 7.98595 4.23595 4.75017 8.22754 4.75H16.2725ZM8.22754 6.25C5.06438 6.25017 2.50017 8.81438 2.5 11.9775V20.0225C2.50017 23.1856 5.06438 25.7498 8.22754 25.75H16.2725C19.4356 25.7498 21.9998 23.1856 22 20.0225V11.9775C21.9998 8.81438 19.4356 6.25017 16.2725 6.25H8.22754ZM29.5 9.76855C29.5 9.25966 28.9163 8.97163 28.5127 9.28125L23.5 13.1338V19.1377L28.5244 22.8096C28.9298 23.1056 29.4997 22.8164 29.5 22.3145V9.76855Z"
    fill="currentColor"
  />
</svg>
