<svg width="24" height="24" viewBox="0 0 24 24" fill="none" xmlns="http://www.w3.org/2000/svg" data-fui-icon="true">
  <path
    fill-rule="evenodd"
    clip-rule="evenodd"
    d="M20.9043 5.85059C22.1122 5.85059 23.3457 6.74962 24 7.65039H23.9893L14.5381 17.0996C13.139 18.4987 10.8484 18.4987 9.44926 17.0996L8.54496 16.1953L17.0889 7.65039C17.1009 7.6348 17.417 7.3252 17.417 7.3252C18.2398 6.54262 19.3272 5.85065 20.9043 5.85059ZM12.3477 5.85059C13.5555 5.85059 14.7891 6.74962 15.4434 7.65039L7.7227 15.3721L4.2725 11.9219L8.54301 7.65039C8.5568 7.6324 8.86039 7.3252 8.86039 7.3252C9.68315 6.54262 10.7706 5.85066 12.3477 5.85059ZM3.81547 5.85059C5.0227 5.85059 6.2559 6.74962 6.9102 7.65039L3.45609 11.1055L3.94408e-05 7.65039C-0.00415858 7.6408 0.328164 7.3252 0.328164 7.3252C1.15095 6.54263 2.23833 5.8506 3.81547 5.85059Z"
    fill="currentColor"
  />
</svg>
