<svg
  width="16"
  height="16"
  viewBox="0 0 16 16"
  fill="none"
  xmlns="http://www.w3.org/2000/svg"
  data-fui-icon="true"
>
  <path
    d="M3.90776 4.92538C3.11911 4.92538 2.57546 5.27143 2.16405 5.66275 2.16405 5.66275 1.99792 5.82018 2.00002 5.82498L3.72784 7.5528 5.45536 5.82498C5.12821 5.37458 4.51139 4.92538 3.90776 4.92538zM8.17421 4.92538C7.38556 4.92538 6.84191 5.27143 6.43049 5.66275 6.43049 5.66275 6.27876 5.81598 6.27187 5.82498L4.13623 7.96091 5.86135 9.68603 9.72181 5.82498C9.39466 5.37458 8.77813 4.92538 8.17421 4.92538zM12.4524 4.92538C11.6638 4.92538 11.1201 5.27143 10.7087 5.66275 10.7087 5.66275 10.5507 5.81718 10.5447 5.82498L6.27249 10.0977 6.72469 10.5499C7.42427 11.2495 8.56945 11.2495 9.26904 10.5499L13.9946 5.82498H14C13.6729 5.37458 13.0563 4.92538 12.4524 4.92538z"
    fill="currentColor"
  />
</svg>
