<svg width="32" height="32" viewBox="0 0 32 32" fill="none" xmlns="http://www.w3.org/2000/svg" data-fui-icon="true">
  <path
    fill-rule="evenodd"
    clip-rule="evenodd"
    d="M27.1309 8.31348C28.6407 8.31348 30.1822 9.43651 31 10.5625H30.9864L19.1729 22.375C17.4239 24.124 14.5605 24.124 12.8116 22.375L11.6817 21.2441L22.3614 10.5625C22.3761 10.5433 22.7583 10.1702 22.7715 10.1572C23.8 9.17896 25.1594 8.31355 27.1309 8.31348ZM16.4356 8.31348C17.9454 8.31348 19.4869 9.43651 20.3047 10.5625L10.6534 20.2148L6.34087 15.9023L11.6797 10.5625C11.6967 10.5404 12.0648 10.1688 12.0762 10.1572C13.1047 9.17893 14.464 8.3135 16.4356 8.31348ZM5.76958 8.31348C7.27863 8.31352 8.82085 9.43653 9.63872 10.5625L5.31939 14.8818L1.00005 10.5625C0.994867 10.5507 1.40013 10.1668 1.41021 10.1572C2.43874 9.17892 3.79797 8.31348 5.76958 8.31348Z"
    fill="currentColor"
  />
</svg>
