<svg width="20" height="20" viewBox="0 0 20 20" fill="none" xmlns="http://www.w3.org/2000/svg" data-fui-icon="true">
  <path
    d="M17.4199 4.87567C18.4264 4.87567 19.4548 5.62406 20 6.37469H19.9902L12.1152 14.2497C10.9493 15.4156 9.03996 15.4156 7.87402 14.2497L7.12109 13.4958L14.2412 6.37469C14.255 6.35811 14.5146 6.10419 14.5146 6.10419C15.2002 5.45223 16.106 4.87578 17.4199 4.87567ZM10.29 4.87567C11.2964 4.87569 12.3239 5.62414 12.8691 6.37469L6.43555 12.8102L3.56055 9.93427L7.11914 6.37469C7.13064 6.3597 7.38379 6.10419 7.38379 6.10419C8.06944 5.45206 8.97576 4.87567 10.29 4.87567ZM3.17969 4.87567C4.18557 4.87577 5.21356 5.62416 5.75879 6.37469L2.87988 9.25458L0 6.37469C0.00110331 6.36262 0.273438 6.10419 0.273438 6.10419C0.959078 5.45209 1.86546 4.87567 3.17969 4.87567Z"
    fill="currentColor"
  />
</svg>
