<svg width="12" height="12" viewBox="0 0 12 12" fill="none" xmlns="http://www.w3.org/2000/svg" data-fui-icon="true">
  <path
    d="M9.33887 3.69403C9.79181 3.69403 10.2546 4.03104 10.5 4.36884H10.4961L6.95215 7.91278C6.42759 8.43734 5.56867 8.43708 5.04395 7.91278L4.7041 7.57294L7.9082 4.36884C7.9127 4.36299 8.03125 4.24677 8.03125 4.24677C8.33974 3.95335 8.74762 3.69415 9.33887 3.69403ZM6.13086 3.69403C6.58371 3.69407 7.04564 4.03111 7.29102 4.36884L4.39648 7.26434L3.10254 5.9704L4.7041 4.36884C4.70927 4.36209 4.82324 4.24677 4.82324 4.24677C5.13177 3.95338 5.53955 3.69403 6.13086 3.69403ZM2.93066 3.69403C3.38338 3.69403 3.84643 4.03104 4.0918 4.36884L2.7959 5.66473L1.5 4.36884C1.49843 4.36524 1.62305 4.24677 1.62305 4.24677C1.93156 3.95336 2.33936 3.69408 2.93066 3.69403Z"
    fill="currentColor"
  />
</svg>
