<svg
  width="32"
  height="32"
  viewBox="0 0 32 32"
  fill="none"
  xmlns="http://www.w3.org/2000/svg"
  data-fui-icon="true"
>
  <path
    d="M6.45144 8.82587C4.61127 8.82587 3.34274 9.6333 2.38277 10.5464 2.38277 10.5464 1.99515 10.9137 2.00005 10.9249L6.03163 14.9565 10.0625 10.9249C9.29915 9.87399 7.8599 8.82587 6.45144 8.82587zM16.4065 8.82587C14.5664 8.82587 13.2978 9.6333 12.3379 10.5464 12.3379 10.5464 11.9838 10.9039 11.9677 10.9249L6.98459 15.9088 11.0099 19.9341 20.0176 10.9249C19.2543 9.87399 17.8157 8.82587 16.4065 8.82587zM26.3889 8.82587C24.5488 8.82587 23.2802 9.6333 22.3203 10.5464 22.3203 10.5464 21.9515 10.9067 21.9375 10.9249L11.9691 20.8947 13.0243 21.9498C14.6566 23.5822 17.3287 23.5822 18.9611 21.9498L29.9874 10.9249H30C29.2367 9.87399 27.7981 8.82587 26.3889 8.82587z"
    fill="currentColor"
  />
</svg>
