<svg
  width="32"
  height="32"
  viewBox="0 0 32 32"
  fill="none"
  xmlns="http://www.w3.org/2000/svg"
  data-fui-icon="true"
>
  <path
    d="M6.45144 8.82585C4.61127 8.82585 3.34274 9.63329 2.38277 10.5464 2.38277 10.5464 1.99515 10.9137 2.00005 10.9249L6.03163 14.9565 10.0625 10.9249C9.29915 9.87398 7.8599 8.82585 6.45144 8.82585zM16.4065 8.82585C14.5664 8.82585 13.2978 9.63329 12.3379 10.5464 12.3379 10.5464 11.9838 10.9039 11.9677 10.9249L6.98458 15.9088 11.0099 19.934 20.0176 10.9249C19.2542 9.87398 17.8157 8.82585 16.4065 8.82585zM26.3889 8.82585C24.5488 8.82585 23.2802 9.63329 22.3203 10.5464 22.3203 10.5464 21.9515 10.9067 21.9376 10.9249L11.9692 20.8947 13.0243 21.9498C14.6566 23.5822 17.3287 23.5822 18.9611 21.9498L29.9874 10.9249H30C29.2367 9.87398 27.7981 8.82585 26.3889 8.82585z"
    fill="currentColor"
  />
</svg>
