<svg width="20" height="20" viewBox="0 0 20 20" fill="none" xmlns="http://www.w3.org/2000/svg" data-fui-icon="true">
  <path
    d="M17.4199 4.87561C18.4264 4.87561 19.4548 5.624 20 6.37463H19.9902L12.1152 14.2496C10.9493 15.4156 9.03996 15.4156 7.87402 14.2496L7.12109 13.4957L14.2412 6.37463C14.255 6.35805 14.5146 6.10413 14.5146 6.10413C15.2002 5.45217 16.106 4.87572 17.4199 4.87561ZM10.29 4.87561C11.2964 4.87563 12.3239 5.62408 12.8691 6.37463L6.43555 12.8102L3.56055 9.9342L7.11914 6.37463C7.13064 6.35964 7.38379 6.10413 7.38379 6.10413C8.06944 5.45199 8.97576 4.87561 10.29 4.87561ZM3.17969 4.87561C4.18557 4.87571 5.21356 5.62409 5.75879 6.37463L2.87988 9.25452L0 6.37463C0.00110331 6.36256 0.273438 6.10413 0.273438 6.10413C0.959078 5.45203 1.86546 4.87561 3.17969 4.87561Z"
    fill="currentColor"
  />
</svg>
