<svg width="20" height="20" viewBox="0 0 20 20" fill="none" xmlns="http://www.w3.org/2000/svg" data-fui-icon="true">
  <path
    d="M4.54368 5.90051C3.49215 5.90051 2.76728 6.3619 2.21873 6.88367 2.21873 6.88367 1.99723 7.09357 2.00003 7.09997L4.30379 9.40373 6.60715 7.09997C6.17094 6.49944 5.34851 5.90051 4.54368 5.90051zM10.2322 5.90051C9.18071 5.90051 8.45584 6.3619 7.90729 6.88367 7.90729 6.88367 7.70498 7.08798 7.69578 7.09997L4.84827 9.94789 7.14843 12.248 12.2957 7.09997C11.8595 6.49944 11.0375 5.90051 10.2322 5.90051zM15.9365 5.90051C14.885 5.90051 14.1601 6.3619 13.6116 6.88367 13.6116 6.88367 13.4009 7.08958 13.3929 7.09997L7.69666 12.797 8.29958 13.3999C9.23236 14.3327 10.7593 14.3327 11.6921 13.3999L17.9928 7.09997H18C17.5638 6.49944 16.7418 5.90051 15.9365 5.90051z"
    fill="currentColor"
  />
</svg>
