<svg width="24" height="24" viewBox="0 0 24 24" fill="none" xmlns="http://www.w3.org/2000/svg" data-fui-icon="true">
  <path
    d="M12 0.5C18.3513 0.5 23.5 5.64873 23.5 12C23.5 18.3513 18.3513 23.5 12 23.5C5.64873 23.5 0.5 18.3513 0.5 12C0.5 5.64873 5.64873 0.5 12 0.5ZM12 2.5C6.75329 2.5 2.5 6.75329 2.5 12C2.5 17.2467 6.75329 21.5 12 21.5C17.2467 21.5 21.5 17.2467 21.5 12C21.5 6.75329 17.2467 2.5 12 2.5ZM14.2979 8.28809C14.6884 7.89756 15.3214 7.89756 15.7119 8.28809C16.1023 8.67862 16.1024 9.31168 15.7119 9.70215L13.4141 12L15.7119 14.2979C16.1024 14.6883 16.1023 15.3214 15.7119 15.7119C15.3214 16.1024 14.6884 16.1024 14.2979 15.7119L12 13.4141L9.70117 15.7119C9.31065 16.1024 8.67763 16.1024 8.28711 15.7119C7.89691 15.3214 7.89669 14.6883 8.28711 14.2979L10.5859 12L8.28711 9.70215C7.89669 9.31173 7.89691 8.67864 8.28711 8.28809C8.67763 7.89756 9.31065 7.89756 9.70117 8.28809L12 10.5859L14.2979 8.28809Z"
    fill="currentColor"
  />
</svg>
