<svg width="32" height="32" viewBox="0 0 32 32" fill="none" xmlns="http://www.w3.org/2000/svg" data-fui-icon="true">
  <path
    d="M16 1C24.2843 1 31 7.71573 31 16C31 24.2843 24.2843 31 16 31C7.71573 31 1 24.2843 1 16C1 7.71573 7.71573 1 16 1ZM16 2.5C8.54416 2.5 2.5 8.54416 2.5 16C2.5 23.4558 8.54416 29.5 16 29.5C23.4558 29.5 29.5 23.4558 29.5 16C29.5 8.54416 23.4558 2.5 16 2.5ZM20.4189 10.5195C20.7118 10.2266 21.1876 10.2266 21.4805 10.5195C21.7733 10.8124 21.7733 11.2882 21.4805 11.5811L17.0605 16L21.4805 20.4189C21.7734 20.7118 21.7734 21.1876 21.4805 21.4805C21.1876 21.7734 20.7118 21.7734 20.4189 21.4805L16 17.0605L11.5811 21.4805C11.2882 21.7733 10.8124 21.7733 10.5195 21.4805C10.2266 21.1876 10.2266 20.7118 10.5195 20.4189L14.9395 16L10.5195 11.5811C10.2266 11.2882 10.2266 10.8124 10.5195 10.5195C10.8124 10.2266 11.2882 10.2266 11.5811 10.5195L16 14.9395L20.4189 10.5195Z"
    fill="currentColor"
  />
</svg>
