<svg width="20" height="20" viewBox="0 0 20 20" fill="none" xmlns="http://www.w3.org/2000/svg" data-fui-icon="true">
  <path
    d="M10 1C14.9706 1 19 5.02944 19 10C19 14.9706 14.9706 19 10 19C5.02944 19 1 14.9706 1 10C1 5.02944 5.02944 1 10 1ZM10 2.5C5.85786 2.5 2.5 5.85786 2.5 10C2.5 14.1421 5.85786 17.5 10 17.5C14.1421 17.5 17.5 14.1421 17.5 10C17.5 5.85786 14.1421 2.5 10 2.5ZM11.7383 7.14258C12.0311 6.84976 12.5069 6.84992 12.7998 7.14258C13.0924 7.43541 13.0924 7.91028 12.7998 8.20312L11.0029 10L12.7998 11.7969C13.0924 12.0897 13.0924 12.5646 12.7998 12.8574C12.5069 13.1503 12.0312 13.1503 11.7383 12.8574L9.94238 11.0605L8.20312 12.7998C7.91028 13.0924 7.43541 13.0924 7.14258 12.7998C6.84992 12.5069 6.84976 12.0311 7.14258 11.7383L8.88086 10L7.14258 8.26172C6.84968 7.96883 6.84968 7.49309 7.14258 7.2002C7.43541 6.90763 7.91029 6.90763 8.20312 7.2002L9.94238 8.93945L11.7383 7.14258Z"
    fill="currentColor"
  />
</svg>
