<svg width="12" height="12" viewBox="0 0 12 12" fill="none" xmlns="http://www.w3.org/2000/svg" data-fui-icon="true">
  <path
    d="M6 0C9.31371 0 12 2.68629 12 6C12 9.31371 9.31371 12 6 12C2.68629 12 0 9.31371 0 6C0 2.68629 2.68629 0 6 0ZM8.47461 3.52539C8.08409 3.13487 7.45107 3.13487 7.06055 3.52539L6 4.58594L4.93945 3.52539C4.54893 3.13487 3.91591 3.13487 3.52539 3.52539C3.13487 3.91591 3.13487 4.54893 3.52539 4.93945L4.58594 6L3.52539 7.06055C3.13487 7.45107 3.13487 8.08409 3.52539 8.47461C3.91591 8.86513 4.54893 8.86513 4.93945 8.47461L6 7.41406L7.06055 8.47461C7.45107 8.86513 8.08409 8.86513 8.47461 8.47461C8.86513 8.08409 8.86513 7.45107 8.47461 7.06055L7.41406 6L8.47461 4.93945C8.86513 4.54893 8.86513 3.91591 8.47461 3.52539Z"
    fill="currentColor"
  />
</svg>
