<svg width="32" height="32" viewBox="0 0 32 32" fill="none" xmlns="http://www.w3.org/2000/svg" data-fui-icon="true">
  <path
    d="M16 1C24.2843 1 31 7.71573 31 16C31 24.2843 24.2843 31 16 31C7.71573 31 1 24.2843 1 16C1 7.71573 7.71573 1 16 1ZM20.9502 11.0498C20.6573 10.7569 20.1816 10.7569 19.8887 11.0498L16 14.9395L12.1113 11.0498C11.8184 10.7569 11.3427 10.7569 11.0498 11.0498C10.7569 11.3427 10.7569 11.8184 11.0498 12.1113L14.9395 16L11.0498 19.8887C10.7569 20.1816 10.7569 20.6573 11.0498 20.9502C11.3427 21.2431 11.8184 21.2431 12.1113 20.9502L16 17.0605L19.8887 20.9502C20.1816 21.2431 20.6573 21.2431 20.9502 20.9502C21.2431 20.6573 21.2431 20.1816 20.9502 19.8887L17.0605 16L20.9502 12.1113C21.2431 11.8184 21.2431 11.3427 20.9502 11.0498Z"
    fill="currentColor"
  />
</svg>
