<svg width="12" height="12" viewBox="0 0 12 12" fill="none" xmlns="http://www.w3.org/2000/svg" data-fui-icon="true">
  <path
    d="M6 0C9.31371 0 12 2.68629 12 6C12 9.31371 9.31371 12 6 12C2.68629 12 0 9.31371 0 6C0 2.68629 2.68629 0 6 0ZM6 2C3.79086 2 2 3.79086 2 6C2 8.20914 3.79086 10 6 10C8.20914 10 10 8.20914 10 6C10 3.79086 8.20914 2 6 2ZM6.70703 3.87891C7.09756 3.48838 7.73057 3.48838 8.12109 3.87891C8.51162 4.26943 8.51162 4.90244 8.12109 5.29297L7.41406 6L8.12109 6.70703C8.51162 7.09756 8.51162 7.73057 8.12109 8.12109C7.73057 8.51162 7.09756 8.51162 6.70703 8.12109L6 7.41406L5.29297 8.12109C4.90244 8.51162 4.26943 8.51162 3.87891 8.12109C3.48838 7.73057 3.48838 7.09756 3.87891 6.70703L4.58594 6L3.87891 5.29297C3.48838 4.90244 3.48838 4.26943 3.87891 3.87891C4.26943 3.48838 4.90244 3.48838 5.29297 3.87891L6 4.58594L6.70703 3.87891Z"
    fill="currentColor"
  />
</svg>
