<svg width="20" height="20" viewBox="0 0 20 20" fill="none" xmlns="http://www.w3.org/2000/svg" data-fui-icon="true">
  <path
    d="M10 1C14.9706 1 19 5.02944 19 10C19 14.9706 14.9706 19 10 19C5.02944 19 1 14.9706 1 10C1 5.02944 5.02944 1 10 1ZM10 3C6.13401 3 3 6.13401 3 10C3 13.866 6.13401 17 10 17C13.866 17 17 13.866 17 10C17 6.13401 13.866 3 10 3ZM11.5615 6.96582C11.952 6.57537 12.586 6.57553 12.9766 6.96582C13.3668 7.35628 13.3668 7.9894 12.9766 8.37988L11.3564 10L12.9766 11.6201C13.3668 12.0106 13.3668 12.6437 12.9766 13.0342C12.586 13.4247 11.952 13.4247 11.5615 13.0342L9.94238 11.4141L8.37988 12.9766C7.9894 13.3668 7.35628 13.3668 6.96582 12.9766C6.57553 12.586 6.57537 11.952 6.96582 11.5615L8.52734 10L6.96582 8.43848C6.5753 8.04795 6.5753 7.41396 6.96582 7.02344C7.35628 6.63324 7.98942 6.63324 8.37988 7.02344L9.94238 8.58594L11.5615 6.96582Z"
    fill="currentColor"
  />
</svg>
