<svg width="24" height="24" viewBox="0 0 24 24" fill="none" xmlns="http://www.w3.org/2000/svg" data-fui-icon="true">
  <path
    d="M12 0.5C18.3513 0.5 23.5 5.64873 23.5 12C23.5 18.3513 18.3513 23.5 12 23.5C5.64873 23.5 0.5 18.3513 0.5 12C0.5 5.64873 5.64873 0.5 12 0.5ZM15.5352 8.46484C15.2423 8.17195 14.7675 8.17195 14.4746 8.46484L12 10.9395L9.52441 8.46484C9.23152 8.17195 8.75676 8.17195 8.46387 8.46484C8.17129 8.75776 8.17108 9.2326 8.46387 9.52539L10.9395 12L8.46387 14.4746C8.17108 14.7674 8.17129 15.2422 8.46387 15.5352C8.75676 15.828 9.23152 15.828 9.52441 15.5352L12 13.0605L14.4746 15.5352C14.7675 15.828 15.2423 15.828 15.5352 15.5352C15.8279 15.2422 15.828 14.7674 15.5352 14.4746L13.0605 12L15.5352 9.52539C15.828 9.23255 15.8279 8.75775 15.5352 8.46484Z"
    fill="currentColor"
  />
</svg>
