<svg width="24" height="24" viewBox="0 0 24 24" fill="none" xmlns="http://www.w3.org/2000/svg" data-fui-icon="true">
  <path
    d="M12 0C18.6274 0 24 5.37258 24 12C24 18.6274 18.6274 24 12 24C5.37258 24 0 18.6274 0 12C0 5.37258 5.37258 0 12 0ZM12 1.5C6.20101 1.5 1.5 6.20101 1.5 12C1.5 17.799 6.20101 22.5 12 22.5C17.799 22.5 22.5 17.799 22.5 12C22.5 6.20101 17.799 1.5 12 1.5ZM15.1816 7.75781C15.4745 7.46492 15.9493 7.46492 16.2422 7.75781C16.535 8.05071 16.5351 8.52548 16.2422 8.81836L13.0605 12L16.2422 15.1816C16.5351 15.4745 16.5351 15.9493 16.2422 16.2422C15.9493 16.5351 15.4745 16.5351 15.1816 16.2422L12 13.0605L8.81836 16.2422C8.52548 16.5351 8.05071 16.535 7.75781 16.2422C7.46492 15.9493 7.46492 15.4745 7.75781 15.1816L10.9395 12L7.75781 8.81836C7.46492 8.52547 7.46492 8.05071 7.75781 7.75781C8.05071 7.46492 8.52547 7.46492 8.81836 7.75781L12 10.9395L15.1816 7.75781Z"
    fill="currentColor"
  />
</svg>
