<svg width="20" height="20" viewBox="0 0 20 20" fill="none" xmlns="http://www.w3.org/2000/svg" data-fui-icon="true">
  <path
    d="M10 0.5C15.2467 0.5 19.5 4.75329 19.5 10C19.5 15.2467 15.2467 19.5 10 19.5C4.75329 19.5 0.5 15.2467 0.5 10C0.5 4.75329 4.75329 0.5 10 0.5ZM10 2.5C5.85786 2.5 2.5 5.85786 2.5 10C2.5 14.1421 5.85786 17.5 10 17.5C14.1421 17.5 17.5 14.1421 17.5 10C17.5 5.85786 14.1421 2.5 10 2.5ZM11.5615 6.96582C11.952 6.57539 12.585 6.57558 12.9756 6.96582C13.3661 7.35634 13.3661 7.98936 12.9756 8.37988L11.3555 10L12.9756 11.6201C13.3661 12.0106 13.3661 12.6437 12.9756 13.0342C12.5851 13.4247 11.952 13.4247 11.5615 13.0342L9.94141 11.4141L8.37988 12.9766C7.98936 13.3671 7.35537 13.3671 6.96484 12.9766C6.5746 12.586 6.57441 11.952 6.96484 11.5615L8.52734 10L6.96484 8.43848C6.57434 8.04797 6.57437 7.41397 6.96484 7.02344C7.35537 6.63297 7.98938 6.63293 8.37988 7.02344L9.94141 8.58594L11.5615 6.96582Z"
    fill="currentColor"
  />
</svg>
