<svg width="24" height="24" viewBox="0 0 24 24" fill="none" xmlns="http://www.w3.org/2000/svg" data-fui-icon="true">
  <path
    d="M12 1C18.0751 1 23 5.92487 23 12C23 18.0751 18.0751 23 12 23C5.92487 23 1 18.0751 1 12C1 5.92487 5.92487 1 12 1ZM12 3C7.02944 3 3 7.02944 3 12C3 16.9706 7.02944 21 12 21C16.9706 21 21 16.9706 21 12C21 7.02944 16.9706 3 12 3ZM14.2979 8.28809C14.6884 7.89756 15.3214 7.89756 15.7119 8.28809C16.1024 8.67861 16.1024 9.31162 15.7119 9.70215L13.4141 12L15.7119 14.2979C16.1024 14.6884 16.1024 15.3214 15.7119 15.7119C15.3214 16.1024 14.6884 16.1024 14.2979 15.7119L12 13.4141L9.70215 15.7119C9.31162 16.1024 8.67861 16.1024 8.28809 15.7119C7.89756 15.3214 7.89756 14.6884 8.28809 14.2979L10.5859 12L8.28809 9.70215C7.89756 9.31162 7.89756 8.67861 8.28809 8.28809C8.67861 7.89756 9.31162 7.89756 9.70215 8.28809L12 10.5859L14.2979 8.28809Z"
    fill="currentColor"
  />
</svg>
