<svg width="20" height="20" viewBox="0 0 20 20" fill="none" xmlns="http://www.w3.org/2000/svg" data-fui-icon="true">
  <path
    d="M10 1.4375C14.7289 1.4375 18.5625 5.27106 18.5625 10C18.5625 14.7289 14.7289 18.5625 10 18.5625C5.27106 18.5625 1.4375 14.7289 1.4375 10C1.4375 5.27106 5.27106 1.4375 10 1.4375ZM10 2.9375C6.09949 2.9375 2.9375 6.09949 2.9375 10C2.9375 13.9005 6.09949 17.0625 10 17.0625C13.9005 17.0625 17.0625 13.9005 17.0625 10C17.0625 6.09949 13.9005 2.9375 10 2.9375ZM12.2822 6.65723C12.5751 6.36433 13.0499 6.36433 13.3428 6.65723C13.6357 6.95012 13.6357 7.42488 13.3428 7.71777L11.0605 10L13.3428 12.2822C13.6357 12.5751 13.6357 13.0499 13.3428 13.3428C13.0499 13.6357 12.5751 13.6357 12.2822 13.3428L10 11.0605L7.71777 13.3428C7.42488 13.6357 6.95012 13.6357 6.65723 13.3428C6.36433 13.0499 6.36433 12.5751 6.65723 12.2822L8.93945 10L6.65723 7.71777C6.36433 7.42488 6.36433 6.95012 6.65723 6.65723C6.95012 6.36433 7.42488 6.36433 7.71777 6.65723L10 8.93945L12.2822 6.65723Z"
    fill="currentColor"
  />
</svg>
