<svg width="12" height="12" viewBox="0 0 12 12" fill="none" xmlns="http://www.w3.org/2000/svg" data-fui-icon="true">
  <path
    d="M6 0.5625C9.00305 0.5625 11.4375 2.99695 11.4375 6C11.4375 9.00305 9.00305 11.4375 6 11.4375C2.99695 11.4375 0.5625 9.00305 0.5625 6C0.5625 2.99695 2.99695 0.5625 6 0.5625ZM6 2.0625C3.82538 2.0625 2.0625 3.82538 2.0625 6C2.0625 8.17462 3.82538 9.9375 6 9.9375C8.17462 9.9375 9.9375 8.17462 9.9375 6C9.9375 3.82538 8.17462 2.0625 6 2.0625ZM7.15723 3.78223C7.45012 3.48933 7.92488 3.48933 8.21777 3.78223C8.51067 4.07512 8.51067 4.54988 8.21777 4.84277L7.06055 6L8.21777 7.15723C8.51067 7.45012 8.51067 7.92488 8.21777 8.21777C7.92488 8.51067 7.45012 8.51067 7.15723 8.21777L6 7.06055L4.84277 8.21777C4.54988 8.51067 4.07512 8.51067 3.78223 8.21777C3.48933 7.92488 3.48933 7.45012 3.78223 7.15723L4.93945 6L3.78223 4.84277C3.48933 4.54988 3.48933 4.07512 3.78223 3.78223C4.07512 3.48933 4.54988 3.48933 4.84277 3.78223L6 4.93945L7.15723 3.78223Z"
    fill="currentColor"
  />
</svg>
