<svg width="16" height="16" viewBox="0 0 16 16" fill="none" xmlns="http://www.w3.org/2000/svg" data-fui-icon="true">
  <path
    d="M8 0.5C12.1421 0.5 15.5 3.85786 15.5 8C15.5 12.1421 12.1421 15.5 8 15.5C3.85786 15.5 0.5 12.1421 0.5 8C0.5 3.85786 3.85786 0.5 8 0.5ZM8 2.5C4.96243 2.5 2.5 4.96243 2.5 8C2.5 11.0376 4.96243 13.5 8 13.5C11.0376 13.5 13.5 11.0376 13.5 8C13.5 4.96243 11.0376 2.5 8 2.5ZM9.18457 5.33887C9.57509 4.94869 10.2082 4.94853 10.5986 5.33887C10.989 5.72928 10.9888 6.36238 10.5986 6.75293L9.38281 7.96875L10.5986 9.18457C10.9888 9.57512 10.989 10.2082 10.5986 10.5986C10.2082 10.989 9.57509 10.9888 9.18457 10.5986L7.96875 9.38281L6.75391 10.5986C6.36352 10.989 5.7304 10.9888 5.33984 10.5986C4.94932 10.2081 4.94932 9.57509 5.33984 9.18457L6.55469 7.96875L5.33984 6.75293C4.94932 6.36241 4.94932 5.72939 5.33984 5.33887C5.7304 4.94875 6.36352 4.94848 6.75391 5.33887L7.96875 6.55469L9.18457 5.33887Z"
    fill="currentColor"
  />
</svg>
