<svg width="16" height="16" viewBox="0 0 16 16" fill="none" xmlns="http://www.w3.org/2000/svg" data-fui-icon="true">
  <path
    d="M8 0.5C12.1421 0.5 15.5 3.85786 15.5 8C15.5 12.1421 12.1421 15.5 8 15.5C3.85786 15.5 0.5 12.1421 0.5 8C0.5 3.85786 3.85786 0.5 8 0.5ZM10.4219 5.51562C10.1291 5.22292 9.65422 5.22308 9.36133 5.51562L7.96875 6.9082L6.57715 5.51562C6.28439 5.22287 5.80953 5.22314 5.5166 5.51562C5.22371 5.80852 5.22371 6.28328 5.5166 6.57617L6.9082 7.96875L5.5166 9.36133C5.22371 9.65422 5.22371 10.129 5.5166 10.4219C5.80953 10.7144 6.28439 10.7146 6.57715 10.4219L7.96875 9.0293L9.36133 10.4219C9.65422 10.7144 10.1291 10.7146 10.4219 10.4219C10.7147 10.1291 10.7144 9.65425 10.4219 9.36133L9.0293 7.96875L10.4219 6.57617C10.7144 6.28325 10.7147 5.80841 10.4219 5.51562Z"
    fill="currentColor"
  />
</svg>
