<svg width="24" height="24" viewBox="0 0 24 24" fill="none" xmlns="http://www.w3.org/2000/svg" data-fui-icon="true">
  <g clip-path="url(#clip0_7197_920)">
    <path
      d="M12 0C18.6274 0 24 5.37258 24 12C24 18.6274 18.6274 24 12 24C5.37258 24 0 18.6274 0 12C0 5.37258 5.37258 0 12 0ZM16.2422 7.75781C15.9493 7.46492 15.4745 7.46492 15.1816 7.75781L12 10.9395L8.81836 7.75781C8.52547 7.46492 8.05071 7.46492 7.75781 7.75781C7.46492 8.05071 7.46492 8.52547 7.75781 8.81836L10.9395 12L7.75781 15.1816C7.46492 15.4745 7.46492 15.9493 7.75781 16.2422C8.05071 16.535 8.52548 16.5351 8.81836 16.2422L12 13.0605L15.1816 16.2422C15.4745 16.5351 15.9493 16.5351 16.2422 16.2422C16.5351 15.9493 16.5351 15.4745 16.2422 15.1816L13.0605 12L16.2422 8.81836C16.5351 8.52548 16.535 8.05071 16.2422 7.75781Z"
      fill="currentColor"
    />
  </g>
  <defs>
    <clipPath id="clip0_7197_920"><path fill="currentColor" d="M0 0H24V24H0z" /></clipPath>
  </defs>
</svg>
