<svg width="16" height="16" viewBox="0 0 16 16" fill="none" xmlns="http://www.w3.org/2000/svg" data-fui-icon="true">
  <path
    d="M8 0C12.4183 0 16 3.58172 16 8C16 12.4183 12.4183 16 8 16C3.58172 16 0 12.4183 0 8C0 3.58172 3.58172 0 8 0ZM8 1.5C4.41015 1.5 1.5 4.41015 1.5 8C1.5 11.5899 4.41015 14.5 8 14.5C11.5899 14.5 14.5 11.5899 14.5 8C14.5 4.41015 11.5899 1.5 8 1.5ZM9.76758 5.17188C10.0604 4.87906 10.5352 4.87922 10.8281 5.17188C11.121 5.46477 11.121 5.93953 10.8281 6.23242L9.06055 8L10.8281 9.76758C11.121 10.0605 11.121 10.5352 10.8281 10.8281C10.5352 11.121 10.0605 11.121 9.76758 10.8281L8 9.06055L6.23242 10.8281C5.93953 11.121 5.46477 11.121 5.17188 10.8281C4.87922 10.5352 4.87906 10.0604 5.17188 9.76758L6.93945 8L5.17188 6.23242C4.879 5.93954 4.87902 5.46477 5.17188 5.17188C5.46477 4.87898 5.93953 4.87898 6.23242 5.17188L8 6.93945L9.76758 5.17188Z"
    fill="currentColor"
  />
</svg>
