<svg width="24" height="24" viewBox="0 0 24 24" fill="none" xmlns="http://www.w3.org/2000/svg" data-fui-icon="true">
  <path
    d="M12 1C18.0751 1 23 5.92487 23 12C23 18.0751 18.0751 23 12 23C5.92487 23 1 18.0751 1 12C1 5.92487 5.92487 1 12 1ZM15.5352 8.46484C15.2423 8.17195 14.7675 8.17195 14.4746 8.46484L12 10.9395L9.52539 8.46484C9.2325 8.17195 8.75774 8.17195 8.46484 8.46484C8.17195 8.75774 8.17195 9.2325 8.46484 9.52539L10.9395 12L8.46484 14.4746C8.17195 14.7675 8.17195 15.2423 8.46484 15.5352C8.75774 15.828 9.2325 15.828 9.52539 15.5352L12 13.0605L14.4746 15.5352C14.7675 15.828 15.2423 15.828 15.5352 15.5352C15.828 15.2423 15.828 14.7675 15.5352 14.4746L13.0605 12L15.5352 9.52539C15.828 9.2325 15.828 8.75774 15.5352 8.46484Z"
    fill="currentColor"
  />
</svg>
