<svg width="32" height="32" viewBox="0 0 32 32" fill="none" xmlns="http://www.w3.org/2000/svg" data-fui-icon="true">
  <path
    d="M16 0.5C24.5604 0.5 31.5 7.43959 31.5 16C31.5 24.5604 24.5604 31.5 16 31.5C7.43959 31.5 0.5 24.5604 0.5 16C0.5 7.43959 7.43959 0.5 16 0.5ZM21.3916 10.6084C20.8546 10.0714 19.9842 10.0715 19.4473 10.6084L16 14.0557L12.5527 10.6084C12.0158 10.0714 11.1454 10.0714 10.6084 10.6084C10.0715 11.1454 10.0714 12.0158 10.6084 12.5527L14.0557 16L10.6084 19.4473C10.0714 19.9842 10.0714 20.8546 10.6084 21.3916C11.1454 21.9285 12.0158 21.9286 12.5527 21.3916L16 17.9443L19.4473 21.3916C19.9842 21.9285 20.8546 21.9285 21.3916 21.3916C21.9285 20.8546 21.9285 19.9842 21.3916 19.4473L17.9443 16L21.3916 12.5527C21.9285 12.0158 21.9285 11.1454 21.3916 10.6084Z"
    fill="currentColor"
  />
</svg>
