<svg width="32" height="32" viewBox="0 0 32 32" fill="none" xmlns="http://www.w3.org/2000/svg" data-fui-icon="true">
  <path
    d="M16 2.75C23.3178 2.75 29.25 8.68223 29.25 16C29.25 23.3178 23.3178 29.25 16 29.25C8.68223 29.25 2.75 23.3178 2.75 16C2.75 8.68223 8.68223 2.75 16 2.75ZM16 4.25C9.51065 4.25 4.25 9.51065 4.25 16C4.25 22.4893 9.51065 27.75 16 27.75C22.4893 27.75 27.75 22.4893 27.75 16C27.75 9.51065 22.4893 4.25 16 4.25ZM19.9697 10.9697C20.2626 10.6768 20.7374 10.6768 21.0303 10.9697C21.3232 11.2626 21.3232 11.7374 21.0303 12.0303L17.0605 16L21.0303 19.9697C21.3232 20.2626 21.3232 20.7374 21.0303 21.0303C20.7374 21.3232 20.2626 21.3232 19.9697 21.0303L16 17.0605L12.0303 21.0303C11.7374 21.3232 11.2626 21.3232 10.9697 21.0303C10.6768 20.7374 10.6768 20.2626 10.9697 19.9697L14.9395 16L10.9697 12.0303C10.6768 11.7374 10.6768 11.2626 10.9697 10.9697C11.2626 10.6768 11.7374 10.6768 12.0303 10.9697L16 14.9395L19.9697 10.9697Z"
    fill="currentColor"
  />
</svg>
