<svg width="20" height="20" viewBox="0 0 20 20" fill="none" xmlns="http://www.w3.org/2000/svg" data-fui-icon="true">
  <path
    d="M10 0C15.5228 0 20 4.47715 20 10C20 15.5228 15.5228 20 10 20C4.47715 20 0 15.5228 0 10C0 4.47715 4.47715 0 10 0ZM13.3584 6.6416C13.0655 6.34871 12.5907 6.34871 12.2979 6.6416L10 8.93945L7.70215 6.6416C7.40926 6.34871 6.93449 6.34871 6.6416 6.6416C6.34871 6.93449 6.34871 7.40926 6.6416 7.70215L8.93945 10L6.6416 12.2979C6.34871 12.5907 6.34871 13.0655 6.6416 13.3584C6.9345 13.6513 7.40927 13.6513 7.70215 13.3584L10 11.0605L12.2979 13.3584C12.5907 13.6513 13.0655 13.6513 13.3584 13.3584C13.6513 13.0655 13.6513 12.5907 13.3584 12.2979L11.0605 10L13.3584 7.70215C13.6513 7.40927 13.6513 6.9345 13.3584 6.6416Z"
    fill="currentColor"
  />
</svg>
