<svg width="32" height="32" viewBox="0 0 32 32" fill="none" xmlns="http://www.w3.org/2000/svg" data-fui-icon="true">
  <path
    d="M16 1C24.2843 1 31 7.71573 31 16C31 24.2843 24.2843 31 16 31C7.71573 31 1 24.2843 1 16C1 7.71573 7.71573 1 16 1ZM16 3C8.8203 3 3 8.8203 3 16C3 23.1797 8.8203 29 16 29C23.1797 29 29 23.1797 29 16C29 8.8203 23.1797 3 16 3ZM19.7119 10.873C20.1024 10.4826 20.7364 10.4825 21.127 10.873C21.5174 11.2636 21.5174 11.8976 21.127 12.2881L17.4141 16L21.127 19.7119C21.5174 20.1024 21.5175 20.7364 21.127 21.127C20.7364 21.5174 20.1024 21.5174 19.7119 21.127L16 17.4141L12.2881 21.127C11.8976 21.5175 11.2636 21.5174 10.873 21.127C10.4825 20.7364 10.4825 20.1024 10.873 19.7119L14.5859 16L10.873 12.2881C10.4825 11.8976 10.4826 11.2636 10.873 10.873C11.2636 10.4825 11.8976 10.4825 12.2881 10.873L16 14.5859L19.7119 10.873Z"
    fill="currentColor"
  />
</svg>
