<svg width="16" height="16" viewBox="0 0 16 16" fill="none" xmlns="http://www.w3.org/2000/svg" data-fui-icon="true">
  <path
    d="M10.292 4.29303C10.6825 3.90262 11.3155 3.90272 11.7061 4.29303C12.0964 4.68355 12.0965 5.31663 11.7061 5.70709L9.41406 8.00006L11.7061 10.293C12.0964 10.6835 12.0964 11.3166 11.7061 11.7071C11.3155 12.0973 10.6824 12.0974 10.292 11.7071L7.99902 9.41412L5.70605 11.7071C5.31559 12.0976 4.68253 12.0974 4.29199 11.7071C3.90167 11.3166 3.90154 10.6835 4.29199 10.293L6.58496 8.00006L4.29199 5.70709C3.90147 5.31657 3.90147 4.68258 4.29199 4.29205C4.68244 3.90203 5.31564 3.90198 5.70605 4.29205L7.99902 6.586L10.292 4.29303Z"
    fill="currentColor"
  />
</svg>
