<svg
  width="32"
  height="32"
  viewBox="0 0 32 32"
  fill="none"
  xmlns="http://www.w3.org/2000/svg"
  data-fui-icon="true"
>
  <path
    fill-rule="evenodd"
    clip-rule="evenodd"
    d="M25.1924 7.86822C25.4853 7.57533 25.4853 7.10045 25.1924 6.80756C24.8995 6.51467 24.4246 6.51467 24.1317 6.80756L16 14.9393L7.86828 6.80766C7.57539 6.51477 7.10052 6.51477 6.80762 6.80766C6.51473 7.10056 6.51473 7.57543 6.80762 7.86832L14.9393 16L6.80762 24.1317C6.51473 24.4246 6.51473 24.8994 6.80762 25.1923C7.10052 25.4852 7.57539 25.4852 7.86828 25.1923L16 17.0607L24.1317 25.1924C24.4246 25.4853 24.8995 25.4853 25.1924 25.1924C25.4853 24.8995 25.4853 24.4247 25.1924 24.1318L17.0606 16L25.1924 7.86822Z"
    fill="currentColor"
  />
</svg>
