<svg width="32" height="32" viewBox="0 0 32 32" fill="none" xmlns="http://www.w3.org/2000/svg" data-fui-icon="true">
  <path
    fill-rule="evenodd"
    clip-rule="evenodd"
    d="M21.1161 9.11629C21.6043 8.62843 22.3956 8.62823 22.8837 9.11629C23.3715 9.60436 23.3715 10.3958 22.8837 10.8839L17.7675 16.0001L22.8837 21.1163C23.3715 21.6044 23.3716 22.3958 22.8837 22.8839C22.3956 23.3718 21.6043 23.3717 21.1161 22.8839L15.9999 17.7677L10.8837 22.8839C10.3956 23.3719 9.60427 23.3718 9.1161 22.8839C8.62796 22.3957 8.62797 21.6044 9.1161 21.1163L14.2323 16.0001L9.1161 10.8839C8.62797 10.3957 8.62802 9.60445 9.1161 9.11629C9.60427 8.62828 10.3956 8.62818 10.8837 9.11629L15.9999 14.2325L21.1161 9.11629Z"
    fill="currentColor"
  />
</svg>
