<svg width="32" height="32" viewBox="0 0 32 32" fill="none" xmlns="http://www.w3.org/2000/svg" data-fui-icon="true">
  <path
    fill-rule="evenodd"
    clip-rule="evenodd"
    d="M28.2929 2.29289C28.6834 1.90239 29.3164 1.90241 29.707 2.29289C30.0974 2.68342 30.0974 3.31646 29.707 3.70695L17.414 15.9999L29.707 28.2929C30.0974 28.6834 30.0974 29.3165 29.707 29.707C29.3165 30.0974 28.6834 30.0974 28.2929 29.707L15.9999 17.414L3.70695 29.707C3.31646 30.0974 2.68342 30.0974 2.29289 29.707C1.90237 29.3164 1.90237 28.6834 2.29289 28.2929L14.5859 15.9999L2.29289 3.70695C1.90239 3.31644 1.90242 2.68342 2.29289 2.29289C2.68342 1.90237 3.31643 1.90237 3.70695 2.29289L15.9999 14.5859L28.2929 2.29289Z"
    fill="currentColor"
  />
</svg>
