<svg width="32" height="32" viewBox="0 0 32 32" fill="none" xmlns="http://www.w3.org/2000/svg" data-fui-icon="true">
  <path
    fill-rule="evenodd"
    clip-rule="evenodd"
    d="M9.47063 9.46982C9.76354 9.17711 10.2383 9.17699 10.5312 9.46982L16.0009 14.9395L21.4697 9.46982C21.7624 9.17714 22.2373 9.17737 22.5302 9.46982C22.8229 9.76273 22.823 10.2385 22.5302 10.5313L17.0614 16.0001L22.5302 21.4688C22.823 21.7617 22.8229 22.2365 22.5302 22.5294C22.2373 22.8222 21.7625 22.8223 21.4697 22.5294L16.0009 17.0606L10.5312 22.5304C10.2384 22.8231 9.76353 22.823 9.47063 22.5304C9.17775 22.2375 9.17777 21.7627 9.47063 21.4698L14.9404 16.0001L9.47063 10.5304C9.17776 10.2375 9.17782 9.76272 9.47063 9.46982Z"
    fill="currentColor"
  />
</svg>
