<svg width="16" height="16" viewBox="0 0 16 16" fill="none" xmlns="http://www.w3.org/2000/svg" data-fui-icon="true">
  <path
    fill-rule="evenodd"
    clip-rule="evenodd"
    d="M10.2919 4.29302C10.6824 3.90261 11.3155 3.90272 11.706 4.29302C12.0963 4.68355 12.0964 5.31662 11.706 5.70709L9.41399 8.00006L11.706 10.293C12.0963 10.6835 12.0963 11.3166 11.706 11.7071C11.3155 12.0973 10.6824 12.0974 10.2919 11.7071L7.99895 9.41412L5.70598 11.7071C5.31552 12.0975 4.68246 12.0974 4.29192 11.7071C3.90159 11.3165 3.90146 10.6835 4.29192 10.293L6.58489 8.00006L4.29192 5.70709C3.90139 5.31656 3.90139 4.68257 4.29192 4.29205C4.68237 3.90202 5.31556 3.90198 5.70598 4.29205L7.99895 6.58599L10.2919 4.29302Z"
    fill="currentColor"
  />
</svg>
