<svg width="24" height="24" viewBox="0 0 24 24" fill="none" xmlns="http://www.w3.org/2000/svg" data-fui-icon="true">
  <path
    fill-rule="evenodd"
    clip-rule="evenodd"
    d="M15.9393 5.93953C16.5251 5.35395 17.4747 5.35381 18.0604 5.93953C18.646 6.52526 18.646 7.47486 18.0604 8.06063L14.121 12.0001L18.0604 15.9395C18.646 16.5253 18.646 17.4749 18.0604 18.0606C17.4747 18.6462 16.5251 18.6462 15.9393 18.0606L11.9999 14.1212L8.06043 18.0606C7.47469 18.6464 6.52514 18.6463 5.93934 18.0606C5.35355 17.4748 5.35355 16.5253 5.93934 15.9395L9.87879 12.0001L5.93934 8.06063C5.3536 7.47489 5.3537 6.52533 5.93934 5.93953C6.52513 5.35385 7.47468 5.35378 8.06043 5.93953L11.9999 9.87899L15.9393 5.93953Z"
    fill="currentColor"
  />
</svg>
