<svg width="16" height="16" viewBox="0 0 16 16" fill="none" xmlns="http://www.w3.org/2000/svg" data-fui-icon="true">
  <path
    d="M9.93945 3.93866C10.5252 3.35353 11.475 3.3532 12.0605 3.93866C12.6461 4.52435 12.6459 5.47497 12.0605 6.06073L10.1211 8.00018L12.0605 9.93964C12.6459 10.5253 12.6459 11.475 12.0605 12.0607C11.4749 12.6464 10.5253 12.6462 9.93945 12.0607L7.99902 10.1213L6.05957 12.0607C5.47384 12.6465 4.52428 12.6464 3.93848 12.0607C3.35281 11.4749 3.35273 10.5254 3.93848 9.93964L5.87793 8.00018L3.93848 6.06073C3.35269 5.47494 3.35269 4.52445 3.93848 3.93866C4.52421 3.35329 5.47388 3.35323 6.05957 3.93866L7.99902 5.87909L9.93945 3.93866Z"
    fill="currentColor"
  />
</svg>
