<svg width="20" height="20" viewBox="0 0 20 20" fill="none" xmlns="http://www.w3.org/2000/svg" data-fui-icon="true">
  <path
    d="M16.9688 1.96983C17.2616 1.67699 17.7374 1.67708 18.0303 1.96983C18.3229 2.26267 18.3229 2.73755 18.0303 3.03038L11.0605 10.0001L18.0303 16.9698C18.3228 17.2627 18.3229 17.7376 18.0303 18.0304C17.7374 18.3231 17.2616 18.3232 16.9688 18.0304L10 11.0607L3.03027 18.0304C2.73746 18.3232 2.26264 18.323 1.96973 18.0304C1.67699 17.7375 1.67689 17.2627 1.96973 16.9698L8.93945 10.0001L1.96973 3.03038C1.67688 2.73753 1.67696 2.26274 1.96973 1.96983C2.26263 1.67704 2.73741 1.67698 3.03027 1.96983L10 8.93956L16.9688 1.96983Z"
    fill="currentColor"
  />
</svg>
