<svg width="20" height="20" viewBox="0 0 20 20" fill="none" xmlns="http://www.w3.org/2000/svg" data-fui-icon="true">
  <path
    d="M12.9385 4.93866C13.5243 4.35316 14.4748 4.35301 15.0605 4.93866C15.6461 5.52437 15.646 6.47497 15.0605 7.06073L12.1211 10.0002L15.0605 12.9396C15.6458 13.5253 15.6458 14.4751 15.0605 15.0607C14.4748 15.6464 13.5243 15.6462 12.9385 15.0607L9.99902 12.1213L7.05957 15.0607C6.47383 15.6465 5.52427 15.6464 4.93848 15.0607C4.35274 14.4749 4.35271 13.5254 4.93848 12.9396L7.87793 10.0002L4.93848 7.06073C4.35269 6.47494 4.35269 5.52445 4.93848 4.93866C5.5242 4.35336 6.47389 4.35328 7.05957 4.93866L9.99902 7.87909L12.9385 4.93866Z"
    fill="currentColor"
  />
</svg>
