<svg width="20" height="20" viewBox="0 0 20 20" fill="none" xmlns="http://www.w3.org/2000/svg" data-fui-icon="true">
  <path
    d="M13.2939 5.29214C13.6845 4.90243 14.3177 4.90197 14.708 5.29214C15.0983 5.68258 15.0982 6.31669 14.708 6.70718L11.4141 10.0002L14.708 13.2931C15.098 13.6835 15.098 14.3168 14.708 14.7072C14.3176 15.0976 13.6845 15.0973 13.2939 14.7072L10 11.4142L6.70703 14.7072C6.31656 15.0977 5.68351 15.0976 5.29297 14.7072C4.90253 14.3167 4.90247 13.6836 5.29297 13.2931L8.58594 10.0002L5.29297 6.70718C4.90244 6.31666 4.90244 5.68267 5.29297 5.29214C5.68342 4.90213 6.31662 4.90206 6.70703 5.29214L10 8.58609L13.2939 5.29214Z"
    fill="currentColor"
  />
</svg>
