<svg width="12" height="12" viewBox="0 0 12 12" fill="none" xmlns="http://www.w3.org/2000/svg" data-fui-icon="true">
  <path
    fill-rule="evenodd"
    clip-rule="evenodd"
    d="M9.96965 0.969813C10.2625 0.677199 10.7374 0.677051 11.0302 0.969813C11.3228 1.26263 11.3228 1.73751 11.0302 2.03036L7.06047 6.00009L11.0302 9.96884C11.3229 10.2616 11.3226 10.7365 11.0302 11.0294C10.7373 11.3223 10.2625 11.3223 9.96965 11.0294L5.99992 7.06063L2.03019 11.0304C1.73736 11.3232 1.26255 11.3231 0.969646 11.0304C0.676797 10.7375 0.676773 10.2627 0.969646 9.96981L4.93937 6.00009L0.969646 2.03036C0.676824 1.73754 0.676968 1.26272 0.969646 0.969813C1.26256 0.677121 1.73737 0.676987 2.03019 0.969813L5.99992 4.93954L9.96965 0.969813Z"
    fill="currentColor"
  />
</svg>
