<svg width="16" height="16" viewBox="0 0 16 16" fill="none" xmlns="http://www.w3.org/2000/svg" data-fui-icon="true">
  <path
    d="M12.1162 2.11639C12.6044 1.62855 13.3957 1.62834 13.8838 2.11639C14.3717 2.60446 14.3716 3.39585 13.8838 3.88397L9.76758 8.00018L13.8838 12.1164C14.3716 12.6045 14.3717 13.3959 13.8838 13.884C13.3957 14.3719 12.6043 14.3718 12.1162 13.884L8 9.76776L3.88379 13.884C3.39569 14.3721 2.60437 14.372 2.11621 13.884C1.62806 13.3958 1.62808 12.6046 2.11621 12.1164L6.23242 8.00018L2.11621 3.88397C1.62812 3.39587 1.62823 2.60456 2.11621 2.11639C2.60438 1.62841 3.39569 1.6283 3.88379 2.11639L8 6.2326L12.1162 2.11639Z"
    fill="currentColor"
  />
</svg>
