<svg width="12" height="12" viewBox="0 0 12 12" fill="none" xmlns="http://www.w3.org/2000/svg" data-fui-icon="true">
  <path
    d="M7.71973 3.2193C8.01257 2.92679 8.48746 2.92674 8.78027 3.2193C9.07296 3.5121 9.07282 3.98696 8.78027 4.27985L7.05957 5.99957L8.78027 7.72028C9.07278 8.01318 9.07299 8.48805 8.78027 8.78082C8.48748 9.07335 8.01257 9.07327 7.71973 8.78082L5.99902 7.0611L4.28027 8.77985C3.98742 9.0727 3.51263 9.07263 3.21973 8.77985C2.92707 8.48693 2.92691 8.01211 3.21973 7.7193L4.93848 5.99957L3.21973 4.28082C2.92692 3.98801 2.92708 3.51319 3.21973 3.22028C3.51262 2.92744 3.9874 2.9274 4.28027 3.22028L5.99902 4.93903L7.71973 3.2193Z"
    fill="currentColor"
  />
</svg>
