<svg width="24" height="24" viewBox="0 0 24 24" fill="none" xmlns="http://www.w3.org/2000/svg" data-fui-icon="true">
  <path
    d="M19.9395 1.93909C20.5252 1.3537 21.4748 1.35367 22.0605 1.93909C22.646 2.52478 22.6459 3.47444 22.0605 4.06018L14.1201 11.9996L22.0605 19.9401C22.6459 20.5259 22.6461 21.4755 22.0605 22.0612C21.4749 22.6465 20.5252 22.6464 19.9395 22.0612L11.999 14.1217L4.06055 22.0602C3.47476 22.646 2.52427 22.646 1.93848 22.0602C1.35327 21.4744 1.35305 20.5247 1.93848 19.9391L9.87793 11.9996L1.93848 4.06116C1.35298 3.47559 1.35338 2.52588 1.93848 1.94006C2.52426 1.35428 3.47476 1.35428 4.06055 1.94006L11.999 9.87854L19.9395 1.93909Z"
    fill="currentColor"
  />
</svg>
