<svg width="20" height="20" viewBox="0 0 20 20" fill="none" xmlns="http://www.w3.org/2000/svg" data-fui-icon="true">
  <path
    fill-rule="evenodd"
    clip-rule="evenodd"
    d="M12.9384 4.93869C13.5242 4.35319 14.4747 4.35305 15.0604 4.93869C15.646 5.5244 15.6459 6.475 15.0604 7.06076L12.121 10.0002L15.0604 12.9397C15.6456 13.5254 15.6457 14.4751 15.0604 15.0608C14.4747 15.6465 13.5242 15.6463 12.9384 15.0608L9.99891 12.1213L7.05946 15.0608C6.47372 15.6465 5.52416 15.6464 4.93836 15.0608C4.35263 14.475 4.35259 13.5254 4.93836 12.9397L7.87782 10.0002L4.93836 7.06076C4.35258 6.47498 4.35258 5.52448 4.93836 4.93869C5.52409 4.35339 6.47378 4.35331 7.05946 4.93869L9.99891 7.87912L12.9384 4.93869Z"
    fill="currentColor"
  />
</svg>
