<svg width="32" height="32" viewBox="0 0 32 32" fill="none" xmlns="http://www.w3.org/2000/svg" data-fui-icon="true">
  <path
    d="M24.1318 6.80762C24.4247 6.51477 24.8995 6.51474 25.1924 6.80762C25.4852 7.1005 25.4852 7.57528 25.1924 7.86816L17.0605 16L25.1924 24.1318C25.4852 24.4247 25.4852 24.8995 25.1924 25.1924C24.8995 25.4853 24.4247 25.4852 24.1318 25.1924L16 17.0605L7.86816 25.1924C7.57528 25.4852 7.1005 25.4852 6.80762 25.1924C6.51474 24.8995 6.51478 24.4247 6.80762 24.1318L14.9395 16L6.80762 7.86816C6.51478 7.57527 6.51474 7.10049 6.80762 6.80762C7.1005 6.51479 7.57528 6.51479 7.86816 6.80762L16 14.9395L24.1318 6.80762Z"
    fill="currentColor"
  />
</svg>
