<svg width="32" height="32" viewBox="0 0 32 32" fill="none" xmlns="http://www.w3.org/2000/svg" data-fui-icon="true">
  <path
    d="M28.1162 2.1163C28.6044 1.62817 29.3956 1.62817 29.8838 2.1163C30.3718 2.60446 30.3719 3.39576 29.8838 3.88388L17.7676 16.0001L29.8838 28.1163C30.3718 28.6045 30.3719 29.3958 29.8838 29.8839C29.3957 30.372 28.6044 30.3719 28.1162 29.8839L16 17.7677L3.88379 29.8839C3.39567 30.372 2.60438 30.3719 2.11621 29.8839C1.62807 29.3957 1.62806 28.6045 2.11621 28.1163L14.2324 16.0001L2.11621 3.88388C1.62806 3.39573 1.62807 2.60446 2.11621 2.1163C2.60437 1.62816 3.39564 1.62815 3.88379 2.1163L16 14.2325L28.1162 2.1163Z"
    fill="currentColor"
  />
</svg>
