<svg width="20" height="20" viewBox="0 0 20 20" fill="none" xmlns="http://www.w3.org/2000/svg" data-fui-icon="true">
  <path
    fill-rule="evenodd"
    clip-rule="evenodd"
    d="M16.1161 2.1161C16.6042 1.62807 17.3955 1.62807 17.8837 2.1161C18.3716 2.60424 18.3717 3.39558 17.8837 3.88367L11.7675 9.99988L17.8837 16.1161C18.3716 16.6043 18.3717 17.3956 17.8837 17.8837C17.3956 18.3717 16.6043 18.3716 16.1161 17.8837L9.99988 11.7675L3.88367 17.8837C3.39558 18.3717 2.60426 18.3716 2.1161 17.8837C1.62803 17.3955 1.62799 16.6042 2.1161 16.1161L8.23231 9.99988L2.1161 3.88367C1.62795 3.39553 1.62798 2.60425 2.1161 2.1161C2.60425 1.62798 3.39553 1.62795 3.88367 2.1161L9.99988 8.23231L16.1161 2.1161Z"
    fill="currentColor"
  />
</svg>
