<svg width="20" height="20" viewBox="0 0 20 20" fill="none" xmlns="http://www.w3.org/2000/svg" data-fui-icon="true">
  <path
    d="M15.3031 3.63599C15.5959 3.34314 16.0707 3.34324 16.3636 3.63599C16.6565 3.92888 16.6565 4.40364 16.3636 4.69653L11.0599 9.99927L16.3636 15.303C16.6565 15.5959 16.6565 16.0706 16.3636 16.3635C16.0708 16.6564 15.596 16.6564 15.3031 16.3635L9.99939 11.0598L4.69666 16.3635C4.40376 16.6564 3.929 16.6564 3.63611 16.3635C3.34336 16.0706 3.34326 15.5958 3.63611 15.303L8.93884 9.99927L3.63611 4.69653C3.34322 4.40364 3.34322 3.92888 3.63611 3.63599C3.929 3.34309 4.40376 3.34309 4.69666 3.63599L9.99939 8.93872L15.3031 3.63599Z"
    fill="currentColor"
  />
</svg>
