<svg width="20" height="20" viewBox="0 0 20 20" fill="none" xmlns="http://www.w3.org/2000/svg" data-fui-icon="true">
  <path
    d="M16.293 2.29306C16.6835 1.90268 17.3165 1.90263 17.707 2.29306C18.0974 2.68356 18.0974 3.31665 17.707 3.70712L11.4141 10.0001L17.707 16.2931C18.0973 16.6836 18.0974 17.3167 17.707 17.7071C17.3166 18.0975 16.6835 18.0974 16.293 17.7071L10 11.4142L3.70703 17.7071C3.31656 18.0976 2.68351 18.0975 2.29297 17.7071C1.9025 17.3166 1.90247 16.6836 2.29297 16.2931L8.58594 10.0001L2.29297 3.70712C1.90247 3.31662 1.9025 2.68359 2.29297 2.29306C2.6835 1.9026 3.31653 1.90256 3.70703 2.29306L10 8.58603L16.293 2.29306Z"
    fill="currentColor"
  />
</svg>
