<svg width="20" height="20" viewBox="0 0 20 20" fill="none" xmlns="http://www.w3.org/2000/svg" data-fui-icon="true">
  <path
    d="M15.9395 1.93961C16.5252 1.35395 17.4748 1.35391 18.0605 1.93961C18.6461 2.52537 18.6462 3.47497 18.0605 4.0607L12.1211 10.0002L18.0605 15.9396C18.6461 16.5254 18.6462 17.475 18.0605 18.0607C17.4748 18.6463 16.5252 18.6462 15.9395 18.0607L10 12.1212L4.06055 18.0607C3.47483 18.6464 2.52525 18.6463 1.93945 18.0607C1.35373 17.4749 1.35369 16.5254 1.93945 15.9396L7.87891 10.0002L1.93945 4.0607C1.35369 3.47493 1.35372 2.5254 1.93945 1.93961C2.52524 1.35387 3.47478 1.35384 4.06055 1.93961L10 7.87906L15.9395 1.93961Z"
    fill="currentColor"
  />
</svg>
