<svg width="32" height="32" viewBox="0 0 32 32" fill="none" xmlns="http://www.w3.org/2000/svg" data-fui-icon="true">
  <path
    d="M21.9393 7.9393C22.5251 7.35359 23.4746 7.35354 24.0604 7.9393C24.6461 8.52507 24.6461 9.47462 24.0604 10.0604L18.1209 15.9998L24.0604 21.9393C24.646 22.5251 24.6461 23.4747 24.0604 24.0604C23.4746 24.6461 22.5251 24.646 21.9393 24.0604L15.9998 18.1209L10.0604 24.0604C9.47459 24.6461 8.52503 24.6461 7.93928 24.0604C7.35353 23.4746 7.35361 22.5251 7.93928 21.9393L13.8787 15.9998L7.93928 10.0604C7.35357 9.47462 7.35357 8.52507 7.93928 7.9393C8.52505 7.35357 9.4746 7.35358 10.0604 7.9393L15.9998 13.8788L21.9393 7.9393Z"
    fill="currentColor"
  />
</svg>
