<svg width="12" height="12" viewBox="0 0 12 12" fill="none" xmlns="http://www.w3.org/2000/svg" data-fui-icon="true">
  <path
    fill-rule="evenodd"
    clip-rule="evenodd"
    d="M7.54348 3.04262C7.93395 2.65248 8.5671 2.65244 8.95754 3.04262C9.34784 3.43306 9.34772 4.06618 8.95754 4.45669L7.4136 5.99965L8.95754 7.5436C9.34766 7.93414 9.34788 8.56726 8.95754 8.95766C8.56713 9.34782 7.93396 9.34772 7.54348 8.95766L5.99954 7.41469L4.45754 8.95669C4.06702 9.34721 3.43303 9.34721 3.0425 8.95669C2.65264 8.56617 2.65236 7.93296 3.0425 7.54262L4.58547 5.99965L3.0425 4.45766C2.65232 4.06735 2.65269 3.43414 3.0425 3.0436C3.43303 2.65308 4.06702 2.65308 4.45754 3.0436L5.99954 4.58559L7.54348 3.04262Z"
    fill="currentColor"
  />
</svg>
