<svg width="32" height="32" viewBox="0 0 32 32" fill="none" xmlns="http://www.w3.org/2000/svg" data-fui-icon="true">
  <path
    d="M22.1161 8.11574C22.6043 7.62795 23.3957 7.6277 23.8837 8.11574C24.3716 8.60378 24.3714 9.39517 23.8837 9.88331L17.7675 15.9995L23.8837 22.1157C24.3715 22.6038 24.3715 23.3952 23.8837 23.8833C23.3956 24.3714 22.6043 24.3713 22.1161 23.8833L15.9999 17.7671L9.88369 23.8833C9.39558 24.3714 8.60428 24.3713 8.11612 23.8833C7.62796 23.3952 7.62796 22.6039 8.11612 22.1157L14.2314 15.9995L8.11612 9.88331C7.62796 9.39516 7.62796 8.60389 8.11612 8.11574C8.60429 7.62785 9.39563 7.62767 9.88369 8.11574L15.9999 14.2319L22.1161 8.11574Z"
    fill="currentColor"
  />
</svg>
