<svg width="24" height="24" viewBox="0 0 24 24" fill="none" xmlns="http://www.w3.org/2000/svg" data-fui-icon="true">
  <path
    fill-rule="evenodd"
    clip-rule="evenodd"
    d="M16.2929 6.29308C16.6834 5.9028 17.3165 5.90265 17.707 6.29308C18.0973 6.68353 18.0972 7.31664 17.707 7.70714L13.414 12.0001L17.707 16.2931C18.0972 16.6836 18.0973 17.3167 17.707 17.7071C17.3165 18.0974 16.6834 18.0974 16.2929 17.7071L11.9999 13.4142L7.70695 17.7071C7.31647 18.0976 6.68342 18.0975 6.29289 17.7071C5.90237 17.3166 5.90237 16.6836 6.29289 16.2931L10.5859 12.0001L6.29289 7.70714C5.90241 7.31666 5.90251 6.68361 6.29289 6.29308C6.68342 5.90267 7.31647 5.90259 7.70695 6.29308L11.9999 10.586L16.2929 6.29308Z"
    fill="currentColor"
  />
</svg>
