<svg width="20" height="20" viewBox="0 0 20 20" fill="none" xmlns="http://www.w3.org/2000/svg" data-fui-icon="true">
  <path
    fill-rule="evenodd"
    clip-rule="evenodd"
    d="M16.2929 2.29286C16.6834 1.90248 17.3164 1.90244 17.7069 2.29286C18.0972 2.68336 18.0973 3.31645 17.7069 3.70693L11.414 9.99989L17.7069 16.2929C18.0972 16.6834 18.0973 17.3165 17.7069 17.7069C17.3165 18.0973 16.6834 18.0972 16.2929 17.7069L9.99989 11.414L3.70693 17.7069C3.31646 18.0974 2.6834 18.0973 2.29286 17.7069C1.9024 17.3164 1.90236 16.6834 2.29286 16.2929L8.58583 9.99989L2.29286 3.70693C1.90236 3.31642 1.9024 2.68339 2.29286 2.29286C2.68339 1.9024 3.31642 1.90236 3.70693 2.29286L9.99989 8.58583L16.2929 2.29286Z"
    fill="currentColor"
  />
</svg>
