<svg width="12" height="12" viewBox="0 0 12 12" fill="none" xmlns="http://www.w3.org/2000/svg" data-fui-icon="true">
  <path
    fill-rule="evenodd"
    clip-rule="evenodd"
    d="M9.11612 1.11648C9.60427 0.6285 10.3956 0.628412 10.8837 1.11648C11.3716 1.60459 11.3716 2.39596 10.8837 2.88405L7.76846 6.00026L10.8837 9.1155C11.3717 9.60349 11.3714 10.3949 10.8837 10.8831C10.3955 11.3712 9.60427 11.3712 9.11612 10.8831L5.99991 7.76784L2.88369 10.8841C2.39562 11.3721 1.60429 11.372 1.11612 10.8841C0.628001 10.3959 0.627974 9.60462 1.11612 9.11648L4.23233 6.00026L1.11612 2.88405C0.627961 2.3959 0.627961 1.60365 1.11612 1.1155C1.60422 0.627915 2.39568 0.627769 2.88369 1.1155L5.99991 4.23269L9.11612 1.11648Z"
    fill="currentColor"
  />
</svg>
