<svg width="12" height="12" viewBox="0 0 12 12" fill="none" xmlns="http://www.w3.org/2000/svg" data-fui-icon="true">
  <path
    d="M10.4697 0.469788C10.7626 0.176894 11.2374 0.176894 11.5303 0.469788C11.8231 0.762685 11.8231 1.23746 11.5303 1.53033L7.06055 6.00006L11.5303 10.4698C11.8231 10.7627 11.8231 11.2375 11.5303 11.5303C11.2374 11.8232 10.7626 11.8232 10.4697 11.5303L6 7.06061L1.53027 11.5303C1.2374 11.8232 0.762624 11.8232 0.469727 11.5303C0.176833 11.2374 0.176833 10.7627 0.469727 10.4698L4.93945 6.00006L0.469727 1.53033C0.176833 1.23744 0.176833 0.762681 0.469727 0.469788C0.76262 0.176894 1.23738 0.176894 1.53027 0.469788L6 4.93951L10.4697 0.469788Z"
    fill="currentColor"
  />
</svg>
