<svg width="16" height="16" viewBox="0 0 16 16" fill="none" xmlns="http://www.w3.org/2000/svg" data-fui-icon="true">
  <path
    fill-rule="evenodd"
    clip-rule="evenodd"
    d="M11.9393 1.9395C12.5251 1.35403 13.4747 1.35383 14.0604 1.9395C14.6459 2.5252 14.6458 3.47485 14.0604 4.0606L10.121 8.00005L14.0604 11.9395C14.6459 12.5253 14.646 13.4749 14.0604 14.0606C13.4747 14.6461 12.5251 14.646 11.9393 14.0606L7.99988 10.1211L4.06043 14.0606C3.47471 14.6463 2.52514 14.6462 1.93934 14.0606C1.35355 13.4748 1.35355 12.5253 1.93934 11.9395L5.87879 8.00005L1.93934 4.0606C1.35361 3.47487 1.35371 2.5253 1.93934 1.9395C2.52513 1.35388 3.4747 1.35377 4.06043 1.9395L7.99988 5.87896L11.9393 1.9395Z"
    fill="currentColor"
  />
</svg>
