<svg width="24" height="24" viewBox="0 0 24 24" fill="none" xmlns="http://www.w3.org/2000/svg" data-fui-icon="true">
  <path
    d="M15.9395 5.93961C16.5253 5.35402 17.4748 5.35389 18.0605 5.93961C18.6461 6.52533 18.6461 7.47494 18.0605 8.0607L14.1211 12.0002L18.0605 15.9396C18.6461 16.5254 18.6462 17.475 18.0605 18.0607C17.4748 18.6463 16.5252 18.6462 15.9395 18.0607L12 14.1212L8.06055 18.0607C7.4748 18.6464 6.52525 18.6464 5.93945 18.0607C5.35367 17.4749 5.35367 16.5254 5.93945 15.9396L9.87891 12.0002L5.93945 8.0607C5.35371 7.47496 5.35381 6.5254 5.93945 5.93961C6.52525 5.35392 7.47479 5.35385 8.06055 5.93961L12 9.87906L15.9395 5.93961Z"
    fill="currentColor"
  />
</svg>
