<svg width="20" height="20" viewBox="0 0 20 20" fill="none" xmlns="http://www.w3.org/2000/svg" data-fui-icon="true">
  <path
    fill-rule="evenodd"
    clip-rule="evenodd"
    d="M15.9393 1.93956C16.5251 1.3539 17.4747 1.35386 18.0604 1.93956C18.646 2.52532 18.646 3.47492 18.0604 4.06065L12.121 10.0001L18.0604 15.9396C18.6459 16.5253 18.6461 17.4749 18.0604 18.0606C17.4747 18.6463 16.5251 18.6462 15.9393 18.0606L9.99986 12.1212L4.06041 18.0606C3.47468 18.6464 2.52511 18.6462 1.93931 18.0606C1.35358 17.4749 1.35354 16.5253 1.93931 15.9396L7.87876 10.0001L1.93931 4.06065C1.35354 3.47488 1.35358 2.52535 1.93931 1.93956C2.5251 1.35382 3.47464 1.35379 4.06041 1.93956L9.99986 7.87901L15.9393 1.93956Z"
    fill="currentColor"
  />
</svg>
