<svg width="32" height="32" viewBox="0 0 32 32" fill="none" xmlns="http://www.w3.org/2000/svg" data-fui-icon="true">
  <path
    d="M20.9395 8.93964C21.5253 8.35414 22.4749 8.35395 23.0605 8.93964C23.646 9.52535 23.646 10.475 23.0605 11.0607L18.1211 16.0002L23.0605 20.9396C23.6459 21.5254 23.6461 22.475 23.0605 23.0607C22.4749 23.6463 21.5252 23.6461 20.9395 23.0607L16 18.1213L11.0605 23.0607C10.4748 23.6464 9.52525 23.6462 8.93945 23.0607C8.35367 22.475 8.35369 21.5254 8.93945 20.9396L13.8789 16.0002L8.93945 11.0607C8.35369 10.475 8.35374 9.52543 8.93945 8.93964C9.52525 8.354 10.4748 8.3539 11.0605 8.93964L16 13.8791L20.9395 8.93964Z"
    fill="currentColor"
  />
</svg>
