<svg width="12" height="12" viewBox="0 0 12 12" fill="none" xmlns="http://www.w3.org/2000/svg" data-fui-icon="true">
  <path
    fill-rule="evenodd"
    clip-rule="evenodd"
    d="M7.36671 2.86585C7.85481 2.37807 8.64622 2.37803 9.13429 2.86585C9.6222 3.35391 9.62209 4.14529 9.13429 4.63342L7.7671 5.99964L9.13429 7.36682C9.62202 7.85499 9.62226 8.64638 9.13429 9.1344C8.64625 9.62218 7.85482 9.62207 7.36671 9.1344L5.99953 7.76819L4.63429 9.13342C4.14614 9.62158 3.35389 9.62158 2.86574 9.13342C2.37822 8.64528 2.37796 7.85382 2.86574 7.36585L4.23195 5.99964L2.86574 4.6344C2.3779 4.14646 2.37829 3.355 2.86574 2.86682C3.35389 2.37867 4.14614 2.37867 4.63429 2.86682L5.99953 4.23206L7.36671 2.86585Z"
    fill="currentColor"
  />
</svg>
