<svg width="24" height="24" viewBox="0 0 24 24" fill="none" xmlns="http://www.w3.org/2000/svg" data-fui-icon="true">
  <path
    d="M20.9697 1.96994C21.2626 1.67709 21.7374 1.67718 22.0303 1.96994C22.3228 2.26286 22.3231 2.73771 22.0303 3.03049L13.0605 12.0002L22.0303 20.9699C22.3229 21.2627 22.3228 21.7376 22.0303 22.0305C21.7374 22.323 21.2615 22.3233 20.9688 22.0305L12 13.0617L3.03027 22.0305C2.73749 22.3233 2.26264 22.3231 1.96973 22.0305C1.67697 21.7376 1.67689 21.2628 1.96973 20.9699L10.9395 12.0002L1.96875 3.03049C1.67628 2.73774 1.67645 2.26279 1.96875 1.96994C2.26156 1.67713 2.73638 1.6773 3.0293 1.96994L12 10.9397L20.9697 1.96994Z"
    fill="currentColor"
  />
</svg>
