<svg width="24" height="24" viewBox="0 0 24 24" fill="none" xmlns="http://www.w3.org/2000/svg" data-fui-icon="true">
  <path
    d="M18.01 4.92896C18.3028 4.63613 18.7776 4.63627 19.0706 4.92896C19.3635 5.22185 19.3635 5.69661 19.0706 5.9895L13.0598 11.9993L19.0706 18.01C19.3635 18.3029 19.3635 18.7786 19.0706 19.0715C18.7776 19.364 18.3028 19.3642 18.01 19.0715L11.9993 13.0598L5.9895 19.0706C5.69661 19.3635 5.22185 19.3634 4.92896 19.0706C4.63627 18.7776 4.63613 18.3028 4.92896 18.01L10.9387 11.9993L4.92896 5.9895C4.6361 5.69661 4.63607 5.22184 4.92896 4.92896C5.22184 4.63611 5.69662 4.63611 5.9895 4.92896L11.9993 10.9387L18.01 4.92896Z"
    fill="currentColor"
  />
</svg>
