<svg width="32" height="32" viewBox="0 0 32 32" fill="none" xmlns="http://www.w3.org/2000/svg" data-fui-icon="true">
  <path
    fill-rule="evenodd"
    clip-rule="evenodd"
    d="M27.9393 1.93934C28.5251 1.35357 29.4746 1.35356 30.0604 1.93934C30.6461 2.52513 30.6462 3.47468 30.0604 4.06043L18.121 15.9999L30.0604 27.9393C30.6461 28.5251 30.6462 29.4747 30.0604 30.0604C29.4747 30.6462 28.5251 30.6461 27.9393 30.0604L15.9999 18.121L4.06043 30.0604C3.47468 30.6462 2.52513 30.6461 1.93934 30.0604C1.35356 29.4746 1.35355 28.5251 1.93934 27.9393L13.8788 15.9999L1.93934 4.06043C1.35355 3.47465 1.35356 2.52512 1.93934 1.93934C2.52512 1.35356 3.47465 1.35355 4.06043 1.93934L15.9999 13.8788L27.9393 1.93934Z"
    fill="currentColor"
  />
</svg>
