<svg width="20" height="20" viewBox="0 0 20 20" fill="none" xmlns="http://www.w3.org/2000/svg" data-fui-icon="true">
  <path
    fill-rule="evenodd"
    clip-rule="evenodd"
    d="M13.2939 5.29205C13.6844 4.90233 14.3177 4.90187 14.7079 5.29205C15.0982 5.68248 15.0981 6.31659 14.7079 6.70709L11.414 10.0001L14.7079 13.293C15.0979 13.6835 15.0979 14.3167 14.7079 14.7071C14.3176 15.0975 13.6844 15.0972 13.2939 14.7071L9.99992 11.4141L6.70696 14.7071C6.31648 15.0976 5.68343 15.0975 5.29289 14.7071C4.90245 14.3166 4.9024 13.6835 5.29289 13.293L8.58586 10.0001L5.29289 6.70709C4.90237 6.31656 4.90237 5.68257 5.29289 5.29205C5.68335 4.90203 6.31654 4.90197 6.70696 5.29205L9.99992 8.58599L13.2939 5.29205Z"
    fill="currentColor"
  />
</svg>
