<svg width="20" height="20" viewBox="0 0 20 20" fill="none" xmlns="http://www.w3.org/2000/svg" data-fui-icon="true">
  <path
    d="M13.1152 5.11539C13.6034 4.62752 14.3957 4.62739 14.8838 5.11539C15.3717 5.60346 15.3716 6.39581 14.8838 6.88394L11.7676 10.0002L14.8838 13.1164C15.3714 13.6044 15.3714 14.3959 14.8838 14.8839C14.3957 15.372 13.6034 15.3718 13.1152 14.8839L9.99902 11.7677L6.88281 14.8839C6.3947 15.3721 5.6034 15.372 5.11523 14.8839C4.62715 14.3958 4.6271 13.6045 5.11523 13.1164L8.23145 10.0002L5.11523 6.88394C4.62708 6.39579 4.62708 5.60354 5.11523 5.11539C5.60332 4.62772 6.39476 4.62766 6.88281 5.11539L9.99902 8.23257L13.1152 5.11539Z"
    fill="currentColor"
  />
</svg>
