<svg width="16" height="16" viewBox="0 0 16 16" fill="none" xmlns="http://www.w3.org/2000/svg" data-fui-icon="true">
  <path
    d="M11.9395 1.93964C12.5253 1.35416 13.4749 1.35396 14.0605 1.93964C14.646 2.52533 14.646 3.47498 14.0605 4.06073L10.1211 8.00018L14.0605 11.9396C14.646 12.5254 14.6461 13.475 14.0605 14.0607C13.4749 14.6463 12.5252 14.6461 11.9395 14.0607L8 10.1213L4.06055 14.0607C3.47482 14.6464 2.52525 14.6463 1.93945 14.0607C1.35367 13.4749 1.35367 12.5254 1.93945 11.9396L5.87891 8.00018L1.93945 4.06073C1.35372 3.475 1.35383 2.52544 1.93945 1.93964C2.52525 1.35401 3.47481 1.35391 4.06055 1.93964L8 5.87909L11.9395 1.93964Z"
    fill="currentColor"
  />
</svg>
