<svg width="12" height="12" viewBox="0 0 12 12" fill="none" xmlns="http://www.w3.org/2000/svg" data-fui-icon="true">
  <path
    d="M7.36621 2.86581C7.85431 2.37804 8.64572 2.378 9.13379 2.86581C9.6217 3.35388 9.62159 4.14526 9.13379 4.63339L7.7666 5.9996L9.13379 7.36679C9.62152 7.85496 9.62175 8.64634 9.13379 9.13437C8.64575 9.62215 7.85432 9.62204 7.36621 9.13437L5.99902 7.76816L4.63379 9.13339C4.14563 9.62155 3.35339 9.62155 2.86523 9.13339C2.37772 8.64525 2.37745 7.85379 2.86523 7.36581L4.23145 5.9996L2.86523 4.63437C2.3774 4.14643 2.37779 3.35497 2.86523 2.86679C3.35339 2.37864 4.14563 2.37864 4.63379 2.86679L5.99902 4.23203L7.36621 2.86581Z"
    fill="currentColor"
  />
</svg>
