<svg width="12" height="12" viewBox="0 0 12 12" fill="none" xmlns="http://www.w3.org/2000/svg" data-fui-icon="true">
  <path
    d="M8.47522 2.46436C8.76813 2.17163 9.24293 2.17152 9.53577 2.46436C9.82844 2.75721 9.82844 3.23205 9.53577 3.5249L7.06018 5.99951L9.53577 8.4751C9.82836 8.768 9.82852 9.24284 9.53577 9.53564C9.24297 9.82844 8.76814 9.82825 8.47522 9.53564L5.99963 7.06006L3.52502 9.53564C3.23217 9.82831 2.75733 9.82832 2.46448 9.53564C2.17164 9.24281 2.17175 8.768 2.46448 8.4751L4.93909 5.99951L2.46448 3.5249C2.17163 3.23201 2.1716 2.75723 2.46448 2.46436C2.75736 2.17152 3.23214 2.17152 3.52502 2.46436L5.99963 4.93896L8.47522 2.46436Z"
    fill="currentColor"
  />
</svg>
