<svg width="12" height="12" viewBox="0 0 12 12" fill="none" xmlns="http://www.w3.org/2000/svg" data-fui-icon="true">
  <path
    fill-rule="evenodd"
    clip-rule="evenodd"
    d="M9.29289 1.29324C9.68341 0.9029 10.3165 0.902827 10.707 1.29324C11.0972 1.68373 11.0972 2.31685 10.707 2.7073L7.41399 6.00027L10.707 9.29226C11.0973 9.68263 11.097 10.3158 10.707 10.7063C10.3164 11.0969 9.68342 11.0968 9.29289 10.7063L5.99992 7.41433L2.70696 10.7073C2.31652 11.0977 1.68344 11.0976 1.29289 10.7073C0.902425 10.3168 0.902388 9.68375 1.29289 9.29324L4.58586 6.00027L1.29289 2.7073C0.902369 2.31678 0.902369 1.68279 1.29289 1.29226C1.68336 0.902322 2.31657 0.902184 2.70696 1.29226L5.99992 4.58621L9.29289 1.29324Z"
    fill="currentColor"
  />
</svg>
