<svg
  width="20"
  height="20"
  viewBox="0 0 20 20"
  fill="none"
  xmlns="http://www.w3.org/2000/svg"
  data-fui-icon="true"
>
  <path
    fill-rule="evenodd"
    clip-rule="evenodd"
    d="M15.3033 16.364C15.5962 16.6569 16.0711 16.6569 16.3639 16.364C16.6568 16.0711 16.6568 15.5962 16.3639 15.3033L11.0607 10L16.3639 4.69674C16.6568 4.40384 16.6568 3.92897 16.3639 3.63608C16.0711 3.34318 15.5962 3.34318 15.3033 3.63608L9.99999 8.93937L4.69668 3.63605C4.40379 3.34316 3.92891 3.34316 3.63602 3.63605C3.34313 3.92895 3.34313 4.40382 3.63602 4.69671L8.93934 10L3.63602 15.3033C3.34313 15.5962 3.34313 16.0711 3.63602 16.364C3.92892 16.6569 4.40379 16.6569 4.69668 16.364L10 11.0607L15.3033 16.364Z"
    fill="currentColor"
  />
</svg>
