<svg width="32" height="32" viewBox="0 0 32 32" fill="none" xmlns="http://www.w3.org/2000/svg" data-fui-icon="true">
  <path
    d="M9.4707 9.46988C9.76361 9.17717 10.2384 9.17705 10.5312 9.46988L16.001 14.9396L21.4697 9.46988C21.7625 9.1772 22.2374 9.17743 22.5303 9.46988C22.823 9.76279 22.8231 10.2386 22.5303 10.5314L17.0615 16.0002L22.5303 21.4689C22.8231 21.7617 22.823 22.2365 22.5303 22.5294C22.2374 22.8223 21.7626 22.8223 21.4697 22.5294L16.001 17.0607L10.5312 22.5304C10.2384 22.8232 9.7636 22.8231 9.4707 22.5304C9.17782 22.2375 9.17784 21.7628 9.4707 21.4699L14.9404 16.0002L9.4707 10.5304C9.17784 10.2376 9.17789 9.76278 9.4707 9.46988Z"
    fill="currentColor"
  />
</svg>
