<svg width="24" height="24" viewBox="0 0 24 24" fill="none" xmlns="http://www.w3.org/2000/svg" data-fui-icon="true">
  <path
    fill-rule="evenodd"
    clip-rule="evenodd"
    d="M16.1161 6.11631C16.6043 5.62836 17.3956 5.62822 17.8837 6.11631C18.3717 6.60441 18.3716 7.39575 17.8837 7.88389L13.7675 12.0001L17.8837 16.1163C18.3716 16.6044 18.3717 17.3958 17.8837 17.8839C17.3956 18.3718 16.6042 18.3718 16.1161 17.8839L11.9999 13.7677L7.88369 17.8839C7.39557 18.372 6.60428 18.3719 6.11612 17.8839C5.62796 17.3957 5.62796 16.6045 6.11612 16.1163L10.2323 12.0001L6.11612 7.88389C5.62801 7.39578 5.6281 6.60448 6.11612 6.11631C6.60428 5.62826 7.39557 5.62819 7.88369 6.11631L11.9999 10.2325L16.1161 6.11631Z"
    fill="currentColor"
  />
</svg>
