<svg width="32" height="32" viewBox="0 0 32 32" fill="none" xmlns="http://www.w3.org/2000/svg" data-fui-icon="true">
  <path
    d="M28.293 2.29306C28.6835 1.90257 29.3165 1.90258 29.707 2.29306C30.0975 2.68359 30.0975 3.31663 29.707 3.70712L17.4141 16.0001L29.707 28.2931C30.0975 28.6836 30.0975 29.3166 29.707 29.7071C29.3165 30.0976 28.6835 30.0975 28.293 29.7071L16 17.4142L3.70703 29.7071C3.31654 30.0976 2.6835 30.0976 2.29297 29.7071C1.90244 29.3166 1.90245 28.6836 2.29297 28.2931L14.5859 16.0001L2.29297 3.70712C1.90246 3.31662 1.9025 2.68359 2.29297 2.29306C2.68349 1.90254 3.31651 1.90254 3.70703 2.29306L16 14.586L28.293 2.29306Z"
    fill="currentColor"
  />
</svg>
