<svg width="32" height="32" viewBox="0 0 32 32" fill="none" xmlns="http://www.w3.org/2000/svg" data-fui-icon="true">
  <path
    fill-rule="evenodd"
    clip-rule="evenodd"
    d="M26.9391 5.3437C28.1445 5.71686 29.0919 6.81235 29.4145 8.20635C29.9976 10.7305 30 16 30 16C30 16 30 21.2696 29.4145 23.7938C29.0919 25.1878 28.1445 26.2832 26.9391 26.6563C24.7564 27.3334 16 27.3334 16 27.3334C16 27.3334 7.24365 27.3334 5.06091 26.6563C3.85545 26.2832 2.90813 25.1878 2.58544 23.7938C2 21.2696 2 16 2 16C2 16 2 10.7305 2.58544 8.20635C2.90813 6.81235 3.85545 5.71686 5.06091 5.3437C7.24365 4.66669 16 4.66669 16 4.66669C16 4.66669 24.7564 4.66669 26.9391 5.3437ZM20.6845 16.0004L13.0638 20.3999V11.6009L20.6845 16.0004Z"
    fill="currentColor"
  />
</svg>
