<svg width="32" height="32" viewBox="0 0 32 32" fill="none" xmlns="http://www.w3.org/2000/svg" data-fui-icon="true">
  <path
    d="M16.3848 3.91797C16.6299 3.9193 16.982 3.92243 17.4111 3.92773C18.2697 3.93836 19.4387 3.9594 20.6768 4.00195C21.9135 4.04446 23.2266 4.10838 24.3721 4.20508C25.4938 4.29977 26.5273 4.43133 27.1611 4.62793L27.4375 4.72461C28.7052 5.22372 29.6602 6.36035 30.0664 7.73828L30.1455 8.03711V8.03809C30.4542 9.37478 30.6014 11.3866 30.6748 13.0166C30.7119 13.8412 30.7308 14.5858 30.7402 15.124C30.7449 15.3931 30.7478 15.6117 30.749 15.7627C30.7496 15.8381 30.7498 15.8974 30.75 15.9375V16.0625C30.7499 16.1026 30.7496 16.162 30.749 16.2373C30.7479 16.3884 30.7458 16.6068 30.7412 16.876C30.732 17.4144 30.7128 18.1595 30.6758 18.9844C30.6027 20.6146 30.4556 22.6269 30.1455 23.9639C29.7955 25.4749 28.7958 26.7418 27.4375 27.2764L27.1611 27.373C26.5273 27.5696 25.4937 27.7002 24.3721 27.7949C23.2266 27.8916 21.9135 27.9565 20.6768 27.999C19.4387 28.0416 18.2697 28.0626 17.4111 28.0732C16.982 28.0786 16.6299 28.0807 16.3848 28.082C16.2622 28.0827 16.1659 28.0828 16.1006 28.083C16.0682 28.0831 16.0433 28.084 16.0264 28.084H15.9736C15.9567 28.084 15.9318 28.0831 15.8994 28.083C15.8341 28.0828 15.7378 28.0827 15.6152 28.082C15.3701 28.0807 15.018 28.0786 14.5889 28.0732C13.7303 28.0626 12.5613 28.0416 11.3232 27.999C10.0865 27.9565 8.77345 27.8916 7.62793 27.7949C6.6465 27.7121 5.73253 27.6014 5.09473 27.4434L4.83887 27.373C3.34041 26.9092 2.22788 25.5756 1.85449 23.9639L1.74609 23.4326C1.50908 22.1296 1.38816 20.4108 1.32422 18.9844C1.28725 18.1595 1.26802 17.4144 1.25879 16.876C1.25417 16.6068 1.25214 16.3884 1.25098 16.2373C1.2504 16.162 1.25015 16.1026 1.25 16.0625V15.9375C1.25015 15.8975 1.2504 15.8387 1.25098 15.7637C1.25214 15.6127 1.25418 15.394 1.25879 15.125C1.26802 14.5867 1.28726 13.8415 1.32422 13.0166C1.39728 11.3865 1.54442 9.37423 1.85449 8.03711C2.22774 6.42519 3.34036 5.092 4.83887 4.62793L5.09473 4.55664C5.73252 4.39857 6.64653 4.28792 7.62793 4.20508C8.77344 4.10838 10.0865 4.04446 11.3232 4.00195C12.5613 3.9594 13.7303 3.93836 14.5889 3.92773C15.018 3.92243 15.3701 3.9193 15.6152 3.91797C15.7378 3.9173 15.8341 3.91716 15.8994 3.91699H16.1006C16.1659 3.91716 16.2622 3.9173 16.3848 3.91797ZM15.624 5.41797C15.3819 5.41928 15.0328 5.42247 14.6074 5.42773C13.756 5.43827 12.5987 5.45891 11.375 5.50098C10.1498 5.54309 8.86409 5.60648 7.75391 5.7002C6.62009 5.79591 5.74069 5.91866 5.2832 6.06055H5.28223C4.42738 6.3254 3.68653 7.09536 3.37305 8.15918L3.31641 8.37598C3.04114 9.56302 2.89556 11.4486 2.82227 13.084C2.78608 13.8915 2.76785 14.622 2.75879 15.1504C2.75427 15.4142 2.7521 15.6276 2.75098 15.7744C2.75041 15.8477 2.75014 15.9052 2.75 15.9434V16.0576C2.75014 16.0958 2.75042 16.1527 2.75098 16.2256C2.7521 16.3725 2.75426 16.5867 2.75879 16.8506C2.76785 17.379 2.78608 18.1095 2.82227 18.917C2.8864 20.3479 3.00559 21.9702 3.21875 23.1484L3.31641 23.625L3.37305 23.8418C3.68665 24.9054 4.42746 25.6758 5.28223 25.9404H5.2832C5.74074 26.0823 6.62021 26.2051 7.75391 26.3008C8.86408 26.3945 10.1498 26.4569 11.375 26.499C12.5987 26.5411 13.756 26.5627 14.6074 26.5732C15.0328 26.5785 15.3819 26.5807 15.624 26.582C15.7449 26.5827 15.8394 26.5828 15.9033 26.583C15.9351 26.5831 15.9593 26.584 15.9756 26.584H16.0244C16.0407 26.584 16.0649 26.5831 16.0967 26.583C16.1606 26.5828 16.2551 26.5827 16.376 26.582C16.6181 26.5807 16.9672 26.5785 17.3926 26.5732C18.244 26.5627 19.4013 26.5411 20.625 26.499C21.8502 26.4569 23.1359 26.3945 24.2461 26.3008C25.3798 26.2051 26.2593 26.0823 26.7168 25.9404H26.7178C27.6296 25.6581 28.4114 24.8004 28.6836 23.625L28.7812 23.1484C28.9944 21.9702 29.1136 20.3479 29.1777 18.917C29.2139 18.1095 29.2321 17.379 29.2412 16.8506C29.2457 16.5867 29.2479 16.3725 29.249 16.2256C29.2496 16.1527 29.2499 16.0958 29.25 16.0576V15.9434C29.2498 15.9052 29.2496 15.8484 29.249 15.7754C29.2478 15.6285 29.2449 15.4144 29.2402 15.1504C29.231 14.622 29.2131 13.8915 29.1768 13.084C29.1032 11.4488 28.9578 9.56347 28.6836 8.37598L28.627 8.15918C28.3134 7.09518 27.5719 6.32528 26.7168 6.06055C26.2593 5.91866 25.3799 5.79591 24.2461 5.7002C23.1359 5.60648 21.8502 5.54309 20.625 5.50098C19.4013 5.45891 18.244 5.43827 17.3926 5.42773C16.9672 5.42247 16.6181 5.41928 16.376 5.41797C16.2551 5.41731 16.1606 5.41716 16.0967 5.41699H15.9033C15.8394 5.41716 15.7449 5.41731 15.624 5.41797ZM12.3135 12.1787C12.3135 11.3449 13.2163 10.8236 13.9385 11.2402L20.5596 15.0625C21.2815 15.4795 21.2815 16.5214 20.5596 16.9385L13.9385 20.7607C13.2165 21.1773 12.314 20.6567 12.3135 19.8232V12.1787ZM13.8135 19.1006L19.1836 16L13.8135 12.8994V19.1006Z"
    fill="currentColor"
  />
</svg>
