<svg width="20" height="20" viewBox="0 0 20 20" fill="none" xmlns="http://www.w3.org/2000/svg" data-fui-icon="true">
  <path
    fill-rule="evenodd"
    clip-rule="evenodd"
    d="M16.8369 3.33988C17.5903 3.57311 18.1824 4.25779 18.3841 5.12904C18.7485 6.70663 18.75 10.0001 18.75 10.0001C18.75 10.0001 18.75 13.2936 18.3841 14.8712C18.1824 15.7424 17.5903 16.4271 16.8369 16.6602C15.4727 17.0834 10 17.0834 10 17.0834C10 17.0834 4.52728 17.0834 3.16307 16.6602C2.40966 16.4271 1.81758 15.7424 1.6159 14.8712C1.25 13.2936 1.25 10.0001 1.25 10.0001C1.25 10.0001 1.25 6.70663 1.6159 5.12904C1.81758 4.25779 2.40966 3.57311 3.16307 3.33988C4.52728 2.91675 10 2.91675 10 2.91675C10 2.91675 15.4727 2.91675 16.8369 3.33988ZM12.9278 10.0003L8.16487 12.75V7.25062L12.9278 10.0003Z"
    fill="currentColor"
  />
</svg>
