<svg width="24" height="24" viewBox="0 0 24 24" fill="none" xmlns="http://www.w3.org/2000/svg" data-fui-icon="true">
  <path
    d="M12.2891 2.75098C12.4733 2.75198 12.7382 2.75383 13.0605 2.75781C13.7053 2.76579 14.5835 2.78151 15.5137 2.81348C16.4426 2.84541 17.4314 2.8939 18.2949 2.9668C19.1347 3.03768 19.9293 3.13673 20.4268 3.29102C21.549 3.63864 22.3879 4.59221 22.7295 5.75098L22.792 5.98535V5.98633C23.0278 7.0075 23.1384 8.53202 23.1934 9.75391C23.2213 10.3747 23.2361 10.9349 23.2432 11.3398C23.2467 11.5424 23.2481 11.7065 23.249 11.8203C23.2495 11.8772 23.2499 11.9218 23.25 11.9521V12.0479C23.2499 12.0782 23.2495 12.1229 23.249 12.1797C23.2481 12.2935 23.2466 12.4577 23.2432 12.6602C23.2362 13.0651 23.2222 13.6253 23.1943 14.2461C23.1464 15.3153 23.0557 16.6165 22.875 17.6094L22.792 18.0146C22.4995 19.2783 21.6233 20.3374 20.4258 20.708L20.4268 20.709C19.9293 20.8633 19.1347 20.9623 18.2949 21.0332C17.4314 21.1061 16.4426 21.1546 15.5137 21.1865C14.5835 21.2185 13.7053 21.2342 13.0605 21.2422C12.7382 21.2462 12.4733 21.248 12.2891 21.249C12.1972 21.2495 12.1253 21.2499 12.0762 21.25H11.9238C11.8747 21.2499 11.8028 21.2495 11.7109 21.249C11.5267 21.248 11.2618 21.2462 10.9395 21.2422C10.2947 21.2342 9.41655 21.2185 8.48633 21.1865C7.55735 21.1546 6.56864 21.1061 5.70508 21.0332C4.86531 20.9623 4.07068 20.8633 3.57324 20.709V20.708C2.45108 20.3604 1.61208 19.4077 1.27051 18.249L1.20801 18.0146C0.971094 16.9931 0.860428 15.4681 0.805664 14.2461C0.777846 13.6253 0.763782 13.0651 0.756836 12.6602C0.753365 12.4577 0.751851 12.2935 0.750977 12.1797C0.750541 12.1229 0.750111 12.0782 0.75 12.0479V11.9521C0.750111 11.9218 0.750541 11.8771 0.750977 11.8203C0.751851 11.7065 0.753365 11.5423 0.756836 11.3398C0.763782 10.9349 0.777846 10.3747 0.805664 9.75391C0.860429 8.53192 0.971087 7.00695 1.20801 5.98535L1.27051 5.75098C1.6121 4.59231 2.45111 3.63968 3.57324 3.29199V3.29102C4.07068 3.13673 4.86532 3.03768 5.70508 2.9668C6.56864 2.8939 7.55735 2.84541 8.48633 2.81348C9.41655 2.7815 10.2947 2.76579 10.9395 2.75781C11.2618 2.75383 11.5267 2.75198 11.7109 2.75098C11.8028 2.75048 11.8747 2.75013 11.9238 2.75H12.0762C12.1253 2.75013 12.1972 2.75048 12.2891 2.75098ZM11.7188 4.25098C11.5376 4.25196 11.2765 4.25387 10.958 4.25781C10.3203 4.2657 9.4532 4.28199 8.53711 4.31348C7.61976 4.34501 6.65915 4.39201 5.83105 4.46191C4.97921 4.53383 4.33862 4.62406 4.01758 4.72363V4.72461C3.40687 4.91366 2.86143 5.49694 2.66992 6.32422C2.46779 7.19573 2.35871 8.59399 2.30371 9.82129C2.27667 10.4248 2.26361 10.9712 2.25684 11.3662C2.25346 11.5633 2.25182 11.7225 2.25098 11.832C2.25056 11.8869 2.2501 11.9296 2.25 11.958V12.042C2.2501 12.0704 2.25056 12.1131 2.25098 12.168C2.25182 12.2775 2.25346 12.4367 2.25684 12.6338C2.26361 13.0288 2.27667 13.5752 2.30371 14.1787C2.35871 15.406 2.46779 16.8043 2.66992 17.6758C2.84941 18.4511 3.33972 19.0124 3.90332 19.2354L4.01758 19.2754C4.33862 19.375 4.97921 19.4662 5.83105 19.5381C6.65915 19.608 7.61976 19.655 8.53711 19.6865C9.4532 19.718 10.3203 19.7343 10.958 19.7422C11.2765 19.7461 11.5376 19.748 11.7188 19.749C11.8093 19.7495 11.8799 19.7499 11.9277 19.75H12.0723C12.1201 19.7499 12.1907 19.7495 12.2812 19.749C12.4624 19.748 12.7235 19.7461 13.042 19.7422C13.6797 19.7343 14.5468 19.718 15.4629 19.6865C16.3802 19.655 17.3409 19.608 18.1689 19.5381C19.0208 19.4662 19.6614 19.375 19.9824 19.2754C20.5931 19.0864 21.1386 18.503 21.3301 17.6758C21.5322 16.8043 21.6413 15.406 21.6963 14.1787C21.7233 13.5752 21.7364 13.0288 21.7432 12.6338C21.7465 12.4367 21.7482 12.2775 21.749 12.168C21.7494 12.1131 21.7499 12.0704 21.75 12.042V11.958C21.7499 11.9296 21.7495 11.8875 21.749 11.833C21.7481 11.7234 21.7466 11.5636 21.7432 11.3662C21.7362 10.9711 21.7225 10.425 21.6953 9.82129C21.6401 8.59429 21.5314 7.1962 21.3301 6.32422L21.29 6.17188C21.0701 5.42539 20.555 4.90187 19.9824 4.72461V4.72363C19.6614 4.62406 19.0208 4.53383 18.1689 4.46191C17.3408 4.39201 16.3802 4.34501 15.4629 4.31348C14.5468 4.28199 13.6797 4.2657 13.042 4.25781C12.7235 4.25387 12.4624 4.25196 12.2812 4.25098C12.1907 4.25049 12.1201 4.25012 12.0723 4.25H11.9277C11.8799 4.25012 11.8093 4.25049 11.7188 4.25098ZM9.04785 9.13379C9.04785 8.41224 9.7801 7.94391 10.4209 8.20508L10.5479 8.26758L15.5137 11.1338C16.1802 11.5186 16.1801 12.4812 15.5137 12.8662L10.5479 15.7334C9.8813 16.118 9.04805 15.6367 9.04785 14.8672V9.13379ZM10.5479 14L14.0127 12L10.5479 9.99902V14Z"
    fill="currentColor"
  />
</svg>
