<svg width="20" height="20" viewBox="0 0 20 20" fill="none" xmlns="http://www.w3.org/2000/svg" data-fui-icon="true">
  <path
    d="M10.2422 2.16797C10.396 2.1688 10.6168 2.1705 10.8857 2.17383C11.4237 2.18048 12.1562 2.19401 12.9326 2.2207C13.7076 2.24734 14.5334 2.28765 15.2559 2.34863C15.9546 2.40762 16.6303 2.49089 17.0596 2.62402C18.0404 2.92805 18.7668 3.75791 19.0615 4.75781L19.1152 4.95996V4.96094C19.3145 5.82434 19.4073 7.10543 19.4531 8.12305C19.4765 8.64161 19.4882 9.11006 19.4941 9.44824C19.4971 9.61723 19.4983 9.75451 19.499 9.84961C19.4994 9.89707 19.4999 9.93456 19.5 9.95996V10.04C19.4999 10.0654 19.4994 10.1031 19.499 10.1504C19.4983 10.2456 19.497 10.3836 19.4941 10.5527C19.4883 10.8911 19.4764 11.3594 19.4531 11.8779C19.4075 12.8955 19.3145 14.1763 19.1143 15.04L19.1152 15.041C18.8629 16.1301 18.1051 17.052 17.0586 17.376C16.6293 17.5091 15.9545 17.5934 15.2559 17.6523C14.5334 17.7133 13.7076 17.7536 12.9326 17.7803C12.1562 17.807 11.4237 17.8205 10.8857 17.8271C10.6168 17.8305 10.396 17.8322 10.2422 17.833C10.1653 17.8334 10.1046 17.8339 10.0635 17.834H9.93652C9.89543 17.8339 9.83473 17.8334 9.75781 17.833C9.60402 17.8322 9.38323 17.8305 9.11426 17.8271C8.57632 17.8205 7.84384 17.807 7.06738 17.7803C6.29241 17.7536 5.46663 17.7133 4.74414 17.6523C4.04539 17.5934 3.36968 17.5101 2.94043 17.377V17.376C1.89438 17.0518 1.13703 16.1298 0.884766 15.041L0.885742 15.04C0.685524 14.1763 0.59249 12.8955 0.546875 11.8779C0.523635 11.3594 0.511665 10.8911 0.505859 10.5527C0.502959 10.3836 0.501708 10.2456 0.500977 10.1504C0.500614 10.1031 0.500096 10.0654 0.5 10.04V9.95996C0.500093 9.93457 0.500612 9.89692 0.500977 9.84961C0.501708 9.75446 0.502964 9.61719 0.505859 9.44824C0.51166 9.10999 0.523636 8.64172 0.546875 8.12305C0.592489 7.10525 0.685442 5.8238 0.885742 4.95996C1.13793 3.87095 1.89424 2.94831 2.94043 2.62402C3.36966 2.49089 4.04535 2.40762 4.74414 2.34863C5.46664 2.28765 6.2924 2.24734 7.06738 2.2207C7.84384 2.19401 8.57632 2.18048 9.11426 2.17383C9.38323 2.1705 9.60401 2.1688 9.75781 2.16797C9.83473 2.16755 9.89543 2.1671 9.93652 2.16699H10.0635C10.1046 2.1671 10.1653 2.16755 10.2422 2.16797ZM9.7666 3.66797C9.61579 3.66879 9.39805 3.67055 9.13281 3.67383C8.60206 3.6804 7.88124 3.69353 7.11914 3.71973C6.3556 3.74597 5.55731 3.78477 4.87012 3.84277C4.15912 3.90279 3.63763 3.97821 3.38477 4.05664C2.92481 4.19911 2.49783 4.64589 2.34668 5.29883C2.18119 6.01261 2.09077 7.16742 2.04492 8.19043C2.02247 8.69163 2.01149 9.14537 2.00586 9.47363C2.00305 9.63747 2.00168 9.77036 2.00098 9.86133C2.00063 9.90668 2.00009 9.94233 2 9.96582V10.0352C2.00009 10.0587 2.00063 10.0945 2.00098 10.1396C2.00168 10.2306 2.00306 10.3629 2.00586 10.5264C2.01149 10.8548 2.02245 11.3091 2.04492 11.8105C2.08505 12.7059 2.15929 13.702 2.28809 14.415L2.34668 14.7021L2.41602 14.9375C2.60539 15.462 2.9834 15.8198 3.38574 15.9443C3.63882 16.0227 4.15964 16.0982 4.87012 16.1582C5.5573 16.2162 6.35562 16.255 7.11914 16.2812C7.88124 16.3074 8.60206 16.3206 9.13281 16.3271C9.39805 16.3304 9.6158 16.3322 9.7666 16.333C9.84183 16.3334 9.90075 16.3339 9.94043 16.334H10.0596C10.0992 16.3339 10.1582 16.3334 10.2334 16.333C10.3842 16.3322 10.602 16.3304 10.8672 16.3271C11.3979 16.3206 12.1188 16.3074 12.8809 16.2812C13.6444 16.255 14.4427 16.2162 15.1299 16.1582C15.8408 16.0982 16.3624 16.0228 16.6152 15.9443C17.0752 15.802 17.5021 15.355 17.6533 14.7021L17.7119 14.415C17.8407 13.702 17.9149 12.7059 17.9551 11.8105C17.9776 11.3091 17.9885 10.8548 17.9941 10.5264C17.9969 10.3629 17.9983 10.2306 17.999 10.1396C17.9994 10.0945 17.9999 10.0587 18 10.0352V9.96582C17.9999 9.94232 17.9994 9.90656 17.999 9.86133C17.9983 9.77043 17.997 9.63808 17.9941 9.47461C17.9884 9.14626 17.9767 8.6919 17.9541 8.19043C17.9081 7.16774 17.8181 6.01308 17.6533 5.29883L17.584 5.06348C17.3947 4.53872 17.0177 4.1813 16.6152 4.05664H16.6143C16.3613 3.97825 15.8405 3.90276 15.1299 3.84277C14.4427 3.78477 13.6444 3.74597 12.8809 3.71973C12.1188 3.69353 11.3979 3.68039 10.8672 3.67383C10.602 3.67055 10.3842 3.66879 10.2334 3.66797C10.1582 3.66756 10.0993 3.66709 10.0596 3.66699H9.94043C9.90075 3.66709 9.84183 3.66756 9.7666 3.66797ZM7.41504 7.61133C7.41529 6.92002 8.11647 6.47234 8.73047 6.72266L8.85254 6.78223L12.9902 9.1709C13.6289 9.53981 13.6289 10.4612 12.9902 10.8301L8.85254 13.2197C8.21384 13.5883 7.41545 13.127 7.41504 12.3896V7.61133ZM8.91504 11.4502L11.4268 10L8.91504 8.5498V11.4502Z"
    fill="currentColor"
  />
</svg>
