<svg
  width="240"
  height="240"
  viewBox="0 0 240 240"
  fill="none"
  xmlns="http://www.w3.org/2000/svg"
  data-fui-pictogram="true"
>
  <path stroke="#000" stroke-opacity=".01" d="M0.5 0.5H239.5V239.5H0.5z" />
  <path
    d="M162.351 114.496C162.21 119.151 163.707 121.129 163.707 121.129L207.352 92.1213L206.633 90.0897C206.633 90.0897 203.853 84.2386 206.114 77.5024C206.114 77.5024 165.344 104.392 164.214 105.295C163.083 106.198 162.491 109.837 162.351 114.496Z"
    fill="#F3F3F3"
  />
  <path
    d="M164.795 124.852C165.166 124.708 165.429 124.536 165.429 124.536L211.067 94.7657L210.701 92.3955L164.895 123.123C164.895 123.123 164.895 124.035 164.795 124.848V124.852Z"
    fill="#151515"
  />
  <path
    d="M162.882 104L86.4258 58.0083C86.3354 58.067 86.2629 58.1166 86.2132 58.1482C84.1787 59.5568 83.7266 65.7104 83.7266 71.7466C83.7266 77.7829 85.5351 80.099 86.5524 80.722C87.547 81.3271 158.809 122.321 162.977 124.746C161.603 122.944 160.033 119.671 159.912 113.228C159.772 105.806 162.878 104 162.878 104H162.882Z"
    fill="#151515"
  />
  <path
    d="M209.543 72.8745L209.498 72.3824L134.198 28.1738C134.198 28.1738 97.0415 51.2668 88.0801 56.9418L164.135 102.929L209.543 72.87V72.8745Z"
    fill="#151515"
  />
  <path
    d="M98.2002 77.2192C98.3179 74.1536 98.666 71.8647 98.9327 70.5193L95.7136 68.5869C95.7136 68.5869 94.9494 70.8714 94.8364 76.4606C94.7233 82.05 94.8364 83.7701 94.8364 83.7701L98.3721 85.8288C98.2862 84.8763 98.033 81.5443 98.2002 77.2237V77.2192Z"
    fill="#B6B5B0"
  />
  <path
    d="M103.992 80.0998C104.304 75.6392 104.725 74.0048 104.725 74.0048L101.23 71.9055C100.968 73.2645 100.633 75.5127 100.52 78.5061C100.348 82.9396 100.619 86.3347 100.696 87.1835L104.187 89.2151C104.187 89.2151 103.68 84.5604 103.988 80.0998H103.992Z"
    fill="#B6B5B0"
  />
  <path
    d="M164.212 105.295C165.342 104.392 206.112 77.5025 206.112 77.5025L209.728 74.9426L209.547 72.8748L164.139 102.934L88.0845 56.9468C87.3068 57.4389 86.7417 57.8001 86.4297 58.0033L162.886 103.995L163.817 105.756C163.945 105.562 164.076 105.404 164.216 105.291L164.212 105.295Z"
    fill="#4E4C4B"
  />
  <path
    d="M206.629 90.0845L207.348 92.1161L163.703 121.123C163.703 121.123 162.206 119.146 162.346 114.491C162.467 110.419 162.939 107.123 163.811 105.755L162.88 103.994C162.88 103.994 159.769 105.8 159.913 113.223C160.035 119.665 161.609 122.938 162.978 124.74C163.078 124.798 163.141 124.835 163.161 124.848C163.68 125.164 164.318 125.029 164.788 124.848C164.882 124.036 164.888 123.123 164.888 123.123L210.694 92.396L206.625 90.0845H206.629Z"
    fill="#4E4C4B"
  />
  <path d="M112.216 57.2399L122.543 63.9398L145.561 49.2578L135.076 42.8784L112.216 57.2399Z" fill="#B6B5B0" />
  <path
    d="M191.341 151.178L149.256 203.428L147.144 196.091L189.478 143.585L189.225 142.546C189.225 142.546 188.904 142.375 188.325 142.068L145.829 194.773C145.829 194.773 137.952 189.017 119.188 181.116C100.425 173.215 90.4775 174.908 90.4775 174.908L130.302 126.203L128.946 125.187L88.5151 174.416C88.5151 174.416 87.0457 172.61 84.143 169.752C81.2402 166.894 73.78 160.307 59.8043 154.74C47.8045 149.96 37.1204 148.732 34.3308 148.479L32.7528 150.356L32.1289 155.211L32.8613 157.973L80.3902 177.924L82.6239 180.181C82.6239 180.181 84.1791 178.321 85.3367 177.752C86.4942 177.183 90.4233 178.203 91.8384 180.741C93.2537 183.278 93.4752 184.751 94.4382 184.804C95.4014 184.859 96.1925 184.976 96.7849 185.255C97.3771 185.536 146.181 205.148 147.478 205.799C148.777 206.448 149.568 205.852 149.767 205.572C149.948 205.311 187.113 158.993 192.915 151.765L191.337 151.17L191.341 151.178Z"
    fill="#A6A5A0"
  />
  <path
    d="M147.672 204.141L145.714 196.615C145.714 196.615 121.656 182.524 106.229 178.462C94.9255 175.694 90.291 176.542 90.291 176.542C90.291 176.542 93.6821 179.08 95.0385 183.297C97.5614 183.711 100.274 184.727 110.674 189.09C121.073 193.455 147.672 204.137 147.672 204.137V204.141Z"
    fill="#F3F3F3"
  />
  <path
    d="M32.752 150.357L34.2576 156.85C34.2576 156.85 77.966 175.099 79.96 176.038C81.9538 176.976 82.3336 177.731 82.3336 177.731C82.3336 177.731 83.993 176.264 85.1053 175.979C86.2175 175.695 87.497 175.925 87.497 175.925C87.497 175.925 83.767 170.092 73.8198 163.771C63.8728 157.45 49.1014 151.658 32.752 150.357Z"
    fill="#F3F3F3"
  />
  <path
    d="M119.187 181.116C137.951 189.017 145.828 194.774 145.828 194.774L188.324 142.068C184.467 140.046 168.932 132.095 156.362 128.465C141.894 124.289 133.756 124.799 130.309 126.208L90.4854 174.913C90.4854 174.913 100.432 173.22 119.196 181.121L119.187 181.116Z"
    fill="#F3F3F3"
  />
  <path d="M149.255 203.427L191.339 151.177L189.477 143.58L147.143 196.09L149.255 203.427Z" fill="#F3F3F3" />
  <path
    d="M195.75 152.84L192.919 151.771C187.118 158.999 149.952 205.316 149.771 205.577C149.572 205.858 148.781 206.454 147.483 205.803C146.185 205.154 97.3814 185.541 96.7892 185.261C96.1968 184.981 95.4057 184.863 94.4425 184.81C93.4795 184.755 93.258 183.284 91.8427 180.746C90.4276 178.209 86.503 177.189 85.341 177.758C84.1789 178.327 82.6282 180.186 82.6282 180.186L80.3947 177.929L32.8656 157.979L32.1332 155.215L29.5605 158.038L29.7865 160.917L78.5905 181.432C78.5905 181.432 80.1459 184.421 86.5573 187.076C92.9686 189.731 95.8533 188.909 95.8533 188.909C95.8533 188.909 148.008 210.39 149.291 210.805C149.902 211.004 150.512 210.982 151.005 210.868L150.761 209.41L195.75 152.845V152.84Z"
    fill="#354B98"
  />
  <path
    d="M84.1467 169.752C87.0493 172.61 88.5188 174.417 88.5188 174.417L128.949 125.187C128.949 125.187 120.756 112.966 103.629 105.756C86.5022 98.5499 76.8989 97.814 76.8989 97.814L34.3389 148.474C37.1286 148.727 47.8127 149.96 59.8125 154.736C73.7926 160.303 81.2529 166.89 84.1512 169.748L84.1467 169.752Z"
    fill="#F3F3F3"
  />
  <path
    d="M150.76 209.41L151.004 210.869C151.546 210.746 151.958 210.512 152.076 210.314C152.302 209.938 196.368 155.215 196.368 155.215L195.743 152.845L150.756 209.41H150.76Z"
    fill="#1F2F6A"
  />
  <path d="M119.902 148.213L110.805 158.996L150.195 174.964L159.522 163.398L119.902 148.213Z" fill="#C1FA81" />
  <path
    d="M146.547 179.857L147.854 178.015C147.854 178.015 136.184 172.909 127.933 169.41C119.682 165.911 108.351 161.907 108.351 161.907L107.013 163.537C108.442 164.055 116.824 167.135 126.803 171.216C135.575 174.805 143.663 178.516 146.553 179.862L146.547 179.857Z"
    fill="#151515"
  />
  <path
    d="M143.324 184.034L144.63 182.192C144.63 182.192 132.961 177.086 124.709 173.586C116.457 170.087 105.126 166.083 105.126 166.083L103.788 167.712C105.217 168.231 113.6 171.311 123.578 175.391C132.35 178.981 140.439 182.692 143.328 184.038L143.324 184.034Z"
    fill="#151515"
  />
  <path
    d="M77.478 107.829L62.4082 125.852C62.4082 125.852 74.955 128.976 84.9791 133.414C95.0029 137.852 101.292 142.972 101.292 142.972L115.838 125.193C115.838 125.193 105.588 117.762 95.7535 113.626C85.9195 109.491 77.478 107.834 77.478 107.834V107.829Z"
    fill="#354B98"
  />
  <path
    d="M52.9094 137.031L51.3721 138.859C52.7782 139.144 60.1209 140.778 70.5338 145.79C82.1492 151.379 89.8627 156.851 89.8627 156.851L91.296 155.136C89.4016 153.88 81.6157 148.814 73.3415 144.792C65.7048 141.081 56.3231 138.078 52.9094 137.036V137.031Z"
    fill="#151515"
  />
  <path
    d="M96.9833 148.31L98.4256 146.575C98.4256 146.575 89.5546 140.679 79.7749 136.277C69.9951 131.875 59.8445 128.783 59.8445 128.783L58.5107 130.367C61.2552 131.194 71.3922 134.345 79.5488 138.309C87.208 142.029 94.4423 146.643 96.9833 148.31Z"
    fill="#151515"
  />
  <path
    d="M65.6105 148.836L67.0799 147.107C67.0799 147.107 61.6363 144.886 57.038 143.382C53.6288 142.267 50.7758 141.423 49.5234 141.057L48.2031 142.628C48.2031 142.628 61.0891 146.615 65.6105 148.836Z"
    fill="#151515"
  />
  <path
    d="M56.3949 132.886L54.9346 134.624C58.3211 135.658 67.7392 138.669 75.4028 142.394C83.6228 146.389 91.3589 151.41 93.3166 152.71L94.8133 150.913C92.5707 149.432 85.0606 144.597 77.0984 140.728C69.2447 136.913 59.5553 133.847 56.3949 132.886Z"
    fill="#151515"
  />
  <path
    d="M123.421 144.057L122.277 145.452C122.277 145.452 145.563 152.788 162.066 160.689C162.54 160.111 162.988 159.565 163.426 159.032C161.388 158.134 150.925 153.551 140.513 149.7C132.26 146.648 126.22 144.847 123.417 144.057H123.421Z"
    fill="#151515"
  />
  <path
    d="M172.319 148.208C173.703 146.524 173.707 146.519 173.707 146.519C173.707 146.519 153.135 136.7 133.747 131.449L132.277 133.237C135.018 134.005 141.121 135.819 149.504 138.921C159.755 142.709 170.045 147.206 172.315 148.204L172.319 148.208Z"
    fill="#151515"
  />
  <path
    d="M130.229 135.749L128.841 137.442C130.993 138.024 137.517 139.885 146.908 143.356C156.268 146.815 165.668 150.869 168.954 152.305C169.475 151.673 169.936 151.108 170.347 150.607C167.028 149.153 157.665 145.122 148.338 141.672C138.883 138.178 132.332 136.318 130.225 135.745L130.229 135.749Z"
    fill="#151515"
  />
  <path
    d="M126.853 139.866L125.384 141.658C127.97 142.376 134.21 144.209 142.895 147.419C152.779 151.071 162.707 155.388 165.434 156.585C165.963 155.938 166.466 155.329 166.931 154.764C163.947 153.456 154.248 149.256 144.591 145.685C135.638 142.376 129.286 140.534 126.853 139.861V139.866Z"
    fill="#151515"
  />
</svg>
