<svg
  width="240"
  height="240"
  viewBox="0 0 240 240"
  fill="none"
  xmlns="http://www.w3.org/2000/svg"
  data-fui-pictogram="true"
>
  <path d="M167 209.5L61 148.5V67.5L167 128.5V209.5Z" fill="#E3E3E3" />
  <path d="M91 110.5L76 102.331V87.5L91 95.669V110.5Z" fill="#3C3C3C" />
  <path d="M111 122.5L96 114.331V99.5L111 107.669V122.5Z" fill="#3C3C3C" />
  <path d="M133 134.5L118 126.331V111.5L133 119.669V134.5Z" fill="#3C3C3C" />
  <path d="M91 131.5L76 123.331V108.5L91 116.669V131.5Z" fill="#3C3C3C" />
  <path d="M111 143.5L96 135.331V120.5L111 128.669V143.5Z" fill="#3C3C3C" />
  <path d="M133 155.5L118 147.331V132.5L133 140.669V155.5Z" fill="#3C3C3C" />
  <path d="M153 166.5L138 158.331V143.5L153 151.669V166.5Z" fill="#3C3C3C" />
  <path d="M91 152.5L76 144.331V129.5L91 137.669V152.5Z" fill="#3C3C3C" />
  <path d="M111 164.5L96 156.331V141.5L111 149.669V164.5Z" fill="#3C3C3C" />
  <path d="M133 176.5L118 168.331V153.5L133 161.669V176.5Z" fill="#3C3C3C" />
  <path d="M153 187.5L138 179.331V164.5L153 172.669V187.5Z" fill="#3C3C3C" />
  <path d="M167 98.5V128.5L61 67.5V37.5L167 98.5Z" fill="#FA4616" />
  <ellipse cx="83.708" cy="64.308" rx="4.525" ry="6.974" transform="rotate(-35.024 83.708 64.308)" fill="#3C3C3C" />
  <ellipse cx="147.62" cy="100.351" rx="4.899" ry="7.272" transform="rotate(-35.024 147.62 100.351)" fill="#3C3C3C" />
  <path d="M74 30L61 37.5L167 98.5L180 91L74 30Z" fill="#B83411" />
  <path d="M180 91L167 98.5V128.5L180 121V91Z" fill="#B83411" />
  <path d="M180 121L167 128.5V209.5L180 202V121Z" fill="#B6B5B0" />
  <path
    d="M149.254 69.6672C151.838 68.3664 154.735 67.6365 157.513 68.1829C160.454 68.7616 162.799 70.6825 164.188 73.7151C165.279 76.0972 165.772 79.1257 165.696 82.7678L159.53 79.22C159.358 77.9469 159.074 76.9596 158.733 76.2141C158.063 74.751 157.211 74.239 156.355 74.0706C155.335 73.8701 153.833 74.079 151.952 75.0256C150.107 75.9548 148.128 77.4847 146.3 79.5051C142.057 84.1947 140.565 89.8277 141.109 93.6311C141.378 95.5169 142.092 96.6676 142.859 97.2454C143.546 97.7633 144.724 98.1604 146.786 97.5979C148.385 97.1622 150.034 98.105 150.47 99.7034C150.906 101.301 149.963 102.951 148.365 103.387C144.929 104.324 141.732 103.909 139.247 102.036C136.842 100.224 135.587 97.4057 135.169 94.4797C134.337 88.6583 136.594 81.29 141.851 75.4797C144.083 73.0125 146.635 70.9858 149.254 69.6672ZM85.2541 33.6672C87.838 32.3664 90.735 31.6365 93.5129 32.1829C96.4542 32.7616 98.7986 34.6825 100.188 37.7151C101.195 39.915 101.694 42.666 101.704 45.9426L95.3772 42.302C95.2085 41.4598 94.9871 40.7697 94.7326 40.2141C94.0625 38.751 93.2105 38.239 92.3547 38.0706C91.3352 37.8701 89.8327 38.079 87.9524 39.0256C86.1069 39.9548 84.128 41.4847 82.3 43.5051C78.0575 48.1947 76.5652 53.8277 77.1086 57.6311C77.3782 59.5169 78.0921 60.6676 78.8586 61.2454C79.546 61.7633 80.7239 62.1604 82.7864 61.5979C84.3847 61.1622 86.034 62.105 86.4699 63.7034C86.9055 65.3015 85.9634 66.9508 84.3655 67.387C80.9291 68.3242 77.7316 67.9087 75.2473 66.0364C72.8424 64.2237 71.5873 61.4057 71.1692 58.4797C70.3375 52.6583 72.5943 45.29 77.8508 39.4797C80.083 37.0125 82.6353 34.9858 85.2541 33.6672Z"
    fill="#62635D"
  />
</svg>
