<svg
  width="240"
  height="240"
  viewBox="0 0 240 240"
  fill="none"
  xmlns="http://www.w3.org/2000/svg"
  data-fui-pictogram="true"
>
  <path d="M167 209.5L61 148.5V67.5L167 128.5V209.5Z" fill="#E3E3E3" />
  <path d="M91 110.5L76 102.331V87.5L91 95.669V110.5Z" fill="#3C3C3C" />
  <path d="M111 122.5L96 114.331V99.5L111 107.669V122.5Z" fill="#3C3C3C" />
  <path d="M133 134.5L118 126.331V111.5L133 119.669V134.5Z" fill="#3C3C3C" />
  <path d="M91 131.5L76 123.331V108.5L91 116.669V131.5Z" fill="#3C3C3C" />
  <path d="M111 143.5L96 135.331V120.5L111 128.669V143.5Z" fill="#3C3C3C" />
  <path d="M133 155.5L118 147.331V132.5L133 140.669V155.5Z" fill="#3C3C3C" />
  <path d="M153 166.5L138 158.331V143.5L153 151.669V166.5Z" fill="#3C3C3C" />
  <path d="M91 152.5L76 144.331V129.5L91 137.669V152.5Z" fill="#3C3C3C" />
  <path d="M111 164.5L96 156.331V141.5L111 149.669V164.5Z" fill="#3C3C3C" />
  <path d="M133 176.5L118 168.331V153.5L133 161.669V176.5Z" fill="#3C3C3C" />
  <path d="M74 30L61 37.5L167 98.5L180 91L74 30Z" fill="#B83411" />
  <path d="M153 187.5L138 179.331V164.5L153 172.669V187.5Z" fill="#3C3C3C" />
  <path d="M167 98.5V128.5L61 67.5V37.5L167 98.5Z" fill="#FA4616" />
  <ellipse cx="83.708" cy="64.308" rx="4.525" ry="6.974" transform="rotate(-35.024 83.708 64.308)" fill="#3C3C3C" />
  <ellipse cx="147.62" cy="100.351" rx="4.899" ry="7.272" transform="rotate(-35.024 147.62 100.351)" fill="#3C3C3C" />
  <path d="M180 91L167 98.5V128.5L180 121V91Z" fill="#B83411" />
  <path d="M180 121L167 128.5V209.5L180 202V121Z" fill="#B6B5B0" />
  <path
    d="M149.253 69.6666C151.837 68.3657 154.734 67.636 157.512 68.1822C160.453 68.7608 162.797 70.682 164.187 73.7145C165.278 76.0966 165.771 79.1251 165.694 82.7672L159.528 79.2184C159.357 77.9458 159.073 76.9587 158.732 76.2135C158.061 74.7506 157.21 74.2383 156.354 74.0699C155.334 73.8696 153.831 74.0785 151.951 75.025C150.106 75.9542 148.127 77.4841 146.299 79.5045C142.057 84.1939 140.564 89.8271 141.108 93.6305C141.377 95.516 142.091 96.6668 142.858 97.2447C143.545 97.7627 144.723 98.1597 146.785 97.5973C148.384 97.1614 150.033 98.1046 150.469 99.7028C150.905 101.301 149.963 102.95 148.364 103.386C144.928 104.324 141.73 103.908 139.246 102.036C136.842 100.223 135.586 97.405 135.168 94.4791C134.337 88.6577 136.593 81.2893 141.85 75.4791C144.082 73.0119 146.634 70.9852 149.253 69.6666ZM85.2531 33.6666C87.8369 32.3658 90.734 31.636 93.5119 32.1822C96.4532 32.7608 98.7975 34.682 100.187 37.7145C101.194 39.9143 101.693 42.6654 101.703 45.942L95.3761 42.3004C95.2075 41.4586 94.9859 40.7688 94.7316 40.2135C94.0614 38.7506 93.2095 38.2383 92.3537 38.0699C91.3341 37.8696 89.8314 38.0785 87.9513 39.025C86.1059 39.9542 84.1269 41.4841 82.299 43.5045C78.0566 48.1939 76.5644 53.8271 77.1076 57.6305C77.377 59.516 78.0912 60.6668 78.8576 61.2447C79.5449 61.7627 80.7228 62.1597 82.7853 61.5973C84.3836 61.1614 86.0327 62.1046 86.4689 63.7027C86.9047 65.3011 85.9627 66.9503 84.3644 67.3863C80.928 68.3235 77.7305 67.9082 75.2462 66.0358C72.8417 64.223 71.5862 61.405 71.1681 58.4791C70.3366 52.6577 72.5934 45.2893 77.8498 39.4791C80.0819 37.0119 82.6343 34.9852 85.2531 33.6666Z"
    fill="#62635D"
  />
</svg>
