<svg
  width="240"
  height="240"
  viewBox="0 0 240 240"
  fill="none"
  xmlns="http://www.w3.org/2000/svg"
  data-fui-pictogram="true"
>
  <path stroke="#000" stroke-opacity=".01" d="M0.5 0.5H239.5V239.5H0.5z" />
  <path
    d="M67.0487 105.522C67.0487 94.8071 58.3011 86.1179 47.5053 86.1179C36.7094 86.1179 27.9617 94.803 27.9617 105.522C27.9617 108.296 28.5534 110.934 29.61 113.323C26.1746 116.305 24 120.68 24 125.565C24 131.678 27.3987 137.001 32.4254 139.776C33.1026 144.815 37.4438 148.7 42.703 148.7C48.4314 148.7 53.0745 144.09 53.0745 138.402C53.0745 137.617 52.9848 136.855 52.8174 136.122C55.2655 133.282 56.7466 129.596 56.7466 125.561C56.7466 124.601 56.6568 123.657 56.4977 122.742C62.7646 119.509 67.0487 113.012 67.0487 105.518V105.522Z"
    fill="#F3F3F3"
  />
  <path
    d="M69.8758 106.67C68.7456 106.67 67.6882 106.974 66.7728 107.495 66.0636 102.028 61.3659 97.8013 55.6755 97.8013 49.4952 97.8013 44.4839 102.785 44.4839 108.931 44.4839 110.077 44.66 111.184 44.9824 112.227 41.5226 113.611 39.0771 116.979 39.0771 120.92 39.0771 125.28 42.0727 128.943 46.1257 129.99 45.9452 130.422 45.8463 130.896 45.8463 131.392 45.8463 132.426 46.276 133.362 46.9637 134.033 44.5569 135.089 42.8722 137.478 42.8722 140.261 42.8722 143.578 45.2618 146.338 48.4208 146.936 48.6958 149.471 50.8534 151.442 53.4751 151.442 56.2859 151.442 58.5595 149.176 58.5595 146.385 58.5595 144.625 57.6526 143.073 56.2773 142.167 56.4535 141.56 56.5567 140.923 56.5567 140.261 56.5567 137.401 54.7773 134.956 52.263 133.952 52.9035 133.285 53.2989 132.388 53.2989 131.392 53.2989 130.627 53.0668 129.913 52.6628 129.323 55.7745 127.793 57.9191 124.609 57.9191 120.92 57.9191 120.561 57.8976 120.202 57.8546 119.852 60.4806 119.339 62.7757 117.911 64.3917 115.915 65.4577 117.834 67.5164 119.138 69.8801 119.138 73.34 119.138 76.1465 116.347 76.1465 112.906 76.1465 109.465 73.34 106.674 69.8801 106.674L69.8758 106.67zM86.8828 108.016C93.6477 108.016 99.1318 102.562 99.1318 95.8343 99.1318 89.1068 93.6477 83.6531 86.8828 83.6531 80.1178 83.6531 74.6338 89.1068 74.6338 95.8343 74.6338 102.562 80.1178 108.016 86.8828 108.016z"
    fill="#B6B5B0"
  />
  <path
    d="M103.569 121.672C111.164 121.672 117.322 115.549 117.322 107.995C117.322 100.441 111.164 94.3176 103.569 94.3176C95.973 94.3176 89.8154 100.441 89.8154 107.995C89.8154 115.549 95.973 121.672 103.569 121.672Z"
    fill="#B6B5B0"
  />
  <path
    d="M89.7706 102.861C93.1031 102.861 95.8049 100.174 95.8049 96.8598C95.8049 93.5455 93.1031 90.8589 89.7706 90.8589C86.4379 90.8589 83.7363 93.5455 83.7363 96.8598C83.7363 100.174 86.4379 102.861 89.7706 102.861Z"
    fill="#3C3C3C"
  />
  <path
    d="M98.9088 118.357C104.669 118.357 109.339 113.772 109.339 108.117 109.339 102.461 104.669 97.876 98.9088 97.876 93.1483 97.876 88.4785 102.461 88.4785 108.117 88.4785 113.772 93.1483 118.357 98.9088 118.357zM49.6163 124.77C52.9488 124.77 55.6506 122.083 55.6506 118.769 55.6506 115.454 52.9488 112.768 49.6163 112.768 46.2836 112.768 43.582 115.454 43.582 118.769 43.582 122.083 46.2836 124.77 49.6163 124.77z"
    fill="#3C3C3C"
  />
  <path
    d="M83.8154 89.2336C83.8154 78.6124 75.1552 70 64.475 70C53.7946 70 45.1387 78.6081 45.1344 89.2294C41.1803 92.0504 38.6016 96.6536 38.6016 101.859C38.6016 110.442 45.5942 117.396 54.2244 117.396C60.6455 117.396 66.164 113.541 68.5623 108.031C77.2783 106.164 83.8154 98.4573 83.8154 89.2336Z"
    fill="#B6B5B0"
  />
  <path
    d="M68.2232 96.4171C75.1282 96.4171 80.7258 90.8505 80.7258 83.9836C80.7258 77.1168 75.1282 71.55 68.2232 71.55C61.3183 71.55 55.7207 77.1168 55.7207 83.9836C55.7207 90.8505 61.3183 96.4171 68.2232 96.4171Z"
    fill="#F3F3F3"
  />
  <path
    d="M74.9723 79.291C68.3964 79.291 62.9424 84.0566 61.9023 90.3012C61.5026 90.2627 61.0943 90.2414 60.6817 90.2414C53.6203 90.2414 47.8955 95.9346 47.8955 102.957C47.8955 109.979 53.6203 115.673 60.6817 115.673C66.8579 115.673 72.011 111.317 73.2058 105.526C73.7818 105.603 74.3705 105.645 74.9723 105.645C82.2916 105.645 88.2227 99.7471 88.2227 92.4682C88.2227 85.1894 82.2916 79.291 74.9723 79.291Z"
    fill="#3C3C3C"
  />
  <path
    d="M100.293 105.263C99.7554 105.263 99.2397 105.344 98.7496 105.485C98.7883 105.195 98.8142 104.904 98.8142 104.605C98.8142 100.925 95.8142 97.9457 92.118 97.9457C91.5722 97.9457 91.0478 98.0183 90.5407 98.1379C89.3802 93.5645 85.2199 90.1794 80.2601 90.1794C74.4064 90.1794 69.6572 94.8981 69.6572 100.724C69.6572 106.549 74.4021 111.268 80.2601 111.268C82.8087 111.268 85.1511 110.371 86.9777 108.879C88.2069 110.336 90.0507 111.268 92.1137 111.268C93.0721 111.268 93.9791 111.067 94.8 110.708C94.8 110.712 94.8 110.721 94.8 110.725C94.8 113.739 97.2583 116.183 100.288 116.183C103.318 116.183 105.777 113.739 105.777 110.725C105.777 107.712 103.318 105.267 100.288 105.267L100.293 105.263Z"
    fill="#F3F3F3"
  />
  <path
    d="M69.2016 118.26C74.4427 118.26 78.6915 114.035 78.6915 108.823C78.6915 103.611 74.4427 99.3853 69.2016 99.3853C63.9606 99.3853 59.7119 103.611 59.7119 108.823C59.7119 114.035 63.9606 118.26 69.2016 118.26Z"
    fill="#F3F3F3"
  />
  <path
    d="M47.4093 132.798C47.4093 132.704 47.4222 132.614 47.4222 132.52C47.4222 129.614 45.643 127.122 43.1071 126.067C45.8836 124.977 47.852 122.288 47.852 119.138C47.852 118.54 47.7747 117.963 47.6414 117.407C50.3706 116.839 52.4207 114.432 52.4207 111.551C52.4207 108.248 49.726 105.568 46.4036 105.568C43.0813 105.568 40.3866 108.248 40.3866 111.551C40.3866 111.599 40.3909 111.641 40.3952 111.688C40.3823 111.688 40.3737 111.688 40.3608 111.688C36.2907 111.688 32.9855 114.915 32.8781 118.937C30.0587 119.677 27.9785 122.224 27.9785 125.259C27.9785 128.481 30.3209 131.153 33.4024 131.696C33.368 131.969 33.3509 132.243 33.3509 132.525C33.3509 135.093 34.7478 137.333 36.8236 138.551C36.4368 139.564 36.2176 140.659 36.2176 141.804C36.2176 146.89 40.3608 151.01 45.4753 151.01C50.5898 151.01 54.733 146.89 54.733 141.804C54.733 137.38 51.5955 133.687 47.4136 132.803L47.4093 132.798Z"
    fill="#3C3C3C"
  />
  <path
    d="M58.5021 121.382C62.1315 121.382 65.0736 118.456 65.0736 114.847 65.0736 111.238 62.1315 108.312 58.5021 108.312 54.8729 108.312 51.9307 111.238 51.9307 114.847 51.9307 118.456 54.8729 121.382 58.5021 121.382zM50.4835 136.481C53.816 136.481 56.5178 133.794 56.5178 130.48 56.5178 127.166 53.816 124.479 50.4835 124.479 47.1508 124.479 44.4492 127.166 44.4492 130.48 44.4492 133.794 47.1508 136.481 50.4835 136.481z"
    fill="#B6B5B0"
  />
  <path
    d="M46.8365 128.817C50.0722 128.817 52.6954 126.195 52.6954 122.962C52.6954 119.728 50.0722 117.106 46.8365 117.106C43.6006 117.106 40.9775 119.728 40.9775 122.962C40.9775 126.195 43.6006 128.817 46.8365 128.817Z"
    fill="#B6B5B0"
  />
  <path
    d="M51.1773 123.179C54.413 123.179 57.0362 120.557 57.0362 117.323C57.0362 114.089 54.413 111.468 51.1773 111.468C47.9415 111.468 45.3184 114.089 45.3184 117.323C45.3184 120.557 47.9415 123.179 51.1773 123.179Z"
    fill="#B6B5B0"
  />
  <path
    d="M98.2015 162.54L99.1269 163.037C99.1269 163.037 100.502 166.049 101.854 167.945 103.206 169.841 105.362 170.388 109.986 170.149 114.609 169.91 122.62 168.916 122.62 168.916 122.62 168.916 118.874 152.781 118.874 151.674 118.874 150.566 112.734 133.798 107.981 132.036 103.229 130.275 99.2445 128.202 97.3727 133.222 95.501 138.241 94.2266 140.991 93.5591 144.784 92.8915 148.577 92.7967 152.512 93.0337 154.029 93.2708 155.546 98.2015 162.54 98.2015 162.54zM44.7417 138.409C44.7417 138.409 44.5198 142.589 45.7695 147.22 47.0193 151.851 48.6938 154.079 51.9803 154.062 55.2668 154.045 64.7508 153.461 64.7508 153.461 64.7508 153.461 56.7517 130.025 56.0254 128.476 55.299 126.926 55.0222 125.599 53.0575 124.65 51.0928 123.702 49.2191 124.176 48.4966 124.65 47.774 125.125 46.0749 127.144 45.4832 129.115 44.8915 131.085 44.7246 135.16 44.7246 135.16L44.7398 138.407 44.7417 138.409z"
    fill="#222"
  />
  <path
    d="M105.855 167.097C109.72 166.974 112.638 160.113 112.373 151.773C112.108 143.433 108.76 136.772 104.896 136.895C101.031 137.017 98.1123 143.878 98.3773 152.218C98.6423 160.558 101.99 167.22 105.855 167.097Z"
    fill="#B6B5B0"
  />
  <path
    d="M104.721 151.968H101.378C101.566 153.131 102.294 157.566 102.757 159.286L105.161 155.038L104.721 151.97V151.968Z"
    fill="#151515"
  />
  <path
    d="M101.332 151.682C101.332 151.682 101.349 151.786 101.377 151.966H104.72L104.664 151.562 100.929 150.128 98.9629 151.966H101.379C101.35 151.786 101.333 151.682 101.333 151.682H101.332zM109.85 151.881L111.684 150.106C111.505 148.086 111.137 146.206 110.625 144.555L107.045 150.348 107.4 152.118 109.85 151.881zM105.757 149.704L106.39 149.256 104.941 137.91C104.941 137.91 104.934 137.91 104.932 137.91 102.971 137.972 101.277 139.975 100.2 143.078H102.639L105.759 149.704H105.757zM107.56 154.029L106.523 155.201 106.627 155.641 108.271 162.642 104.905 163.477V166.022L107.757 163.915H109.204C110.003 162.709 110.657 161.093 111.11 159.197L107.56 154.029z"
    fill="#222"
  />
  <path
    d="M106.203 155.927C107.192 155.927 107.994 154.335 107.994 152.371 107.994 150.407 107.192 148.815 106.203 148.815 105.215 148.815 104.413 150.407 104.413 152.371 104.413 154.335 105.215 155.927 106.203 155.927zM98.9628 151.967C98.9647 152.071 98.9666 152.174 98.9685 152.278 99.0918 156.15 99.9073 159.636 101.129 162.156L102.756 159.283C102.293 157.563 101.565 153.129 101.377 151.965H98.9609L98.9628 151.967z"
    fill="#3C3C3C"
  />
  <path
    d="M108.797 140.516L106.832 149.274 107.046 150.349 110.627 144.556C110.136 142.97 109.514 141.597 108.797 140.518V140.516zM105.048 150.204L105.757 149.703 102.638 143.077H100.199C100.193 143.093 100.187 143.106 100.184 143.121L105.048 150.204zM106.627 155.641L106.523 155.203 106.106 155.673 104.905 161.457V163.477L108.271 162.643 106.627 155.641zM104.905 166.022V166.123C105.211 166.21 105.52 166.251 105.833 166.242 107.099 166.202 108.254 165.351 109.204 163.917H107.757L104.905 166.024V166.022z"
    fill="#3C3C3C"
  />
  <path
    d="M106.323 153.662C106.768 153.662 107.129 153.062 107.129 152.323C107.129 151.584 106.768 150.984 106.323 150.984C105.877 150.984 105.517 151.584 105.517 152.323C105.517 153.062 105.877 153.662 106.323 153.662Z"
    fill="#974D49"
  />
  <path
    d="M50.9276 151.699C53.6231 151.611 55.6354 146.215 55.4221 139.646C55.2087 133.078 52.8507 127.824 50.1551 127.911C47.4596 127.999 45.4473 133.395 45.6607 139.963C45.874 146.532 48.2321 151.786 50.9276 151.699Z"
    fill="#B6B5B0"
  />
  <path
    d="M50.2224 139.886L47.5825 138.89L46.2607 140.447H47.886C47.886 140.447 48.1268 143.387 49.0011 145.704L50.7268 142.224L50.2205 139.886H50.2224Z"
    fill="#222"
  />
  <path
    d="M46.2628 140.448L46.1699 140.558C46.3254 143.547 46.9418 146.207 47.8217 148.087L49.0032 145.703C48.1289 143.385 47.8881 140.446 47.8881 140.446H46.2628V140.448zM50.3821 138.495C50.5679 138.25 50.7121 138.064 50.8221 137.918 50.2645 136.799 48.5634 133.532 48.5634 133.532L46.7941 133.403C46.7846 133.437 46.7751 133.471 46.7656 133.505 47.2435 134.252 49.121 137.15 50.3802 138.493L50.3821 138.495z"
    fill="#3C3C3C"
  />
  <path
    d="M50.8229 137.921C51.2022 137.424 51.2041 137.422 51.2041 137.422L50.0207 128.808C48.642 128.979 47.4795 130.756 46.7949 133.405L48.5643 133.534C48.5643 133.534 50.2635 136.802 50.8229 137.921zM52.1052 139.569L53.0572 138.638C53.2544 136.509 53.8783 135.173 54.2557 134.54 53.8271 132.795 53.2259 131.339 52.5205 130.328 52.3119 131.798 51.6178 136.689 51.631 136.755 51.6462 136.835 51.7107 138.083 51.7107 138.083L52.1052 139.567V139.569z"
    fill="#222"
  />
  <path
    d="M54.716 137.017C54.6003 136.144 54.4448 135.315 54.2552 134.542C53.8778 135.175 53.2539 136.508 53.0566 138.64L54.716 137.017Z"
    fill="#151515"
  />
  <path
    d="M50.6367 150.729L50.6613 150.924C50.741 150.932 50.8187 150.935 50.8984 150.933C51.7043 150.907 52.4421 150.336 53.0603 149.361L52.7663 148.514C52.7663 148.514 51.382 149.443 50.6348 150.729H50.6367Z"
    fill="#3C3C3C"
  />
  <path
    d="M52.0251 140.977L51.1963 141.922L52.6717 147.899C52.6717 147.899 51.3537 148.1 50.4188 148.402L50.3809 148.745L50.6369 150.731C51.3822 149.445 52.7684 148.516 52.7684 148.516L53.0624 149.363C53.8646 148.098 54.4657 146.155 54.7559 143.841L52.0251 140.979V140.977Z"
    fill="#222"
  />
  <path
    d="M51.1975 141.92L51.1254 142.004L50.4199 148.4C51.3549 148.099 52.6729 147.898 52.6729 147.898L51.1975 141.92Z"
    fill="#3C3C3C"
  />
  <path
    d="M51.1247 142.572C51.7971 142.572 52.3422 141.369 52.3422 139.885C52.3422 138.401 51.7971 137.198 51.1247 137.198C50.4523 137.198 49.9072 138.401 49.9072 139.885C49.9072 141.369 50.4523 142.572 51.1247 142.572Z"
    fill="#3C3C3C"
  />
  <path
    d="M51.1251 140.897C51.4477 140.897 51.7092 140.408 51.7092 139.806C51.7092 139.204 51.4477 138.716 51.1251 138.716C50.8025 138.716 50.541 139.204 50.541 139.806C50.541 140.408 50.8025 140.897 51.1251 140.897Z"
    fill="#974D49"
  />
  <path
    d="M200.816 164.35C200.816 164.35 192.41 165.692 183.259 166.326C174.813 166.91 166.097 167.331 164.807 167.393L163.812 168.749C165.277 168.673 173.519 168.243 178.029 167.972C182.992 167.672 199.743 165.838 201.228 165.633C201.562 165.588 201.848 165.55 202.096 165.518C202.104 165.154 201.622 164.367 200.816 164.353V164.35Z"
    fill="#FB471D"
  />
  <path
    d="M209.192 154.868C208.771 156.123 208.447 157.147 208.401 157.458C208.302 158.137 208.31 158.482 208.42 158.757C208.731 158.336 209.175 157.578 209.251 156.612C209.315 155.801 209.258 155.226 209.192 154.866V154.868Z"
    fill="#C8401A"
  />
  <path
    d="M212.367 147.749C212.367 147.749 212.228 147.459 211.874 146.797C211.606 146.977 211.06 147.326 210.174 147.81C208.847 148.532 201.178 152.325 197.764 154.341C195.394 154.578 177.378 156.12 171.878 156.31C168.891 153.347 162.349 148.841 156.729 145.382C151.11 141.923 138.596 135.214 127.786 130.992C116.977 126.771 113.267 126.31 113.267 126.31H112.64C117.369 127.127 127.384 130.803 134.591 134.192C141.797 137.58 153.365 143.768 158.129 147.015C162.893 150.262 170.645 155.906 170.645 155.906C170.645 155.906 169.781 155.752 166.473 154.921C163.166 154.093 144.096 150.442 142.116 149.873C140.136 149.304 138.856 148.855 136.747 147.064C134.746 145.367 130.191 141.36 129.724 140.95C128.699 140.173 127.437 139.219 126.969 138.862C126.544 138.54 126.152 138.214 125.865 137.971C123.593 137.58 120.639 137.25 119.463 137.127C120.864 137.831 122.291 138.589 123.83 139.467C126.592 141.043 130.989 143.841 132.292 145.31C133.595 146.78 136.406 150.063 137.887 151.876C137.306 151.781 129.994 150.406 127.515 149.611C125.038 148.817 122.135 147.584 118.993 146.222C116.482 145.132 114.403 144.618 113.669 144.457C113.855 145.062 114.032 145.682 114.195 146.315C114.784 146.458 115.759 146.702 117.331 147.112C120.555 147.954 125.759 149.352 125.759 149.352L137.303 152.208C137.303 152.208 137.718 152.623 138.321 152.693C138.926 152.763 139.423 152.562 139.423 152.562L172.064 156.806C172.064 156.806 175.098 156.712 182.896 156.095C190.694 155.479 197.047 154.832 197.047 154.832L211.282 148.164L211.839 148.424L210.074 155.132L210.174 155.348L210.584 155.166L212.363 147.747L212.367 147.749Z"
    fill="#FD8B73"
  />
  <path
    d="M209.635 160.398L202.381 162.389C202.381 162.389 203.282 163.242 203.653 163.479C204.025 163.716 205.004 163.684 205.345 163.589C205.673 163.498 212.57 161.695 213.06 161.566L213.008 161.496L209.635 160.398Z"
    fill="#FB471D"
  />
  <path
    d="M213.708 161.361C213.496 161.135 210.59 155.167 210.59 155.167L210.181 155.349L213.008 161.497L213.059 161.568C213.078 161.564 213.088 161.56 213.088 161.56C213.088 161.56 213.499 161.45 213.992 161.552C213.867 161.484 213.761 161.418 213.708 161.361Z"
    fill="#FA6B4C"
  />
  <path
    d="M210.08 155.131L210.41 153.875 209.616 153.617C209.468 154.046 209.325 154.467 209.191 154.865 209.257 155.225 209.314 155.8 209.25 156.612 209.174 157.575 208.728 158.334 208.419 158.756 208.466 158.878 208.535 158.986 208.622 159.102 208.906 159.481 209.633 160.397 209.633 160.397L213.006 161.495 210.078 155.131H210.08zM161.039 155.37L139.427 152.561C139.427 152.561 138.931 152.762 138.326 152.692 137.721 152.622 137.307 152.206 137.307 152.206L125.764 149.35 134.002 152.644 121.652 161.552H126.084L126.416 161.522C126.416 161.522 131.616 157.911 132.627 157.167 133.638 156.424 138.995 153.352 138.995 153.352 138.995 153.352 146.541 154.213 150.647 154.704L161.041 155.371 161.039 155.37z"
    fill="#DB4319"
  />
  <path
    d="M172.241 156.796C172.127 156.8 172.068 156.802 172.068 156.802L161.039 155.368L150.645 154.701C151.316 154.781 151.894 154.851 152.334 154.906C155.463 155.296 164.246 156.375 164.246 156.375L171.653 157.815C171.653 157.815 172.029 157.295 172.239 156.795L172.241 156.796Z"
    fill="#FA6C4C"
  />
  <path
    d="M162.734 162.232L158.996 165.74H142.531L143.859 167.447L163.559 167.472L169.278 160.614L167.801 160.324L162.734 162.232Z"
    fill="#FB471D"
  />
  <path
    d="M165.958 159.206L162.734 162.232L167.802 160.324L169.279 160.615L170.428 159.238L170.612 158.511L165.958 159.206Z"
    fill="#C8401A"
  />
  <path
    d="M164.245 156.377C164.245 156.377 165.3 157.365 167.279 157.558C169.259 157.752 171.036 157.894 171.036 157.894L171.226 158.095L167.279 157.964L165.958 159.204L170.609 158.508L170.426 159.235L171.309 158.177L171.56 157.797L164.245 156.375V156.377Z"
    fill="#B03515"
  />
  <path
    d="M211.289 148.162L197.054 154.83C197.054 154.83 190.701 155.476 182.903 156.093C176.156 156.626 172.978 156.768 172.242 156.798C172.031 157.297 171.656 157.818 171.656 157.818L171.563 157.799L171.312 158.179L171.455 158.346L171.802 158.109C171.802 158.109 179.15 157.54 185.678 157.113C192.205 156.686 195.097 156.18 195.097 156.18L193.091 159.04C193.091 159.04 198.558 163.259 199.364 163.749C200.17 164.238 200.819 164.35 200.819 164.35C201.625 164.365 202.107 165.15 202.099 165.514C202.96 165.406 203.332 165.376 203.332 165.376L201.111 166.237L205.545 166.593L195.446 156.352C195.446 156.352 195.494 155.973 195.541 155.973C195.589 155.973 211.456 148.42 211.456 148.42C211.456 148.42 210.472 151.147 209.622 153.62L210.417 153.878L211.852 148.424L211.295 148.164L211.289 148.162Z"
    fill="#C8401A"
  />
  <path
    d="M208.197 140.447C204.95 135.09 201.986 131.272 199.496 129.376C197.006 127.479 189.872 124.184 187.501 123.664C185.131 123.144 181.575 123.522 179.963 122.431C178.351 121.341 157.49 109.702 156.258 109.039C155.842 108.815 155.381 108.631 154.716 108.464C156.024 109.245 157.788 110.313 159.664 111.489C163.472 113.875 178.613 122.93 178.613 122.93C178.613 122.93 172.197 124.699 169.921 124.969C167.646 125.238 152.854 125.695 146.421 126.044C139.988 126.391 135.691 126.328 129.812 126.044C123.933 125.759 110.848 125.964 110.848 125.964C110.848 125.964 109.797 126.143 109.346 125.407C108.895 124.671 103.503 115.877 103.325 115.451C103.147 115.024 103.586 114.929 103.846 115.272C104.106 115.616 106.691 119.681 107.377 120.819C107.761 121.455 108.225 121.896 108.563 122.166C107.241 119.991 105.585 117.311 104.288 115.344C102.147 112.1 100.816 110.146 100.425 109.577C100.374 109.606 100.325 109.636 100.277 109.666C99.7671 109.998 98.7715 111.148 98.7715 111.148C98.7715 111.148 100.383 113.368 101.222 114.743C102.06 116.118 105.646 121.902 106.469 123.434C107.29 124.967 107.859 126.389 107.859 126.389L103.497 127.423C105.214 127.354 108.548 127.337 110.342 127.741C112.45 128.215 115.579 129.638 120.275 132.293C124.97 134.948 128.892 138.456 128.892 138.456C128.892 138.456 125.562 137.804 122.693 137.318C120.607 136.965 119.389 136.863 118.879 136.833C119.075 136.929 119.27 137.024 119.465 137.123C120.69 137.254 123.852 137.604 126.156 138.018C129.072 138.539 135.376 140.129 137.972 140.815C140.569 141.502 154.245 145.2 154.245 145.2L150.263 148.826L138.304 146.812L133.421 143.434L129.687 140.91C129.687 140.91 134.64 145.272 136.751 147.062C138.86 148.852 140.142 149.302 142.12 149.871C144.1 150.439 163.17 154.09 166.477 154.919C169.785 155.748 170.65 155.903 170.65 155.903C170.65 155.903 162.897 150.261 158.133 147.013C153.369 143.764 141.801 137.578 134.595 134.189C127.388 130.8 117.373 127.125 112.644 126.308H113.271C113.271 126.308 116.981 126.77 127.79 130.99C138.6 135.209 151.116 141.917 156.734 145.38C162.351 148.843 168.893 153.345 171.882 156.307C177.382 156.117 195.398 154.577 197.768 154.338C201.182 152.324 208.851 148.532 210.178 147.807C211.064 147.324 211.612 146.975 211.878 146.795C211.313 145.74 210.194 143.737 208.199 140.445L208.197 140.447Z"
    fill="#FA4616"
  />
  <path
    d="M154.398 145.307C154.398 145.307 158.891 146.102 160.894 146.434C162.896 146.765 168.881 147.844 171.134 147.879C173.385 147.915 190.43 146.456 190.975 146.325C191.519 146.195 193.819 145.07 195.206 144.323C196.592 143.576 197.991 142.675 197.991 142.675C197.991 142.675 197.257 142.948 196.379 143.375C195.501 143.801 191.959 146.03 190.857 146.172C189.755 146.314 180.77 146.824 177.298 147.048C173.825 147.274 171.597 147.628 170.624 147.628C169.651 147.628 162.612 146.242 159.304 145.838C155.997 145.436 154.398 145.305 154.398 145.305V145.307Z"
    fill="#C8401A"
  />
  <path
    d="M198.731 142.304C198.731 142.304 198.698 146.966 198.494 149.496C198.289 152.025 198.082 152.799 198.082 152.799C198.082 152.799 198.446 149.101 198.494 146.668C198.541 144.235 198.566 142.354 198.566 142.354L198.731 142.306V142.304Z"
    fill="#B93715"
  />
  <path
    d="M195.238 141.861C195.238 141.861 192.947 140.217 188.3 137.135 183.654 134.054 174.377 128.586 174.377 128.586 174.377 128.586 176.306 129.313 180.508 131.558 184.711 133.803 187.525 135.508 190.337 137.659 193.15 139.808 195.236 141.863 195.236 141.863L195.238 141.861zM197.845 141.973C197.845 141.973 195.759 136.962 193.403 133.486 191.048 130.01 188.772 127.829 185.975 125.9 183.178 123.972 181.092 123.198 181.092 123.198 181.092 123.198 183.003 123.562 186.701 126.105 190.399 128.648 192.85 132.284 194.572 134.891 196.293 137.499 197.697 141.269 197.843 141.971L197.845 141.973z"
    fill="#FD8B73"
  />
  <path
    d="M108.561 122.164C108.226 121.896 107.761 121.452 107.376 120.817C107.124 120.402 106.619 119.594 106.067 118.72C106.278 119.201 106.486 119.687 106.57 119.892C106.688 120.184 106.528 120.328 106.202 120.263C107.638 122.623 109.117 125.033 109.343 125.403C109.794 126.139 110.844 125.96 110.844 125.96C110.844 125.96 109.864 124.305 108.559 122.162L108.561 122.164Z"
    fill="#FA6C4C"
  />
  <path
    d="M106.572 119.895C106.491 119.69 106.28 119.204 106.07 118.723C105.112 117.207 104.012 115.491 103.845 115.273C103.584 114.93 103.145 115.025 103.324 115.451C103.413 115.664 104.788 117.939 106.204 120.268C106.531 120.333 106.688 120.189 106.572 119.897V119.895Z"
    fill="#FD8B73"
  />
  <path
    d="M202.127 133.959C202.127 133.959 201.146 136.48 200.246 138.551C199.345 140.622 198.562 142.351 198.562 142.351C198.562 142.351 201.581 144.327 202.796 144.619C204.962 143.269 206.282 142.186 206.282 142.186C206.282 142.186 205.556 139.232 204.717 137.233C203.879 135.234 202.125 133.961 202.125 133.961L202.127 133.959Z"
    fill="#3C3C3C"
  />
  <path
    d="M203.383 144.017L202.562 142.974L202.365 141.552L204.009 142.753L204.301 143.354L206.08 141.979C206.048 141.433 205.022 138.383 204.413 137.158C203.804 135.933 201.97 134.803 201.97 134.803C201.97 134.803 202.073 135.15 202.426 135.616C202.776 136.083 203.243 136.572 203.425 137.039C203.607 137.505 204.081 141.433 204.081 141.433C204.081 141.433 203.078 140.864 201.963 140.405C200.848 139.946 200.241 139.092 200.241 139.092L200.004 139.828C200.004 139.828 200.975 141.006 201.259 141.692C201.474 142.212 201.589 143.53 201.633 144.143C202.024 144.338 202.386 144.495 202.672 144.581L203.383 144.016V144.017Z"
    fill="#FDFDFD"
  />
  <path
    d="M97.1927 131.937C96.0416 131.495 94.4258 130.905 93.5611 130.59L86.6714 134.851L84.3122 133.786L90.925 129.088C89.9218 128.491 88.655 127.785 87.3769 127.213C84.5645 125.948 82.0346 124.762 82.0346 124.762L79.9808 122.929L76.1557 121.207C76.1557 121.207 74.339 120.021 73.1366 119.942C71.9362 119.862 64.4283 121.017 64.4283 121.017L64.5705 121.254C64.5705 121.254 62.4845 119.927 59.8447 119.136C57.2048 118.345 55.4506 117.871 53.0175 117.761C52.4353 117.734 51.9309 117.736 51.5004 117.755C50.1634 118.188 49.0825 118.578 48.3941 118.899C48.3561 118.95 48.3182 119.007 48.2822 119.066C48.2291 119.796 48.121 120.987 47.9295 121.95C47.6298 123.452 47.2031 124.7 47.2031 124.7C47.2031 124.7 48.2462 123.577 48.9573 123.293C49.6685 123.008 54.3147 123.372 57.5234 125.157C60.7322 126.943 62.9434 128.997 62.9434 128.997C62.9434 128.997 64.7848 127.856 66.0213 127.431C65.2001 126.674 64.1457 125.703 63.0382 124.683C60.6051 122.439 57.2541 119.5 57.2541 119.5C57.2541 119.5 61.5533 122.487 63.1956 123.847C64.8398 125.206 66.2621 126.027 66.2621 126.027C66.2621 126.027 77.688 131.053 80.6427 132.413C83.5973 133.772 95.7818 138.845 95.7818 138.845C95.7818 138.845 96.6674 137.944 97.8678 136.253C99.0683 134.561 99.3698 133.977 99.3698 133.977C99.3698 133.977 98.8331 132.57 97.1889 131.939L97.1927 131.937Z"
    fill="#FD8B73"
  />
  <path
    d="M96.3284 137.527C96.7248 135.693 97.2349 133.702 97.6616 132.155C97.6047 132.124 97.5497 132.094 97.4891 132.064C97.0586 133.619 96.5427 135.633 96.1426 137.486C96.0705 137.817 96.0061 138.218 95.9473 138.669C96.0061 138.604 96.0838 138.519 96.1729 138.417C96.2204 138.083 96.2734 137.783 96.3284 137.525V137.527Z"
    fill="#DB4319"
  />
  <path
    d="M76.3206 121.278L76.1594 121.206C76.1594 121.206 76.1424 121.194 76.1177 121.179C75.0823 121.761 72.5581 122.782 70.6883 123.521C68.6439 124.329 66.3094 125.962 66.2393 126.011C66.2563 126.021 66.2677 126.028 66.2677 126.028C66.2677 126.028 66.3284 126.055 66.4403 126.104C66.8954 125.791 68.9454 124.416 70.7603 123.7C72.8672 122.867 75.3705 121.851 76.3244 121.282L76.3206 121.278Z"
    fill="#C8401A"
  />
  <path d="M84.3115 133.786L86.6707 134.854L91.8346 131.659L89.8168 129.876L84.3115 133.786Z" fill="#DB4319" />
  <path
    d="M92.9579 130.373C92.9579 130.373 92.133 129.808 90.9268 129.089L89.8193 129.876L91.8371 131.659L93.5629 130.591C93.1931 130.456 92.9598 130.373 92.9598 130.373H92.9579Z"
    fill="#C8401A"
  />
  <path
    d="M67.0199 129.024C66.6444 129.147 65.9882 129.53 65.9882 129.53L70.3386 143.859C70.3386 143.859 68.336 144.049 65.3719 144.476C64.5185 142.721 63.0013 141.193 63.0013 141.193L64.8978 130.537L62.9464 128.997C62.9464 128.997 62.33 130.941 61.8407 132.79C61.3515 134.639 59.9766 140.201 59.9766 140.201C59.9766 140.201 61.6359 141.798 62.9312 143.14C64.2264 144.483 66.0754 146.16 66.0754 146.16C66.0754 146.16 67.7196 145.519 69.9347 145.591C72.1497 145.663 73.7237 146.002 73.7237 146.002L67.6552 128.934C67.6552 128.934 67.4655 128.914 67.0199 129.025V129.024Z"
    fill="#302F31"
  />
  <path
    d="M66.0752 146.16C66.0752 146.16 68.4457 146.065 70.6588 146.065C72.872 146.065 73.7253 146.002 73.7253 146.002C73.7253 146.002 72.1532 145.663 69.9363 145.591C67.7194 145.519 66.0771 146.16 66.0771 146.16H66.0752Z"
    fill="#FA6C4C"
  />
  <path
    d="M65.3716 144.478C68.3338 144.051 70.3383 143.862 70.3383 143.862L65.9879 129.532C65.9879 129.532 66.6441 129.149 67.0195 129.026C66.8166 129.075 66.5625 129.153 66.2496 129.271C65.2426 129.65 64.8993 130.539 64.8993 130.539L63.0029 141.195C63.0029 141.195 64.5201 142.724 65.3735 144.478H65.3716Z"
    fill="#151515"
  />
  <path
    d="M64.8986 130.54C64.8986 130.54 65.2418 129.65 66.2488 129.271C66.5617 129.153 66.8177 129.076 67.0188 129.026C67.4663 128.914 67.6541 128.935 67.6541 128.935C67.6541 128.935 67.0055 128.338 66.0212 127.433C64.7867 127.856 62.9434 129 62.9434 129L64.8948 130.54H64.8986Z"
    fill="#B6B5B0"
  />
  <path
    d="M94.4958 127.075L94.2853 127.005L88.3912 123.938L81.0578 121.678L78.3402 120.411L74.39 114.107L73.0625 113.301L76.3262 111.276C75.6663 111.441 74.3122 111.771 71.5852 112.4C67.7563 113.286 57.271 115.89 51.5078 117.752C51.9383 117.735 52.4409 117.733 53.0249 117.758C54.5743 117.828 55.8487 118.046 57.2502 118.399C59.2717 117.896 66.1311 116.186 68.2115 115.607C70.6616 114.928 73.9481 114.32 73.9481 114.32L73.9633 120.117C75.031 120.468 76.1593 121.204 76.1593 121.204L79.9844 122.926L82.0382 124.759C82.0382 124.759 84.5662 125.945 87.3805 127.21C88.6776 127.792 89.9634 128.509 90.9742 129.114L94.4977 127.075H94.4958Z"
    fill="#FB471D"
  />
  <path
    d="M94.4943 127.076L90.9707 129.115C92.1522 129.82 92.9563 130.372 92.9563 130.372C92.9563 130.372 93.1933 130.457 93.5669 130.592L98.8503 128.523L94.4943 127.076Z"
    fill="#BA3C17"
  />
  <path
    d="M71.211 118.186L73.9456 114.595V114.322C73.9456 114.322 71.101 114.849 68.7305 115.469C69.0927 115.677 69.5895 116.004 70.0409 116.447C70.8791 117.269 71.211 118.186 71.211 118.186Z"
    fill="#C8401A"
  />
  <path
    d="M71.2103 118.188L62.337 119.483L59.9532 117.727C58.804 118.015 57.8254 118.258 57.2451 118.402C58.0454 118.603 58.8874 118.847 59.847 119.136C62.4868 119.927 64.5729 121.254 64.5729 121.254L64.4306 121.017C64.4306 121.017 71.9367 119.864 73.139 119.942C73.3931 119.959 73.6738 120.027 73.9601 120.12L73.945 114.596L71.2103 118.188Z"
    fill="#DB4319"
  />
  <path
    d="M70.0412 116.449C69.5898 116.005 69.0929 115.679 68.7307 115.47C68.5525 115.518 68.378 115.563 68.2073 115.611C66.7243 116.022 62.8101 117.01 59.9541 117.725L62.3379 119.481L71.2112 118.186C71.2112 118.186 70.8794 117.27 70.0412 116.447V116.449Z"
    fill="#151515"
  />
  <path
    d="M171.309 158.179L163.556 167.472L143.856 167.449L135.724 157.007L135.796 157.66L142.646 167.426L138.486 165.742L131.884 167.639L126.407 161.523L126.017 161.559C126.017 161.559 132.038 168.943 132.512 169.298C132.986 169.653 133.056 169.215 132.914 168.93C132.772 168.646 131.99 167.804 131.99 167.804L132.298 167.756L137.772 169.675L143.545 168.111L163.114 167.91C163.114 167.91 162.308 169.19 162.035 169.675C161.882 169.95 161.768 170.259 161.7 170.476C161.73 170.474 161.756 170.472 161.774 170.47C162.875 170.339 163.173 169.605 163.173 169.605L171.445 158.344L171.303 158.177L171.309 158.179Z"
    fill="#FD8B73"
  />
  <path
    d="M201.225 165.63C199.74 165.834 182.987 167.668 178.026 167.968 173.516 168.241 165.274 168.67 163.808 168.745L163.179 169.603C163.179 169.603 172.708 169.128 182.025 168.417 191.342 167.706 201.107 166.236 201.107 166.236L203.328 165.375C203.328 165.375 202.711 165.423 201.227 165.628L201.225 165.63zM179.963 122.432C179.975 122.439 179.986 122.445 179.998 122.453 180.58 122.267 181.847 121.855 182.501 121.614 183.366 121.294 184.16 119.849 184.291 119.481 184.422 119.113 184.28 118.806 183.616 118.296 182.952 117.786 181.412 116.932 179.491 116.79 177.57 116.648 175.545 116.862 175.545 116.862L174.591 119.312C177.379 120.896 179.495 122.115 179.965 122.434L179.963 122.432z"
    fill="#222"
  />
  <path
    d="M128.889 138.457C128.889 138.457 124.965 134.948 120.272 132.293C115.578 129.638 112.449 128.216 110.338 127.742C108.544 127.338 105.212 127.355 103.494 127.423L98.848 128.523L98.793 128.544C98.793 128.544 99.0642 128.618 100.024 129.103C100.983 129.589 101.909 130.787 102.383 131.616C103.306 131.142 106.104 130.846 107.207 131.521C108.309 132.196 110.278 133.655 112.02 136.759C113.763 139.866 114.996 143.801 114.996 143.801L115.138 143.871C115.138 143.871 114.143 140.719 113.253 138.904C112.364 137.091 111.594 135.574 110.325 133.901C112.127 133.913 113.572 134.364 116.121 135.525C117.05 135.948 117.958 136.378 118.872 136.829C119.382 136.86 120.6 136.962 122.686 137.315C125.553 137.8 128.885 138.453 128.885 138.453L128.889 138.457Z"
    fill="#FD8B73"
  />
  <path
    d="M184.306 119.428C184.405 119.083 184.248 118.779 183.614 118.294C182.95 117.784 181.41 116.93 179.489 116.788C177.568 116.646 175.543 116.86 175.543 116.86C175.543 116.86 176.922 117.429 178.187 118.639L179.451 119.849C179.451 119.849 183.07 119.652 183.806 119.532C184.018 119.498 184.181 119.462 184.308 119.43L184.306 119.428Z"
    fill="#3C3C3C"
  />
  <path
    d="M110.846 125.963C110.846 125.963 123.931 125.758 129.81 126.043C135.689 126.327 139.988 126.39 146.419 126.043C152.851 125.696 167.643 125.237 169.919 124.967C172.195 124.698 178.61 122.929 178.61 122.929C178.61 122.929 163.471 113.873 159.661 111.488C157.786 110.312 156.02 109.244 154.714 108.463C153.403 108.133 151.292 107.865 147.13 107.473C140.849 106.881 132.789 106.762 123.709 106.999C114.629 107.236 104.567 108.599 102.991 108.872C101.563 109.119 100.912 109.299 100.425 109.578C100.814 110.147 102.147 112.1 104.288 115.345C106.863 119.248 110.846 125.965 110.846 125.965V125.963Z"
    fill="#222"
  />
  <path
    d="M119.504 110.057C119.504 110.057 115.973 111.906 114.289 113.412 110.744 113.127 105.933 112.701 105.434 112.547 104.936 112.394 104.64 111.457 106.299 111.172 107.959 110.888 119.502 110.057 119.502 110.057H119.504zM132.184 114.785L133.595 114.715 134.649 116.581 132.789 116.137 132.053 116.006 132.184 114.785zM147.677 120.405C149.573 119.669 152.206 119.445 152.192 119.384 152.181 119.326 150.605 118.364 148.756 118.4 147.472 118.425 146.315 119.089 145.462 119.807L147.601 120.481C147.628 120.452 147.652 120.426 147.679 120.403L147.677 120.405z"
    fill="#B6B5B0"
  />
  <path
    d="M144.523 120.736C143.728 121.673 143.006 122.94 143.006 122.94C143.012 122.94 143.036 122.94 143.078 122.94C143.563 122.93 146.313 122.869 146.313 122.869C146.313 122.869 147.066 121.062 147.599 120.482L145.46 119.809C145.084 120.125 144.766 120.451 144.523 120.738V120.736Z"
    fill="#B03515"
  />
  <path
    d="M136.598 110.554C136.343 110.452 136.063 110.374 135.816 110.317C135.446 110.364 135.162 110.419 134.993 110.484C136.262 111.468 136.285 111.8 136.795 112.759C137.305 113.719 137.933 114.11 137.933 114.11C137.933 114.11 137.758 112.979 137.703 112.173C137.648 111.368 137.235 110.808 136.598 110.554Z"
    fill="#3C3C3C"
  />
  <path
    d="M132.641 115.668C132.838 116.232 133.014 116.73 133.12 117.032L140.636 119.065C140.636 119.065 139.735 119.421 139.462 119.598C139.189 119.776 138.988 120.083 139.261 120.903C139.534 121.72 140.031 122.788 140.755 123.451L141.051 123.309C141.051 123.309 141.853 121.267 143.293 119.581L141.146 118.839L132.641 115.668Z"
    fill="#C8401A"
  />
  <path
    d="M160.44 116.386C156.304 113.804 152.879 111.752 150.674 110.864C148.468 109.977 146.976 110.011 145.66 110.011C144.516 110.011 138.269 110.001 135.815 110.318C136.062 110.375 136.343 110.453 136.597 110.555C137.236 110.811 137.647 111.369 137.702 112.174C137.757 112.98 137.932 114.111 137.932 114.111L141.144 118.84L143.291 119.582C143.306 119.565 143.321 119.546 143.337 119.529C144.806 117.833 146.845 116.625 149.523 116.756C152.2 116.887 153.541 118.285 154.69 119.754C156.196 120.17 159.231 121.26 160.605 122.22C166.164 122.398 166.389 122.337 166.389 122.337C166.389 122.337 164.577 118.971 160.44 116.386Z"
    fill="#B6B5B0"
  />
  <path
    d="M131.71 112.89C131.295 111.527 130.656 110.081 129.683 109.583C128.71 109.084 125.974 109.073 124.326 109.393C123.618 109.53 123.14 109.714 122.795 109.968C123.089 110.076 123.499 110.226 124.066 110.436C123.664 111.183 122.477 117.476 122.477 117.476L131.058 117.043L132.812 116.954V116.161C132.456 115.143 131.959 113.707 131.71 112.89Z"
    fill="#FA6C4C"
  />
  <path
    d="M131.058 117.045L132.505 117.075L131.651 121.069L133.44 124.78L136.796 124.767C136.796 124.767 136.191 122.658 136.191 122.575C136.191 122.491 133.229 117.337 133.229 117.337C133.229 117.337 133.053 116.844 132.814 116.165V116.957L131.06 117.047L131.058 117.045Z"
    fill="#C8401A"
  />
  <path
    d="M124.066 110.437C123.499 110.229 123.09 110.077 122.796 109.969C122.337 110.306 122.107 110.767 121.885 111.408C121.495 112.535 120.427 115.971 120.332 116.362C120.325 116.392 120.302 116.443 120.27 116.506L122.479 117.475C122.479 117.475 123.664 111.181 124.068 110.435L124.066 110.437Z"
    fill="#FEB7B1"
  />
  <path
    d="M120.572 121.461L131.653 121.068L132.506 117.074L131.059 117.044L122.478 117.476L122.381 117.677C122.468 117.609 122.512 117.584 122.512 117.584C122.512 117.584 122.467 117.609 122.381 117.677L120.367 121.886L120.693 124.825L121.478 124.821C121.365 123.75 120.652 122.737 120.652 122.737L120.57 121.459L120.572 121.461Z"
    fill="#B03515"
  />
  <path
    d="M131.652 121.07L120.571 121.462L120.653 122.74C120.653 122.74 121.366 123.753 121.48 124.824L133.44 124.779L131.652 121.068V121.07Z"
    fill="#FA6C4C"
  />
  <path
    d="M121.27 118.935C121.814 118.181 122.195 117.826 122.383 117.678L122.48 117.477L120.27 116.508C119.891 117.232 117.974 119.872 117.833 120.145C117.75 120.307 117.676 120.451 117.621 120.606L120.049 121.378C120.049 121.378 120.475 120.039 121.27 118.935Z"
    fill="#FC9A85"
  />
  <path
    d="M122.381 117.677C122.194 117.825 121.812 118.18 121.268 118.934C120.474 120.036 120.047 121.377 120.047 121.377L117.619 120.605C117.574 120.734 117.54 120.871 117.523 121.034C117.487 121.39 117.771 124.838 117.771 124.838L120.693 124.826L120.367 121.887L122.381 117.679V117.677Z"
    fill="#FD8B73"
  />
  <path
    d="M106.47 123.435C105.649 121.903 102.061 116.119 101.223 114.744C100.385 113.369 98.7728 111.148 98.7728 111.148C98.7728 111.148 97.4225 109.04 97.066 108.399C96.7095 107.758 95.5014 107.143 89.8823 107.522C88.2969 107.629 86.5712 107.964 84.9137 108.387C84.5003 108.645 83.7986 109.055 82.6399 109.656C80.3756 110.83 74.3867 114.113 74.3867 114.113L78.337 120.416L81.0545 121.683L82.6039 122.161L85.7444 117.077C85.7444 117.077 86.1711 115.085 86.8708 112.667C87.5706 110.25 87.8551 110.179 88.2818 109.87C88.7085 109.561 90.9121 108.804 93.5557 109.076C96.1993 109.349 96.8631 110.451 97.3125 111.647C97.762 112.844 98.6874 117.016 98.6874 117.016C98.6874 117.016 101.189 120.181 102.291 122.362C103.256 124.27 103.783 126.741 103.901 127.329L107.857 126.392C107.857 126.392 107.288 124.97 106.467 123.437L106.47 123.435Z"
    fill="#222"
  />
  <path
    d="M84.9141 108.385C80.7002 109.462 76.915 111.123 76.915 111.123C76.915 111.123 76.8031 111.158 76.3233 111.279L73.0596 113.304L74.3871 114.11C74.3871 114.11 80.376 110.828 82.6403 109.654C83.7971 109.054 84.5007 108.643 84.9141 108.385Z"
    fill="#545256"
  />
  <path
    d="M76.5713 117.312L78.4563 120.109C78.4563 120.109 79.8066 118.64 81.3597 116.316C82.9129 113.993 84.7961 110.984 84.7961 110.984C84.7961 110.984 83.6222 110.557 81.4546 112.289C79.287 114.02 76.5713 117.314 76.5713 117.314V117.312Z"
    fill="#3C3C3C"
  />
  <path
    d="M93.4751 109.939C94.7779 110.256 95.9992 110.394 96.6819 110.449C96.1509 109.776 95.2691 109.251 93.5566 109.074C91.0932 108.82 89.0147 109.461 88.3965 109.799C88.5899 109.914 88.918 110.112 89.4793 110.449C89.4793 110.449 91.6716 109.501 93.4732 109.939H93.4751Z"
    fill="#FD8B73"
  />
  <path
    d="M88.3953 109.798C88.3498 109.823 88.31 109.846 88.2815 109.869C87.8549 110.176 87.5704 110.248 86.8706 112.666C86.1708 115.084 85.7441 117.075 85.7441 117.075L88.3631 117.761C88.3631 117.761 89.4289 111.255 89.4782 110.449C88.9168 110.111 88.5888 109.916 88.3953 109.798Z"
    fill="#FEB7B1"
  />
  <path
    d="M89.4794 110.449C89.4319 111.255 88.3643 117.762 88.3643 117.762C88.3643 117.762 90.8182 117.845 94.1844 117.762C96.5795 117.703 98.0569 117.284 98.7149 117.049C98.6978 117.028 98.6884 117.017 98.6884 117.017C98.6884 117.017 97.7648 112.844 97.3135 111.648C97.1542 111.227 96.9702 110.817 96.6801 110.451C95.9954 110.396 94.776 110.258 93.4732 109.941C91.6716 109.503 89.4794 110.451 89.4794 110.451V110.449Z"
    fill="#FA6C4C"
  />
  <path d="M85.7469 117.075L82.6064 122.159L85.58 123.075L88.3659 117.761L85.7469 117.075Z" fill="#FC9A85" />
  <path
    d="M97.9658 121.649L87.9944 121.57L86.6973 123.419L88.3889 123.94L94.2848 127.007L98.8514 128.524L100.941 128.029L97.9658 121.649Z"
    fill="#FA6C4C"
  />
  <path
    d="M102.293 122.359C101.327 120.448 99.2867 117.781 98.7974 117.152C98.7235 117.262 98.5774 117.54 98.4409 118.14C98.2513 118.978 97.9668 121.648 97.9668 121.648L100.94 128.028L103.903 127.326C103.785 126.738 103.256 124.267 102.293 122.359Z"
    fill="#C8401A"
  />
  <path
    d="M97.9656 121.65C97.9656 121.65 98.25 118.979 98.4397 118.141C98.5762 117.542 98.7223 117.263 98.7962 117.153C98.7602 117.106 98.7336 117.072 98.7147 117.049C98.0585 117.286 96.5793 117.703 94.1841 117.762C90.818 117.845 88.364 117.762 88.364 117.762L85.5801 123.076L86.6952 123.419L87.9923 121.57L97.9637 121.65H97.9656Z"
    fill="#B03515"
  />
  <path
    d="M81.467 120.85L79.8096 122.921C79.8096 122.921 81.1769 124.992 81.4841 125.314C81.7913 125.639 83.3331 125.716 84.581 125.821C85.8288 125.925 92.0946 126.287 92.0946 126.287C92.0946 126.287 91.0193 129.045 90.9567 129.431C90.8941 129.818 91.2488 130.15 92.3164 130.427C93.3822 130.704 93.6572 130.533 93.6914 130.427C93.6914 130.427 95.0113 126.39 95.2635 125.456C95.5157 124.523 95.5555 123.782 95.5555 123.782L84.4387 123.537L81.467 120.85Z"
    fill="#222"
  />
  <path
    d="M90.4055 120.416C89.8518 120.384 81.555 120.74 81.555 120.74L81.4658 120.85L84.4375 123.537L95.5543 123.782C95.5543 123.782 92.9392 121.372 92.2678 120.96C91.5965 120.549 90.9555 120.446 90.4036 120.414L90.4055 120.416Z"
    fill="#3C3C3C"
  />
  <path
    d="M98.8242 128.553C98.8052 128.548 98.7957 128.544 98.7957 128.544L93.5654 130.592C94.4321 130.907 96.0421 131.495 97.1895 131.937C97.3583 132.001 97.5119 132.077 97.6598 132.155C97.8893 131.324 98.0941 130.619 98.2458 130.139C98.462 129.45 98.6706 128.916 98.8242 128.552V128.553Z"
    fill="#FB471D"
  />
  <path
    d="M57.2178 147.34C57.2329 149.301 57.7393 151.965 57.7393 151.965L62.6927 153.378C62.2319 152.855 61.1168 151.588 59.5333 149.792C58.4827 148.601 57.7203 147.822 57.2197 147.338L57.2178 147.34Z"
    fill="#FA6C4C"
  />
  <path
    d="M98.2469 130.141C98.4631 129.452 98.6717 128.918 98.8253 128.553 98.8063 128.548 98.7969 128.544 98.7969 128.544L98.5902 128.625C98.4422 128.986 98.2564 129.475 98.0667 130.082 97.9188 130.554 97.7159 131.248 97.4902 132.064 97.5509 132.092 97.6059 132.124 97.6628 132.155 97.8923 131.324 98.0971 130.619 98.2488 130.139L98.2469 130.141zM95.4418 151.837C95.4797 154.942 95.5973 157.555 95.6466 158.53L95.8419 158.634C95.7983 157.766 95.6713 155.065 95.6333 151.834 95.5897 148.151 95.7054 141.661 96.1738 138.417 96.0847 138.519 96.0088 138.602 95.9481 138.669 95.5101 142.01 95.4001 148.251 95.4418 151.837zM91.2473 136.944C87.4602 135.355 82.41 133.221 80.6463 132.41 77.6917 131.05 66.2658 126.025 66.2658 126.025 66.2658 126.025 64.8435 125.203 63.1993 123.844 61.5551 122.484 57.2578 119.497 57.2578 119.497 57.2578 119.497 60.6088 122.437 63.0419 124.68 65.475 126.923 67.6559 128.932 67.6559 128.932L67.7147 129.099 91.2473 136.942V136.944z"
    fill="#DB4319"
  />
  <path
    d="M132.291 145.307C130.987 143.837 126.591 141.04 123.829 139.464C121.068 137.888 118.673 136.689 116.126 135.529C113.577 134.368 112.132 133.917 110.331 133.906C111.599 135.576 112.369 137.093 113.259 138.908C114.148 140.721 115.144 143.875 115.144 143.875L115.002 143.805C115.002 143.805 113.769 139.87 112.026 136.763C110.283 133.657 108.317 132.201 107.213 131.525C106.111 130.85 103.314 131.146 102.389 131.62C101.914 130.79 100.991 129.593 100.029 129.108C99.9744 129.079 99.9213 129.053 99.8701 129.028C99.8549 129.02 99.8398 129.013 99.8227 129.005C99.7886 128.988 99.7544 128.971 99.7203 128.956C99.7051 128.948 99.6899 128.941 99.6729 128.933C99.6425 128.918 99.6122 128.903 99.5818 128.889C99.5686 128.884 99.5553 128.876 99.542 128.871C99.5098 128.855 99.4775 128.84 99.4472 128.825C99.4396 128.821 99.4339 128.817 99.4263 128.816C99.3884 128.798 99.3524 128.781 99.3182 128.766C99.3144 128.766 99.3107 128.762 99.3069 128.761C99.2765 128.747 99.25 128.734 99.2234 128.723C99.2158 128.719 99.2101 128.717 99.2026 128.713C99.1798 128.704 99.1589 128.694 99.1381 128.685C99.1305 128.681 99.1229 128.679 99.1172 128.675C99.0983 128.668 99.0793 128.66 99.0622 128.652C99.0565 128.651 99.0508 128.647 99.0452 128.645C99.0243 128.637 99.0053 128.628 98.9883 128.622C98.9883 128.622 98.9864 128.622 98.9845 128.622C98.9655 128.614 98.9484 128.607 98.9333 128.601C98.9295 128.601 98.9276 128.599 98.9238 128.597C98.9124 128.594 98.901 128.588 98.8915 128.584C98.8878 128.584 98.884 128.58 98.8802 128.58C98.8726 128.578 98.865 128.575 98.8593 128.573C98.8555 128.573 98.8498 128.569 98.846 128.569C98.8422 128.569 98.8384 128.567 98.8347 128.565C98.8309 128.565 98.8271 128.561 98.8233 128.561C98.6678 128.924 98.4611 129.458 98.2449 130.149C98.0951 130.627 97.8883 131.332 97.6589 132.165C98.9352 132.853 99.3694 133.985 99.3694 133.985C99.3694 133.985 99.0698 134.569 97.8675 136.261C97.784 136.378 97.7025 136.492 97.6209 136.602C97.5944 136.638 97.5678 136.672 97.5432 136.708C97.4901 136.78 97.437 136.853 97.3858 136.921C97.3573 136.959 97.3289 136.997 97.3005 137.035C97.2511 137.099 97.2037 137.16 97.1582 137.22C97.1317 137.255 97.1051 137.289 97.0786 137.323C97.0274 137.389 96.9781 137.452 96.9307 137.512C96.9117 137.535 96.8927 137.56 96.8738 137.583C96.7372 137.753 96.6102 137.909 96.4964 138.045C96.4888 138.055 96.4831 138.062 96.4755 138.07C96.4243 138.131 96.375 138.19 96.3295 138.243C96.3238 138.25 96.3181 138.256 96.3105 138.263C96.2612 138.32 96.2138 138.375 96.1721 138.423C95.7037 141.668 95.5861 148.159 95.6316 151.84C95.6695 155.071 95.7966 157.77 95.8402 158.64L95.6449 158.536C95.5956 157.56 95.478 154.946 95.4401 151.844C95.3965 148.259 95.5064 142.018 95.9464 138.675C95.8421 138.789 95.7852 138.848 95.7852 138.848C95.7852 138.848 93.8035 138.023 91.2452 136.949L67.7125 129.106L73.7223 146.007C73.7223 146.007 72.8689 146.069 70.6558 146.069C68.4427 146.069 66.0721 146.164 66.0721 146.164C66.0721 146.164 64.2231 144.489 62.9279 143.145C61.6326 141.802 59.9733 140.205 59.9733 140.205C59.9733 140.205 61.3482 134.643 61.8374 132.794C62.3267 130.945 62.943 129.001 62.943 129.001C62.943 129.001 60.7299 126.948 57.5231 125.161C54.3143 123.375 49.6681 123.012 48.957 123.297C48.2458 123.581 47.2028 124.704 47.2028 124.704C47.2028 124.704 47.6295 123.456 47.9291 121.954C48.1225 120.991 48.2306 119.8 48.2818 119.07C46.8633 121.243 45.2779 127.727 44.8379 131.467C44.3866 135.307 44.7204 139.574 44.7204 139.574L44.8626 139.361C44.8626 139.361 44.8152 136.007 45.1831 132.381C45.551 128.755 47.3412 125.021 49.8881 125.068C52.435 125.116 54.7467 128.554 55.8618 134.004C56.9769 139.454 57.2121 145.288 57.2121 147.256C57.2121 147.287 57.2121 147.317 57.2121 147.347C57.7146 147.831 58.4751 148.608 59.5257 149.801C61.1092 151.597 62.2243 152.864 62.6851 153.387L97.5261 163.327L98.0059 162.048C98.0059 162.048 93.8186 160.404 89.2672 158.603C84.7158 156.801 76.8931 153.372 73.068 151.681C71.109 151.571 65.4672 152.803 65.4672 152.803C65.4672 152.803 64.646 152.344 61.8317 149.452C62.907 148.899 67.1891 148.03 67.1891 148.03L67.7903 148.235L73.7962 146.845L74.1129 146.418C74.1129 146.418 90.2647 155.536 92.7453 157.023C95.2258 158.508 97.6285 159.678 97.6285 159.678C96.5134 155.98 96.4433 149.175 97.4161 143.63C98.389 138.085 100.64 133.295 104.812 133.318C108.529 133.338 111.7 138.064 113.665 144.459C114.397 144.622 116.475 145.134 118.988 146.225C122.128 147.588 125.034 148.821 127.51 149.614C129.987 150.408 137.3 151.783 137.882 151.878C136.401 150.065 133.592 146.78 132.287 145.312L132.291 145.307Z"
    fill="#FB471D"
  />
  <path
    d="M67.7973 148.23L67.1961 148.026C67.1961 148.026 65.1233 148.447 63.5 148.889L64.3534 149.171L67.7954 148.232L67.7973 148.23Z"
    fill="#FD8B73"
  />
  <path
    d="M62.7871 149.598L64.3535 149.171L63.5001 148.888C62.7909 149.082 62.1669 149.279 61.8389 149.448C62.4249 150.051 62.9255 150.548 63.3484 150.957L63.9003 150.612L62.7871 149.6V149.598Z"
    fill="#DB4319"
  />
  <path
    d="M63.3486 150.957C64.9568 152.51 65.4726 152.798 65.4726 152.798C65.4726 152.798 65.7286 152.743 66.1477 152.656L63.9005 150.612L63.3486 150.957Z"
    fill="#FA6C4C"
  />
  <path
    d="M71.8105 147.302C71.9224 147.596 72.0969 148.079 72.3226 148.804C72.7379 150.137 73.0755 151.677 73.0755 151.677L73.8018 146.841L71.8105 147.302Z"
    fill="#B03515"
  />
  <path
    d="M72.3223 148.804C72.0966 148.08 71.9222 147.595 71.8103 147.302L67.7955 148.232L64.3535 149.17L62.7871 149.597L63.9003 150.61L66.1476 152.654C67.7026 152.334 71.5315 151.586 73.0752 151.674C73.0752 151.674 72.7376 150.136 72.3223 148.801V148.804Z"
    fill="#151515"
  />
  <path
    d="M92.7505 157.017C90.27 155.532 74.1182 146.412 74.1182 146.412L73.8015 146.839L73.0752 151.674L97.6338 159.672C97.6338 159.672 95.231 158.502 92.7505 157.017Z"
    fill="#FD8B73"
  />
  <path
    d="M97.6338 159.672L73.0752 151.675C76.9003 153.367 84.723 156.796 89.2744 158.597C93.8258 160.399 98.0131 162.043 98.0131 162.043L97.5333 163.321H97.539L99.1282 163.039C99.1282 163.039 98.9385 161.284 97.6338 159.672Z"
    fill="#C8401A"
  />
  <path
    d="M129.725 140.946C129.701 140.923 129.684 140.91 129.684 140.91L133.418 143.434L138.301 146.812L150.26 148.826L154.242 145.2C154.242 145.2 140.565 141.502 137.969 140.815C135.373 140.129 129.067 138.54 126.153 138.018C126.058 138.001 125.963 137.984 125.866 137.969C126.153 138.211 126.547 138.538 126.97 138.86C127.438 139.217 128.699 140.17 129.725 140.948V140.946Z"
    fill="#222"
  />
  <path
    d="M149.774 147.961C148.815 147.794 148.329 147.654 146.456 146.539C144.582 145.423 142.864 143.789 142.046 142.877C141.229 141.964 139.829 141.94 139.829 141.94L140.599 143.089L139.331 146.135C139.331 146.135 130.345 139.983 129.623 139.639C128.9 139.296 128.083 139.271 128.083 139.271V139.355L134.019 143.849L138.24 146.77C138.477 146.768 139.004 146.781 139.947 146.918C141.263 147.107 143.065 147.451 143.065 147.451L141.193 146.277L141.999 144.832C141.999 144.832 144.548 146.965 146.241 147.748C147.937 148.53 150.224 148.625 150.224 148.625L153.163 145.875C153.163 145.875 150.817 147.18 149.774 147.961Z"
    fill="#FDFDFD"
  />
  <path
    d="M116.094 166.672L116.299 168.047C116.299 168.047 125.528 170.02 130.92 170.518C130.673 170.423 130.343 170.306 129.92 170.173C128.779 169.815 116.092 166.672 116.092 166.672H116.094Z"
    fill="#FD8B73"
  />
  <path
    d="M163.091 167.954C163.108 167.927 163.12 167.91 163.12 167.91L143.551 168.111L139.007 169.342C142.31 169.337 158.599 169.299 159.678 169.185C160.484 169.099 162.109 168.402 163.091 167.952V167.954Z"
    fill="#DB4319"
  />
  <path
    d="M159.68 169.186C158.601 169.299 142.311 169.335 139.009 169.343L137.78 169.677L132.305 167.758L131.998 167.805C131.998 167.805 132.779 168.647 132.922 168.931C133.064 169.216 132.992 169.654 132.52 169.299C132.047 168.945 126.024 161.56 126.024 161.56L126.083 161.554H121.651L134.001 152.647L125.763 149.353C125.763 149.353 120.559 147.955 117.335 147.113C115.763 146.704 114.786 146.459 114.198 146.317C114.246 146.502 114.295 146.688 114.34 146.876C116.205 154.462 116.197 166.409 116.197 166.409L116.095 166.678C116.095 166.678 128.782 169.821 129.923 170.179C130.346 170.312 130.676 170.43 130.923 170.524C131.49 170.578 132.015 170.614 132.484 170.629C137.308 170.792 159.908 170.612 161.709 170.481C161.777 170.265 161.889 169.956 162.045 169.681C162.288 169.246 162.955 168.182 163.095 167.959C162.115 168.408 160.49 169.106 159.682 169.191L159.68 169.186Z"
    fill="#FB471D"
  />
  <path
    d="M131.859 159.982C131.538 159.341 131.17 158.815 130.857 158.423C128.98 159.741 126.414 161.523 126.414 161.523L130.201 165.754L133.894 164.761C133.894 164.761 132.602 161.467 131.861 159.984L131.859 159.982Z"
    fill="#151515"
  />
  <path
    d="M132.689 157.122C132.666 157.137 132.644 157.154 132.623 157.169C132.321 157.389 131.65 157.865 130.855 158.423C131.17 158.815 131.538 159.343 131.857 159.982C132.598 161.463 133.89 164.759 133.89 164.759L130.197 165.752L131.885 167.637L138.487 165.741L132.786 157.279L132.685 157.122H132.689Z"
    fill="#222"
  />
  <path d="M140.002 162.492L142.532 165.741H158.996L152.145 162.375L140.002 162.492Z" fill="#3C3C3C" />
  <path
    d="M171.228 158.096L171.038 157.895C171.038 157.895 169.261 157.753 167.282 157.56C165.302 157.366 164.247 156.378 164.247 156.378C164.247 156.378 155.465 155.299 152.336 154.909C150.094 154.628 144.221 153.951 141.067 153.589L154.849 157.564L152.146 162.377L158.996 165.743L167.282 157.967L171.228 158.098V158.096Z"
    fill="#222"
  />
  <path
    d="M141.066 153.588C139.816 153.444 138.993 153.351 138.993 153.351C138.993 153.351 133.842 156.306 132.689 157.121L132.79 157.279L134.821 155.896L135.729 157.006L140.002 162.492L152.145 162.374L154.847 157.561L141.066 153.586V153.588Z"
    fill="#151515"
  />
  <path
    d="M135.8 157.658L135.729 157.006L134.821 155.895L132.79 157.279L135.071 160.664L135.982 157.918L135.8 157.658Z"
    fill="#DB4319"
  />
  <path d="M142.651 167.424L135.982 157.918L135.071 160.664L138.491 165.74L142.651 167.424Z" fill="#FB471D" />
  <path
    d="M209.634 160.397C209.634 160.397 208.908 159.481 208.624 159.102C208.339 158.723 208.26 158.438 208.402 157.458C208.544 156.478 211.451 148.418 211.451 148.418C211.451 148.418 210.019 149.099 208.017 150.052C207.638 151.137 207 152.986 206.56 154.431C205.897 156.612 206.075 157.667 206.075 157.667L199.959 159.538L199.673 154.018C197.321 155.133 195.554 155.971 195.538 155.971C195.519 155.971 195.5 156.034 195.483 156.108L202.381 162.387L209.634 160.396V160.397Z"
    fill="#222"
  />
  <path
    d="M206.074 157.669C206.074 157.669 205.896 156.615 206.56 154.434C207 152.989 207.637 151.14 208.016 150.055C205.568 151.219 202.264 152.791 199.672 154.022L199.958 159.543L206.074 157.671V157.669Z"
    fill="#151515"
  />
  <path
    d="M208.242 163.306C206.78 163.852 204.347 164.182 204.347 164.182C204.347 164.182 204.72 164.429 205.092 164.74L206.078 164.956L213.087 162.506C212.7 162.288 212.406 162.064 212.406 162.064C212.406 162.064 209.704 162.76 208.242 163.304V163.306Z"
    fill="#DB4319"
  />
  <path
    d="M214.526 162.342C214.371 162.059 214.109 161.731 213.955 161.547C213.479 161.458 213.089 161.561 213.089 161.561C213.089 161.561 205.685 163.497 205.346 163.592C205.006 163.687 204.026 163.719 203.654 163.482C203.282 163.245 202.381 162.391 202.381 162.391L195.484 156.112C195.461 156.22 195.444 156.355 195.444 156.355L205.543 166.596C205.543 166.596 205.543 166.596 205.913 166.472C206.068 165.991 206.009 165.765 205.67 165.316C205.528 165.126 205.311 164.925 205.095 164.743C204.724 164.432 204.35 164.185 204.35 164.185C204.35 164.185 206.783 163.853 208.245 163.309C209.707 162.763 212.41 162.069 212.41 162.069C212.41 162.069 212.704 162.295 213.091 162.511C213.4 162.683 213.768 162.852 214.094 162.898C214.83 163 214.757 162.763 214.528 162.344L214.526 162.342Z"
    fill="#FD8B73"
  />
  <path
    d="M215.276 163.101L214.929 161.97C214.929 161.97 214.365 161.754 213.992 161.553C213.978 161.551 213.967 161.549 213.954 161.547C214.107 161.731 214.371 162.061 214.525 162.342C214.754 162.761 214.824 162.998 214.09 162.896C213.764 162.85 213.396 162.681 213.087 162.509L206.078 164.959L205.092 164.743C205.308 164.923 205.524 165.126 205.666 165.316C206.006 165.767 206.067 165.993 205.909 166.472C206.254 166.359 206.92 166.137 208.21 165.71C210.88 164.824 215.274 163.102 215.274 163.102L215.276 163.101Z"
    fill="#DB4319"
  />
  <path
    d="M186.309 164.002C189.58 163.645 196.487 163.054 196.487 163.054L192.442 158.999L169.753 160.659L166.262 165.411L166.461 165.604C166.461 165.604 183.039 164.357 186.311 164L186.309 164.002Z"
    fill="#151515"
  />
  <path
    d="M199.362 163.748C198.556 163.259 193.089 159.039 193.089 159.039L195.095 156.179C195.095 156.179 192.203 156.686 185.676 157.112C179.148 157.539 171.8 158.108 171.8 158.108L171.453 158.345L169.751 160.661L192.44 159.001L196.485 163.056C196.485 163.056 189.579 163.648 186.307 164.004C183.036 164.361 166.457 165.608 166.457 165.608L166.258 165.415L164.804 167.395C166.093 167.334 174.809 166.911 183.256 166.327C192.406 165.696 200.813 164.351 200.813 164.351C200.813 164.351 200.164 164.241 199.358 163.75L199.362 163.748Z"
    fill="#222"
  />
</svg>
