<svg
  width="240"
  height="240"
  viewBox="0 0 240 240"
  fill="none"
  xmlns="http://www.w3.org/2000/svg"
  data-fui-pictogram="true"
>
  <path
    d="M196.2 95.1447V108.337C196.646 108.039 197.113 107.713 197.591 107.365L197.339 94.1923L189.916 91.0907V88.2254C189.321 87.9993 188.965 87.8633 188.965 87.8633V98.8665L196.202 95.1447H196.2Z"
    fill="#F3F3F3"
  />
  <path
    d="M207.442 95.7686C208.053 96.9652 207.847 98.2138 206.438 99.7345C204.641 101.677 200.843 104.999 197.591 107.364C197.113 107.712 196.647 108.038 196.201 108.337C195.805 108.603 195.423 108.847 195.064 109.061C191.549 111.17 173.785 121.243 173.785 121.243L172.918 82.2661C172.786 82.3402 172.712 82.3802 172.708 82.3841C172.646 82.4262 170.495 82.6123 170.495 82.6123V78.0001L192.356 65.5862V65.282L191.263 65.0079L170.083 77.1117L134.825 64.2275L134.552 64.3736C134.296 64.5097 134.13 64.7597 134.084 65.0399L169.525 78.0421V82.6123L135.815 70.0663V87.4105L162.079 97.6675L162.657 128.979C162.657 128.979 101.152 164.344 100.055 164.859C98.9587 165.376 97.9242 165.252 96.1474 164.468C94.3705 163.683 92.8798 162.522 91.4311 161.118C89.9845 159.711 87.8333 157.685 86.6949 157.188C85.5583 156.692 56.9166 141.803 56.9166 141.803L56.3824 138.809L53.0148 139.976C51.2079 137.742 49.8573 135.219 49.8573 135.219L48.2446 135.158C48.2446 135.158 49.5172 139.857 52.9088 142.311C56.3003 144.764 79.2433 155.299 86.7429 159.269C85.5563 159.847 67.9639 163.103 54.2594 163.487C40.5548 163.873 34.9562 161.502 33.1373 158.661C32.427 157.552 32.1869 155.892 32.1549 154.28C31.8287 156.437 32.1169 158.332 32.5731 159.847C33.5855 160.939 35.5764 162.444 39.3702 163.569C46.0715 165.554 64.2422 164.037 69.7847 163.293C75.3274 162.549 84.2897 161.06 85.2822 160.866C86.2746 160.672 87.075 160.838 88.2596 161.831C89.4462 162.823 92.9478 165.304 95.2089 166.572C97.4699 167.841 102.544 168.447 106.266 166.986C109.988 165.526 145.203 145.354 145.203 145.354C145.203 145.354 165.946 133.525 168.614 131.912C171.281 130.299 174.032 122.549 175.273 121.875C176.514 121.199 190.495 113.175 196.905 109.121C202.094 105.839 206.658 101.996 208.431 99.3983C208.455 97.7795 208.071 96.6229 207.445 95.7646L207.442 95.7686Z"
    fill="#F3F3F3"
  />
  <path
    d="M197.34 94.1915L197.592 107.364C200.844 105.001 204.642 101.677 206.439 99.7341C207.845 98.2134 208.051 96.9628 207.443 95.7682C206.551 94.5497 205.175 93.9334 203.813 93.4472C201.782 92.7248 192.86 89.3411 189.915 88.2246V91.09L197.338 94.1915H197.34Z"
    fill="#B6B5B0"
  />
  <path
    d="M195.064 109.064C195.425 108.848 195.805 108.604 196.201 108.34V95.1475L188.963 98.8693V73.3911C188.963 73.3911 174.81 81.2168 172.918 82.2694L173.783 121.246C173.783 121.246 191.549 111.175 195.064 109.064Z"
    fill="#B6B5B0"
  />
  <path
    d="M170.495 82.6092C170.495 82.6092 172.647 82.4231 172.708 82.3811C172.77 82.339 188.964 73.3848 188.964 73.3848L192.355 71.3158V65.5811L170.495 77.995V82.6072V82.6092Z"
    fill="#151515"
  />
  <path
    d="M86.6931 157.188C87.8297 157.684 89.9807 159.711 91.4294 161.117C92.8762 162.524 94.3668 163.683 96.1457 164.467C97.9245 165.251 98.9591 165.377 100.054 164.859C101.15 164.343 162.656 128.978 162.656 128.978L162.077 97.667L135.813 87.41L121.976 82.1355L55.6123 118.169L56.3827 138.809V142.779C56.3827 142.779 85.5566 156.689 86.6952 157.186L86.6931 157.188Z"
    fill="#F3F3F3"
  />
  <path
    d="M169.526 78.041L134.085 65.0388C134.076 65.0868 134.064 65.1349 134.064 65.1848V68.6865C134.064 69.0387 134.268 69.3568 134.588 69.5029L135.815 70.0632L169.526 82.6091V78.0389V78.041Z"
    fill="#151515"
  />
  <path
    d="M176.223 61.2469L176.337 65.1547C176.344 65.3589 176.235 65.5469 176.057 65.647L167.351 70.4513L155.58 65.9151C155.335 65.821 155.182 65.5809 155.196 65.3188L155.502 59.9042L149.035 56.6367L134.823 64.2263L170.081 77.1105L191.261 65.0067L176.223 61.2469Z"
    fill="#B6B5B0"
  />
  <path
    d="M167.201 48.9349L156.567 45.0391C156.51 45.1951 156.466 45.3632 156.452 45.5493C156.428 45.9175 156.274 48.2346 156.098 50.9038L167.153 54.7056L167.201 48.9329V48.9349Z"
    fill="#151515"
  />
  <path
    d="M167.148 55.4054L156.053 51.5896C155.885 54.1368 155.702 56.8741 155.597 58.4849L167.092 62.4188L167.15 55.4054H167.148Z"
    fill="#FA4616"
  />
  <path
    d="M167.817 47.3604L174.426 43.7408L164.91 40.3731C164.514 40.2331 164.08 40.2671 163.712 40.4672C162.169 41.3076 158.041 43.5586 157.671 43.7927C157.611 43.8307 157.545 43.8748 157.479 43.9228L167.234 47.4084C167.426 47.4765 167.638 47.4605 167.817 47.3624V47.3604Z"
    fill="#151515"
  />
  <path
    d="M167.817 54.5033L175.878 50.2052L175.707 44.7807C175.707 44.7546 175.702 44.7306 175.7 44.7046L167.865 48.8066L167.82 54.5033H167.817Z"
    fill="#151515"
  />
  <path d="M167.752 62.4191L176.11 57.6228L175.9 50.9417L167.812 55.2557L167.752 62.4191Z" fill="#FA4616" />
  <path
    d="M155.549 59.1689C155.52 59.6332 155.501 59.9013 155.501 59.9013L155.195 65.3159C155.181 65.5761 155.335 65.8182 155.579 65.9122L167.025 70.3243L167.085 63.1169L155.549 59.1689Z"
    fill="#151515"
  />
  <path
    d="M167.688 70.2648L176.058 65.6466C176.237 65.5485 176.344 65.3584 176.338 65.1544L176.224 61.2465L176.134 58.3711L167.746 63.1834L167.688 70.2627V70.2648Z"
    fill="#151515"
  />
  <path
    d="M167.753 62.4182L167.811 55.2567L175.899 50.9426L175.874 50.2043L167.815 54.5024L167.861 48.8056L175.695 44.7037C175.654 44.3776 175.437 44.0974 175.122 43.9873L174.426 43.7412L167.817 47.361C167.639 47.459 167.424 47.475 167.232 47.407L157.478 43.9214C157.142 44.1594 156.751 44.5196 156.564 45.0399L167.198 48.9357L167.15 54.7085L156.095 50.9067C156.081 51.1328 156.065 51.3608 156.049 51.5909L167.145 55.4068L167.086 62.4201L155.59 58.4863C155.573 58.7444 155.558 58.9745 155.544 59.1705L167.081 63.1185L167.02 70.3259L167.346 70.452L167.682 70.2659L167.74 63.1865L176.128 58.3742L176.105 57.6258L167.747 62.4201L167.753 62.4182Z"
    fill="#F3F3F3"
  />
  <path d="M179.348 83.7524L176.681 85.1131V89.3931L179.348 88.0325V83.7524Z" fill="#151515" />
  <path d="M182.057 82.3692V86.6493L184.704 85.2986V81.0166L182.057 82.3692Z" fill="#151515" />
  <path d="M179.864 95.9211L176.99 97.5199V101.388L179.864 99.803V95.9211Z" fill="#151515" />
  <path d="M182.51 94.4501V98.3439L185.242 96.8392V92.9314L182.51 94.4501Z" fill="#151515" />
  <path d="M185.531 109.971V105.781L182.968 107.257V111.423L185.531 109.971Z" fill="#151515" />
  <path d="M180.338 108.769L177.423 110.447V114.563L180.338 112.91V108.769Z" fill="#151515" />
  <path d="M188.528 104.056V108.272L191.258 106.725V102.485L188.528 104.056Z" fill="#151515" />
  <path
    d="M156.57 81.7785L153.351 80.5359V84.4398L156.575 85.6724C156.57 84.4778 156.566 82.5409 156.57 81.7785Z"
    fill="#151515"
  />
  <path d="M148.946 82.7556V78.8377L145.781 77.6172V81.545L148.946 82.7556Z" fill="#151515" />
  <path d="M161.374 83.6313V87.5093L164.518 88.7117V84.8459L161.374 83.6313Z" fill="#151515" />
  <path d="M141.874 76.1066L138.894 74.958V78.9079L141.874 80.0485V76.1066Z" fill="#151515" />
  <path d="M165.8 102.714V106.712L168.666 107.87V103.899L165.8 102.714Z" fill="#151515" />
  <path
    d="M128.931 168.093C113.49 176.808 104.5 180.337 86.4114 184.418C70.0836 188.101 51.3326 188.123 47.835 188.091C49.2136 191.19 50.2102 193.62 50.5843 194.35C51.4107 195.963 51.991 197.97 55.6928 198.692C59.3945 199.417 64.1728 199.292 75.256 198.258C86.3413 197.224 104.376 192.262 122.326 182.417C140.277 172.572 171.96 153.215 178.785 149.121C185.611 145.026 191.774 140.144 195.827 135.76C199.881 131.376 203.149 124.799 204.224 122.814C204.386 122.514 204.558 122.2 204.734 121.875C200.389 125.279 193.32 130.6 186.673 134.616C176.084 141.013 144.373 159.378 128.931 168.091V168.093Z"
    fill="#151515"
  />
  <path
    d="M208.403 100.026C208.419 99.8096 208.427 99.6034 208.428 99.4014C206.658 102.001 202.091 105.844 196.903 109.124C190.492 113.178 176.511 121.202 175.271 121.878C174.03 122.554 171.279 130.302 168.612 131.915C165.944 133.527 145.2 145.357 145.2 145.357C145.2 145.357 109.988 165.528 106.264 166.989C102.542 168.45 97.4678 167.844 95.2067 166.575C92.9456 165.307 89.444 162.825 88.2574 161.833C87.0708 160.84 86.2725 160.675 85.28 160.869C84.2875 161.062 75.3253 162.551 69.7826 163.296C64.24 164.04 46.0673 165.557 39.3681 163.572C35.5743 162.448 33.5854 160.945 32.5708 159.85C32.861 160.813 33.2152 161.625 33.5213 162.247C34.4037 164.04 37.285 168.602 41.5872 175.718C43.426 178.759 45.1848 182.311 46.6616 185.506C51.4078 185.679 58.9815 185.584 69.4784 184.362C88.8917 182.101 97.88 179.95 107.753 175.814C117.625 171.678 133.343 163.349 148.674 154.249C164.006 145.149 178.564 137.54 191.256 129.156C199.376 123.793 204.595 119.741 207.302 117.516C207.522 117.188 207.739 116.882 207.947 116.608C209.145 115.035 209.035 112.912 208.705 111.231C208.375 109.55 208.071 104.448 208.4 100.022L208.403 100.026Z"
    fill="#151515"
  />
  <path
    d="M54.2598 163.487C67.9643 163.101 85.5567 159.848 86.7433 159.27C79.2437 155.3 56.835 143.788 53.4434 141.333C50.0517 138.879 48.2449 135.156 48.2449 135.156C48.2449 135.156 45.5476 137.015 41.9619 140.296C38.3762 143.578 33.4959 148.844 32.4214 152.981C32.3054 153.425 32.2213 153.857 32.1572 154.281C32.1872 155.892 32.4294 157.553 33.1397 158.661C34.9606 161.5 40.5573 163.873 54.2617 163.487H54.2598Z"
    fill="#B6B5B0"
  />
  <path
    d="M169.626 128.956C170.949 126.929 173.1 122.049 173.1 122.049C173.1 122.049 165.965 117.623 165.24 117.23C164.517 116.838 163.172 116.962 163.172 117.851C163.172 118.739 163.44 127.378 163.44 128.084L168.356 130.49C168.78 130.088 169.21 129.589 169.623 128.956H169.626Z"
    fill="#B6B5B0"
  />
  <path
    d="M163.443 128.087C163.443 128.77 163.401 129.514 162.803 129.99C162.204 130.467 99.4766 166.452 99.4766 166.452C100.573 167.01 103.26 167.301 108.019 164.902C112.775 162.501 164.83 132.638 165.822 132.141C166.504 131.799 167.423 131.379 168.361 130.49L163.446 128.084V128.087H163.443Z"
    fill="#B6B5B0"
  />
  <path
    d="M191.257 129.156C178.565 137.539 164.006 145.15 148.675 154.251C133.344 163.35 117.626 171.677 107.753 175.814C97.8806 179.95 88.8923 182.102 69.479 184.362C58.982 185.585 51.4084 185.679 46.6621 185.507C47.0763 186.404 47.4685 187.272 47.8327 188.092C51.3304 188.123 70.0813 188.103 86.4091 184.419C104.498 180.337 113.488 176.807 128.93 168.095C144.371 159.381 176.082 141.016 186.671 134.619C193.318 130.603 200.39 125.282 204.731 121.879C205.524 120.428 206.444 118.799 207.301 117.521C204.594 119.746 199.375 123.796 191.255 129.16L191.257 129.156Z"
    fill="#F3F3F3"
  />
  <path
    d="M59.1548 175.649C60.7915 175.649 62.1183 174.506 62.1183 173.097C62.1183 171.689 60.7915 170.547 59.1548 170.547C57.5182 170.547 56.1914 171.689 56.1914 173.097C56.1914 174.506 57.5182 175.649 59.1548 175.649Z"
    fill="#F3F3F3"
  />
  <path d="M140.125 125.406V110.07L118.588 121.994L118.856 137.325L140.125 125.406Z" fill="#151515" />
  <path
    d="M140.125 126.544L118.875 138.451L119.145 153.967C125.766 150.169 133.252 145.873 140.124 141.927V126.546L140.125 126.544Z"
    fill="#151515"
  />
  <path
    d="M139.493 109.286L120.575 101.262L99.3613 113.06C108.41 116.96 116.628 120.528 118.064 121.15L139.493 109.286Z"
    fill="#151515"
  />
  <path
    d="M116.968 121.756C114.361 120.623 106.595 117.255 98.2651 113.668L76.0586 126.018L94.4434 134.225L116.968 121.756Z"
    fill="#6196C1"
  />
  <path d="M141.494 89.6282L121.672 100.651L140.593 108.677L161.141 97.3018L141.494 89.6282Z" fill="#151515" />
  <path d="M93.9713 135.104L75.4565 126.838L75.7306 142.164L94.1974 150.893L93.9713 135.104Z" fill="#6196C1" />
  <path d="M117.609 122.537L94.9658 135.073L95.1879 150.588L117.875 137.875L117.609 122.537Z" fill="#6196C1" />
  <path
    d="M98.2077 112.563L119.414 100.769L101.515 93.1775C94.676 96.8693 87.0163 101.005 80.021 104.785C84.9314 106.858 91.7146 109.765 98.2077 112.563Z"
    fill="#151515"
  />
  <path
    d="M120.514 100.158L140.295 89.1589L135.813 87.4081L121.977 82.1335C121.977 82.1335 113.473 86.7237 102.634 92.5726L120.514 100.156V100.158Z"
    fill="#6196C1"
  />
  <path d="M162.083 97.915L141.118 109.523V124.85L162.36 112.948L162.083 97.915Z" fill="#151515" />
  <path
    d="M94.2118 151.994L75.749 143.266L75.9571 151.6C81.5658 154.267 86.248 156.995 86.6942 157.189C87.8307 157.685 89.9818 159.712 91.4305 161.118C92.3709 162.033 93.3314 162.84 94.3759 163.51L94.2118 151.994Z"
    fill="#151515"
  />
  <path
    d="M141.118 125.987V141.354C152.916 134.579 162.657 128.978 162.657 128.978L162.381 114.073L141.118 125.987Z"
    fill="#FA4616"
  />
  <path
    d="M117.894 139.001L95.2007 151.717L95.3768 164.09C95.6269 164.223 95.883 164.349 96.1451 164.465C97.924 165.252 98.9585 165.375 100.053 164.857C100.437 164.677 108.213 160.23 118.162 154.526L117.892 138.999L117.894 139.001Z"
    fill="#151515"
  />
  <path
    d="M74.9227 125.512L97.1112 113.172C90.5041 110.327 83.6789 107.401 78.9006 105.39C67.1869 111.719 56.916 117.472 56.916 117.472L74.9227 125.512Z"
    fill="#FA4616"
  />
  <path d="M74.7485 142.808L56.1797 133.323L56.5198 141.418L74.9566 151.121L74.7485 142.808Z" fill="#151515" />
  <path d="M74.4553 126.392L55.6123 118.169L56.1787 132.276L74.7274 141.71L74.4553 126.392Z" fill="#FA4616" />
</svg>
