<svg
  width="240"
  height="240"
  viewBox="0 0 240 240"
  fill="none"
  xmlns="http://www.w3.org/2000/svg"
  data-fui-pictogram="true"
>
  <path stroke="#000" stroke-opacity=".01" d="M0.5 0.5H239.5V239.5H0.5z" />
  <path
    d="M108.091 159.51L108.843 161.135H109.813L111.73 158.114L112.181 160.167V178.766L113.152 179.073L113.885 179.213L128.045 185.879L129.093 188.34L129.821 188.705L131.869 185.45L141.667 183.621L143.759 187.056L145.786 190.831H146.758L148.795 188.029L151.883 180.22L164.241 186.496L169.003 201.047L170.992 203.182L171.962 203.168L178.034 196.27L181.488 192.743L188.458 193.609L189.428 193.171V184.365L190.432 183.529L193.48 186.268L194.45 185.951L196.168 183.894L204.874 177.054L205.874 174.076L206.059 125.874L206.781 123.32L205.918 122.673L202.767 122.454L204.277 121.495L203.482 120.819C203.482 120.819 200.317 119.724 200.317 119.608C200.317 119.491 203.482 115.701 203.482 115.701L202.767 114.874H201.894L201.346 114.135L200.54 113.716H199.671L197.832 107.898L200.171 104.804L199.701 104.225L196.276 103.903L189.723 102.668L187.507 103.203L186.769 103.65L187.074 104.682L188.175 112.607L186.744 112.855L186.07 113.337L185.788 114.139L185.132 114.568L184.099 114.441L183.58 115.268C183.58 115.268 183.751 115.905 183.77 116.037C183.789 116.168 185.56 121.782 185.56 121.782L180.906 121.627L180.397 122.459L181.279 124.764L185.56 156.119L180.708 158.455L174.613 155.107L171.968 113.342L173.229 89.7757L175.18 86.307L174.394 85.6113L158.914 84.3026L140.109 81.7728L139.031 82.3615L139.866 87.061L140.109 125.703L139.012 127.221V130.033L125.706 130.515V128.744L125.24 127.654L124.784 71.3132L125.507 68.0342L125.066 67.1682L122.537 66.7547L121.217 65.0666L119.543 64.3611C119.543 64.3611 118.252 59.1703 118.31 59.0486C118.369 58.927 120.247 55.8669 120.247 55.8669L119.543 55.3901H116.107L115.496 53.6242L114.768 53.235L113.783 53.0647C113.783 53.0647 113.7 51.5857 113.7 51.4204C113.7 51.2549 114.666 49.3916 114.666 49.3916L114.098 48.8467H112.443L110.828 47.7084L111.992 44.512L111.517 43.9283L109.318 43.7969L107.45 43.4126L106.208 43.8407L105.465 44.2883C105.465 44.2883 105.606 47.0711 105.606 47.1975V48.3603L104.024 48.6765L103.243 49.1046V54.928L98.7004 55.5555L97.919 55.9885L98.5742 57.3799L100.477 68.4867L94.7065 66.9299L94.2746 67.8055L95.318 69.6833L100.03 109.211L93.8719 118.79L89.1016 115.964C89.1016 115.964 88.6697 113.288 88.6697 112.923C88.6697 112.558 89.7131 109.119 89.7131 109.119L89.1016 108.608L87.2527 109.041L87.7962 107.163L88.1747 106.555L88.0728 105.684L80.983 105.601L76.8387 105.674L76.5329 106.336L77.5908 108.637L76.9455 108.822L75.7079 108.564L75.0577 109.041L75.5091 110.992L78.6828 116.801L77.7705 118.581L76.0137 118.396L72.8449 117.72H71.2628V99.3354L71.8743 97.2045L71.2628 96.7812L64.794 96.4163L58.1361 92.9525L45.2617 101.787L35.692 100.586L34.7651 101.165L37.7447 109.211L39.8702 174.888L47.1979 180.872L48.1685 180.434L51.2791 175.579L57.5391 175.486L59.3249 174.484L70.5058 194.207L74.0872 200.959L75.0238 201.056L76.727 198.435L103.99 183.81L106.115 177.764V160.366H107.086L108.125 159.514L108.091 159.51Z"
    fill="#F3F3F3"
  />
  <path
    d="M186.07 113.339L194.305 117.387C194.305 117.387 194.305 117.387 194.311 117.387C194.354 117.406 194.402 117.421 194.457 117.421H194.461C194.514 117.421 194.563 117.406 194.611 117.387C194.611 117.387 194.617 117.387 194.621 117.387L201.338 114.132L202.764 114.871L193.961 119.605L184.091 114.438L186.066 113.339H186.07Z"
    fill="#151515"
  />
  <path
    d="M186.671 103.705L186.764 103.646L194.276 107.397L194.11 116.475L186.739 112.856C186.768 112.788 186.792 112.72 186.788 112.642L186.671 103.705Z"
    fill="#151515"
  />
  <path
    d="M200.43 113.659L200.537 113.713 194.845 116.471 195.009 107.403 200.168 104.8V113.226C200.168 113.406 200.269 113.577 200.43 113.659zM194.453 120.449L203.439 115.614V120.644C203.439 120.702 203.454 120.761 203.473 120.819L194.453 125.699V120.449z"
    fill="#B6B5B0"
  />
  <path
    d="M191.853 100.553L199.696 104.221 194.643 106.766 187.5 103.204 191.853 100.553zM183.327 120.279C183.483 120.192 183.58 120.031 183.58 119.851V115.264L193.49 120.45V126.511C193.49 126.682 193.581 126.842 193.726 126.93 193.804 126.974 193.886 126.998 193.975 126.998 194.053 126.998 194.135 126.979 194.203 126.94L204.277 121.491 205.917 122.673 193.732 128.929 180.901 121.622 183.327 120.279zM179.194 158.537L176.704 160.717V160.721L176.143 160.429V156.859L179.194 158.537zM171.478 175.945L157.241 168.04 162.589 164.975 172.541 159.657 187.493 167.416 171.478 175.945z"
    fill="#151515"
  />
  <path
    d="M175.17 159.928L172.759 158.678C172.618 158.604 172.447 158.604 172.308 158.678L162.83 163.738V92.4222L175.17 86.302V159.928Z"
    fill="#B6B5B0"
  />
  <path
    d="M152.707 75.8445L174.384 85.6084 162.394 91.5582 140.1 81.77 152.707 75.8445zM139.021 127.119V82.3567L161.859 92.3833V147.547L151.303 142.118V133.599C151.303 133.414 151.196 133.244 151.032 133.161L139.002 127.216C139.006 127.187 139.021 127.153 139.021 127.124V127.119z"
    fill="#151515"
  />
  <path d="M133.659 125.66L149.887 133.677L129.253 144.638L113.272 136.353L133.659 125.66Z" fill="#151515" />
  <path
    d="M109.085 61.0382L120.237 55.8618V66.4042L109.085 71.3081V61.0382zM109.314 51.7682L114.657 49.394V52.9407C114.657 53.0477 114.696 53.1498 114.759 53.2326V54.7309L109.314 57.1391V51.7731 51.7682z"
    fill="#B6B5B0"
  />
  <path
    d="M102.529 53.7467C102.698 53.6638 102.805 53.4937 102.805 53.3087V49.339L103.237 49.1055L108.58 51.7617V57.3369L104.256 55.425C104.072 55.3423 103.858 55.425 103.776 55.6099C103.693 55.7947 103.776 56.0088 103.96 56.0915L108.57 58.13C108.619 58.1494 108.667 58.1592 108.716 58.1592C108.764 58.1592 108.818 58.1494 108.861 58.13L109.08 58.0326L115.257 55.3034C115.388 55.2449 115.476 55.1137 115.476 54.9678V53.6201L119.523 55.3861L108.716 60.4019L98.6851 55.5563L102.519 53.7467H102.529Z"
    fill="#151515"
  />
  <path
    d="M97.6268 65.6263C97.8015 65.5483 97.9132 65.3733 97.9132 65.1835V55.9888L108.356 61.0337V71.1869L107.216 70.7636C106.964 70.6712 106.687 70.7976 106.595 71.0506C106.502 71.3036 106.629 71.581 106.881 71.6734L108.744 72.3641C108.861 72.4079 108.992 72.403 109.108 72.3544L120.915 67.1636C121.09 67.0857 121.206 66.9106 121.206 66.7159V65.0473C122.017 65.4511 123.545 66.2927 125.055 67.149L109.637 75.0205L94.6958 66.9203L97.6268 65.6165V65.6263Z"
    fill="#151515"
  />
  <path
    d="M82.5059 112.721L89.7024 109.121V117.201C89.7024 117.318 89.7462 117.43 89.8239 117.518V120.806L82.5059 124.494V112.721Z"
    fill="#B6B5B0"
  />
  <path d="M82.236 102.668L88.069 105.684L82.2505 108.735L76.8301 105.679L82.236 102.668Z" fill="#151515" />
  <path
    d="M76.3242 108.104C76.4504 108.012 76.5232 107.866 76.5232 107.71V106.338L81.8807 109.36V110.464C81.8807 110.663 82.0457 110.829 82.2446 110.829 82.4436 110.829 82.6085 110.663 82.6085 110.464V109.369L88.1698 106.455V107.793C88.1698 107.968 88.262 108.129 88.4125 108.216L89.0967 108.61 82.1524 112.084 75.6934 108.567 76.3242 108.104zM74.4549 116.809C74.6052 116.721 74.7024 116.561 74.7024 116.386V109.293L75.042 109.04 81.7777 112.708V124.51L75.0323 121.441C74.8479 121.358 74.6343 121.441 74.5519 121.621 74.4694 121.805 74.5519 122.019 74.7315 122.102L81.9911 125.405C82.0397 125.425 82.0883 125.439 82.1417 125.439 82.1902 125.439 82.2387 125.425 82.2872 125.405 82.2921 125.405 82.2969 125.405 82.3066 125.405L90.3526 121.353C90.4739 121.29 90.5515 121.163 90.5515 121.027V117.972L95.312 120.764 80.6566 128.033 72.8291 123.596V117.719L74.45 116.804 74.4549 116.809z"
    fill="#151515"
  />
  <path
    d="M106.08 152.987V162.795L75.0225 179.009V169.523L106.066 152.996C106.066 152.996 106.075 152.987 106.08 152.981V152.987Z"
    fill="#B6B5B0"
  />
  <path
    d="M74.5375 168.687L59.0718 160.733 90.6729 144.829 105.212 152.354 74.5375 168.687zM72.8364 124.721L80.1641 128.876V149.026L72.8364 152.719V124.721z"
    fill="#151515"
  />
  <path
    d="M90.8975 143.847C90.7617 143.774 90.5966 143.774 90.4559 143.847L81.1289 148.542V128.897L95.8474 121.595V146.416L90.8926 143.852L90.8975 143.847Z"
    fill="#FA4616"
  />
  <path d="M57.6763 89.4475L71.2495 96.4239L47.5923 107.652L35.6787 100.588L57.6763 89.4475Z" fill="#151515" />
  <path
    d="M34.7461 174.27V101.165L47.0819 108.477 47.174 180.867 34.7461 174.27zM48.1434 180.432L48.0513 108.508 71.859 97.2114V153.207L57.781 160.296C57.7568 160.309 57.7325 160.324 57.7131 160.345 57.7034 160.353 57.6937 160.358 57.684 160.364 57.6404 160.402 57.6064 160.446 57.5772 160.495 57.5772 160.495 57.5723 160.499 57.5674 160.505 57.5674 160.514 57.5675 160.524 57.5626 160.529 57.5432 160.573 57.5335 160.616 57.5238 160.664 57.5238 160.679 57.5189 160.694 57.5189 160.704 57.5189 160.713 57.5189 160.719 57.5189 160.723V175.484L48.1483 180.426 48.1434 180.432z"
    fill="#B6B5B0"
  />
  <path
    d="M106.791 152.077L96.8231 146.915V120.805C96.8231 120.761 96.8183 120.722 96.8086 120.683C96.794 120.63 96.7698 120.581 96.7357 120.537C96.726 120.527 96.7211 120.518 96.7114 120.503C96.6774 120.459 96.6386 120.425 96.595 120.396H96.5901L93.8726 118.8L94.2754 67.8154L109.154 75.8815L108.853 161.145L107.062 160.298V152.519C107.062 152.34 106.961 152.169 106.8 152.086L106.791 152.077Z"
    fill="#151515"
  />
  <path d="M113.151 137.107L128.894 145.271L129.093 188.345L113.151 179.077V137.107Z" fill="#F3F3F3" />
  <path d="M171.957 203.174V176.792L188.457 168.001V193.614L171.957 203.174Z" fill="#B6B5B0" />
  <path
    d="M189.165 167.188L177.627 161.2L180.223 158.923C180.329 158.831 180.388 158.699 180.388 158.558V122.451L193.227 129.763L193.476 186.269L189.423 184.367V167.617C189.423 167.438 189.321 167.267 189.161 167.184L189.165 167.188Z"
    fill="#151515"
  />
  <path d="M194.45 185.957L194.203 129.781L206.776 123.325V178.864L194.45 185.957Z" fill="#B6B5B0" />
  <path
    d="M151.878 142.415L154.548 143.787V92.7291L151.878 91.5566V142.415zM156.583 144.835L159.282 146.222V95.0424L156.583 93.7678V144.835zM141.961 128.676L144.694 130.029V88.3505L141.961 87.2268V128.676zM146.936 131.139L149.454 132.38V90.575L146.936 89.3879V131.139z"
    fill="#FA4616"
  />
  <path
    d="M199.681 148.482L201.398 147.602V140.149L199.681 141.03V148.482zM199.681 167.47L201.398 166.59V159.307L199.681 160.188V167.47zM199.681 157.98L201.398 157.099V149.816L199.681 150.698V157.98zM197.981 151.562L196.414 152.365 196.429 159.643 197.981 158.846V151.562zM202.918 174.948L204.593 174.077V167.163L202.918 168.025V174.948zM199.681 169.678V176.625L201.398 175.735V168.797L199.681 169.678zM202.918 139.374V146.827L204.593 145.966V138.513L202.918 139.374zM196.454 171.334L196.463 178.295 197.983 177.507V170.551L196.454 171.334zM202.918 156.318L204.593 155.462V148.18L202.918 149.036V156.318zM204.593 136.301V129.159L202.918 130.02V137.162L204.593 136.301zM202.918 165.812L204.593 164.955V157.672L202.918 158.533V165.812zM197.984 132.56L196.377 133.387 196.392 140.505 197.984 139.687V132.56zM201.398 137.94V130.803L199.681 131.683V138.815L201.398 137.94zM197.985 161.06L196.437 161.853 196.45 169.126 197.985 168.338V161.06zM197.981 141.899L196.395 142.711 196.409 150.155 197.981 149.352V141.899zM135.726 185.309C135.852 185.271 135.989 185.285 136.105 185.349L145.786 190.83 145.815 156.509 136.002 151.294C135.905 151.245 135.844 151.161 135.8 151.07H135.795L135.726 185.304V185.309zM146.299 155.666L160.79 148.091 150.595 142.847C150.479 142.789 150.391 142.682 150.357 142.56L136.366 150.403V150.412C136.396 150.422 136.429 150.422 136.459 150.441L146.305 155.671 146.299 155.666z"
    fill="#151515"
  />
  <path
    d="M150.356 142.562C150.342 142.514 150.331 142.465 150.331 142.416V134.268L129.616 145.267 129.815 188.706 135.619 185.35C135.653 185.331 135.687 185.316 135.72 185.305L135.788 151.077H135.792C135.731 150.935 135.72 150.779 135.792 150.633 135.904 150.424 136.142 150.337 136.356 150.405V150.395L150.346 142.553 150.356 142.562zM155.762 168.049C155.762 167.873 155.855 167.708 156.005 167.621L161.857 164.265V148.638H161.848L146.78 156.509 146.75 190.875 155.239 185.806C155.389 185.718 155.574 185.713 155.728 185.802 155.88 185.889 155.977 186.049 155.977 186.225V168.438C155.844 168.351 155.762 168.205 155.762 168.044V168.049z"
    fill="#B6B5B0"
  />
  <path
    d="M156.016 168.471C156.016 168.471 155.992 168.452 155.978 168.443V194.762L170.991 203.188V176.787L156.016 168.471Z"
    fill="#FA4616"
  />
  <path
    d="M112.733 48.2105L109.191 49.884C109.128 49.9424 109.04 49.9814 108.948 49.9814C108.749 49.9814 108.584 49.8159 108.584 49.6164V45.8315L105.464 44.2893L105.114 44.4985V47.7922C105.114 47.9721 105.017 48.1327 104.862 48.2203L104.022 48.6775L108.958 51.1294L114.092 48.8478L112.733 48.2105Z"
    fill="#151515"
  />
  <path
    d="M112.734 48.2076L112.269 47.9887C112.099 47.906 111.992 47.7357 111.992 47.546V44.5103C110.987 44.9626 109.77 45.527 109.318 45.7946V49.6087C109.318 49.7158 109.27 49.8082 109.197 49.8763L112.739 48.2028 112.734 48.2076zM110.027 43.9576V43.1112H110.017C109.876 43.0284 109.784 42.8874 109.765 42.7269L108.595 31.2456H108.493L108.726 44.4004 110.022 43.9528 110.027 43.9576z"
    fill="#B6B5B0"
  />
  <path
    d="M110.027 43.1142V43.9607L108.731 44.4082 108.498 31.2534H108.081L107.46 42.832C107.45 42.9926 107.363 43.1385 107.227 43.2213L106.203 43.8392 108.926 45.1818C109.464 44.8656 110.677 44.3013 111.512 43.9267L110.027 43.1142zM112.899 77.973V135.448L114.171 134.781V77.394L112.899 77.973zM115.457 76.8046V134.109L116.971 133.311V76.1138L115.457 76.8046zM118.256 75.5321V132.642L120.032 131.708V74.7197L118.256 75.5321zM122.727 73.4932L121.319 74.1353V131.031L122.727 130.296V73.4932z"
    fill="#151515"
  />
  <path
    d="M125.498 68.0249L110.115 75.8818L109.814 161.086L112.177 160.173V136.125C112.177 135.945 112.279 135.779 112.439 135.692L112.895 135.453V77.9786L122.722 73.498V130.301L125.692 128.744L125.493 68.0298L125.498 68.0249Z"
    fill="#B6B5B0"
  />
  <path
    d="M116.97 76.1148V133.312L118.256 132.641V75.531L116.97 76.1148zM114.171 77.3963V134.783L115.457 134.112V76.8076L114.171 77.3963zM120.033 74.7191V131.707L121.319 131.031V74.1353L120.033 74.7191zM58.4834 180.576L72.8817 188.336V186.565L74.0511 187.11V186.068L58.4834 177.93V180.576z"
    fill="#B6B5B0"
  />
  <path
    d="M72.8817 188.335L58.4834 180.576V184.288L74.0511 192.427V187.109L72.8817 186.564V188.335zM72.8817 194.693L58.4834 186.934V191.998L74.0608 200.959C74.0608 200.959 74.0511 200.929 74.0511 200.916V193.467L72.8768 192.922V194.693H72.8817z"
    fill="#151515"
  />
  <path d="M58.4834 186.936L72.8817 194.696V192.925L74.0511 193.47V192.428L58.4834 184.288V186.936Z" fill="#B6B5B0" />
  <path d="M72.8817 179.471V181.242L58.4834 173.483V177.928L74.0511 186.068V180.01L72.8817 179.471Z" fill="#151515" />
  <path d="M72.8817 179.472L74.0511 180.011V178.975L58.4834 170.837V173.484L72.8817 181.243V179.472Z" fill="#B6B5B0" />
  <path
    d="M74.0511 169.535L58.4834 161.527V170.839L74.0511 178.978V169.535zM103.959 168.016V165.004L76.9048 179.126V182.459L103.959 168.016z"
    fill="#151515"
  />
  <path
    d="M103.96 165.004V168.02L76.9055 182.465V179.132L75.0225 180.115V185.889L105.915 169.66C105.969 169.63 106.022 169.622 106.08 169.611V163.9L103.955 165.009L103.96 165.004Z"
    fill="#B6B5B0"
  />
  <path d="M103.96 174.675V171.779L77.0566 185.912V189.177L103.96 174.675Z" fill="#151515" />
  <path
    d="M103.96 174.672L77.0559 189.175V185.911L75.0225 186.976V193.053L106.08 176.663V170.664L103.96 171.778V174.672Z"
    fill="#B6B5B0"
  />
  <path d="M104.174 181.336V178.772L77.0566 193.084V195.989L104.174 181.336Z" fill="#151515" />
  <path
    d="M104.173 181.334L77.0562 195.986V193.078L75.0228 194.147V200.911C75.0228 200.96 75.0082 201.002 74.9937 201.047L106.081 183.898V177.753L104.169 178.761V181.323L104.173 181.334Z"
    fill="#B6B5B0"
  />
  <path
    d="M82.9517 172.464L86.5913 170.532V166.121C85.3052 166.806 84.0774 167.459 82.9517 168.057V172.464zM92.4368 163.002C91.1508 163.687 89.8406 164.389 88.5547 165.074V169.492L92.4368 167.435V163.002zM98.1544 159.951C96.9897 160.573 95.7184 161.253 94.3936 161.959V166.396L98.1544 164.401V159.951zM100.116 158.9V163.362L104.182 161.206V156.727C104.182 156.727 102.561 157.592 100.116 158.9zM80.9929 169.103C78.6344 170.352 77.0865 171.166 77.0913 171.141V175.577L80.9929 173.51V169.103z"
    fill="#C1FA81"
  />
  <path
    d="M120.054 160.326L117.099 158.672V163.255L120.054 164.963V160.326zM117.099 171.229V175.607L120.054 177.334V172.98L117.099 171.229zM120.054 166.779L117.099 165.096V169.546L120.054 171.294V166.779zM120.054 147.524L117.099 145.865V150.457L120.054 152.136V147.524zM120.054 153.721L117.099 152.018V156.791L120.054 158.46V153.721zM125.314 168.006L128.042 169.581V164.804L125.314 163.271V168.006zM125.314 161.431L128.042 162.974V158.328L125.314 156.751V161.431zM125.314 174.394L128.042 176.009V171.339L125.314 169.781V174.394zM121.246 173.687V178.036L124.119 179.715V175.39L121.246 173.687zM125.314 155.122L128.042 156.675V152.008L125.314 150.476V155.122zM124.119 154.446V149.806L121.246 148.195V152.812L124.119 154.446zM121.246 165.649L124.119 167.313V162.603L121.246 160.993V165.649zM121.246 159.136L124.119 160.757V156.067L121.246 154.414V159.136zM121.246 167.459V171.993L124.119 173.691V169.099L121.246 167.459zM115.908 151.331L113.151 149.736V154.557L115.908 156.113V151.331zM115.908 158.008L113.151 156.461V160.972L115.908 162.567V158.008zM115.908 164.413L113.151 162.843V167.216L115.908 168.846V164.413zM115.908 139.721L113.151 138.267V141.925L115.908 143.467V139.721zM115.908 145.198L113.151 143.646V148.214L115.908 149.782V145.198zM121.246 179.822V183.787L124.119 185.455V181.525L121.246 179.822zM115.908 170.521L113.151 168.885V173.294L115.908 174.914V170.521zM113.151 175.021V179.078L115.908 180.684V176.655L113.151 175.021zM117.099 177.365V181.374L120.054 183.091V179.117L117.099 177.365zM125.314 182.231V186.146L128.042 187.733V183.85L125.314 182.231zM125.314 176.1V180.416L128.042 182.011V177.72L125.314 176.1zM128.042 150.23V146.095L125.314 144.66V148.707L128.042 150.23zM120.054 145.775V141.893L117.099 140.341V144.126L120.054 145.775zM124.119 148.04V144.032L121.246 142.523V146.44L124.119 148.04zM56.7377 117.236L53.7095 118.671V122.685L56.7328 121.24C56.7328 119.844 56.7328 118.506 56.7328 117.236H56.7377zM56.7435 111.791L53.7153 113.28V117.104L56.7435 115.654C56.7435 114.253 56.7435 112.959 56.7435 111.791zM56.7387 122.886L53.7153 124.326V128.32L56.7387 126.866C56.7387 125.509 56.7387 124.176 56.7387 122.881V122.886zM56.7338 134.206L53.7153 135.724V139.825L56.7338 138.297C56.7338 136.935 56.7338 135.568 56.7338 134.206zM56.7338 128.594L53.7153 130.053V133.887L56.7338 132.442C56.7338 131.148 56.7338 129.863 56.7338 128.594zM62.6904 124.006L65.7621 122.531V118.586L62.6904 120.05V124.006zM62.6904 135.288L65.7621 133.732V129.665L62.6904 131.212V135.288zM65.7621 111.332V107.357L62.6904 108.866V112.801L65.7621 111.332zM61.3977 113.424V109.503L58.1221 111.113V114.991L61.3977 113.424zM62.6904 118.403L65.7621 116.939V112.964L62.6904 114.419V118.403zM62.6904 129.587L65.7621 128.113V124.231L62.6904 125.715V129.587zM56.729 151.493L53.7153 153.045V157.2L56.729 155.629C56.729 154.319 56.729 152.938 56.729 151.493zM56.728 140.043L53.7095 141.581V145.623L56.7231 144.067C56.7231 142.743 56.7231 141.4 56.7231 140.043H56.728zM56.729 145.746L53.7153 147.347V151.394L56.729 149.813C56.729 148.494 56.729 147.133 56.729 145.746zM62.6904 148.429V152.525L65.7621 150.925V146.848L62.6904 148.429zM58.1221 150.778V154.904L61.3977 153.2V149.095L58.1221 150.778zM58.1221 145.008V149.085L61.3977 147.368V143.271L58.1221 145.008zM61.3977 137.663L58.1221 139.332V143.345L61.3977 141.657V137.663zM61.3977 115.029L58.1221 116.581V120.585L61.3977 119.018V115.029zM61.3977 120.668L58.1221 122.23V126.205L61.3977 124.628V120.668zM54.0981 177.291L57.5144 175.486V169.77L54.0981 171.634V177.287 177.291zM61.3977 131.862L58.1221 133.507V137.598L61.3977 135.939V131.862zM61.3977 126.342L58.1221 127.923V131.776L61.3977 130.205V126.342zM62.6904 140.989L65.7621 139.403V135.438L62.6904 137.005V140.989zM62.6904 146.692L65.7621 145.082V140.957L62.6904 142.586V146.692zM52.2507 107.928L48.9751 109.417 48.9702 113.859 52.2507 112.292V107.928zM56.7425 110.135C56.7425 108.062 56.7425 106.574 56.7425 105.883L53.7095 107.26V111.584L56.7377 110.135H56.7425zM52.2507 113.999L48.9702 115.609V119.374L52.2507 117.803V113.999zM61.3977 107.909V103.773L58.1221 105.262V109.48L61.3977 107.909zM52.2516 125.029L48.9712 126.59 48.9663 130.609 52.2516 129.028V125.029zM52.2507 119.367L48.9702 120.923V124.952L52.2507 123.39V119.367zM67.2568 121.812L70.3529 120.323V116.402L67.2568 117.876V121.812zM67.2568 116.222L70.3529 114.748V110.788L67.2568 112.257V116.222zM67.2568 110.612L70.3529 109.133V105.1L67.2568 106.623V110.612zM65.7621 105.816V101.787L62.6904 103.184V107.29L65.7621 105.816zM70.3529 103.617V99.7051L67.2568 101.111V105.1L70.3529 103.617zM53.7153 164.339V168.017L56.7435 166.578C56.7435 165.804 56.7387 164.472 56.7387 162.716L53.7202 164.335 53.7153 164.339zM58.1221 156.538V160.123L61.3977 158.474V154.834L58.1221 156.538zM48.9546 166.896V170.288L52.2497 168.72V165.131L48.9546 166.896zM67.2568 151.784V155.52L70.3529 153.964V150.174L67.2568 151.784zM62.6904 154.164V157.823L65.7621 156.276V152.564L62.6904 154.164zM52.2497 159.593L48.9546 161.306V165.199L52.2497 163.47V159.593zM52.2516 130.759L48.9663 132.345V136.159L52.2516 134.587V130.759zM52.2516 136.463L48.9663 138.112V142.228L52.2516 140.569V136.463zM52.2487 142.322L48.9585 143.995V148.067L52.2487 146.369V142.322zM52.2487 148.126L48.9585 149.872V153.886L52.2487 152.164V148.126zM52.2497 153.798L48.9594 155.491 48.9546 159.681 52.2497 157.963V153.798zM67.2568 144.298L70.3529 142.678V138.519L67.2568 140.163V144.298zM67.2568 150.146L70.3529 148.536V144.489L67.2568 146.079V150.146zM67.2568 132.973L70.3529 131.411V127.354L67.2568 128.91V132.973zM67.2568 138.636L70.3529 137.04V133.104L67.2568 134.68V138.636zM53.7153 162.701L56.7338 161.12C56.7338 159.957 56.7338 158.668 56.7338 157.267L53.7202 158.833V162.701H53.7153zM67.2568 127.398L70.3529 125.919V122.012L67.2568 123.506V127.398z"
    fill="#151515"
  />
</svg>
