<svg
  width="240"
  height="240"
  viewBox="0 0 240 240"
  fill="none"
  xmlns="http://www.w3.org/2000/svg"
  data-fui-pictogram="true"
>
  <path
    d="M99.174 206.127C86.309 206.127 74.2495 203.528 64.2942 198.618C53.9334 193.508 45.7945 185.833 40.7553 176.429C32.2522 160.563 32.8475 141.076 42.4334 121.547C51.9372 102.193 69.1693 85.0892 90.953 73.3936C108.719 63.8554 127.773 58.8115 146.056 58.8115C158.921 58.8115 170.982 61.4105 180.936 66.3209C191.297 71.4315 199.436 79.1053 204.475 88.51C212.979 104.376 212.383 123.864 202.797 143.392C193.293 162.745 176.061 179.849 154.278 191.545C136.512 201.083 117.458 206.127 99.174 206.127Z"
    fill="#151515"
  />
  <path
    d="M208.237 129.04L199.339 106.419L198.385 106.794L207.78 130.678C207.939 130.129 208.093 129.585 208.237 129.04Z"
    fill="#F3F3F3"
  />
  <path
    d="M100.985 206.111L95.1139 186.711L94.1338 187.009L99.9171 206.122C100.271 206.122 100.63 206.122 100.985 206.111Z"
    fill="#F3F3F3"
  />
  <path
    d="M159.188 163.896L158.223 164.251L165.669 184.663C165.961 184.463 166.254 184.262 166.542 184.061L159.183 163.896H159.188Z"
    fill="#F3F3F3"
  />
  <path
    d="M91.6236 191.945C78.6097 191.945 66.4014 189.315 56.328 184.348C45.8441 179.176 37.6078 171.41 32.507 161.897C23.9012 145.846 24.5067 126.123 34.2055 106.368C43.8222 86.7832 61.2544 69.4788 83.3 57.6446C101.276 47.9934 120.556 42.8879 139.055 42.8879C152.069 42.8879 164.277 45.5177 174.351 50.4845C184.835 55.6569 193.07 63.423 198.172 72.9355C206.778 88.9867 206.172 108.71 196.474 128.465C186.856 148.05 169.424 165.355 147.379 177.188C129.403 186.84 110.123 191.945 91.6236 191.945Z"
    fill="#F3F3F3"
  />
  <path
    d="M146.645 175.842C191.646 151.682 214.109 105.942 196.818 73.6796C179.528 41.4174 129.032 34.85 84.032 59.011C39.0322 83.172 16.5691 128.912 33.8594 161.175C51.1495 193.437 101.646 200.004 146.645 175.842Z"
    fill="#B6B5B0"
  />
  <path
    d="M142.072 167.307C180.494 146.677 199.673 107.623 184.909 80.0748C170.146 52.5272 127.03 46.9185 88.6085 67.5474C50.1871 88.1763 31.0086 127.231 45.7722 154.779C60.5357 182.327 103.651 187.935 142.072 167.307Z"
    fill="#F3F3F3"
  />
  <path
    d="M95.0931 178.196C72.8422 178.196 55.3588 169.392 47.1327 154.046C40.2306 141.174 40.7643 125.261 48.6312 109.246C56.58 93.0559 71.0359 78.7255 89.3354 68.8996C104.269 60.8817 120.264 56.6392 135.592 56.6392C157.843 56.6392 175.326 65.4429 183.553 80.7902C197.891 107.546 178.959 145.74 141.35 165.936C126.416 173.953 110.421 178.196 95.0931 178.196Z"
    fill="#151515"
  />
  <path d="M137.537 108.31L130.933 115.819L157.36 101.248L137.537 108.31Z" fill="#F3F3F3" />
  <path
    d="M114.512 130.104L102.227 138.995L96.582 156.331L116.329 129.924C115.103 130.191 114.512 130.099 114.512 130.099V130.104Z"
    fill="#F3F3F3"
  />
  <path
    d="M123.633 126.596C123.514 126.673 123.391 126.755 123.267 126.832C120.373 128.61 118.254 129.431 116.822 129.811L129.297 147.732L123.633 126.596Z"
    fill="#F3F3F3"
  />
  <path
    d="M130.005 116.842L128.69 117.936C128.69 117.936 129.26 122.543 124.217 126.195L154.478 126.827L130.005 116.837V116.842Z"
    fill="#F3F3F3"
  />
  <path
    d="M116.406 107.474C116.406 107.474 135.074 81.0212 134.91 81.5041C134.746 81.9869 129.716 99.6406 129.584 99.769C129.45 99.8974 116.4 107.474 116.4 107.474H116.406Z"
    fill="#F3F3F3"
  />
  <path d="M107.647 111.521L100.627 90.7495L113.646 108.532L107.647 111.521Z" fill="#F3F3F3" />
  <path
    d="M106.302 113.282L75.8301 112.897L101.617 121.886C101.617 121.886 105.219 117.92 105.368 117.617C105.517 117.314 106.297 113.282 106.297 113.282H106.302Z"
    fill="#F3F3F3"
  />
  <path d="M90.8863 133.596L75.8301 139.929L95.8024 127.473L90.8863 133.596Z" fill="#F3F3F3" />
  <path d="M112.054 124.65L115.426 126.468L62.3594 165.782L104.695 116.391L112.054 124.65Z" fill="#354B98" />
  <path
    d="M115.601 108.054L116.169 107.099L170.212 69.3057L126.335 117.115L120.347 109.328L115.601 108.054Z"
    fill="#FA4616"
  />
  <path
    d="M126.566 111.494C124.37 106.907 117.597 105.582 111.443 108.535C105.291 111.489 102.083 117.606 104.28 122.193C106.476 126.78 113.25 128.105 119.402 125.151C125.555 122.198 128.763 116.081 126.566 111.494ZM117.088 120.308C114.39 121.602 111.418 121.022 110.453 119.008C109.488 116.995 110.894 114.314 113.594 113.019C116.293 111.725 119.264 112.305 120.229 114.319C121.193 116.332 119.787 119.014 117.088 120.308Z"
    fill="#F3F3F3"
  />
  <path d="M55.0721 105.448L52.0137 111.679L67.9627 111.422L55.0721 105.448Z" fill="#F3F3F3" />
  <path
    d="M94.5179 70.4399L87.4619 74.2306C87.4619 74.2306 97.0632 83.8203 97.0427 83.7123C97.0222 83.6045 94.5179 70.445 94.5179 70.445V70.4399Z"
    fill="#F3F3F3"
  />
  <path d="M142.413 61.019L138.662 75.3393L149.438 62.3391L142.413 61.019Z" fill="#F3F3F3" />
  <path d="M181.587 86.1274L167.389 95.8454L183.383 91.4333L181.587 86.1274Z" fill="#F3F3F3" />
  <path d="M177.436 128.275L174.101 134.182L161.913 128.275H177.436Z" fill="#F3F3F3" />
  <path d="M134.288 167.215L141.087 163.708L132.43 154.483L134.288 167.215Z" fill="#F3F3F3" />
  <path d="M83.3076 174.76L90.1071 175.983L93.6633 162.016L83.3076 174.76Z" fill="#F3F3F3" />
  <path d="M49.6182 149.728L52.143 154.566L65.7419 144.977L49.6182 149.728Z" fill="#F3F3F3" />
</svg>
