<svg
  width="240"
  height="240"
  viewBox="0 0 240 240"
  fill="none"
  xmlns="http://www.w3.org/2000/svg"
  data-fui-pictogram="true"
>
  <path stroke="#000" stroke-opacity=".01" d="M0.5 0.5H239.5V239.5H0.5z" />
  <path
    d="M150.504 144.863L154.494 148.011L156.833 148.944L174.489 175.342L183.396 186.732L184.814 186.197L192.013 180.113C192.013 180.113 200.05 151.228 200.05 150.963C200.05 150.698 193.662 114.595 193.662 114.595L183.385 86.3938L182.794 84.65L183.074 82.2014L180.909 78.555L172.265 69.4499L171.321 68.9781L156.443 69.4499L152.453 70.9126L151.795 71.8719C151.795 71.8719 151.69 75.513 151.759 75.5448C151.826 75.5766 149.255 77.7601 149.255 77.7601L118.629 75.1101L94.2533 71.1988C94.2533 71.1988 92.609 61.3833 92.609 61.288C92.609 61.1924 91.2334 57.0744 91.2334 57.0744L90.2689 56.6028C90.2689 56.6028 77.7202 57.4825 77.5885 57.5143C77.4567 57.5462 70.0994 58.9242 70.0994 58.9242L68.3706 59.7827C68.3706 59.7827 65.2032 63.4079 65.0399 63.6092C64.8764 63.8107 48.3592 79.1222 48.3592 79.1222L41.6817 89.8334L37.2283 95.4883L36.9805 96.8982L38.5247 106.189L41.687 160.026L44.8913 167.838L45.8821 168.257L59.9591 155.076C59.9591 155.076 79.3751 139.775 79.6334 139.738C79.8916 139.701 87.1805 140.236 88.6773 138.381C90.1741 136.526 96.4088 129.901 96.4088 129.901L105.632 129.811L143.03 143.856L150.513 144.841L150.504 144.863Z"
    fill="#F3F3F3"
  />
  <path
    d="M183.961 78.2481L183.07 82.2019 169.192 75.932 172.255 69.4502C173.731 70.8494 178.274 74.9568 183.961 78.2481zM155.621 66.3024L171.316 68.9734 168.211 75.5402 166.667 73.5421C166.589 73.4361 166.473 73.3671 166.342 73.3459L152.453 70.908 155.627 66.2971 155.621 66.3024zM72.8965 54.584L90.2623 56.6086 85.8299 62.8253C85.2397 62.2105 84.1277 61.2141 82.7363 60.7849 81.2395 60.3185 73.6766 59.3698 70.0928 58.9351L72.8965 54.5893V54.584zM29.8701 149.717L36.9692 96.9082 54.5089 119.814 44.88 167.853 37.9179 164.901 29.8701 149.717zM59.948 117.606C59.9322 116.186 60.1747 114.76 60.628 113.403 61.5608 110.705 63.4159 108.32 65.8561 106.921 68.2699 105.496 71.2477 105.156 73.7616 106.153 76.2914 107.117 78.1834 109.317 79.032 111.861 79.912 114.405 79.7909 117.256 78.8422 119.763 78.3837 121.019 77.8145 122.249 77.0028 123.319 76.2071 124.395 75.2215 125.333 74.099 126.054 71.8695 127.506 69.05 128.052 66.4779 127.236 65.1973 126.844 64.0167 126.128 63.0311 125.179 62.051 124.225 61.2814 123.038 60.7544 121.74 60.2379 120.436 59.9691 119.026 59.948 117.606zM157.719 155.51L155.753 148.61 150.504 129.493 182.952 111.155 191.591 169.391 183.396 186.737 170.847 184.973 157.719 155.51z"
    fill="#151515"
  />
  <path
    d="M191.972 87.38L183.223 83.437L169.51 77.2412L181.152 92.3037C181.209 92.3779 181.241 92.4627 181.257 92.5527L181.379 93.3637L192.288 88.3764C192.146 87.9207 192.034 87.5868 191.972 87.3906V87.38Z"
    fill="#3C3C3C"
  />
  <path
    d="M200.779 121.024C197.02 103.794 193.443 92.0174 192.288 88.3657L181.379 93.353L192.657 169.391C192.673 169.497 192.657 169.603 192.609 169.698L184.808 186.202C189.146 184.141 202.655 177.723 204.072 176.954C205.417 176.228 208.383 164.234 208.541 161.426C208.667 159.158 205.474 142.542 200.779 121.024Z"
    fill="#151515"
  />
  <path
    d="M79.042 136.437C86.5101 134.407 91.9544 125.265 90.2837 116.604C88.7554 108.665 80.7708 105.379 77.2871 105.48C77.8141 105.84 78.3148 106.248 78.7733 106.694C79.9222 107.807 80.8235 109.158 81.4611 110.621C83.1741 111.819 85.2664 114.273 85.4982 118.507C85.8039 124.205 81.6352 131.89 74.9997 132.42C70.3934 132.785 67.653 130.835 66.4091 129.605C66.1825 129.536 65.9611 129.462 65.7398 129.377C64.164 128.778 62.7357 127.809 61.613 126.584C61.5024 126.463 61.4022 126.33 61.2969 126.203C63.7371 135.605 71.7058 138.43 79.042 136.437Z"
    fill="#B6B5B0"
  />
  <path
    d="M134.887 117.914C134.908 117.951 134.929 117.988 134.945 118.025C136.268 121.105 136.363 124.661 135.346 127.862C134.223 131.031 131.915 133.756 128.984 135.361C127.519 136.167 125.885 136.671 124.22 136.814C122.555 136.957 120.857 136.724 119.308 136.13C119.055 136.035 118.812 135.929 118.57 135.817C116.884 135.038 115.44 133.825 114.333 132.367C113.621 131.429 113.052 130.39 112.652 129.304C111.492 126.283 111.529 122.901 112.567 119.901V119.912C113.384 117.554 114.844 115.412 116.773 113.801M114.333 132.367C114.301 132.022 114.291 131.826 114.291 131.826C114.291 131.826 114.301 132.028 114.333 132.367ZM134.887 117.914C134.228 116.419 133.291 115.052 132.1 113.934C131.704 113.558 131.277 113.218 130.834 112.906C129.912 112.259 128.9 111.75 127.841 111.416C126.27 110.908 124.589 110.78 122.976 110.998C121.358 111.21 119.819 111.787 118.438 112.604C117.848 112.953 117.295 113.361 116.773 113.801M116.773 113.801L117.827 113.971M118.57 135.817C117.932 135.096 117.595 134.561 117.595 134.561C117.595 134.561 117.927 135.096 118.57 135.817ZM134.887 117.914C134.344 117.464 133.965 117.246 133.965 117.246M130.834 112.906C130.217 112.869 129.601 112.879 128.979 112.937"
    stroke="#151515"
    stroke-width=".079"
    stroke-miterlimit="10"
  />
  <path
    d="M112.567 119.899C111.529 122.899 111.492 126.28 112.652 129.301C113.052 130.388 113.621 131.426 114.333 132.365C114.491 133.986 115.218 138.862 118.317 141.518C122.07 144.729 129.137 146.849 136.03 142.048C142.924 137.246 144.537 129.958 143.288 123.63C142.155 117.896 136.758 113.253 130.84 112.898C129.917 112.251 128.905 111.742 127.846 111.409C126.275 110.9 124.594 110.773 122.981 110.99C121.363 111.202 119.824 111.78 118.444 112.596C117.853 112.946 117.3 113.354 116.778 113.793C114.849 115.405 113.389 117.546 112.572 119.904L112.567 119.899Z"
    fill="#B6B5B0"
  />
  <path d="M91.2214 57.0757L86.2988 63.9816L97.5932 65.5079L91.2214 57.0757Z" fill="#151515" />
  <path
    d="M143.29 123.626C142.156 117.891 136.76 113.249 130.841 112.894C131.288 113.206 131.71 113.545 132.106 113.922C133.292 115.04 134.236 116.407 134.893 117.902C136.369 119.126 139.068 122.084 138.778 127.235C138.382 134.289 132.353 139.854 126.556 139.754C122.63 139.685 119.915 137.326 118.571 135.811C116.885 135.031 115.441 133.818 114.334 132.36C114.492 133.982 115.219 138.858 118.318 141.513C122.071 144.725 129.138 146.845 136.032 142.043C142.926 137.242 144.538 129.954 143.29 123.626Z"
    fill="#B6B5B0"
  />
  <path
    d="M135.348 127.856C134.225 131.025 131.921 133.755 128.986 135.355C127.521 136.161 125.888 136.664 124.222 136.807C122.557 136.95 120.854 136.717 119.31 136.124C119.057 136.028 118.815 135.922 118.572 135.811C119.916 137.327 122.63 139.69 126.557 139.754C132.354 139.855 138.384 134.29 138.779 127.236C139.069 122.084 136.371 119.121 134.894 117.902C134.91 117.939 134.931 117.977 134.953 118.014C136.275 121.093 136.371 124.654 135.352 127.85L135.348 127.856Z"
    fill="#151515"
  />
  <path
    d="M90.2265 106.413C92.1502 108.321 93.2517 110.054 93.2517 110.054L116.773 113.785C117.295 113.345 117.848 112.942 118.439 112.587C118.76 112.402 119.087 112.227 119.419 112.062L143.019 73.1555L98.4429 66.3716C98.3059 66.3504 98.1847 66.2762 98.1003 66.1703L97.5945 65.5025L86.3001 63.9707C86.2052 64.1086 86.047 64.1881 85.8837 64.1934C85.8468 64.1934 85.8152 64.1934 85.7783 64.1828L87.0589 66.3769L90.2265 106.402V106.413Z"
    fill="#3C3C3C"
  />
  <path
    d="M133.503 109.082C140.78 110.174 144.792 115.442 146.393 120.477C147.621 124.341 147.832 126.927 147.864 127.929C148.022 127.812 148.233 127.786 148.411 127.881L149.872 128.634L182.785 110.031L180.234 92.838L165.951 74.3625L151.785 71.8767L150.342 73.9808C150.225 74.1451 150.026 74.2352 149.829 74.2034L143.02 73.1699L119.42 112.077C120.532 111.541 121.733 111.16 122.977 110.996C123.125 110.974 123.267 110.964 123.415 110.948C124.848 109.978 128.205 108.298 133.508 109.093L133.503 109.082Z"
    fill="#B6B5B0"
  />
  <path
    d="M147.931 128.826C147.673 128.693 147.567 128.375 147.704 128.11C147.741 128.036 147.8 127.978 147.863 127.93C147.831 126.928 147.626 124.342 146.392 120.478C144.791 115.443 140.779 110.175 133.501 109.084C128.199 108.289 124.847 109.963 123.408 110.939C124.884 110.796 126.407 110.939 127.835 111.405C128.895 111.739 129.912 112.248 130.829 112.894C136.752 113.249 142.144 117.892 143.277 123.627C144.532 129.955 142.913 137.242 136.021 142.044C129.127 146.846 122.064 144.726 118.307 141.514C115.208 138.859 114.48 133.983 114.322 132.361C113.611 131.423 113.041 130.384 112.641 129.298C111.487 126.277 111.524 122.895 112.557 119.895C113.374 117.537 114.839 115.396 116.762 113.785L93.2409 110.053C93.2409 110.053 92.1393 108.32 90.2158 106.412C87.9547 104.171 84.5606 101.69 80.4814 101.499C75.0529 101.245 71.9065 102.745 70.5626 103.609C71.8697 103.54 73.1977 103.688 74.4626 104.096C75.4587 104.414 76.4127 104.881 77.2823 105.474C80.7713 105.374 88.7506 108.66 90.279 116.599C91.9496 125.259 86.5001 134.401 79.0373 136.431C71.7009 138.429 63.7322 135.599 61.2921 126.197C60.3224 125.063 59.5686 123.759 59.0732 122.376C58.7834 121.57 58.5778 120.743 58.4461 119.906L55.5105 120.171L45.8711 168.268L47.0569 168.771L62.4147 164.241L75.6168 143.777C75.7434 143.581 75.9805 143.491 76.2018 143.554C76.281 143.576 84.392 145.817 90.4318 141.684C96.5243 137.518 98.2952 132.843 98.3162 132.796C98.4058 132.557 98.6482 132.414 98.896 132.456L112.952 134.751C113.173 134.788 113.342 134.958 113.384 135.175C113.395 135.228 114.507 140.687 121.247 146.443C128.452 152.596 132.294 153.899 139.113 152.511C146.113 151.086 148.211 146.84 148.227 146.798C148.337 146.57 148.591 146.448 148.838 146.512L154.498 148.001L149.443 129.589L147.936 128.81L147.931 128.826Z"
    fill="#151515"
  />
  <path
    d="M80.4914 101.5C84.5707 101.691 87.9648 104.171 90.2258 106.413L87.0583 66.3877L85.7777 64.1936C85.6459 64.1724 85.5351 64.1035 85.4561 63.9974C85.4456 63.9815 84.1439 62.3279 82.4204 61.7927C80.9605 61.337 72.5648 60.2822 68.2116 59.7734L48.8484 66.8701L37.2168 95.5003L55.3098 119.133L58.3192 118.862C58.1559 116.833 58.4298 114.776 59.0886 112.868C60.1428 109.837 62.1929 107.128 64.9598 105.417C66.3406 104.569 67.8901 103.954 69.5291 103.715C69.8718 103.662 70.2249 103.63 70.5726 103.614C71.9166 102.751 75.063 101.251 80.4914 101.505V101.5Z"
    fill="#B6B5B0"
  />
  <path
    d="M134.945 118.014C134.929 117.977 134.908 117.939 134.887 117.902C134.228 116.408 133.291 115.04 132.1 113.922C131.704 113.546 131.277 113.207 130.834 112.894C129.912 112.247 128.9 111.739 127.841 111.405C126.27 110.896 124.589 110.769 122.976 110.986C121.732 111.15 120.536 111.532 119.419 112.067C119.081 112.226 118.755 112.401 118.438 112.592C117.848 112.942 117.295 113.35 116.773 113.79C114.844 115.401 113.384 117.542 112.567 119.9C111.529 122.9 111.492 126.282 112.652 129.303C113.052 130.389 113.621 131.428 114.333 132.366C115.44 133.823 116.884 135.037 118.57 135.816C118.812 135.927 119.055 136.034 119.308 136.129C120.857 136.723 122.555 136.956 124.22 136.813C125.885 136.669 127.519 136.166 128.984 135.36C131.915 133.754 134.223 131.03 135.346 127.861C136.363 124.66 136.268 121.104 134.945 118.024V118.014Z"
    fill="#F3F3F3"
  />
  <path
    d="M132.326 126.801C131.874 128.036 131.309 129.239 130.503 130.288 129.708 131.338 128.727 132.249 127.605 132.938 125.38 134.332 122.582 134.825 120.036 134.014 118.766 133.622 117.591 132.928 116.605 132 115.62 131.073 114.84 129.912 114.297 128.64 113.765 127.363 113.48 125.974 113.443 124.575 113.412 123.176 113.643 121.766 114.091 120.43 115.009 117.77 116.874 115.438 119.304 114.102 121.712 112.74 124.653 112.454 127.146 113.44 129.655 114.394 131.563 116.535 132.438 119.031 133.35 121.528 133.265 124.337 132.333 126.801H132.326zM75 132.414C81.63 131.884 85.8041 124.199 85.4985 118.502 85.2718 114.267 83.1742 111.813 81.4614 110.615 81.4983 110.705 81.5457 110.79 81.5826 110.88 82.8684 114.023 82.9106 117.6 81.8882 120.828 80.7551 124.024 78.4731 126.796 75.5322 128.476 74.0671 129.313 72.4226 129.859 70.7309 130.029 69.2815 130.177 67.7953 130.029 66.4092 129.605 67.6531 130.834 70.3936 132.785 75 132.419V132.414z"
    fill="#151515"
  />
  <path
    d="M167.562 106.464C163.858 106.464 160.844 103.433 160.844 99.7069C160.844 95.981 163.858 92.9495 167.562 92.9495C171.268 92.9495 174.282 95.981 174.282 99.7069C174.282 103.433 171.268 106.464 167.562 106.464Z"
    fill="#F3F3F3"
  />
  <path
    d="M167.562 94.0107C164.438 94.0107 161.897 96.5654 161.897 99.7082C161.897 102.851 164.438 105.406 167.562 105.406C170.688 105.406 173.228 102.851 173.228 99.7082C173.228 96.5654 170.688 94.0107 167.562 94.0107Z"
    fill="#FA4616"
  />
  <path
    d="M171.358 95.4893C171.885 96.3532 172.196 97.3708 172.196 98.4573C172.196 101.6 169.656 104.155 166.53 104.155C165.071 104.155 163.742 103.593 162.736 102.676C163.733 104.308 165.519 105.405 167.563 105.405C170.689 105.405 173.229 102.851 173.229 99.7081C173.229 98.0333 172.502 96.5333 171.358 95.4893Z"
    fill="#FA4616"
  />
  <path
    d="M158.472 93.1516C154.766 93.1516 151.752 90.12 151.752 86.3941C151.752 82.6683 154.766 79.6367 158.472 79.6367C162.177 79.6367 165.192 82.6683 165.192 86.3941C165.192 90.12 162.177 93.1516 158.472 93.1516Z"
    fill="#F3F3F3"
  />
  <path
    d="M158.472 80.6963C155.346 80.6963 152.806 83.2508 152.806 86.3936C152.806 89.5366 155.346 92.0911 158.472 92.0911C161.598 92.0911 164.138 89.5366 164.138 86.3936C164.138 83.2508 161.598 80.6963 158.472 80.6963Z"
    fill="#FA4616"
  />
  <path
    d="M162.267 82.1748C162.793 83.0386 163.105 84.0562 163.105 85.1427C163.105 88.2856 160.565 90.8401 157.439 90.8401C155.979 90.8401 154.651 90.2784 153.644 89.3615C154.64 90.9939 156.426 92.091 158.472 92.091C161.598 92.091 164.138 89.5363 164.138 86.3935C164.138 84.7187 163.41 83.2189 162.267 82.1748Z"
    fill="#A33113"
  />
  <path
    d="M167.51 106.524C163.804 106.524 160.79 103.492 160.79 99.7665C160.79 96.0406 163.804 93.009 167.51 93.009C171.214 93.009 174.23 96.0406 174.23 99.7665C174.23 103.492 171.214 106.524 167.51 106.524Z"
    fill="#F3F3F3"
  />
  <path
    d="M167.508 94.0684C164.382 94.0684 161.842 96.6228 161.842 99.7657C161.842 102.909 164.382 105.463 167.508 105.463C170.632 105.463 173.173 102.909 173.173 99.7657C173.173 96.6228 170.632 94.0684 167.508 94.0684Z"
    fill="#FA4616"
  />
  <path
    d="M171.304 95.5469C171.831 96.4108 172.142 97.4284 172.142 98.5149C172.142 101.658 169.6 104.212 166.476 104.212C165.016 104.212 163.688 103.65 162.681 102.734C163.677 104.366 165.463 105.463 167.509 105.463C170.633 105.463 173.175 102.909 173.175 99.7657C173.175 98.0909 172.447 96.5911 171.304 95.5469Z"
    fill="#A33113"
  />
  <path
    d="M153.113 116.074C149.407 116.074 146.393 113.042 146.393 109.317C146.393 105.591 149.407 102.559 153.113 102.559C156.817 102.559 159.832 105.591 159.832 109.317C159.832 113.042 156.817 116.074 153.113 116.074Z"
    fill="#F3F3F3"
  />
  <path
    d="M153.113 103.619C149.987 103.619 147.447 106.173 147.447 109.316C147.447 112.459 149.987 115.013 153.113 115.013C156.238 115.013 158.778 112.459 158.778 109.316C158.778 106.173 156.238 103.619 153.113 103.619Z"
    fill="#FA4616"
  />
  <path
    d="M156.908 105.097C157.435 105.961 157.746 106.979 157.746 108.065C157.746 111.208 155.205 113.763 152.08 113.763C150.621 113.763 149.293 113.201 148.285 112.284C149.281 113.916 151.068 115.013 153.113 115.013C156.238 115.013 158.779 112.459 158.779 109.316C158.779 107.641 158.051 106.141 156.908 105.097Z"
    fill="#FA4616"
  />
  <path
    d="M143.583 102.559C139.879 102.559 136.864 99.5277 136.864 95.8019C136.864 92.076 139.879 89.0444 143.583 89.0444C147.288 89.0444 150.303 92.076 150.303 95.8019C150.303 99.5277 147.288 102.559 143.583 102.559Z"
    fill="#F3F3F3"
  />
  <path
    d="M143.583 90.104C140.458 90.104 137.918 92.6587 137.918 95.8015C137.918 98.9443 140.458 101.499 143.583 101.499C146.709 101.499 149.249 98.9443 149.249 95.8015C149.249 92.6587 146.709 90.104 143.583 90.104Z"
    fill="#FA4616"
  />
  <path
    d="M147.377 91.5825C147.904 92.4465 148.215 93.4641 148.215 94.5505C148.215 97.6933 145.675 100.248 142.551 100.248C141.09 100.248 139.762 99.6861 138.756 98.7692C139.752 100.402 141.539 101.499 143.584 101.499C146.708 101.499 149.248 98.9442 149.248 95.8014C149.248 94.1266 148.522 92.6266 147.377 91.5825Z"
    fill="#FA4616"
  />
  <path
    d="M94.2262 90.8886L93.8835 91.832C93.5411 92.7753 94.1366 93.7982 95.1222 93.952L101.367 94.9431C102.195 95.0755 102.98 94.5348 103.159 93.7134L103.391 92.6746C103.592 91.7683 102.986 90.8886 102.074 90.756L95.9391 89.8604C95.1959 89.7543 94.4845 90.1784 94.2262 90.8886zM113.263 93.6014L112.921 94.5449C112.578 95.4883 113.174 96.5112 114.159 96.6648L120.405 97.6559C121.232 97.7883 122.017 97.2478 122.196 96.4263L122.428 95.3875C122.629 94.4813 122.023 93.6014 121.111 93.469L114.976 92.5733C114.233 92.4673 113.522 92.8913 113.263 93.6014zM101.932 100.694L101.59 101.638C101.247 102.581 101.843 103.604 102.828 103.758L109.074 104.749C109.901 104.881 110.686 104.341 110.866 103.519L111.097 102.48C111.298 101.574 110.691 100.694 109.78 100.562L103.645 99.6661C102.902 99.56 102.19 99.9841 101.932 100.694zM76.7187 81.7931L70.8633 80.977 72.6764 74.6171C73.0399 73.3399 72.2178 72.0255 70.9107 71.8081L64.6021 70.7588C63.4795 70.5732 62.3991 71.2728 62.1039 72.3806L60.2173 79.4878 53.5397 78.555C52.5541 78.4172 51.6212 79.0372 51.3631 80.0018L49.4973 86.9501C49.1865 88.1001 49.9506 89.2609 51.1205 89.4304L57.3449 90.3262 55.6109 96.8663C55.2737 98.1383 56.101 99.4262 57.3976 99.6328L63.253 100.582C64.3597 100.762 65.4243 100.083 65.73 98.9968L67.7749 91.826 74.6369 92.8171C75.6594 92.9654 76.6239 92.2923 76.8451 91.2747L78.3788 84.173C78.6213 83.044 77.8623 81.9469 76.724 81.7878L76.7187 81.7931z"
    fill="#151515"
  />
  <path
    d="M143.561 102.509C139.855 102.509 136.841 99.4779 136.841 95.7521C136.841 92.0262 139.855 88.9946 143.561 88.9946C147.265 88.9946 150.281 92.0262 150.281 95.7521C150.281 99.4779 147.265 102.509 143.561 102.509Z"
    fill="#F3F3F3"
  />
  <path
    d="M143.561 90.0537C140.435 90.0537 137.895 92.6082 137.895 95.751C137.895 98.894 140.435 101.448 143.561 101.448C146.685 101.448 149.225 98.894 149.225 95.751C149.225 92.6082 146.685 90.0537 143.561 90.0537Z"
    fill="#FA4616"
  />
  <path
    d="M147.354 91.5325C147.881 92.3964 148.193 93.414 148.193 94.5005C148.193 97.6435 145.651 100.198 142.526 100.198C141.067 100.198 139.739 99.6361 138.731 98.7193C139.728 100.352 141.514 101.449 143.559 101.449C146.684 101.449 149.226 98.8941 149.226 95.7513C149.226 94.0765 148.498 92.5767 147.354 91.5325Z"
    fill="#A33113"
  />
  <path
    d="M153.14 115.993C149.434 115.993 146.42 112.962 146.42 109.236C146.42 105.51 149.434 102.478 153.14 102.478C156.844 102.478 159.86 105.51 159.86 109.236C159.86 112.962 156.844 115.993 153.14 115.993Z"
    fill="#F3F3F3"
  />
  <path
    d="M153.14 103.54C150.014 103.54 147.474 106.094 147.474 109.237C147.474 112.38 150.014 114.934 153.14 114.934C156.264 114.934 158.804 112.38 158.804 109.237C158.804 106.094 156.264 103.54 153.14 103.54Z"
    fill="#FA4616"
  />
  <path
    d="M156.936 105.018C157.462 105.882 157.774 106.9 157.774 107.986C157.774 111.129 155.232 113.684 152.108 113.684C150.648 113.684 149.32 113.122 148.312 112.205C149.309 113.837 151.095 114.934 153.141 114.934C156.265 114.934 158.807 112.38 158.807 109.237C158.807 107.562 158.079 106.062 156.936 105.018Z"
    fill="#A33113"
  />
</svg>
