<svg
  width="240"
  height="240"
  viewBox="0 0 240 240"
  fill="none"
  xmlns="http://www.w3.org/2000/svg"
  data-fui-pictogram="true"
>
  <path
    d="M58.2834 59.3828C58.7572 56.5086 61.5529 54.628 64.387 55.2773H64.3879L185.972 83.0674C189.279 85.378 189.75 87.8542 189.469 89.5869L189.365 90.2314C189.166 91.3906 188.956 92.4592 188.785 93.2773C188.74 93.4938 188.695 93.6921 188.656 93.8701L57.801 62.3037L58.2834 59.3828Z"
    fill="#F3F3F3"
    stroke="#F3F3F3"
    stroke-width="2"
  />
  <path
    d="M174.061 179.022C174.713 175.059 188.944 97.2431 188.944 97.2431L56.2863 65.3052L43.3107 144.135C42.7485 147.551 44.8517 150.842 48.1897 151.766L167.425 184.709C168.755 185.075 173.409 182.981 174.066 179.022H174.061Z"
    fill="#F3F3F3"
  />
  <path
    d="M190.04 82.9701L189.443 82.8345C191.733 84.8538 192.937 87.491 192.189 91.6452C191.275 96.7539 177.336 174.082 176.191 179.055C175.298 182.933 172.899 184.826 170.379 185.526L170.489 185.556C175.112 186.832 179.836 183.887 180.729 179.176L196.983 93.5993C197.902 88.7619 194.829 84.0651 190.036 82.9701H190.04Z"
    fill="#3C3C3C"
  />
  <path
    d="M176.192 179.053C177.337 174.075 191.271 96.7518 192.19 91.6432C192.933 87.4888 191.733 84.8517 189.443 82.8323L186.387 82.1341C190.121 84.6808 190.804 87.5743 190.458 89.7443C190.001 92.5925 189.409 95.079 189.409 95.079L56.6656 63.0557L56.2942 65.3061L188.952 97.244C188.952 97.244 174.721 175.065 174.069 179.024C173.417 182.987 168.758 185.076 167.428 184.71L170.379 185.523C172.9 184.825 175.299 182.931 176.192 179.053Z"
    fill="#D7D7D7"
  />
  <path
    d="M172.561 112.517C172.13 116.531 169.725 119.459 167.839 121.177L169.219 122.594C171.352 120.649 174.017 117.349 174.514 112.723C175.101 107.243 173.832 103.731 173.024 102.119L171.171 102.802C171.809 103.987 173.128 107.182 172.561 112.512V112.517Z"
    fill="#B6B5B0"
  />
  <path
    d="M161.377 114.558L162.762 115.98C163.731 114.794 164.891 112.915 165.217 110.464C165.463 108.6 164.95 106.812 164.268 105.36L162.416 106.044C163.003 107.249 163.465 108.721 163.27 110.203C163.018 112.082 162.14 113.573 161.377 114.553V114.558Z"
    fill="#B6B5B0"
  />
  <path
    d="M169.734 111.915C170.165 107.972 169.271 105.29 168.509 103.798L166.657 104.481C167.283 105.611 168.193 107.967 167.781 111.699C167.47 114.517 165.923 116.527 164.528 117.793L165.909 119.209C167.555 117.707 169.356 115.321 169.734 111.915Z"
    fill="#B6B5B0"
  />
  <path d="M104.002 125.127L99.4708 123.987L98.3203 130.468L102.766 131.608L104.002 125.127Z" fill="#B6B5B0" />
  <path d="M97.9012 123.59L93.3849 122.444L92.2344 128.909L96.6704 130.046L97.9012 123.59Z" fill="#B6B5B0" />
  <path d="M110.182 126.692L105.56 125.521L104.404 132.026L108.941 133.188L110.182 126.692Z" fill="#B6B5B0" />
  <path d="M91.8182 122.047L87.4826 120.95L86.3372 127.396L90.5924 128.487L91.8182 122.047Z" fill="#B6B5B0" />
  <path d="M75.7761 117.967L71.2547 116.821L70.1143 123.216L74.5553 124.352L75.7761 117.967Z" fill="#B6B5B0" />
  <path d="M120.94 129.348L116.469 128.217L115.303 134.752L119.694 135.874L120.94 129.348Z" fill="#B6B5B0" />
  <path d="M63.9785 121.646L68.4698 122.797L69.6856 116.427L65.114 115.27L63.9785 121.646Z" fill="#B6B5B0" />
  <path d="M81.6508 119.444L77.3404 118.358L76.2 124.768L80.425 125.849L81.6508 119.444Z" fill="#B6B5B0" />
  <path
    d="M63.5513 114.87L59.0299 113.729L58.9797 114.006L57.9497 120.094L62.3355 121.22L63.5513 114.87Z"
    fill="#B6B5B0"
  />
  <path d="M156.11 138.203L151.528 137.047L150.343 143.688L154.844 144.844L156.11 138.203Z" fill="#B6B5B0" />
  <path d="M162.178 139.735L157.686 138.599L156.496 145.265L160.907 146.396L162.178 139.735Z" fill="#B6B5B0" />
  <path d="M163.736 140.128L162.55 146.815L167.096 147.981L168.353 141.295L163.736 140.128Z" fill="#B6B5B0" />
  <path d="M138.991 133.912L134.685 132.826L133.509 139.418L137.735 140.499L138.991 133.912Z" fill="#B6B5B0" />
  <path d="M149.958 136.649L145.422 135.502L144.241 142.129L148.693 143.27L149.958 136.649Z" fill="#B6B5B0" />
  <path d="M133.123 132.427L128.606 131.287L127.431 137.857L131.866 138.993L133.123 132.427Z" fill="#B6B5B0" />
  <path d="M127.03 130.888L122.503 129.742L121.338 136.298L125.779 137.434L127.03 130.888Z" fill="#B6B5B0" />
  <path d="M127.492 150.12L125.713 159.662L162.526 169.812L164.496 160.299L127.492 150.12Z" fill="#B6B5B0" />
  <path d="M60.7354 141.24L65.94 142.648L66.7488 138.836L61.5492 137.398L60.7354 141.24Z" fill="#B6B5B0" />
  <path d="M73.414 140.682L67.8878 139.154L67.074 142.959L72.6101 144.458L73.414 140.682Z" fill="#B6B5B0" />
  <path d="M60.418 137.091L54.947 135.577L54.3291 139.508L59.599 140.937L60.418 137.091Z" fill="#B6B5B0" />
  <path d="M88.7479 144.938L87.9641 148.623L93.6009 150.151L94.2087 146.445L88.7479 144.938Z" fill="#B6B5B0" />
  <path d="M80.6342 142.684L75.0427 141.141L74.2439 144.902L79.8404 146.415L80.6342 142.684Z" fill="#B6B5B0" />
  <path d="M87.6102 144.618L81.7625 143.004L80.9688 146.73L86.8215 148.313L87.6102 144.618Z" fill="#B6B5B0" />
  <path
    d="M62.957 85.0944L60.8137 97.5973C60.4422 99.7674 61.8175 101.857 63.9559 102.369L80.5406 106.358C82.9199 106.931 85.2741 105.343 85.6456 102.927L87.5831 90.3186C87.9144 88.1636 86.534 86.1141 84.4157 85.6118L68.0369 81.7338C65.6926 81.1763 63.3636 82.7184 62.957 85.0944Z"
    fill="#fff"
  />
  <path
    d="M81.5241 105.298C81.2881 105.298 81.0522 105.268 80.8162 105.213L64.2315 101.224C62.7005 100.858 61.7067 99.3505 61.9727 97.7983L64.1161 85.2954C64.362 83.8487 65.6069 82.7988 67.0676 82.7988C67.2985 82.7988 67.5344 82.8239 67.7653 82.8792L84.1442 86.7572C85.6551 87.1138 86.654 88.6007 86.4182 90.1378L84.4806 102.746C84.2597 104.198 82.9848 105.293 81.519 105.293L81.5241 105.298Z"
    fill="#B6B5B0"
  />
  <path
    d="M87.0103 94.0816L87.1558 93.102L79.7771 91.1028L80.806 84.7534L79.8473 84.5273L76.4741 105.379L77.4279 105.605L78.482 99.1149L85.9311 101.099L86.0817 100.125L78.6376 98.1404L79.6215 92.0773L87.0103 94.0816Z"
    fill="#F3F3F3"
  />
  <path
    d="M61.4029 94.1881L61.2373 95.1576L68.6863 96.8454L67.5921 103.245L68.5458 103.476L72.0997 82.6948L71.1459 82.4688L70.0618 88.8081L62.6378 86.9796L62.4721 87.9491L69.896 89.7776L68.852 95.8759L61.4029 94.1881Z"
    fill="#F3F3F3"
  />
</svg>
