<svg
  width="240"
  height="240"
  viewBox="0 0 240 240"
  fill="none"
  xmlns="http://www.w3.org/2000/svg"
  data-fui-pictogram="true"
>
  <path stroke="#000" stroke-opacity=".01" d="M0.5 0.5H239.5V239.5H0.5z" />
  <path
    d="M130.92 180.49C112.61 180.99 98.1398 177.5 85.3798 169.51C72.9998 161.76 69.6398 154.51 69.5998 151.76C69.5898 150.99 69.5498 147.4 69.5098 143.41C71.4498 146.28 77.0598 154.16 87.1498 160C100.87 167.94 113.4 169.74 127.99 169.99C128.25 169.99 128.5 169.99 128.75 169.99C146.28 169.99 164.63 159.69 164.81 159.58C167.04 158.29 169.43 156.48 170.24 155.82C170.06 158.91 169.83 162.94 169.59 166.7C167.34 168.82 149.21 179.98 130.91 180.48L130.92 180.49Z"
    fill="#B6B5B0"
  />
  <path
    d="M222.04 90.32V90.67L209.85 97.27L180.64 111.19L180.01 111.03V113.73L174.63 115.93L174.55 121.8L120.31 147.76V137.48L28.0596 87.99L127.08 53L221.42 90.05L222.04 90.32Z"
    fill="#151515"
  />
  <path
    d="M120.3 141.21V147.76L120.31 148.65L120.15 148.73L119.94 148.6V148.52L28.69 95.59C28.69 95.59 28.65 95.57 28.62 95.56C28.35 95.41 28.14 95.3 28 95.23V88L28.07 87.98L119.95 137.27L120.31 137.47V137.93L120.3 141.21Z"
    fill="#B6B5B0"
  />
  <path
    d="M180.49 134.99C180.49 134.99 180.45 134.97 180.43 134.95C180.37 134.9 180.29 134.85 180.21 134.81C180.17 134.78 180.13 134.75 180.08 134.73C179.99 134.67 179.9 134.61 179.8 134.56C179.74 134.51 179.67 134.47 179.6 134.43H179.58L175.17 134.98V135L172.53 138.68L173.22 144.05C173.29 144.13 173.35 144.19 173.42 144.25L173.27 144.41L172.83 144.85C171.33 146.33 170.52 149.07 170.49 151.13C170.48 151.63 170.39 153.37 170.25 155.81L169.42 156.56L169.4 156.53C168.98 156.93 167.36 158.18 164.42 159.88C164.24 159.99 146.08 170.18 128.77 170.18H128.02C113.55 169.93 101.14 168.15 87.5698 160.3C75.6298 153.38 70.0798 144.37 69.5198 143.42C69.4298 134.27 69.3198 121.5 69.2998 119.02C71.6198 120.32 73.6498 121.49 75.2298 122.44C86.9698 129.55 119.74 148.42 120.07 148.59C120.13 148.63 120.2 148.65 120.27 148.65H120.31C120.31 148.65 120.4 148.63 120.45 148.61L173.73 122.88L174.55 122.37L175.17 121.98V122.53L178.77 120.44L180.34 119.68V134.68C180.34 134.68 180.35 134.69 180.35 134.7C180.35 134.74 180.36 134.75 180.37 134.78C180.38 134.8 180.38 134.83 180.39 134.86C180.4 134.87 180.42 134.89 180.44 134.92C180.45 134.94 180.47 134.96 180.49 134.99Z"
    fill="#151515"
  />
  <path
    d="M222.05 90.3101V99.5601L175.17 122.19V121.97L173.73 122.88L120.45 148.61C120.4 148.63 120.36 148.64 120.31 148.65V137.47L222.05 90.3101Z"
    fill="#2D2D2D"
  />
  <path
    d="M132.81 90.1601C131.77 87.6301 128.01 85.8601 123.65 85.8601C118.45 85.8601 114.22 88.3801 114.22 91.4701C114.22 94.5601 118.45 97.0801 123.65 97.0801C126.78 97.0801 129.69 96.1501 131.46 94.5901C131.46 94.5901 133.6 92.4201 132.8 90.1601H132.81Z"
    fill="#B6B5B0"
  />
  <path
    d="M182.89 148.18C182.47 145.78 181.62 144.95 181.49 144.85L181.47 144.83L180.9 144.25C182.12 143.17 182.89 141.56 182.89 139.78C182.89 137.9 182 136.11 180.52 135C180.52 135 180.51 135 180.5 134.99C180.48 134.98 180.46 134.97 180.44 134.95C180.38 134.91 180.3 134.86 180.22 134.81C180.18 134.78 180.14 134.76 180.09 134.73C180 134.67 179.9 134.62 179.81 134.56C179.73 134.52 179.66 134.48 179.59 134.43C179.17 134.2 178.78 133.99 178.78 133.99V119.77C178.72 119.65 178.73 119.53 178.78 119.42V110.71C178.78 110.71 178.72 110.71 178.69 110.7L133.03 90.3799C133.03 90.3799 133 90.3599 132.99 90.3499C132.96 90.3299 132.93 90.3199 132.9 90.2899C132.88 90.2599 132.87 90.2299 132.85 90.1999C132.84 90.1799 132.83 90.1699 132.82 90.1599C133.58 92.2999 131.7 94.3599 131.5 94.5699C131.51 94.5599 131.53 94.5599 131.54 94.5499C131.56 94.5399 131.59 94.5199 131.61 94.5099C131.64 94.4999 131.67 94.4999 131.7 94.4899C131.72 94.4899 131.74 94.4799 131.77 94.4799C131.8 94.4799 131.83 94.4899 131.87 94.4999C131.88 94.4999 131.9 94.4999 131.91 94.5199L174.32 112.68C174.47 112.75 174.56 112.89 174.56 113.06V134.28C174.56 134.28 174.56 134.31 174.55 134.32C174.55 134.35 174.55 134.38 174.53 134.41C174.53 134.43 174.51 134.46 174.5 134.48C174.49 134.5 174.47 134.52 174.46 134.54C174.44 134.57 174.42 134.58 174.4 134.6C174.38 134.61 174.37 134.63 174.36 134.63C172.55 135.68 171.43 137.66 171.43 139.78C171.43 141.47 172.12 142.99 173.23 144.05C173.3 144.13 173.36 144.19 173.43 144.25L173.28 144.41L172.84 144.85C171.34 146.33 170.53 149.07 170.5 151.13C170.49 151.63 170.4 153.37 170.26 155.81C169.77 164.37 168.69 181.47 168.56 183.58C168.9 183.94 170.15 185.12 172.32 185.92L173.93 154.2C173.94 154.06 174.04 153.95 174.22 153.95C174.36 153.95 174.48 154.07 174.48 154.22V186.51C175.5 186.68 176.64 186.76 177.92 186.68C183.6 186.3 185.63 184.02 186.01 183.51C185.82 181.12 183.35 150.85 182.9 148.18H182.89ZM177.27 147.65L177.16 147.63H177.27V147.65Z"
    fill="#C1FA81"
  />
</svg>
