<svg
  width="240"
  height="240"
  viewBox="0 0 240 240"
  fill="none"
  xmlns="http://www.w3.org/2000/svg"
  data-fui-pictogram="true"
>
  <path d="M118.23 164.801V161.983H120.48L120.511 164.801L119.525 167.748L118.23 164.801Z" fill="#F3F3F3" />
  <path
    d="M99.7537 179.165L99.1604 179.439L98.6187 179.641V203.641L120.159 215.184L137.855 203.382V178.52L137.505 178.318L117.951 167.417L99.7537 179.165Z"
    fill="#F3F3F3"
  />
  <path
    d="M103.371 31.4078C103.371 31.4078 75.154 33.0826 63.0243 59.4243C60.1402 65.6892 56.8433 74.9987 56.5699 84.117C55.8423 108.293 73.6887 126.271 85.4831 140.481C103.015 156.179 105.615 161.819 116.357 162.775C128.476 163.85 129.266 164.729 158.118 131.538C186.968 98.3475 181.396 41.286 131.716 31.0873C121.934 30.3379 112.224 30.405 109.784 31.1338C107.576 31.7955 105.465 31.015 103.365 31.4078H103.371Z"
    fill="#F3F3F3"
  />
  <path
    fill-rule="evenodd"
    clip-rule="evenodd"
    d="M104.928 39.2595C90.3428 41.0946 78.5433 45.6331 70.0818 53.4022C58.7157 63.8386 55.1094 77.6606 57.0802 92.6458C59.309 109.585 69.2719 125.459 85.4826 140.486C76.593 129.6 70.1284 117.664 68.2864 103.723C66.3155 88.8258 69.3286 75.8721 77.9189 63.5336C84.4147 54.2034 93.65 46.7031 106.228 41.4409C105.506 40.7845 105.052 40.0453 104.928 39.2647V39.2595Z"
    fill="#6196C1"
  />
  <path
    fill-rule="evenodd"
    clip-rule="evenodd"
    d="M110.449 43.6768L110.542 43.6148C109.206 43.2323 108.045 42.7257 107.132 42.1262C95.2238 47.1299 85.4364 55.0437 78.0998 66.3226C71.7022 76.1491 68.9522 84.4506 69.112 96.3085C69.4062 118.065 82.0622 139.212 106.487 159.779C96.591 143.755 90.3482 128.305 88.4959 113.547C86.9069 100.868 89.1253 87.9087 92.9433 75.7923C96.5756 64.2706 102.225 53.4981 110.449 43.682V43.6768Z"
    fill="#F3F3F3"
  />
  <path
    fill-rule="evenodd"
    clip-rule="evenodd"
    d="M127.484 39.9891C142.338 44.1606 154.489 51.7798 163.054 63.9685C167.428 70.1973 170.539 76.7517 171.875 84.2829C174.301 97.9397 170.586 112.625 160.944 128.298C172.489 113.705 177.794 98.8287 177.433 83.6833C177.148 71.784 174.713 63.3585 166.845 54.3592C156.536 42.5685 142.818 38.7175 127.665 38.2058C127.711 38.4126 127.737 38.6193 127.737 38.8365C127.737 39.2293 127.649 39.6169 127.49 39.9891H127.484Z"
    fill="#6196C1"
  />
  <path
    fill-rule="evenodd"
    clip-rule="evenodd"
    d="M114.911 44.6149L114.953 44.3409C113.776 44.2738 112.652 44.1186 111.615 43.8911L111.563 43.9739C101.894 57.0464 95.2233 70.0933 91.88 83.1916C88.6708 95.7783 88.6037 109.683 91.4311 122.373C94.2482 135.032 100.15 147.873 109.241 160.801C111.207 162 113.168 162.361 115.133 162.454C108.669 123.733 108.075 84.6081 114.906 44.6149H114.911Z"
    fill="#6196C1"
  />
  <path
    fill-rule="evenodd"
    clip-rule="evenodd"
    d="M124.266 42.8105L124.591 43.1052C137.093 51.996 150.322 69.8965 153.665 82.995C161.45 113.534 148.165 135.218 131.447 158.99C129.483 160.351 127.305 161.73 125.345 161.818C141.36 126.725 143.521 82.9432 121.485 43.7772C122.512 43.5239 123.446 43.1982 124.266 42.8105Z"
    fill="#6196C1"
  />
  <path
    fill-rule="evenodd"
    clip-rule="evenodd"
    d="M120.025 44.2516L119.953 44.0913C118.813 44.2775 117.59 44.3756 116.321 44.3756C116.228 44.3756 116.13 44.3756 116.037 44.3756L116.001 44.5773C110.155 84.7566 110.351 124.145 116.367 162.778C119.096 163.709 121.274 163.548 123.817 162.463C139.976 119.519 139.45 79.9699 120.03 44.2568L120.025 44.2516Z"
    fill="#F3F3F3"
  />
  <path
    fill-rule="evenodd"
    clip-rule="evenodd"
    d="M124.839 42.5209L124.978 42.6087C137.402 51.5357 146.808 62.1582 152.353 74.9569C156.786 85.1813 158.849 96.1707 157.313 107.274C155.351 121.458 148.165 137.766 135.508 156.179C153.344 139.937 165.459 122.972 169.544 104.927C172.351 92.5317 171.604 82.0591 165.779 70.7492C158.927 57.4492 146.42 47.2299 127.109 40.6497C126.608 41.3475 125.834 41.9781 124.844 42.5209H124.839Z"
    fill="#F3F3F3"
  />
  <path
    fill-rule="evenodd"
    clip-rule="evenodd"
    d="M161 48.5961C151.041 36.8774 139.182 32.1199 125 35.8415C125.747 36.2521 126.305 36.7267 126.627 37.239C139.947 36.6703 151.462 40.3203 161 48.5999V48.5961Z"
    fill="#F3F3F3"
  />
  <path
    fill-rule="evenodd"
    clip-rule="evenodd"
    d="M63.0239 59.4234C71.7536 39.8843 89.3884 32.5753 106.254 36.2195C105.45 36.9431 104.97 37.7651 104.908 38.6385C89.213 39.3363 73.157 46.5989 63.0239 59.4234Z"
    fill="#F3F3F3"
  />
  <path
    fill-rule="evenodd"
    clip-rule="evenodd"
    d="M107.079 35.5383L107.213 35.497C108.487 34.6802 110.221 34.0444 112.223 33.6671L109.788 31.1343C103.828 30.819 98.1687 32.132 92.6895 34.3907C99.4483 34.1427 104.819 34.339 107.079 35.5383Z"
    fill="#6196C1"
  />
  <path
    fill-rule="evenodd"
    clip-rule="evenodd"
    d="M117.816 33.3461L119.483 30.467C119.483 30.467 114.261 30.193 111.537 30.7668L113.297 33.4909C114.261 33.3616 115.273 33.2944 116.32 33.2944C116.831 33.2944 117.331 33.3099 117.821 33.3409L117.816 33.3461Z"
    fill="#F3F3F3"
  />
  <path
    fill-rule="evenodd"
    clip-rule="evenodd"
    d="M123.904 34.7L124.12 34.7517C128.294 33.1959 132.468 32.3274 136.643 32.6996C132.381 30.6991 127.077 30.1202 121.051 30.5286L118.703 33.418C120.674 33.6197 122.454 34.0694 123.909 34.7H123.904Z"
    fill="#6196C1"
  />
  <path
    d="M116.315 43.0833C121.151 43.0833 125.071 41.181 125.071 38.8343C125.071 36.4877 121.151 34.5854 116.315 34.5854C111.48 34.5854 107.56 36.4877 107.56 38.8343C107.56 41.181 111.48 43.0833 116.315 43.0833Z"
    fill="#151515"
  />
  <path
    fill-rule="evenodd"
    clip-rule="evenodd"
    d="M82.1431 139.011L88.551 144.676L103.374 178.027C102.812 178.941 102.033 179.19 101.13 179.04L82.1431 139.016V139.011Z"
    fill="#151515"
  />
  <path
    fill-rule="evenodd"
    clip-rule="evenodd"
    d="M155.015 134.99L147.74 142.832L133.381 176.735C133.944 177.651 134.723 177.898 135.625 177.749L155.02 134.99H155.015Z"
    fill="#151515"
  />
  <path
    fill-rule="evenodd"
    clip-rule="evenodd"
    d="M107.606 174.435L100.997 153.892L105.279 158.757L110.222 173.638C109.598 174.523 108.721 174.77 107.601 174.44L107.606 174.435Z"
    fill="#151515"
  />
  <path
    fill-rule="evenodd"
    clip-rule="evenodd"
    d="M129.677 174.436L136.002 155.45L132.004 158.758L127.061 173.639C127.685 174.524 128.562 174.771 129.681 174.441L129.677 174.436Z"
    fill="#151515"
  />
  <path
    fill-rule="evenodd"
    clip-rule="evenodd"
    d="M99.1592 179.439L119.977 190.367L137.504 178.318L117.95 167.417L99.1592 179.439Z"
    fill="#B6B5B0"
  />
  <path
    fill-rule="evenodd"
    clip-rule="evenodd"
    d="M117.863 169.266L134.441 178.746L119.834 189.064L102.483 179.878L117.863 169.266Z"
    fill="#F3F3F3"
  />
  <path
    fill-rule="evenodd"
    clip-rule="evenodd"
    d="M98.6184 179.64L119.947 190.961L137.855 178.524V203.388L120.159 215.194L98.6184 203.651V188.759L120.051 199.878L122.769 197.991V195.195L120.102 198.146L98.6133 187.09V179.647L98.6184 179.64ZM124.864 196.518L124.813 194.202L135.554 186.991L135.503 189.726L124.864 196.518Z"
    fill="#151515"
  />
  <path
    fill-rule="evenodd"
    clip-rule="evenodd"
    d="M119.947 198.06L116.346 196.209V191.396L119.947 193.454V198.06Z"
    fill="#6196C1"
  />
  <path
    fill-rule="evenodd"
    clip-rule="evenodd"
    d="M116.346 197.943L119.947 199.814V212.061L116.346 210.107V197.943Z"
    fill="#F3F3F3"
  />
  <path
    fill-rule="evenodd"
    clip-rule="evenodd"
    d="M120.02 198.094L119.824 197.995V193.638L135.555 182.617V187.451L120.02 198.094Z"
    fill="#6196C1"
  />
  <path
    fill-rule="evenodd"
    clip-rule="evenodd"
    d="M114.348 195.18L106.036 190.899V186.165L114.348 190.621V195.18Z"
    fill="#6196C1"
  />
  <path
    fill-rule="evenodd"
    clip-rule="evenodd"
    d="M106.036 192.598L114.348 196.91V209.067L106.036 204.56V192.598Z"
    fill="#F3F3F3"
  />
  <path
    fill-rule="evenodd"
    clip-rule="evenodd"
    d="M103.84 189.767L101.013 188.316V183.575L103.84 185.147V189.767Z"
    fill="#6196C1"
  />
  <path
    fill-rule="evenodd"
    clip-rule="evenodd"
    d="M101.013 189.993L103.84 191.455V203.432L101.013 201.965V189.993Z"
    fill="#F3F3F3"
  />
  <path
    fill-rule="evenodd"
    clip-rule="evenodd"
    d="M122.775 211.554L124.839 210.148V189.72H122.775V211.554Z"
    fill="#151515"
  />
  <path
    fill-rule="evenodd"
    clip-rule="evenodd"
    d="M118.23 164.802C118.989 165.013 119.747 165.013 120.511 164.802L121.115 187.576L119.938 188.465L118.23 187.654V164.802Z"
    fill="#151515"
  />
  <path
    fill-rule="evenodd"
    clip-rule="evenodd"
    d="M133.723 178.774L119.953 188.388L119.138 170.451L133.723 178.774Z"
    fill="#151515"
  />
  <path
    fill-rule="evenodd"
    clip-rule="evenodd"
    d="M117.548 170.062L117.465 187.316L103.287 179.754L117.548 170.062Z"
    fill="#151515"
  />
</svg>
