<svg
  width="240"
  height="240"
  viewBox="0 0 240 240"
  fill="none"
  xmlns="http://www.w3.org/2000/svg"
  data-fui-pictogram="true"
>
  <path stroke="#000" stroke-opacity=".01" d="M0.5 0.5H239.5V239.5H0.5z" />
  <path
    d="M154.007 134.102C154.007 130.552 153.303 129.082 153.303 129.082L153.931 128.238L180.923 111.362C180.505 110.707 180.025 110.098 179.499 109.53L152.399 126.232C152.399 126.232 150.142 123.377 145.418 121.412C140.694 119.447 71.0776 94.4601 66.5225 92.8841C64.2502 92.096 62.4731 91.8095 60.9922 91.9681C58.3827 93.4879 57.2031 95.3147 57.2031 100.263V165.567C57.2031 170.301 60.073 176.374 64.863 178.81C69.6528 181.246 141.399 213.924 145.096 214.947C147.706 215.668 149.498 215.654 152.026 214.216C152.726 213.059 153.777 210.967 153.777 208.873C153.777 205.741 154.002 137.649 154.002 134.102H154.007Z"
    fill="#B6B5B0"
  />
  <path
    d="M66.5271 92.8839C71.0821 94.46 140.699 119.452 145.423 121.412C150.146 123.371 152.403 126.232 152.403 126.232L179.503 109.53C178.37 108.317 176.996 107.314 175.428 106.659C170.832 104.74 89.1898 77.1079 89.1898 77.1079C89.1898 77.1079 66.4046 89.3275 62.6361 91.1184C62.0335 91.405 61.4972 91.6814 61.002 91.973C62.4829 91.8144 64.2598 92.1009 66.5322 92.889L66.5271 92.8839Z"
    fill="#3C3C3C"
  />
  <path
    d="M155.253 133.694C155.253 131.479 153.935 128.234 153.935 128.234L153.307 129.079C153.307 129.079 154.012 130.552 154.012 134.099C154.012 137.645 153.787 205.737 153.787 208.869C153.787 210.963 152.735 213.055 152.036 214.212C152.658 213.858 153.328 213.419 154.068 212.876C154.543 211.976 155.049 210.476 155.191 208.066C155.478 203.235 155.253 135.905 155.253 133.689V133.694Z"
    fill="#F3F3F3"
  />
  <path
    d="M180.927 111.363L153.934 128.239C153.934 128.239 155.251 131.477 155.251 133.698C155.251 135.919 155.476 203.25 155.189 208.075C155.047 210.486 154.537 211.985 154.066 212.885C154.577 212.512 155.118 212.098 155.7 211.628C160.552 207.727 176.443 196.592 179.252 194.229C182.06 191.865 182.954 189.367 182.954 185.468V118.179C182.954 115.789 182.223 113.399 180.927 111.368V111.363Z"
    fill="#151515"
  />
  <path
    d="M118.456 184.459C130.337 179.03 133.755 160.972 126.089 144.123C118.423 127.276 102.578 118.018 90.6964 123.446C78.8153 128.874 75.3982 146.933 83.0638 163.782C90.7296 180.629 106.575 189.886 118.456 184.459Z"
    fill="#F3F3F3"
  />
  <path
    d="M111.185 183.462C101.549 183.462 90.9375 174.937 85.3868 162.728C78.3193 147.193 81.1739 130.618 91.7597 125.783C93.6797 124.907 95.7682 124.462 97.9692 124.462C107.605 124.462 118.216 132.988 123.767 145.196C130.834 160.733 127.98 177.307 117.394 182.143C115.474 183.017 113.386 183.462 111.185 183.462Z"
    fill="#6196C1"
  />
  <path
    d="M107.879 156.428C111.367 154.724 112.251 149.342 109.851 144.408C107.451 139.475 102.676 136.861 99.1882 138.564C95.7005 140.268 94.8171 145.652 97.2172 150.585C98.029 152.252 99.1168 153.65 100.332 154.71L97.9728 170.75L109.462 175.398L107.067 156.73C107.343 156.649 107.614 156.556 107.879 156.423V156.428Z"
    fill="#151515"
  />
  <path
    d="M95.9514 53.3441C92.4126 57.8318 91.3555 65.4666 91.3555 70.4557V94.7005L102.845 88.56C102.845 88.56 102.59 72.3132 102.59 60.2215C102.59 53.2468 105.031 49.363 107.099 47.3213C103.586 47.5208 99.1787 49.2453 95.9514 53.3441Z"
    fill="#151515"
  />
  <path
    d="M161.93 75.7419C161.93 59.5361 153.545 45.4641 145.12 36.765C136.693 28.0659 125.884 24.9087 116.779 24.9087C110.758 24.9087 104.482 27.5543 99.2021 30.6347C103.155 29.5653 108.414 28.7875 113.628 29.9388C124.055 32.2416 133.288 38.6584 140.437 48.3195C147.587 57.9805 151.161 70.0671 151.161 82.7319V115.993L161.925 108.998V75.7368L161.93 75.7419Z"
    fill="#151515"
  />
  <path
    d="M130.612 39.8194C117.474 28.9353 105.126 29.1861 96.3735 32.3894C95.8118 32.594 95.2705 32.809 94.7394 33.0392C85.9307 36.8157 78.0156 47.3057 78.0156 61.3777V89.5832L90.2713 94.2857V66.0445C90.2713 54.0807 100.229 46.8553 105.08 46.7274C105.933 46.707 106.821 46.6968 107.746 46.7325C112.096 46.8963 117.259 47.9709 123.208 52.6121C130.419 58.2409 135.678 68.6031 135.678 82.0969V110.072L149.89 115.511V80.4338C149.89 70.261 144.589 51.3942 130.612 39.8143V39.8194Z"
    fill="#B6B5B0"
  />
  <path
    d="M105.08 46.7284C100.229 46.8564 90.2715 54.0868 90.2715 66.0455V94.2867L91.3541 94.7013V70.4565C91.3541 65.4673 92.411 57.8326 95.9498 53.3449C99.1772 49.2461 103.589 47.5165 107.097 47.3221C107.317 47.1071 107.531 46.9076 107.741 46.7336C106.817 46.6978 105.928 46.7029 105.075 46.7284H105.08Z"
    fill="#F3F3F3"
  />
  <path
    d="M140.443 48.3239C133.294 38.6627 124.061 32.2459 113.634 29.9432C108.42 28.7918 103.161 29.5697 99.2081 30.6391C98.2277 31.2123 97.2778 31.8007 96.374 32.3892C105.127 29.1859 117.474 28.9352 130.613 39.8192C144.595 51.3941 149.89 70.2659 149.89 80.4387V115.516L151.167 116.003V82.7415C151.167 70.0766 147.592 57.9849 140.443 48.329V48.3239Z"
    fill="#F3F3F3"
  />
</svg>
