<svg
  width="240"
  height="240"
  viewBox="0 0 240 240"
  fill="none"
  xmlns="http://www.w3.org/2000/svg"
  data-fui-pictogram="true"
>
  <path d="M166.184 138.815V131.091L136.89 144.373V209.374L153.092 215.218V146.089L166.184 138.815Z" fill="#151515" />
  <path d="M120.877 155.49L137.144 175.124L150.995 180.27V178.627L129.805 150.706L120.877 155.49Z" fill="#3C3C3C" />
  <path d="M140.194 145.136L129.806 150.706L150.995 178.627V163.435L140.194 145.136Z" fill="#151515" />
  <path d="M166.183 138.815L153.092 146.089V215.218L166.183 208.863V138.815Z" fill="#3C3C3C" />
  <path d="M44.058 134.015L43.7568 146.626L96.7981 170.217L96.6532 155.871L44.058 134.015Z" fill="#B6B5B0" />
  <path d="M96.7992 170.217L195.871 115.365V104.55L96.6543 155.871L96.7992 170.217Z" fill="#B6B5B0" />
  <path
    d="M193.202 103.215L97.7518 152.821L46.792 131.918L44.0586 134.015L96.6538 155.871L195.87 104.549L193.202 103.215Z"
    fill="#F3F3F3"
  />
  <path
    d="M89.33 71.6184C83.1044 63.4524 75.575 60.2119 69.7612 60.2119C63.9474 60.2119 57.4359 63.4829 53.4329 71.6794C51.176 76.0941 50.9854 82.0681 50.9854 84.6414V133.634L97.7515 152.818V97.7292C97.7515 89.2162 95.5594 79.7807 89.3338 71.6146L89.33 71.6184Z"
    fill="#151515"
  />
  <path
    d="M183.258 42.2633C176.221 32.923 160.846 23.964 146.93 28.474C133.015 32.984 69.9209 53.891 69.9209 53.891C69.9209 53.891 76.4324 53.0027 84.6633 58.2752C92.8903 63.5477 98.1666 72.1598 100.931 79.2431C101.884 81.6907 102.616 84.1572 103.168 86.6391L188.794 50.9822C187.311 48.0924 185.469 45.1912 183.262 42.2633H183.258Z"
    fill="#3C3C3C"
  />
  <path
    d="M188.79 50.9859L103.165 86.6429C104.213 91.3473 104.614 96.0975 104.614 100.817V149.257L193.205 103.215V67.806C193.205 62.2247 191.696 56.6358 188.794 50.9821L188.79 50.9859Z"
    fill="#151515"
  />
  <path
    d="M83.8824 60.2156C73.448 53.0522 64.5461 55.2443 64.5423 55.2443C61.4543 56.3423 57.5619 58.279 54.3557 61.6453C47.9395 68.3817 46.8568 76.5134 46.8568 84.8358C46.8568 93.1582 46.792 131.918 46.792 131.918L50.9856 133.638V84.6452C50.9856 82.0718 51.1762 76.0979 53.4331 71.6832C57.4361 63.4866 63.9476 60.2156 69.7614 60.2156C75.5753 60.2156 83.1047 63.4561 89.3302 71.6222C95.5558 79.7882 97.7479 89.2238 97.7479 97.7368V152.825L102.006 150.614V97.5957C102.006 82.0108 94.3206 67.3829 83.8824 60.2194V60.2156Z"
    fill="#B6B5B0"
  />
  <path
    d="M104.614 100.817C104.614 93.6043 103.691 86.3303 100.927 79.2469C98.163 72.1636 92.8906 63.5515 84.6597 58.279C76.4326 53.0065 69.9173 53.8948 69.9173 53.8948C69.9173 53.8948 67.6299 54.1502 64.5381 55.2444C64.5419 55.2444 73.4437 53.0523 83.8782 60.2157C94.3164 67.3791 102.002 82.0109 102.002 97.592V150.61L104.606 149.257V100.817H104.614Z"
    fill="#F3F3F3"
  />
  <path
    d="M57.3066 92.228V81.4734C57.3066 80.4212 58.3322 79.6777 59.331 79.998L90.863 90.1655C91.5034 90.3714 91.938 90.9661 91.938 91.6409V102.899C91.938 103.959 90.8973 104.706 89.8908 104.367L58.3588 93.6996C57.7298 93.4861 57.3066 92.8952 57.3066 92.2318V92.228Z"
    fill="#B6B5B0"
  />
  <path
    d="M131.652 113.146L130.496 107.596L132.448 99.1131L136.085 97.2336C136.085 97.2336 134.747 96.6084 133.485 96.0899C130.241 96.5169 127.195 99.3723 126.063 103.429C125.091 106.902 125.777 110.356 127.599 112.559C129.372 113.215 131.156 113.863 131.156 113.863L131.652 113.154V113.146Z"
    fill="#F3F3F3"
  />
  <path d="M169.009 89.9634V96.4673L170.747 97.184L170.675 89.178L169.009 89.9634Z" fill="#6196C1" />
  <path d="M135.242 98.1829H137.53L186.187 74.5234L184.067 73.7838L135.242 98.1829Z" fill="#6196C1" />
  <path
    d="M137.339 105.964L169.008 89.9634L170.674 89.1781L170.747 97.184L186.187 89.8681V74.5234L135.677 99.0976L137.339 105.964Z"
    fill="#354B98"
  />
  <path
    d="M139.137 107.076C140.428 102.46 138.909 98.0022 135.746 97.1178C132.583 96.2334 128.972 99.2578 127.682 103.873C126.392 108.488 127.91 112.946 131.073 113.831C134.237 114.715 137.847 111.691 139.137 107.076Z"
    fill="#3C3C3C"
  />
  <path
    d="M126.064 103.425C127.196 99.3723 130.246 96.5131 133.487 96.0861C132.976 95.8764 132.476 95.682 132.084 95.5523C130.719 95.1063 128.813 95.1711 126.571 96.5855C124.329 97.9999 122.442 101.137 122.13 104.782C121.817 108.427 123.391 110.977 125.442 111.751C126.06 111.984 126.826 112.27 127.596 112.552C125.774 110.348 125.088 106.894 126.06 103.421L126.064 103.425Z"
    fill="#B6B5B0"
  />
  <path d="M59.5928 82.4836V91.6981L89.6494 101.866V92.1746L59.5928 82.4836Z" fill="#354B98" />
</svg>
