<svg
  width="240"
  height="240"
  viewBox="0 0 240 240"
  fill="none"
  xmlns="http://www.w3.org/2000/svg"
  data-fui-pictogram="true"
>
  <path stroke="#000" stroke-opacity=".01" d="M0.5 0.5H239.5V239.5H0.5z" />
  <path d="M166.184 138.815V131.091L136.89 144.373V209.374L153.092 215.218V146.089L166.184 138.815Z" fill="#222" />
  <path d="M120.877 155.49L137.144 175.124L150.995 180.27V178.627L129.805 150.706L120.877 155.49Z" fill="#3C3C3C" />
  <path d="M140.194 145.136L129.806 150.706L150.995 178.627V163.435L140.194 145.136Z" fill="#222" />
  <path d="M166.183 138.815L153.092 146.089V215.218L166.183 208.863V138.815Z" fill="#3C3C3C" />
  <path
    d="M44.058 134.015L43.7568 146.626 96.7981 170.217 96.6532 155.871 44.058 134.015zM96.7992 170.217L195.871 115.365V104.55L96.6543 155.871 96.7992 170.217z"
    fill="#B6B5B0"
  />
  <path
    d="M193.202 103.215L97.7518 152.821L46.792 131.918L44.0586 134.015L96.6538 155.871L195.87 104.549L193.202 103.215Z"
    fill="#F3F3F3"
  />
  <path
    d="M89.33 71.6185C83.1044 63.4524 75.575 60.2119 69.7612 60.2119C63.9474 60.2119 57.4359 63.4829 53.4329 71.6795C51.176 76.0942 50.9854 82.0681 50.9854 84.6415V133.634L97.7515 152.818V97.7293C97.7515 89.2163 95.5594 79.7807 89.3338 71.6147L89.33 71.6185Z"
    fill="#222"
  />
  <path
    d="M183.258 42.2633C176.221 32.923 160.846 23.964 146.93 28.474C133.015 32.984 69.9209 53.891 69.9209 53.891C69.9209 53.891 76.4324 53.0027 84.6633 58.2752C92.8903 63.5477 98.1666 72.1598 100.931 79.2431C101.884 81.6907 102.616 84.1572 103.168 86.6391L188.794 50.9822C187.311 48.0924 185.469 45.1912 183.262 42.2633H183.258Z"
    fill="#3C3C3C"
  />
  <path
    d="M188.79 50.986L103.165 86.6429C104.213 91.3474 104.614 96.0976 104.614 100.817V149.257L193.205 103.215V67.8061C193.205 62.2248 191.696 56.6359 188.794 50.9822L188.79 50.986Z"
    fill="#222"
  />
  <path
    d="M83.8824 60.2158C73.448 53.0523 64.5461 55.2444 64.5423 55.2444C61.4543 56.3424 57.5619 58.2791 54.3557 61.6454C47.9395 68.3818 46.8568 76.5136 46.8568 84.8359C46.8568 93.1583 46.792 131.918 46.792 131.918L50.9856 133.638V84.6453C50.9856 82.072 51.1762 76.098 53.4331 71.6833C57.4361 63.4868 63.9476 60.2158 69.7614 60.2158C75.5753 60.2158 83.1047 63.4563 89.3302 71.6223C95.5558 79.7884 97.7479 89.2239 97.7479 97.7369V152.825L102.006 150.614V97.5959C102.006 82.011 94.3206 67.383 83.8824 60.2196V60.2158Z"
    fill="#B6B5B0"
  />
  <path
    d="M104.614 100.817C104.614 93.6043 103.691 86.3303 100.927 79.2469C98.163 72.1636 92.8906 63.5515 84.6597 58.279C76.4326 53.0065 69.9173 53.8948 69.9173 53.8948C69.9173 53.8948 67.6299 54.1502 64.5381 55.2444C64.5419 55.2444 73.4437 53.0523 83.8782 60.2157C94.3164 67.3791 102.002 82.0109 102.002 97.592V150.61L104.606 149.257V100.817H104.614Z"
    fill="#F3F3F3"
  />
  <path
    d="M57.3066 92.228V81.4734C57.3066 80.4212 58.3322 79.6777 59.331 79.998L90.863 90.1655C91.5034 90.3714 91.938 90.9661 91.938 91.6409V102.899C91.938 103.959 90.8973 104.706 89.8908 104.367L58.3588 93.6996C57.7298 93.4861 57.3066 92.8952 57.3066 92.2318V92.228Z"
    fill="#B6B5B0"
  />
  <path d="M59.5928 82.4836V91.6981L89.6494 101.866V92.1746L59.5928 82.4836Z" fill="#FA4616" />
  <path
    d="M126.174 96.1001C126.174 96.1001 122.481 98.9727 122.064 103.804C121.648 108.635 123.32 110.47 125.06 111.329C126.799 112.187 128.739 112.745 128.739 112.745C128.739 112.745 131.05 107.289 131.656 105.591C132.261 103.893 132.863 102.711 132.678 101.109C132.492 99.5078 132.514 98.5082 131.585 97.9507C130.656 97.3933 129.125 97.1629 128.82 97.1629C128.516 97.1629 126.174 96.1038 126.174 96.1038V96.1001Z"
    fill="#B6B5B0"
  />
  <path
    d="M129.176 97.6943C129.176 97.6658 126.092 96.4347 126.092 96.4347L126.219 39.3288L138.757 35.0059L141.137 35.615L141.142 43.3708L141.136 57.0571L137.768 58.3727L134.4 59.6884L134.417 97.6943H129.176Z"
    fill="#FA4616"
  />
  <path
    d="M126.22 39.3286L128.453 40.1472V97.3832C128.828 97.5355 129.113 97.6561 129.167 97.6846V40.1852L141.153 35.6092L138.774 35L126.22 39.3254V39.3286Z"
    fill="#FE7F5C"
  />
  <path
    d="M131.272 110.875C131.272 110.875 137.148 99.727 137.159 99.6935C137.17 99.6601 138.727 98.3706 138.471 97.9172C138.214 97.4639 137.508 96.8953 136.568 96.4531C133.628 95.0744 128.812 97.8838 126.902 102.377C124.992 106.869 125.988 111.277 128.849 112.808C130.016 113.432 131.633 113.618 131.633 113.618C131.633 113.618 132.027 112.815 132.027 112.745C132.027 112.674 131.272 110.875 131.272 110.875Z"
    fill="#F3F3F3"
  />
  <path
    d="M139.458 107.505C141.369 103.014 140.497 98.3438 137.512 97.0733C134.526 95.8029 130.556 98.4135 128.646 102.904C126.735 107.395 127.606 112.066 130.592 113.336C133.577 114.607 137.547 111.996 139.458 107.505Z"
    fill="#3C3C3C"
  />
</svg>
