<svg
  width="240"
  height="240"
  viewBox="0 0 240 240"
  fill="none"
  xmlns="http://www.w3.org/2000/svg"
  data-fui-pictogram="true"
>
  <path stroke="#000" stroke-opacity=".01" d="M0.5 0.5H239.5V239.5H0.5z" />
  <path
    d="M187.842 112.168L187.389 115.845L153.928 190.252L151.506 189.948L142.684 177.505L143.719 176.379L150.902 173.1L149.614 146.343L148.642 132.646L148.252 131.559L187.842 112.168Z"
    fill="#B6B5B0"
  />
  <path
    d="M151.579 79.9186C151.848 80.2953 152.109 80.6762 152.362 81.0529C152.448 81.1813 152.529 81.3097 152.614 81.4381C152.781 81.6864 152.948 81.9389 153.107 82.1915C153.205 82.3456 153.299 82.4954 153.394 82.6495C153.535 82.8763 153.676 83.1032 153.817 83.3258C153.916 83.4884 154.01 83.6511 154.108 83.8137C154.237 84.0278 154.365 84.2461 154.489 84.4601C154.588 84.627 154.678 84.7982 154.776 84.9652C154.896 85.1749 155.012 85.3847 155.127 85.5944C155.221 85.7656 155.311 85.9368 155.401 86.108C155.512 86.3135 155.619 86.519 155.726 86.7244C155.816 86.8999 155.902 87.0711 155.992 87.2466C156.094 87.4478 156.197 87.649 156.291 87.8544C156.377 88.0299 156.458 88.2054 156.544 88.3809C156.608 88.5179 156.677 88.6549 156.741 88.7918C156.758 88.8346 156.779 88.8732 156.796 88.9117L195.555 72.6119C195.496 72.4793 195.431 72.3466 195.371 72.2139C195.294 72.0512 195.222 71.8886 195.145 71.7302C195.063 71.5632 194.986 71.4049 194.905 71.2422C194.828 71.0838 194.751 70.9255 194.669 70.7714C194.588 70.613 194.507 70.4546 194.421 70.3005C194.34 70.1507 194.263 69.9966 194.181 69.8468C194.096 69.6927 194.01 69.5386 193.925 69.3845C193.843 69.239 193.762 69.0935 193.681 68.9522C193.595 68.8024 193.505 68.6569 193.419 68.507C193.338 68.3658 193.253 68.2245 193.171 68.0876C193.081 67.942 192.991 67.8008 192.906 67.6552C192.82 67.5226 192.739 67.3856 192.653 67.2529C192.563 67.1116 192.474 66.9747 192.379 66.8377C192.294 66.7093 192.208 66.5766 192.123 66.4482C192.033 66.3112 191.938 66.1828 191.849 66.0501C191.763 65.926 191.673 65.7976 191.588 65.6734C191.493 65.545 191.403 65.4166 191.309 65.2882C191.219 65.1683 191.134 65.0442 191.044 64.9286C190.95 64.8045 190.856 64.6804 190.761 64.5562C190.672 64.4407 190.582 64.3251 190.496 64.2095C190.402 64.0897 190.303 63.9698 190.209 63.85C190.119 63.7387 190.029 63.6274 189.94 63.5161C189.841 63.4005 189.747 63.285 189.648 63.1737C189.559 63.0667 189.469 62.9597 189.379 62.8526C189.28 62.7414 189.182 62.6301 189.083 62.5231C188.994 62.4203 188.904 62.3176 188.814 62.2191C188.715 62.1121 188.617 62.0051 188.518 61.8981C188.429 61.7997 188.339 61.7012 188.245 61.607C188.146 61.5043 188.043 61.4016 187.945 61.2989C187.855 61.2047 187.765 61.1105 187.671 61.0206C187.572 60.9222 187.47 60.8237 187.371 60.7253C187.281 60.6354 187.187 60.5455 187.097 60.4599C186.999 60.3657 186.9 60.2758 186.798 60.1817C186.704 60.0961 186.614 60.0105 186.52 59.9249C186.421 59.835 186.318 59.7451 186.22 59.6552C186.13 59.5739 186.036 59.4925 185.946 59.4112C185.847 59.3256 185.745 59.24 185.646 59.1544C185.556 59.0773 185.462 58.996 185.372 58.919C185.274 58.8376 185.171 58.7563 185.073 58.675C184.983 58.6022 184.889 58.5252 184.799 58.4524C184.696 58.3711 184.598 58.294 184.495 58.217C184.405 58.1485 184.315 58.0757 184.225 58.0072C184.122 57.9302 184.024 57.8574 183.921 57.7804C183.831 57.7162 183.746 57.6477 183.656 57.5835C183.553 57.5107 183.45 57.4379 183.348 57.3652C183.262 57.3052 183.177 57.241 183.091 57.1811C182.988 57.1084 182.885 57.0399 182.783 56.9714C182.697 56.9157 182.612 56.8558 182.53 56.8002C182.427 56.7317 182.329 56.6675 182.226 56.6033C182.141 56.5476 182.055 56.492 181.969 56.4406C181.871 56.3807 181.773 56.3208 181.678 56.2608C181.593 56.2095 181.507 56.1538 181.422 56.1025C181.327 56.0468 181.233 55.9912 181.139 55.9355C181.053 55.8842 180.964 55.8328 180.878 55.7814C180.775 55.7215 180.672 55.6659 180.57 55.6102C180.493 55.5674 180.416 55.5246 180.343 55.4818C180.236 55.4219 180.125 55.3662 180.018 55.3063C179.949 55.2678 179.881 55.2335 179.812 55.195C179.701 55.1351 179.594 55.0837 179.487 55.0281C179.423 54.9938 179.358 54.9596 179.294 54.9296C179.174 54.8697 179.059 54.8141 178.939 54.7541C178.888 54.7285 178.836 54.7028 178.785 54.6771C178.618 54.5958 178.451 54.5187 178.284 54.4417C174.808 52.8494 171.714 52.1987 169.753 51.9333C157.019 56.5091 135.125 65.0827 134.11 65.5579C137.714 66.4525 144.161 69.4787 151.574 79.9057L151.579 79.9186Z"
    fill="#FA4616"
  />
  <path
    d="M132.826 66.5898C133.143 66.6327 133.481 66.6926 133.918 66.7953C133.503 66.6797 133.143 66.6241 132.826 66.5898Z"
    fill="#FA4616"
  />
  <path
    d="M159.468 119.077C160.029 117.116 160.461 114.236 160.474 110.73C160.5 105.14 159.455 97.9657 156.146 90.4021C156.031 90.141 155.92 89.8799 155.8 89.6188C154.443 86.6438 152.735 83.6175 150.599 80.6127C143.63 70.8061 137.351 67.7456 133.918 66.791C133.481 66.6926 133.143 66.6284 132.826 66.5856C132.54 66.5556 132.287 66.5385 132.064 66.5171L129.83 67.4417C129.83 67.4417 132.18 67.7713 135.579 69.1111C138.768 70.3652 143.776 73.5585 149.533 81.6228C151.601 84.5207 153.227 87.3886 154.507 90.1667C154.627 90.4278 154.742 90.6889 154.858 90.95C160.962 104.874 158.317 116.517 157.593 119.098C157.435 119.663 157.225 120.237 156.977 120.806C156.574 121.731 156.069 122.651 155.491 123.546C155.427 123.648 155.354 123.751 155.282 123.858C154.306 125.318 153.146 126.683 151.96 127.83C150.06 129.864 148.249 131.563 148.249 131.563C148.249 131.563 150.556 130.81 152.255 130.21C154.828 128.361 157.867 124.663 159.464 119.077H159.468Z"
    fill="#151515"
  />
  <path
    d="M158.085 146.549C158.085 146.549 156.039 147.311 154.956 147.525C153.873 147.739 152.533 147.953 151.934 147.632C151.626 147.469 151.018 147.131 150.491 146.836C150.47 146.823 150.449 146.814 150.427 146.802C150.32 146.742 150.217 146.682 150.119 146.63C150.072 146.605 150.025 146.579 149.982 146.553C149.815 146.459 149.682 146.382 149.61 146.344C149.575 146.322 149.554 146.309 149.554 146.309C149.554 146.309 145.308 173.096 145.094 174.419C144.914 175.514 144.246 175.972 143.72 176.379L152.182 182.487C152.182 182.487 153.629 181.391 153.843 179.868C154.057 178.344 158.085 146.549 158.085 146.549Z"
    fill="#151515"
  />
  <path
    d="M151.086 185.942C151.086 184.821 151.3 183.507 151.3 183.507L142.679 177.505C142.435 177.946 142.242 178.58 142.165 179.629C142.024 181.628 141.878 182.98 142.773 183.909C143.663 184.838 149.374 188.369 150.444 189.294C150.756 189.564 151.111 189.782 151.505 189.949C151.287 189.645 151.086 189.247 151.086 188.776V185.942Z"
    fill="#151515"
  />
  <path
    d="M155.153 180.913C154.866 182.535 153.941 183.16 153.53 183.481C153.119 183.802 152.691 184.461 152.691 185.745V188.724C152.691 189.465 153.359 189.966 153.924 190.257C154.331 190.214 154.759 190.137 155.225 190.009C157.4 189.401 171.311 182.141 173.828 181.02C176.345 179.898 176.987 178.772 177.629 177.06C178.216 175.494 186.075 124.428 187.393 115.845L162.006 127.621C162.006 127.621 155.444 179.29 155.157 180.913H155.153Z"
    fill="#151515"
  />
  <path
    d="M105.286 151.856C105.286 151.856 107.962 153.461 109.674 151.856C111.386 150.251 125.888 138.266 137.176 131.203C144.046 126.905 151.421 123.323 156.151 121.178C156.438 121.05 156.712 120.926 156.977 120.806C157.225 120.232 157.435 119.663 157.593 119.098C158.317 116.517 160.962 104.874 154.858 90.9498C154.743 90.6887 154.627 90.4276 154.507 90.1665C153.227 87.3842 151.605 84.5206 149.533 81.6227C143.776 73.5584 138.768 70.3695 135.579 69.111C132.18 67.7712 129.831 67.4417 129.831 67.4417C129.822 67.4417 116.916 71.812 102.021 74.5429C88.2289 77.0684 69.3693 74.5258 63.3125 73.5798C76.3764 80.7752 89.2819 97.3833 96.9139 118.858C105.286 142.409 105.042 165.429 97.6331 178.99C98.9557 177.231 100.848 174.731 102.838 172.163C103.24 170.853 103.673 168.927 104.002 166.144C104.807 159.347 105.286 151.856 105.286 151.856Z"
    fill="#B6B5B0"
  />
  <path
    d="M151.963 127.826C153.187 126.516 154.445 125.07 155.284 123.854C155.357 123.747 155.425 123.644 155.494 123.541C156.072 122.647 156.577 121.727 156.979 120.802C156.714 120.922 156.44 121.046 156.153 121.174C151.423 123.323 144.048 126.902 137.178 131.199C125.886 138.262 111.389 150.247 109.677 151.852C107.964 153.457 105.289 151.852 105.289 151.852C105.289 151.852 104.81 159.343 104.005 166.14C103.675 168.922 103.239 170.848 102.841 172.158C104.621 169.855 106.479 167.497 108.071 165.566C112.96 159.647 119.95 151.368 129.76 143.736C138.231 137.145 146.231 132.659 148.256 131.554C148.256 131.554 150.066 129.851 151.967 127.822L151.963 127.826Z"
    fill="#3C3C3C"
  />
  <path
    d="M200.154 55.3878C191.593 48.4321 184.693 47.0924 181.32 47.9484C180.395 48.1839 176.821 49.4209 172.053 51.1202C173.906 51.514 176.209 52.186 178.73 53.3375C183.49 55.5076 189.782 59.8009 194.636 68.199C195.509 69.71 196.34 71.3536 197.102 73.1429C200.877 81.9819 202.135 90.2816 202.028 96.8562C201.943 102.237 200.945 106.457 199.661 108.871C202.272 107.626 204.9 106.367 205.769 105.948C209.729 104.022 214.116 99.7412 214.544 87.0071C214.972 74.2729 208.714 62.3434 200.154 55.3835V55.3878ZM211.441 92.1949L205.714 94.7803C205.658 94.8059 205.598 94.8188 205.538 94.8188C205.376 94.8188 205.222 94.7246 205.149 94.5662C205.05 94.3522 205.149 94.0954 205.363 94.0012L211.09 91.4159C211.304 91.3174 211.561 91.4159 211.655 91.6299C211.753 91.8439 211.655 92.1007 211.441 92.1949ZM211.745 87.1226C211.839 87.3409 211.745 87.5935 211.527 87.6876L205.731 90.2388C205.675 90.2644 205.615 90.273 205.56 90.273C205.397 90.273 205.239 90.1788 205.166 90.0162C205.072 89.7979 205.166 89.5453 205.384 89.4512L211.18 86.9C211.398 86.8059 211.651 86.9 211.745 87.1183V87.1226ZM211.334 83.6041C211.428 83.8182 211.334 84.075 211.116 84.1692L205.337 86.7374C205.281 86.7631 205.222 86.7759 205.162 86.7759C204.999 86.7759 204.841 86.6817 204.772 86.5234C204.678 86.3094 204.772 86.0525 204.99 85.9584L210.769 83.3901C210.987 83.2917 211.24 83.3901 211.334 83.6084V83.6041ZM204.387 81.7293L209.986 79.3023C210.204 79.2082 210.456 79.3066 210.546 79.5249C210.64 79.7432 210.542 79.9958 210.324 80.0857L204.725 82.5126C204.669 82.5383 204.614 82.5469 204.554 82.5469C204.387 82.5469 204.233 82.4484 204.16 82.2901C204.066 82.0718 204.164 81.8192 204.383 81.7293H204.387ZM204.344 98.7097L210.602 95.8546C210.816 95.7562 211.073 95.8546 211.167 96.0686C211.265 96.2827 211.167 96.5395 210.953 96.6337L204.695 99.4887C204.639 99.5144 204.575 99.5272 204.52 99.5272C204.357 99.5272 204.203 99.433 204.13 99.2747C204.032 99.0606 204.13 98.8038 204.344 98.7097Z"
    fill="#151515"
  />
  <path
    d="M198.599 108.392C198.616 108.362 198.629 108.341 198.646 108.311C198.663 108.281 198.676 108.251 198.693 108.221C198.753 108.105 198.813 107.981 198.873 107.853C198.899 107.797 198.924 107.737 198.95 107.682C199.001 107.57 199.049 107.455 199.096 107.335C199.121 107.271 199.147 107.206 199.173 107.138C199.22 107.014 199.271 106.881 199.318 106.748C199.34 106.684 199.365 106.62 199.387 106.556C199.451 106.372 199.511 106.183 199.575 105.982C199.579 105.965 199.588 105.948 199.592 105.927C199.661 105.708 199.725 105.486 199.785 105.25C199.802 105.178 199.823 105.105 199.84 105.032C199.883 104.865 199.926 104.698 199.969 104.523C199.99 104.433 200.012 104.343 200.033 104.253C200.072 104.082 200.11 103.911 200.144 103.735C200.161 103.641 200.183 103.551 200.2 103.457C200.238 103.256 200.277 103.05 200.316 102.84C200.328 102.768 200.341 102.699 200.354 102.626C200.401 102.344 200.448 102.053 200.487 101.758C200.495 101.689 200.504 101.621 200.512 101.556C200.542 101.321 200.572 101.086 200.602 100.846C200.615 100.739 200.624 100.632 200.637 100.525C200.658 100.315 200.679 100.101 200.701 99.8827C200.709 99.7672 200.722 99.6473 200.731 99.5317C200.748 99.3049 200.765 99.0737 200.778 98.8383C200.786 98.7313 200.791 98.6243 200.799 98.5173C200.816 98.1749 200.833 97.8281 200.846 97.4729C201.026 91.536 200.059 83.8955 196.754 75.4545C196.536 74.9023 196.309 74.3459 196.069 73.7852L157.315 90.0849C157.34 90.1491 157.37 90.2133 157.396 90.2732C157.456 90.4188 157.516 90.56 157.576 90.7056C157.657 90.8982 157.738 91.0908 157.815 91.2834C157.897 91.4846 157.974 91.6815 158.051 91.8784C158.124 92.0667 158.201 92.2593 158.269 92.4477C158.346 92.6489 158.415 92.8458 158.487 93.0427C158.556 93.231 158.624 93.4193 158.689 93.6034C158.757 93.8003 158.826 93.9972 158.89 94.1941C158.954 94.3824 159.018 94.5665 159.078 94.7548C159.142 94.9517 159.202 95.1443 159.262 95.3412C159.322 95.5253 159.378 95.7136 159.433 95.8977C159.493 96.0903 159.549 96.2829 159.605 96.4755C159.656 96.6596 159.712 96.8436 159.763 97.0277C159.814 97.2203 159.866 97.4087 159.917 97.6013C159.964 97.7811 160.016 97.9651 160.058 98.1449C160.105 98.3375 160.153 98.5258 160.2 98.7185C160.242 98.8982 160.285 99.0737 160.328 99.2535C160.371 99.4418 160.414 99.6259 160.452 99.8142C160.491 99.9897 160.529 100.17 160.568 100.345C160.606 100.529 160.641 100.713 160.679 100.901C160.713 101.077 160.748 101.248 160.782 101.424C160.816 101.608 160.846 101.788 160.88 101.972C160.91 102.143 160.94 102.314 160.97 102.485C161 102.665 161.026 102.845 161.056 103.025C161.081 103.191 161.111 103.363 161.133 103.53C161.158 103.709 161.18 103.881 161.206 104.06C161.227 104.227 161.253 104.394 161.274 104.557C161.295 104.732 161.317 104.904 161.334 105.079C161.351 105.242 161.372 105.404 161.39 105.563C161.407 105.734 161.424 105.905 161.441 106.076C161.454 106.235 161.471 106.393 161.484 106.552C161.497 106.719 161.509 106.885 161.522 107.052C161.535 107.206 161.548 107.365 161.557 107.519C161.565 107.682 161.574 107.844 161.582 108.007C161.591 108.161 161.599 108.315 161.608 108.465C161.616 108.623 161.621 108.782 161.625 108.94C161.629 109.09 161.638 109.24 161.642 109.385C161.642 109.544 161.646 109.702 161.651 109.856C161.651 109.997 161.655 110.143 161.659 110.284C161.659 110.442 161.659 110.592 161.659 110.751C161.659 110.888 161.659 111.025 161.659 111.162C161.659 111.316 161.655 111.461 161.651 111.611C161.651 111.744 161.646 111.881 161.642 112.013C161.638 112.163 161.629 112.304 161.625 112.45C161.621 112.578 161.616 112.707 161.608 112.835C161.599 112.981 161.591 113.126 161.582 113.268C161.574 113.387 161.569 113.512 161.561 113.631C161.552 113.773 161.539 113.91 161.527 114.047C161.518 114.162 161.509 114.282 161.497 114.398C161.484 114.535 161.471 114.667 161.454 114.8C161.441 114.911 161.432 115.027 161.42 115.134C161.407 115.266 161.39 115.391 161.372 115.519C161.36 115.626 161.347 115.737 161.334 115.84C161.317 115.964 161.3 116.084 161.283 116.204C161.265 116.311 161.253 116.418 161.236 116.521C161.218 116.64 161.197 116.76 161.176 116.876C161.158 116.97 161.146 117.069 161.128 117.163C161.107 117.287 161.081 117.402 161.06 117.522C161.043 117.608 161.03 117.693 161.013 117.775C160.987 117.899 160.962 118.014 160.936 118.13C160.919 118.203 160.906 118.28 160.889 118.353C160.859 118.477 160.829 118.597 160.803 118.716C160.79 118.776 160.773 118.836 160.76 118.896C160.718 119.072 160.67 119.239 160.623 119.401C160.491 119.859 160.349 120.313 160.195 120.758C160.144 120.904 160.084 121.049 160.033 121.195C159.926 121.49 159.819 121.79 159.699 122.081C159.63 122.252 159.549 122.415 159.476 122.582C159.365 122.843 159.254 123.104 159.134 123.361C159.048 123.536 158.958 123.707 158.873 123.879C158.753 124.118 158.637 124.358 158.513 124.589C158.419 124.765 158.316 124.932 158.218 125.103C158.089 125.321 157.97 125.548 157.837 125.762C157.73 125.933 157.619 126.096 157.512 126.263C157.379 126.468 157.246 126.678 157.109 126.875C156.994 127.038 156.874 127.192 156.758 127.35C156.617 127.538 156.48 127.731 156.339 127.915C156.215 128.069 156.086 128.215 155.962 128.364C155.829 128.523 155.697 128.69 155.56 128.844C155.538 128.87 155.513 128.895 155.491 128.921L163.307 125.856C163.996 125.587 164.673 125.295 165.345 124.983L187.594 114.616C187.594 114.616 191.031 112.989 194.995 111.106C194.999 111.106 195.004 111.102 195.008 111.097C195.487 110.871 195.975 110.639 196.463 110.404C196.763 110.263 197.075 110.113 197.401 109.959C197.401 109.959 197.418 109.937 197.448 109.912C197.615 109.736 198.235 109.068 198.612 108.392H198.599Z"
    fill="#151515"
  />
  <path
    d="M204.524 99.5283C204.584 99.5283 204.644 99.5155 204.699 99.4898L210.958 96.6344C211.172 96.536 211.266 96.2834 211.172 96.0694C211.073 95.8553 210.821 95.7611 210.607 95.8553L204.348 98.7107C204.134 98.8091 204.04 99.0617 204.134 99.2757C204.207 99.4341 204.361 99.5283 204.524 99.5283Z"
    fill="#F3F3F3"
  />
  <path
    d="M211.091 91.4165L205.364 94.0021C205.15 94.1006 205.051 94.3532 205.15 94.5672C205.222 94.7256 205.377 94.8198 205.539 94.8198C205.599 94.8198 205.659 94.8069 205.715 94.7812L211.443 92.1956C211.657 92.0971 211.755 91.8446 211.657 91.6305C211.558 91.4165 211.306 91.318 211.091 91.4165Z"
    fill="#F3F3F3"
  />
  <path
    d="M211.18 86.9006L205.384 89.452C205.165 89.5462 205.071 89.7988 205.165 90.0171C205.238 90.1755 205.392 90.2739 205.559 90.2739C205.615 90.2739 205.675 90.2611 205.73 90.2397L211.527 87.6883C211.745 87.5941 211.839 87.3415 211.745 87.1232C211.651 86.9092 211.398 86.8107 211.18 86.9049V86.9006Z"
    fill="#F3F3F3"
  />
  <path
    d="M204.772 86.5241C204.845 86.6825 204.999 86.7767 205.162 86.7767C205.222 86.7767 205.277 86.7638 205.337 86.7382L211.116 84.1696C211.33 84.0755 211.429 83.8229 211.335 83.6046C211.24 83.3862 210.988 83.2921 210.77 83.3862L204.99 85.9548C204.776 86.0489 204.678 86.3015 204.772 86.5198V86.5241Z"
    fill="#F3F3F3"
  />
  <path
    d="M204.558 82.5521C204.614 82.5521 204.674 82.5392 204.729 82.5178L210.329 80.0906C210.547 79.9964 210.645 79.7438 210.551 79.5298C210.457 79.3114 210.205 79.213 209.99 79.3072L204.391 81.7344C204.173 81.8286 204.074 82.0812 204.168 82.2952C204.237 82.4579 204.395 82.5521 204.562 82.5521H204.558Z"
    fill="#F3F3F3"
  />
  <path
    d="M148.643 132.646C148.643 132.646 148.647 132.629 148.655 132.59C148.651 132.608 148.647 132.629 148.643 132.646Z"
    fill="#FA4616"
  />
  <path
    d="M148.656 132.586C148.69 132.449 148.712 132.359 148.716 132.325C148.716 132.308 148.678 132.488 148.656 132.586Z"
    fill="#FA4616"
  />
  <path
    d="M149.983 146.554C150.026 146.579 150.073 146.605 150.12 146.631C150.214 146.686 150.321 146.742 150.428 146.802C150.449 146.815 150.471 146.823 150.492 146.836C150.997 147.119 151.579 147.444 151.896 147.611C153.711 147.247 154.306 144.829 155.423 140.325C156.198 136.875 157.003 129.971 157.003 129.971L156.309 130.185C156.309 130.185 154.464 131.336 152.483 131.79C152.251 131.841 152.016 131.888 151.781 131.931C151.678 131.987 149.187 132.625 148.643 132.642C148.241 134.174 146.319 140.612 145.899 141.511C145.437 142.509 145.826 143.562 146.451 144.169C147.076 144.777 149.555 146.31 149.555 146.31C149.555 146.31 149.576 146.322 149.61 146.344C149.679 146.382 149.812 146.459 149.983 146.554Z"
    fill="#FA4616"
  />
  <path
    d="M96.9178 118.858C89.2858 97.3875 76.3803 80.7751 63.3164 73.5797C56.3307 69.7316 49.3022 68.5759 43.01 70.8103C24.9508 77.2309 19.8057 109.146 31.517 142.101C43.2283 175.056 67.3657 196.565 85.4248 190.145C90.5785 188.313 94.6791 184.405 97.6369 178.99C105.046 165.425 105.29 142.409 96.9178 118.858ZM83.4045 184.469C68.0505 189.926 46.9094 169.881 36.1827 139.7C25.4559 109.518 29.2056 80.6253 44.5552 75.172C57.1097 70.7075 73.5381 83.3092 84.9754 104.557C83.1476 105.811 80.2198 107.669 77.3177 109.073C71.5048 111.89 63.4705 115.074 63.4705 115.074C68.1961 114.573 73.8634 119.612 76.7355 127.196C79.4065 134.255 78.7987 141.266 75.5798 144.425C77.3177 143.625 80.391 142.315 84.1664 141.176C88.0059 140.021 93.3436 138.026 96.3485 136.896C100.655 160.28 95.8306 180.056 83.4045 184.473V184.469Z"
    fill="#151515"
  />
  <path
    d="M96.3522 136.892C93.3516 138.026 88.0139 140.017 84.1701 141.172C80.3948 142.311 77.3171 143.621 75.5835 144.421C74.98 145.012 74.2866 145.466 73.5075 145.761C68.5508 147.636 61.9632 142.362 58.7957 133.981C55.6239 125.6 57.0749 117.287 62.0274 115.413C62.4982 115.233 62.9819 115.121 63.4785 115.07C63.4785 115.07 71.5086 111.885 77.3257 109.069C80.2278 107.665 83.1556 105.807 84.9834 104.553C73.5461 83.305 57.1177 70.7077 44.5632 75.1679C29.2093 80.6254 25.4639 109.514 36.1907 139.695C46.9175 169.877 68.0585 189.922 83.4125 184.465C95.8386 180.047 100.663 160.272 96.3565 136.888L96.3522 136.892Z"
    fill="#B6B5B0"
  />
  <path
    d="M58.7914 133.986C61.9632 142.367 68.5509 147.641 73.5035 145.766C74.2825 145.47 74.976 145.017 75.5795 144.426C78.7985 141.271 79.4063 134.26 76.7353 127.197C73.8673 119.612 68.1956 114.574 63.47 115.075C62.9734 115.126 62.4897 115.241 62.0189 115.417C57.062 117.292 55.6152 125.605 58.7871 133.986H58.7914ZM63.6241 117.493C67.3053 117.574 71.6843 121.923 74.06 128.207C76.4956 134.641 76.0119 140.937 73.1354 143.317C72.7672 143.621 72.3649 143.861 71.924 144.032C67.9987 145.518 62.5925 140.843 59.8487 133.588C57.1048 126.332 58.0637 119.252 61.9889 117.767C62.5111 117.57 63.0633 117.484 63.6283 117.497L63.6241 117.493Z"
    fill="#F3F3F3"
  />
  <path
    d="M59.8492 133.588C62.593 140.839 67.9993 145.518 71.9245 144.032C72.3697 143.865 72.7721 143.621 73.1359 143.318C76.0167 140.942 76.4961 134.641 74.0605 128.207C71.6805 121.919 67.3059 117.575 63.6246 117.493C63.0596 117.48 62.5074 117.566 61.9852 117.763C58.0599 119.248 57.1011 126.332 59.8449 133.584L59.8492 133.588ZM64.6477 125.314C65.1442 125.125 65.7007 125.194 66.27 125.472C67.5327 126.084 68.8511 127.724 69.6644 129.872C70.6018 132.347 70.5804 134.752 69.7415 135.942C69.5232 136.255 69.2492 136.486 68.9196 136.61C67.3273 137.214 65.08 135.172 63.9028 132.051C62.7214 128.931 63.0553 125.917 64.6477 125.314Z"
    fill="#FA4616"
  />
  <path
    d="M68.9237 136.61C69.2533 136.486 69.523 136.254 69.7456 135.942C70.5845 134.752 70.6059 132.346 69.6685 129.872C68.8552 127.723 67.5369 126.084 66.2741 125.472C65.7048 125.194 65.1484 125.125 64.6518 125.314C63.0595 125.917 62.7256 128.931 63.907 132.051C65.0884 135.171 67.3357 137.209 68.9237 136.61Z"
    fill="#151515"
  />
  <path
    d="M197.102 73.143C196.336 71.3538 195.51 69.7101 194.637 68.1991C189.778 59.8009 183.49 55.5076 178.731 53.3374C176.214 52.1902 173.906 51.5182 172.053 51.1201L169.754 51.942C171.711 52.2074 174.805 52.858 178.285 54.4503C178.448 54.5274 178.615 54.6044 178.786 54.6857C178.838 54.7114 178.889 54.7371 178.94 54.7628C179.06 54.8184 179.176 54.8784 179.296 54.9383C179.36 54.9682 179.424 55.0068 179.488 55.0367C179.595 55.0924 179.706 55.148 179.813 55.2037C179.882 55.2379 179.95 55.2764 180.019 55.315C180.126 55.3749 180.233 55.4305 180.344 55.4905C180.421 55.5333 180.498 55.5761 180.571 55.6189C180.674 55.6745 180.777 55.7344 180.879 55.7901C180.965 55.8415 181.051 55.8928 181.14 55.9442C181.235 55.9998 181.329 56.0555 181.423 56.1111C181.509 56.1625 181.594 56.2181 181.68 56.2695C181.778 56.3294 181.872 56.3894 181.971 56.4493C182.056 56.5006 182.142 56.5606 182.228 56.6119C182.33 56.6761 182.429 56.7404 182.532 56.8088C182.617 56.8645 182.699 56.9244 182.784 56.9801C182.887 57.0485 182.99 57.117 183.092 57.1898C183.178 57.2497 183.264 57.3097 183.349 57.3739C183.452 57.4466 183.555 57.5194 183.657 57.5922C183.747 57.6564 183.833 57.7206 183.923 57.7891C184.025 57.8661 184.124 57.9389 184.227 58.0159C184.317 58.0844 184.406 58.1572 184.496 58.2257C184.599 58.3027 184.697 58.3798 184.8 58.4611C184.89 58.5339 184.984 58.6109 185.074 58.6837C185.173 58.765 185.275 58.8421 185.374 58.9277C185.464 59.0047 185.558 59.0818 185.648 59.1631C185.746 59.2487 185.849 59.33 185.947 59.4199C186.037 59.5012 186.131 59.5826 186.221 59.6639C186.32 59.7538 186.423 59.8394 186.521 59.9336C186.615 60.0192 186.705 60.1048 186.799 60.1904C186.898 60.2846 186.996 60.3745 187.099 60.4686C187.189 60.5542 187.283 60.6484 187.373 60.734C187.471 60.8325 187.574 60.9266 187.672 61.0294C187.762 61.1192 187.852 61.2134 187.946 61.3076C188.045 61.4103 188.148 61.5088 188.246 61.6158C188.336 61.71 188.43 61.8084 188.52 61.9069C188.618 62.0139 188.717 62.1166 188.815 62.2279C188.905 62.3263 188.995 62.4291 189.085 62.5318C189.183 62.6431 189.282 62.7501 189.38 62.8614C189.47 62.9641 189.56 63.0754 189.65 63.1824C189.748 63.298 189.843 63.4093 189.941 63.5249C190.031 63.6319 190.121 63.7474 190.211 63.8587C190.305 63.9786 190.403 64.0942 190.498 64.2183C190.587 64.3339 190.677 64.4494 190.763 64.565C190.857 64.6891 190.951 64.809 191.045 64.9374C191.135 65.0573 191.221 65.1771 191.311 65.297C191.405 65.4254 191.499 65.5495 191.589 65.6822C191.675 65.8063 191.765 65.9305 191.85 66.0589C191.94 66.1916 192.034 66.3243 192.124 66.457C192.21 66.5854 192.295 66.7138 192.381 66.8465C192.471 66.9835 192.565 67.1204 192.655 67.2617C192.74 67.3944 192.822 67.5314 192.907 67.6641C192.997 67.8053 193.087 67.9509 193.173 68.0964C193.254 68.2334 193.34 68.3746 193.421 68.5159C193.507 68.6614 193.597 68.8112 193.682 68.961C193.763 69.1023 193.845 69.2521 193.926 69.3934C194.012 69.5475 194.097 69.6973 194.183 69.8557C194.264 70.0055 194.341 70.1553 194.423 70.3094C194.504 70.4678 194.59 70.6219 194.671 70.7802C194.748 70.9343 194.829 71.0927 194.906 71.2511C194.988 71.4137 195.069 71.5764 195.146 71.7391C195.223 71.8974 195.296 72.0601 195.373 72.2227C195.433 72.3554 195.497 72.4838 195.557 72.6208L156.798 88.9208C156.78 88.8823 156.759 88.8395 156.742 88.8009C156.678 88.664 156.609 88.527 156.545 88.39C156.464 88.2145 156.378 88.039 156.292 87.8635C156.194 87.6623 156.091 87.4612 155.993 87.2557C155.907 87.0802 155.817 86.909 155.727 86.7335C155.62 86.528 155.513 86.3225 155.402 86.1171C155.312 85.9459 155.222 85.7747 155.128 85.6034C155.013 85.3937 154.897 85.1839 154.777 84.9742C154.683 84.8073 154.589 84.6361 154.49 84.4691C154.366 84.2551 154.238 84.0368 154.109 83.8228C154.011 83.6601 153.917 83.4975 153.818 83.3348C153.681 83.1079 153.54 82.8854 153.395 82.6585C153.3 82.5044 153.206 82.3546 153.108 82.2005C152.945 81.9479 152.778 81.6997 152.616 81.4471C152.53 81.3187 152.449 81.1903 152.363 81.0619C152.106 80.6852 151.845 80.3042 151.58 79.9276C144.166 69.5004 137.72 66.4741 134.115 65.5795L132.069 66.5255C132.288 66.5511 132.54 66.564 132.831 66.5939C133.148 66.6282 133.508 66.6838 133.923 66.7994C137.356 67.754 143.635 70.8145 150.604 80.621C152.74 83.6259 154.448 86.6521 155.804 89.6271C155.924 89.8882 156.036 90.1493 156.151 90.4104C159.456 97.9739 160.5 105.148 160.479 110.738C160.462 114.244 160.029 117.125 159.473 119.085C157.88 124.671 154.837 128.365 152.265 130.219L155.483 128.93C155.642 128.755 155.796 128.562 155.954 128.374C156.078 128.224 156.207 128.078 156.331 127.924C156.476 127.744 156.613 127.548 156.75 127.359C156.866 127.201 156.99 127.047 157.101 126.884C157.238 126.687 157.371 126.477 157.504 126.272C157.611 126.105 157.726 125.942 157.829 125.771C157.962 125.557 158.086 125.335 158.21 125.112C158.309 124.941 158.411 124.774 158.505 124.598C158.63 124.367 158.749 124.123 158.865 123.888C158.951 123.712 159.045 123.545 159.126 123.37C159.246 123.117 159.357 122.852 159.469 122.591C159.541 122.424 159.618 122.257 159.691 122.09C159.811 121.799 159.918 121.499 160.025 121.204C160.076 121.058 160.136 120.917 160.188 120.767C160.342 120.322 160.487 119.868 160.616 119.41C160.663 119.248 160.71 119.077 160.753 118.905C160.765 118.845 160.783 118.785 160.795 118.726C160.825 118.606 160.855 118.486 160.881 118.362C160.898 118.289 160.911 118.216 160.928 118.139C160.954 118.019 160.98 117.904 161.005 117.784C161.022 117.703 161.035 117.613 161.052 117.531C161.074 117.411 161.099 117.296 161.121 117.172C161.138 117.078 161.151 116.979 161.168 116.885C161.189 116.765 161.206 116.65 161.228 116.53C161.245 116.427 161.258 116.32 161.275 116.213C161.292 116.093 161.309 115.973 161.326 115.849C161.339 115.742 161.352 115.635 161.365 115.528C161.382 115.4 161.399 115.271 161.412 115.143C161.425 115.032 161.433 114.92 161.446 114.809C161.459 114.676 161.476 114.544 161.489 114.407C161.497 114.291 161.51 114.171 161.519 114.056C161.532 113.919 161.545 113.782 161.553 113.64C161.562 113.521 161.57 113.396 161.574 113.277C161.583 113.131 161.592 112.99 161.6 112.844C161.609 112.716 161.613 112.587 161.617 112.459C161.622 112.313 161.63 112.168 161.634 112.022C161.634 111.89 161.639 111.757 161.643 111.62C161.643 111.47 161.652 111.32 161.652 111.171C161.652 111.034 161.652 110.897 161.652 110.76C161.652 110.606 161.652 110.451 161.652 110.293C161.652 110.152 161.652 110.006 161.643 109.865C161.643 109.707 161.643 109.553 161.634 109.394C161.634 109.249 161.626 109.099 161.617 108.949C161.613 108.791 161.609 108.632 161.6 108.474C161.592 108.324 161.583 108.166 161.574 108.016C161.566 107.853 161.557 107.695 161.549 107.528C161.54 107.374 161.527 107.215 161.515 107.061C161.502 106.894 161.489 106.727 161.476 106.561C161.463 106.402 161.446 106.244 161.433 106.085C161.416 105.914 161.403 105.743 161.382 105.572C161.365 105.409 161.343 105.246 161.326 105.088C161.305 104.913 161.288 104.741 161.266 104.566C161.245 104.403 161.223 104.236 161.198 104.069C161.172 103.894 161.151 103.718 161.125 103.539C161.099 103.372 161.074 103.2 161.048 103.033C161.018 102.854 160.992 102.674 160.962 102.494C160.932 102.323 160.902 102.152 160.872 101.98C160.838 101.796 160.808 101.617 160.774 101.433C160.74 101.261 160.706 101.086 160.671 100.91C160.633 100.726 160.599 100.542 160.56 100.354C160.521 100.178 160.483 99.9986 160.444 99.8231C160.402 99.6348 160.363 99.4507 160.32 99.2624C160.278 99.0869 160.235 98.9071 160.192 98.7273C160.145 98.539 160.102 98.3463 160.051 98.1537C160.004 97.9739 159.956 97.7942 159.909 97.6101C159.858 97.4175 159.807 97.2291 159.755 97.0365C159.704 96.8525 159.648 96.6684 159.597 96.4843C159.541 96.2917 159.486 96.0991 159.426 95.9065C159.37 95.7224 159.31 95.5384 159.254 95.35C159.195 95.1574 159.135 94.9605 159.07 94.7636C159.011 94.5795 158.946 94.3912 158.882 94.2029C158.814 94.006 158.749 93.8091 158.681 93.6122C158.617 93.4238 158.544 93.2355 158.48 93.0514C158.407 92.8545 158.334 92.6533 158.261 92.4564C158.189 92.2681 158.116 92.0755 158.043 91.8871C157.966 91.6902 157.889 91.4891 157.808 91.2922C157.731 91.0995 157.649 90.9069 157.568 90.7143C157.508 90.5688 157.452 90.4275 157.388 90.282C157.363 90.2178 157.333 90.1536 157.307 90.0936L196.062 73.7937C196.096 73.875 196.131 73.9563 196.165 74.0377C196.366 74.5128 196.559 74.9879 196.743 75.463C200.047 83.8998 201.015 91.5404 200.835 97.4817C200.822 97.837 200.809 98.1837 200.788 98.5261C200.783 98.6331 200.775 98.7401 200.766 98.8472C200.753 99.0826 200.736 99.3137 200.719 99.5406C200.711 99.6604 200.698 99.776 200.689 99.8916C200.672 100.11 200.651 100.324 200.625 100.534C200.612 100.641 200.604 100.752 200.591 100.855C200.565 101.094 200.535 101.334 200.501 101.565C200.492 101.634 200.484 101.702 200.475 101.766C200.432 102.062 200.39 102.353 200.343 102.635C200.33 102.708 200.317 102.777 200.304 102.849C200.265 103.059 200.231 103.265 200.188 103.466C200.171 103.56 200.15 103.65 200.133 103.744C200.099 103.919 200.06 104.091 200.022 104.262C200 104.352 199.979 104.446 199.957 104.532C199.914 104.707 199.872 104.874 199.829 105.041C199.812 105.114 199.79 105.187 199.773 105.259C199.709 105.49 199.645 105.717 199.581 105.936C199.576 105.953 199.568 105.97 199.563 105.991C199.504 106.188 199.439 106.381 199.375 106.565C199.354 106.629 199.328 106.693 199.307 106.757C199.26 106.89 199.208 107.023 199.161 107.147C199.135 107.215 199.11 107.28 199.084 107.344C199.037 107.464 198.986 107.579 198.939 107.691C198.913 107.746 198.887 107.806 198.861 107.862C198.802 107.99 198.742 108.11 198.682 108.23C198.665 108.26 198.652 108.294 198.635 108.32C198.635 108.324 198.63 108.333 198.626 108.337C198.613 108.358 198.6 108.38 198.588 108.401C198.211 109.077 197.59 109.745 197.423 109.921C197.398 109.951 197.376 109.968 197.376 109.968L199.653 108.881C200.938 106.471 201.935 102.246 202.02 96.8653C202.123 90.2905 200.869 81.9907 197.094 73.1516L197.102 73.143Z"
    fill="#F3F3F3"
  />
</svg>
