<svg
  width="240"
  height="240"
  viewBox="0 0 240 240"
  fill="none"
  xmlns="http://www.w3.org/2000/svg"
  data-fui-pictogram="true"
>
  <path stroke="#000" stroke-opacity=".01" d="M0.5 0.5H239.5V239.5H0.5z" />
  <path
    d="M153.238 200.638L213.127 163.071L213.639 125.296C213.639 125.296 182.658 107.976 171.336 102.032C160.013 96.0937 147.121 89.4855 141.218 86.446C135.314 83.4064 114.312 72.3964 107.953 69.1486C101.594 65.9008 90.8005 60.1819 89.8889 59.7148C88.9772 59.2476 88.2287 59.3321 87.4803 59.7148C86.7318 60.0976 31.8577 88.7707 31.3231 89.0915C30.7885 89.418 30.6479 89.6263 30.5802 90.8646C30.5127 92.103 30.8392 126.63 30.8392 126.63L85.9159 159.547L153.243 200.643L153.238 200.638Z"
    fill="#151515"
  />
  <path
    d="M141.22 86.4462C135.317 83.4066 114.315 72.3967 107.956 69.1489C101.597 65.9011 90.8034 60.1822 89.8918 59.7151C88.9857 59.2423 88.2316 59.3322 87.4831 59.7151C86.7347 60.0978 31.8606 88.771 31.3259 89.0918C30.9658 89.3113 30.7858 89.4857 30.6844 89.9473C36.1262 93.0769 64.1627 109.192 70.0829 112.66C76.6502 116.504 153.674 161.777 153.674 161.777L212.004 126.557L213.63 125.808V125.302C213.63 125.302 182.656 107.982 171.339 102.038C160.016 96.0997 147.124 89.4915 141.22 86.4519V86.4462Z"
    fill="#C1FA81"
  />
  <path
    d="M213.498 135.435L213.515 134.242L154.162 170.705L154.296 162.189C157.307 160.389 187.572 142.275 194.174 138.217C199.396 135.002 209.075 129.081 213.628 126.294L213.639 125.298C213.639 125.298 213.577 125.264 213.476 125.208C209.103 127.882 199.025 134.051 193.65 137.361C187.071 141.408 156.937 159.442 153.807 161.317C150.352 159.228 113.835 137.152 108.635 134.141C103.508 131.168 38.6678 93.8837 30.9187 89.4258C30.7556 89.6228 30.6655 89.8986 30.6149 90.4164C39.2532 95.381 103.047 132.069 108.128 135.014C113.323 138.025 149.947 160.163 153.295 162.189L153.16 170.734L95.2133 135.694L30.6036 98.6739C30.6036 99.0567 30.6036 99.445 30.6093 99.8447L94.7012 136.567L153.143 171.905L153.008 180.382L92.1688 143.716L30.6768 107.928C30.6768 108.316 30.6824 108.71 30.688 109.104L91.6567 144.588L152.991 181.553L152.856 190.305L90.2161 152.108L30.7556 117.187C30.7556 117.587 30.7612 117.981 30.7669 118.363L89.6984 152.975L152.839 191.476L152.698 200.313L153.25 200.652L153.711 200.364L153.847 191.667L213.257 154.444L213.274 153.245L153.869 190.463L154.004 181.868L213.391 144.706L213.408 143.507L154.026 180.663L154.162 171.91L213.515 135.447L213.498 135.435Z"
    fill="#B6B5B0"
  />
  <path
    d="M39.298 90.275L88.6684 64.6077C88.6684 64.6077 120.042 81.0662 124.797 83.5823C129.547 86.0984 157.848 100.39 166.121 104.724C174.387 109.058 183.752 114.09 187.921 116.466C192.091 118.841 202.762 125.157 204.714 126.299C200.589 128.838 162.04 152.463 154.735 156.869C146.593 151.978 125.923 139.398 119.417 135.727C112.912 132.057 81.1556 114.237 76.1189 111.372C71.0879 108.507 39.2924 90.2806 39.2924 90.2806L39.298 90.275Z"
    fill="#151515"
  />
  <path
    d="M55.0044 85.4695C55.0044 85.4695 75.4267 75 80.075 72.6809 80.075 72.6809 84.0031 75.0224 90.1539 75.7711 96.3048 76.5197 100.424 75.6135 102.174 74.9831 102.174 74.9831 122.54 85.7791 126.125 87.7155 123.238 90.4623 117.02 92.8883 117.02 92.8883 117.02 92.8883 113.503 92.0496 108.657 92.0496 103.812 92.0496 97.2672 92.9334 93.1422 96.1756 89.0172 99.4178 88.6008 101.816 88.6008 104.073 88.6008 106.33 90.0189 109.009 90.0189 109.009L83.868 112.038C83.868 112.038 72.5004 105.446 67.8408 102.857 63.1813 100.273 56.3326 96.2374 56.3326 96.2374 56.3326 96.2374 58.2177 94.1154 58.2177 91.2729 58.2177 88.7792 56.2481 86.7305 54.9988 85.4583L55.0044 85.4695zM145.665 107.055C147.083 108.012 148.462 110.736 148.462 113.461 148.462 116.185 146.785 121.009 139.565 123.733 132.344 126.458 122.119 125.9 116.992 124.386 113.38 126.272 111.843 127.229 111.843 127.229 111.843 127.229 118.692 131.259 123.07 133.871 127.448 136.482 141.635 144.892 141.635 144.892 141.635 144.892 145.012 143.423 150.881 143.423 156.75 143.423 161.759 145.494 164.275 147.126 167.956 144.841 188.85 132.216 188.85 132.216 188.85 132.216 185.334 129.492 185.334 124.994 185.334 121.78 187.478 119.844 187.478 119.844 187.478 119.844 176.413 113.692 170.263 110.314 164.112 106.937 154.606 102.091 154.606 102.091L145.665 107.055z"
    fill="#C1FA81"
  />
  <path
    d="M150.291 91.1138C150.516 91.2321 150.747 91.3502 150.977 91.4684M143.385 87.5627C144.01 87.8836 144.674 88.227 145.383 88.5872 144.674 88.2213 144.01 87.8836 143.385 87.5627zM140.263 85.9534C140.364 86.0096 140.477 86.0603 140.572 86.111 140.477 86.0603 140.364 86.004 140.263 85.9534zM152.901 92.4597C153.227 92.6287 153.553 92.7975 153.886 92.9663 153.553 92.7975 153.227 92.6229 152.901 92.4597zM149.021 90.4622C149.15 90.5298 149.279 90.5973 149.408 90.6592 149.279 90.5917 149.15 90.5242 149.021 90.4622zM139.547 85.5823C139.609 85.6164 139.673 85.6449 139.73 85.679 139.673 85.6506 139.604 85.6164 139.547 85.5823zM145.85 88.8279C146.092 88.9517 146.334 89.0754 146.581 89.205M147.077 89.4585C147.583 89.7174 148.1 89.9876 148.636 90.2577 148.1 89.982 147.583 89.7174 147.077 89.4585zM141.218 86.4456C141.488 86.5807 141.769 86.7327 142.068 86.8847 141.769 86.7327 141.488 86.5863 141.218 86.4456zM151.618 91.7944C151.86 91.9183 152.101 92.0421 152.344 92.166 152.101 92.0421 151.86 91.9127 151.618 91.7944z"
    stroke="#25346A"
    stroke-width=".044"
    stroke-miterlimit="10"
  />
  <path
    d="M81.0333 117.428C82.097 116.781 101.681 105.214 106.836 102.332C111.99 99.4498 126.836 90.9559 130.089 89.0365C132.447 87.6406 135.964 85.6367 137.719 84.6405C137.758 84.6573 137.792 84.6798 137.826 84.6967C136.729 84.1226 135.497 83.4809 134.157 82.7886C130.973 84.601 114.709 93.8661 105.474 99.174C95.2035 105.079 78.8161 114.586 77.6794 115.25C77.0997 115.588 76.7846 115.818 76.6157 116.072L80.1499 118.149C80.2568 117.952 80.4932 117.76 81.0333 117.434V117.428Z"
    fill="#F3EEE5"
  />
  <path
    d="M100.598 130.922C100.598 131.541 100.553 162.955 100.547 168.483L85.9042 159.544 104.419 170.847C104.402 164.588 104.318 134.103 104.318 133.319 104.318 132.943 104.385 132.673 104.509 132.447L100.75 130.241C100.632 130.393 100.598 130.584 100.598 130.927V130.922zM80.1504 118.144L76.6162 116.067C76.453 116.309 76.4249 116.562 76.4249 116.956 76.4249 117.699 76.408 149.271 76.408 153.858L80.1897 156.121C80.1728 151.505 80.0771 119.528 80.0771 118.875 80.0771 118.532 80.0547 118.329 80.156 118.138L80.1504 118.144z"
    fill="#DED8CD"
  />
  <path
    d="M154.241 93.1519C154.533 93.3038 154.826 93.4558 155.125 93.6078"
    stroke="#25346A"
    stroke-width=".044"
    stroke-miterlimit="10"
  />
  <path
    d="M157.178 94.6729C157.933 95.0612 158.698 95.4552 159.469 95.8549C157.178 97.1946 143.482 105.221 136.069 109.527C127.966 114.233 102.034 129.419 101.387 129.785C101.066 129.965 100.869 130.084 100.751 130.236L104.51 132.442C104.679 132.143 104.949 131.924 105.349 131.677C106.047 131.244 125.175 120.07 133.981 114.689C142.373 109.561 161.162 98.6692 162.924 97.6504C160.983 96.6429 159.052 95.6409 157.178 94.6729Z"
    fill="#F3EEE5"
  />
  <path
    d="M138.555 85.0747C138.662 85.131 138.769 85.1873 138.871 85.2379 138.769 85.1816 138.662 85.131 138.555 85.0747zM155.902 94.0076C156.155 94.137 156.402 94.2665 156.655 94.3959M138.873 85.238C139.102 85.3562 139.328 85.4744 139.542 85.5869 139.328 85.4744 139.102 85.3618 138.873 85.238zM139.726 85.6746C139.912 85.7703 140.087 85.8604 140.26 85.9503 140.087 85.8604 139.917 85.7703 139.726 85.6746zM137.83 84.6902C138.084 84.8196 138.327 84.9491 138.563 85.0729 138.327 84.9491 138.084 84.8252 137.83 84.6902zM80.188 156.122L85.9056 159.544M140.57 86.1167C140.801 86.2349 141.021 86.3475 141.218 86.4489M142.064 86.8857C142.474 87.0997 142.925 87.3248 143.386 87.5669 142.919 87.3305 142.479 87.0997 142.064 86.8857zM152.345 92.1733C152.53 92.269 152.716 92.3648 152.908 92.4603 152.722 92.3648 152.53 92.269 152.345 92.1733zM153.887 92.9712C154.004 93.0331 154.123 93.095 154.241 93.1513 154.123 93.0894 154.004 93.0275 153.887 92.9712zM155.125 93.6077C155.384 93.7428 155.642 93.8722 155.902 94.0073 155.642 93.8722 155.384 93.7372 155.125 93.6077zM156.654 94.396C156.829 94.4861 157.009 94.5762 157.182 94.6661M149.407 90.6582C149.699 90.8102 149.992 90.9566 150.291 91.1142 149.992 90.9622 149.699 90.8102 149.407 90.6582zM148.636 90.2622C148.765 90.3297 148.888 90.3916 149.019 90.4592M146.579 89.2046C146.742 89.2891 146.912 89.3735 147.075 89.4579 146.905 89.3735 146.742 89.2891 146.579 89.2046zM145.383 88.5933C145.535 88.672 145.692 88.7509 145.85 88.8296 145.692 88.7509 145.541 88.672 145.383 88.5933zM150.976 91.4678C151.19 91.5747 151.404 91.6874 151.618 91.7999 151.404 91.6874 151.19 91.5803 150.976 91.4678z"
    stroke="#25346A"
    stroke-width=".044"
    stroke-miterlimit="10"
  />
  <path
    d="M100.598 130.92C100.598 130.577 100.632 130.386 100.75 130.234L80.1479 118.143C80.0466 118.334 80.069 118.537 80.069 118.88C80.069 119.528 80.1703 151.505 80.1816 156.126L85.8991 159.543L100.542 168.482C100.548 162.953 100.593 131.546 100.593 130.92H100.598Z"
    fill="#354B98"
  />
  <path
    d="M130.086 89.0364C126.839 90.956 111.988 99.4497 106.833 102.332C101.679 105.214 82.0948 116.781 81.0311 117.428C80.491 117.755 80.2545 117.946 80.1477 118.143L100.75 130.234C100.868 130.082 101.06 129.969 101.386 129.783C102.033 129.418 127.965 114.231 136.068 109.525C143.48 105.219 157.177 97.1927 159.468 95.853C158.697 95.4533 157.937 95.0593 157.177 94.671C157.002 94.5809 156.823 94.4908 156.648 94.4007C156.395 94.2713 156.147 94.1418 155.894 94.0124C155.635 93.8772 155.377 93.7422 155.118 93.6127C154.819 93.4607 154.527 93.3087 154.234 93.1567C154.115 93.0948 153.998 93.0329 153.879 92.9767C153.547 92.8078 153.221 92.6333 152.895 92.4701C152.709 92.3743 152.517 92.2786 152.332 92.1829C152.09 92.0592 151.849 91.9296 151.606 91.8115C151.392 91.6989 151.179 91.592 150.965 91.4794C150.734 91.3611 150.503 91.243 150.278 91.1248C149.98 90.9728 149.686 90.8208 149.394 90.6688C149.265 90.6013 149.135 90.5337 149.006 90.4718C148.877 90.4043 148.753 90.3424 148.624 90.2748C148.088 89.999 147.571 89.7345 147.065 89.4756C146.901 89.3911 146.733 89.301 146.57 89.2222C146.322 89.0927 146.08 88.9689 145.837 88.8452C145.681 88.7663 145.523 88.6818 145.371 88.6087C144.662 88.2428 143.997 87.905 143.373 87.5842C142.911 87.3479 142.462 87.1171 142.051 86.9032C141.758 86.7512 141.471 86.6048 141.201 86.4641C141.003 86.3627 140.784 86.2502 140.553 86.132C140.458 86.0814 140.345 86.0251 140.244 85.9744C140.075 85.8843 139.895 85.7942 139.71 85.6987C139.653 85.6705 139.585 85.6366 139.529 85.603C139.315 85.4903 139.091 85.3777 138.86 85.2539C138.759 85.1977 138.652 85.147 138.545 85.0907C138.309 84.9668 138.066 84.843 137.812 84.7079C137.773 84.691 137.739 84.6686 137.707 84.6516C135.95 85.648 132.433 87.6575 130.075 89.0477L130.086 89.0364Z"
    fill="#6196C1"
  />
</svg>
