<svg
  width="240"
  height="240"
  viewBox="0 0 240 240"
  fill="none"
  xmlns="http://www.w3.org/2000/svg"
  data-fui-pictogram="true"
>
  <path stroke="#000" stroke-opacity=".01" d="M0.5 0.5H239.5V239.5H0.5z" />
  <path
    d="M215.052 120.942C214.886 119.63 214.533 118.425 213.964 117.252C212.737 114.713 210.517 112.239 206.834 108.131L205.537 106.685L203.829 104.762C203.372 104.242 202.901 103.712 202.407 103.144C199.647 99.979 194.169 93.4608 186.124 83.7721L176.975 72.7228C172.896 67.7847 168.907 62.9483 165.461 58.7546L160.059 52.1829C155.727 46.9074 154.784 45.7613 154.543 45.4399L154.613 45.547C154.474 45.3757 154.263 45.2739 154.038 45.2739C153.943 45.2739 153.852 45.29 153.76 45.3275L32.4041 94.9498C32.2057 95.0301 32.0503 95.1962 31.9806 95.3997C31.8038 95.9407 31.3267 96.3263 30.7639 96.4012C30.7157 96.4066 30.6621 96.4227 30.6085 96.4387C30.319 96.5458 30.1208 96.8244 30.1208 97.1296L30.0886 113.808C30.0886 113.969 30.1422 114.124 30.2333 114.252C30.512 114.622 30.5977 115.093 30.4745 115.538C30.3512 115.982 30.0296 116.341 29.6008 116.513L21.995 119.576C21.7752 119.667 21.6091 119.855 21.5446 120.139C21.4214 120.856 20.7997 121.365 20.0867 121.365C20.0385 121.365 19.9849 121.365 19.9367 121.36C19.7705 121.344 19.6258 121.338 19.5133 121.338C19.3203 121.338 19.197 121.349 19.1863 121.354C18.929 121.403 18.6664 121.59 18.5752 121.788C18.5323 121.885 17.5085 124.145 17.5085 125.896V133.265C17.5085 138.456 17.7605 140.448 19.5293 144.561C21.3249 148.733 24.0639 151.326 29.9385 155.927C33.3636 158.61 48.0285 170.88 59.8099 180.74L59.9278 180.837C68.1661 187.73 75.9435 194.243 77.9481 195.855C78.5592 196.347 79.122 196.808 79.6526 197.237C83.3456 200.247 85.3824 201.902 87.9982 201.902C90.6138 201.902 92.6077 200.707 93.1759 200.343C93.2188 200.317 93.2616 200.289 93.3045 200.268C93.4922 200.171 112.016 190.703 123.106 185.164C128.794 182.325 149.912 171.694 170.339 161.417L172.214 160.474C190.535 151.257 209.477 141.723 211.203 140.871C215.164 138.916 215.164 135.515 215.164 132.227V122.961C215.164 122.254 215.127 121.601 215.046 120.937L215.052 120.942Z"
    fill="#F3F3F3"
  />
  <path
    d="M32.6858 95.6317L154.041 46.02C154.041 46.02 192.334 92.7287 201.853 103.639C211.373 114.543 214.434 116.584 214.434 122.968V132.233C214.434 135.559 214.39 138.484 210.884 140.215C207.38 141.944 134.097 178.857 122.782 184.507C111.467 190.158 92.8627 199.67 92.8627 199.67C92.8627 199.67 90.6972 201.164 88.0065 201.164C85.3158 201.164 83.2146 199.134 78.4228 195.278C73.6309 191.421 36.2609 159.929 30.4025 155.34C24.5439 150.749 21.9497 148.29 20.2184 144.264C18.487 140.241 18.2566 138.275 18.2566 133.257V125.887C18.2566 124.28 19.2536 122.084 19.2536 122.084C19.2536 122.084 21.5852 121.72 24.4796 124.645C27.3739 127.568 40.6508 140.605 46.075 145.559C51.4994 150.513 82.9787 180.609 82.9787 180.609L82.3141 178.482C82.3141 178.482 74.0275 170.4 67.3705 163.818C60.7133 157.236 29.2982 127.274 26.1358 124.179C22.9735 121.088 22.2767 120.253 22.2767 120.253L31.0295 116.729C31.0295 116.729 65.875 153.208 72.2266 160.191C78.5836 167.176 82.2445 172.264 84.1097 176.088C85.975 179.912 86.5378 181.374 86.5378 183.168C86.5378 184.962 85.3747 185.729 85.3747 185.729C85.3747 185.729 78.6532 179.645 74.2259 175.253C69.7985 170.861 29.8664 133.22 28.3656 131.955C26.8648 130.692 24.7904 130.493 23.6756 131.206C22.5607 131.918 22.0622 133 22.0622 135.061V137.686C22.0622 139.367 22.9252 142.025 23.7935 143.524C24.6565 145.018 27.0739 147.284 30.0486 149.806C33.0288 152.334 82.0301 193.333 83.6273 194.716C85.2246 196.098 88.3388 197.276 90.3649 196.082C92.3963 194.882 94.4492 192.782 94.4492 188.086V183.12C94.4492 181.122 94.5403 177.314 91.8335 173.233C89.1268 169.153 82.8126 160.819 78.187 154.702C73.5613 148.586 58.0547 128.163 54.8602 124.109C51.6655 120.055 32.6858 95.6209 32.6858 95.6209V95.6317Z"
    fill="#B6B5B0"
  />
  <path
    d="M201.853 103.639C192.335 92.734 154.042 46.02 154.042 46.02L32.6863 95.6317C32.6863 95.6317 51.6661 120.06 54.8607 124.12C58.0552 128.175 73.5618 148.596 78.1875 154.712C82.8131 160.829 89.1273 169.168 91.8341 173.244C92.8042 174.711 93.4152 176.136 93.7958 177.464L101.503 173.956L102.479 174.176L136.868 158.569L138.353 156.394L147.305 152.313H148.447L202.401 127.927L207.669 123.846L214.311 121.029C213.683 116.032 210.334 113.36 201.844 103.628L201.853 103.639Z"
    fill="#F3F3F3"
  />
  <path
    d="M30.8672 97.1348L30.8351 113.813C30.8351 113.813 69.336 153.65 77.3279 163.184C85.3143 172.717 87.6673 178.791 88.064 181.185C88.4659 183.579 88.5517 186.106 87.1099 187.017C85.668 187.928 84.5799 187.237 83.1381 185.754C81.6963 184.27 74.085 176.729 70.9334 173.762C67.7816 170.794 59.42 162.985 56.0486 159.708C52.6771 156.43 44.7551 149.242 42.1179 146.586C39.4808 143.929 29.0074 134.085 27.3189 132.907C25.6305 131.734 23.4382 131.954 23.4382 135.477C23.4382 139.002 23.658 140.796 25.459 143.436C27.2546 146.078 31.1621 148.98 35.0427 152.102C38.9234 155.225 49.9275 164.603 54.2316 168.105C58.5357 171.609 70.6278 181.828 75.066 185.641C79.504 189.455 83.4276 192.892 85.1159 193.975C86.8043 195.057 89.6667 195.416 91.0388 193.819C92.4109 192.223 92.77 190.563 92.77 187.832V182.048C92.77 179.32 92.1268 176.616 89.9078 173.468C87.6888 170.318 81.6534 162.183 79.504 159.103C77.3546 156.023 71.3407 148.129 69.0306 145.091C66.7204 142.055 60.7547 134.031 58.1015 130.705C55.4482 127.379 48.0621 118.135 45.9129 115.318C43.7635 112.501 30.8726 97.1348 30.8726 97.1348H30.8672Z"
    fill="#151515"
  />
  <path d="M47.1892 100.162L61.3718 117.933L166.428 73.2597L152.401 56.3833L47.1892 100.162Z" fill="#151515" />
  <path d="M103.943 108.325L124.043 134.429L86.6732 151.52L66.4392 124.452L103.943 108.325Z" fill="#FA4616" />
  <path
    d="M193.27 106.471L134.283 133.186L138.057 138.081L196.899 110.89C195.709 109.444 194.471 107.939 193.27 106.471Z"
    fill="#3C3C3C"
  />
  <path
    d="M126.93 123.643L130.568 128.367L189.502 101.866C188.184 100.243 187.068 98.8667 186.346 97.9508C186.184 97.7473 186.002 97.5223 185.815 97.2866L126.923 123.643H126.93Z"
    fill="#3C3C3C"
  />
  <path
    d="M200.695 115.485L141.778 142.901L145.444 147.663L204.292 119.839C204.292 119.839 202.818 118.056 200.695 115.485Z"
    fill="#3C3C3C"
  />
  <path
    d="M174.841 83.7847C172.675 81.1389 171.105 79.2268 171.105 79.2268L112.392 104.774L115.967 109.413L174.847 83.7793L174.841 83.7847Z"
    fill="#3C3C3C"
  />
  <path
    d="M178.445 88.1919L119.688 114.248L123.204 118.812L182.079 92.6533C180.916 91.218 179.666 89.6862 178.439 88.1865L178.445 88.1919Z"
    fill="#3C3C3C"
  />
  <path d="M127.304 138.949L130.601 143.207L93.3274 160.662L90.0364 156.174L127.304 138.949Z" fill="#3C3C3C" />
  <path d="M133.576 147.711L136.873 151.969L99.5989 169.43L96.3025 164.941L133.576 147.711Z" fill="#3C3C3C" />
  <path
    d="M101.509 185.411V187.736L138.337 169.874V168.256C138.337 168.063 138.337 167.85 138.337 167.619L101.509 185.411Z"
    fill="#3C3C3C"
  />
  <path
    d="M101.509 180.007V182.466L138.365 164.78C138.37 164.047 138.381 163.264 138.386 162.472L101.509 180.007Z"
    fill="#3C3C3C"
  />
  <path d="M101.509 189.927V192.552L138.337 174.106V172.21L101.509 189.927Z" fill="#3C3C3C" />
  <path
    d="M138.391 159.436C138.391 158.355 138.381 157.316 138.36 156.4L101.509 173.956V176.769L138.391 159.436Z"
    fill="#3C3C3C"
  />
  <path
    d="M147.335 160.282L207.678 131.258V129.442L147.329 158.097C147.329 158.82 147.329 159.553 147.329 160.287L147.335 160.282Z"
    fill="#3C3C3C"
  />
  <path
    d="M207.678 133.852L147.34 162.859C147.34 163.626 147.34 164.359 147.34 165.045L207.678 135.62V133.847V133.852Z"
    fill="#3C3C3C"
  />
  <path
    d="M147.34 167.416C147.34 168.654 147.34 169.43 147.34 169.43L207.672 139.581V137.867L147.335 167.416H147.34Z"
    fill="#3C3C3C"
  />
  <path
    d="M207.678 126.668V123.851L147.308 152.317C147.313 153.115 147.319 154.101 147.324 155.193L207.678 126.668Z"
    fill="#3C3C3C"
  />
</svg>
