<svg
  width="240"
  height="240"
  viewBox="0 0 240 240"
  fill="none"
  xmlns="http://www.w3.org/2000/svg"
  data-fui-pictogram="true"
>
  <path stroke="#000" stroke-opacity=".01" d="M0.5 0.5H239.5V239.5H0.5z" />
  <path d="M186.89 100.78V125.77L185.88 125.43L183.56 124.66L183.27 110.25L186.89 100.78Z" fill="#222" />
  <path
    d="M185.98 125.43V127.62C185.98 127.62 185.13 127.7 183.66 127.74V124.66L185.98 125.43zM27.9504 121.82L27.9404 121.52C27.9404 121.62 27.9504 121.72 27.9604 121.82H27.9504z"
    fill="#222"
  />
  <path
    d="M183.66 112.48C184.16 111.29 185.48 107.88 186.62 102.59C186.88 101.37 186.97 100.12 186.9 98.87C186.37 89.48 183.96 80.91 173.55 70.74C164.46 61.85 150.66 55.04 133.23 51.55L107.9 97L183.65 112.47L183.66 112.48Z"
    fill="#C1FA81"
  />
  <path
    d="M121.7 149.41V171.57C82.84 176.31 53.64 162.21 42.82 151.44C32.75 141.42 28.64 133.45 27.95 121.82C27.95 121.72 27.93 121.62 27.93 121.52C27.9 121.13 27.89 120.73 27.87 120.33L27 102.08L29.9 104.57L31.92 116.66C33.51 119.63 35.55 122.64 38.18 125.47C48.55 136.67 65.71 145.36 84.08 148.73C91.58 150.1 99.79 150.71 106.88 150.71C113.1 150.71 118.46 150.24 121.7 149.41Z"
    fill="#222"
  />
  <path
    d="M133.24 51.55C123.26 49.68 110.76 48.61 98.66 49.13C64.64 50.58 42.99 68.29 34.37 78.98C29.43 85.12 27.61 93.53 27 102.07C27.91 107.86 30.56 117.62 38.27 125.86C48.56 136.86 65.63 145.4 83.91 148.72C97.67 151.22 114.62 151.03 121.69 149.4L107.9 97"
    fill="#354B98"
  />
  <path
    d="M107.91 97L115.59 125.97L128.58 128.45C128.58 128.45 170.87 128.41 183.65 128.13V112.48L107.9 97H107.91Z"
    fill="#90C15A"
  />
  <path
    d="M126.11 112.63L150.08 169.77C150.08 169.77 168.09 165.98 185.43 156.23C202.78 146.48 209.84 136.18 212.39 130.67L126.12 112.63H126.11Z"
    fill="#FA4616"
  />
  <path
    d="M126.11 112.63C126.05 112.96 126.05 112.92 126.05 113.31V140.15C126.05 140.15 148.81 189.92 149.47 191.26C149.63 191.59 149.66 191.75 150.08 191.82V169.76L126.11 112.62V112.63Z"
    fill="#B3300D"
  />
  <path
    d="M185.88 155.9C170.35 165.09 150.08 169.77 150.08 169.77V191.83C150.45 191.86 150.84 191.83 151.22 191.77C152.47 191.55 178.13 186.11 195.04 171.59C210.44 158.37 213.06 151.17 213.06 151.17L212.44 130.7C207.97 138.83 201.4 146.71 185.87 155.9H185.88Z"
    fill="#222"
  />
</svg>
