<svg
  width="240"
  height="240"
  viewBox="0 0 240 240"
  fill="none"
  xmlns="http://www.w3.org/2000/svg"
  data-fui-pictogram="true"
>
  <path stroke="#000" stroke-opacity=".01" d="M0.5 0.5H239.5V239.5H0.5z" />
  <path
    d="M76.5359 178.904V194.998C76.7345 195.01 76.9352 194.975 77.123 194.894L93.8061 187.733L76.5359 178.904Z"
    fill="#151515"
  />
  <path
    d="M36.7816 65.8042C36.8743 66.4603 49.2188 108.089 49.2188 108.089L73.1675 84.9653L37.1312 64.5155C36.8852 64.8522 36.7146 65.3379 36.7816 65.802V65.8042Z"
    fill="#151515"
  />
  <path
    d="M156.482 175.789V181.206C156.482 181.454 156.618 181.683 156.836 181.802L170.609 189.301L171.054 189.048L171.17 169.783C171.17 169.783 165.679 170.347 165.609 170.394C165.537 170.442 156.48 175.79 156.48 175.79L156.482 175.789Z"
    fill="#9E9B93"
  />
  <path
    d="M112.297 210.847L112.813 191.534L94.1804 186.795V203.713L110.833 212.949L110.946 212.826L112.297 210.847Z"
    fill="#9E9B93"
  />
  <path
    d="M62.1272 171.54V187.215L75.974 194.84C76.1489 194.936 76.3409 194.988 76.5352 194.998V178.905L62.1272 171.54Z"
    fill="#9E9B93"
  />
  <path
    d="M46.7028 60.7198C46.4848 60.5968 46.2236 60.5774 45.9905 60.6724C44.3566 61.3286 37.814 63.9598 37.4644 64.1864C37.3478 64.262 37.2355 64.3785 37.1341 64.5188L73.1704 84.9686L79.1646 79.1816L46.7028 60.722V60.7198Z"
    fill="#9E9B93"
  />
  <path
    d="M179.878 76.5977C169.46 80.7744 119.9 104.358 119.9 104.358L96.6446 90.9583C96.6446 90.9583 95.8697 91.3641 96.0575 92.2729C96.2453 93.1815 110.731 139.486 110.731 139.486L120.274 104.943C120.274 104.943 128.143 101.393 128.69 101.205C129.238 101.017 129.519 101.611 129.471 102.925C129.423 104.24 124.122 129.574 123.652 131.498C123.183 133.42 122.245 134.853 120.647 135.697C119.052 136.542 110.744 139.829 110.744 139.829V212.759C110.744 212.94 110.93 213.065 111.098 212.994L135.17 202.743C135.299 202.689 135.383 202.562 135.381 202.421L135.107 186.172C135.105 186.034 135.185 185.909 135.31 185.855L170.008 170.346C170.235 170.245 170.489 170.411 170.489 170.659V189.043C170.489 189.289 170.74 189.455 170.967 189.358L193.747 179.609C193.872 179.555 193.954 179.432 193.954 179.293V156.851C198.179 153.754 206.439 142.959 210.193 131.977C216.388 113.204 214.089 99.6873 210.193 90.4877C208.348 86.1297 205.417 82.2984 201.117 78.3914C194.792 73.8111 187.592 73.5025 179.875 76.5956L179.878 76.5977Z"
    fill="#151515"
  />
  <path
    d="M153.752 52.8505L134.667 53.7269L113.14 56.2934C113.14 56.2934 109.011 57.4827 102.315 60.4442C95.6194 63.4079 79.8493 72.4369 76.1583 77.6302C66.9587 81.0709 54.7566 93.7738 49.5956 105.79C44.4325 117.804 44.1044 128.036 44.1044 128.036L44.0116 128.504L57.4332 167.832C57.4332 167.832 62.7669 173.902 74.9084 181.191C87.0479 188.481 103.615 192.579 110.748 193.018V139.828C110.748 139.828 119.056 136.541 120.652 135.696C122.247 134.852 123.186 133.419 123.656 131.496C124.125 129.573 129.428 104.238 129.475 102.924C129.523 101.609 129.241 101.016 128.694 101.203C128.146 101.391 120.278 104.942 120.278 104.942L110.735 139.484C110.735 139.484 96.2497 93.178 96.0618 92.2715C95.8741 91.3649 96.6489 90.9569 96.6489 90.9569L119.905 104.357C119.905 104.357 169.464 80.773 179.883 76.5963C187.6 73.5031 194.801 73.8119 201.125 78.3922C196.349 74.0515 189.886 69.6136 181.338 64.254C165.099 54.0701 153.759 52.8505 153.759 52.8505H153.752Z"
    fill="#B6B5B0"
  />
  <path
    d="M105.044 87.3729L96.6434 90.9582L119.899 104.358C119.899 104.358 123.338 102.722 128.592 100.235L105.821 87.416C105.584 87.2823 105.297 87.2671 105.044 87.3729Z"
    fill="#F3F3F3"
  />
  <path
    d="M48.0154 172.03C54.4351 169.208 55.8014 158.188 51.0673 147.414C46.3332 136.64 37.2913 130.192 30.8717 133.012C24.4521 135.833 23.0857 146.854 27.8198 157.629C32.5539 168.403 41.5957 174.851 48.0154 172.03Z"
    fill="#B6B5B0"
  />
  <path
    d="M43.8234 127.728L31.6775 132.71V132.714C35.3016 131.584 39.6251 133.166 43.5126 136.651L53.4892 131.765C48.2656 127.316 43.8234 127.728 43.8234 127.728Z"
    fill="#F3F3F3"
  />
  <path
    d="M61.2341 142.303C59.9304 139.649 58.564 137.476 57.1912 135.699L47.1283 140.629C48.6176 142.611 49.9623 144.893 51.0675 147.412C55.6652 157.876 54.5082 168.571 48.555 171.764C48.555 171.764 57.6661 168.116 58.7929 167.552C59.9195 166.989 62.0479 165.707 62.7342 163.861C65.2058 157.479 65.1755 150.658 61.2319 142.304L61.2341 142.303Z"
    fill="#151515"
  />
  <path
    d="M53.4884 131.766L43.5117 136.652C44.7766 137.785 45.994 139.119 47.1273 140.629L57.1902 135.698C55.9447 134.084 54.695 132.794 53.4862 131.766H53.4884Z"
    fill="#B6B5B0"
  />
  <path
    d="M33.7317 142.093C32.8165 142.093 31.666 142.772 31.666 144.602V151.853C31.666 154.363 33.4338 156.147 34.8109 156.147C35.8276 156.147 36.6715 155.222 36.6715 154.065V146.696C36.6715 144.022 35.0289 142.09 33.7295 142.09L33.7317 142.093Z"
    fill="#151515"
  />
  <path
    d="M43.8773 148.943C42.9793 148.943 41.8505 149.609 41.8505 151.405V158.52C41.8505 160.983 43.5837 162.733 44.935 162.733C45.9322 162.733 46.7611 161.827 46.7611 160.692V153.463C46.7611 150.838 45.1487 148.943 43.8751 148.943H43.8773Z"
    fill="#151515"
  />
  <path
    d="M86.8581 133.759C89.8385 133.759 92.2544 130.525 92.2544 126.533C92.2544 122.542 89.8385 119.307 86.8581 119.307C83.8779 119.307 81.4618 122.542 81.4618 126.533C81.4618 130.525 83.8779 133.759 86.8581 133.759Z"
    fill="#151515"
  />
  <path
    d="M104.75 79.8152L116.438 86.3705C116.57 86.444 116.727 86.4526 116.863 86.3922L160.448 67.3152C160.809 67.1577 160.834 66.6548 160.493 66.4604L150.014 60.5095C149.886 60.4361 149.731 60.4274 149.595 60.4836L104.802 78.9583C104.433 79.1115 104.4 79.6231 104.75 79.8195V79.8152Z"
    fill="#151515"
  />
  <path
    d="M150.013 60.5076C149.885 60.4342 149.73 60.4255 149.594 60.4817L147.044 61.5329C146.529 62.9661 145.921 64.6303 145.867 64.6476L144.74 68.4013L146.898 70.3418L158.601 65.3858L150.011 60.5076H150.013Z"
    fill="#9E9B93"
  />
  <path
    d="M128.723 35.6739C121.684 42.3846 115.629 54.7292 116.145 65.4288C116.57 74.2464 121.82 77.9331 123.655 78.9584C124.594 79.4376 125.226 79.742 125.226 79.742L125.438 78.7555C125.438 78.7555 139.548 70.6827 139.799 70.5575C140.048 70.4323 151.484 41.9595 151.484 41.9595C151.484 41.9595 152.212 33.9945 150.784 33.0642C150.256 32.7189 149.306 31.9288 148.026 31.0308C142.246 28.2615 134.912 29.7682 128.72 35.6717L128.723 35.6739Z"
    fill="#F3F3F3"
  />
  <path
    d="M125.227 79.7419L146.903 70.3394C146.903 70.3394 154.067 61.3277 155.289 50.5654C156.509 39.803 153.285 31.1366 144.432 30.761C135.578 30.3855 123.891 40.7419 119.902 55.7609C117.04 66.7434 118.728 76.0983 125.23 79.7441L125.227 79.7419Z"
    fill="#E54116"
  />
  <path
    d="M112.578 52.475C110.784 58.9785 111.056 63.8654 112.043 67.3967L116.796 69.6955C116.455 68.4285 116.222 67.0125 116.146 65.4281C115.971 61.8191 116.548 58.0223 117.655 54.3183L112.68 52.1295C112.647 52.2439 112.61 52.3584 112.58 52.475H112.578Z"
    fill="#9E9B93"
  />
  <path
    d="M115.984 74.3415C117.423 75.6949 121.417 77.8189 123.655 78.9586C122.151 78.1168 118.349 75.4834 116.795 69.6964L112.042 67.3976C113.087 71.1361 114.93 73.3551 115.984 74.3415Z"
    fill="#151515"
  />
  <path
    d="M133.697 27.4118C125.414 29.5056 116.428 38.9187 112.677 52.1288L117.652 54.3176C119.826 47.0413 124.056 40.119 128.721 35.6725C132.037 32.5102 135.683 30.6107 139.24 29.9545L135.061 27.1441C134.612 27.2111 134.156 27.2973 133.697 27.4139V27.4118Z"
    fill="#B6B5B0"
  />
  <path
    d="M148.027 31.0328C145.102 28.9779 140.439 26.3554 135.061 27.1432L139.24 29.9536C142.324 29.3837 145.341 29.7463 148.027 31.0328Z"
    fill="#9E9B93"
  />
</svg>
