<svg
  width="240"
  height="240"
  viewBox="0 0 240 240"
  fill="none"
  xmlns="http://www.w3.org/2000/svg"
  data-fui-pictogram="true"
>
  <path stroke="#000" stroke-opacity=".01" d="M0.5 0.5H239.5V239.5H0.5z" />
  <path
    d="M169.255 137.486C162.741 151.17 129.888 205.121 129.888 205.121L111.513 217.062C114.05 212.987 138.861 172.641 152.75 146.498C160.606 131.707 164.72 118.004 165.112 104.819L164.994 104.947L164.906 101.185L164.543 94.8871L163.711 89.8818L162.516 84.9353L161.35 80.8018L159.656 76.4331L158.235 72.7796L156.6 69.3121L155.845 67.8134L154.366 64.8161L153.661 63.5232L153.181 62.7102L152.926 62.289L152.094 60.9373L151.957 60.7512L152.211 60.614H152.221L169.5 51.8474C177.081 63.3469 181.342 76.678 181.91 89.7839H181.9C182.811 111.029 175.769 123.802 169.255 137.486Z"
    fill="#222"
  />
  <path
    d="M169.509 51.8469L152.221 60.6135L152.074 60.6919L151.251 59.6732L149.772 57.6358L147.989 55.1087L140.095 46.1951L135.168 42.8942L129.594 39.4463L115.332 33.197L107.506 30.5229L101.169 30.3368L100.463 29.8765C95.5659 30.5425 85.6533 33.5692 82.4209 34.4214C83.0968 34.1177 104.989 24.3814 110.033 23.0591C115.166 21.7073 132.954 19.3467 151.663 33.0305H151.672C158.833 38.2709 164.808 44.7063 169.509 51.8469Z"
    fill="#21326C"
  />
  <path
    d="M128.879 84.5335C123.384 71.6529 110.621 64.7572 100.375 69.1258C90.1294 73.5042 86.2897 87.4916 91.7848 100.372C97.2798 113.253 110.043 120.149 120.289 115.78C130.534 111.402 134.374 97.4141 128.879 84.5335ZM120.24 115.662C115.322 117.768 109.661 117.328 104.313 114.438C98.9548 111.539 94.547 106.524 91.9023 100.323C86.4366 87.521 90.2567 73.5826 100.424 69.2433C102.471 68.3716 104.656 67.9308 106.879 67.9308C110.004 67.9308 113.226 68.783 116.351 70.4677C119.035 71.9174 121.474 73.896 123.57 76.286C125.676 78.676 127.439 81.4872 128.761 84.5825C131.416 90.7926 131.984 97.4435 130.368 103.321C128.752 109.178 125.157 113.566 120.24 115.662Z"
    fill="#354B98"
  />
  <path
    d="M128.998 84.4844C126.324 78.2351 121.877 73.1808 116.47 70.2521C111.053 67.3233 105.323 66.8826 100.328 69.0179C90.0427 73.4061 86.1638 87.4915 91.6785 100.421C94.3427 106.67 98.7897 111.725 104.197 114.653C107.36 116.358 110.622 117.22 113.786 117.22C116.049 117.22 118.253 116.779 120.339 115.888C125.325 113.762 128.968 109.315 130.604 103.379C132.24 97.4531 131.662 90.7435 128.998 84.4844ZM104.314 114.438C98.9562 111.538 94.5484 106.523 91.9037 100.323C86.4381 87.5209 90.2582 73.5824 100.425 69.2432C102.473 68.3714 104.657 67.9306 106.88 67.9306C110.005 67.9306 113.228 68.7828 116.352 70.4676C119.036 71.9173 121.475 73.8959 123.571 76.2859C125.677 78.6759 127.44 81.4871 128.763 84.5823C131.417 90.7924 131.985 97.4433 130.369 103.32C128.753 109.178 125.158 113.566 120.241 115.662C115.324 117.768 109.662 117.327 104.314 114.438Z"
    fill="#354B98"
  />
  <path
    d="M128.763 84.5826C127.44 81.4873 125.677 78.6761 123.571 76.2861C121.475 73.8961 119.036 71.9175 116.352 70.4678C113.228 68.7831 110.005 67.9309 106.88 67.9309C104.657 67.9309 102.473 68.3717 100.425 69.2435C90.2581 73.5827 86.438 87.5211 91.9037 100.323C94.5484 106.524 98.9562 111.539 104.314 114.438C109.662 117.328 115.324 117.768 120.241 115.662C125.158 113.566 128.753 109.178 130.369 103.321C131.985 97.4436 131.417 90.7927 128.763 84.5826ZM128.675 102.85C128.028 105.182 127.058 107.239 125.785 108.992H125.775L123.895 111.039L122.797 111.94L121.544 112.665L119.761 113.576L117.694 114.242L115.794 114.614L114.697 114.565L112.738 114.134L111.984 115.094C104.461 114.262 97.2028 108.257 93.5199 99.6279C89.6116 90.4793 90.7185 80.7429 95.6552 74.9246L101.856 70.6539L109.476 69.9193C116.715 71.0751 123.591 76.962 127.146 85.278C129.634 91.1159 130.183 97.3554 128.675 102.85Z"
    fill="#354B98"
  />
  <path
    d="M109.926 214.074C109.632 213.515 80.0216 158.173 66.5729 120.942C53.5357 84.8467 56.9835 66.334 66.1811 49.6529C72.8026 37.6147 86.8292 29.8472 101.914 29.8472C107.115 29.8472 112.277 30.7777 117.233 32.5996C136.98 39.8578 148.979 51.5629 158.422 72.8379L158.941 74.0231C168.883 97.022 166.914 120.178 152.75 146.869C138.156 174.374 113.56 213.799 113.305 214.191L111.513 217.061L109.916 214.083L109.926 214.074ZM106.811 69.7916C104.793 69.7916 102.854 70.1834 101.042 70.967C96.6537 72.8575 93.4311 76.8245 91.9913 82.1433C90.5024 87.6187 91.0607 93.8484 93.5585 99.6667C97.5451 108.923 105.665 115.133 113.776 115.133C115.793 115.133 117.733 114.741 119.545 113.958C123.933 112.067 127.156 108.1 128.596 102.782C130.084 97.3061 129.526 91.0764 127.019 85.2679C123.032 76.0115 114.912 69.8014 106.801 69.8014L106.811 69.7916Z"
    fill="#354B98"
  />
  <path
    d="M157.139 74.797C148.01 53.6885 136.628 41.8266 116.558 34.4411C96.4778 27.0556 75.8787 36.0965 67.8859 50.6031C59.8931 65.1096 54.8486 82.7506 68.405 120.285C81.9615 157.82 111.65 213.163 111.65 213.163C111.65 213.163 136.295 173.718 151.017 145.958C165.749 118.199 166.268 95.9152 157.149 74.8068H157.139V74.797ZM120.329 115.76C110.093 120.168 97.3104 113.302 91.7664 100.441C86.2321 87.5796 90.0326 73.5726 100.269 69.1746C110.504 64.7668 123.287 71.6332 128.831 84.4941C134.365 97.3551 130.565 111.362 120.329 115.76Z"
    fill="#354B98"
  />
  <path
    d="M108.907 92.2323C105.479 84.2689 105.939 75.8353 109.466 69.919C106.606 69.5076 103.726 69.8113 101.042 70.9769C91.5994 75.0419 88.0928 87.9518 93.196 99.8235C98.3091 111.695 110.102 118.023 119.545 113.958C122.65 112.626 125.109 110.324 126.832 107.434C119.643 106.396 112.561 100.744 108.907 92.2421V92.2323Z"
    fill="#222"
  />
</svg>
