<svg
  width="240"
  height="240"
  viewBox="0 0 240 240"
  fill="none"
  xmlns="http://www.w3.org/2000/svg"
  data-fui-pictogram="true"
>
  <path stroke="#000" stroke-opacity=".01" d="M0.5 0.5H239.5V239.5H0.5z" />
  <path d="M80.4951 195.165V201.131L86.8753 204.189V198.561L80.4951 195.165Z" fill="#B6B5B0" />
  <path d="M86.874 204.188L87.2121 204.35L93.2542 200.738V194.73L86.874 198.559V204.188Z" fill="#222" />
  <path d="M87.642 196.005L91.6188 193.822L88.8233 192.266L87.376 192.108V194.323L87.642 196.005Z" fill="#222" />
  <path
    d="M91.6186 193.823L87.6418 196.005L87.3758 194.323V192.11L86.2124 191.983L80.4951 195.166L86.8753 198.563L93.2554 194.734L91.6186 193.823Z"
    fill="#F3F3F3"
  />
  <path d="M124.248 206.838H124.318" stroke="#11A111" stroke-width=".025" stroke-miterlimit="10" />
  <path d="M128.61 215.473V209.372L122.333 213.02L122.104 219.027L128.61 215.473Z" fill="#222" />
  <path
    d="M128.608 209.373V209.287L124.248 206.838L119.743 206.945L115.505 209.503V215.456L122.101 219.028L122.331 213.02L128.608 209.373Z"
    fill="#B6B5B0"
  />
  <path
    d="M88.8242 188.787L112.897 174.278L94.8301 165.886L96.3857 162.373L112.902 155.882L114.282 158.16L100.354 163.793L109.899 168.054L115.152 160.708C115.152 160.708 116.117 161.565 116.171 161.889C116.225 162.215 112.55 169.611 112.55 169.611C112.55 169.611 117.992 173.472 118.047 173.741C118.101 174.012 117.348 175.993 117.348 175.993L88.8242 190.903V188.782V188.787Z"
    fill="#222"
  />
  <path d="M119.816 153.365L106.627 139.312L105.369 135.723L119.816 149.505V153.365Z" fill="#222" />
  <path
    d="M105.605 133.523L119.254 126.695L119.493 123.583L102.927 132.021L104.104 134.596L105.605 133.523Z"
    fill="#222"
  />
  <path
    d="M110.485 108.461L117.312 105.313L118.849 105.006L119.711 106.066L112.952 109.854L110.485 108.461Z"
    fill="#222"
  />
  <path d="M119.492 113.395L114.415 104.826L117.134 104.348L120.565 110.392L119.492 113.395Z" fill="#222" />
  <path
    d="M122.442 105.006L119.209 105.659V112.046L111.291 108.212L112.784 102.674H109.307L84.373 194.825L87.642 196.007L88.4445 193.004L107.048 183.244L119.132 206.429V209.47L121.932 210.543L122.956 209.47L122.437 105.01L122.442 105.006ZM117.883 114.77L114.209 118.531L111.905 112.041L117.883 114.765V114.77ZM119.065 117.809V130.198L115.552 121.377L119.065 117.809ZM109.921 114.003L112.495 120.357L106.516 126.338L109.921 114.003ZM113.487 123.474L119.065 138.857L105.069 132.178L113.487 123.474ZM119.065 143.926V163.797L112.549 149.158L119.065 143.931V143.926ZM111.264 146.488L106.625 136.444L117.293 141.405L111.26 146.488H111.264ZM103.838 136.742L109.172 147.819L98.504 156.238L103.838 136.742ZM89.8694 188.787L96.4659 164.519L105.367 180.529L89.8694 188.787ZM99.8972 165.889L116.625 174.31L107.779 179.163L99.8972 165.889ZM109.438 182.003L118.984 176.533L119.119 200.048L109.443 181.999L109.438 182.003ZM97.6158 161.222L110.511 150.989L119.25 171.762L97.6158 161.222Z"
    fill="#B6B5B0"
  />
  <path
    d="M137.509 88.4977C140.414 88.0366 142.146 83.7422 141.379 78.9058C140.611 74.0695 137.635 70.5228 134.729 70.9839C131.825 71.4451 130.093 75.7396 130.861 80.5759C131.628 85.4123 134.605 88.959 137.509 88.4977Z"
    fill="#B6B5B0"
  />
  <path
    d="M146.41 192.053V198.343L152.844 201.614V195.769L159.278 192.124L152.881 188.832L146.41 192.053Z"
    fill="#B6B5B0"
  />
  <path
    d="M132.686 102.67L129.624 104.266L130.215 106.95L127.776 105.259L121.937 105.66V210.539L125.016 209.091V205.285L135.391 183.375L150.889 191.823L151.262 193.135L152.574 193.379L154.775 192.12L132.691 102.679L132.686 102.67ZM128.682 162.77L130.702 166.22L126.644 168.615L128.682 162.77ZM124.98 163.969V157.462L126.892 158.783L124.98 163.969ZM129.787 159.721L130.296 158.165L139.463 161.516L132.839 165.137L129.782 159.721H129.787ZM131.423 155.297L133.115 150.99L142.578 159.374L131.428 155.297H131.423ZM130.675 144.644L133.542 140.355L132.109 145.362L130.675 144.644ZM141.506 153.876L134.079 147.63L137.645 137.546L141.506 153.876ZM132.289 116.056L133.935 123.475L130.913 120.024L132.289 116.056ZM133.362 128.305L129.214 126.158L129.999 123.957L133.357 128.3L133.362 128.305ZM130.648 111.73L128.984 117.81L126.179 114.716L130.648 111.73ZM125.016 107.216L129.201 109.282L125.016 112.042V107.216ZM125.016 118.256L126.41 119.812L125.016 121.562V118.256ZM127.248 123.583L126.855 124.796L126.13 124.187L127.248 123.578V123.583ZM125.016 126.695L126.089 127.164L125.016 130.483V126.695ZM128.465 128.697L136.329 132.31L135.4 135.132L128.664 142.75L125.016 139.48L128.465 128.701V128.697ZM125.016 143.846L126.986 145.627C126.986 145.627 124.949 148.455 124.921 148.387C124.894 148.32 125.016 143.842 125.016 143.842V143.846ZM128.713 147.395L128.889 147.535L130.671 148.933L128.497 154.584L124.813 153.155L128.709 147.4L128.713 147.395ZM124.98 198.917V177.36L133.15 182.077L124.98 198.917ZM134.737 178.825L126.427 174.107L141.834 164.349L134.737 178.83V178.825ZM136.884 180.219L144.247 165.489L149.861 187.372L136.884 180.219Z"
    fill="#222"
  />
  <path d="M152.846 201.613L152.882 201.631L159.28 198.198V192.123L152.846 195.768V201.613Z" fill="#222" />
  <path
    d="M112.759 41.285C112.885 41.0887 112.878 40.832 112.732 40.6509L111.091 38.623C110.895 38.3809 110.533 38.3614 110.331 38.5983C109.418 39.6704 107.803 42.0964 107.803 45.8907C107.803 48.6153 108.638 50.6044 109.447 51.8968C109.62 52.1732 110.004 52.2009 110.231 51.9666C111.099 51.0698 111.69 50.4593 112.004 50.135C112.163 49.9706 112.199 49.7238 112.108 49.5139C111.637 48.4214 110.449 44.9004 112.759 41.285Z"
    fill="#FA4616"
  />
  <path
    d="M107.396 34.0471C107.395 34.0471 107.395 34.0469 107.395 34.0465L105.464 31.6589C105.273 31.4218 104.921 31.3962 104.708 31.6142C103.062 33.2986 99.2295 37.9731 99.2295 44.9658C99.2295 51.2382 101.978 55.8185 103.601 57.9821C103.79 58.2343 104.158 58.2497 104.377 58.0232C105.01 57.3697 105.594 56.7689 106.129 56.2146C106.31 56.0277 106.326 55.7388 106.173 55.5286C104.985 53.8968 102.56 49.9073 102.805 44.7853C103.044 39.7954 105.913 35.8012 107.397 34.0499C107.398 34.0488 107.397 34.0471 107.396 34.0471Z"
    fill="#FA4616"
  />
  <path
    d="M94.2592 43.8777C94.258 43.8777 94.257 43.8767 94.257 43.8755C94.5666 35.9741 99.3373 29.5647 101.329 27.224C101.495 27.0299 101.498 26.7482 101.338 26.5499L99.757 24.5922C99.5704 24.3613 99.2317 24.3336 99.0191 24.5408C97.2687 26.2469 90.3323 33.7113 90.758 44.4955C91.2178 56.1405 95.5557 61.5711 97.7846 64.0395C97.9863 64.2628 98.3336 64.2652 98.5428 64.0488C99.0864 63.4863 99.6072 62.9471 100.11 62.4281C100.287 62.245 100.308 61.9636 100.161 61.7553C98.5651 59.4865 93.935 52.1665 94.2614 43.88C94.2614 43.8787 94.2605 43.8777 94.2592 43.8777Z"
    fill="#FA4616"
  />
  <path
    d="M143.407 47.6615C142.516 40.9475 138.562 35.9784 136.83 34.0784C136.62 33.8478 136.258 33.8638 136.059 34.104L134.336 36.1818C134.178 36.3721 134.175 36.6458 134.326 36.8407C136.24 39.2901 138.933 43.2047 139.764 49.1001C140.516 54.4389 138.05 58.4954 136.92 60.0288C136.772 60.2288 136.776 60.5027 136.936 60.6931C137.507 61.3744 138.128 62.1158 138.801 62.9208C139.003 63.1633 139.372 63.1736 139.577 62.9327C141.765 60.3571 144.444 55.4355 143.407 47.666V47.6615Z"
    fill="#FA4616"
  />
  <path
    d="M152.146 47.3392C150.558 36.8184 143.814 29.3993 142.11 27.6693C141.899 27.4554 141.556 27.4779 141.365 27.7091L139.767 29.6341C139.591 29.8466 139.61 30.1583 139.807 30.3524C145.365 35.8501 148.762 45.4555 148.661 53.4818C148.574 60.5284 144.649 65.8981 143.268 67.5705C143.103 67.7693 143.102 68.0549 143.268 68.2526C143.869 68.9713 144.499 69.7233 145.156 70.5107C145.343 70.7344 145.676 70.7641 145.888 70.5644C149.432 67.2296 153.903 58.9734 152.146 47.3392Z"
    fill="#FA4616"
  />
  <path
    d="M132.305 55.1608C132.516 55.4132 132.906 55.4106 133.095 55.1412C134.117 53.6899 135.096 51.4392 134.643 48.437C134.053 44.5297 132.367 41.9347 131.368 40.6906C131.168 40.4417 130.794 40.4494 130.59 40.695L128.921 42.7043C128.757 42.902 128.763 43.1901 128.924 43.3906C131.999 47.2172 130.878 51.4233 130.488 52.5628C130.425 52.7496 130.456 52.9559 130.584 53.107C130.866 53.4444 131.439 54.129 132.305 55.1608Z"
    fill="#FA4616"
  />
  <path
    d="M133.578 97.4549C133.578 94.0183 128.365 91.2356 121.94 91.2356C115.515 91.2356 110.303 94.0228 110.303 97.4549C110.303 97.942 110.411 98.4154 110.609 98.8664C110.411 99.3219 110.303 99.791 110.303 100.278C110.303 103.715 115.515 106.497 121.94 106.497C128.365 106.497 133.578 103.71 133.578 100.278V97.4504V97.4549Z"
    fill="#222"
  />
  <path
    d="M121.936 103.674C128.364 103.674 133.574 100.89 133.574 97.4549C133.574 94.0201 128.364 91.2356 121.936 91.2356C115.509 91.2356 110.299 94.0201 110.299 97.4549C110.299 100.89 115.509 103.674 121.936 103.674Z"
    fill="#F3F3F3"
  />
  <path
    d="M121.936 102.201C128.364 102.201 133.574 99.4166 133.574 95.9819C133.574 92.5471 128.364 89.7627 121.936 89.7627C115.509 89.7627 110.299 92.5471 110.299 95.9819C110.299 99.4166 115.509 102.201 121.936 102.201Z"
    fill="#B6B5B0"
  />
  <path
    d="M118.849 47.3386H124.025V96.1453C124.025 96.8669 123.439 97.4577 122.713 97.4577H120.161C119.439 97.4577 118.849 96.8714 118.849 96.1453V47.3386Z"
    fill="#222"
  />
  <path
    d="M123.143 79.7149L133.667 78.1139C134.185 78.0327 134.653 78.4386 134.653 78.9618V81.4829C134.653 81.9068 134.347 82.2676 133.927 82.3308L123.359 84.0039L123.143 79.7149Z"
    fill="#222"
  />
  <path
    d="M124.695 45.5438C124.695 44.6238 123.279 43.8796 121.529 43.8796C119.78 43.8796 118.364 44.6238 118.364 45.5438V47.8574C118.364 48.7774 119.78 49.5215 121.529 49.5215C123.279 49.5215 124.695 48.7774 124.695 47.8574V45.5438Z"
    fill="#B6B5B0"
  />
  <path
    d="M121.529 47.2079C123.278 47.2079 124.695 46.4628 124.695 45.5438C124.695 44.6247 123.278 43.8796 121.529 43.8796C119.781 43.8796 118.364 44.6247 118.364 45.5438C118.364 46.4628 119.781 47.2079 121.529 47.2079Z"
    fill="#F3F3F3"
  />
  <path
    d="M106.359 72.0621L107.658 70.9165C107.658 70.9165 114.214 73.1895 117.086 79.8147C119.954 86.4398 119.819 92.3929 117.303 98.0483C115.359 102.405 110.3 104.831 110.3 104.831C110.3 104.831 111.648 103.118 111.784 102.824C111.919 102.531 114.196 92.5282 114.011 88.3971C113.826 84.266 113.718 82.3898 113.501 81.1857C113.285 79.9815 108.704 73.1399 108.704 73.1399"
    fill="#B6B5B0"
  />
  <path
    d="M119.151 87.8724L114.669 82.2124L113.786 84.1562C113.853 85.2296 113.916 86.5961 114.002 88.391C114.191 92.5221 111.91 102.521 111.774 102.818C111.639 103.116 110.291 104.825 110.291 104.825C110.291 104.825 115.355 102.403 117.293 98.0423C118.75 94.7726 119.404 91.4081 119.147 87.8724H119.151Z"
    fill="#222"
  />
  <path
    d="M115.944 86.999C114.984 77.2395 109.821 69.7575 104.406 70.2897C104.23 70.3077 104.054 70.3348 103.883 70.3662C106.322 71.0608 112.684 73.9382 114.096 85.3258C115.764 98.8151 110.619 105.575 104.564 104.967C105.637 105.503 106.755 105.742 107.887 105.634C113.297 105.102 116.909 96.7585 115.949 86.999H115.944Z"
    fill="#F3F3F3"
  />
  <path
    d="M114.094 85.3223C112.687 73.9391 106.32 71.0572 103.881 70.3628C98.7634 71.364 95.4132 79.4773 96.3421 88.9212C97.0995 96.6422 100.495 102.934 104.557 104.963C110.613 105.572 115.762 98.8161 114.089 85.3223H114.094Z"
    fill="#B6B5B0"
  />
  <path
    d="M99.8164 87.4269V85.5598H106.557C107.441 85.5598 108.059 86.746 108.059 88.0854C108.059 89.4248 107.491 90.7959 105.304 90.9131C103.117 91.0303 99.8164 91.2333 99.8164 91.2333L99.9653 87.8689"
    fill="#222"
  />
  <path
    d="M104.504 85.7552C104.504 85.7552 106.93 80.6455 106.997 80.6455C107.065 80.6455 107.399 81.0198 107.412 81.128C107.426 81.2363 106.046 85.9943 106.046 85.9943C106.046 85.9943 106.046 89.8412 106.181 90.1254C106.317 90.4095 107.71 92.9261 107.71 92.9261L107.466 94.2114L104.838 90.3915L104.423 85.8049"
    fill="#222"
  />
  <path
    d="M99.6799 91.2347C100.641 91.2347 101.42 89.9627 101.42 88.3935C101.42 86.8243 100.641 85.5522 99.6799 85.5522C98.7186 85.5522 97.9395 86.8243 97.9395 88.3935C97.9395 89.9627 98.7186 91.2347 99.6799 91.2347Z"
    fill="#F3F3F3"
  />
</svg>
