<svg
  width="240"
  height="240"
  viewBox="0 0 240 240"
  fill="none"
  xmlns="http://www.w3.org/2000/svg"
  data-fui-pictogram="true"
>
  <path
    d="M126.061 204.717L117.007 208.73L112.034 199.769L103.225 203.75L98.1024 195.025L89.2674 198.941L84.1447 190.051L75.1707 194.063L69.8985 185.157L61.01 189.057L55.8019 180.263L46.4914 184.5L45.9038 183.763C46.2083 182.063 51.0265 155.14 52.1428 148.216C52.6183 145.272 53.9216 138.219 55.4334 130.045C57.5807 118.424 60.0165 105.259 60.6041 100.942C61.01 97.9557 61.7258 93.1418 62.4897 88.0393C63.6114 80.522 64.7652 72.7481 65.2193 68.9599C66.1059 61.5067 67.2545 52.926 69.6582 45.3765C71.955 38.1476 75.2295 33.3017 79.3907 30.9829C83.1619 28.8831 84.6842 29.1449 88.4234 30.4967C90.6082 31.2874 105.084 36.0265 119.085 40.6053C129.719 44.0835 139.762 47.3695 143.645 48.6784C151.098 51.1789 172.469 58.4077 179.344 60.7319C177.858 60.7105 176.235 61.1059 174.483 61.8914C170.178 63.8254 166.203 69.6919 164.328 74.3295C162.33 79.2663 160.968 85.7259 159.74 91.9236C159.43 93.4891 157.881 104.132 156.086 116.458C153.954 131.082 151.306 149.284 149.858 158.277C147.865 170.645 141.226 206.961 140.835 209.098L130.948 213.484L126.072 204.712L126.061 204.717Z"
    fill="#F3F3F3"
  />
  <path d="M60.4319 149.984L117.94 170.704L114.26 188.484L56.869 168.128L60.4319 149.984Z" fill="#FA4616" />
  <path
    d="M49.1566 188.56L46.4537 184.942L46.5231 184.894L55.652 180.743L58.0077 184.723L49.1566 188.56Z"
    fill="#222"
  />
  <path d="M63.9647 193.342L61.2085 189.373L69.7445 185.632L72.1589 189.71L63.9647 193.342Z" fill="#222" />
  <path d="M78.0924 198.225L75.3788 194.378L83.9843 190.526L86.3933 194.699L78.0924 198.225Z" fill="#222" />
  <path d="M92.1886 203.113L89.4645 199.255L97.947 195.5L100.383 199.64L92.1886 203.113Z" fill="#222" />
  <path d="M106.035 207.843L103.514 204.028L111.879 200.25L114.149 204.338L106.035 207.843Z" fill="#222" />
  <path d="M119.882 212.85L117.286 209.014L125.907 205.188L128.162 209.249L119.882 212.85Z" fill="#222" />
  <path
    d="M187.041 101.655L182.171 106.384L163.944 100.213L163.912 100.432C163.838 100.961 156.14 153.139 155.093 158.91C154.068 164.557 149.954 188.702 148.923 195.07C147.989 200.84 145.954 211.505 145.74 212.632L133.961 217.782L131.248 213.759L141.157 209.362L141.173 209.265C141.243 208.886 148.171 171.027 150.211 158.343C151.658 149.351 154.313 131.147 156.44 116.519C158.235 104.199 159.784 93.5556 160.094 92.001C161.317 85.8245 162.679 79.3811 164.661 74.4763C166.509 69.9082 170.413 64.1272 174.623 62.2358C178.848 60.3391 182.298 60.852 184.606 63.7211C187.041 66.7452 187.25 68.1344 187.25 73.8566C187.25 79.5788 187.048 100.224 187.037 101.661L187.041 101.655Z"
    fill="#222"
  />
  <path
    d="M89.4918 47.3157C82.2325 47.3157 76.0949 53.5401 75.7851 61.2124C75.4753 68.8901 81.1054 75.1092 88.3647 75.1092C95.624 75.1092 101.762 68.8848 102.071 61.2124C102.381 53.5347 96.7511 47.3157 89.4918 47.3157Z"
    fill="#222"
  />
  <path d="M120.233 67.752L119.32 71.2996L145.494 80.3984L146.311 76.8615L120.233 67.752Z" fill="#222" />
  <path d="M118.485 76.5098L117.518 80.1162L137.111 86.6932L138.036 83.1937L118.485 76.5098Z" fill="#222" />
  <path d="M72.688 79.165L72.0256 82.6699L149.233 109.133L149.929 105.719L72.688 79.165Z" fill="#222" />
  <path d="M70.731 93.345L69.951 97.1758L107.177 110.111L107.957 106.531L70.731 93.345Z" fill="#222" />
  <path d="M69.0818 103.824L68.334 107.473L93.6908 116.315L94.4012 112.714L69.0818 103.824Z" fill="#222" />
  <path d="M67.2821 114.241L66.5555 117.858L97.9751 128.939L98.7711 125.44L67.2821 114.241Z" fill="#222" />
  <path d="M65.4492 124.727L64.5732 128.445L92.6703 138.26L93.5143 134.692L65.4492 124.727Z" fill="#222" />
  <path d="M62.6605 139.271L61.8219 142.877L139.105 170.43L139.859 166.802L62.6605 139.271Z" fill="#222" />
  <path d="M75.0971 165.077L74.1943 168.485L111.025 181.774L111.693 178.369L75.0971 165.077Z" fill="#222" />
  <path
    d="M63.2159 162.845L65.171 163.299C65.2725 164.571 66.2767 165.334 67.1741 165.468C68.0715 165.602 68.766 164.528 67.9486 163.721C67.1313 162.914 65.6838 162.481 64.8078 161.113C63.9371 159.741 64.2415 157.865 65.406 157.122C66.5652 156.38 69.9037 157.524 70.6248 158.672C71.346 159.82 71.0789 161.018 71.0789 161.018L69.3108 160.51C69.2359 159.383 68.2265 158.618 67.2542 158.618C66.282 158.618 65.8708 159.982 66.8323 160.585C67.7937 161.194 69.6313 162.033 70.2349 163.182C70.8438 164.331 70.7637 165.991 69.3374 166.953C67.9113 167.915 65.5022 167.13 64.2842 166.035C63.0663 164.939 63.1037 163.822 63.2106 162.851L63.2159 162.845Z"
    fill="#222"
  />
  <path d="M65.1711 167.941L66.6081 168.571L69.4231 156.303L67.8794 155.721L65.1711 167.941Z" fill="#222" />
  <path
    d="M180.304 67.052C178.942 65.8926 174.632 65.8232 170.984 73.1215C167.336 80.4198 165.807 88.7814 163.932 100.21L182.159 106.381C182.159 106.381 182.42 76.9043 182.42 73.1857C182.42 69.467 181.657 68.2115 180.299 67.0467L180.304 67.052Z"
    fill="#B6B5B0"
  />
  <path d="M132.915 114.325L132.21 117.862L146.515 122.992L147.22 119.455L132.915 114.325Z" fill="#222" />
  <path d="M131.243 124.777L130.543 128.522L144.922 133.517L145.601 129.767L131.243 124.777Z" fill="#222" />
  <path d="M129.318 135.479L128.618 139.229L142.999 144.22L143.677 140.468L129.318 135.479Z" fill="#222" />
  <path d="M127.502 146.179L126.807 149.93L141.181 154.92L141.86 151.175L127.502 146.179Z" fill="#222" />
  <path
    d="M94.7323 61.0752C94.524 64.4466 91.8051 67.1768 88.6535 67.1768C85.5019 67.1768 83.1143 64.4466 83.3226 61.0752C83.5309 57.7039 86.2498 54.9736 89.4014 54.9736C92.553 54.9736 94.9407 57.7039 94.7323 61.0752Z"
    fill="#F3F3F3"
  />
</svg>
