<svg
  width="240"
  height="240"
  viewBox="0 0 240 240"
  fill="none"
  xmlns="http://www.w3.org/2000/svg"
  data-fui-pictogram="true"
>
  <path stroke="#000" stroke-opacity=".01" d="M0.5 0.5H239.5V239.5H0.5z" />
  <path d="M98.8007 34.7002L99.0963 58.0999L172.2 80.9745L171.67 56.3564L98.8007 34.7002Z" fill="#B6B5B0" />
  <path
    d="M183.627 65.8208V67.3145L172.199 80.972L99.096 58.0974L96.0328 60.7891C96.0328 60.7891 102.908 63.1291 106.43 64.2302C109.983 67.0189 109.488 71.6376 109.488 71.6376L116.599 74.1968L100.951 97.8208L67.9085 86.5085L41.2776 125.284V142.703L137.46 180.821V162.213L187.22 86.6614L201.221 71.0105L183.633 65.8259L183.627 65.8208Z"
    fill="#B6B5B0"
  />
  <path d="M165.693 107.385L134.103 154.633L81.8348 134.747L113.624 89.843L165.693 107.385Z" fill="#F3F3F3" />
  <path
    d="M118.194 95.9963C118.296 95.9963 123.801 95.6343 123.801 95.6343L124.744 98.897L119.377 106.06L110.641 102.833L110.264 99.4527L118.194 95.9963Z"
    fill="#3C3C3C"
  />
  <path d="M115.493 92.585L110.264 99.4519L118.403 102.618L123.801 95.6335L115.493 92.585Z" fill="#B6B5B0" />
  <path
    d="M110.748 106.008C110.85 106.008 116.354 105.646 116.354 105.646L117.297 108.908L111.93 116.071L103.195 112.844L102.817 109.464L110.748 106.008Z"
    fill="#3C3C3C"
  />
  <path d="M108.047 102.598L102.817 109.465L110.957 112.626L116.354 105.647L108.047 102.598Z" fill="#B6B5B0" />
  <path
    d="M103.659 116.154C103.761 116.154 109.265 115.792 109.265 115.792L110.208 119.054L104.841 126.217L96.1054 122.99L95.7283 119.61L103.659 116.154Z"
    fill="#3C3C3C"
  />
  <path d="M100.958 112.737L95.7283 119.609L103.868 122.769L109.265 115.79L100.958 112.737Z" fill="#B6B5B0" />
  <path
    d="M96.2028 126.711C96.3047 126.711 101.809 126.349 101.809 126.349L102.752 129.612L97.3852 136.775L88.6493 133.547L88.2721 130.168L96.2028 126.711Z"
    fill="#3C3C3C"
  />
  <path d="M93.4956 123.3L88.2662 130.167L96.4059 133.328L101.803 126.348L93.4956 123.3Z" fill="#B6B5B0" />
  <path d="M35.0096 148.139L35.4478 171.977L131.447 212.553V186.996L35.0096 148.139Z" fill="#222" />
  <path
    d="M138.088 182.007L137.339 181.467L132.008 186.101L35.1121 147.366L35 147.454L35.0102 148.136L131.447 186.993V212.55L132.61 213.039V186.326L138.088 182.007Z"
    fill="#B6B5B0"
  />
  <path
    d="M205.106 131.113L201.716 129.864L137.455 180.813L41.2735 142.695L35.1115 147.37L132.007 186.105L137.338 181.47L138.088 182.011L132.609 186.328V213.043L205.106 152.243V131.113Z"
    fill="#222"
  />
  <path d="M183.229 47.279L111.507 26L98.8007 34.6971L171.67 56.3533L183.229 47.279Z" fill="#F3F3F3" />
  <path d="M201.217 71.0063L187.217 86.652L137.456 162.209V180.812L201.716 129.863L201.217 71.0063Z" fill="#3C3C3C" />
  <path d="M108.637 55.1041L165.839 72.8349V58.1475L108.637 40.7432V55.1041Z" fill="#FA4616" />
  <path d="M108.638 40.7433L107.195 40.3049V56.0016L108.638 55.1043V40.7433Z" fill="#3C3C3C" />
  <path d="M108.638 55.1038L107.195 56.001L165.84 74.1906V72.8345L108.638 55.1038Z" fill="#F3F3F3" />
  <path d="M183.23 47.2786L171.671 56.353L172.201 80.9711L183.628 67.3136V65.8199L183.23 47.2786Z" fill="#3C3C3C" />
  <path
    d="M99.5915 73.6979C98.6078 75.4822 97.9146 77.3685 97.4203 79.2241L100.152 80.208L109.056 72.9995L109.49 71.6384C109.49 71.6384 109.989 67.0196 106.431 64.231C106.431 64.231 103.975 65.7247 99.5864 73.6979H99.5915Z"
    fill="#B6B5B0"
  />
  <path
    d="M96.1267 60.7797L87.7578 58.0879C82.4011 60.1322 78.4408 68.3552 78.4408 68.3552C78.4408 68.3552 74.5519 76.2316 75.9485 84.6025L96.5753 91.6785C96.5753 91.6785 95.8056 85.6424 97.5132 79.2139C98.0024 77.3583 98.7007 75.4719 99.6844 73.6877C104.068 65.7144 106.529 64.2207 106.529 64.2207C103.007 63.1247 96.1319 60.7797 96.1319 60.7797H96.1267Z"
    fill="#F3F3F3"
  />
  <path d="M79.0621 76.3689L78.7104 77.3833L92.7624 82.201L92.9815 81.421L79.0621 76.3689Z" fill="#222" />
  <path d="M79.7813 72.8677L79.4296 73.8822L93.4815 78.6998L93.7007 77.9197L79.7813 72.8677Z" fill="#222" />
  <path d="M80.4907 69.5547L80.139 70.5692L94.1909 75.3868L94.4102 74.6068L80.4907 69.5547Z" fill="#222" />
  <path
    d="M78.3475 68.3628L68.3068 76.6877L75.6258 78.9207C76.0642 72.9917 78.3424 68.3628 78.3424 68.3628H78.3475Z"
    fill="#3C3C3C"
  />
  <path
    d="M96.4204 85.2692C96.1401 88.9804 96.4815 91.6875 96.4815 91.6875L75.8547 84.6116C75.5286 82.6539 75.4929 80.7319 75.6253 78.9222L68.3064 76.6893L67.9088 86.5079L100.952 97.8204L116.599 74.1963L100.952 86.6557L96.4255 85.2743L96.4204 85.2692Z"
    fill="#222"
  />
  <path
    d="M109.057 72.9995L100.153 80.2081L97.4214 79.2242C96.8557 81.35 96.5651 83.4351 96.4224 85.2704L100.948 86.652L116.596 74.1925L109.486 71.6333L109.052 72.9944L109.057 72.9995Z"
    fill="#3C3C3C"
  />
  <path d="M178.348 90.54L168.98 103.05L116.814 86.0028L126.182 73.6963L178.348 90.54Z" fill="#222" />
  <path
    d="M152.34 108.383C152.442 108.383 157.936 107.899 157.936 107.899L158.951 111.136L153.736 118.411L144.934 115.373L144.486 111.998L152.34 108.378V108.383Z"
    fill="#B3300D"
  />
  <path d="M149.567 105.025L144.486 112.004L152.687 114.996L157.936 107.9L149.567 105.025Z" fill="#FA4616" />
  <path
    d="M145.107 118.549C145.209 118.549 150.703 118.064 150.703 118.064L151.718 121.302L146.504 128.577L137.701 125.538L137.253 122.164L145.107 118.544V118.549Z"
    fill="#B3300D"
  />
  <path d="M142.334 115.196L137.253 122.17L145.454 125.162L150.703 118.066L142.334 115.196Z" fill="#FA4616" />
  <path
    d="M138.232 128.842C138.333 128.842 143.828 128.358 143.828 128.358L144.842 131.595L139.628 138.87L130.825 135.831L130.377 132.457L138.232 128.837V128.842Z"
    fill="#B3300D"
  />
  <path d="M135.46 125.482L130.373 132.462L138.579 135.455L143.829 128.358L135.46 125.482Z" fill="#FA4616" />
  <path
    d="M130.999 139.559C131.1 139.559 136.594 139.074 136.594 139.074L137.609 142.312L132.395 149.586L123.592 146.548L123.144 143.173L130.999 139.554V139.559Z"
    fill="#B3300D"
  />
  <path d="M128.222 136.199L123.14 143.179L131.346 146.171L136.596 139.074L128.222 136.199Z" fill="#FA4616" />
  <path
    d="M140.667 104.458C140.768 104.458 146.273 104.096 146.273 104.096L147.216 107.359L141.849 114.521L133.112 111.294L132.736 107.914L140.667 104.458Z"
    fill="#222"
  />
  <path d="M137.966 101.043L132.736 107.91L140.876 111.076L146.273 104.096L137.966 101.043Z" fill="#3C3C3C" />
  <path
    d="M133.22 114.471C133.322 114.471 138.827 114.109 138.827 114.109L139.769 117.372L134.403 124.534L125.667 121.307L125.29 117.928L133.22 114.471Z"
    fill="#222"
  />
  <path d="M130.519 111.056L125.29 117.923L133.43 121.089L138.827 114.105L130.519 111.056Z" fill="#3C3C3C" />
  <path
    d="M126.126 124.613C126.228 124.613 131.732 124.25 131.732 124.25L132.675 127.512L127.308 134.675L118.572 131.448L118.195 128.068L126.126 124.613Z"
    fill="#222"
  />
  <path d="M123.424 121.2L118.195 128.067L126.335 131.228L131.732 124.249L123.424 121.2Z" fill="#3C3C3C" />
  <path
    d="M118.669 135.172C118.771 135.172 124.276 134.809 124.276 134.809L125.219 138.072L119.852 145.235L111.116 142.007L110.739 138.628L118.669 135.172Z"
    fill="#222"
  />
  <path d="M115.968 131.758L110.739 138.625L118.878 141.791L124.276 134.806L115.968 131.758Z" fill="#3C3C3C" />
  <path
    d="M129.194 100.118C129.296 100.118 134.801 99.7563 134.801 99.7563L135.743 103.019L130.377 110.182L121.641 106.955L121.264 103.575L129.194 100.118Z"
    fill="#3C3C3C"
  />
  <path d="M126.493 96.707L121.264 103.574L129.403 106.735L134.801 99.7556L126.493 96.707Z" fill="#B6B5B0" />
  <path
    d="M121.748 110.13C121.85 110.13 127.354 109.768 127.354 109.768L128.297 113.031L122.93 120.194L114.194 116.966L113.817 113.586L121.748 110.13Z"
    fill="#3C3C3C"
  />
  <path d="M119.046 106.722L113.817 113.589L121.957 116.75L127.354 109.771L119.046 106.722Z" fill="#B6B5B0" />
  <path
    d="M114.657 120.276C114.759 120.276 120.263 119.914 120.263 119.914L121.206 123.177L115.839 130.339L107.103 127.113L106.726 123.732L114.657 120.276Z"
    fill="#3C3C3C"
  />
  <path d="M111.955 116.863L106.726 123.729L114.866 126.895L120.263 119.916L111.955 116.863Z" fill="#B6B5B0" />
  <path
    d="M107.197 130.835C107.299 130.835 112.803 130.473 112.803 130.473L113.746 133.736L108.379 140.899L99.6432 137.672L99.266 134.292L107.197 130.835Z"
    fill="#3C3C3C"
  />
  <path d="M104.495 127.424L99.266 134.29L107.406 137.451L112.803 130.473L104.495 127.424Z" fill="#B6B5B0" />
  <path d="M40.1758 154.632V169.136L124.635 204.47V188.768L40.1758 154.632Z" fill="#B6B5B0" />
  <path
    d="M85.0552 177.391C83.7351 174.953 81.2071 173.766 79.4078 174.739C77.6086 175.714 77.2213 178.476 78.5362 180.914C79.8564 183.35 82.3843 184.538 84.1836 183.564C85.9828 182.591 86.3701 179.827 85.0552 177.391ZM82.4048 182.224L80.9013 181.607V176.458L82.4048 177.186V182.218V182.224Z"
    fill="#222"
  />
  <path
    d="M82.5114 66.9573L83.1708 67.1445C83.1844 67.5798 83.5143 67.857 83.8182 67.9173C84.1222 67.9776 84.3766 67.6228 84.1112 67.3341C83.8458 67.0455 83.3592 66.874 83.0829 66.393C82.8086 65.9104 82.9433 65.2758 83.3527 65.0417C83.7603 64.8075 84.8802 65.2525 85.1071 65.6562C85.3342 66.0598 85.2234 66.4636 85.2234 66.4636L84.6287 66.2614C84.6218 65.8757 84.29 65.5984 83.9584 65.5824C83.6269 65.5663 83.4641 66.0243 83.782 66.2461C84.1 66.4697 84.713 66.786 84.8998 67.1877C85.0887 67.5896 85.0339 68.155 84.5317 68.4596C84.0293 68.7641 83.2206 68.4565 82.8232 68.0628C82.4259 67.6692 82.4571 67.289 82.5095 66.959L82.5114 66.9573Z"
    fill="#222"
  />
  <path d="M83.0942 68.7287L83.5739 68.9675L84.7361 64.8298L84.2192 64.6057L83.0942 68.7287Z" fill="#222" />
  <path d="M137.455 180.811V162.21L41.2737 125.28V142.695L137.455 180.811Z" fill="#EBEBEB" />
</svg>
