<svg
  width="240"
  height="240"
  viewBox="0 0 240 240"
  fill="none"
  xmlns="http://www.w3.org/2000/svg"
  data-fui-pictogram="true"
>
  <path stroke="#000" stroke-opacity=".01" d="M0.5 0.5H239.5V239.5H0.5z" />
  <path
    d="M69.2653 166.927C79.9052 166.927 88.5305 158.298 88.5305 147.653C88.5305 137.009 79.9052 128.379 69.2653 128.379C58.6254 128.379 50 137.009 50 147.653C50 158.298 58.6254 166.927 69.2653 166.927Z"
    fill="#3C3C3C"
  />
  <path
    d="M84.5359 144.842C93.7983 144.842 101.307 137.33 101.307 128.063C101.307 118.796 93.7983 111.284 84.5359 111.284C75.2734 111.284 67.7646 118.796 67.7646 128.063C67.7646 137.33 75.2734 144.842 84.5359 144.842Z"
    fill="#B6B5B0"
  />
  <path
    d="M74.7177 167.76C82.8968 167.76 89.5272 161.127 89.5272 152.944C89.5272 144.761 82.8968 138.128 74.7177 138.128C66.5386 138.128 59.9082 144.761 59.9082 152.944C59.9082 161.127 66.5386 167.76 74.7177 167.76Z"
    fill="#F3F3F3"
  />
  <path
    d="M93.2474 153.626C100.614 153.626 106.586 147.651 106.586 140.282C106.586 132.912 100.614 126.937 93.2474 126.937C85.8809 126.937 79.9092 132.912 79.9092 140.282C79.9092 147.651 85.8809 153.626 93.2474 153.626Z"
    fill="#F3F3F3"
  />
  <path
    d="M87.8811 173.49C95.5755 173.49 101.813 167.249 101.813 159.552C101.813 151.854 95.5755 145.613 87.8811 145.613C80.1868 145.613 73.9492 151.854 73.9492 159.552C73.9492 167.249 80.1868 173.49 87.8811 173.49Z"
    fill="#3C3C3C"
  />
  <path
    d="M74.057 194.871C84.4314 194.871 92.8415 186.458 92.8415 176.078C92.8415 165.699 84.4314 157.285 74.057 157.285C63.6826 157.285 55.2725 165.699 55.2725 176.078C55.2725 186.458 63.6826 194.871 74.057 194.871Z"
    fill="#3C3C3C"
  />
  <path
    d="M86.2919 205.217C91.1406 205.217 95.0712 201.285 95.0712 196.434C95.0712 191.583 91.1406 187.651 86.2919 187.651C81.4433 187.651 77.5127 191.583 77.5127 196.434C77.5127 201.285 81.4433 205.217 86.2919 205.217Z"
    fill="#3C3C3C"
  />
  <path
    d="M80.0671 183.093C89.5113 183.093 97.1674 175.433 97.1674 165.985 97.1674 156.536 89.5113 148.877 80.0671 148.877 70.6229 148.877 62.9668 156.536 62.9668 165.985 62.9668 175.433 70.6229 183.093 80.0671 183.093zM135.295 158.59C141.478 158.59 146.49 153.575 146.49 147.389 146.49 141.203 141.478 136.188 135.295 136.188 129.111 136.188 124.099 141.203 124.099 147.389 124.099 153.575 129.111 158.59 135.295 158.59z"
    fill="#B6B5B0"
  />
  <path
    d="M127.226 164.826C133.878 164.826 139.27 159.431 139.27 152.776C139.27 146.121 133.878 140.726 127.226 140.726C120.574 140.726 115.182 146.121 115.182 152.776C115.182 159.431 120.574 164.826 127.226 164.826Z"
    fill="#3C3C3C"
  />
  <path
    d="M146.204 173.315C154.403 173.315 161.049 166.666 161.049 158.464C161.049 150.261 154.403 143.612 146.204 143.612C138.006 143.612 131.359 150.261 131.359 158.464C131.359 166.666 138.006 173.315 146.204 173.315Z"
    fill="#B6B5B0"
  />
  <path
    d="M152.646 175.72C158.913 175.72 163.994 170.637 163.994 164.368C163.994 158.098 158.913 153.015 152.646 153.015C146.379 153.015 141.299 158.098 141.299 164.368C141.299 170.637 146.379 175.72 152.646 175.72Z"
    fill="#F3F3F3"
  />
  <path
    d="M155.063 182.399C160.334 182.399 164.607 178.124 164.607 172.85C164.607 167.577 160.334 163.302 155.063 163.302C149.792 163.302 145.52 167.577 145.52 172.85C145.52 178.124 149.792 182.399 155.063 182.399Z"
    fill="#B6B5B0"
  />
  <path
    d="M142.055 177.738C148.58 177.738 153.87 172.445 153.87 165.917C153.87 159.388 148.58 154.096 142.055 154.096C135.529 154.096 130.239 159.388 130.239 165.917C130.239 172.445 135.529 177.738 142.055 177.738Z"
    fill="#B6B5B0"
  />
  <path
    d="M130.723 181.505C138.772 181.505 145.297 174.977 145.297 166.924C145.297 158.871 138.772 152.344 130.723 152.344C122.674 152.344 116.149 158.871 116.149 166.924C116.149 174.977 122.674 181.505 130.723 181.505Z"
    fill="#3C3C3C"
  />
  <path
    d="M149.572 192.886C156.552 192.886 162.21 187.225 162.21 180.242C162.21 173.259 156.552 167.599 149.572 167.599C142.592 167.599 136.934 173.259 136.934 180.242C136.934 187.225 142.592 192.886 149.572 192.886Z"
    fill="#3C3C3C"
  />
  <path
    d="M137.602 200.475C145.99 200.475 152.789 193.673 152.789 185.281C152.789 176.89 145.99 170.087 137.602 170.087C129.214 170.087 122.415 176.89 122.415 185.281C122.415 193.673 129.214 200.475 137.602 200.475Z"
    fill="#3C3C3C"
  />
  <path
    d="M135.637 206.347C142.889 206.347 148.768 200.465 148.768 193.209C148.768 185.953 142.889 180.072 135.637 180.072C128.384 180.072 122.505 185.953 122.505 193.209C122.505 200.465 128.384 206.347 135.637 206.347Z"
    fill="#F3F3F3"
  />
  <path
    d="M118.382 158.128L122.415 136.849C122.415 136.849 123.921 136.875 124.351 135.235C124.78 133.596 126.906 129.319 126.906 129.319L131.478 150.032L143.497 119.018L140.377 97.3912L124.567 91.0967L104.214 106.429C104.214 106.429 91.147 133.68 91.2276 133.599C91.3083 133.518 110.586 120.552 110.586 120.552C110.586 120.552 108.544 124.444 107.473 126.604C106.405 128.763 106.586 129.448 106.586 129.448C106.586 129.448 102.33 135.6 100.01 139.977C97.6903 144.354 85.2296 167.073 85.7523 168.403C86.275 169.732 95.9544 177.602 96.4803 178.125C97.0062 178.648 101.61 178.819 103.382 178.796C105.153 178.774 112.371 177.641 113.623 174.778C114.874 171.915 116.565 170.136 116.988 167.676C117.41 165.217 118.382 158.128 118.382 158.128Z"
    fill="#151515"
  />
  <path
    d="M121.58 135.613C121.096 135.184 119.16 134.645 119.16 134.645L113.217 131.901L109.342 129.664C109.342 129.664 108.296 129.373 106.58 129.448C106.58 129.448 102.324 135.6 100.004 139.977C97.6844 144.354 85.2238 167.073 85.7464 168.402C86.2691 169.732 95.9486 177.602 96.4745 178.125C97.0004 178.648 101.605 178.819 103.376 178.796C105.147 178.771 112.365 177.641 113.617 174.778C114.869 171.914 116.559 170.136 116.982 167.676C117.405 165.216 118.376 158.128 118.376 158.128L122.409 136.849C122.409 136.849 122.06 136.042 121.576 135.613H121.58Z"
    fill="#F3F3F3"
  />
  <path
    d="M138.305 100.054L122.818 96.342L118.14 101.32L107.976 122.308C109.557 121.246 110.583 120.555 110.583 120.555C110.583 120.555 108.541 124.448 107.47 126.607C107.218 127.114 107.038 127.537 106.905 127.892C107.77 127.446 109.212 126.93 111.226 126.93C114.749 126.93 117.704 128.786 117.704 128.786L121.066 121.426L125.177 122.007L126.361 127.227L126.9 129.325L127.703 132.966L137.87 108.611L138.299 100.057L138.305 100.054Z"
    fill="#3C3C3C"
  />
  <path
    d="M153.359 45.9314C149.962 44.6305 147.274 45.2019 145.722 45.8216C145.361 46.5899 144.98 47.4033 144.583 48.2523C146.509 47.4743 150.707 46.5511 154.462 49.1077C157.937 51.4705 159.344 54.2304 159.841 55.5119C160.193 54.7566 160.522 54.0529 160.822 53.4073C160.115 50.812 157.957 47.6938 153.359 45.9346V45.9314Z"
    fill="#151515"
  />
  <path
    d="M124.909 174.937C130.432 174.937 134.909 170.46 134.909 164.937C134.909 159.414 130.432 154.937 124.909 154.937C119.386 154.937 114.909 159.414 114.909 164.937C114.909 170.46 119.386 174.937 124.909 174.937Z"
    fill="#F3F3F3"
  />
  <path
    d="M133.409 186.937C139.208 186.937 143.909 182.236 143.909 176.437 143.909 170.638 139.208 165.937 133.409 165.937 127.61 165.937 122.909 170.638 122.909 176.437 122.909 182.236 127.61 186.937 133.409 186.937zM154.463 49.1045C150.707 46.5512 146.513 47.4712 144.583 48.2491 137.388 63.5947 124.563 91.0935 124.563 91.0935L110.999 119.822C112.251 119.357 115.8 119.157 119.791 120.771 123.782 122.385 126.367 127.221 126.367 127.221L140.376 97.388C140.376 97.388 153.727 68.6303 159.845 55.5055 159.345 54.224 157.941 51.4641 154.466 49.1013L154.463 49.1045z"
    fill="#F3F3F3"
  />
  <path
    d="M157.825 38.8298C154.311 37.3256 150.911 37.8485 149.313 38.2488C149.301 38.2714 149.288 38.2972 149.275 38.3166C148.965 38.9331 147.629 41.7672 145.726 45.8183C147.278 45.1985 149.962 44.6272 153.363 45.928C157.96 47.6873 160.119 50.8055 160.825 53.4007C161.38 52.2096 161.842 51.2251 162.181 50.502C163.042 48.6686 163.742 46.8835 164.317 45.1598C163.542 43.6717 161.497 40.3986 157.825 38.8266V38.8298Z"
    fill="#F3F3F3"
  />
  <path
    d="M166.185 31.2184C165.595 26.9414 164.84 26.3765 161.723 27.5063C158.629 28.6264 150.824 35.3599 149.311 38.2521C150.911 37.8518 154.308 37.3289 157.822 38.8331C161.494 40.4051 163.539 43.6783 164.314 45.1663C166.214 39.4626 166.64 34.5077 166.185 31.2217V31.2184Z"
    fill="#151515"
  />
  <path
    d="M114.858 155.223C114.858 155.223 117.601 148.712 119.188 144.303C120.775 139.89 121.582 137.792 121.582 135.613C118.543 131.068 113.893 129.506 109.186 129.667C106.902 130.69 104.401 135.613 103.485 137.308C102.572 139.002 96.9511 151.081 96.9511 151.081L105.985 142.44L95.3379 173.729L105.233 158.774L103.888 165.849L114.603 145.297L114.858 155.223Z"
    fill="#E54116"
  />
  <path
    opacity=".2"
    d="M164.504 27.1028C163.62 29.9046 161.736 35.66 160.245 38.6394C158.303 42.5259 123.631 116 121.072 121.42C124.328 123.402 126.367 127.22 126.367 127.22L140.376 97.3879C140.376 97.3879 158.47 58.4105 162.181 50.5021C165.891 42.5936 166.778 35.4922 166.188 31.2152C165.836 28.678 165.43 27.4482 164.504 27.1028Z"
    fill="#151515"
  />
  <path
    d="M121.153 186.356C129.204 186.356 135.731 179.827 135.731 171.773C135.731 163.718 129.204 157.189 121.153 157.189C113.103 157.189 106.576 163.718 106.576 171.773C106.576 179.827 113.103 186.356 121.153 186.356Z"
    fill="#B6B5B0"
  />
  <path
    d="M114.651 196.433C122.24 196.433 128.392 190.278 128.392 182.685C128.392 175.092 122.24 168.937 114.651 168.937C107.061 168.937 100.909 175.092 100.909 182.685C100.909 190.278 107.061 196.433 114.651 196.433Z"
    fill="#3C3C3C"
  />
  <path
    d="M129.016 205.391C135.659 205.391 141.044 200.004 141.044 193.358C141.044 186.712 135.659 181.324 129.016 181.324C122.373 181.324 116.987 186.712 116.987 193.358C116.987 200.004 122.373 205.391 129.016 205.391Z"
    fill="#B6B5B0"
  />
  <path
    d="M123.973 207.596C129.289 207.596 133.598 203.285 133.598 197.967C133.598 192.649 129.289 188.338 123.973 188.338C118.658 188.338 114.349 192.649 114.349 197.967C114.349 203.285 118.658 207.596 123.973 207.596Z"
    fill="#B6B5B0"
  />
  <path
    d="M82.4677 192.964C91.0103 192.964 97.9354 186.036 97.9354 177.489C97.9354 168.943 91.0103 162.014 82.4677 162.014C73.9251 162.014 67 168.943 67 177.489C67 186.036 73.9251 192.964 82.4677 192.964Z"
    fill="#3C3C3C"
  />
  <path
    d="M92.3353 199.742C99.7249 199.742 105.715 193.749 105.715 186.356C105.715 178.963 99.7249 172.97 92.3353 172.97C84.9456 172.97 78.9551 178.963 78.9551 186.356C78.9551 193.749 84.9456 199.742 92.3353 199.742Z"
    fill="#3C3C3C"
  />
  <path
    d="M106.85 210.86C116.207 210.86 123.793 203.271 123.793 193.91C123.793 184.548 116.207 176.96 106.85 176.96C97.4935 176.96 89.9082 184.548 89.9082 193.91C89.9082 203.271 97.4935 210.86 106.85 210.86Z"
    fill="#B6B5B0"
  />
  <path
    d="M114.349 212.064C120.72 212.064 125.884 206.897 125.884 200.524C125.884 194.15 120.72 188.984 114.349 188.984C107.979 188.984 102.814 194.15 102.814 200.524C102.814 206.897 107.979 212.064 114.349 212.064Z"
    fill="#F3F3F3"
  />
</svg>
