<svg
  width="240"
  height="240"
  viewBox="0 0 240 240"
  fill="none"
  xmlns="http://www.w3.org/2000/svg"
  data-fui-pictogram="true"
>
  <path
    d="M146.334 164.045L121.711 151.846L76.813 140.744L41.8535 156.516L103.651 185.341L146.334 164.045Z"
    fill="#B6B5B0"
  />
  <path
    d="M39.835 159.479V180.168L103.705 209.495L147.899 187.349V167.161L103.652 189.159L39.835 159.479Z"
    fill="#151515"
  />
  <path
    d="M103.652 185.342L41.8544 156.516L39.835 159.477L103.652 189.157L147.899 167.159L146.335 164.046L103.652 185.342Z"
    fill="#F3F3F3"
  />
  <path
    d="M121.763 141.099L91.5957 120.658L80.1455 126.836C80.1455 126.836 92.3535 133.264 95.2316 134.921C98.1098 136.578 101.237 140.244 100.628 147.325C100.024 154.407 97.7547 175.396 97.7547 175.396L122.881 162.49L121.773 141.099H121.763Z"
    fill="#151515"
  />
  <path
    d="M95.2294 134.921C92.356 133.265 80.1433 126.838 80.1433 126.838L69.4463 161.637L97.7477 175.398C97.7477 175.398 100.017 154.407 100.621 147.326C101.225 140.245 98.0979 136.578 95.2245 134.921H95.2294Z"
    fill="#F3F3F3"
  />
  <path
    d="M97.3046 142.445C96.1197 138.654 92.7187 136.333 89.7111 137.264C86.7035 138.195 85.226 142.024 86.4109 145.816C87.5957 149.607 90.9967 151.928 94.0043 150.997C97.0119 150.066 98.4893 146.237 97.3046 142.445ZM92.8723 147.797C91.318 148.28 89.548 147.047 88.9197 145.043C88.2913 143.037 89.0491 141.022 90.6034 140.54C92.1575 140.057 93.9276 141.289 94.556 143.295C95.1843 145.301 94.4264 147.315 92.8723 147.797Z"
    fill="#151515"
  />
  <path
    d="M104.575 152.43L117.541 146.843L117.253 142.508L116.85 142.588L117.085 146.523L115.742 145.702L115.723 146.169L106.71 150.457L105.549 150.089L104.575 151.928V152.43Z"
    fill="#B6B5B0"
  />
  <path
    d="M104.913 149.384L105.719 148.163C105.719 148.163 105.633 143.727 105.465 141.535C105.297 139.343 103.666 134.487 100.116 132.85C96.5667 131.207 90.5322 128.533 90.5322 128.533L90.8535 129.201C90.8535 129.201 98.3031 132.567 99.7661 133.484C101.229 134.402 103.148 135.844 104.189 139.377C105.23 142.91 104.913 149.384 104.913 149.384Z"
    fill="#B6B5B0"
  />
  <path
    d="M88.5548 123.236L86.8711 127.238L88.0463 127.844L89.8452 123.59L89.4422 123.857L88.5548 123.236Z"
    fill="#B6B5B0"
  />
  <path
    d="M192.514 106.381C183.971 92.1858 165.944 74.9105 148.589 61.7893C131.234 48.6681 113.006 38.3545 95.4494 32.7966C77.8929 27.2387 66.3229 29.4494 62.2216 37.5524C62.14 37.7146 62.0633 37.8913 61.9865 38.0632C61.8235 38.7747 59.3962 50.6354 73.1871 67.4809C87.4147 84.8565 104.132 103.536 140.487 124.832C170.266 142.274 186.167 141.362 192.758 139.853C196.279 137.614 198.452 135.245 199.613 133.068C202.237 128.146 201.057 120.582 192.519 106.386L192.514 106.381Z"
    fill="#F3F3F3"
  />
  <path
    d="M69.4507 34.1335C62.4665 37.9629 64.2029 48.3959 70.3573 58.1366C76.5116 67.8772 89.1226 84.6511 116.469 106.042C143.816 127.434 166.682 133.966 175.831 136.712C184.979 139.456 196.02 137.666 197.69 128.943C199.364 120.219 191.032 104.304 175.423 87.8981C159.819 71.4917 140.847 58.1699 127.33 49.666C113.807 41.162 83.0018 26.6991 69.4459 34.1335H69.4507Z"
    fill="#7B7B7B"
  />
  <path
    d="M160.392 32.0798L159.437 30.251C159.437 30.251 158.152 32.0463 156.459 34.4098C156.459 36.0572 156.857 40.0107 160.349 43.0093C163.87 46.0365 168.302 46.0126 170.092 45.8551C171.699 43.7876 172.912 42.2597 172.912 42.2597L160.397 32.0845L160.392 32.0798Z"
    fill="#F3F3F3"
  />
  <path
    d="M155.211 54.0215L143.968 123.963C145.642 124.847 147.263 125.663 148.85 126.436L159.898 54.0262H155.217L155.211 54.0215Z"
    fill="#151515"
  />
  <path
    d="M153.602 51.9736L119.131 98.9626C120.025 100.23 120.904 101.434 121.775 102.587L157.025 53.7151L153.602 51.9736Z"
    fill="#151515"
  />
  <path
    d="M162.574 54.0215H159.893L148.846 126.432C149.805 126.899 150.76 127.353 151.686 127.783L162.574 54.0215Z"
    fill="#B6B5B0"
  />
  <path
    d="M151.427 53.9713L150.559 51.9468L96.8965 89.3193C97.4385 89.8302 97.9902 90.3459 98.5514 90.8663L151.427 53.9713Z"
    fill="#B6B5B0"
  />
  <path
    d="M148.906 48.0946L94.0967 86.6369C94.9985 87.5155 95.9339 88.4132 96.898 89.3157L150.561 51.9431L148.906 48.0898V48.0946Z"
    fill="#151515"
  />
  <path
    d="M140.481 124.825C104.126 103.534 87.4088 84.8505 73.1814 67.4748C59.3904 50.6293 61.8176 38.7687 61.9807 38.0571C58.1768 46.5659 59.6878 68.8596 64.4367 84.3491C69.2815 100.149 80.0744 113.91 94.2203 126.181C94.2203 126.181 105.872 136.022 122.421 142.353C138.97 148.68 155.615 150.289 172.419 147.076C181.777 145.285 188.33 142.669 192.757 139.852C186.166 141.361 170.265 142.272 140.486 124.83L140.481 124.825Z"
    fill="#B6B5B0"
  />
  <path
    d="M140.367 139.408C129.081 134.571 115.817 125.852 115.683 125.767L115.908 125.432C116.042 125.517 129.276 134.218 140.531 139.04L140.372 139.408H140.367Z"
    fill="#151515"
  />
  <path
    d="M105.143 118.656C105.009 118.551 91.6398 107.956 85.543 101.223L85.8453 100.956C91.9181 107.66 105.263 118.236 105.397 118.341L105.148 118.656H105.143Z"
    fill="#151515"
  />
  <path
    d="M77.5932 92.3103C77.5357 92.2386 71.7939 84.8663 68.6279 79.1604C65.4524 73.4354 65.1502 71.5159 65.1406 71.4347L65.5387 71.3774C65.5387 71.3774 65.8554 73.3351 68.978 78.9646C72.1296 84.6419 77.8522 91.9903 77.9099 92.062L77.5932 92.3103Z"
    fill="#151515"
  />
  <path
    d="M160.345 43.0055C156.853 40.0069 156.456 36.0532 156.456 34.406C153.63 38.35 149.678 43.8697 148.684 45.2496C147.101 47.4603 147.375 52.4787 151.308 55.5967C155.241 58.7099 160.792 58.6096 163.651 54.4603C165.263 52.1158 168.002 48.5347 170.083 45.856C168.299 46.0135 163.866 46.0375 160.341 43.0103L160.345 43.0055Z"
    fill="#151515"
  />
  <path
    d="M172.907 42.2618C174.902 40.0442 173.504 35.5578 169.785 32.2413C166.064 28.9249 161.431 28.0341 159.435 30.2519C157.441 32.4696 158.838 36.9559 162.558 40.2725C166.278 43.5889 170.911 44.4796 172.907 42.2618Z"
    fill="#FA4616"
  />
</svg>
