<svg
  width="240"
  height="240"
  viewBox="0 0 240 240"
  fill="none"
  xmlns="http://www.w3.org/2000/svg"
  data-fui-pictogram="true"
>
  <path stroke="#000" stroke-opacity=".01" d="M0.5 0.5H239.5V239.5H0.5z" />
  <path
    d="M128.041 216.976L128.955 218.488H129.593L130.991 215.002L150.085 171.826L152.908 164.267L152.347 163.801L148.279 164.267L143.603 161.235L142.674 104.339L144.038 101.742L143.496 101.241L136.816 100.364L136.57 80.6177L138.774 73.493L138.198 73.0286L134.926 73.493L131.415 72.804L130.17 71.1147L131.273 67.4503L130.94 66.9042H129.572L126.821 66.3835L124.918 50.8022L126.183 47.8472L125.744 47.3572H124.514L122.993 46.3212L121.391 45.6577L118.89 46.1221L116.552 47.7348L114.393 48.2759L113.837 48.8373L114.138 50.2561L113.219 65.9294L109.044 68.4404L108.697 69.0478L109.371 72.3753L108.105 78.2445L102.333 80.3216L101.787 80.8321L104.129 100.792L98.4896 100.609L97.4535 101.048L96.9584 101.65L101.639 126.321L101.761 156.335L97.4586 157.621H97.0554L96.5501 157.729L95.5905 159.949L91.9055 165.761L87.0823 165.615L86.6943 166.074L88.0418 168.763L102.864 196.205L105.849 209.164L111.157 211.306L122.667 212.889L128.041 216.976Z"
    fill="#F3F3F3"
  />
  <path
    d="M152.347 163.803L129.261 182.671L87.0825 165.615L96.5503 157.729V164.548L127.378 177.001L144.497 163.145L143.43 161.97V160.501L152.347 163.803Z"
    fill="#3C3C3C"
  />
  <path d="M101.986 103.063L97.4536 101.048L101.986 97.082L102.251 103.063" fill="#3C3C3C" />
  <path
    d="M117.38 50.9967L117.084 50.8027C117.084 50.8027 116.15 71.8605 115.991 74.8971C115.833 77.9337 115.736 81.047 115.736 81.047L117.385 80.1742L118.038 53.1351L117.528 51.0222"
    fill="#222"
  />
  <path d="M117.241 49.2201L114.393 48.2759L117.649 45.6577L117.241 49.2201Z" fill="#3C3C3C" />
  <path
    d="M122.529 46.8009L118.798 50.1182V50.4397L119.344 52.8996C119.344 52.8996 119.323 80.5869 119.303 80.7197C119.282 80.8523 117.552 81.0514 117.552 81.0514L117.083 79.9949L117.154 79.7192L117.083 49.0208L119.696 22.1247L120.196 22.0583L122.529 46.8009Z"
    fill="#3C3C3C"
  />
  <path d="M122.994 46.3208V47.0659L119.595 50.0107L121.836 50.715L125.745 47.3568L122.994 46.3208Z" fill="#3C3C3C" />
  <path
    d="M128.016 69.7382V78.7411L127.755 79.4454L126.76 79.2667L125.627 68.6665L126.02 68.9421L128.016 69.7382Z"
    fill="#3C3C3C"
  />
  <path d="M126.045 68.2669L128.25 69.1142L130.94 66.9043L127.082 65.4343L125.627 67.9301" fill="#3C3C3C" />
  <path
    d="M122.657 83.9048L122.382 83.4864L122.178 51.3641L126.184 47.8477L128.017 66.6955L126.016 68.8695L126.674 76.8823L127.496 79.3576L122.846 84.0784"
    fill="#222"
  />
  <path
    d="M128.25 78.613L128.392 69.8347L131.272 67.4512L131.45 70.7381L131.731 71.8965C131.731 71.8965 132.563 74.9486 132.645 75.4793C132.725 76.0101 132.308 76.694 131.511 77.3166C130.709 77.9393 128.76 78.9294 128.76 78.9294"
    fill="#222"
  />
  <path
    d="M131.455 70.7314L131.803 75.1564L122.386 83.4854L121.707 83.2353L120.487 80.8826L119.635 81.0511L116.95 79.6118L115.149 81.0511L111.469 79.3565L111.234 79.6679L110.851 79.5097C110.851 79.5097 109.958 77.3763 109.667 76.8253C109.381 76.2689 108.662 74.9522 108.662 74.9522L102.328 80.3262L121.947 87.6654L138.193 73.0332L131.45 70.7365L131.455 70.7314Z"
    fill="#3C3C3C"
  />
  <path d="M86.6943 166.072L128.955 183.266V218.488L86.6943 201.431V166.072Z" fill="#B6B5B0" />
  <path d="M129.593 183.344L152.908 164.267V199.598L129.593 218.488V183.344Z" fill="#222" />
  <path
    d="M97.0703 164.174C97.0703 164.174 96.9121 101.649 96.9581 101.649C97.004 101.649 101.786 103.599 101.786 103.599V80.8313L121.615 88.3133V113.091L126.76 115.332V176.147L97.0703 164.174Z"
    fill="#B6B5B0"
  />
  <path d="M127.419 115.354L144.038 101.743V162.644L127.357 176.148L127.419 115.354Z" fill="#222" />
  <path
    d="M111.709 76.8218L111.637 74.9436L111.709 69.401L109.049 68.4416L112.091 66.1398L113.26 55.6978L113.587 60.1737C113.587 60.1737 113.546 69.0438 113.352 70.8965C113.158 72.749 111.709 76.8218 111.709 76.8218Z"
    fill="#3C3C3C"
  />
  <path d="M110.851 79.5045L108.105 78.244L108.697 69.0471L111.239 69.8944L110.851 79.5045Z" fill="#B6B5B0" />
  <path d="M111.239 79.6638L115.149 81.0519L116.435 49.7818L113.837 48.8376L111.239 79.6638Z" fill="#B6B5B0" />
  <path d="M117.634 81.6699L121.707 83.2368L121.631 51.4103L118.803 50.4355L117.634 81.6699Z" fill="#B6B5B0" />
  <path d="M103.885 94.2612L106.697 95.3586V91.8065L103.885 90.7295V94.2612Z" fill="#222" />
  <path d="M106.697 97.2622L103.885 96.1648V99.6761L106.697 100.794V97.2622Z" fill="#222" />
  <path d="M110.769 98.8538L107.763 97.6799V101.212L110.78 102.411L110.769 98.8538Z" fill="#222" />
  <path d="M110.764 96.9446L110.759 93.3568L107.763 92.2136V95.7709L110.764 96.9446Z" fill="#222" />
  <path d="M107.763 90.3097L110.754 91.4529L110.749 87.9058L107.763 86.7627V90.3097Z" fill="#222" />
  <path d="M111.831 97.3581L115.108 98.6391L115.113 95.0207L111.826 93.7651L111.831 97.3581Z" fill="#222" />
  <path d="M111.816 88.3105L111.822 91.8627L115.114 93.1233L115.119 89.5712L111.816 88.3105Z" fill="#222" />
  <path
    d="M119.212 96.5869L116.181 95.4285V99.052L119.223 100.241C119.223 98.9806 119.217 97.7353 119.212 96.592V96.5869Z"
    fill="#222"
  />
  <path
    d="M116.181 93.5265L119.207 94.685C119.202 92.5773 119.192 91.1277 119.192 91.1277L116.186 89.9795V93.5316L116.181 93.5265Z"
    fill="#222"
  />
  <path
    d="M106.697 102.701L103.885 101.583V104.829C103.885 104.829 105.033 105.293 106.697 105.967V102.696V102.701Z"
    fill="#222"
  />
  <path d="M106.697 89.903V86.361L103.885 85.2842V88.8261L106.697 89.903Z" fill="#222" />
  <path
    d="M116.165 106.456V109.789C117.926 110.498 119.166 110.993 119.186 110.993C119.207 110.993 119.217 109.651 119.222 107.666L116.16 106.451L116.165 106.456Z"
    fill="#222"
  />
  <path
    d="M110.79 107.626V104.324L107.763 103.125V106.402C108.697 106.779 109.733 107.198 110.79 107.626Z"
    fill="#222"
  />
  <path
    d="M115.102 106.035L111.851 104.744V108.056C112.979 108.51 114.091 108.96 115.102 109.363V106.035Z"
    fill="#222"
  />
  <path
    d="M119.227 102.149L116.175 100.96V104.548L119.232 105.762C119.232 104.635 119.232 103.405 119.232 102.154L119.227 102.149Z"
    fill="#222"
  />
  <path d="M111.835 99.2661L111.846 102.834L115.102 104.125L115.107 100.542L111.835 99.2661Z" fill="#222" />
  <path d="M103.818 142.163L106.416 143.184V139.218L103.818 138.218V142.163Z" fill="#222" />
  <path d="M110.605 147.124L107.834 146.032L107.829 149.594L110.605 150.697V147.124Z" fill="#222" />
  <path d="M106.411 149.033V145.475L103.818 144.449V148.002L106.411 149.033Z" fill="#222" />
  <path d="M107.844 124.759L110.595 125.806V121.779L107.849 120.671L107.844 124.759Z" fill="#222" />
  <path d="M110.601 138.391V134.722L107.84 133.696V137.33L110.601 138.391Z" fill="#222" />
  <path d="M110.607 144.832L110.602 140.825L107.836 139.764V143.74L110.607 144.832Z" fill="#222" />
  <path d="M110.605 156.678V152.987L107.829 151.885V155.616L110.605 156.678Z" fill="#222" />
  <path d="M119.202 150.507L116.446 149.425V153.009L119.197 154.1L119.202 150.507Z" fill="#222" />
  <path d="M112.026 147.685V151.258L115.022 152.448L115.027 148.864L112.026 147.685Z" fill="#222" />
  <path d="M115.02 154.738L112.029 153.55V157.219L115.015 158.357L115.02 154.738Z" fill="#222" />
  <path d="M116.471 128.036L119.217 129.077V125.249L116.476 124.142L116.471 128.036Z" fill="#222" />
  <path d="M112.02 128.776V132.828L115.042 133.951L115.047 129.924L112.02 128.776Z" fill="#222" />
  <path d="M112.021 126.346L115.053 127.495L115.058 123.57L112.016 122.35L112.021 126.346Z" fill="#222" />
  <path d="M116.47 130.466L116.465 134.482L119.211 135.503V131.507L116.47 130.466Z" fill="#222" />
  <path d="M110.596 128.24L107.845 127.193L107.84 131.271L110.601 132.297L110.596 128.24Z" fill="#222" />
  <path d="M103.818 129.771L106.421 130.741V126.653L103.818 125.663V129.771Z" fill="#222" />
  <path d="M116.461 136.907L116.456 140.643L119.207 141.704V137.927L116.461 136.907Z" fill="#222" />
  <path d="M116.43 165.14L116.425 168.646L119.186 169.752V166.2L116.43 165.14Z" fill="#222" />
  <path d="M112.026 145.393L115.032 146.572V142.53L112.026 141.377V145.393Z" fill="#222" />
  <path d="M119.206 144.139L116.455 143.083L116.45 147.135L119.201 148.217L119.206 144.139Z" fill="#222" />
  <path d="M112.025 138.936L115.036 140.095L115.042 136.374L112.02 135.251L112.025 138.936Z" fill="#222" />
  <path d="M115.01 164.592L112.029 163.444L112.034 166.885L115.005 168.078L115.01 164.592Z" fill="#222" />
  <path d="M112.029 158.739V161.923L115.01 163.072L115.015 159.876L112.029 158.739Z" fill="#222" />
  <path d="M110.611 166.317V162.898L107.825 161.827V165.2L110.611 166.317Z" fill="#222" />
  <path d="M119.192 161.471L116.436 160.419L116.431 163.619L119.192 164.68V161.471Z" fill="#222" />
  <path d="M106.406 161.282L103.818 160.287V163.593L106.401 164.629L106.406 161.282Z" fill="#222" />
  <path d="M110.606 158.197L107.83 157.135L107.825 160.3L110.611 161.377L110.606 158.197Z" fill="#222" />
  <path d="M116.44 155.299L116.435 158.898L119.191 159.949L119.196 156.391L116.44 155.299Z" fill="#222" />
  <path d="M106.431 111.836V108.289L103.818 107.197V110.79L106.431 111.836Z" fill="#222" />
  <path d="M116.486 115.874L119.222 116.977L119.227 113.618L116.486 112.475V115.874Z" fill="#222" />
  <path d="M107.852 112.41L110.592 113.512V110.021L107.857 108.883L107.852 112.41Z" fill="#222" />
  <path d="M110.597 119.477L110.592 115.808L107.852 114.705V118.375L110.597 119.477Z" fill="#222" />
  <path d="M112.01 110.612L112.015 114.082L115.062 115.302L115.067 111.883L112.01 110.612Z" fill="#222" />
  <path d="M116.482 118.17L116.477 121.845L119.222 122.947V119.272L116.482 118.17Z" fill="#222" />
  <path d="M112.016 120.049L115.058 121.274L115.063 117.6L112.016 116.38V120.049Z" fill="#222" />
  <path d="M103.818 116.753L106.426 117.804L106.431 114.135L103.818 113.088V116.753Z" fill="#222" />
  <path d="M106.406 155.075L106.411 151.324L103.818 150.298V154.091L106.406 155.075Z" fill="#222" />
  <path d="M106.416 136.782L106.421 133.164L103.818 132.194V135.782L106.416 136.782Z" fill="#222" />
  <path d="M106.406 156.595L103.818 155.611V158.759L106.406 159.753V156.595Z" fill="#222" />
  <path d="M106.426 124.219V120.1L103.818 119.049V123.234L106.426 124.219Z" fill="#222" />
  <path
    d="M101.211 128.525V124.702L98.4902 123.6V127.289C99.0465 127.524 99.8938 127.912 101.211 128.525Z"
    fill="#222"
  />
  <path d="M101.195 143.444L98.4902 142.392V145.868L101.195 146.97V143.444Z" fill="#222" />
  <path d="M101.216 122.178V118.263L98.4902 117.176V121.075L101.216 122.178Z" fill="#222" />
  <path d="M98.4902 114.648L101.221 115.74V112.081L98.4902 110.989V114.648Z" fill="#222" />
  <path d="M101.185 154.008L98.4902 152.957V156.454L101.185 157.638V154.008Z" fill="#222" />
  <path d="M101.226 109.556V106.08L98.4902 104.942V108.469L101.226 109.556Z" fill="#222" />
  <path d="M98.4902 158.004V161.53L101.18 162.603L101.185 159.189L98.4902 158.004Z" fill="#222" />
  <path d="M98.4902 148.168V151.424L101.19 152.48V149.27L98.4902 148.168Z" fill="#222" />
  <path d="M98.4902 136.17V139.871L101.2 140.927V137.288L98.4902 136.17Z" fill="#222" />
  <path
    d="M98.4902 129.858V133.64L101.205 134.758V131.114C100.246 130.665 99.2557 130.21 98.4902 129.858Z"
    fill="#222"
  />
  <path
    d="M124.944 138.056V134.269L122.224 133.177V136.831C122.78 137.066 123.627 137.448 124.944 138.056Z"
    fill="#222"
  />
  <path d="M124.934 152.841L122.224 151.794V155.244L124.929 156.336L124.934 152.841Z" fill="#222" />
  <path d="M124.949 131.762L124.954 127.883L122.224 126.807V130.67L124.949 131.762Z" fill="#222" />
  <path d="M122.224 124.307L124.954 125.383L124.959 121.76L122.224 120.683V124.307Z" fill="#222" />
  <path d="M124.924 163.307L122.224 162.267V165.733L124.918 166.906L124.924 163.307Z" fill="#222" />
  <path d="M124.959 119.257L124.964 115.812L122.224 114.684V118.175L124.959 119.257Z" fill="#222" />
  <path d="M122.224 167.268V170.765L124.913 171.825L124.918 168.441L122.224 167.268Z" fill="#222" />
  <path d="M122.224 157.526V160.75L124.924 161.797L124.929 158.617L122.224 157.526Z" fill="#222" />
  <path d="M122.224 145.634V149.303L124.934 150.345L124.939 146.741L122.224 145.634Z" fill="#222" />
  <path
    d="M122.224 139.375V143.121L124.939 144.229V140.616C123.979 140.172 122.989 139.723 122.224 139.375Z"
    fill="#222"
  />
  <path d="M136.198 108.162L135.488 108.744L135.559 169.502L136.275 168.932L136.198 108.162Z" fill="#B6B5B0" />
  <path d="M130.583 173.536L131.293 172.96V112.185L130.583 112.766V173.536Z" fill="#B6B5B0" />
  <path d="M141.081 104.167L140.366 104.749L140.397 165.589L141.111 165.013L141.081 104.167Z" fill="#B6B5B0" />
  <path d="M138.776 73.4944L122.29 88.2541L122.254 112.542L138.822 99.125L138.776 73.4944Z" fill="#222" />
  <path d="M138.822 99.1257L122.254 112.543L127.037 114.687L143.497 101.244L138.822 99.1257Z" fill="#3C3C3C" />
  <path d="M104.263 176.709L101.333 175.52V207.341L104.401 208.576L104.263 176.709Z" fill="#222" />
  <path d="M108.8 178.557L105.687 177.291L105.783 199.437L108.713 200.738L108.8 178.557Z" fill="#222" />
  <path d="M99.9091 174.943L96.9385 173.734L96.9795 205.586L99.9091 206.764V174.943Z" fill="#222" />
  <path d="M92.4414 203.753L95.56 205.01L95.5192 173.158L92.4414 171.907V203.753Z" fill="#222" />
  <path d="M123.335 184.463V216.222L126.3 217.417V185.667L123.335 184.463Z" fill="#222" />
  <path d="M91.0175 171.331L88.042 170.121V201.979L91.0175 203.177V171.331Z" fill="#222" />
  <path d="M121.913 183.887L119.049 182.723V214.492L121.913 215.646V183.887Z" fill="#222" />
  <path d="M113.244 180.359L110.218 179.135L110.095 210.878L113.152 212.109L113.244 180.359Z" fill="#222" />
  <path d="M117.628 182.139L114.663 180.935L114.571 212.684L117.628 213.915V182.139Z" fill="#222" />
  <path d="M104.614 208.701L109.748 210.772V202.596L104.614 200.423V208.701Z" fill="#222" />
  <path d="M105.154 208.92L109.248 210.574V203.092L105.154 201.346V208.92Z" fill="#FA4616" />
  <path d="M139.372 175.343L138.663 175.924V211.14L139.372 210.568V175.343Z" fill="#B6B5B0" />
  <path d="M133.446 215.37L134.156 214.792L134.125 179.639L133.416 180.215L133.446 215.37Z" fill="#B6B5B0" />
  <path d="M149.673 166.916L148.963 167.497L149.025 202.748L149.733 202.172L149.673 166.916Z" fill="#B6B5B0" />
  <path d="M144.706 170.979L143.996 171.56L144.058 206.771L144.768 206.199L144.706 170.979Z" fill="#B6B5B0" />
</svg>
