<svg
  width="240"
  height="240"
  viewBox="0 0 240 240"
  fill="none"
  xmlns="http://www.w3.org/2000/svg"
  data-fui-pictogram="true"
>
  <path stroke="#000" stroke-opacity=".01" d="M0.5 0.5H239.5V239.5H0.5z" />
  <path
    d="M128.041 216.976L128.955 218.488H129.593L130.991 215.002L150.085 171.826L152.908 164.267L152.347 163.801L148.279 164.267L143.603 161.235L142.674 104.339L144.038 101.742L143.496 101.241L136.816 100.364L136.57 80.6177L138.774 73.493L138.198 73.0286L134.926 73.493L131.415 72.804L130.17 71.1147L131.273 67.4503L130.94 66.9042H129.572L126.821 66.3835L124.918 50.8022L126.183 47.8472L125.744 47.3572H124.514L122.993 46.3212L121.391 45.6577L118.89 46.1221L116.552 47.7348L114.393 48.2759L113.837 48.8373L114.138 50.2561L113.219 65.9294L109.044 68.4404L108.697 69.0478L109.371 72.3753L108.105 78.2445L102.333 80.3216L101.787 80.8321L104.129 100.792L98.4896 100.609L97.4535 101.048L96.9584 101.65L101.639 126.321L101.761 156.335L97.4586 157.621H97.0554L96.5501 157.729L95.5905 159.949L91.9055 165.761L87.0823 165.615L86.6943 166.074L88.0418 168.763L102.864 196.205L105.849 209.164L111.157 211.306L122.667 212.889L128.041 216.976Z"
    fill="#F3F3F3"
  />
  <path
    d="M152.347 163.803L129.261 182.671 87.0825 165.615 96.5503 157.729V164.548L127.378 177.001 144.497 163.145 143.43 161.97V160.501L152.347 163.803zM101.986 103.063L97.4536 101.048 101.986 97.082 102.251 103.063"
    fill="#3C3C3C"
  />
  <path
    d="M117.38 50.9967L117.084 50.8027C117.084 50.8027 116.15 71.8605 115.991 74.8971C115.833 77.9337 115.736 81.047 115.736 81.047L117.385 80.1742L118.038 53.1351L117.528 51.0222"
    fill="#222"
  />
  <path d="M117.241 49.2201L114.393 48.2759L117.649 45.6577L117.241 49.2201Z" fill="#3C3C3C" />
  <path
    d="M122.529 46.8009L118.798 50.1182V50.4397L119.344 52.8996C119.344 52.8996 119.323 80.5869 119.303 80.7197C119.282 80.8523 117.552 81.0514 117.552 81.0514L117.083 79.9949L117.154 79.7192L117.083 49.0208L119.696 22.1247L120.196 22.0583L122.529 46.8009Z"
    fill="#3C3C3C"
  />
  <path
    d="M122.994 46.3208V47.0659L119.595 50.0107 121.836 50.715 125.745 47.3568 122.994 46.3208zM128.016 69.7382V78.7411L127.755 79.4454 126.76 79.2667 125.627 68.6665 126.02 68.9421 128.016 69.7382zM126.045 68.2669L128.25 69.1142 130.94 66.9043 127.082 65.4343 125.627 67.9301"
    fill="#3C3C3C"
  />
  <path
    d="M122.657 83.9048L122.382 83.4864 122.178 51.3641 126.184 47.8477 128.017 66.6955 126.016 68.8695 126.674 76.8823 127.496 79.3576 122.846 84.0784M128.25 78.613L128.392 69.8347 131.272 67.4512 131.45 70.7381 131.731 71.8965C131.731 71.8965 132.563 74.9486 132.645 75.4793 132.725 76.0101 132.308 76.694 131.511 77.3166 130.709 77.9393 128.76 78.9294 128.76 78.9294"
    fill="#222"
  />
  <path
    d="M131.455 70.7314L131.803 75.1564L122.386 83.4854L121.707 83.2353L120.487 80.8826L119.635 81.0511L116.95 79.6118L115.149 81.0511L111.469 79.3565L111.234 79.6679L110.851 79.5097C110.851 79.5097 109.958 77.3763 109.667 76.8253C109.381 76.2689 108.662 74.9522 108.662 74.9522L102.328 80.3262L121.947 87.6654L138.193 73.0332L131.45 70.7365L131.455 70.7314Z"
    fill="#3C3C3C"
  />
  <path d="M86.6943 166.072L128.955 183.266V218.488L86.6943 201.431V166.072Z" fill="#B6B5B0" />
  <path d="M129.593 183.344L152.908 164.267V199.598L129.593 218.488V183.344Z" fill="#222" />
  <path
    d="M97.0703 164.174C97.0703 164.174 96.9121 101.649 96.9581 101.649C97.004 101.649 101.786 103.599 101.786 103.599V80.8313L121.615 88.3133V113.091L126.76 115.332V176.147L97.0703 164.174Z"
    fill="#B6B5B0"
  />
  <path d="M127.419 115.354L144.038 101.743V162.644L127.357 176.148L127.419 115.354Z" fill="#222" />
  <path
    d="M111.709 76.8218L111.637 74.9436L111.709 69.401L109.049 68.4416L112.091 66.1398L113.26 55.6978L113.587 60.1737C113.587 60.1737 113.546 69.0438 113.352 70.8965C113.158 72.749 111.709 76.8218 111.709 76.8218Z"
    fill="#3C3C3C"
  />
  <path
    d="M110.851 79.5045L108.105 78.244 108.697 69.0471 111.239 69.8944 110.851 79.5045zM111.239 79.6638L115.149 81.0519 116.435 49.7818 113.837 48.8376 111.239 79.6638zM117.634 81.6699L121.707 83.2368 121.631 51.4103 118.803 50.4355 117.634 81.6699z"
    fill="#B6B5B0"
  />
  <path
    d="M103.885 94.2612L106.697 95.3586V91.8065L103.885 90.7295V94.2612zM106.697 97.2622L103.885 96.1648V99.6761L106.697 100.794V97.2622zM110.769 98.8538L107.763 97.6799V101.212L110.78 102.411 110.769 98.8538zM110.764 96.9446L110.759 93.3568 107.763 92.2136V95.7709L110.764 96.9446zM107.763 90.3097L110.754 91.4529 110.749 87.9058 107.763 86.7627V90.3097zM111.831 97.3581L115.108 98.6391 115.113 95.0207 111.826 93.7651 111.831 97.3581zM111.816 88.3105L111.822 91.8627 115.114 93.1233 115.119 89.5712 111.816 88.3105zM119.212 96.5869L116.181 95.4285V99.052L119.223 100.241C119.223 98.9806 119.217 97.7353 119.212 96.592V96.5869zM116.181 93.5265L119.207 94.685C119.202 92.5773 119.192 91.1277 119.192 91.1277L116.186 89.9795V93.5316L116.181 93.5265zM106.697 102.701L103.885 101.583V104.829C103.885 104.829 105.033 105.293 106.697 105.967V102.696 102.701zM106.697 89.903V86.361L103.885 85.2842V88.8261L106.697 89.903zM116.165 106.456V109.789C117.926 110.498 119.166 110.993 119.186 110.993 119.207 110.993 119.217 109.651 119.222 107.666L116.16 106.451 116.165 106.456zM110.79 107.626V104.324L107.763 103.125V106.402C108.697 106.779 109.733 107.198 110.79 107.626zM115.102 106.035L111.851 104.744V108.056C112.979 108.51 114.091 108.96 115.102 109.363V106.035zM119.227 102.149L116.175 100.96V104.548L119.232 105.762C119.232 104.635 119.232 103.405 119.232 102.154L119.227 102.149zM111.835 99.2661L111.846 102.834 115.102 104.125 115.107 100.542 111.835 99.2661zM103.818 142.163L106.416 143.184V139.218L103.818 138.218V142.163zM110.605 147.124L107.834 146.032 107.829 149.594 110.605 150.697V147.124zM106.411 149.033V145.475L103.818 144.449V148.002L106.411 149.033zM107.844 124.759L110.595 125.806V121.779L107.849 120.671 107.844 124.759zM110.601 138.391V134.722L107.84 133.696V137.33L110.601 138.391zM110.607 144.832L110.602 140.825 107.836 139.764V143.74L110.607 144.832zM110.605 156.678V152.987L107.829 151.885V155.616L110.605 156.678zM119.202 150.507L116.446 149.425V153.009L119.197 154.1 119.202 150.507zM112.026 147.685V151.258L115.022 152.448 115.027 148.864 112.026 147.685zM115.02 154.738L112.029 153.55V157.219L115.015 158.357 115.02 154.738zM116.471 128.036L119.217 129.077V125.249L116.476 124.142 116.471 128.036zM112.02 128.776V132.828L115.042 133.951 115.047 129.924 112.02 128.776zM112.021 126.346L115.053 127.495 115.058 123.57 112.016 122.35 112.021 126.346zM116.47 130.466L116.465 134.482 119.211 135.503V131.507L116.47 130.466zM110.596 128.24L107.845 127.193 107.84 131.271 110.601 132.297 110.596 128.24zM103.818 129.771L106.421 130.741V126.653L103.818 125.663V129.771zM116.461 136.907L116.456 140.643 119.207 141.704V137.927L116.461 136.907zM116.43 165.14L116.425 168.646 119.186 169.752V166.2L116.43 165.14zM112.026 145.393L115.032 146.572V142.53L112.026 141.377V145.393zM119.206 144.139L116.455 143.083 116.45 147.135 119.201 148.217 119.206 144.139zM112.025 138.936L115.036 140.095 115.042 136.374 112.02 135.251 112.025 138.936zM115.01 164.592L112.029 163.444 112.034 166.885 115.005 168.078 115.01 164.592zM112.029 158.739V161.923L115.01 163.072 115.015 159.876 112.029 158.739zM110.611 166.317V162.898L107.825 161.827V165.2L110.611 166.317zM119.192 161.471L116.436 160.419 116.431 163.619 119.192 164.68V161.471zM106.406 161.282L103.818 160.287V163.593L106.401 164.629 106.406 161.282zM110.606 158.197L107.83 157.135 107.825 160.3 110.611 161.377 110.606 158.197zM116.44 155.299L116.435 158.898 119.191 159.949 119.196 156.391 116.44 155.299zM106.431 111.836V108.289L103.818 107.197V110.79L106.431 111.836zM116.486 115.874L119.222 116.977 119.227 113.618 116.486 112.475V115.874zM107.852 112.41L110.592 113.512V110.021L107.857 108.883 107.852 112.41zM110.597 119.477L110.592 115.808 107.852 114.705V118.375L110.597 119.477zM112.01 110.612L112.015 114.082 115.062 115.302 115.067 111.883 112.01 110.612zM116.482 118.17L116.477 121.845 119.222 122.947V119.272L116.482 118.17zM112.016 120.049L115.058 121.274 115.063 117.6 112.016 116.38V120.049zM103.818 116.753L106.426 117.804 106.431 114.135 103.818 113.088V116.753zM106.406 155.075L106.411 151.324 103.818 150.298V154.091L106.406 155.075zM106.416 136.782L106.421 133.164 103.818 132.194V135.782L106.416 136.782zM106.406 156.595L103.818 155.611V158.759L106.406 159.753V156.595zM106.426 124.219V120.1L103.818 119.049V123.234L106.426 124.219zM101.211 128.525V124.702L98.4902 123.6V127.289C99.0465 127.524 99.8938 127.912 101.211 128.525zM101.195 143.444L98.4902 142.392V145.868L101.195 146.97V143.444zM101.216 122.178V118.263L98.4902 117.176V121.075L101.216 122.178zM98.4902 114.648L101.221 115.74V112.081L98.4902 110.989V114.648zM101.185 154.008L98.4902 152.957V156.454L101.185 157.638V154.008zM101.226 109.556V106.08L98.4902 104.942V108.469L101.226 109.556zM98.4902 158.004V161.53L101.18 162.603 101.185 159.189 98.4902 158.004zM98.4902 148.168V151.424L101.19 152.48V149.27L98.4902 148.168zM98.4902 136.17V139.871L101.2 140.927V137.288L98.4902 136.17zM98.4902 129.858V133.64L101.205 134.758V131.114C100.246 130.665 99.2557 130.21 98.4902 129.858zM124.944 138.056V134.269L122.224 133.177V136.831C122.78 137.066 123.627 137.448 124.944 138.056zM124.934 152.841L122.224 151.794V155.244L124.929 156.336 124.934 152.841zM124.949 131.762L124.954 127.883 122.224 126.807V130.67L124.949 131.762zM122.224 124.307L124.954 125.383 124.959 121.76 122.224 120.683V124.307zM124.924 163.307L122.224 162.267V165.733L124.918 166.906 124.924 163.307zM124.959 119.257L124.964 115.812 122.224 114.684V118.175L124.959 119.257zM122.224 167.268V170.765L124.913 171.825 124.918 168.441 122.224 167.268zM122.224 157.526V160.75L124.924 161.797 124.929 158.617 122.224 157.526zM122.224 145.634V149.303L124.934 150.345 124.939 146.741 122.224 145.634zM122.224 139.375V143.121L124.939 144.229V140.616C123.979 140.172 122.989 139.723 122.224 139.375z"
    fill="#222"
  />
  <path
    d="M136.198 108.162L135.488 108.744 135.559 169.502 136.275 168.932 136.198 108.162zM130.583 173.536L131.293 172.96V112.185L130.583 112.766V173.536zM141.081 104.167L140.366 104.749 140.397 165.589 141.111 165.013 141.081 104.167z"
    fill="#B6B5B0"
  />
  <path d="M138.776 73.4944L122.29 88.2541L122.254 112.542L138.822 99.125L138.776 73.4944Z" fill="#222" />
  <path d="M138.822 99.1257L122.254 112.543L127.037 114.687L143.497 101.244L138.822 99.1257Z" fill="#3C3C3C" />
  <path
    d="M104.263 176.709L101.333 175.52V207.341L104.401 208.576 104.263 176.709zM108.8 178.557L105.687 177.291 105.783 199.437 108.713 200.738 108.8 178.557zM99.9091 174.943L96.9385 173.734 96.9795 205.586 99.9091 206.764V174.943zM92.4414 203.753L95.56 205.01 95.5192 173.158 92.4414 171.907V203.753zM123.335 184.463V216.222L126.3 217.417V185.667L123.335 184.463zM91.0175 171.331L88.042 170.121V201.979L91.0175 203.177V171.331zM121.913 183.887L119.049 182.723V214.492L121.913 215.646V183.887zM113.244 180.359L110.218 179.135 110.095 210.878 113.152 212.109 113.244 180.359zM117.628 182.139L114.663 180.935 114.571 212.684 117.628 213.915V182.139zM104.614 208.701L109.748 210.772V202.596L104.614 200.423V208.701z"
    fill="#222"
  />
  <path d="M105.154 208.92L109.248 210.574V203.092L105.154 201.346V208.92Z" fill="#FA4616" />
  <path
    d="M139.372 175.343L138.663 175.924V211.14L139.372 210.568V175.343zM133.446 215.37L134.156 214.792 134.125 179.639 133.416 180.215 133.446 215.37zM149.673 166.916L148.963 167.497 149.025 202.748 149.733 202.172 149.673 166.916zM144.706 170.979L143.996 171.56 144.058 206.771 144.768 206.199 144.706 170.979z"
    fill="#B6B5B0"
  />
</svg>
