<svg
  width="240"
  height="240"
  viewBox="0 0 240 240"
  fill="none"
  xmlns="http://www.w3.org/2000/svg"
  data-fui-pictogram="true"
>
  <path d="M68.834 160.192V173.159L77.4886 176.712V163.519L68.834 160.192Z" fill="#222" />
  <path d="M57.4561 155.656V168.483L65.4948 171.783V158.923L57.4561 155.656Z" fill="#222" />
  <path d="M80.8936 164.923V178.107L89.8 181.763V168.249L80.8936 164.923Z" fill="#222" />
  <path d="M94.1932 167.524L94.0044 183.488L101.126 178.904L101.265 161.853L94.1932 167.524Z" fill="#222" />
  <path
    d="M63.8904 144.111L62.1864 145.459L55.8696 150.444L54.1162 151.827L94.1974 167.526L101.269 161.851L104.223 159.481C84.3469 152.201 63.8949 144.106 63.8949 144.106L63.8904 144.111Z"
    fill="#F3F3F3"
  />
  <path
    d="M38.376 135.178C44.3286 138.491 59.2102 144.301 62.1865 145.454L63.8905 144.107C63.8905 144.107 52.79 139.626 50.9061 138.838C49.0224 138.049 38.7941 134.443 32.7245 128.922C28.876 125.42 27.0372 121.967 26.21 119.907C26.21 120.935 26.21 121.967 26.2145 122.986C28.3635 128.313 32.3785 131.838 38.3715 135.173L38.376 135.178Z"
    fill="#B6B5B0"
  />
  <path
    d="M35.2859 143.451C41.2161 147.215 54.1149 151.826 54.1149 151.826L55.8683 150.442C54.5195 149.879 51.8804 148.788 47.7351 147.125C41.3554 144.56 37.5653 143.294 32.1703 138.588C28.6364 135.505 26.973 131.652 26.2446 129.357C26.2491 130.75 26.2536 132.066 26.2626 133.265C27.6788 136.745 30.2729 140.26 35.2904 143.447L35.2859 143.451Z"
    fill="#B6B5B0"
  />
  <path
    d="M46.5378 119.522C51.9689 121.699 123.832 149.063 131.363 151.655C138.894 154.246 151.819 155.206 163.005 152.442C174.19 149.68 183.74 142.865 185.597 141.346C187.453 139.827 207.574 122.641 211.337 119.036C214.061 116.426 215.692 112.784 216.475 109.048C215.608 96.7881 209.866 91.8978 202.412 88.8373C193.996 85.3803 120.95 58.9004 114.692 56.6874C108.433 54.4698 102.067 53.2304 92.4728 53.343C82.8829 53.4556 73.2166 56.8721 68.8331 59.8423C64.4496 62.8082 34.0841 85.5156 34.0841 85.5156C27.8437 91.0279 26.7242 95.2736 26.4141 99.9657C26.6163 102.057 27.3941 105.473 30.1276 108.894C34.5112 114.38 41.1067 117.345 46.5378 119.522Z"
    fill="#B6B5B0"
  />
  <path
    d="M202.956 128.699L202.929 163.125C206.485 159.831 209.398 157.104 210.599 155.936C214.308 152.331 215.94 148.779 216.273 143.447C216.606 138.115 216.047 130.299 216.551 114.186C216.551 114.096 216.551 114.01 216.557 113.92C215.99 115.435 214.785 117.941 212.42 120.384C208.683 124.242 202.952 128.695 202.952 128.695L202.956 128.699Z"
    fill="#222"
  />
  <path
    d="M35.2877 143.452C30.2702 140.265 27.6716 136.75 26.2598 133.27C26.2777 136.916 26.2959 139.503 26.3048 139.923C26.3408 141.464 26.7904 144.168 27.5772 146.007C28.3639 147.846 31.4752 152.543 38.6281 155.847C45.7856 159.151 54.2515 162.233 54.2515 162.233L54.1122 151.831C54.1122 151.831 41.2134 147.22 35.2832 143.456L35.2877 143.452Z"
    fill="#222"
  />
  <path
    d="M159.945 182.439C152.716 184.165 140.276 184.129 132.595 181.537C125.47 179.136 105.836 171.459 103.035 170.364V179.684C108.974 182.097 127.097 189.403 133.045 191.152C140.203 193.256 148.445 194.158 157.436 193.03C166.428 191.904 177.106 186.572 181.975 182.291C185.014 179.618 193.96 171.428 201.158 164.771L201.209 155.571C198.272 158.19 186.776 168.394 181.637 172.374C175.717 176.958 167.174 180.712 159.945 182.439Z"
    fill="#222"
  />
  <path
    d="M123.686 168.255C113.97 165.006 103.031 161.026 103.031 161.026V167.998C105.005 168.801 115.328 173.001 123.686 176.223V168.251V168.255Z"
    fill="#222"
  />
  <path
    d="M125.318 176.854V168.8C124.778 168.624 124.234 168.439 123.69 168.259V176.232C124.243 176.444 124.787 176.656 125.318 176.859V176.854Z"
    fill="#B6B5B0"
  />
  <path
    d="M185.028 159.317C178.562 164.671 168.6 169.814 161.218 171.392C153.834 172.969 143.985 173.907 136.152 172.068C133.76 171.504 129.746 170.256 125.317 168.796V176.85C128.051 177.896 130.483 178.793 132.201 179.374C139.88 181.965 153.07 181.948 160.3 180.222C167.529 178.495 176.018 174.381 181.935 169.8C187.077 165.821 198.345 155.477 201.223 152.827L201.262 145.174C198.849 147.337 190.504 154.788 185.028 159.327V159.317Z"
    fill="#222"
  />
  <path
    d="M160.299 180.221C153.07 181.948 139.879 181.97 132.2 179.375C130.483 178.793 128.051 177.896 125.317 176.85C124.782 176.647 124.243 176.44 123.69 176.224C115.332 173.001 105.009 168.8 103.035 167.997V170.359C105.836 171.455 125.47 179.13 132.595 181.533C140.276 184.124 152.716 184.161 159.945 182.434C167.174 180.708 175.717 176.949 181.637 172.37C186.781 168.39 198.272 158.182 201.209 155.567L201.222 152.822C198.344 155.472 187.078 165.816 181.934 169.797C176.014 174.38 167.53 178.49 160.299 180.217V180.221Z"
    fill="#B6B5B0"
  />
  <path
    d="M54.1123 151.826L54.2563 162.229L54.6654 167.34L57.4573 168.485V155.658L65.496 158.925V171.785L68.8365 173.16V160.192L77.4912 163.519V176.711L80.8946 178.109V164.925L89.801 168.251V181.763L94.0048 183.49L94.1937 167.526L54.1123 151.826Z"
    fill="#B6B5B0"
  />
  <path
    d="M174.689 163.941C165.867 168.619 150.015 174.758 127.877 167.717C121.218 165.599 112.775 162.619 104.224 159.487L101.27 161.857L101.126 178.914C101.126 178.914 101.832 179.202 103.037 179.693V161.038C103.037 161.038 128.326 170.241 136.159 172.08C143.99 173.919 153.841 172.982 161.223 171.404C168.606 169.827 178.569 164.679 185.034 159.329C190.509 154.791 198.854 147.345 201.269 145.177L201.282 142.576C197.474 146.101 182.363 159.879 174.693 163.945L174.689 163.941Z"
    fill="#B6B5B0"
  />
  <path d="M93.7422 165.607L100.522 160.19L64.3298 146.362L57.1768 151.225L93.7422 165.607Z" fill="#B6B5B0" />
  <path
    d="M47.0299 139.273V146.84C47.2637 146.935 47.493 147.025 47.7313 147.12C48.1404 147.287 48.5316 147.44 48.9091 147.593V140.08C48.2798 139.814 47.6504 139.543 47.0254 139.273H47.0299Z"
    fill="#B6B5B0"
  />
  <path
    d="M38.3747 135.177C32.3816 131.842 28.3668 128.313 26.2178 122.99C26.2223 125.194 26.2313 127.352 26.2357 129.358C26.964 131.652 28.6275 135.506 32.1614 138.589C37.3542 143.114 41.0677 144.462 47.0248 146.842V139.274C43.644 137.809 40.4563 136.34 38.3702 135.177H38.3747Z"
    fill="#222"
  />
  <path
    d="M62.1851 145.453C60.4451 144.777 54.632 142.51 48.9131 140.08V147.594C52.3839 148.991 54.65 149.933 55.8684 150.438L62.1851 145.453Z"
    fill="#222"
  />
  <path d="M92.8884 151.551V144.515L77.5752 138.706V145.75L92.8884 151.551Z" fill="#C1FA81" />
  <path d="M77.575 145.751V138.706L76.5635 138.323V145.368L77.575 145.751Z" fill="#222" />
  <path d="M93.8989 151.933V144.902L92.8872 144.514V151.549L93.8989 151.933Z" fill="#222" />
  <path d="M123.686 163.21L125.318 163.827V156.819L114.527 152.726V159.74L123.686 163.21Z" fill="#C1FA81" />
  <path d="M76.5632 145.367V138.322L58.2827 131.386V138.448L76.5632 145.367Z" fill="#C1FA81" />
  <path d="M113.514 159.355V152.342L93.8984 144.9V151.932L113.514 159.355Z" fill="#C1FA81" />
  <path d="M114.527 159.74V152.727L113.516 152.343V159.356L114.527 159.74Z" fill="#222" />
  <path
    d="M123.687 163.21V166.348C124.24 166.532 124.784 166.713 125.314 166.888V163.829L123.687 163.21Z"
    fill="#B6B5B0"
  />
  <path
    d="M114.528 159.741L113.517 159.359L93.9053 151.931L92.8938 151.547L77.5806 145.751L76.5689 145.368L58.2886 138.449L57.2769 138.066L48.9189 134.902V138.053C49.8452 138.422 50.542 138.688 50.9152 138.842C52.7991 139.63 63.8995 144.111 63.8995 144.111C63.8995 144.111 100.87 158.746 123.695 166.348V163.213L114.533 159.747L114.528 159.741Z"
    fill="#222"
  />
  <path
    d="M186.171 143.264C180.29 148.447 168.748 153.216 160.017 154.983C151.286 156.749 139.524 156.109 133.006 154.045C126.487 151.981 51.3686 123.621 43.1995 120.354C35.0303 117.086 29.824 111.939 27.9493 108.937C27.3108 107.914 26.7309 106.53 26.2498 105.151C26.2094 108.684 26.2049 114.251 26.2139 119.912C27.0411 121.972 28.8799 125.424 32.7284 128.926C36.9142 132.735 43.0735 135.628 47.1154 137.319V127.15L48.9138 127.831L57.2718 131.004L58.2833 131.387L76.5638 138.324L77.5753 138.707L92.8885 144.517L93.9001 144.9L113.511 152.341L114.523 152.725L125.313 156.818V166.882C126.19 167.17 127.044 167.445 127.871 167.706C150.014 174.746 165.862 168.607 174.684 163.929C182.357 159.863 197.464 146.081 201.272 142.561L201.34 130.296C201.34 130.296 192.046 138.071 186.165 143.255L186.171 143.264Z"
    fill="#222"
  />
  <path
    d="M47.1152 134.22V137.316C47.7807 137.596 48.3831 137.839 48.9136 138.051V134.901L47.1152 134.22Z"
    fill="#B6B5B0"
  />
  <path d="M48.9136 127.831L47.1152 127.15V134.222L48.9136 134.903V127.831Z" fill="#B6B5B0" />
  <path d="M57.2711 138.065V131.002L48.9131 127.829V134.901L57.2711 138.065Z" fill="#C1FA81" />
  <path d="M58.285 138.447V131.385L57.2734 131.001V138.064L58.285 138.447Z" fill="#222" />
  <path
    d="M149.246 146.363C144.481 146.363 139.948 145.714 136.82 144.583C129.918 142.09 50.3808 112.234 49.576 111.937C49.5356 111.923 49.4951 111.905 49.4592 111.887C45.1251 109.899 41.3126 106.307 39.7569 102.746C38.3183 99.4562 39.2084 93.9935 43.1918 90.5544C46.4334 87.7554 68.7916 71.1419 71.714 69.1362C72.0153 68.9288 72.3345 68.7034 72.6762 68.4692C75.4097 66.5626 79.537 63.6779 84.0419 62.4971C86.9238 61.7398 91.3973 60.8384 96.3652 60.8384C99.989 60.8384 103.415 61.3117 106.553 62.2491C111.971 63.8628 142.269 74.7973 164.389 82.784C176.653 87.2102 186.338 90.7077 188.244 91.3387C194.515 93.421 200.158 97.3469 202.622 101.345C205.63 106.226 204.034 112.04 201.008 115.033C198.108 117.9 184.486 130.678 173.785 139.057C165.661 145.421 154.934 146.367 149.26 146.367L149.246 146.363Z"
    fill="#F3F3F3"
  />
  <path
    d="M216.468 109.047C215.685 112.784 214.053 116.426 211.328 119.035C207.561 122.641 187.446 139.823 185.59 141.346C183.733 142.87 174.179 149.684 162.997 152.443C151.816 155.202 138.89 154.246 131.355 151.654C123.82 149.063 51.9658 121.699 46.5303 119.522C41.0992 117.345 34.5036 114.375 30.1201 108.894C27.3866 105.473 26.6043 102.052 26.4064 99.9653C26.357 100.723 26.3255 101.493 26.2986 102.287C26.2761 102.94 26.2581 103.923 26.2446 105.149C26.7302 106.528 27.3056 107.907 27.9441 108.935C29.8188 111.941 35.0251 117.084 43.1943 120.352C51.3634 123.619 126.481 151.979 133 154.043C139.52 156.107 151.286 156.747 160.012 154.981C168.743 153.214 180.279 148.445 186.164 143.262C192.045 138.078 201.339 130.304 201.339 130.304L201.271 142.568L201.258 145.168L201.154 164.765C201.762 164.207 202.35 163.662 202.926 163.125L202.953 128.699C202.953 128.699 208.685 124.246 212.422 120.388C214.786 117.945 215.991 115.439 216.558 113.924C216.603 112.18 216.57 110.557 216.463 109.047H216.468Z"
    fill="#F3F3F3"
  />
  <path
    d="M201.083 102.282C198.723 98.4506 193.104 94.8447 187.672 93.0419C182.242 91.239 114.353 66.4493 106.035 63.9703C97.7178 61.4914 89.2115 62.9923 84.4908 64.2318C79.7701 65.4712 75.463 68.739 72.7249 70.6185C69.9914 72.498 47.6241 89.098 44.3646 91.9151C41.105 94.7321 40.2058 99.2754 41.4063 102.02C42.6067 104.761 45.7898 108.218 50.2092 110.246C50.2092 110.246 56.1574 112.477 64.9559 115.781C65.3606 114.131 66.3586 112.675 67.24 112.026C68.0581 111.427 83.2409 99.2889 85.4933 97.4364C87.4132 95.8589 94.3908 90.9641 103.594 94.2723C105.096 94.8132 108.18 95.9175 112.253 97.3778C131.387 104.233 171.204 118.499 174.122 119.761C175.669 120.428 177.768 121.546 178.186 123.515C178.492 124.944 177.858 126.49 176.253 128.239C173.821 130.884 164.429 139.236 159.654 143.451C164.321 142.414 168.901 140.579 172.67 137.627C183.459 129.176 197.042 116.407 199.739 113.739C202.437 111.071 203.449 106.113 201.089 102.282H201.083Z"
    fill="#222"
  />
  <path
    d="M183.694 109.007C178.943 106.785 122.037 86.1869 107.506 81.5896C92.3817 76.8074 81.4567 83.0725 78.4669 85.1052C75.2702 87.2821 55.0386 102.715 53.0873 104.279C50.9292 106.014 50.3808 108.218 50.2593 110.264C50.4122 110.323 50.9472 110.521 51.8104 110.846C51.8689 108.939 52.2241 106.997 54.0763 105.509C55.0161 104.752 59.5973 101.246 64.6283 97.4188L73.863 106.771C74.2721 106.447 74.6813 106.118 75.0994 105.784L65.8917 96.4589C71.7364 92.0238 77.8329 87.44 79.3481 86.4077C79.7392 86.1418 80.2787 85.7993 80.9486 85.4162L87.4767 96.0262C87.8903 95.7738 88.3489 95.5124 88.8479 95.2509L82.3379 84.6725C86.9147 82.3963 95.3805 79.6785 106.216 82.8471L102.201 93.8312C102.66 93.9573 103.118 94.1016 103.586 94.2684C103.622 94.2819 103.662 94.2955 103.698 94.309L107.717 83.3114C111.525 84.5328 117.716 86.6602 124.959 89.2023L119.713 100.051C120.203 100.227 120.702 100.407 121.205 100.587L126.456 89.7296C132.445 91.8345 139.068 94.1962 145.614 96.549L138.965 106.961C139.473 107.141 139.975 107.326 140.483 107.506L147.134 97.0943C153.711 99.4652 160.153 101.804 165.742 103.86L158.701 114.073C159.219 114.262 159.731 114.447 160.23 114.627L167.266 104.423C175.502 107.461 181.604 109.773 183.024 110.436C183.667 110.738 184.306 111.035 184.922 111.355L176.176 120.865C176.614 121.167 177.022 121.51 177.36 121.907L186.324 112.158C189.054 113.897 190.996 116.493 190.367 122.411L190.443 122.42C190.991 121.925 191.526 121.433 192.043 120.96C192.295 113.036 187.547 110.814 183.685 109.012L183.694 109.007Z"
    fill="#B6B5B0"
  />
  <path
    d="M128.484 88.2913L131.901 79.0335L128.399 77.7581L124.896 87.0294C126.065 87.4395 127.261 87.8587 128.48 88.2913H128.484Z"
    fill="#F3F3F3"
  />
  <path
    d="M169.214 102.985L173.805 93.9663L170.285 92.5015L165.586 101.647C166.84 102.106 168.05 102.552 169.22 102.985H169.214Z"
    fill="#F3F3F3"
  />
  <path
    d="M149.083 95.6432L153.391 86.7911L149.847 85.3623L145.392 94.3136C146.625 94.7553 147.856 95.2015 149.083 95.6432Z"
    fill="#F3F3F3"
  />
  <path
    d="M188.328 111.094L194.281 102.868L191.452 100.763L185.563 109.408C186.503 109.886 187.447 110.427 188.328 111.094Z"
    fill="#F3F3F3"
  />
  <path
    d="M107.64 81.1576C108.206 81.338 108.844 81.5452 109.537 81.7706L112.14 72.1612L108.732 71.0344L106.088 80.7023C106.605 80.8421 107.127 80.9953 107.644 81.1576H107.64Z"
    fill="#F3F3F3"
  />
  <path
    d="M82.3862 82.4096L77.67 73.2148L74.7656 75.0944L79.2031 84.0998C80.0258 83.595 81.0914 83.009 82.3817 82.4141L82.3862 82.4096Z"
    fill="#F3F3F3"
  />
  <path
    d="M65.4098 94.2791L59.6326 86.1526L56.7866 88.3116L62.8965 96.1902C63.7238 95.5592 64.569 94.9192 65.4143 94.2791H65.4098Z"
    fill="#F3F3F3"
  />
  <path
    d="M174.928 127.019C176.092 125.748 176.596 124.698 176.424 123.891C176.24 123.026 175.256 122.215 173.404 121.417C170.539 120.177 130.759 105.925 111.643 99.0789C107.569 97.6186 104.485 96.5144 102.983 95.9736C94.6749 92.9807 88.3671 97.4068 86.6317 98.8356C84.3748 100.693 69.1245 112.88 68.3018 113.484C67.7398 113.899 66.9216 115.098 66.6562 116.423C90.5252 125.379 132.476 141.104 137.427 142.889C141.365 144.313 148.662 145.143 156.211 144.075C159.043 141.587 172.095 130.102 174.923 127.019H174.928Z"
    fill="#C1FA81"
  />
  <path
    d="M136.539 108.004L125.893 117.266C122.71 116.252 116.964 115.896 112.589 118.375C110.202 119.732 108.943 121.701 109.136 123.77C109.321 125.726 110.773 127.471 112.989 128.489L108.736 132.19C109.136 132.338 109.536 132.492 109.937 132.64L114.19 128.94C115.79 129.44 117.566 129.679 119.342 129.679C123.577 129.679 127.781 128.34 129.449 126.105C130.442 124.775 130.82 123.337 130.542 121.945C130.227 120.372 129.107 118.907 127.462 117.933C127.345 117.866 127.219 117.798 127.08 117.73L137.758 108.441C137.353 108.297 136.949 108.148 136.544 108.004H136.539ZM113.938 127.669C111.816 126.858 110.413 125.348 110.256 123.671C110.103 122.039 111.128 120.507 113.142 119.362C115.386 118.087 118.061 117.627 120.498 117.627C122.139 117.627 123.667 117.839 124.881 118.15L113.938 127.673V127.669ZM129.436 122.166C129.651 123.252 129.35 124.351 128.545 125.433C126.554 128.106 120.088 129.314 115.197 128.061L126.135 118.542C126.423 118.654 126.675 118.776 126.882 118.898C128.235 119.7 129.188 120.921 129.436 122.161V122.166Z"
    fill="#F3F3F3"
  />
  <path
    d="M72.9145 118.764L75.0321 116.984L83.3541 119.846C83.4126 119.864 83.4755 119.877 83.5384 119.877C83.6687 119.877 83.7992 119.832 83.9026 119.742L87.6972 116.484C87.94 116.506 88.331 116.538 88.8122 116.538C90.1835 116.538 92.2606 116.299 93.5419 115.01C95.165 113.383 94.7963 111.449 94.5265 110.615L97.4444 108.109C97.5927 107.978 97.6646 107.78 97.6331 107.586C97.6017 107.392 97.4668 107.226 97.2824 107.154L90.0665 104.359L101.482 95.5012C100.954 95.3189 100.642 95.2546 100.048 95.1912L71.7051 118.309C72.1052 118.458 72.5099 118.611 72.9145 118.764ZM92.7461 114.212C91.7795 115.181 90.125 115.388 88.9516 115.402L93.5734 111.431C93.7037 112.152 93.6902 113.265 92.7461 114.212ZM89.0819 105.188L96.0011 107.87L83.4171 118.683L76.0438 116.145L89.0864 105.193L89.0819 105.188Z"
    fill="#F3F3F3"
  />
  <path
    d="M154.422 126.24C154.232 126.186 154.027 126.237 153.885 126.37L150.213 129.808C149.63 129.756 148.285 129.786 145.978 130.643C144.126 131.334 142.819 132.693 142.574 134.19C142.438 135.013 142.652 135.797 143.156 136.422L139.816 139.551C139.674 139.684 139.611 139.881 139.648 140.073C139.685 140.266 139.818 140.422 140.001 140.489L147.673 143.367L146.241 144.827C146.776 144.819 147.315 144.801 147.868 144.774L150.608 141.982L149.808 141.191L148.54 142.485L141.244 139.752L154.417 127.409L161.834 129.881L149.808 141.191L150.608 141.982L163.17 129.936C163.479 129.623 163.306 129.763 163.597 129.464L162.06 128.924L154.422 126.24ZM143.974 135.656C143.703 135.29 143.6 134.857 143.68 134.375C143.858 133.292 144.914 132.243 146.368 131.703C147.473 131.292 148.324 131.092 148.943 130.999L143.974 135.656Z"
    fill="#F3F3F3"
  />
  <path
    d="M149.794 143.05L147.824 144.993L147.767 144.976C147.37 144.861 146.974 144.746 146.582 144.635L172.219 120.083L173.3 120.583L163.777 129.27L162.866 130.179L150.735 142.134L149.794 143.05Z"
    fill="#F3F3F3"
  />
</svg>
