<svg
  width="240"
  height="240"
  viewBox="0 0 240 240"
  fill="none"
  xmlns="http://www.w3.org/2000/svg"
  data-fui-pictogram="true"
>
  <path stroke="#000" stroke-opacity=".01" d="M0.5 0.5H239.5V239.5H0.5z" />
  <path d="M162.328 108.03L206.139 80.1423L206.133 66.3641L162.323 93.6066L162.328 108.03Z" fill="#151515" />
  <path d="M160.889 93.8517L50.7447 58.3618V72.2027L160.889 107.835V93.8517Z" fill="#151515" />
  <path d="M50.7216 154.993V167.578L115.735 191.887V178.994L50.7216 154.993Z" fill="#151515" />
  <path d="M204.087 65.708L95.4171 31L51.6176 55.7255L161.533 91.7861L204.087 65.708Z" fill="#F3F3F3" />
  <path
    d="M162.328 108.028L162.38 190.685L206.174 156.178L206.139 80.146L162.328 108.028ZM177.845 119.249L191.293 110.687L191.47 131.303L177.845 140.653V119.249Z"
    fill="#B6B5B0"
  />
  <path d="M162.392 208.294L206.18 172.097L206.174 156.173L162.38 190.687L162.392 208.294Z" fill="#151515" />
  <path
    d="M162.38 190.688L162.328 108.03L162.323 93.6073L206.134 66.3649L204.085 65.7085L161.531 91.7866L51.6165 55.7258L50.7445 56.2224V58.3628L160.888 93.8527V107.836L50.7445 72.2037V75.1603L51.4846 74.1159L160.888 109.549L145.073 137.413V143.549L105.168 130.193V161.527L106.964 163.166V166.985L105.92 167.732L58.7013 150.684V146.722L60.3879 145.832V115.211L50.7216 111.974V154.993L115.735 178.993V191.887L117.886 192.691V134.902L145.423 145.01L145.348 202.953L147.189 203.645V185.512L160.59 190.597V208.656L161.531 209.004L162.392 208.296L162.38 190.688Z"
    fill="#F3F3F3"
  />
  <path d="M160.592 190.596L147.191 185.51V203.643L160.592 208.655V190.596Z" fill="#151515" />
  <path d="M191.292 110.69L177.846 119.251V140.655L191.471 131.311L191.292 110.69Z" fill="#151515" />
  <path d="M145.365 191.502L145.422 145.007L123.003 136.777V183.985L145.365 191.502Z" fill="#FA4616" />
  <path d="M117.885 134.902V188.645L123.002 183.987V136.781L117.885 134.902Z" fill="#B6B5B0" />
  <path d="M123.002 183.985L117.885 188.642V192.689L145.347 202.951L145.364 191.501L123.002 183.985Z" fill="#151515" />
  <path d="M138.996 161.311V169.677L141.595 170.534V162.258L138.996 161.311Z" fill="#151515" />
  <path d="M105.169 158.557V130.191L64.5362 116.594V143.843L105.169 158.557Z" fill="#FA4616" />
  <path
    d="M105.168 161.526V158.558L64.535 143.843V116.595L60.3874 115.208V145.83L58.7008 146.72V150.681L105.919 167.731L106.963 166.982V163.165L105.168 161.526Z"
    fill="#151515"
  />
  <path d="M115.59 133.678L105.167 130.192V132.897L115.59 138.422V133.678Z" fill="#B6B5B0" />
  <path d="M60.3879 115.211L50.7216 111.974V114.155L60.3879 121.768V115.211Z" fill="#B6B5B0" />
  <path
    d="M83.4945 84.4851L67.1508 79.1885L49.9064 105.506V111.71L50.721 111.973L60.3872 115.21L66.732 117.333V110.215L83.4945 84.4851Z"
    fill="#F3F3F3"
  />
  <path
    d="M67.1522 79.1885L51.4853 74.1145L50.7454 75.159L34 100.272V105.312C34 106.009 34.4475 106.625 35.1129 106.842L47.7795 111.003C48.8293 111.345 49.9078 110.569 49.9078 109.473V105.501L67.1522 79.1828V79.1885Z"
    fill="#354B98"
  />
  <path
    d="M99.8037 89.765L83.4945 84.4855L66.7319 110.215V116.174C66.7319 116.864 67.1737 117.482 67.8334 117.704L80.5573 121.962C81.6071 122.315 82.6914 121.534 82.6914 120.432V115.683L99.7923 89.765H99.8037Z"
    fill="#354B98"
  />
  <path
    d="M148.038 105.387L132.182 100.25L115.305 127.007V133.583L131.413 138.975V132.235L148.038 105.387Z"
    fill="#F3F3F3"
  />
  <path
    d="M148.038 105.385L131.413 132.234V137.81C131.413 138.5 131.855 139.118 132.515 139.34L142.933 142.827C143.982 143.18 145.067 142.399 145.067 141.297V137.405L160.877 109.546L148.027 105.385H148.038Z"
    fill="#354B98"
  />
  <path
    d="M116.028 95.022L99.8048 89.7652L82.7037 115.684V122.675L99.3859 128.257V121.157L116.028 95.022Z"
    fill="#F3F3F3"
  />
  <path
    d="M132.182 100.25L116.027 95.0161L99.385 121.152V127.098C99.385 127.789 99.8268 128.405 100.486 128.628L105.168 130.192L113.164 132.87C114.214 133.223 115.299 132.44 115.299 131.34V127.001L132.176 100.25H132.182Z"
    fill="#354B98"
  />
</svg>
