<svg
  width="240"
  height="240"
  viewBox="0 0 240 240"
  fill="none"
  xmlns="http://www.w3.org/2000/svg"
  data-fui-pictogram="true"
>
  <path stroke="#000" stroke-opacity=".01" d="M0.5 0.5H239.5V239.5H0.5z" />
  <path
    d="M185.066 61.8487L186.268 57.0171 185.85 38.1924 165.158 56.1084 165.61 78.0813 167.969 80.5642 188.349 82.9228 210.357 64.2172 189 62.1516 185.066 61.8487zM150.493 191.304C178.255 173.458 182.077 129.942 159.03 94.1059 135.982 58.2704 94.792 43.6868 67.0293 61.5325 39.2668 79.3782 35.4446 122.895 58.4923 158.731 81.5399 194.567 122.73 209.15 150.493 191.304z"
    fill="#FA4616"
  />
  <path
    d="M141.684 176.048C163.115 162.273 166.066 128.682 148.277 101.021C130.487 73.3609 98.6918 62.1054 77.2607 75.8812C55.8296 89.657 52.8778 123.247 70.6677 150.908C88.4575 178.568 120.252 189.824 141.684 176.048Z"
    fill="#F3F3F3"
  />
  <path
    d="M133.07 161.503C148.422 151.635 150.534 127.572 137.79 107.758C125.046 87.9425 102.271 79.8785 86.9196 89.7461C71.5685 99.6138 69.455 123.676 82.1991 143.491C94.9433 163.306 117.719 171.37 133.07 161.503Z"
    fill="#FA4616"
  />
  <path
    d="M123.898 146.262C132.851 140.506 134.084 126.474 126.653 114.92C119.222 103.366 105.94 98.664 96.9871 104.419C88.0344 110.174 86.8012 124.205 94.2325 135.76C101.664 147.315 114.946 152.016 123.898 146.262Z"
    fill="#F3F3F3"
  />
  <path
    d="M116.989 134.652C121.084 132.02 121.649 125.602 118.25 120.317C114.851 115.032 108.776 112.882 104.68 115.515C100.584 118.147 100.02 124.566 103.419 129.85C106.818 135.135 112.893 137.285 116.989 134.652Z"
    fill="#FA4616"
  />
  <path
    d="M58.4904 158.735C37.0082 125.331 38.8757 85.254 61.719 65.5156C58.9127 66.6279 56.2006 68.0084 53.6078 69.6768C25.8423 87.5233 22.0177 131.037 45.0646 166.874C68.1115 202.711 109.298 217.294 137.064 199.449C138.946 198.236 140.714 196.906 142.378 195.471C115.184 206.241 79.3817 191.22 58.4904 158.73V158.735Z"
    fill="#151515"
  />
  <path
    d="M186.576 56.748L150.957 88.0066C151.181 89.3425 152.02 91.6464 155.03 92.9575L191.031 61.8527C189.625 61.371 187.152 60.0601 186.576 56.748Z"
    fill="#B6B5B0"
  />
  <path
    d="M189.457 54.562C189.075 54.6861 188.702 54.8799 188.384 55.1629L186.576 56.7469C186.849 58.3061 187.545 59.4184 188.345 60.2129L190.526 57.9684C190.526 57.9684 189.661 56.6327 189.453 54.562H189.457Z"
    fill="#F3F3F3"
  />
  <path
    d="M193.049 55.848L192.493 55.2918C191.673 54.4726 190.501 54.2293 189.457 54.5569 189.666 56.6276 190.53 57.9633 190.53 57.9633L188.35 60.2078C189.254 61.0967 190.291 61.5882 191.037 61.8416L192.89 60.2426C194.211 59.1006 194.286 57.0795 193.049 55.848zM150.958 88.0073L112.061 122.146C110.775 123.278 110.691 125.255 111.883 126.486 112.99 127.633 114.803 127.717 116.01 126.674L155.036 92.9581C152.025 91.6522 151.186 89.3431 150.963 88.0073H150.958z"
    fill="#151515"
  />
</svg>
