<svg
  width="240"
  height="240"
  viewBox="0 0 240 240"
  fill="none"
  xmlns="http://www.w3.org/2000/svg"
  data-fui-pictogram="true"
>
  <path stroke="#000" stroke-opacity=".01" d="M0.5 0.5H239.5V239.5H0.5z" />
  <path
    fill-rule="evenodd"
    clip-rule="evenodd"
    d="M71.6747 30.0288L58.6481 38.9135L57.7129 39.0982L70.4459 50.8831L116.762 65.1606L118.425 71.7591L122.112 73.3231L104.757 72.8561L104.143 73.6923V78.5529L103.431 78.4823V82.1699H104.143V88.0841L103.431 87.8505V91.5381L104.143 91.6575V98.7339L110.662 100.993L110.7 101.531L121.416 105.376L126.662 102.112L126.352 101.721L136.953 95.0029L136.818 70.5262L137.818 71.7591L149.431 75.5498V76.3318L155.016 78.0534V77.3691L159.184 78.7919L169.847 72.1826L179.425 64.5252L155.661 56.9004L155.923 56.2975L149.894 54.2937L149.431 54.9235L71.6747 30.0288Z"
    fill="#F3F3F3"
  />
  <path
    d="M44.3022 177.845L41.0781 173.282L41.04 172.088L44.3783 149.761L44.9491 149.034L60.8843 139.296L57.7147 140.35L70.4475 132.307L70.0888 50.7688L80.9406 54.1142L81.0928 126.203L99.9639 113.435L102.117 114.287L98.9744 116.498L117.514 122.933L130.888 114.108L131.258 114.738V118.388L149.433 124.573V123.813L155.016 125.725V126.29L157.272 127.245L159.382 127.256L158.333 70.2056L126.631 60.4248L126.707 59.7894L169.088 72.7908L179.427 64.5251L179.526 65.6058L179.612 136.293L198.712 142.055L199.593 142.527L199.772 166.396L131.84 213.341L130.762 213.52L44.3022 177.845Z"
    fill="#F3F3F3"
  />
  <path
    fill-rule="evenodd"
    clip-rule="evenodd"
    d="M44.9473 149.034L60.8824 139.297 60.616 143.359 63.3615 144.51 64.1173 149.935 64.4762 143.864 121.687 163.47 121.926 172.212H123.101L123.133 163.963 157.022 138.292 157.27 157.061 168.938 160.983 172.701 158.63 170.336 133.497 198.71 142.056 136.601 184.362 44.9473 149.034zM44.3783 149.763L135.955 185.535 130.584 208.333C100.736 195.126 70.8879 182.911 41.04 172.088L44.3783 149.763z"
    fill="#B6B5B0"
  />
  <path
    fill-rule="evenodd"
    clip-rule="evenodd"
    d="M44.3001 177.842L41.0762 173.281C71.1143 183.665 100.756 196.216 130.315 209.222L130.762 213.512 44.3001 177.837V177.842zM138.64 208.6L131.838 213.341 131.658 208.867 136.937 185.715 138.64 184.459V208.6z"
    fill="#151515"
  />
  <path
    fill-rule="evenodd"
    clip-rule="evenodd"
    d="M139.531 208.155L139.443 183.744L199.591 142.529L199.771 166.397L139.531 208.155Z"
    fill="#B6B5B0"
  />
  <path
    fill-rule="evenodd"
    clip-rule="evenodd"
    d="M46.7087 151.979L115.506 178.254L111.488 198.537C83.5158 186.161 71.9899 181.968 44.0176 171.822L46.7087 151.979Z"
    fill="#151515"
  />
  <path
    fill-rule="evenodd"
    clip-rule="evenodd"
    d="M71.6751 30.0288L58.6484 38.9135L119.203 57.4924C119.943 52.2571 121.677 47.6516 122.248 46.2234L71.6751 30.0288ZM126.706 59.7895L169.086 72.7909L179.426 64.5252L129.587 48.5641C127.967 52.3059 127.13 56.3192 126.711 59.7841L126.706 59.7895Z"
    fill="#B6B5B0"
  />
  <path
    fill-rule="evenodd"
    clip-rule="evenodd"
    d="M57.7129 39.0981L70.0871 42.9811 70.4458 132.307 57.7129 140.35V39.0981zM71.8916 52.2476L80.9385 54.9358V70.7611L77.3448 69.6098C75.219 70.191 74.8112 72.5424 76.0072 74.1228L80.9439 75.7576V80.2434L77.3502 79.092C75.2244 79.6731 74.8166 82.0247 76.0127 83.605L80.9493 85.2397V125.189L71.9025 130.902V52.2476H71.8916z"
    fill="#151515"
  />
  <path
    d="M194.219 152.625H193.165V165.018H194.219V152.625zM190.876 154.429H189.822V166.822H190.876V154.429zM187.794 156.534H186.738V168.927H187.794V156.534zM184.89 158.993H183.834V171.386H184.89V158.993z"
    fill="#151515"
  />
  <path
    fill-rule="evenodd"
    clip-rule="evenodd"
    d="M179.524 65.6064L169.934 73.3399 169.847 160.532 179.61 154.031 179.524 65.6064zM168.612 73.241L158.582 70.2053V156.931L168.612 160.411V73.241z"
    fill="#151515"
  />
  <path
    fill-rule="evenodd"
    clip-rule="evenodd"
    d="M61.9204 139.911L61.8008 142.854L121.812 165.544L121.85 161.747L61.9204 139.911Z"
    fill="#B6B5B0"
  />
  <path
    fill-rule="evenodd"
    clip-rule="evenodd"
    d="M64.4751 143.864L64.1162 149.935L121.925 172.212L121.806 165.098L64.4751 143.864Z"
    fill="#151515"
  />
  <path
    fill-rule="evenodd"
    clip-rule="evenodd"
    d="M157.537 137.825L157.598 141.464L123.101 165.957L123.079 161.969L157.537 137.825Z"
    fill="#B6B5B0"
  />
  <path
    fill-rule="evenodd"
    clip-rule="evenodd"
    d="M157.271 127.246V136.755L122.607 161.058 62.291 138.927 99.9625 113.435 102.121 114.288 98.2172 117.025V138.297L117.882 144.706 131.257 136.011 130.028 117.97 157.271 127.246zM149.43 76.333L155.013 78.0491V93.9723L149.43 92.0823V76.3384 76.333zM155.013 98.6916V103.536L149.43 101.646V96.8126L155.013 98.6916zM155.013 108.255V125.732L149.43 123.82V106.382L155.013 108.261V108.255z"
    fill="#151515"
  />
  <path
    fill-rule="evenodd"
    clip-rule="evenodd"
    d="M157.814 105.261V108.579L128.021 98.559C127.347 97.3263 127.962 95.9306 128.978 95.4907L157.814 105.261zM157.879 95.5513V98.8696L128.086 89.409C127.412 88.1763 128.026 86.7806 129.043 86.3406L157.879 95.5459V95.5513zM103.43 87.8509V91.5385L77.0996 83.2402C75.6642 82.7895 76.0829 79.5092 77.7411 80.0089L103.424 87.8455 103.43 87.8509zM103.43 78.4815V82.1691L77.0996 73.8708C75.6642 73.4201 76.0829 70.1398 77.7411 70.6395L103.424 78.4761 103.43 78.4815zM137.819 71.7598C137.738 69.0009 136.151 69.8426 136.151 69.8426L134.221 71.0212 134.176 71.0646H134.161L121.504 78.7872 104.764 72.8513 116.768 65.1559 70.0938 50.7696V42.9819L119.128 58.1068C118.9 59.9532 118.802 61.8702 118.932 63.7385L125.293 68.2515C125.293 68.2515 124.119 70.0056 122.031 69.5875 122.031 69.5875 117.426 70.8419 121.362 71.3416 121.362 71.3416 124.374 71.7598 126.386 69.0009 126.386 69.0009 126.103 65.3296 126.641 60.4202L158.344 70.2011V78.4505L137.831 71.7598H137.819z"
    fill="#B6B5B0"
  />
  <path
    fill-rule="evenodd"
    clip-rule="evenodd"
    d="M155.923 56.2967L149.894 54.2874C150.986 43.0564 143.446 36.029 134.659 41.1612C128.234 45.1147 125.135 54.0539 125.281 67.8482C125.281 68.2826 125.39 68.5921 124.966 68.869C124.172 69.3959 122.248 69.586 122.025 69.586C122.025 69.586 117.567 70.9436 122.139 71.351C122.139 71.351 125.124 71.2531 126.38 68.9994L126.608 64.3833L132.039 66.322L132.067 69.6674L123.694 74.9353L113.108 71.6823V69.4284L120.252 64.6764C119.627 59.7127 119.991 55.0206 121.416 50.627C123.302 44.8323 127.217 38.9562 132.523 35.7683C136.476 33.395 140.722 32.7652 145.152 34.4432C150.922 36.6265 153.835 40.8244 155.368 46.706C156.134 49.6331 156.342 52.8156 155.912 56.2913L155.923 56.2967Z"
    fill="#151515"
  />
  <path
    fill-rule="evenodd"
    clip-rule="evenodd"
    d="M98.2168 117.025L117.224 123.531V144.705L98.2168 138.297V117.025zM131.255 114.739L117.881 123.531V144.707L131.255 136.011V114.739zM112.233 107.732L102.115 114.287 98.9727 116.498 117.512 122.933 130.886 114.108 112.233 107.732z"
    fill="#FA4616"
  />
  <path
    d="M90.9111 183.156C92.4244 183.156 93.6512 181.931 93.6512 180.419 93.6512 178.908 92.4244 177.682 90.9111 177.682 89.3977 177.682 88.1709 178.908 88.1709 180.419 88.1709 181.931 89.3977 183.156 90.9111 183.156zM98.7676 185.74C100.281 185.74 101.508 184.515 101.508 183.003 101.508 181.492 100.281 180.266 98.7676 180.266 97.2542 180.266 96.0273 181.492 96.0273 183.003 96.0273 184.515 97.2542 185.74 98.7676 185.74zM105.698 188.527C107.211 188.527 108.438 187.301 108.438 185.789 108.438 184.278 107.211 183.052 105.698 183.052 104.185 183.052 102.958 184.278 102.958 185.789 102.958 187.301 104.185 188.527 105.698 188.527z"
    fill="#B6B5B0"
  />
  <path
    fill-rule="evenodd"
    clip-rule="evenodd"
    d="M58.4412 161.208L56.4785 171.744L83.0481 182.176L85.4294 172.157L58.4412 161.208Z"
    fill="#FA4616"
  />
  <path
    fill-rule="evenodd"
    clip-rule="evenodd"
    d="M104.143 73.6912V98.7326L120.948 104.56V79.6162L104.143 73.6912Z"
    fill="#B6B5B0"
  />
  <path
    fill-rule="evenodd"
    clip-rule="evenodd"
    d="M122.344 79.2699L136.811 70.5264L136.98 88.2634L132.484 86.7265V83.1258L129.564 85.3796L131.858 84.4998V86.5092L129.097 85.5642C126.987 86.2485 126.231 87.6388 127.297 89.9958L131.858 91.4566V95.6329L129.08 94.7749C126.884 95.5026 126.427 96.9689 127.411 99.0326L129.613 99.7061L122.11 104.447L122.344 79.2699ZM132.489 91.6576L136.936 93.0805L136.952 95.0031L134.675 96.5019L132.489 95.8231V91.6522V91.6576Z"
    fill="#151515"
  />
  <path
    fill-rule="evenodd"
    clip-rule="evenodd"
    d="M114.527 105.902L118.088 112.37 120.828 108.058 122.231 107.477 126.374 104.62C126.515 104.387 126.607 104.115 126.618 103.827L126.667 102.111 121.415 105.375 110.705 101.53 110.667 103.072C110.634 104.327 110.895 104.74 112.2 105.234L114.532 105.896 114.527 105.902zM157.475 140.985L157.6 146.873 123.103 172.212 123.13 165.332 157.475 140.985z"
    fill="#151515"
  />
</svg>
