<svg
  width="240"
  height="240"
  viewBox="0 0 240 240"
  fill="none"
  xmlns="http://www.w3.org/2000/svg"
  data-fui-pictogram="true"
>
  <path stroke="#000" stroke-opacity=".01" d="M0.5 0.5H239.5V239.5H0.5z" />
  <path d="M83.0959 140.402L108.134 155.116L120.688 135.185L91.796 125.657" fill="#151515" />
  <path
    d="M42.8675 152.69C42.6633 159.777 43.3305 168.693 44.3789 172.531C45.6542 177.208 47.7555 180.158 47.7555 180.158L47.8962 167.227C47.8962 167.227 43.7662 162.109 42.8675 152.69Z"
    fill="#606060"
  />
  <path d="M47.8936 167.227L47.7529 180.157L67.6267 158.066V145.58L47.8936 167.227Z" fill="#151515" />
  <path
    d="M103.237 164.504L95.8624 160.562H83.9491L81.7071 163.37L63.667 185.516C65.7954 185.447 76.7059 184.335 87.6752 177.907C98.6446 171.477 103.237 164.504 103.237 164.504Z"
    fill="#B6B5B0"
  />
  <path
    d="M86.9535 154.505C74.1689 147.323 68.4232 145.58 68.4232 145.58V157.695C69.5396 157.939 72.8754 158.738 75.78 160.108C79.3245 161.782 81.7071 163.37 81.7071 163.37L83.9491 160.562H95.8624L103.237 164.505C103.237 164.505 98.6446 171.483 87.6752 177.907C76.7059 184.337 65.7954 185.448 63.667 185.516L63.9802 196.233C63.9802 196.233 81.68 194.078 91.1834 187.186C100.687 180.294 103.038 176.156 103.038 176.156L111.956 180.943V168.565C111.956 168.565 99.7382 161.682 86.9581 154.5L86.9535 154.505Z"
    fill="#151515"
  />
  <path d="M112.671 180.579L122.124 167.34L122.265 155.116L112.671 168.379V180.579Z" fill="#151515" />
  <path
    d="M97.1356 128.432L116.283 138.613L110.724 144.929L116.683 148.563L125.079 132.307L98.6333 118.641C94.9708 122.125 89.8515 124.884 80.8291 126.417C79.4494 126.653 78.0516 126.849 76.6492 127.034L90.7545 135.043L97.1402 128.432H97.1356Z"
    fill="#3C3C3C"
  />
  <path
    d="M116.679 148.568L110.72 144.934L104.82 151.63L85.078 140.914L90.7464 135.047L76.641 127.039C68.5399 128.092 60.2437 128.541 54.2712 131.445C47.2639 134.847 43.86 141.114 43.1248 148.373C42.9932 149.675 42.907 151.141 42.8616 152.693C43.7602 162.116 47.8902 167.229 47.8902 167.229L67.6232 145.583V158.069L68.0316 157.616C68.0316 157.616 68.1723 157.643 68.4175 157.697V145.583C68.4175 145.583 74.1676 147.32 86.9478 154.507C99.7325 161.69 111.945 168.572 111.945 168.572V180.95L112.277 181.127L112.662 180.583V168.381L122.261 155.12L120.105 152.511L116.674 148.568H116.679Z"
    fill="#B6B5B0"
  />
  <path
    d="M192.499 61.7382C188.415 66.3026 125.217 132.264 125.217 132.264L125.076 141.425C125.076 141.425 191.391 71.2118 193.379 69.2563C195.366 67.3008 196.583 65.3453 196.583 63.358V56.1847C196.583 55.9487 196.637 55.427 196.583 54.7056C196.302 56.7519 195.29 58.6166 192.494 61.7427L192.499 61.7382Z"
    fill="#B6B5B0"
  />
  <path
    d="M192.723 47.7319C188.271 43.7619 181.55 43.1086 177.179 43.3672C172.809 43.6258 170.172 45.0958 166.569 48.4987C162.964 51.9016 102.69 114.628 99.0002 118.285C98.8776 118.407 98.7461 118.525 98.6235 118.648L125.069 132.313L116.673 148.571L120.104 152.513L125.069 141.424L125.21 132.264C125.21 132.264 188.407 66.3026 192.492 61.7381C195.287 58.612 196.299 56.7518 196.58 54.701C196.462 53.0903 195.796 50.4724 192.718 47.7274L192.723 47.7319ZM180.428 60.1683C177.383 60.1683 174.697 59.1928 173.021 57.6955C174.71 56.4297 177.179 55.6312 179.939 55.6312C182.984 55.6312 185.67 56.6066 187.344 58.1038C185.656 59.3698 183.188 60.1683 180.428 60.1683Z"
    fill="#151515"
  />
  <path
    d="M180.275 46.5554C173.998 46.5554 168.911 49.9401 168.911 54.1189C168.911 58.2976 173.998 61.6823 180.275 61.6823C186.552 61.6823 191.64 58.2976 191.64 54.1189C191.64 49.9401 186.552 46.5554 180.275 46.5554ZM180.429 60.1669C177.384 60.1669 174.698 59.1914 173.023 57.6941C174.711 56.4282 177.181 55.6297 179.94 55.6297C182.985 55.6297 185.671 56.6052 187.346 58.1025C185.658 59.3683 183.189 60.1669 180.429 60.1669Z"
    fill="#B6B5B0"
  />
  <path
    d="M101.761 133.285L99.6639 132.01C99.6639 132.01 97.1406 132.377 94.7579 135.131C92.3753 137.885 91.2134 142.844 91.2134 142.844L93.4553 144.259C93.4553 144.259 95.6973 134.25 101.765 133.285H101.761Z"
    fill="#354B98"
  />
  <path
    d="M93.4478 144.258L96.6247 144.059L102.044 136.065L101.762 133.288C95.6897 134.249 93.4523 144.263 93.4523 144.263L93.4478 144.258Z"
    fill="#354B98"
  />
  <path
    d="M105.995 135.525L103.898 134.25C103.898 134.25 101.374 134.617 98.9918 137.371C96.6092 140.125 95.4473 145.084 95.4473 145.084L97.6892 146.5C97.6892 146.5 99.9312 136.49 105.999 135.525H105.995Z"
    fill="#354B98"
  />
  <path
    d="M97.6853 146.494L100.862 146.295L106.281 138.301L106 135.524C99.9273 136.486 97.6898 146.5 97.6898 146.5L97.6853 146.494Z"
    fill="#354B98"
  />
  <path
    d="M101.761 133.285L99.6639 132.01C99.6639 132.01 97.1406 132.377 94.7579 135.131C92.3753 137.885 91.2134 142.844 91.2134 142.844L93.4553 144.259C93.4553 144.259 95.6973 134.25 101.765 133.285H101.761Z"
    fill="#354B98"
  />
  <path
    d="M93.4478 144.258L96.6247 144.059L102.044 136.065L101.762 133.288C95.6897 134.249 93.4523 144.263 93.4523 144.263L93.4478 144.258Z"
    fill="#151515"
  />
  <path
    d="M105.995 135.525L103.898 134.25C103.898 134.25 101.374 134.617 98.9918 137.371C96.6092 140.125 95.4473 145.084 95.4473 145.084L97.6892 146.5C97.6892 146.5 99.9312 136.49 105.999 135.525H105.995Z"
    fill="#354B98"
  />
  <path
    d="M97.6853 146.494L100.862 146.295L106.281 138.301L106 135.524C99.9273 136.486 97.6898 146.5 97.6898 146.5L97.6853 146.494Z"
    fill="#151515"
  />
  <path
    d="M109.769 137.592L107.672 136.318C107.672 136.318 105.149 136.686 102.766 139.439C100.383 142.194 99.2214 147.153 99.2214 147.153L101.463 148.568C101.463 148.568 103.705 138.559 109.773 137.592H109.769Z"
    fill="#354B98"
  />
  <path
    d="M101.458 148.57L104.634 148.37L110.053 140.375L109.772 137.599C103.7 138.561 101.462 148.574 101.462 148.574L101.458 148.57Z"
    fill="#151515"
  />
  <path
    d="M114.137 139.722L112.04 138.447C112.04 138.447 109.517 138.814 107.134 141.568C104.752 144.323 103.59 149.281 103.59 149.281L105.832 150.696C105.832 150.696 108.074 140.688 114.142 139.722H114.137Z"
    fill="#354B98"
  />
  <path
    d="M114.137 139.723C108.668 140.59 106.308 148.797 105.895 150.417L110.724 144.932L114.26 140.916L114.137 139.723Z"
    fill="#151515"
  />
  <path
    d="M123.528 124.546C122.471 124.546 121.404 124.297 120.415 123.784L111.32 119.061C110.099 118.426 109.273 117.283 109.051 115.926C108.833 114.565 109.255 113.222 110.213 112.233L158.22 62.7912C160.598 60.3412 164.233 59.7558 167.261 61.3302L176.56 66.1668C177.509 66.6614 178.153 67.5462 178.33 68.6033C178.502 69.6605 178.179 70.7086 177.44 71.4799L131.357 119.587L128.239 122.632C126.945 123.894 125.248 124.556 123.528 124.556V124.546ZM111.946 117.85L121.041 122.573C123.111 123.648 125.616 123.276 127.286 121.647L130.385 118.616L176.456 70.527C176.896 70.0687 177.091 69.4426 176.986 68.8165C176.882 68.1904 176.501 67.6596 175.933 67.3646L166.634 62.528C164.143 61.2304 161.151 61.7159 159.196 63.7304L111.188 113.172C110.53 113.848 110.244 114.769 110.394 115.699C110.544 116.629 111.111 117.409 111.946 117.845V117.85Z"
    fill="#B6B5B0"
  />
  <path
    d="M187.347 58.102C188.767 57.0358 189.634 55.6474 189.634 54.1184C189.634 50.7791 185.514 48.0703 180.431 48.0703C175.347 48.0703 171.226 50.7791 171.226 54.1184C171.226 55.4614 171.898 56.6955 173.024 57.6982C174.712 56.4324 177.181 55.6338 179.94 55.6338C182.985 55.6338 185.673 56.6093 187.347 58.1065V58.102Z"
    fill="#354B98"
  />
</svg>
